<svg xmlns="http://www.w3.org/2000/svg" xmlns:xlink="http://www.w3.org/1999/xlink" xmlns:inkscape="http://www.inkscape.org/namespaces/inkscape" version="1.1" width="20" height="58" viewBox="0 0 20 58">
<defs>
<path id="font_1_1" d="M.5179901 .37738038C.5219879 .39138795 .5219879 .39338685 .5219879 .40039063 .5219879 .42539979 .5019989 .43139649 .48999024 .43139649 .4850006 .43139649 .46199037 .43040467 .44898988 .40438844 .44699098 .3993988 .43798829 .3633728 .43299867 .34236146L.37298585 .102264408C.37199403 .09925842 .32899476 .018234253 .2559967 .018234253 .20698548 .018234253 .18998719 .054244996 .18998719 .09925842 .18998719 .1572876 .22399903 .24632263 .24699402 .3043518 .25698854 .32936097 .2599945 .33836366 .2599945 .35636903 .2599945 .4113922 .21598816 .44140626 .16999817 .44140626 .070999149 .44140626 .02999878 .300354 .02999878 .28834535 .02999878 .27934266 .036987306 .27534486 .04499817 .27534486 .057998659 .27534486 .05899048 .28134156 .06199646 .29135133 .08799744 .37838746 .1309967 .4133911 .16699219 .4133911 .18199158 .4133911 .19099427 .4033966 .19099427 .38038636 .19099427 .359375 .18299866 .33636476 .17599488 .31835938 .1349945 .21231079 .117996219 .1612854 .117996219 .11427307 .117996219 .016220093 .19198609-.009765625 .25099183-.009765625 .2979889-.009765625 .33198548 .011230469 .35598756 .034240724 .34199525-.021774292 .33198548-.060791017 .2939911-.108795169 .26098634-.14985657 .22099304-.17610169 .17599488-.17610169 .15899658-.17610169 .12098694-.17308045 .100997928-.14279175 .1539917-.13879395 .1579895-.09379578 .1579895-.08778381 .1579895-.06378174 .13999939-.05078125 .11898804-.05078125 .09700012-.05078125 .06199646-.0677948 .06199646-.11679077 .06199646-.1639862 .10499573-.20410156 .17599488-.20410156 .27799989-.20410156 .3929901-.121795658 .4229889-.00077819827L.5179901 .37738038Z"/>
<path id="font_2_121" d="M.4889984 .31877137C.4889984 .42585755 .47799684 .49090577 .44499208 .55496218 .40098573 .6430359 .31999208 .66503909 .2649994 .66503909 .13899231 .66503909 .09298706 .5709839 .07899475 .5429535 .042999269 .4698944 .040985109 .3708191 .040985109 .31877137 .040985109 .25271607 .04399109 .15162659 .09199524 .07156372 .13798523-.0024871827 .21199036-.021484375 .2649994-.021484375 .31298829-.021484375 .39898683-.0064849855 .44898988 .09257507 .48599244 .16464234 .4889984 .2537079 .4889984 .31877137M.3999939 .33078004C.3999939 .27172853 .3999939 .18165589 .3880005 .12561035 .36698915 .020523072 .2979889 .006515503 .2649994 .006515503 .23098755 .006515503 .1619873 .022521973 .14099121 .12760926 .12998963 .18466187 .12998963 .2787323 .12998963 .33078004 .12998963 .3998413 .12998963 .4698944 .14099121 .5249481 .1619873 .6270294 .23999024 .6370239 .2649994 .6370239 .29899598 .6370239 .36799623 .62002566 .3880005 .5289459 .3999939 .4738922 .3999939 .39883424 .3999939 .33078004Z"/>
<path id="font_2_57" d="M.5 .1640625V.197052H.3939972V.64682009C.3939972 .6668091 .3939972 .6748047 .37298585 .6748047 .3600006 .6748047 .35899354 .6737976 .34899903 .6598053L.02999878 .197052V.1640625H.31199647V.08100891C.31199647 .04399109 .30899049 .032989503 .23199463 .032989503H.20899964V0L.35299684 .0029907227 .49699403 0V.032989503H.47399903C.39698792 .032989503 .3939972 .04399109 .3939972 .08100891V.1640625H.5M.31900025 .197052H.06498718L.31900025 .56585696V.197052Z"/>
</defs>
<path transform="matrix(1.00006,0,0,-1.00003,8.971802,42.278909)" stroke-width=".79701" stroke-linecap="butt" stroke-miterlimit="10" stroke-linejoin="miter" fill="none" stroke="#000000" d="M0-14.17317V40.5887"/>
<path transform="matrix(0,-1.00003,-1.00006,-0,8.971802,1.2904739)" stroke-width=".79701" stroke-linecap="round" stroke-linejoin="round" fill="none" stroke="#000000" d="M-2.55046 3.11095C-2.0845 1.24435-1.04614 .36295 0 0-1.04614-.36295-2.0845-1.24435-2.55046-3.11095"/>
<use data-text="y" xlink:href="#font_1_1" transform="matrix(7.9705779,0,0,-7.9703395,14.424126,4.667778)"/>
<path transform="matrix(1.00006,0,0,-1.00003,8.971802,42.278909)" d="M1.59401 0C1.59401 .88036 .88036 1.59401 0 1.59401-.88036 1.59401-1.59401 .88036-1.59401 0-1.59401-.88036-.88036-1.59401 0-1.59401 .88036-1.59401 1.59401-.88036 1.59401 0ZM0 0" fill="#ffffff"/>
<path transform="matrix(1.00006,0,0,-1.00003,8.971802,42.278909)" stroke-width=".79701" stroke-linecap="butt" stroke-miterlimit="10" stroke-linejoin="miter" fill="none" stroke="#000000" d="M1.59401 0C1.59401 .88036 .88036 1.59401 0 1.59401-.88036 1.59401-1.59401 .88036-1.59401 0-1.59401-.88036-.88036-1.59401 0-1.59401 .88036-1.59401 1.59401-.88036 1.59401 0ZM0 0"/>
<path transform="matrix(1.00006,0,0,-1.00003,8.971802,42.278909)" stroke-width=".3985" stroke-linecap="butt" stroke-miterlimit="10" stroke-linejoin="miter" fill="none" stroke="#000000" d="M0 0"/>
<use data-text="0" xlink:href="#font_2_121" transform="matrix(7.9705779,0,0,-7.9703395,.90431979,44.844987)"/>
<path transform="matrix(1.00006,0,0,-1.00003,8.971802,42.278909)" d="M1.59401 22.6771C1.59401 23.55745 .88036 24.2711 0 24.2711-.88036 24.2711-1.59401 23.55745-1.59401 22.6771-1.59401 21.79672-.88036 21.08307 0 21.08307 .88036 21.08307 1.59401 21.79672 1.59401 22.6771ZM0 22.6771" fill="#ffffff"/>
<path transform="matrix(1.00006,0,0,-1.00003,8.971802,42.278909)" stroke-width=".79701" stroke-linecap="butt" stroke-miterlimit="10" stroke-linejoin="miter" fill="none" stroke="#000000" d="M1.59401 22.6771C1.59401 23.55745 .88036 24.2711 0 24.2711-.88036 24.2711-1.59401 23.55745-1.59401 22.6771-1.59401 21.79672-.88036 21.08307 0 21.08307 .88036 21.08307 1.59401 21.79672 1.59401 22.6771ZM0 22.6771"/>
<path transform="matrix(1.00006,0,0,-1.00003,8.971802,42.278909)" stroke-width=".3985" stroke-linecap="butt" stroke-miterlimit="10" stroke-linejoin="miter" fill="none" stroke="#000000" d="M0 22.6771"/>
<use data-text="4" xlink:href="#font_2_57" transform="matrix(7.9705779,0,0,-7.9703395,.90431979,22.291308)"/>
<path transform="matrix(1.00006,0,0,-1.00003,8.971802,42.278909)" d="M0-5.66927V-10.11826" fill="#ffffff"/>
<path transform="matrix(1.00006,0,0,-1.00003,8.971802,42.278909)" stroke-width=".99628" stroke-linecap="butt" stroke-miterlimit="10" stroke-linejoin="miter" fill="none" stroke="#409f9f" d="M0-5.66927V-10.11826"/>
<path transform="matrix(0,-1.00003,-1.00006,-0,8.971802,52.646539)" d="M3.56271 0 .49814 1.2772V0-1.2772Z" fill="#409f9f"/>
<path transform="matrix(0,-1.00003,-1.00006,-0,8.971802,52.646539)" stroke-width=".99628" stroke-linecap="butt" stroke-miterlimit="10" stroke-linejoin="miter" fill="none" stroke="#409f9f" d="M3.56271 0 .49814 1.2772V0-1.2772Z"/>
<path transform="matrix(1.00006,0,0,-1.00003,8.971802,42.278909)" d="M0 8.5039V13.02376" fill="#ffffff"/>
<path transform="matrix(1.00006,0,0,-1.00003,8.971802,42.278909)" stroke-width=".99628" stroke-linecap="butt" stroke-miterlimit="10" stroke-linejoin="miter" fill="none" stroke="#409f9f" d="M0 8.5039V13.02376"/>
<path transform="matrix(0,1.00003,1.00006,0,8.971802,29.00568)" d="M3.56271 0 .49814 1.2772V0-1.2772Z" fill="#409f9f"/>
<path transform="matrix(0,1.00003,1.00006,0,8.971802,29.00568)" stroke-width=".99628" stroke-linecap="butt" stroke-miterlimit="10" stroke-linejoin="miter" fill="none" stroke="#409f9f" d="M3.56271 0 .49814 1.2772V0-1.2772Z"/>
<path transform="matrix(1.00006,0,0,-1.00003,8.971802,42.278909)" d="M0 34.01564V29.96326" fill="#ffffff"/>
<path transform="matrix(1.00006,0,0,-1.00003,8.971802,42.278909)" stroke-width=".99628" stroke-linecap="butt" stroke-miterlimit="10" stroke-linejoin="miter" fill="none" stroke="#409f9f" d="M0 34.01564V29.96326"/>
<path transform="matrix(0,-1.00003,-1.00006,-0,8.971802,12.563826)" d="M3.56271 0 .49814 1.2772V0-1.2772Z" fill="#409f9f"/>
<path transform="matrix(0,-1.00003,-1.00006,-0,8.971802,12.563826)" stroke-width=".99628" stroke-linecap="butt" stroke-miterlimit="10" stroke-linejoin="miter" fill="none" stroke="#409f9f" d="M3.56271 0 .49814 1.2772V0-1.2772Z"/>
</svg>
