<svg xmlns="http://www.w3.org/2000/svg" xmlns:xlink="http://www.w3.org/1999/xlink" xmlns:inkscape="http://www.inkscape.org/namespaces/inkscape" version="1.1" width="105" height="39" viewBox="0 0 105 39">
<defs>
<path id="font_1_1" d="M.3959961 .37998963C.37998963 .37998963 .3659973 .37998963 .35198976 .36598207 .33599855 .35098268 .33399964 .33398438 .33399964 .3269806 .33399964 .30297853 .35198976 .2919922 .37098695 .2919922 .3999939 .2919922 .4269867 .315979 .4269867 .35598756 .4269867 .40522767 .37998963 .4423828 .30899049 .4423828 .17399597 .4423828 .040985109 .2989807 .040985109 .15811157 .040985109 .06819153 .09899902-.0107421879 .20298767-.0107421879 .34599305-.0107421879 .42999269 .09516907 .42999269 .107162479 .42999269 .11315918 .42399598 .120147708 .41799928 .120147708 .41299439 .120147708 .41099549 .1181488 .40499879 .1101532 .32598878 .011245728 .21699524 .011245728 .20498657 .011245728 .14199829 .011245728 .114990238 .06021118 .114990238 .120147708 .114990238 .1611023 .1349945 .25801087 .16899109 .31999208 .19999695 .37698365 .25498963 .42037965 .30999757 .42037965 .34399415 .42037965 .38198854 .40724183 .3959961 .37998963Z"/>
<path id="font_2_1" d="M.22099304 .3976593H.31900025C.33799745 .3976593 .34999085 .3976593 .34999085 .4166565 .34999085 .43066407 .33699037 .43066407 .31999208 .43066407H.22898865L.2649994 .57250979C.2689972 .58750918 .2689972 .5924988 .2689972 .5934906 .2689972 .6144867 .25299073 .6244812 .23599243 .6244812 .20199585 .6244812 .19499207 .5974884 .18399048 .552536L.15299988 .43066407H.056991579C.037994386 .43066407 .024993897 .43066407 .024993897 .4116516 .024993897 .3976593 .037994386 .3976593 .054992677 .3976593H.14498902L.084991458 .15802002C.07899475 .13305664 .069992069 .09811401 .069992069 .084121707 .069992069 .024215699 .11898804-.009765625 .17199707-.009765625 .2789917-.009765625 .33999635 .13105774 .33999635 .14303589 .33999635 .15402222 .33099366 .15602112 .32499696 .15602112 .31399537 .15602112 .31298829 .15202332 .30599977 .13705445 .28599549 .08912659 .23599243 .018234253 .1749878 .018234253 .1539917 .018234253 .14199829 .032211305 .14199829 .06515503 .14199829 .084121707 .14498902 .09510803 .147995 .10809326L.22099304 .3976593Z"/>
<path id="font_3_80" d="M.7659912 .3387909C.7659912 .539978 .6069946 .70410159 .41299439 .70410159 .21598816 .70410159 .05899048 .53897097 .05899048 .3387909 .05899048 .13461304 .22200012-.021484375 .4119873-.021484375 .60598757-.021484375 .7659912 .13661194 .7659912 .3387909M.6619873 .35380555C.6619873 .09957886 .5179901 .011505127 .41299439 .011505127 .3039856 .011505127 .16299439 .10258484 .16299439 .35380555 .16299439 .5930176 .30899049 .6730957 .4119873 .6730957 .519989 .6730957 .6619873 .5890198 .6619873 .35380555Z"/>
<path id="font_3_54" d="M.647995 .45303346 .61898806 .6796875H.04399109V.64668276H.06599426C.14299011 .64668276 .14498902 .6356964 .14498902 .59877017V.08102417C.14498902 .044006349 .14299011 .032989503 .06599426 .032989503H.04399109V0L.19799805 .0029907227C.24499512 .0029907227 .31799317 .0029907227 .36299134 0V.032989503H.33099366C.23699951 .032989503 .23699951 .04699707 .23699951 .08203125V.32421876H.32998658C.42799378 .32421876 .43998719 .29318238 .43998719 .2071228H.47099305V.47399903H.43998719C.43998719 .38916017 .42799378 .35720826 .32998658 .35720826H.23699951V.60575869C.23699951 .6396942 .23899842 .64668276 .2849884 .64668276H.41799928C.58099368 .64668276 .59999087 .58380129 .61698916 .45303346H.647995Z"/>
<path id="font_3_76" d="M.7509918 .6496124V.6826172C.70599368 .6796112 .6589966 .6796112 .6329956 .6796112 .6069946 .6796112 .55999758 .6796112 .5149994 .6826172V.6496124C.6159973 .6496124 .6159973 .6016388 .6159973 .5756531V.14892578L.24299622 .66760256C.23199463 .6816101 .23098755 .6826172 .21099854 .6826172H.04399109V.6496124H.07199097C.08999634 .6496124 .09799194 .6496124 .117996219 .6476135 .14399719 .64460757 .14498902 .6436157 .14498902 .62461856V.10694885C.14498902 .080963138 .14498902 .032989503 .04399109 .032989503V0C.08898926 .0029907227 .13598633 .0029907227 .1619873 .0029907227 .18798828 .0029907227 .23498535 .0029907227 .27999879 0V.032989503C.1789856 .032989503 .1789856 .080963138 .1789856 .10694885V.6164093L.6119995 .01499939C.62098696 .0029907227 .6230011 0 .6329956 0 .6499939 0 .6499939 .009994507 .6499939 .027999878V.5754547C.6499939 .6014252 .6499939 .64941409 .7509918 .64941409V.6496124Z"/>
</defs>
<path transform="matrix(1.00005,0,0,-1.00009,45.712678,24.761788)" d="M-44.6459-12.75595V22.96077H19.13394V-12.75595ZM19.13394 22.96077" fill="#d9d9ff"/>
<path transform="matrix(1.00005,0,0,-1.00009,45.712678,24.761788)" d="M19.13394-12.75595V22.96077H57.40189V-12.75595ZM57.40189 22.96077" fill="#d9f0d9"/>
<use data-text="c" xlink:href="#font_1_1" transform="matrix(9.963098,0,0,-9.963496,62.69153,34.162637)"/>
<path transform="matrix(1.00005,0,0,-1.00009,45.712678,24.761788)" stroke-width=".3985" stroke-linecap="butt" stroke-miterlimit="10" stroke-linejoin="miter" fill="none" stroke="#000000" d="M-44.6459 0H57.00339"/>
<path transform="matrix(1.00005,0,0,-1.00009,102.918178,24.761788)" stroke-width=".3985" stroke-linecap="round" stroke-linejoin="round" fill="none" stroke="#000000" d="M-2.07224 2.39104C-1.69365 .95639-.84999 .27895 0 0-.84999-.27895-1.69365-.95639-2.07224-2.39104"/>
<path transform="matrix(1.00005,0,0,-1.00009,45.712678,24.761788)" stroke-width=".3985" stroke-linecap="butt" stroke-miterlimit="10" stroke-linejoin="miter" fill="none" stroke="#000000" d="M0-12.75595V22.56227"/>
<path transform="matrix(0,-1.00009,-1.00005,-0,45.712678,1.9982185)" stroke-width=".3985" stroke-linecap="round" stroke-linejoin="round" fill="none" stroke="#000000" d="M-2.07224 2.39104C-1.69365 .95639-.84999 .27895 0 0-.84999-.27895-1.69365-.95639-2.07224-2.39104"/>
<use data-text="t" xlink:href="#font_2_1" transform="matrix(7.970498,0,0,-7.970817,100.31241,33.500574)"/>
<path transform="matrix(1.00005,0,0,-1.00009,45.712678,24.761788)" stroke-width=".3985" stroke-linecap="butt" stroke-miterlimit="10" stroke-linejoin="miter" fill="none" stroke="#7f807f" d="M-25.51193 1.27565V-1.27565"/>
<path transform="matrix(1.00005,0,0,-1.00009,45.712678,24.761788)" stroke-width=".3985" stroke-linecap="butt" stroke-miterlimit="10" stroke-linejoin="miter" fill="none" stroke="#7f807f" d="M-12.75595 1.27565V-1.27565"/>
<path transform="matrix(1.00005,0,0,-1.00009,45.712678,24.761788)" stroke-width=".3985" stroke-linecap="butt" stroke-miterlimit="10" stroke-linejoin="miter" fill="none" stroke="#7f807f" d="M12.75595 1.27565V-1.27565"/>
<path transform="matrix(1.00005,0,0,-1.00009,45.712678,24.761788)" stroke-width=".3985" stroke-linecap="butt" stroke-miterlimit="10" stroke-linejoin="miter" fill="none" stroke="#7f807f" d="M25.51193 1.27565V-1.27565"/>
<path transform="matrix(1.00005,0,0,-1.00009,45.712678,24.761788)" stroke-width=".3985" stroke-linecap="butt" stroke-miterlimit="10" stroke-linejoin="miter" fill="none" stroke="#7f807f" d="M38.26791 1.27565V-1.27565"/>
<path transform="matrix(1.00005,0,0,-1.00009,45.712678,24.761788)" stroke-width=".3985" stroke-linecap="butt" stroke-miterlimit="10" stroke-linejoin="miter" fill="none" stroke="#7f807f" d="M51.0239 1.27565V-1.27565"/>
<path transform="matrix(1.00005,0,0,-1.00009,45.712678,24.761788)" stroke-width=".3985" stroke-linecap="butt" stroke-miterlimit="10" stroke-linejoin="miter" fill="none" stroke="#7f807f" d="M1.27565 12.75595H-1.27565"/>
<path transform="matrix(1.00005,0,0,-1.00009,45.712678,24.761788)" stroke-width="1.59404" stroke-linecap="butt" stroke-miterlimit="10" stroke-linejoin="miter" fill="none" stroke="#000000" d="M-44.6459 0H-44.0147-43.38347-42.75224-42.12103-41.4898-40.8586-40.22736-39.59615-38.96494-38.33371-37.70248-37.07126-36.44005-35.80882-35.1776-34.54639-33.91516-33.28395-32.65271-32.0215-31.39029-30.75906-30.12784-29.49661-28.8654-28.23419-27.60295-26.97174-26.34052-25.7093-25.0781-24.44685-23.81564-23.18442-22.5532-21.92198-21.29076-20.65955-20.02832-19.39711-18.76588-18.13466-17.50345-16.87222-16.24101-15.60977-14.97856-14.34735-13.71613-13.0849-12.45367-11.82246-11.19125-10.56003-9.9288-9.29758-8.66637-8.03516-7.40392-6.7727-6.14148-5.51027-4.87904-4.24782-3.61661-2.98538-2.35416-1.72295-1.09172-.46051 .17068 .8019 1.43314 2.06435 2.69556 3.32678 3.958 4.58923 5.22044 5.85165 6.48288 7.11409 7.74533 8.37654 9.00775 9.63898 10.2702 10.90143 11.53264 12.16385 12.79509 13.4263 14.05753 14.68874 15.31995 15.95119 16.5824 17.21362 17.84483"/>
<path transform="matrix(1.00005,0,0,-1.00009,45.712678,24.761788)" stroke-width="1.59404" stroke-linecap="butt" stroke-miterlimit="10" stroke-linejoin="miter" fill="none" stroke="#000000" d="M19.13394 12.75595H19.52031 19.90666 20.29303 20.6794 21.06575 21.45212 21.83849 22.22484 22.6112 22.99756 23.38393 23.7703 24.15665 24.54303 24.92937 25.31573 25.7021 26.08847 26.47482 26.86119 27.24754 27.63391 28.02028 28.40663 28.793 29.17935 29.56573 29.95209 30.33844 30.72481 31.11118 31.49753 31.8839 32.27025 32.65662 33.04298 33.42934 33.8157 34.20206 34.58842 34.9748 35.36115 35.74751 36.13388 36.52023 36.9066 37.29297 37.6793 38.06569 38.45204 38.83841 39.22478 39.61113 39.9975 40.38385 40.77022 41.15659 41.54294 41.9293 42.31567 42.70203 43.0884 43.47475 43.86111 44.24748 44.63383 45.0202 45.40656 45.79292 46.17929 46.56564 46.952 47.33838 47.72473 48.1111 48.49745 48.88382 49.27019 49.65654 50.0429 50.42926 50.81563 51.202 51.58835 51.9747 52.36108 52.74744 53.13379 53.52017 53.90652 54.2929 54.67924 55.06561 55.45198 55.83833 56.22469 56.61107 56.99742 57.38379"/>
<path transform="matrix(1.00005,0,0,-1.00009,45.712678,24.761788)" stroke-width="1.19553" stroke-linecap="butt" stroke-miterlimit="10" stroke-linejoin="miter" fill="none" stroke="#000000" d="M21.37555 0C21.37555 1.238 20.37196 2.24161 19.13394 2.24161 17.89594 2.24161 16.89233 1.238 16.89233 0 16.89233-1.238 17.89594-2.24161 19.13394-2.24161 20.37196-2.24161 21.37555-1.238 21.37555 0ZM19.13394 0"/>
<path transform="matrix(1.00005,0,0,-1.00009,45.712678,24.761788)" d="M21.37555 12.75595C21.37555 13.99397 20.37196 14.99756 19.13394 14.99756 17.89594 14.99756 16.89233 13.99397 16.89233 12.75595 16.89233 11.51794 17.89594 10.51434 19.13394 10.51434 20.37196 10.51434 21.37555 11.51794 21.37555 12.75595ZM19.13394 12.75595"/>
<use data-text="O" xlink:href="#font_3_80" transform="matrix(7.970498,0,0,-7.970817,15.211151,11.246572)" fill="#0000ff"/>
<use data-text="F" xlink:href="#font_3_54" transform="matrix(7.970498,0,0,-7.970817,21.794793,11.246572)" fill="#0000ff"/>
<use data-text="F" xlink:href="#font_3_54" transform="matrix(7.970498,0,0,-7.970817,27.318345,11.246572)" fill="#0000ff"/>
<use data-text="O" xlink:href="#font_3_80" transform="matrix(7.970498,0,0,-7.970817,77.518268,21.451489)" fill="#009900"/>
<use data-text="N" xlink:href="#font_3_76" transform="matrix(7.970498,0,0,-7.970817,84.101909,21.451489)" fill="#009900"/>
</svg>
