<svg xmlns="http://www.w3.org/2000/svg" xmlns:xlink="http://www.w3.org/1999/xlink" xmlns:inkscape="http://www.inkscape.org/namespaces/inkscape" version="1.1" width="162" height="49" viewBox="0 0 162 49">
<defs>
<path id="font_1_1" d="M.4889984 .31877137C.4889984 .42585755 .47799684 .49090577 .44499208 .55496218 .40098573 .6430359 .31999208 .66503909 .2649994 .66503909 .13899231 .66503909 .09298706 .5709839 .07899475 .5429535 .042999269 .4698944 .040985109 .3708191 .040985109 .31877137 .040985109 .25271607 .04399109 .15162659 .09199524 .07156372 .13798523-.0024871827 .21199036-.021484375 .2649994-.021484375 .31298829-.021484375 .39898683-.0064849855 .44898988 .09257507 .48599244 .16464234 .4889984 .2537079 .4889984 .31877137M.2649994 .006515503C.23098755 .006515503 .1619873 .022521973 .14099121 .12760926 .12998963 .18466187 .12998963 .2787323 .12998963 .33078004 .12998963 .3998413 .12998963 .4698944 .14099121 .5249481 .1619873 .6270294 .23999024 .6370239 .2649994 .6370239 .29899598 .6370239 .36799623 .62002566 .3880005 .5289459 .3999939 .4738922 .3999939 .39883424 .3999939 .33078004 .3999939 .27172853 .3999939 .18165589 .3880005 .12561035 .36698915 .020523072 .2979889 .006515503 .2649994 .006515503Z"/>
<path id="font_2_1" d="M.20298767 .054992677C.20298767 .08898926 .1749878 .11099243 .147995 .11099243 .115997318 .11099243 .09199524 .084991458 .09199524 .055999757 .09199524 .021987915 .11999512 0 .14698792 0 .1789856 0 .20298767 .025985718 .20298767 .054992677Z"/>
<path id="font_1_6" d="M.13999939 .5618439C.15299988 .55784609 .19299317 .54785159 .23498535 .54785159 .3600006 .54785159 .43598939 .6358948 .43598939 .6510315 .43598939 .6620331 .42900086 .66503909 .42399598 .66503909 .42199708 .66503909 .41999818 .66503909 .41099549 .6600342 .37199403 .6450348 .32598878 .632843 .27198792 .632843 .21299744 .632843 .1639862 .6480255 .1329956 .6600342 .12298584 .66503909 .12098694 .66503909 .11999512 .66503909 .10699463 .66503909 .10699463 .6540375 .10699463 .6358948V.34292604C.10699463 .32492066 .10699463 .312912 .12298584 .312912 .1309967 .312912 .13398743 .3169098 .13899231 .32492066 .15098572 .33992005 .18899536 .39093019 .27398683 .39093019 .32998658 .39093019 .35699464 .34492494 .3659973 .32591249 .3829956 .28990174 .3849945 .24389649 .3849945 .20487976 .3849945 .1678772 .38398744 .11387634 .35598756 .069732669 .33699037 .039611818 .29699708 .008514404 .24398804 .008514404 .1789856 .008514404 .114990238 .0496521 .09199524 .11488342 .09498596 .11387634 .100997928 .11387634 .101989749 .11387634 .12998963 .11387634 .1519928 .13188172 .1519928 .16288758 .1519928 .19989014 .12298584 .21289063 .102996829 .21289063 .084991458 .21289063 .052993776 .20288086 .052993776 .15988159 .052993776 .069732669 .1309967-.021484375 .24598694-.021484375 .37098695-.021484375 .47698976 .07574463 .47698976 .19989014 .47698976 .31591798 .3929901 .4189453 .2749939 .4189453 .22499085 .4189453 .17799378 .40293885 .13999939 .368927V.5618439Z"/>
<path id="font_1_2" d="M.31399537 .63708499C.31399537 .664032 .31199647 .66503909 .2849884 .66503909 .24398804 .6251831 .19099427 .6013489 .09599304 .6013489V.5683594C.12298584 .5683594 .1769867 .5683594 .23498535 .5953522V.08203125C.23498535 .04499817 .23199463 .032989503 .13699341 .032989503H.101989749V0C.14299011 .0029907227 .22898865 .0029907227 .27398683 .0029907227 .31900025 .0029907227 .4059906 .0029907227 .44699098 0V.032989503H.4119873C.31698609 .032989503 .31399537 .04499817 .31399537 .08203125V.63708499Z"/>
<path id="font_3_1" d="M.69898989 .22743225C.71499636 .22743225 .7369995 .22743225 .7369995 .25042726 .7369995 .2734375 .71499636 .2734375 .69898989 .2734375H.12599182C.10998535 .2734375 .08799744 .2734375 .08799744 .25042726 .08799744 .22743225 .10998535 .22743225 .12599182 .22743225H.69898989Z"/>
<path id="font_1_5" d="M.3939972 .6468048C.3939972 .6667938 .3939972 .6748047 .37298585 .6748047 .3600006 .6748047 .35899354 .6737976 .34899903 .65979006L.02999878 .197052V.1640625H.31199647V.08100891C.31199647 .04399109 .30899049 .032989503 .23199463 .032989503H.20899964V0C.2939911 .0029907227 .29599 .0029907227 .35299684 .0029907227 .4099884 .0029907227 .4119873 .0029907227 .49699403 0V.032989503H.47399903C.39698792 .032989503 .3939972 .04399109 .3939972 .08100891V.1640625H.5V.197052H.3939972V.6468048M.31900025 .5658417V.197052H.06498718L.31900025 .5658417Z"/>
<path id="font_1_3" d="M.28199769 .20405579C.2979889 .21907044 .33999635 .2520752 .35598756 .26608277 .41799928 .32312013 .47698976 .3781433 .47698976 .46917726 .47698976 .588089 .3769989 .66503909 .2519989 .66503909 .13198853 .66503909 .052993776 .57411196 .052993776 .48516847 .052993776 .4361725 .09199524 .4291687 .10598755 .4291687 .1269989 .4291687 .1579895 .4441681 .1579895 .48217774 .1579895 .5341797 .10798645 .5341797 .09599304 .5341797 .125 .6070709 .19198609 .6320343 .24099732 .6320343 .33399964 .6320343 .38198854 .55314639 .38198854 .46917726 .38198854 .36514283 .30899049 .28910829 .19099427 .16804505L.06498718 .037994386C.052993776 .026992798 .052993776 .024993897 .052993776 0H.44799806L.47698976 .17904663H.44599916C.44299317 .1590271 .43499757 .10900879 .4229889 .08999634 .4169922 .08198547 .34098817 .08198547 .32499696 .08198547H.14698792L.28199769 .20405579Z"/>
<clipPath id="clip_4">
<path transform="matrix(1.00002,0,0,-1.00002,2.0984727,47.33967)" d="M0 0H158.86978V45.47748H0Z"/>
</clipPath>
<path id="font_5_98" d="M.3829956 .12924195C.3829956 .1772461 .35398866 .24725342 .23498535 .2692566 .22698975 .2712555 .17098999 .28126527 .16699219 .28126527 .13598633 .28826905 .08898926 .30926515 .08898926 .34927369 .08898926 .37927247 .11099243 .4212799 .20599365 .4212799 .31799317 .4212799 .32299806 .33926393 .32499696 .31126405 .32598878 .30326844 .33299256 .30026246 .33999635 .30026246 .35598756 .30026246 .35598756 .30726625 .35598756 .32626344V.4202881C.35598756 .4362793 .35598756 .44628907 .34298707 .44628907 .33799745 .44628907 .33499146 .44628907 .31900025 .4302826 .31698609 .4292755 .30799867 .4202881 .30499269 .4202881 .30499269 .4202881 .3019867 .4202881 .29599 .4242859 .27999879 .43528749 .25099183 .44628907 .20599365 .44628907 .06599426 .44628907 .034988405 .37026979 .034988405 .32226563 .034988405 .27226258 .07199097 .24325562 .07499695 .24024964 .114990238 .21025086 .13798523 .20625305 .20498657 .19424439 .2519989 .18525696 .32899476 .17124939 .32899476 .10324097 .32899476 .0642395 .30299378 .018234253 .21099854 .018234253 .10998535 .018234253 .08099365 .09623718 .067993167 .14924622 .06399536 .1622467 .06298828 .16725159 .050994874 .16725159 .034988405 .16725159 .034988405 .15924073 .034988405 .14024353V.016220093C.034988405 .00022888184 .034988405-.009765625 .04798889-.009765625 .053985597-.009765625 .054992677-.008773804 .07299805 .010223389 .07798767 .0152282719 .08898926 .02822876 .09399414 .033233644 .13899231-.0077667238 .18598938-.009765625 .21199036-.009765625 .33898927-.009765625 .3829956 .06323242 .3829956 .12924195Z"/>
<path id="font_5_72" d="M.2669983 0V.032989503C.20298767 .032989503 .19099427 .032989503 .19099427 .07801819V.69433596L.041992189 .6826172V.6496124C.10998535 .6496124 .117996219 .64260867 .117996219 .5936432V.07795715C.117996219 .032989503 .10598755 .032989503 .041992189 .032989503V0C.08099365 .0029907227 .13699341 .0029907227 .1539917 .0029907227 .17399597 .0029907227 .22799683 .0029907227 .2669983 0Z"/>
<path id="font_5_81" d="M.5 .21325684C.5 .3382721 .39698792 .44628907 .2649994 .44628907 .1329956 .44628907 .02999878 .3382721 .02999878 .21325684 .02999878 .08824158 .13699341-.009765625 .2649994-.009765625 .3939972-.009765625 .5 .08824158 .5 .21325684M.41099549 .22225952C.41099549 .17625427 .40899659 .12124634 .3809967 .07923889 .35398866 .039230348 .30899049 .021224976 .2649994 .021224976 .21099854 .021224976 .16899109 .047225954 .14698792 .082229617 .12199402 .12324524 .11898804 .17224121 .11898804 .22225952 .11898804 .2602539 .11898804 .32026673 .1499939 .363266 .17599488 .3982849 .21798706 .41827394 .2649994 .41827394 .31698609 .41827394 .3600006 .39328004 .3829956 .35827638 .4099884 .31626893 .41099549 .2622528 .41099549 .22225952Z"/>
<path id="font_5_84" d="M.55400088 .21640015C.55400088 .34140016 .45298768 .44140626 .33198548 .44140626 .29299928 .44140626 .23498535 .43139649 .18399048 .37939454V.44140626L.034988405 .43045045V.39746095C.10598755 .39746095 .11099243 .39144898 .11099243 .34947206V-.1159668C.11099243-.16113281 .09899902-.16113281 .034988405-.16113281V-.19413758C.07798767-.19114685 .12199402-.19114685 .14898682-.19114685 .17799378-.19114685 .21998596-.19114685 .2630005-.19413758V-.16113281C.19898987-.16113281 .18699646-.16113281 .18699646-.1159668V.049545289C.23399353-.0017700195 .2849884-.009765625 .31698609-.009765625 .44400025-.009765625 .55400088 .088256839 .55400088 .2163086V.21640015M.46499635 .2163086C.46499635 .101257327 .3929901 .018234253 .31199647 .018234253 .2769928 .018234253 .23098755 .033233644 .19898987 .08325195 .18699646 .1002655 .18699646 .101257327 .18699646 .120269779V.33335877C.20999146 .37338258 .2599945 .4104004 .32299806 .4104004 .3999939 .4104004 .46499635 .32536317 .46499635 .2163086Z"/>
<path id="font_5_50" d="M.44099427 .12036133C.44099427 .12435913 .43798829 .13438416 .4249878 .13438416 .4139862 .13438416 .4119873 .12736511 .4099884 .12136841 .37399293 .024230957 .28799439 .021224976 .269989 .021224976 .22499085 .021224976 .1789856 .042251588 .14898682 .08831787 .11898804 .13438416 .11898804 .19847107 .11898804 .22851563H.41299439C.43499757 .22851563 .44099427 .22851563 .44099427 .25151063 .44099427 .34039308 .3919983 .44628907 .25099183 .44628907 .1269989 .44628907 .02999878 .3433838 .02999878 .21949768 .02999878 .09031677 .13798523-.009765625 .2639923-.009765625 .3909912-.009765625 .44099427 .097335819 .44099427 .12036133M.37298585 .25450135H.11999512C.1289978 .39431764 .21398926 .41827394 .25099183 .41827394 .36799623 .41827394 .37199403 .27748109 .37298585 .25450135Z"/>
<path id="font_5_44" d="M.20298767 .37464906C.20298767 .4086609 .17599488 .43066407 .147995 .43066407 .11399841 .43066407 .09199524 .403656 .09199524 .37565614 .09199524 .34165956 .11898804 .31965638 .14698792 .31965638 .18099976 .31965638 .20298767 .34664918 .20298767 .37464906M.20298767 .054992677C.20298767 .08898926 .17599488 .11099243 .147995 .11099243 .11399841 .11099243 .09199524 .083999637 .09199524 .055999757 .09199524 .021987915 .11898804 0 .14698792 0 .18099976 0 .20298767 .026992798 .20298767 .054992677Z"/>
<path id="font_1_4" d="M.25299073 .33370973C.33198548 .33370973 .38198854 .27557374 .38198854 .17037964 .38198854 .045440675 .31098939 .008514404 .2579956 .008514404 .20298767 .008514404 .12799073 .0284729 .09298706 .08137512 .1289978 .08137512 .1539917 .10437012 .1539917 .13737488 .1539917 .16937256 .1309967 .19238281 .09899902 .19238281 .07199097 .19238281 .04399109 .17536927 .04399109 .13537598 .04399109 .04045105 .1459961-.021484375 .2599945-.021484375 .3929901-.021484375 .48599244 .070388797 .48599244 .17037964 .48599244 .25352479 .41999818 .32969667 .31799317 .3517456 .39698792 .37982179 .45599366 .4479828 .45599366 .52804568 .45599366 .6080475 .3659973 .66503909 .2619934 .66503909 .15499878 .66503909 .07398987 .6070404 .07398987 .53105166 .07398987 .49404908 .09899902 .4780426 .125 .4780426 .1559906 .4780426 .17599488 .5000458 .17599488 .52905276 .17599488 .56604006 .14399719 .5800476 .12199402 .5810547 .1639862 .6360321 .24099732 .6390381 .25898744 .6390381 .2849884 .6390381 .36099244 .6310272 .36099244 .52804568 .36099244 .45799256 .33198548 .41589356 .31799317 .39985658 .28799439 .36878968 .2649994 .36679078 .20399475 .3627777 .18499756 .36177064 .1769867 .36076356 .1769867 .3477478 .1769867 .33370973 .18598938 .33370973 .20298767 .33370973H.25299073Z"/>
<path id="font_6_1" d="M.20599365 .3996582H.2999878C.31999208 .3996582 .32998658 .3996582 .32998658 .41966249 .32998658 .43066407 .31999208 .43066407 .3019867 .43066407H.21398926C.25 .5724945 .25498963 .59246829 .25498963 .59846499 .25498963 .61546328 .24299622 .62545779 .22599793 .62545779 .22299195 .62545779 .19499207 .62446597 .18598938 .58947756L.14698792 .43066407H.052993776C.032989503 .43066407 .022994996 .43066407 .022994996 .4116516 .022994996 .3996582 .0309906 .3996582 .050994874 .3996582H.13899231C.066986087 .11608887 .06298828 .099121097 .06298828 .08114624 .06298828 .02722168 .100997928-.0107421879 .15499878-.0107421879 .25698854-.0107421879 .31399537 .13505554 .31399537 .14305115 .31399537 .1530304 .30599977 .1530304 .3019867 .1530304 .29299928 .1530304 .2919922 .15003968 .2869873 .13905335 .24398804 .035217287 .19099427 .011245728 .15699768 .011245728 .13598633 .011245728 .12599182 .024230957 .12599182 .057174684 .12599182 .08114624 .12799073 .088134769 .13198853 .10510254L.20599365 .3996582Z"/>
<path id="font_6_2" d="M.48599244 .38136292C.48999024 .39537049 .48999024 .39736939 .48999024 .40437318 .48999024 .42237855 .47599793 .43138124 .46099855 .43138124 .45098878 .43138124 .43499757 .42536927 .42599488 .41036988 .42399598 .405365 .41600038 .37435914 .4119873 .35635377 .40499879 .33035279 .397995 .30334474 .3919983 .27633668L.34700013 .09628296C.34298707 .08126831 .2999878 .011245728 .23399353 .011245728 .18299866 .011245728 .17199707 .055267335 .17199707 .0922699 .17199707 .1382904 .18899536 .20030213 .22299195 .28833009 .23899842 .3293457 .24299622 .3403473 .24299622 .36035157 .24299622 .405365 .21099854 .4423828 .16099549 .4423828 .06599426 .4423828 .0289917 .29733277 .0289917 .28833009 .0289917 .27833558 .038986207 .27833558 .040985109 .27833558 .050994874 .27833558 .051986696 .28033448 .056991579 .29634095 .083999637 .3903656 .12399292 .42037965 .1579895 .42037965 .1659851 .42037965 .18299866 .42037965 .18299866 .3883667 .18299866 .36335755 .17298889 .3373413 .1659851 .31834413 .12599182 .21231079 .10798645 .1552887 .10798645 .10827637 .10798645 .019256592 .17098999-.0107421879 .22999573-.0107421879 .2689972-.0107421879 .30299378 .0062561037 .33099366 .03425598 .31799317-.017745972 .30599977-.06674194 .2659912-.11973572 .23999024-.15385437 .20199585-.18309021 .1559906-.18309021 .14199829-.18309021 .09700012-.18005371 .07998657-.14074707 .09599304-.14074707 .10899353-.14074707 .12298584-.1287384 .1329956-.11973572 .14299011-.10673523 .14299011-.08773804 .14299011-.056747438 .115997318-.052734376 .10598755-.052734376 .08299255-.052734376 .049987794-.068740848 .049987794-.11773682 .049987794-.16796875 .09399414-.20507813 .1559906-.20507813 .25898744-.20507813 .3619995-.11373901 .3899994-.00074768069L.48599244 .38136292Z"/>
</defs>
<path transform="matrix(1.00002,0,0,-1.00002,2.0984727,47.33967)" stroke-width=".3985" stroke-linecap="butt" stroke-miterlimit="10" stroke-linejoin="miter" fill="none" stroke="#bfbfbf" d="M55.60442 0V45.47748M95.32187 0V45.47748M135.03932 0V45.47748"/>
<path transform="matrix(1.00002,0,0,-1.00002,2.0984727,47.33967)" stroke-width=".3985" stroke-linecap="butt" stroke-miterlimit="10" stroke-linejoin="miter" fill="none" stroke="#bfbfbf" d="M0 12.89659H158.86978M0 26.47195H158.86978M0 40.04732H158.86978"/>
<path transform="matrix(1.00002,0,0,-1.00002,2.0984727,47.33967)" stroke-width=".3985" stroke-linecap="butt" stroke-miterlimit="10" stroke-linejoin="miter" fill="none" stroke="#bfbfbf" d="M0 6.1089H158.86978M0 19.68428H158.86978"/>
<path transform="matrix(1.00002,0,0,-1.00002,2.0984727,47.33967)" stroke-width=".19925" stroke-linecap="butt" stroke-miterlimit="10" stroke-linejoin="miter" fill="none" stroke="#7f807f" d="M55.60442 31.13367V35.38559M95.32187 31.13367V35.38559M135.03932 31.13367V35.38559"/>
<path transform="matrix(1.00002,0,0,-1.00002,2.0984727,47.33967)" stroke-width=".19925" stroke-linecap="butt" stroke-miterlimit="10" stroke-linejoin="miter" fill="none" stroke="#7f807f" d="M14.4695 12.89659H17.30444M14.4695 26.47195H17.30444M14.4695 40.04732H17.30444"/>
<path transform="matrix(1.00002,0,0,-1.00002,2.0984727,47.33967)" stroke-width=".19925" stroke-linecap="butt" stroke-miterlimit="10" stroke-linejoin="miter" fill="none" stroke="#7f807f" d="M13.76096 6.1089H18.01297M13.76096 19.68428H18.01297"/>
<path transform="matrix(1.00002,0,0,-1.00002,2.0984727,47.33967)" stroke-width=".99628" stroke-linecap="butt" stroke-miterlimit="10" stroke-linejoin="miter" fill="none" stroke="#000000" d="M0 33.25964H155.98058"/>
<path transform="matrix(1.00002,0,0,-1.00002,158.08219,14.079361)" d="M2.8892 0-1.73352 2.31136 0 0-1.73352-2.31136"/>
<path transform="matrix(1.00002,0,0,-1.00002,2.0984727,47.33967)" stroke-width=".99628" stroke-linecap="butt" stroke-miterlimit="10" stroke-linejoin="miter" fill="none" stroke="#000000" d="M15.88698 0V42.58826"/>
<path transform="matrix(0,-1.00002,-1.00002,-0,17.985772,4.750553)" d="M2.8892 0-1.73352 2.31136 0 0-1.73352-2.31136"/>
<use data-text="0" xlink:href="#font_1_1" transform="matrix(7.9702599,0,0,-7.9702599,52.29348,9.1119)"/>
<use data-text="." xlink:href="#font_2_1" transform="matrix(7.9702599,0,0,-7.9702599,56.527566,9.1119)"/>
<use data-text="5" xlink:href="#font_1_6" transform="matrix(7.9702599,0,0,-7.9702599,58.87961,9.1119)"/>
<use data-text="1" xlink:href="#font_1_2" transform="matrix(7.9702599,0,0,-7.9702599,95.30534,9.1119)"/>
<use data-text="1" xlink:href="#font_1_2" transform="matrix(7.9702599,0,0,-7.9702599,131.73007,9.1119)"/>
<use data-text="." xlink:href="#font_2_1" transform="matrix(7.9702599,0,0,-7.9702599,135.96414,9.1119)"/>
<use data-text="5" xlink:href="#font_1_6" transform="matrix(7.9702599,0,0,-7.9702599,138.3162,9.1119)"/>
<use data-text="&#x2212;" xlink:href="#font_3_1" transform="matrix(7.9702599,0,0,-7.9702599,.90444949,43.38359)"/>
<use data-text="4" xlink:href="#font_1_5" transform="matrix(7.9702599,0,0,-7.9702599,7.4905779,43.38359)"/>
<use data-text="&#x2212;" xlink:href="#font_3_1" transform="matrix(7.9702599,0,0,-7.9702599,.90444949,29.808318)"/>
<use data-text="2" xlink:href="#font_1_3" transform="matrix(7.9702599,0,0,-7.9702599,7.4905779,29.808318)"/>
<g clip-path="url(#clip_4)">
<path transform="matrix(1.00002,0,0,-1.00002,2.0984727,47.33967)" stroke-width=".99628" stroke-linecap="butt" stroke-miterlimit="10" stroke-linejoin="miter" fill="none" stroke="#000000" d="M15.88698 19.68428V19.68428L34.76369 16.45822"/>
<path transform="matrix(.9856897,.16841337,.16841337,-.9856897,37.353879,30.96503)" stroke-width=".99628" stroke-linecap="round" stroke-linejoin="round" fill="none" stroke="#000000" d="M-2.78957 3.47087C-2.27992 1.38832-1.14423 .40492 0 0-1.14423-.40492-2.27992-1.38832-2.78957-3.47087"/>
<path transform="matrix(1.00002,0,0,-1.00002,2.0984727,47.33967)" stroke-width=".99628" stroke-linecap="butt" stroke-miterlimit="10" stroke-linejoin="miter" fill="none" stroke="#000000" d="M55.60442 12.89659V12.89659H74.46687"/>
<path transform="matrix(1.00002,0,0,-1.00002,77.06499,34.442819)" stroke-width=".99628" stroke-linecap="round" stroke-linejoin="round" fill="none" stroke="#000000" d="M-2.78957 3.47087C-2.27992 1.38832-1.14423 .40492 0 0-1.14423-.40492-2.27992-1.38832-2.78957-3.47087"/>
<path transform="matrix(1.00002,0,0,-1.00002,2.0984727,47.33967)" stroke-width=".99628" stroke-linecap="butt" stroke-miterlimit="10" stroke-linejoin="miter" fill="none" stroke="#000000" d="M95.32187 12.89659V12.89659L114.21558 17.73999"/>
<path transform="matrix(.9686494,-.24829498,-.24829498,-.9686494,116.79886,29.475649)" stroke-width=".99628" stroke-linecap="round" stroke-linejoin="round" fill="none" stroke="#000000" d="M-2.78957 3.47087C-2.27992 1.38832-1.14423 .40492 0 0-1.14423-.40492-2.27992-1.38832-2.78957-3.47087"/>
<use data-text="s" xlink:href="#font_5_98" transform="matrix(7.9702599,0,0,-7.9702599,17.680787,45.25963)"/>
<use data-text="l" xlink:href="#font_5_72" transform="matrix(7.9702599,0,0,-7.9702599,21.020318,45.25963)"/>
<use data-text="o" xlink:href="#font_5_81" transform="matrix(7.9702599,0,0,-7.9702599,23.371544,45.25963)"/>
<use data-text="p" xlink:href="#font_5_84" transform="matrix(7.9702599,0,0,-7.9702599,27.60376,45.25963)"/>
<use data-text="e" xlink:href="#font_5_50" transform="matrix(7.9702599,0,0,-7.9702599,32.537355,45.25963)"/>
<use data-text=":" xlink:href="#font_5_44" transform="matrix(7.9702599,0,0,-7.9702599,36.29931,45.25963)"/>
<use data-text="&#x2212;" xlink:href="#font_3_1" transform="matrix(7.9702599,0,0,-7.9702599,42.42028,45.25963)"/>
<use data-text="2" xlink:href="#font_1_3" transform="matrix(7.9702599,0,0,-7.9702599,49.00641,45.25963)"/>
<use data-text="s" xlink:href="#font_5_98" transform="matrix(7.9702599,0,0,-7.9702599,57.515584,45.25963)"/>
<use data-text="l" xlink:href="#font_5_72" transform="matrix(7.9702599,0,0,-7.9702599,60.855115,45.25963)"/>
<use data-text="o" xlink:href="#font_5_81" transform="matrix(7.9702599,0,0,-7.9702599,63.20634,45.25963)"/>
<use data-text="p" xlink:href="#font_5_84" transform="matrix(7.9702599,0,0,-7.9702599,67.43855,45.25963)"/>
<use data-text="e" xlink:href="#font_5_50" transform="matrix(7.9702599,0,0,-7.9702599,72.37215,45.25963)"/>
<use data-text=":" xlink:href="#font_5_44" transform="matrix(7.9702599,0,0,-7.9702599,76.13411,45.25963)"/>
<use data-text="0" xlink:href="#font_1_1" transform="matrix(7.9702599,0,0,-7.9702599,82.25508,45.25963)"/>
<use data-text="s" xlink:href="#font_5_98" transform="matrix(7.9702599,0,0,-7.9702599,97.23338,45.25963)"/>
<use data-text="l" xlink:href="#font_5_72" transform="matrix(7.9702599,0,0,-7.9702599,100.572917,45.25963)"/>
<use data-text="o" xlink:href="#font_5_81" transform="matrix(7.9702599,0,0,-7.9702599,102.92414,45.25963)"/>
<use data-text="p" xlink:href="#font_5_84" transform="matrix(7.9702599,0,0,-7.9702599,107.15636,45.25963)"/>
<use data-text="e" xlink:href="#font_5_50" transform="matrix(7.9702599,0,0,-7.9702599,112.08995,45.25963)"/>
<use data-text=":" xlink:href="#font_5_44" transform="matrix(7.9702599,0,0,-7.9702599,115.851909,45.25963)"/>
<use data-text="3" xlink:href="#font_1_4" transform="matrix(7.9702599,0,0,-7.9702599,121.97288,45.25963)"/>
</g>
<path transform="matrix(1.00002,0,0,-1.00002,2.0984727,47.33967)" d="M17.87953 19.68428C17.87953 20.78474 16.98744 21.67683 15.88698 21.67683 14.7865 21.67683 13.89442 20.78474 13.89442 19.68428 13.89442 18.5838 14.7865 17.69173 15.88698 17.69173 16.98744 17.69173 17.87953 18.5838 17.87953 19.68428ZM15.88698 19.68428" fill="#0000cc"/>
<path transform="matrix(1.00002,0,0,-1.00002,2.0984727,47.33967)" stroke-width=".99628" stroke-linecap="butt" stroke-miterlimit="10" stroke-linejoin="miter" fill="none" stroke="#0000ff" d="M17.87953 19.68428C17.87953 20.78474 16.98744 21.67683 15.88698 21.67683 14.7865 21.67683 13.89442 20.78474 13.89442 19.68428 13.89442 18.5838 14.7865 17.69173 15.88698 17.69173 16.98744 17.69173 17.87953 18.5838 17.87953 19.68428ZM15.88698 19.68428"/>
<path transform="matrix(1.00002,0,0,-1.00002,2.0984727,47.33967)" d="M57.59697 12.89659C57.59697 13.99706 56.7049 14.88914 55.60442 14.88914 54.50395 14.88914 53.61186 13.99706 53.61186 12.89659 53.61186 11.79611 54.50395 10.90404 55.60442 10.90404 56.7049 10.90404 57.59697 11.79611 57.59697 12.89659ZM55.60442 12.89659" fill="#0000cc"/>
<path transform="matrix(1.00002,0,0,-1.00002,2.0984727,47.33967)" stroke-width=".99628" stroke-linecap="butt" stroke-miterlimit="10" stroke-linejoin="miter" fill="none" stroke="#0000ff" d="M57.59697 12.89659C57.59697 13.99706 56.7049 14.88914 55.60442 14.88914 54.50395 14.88914 53.61186 13.99706 53.61186 12.89659 53.61186 11.79611 54.50395 10.90404 55.60442 10.90404 56.7049 10.90404 57.59697 11.79611 57.59697 12.89659ZM55.60442 12.89659"/>
<path transform="matrix(1.00002,0,0,-1.00002,2.0984727,47.33967)" d="M97.31442 12.89659C97.31442 13.99706 96.42235 14.88914 95.32187 14.88914 94.2214 14.88914 93.32932 13.99706 93.32932 12.89659 93.32932 11.79611 94.2214 10.90404 95.32187 10.90404 96.42235 10.90404 97.31442 11.79611 97.31442 12.89659ZM95.32187 12.89659" fill="#0000cc"/>
<path transform="matrix(1.00002,0,0,-1.00002,2.0984727,47.33967)" stroke-width=".99628" stroke-linecap="butt" stroke-miterlimit="10" stroke-linejoin="miter" fill="none" stroke="#0000ff" d="M97.31442 12.89659C97.31442 13.99706 96.42235 14.88914 95.32187 14.88914 94.2214 14.88914 93.32932 13.99706 93.32932 12.89659 93.32932 11.79611 94.2214 10.90404 95.32187 10.90404 96.42235 10.90404 97.31442 11.79611 97.31442 12.89659ZM95.32187 12.89659"/>
<path transform="matrix(1.00002,0,0,-1.00002,2.0984727,47.33967)" d="M137.03188 23.07811C137.03188 24.17859 136.13979 25.07066 135.03932 25.07066 133.93885 25.07066 133.04677 24.17859 133.04677 23.07811 133.04677 21.97765 133.93885 21.08556 135.03932 21.08556 136.13979 21.08556 137.03188 21.97765 137.03188 23.07811ZM135.03932 23.07811" fill="#0000cc"/>
<path transform="matrix(1.00002,0,0,-1.00002,2.0984727,47.33967)" stroke-width=".99628" stroke-linecap="butt" stroke-miterlimit="10" stroke-linejoin="miter" fill="none" stroke="#0000ff" d="M137.03188 23.07811C137.03188 24.17859 136.13979 25.07066 135.03932 25.07066 133.93885 25.07066 133.04677 24.17859 133.04677 23.07811 133.04677 21.97765 133.93885 21.08556 135.03932 21.08556 136.13979 21.08556 137.03188 21.97765 137.03188 23.07811ZM135.03932 23.07811"/>
<path transform="matrix(1.00002,0,0,-1.00002,2.0984727,47.33967)" stroke-width=".99628" stroke-linecap="butt" stroke-miterlimit="10" stroke-linejoin="miter" fill="none" stroke="#0000ff" d=""/>
<use data-text="t" xlink:href="#font_6_1" transform="matrix(10.909318,0,0,-10.909318,152.89749,9.94492)"/>
<use data-text="y" xlink:href="#font_6_2" transform="matrix(10.909318,0,0,-10.909318,22.119874,10.692936)"/>
</svg>
