<svg xmlns="http://www.w3.org/2000/svg" xmlns:xlink="http://www.w3.org/1999/xlink" xmlns:inkscape="http://www.inkscape.org/namespaces/inkscape" version="1.1" width="155" height="65" viewBox="0 0 155 65">
<defs>
<path id="font_1_1" d="M.6589966 .23046875C.6759949 .23046875 .69400027 .23046875 .69400027 .25045777 .69400027 .27046205 .6759949 .27046205 .6589966 .27046205H.117996219C.100997928 .27046205 .08299255 .27046205 .08299255 .25045777 .08299255 .23046875 .100997928 .23046875 .117996219 .23046875H.6589966Z"/>
<path id="font_2_2" d="M.1269989 .07699585 .23298645 .18003845C.3889923 .31811524 .44898988 .3721466 .44898988 .47216798 .44898988 .5860901 .35899354 .6660156 .23699951 .6660156 .12399292 .6660156 .049987794 .57411196 .049987794 .48516847 .049987794 .4291687 .099990848 .4291687 .102996829 .4291687 .11999512 .4291687 .15499878 .44117738 .15499878 .48217774 .15499878 .5081787 .13699341 .5341797 .101989749 .5341797 .09399414 .5341797 .09199524 .5341797 .08898926 .5331726 .11199951 .59806826 .1659851 .63500979 .22399903 .63500979 .31498719 .63500979 .35798646 .5541382 .35798646 .47216798 .35798646 .39215089 .30799867 .31311036 .25299073 .25108338L.06098938 .036987306C.049987794 .025985718 .049987794 .023986817 .049987794 0H.42099L.44898988 .17404175H.42399598C.4189911 .14402771 .4119873 .1000061 .4019928 .084991458 .394989 .07699585 .32899476 .07699585 .30699159 .07699585H.1269989Z"/>
<path id="font_2_1" d="M.2939911 .64004519C.2939911 .66400149 .2939911 .6660156 .2709961 .6660156 .20899964 .60227969 .12098694 .60227969 .08898926 .60227969V.57128909C.10899353 .57128909 .16799927 .57128909 .21998596 .5972748V.07902527C.21998596 .042999269 .21699524 .0309906 .1269989 .0309906H.09498596V0C.12998963 .0029907227 .21699524 .0029907227 .25698854 .0029907227 .29699708 .0029907227 .38398744 .0029907227 .4189911 0V.0309906H.3869934C.29699708 .0309906 .2939911 .041992189 .2939911 .07902527V.64004519Z"/>
<path id="font_2_3" d="M.2939911 .16503906V.07800293C.2939911 .041992189 .2919922 .0309906 .21798706 .0309906H.19699097V0C.23799134 .0029907227 .2899933 .0029907227 .33198548 .0029907227 .37399293 .0029907227 .4269867 .0029907227 .46798707 0V.0309906H.44699098C.37298585 .0309906 .37098695 .041992189 .37098695 .07800293V.16503906H.47099305V.19602967H.37098695V.65075686C.37098695 .67074587 .37098695 .6767578 .35499574 .6767578 .34599305 .6767578 .34298707 .6767578 .33499146 .66474917L.027999878 .19602967V.16503906H.2939911M.2999878 .19602967H.055999757L.2999878 .5688019V.19602967Z"/>
<clipPath id="clip_3">
<path transform="matrix(1.00008,0,0,-1.00009,1.3307877,62.537279)" d="M0 0H152.14437V61.43456H0Z"/>
</clipPath>
<path id="font_4_1" d="M.1789856 .23242188C.20599365 .23242188 .27398683 .23442078 .32199098 .2524109 .397995 .28141786 .40499879 .33940126 .40499879 .35740663 .40499879 .4013977 .36698915 .44140626 .30099488 .44140626 .19599915 .44140626 .04499817 .34640504 .04499817 .16836548 .04499817 .0632782 .10499573-.009765625 .19599915-.009765625 .33198548-.009765625 .41799928 .09629822 .41799928 .109313968 .41799928 .11531067 .4119873 .12031555 .4079895 .12031555 .40499879 .12031555 .4039917 .11932373 .394989 .110305789 .33099366 .025238038 .23599243 .010223389 .19799805 .010223389 .14099121 .010223389 .11099243 .055267335 .11099243 .1293335 .11099243 .14334107 .11099243 .16836548 .12599182 .23242188H.1789856M.1309967 .2524109C.17399597 .4064026 .2689972 .42140199 .30099488 .42140199 .34498597 .42140199 .375 .395401 .375 .35740663 .375 .2524109 .21499634 .2524109 .17298889 .2524109H.1309967Z"/>
<path id="font_5_1" d="M.22099304 .3976593H.31900025C.33799745 .3976593 .34999085 .3976593 .34999085 .4166565 .34999085 .43066407 .33699037 .43066407 .31999208 .43066407H.22898865L.2649994 .57250979C.2689972 .58750918 .2689972 .5924988 .2689972 .5934906 .2689972 .6144867 .25299073 .6244812 .23599243 .6244812 .20199585 .6244812 .19499207 .5974884 .18399048 .552536L.15299988 .43066407H.056991579C.037994386 .43066407 .024993897 .43066407 .024993897 .4116516 .024993897 .3976593 .037994386 .3976593 .054992677 .3976593H.14498902L.084991458 .15802002C.07899475 .13305664 .069992069 .09811401 .069992069 .084121707 .069992069 .024215699 .11898804-.009765625 .17199707-.009765625 .2789917-.009765625 .33999635 .13105774 .33999635 .14303589 .33999635 .15402222 .33099366 .15602112 .32499696 .15602112 .31399537 .15602112 .31298829 .15202332 .30599977 .13705445 .28599549 .08912659 .23599243 .018234253 .1749878 .018234253 .1539917 .018234253 .14199829 .032211305 .14199829 .06515503 .14199829 .084121707 .14498902 .09510803 .147995 .10809326L.22099304 .3976593Z"/>
<path id="font_6_1" d="M.20599365 .3996582H.2999878C.31999208 .3996582 .32998658 .3996582 .32998658 .41966249 .32998658 .43066407 .31999208 .43066407 .3019867 .43066407H.21398926C.25 .5724945 .25498963 .59246829 .25498963 .59846499 .25498963 .61546328 .24299622 .62545779 .22599793 .62545779 .22299195 .62545779 .19499207 .62446597 .18598938 .58947756L.14698792 .43066407H.052993776C.032989503 .43066407 .022994996 .43066407 .022994996 .4116516 .022994996 .3996582 .0309906 .3996582 .050994874 .3996582H.13899231C.066986087 .11608887 .06298828 .099121097 .06298828 .08114624 .06298828 .02722168 .100997928-.0107421879 .15499878-.0107421879 .25698854-.0107421879 .31399537 .13505554 .31399537 .14305115 .31399537 .1530304 .30599977 .1530304 .3019867 .1530304 .29299928 .1530304 .2919922 .15003968 .2869873 .13905335 .24398804 .035217287 .19099427 .011245728 .15699768 .011245728 .13598633 .011245728 .12599182 .024230957 .12599182 .057174684 .12599182 .08114624 .12799073 .088134769 .13198853 .10510254L.20599365 .3996582Z"/>
<path id="font_6_2" d="M.48599244 .38136292C.48999024 .39537049 .48999024 .39736939 .48999024 .40437318 .48999024 .42237855 .47599793 .43138124 .46099855 .43138124 .45098878 .43138124 .43499757 .42536927 .42599488 .41036988 .42399598 .405365 .41600038 .37435914 .4119873 .35635377 .40499879 .33035279 .397995 .30334474 .3919983 .27633668L.34700013 .09628296C.34298707 .08126831 .2999878 .011245728 .23399353 .011245728 .18299866 .011245728 .17199707 .055267335 .17199707 .0922699 .17199707 .1382904 .18899536 .20030213 .22299195 .28833009 .23899842 .3293457 .24299622 .3403473 .24299622 .36035157 .24299622 .405365 .21099854 .4423828 .16099549 .4423828 .06599426 .4423828 .0289917 .29733277 .0289917 .28833009 .0289917 .27833558 .038986207 .27833558 .040985109 .27833558 .050994874 .27833558 .051986696 .28033448 .056991579 .29634095 .083999637 .3903656 .12399292 .42037965 .1579895 .42037965 .1659851 .42037965 .18299866 .42037965 .18299866 .3883667 .18299866 .36335755 .17298889 .3373413 .1659851 .31834413 .12599182 .21231079 .10798645 .1552887 .10798645 .10827637 .10798645 .019256592 .17098999-.0107421879 .22999573-.0107421879 .2689972-.0107421879 .30299378 .0062561037 .33099366 .03425598 .31799317-.017745972 .30599977-.06674194 .2659912-.11973572 .23999024-.15385437 .20199585-.18309021 .1559906-.18309021 .14199829-.18309021 .09700012-.18005371 .07998657-.14074707 .09599304-.14074707 .10899353-.14074707 .12298584-.1287384 .1329956-.11973572 .14299011-.10673523 .14299011-.08773804 .14299011-.056747438 .115997318-.052734376 .10598755-.052734376 .08299255-.052734376 .049987794-.068740848 .049987794-.11773682 .049987794-.16796875 .09399414-.20507813 .1559906-.20507813 .25898744-.20507813 .3619995-.11373901 .3899994-.00074768069L.48599244 .38136292Z"/>
</defs>
<path transform="matrix(1.00008,0,0,-1.00009,1.3307877,62.537279)" stroke-width=".79701" stroke-linecap="butt" stroke-miterlimit="10" stroke-linejoin="miter" fill="none" stroke="#7f807f" d="M22.90344 10.47311V13.30801M55.62267 10.47311V13.30801M88.34189 10.47311V13.30801M121.0611 10.47311V13.30801"/>
<path transform="matrix(1.00008,0,0,-1.00009,1.3307877,62.537279)" stroke-width=".79701" stroke-linecap="butt" stroke-miterlimit="10" stroke-linejoin="miter" fill="none" stroke="#7f807f" d="M6.54384 9.76457V14.01653M39.26306 9.76457V14.01653M104.70149 9.76457V14.01653M137.42072 9.76457V14.01653"/>
<path transform="matrix(1.00008,0,0,-1.00009,1.3307877,62.537279)" stroke-width=".79701" stroke-linecap="butt" stroke-miterlimit="10" stroke-linejoin="miter" fill="none" stroke="#7f807f" d="M70.56485 25.1023H73.39969M70.56485 51.52576H73.39969"/>
<path transform="matrix(1.00008,0,0,-1.00009,1.3307877,62.537279)" stroke-width=".79701" stroke-linecap="butt" stroke-miterlimit="10" stroke-linejoin="miter" fill="none" stroke="#7f807f" d="M69.85637 38.31403H74.10817"/>
<path transform="matrix(1.00008,0,0,-1.00009,1.3307877,62.537279)" stroke-width=".99628" stroke-linecap="butt" stroke-miterlimit="10" stroke-linejoin="miter" fill="none" stroke="#000000" d="M0 11.89055H149.25514"/>
<path transform="matrix(1.00008,0,0,-1.00009,150.59787,50.645658)" d="M2.8892 0-1.73352 2.31136 0 0-1.73352-2.31136"/>
<path transform="matrix(1.00008,0,0,-1.00009,1.3307877,62.537279)" stroke-width=".99628" stroke-linecap="butt" stroke-miterlimit="10" stroke-linejoin="miter" fill="none" stroke="#000000" d="M71.98227 0V58.54535"/>
<path transform="matrix(0,-1.00009,-1.00008,-0,73.31882,3.98666)" d="M2.8892 0-1.73352 2.31136 0 0-1.73352-2.31136"/>
<use data-text="&#x2212;" xlink:href="#font_1_1" transform="matrix(10.909972,0,0,-10.910082,.90475466,63.9374)"/>
<use data-text="2" xlink:href="#font_2_2" transform="matrix(10.909972,0,0,-10.910082,9.390434,63.9374)"/>
<use data-text="&#x2212;" xlink:href="#font_1_1" transform="matrix(10.909972,0,0,-10.910082,33.62637,63.9374)"/>
<use data-text="1" xlink:href="#font_2_1" transform="matrix(10.909972,0,0,-10.910082,42.11205,63.9374)"/>
<use data-text="1" xlink:href="#font_2_1" transform="matrix(10.909972,0,0,-10.910082,103.31294,63.9374)"/>
<use data-text="2" xlink:href="#font_2_2" transform="matrix(10.909972,0,0,-10.910082,136.03455,63.9374)"/>
<use data-text="4" xlink:href="#font_2_3" transform="matrix(10.909972,0,0,-10.910082,61.60361,27.735146)"/>
<g clip-path="url(#clip_3)">
<path transform="matrix(1.00008,0,0,-1.00009,1.3307877,62.537279)" stroke-width=".99628" stroke-linecap="butt" stroke-miterlimit="10" stroke-linejoin="miter" fill="none" stroke="#0000ff" d="M0 12.6226 3.10493 12.69534 6.20988 12.77527 9.31483 12.86372 12.4198 12.96022 15.52473 13.06725 18.6297 13.18417 21.73465 13.31313 24.8396 13.45454 27.94456 13.61046 31.0495 13.78148 34.15446 13.96988 37.25941 14.17662 40.36436 14.40462 43.46931 14.65443 46.57428 14.9299 49.67921 15.23259 52.78416 15.56493 55.88913 15.9309 58.99408 16.33266 62.09903 16.77539 65.20398 17.26178 68.30894 17.79625 71.41388 18.38432 74.51884 19.02872 77.6238 19.73918 80.72874 20.52045 83.8337 21.37941 86.93864 22.32399 90.04361 23.3625 93.14854 24.50458 96.25351 25.75998 99.35846 27.14038 102.46341 28.65842 105.56836 30.32765 108.67331 32.16302 111.77827 34.18092 114.88321 36.39905 117.98817 38.83905 121.09312 41.52148 124.19807 44.47101 127.30302 47.7147 130.40798 51.28008 133.51294 55.2004 136.61788 59.51257 139.72284 64.25195 142.82779 69.46419 145.93274 75.1951 149.03769 81.49857 152.14266 88.42746"/>
<use data-text="e" xlink:href="#font_4_1" transform="matrix(11.956157,0,0,-11.956276,117.91011,13.478863)" fill="#0000ff"/>
<use data-text="t" xlink:href="#font_5_1" transform="matrix(7.9707376,0,0,-7.970817,123.33555,9.140472)" fill="#0000ff"/>
</g>
<use data-text="t" xlink:href="#font_6_1" transform="matrix(10.909972,0,0,-10.910082,145.4133,46.510835)"/>
<use data-text="y" xlink:href="#font_6_2" transform="matrix(10.909972,0,0,-10.910082,77.45287,9.929543)"/>
</svg>
