<svg xmlns="http://www.w3.org/2000/svg" xmlns:xlink="http://www.w3.org/1999/xlink" version="1.1" width="102" height="112" viewBox="0 0 102 112">
<defs>
<path id="font_1_1" d="M.2689972 .39065553H.37799073C.397995 .39065553 .4119873 .39065553 .4119873 .4156494 .4119873 .43066407 .39898683 .43066407 .3809967 .43066407H.2789917L.31399537 .5685272C.31799317 .58351138 .31799317 .5894928 .31799317 .5904999 .31799317 .6144867 .29899598 .6244812 .2829895 .6244812 .2709961 .6244812 .24499512 .6174774 .23599243 .58551028L.19699097 .43066407H.08898926C.067993167 .43066407 .066986087 .42965699 .06298828 .426651 .057998659 .4226532 .053985597 .4096527 .053985597 .4046631 .056991579 .39065553 .06599426 .39065553 .085998538 .39065553H.18699646L.12799073 .15501404C.12199402 .13204956 .11399841 .09811401 .11399841 .086120609 .11399841 .028213501 .1659851-.009765625 .22698975-.009765625 .34199525-.009765625 .4099884 .12705994 .4099884 .14404297 .4099884 .14703369 .4079895 .15802002 .3909912 .15802002 .37799073 .15802002 .37599183 .1530304 .37098695 .14103699 .33699037 .06616211 .27999879 .023223877 .23098755 .023223877 .19400025 .023223877 .19299317 .060165407 .19299317 .073150638 .19299317 .087127689 .19299317 .08912659 .19799805 .10809326L.2689972 .39065553Z"/>
<path id="font_1_2" d="M.59599307 .38438417C.59799197 .39138795 .598999 .395401 .598999 .39839173 .598999 .4104004 .58999636 .43139649 .5629883 .43139649 .54599 .43139649 .5289917 .4203949 .5219879 .4064026 .5179901 .3993988 .5109863 .3683777 .5059967 .3493805L.4850006 .26634217 .45399476 .14128113C.44699098 .11326599 .44299317 .09725952 .40299989 .059249879 .3919983 .049240114 .3600006 .023223877 .31698609 .023223877 .24299622 .023223877 .24299622 .088256839 .24299622 .10626221 .24299622 .15028382 .25498963 .19529724 .29899598 .3053589 .30899049 .32936097 .31199647 .33636476 .31199647 .35437013 .31199647 .4104004 .2619934 .44140626 .21199036 .44140626 .10998535 .44140626 .06098938 .3093567 .06098938 .28733827 .06098938 .28234864 .06498718 .27334596 .07899475 .27334596 .09298706 .27334596 .09599304 .27934266 .09899902 .28834535 .1269989 .38539125 .17999268 .4084015 .20799256 .4084015 .22799683 .4084015 .23498535 .395401 .23498535 .37239076 .23498535 .3513794 .22200012 .3173523 .21099854 .29034425 .17599488 .20230103 .1639862 .15628052 .1639862 .120269779 .1639862 .025222779 .23498535-.009765625 .31298829-.009765625 .32699586-.009765625 .37399293-.009765625 .4269867 .036239625 .4139862-.01878357 .40499879-.05781555 .35699464-.109817508 .33898927-.12980652 .2939911-.1710968 .23399353-.1710968 .22499085-.1710968 .18199158-.17008972 .15899658-.14382935 .20298767-.13581848 .20899964-.09681702 .20899964-.08781433 .20899964-.060806276 .18699646-.049804689 .16799927-.049804689 .14299011-.049804689 .10998535-.06980896 .10998535-.11581421 .10998535-.16403198 .15699768-.20410156 .23498535-.20410156 .34098817-.20410156 .46899415-.12580872 .5-.00077819827L.59599307 .38438417Z"/>
<path id="font_2_121" d="M.5499878 .31877137C.5499878 .39183045 .5499878 .66503909 .30499269 .66503909 .05999756 .66503909 .05999756 .39183045 .05999756 .31877137 .05999756 .2467041 .05999756-.021484375 .30499269-.021484375 .5499878-.021484375 .5499878 .2467041 .5499878 .31877137M.45498658 .33177186C.45498658 .26771546 .45498658 .16664124 .43798829 .1105957 .4099884 .023513794 .33799745 .010513306 .30499269 .010513306 .2630005 .010513306 .19499207 .030517579 .17098999 .113601688 .15499878 .17164612 .15499878 .2697296 .15499878 .33177186 .15499878 .39883424 .15499878 .4758911 .16899109 .52993777 .19400025 .6200104 .269989 .6330261 .30499269 .6330261 .35099793 .6330261 .4169922 .6110077 .43899537 .5349426 .45399476 .48190309 .45498658 .408844 .45498658 .33177186Z"/>
<path id="font_2_82" d="M.5049896 0V.038986207H.46199037C.35899354 .038986207 .35899354 .051986696 .35899354 .08496094V.63482668C.35899354 .66503909 .35499574 .66503909 .32499696 .66503909 .25898744 .60058596 .15699768 .60058596 .12098694 .60058596V.5615845C.14698792 .5615845 .21299744 .5615845 .272995 .58958438V.08496094C.272995 .051986696 .272995 .038986207 .16999817 .038986207H.1269989V0C.18199158 .0039978029 .2599945 .0039978029 .31599427 .0039978029 .37199403 .0039978029 .44999696 .0039978029 .5049896 0Z"/>
<path id="font_2_107" d="M.5379944 .18702698H.5009918C.49899293 .17301941 .4889984 .10699463 .47399903 .09599304 .46699525 .08999634 .38598634 .08999634 .37199403 .08999634H.18499756L.31298829 .19403076C.34700013 .22103882 .43598939 .28504945 .46699525 .31506349 .49699403 .3450775 .5379944 .39608766 .5379944 .46710206 .5379944 .5920563 .4249878 .66503909 .29100038 .66503909 .1619873 .66503909 .07199097 .58006289 .07199097 .48609925 .07199097 .43510438 .114990238 .42910768 .12599182 .42910768 .15098572 .42910768 .17999268 .44709779 .17999268 .48310853 .17999268 .50509646 .16699219 .5371094 .12298584 .5371094 .1459961 .5880585 .20698548 .6260376 .27598573 .6260376 .3809967 .6260376 .43699647 .5480957 .43699647 .46710206 .43699647 .39608766 .3899994 .32305909 .31999208 .25904847L.08299255 .041992189C.07299805 .03199768 .07199097 .0309906 .07199097 0H.5069885L.5379944 .18702698Z"/>
<path id="font_2_64" d="M.33699037 .17996216V.25097657H.026992798V.17996216H.33699037Z"/>
</defs>
<path transform="matrix(1.00005,0,0,-1.00006,20.863587,69.305377)" stroke-width=".3985" stroke-linecap="butt" stroke-miterlimit="10" stroke-linejoin="miter" fill="none" stroke="#cbcbcb" d="M-5.66936-34.01628V56.69382"/>
<path transform="matrix(1.00005,0,0,-1.00006,20.863587,69.305377)" stroke-width=".3985" stroke-linecap="butt" stroke-miterlimit="10" stroke-linejoin="miter" fill="none" stroke="#cbcbcb" d="M0-34.01628V56.69382"/>
<path transform="matrix(1.00005,0,0,-1.00006,20.863587,69.305377)" stroke-width=".3985" stroke-linecap="butt" stroke-miterlimit="10" stroke-linejoin="miter" fill="none" stroke="#cbcbcb" d="M5.66936-34.01628V56.69382"/>
<path transform="matrix(1.00005,0,0,-1.00006,20.863587,69.305377)" stroke-width=".3985" stroke-linecap="butt" stroke-miterlimit="10" stroke-linejoin="miter" fill="none" stroke="#cbcbcb" d="M11.33876-34.01628V56.69382"/>
<path transform="matrix(1.00005,0,0,-1.00006,20.863587,69.305377)" stroke-width=".3985" stroke-linecap="butt" stroke-miterlimit="10" stroke-linejoin="miter" fill="none" stroke="#cbcbcb" d="M17.00813-34.01628V56.69382"/>
<path transform="matrix(1.00005,0,0,-1.00006,20.863587,69.305377)" stroke-width=".3985" stroke-linecap="butt" stroke-miterlimit="10" stroke-linejoin="miter" fill="none" stroke="#cbcbcb" d="M22.67752-34.01628V56.69382"/>
<path transform="matrix(1.00005,0,0,-1.00006,20.863587,69.305377)" stroke-width=".3985" stroke-linecap="butt" stroke-miterlimit="10" stroke-linejoin="miter" fill="none" stroke="#cbcbcb" d="M28.3469-34.01628V56.69382"/>
<path transform="matrix(1.00005,0,0,-1.00006,20.863587,69.305377)" stroke-width=".3985" stroke-linecap="butt" stroke-miterlimit="10" stroke-linejoin="miter" fill="none" stroke="#cbcbcb" d="M34.01628-34.01628V56.69382"/>
<path transform="matrix(1.00005,0,0,-1.00006,20.863587,69.305377)" stroke-width=".3985" stroke-linecap="butt" stroke-miterlimit="10" stroke-linejoin="miter" fill="none" stroke="#cbcbcb" d="M39.68567-34.01628V56.69382"/>
<path transform="matrix(1.00005,0,0,-1.00006,20.863587,69.305377)" stroke-width=".3985" stroke-linecap="butt" stroke-miterlimit="10" stroke-linejoin="miter" fill="none" stroke="#cbcbcb" d="M45.35506-34.01628V56.69382"/>
<path transform="matrix(1.00005,0,0,-1.00006,20.863587,69.305377)" stroke-width=".3985" stroke-linecap="butt" stroke-miterlimit="10" stroke-linejoin="miter" fill="none" stroke="#cbcbcb" d="M51.02443-34.01628V56.69382"/>
<path transform="matrix(1.00005,0,0,-1.00006,20.863587,69.305377)" stroke-width=".3985" stroke-linecap="butt" stroke-miterlimit="10" stroke-linejoin="miter" fill="none" stroke="#cbcbcb" d="M56.69382-34.01628V56.69382"/>
<path transform="matrix(1.00005,0,0,-1.00006,20.863587,69.305377)" stroke-width=".3985" stroke-linecap="butt" stroke-miterlimit="10" stroke-linejoin="miter" fill="none" stroke="#cbcbcb" d="M62.3632-34.01628V56.69382"/>
<path transform="matrix(1.00005,0,0,-1.00006,20.863587,69.305377)" stroke-width=".3985" stroke-linecap="butt" stroke-miterlimit="10" stroke-linejoin="miter" fill="none" stroke="#cbcbcb" d="M-11.33876-28.3469H68.0326"/>
<path transform="matrix(1.00005,0,0,-1.00006,20.863587,69.305377)" stroke-width=".3985" stroke-linecap="butt" stroke-miterlimit="10" stroke-linejoin="miter" fill="none" stroke="#cbcbcb" d="M-11.33876-22.67752H68.0326"/>
<path transform="matrix(1.00005,0,0,-1.00006,20.863587,69.305377)" stroke-width=".3985" stroke-linecap="butt" stroke-miterlimit="10" stroke-linejoin="miter" fill="none" stroke="#cbcbcb" d="M-11.33876-17.00813H68.0326"/>
<path transform="matrix(1.00005,0,0,-1.00006,20.863587,69.305377)" stroke-width=".3985" stroke-linecap="butt" stroke-miterlimit="10" stroke-linejoin="miter" fill="none" stroke="#cbcbcb" d="M-11.33876-11.33876H68.0326"/>
<path transform="matrix(1.00005,0,0,-1.00006,20.863587,69.305377)" stroke-width=".3985" stroke-linecap="butt" stroke-miterlimit="10" stroke-linejoin="miter" fill="none" stroke="#cbcbcb" d="M-11.33876-5.66936H68.0326"/>
<path transform="matrix(1.00005,0,0,-1.00006,20.863587,69.305377)" stroke-width=".3985" stroke-linecap="butt" stroke-miterlimit="10" stroke-linejoin="miter" fill="none" stroke="#cbcbcb" d="M-11.33876 0H68.0326"/>
<path transform="matrix(1.00005,0,0,-1.00006,20.863587,69.305377)" stroke-width=".3985" stroke-linecap="butt" stroke-miterlimit="10" stroke-linejoin="miter" fill="none" stroke="#cbcbcb" d="M-11.33876 5.66936H68.0326"/>
<path transform="matrix(1.00005,0,0,-1.00006,20.863587,69.305377)" stroke-width=".3985" stroke-linecap="butt" stroke-miterlimit="10" stroke-linejoin="miter" fill="none" stroke="#cbcbcb" d="M-11.33876 11.33876H68.0326"/>
<path transform="matrix(1.00005,0,0,-1.00006,20.863587,69.305377)" stroke-width=".3985" stroke-linecap="butt" stroke-miterlimit="10" stroke-linejoin="miter" fill="none" stroke="#cbcbcb" d="M-11.33876 17.00813H68.0326"/>
<path transform="matrix(1.00005,0,0,-1.00006,20.863587,69.305377)" stroke-width=".3985" stroke-linecap="butt" stroke-miterlimit="10" stroke-linejoin="miter" fill="none" stroke="#cbcbcb" d="M-11.33876 22.67752H68.0326"/>
<path transform="matrix(1.00005,0,0,-1.00006,20.863587,69.305377)" stroke-width=".3985" stroke-linecap="butt" stroke-miterlimit="10" stroke-linejoin="miter" fill="none" stroke="#cbcbcb" d="M-11.33876 28.3469H68.0326"/>
<path transform="matrix(1.00005,0,0,-1.00006,20.863587,69.305377)" stroke-width=".3985" stroke-linecap="butt" stroke-miterlimit="10" stroke-linejoin="miter" fill="none" stroke="#cbcbcb" d="M-11.33876 34.01628H68.0326"/>
<path transform="matrix(1.00005,0,0,-1.00006,20.863587,69.305377)" stroke-width=".3985" stroke-linecap="butt" stroke-miterlimit="10" stroke-linejoin="miter" fill="none" stroke="#cbcbcb" d="M-11.33876 39.68567H68.0326"/>
<path transform="matrix(1.00005,0,0,-1.00006,20.863587,69.305377)" stroke-width=".3985" stroke-linecap="butt" stroke-miterlimit="10" stroke-linejoin="miter" fill="none" stroke="#cbcbcb" d="M-11.33876 45.35506H68.0326"/>
<path transform="matrix(1.00005,0,0,-1.00006,20.863587,69.305377)" stroke-width=".3985" stroke-linecap="butt" stroke-miterlimit="10" stroke-linejoin="miter" fill="none" stroke="#cbcbcb" d="M-11.33876 51.02443H68.0326"/>
<path transform="matrix(1.00005,0,0,-1.00006,20.863587,69.305377)" stroke-width=".3985" stroke-linecap="butt" stroke-miterlimit="10" stroke-linejoin="miter" fill="none" stroke="#000000" d="M-11.33876 0H78.97284"/>
<path transform="matrix(1.00005,0,0,-1.00006,100.03963,69.305377)" stroke-width=".3985" stroke-linecap="round" stroke-linejoin="round" fill="none" stroke="#000000" d="M-2.07224 2.39104C-1.69365 .95639-.84999 .27895 0 0-.84999-.27895-1.69365-.95639-2.07224-2.39104"/>
<use data-text="t" xlink:href="#font_1_1" transform="matrix(5.9778988,0,0,-5.9779589,95.97834,76.817829)"/>
<path transform="matrix(1.00005,0,0,-1.00006,20.863587,69.305377)" stroke-width=".3985" stroke-linecap="butt" stroke-miterlimit="10" stroke-linejoin="miter" fill="none" stroke="#000000" d="M0-34.01628V67.63408"/>
<path transform="matrix(0,-1.00006,-1.00005,-0,20.863587,1.4679794)" stroke-width=".3985" stroke-linecap="round" stroke-linejoin="round" fill="none" stroke="#000000" d="M-2.07224 2.39104C-1.69365 .95639-.84999 .27895 0 0-.84999-.27895-1.69365-.95639-2.07224-2.39104"/>
<use data-text="y" xlink:href="#font_1_2" transform="matrix(5.9778988,0,0,-5.9779589,13.029198,4.8095095)"/>
<path transform="matrix(1.00005,0,0,-1.00006,20.863587,69.305377)" stroke-width=".3985" stroke-linecap="butt" stroke-miterlimit="10" stroke-linejoin="miter" fill="none" stroke="#cbcbcb" d="M-11.33876-34.01628V56.69382H68.0326V-34.01628ZM68.0326 56.69382"/>
<path transform="matrix(1.00005,0,0,-1.00006,20.863587,69.305377)" stroke-width=".3985" stroke-linecap="butt" stroke-miterlimit="10" stroke-linejoin="miter" fill="none" stroke="#000000" d="M0-35.37688V-32.65569"/>
<use data-text="0" xlink:href="#font_2_121" transform="matrix(5.9778988,0,0,-5.9779589,19.037499,109.7738)"/>
<path transform="matrix(1.00005,0,0,-1.00006,20.863587,69.305377)" stroke-width=".3985" stroke-linecap="butt" stroke-miterlimit="10" stroke-linejoin="miter" fill="none" stroke="#000000" d="M22.67752-35.37688V-32.65569"/>
<use data-text="1" xlink:href="#font_2_82" transform="matrix(5.9778988,0,0,-5.9779589,41.71563,109.7738)"/>
<path transform="matrix(1.00005,0,0,-1.00006,20.863587,69.305377)" stroke-width=".3985" stroke-linecap="butt" stroke-miterlimit="10" stroke-linejoin="miter" fill="none" stroke="#000000" d="M45.35506-35.37688V-32.65569"/>
<use data-text="2" xlink:href="#font_2_107" transform="matrix(5.9778988,0,0,-5.9779589,64.39476,109.7738)"/>
<path transform="matrix(1.00005,0,0,-1.00006,20.863587,69.305377)" stroke-width=".3985" stroke-linecap="butt" stroke-miterlimit="10" stroke-linejoin="miter" fill="none" stroke="#000000" d="M-12.69934-22.67752H-9.97815"/>
<use data-text="-" xlink:href="#font_2_64" transform="matrix(5.9778988,0,0,-5.9779589,.9045868,93.97185)"/>
<use data-text="1" xlink:href="#font_2_82" transform="matrix(5.9778988,0,0,-5.9779589,3.397377,93.97185)"/>
<path transform="matrix(1.00005,0,0,-1.00006,20.863587,69.305377)" stroke-width=".3985" stroke-linecap="butt" stroke-miterlimit="10" stroke-linejoin="miter" fill="none" stroke="#000000" d="M-12.69934 0H-9.97815"/>
<use data-text="0" xlink:href="#font_2_121" transform="matrix(5.9778988,0,0,-5.9779589,3.3967133,71.23049)"/>
<path transform="matrix(1.00005,0,0,-1.00006,20.863587,69.305377)" stroke-width=".3985" stroke-linecap="butt" stroke-miterlimit="10" stroke-linejoin="miter" fill="none" stroke="#000000" d="M-12.69934 22.67752H-9.97815"/>
<use data-text="1" xlink:href="#font_2_82" transform="matrix(5.9778988,0,0,-5.9779589,3.3967133,48.614137)"/>
<path transform="matrix(1.00005,0,0,-1.00006,20.863587,69.305377)" stroke-width=".3985" stroke-linecap="butt" stroke-miterlimit="10" stroke-linejoin="miter" fill="none" stroke="#000000" d="M-12.69934 45.35506H-9.97815"/>
<use data-text="2" xlink:href="#font_2_107" transform="matrix(5.9778988,0,0,-5.9779589,3.3967133,25.935772)"/>
<path transform="matrix(1.00005,0,0,-1.00006,20.863587,69.305377)" stroke-width=".79701" stroke-linecap="butt" stroke-miterlimit="10" stroke-linejoin="miter" fill="none" stroke="#409f9f" d="M-7.64552-29.458-3.69319-27.2358"/>
<path transform="matrix(1.00005,0,0,-1.00006,20.863587,69.305377)" stroke-width=".79701" stroke-linecap="butt" stroke-miterlimit="10" stroke-linejoin="miter" fill="none" stroke="#409f9f" d="M-7.93689-22.67752H-3.40182"/>
<path transform="matrix(1.00005,0,0,-1.00006,20.863587,69.305377)" stroke-width=".79701" stroke-linecap="butt" stroke-miterlimit="10" stroke-linejoin="miter" fill="none" stroke="#409f9f" d="M-7.74762-16.09947-3.5911-17.9168"/>
<path transform="matrix(1.00005,0,0,-1.00006,20.863587,69.305377)" stroke-width=".79701" stroke-linecap="butt" stroke-miterlimit="10" stroke-linejoin="miter" fill="none" stroke="#409f9f" d="M-7.4836-9.97816-3.85512-12.69934"/>
<path transform="matrix(1.00005,0,0,-1.00006,20.863587,69.305377)" stroke-width=".79701" stroke-linecap="butt" stroke-miterlimit="10" stroke-linejoin="miter" fill="none" stroke="#409f9f" d="M-7.32373-4.1188-4.01498-7.21991"/>
<path transform="matrix(1.00005,0,0,-1.00006,20.863587,69.305377)" stroke-width=".79701" stroke-linecap="butt" stroke-miterlimit="10" stroke-linejoin="miter" fill="none" stroke="#409f9f" d="M-7.2725 1.6035-4.06621-1.6035"/>
<path transform="matrix(1.00005,0,0,-1.00006,20.863587,69.305377)" stroke-width=".79701" stroke-linecap="butt" stroke-miterlimit="10" stroke-linejoin="miter" fill="none" stroke="#409f9f" d="M-7.32373 7.21991-4.01498 4.1188"/>
<path transform="matrix(1.00005,0,0,-1.00006,20.863587,69.305377)" stroke-width=".79701" stroke-linecap="butt" stroke-miterlimit="10" stroke-linejoin="miter" fill="none" stroke="#409f9f" d="M-7.4836 12.69934-3.85512 9.97816"/>
<path transform="matrix(1.00005,0,0,-1.00006,20.863587,69.305377)" stroke-width=".79701" stroke-linecap="butt" stroke-miterlimit="10" stroke-linejoin="miter" fill="none" stroke="#409f9f" d="M-7.74762 17.9168-3.5911 16.09947"/>
<path transform="matrix(1.00005,0,0,-1.00006,20.863587,69.305377)" stroke-width=".79701" stroke-linecap="butt" stroke-miterlimit="10" stroke-linejoin="miter" fill="none" stroke="#409f9f" d="M-7.93689 22.67752H-3.40182"/>
<path transform="matrix(1.00005,0,0,-1.00006,20.863587,69.305377)" stroke-width=".79701" stroke-linecap="butt" stroke-miterlimit="10" stroke-linejoin="miter" fill="none" stroke="#409f9f" d="M-7.64552 27.2358-3.69319 29.458"/>
<path transform="matrix(1.00005,0,0,-1.00006,20.863587,69.305377)" stroke-width=".79701" stroke-linecap="butt" stroke-miterlimit="10" stroke-linejoin="miter" fill="none" stroke="#409f9f" d="M-7.0853 32.24634-4.25342 35.78621"/>
<path transform="matrix(1.00005,0,0,-1.00006,20.863587,69.305377)" stroke-width=".79701" stroke-linecap="butt" stroke-miterlimit="10" stroke-linejoin="miter" fill="none" stroke="#409f9f" d="M-6.65866 37.64514-4.68005 41.7262"/>
<path transform="matrix(1.00005,0,0,-1.00006,20.863587,69.305377)" stroke-width=".79701" stroke-linecap="butt" stroke-miterlimit="10" stroke-linejoin="miter" fill="none" stroke="#409f9f" d="M-6.38666 43.20378-4.95206 47.50632"/>
<path transform="matrix(1.00005,0,0,-1.00006,20.863587,69.305377)" stroke-width=".79701" stroke-linecap="butt" stroke-miterlimit="10" stroke-linejoin="miter" fill="none" stroke="#409f9f" d="M-6.21121 48.82265-5.1275 53.22621"/>
<path transform="matrix(1.00005,0,0,-1.00006,20.863587,69.305377)" stroke-width=".79701" stroke-linecap="butt" stroke-miterlimit="10" stroke-linejoin="miter" fill="none" stroke="#409f9f" d="M-1.97617-29.458 1.97617-27.2358"/>
<path transform="matrix(1.00005,0,0,-1.00006,20.863587,69.305377)" stroke-width=".79701" stroke-linecap="butt" stroke-miterlimit="10" stroke-linejoin="miter" fill="none" stroke="#409f9f" d="M-2.26752-22.67752H2.26752"/>
<path transform="matrix(1.00005,0,0,-1.00006,20.863587,69.305377)" stroke-width=".79701" stroke-linecap="butt" stroke-miterlimit="10" stroke-linejoin="miter" fill="none" stroke="#409f9f" d="M-2.07826-16.09947 2.07826-17.9168"/>
<path transform="matrix(1.00005,0,0,-1.00006,20.863587,69.305377)" stroke-width=".79701" stroke-linecap="butt" stroke-miterlimit="10" stroke-linejoin="miter" fill="none" stroke="#409f9f" d="M-1.81422-9.97816 1.81422-12.69934"/>
<path transform="matrix(1.00005,0,0,-1.00006,20.863587,69.305377)" stroke-width=".79701" stroke-linecap="butt" stroke-miterlimit="10" stroke-linejoin="miter" fill="none" stroke="#409f9f" d="M-1.65436-4.1188 1.65436-7.21991"/>
<path transform="matrix(1.00005,0,0,-1.00006,20.863587,69.305377)" stroke-width=".79701" stroke-linecap="butt" stroke-miterlimit="10" stroke-linejoin="miter" fill="none" stroke="#409f9f" d="M-1.60315 1.6035 1.60315-1.6035"/>
<path transform="matrix(1.00005,0,0,-1.00006,20.863587,69.305377)" stroke-width=".79701" stroke-linecap="butt" stroke-miterlimit="10" stroke-linejoin="miter" fill="none" stroke="#409f9f" d="M-1.65436 7.21991 1.65436 4.1188"/>
<path transform="matrix(1.00005,0,0,-1.00006,20.863587,69.305377)" stroke-width=".79701" stroke-linecap="butt" stroke-miterlimit="10" stroke-linejoin="miter" fill="none" stroke="#409f9f" d="M-1.81422 12.69934 1.81422 9.97816"/>
<path transform="matrix(1.00005,0,0,-1.00006,20.863587,69.305377)" stroke-width=".79701" stroke-linecap="butt" stroke-miterlimit="10" stroke-linejoin="miter" fill="none" stroke="#409f9f" d="M-2.07826 17.9168 2.07826 16.09947"/>
<path transform="matrix(1.00005,0,0,-1.00006,20.863587,69.305377)" stroke-width=".79701" stroke-linecap="butt" stroke-miterlimit="10" stroke-linejoin="miter" fill="none" stroke="#409f9f" d="M-2.26752 22.67752H2.26752"/>
<path transform="matrix(1.00005,0,0,-1.00006,20.863587,69.305377)" stroke-width=".79701" stroke-linecap="butt" stroke-miterlimit="10" stroke-linejoin="miter" fill="none" stroke="#409f9f" d="M-1.97617 27.2358 1.97617 29.458"/>
<path transform="matrix(1.00005,0,0,-1.00006,20.863587,69.305377)" stroke-width=".79701" stroke-linecap="butt" stroke-miterlimit="10" stroke-linejoin="miter" fill="none" stroke="#409f9f" d="M-1.41594 32.24634 1.41594 35.78621"/>
<path transform="matrix(1.00005,0,0,-1.00006,20.863587,69.305377)" stroke-width=".79701" stroke-linecap="butt" stroke-miterlimit="10" stroke-linejoin="miter" fill="none" stroke="#409f9f" d="M-.98929 37.64514 .98929 41.7262"/>
<path transform="matrix(1.00005,0,0,-1.00006,20.863587,69.305377)" stroke-width=".79701" stroke-linecap="butt" stroke-miterlimit="10" stroke-linejoin="miter" fill="none" stroke="#409f9f" d="M-.7173 43.20378 .7173 47.50632"/>
<path transform="matrix(1.00005,0,0,-1.00006,20.863587,69.305377)" stroke-width=".79701" stroke-linecap="butt" stroke-miterlimit="10" stroke-linejoin="miter" fill="none" stroke="#409f9f" d="M-.54185 48.82265 .54185 53.22621"/>
<path transform="matrix(1.00005,0,0,-1.00006,20.863587,69.305377)" stroke-width=".79701" stroke-linecap="butt" stroke-miterlimit="10" stroke-linejoin="miter" fill="none" stroke="#409f9f" d="M3.69319-29.458 7.64552-27.2358"/>
<path transform="matrix(1.00005,0,0,-1.00006,20.863587,69.305377)" stroke-width=".79701" stroke-linecap="butt" stroke-miterlimit="10" stroke-linejoin="miter" fill="none" stroke="#409f9f" d="M3.40182-22.67752H7.93689"/>
<path transform="matrix(1.00005,0,0,-1.00006,20.863587,69.305377)" stroke-width=".79701" stroke-linecap="butt" stroke-miterlimit="10" stroke-linejoin="miter" fill="none" stroke="#409f9f" d="M3.5911-16.09947 7.74762-17.9168"/>
<path transform="matrix(1.00005,0,0,-1.00006,20.863587,69.305377)" stroke-width=".79701" stroke-linecap="butt" stroke-miterlimit="10" stroke-linejoin="miter" fill="none" stroke="#409f9f" d="M3.85512-9.97816 7.4836-12.69934"/>
<path transform="matrix(1.00005,0,0,-1.00006,20.863587,69.305377)" stroke-width=".79701" stroke-linecap="butt" stroke-miterlimit="10" stroke-linejoin="miter" fill="none" stroke="#409f9f" d="M4.01498-4.1188 7.32373-7.21991"/>
<path transform="matrix(1.00005,0,0,-1.00006,20.863587,69.305377)" stroke-width=".79701" stroke-linecap="butt" stroke-miterlimit="10" stroke-linejoin="miter" fill="none" stroke="#409f9f" d="M4.06621 1.6035 7.2725-1.6035"/>
<path transform="matrix(1.00005,0,0,-1.00006,20.863587,69.305377)" stroke-width=".79701" stroke-linecap="butt" stroke-miterlimit="10" stroke-linejoin="miter" fill="none" stroke="#409f9f" d="M4.01498 7.21991 7.32373 4.1188"/>
<path transform="matrix(1.00005,0,0,-1.00006,20.863587,69.305377)" stroke-width=".79701" stroke-linecap="butt" stroke-miterlimit="10" stroke-linejoin="miter" fill="none" stroke="#409f9f" d="M3.85512 12.69934 7.4836 9.97816"/>
<path transform="matrix(1.00005,0,0,-1.00006,20.863587,69.305377)" stroke-width=".79701" stroke-linecap="butt" stroke-miterlimit="10" stroke-linejoin="miter" fill="none" stroke="#409f9f" d="M3.5911 17.9168 7.74762 16.09947"/>
<path transform="matrix(1.00005,0,0,-1.00006,20.863587,69.305377)" stroke-width=".79701" stroke-linecap="butt" stroke-miterlimit="10" stroke-linejoin="miter" fill="none" stroke="#409f9f" d="M3.40182 22.67752H7.93689"/>
<path transform="matrix(1.00005,0,0,-1.00006,20.863587,69.305377)" stroke-width=".79701" stroke-linecap="butt" stroke-miterlimit="10" stroke-linejoin="miter" fill="none" stroke="#409f9f" d="M3.69319 27.2358 7.64552 29.458"/>
<path transform="matrix(1.00005,0,0,-1.00006,20.863587,69.305377)" stroke-width=".79701" stroke-linecap="butt" stroke-miterlimit="10" stroke-linejoin="miter" fill="none" stroke="#409f9f" d="M4.25342 32.24634 7.0853 35.78621"/>
<path transform="matrix(1.00005,0,0,-1.00006,20.863587,69.305377)" stroke-width=".79701" stroke-linecap="butt" stroke-miterlimit="10" stroke-linejoin="miter" fill="none" stroke="#409f9f" d="M4.68005 37.64514 6.65866 41.7262"/>
<path transform="matrix(1.00005,0,0,-1.00006,20.863587,69.305377)" stroke-width=".79701" stroke-linecap="butt" stroke-miterlimit="10" stroke-linejoin="miter" fill="none" stroke="#409f9f" d="M4.95206 43.20378 6.38666 47.50632"/>
<path transform="matrix(1.00005,0,0,-1.00006,20.863587,69.305377)" stroke-width=".79701" stroke-linecap="butt" stroke-miterlimit="10" stroke-linejoin="miter" fill="none" stroke="#409f9f" d="M5.1275 48.82265 6.21121 53.22621"/>
<path transform="matrix(1.00005,0,0,-1.00006,20.863587,69.305377)" stroke-width=".79701" stroke-linecap="butt" stroke-miterlimit="10" stroke-linejoin="miter" fill="none" stroke="#409f9f" d="M9.36258-29.458 13.31493-27.2358"/>
<path transform="matrix(1.00005,0,0,-1.00006,20.863587,69.305377)" stroke-width=".79701" stroke-linecap="butt" stroke-miterlimit="10" stroke-linejoin="miter" fill="none" stroke="#409f9f" d="M9.07123-22.67752H13.60628"/>
<path transform="matrix(1.00005,0,0,-1.00006,20.863587,69.305377)" stroke-width=".79701" stroke-linecap="butt" stroke-miterlimit="10" stroke-linejoin="miter" fill="none" stroke="#409f9f" d="M9.26048-16.09947 13.41702-17.9168"/>
<path transform="matrix(1.00005,0,0,-1.00006,20.863587,69.305377)" stroke-width=".79701" stroke-linecap="butt" stroke-miterlimit="10" stroke-linejoin="miter" fill="none" stroke="#409f9f" d="M9.52452-9.97816 13.15298-12.69934"/>
<path transform="matrix(1.00005,0,0,-1.00006,20.863587,69.305377)" stroke-width=".79701" stroke-linecap="butt" stroke-miterlimit="10" stroke-linejoin="miter" fill="none" stroke="#409f9f" d="M9.68439-4.1188 12.99312-7.21991"/>
<path transform="matrix(1.00005,0,0,-1.00006,20.863587,69.305377)" stroke-width=".79701" stroke-linecap="butt" stroke-miterlimit="10" stroke-linejoin="miter" fill="none" stroke="#409f9f" d="M9.7356 1.6035 12.94191-1.6035"/>
<path transform="matrix(1.00005,0,0,-1.00006,20.863587,69.305377)" stroke-width=".79701" stroke-linecap="butt" stroke-miterlimit="10" stroke-linejoin="miter" fill="none" stroke="#409f9f" d="M9.68439 7.21991 12.99312 4.1188"/>
<path transform="matrix(1.00005,0,0,-1.00006,20.863587,69.305377)" stroke-width=".79701" stroke-linecap="butt" stroke-miterlimit="10" stroke-linejoin="miter" fill="none" stroke="#409f9f" d="M9.52452 12.69934 13.15298 9.97816"/>
<path transform="matrix(1.00005,0,0,-1.00006,20.863587,69.305377)" stroke-width=".79701" stroke-linecap="butt" stroke-miterlimit="10" stroke-linejoin="miter" fill="none" stroke="#409f9f" d="M9.26048 17.9168 13.41702 16.09947"/>
<path transform="matrix(1.00005,0,0,-1.00006,20.863587,69.305377)" stroke-width=".79701" stroke-linecap="butt" stroke-miterlimit="10" stroke-linejoin="miter" fill="none" stroke="#409f9f" d="M9.07123 22.67752H13.60628"/>
<path transform="matrix(1.00005,0,0,-1.00006,20.863587,69.305377)" stroke-width=".79701" stroke-linecap="butt" stroke-miterlimit="10" stroke-linejoin="miter" fill="none" stroke="#409f9f" d="M9.36258 27.2358 13.31493 29.458"/>
<path transform="matrix(1.00005,0,0,-1.00006,20.863587,69.305377)" stroke-width=".79701" stroke-linecap="butt" stroke-miterlimit="10" stroke-linejoin="miter" fill="none" stroke="#409f9f" d="M9.9228 32.24634 12.7547 35.78621"/>
<path transform="matrix(1.00005,0,0,-1.00006,20.863587,69.305377)" stroke-width=".79701" stroke-linecap="butt" stroke-miterlimit="10" stroke-linejoin="miter" fill="none" stroke="#409f9f" d="M10.34946 37.64514 12.32805 41.7262"/>
<path transform="matrix(1.00005,0,0,-1.00006,20.863587,69.305377)" stroke-width=".79701" stroke-linecap="butt" stroke-miterlimit="10" stroke-linejoin="miter" fill="none" stroke="#409f9f" d="M10.62144 43.20378 12.05606 47.50632"/>
<path transform="matrix(1.00005,0,0,-1.00006,20.863587,69.305377)" stroke-width=".79701" stroke-linecap="butt" stroke-miterlimit="10" stroke-linejoin="miter" fill="none" stroke="#409f9f" d="M10.79689 48.82265 11.88062 53.22621"/>
<path transform="matrix(1.00005,0,0,-1.00006,20.863587,69.305377)" stroke-width=".79701" stroke-linecap="butt" stroke-miterlimit="10" stroke-linejoin="miter" fill="none" stroke="#409f9f" d="M15.03197-29.458 18.9843-27.2358"/>
<path transform="matrix(1.00005,0,0,-1.00006,20.863587,69.305377)" stroke-width=".79701" stroke-linecap="butt" stroke-miterlimit="10" stroke-linejoin="miter" fill="none" stroke="#409f9f" d="M14.7406-22.67752H19.27567"/>
<path transform="matrix(1.00005,0,0,-1.00006,20.863587,69.305377)" stroke-width=".79701" stroke-linecap="butt" stroke-miterlimit="10" stroke-linejoin="miter" fill="none" stroke="#409f9f" d="M14.92987-16.09947 19.0864-17.9168"/>
<path transform="matrix(1.00005,0,0,-1.00006,20.863587,69.305377)" stroke-width=".79701" stroke-linecap="butt" stroke-miterlimit="10" stroke-linejoin="miter" fill="none" stroke="#409f9f" d="M15.1939-9.97816 18.82237-12.69934"/>
<path transform="matrix(1.00005,0,0,-1.00006,20.863587,69.305377)" stroke-width=".79701" stroke-linecap="butt" stroke-miterlimit="10" stroke-linejoin="miter" fill="none" stroke="#409f9f" d="M15.35376-4.1188 18.6625-7.21991"/>
<path transform="matrix(1.00005,0,0,-1.00006,20.863587,69.305377)" stroke-width=".79701" stroke-linecap="butt" stroke-miterlimit="10" stroke-linejoin="miter" fill="none" stroke="#409f9f" d="M15.40498 1.6035 18.61128-1.6035"/>
<path transform="matrix(1.00005,0,0,-1.00006,20.863587,69.305377)" stroke-width=".79701" stroke-linecap="butt" stroke-miterlimit="10" stroke-linejoin="miter" fill="none" stroke="#409f9f" d="M15.35376 7.21991 18.6625 4.1188"/>
<path transform="matrix(1.00005,0,0,-1.00006,20.863587,69.305377)" stroke-width=".79701" stroke-linecap="butt" stroke-miterlimit="10" stroke-linejoin="miter" fill="none" stroke="#409f9f" d="M15.1939 12.69934 18.82237 9.97816"/>
<path transform="matrix(1.00005,0,0,-1.00006,20.863587,69.305377)" stroke-width=".79701" stroke-linecap="butt" stroke-miterlimit="10" stroke-linejoin="miter" fill="none" stroke="#409f9f" d="M14.92987 17.9168 19.0864 16.09947"/>
<path transform="matrix(1.00005,0,0,-1.00006,20.863587,69.305377)" stroke-width=".79701" stroke-linecap="butt" stroke-miterlimit="10" stroke-linejoin="miter" fill="none" stroke="#409f9f" d="M14.7406 22.67752H19.27567"/>
<path transform="matrix(1.00005,0,0,-1.00006,20.863587,69.305377)" stroke-width=".79701" stroke-linecap="butt" stroke-miterlimit="10" stroke-linejoin="miter" fill="none" stroke="#409f9f" d="M15.03197 27.2358 18.9843 29.458"/>
<path transform="matrix(1.00005,0,0,-1.00006,20.863587,69.305377)" stroke-width=".79701" stroke-linecap="butt" stroke-miterlimit="10" stroke-linejoin="miter" fill="none" stroke="#409f9f" d="M15.5922 32.24634 18.42407 35.78621"/>
<path transform="matrix(1.00005,0,0,-1.00006,20.863587,69.305377)" stroke-width=".79701" stroke-linecap="butt" stroke-miterlimit="10" stroke-linejoin="miter" fill="none" stroke="#409f9f" d="M16.01883 37.64514 17.99744 41.7262"/>
<path transform="matrix(1.00005,0,0,-1.00006,20.863587,69.305377)" stroke-width=".79701" stroke-linecap="butt" stroke-miterlimit="10" stroke-linejoin="miter" fill="none" stroke="#409f9f" d="M16.29083 43.20378 17.72543 47.50632"/>
<path transform="matrix(1.00005,0,0,-1.00006,20.863587,69.305377)" stroke-width=".79701" stroke-linecap="butt" stroke-miterlimit="10" stroke-linejoin="miter" fill="none" stroke="#409f9f" d="M16.46628 48.82265 17.54999 53.22621"/>
<path transform="matrix(1.00005,0,0,-1.00006,20.863587,69.305377)" stroke-width=".79701" stroke-linecap="butt" stroke-miterlimit="10" stroke-linejoin="miter" fill="none" stroke="#409f9f" d="M20.70134-29.458 24.65369-27.2358"/>
<path transform="matrix(1.00005,0,0,-1.00006,20.863587,69.305377)" stroke-width=".79701" stroke-linecap="butt" stroke-miterlimit="10" stroke-linejoin="miter" fill="none" stroke="#409f9f" d="M20.40999-22.67752H24.94504"/>
<path transform="matrix(1.00005,0,0,-1.00006,20.863587,69.305377)" stroke-width=".79701" stroke-linecap="butt" stroke-miterlimit="10" stroke-linejoin="miter" fill="none" stroke="#409f9f" d="M20.59924-16.09947 24.75578-17.9168"/>
<path transform="matrix(1.00005,0,0,-1.00006,20.863587,69.305377)" stroke-width=".79701" stroke-linecap="butt" stroke-miterlimit="10" stroke-linejoin="miter" fill="none" stroke="#409f9f" d="M20.86328-9.97816 24.49174-12.69934"/>
<path transform="matrix(1.00005,0,0,-1.00006,20.863587,69.305377)" stroke-width=".79701" stroke-linecap="butt" stroke-miterlimit="10" stroke-linejoin="miter" fill="none" stroke="#409f9f" d="M21.02315-4.1188 24.33188-7.21991"/>
<path transform="matrix(1.00005,0,0,-1.00006,20.863587,69.305377)" stroke-width=".79701" stroke-linecap="butt" stroke-miterlimit="10" stroke-linejoin="miter" fill="none" stroke="#409f9f" d="M21.07436 1.6035 24.28067-1.6035"/>
<path transform="matrix(1.00005,0,0,-1.00006,20.863587,69.305377)" stroke-width=".79701" stroke-linecap="butt" stroke-miterlimit="10" stroke-linejoin="miter" fill="none" stroke="#409f9f" d="M21.02315 7.21991 24.33188 4.1188"/>
<path transform="matrix(1.00005,0,0,-1.00006,20.863587,69.305377)" stroke-width=".79701" stroke-linecap="butt" stroke-miterlimit="10" stroke-linejoin="miter" fill="none" stroke="#409f9f" d="M20.86328 12.69934 24.49174 9.97816"/>
<path transform="matrix(1.00005,0,0,-1.00006,20.863587,69.305377)" stroke-width=".79701" stroke-linecap="butt" stroke-miterlimit="10" stroke-linejoin="miter" fill="none" stroke="#409f9f" d="M20.59924 17.9168 24.75578 16.09947"/>
<path transform="matrix(1.00005,0,0,-1.00006,20.863587,69.305377)" stroke-width=".79701" stroke-linecap="butt" stroke-miterlimit="10" stroke-linejoin="miter" fill="none" stroke="#409f9f" d="M20.40999 22.67752H24.94504"/>
<path transform="matrix(1.00005,0,0,-1.00006,20.863587,69.305377)" stroke-width=".79701" stroke-linecap="butt" stroke-miterlimit="10" stroke-linejoin="miter" fill="none" stroke="#409f9f" d="M20.70134 27.2358 24.65369 29.458"/>
<path transform="matrix(1.00005,0,0,-1.00006,20.863587,69.305377)" stroke-width=".79701" stroke-linecap="butt" stroke-miterlimit="10" stroke-linejoin="miter" fill="none" stroke="#409f9f" d="M21.26157 32.24634 24.09346 35.78621"/>
<path transform="matrix(1.00005,0,0,-1.00006,20.863587,69.305377)" stroke-width=".79701" stroke-linecap="butt" stroke-miterlimit="10" stroke-linejoin="miter" fill="none" stroke="#409f9f" d="M21.68822 37.64514 23.66681 41.7262"/>
<path transform="matrix(1.00005,0,0,-1.00006,20.863587,69.305377)" stroke-width=".79701" stroke-linecap="butt" stroke-miterlimit="10" stroke-linejoin="miter" fill="none" stroke="#409f9f" d="M21.9602 43.20378 23.39482 47.50632"/>
<path transform="matrix(1.00005,0,0,-1.00006,20.863587,69.305377)" stroke-width=".79701" stroke-linecap="butt" stroke-miterlimit="10" stroke-linejoin="miter" fill="none" stroke="#409f9f" d="M22.13565 48.82265 23.21938 53.22621"/>
<path transform="matrix(1.00005,0,0,-1.00006,20.863587,69.305377)" stroke-width=".79701" stroke-linecap="butt" stroke-miterlimit="10" stroke-linejoin="miter" fill="none" stroke="#409f9f" d="M26.37073-29.458 30.32306-27.2358"/>
<path transform="matrix(1.00005,0,0,-1.00006,20.863587,69.305377)" stroke-width=".79701" stroke-linecap="butt" stroke-miterlimit="10" stroke-linejoin="miter" fill="none" stroke="#409f9f" d="M26.07936-22.67752H30.61443"/>
<path transform="matrix(1.00005,0,0,-1.00006,20.863587,69.305377)" stroke-width=".79701" stroke-linecap="butt" stroke-miterlimit="10" stroke-linejoin="miter" fill="none" stroke="#409f9f" d="M26.26863-16.09947 30.42516-17.9168"/>
<path transform="matrix(1.00005,0,0,-1.00006,20.863587,69.305377)" stroke-width=".79701" stroke-linecap="butt" stroke-miterlimit="10" stroke-linejoin="miter" fill="none" stroke="#409f9f" d="M26.53265-9.97816 30.16113-12.69934"/>
<path transform="matrix(1.00005,0,0,-1.00006,20.863587,69.305377)" stroke-width=".79701" stroke-linecap="butt" stroke-miterlimit="10" stroke-linejoin="miter" fill="none" stroke="#409f9f" d="M26.69252-4.1188 30.00127-7.21991"/>
<path transform="matrix(1.00005,0,0,-1.00006,20.863587,69.305377)" stroke-width=".79701" stroke-linecap="butt" stroke-miterlimit="10" stroke-linejoin="miter" fill="none" stroke="#409f9f" d="M26.74374 1.6035 29.95004-1.6035"/>
<path transform="matrix(1.00005,0,0,-1.00006,20.863587,69.305377)" stroke-width=".79701" stroke-linecap="butt" stroke-miterlimit="10" stroke-linejoin="miter" fill="none" stroke="#409f9f" d="M26.69252 7.21991 30.00127 4.1188"/>
<path transform="matrix(1.00005,0,0,-1.00006,20.863587,69.305377)" stroke-width=".79701" stroke-linecap="butt" stroke-miterlimit="10" stroke-linejoin="miter" fill="none" stroke="#409f9f" d="M26.53265 12.69934 30.16113 9.97816"/>
<path transform="matrix(1.00005,0,0,-1.00006,20.863587,69.305377)" stroke-width=".79701" stroke-linecap="butt" stroke-miterlimit="10" stroke-linejoin="miter" fill="none" stroke="#409f9f" d="M26.26863 17.9168 30.42516 16.09947"/>
<path transform="matrix(1.00005,0,0,-1.00006,20.863587,69.305377)" stroke-width=".79701" stroke-linecap="butt" stroke-miterlimit="10" stroke-linejoin="miter" fill="none" stroke="#409f9f" d="M26.07936 22.67752H30.61443"/>
<path transform="matrix(1.00005,0,0,-1.00006,20.863587,69.305377)" stroke-width=".79701" stroke-linecap="butt" stroke-miterlimit="10" stroke-linejoin="miter" fill="none" stroke="#409f9f" d="M26.37073 27.2358 30.32306 29.458"/>
<path transform="matrix(1.00005,0,0,-1.00006,20.863587,69.305377)" stroke-width=".79701" stroke-linecap="butt" stroke-miterlimit="10" stroke-linejoin="miter" fill="none" stroke="#409f9f" d="M26.93095 32.24634 29.76283 35.78621"/>
<path transform="matrix(1.00005,0,0,-1.00006,20.863587,69.305377)" stroke-width=".79701" stroke-linecap="butt" stroke-miterlimit="10" stroke-linejoin="miter" fill="none" stroke="#409f9f" d="M27.35759 37.64514 29.3362 41.7262"/>
<path transform="matrix(1.00005,0,0,-1.00006,20.863587,69.305377)" stroke-width=".79701" stroke-linecap="butt" stroke-miterlimit="10" stroke-linejoin="miter" fill="none" stroke="#409f9f" d="M27.6296 43.20378 29.0642 47.50632"/>
<path transform="matrix(1.00005,0,0,-1.00006,20.863587,69.305377)" stroke-width=".79701" stroke-linecap="butt" stroke-miterlimit="10" stroke-linejoin="miter" fill="none" stroke="#409f9f" d="M27.80504 48.82265 28.88875 53.22621"/>
<path transform="matrix(1.00005,0,0,-1.00006,20.863587,69.305377)" stroke-width=".79701" stroke-linecap="butt" stroke-miterlimit="10" stroke-linejoin="miter" fill="none" stroke="#409f9f" d="M32.0401-29.458 35.99245-27.2358"/>
<path transform="matrix(1.00005,0,0,-1.00006,20.863587,69.305377)" stroke-width=".79701" stroke-linecap="butt" stroke-miterlimit="10" stroke-linejoin="miter" fill="none" stroke="#409f9f" d="M31.74875-22.67752H36.2838"/>
<path transform="matrix(1.00005,0,0,-1.00006,20.863587,69.305377)" stroke-width=".79701" stroke-linecap="butt" stroke-miterlimit="10" stroke-linejoin="miter" fill="none" stroke="#409f9f" d="M31.93802-16.09947 36.09454-17.9168"/>
<path transform="matrix(1.00005,0,0,-1.00006,20.863587,69.305377)" stroke-width=".79701" stroke-linecap="butt" stroke-miterlimit="10" stroke-linejoin="miter" fill="none" stroke="#409f9f" d="M32.20204-9.97816 35.8305-12.69934"/>
<path transform="matrix(1.00005,0,0,-1.00006,20.863587,69.305377)" stroke-width=".79701" stroke-linecap="butt" stroke-miterlimit="10" stroke-linejoin="miter" fill="none" stroke="#409f9f" d="M32.36191-4.1188 35.67064-7.21991"/>
<path transform="matrix(1.00005,0,0,-1.00006,20.863587,69.305377)" stroke-width=".79701" stroke-linecap="butt" stroke-miterlimit="10" stroke-linejoin="miter" fill="none" stroke="#409f9f" d="M32.41312 1.6035 35.61943-1.6035"/>
<path transform="matrix(1.00005,0,0,-1.00006,20.863587,69.305377)" stroke-width=".79701" stroke-linecap="butt" stroke-miterlimit="10" stroke-linejoin="miter" fill="none" stroke="#409f9f" d="M32.36191 7.21991 35.67064 4.1188"/>
<path transform="matrix(1.00005,0,0,-1.00006,20.863587,69.305377)" stroke-width=".79701" stroke-linecap="butt" stroke-miterlimit="10" stroke-linejoin="miter" fill="none" stroke="#409f9f" d="M32.20204 12.69934 35.8305 9.97816"/>
<path transform="matrix(1.00005,0,0,-1.00006,20.863587,69.305377)" stroke-width=".79701" stroke-linecap="butt" stroke-miterlimit="10" stroke-linejoin="miter" fill="none" stroke="#409f9f" d="M31.93802 17.9168 36.09454 16.09947"/>
<path transform="matrix(1.00005,0,0,-1.00006,20.863587,69.305377)" stroke-width=".79701" stroke-linecap="butt" stroke-miterlimit="10" stroke-linejoin="miter" fill="none" stroke="#409f9f" d="M31.74875 22.67752H36.2838"/>
<path transform="matrix(1.00005,0,0,-1.00006,20.863587,69.305377)" stroke-width=".79701" stroke-linecap="butt" stroke-miterlimit="10" stroke-linejoin="miter" fill="none" stroke="#409f9f" d="M32.0401 27.2358 35.99245 29.458"/>
<path transform="matrix(1.00005,0,0,-1.00006,20.863587,69.305377)" stroke-width=".79701" stroke-linecap="butt" stroke-miterlimit="10" stroke-linejoin="miter" fill="none" stroke="#409f9f" d="M32.60033 32.24634 35.43222 35.78621"/>
<path transform="matrix(1.00005,0,0,-1.00006,20.863587,69.305377)" stroke-width=".79701" stroke-linecap="butt" stroke-miterlimit="10" stroke-linejoin="miter" fill="none" stroke="#409f9f" d="M33.02698 37.64514 35.00557 41.7262"/>
<path transform="matrix(1.00005,0,0,-1.00006,20.863587,69.305377)" stroke-width=".79701" stroke-linecap="butt" stroke-miterlimit="10" stroke-linejoin="miter" fill="none" stroke="#409f9f" d="M33.29897 43.20378 34.73358 47.50632"/>
<path transform="matrix(1.00005,0,0,-1.00006,20.863587,69.305377)" stroke-width=".79701" stroke-linecap="butt" stroke-miterlimit="10" stroke-linejoin="miter" fill="none" stroke="#409f9f" d="M33.47441 48.82265 34.55814 53.22621"/>
<path transform="matrix(1.00005,0,0,-1.00006,20.863587,69.305377)" stroke-width=".79701" stroke-linecap="butt" stroke-miterlimit="10" stroke-linejoin="miter" fill="none" stroke="#409f9f" d="M37.7095-29.458 41.66183-27.2358"/>
<path transform="matrix(1.00005,0,0,-1.00006,20.863587,69.305377)" stroke-width=".79701" stroke-linecap="butt" stroke-miterlimit="10" stroke-linejoin="miter" fill="none" stroke="#409f9f" d="M37.41814-22.67752H41.9532"/>
<path transform="matrix(1.00005,0,0,-1.00006,20.863587,69.305377)" stroke-width=".79701" stroke-linecap="butt" stroke-miterlimit="10" stroke-linejoin="miter" fill="none" stroke="#409f9f" d="M37.6074-16.09947 41.76393-17.9168"/>
<path transform="matrix(1.00005,0,0,-1.00006,20.863587,69.305377)" stroke-width=".79701" stroke-linecap="butt" stroke-miterlimit="10" stroke-linejoin="miter" fill="none" stroke="#409f9f" d="M37.87143-9.97816 41.49991-12.69934"/>
<path transform="matrix(1.00005,0,0,-1.00006,20.863587,69.305377)" stroke-width=".79701" stroke-linecap="butt" stroke-miterlimit="10" stroke-linejoin="miter" fill="none" stroke="#409f9f" d="M38.0313-4.1188 41.34004-7.21991"/>
<path transform="matrix(1.00005,0,0,-1.00006,20.863587,69.305377)" stroke-width=".79701" stroke-linecap="butt" stroke-miterlimit="10" stroke-linejoin="miter" fill="none" stroke="#409f9f" d="M38.08252 1.6035 41.28882-1.6035"/>
<path transform="matrix(1.00005,0,0,-1.00006,20.863587,69.305377)" stroke-width=".79701" stroke-linecap="butt" stroke-miterlimit="10" stroke-linejoin="miter" fill="none" stroke="#409f9f" d="M38.0313 7.21991 41.34004 4.1188"/>
<path transform="matrix(1.00005,0,0,-1.00006,20.863587,69.305377)" stroke-width=".79701" stroke-linecap="butt" stroke-miterlimit="10" stroke-linejoin="miter" fill="none" stroke="#409f9f" d="M37.87143 12.69934 41.49991 9.97816"/>
<path transform="matrix(1.00005,0,0,-1.00006,20.863587,69.305377)" stroke-width=".79701" stroke-linecap="butt" stroke-miterlimit="10" stroke-linejoin="miter" fill="none" stroke="#409f9f" d="M37.6074 17.9168 41.76393 16.09947"/>
<path transform="matrix(1.00005,0,0,-1.00006,20.863587,69.305377)" stroke-width=".79701" stroke-linecap="butt" stroke-miterlimit="10" stroke-linejoin="miter" fill="none" stroke="#409f9f" d="M37.41814 22.67752H41.9532"/>
<path transform="matrix(1.00005,0,0,-1.00006,20.863587,69.305377)" stroke-width=".79701" stroke-linecap="butt" stroke-miterlimit="10" stroke-linejoin="miter" fill="none" stroke="#409f9f" d="M37.7095 27.2358 41.66183 29.458"/>
<path transform="matrix(1.00005,0,0,-1.00006,20.863587,69.305377)" stroke-width=".79701" stroke-linecap="butt" stroke-miterlimit="10" stroke-linejoin="miter" fill="none" stroke="#409f9f" d="M38.26973 32.24634 41.10161 35.78621"/>
<path transform="matrix(1.00005,0,0,-1.00006,20.863587,69.305377)" stroke-width=".79701" stroke-linecap="butt" stroke-miterlimit="10" stroke-linejoin="miter" fill="none" stroke="#409f9f" d="M38.69637 37.64514 40.67497 41.7262"/>
<path transform="matrix(1.00005,0,0,-1.00006,20.863587,69.305377)" stroke-width=".79701" stroke-linecap="butt" stroke-miterlimit="10" stroke-linejoin="miter" fill="none" stroke="#409f9f" d="M38.96837 43.20378 40.40297 47.50632"/>
<path transform="matrix(1.00005,0,0,-1.00006,20.863587,69.305377)" stroke-width=".79701" stroke-linecap="butt" stroke-miterlimit="10" stroke-linejoin="miter" fill="none" stroke="#409f9f" d="M39.14381 48.82265 40.22752 53.22621"/>
<path transform="matrix(1.00005,0,0,-1.00006,20.863587,69.305377)" stroke-width=".79701" stroke-linecap="butt" stroke-miterlimit="10" stroke-linejoin="miter" fill="none" stroke="#409f9f" d="M43.37888-29.458 47.33122-27.2358"/>
<path transform="matrix(1.00005,0,0,-1.00006,20.863587,69.305377)" stroke-width=".79701" stroke-linecap="butt" stroke-miterlimit="10" stroke-linejoin="miter" fill="none" stroke="#409f9f" d="M43.08752-22.67752H47.62257"/>
<path transform="matrix(1.00005,0,0,-1.00006,20.863587,69.305377)" stroke-width=".79701" stroke-linecap="butt" stroke-miterlimit="10" stroke-linejoin="miter" fill="none" stroke="#409f9f" d="M43.2768-16.09947 47.43332-17.9168"/>
<path transform="matrix(1.00005,0,0,-1.00006,20.863587,69.305377)" stroke-width=".79701" stroke-linecap="butt" stroke-miterlimit="10" stroke-linejoin="miter" fill="none" stroke="#409f9f" d="M43.54082-9.97816 47.16928-12.69934"/>
<path transform="matrix(1.00005,0,0,-1.00006,20.863587,69.305377)" stroke-width=".79701" stroke-linecap="butt" stroke-miterlimit="10" stroke-linejoin="miter" fill="none" stroke="#409f9f" d="M43.70068-4.1188 47.00941-7.21991"/>
<path transform="matrix(1.00005,0,0,-1.00006,20.863587,69.305377)" stroke-width=".79701" stroke-linecap="butt" stroke-miterlimit="10" stroke-linejoin="miter" fill="none" stroke="#409f9f" d="M43.75189 1.6035 46.9582-1.6035"/>
<path transform="matrix(1.00005,0,0,-1.00006,20.863587,69.305377)" stroke-width=".79701" stroke-linecap="butt" stroke-miterlimit="10" stroke-linejoin="miter" fill="none" stroke="#409f9f" d="M43.70068 7.21991 47.00941 4.1188"/>
<path transform="matrix(1.00005,0,0,-1.00006,20.863587,69.305377)" stroke-width=".79701" stroke-linecap="butt" stroke-miterlimit="10" stroke-linejoin="miter" fill="none" stroke="#409f9f" d="M43.54082 12.69934 47.16928 9.97816"/>
<path transform="matrix(1.00005,0,0,-1.00006,20.863587,69.305377)" stroke-width=".79701" stroke-linecap="butt" stroke-miterlimit="10" stroke-linejoin="miter" fill="none" stroke="#409f9f" d="M43.2768 17.9168 47.43332 16.09947"/>
<path transform="matrix(1.00005,0,0,-1.00006,20.863587,69.305377)" stroke-width=".79701" stroke-linecap="butt" stroke-miterlimit="10" stroke-linejoin="miter" fill="none" stroke="#409f9f" d="M43.08752 22.67752H47.62257"/>
<path transform="matrix(1.00005,0,0,-1.00006,20.863587,69.305377)" stroke-width=".79701" stroke-linecap="butt" stroke-miterlimit="10" stroke-linejoin="miter" fill="none" stroke="#409f9f" d="M43.37888 27.2358 47.33122 29.458"/>
<path transform="matrix(1.00005,0,0,-1.00006,20.863587,69.305377)" stroke-width=".79701" stroke-linecap="butt" stroke-miterlimit="10" stroke-linejoin="miter" fill="none" stroke="#409f9f" d="M43.9391 32.24634 46.771 35.78621"/>
<path transform="matrix(1.00005,0,0,-1.00006,20.863587,69.305377)" stroke-width=".79701" stroke-linecap="butt" stroke-miterlimit="10" stroke-linejoin="miter" fill="none" stroke="#409f9f" d="M44.36575 37.64514 46.34435 41.7262"/>
<path transform="matrix(1.00005,0,0,-1.00006,20.863587,69.305377)" stroke-width=".79701" stroke-linecap="butt" stroke-miterlimit="10" stroke-linejoin="miter" fill="none" stroke="#409f9f" d="M44.63774 43.20378 46.07236 47.50632"/>
<path transform="matrix(1.00005,0,0,-1.00006,20.863587,69.305377)" stroke-width=".79701" stroke-linecap="butt" stroke-miterlimit="10" stroke-linejoin="miter" fill="none" stroke="#409f9f" d="M44.81319 48.82265 45.89691 53.22621"/>
<path transform="matrix(1.00005,0,0,-1.00006,20.863587,69.305377)" stroke-width=".79701" stroke-linecap="butt" stroke-miterlimit="10" stroke-linejoin="miter" fill="none" stroke="#409f9f" d="M49.04826-29.458 53.0006-27.2358"/>
<path transform="matrix(1.00005,0,0,-1.00006,20.863587,69.305377)" stroke-width=".79701" stroke-linecap="butt" stroke-miterlimit="10" stroke-linejoin="miter" fill="none" stroke="#409f9f" d="M48.7569-22.67752H53.29196"/>
<path transform="matrix(1.00005,0,0,-1.00006,20.863587,69.305377)" stroke-width=".79701" stroke-linecap="butt" stroke-miterlimit="10" stroke-linejoin="miter" fill="none" stroke="#409f9f" d="M48.94617-16.09947 53.10269-17.9168"/>
<path transform="matrix(1.00005,0,0,-1.00006,20.863587,69.305377)" stroke-width=".79701" stroke-linecap="butt" stroke-miterlimit="10" stroke-linejoin="miter" fill="none" stroke="#409f9f" d="M49.21019-9.97816 52.83867-12.69934"/>
<path transform="matrix(1.00005,0,0,-1.00006,20.863587,69.305377)" stroke-width=".79701" stroke-linecap="butt" stroke-miterlimit="10" stroke-linejoin="miter" fill="none" stroke="#409f9f" d="M49.37006-4.1188 52.6788-7.21991"/>
<path transform="matrix(1.00005,0,0,-1.00006,20.863587,69.305377)" stroke-width=".79701" stroke-linecap="butt" stroke-miterlimit="10" stroke-linejoin="miter" fill="none" stroke="#409f9f" d="M49.42128 1.6035 52.62758-1.6035"/>
<path transform="matrix(1.00005,0,0,-1.00006,20.863587,69.305377)" stroke-width=".79701" stroke-linecap="butt" stroke-miterlimit="10" stroke-linejoin="miter" fill="none" stroke="#409f9f" d="M49.37006 7.21991 52.6788 4.1188"/>
<path transform="matrix(1.00005,0,0,-1.00006,20.863587,69.305377)" stroke-width=".79701" stroke-linecap="butt" stroke-miterlimit="10" stroke-linejoin="miter" fill="none" stroke="#409f9f" d="M49.21019 12.69934 52.83867 9.97816"/>
<path transform="matrix(1.00005,0,0,-1.00006,20.863587,69.305377)" stroke-width=".79701" stroke-linecap="butt" stroke-miterlimit="10" stroke-linejoin="miter" fill="none" stroke="#409f9f" d="M48.94617 17.9168 53.10269 16.09947"/>
<path transform="matrix(1.00005,0,0,-1.00006,20.863587,69.305377)" stroke-width=".79701" stroke-linecap="butt" stroke-miterlimit="10" stroke-linejoin="miter" fill="none" stroke="#409f9f" d="M48.7569 22.67752H53.29196"/>
<path transform="matrix(1.00005,0,0,-1.00006,20.863587,69.305377)" stroke-width=".79701" stroke-linecap="butt" stroke-miterlimit="10" stroke-linejoin="miter" fill="none" stroke="#409f9f" d="M49.04826 27.2358 53.0006 29.458"/>
<path transform="matrix(1.00005,0,0,-1.00006,20.863587,69.305377)" stroke-width=".79701" stroke-linecap="butt" stroke-miterlimit="10" stroke-linejoin="miter" fill="none" stroke="#409f9f" d="M49.60849 32.24634 52.44037 35.78621"/>
<path transform="matrix(1.00005,0,0,-1.00006,20.863587,69.305377)" stroke-width=".79701" stroke-linecap="butt" stroke-miterlimit="10" stroke-linejoin="miter" fill="none" stroke="#409f9f" d="M50.03513 37.64514 52.01373 41.7262"/>
<path transform="matrix(1.00005,0,0,-1.00006,20.863587,69.305377)" stroke-width=".79701" stroke-linecap="butt" stroke-miterlimit="10" stroke-linejoin="miter" fill="none" stroke="#409f9f" d="M50.30713 43.20378 51.74173 47.50632"/>
<path transform="matrix(1.00005,0,0,-1.00006,20.863587,69.305377)" stroke-width=".79701" stroke-linecap="butt" stroke-miterlimit="10" stroke-linejoin="miter" fill="none" stroke="#409f9f" d="M50.48257 48.82265 51.56628 53.22621"/>
<path transform="matrix(1.00005,0,0,-1.00006,20.863587,69.305377)" stroke-width=".79701" stroke-linecap="butt" stroke-miterlimit="10" stroke-linejoin="miter" fill="none" stroke="#409f9f" d="M54.71764-29.458 58.66998-27.2358"/>
<path transform="matrix(1.00005,0,0,-1.00006,20.863587,69.305377)" stroke-width=".79701" stroke-linecap="butt" stroke-miterlimit="10" stroke-linejoin="miter" fill="none" stroke="#409f9f" d="M54.42628-22.67752H58.96133"/>
<path transform="matrix(1.00005,0,0,-1.00006,20.863587,69.305377)" stroke-width=".79701" stroke-linecap="butt" stroke-miterlimit="10" stroke-linejoin="miter" fill="none" stroke="#409f9f" d="M54.61555-16.09947 58.77208-17.9168"/>
<path transform="matrix(1.00005,0,0,-1.00006,20.863587,69.305377)" stroke-width=".79701" stroke-linecap="butt" stroke-miterlimit="10" stroke-linejoin="miter" fill="none" stroke="#409f9f" d="M54.87958-9.97816 58.50804-12.69934"/>
<path transform="matrix(1.00005,0,0,-1.00006,20.863587,69.305377)" stroke-width=".79701" stroke-linecap="butt" stroke-miterlimit="10" stroke-linejoin="miter" fill="none" stroke="#409f9f" d="M55.03944-4.1188 58.34818-7.21991"/>
<path transform="matrix(1.00005,0,0,-1.00006,20.863587,69.305377)" stroke-width=".79701" stroke-linecap="butt" stroke-miterlimit="10" stroke-linejoin="miter" fill="none" stroke="#409f9f" d="M55.09065 1.6035 58.29697-1.6035"/>
<path transform="matrix(1.00005,0,0,-1.00006,20.863587,69.305377)" stroke-width=".79701" stroke-linecap="butt" stroke-miterlimit="10" stroke-linejoin="miter" fill="none" stroke="#409f9f" d="M55.03944 7.21991 58.34818 4.1188"/>
<path transform="matrix(1.00005,0,0,-1.00006,20.863587,69.305377)" stroke-width=".79701" stroke-linecap="butt" stroke-miterlimit="10" stroke-linejoin="miter" fill="none" stroke="#409f9f" d="M54.87958 12.69934 58.50804 9.97816"/>
<path transform="matrix(1.00005,0,0,-1.00006,20.863587,69.305377)" stroke-width=".79701" stroke-linecap="butt" stroke-miterlimit="10" stroke-linejoin="miter" fill="none" stroke="#409f9f" d="M54.61555 17.9168 58.77208 16.09947"/>
<path transform="matrix(1.00005,0,0,-1.00006,20.863587,69.305377)" stroke-width=".79701" stroke-linecap="butt" stroke-miterlimit="10" stroke-linejoin="miter" fill="none" stroke="#409f9f" d="M54.42628 22.67752H58.96133"/>
<path transform="matrix(1.00005,0,0,-1.00006,20.863587,69.305377)" stroke-width=".79701" stroke-linecap="butt" stroke-miterlimit="10" stroke-linejoin="miter" fill="none" stroke="#409f9f" d="M54.71764 27.2358 58.66998 29.458"/>
<path transform="matrix(1.00005,0,0,-1.00006,20.863587,69.305377)" stroke-width=".79701" stroke-linecap="butt" stroke-miterlimit="10" stroke-linejoin="miter" fill="none" stroke="#409f9f" d="M55.27786 32.24634 58.10976 35.78621"/>
<path transform="matrix(1.00005,0,0,-1.00006,20.863587,69.305377)" stroke-width=".79701" stroke-linecap="butt" stroke-miterlimit="10" stroke-linejoin="miter" fill="none" stroke="#409f9f" d="M55.70451 37.64514 57.6831 41.7262"/>
<path transform="matrix(1.00005,0,0,-1.00006,20.863587,69.305377)" stroke-width=".79701" stroke-linecap="butt" stroke-miterlimit="10" stroke-linejoin="miter" fill="none" stroke="#409f9f" d="M55.9765 43.20378 57.41112 47.50632"/>
<path transform="matrix(1.00005,0,0,-1.00006,20.863587,69.305377)" stroke-width=".79701" stroke-linecap="butt" stroke-miterlimit="10" stroke-linejoin="miter" fill="none" stroke="#409f9f" d="M56.15195 48.82265 57.23567 53.22621"/>
<path transform="matrix(1.00005,0,0,-1.00006,20.863587,69.305377)" stroke-width=".79701" stroke-linecap="butt" stroke-miterlimit="10" stroke-linejoin="miter" fill="none" stroke="#409f9f" d="M60.38704-29.458 64.33937-27.2358"/>
<path transform="matrix(1.00005,0,0,-1.00006,20.863587,69.305377)" stroke-width=".79701" stroke-linecap="butt" stroke-miterlimit="10" stroke-linejoin="miter" fill="none" stroke="#409f9f" d="M60.09567-22.67752H64.63074"/>
<path transform="matrix(1.00005,0,0,-1.00006,20.863587,69.305377)" stroke-width=".79701" stroke-linecap="butt" stroke-miterlimit="10" stroke-linejoin="miter" fill="none" stroke="#409f9f" d="M60.28494-16.09947 64.44147-17.9168"/>
<path transform="matrix(1.00005,0,0,-1.00006,20.863587,69.305377)" stroke-width=".79701" stroke-linecap="butt" stroke-miterlimit="10" stroke-linejoin="miter" fill="none" stroke="#409f9f" d="M60.54897-9.97816 64.17744-12.69934"/>
<path transform="matrix(1.00005,0,0,-1.00006,20.863587,69.305377)" stroke-width=".79701" stroke-linecap="butt" stroke-miterlimit="10" stroke-linejoin="miter" fill="none" stroke="#409f9f" d="M60.70883-4.1188 64.01758-7.21991"/>
<path transform="matrix(1.00005,0,0,-1.00006,20.863587,69.305377)" stroke-width=".79701" stroke-linecap="butt" stroke-miterlimit="10" stroke-linejoin="miter" fill="none" stroke="#409f9f" d="M60.76006 1.6035 63.96635-1.6035"/>
<path transform="matrix(1.00005,0,0,-1.00006,20.863587,69.305377)" stroke-width=".79701" stroke-linecap="butt" stroke-miterlimit="10" stroke-linejoin="miter" fill="none" stroke="#409f9f" d="M60.70883 7.21991 64.01758 4.1188"/>
<path transform="matrix(1.00005,0,0,-1.00006,20.863587,69.305377)" stroke-width=".79701" stroke-linecap="butt" stroke-miterlimit="10" stroke-linejoin="miter" fill="none" stroke="#409f9f" d="M60.54897 12.69934 64.17744 9.97816"/>
<path transform="matrix(1.00005,0,0,-1.00006,20.863587,69.305377)" stroke-width=".79701" stroke-linecap="butt" stroke-miterlimit="10" stroke-linejoin="miter" fill="none" stroke="#409f9f" d="M60.28494 17.9168 64.44147 16.09947"/>
<path transform="matrix(1.00005,0,0,-1.00006,20.863587,69.305377)" stroke-width=".79701" stroke-linecap="butt" stroke-miterlimit="10" stroke-linejoin="miter" fill="none" stroke="#409f9f" d="M60.09567 22.67752H64.63074"/>
<path transform="matrix(1.00005,0,0,-1.00006,20.863587,69.305377)" stroke-width=".79701" stroke-linecap="butt" stroke-miterlimit="10" stroke-linejoin="miter" fill="none" stroke="#409f9f" d="M60.38704 27.2358 64.33937 29.458"/>
<path transform="matrix(1.00005,0,0,-1.00006,20.863587,69.305377)" stroke-width=".79701" stroke-linecap="butt" stroke-miterlimit="10" stroke-linejoin="miter" fill="none" stroke="#409f9f" d="M60.94727 32.24634 63.77914 35.78621"/>
<path transform="matrix(1.00005,0,0,-1.00006,20.863587,69.305377)" stroke-width=".79701" stroke-linecap="butt" stroke-miterlimit="10" stroke-linejoin="miter" fill="none" stroke="#409f9f" d="M61.3739 37.64514 63.35251 41.7262"/>
<path transform="matrix(1.00005,0,0,-1.00006,20.863587,69.305377)" stroke-width=".79701" stroke-linecap="butt" stroke-miterlimit="10" stroke-linejoin="miter" fill="none" stroke="#409f9f" d="M61.6459 43.20378 63.0805 47.50632"/>
<path transform="matrix(1.00005,0,0,-1.00006,20.863587,69.305377)" stroke-width=".79701" stroke-linecap="butt" stroke-miterlimit="10" stroke-linejoin="miter" fill="none" stroke="#409f9f" d="M61.82135 48.82265 62.90506 53.22621"/>
<path transform="matrix(1.00005,0,0,-1.00006,20.863587,69.305377)" d="M1.59404 0C1.59404 .88037 .88037 1.59404 0 1.59404-.88037 1.59404-1.59404 .88037-1.59404 0-1.59404-.88037-.88037-1.59404 0-1.59404 .88037-1.59404 1.59404-.88037 1.59404 0ZM0 0" fill="#ffffff"/>
<path transform="matrix(1.00005,0,0,-1.00006,20.863587,69.305377)" stroke-width=".3985" stroke-linecap="butt" stroke-miterlimit="10" stroke-linejoin="miter" fill="none" stroke="#000000" d="M1.59404 0C1.59404 .88037 .88037 1.59404 0 1.59404-.88037 1.59404-1.59404 .88037-1.59404 0-1.59404-.88037-.88037-1.59404 0-1.59404 .88037-1.59404 1.59404-.88037 1.59404 0ZM0 0"/>
<path transform="matrix(1.00005,0,0,-1.00006,20.863587,69.305377)" stroke-width=".79701" stroke-linecap="butt" stroke-miterlimit="10" stroke-linejoin="miter" fill="none" stroke="#ec008c" d="M-11.33876 10.4792-10.53734 9.83766-9.73593 9.17743-8.93451 8.49713-8.13312 7.79883-7.3317 7.08429-6.53029 6.3521-5.72887 5.60811-4.92747 4.84857-4.12607 4.07968-3.32465 3.29938-2.52325 2.50801-1.72183 1.71457-.92043 .91626-.119 .11555 .68234-.68028 1.48376-1.48099 2.28517-2.27687 3.0866-3.06651 3.88799-3.84924 4.68939-4.62225 5.49081-5.38528 6.2922-6.13477 7.09363-6.87044 7.89503-7.59053 8.69646-8.2933 9.49785-8.97812 10.29927-9.64491 11.10068-10.29095 11.90208-10.91797 12.70349-11.52249 13.5049-12.10591 14.30632-12.66785 15.10771-13.20871 15.90913-13.72775 16.71054-14.2243 17.51196-14.69907 18.31335-15.1534 19.11476-15.58733 19.91618-15.99979 20.71759-16.3922 21.519-16.76488 22.3204-17.11887 23.12183-17.45451 23.92322-17.77252 24.72464-18.07321 25.52605-18.35764 26.32747-18.62582 27.12886-18.87914 27.93027-19.11823 28.73169-19.34315 29.53308-19.55492 30.3345-19.75423 31.13591-19.94179 31.93733-20.11792 32.73872-20.28333 33.54015-20.43869 34.34155-20.58437 35.14296-20.72105 35.94437-20.84943 36.74577-20.96915 37.5472-21.08195 38.34859-21.18716 39.15001-21.28577 39.95142-21.37782 40.75284-21.46432 41.55423-21.54495 42.35564-21.62038 43.15706-21.69098 43.95847-21.75706 44.75987-21.81866 45.56128-21.87611 46.3627-21.9301 47.1641-21.98026 47.96552-22.02698 48.76692-22.07092 49.56833-22.11174 50.36974-22.14981 51.17114-22.18546 51.97256-22.21867 52.77397-22.24982 53.57538-22.27853 54.37679-22.30554 55.1782-22.33078 55.9796-22.35432 56.781-22.37611 57.58243-22.39653 58.38383-22.41592 59.18524-22.43355 59.98665-22.45016 60.78807-22.4654 61.58948-22.47993 62.39088-22.49344 63.19229-22.50589 63.9937-22.51765 64.7951-22.52837 65.59651-22.5384 66.39793-22.5481 67.19934-22.55675 68.00075-22.56505"/>
<path transform="matrix(1.00005,0,0,-1.00006,20.863587,69.305377)" d="M24.27156 0C24.27156 .88037 23.55789 1.59404 22.67752 1.59404 21.79713 1.59404 21.08347 .88037 21.08347 0 21.08347-.88037 21.79713-1.59404 22.67752-1.59404 23.55789-1.59404 24.27156-.88037 24.27156 0ZM22.67752 0" fill="#ffffff"/>
<path transform="matrix(1.00005,0,0,-1.00006,20.863587,69.305377)" stroke-width=".3985" stroke-linecap="butt" stroke-miterlimit="10" stroke-linejoin="miter" fill="none" stroke="#000000" d="M24.27156 0C24.27156 .88037 23.55789 1.59404 22.67752 1.59404 21.79713 1.59404 21.08347 .88037 21.08347 0 21.08347-.88037 21.79713-1.59404 22.67752-1.59404 23.55789-1.59404 24.27156-.88037 24.27156 0ZM22.67752 0"/>
<path transform="matrix(1.00005,0,0,-1.00006,20.863587,69.305377)" stroke-width=".79701" stroke-linecap="butt" stroke-miterlimit="10" stroke-linejoin="miter" fill="none" stroke="#ec008c" d="M-11.33876 20.52657-10.53734 20.37674-9.73593 20.21722-8.93451 20.04733-8.13312 19.86703-7.3317 19.67397-6.53029 19.4698-5.72887 19.25354-4.92747 19.02203-4.12607 18.77774-3.32465 18.51855-2.52325 18.24277-1.72183 17.9521-.92043 17.64447-.119 17.31956 .68234 16.97768 1.48376 16.61607 2.28517 16.23544 3.0866 15.83472 3.88799 15.41364 4.68939 14.97243 5.49081 14.50943 6.2922 14.02568 7.09363 13.51978 7.89503 12.99243 8.69646 12.44328 9.49785 11.87233 10.29927 11.27992 11.10068 10.66606 11.90208 10.03178 12.70349 9.37709 13.5049 8.70302 14.30632 8.01062 15.10771 7.3009 15.90913 6.57458 16.71054 5.83304 17.51196 5.078 18.31335 4.31119 19.11476 3.53366 19.91618 2.74783 20.71759 1.95506 21.519 1.15779 22.3204 .35709 23.12183-.44394 23.92322-1.24396 24.72464-2.04123 25.52605-2.8333 26.32747-3.61877 27.12886-4.39493 27.93027-5.1607 28.73169-5.914 29.53308-6.65382 30.3345-7.3784 31.13591-8.08675 31.93733-8.77707 32.73872-9.44907 33.54015-10.10135 34.34155-10.73354 35.14296-11.34497 35.94437-11.9353 36.74577-12.50383 37.5472-13.0509 38.34859-13.57585 39.15001-14.07932 39.95142-14.56099 40.75284-15.02122 41.55423-15.46068 42.35564-15.87936 43.15706-16.27766 43.95847-16.65656 44.75987-17.01608 45.56128-17.35693 46.3627-17.68011 47.1641-17.98567 47.96552-18.27495 48.76692-18.54797 49.56833-18.80577 50.36974-19.04868 51.17114-19.27774 51.97256-19.49367 52.77397-19.69646 53.57538-19.88747 54.37679-20.06705 55.1782-20.23557 55.9796-20.3937 56.781-20.54214 57.58243-20.6816 58.38383-20.81206 59.18524-20.93454 59.98665-21.04909 60.78807-21.15671 61.58948-21.25705 62.39088-21.35117 63.19229-21.43942 63.9937-21.52142 64.7951-21.59859 65.59651-21.67056 66.39793-21.73804 67.19934-21.80066 68.00075-21.8595"/>
<path transform="matrix(1.00005,0,0,-1.00006,20.863587,69.305377)" d="M46.9491 0C46.9491 .88037 46.23543 1.59404 45.35506 1.59404 44.47467 1.59404 43.761 .88037 43.761 0 43.761-.88037 44.47467-1.59404 45.35506-1.59404 46.23543-1.59404 46.9491-.88037 46.9491 0ZM45.35506 0" fill="#ffffff"/>
<path transform="matrix(1.00005,0,0,-1.00006,20.863587,69.305377)" stroke-width=".3985" stroke-linecap="butt" stroke-miterlimit="10" stroke-linejoin="miter" fill="none" stroke="#000000" d="M46.9491 0C46.9491 .88037 46.23543 1.59404 45.35506 1.59404 44.47467 1.59404 43.761 .88037 43.761 0 43.761-.88037 44.47467-1.59404 45.35506-1.59404 46.23543-1.59404 46.9491-.88037 46.9491 0ZM45.35506 0"/>
<path transform="matrix(1.00005,0,0,-1.00006,20.863587,69.305377)" stroke-width=".79701" stroke-linecap="butt" stroke-miterlimit="10" stroke-linejoin="miter" fill="none" stroke="#ec008c" d="M-11.33876 22.37404-10.53734 22.35188-9.73593 22.32802-8.93451 22.30275-8.13312 22.27577-7.3317 22.24635-6.53029 22.21523-5.72887 22.18166-4.92747 22.14601-4.12607 22.10724-3.32465 22.06607-2.52325 22.02179-1.72183 21.97473-.92043 21.92421-.119 21.86987 .68234 21.81207 1.48376 21.75015 2.28517 21.68372 3.0866 21.61243 3.88799 21.53665 4.68939 21.45499 5.49081 21.36812 6.2922 21.27539 7.09363 21.17607 7.89503 21.06984 8.69646 20.9567 9.49785 20.83594 10.29927 20.70686 11.10068 20.56914 11.90208 20.42242 12.70349 20.266 13.5049 20.09958 14.30632 19.92241 15.10771 19.73349 15.90913 19.53278 16.71054 19.31963 17.51196 19.09297 18.31335 18.85281 19.11476 18.59781 19.91618 18.32755 20.71759 18.04173 21.519 17.73929 22.3204 17.41922 23.12183 17.08183 23.92322 16.72575 24.72464 16.35068 25.52605 15.95586 26.32747 15.5413 27.12886 15.10565 27.93027 14.64923 28.73169 14.17172 29.53308 13.67238 30.3345 13.15161 31.13591 12.60867 31.93733 12.04396 32.73872 11.45811 33.54015 10.8505 34.34155 10.22244 35.14296 9.57365 35.94437 8.90544 36.74577 8.21823 37.5472 7.51337 38.34859 6.79189 39.15001 6.05486 39.95142 5.30362 40.75284 4.54027 41.55423 3.76584 42.35564 2.98207 43.15706 2.19106 43.95847 1.39484 44.75987 .59515 45.56128-.2062 46.3627-1.00693 47.1641-1.80522 47.96552-2.59903 48.76692-3.38625 49.56833-4.16551 50.36974-4.9344 51.17114-5.69185 51.97256-6.43582 52.77397-7.16492 53.57538-7.87808 54.37679-8.57396 55.1782-9.25148 55.9796-9.90997 56.781-10.54805 57.58243-11.16574 58.38383-11.76228 59.18524-12.3374 59.98665-12.8907 60.78807-13.4222 61.58948-13.9319 62.39088-14.42017 63.19229-14.88696 63.9937-15.33229 64.7951-15.75722 65.59651-16.16173 66.39793-16.54617 67.19934-16.91124 68.00075-17.25761"/>
<path transform="matrix(1.00005,0,0,-1.00006,20.863587,69.305377)" d="M69.62663 0C69.62663 .88037 68.91296 1.59404 68.0326 1.59404 67.1522 1.59404 66.43854 .88037 66.43854 0 66.43854-.88037 67.1522-1.59404 68.0326-1.59404 68.91296-1.59404 69.62663-.88037 69.62663 0ZM68.0326 0" fill="#ffffff"/>
<path transform="matrix(1.00005,0,0,-1.00006,20.863587,69.305377)" stroke-width=".3985" stroke-linecap="butt" stroke-miterlimit="10" stroke-linejoin="miter" fill="none" stroke="#000000" d="M69.62663 0C69.62663 .88037 68.91296 1.59404 68.0326 1.59404 67.1522 1.59404 66.43854 .88037 66.43854 0 66.43854-.88037 67.1522-1.59404 68.0326-1.59404 68.91296-1.59404 69.62663-.88037 69.62663 0ZM68.0326 0"/>
<path transform="matrix(1.00005,0,0,-1.00006,20.863587,69.305377)" stroke-width=".79701" stroke-linecap="butt" stroke-miterlimit="10" stroke-linejoin="miter" fill="none" stroke="#ec008c" d="M-11.33876 22.63635-10.53734 22.63322-9.73593 22.62976-8.93451 22.6263-8.13312 22.62285-7.3317 22.6187-6.53029 22.61453-5.72887 22.6097-4.92747 22.60484-4.12607 22.59967-3.32465 22.59378-2.52325 22.58755-1.72183 22.58096-.92043 22.57405-.119 22.56644 .68234 22.55849 1.48376 22.54982 2.28517 22.54048 3.0866 22.53046 3.88799 22.51971 4.68939 22.5083 5.49081 22.49585 6.2922 22.4827 7.09363 22.46817 7.89503 22.45296 8.69646 22.43666 9.49785 22.41939 10.29927 22.40034 11.10068 22.38028 11.90208 22.35847 12.70349 22.33528 13.5049 22.31071 14.30632 22.28407 15.10771 22.25536 15.90913 22.2249 16.71054 22.19202 17.51196 22.15674 18.31335 22.11902 19.11476 22.07887 19.91618 22.03563 20.71759 21.98926 21.519 21.93977 22.3204 21.88649 23.12183 21.82973 23.92322 21.76884 24.72464 21.70378 25.52605 21.63422 26.32747 21.55948 27.12886 21.4799 27.93027 21.39478 28.73169 21.30377 29.53308 21.20618 30.3345 21.10237 31.13591 20.99129 31.93733 20.87262 32.73872 20.74597 33.54015 20.61102 34.34155 20.46706 35.14296 20.31343 35.94437 20.1501 36.74577 19.97604 37.5472 19.79057 38.34859 19.59369 39.15001 19.38434 39.95142 19.16185 40.75284 18.92548 41.55423 18.67497 42.35564 18.40956 43.15706 18.12823 43.95847 17.83066 44.75987 17.5161 45.56128 17.18391 46.3627 16.83339 47.1641 16.46416 47.96552 16.07523 48.76692 15.66656 49.56833 15.23715 50.36974 14.7873 51.17114 14.31564 51.97256 13.8229 52.77397 13.30835 53.57538 12.772 54.37679 12.21385 55.1782 11.63426 55.9796 11.03319 56.781 10.41104 57.58243 9.76845 58.38383 9.10579 59.18524 8.42412 59.98665 7.72444 60.78807 7.0078 61.58948 6.27527 62.39088 5.5282 63.19229 4.7683 63.9937 3.99666 64.7951 3.21565 65.59651 2.4267 66.39793 1.63187 67.19934 .83322 68.00075 .03181"/>
<path transform="matrix(1.00005,0,0,-1.00006,20.863587,69.305377)" d="M1.59404 34.01628C1.59404 34.89665 .88037 35.61032 0 35.61032-.88037 35.61032-1.59404 34.89665-1.59404 34.01628-1.59404 33.1359-.88037 32.42223 0 32.42223 .88037 32.42223 1.59404 33.1359 1.59404 34.01628ZM0 34.01628" fill="#ffffff"/>
<path transform="matrix(1.00005,0,0,-1.00006,20.863587,69.305377)" stroke-width=".3985" stroke-linecap="butt" stroke-miterlimit="10" stroke-linejoin="miter" fill="none" stroke="#000000" d="M1.59404 34.01628C1.59404 34.89665 .88037 35.61032 0 35.61032-.88037 35.61032-1.59404 34.89665-1.59404 34.01628-1.59404 33.1359-.88037 32.42223 0 32.42223 .88037 32.42223 1.59404 33.1359 1.59404 34.01628ZM0 34.01628"/>
<path transform="matrix(1.00005,0,0,-1.00006,20.863587,69.305377)" stroke-width=".79701" stroke-linecap="butt" stroke-miterlimit="10" stroke-linejoin="miter" fill="none" stroke="#ec008c" d="M-11.33876 26.27934-11.1363 26.351-10.93388 26.42159-10.73145 26.49562-10.52904 26.57002-10.3266 26.64616-10.12418 26.72333-9.92175 26.8029-9.71931 26.88387-9.51689 26.96796-9.31445 27.0524-9.11205 27.13925-8.9096 27.22679-8.70717 27.31676-8.50475 27.4095-8.3023 27.50363-8.09988 27.60051-7.89745 27.69913-7.69504 27.8005-7.4926 27.9026-7.29018 28.0078-7.08775 28.1154-6.88531 28.22475-6.68289 28.33755-6.48045 28.45209-6.27803 28.57043-6.0756 28.69016-5.87317 28.8137-5.67075 28.93896-5.4683 29.06836-5.26588 29.19916-5.06345 29.33446-4.86104 29.47183-4.65862 29.61304-4.45618 29.75801-4.25375 29.90611-4.05132 30.05663-3.84889 30.21165-3.64645 30.37119-3.44403 30.53346-3.24161 30.69992-3.03917 30.8712-2.83675 31.04456-2.63431 31.22484-2.43188 31.40686-2.22946 31.59717-2.02704 31.78992-1.82462 31.98682-1.62218 32.18993-1.41975 32.39857-1.21732 32.61172-1.0149 32.83078-.81247 33.05466-.61003 33.28546-.40761 33.52422-.20517 33.76575-.00275 34.0149 .19965 34.26889 .40207 34.53188 .60448 34.80211 .80693 35.08069 1.00935 35.36685 1.21179 35.66132 1.41422 35.96443 1.61665 36.27518 1.81908 36.59491 2.02148 36.92363 2.22392 37.26378 2.42635 37.6126 2.62878 37.97107 2.8312 38.34306 3.03365 38.72472 3.23607 39.11853 3.43849 39.52475 3.64093 39.9438 3.84335 40.37634 4.04579 40.82204 4.24821 41.2833 4.45064 41.75977 4.65308 42.25218 4.85548 42.75981 5.05792 43.28717 5.26035 43.83078 5.46278 44.39273 5.6652 44.97717 5.86763 45.5824 6.07007 46.20802 6.27249 46.85855 6.47493 47.53262 6.67735 48.2323 6.87979 48.95967 7.08221 49.71506 7.28464 50.50157 7.48708 51.31995 7.68948 52.17049 7.89192 53.05736 8.09435 53.98161 8.29678 54.94772 8.4992 55.95572 8.70163 57.0087"/>
<path transform="matrix(1.00005,0,0,-1.00006,20.863587,69.305377)" d="M24.27156 34.01628C24.27156 34.89665 23.55789 35.61032 22.67752 35.61032 21.79713 35.61032 21.08347 34.89665 21.08347 34.01628 21.08347 33.1359 21.79713 32.42223 22.67752 32.42223 23.55789 32.42223 24.27156 33.1359 24.27156 34.01628ZM22.67752 34.01628" fill="#ffffff"/>
<path transform="matrix(1.00005,0,0,-1.00006,20.863587,69.305377)" stroke-width=".3985" stroke-linecap="butt" stroke-miterlimit="10" stroke-linejoin="miter" fill="none" stroke="#000000" d="M24.27156 34.01628C24.27156 34.89665 23.55789 35.61032 22.67752 35.61032 21.79713 35.61032 21.08347 34.89665 21.08347 34.01628 21.08347 33.1359 21.79713 32.42223 22.67752 32.42223 23.55789 32.42223 24.27156 33.1359 24.27156 34.01628ZM22.67752 34.01628"/>
<path transform="matrix(1.00005,0,0,-1.00006,20.863587,69.305377)" stroke-width=".79701" stroke-linecap="butt" stroke-miterlimit="10" stroke-linejoin="miter" fill="none" stroke="#ec008c" d="M-11.33876 23.13359-10.90724 23.15158-10.47575 23.17026-10.04425 23.18965-9.61275 23.20972-9.18124 23.23047-8.74974 23.25229-8.31824 23.27477-7.88673 23.2983-7.45525 23.32286-7.02373 23.34811-6.59224 23.37477-6.16074 23.40211-5.72923 23.43082-5.29773 23.46025-4.86623 23.49138-4.43472 23.52354-4.00322 23.55678-3.57173 23.59174-3.14021 23.62807-2.70872 23.66577-2.27722 23.70453-1.8457 23.74538-1.41422 23.78793-.98271 23.83221-.55121 23.87823-.1197 23.926 .31175 23.9755 .74324 24.02739 1.17476 24.08136 1.60626 24.13742 2.03775 24.1959 2.46927 24.25716 2.90076 24.32047 3.33226 24.38657 3.76376 24.45576 4.19527 24.52739 4.62675 24.60214 5.05827 24.68001 5.48976 24.76132 5.92126 24.84608 6.35277 24.93433 6.78427 25.02638 7.21577 25.12222 7.64728 25.22256 8.07878 25.32674 8.51027 25.43608 8.94179 25.54958 9.37328 25.66861 9.80478 25.7925 10.2363 25.9219 10.66779 26.0572 11.09929 26.19838 11.53078 26.34613 11.9623 26.50046 12.39378 26.66173 12.82529 26.83023 13.2568 27.00671 13.6883 27.1915 14.1198 27.38458 14.5513 27.587 14.9828 27.79878 15.41429 28.02094 15.84581 28.25346 16.27731 28.49777 16.7088 28.75383 17.14032 29.02235 17.57181 29.30437 18.00331 29.60092 18.43481 29.912 18.86632 30.23969 19.29782 30.58398 19.72932 30.94662 20.16083 31.32866 20.59232 31.73108 21.02383 32.15567 21.45532 32.60378 21.88683 33.07715 22.31833 33.57751 22.74983 34.10693 23.18134 34.66751 23.61282 35.2613 24.04434 35.89177 24.47583 36.56099 24.90733 37.27313 25.33885 38.03094 25.77034 38.83856 26.20184 39.70053 26.63335 40.62238 27.06485 41.6089 27.49634 42.66708 27.92786 43.80344 28.35936 45.02701 28.79085 46.34608 29.22237 47.77208 29.65385 49.31711 30.08536 50.99571 30.51686 52.82483 30.94836 54.82213 31.37987 57.0132"/>
<path transform="matrix(1.00005,0,0,-1.00006,20.863587,69.305377)" d="M46.9491 34.01628C46.9491 34.89665 46.23543 35.61032 45.35506 35.61032 44.47467 35.61032 43.761 34.89665 43.761 34.01628 43.761 33.1359 44.47467 32.42223 45.35506 32.42223 46.23543 32.42223 46.9491 33.1359 46.9491 34.01628ZM45.35506 34.01628" fill="#ffffff"/>
<path transform="matrix(1.00005,0,0,-1.00006,20.863587,69.305377)" stroke-width=".3985" stroke-linecap="butt" stroke-miterlimit="10" stroke-linejoin="miter" fill="none" stroke="#000000" d="M46.9491 34.01628C46.9491 34.89665 46.23543 35.61032 45.35506 35.61032 44.47467 35.61032 43.761 34.89665 43.761 34.01628 43.761 33.1359 44.47467 32.42223 45.35506 32.42223 46.23543 32.42223 46.9491 33.1359 46.9491 34.01628ZM45.35506 34.01628"/>
<path transform="matrix(1.00005,0,0,-1.00006,20.863587,69.305377)" stroke-width=".79701" stroke-linecap="butt" stroke-miterlimit="10" stroke-linejoin="miter" fill="none" stroke="#ec008c" d="M-11.33876 22.73877-10.67818 22.74222-10.0176 22.74638-9.35703 22.75053-8.69646 22.75468-8.03587 22.75952-7.37529 22.76436-6.71472 22.76956-6.05415 22.7751-5.39357 22.78098-4.73299 22.78722-4.07243 22.79378-3.41187 22.8007-2.75128 22.8083-2.0907 22.81628-1.43013 22.82457-.76955 22.83322-.10898 22.84256 .55154 22.85262 1.21213 22.86298 1.87271 22.8744 2.53328 22.88617 3.19385 22.89862 3.85443 22.91211 4.515 22.92632 5.17557 22.94118 5.83614 22.9571 6.49672 22.97408 7.1573 22.99205 7.81787 23.0111 8.47845 23.03116 9.13902 23.05261 9.79959 23.0751 10.46017 23.09932 11.12074 23.12494 11.78131 23.15192 12.44188 23.18065 13.10248 23.21144 13.76305 23.24362 14.42361 23.27821 15.08418 23.31454 15.74477 23.35365 16.40535 23.39484 17.06592 23.43843 17.7265 23.48482 18.38707 23.53429 19.04764 23.58655 19.70822 23.64224 20.36879 23.70142 21.02936 23.7644 21.68993 23.83118 22.35052 23.90247 23.0111 23.9779 23.67166 24.05852 24.33224 24.14398 24.99281 24.235 25.6534 24.33188 26.31396 24.43466 26.97453 24.54471 27.6351 24.66167 28.29568 24.78589 28.95627 24.91876 29.61684 25.06029 30.2774 25.21115 30.93797 25.37239 31.59857 25.54404 32.25914 25.72777 32.91971 25.92363 33.58028 26.13333 34.24086 26.35756 34.90143 26.59735 35.562 26.85413 36.22258 27.12921 36.88315 27.42403 37.54373 27.74065 38.20432 28.0808 38.86488 28.44586 39.52545 28.83894 40.18602 29.2625 40.8466 29.71857 41.50717 30.21132 42.16774 30.74352 42.82832 31.31966 43.4889 31.94391 44.14948 32.62177 44.81004 33.35883 45.47063 34.1616 46.1312 35.03845 46.79178 35.99765 47.45235 37.05028 48.11292 38.20741 48.77348 39.48427 49.43407 40.89746 50.09465 42.4674 50.75522 44.21834 51.41579 46.18033 52.07637 48.3894 52.73695 50.89156 53.39752 53.7432 54.05809 57.0177"/>
</svg>
