<svg xmlns="http://www.w3.org/2000/svg" xmlns:xlink="http://www.w3.org/1999/xlink" xmlns:inkscape="http://www.inkscape.org/namespaces/inkscape" version="1.1" width="137" height="41" viewBox="0 0 137 41">
<defs>
<path id="font_1_1" d="M.36698915 .3996582H.45298768C.47299195 .3996582 .48298646 .3996582 .48298646 .41966249 .48298646 .43066407 .47299195 .43066407 .45599366 .43066407H.37298585L.3939972 .5449524C.397995 .5660095 .4119873 .6370239 .41799928 .6490326 .4269867 .66804507 .44400025 .68307498 .46499635 .68307498 .46899415 .68307498 .49499513 .68307498 .5139923 .66503909 .46998597 .661026 .45999146 .6260376 .45999146 .6110382 .45999146 .58802798 .47799684 .57603457 .49699403 .57603457 .522995 .57603457 .5519867 .5980377 .5519867 .6360321 .5519867 .6820679 .5059967 .7050781 .46499635 .7050781 .43099977 .7050781 .36799623 .68707278 .33799745 .58802798 .33198548 .56700137 .32899476 .5569763 .30499269 .43066407H.23599243C.21699524 .43066407 .20599365 .43066407 .20599365 .4116516 .20599365 .3996582 .21499634 .3996582 .23399353 .3996582H.2999878L.22499085 .0048828127C.20698548-.09207153 .18998719-.18309021 .13798523-.18309021 .13398743-.18309021 .10899353-.18309021 .08999634-.16506958 .13598633-.1620636 .14498902-.12606812 .14498902-.111068729 .14498902-.08807373 .1269989-.07606506 .10798645-.07606506 .08198547-.07606506 .052993776-.09806824 .052993776-.13606262 .052993776-.18109131 .09700012-.20507813 .13798523-.20507813 .19299317-.20507813 .23298645-.14607239 .25099183-.108062747 .2829895-.04508972 .30599977 .07583618 .30699159 .082839969L.36698915 .3996582Z"/>
<path id="font_2_1" d="M.33099366-.2400055C.33099366-.23701477 .33099366-.23500061 .31399537-.21800232 .18899536-.0920105 .15699768 .09700012 .15699768 .25 .15699768 .42399598 .19499207 .59799197 .31799317 .72299197 .33099366 .73498538 .33099366 .7369995 .33099366 .73999026 .33099366 .746994 .32699586 .75 .32099916 .75 .31098939 .75 .22099304 .6819916 .1619873 .5549927 .11099243 .44499208 .09899902 .33399964 .09899902 .25 .09899902 .17199707 .10998535 .050994874 .16499329-.06201172 .22499085-.18501282 .31098939-.25 .32099916-.25 .32699586-.25 .33099366-.24700928 .33099366-.2400055Z"/>
<path id="font_1_2" d="M.33399964 .30233766C.33999635 .32835389 .36299134 .42037965 .43299867 .42037965 .43798829 .42037965 .46199037 .42037965 .48298646 .40734864 .45498658 .402359 .43499757 .37734986 .43499757 .35334779 .43499757 .33735658 .44599916 .31835938 .47299195 .31835938 .49499513 .31835938 .5269928 .3363495 .5269928 .37635804 .5269928 .42837525 .46798707 .4423828 .43399049 .4423828 .37599183 .4423828 .34098817 .38935853 .32899476 .36634828 .3039856 .43237306 .25 .4423828 .22099304 .4423828 .116989139 .4423828 .05999756 .3133545 .05999756 .28834535 .05999756 .27833558 .069992069 .27833558 .07199097 .27833558 .07998657 .27833558 .08299255 .28033448 .084991458 .28933717 .11898804 .39535523 .18499756 .42037965 .21899414 .42037965 .23799134 .42037965 .272995 .4113617 .272995 .35334779 .272995 .32235719 .2559967 .25532533 .21899414 .11528015 .20298767 .053268434 .16799927 .011245728 .12399292 .011245728 .117996219 .011245728 .09498596 .011245728 .07398987 .024276734 .09899902 .029266358 .12098694 .05027771 .12098694 .07827759 .12098694 .105270389 .09899902 .11328125 .083999637 .11328125 .053985597 .11328125 .0289917 .08728027 .0289917 .055267335 .0289917 .009246826 .07899475-.0107421879 .12298584-.0107421879 .18899536-.0107421879 .22499085 .059280397 .22799683 .0652771 .23999024 .028274537 .27598573-.0107421879 .33599855-.0107421879 .43899537-.0107421879 .49598695 .118270877 .49598695 .14328003 .49598695 .1532898 .4869995 .1532898 .48399354 .1532898 .47499085 .1532898 .47299195 .14929199 .47099305 .14228821 .43798829 .03527832 .36999513 .011245728 .33799745 .011245728 .29899598 .011245728 .2829895 .043273927 .2829895 .07727051 .2829895 .09927368 .2889862 .121276859 .2999878 .16529846L.33399964 .30233766Z"/>
<path id="font_2_2" d="M.2889862 .25C.2889862 .32798768 .27799989 .44898988 .22299195 .56199648 .16299439 .68499758 .07699585 .75 .066986087 .75 .06098938 .75 .056991579 .74598696 .056991579 .73999026 .056991579 .7369995 .056991579 .73498538 .07598877 .71699526 .17399597 .6179962 .23098755 .45899964 .23098755 .25 .23098755 .07899475 .19400025-.09700012 .069992069-.2230072 .056991579-.23500061 .056991579-.23701477 .056991579-.2400055 .056991579-.2460022 .06098938-.25 .066986087-.25 .07699585-.25 .16699219-.18200684 .22599793-.055007936 .2769928 .054992677 .2889862 .16600037 .2889862 .25Z"/>
<path id="font_3_1" d="M.6589966 .23046875C.6759949 .23046875 .69400027 .23046875 .69400027 .25045777 .69400027 .27046205 .6759949 .27046205 .6589966 .27046205H.117996219C.100997928 .27046205 .08299255 .27046205 .08299255 .25045777 .08299255 .23046875 .100997928 .23046875 .117996219 .23046875H.6589966Z"/>
<path id="font_4_72" d="M.25498963 0V.0309906C.18798828 .0309906 .1769867 .0309906 .1769867 .07601929V.69433596L.032989503 .6826172V.6516113C.102996829 .6516113 .11099243 .64460757 .11099243 .5956421V.07595825C.11099243 .0309906 .099990848 .0309906 .032989503 .0309906V0L.14399719 .0029907227 .25498963 0Z"/>
<path id="font_4_66" d="M.24699402 0V.0309906C.18099976 .0309906 .1769867 .035995485 .1769867 .075042728V.4423828L.036987306 .43066407V.3996582C.101989749 .3996582 .11099243 .3936615 .11099243 .3447113V.07595825C.11099243 .0309906 .099990848 .0309906 .032989503 .0309906V0L.14299011 .0029907227C.17799378 .0029907227 .21299744 .0009918213 .24699402 0M.19198609 .603775C.19198609 .6307678 .16899109 .6567688 .13899231 .6567688 .10499573 .6567688 .084991458 .6287689 .084991458 .603775 .084991458 .57676699 .10798645 .55078127 .13798523 .55078127 .17199707 .55078127 .19198609 .5787811 .19198609 .603775Z"/>
<path id="font_4_70" d="M.5109863 0V.0309906C.47399903 .0309906 .45199586 .0309906 .4139862 .0839386L.2869873 .26278688C.28599549 .26478578 .2809906 .2707672 .2809906 .2737732 .2809906 .277771 .35198976 .33770753 .3619995 .34570313 .4249878 .39666749 .46699525 .39865113 .48799134 .3996582V.43066407C.45899964 .42765809 .44599916 .42765809 .41799928 .42765809 .38198854 .42765809 .31999208 .42965699 .30599977 .43066407V.3996582C.32499696 .39865113 .33499146 .3876648 .33499146 .37467958 .33499146 .3547058 .32099916 .3427124 .31298829 .33570863L.17199707 .21382141V.69433596L.027999878 .6826172V.6516113C.09799194 .6516113 .10598755 .64460757 .10598755 .5956421V.07595825C.10598755 .0309906 .09498596 .0309906 .027999878 .0309906V0L.13699341 .0029907227 .24699402 0V.0309906C.17999268 .0309906 .16899109 .0309906 .16899109 .07595825V.17889405L.23298645 .23387146C.30999757 .12792969 .35198976 .07196045 .35198976 .053985597 .35198976 .034988405 .33499146 .0309906 .31599427 .0309906V0L.42399598 .0029907227C.45298768 .0029907227 .48199464 .0019989014 .5109863 0Z"/>
<path id="font_4_50" d="M.4149933 .11933899C.4149933 .12934876 .40699769 .13134766 .4019928 .13134766 .3929901 .13134766 .3909912 .12535095 .3889923 .11734009 .35398866 .014251709 .2639923 .014251709 .2539978 .014251709 .20399475 .014251709 .1639862 .044281007 .14099121 .08131409 .11099243 .12934876 .11099243 .19540406 .11099243 .23144531H.3899994C.4119873 .23144531 .4149933 .23144531 .4149933 .2524414 .4149933 .35131837 .36099244 .4482422 .23599243 .4482422 .11999512 .4482422 .027999878 .34532167 .027999878 .22042847 .027999878 .08631897 .1329956-.0107421879 .24798584-.0107421879 .36999513-.0107421879 .4149933 .10032654 .4149933 .11933899M.34899903 .2524414H.11199951C.117996219 .40126039 .20199585 .426239 .23599243 .426239 .33898927 .426239 .34899903 .2913971 .34899903 .2524414Z"/>
<path id="font_5_1" d="M.2649994 .4740448C.269989 .4870453 .27398683 .49404908 .27398683 .5040436 .27398683 .53704836 .24398804 .5590515 .21598816 .5590515 .17599488 .5590515 .16499329 .52404788 .16099549 .51005557L.033996583 .07901001C.02999878 .06700134 .02999878 .06401062 .02999878 .06300354 .02999878 .054000856 .035995485 .052001954 .04598999 .04901123 .06399536 .041015626 .06599426 .041015626 .067993167 .041015626 .070999149 .041015626 .07699585 .041015626 .083999637 .058013917L.2649994 .4740448Z"/>
<path id="font_2_5" d="M.2939911 .16503906V.07800293C.2939911 .041992189 .2919922 .0309906 .21798706 .0309906H.19699097V0C.23799134 .0029907227 .2899933 .0029907227 .33198548 .0029907227 .37399293 .0029907227 .4269867 .0029907227 .46798707 0V.0309906H.44699098C.37298585 .0309906 .37098695 .041992189 .37098695 .07800293V.16503906H.47099305V.19602967H.37098695V.65075686C.37098695 .67074587 .37098695 .6767578 .35499574 .6767578 .34599305 .6767578 .34298707 .6767578 .33499146 .66474917L.027999878 .19602967V.16503906H.2939911M.2999878 .19602967H.055999757L.2999878 .5688019V.19602967Z"/>
<path id="font_2_3" d="M.40899659 .23046875H.6879883C.70199587 .23046875 .72099307 .23046875 .72099307 .25045777 .72099307 .27046205 .70199587 .27046205 .6879883 .27046205H.40899659V.5500183C.40899659 .56399539 .40899659 .5830078 .3889923 .5830078 .36898805 .5830078 .36898805 .56399539 .36898805 .5500183V.27046205H.08898926C.07499695 .27046205 .055999757 .27046205 .055999757 .25045777 .055999757 .23046875 .07499695 .23046875 .08898926 .23046875H.36898805V-.05000305C.36898805-.06401062 .36898805-.08300781 .3889923-.08300781 .40899659-.08300781 .40899659-.06401062 .40899659-.05000305V.23046875Z"/>
<path id="font_2_4" d="M.2899933 .35191346C.37199403 .37893678 .42999269 .4490509 .42999269 .52809146 .42999269 .6100464 .34199525 .6660156 .24598694 .6660156 .14498902 .6660156 .068984989 .60606387 .068984989 .53009036 .068984989 .49710084 .09098816 .47808839 .11999512 .47808839 .15098572 .47808839 .17098999 .50009158 .17098999 .5290985 .17098999 .57910159 .12399292 .57910159 .10899353 .57910159 .13999939 .62802127 .20599365 .64100649 .24198914 .64100649 .2829895 .64100649 .33799745 .6190338 .33799745 .5290985 .33799745 .51708987 .33599855 .45906068 .30999757 .4149933 .27999879 .36691285 .24598694 .36390687 .22099304 .36291505 .21299744 .36190797 .18899536 .35990907 .18199158 .35990907 .17399597 .35890199 .16699219 .35791017 .16699219 .3479004 .16699219 .33691407 .17399597 .33691407 .19099427 .33691407H.23498535C.31698609 .33691407 .35398866 .2686615 .35398866 .17037964 .35398866 .034469606 .2849884 .0055389406 .24099732 .0055389406 .19799805 .0055389406 .12298584 .022491456 .08799744 .08137512 .12298584 .07637024 .1539917 .09837341 .1539917 .1363678 .1539917 .17237854 .1269989 .19238281 .09799194 .19238281 .07398987 .19238281 .041992189 .17837525 .041992189 .1343689 .041992189 .043441774 .1349945-.022460938 .24398804-.022460938 .3659973-.022460938 .45700074 .06838989 .45700074 .17037964 .45700074 .252594 .3939972 .33088685 .2899933 .35191346Z"/>
<path id="font_2_6" d="M.68699648 .32714845C.70199587 .32714845 .72099307 .32714845 .72099307 .34713746 .72099307 .36714173 .70199587 .36714173 .6879883 .36714173H.08898926C.07499695 .36714173 .055999757 .36714173 .055999757 .34713746 .055999757 .32714845 .07499695 .32714845 .08999634 .32714845H.68699648M.6879883 .13284302C.70199587 .13284302 .72099307 .13284302 .72099307 .15284729 .72099307 .17285156 .70199587 .17285156 .68699648 .17285156H.08999634C.07499695 .17285156 .055999757 .17285156 .055999757 .15284729 .055999757 .13284302 .07499695 .13284302 .08898926 .13284302H.6879883Z"/>
</defs>
<use data-text="f" xlink:href="#font_1_1" transform="matrix(10.910082,0,0,-10.9091,29.650704,10.418001)"/>
<use data-text="(" xlink:href="#font_2_1" transform="matrix(10.910082,0,0,-10.9091,36.16729,10.418001)"/>
<use data-text="x" xlink:href="#font_1_2" transform="matrix(10.910082,0,0,-10.9091,40.409669,10.418001)"/>
<use data-text=")" xlink:href="#font_2_2" transform="matrix(10.910082,0,0,-10.9091,46.645235,10.418001)"/>
<use data-text="&#x2212;" xlink:href="#font_3_1" transform="matrix(10.910082,0,0,-10.9091,50.88761,10.418001)"/>
<use data-text="l" xlink:href="#font_4_72" transform="matrix(10.910082,0,0,-10.9091,59.373376,10.418001)"/>
<use data-text="i" xlink:href="#font_4_66" transform="matrix(10.910082,0,0,-10.9091,62.406373,10.418001)"/>
<use data-text="k" xlink:href="#font_4_70" transform="matrix(10.910082,0,0,-10.9091,65.43938,10.418001)"/>
<use data-text="e" xlink:href="#font_4_50" transform="matrix(10.910082,0,0,-10.9091,70.90533,10.418001)"/>
<path transform="matrix(1.00009,0,0,-1,1.6661835,38.872)" d="M3.9851 0H13.02313C15.22408 0 17.00824 1.78416 17.00824 3.9851V10.18828C17.00824 12.38922 15.22408 14.17339 13.02313 14.17339H3.9851C1.78416 14.17339 0 12.38922 0 10.18828V3.9851C0 1.78416 1.78416 0 3.9851 0Z" fill="#ccccff" fill-opacity=".2"/>
<path transform="matrix(1.00009,0,0,-1,1.6661835,38.872)" stroke-width=".79701" stroke-linecap="butt" stroke-linejoin="round" fill="none" stroke="#000000" d="M3.9851 0H13.02313C15.22408 0 17.00824 1.78416 17.00824 3.9851V10.18828C17.00824 12.38922 15.22408 14.17339 13.02313 14.17339H3.9851C1.78416 14.17339 0 12.38922 0 10.18828V3.9851C0 1.78416 1.78416 0 3.9851 0Z"/>
<use data-text="&#x2032;" xlink:href="#font_5_1" transform="matrix(7.970817,0,0,-7.9701,20.381867,29.185002)"/>
<use data-text="&#x2032;" xlink:href="#font_5_1" transform="matrix(7.970817,0,0,-7.9701,22.67746,29.185002)"/>
<use data-text="&#x2212;" xlink:href="#font_3_1" transform="matrix(10.910082,0,0,-10.9091,25.772355,34.513)"/>
<use data-text="4" xlink:href="#font_2_5" transform="matrix(10.910082,0,0,-10.9091,35.793256,35.301004)"/>
<path transform="matrix(1.00009,0,0,-1,1.6661835,38.872)" d="M46.50531 0H55.54335C57.7443 0 59.52846 1.78416 59.52846 3.9851V10.18828C59.52846 12.38922 57.7443 14.17339 55.54335 14.17339H46.50531C44.30437 14.17339 42.5202 12.38922 42.5202 10.18828V3.9851C42.5202 1.78416 44.30437 0 46.50531 0Z" fill="#ccccff" fill-opacity=".2"/>
<path transform="matrix(1.00009,0,0,-1,1.6661835,38.872)" stroke-width=".79701" stroke-linecap="butt" stroke-linejoin="round" fill="none" stroke="#000000" d="M46.50531 0H55.54335C57.7443 0 59.52846 1.78416 59.52846 3.9851V10.18828C59.52846 12.38922 57.7443 14.17339 55.54335 14.17339H46.50531C44.30437 14.17339 42.5202 12.38922 42.5202 10.18828V3.9851C42.5202 1.78416 44.30437 0 46.50531 0Z"/>
<use data-text="&#x2032;" xlink:href="#font_5_1" transform="matrix(7.970817,0,0,-7.9701,62.63667,29.185002)"/>
<use data-text="+" xlink:href="#font_2_3" transform="matrix(10.910082,0,0,-10.9091,65.46193,34.513)"/>
<use data-text="3" xlink:href="#font_2_4" transform="matrix(10.910082,0,0,-10.9091,75.48183,35.301004)"/>
<path transform="matrix(1.00009,0,0,-1,1.6661835,38.872)" d="M86.19066 0H95.22871C97.42966 0 99.21382 1.78416 99.21382 3.9851V10.18828C99.21382 12.38922 97.42966 14.17339 95.22871 14.17339H86.19066C83.98972 14.17339 82.20555 12.38922 82.20555 10.18828V3.9851C82.20555 1.78416 83.98972 0 86.19066 0Z" fill="#ccccff" fill-opacity=".2"/>
<path transform="matrix(1.00009,0,0,-1,1.6661835,38.872)" stroke-width=".79701" stroke-linecap="butt" stroke-linejoin="round" fill="none" stroke="#000000" d="M86.19066 0H95.22871C97.42966 0 99.21382 1.78416 99.21382 3.9851V10.18828C99.21382 12.38922 97.42966 14.17339 95.22871 14.17339H86.19066C83.98972 14.17339 82.20555 12.38922 82.20555 10.18828V3.9851C82.20555 1.78416 83.98972 0 86.19066 0Z"/>
<use data-text="=" xlink:href="#font_2_6" transform="matrix(10.910082,0,0,-10.9091,105.1505,33.786005)"/>
<use data-text="f" xlink:href="#font_1_1" transform="matrix(10.910082,0,0,-10.9091,115.784458,34.513)"/>
<use data-text="(" xlink:href="#font_2_1" transform="matrix(10.910082,0,0,-10.9091,122.30104,34.513)"/>
<use data-text="x" xlink:href="#font_1_2" transform="matrix(10.910082,0,0,-10.9091,126.54342,34.513)"/>
<use data-text=")" xlink:href="#font_2_2" transform="matrix(10.910082,0,0,-10.9091,132.77899,34.513)"/>
<path transform="matrix(1.00009,0,0,-1,1.6661835,38.872)" stroke-width=".79701" stroke-linecap="butt" stroke-linejoin="round" fill="none" stroke="#000000" d="M22.95152 31.18166H19.42879C17.22784 31.18166 13.65952 31.18166 11.45857 31.18166H12.48923C10.28828 31.18166 8.50412 29.39749 8.50412 27.19655V18.9596"/>
<path transform="matrix(0,1,1.00009,0,10.171069,19.912402)" d="M2.59026 0-1.55415 2.0722 0 0-1.55415-2.0722"/>
<path transform="matrix(1.00009,0,0,-1,1.6661835,38.872)" stroke-width=".79701" stroke-linecap="butt" stroke-linejoin="round" fill="none" stroke="#000000" d="M51.02432 22.68881V23.82822C51.02432 21.62727 51.02432 21.62727 51.02432 23.82822 51.02432 21.62727 51.02432 18.05894 51.02432 15.858V18.9596"/>
<path transform="matrix(0,1,1.00009,0,52.695096,19.912402)" d="M2.59026 0-1.55415 2.0722 0 0-1.55415-2.0722"/>
<path transform="matrix(1.00009,0,0,-1,1.6661835,38.872)" stroke-width=".79701" stroke-linecap="butt" stroke-linejoin="round" fill="none" stroke="#000000" d="M79.09712 31.18166H82.61986C84.8208 31.18166 88.38913 31.18166 90.59007 31.18166H86.7246C88.92554 31.18166 90.7097 29.39749 90.7097 27.19655V18.9596"/>
<path transform="matrix(0,1,1.00009,0,92.38405,19.912402)" d="M2.59026 0-1.55415 2.0722 0 0-1.55415-2.0722"/>
</svg>
