<svg xmlns="http://www.w3.org/2000/svg" xmlns:xlink="http://www.w3.org/1999/xlink" xmlns:inkscape="http://www.inkscape.org/namespaces/inkscape" version="1.1" width="155" height="68" viewBox="0 0 155 68">
<defs>
<path id="font_1_2" d="M.20599365 .3996582H.2999878C.31999208 .3996582 .32998658 .3996582 .32998658 .41966249 .32998658 .43066407 .31999208 .43066407 .3019867 .43066407H.21398926C.25 .5724945 .25498963 .59246829 .25498963 .59846499 .25498963 .61546328 .24299622 .62545779 .22599793 .62545779 .22299195 .62545779 .19499207 .62446597 .18598938 .58947756L.14698792 .43066407H.052993776C.032989503 .43066407 .022994996 .43066407 .022994996 .4116516 .022994996 .3996582 .0309906 .3996582 .050994874 .3996582H.13899231C.066986087 .11608887 .06298828 .099121097 .06298828 .08114624 .06298828 .02722168 .100997928-.0107421879 .15499878-.0107421879 .25698854-.0107421879 .31399537 .13505554 .31399537 .14305115 .31399537 .1530304 .30599977 .1530304 .3019867 .1530304 .29299928 .1530304 .2919922 .15003968 .2869873 .13905335 .24398804 .035217287 .19099427 .011245728 .15699768 .011245728 .13598633 .011245728 .12599182 .024230957 .12599182 .057174684 .12599182 .08114624 .12799073 .088134769 .13198853 .10510254L.20599365 .3996582Z"/>
<path id="font_1_1" d="M.6349945 .5776062C.644989 .61860659 .6629944 .64860537 .7429962 .6516113 .7480011 .6516113 .7599945 .65260317 .7599945 .6716156 .7599945 .6726074 .7599945 .6826172 .746994 .6826172 .71398928 .6826172 .67900088 .6796112 .644989 .6796112 .61099246 .6796112 .57398989 .6826172 .54100039 .6826172 .5349884 .6826172 .522995 .6826172 .522995 .6626129 .522995 .6516113 .5329895 .6516113 .54100039 .6516113 .59799197 .65060427 .60899356 .62960818 .60899356 .607605 .60899356 .604599 .6069946 .5895996 .60598757 .5866089L.5159912 .22955323C.48199464 .09553528 .36698915 .008529663 .2669983 .008529663 .19898987 .008529663 .14498902 .05253601 .14498902 .1385498 .14498902 .1405487 .14498902 .17254639 .1559906 .21655274L.25299073 .6056061C.2619934 .64160159 .2639923 .6516113 .33699037 .6516113 .36299134 .6516113 .37098695 .6516113 .37098695 .6716156 .37098695 .6826172 .3600006 .6826172 .35699464 .6826172 .32899476 .6826172 .25698854 .6796112 .22898865 .6796112 .19999695 .6796112 .1289978 .6826172 .099990848 .6826172 .09199524 .6826172 .08099365 .6826172 .08099365 .6626129 .08099365 .6516113 .08999634 .6516113 .10899353 .6516113 .11099243 .6516113 .12998963 .6516113 .14698792 .6496124 .16499329 .6476135 .17399597 .64660647 .17399597 .63360598 .17399597 .62760928 .16299439 .5856018 .15699768 .56259158L.1349945 .47459413C.12599182 .4355774 .07798767 .24656677 .07398987 .22755432 .066986087 .19955445 .066986087 .18455506 .066986087 .16955567 .066986087 .047531129 .1579895-.022460938 .2630005-.022460938 .3889923-.022460938 .5130005 .090545658 .54599 .2225647L.6349945 .5776062Z"/>
<path id="font_2_1" d="M.33099366-.2400055C.33099366-.23701477 .33099366-.23500061 .31399537-.21800232 .18899536-.0920105 .15699768 .09700012 .15699768 .25 .15699768 .42399598 .19499207 .59799197 .31799317 .72299197 .33099366 .73498538 .33099366 .7369995 .33099366 .73999026 .33099366 .746994 .32699586 .75 .32099916 .75 .31098939 .75 .22099304 .6819916 .1619873 .5549927 .11099243 .44499208 .09899902 .33399964 .09899902 .25 .09899902 .17199707 .10998535 .050994874 .16499329-.06201172 .22499085-.18501282 .31098939-.25 .32099916-.25 .32699586-.25 .33099366-.24700928 .33099366-.2400055Z"/>
<path id="font_2_2" d="M.2889862 .25C.2889862 .32798768 .27799989 .44898988 .22299195 .56199648 .16299439 .68499758 .07699585 .75 .066986087 .75 .06098938 .75 .056991579 .74598696 .056991579 .73999026 .056991579 .7369995 .056991579 .73498538 .07598877 .71699526 .17399597 .6179962 .23098755 .45899964 .23098755 .25 .23098755 .07899475 .19400025-.09700012 .069992069-.2230072 .056991579-.23500061 .056991579-.23701477 .056991579-.2400055 .056991579-.2460022 .06098938-.25 .066986087-.25 .07699585-.25 .16699219-.18200684 .22599793-.055007936 .2769928 .054992677 .2889862 .16600037 .2889862 .25Z"/>
<path id="font_2_3" d="M.2939911 .64004519C.2939911 .66400149 .2939911 .6660156 .2709961 .6660156 .20899964 .60227969 .12098694 .60227969 .08898926 .60227969V.57128909C.10899353 .57128909 .16799927 .57128909 .21998596 .5972748V.07902527C.21998596 .042999269 .21699524 .0309906 .1269989 .0309906H.09498596V0C.12998963 .0029907227 .21699524 .0029907227 .25698854 .0029907227 .29699708 .0029907227 .38398744 .0029907227 .4189911 0V.0309906H.3869934C.29699708 .0309906 .2939911 .041992189 .2939911 .07902527V.64004519Z"/>
</defs>
<path transform="matrix(1.00006,0,0,-1.00009,72.736377,52.026334)" stroke-width=".79701" stroke-linecap="butt" stroke-miterlimit="10" stroke-linejoin="miter" fill="none" stroke="#000000" d="M-70.867 0H70.07"/>
<path transform="matrix(1.00006,0,0,-1.00009,143.2091,52.026334)" stroke-width=".79701" stroke-linecap="round" stroke-linejoin="round" fill="none" stroke="#000000" d="M-2.55046 3.11095C-2.0845 1.24435-1.04614 .36295 0 0-1.04614-.36295-2.0845-1.24435-2.55046-3.11095"/>
<use data-text="t" xlink:href="#font_1_2" transform="matrix(10.909754,0,0,-10.910082,147.64287,55.381639)"/>
<path transform="matrix(1.00006,0,0,-1.00009,72.736377,52.026334)" stroke-width=".79701" stroke-linecap="butt" stroke-miterlimit="10" stroke-linejoin="miter" fill="none" stroke="#000000" d="M0-14.17339V50.22731"/>
<path transform="matrix(0,-1.00009,-1.00006,-0,72.736377,1.395958)" stroke-width=".79701" stroke-linecap="round" stroke-linejoin="round" fill="none" stroke="#000000" d="M-2.55046 3.11095C-2.0845 1.24435-1.04614 .36295 0 0-1.04614-.36295-2.0845-1.24435-2.55046-3.11095"/>
<path transform="matrix(1.00006,0,0,-1.00009,72.736377,52.026334)" stroke-width=".19925" stroke-linecap="butt" stroke-miterlimit="10" stroke-linejoin="miter" fill="none" stroke="#7f807f" d="M-70.867 0H70.867M-70.867 28.3468H70.867M-56.69362-14.17339V42.5202M-28.3468-14.17339V42.5202M0-14.17339V42.5202M28.3468-14.17339V42.5202M56.69362-14.17339V42.5202M70.867 42.5202"/>
<path transform="matrix(1.00006,0,0,-1.00009,72.736377,52.026334)" stroke-width="1.19553" stroke-linecap="butt" stroke-miterlimit="10" stroke-linejoin="miter" fill="none" stroke="#0000ff" d="M-70.867 0H0"/>
<path transform="matrix(1.00006,0,0,-1.00009,72.736377,52.026334)" stroke-width=".3985" stroke-linecap="butt" stroke-dasharray="2.98883,2.98883" stroke-miterlimit="10" stroke-linejoin="miter" fill="none" stroke="#0000ff" d="M0 0V28.3468"/>
<path transform="matrix(1.00006,0,0,-1.00009,72.736377,52.026334)" stroke-width="1.19553" stroke-linecap="butt" stroke-miterlimit="10" stroke-linejoin="miter" fill="none" stroke="#0000ff" d="M0 28.3468H70.867"/>
<use data-text="U" xlink:href="#font_1_1" transform="matrix(10.909754,0,0,-10.910082,133.07599,16.715157)" fill="#0000ff"/>
<use data-text="(" xlink:href="#font_2_1" transform="matrix(10.909754,0,0,-10.910082,141.71451,16.715157)" fill="#0000ff"/>
<use data-text="t" xlink:href="#font_1_2" transform="matrix(10.909754,0,0,-10.910082,145.95677,16.715157)" fill="#0000ff"/>
<use data-text=")" xlink:href="#font_2_2" transform="matrix(10.909754,0,0,-10.910082,149.896,16.715157)" fill="#0000ff"/>
<path transform="matrix(1.00006,0,0,-1.00009,72.736377,52.026334)" d="M2.26778 0C2.26778 1.25247 1.25247 2.26778 0 2.26778-1.25247 2.26778-2.26778 1.25247-2.26778 0-2.26778-1.25247-1.25247-2.26778 0-2.26778 1.25247-2.26778 2.26778-1.25247 2.26778 0ZM0 0" fill="#ffffff"/>
<path transform="matrix(1.00006,0,0,-1.00009,72.736377,52.026334)" stroke-width=".3985" stroke-linecap="butt" stroke-miterlimit="10" stroke-linejoin="miter" fill="none" stroke="#000000" d="M2.26778 0C2.26778 1.25247 1.25247 2.26778 0 2.26778-1.25247 2.26778-2.26778 1.25247-2.26778 0-2.26778-1.25247-1.25247-2.26778 0-2.26778 1.25247-2.26778 2.26778-1.25247 2.26778 0ZM0 0"/>
<path transform="matrix(1.00006,0,0,-1.00009,72.736377,52.026334)" d="M2.26778 28.3468C2.26778 29.59927 1.25247 30.6146 0 30.6146-1.25247 30.6146-2.26778 29.59927-2.26778 28.3468-2.26778 27.09433-1.25247 26.07901 0 26.07901 1.25247 26.07901 2.26778 27.09433 2.26778 28.3468ZM0 28.3468" fill="#0000ff"/>
<path transform="matrix(1.00006,0,0,-1.00009,72.736377,52.026334)" stroke-width=".3985" stroke-linecap="butt" stroke-miterlimit="10" stroke-linejoin="miter" fill="none" stroke="#0000ff" d="M2.26778 28.3468C2.26778 29.59927 1.25247 30.6146 0 30.6146-1.25247 30.6146-2.26778 29.59927-2.26778 28.3468-2.26778 27.09433-1.25247 26.07901 0 26.07901 1.25247 26.07901 2.26778 27.09433 2.26778 28.3468ZM0 28.3468"/>
<use data-text="1" xlink:href="#font_2_3" transform="matrix(10.909754,0,0,-10.910082,63.445817,27.192097)" fill="#0000ff"/>
</svg>
