<?xml version="1.0" encoding="utf-8" standalone="no"?>
<!DOCTYPE svg PUBLIC "-//W3C//DTD SVG 1.1//EN"
  "http://www.w3.org/Graphics/SVG/1.1/DTD/svg11.dtd">
<svg xmlns:xlink="http://www.w3.org/1999/xlink" width="451.619024pt" height="336.708451pt" viewBox="0 0 451.619024 336.708451" xmlns="http://www.w3.org/2000/svg" version="1.1">
 <metadata>
  <rdf:RDF xmlns:dc="http://purl.org/dc/elements/1.1/" xmlns:cc="http://creativecommons.org/ns#" xmlns:rdf="http://www.w3.org/1999/02/22-rdf-syntax-ns#">
   <cc:Work>
    <dc:type rdf:resource="http://purl.org/dc/dcmitype/StillImage"/>
    <dc:date>2025-11-05T21:12:53.261517</dc:date>
    <dc:format>image/svg+xml</dc:format>
    <dc:creator>
     <cc:Agent>
      <dc:title>Matplotlib v3.8.0, https://matplotlib.org/</dc:title>
     </cc:Agent>
    </dc:creator>
   </cc:Work>
  </rdf:RDF>
 </metadata>
 <defs>
  <style type="text/css">*{stroke-linejoin: round; stroke-linecap: butt}</style>
 </defs>
 <g id="figure_1">
  <g id="patch_1">
   <path d="M 0 336.708451 
L 451.619024 336.708451 
L 451.619024 0 
L 0 0 
z
" style="fill: #ffffff"/>
  </g>
  <g id="axes_1">
   <g id="patch_2">
    <path d="M 29.90932 326.237538 
L 439.574704 326.237538 
L 439.574704 7.2 
L 29.90932 7.2 
z
" style="fill: #ffffff"/>
   </g>
   <g id="PathCollection_1">
    <defs>
     <path id="medae10bb5d" d="M 0 3.162278 
C 0.838646 3.162278 1.643056 2.82908 2.236068 2.236068 
C 2.82908 1.643056 3.162278 0.838646 3.162278 0 
C 3.162278 -0.838646 2.82908 -1.643056 2.236068 -2.236068 
C 1.643056 -2.82908 0.838646 -3.162278 0 -3.162278 
C -0.838646 -3.162278 -1.643056 -2.82908 -2.236068 -2.236068 
C -2.82908 -1.643056 -3.162278 -0.838646 -3.162278 0 
C -3.162278 0.838646 -2.82908 1.643056 -2.236068 2.236068 
C -1.643056 2.82908 -0.838646 3.162278 0 3.162278 
z
" style="stroke: #000000"/>
    </defs>
    <g clip-path="url(#pc1d6354505)">
     <use xlink:href="#medae10bb5d" x="37.7875" y="157.132305" style="fill: #33cc1a; stroke: #000000"/>
     <use xlink:href="#medae10bb5d" x="169.090508" y="190.68493" style="fill: #33cc1a; stroke: #000000"/>
     <use xlink:href="#medae10bb5d" x="300.393516" y="221.84094" style="fill: #33cc1a; stroke: #000000"/>
     <use xlink:href="#medae10bb5d" x="431.696524" y="249.402026" style="fill: #33cc1a; stroke: #000000"/>
    </g>
   </g>
   <g id="matplotlib.axis_1">
    <g id="xtick_1">
     <g id="line2d_1">
      <defs>
       <path id="m7bd11e7703" d="M 0 0 
L 0 3.5 
" style="stroke: #000000; stroke-width: 0.8"/>
      </defs>
      <g>
       <use xlink:href="#m7bd11e7703" x="37.7875" y="90.027053" style="stroke: #000000; stroke-width: 0.8"/>
      </g>
     </g>
    </g>
    <g id="xtick_2">
     <g id="line2d_2">
      <g>
       <use xlink:href="#m7bd11e7703" x="169.090508" y="90.027053" style="stroke: #000000; stroke-width: 0.8"/>
      </g>
     </g>
     <g id="text_1">
      <!-- 0.5 -->
      <g transform="translate(156.368008 109.184553) scale(0.16 -0.16)">
       <defs>
        <path id="DejaVuSans-30" d="M 2034 4250 
Q 1547 4250 1301 3770 
Q 1056 3291 1056 2328 
Q 1056 1369 1301 889 
Q 1547 409 2034 409 
Q 2525 409 2770 889 
Q 3016 1369 3016 2328 
Q 3016 3291 2770 3770 
Q 2525 4250 2034 4250 
z
M 2034 4750 
Q 2819 4750 3233 4129 
Q 3647 3509 3647 2328 
Q 3647 1150 3233 529 
Q 2819 -91 2034 -91 
Q 1250 -91 836 529 
Q 422 1150 422 2328 
Q 422 3509 836 4129 
Q 1250 4750 2034 4750 
z
" transform="scale(0.015625)"/>
        <path id="DejaVuSans-2e" d="M 684 794 
L 1344 794 
L 1344 0 
L 684 0 
L 684 794 
z
" transform="scale(0.015625)"/>
        <path id="DejaVuSans-35" d="M 691 4666 
L 3169 4666 
L 3169 4134 
L 1269 4134 
L 1269 2991 
Q 1406 3038 1543 3061 
Q 1681 3084 1819 3084 
Q 2600 3084 3056 2656 
Q 3513 2228 3513 1497 
Q 3513 744 3044 326 
Q 2575 -91 1722 -91 
Q 1428 -91 1123 -41 
Q 819 9 494 109 
L 494 744 
Q 775 591 1075 516 
Q 1375 441 1709 441 
Q 2250 441 2565 725 
Q 2881 1009 2881 1497 
Q 2881 1984 2565 2268 
Q 2250 2553 1709 2553 
Q 1456 2553 1204 2497 
Q 953 2441 691 2322 
L 691 4666 
z
" transform="scale(0.015625)"/>
       </defs>
       <use xlink:href="#DejaVuSans-30"/>
       <use xlink:href="#DejaVuSans-2e" x="63.623047"/>
       <use xlink:href="#DejaVuSans-35" x="95.410156"/>
      </g>
     </g>
    </g>
    <g id="xtick_3">
     <g id="line2d_3">
      <g>
       <use xlink:href="#m7bd11e7703" x="300.393516" y="90.027053" style="stroke: #000000; stroke-width: 0.8"/>
      </g>
     </g>
     <g id="text_2">
      <!-- 1.0 -->
      <g transform="translate(287.671016 109.184553) scale(0.16 -0.16)">
       <defs>
        <path id="DejaVuSans-31" d="M 794 531 
L 1825 531 
L 1825 4091 
L 703 3866 
L 703 4441 
L 1819 4666 
L 2450 4666 
L 2450 531 
L 3481 531 
L 3481 0 
L 794 0 
L 794 531 
z
" transform="scale(0.015625)"/>
       </defs>
       <use xlink:href="#DejaVuSans-31"/>
       <use xlink:href="#DejaVuSans-2e" x="63.623047"/>
       <use xlink:href="#DejaVuSans-30" x="95.410156"/>
      </g>
     </g>
    </g>
    <g id="xtick_4">
     <g id="line2d_4">
      <g>
       <use xlink:href="#m7bd11e7703" x="431.696524" y="90.027053" style="stroke: #000000; stroke-width: 0.8"/>
      </g>
     </g>
     <g id="text_3">
      <!-- 1.5 -->
      <g transform="translate(418.974024 109.184553) scale(0.16 -0.16)">
       <use xlink:href="#DejaVuSans-31"/>
       <use xlink:href="#DejaVuSans-2e" x="63.623047"/>
       <use xlink:href="#DejaVuSans-35" x="95.410156"/>
      </g>
     </g>
    </g>
   </g>
   <g id="matplotlib.axis_2">
    <g id="ytick_1">
     <g id="line2d_5">
      <defs>
       <path id="me1e0b3f431" d="M 0 0 
L -3.5 0 
" style="stroke: #000000; stroke-width: 0.8"/>
      </defs>
      <g>
       <use xlink:href="#me1e0b3f431" x="37.7875" y="320.102201" style="stroke: #000000; stroke-width: 0.8"/>
      </g>
     </g>
     <g id="text_4">
      <!-- −3 -->
      <g transform="translate(7.2 326.180951) scale(0.16 -0.16)">
       <defs>
        <path id="DejaVuSans-2212" d="M 678 2272 
L 4684 2272 
L 4684 1741 
L 678 1741 
L 678 2272 
z
" transform="scale(0.015625)"/>
        <path id="DejaVuSans-33" d="M 2597 2516 
Q 3050 2419 3304 2112 
Q 3559 1806 3559 1356 
Q 3559 666 3084 287 
Q 2609 -91 1734 -91 
Q 1441 -91 1130 -33 
Q 819 25 488 141 
L 488 750 
Q 750 597 1062 519 
Q 1375 441 1716 441 
Q 2309 441 2620 675 
Q 2931 909 2931 1356 
Q 2931 1769 2642 2001 
Q 2353 2234 1838 2234 
L 1294 2234 
L 1294 2753 
L 1863 2753 
Q 2328 2753 2575 2939 
Q 2822 3125 2822 3475 
Q 2822 3834 2567 4026 
Q 2313 4219 1838 4219 
Q 1578 4219 1281 4162 
Q 984 4106 628 3988 
L 628 4550 
Q 988 4650 1302 4700 
Q 1616 4750 1894 4750 
Q 2613 4750 3031 4423 
Q 3450 4097 3450 3541 
Q 3450 3153 3228 2886 
Q 3006 2619 2597 2516 
z
" transform="scale(0.015625)"/>
       </defs>
       <use xlink:href="#DejaVuSans-2212"/>
       <use xlink:href="#DejaVuSans-33" x="83.789062"/>
      </g>
     </g>
    </g>
    <g id="ytick_2">
     <g id="line2d_6">
      <g>
       <use xlink:href="#me1e0b3f431" x="37.7875" y="243.410485" style="stroke: #000000; stroke-width: 0.8"/>
      </g>
     </g>
     <g id="text_5">
      <!-- −2 -->
      <g transform="translate(7.2 249.489235) scale(0.16 -0.16)">
       <defs>
        <path id="DejaVuSans-32" d="M 1228 531 
L 3431 531 
L 3431 0 
L 469 0 
L 469 531 
Q 828 903 1448 1529 
Q 2069 2156 2228 2338 
Q 2531 2678 2651 2914 
Q 2772 3150 2772 3378 
Q 2772 3750 2511 3984 
Q 2250 4219 1831 4219 
Q 1534 4219 1204 4116 
Q 875 4013 500 3803 
L 500 4441 
Q 881 4594 1212 4672 
Q 1544 4750 1819 4750 
Q 2544 4750 2975 4387 
Q 3406 4025 3406 3419 
Q 3406 3131 3298 2873 
Q 3191 2616 2906 2266 
Q 2828 2175 2409 1742 
Q 1991 1309 1228 531 
z
" transform="scale(0.015625)"/>
       </defs>
       <use xlink:href="#DejaVuSans-2212"/>
       <use xlink:href="#DejaVuSans-32" x="83.789062"/>
      </g>
     </g>
    </g>
    <g id="ytick_3">
     <g id="line2d_7">
      <g>
       <use xlink:href="#me1e0b3f431" x="37.7875" y="166.718769" style="stroke: #000000; stroke-width: 0.8"/>
      </g>
     </g>
     <g id="text_6">
      <!-- −1 -->
      <g transform="translate(7.2 172.797519) scale(0.16 -0.16)">
       <use xlink:href="#DejaVuSans-2212"/>
       <use xlink:href="#DejaVuSans-31" x="83.789062"/>
      </g>
     </g>
    </g>
    <g id="ytick_4">
     <g id="line2d_8">
      <g>
       <use xlink:href="#me1e0b3f431" x="37.7875" y="90.027053" style="stroke: #000000; stroke-width: 0.8"/>
      </g>
     </g>
    </g>
   </g>
   <g id="line2d_9">
    <path d="M 37.7875 157.132305 
L 77.015926 167.044083 
L 114.451163 176.271282 
L 147.688713 184.246032 
L 180.755667 191.948008 
L 211.279619 198.825595 
L 238.988113 204.852235 
L 266.986312 210.708342 
L 292.178984 215.755314 
L 316.132268 220.338608 
L 340.161341 224.704929 
L 363.072794 228.631926 
L 383.20241 231.874915 
L 403.037698 234.865168 
L 423.581709 237.73025 
L 431.696524 238.79279 
L 431.696524 238.79279 
" clip-path="url(#pc1d6354505)" style="fill: none; stroke: #ff0000; stroke-linecap: square"/>
   </g>
   <g id="line2d_10">
    <path d="M 37.7875 320.102201 
L 37.7875 13.335337 
" clip-path="url(#pc1d6354505)" style="fill: none; stroke: #e6e6e6; stroke-linecap: square"/>
   </g>
   <g id="line2d_11">
    <path d="M 103.439004 320.102201 
L 103.439004 13.335337 
" clip-path="url(#pc1d6354505)" style="fill: none; stroke: #e6e6e6; stroke-linecap: square"/>
   </g>
   <g id="line2d_12">
    <path d="M 169.090508 320.102201 
L 169.090508 13.335337 
" clip-path="url(#pc1d6354505)" style="fill: none; stroke: #e6e6e6; stroke-linecap: square"/>
   </g>
   <g id="line2d_13">
    <path d="M 234.742012 320.102201 
L 234.742012 13.335337 
" clip-path="url(#pc1d6354505)" style="fill: none; stroke: #e6e6e6; stroke-linecap: square"/>
   </g>
   <g id="line2d_14">
    <path d="M 300.393516 320.102201 
L 300.393516 13.335337 
" clip-path="url(#pc1d6354505)" style="fill: none; stroke: #e6e6e6; stroke-linecap: square"/>
   </g>
   <g id="line2d_15">
    <path d="M 366.04502 320.102201 
L 366.04502 13.335337 
" clip-path="url(#pc1d6354505)" style="fill: none; stroke: #e6e6e6; stroke-linecap: square"/>
   </g>
   <g id="line2d_16">
    <path d="M 431.696524 320.102201 
L 431.696524 13.335337 
" clip-path="url(#pc1d6354505)" style="fill: none; stroke: #e6e6e6; stroke-linecap: square"/>
   </g>
   <g id="line2d_17">
    <path d="M 37.7875 320.102201 
L 431.696524 320.102201 
" clip-path="url(#pc1d6354505)" style="fill: none; stroke: #e6e6e6; stroke-linecap: square"/>
   </g>
   <g id="line2d_18">
    <path d="M 37.7875 243.410485 
L 431.696524 243.410485 
" clip-path="url(#pc1d6354505)" style="fill: none; stroke: #e6e6e6; stroke-linecap: square"/>
   </g>
   <g id="line2d_19">
    <path d="M 37.7875 166.718769 
L 431.696524 166.718769 
" clip-path="url(#pc1d6354505)" style="fill: none; stroke: #e6e6e6; stroke-linecap: square"/>
   </g>
   <g id="line2d_20">
    <path d="M 37.7875 90.027053 
L 431.696524 90.027053 
" clip-path="url(#pc1d6354505)" style="fill: none; stroke: #e6e6e6; stroke-linecap: square"/>
   </g>
   <g id="line2d_21">
    <path d="M 37.7875 13.335337 
L 431.696524 13.335337 
" clip-path="url(#pc1d6354505)" style="fill: none; stroke: #e6e6e6; stroke-linecap: square"/>
   </g>
   <g id="patch_3">
    <path d="M 37.7875 326.237538 
L 37.7875 7.2 
" style="fill: none; stroke: #000000; stroke-width: 0.8; stroke-linejoin: miter; stroke-linecap: square"/>
   </g>
   <g id="patch_4">
    <path d="M 29.90932 90.027053 
L 439.574704 90.027053 
" style="fill: none; stroke: #000000; stroke-width: 0.8; stroke-linejoin: miter; stroke-linecap: square"/>
   </g>
  </g>
 </g>
 <defs>
  <clipPath id="pc1d6354505">
   <rect x="29.90932" y="7.2" width="409.665385" height="319.037538"/>
  </clipPath>
 </defs>
</svg>
