<svg xmlns="http://www.w3.org/2000/svg" xmlns:xlink="http://www.w3.org/1999/xlink" version="1.1" width="149" height="46" viewBox="0 0 149 46">
<defs>
<path id="font_1_3" d="M.49198915 .40434266C.45498658 .39733888 .44400025 .3653412 .44400025 .3503418 .44400025 .33132936 .45799256 .31433106 .48298646 .31433106 .5109863 .31433106 .5379944 .33833314 .5379944 .3733368 .5379944 .41937257 .48799134 .4423828 .44099427 .4423828 .3809967 .4423828 .34599305 .38934327 .33399964 .3683319 .31498719 .41737367 .2709961 .4423828 .22299195 .4423828 .115997318 .4423828 .057998659 .31433106 .057998659 .28833009 .057998659 .2793274 .06498718 .2763214 .07199097 .2763214 .08099365 .2763214 .083999637 .2813263 .085998538 .287323 .116989139 .38633729 .18299866 .41737367 .22099304 .41737367 .25 .41737367 .27598573 .3983307 .27598573 .35133363 .27598573 .31533814 .23298645 .15530396 .21998596 .107284549 .21199036 .076293949 .18199158 .014251709 .1269989 .014251709 .10699463 .014251709 .085998538 .021270752 .07598877 .027282715 .102996829 .032287599 .12298584 .055282594 .12298584 .08128357 .12298584 .106292728 .10398865 .11729431 .084991458 .11729431 .055999757 .11729431 .02999878 .092285159 .02999878 .058288576 .02999878 .009246826 .083999637-.0107421879 .12599182-.0107421879 .18399048-.0107421879 .21798706 .03729248 .23298645 .06428528 .2579956-.0017547608 .31698609-.0107421879 .34399415-.0107421879 .45199586-.0107421879 .5089874 .11929321 .5089874 .14329529 .5089874 .14830017 .5059967 .15530396 .49598695 .15530396 .4850006 .15530396 .48399354 .1512909 .47898866 .1362915 .45700074 .06428528 .39898683 .014251709 .34700013 .014251709 .31799317 .014251709 .29100038 .032287599 .29100038 .08029175 .29100038 .10229492 .30499269 .15730286 .31399537 .1953125 .31799317 .21331787 .34498597 .32133485 .34700013 .32833863 .35899354 .3643341 .3889923 .41737367 .43998719 .41737367 .45799256 .41737367 .47698976 .41436769 .49198915 .40434266Z"/>
<path id="font_2_64" d="M.2849884 .1850586V.24707031H.010986328V.1850586H.2849884Z"/>
<path id="font_2_105" d="M.34199525 .12408447V.18099976H.31399537V.1270752C.31399537 .05319214 .2829895 .01725769 .24699402 .01725769 .17999268 .01725769 .17999268 .1051178 .17999268 .12309265V.3996582H.32499696V.43066407H.17999268V.6142578H.1519928C.15098572 .5304413 .115997318 .42765809 .018997193 .4246521V.3996582H.10598755V.12408447C.10598755 .012252808 .18699646-.0107421879 .23999024-.0107421879 .30699159-.011001587 .34199525 .052993776 .34199525 .12399292V.12408447Z"/>
<path id="font_2_50" d="M.4269867 .11936951C.4269867 .12637329 .42199708 .13237 .41299439 .13237 .40299989 .13237 .3999939 .12536621 .39898683 .12136841 .36499024 .019256592 .27598573 .01725769 .26098634 .01725769 .21299744 .01725769 .17199707 .044281007 .14898682 .078323367 .115997318 .12736511 .114990238 .18743897 .114990238 .22949219H.3999939C.42199708 .22949219 .4269867 .22949219 .4269867 .25048829 .4269867 .35333253 .37098695 .4482422 .24299622 .4482422 .12298584 .4482422 .0289917 .3443451 .0289917 .22047425 .0289917 .08932495 .13398743-.0107421879 .2559967-.0107421879 .37799073-.0107421879 .4269867 .096343997 .4269867 .11936951M.35899354 .253479H.115997318C.125 .40725709 .21499634 .42323304 .24299622 .42323304 .2979889 .42323304 .35798646 .38130189 .35899354 .253479Z"/>
<path id="font_2_96" d="M.37298585 .3798828C.37298585 .41236878 .34298707 .4423828 .2979889 .4423828 .23799134 .4423828 .19599915 .40037538 .17298889 .33787538H.17199707V.4423828L.02999878 .43066407V.3996582C.09799194 .3996582 .10699463 .3927307 .10699463 .34387208V.07698059C.10699463 .0309906 .09599304 .0309906 .02999878 .0309906V0C.08299255 .0019989014 .09599304 .0029907227 .14698792 .0029907227L.27398683 0V.0309906H.2539978C.18099976 .0309906 .17799378 .041992189 .17799378 .07897949V.22891236C.17799378 .26989747 .18899536 .4166565 .30299378 .4166565V.4156494C.30099488 .4146576 .2849884 .40264894 .2849884 .37887574 .2849884 .35186769 .30599977 .33486939 .32899476 .33486939 .34999085 .33486939 .37298585 .34986878 .37298585 .3798828Z"/>
<path id="font_2_75" d="M.83299258 0V.0309906C.7819977 .03125 .7569885 .03125 .7559967 .0622406V.2539215C.7559967 .34077455 .7559967 .36872865 .72299197 .4056549 .70199587 .43037416 .6619873 .4423828 .6159973 .4423828 .5439911 .4423828 .49499513 .40037538 .46699525 .3473816 .45498658 .40637208 .4149933 .4423828 .33099366 .4423828 .25099183 .4423828 .20199585 .39038087 .18099976 .3443756H.17999268V.4423828L.034988405 .43066407V.3996582C.102996829 .3996582 .11199951 .39266969 .11199951 .34370423V.07695007C.11199951 .0309906 .100997928 .0309906 .034988405 .0309906V0C.08198547 .0019989014 .100997928 .0029907227 .14898682 .0029907227 .19699097 .0029907227 .20999146 .0019989014 .2630005 0V.0309906C.19699097 .0309906 .18598938 .0309906 .18598938 .07695007V.25878907C.18598938 .36732484 .2639923 .41737367 .32398988 .41737367 .3789978 .41737367 .39698792 .37834168 .39698792 .30825807V.077041629C.39698792 .0309906 .38598634 .0309906 .31999208 .0309906V0C.36698915 .0019989014 .38598634 .0029907227 .43399049 .0029907227 .48199464 .0029907227 .49499513 .0019989014 .5479889 0V.0309906C.48199464 .0309906 .47099305 .0309906 .47099305 .077041629V.2592163C.47099305 .36732484 .548996 .41737367 .60899356 .41737367 .6639862 .41737367 .6819916 .37834168 .6819916 .30825807V.077041629C.6819916 .0309906 .67099 .0309906 .6049957 .0309906V0C.6519928 .0019989014 .67099 .0029907227 .71899417 .0029907227 .7669983 .0029907227 .7799988 .0019989014 .83299258 0Z"/>
<path id="font_2_98" d="M.36999513 .12831116C.36999513 .17330933 .34999085 .20030213 .32798768 .22329712 .2939911 .25628663 .2579956 .26327516 .18399048 .2772827 .1579895 .28227235 .084991458 .29527284 .084991458 .35224916 .084991458 .38424684 .10798645 .426239 .19898987 .426239 .30699159 .426239 .31399537 .34326173 .31599427 .31826783 .31698609 .3062744 .31698609 .3002777 .32998658 .3002777 .34399415 .3002777 .34399415 .30726625 .34399415 .32626344V.4222412C.34399415 .4392395 .34399415 .4482422 .33198548 .4482422 .32699586 .4482422 .32499696 .4482422 .31199647 .43623353 .30999757 .43423463 .30099488 .42523194 .29499818 .4202423 .2639923 .44223023 .23298645 .4482422 .19898987 .4482422 .066986087 .4482422 .033996583 .37524415 .033996583 .32426454 .033996583 .29226686 .04798889 .26628114 .070999149 .24429322 .10499573 .21330261 .14299011 .20629883 .19400025 .19729615 .24499512 .18730164 .2619934 .18431092 .28399659 .16731262 .2939911 .15931702 .31900025 .14031983 .31900025 .10229492 .31900025 .014251709 .21798706 .014251709 .20399475 .014251709 .101989749 .014251709 .07598877 .0993042 .06399536 .15332031 .06098938 .16331482 .05999756 .16931153 .04798889 .16931153 .033996583 .16931153 .033996583 .16131592 .033996583 .14331055V.01524353C.033996583-.0017547608 .033996583-.0107421879 .04598999-.0107421879 .051986696-.0107421879 .052993776-.009750366 .070999149 .009246826 .07499695 .01524353 .085998538 .028259278 .09098816 .03326416 .1329956-.007751465 .1789856-.0107421879 .20399475-.0107421879 .32699586-.0107421879 .36999513 .061279298 .36999513 .12831116Z"/>
<path id="font_3_3" d="M.30499269 .35195924C.397995 .38697816 .44198609 .46006776 .44198609 .5290985 .44198609 .60606387 .35699464 .6660156 .25299073 .6660156 .14898682 .6660156 .070999149 .60705569 .070999149 .5310974 .070999149 .49809266 .09298706 .47909547 .12199402 .47909547 .15098572 .47909547 .17199707 .50009158 .17199707 .5290985 .17199707 .5640869 .147995 .57910159 .11399841 .57910159 .13999939 .6210327 .20098877 .64100649 .25 .64100649 .33299256 .64100649 .34899903 .5750885 .34899903 .52809146 .34899903 .49809266 .34298707 .45005799 .31799317 .41201783 .2869873 .36695863 .2519989 .36495973 .22299195 .36296083 .19799805 .36094667 .19599915 .36094667 .18798828 .36094667 .1789856 .35995484 .17098999 .35894776 .17098999 .34794618 .17098999 .33496095 .1789856 .33496095 .19599915 .33496095H.24299622C.32998658 .33496095 .36799623 .2646637 .36799623 .16937256 .36799623 .04145813 .2999878 .0055389406 .24899292 .0055389406 .22999573 .0055389406 .1329956 .010528564 .08799744 .0843811 .12399292 .07939148 .1519928 .10437012 .1519928 .13838196 .1519928 .17137146 .1269989 .19238281 .09799194 .19238281 .07299805 .19238281 .042999269 .17736817 .042999269 .13537598 .042999269 .046447755 .13598633-.022460938 .2519989-.022460938 .3769989-.022460938 .46998597 .06741333 .46998597 .16937256 .46998597 .25663758 .40098573 .33093263 .30499269 .35195924Z"/>
<path id="font_1_1" d="M.18199158 .116867069C.1329956 .036987306 .08898926 .033981325 .04899597 .0309906 .041992189 .02999878 .036987306 .021987915 .036987306 .0129852299 .036987306 .0069885256 .040985109 0 .050994874 0 .069992069 0 .116989139 .0029907227 .13598633 .0029907227 .1579895 .0029907227 .21199036 0 .23399353 0 .23999024 0 .25299073 0 .25299073 .017990113 .25299073 .02999878 .24099732 .0309906 .23799134 .0309906 .22898865 .03199768 .19099427 .033981325 .19099427 .063949588 .19099427 .077926639 .20199585 .09689331 .20498657 .101882938L.28399659 .23068238H.54499819C.5479889 .2077179 .5509949 .17378235 .55400088 .14881897 .55799868 .10987854 .56399539 .06593323 .56399539 .062942508 .56399539 .047973634 .5499878 .0309906 .49198915 .0309906 .48199464 .0309906 .46899415 .0309906 .46899415 .0129852299 .46899415 .0019989014 .47698976 0 .48399354 0 .5029907 0 .5269928 .0019989014 .5469971 .0019989014 .5669861 .0019989014 .59098818 .0029907227 .6069946 .0029907227 .6399994 .0029907227 .6419983 .0029907227 .66600039 .0019989014 .6819916 .0009918213 .7049866 0 .72099307 0 .72698977 0 .73999026 0 .73999026 .017990113 .73999026 .0309906 .72898867 .0309906 .71699526 .0309906 .6569977 .0309906 .6559906 .037979127 .6529999 .06694031L.58299258 .68881228C.58099368 .7108154 .5799866 .7158203 .5629883 .7158203 .548996 .7158203 .54299929 .7088165 .5349884 .69581606L.18199158 .116867069M.30299378 .26168824 .5049896 .5917816 .5419922 .26168824H.30299378Z"/>
<path id="font_3_1" d="M.70599368 .22944641C.7200012 .22944641 .7409973 .22944641 .7409973 .25045777 .7409973 .27246095 .7220001 .27246095 .70599368 .27246095H.42099V.5578003C.42099 .573761 .42099 .59277346 .39898683 .59277346 .37799073 .59277346 .37799073 .57177737 .37799073 .5578003V.27246095H.09199524C.07798767 .27246095 .056991579 .27246095 .056991579 .25144959 .056991579 .22944641 .07598877 .22944641 .09199524 .22944641H.37799073V-.056793214C.37799073-.07279968 .37799073-.091796878 .3999939-.091796878 .42099-.091796878 .42099-.07080078 .42099-.056793214V.22944641H.70599368Z"/>
<path id="font_4_1" d="M.6749878 .22944641C.69299319 .22944641 .71199038 .22944641 .71199038 .25144959 .71199038 .27246095 .69200137 .27246095 .6749878 .27246095H.12298584C.10598755 .27246095 .085998538 .27246095 .085998538 .25144959 .085998538 .22944641 .10499573 .22944641 .12298584 .22944641H.6749878Z"/>
<path id="font_3_4" d="M.0289917 .19602967V.16503906H.3019867V.07901001C.3019867 .041992189 .29899598 .0309906 .22399903 .0309906H.20199585V0C.2649994 .0029907227 .33499146 .0029907227 .34199525 .0029907227 .34700013 .0029907227 .4189911 .0029907227 .48199464 0V.0309906H.45999146C.3849945 .0309906 .38198854 .041992189 .38198854 .07901001V.16503906H.48399354V.19602967H.38198854V.64974978C.38198854 .669754 .38198854 .6767578 .36299134 .6767578 .35099793 .6767578 .34999085 .67575076 .34098817 .66174319L.0289917 .19602967M.06098938 .19602967 .30799867 .56581118V.19602967H.06098938Z"/>
<path id="font_1_2" d="M.16299439 .07595825C.1539917 .039993287 .1519928 .0309906 .07699585 .0309906 .057998659 .0309906 .04699707 .0309906 .04699707 .0129852299 .04699707 0 .056991579 0 .07499695 0H.43899537C.6009979 0 .7200012 .11793518 .7200012 .21485901 .7200012 .28581239 .6609955 .34576417 .56199648 .35676576 .6759949 .37875367 .772995 .4547119 .772995 .54367068 .772995 .6216278 .70098879 .6826172 .58200076 .6826172H.23999024C.22200012 .6826172 .20999146 .6826172 .20999146 .6646118 .20999146 .6516113 .21899414 .6516113 .23999024 .6516113 .24398804 .6516113 .2619934 .6516113 .27799989 .6496124 .29499818 .6476135 .3019867 .6456146 .3019867 .63461306 .3019867 .6296234 .30099488 .6256256 .2979889 .614624L.16299439 .07595825M.31900025 .36776734 .37998963 .6126251C.3889923 .64860537 .3909912 .6516113 .43299867 .6516113H.56799319C.6719971 .6516113 .68099978 .5726471 .68099978 .54766848 .68099978 .45870973 .58799746 .36776734 .47499085 .36776734H.31900025M.2709961 .0309906C.25698854 .0309906 .25498963 .0309906 .25099183 .03199768 .24099732 .032989503 .23799134 .033996583 .23799134 .040985109 .23799134 .04397583 .23799134 .04597473 .24299622 .063964847L.31199647 .34277345H.5C.56199648 .34277345 .625 .31578065 .625 .22485352 .625 .12593079 .5339966 .0309906 .4139862 .0309906H.2709961Z"/>
<path id="font_3_6" d="M.70799258 .3310089C.7220001 .3310089 .7409973 .3310089 .7409973 .35202027 .7409973 .37402345 .71899417 .37402345 .70399478 .37402345H.09399414C.07899475 .37402345 .056991579 .37402345 .056991579 .35202027 .056991579 .3310089 .07699585 .3310089 .08999634 .3310089H.70799258M.70399478 .12695313C.71899417 .12695313 .7409973 .12695313 .7409973 .14894104 .7409973 .1699524 .7220001 .1699524 .70799258 .1699524H.08999634C.07699585 .1699524 .056991579 .1699524 .056991579 .14894104 .056991579 .12695313 .07899475 .12695313 .09399414 .12695313H.70399478Z"/>
<path id="font_3_5" d="M.3789978 .31478883V.2927704C.3789978 .04875183 .2679901 .0055389406 .21099854 .0055389406 .18798828 .0055389406 .13699341 .009552002 .11099243 .042755128H.114990238C.12298584 .040740968 .1619873 .04875183 .1619873 .088760379 .1619873 .11476135 .14399719 .13476563 .115997318 .13476563 .08799744 .13476563 .068984989 .116760257 .068984989 .086761478 .068984989 .020629883 .12199402-.022460938 .21199036-.022460938 .34098817-.022460938 .46998597 .10975647 .46998597 .3287964 .46998597 .5999756 .34999085 .6660156 .2599945 .6660156 .14498902 .6660156 .042999269 .5729675 .042999269 .44187928 .042999269 .31478883 .1349945 .21875 .24798584 .21875 .32099916 .21875 .36099244 .27175904 .3789978 .31478883M.25 .2437439C.23399353 .2437439 .18499756 .2437439 .15299988 .30578614 .13398743 .34381105 .13398743 .39283753 .13398743 .4408722 .13398743 .48890687 .13398743 .5389404 .15499878 .57696536 .18499756 .628006 .22399903 .64100649 .2599945 .64100649 .32798768 .64100649 .35499574 .57196047 .35899354 .5619507 .37298585 .52493289 .3769989 .4638977 .3769989 .42086793 .3769989 .34780885 .34399415 .2437439 .25 .2437439Z"/>
<path id="font_3_2" d="M.47299195 .31976319C.47299195 .38682557 .46998597 .47288514 .43499757 .5479431 .3909912 .64201357 .31498719 .6660156 .25698854 .6660156 .19699097 .6660156 .12098694 .64201357 .07699585 .5459442 .04499817 .47688294 .039993287 .39582826 .039993287 .31976319 .039993287 .25471498 .041992189 .15765381 .084991458 .07858276 .13198853-.0064697267 .20999146-.022460938 .2559967-.022460938 .32099916-.022460938 .394989 .0055389406 .43699647 .097595218 .46699525 .1646576 .47299195 .23971558 .47299195 .31976319M.25698854 .002532959C.22698975 .002532959 .15499878 .016540528 .13598633 .12962342 .12599182 .18867493 .12599182 .2747345 .12599182 .33177186 .12599182 .39982606 .12599182 .47888185 .13798523 .53393557 .1579895 .6230011 .22200012 .64100649 .2559967 .64100649 .2939911 .64100649 .35699464 .62098696 .37599183 .5279236 .3869934 .47288514 .3869934 .39482118 .3869934 .33177186 .3869934 .2697296 .3869934 .18566895 .3769989 .12661743 .35598756 .012542725 .28199769 .002532959 .25698854 .002532959Z"/>
</defs>
<use data-text="x" xlink:href="#font_1_3" transform="matrix(8.966579,0,0,-8.966669,1.5830383,7.1028215)"/>
<use data-text="-" xlink:href="#font_2_64" transform="matrix(8.966579,0,0,-8.966669,9.88221,7.1028215)"/>
<use data-text="t" xlink:href="#font_2_105" transform="matrix(8.966579,0,0,-8.966669,16.024315,7.1028215)"/>
<use data-text="e" xlink:href="#font_2_50" transform="matrix(8.966579,0,0,-8.966669,19.610939,7.1028215)"/>
<use data-text="r" xlink:href="#font_2_96" transform="matrix(8.966579,0,0,-8.966669,23.708672,7.1028215)"/>
<use data-text="m" xlink:href="#font_2_75" transform="matrix(8.966579,0,0,-8.966669,27.313225,7.1028215)"/>
<use data-text="s" xlink:href="#font_2_98" transform="matrix(8.966579,0,0,-8.966669,34.98861,7.1028215)"/>
<path transform="matrix(1.00002,0,0,-1.00003,20.106408,38.411764)" d="M6.81995-5.66927H14.15681C16.35776-5.66927 18.14192-3.8851 18.14192-1.68416V1.68416C18.14192 3.8851 16.35776 5.66927 14.15681 5.66927H6.81995C4.619 5.66927 2.83484 3.8851 2.83484 1.68416V-1.68416C2.83484-3.8851 4.619-5.66927 6.81995-5.66927Z" fill="#ffcccc" fill-opacity=".6"/>
<path transform="matrix(1.00002,0,0,-1.00003,20.106408,38.411764)" stroke-width=".79701" stroke-linecap="butt" stroke-linejoin="round" fill="none" stroke="#000000" d="M6.81995-5.66927H14.15681C16.35776-5.66927 18.14192-3.8851 18.14192-1.68416V1.68416C18.14192 3.8851 16.35776 5.66927 14.15681 5.66927H6.81995C4.619 5.66927 2.83484 3.8851 2.83484 1.68416V-1.68416C2.83484-3.8851 4.619-5.66927 6.81995-5.66927Z"/>
<path transform="matrix(1.00002,0,0,-1.00003,20.106408,38.411764)" d="M39.98567-5.66927H78.78752C80.98845-5.66927 82.77263-3.8851 82.77263-1.68416V1.68416C82.77263 3.8851 80.98845 5.66927 78.78752 5.66927H39.98567C37.78473 5.66927 36.00056 3.8851 36.00056 1.68416V-1.68416C36.00056-3.8851 37.78473-5.66927 39.98567-5.66927Z" fill="#ccccff" fill-opacity=".6"/>
<path transform="matrix(1.00002,0,0,-1.00003,20.106408,38.411764)" stroke-width=".79701" stroke-linecap="butt" stroke-linejoin="round" fill="none" stroke="#000000" d="M39.98567-5.66927H78.78752C80.98845-5.66927 82.77263-3.8851 82.77263-1.68416V1.68416C82.77263 3.8851 80.98845 5.66927 78.78752 5.66927H39.98567C37.78473 5.66927 36.00056 3.8851 36.00056 1.68416V-1.68416C36.00056-3.8851 37.78473-5.66927 39.98567-5.66927Z"/>
<path transform="matrix(1.00002,0,0,-1.00003,20.106408,38.411764)" d="M98.38002-5.66927H98.91393C101.11487-5.66927 102.89903-3.8851 102.89903-1.68416V1.68416C102.89903 3.8851 101.11487 5.66927 98.91393 5.66927H98.38002C96.17908 5.66927 94.39491 3.8851 94.39491 1.68416V-1.68416C94.39491-3.8851 96.17908-5.66927 98.38002-5.66927Z" fill="#ffcccc" fill-opacity=".6"/>
<path transform="matrix(1.00002,0,0,-1.00003,20.106408,38.411764)" stroke-width=".79701" stroke-linecap="butt" stroke-linejoin="round" fill="none" stroke="#000000" d="M98.38002-5.66927H98.91393C101.11487-5.66927 102.89903-3.8851 102.89903-1.68416V1.68416C102.89903 3.8851 101.11487 5.66927 98.91393 5.66927H98.38002C96.17908 5.66927 94.39491 3.8851 94.39491 1.68416V-1.68416C94.39491-3.8851 96.17908-5.66927 98.38002-5.66927Z"/>
<path transform="matrix(1.00002,0,0,-1.00003,20.106408,38.411764)" d="M123.04161-5.66927H123.00845C125.2094-5.66927 126.99356-3.8851 126.99356-1.68416V1.68416C126.99356 3.8851 125.2094 5.66927 123.00845 5.66927H123.04161C120.84067 5.66927 119.0565 3.8851 119.0565 1.68416V-1.68416C119.0565-3.8851 120.84067-5.66927 123.04161-5.66927Z" fill="#ccccff" fill-opacity=".6"/>
<path transform="matrix(1.00002,0,0,-1.00003,20.106408,38.411764)" stroke-width=".79701" stroke-linecap="butt" stroke-linejoin="round" fill="none" stroke="#000000" d="M123.04161-5.66927H123.00845C125.2094-5.66927 126.99356-3.8851 126.99356-1.68416V1.68416C126.99356 3.8851 125.2094 5.66927 123.00845 5.66927H123.04161C120.84067 5.66927 119.0565 3.8851 119.0565 1.68416V-1.68416C119.0565-3.8851 120.84067-5.66927 123.04161-5.66927Z"/>
<use data-text="3" xlink:href="#font_3_3" transform="matrix(8.966579,0,0,-8.966669,25.029503,41.05984)"/>
<use data-text="A" xlink:href="#font_1_1" transform="matrix(8.966579,0,0,-8.966669,29.636597,41.05984)"/>
<use data-text="x" xlink:href="#font_1_3" transform="matrix(8.966579,0,0,-8.966669,39.616395,41.05984)"/>
<use data-text="+" xlink:href="#font_3_1" transform="matrix(8.966579,0,0,-8.966669,46.893938,41.05984)"/>
<use data-text="&#x2212;" xlink:href="#font_4_1" transform="matrix(8.966579,0,0,-8.966669,57.64615,41.05984)"/>
<use data-text="4" xlink:href="#font_3_4" transform="matrix(8.966579,0,0,-8.966669,64.81329,41.05984)"/>
<use data-text="A" xlink:href="#font_1_1" transform="matrix(8.966579,0,0,-8.966669,69.42139,41.05984)"/>
<use data-text="+" xlink:href="#font_3_1" transform="matrix(8.966579,0,0,-8.966669,78.37958,41.05984)"/>
<use data-text="3" xlink:href="#font_3_3" transform="matrix(8.966579,0,0,-8.966669,87.58826,41.05984)"/>
<use data-text="B" xlink:href="#font_1_2" transform="matrix(8.966579,0,0,-8.966669,92.20285,41.05984)"/>
<use data-text="=" xlink:href="#font_3_6" transform="matrix(8.966579,0,0,-8.966669,103.71808,41.05984)"/>
<use data-text="9" xlink:href="#font_3_5" transform="matrix(8.966579,0,0,-8.966669,116.5134,41.05984)"/>
<use data-text="x" xlink:href="#font_1_3" transform="matrix(8.966579,0,0,-8.966669,124.2045,41.05984)"/>
<use data-text="+" xlink:href="#font_3_1" transform="matrix(8.966579,0,0,-8.966669,131.47664,41.05984)"/>
<use data-text="0" xlink:href="#font_3_2" transform="matrix(8.966579,0,0,-8.966669,140.68532,41.05984)"/>
<path transform="matrix(1.00002,0,0,-1.00003,20.106408,38.411764)" stroke-width=".79701" stroke-linecap="butt" stroke-linejoin="round" fill="none" stroke="#000000" d="M0 28.81883V29.49706C0 27.29611 1.78416 25.51195 3.9851 25.51195H60.3046C62.50554 25.51195 64.2897 23.72778 64.2897 21.52684V10.4522"/>
<path transform="matrix(0,1.00003,1.00002,0,84.3974,27.959248)" d="M2.59026 0-1.55415 2.0722 0 0-1.55415-2.0722"/>
</svg>
