<svg xmlns="http://www.w3.org/2000/svg" xmlns:xlink="http://www.w3.org/1999/xlink" version="1.1" width="200" height="170" viewBox="0 0 200 170">
<defs>
<path id="font_1_1" d="M.6749878 .22944641C.69299319 .22944641 .71199038 .22944641 .71199038 .25144959 .71199038 .27246095 .69200137 .27246095 .6749878 .27246095H.12298584C.10598755 .27246095 .085998538 .27246095 .085998538 .25144959 .085998538 .22944641 .10499573 .22944641 .12298584 .22944641H.6749878Z"/>
<path id="font_2_4" d="M.0289917 .19602967V.16503906H.3019867V.07901001C.3019867 .041992189 .29899598 .0309906 .22399903 .0309906H.20199585V0C.2649994 .0029907227 .33499146 .0029907227 .34199525 .0029907227 .34700013 .0029907227 .4189911 .0029907227 .48199464 0V.0309906H.45999146C.3849945 .0309906 .38198854 .041992189 .38198854 .07901001V.16503906H.48399354V.19602967H.38198854V.64974978C.38198854 .669754 .38198854 .6767578 .36299134 .6767578 .35099793 .6767578 .34999085 .67575076 .34098817 .66174319L.0289917 .19602967M.06098938 .19602967 .30799867 .56581118V.19602967H.06098938Z"/>
<path id="font_2_2" d="M.46199037 .17704773H.43399049C.43199159 .16404724 .42399598 .10501099 .41099549 .08900452 .40499879 .07998657 .33599855 .07998657 .31599427 .07998657H.13798523L.23699951 .17404175C.40098573 .3161316 .46199037 .36915589 .46199037 .4711914 .46199037 .5860901 .36698915 .6660156 .24398804 .6660156 .1289978 .6660156 .050994874 .575119 .050994874 .4841919 .050994874 .43418885 .09399414 .42919923 .102996829 .42919923 .125 .42919923 .15499878 .44519044 .15499878 .48120118 .15499878 .51119998 .13398743 .5332031 .102996829 .5332031 .09799194 .5332031 .09498596 .5332031 .09098816 .53219607 .114990238 .6030731 .1789856 .63500979 .23298645 .63500979 .33499146 .63500979 .36999513 .5401764 .36999513 .4711914 .36999513 .36915589 .29299928 .28611756 .24499512 .23408509L.06199646 .035995485C.050994874 .024993897 .050994874 .022994996 .050994874 0H.43399049L.46199037 .17704773Z"/>
<path id="font_2_1" d="M.3039856 .6392822C.3039856 .6642761 .30299378 .666275 .27799989 .666275 .21598816 .60227969 .12399292 .60227969 .09298706 .60227969V.57128909C.11199951 .57128909 .17298889 .57128909 .22698975 .5972748V.08001709C.22698975 .042999269 .22399903 .0309906 .1309967 .0309906H.09899902V0C.1349945 .0029907227 .22399903 .0029907227 .2649994 .0029907227 .30599977 .0029907227 .3959961 .0029907227 .43199159 0V.0309906H.3999939C.30699159 .0309906 .3039856 .042999269 .3039856 .08001709V.6392822Z"/>
<path id="font_2_3" d="M.30499269 .35195924C.397995 .38697816 .44198609 .46006776 .44198609 .5290985 .44198609 .60606387 .35699464 .6660156 .25299073 .6660156 .14898682 .6660156 .070999149 .60705569 .070999149 .5310974 .070999149 .49809266 .09298706 .47909547 .12199402 .47909547 .15098572 .47909547 .17199707 .50009158 .17199707 .5290985 .17199707 .5640869 .147995 .57910159 .11399841 .57910159 .13999939 .6210327 .20098877 .64100649 .25 .64100649 .33299256 .64100649 .34899903 .5750885 .34899903 .52809146 .34899903 .49809266 .34298707 .45005799 .31799317 .41201783 .2869873 .36695863 .2519989 .36495973 .22299195 .36296083 .19799805 .36094667 .19599915 .36094667 .18798828 .36094667 .1789856 .35995484 .17098999 .35894776 .17098999 .34794618 .17098999 .33496095 .1789856 .33496095 .19599915 .33496095H.24299622C.32998658 .33496095 .36799623 .2646637 .36799623 .16937256 .36799623 .04145813 .2999878 .0055389406 .24899292 .0055389406 .22999573 .0055389406 .1329956 .010528564 .08799744 .0843811 .12399292 .07939148 .1519928 .10437012 .1519928 .13838196 .1519928 .17137146 .1269989 .19238281 .09799194 .19238281 .07299805 .19238281 .042999269 .17736817 .042999269 .13537598 .042999269 .046447755 .13598633-.022460938 .2519989-.022460938 .3769989-.022460938 .46998597 .06741333 .46998597 .16937256 .46998597 .25663758 .40098573 .33093263 .30499269 .35195924Z"/>
<clipPath id="clip_3">
<path transform="matrix(1.00002,0,0,-1.00006,4.102104,162.83586)" d="M0 0H194.26425V161.39424H0Z"/>
</clipPath>
<path id="font_4_1" d="M.13699341 .22949219C.19799805 .22949219 .2630005 .22949219 .31599427 .24247742 .4099884 .2654724 .4269867 .32144166 .4269867 .35542298 .4269867 .41238404 .37399293 .4423828 .31498719 .4423828 .19898987 .4423828 .04699707 .3444214 .04699707 .17242432 .04699707 .077316287 .102996829-.0107421879 .21099854-.0107421879 .36099244-.0107421879 .44499208 .09333801 .44499208 .10635376 .44499208 .112350467 .43798829 .12036133 .43099977 .12036133 .42599488 .12036133 .4249878 .11936951 .41600038 .10835266 .35598756 .03427124 .2649994 .014251709 .21299744 .014251709 .14199829 .014251709 .12298584 .081329349 .12298584 .13137818 .12298584 .13337708 .12298584 .16841126 .13699341 .22949219M.14399719 .25448609C.18798828 .41238404 .29899598 .41737367 .31498719 .41737367 .34899903 .41737367 .3899994 .40138246 .3899994 .35542298 .3899994 .25448609 .23899842 .25448609 .14399719 .25448609Z"/>
<path id="font_5_1" d="M.79599 .22436524C.81199648 .22436524 .83699038 .22436524 .83699038 .2503662 .83699038 .2763672 .81199648 .2763672 .79599 .2763672H.1659851C.1499939 .2763672 .125 .2763672 .125 .2503662 .125 .22436524 .1499939 .22436524 .1659851 .22436524H.79599Z"/>
<path id="font_6_1" d="M.35899354 .6349335C.35899354 .66503909 .35499574 .66503909 .32499696 .66503909 .25898744 .60058596 .15699768 .60058596 .12098694 .60058596V.5615845C.14698792 .5615845 .21299744 .5615845 .272995 .58958438V.08496094C.272995 .051986696 .272995 .038986207 .16999817 .038986207H.1269989V0C.18199158 .0039978029 .2599945 .0039978029 .31599427 .0039978029 .37199403 .0039978029 .44999696 .0039978029 .5049896 0V.038986207H.46199037C.35899354 .038986207 .35899354 .051986696 .35899354 .08496094V.6349335Z"/>
<path id="font_7_1" d="M.25 .05999756C.25 .09599304 .22099304 .12098694 .18998719 .12098694 .1539917 .12098694 .1289978 .09199524 .1289978 .06098938 .1289978 .026992798 .1559906 0 .18998719 0 .22200012 0 .25 .027999878 .25 .05999756Z"/>
<path id="font_6_2" d="M.5379944 .18702698H.5009918C.49899293 .17301941 .4889984 .10699463 .47399903 .09599304 .46699525 .08999634 .38598634 .08999634 .37199403 .08999634H.18499756L.31298829 .19403076C.34700013 .22103882 .43598939 .28504945 .46699525 .31506349 .49699403 .3450775 .5379944 .39608766 .5379944 .46710206 .5379944 .5920563 .4249878 .66503909 .29100038 .66503909 .1619873 .66503909 .07199097 .58006289 .07199097 .48609925 .07199097 .43510438 .114990238 .42910768 .12599182 .42910768 .15098572 .42910768 .17999268 .44709779 .17999268 .48310853 .17999268 .50509646 .16699219 .5371094 .12298584 .5371094 .1459961 .5880585 .20698548 .6260376 .27598573 .6260376 .3809967 .6260376 .43699647 .5480957 .43699647 .46710206 .43699647 .39608766 .3899994 .32305909 .31999208 .25904847L.08299255 .041992189C.07299805 .03199768 .07199097 .0309906 .07199097 0H.5069885L.5379944 .18702698Z"/>
<path id="font_7_2" d="M.2689972 .39065553H.37799073C.397995 .39065553 .4119873 .39065553 .4119873 .4156494 .4119873 .43066407 .39898683 .43066407 .3809967 .43066407H.2789917L.31399537 .5685272C.31799317 .58351138 .31799317 .5894928 .31799317 .5904999 .31799317 .6144867 .29899598 .6244812 .2829895 .6244812 .2709961 .6244812 .24499512 .6174774 .23599243 .58551028L.19699097 .43066407H.08898926C.067993167 .43066407 .066986087 .42965699 .06298828 .426651 .057998659 .4226532 .053985597 .4096527 .053985597 .4046631 .056991579 .39065553 .06599426 .39065553 .085998538 .39065553H.18699646L.12799073 .15501404C.12199402 .13204956 .11399841 .09811401 .11399841 .086120609 .11399841 .028213501 .1659851-.009765625 .22698975-.009765625 .34199525-.009765625 .4099884 .12705994 .4099884 .14404297 .4099884 .14703369 .4079895 .15802002 .3909912 .15802002 .37799073 .15802002 .37599183 .1530304 .37098695 .14103699 .33699037 .06616211 .27999879 .023223877 .23098755 .023223877 .19400025 .023223877 .19299317 .060165407 .19299317 .073150638 .19299317 .087127689 .19299317 .08912659 .19799805 .10809326L.2689972 .39065553Z"/>
<path id="font_4_2" d="M.21299744 .3996582H.30799867C.32598878 .3996582 .33799745 .3996582 .33799745 .41766358 .33799745 .43066407 .32798768 .43066407 .30999757 .43066407H.22099304L.2619934 .59646609C.2619934 .6124573 .24899292 .62545779 .23098755 .62545779 .19898987 .62545779 .19099427 .59646609 .18899536 .5864868L.14898682 .43066407H.054992677C.035995485 .43066407 .023986817 .43066407 .023986817 .4126587 .023986817 .3996582 .034988405 .3996582 .052993776 .3996582H.14199829L.07398987 .12808228C.06599426 .09811401 .06599426 .09613037 .06599426 .08215332 .06599426 .023239136 .11099243-.0107421879 .16299439-.0107421879 .2669983-.0107421879 .32598878 .1330719 .32598878 .14305115 .32598878 .14804077 .32299806 .1550293 .31298829 .1550293 .30299378 .1550293 .3019867 .15203858 .29499818 .1350708 .2639923 .06317139 .21398926 .014251709 .16499329 .014251709 .14498902 .014251709 .1329956 .027236939 .1329956 .060180665 .1329956 .08215332 .13598633 .09413147 .13999939 .10910034L.21299744 .3996582Z"/>
<path id="font_1_2" d="M.8509979 .22944641C.7319946 .14404297 .70799258 .012786865 .70799258 .0017852783 .70799258-.012207031 .72099307-.012207031 .72898867-.012207031 .7409973-.012207031 .7480011-.012207031 .7509918 .00079345706 .7779999 .118927 .8470001 .19729615 .95599368 .23745728 .96199038 .23945618 .9700012 .2424469 .9700012 .25045777 .9700012 .25946046 .96299746 .26245118 .95700076 .26445008 .83099368 .31137086 .7739868 .400177 .7509918 .4981537 .7480011 .512146 .74398806 .5131531 .72898867 .5131531 .7200012 .5131531 .70799258 .5131531 .70799258 .4991455 .70799258 .48814393 .7319946 .3562622 .8509979 .27246095H.09399414C.07699585 .27246095 .056991579 .27246095 .056991579 .25144959 .056991579 .22944641 .07598877 .22944641 .09399414 .22944641H.8509979Z"/>
<path id="font_1_3" d="M.5209961 .27322389C.47399903 .33322145 .45700074 .35421754 .41999818 .3822174 .35198976 .43421937 .2919922 .44221498 .25498963 .44221498 .13699341 .44221498 .056991579 .33322145 .056991579 .21524048 .056991579 .100250247 .13398743-.0107421879 .2519989-.0107421879 .3869934-.0107421879 .47099305 .10723877 .5059967 .15823365 .5529938 .09825134 .56999209 .07723999 .6069946 .04925537 .6749878-.002746582 .7350006-.0107421879 .7719879-.0107421879 .8899994-.0107421879 .9700012 .09825134 .9700012 .2162323 .9700012 .33122254 .8929901 .44221498 .7749939 .44221498 .6399994 .44221498 .55599978 .32421876 .5209961 .27322389M.5499878 .2372284C.59599307 .31622315 .673996 .40722657 .7819977 .40722657 .8869934 .40722657 .94499209 .30722047 .94499209 .2162323 .94499209 .115249637 .87098696 .040252687 .7879944 .040252687 .70399478 .040252687 .651001 .10824585 .5499878 .2372284M.47698976 .19422913C.43099977 .115249637 .35299684 .024246216 .24499512 .024246216 .13999939 .024246216 .08198547 .12423706 .08198547 .21524048 .08198547 .31622315 .1559906 .3912201 .23899842 .3912201 .32299806 .3912201 .37599183 .32322694 .47698976 .19422913Z"/>
<path id="font_4_3" d="M.5019989 .38536073C.5029907 .3903656 .5049896 .39637757 .5049896 .40237428 .5049896 .41537477 .49598695 .43138124 .47399903 .43138124 .46099855 .43138124 .44299317 .42337037 .43499757 .40437318 .43399049 .40037538 .42399598 .35935975 .41799928 .33735658L.36799623 .13728333C.3600006 .10827637 .3600006 .106277469 .35798646 .09727478 .35699464 .09327698 .31498719 .014251709 .24299622 .014251709 .18099976 .014251709 .18099976 .07727051 .18099976 .09628296 .18099976 .14129639 .19400025 .19030762 .23699951 .30233766 .24499512 .3253479 .25099183 .33935548 .25099183 .35835267 .25099183 .40737916 .21398926 .4423828 .16499329 .4423828 .068984989 .4423828 .0289917 .30033876 .0289917 .28833009 .0289917 .2793274 .035995485 .27633668 .042999269 .27633668 .053985597 .27633668 .054992677 .28233338 .05899048 .29533387 .07998657 .3693695 .11999512 .41737367 .1619873 .41737367 .18598938 .41737367 .18598938 .39837647 .18598938 .3843689 .18598938 .36735536 .18199158 .34934999 .17298889 .3253479 .12599182 .2013092 .11299133 .15930176 .11299133 .11128235 .11299133 .00024414063 .20298767-.0107421879 .23999024-.0107421879 .2889862-.0107421879 .32398988 .01524353 .34199525 .0332489 .32899476-.017745972 .31799317-.0627594 .2789917-.11276245 .24899292-.15286255 .20899964-.18008423 .16499329-.18008423 .13699341-.18008423 .10398865-.16999817 .08999634-.14176941 .14299011-.14176941 .1499939-.09776306 .1499939-.087768558 .1499939-.06576538 .13398743-.051757814 .11199951-.051757814 .08799744-.051757814 .055999757-.07077026 .055999757-.116760257 .055999757-.16899109 .101989749-.20507813 .16499329-.20507813 .2669983-.20507813 .37599183-.117767337 .40499879-.00074768069L.5019989 .38536073Z"/>
</defs>
<path transform="matrix(1.00002,0,0,-1.00006,4.102104,162.83586)" stroke-width=".19925" stroke-linecap="butt" stroke-miterlimit="10" stroke-linejoin="miter" fill="none" stroke="#929292" d="M2.36906 2.92441V7.16328M49.7506 2.92441V7.16328M144.51364 2.92441V7.16328M191.89517 2.92441V7.16328"/>
<path transform="matrix(1.00002,0,0,-1.00006,4.102104,162.83586)" stroke-width=".19925" stroke-linecap="butt" stroke-miterlimit="10" stroke-linejoin="miter" fill="none" stroke="#929292" d="M95.00624 55.47935H99.25798M95.00624 105.91487H99.25798M95.00624 156.35037H99.25798"/>
<path transform="matrix(1.00002,0,0,-1.00006,4.102104,162.83586)" stroke-width=".3985" stroke-linecap="butt" stroke-miterlimit="10" stroke-linejoin="miter" fill="none" stroke="#000000" d="M0 5.04384H192.27173"/>
<path transform="matrix(1.00002,0,0,-1.00006,196.37769,157.79172)" d="M1.99252 0-1.19551 1.59401 0 0-1.19551-1.59401"/>
<path transform="matrix(1.00002,0,0,-1.00006,4.102104,162.83586)" stroke-width=".3985" stroke-linecap="butt" stroke-miterlimit="10" stroke-linejoin="miter" fill="none" stroke="#000000" d="M97.13213 0V159.40172"/>
<path transform="matrix(0,-1.00006,-1.00002,-0,101.23618,3.424591)" d="M1.99252 0-1.19551 1.59401 0 0-1.19551-1.59401"/>
<use data-text="&#x2212;" xlink:href="#font_1_1" transform="matrix(8.966579,0,0,-8.966938,.5830307,168.87822)"/>
<use data-text="4" xlink:href="#font_2_4" transform="matrix(8.966579,0,0,-8.966938,7.7501757,168.87822)"/>
<use data-text="&#x2212;" xlink:href="#font_1_1" transform="matrix(8.966579,0,0,-8.966938,47.96598,168.87822)"/>
<use data-text="2" xlink:href="#font_2_2" transform="matrix(8.966579,0,0,-8.966938,55.133127,168.87822)"/>
<use data-text="2" xlink:href="#font_2_2" transform="matrix(8.966579,0,0,-8.966938,146.31497,168.87822)"/>
<use data-text="4" xlink:href="#font_2_4" transform="matrix(8.966579,0,0,-8.966938,193.6969,168.87822)"/>
<use data-text="1" xlink:href="#font_2_1" transform="matrix(8.966579,0,0,-8.966938,91.31485,110.24271)"/>
<use data-text="2" xlink:href="#font_2_2" transform="matrix(8.966579,0,0,-8.966938,91.31485,59.80368)"/>
<use data-text="3" xlink:href="#font_2_3" transform="matrix(8.966579,0,0,-8.966938,91.31485,9.365662)"/>
<g clip-path="url(#clip_3)">
<path transform="matrix(1.00002,0,0,-1.00006,4.102104,162.83586)" stroke-width="1.19553" stroke-linecap="butt" stroke-miterlimit="10" stroke-linejoin="miter" fill="none" stroke="#0000ff" d="M2.36906 6133.312 4.28343 5567.0725 6.19781 5053.1345 8.1122 4586.4597 10.02657 4163.003 11.94095 3778.7547 13.85532 3429.998 15.7697 3113.4603 17.68407 2826.164 19.59846 2565.5289 21.51283 2328.9053 23.42722 2114.1158 25.34158 1919.2377 27.25597 1742.3054 29.17033 1581.7385 31.0847 1436.0407 32.9991 1303.8091 34.91348 1183.7723 36.82785 1074.8414 38.74223 975.9783 40.6566 886.2585 42.57097 804.8249 44.48537 730.91708 46.39973 663.83236 48.31412 602.952 50.22849 547.69967 52.14287 497.53968 54.05724 452.0241 55.97162 410.71665 57.886 373.22325 59.80038 339.1968 61.71475 308.318 63.62914 280.2928 65.5435 254.85494 67.45787 231.76894 69.37225 210.81467 71.28665 191.79746 73.20102 174.53876 75.1154 158.87462 77.02977 144.65808 78.94414 131.75754 80.85852 120.04752 82.77289 109.41803 84.68729 99.77359 86.60165 91.01878 88.51604 83.0736 90.4304 75.86258 92.34479 69.31804 94.25916 63.37837 96.17354 57.9882 98.08792 53.10518 100.0023 48.66545 101.91667 44.62975 103.83104 40.97269 105.74542 37.6527 107.65979 34.6413 109.57417 31.90158 111.48857 29.41968 113.40294 27.17018 115.3173 25.12155 117.23169 23.2653 119.14606 21.5853 121.06044 20.0569 122.97482 18.66396 124.8892 17.40799 126.80357 16.26286 128.71796 15.22853 130.63233 14.2858 132.5467 13.43309 134.46108 12.6558 136.37548 11.95473 138.28984 11.3144 140.20423 10.73416 142.11859 10.20929 144.03296 9.73216 145.94734 9.29887 147.86173 8.90561 149.77611 8.54854 151.69048 8.22453 153.60486 7.93056 155.51923 7.66428 157.43361 7.42186 159.34798 7.20177 161.26236 7.00244 163.17675 6.8216 165.09113 6.65689 167.0055 6.50838 168.91988 6.37292 170.83425 6.24979 172.74863 6.13818 174.663 6.03738 176.5774 5.94579 178.49176 5.86191 180.40613 5.78648 182.32051 5.718 184.23488 5.65565 186.14926 5.59949 188.06363 5.54793 189.97803 5.50098 191.8924 5.45865"/>
<path transform="matrix(1.00002,0,0,-1.00006,4.102104,162.83586)" stroke-width="1.19553" stroke-linecap="butt" stroke-miterlimit="10" stroke-linejoin="miter" fill="none" stroke="#ff0000" d="M2.36906 5.45865 4.28343 5.50098 6.19781 5.54793 8.1122 5.59871 10.02657 5.65565 11.94095 5.718 13.85532 5.78648 15.7697 5.86191 17.68407 5.94579 19.59846 6.03738 21.51283 6.13818 23.42722 6.24979 25.34158 6.37292 27.25597 6.5076 29.17033 6.65689 31.0847 6.8216 32.9991 7.00244 34.91348 7.20177 36.82785 7.4211 38.74223 7.66351 40.6566 7.93056 42.57097 8.22453 44.48537 8.54776 46.39973 8.90486 48.31412 9.29811 50.22849 9.73138 52.14287 10.20929 54.05724 10.73416 55.97162 11.3144 57.886 11.9501 59.80038 12.6558 61.71475 13.43309 63.62914 14.2858 65.5435 15.2239 67.45787 16.26286 69.37225 17.40799 71.28665 18.66396 73.20102 20.05153 75.1154 21.57991 77.02977 23.2653 78.94414 25.12155 80.85852 27.1648 82.77289 29.41968 84.68729 31.90158 86.60165 34.63593 88.51604 37.64807 90.4304 40.9673 92.34479 44.62512 94.25916 48.65544 96.17354 53.09981 98.08792 57.9805 100.0023 63.37068 101.91667 69.30957 103.83104 75.85257 105.74542 83.06358 107.65979 91.0057 109.57417 99.75972 111.48857 109.40262 113.40294 120.03136 115.3173 131.73983 117.23169 144.63962 119.14606 158.85308 121.06044 174.51644 122.97482 191.7736 124.8892 210.78543 126.80357 231.7366 128.71796 254.81876 130.63233 280.25276 132.5467 308.2772 134.46108 339.15296 136.37548 373.16783 138.28984 410.66279 140.20423 451.95793 142.11859 497.47273 144.03296 547.62429 145.94734 602.8712 147.86173 663.7415 149.77611 730.8162 151.69048 804.71408 153.60486 886.1323 155.51923 975.8367 157.43361 1074.6906 159.34798 1183.6107 161.26236 1303.6167 163.17675 1435.849 165.09113 1581.5369 167.0055 1742.083 168.91988 1918.9552 170.83425 2113.8387 172.74863 2328.5277 174.663 2565.1048 176.5774 2825.8262 178.49176 3113.0716 180.40613 3429.535 182.32051 3778.266 184.23488 4162.448 186.14926 4585.829 188.06363 5052.428 189.97803 5566.3156 191.8924 6132.555"/>
<use data-text="e" xlink:href="#font_4_1" transform="matrix(13.449869,0,0,-13.450406,127.34007,138.69242)"/>
<use data-text="&#x2212;" xlink:href="#font_5_1" transform="matrix(8.966579,0,0,-8.966937,133.76619,132.2315)"/>
<use data-text="1" xlink:href="#font_6_1" transform="matrix(8.966579,0,0,-8.966937,142.40036,132.2315)"/>
<use data-text="." xlink:href="#font_7_1" transform="matrix(8.966579,0,0,-8.966937,147.87998,132.2315)"/>
<use data-text="2" xlink:href="#font_6_2" transform="matrix(8.966579,0,0,-8.966937,151.28354,132.2315)"/>
<use data-text="t" xlink:href="#font_7_2" transform="matrix(8.966579,0,0,-8.966937,156.76316,132.2315)"/>
<use data-text="e" xlink:href="#font_4_1" transform="matrix(13.449869,0,0,-13.450406,51.68856,138.69242)"/>
<use data-text="1" xlink:href="#font_6_1" transform="matrix(8.966579,0,0,-8.966937,58.114679,132.2315)"/>
<use data-text="." xlink:href="#font_7_1" transform="matrix(8.966579,0,0,-8.966937,63.59429,132.2315)"/>
<use data-text="2" xlink:href="#font_6_2" transform="matrix(8.966579,0,0,-8.966937,66.997859,132.2315)"/>
<use data-text="t" xlink:href="#font_7_2" transform="matrix(8.966579,0,0,-8.966937,72.47747,132.2315)"/>
<path transform="matrix(1.00002,0,0,-1.00006,4.102104,162.83586)" stroke-width=".3985" stroke-linecap="butt" stroke-dasharray="2.98883,2.98883" stroke-miterlimit="10" stroke-linejoin="miter" fill="none" stroke="#000000" d="M144.51364 5.04384H97.13213"/>
<use data-text="t" xlink:href="#font_4_2" transform="matrix(8.966579,0,0,-8.966938,156.50116,167.50414)"/>
<use data-text="&#x2192;" xlink:href="#font_1_2" transform="matrix(8.966579,0,0,-8.966938,162.38828,167.50414)"/>
<use data-text="&#x221e;" xlink:href="#font_1_3" transform="matrix(8.966579,0,0,-8.966938,174.15244,167.50414)"/>
</g>
<use data-text="t" xlink:href="#font_4_2" transform="matrix(8.966579,0,0,-8.966938,191.85486,154.60337)"/>
<use data-text="y" xlink:href="#font_4_3" transform="matrix(8.966579,0,0,-8.966938,104.42411,8.480606)"/>
</svg>
