<svg xmlns="http://www.w3.org/2000/svg" xmlns:xlink="http://www.w3.org/1999/xlink" version="1.1" width="106" height="89" viewBox="0 0 106 89">
<defs>
<path id="font_1_2" d="M.5239868 .6603241C.5279999 .67433169 .5279999 .67633059 .5279999 .68032839 .5279999 .68933108 .5219879 .69433596 .5130005 .69433596 .49899293 .69433596 .41099549 .6863251 .3909912 .6843262 .3809967 .68333438 .36999513 .6823273 .36999513 .665329 .36999513 .6523285 .3809967 .6523285 .39698792 .6523285 .44400025 .6523285 .44400025 .6453247 .44400025 .6363373 .44400025 .6293335 .43499757 .5943451 .42999269 .573349L.41099549 .4963684C.40098573 .45837403 .3909912 .41937257 .38198854 .3803711 .36299134 .41638185 .33198548 .4423828 .2869873 .4423828 .17098999 .4423828 .041992189 .30433656 .041992189 .1512909 .041992189 .041259767 .11199951-.0107421879 .1789856-.0107421879 .24398804-.0107421879 .29699708 .043258668 .31298829 .06227112 .32398988 .007247925 .37399293-.0107421879 .4059906-.0107421879 .43499757-.0107421879 .45999146 .002243042 .48199464 .044265748 .5 .07727051 .5139923 .13928223 .5139923 .14329529 .5139923 .14828491 .5109863 .1552887 .5009918 .1552887 .4889984 .1552887 .48799134 .15029907 .48399354 .13128662 .46199037 .044265748 .43998719 .014251709 .40899659 .014251709 .38398744 .014251709 .37799073 .038253786 .37799073 .060272218 .37799073 .073272708 .3829956 .10127258 .38398744 .104278568L.5239868 .6603241M.31698609 .121276859C.31298829 .105285648 .31199647 .103271488 .29599 .08326721 .2599945 .040252687 .21899414 .014251709 .18199158 .014251709 .1329956 .014251709 .115997318 .06526184 .115997318 .10827637 .115997318 .15730286 .14498902 .27233888 .16899109 .32034303 .20098877 .3803711 .24699402 .41737367 .2869873 .41737367 .35398866 .41737367 .36898805 .3363495 .36898805 .3313446 .36898805 .32635499 .36698915 .32034303 .3659973 .3163452L.31698609 .121276859Z"/>
<path id="font_1_5" d="M.5019989 .38536073C.5029907 .3903656 .5049896 .39637757 .5049896 .40237428 .5049896 .41537477 .49598695 .43138124 .47399903 .43138124 .46099855 .43138124 .44299317 .42337037 .43499757 .40437318 .43399049 .40037538 .42399598 .35935975 .41799928 .33735658L.36799623 .13728333C.3600006 .10827637 .3600006 .106277469 .35798646 .09727478 .35699464 .09327698 .31498719 .014251709 .24299622 .014251709 .18099976 .014251709 .18099976 .07727051 .18099976 .09628296 .18099976 .14129639 .19400025 .19030762 .23699951 .30233766 .24499512 .3253479 .25099183 .33935548 .25099183 .35835267 .25099183 .40737916 .21398926 .4423828 .16499329 .4423828 .068984989 .4423828 .0289917 .30033876 .0289917 .28833009 .0289917 .2793274 .035995485 .27633668 .042999269 .27633668 .053985597 .27633668 .054992677 .28233338 .05899048 .29533387 .07998657 .3693695 .11999512 .41737367 .1619873 .41737367 .18598938 .41737367 .18598938 .39837647 .18598938 .3843689 .18598938 .36735536 .18199158 .34934999 .17298889 .3253479 .12599182 .2013092 .11299133 .15930176 .11299133 .11128235 .11299133 .00024414063 .20298767-.0107421879 .23999024-.0107421879 .2889862-.0107421879 .32398988 .01524353 .34199525 .0332489 .32899476-.017745972 .31799317-.0627594 .2789917-.11276245 .24899292-.15286255 .20899964-.18008423 .16499329-.18008423 .13699341-.18008423 .10398865-.16999817 .08999634-.14176941 .14299011-.14176941 .1499939-.09776306 .1499939-.087768558 .1499939-.06576538 .13398743-.051757814 .11199951-.051757814 .08799744-.051757814 .055999757-.07077026 .055999757-.116760257 .055999757-.16899109 .101989749-.20507813 .16499329-.20507813 .2669983-.20507813 .37599183-.117767337 .40499879-.00074768069L.5019989 .38536073Z"/>
<path id="font_1_4" d="M.49198915 .40434266C.45498658 .39733888 .44400025 .3653412 .44400025 .3503418 .44400025 .33132936 .45799256 .31433106 .48298646 .31433106 .5109863 .31433106 .5379944 .33833314 .5379944 .3733368 .5379944 .41937257 .48799134 .4423828 .44099427 .4423828 .3809967 .4423828 .34599305 .38934327 .33399964 .3683319 .31498719 .41737367 .2709961 .4423828 .22299195 .4423828 .115997318 .4423828 .057998659 .31433106 .057998659 .28833009 .057998659 .2793274 .06498718 .2763214 .07199097 .2763214 .08099365 .2763214 .083999637 .2813263 .085998538 .287323 .116989139 .38633729 .18299866 .41737367 .22099304 .41737367 .25 .41737367 .27598573 .3983307 .27598573 .35133363 .27598573 .31533814 .23298645 .15530396 .21998596 .107284549 .21199036 .076293949 .18199158 .014251709 .1269989 .014251709 .10699463 .014251709 .085998538 .021270752 .07598877 .027282715 .102996829 .032287599 .12298584 .055282594 .12298584 .08128357 .12298584 .106292728 .10398865 .11729431 .084991458 .11729431 .055999757 .11729431 .02999878 .092285159 .02999878 .058288576 .02999878 .009246826 .083999637-.0107421879 .12599182-.0107421879 .18399048-.0107421879 .21798706 .03729248 .23298645 .06428528 .2579956-.0017547608 .31698609-.0107421879 .34399415-.0107421879 .45199586-.0107421879 .5089874 .11929321 .5089874 .14329529 .5089874 .14830017 .5059967 .15530396 .49598695 .15530396 .4850006 .15530396 .48399354 .1512909 .47898866 .1362915 .45700074 .06428528 .39898683 .014251709 .34700013 .014251709 .31799317 .014251709 .29100038 .032287599 .29100038 .08029175 .29100038 .10229492 .30499269 .15730286 .31399537 .1953125 .31799317 .21331787 .34498597 .32133485 .34700013 .32833863 .35899354 .3643341 .3889923 .41737367 .43998719 .41737367 .45799256 .41737367 .47698976 .41436769 .49198915 .40434266Z"/>
<path id="font_2_1" d="M.19599915 .25125123C.19599915 .28025819 .17298889 .30525209 .14199829 .30525209 .11099243 .30525209 .08799744 .28025819 .08799744 .25125123 .08799744 .22225952 .11099243 .19726563 .14199829 .19726563 .17298889 .19726563 .19599915 .22225952 .19599915 .25125123Z"/>
<path id="font_1_3" d="M.13699341 .22949219C.19799805 .22949219 .2630005 .22949219 .31599427 .24247742 .4099884 .2654724 .4269867 .32144166 .4269867 .35542298 .4269867 .41238404 .37399293 .4423828 .31498719 .4423828 .19898987 .4423828 .04699707 .3444214 .04699707 .17242432 .04699707 .077316287 .102996829-.0107421879 .21099854-.0107421879 .36099244-.0107421879 .44499208 .09333801 .44499208 .10635376 .44499208 .112350467 .43798829 .12036133 .43099977 .12036133 .42599488 .12036133 .4249878 .11936951 .41600038 .10835266 .35598756 .03427124 .2649994 .014251709 .21299744 .014251709 .14199829 .014251709 .12298584 .081329349 .12298584 .13137818 .12298584 .13337708 .12298584 .16841126 .13699341 .22949219M.14399719 .25448609C.18798828 .41238404 .29899598 .41737367 .31498719 .41737367 .34899903 .41737367 .3899994 .40138246 .3899994 .35542298 .3899994 .25448609 .23899842 .25448609 .14399719 .25448609Z"/>
<path id="font_3_1" d="M.16999817 .5549774C.20298767 .54599 .23799134 .5419922 .27198792 .5419922 .2939911 .5419922 .34999085 .5419922 .41299439 .5769806 .42999269 .58699038 .49198915 .6279907 .49198915 .6490326 .49198915 .6620331 .48199464 .66503909 .47799684 .66503909 .47499085 .66503909 .47399903 .66503909 .46299745 .661026 .4269867 .6470337 .37599183 .63298037 .31098939 .63298037 .2619934 .63298037 .20799256 .64201357 .16299439 .6590271 .15299988 .6630249 .14898682 .66503909 .14498902 .66503909 .1309967 .66503909 .1309967 .6540375 .1309967 .6380005V.33787538C.1309967 .32086183 .1309967 .30885316 .14898682 .30885316 .1579895 .30885316 .16099549 .31285096 .16799927 .32086183 .19299317 .35289 .23699951 .38693238 .31498719 .38693238 .43798829 .38693238 .43798829 .23677063 .43798829 .20472718 .43798829 .16567993 .43499757 .10961914 .4019928 .068573 .37098695 .030532837 .32499696 .014511108 .28199769 .014511108 .21299744 .014511108 .14399719 .05255127 .11999512 .11061096 .16899109 .11161804 .1749878 .15066529 .1749878 .16267395 .1749878 .18971253 .1539917 .21372986 .12298584 .21372986 .11399841 .21372986 .07199097 .20872498 .07199097 .15867615 .07199097 .0665741 .15899658-.021484375 .2849884-.021484375 .42199708-.021484375 .5379944 .07557678 .5379944 .20072937 .5379944 .31484986 .44599916 .4189453 .31698609 .4189453 .2519989 .4189453 .20199585 .39793397 .16999817 .37091065V.5549774Z"/>
<path id="font_4_1" d="M.5629883 .39352418C.5279999 .38352967 .519989 .3545227 .519989 .33952333 .519989 .30752564 .54599 .30052186 .55999758 .30052186 .58898928 .30052186 .6179962 .32452394 .6179962 .3635254 .6179962 .41740418 .5589905 .44140626 .5079956 .44140626 .44198609 .44140626 .4019928 .3905182 .3909912 .371521 .37799073 .39649964 .33999635 .44140626 .2649994 .44140626 .1499939 .44140626 .08198547 .32252503 .08198547 .28749085 .08198547 .2824707 .085998538 .27345277 .099990848 .27345277 .11399841 .27345277 .116989139 .27946473 .11999512 .28848268 .14498902 .3695221 .21299744 .4084015 .2619934 .4084015 .31098939 .4084015 .32598878 .37652589 .32598878 .34352113 .32598878 .3315277 .32598878 .32252503 .31799317 .29148866 .29499818 .19825745 .272995 .10707092 .2679901 .095077518 .25299073 .05708313 .21699524 .023223877 .1749878 .023223877 .16899109 .023223877 .14099121 .023223877 .117996219 .038085939 .15699768 .051071168 .16099549 .08407593 .16099549 .09207153 .16099549 .11807251 .14099121 .13108826 .12098694 .13108826 .09298706 .13108826 .06298828 .10908508 .06298828 .06808472 .06298828 .011230469 .12599182-.009765625 .17298889-.009765625 .22999573-.009765625 .2709961 .029159546 .2899933 .060073854 .30999757 .018234253 .35798646-.009765625 .4149933-.009765625 .5329895-.009765625 .598999 .111083988 .598999 .14411927 .598999 .14611817 .59799197 .15815735 .5799866 .15815735 .56599429 .15815735 .56399539 .1511383 .5609894 .1421051 .5319977 .05508423 .46099855 .023223877 .4189911 .023223877 .3809967 .023223877 .35398866 .045074464 .35398866 .08708191 .35398866 .1060791 .35899354 .12808228 .36799623 .16316223L.3999939 .2935028C.4099884 .33251954 .4149933 .3505249 .43598939 .37452699 .44999696 .38952638 .47399903 .4084015 .5059967 .4084015 .5109863 .4084015 .54100039 .4084015 .5629883 .39352418Z"/>
<path id="font_5_1" d="M.58898928 .19296265H.5469971C.5439911 .17396546 .5339966 .11198425 .5179901 .101989749 .5099945 .09599304 .42599488 .09599304 .41099549 .09599304H.21499634C.2809906 .14497376 .35499574 .20095825 .4149933 .24093628 .5049896 .30291749 .58898928 .36090089 .58898928 .46687318 .58898928 .59495547 .46798707 .6660156 .32499696 .6660156 .18998719 .6660156 .09098816 .58795168 .09098816 .48986817 .09098816 .4378662 .1349945 .42886354 .14898682 .42886354 .17599488 .42886354 .20799256 .4468689 .20799256 .48786927 .20799256 .52386477 .18199158 .543869 .15098572 .546875 .1789856 .59194949 .23699951 .6220093 .3039856 .6220093 .40098573 .6220093 .48199464 .5639038 .48199464 .4658661 .48199464 .3818817 .42399598 .31791688 .34700013 .2529297L.102996829 .04598999C.09298706 .036987306 .09199524 .036987306 .09098816 .02999878V0H.55599978L.58898928 .19296265Z"/>
<path id="font_6_1" d="M.70599368 .22944641C.7200012 .22944641 .7409973 .22944641 .7409973 .25045777 .7409973 .27246095 .7220001 .27246095 .70599368 .27246095H.42099V.5578003C.42099 .573761 .42099 .59277346 .39898683 .59277346 .37799073 .59277346 .37799073 .57177737 .37799073 .5578003V.27246095H.09199524C.07798767 .27246095 .056991579 .27246095 .056991579 .25144959 .056991579 .22944641 .07598877 .22944641 .09199524 .22944641H.37799073V-.056793214C.37799073-.07279968 .37799073-.091796878 .3999939-.091796878 .42099-.091796878 .42099-.07080078 .42099-.056793214V.22944641H.70599368Z"/>
<path id="font_6_3" d="M.3039856 .6392822C.3039856 .6642761 .30299378 .666275 .27799989 .666275 .21598816 .60227969 .12399292 .60227969 .09298706 .60227969V.57128909C.11199951 .57128909 .17298889 .57128909 .22698975 .5972748V.08001709C.22698975 .042999269 .22399903 .0309906 .1309967 .0309906H.09899902V0C.1349945 .0029907227 .22399903 .0029907227 .2649994 .0029907227 .30599977 .0029907227 .3959961 .0029907227 .43199159 0V.0309906H.3999939C.30699159 .0309906 .3039856 .042999269 .3039856 .08001709V.6392822Z"/>
<path id="font_6_2" d="M.47299195 .31976319C.47299195 .38682557 .46998597 .47288514 .43499757 .5479431 .3909912 .64201357 .31498719 .6660156 .25698854 .6660156 .19699097 .6660156 .12098694 .64201357 .07699585 .5459442 .04499817 .47688294 .039993287 .39582826 .039993287 .31976319 .039993287 .25471498 .041992189 .15765381 .084991458 .07858276 .13198853-.0064697267 .20999146-.022460938 .2559967-.022460938 .32099916-.022460938 .394989 .0055389406 .43699647 .097595218 .46699525 .1646576 .47299195 .23971558 .47299195 .31976319M.25698854 .002532959C.22698975 .002532959 .15499878 .016540528 .13598633 .12962342 .12599182 .18867493 .12599182 .2747345 .12599182 .33177186 .12599182 .39982606 .12599182 .47888185 .13798523 .53393557 .1579895 .6230011 .22200012 .64100649 .2559967 .64100649 .2939911 .64100649 .35699464 .62098696 .37599183 .5279236 .3869934 .47288514 .3869934 .39482118 .3869934 .33177186 .3869934 .2697296 .3869934 .18566895 .3769989 .12661743 .35598756 .012542725 .28199769 .002532959 .25698854 .002532959Z"/>
<path id="font_1_1" d="M.23699951 .35734559C.24198914 .37535096 .25099183 .4093628 .25099183 .41337586 .25099183 .42938233 .23799134 .4423828 .21998596 .4423828 .18798828 .4423828 .17999268 .41337586 .17799378 .4033661L.034988405-.16481018C.0309906-.17881775 .0309906-.18081665 .0309906-.18682862 .0309906-.2038269 .042999269-.21582031 .06199646-.21582031 .09399414-.21582031 .101989749-.18582154 .10499573-.17082215L.15299988 .019256592C.1789856-.0017547608 .21899414-.0107421879 .2519989-.0107421879 .28799439-.0107421879 .33599855 .00024414063 .3880005 .061264039 .3999939 .008255005 .44699098-.0107421879 .48098756-.0107421879 .5099945-.0107421879 .5349884 .002243042 .5569916 .044265748 .57499697 .07727051 .58898928 .13928223 .58898928 .14329529 .58898928 .14828491 .58599856 .1552887 .57598879 .1552887 .56399539 .1552887 .5629883 .15028382 .5589905 .13128662 .5369873 .044265748 .5149994 .014251709 .48399354 .014251709 .45899964 .014251709 .45298768 .038253786 .45298768 .060256959 .45298768 .07926941 .45799256 .09927368 .46699525 .1342926L.49198915 .23731995 .5149994 .32633973C.5209961 .35235597 .5329895 .3983612 .5329895 .40237428 .5329895 .41537477 .5239868 .43138124 .5019989 .43138124 .46998597 .43138124 .46299745 .40437318 .45599366 .37635804L.43499757 .29333497C.4249878 .25332643 .3959961 .13728333 .3889923 .11128235 .3880005 .107284549 .33898927 .014251709 .2559967 .014251709 .18099976 .014251709 .18099976 .08427429 .18099976 .10227966 .18099976 .12528992 .18399048 .14329529 .19499207 .18930054L.23699951 .35734559Z"/>
<path id="font_6_4" d="M.2619934-.25V-.20700073H.16299439V.7069855H.2619934V.75H.11999512V-.25H.2619934Z"/>
<path id="font_6_5" d="M.1639862-.25V.75H.021987915V.7069855H.12098694V-.20700073H.021987915V-.25H.1639862Z"/>
</defs>
<use data-text="d" xlink:href="#font_1_2" transform="matrix(8.966669,0,0,-8.966579,2.9749757,7.8298189)"/>
<use data-text="y" xlink:href="#font_1_5" transform="matrix(8.966669,0,0,-8.966579,7.7452547,7.8298189)"/>
<path transform="matrix(1.00003,0,0,-1.00002,-143.0184,-69.55073)" stroke-width=".3786" stroke-linecap="butt" stroke-miterlimit="10" stroke-linejoin="miter" fill="none" stroke="#000000" d="M145.808-80.936H155.806"/>
<use data-text="d" xlink:href="#font_1_2" transform="matrix(8.966669,0,0,-8.966579,2.7939759,19.71006)"/>
<use data-text="x" xlink:href="#font_1_4" transform="matrix(8.966669,0,0,-8.966579,7.5642397,19.71006)"/>
<path transform="matrix(1.00003,0,0,-1.00002,-143.0184,-69.55073)" stroke-width=".3786" stroke-linecap="butt" stroke-miterlimit="10" stroke-linejoin="miter" fill="none" stroke="#000000" d="M144.612-90.584H157.001"/>
<use data-text="&#x00b7;" xlink:href="#font_2_1" transform="matrix(8.966669,0,0,-8.966579,16.150376,13.098915)"/>
<use data-text="e" xlink:href="#font_1_3" transform="matrix(8.966669,0,0,-8.966579,23.35659,14.040939)"/>
<use data-text="5" xlink:href="#font_3_1" transform="matrix(5.97778,0,0,-5.97772,27.640709,9.733856)"/>
<use data-text="x" xlink:href="#font_4_1" transform="matrix(5.97778,0,0,-5.97772,31.293816,9.733856)"/>
<use data-text="2" xlink:href="#font_5_1" transform="matrix(4.9814498,0,0,-4.9813997,35.46595,7.2248)"/>
<path transform="matrix(1.00003,0,0,-1.00002,-121.25976,-69.138729)" stroke-width=".3786" stroke-linecap="butt" stroke-miterlimit="10" stroke-linejoin="miter" fill="none" stroke="#000000" d="M144.612-84.503H161.107"/>
<use data-text="+" xlink:href="#font_6_1" transform="matrix(8.966669,0,0,-8.966579,45.029245,12.268906)"/>
<use data-text="1" xlink:href="#font_6_3" transform="matrix(8.966669,0,0,-8.966579,58.658655,14.040939)"/>
<use data-text="0" xlink:href="#font_6_2" transform="matrix(8.966669,0,0,-8.966579,63.258554,14.040939)"/>
<use data-text="x" xlink:href="#font_1_4" transform="matrix(8.966669,0,0,-8.966579,67.873928,14.040939)"/>
<use data-text="e" xlink:href="#font_1_3" transform="matrix(8.966669,0,0,-8.966579,73.09252,14.040939)"/>
<use data-text="5" xlink:href="#font_3_1" transform="matrix(5.97778,0,0,-5.97772,77.38221,9.733856)"/>
<use data-text="x" xlink:href="#font_4_1" transform="matrix(5.97778,0,0,-5.97772,81.03532,9.733856)"/>
<use data-text="2" xlink:href="#font_5_1" transform="matrix(4.9814498,0,0,-4.9813997,85.207439,7.2248)"/>
<path transform="matrix(1.00003,0,0,-1.00002,-85.957698,-69.138729)" stroke-width=".3786" stroke-linecap="butt" stroke-miterlimit="10" stroke-linejoin="miter" fill="none" stroke="#000000" d="M144.612-84.503H175.546"/>
<use data-text="&#x00b7;" xlink:href="#font_2_1" transform="matrix(8.966669,0,0,-8.966579,92.689678,13.098915)"/>
<use data-text="y" xlink:href="#font_1_5" transform="matrix(8.966669,0,0,-8.966579,100.0439,12.2969059)"/>
<path transform="matrix(1.00003,0,0,-1.00002,-44.572454,-70.88276)" stroke-width=".3786" stroke-linecap="butt" stroke-miterlimit="10" stroke-linejoin="miter" fill="none" stroke="#000000" d="M144.612-86.246H149.472"/>
<use data-text="d" xlink:href="#font_1_2" transform="matrix(8.966669,0,0,-8.966579,15.448334,40.65747)"/>
<use data-text="y" xlink:href="#font_1_5" transform="matrix(8.966669,0,0,-8.966579,20.218613,40.65747)"/>
<path transform="matrix(1.00003,0,0,-1.00002,-130.54505,-36.723077)" stroke-width=".3786" stroke-linecap="butt" stroke-miterlimit="10" stroke-linejoin="miter" fill="none" stroke="#000000" d="M145.808-80.936H155.806"/>
<use data-text="d" xlink:href="#font_1_2" transform="matrix(8.966669,0,0,-8.966579,15.267334,52.537714)"/>
<use data-text="x" xlink:href="#font_1_4" transform="matrix(8.966669,0,0,-8.966579,20.037598,52.537714)"/>
<use data-text="&#x00b7;" xlink:href="#font_2_1" transform="matrix(8.966669,0,0,-8.966579,27.489716,45.500574)"/>
<use data-text="&#x00b5;" xlink:href="#font_1_1" transform="matrix(8.966669,0,0,-8.966579,34.497926,44.542554)"/>
<use data-text="+" xlink:href="#font_6_1" transform="matrix(8.966669,0,0,-8.966579,45.029245,45.725576)"/>
<use data-text="d" xlink:href="#font_1_2" transform="matrix(8.966669,0,0,-8.966579,57.62361,40.65747)"/>
<use data-text="&#x00b5;" xlink:href="#font_1_1" transform="matrix(8.966669,0,0,-8.966579,62.393877,40.65747)"/>
<path transform="matrix(1.00003,0,0,-1.00002,-88.18877,-36.723077)" stroke-width=".3786" stroke-linecap="butt" stroke-miterlimit="10" stroke-linejoin="miter" fill="none" stroke="#000000" d="M145.808-80.936H156.134"/>
<use data-text="d" xlink:href="#font_1_2" transform="matrix(8.966669,0,0,-8.966579,57.787614,52.537714)"/>
<use data-text="x" xlink:href="#font_1_4" transform="matrix(8.966669,0,0,-8.966579,62.55789,52.537714)"/>
<use data-text="&#x00b7;" xlink:href="#font_2_1" transform="matrix(8.966669,0,0,-8.966579,70.01199,45.500574)"/>
<use data-text="y" xlink:href="#font_1_5" transform="matrix(8.966669,0,0,-8.966579,74.53113,44.542554)"/>
<use data-text="d" xlink:href="#font_1_2" transform="matrix(8.966669,0,0,-8.966579,34.362924,74.67415)"/>
<path transform="matrix(1.00003,0,0,-1.00002,-114.06054,-2.7063943)" stroke-width=".3786" stroke-linecap="butt" stroke-miterlimit="10" stroke-linejoin="miter" fill="none" stroke="#000000" d="M145.808-80.936H155.806"/>
<use data-text="d" xlink:href="#font_1_2" transform="matrix(8.966669,0,0,-8.966579,31.751839,86.5544)"/>
<use data-text="x" xlink:href="#font_1_4" transform="matrix(8.966669,0,0,-8.966579,36.522104,86.5544)"/>
<use data-text="[" xlink:href="#font_6_4" transform="matrix(8.966669,0,0,-8.966579,44.481225,80.47327)"/>
<use data-text="y" xlink:href="#font_1_5" transform="matrix(8.966669,0,0,-8.966579,47.041299,80.47327)"/>
<use data-text="&#x00b7;" xlink:href="#font_2_1" transform="matrix(8.966669,0,0,-8.966579,53.949518,80.47327)"/>
<use data-text="&#x00b5;" xlink:href="#font_1_1" transform="matrix(8.966669,0,0,-8.966579,58.557657,80.47327)"/>
<use data-text="]" xlink:href="#font_6_5" transform="matrix(8.966669,0,0,-8.966579,64.109828,80.47327)"/>
<path transform="matrix(1.00003,0,0,-1.00002,48.61335,100.178668)" stroke-width=".3985" stroke-linecap="butt" stroke-miterlimit="10" stroke-linejoin="miter" fill="none" stroke="#000000" d="M-40.85962 78.91074C-41.26445 73.56763-39.39569 69.44055-35.11319 66.21979"/>
<path transform="matrix(.051821557,-.99865,-.99865999,-.051821039,7.768902,21.263588)" stroke-width=".31879" stroke-linecap="round" stroke-linejoin="round" fill="none" stroke="#000000" d="M-1.19551 1.59401C-1.09587 .99626 0 .09961 .29886 0 0-.09961-1.09587-.99626-1.19551-1.59401"/>
<path transform="matrix(.7847536,.6197824,.6197886,-.78474578,13.511929,33.94696)" stroke-width=".31879" stroke-linecap="round" stroke-linejoin="round" fill="none" stroke="#000000" d="M-1.19551 1.59401C-1.09587 .99626 0 .09961 .29886 0 0-.09961-1.09587-.99626-1.19551-1.59401"/>
<path transform="matrix(1.00003,0,0,-1.00002,48.61335,100.178668)" stroke-width=".3985" stroke-linecap="butt" stroke-miterlimit="10" stroke-linejoin="miter" fill="none" stroke="#000000" d="M-16.89561 84.59622-11.45117 63.1276"/>
<path transform="matrix(-.24577739,-.96929946,-.96930918,.24577493,31.717232,15.5807499)" stroke-width=".31879" stroke-linecap="round" stroke-linejoin="round" fill="none" stroke="#000000" d="M-1.19551 1.59401C-1.09587 .99626 0 .09961 .29886 0 0-.09961-1.09587-.99626-1.19551-1.59401"/>
<path transform="matrix(.24577739,.96929946,.96930918,-.24577493,37.161836,37.0498)" stroke-width=".31879" stroke-linecap="round" stroke-linejoin="round" fill="none" stroke="#000000" d="M-1.19551 1.59401C-1.09587 .99626 0 .09961 .29886 0 0-.09961-1.09587-.99626-1.19551-1.59401"/>
<path transform="matrix(1.00003,0,0,-1.00002,48.61335,100.178668)" stroke-width=".3985" stroke-linecap="butt" stroke-miterlimit="10" stroke-linejoin="miter" fill="none" stroke="#000000" d="M25.24815 84.66571 14.43718 69.30959"/>
<path transform="matrix(.5756373,-.81767639,-.81768456,-.5756315,73.86226,15.511261)" stroke-width=".31879" stroke-linecap="round" stroke-linejoin="round" fill="none" stroke="#000000" d="M-1.19551 1.59401C-1.09587 .99626 0 .09961 .29886 0 0-.09961-1.09587-.99626-1.19551-1.59401"/>
<path transform="matrix(-.5756373,.81767639,.81768456,.5756315,63.050966,30.867684)" stroke-width=".31879" stroke-linecap="round" stroke-linejoin="round" fill="none" stroke="#000000" d="M-1.19551 1.59401C-1.09587 .99626 0 .09961 .29886 0 0-.09961-1.09587-.99626-1.19551-1.59401"/>
<path transform="matrix(1.00003,0,0,-1.00002,48.61335,100.178668)" stroke-width=".3985" stroke-linecap="butt" stroke-miterlimit="10" stroke-linejoin="miter" fill="none" stroke="#000000" d="M53.89479 84.5825C54.83069 71.45772 47.06839 60.39755 34.40724 56.81522"/>
<path transform="matrix(-.05620169,-.9984,-.99841,.056201128,102.499469,15.594078)" stroke-width=".31879" stroke-linecap="round" stroke-linejoin="round" fill="none" stroke="#000000" d="M-1.19551 1.59401C-1.09587 .99626 0 .09961 .29886 0 0-.09961-1.09587-.99626-1.19551-1.59401"/>
<path transform="matrix(-.95804879,.28644575,.28644864,.95803919,83.01811,43.35267)" stroke-width=".31879" stroke-linecap="round" stroke-linejoin="round" fill="none" stroke="#000000" d="M-1.19551 1.59401C-1.09587 .99626 0 .09961 .29886 0 0-.09961-1.09587-.99626-1.19551-1.59401"/>
<path transform="matrix(1.00003,0,0,-1.00002,48.61335,100.178668)" stroke-width=".3985" stroke-linecap="butt" stroke-miterlimit="10" stroke-linejoin="miter" fill="none" stroke="#000000" d="M-1.70073 41.66983V34.86644"/>
<path transform="matrix(1.00003,0,0,-1.00002,48.61335,100.178668)" stroke-width=".3985" stroke-linecap="butt" stroke-miterlimit="10" stroke-linejoin="miter" fill="none" stroke="#000000" d="M1.70073 41.66983V34.86644"/>
</svg>
