<svg xmlns="http://www.w3.org/2000/svg" xmlns:xlink="http://www.w3.org/1999/xlink" version="1.1" width="128" height="31" viewBox="0 0 128 31">
<defs>
<path id="font_1_50" d="M.49899293 .120162967C.49899293 .1251831 .49699403 .13621521 .47999574 .13621521 .46699525 .13621521 .46499635 .13020325 .46099855 .11816406 .43099977 .044204713 .35598756 .025222779 .30999757 .025222779 .25498963 .025222779 .20799256 .050201417 .17999268 .08615112 .14299011 .13320923 .14299011 .19944763 .14299011 .2265625H.46899415C.4909973 .2265625 .49899293 .2265625 .49899293 .25054933 .49899293 .32743836 .45599366 .44628907 .2899933 .44628907 .1499939 .44628907 .04798889 .3394165 .04798889 .2195282 .04798889 .09315491 .16299439-.009765625 .3039856-.009765625 .44799806-.009765625 .49899293 .09815979 .49899293 .120162967M.42599488 .25656129H.14498902C.1559906 .39031983 .24798584 .41427613 .2889862 .41427613 .41799928 .41427613 .4249878 .2855072 .42599488 .25656129Z"/>
<path id="font_1_91" d="M.61698916-.19346619V-.15446472C.5479889-.15446472 .5379944-.15446472 .5379944-.11155701V.44140626H.5049896L.46798707 .3553772C.44898988 .38438417 .39898683 .44140626 .30899049 .44140626 .17399597 .44140626 .053985597 .3443756 .053985597 .21531677 .053985597 .09225464 .16499329-.009765625 .2999878-.009765625 .37199403-.009765625 .4229889 .024230957 .45498658 .059249879V-.11155701C.45498658-.15446472 .44499208-.15446472 .37599183-.15446472V-.19335938C.3829956-.1924591 .45098878-.18945313 .49598695-.18945313 .54100039-.18936157 .6069946-.19236756 .61698916-.19335938V-.19346619M.45899964 .14927674C.45899964 .11427307 .43598939 .085250858 .40899659 .0622406 .36698915 .024230957 .32099916 .022232056 .30599977 .022232056 .21899414 .022232056 .14898682 .10826111 .14898682 .21531677 .14898682 .32435609 .22799683 .4064026 .31799317 .4064026 .4019928 .4064026 .45899964 .32836915 .45899964 .2693329V.14927674Z"/>
<path id="font_1_109" d="M.6259918 .00039672853V.039398195C.55599978 .039398195 .5469971 .046401979 .5469971 .09539795V.44140626L.3849945 .43040467V.3914032C.45498658 .3914032 .46398927 .3843994 .46398927 .33537293V.16828919C.46398927 .07725525 .40098573 .022232056 .32398988 .022232056 .22898865 .022232056 .22499085 .0642395 .22499085 .11326599V.44140626L.06298828 .43040467V.3914032C.14199829 .3914032 .14199829 .3824005 .14199829 .32336427V.16729737C.14199829 .09925842 .14199829 .055236818 .18699646 .022232056 .22499085-.0057678224 .2749939-.009765625 .31698609-.009765625 .37998963-.009735107 .43299867 .015258789 .46798707 .072265628V-.009765625L.6259918 .00039672853Z"/>
<path id="font_1_28" d="M.5799866 .09013367V.14515686H.54299929V.09213257C.54299929 .0821228 .54299929 .037109376 .5039978 .037109376 .46499635 .037109376 .46499635 .0821228 .46499635 .09213257V.29823304C.46499635 .39126588 .36999513 .44628907 .2579956 .44628907 .20999146 .44628907 .09199524 .44128419 .09199524 .35725404 .09199524 .33024598 .10998535 .30822755 .14099121 .30822755 .16999817 .30822755 .18899536 .33024598 .18899536 .35624696 .18899536 .37426759 .18099976 .39126588 .16299439 .39927674 .19599915 .41427613 .24598694 .41427613 .2559967 .41427613 .32699586 .41427613 .38198854 .37225343 .38198854 .29621888V.2702179C.33599855 .268219 .2559967 .2662201 .18299866 .24020386 .116989139 .2171936 .053985597 .17216492 .053985597 .10513306 .053985597 .016220093 .1599884-.009765625 .23799134-.009765625 .32199098-.009765625 .37199403 .032226564 .3939972 .07022095 .40098573 .018112183 .43399049-.0048828127 .46899415-.0048828127 .47299195-.0048828127 .5799866-.0048828127 .5799866 .09010315V.09013367M.38198854 .1421051C.38198854 .038223268 .2789917 .022232056 .24699402 .022232056 .19299317 .022232056 .14199829 .055221559 .14199829 .10522461 .14199829 .16122437 .19599915 .23422241 .38198854 .24023438V.1421051Z"/>
<path id="font_1_72" d="M.30099488 0V.038986207C.23199463 .038986207 .22200012 .038986207 .22200012 .08201599V.69433596L.06399536 .6826172V.6436157C.13398743 .6436157 .14299011 .63661196 .14299011 .5876465V.081970218C.14299011 .038986207 .1329956 .038986207 .06399536 .038986207V0L.18199158 .0039978029C.22200012 .0039978029 .26098634 .0029907227 .30099488 0Z"/>
<path id="font_2_3" d="M.30499269 .35195924C.397995 .38697816 .44198609 .46006776 .44198609 .5290985 .44198609 .60606387 .35699464 .6660156 .25299073 .6660156 .14898682 .6660156 .070999149 .60705569 .070999149 .5310974 .070999149 .49809266 .09298706 .47909547 .12199402 .47909547 .15098572 .47909547 .17199707 .50009158 .17199707 .5290985 .17199707 .5640869 .147995 .57910159 .11399841 .57910159 .13999939 .6210327 .20098877 .64100649 .25 .64100649 .33299256 .64100649 .34899903 .5750885 .34899903 .52809146 .34899903 .49809266 .34298707 .45005799 .31799317 .41201783 .2869873 .36695863 .2519989 .36495973 .22299195 .36296083 .19799805 .36094667 .19599915 .36094667 .18798828 .36094667 .1789856 .35995484 .17098999 .35894776 .17098999 .34794618 .17098999 .33496095 .1789856 .33496095 .19599915 .33496095H.24299622C.32998658 .33496095 .36799623 .2646637 .36799623 .16937256 .36799623 .04145813 .2999878 .0055389406 .24899292 .0055389406 .22999573 .0055389406 .1329956 .010528564 .08799744 .0843811 .12399292 .07939148 .1519928 .10437012 .1519928 .13838196 .1519928 .17137146 .1269989 .19238281 .09799194 .19238281 .07299805 .19238281 .042999269 .17736817 .042999269 .13537598 .042999269 .046447755 .13598633-.022460938 .2519989-.022460938 .3769989-.022460938 .46998597 .06741333 .46998597 .16937256 .46998597 .25663758 .40098573 .33093263 .30499269 .35195924Z"/>
<path id="font_3_1" d="M.18199158 .116867069C.1329956 .036987306 .08898926 .033981325 .04899597 .0309906 .041992189 .02999878 .036987306 .021987915 .036987306 .0129852299 .036987306 .0069885256 .040985109 0 .050994874 0 .069992069 0 .116989139 .0029907227 .13598633 .0029907227 .1579895 .0029907227 .21199036 0 .23399353 0 .23999024 0 .25299073 0 .25299073 .017990113 .25299073 .02999878 .24099732 .0309906 .23799134 .0309906 .22898865 .03199768 .19099427 .033981325 .19099427 .063949588 .19099427 .077926639 .20199585 .09689331 .20498657 .101882938L.28399659 .23068238H.54499819C.5479889 .2077179 .5509949 .17378235 .55400088 .14881897 .55799868 .10987854 .56399539 .06593323 .56399539 .062942508 .56399539 .047973634 .5499878 .0309906 .49198915 .0309906 .48199464 .0309906 .46899415 .0309906 .46899415 .0129852299 .46899415 .0019989014 .47698976 0 .48399354 0 .5029907 0 .5269928 .0019989014 .5469971 .0019989014 .5669861 .0019989014 .59098818 .0029907227 .6069946 .0029907227 .6399994 .0029907227 .6419983 .0029907227 .66600039 .0019989014 .6819916 .0009918213 .7049866 0 .72099307 0 .72698977 0 .73999026 0 .73999026 .017990113 .73999026 .0309906 .72898867 .0309906 .71699526 .0309906 .6569977 .0309906 .6559906 .037979127 .6529999 .06694031L.58299258 .68881228C.58099368 .7108154 .5799866 .7158203 .5629883 .7158203 .548996 .7158203 .54299929 .7088165 .5349884 .69581606L.18199158 .116867069M.30299378 .26168824 .5049896 .5917816 .5419922 .26168824H.30299378Z"/>
<path id="font_3_3" d="M.49198915 .40434266C.45498658 .39733888 .44400025 .3653412 .44400025 .3503418 .44400025 .33132936 .45799256 .31433106 .48298646 .31433106 .5109863 .31433106 .5379944 .33833314 .5379944 .3733368 .5379944 .41937257 .48799134 .4423828 .44099427 .4423828 .3809967 .4423828 .34599305 .38934327 .33399964 .3683319 .31498719 .41737367 .2709961 .4423828 .22299195 .4423828 .115997318 .4423828 .057998659 .31433106 .057998659 .28833009 .057998659 .2793274 .06498718 .2763214 .07199097 .2763214 .08099365 .2763214 .083999637 .2813263 .085998538 .287323 .116989139 .38633729 .18299866 .41737367 .22099304 .41737367 .25 .41737367 .27598573 .3983307 .27598573 .35133363 .27598573 .31533814 .23298645 .15530396 .21998596 .107284549 .21199036 .076293949 .18199158 .014251709 .1269989 .014251709 .10699463 .014251709 .085998538 .021270752 .07598877 .027282715 .102996829 .032287599 .12298584 .055282594 .12298584 .08128357 .12298584 .106292728 .10398865 .11729431 .084991458 .11729431 .055999757 .11729431 .02999878 .092285159 .02999878 .058288576 .02999878 .009246826 .083999637-.0107421879 .12599182-.0107421879 .18399048-.0107421879 .21798706 .03729248 .23298645 .06428528 .2579956-.0017547608 .31698609-.0107421879 .34399415-.0107421879 .45199586-.0107421879 .5089874 .11929321 .5089874 .14329529 .5089874 .14830017 .5059967 .15530396 .49598695 .15530396 .4850006 .15530396 .48399354 .1512909 .47898866 .1362915 .45700074 .06428528 .39898683 .014251709 .34700013 .014251709 .31799317 .014251709 .29100038 .032287599 .29100038 .08029175 .29100038 .10229492 .30499269 .15730286 .31399537 .1953125 .31799317 .21331787 .34498597 .32133485 .34700013 .32833863 .35899354 .3643341 .3889923 .41737367 .43998719 .41737367 .45799256 .41737367 .47698976 .41436769 .49198915 .40434266Z"/>
<path id="font_2_1" d="M.70599368 .22944641C.7200012 .22944641 .7409973 .22944641 .7409973 .25045777 .7409973 .27246095 .7220001 .27246095 .70599368 .27246095H.42099V.5578003C.42099 .573761 .42099 .59277346 .39898683 .59277346 .37799073 .59277346 .37799073 .57177737 .37799073 .5578003V.27246095H.09199524C.07798767 .27246095 .056991579 .27246095 .056991579 .25144959 .056991579 .22944641 .07598877 .22944641 .09199524 .22944641H.37799073V-.056793214C.37799073-.07279968 .37799073-.091796878 .3999939-.091796878 .42099-.091796878 .42099-.07080078 .42099-.056793214V.22944641H.70599368Z"/>
<path id="font_4_1" d="M.6749878 .22944641C.69299319 .22944641 .71199038 .22944641 .71199038 .25144959 .71199038 .27246095 .69200137 .27246095 .6749878 .27246095H.12298584C.10598755 .27246095 .085998538 .27246095 .085998538 .25144959 .085998538 .22944641 .10499573 .22944641 .12298584 .22944641H.6749878Z"/>
<path id="font_2_4" d="M.0289917 .19602967V.16503906H.3019867V.07901001C.3019867 .041992189 .29899598 .0309906 .22399903 .0309906H.20199585V0C.2649994 .0029907227 .33499146 .0029907227 .34199525 .0029907227 .34700013 .0029907227 .4189911 .0029907227 .48199464 0V.0309906H.45999146C.3849945 .0309906 .38198854 .041992189 .38198854 .07901001V.16503906H.48399354V.19602967H.38198854V.64974978C.38198854 .669754 .38198854 .6767578 .36299134 .6767578 .35099793 .6767578 .34999085 .67575076 .34098817 .66174319L.0289917 .19602967M.06098938 .19602967 .30799867 .56581118V.19602967H.06098938Z"/>
<path id="font_3_2" d="M.16299439 .07595825C.1539917 .039993287 .1519928 .0309906 .07699585 .0309906 .057998659 .0309906 .04699707 .0309906 .04699707 .0129852299 .04699707 0 .056991579 0 .07499695 0H.43899537C.6009979 0 .7200012 .11793518 .7200012 .21485901 .7200012 .28581239 .6609955 .34576417 .56199648 .35676576 .6759949 .37875367 .772995 .4547119 .772995 .54367068 .772995 .6216278 .70098879 .6826172 .58200076 .6826172H.23999024C.22200012 .6826172 .20999146 .6826172 .20999146 .6646118 .20999146 .6516113 .21899414 .6516113 .23999024 .6516113 .24398804 .6516113 .2619934 .6516113 .27799989 .6496124 .29499818 .6476135 .3019867 .6456146 .3019867 .63461306 .3019867 .6296234 .30099488 .6256256 .2979889 .614624L.16299439 .07595825M.31900025 .36776734 .37998963 .6126251C.3889923 .64860537 .3909912 .6516113 .43299867 .6516113H.56799319C.6719971 .6516113 .68099978 .5726471 .68099978 .54766848 .68099978 .45870973 .58799746 .36776734 .47499085 .36776734H.31900025M.2709961 .0309906C.25698854 .0309906 .25498963 .0309906 .25099183 .03199768 .24099732 .032989503 .23799134 .033996583 .23799134 .040985109 .23799134 .04397583 .23799134 .04597473 .24299622 .063964847L.31199647 .34277345H.5C.56199648 .34277345 .625 .31578065 .625 .22485352 .625 .12593079 .5339966 .0309906 .4139862 .0309906H.2709961Z"/>
<path id="font_2_6" d="M.70799258 .3310089C.7220001 .3310089 .7409973 .3310089 .7409973 .35202027 .7409973 .37402345 .71899417 .37402345 .70399478 .37402345H.09399414C.07899475 .37402345 .056991579 .37402345 .056991579 .35202027 .056991579 .3310089 .07699585 .3310089 .08999634 .3310089H.70799258M.70399478 .12695313C.71899417 .12695313 .7409973 .12695313 .7409973 .14894104 .7409973 .1699524 .7220001 .1699524 .70799258 .1699524H.08999634C.07699585 .1699524 .056991579 .1699524 .056991579 .14894104 .056991579 .12695313 .07899475 .12695313 .09399414 .12695313H.70399478Z"/>
<path id="font_2_5" d="M.3789978 .31478883V.2927704C.3789978 .04875183 .2679901 .0055389406 .21099854 .0055389406 .18798828 .0055389406 .13699341 .009552002 .11099243 .042755128H.114990238C.12298584 .040740968 .1619873 .04875183 .1619873 .088760379 .1619873 .11476135 .14399719 .13476563 .115997318 .13476563 .08799744 .13476563 .068984989 .116760257 .068984989 .086761478 .068984989 .020629883 .12199402-.022460938 .21199036-.022460938 .34098817-.022460938 .46998597 .10975647 .46998597 .3287964 .46998597 .5999756 .34999085 .6660156 .2599945 .6660156 .14498902 .6660156 .042999269 .5729675 .042999269 .44187928 .042999269 .31478883 .1349945 .21875 .24798584 .21875 .32099916 .21875 .36099244 .27175904 .3789978 .31478883M.25 .2437439C.23399353 .2437439 .18499756 .2437439 .15299988 .30578614 .13398743 .34381105 .13398743 .39283753 .13398743 .4408722 .13398743 .48890687 .13398743 .5389404 .15499878 .57696536 .18499756 .628006 .22399903 .64100649 .2599945 .64100649 .32798768 .64100649 .35499574 .57196047 .35899354 .5619507 .37298585 .52493289 .3769989 .4638977 .3769989 .42086793 .3769989 .34780885 .34399415 .2437439 .25 .2437439Z"/>
<path id="font_2_2" d="M.47299195 .31976319C.47299195 .38682557 .46998597 .47288514 .43499757 .5479431 .3909912 .64201357 .31498719 .6660156 .25698854 .6660156 .19699097 .6660156 .12098694 .64201357 .07699585 .5459442 .04499817 .47688294 .039993287 .39582826 .039993287 .31976319 .039993287 .25471498 .041992189 .15765381 .084991458 .07858276 .13198853-.0064697267 .20999146-.022460938 .2559967-.022460938 .32099916-.022460938 .394989 .0055389406 .43699647 .097595218 .46699525 .1646576 .47299195 .23971558 .47299195 .31976319M.25698854 .002532959C.22698975 .002532959 .15499878 .016540528 .13598633 .12962342 .12599182 .18867493 .12599182 .2747345 .12599182 .33177186 .12599182 .39982606 .12599182 .47888185 .13798523 .53393557 .1579895 .6230011 .22200012 .64100649 .2559967 .64100649 .2939911 .64100649 .35699464 .62098696 .37599183 .5279236 .3869934 .47288514 .3869934 .39482118 .3869934 .33177186 .3869934 .2697296 .3869934 .18566895 .3769989 .12661743 .35598756 .012542725 .28199769 .002532959 .25698854 .002532959Z"/>
</defs>
<use data-text="e" xlink:href="#font_1_50" transform="matrix(5.9780786,0,0,-5.9778988,30.428353,11.405921)"/>
<use data-text="q" xlink:href="#font_1_91" transform="matrix(5.9780786,0,0,-5.9778988,33.692384,11.405921)"/>
<use data-text="u" xlink:href="#font_1_109" transform="matrix(5.9780786,0,0,-5.9778988,37.54226,11.405921)"/>
<use data-text="a" xlink:href="#font_1_28" transform="matrix(5.9780786,0,0,-5.9778988,41.583436,11.405921)"/>
<use data-text="l" xlink:href="#font_1_72" transform="matrix(5.9780786,0,0,-5.9778988,45.236047,11.405921)"/>
<use data-text="e" xlink:href="#font_1_50" transform="matrix(5.9780786,0,0,-5.9778988,87.12689,5.736639)"/>
<use data-text="q" xlink:href="#font_1_91" transform="matrix(5.9780786,0,0,-5.9778988,90.39092,5.736639)"/>
<use data-text="u" xlink:href="#font_1_109" transform="matrix(5.9780786,0,0,-5.9778988,94.2408,5.736639)"/>
<use data-text="a" xlink:href="#font_1_28" transform="matrix(5.9780786,0,0,-5.9778988,98.281978,5.736639)"/>
<use data-text="l" xlink:href="#font_1_72" transform="matrix(5.9780786,0,0,-5.9778988,101.934589,5.736639)"/>
<use data-text="3" xlink:href="#font_2_3" transform="matrix(8.967117,0,0,-8.966848,4.1192476,26.733687)"/>
<use data-text="A" xlink:href="#font_3_1" transform="matrix(8.967117,0,0,-8.966848,8.727615,26.733687)"/>
<use data-text="x" xlink:href="#font_3_3" transform="matrix(8.967117,0,0,-8.966848,18.699044,26.733687)"/>
<use data-text="+" xlink:href="#font_2_1" transform="matrix(8.967117,0,0,-8.966848,25.985993,26.733687)"/>
<use data-text="&#x2212;" xlink:href="#font_4_1" transform="matrix(8.967117,0,0,-8.966848,36.73786,26.733687)"/>
<use data-text="4" xlink:href="#font_2_4" transform="matrix(8.967117,0,0,-8.966848,43.906427,26.733687)"/>
<use data-text="A" xlink:href="#font_3_1" transform="matrix(8.967117,0,0,-8.966848,48.5138,26.733687)"/>
<use data-text="+" xlink:href="#font_2_1" transform="matrix(8.967117,0,0,-8.966848,57.472497,26.733687)"/>
<use data-text="3" xlink:href="#font_2_3" transform="matrix(8.967117,0,0,-8.966848,66.68174,26.733687)"/>
<use data-text="B" xlink:href="#font_3_2" transform="matrix(8.967117,0,0,-8.966848,71.29661,26.733687)"/>
<use data-text="=" xlink:href="#font_2_6" transform="matrix(8.967117,0,0,-8.966848,82.81353,26.733687)"/>
<use data-text="9" xlink:href="#font_2_5" transform="matrix(8.967117,0,0,-8.966848,95.60961,26.733687)"/>
<use data-text="x" xlink:href="#font_3_3" transform="matrix(8.967117,0,0,-8.966848,103.301189,26.733687)"/>
<use data-text="+" xlink:href="#font_2_1" transform="matrix(8.967117,0,0,-8.966848,110.57276,26.733687)"/>
<use data-text="0" xlink:href="#font_2_2" transform="matrix(8.967117,0,0,-8.966848,119.78199,26.733687)"/>
<path transform="matrix(1.00008,0,0,-1.00005,-.8041458,24.085555)" d="M6.81995-5.66927H14.15681C16.35776-5.66927 18.14192-3.8851 18.14192-1.68416V1.68416C18.14192 3.8851 16.35776 5.66927 14.15681 5.66927H6.81995C4.619 5.66927 2.83484 3.8851 2.83484 1.68416V-1.68416C2.83484-3.8851 4.619-5.66927 6.81995-5.66927Z" fill="#ffcccc" fill-opacity=".2"/>
<path transform="matrix(1.00008,0,0,-1.00005,-.8041458,24.085555)" stroke-width=".3985" stroke-linecap="butt" stroke-linejoin="round" fill="none" stroke="#ff0000" d="M6.81995-5.66927H14.15681C16.35776-5.66927 18.14192-3.8851 18.14192-1.68416V1.68416C18.14192 3.8851 16.35776 5.66927 14.15681 5.66927H6.81995C4.619 5.66927 2.83484 3.8851 2.83484 1.68416V-1.68416C2.83484-3.8851 4.619-5.66927 6.81995-5.66927Z"/>
<path transform="matrix(1.00008,0,0,-1.00005,-.8041458,24.085555)" d="M39.98567-5.66927H78.78752C80.98845-5.66927 82.77263-3.8851 82.77263-1.68416V1.68416C82.77263 3.8851 80.98845 5.66927 78.78752 5.66927H39.98567C37.78473 5.66927 36.00056 3.8851 36.00056 1.68416V-1.68416C36.00056-3.8851 37.78473-5.66927 39.98567-5.66927Z" fill="#ccccff" fill-opacity=".2"/>
<path transform="matrix(1.00008,0,0,-1.00005,-.8041458,24.085555)" stroke-width=".3985" stroke-linecap="butt" stroke-linejoin="round" fill="none" stroke="#0000ff" d="M39.98567-5.66927H78.78752C80.98845-5.66927 82.77263-3.8851 82.77263-1.68416V1.68416C82.77263 3.8851 80.98845 5.66927 78.78752 5.66927H39.98567C37.78473 5.66927 36.00056 3.8851 36.00056 1.68416V-1.68416C36.00056-3.8851 37.78473-5.66927 39.98567-5.66927Z"/>
<path transform="matrix(1.00008,0,0,-1.00005,-.8041458,24.085555)" d="M98.38002-5.66927H98.91393C101.11487-5.66927 102.89903-3.8851 102.89903-1.68416V1.68416C102.89903 3.8851 101.11487 5.66927 98.91393 5.66927H98.38002C96.17908 5.66927 94.39491 3.8851 94.39491 1.68416V-1.68416C94.39491-3.8851 96.17908-5.66927 98.38002-5.66927Z" fill="#ffcccc" fill-opacity=".2"/>
<path transform="matrix(1.00008,0,0,-1.00005,-.8041458,24.085555)" stroke-width=".3985" stroke-linecap="butt" stroke-linejoin="round" fill="none" stroke="#ff0000" d="M98.38002-5.66927H98.91393C101.11487-5.66927 102.89903-3.8851 102.89903-1.68416V1.68416C102.89903 3.8851 101.11487 5.66927 98.91393 5.66927H98.38002C96.17908 5.66927 94.39491 3.8851 94.39491 1.68416V-1.68416C94.39491-3.8851 96.17908-5.66927 98.38002-5.66927Z"/>
<path transform="matrix(1.00008,0,0,-1.00005,-.8041458,24.085555)" d="M123.04161-5.66927H123.00845C125.2094-5.66927 126.99356-3.8851 126.99356-1.68416V1.68416C126.99356 3.8851 125.2094 5.66927 123.00845 5.66927H123.04161C120.84067 5.66927 119.0565 3.8851 119.0565 1.68416V-1.68416C119.0565-3.8851 120.84067-5.66927 123.04161-5.66927Z" fill="#ccccff" fill-opacity=".2"/>
<path transform="matrix(1.00008,0,0,-1.00005,-.8041458,24.085555)" stroke-width=".3985" stroke-linecap="butt" stroke-linejoin="round" fill="none" stroke="#0000ff" d="M123.04161-5.66927H123.00845C125.2094-5.66927 126.99356-3.8851 126.99356-1.68416V1.68416C126.99356 3.8851 125.2094 5.66927 123.00845 5.66927H123.04161C120.84067 5.66927 119.0565 3.8851 119.0565 1.68416V-1.68416C119.0565-3.8851 120.84067-5.66927 123.04161-5.66927Z"/>
<path transform="matrix(1.00008,0,0,-1.00005,-.8041458,24.085555)" stroke-width=".3985" stroke-linecap="butt" stroke-linejoin="round" fill="none" stroke="#000000" d="M28.8392 14.17339H30.1273C27.92636 14.17339 24.35803 14.17339 22.15709 14.17339H15.8907C13.68976 14.17339 11.9056 12.38922 11.9056 10.18828V9.21066"/>
<path transform="matrix(0,1.00005,1.00008,0,11.1024069,14.874434)" d="M1.99252 0-1.19551 1.59401 0 0-1.19551-1.59401"/>
<path transform="matrix(1.00008,0,0,-1.00005,-.8041458,24.085555)" stroke-width=".3985" stroke-linecap="butt" stroke-linejoin="round" fill="none" stroke="#000000" d="M50.5315 14.17339H49.2434C51.44434 14.17339 55.01266 14.17339 57.21361 14.17339H94.66165C96.8626 14.17339 98.64676 12.38922 98.64676 10.18828V9.21066"/>
<path transform="matrix(0,1.00005,1.00008,0,97.8505,14.874434)" d="M1.99252 0-1.19551 1.59401 0 0-1.19551-1.59401"/>
<path transform="matrix(1.00008,0,0,-1.00005,-.8041458,24.085555)" stroke-width=".3985" stroke-linecap="butt" stroke-linejoin="round" fill="none" stroke="#000000" d="M85.53282 19.84267H86.82092C84.61998 19.84267 81.05165 19.84267 78.85071 19.84267H63.37169C61.17075 19.84267 59.38658 18.0585 59.38658 15.85756V9.21066"/>
<path transform="matrix(0,1.00005,1.00008,0,58.587186,14.874434)" d="M1.99252 0-1.19551 1.59401 0 0-1.19551-1.59401"/>
<path transform="matrix(1.00008,0,0,-1.00005,-.8041458,24.085555)" stroke-width=".3985" stroke-linecap="butt" stroke-linejoin="round" fill="none" stroke="#000000" d="M107.22511 19.84267H105.93701C108.13795 19.84267 111.70628 19.84267 113.90723 19.84267H119.03993C121.24088 19.84267 123.02504 18.0585 123.02504 15.85756V9.21066"/>
<path transform="matrix(0,1.00005,1.00008,0,122.230739,14.874434)" d="M1.99252 0-1.19551 1.59401 0 0-1.19551-1.59401"/>
</svg>
