<svg xmlns="http://www.w3.org/2000/svg" xmlns:xlink="http://www.w3.org/1999/xlink" version="1.1" width="222" height="41" viewBox="0 0 222 41">
<defs>
<path id="font_1_107" d="M.47698976 .17900086H.44599916C.44299317 .15899658 .43499757 .10899353 .4229889 .08999634 .4169922 .08198547 .34098817 .08198547 .32499696 .08198547H.14698792L.28199769 .20399475C.2979889 .2190094 .33999635 .2519989 .35598756 .26600648 .41799928 .3230133 .47698976 .37802125 .47698976 .46902467 .47698976 .58802798 .3769989 .66503909 .2519989 .66503909 .13198853 .6651764 .052993776 .574173 .052993776 .48516847 .052993776 .4361725 .09199524 .4291687 .10598755 .4291687 .1269989 .4291687 .1579895 .4441681 .1579895 .48217774 .1579895 .5341797 .10798645 .5341797 .09599304 .5341797 .125 .6070709 .19198609 .6320343 .24099732 .6320343 .33399964 .6320343 .38198854 .55314639 .38198854 .46917726 .38198854 .36517335 .30899049 .2891693 .19099427 .16816712L.06498718 .03817749C.052993776 .026992798 .052993776 .024993897 .052993776 0H.44799806L.47698976 .17900086Z"/>
<path id="font_1_47" d="M.55400088 0V.032989503C.48599244 .032989503 .47799684 .039993287 .47799684 .089019779V.69433596L.32899476 .6826172V.6496124C.39698792 .6496124 .40499879 .64263918 .40499879 .5938263V.38339234C.36999513 .42140199 .32299806 .44140626 .2709961 .44140626 .1459961 .44140626 .034988405 .3443756 .034988405 .21531677 .034988405 .09225464 .1349945-.009765625 .26098634-.009765625 .31999208-.009765625 .36898805 .018234253 .4019928 .053237916V-.009765625L.55400088 0M.4019928 .12399292C.4019928 .10598755 .4019928 .101989749 .3869934 .08198547 .35899354 .042236329 .31298829 .018234253 .2659912 .018234253 .21998596 .018234253 .17999268 .042236329 .1559906 .07925415 .1289978 .118270877 .12399292 .16729737 .12399292 .21430969 .12399292 .27233888 .1329956 .3133545 .1559906 .3483734 .17999268 .38539125 .22499085 .4133911 .27598573 .4133911 .32398988 .4133911 .37199403 .38938905 .4019928 .33737184V.12399292Z"/>
<path id="font_1_50" d="M.44099427 .12036133C.44099427 .12435913 .43798829 .13438416 .4249878 .13438416 .4139862 .13438416 .4119873 .12736511 .4099884 .12136841 .37399293 .024230957 .28799439 .021224976 .269989 .021224976 .22499085 .021224976 .1789856 .042251588 .14898682 .08831787 .11898804 .13438416 .11898804 .19847107 .11898804 .22851563H.41299439C.43499757 .22851563 .44099427 .22851563 .44099427 .25151063 .44099427 .34039308 .3919983 .44628907 .25099183 .44628907 .1269989 .44628907 .02999878 .3433838 .02999878 .21949768 .02999878 .09031677 .13798523-.009765625 .2639923-.009765625 .3909912-.009765625 .44099427 .097335819 .44099427 .12036133M.37298585 .25450135H.11999512C.1289978 .39431764 .21398926 .41827394 .25099183 .41827394 .36799623 .41827394 .37199403 .27748109 .37298585 .25450135Z"/>
<path id="font_1_96" d="M.38398744 .3784027C.38398744 .4133911 .35198976 .44140626 .30799867 .44140626 .24299622 .44140626 .19898987 .39239503 .17799378 .33639527H.1769867V.44140626L.034988405 .43045045V.39746095C.102996829 .39746095 .11099243 .3904419 .11099243 .3413849V.078048709C.11099243 .032989503 .09899902 .032989503 .034988405 .032989503V0C.07398987 .0029907227 .1289978 .0029907227 .15299988 .0029907227 .21199036 .0029907227 .21398926 .0029907227 .2789917 0V.032989503H.25898744C.18598938 .032989503 .18399048 .044006349 .18399048 .08004761V.22824097C.18399048 .30332948 .21499634 .41145326 .31098939 .41345216 .30499269 .40899659 .29499818 .40098573 .29499818 .37799073 .29499818 .34700013 .31900025 .33299256 .33898927 .33299256 .36299134 .33299256 .38398744 .34899903 .38398744 .37799073V.3784027Z"/>
<path id="font_1_66" d="M.2599945 .0001373291V.03314209C.19499207 .03314209 .19099427 .038146974 .19099427 .07714844V.44140626L.04499817 .43045045V.39746095C.10899353 .39746095 .117996219 .39144898 .117996219 .34239198V.07814026C.117996219 .03314209 .10598755 .03314209 .041992189 .03314209V0C.08099365 .0029907227 .13699341 .0029907227 .1519928 .0029907227 .16499329 .0029907227 .22499085 .0029907227 .2599945 0V.0001373291M.20298767 .6021881C.20298767 .6351929 .1769867 .6582031 .147995 .6582031 .11898804 .6582031 .09298706 .6351929 .09298706 .6021881 .09298706 .5731964 .115997318 .54719546 .147995 .54719546 .1789856 .54719546 .20298767 .5731964 .20298767 .6021881Z"/>
<path id="font_1_112" d="M.5379944 .3976593V.43066407C.5029907 .42765809 .5009918 .42765809 .45999146 .42765809 .45098878 .42765809 .4039917 .42765809 .37298585 .43066407V.3976593C.4079895 .3956604 .4169922 .37368775 .4169922 .35671998 .4169922 .34672547 .4149933 .34173585 .41099549 .3327484L.30299378 .081100467 .18499756 .3517151C.1789856 .36470033 .1789856 .37269593 .1789856 .37269593 .1789856 .3976593 .21499634 .3976593 .23199463 .3976593V.43066407C.18899536 .42765809 .14199829 .42765809 .12298584 .42765809 .101989749 .42765809 .053985597 .42765809 .021987915 .43066407V.3976593C.08299255 .3976593 .08799744 .3916626 .102996829 .3577118L.25299073 .012191772C.2599945-.0027770997 .2659912-.009765625 .27999879-.009765625 .2939911-.009765625 .30099488-.0017852783 .30599977 .010192871L.44299317 .3277588C.46699525 .38368226 .5009918 .39665223 .5379944 .3976593Z"/>
<path id="font_1_28" d="M.5139923 .09020996V.14530945H.48298646V.09020996C.48298646 .0491333 .46798707 .033111574 .44699098 .033111574 .4099884 .033111574 .4099884 .079193118 .4099884 .09020996V.29856874C.4099884 .39653016 .31498719 .44628907 .22399903 .44628907 .14099121 .44628907 .066986087 .4143219 .066986087 .34857179 .066986087 .318573 .08799744 .30056764 .11399841 .30056764 .14199829 .30056764 .16099549 .3205719 .16099549 .3475647 .16099549 .37156678 .1459961 .38856507 .12399292 .3935547 .16099549 .41827394 .21499634 .41827394 .22200012 .41827394 .27799989 .41827394 .33399964 .37957765 .33399964 .29756166V.26651C.27598573 .26350404 .20899964 .26049806 .13899231 .23144531 .050994874 .1933899 .033996583 .13528443 .033996583 .10223389 .033996583 .016220093 .1349945-.009765625 .20399475-.009765625 .2769928-.009765625 .32199098 .031219483 .34399415 .07122803 .34899903 .033111574 .375-.0048828127 .4189911-.0048828127 .42900086-.0048828127 .5139923-.00088500979 .5139923 .09010315V.09020996M.33399964 .14111328C.33399964 .04421997 .2519989 .018234253 .21199036 .018234253 .1599884 .018234253 .115997318 .053222658 .115997318 .10122681 .115997318 .16722107 .17799378 .23522949 .33399964 .24023438V.14111328Z"/>
<path id="font_1_105" d="M.35299684 .1250763V.1809845H.32199098V.12705994C.32199098 .058166505 .29100038 .021224976 .25299073 .021224976 .18598938 .021224976 .18598938 .10710144 .18598938 .12307739V.3976593H.33499146V.43066407H.18598938V.6142578H.15499878C.1539917 .52345278 .11299133 .4286499 .019989014 .42565919V.3976593H.10998535V.1250763C.10998535 .008224487 .19999695-.009765625 .24598694-.009765625 .31298829-.010009766 .35299684 .049987794 .35299684 .125V.1250763Z"/>
<path id="font_1_98" d="M.3829956 .12924195C.3829956 .1772461 .35398866 .24725342 .23498535 .2692566 .22698975 .2712555 .17098999 .28126527 .16699219 .28126527 .13598633 .28826905 .08898926 .30926515 .08898926 .34927369 .08898926 .37927247 .11099243 .4212799 .20599365 .4212799 .31799317 .4212799 .32299806 .33926393 .32499696 .31126405 .32598878 .30326844 .33299256 .30026246 .33999635 .30026246 .35598756 .30026246 .35598756 .30726625 .35598756 .32626344V.4202881C.35598756 .4362793 .35598756 .44628907 .34298707 .44628907 .33799745 .44628907 .33499146 .44628907 .31900025 .4302826 .31698609 .4292755 .30799867 .4202881 .30499269 .4202881 .30499269 .4202881 .3019867 .4202881 .29599 .4242859 .27999879 .43528749 .25099183 .44628907 .20599365 .44628907 .06599426 .44628907 .034988405 .37026979 .034988405 .32226563 .034988405 .27226258 .07199097 .24325562 .07499695 .24024964 .114990238 .21025086 .13798523 .20625305 .20498657 .19424439 .2519989 .18525696 .32899476 .17124939 .32899476 .10324097 .32899476 .0642395 .30299378 .018234253 .21099854 .018234253 .10998535 .018234253 .08099365 .09623718 .067993167 .14924622 .06399536 .1622467 .06298828 .16725159 .050994874 .16725159 .034988405 .16725159 .034988405 .15924073 .034988405 .14024353V.016220093C.034988405 .00022888184 .034988405-.009765625 .04798889-.009765625 .053985597-.009765625 .054992677-.008773804 .07299805 .010223389 .07798767 .0152282719 .08898926 .02822876 .09399414 .033233644 .13899231-.0077667238 .18598938-.009765625 .21199036-.009765625 .33898927-.009765625 .3829956 .06323242 .3829956 .12924195Z"/>
<path id="font_1_81" d="M.5 .21325684C.5 .3382721 .39698792 .44628907 .2649994 .44628907 .1329956 .44628907 .02999878 .3382721 .02999878 .21325684 .02999878 .08824158 .13699341-.009765625 .2649994-.009765625 .3939972-.009765625 .5 .08824158 .5 .21325684M.41099549 .22225952C.41099549 .17625427 .40899659 .12124634 .3809967 .07923889 .35398866 .039230348 .30899049 .021224976 .2649994 .021224976 .21099854 .021224976 .16899109 .047225954 .14698792 .082229617 .12199402 .12324524 .11898804 .17224121 .11898804 .22225952 .11898804 .2602539 .11898804 .32026673 .1499939 .363266 .17599488 .3982849 .21798706 .41827394 .2649994 .41827394 .31698609 .41827394 .3600006 .39328004 .3829956 .35827638 .4099884 .31626893 .41099549 .2622528 .41099549 .22225952Z"/>
<path id="font_1_55" d="M.3769989 .63201907C.3769989 .6750946 .33499146 .70410159 .28199769 .70410159 .20698548 .70410159 .117996219 .65005496 .117996219 .54286196V.43066407H.035995485V.3976593H.117996219V.07795715C.117996219 .032989503 .10598755 .032989503 .041992189 .032989503V0C.08099365 .0029907227 .13598633 .0029907227 .1599884 .0029907227 .21899414 .0029907227 .22099304 .0029907227 .28599549 0V.032989503H.2659912C.19299317 .032989503 .19099427 .04397583 .19099427 .079956058V.3976593H.31098939V.43066407H.18798828V.54385378C.18798828 .63108828 .23699951 .6760864 .2809906 .6760864 .29699708 .6760864 .30599977 .6720886 .30999757 .6710968 .2919922 .6620941 .2869873 .6450958 .2869873 .63209536 .2869873 .60609439 .30599977 .58709719 .33198548 .58709719 .35899354 .58709719 .3769989 .60609439 .3769989 .63209536V.63201907Z"/>
<path id="font_2_1" d="M.5179901 .37738038C.5219879 .39138795 .5219879 .39338685 .5219879 .40039063 .5219879 .42539979 .5019989 .43139649 .48999024 .43139649 .4850006 .43139649 .46199037 .43040467 .44898988 .40438844 .44699098 .3993988 .43798829 .3633728 .43299867 .34236146L.37298585 .102264408C.37199403 .09925842 .32899476 .018234253 .2559967 .018234253 .20698548 .018234253 .18998719 .054244996 .18998719 .09925842 .18998719 .1572876 .22399903 .24632263 .24699402 .3043518 .25698854 .32936097 .2599945 .33836366 .2599945 .35636903 .2599945 .4113922 .21598816 .44140626 .16999817 .44140626 .070999149 .44140626 .02999878 .300354 .02999878 .28834535 .02999878 .27934266 .036987306 .27534486 .04499817 .27534486 .057998659 .27534486 .05899048 .28134156 .06199646 .29135133 .08799744 .37838746 .1309967 .4133911 .16699219 .4133911 .18199158 .4133911 .19099427 .4033966 .19099427 .38038636 .19099427 .359375 .18299866 .33636476 .17599488 .31835938 .1349945 .21231079 .117996219 .1612854 .117996219 .11427307 .117996219 .016220093 .19198609-.009765625 .25099183-.009765625 .2979889-.009765625 .33198548 .011230469 .35598756 .034240724 .34199525-.021774292 .33198548-.060791017 .2939911-.108795169 .26098634-.14985657 .22099304-.17610169 .17599488-.17610169 .15899658-.17610169 .12098694-.17308045 .100997928-.14279175 .1539917-.13879395 .1579895-.09379578 .1579895-.08778381 .1579895-.06378174 .13999939-.05078125 .11898804-.05078125 .09700012-.05078125 .06199646-.0677948 .06199646-.11679077 .06199646-.1639862 .10499573-.20410156 .17599488-.20410156 .27799989-.20410156 .3929901-.121795658 .4229889-.00077819827L.5179901 .37738038Z"/>
<path id="font_3_1" d="M.6749878 .22944641C.69299319 .22944641 .71199038 .22944641 .71199038 .25144959 .71199038 .27246095 .69200137 .27246095 .6749878 .27246095H.12298584C.10598755 .27246095 .085998538 .27246095 .085998538 .25144959 .085998538 .22944641 .10499573 .22944641 .12298584 .22944641H.6749878Z"/>
<path id="font_4_3" d="M.0289917 .19602967V.16503906H.3019867V.07901001C.3019867 .041992189 .29899598 .0309906 .22399903 .0309906H.20199585V0C.2649994 .0029907227 .33499146 .0029907227 .34199525 .0029907227 .34700013 .0029907227 .4189911 .0029907227 .48199464 0V.0309906H.45999146C.3849945 .0309906 .38198854 .041992189 .38198854 .07901001V.16503906H.48399354V.19602967H.38198854V.64974978C.38198854 .669754 .38198854 .6767578 .36299134 .6767578 .35099793 .6767578 .34999085 .67575076 .34098817 .66174319L.0289917 .19602967M.06098938 .19602967 .30799867 .56581118V.19602967H.06098938Z"/>
<path id="font_1_82" d="M.44699098 0V.032989503H.4119873C.31698609 .032989503 .31399537 .04499817 .31399537 .08203125V.6371765C.31399537 .664032 .31199647 .66503909 .2849884 .66503909 .24398804 .6252289 .19099427 .6013489 .09599304 .6013489V.5683594C.12298584 .5683594 .1769867 .5683594 .23498535 .5953522V.08203125C.23498535 .04499817 .23199463 .032989503 .13699341 .032989503H.101989749V0C.14299011 .0029907227 .22898865 .0029907227 .27398683 .0029907227 .31900025 .0029907227 .4059906 .0029907227 .44699098 0Z"/>
<path id="font_4_1" d="M.70599368 .22944641C.7200012 .22944641 .7409973 .22944641 .7409973 .25045777 .7409973 .27246095 .7220001 .27246095 .70599368 .27246095H.42099V.5578003C.42099 .573761 .42099 .59277346 .39898683 .59277346 .37799073 .59277346 .37799073 .57177737 .37799073 .5578003V.27246095H.09199524C.07798767 .27246095 .056991579 .27246095 .056991579 .25144959 .056991579 .22944641 .07598877 .22944641 .09199524 .22944641H.37799073V-.056793214C.37799073-.07279968 .37799073-.091796878 .3999939-.091796878 .42099-.091796878 .42099-.07080078 .42099-.056793214V.22944641H.70599368Z"/>
<path id="font_4_2" d="M.30499269 .35195924C.397995 .38697816 .44198609 .46006776 .44198609 .5290985 .44198609 .60606387 .35699464 .6660156 .25299073 .6660156 .14898682 .6660156 .070999149 .60705569 .070999149 .5310974 .070999149 .49809266 .09298706 .47909547 .12199402 .47909547 .15098572 .47909547 .17199707 .50009158 .17199707 .5290985 .17199707 .5640869 .147995 .57910159 .11399841 .57910159 .13999939 .6210327 .20098877 .64100649 .25 .64100649 .33299256 .64100649 .34899903 .5750885 .34899903 .52809146 .34899903 .49809266 .34298707 .45005799 .31799317 .41201783 .2869873 .36695863 .2519989 .36495973 .22299195 .36296083 .19799805 .36094667 .19599915 .36094667 .18798828 .36094667 .1789856 .35995484 .17098999 .35894776 .17098999 .34794618 .17098999 .33496095 .1789856 .33496095 .19599915 .33496095H.24299622C.32998658 .33496095 .36799623 .2646637 .36799623 .16937256 .36799623 .04145813 .2999878 .0055389406 .24899292 .0055389406 .22999573 .0055389406 .1329956 .010528564 .08799744 .0843811 .12399292 .07939148 .1519928 .10437012 .1519928 .13838196 .1519928 .17137146 .1269989 .19238281 .09799194 .19238281 .07299805 .19238281 .042999269 .17736817 .042999269 .13537598 .042999269 .046447755 .13598633-.022460938 .2519989-.022460938 .3769989-.022460938 .46998597 .06741333 .46998597 .16937256 .46998597 .25663758 .40098573 .33093263 .30499269 .35195924Z"/>
<path id="font_1_72" d="M.2669983 0V.032989503C.20298767 .032989503 .19099427 .032989503 .19099427 .07801819V.69433596L.041992189 .6826172V.6496124C.10998535 .6496124 .117996219 .64260867 .117996219 .5936432V.07795715C.117996219 .032989503 .10598755 .032989503 .041992189 .032989503V0C.08099365 .0029907227 .13699341 .0029907227 .1539917 .0029907227 .17399597 .0029907227 .22799683 .0029907227 .2669983 0Z"/>
<path id="font_1_109" d="M.56199648 .00022888184V.033233644C.49398805 .033233644 .48599244 .040237428 .48599244 .08924866V.44140626L.33399964 .43040467V.3973999C.4019928 .3973999 .4099884 .39039613 .4099884 .34136964V.16726685C.4099884 .08125305 .35798646 .018234253 .2829895 .018234253 .19699097 .018234253 .19299317 .06123352 .19299317 .11126709V.44140626L.040985109 .43040467V.3973999C.116989139 .3973999 .116989139 .39439393 .116989139 .30534364V.15527344C.116989139 .08325195 .116989139-.009765625 .2769928-.009765625 .37098695-.009765625 .40699769 .0622406 .4119873 .071243289H.41299439V-.009765625L.56199648 .00022888184Z"/>
<path id="font_1_77" d="M.56199648 0V.032989503C.49798585 .032989503 .48599244 .032989503 .48599244 .07803345V.3032837C.48599244 .38737489 .44799806 .44140626 .34298707 .44140626 .24398804 .44140626 .19898987 .36935426 .18699646 .34532167H.18598938V.44140626L.040985109 .43045045V.39746095C.10899353 .39746095 .116989139 .3904419 .116989139 .3413849V.078048709C.116989139 .032989503 .10499573 .032989503 .040985109 .032989503V0C.083999637 .0029907227 .12799073 .0029907227 .15499878 .0029907227 .18399048 .0029907227 .22599793 .0029907227 .2689972 0V.032989503C.20498657 .032989503 .19299317 .032989503 .19299317 .078048709V.25927735C.19299317 .36434938 .272995 .4133911 .33399964 .4133911 .394989 .4133911 .4099884 .37036134 .4099884 .3072815V.07803345C.4099884 .032989503 .397995 .032989503 .33399964 .032989503V0C.3769989 .0029907227 .42099 .0029907227 .44799806 .0029907227 .47698976 .0029907227 .5189972 .0029907227 .56199648 0Z"/>
<path id="font_4_5" d="M.70799258 .3310089C.7220001 .3310089 .7409973 .3310089 .7409973 .35202027 .7409973 .37402345 .71899417 .37402345 .70399478 .37402345H.09399414C.07899475 .37402345 .056991579 .37402345 .056991579 .35202027 .056991579 .3310089 .07699585 .3310089 .08999634 .3310089H.70799258M.70399478 .12695313C.71899417 .12695313 .7409973 .12695313 .7409973 .14894104 .7409973 .1699524 .7220001 .1699524 .70799258 .1699524H.08999634C.07699585 .1699524 .056991579 .1699524 .056991579 .14894104 .056991579 .12695313 .07899475 .12695313 .09399414 .12695313H.70399478Z"/>
<path id="font_4_4" d="M.3789978 .31478883V.2927704C.3789978 .04875183 .2679901 .0055389406 .21099854 .0055389406 .18798828 .0055389406 .13699341 .009552002 .11099243 .042755128H.114990238C.12298584 .040740968 .1619873 .04875183 .1619873 .088760379 .1619873 .11476135 .14399719 .13476563 .115997318 .13476563 .08799744 .13476563 .068984989 .116760257 .068984989 .086761478 .068984989 .020629883 .12199402-.022460938 .21199036-.022460938 .34098817-.022460938 .46998597 .10975647 .46998597 .3287964 .46998597 .5999756 .34999085 .6660156 .2599945 .6660156 .14498902 .6660156 .042999269 .5729675 .042999269 .44187928 .042999269 .31478883 .1349945 .21875 .24798584 .21875 .32099916 .21875 .36099244 .27175904 .3789978 .31478883M.25 .2437439C.23399353 .2437439 .18499756 .2437439 .15299988 .30578614 .13398743 .34381105 .13398743 .39283753 .13398743 .4408722 .13398743 .48890687 .13398743 .5389404 .15499878 .57696536 .18499756 .628006 .22399903 .64100649 .2599945 .64100649 .32798768 .64100649 .35499574 .57196047 .35899354 .5619507 .37298585 .52493289 .3769989 .4638977 .3769989 .42086793 .3769989 .34780885 .34399415 .2437439 .25 .2437439Z"/>
<path id="font_5_1" d="M.49198915 .40434266C.45498658 .39733888 .44400025 .3653412 .44400025 .3503418 .44400025 .33132936 .45799256 .31433106 .48298646 .31433106 .5109863 .31433106 .5379944 .33833314 .5379944 .3733368 .5379944 .41937257 .48799134 .4423828 .44099427 .4423828 .3809967 .4423828 .34599305 .38934327 .33399964 .3683319 .31498719 .41737367 .2709961 .4423828 .22299195 .4423828 .115997318 .4423828 .057998659 .31433106 .057998659 .28833009 .057998659 .2793274 .06498718 .2763214 .07199097 .2763214 .08099365 .2763214 .083999637 .2813263 .085998538 .287323 .116989139 .38633729 .18299866 .41737367 .22099304 .41737367 .25 .41737367 .27598573 .3983307 .27598573 .35133363 .27598573 .31533814 .23298645 .15530396 .21998596 .107284549 .21199036 .076293949 .18199158 .014251709 .1269989 .014251709 .10699463 .014251709 .085998538 .021270752 .07598877 .027282715 .102996829 .032287599 .12298584 .055282594 .12298584 .08128357 .12298584 .106292728 .10398865 .11729431 .084991458 .11729431 .055999757 .11729431 .02999878 .092285159 .02999878 .058288576 .02999878 .009246826 .083999637-.0107421879 .12599182-.0107421879 .18399048-.0107421879 .21798706 .03729248 .23298645 .06428528 .2579956-.0017547608 .31698609-.0107421879 .34399415-.0107421879 .45199586-.0107421879 .5089874 .11929321 .5089874 .14329529 .5089874 .14830017 .5059967 .15530396 .49598695 .15530396 .4850006 .15530396 .48399354 .1512909 .47898866 .1362915 .45700074 .06428528 .39898683 .014251709 .34700013 .014251709 .31799317 .014251709 .29100038 .032287599 .29100038 .08029175 .29100038 .10229492 .30499269 .15730286 .31399537 .1953125 .31799317 .21331787 .34498597 .32133485 .34700013 .32833863 .35899354 .3643341 .3889923 .41737367 .43998719 .41737367 .45799256 .41737367 .47698976 .41436769 .49198915 .40434266Z"/>
</defs>
<use data-text="2" xlink:href="#font_1_107" transform="matrix(7.970498,0,0,-7.970817,1.5830765,7.2004797)"/>
<use data-text="d" xlink:href="#font_1_47" transform="matrix(7.970498,0,0,-7.970817,8.636963,7.2004797)"/>
<use data-text="e" xlink:href="#font_1_50" transform="matrix(7.970498,0,0,-7.970817,13.339554,7.2004797)"/>
<use data-text="r" xlink:href="#font_1_96" transform="matrix(7.970498,0,0,-7.970817,17.101639,7.2004797)"/>
<use data-text="i" xlink:href="#font_1_66" transform="matrix(7.970498,0,0,-7.970817,20.401429,7.2004797)"/>
<use data-text="v" xlink:href="#font_1_112" transform="matrix(7.970498,0,0,-7.970817,22.752717,7.2004797)"/>
<use data-text="a" xlink:href="#font_1_28" transform="matrix(7.970498,0,0,-7.970817,26.761872,7.2004797)"/>
<use data-text="t" xlink:href="#font_1_105" transform="matrix(7.970498,0,0,-7.970817,30.994202,7.2004797)"/>
<use data-text="i" xlink:href="#font_1_66" transform="matrix(7.970498,0,0,-7.970817,34.286027,7.2004797)"/>
<use data-text="v" xlink:href="#font_1_112" transform="matrix(7.970498,0,0,-7.970817,36.63733,7.2004797)"/>
<use data-text="e" xlink:href="#font_1_50" transform="matrix(7.970498,0,0,-7.970817,40.86966,7.2004797)"/>
<use data-text="s" xlink:href="#font_1_98" transform="matrix(7.970498,0,0,-7.970817,44.63173,7.2004797)"/>
<use data-text="o" xlink:href="#font_1_81" transform="matrix(7.970498,0,0,-7.970817,50.784959,7.2004797)"/>
<use data-text="f" xlink:href="#font_1_55" transform="matrix(7.970498,0,0,-7.970817,55.01729,7.2004797)"/>
<use data-text="y" xlink:href="#font_2_1" transform="matrix(7.970498,0,0,-7.970817,60.430025,7.2004797)"/>
<path transform="matrix(1.00005,0,0,-1.00009,26.155304,39.18836)" d="M3.9851 0H38.5351C40.73604 0 42.5202 1.78416 42.5202 3.9851V10.18828C42.5202 12.38922 40.73604 14.17339 38.5351 14.17339H3.9851C1.78416 14.17339 0 12.38922 0 10.18828V3.9851C0 1.78416 1.78416 0 3.9851 0Z" fill="#ccccff" fill-opacity=".6"/>
<path transform="matrix(1.00005,0,0,-1.00009,26.155304,39.18836)" stroke-width=".79701" stroke-linecap="butt" stroke-linejoin="round" fill="none" stroke="#000000" d="M3.9851 0H38.5351C40.73604 0 42.5202 1.78416 42.5202 3.9851V10.18828C42.5202 12.38922 40.73604 14.17339 38.5351 14.17339H3.9851C1.78416 14.17339 0 12.38922 0 10.18828V3.9851C0 1.78416 1.78416 0 3.9851 0Z"/>
<use data-text="&#x2212;" xlink:href="#font_3_1" transform="matrix(8.966848,0,0,-8.967207,72.1806,34.342924)"/>
<use data-text="4" xlink:href="#font_4_3" transform="matrix(8.966848,0,0,-8.967207,80.54802,34.990983)"/>
<use data-text="1" xlink:href="#font_1_82" transform="matrix(7.970498,0,0,-7.970817,81.21005,7.2004797)"/>
<use data-text="d" xlink:href="#font_1_47" transform="matrix(7.970498,0,0,-7.970817,88.26394,7.2004797)"/>
<use data-text="e" xlink:href="#font_1_50" transform="matrix(7.970498,0,0,-7.970817,92.96653,7.2004797)"/>
<use data-text="r" xlink:href="#font_1_96" transform="matrix(7.970498,0,0,-7.970817,96.728618,7.2004797)"/>
<use data-text="i" xlink:href="#font_1_66" transform="matrix(7.970498,0,0,-7.970817,100.028408,7.2004797)"/>
<use data-text="v" xlink:href="#font_1_112" transform="matrix(7.970498,0,0,-7.970817,102.37969,7.2004797)"/>
<use data-text="a" xlink:href="#font_1_28" transform="matrix(7.970498,0,0,-7.970817,106.38885,7.2004797)"/>
<use data-text="t" xlink:href="#font_1_105" transform="matrix(7.970498,0,0,-7.970817,110.62118,7.2004797)"/>
<use data-text="i" xlink:href="#font_1_66" transform="matrix(7.970498,0,0,-7.970817,113.913,7.2004797)"/>
<use data-text="v" xlink:href="#font_1_112" transform="matrix(7.970498,0,0,-7.970817,116.264308,7.2004797)"/>
<use data-text="e" xlink:href="#font_1_50" transform="matrix(7.970498,0,0,-7.970817,120.496639,7.2004797)"/>
<use data-text="o" xlink:href="#font_1_81" transform="matrix(7.970498,0,0,-7.970817,127.07229,7.2004797)"/>
<use data-text="f" xlink:href="#font_1_55" transform="matrix(7.970498,0,0,-7.970817,131.30463,7.2004797)"/>
<use data-text="y" xlink:href="#font_2_1" transform="matrix(7.970498,0,0,-7.970817,136.71683,7.2004797)"/>
<path transform="matrix(1.00005,0,0,-1.00009,26.155304,39.18836)" d="M67.76541 0H102.31541C104.51636 0 106.30052 1.78416 106.30052 3.9851V10.18828C106.30052 12.38922 104.51636 14.17339 102.31541 14.17339H67.76541C65.56447 14.17339 63.7803 12.38922 63.7803 10.18828V3.9851C63.7803 1.78416 65.56447 0 67.76541 0Z" fill="#ccccff" fill-opacity=".6"/>
<path transform="matrix(1.00005,0,0,-1.00009,26.155304,39.18836)" stroke-width=".79701" stroke-linecap="butt" stroke-linejoin="round" fill="none" stroke="#000000" d="M67.76541 0H102.31541C104.51636 0 106.30052 1.78416 106.30052 3.9851V10.18828C106.30052 12.38922 104.51636 14.17339 102.31541 14.17339H67.76541C65.56447 14.17339 63.7803 12.38922 63.7803 10.18828V3.9851C63.7803 1.78416 65.56447 0 67.76541 0Z"/>
<use data-text="+" xlink:href="#font_4_1" transform="matrix(8.966848,0,0,-8.967207,135.96379,34.342924)"/>
<use data-text="3" xlink:href="#font_4_2" transform="matrix(8.966848,0,0,-8.967207,144.3312,34.990983)"/>
<use data-text="s" xlink:href="#font_1_98" transform="matrix(7.970498,0,0,-7.970817,156.73482,7.160473)"/>
<use data-text="o" xlink:href="#font_1_81" transform="matrix(7.970498,0,0,-7.970817,160.07447,7.160473)"/>
<use data-text="l" xlink:href="#font_1_72" transform="matrix(7.970498,0,0,-7.970817,164.3068,7.160473)"/>
<use data-text="u" xlink:href="#font_1_109" transform="matrix(7.970498,0,0,-7.970817,166.65808,7.160473)"/>
<use data-text="t" xlink:href="#font_1_105" transform="matrix(7.970498,0,0,-7.970817,171.36069,7.160473)"/>
<use data-text="i" xlink:href="#font_1_66" transform="matrix(7.970498,0,0,-7.970817,174.6525,7.160473)"/>
<use data-text="o" xlink:href="#font_1_81" transform="matrix(7.970498,0,0,-7.970817,177.00379,7.160473)"/>
<use data-text="n" xlink:href="#font_1_77" transform="matrix(7.970498,0,0,-7.970817,181.23612,7.160473)"/>
<use data-text="y" xlink:href="#font_2_1" transform="matrix(7.970498,0,0,-7.970817,188.7604,7.160473)"/>
<path transform="matrix(1.00005,0,0,-1.00009,26.155304,39.18836)" d="M131.54573 0H166.09575C168.29669 0 170.08086 1.78416 170.08086 3.9851V10.18828C170.08086 12.38922 168.29669 14.17339 166.09575 14.17339H131.54573C129.34479 14.17339 127.56062 12.38922 127.56062 10.18828V3.9851C127.56062 1.78416 129.34479 0 131.54573 0Z" fill="#ccccff" fill-opacity=".6"/>
<path transform="matrix(1.00005,0,0,-1.00009,26.155304,39.18836)" stroke-width=".79701" stroke-linecap="butt" stroke-linejoin="round" fill="none" stroke="#000000" d="M131.54573 0H166.09575C168.29669 0 170.08086 1.78416 170.08086 3.9851V10.18828C170.08086 12.38922 168.29669 14.17339 166.09575 14.17339H131.54573C129.34479 14.17339 127.56062 12.38922 127.56062 10.18828V3.9851C127.56062 1.78416 129.34479 0 131.54573 0Z"/>
<use data-text="=" xlink:href="#font_4_5" transform="matrix(8.966848,0,0,-8.967207,199.74797,33.76987)"/>
<use data-text="9" xlink:href="#font_4_4" transform="matrix(8.966848,0,0,-8.967207,211.17255,34.990983)"/>
<use data-text="x" xlink:href="#font_5_1" transform="matrix(8.966848,0,0,-8.967207,215.78076,34.990983)"/>
<path transform="matrix(1.00005,0,0,-1.00009,26.155304,39.18836)" stroke-width=".79701" stroke-linecap="butt" stroke-linejoin="round" fill="none" stroke="#000000" d="M7.08669 28.04494V29.49706C7.08669 27.29611 8.87085 25.51195 11.0718 25.51195H17.275C19.47594 25.51195 21.2601 23.72778 21.2601 21.52684V18.3121"/>
<path transform="matrix(0,1.00009,1.00005,0,47.416467,20.87461)" d="M2.59026 0-1.55415 2.0722 0 0-1.55415-2.0722"/>
<path transform="matrix(1.00005,0,0,-1.00009,26.155304,39.18836)" stroke-width=".79701" stroke-linecap="butt" stroke-linejoin="round" fill="none" stroke="#000000" d="M85.04042 28.04494V29.49706C85.04042 27.29611 85.04042 27.29611 85.04042 29.49706 85.04042 27.29611 85.04042 23.72778 85.04042 21.52684V18.3121"/>
<path transform="matrix(0,1.00009,1.00005,0,111.199977,20.87461)" d="M2.59026 0-1.55415 2.0722 0 0-1.55415-2.0722"/>
<path transform="matrix(1.00005,0,0,-1.00009,26.155304,39.18836)" stroke-width=".79701" stroke-linecap="butt" stroke-linejoin="round" fill="none" stroke="#000000" d="M148.82074 28.0848V29.49706C148.82074 27.29611 148.82074 27.29611 148.82074 29.49706 148.82074 27.29611 148.82074 23.72778 148.82074 21.52684V18.3121"/>
<path transform="matrix(0,1.00009,1.00005,0,174.98348,20.87461)" d="M2.59026 0-1.55415 2.0722 0 0-1.55415-2.0722"/>
</svg>
