<svg xmlns="http://www.w3.org/2000/svg" xmlns:xlink="http://www.w3.org/1999/xlink" version="1.1" width="136" height="39" viewBox="0 0 136 39">
<defs>
<path id="font_1_1" d="M.37399293 .3996582H.46398927C.48399354 .3996582 .49398805 .3996582 .49398805 .41766358 .49398805 .43066407 .48399354 .43066407 .46499635 .43066407H.37998963C.3909912 .49082948 .40499879 .5730438 .41799928 .62705996 .4269867 .6660614 .45098878 .68006899 .47099305 .68006899 .47698976 .68006899 .5 .67807009 .5169983 .6660614 .49699403 .66204836 .46798707 .6440582 .46798707 .61105349 .46798707 .5860596 .4869995 .575058 .5059967 .575058 .5329895 .575058 .5609894 .59706118 .5609894 .63505557 .5609894 .68006899 .5169983 .7050781 .46998597 .7050781 .4249878 .7050781 .37998963 .6730652 .35899354 .63204959 .33699037 .5890503 .32998658 .5499878 .30899049 .43066407H.23699951C.21798706 .43066407 .20599365 .43066407 .20599365 .4126587 .20599365 .3996582 .21699524 .3996582 .23498535 .3996582H.30299378C.2749939 .25474549 .23999024 .054855348 .21798706-.049087526 .20599365-.10406494 .18998719-.18008423 .14199829-.18008423 .1269989-.18008423 .10699463-.17407227 .09700012-.16607666 .12199402-.1620636 .14698792-.1410675 .14698792-.111068729 .14698792-.08607483 .12799073-.07507324 .10899353-.07507324 .08198547-.07507324 .053985597-.097076419 .053985597-.1350708 .053985597-.18109131 .099990848-.20507813 .14199829-.20507813 .24398804-.20507813 .29100038-.039093019 .30699159 .04685974L.37399293 .3996582Z"/>
<path id="font_2_1" d="M.34098817-.23803711C.34098817-.23303223 .33799745-.23002625 .33198548-.22303772 .20298767-.105026248 .1639862 .07498169 .1639862 .24996948 .1639862 .40498353 .19400025 .59298709 .33499146 .72698977 .33898927 .73098757 .34098817 .73399356 .34098817 .7389984 .34098817 .74598696 .33599855 .75 .32899476 .75 .31698609 .75 .22698975 .6779785 .17298889 .568985 .125 .47297669 .100997928 .36997987 .100997928 .25097657 .100997928 .17897034 .10998535 .064971927 .16499329-.053024293 .22399903-.17602539 .31698609-.24902344 .32899476-.24902344 .33599855-.24902344 .34098817-.24502564 .34098817-.23803711Z"/>
<path id="font_1_2" d="M.49198915 .40434266C.45498658 .39733888 .44400025 .3653412 .44400025 .3503418 .44400025 .33132936 .45799256 .31433106 .48298646 .31433106 .5109863 .31433106 .5379944 .33833314 .5379944 .3733368 .5379944 .41937257 .48799134 .4423828 .44099427 .4423828 .3809967 .4423828 .34599305 .38934327 .33399964 .3683319 .31498719 .41737367 .2709961 .4423828 .22299195 .4423828 .115997318 .4423828 .057998659 .31433106 .057998659 .28833009 .057998659 .2793274 .06498718 .2763214 .07199097 .2763214 .08099365 .2763214 .083999637 .2813263 .085998538 .287323 .116989139 .38633729 .18299866 .41737367 .22099304 .41737367 .25 .41737367 .27598573 .3983307 .27598573 .35133363 .27598573 .31533814 .23298645 .15530396 .21998596 .107284549 .21199036 .076293949 .18199158 .014251709 .1269989 .014251709 .10699463 .014251709 .085998538 .021270752 .07598877 .027282715 .102996829 .032287599 .12298584 .055282594 .12298584 .08128357 .12298584 .106292728 .10398865 .11729431 .084991458 .11729431 .055999757 .11729431 .02999878 .092285159 .02999878 .058288576 .02999878 .009246826 .083999637-.0107421879 .12599182-.0107421879 .18399048-.0107421879 .21798706 .03729248 .23298645 .06428528 .2579956-.0017547608 .31698609-.0107421879 .34399415-.0107421879 .45199586-.0107421879 .5089874 .11929321 .5089874 .14329529 .5089874 .14830017 .5059967 .15530396 .49598695 .15530396 .4850006 .15530396 .48399354 .1512909 .47898866 .1362915 .45700074 .06428528 .39898683 .014251709 .34700013 .014251709 .31799317 .014251709 .29100038 .032287599 .29100038 .08029175 .29100038 .10229492 .30499269 .15730286 .31399537 .1953125 .31799317 .21331787 .34498597 .32133485 .34700013 .32833863 .35899354 .3643341 .3889923 .41737367 .43998719 .41737367 .45799256 .41737367 .47698976 .41436769 .49198915 .40434266Z"/>
<path id="font_2_2" d="M.2979889 .25097657C.2979889 .3329773 .28599549 .4429779 .23399353 .5539856 .1749878 .6769867 .08198547 .75 .069992069 .75 .05999756 .75 .057998659 .74198916 .057998659 .7389984 .057998659 .73399356 .05999756 .73098757 .066986087 .72398379 .125 .6719818 .23498535 .5359802 .23498535 .25097657 .23498535 .10797119 .20899964-.091033939 .06399536-.22602844 .06199646-.22903443 .057998659-.23303223 .057998659-.23803711 .057998659-.24102783 .05999756-.24902344 .069992069-.24902344 .08198547-.24902344 .17199707-.17703247 .22599793-.06802368 .27398683 .02796936 .2979889 .13098145 .2979889 .25097657Z"/>
<path id="font_3_1" d="M.6749878 .22944641C.69299319 .22944641 .71199038 .22944641 .71199038 .25144959 .71199038 .27246095 .69200137 .27246095 .6749878 .27246095H.12298584C.10598755 .27246095 .085998538 .27246095 .085998538 .25144959 .085998538 .22944641 .10499573 .22944641 .12298584 .22944641H.6749878Z"/>
<path id="font_4_72" d="M.26098634 0V.0309906C.19499207 .0309906 .18399048 .0309906 .18399048 .07701111V.69433596L.035995485 .6826172V.6516113C.10398865 .6516113 .11299133 .64460757 .11299133 .5956421V.07696533C.11299133 .0309906 .101989749 .0309906 .035995485 .0309906V0C.08299255 .0019989014 .101989749 .0029907227 .147995 .0029907227 .19499207 .0029907227 .21199036 .0019989014 .26098634 0Z"/>
<path id="font_4_66" d="M.25299073 0V.0309906C.18798828 .0309906 .18399048 .035995485 .18399048 .075042728V.4423828L.039993287 .43066407V.3996582C.10398865 .3996582 .11299133 .3936615 .11299133 .3447113V.07695007C.11299133 .0309906 .101989749 .0309906 .035995485 .0309906V0C.08099365 .0019989014 .101989749 .0029907227 .1459961 .0029907227 .1619873 .0029907227 .20399475 .0029907227 .25299073 0M.19699097 .6028137C.19699097 .63282778 .17298889 .6568146 .14299011 .6568146 .11299133 .6568146 .08898926 .63282778 .08898926 .6028137 .08898926 .57281497 .11299133 .5488281 .14299011 .5488281 .17298889 .5488281 .19699097 .57281497 .19699097 .6028137Z"/>
<path id="font_4_70" d="M.5239868 0V.0309906C.4909973 .0309906 .46699525 .03199768 .43099977 .07998657L.2889862 .2726593C.3869934 .35765077 .43299867 .39665223 .5009918 .3996582V.43066407C.46598817 .42765809 .46398927 .42765809 .4269867 .42765809L.31698609 .43066407V.3996582C.33198548 .39865113 .34399415 .3916626 .34399415 .37565614 .34399415 .35665895 .32798768 .34365846 .31900025 .33566285L.17799378 .21665955V.69433596L.02999878 .6826172V.6516113C.09799194 .6516113 .10699463 .64460757 .10699463 .5956421V.07696533C.10699463 .0309906 .09599304 .0309906 .02999878 .0309906V0L.14099121 .0029907227 .2519989 0V.0309906C.18598938 .0309906 .1749878 .0309906 .1749878 .07696533V.17790222L.23899842 .23187256 .33599855 .10095215C.35198976 .07896423 .3600006 .066970828 .3600006 .052978517 .3600006 .04298401 .35699464 .0309906 .32598878 .0309906V0L.43399049 .0029907227C.46299745 .0029907227 .49499513 .0029907227 .5239868 0Z"/>
<path id="font_4_50" d="M.4269867 .11936951C.4269867 .12637329 .42199708 .13237 .41299439 .13237 .40299989 .13237 .3999939 .12536621 .39898683 .12136841 .36499024 .019256592 .27598573 .01725769 .26098634 .01725769 .21299744 .01725769 .17199707 .044281007 .14898682 .078323367 .115997318 .12736511 .114990238 .18743897 .114990238 .22949219H.3999939C.42199708 .22949219 .4269867 .22949219 .4269867 .25048829 .4269867 .35333253 .37098695 .4482422 .24299622 .4482422 .12298584 .4482422 .0289917 .3443451 .0289917 .22047425 .0289917 .08932495 .13398743-.0107421879 .2559967-.0107421879 .37799073-.0107421879 .4269867 .096343997 .4269867 .11936951M.35899354 .253479H.115997318C.125 .40725709 .21499634 .42323304 .24299622 .42323304 .2979889 .42323304 .35798646 .38130189 .35899354 .253479Z"/>
<path id="font_5_1" d="M.31399537 .47006227C.32099916 .48506166 .32299806 .49606324 .32299806 .50205996 .32299806 .53305056 .29499818 .5590515 .2619934 .5590515 .22200012 .5590515 .20999146 .5240631 .20599365 .51005557L.06599426 .08206177C.06399536 .076049808 .06098938 .0680542 .06098938 .0640564 .06098938 .047058107 .100997928 .0390625 .101989749 .0390625 .11099243 .0390625 .114990238 .048049928 .11898804 .05606079L.31399537 .47006227Z"/>
<path id="font_2_5" d="M.0289917 .19602967V.16503906H.3019867V.07901001C.3019867 .041992189 .29899598 .0309906 .22399903 .0309906H.20199585V0C.2649994 .0029907227 .33499146 .0029907227 .34199525 .0029907227 .34700013 .0029907227 .4189911 .0029907227 .48199464 0V.0309906H.45999146C.3849945 .0309906 .38198854 .041992189 .38198854 .07901001V.16503906H.48399354V.19602967H.38198854V.64974978C.38198854 .669754 .38198854 .6767578 .36299134 .6767578 .35099793 .6767578 .34999085 .67575076 .34098817 .66174319L.0289917 .19602967M.06098938 .19602967 .30799867 .56581118V.19602967H.06098938Z"/>
<path id="font_2_3" d="M.70599368 .22944641C.7200012 .22944641 .7409973 .22944641 .7409973 .25045777 .7409973 .27246095 .7220001 .27246095 .70599368 .27246095H.42099V.5578003C.42099 .573761 .42099 .59277346 .39898683 .59277346 .37799073 .59277346 .37799073 .57177737 .37799073 .5578003V.27246095H.09199524C.07798767 .27246095 .056991579 .27246095 .056991579 .25144959 .056991579 .22944641 .07598877 .22944641 .09199524 .22944641H.37799073V-.056793214C.37799073-.07279968 .37799073-.091796878 .3999939-.091796878 .42099-.091796878 .42099-.07080078 .42099-.056793214V.22944641H.70599368Z"/>
<path id="font_2_4" d="M.30499269 .35195924C.397995 .38697816 .44198609 .46006776 .44198609 .5290985 .44198609 .60606387 .35699464 .6660156 .25299073 .6660156 .14898682 .6660156 .070999149 .60705569 .070999149 .5310974 .070999149 .49809266 .09298706 .47909547 .12199402 .47909547 .15098572 .47909547 .17199707 .50009158 .17199707 .5290985 .17199707 .5640869 .147995 .57910159 .11399841 .57910159 .13999939 .6210327 .20098877 .64100649 .25 .64100649 .33299256 .64100649 .34899903 .5750885 .34899903 .52809146 .34899903 .49809266 .34298707 .45005799 .31799317 .41201783 .2869873 .36695863 .2519989 .36495973 .22299195 .36296083 .19799805 .36094667 .19599915 .36094667 .18798828 .36094667 .1789856 .35995484 .17098999 .35894776 .17098999 .34794618 .17098999 .33496095 .1789856 .33496095 .19599915 .33496095H.24299622C.32998658 .33496095 .36799623 .2646637 .36799623 .16937256 .36799623 .04145813 .2999878 .0055389406 .24899292 .0055389406 .22999573 .0055389406 .1329956 .010528564 .08799744 .0843811 .12399292 .07939148 .1519928 .10437012 .1519928 .13838196 .1519928 .17137146 .1269989 .19238281 .09799194 .19238281 .07299805 .19238281 .042999269 .17736817 .042999269 .13537598 .042999269 .046447755 .13598633-.022460938 .2519989-.022460938 .3769989-.022460938 .46998597 .06741333 .46998597 .16937256 .46998597 .25663758 .40098573 .33093263 .30499269 .35195924Z"/>
<path id="font_2_6" d="M.70799258 .3310089C.7220001 .3310089 .7409973 .3310089 .7409973 .35202027 .7409973 .37402345 .71899417 .37402345 .70399478 .37402345H.09399414C.07899475 .37402345 .056991579 .37402345 .056991579 .35202027 .056991579 .3310089 .07699585 .3310089 .08999634 .3310089H.70799258M.70399478 .12695313C.71899417 .12695313 .7409973 .12695313 .7409973 .14894104 .7409973 .1699524 .7220001 .1699524 .70799258 .1699524H.08999634C.07699585 .1699524 .056991579 .1699524 .056991579 .14894104 .056991579 .12695313 .07899475 .12695313 .09399414 .12695313H.70399478Z"/>
</defs>
<use data-text="f" xlink:href="#font_1_1" transform="matrix(8.967297,0,0,-8.966938,33.604059,8.313719)"/>
<use data-text="(" xlink:href="#font_2_1" transform="matrix(8.967297,0,0,-8.966938,39.053598,8.313719)"/>
<use data-text="x" xlink:href="#font_1_2" transform="matrix(8.967297,0,0,-8.966938,42.636957,8.313719)"/>
<use data-text=")" xlink:href="#font_2_2" transform="matrix(8.967297,0,0,-8.966938,47.86148,8.313719)"/>
<use data-text="&#x2212;" xlink:href="#font_3_1" transform="matrix(8.967297,0,0,-8.966938,51.44584,8.313719)"/>
<use data-text="l" xlink:href="#font_4_72" transform="matrix(8.967297,0,0,-8.966938,58.613557,8.313719)"/>
<use data-text="i" xlink:href="#font_4_66" transform="matrix(8.967297,0,0,-8.966938,61.1782,8.313719)"/>
<use data-text="k" xlink:href="#font_4_70" transform="matrix(8.967297,0,0,-8.966938,63.742837,8.313719)"/>
<use data-text="e" xlink:href="#font_4_50" transform="matrix(8.967297,0,0,-8.966938,68.35204,8.313719)"/>
<path transform="matrix(1.0001,0,0,-1.00006,1.992897,37.255456)" d="M3.9851 0H13.02313C15.22408 0 17.00824 1.78416 17.00824 3.9851V10.18828C17.00824 12.38922 15.22408 14.17339 13.02313 14.17339H3.9851C1.78416 14.17339 0 12.38922 0 10.18828V3.9851C0 1.78416 1.78416 0 3.9851 0Z" fill="#ccccff" fill-opacity=".2"/>
<path transform="matrix(1.0001,0,0,-1.00006,1.992897,37.255456)" stroke-width=".79701" stroke-linecap="butt" stroke-linejoin="round" fill="none" stroke="#000000" d="M3.9851 0H13.02313C15.22408 0 17.00824 1.78416 17.00824 3.9851V10.18828C17.00824 12.38922 15.22408 14.17339 13.02313 14.17339H3.9851C1.78416 14.17339 0 12.38922 0 10.18828V3.9851C0 1.78416 1.78416 0 3.9851 0Z"/>
<use data-text="&#x2032;" xlink:href="#font_5_1" transform="matrix(5.978198,0,0,-5.9779589,20.819779,27.088845)"/>
<use data-text="&#x2032;" xlink:href="#font_5_1" transform="matrix(5.978198,0,0,-5.9779589,23.001816,27.088845)"/>
<use data-text="&#x2212;" xlink:href="#font_3_1" transform="matrix(8.967297,0,0,-8.966938,26.758378,32.410165)"/>
<use data-text="4" xlink:href="#font_2_5" transform="matrix(8.967297,0,0,-8.966938,36.543355,33.058206)"/>
<path transform="matrix(1.0001,0,0,-1.00006,1.992897,37.255456)" d="M46.50531 0H55.54335C57.7443 0 59.52846 1.78416 59.52846 3.9851V10.18828C59.52846 12.38922 57.7443 14.17339 55.54335 14.17339H46.50531C44.30437 14.17339 42.5202 12.38922 42.5202 10.18828V3.9851C42.5202 1.78416 44.30437 0 46.50531 0Z" fill="#ccccff" fill-opacity=".2"/>
<path transform="matrix(1.0001,0,0,-1.00006,1.992897,37.255456)" stroke-width=".79701" stroke-linecap="butt" stroke-linejoin="round" fill="none" stroke="#000000" d="M46.50531 0H55.54335C57.7443 0 59.52846 1.78416 59.52846 3.9851V10.18828C59.52846 12.38922 57.7443 14.17339 55.54335 14.17339H46.50531C44.30437 14.17339 42.5202 12.38922 42.5202 10.18828V3.9851C42.5202 1.78416 44.30437 0 46.50531 0Z"/>
<use data-text="&#x2032;" xlink:href="#font_5_1" transform="matrix(5.978198,0,0,-5.9779589,63.02,27.088845)"/>
<use data-text="+" xlink:href="#font_2_3" transform="matrix(8.967297,0,0,-8.966938,66.44734,32.410165)"/>
<use data-text="3" xlink:href="#font_2_4" transform="matrix(8.967297,0,0,-8.966938,76.23232,33.058206)"/>
<path transform="matrix(1.0001,0,0,-1.00006,1.992897,37.255456)" d="M86.19066 0H95.22871C97.42966 0 99.21382 1.78416 99.21382 3.9851V10.18828C99.21382 12.38922 97.42966 14.17339 95.22871 14.17339H86.19066C83.98972 14.17339 82.20555 12.38922 82.20555 10.18828V3.9851C82.20555 1.78416 83.98972 0 86.19066 0Z" fill="#ccccff" fill-opacity=".2"/>
<path transform="matrix(1.0001,0,0,-1.00006,1.992897,37.255456)" stroke-width=".79701" stroke-linecap="butt" stroke-linejoin="round" fill="none" stroke="#000000" d="M86.19066 0H95.22871C97.42966 0 99.21382 1.78416 99.21382 3.9851V10.18828C99.21382 12.38922 97.42966 14.17339 95.22871 14.17339H86.19066C83.98972 14.17339 82.20555 12.38922 82.20555 10.18828V3.9851C82.20555 1.78416 83.98972 0 86.19066 0Z"/>
<use data-text="=" xlink:href="#font_2_6" transform="matrix(8.967297,0,0,-8.966938,106.137317,31.83713)"/>
<use data-text="f" xlink:href="#font_1_1" transform="matrix(8.967297,0,0,-8.966938,117.81048,32.410165)"/>
<use data-text="(" xlink:href="#font_2_1" transform="matrix(8.967297,0,0,-8.966938,123.26002,32.410165)"/>
<use data-text="x" xlink:href="#font_1_2" transform="matrix(8.967297,0,0,-8.966938,126.843379,32.410165)"/>
<use data-text=")" xlink:href="#font_2_2" transform="matrix(8.967297,0,0,-8.966938,132.0679,32.410165)"/>
<path transform="matrix(1.0001,0,0,-1.00006,1.992897,37.255456)" stroke-width=".79701" stroke-linecap="butt" stroke-linejoin="round" fill="none" stroke="#000000" d="M27.2243 31.18166H23.70157C21.50063 31.18166 17.9323 31.18166 15.73135 31.18166H12.48923C10.28828 31.18166 8.50412 29.39749 8.50412 27.19655V18.3121"/>
<path transform="matrix(0,1.00006,1.0001,0,10.497868,18.942257)" d="M2.59026 0-1.55415 2.0722 0 0-1.55415-2.0722"/>
<path transform="matrix(1.0001,0,0,-1.00006,1.992897,37.255456)" stroke-width=".79701" stroke-linecap="butt" stroke-linejoin="round" fill="none" stroke="#000000" d="M51.02432 24.30766V23.82822C51.02432 21.62727 51.02432 21.62727 51.02432 23.82822 51.02432 21.62727 51.02432 18.05894 51.02432 15.858V18.3121"/>
<path transform="matrix(0,1.00006,1.0001,0,53.02232,18.942257)" d="M2.59026 0-1.55415 2.0722 0 0-1.55415-2.0722"/>
<path transform="matrix(1.0001,0,0,-1.00006,1.992897,37.255456)" stroke-width=".79701" stroke-linecap="butt" stroke-linejoin="round" fill="none" stroke="#000000" d="M74.82434 31.18166H78.34708C80.54802 31.18166 84.11635 31.18166 86.31729 31.18166H86.7246C88.92554 31.18166 90.7097 29.39749 90.7097 27.19655V18.3121"/>
<path transform="matrix(0,1.00006,1.0001,0,92.71167,18.942257)" d="M2.59026 0-1.55415 2.0722 0 0-1.55415-2.0722"/>
</svg>
