<svg xmlns="http://www.w3.org/2000/svg" xmlns:xlink="http://www.w3.org/1999/xlink" version="1.1" width="230" height="26" viewBox="0 0 230 26">
<defs>
<path id="font_1_1" d="M.6749878 .22944641C.69299319 .22944641 .71199038 .22944641 .71199038 .25144959 .71199038 .27246095 .69200137 .27246095 .6749878 .27246095H.12298584C.10598755 .27246095 .085998538 .27246095 .085998538 .25144959 .085998538 .22944641 .10499573 .22944641 .12298584 .22944641H.6749878Z"/>
<path id="font_2_3" d="M.46199037 .17704773H.43399049C.43199159 .16404724 .42399598 .10501099 .41099549 .08900452 .40499879 .07998657 .33599855 .07998657 .31599427 .07998657H.13798523L.23699951 .17404175C.40098573 .3161316 .46199037 .36915589 .46199037 .4711914 .46199037 .5860901 .36698915 .6660156 .24398804 .6660156 .1289978 .6660156 .050994874 .575119 .050994874 .4841919 .050994874 .43418885 .09399414 .42919923 .102996829 .42919923 .125 .42919923 .15499878 .44519044 .15499878 .48120118 .15499878 .51119998 .13398743 .5332031 .102996829 .5332031 .09799194 .5332031 .09498596 .5332031 .09098816 .53219607 .114990238 .6030731 .1789856 .63500979 .23298645 .63500979 .33499146 .63500979 .36999513 .5401764 .36999513 .4711914 .36999513 .36915589 .29299928 .28611756 .24499512 .23408509L.06199646 .035995485C.050994874 .024993897 .050994874 .022994996 .050994874 0H.43399049L.46199037 .17704773Z"/>
<path id="font_2_2" d="M.3039856 .6392822C.3039856 .6642761 .30299378 .666275 .27799989 .666275 .21598816 .60227969 .12399292 .60227969 .09298706 .60227969V.57128909C.11199951 .57128909 .17298889 .57128909 .22698975 .5972748V.08001709C.22698975 .042999269 .22399903 .0309906 .1309967 .0309906H.09899902V0C.1349945 .0029907227 .22399903 .0029907227 .2649994 .0029907227 .30599977 .0029907227 .3959961 .0029907227 .43199159 0V.0309906H.3999939C.30699159 .0309906 .3039856 .042999269 .3039856 .08001709V.6392822Z"/>
<path id="font_2_1" d="M.47299195 .31976319C.47299195 .38682557 .46998597 .47288514 .43499757 .5479431 .3909912 .64201357 .31498719 .6660156 .25698854 .6660156 .19699097 .6660156 .12098694 .64201357 .07699585 .5459442 .04499817 .47688294 .039993287 .39582826 .039993287 .31976319 .039993287 .25471498 .041992189 .15765381 .084991458 .07858276 .13198853-.0064697267 .20999146-.022460938 .2559967-.022460938 .32099916-.022460938 .394989 .0055389406 .43699647 .097595218 .46699525 .1646576 .47299195 .23971558 .47299195 .31976319M.25698854 .002532959C.22698975 .002532959 .15499878 .016540528 .13598633 .12962342 .12599182 .18867493 .12599182 .2747345 .12599182 .33177186 .12599182 .39982606 .12599182 .47888185 .13798523 .53393557 .1579895 .6230011 .22200012 .64100649 .2559967 .64100649 .2939911 .64100649 .35699464 .62098696 .37599183 .5279236 .3869934 .47288514 .3869934 .39482118 .3869934 .33177186 .3869934 .2697296 .3869934 .18566895 .3769989 .12661743 .35598756 .012542725 .28199769 .002532959 .25698854 .002532959Z"/>
<path id="font_2_4" d="M.30499269 .35195924C.397995 .38697816 .44198609 .46006776 .44198609 .5290985 .44198609 .60606387 .35699464 .6660156 .25299073 .6660156 .14898682 .6660156 .070999149 .60705569 .070999149 .5310974 .070999149 .49809266 .09298706 .47909547 .12199402 .47909547 .15098572 .47909547 .17199707 .50009158 .17199707 .5290985 .17199707 .5640869 .147995 .57910159 .11399841 .57910159 .13999939 .6210327 .20098877 .64100649 .25 .64100649 .33299256 .64100649 .34899903 .5750885 .34899903 .52809146 .34899903 .49809266 .34298707 .45005799 .31799317 .41201783 .2869873 .36695863 .2519989 .36495973 .22299195 .36296083 .19799805 .36094667 .19599915 .36094667 .18798828 .36094667 .1789856 .35995484 .17098999 .35894776 .17098999 .34794618 .17098999 .33496095 .1789856 .33496095 .19599915 .33496095H.24299622C.32998658 .33496095 .36799623 .2646637 .36799623 .16937256 .36799623 .04145813 .2999878 .0055389406 .24899292 .0055389406 .22999573 .0055389406 .1329956 .010528564 .08799744 .0843811 .12399292 .07939148 .1519928 .10437012 .1519928 .13838196 .1519928 .17137146 .1269989 .19238281 .09799194 .19238281 .07299805 .19238281 .042999269 .17736817 .042999269 .13537598 .042999269 .046447755 .13598633-.022460938 .2519989-.022460938 .3769989-.022460938 .46998597 .06741333 .46998597 .16937256 .46998597 .25663758 .40098573 .33093263 .30499269 .35195924Z"/>
<path id="font_2_5" d="M.0289917 .19602967V.16503906H.3019867V.07901001C.3019867 .041992189 .29899598 .0309906 .22399903 .0309906H.20199585V0C.2649994 .0029907227 .33499146 .0029907227 .34199525 .0029907227 .34700013 .0029907227 .4189911 .0029907227 .48199464 0V.0309906H.45999146C.3849945 .0309906 .38198854 .041992189 .38198854 .07901001V.16503906H.48399354V.19602967H.38198854V.64974978C.38198854 .669754 .38198854 .6767578 .36299134 .6767578 .35099793 .6767578 .34999085 .67575076 .34098817 .66174319L.0289917 .19602967M.06098938 .19602967 .30799867 .56581118V.19602967H.06098938Z"/>
<path id="font_2_6" d="M.10398865 .3444519C.10398865 .32641603 .10398865 .31539918 .117996219 .31539918 .12599182 .31539918 .1289978 .31941224 .1349945 .32843019 .16499329 .3704834 .21299744 .39453126 .2649994 .39453126 .37199403 .39453126 .37199403 .24029541 .37199403 .20425415 .37199403 .17324829 .37199403 .11125183 .34399415 .06637573 .31698609 .024475098 .2749939 .0055389406 .23599243 .0055389406 .1769867 .0055389406 .10998535 .042434694 .085998538 .116256717 .08699036 .116256717 .09298706 .11425781 .099990848 .11425781 .11999512 .11425781 .14898682 .12724304 .14898682 .16325379 .14898682 .19424439 .1269989 .21224976 .099990848 .21224976 .07899475 .21224976 .050994874 .20025635 .050994874 .1602478 .050994874 .069366458 .1269989-.022460938 .23799134-.022460938 .35899354-.022460938 .46199037 .0753479 .46199037 .19924927 .46199037 .3204193 .37599183 .41952516 .2669983 .41952516 .21899414 .41952516 .16999817 .40351869 .1349945 .36747743V.56477358C.16499329 .5557709 .19599915 .55078127 .22698975 .55078127 .34999085 .55078127 .42199708 .6397705 .42199708 .652771 .42199708 .6617737 .41600038 .6657715 .41099549 .6657715 .40899659 .6657715 .40699769 .6657715 .397995 .6607666 .35099793 .6417694 .30499269 .6337738 .2630005 .6337738 .21998596 .6337738 .1749878 .6417694 .1289978 .6607666 .11898804 .6657715 .116989139 .6657715 .115997318 .6657715 .10398865 .6657715 .10398865 .655777 .10398865 .6387787V.3444519Z"/>
<path id="font_3_105" d="M.34199525 .12408447V.18099976H.31399537V.1270752C.31399537 .05319214 .2829895 .01725769 .24699402 .01725769 .17999268 .01725769 .17999268 .1051178 .17999268 .12309265V.3996582H.32499696V.43066407H.17999268V.6142578H.1519928C.15098572 .5304413 .115997318 .42765809 .018997193 .4246521V.3996582H.10598755V.12408447C.10598755 .012252808 .18699646-.0107421879 .23999024-.0107421879 .30699159-.011001587 .34199525 .052993776 .34199525 .12399292V.12408447Z"/>
<path id="font_3_73" d="M.71199038-.029800415C.71199038-.016815186 .7049866-.012817383 .69400027-.007827759L.15699768 .25097657 .69200137 .50679019C.70098879 .51078799 .71199038 .51678469 .71199038 .5297699 .71199038 .5407562 .70399478 .5517578 .6899872 .5517578 .6899872 .5517578 .6839905 .5517578 .6719971 .5457611L.10598755 .27397157C.09700012 .26997376 .085998538 .26397706 .085998538 .25097657 .085998538 .23699951 .09498596 .23199463 .10598755 .227005L.66999819-.043792726C.6839905-.05078125 .6899872-.05078125 .6899872-.05078125 .70599368-.05078125 .71199038-.0368042 .71199038-.029800415Z"/>
<path id="font_3_82" d="M.43199159 0V.0309906H.3999939C.30699159 .0309906 .3039856 .042999269 .3039856 .08001709V.63912966C.3039856 .6640167 .30299378 .6660156 .27799989 .6660156 .21598816 .60227969 .12399292 .60227969 .09298706 .60227969V.57128909C.11199951 .57128909 .17298889 .57128909 .22698975 .5972748V.08001709C.22698975 .042999269 .22399903 .0309906 .1309967 .0309906H.09899902V0C.1349945 .0029907227 .22399903 .0029907227 .2649994 .0029907227 .30599977 .0029907227 .3959961 .0029907227 .43199159 0Z"/>
<path id="font_3_106" d="M.46998597 .17008972C.46998597 .25709535 .40098573 .33110047 .30499269 .35209657 .397995 .38710023 .44198609 .46009828 .44198609 .5290985 .44198609 .60606387 .35699464 .6660156 .25299073 .6660156 .14898682 .6660156 .070999149 .60705569 .070999149 .5310974 .070999149 .49809266 .09298706 .47909547 .12199402 .47909547 .15098572 .47909547 .17199707 .50009158 .17199707 .5290985 .17199707 .5640869 .147995 .57910159 .11399841 .57910159 .13999939 .6210327 .20098877 .64100649 .25 .64100649 .33299256 .64100649 .34899903 .5750885 .34899903 .52809146 .34899903 .49809266 .34298707 .45005799 .31799317 .41201783 .2869873 .36695863 .2519989 .36495973 .22299195 .36296083 .19799805 .36094667 .19599915 .36094667 .18798828 .36094667 .1789856 .35995484 .17098999 .35894776 .17098999 .34794618 .17098999 .33496095 .1789856 .33496095 .19599915 .33496095H.24299622C.32998658 .33496095 .36799623 .2646637 .36799623 .16937256 .36799623 .04145813 .2999878 .0055389406 .24899292 .0055389406 .22999573 .0055389406 .1329956 .010528564 .08799744 .0843811 .12399292 .07939148 .1519928 .10437012 .1519928 .13838196 .1519928 .17137146 .1269989 .19238281 .09799194 .19238281 .07299805 .19238281 .042999269 .17736817 .042999269 .13537598 .042999269 .046447755 .13598633-.022460938 .2519989-.022460938 .3769989-.022460938 .46998597 .06741333 .46998597 .16937256V.17008972Z"/>
<path id="font_3_61" d="M.71199038 .25097657C.71199038 .26397706 .70098879 .26997376 .69200137 .27397157L.12799073 .544754C.11399841 .5517578 .10699463 .5517578 .10699463 .5517578 .09399414 .5517578 .085998538 .5407562 .085998538 .530777 .085998538 .51878359 .09199524 .5137787 .10598755 .50679019L.6409912 .25097657 .10598755-.0058288576C.09199524-.012817383 .085998538-.017807007 .085998538-.029800415 .085998538-.0368042 .09199524-.05078125 .10798645-.05078125 .10798645-.05078125 .11399841-.05078125 .12599182-.044799806L.69200137 .227005C.7029877 .23199463 .71199038 .23699951 .71199038 .25097657Z"/>
</defs>
<path transform="matrix(1,0,0,-1.00003,72.587009,12.133004)" stroke-width=".3985" stroke-linecap="butt" stroke-miterlimit="10" stroke-linejoin="miter" fill="none" stroke="#000000" d="M-67.28047 0H152.32089"/>
<path transform="matrix(-1,-0,0,1.00003,5.306534,12.133004)" d="M3.58653 0C2.52383 .19925 .797 .797-.3985 1.49438V-1.49438C.797-.797 2.52383-.19925 3.58653 0"/>
<path transform="matrix(1,0,0,-1.00003,224.9079,12.133004)" d="M3.58653 0C2.52383 .19925 .797 .797-.3985 1.49438V-1.49438C.797-.797 2.52383-.19925 3.58653 0"/>
<path transform="matrix(1,0,0,-1.00003,72.587009,12.133004)" stroke-width=".3985" stroke-linecap="butt" stroke-miterlimit="10" stroke-linejoin="miter" fill="none" stroke="#000000" d="M-56.69362 2.98883V-2.98883"/>
<path transform="matrix(1,0,0,-1.00003,72.587009,12.133004)" stroke-width=".3985" stroke-linecap="butt" stroke-miterlimit="10" stroke-linejoin="miter" fill="none" stroke="#000000" d="M-28.3468 2.98883V-2.98883"/>
<path transform="matrix(1,0,0,-1.00003,72.587009,12.133004)" stroke-width=".3985" stroke-linecap="butt" stroke-miterlimit="10" stroke-linejoin="miter" fill="none" stroke="#000000" d="M0 2.98883V-2.98883"/>
<path transform="matrix(1,0,0,-1.00003,72.587009,12.133004)" stroke-width=".3985" stroke-linecap="butt" stroke-miterlimit="10" stroke-linejoin="miter" fill="none" stroke="#000000" d="M28.3468 2.98883V-2.98883"/>
<path transform="matrix(1,0,0,-1.00003,72.587009,12.133004)" stroke-width=".3985" stroke-linecap="butt" stroke-miterlimit="10" stroke-linejoin="miter" fill="none" stroke="#000000" d="M56.69362 2.98883V-2.98883"/>
<path transform="matrix(1,0,0,-1.00003,72.587009,12.133004)" stroke-width=".3985" stroke-linecap="butt" stroke-miterlimit="10" stroke-linejoin="miter" fill="none" stroke="#000000" d="M85.04042 2.98883V-2.98883"/>
<path transform="matrix(1,0,0,-1.00003,72.587009,12.133004)" stroke-width=".3985" stroke-linecap="butt" stroke-miterlimit="10" stroke-linejoin="miter" fill="none" stroke="#000000" d="M113.38724 2.98883V-2.98883"/>
<path transform="matrix(1,0,0,-1.00003,72.587009,12.133004)" stroke-width=".3985" stroke-linecap="butt" stroke-miterlimit="10" stroke-linejoin="miter" fill="none" stroke="#000000" d="M141.73404 2.98883V-2.98883"/>
<path transform="matrix(1,0,0,-1.00003,72.587009,12.133004)" stroke-width=".3985" stroke-linecap="butt" stroke-miterlimit="10" stroke-linejoin="miter" fill="none" stroke="#000000" d="M-56.69362 0V-2.98883"/>
<use data-text="&#x2212;" xlink:href="#font_1_1" transform="matrix(8.9664,0,0,-8.966669,10.006012,24.088364)"/>
<use data-text="2" xlink:href="#font_2_3" transform="matrix(8.9664,0,0,-8.966669,17.173005,24.088364)"/>
<path transform="matrix(1,0,0,-1.00003,72.587009,12.133004)" stroke-width=".3985" stroke-linecap="butt" stroke-miterlimit="10" stroke-linejoin="miter" fill="none" stroke="#000000" d="M-28.3468 0V-2.98883"/>
<use data-text="&#x2212;" xlink:href="#font_1_1" transform="matrix(8.9664,0,0,-8.966669,38.352998,24.088364)"/>
<use data-text="1" xlink:href="#font_2_2" transform="matrix(8.9664,0,0,-8.966669,45.51999,24.088364)"/>
<path transform="matrix(1,0,0,-1.00003,72.587009,12.133004)" stroke-width=".3985" stroke-linecap="butt" stroke-miterlimit="10" stroke-linejoin="miter" fill="none" stroke="#000000" d="M0 0V-2.98883"/>
<use data-text="0" xlink:href="#font_2_1" transform="matrix(8.9664,0,0,-8.966669,70.283008,24.088364)"/>
<path transform="matrix(1,0,0,-1.00003,72.587009,12.133004)" stroke-width=".3985" stroke-linecap="butt" stroke-miterlimit="10" stroke-linejoin="miter" fill="none" stroke="#000000" d="M28.3468 0V-2.98883"/>
<use data-text="1" xlink:href="#font_2_2" transform="matrix(8.9664,0,0,-8.966669,98.630008,24.088364)"/>
<path transform="matrix(1,0,0,-1.00003,72.587009,12.133004)" stroke-width=".3985" stroke-linecap="butt" stroke-miterlimit="10" stroke-linejoin="miter" fill="none" stroke="#000000" d="M56.69362 0V-2.98883"/>
<use data-text="2" xlink:href="#font_2_3" transform="matrix(8.9664,0,0,-8.966669,126.977008,24.088364)"/>
<path transform="matrix(1,0,0,-1.00003,72.587009,12.133004)" stroke-width=".3985" stroke-linecap="butt" stroke-miterlimit="10" stroke-linejoin="miter" fill="none" stroke="#000000" d="M85.04042 0V-2.98883"/>
<use data-text="3" xlink:href="#font_2_4" transform="matrix(8.9664,0,0,-8.966669,155.324,24.088364)"/>
<path transform="matrix(1,0,0,-1.00003,72.587009,12.133004)" stroke-width=".3985" stroke-linecap="butt" stroke-miterlimit="10" stroke-linejoin="miter" fill="none" stroke="#000000" d="M113.38724 0V-2.98883"/>
<use data-text="4" xlink:href="#font_2_5" transform="matrix(8.9664,0,0,-8.966669,183.67002,24.088364)"/>
<path transform="matrix(1,0,0,-1.00003,72.587009,12.133004)" stroke-width=".3985" stroke-linecap="butt" stroke-miterlimit="10" stroke-linejoin="miter" fill="none" stroke="#000000" d="M141.73404 0V-2.98883"/>
<use data-text="5" xlink:href="#font_2_6" transform="matrix(8.9664,0,0,-8.966669,212.017,24.088364)"/>
<path transform="matrix(1,0,0,-1.00003,72.587009,12.133004)" stroke-width="4.252" stroke-linecap="butt" stroke-miterlimit="10" stroke-linejoin="miter" fill="none" stroke="#ff0000" stroke-opacity=".3" d="M-70.867 0H28.3468"/>
<use data-text="t" xlink:href="#font_3_105" transform="matrix(8.9664,0,0,-8.966669,40.572008,6.560837)" fill="#ff0000"/>
<use data-text="&#x003c;" xlink:href="#font_3_73" transform="matrix(8.9664,0,0,-8.966669,47.225084,6.560837)" fill="#ff0000"/>
<use data-text="1" xlink:href="#font_3_82" transform="matrix(8.9664,0,0,-8.966669,57.464708,6.560837)" fill="#ff0000"/>
<path transform="matrix(1,0,0,-1.00003,72.587009,12.133004)" stroke-width="4.252" stroke-linecap="butt" stroke-miterlimit="10" stroke-linejoin="miter" fill="none" stroke="#006600" stroke-opacity=".3" d="M28.3468 0H85.04042"/>
<use data-text="1" xlink:href="#font_3_82" transform="matrix(8.9664,0,0,-8.966669,109.563,6.560837)" fill="#006600"/>
<use data-text="&#x003c;" xlink:href="#font_3_73" transform="matrix(8.9664,0,0,-8.966669,117.23825,6.560837)" fill="#006600"/>
<use data-text="t" xlink:href="#font_3_105" transform="matrix(8.9664,0,0,-8.966669,127.477878,6.560837)" fill="#006600"/>
<use data-text="&#x003c;" xlink:href="#font_3_73" transform="matrix(8.9664,0,0,-8.966669,134.13991,6.560837)" fill="#006600"/>
<use data-text="3" xlink:href="#font_3_106" transform="matrix(8.9664,0,0,-8.966669,144.37953,6.560837)" fill="#006600"/>
<path transform="matrix(1,0,0,-1.00003,72.587009,12.133004)" stroke-width="4.252" stroke-linecap="butt" stroke-miterlimit="10" stroke-linejoin="miter" fill="none" stroke="#0000ff" stroke-opacity=".3" d="M85.04042 0H155.90744"/>
<use data-text="t" xlink:href="#font_3_105" transform="matrix(8.9664,0,0,-8.966669,182.306,6.560837)" fill="#0000ff"/>
<use data-text="&#x003e;" xlink:href="#font_3_61" transform="matrix(8.9664,0,0,-8.966669,188.95908,6.560837)" fill="#0000ff"/>
<use data-text="3" xlink:href="#font_3_106" transform="matrix(8.9664,0,0,-8.966669,199.1987,6.560837)" fill="#0000ff"/>
</svg>
