<svg xmlns="http://www.w3.org/2000/svg" xmlns:xlink="http://www.w3.org/1999/xlink" version="1.1" width="182" height="63" viewBox="0 0 182 63">
<defs>
<path id="font_1_1" d="M.42799378 .45222474 .43899537 .49023438H.31199647L.34599305 .6092224 .33399964 .6162262 .23699951 .53923037 .22399903 .49023438H.14299011L.13198853 .45222474H.21499634L.125 .08627319C.10998535 .029266358 .12199402-.01171875 .17199707-.01171875 .2519989-.01171875 .31599427 .054275514 .35598756 .1292572L.33399964 .1462555C.31098939 .10726929 .2599945 .040267946 .22898865 .040267946 .20799256 .040267946 .20799256 .0632782 .21398926 .088272098L.30299378 .45222474H.42799378Z"/>
<path id="font_2_3" d="M.07398987 .2861328V.21612549H.31900025V.2861328H.07398987Z"/>
<path id="font_2_7" d="M.12998963 .3657837C.12998963 .3487854 .1349945 .33779908 .147995 .33779908 .1599884 .33779908 .18699646 .34777833 .23498535 .34777833 .31999208 .34777833 .36799623 .27090455 .36799623 .18403626 .36799623 .065216068 .30899049 .023269654 .23799134 .023269654 .17199707 .023269654 .1289978 .07319641 .10998535 .12911988 .10398865 .14808655 .09399414 .15707398 .07998657 .15707398 .06199646 .15707398 .026992798 .13809204 .026992798 .10215759 .026992798 .05921936 .09599304-.01171875 .23699951-.01171875 .38198854-.01171875 .47299195 .06121826 .47299195 .18902588 .47299195 .32281495 .35798646 .3627777 .30299378 .3677826V.3717804C.35699464 .38078309 .44400025 .4207611 .44400025 .5197296 .44400025 .6306915 .35699464 .6796875 .25 .6796875 .117996219 .6796875 .052993776 .60369876 .052993776 .5607147 .052993776 .5297241 .08799744 .51272585 .101989749 .51272585 .114990238 .51272585 .12298584 .5197296 .1269989 .5327301 .14898682 .60069277 .18699646 .64468386 .24299622 .64468386 .32199098 .64468386 .34098817 .57470706 .34098817 .51872256 .34098817 .4587555 .31999208 .38378907 .23498535 .38378907 .18699646 .38378907 .1599884 .39378358 .147995 .39378358 .1349945 .39378358 .12998963 .38378907 .12998963 .3657837Z"/>
<path id="font_2_6" d="M.4850006 .13195801 .45700074 .13696289C.43598939 .08299255 .41600038 .07598877 .37599183 .07598877H.11999512C.13598633 .1279602 .19499207 .19892884 .28799439 .2658844 .38398744 .33584596 .45799256 .38082887 .45799256 .49276734 .45799256 .63168337 .3659973 .6796875 .26098634 .6796875 .12399292 .6796875 .052993776 .5967102 .052993776 .54473879 .052993776 .51075747 .09098816 .49476625 .10798645 .49476625 .12599182 .49476625 .1329956 .50476077 .13699341 .5217438 .15299988 .5897064 .19198609 .64468386 .2539978 .64468386 .33099366 .64468386 .35299684 .5797119 .35299684 .50675967 .35299684 .3998108 .29899598 .33984376 .21199036 .26289369 .08898926 .15594483 .04598999 .08798218 .026992798 .009994507L.036987306 0H.45098878L.4850006 .13195801Z"/>
<path id="font_2_5" d="M.43699647 0V.0289917L.35299684 .035995485C.33198548 .037994386 .31999208 .04598999 .31999208 .08496094V.67367556L.31498719 .6796875 .10899353 .6446991V.6197052L.20199585 .6087036C.21899414 .6067047 .22599793 .5987091 .22599793 .56973269V.08496094C.22599793 .065979007 .22299195 .053985597 .21699524 .04698181 .21199036 .039993287 .20399475 .036987306 .19299317 .035995485L.10899353 .0289917V0H.43699647Z"/>
<path id="font_2_8" d="M.2999878 .17871094V.0769043C.2999878 .04296875 .2889862 .036987306 .2649994 .034988405L.20098877 .0289917V0H.46499635V.0289917L.41999818 .033981325C.39698792 .036987306 .3899994 .04296875 .3899994 .0769043V.17871094H.49299623V.22570801H.3899994V.66796877H.31698609C.22299195 .5298767 .11099243 .35577394 .018997193 .19970703L.027999878 .17871094H.2999878M.09098816 .22570801C.15098572 .33476258 .22099304 .4498291 .2979889 .5709076H.2999878V.22570801H.09098816Z"/>
<path id="font_2_9" d="M.42599488 .5919647 .44999696 .6599579 .44499208 .66796877H.11099243L.100997928 .65896609 .08099365 .32388307 .10499573 .31188966C.14698792 .35983277 .18798828 .3828125 .24198914 .3828125 .30599977 .3828125 .37599183 .3358612 .37599183 .20404053 .37599183 .10116577 .33399964 .023269654 .24699402 .023269654 .1769867 .023269654 .14099121 .07420349 .12098694 .13113404 .115997318 .14611817 .10699463 .15510559 .09298706 .15510559 .07299805 .15510559 .039993287 .13513184 .039993287 .10217285 .039993287 .056228639 .10998535-.01171875 .23999024-.01171875 .40499879-.01171875 .47999574 .0881958 .47999574 .21502686 .47999574 .35484315 .3919983 .4268036 .272995 .4268036 .21798706 .4268036 .15899658 .4028015 .1269989 .3738098L.125 .37580873 .147995 .56292727C.15098572 .58795168 .1579895 .5919647 .1769867 .5919647H.42599488Z"/>
<path id="font_1_2" d="M.5329895 .48995973C.5039978 .388031 .48799134 .33506776 .46199037 .2741089 .41799928 .173172 .33099366 .040267946 .24798584 .040267946 .21598816 .040267946 .20799256 .070251468 .22299195 .12820435L.31900025 .4970703 .31399537 .50205996 .13198853 .47375489 .12599182 .4497528 .18798828 .44476319C.21199036 .44276429 .21099854 .42778016 .20298767 .39682008L.13398743 .13316345C.11299133 .053253175 .12098694-.01171875 .20098877-.01171875 .29699708-.01171875 .4019928 .09420776 .46199037 .21005249H.46398927L.43099977 .096206668C.4119873 .029266358 .42399598-.01171875 .47698976-.01171875 .548996-.01171875 .60899356 .057250978 .6439972 .13116455L.6199951 .14613343C.59999087 .11218262 .55599978 .040267946 .5279999 .040267946 .5069885 .040267946 .5069885 .06324768 .5149994 .09420776L.621994 .5019531 .5329895 .48995973Z"/>
<path id="font_2_1" d="M.1749878 .2822113C.1749878 .56832888 .2619934 .65437319 .32499696 .66737368V.6923828C.1499939 .685379 .10499573 .46829225 .10499573 .2822113 .10499573 .09614563 .1499939-.12094116 .32499696-.12792969V-.10293579C.2669983-.090927127 .1749878-.0059051516 .1749878 .2822113Z"/>
<path id="font_2_2" d="M.1749878 .2822113C.1749878-.0059051516 .08299255-.090927127 .024993897-.10293579V-.12792969C.19999695-.12094116 .24499512 .09614563 .24499512 .2822113 .24499512 .46829225 .19999695 .685379 .024993897 .6923828V.66737368C.08799744 .65437319 .1749878 .56832888 .1749878 .2822113Z"/>
<path id="font_3_1" d="M.6349945 .14315796V.20117188H.084991458V.14315796H.6349945M.6349945 .36288453V.42089845H.084991458V.36288453H.6349945Z"/>
<path id="font_2_4" d="M.2649994 .64468386C.3600006 .64468386 .3869934 .49682618 .3869934 .33398438 .3869934 .17112732 .3600006 .023269654 .2649994 .023269654 .16999817 .023269654 .14299011 .17112732 .14299011 .33398438 .14299011 .49682618 .16999817 .64468386 .2649994 .64468386M.2649994 .6796875C.099990848 .6796875 .040985109 .53378298 .040985109 .33398438 .040985109 .13417053 .099990848-.01171875 .2649994-.01171875 .42999269-.01171875 .4889984 .13417053 .4889984 .33398438 .4889984 .53378298 .42999269 .6796875 .2649994 .6796875Z"/>
<path id="font_2_13" d="M.18998719 .7480469C.13999939 .7020416 .07199097 .6350403 .07199097 .56404116 .07199097 .5100403 .10398865 .47703553 .13699341 .4780426 .16699219 .4780426 .18499756 .4990387 .18499756 .5260315 .18499756 .56204226 .1519928 .58303835 .1519928 .6200409 .1519928 .6580353 .17599488 .6960449 .20698548 .7320404L.18998719 .7480469M.36999513 .7480469C.31999208 .7020416 .2519989 .6350403 .2519989 .56404116 .2519989 .5100403 .28399659 .47703553 .31698609 .4780426 .34700013 .4780426 .36499024 .4990387 .36499024 .5260315 .36499024 .56204226 .33198548 .58303835 .33198548 .6200409 .33198548 .6580353 .35598756 .6960449 .3869934 .7320404L.36999513 .7480469Z"/>
<path id="font_2_12" d="M.28799439 .5019531C.12799073 .5019531 .04899597 .40698243 .04899597 .24510193 .04899597 .083236698 .12799073-.01171875 .28799439-.01171875 .44999696-.01171875 .5279999 .083236698 .5279999 .24510193 .5279999 .40698243 .44999696 .5019531 .28799439 .5019531M.15299988 .24510193C.15299988 .38301087 .19699097 .46694947 .28799439 .46694947 .3809967 .46694947 .42399598 .38301087 .42399598 .24510193 .42399598 .10720825 .3809967 .023269654 .28799439 .023269654 .19699097 .023269654 .15299988 .10720825 .15299988 .24510193Z"/>
<path id="font_2_10" d="M.20098877 .45022584H.32299806V.49023438H.20098877L.19699097 .60220339C.19400025 .6971741 .22898865 .70718386 .24499512 .70718386 .2659912 .70718386 .28799439 .6971741 .31298829 .6391907 .31799317 .62919619 .32499696 .6221924 .33999635 .6221924 .3600006 .6221924 .3889923 .6391907 .3889923 .66918948 .3889923 .70217898 .34700013 .7421875 .2669983 .7421875 .21199036 .7421875 .16499329 .71717837 .13999939 .67918398 .116989139 .64419558 .10699463 .5912018 .10699463 .5252228V.49023438H.02999878V.45022584H.10699463V.087020877C.10699463 .035995485 .10398865 .033996583 .03199768 .0289917V0H.29599V.0289917C.20498657 .032989503 .20098877 .034988405 .20098877 .08602905V.45022584Z"/>
<path id="font_2_14" d="M.08898926 .47218324C.13899231 .5181732 .20698548 .58517459 .20698548 .6561737 .20698548 .71017459 .1749878 .7431793 .14199829 .7421875 .11199951 .7421875 .09399414 .72117617 .09399414 .69418337 .09399414 .6581726 .1269989 .6371765 .1269989 .60017397 .1269989 .56217959 .102996829 .5241852 .07199097 .48817445L.08898926 .47218324M.2689972 .47218324C.31900025 .5181732 .3869934 .58517459 .3869934 .6561737 .3869934 .71017459 .35499574 .7431793 .32199098 .7421875 .2919922 .7421875 .27398683 .72117617 .27398683 .69418337 .27398683 .6581726 .30699159 .6371765 .30699159 .60017397 .30699159 .56217959 .2829895 .5241852 .2519989 .48817445L.2689972 .47218324Z"/>
<path id="font_2_11" d="M.5289917 .34295655C.5289917 .4439392 .47399903 .5019531 .38198854 .5019531 .30799867 .5019531 .2619934 .46594239 .19999695 .4259491L.18598938 .5019531 .036987306 .47694398V.45195008L.07499695 .4469452C.100997928 .4429474 .10699463 .4379425 .10699463 .40194703V.08699036C.10699463 .035995485 .10398865 .033996583 .03199768 .0289917V0H.27598573V.0289917C.20498657 .033996583 .20098877 .035995485 .20098877 .08699036V.32095338C.20098877 .34596253 .20298767 .35995484 .21099854 .37594605 .23199463 .4149475 .2769928 .44795228 .32998658 .44795228 .397995 .44795228 .43499757 .40994264 .43499757 .32295228V.08699036C.43499757 .035995485 .43199159 .033996583 .3600006 .0289917V0H.60398867V.0289917C.5329895 .033996583 .5289917 .035995485 .5289917 .08699036V.34295655Z"/>
</defs>
<path transform="matrix(1.00002,0,0,-1.00003,70.94175,37.516649)" d="M-69.44937-23.81114V35.71686H59.52802V-23.81114ZM59.52802 35.71686" fill="#d9d9ff"/>
<path transform="matrix(1.00002,0,0,-1.00003,70.94175,37.516649)" d="M59.52802-23.81114V35.71686H109.13472V-23.81114ZM109.13472 35.71686" fill="#d9f0d9"/>
<path transform="matrix(1.00002,0,0,-1.00003,70.94175,37.516649)" stroke-width=".19925" stroke-linecap="butt" stroke-dasharray="2.98883,2.98883" stroke-miterlimit="10" stroke-linejoin="miter" fill="none" stroke="#000000" d="M59.52802-23.81114V35.71686"/>
<path transform="matrix(1.00002,0,0,-1.00003,70.94175,37.516649)" stroke-width=".3985" stroke-linecap="butt" stroke-miterlimit="10" stroke-linejoin="miter" fill="none" stroke="#000000" d="M-69.44937 0H108.67644"/>
<path transform="matrix(1.00002,0,0,-1.00003,179.62036,37.516649)" stroke-width=".31879" stroke-linecap="round" stroke-linejoin="round" fill="none" stroke="#000000" d="M-1.19551 1.59401C-1.09587 .99626 0 .09961 .29886 0 0-.09961-1.09587-.99626-1.19551-1.59401"/>
<path transform="matrix(1.00002,0,0,-1.00003,70.94175,37.516649)" stroke-width=".3985" stroke-linecap="butt" stroke-miterlimit="10" stroke-linejoin="miter" fill="none" stroke="#000000" d="M0-23.81114V35.25858"/>
<path transform="matrix(0,-1.00003,-1.00002,-0,70.94175,2.2570077)" stroke-width=".31879" stroke-linecap="round" stroke-linejoin="round" fill="none" stroke="#000000" d="M-1.19551 1.59401C-1.09587 .99626 0 .09961 .29886 0 0-.09961-1.09587-.99626-1.19551-1.59401"/>
<use data-text="t" xlink:href="#font_1_1" transform="matrix(7.332647,0,0,-7.3327205,176.53186,45.434885)"/>
<path transform="matrix(1.00002,0,0,-1.00003,70.94175,37.516649)" stroke-width=".3985" stroke-linecap="butt" stroke-miterlimit="10" stroke-linejoin="miter" fill="none" stroke="#929292" d="M-59.52802 1.98438V-1.98438"/>
<use data-text="-" xlink:href="#font_2_3" transform="matrix(7.332647,0,0,-7.3327205,8.029495,47.412946)"/>
<use data-text="3" xlink:href="#font_2_7" transform="matrix(7.332647,0,0,-7.3327205,10.9039,47.412946)"/>
<path transform="matrix(1.00002,0,0,-1.00003,70.94175,37.516649)" stroke-width=".3985" stroke-linecap="butt" stroke-miterlimit="10" stroke-linejoin="miter" fill="none" stroke="#929292" d="M-39.68535 1.98438V-1.98438"/>
<use data-text="-" xlink:href="#font_2_3" transform="matrix(7.332647,0,0,-7.3327205,27.871888,47.412946)"/>
<use data-text="2" xlink:href="#font_2_6" transform="matrix(7.332647,0,0,-7.3327205,30.746293,47.412946)"/>
<path transform="matrix(1.00002,0,0,-1.00003,70.94175,37.516649)" stroke-width=".3985" stroke-linecap="butt" stroke-miterlimit="10" stroke-linejoin="miter" fill="none" stroke="#929292" d="M-19.84267 1.98438V-1.98438"/>
<use data-text="-" xlink:href="#font_2_3" transform="matrix(7.332647,0,0,-7.3327205,47.715288,47.412946)"/>
<use data-text="1" xlink:href="#font_2_5" transform="matrix(7.332647,0,0,-7.3327205,50.58969,47.412946)"/>
<path transform="matrix(1.00002,0,0,-1.00003,70.94175,37.516649)" stroke-width=".3985" stroke-linecap="butt" stroke-miterlimit="10" stroke-linejoin="miter" fill="none" stroke="#929292" d="M19.84267 1.98438V-1.98438"/>
<use data-text="1" xlink:href="#font_2_5" transform="matrix(7.332647,0,0,-7.3327205,88.84011,47.412946)"/>
<path transform="matrix(1.00002,0,0,-1.00003,70.94175,37.516649)" stroke-width=".3985" stroke-linecap="butt" stroke-miterlimit="10" stroke-linejoin="miter" fill="none" stroke="#929292" d="M39.68535 1.98438V-1.98438"/>
<use data-text="2" xlink:href="#font_2_6" transform="matrix(7.332647,0,0,-7.3327205,108.6835,47.412946)"/>
<path transform="matrix(1.00002,0,0,-1.00003,70.94175,37.516649)" stroke-width=".3985" stroke-linecap="butt" stroke-miterlimit="10" stroke-linejoin="miter" fill="none" stroke="#929292" d="M59.52802 1.98438V-1.98438"/>
<use data-text="3" xlink:href="#font_2_7" transform="matrix(7.332647,0,0,-7.3327205,128.52591,47.412946)"/>
<path transform="matrix(1.00002,0,0,-1.00003,70.94175,37.516649)" stroke-width=".3985" stroke-linecap="butt" stroke-miterlimit="10" stroke-linejoin="miter" fill="none" stroke="#929292" d="M79.37071 1.98438V-1.98438"/>
<use data-text="4" xlink:href="#font_2_8" transform="matrix(7.332647,0,0,-7.3327205,148.3693,47.412946)"/>
<path transform="matrix(1.00002,0,0,-1.00003,70.94175,37.516649)" stroke-width=".3985" stroke-linecap="butt" stroke-miterlimit="10" stroke-linejoin="miter" fill="none" stroke="#929292" d="M99.2134 1.98438V-1.98438"/>
<use data-text="5" xlink:href="#font_2_9" transform="matrix(7.332647,0,0,-7.3327205,168.21269,47.412946)"/>
<path transform="matrix(1.00002,0,0,-1.00003,70.94175,37.516649)" stroke-width=".3985" stroke-linecap="butt" stroke-miterlimit="10" stroke-linejoin="miter" fill="none" stroke="#929292" d="M1.98438 19.84267H-1.98438"/>
<use data-text="1" xlink:href="#font_2_5" transform="matrix(7.332647,0,0,-7.3327205,65.63764,20.128125)"/>
<path transform="matrix(1.00002,0,0,-1.00003,70.94175,37.516649)" stroke-width="1.19553" stroke-linecap="butt" stroke-miterlimit="10" stroke-linejoin="miter" fill="none" stroke="#0000ff" d="M-69.44937 0H-68.15681-66.86427-65.57172-64.27917-62.98662-61.69408-60.40152-59.10898-57.81644-56.52388-55.23134-53.93878-52.64624-51.35368-50.06116-48.7686-47.47604-46.1835-44.89096-43.59842-42.30586-41.0133-39.72075-38.42822-37.13568-35.84312-34.55057-33.25803-31.96548-30.67293-29.38039-28.08783-26.79529-25.50275-24.21019-22.91765-21.62509-20.33255-19.04-17.74747-16.4549-15.16235-13.86981-12.57726-11.28473-9.99217-8.69962-7.40706-6.11453-4.82199-3.52943-2.23688-.94434 .34816 1.64073 2.93327 4.22581 5.51836 6.8109 8.10345 9.396 10.68855 11.9811 13.27365 14.5662 15.85875 17.15129 18.44383 19.73639 21.02893 22.32149 23.61403 24.90659 26.19911 27.49167 28.78423 30.07677 31.36931 32.66185 33.95442 35.24696 36.5395 37.83205 39.12459 40.41716 41.7097 43.00224 44.29478 45.58734 46.87988 48.17242 49.46498 50.75752 52.05008 53.34262 54.63518 55.92772 57.22028 58.51282"/>
<path transform="matrix(1.00002,0,0,-1.00003,70.94175,37.516649)" stroke-width="1.19553" stroke-linecap="butt" stroke-miterlimit="10" stroke-linejoin="miter" fill="none" stroke="#009900" d="M59.52802 19.84267H60.02881 60.5296 61.03038 61.53119 62.03197 62.53276 63.03355 63.53433 64.03514 64.53592 65.03671 65.53752 66.03828 66.53908 67.03989 67.54066 68.04146 68.54225 69.04303 69.54382 70.04462 70.54541 71.04619 71.547 72.04778 72.54855 73.04936 73.55014 74.05095 74.55174 75.0525 75.55331 76.0541 76.55489 77.0557 77.55647 78.05725 78.55806 79.05884 79.55963 80.06042 80.56122 81.062 81.56279 82.06358 82.56438 83.06517 83.56595 84.06676 84.56754 85.06831 85.56912 86.06992 86.5707 87.0715 87.57227 88.07306 88.57387 89.07465 89.57544 90.07623 90.57701 91.0778 91.5786 92.07939 92.58018 93.08098 93.58176 94.08255 94.58334 95.08412 95.58493 96.08572 96.58649 97.0873 97.58809 98.08887 98.58968 99.09045 99.59125 100.09204 100.59282 101.09361 101.5944 102.0952 102.596 103.09677 103.59756 104.09836 104.59915 105.09993 105.60074 106.10152 106.6023 107.1031 107.6039 108.10468 108.60548 109.10626"/>
<path transform="matrix(1.00002,0,0,-1.00003,70.94175,37.516649)" stroke-width=".79701" stroke-linecap="butt" stroke-miterlimit="10" stroke-linejoin="miter" fill="none" stroke="#0000ff" d="M61.6202 0C61.6202 1.15549 60.6835 2.09216 59.52802 2.09216 58.37253 2.09216 57.43585 1.15549 57.43585 0 57.43585-1.15549 58.37253-2.09216 59.52802-2.09216 60.6835-2.09216 61.6202-1.15549 61.6202 0ZM59.52802 0"/>
<path transform="matrix(1.00002,0,0,-1.00003,70.94175,37.516649)" d="M61.6202 19.84267C61.6202 20.99815 60.6835 21.93483 59.52802 21.93483 58.37253 21.93483 57.43585 20.99815 57.43585 19.84267 57.43585 18.68718 58.37253 17.75049 59.52802 17.75049 60.6835 17.75049 61.6202 18.68718 61.6202 19.84267ZM59.52802 19.84267" fill="#009900"/>
<use data-text="u" xlink:href="#font_1_2" transform="matrix(7.332647,0,0,-7.3327205,51.45736,32.716505)" fill="#0000ff"/>
<use data-text="3" xlink:href="#font_2_7" transform="matrix(6.232725,0,0,-6.2327878,56.231454,34.08454)" fill="#0000ff"/>
<use data-text="(" xlink:href="#font_2_1" transform="matrix(7.332647,0,0,-7.3327205,60.03553,32.716505)" fill="#0000ff"/>
<use data-text="t" xlink:href="#font_1_1" transform="matrix(7.332647,0,0,-7.3327205,62.76159,32.716505)" fill="#0000ff"/>
<use data-text=")" xlink:href="#font_2_2" transform="matrix(7.332647,0,0,-7.3327205,66.044658,32.716505)" fill="#0000ff"/>
<use data-text="=" xlink:href="#font_3_1" transform="matrix(7.332647,0,0,-7.3327205,69.974727,32.716505)" fill="#0000ff"/>
<use data-text="0" xlink:href="#font_2_4" transform="matrix(7.332647,0,0,-7.3327205,76.61486,32.716505)" fill="#0000ff"/>
<use data-text="u" xlink:href="#font_1_2" transform="matrix(7.332647,0,0,-7.3327205,140.75115,12.872908)" fill="#009900"/>
<use data-text="3" xlink:href="#font_2_7" transform="matrix(6.232725,0,0,-6.2327878,145.52524,14.240948)" fill="#009900"/>
<use data-text="(" xlink:href="#font_2_1" transform="matrix(7.332647,0,0,-7.3327205,149.32932,12.872908)" fill="#009900"/>
<use data-text="t" xlink:href="#font_1_1" transform="matrix(7.332647,0,0,-7.3327205,152.05538,12.872908)" fill="#009900"/>
<use data-text=")" xlink:href="#font_2_2" transform="matrix(7.332647,0,0,-7.3327205,155.33844,12.872908)" fill="#009900"/>
<use data-text="=" xlink:href="#font_3_1" transform="matrix(7.332647,0,0,-7.3327205,159.26851,12.872908)" fill="#009900"/>
<use data-text="1" xlink:href="#font_2_5" transform="matrix(7.332647,0,0,-7.3327205,165.90865,12.872908)" fill="#009900"/>
<use data-text="&#x201c;" xlink:href="#font_2_13" transform="matrix(7.332647,0,0,-7.3327205,58.229494,57.88926)" fill="#0000ff"/>
<use data-text="o" xlink:href="#font_2_12" transform="matrix(7.332647,0,0,-7.3327205,61.001237,57.88926)" fill="#0000ff"/>
<use data-text="f" xlink:href="#font_2_10" transform="matrix(7.332647,0,0,-7.3327205,65.23218,57.88926)" fill="#0000ff"/>
<use data-text="f" xlink:href="#font_2_10" transform="matrix(7.332647,0,0,-7.3327205,67.57129,57.88926)" fill="#0000ff"/>
<use data-text="&#x201d;" xlink:href="#font_2_14" transform="matrix(7.332647,0,0,-7.3327205,70.37236,57.88926)" fill="#0000ff"/>
<use data-text="&#x201c;" xlink:href="#font_2_13" transform="matrix(7.332647,0,0,-7.3327205,148.1253,57.88926)" fill="#009900"/>
<use data-text="o" xlink:href="#font_2_12" transform="matrix(7.332647,0,0,-7.3327205,150.89704,57.88926)" fill="#009900"/>
<use data-text="n" xlink:href="#font_2_11" transform="matrix(7.332647,0,0,-7.3327205,155.12799,57.88926)" fill="#009900"/>
<use data-text="&#x201d;" xlink:href="#font_2_14" transform="matrix(7.332647,0,0,-7.3327205,159.07294,57.88926)" fill="#009900"/>
</svg>
