<svg xmlns="http://www.w3.org/2000/svg" xmlns:xlink="http://www.w3.org/1999/xlink" version="1.1" width="143" height="42" viewBox="0 0 143 42">
<defs>
<path id="font_1_7" d="M.42799378 .45222474 .43899537 .49023438H.31199647L.34599305 .6092224 .33399964 .6162262 .23699951 .53923037 .22399903 .49023438H.14299011L.13198853 .45222474H.21499634L.125 .08627319C.10998535 .029266358 .12199402-.01171875 .17199707-.01171875 .2519989-.01171875 .31599427 .054275514 .35598756 .1292572L.33399964 .1462555C.31098939 .10726929 .2599945 .040267946 .22898865 .040267946 .20799256 .040267946 .20799256 .0632782 .21398926 .088272098L.30299378 .45222474H.42799378Z"/>
<path id="font_1_4" d="M.42799378 .15419007C.3939972 .10821533 .33499146 .03727722 .2679901 .03727722 .19499207 .03727722 .17999268 .097229007 .17999268 .16816712 .17999268 .29808045 .25498963 .46694947 .34700013 .46694947 .3789978 .46694947 .40098573 .44696046 .40699769 .38700868 .40899659 .36901856 .41799928 .35702516 .43598939 .35702516 .45999146 .35702516 .5 .38002015 .5 .41299439 .5 .46394349 .44599916 .5019531 .37098695 .5019531 .19299317 .5019531 .08099365 .31207276 .08099365 .14819336 .08099365 .026275635 .1539917-.01171875 .22399903-.01171875 .2979889-.01171875 .3829956 .02027893 .45199586 .13519287L.42799378 .15419007Z"/>
<path id="font_1_5" d="M.17098999 .112213138C.17098999 .22013855 .2579956 .46694947 .41799928 .46694947 .44898988 .46694947 .47499085 .45794679 .4869995 .44696046 .47200013 .37002564 .43899537 .27609254 .3880005 .19316101 .33999635 .115219119 .27398683 .040267946 .22099304 .040267946 .18899536 .040267946 .17098999 .06724548 .17098999 .112213138M.46398927 .71824648 .45799256 .6953125 .5179901 .68930056C.5419922 .6872864 .5439911 .6802826 .5359955 .6482239L.49798585 .48693849 .49598695 .48493959C.47698976 .49494935 .44599916 .5019531 .4119873 .5019531 .1789856 .5019531 .07199097 .24111939 .07199097 .12020874 .07199097 .055267335 .09098816-.01171875 .17199707-.01171875 .2869873-.01171875 .37599183 .11122131 .43499757 .21813965H.43699647L.4039917 .099227908C.38398744 .028274537 .39898683-.01272583 .44999696-.01171875 .522995-.01171875 .57899478 .056259157 .61299136 .13220215L.58898928 .14619446C.57099917 .11122131 .5269928 .040267946 .49899293 .040267946 .47898866 .040267946 .48098756 .06326294 .4889984 .0952301L.6469879 .7371979 .6419983 .7421875 .46398927 .71824648Z"/>
<path id="font_1_6" d="M.43199159 .49023438H.3019867L.32998658 .6031952C.34899903 .67918398 .36799623 .70718386 .3959961 .70718386 .4229889 .70718386 .44099427 .68518069 .46299745 .6371918 .46798707 .62719729 .47499085 .6201935 .48999024 .6201935 .5099945 .6201935 .5389862 .6391907 .5389862 .6641846 .5389862 .70718386 .4850006 .7421875 .4249878 .7421875 .3600006 .7421875 .31799317 .71517947 .2849884 .67318728 .2539978 .63420107 .23399353 .5802002 .21998596 .5272217L.20999146 .49023438H.12298584L.11199951 .45222474H.20098877L.084991458-.137146C.07299805-.19918823 .06298828-.2052002 .052993776-.2052002 .041992189-.2052002 .026992798-.19718933 0-.15615845-.007003784-.14616394-.014007568-.13415528-.027008057-.13415528-.04901123-.13415528-.072006229-.15916443-.072006229-.18418885-.071014408-.2171936-.028015137-.2421875 .018997193-.2421875 .11898804-.2421875 .16099549-.16116333 .20298767 .030960083L.29599 .45222474H.42199708L.43199159 .49023438Z"/>
<path id="font_1_2" d="M.5519867 0 .6029968 .17608643H.57299807C.5219879 .053009035 .47698976 .034988405 .3639984 .034988405 .31498719 .034988405 .2649994 .037994386 .2519989 .04800415 .23699951 .060012819 .23599243 .07501221 .24699402 .122039798L.35798646 .6093445C.3659973 .6423645 .37599183 .65737918 .40098573 .65937808L.46099855 .66337588 .46798707 .6923828H.18899536L.18199158 .66337588 .24099732 .658371C.2639923 .6563721 .2709961 .6423645 .2630005 .6093445L.14299011 .08302307C.1349945 .04800415 .125 .037002565 .100997928 .034988405L.04598999 .0289917 .039993287 0H.5519867Z"/>
<path id="font_2_1" d="M.1749878 .2822113C.1749878 .56832888 .2619934 .65437319 .32499696 .66737368V.6923828C.1499939 .685379 .10499573 .46829225 .10499573 .2822113 .10499573 .09614563 .1499939-.12094116 .32499696-.12792969V-.10293579C.2669983-.090927127 .1749878-.0059051516 .1749878 .2822113Z"/>
<path id="font_2_2" d="M.1749878 .2822113C.1749878-.0059051516 .08299255-.090927127 .024993897-.10293579V-.12792969C.19999695-.12094116 .24499512 .09614563 .24499512 .2822113 .24499512 .46829225 .19999695 .685379 .024993897 .6923828V.66737368C.08799744 .65437319 .1749878 .56832888 .1749878 .2822113Z"/>
<path id="font_3_1" d="M.6349945 .07472229 .17298889 .28173829 .6349945 .48875428V.5517578L.084991458 .31674195V.24673462L.6349945 .01171875V.07472229Z"/>
<path id="font_4_3" d="M.48199464 .11999512H.3999939C.23098755 .11999512 .037994386 .21897888 .015991211 .33398438H-.010009766V.29197694C-.010009766 .09599304 .23699951 0 .3999939 0H.48199464V.11999512Z"/>
<path id="font_4_2" d="M-.03201294 0H.049987794C.21899414 0 .4119873-.09895325 .43399049-.21386719H.45999146V-.17190552C.45999146 .023986817 .21299744 .11999512 .049987794 .11999512H-.03201294V0Z"/>
<path id="font_4_1" d="M.48199464 .11999512H.3999939C.23699951 .11999512-.010009766 .023986817-.010009766-.17190552V-.21386719H.015991211C.037994386-.09895325 .23098755 0 .3999939 0H.48199464V.11999512Z"/>
<path id="font_4_4" d="M-.03201294 0H.049987794C.21299744 0 .45999146 .09599304 .45999146 .29197694V.33398438H.43399049C.4119873 .21897888 .21899414 .11999512 .049987794 .11999512H-.03201294V0Z"/>
<path id="font_1_1" d="M.31399537 0 .31999208 .0289917 .26098634 .032989503C.23699951 .034988405 .23199463 .052001954 .23899842 .08302307L.35899354 .6093445C.3659973 .6403656 .37599183 .6563721 .40098573 .658371L.45599366 .66337588 .46299745 .6923828H.18899536L.18199158 .66337588 .24099732 .65937808C.2639923 .65737918 .269989 .6393585 .2630005 .6093445L.14299011 .08302307C.13598633 .05101013 .125 .037002565 .100997928 .034988405L.04598999 .0289917 .039993287 0H.31399537Z"/>
<path id="font_2_3" d="M.29299928 .32617188C.35299684 .32617188 .39898683 .30715943 .41600038 .23912049 .4229889 .21110535 .43399049 .13204956 .44499208 .08602905 .45999146 .021987915 .49798585 0 .5569916 0H.6380005V.0289917C.55999758 .037002565 .5439911 .09303284 .5349884 .16107178 .522995 .25012208 .5049896 .31715394 .39898683 .34317018V.34516908C.49299623 .36315919 .56199648 .4262085 .56199648 .521286 .56199648 .61735537 .5019989 .6923828 .32699586 .6923828H.034988405V.66337588C.12298584 .65737918 .125 .655365 .125 .5993347V.09303284C.125 .037002565 .12298584 .034988405 .034988405 .0289917V0H.31399537V.0289917C.22698975 .034988405 .22399903 .037002565 .22399903 .09303284V.32617188H.29299928M.22399903 .36116029V.6073456C.22399903 .6493683 .23098755 .65737918 .29699708 .65737918 .37098695 .65737918 .45498658 .63035586 .45498658 .51226809 .45498658 .40719605 .3999939 .36116029 .30299378 .36116029H.22399903Z"/>
<path id="font_2_4" d="M.44099427 .2627716C.46199037 .2627716 .48098756 .2677765 .48098756 .30078126 .48098756 .35983277 .46199037 .5019531 .2789917 .5019531 .12298584 .5019531 .04899597 .39086915 .04899597 .24082947 .04899597 .08317566 .116989139-.01373291 .27999879-.01171875 .3909912-.010726929 .44799806 .050247194 .47499085 .1290741L.44499208 .14503479C.4169922 .08717346 .3789978 .039276124 .2999878 .039276124 .17599488 .039276124 .15098572 .15901184 .15299988 .2627716H.44099427M.1539917 .30078126C.1539917 .34181214 .16899109 .46694947 .272995 .46694947 .3659973 .46694947 .3769989 .37184144 .3769989 .33280946 .3769989 .31378175 .37098695 .30078126 .34298707 .30078126H.1539917Z"/>
<path id="font_2_5" d="M.2599945 .46694947C.30899049 .46694947 .3600006 .43093873 .3600006 .33392335 .3600006 .24989319 .31599427 .20588684 .2579956 .20588684 .20199585 .20588684 .15499878 .24989319 .15499878 .33392335 .15499878 .43293763 .20698548 .46694947 .2599945 .46694947M.2809906-.2071991C.19599915-.2071991 .13699341-.16319275 .13699341-.09118652 .13699341-.057174684 .14698792-.032180787 .16799927-.016174317 .18998719 .0008239746 .22299195 .0068359377 .2709961 .0068359377 .35899354 .0068359377 .42399598-.014175415 .42399598-.08918762 .42399598-.16918946 .35198976-.2071991 .2809906-.2071991M.3889923 .47094728C.36099244 .48994447 .30599977 .5019531 .2599945 .5019531 .10699463 .5019531 .052993776 .40792848 .052993776 .33392335 .052993776 .23989868 .114990238 .19688416 .16099549 .18489075V.18289185C.10699463 .1618805 .068984989 .13285828 .068984989 .09384155 .068984989 .05882263 .10899353 .020828248 .15699768 .015823365V.013824463C.11399841-.00016784668 .041992189-.024169922 .041992189-.09617615 .041992189-.19718933 .14199829-.2421875 .2579956-.2421875 .31799317-.2421875 .3809967-.23019409 .42900086-.20118714 .47499085-.17318726 .5079956-.12619019 .5079956-.06417847 .5079956 .043823244 .42199708 .081832889 .31498719 .081832889H.23498535C.16299439 .081832889 .1519928 .10585022 .1519928 .12486267 .1519928 .15388489 .18998719 .16989136 .20298767 .17388916 .22200012 .17189026 .24299622 .17089844 .2539978 .17089844 .34899903 .17089844 .45599366 .21289063 .45599366 .33392335 .45599366 .3759308 .44299317 .41093446 .42599488 .42793275L.5049896 .4399414 .5249939 .50294497 .5169983 .51194766 .3889923 .47094728Z"/>
<path id="font_2_6" d="M.036987306 .47694398V.45195008L.07499695 .4469452C.100997928 .4429474 .10699463 .43795777 .10699463 .40194703V.08699036C.10699463 .035995485 .10398865 .033996583 .03199768 .0289917V0H.27598573V.0289917C.20498657 .033996583 .20098877 .035995485 .20098877 .08699036V.49609376L.19400025 .5020752 .036987306 .47694398M.15299988 .71484377C.116989139 .71484377 .09199524 .6888428 .09199524 .65283206 .09199524 .61782839 .116989139 .5928345 .15299988 .5928345 .18998719 .5928345 .21299744 .61782839 .21398926 .65283206 .21398926 .6888428 .18998719 .71484377 .15299988 .71484377Z"/>
<path id="font_2_8" d="M.28799439 .5019531C.12799073 .5019531 .04899597 .40698243 .04899597 .24510193 .04899597 .083236698 .12799073-.01171875 .28799439-.01171875 .44999696-.01171875 .5279999 .083236698 .5279999 .24510193 .5279999 .40698243 .44999696 .5019531 .28799439 .5019531M.15299988 .24510193C.15299988 .38301087 .19699097 .46694947 .28799439 .46694947 .3809967 .46694947 .42399598 .38301087 .42399598 .24510193 .42399598 .10720825 .3809967 .023269654 .28799439 .023269654 .19699097 .023269654 .15299988 .10720825 .15299988 .24510193Z"/>
<path id="font_2_7" d="M.5289917 .34295655C.5289917 .4439392 .47399903 .5019531 .38198854 .5019531 .30799867 .5019531 .2619934 .46594239 .19999695 .4259491L.18598938 .5019531 .036987306 .47694398V.45195008L.07499695 .4469452C.100997928 .4429474 .10699463 .4379425 .10699463 .40194703V.08699036C.10699463 .035995485 .10398865 .033996583 .03199768 .0289917V0H.27598573V.0289917C.20498657 .033996583 .20098877 .035995485 .20098877 .08699036V.32095338C.20098877 .34596253 .20298767 .35995484 .21099854 .37594605 .23199463 .4149475 .2769928 .44795228 .32998658 .44795228 .397995 .44795228 .43499757 .40994264 .43499757 .32295228V.08699036C.43499757 .035995485 .43199159 .033996583 .3600006 .0289917V0H.60398867V.0289917C.5329895 .033996583 .5289917 .035995485 .5289917 .08699036V.34295655Z"/>
<path id="font_1_3" d="M.18899536 .6923828 .18199158 .66337588 .24099732 .658371C.2639923 .6563721 .2709961 .6423645 .2630005 .6093445L.14299011 .08302307C.1349945 .04800415 .125 .037002565 .100997928 .034988405L.04598999 .0289917 .039993287 0H.31399537L.31999208 .0289917 .26098634 .033996583C.23699951 .035995485 .23098755 .04899597 .23899842 .08302307L.2939911 .32617188H.35398866C.3869934 .32617188 .4149933 .3231659 .42999269 .31315614 .44699098 .30314637 .45799256 .28614808 .46199037 .26412965 .46798707 .22810364 .45999146 .15106201 .46899415 .07702637 .47599793 .026992798 .5059967 0 .56999209 0H.647995L.6569977 .0289917C.61299136 .032989503 .58898928 .044006349 .57699587 .06401062 .5669861 .08102417 .56199648 .11804199 .5629883 .17007447 .56399539 .25012208 .56199648 .318161 .47099305 .34317018V.34516908C.59298709 .36216737 .6769867 .43222047 .6769867 .5312805 .6769867 .6023407 .6459961 .6923828 .45899964 .6923828H.18899536M.3019867 .36116029 .36099244 .61935427C.36799623 .64837649 .37098695 .65737918 .44699098 .65737918 .5119934 .65737918 .57199099 .62835696 .57199099 .5412903 .57199099 .4222107 .49499513 .36116029 .3659973 .36116029H.3019867Z"/>
</defs>
<path transform="matrix(1.00008,0,0,-1.00003,1.0933685,17.191037)" d="M0-23.38623V15.59082H46.77248V-23.38623ZM46.77248 15.59082" fill="#d9d9ec"/>
<path transform="matrix(1.00008,0,0,-1.00003,1.0933685,17.191037)" d="M46.77248-23.38623V15.59082H93.54497V-23.38623ZM93.54497 15.59082" fill="#d9ecd9"/>
<path transform="matrix(1.00008,0,0,-1.00003,1.0933685,17.191037)" d="M93.54497-23.38623V15.59082H140.31748V-23.38623ZM140.31748 15.59082" fill="#ecd9d9"/>
<path transform="matrix(1.00008,0,0,-1.00003,1.0933685,17.191037)" stroke-width=".3985" stroke-linecap="butt" stroke-miterlimit="10" stroke-linejoin="miter" fill="none" stroke="#000000" d="M0 0H139.85919"/>
<path transform="matrix(1.00008,0,0,-1.00003,140.96375,17.191037)" stroke-width=".31879" stroke-linecap="round" stroke-linejoin="round" fill="none" stroke="#000000" d="M-1.19551 1.59401C-1.09587 .99626 0 .09961 .29886 0 0-.09961-1.09587-.99626-1.19551-1.59401"/>
<use data-text="t" xlink:href="#font_1_7" transform="matrix(7.3330867,0,0,-7.3327205,138.30034,25.109274)"/>
<path transform="matrix(1.00008,0,0,-1.00003,1.0933685,17.191037)" stroke-width=".3985" stroke-linecap="butt" stroke-miterlimit="10" stroke-linejoin="miter" fill="none" stroke="#000000" d="M46.77248 1.55917V-1.55917"/>
<path transform="matrix(1.00008,0,0,-1.00003,1.0933685,17.191037)" stroke-width=".3985" stroke-linecap="butt" stroke-miterlimit="10" stroke-linejoin="miter" fill="none" stroke="#000000" d="M93.54497 1.55917V-1.55917"/>
<use data-text="c" xlink:href="#font_1_4" transform="matrix(7.3330867,0,0,-7.3327205,45.96496,13.727932)"/>
<use data-text="d" xlink:href="#font_1_5" transform="matrix(7.3330867,0,0,-7.3327205,92.12265,13.727932)"/>
<use data-text="f" xlink:href="#font_1_6" transform="matrix(7.3330867,0,0,-7.3327205,17.08065,11.99088)" fill="#000080"/>
<use data-text="L" xlink:href="#font_1_2" transform="matrix(6.233099,0,0,-6.2327878,19.789864,13.544927)" fill="#000080"/>
<use data-text="(" xlink:href="#font_2_1" transform="matrix(7.3330867,0,0,-7.3327205,24.10321,11.99088)" fill="#000080"/>
<use data-text="t" xlink:href="#font_1_7" transform="matrix(7.3330867,0,0,-7.3327205,26.82843,11.99088)" fill="#000080"/>
<use data-text=")" xlink:href="#font_2_2" transform="matrix(7.3330867,0,0,-7.3327205,30.112687,11.99088)" fill="#000080"/>
<use data-text="t" xlink:href="#font_1_7" transform="matrix(7.3330867,0,0,-7.3327205,17.011643,25.109274)" fill="#000080"/>
<use data-text="&#x003c;" xlink:href="#font_3_1" transform="matrix(7.3330867,0,0,-7.3327205,21.659012,25.109274)" fill="#000080"/>
<use data-text="c" xlink:href="#font_1_4" transform="matrix(7.3330867,0,0,-7.3327205,28.299546,25.109274)" fill="#000080"/>
<use data-text="&#xfffd;" xlink:href="#font_4_3" transform="matrix(7.3330867,0,0,-7.3327205,9.838066,28.507376)" fill="#000080"/>
<path transform="matrix(1.00008,0,0,-1.00003,-57.2603,23.917239)" stroke-width=".8799" stroke-linecap="butt" stroke-miterlimit="10" stroke-linejoin="miter" fill="none" stroke="#000080" d="M70.392-4.15H78.435"/>
<use data-text="&#xfffd;" xlink:href="#font_4_2" transform="matrix(7.3330867,0,0,-7.3327205,21.18097,28.507376)" fill="#000080"/>
<use data-text="&#xfffd;" xlink:href="#font_4_1" transform="matrix(7.3330867,0,0,-7.3327205,24.480858,28.507376)" fill="#000080"/>
<path transform="matrix(1.00008,0,0,-1.00003,-57.2603,23.917239)" stroke-width=".8799" stroke-linecap="butt" stroke-miterlimit="10" stroke-linejoin="miter" fill="none" stroke="#000080" d="M85.034-4.15H93.077"/>
<use data-text="&#xfffd;" xlink:href="#font_4_4" transform="matrix(7.3330867,0,0,-7.3327205,35.82415,28.507376)" fill="#000080"/>
<use data-text="L" xlink:href="#font_1_2" transform="matrix(6.233099,0,0,-6.2327878,22.57309,35.842599)" fill="#000080"/>
<use data-text="f" xlink:href="#font_1_6" transform="matrix(7.3330867,0,0,-7.3327205,64.19542,11.99088)" fill="#008000"/>
<use data-text="I" xlink:href="#font_1_1" transform="matrix(6.233099,0,0,-6.2327878,67.10864,13.544927)" fill="#008000"/>
<use data-text="(" xlink:href="#font_2_1" transform="matrix(7.3330867,0,0,-7.3327205,70.53992,11.99088)" fill="#008000"/>
<use data-text="t" xlink:href="#font_1_7" transform="matrix(7.3330867,0,0,-7.3327205,73.26614,11.99088)" fill="#008000"/>
<use data-text=")" xlink:href="#font_2_2" transform="matrix(7.3330867,0,0,-7.3327205,76.5504,11.99088)" fill="#008000"/>
<use data-text="c" xlink:href="#font_1_4" transform="matrix(7.3330867,0,0,-7.3327205,57.103849,26.069304)" fill="#008000"/>
<use data-text="&#x003c;" xlink:href="#font_3_1" transform="matrix(7.3330867,0,0,-7.3327205,62.277265,26.069304)" fill="#008000"/>
<use data-text="t" xlink:href="#font_1_7" transform="matrix(7.3330867,0,0,-7.3327205,69.07681,26.069304)" fill="#008000"/>
<use data-text="&#x003c;" xlink:href="#font_3_1" transform="matrix(7.3330867,0,0,-7.3327205,73.72519,26.069304)" fill="#008000"/>
<use data-text="d" xlink:href="#font_1_5" transform="matrix(7.3330867,0,0,-7.3327205,80.36571,26.069304)" fill="#008000"/>
<use data-text="R" xlink:href="#font_2_3" transform="matrix(7.3330867,0,0,-7.3327205,57.057844,35.37358)" fill="#008000"/>
<use data-text="e" xlink:href="#font_2_4" transform="matrix(7.3330867,0,0,-7.3327205,61.633687,35.37358)" fill="#008000"/>
<use data-text="g" xlink:href="#font_2_5" transform="matrix(7.3330867,0,0,-7.3327205,65.40289,35.37358)" fill="#008000"/>
<use data-text="i" xlink:href="#font_2_6" transform="matrix(7.3330867,0,0,-7.3327205,69.216098,35.37358)" fill="#008000"/>
<use data-text="o" xlink:href="#font_2_8" transform="matrix(7.3330867,0,0,-7.3327205,71.35002,35.37358)" fill="#008000"/>
<use data-text="n" xlink:href="#font_2_7" transform="matrix(7.3330867,0,0,-7.3327205,75.58122,35.37358)" fill="#008000"/>
<use data-text="I" xlink:href="#font_1_1" transform="matrix(7.3330867,0,0,-7.3327205,82.005847,35.37358)" fill="#008000"/>
<use data-text="f" xlink:href="#font_1_6" transform="matrix(7.3330867,0,0,-7.3327205,110.30111,11.99088)" fill="#800000"/>
<use data-text="R" xlink:href="#font_1_3" transform="matrix(6.233099,0,0,-6.2327878,113.01032,13.544927)" fill="#800000"/>
<use data-text="(" xlink:href="#font_2_1" transform="matrix(7.3330867,0,0,-7.3327205,117.98772,11.99088)" fill="#800000"/>
<use data-text="t" xlink:href="#font_1_7" transform="matrix(7.3330867,0,0,-7.3327205,120.71294,11.99088)" fill="#800000"/>
<use data-text=")" xlink:href="#font_2_2" transform="matrix(7.3330867,0,0,-7.3327205,123.99719,11.99088)" fill="#800000"/>
<use data-text="d" xlink:href="#font_1_5" transform="matrix(7.3330867,0,0,-7.3327205,109.787059,26.069304)" fill="#800000"/>
<use data-text="&#x003c;" xlink:href="#font_3_1" transform="matrix(7.3330867,0,0,-7.3327205,116.19557,26.069304)" fill="#800000"/>
<use data-text="t" xlink:href="#font_1_7" transform="matrix(7.3330867,0,0,-7.3327205,122.99612,26.069304)" fill="#800000"/>
<use data-text="R" xlink:href="#font_2_3" transform="matrix(7.3330867,0,0,-7.3327205,103.044528,35.37358)" fill="#800000"/>
<use data-text="e" xlink:href="#font_2_4" transform="matrix(7.3330867,0,0,-7.3327205,107.62037,35.37358)" fill="#800000"/>
<use data-text="g" xlink:href="#font_2_5" transform="matrix(7.3330867,0,0,-7.3327205,111.38958,35.37358)" fill="#800000"/>
<use data-text="i" xlink:href="#font_2_6" transform="matrix(7.3330867,0,0,-7.3327205,115.20278,35.37358)" fill="#800000"/>
<use data-text="o" xlink:href="#font_2_8" transform="matrix(7.3330867,0,0,-7.3327205,117.33671,35.37358)" fill="#800000"/>
<use data-text="n" xlink:href="#font_2_7" transform="matrix(7.3330867,0,0,-7.3327205,121.5679,35.37358)" fill="#800000"/>
<use data-text="R" xlink:href="#font_1_3" transform="matrix(7.3330867,0,0,-7.3327205,127.7535,35.37358)" fill="#800000"/>
</svg>
