<svg xmlns="http://www.w3.org/2000/svg" xmlns:xlink="http://www.w3.org/1999/xlink" version="1.1" width="80" height="115" viewBox="0 0 80 115">
<defs>
<path id="font_1_1" d="M.42799378 .45222474 .43899537 .49023438H.31199647L.34599305 .6092224 .33399964 .6162262 .23699951 .53923037 .22399903 .49023438H.14299011L.13198853 .45222474H.21499634L.125 .08627319C.10998535 .029266358 .12199402-.01171875 .17199707-.01171875 .2519989-.01171875 .31599427 .054275514 .35598756 .1292572L.33399964 .1462555C.31098939 .10726929 .2599945 .040267946 .22898865 .040267946 .20799256 .040267946 .20799256 .0632782 .21398926 .088272098L.30299378 .45222474H.42799378Z"/>
<path id="font_1_2" d="M.5069885 .1381836C.48298646 .0932312 .45599366 .040267946 .42799378 .040267946 .40899659 .040267946 .40098573 .06324768 .3789978 .1521759L.34700013 .2830658C.3829956 .34701539 .43399049 .42694093 .46299745 .42694093 .47200013 .42694093 .47999574 .42494203 .4909973 .4189453 .5009918 .4149475 .5109863 .4109497 .522995 .4109497 .54499819 .4109497 .56599429 .4319458 .56599429 .4589386 .56599429 .48994447 .54299929 .5019531 .5149994 .5019531 .46199037 .5019531 .4169922 .45394898 .38198854 .39796449L.33799745 .33003236H.33599855L.29599 .49794007 .2899933 .5019531 .125 .45195008 .12799073 .427948 .20298767 .43295289C.22099304 .4339447 .22799683 .42893983 .23899842 .38298036L.2749939 .2381134 .24699402 .19015503C.20399475 .11723328 .16699219 .0652771 .14299011 .0652771 .1329956 .0652771 .12298584 .0692749 .11399841 .07426453 .10398865 .07926941 .09098816 .089279178 .07398987 .089279178 .04798889 .089279178 .0309906 .0632782 .0309906 .039276124 .0309906 .010269165 .054992677-.01171875 .09498596-.01171875 .16299439-.01171875 .20199585 .056259157 .24299622 .12319946L.2829895 .18914795H.2849884L.30299378 .111206058C.32199098 .031280519 .34098817-.01171875 .3919983-.01171875 .46499635-.01171875 .5029907 .06324768 .5329895 .12420654L.5069885 .1381836Z"/>
<path id="font_2_1" d="M.1749878 .2822113C.1749878 .56832888 .2619934 .65437319 .32499696 .66737368V.6923828C.1499939 .685379 .10499573 .46829225 .10499573 .2822113 .10499573 .09614563 .1499939-.12094116 .32499696-.12792969V-.10293579C.2669983-.090927127 .1749878-.0059051516 .1749878 .2822113Z"/>
<path id="font_2_2" d="M.1749878 .2822113C.1749878-.0059051516 .08299255-.090927127 .024993897-.10293579V-.12792969C.19999695-.12094116 .24499512 .09614563 .24499512 .2822113 .24499512 .46829225 .19999695 .685379 .024993897 .6923828V.66737368C.08799744 .65437319 .1749878 .56832888 .1749878 .2822113Z"/>
<path id="font_2_3" d="M.069992069-.140625C.11999512-.09362793 .19299317-.027633667 .19299317 .051361085 .19299317 .10636902 .1599884 .1423645 .125 .14137268 .09399414 .14137268 .07598877 .117370609 .07598877 .09136963 .07598877 .055374147 .10899353 .037368776 .10899353-.005630493 .10899353-.04663086 .08299255-.086639408 .050994874-.12162781L.069992069-.140625Z"/>
<path id="font_1_3" d="M.070999149 .45393373 .07398987 .42893983 .14199829 .43093873C.1639862 .43193055 .16899109 .41493226 .1769867 .36291505 .18798828 .28489686 .20999146 .09286499 .20999146 .0128479 .20999146-.017166138 .20799256-.058166505 .18598938-.11117554 .16799927-.15318299 .14199829-.18218994 .12199402-.18218994 .10699463-.18218994 .09599304-.17118836 .08099365-.15118408 .068984989-.13517761 .06098938-.127182 .04598999-.127182 .019989014-.12818909-.005004883-.15818787-.005004883-.18719483-.005004883-.21418762 .023986817-.2421875 .067993167-.2421875 .15299988-.2421875 .18998719-.17919922 .27799989-.027160645 .2979889 .0068511965 .35798646 .11286926 .41999818 .21488953 .47698976 .30891419 .5399933 .40592958 .5399933 .4459381 .5399933 .48094178 .5289917 .5019531 .5219879 .5019531 .5029907 .5019531 .46899415 .49394227 .44400025 .47694398 .44499208 .4419403 .44299317 .3809204 .43099977 .33891297 .4149933 .28289796 .35598756 .17488098 .2899933 .06085205H.2869873C.27999879 .21388245 .26098634 .42492677 .24699402 .49795533L.23899842 .5019531 .070999149 .45393373Z"/>
</defs>
<path transform="matrix(1.00005,0,0,-1.00002,20.827485,63.656038)" stroke-width=".3985" stroke-linecap="butt" stroke-miterlimit="10" stroke-linejoin="miter" fill="none" stroke="#000000" d="M0 0H49.49197"/>
<path transform="matrix(1.00005,0,0,-1.00002,70.52121,63.656038)" stroke-width=".3985" stroke-linecap="round" stroke-linejoin="round" fill="none" stroke="#000000" d="M-2.07224 2.39104C-1.69365 .95639-.84999 .27895 0 0-.84999-.27895-1.69365-.95639-2.07224-2.39104"/>
<use data-text="t" xlink:href="#font_1_1" transform="matrix(10.036901,0,0,-10.036601,74.337169,66.70509)"/>
<path transform="matrix(1.00005,0,0,-1.00002,20.827485,63.656038)" stroke-width=".3985" stroke-linecap="butt" stroke-miterlimit="10" stroke-linejoin="miter" fill="none" stroke="#000000" d="M0-49.89049V49.49197"/>
<path transform="matrix(0,-1.00002,-1.00005,-0,20.827485,13.963802)" stroke-width=".3985" stroke-linecap="round" stroke-linejoin="round" fill="none" stroke="#000000" d="M-2.07224 2.39104C-1.69365 .95639-.84999 .27895 0 0-.84999-.27895-1.69365-.95639-2.07224-2.39104"/>
<use data-text="x" xlink:href="#font_1_2" transform="matrix(10.036901,0,0,-10.036601,1.3115158,7.8999178)"/>
<use data-text="(" xlink:href="#font_2_1" transform="matrix(10.036901,0,0,-10.036601,7.191803,7.8999178)"/>
<use data-text="t" xlink:href="#font_1_1" transform="matrix(10.036901,0,0,-10.036601,10.922989,7.8999178)"/>
<use data-text=")" xlink:href="#font_2_2" transform="matrix(10.036901,0,0,-10.036601,15.4182209,7.8999178)"/>
<use data-text="," xlink:href="#font_2_3" transform="matrix(10.036901,0,0,-10.036601,18.931138,7.8999178)"/>
<use data-text="y" xlink:href="#font_1_3" transform="matrix(10.036901,0,0,-10.036601,23.204613,7.8999178)"/>
<use data-text="(" xlink:href="#font_2_1" transform="matrix(10.036901,0,0,-10.036601,28.823899,7.8999178)"/>
<use data-text="t" xlink:href="#font_1_1" transform="matrix(10.036901,0,0,-10.036601,32.554086,7.8999178)"/>
<use data-text=")" xlink:href="#font_2_2" transform="matrix(10.036901,0,0,-10.036601,37.04931,7.8999178)"/>
<path transform="matrix(1.00005,0,0,-1.00002,20.827485,63.656038)" stroke-width=".79701" stroke-linecap="butt" stroke-miterlimit="10" stroke-linejoin="miter" fill="none" stroke="#000000" d="M0 22.67752 .5038 22.18372 1.00763 21.69618 1.51144 21.21968 2.01526 20.75255 2.51909 20.29648 3.02292 19.85216 3.52673 19.4141 4.03055 18.98778 4.53438 18.57047 5.03821 18.16457 5.54202 17.76524 6.04585 17.37492 6.54967 16.99152 7.05348 16.61952 7.55731 16.25449 8.06114 15.89598 8.56496 15.54684 9.06877 15.20633 9.5726 14.87068 10.07642 14.54404 10.58025 14.22673 11.08408 13.91357 11.58788 13.60733 12.0917 13.30801 12.59554 13.01527 13.09935 12.72945 13.60318 12.45055 14.10701 12.17615 14.61082 11.90831 15.11464 11.64742 15.61847 11.39136 16.1223 11.14185 16.62611 10.89687 17.12993 10.65637 17.63376 10.4228 18.13757 10.19337 18.6414 9.96915 19.14523 9.75114 19.64903 9.53557 20.15286 9.32692 20.65668 9.12068 21.1605 8.92104 21.66434 8.72585 22.16815 8.53313 22.67198 8.3473 23.17578 8.16356 23.67963 7.98431 24.18346 7.80713 24.68726 7.63724 25.19109 7.4694 25.69492 7.30368 26.19873 7.14485 26.70256 6.98602 27.20638 6.8341 27.71019 6.68219 28.21402 6.5372 28.71785 6.39188 29.22166 6.25139 29.72548 6.11505 30.22931 5.98149 30.73314 5.84964 31.23695 5.72057 31.74078 5.59566 32.2446 5.4711 32.74841 5.35066 33.25224 5.23509 33.75607 5.11952 34.25989 5.00601 34.7637 4.89702 35.26753 4.78802 35.77135 4.68385 36.27518 4.58177 36.779 4.4797 37.2828 4.38213 37.78664 4.28453 38.29047 4.19147 38.79428 4.09872 39.29811 4.00807 39.80194 3.92155 40.30576 3.83539 40.80957 3.74922 41.31339 3.66756 41.81723 3.58833 42.32104 3.50873 42.82486 3.43193 43.32869 3.35683 43.83249 3.2821 44.33633 3.20943 44.84016 3.13919 45.34396 3.07101 45.8478 3.00319 46.35161 2.93709 46.85544 2.87134 47.35927 2.81009 47.86308 2.74678 48.36691 2.6876 48.87071 2.62878 49.37456 2.56961 49.87839 2.51321"/>
<path transform="matrix(1.00005,0,0,-1.00002,20.827485,63.656038)" stroke-width=".79701" stroke-linecap="butt" stroke-miterlimit="10" stroke-linejoin="miter" fill="none" stroke="#0000ff" d="M0 22.67752 .5038 21.69618 1.00763 20.75255 1.51144 19.85216 2.01526 18.98778 2.51909 18.16457 3.02292 17.37492 3.52673 16.61952 4.03055 15.89598 4.53438 15.20633 5.03821 14.54404 5.54202 13.91357 6.04585 13.30801 6.54967 12.72945 7.05348 12.17615 7.55731 11.64742 8.06114 11.14185 8.56496 10.65637 9.06877 10.19337 9.5726 9.75114 10.07642 9.32692 10.58025 8.92104 11.08408 8.53313 11.58788 8.16356 12.0917 7.80713 12.59554 7.4694 13.09935 7.14485 13.60318 6.8341 14.10701 6.5372 14.61082 6.25139 15.11464 5.98149 15.61847 5.72057 16.1223 5.4711 16.62611 5.23509 17.12993 5.00601 17.63376 4.78802 18.13757 4.58177 18.6414 4.38213 19.14523 4.19147 19.64903 4.00807 20.15286 3.83539 20.65668 3.66756 21.1605 3.50873 21.66434 3.35683 22.16815 3.20943 22.67198 3.07101 23.17578 2.93709 23.67963 2.81009 24.18346 2.6876 24.68726 2.56961 25.19109 2.45853 25.69492 2.35194 26.19873 2.24986 26.70256 2.1523 27.20638 2.05714 27.71019 1.96855 28.21402 1.88239 28.71785 1.80072 29.22166 1.72356 29.72548 1.6464 30.22931 1.57614 30.73314 1.50833 31.23695 1.44258 31.74078 1.37892 32.2446 1.32008 32.74841 1.26093 33.25224 1.20659 33.75607 1.15434 34.25989 1.10452 34.7637 1.05676 35.26753 1.009 35.77135 .96611 36.27518 .92526 36.779 .88445 37.2828 .84602 37.78664 .8097 38.29047 .77335 38.79428 .7391 39.29811 .70761 39.80194 .67578 40.30576 .64636 40.80957 .61902 41.31339 .5917 41.81723 .56679 42.32104 .54185 42.82486 .51695 43.32869 .49654 43.83249 .47368 44.33633 .45328 44.84016 .43286 45.34396 .41487 45.8478 .39688 46.35161 .37854 46.85544 .36263 47.35927 .34671 47.86308 .33078 48.36691 .31729 48.87071 .30379 49.37456 .29028 49.87839 .27646"/>
<path transform="matrix(1.00005,0,0,-1.00002,20.827485,63.656038)" stroke-width=".79701" stroke-linecap="butt" stroke-miterlimit="10" stroke-linejoin="miter" fill="none" stroke="#ff0000" d="M22.67752 22.67752 22.18372 21.69618 21.69618 20.75255 21.21968 19.85216 20.75255 18.98778 20.29648 18.16457 19.85216 17.37492 19.4141 16.61952 18.98778 15.89598 18.57047 15.20633 18.16457 14.54404 17.76524 13.91357 17.37492 13.30801 16.99152 12.72945 16.61952 12.17615 16.25449 11.64742 15.89598 11.14185 15.54684 10.65637 15.20633 10.19337 14.87068 9.75114 14.54404 9.32692 14.22673 8.92104 13.91357 8.53313 13.60733 8.16356 13.30801 7.80713 13.01527 7.4694 12.72945 7.14485 12.45055 6.8341 12.17615 6.5372 11.90831 6.25139 11.64742 5.98149 11.39136 5.72057 11.14185 5.4711 10.89687 5.23509 10.65637 5.00601 10.4228 4.78802 10.19337 4.58177 9.96915 4.38213 9.75114 4.19147 9.53557 4.00807 9.32692 3.83539 9.12068 3.66756 8.92104 3.50873 8.72585 3.35683 8.53313 3.20943 8.3473 3.07101 8.16356 2.93709 7.98431 2.81009 7.80713 2.6876 7.63724 2.56961 7.4694 2.45853 7.30368 2.35194 7.14485 2.24986 6.98602 2.1523 6.8341 2.05714 6.68219 1.96855 6.5372 1.88239 6.39188 1.80072 6.25139 1.72356 6.11505 1.6464 5.98149 1.57614 5.84964 1.50833 5.72057 1.44258 5.59566 1.37892 5.4711 1.32008 5.35066 1.26093 5.23509 1.20659 5.11952 1.15434 5.00601 1.10452 4.89702 1.05676 4.78802 1.009 4.68385 .96611 4.58177 .92526 4.4797 .88445 4.38213 .84602 4.28453 .8097 4.19147 .77335 4.09872 .7391 4.00807 .70761 3.92155 .67578 3.83539 .64636 3.74922 .61902 3.66756 .5917 3.58833 .56679 3.50873 .54185 3.43193 .51695 3.35683 .49654 3.2821 .47368 3.20943 .45328 3.13919 .43286 3.07101 .41487 3.00319 .39688 2.93709 .37854 2.87134 .36263 2.81009 .34671 2.74678 .33078 2.6876 .31729 2.62878 .30379 2.56961 .29028 2.51321 .27646"/>
</svg>
