<svg xmlns="http://www.w3.org/2000/svg" xmlns:xlink="http://www.w3.org/1999/xlink" version="1.1" width="203" height="69" viewBox="0 0 203 69">
<defs>
<path id="font_1_3" d="M.42799378 .45222474 .43899537 .49023438H.31199647L.34599305 .6092224 .33399964 .6162262 .23699951 .53923037 .22399903 .49023438H.14299011L.13198853 .45222474H.21499634L.125 .08627319C.10998535 .029266358 .12199402-.01171875 .17199707-.01171875 .2519989-.01171875 .31599427 .054275514 .35598756 .1292572L.33399964 .1462555C.31098939 .10726929 .2599945 .040267946 .22898865 .040267946 .20799256 .040267946 .20799256 .0632782 .21398926 .088272098L.30299378 .45222474H.42799378Z"/>
<path id="font_2_4" d="M.43699647 0V.0289917L.35299684 .035995485C.33198548 .037994386 .31999208 .04598999 .31999208 .08496094V.67367556L.31498719 .6796875 .10899353 .6446991V.6197052L.20199585 .6087036C.21899414 .6067047 .22599793 .5987091 .22599793 .56973269V.08496094C.22599793 .065979007 .22299195 .053985597 .21699524 .04698181 .21199036 .039993287 .20399475 .036987306 .19299317 .035995485L.10899353 .0289917V0H.43699647Z"/>
<path id="font_2_5" d="M.4850006 .13195801 .45700074 .13696289C.43598939 .08299255 .41600038 .07598877 .37599183 .07598877H.11999512C.13598633 .1279602 .19499207 .19892884 .28799439 .2658844 .38398744 .33584596 .45799256 .38082887 .45799256 .49276734 .45799256 .63168337 .3659973 .6796875 .26098634 .6796875 .12399292 .6796875 .052993776 .5967102 .052993776 .54473879 .052993776 .51075747 .09098816 .49476625 .10798645 .49476625 .12599182 .49476625 .1329956 .50476077 .13699341 .5217438 .15299988 .5897064 .19198609 .64468386 .2539978 .64468386 .33099366 .64468386 .35299684 .5797119 .35299684 .50675967 .35299684 .3998108 .29899598 .33984376 .21199036 .26289369 .08898926 .15594483 .04598999 .08798218 .026992798 .009994507L.036987306 0H.45098878L.4850006 .13195801Z"/>
<path id="font_2_6" d="M.12998963 .3657837C.12998963 .3487854 .1349945 .33779908 .147995 .33779908 .1599884 .33779908 .18699646 .34777833 .23498535 .34777833 .31999208 .34777833 .36799623 .27090455 .36799623 .18403626 .36799623 .065216068 .30899049 .023269654 .23799134 .023269654 .17199707 .023269654 .1289978 .07319641 .10998535 .12911988 .10398865 .14808655 .09399414 .15707398 .07998657 .15707398 .06199646 .15707398 .026992798 .13809204 .026992798 .10215759 .026992798 .05921936 .09599304-.01171875 .23699951-.01171875 .38198854-.01171875 .47299195 .06121826 .47299195 .18902588 .47299195 .32281495 .35798646 .3627777 .30299378 .3677826V.3717804C.35699464 .38078309 .44400025 .4207611 .44400025 .5197296 .44400025 .6306915 .35699464 .6796875 .25 .6796875 .117996219 .6796875 .052993776 .60369876 .052993776 .5607147 .052993776 .5297241 .08799744 .51272585 .101989749 .51272585 .114990238 .51272585 .12298584 .5197296 .1269989 .5327301 .14898682 .60069277 .18699646 .64468386 .24299622 .64468386 .32199098 .64468386 .34098817 .57470706 .34098817 .51872256 .34098817 .4587555 .31999208 .38378907 .23498535 .38378907 .18699646 .38378907 .1599884 .39378358 .147995 .39378358 .1349945 .39378358 .12998963 .38378907 .12998963 .3657837Z"/>
<path id="font_2_7" d="M.2999878 .17871094V.0769043C.2999878 .04296875 .2889862 .036987306 .2649994 .034988405L.20098877 .0289917V0H.46499635V.0289917L.41999818 .033981325C.39698792 .036987306 .3899994 .04296875 .3899994 .0769043V.17871094H.49299623V.22570801H.3899994V.66796877H.31698609C.22299195 .5298767 .11099243 .35577394 .018997193 .19970703L.027999878 .17871094H.2999878M.09098816 .22570801C.15098572 .33476258 .22099304 .4498291 .2979889 .5709076H.2999878V.22570801H.09098816Z"/>
<path id="font_2_8" d="M.42599488 .5919647 .44999696 .6599579 .44499208 .66796877H.11099243L.100997928 .65896609 .08099365 .32388307 .10499573 .31188966C.14698792 .35983277 .18798828 .3828125 .24198914 .3828125 .30599977 .3828125 .37599183 .3358612 .37599183 .20404053 .37599183 .10116577 .33399964 .023269654 .24699402 .023269654 .1769867 .023269654 .14099121 .07420349 .12098694 .13113404 .115997318 .14611817 .10699463 .15510559 .09298706 .15510559 .07299805 .15510559 .039993287 .13513184 .039993287 .10217285 .039993287 .056228639 .10998535-.01171875 .23999024-.01171875 .40499879-.01171875 .47999574 .0881958 .47999574 .21502686 .47999574 .35484315 .3919983 .4268036 .272995 .4268036 .21798706 .4268036 .15899658 .4028015 .1269989 .3738098L.125 .37580873 .147995 .56292727C.15098572 .58795168 .1579895 .5919647 .1769867 .5919647H.42599488Z"/>
<path id="font_2_9" d="M.27198792-.01171875C.41999818-.01171875 .49899293 .07821655 .49899293 .2140503 .49899293 .3488922 .4119873 .42385865 .30799867 .421875 .23199463 .42385865 .17199707 .36886598 .14498902 .33590699H.14299011C.14399719 .5557556 .20698548 .64468386 .29699708 .64468386 .34298707 .64468386 .375 .6057129 .3899994 .5487671 .3929901 .5367737 .40098573 .527771 .41600038 .527771 .43798829 .527771 .46899415 .5447693 .46899415 .57273867 .46899415 .6127014 .41999818 .6796875 .2999878 .6796875 .22099304 .6796875 .16499329 .64967349 .12298584 .6017151 .07798767 .5497589 .04399109 .45384217 .04399109 .3089447 .04399109 .093185428 .12199402-.01171875 .27198792-.01171875M.27398683 .37086488C.33699037 .37086488 .39898683 .31393434 .39898683 .19906616 .39898683 .094192508 .35798646 .023269654 .27398683 .023269654 .18699646 .023269654 .14498902 .11616516 .14498902 .23602295 .14498902 .2969513 .18998719 .37086488 .27398683 .37086488Z"/>
<path id="font_2_10" d="M.07199097 .66796877 .040985109 .5279999H.067993167L.07798767 .5489807C.09098816 .57696536 .10398865 .5919647 .14898682 .5919647H.4189911C.40899659 .5559845 .3909912 .4980011 .30999757 .38206483 .22399903 .25914 .16699219 .14718628 .16699219 .029251099 .16699219-.0037231446 .18998719-.01171875 .22099304-.01171875 .25-.01171875 .2709961-.0027313233 .269989 .026260376 .2649994 .15818787 .2919922 .26412965 .34498597 .35708619 .40899659 .46905519 .46199037 .5310211 .49699403 .65696719L.48799134 .66796877H.07199097Z"/>
<path id="font_2_11" d="M.2649994 .3380127C.34498597 .3380127 .3880005 .2700653 .3880005 .17915344 .3880005 .09121704 .34999085 .023269654 .2649994 .023269654 .18199158 .023269654 .14199829 .09121704 .14199829 .17915344 .14199829 .2700653 .18598938 .3380127 .2649994 .3380127M.2649994-.01171875C.4269867-.01171875 .48799134 .081222537 .48799134 .18214417 .48799134 .28405763 .42399598 .3420105 .35598756 .35801698V.36102296C.4169922 .37701417 .46598817 .427948 .46598817 .5098419 .46598817 .6187134 .3809967 .6796875 .2649994 .6796875 .15098572 .6796875 .06399536 .61772158 .06399536 .5098419 .06399536 .427948 .11399841 .37701417 .17399597 .36102296V.35801698C.10699463 .3420105 .041992189 .28405763 .041992189 .18214417 .041992189 .081222537 .101989749-.01171875 .2649994-.01171875M.2649994 .37402345C.19299317 .37402345 .16099549 .44392396 .16099549 .5118408 .16099549 .5887451 .19699097 .64468386 .2649994 .64468386 .33299256 .64468386 .36698915 .5887451 .36898805 .5118408 .36898805 .44392396 .33799745 .37402345 .2649994 .37402345Z"/>
<path id="font_2_12" d="M.22898865 .26757813C.29100038 .26757813 .34298707 .30256654 .3769989 .35157777H.3789978C.3789978 .28857423 .37399293 .20774842 .35598756 .13894654 .33799745 .073135379 .30299378 .023269654 .23899842 .023269654 .17098999 .023269654 .1459961 .0761261 .1309967 .12298584 .1269989 .13595581 .11999512 .1439209 .102996829 .1439209 .083999637 .1439209 .055999757 .12397766 .055999757 .09307861 .055999757 .049194337 .10899353-.01171875 .22999573-.01171875 .31098939-.01171875 .37298585 .01828003 .41099549 .071136478 .45199586 .12797547 .47698976 .2157135 .47698976 .36058045 .47698976 .48461915 .45199586 .56565859 .41299439 .6126709 .375 .6576843 .31999208 .6796875 .2559967 .6796875 .12799073 .6796875 .035995485 .5946655 .035995485 .45661927 .035995485 .3315735 .12599182 .26757813 .22898865 .26757813M.25898744 .3205719C.18099976 .3205719 .13598633 .38859559 .13598633 .48461915 .13598633 .57666018 .1769867 .64468386 .25498963 .64468386 .33499146 .64468386 .37399293 .5496521 .37399293 .45262147 .37399293 .4356079 .37298585 .41560365 .36698915 .39959718 .35099793 .35258485 .31199647 .3205719 .25898744 .3205719Z"/>
<path id="font_1_4" d="M.5329895 .48995973C.5039978 .388031 .48799134 .33506776 .46199037 .2741089 .41799928 .173172 .33099366 .040267946 .24798584 .040267946 .21598816 .040267946 .20799256 .070251468 .22299195 .12820435L.31900025 .4970703 .31399537 .50205996 .13198853 .47375489 .12599182 .4497528 .18798828 .44476319C.21199036 .44276429 .21099854 .42778016 .20298767 .39682008L.13398743 .13316345C.11299133 .053253175 .12098694-.01171875 .20098877-.01171875 .29699708-.01171875 .4019928 .09420776 .46199037 .21005249H.46398927L.43099977 .096206668C.4119873 .029266358 .42399598-.01171875 .47698976-.01171875 .548996-.01171875 .60899356 .057250978 .6439972 .13116455L.6199951 .14613343C.59999087 .11218262 .55599978 .040267946 .5279999 .040267946 .5069885 .040267946 .5069885 .06324768 .5149994 .09420776L.621994 .5019531 .5329895 .48995973Z"/>
<path id="font_1_1" d="M.42799378 .15419007C.3939972 .10821533 .33499146 .03727722 .2679901 .03727722 .19499207 .03727722 .17999268 .097229007 .17999268 .16816712 .17999268 .29808045 .25498963 .46694947 .34700013 .46694947 .3789978 .46694947 .40098573 .44696046 .40699769 .38700868 .40899659 .36901856 .41799928 .35702516 .43598939 .35702516 .45999146 .35702516 .5 .38002015 .5 .41299439 .5 .46394349 .44599916 .5019531 .37098695 .5019531 .19299317 .5019531 .08099365 .31207276 .08099365 .14819336 .08099365 .026275635 .1539917-.01171875 .22399903-.01171875 .2979889-.01171875 .3829956 .02027893 .45199586 .13519287L.42799378 .15419007Z"/>
<path id="font_2_1" d="M.1749878 .2822113C.1749878 .56832888 .2619934 .65437319 .32499696 .66737368V.6923828C.1499939 .685379 .10499573 .46829225 .10499573 .2822113 .10499573 .09614563 .1499939-.12094116 .32499696-.12792969V-.10293579C.2669983-.090927127 .1749878-.0059051516 .1749878 .2822113Z"/>
<path id="font_2_2" d="M.1749878 .2822113C.1749878-.0059051516 .08299255-.090927127 .024993897-.10293579V-.12792969C.19999695-.12094116 .24499512 .09614563 .24499512 .2822113 .24499512 .46829225 .19999695 .685379 .024993897 .6923828V.66737368C.08799744 .65437319 .1749878 .56832888 .1749878 .2822113Z"/>
<path id="font_3_1" d="M.6349945 .2529297V.31092835H.084991458V.2529297H.6349945Z"/>
<path id="font_1_2" d="M.17098999 .112213138C.17098999 .22013855 .2579956 .46694947 .41799928 .46694947 .44898988 .46694947 .47499085 .45794679 .4869995 .44696046 .47200013 .37002564 .43899537 .27609254 .3880005 .19316101 .33999635 .115219119 .27398683 .040267946 .22099304 .040267946 .18899536 .040267946 .17098999 .06724548 .17098999 .112213138M.46398927 .71824648 .45799256 .6953125 .5179901 .68930056C.5419922 .6872864 .5439911 .6802826 .5359955 .6482239L.49798585 .48693849 .49598695 .48493959C.47698976 .49494935 .44599916 .5019531 .4119873 .5019531 .1789856 .5019531 .07199097 .24111939 .07199097 .12020874 .07199097 .055267335 .09098816-.01171875 .17199707-.01171875 .2869873-.01171875 .37599183 .11122131 .43499757 .21813965H.43699647L.4039917 .099227908C.38398744 .028274537 .39898683-.01272583 .44999696-.01171875 .522995-.01171875 .57899478 .056259157 .61299136 .13220215L.58898928 .14619446C.57099917 .11122131 .5269928 .040267946 .49899293 .040267946 .47898866 .040267946 .48098756 .06326294 .4889984 .0952301L.6469879 .7371979 .6419983 .7421875 .46398927 .71824648Z"/>
<path id="font_4_3" d="M.48199464 .11999512H.3999939C.23098755 .11999512 .037994386 .21897888 .015991211 .33398438H-.010009766V.29197694C-.010009766 .09599304 .23699951 0 .3999939 0H.48199464V.11999512Z"/>
<path id="font_4_2" d="M-.03201294 0H.049987794C.21899414 0 .4119873-.09895325 .43399049-.21386719H.45999146V-.17190552C.45999146 .023986817 .21299744 .11999512 .049987794 .11999512H-.03201294V0Z"/>
<path id="font_4_1" d="M.48199464 .11999512H.3999939C.23699951 .11999512-.010009766 .023986817-.010009766-.17190552V-.21386719H.015991211C.037994386-.09895325 .23098755 0 .3999939 0H.48199464V.11999512Z"/>
<path id="font_4_4" d="M-.03201294 0H.049987794C.21299744 0 .45999146 .09599304 .45999146 .29197694V.33398438H.43399049C.4119873 .21897888 .21899414 .11999512 .049987794 .11999512H-.03201294V0Z"/>
<path id="font_2_3" d="M.2649994 .64468386C.3600006 .64468386 .3869934 .49682618 .3869934 .33398438 .3869934 .17112732 .3600006 .023269654 .2649994 .023269654 .16999817 .023269654 .14299011 .17112732 .14299011 .33398438 .14299011 .49682618 .16999817 .64468386 .2649994 .64468386M.2649994 .6796875C.099990848 .6796875 .040985109 .53378298 .040985109 .33398438 .040985109 .13417053 .099990848-.01171875 .2649994-.01171875 .42999269-.01171875 .4889984 .13417053 .4889984 .33398438 .4889984 .53378298 .42999269 .6796875 .2649994 .6796875Z"/>
<path id="font_3_2" d="M.6349945 .14315796V.20117188H.084991458V.14315796H.6349945M.6349945 .36288453V.42089845H.084991458V.36288453H.6349945Z"/>
</defs>
<path transform="matrix(1.00005,0,0,-1.00005,11.412872,47.831789)" stroke-width=".19925" stroke-linecap="butt" stroke-dasharray="2.98883,2.98883" stroke-miterlimit="10" stroke-linejoin="miter" fill="none" stroke="#000000" d="M119.05606-19.84267V35.71686"/>
<path transform="matrix(1.00005,0,0,-1.00005,11.412872,47.831789)" stroke-width=".19925" stroke-linecap="butt" stroke-dasharray="2.98883,2.98883" stroke-miterlimit="10" stroke-linejoin="miter" fill="none" stroke="#000000" d="M59.52802-19.84267V35.71686"/>
<path transform="matrix(1.00005,0,0,-1.00005,11.412872,47.831789)" stroke-width=".3985" stroke-linecap="butt" stroke-miterlimit="10" stroke-linejoin="miter" fill="none" stroke="#000000" d="M-9.92133 0H188.04717"/>
<path transform="matrix(1.00005,0,0,-1.00005,199.46944,47.831789)" stroke-width=".31879" stroke-linecap="round" stroke-linejoin="round" fill="none" stroke="#000000" d="M-1.19551 1.59401C-1.09587 .99626 0 .09961 .29886 0 0-.09961-1.09587-.99626-1.19551-1.59401"/>
<path transform="matrix(1.00005,0,0,-1.00005,11.412872,47.831789)" stroke-width=".3985" stroke-linecap="butt" stroke-miterlimit="10" stroke-linejoin="miter" fill="none" stroke="#000000" d="M0-19.84267V35.25858"/>
<path transform="matrix(0,-1.00005,-1.00005,-0,11.412872,12.571445)" stroke-width=".31879" stroke-linecap="round" stroke-linejoin="round" fill="none" stroke="#000000" d="M-1.19551 1.59401C-1.09587 .99626 0 .09961 .29886 0 0-.09961-1.09587-.99626-1.19551-1.59401"/>
<use data-text="t" xlink:href="#font_1_3" transform="matrix(10.036901,0,0,-10.036901,195.80507,57.416269)"/>
<path transform="matrix(1.00005,0,0,-1.00005,11.412872,47.831789)" stroke-width=".3985" stroke-linecap="butt" stroke-miterlimit="10" stroke-linejoin="miter" fill="none" stroke="#929292" d="M19.84267 1.98438V-1.98438"/>
<use data-text="1" xlink:href="#font_2_4" transform="matrix(7.332866,0,0,-7.332866,29.311768,57.72828)"/>
<path transform="matrix(1.00005,0,0,-1.00005,11.412872,47.831789)" stroke-width=".3985" stroke-linecap="butt" stroke-miterlimit="10" stroke-linejoin="miter" fill="none" stroke="#929292" d="M39.68535 1.98438V-1.98438"/>
<use data-text="2" xlink:href="#font_2_5" transform="matrix(7.332866,0,0,-7.332866,49.155759,57.72828)"/>
<path transform="matrix(1.00005,0,0,-1.00005,11.412872,47.831789)" stroke-width=".3985" stroke-linecap="butt" stroke-miterlimit="10" stroke-linejoin="miter" fill="none" stroke="#929292" d="M59.52802 1.98438V-1.98438"/>
<use data-text="3" xlink:href="#font_2_6" transform="matrix(7.332866,0,0,-7.332866,68.99875,57.72828)"/>
<path transform="matrix(1.00005,0,0,-1.00005,11.412872,47.831789)" stroke-width=".3985" stroke-linecap="butt" stroke-miterlimit="10" stroke-linejoin="miter" fill="none" stroke="#929292" d="M79.37071 1.98438V-1.98438"/>
<use data-text="4" xlink:href="#font_2_7" transform="matrix(7.332866,0,0,-7.332866,88.84274,57.72828)"/>
<path transform="matrix(1.00005,0,0,-1.00005,11.412872,47.831789)" stroke-width=".3985" stroke-linecap="butt" stroke-miterlimit="10" stroke-linejoin="miter" fill="none" stroke="#929292" d="M99.2134 1.98438V-1.98438"/>
<use data-text="5" xlink:href="#font_2_8" transform="matrix(7.332866,0,0,-7.332866,108.68673,57.72828)"/>
<path transform="matrix(1.00005,0,0,-1.00005,11.412872,47.831789)" stroke-width=".3985" stroke-linecap="butt" stroke-miterlimit="10" stroke-linejoin="miter" fill="none" stroke="#929292" d="M119.05606 1.98438V-1.98438"/>
<use data-text="6" xlink:href="#font_2_9" transform="matrix(7.332866,0,0,-7.332866,128.52973,57.72828)"/>
<path transform="matrix(1.00005,0,0,-1.00005,11.412872,47.831789)" stroke-width=".3985" stroke-linecap="butt" stroke-miterlimit="10" stroke-linejoin="miter" fill="none" stroke="#929292" d="M138.89876 1.98438V-1.98438"/>
<use data-text="7" xlink:href="#font_2_10" transform="matrix(7.332866,0,0,-7.332866,148.3737,57.72828)"/>
<path transform="matrix(1.00005,0,0,-1.00005,11.412872,47.831789)" stroke-width=".3985" stroke-linecap="butt" stroke-miterlimit="10" stroke-linejoin="miter" fill="none" stroke="#929292" d="M158.74143 1.98438V-1.98438"/>
<use data-text="8" xlink:href="#font_2_11" transform="matrix(7.332866,0,0,-7.332866,168.2177,57.72828)"/>
<path transform="matrix(1.00005,0,0,-1.00005,11.412872,47.831789)" stroke-width=".3985" stroke-linecap="butt" stroke-miterlimit="10" stroke-linejoin="miter" fill="none" stroke="#929292" d="M178.5841 1.98438V-1.98438"/>
<use data-text="9" xlink:href="#font_2_12" transform="matrix(7.332866,0,0,-7.332866,188.0607,57.72828)"/>
<path transform="matrix(1.00005,0,0,-1.00005,11.412872,47.831789)" stroke-width=".3985" stroke-linecap="butt" stroke-miterlimit="10" stroke-linejoin="miter" fill="none" stroke="#929292" d="M1.98438 19.84267H-1.98438"/>
<use data-text="1" xlink:href="#font_2_4" transform="matrix(7.332866,0,0,-7.332866,6.1086046,30.442919)"/>
<path transform="matrix(1.00005,0,0,-1.00005,11.412872,47.831789)" stroke-width=".79701" stroke-linecap="butt" stroke-dasharray="2.98883,2.98883" stroke-miterlimit="10" stroke-linejoin="miter" fill="none" stroke="#0000ff" d="M-9.92133 0H-9.23613-8.55095-7.86577-7.1806-6.49542-5.81024-5.12505-4.43988-3.7547-3.06952-2.38434-1.69914-1.01398-.3288 .35634 1.04152 1.72672 2.4119 3.09708 3.78224 4.46742 5.15262 5.8378 6.52296 7.20815 7.89333 8.57852 9.2637 9.94887 10.63405 11.31923 12.00441 12.68959 13.37477 14.05995 14.74513 15.43031 16.1155 16.80067 17.48586 18.17104 18.8562 19.5414 20.2266 20.91176 21.59694 22.28212 22.96732 23.65248 24.33766 25.02284 25.70802 26.3932 27.07838 27.76357 28.44875 29.13393 29.81909 30.50429 31.18947 31.87465 32.55983 33.245 33.93019 34.61537 35.30055 35.98572 36.6709 37.3561 38.04128 38.72646 39.41162 40.09682 40.782 41.46718 42.15234 42.83754 43.52272 44.20789 44.89308 45.57826 46.26344 46.94861 47.63379 48.31898 49.00417 49.68935 50.37451 51.0597 51.74489 52.43007 53.11523 53.80042 54.4856 55.17079 55.85597 56.54114 57.22632 57.9115"/>
<path transform="matrix(1.00005,0,0,-1.00005,11.412872,47.831789)" stroke-width=".79701" stroke-linecap="butt" stroke-dasharray="2.98883,2.98883" stroke-miterlimit="10" stroke-linejoin="miter" fill="none" stroke="#990000" d="M-9.92133 0H-9.23613-8.55095-7.86577-7.1806-6.49542-5.81024-5.12505-4.43988-3.7547-3.06952-2.38434-1.69914-1.01398-.3288 .35634 1.04152 1.72672 2.4119 3.09708 3.78224 4.46742 5.15262 5.8378 6.52296 7.20815 7.89333 8.57852 9.2637 9.94887 10.63405 11.31923 12.00441 12.68959 13.37477 14.05995 14.74513 15.43031 16.1155 16.80067 17.48586 18.17104 18.8562 19.5414 20.2266 20.91176 21.59694 22.28212 22.96732 23.65248 24.33766 25.02284 25.70802 26.3932 27.07838 27.76357 28.44875 29.13393 29.81909 30.50429 31.18947 31.87465 32.55983 33.245 33.93019 34.61537 35.30055 35.98572 36.6709 37.3561 38.04128 38.72646 39.41162 40.09682 40.782 41.46718 42.15234 42.83754 43.52272 44.20789 44.89308 45.57826 46.26344 46.94861 47.63379 48.31898 49.00417 49.68935 50.37451 51.0597 51.74489 52.43007 53.11523 53.80042 54.4856 55.17079 55.85597 56.54114 57.22632 57.9115"/>
<path transform="matrix(1.00005,0,0,-1.00005,11.412872,47.831789)" stroke-width="1.19553" stroke-linecap="butt" stroke-miterlimit="10" stroke-linejoin="miter" fill="none" stroke="#009900" d="M-8.9649 0H-9.23613-8.55095-7.86577-7.1806-6.49542-5.81024-5.12505-4.43988-3.7547-3.06952-2.38434-1.69914-1.01398-.3288 .35634 1.04152 1.72672 2.4119 3.09708 3.78224 4.46742 5.15262 5.8378 6.52296 7.20815 7.89333 8.57852 9.2637 9.94887 10.63405 11.31923 12.00441 12.68959 13.37477 14.05995 14.74513 15.43031 16.1155 16.80067 17.48586 18.17104 18.8562 19.5414 20.2266 20.91176 21.59694 22.28212 22.96732 23.65248 24.33766 25.02284 25.70802 26.3932 27.07838 27.76357 28.44875 29.13393 29.81909 30.50429 31.18947 31.87465 32.55983 33.245 33.93019 34.61537 35.30055 35.98572 36.6709 37.3561 38.04128 38.72646 39.41162 40.09682 40.782 41.46718 42.15234 42.83754 43.52272 44.20789 44.89308 45.57826 46.26344 46.94861 47.63379 48.31898 49.00417 49.68935 50.37451 51.0597 51.74489 52.43007 53.11523 53.80042 54.4856 55.17079 55.85597 56.54114 57.22632 57.9115"/>
<path transform="matrix(-1.00005,-0,0,1.00005,2.447524,47.831789)" stroke-width=".9564" stroke-linecap="round" stroke-linejoin="round" fill="none" stroke="#009900" d="M-1.91284 2.55046C-1.75343 1.59402 0 .15938 .4782 0 0-.15938-1.75343-1.59402-1.91284-2.55046"/>
<path transform="matrix(1.00005,0,0,-1.00005,11.412872,47.831789)" stroke-width=".79701" stroke-linecap="butt" stroke-dasharray="2.98883,2.98883" stroke-miterlimit="10" stroke-linejoin="miter" fill="none" stroke="#0000ff" d="M61.11548 19.84267H61.68468 62.25392 62.82312 63.39235 63.96156 64.53078 65.09999 65.6692 66.23843 66.80766 67.37686 67.94609 68.51529 69.08452 69.65373 70.22295 70.79218 71.36139 71.9306 72.49982 73.06905 73.63826 74.20747 74.77669 75.3459 75.91513 76.48434 77.05356 77.62279 78.19199 78.76122 79.33043 79.89964 80.46887 81.03809 81.6073 82.17651 82.74573 83.31496 83.88417 84.4534 85.0226 85.59183 86.16104 86.73026 87.29947 87.8687 88.43791 89.00714 89.57634 90.14557 90.71477 91.28401 91.85323 92.42244 92.99165 93.56087 94.13008 94.69931 95.26852 95.83775 96.40695 96.97618 97.54538 98.11461 98.68384 99.25304 99.82227 100.39148 100.9607 101.52992 102.09914 102.66835 103.23756 103.80678 104.376 104.94522 105.51445 106.08365 106.65288 107.22209 107.7913 108.36052 108.92973 109.49896 110.06818 110.63739 111.20662 111.77582 112.34505 112.91426 113.48349 114.0527 114.62192 115.19113 115.76035 116.32957 116.8988 117.468"/>
<path transform="matrix(1.00005,0,0,-1.00005,11.412872,47.831789)" stroke-width=".79701" stroke-linecap="butt" stroke-dasharray="2.98883,2.98883" stroke-miterlimit="10" stroke-linejoin="miter" fill="none" stroke="#990000" d="M61.11548 0H61.68468 62.25392 62.82312 63.39235 63.96156 64.53078 65.09999 65.6692 66.23843 66.80766 67.37686 67.94609 68.51529 69.08452 69.65373 70.22295 70.79218 71.36139 71.9306 72.49982 73.06905 73.63826 74.20747 74.77669 75.3459 75.91513 76.48434 77.05356 77.62279 78.19199 78.76122 79.33043 79.89964 80.46887 81.03809 81.6073 82.17651 82.74573 83.31496 83.88417 84.4534 85.0226 85.59183 86.16104 86.73026 87.29947 87.8687 88.43791 89.00714 89.57634 90.14557 90.71477 91.28401 91.85323 92.42244 92.99165 93.56087 94.13008 94.69931 95.26852 95.83775 96.40695 96.97618 97.54538 98.11461 98.68384 99.25304 99.82227 100.39148 100.9607 101.52992 102.09914 102.66835 103.23756 103.80678 104.376 104.94522 105.51445 106.08365 106.65288 107.22209 107.7913 108.36052 108.92973 109.49896 110.06818 110.63739 111.20662 111.77582 112.34505 112.91426 113.48349 114.0527 114.62192 115.19113 115.76035 116.32957 116.8988 117.468"/>
<path transform="matrix(1.00005,0,0,-1.00005,11.412872,47.831789)" stroke-width="1.19553" stroke-linecap="butt" stroke-miterlimit="10" stroke-linejoin="miter" fill="none" stroke="#009900" d="M59.52802 19.84267H60.11298 60.69795 61.28291 61.86786 62.45284 63.0378 63.62276 64.2077 64.79268 65.37766 65.96259 66.54756 67.13252 67.71748 68.30244 68.8874 69.47237 70.05734 70.64229 71.22726 71.81223 72.39719 72.98215 73.56711 74.15207 74.73705 75.32198 75.90695 76.49191 77.07687 77.66183 78.2468 78.83177 79.41672 80.00168 80.58665 81.17162 81.75656 82.34154 82.9265 83.51146 84.09642 84.68138 85.26634 85.85129 86.43626 87.02122 87.60619 88.19115 88.77611 89.36107 89.94604 90.53099 91.11595 91.70093 92.28589 92.87083 93.45581 94.04077 94.62575 95.21068 95.79565 96.38063 96.96556 97.55054 98.1355 98.72046 99.30542 99.89038 100.47536 101.06032 101.64526 102.23024 102.8152 103.40016 103.98512 104.57008 105.15504 105.74002 106.32497 106.90993 107.49489 108.07985 108.66481 109.24977 109.83475 110.4197 111.00465 111.58963 112.17459 112.75954 113.34451 113.92947 114.51443 115.0994 115.68436 116.26932 116.85428 117.43924"/>
<path transform="matrix(1.00005,0,0,-1.00005,11.412872,47.831789)" stroke-width=".79701" stroke-linecap="butt" stroke-dasharray="2.98883,2.98883" stroke-miterlimit="10" stroke-linejoin="miter" fill="none" stroke="#0000ff" d="M120.64351 19.84267H121.3287 122.01387 122.69905 123.38423 124.06941 124.75461 125.43977 126.12495 126.81013 127.49532 128.1805 128.86568 129.55086 130.23604 130.92122 131.6064 132.29158 132.97676 133.66194 134.3471 135.03229 135.7175 136.40267 137.08785 137.77301 138.4582 139.14339 139.82857 140.51375 141.19893 141.88411 142.56929 143.25447 143.93965 144.62483 145.31 145.9952 146.68038 147.36556 148.05074 148.7359 149.4211 150.10628 150.79146 151.47663 152.1618 152.84699 153.53218 154.21736 154.90253 155.5877 156.27289 156.95809 157.64325 158.32843 159.01363 159.69879 160.38399 161.06917 161.75435 162.43952 163.1247 163.80989 164.49507 165.18025 165.86542 166.5506 167.23578 167.92098 168.60614 169.29132 169.9765 170.66168 171.34688 172.03205 172.71723 173.4024 174.08759 174.77277 175.45795 176.14313 176.82831 177.51349 178.19867 178.88385 179.56903 180.25421 180.93938 181.62458 182.30977 182.99494 183.68012 184.3653 185.05048 185.73566 186.42084 187.10602 187.7912 188.47638"/>
<path transform="matrix(1.00005,0,0,-1.00005,11.412872,47.831789)" stroke-width=".79701" stroke-linecap="butt" stroke-dasharray="2.98883,2.98883" stroke-miterlimit="10" stroke-linejoin="miter" fill="none" stroke="#990000" d="M120.64351 19.84267H121.3287 122.01387 122.69905 123.38423 124.06941 124.75461 125.43977 126.12495 126.81013 127.49532 128.1805 128.86568 129.55086 130.23604 130.92122 131.6064 132.29158 132.97676 133.66194 134.3471 135.03229 135.7175 136.40267 137.08785 137.77301 138.4582 139.14339 139.82857 140.51375 141.19893 141.88411 142.56929 143.25447 143.93965 144.62483 145.31 145.9952 146.68038 147.36556 148.05074 148.7359 149.4211 150.10628 150.79146 151.47663 152.1618 152.84699 153.53218 154.21736 154.90253 155.5877 156.27289 156.95809 157.64325 158.32843 159.01363 159.69879 160.38399 161.06917 161.75435 162.43952 163.1247 163.80989 164.49507 165.18025 165.86542 166.5506 167.23578 167.92098 168.60614 169.29132 169.9765 170.66168 171.34688 172.03205 172.71723 173.4024 174.08759 174.77277 175.45795 176.14313 176.82831 177.51349 178.19867 178.88385 179.56903 180.25421 180.93938 181.62458 182.30977 182.99494 183.68012 184.3653 185.05048 185.73566 186.42084 187.10602 187.7912 188.47638"/>
<path transform="matrix(1.00005,0,0,-1.00005,11.412872,47.831789)" stroke-width="1.19553" stroke-linecap="butt" stroke-miterlimit="10" stroke-linejoin="miter" fill="none" stroke="#009900" d="M119.05606 0H119.7573 120.45853 121.15974 121.86098 122.56221 123.26343 123.96465 124.66588 125.36711 126.06834 126.76956 127.47078 128.17203 128.87325 129.57448 130.2757 130.97693 131.67815 132.37938 133.08061 133.78185 134.48308 135.1843 135.88553 136.58675 137.28798 137.9892 138.69045 139.39167 140.09288 140.79412 141.49535 142.19658 142.8978 143.59902 144.30025 145.00148 145.70272 146.40393 147.10518 147.8064 148.50762 149.20883 149.91008 150.6113 151.31253 152.01377 152.71498 153.41622 154.11743 154.81868 155.5199 156.22112 156.92234 157.62358 158.32482 159.02603 159.72725 160.42848 161.12972 161.83094 162.53217 163.2334 163.93463 164.63585 165.33707 166.03832 166.73954 167.44077 168.142 168.84322 169.54444 170.24567 170.9469 171.64813 172.34935 173.05057 173.75182 174.45304 175.15427 175.85549 176.55673 177.25795 177.95917 178.6604 179.36164 180.06287 180.76409 181.4653 182.16654 182.86777 183.56899 184.27024 184.97145 185.67267 186.3739 187.07514 187.77637 187.52117"/>
<path transform="matrix(1.00005,0,0,-1.00005,198.9434,47.831789)" stroke-width=".9564" stroke-linecap="round" stroke-linejoin="round" fill="none" stroke="#009900" d="M-1.91284 2.55046C-1.75343 1.59402 0 .15938 .4782 0 0-.15938-1.75343-1.59402-1.91284-2.55046"/>
<path transform="matrix(1.00005,0,0,-1.00005,11.412872,47.831789)" stroke-width=".79701" stroke-linecap="butt" stroke-miterlimit="10" stroke-linejoin="miter" fill="none" stroke="#009900" d="M61.6202 0C61.6202 1.15549 60.6835 2.09216 59.52802 2.09216 58.37253 2.09216 57.43585 1.15549 57.43585 0 57.43585-1.15549 58.37253-2.09216 59.52802-2.09216 60.6835-2.09216 61.6202-1.15549 61.6202 0ZM59.52802 0"/>
<path transform="matrix(1.00005,0,0,-1.00005,11.412872,47.831789)" d="M61.6202 19.84267C61.6202 20.99815 60.6835 21.93483 59.52802 21.93483 58.37253 21.93483 57.43585 20.99815 57.43585 19.84267 57.43585 18.68718 58.37253 17.75049 59.52802 17.75049 60.6835 17.75049 61.6202 18.68718 61.6202 19.84267ZM59.52802 19.84267" fill="#009900"/>
<path transform="matrix(1.00005,0,0,-1.00005,11.412872,47.831789)" stroke-width=".79701" stroke-linecap="butt" stroke-miterlimit="10" stroke-linejoin="miter" fill="none" stroke="#009900" d="M121.14824 19.84267C121.14824 20.99815 120.21155 21.93483 119.05606 21.93483 117.90057 21.93483 116.9639 20.99815 116.9639 19.84267 116.9639 18.68718 117.90057 17.75049 119.05606 17.75049 120.21155 17.75049 121.14824 18.68718 121.14824 19.84267ZM119.05606 19.84267"/>
<path transform="matrix(1.00005,0,0,-1.00005,11.412872,47.831789)" d="M121.14824 0C121.14824 1.15549 120.21155 2.09216 119.05606 2.09216 117.90057 2.09216 116.9639 1.15549 116.9639 0 116.9639-1.15549 117.90057-2.09216 119.05606-2.09216 120.21155-2.09216 121.14824-1.15549 121.14824 0ZM119.05606 0" fill="#009900"/>
<use data-text="u" xlink:href="#font_1_4" transform="matrix(10.036901,0,0,-10.036901,12.867943,7.900791)"/>
<use data-text="c" xlink:href="#font_1_1" transform="matrix(7.60788,0,0,-7.60788,19.403275,9.536877)"/>
<use data-text="(" xlink:href="#font_2_1" transform="matrix(10.036901,0,0,-10.036901,23.853493,7.900791)"/>
<use data-text="t" xlink:href="#font_1_3" transform="matrix(10.036901,0,0,-10.036901,27.584679,7.900791)"/>
<use data-text=")" xlink:href="#font_2_2" transform="matrix(10.036901,0,0,-10.036901,32.07991,7.900791)"/>
<use data-text="&#x2212;" xlink:href="#font_3_1" transform="matrix(10.036901,0,0,-10.036901,36.926149,7.900791)"/>
<use data-text="u" xlink:href="#font_1_4" transform="matrix(10.036901,0,0,-10.036901,45.481576,7.900791)"/>
<use data-text="d" xlink:href="#font_1_2" transform="matrix(7.60788,0,0,-7.60788,52.0169,9.745884)"/>
<use data-text="(" xlink:href="#font_2_1" transform="matrix(10.036901,0,0,-10.036901,57.74919,7.900791)"/>
<use data-text="t" xlink:href="#font_1_3" transform="matrix(10.036901,0,0,-10.036901,61.480379,7.900791)"/>
<use data-text=")" xlink:href="#font_2_2" transform="matrix(10.036901,0,0,-10.036901,65.974597,7.900791)"/>
<use data-text="&#xfffd;" xlink:href="#font_4_3" transform="matrix(10.036801,0,0,-10.036801,12.867943,14.376114)"/>
<path transform="matrix(1.00005,0,0,-1.00005,-64.54793,-27.933999)" stroke-width="1.2043" stroke-linecap="butt" stroke-miterlimit="10" stroke-linejoin="miter" fill="none" stroke="#000000" d="M81.929-41.706H101.204"/>
<use data-text="&#xfffd;" xlink:href="#font_4_2" transform="matrix(10.036801,0,0,-10.036801,36.661134,14.376114)"/>
<use data-text="&#xfffd;" xlink:href="#font_4_1" transform="matrix(10.036801,0,0,-10.036801,41.17769,14.376114)"/>
<path transform="matrix(1.00005,0,0,-1.00005,-64.54793,-27.933999)" stroke-width="1.2043" stroke-linecap="butt" stroke-miterlimit="10" stroke-linejoin="miter" fill="none" stroke="#000000" d="M110.237-41.706H129.513"/>
<use data-text="&#xfffd;" xlink:href="#font_4_4" transform="matrix(10.036801,0,0,-10.036801,64.97154,14.376114)"/>
<use data-text="0" xlink:href="#font_2_3" transform="matrix(7.60788,0,0,-7.60788,29.65078,23.542572)"/>
<use data-text="&#x2212;" xlink:href="#font_3_1" transform="matrix(7.60788,0,0,-7.60788,33.68598,23.542572)"/>
<use data-text="0" xlink:href="#font_2_3" transform="matrix(7.60788,0,0,-7.60788,39.160257,23.542572)"/>
<use data-text="=" xlink:href="#font_3_2" transform="matrix(7.60788,0,0,-7.60788,43.195459,23.542572)"/>
<use data-text="0" xlink:href="#font_2_3" transform="matrix(7.60788,0,0,-7.60788,48.66973,23.542572)"/>
<use data-text="0" xlink:href="#font_2_3" transform="matrix(10.036901,0,0,-10.036901,22.77044,44.378618)"/>
<use data-text="&#x2212;" xlink:href="#font_3_1" transform="matrix(10.036901,0,0,-10.036901,29.427765,44.378618)"/>
<use data-text="0" xlink:href="#font_2_3" transform="matrix(10.036901,0,0,-10.036901,37.983194,44.378618)"/>
<use data-text="=" xlink:href="#font_3_2" transform="matrix(10.036901,0,0,-10.036901,45.174554,44.378618)"/>
<use data-text="0" xlink:href="#font_2_3" transform="matrix(10.036901,0,0,-10.036901,54.26301,44.378618)"/>
<use data-text="u" xlink:href="#font_1_4" transform="matrix(10.036901,0,0,-10.036901,81.20736,22.886542)"/>
<use data-text="c" xlink:href="#font_1_1" transform="matrix(7.60788,0,0,-7.60788,87.74269,24.522627)"/>
<use data-text="(" xlink:href="#font_2_1" transform="matrix(10.036901,0,0,-10.036901,92.19291,22.886542)"/>
<use data-text="t" xlink:href="#font_1_3" transform="matrix(10.036901,0,0,-10.036901,95.924098,22.886542)"/>
<use data-text=")" xlink:href="#font_2_2" transform="matrix(10.036901,0,0,-10.036901,100.41933,22.886542)"/>
<use data-text="=" xlink:href="#font_3_2" transform="matrix(10.036901,0,0,-10.036901,105.79859,22.886542)"/>
<use data-text="1" xlink:href="#font_2_4" transform="matrix(10.036901,0,0,-10.036901,114.88804,22.886542)"/>
<use data-text="u" xlink:href="#font_1_4" transform="matrix(10.036901,0,0,-10.036901,80.56633,42.521524)"/>
<use data-text="d" xlink:href="#font_1_2" transform="matrix(7.60788,0,0,-7.60788,87.10166,44.366617)"/>
<use data-text="(" xlink:href="#font_2_1" transform="matrix(10.036901,0,0,-10.036901,92.83395,42.521524)"/>
<use data-text="t" xlink:href="#font_1_3" transform="matrix(10.036901,0,0,-10.036901,96.56514,42.521524)"/>
<use data-text=")" xlink:href="#font_2_2" transform="matrix(10.036901,0,0,-10.036901,101.06036,42.521524)"/>
<use data-text="=" xlink:href="#font_3_2" transform="matrix(10.036901,0,0,-10.036901,106.43963,42.521524)"/>
<use data-text="0" xlink:href="#font_2_3" transform="matrix(10.036901,0,0,-10.036901,115.52808,42.521524)"/>
<use data-text="u" xlink:href="#font_1_4" transform="matrix(10.036901,0,0,-10.036901,128.21772,42.521524)"/>
<use data-text="c" xlink:href="#font_1_1" transform="matrix(7.60788,0,0,-7.60788,134.75305,44.157609)"/>
<use data-text="(" xlink:href="#font_2_1" transform="matrix(10.036901,0,0,-10.036901,139.20326,42.521524)"/>
<use data-text="t" xlink:href="#font_1_3" transform="matrix(10.036901,0,0,-10.036901,142.93445,42.521524)"/>
<use data-text=")" xlink:href="#font_2_2" transform="matrix(10.036901,0,0,-10.036901,147.42969,42.521524)"/>
<use data-text="=" xlink:href="#font_3_2" transform="matrix(10.036901,0,0,-10.036901,152.80895,42.521524)"/>
<use data-text="u" xlink:href="#font_1_4" transform="matrix(10.036901,0,0,-10.036901,161.89839,42.521524)"/>
<use data-text="d" xlink:href="#font_1_2" transform="matrix(7.60788,0,0,-7.60788,168.43271,44.366617)"/>
<use data-text="(" xlink:href="#font_2_1" transform="matrix(10.036901,0,0,-10.036901,174.16602,42.521524)"/>
<use data-text="t" xlink:href="#font_1_3" transform="matrix(10.036901,0,0,-10.036901,177.89719,42.521524)"/>
<use data-text=")" xlink:href="#font_2_2" transform="matrix(10.036901,0,0,-10.036901,182.39142,42.521524)"/>
<use data-text="=" xlink:href="#font_3_2" transform="matrix(10.036901,0,0,-10.036901,187.77069,42.521524)"/>
<use data-text="1" xlink:href="#font_2_4" transform="matrix(10.036901,0,0,-10.036901,196.86014,42.521524)"/>
</svg>
