<svg xmlns="http://www.w3.org/2000/svg" xmlns:xlink="http://www.w3.org/1999/xlink" version="1.1" width="121" height="53" viewBox="0 0 121 53">
<defs>
<path id="font_1_1" d="M.42799378 .15419007C.3939972 .10821533 .33499146 .03727722 .2679901 .03727722 .19499207 .03727722 .17999268 .097229007 .17999268 .16816712 .17999268 .29808045 .25498963 .46694947 .34700013 .46694947 .3789978 .46694947 .40098573 .44696046 .40699769 .38700868 .40899659 .36901856 .41799928 .35702516 .43598939 .35702516 .45999146 .35702516 .5 .38002015 .5 .41299439 .5 .46394349 .44599916 .5019531 .37098695 .5019531 .19299317 .5019531 .08099365 .31207276 .08099365 .14819336 .08099365 .026275635 .1539917-.01171875 .22399903-.01171875 .2979889-.01171875 .3829956 .02027893 .45199586 .13519287L.42799378 .15419007Z"/>
<path id="font_1_2" d="M.17098999 .112213138C.17098999 .22013855 .2579956 .46694947 .41799928 .46694947 .44898988 .46694947 .47499085 .45794679 .4869995 .44696046 .47200013 .37002564 .43899537 .27609254 .3880005 .19316101 .33999635 .115219119 .27398683 .040267946 .22099304 .040267946 .18899536 .040267946 .17098999 .06724548 .17098999 .112213138M.46398927 .71824648 .45799256 .6953125 .5179901 .68930056C.5419922 .6872864 .5439911 .6802826 .5359955 .6482239L.49798585 .48693849 .49598695 .48493959C.47698976 .49494935 .44599916 .5019531 .4119873 .5019531 .1789856 .5019531 .07199097 .24111939 .07199097 .12020874 .07199097 .055267335 .09098816-.01171875 .17199707-.01171875 .2869873-.01171875 .37599183 .11122131 .43499757 .21813965H.43699647L.4039917 .099227908C.38398744 .028274537 .39898683-.01272583 .44999696-.01171875 .522995-.01171875 .57899478 .056259157 .61299136 .13220215L.58898928 .14619446C.57099917 .11122131 .5269928 .040267946 .49899293 .040267946 .47898866 .040267946 .48098756 .06326294 .4889984 .0952301L.6469879 .7371979 .6419983 .7421875 .46398927 .71824648Z"/>
<path id="font_1_3" d="M.42799378 .45222474 .43899537 .49023438H.31199647L.34599305 .6092224 .33399964 .6162262 .23699951 .53923037 .22399903 .49023438H.14299011L.13198853 .45222474H.21499634L.125 .08627319C.10998535 .029266358 .12199402-.01171875 .17199707-.01171875 .2519989-.01171875 .31599427 .054275514 .35598756 .1292572L.33399964 .1462555C.31098939 .10726929 .2599945 .040267946 .22898865 .040267946 .20799256 .040267946 .20799256 .0632782 .21398926 .088272098L.30299378 .45222474H.42799378Z"/>
<path id="font_2_3" d="M.43699647 0V.0289917L.35299684 .035995485C.33198548 .037994386 .31999208 .04598999 .31999208 .08496094V.67367556L.31498719 .6796875 .10899353 .6446991V.6197052L.20199585 .6087036C.21899414 .6067047 .22599793 .5987091 .22599793 .56973269V.08496094C.22599793 .065979007 .22299195 .053985597 .21699524 .04698181 .21199036 .039993287 .20399475 .036987306 .19299317 .035995485L.10899353 .0289917V0H.43699647Z"/>
<path id="font_1_4" d="M.5329895 .48995973C.5039978 .388031 .48799134 .33506776 .46199037 .2741089 .41799928 .173172 .33099366 .040267946 .24798584 .040267946 .21598816 .040267946 .20799256 .070251468 .22299195 .12820435L.31900025 .4970703 .31399537 .50205996 .13198853 .47375489 .12599182 .4497528 .18798828 .44476319C.21199036 .44276429 .21099854 .42778016 .20298767 .39682008L.13398743 .13316345C.11299133 .053253175 .12098694-.01171875 .20098877-.01171875 .29699708-.01171875 .4019928 .09420776 .46199037 .21005249H.46398927L.43099977 .096206668C.4119873 .029266358 .42399598-.01171875 .47698976-.01171875 .548996-.01171875 .60899356 .057250978 .6439972 .13116455L.6199951 .14613343C.59999087 .11218262 .55599978 .040267946 .5279999 .040267946 .5069885 .040267946 .5069885 .06324768 .5149994 .09420776L.621994 .5019531 .5329895 .48995973Z"/>
<path id="font_2_1" d="M.1749878 .2822113C.1749878 .56832888 .2619934 .65437319 .32499696 .66737368V.6923828C.1499939 .685379 .10499573 .46829225 .10499573 .2822113 .10499573 .09614563 .1499939-.12094116 .32499696-.12792969V-.10293579C.2669983-.090927127 .1749878-.0059051516 .1749878 .2822113Z"/>
<path id="font_2_2" d="M.1749878 .2822113C.1749878-.0059051516 .08299255-.090927127 .024993897-.10293579V-.12792969C.19999695-.12094116 .24499512 .09614563 .24499512 .2822113 .24499512 .46829225 .19999695 .685379 .024993897 .6923828V.66737368C.08799744 .65437319 .1749878 .56832888 .1749878 .2822113Z"/>
<path id="font_3_1" d="M.6349945 .2529297V.31092835H.084991458V.2529297H.6349945Z"/>
<path id="font_2_6" d="M.3809967 .6720276C.5589905 .6720276 .59999087 .4931183 .60198977 .3461914 .59999087 .19924927 .5589905 .020339966 .3809967 .020339966 .20298767 .020339966 .1619873 .19924927 .1599884 .3461914 .1619873 .4931183 .20298767 .6720276 .3809967 .6720276M.3809967 .70703127C.2709961 .70703127 .18899536 .6730194 .1329956 .61006167 .07899475 .55007937 .04798889 .4591217 .04798889 .3461914 .04798889 .23423767 .07899475 .14228821 .1329956 .08232117 .18899536 .019348145 .2709961-.0146484379 .3809967-.0146484379 .49198915-.0146484379 .57299807 .019348145 .6289978 .08232117 .6839905 .14228821 .71398928 .23423767 .71398928 .3461914 .71398928 .4591217 .6839905 .55007937 .6289978 .61006167 .57299807 .6730194 .49198915 .70703127 .3809967 .70703127Z"/>
<path id="font_2_4" d="M.034988405 .6923828V.66337588C.12298584 .6573639 .125 .655365 .125 .5993347V.093048099C.125 .037002565 .12298584 .035003663 .034988405 .0289917V0H.32998658V.0289917C.22698975 .035003663 .22399903 .037002565 .22399903 .093048099V.32722474H.3639984C.44898988 .32722474 .45298768 .3032074 .46199037 .23916626H.49198915V.4532776H.46199037C.45298768 .38923646 .44898988 .36523438 .3639984 .36523438H.22399903V.62135317C.22399903 .65437319 .22799683 .65737918 .26098634 .65737918H.3600006C.47599793 .65737918 .49899293 .6343689 .5130005 .5323181H.54299929V.6923828H.034988405Z"/>
<path id="font_2_5" d="M.033996583 .6923828V.66337588C.12199402 .6573639 .12399292 .655365 .12399292 .5993347V.20309448C.12399292 .15007019 .12199402 .11204529 .116989139 .07902527 .11099243 .037002565 .08699036 .032989503 .034988405 .0289917V0H.27198792V.0289917C.20698548 .033996583 .18299866 .037002565 .1769867 .07902527 .17199707 .11204529 .16999817 .15007019 .16999817 .20309448V.6023407H.17199707C.31498719 .4012146 .45700074 .20109558 .59799197 0H.6639862V.48927308C.6639862 .54229739 .66600039 .58032229 .67099 .6133423 .6769867 .655365 .70098879 .6593628 .7529907 .66337588V.6923828H.5159912V.66337588C.58099368 .658371 .6049957 .655365 .61099246 .6133423 .6159973 .58032229 .6179962 .54229739 .6179962 .48927308V.13806153L.6159973 .14006043C.4850006 .32417298 .35499574 .5082855 .22599793 .6923828H.033996583Z"/>
</defs>
<path transform="matrix(1.00005,0,0,-1.00006,8.936844,30.454049)" d="M-7.08669-19.84267V28.3468H21.2601V-19.84267ZM21.2601 28.3468" fill="#d9d9ff"/>
<path transform="matrix(1.00005,0,0,-1.00006,8.936844,30.454049)" d="M21.2601-19.84267V28.3468H65.19774V-19.84267ZM65.19774 28.3468" fill="#d9f0d9"/>
<path transform="matrix(1.00005,0,0,-1.00006,8.936844,30.454049)" d="M65.19774-19.84267V28.3468H106.30052V-19.84267ZM106.30052 28.3468" fill="#d9d9ff"/>
<use data-text="c" xlink:href="#font_1_1" transform="matrix(9.166058,0,0,-9.166149,27.816788,48.30812)"/>
<use data-text="d" xlink:href="#font_1_2" transform="matrix(9.166058,0,0,-9.166149,70.98494,50.62526)"/>
<path transform="matrix(1.00005,0,0,-1.00006,8.936844,30.454049)" stroke-width=".3985" stroke-linecap="butt" stroke-miterlimit="10" stroke-linejoin="miter" fill="none" stroke="#000000" d="M-7.08669 0H105.84224"/>
<path transform="matrix(1.00005,0,0,-1.00006,114.78437,30.454049)" stroke-width=".31879" stroke-linecap="round" stroke-linejoin="round" fill="none" stroke="#000000" d="M-1.19551 1.59401C-1.09587 .99626 0 .09961 .29886 0 0-.09961-1.09587-.99626-1.19551-1.59401"/>
<path transform="matrix(1.00005,0,0,-1.00006,8.936844,30.454049)" stroke-width=".3985" stroke-linecap="butt" stroke-miterlimit="10" stroke-linejoin="miter" fill="none" stroke="#000000" d="M0-19.84267V27.88852"/>
<path transform="matrix(0,-1.00006,-1.00005,-0,8.936844,2.5638562)" stroke-width=".31879" stroke-linecap="round" stroke-linejoin="round" fill="none" stroke="#000000" d="M-1.19551 1.59401C-1.09587 .99626 0 .09961 .29886 0 0-.09961-1.09587-.99626-1.19551-1.59401"/>
<use data-text="t" xlink:href="#font_1_3" transform="matrix(9.166058,0,0,-9.166149,111.871997,39.50259)"/>
<path transform="matrix(1.00005,0,0,-1.00006,8.936844,30.454049)" stroke-width=".3985" stroke-linecap="butt" stroke-miterlimit="10" stroke-linejoin="miter" fill="none" stroke="#929292" d="M21.2601 1.4174V-1.4174"/>
<path transform="matrix(1.00005,0,0,-1.00006,8.936844,30.454049)" stroke-width=".3985" stroke-linecap="butt" stroke-miterlimit="10" stroke-linejoin="miter" fill="none" stroke="#929292" d="M65.19774 1.4174V-1.4174"/>
<path transform="matrix(1.00005,0,0,-1.00006,8.936844,30.454049)" stroke-width=".3985" stroke-linecap="butt" stroke-miterlimit="10" stroke-linejoin="miter" fill="none" stroke="#929292" d="M1.4174 14.17339H-1.4174"/>
<use data-text="1" xlink:href="#font_2_3" transform="matrix(9.166058,0,0,-9.166149,2.0934983,19.348383)"/>
<path transform="matrix(1.00005,0,0,-1.00006,8.936844,30.454049)" stroke-width="1.19553" stroke-linecap="butt" stroke-miterlimit="10" stroke-linejoin="miter" fill="none" stroke="#0000ff" d="M-7.08669 0H-6.809-6.53131-6.25362-5.97594-5.69824-5.42055-5.14287-4.86517-4.58748-4.3098-4.0321-3.75441-3.47673-3.19904-2.92134-2.64366-2.36597-2.08827-1.8106-1.5329-1.2552-.97752-.69983-.42213-.14445 .13321 .4109 .68858 .96628 1.24397 1.52165 1.79935 2.07704 2.35472 2.63242 2.91011 3.18779 3.46548 3.74318 4.02086 4.29855 4.57625 4.85393 5.13162 5.40932 5.687 5.96469 6.24237 6.52007 6.79776 7.07544 7.35313 7.63083 7.90851 8.1862 8.4639 8.74158 9.01927 9.29697 9.57465 9.85234 10.13004 10.40771 10.68541 10.9631 11.24077 11.51846 11.79616 12.07384 12.35153 12.62923 12.9069 13.1846 13.4623 13.73997 14.01767 14.29536 14.57304 14.85074 15.12843 15.40611 15.6838 15.9615 16.23918 16.51688 16.79457 17.07225 17.34995 17.62764 17.90532 18.18301 18.46071 18.73839 19.01608 19.29378 19.57146 19.84915 20.12685 20.40453"/>
<path transform="matrix(1.00005,0,0,-1.00006,8.936844,30.454049)" stroke-width="1.19553" stroke-linecap="butt" stroke-miterlimit="10" stroke-linejoin="miter" fill="none" stroke="#009900" d="M21.2601 14.17339H21.69522 22.13037 22.56549 23.00063 23.43576 23.8709 24.30603 24.74115 25.1763 25.61142 26.04655 26.48169 26.91682 27.35196 27.7871 28.22223 28.65736 29.09248 29.52762 29.96275 30.39789 30.83302 31.26816 31.7033 32.13841 32.57356 33.00868 33.44383 33.87895 34.3141 34.74922 35.18434 35.61949 36.05461 36.48976 36.92488 37.36003 37.79515 38.23029 38.66542 39.10056 39.53569 39.97083 40.40596 40.84108 41.27621 41.71135 42.14648 42.58162 43.01675 43.45189 43.88702 44.32214 44.7573 45.19241 45.62756 46.06268 46.49782 46.93295 47.36807 47.80322 48.23834 48.6735 49.10861 49.54376 49.97888 50.41403 50.84915 51.28427 51.71942 52.15454 52.58969 53.02481 53.45996 53.89508 54.33022 54.76535 55.20049 55.63562 56.07076 56.50589 56.94101 57.37614 57.81128 58.24641 58.68155 59.11668 59.55182 59.98695 60.42207 60.85722 61.29234 61.7275 62.16261 62.59775 63.03288 63.468 63.90315 64.33827"/>
<path transform="matrix(1.00005,0,0,-1.00006,8.936844,30.454049)" stroke-width="1.19553" stroke-linecap="butt" stroke-miterlimit="10" stroke-linejoin="miter" fill="none" stroke="#0000ff" d="M65.19774 0H65.61275 66.02779 66.4428 66.85782 67.27284 67.68785 68.10287 68.5179 68.93292 69.34793 69.76295 70.17798 70.59299 71.00803 71.42303 71.83806 72.25308 72.66809 73.08313 73.49814 73.91315 74.32819 74.7432 75.15822 75.57324 75.98825 76.40327 76.8183 77.23332 77.64835 78.06337 78.47838 78.8934 79.30843 79.72343 80.13847 80.55348 80.96849 81.38353 81.79854 82.21356 82.62859 83.0436 83.45862 83.87364 84.28867 84.70369 85.1187 85.53372 85.94875 86.36377 86.77878 87.1938 87.60883 88.02383 88.43887 88.85388 89.2689 89.68393 90.09894 90.51398 90.92899 91.34401 91.75903 92.17404 92.58907 93.00409 93.41911 93.83412 94.24915 94.66417 95.07918 95.49422 95.90923 96.32425 96.73927 97.15428 97.56932 97.98433 98.39934 98.81438 99.22939 99.64441 100.05943 100.47446 100.88947 101.30449 101.71951 102.13454 102.54956 102.96457 103.3796 103.79462 104.20963 104.62466 105.03967 105.45468 105.86972 106.28473"/>
<path transform="matrix(1.00005,0,0,-1.00006,8.936844,30.454049)" stroke-width=".79701" stroke-linecap="butt" stroke-miterlimit="10" stroke-linejoin="miter" fill="none" stroke="#0000ff" d="M22.75452 0C22.75452 .82533 22.08545 1.49442 21.2601 1.49442 20.43475 1.49442 19.76569 .82533 19.76569 0 19.76569-.82533 20.43475-1.49442 21.2601-1.49442 22.08545-1.49442 22.75452-.82533 22.75452 0ZM21.2601 0"/>
<path transform="matrix(1.00005,0,0,-1.00006,8.936844,30.454049)" d="M22.75452 14.17339C22.75452 14.99873 22.08545 15.6678 21.2601 15.6678 20.43475 15.6678 19.76569 14.99873 19.76569 14.17339 19.76569 13.34804 20.43475 12.67897 21.2601 12.67897 22.08545 12.67897 22.75452 13.34804 22.75452 14.17339ZM21.2601 14.17339" fill="#009900"/>
<path transform="matrix(1.00005,0,0,-1.00006,8.936844,30.454049)" stroke-width=".79701" stroke-linecap="butt" stroke-miterlimit="10" stroke-linejoin="miter" fill="none" stroke="#009900" d="M66.69215 14.17339C66.69215 14.99873 66.02309 15.6678 65.19774 15.6678 64.37239 15.6678 63.70332 14.99873 63.70332 14.17339 63.70332 13.34804 64.37239 12.67897 65.19774 12.67897 66.02309 12.67897 66.69215 13.34804 66.69215 14.17339ZM65.19774 14.17339"/>
<path transform="matrix(1.00005,0,0,-1.00006,8.936844,30.454049)" d="M66.69215 0C66.69215 .82533 66.02309 1.49442 65.19774 1.49442 64.37239 1.49442 63.70332 .82533 63.70332 0 63.70332-.82533 64.37239-1.49442 65.19774-1.49442 66.02309-1.49442 66.69215-.82533 66.69215 0ZM65.19774 0" fill="#0000ff"/>
<use data-text="u" xlink:href="#font_1_4" transform="matrix(9.166058,0,0,-9.166149,68.78183,8.286718)"/>
<use data-text="c" xlink:href="#font_1_1" transform="matrix(6.966248,0,0,-6.9663178,74.75014,9.7808079)"/>
<use data-text="(" xlink:href="#font_2_1" transform="matrix(9.166058,0,0,-9.166149,78.86734,8.286718)"/>
<use data-text="t" xlink:href="#font_1_3" transform="matrix(9.166058,0,0,-9.166149,82.274509,8.286718)"/>
<use data-text=")" xlink:href="#font_2_2" transform="matrix(9.166058,0,0,-9.166149,86.379718,8.286718)"/>
<use data-text="&#x2212;" xlink:href="#font_3_1" transform="matrix(9.166058,0,0,-9.166149,90.80594,8.286718)"/>
<use data-text="u" xlink:href="#font_1_4" transform="matrix(9.166058,0,0,-9.166149,98.61832,8.286718)"/>
<use data-text="d" xlink:href="#font_1_2" transform="matrix(6.966248,0,0,-6.9663178,104.586627,9.984819)"/>
<use data-text="(" xlink:href="#font_2_1" transform="matrix(9.166058,0,0,-9.166149,109.877887,8.286718)"/>
<use data-text="t" xlink:href="#font_1_3" transform="matrix(9.166058,0,0,-9.166149,113.28505,8.286718)"/>
<use data-text=")" xlink:href="#font_2_2" transform="matrix(9.166058,0,0,-9.166149,117.39026,8.286718)"/>
<use data-text="O" xlink:href="#font_2_6" transform="matrix(9.166058,0,0,-9.166149,7.211754,46.714025)" fill="#0000ff"/>
<use data-text="F" xlink:href="#font_2_4" transform="matrix(9.166058,0,0,-9.166149,14.196281,46.714025)" fill="#0000ff"/>
<use data-text="F" xlink:href="#font_2_4" transform="matrix(9.166058,0,0,-9.166149,19.512597,46.714025)" fill="#0000ff"/>
<use data-text="O" xlink:href="#font_2_6" transform="matrix(9.166058,0,0,-9.166149,45.098649,46.714025)" fill="#009900"/>
<use data-text="N" xlink:href="#font_2_5" transform="matrix(9.166058,0,0,-9.166149,52.083177,46.714025)" fill="#009900"/>
<use data-text="O" xlink:href="#font_2_6" transform="matrix(9.166058,0,0,-9.166149,85.877689,46.714025)" fill="#0000ff"/>
<use data-text="F" xlink:href="#font_2_4" transform="matrix(9.166058,0,0,-9.166149,92.86221,46.714025)" fill="#0000ff"/>
<use data-text="F" xlink:href="#font_2_4" transform="matrix(9.166058,0,0,-9.166149,98.17853,46.714025)" fill="#0000ff"/>
</svg>
