<svg xmlns="http://www.w3.org/2000/svg" xmlns:xlink="http://www.w3.org/1999/xlink" version="1.1" width="156" height="111" viewBox="0 0 156 111">
<defs>
<path id="font_1_1" d="M.43199159 .49023438H.3019867L.32998658 .6031952C.34899903 .67918398 .36799623 .70718386 .3959961 .70718386 .4229889 .70718386 .44099427 .68518069 .46299745 .6371918 .46798707 .62719729 .47499085 .6201935 .48999024 .6201935 .5099945 .6201935 .5389862 .6391907 .5389862 .6641846 .5389862 .70718386 .4850006 .7421875 .4249878 .7421875 .3600006 .7421875 .31799317 .71517947 .2849884 .67318728 .2539978 .63420107 .23399353 .5802002 .21998596 .5272217L.20999146 .49023438H.12298584L.11199951 .45222474H.20098877L.084991458-.137146C.07299805-.19918823 .06298828-.2052002 .052993776-.2052002 .041992189-.2052002 .026992798-.19718933 0-.15615845-.007003784-.14616394-.014007568-.13415528-.027008057-.13415528-.04901123-.13415528-.072006229-.15916443-.072006229-.18418885-.071014408-.2171936-.028015137-.2421875 .018997193-.2421875 .11898804-.2421875 .16099549-.16116333 .20298767 .030960083L.29599 .45222474H.42199708L.43199159 .49023438Z"/>
<path id="font_2_1" d="M.1749878 .2822113C.1749878 .56832888 .2619934 .65437319 .32499696 .66737368V.6923828C.1499939 .685379 .10499573 .46829225 .10499573 .2822113 .10499573 .09614563 .1499939-.12094116 .32499696-.12792969V-.10293579C.2669983-.090927127 .1749878-.0059051516 .1749878 .2822113Z"/>
<path id="font_1_3" d="M.070999149 .45393373 .07398987 .42893983 .14199829 .43093873C.1639862 .43193055 .16899109 .41493226 .1769867 .36291505 .18798828 .28489686 .20999146 .09286499 .20999146 .0128479 .20999146-.017166138 .20799256-.058166505 .18598938-.11117554 .16799927-.15318299 .14199829-.18218994 .12199402-.18218994 .10699463-.18218994 .09599304-.17118836 .08099365-.15118408 .068984989-.13517761 .06098938-.127182 .04598999-.127182 .019989014-.12818909-.005004883-.15818787-.005004883-.18719483-.005004883-.21418762 .023986817-.2421875 .067993167-.2421875 .15299988-.2421875 .18998719-.17919922 .27799989-.027160645 .2979889 .0068511965 .35798646 .11286926 .41999818 .21488953 .47698976 .30891419 .5399933 .40592958 .5399933 .4459381 .5399933 .48094178 .5289917 .5019531 .5219879 .5019531 .5029907 .5019531 .46899415 .49394227 .44400025 .47694398 .44499208 .4419403 .44299317 .3809204 .43099977 .33891297 .4149933 .28289796 .35598756 .17488098 .2899933 .06085205H.2869873C.27999879 .21388245 .26098634 .42492677 .24699402 .49795533L.23899842 .5019531 .070999149 .45393373Z"/>
<path id="font_2_2" d="M.1749878 .2822113C.1749878-.0059051516 .08299255-.090927127 .024993897-.10293579V-.12792969C.19999695-.12094116 .24499512 .09614563 .24499512 .2822113 .24499512 .46829225 .19999695 .685379 .024993897 .6923828V.66737368C.08799744 .65437319 .1749878 .56832888 .1749878 .2822113Z"/>
<path id="font_2_12" d="M.036987306 .47694398V.45195008L.07499695 .4469452C.100997928 .4429474 .10699463 .43795777 .10699463 .40194703V.08699036C.10699463 .035995485 .10398865 .033996583 .03199768 .0289917V0H.27598573V.0289917C.20498657 .033996583 .20098877 .035995485 .20098877 .08699036V.49609376L.19400025 .5020752 .036987306 .47694398M.15299988 .71484377C.116989139 .71484377 .09199524 .6888428 .09199524 .65283206 .09199524 .61782839 .116989139 .5928345 .15299988 .5928345 .18998719 .5928345 .21299744 .61782839 .21398926 .65283206 .21398926 .6888428 .18998719 .71484377 .15299988 .71484377Z"/>
<path id="font_2_14" d="M.5289917 .34295655C.5289917 .4439392 .47399903 .5019531 .38198854 .5019531 .30799867 .5019531 .2619934 .46594239 .19999695 .4259491L.18598938 .5019531 .036987306 .47694398V.45195008L.07499695 .4469452C.100997928 .4429474 .10699463 .4379425 .10699463 .40194703V.08699036C.10699463 .035995485 .10398865 .033996583 .03199768 .0289917V0H.27598573V.0289917C.20498657 .033996583 .20098877 .035995485 .20098877 .08699036V.32095338C.20098877 .34596253 .20298767 .35995484 .21099854 .37594605 .23199463 .4149475 .2769928 .44795228 .32998658 .44795228 .397995 .44795228 .43499757 .40994264 .43499757 .32295228V.08699036C.43499757 .035995485 .43199159 .033996583 .3600006 .0289917V0H.60398867V.0289917C.5329895 .033996583 .5289917 .035995485 .5289917 .08699036V.34295655Z"/>
<path id="font_2_8" d="M.2999878 .040267946C.18099976 .040267946 .15299988 .16418457 .15299988 .25810243 .15299988 .40699769 .21199036 .46694947 .2809906 .46694947 .32699586 .46694947 .35598756 .43397523 .37599183 .38000489 .38198854 .36402894 .3880005 .35403443 .40699769 .35403443 .4269867 .35403443 .46598817 .36701966 .46598817 .40499879 .46598817 .45095826 .3999939 .5019531 .2919922 .5019531 .10998535 .5019531 .04899597 .37301637 .04899597 .2401123 .04899597 .07324219 .1309967-.01171875 .2809906-.01171875 .35099793-.01171875 .44499208 .025268555 .47299195 .13220215L.44400025 .14619446C.41299439 .07624817 .37298585 .040267946 .2999878 .040267946Z"/>
<path id="font_2_17" d="M.18899536 .5019531 .036987306 .47694398V.45195008L.07499695 .4469452C.100997928 .4429474 .10699463 .4379425 .10699463 .40194703V.08699036C.10699463 .035995485 .101989749 .033996583 .03199768 .0289917V0H.29599V.0289917C.20698548 .033996583 .20098877 .035995485 .20098877 .08699036V.32095338C.20098877 .39794923 .23498535 .4239502 .2579956 .4239502 .27398683 .4239502 .29100038 .4179535 .31999208 .40194703 .32699586 .39794923 .33499146 .39694215 .33999635 .39694215 .3639984 .39694215 .38598634 .4219513 .38598634 .4529419 .38598634 .47494508 .37199403 .5019531 .33299256 .5019531 .29699708 .5019531 .2669983 .47994996 .20098877 .4219513L.18899536 .5019531Z"/>
<path id="font_2_10" d="M.44099427 .2627716C.46199037 .2627716 .48098756 .2677765 .48098756 .30078126 .48098756 .35983277 .46199037 .5019531 .2789917 .5019531 .12298584 .5019531 .04899597 .39086915 .04899597 .24082947 .04899597 .08317566 .116989139-.01373291 .27999879-.01171875 .3909912-.010726929 .44799806 .050247194 .47499085 .1290741L.44499208 .14503479C.4169922 .08717346 .3789978 .039276124 .2999878 .039276124 .17599488 .039276124 .15098572 .15901184 .15299988 .2627716H.44099427M.1539917 .30078126C.1539917 .34181214 .16899109 .46694947 .272995 .46694947 .3659973 .46694947 .3769989 .37184144 .3769989 .33280946 .3769989 .31378175 .37098695 .30078126 .34298707 .30078126H.1539917Z"/>
<path id="font_2_7" d="M.34298707 .14318848C.34298707 .06225586 .2809906 .041275026 .24198914 .041275026 .17999268 .041275026 .1499939 .085235599 .1499939 .14419556 .1499939 .19116211 .17199707 .21513367 .22799683 .23612976 .2679901 .2511139 .32099916 .27009584 .34298707 .28408814V.14318848M.43299867 .36901856C.43299867 .42697145 .41999818 .5019531 .2689972 .5019531 .1559906 .5019531 .066986087 .44296266 .066986087 .3880005 .066986087 .35603334 .10398865 .3410492 .12298584 .3410492 .14399719 .3410492 .1499939 .35203553 .15499878 .36901856 .1769867 .44296266 .21798706 .46694947 .2579956 .46694947 .29699708 .46694947 .34298707 .44696046 .34298707 .36701966V.32505799C.31799317 .29907228 .22099304 .27409364 .14199829 .24911499 .069992069 .22712708 .04899597 .1771698 .04899597 .13020325 .04899597 .055267335 .09899902-.01171875 .19299317-.01171875 .25498963-.009719849 .30999757 .027267456 .34199525 .04826355 .35598756 .011276245 .37199403-.01171875 .40699769-.01171875 .44400025-.01171875 .4869995-.0007324219 .5249939 .01828003L.5189972 .042266847C.5049896 .039276124 .48298646 .03727722 .46798707 .041275026 .44999696 .045272829 .43299867 .06425476 .43299867 .12721253V.36901856Z"/>
<path id="font_2_18" d="M.36698915 .35102845V.46794129C.33399964 .49194337 .2829895 .5019531 .23799134 .5019531 .12998963 .5019531 .056991579 .45095826 .055999757 .35603334 .056991579 .27308656 .12399292 .2361145 .20698548 .21113587 .2519989 .19714356 .31498719 .17416382 .31498719 .10621643 .31498719 .055252077 .2749939 .023269654 .22200012 .023269654 .14099121 .023269654 .09599304 .082229617 .07598877 .16716004H.04699707L.056991579 .03627014C.09298706 .004272461 .1539917-.01171875 .21299744-.01171875 .33198548-.01171875 .3999939 .051254274 .3999939 .13618469 .3999939 .2241211 .34599305 .26409913 .24299622 .29606629 .20199585 .30906678 .13598633 .3300476 .13598633 .3860016 .13699341 .43795777 .17599488 .46694947 .22599793 .46694947 .29699708 .46694947 .33099366 .4119873 .33799745 .35102845H.36698915Z"/>
<path id="font_2_11" d="M.2599945 .46694947C.30899049 .46694947 .3600006 .43093873 .3600006 .33392335 .3600006 .24989319 .31599427 .20588684 .2579956 .20588684 .20199585 .20588684 .15499878 .24989319 .15499878 .33392335 .15499878 .43293763 .20698548 .46694947 .2599945 .46694947M.2809906-.2071991C.19599915-.2071991 .13699341-.16319275 .13699341-.09118652 .13699341-.057174684 .14698792-.032180787 .16799927-.016174317 .18998719 .0008239746 .22299195 .0068359377 .2709961 .0068359377 .35899354 .0068359377 .42399598-.014175415 .42399598-.08918762 .42399598-.16918946 .35198976-.2071991 .2809906-.2071991M.3889923 .47094728C.36099244 .48994447 .30599977 .5019531 .2599945 .5019531 .10699463 .5019531 .052993776 .40792848 .052993776 .33392335 .052993776 .23989868 .114990238 .19688416 .16099549 .18489075V.18289185C.10699463 .1618805 .068984989 .13285828 .068984989 .09384155 .068984989 .05882263 .10899353 .020828248 .15699768 .015823365V.013824463C.11399841-.00016784668 .041992189-.024169922 .041992189-.09617615 .041992189-.19718933 .14199829-.2421875 .2579956-.2421875 .31799317-.2421875 .3809967-.23019409 .42900086-.20118714 .47499085-.17318726 .5079956-.12619019 .5079956-.06417847 .5079956 .043823244 .42199708 .081832889 .31498719 .081832889H.23498535C.16299439 .081832889 .1519928 .10585022 .1519928 .12486267 .1519928 .15388489 .18998719 .16989136 .20298767 .17388916 .22200012 .17189026 .24299622 .17089844 .2539978 .17089844 .34899903 .17089844 .45599366 .21289063 .45599366 .33392335 .45599366 .3759308 .44299317 .41093446 .42599488 .42793275L.5049896 .4399414 .5249939 .50294497 .5169983 .51194766 .3889923 .47094728Z"/>
<path id="font_2_19" d="M.32598878 .45022584V.49023438H.19699097V.6162262H.16799927L.10699463 .49023438H.0309906V.45022584H.102996829V.102264408C.102996829 .0002746582 .1789856-.01171875 .21398926-.01171875 .2649994-.01171875 .31298829 .014266968 .34199525 .03227234L.33399964 .053268434C.30999757 .043273927 .28799439 .040267946 .2630005 .040267946 .22898865 .040267946 .19699097 .06427002 .19699097 .14025879V.45022584H.32598878Z"/>
<path id="font_2_20" d="M.33898927 .49023438V.46122743L.3880005 .45622254C.4039917 .45422364 .40699769 .44322206 .40299989 .42921449 .394989 .39718629 .37599183 .3391571 .35299684 .27511598L.28599549 .08999634H.28399659L.22299195 .25810243C.20298767 .31513978 .18299866 .37316896 .1639862 .42721559 .15699768 .44622804 .16099549 .45422364 .17999268 .45622254L.22499085 .46122743V.49023438H.0009918213V.46122743C.04798889 .4572296 .056991579 .4532318 .07199097 .41619874 .09899902 .3501587 .12199402 .28511048 .14698792 .21607971L.22399903 0H.29599L.3849945 .24209595C.4139862 .32014466 .44299317 .3861847 .45700074 .41819764 .47200013 .4532318 .48298646 .45922853 .5289917 .46122743V.49023438H.33898927Z"/>
<path id="font_2_13" d="M.18899536 .7361908 .18199158 .7421875 .024993897 .71717837V.6921692L.06298828 .6881714C.08898926 .6851654 .09498596 .6801758 .09498596 .6421509V.087005618C.09498596 .035995485 .09199524 .033996583 .019989014 .0289917V0H.2639923V.0289917C.19299317 .033996583 .18899536 .035995485 .18899536 .087005618V.7361908Z"/>
<path id="font_2_15" d="M.28799439 .5019531C.12799073 .5019531 .04899597 .40698243 .04899597 .24510193 .04899597 .083236698 .12799073-.01171875 .28799439-.01171875 .44999696-.01171875 .5279999 .083236698 .5279999 .24510193 .5279999 .40698243 .44999696 .5019531 .28799439 .5019531M.15299988 .24510193C.15299988 .38301087 .19699097 .46694947 .28799439 .46694947 .3809967 .46694947 .42399598 .38301087 .42399598 .24510193 .42399598 .10720825 .3809967 .023269654 .28799439 .023269654 .19699097 .023269654 .15299988 .10720825 .15299988 .24510193Z"/>
<path id="font_2_16" d="M.19400025 .32104493C.19400025 .34602357 .19799805 .36001588 .20698548 .37800599 .22999573 .42396546 .272995 .44795228 .32598878 .44795228 .3659973 .44795228 .45498658 .42196656 .45498658 .25009156 .45498658 .10321045 .40899659 .023269654 .30899049 .023269654 .25698854 .023269654 .21699524 .050247194 .20098877 .096221927 .19499207 .11419678 .19400025 .13418579 .19400025 .15716553V.32104493M.02999878 .47694398V.45195008L.067993167 .4469452C.09399414 .4429474 .099990848 .43795777 .099990848 .40197755V-.14324951C.099990848-.19444275 .09498596-.19645691 .024993897-.20147705V-.23046875H.28399659V-.20147705C.19999695-.19645691 .19400025-.19444275 .19400025-.14324951V.011276245C.21499634-.0007324219 .2619934-.01171875 .30799867-.01171875 .44299317-.01171875 .5589905 .050247194 .5589905 .25608827 .5589905 .32704164 .54599 .5019531 .3639984 .5019531 .29100038 .5019531 .23298645 .4529419 .19400025 .42796327L.18099976 .5019531 .02999878 .47694398Z"/>
<path id="font_2_9" d="M.58299258 0V.0289917C.5119934 .033996583 .5079956 .035995485 .5079956 .08699036V.73617556L.5009918 .7421875 .34399415 .7171478V.6921234L.38198854 .6881256C.4079895 .6851196 .4139862 .68011477 .4139862 .6420746V.47795106C.38598634 .49295045 .34899903 .5019531 .30299378 .5019531 .22099304 .5019531 .1599884 .47595216 .117996219 .43295289 .07499695 .3879547 .04899597 .32196046 .04899597 .2349701 .04899597 .0872345 .12599182-.01171875 .2579956-.01171875 .31199647-.01171875 .35899354 .012268066 .41299439 .056259157V.0069885256L.42099 0H.58299258M.4139862 .16998291C.4139862 .14819336 .41299439 .13121033 .40699769 .114212039 .3869934 .06225586 .34298707 .042266847 .29100038 .042266847 .19898987 .042266847 .15299988 .13220215 .15299988 .24711609 .15299988 .37701417 .19999695 .46694947 .3019867 .46694947 .34899903 .46694947 .3869934 .44496156 .40499879 .4039917 .41299439 .38700868 .4139862 .37301637 .4139862 .34603883V.16998291Z"/>
<path id="font_1_2" d="M.42799378 .45222474 .43899537 .49023438H.31199647L.34599305 .6092224 .33399964 .6162262 .23699951 .53923037 .22399903 .49023438H.14299011L.13198853 .45222474H.21499634L.125 .08627319C.10998535 .029266358 .12199402-.01171875 .17199707-.01171875 .2519989-.01171875 .31599427 .054275514 .35598756 .1292572L.33399964 .1462555C.31098939 .10726929 .2599945 .040267946 .22898865 .040267946 .20799256 .040267946 .20799256 .0632782 .21398926 .088272098L.30299378 .45222474H.42799378Z"/>
<path id="font_2_4" d="M.2649994 .64468386C.3600006 .64468386 .3869934 .49682618 .3869934 .33398438 .3869934 .17112732 .3600006 .023269654 .2649994 .023269654 .16999817 .023269654 .14299011 .17112732 .14299011 .33398438 .14299011 .49682618 .16999817 .64468386 .2649994 .64468386M.2649994 .6796875C.099990848 .6796875 .040985109 .53378298 .040985109 .33398438 .040985109 .13417053 .099990848-.01171875 .2649994-.01171875 .42999269-.01171875 .4889984 .13417053 .4889984 .33398438 .4889984 .53378298 .42999269 .6796875 .2649994 .6796875Z"/>
<path id="font_2_5" d="M.43699647 0V.0289917L.35299684 .035995485C.33198548 .037994386 .31999208 .04598999 .31999208 .08496094V.67367556L.31498719 .6796875 .10899353 .6446991V.6197052L.20199585 .6087036C.21899414 .6067047 .22599793 .5987091 .22599793 .56973269V.08496094C.22599793 .065979007 .22299195 .053985597 .21699524 .04698181 .21199036 .039993287 .20399475 .036987306 .19299317 .035995485L.10899353 .0289917V0H.43699647Z"/>
<path id="font_2_6" d="M.4850006 .13195801 .45700074 .13696289C.43598939 .08299255 .41600038 .07598877 .37599183 .07598877H.11999512C.13598633 .1279602 .19499207 .19892884 .28799439 .2658844 .38398744 .33584596 .45799256 .38082887 .45799256 .49276734 .45799256 .63168337 .3659973 .6796875 .26098634 .6796875 .12399292 .6796875 .052993776 .5967102 .052993776 .54473879 .052993776 .51075747 .09098816 .49476625 .10798645 .49476625 .12599182 .49476625 .1329956 .50476077 .13699341 .5217438 .15299988 .5897064 .19198609 .64468386 .2539978 .64468386 .33099366 .64468386 .35299684 .5797119 .35299684 .50675967 .35299684 .3998108 .29899598 .33984376 .21199036 .26289369 .08898926 .15594483 .04598999 .08798218 .026992798 .009994507L.036987306 0H.45098878L.4850006 .13195801Z"/>
<path id="font_2_3" d="M.07398987 .2861328V.21612549H.31900025V.2861328H.07398987Z"/>
</defs>
<path transform="matrix(1.00005,0,0,-1.00003,53.075998,55.38436)" stroke-width=".3985" stroke-linecap="butt" stroke-miterlimit="10" stroke-linejoin="miter" fill="none" stroke="#000000" d="M-49.88289-29.92914 56.34346 33.80542"/>
<path transform="matrix(.85751286,-.51449546,-.5145057,-.8574957,109.593128,21.475415)" stroke-width=".3985" stroke-linecap="round" stroke-linejoin="round" fill="none" stroke="#000000" d="M-2.07224 2.39104C-1.69365 .95639-.84999 .27895 0 0-.84999-.27895-1.69365-.95639-2.07224-2.39104"/>
<path transform="matrix(1.00005,0,0,-1.00003,53.075998,55.38436)" stroke-width=".3985" stroke-linecap="butt" stroke-miterlimit="10" stroke-linejoin="miter" fill="none" stroke="#000000" d="M0-22.67406V49.48438"/>
<path transform="matrix(0,-1.00003,-1.00005,-0,53.075998,5.6992495)" stroke-width=".3985" stroke-linecap="round" stroke-linejoin="round" fill="none" stroke="#000000" d="M-2.07224 2.39104C-1.69365 .95639-.84999 .27895 0 0-.84999-.27895-1.69365-.95639-2.07224-2.39104"/>
<use data-text="f" xlink:href="#font_1_1" transform="matrix(5.499675,0,0,-5.499565,39.37731,9.713989)"/>
<use data-text="(" xlink:href="#font_2_1" transform="matrix(5.499675,0,0,-5.499565,42.450464,9.713989)"/>
<use data-text="y" xlink:href="#font_1_3" transform="matrix(5.499675,0,0,-5.499565,44.673578,9.713989)"/>
<use data-text=")" xlink:href="#font_2_2" transform="matrix(5.499675,0,0,-5.499565,47.752717,9.713989)"/>
<path transform="matrix(1.00005,0,0,-1.00003,53.075998,55.38436)" stroke-width=".3985" stroke-linecap="butt" stroke-dasharray="2.98883,2.98883" stroke-miterlimit="10" stroke-linejoin="miter" fill="none" stroke="#000000" d="M-22.67406 9.06989V-13.60417"/>
<use data-text="i" xlink:href="#font_2_12" transform="matrix(5.499675,-3.2997392,0,-5.499565,15.085098,50.75043)"/>
<use data-text="n" xlink:href="#font_2_14" transform="matrix(5.499675,-3.2997392,0,-5.499565,16.685509,49.790205)"/>
<use data-text="c" xlink:href="#font_2_8" transform="matrix(5.499675,-3.2997392,0,-5.499565,20.089806,47.74766)"/>
<use data-text="r" xlink:href="#font_2_17" transform="matrix(5.499675,-3.2997392,0,-5.499565,22.817643,46.110998)"/>
<use data-text="e" xlink:href="#font_2_10" transform="matrix(5.499675,-3.2997392,0,-5.499565,24.852509,44.890096)"/>
<use data-text="a" xlink:href="#font_2_7" transform="matrix(5.499675,-3.2997392,0,-5.499565,27.679337,43.194036)"/>
<use data-text="s" xlink:href="#font_2_18" transform="matrix(5.499675,-3.2997392,0,-5.499565,30.55568,41.468267)"/>
<use data-text="i" xlink:href="#font_2_12" transform="matrix(5.499675,-3.2997392,0,-5.499565,32.948045,40.03288)"/>
<use data-text="n" xlink:href="#font_2_14" transform="matrix(5.499675,-3.2997392,0,-5.499565,34.548448,39.07265)"/>
<use data-text="g" xlink:href="#font_2_11" transform="matrix(5.499675,-3.2997392,0,-5.499565,37.952745,37.030118)"/>
<use data-text="f" xlink:href="#font_1_1" transform="matrix(5.499675,-3.2997392,0,-5.499565,42.64348,34.215726)"/>
<path transform="matrix(1.00005,0,0,-1.00003,53.075998,55.38436)" stroke-width=".3985" stroke-linecap="butt" stroke-miterlimit="10" stroke-linejoin="miter" fill="none" stroke="#000000" d="M-38.54584-15.191"/>
<use data-text="n" xlink:href="#font_2_14" transform="matrix(5.499675,-3.2997392,0,-5.499565,4.0155489,72.130069)"/>
<use data-text="e" xlink:href="#font_2_10" transform="matrix(5.499675,-3.2997392,0,-5.499565,7.4198458,70.087528)"/>
<use data-text="g" xlink:href="#font_2_11" transform="matrix(5.499675,-3.2997392,0,-5.499565,10.246681,68.391468)"/>
<use data-text="a" xlink:href="#font_2_7" transform="matrix(5.499675,-3.2997392,0,-5.499565,13.106522,66.6756)"/>
<use data-text="t" xlink:href="#font_2_19" transform="matrix(5.499675,-3.2997392,0,-5.499565,15.982849,64.94983)"/>
<use data-text="i" xlink:href="#font_2_12" transform="matrix(5.499675,-3.2997392,0,-5.499565,17.869248,63.818014)"/>
<use data-text="v" xlink:href="#font_2_20" transform="matrix(5.499675,-3.2997392,0,-5.499565,19.469666,62.857786)"/>
<use data-text="e" xlink:href="#font_2_10" transform="matrix(5.499675,-3.2997392,0,-5.499565,22.214005,61.211217)"/>
<path transform="matrix(1.00005,0,0,-1.00003,53.075998,55.38436)" stroke-width=".3985" stroke-linecap="butt" stroke-miterlimit="10" stroke-linejoin="miter" fill="none" stroke="#000000" d="M-38.54584-20.85951"/>
<use data-text="s" xlink:href="#font_2_18" transform="matrix(5.499675,-3.2997392,0,-5.499565,6.6906816,76.31619)"/>
<use data-text="l" xlink:href="#font_2_13" transform="matrix(5.499675,-3.2997392,0,-5.499565,9.088539,74.8775)"/>
<use data-text="o" xlink:href="#font_2_15" transform="matrix(5.499675,-3.2997392,0,-5.499565,10.622948,73.95688)"/>
<use data-text="p" xlink:href="#font_2_16" transform="matrix(5.499675,-3.2997392,0,-5.499565,13.796265,72.05293)"/>
<use data-text="e" xlink:href="#font_2_10" transform="matrix(5.499675,-3.2997392,0,-5.499565,17.140053,70.04669)"/>
<use data-text="s" xlink:href="#font_2_18" transform="matrix(5.499675,-3.2997392,0,-5.499565,19.966897,68.35063)"/>
<path transform="matrix(1.00005,0,0,-1.00003,53.075998,55.38436)" stroke-width=".3985" stroke-linecap="butt" stroke-miterlimit="10" stroke-linejoin="miter" fill="none" stroke="#000000" d="M0 7.93605"/>
<path transform="matrix(1.00005,0,0,-1.00003,53.075998,55.38436)" d="M10.78464 21.72154-10.78464 8.77983V1.66446L10.78464 14.60616ZM-10.78464 1.66446" fill="#ffffff"/>
<use data-text="p" xlink:href="#font_2_16" transform="matrix(5.499675,-3.2997392,0,-5.499565,43.287508,50.89443)"/>
<use data-text="o" xlink:href="#font_2_15" transform="matrix(5.499675,-3.2997392,0,-5.499565,46.63131,48.88818)"/>
<use data-text="s" xlink:href="#font_2_18" transform="matrix(5.499675,-3.2997392,0,-5.499565,49.804628,46.984235)"/>
<use data-text="i" xlink:href="#font_2_12" transform="matrix(5.499675,-3.2997392,0,-5.499565,52.202486,45.545545)"/>
<use data-text="t" xlink:href="#font_2_19" transform="matrix(5.499675,-3.2997392,0,-5.499565,53.802888,44.585317)"/>
<use data-text="i" xlink:href="#font_2_12" transform="matrix(5.499675,-3.2997392,0,-5.499565,55.694795,43.450208)"/>
<use data-text="v" xlink:href="#font_2_20" transform="matrix(5.499675,-3.2997392,0,-5.499565,57.295198,42.48998)"/>
<use data-text="e" xlink:href="#font_2_10" transform="matrix(5.499675,-3.2997392,0,-5.499565,60.039537,40.84341)"/>
<path transform="matrix(1.00005,0,0,-1.00003,53.075998,55.38436)" stroke-width=".3985" stroke-linecap="butt" stroke-miterlimit="10" stroke-linejoin="miter" fill="none" stroke="#000000" d="M0 2.26753"/>
<path transform="matrix(1.00005,0,0,-1.00003,53.075998,55.38436)" d="M8.83295 15.09123-8.83295 4.49158V-2.83302L8.83295 7.76662ZM-8.83295-2.83302" fill="#ffffff"/>
<use data-text="s" xlink:href="#font_2_18" transform="matrix(5.499675,-3.2997392,0,-5.499565,45.2386,55.392568)"/>
<use data-text="l" xlink:href="#font_2_13" transform="matrix(5.499675,-3.2997392,0,-5.499565,47.63646,53.953878)"/>
<use data-text="o" xlink:href="#font_2_15" transform="matrix(5.499675,-3.2997392,0,-5.499565,49.170869,53.033254)"/>
<use data-text="p" xlink:href="#font_2_16" transform="matrix(5.499675,-3.2997392,0,-5.499565,52.344186,51.1293)"/>
<use data-text="e" xlink:href="#font_2_10" transform="matrix(5.499675,-3.2997392,0,-5.499565,55.687974,49.123067)"/>
<use data-text="s" xlink:href="#font_2_18" transform="matrix(5.499675,-3.2997392,0,-5.499565,58.514818,47.427)"/>
<path transform="matrix(1.00005,0,0,-1.00003,53.075998,55.38436)" stroke-width=".3985" stroke-linecap="butt" stroke-dasharray="2.98883,2.98883" stroke-miterlimit="10" stroke-linejoin="miter" fill="none" stroke="#000000" d="M22.67406 36.27824V13.60417"/>
<use data-text="d" xlink:href="#font_2_9" transform="matrix(5.499675,-3.2997392,0,-5.499565,59.879339,23.874619)"/>
<use data-text="e" xlink:href="#font_2_10" transform="matrix(5.499675,-3.2997392,0,-5.499565,63.168149,21.901368)"/>
<use data-text="c" xlink:href="#font_2_8" transform="matrix(5.499675,-3.2997392,0,-5.499565,65.99498,20.205307)"/>
<use data-text="r" xlink:href="#font_2_17" transform="matrix(5.499675,-3.2997392,0,-5.499565,68.72281,18.568634)"/>
<use data-text="e" xlink:href="#font_2_10" transform="matrix(5.499675,-3.2997392,0,-5.499565,70.75769,17.347733)"/>
<use data-text="a" xlink:href="#font_2_7" transform="matrix(5.499675,-3.2997392,0,-5.499565,73.58452,15.651672)"/>
<use data-text="s" xlink:href="#font_2_18" transform="matrix(5.499675,-3.2997392,0,-5.499565,76.460849,13.925903)"/>
<use data-text="i" xlink:href="#font_2_12" transform="matrix(5.499675,-3.2997392,0,-5.499565,78.8587,12.487221)"/>
<use data-text="n" xlink:href="#font_2_14" transform="matrix(5.499675,-3.2997392,0,-5.499565,80.45911,11.526993)"/>
<use data-text="g" xlink:href="#font_2_11" transform="matrix(5.499675,-3.2997392,0,-5.499565,83.857929,9.487747)"/>
<use data-text="f" xlink:href="#font_1_1" transform="matrix(5.499675,-3.2997392,0,-5.499565,88.549777,6.6726915)"/>
<path transform="matrix(1.00005,0,0,-1.00003,53.075998,55.38436)" stroke-width=".3985" stroke-linecap="butt" stroke-miterlimit="10" stroke-linejoin="miter" fill="none" stroke="#000000" d="M38.54584 31.06311"/>
<use data-text="n" xlink:href="#font_2_14" transform="matrix(5.499675,-3.2997392,0,-5.499565,81.1114,25.87468)"/>
<use data-text="e" xlink:href="#font_2_10" transform="matrix(5.499675,-3.2997392,0,-5.499565,84.51569,23.832139)"/>
<use data-text="g" xlink:href="#font_2_11" transform="matrix(5.499675,-3.2997392,0,-5.499565,87.34253,22.13607)"/>
<use data-text="a" xlink:href="#font_2_7" transform="matrix(5.499675,-3.2997392,0,-5.499565,90.20237,20.420205)"/>
<use data-text="t" xlink:href="#font_2_19" transform="matrix(5.499675,-3.2997392,0,-5.499565,93.0787,18.694436)"/>
<use data-text="i" xlink:href="#font_2_12" transform="matrix(5.499675,-3.2997392,0,-5.499565,94.965099,17.562623)"/>
<use data-text="v" xlink:href="#font_2_20" transform="matrix(5.499675,-3.2997392,0,-5.499565,96.56551,16.602395)"/>
<use data-text="e" xlink:href="#font_2_10" transform="matrix(5.499675,-3.2997392,0,-5.499565,99.30985,14.955826)"/>
<path transform="matrix(1.00005,0,0,-1.00003,53.075998,55.38436)" stroke-width=".3985" stroke-linecap="butt" stroke-miterlimit="10" stroke-linejoin="miter" fill="none" stroke="#000000" d="M38.54584 25.39459"/>
<use data-text="s" xlink:href="#font_2_18" transform="matrix(5.499675,-3.2997392,0,-5.499565,83.78653,30.060807)"/>
<use data-text="l" xlink:href="#font_2_13" transform="matrix(5.499675,-3.2997392,0,-5.499565,86.18439,28.622117)"/>
<use data-text="o" xlink:href="#font_2_15" transform="matrix(5.499675,-3.2997392,0,-5.499565,87.718799,27.701493)"/>
<use data-text="p" xlink:href="#font_2_16" transform="matrix(5.499675,-3.2997392,0,-5.499565,90.89211,25.797539)"/>
<use data-text="e" xlink:href="#font_2_10" transform="matrix(5.499675,-3.2997392,0,-5.499565,94.2359,23.791306)"/>
<use data-text="s" xlink:href="#font_2_18" transform="matrix(5.499675,-3.2997392,0,-5.499565,97.062747,22.095238)"/>
<path transform="matrix(1.00005,0,0,-1.00003,53.075998,55.38436)" stroke-width=".79701" stroke-linecap="butt" stroke-miterlimit="10" stroke-linejoin="miter" fill="none" stroke="#ec008c" d="M-34.0111-48.74883-33.32433-46.29723-32.63756-43.88718-31.95078-41.51894-31.26402-39.1919-30.57726-36.90706-29.89049-34.66339-29.2037-32.46158-28.51694-30.30095-27.83018-28.18219-27.14342-26.10529-26.45663-24.06956-25.76987-22.0757-25.0831-20.12334-24.39635-18.21286-23.70958-16.34354-23.0228-14.51607-22.33603-12.73053-21.64925-10.9861-20.96251-9.28355-20.27573-7.62251-19.58896-6.00299-18.90219-4.42499-18.21542-2.88885-17.52866-1.39388-16.84189 .0592-16.15512 1.47044-15.46834 2.84052-14.78159 4.16872-14.09482 5.45541-13.40805 6.70058-12.72127 7.90388-12.03452 9.06566-11.34773 10.18596-10.66096 11.26471-9.97421 12.30194-9.28745 13.2973-8.60066 14.25117-7.9139 15.1635-7.22713 16.034-6.54036 16.86328-5.85359 17.65074-5.16682 18.39629-4.48006 19.10072-3.79327 19.76324-3.10654 20.38426-2.41975 20.96376-1.73299 21.50177-1.04622 21.9979-.35945 22.45251 .32727 22.86557 1.01404 23.2368 1.7008 23.56685 2.38759 23.85504 3.07436 24.10173 3.76111 24.30655 4.44788 24.47017 5.13466 24.59196 5.82143 24.67223 6.5082 24.71062 7.19495 24.70747 7.88171 24.66318 8.5685 24.57669 9.25526 24.44904 9.94205 24.27946 10.62878 24.06877 11.31557 23.81586 12.00233 23.52176 12.6891 23.1858 13.37587 22.80867 14.06264 22.38936 14.7494 21.92883 15.43617 21.42682 16.12294 20.88293 16.80971 20.29752 17.49648 19.67026 18.18324 19.00183 18.87003 18.29152 19.55678 17.5397 20.24356 16.746 20.93031 15.91116 21.61708 15.03444 22.30385 14.1162 22.99063 13.15683 23.6774 12.15521 24.36415 11.11208 25.05093 10.02744 25.7377 8.90125 26.42447 7.73355 27.11124 6.52403 27.798 5.27295 28.48476 3.98001 29.17154 2.6459 29.8583 1.26994 30.54507-.1475 31.23183-1.60652 31.91861-3.10738 32.60538-4.64941 33.29214-6.2333 33.97893-7.85909"/>
<path transform="matrix(1.00005,0,0,-1.00003,53.075998,55.38436)" stroke-width=".3985" stroke-linecap="butt" stroke-miterlimit="10" stroke-linejoin="miter" fill="none" stroke="#cbcbcb" d="M-45.34814-31.74396 54.41762 28.11624"/>
<path transform="matrix(1.00005,0,0,-1.00003,53.075998,55.38436)" stroke-width=".3985" stroke-linecap="butt" stroke-miterlimit="10" stroke-linejoin="miter" fill="none" stroke="#cbcbcb" d="M-40.8134-33.55783 58.95236 26.30238"/>
<path transform="matrix(1.00005,0,0,-1.00003,53.075998,55.38436)" stroke-width=".3985" stroke-linecap="butt" stroke-miterlimit="10" stroke-linejoin="miter" fill="none" stroke="#cbcbcb" d="M-36.27866-35.37169 63.4871 24.48853"/>
<path transform="matrix(1.00005,0,0,-1.00003,53.075998,55.38436)" stroke-width=".3985" stroke-linecap="butt" stroke-miterlimit="10" stroke-linejoin="miter" fill="none" stroke="#cbcbcb" d="M-31.74391-37.18555 68.02185 22.67465"/>
<path transform="matrix(1.00005,0,0,-1.00003,53.075998,55.38436)" stroke-width=".3985" stroke-linecap="butt" stroke-miterlimit="10" stroke-linejoin="miter" fill="none" stroke="#cbcbcb" d="M-27.20917-38.9994 72.55661 20.8608"/>
<path transform="matrix(1.00005,0,0,-1.00003,53.075998,55.38436)" stroke-width=".3985" stroke-linecap="butt" stroke-miterlimit="10" stroke-linejoin="miter" fill="none" stroke="#cbcbcb" d="M-22.67442-40.81328 77.09134 19.04694"/>
<path transform="matrix(1.00005,0,0,-1.00003,53.075998,55.38436)" stroke-width=".3985" stroke-linecap="butt" stroke-miterlimit="10" stroke-linejoin="miter" fill="none" stroke="#cbcbcb" d="M-18.13968-42.62714 81.62608 17.23308"/>
<path transform="matrix(1.00005,0,0,-1.00003,53.075998,55.38436)" stroke-width=".3985" stroke-linecap="butt" stroke-miterlimit="10" stroke-linejoin="miter" fill="none" stroke="#cbcbcb" d="M-13.60493-44.441 86.16083 15.4192"/>
<path transform="matrix(1.00005,0,0,-1.00003,53.075998,55.38436)" stroke-width=".3985" stroke-linecap="butt" stroke-miterlimit="10" stroke-linejoin="miter" fill="none" stroke="#cbcbcb" d="M-9.07019-46.25487 90.69557 13.60533"/>
<path transform="matrix(1.00005,0,0,-1.00003,53.075998,55.38436)" stroke-width=".3985" stroke-linecap="butt" stroke-miterlimit="10" stroke-linejoin="miter" fill="none" stroke="#cbcbcb" d="M-4.53545-48.06874 95.23032 11.79147"/>
<path transform="matrix(1.00005,0,0,-1.00003,53.075998,55.38436)" stroke-width=".3985" stroke-linecap="butt" stroke-miterlimit="10" stroke-linejoin="miter" fill="none" stroke="#cbcbcb" d="M-45.34813-27.20923 4.53474-47.16199"/>
<path transform="matrix(1.00005,0,0,-1.00003,53.075998,55.38436)" stroke-width=".3985" stroke-linecap="butt" stroke-miterlimit="10" stroke-linejoin="miter" fill="none" stroke="#cbcbcb" d="M-40.81339-24.48833 9.06949-44.44109"/>
<path transform="matrix(1.00005,0,0,-1.00003,53.075998,55.38436)" stroke-width=".3985" stroke-linecap="butt" stroke-miterlimit="10" stroke-linejoin="miter" fill="none" stroke="#cbcbcb" d="M-36.27863-21.76744 13.60425-41.72021"/>
<path transform="matrix(1.00005,0,0,-1.00003,53.075998,55.38436)" stroke-width=".3985" stroke-linecap="butt" stroke-miterlimit="10" stroke-linejoin="miter" fill="none" stroke="#cbcbcb" d="M-31.74388-19.04657 18.13899-38.99933"/>
<path transform="matrix(1.00005,0,0,-1.00003,53.075998,55.38436)" stroke-width=".3985" stroke-linecap="butt" stroke-miterlimit="10" stroke-linejoin="miter" fill="none" stroke="#cbcbcb" d="M-27.20915-16.32568 22.67372-36.27844"/>
<path transform="matrix(1.00005,0,0,-1.00003,53.075998,55.38436)" stroke-width=".3985" stroke-linecap="butt" stroke-miterlimit="10" stroke-linejoin="miter" fill="none" stroke="#cbcbcb" d="M-22.6744-13.60481 27.20848-33.55757"/>
<path transform="matrix(1.00005,0,0,-1.00003,53.075998,55.38436)" stroke-width=".3985" stroke-linecap="butt" stroke-miterlimit="10" stroke-linejoin="miter" fill="none" stroke="#cbcbcb" d="M-18.13966-10.88393 31.74321-30.83669"/>
<path transform="matrix(1.00005,0,0,-1.00003,53.075998,55.38436)" stroke-width=".3985" stroke-linecap="butt" stroke-miterlimit="10" stroke-linejoin="miter" fill="none" stroke="#cbcbcb" d="M-13.6049-8.16304 36.27797-28.11581"/>
<path transform="matrix(1.00005,0,0,-1.00003,53.075998,55.38436)" stroke-width=".3985" stroke-linecap="butt" stroke-miterlimit="10" stroke-linejoin="miter" fill="none" stroke="#cbcbcb" d="M-9.07016-5.44217 40.81271-25.39493"/>
<path transform="matrix(1.00005,0,0,-1.00003,53.075998,55.38436)" stroke-width=".3985" stroke-linecap="butt" stroke-miterlimit="10" stroke-linejoin="miter" fill="none" stroke="#cbcbcb" d="M-4.53543-2.72128 45.34744-22.67404"/>
<path transform="matrix(1.00005,0,0,-1.00003,53.075998,55.38436)" stroke-width=".3985" stroke-linecap="butt" stroke-miterlimit="10" stroke-linejoin="miter" fill="none" stroke="#cbcbcb" d="M-.00066-.00038 49.88222-19.95316"/>
<path transform="matrix(1.00005,0,0,-1.00003,53.075998,55.38436)" stroke-width=".3985" stroke-linecap="butt" stroke-miterlimit="10" stroke-linejoin="miter" fill="none" stroke="#cbcbcb" d="M4.53404 2.72044 54.41693-17.2323"/>
<path transform="matrix(1.00005,0,0,-1.00003,53.075998,55.38436)" stroke-width=".3985" stroke-linecap="butt" stroke-miterlimit="10" stroke-linejoin="miter" fill="none" stroke="#cbcbcb" d="M9.06877 5.44133 58.95168-14.51141"/>
<path transform="matrix(1.00005,0,0,-1.00003,53.075998,55.38436)" stroke-width=".3985" stroke-linecap="butt" stroke-miterlimit="10" stroke-linejoin="miter" fill="none" stroke="#cbcbcb" d="M13.60353 8.1622 63.48642-11.79054"/>
<path transform="matrix(1.00005,0,0,-1.00003,53.075998,55.38436)" stroke-width=".3985" stroke-linecap="butt" stroke-miterlimit="10" stroke-linejoin="miter" fill="none" stroke="#cbcbcb" d="M18.13826 10.88309 68.02115-9.06966"/>
<path transform="matrix(1.00005,0,0,-1.00003,53.075998,55.38436)" stroke-width=".3985" stroke-linecap="butt" stroke-miterlimit="10" stroke-linejoin="miter" fill="none" stroke="#cbcbcb" d="M22.67302 13.60397 72.55591-6.34879"/>
<path transform="matrix(1.00005,0,0,-1.00003,53.075998,55.38436)" stroke-width=".3985" stroke-linecap="butt" stroke-miterlimit="10" stroke-linejoin="miter" fill="none" stroke="#cbcbcb" d="M27.20776 16.32484 77.09065-3.6279"/>
<path transform="matrix(1.00005,0,0,-1.00003,53.075998,55.38436)" stroke-width=".3985" stroke-linecap="butt" stroke-miterlimit="10" stroke-linejoin="miter" fill="none" stroke="#cbcbcb" d="M31.7425 19.04573 81.62538-.90701"/>
<path transform="matrix(1.00005,0,0,-1.00003,53.075998,55.38436)" stroke-width=".3985" stroke-linecap="butt" stroke-miterlimit="10" stroke-linejoin="miter" fill="none" stroke="#cbcbcb" d="M36.27725 21.76663 86.16014 1.81386"/>
<path transform="matrix(1.00005,0,0,-1.00003,53.075998,55.38436)" stroke-width=".3985" stroke-linecap="butt" stroke-miterlimit="10" stroke-linejoin="miter" fill="none" stroke="#cbcbcb" d="M40.812 24.4875 90.69489 4.53474"/>
<path transform="matrix(1.00005,0,0,-1.00003,53.075998,55.38436)" stroke-width=".3985" stroke-linecap="butt" stroke-miterlimit="10" stroke-linejoin="miter" fill="none" stroke="#cbcbcb" d="M45.34676 27.20839 95.22964 7.25563"/>
<path transform="matrix(1.00005,0,0,-1.00003,53.075998,55.38436)" stroke-width=".3985" stroke-linecap="butt" stroke-miterlimit="10" stroke-linejoin="miter" fill="none" stroke="#000000" d="M0 0 56.31517-22.52563"/>
<path transform="matrix(.92848637,.37138114,.37138853,-.92846789,109.578998,77.98468)" stroke-width=".3985" stroke-linecap="round" stroke-linejoin="round" fill="none" stroke="#000000" d="M-2.07224 2.39104C-1.69365 .95639-.84999 .27895 0 0-.84999-.27895-1.69365-.95639-2.07224-2.39104"/>
<use data-text="t" xlink:href="#font_1_2" transform="matrix(5.499675,0,0,-5.499565,105.75763,84.847248)"/>
<path transform="matrix(1.00005,0,0,-1.00003,53.075998,55.38436)" stroke-width=".3985" stroke-linecap="butt" stroke-miterlimit="10" stroke-linejoin="miter" fill="none" stroke="#000000" d="M-49.88289-29.9301 56.34346 33.80652"/>
<path transform="matrix(.85751286,-.51451548,-.5145257,-.8574957,109.593128,21.474312)" stroke-width=".3985" stroke-linecap="round" stroke-linejoin="round" fill="none" stroke="#000000" d="M-2.07224 2.39104C-1.69365 .95639-.84999 .27895 0 0-.84999-.27895-1.69365-.95639-2.07224-2.39104"/>
<use data-text="y" xlink:href="#font_1_3" transform="matrix(5.499675,0,0,-5.499565,103.28651,24.891446)"/>
<path transform="matrix(1.00005,0,0,-1.00003,53.075998,55.38436)" stroke-width=".3985" stroke-linecap="butt" stroke-miterlimit="10" stroke-linejoin="miter" fill="none" stroke="#cbcbcb" d="M-49.88289-29.9301 49.88289 29.9301 99.76578 9.97734 0-49.88287ZM99.76578 9.97734"/>
<path transform="matrix(1.00005,0,0,-1.00003,53.075998,55.38436)" stroke-width=".3985" stroke-linecap="butt" stroke-miterlimit="10" stroke-linejoin="miter" fill="none" stroke="#000000" d="M-51.24326-30.74634-48.52248-29.11385"/>
<use data-text="0" xlink:href="#font_2_4" transform="matrix(5.499675,0,0,-5.499565,3.0924988,91.580448)"/>
<path transform="matrix(1.00005,0,0,-1.00003,53.075998,55.38436)" stroke-width=".3985" stroke-linecap="butt" stroke-miterlimit="10" stroke-linejoin="miter" fill="none" stroke="#000000" d="M-28.5692-39.8158-25.8484-38.1833"/>
<use data-text="1" xlink:href="#font_2_5" transform="matrix(5.499675,0,0,-5.499565,25.767632,100.64972)"/>
<path transform="matrix(1.00005,0,0,-1.00003,53.075998,55.38436)" stroke-width=".3985" stroke-linecap="butt" stroke-miterlimit="10" stroke-linejoin="miter" fill="none" stroke="#000000" d="M-5.89513-48.88525-3.17433-47.25276"/>
<use data-text="2" xlink:href="#font_2_6" transform="matrix(5.499675,0,0,-5.499565,48.442766,109.719989)"/>
<path transform="matrix(1.00005,0,0,-1.00003,53.075998,55.38436)" stroke-width=".3985" stroke-linecap="butt" stroke-miterlimit="10" stroke-linejoin="miter" fill="none" stroke="#000000" d="M3.17433-46.61784 5.89513-47.70615"/>
<use data-text="-" xlink:href="#font_2_3" transform="matrix(5.499675,0,0,-5.499565,60.95339,104.932849)"/>
<use data-text="2" xlink:href="#font_2_6" transform="matrix(5.499675,0,0,-5.499565,63.109258,104.932849)"/>
<path transform="matrix(1.00005,0,0,-1.00003,53.075998,55.38436)" stroke-width=".3985" stroke-linecap="butt" stroke-miterlimit="10" stroke-linejoin="miter" fill="none" stroke="#000000" d="M25.8484-33.01323 28.5692-34.10153"/>
<use data-text="-" xlink:href="#font_2_3" transform="matrix(5.499675,0,0,-5.499565,83.628528,91.328449)"/>
<use data-text="1" xlink:href="#font_2_5" transform="matrix(5.499675,0,0,-5.499565,85.78439,91.328449)"/>
<path transform="matrix(1.00005,0,0,-1.00003,53.075998,55.38436)" stroke-width=".3985" stroke-linecap="butt" stroke-miterlimit="10" stroke-linejoin="miter" fill="none" stroke="#000000" d="M71.19655-5.804 73.91733-6.89229"/>
<use data-text="1" xlink:href="#font_2_5" transform="matrix(5.499675,0,0,-5.499565,128.97879,64.11762)"/>
<path transform="matrix(1.00005,0,0,-1.00003,53.075998,55.38436)" stroke-width=".3985" stroke-linecap="butt" stroke-miterlimit="10" stroke-linejoin="miter" fill="none" stroke="#000000" d="M93.8706 7.8006 96.5914 6.71231"/>
<use data-text="2" xlink:href="#font_2_6" transform="matrix(5.499675,0,0,-5.499565,151.65392,50.513216)"/>
<path transform="matrix(1.00005,0,0,-1.00003,53.075998,55.38436)" stroke-width=".79701" stroke-linecap="butt" stroke-miterlimit="10" stroke-linejoin="miter" fill="none" stroke="#409f9f" d="M-39.59451-27.6825-42.03227-30.36366"/>
<path transform="matrix(1.00005,0,0,-1.00003,53.075998,55.38436)" stroke-width=".79701" stroke-linecap="butt" stroke-miterlimit="10" stroke-linejoin="miter" fill="none" stroke="#409f9f" d="M-35.30403-24.93239-37.25327-27.67197"/>
<path transform="matrix(1.00005,0,0,-1.00003,53.075998,55.38436)" stroke-width=".79701" stroke-linecap="butt" stroke-miterlimit="10" stroke-linejoin="miter" fill="none" stroke="#409f9f" d="M-31.16127-22.19206-32.32652-24.97054"/>
<path transform="matrix(1.00005,0,0,-1.00003,53.075998,55.38436)" stroke-width=".79701" stroke-linecap="butt" stroke-miterlimit="10" stroke-linejoin="miter" fill="none" stroke="#409f9f" d="M-27.2645-19.50388-27.1538-22.21696"/>
<path transform="matrix(1.00005,0,0,-1.00003,53.075998,55.38436)" stroke-width=".79701" stroke-linecap="butt" stroke-miterlimit="10" stroke-linejoin="miter" fill="none" stroke="#409f9f" d="M-23.66115-16.96886-21.68768-19.31023"/>
<path transform="matrix(1.00005,0,0,-1.00003,53.075998,55.38436)" stroke-width=".79701" stroke-linecap="butt" stroke-miterlimit="10" stroke-linejoin="miter" fill="none" stroke="#409f9f" d="M-20.06674-14.64784-16.21259-16.18948"/>
<path transform="matrix(1.00005,0,0,-1.00003,53.075998,55.38436)" stroke-width=".79701" stroke-linecap="butt" stroke-miterlimit="10" stroke-linejoin="miter" fill="none" stroke="#409f9f" d="M-16.06825-12.36427-11.1416-13.03128"/>
<path transform="matrix(1.00005,0,0,-1.00003,53.075998,55.38436)" stroke-width=".79701" stroke-linecap="butt" stroke-miterlimit="10" stroke-linejoin="miter" fill="none" stroke="#409f9f" d="M-11.73073-9.95096-6.40964-10.00284"/>
<path transform="matrix(1.00005,0,0,-1.00003,53.075998,55.38436)" stroke-width=".79701" stroke-linecap="butt" stroke-miterlimit="10" stroke-linejoin="miter" fill="none" stroke="#409f9f" d="M-7.24821-7.40881-1.82263-7.10323"/>
<path transform="matrix(1.00005,0,0,-1.00003,53.075998,55.38436)" stroke-width=".79701" stroke-linecap="butt" stroke-miterlimit="10" stroke-linejoin="miter" fill="none" stroke="#409f9f" d="M-2.7249-4.7799 2.7235-4.29037"/>
<path transform="matrix(1.00005,0,0,-1.00003,53.075998,55.38436)" stroke-width=".79701" stroke-linecap="butt" stroke-miterlimit="10" stroke-linejoin="miter" fill="none" stroke="#409f9f" d="M1.80916-2.08675 7.25896-1.54173"/>
<path transform="matrix(1.00005,0,0,-1.00003,53.075998,55.38436)" stroke-width=".79701" stroke-linecap="butt" stroke-miterlimit="10" stroke-linejoin="miter" fill="none" stroke="#409f9f" d="M6.34457 .66182 11.79298 1.15137"/>
<path transform="matrix(1.00005,0,0,-1.00003,53.075998,55.38436)" stroke-width=".79701" stroke-linecap="butt" stroke-miterlimit="10" stroke-linejoin="miter" fill="none" stroke="#409f9f" d="M10.89072 3.47469 16.3163 3.78027"/>
<path transform="matrix(1.00005,0,0,-1.00003,53.075998,55.38436)" stroke-width=".79701" stroke-linecap="butt" stroke-miterlimit="10" stroke-linejoin="miter" fill="none" stroke="#409f9f" d="M15.47772 6.37428 20.79881 6.32242"/>
<path transform="matrix(1.00005,0,0,-1.00003,53.075998,55.38436)" stroke-width=".79701" stroke-linecap="butt" stroke-miterlimit="10" stroke-linejoin="miter" fill="none" stroke="#409f9f" d="M20.20967 9.40274 25.13632 8.73573"/>
<path transform="matrix(1.00005,0,0,-1.00003,53.075998,55.38436)" stroke-width=".79701" stroke-linecap="butt" stroke-miterlimit="10" stroke-linejoin="miter" fill="none" stroke="#409f9f" d="M25.28067 12.56093 29.13483 11.0193"/>
<path transform="matrix(1.00005,0,0,-1.00003,53.075998,55.38436)" stroke-width=".79701" stroke-linecap="butt" stroke-miterlimit="10" stroke-linejoin="miter" fill="none" stroke="#409f9f" d="M30.75438 15.6819 32.7306 13.34009"/>
<path transform="matrix(1.00005,0,0,-1.00003,53.075998,55.38436)" stroke-width=".79701" stroke-linecap="butt" stroke-miterlimit="10" stroke-linejoin="miter" fill="none" stroke="#409f9f" d="M36.22188 18.58842 36.33258 15.87532"/>
<path transform="matrix(1.00005,0,0,-1.00003,53.075998,55.38436)" stroke-width=".79701" stroke-linecap="butt" stroke-miterlimit="10" stroke-linejoin="miter" fill="none" stroke="#409f9f" d="M41.3946 21.34201 40.22935 18.56354"/>
<path transform="matrix(1.00005,0,0,-1.00003,53.075998,55.38436)" stroke-width=".79701" stroke-linecap="butt" stroke-miterlimit="10" stroke-linejoin="miter" fill="none" stroke="#409f9f" d="M46.32135 24.04344 44.37212 21.30386"/>
<path transform="matrix(1.00005,0,0,-1.00003,53.075998,55.38436)" stroke-width=".79701" stroke-linecap="butt" stroke-miterlimit="10" stroke-linejoin="miter" fill="none" stroke="#409f9f" d="M51.10036 26.73512 48.6626 24.05394"/>
<path transform="matrix(1.00005,0,0,-1.00003,53.075998,55.38436)" stroke-width=".79701" stroke-linecap="butt" stroke-miterlimit="10" stroke-linejoin="miter" fill="none" stroke="#409f9f" d="M-35.05977-29.49635-37.49753-32.17754"/>
<path transform="matrix(1.00005,0,0,-1.00003,53.075998,55.38436)" stroke-width=".79701" stroke-linecap="butt" stroke-miterlimit="10" stroke-linejoin="miter" fill="none" stroke="#409f9f" d="M-30.76929-26.74626-32.7185-29.48584"/>
<path transform="matrix(1.00005,0,0,-1.00003,53.075998,55.38436)" stroke-width=".79701" stroke-linecap="butt" stroke-miterlimit="10" stroke-linejoin="miter" fill="none" stroke="#409f9f" d="M-26.62651-24.00594-27.79178-26.78441"/>
<path transform="matrix(1.00005,0,0,-1.00003,53.075998,55.38436)" stroke-width=".79701" stroke-linecap="butt" stroke-miterlimit="10" stroke-linejoin="miter" fill="none" stroke="#409f9f" d="M-22.72975-21.31775-22.61905-24.03084"/>
<path transform="matrix(1.00005,0,0,-1.00003,53.075998,55.38436)" stroke-width=".79701" stroke-linecap="butt" stroke-miterlimit="10" stroke-linejoin="miter" fill="none" stroke="#409f9f" d="M-19.12639-18.78271-17.15294-21.1241"/>
<path transform="matrix(1.00005,0,0,-1.00003,53.075998,55.38436)" stroke-width=".79701" stroke-linecap="butt" stroke-miterlimit="10" stroke-linejoin="miter" fill="none" stroke="#409f9f" d="M-15.532-16.46172-11.67783-18.00334"/>
<path transform="matrix(1.00005,0,0,-1.00003,53.075998,55.38436)" stroke-width=".79701" stroke-linecap="butt" stroke-miterlimit="10" stroke-linejoin="miter" fill="none" stroke="#409f9f" d="M-11.53351-14.17815-6.60684-14.84515"/>
<path transform="matrix(1.00005,0,0,-1.00003,53.075998,55.38436)" stroke-width=".79701" stroke-linecap="butt" stroke-miterlimit="10" stroke-linejoin="miter" fill="none" stroke="#409f9f" d="M-7.19597-11.76483-1.87488-11.8167"/>
<path transform="matrix(1.00005,0,0,-1.00003,53.075998,55.38436)" stroke-width=".79701" stroke-linecap="butt" stroke-miterlimit="10" stroke-linejoin="miter" fill="none" stroke="#409f9f" d="M-2.71347-9.22269 2.7121-8.9171"/>
<path transform="matrix(1.00005,0,0,-1.00003,53.075998,55.38436)" stroke-width=".79701" stroke-linecap="butt" stroke-miterlimit="10" stroke-linejoin="miter" fill="none" stroke="#409f9f" d="M1.80983-6.59378 7.25826-6.10423"/>
<path transform="matrix(1.00005,0,0,-1.00003,53.075998,55.38436)" stroke-width=".79701" stroke-linecap="butt" stroke-miterlimit="10" stroke-linejoin="miter" fill="none" stroke="#409f9f" d="M6.34392-3.90062 11.7937-3.3556"/>
<path transform="matrix(1.00005,0,0,-1.00003,53.075998,55.38436)" stroke-width=".79701" stroke-linecap="butt" stroke-miterlimit="10" stroke-linejoin="miter" fill="none" stroke="#409f9f" d="M10.87932-1.15202 16.32774-.66249"/>
<path transform="matrix(1.00005,0,0,-1.00003,53.075998,55.38436)" stroke-width=".79701" stroke-linecap="butt" stroke-miterlimit="10" stroke-linejoin="miter" fill="none" stroke="#409f9f" d="M15.42548 1.66081 20.85106 1.9664"/>
<path transform="matrix(1.00005,0,0,-1.00003,53.075998,55.38436)" stroke-width=".79701" stroke-linecap="butt" stroke-miterlimit="10" stroke-linejoin="miter" fill="none" stroke="#409f9f" d="M20.01247 4.56042 25.33356 4.50854"/>
<path transform="matrix(1.00005,0,0,-1.00003,53.075998,55.38436)" stroke-width=".79701" stroke-linecap="butt" stroke-miterlimit="10" stroke-linejoin="miter" fill="none" stroke="#409f9f" d="M24.74442 7.58887 29.67108 6.92186"/>
<path transform="matrix(1.00005,0,0,-1.00003,53.075998,55.38436)" stroke-width=".79701" stroke-linecap="butt" stroke-miterlimit="10" stroke-linejoin="miter" fill="none" stroke="#409f9f" d="M29.81541 10.74706 33.66957 9.20543"/>
<path transform="matrix(1.00005,0,0,-1.00003,53.075998,55.38436)" stroke-width=".79701" stroke-linecap="butt" stroke-miterlimit="10" stroke-linejoin="miter" fill="none" stroke="#409f9f" d="M35.28914 13.86803 37.26537 11.52623"/>
<path transform="matrix(1.00005,0,0,-1.00003,53.075998,55.38436)" stroke-width=".79701" stroke-linecap="butt" stroke-miterlimit="10" stroke-linejoin="miter" fill="none" stroke="#409f9f" d="M40.75664 16.77455 40.86734 14.06146"/>
<path transform="matrix(1.00005,0,0,-1.00003,53.075998,55.38436)" stroke-width=".79701" stroke-linecap="butt" stroke-miterlimit="10" stroke-linejoin="miter" fill="none" stroke="#409f9f" d="M45.92937 19.52814 44.7641 16.74966"/>
<path transform="matrix(1.00005,0,0,-1.00003,53.075998,55.38436)" stroke-width=".79701" stroke-linecap="butt" stroke-miterlimit="10" stroke-linejoin="miter" fill="none" stroke="#409f9f" d="M50.8561 22.22957 48.90688 19.48999"/>
<path transform="matrix(1.00005,0,0,-1.00003,53.075998,55.38436)" stroke-width=".79701" stroke-linecap="butt" stroke-miterlimit="10" stroke-linejoin="miter" fill="none" stroke="#409f9f" d="M55.63512 24.92125 53.19736 22.24008"/>
<path transform="matrix(1.00005,0,0,-1.00003,53.075998,55.38436)" stroke-width=".79701" stroke-linecap="butt" stroke-miterlimit="10" stroke-linejoin="miter" fill="none" stroke="#409f9f" d="M-30.52504-31.31021-32.9628-33.9914"/>
<path transform="matrix(1.00005,0,0,-1.00003,53.075998,55.38436)" stroke-width=".79701" stroke-linecap="butt" stroke-miterlimit="10" stroke-linejoin="miter" fill="none" stroke="#409f9f" d="M-26.23454-28.56012-28.18378-31.2997"/>
<path transform="matrix(1.00005,0,0,-1.00003,53.075998,55.38436)" stroke-width=".79701" stroke-linecap="butt" stroke-miterlimit="10" stroke-linejoin="miter" fill="none" stroke="#409f9f" d="M-22.09178-25.8198-23.25705-28.59825"/>
<path transform="matrix(1.00005,0,0,-1.00003,53.075998,55.38436)" stroke-width=".79701" stroke-linecap="butt" stroke-miterlimit="10" stroke-linejoin="miter" fill="none" stroke="#409f9f" d="M-18.195-23.13159-18.0843-25.8447"/>
<path transform="matrix(1.00005,0,0,-1.00003,53.075998,55.38436)" stroke-width=".79701" stroke-linecap="butt" stroke-miterlimit="10" stroke-linejoin="miter" fill="none" stroke="#409f9f" d="M-14.59166-20.59657-12.6182-22.93796"/>
<path transform="matrix(1.00005,0,0,-1.00003,53.075998,55.38436)" stroke-width=".79701" stroke-linecap="butt" stroke-miterlimit="10" stroke-linejoin="miter" fill="none" stroke="#409f9f" d="M-10.99725-18.27557-7.1431-19.8172"/>
<path transform="matrix(1.00005,0,0,-1.00003,53.075998,55.38436)" stroke-width=".79701" stroke-linecap="butt" stroke-miterlimit="10" stroke-linejoin="miter" fill="none" stroke="#409f9f" d="M-6.99876-15.992-2.07211-16.65901"/>
<path transform="matrix(1.00005,0,0,-1.00003,53.075998,55.38436)" stroke-width=".79701" stroke-linecap="butt" stroke-miterlimit="10" stroke-linejoin="miter" fill="none" stroke="#409f9f" d="M-2.66124-13.57869 2.65984-13.63055"/>
<path transform="matrix(1.00005,0,0,-1.00003,53.075998,55.38436)" stroke-width=".79701" stroke-linecap="butt" stroke-miterlimit="10" stroke-linejoin="miter" fill="none" stroke="#409f9f" d="M1.82124-11.03654 7.24684-10.73094"/>
<path transform="matrix(1.00005,0,0,-1.00003,53.075998,55.38436)" stroke-width=".79701" stroke-linecap="butt" stroke-miterlimit="10" stroke-linejoin="miter" fill="none" stroke="#409f9f" d="M6.34457-8.40762 11.79298-7.91809"/>
<path transform="matrix(1.00005,0,0,-1.00003,53.075998,55.38436)" stroke-width=".79701" stroke-linecap="butt" stroke-miterlimit="10" stroke-linejoin="miter" fill="none" stroke="#409f9f" d="M10.87865-5.71448 16.32843-5.16945"/>
<path transform="matrix(1.00005,0,0,-1.00003,53.075998,55.38436)" stroke-width=".79701" stroke-linecap="butt" stroke-miterlimit="10" stroke-linejoin="miter" fill="none" stroke="#409f9f" d="M15.41405-2.96588 20.86247-2.47635"/>
<path transform="matrix(1.00005,0,0,-1.00003,53.075998,55.38436)" stroke-width=".79701" stroke-linecap="butt" stroke-miterlimit="10" stroke-linejoin="miter" fill="none" stroke="#409f9f" d="M19.9602-.15303 25.38579 .15254"/>
<path transform="matrix(1.00005,0,0,-1.00003,53.075998,55.38436)" stroke-width=".79701" stroke-linecap="butt" stroke-miterlimit="10" stroke-linejoin="miter" fill="none" stroke="#409f9f" d="M24.54721 2.74657 29.86829 2.6947"/>
<path transform="matrix(1.00005,0,0,-1.00003,53.075998,55.38436)" stroke-width=".79701" stroke-linecap="butt" stroke-miterlimit="10" stroke-linejoin="miter" fill="none" stroke="#409f9f" d="M29.27916 5.77501 34.20581 5.108"/>
<path transform="matrix(1.00005,0,0,-1.00003,53.075998,55.38436)" stroke-width=".79701" stroke-linecap="butt" stroke-miterlimit="10" stroke-linejoin="miter" fill="none" stroke="#409f9f" d="M34.35016 8.93321 38.20432 7.39157"/>
<path transform="matrix(1.00005,0,0,-1.00003,53.075998,55.38436)" stroke-width=".79701" stroke-linecap="butt" stroke-miterlimit="10" stroke-linejoin="miter" fill="none" stroke="#409f9f" d="M39.82387 12.05417 41.8001 9.71237"/>
<path transform="matrix(1.00005,0,0,-1.00003,53.075998,55.38436)" stroke-width=".79701" stroke-linecap="butt" stroke-miterlimit="10" stroke-linejoin="miter" fill="none" stroke="#409f9f" d="M45.29137 14.9607 45.40207 12.2476"/>
<path transform="matrix(1.00005,0,0,-1.00003,53.075998,55.38436)" stroke-width=".79701" stroke-linecap="butt" stroke-miterlimit="10" stroke-linejoin="miter" fill="none" stroke="#409f9f" d="M50.4641 17.71428 49.29884 14.93582"/>
<path transform="matrix(1.00005,0,0,-1.00003,53.075998,55.38436)" stroke-width=".79701" stroke-linecap="butt" stroke-miterlimit="10" stroke-linejoin="miter" fill="none" stroke="#409f9f" d="M55.39084 20.41571 53.4416 17.67613"/>
<path transform="matrix(1.00005,0,0,-1.00003,53.075998,55.38436)" stroke-width=".79701" stroke-linecap="butt" stroke-miterlimit="10" stroke-linejoin="miter" fill="none" stroke="#409f9f" d="M60.16985 23.10739 57.73209 20.42622"/>
<path transform="matrix(1.00005,0,0,-1.00003,53.075998,55.38436)" stroke-width=".79701" stroke-linecap="butt" stroke-miterlimit="10" stroke-linejoin="miter" fill="none" stroke="#409f9f" d="M-25.99028-33.12408-28.42804-35.80525"/>
<path transform="matrix(1.00005,0,0,-1.00003,53.075998,55.38436)" stroke-width=".79701" stroke-linecap="butt" stroke-miterlimit="10" stroke-linejoin="miter" fill="none" stroke="#409f9f" d="M-21.6998-30.374-23.64903-33.11357"/>
<path transform="matrix(1.00005,0,0,-1.00003,53.075998,55.38436)" stroke-width=".79701" stroke-linecap="butt" stroke-miterlimit="10" stroke-linejoin="miter" fill="none" stroke="#409f9f" d="M-17.55704-27.63367-18.72229-30.41212"/>
<path transform="matrix(1.00005,0,0,-1.00003,53.075998,55.38436)" stroke-width=".79701" stroke-linecap="butt" stroke-miterlimit="10" stroke-linejoin="miter" fill="none" stroke="#409f9f" d="M-13.66026-24.94547-13.54956-27.65857"/>
<path transform="matrix(1.00005,0,0,-1.00003,53.075998,55.38436)" stroke-width=".79701" stroke-linecap="butt" stroke-miterlimit="10" stroke-linejoin="miter" fill="none" stroke="#409f9f" d="M-10.0569-22.41045-8.08345-24.75182"/>
<path transform="matrix(1.00005,0,0,-1.00003,53.075998,55.38436)" stroke-width=".79701" stroke-linecap="butt" stroke-miterlimit="10" stroke-linejoin="miter" fill="none" stroke="#409f9f" d="M-6.46251-20.08943-2.60835-21.63107"/>
<path transform="matrix(1.00005,0,0,-1.00003,53.075998,55.38436)" stroke-width=".79701" stroke-linecap="butt" stroke-miterlimit="10" stroke-linejoin="miter" fill="none" stroke="#409f9f" d="M-2.46402-17.80588 2.46262-18.47287"/>
<path transform="matrix(1.00005,0,0,-1.00003,53.075998,55.38436)" stroke-width=".79701" stroke-linecap="butt" stroke-miterlimit="10" stroke-linejoin="miter" fill="none" stroke="#409f9f" d="M1.8735-15.39256 7.19458-15.44443"/>
<path transform="matrix(1.00005,0,0,-1.00003,53.075998,55.38436)" stroke-width=".79701" stroke-linecap="butt" stroke-miterlimit="10" stroke-linejoin="miter" fill="none" stroke="#409f9f" d="M6.356-12.8504 11.78159-12.54482"/>
<path transform="matrix(1.00005,0,0,-1.00003,53.075998,55.38436)" stroke-width=".79701" stroke-linecap="butt" stroke-miterlimit="10" stroke-linejoin="miter" fill="none" stroke="#409f9f" d="M10.87932-10.2215 16.32774-9.73196"/>
<path transform="matrix(1.00005,0,0,-1.00003,53.075998,55.38436)" stroke-width=".79701" stroke-linecap="butt" stroke-miterlimit="10" stroke-linejoin="miter" fill="none" stroke="#409f9f" d="M15.4134-7.52835 20.86319-6.98332"/>
<path transform="matrix(1.00005,0,0,-1.00003,53.075998,55.38436)" stroke-width=".79701" stroke-linecap="butt" stroke-miterlimit="10" stroke-linejoin="miter" fill="none" stroke="#409f9f" d="M19.9488-4.77975 25.39722-4.29022"/>
<path transform="matrix(1.00005,0,0,-1.00003,53.075998,55.38436)" stroke-width=".79701" stroke-linecap="butt" stroke-miterlimit="10" stroke-linejoin="miter" fill="none" stroke="#409f9f" d="M24.49495-1.9669 29.92055-1.66132"/>
<path transform="matrix(1.00005,0,0,-1.00003,53.075998,55.38436)" stroke-width=".79701" stroke-linecap="butt" stroke-miterlimit="10" stroke-linejoin="miter" fill="none" stroke="#409f9f" d="M29.08195 .9327 34.40305 .88083"/>
<path transform="matrix(1.00005,0,0,-1.00003,53.075998,55.38436)" stroke-width=".79701" stroke-linecap="butt" stroke-miterlimit="10" stroke-linejoin="miter" fill="none" stroke="#409f9f" d="M33.8139 3.96114 38.74055 3.29414"/>
<path transform="matrix(1.00005,0,0,-1.00003,53.075998,55.38436)" stroke-width=".79701" stroke-linecap="butt" stroke-miterlimit="10" stroke-linejoin="miter" fill="none" stroke="#409f9f" d="M38.8849 7.11934 42.73906 5.5777"/>
<path transform="matrix(1.00005,0,0,-1.00003,53.075998,55.38436)" stroke-width=".79701" stroke-linecap="butt" stroke-miterlimit="10" stroke-linejoin="miter" fill="none" stroke="#409f9f" d="M44.35863 10.24031 46.33485 7.8985"/>
<path transform="matrix(1.00005,0,0,-1.00003,53.075998,55.38436)" stroke-width=".79701" stroke-linecap="butt" stroke-miterlimit="10" stroke-linejoin="miter" fill="none" stroke="#409f9f" d="M49.82611 13.14684 49.93681 10.43373"/>
<path transform="matrix(1.00005,0,0,-1.00003,53.075998,55.38436)" stroke-width=".79701" stroke-linecap="butt" stroke-miterlimit="10" stroke-linejoin="miter" fill="none" stroke="#409f9f" d="M54.99886 15.9004 53.83359 13.12195"/>
<path transform="matrix(1.00005,0,0,-1.00003,53.075998,55.38436)" stroke-width=".79701" stroke-linecap="butt" stroke-miterlimit="10" stroke-linejoin="miter" fill="none" stroke="#409f9f" d="M59.92558 18.60185 57.97635 15.86227"/>
<path transform="matrix(1.00005,0,0,-1.00003,53.075998,55.38436)" stroke-width=".79701" stroke-linecap="butt" stroke-miterlimit="10" stroke-linejoin="miter" fill="none" stroke="#409f9f" d="M64.7046 21.29352 62.26685 18.61235"/>
<path transform="matrix(1.00005,0,0,-1.00003,53.075998,55.38436)" stroke-width=".79701" stroke-linecap="butt" stroke-miterlimit="10" stroke-linejoin="miter" fill="none" stroke="#409f9f" d="M-21.45554-34.93794-23.8933-37.61911"/>
<path transform="matrix(1.00005,0,0,-1.00003,53.075998,55.38436)" stroke-width=".79701" stroke-linecap="butt" stroke-miterlimit="10" stroke-linejoin="miter" fill="none" stroke="#409f9f" d="M-17.16505-32.18784-19.11427-34.92741"/>
<path transform="matrix(1.00005,0,0,-1.00003,53.075998,55.38436)" stroke-width=".79701" stroke-linecap="butt" stroke-miterlimit="10" stroke-linejoin="miter" fill="none" stroke="#409f9f" d="M-13.02228-29.44751-14.18755-32.22598"/>
<path transform="matrix(1.00005,0,0,-1.00003,53.075998,55.38436)" stroke-width=".79701" stroke-linecap="butt" stroke-miterlimit="10" stroke-linejoin="miter" fill="none" stroke="#409f9f" d="M-9.12552-26.75932-9.01482-29.47241"/>
<path transform="matrix(1.00005,0,0,-1.00003,53.075998,55.38436)" stroke-width=".79701" stroke-linecap="butt" stroke-miterlimit="10" stroke-linejoin="miter" fill="none" stroke="#409f9f" d="M-5.52216-24.2243-3.54869-26.56567"/>
<path transform="matrix(1.00005,0,0,-1.00003,53.075998,55.38436)" stroke-width=".79701" stroke-linecap="butt" stroke-miterlimit="10" stroke-linejoin="miter" fill="none" stroke="#409f9f" d="M-1.92775-21.90329 1.92639-23.44493"/>
<path transform="matrix(1.00005,0,0,-1.00003,53.075998,55.38436)" stroke-width=".79701" stroke-linecap="butt" stroke-miterlimit="10" stroke-linejoin="miter" fill="none" stroke="#409f9f" d="M2.07071-19.61972 6.99738-20.28673"/>
<path transform="matrix(1.00005,0,0,-1.00003,53.075998,55.38436)" stroke-width=".79701" stroke-linecap="butt" stroke-miterlimit="10" stroke-linejoin="miter" fill="none" stroke="#409f9f" d="M6.40825-17.2064 11.72934-17.25829"/>
<path transform="matrix(1.00005,0,0,-1.00003,53.075998,55.38436)" stroke-width=".79701" stroke-linecap="butt" stroke-miterlimit="10" stroke-linejoin="miter" fill="none" stroke="#409f9f" d="M10.89075-14.66426 16.31633-14.35867"/>
<path transform="matrix(1.00005,0,0,-1.00003,53.075998,55.38436)" stroke-width=".79701" stroke-linecap="butt" stroke-miterlimit="10" stroke-linejoin="miter" fill="none" stroke="#409f9f" d="M15.41406-12.03535 20.86249-11.54582"/>
<path transform="matrix(1.00005,0,0,-1.00003,53.075998,55.38436)" stroke-width=".79701" stroke-linecap="butt" stroke-miterlimit="10" stroke-linejoin="miter" fill="none" stroke="#409f9f" d="M19.94815-9.3422 25.39793-8.79718"/>
<path transform="matrix(1.00005,0,0,-1.00003,53.075998,55.38436)" stroke-width=".79701" stroke-linecap="butt" stroke-miterlimit="10" stroke-linejoin="miter" fill="none" stroke="#409f9f" d="M24.48355-6.59361 29.93198-6.10408"/>
<path transform="matrix(1.00005,0,0,-1.00003,53.075998,55.38436)" stroke-width=".79701" stroke-linecap="butt" stroke-miterlimit="10" stroke-linejoin="miter" fill="none" stroke="#409f9f" d="M29.02971-3.78076 34.45529-3.47516"/>
<path transform="matrix(1.00005,0,0,-1.00003,53.075998,55.38436)" stroke-width=".79701" stroke-linecap="butt" stroke-miterlimit="10" stroke-linejoin="miter" fill="none" stroke="#409f9f" d="M33.6167-.88115 38.93779-.93301"/>
<path transform="matrix(1.00005,0,0,-1.00003,53.075998,55.38436)" stroke-width=".79701" stroke-linecap="butt" stroke-miterlimit="10" stroke-linejoin="miter" fill="none" stroke="#409f9f" d="M38.34865 2.1473 43.27531 1.48029"/>
<path transform="matrix(1.00005,0,0,-1.00003,53.075998,55.38436)" stroke-width=".79701" stroke-linecap="butt" stroke-miterlimit="10" stroke-linejoin="miter" fill="none" stroke="#409f9f" d="M43.41966 5.30548 47.27382 3.76385"/>
<path transform="matrix(1.00005,0,0,-1.00003,53.075998,55.38436)" stroke-width=".79701" stroke-linecap="butt" stroke-miterlimit="10" stroke-linejoin="miter" fill="none" stroke="#409f9f" d="M48.89337 8.42645 50.8696 6.08464"/>
<path transform="matrix(1.00005,0,0,-1.00003,53.075998,55.38436)" stroke-width=".79701" stroke-linecap="butt" stroke-miterlimit="10" stroke-linejoin="miter" fill="none" stroke="#409f9f" d="M54.36087 11.33298 54.47157 8.61987"/>
<path transform="matrix(1.00005,0,0,-1.00003,53.075998,55.38436)" stroke-width=".79701" stroke-linecap="butt" stroke-miterlimit="10" stroke-linejoin="miter" fill="none" stroke="#409f9f" d="M59.5336 14.08656 58.36833 11.30809"/>
<path transform="matrix(1.00005,0,0,-1.00003,53.075998,55.38436)" stroke-width=".79701" stroke-linecap="butt" stroke-miterlimit="10" stroke-linejoin="miter" fill="none" stroke="#409f9f" d="M64.46033 16.788 62.51111 14.04842"/>
<path transform="matrix(1.00005,0,0,-1.00003,53.075998,55.38436)" stroke-width=".79701" stroke-linecap="butt" stroke-miterlimit="10" stroke-linejoin="miter" fill="none" stroke="#409f9f" d="M69.23935 19.47968 66.80159 16.7985"/>
<path transform="matrix(1.00005,0,0,-1.00003,53.075998,55.38436)" stroke-width=".79701" stroke-linecap="butt" stroke-miterlimit="10" stroke-linejoin="miter" fill="none" stroke="#409f9f" d="M-16.92079-36.75182-19.35855-39.43298"/>
<path transform="matrix(1.00005,0,0,-1.00003,53.075998,55.38436)" stroke-width=".79701" stroke-linecap="butt" stroke-miterlimit="10" stroke-linejoin="miter" fill="none" stroke="#409f9f" d="M-12.63031-34.00171-14.57954-36.74129"/>
<path transform="matrix(1.00005,0,0,-1.00003,53.075998,55.38436)" stroke-width=".79701" stroke-linecap="butt" stroke-miterlimit="10" stroke-linejoin="miter" fill="none" stroke="#409f9f" d="M-8.48755-31.26138-9.6528-34.03986"/>
<path transform="matrix(1.00005,0,0,-1.00003,53.075998,55.38436)" stroke-width=".79701" stroke-linecap="butt" stroke-miterlimit="10" stroke-linejoin="miter" fill="none" stroke="#409f9f" d="M-4.59077-28.5732-4.48007-31.28629"/>
<path transform="matrix(1.00005,0,0,-1.00003,53.075998,55.38436)" stroke-width=".79701" stroke-linecap="butt" stroke-miterlimit="10" stroke-linejoin="miter" fill="none" stroke="#409f9f" d="M-.98743-26.03816 .98602-28.37955"/>
<path transform="matrix(1.00005,0,0,-1.00003,53.075998,55.38436)" stroke-width=".79701" stroke-linecap="butt" stroke-miterlimit="10" stroke-linejoin="miter" fill="none" stroke="#409f9f" d="M2.60696-23.71716 6.46112-25.25879"/>
<path transform="matrix(1.00005,0,0,-1.00003,53.075998,55.38436)" stroke-width=".79701" stroke-linecap="butt" stroke-miterlimit="10" stroke-linejoin="miter" fill="none" stroke="#409f9f" d="M6.60545-21.4336 11.5321-22.1006"/>
<path transform="matrix(1.00005,0,0,-1.00003,53.075998,55.38436)" stroke-width=".79701" stroke-linecap="butt" stroke-miterlimit="10" stroke-linejoin="miter" fill="none" stroke="#409f9f" d="M10.94298-19.02028 16.26407-19.07216"/>
<path transform="matrix(1.00005,0,0,-1.00003,53.075998,55.38436)" stroke-width=".79701" stroke-linecap="butt" stroke-miterlimit="10" stroke-linejoin="miter" fill="none" stroke="#409f9f" d="M15.42549-16.47813 20.85107-16.17255"/>
<path transform="matrix(1.00005,0,0,-1.00003,53.075998,55.38436)" stroke-width=".79701" stroke-linecap="butt" stroke-miterlimit="10" stroke-linejoin="miter" fill="none" stroke="#409f9f" d="M19.9488-13.84923 25.39722-13.3597"/>
<path transform="matrix(1.00005,0,0,-1.00003,53.075998,55.38436)" stroke-width=".79701" stroke-linecap="butt" stroke-miterlimit="10" stroke-linejoin="miter" fill="none" stroke="#409f9f" d="M24.48288-11.15607 29.93268-10.61105"/>
<path transform="matrix(1.00005,0,0,-1.00003,53.075998,55.38436)" stroke-width=".79701" stroke-linecap="butt" stroke-miterlimit="10" stroke-linejoin="miter" fill="none" stroke="#409f9f" d="M29.0183-8.40747 34.4667-7.91794"/>
<path transform="matrix(1.00005,0,0,-1.00003,53.075998,55.38436)" stroke-width=".79701" stroke-linecap="butt" stroke-miterlimit="10" stroke-linejoin="miter" fill="none" stroke="#409f9f" d="M33.56444-5.59462 38.99002-5.28903"/>
<path transform="matrix(1.00005,0,0,-1.00003,53.075998,55.38436)" stroke-width=".79701" stroke-linecap="butt" stroke-miterlimit="10" stroke-linejoin="miter" fill="none" stroke="#409f9f" d="M38.15144-2.695 43.47253-2.74689"/>
<path transform="matrix(1.00005,0,0,-1.00003,53.075998,55.38436)" stroke-width=".79701" stroke-linecap="butt" stroke-miterlimit="10" stroke-linejoin="miter" fill="none" stroke="#409f9f" d="M42.88339 .33342 47.81004-.33357"/>
<path transform="matrix(1.00005,0,0,-1.00003,53.075998,55.38436)" stroke-width=".79701" stroke-linecap="butt" stroke-miterlimit="10" stroke-linejoin="miter" fill="none" stroke="#409f9f" d="M47.95439 3.49161 51.80855 1.94998"/>
<path transform="matrix(1.00005,0,0,-1.00003,53.075998,55.38436)" stroke-width=".79701" stroke-linecap="butt" stroke-miterlimit="10" stroke-linejoin="miter" fill="none" stroke="#409f9f" d="M53.4281 6.61258 55.40433 4.27078"/>
<path transform="matrix(1.00005,0,0,-1.00003,53.075998,55.38436)" stroke-width=".79701" stroke-linecap="butt" stroke-miterlimit="10" stroke-linejoin="miter" fill="none" stroke="#409f9f" d="M58.8956 9.5191 59.0063 6.80602"/>
<path transform="matrix(1.00005,0,0,-1.00003,53.075998,55.38436)" stroke-width=".79701" stroke-linecap="butt" stroke-miterlimit="10" stroke-linejoin="miter" fill="none" stroke="#409f9f" d="M64.06833 12.27269 62.90308 9.49422"/>
<path transform="matrix(1.00005,0,0,-1.00003,53.075998,55.38436)" stroke-width=".79701" stroke-linecap="butt" stroke-miterlimit="10" stroke-linejoin="miter" fill="none" stroke="#409f9f" d="M68.99507 14.97412 67.04584 12.23454"/>
<path transform="matrix(1.00005,0,0,-1.00003,53.075998,55.38436)" stroke-width=".79701" stroke-linecap="butt" stroke-miterlimit="10" stroke-linejoin="miter" fill="none" stroke="#409f9f" d="M73.77408 17.6658 71.33632 14.98463"/>
<path transform="matrix(1.00005,0,0,-1.00003,53.075998,55.38436)" stroke-width=".79701" stroke-linecap="butt" stroke-miterlimit="10" stroke-linejoin="miter" fill="none" stroke="#409f9f" d="M-12.38605-38.56566-14.8238-41.24684"/>
<path transform="matrix(1.00005,0,0,-1.00003,53.075998,55.38436)" stroke-width=".79701" stroke-linecap="butt" stroke-miterlimit="10" stroke-linejoin="miter" fill="none" stroke="#409f9f" d="M-8.09557-35.81557-10.04478-38.55515"/>
<path transform="matrix(1.00005,0,0,-1.00003,53.075998,55.38436)" stroke-width=".79701" stroke-linecap="butt" stroke-miterlimit="10" stroke-linejoin="miter" fill="none" stroke="#409f9f" d="M-3.95279-33.07524-5.11806-35.85371"/>
<path transform="matrix(1.00005,0,0,-1.00003,53.075998,55.38436)" stroke-width=".79701" stroke-linecap="butt" stroke-miterlimit="10" stroke-linejoin="miter" fill="none" stroke="#409f9f" d="M-.05603-30.38704 .05466-33.10014"/>
<path transform="matrix(1.00005,0,0,-1.00003,53.075998,55.38436)" stroke-width=".79701" stroke-linecap="butt" stroke-miterlimit="10" stroke-linejoin="miter" fill="none" stroke="#409f9f" d="M3.54732-27.85202 5.52077-30.1934"/>
<path transform="matrix(1.00005,0,0,-1.00003,53.075998,55.38436)" stroke-width=".79701" stroke-linecap="butt" stroke-miterlimit="10" stroke-linejoin="miter" fill="none" stroke="#409f9f" d="M7.14171-25.53102 10.99586-27.07265"/>
<path transform="matrix(1.00005,0,0,-1.00003,53.075998,55.38436)" stroke-width=".79701" stroke-linecap="butt" stroke-miterlimit="10" stroke-linejoin="miter" fill="none" stroke="#409f9f" d="M11.1402-23.24745 16.06686-23.91446"/>
<path transform="matrix(1.00005,0,0,-1.00003,53.075998,55.38436)" stroke-width=".79701" stroke-linecap="butt" stroke-miterlimit="10" stroke-linejoin="miter" fill="none" stroke="#409f9f" d="M15.47774-20.83414 20.79883-20.886"/>
<path transform="matrix(1.00005,0,0,-1.00003,53.075998,55.38436)" stroke-width=".79701" stroke-linecap="butt" stroke-miterlimit="10" stroke-linejoin="miter" fill="none" stroke="#409f9f" d="M19.96024-18.29199 25.38582-17.98639"/>
<path transform="matrix(1.00005,0,0,-1.00003,53.075998,55.38436)" stroke-width=".79701" stroke-linecap="butt" stroke-miterlimit="10" stroke-linejoin="miter" fill="none" stroke="#409f9f" d="M24.48355-15.66307 29.93198-15.17354"/>
<path transform="matrix(1.00005,0,0,-1.00003,53.075998,55.38436)" stroke-width=".79701" stroke-linecap="butt" stroke-miterlimit="10" stroke-linejoin="miter" fill="none" stroke="#409f9f" d="M29.01764-12.96992 34.46742-12.4249"/>
<path transform="matrix(1.00005,0,0,-1.00003,53.075998,55.38436)" stroke-width=".79701" stroke-linecap="butt" stroke-miterlimit="10" stroke-linejoin="miter" fill="none" stroke="#409f9f" d="M33.55304-10.22133 39.00146-9.7318"/>
<path transform="matrix(1.00005,0,0,-1.00003,53.075998,55.38436)" stroke-width=".79701" stroke-linecap="butt" stroke-miterlimit="10" stroke-linejoin="miter" fill="none" stroke="#409f9f" d="M38.0992-7.40848 43.52478-7.10289"/>
<path transform="matrix(1.00005,0,0,-1.00003,53.075998,55.38436)" stroke-width=".79701" stroke-linecap="butt" stroke-miterlimit="10" stroke-linejoin="miter" fill="none" stroke="#409f9f" d="M42.68619-4.50887 48.00728-4.56075"/>
<path transform="matrix(1.00005,0,0,-1.00003,53.075998,55.38436)" stroke-width=".79701" stroke-linecap="butt" stroke-miterlimit="10" stroke-linejoin="miter" fill="none" stroke="#409f9f" d="M47.41814-1.48042 52.3448-2.14743"/>
<path transform="matrix(1.00005,0,0,-1.00003,53.075998,55.38436)" stroke-width=".79701" stroke-linecap="butt" stroke-miterlimit="10" stroke-linejoin="miter" fill="none" stroke="#409f9f" d="M52.48914 1.67776 56.34329 .13612"/>
<path transform="matrix(1.00005,0,0,-1.00003,53.075998,55.38436)" stroke-width=".79701" stroke-linecap="butt" stroke-miterlimit="10" stroke-linejoin="miter" fill="none" stroke="#409f9f" d="M57.96286 4.79872 59.93909 2.45692"/>
<path transform="matrix(1.00005,0,0,-1.00003,53.075998,55.38436)" stroke-width=".79701" stroke-linecap="butt" stroke-miterlimit="10" stroke-linejoin="miter" fill="none" stroke="#409f9f" d="M63.43036 7.70525 63.54106 4.99216"/>
<path transform="matrix(1.00005,0,0,-1.00003,53.075998,55.38436)" stroke-width=".79701" stroke-linecap="butt" stroke-miterlimit="10" stroke-linejoin="miter" fill="none" stroke="#409f9f" d="M68.60309 10.45883 67.43782 7.68036"/>
<path transform="matrix(1.00005,0,0,-1.00003,53.075998,55.38436)" stroke-width=".79701" stroke-linecap="butt" stroke-miterlimit="10" stroke-linejoin="miter" fill="none" stroke="#409f9f" d="M73.52982 13.16026 71.5806 10.42068"/>
<path transform="matrix(1.00005,0,0,-1.00003,53.075998,55.38436)" stroke-width=".79701" stroke-linecap="butt" stroke-miterlimit="10" stroke-linejoin="miter" fill="none" stroke="#409f9f" d="M78.30884 15.85194 75.87108 13.17078"/>
<path transform="matrix(1.00005,0,0,-1.00003,53.075998,55.38436)" stroke-width=".79701" stroke-linecap="butt" stroke-miterlimit="10" stroke-linejoin="miter" fill="none" stroke="#409f9f" d="M-7.85132-40.37953-10.28908-43.0607"/>
<path transform="matrix(1.00005,0,0,-1.00003,53.075998,55.38436)" stroke-width=".79701" stroke-linecap="butt" stroke-miterlimit="10" stroke-linejoin="miter" fill="none" stroke="#409f9f" d="M-3.56082-37.62944-5.51006-40.36902"/>
<path transform="matrix(1.00005,0,0,-1.00003,53.075998,55.38436)" stroke-width=".79701" stroke-linecap="butt" stroke-miterlimit="10" stroke-linejoin="miter" fill="none" stroke="#409f9f" d="M.58192-34.88911-.58333-37.66757"/>
<path transform="matrix(1.00005,0,0,-1.00003,53.075998,55.38436)" stroke-width=".79701" stroke-linecap="butt" stroke-miterlimit="10" stroke-linejoin="miter" fill="none" stroke="#409f9f" d="M4.4787-32.20091 4.5894-34.91402"/>
<path transform="matrix(1.00005,0,0,-1.00003,53.075998,55.38436)" stroke-width=".79701" stroke-linecap="butt" stroke-miterlimit="10" stroke-linejoin="miter" fill="none" stroke="#409f9f" d="M8.08205-29.6659 10.05551-32.00728"/>
<path transform="matrix(1.00005,0,0,-1.00003,53.075998,55.38436)" stroke-width=".79701" stroke-linecap="butt" stroke-miterlimit="10" stroke-linejoin="miter" fill="none" stroke="#409f9f" d="M11.67645-27.34488 15.53061-28.88652"/>
<path transform="matrix(1.00005,0,0,-1.00003,53.075998,55.38436)" stroke-width=".79701" stroke-linecap="butt" stroke-miterlimit="10" stroke-linejoin="miter" fill="none" stroke="#409f9f" d="M15.67494-25.06133 20.6016-25.72832"/>
<path transform="matrix(1.00005,0,0,-1.00003,53.075998,55.38436)" stroke-width=".79701" stroke-linecap="butt" stroke-miterlimit="10" stroke-linejoin="miter" fill="none" stroke="#409f9f" d="M20.01247-22.64801 25.33356-22.69987"/>
<path transform="matrix(1.00005,0,0,-1.00003,53.075998,55.38436)" stroke-width=".79701" stroke-linecap="butt" stroke-miterlimit="10" stroke-linejoin="miter" fill="none" stroke="#409f9f" d="M24.49496-20.10585 29.92056-19.80026"/>
<path transform="matrix(1.00005,0,0,-1.00003,53.075998,55.38436)" stroke-width=".79701" stroke-linecap="butt" stroke-miterlimit="10" stroke-linejoin="miter" fill="none" stroke="#409f9f" d="M29.0183-17.47694 34.4667-16.98741"/>
<path transform="matrix(1.00005,0,0,-1.00003,53.075998,55.38436)" stroke-width=".79701" stroke-linecap="butt" stroke-miterlimit="10" stroke-linejoin="miter" fill="none" stroke="#409f9f" d="M33.55237-14.7838 39.00215-14.23877"/>
<path transform="matrix(1.00005,0,0,-1.00003,53.075998,55.38436)" stroke-width=".79701" stroke-linecap="butt" stroke-miterlimit="10" stroke-linejoin="miter" fill="none" stroke="#409f9f" d="M38.08777-12.0352 43.5362-11.54567"/>
<path transform="matrix(1.00005,0,0,-1.00003,53.075998,55.38436)" stroke-width=".79701" stroke-linecap="butt" stroke-miterlimit="10" stroke-linejoin="miter" fill="none" stroke="#409f9f" d="M42.63393-9.22235 48.05951-8.91676"/>
<path transform="matrix(1.00005,0,0,-1.00003,53.075998,55.38436)" stroke-width=".79701" stroke-linecap="butt" stroke-miterlimit="10" stroke-linejoin="miter" fill="none" stroke="#409f9f" d="M47.22093-6.32274 52.542-6.3746"/>
<path transform="matrix(1.00005,0,0,-1.00003,53.075998,55.38436)" stroke-width=".79701" stroke-linecap="butt" stroke-miterlimit="10" stroke-linejoin="miter" fill="none" stroke="#409f9f" d="M51.95288-3.2943 56.87953-3.96129"/>
<path transform="matrix(1.00005,0,0,-1.00003,53.075998,55.38436)" stroke-width=".79701" stroke-linecap="butt" stroke-miterlimit="10" stroke-linejoin="miter" fill="none" stroke="#409f9f" d="M57.02388-.1361 60.87804-1.67773"/>
<path transform="matrix(1.00005,0,0,-1.00003,53.075998,55.38436)" stroke-width=".79701" stroke-linecap="butt" stroke-miterlimit="10" stroke-linejoin="miter" fill="none" stroke="#409f9f" d="M62.49759 2.98485 64.47382 .64305"/>
<path transform="matrix(1.00005,0,0,-1.00003,53.075998,55.38436)" stroke-width=".79701" stroke-linecap="butt" stroke-miterlimit="10" stroke-linejoin="miter" fill="none" stroke="#409f9f" d="M67.96509 5.89139 68.07579 3.17828"/>
<path transform="matrix(1.00005,0,0,-1.00003,53.075998,55.38436)" stroke-width=".79701" stroke-linecap="butt" stroke-miterlimit="10" stroke-linejoin="miter" fill="none" stroke="#409f9f" d="M73.13782 8.64496 71.97256 5.8665"/>
<path transform="matrix(1.00005,0,0,-1.00003,53.075998,55.38436)" stroke-width=".79701" stroke-linecap="butt" stroke-miterlimit="10" stroke-linejoin="miter" fill="none" stroke="#409f9f" d="M78.06456 11.3464 76.11533 8.60683"/>
<path transform="matrix(1.00005,0,0,-1.00003,53.075998,55.38436)" stroke-width=".79701" stroke-linecap="butt" stroke-miterlimit="10" stroke-linejoin="miter" fill="none" stroke="#409f9f" d="M82.84357 14.03807 80.4058 11.3569"/>
<path transform="matrix(1.00005,0,0,-1.00003,53.075998,55.38436)" stroke-width=".79701" stroke-linecap="butt" stroke-miterlimit="10" stroke-linejoin="miter" fill="none" stroke="#409f9f" d="M-3.31656-42.1934-5.75432-44.87457"/>
<path transform="matrix(1.00005,0,0,-1.00003,53.075998,55.38436)" stroke-width=".79701" stroke-linecap="butt" stroke-miterlimit="10" stroke-linejoin="miter" fill="none" stroke="#409f9f" d="M.9739-39.4433-.97531-42.18288"/>
<path transform="matrix(1.00005,0,0,-1.00003,53.075998,55.38436)" stroke-width=".79701" stroke-linecap="butt" stroke-miterlimit="10" stroke-linejoin="miter" fill="none" stroke="#409f9f" d="M5.11667-36.70299 3.95142-39.48145"/>
<path transform="matrix(1.00005,0,0,-1.00003,53.075998,55.38436)" stroke-width=".79701" stroke-linecap="butt" stroke-miterlimit="10" stroke-linejoin="miter" fill="none" stroke="#409f9f" d="M9.01344-34.01479 9.12415-36.72787"/>
<path transform="matrix(1.00005,0,0,-1.00003,53.075998,55.38436)" stroke-width=".79701" stroke-linecap="butt" stroke-miterlimit="10" stroke-linejoin="miter" fill="none" stroke="#409f9f" d="M12.61679-31.47977 14.59026-33.82114"/>
<path transform="matrix(1.00005,0,0,-1.00003,53.075998,55.38436)" stroke-width=".79701" stroke-linecap="butt" stroke-miterlimit="10" stroke-linejoin="miter" fill="none" stroke="#409f9f" d="M16.2112-29.15875 20.06535-30.7004"/>
<path transform="matrix(1.00005,0,0,-1.00003,53.075998,55.38436)" stroke-width=".79701" stroke-linecap="butt" stroke-miterlimit="10" stroke-linejoin="miter" fill="none" stroke="#409f9f" d="M20.20969-26.87518 25.13634-27.54219"/>
<path transform="matrix(1.00005,0,0,-1.00003,53.075998,55.38436)" stroke-width=".79701" stroke-linecap="butt" stroke-miterlimit="10" stroke-linejoin="miter" fill="none" stroke="#409f9f" d="M24.54723-24.46187 29.8683-24.51375"/>
<path transform="matrix(1.00005,0,0,-1.00003,53.075998,55.38436)" stroke-width=".79701" stroke-linecap="butt" stroke-miterlimit="10" stroke-linejoin="miter" fill="none" stroke="#409f9f" d="M29.02972-21.91972 34.4553-21.61414"/>
<path transform="matrix(1.00005,0,0,-1.00003,53.075998,55.38436)" stroke-width=".79701" stroke-linecap="butt" stroke-miterlimit="10" stroke-linejoin="miter" fill="none" stroke="#409f9f" d="M33.55304-19.29082 39.00146-18.80128"/>
<path transform="matrix(1.00005,0,0,-1.00003,53.075998,55.38436)" stroke-width=".79701" stroke-linecap="butt" stroke-miterlimit="10" stroke-linejoin="miter" fill="none" stroke="#409f9f" d="M38.08713-16.59767 43.53691-16.05264"/>
<path transform="matrix(1.00005,0,0,-1.00003,53.075998,55.38436)" stroke-width=".79701" stroke-linecap="butt" stroke-miterlimit="10" stroke-linejoin="miter" fill="none" stroke="#409f9f" d="M42.62253-13.84908 48.07094-13.35954"/>
<path transform="matrix(1.00005,0,0,-1.00003,53.075998,55.38436)" stroke-width=".79701" stroke-linecap="butt" stroke-miterlimit="10" stroke-linejoin="miter" fill="none" stroke="#409f9f" d="M47.16867-11.03622 52.59427-10.73062"/>
<path transform="matrix(1.00005,0,0,-1.00003,53.075998,55.38436)" stroke-width=".79701" stroke-linecap="butt" stroke-miterlimit="10" stroke-linejoin="miter" fill="none" stroke="#409f9f" d="M51.75568-8.13661 57.07677-8.18848"/>
<path transform="matrix(1.00005,0,0,-1.00003,53.075998,55.38436)" stroke-width=".79701" stroke-linecap="butt" stroke-miterlimit="10" stroke-linejoin="miter" fill="none" stroke="#409f9f" d="M56.48763-5.10815 61.41428-5.77516"/>
<path transform="matrix(1.00005,0,0,-1.00003,53.075998,55.38436)" stroke-width=".79701" stroke-linecap="butt" stroke-miterlimit="10" stroke-linejoin="miter" fill="none" stroke="#409f9f" d="M61.55862-1.94997 65.41278-3.4916"/>
<path transform="matrix(1.00005,0,0,-1.00003,53.075998,55.38436)" stroke-width=".79701" stroke-linecap="butt" stroke-miterlimit="10" stroke-linejoin="miter" fill="none" stroke="#409f9f" d="M67.03233 1.17099 69.00856-1.1708"/>
<path transform="matrix(1.00005,0,0,-1.00003,53.075998,55.38436)" stroke-width=".79701" stroke-linecap="butt" stroke-miterlimit="10" stroke-linejoin="miter" fill="none" stroke="#409f9f" d="M72.49983 4.07751 72.61053 1.36441"/>
<path transform="matrix(1.00005,0,0,-1.00003,53.075998,55.38436)" stroke-width=".79701" stroke-linecap="butt" stroke-miterlimit="10" stroke-linejoin="miter" fill="none" stroke="#409f9f" d="M77.67258 6.83109 76.50731 4.05263"/>
<path transform="matrix(1.00005,0,0,-1.00003,53.075998,55.38436)" stroke-width=".79701" stroke-linecap="butt" stroke-miterlimit="10" stroke-linejoin="miter" fill="none" stroke="#409f9f" d="M82.5993 9.53253 80.65007 6.79295"/>
<path transform="matrix(1.00005,0,0,-1.00003,53.075998,55.38436)" stroke-width=".79701" stroke-linecap="butt" stroke-miterlimit="10" stroke-linejoin="miter" fill="none" stroke="#409f9f" d="M87.37833 12.22421 84.94057 9.54303"/>
<path transform="matrix(1.00005,0,0,-1.00003,53.075998,55.38436)" stroke-width=".79701" stroke-linecap="butt" stroke-miterlimit="10" stroke-linejoin="miter" fill="none" stroke="#409f9f" d="M1.21817-44.00728-1.21957-46.68845"/>
<path transform="matrix(1.00005,0,0,-1.00003,53.075998,55.38436)" stroke-width=".79701" stroke-linecap="butt" stroke-miterlimit="10" stroke-linejoin="miter" fill="none" stroke="#409f9f" d="M5.50865-41.25717 3.55943-43.99675"/>
<path transform="matrix(1.00005,0,0,-1.00003,53.075998,55.38436)" stroke-width=".79701" stroke-linecap="butt" stroke-miterlimit="10" stroke-linejoin="miter" fill="none" stroke="#409f9f" d="M9.65143-38.51685 8.48616-41.29532"/>
<path transform="matrix(1.00005,0,0,-1.00003,53.075998,55.38436)" stroke-width=".79701" stroke-linecap="butt" stroke-miterlimit="10" stroke-linejoin="miter" fill="none" stroke="#409f9f" d="M13.54819-35.82866 13.65889-38.54175"/>
<path transform="matrix(1.00005,0,0,-1.00003,53.075998,55.38436)" stroke-width=".79701" stroke-linecap="butt" stroke-miterlimit="10" stroke-linejoin="miter" fill="none" stroke="#409f9f" d="M17.15155-33.29362 19.12502-35.63501"/>
<path transform="matrix(1.00005,0,0,-1.00003,53.075998,55.38436)" stroke-width=".79701" stroke-linecap="butt" stroke-miterlimit="10" stroke-linejoin="miter" fill="none" stroke="#409f9f" d="M20.74596-30.97263 24.60011-32.51425"/>
<path transform="matrix(1.00005,0,0,-1.00003,53.075998,55.38436)" stroke-width=".79701" stroke-linecap="butt" stroke-miterlimit="10" stroke-linejoin="miter" fill="none" stroke="#409f9f" d="M24.74443-28.68906 29.6711-29.35606"/>
<path transform="matrix(1.00005,0,0,-1.00003,53.075998,55.38436)" stroke-width=".79701" stroke-linecap="butt" stroke-miterlimit="10" stroke-linejoin="miter" fill="none" stroke="#409f9f" d="M29.08197-26.27574 34.40306-26.32762"/>
<path transform="matrix(1.00005,0,0,-1.00003,53.075998,55.38436)" stroke-width=".79701" stroke-linecap="butt" stroke-miterlimit="10" stroke-linejoin="miter" fill="none" stroke="#409f9f" d="M33.56447-23.7336 38.99005-23.42801"/>
<path transform="matrix(1.00005,0,0,-1.00003,53.075998,55.38436)" stroke-width=".79701" stroke-linecap="butt" stroke-miterlimit="10" stroke-linejoin="miter" fill="none" stroke="#409f9f" d="M38.08778-21.10469 43.53621-20.61516"/>
<path transform="matrix(1.00005,0,0,-1.00003,53.075998,55.38436)" stroke-width=".79701" stroke-linecap="butt" stroke-miterlimit="10" stroke-linejoin="miter" fill="none" stroke="#409f9f" d="M42.62187-18.41153 48.07166-17.86652"/>
<path transform="matrix(1.00005,0,0,-1.00003,53.075998,55.38436)" stroke-width=".79701" stroke-linecap="butt" stroke-miterlimit="10" stroke-linejoin="miter" fill="none" stroke="#409f9f" d="M47.15727-15.66293 52.6057-15.1734"/>
<path transform="matrix(1.00005,0,0,-1.00003,53.075998,55.38436)" stroke-width=".79701" stroke-linecap="butt" stroke-miterlimit="10" stroke-linejoin="miter" fill="none" stroke="#409f9f" d="M51.70343-12.85008 57.12901-12.5445"/>
<path transform="matrix(1.00005,0,0,-1.00003,53.075998,55.38436)" stroke-width=".79701" stroke-linecap="butt" stroke-miterlimit="10" stroke-linejoin="miter" fill="none" stroke="#409f9f" d="M56.29042-9.95049 61.61151-10.00235"/>
<path transform="matrix(1.00005,0,0,-1.00003,53.075998,55.38436)" stroke-width=".79701" stroke-linecap="butt" stroke-miterlimit="10" stroke-linejoin="miter" fill="none" stroke="#409f9f" d="M61.02237-6.92203 65.94904-7.58904"/>
<path transform="matrix(1.00005,0,0,-1.00003,53.075998,55.38436)" stroke-width=".79701" stroke-linecap="butt" stroke-miterlimit="10" stroke-linejoin="miter" fill="none" stroke="#409f9f" d="M66.09337-3.76384 69.94754-5.30547"/>
<path transform="matrix(1.00005,0,0,-1.00003,53.075998,55.38436)" stroke-width=".79701" stroke-linecap="butt" stroke-miterlimit="10" stroke-linejoin="miter" fill="none" stroke="#409f9f" d="M71.5671-.64287 73.54332-2.98468"/>
<path transform="matrix(1.00005,0,0,-1.00003,53.075998,55.38436)" stroke-width=".79701" stroke-linecap="butt" stroke-miterlimit="10" stroke-linejoin="miter" fill="none" stroke="#409f9f" d="M77.03459 2.26364 77.1453-.44943"/>
<path transform="matrix(1.00005,0,0,-1.00003,53.075998,55.38436)" stroke-width=".79701" stroke-linecap="butt" stroke-miterlimit="10" stroke-linejoin="miter" fill="none" stroke="#409f9f" d="M82.20732 5.01723 81.04205 2.23875"/>
<path transform="matrix(1.00005,0,0,-1.00003,53.075998,55.38436)" stroke-width=".79701" stroke-linecap="butt" stroke-miterlimit="10" stroke-linejoin="miter" fill="none" stroke="#409f9f" d="M87.13405 7.71866 85.18483 4.97908"/>
<path transform="matrix(1.00005,0,0,-1.00003,53.075998,55.38436)" stroke-width=".79701" stroke-linecap="butt" stroke-miterlimit="10" stroke-linejoin="miter" fill="none" stroke="#409f9f" d="M91.91307 10.41034 89.47531 7.72917"/>
</svg>
