<svg xmlns="http://www.w3.org/2000/svg" xmlns:xlink="http://www.w3.org/1999/xlink" version="1.1" width="242" height="128" viewBox="0 0 242 128">
<defs>
<path id="font_1_2" d="M.43699647 0V.0289917L.35299684 .035995485C.33198548 .037994386 .31999208 .04598999 .31999208 .08496094V.67367556L.31498719 .6796875 .10899353 .6446991V.6197052L.20199585 .6087036C.21899414 .6067047 .22599793 .5987091 .22599793 .56973269V.08496094C.22599793 .065979007 .22299195 .053985597 .21699524 .04698181 .21199036 .039993287 .20399475 .036987306 .19299317 .035995485L.10899353 .0289917V0H.43699647Z"/>
<path id="font_1_3" d="M.4850006 .13195801 .45700074 .13696289C.43598939 .08299255 .41600038 .07598877 .37599183 .07598877H.11999512C.13598633 .1279602 .19499207 .19892884 .28799439 .2658844 .38398744 .33584596 .45799256 .38082887 .45799256 .49276734 .45799256 .63168337 .3659973 .6796875 .26098634 .6796875 .12399292 .6796875 .052993776 .5967102 .052993776 .54473879 .052993776 .51075747 .09098816 .49476625 .10798645 .49476625 .12599182 .49476625 .1329956 .50476077 .13699341 .5217438 .15299988 .5897064 .19198609 .64468386 .2539978 .64468386 .33099366 .64468386 .35299684 .5797119 .35299684 .50675967 .35299684 .3998108 .29899598 .33984376 .21199036 .26289369 .08898926 .15594483 .04598999 .08798218 .026992798 .009994507L.036987306 0H.45098878L.4850006 .13195801Z"/>
<path id="font_1_4" d="M.12998963 .3657837C.12998963 .3487854 .1349945 .33779908 .147995 .33779908 .1599884 .33779908 .18699646 .34777833 .23498535 .34777833 .31999208 .34777833 .36799623 .27090455 .36799623 .18403626 .36799623 .065216068 .30899049 .023269654 .23799134 .023269654 .17199707 .023269654 .1289978 .07319641 .10998535 .12911988 .10398865 .14808655 .09399414 .15707398 .07998657 .15707398 .06199646 .15707398 .026992798 .13809204 .026992798 .10215759 .026992798 .05921936 .09599304-.01171875 .23699951-.01171875 .38198854-.01171875 .47299195 .06121826 .47299195 .18902588 .47299195 .32281495 .35798646 .3627777 .30299378 .3677826V.3717804C.35699464 .38078309 .44400025 .4207611 .44400025 .5197296 .44400025 .6306915 .35699464 .6796875 .25 .6796875 .117996219 .6796875 .052993776 .60369876 .052993776 .5607147 .052993776 .5297241 .08799744 .51272585 .101989749 .51272585 .114990238 .51272585 .12298584 .5197296 .1269989 .5327301 .14898682 .60069277 .18699646 .64468386 .24299622 .64468386 .32199098 .64468386 .34098817 .57470706 .34098817 .51872256 .34098817 .4587555 .31999208 .38378907 .23498535 .38378907 .18699646 .38378907 .1599884 .39378358 .147995 .39378358 .1349945 .39378358 .12998963 .38378907 .12998963 .3657837Z"/>
<clipPath id="clip_2">
<path transform="matrix(1.00003,0,0,-1.00003,1.3920212,126.34834)" d="M0 0H238.63304V125.24803H0Z"/>
</clipPath>
<path id="font_3_4" d="M.070999149 .45393373 .07398987 .42893983 .14199829 .43093873C.1639862 .43193055 .16899109 .41493226 .1769867 .36291505 .18798828 .28489686 .20999146 .09286499 .20999146 .0128479 .20999146-.017166138 .20799256-.058166505 .18598938-.11117554 .16799927-.15318299 .14199829-.18218994 .12199402-.18218994 .10699463-.18218994 .09599304-.17118836 .08099365-.15118408 .068984989-.13517761 .06098938-.127182 .04598999-.127182 .019989014-.12818909-.005004883-.15818787-.005004883-.18719483-.005004883-.21418762 .023986817-.2421875 .067993167-.2421875 .15299988-.2421875 .18998719-.17919922 .27799989-.027160645 .2979889 .0068511965 .35798646 .11286926 .41999818 .21488953 .47698976 .30891419 .5399933 .40592958 .5399933 .4459381 .5399933 .48094178 .5289917 .5019531 .5219879 .5019531 .5029907 .5019531 .46899415 .49394227 .44400025 .47694398 .44499208 .4419403 .44299317 .3809204 .43099977 .33891297 .4149933 .28289796 .35598756 .17488098 .2899933 .06085205H.2869873C.27999879 .21388245 .26098634 .42492677 .24699402 .49795533L.23899842 .5019531 .070999149 .45393373Z"/>
<path id="font_3_2" d="M.18399048 .0002746582 .3600006 .7371979 .35499574 .7421875 .17599488 .71824648 .16999817 .6953125 .22698975 .68829348C.2519989 .6852875 .2559967 .67826846 .24699402 .63920596L.09199524-.01171875 .18399048 .0002746582M.5499878 .5019531C.5099945 .5019531 .46099855 .47094728 .4099884 .427948 .35398866 .378891 .3019867 .32374574 .25498963 .26660157 .27398683 .2027893 .2979889 .14396668 .32598878 .08314514 .35499574 .01927185 .38398744-.01171875 .43199159-.01171875 .49598695-.01171875 .5399933 .045272829 .56999209 .12901306L.54499819 .14196778C.5169983 .08215332 .49198915 .043273927 .46499635 .043273927 .44799806 .043273927 .43399049 .062210084 .40899659 .11405945 .37799073 .17686463 .35299684 .2416687 .33399964 .30870057 .3619995 .34075929 .43998719 .4259491 .47599793 .4259491 .4909973 .4259491 .5019989 .42092896 .5249939 .40690614 .5319977 .40293885 .5419922 .39894105 .5529938 .39894105 .58099368 .39894105 .60198977 .427948 .60198977 .4529419 .60198977 .47994996 .58898928 .5019531 .5499878 .5019531Z"/>
<path id="font_3_1" d="M.35198976 .7371979 .34700013 .7421875 .16699219 .71824648 .16099549 .6953125 .21798706 .68829348C.24299622 .6852875 .24699402 .67826846 .23799134 .63920596L.09199524-.01171875 .1789856 .0002746582C.20599365 .10221863 .22099304 .15718079 .24598694 .22012329 .27598573 .2980652 .375 .44995118 .46199037 .44995118 .49398805 .44995118 .5059967 .42097474 .49398805 .38000489L.4119873 .096221927C.3929901 .030273438 .40699769-.01171875 .46398927-.01171875 .5329895-.01171875 .58898928 .056259157 .6230011 .13220215L.598999 .14619446C.58099368 .11122131 .5369873 .040267946 .5089874 .040267946 .4889984 .040267946 .4889984 .06324768 .49899293 .0952301L.5779877 .35702516C.60198977 .43595887 .58898928 .5019531 .5079956 .5019531 .41299439 .5019531 .30699159 .39898683 .24299622 .27908326H.23999024L.35198976 .7371979Z"/>
<path id="font_1_12" d="M.59098818 0V.0289917C.5219879 .033996583 .5159912 .035995485 .5159912 .08699036V.49609376L.5089874 .50209048 .35198976 .47709657V.45210267L.3899994 .44711305C.41600038 .44309999 .42199708 .43811036 .42199708 .40213014V.17721558C.42199708 .14923096 .4189911 .12724304 .4139862 .117248538 .3909912 .071258548 .34298707 .042266847 .29100038 .042266847 .23298645 .042266847 .18998719 .07826233 .18998719 .15621948V.49609376L.18299866 .50209048 .025985718 .47709657V.45210267L.06399536 .44711305C.08999634 .44309999 .09599304 .43811036 .09599304 .40213014V.13822937C.09599304 .023269654 .1639862-.01171875 .23799134-.01171875 .32299806-.01171875 .3919983 .04626465 .42099 .060272218L.43099977 0H.59098818Z"/>
<path id="font_1_10" d="M.19400025 .32104493C.19400025 .34602357 .19799805 .36001588 .20698548 .37800599 .22999573 .42396546 .272995 .44795228 .32598878 .44795228 .3659973 .44795228 .45498658 .42196656 .45498658 .25009156 .45498658 .10321045 .40899659 .023269654 .30899049 .023269654 .25698854 .023269654 .21699524 .050247194 .20098877 .096221927 .19499207 .11419678 .19400025 .13418579 .19400025 .15716553V.32104493M.02999878 .47694398V.45195008L.067993167 .4469452C.09399414 .4429474 .099990848 .43795777 .099990848 .40197755V-.14324951C.099990848-.19444275 .09498596-.19645691 .024993897-.20147705V-.23046875H.28399659V-.20147705C.19999695-.19645691 .19400025-.19444275 .19400025-.14324951V.011276245C.21499634-.0007324219 .2619934-.01171875 .30799867-.01171875 .44299317-.01171875 .5589905 .050247194 .5589905 .25608827 .5589905 .32704164 .54599 .5019531 .3639984 .5019531 .29100038 .5019531 .23298645 .4529419 .19400025 .42796327L.18099976 .5019531 .02999878 .47694398Z"/>
<path id="font_1_11" d="M.36698915 .35102845V.46794129C.33399964 .49194337 .2829895 .5019531 .23799134 .5019531 .12998963 .5019531 .056991579 .45095826 .055999757 .35603334 .056991579 .27308656 .12399292 .2361145 .20698548 .21113587 .2519989 .19714356 .31498719 .17416382 .31498719 .10621643 .31498719 .055252077 .2749939 .023269654 .22200012 .023269654 .14099121 .023269654 .09599304 .082229617 .07598877 .16716004H.04699707L.056991579 .03627014C.09298706 .004272461 .1539917-.01171875 .21299744-.01171875 .33198548-.01171875 .3999939 .051254274 .3999939 .13618469 .3999939 .2241211 .34599305 .26409913 .24299622 .29606629 .20199585 .30906678 .13598633 .3300476 .13598633 .3860016 .13699341 .43795777 .17599488 .46694947 .22599793 .46694947 .29699708 .46694947 .33099366 .4119873 .33799745 .35102845H.36698915Z"/>
<path id="font_1_8" d="M.18899536 .7361908 .18199158 .7421875 .024993897 .71717837V.6921692L.06298828 .6881714C.08898926 .6851654 .09498596 .6801758 .09498596 .6421509V.087005618C.09498596 .035995485 .09199524 .033996583 .019989014 .0289917V0H.2639923V.0289917C.19299317 .033996583 .18899536 .035995485 .18899536 .087005618V.7361908Z"/>
<path id="font_1_9" d="M.28799439 .5019531C.12799073 .5019531 .04899597 .40698243 .04899597 .24510193 .04899597 .083236698 .12799073-.01171875 .28799439-.01171875 .44999696-.01171875 .5279999 .083236698 .5279999 .24510193 .5279999 .40698243 .44999696 .5019531 .28799439 .5019531M.15299988 .24510193C.15299988 .38301087 .19699097 .46694947 .28799439 .46694947 .3809967 .46694947 .42399598 .38301087 .42399598 .24510193 .42399598 .10720825 .3809967 .023269654 .28799439 .023269654 .19699097 .023269654 .15299988 .10720825 .15299988 .24510193Z"/>
<path id="font_1_7" d="M.44099427 .2627716C.46199037 .2627716 .48098756 .2677765 .48098756 .30078126 .48098756 .35983277 .46199037 .5019531 .2789917 .5019531 .12298584 .5019531 .04899597 .39086915 .04899597 .24082947 .04899597 .08317566 .116989139-.01373291 .27999879-.01171875 .3909912-.010726929 .44799806 .050247194 .47499085 .1290741L.44499208 .14503479C.4169922 .08717346 .3789978 .039276124 .2999878 .039276124 .17599488 .039276124 .15098572 .15901184 .15299988 .2627716H.44099427M.1539917 .30078126C.1539917 .34181214 .16899109 .46694947 .272995 .46694947 .3659973 .46694947 .3769989 .37184144 .3769989 .33280946 .3769989 .31378175 .37098695 .30078126 .34298707 .30078126H.1539917Z"/>
<path id="font_1_6" d="M.1329956-.01171875C.17199707-.01171875 .19499207 .015274048 .19599915 .05126953 .19599915 .088272098 .17199707 .11627197 .1329956 .11627197 .09498596 .11627197 .069992069 .088272098 .069992069 .05126953 .069992069 .015274048 .09498596-.01171875 .1329956-.01171875M.1329956 .3622284C.17199707 .3622284 .19499207 .3892212 .19599915 .42622376 .19599915 .46221925 .17199707 .49023438 .1329956 .49023438 .09498596 .49023438 .069992069 .46221925 .069992069 .42622376 .069992069 .3892212 .09498596 .3622284 .1329956 .3622284Z"/>
<path id="font_1_1" d="M.15899658-.0146484379 .36898805 .70703127H.3019867L.09199524-.0146484379H.15899658Z"/>
<path id="font_1_5" d="M.2999878 .17871094V.0769043C.2999878 .04296875 .2889862 .036987306 .2649994 .034988405L.20098877 .0289917V0H.46499635V.0289917L.41999818 .033981325C.39698792 .036987306 .3899994 .04296875 .3899994 .0769043V.17871094H.49299623V.22570801H.3899994V.66796877H.31698609C.22299195 .5298767 .11099243 .35577394 .018997193 .19970703L.027999878 .17871094H.2999878M.09098816 .22570801C.15098572 .33476258 .22099304 .4498291 .2979889 .5709076H.2999878V.22570801H.09098816Z"/>
<path id="font_3_3" d="M.42799378 .45222474 .43899537 .49023438H.31199647L.34599305 .6092224 .33399964 .6162262 .23699951 .53923037 .22399903 .49023438H.14299011L.13198853 .45222474H.21499634L.125 .08627319C.10998535 .029266358 .12199402-.01171875 .17199707-.01171875 .2519989-.01171875 .31599427 .054275514 .35598756 .1292572L.33399964 .1462555C.31098939 .10726929 .2599945 .040267946 .22898865 .040267946 .20799256 .040267946 .20799256 .0632782 .21398926 .088272098L.30299378 .45222474H.42799378Z"/>
</defs>
<path transform="matrix(1.00003,0,0,-1.00003,1.3920212,126.34834)" stroke-width=".3985" stroke-linecap="butt" stroke-miterlimit="10" stroke-linejoin="miter" fill="none" stroke="#cbcbcb" d="M54.5447 0V125.24803M122.72557 0V125.24803M190.90644 0V125.24803"/>
<path transform="matrix(1.00003,0,0,-1.00003,1.3920212,126.34834)" stroke-width=".3985" stroke-linecap="butt" stroke-miterlimit="10" stroke-linejoin="miter" fill="none" stroke="#cbcbcb" d="M88.63513 0V125.24803M156.816 0V125.24803M224.99687 0V125.24803"/>
<path transform="matrix(1.00003,0,0,-1.00003,1.3920212,126.34834)" stroke-width=".3985" stroke-linecap="butt" stroke-miterlimit="10" stroke-linejoin="miter" fill="none" stroke="#cbcbcb" d="M0 77.53448H238.63304"/>
<path transform="matrix(1.00003,0,0,-1.00003,1.3920212,126.34834)" stroke-width=".3985" stroke-linecap="butt" stroke-miterlimit="10" stroke-linejoin="miter" fill="none" stroke="#cbcbcb" d=""/>
<path transform="matrix(1.00003,0,0,-1.00003,1.3920212,126.34834)" stroke-width=".19925" stroke-linecap="butt" stroke-miterlimit="10" stroke-linejoin="miter" fill="none" stroke="#929292" d="M54.5447 16.47505V19.31009M122.72557 16.47505V19.31009M190.90644 16.47505V19.31009"/>
<path transform="matrix(1.00003,0,0,-1.00003,1.3920212,126.34834)" stroke-width=".19925" stroke-linecap="butt" stroke-miterlimit="10" stroke-linejoin="miter" fill="none" stroke="#929292" d="M88.63513 15.7665V20.01863M156.816 15.7665V20.01863M224.99687 15.7665V20.01863"/>
<path transform="matrix(1.00003,0,0,-1.00003,1.3920212,126.34834)" stroke-width=".19925" stroke-linecap="butt" stroke-miterlimit="10" stroke-linejoin="miter" fill="none" stroke="#929292" d="M19.03676 77.53448H21.87175"/>
<path transform="matrix(1.00003,0,0,-1.00003,1.3920212,126.34834)" stroke-width=".19925" stroke-linecap="butt" stroke-miterlimit="10" stroke-linejoin="miter" fill="none" stroke="#929292" d=""/>
<path transform="matrix(1.00003,0,0,-1.00003,1.3920212,126.34834)" stroke-width=".99628" stroke-linecap="butt" stroke-miterlimit="10" stroke-linejoin="miter" fill="none" stroke="#000000" d="M0 17.89256H235.74384"/>
<path transform="matrix(1.00003,0,0,-1.00003,237.14295,108.455249)" d="M2.8892 0-1.73352 2.31136 0 0-1.73352-2.31136"/>
<path transform="matrix(1.00003,0,0,-1.00003,1.3920212,126.34834)" stroke-width=".99628" stroke-linecap="butt" stroke-miterlimit="10" stroke-linejoin="miter" fill="none" stroke="#000000" d="M20.45425 0V122.35881"/>
<path transform="matrix(0,-1.00003,-1.00003,-0,21.846886,3.985855)" d="M2.8892 0-1.73352 2.31136 0 0-1.73352-2.31136"/>
<use data-text="1" xlink:href="#font_1_2" transform="matrix(7.3327205,0,0,-7.3327205,88.084629,119.189128)"/>
<use data-text="2" xlink:href="#font_1_3" transform="matrix(7.3327205,0,0,-7.3327205,156.26767,119.189128)"/>
<use data-text="3" xlink:href="#font_1_4" transform="matrix(7.3327205,0,0,-7.3327205,224.45072,119.189128)"/>
<g clip-path="url(#clip_2)">
<path transform="matrix(1.00003,0,0,-1.00003,1.3920212,126.34834)" stroke-width=".99628" stroke-linecap="butt" stroke-dasharray="2.98883,2.98883" stroke-miterlimit="10" stroke-linejoin="miter" fill="none" stroke="#000000" d="M88.63513 47.71353V47.71353L190.90644 92.44498"/>
<path transform="matrix(1.00003,0,0,-1.00003,1.3920212,126.34834)" stroke-width=".99628" stroke-linecap="butt" stroke-dasharray="2.98883,2.98883" stroke-miterlimit="10" stroke-linejoin="miter" fill="none" stroke="#000000" d="M88.63513 17.89256V17.89256 47.71353"/>
<path transform="matrix(1.00003,0,0,-1.00003,1.3920212,126.34834)" stroke-width=".99628" stroke-linecap="butt" stroke-dasharray="2.98883,2.98883" stroke-miterlimit="10" stroke-linejoin="miter" fill="none" stroke="#000000" d="M122.72557 17.89256V17.89256 62.62401"/>
<path transform="matrix(1.00003,0,0,-1.00003,1.3920212,126.34834)" stroke-width=".99628" stroke-linecap="butt" stroke-dasharray="2.98883,2.98883" stroke-miterlimit="10" stroke-linejoin="miter" fill="none" stroke="#000000" d="M88.63513 47.71353V47.71353H190.90644"/>
<path transform="matrix(1.00003,0,0,-1.00003,1.3920212,126.34834)" stroke-width=".99628" stroke-linecap="butt" stroke-dasharray="2.98883,2.98883" stroke-miterlimit="10" stroke-linejoin="miter" fill="none" stroke="#000000" d="M190.90644 17.89256V17.89256 92.44498"/>
<use data-text="y" xlink:href="#font_3_4" transform="matrix(9.165875,0,0,-9.165875,76.81729,94.685398)"/>
<use data-text="k" xlink:href="#font_3_2" transform="matrix(6.9661095,0,0,-6.9661095,81.50944,96.384449)"/>
<use data-text="y" xlink:href="#font_3_4" transform="matrix(9.165875,0,0,-9.165875,128.31684,94.685398)"/>
<use data-text="k" xlink:href="#font_3_2" transform="matrix(6.9661095,0,0,-6.9661095,133.00897,96.384449)"/>
<use data-text="h" xlink:href="#font_3_1" transform="matrix(9.165875,0,0,-9.165875,104.047107,89.18123)"/>
<use data-text="u" xlink:href="#font_1_12" transform="matrix(9.165875,0,0,-9.165875,93.7278,58.309297)"/>
<use data-text="p" xlink:href="#font_1_10" transform="matrix(9.165875,0,0,-9.165875,99.28232,58.309297)"/>
<use data-text="1" xlink:href="#font_1_2" transform="matrix(9.165875,0,0,-9.165875,106.917499,58.309297)"/>
<use data-text="s" xlink:href="#font_1_11" transform="matrix(9.165875,0,0,-9.165875,24.753724,-8.440704)"/>
<use data-text="l" xlink:href="#font_1_8" transform="matrix(9.165875,0,0,-9.165875,28.750046,-8.440704)"/>
<use data-text="o" xlink:href="#font_1_9" transform="matrix(9.165875,0,0,-9.165875,31.307328,-8.440704)"/>
<use data-text="p" xlink:href="#font_1_10" transform="matrix(9.165875,0,0,-9.165875,36.59604,-8.440704)"/>
<use data-text="e" xlink:href="#font_1_7" transform="matrix(9.165875,0,0,-9.165875,42.16889,-8.440704)"/>
<use data-text=":" xlink:href="#font_1_6" transform="matrix(9.165875,0,0,-9.165875,46.88015,-8.440704)"/>
<use data-text="3" xlink:href="#font_1_4" transform="matrix(4.924348,0,0,-4.924348,51.872545,-11.441788)"/>
<use data-text="/" xlink:href="#font_1_1" transform="matrix(9.165875,0,0,-9.165875,53.997606,-8.440704)"/>
<use data-text="4" xlink:href="#font_1_5" transform="matrix(4.924348,0,0,-4.924348,57.2377,-8.440704)"/>
</g>
<path transform="matrix(1.00003,0,0,-1.00003,1.3920212,126.34834)" d="M90.62769 47.71353C90.62769 48.814 89.7356 49.70609 88.63513 49.70609 87.53465 49.70609 86.64258 48.814 86.64258 47.71353 86.64258 46.61305 87.53465 45.72098 88.63513 45.72098 89.7356 45.72098 90.62769 46.61305 90.62769 47.71353ZM88.63513 47.71353" fill="#0000cc"/>
<path transform="matrix(1.00003,0,0,-1.00003,1.3920212,126.34834)" stroke-width=".99628" stroke-linecap="butt" stroke-miterlimit="10" stroke-linejoin="miter" fill="none" stroke="#0000ff" d="M90.62769 47.71353C90.62769 48.814 89.7356 49.70609 88.63513 49.70609 87.53465 49.70609 86.64258 48.814 86.64258 47.71353 86.64258 46.61305 87.53465 45.72098 88.63513 45.72098 89.7356 45.72098 90.62769 46.61305 90.62769 47.71353ZM88.63513 47.71353"/>
<path transform="matrix(1.00003,0,0,-1.00003,1.3920212,126.34834)" d="M124.71812 62.62401C124.71812 63.72449 123.82603 64.61656 122.72557 64.61656 121.62509 64.61656 120.73302 63.72449 120.73302 62.62401 120.73302 61.52354 121.62509 60.63145 122.72557 60.63145 123.82603 60.63145 124.71812 61.52354 124.71812 62.62401ZM122.72557 62.62401" fill="#0000cc"/>
<path transform="matrix(1.00003,0,0,-1.00003,1.3920212,126.34834)" stroke-width=".99628" stroke-linecap="butt" stroke-miterlimit="10" stroke-linejoin="miter" fill="none" stroke="#0000ff" d="M124.71812 62.62401C124.71812 63.72449 123.82603 64.61656 122.72557 64.61656 121.62509 64.61656 120.73302 63.72449 120.73302 62.62401 120.73302 61.52354 121.62509 60.63145 122.72557 60.63145 123.82603 60.63145 124.71812 61.52354 124.71812 62.62401ZM122.72557 62.62401"/>
<path transform="matrix(1.00003,0,0,-1.00003,1.3920212,126.34834)" d="M192.89899 92.44498C192.89899 93.54544 192.00691 94.43753 190.90644 94.43753 189.80597 94.43753 188.91388 93.54544 188.91388 92.44498 188.91388 91.3445 189.80597 90.45242 190.90644 90.45242 192.00691 90.45242 192.89899 91.3445 192.89899 92.44498ZM190.90644 92.44498" fill="#0000cc"/>
<path transform="matrix(1.00003,0,0,-1.00003,1.3920212,126.34834)" stroke-width=".99628" stroke-linecap="butt" stroke-miterlimit="10" stroke-linejoin="miter" fill="none" stroke="#0000ff" d="M192.89899 92.44498C192.89899 93.54544 192.00691 94.43753 190.90644 94.43753 189.80597 94.43753 188.91388 93.54544 188.91388 92.44498 188.91388 91.3445 189.80597 90.45242 190.90644 90.45242 192.00691 90.45242 192.89899 91.3445 192.89899 92.44498ZM190.90644 92.44498"/>
<path transform="matrix(1.00003,0,0,-1.00003,1.3920212,126.34834)" stroke-width=".99628" stroke-linecap="butt" stroke-miterlimit="10" stroke-linejoin="miter" fill="none" stroke="#0000ff" d=""/>
<use data-text="t" xlink:href="#font_3_3" transform="matrix(10.036701,0,0,-10.036701,231.83895,104.66969)"/>
<use data-text="y" xlink:href="#font_3_4" transform="matrix(10.036701,0,0,-10.036701,26.08976,9.757843)"/>
</svg>
