<svg xmlns="http://www.w3.org/2000/svg" xmlns:xlink="http://www.w3.org/1999/xlink" version="1.1" width="154" height="71" viewBox="0 0 154 71">
<defs>
<path id="font_1_1" d="M.42799378 .45222474 .43899537 .49023438H.31199647L.34599305 .6092224 .33399964 .6162262 .23699951 .53923037 .22399903 .49023438H.14299011L.13198853 .45222474H.21499634L.125 .08627319C.10998535 .029266358 .12199402-.01171875 .17199707-.01171875 .2519989-.01171875 .31599427 .054275514 .35598756 .1292572L.33399964 .1462555C.31098939 .10726929 .2599945 .040267946 .22898865 .040267946 .20799256 .040267946 .20799256 .0632782 .21398926 .088272098L.30299378 .45222474H.42799378Z"/>
<path id="font_2_2" d="M.6349945 .2529297V.31092835H.084991458V.2529297H.6349945Z"/>
<path id="font_3_5" d="M.4850006 .13195801 .45700074 .13696289C.43598939 .08299255 .41600038 .07598877 .37599183 .07598877H.11999512C.13598633 .1279602 .19499207 .19892884 .28799439 .2658844 .38398744 .33584596 .45799256 .38082887 .45799256 .49276734 .45799256 .63168337 .3659973 .6796875 .26098634 .6796875 .12399292 .6796875 .052993776 .5967102 .052993776 .54473879 .052993776 .51075747 .09098816 .49476625 .10798645 .49476625 .12599182 .49476625 .1329956 .50476077 .13699341 .5217438 .15299988 .5897064 .19198609 .64468386 .2539978 .64468386 .33099366 .64468386 .35299684 .5797119 .35299684 .50675967 .35299684 .3998108 .29899598 .33984376 .21199036 .26289369 .08898926 .15594483 .04598999 .08798218 .026992798 .009994507L.036987306 0H.45098878L.4850006 .13195801Z"/>
<path id="font_3_4" d="M.43699647 0V.0289917L.35299684 .035995485C.33198548 .037994386 .31999208 .04598999 .31999208 .08496094V.67367556L.31498719 .6796875 .10899353 .6446991V.6197052L.20199585 .6087036C.21899414 .6067047 .22599793 .5987091 .22599793 .56973269V.08496094C.22599793 .065979007 .22299195 .053985597 .21699524 .04698181 .21199036 .039993287 .20399475 .036987306 .19299317 .035995485L.10899353 .0289917V0H.43699647Z"/>
<path id="font_1_2" d="M.5329895 .48995973C.5039978 .388031 .48799134 .33506776 .46199037 .2741089 .41799928 .173172 .33099366 .040267946 .24798584 .040267946 .21598816 .040267946 .20799256 .070251468 .22299195 .12820435L.31900025 .4970703 .31399537 .50205996 .13198853 .47375489 .12599182 .4497528 .18798828 .44476319C.21199036 .44276429 .21099854 .42778016 .20298767 .39682008L.13398743 .13316345C.11299133 .053253175 .12098694-.01171875 .20098877-.01171875 .29699708-.01171875 .4019928 .09420776 .46199037 .21005249H.46398927L.43099977 .096206668C.4119873 .029266358 .42399598-.01171875 .47698976-.01171875 .548996-.01171875 .60899356 .057250978 .6439972 .13116455L.6199951 .14613343C.59999087 .11218262 .55599978 .040267946 .5279999 .040267946 .5069885 .040267946 .5069885 .06324768 .5149994 .09420776L.621994 .5019531 .5329895 .48995973Z"/>
<path id="font_3_1" d="M.1749878 .2822113C.1749878 .56832888 .2619934 .65437319 .32499696 .66737368V.6923828C.1499939 .685379 .10499573 .46829225 .10499573 .2822113 .10499573 .09614563 .1499939-.12094116 .32499696-.12792969V-.10293579C.2669983-.090927127 .1749878-.0059051516 .1749878 .2822113Z"/>
<path id="font_3_2" d="M.1749878 .2822113C.1749878-.0059051516 .08299255-.090927127 .024993897-.10293579V-.12792969C.19999695-.12094116 .24499512 .09614563 .24499512 .2822113 .24499512 .46829225 .19999695 .685379 .024993897 .6923828V.66737368C.08799744 .65437319 .1749878 .56832888 .1749878 .2822113Z"/>
<path id="font_2_4" d="M.6349945 .14315796V.20117188H.084991458V.14315796H.6349945M.6349945 .36288453V.42089845H.084991458V.36288453H.6349945Z"/>
<path id="font_3_3" d="M.2649994 .64468386C.3600006 .64468386 .3869934 .49682618 .3869934 .33398438 .3869934 .17112732 .3600006 .023269654 .2649994 .023269654 .16999817 .023269654 .14299011 .17112732 .14299011 .33398438 .14299011 .49682618 .16999817 .64468386 .2649994 .64468386M.2649994 .6796875C.099990848 .6796875 .040985109 .53378298 .040985109 .33398438 .040985109 .13417053 .099990848-.01171875 .2649994-.01171875 .42999269-.01171875 .4889984 .13417053 .4889984 .33398438 .4889984 .53378298 .42999269 .6796875 .2649994 .6796875Z"/>
<path id="font_3_9" d="M.18998719 .7480469C.13999939 .7020416 .07199097 .6350403 .07199097 .56404116 .07199097 .5100403 .10398865 .47703553 .13699341 .4780426 .16699219 .4780426 .18499756 .4990387 .18499756 .5260315 .18499756 .56204226 .1519928 .58303835 .1519928 .6200409 .1519928 .6580353 .17599488 .6960449 .20698548 .7320404L.18998719 .7480469M.36999513 .7480469C.31999208 .7020416 .2519989 .6350403 .2519989 .56404116 .2519989 .5100403 .28399659 .47703553 .31698609 .4780426 .34700013 .4780426 .36499024 .4990387 .36499024 .5260315 .36499024 .56204226 .33198548 .58303835 .33198548 .6200409 .33198548 .6580353 .35598756 .6960449 .3869934 .7320404L.36999513 .7480469Z"/>
<path id="font_3_8" d="M.28799439 .5019531C.12799073 .5019531 .04899597 .40698243 .04899597 .24510193 .04899597 .083236698 .12799073-.01171875 .28799439-.01171875 .44999696-.01171875 .5279999 .083236698 .5279999 .24510193 .5279999 .40698243 .44999696 .5019531 .28799439 .5019531M.15299988 .24510193C.15299988 .38301087 .19699097 .46694947 .28799439 .46694947 .3809967 .46694947 .42399598 .38301087 .42399598 .24510193 .42399598 .10720825 .3809967 .023269654 .28799439 .023269654 .19699097 .023269654 .15299988 .10720825 .15299988 .24510193Z"/>
<path id="font_3_6" d="M.20098877 .45022584H.32299806V.49023438H.20098877L.19699097 .60220339C.19400025 .6971741 .22898865 .70718386 .24499512 .70718386 .2659912 .70718386 .28799439 .6971741 .31298829 .6391907 .31799317 .62919619 .32499696 .6221924 .33999635 .6221924 .3600006 .6221924 .3889923 .6391907 .3889923 .66918948 .3889923 .70217898 .34700013 .7421875 .2669983 .7421875 .21199036 .7421875 .16499329 .71717837 .13999939 .67918398 .116989139 .64419558 .10699463 .5912018 .10699463 .5252228V.49023438H.02999878V.45022584H.10699463V.087020877C.10699463 .035995485 .10398865 .033996583 .03199768 .0289917V0H.29599V.0289917C.20498657 .032989503 .20098877 .034988405 .20098877 .08602905V.45022584Z"/>
<path id="font_3_10" d="M.08898926 .47218324C.13899231 .5181732 .20698548 .58517459 .20698548 .6561737 .20698548 .71017459 .1749878 .7431793 .14199829 .7421875 .11199951 .7421875 .09399414 .72117617 .09399414 .69418337 .09399414 .6581726 .1269989 .6371765 .1269989 .60017397 .1269989 .56217959 .102996829 .5241852 .07199097 .48817445L.08898926 .47218324M.2689972 .47218324C.31900025 .5181732 .3869934 .58517459 .3869934 .6561737 .3869934 .71017459 .35499574 .7431793 .32199098 .7421875 .2919922 .7421875 .27398683 .72117617 .27398683 .69418337 .27398683 .6581726 .30699159 .6371765 .30699159 .60017397 .30699159 .56217959 .2829895 .5241852 .2519989 .48817445L.2689972 .47218324Z"/>
<path id="font_3_7" d="M.5289917 .34295655C.5289917 .4439392 .47399903 .5019531 .38198854 .5019531 .30799867 .5019531 .2619934 .46594239 .19999695 .4259491L.18598938 .5019531 .036987306 .47694398V.45195008L.07499695 .4469452C.100997928 .4429474 .10699463 .4379425 .10699463 .40194703V.08699036C.10699463 .035995485 .10398865 .033996583 .03199768 .0289917V0H.27598573V.0289917C.20498657 .033996583 .20098877 .035995485 .20098877 .08699036V.32095338C.20098877 .34596253 .20298767 .35995484 .21099854 .37594605 .23199463 .4149475 .2769928 .44795228 .32998658 .44795228 .397995 .44795228 .43499757 .40994264 .43499757 .32295228V.08699036C.43499757 .035995485 .43199159 .033996583 .3600006 .0289917V0H.60398867V.0289917C.5329895 .033996583 .5289917 .035995485 .5289917 .08699036V.34295655Z"/>
<path id="font_2_1" d="M.397995-.82902529 .22499085-.43717958C.22099304-.42918397 .21899414-.42318727 .21199036-.42318727 .20899964-.42318727 .20799256-.42419435 .19799805-.43118287L.09700012-.50315859 .11099243-.52215579C.1269989-.51815798 .14299011-.51416018 .15299988-.51416018 .15499878-.51416018 .1559906-.51416018 .1559906-.515152L.35299684-.95996096H.38198854C.38198854-.95996096 .8470001 .0016326904 .84999087 .0026245118 .8549957 .013626099 .8529968 .014633179 .8529968 .019622803 .8529968 .03062439 .84999087 .057617189 .83799746 .057617189H.82899478L.397995-.82902529Z"/>
<path id="font_2_3" d="M.07998657 .28173829C.07998657 .24674988 .10798645 .21875 .14299011 .21875 .17799378 .21875 .20599365 .24674988 .20599365 .28173829 .20599365 .31674195 .17799378 .34474183 .14299011 .34474183 .10798645 .34474183 .07998657 .31674195 .07998657 .28173829Z"/>
</defs>
<path transform="matrix(1.00006,0,0,-1,76.896579,43.468004)" d="M-75.40222-25.79553V41.66972H19.84267V-25.79553ZM19.84267 41.66972" fill="#d9d9ff"/>
<path transform="matrix(1.00006,0,0,-1,76.896579,43.468004)" d="M19.84267-25.79553V41.66972H75.40222V-25.79553ZM75.40222 41.66972" fill="#d9f0d9"/>
<path transform="matrix(1.00006,0,0,-1,76.896579,43.468004)" stroke-width=".3985" stroke-linecap="butt" stroke-miterlimit="10" stroke-linejoin="miter" fill="none" stroke="#000000" d="M-75.40222 0H74.94394"/>
<path transform="matrix(1.00006,0,0,-1,151.845,43.468004)" stroke-width=".31879" stroke-linecap="round" stroke-linejoin="round" fill="none" stroke="#000000" d="M-1.19551 1.59401C-1.09587 .99626 0 .09961 .29886 0 0-.09961-1.09587-.99626-1.19551-1.59401"/>
<path transform="matrix(1.00006,0,0,-1,76.896579,43.468004)" stroke-width=".3985" stroke-linecap="butt" stroke-miterlimit="10" stroke-linejoin="miter" fill="none" stroke="#000000" d="M0-25.79553V41.21144"/>
<path transform="matrix(0,-1,-1.00006,-0,76.896579,2.2565613)" stroke-width=".31879" stroke-linecap="round" stroke-linejoin="round" fill="none" stroke="#000000" d="M-1.19551 1.59401C-1.09587 .99626 0 .09961 .29886 0 0-.09961-1.09587-.99626-1.19551-1.59401"/>
<use data-text="t" xlink:href="#font_1_1" transform="matrix(7.3329398,0,0,-7.3325,148.75687,51.386)"/>
<path transform="matrix(1.00006,0,0,-1,76.896579,43.468004)" stroke-width=".3985" stroke-linecap="butt" stroke-miterlimit="10" stroke-linejoin="miter" fill="none" stroke="#929292" d="M-39.68535 1.39478V-1.39478"/>
<use data-text="&#x2212;" xlink:href="#font_2_2" transform="matrix(7.3329398,0,0,-7.3325,32.625917,53.171007)"/>
<use data-text="2" xlink:href="#font_3_5" transform="matrix(7.3329398,0,0,-7.3325,37.903215,53.171007)"/>
<path transform="matrix(1.00006,0,0,-1,76.896579,43.468004)" stroke-width=".3985" stroke-linecap="butt" stroke-miterlimit="10" stroke-linejoin="miter" fill="none" stroke="#929292" d="M-19.84267 1.39478V-1.39478"/>
<use data-text="&#x2212;" xlink:href="#font_2_2" transform="matrix(7.3329398,0,0,-7.3325,52.46911,53.171007)"/>
<use data-text="1" xlink:href="#font_3_4" transform="matrix(7.3329398,0,0,-7.3325,57.746408,53.171007)"/>
<path transform="matrix(1.00006,0,0,-1,76.896579,43.468004)" stroke-width=".3985" stroke-linecap="butt" stroke-miterlimit="10" stroke-linejoin="miter" fill="none" stroke="#929292" d="M19.84267 1.39478V-1.39478"/>
<use data-text="1" xlink:href="#font_3_4" transform="matrix(7.3329398,0,0,-7.3325,94.795658,53.171007)"/>
<path transform="matrix(1.00006,0,0,-1,76.896579,43.468004)" stroke-width=".3985" stroke-linecap="butt" stroke-miterlimit="10" stroke-linejoin="miter" fill="none" stroke="#929292" d="M39.68535 1.39478V-1.39478"/>
<use data-text="2" xlink:href="#font_3_5" transform="matrix(7.3329398,0,0,-7.3325,114.63984,53.171007)"/>
<path transform="matrix(1.00006,0,0,-1,76.896579,43.468004)" stroke-width=".3985" stroke-linecap="butt" stroke-miterlimit="10" stroke-linejoin="miter" fill="none" stroke="#929292" d="M19.84267 1.39478V-1.39478"/>
<path transform="matrix(1.00006,0,0,-1,76.896579,43.468004)" stroke-width=".3985" stroke-linecap="butt" stroke-miterlimit="10" stroke-linejoin="miter" fill="none" stroke="#929292" d="M1.39478-19.84267H-1.39478"/>
<use data-text="&#x2212;" xlink:href="#font_2_2" transform="matrix(7.3329398,0,0,-7.3325,62.936738,65.76501)"/>
<use data-text="1" xlink:href="#font_3_4" transform="matrix(7.3329398,0,0,-7.3325,68.214038,65.76501)"/>
<path transform="matrix(1.00006,0,0,-1,76.896579,43.468004)" stroke-width=".3985" stroke-linecap="butt" stroke-miterlimit="10" stroke-linejoin="miter" fill="none" stroke="#929292" d="M1.39478 19.84267H-1.39478"/>
<use data-text="1" xlink:href="#font_3_4" transform="matrix(7.3329398,0,0,-7.3325,68.21306,26.080002)"/>
<path transform="matrix(1.00006,0,0,-1,76.896579,43.468004)" stroke-width=".3985" stroke-linecap="butt" stroke-miterlimit="10" stroke-linejoin="miter" fill="none" stroke="#929292" d="M1.39478 19.84267H-1.39478"/>
<path transform="matrix(1.00006,0,0,-1,76.896579,43.468004)" stroke-width="1.19553" stroke-linecap="butt" stroke-miterlimit="10" stroke-linejoin="miter" fill="none" stroke="#0000ff" d="M-75.40222 19.84267H-74.9287-74.45515-73.98161-73.50807-73.03452-72.56097-72.08743-71.61389-71.14037-70.66681-70.19327-69.71973-69.24619-68.77266-68.29912-67.82558-67.35204-66.8785-66.40495-65.93141-65.45787-64.98433-64.51079-64.03725-63.5637-63.09018-62.61664-62.1431-61.66956-61.19601-60.72247-60.24893-59.77539-59.30185-58.82831-58.35477-57.88123-57.40768-56.93416-56.46062-55.98708-55.51353-55.03998-54.56645-54.09291-53.61935-53.14581-52.67227-52.19873-51.72519-51.25166-50.77812-50.30458-49.83102-49.35748-48.88394-48.41042-47.93687-47.46333-46.98979-46.51625-46.04271-45.56917-45.09564-44.62209-44.14854-43.675-43.20146-42.72794-42.2544-41.78085-41.30731-40.83377-40.36023-39.88669-39.41315-38.9396-38.46606-37.99252-37.51898-37.04544-36.57191-36.09837-35.62483-35.15129-34.67775-34.2042-33.73065-33.25711-32.78357-32.31003-31.83649-31.36295-30.88942-30.41588-29.94234-29.4688-28.99524-28.52171-28.04817-27.57463-27.10109-26.62755-26.154-25.68047-25.20692-24.7334-24.25986-23.7863-23.31276-22.83922-22.36569-21.89215-21.41861-20.94507-20.47153-19.99799-19.52444-19.05092-18.57736-18.10382-17.63028-17.15674-16.68321-16.20967-15.73613-15.26259-14.78903-14.31549-13.84195-13.36841-12.89487-12.42133-11.94778-11.47424-11.0007-10.52718-10.05363-9.5801-9.10655-8.63301-8.15947-7.68593-7.21239-6.73885-6.2653-5.79176-5.31822-4.8447-4.37115-3.89761-3.42407-2.95052-2.47697-2.00345-1.5299-1.05637-.58282-.10928 .36421 .83775 1.3113 1.78484 2.25838 2.73192 3.20546 3.679 4.15254 4.62608 5.09962 5.57317 6.0467 6.52025 6.99379 7.46733 7.94087 8.41441 8.88795 9.3615 9.83504 10.30858 10.7821 11.25565 11.72919 12.20273 12.67628 13.14981 13.62335 14.0969 14.57043 15.04398 15.51752 15.99106 16.46458 16.93813 17.41167 17.88522 18.35876 18.83229"/>
<path transform="matrix(1.00006,0,0,-1,76.896579,43.468004)" stroke-width=".79701" stroke-linecap="butt" stroke-dasharray="2.98883,2.98883" stroke-miterlimit="10" stroke-linejoin="miter" fill="none" stroke="#8080ff" d="M-75.40222 .0142-74.9287 .01573-74.45515 .01723-73.98161 .01875-73.50807 .02055-73.03452 .02238-72.56097 .02449-72.08743 .02693-71.61389 .02934-71.14037 .03177-70.66681 .0348-70.19327 .03783-69.71973 .04115-69.24619 .0448-68.77266 .04872-68.29912 .05298-67.82558 .05751-67.35204 .06235-66.8785 .06749-66.40495 .07326-65.93141 .0793-65.45787 .08595-64.98433 .09293-64.51079 .10051-64.03725 .10838-63.5637 .11716-63.09018 .12656-62.61664 .13623-62.1431 .14713-61.66956 .15833-61.19601 .17044-60.72247 .18347-60.24893 .19617-59.77539 .21223-59.30185 .22615-58.82831 .24402-58.35477 .26187-57.88123 .28157-57.40768 .30154-56.93416 .32333-56.46062 .34515-55.98708 .36905-55.51353 .3948-55.03998 .42265-54.56645 .45021-54.09291 .482-53.61935 .5138-53.14581 .5477-52.67227 .58525-52.19873 .6231-51.72519 .66275-51.25166 .70454-50.77812 .74995-50.30458 .79779-49.83102 .84714-49.35748 .89891-48.88394 .95251-48.41042 1.01004-47.93687 1.0715-47.46333 1.13509-46.98979 1.20049-46.51625 1.27011-46.04271 1.34338-45.56917 1.41878-45.09564 1.49841-44.62209 1.58168-44.14854 1.66888-43.675 1.76031-43.20146 1.85358-42.72794 1.95288-42.2544 2.054-41.78085 2.16118-41.30731 2.27231-40.83377 2.38736-40.36023 2.50667-39.88669 2.6317-39.41315 2.75856-38.9396 2.8936-38.46606 3.03046-37.99252 3.17337-37.51898 3.3202-37.04544 3.47311-36.57191 3.62994-36.09837 3.79256-35.62483 3.95938-35.15129 4.13196-34.67775 4.30876-34.2042 4.49135-33.73065 4.67786-33.25711 4.87042-32.78357 5.06874-32.31003 5.27129-31.83649 5.4778-31.36295 5.69003-30.88942 5.90833-30.41588 6.12875-29.94234 6.35706-29.4688 6.58716-28.99524 6.82332-28.52171 7.06343-28.04817 7.30777-27.57463 7.55574-27.10109 7.80977-26.62755 8.06592-26.154 8.32568-25.68047 8.58972-25.20692 8.85587-24.7334 9.12563-24.25986 9.39963-23.7863 9.67546-23.31276 9.95341-22.83922 10.23317-22.36569 10.51506-21.89215 10.79877-21.41861 11.08276-20.94507 11.36858-20.47153 11.65622-19.99799 11.94415-19.52444 12.22998-19.05092 12.51762-18.57736 12.80345-18.10382 13.08926-17.63028 13.37296-17.15674 13.65697-16.68321 13.93672-16.20967 14.21649-15.73613 14.49263-15.26259 14.76451-14.78903 15.03427-14.31549 15.29831-13.84195 15.56021-13.36841 15.81636-12.89487 16.06827-12.42133 16.31442-11.94778 16.55664-11.47424 16.79068-11.0007 17.01897-10.52718 17.24123-10.05363 17.45557-9.5801 17.66208-9.10655 17.86252-8.63301 18.05508-8.15947 18.23766-7.68593 18.41235-7.21239 18.57706-6.73885 18.7339-6.2653 18.88074-5.79176 19.01971-5.31822 19.14658-4.8447 19.26376-4.37115 19.37093-3.89761 19.46812-3.42407 19.55351-2.95052 19.6289-2.47697 19.69249-2.00345 19.74606-1.5299 19.78786-1.05637 19.81964-.58282 19.83751-.10928 19.84267 .36421 19.84326 .83775 19.82935 1.3113 19.80359 1.78484 19.76607 2.25838 19.71822 2.73192 19.65887 3.20546 19.58925 3.679 19.5081 4.15254 19.41664 4.62608 19.31552 5.09962 19.2023 5.57317 19.07936 6.0467 18.94614 6.52025 18.80322 6.99379 18.65063 7.46733 18.48987 7.94087 18.31909 8.41441 18.14046 8.88795 17.95183 9.3615 17.75743 9.83504 17.55309 10.30858 17.34264 10.7821 17.12222 11.25565 16.89787 11.72919 16.66565 12.20273 16.42766 12.67628 16.18362 13.14981 15.93352 13.62335 15.67949 14.0969 15.42123 14.57043 15.15752 15.04398 14.88956 15.51752 14.61737 15.99106 14.34366 16.46458 14.0657 16.93813 13.78595 17.41167 13.50406 17.88522 13.22217 18.35876 12.93634 18.83229 12.65053"/>
<path transform="matrix(1.00006,0,0,-1,76.896579,43.468004)" stroke-width="1.19553" stroke-linecap="butt" stroke-miterlimit="10" stroke-linejoin="miter" fill="none" stroke="#009900" d="M19.84267 12.03741 20.12181 11.86877 20.40097 11.69981 20.68015 11.52937 20.95929 11.36041 21.23846 11.19177 21.51762 11.02313 21.79677 10.8563 22.07593 10.68765 22.35507 10.52112 22.63425 10.3543 22.9134 10.18958 23.19257 10.02275 23.47173 9.85803 23.7509 9.69545 24.03004 9.53256 24.3092 9.36998 24.58836 9.20918 24.86751 9.05023 25.14668 8.88945 25.42583 8.73264 25.705 8.57579 25.98416 8.41927 26.2633 8.26422 26.54248 8.11163 26.82164 7.96056 27.10078 7.80977 27.37994 7.65898 27.6591 7.51215 27.93826 7.3653 28.21742 7.22026 28.49658 7.07555 28.77574 6.93445 29.05492 6.79366 29.33406 6.65468 29.61322 6.51572 29.89238 6.38068 30.17152 6.24593 30.4507 6.1127 30.72984 5.9819 31.00902 5.85292 31.28818 5.72395 31.56734 5.59889 31.8465 5.47386 32.12566 5.35062 32.4048 5.22952 32.68396 5.11052 32.96312 4.99335 33.24228 4.87646 33.52145 4.76324 33.8006 4.65001 34.07976 4.541 34.35893 4.4317 34.63808 4.32451 34.91724 4.21945 35.19638 4.11621 35.47556 4.01297 35.75471 3.91365 36.03386 3.81465 36.31303 3.71928 36.5922 3.62389 36.87135 3.53064 37.15051 3.43951 37.42967 3.34808 37.70882 3.26088 37.98798 3.17549 38.26714 3.0901 38.5463 3.00684 38.82547 2.9254 39.10461 2.84605 39.38379 2.76854 39.66295 2.69104 39.9421 2.61566 40.22125 2.54239 40.5004 2.47092 40.77957 2.40128 41.05873 2.33195 41.33789 2.26443 41.61705 2.19904 41.89621 2.13545 42.17537 2.07187 42.45453 2.0104 42.73369 1.95078 43.01283 1.89323 43.292 1.83571 43.57115 1.78 43.85031 1.72641 44.12949 1.67282 44.40863 1.62134 44.68779 1.56987 44.96696 1.52203 45.24611 1.47238 45.52527 1.42696 45.80441 1.38124 46.08359 1.33765 46.36275 1.29375 46.6419 1.25226 46.92107 1.21048 47.20023 1.1708 47.47937 1.13297 47.75854 1.09543 48.03769 1.05757 48.31685 1.02185 48.59602 .98824 48.87517 .95433 49.15434 .92282 49.4335 .89104 49.71265 .85925 49.9918 .82928 50.27097 .7996 50.55013 .77174 50.82928 .74419 51.10844 .71817 51.3876 .69243 51.66676 .66882 51.94592 .64278 52.22508 .62097 52.50424 .59735 52.78339 .57526 53.06256 .55556 53.3417 .53378 53.62086 .5138 53.90004 .4941 54.17918 .47626 54.45836 .45837 54.73752 .44052 55.01666 .42447 55.29582 .40662 55.57498 .39087 55.85414 .37692 56.1333 .36089 56.41246 .34726 56.69162 .33334 56.9708 .32123 57.24994 .3073 57.5291 .29549 57.80826 .28368 58.0874 .27187 58.36658 .26187 58.64572 .24977 58.9249 .2401 59.20406 .23009 59.4832 .22011 59.76237 .21223 60.04153 .20224 60.32068 .19528 60.59984 .1871 60.87901 .17923 61.15816 .17165 61.43733 .16408 61.71648 .15712 61.99564 .15047 62.27481 .1438 62.55396 .13774 62.83311 .13168 63.11227 .12595 63.39143 .12048 63.6706 .11504 63.94974 .1099 64.22891 .10506 64.50807 .10051 64.78723 .09596 65.06639 .09172 65.34555 .08748 65.6247 .08354 65.90385 .07962 66.18301 .07597 66.46217 .07265 66.74135 .06902 67.0205 .06598 67.29967 .06296 67.57883 .05994 67.85797 .05719 68.13713 .05447 68.41629 .05176 68.69545 .04932 68.97461 .0469 69.25377 .0448 69.53293 .04266 69.81209 .04056 70.09125 .03844 70.3704 .03662 70.64957 .0348 70.92871 .03328 71.20789 .03148 71.48703 .02995 71.76619 .02844 72.04536 .02693 72.32451 .02571 72.60368 .02449 72.88284 .02328 73.16199 .02208 73.44115 .02087 73.7203 .01967 73.99947 .01875 74.27863 .01784 74.55779 .01694 74.83694 .01602 75.11612 .01512 75.39526 .0142"/>
<path transform="matrix(1.00006,0,0,-1,76.896579,43.468004)" stroke-width=".79701" stroke-linecap="butt" stroke-dasharray="2.98883,2.98883" stroke-miterlimit="10" stroke-linejoin="miter" fill="none" stroke="#80cc80" d="M19.84267 0H20.12181 20.40097 20.68015 20.95929 21.23846 21.51762 21.79677 22.07593 22.35507 22.63425 22.9134 23.19257 23.47173 23.7509 24.03004 24.3092 24.58836 24.86751 25.14668 25.42583 25.705 25.98416 26.2633 26.54248 26.82164 27.10078 27.37994 27.6591 27.93826 28.21742 28.49658 28.77574 29.05492 29.33406 29.61322 29.89238 30.17152 30.4507 30.72984 31.00902 31.28818 31.56734 31.8465 32.12566 32.4048 32.68396 32.96312 33.24228 33.52145 33.8006 34.07976 34.35893 34.63808 34.91724 35.19638 35.47556 35.75471 36.03386 36.31303 36.5922 36.87135 37.15051 37.42967 37.70882 37.98798 38.26714 38.5463 38.82547 39.10461 39.38379 39.66295 39.9421 40.22125 40.5004 40.77957 41.05873 41.33789 41.61705 41.89621 42.17537 42.45453 42.73369 43.01283 43.292 43.57115 43.85031 44.12949 44.40863 44.68779 44.96696 45.24611 45.52527 45.80441 46.08359 46.36275 46.6419 46.92107 47.20023 47.47937 47.75854 48.03769 48.31685 48.59602 48.87517 49.15434 49.4335 49.71265 49.9918 50.27097 50.55013 50.82928 51.10844 51.3876 51.66676 51.94592 52.22508 52.50424 52.78339 53.06256 53.3417 53.62086 53.90004 54.17918 54.45836 54.73752 55.01666 55.29582 55.57498 55.85414 56.1333 56.41246 56.69162 56.9708 57.24994 57.5291 57.80826 58.0874 58.36658 58.64572 58.9249 59.20406 59.4832 59.76237 60.04153 60.32068 60.59984 60.87901 61.15816 61.43733 61.71648 61.99564 62.27481 62.55396 62.83311 63.11227 63.39143 63.6706 63.94974 64.22891 64.50807 64.78723 65.06639 65.34555 65.6247 65.90385 66.18301 66.46217 66.74135 67.0205 67.29967 67.57883 67.85797 68.13713 68.41629 68.69545 68.97461 69.25377 69.53293 69.81209 70.09125 70.3704 70.64957 70.92871 71.20789 71.48703 71.76619 72.04536 72.32451 72.60368 72.88284 73.16199 73.44115 73.7203 73.99947 74.27863 74.55779 74.83694 75.11612 75.39526"/>
<path transform="matrix(1.00006,0,0,-1,76.896579,43.468004)" stroke-width=".79701" stroke-linecap="butt" stroke-miterlimit="10" stroke-linejoin="miter" fill="none" stroke="#0000ff" d="M21.93483 19.84267C21.93483 20.99815 20.99815 21.93483 19.84267 21.93483 18.68718 21.93483 17.75049 20.99815 17.75049 19.84267 17.75049 18.68718 18.68718 17.75049 19.84267 17.75049 20.99815 17.75049 21.93483 18.68718 21.93483 19.84267ZM19.84267 19.84267"/>
<path transform="matrix(1.00006,0,0,-1,76.896579,43.468004)" d="M21.93483 12.03741C21.93483 13.1929 20.99815 14.1296 19.84267 14.1296 18.68718 14.1296 17.75049 13.1929 17.75049 12.03741 17.75049 10.88193 18.68718 9.94525 19.84267 9.94525 20.99815 9.94525 21.93483 10.88193 21.93483 12.03741ZM19.84267 12.03741" fill="#009900"/>
<use data-text="1" xlink:href="#font_3_4" transform="matrix(7.3329398,0,0,-7.3325,30.85582,19.298003)" fill="#0000ff"/>
<use data-text="&#x2212;" xlink:href="#font_2_2" transform="matrix(7.3329398,0,0,-7.3325,35.720109,19.298003)" fill="#0000ff"/>
<use data-text="u" xlink:href="#font_1_2" transform="matrix(7.3329398,0,0,-7.3325,41.970476,19.298003)" fill="#0000ff"/>
<use data-text="(" xlink:href="#font_3_1" transform="matrix(7.3329398,0,0,-7.3325,46.904787,19.298003)" fill="#0000ff"/>
<use data-text="t" xlink:href="#font_1_1" transform="matrix(7.3329398,0,0,-7.3325,49.629945,19.298003)" fill="#0000ff"/>
<use data-text=")" xlink:href="#font_3_2" transform="matrix(7.3329398,0,0,-7.3325,52.91414,19.298003)" fill="#0000ff"/>
<use data-text="=" xlink:href="#font_2_4" transform="matrix(7.3329398,0,0,-7.3325,56.844377,19.298003)" fill="#0000ff"/>
<use data-text="0" xlink:href="#font_3_3" transform="matrix(7.3329398,0,0,-7.3325,63.48477,19.298003)" fill="#0000ff"/>
<use data-text="1" xlink:href="#font_3_4" transform="matrix(7.3329398,0,0,-7.3325,106.26234,19.298003)" fill="#009900"/>
<use data-text="&#x2212;" xlink:href="#font_2_2" transform="matrix(7.3329398,0,0,-7.3325,111.126628,19.298003)" fill="#009900"/>
<use data-text="u" xlink:href="#font_1_2" transform="matrix(7.3329398,0,0,-7.3325,117.37699,19.298003)" fill="#009900"/>
<use data-text="(" xlink:href="#font_3_1" transform="matrix(7.3329398,0,0,-7.3325,122.3113,19.298003)" fill="#009900"/>
<use data-text="t" xlink:href="#font_1_1" transform="matrix(7.3329398,0,0,-7.3325,125.03646,19.298003)" fill="#009900"/>
<use data-text=")" xlink:href="#font_3_2" transform="matrix(7.3329398,0,0,-7.3325,128.32065,19.298003)" fill="#009900"/>
<use data-text="=" xlink:href="#font_2_4" transform="matrix(7.3329398,0,0,-7.3325,132.25089,19.298003)" fill="#009900"/>
<use data-text="1" xlink:href="#font_3_4" transform="matrix(7.3329398,0,0,-7.3325,138.8913,19.298003)" fill="#009900"/>
<use data-text="&#x201c;" xlink:href="#font_3_9" transform="matrix(7.3329398,0,0,-7.3325,41.36345,65.825008)" fill="#0000ff"/>
<use data-text="o" xlink:href="#font_3_8" transform="matrix(7.3329398,0,0,-7.3325,44.1353,65.825008)" fill="#0000ff"/>
<use data-text="f" xlink:href="#font_3_6" transform="matrix(7.3329398,0,0,-7.3325,48.36641,65.825008)" fill="#0000ff"/>
<use data-text="f" xlink:href="#font_3_6" transform="matrix(7.3329398,0,0,-7.3325,50.705614,65.825008)" fill="#0000ff"/>
<use data-text="&#x201d;" xlink:href="#font_3_10" transform="matrix(7.3329398,0,0,-7.3325,53.50679,65.825008)" fill="#0000ff"/>
<use data-text="&#x201c;" xlink:href="#font_3_9" transform="matrix(7.3329398,0,0,-7.3325,117.372,65.825008)" fill="#009900"/>
<use data-text="o" xlink:href="#font_3_8" transform="matrix(7.3329398,0,0,-7.3325,120.14385,65.825008)" fill="#009900"/>
<use data-text="n" xlink:href="#font_3_7" transform="matrix(7.3329398,0,0,-7.3325,124.37496,65.825008)" fill="#009900"/>
<use data-text="&#x201d;" xlink:href="#font_3_10" transform="matrix(7.3329398,0,0,-7.3325,128.3201,65.825008)" fill="#009900"/>
<use data-text="&#xfffd;" xlink:href="#font_2_1" transform="matrix(7.3329398,0,0,-7.3325,38.417268,33.032)"/>
<path transform="matrix(1.00006,0,0,-1,-104.48331,11.576002)" stroke-width=".4224" stroke-linecap="butt" stroke-miterlimit="10" stroke-linejoin="miter" fill="none" stroke="#000000" d="M148.997-21.245H152.44"/>
<use data-text="t" xlink:href="#font_1_1" transform="matrix(7.3329398,0,0,-7.3325,44.682634,39.044004)"/>
<use data-text="&#x00b7;" xlink:href="#font_2_3" transform="matrix(7.3329398,0,0,-7.3325,48.940889,39.044004)"/>
<use data-text="0" xlink:href="#font_3_3" transform="matrix(7.3329398,0,0,-7.3325,51.95508,39.044004)" fill="#0000ff"/>
<use data-text="&#xfffd;" xlink:href="#font_2_1" transform="matrix(7.3329398,0,0,-7.3325,93.9796,33.032)"/>
<path transform="matrix(1.00006,0,0,-1,-48.920976,11.576002)" stroke-width=".4224" stroke-linecap="butt" stroke-miterlimit="10" stroke-linejoin="miter" fill="none" stroke="#000000" d="M148.997-21.245H152.44"/>
<use data-text="t" xlink:href="#font_1_1" transform="matrix(7.3329398,0,0,-7.3325,100.244968,39.044004)"/>
<use data-text="&#x00b7;" xlink:href="#font_2_3" transform="matrix(7.3329398,0,0,-7.3325,104.50322,39.044004)"/>
<use data-text="1" xlink:href="#font_3_4" transform="matrix(7.3329398,0,0,-7.3325,107.51741,39.044004)" fill="#009900"/>
</svg>
