<svg xmlns="http://www.w3.org/2000/svg" xmlns:xlink="http://www.w3.org/1999/xlink" version="1.1" width="164" height="76" viewBox="0 0 164 76">
<defs>
<path id="font_1_1" d="M.6349945 .2529297V.31092835H.084991458V.2529297H.6349945Z"/>
<path id="font_2_1" d="M.4850006 .13195801 .45700074 .13696289C.43598939 .08299255 .41600038 .07598877 .37599183 .07598877H.11999512C.13598633 .1279602 .19499207 .19892884 .28799439 .2658844 .38398744 .33584596 .45799256 .38082887 .45799256 .49276734 .45799256 .63168337 .3659973 .6796875 .26098634 .6796875 .12399292 .6796875 .052993776 .5967102 .052993776 .54473879 .052993776 .51075747 .09098816 .49476625 .10798645 .49476625 .12599182 .49476625 .1329956 .50476077 .13699341 .5217438 .15299988 .5897064 .19198609 .64468386 .2539978 .64468386 .33099366 .64468386 .35299684 .5797119 .35299684 .50675967 .35299684 .3998108 .29899598 .33984376 .21199036 .26289369 .08898926 .15594483 .04598999 .08798218 .026992798 .009994507L.036987306 0H.45098878L.4850006 .13195801Z"/>
<path id="font_2_2" d="M.2999878 .17871094V.0769043C.2999878 .04296875 .2889862 .036987306 .2649994 .034988405L.20098877 .0289917V0H.46499635V.0289917L.41999818 .033981325C.39698792 .036987306 .3899994 .04296875 .3899994 .0769043V.17871094H.49299623V.22570801H.3899994V.66796877H.31698609C.22299195 .5298767 .11099243 .35577394 .018997193 .19970703L.027999878 .17871094H.2999878M.09098816 .22570801C.15098572 .33476258 .22099304 .4498291 .2979889 .5709076H.2999878V.22570801H.09098816Z"/>
<clipPath id="clip_3">
<path transform="matrix(1.00002,0,0,-1.00008,1.0933457,74.7437)" d="M0 0H161.38986V72.62512H0Z"/>
</clipPath>
<path id="font_4_1" d="M.42799378 .45222474 .43899537 .49023438H.31199647L.34599305 .6092224 .33399964 .6162262 .23699951 .53923037 .22399903 .49023438H.14299011L.13198853 .45222474H.21499634L.125 .08627319C.10998535 .029266358 .12199402-.01171875 .17199707-.01171875 .2519989-.01171875 .31599427 .054275514 .35598756 .1292572L.33399964 .1462555C.31098939 .10726929 .2599945 .040267946 .22898865 .040267946 .20799256 .040267946 .20799256 .0632782 .21398926 .088272098L.30299378 .45222474H.42799378Z"/>
<path id="font_4_2" d="M.070999149 .45393373 .07398987 .42893983 .14199829 .43093873C.1639862 .43193055 .16899109 .41493226 .1769867 .36291505 .18798828 .28489686 .20999146 .09286499 .20999146 .0128479 .20999146-.017166138 .20799256-.058166505 .18598938-.11117554 .16799927-.15318299 .14199829-.18218994 .12199402-.18218994 .10699463-.18218994 .09599304-.17118836 .08099365-.15118408 .068984989-.13517761 .06098938-.127182 .04598999-.127182 .019989014-.12818909-.005004883-.15818787-.005004883-.18719483-.005004883-.21418762 .023986817-.2421875 .067993167-.2421875 .15299988-.2421875 .18998719-.17919922 .27799989-.027160645 .2979889 .0068511965 .35798646 .11286926 .41999818 .21488953 .47698976 .30891419 .5399933 .40592958 .5399933 .4459381 .5399933 .48094178 .5289917 .5019531 .5219879 .5019531 .5029907 .5019531 .46899415 .49394227 .44400025 .47694398 .44499208 .4419403 .44299317 .3809204 .43099977 .33891297 .4149933 .28289796 .35598756 .17488098 .2899933 .06085205H.2869873C.27999879 .21388245 .26098634 .42492677 .24699402 .49795533L.23899842 .5019531 .070999149 .45393373Z"/>
</defs>
<path transform="matrix(1.00002,0,0,-1.00008,1.0933457,74.7437)" stroke-width=".19925" stroke-linecap="butt" stroke-miterlimit="10" stroke-linejoin="miter" fill="none" stroke="#929292" d="M48.41695 13.88715V15.16287M112.9729 13.88715V15.16287"/>
<path transform="matrix(1.00002,0,0,-1.00008,1.0933457,74.7437)" stroke-width=".19925" stroke-linecap="butt" stroke-miterlimit="10" stroke-linejoin="miter" fill="none" stroke="#929292" d="M16.13898 13.56831V15.48169M145.25087 13.56831V15.48169"/>
<path transform="matrix(1.00002,0,0,-1.00008,1.0933457,74.7437)" stroke-width=".19925" stroke-linecap="butt" stroke-miterlimit="10" stroke-linejoin="miter" fill="none" stroke="#929292" d="M78.99397 2.42082H82.39587M78.99397 26.62921H82.39587M78.99397 50.83759H82.39587"/>
<path transform="matrix(1.00002,0,0,-1.00008,1.0933457,74.7437)" stroke-width=".19925" stroke-linecap="butt" stroke-miterlimit="10" stroke-linejoin="miter" fill="none" stroke="#929292" d="M78.14375 38.73338H83.24608M78.14375 62.94176H83.24608"/>
<path transform="matrix(1.00002,0,0,-1.00008,1.0933457,74.7437)" stroke-width=".3985" stroke-linecap="butt" stroke-miterlimit="10" stroke-linejoin="miter" fill="none" stroke="#000000" d="M0 14.52501H159.39734"/>
<path transform="matrix(1.00002,0,0,-1.00008,160.49387,60.217527)" d="M1.99252 0-1.19551 1.59401 0 0-1.19551-1.59401"/>
<path transform="matrix(1.00002,0,0,-1.00008,1.0933457,74.7437)" stroke-width=".3985" stroke-linecap="butt" stroke-miterlimit="10" stroke-linejoin="miter" fill="none" stroke="#000000" d="M80.69492 0V70.6326"/>
<path transform="matrix(0,-1.00008,-1.00002,-0,81.78989,4.105446)" d="M1.99252 0-1.19551 1.59401 0 0-1.19551-1.59401"/>
<use data-text="&#x2212;" xlink:href="#font_1_1" transform="matrix(15.838517,0,0,-15.839466,7.3334696,75.178737)"/>
<use data-text="2" xlink:href="#font_2_1" transform="matrix(15.838517,0,0,-15.839466,18.729702,75.178737)"/>
<use data-text="2" xlink:href="#font_2_1" transform="matrix(15.838517,0,0,-15.839466,142.14618,75.178737)"/>
<use data-text="2" xlink:href="#font_2_1" transform="matrix(15.838517,0,0,-15.839466,67.438678,41.310026)"/>
<use data-text="4" xlink:href="#font_2_2" transform="matrix(15.838517,0,0,-15.839466,67.438678,17.100087)"/>
<g clip-path="url(#clip_3)">
<path transform="matrix(1.00002,0,0,-1.00008,1.0933457,74.7437)" stroke-width="1.59404" stroke-linecap="butt" stroke-miterlimit="10" stroke-linejoin="miter" fill="none" stroke="#0000ff" d="M81.82143 27.05827 81.74886 27.03069 82.80278 27.44588 83.85674 27.8746 84.91068 28.31749 85.96463 28.77527 87.01855 29.24829 88.0725 29.73683 89.12643 30.2417 90.18036 30.76363 91.23431 31.30263 92.28825 31.85918 93.3422 32.43413 94.39613 33.02867 95.45007 33.64285 96.50403 34.27724 97.55795 34.93268 98.6119 35.61014 99.66583 36.31013 100.71977 37.03288 101.77371 37.77994 102.82767 38.55171 103.8816 39.34912 104.93553 40.17307 105.98947 41.02399 107.04343 41.90372 108.09735 42.8125 109.15129 43.75154 110.20525 44.72194 111.25917 45.72319 112.31313 46.75871 113.36707 47.82884 114.42099 48.93443 115.47493 50.07622 116.52887 51.25626 117.58282 52.47467 118.63675 53.73471 119.6907 55.03651 120.74464 56.38045 121.7986 57.76964 122.85251 59.20485 123.90645 60.68796 124.9604 62.22035 126.01433 63.80238 127.06828 65.4385 128.12223 67.12752 129.17618 68.87451 130.2301 70.67732 131.28403 72.54074 131.75943 73.40927"/>
<path transform="matrix(-.9344987,.35595847,.35593713,.93455478,82.91641,47.683244)" stroke-width="1.27522" stroke-linecap="round" stroke-linejoin="round" fill="none" stroke="#0000ff" d="M-2.27148 3.02866C-2.0822 1.8929 0 .18927 .56786 0 0-.18927-2.0822-1.8929-2.27148-3.02866"/>
<path transform="matrix(.47993965,-.87731018,-.8772576,-.4799684,132.85541,1.3285599)" stroke-width="1.27522" stroke-linecap="round" stroke-linejoin="round" fill="none" stroke="#0000ff" d="M-2.27148 3.02866C-2.0822 1.8929 0 .18927 .56786 0 0-.18927-2.0822-1.8929-2.27148-3.02866"/>
</g>
<path transform="matrix(1.00002,0,0,-1.00008,1.0933457,74.7437)" stroke-width=".3985" stroke-linecap="butt" stroke-miterlimit="10" stroke-linejoin="miter" fill="none" stroke="#000000" d="M83.08598 26.62921C83.08598 27.1244 82.01547 27.52585 80.69492 27.52585 79.37437 27.52585 78.30386 27.1244 78.30386 26.62921 78.30386 26.134 79.37437 25.73256 80.69492 25.73256 82.01547 25.73256 83.08598 26.134 83.08598 26.62921ZM80.69492 26.62921"/>
<path transform="matrix(1.00002,0,0,-1.00008,1.0933457,74.7437)" stroke-width=".3985" stroke-linecap="butt" stroke-miterlimit="10" stroke-linejoin="miter" fill="none" stroke="#000000" d="M91.15547 29.65526C91.15547 30.15045 90.08498 30.5519 88.76442 30.5519 87.44386 30.5519 86.37337 30.15045 86.37337 29.65526 86.37337 29.16005 87.44386 28.7586 88.76442 28.7586 90.08498 28.7586 91.15547 29.16005 91.15547 29.65526ZM88.76442 29.65526"/>
<path transform="matrix(1.00002,0,0,-1.00008,1.0933457,74.7437)" stroke-width=".3985" stroke-linecap="butt" stroke-miterlimit="10" stroke-linejoin="miter" fill="none" stroke="#000000" d="M99.22496 33.4378C99.22496 33.93301 98.15445 34.33446 96.83391 34.33446 95.51335 34.33446 94.44284 33.93301 94.44284 33.4378 94.44284 32.9426 95.51335 32.54117 96.83391 32.54117 98.15445 32.54117 99.22496 32.9426 99.22496 33.4378ZM96.83391 33.4378"/>
<path transform="matrix(1.00002,0,0,-1.00008,1.0933457,74.7437)" stroke-width=".3985" stroke-linecap="butt" stroke-miterlimit="10" stroke-linejoin="miter" fill="none" stroke="#000000" d="M107.29446 38.166C107.29446 38.66121 106.22395 39.06265 104.9034 39.06265 103.58286 39.06265 102.51234 38.66121 102.51234 38.166 102.51234 37.67079 103.58286 37.26936 104.9034 37.26936 106.22395 37.26936 107.29446 37.67079 107.29446 38.166ZM104.9034 38.166"/>
<path transform="matrix(1.00002,0,0,-1.00008,1.0933457,74.7437)" stroke-width=".3985" stroke-linecap="butt" stroke-miterlimit="10" stroke-linejoin="miter" fill="none" stroke="#000000" d="M115.36395 44.07626C115.36395 44.57146 114.29346 44.9729 112.9729 44.9729 111.65236 44.9729 110.58185 44.57146 110.58185 44.07626 110.58185 43.58105 111.65236 43.17961 112.9729 43.17961 114.29346 43.17961 115.36395 43.58105 115.36395 44.07626ZM112.9729 44.07626"/>
<path transform="matrix(1.00002,0,0,-1.00008,1.0933457,74.7437)" stroke-width=".3985" stroke-linecap="butt" stroke-miterlimit="10" stroke-linejoin="miter" fill="none" stroke="#000000" d="M123.43344 51.46407C123.43344 51.95927 122.36293 52.36072 121.04239 52.36072 119.72183 52.36072 118.65132 51.95927 118.65132 51.46407 118.65132 50.96887 119.72183 50.56743 121.04239 50.56743 122.36293 50.56743 123.43344 50.96887 123.43344 51.46407ZM121.04239 51.46407"/>
<path transform="matrix(1.00002,0,0,-1.00008,1.0933457,74.7437)" stroke-width=".3985" stroke-linecap="butt" stroke-miterlimit="10" stroke-linejoin="miter" fill="none" stroke="#000000" d="M131.50295 60.69884C131.50295 61.19403 130.43244 61.59547 129.11188 61.59547 127.79134 61.59547 126.72083 61.19403 126.72083 60.69884 126.72083 60.20363 127.79134 59.80219 129.11188 59.80219 130.43244 59.80219 131.50295 60.20363 131.50295 60.69884ZM129.11188 60.69884"/>
<path transform="matrix(1.00002,0,0,-1.00008,1.0933457,74.7437)" stroke-width=".3985" stroke-linecap="butt" stroke-miterlimit="10" stroke-linejoin="miter" fill="none" stroke="#000000" d="M139.57245 72.24228C139.57245 72.73747 138.50194 73.13892 137.18138 73.13892 135.86084 73.13892 134.79033 72.73747 134.79033 72.24228 134.79033 71.74707 135.86084 71.34563 137.18138 71.34563 138.50194 71.34563 139.57245 71.74707 139.57245 72.24228ZM137.18138 72.24228"/>
<path transform="matrix(1.00002,0,0,-1.00008,1.0933457,74.7437)" stroke-width=".3985" stroke-linecap="butt" stroke-miterlimit="10" stroke-linejoin="miter" fill="none" stroke="#000000" d=""/>
<use data-text="t" xlink:href="#font_4_1" transform="matrix(15.838517,0,0,-15.839466,151.99439,56.680253)"/>
<use data-text="y" xlink:href="#font_4_2" transform="matrix(15.838517,0,0,-15.839466,86.05005,13.345787)"/>
</svg>
