<svg xmlns="http://www.w3.org/2000/svg" xmlns:xlink="http://www.w3.org/1999/xlink" version="1.1" width="128" height="43" viewBox="0 0 128 43">
<defs>
<path id="font_1_1" d="M.43699647 0V.0289917L.35299684 .035995485C.33198548 .037994386 .31999208 .04598999 .31999208 .08496094V.67367556L.31498719 .6796875 .10899353 .6446991V.6197052L.20199585 .6087036C.21899414 .6067047 .22599793 .5987091 .22599793 .56973269V.08496094C.22599793 .065979007 .22299195 .053985597 .21699524 .04698181 .21199036 .039993287 .20399475 .036987306 .19299317 .035995485L.10899353 .0289917V0H.43699647Z"/>
<path id="font_1_2" d="M.4850006 .13195801 .45700074 .13696289C.43598939 .08299255 .41600038 .07598877 .37599183 .07598877H.11999512C.13598633 .1279602 .19499207 .19892884 .28799439 .2658844 .38398744 .33584596 .45799256 .38082887 .45799256 .49276734 .45799256 .63168337 .3659973 .6796875 .26098634 .6796875 .12399292 .6796875 .052993776 .5967102 .052993776 .54473879 .052993776 .51075747 .09098816 .49476625 .10798645 .49476625 .12599182 .49476625 .1329956 .50476077 .13699341 .5217438 .15299988 .5897064 .19198609 .64468386 .2539978 .64468386 .33099366 .64468386 .35299684 .5797119 .35299684 .50675967 .35299684 .3998108 .29899598 .33984376 .21199036 .26289369 .08898926 .15594483 .04598999 .08798218 .026992798 .009994507L.036987306 0H.45098878L.4850006 .13195801Z"/>
<path id="font_2_1" d="M.6349945 .2529297V.31092835H.084991458V.2529297H.6349945Z"/>
<clipPath id="clip_3">
<path transform="matrix(1.00009,0,0,-1.00002,1.5703583,41.303529)" d="M0 0H125.24484V40.20619H0Z"/>
</clipPath>
<path id="font_4_1" d="M.42799378 .45222474 .43899537 .49023438H.31199647L.34599305 .6092224 .33399964 .6162262 .23699951 .53923037 .22399903 .49023438H.14299011L.13198853 .45222474H.21499634L.125 .08627319C.10998535 .029266358 .12199402-.01171875 .17199707-.01171875 .2519989-.01171875 .31599427 .054275514 .35598756 .1292572L.33399964 .1462555C.31098939 .10726929 .2599945 .040267946 .22898865 .040267946 .20799256 .040267946 .20799256 .0632782 .21398926 .088272098L.30299378 .45222474H.42799378Z"/>
</defs>
<path transform="matrix(1.00009,0,0,-1.00002,1.5703583,41.303529)" stroke-width=".79701" stroke-linecap="butt" stroke-miterlimit="10" stroke-linejoin="miter" fill="none" stroke="#929292" d="M62.62242 17.97716V22.229M107.35272 17.97716V22.229"/>
<path transform="matrix(1.00009,0,0,-1.00002,1.5703583,41.303529)" stroke-width=".79701" stroke-linecap="butt" stroke-miterlimit="10" stroke-linejoin="miter" fill="none" stroke="#929292" d="M15.76614 6.23889H20.01807M15.76614 13.17099H20.01807M15.76614 27.03519H20.01807M15.76614 33.9673H20.01807"/>
<path transform="matrix(1.00009,0,0,-1.00002,1.5703583,41.303529)" stroke-width=".99628" stroke-linecap="butt" stroke-miterlimit="10" stroke-linejoin="miter" fill="none" stroke="#000000" d="M0 20.10309H122.35562"/>
<path transform="matrix(1.00009,0,0,-1.00002,123.93699,21.200036)" d="M2.8892 0-1.73352 2.31136 0 0-1.73352-2.31136"/>
<path transform="matrix(1.00009,0,0,-1.00002,1.5703583,41.303529)" stroke-width=".99628" stroke-linecap="butt" stroke-miterlimit="10" stroke-linejoin="miter" fill="none" stroke="#000000" d="M17.89212 0V37.31697"/>
<path transform="matrix(0,-1.00002,-1.00009,-0,19.464089,3.9858094)" d="M2.8892 0-1.73352 2.31136 0 0-1.73352-2.31136"/>
<use data-text="1" xlink:href="#font_1_1" transform="matrix(10.037303,0,0,-10.036601,61.536756,33.744379)"/>
<use data-text="2" xlink:href="#font_1_2" transform="matrix(10.037303,0,0,-10.036601,106.27078,33.744379)"/>
<use data-text="&#x2212;" xlink:href="#font_2_1" transform="matrix(10.037303,0,0,-10.036601,1.0933151,38.42447)"/>
<use data-text="2" xlink:href="#font_1_2" transform="matrix(10.037303,0,0,-10.036601,8.315964,38.42447)"/>
<use data-text="&#x2212;" xlink:href="#font_2_1" transform="matrix(10.037303,0,0,-10.036601,1.0933151,31.492333)"/>
<use data-text="1" xlink:href="#font_1_1" transform="matrix(10.037303,0,0,-10.036601,8.315964,31.492333)"/>
<use data-text="1" xlink:href="#font_1_1" transform="matrix(10.037303,0,0,-10.036601,8.315964,17.628054)"/>
<use data-text="2" xlink:href="#font_1_2" transform="matrix(10.037303,0,0,-10.036601,8.315964,10.695915)"/>
<g clip-path="url(#clip_3)">
<path transform="matrix(1.00009,0,0,-1.00002,1.5703583,41.303529)" stroke-width=".99628" stroke-linecap="butt" stroke-miterlimit="10" stroke-linejoin="miter" fill="none" stroke="#000000" d="M18.72401 27.03519H35.78424"/>
<path transform="matrix(-1.00009,-0,0,1.00002,20.296055,14.267796)" stroke-width=".79701" stroke-linecap="round" stroke-linejoin="round" fill="none" stroke="#000000" d="M-1.73352 2.31136C-1.58905 1.4446 0 .14444 .43336 0 0-.14444-1.58905-1.4446-1.73352-2.31136"/>
<path transform="matrix(1.00009,0,0,-1.00002,1.5703583,41.303529)" stroke-width=".99628" stroke-linecap="butt" stroke-miterlimit="10" stroke-linejoin="miter" fill="none" stroke="#000000" d="M40.25726 20.10309"/>
<use data-text="1" xlink:href="#font_1_1" transform="matrix(10.037303,0,0,-10.036601,39.168745,17.50205)"/>
<path transform="matrix(1.00009,0,0,-1.00002,1.5703583,41.303529)" stroke-width=".99628" stroke-linecap="butt" stroke-miterlimit="10" stroke-linejoin="miter" fill="none" stroke="#000000" d="M44.7303 27.03519H61.79051"/>
<path transform="matrix(1.00009,0,0,-1.00002,63.36643,14.267796)" stroke-width=".79701" stroke-linecap="round" stroke-linejoin="round" fill="none" stroke="#000000" d="M-1.73352 2.31136C-1.58905 1.4446 0 .14444 .43336 0 0-.14444-1.58905-1.4446-1.73352-2.31136"/>
<path transform="matrix(1.00009,0,0,-1.00002,1.5703583,41.303529)" stroke-width=".99628" stroke-linecap="butt" stroke-miterlimit="10" stroke-linejoin="miter" fill="none" stroke="#000000" d="M63.45432 22.87593H80.51454"/>
<path transform="matrix(-1.00009,-0,0,1.00002,65.03039,18.42714)" stroke-width=".79701" stroke-linecap="round" stroke-linejoin="round" fill="none" stroke="#000000" d="M-1.73352 2.31136C-1.58905 1.4446 0 .14444 .43336 0 0-.14444-1.58905-1.4446-1.73352-2.31136"/>
<path transform="matrix(1.00009,0,0,-1.00002,1.5703583,41.303529)" stroke-width=".99628" stroke-linecap="butt" stroke-miterlimit="10" stroke-linejoin="miter" fill="none" stroke="#000000" d="M84.98756 21.4895"/>
<use data-text="1" xlink:href="#font_1_1" transform="matrix(10.037303,0,0,-10.036601,83.90376,16.116024)"/>
<path transform="matrix(1.00009,0,0,-1.00002,1.5703583,41.303529)" stroke-width=".99628" stroke-linecap="butt" stroke-miterlimit="10" stroke-linejoin="miter" fill="none" stroke="#000000" d="M89.4606 22.87593H106.52081"/>
<path transform="matrix(1.00009,0,0,-1.00002,108.10076,18.42714)" stroke-width=".79701" stroke-linecap="round" stroke-linejoin="round" fill="none" stroke="#000000" d="M-1.73352 2.31136C-1.58905 1.4446 0 .14444 .43336 0 0-.14444-1.58905-1.4446-1.73352-2.31136"/>
</g>
<use data-text="t" xlink:href="#font_4_1" transform="matrix(10.037303,0,0,-10.036601,118.63288,17.415049)"/>
</svg>
