<svg xmlns="http://www.w3.org/2000/svg" xmlns:xlink="http://www.w3.org/1999/xlink" version="1.1" width="136" height="95" viewBox="0 0 136 95">
<defs>
<path id="font_1_2" d="M.20599365 .3996582H.2999878C.31999208 .3996582 .32998658 .3996582 .32998658 .41966249 .32998658 .43066407 .31999208 .43066407 .3019867 .43066407H.21398926C.25 .5724945 .25498963 .59246829 .25498963 .59846499 .25498963 .61546328 .24299622 .62545779 .22599793 .62545779 .22299195 .62545779 .19499207 .62446597 .18598938 .58947756L.14698792 .43066407H.052993776C.032989503 .43066407 .022994996 .43066407 .022994996 .4116516 .022994996 .3996582 .0309906 .3996582 .050994874 .3996582H.13899231C.066986087 .11608887 .06298828 .099121097 .06298828 .08114624 .06298828 .02722168 .100997928-.0107421879 .15499878-.0107421879 .25698854-.0107421879 .31399537 .13505554 .31399537 .14305115 .31399537 .1530304 .30599977 .1530304 .3019867 .1530304 .29299928 .1530304 .2919922 .15003968 .2869873 .13905335 .24398804 .035217287 .19099427 .011245728 .15699768 .011245728 .13598633 .011245728 .12599182 .024230957 .12599182 .057174684 .12599182 .08114624 .12799073 .088134769 .13198853 .10510254L.20599365 .3996582Z"/>
<path id="font_1_3" d="M.33399964 .30233766C.33999635 .32835389 .36299134 .42037965 .43299867 .42037965 .43798829 .42037965 .46199037 .42037965 .48298646 .40734864 .45498658 .402359 .43499757 .37734986 .43499757 .35334779 .43499757 .33735658 .44599916 .31835938 .47299195 .31835938 .49499513 .31835938 .5269928 .3363495 .5269928 .37635804 .5269928 .42837525 .46798707 .4423828 .43399049 .4423828 .37599183 .4423828 .34098817 .38935853 .32899476 .36634828 .3039856 .43237306 .25 .4423828 .22099304 .4423828 .116989139 .4423828 .05999756 .3133545 .05999756 .28834535 .05999756 .27833558 .069992069 .27833558 .07199097 .27833558 .07998657 .27833558 .08299255 .28033448 .084991458 .28933717 .11898804 .39535523 .18499756 .42037965 .21899414 .42037965 .23799134 .42037965 .272995 .4113617 .272995 .35334779 .272995 .32235719 .2559967 .25532533 .21899414 .11528015 .20298767 .053268434 .16799927 .011245728 .12399292 .011245728 .117996219 .011245728 .09498596 .011245728 .07398987 .024276734 .09899902 .029266358 .12098694 .05027771 .12098694 .07827759 .12098694 .105270389 .09899902 .11328125 .083999637 .11328125 .053985597 .11328125 .0289917 .08728027 .0289917 .055267335 .0289917 .009246826 .07899475-.0107421879 .12298584-.0107421879 .18899536-.0107421879 .22499085 .059280397 .22799683 .0652771 .23999024 .028274537 .27598573-.0107421879 .33599855-.0107421879 .43899537-.0107421879 .49598695 .118270877 .49598695 .14328003 .49598695 .1532898 .4869995 .1532898 .48399354 .1532898 .47499085 .1532898 .47299195 .14929199 .47099305 .14228821 .43798829 .03527832 .36999513 .011245728 .33799745 .011245728 .29899598 .011245728 .2829895 .043273927 .2829895 .07727051 .2829895 .09927368 .2889862 .121276859 .2999878 .16529846L.33399964 .30233766Z"/>
<path id="font_2_1" d="M.33099366-.2400055C.33099366-.23701477 .33099366-.23500061 .31399537-.21800232 .18899536-.0920105 .15699768 .09700012 .15699768 .25 .15699768 .42399598 .19499207 .59799197 .31799317 .72299197 .33099366 .73498538 .33099366 .7369995 .33099366 .73999026 .33099366 .746994 .32699586 .75 .32099916 .75 .31098939 .75 .22099304 .6819916 .1619873 .5549927 .11099243 .44499208 .09899902 .33399964 .09899902 .25 .09899902 .17199707 .10998535 .050994874 .16499329-.06201172 .22499085-.18501282 .31098939-.25 .32099916-.25 .32699586-.25 .33099366-.24700928 .33099366-.2400055Z"/>
<path id="font_2_2" d="M.2889862 .25C.2889862 .32798768 .27799989 .44898988 .22299195 .56199648 .16299439 .68499758 .07699585 .75 .066986087 .75 .06098938 .75 .056991579 .74598696 .056991579 .73999026 .056991579 .7369995 .056991579 .73498538 .07598877 .71699526 .17399597 .6179962 .23098755 .45899964 .23098755 .25 .23098755 .07899475 .19400025-.09700012 .069992069-.2230072 .056991579-.23500061 .056991579-.23701477 .056991579-.2400055 .056991579-.2460022 .06098938-.25 .066986087-.25 .07699585-.25 .16699219-.18200684 .22599793-.055007936 .2769928 .054992677 .2889862 .16600037 .2889862 .25Z"/>
<path id="font_1_1" d="M.20298767 .0009918213C.20298767 .066986087 .17799378 .10598755 .13899231 .10598755 .10598755 .10598755 .085998538 .08099365 .085998538 .052993776 .085998538 .025985718 .10598755 0 .13899231 0 .15098572 0 .1639862 .0039978029 .17399597 .0129852299 .1769867 .01499939 .17799378 .015991211 .1789856 .015991211 .17999268 .015991211 .18099976 .01499939 .18099976 .0009918213 .18099976-.07316589 .1459961-.13328552 .11299133-.16635132 .101989749-.17736817 .101989749-.17936707 .101989749-.18237305 .101989749-.18936157 .10699463-.19335938 .11199951-.19335938 .12298584-.19335938 .20298767-.116256717 .20298767 .0009918213Z"/>
<path id="font_1_4" d="M.48599244 .38136292C.48999024 .39537049 .48999024 .39736939 .48999024 .40437318 .48999024 .42237855 .47599793 .43138124 .46099855 .43138124 .45098878 .43138124 .43499757 .42536927 .42599488 .41036988 .42399598 .405365 .41600038 .37435914 .4119873 .35635377 .40499879 .33035279 .397995 .30334474 .3919983 .27633668L.34700013 .09628296C.34298707 .08126831 .2999878 .011245728 .23399353 .011245728 .18299866 .011245728 .17199707 .055267335 .17199707 .0922699 .17199707 .1382904 .18899536 .20030213 .22299195 .28833009 .23899842 .3293457 .24299622 .3403473 .24299622 .36035157 .24299622 .405365 .21099854 .4423828 .16099549 .4423828 .06599426 .4423828 .0289917 .29733277 .0289917 .28833009 .0289917 .27833558 .038986207 .27833558 .040985109 .27833558 .050994874 .27833558 .051986696 .28033448 .056991579 .29634095 .083999637 .3903656 .12399292 .42037965 .1579895 .42037965 .1659851 .42037965 .18299866 .42037965 .18299866 .3883667 .18299866 .36335755 .17298889 .3373413 .1659851 .31834413 .12599182 .21231079 .10798645 .1552887 .10798645 .10827637 .10798645 .019256592 .17098999-.0107421879 .22999573-.0107421879 .2689972-.0107421879 .30299378 .0062561037 .33099366 .03425598 .31799317-.017745972 .30599977-.06674194 .2659912-.11973572 .23999024-.15385437 .20199585-.18309021 .1559906-.18309021 .14199829-.18309021 .09700012-.18005371 .07998657-.14074707 .09599304-.14074707 .10899353-.14074707 .12298584-.1287384 .1329956-.11973572 .14299011-.10673523 .14299011-.08773804 .14299011-.056747438 .115997318-.052734376 .10598755-.052734376 .08299255-.052734376 .049987794-.068740848 .049987794-.11773682 .049987794-.16796875 .09399414-.20507813 .1559906-.20507813 .25898744-.20507813 .3619995-.11373901 .3899994-.00074768069L.48599244 .38136292Z"/>
<path id="font_3_3" d="M.5009918 .39942933C.45700074 .38842774 .45498658 .34942628 .45498658 .34542848 .45498658 .3234253 .47200013 .3084259 .49398805 .3084259 .5159912 .3084259 .5499878 .3254242 .5499878 .36842347 .5499878 .42539979 .4869995 .44140626 .44999696 .44140626 .40299989 .44140626 .36499024 .4084015 .34199525 .36943055 .31999208 .4223938 .2679901 .44140626 .22698975 .44140626 .117996219 .44140626 .056991579 .31643678 .056991579 .28840638 .056991579 .27938844 .06399536 .27539063 .07199097 .27539063 .083999637 .27539063 .085998538 .2803955 .08898926 .29240418 .11199951 .36543275 .17199707 .4133911 .22399903 .4133911 .2630005 .4133911 .28199769 .385437 .28199769 .34942628 .28199769 .32943727 .269989 .2834015 .2619934 .25135804 .25498963 .22232056 .23298645 .13320923 .22799683 .11419678 .21398926 .060195924 .17799378 .018234253 .1329956 .018234253 .1289978 .018234253 .102996829 .018234253 .08198547 .032196046 .12799073 .04319763 .12799073 .08518982 .12799073 .0861969 .12799073 .109191898 .10998535 .12319946 .08799744 .12319946 .06098938 .12319946 .03199768 .10018921 .03199768 .062194826 .03199768 .016220093 .08099365-.009765625 .13198853-.009765625 .18499756-.009765625 .22200012 .030197144 .23999024 .062194826 .2619934 .01322937 .30799867-.009765625 .35598756-.009765625 .46499635-.009765625 .5249939 .1151886 .5249939 .143219 .5249939 .15322876 .5169983 .15623474 .5099945 .15623474 .49798585 .15623474 .49598695 .14923096 .49299623 .13922119 .47299195 .07218933 .41600038 .018234253 .35798646 .018234253 .32499696 .018234253 .30099488 .04019165 .30099488 .0821991 .30099488 .10218811 .30699159 .12519837 .32099916 .18127442 .32798768 .21130371 .34999085 .29942323 .35499574 .31843568 .36898805 .37042237 .4039917 .4133911 .44898988 .4133911 .45399476 .4133911 .47999574 .4133911 .5009918 .39942933Z"/>
<path id="font_4_1" d="M.33299256-.25C.34098817-.25 .35299684-.25 .35299684-.23800659 .35299684-.23400879 .35198976-.23300171 .33898927-.22000122 .20199585-.09100342 .16799927 .09498596 .16799927 .25 .16799927 .5379944 .2869873 .6729889 .33799745 .71899417 .35198976 .7319946 .35299684 .73298647 .35299684 .73799136 .35299684 .7429962 .34899903 .75 .33898927 .75 .32299806 .75 .272995 .69898989 .2649994 .6899872 .1309967 .5499878 .102996829 .36999513 .102996829 .25 .102996829 .025985718 .19699097-.15400696 .33299256-.25Z"/>
<path id="font_3_2" d="M.22099304 .3976593H.31900025C.33799745 .3976593 .34999085 .3976593 .34999085 .4166565 .34999085 .43066407 .33699037 .43066407 .31999208 .43066407H.22898865L.2649994 .57250979C.2689972 .58750918 .2689972 .5924988 .2689972 .5934906 .2689972 .6144867 .25299073 .6244812 .23599243 .6244812 .20199585 .6244812 .19499207 .5974884 .18399048 .552536L.15299988 .43066407H.056991579C.037994386 .43066407 .024993897 .43066407 .024993897 .4116516 .024993897 .3976593 .037994386 .3976593 .054992677 .3976593H.14498902L.084991458 .15802002C.07899475 .13305664 .069992069 .09811401 .069992069 .084121707 .069992069 .024215699 .11898804-.009765625 .17199707-.009765625 .2789917-.009765625 .33999635 .13105774 .33999635 .14303589 .33999635 .15402222 .33099366 .15602112 .32499696 .15602112 .31399537 .15602112 .31298829 .15202332 .30599977 .13705445 .28599549 .08912659 .23599243 .018234253 .1749878 .018234253 .1539917 .018234253 .14199829 .032211305 .14199829 .06515503 .14199829 .084121707 .14498902 .09510803 .147995 .10809326L.22099304 .3976593Z"/>
<path id="font_4_2" d="M.30899049 .25C.30899049 .34500123 .29299928 .45899964 .23098755 .57699587 .18199158 .6689911 .09098816 .75 .07299805 .75 .06298828 .75 .05999756 .7429962 .05999756 .73799136 .05999756 .73399356 .05999756 .7319946 .07199097 .7200012 .21199036 .58699038 .24398804 .4039917 .24398804 .25 .24398804-.037002565 .125-.17300415 .07398987-.2190094 .06098938-.23200989 .05999756-.23300171 .05999756-.23800659 .05999756-.24301148 .06298828-.25 .07299805-.25 .08898926-.25 .13899231-.19900513 .14698792-.19000244 .2809906-.05000305 .30899049 .12998963 .30899049 .25Z"/>
<path id="font_4_3" d="M.73098757 .3330078C.74598696 .3330078 .7659912 .3330078 .7659912 .3560028 .7659912 .3789978 .74198916 .3789978 .72698977 .3789978H.09799194C.08299255 .3789978 .05899048 .3789978 .05899048 .3560028 .05899048 .3330078 .07899475 .3330078 .09399414 .3330078H.73098757M.72698977 .12098694C.74198916 .12098694 .7659912 .12098694 .7659912 .14398194 .7659912 .16699219 .74598696 .16699219 .73098757 .16699219H.09399414C.07899475 .16699219 .05899048 .16699219 .05899048 .14398194 .05899048 .12098694 .08299255 .12098694 .09799194 .12098694H.72698977Z"/>
<path id="font_5_1" d="M.5499878 .31877137C.5499878 .39183045 .5499878 .66503909 .30499269 .66503909 .05999756 .66503909 .05999756 .39183045 .05999756 .31877137 .05999756 .2467041 .05999756-.021484375 .30499269-.021484375 .5499878-.021484375 .5499878 .2467041 .5499878 .31877137M.30499269 .010513306C.2630005 .010513306 .19499207 .030517579 .17098999 .113601688 .15499878 .17164612 .15499878 .2697296 .15499878 .33177186 .15499878 .39883424 .15499878 .4758911 .16899109 .52993777 .19400025 .6200104 .269989 .6330261 .30499269 .6330261 .35099793 .6330261 .4169922 .6110077 .43899537 .5349426 .45399476 .48190309 .45498658 .408844 .45498658 .33177186 .45498658 .26771546 .45498658 .16664124 .43798829 .1105957 .4099884 .023513794 .33799745 .010513306 .30499269 .010513306Z"/>
<path id="font_3_1" d="M.20098877 .22851563C.22299195 .22851563 .2979889 .22950745 .35099793 .24850464 .43798829 .27848817 .44099427 .3384552 .44099427 .35343934 .44099427 .40940858 .3880005 .44140626 .32299806 .44140626 .20999146 .44140626 .04899597 .3524475 .04899597 .1754303 .04899597 .07330322 .11099243-.009765625 .22099304-.009765625 .3769989-.009765625 .46099855 .09031677 .46099855 .1043396 .46099855 .113357547 .45098878 .12036133 .44499208 .12036133 .43899537 .12036133 .43598939 .11735535 .43099977 .11135864 .35198976 .018234253 .23999024 .018234253 .22299195 .018234253 .1499939 .018234253 .12799073 .08030701 .12799073 .13638306 .12799073 .16642761 .13699341 .21148682 .14099121 .22851563H.20098877M.14898682 .2565155C.18099976 .37841798 .27198792 .4133911 .32299806 .4133911 .36299134 .4133911 .40098573 .39341737 .40098573 .35343934 .40098573 .2565155 .23699951 .2565155 .19499207 .2565155H.14898682Z"/>
<path id="font_6_1" d="M.79599 .22436524C.81199648 .22436524 .83699038 .22436524 .83699038 .2503662 .83699038 .2763672 .81199648 .2763672 .79599 .2763672H.1659851C.1499939 .2763672 .125 .2763672 .125 .2503662 .125 .22436524 .1499939 .22436524 .1659851 .22436524H.79599Z"/>
<path id="font_7_1" d="M.2689972 .39065553H.37799073C.397995 .39065553 .4119873 .39065553 .4119873 .4156494 .4119873 .43066407 .39898683 .43066407 .3809967 .43066407H.2789917L.31399537 .5685272C.31799317 .58351138 .31799317 .5894928 .31799317 .5904999 .31799317 .6144867 .29899598 .6244812 .2829895 .6244812 .2709961 .6244812 .24499512 .6174774 .23599243 .58551028L.19699097 .43066407H.08898926C.067993167 .43066407 .066986087 .42965699 .06298828 .426651 .057998659 .4226532 .053985597 .4096527 .053985597 .4046631 .056991579 .39065553 .06599426 .39065553 .085998538 .39065553H.18699646L.12799073 .15501404C.12199402 .13204956 .11399841 .09811401 .11399841 .086120609 .11399841 .028213501 .1659851-.009765625 .22698975-.009765625 .34199525-.009765625 .4099884 .12705994 .4099884 .14404297 .4099884 .14703369 .4079895 .15802002 .3909912 .15802002 .37799073 .15802002 .37599183 .1530304 .37098695 .14103699 .33699037 .06616211 .27999879 .023223877 .23098755 .023223877 .19400025 .023223877 .19299317 .060165407 .19299317 .073150638 .19299317 .087127689 .19299317 .08912659 .19799805 .10809326L.2689972 .39065553Z"/>
<path id="font_3_4" d="M.5179901 .37738038C.5219879 .39138795 .5219879 .39338685 .5219879 .40039063 .5219879 .42539979 .5019989 .43139649 .48999024 .43139649 .4850006 .43139649 .46199037 .43040467 .44898988 .40438844 .44699098 .3993988 .43798829 .3633728 .43299867 .34236146L.37298585 .102264408C.37199403 .09925842 .32899476 .018234253 .2559967 .018234253 .20698548 .018234253 .18998719 .054244996 .18998719 .09925842 .18998719 .1572876 .22399903 .24632263 .24699402 .3043518 .25698854 .32936097 .2599945 .33836366 .2599945 .35636903 .2599945 .4113922 .21598816 .44140626 .16999817 .44140626 .070999149 .44140626 .02999878 .300354 .02999878 .28834535 .02999878 .27934266 .036987306 .27534486 .04499817 .27534486 .057998659 .27534486 .05899048 .28134156 .06199646 .29135133 .08799744 .37838746 .1309967 .4133911 .16699219 .4133911 .18199158 .4133911 .19099427 .4033966 .19099427 .38038636 .19099427 .359375 .18299866 .33636476 .17599488 .31835938 .1349945 .21231079 .117996219 .1612854 .117996219 .11427307 .117996219 .016220093 .19198609-.009765625 .25099183-.009765625 .2979889-.009765625 .33198548 .011230469 .35598756 .034240724 .34199525-.021774292 .33198548-.060791017 .2939911-.108795169 .26098634-.14985657 .22099304-.17610169 .17599488-.17610169 .15899658-.17610169 .12098694-.17308045 .100997928-.14279175 .1539917-.13879395 .1579895-.09379578 .1579895-.08778381 .1579895-.06378174 .13999939-.05078125 .11898804-.05078125 .09700012-.05078125 .06199646-.0677948 .06199646-.11679077 .06199646-.1639862 .10499573-.20410156 .17599488-.20410156 .27799989-.20410156 .3929901-.121795658 .4229889-.00077819827L.5179901 .37738038Z"/>
<path id="font_5_2" d="M.5379944 .18702698H.5009918C.49899293 .17301941 .4889984 .10699463 .47399903 .09599304 .46699525 .08999634 .38598634 .08999634 .37199403 .08999634H.18499756L.31298829 .19403076C.34700013 .22103882 .43598939 .28504945 .46699525 .31506349 .49699403 .3450775 .5379944 .39608766 .5379944 .46710206 .5379944 .5920563 .4249878 .66503909 .29100038 .66503909 .1619873 .66503909 .07199097 .58006289 .07199097 .48609925 .07199097 .43510438 .114990238 .42910768 .12599182 .42910768 .15098572 .42910768 .17999268 .44709779 .17999268 .48310853 .17999268 .50509646 .16699219 .5371094 .12298584 .5371094 .1459961 .5880585 .20698548 .6260376 .27598573 .6260376 .3809967 .6260376 .43699647 .5480957 .43699647 .46710206 .43699647 .39608766 .3899994 .32305909 .31999208 .25904847L.08299255 .041992189C.07299805 .03199768 .07199097 .0309906 .07199097 0H.5069885L.5379944 .18702698Z"/>
</defs>
<path transform="matrix(1.00002,0,0,-1.00005,21.740853,87.85074)" stroke-width=".3985" stroke-linecap="butt" stroke-miterlimit="10" stroke-linejoin="miter" fill="none" stroke="#000000" d="M-5.66927 0H61.96439"/>
<path transform="matrix(1.00002,0,0,-1.00005,83.90573,87.85074)" stroke-width=".3985" stroke-linecap="round" stroke-linejoin="round" fill="none" stroke="#000000" d="M-2.07224 2.39104C-1.69365 .95639-.84999 .27895 0 0-.84999-.27895-1.69365-.95639-2.07224-2.39104"/>
<use data-text="t" xlink:href="#font_1_2" transform="matrix(10.909318,0,0,-10.909644,87.94018,91.2059)"/>
<path transform="matrix(1.00002,0,0,-1.00005,21.740853,87.85074)" stroke-width=".3985" stroke-linecap="butt" stroke-miterlimit="10" stroke-linejoin="miter" fill="none" stroke="#000000" d="M0-5.66927V70.4685"/>
<path transform="matrix(0,-1.00005,-1.00002,-0,21.740853,17.179444)" stroke-width=".3985" stroke-linecap="round" stroke-linejoin="round" fill="none" stroke="#000000" d="M-2.07224 2.39104C-1.69365 .95639-.84999 .27895 0 0-.84999-.27895-1.69365-.95639-2.07224-2.39104"/>
<use data-text="x" xlink:href="#font_1_3" transform="matrix(10.909318,0,0,-10.909644,.9044342,10.41687)"/>
<use data-text="(" xlink:href="#font_2_1" transform="matrix(10.909318,0,0,-10.909644,7.1395647,10.41687)"/>
<use data-text="t" xlink:href="#font_1_2" transform="matrix(10.909318,0,0,-10.909644,11.381645,10.41687)"/>
<use data-text=")" xlink:href="#font_2_2" transform="matrix(10.909318,0,0,-10.909644,15.3207249,10.41687)"/>
<use data-text="," xlink:href="#font_1_1" transform="matrix(10.909318,0,0,-10.909644,19.563813,10.41687)"/>
<use data-text="y" xlink:href="#font_1_4" transform="matrix(10.909318,0,0,-10.909644,24.396645,10.41687)"/>
<use data-text="(" xlink:href="#font_2_1" transform="matrix(10.909318,0,0,-10.909644,30.152024,10.41687)"/>
<use data-text="t" xlink:href="#font_1_2" transform="matrix(10.909318,0,0,-10.909644,34.395105,10.41687)"/>
<use data-text=")" xlink:href="#font_2_2" transform="matrix(10.909318,0,0,-10.909644,38.334184,10.41687)"/>
<path transform="matrix(1.00002,0,0,-1.00005,21.740853,87.85074)" stroke-width=".79701" stroke-linecap="butt" stroke-miterlimit="10" stroke-linejoin="miter" fill="none" stroke="#0000ff" d="M-5.66927 20.77306-2.83484 18.79636-.00041 17.00824 2.83397 15.39229 5.6684 13.9277 8.50282 12.60242 11.33723 11.40298 14.17166 10.31947 17.00609 9.33589 19.8405 8.44789 22.67493 7.64465 25.50935 6.9167 28.34377 6.25838 31.17819 5.66321 34.0126 5.12384 36.84703 4.6355 39.68146 4.19518 42.51587 3.79507 45.3503 3.43433 48.18471 3.10776 51.01913 2.81192 53.85356 2.5446 56.68799 2.30153 59.5224 2.0818 62.35683 1.88455"/>
<use data-text="x" xlink:href="#font_3_3" transform="matrix(7.9702599,0,0,-7.970498,88.13318,88.28576)" fill="#0000ff"/>
<use data-text="(" xlink:href="#font_4_1" transform="matrix(7.9702599,0,0,-7.970498,92.900279,88.28576)" fill="#0000ff"/>
<use data-text="t" xlink:href="#font_3_2" transform="matrix(7.9702599,0,0,-7.970498,96.193347,88.28576)" fill="#0000ff"/>
<use data-text=")" xlink:href="#font_4_2" transform="matrix(7.9702599,0,0,-7.970498,99.2514,88.28576)" fill="#0000ff"/>
<use data-text="=" xlink:href="#font_4_3" transform="matrix(7.9702599,0,0,-7.970498,104.89434,88.28576)" fill="#0000ff"/>
<use data-text="x" xlink:href="#font_3_3" transform="matrix(7.9702599,0,0,-7.970498,113.83569,88.28576)" fill="#0000ff"/>
<use data-text="0" xlink:href="#font_5_1" transform="matrix(5.97772,0,0,-5.9778988,118.60278,89.392818)" fill="#0000ff"/>
<use data-text="e" xlink:href="#font_3_1" transform="matrix(7.9702599,0,0,-7.970498,122.75387,88.28576)" fill="#0000ff"/>
<use data-text="&#x2212;" xlink:href="#font_6_1" transform="matrix(5.97772,0,0,-5.9778988,126.68294,85.47262)" fill="#0000ff"/>
<use data-text="t" xlink:href="#font_7_1" transform="matrix(5.97772,0,0,-5.9778988,132.43906,85.47262)" fill="#0000ff"/>
<path transform="matrix(1.00002,0,0,-1.00005,21.740853,87.85074)" stroke-width=".79701" stroke-linecap="butt" stroke-miterlimit="10" stroke-linejoin="miter" fill="none" stroke="#ff0000" d="M-5.66927 54.9708-2.83484 45.00859-.00041 36.85135 2.83397 30.17686 5.6684 24.71002 8.50282 20.23195 11.33723 16.56403 14.17166 13.56004 17.00609 11.10194 19.8405 9.08932 22.67493 7.44136 25.50935 6.09227 28.34377 4.98671 31.17819 4.08357 34.0126 3.34264 36.84703 2.73839 39.68146 2.24054 42.51587 1.83524 45.3503 1.49959 48.18471 1.22665 51.01913 1.00563 53.85356 .82137 56.68799 .67387 59.5224 .55234 62.35683 .44896"/>
<use data-text="y" xlink:href="#font_3_4" transform="matrix(7.9702599,0,0,-7.970498,58.882596,81.37441)" fill="#ff0000"/>
<use data-text="(" xlink:href="#font_4_1" transform="matrix(7.9702599,0,0,-7.970498,63.353689,81.37441)" fill="#ff0000"/>
<use data-text="t" xlink:href="#font_3_2" transform="matrix(7.9702599,0,0,-7.970498,66.64775,81.37441)" fill="#ff0000"/>
<use data-text=")" xlink:href="#font_4_2" transform="matrix(7.9702599,0,0,-7.970498,69.70581,81.37441)" fill="#ff0000"/>
<use data-text="=" xlink:href="#font_4_3" transform="matrix(7.9702599,0,0,-7.970498,75.348758,81.37441)" fill="#ff0000"/>
<use data-text="y" xlink:href="#font_3_4" transform="matrix(7.9702599,0,0,-7.970498,84.2901,81.37441)" fill="#ff0000"/>
<use data-text="0" xlink:href="#font_5_1" transform="matrix(5.97772,0,0,-5.9778988,88.47618,82.48147)" fill="#ff0000"/>
<use data-text="e" xlink:href="#font_3_1" transform="matrix(7.9702599,0,0,-7.970498,92.62727,81.37441)" fill="#ff0000"/>
<use data-text="&#x2212;" xlink:href="#font_6_1" transform="matrix(5.97772,0,0,-5.9778988,96.55534,78.56127)" fill="#ff0000"/>
<use data-text="2" xlink:href="#font_5_2" transform="matrix(5.97772,0,0,-5.9778988,102.31146,78.56127)" fill="#ff0000"/>
<use data-text="t" xlink:href="#font_7_1" transform="matrix(5.97772,0,0,-5.9778988,105.96454,78.56127)" fill="#ff0000"/>
</svg>
