<svg xmlns="http://www.w3.org/2000/svg" xmlns:xlink="http://www.w3.org/1999/xlink" version="1.1" width="209" height="98" viewBox="0 0 209 98">
<defs>
<path id="font_1_2" d="M.42799378 .45222474 .43899537 .49023438H.31199647L.34599305 .6092224 .33399964 .6162262 .23699951 .53923037 .22399903 .49023438H.14299011L.13198853 .45222474H.21499634L.125 .08627319C.10998535 .029266358 .12199402-.01171875 .17199707-.01171875 .2519989-.01171875 .31599427 .054275514 .35598756 .1292572L.33399964 .1462555C.31098939 .10726929 .2599945 .040267946 .22898865 .040267946 .20799256 .040267946 .20799256 .0632782 .21398926 .088272098L.30299378 .45222474H.42799378Z"/>
<path id="font_2_1" d="M.6349945 .2529297V.31092835H.084991458V.2529297H.6349945Z"/>
<path id="font_3_1" d="M.5239868 .14224243C.49798585 .09126282 .45799256 .039260866 .43598939 .039260866 .42399598 .039260866 .42099 .05126953 .42099 .06925964 .42099 .08026123 .42199708 .09326172 .42399598 .10624695L.49198915 .42520143H.57899478L.61898806 .5019531C.58999636 .49520875 .548996 .49121095 .5019989 .49121095H.21798706C.16699219 .49121095 .09700012 .46620179 .05899048 .4052124L.07499695 .38720704C.114990238 .41819764 .16699219 .42520143 .21998596 .42520143 .1769867 .24923706 .147995 .09225464 .09199524 .08226013 .066986087 .07826233 .034988405 .06225586 .034988405 .024261475 .034988405 .0012664795 .06599426-.01171875 .08099365-.01171875 .13398743-.01171875 .17098999 .054260255 .18899536 .09925842 .21199036 .15724182 .24699402 .28222657 .2769928 .42520143H.4019928L.33699037 .12324524C.33399964 .102249149 .33198548 .08325195 .33198548 .06726074 .33198548 .01626587 .34799195-.01171875 .38398744-.01171875 .45700074-.01171875 .5130005 .044265748 .5479889 .12825012L.5239868 .14224243Z"/>
<path id="font_4_3" d="M.15899658-.0146484379 .36898805 .70703127H.3019867L.09199524-.0146484379H.15899658Z"/>
<path id="font_4_6" d="M.4850006 .13195801 .45700074 .13696289C.43598939 .08299255 .41600038 .07598877 .37599183 .07598877H.11999512C.13598633 .1279602 .19499207 .19892884 .28799439 .2658844 .38398744 .33584596 .45799256 .38082887 .45799256 .49276734 .45799256 .63168337 .3659973 .6796875 .26098634 .6796875 .12399292 .6796875 .052993776 .5967102 .052993776 .54473879 .052993776 .51075747 .09098816 .49476625 .10798645 .49476625 .12599182 .49476625 .1329956 .50476077 .13699341 .5217438 .15299988 .5897064 .19198609 .64468386 .2539978 .64468386 .33099366 .64468386 .35299684 .5797119 .35299684 .50675967 .35299684 .3998108 .29899598 .33984376 .21199036 .26289369 .08898926 .15594483 .04598999 .08798218 .026992798 .009994507L.036987306 0H.45098878L.4850006 .13195801Z"/>
<path id="font_4_7" d="M.12998963 .3657837C.12998963 .3487854 .1349945 .33779908 .147995 .33779908 .1599884 .33779908 .18699646 .34777833 .23498535 .34777833 .31999208 .34777833 .36799623 .27090455 .36799623 .18403626 .36799623 .065216068 .30899049 .023269654 .23799134 .023269654 .17199707 .023269654 .1289978 .07319641 .10998535 .12911988 .10398865 .14808655 .09399414 .15707398 .07998657 .15707398 .06199646 .15707398 .026992798 .13809204 .026992798 .10215759 .026992798 .05921936 .09599304-.01171875 .23699951-.01171875 .38198854-.01171875 .47299195 .06121826 .47299195 .18902588 .47299195 .32281495 .35798646 .3627777 .30299378 .3677826V.3717804C.35699464 .38078309 .44400025 .4207611 .44400025 .5197296 .44400025 .6306915 .35699464 .6796875 .25 .6796875 .117996219 .6796875 .052993776 .60369876 .052993776 .5607147 .052993776 .5297241 .08799744 .51272585 .101989749 .51272585 .114990238 .51272585 .12298584 .5197296 .1269989 .5327301 .14898682 .60069277 .18699646 .64468386 .24299622 .64468386 .32199098 .64468386 .34098817 .57470706 .34098817 .51872256 .34098817 .4587555 .31999208 .38378907 .23498535 .38378907 .18699646 .38378907 .1599884 .39378358 .147995 .39378358 .1349945 .39378358 .12998963 .38378907 .12998963 .3657837Z"/>
<path id="font_4_8" d="M.42599488 .5919647 .44999696 .6599579 .44499208 .66796877H.11099243L.100997928 .65896609 .08099365 .32388307 .10499573 .31188966C.14698792 .35983277 .18798828 .3828125 .24198914 .3828125 .30599977 .3828125 .37599183 .3358612 .37599183 .20404053 .37599183 .10116577 .33399964 .023269654 .24699402 .023269654 .1769867 .023269654 .14099121 .07420349 .12098694 .13113404 .115997318 .14611817 .10699463 .15510559 .09298706 .15510559 .07299805 .15510559 .039993287 .13513184 .039993287 .10217285 .039993287 .056228639 .10998535-.01171875 .23999024-.01171875 .40499879-.01171875 .47999574 .0881958 .47999574 .21502686 .47999574 .35484315 .3919983 .4268036 .272995 .4268036 .21798706 .4268036 .15899658 .4028015 .1269989 .3738098L.125 .37580873 .147995 .56292727C.15098572 .58795168 .1579895 .5919647 .1769867 .5919647H.42599488Z"/>
<path id="font_4_5" d="M.43699647 0V.0289917L.35299684 .035995485C.33198548 .037994386 .31999208 .04598999 .31999208 .08496094V.67367556L.31498719 .6796875 .10899353 .6446991V.6197052L.20199585 .6087036C.21899414 .6067047 .22599793 .5987091 .22599793 .56973269V.08496094C.22599793 .065979007 .22299195 .053985597 .21699524 .04698181 .21199036 .039993287 .20399475 .036987306 .19299317 .035995485L.10899353 .0289917V0H.43699647Z"/>
<path id="font_1_1" d="M.33999635 .46694947C.36999513 .46694947 .41999818 .4519348 .41999818 .38290406 .41999818 .28987123 .37199403 .21484375 .29699708 .21484375 .24398804 .21484375 .21398926 .2508545 .21398926 .3008728 .21398926 .36390687 .24499512 .46694947 .33999635 .46694947M.45700074 .4719391C.43099977 .48895265 .38198854 .5019531 .33299256 .5019531 .16899109 .5019531 .11999512 .38891603 .11999512 .31788636 .11999512 .24385071 .17399597 .20584107 .20399475 .19483948V.19284058C.17298889 .17984009 .11299133 .15783692 .11299133 .11782837 .11299133 .08482361 .14299011 .061828615 .18399048 .04283142V.04081726C.115997318 .028823853 .02999878-.013183594 .02999878-.096191409 .02999878-.18519593 .12298584-.2421875 .25-.2421875 .3849945-.2421875 .49398805-.18519593 .49398805-.07518005 .49398805-.00018310547 .43699647 .05381775 .31900025 .081832889 .23498535 .1018219 .19799805 .11582947 .19799805 .14382935 .19799805 .16282654 .21798706 .1768341 .24198914 .18283081 .2619934 .17984009 .2809906 .17984009 .29599 .17984009 .43499757 .17984009 .5119934 .25585938 .5119934 .35890199 .5119934 .38591004 .5039978 .4109192 .4909973 .42793275L.57499697 .4399414 .60798647 .50294497 .60198977 .51194766 .45700074 .4719391M.27198792-.2071991C.18499756-.2071991 .12199402-.15919495 .12199402-.08718872 .12199402-.015182495 .18699646 .018829346 .22799683 .02482605 .29100038 .015823365 .40899659-.010177612 .40899659-.094192508 .40899659-.17019654 .34700013-.2071991 .27198792-.2071991Z"/>
<path id="font_4_1" d="M.1749878 .2822113C.1749878 .56832888 .2619934 .65437319 .32499696 .66737368V.6923828C.1499939 .685379 .10499573 .46829225 .10499573 .2822113 .10499573 .09614563 .1499939-.12094116 .32499696-.12792969V-.10293579C.2669983-.090927127 .1749878-.0059051516 .1749878 .2822113Z"/>
<path id="font_4_2" d="M.1749878 .2822113C.1749878-.0059051516 .08299255-.090927127 .024993897-.10293579V-.12792969C.19999695-.12094116 .24499512 .09614563 .24499512 .2822113 .24499512 .46829225 .19999695 .685379 .024993897 .6923828V.66737368C.08799744 .65437319 .1749878 .56832888 .1749878 .2822113Z"/>
<path id="font_2_2" d="M.6349945 .14315796V.20117188H.084991458V.14315796H.6349945M.6349945 .36288453V.42089845H.084991458V.36288453H.6349945Z"/>
<path id="font_4_4" d="M.2649994 .64468386C.3600006 .64468386 .3869934 .49682618 .3869934 .33398438 .3869934 .17112732 .3600006 .023269654 .2649994 .023269654 .16999817 .023269654 .14299011 .17112732 .14299011 .33398438 .14299011 .49682618 .16999817 .64468386 .2649994 .64468386M.2649994 .6796875C.099990848 .6796875 .040985109 .53378298 .040985109 .33398438 .040985109 .13417053 .099990848-.01171875 .2649994-.01171875 .42999269-.01171875 .4889984 .13417053 .4889984 .33398438 .4889984 .53378298 .42999269 .6796875 .2649994 .6796875Z"/>
<path id="font_4_11" d="M.36698915 .35102845V.46794129C.33399964 .49194337 .2829895 .5019531 .23799134 .5019531 .12998963 .5019531 .056991579 .45095826 .055999757 .35603334 .056991579 .27308656 .12399292 .2361145 .20698548 .21113587 .2519989 .19714356 .31498719 .17416382 .31498719 .10621643 .31498719 .055252077 .2749939 .023269654 .22200012 .023269654 .14099121 .023269654 .09599304 .082229617 .07598877 .16716004H.04699707L.056991579 .03627014C.09298706 .004272461 .1539917-.01171875 .21299744-.01171875 .33198548-.01171875 .3999939 .051254274 .3999939 .13618469 .3999939 .2241211 .34599305 .26409913 .24299622 .29606629 .20199585 .30906678 .13598633 .3300476 .13598633 .3860016 .13699341 .43795777 .17599488 .46694947 .22599793 .46694947 .29699708 .46694947 .33099366 .4119873 .33799745 .35102845H.36698915Z"/>
<path id="font_4_9" d="M.036987306 .47694398V.45195008L.07499695 .4469452C.100997928 .4429474 .10699463 .43795777 .10699463 .40194703V.08699036C.10699463 .035995485 .10398865 .033996583 .03199768 .0289917V0H.27598573V.0289917C.20498657 .033996583 .20098877 .035995485 .20098877 .08699036V.49609376L.19400025 .5020752 .036987306 .47694398M.15299988 .71484377C.116989139 .71484377 .09199524 .6888428 .09199524 .65283206 .09199524 .61782839 .116989139 .5928345 .15299988 .5928345 .18998719 .5928345 .21299744 .61782839 .21398926 .65283206 .21398926 .6888428 .18998719 .71484377 .15299988 .71484377Z"/>
<path id="font_4_10" d="M.5289917 .34295655C.5289917 .4439392 .47399903 .5019531 .38198854 .5019531 .30799867 .5019531 .2619934 .46594239 .19999695 .4259491L.18598938 .5019531 .036987306 .47694398V.45195008L.07499695 .4469452C.100997928 .4429474 .10699463 .4379425 .10699463 .40194703V.08699036C.10699463 .035995485 .10398865 .033996583 .03199768 .0289917V0H.27598573V.0289917C.20498657 .033996583 .20098877 .035995485 .20098877 .08699036V.32095338C.20098877 .34596253 .20298767 .35995484 .21099854 .37594605 .23199463 .4149475 .2769928 .44795228 .32998658 .44795228 .397995 .44795228 .43499757 .40994264 .43499757 .32295228V.08699036C.43499757 .035995485 .43199159 .033996583 .3600006 .0289917V0H.60398867V.0289917C.5329895 .033996583 .5289917 .035995485 .5289917 .08699036V.34295655Z"/>
</defs>
<path transform="matrix(1.00006,0,0,-1.00002,37.28437,66.43001)" d="M-34.0165-30.6149V64.63141H26.7163V-30.6149ZM26.7163 64.63141" fill="#d9d9ff"/>
<path transform="matrix(1.00006,0,0,-1.00002,37.28437,66.43001)" d="M26.7163-30.6149V64.63141H106.86581V-30.6149ZM106.86581 64.63141" fill="#d9f0d9"/>
<path transform="matrix(1.00006,0,0,-1.00002,37.28437,66.43001)" d="M106.86581-30.6149V64.63141H170.08257V-30.6149ZM170.08257 64.63141" fill="#d9d9ff"/>
<path transform="matrix(1.00006,0,0,-1.00002,37.28437,66.43001)" stroke-width=".19925" stroke-linecap="butt" stroke-dasharray="2.98883,2.98883" stroke-miterlimit="10" stroke-linejoin="miter" fill="none" stroke="#000000" d="M106.86581-30.6149V64.63141"/>
<path transform="matrix(1.00006,0,0,-1.00002,37.28437,66.43001)" stroke-width=".19925" stroke-linecap="butt" stroke-dasharray="2.98883,2.98883" stroke-miterlimit="10" stroke-linejoin="miter" fill="none" stroke="#000000" d="M26.7163-30.6149V64.63141"/>
<path transform="matrix(1.00006,0,0,-1.00002,37.28437,66.43001)" stroke-width=".3985" stroke-linecap="butt" stroke-miterlimit="10" stroke-linejoin="miter" fill="none" stroke="#000000" d="M-34.0165 0H169.68407"/>
<path transform="matrix(1.00006,0,0,-1.00002,207.17789,66.43001)" stroke-width=".3985" stroke-linecap="round" stroke-linejoin="round" fill="none" stroke="#000000" d="M-2.07224 2.39104C-1.69365 .95639-.84999 .27895 0 0-.84999-.27895-1.69365-.95639-2.07224-2.39104"/>
<path transform="matrix(1.00006,0,0,-1.00002,37.28437,66.43001)" stroke-width=".3985" stroke-linecap="butt" stroke-miterlimit="10" stroke-linejoin="miter" fill="none" stroke="#000000" d="M0-30.6149V64.23291"/>
<path transform="matrix(0,-1.00002,-1.00006,-0,37.28437,1.9965592)" stroke-width=".3985" stroke-linecap="round" stroke-linejoin="round" fill="none" stroke="#000000" d="M-2.07224 2.39104C-1.69365 .95639-.84999 .27895 0 0-.84999-.27895-1.69365-.95639-2.07224-2.39104"/>
<use data-text="t" xlink:href="#font_1_2" transform="matrix(9.166149,0,0,-9.165783,203.72336,62.95094)"/>
<path transform="matrix(1.00006,0,0,-1.00002,37.28437,66.43001)" stroke-width=".3985" stroke-linecap="butt" stroke-miterlimit="10" stroke-linejoin="miter" fill="none" stroke="#929292" d="M-26.7163 1.7933V-1.7933"/>
<use data-text="&#x2212;" xlink:href="#font_2_1" transform="matrix(9.166149,0,0,-9.165783,1.0932007,80.962299)"/>
<use data-text="&#x03c0;" xlink:href="#font_3_1" transform="matrix(7.0913255,0,0,-7.091042,7.6885988,76.64021)"/>
<use data-text="/" xlink:href="#font_4_3" transform="matrix(13.199291,0,0,-13.198764,11.611839,80.962299)"/>
<use data-text="2" xlink:href="#font_4_6" transform="matrix(7.0913255,0,0,-7.091042,16.278122,80.962299)"/>
<path transform="matrix(1.00006,0,0,-1.00002,37.28437,66.43001)" stroke-width=".3985" stroke-linecap="butt" stroke-miterlimit="10" stroke-linejoin="miter" fill="none" stroke="#929292" d="M26.7163 1.7933V-1.7933"/>
<use data-text="&#x03c0;" xlink:href="#font_3_1" transform="matrix(7.0913255,0,0,-7.091042,57.826604,76.64021)"/>
<use data-text="/" xlink:href="#font_4_3" transform="matrix(13.199291,0,0,-13.198764,61.749845,80.962299)"/>
<use data-text="2" xlink:href="#font_4_6" transform="matrix(7.0913255,0,0,-7.091042,66.41513,80.962299)"/>
<path transform="matrix(1.00006,0,0,-1.00002,37.28437,66.43001)" stroke-width=".3985" stroke-linecap="butt" stroke-miterlimit="10" stroke-linejoin="miter" fill="none" stroke="#929292" d="M53.43289 1.7933V-1.7933"/>
<use data-text="&#x03c0;" xlink:href="#font_3_1" transform="matrix(9.166149,0,0,-9.165783,87.7314,76.155208)"/>
<path transform="matrix(1.00006,0,0,-1.00002,37.28437,66.43001)" stroke-width=".3985" stroke-linecap="butt" stroke-miterlimit="10" stroke-linejoin="miter" fill="none" stroke="#929292" d="M80.14922 1.7933V-1.7933"/>
<use data-text="3" xlink:href="#font_4_7" transform="matrix(7.0913255,0,0,-7.091042,109.3817,76.64021)"/>
<use data-text="&#x03c0;" xlink:href="#font_3_1" transform="matrix(7.0913255,0,0,-7.091042,113.14293,76.64021)"/>
<use data-text="/" xlink:href="#font_4_3" transform="matrix(13.199291,0,0,-13.198764,117.06617,80.962299)"/>
<use data-text="2" xlink:href="#font_4_6" transform="matrix(7.0913255,0,0,-7.091042,121.732448,80.962299)"/>
<path transform="matrix(1.00006,0,0,-1.00002,37.28437,66.43001)" stroke-width=".3985" stroke-linecap="butt" stroke-miterlimit="10" stroke-linejoin="miter" fill="none" stroke="#929292" d="M106.86581 1.7933V-1.7933"/>
<use data-text="2" xlink:href="#font_4_6" transform="matrix(9.166149,0,0,-9.165783,138.73645,77.75923)"/>
<use data-text="&#x03c0;" xlink:href="#font_3_1" transform="matrix(9.166149,0,0,-9.165783,143.59775,77.75923)"/>
<path transform="matrix(1.00006,0,0,-1.00002,37.28437,66.43001)" stroke-width=".3985" stroke-linecap="butt" stroke-miterlimit="10" stroke-linejoin="miter" fill="none" stroke="#929292" d="M133.58214 1.7933V-1.7933"/>
<use data-text="5" xlink:href="#font_4_8" transform="matrix(7.0913255,0,0,-7.091042,162.8179,76.64021)"/>
<use data-text="&#x03c0;" xlink:href="#font_3_1" transform="matrix(7.0913255,0,0,-7.091042,166.57913,76.64021)"/>
<use data-text="/" xlink:href="#font_4_3" transform="matrix(13.199291,0,0,-13.198764,170.50238,80.962299)"/>
<use data-text="2" xlink:href="#font_4_6" transform="matrix(7.0913255,0,0,-7.091042,175.16864,80.962299)"/>
<path transform="matrix(1.00006,0,0,-1.00002,37.28437,66.43001)" stroke-width=".3985" stroke-linecap="butt" stroke-miterlimit="10" stroke-linejoin="miter" fill="none" stroke="#929292" d="M160.29872 1.7933V-1.7933"/>
<use data-text="3" xlink:href="#font_4_7" transform="matrix(9.166149,0,0,-9.165783,192.17267,77.75923)"/>
<use data-text="&#x03c0;" xlink:href="#font_3_1" transform="matrix(9.166149,0,0,-9.165783,197.03397,77.75923)"/>
<path transform="matrix(1.00006,0,0,-1.00002,37.28437,66.43001)" stroke-width=".3985" stroke-linecap="butt" stroke-miterlimit="10" stroke-linejoin="miter" fill="none" stroke="#929292" d="M17.00824 1.7933V-1.7933"/>
<path transform="matrix(1.00006,0,0,-1.00002,37.28437,66.43001)" stroke-width=".3985" stroke-linecap="butt" stroke-miterlimit="10" stroke-linejoin="miter" fill="none" stroke="#929292" d="M1.19554-17.00824H-1.19554"/>
<use data-text="&#x2212;" xlink:href="#font_2_1" transform="matrix(9.166149,0,0,-9.165783,21.231408,86.507419)"/>
<use data-text="1" xlink:href="#font_4_5" transform="matrix(9.166149,0,0,-9.165783,27.826806,86.507419)"/>
<path transform="matrix(1.00006,0,0,-1.00002,37.28437,66.43001)" stroke-width=".3985" stroke-linecap="butt" stroke-miterlimit="10" stroke-linejoin="miter" fill="none" stroke="#929292" d="M1.19554 17.00824H-1.19554"/>
<use data-text="1" xlink:href="#font_4_5" transform="matrix(9.166149,0,0,-9.165783,27.827805,52.48973)"/>
<path transform="matrix(1.00006,0,0,-1.00002,37.28437,66.43001)" stroke-width=".3985" stroke-linecap="butt" stroke-miterlimit="10" stroke-linejoin="miter" fill="none" stroke="#929292" d="M1.19554 34.0165H-1.19554"/>
<use data-text="2" xlink:href="#font_4_6" transform="matrix(9.166149,0,0,-9.165783,27.827805,35.481389)"/>
<path transform="matrix(1.00006,0,0,-1.00002,37.28437,66.43001)" stroke-width=".3985" stroke-linecap="butt" stroke-miterlimit="10" stroke-linejoin="miter" fill="none" stroke="#929292" d="M1.19554 51.02477H-1.19554"/>
<use data-text="3" xlink:href="#font_4_7" transform="matrix(9.166149,0,0,-9.165783,27.827805,18.448048)"/>
<path transform="matrix(1.00006,0,0,-1.00002,37.28437,66.43001)" stroke-width=".3985" stroke-linecap="butt" stroke-miterlimit="10" stroke-linejoin="miter" fill="none" stroke="#929292" d="M1.19554 17.00824H-1.19554"/>
<path transform="matrix(1.00006,0,0,-1.00002,37.28437,66.43001)" stroke-width="1.59404" stroke-linecap="butt" stroke-miterlimit="10" stroke-linejoin="miter" fill="none" stroke="#990000" d="M-32.42245 0H-33.72427-33.43205-33.13982-32.8476-32.55537-32.26315-31.97092-31.6787-31.38647-31.09424-30.80202-30.50978-30.21756-29.92532-29.63312-29.3409-29.04866-28.75644-28.46422-28.172-27.87976-27.58754-27.29532-27.00308-26.71086-26.41862-26.1264-25.83417-25.54196-25.24974-24.9575-24.66528-24.37305-24.08083-23.78859-23.49637-23.20415-22.91193-22.6197-22.32747-22.03525-21.74301-21.4508-21.15858-20.86635-20.57413-20.28189-19.98967-19.69743-19.40521-19.11299-18.82076-18.52855-18.23631-17.94409-17.65186-17.35965-17.06741-16.77519-16.48297-16.19073-15.89851-15.60628-15.31406-15.02182-14.7296-14.4374-14.14516-13.85294-13.5607-13.26848-12.97624-12.68402-12.3918-12.09956-11.80736-11.51512-11.2229-10.93066-10.63844-10.34624-10.054-9.76178-9.46954-9.17732-8.88509-8.59286-8.30064-8.0084-7.71619-7.42397-7.13174-6.83951-6.54729-6.25507-5.96283-5.67061-5.37837-5.08617-4.79393-4.50171-4.20949-3.91725-3.62503-3.33281-3.04059-2.74835-2.45613-2.16391-1.87167-1.57945-1.28722-.995-.70277-.41055-.11833 .17386 .46608 .75832 1.05054 1.34277 1.635 1.92722 2.21944 2.51166 2.8039 3.09612 3.38835 3.68057 3.97281 4.26503 4.55725 4.84947 5.1417 5.43393 5.72615 6.01839 6.3106 6.60281 6.89505 7.18727 7.4795 7.77173 8.06396 8.35619 8.6484 8.94064 9.23285 9.52509 9.8173 10.10954 10.40175 10.69397 10.9862 11.27843 11.57066 11.86288 12.15512 12.44734 12.73956 13.0318 13.324 13.61624 13.90846 14.2007 14.49292 14.78514 15.07738 15.3696 15.66183 15.95404 16.24628 16.5385 16.83072 17.12296 17.41516 17.7074 17.99962 18.29185 18.58408 18.8763 19.16853 19.46075 19.75299 20.04521 20.33743 20.62965 20.92188 21.21411 21.50632 21.79855 22.09077 22.38301 22.67523 22.96745 23.25969 23.55191 23.84415 24.13637"/>
<path transform="matrix(-1.00006,-0,0,1.00002,4.0629007,66.43001)" stroke-width="1.59404" stroke-linecap="round" stroke-linejoin="round" fill="none" stroke="#990000" d="M-3.5069 4.55072C-2.8662 1.82025-1.43846 .5309 0 0-1.43846-.5309-2.8662-1.82025-3.5069-4.55072"/>
<path transform="matrix(1.00006,0,0,-1.00002,37.28437,66.43001)" stroke-width="1.59404" stroke-linecap="butt" stroke-miterlimit="10" stroke-linejoin="miter" fill="none" stroke="#990000" d="M26.7163 51.02449 27.11028 51.0193 27.50423 51.00581 27.8982 50.98349 28.29213 50.95079 28.68611 50.91005 29.08006 50.86047 29.47403 50.80104 29.86797 50.73279 30.26195 50.65623 30.65591 50.56981 31.04987 50.4751 31.44383 50.37154 31.83778 50.25865 32.23175 50.1377 32.6257 50.0082 33.01967 49.86935 33.41362 49.72246 33.80759 49.56726 34.20154 49.4035 34.5955 49.23143 34.98946 49.05157 35.38342 48.86317 35.77737 48.66696 36.17134 48.4635 36.56529 48.25146 36.95926 48.0319 37.35321 47.80533 37.74718 47.571 38.14113 47.32912 38.5351 47.08049 38.92905 46.8251 39.32301 46.56195 39.71696 46.29309 40.11093 46.01694 40.5049 45.7346 40.89885 45.446 41.2928 45.15169 41.68677 44.85039 42.08073 44.54388 42.4747 44.23193 42.86864 43.91402 43.2626 43.59091 43.65657 43.2634 44.05054 42.92966 44.44449 42.592 44.83844 42.24968 45.23242 41.9027 45.62637 41.5513 46.02032 41.19627 46.41429 40.83708 46.80826 40.47453 47.20221 40.1086 47.59618 39.73903 47.99013 39.36661 48.3841 38.99133 48.77805 38.61296 49.17201 38.23248 49.56596 37.84996 49.95993 37.46533 50.35388 37.07838 50.74785 36.69014 51.1418 36.30058 51.53577 35.90921 51.92972 35.5176 52.32368 35.12492 52.71764 34.73122 53.1116 34.3378 53.50555 33.94409 53.89952 33.55014 54.29347 33.1567 54.68744 32.7635 55.08139 32.3711 55.47536 31.97922 55.86931 31.5889 56.26328 31.19986 56.65723 30.81187 57.0512 30.42596 57.44516 30.04213 57.83911 29.6601 58.23308 29.28041 58.62704 28.90308 59.021 28.52882 59.41495 28.15718 59.80893 27.78944 60.20288 27.42429 60.59683 27.06302 60.99078 26.70567 61.38477 26.35168 61.77872 26.00209 62.17268 25.65666 62.56662 25.3159 62.9606 24.97983 63.35455 24.64867 63.74852 24.32245 64.14246 24.00114 64.53644 23.68558 64.93039 23.37544 65.32436 23.07076 65.71829 22.77255 66.11227 22.47981 66.50623 22.1933 66.90019 21.91354 67.29414 21.64026 67.68811 21.3732 68.08206 21.11316 68.47603 20.86038 68.86998 20.61357 69.26395 20.37479 69.6579 20.14357 70.05186 19.91881 70.44582 19.70288 70.83978 19.49397 71.23375 19.29233 71.6277 19.0995 72.02167 18.91446 72.41562 18.73721 72.80959 18.56851 73.20354 18.40785 73.5975 18.25526 73.99146 18.11176 74.38542 17.97653 74.77939 17.84937 75.17334 17.73206 75.56729 17.62279 75.96126 17.52158 76.35522 17.4305 76.74918 17.34796 77.14313 17.27374 77.5371 17.20912 77.93106 17.15356 78.32503 17.1066 78.71896 17.06897 79.11293 17.04068 79.5069 17.02097 79.90086 17.01057 80.2948 17.00954 80.68878 17.01732 81.08273 17.03445 81.4767 17.06091 81.87064 17.09596 82.26462 17.13982 82.65857 17.1938 83.05254 17.25609 83.44649 17.3272 83.84045 17.40817 84.2344 17.49692 84.62837 17.59502 85.02234 17.70247 85.41629 17.81796 85.81026 17.94174 86.20421 18.07541 86.59818 18.21684 86.99213 18.3666 87.3861 18.52568 87.78004 18.6923 88.17401 18.86671 88.56796 19.05019 88.96193 19.2412 89.35588 19.43999 89.74985 19.6471 90.1438 19.86171 90.53777 20.08336 90.93172 20.31355 91.32568 20.55075 91.71964 20.79472 92.1136 21.0462 92.50755 21.30469 92.90152 21.56914 93.29547 21.84111 93.68944 22.11958 94.0834 22.40402 94.47737 22.6952 94.8713 22.99237 95.26527 23.29498 95.65924 23.60382 96.0532 23.9181 96.44714 24.23732 96.84111 24.56252 97.23508 24.89262 97.62904 25.22714 98.023 25.56686 98.41695 25.91127 98.81093 26.25954 99.20488 26.61224 99.59885 26.96884 99.9928 27.32904 100.38676 27.69316 100.78072 28.06064 101.17468 28.43098 101.56863 28.80472 101.9626 29.18127 102.35655 29.55992 102.75052 29.94142 103.14447 30.32475 103.53844 30.7104 103.93239 31.09787 104.32635 31.48665 104.7203 31.87672 105.11427 32.26808"/>
<path transform="matrix(1.00006,0,0,-1.00002,37.28437,66.43001)" stroke-width="1.59404" stroke-linecap="butt" stroke-miterlimit="10" stroke-linejoin="miter" fill="none" stroke="#990000" d="M106.86581 0H107.18347 107.50113 107.81877 108.13644 108.4541 108.77176 109.08942 109.40707 109.72475 110.0424 110.36006 110.6777 110.99538 111.31305 111.63069 111.94835 112.266 112.58366 112.90134 113.219 113.53665 113.85431 114.17195 114.48962 114.80728 115.12495 115.4426 115.76025 116.07793 116.39558 116.71324 117.0309 117.34856 117.66623 117.98387 118.30153 118.61919 118.93684 119.25452 119.57217 119.88983 120.20749 120.52515 120.8428 121.16048 121.47813 121.79578 122.11343 122.4311 122.74876 123.06642 123.38408 123.70174 124.01941 124.33707 124.65471 124.97238 125.29004 125.6077 125.92535 126.24301 126.56067 126.87833 127.196 127.51366 127.83131 128.14896 128.46663 128.78429 129.10195 129.4196 129.73726 130.05493 130.37259 130.69025 131.0079 131.32556 131.64324 131.96088 132.27854 132.59619 132.91385 133.23152 133.54918 133.86684 134.1845 134.50215 134.81981 135.13748 135.45514 135.77278 136.09044 136.40811 136.72577 137.04343 137.36109 137.67874 137.99642 138.31406 138.63172 138.94937 139.26703 139.5847 139.90236 140.22002 140.53768 140.85533 141.173 141.49066 141.80832 142.12596 142.44362 142.76129 143.07895 143.3966 143.71427 144.03192 144.3496 144.66725 144.9849 145.30257 145.62023 145.93788 146.25554 146.5732 146.89086 147.20851 147.52619 147.84384 148.1615 148.47914 148.7968 149.11449 149.43213 149.74979 150.06745 150.3851 150.70278 151.02043 151.33809 151.65575 151.9734 152.29106 152.60872 152.92638 153.24404 153.56169 153.87937 154.19702 154.51468 154.83234 155.15 155.46767 155.78533 156.10297 156.42063 156.73828 157.05596 157.37361 157.69127 158.00893 158.32659 158.64424 158.9619 159.27957 159.59722 159.91487 160.23255 160.5502 160.86786 161.18552 161.50318 161.82085 162.1385 162.45615 162.7738 163.09146 163.40914 163.72679 164.04445 164.3621 164.67977 164.99744 165.3151 165.63275 165.95041 166.26805 166.58573 166.90338 167.22104 167.5387 167.85636 168.17403 168.49169 168.80933 169.12699 169.44466 169.76232 168.48592"/>
<path transform="matrix(1.00006,0,0,-1.00002,206.57746,66.43001)" stroke-width="1.59404" stroke-linecap="round" stroke-linejoin="round" fill="none" stroke="#990000" d="M-3.5069 4.55072C-2.8662 1.82025-1.43846 .5309 0 0-1.43846-.5309-2.8662-1.82025-3.5069-4.55072"/>
<path transform="matrix(1.00006,0,0,-1.00002,37.28437,66.43001)" stroke-width="1.19553" stroke-linecap="butt" stroke-miterlimit="10" stroke-linejoin="miter" fill="none" stroke="#990000" d="M29.10739 0C29.10739 1.32056 28.03687 2.39108 26.7163 2.39108 25.39574 2.39108 24.32521 1.32056 24.32521 0 24.32521-1.32056 25.39574-2.39108 26.7163-2.39108 28.03687-2.39108 29.10739-1.32056 29.10739 0ZM26.7163 0"/>
<path transform="matrix(1.00006,0,0,-1.00002,37.28437,66.43001)" d="M29.10739 51.02449C29.10739 52.34506 28.03687 53.41557 26.7163 53.41557 25.39574 53.41557 24.32521 52.34506 24.32521 51.02449 24.32521 49.70392 25.39574 48.6334 26.7163 48.6334 28.03687 48.6334 29.10739 49.70392 29.10739 51.02449ZM26.7163 51.02449" fill="#990000"/>
<path transform="matrix(1.00006,0,0,-1.00002,37.28437,66.43001)" d="M109.2569 0C109.2569 1.32056 108.18637 2.39108 106.86581 2.39108 105.54524 2.39108 104.47472 1.32056 104.47472 0 104.47472-1.32056 105.54524-2.39108 106.86581-2.39108 108.18637-2.39108 109.2569-1.32056 109.2569 0ZM106.86581 0" fill="#990000"/>
<path transform="matrix(1.00006,0,0,-1.00002,37.28437,66.43001)" stroke-width="1.19553" stroke-linecap="butt" stroke-miterlimit="10" stroke-linejoin="miter" fill="none" stroke="#990000" d="M109.2569 34.0165C109.2569 35.33707 108.18637 36.4076 106.86581 36.4076 105.54524 36.4076 104.47472 35.33707 104.47472 34.0165 104.47472 32.69594 105.54524 31.62541 106.86581 31.62541 108.18637 31.62541 109.2569 32.69594 109.2569 34.0165ZM106.86581 34.0165"/>
<use data-text="g" xlink:href="#font_1_1" transform="matrix(9.166149,0,0,-9.165783,18.065224,60.778894)" fill="#0000ff"/>
<use data-text="(" xlink:href="#font_4_1" transform="matrix(9.166149,0,0,-9.165783,23.813569,60.778894)" fill="#0000ff"/>
<use data-text="t" xlink:href="#font_1_2" transform="matrix(9.166149,0,0,-9.165783,27.220772,60.778894)" fill="#0000ff"/>
<use data-text=")" xlink:href="#font_4_2" transform="matrix(9.166149,0,0,-9.165783,31.32602,60.778894)" fill="#0000ff"/>
<use data-text="=" xlink:href="#font_2_2" transform="matrix(9.166149,0,0,-9.165783,36.23932,60.778894)" fill="#0000ff"/>
<use data-text="0" xlink:href="#font_4_4" transform="matrix(9.166149,0,0,-9.165783,44.53981,60.778894)" fill="#0000ff"/>
<use data-text="g" xlink:href="#font_1_1" transform="matrix(9.166149,0,0,-9.165783,82.13507,11.681911)" fill="#990000"/>
<use data-text="(" xlink:href="#font_4_1" transform="matrix(9.166149,0,0,-9.165783,87.88341,11.681911)" fill="#990000"/>
<use data-text="t" xlink:href="#font_1_2" transform="matrix(9.166149,0,0,-9.165783,91.29062,11.681911)" fill="#990000"/>
<use data-text=")" xlink:href="#font_4_2" transform="matrix(9.166149,0,0,-9.165783,95.39586,11.681911)" fill="#990000"/>
<use data-text="=" xlink:href="#font_2_2" transform="matrix(9.166149,0,0,-9.165783,100.30916,11.681911)" fill="#990000"/>
<use data-text="s" xlink:href="#font_4_11" transform="matrix(9.166149,0,0,-9.165783,108.60965,11.681911)" fill="#990000"/>
<use data-text="i" xlink:href="#font_4_9" transform="matrix(9.166149,0,0,-9.165783,112.606098,11.681911)" fill="#990000"/>
<use data-text="n" xlink:href="#font_4_10" transform="matrix(9.166149,0,0,-9.165783,115.27345,11.681911)" fill="#990000"/>
<use data-text="t" xlink:href="#font_1_2" transform="matrix(9.166149,0,0,-9.165783,122.11748,11.681911)" fill="#990000"/>
<use data-text="g" xlink:href="#font_1_1" transform="matrix(9.166149,0,0,-9.165783,160.19776,60.778894)" fill="#0000ff"/>
<use data-text="(" xlink:href="#font_4_1" transform="matrix(9.166149,0,0,-9.165783,165.94609,60.778894)" fill="#0000ff"/>
<use data-text="t" xlink:href="#font_1_2" transform="matrix(9.166149,0,0,-9.165783,169.3533,60.778894)" fill="#0000ff"/>
<use data-text=")" xlink:href="#font_4_2" transform="matrix(9.166149,0,0,-9.165783,173.45854,60.778894)" fill="#0000ff"/>
<use data-text="=" xlink:href="#font_2_2" transform="matrix(9.166149,0,0,-9.165783,178.37184,60.778894)" fill="#0000ff"/>
<use data-text="0" xlink:href="#font_4_4" transform="matrix(9.166149,0,0,-9.165783,186.67234,60.778894)" fill="#0000ff"/>
</svg>
