<svg xmlns="http://www.w3.org/2000/svg" xmlns:xlink="http://www.w3.org/1999/xlink" version="1.1" width="193" height="77" viewBox="0 0 193 77">
<defs>
<path id="font_1_4" d="M.42799378 .45222474 .43899537 .49023438H.31199647L.34599305 .6092224 .33399964 .6162262 .23699951 .53923037 .22399903 .49023438H.14299011L.13198853 .45222474H.21499634L.125 .08627319C.10998535 .029266358 .12199402-.01171875 .17199707-.01171875 .2519989-.01171875 .31599427 .054275514 .35598756 .1292572L.33399964 .1462555C.31098939 .10726929 .2599945 .040267946 .22898865 .040267946 .20799256 .040267946 .20799256 .0632782 .21398926 .088272098L.30299378 .45222474H.42799378Z"/>
<path id="font_2_1" d="M.6349945 .2529297V.31092835H.084991458V.2529297H.6349945Z"/>
<path id="font_3_1" d="M.5239868 .14224243C.49798585 .09126282 .45799256 .039260866 .43598939 .039260866 .42399598 .039260866 .42099 .05126953 .42099 .06925964 .42099 .08026123 .42199708 .09326172 .42399598 .10624695L.49198915 .42520143H.57899478L.61898806 .5019531C.58999636 .49520875 .548996 .49121095 .5019989 .49121095H.21798706C.16699219 .49121095 .09700012 .46620179 .05899048 .4052124L.07499695 .38720704C.114990238 .41819764 .16699219 .42520143 .21998596 .42520143 .1769867 .24923706 .147995 .09225464 .09199524 .08226013 .066986087 .07826233 .034988405 .06225586 .034988405 .024261475 .034988405 .0012664795 .06599426-.01171875 .08099365-.01171875 .13398743-.01171875 .17098999 .054260255 .18899536 .09925842 .21199036 .15724182 .24699402 .28222657 .2769928 .42520143H.4019928L.33699037 .12324524C.33399964 .102249149 .33198548 .08325195 .33198548 .06726074 .33198548 .01626587 .34799195-.01171875 .38398744-.01171875 .45700074-.01171875 .5130005 .044265748 .5479889 .12825012L.5239868 .14224243Z"/>
<path id="font_4_6" d="M.4850006 .13195801 .45700074 .13696289C.43598939 .08299255 .41600038 .07598877 .37599183 .07598877H.11999512C.13598633 .1279602 .19499207 .19892884 .28799439 .2658844 .38398744 .33584596 .45799256 .38082887 .45799256 .49276734 .45799256 .63168337 .3659973 .6796875 .26098634 .6796875 .12399292 .6796875 .052993776 .5967102 .052993776 .54473879 .052993776 .51075747 .09098816 .49476625 .10798645 .49476625 .12599182 .49476625 .1329956 .50476077 .13699341 .5217438 .15299988 .5897064 .19198609 .64468386 .2539978 .64468386 .33099366 .64468386 .35299684 .5797119 .35299684 .50675967 .35299684 .3998108 .29899598 .33984376 .21199036 .26289369 .08898926 .15594483 .04598999 .08798218 .026992798 .009994507L.036987306 0H.45098878L.4850006 .13195801Z"/>
<path id="font_4_7" d="M.12998963 .3657837C.12998963 .3487854 .1349945 .33779908 .147995 .33779908 .1599884 .33779908 .18699646 .34777833 .23498535 .34777833 .31999208 .34777833 .36799623 .27090455 .36799623 .18403626 .36799623 .065216068 .30899049 .023269654 .23799134 .023269654 .17199707 .023269654 .1289978 .07319641 .10998535 .12911988 .10398865 .14808655 .09399414 .15707398 .07998657 .15707398 .06199646 .15707398 .026992798 .13809204 .026992798 .10215759 .026992798 .05921936 .09599304-.01171875 .23699951-.01171875 .38198854-.01171875 .47299195 .06121826 .47299195 .18902588 .47299195 .32281495 .35798646 .3627777 .30299378 .3677826V.3717804C.35699464 .38078309 .44400025 .4207611 .44400025 .5197296 .44400025 .6306915 .35699464 .6796875 .25 .6796875 .117996219 .6796875 .052993776 .60369876 .052993776 .5607147 .052993776 .5297241 .08799744 .51272585 .101989749 .51272585 .114990238 .51272585 .12298584 .5197296 .1269989 .5327301 .14898682 .60069277 .18699646 .64468386 .24299622 .64468386 .32199098 .64468386 .34098817 .57470706 .34098817 .51872256 .34098817 .4587555 .31999208 .38378907 .23498535 .38378907 .18699646 .38378907 .1599884 .39378358 .147995 .39378358 .1349945 .39378358 .12998963 .38378907 .12998963 .3657837Z"/>
<path id="font_4_5" d="M.43699647 0V.0289917L.35299684 .035995485C.33198548 .037994386 .31999208 .04598999 .31999208 .08496094V.67367556L.31498719 .6796875 .10899353 .6446991V.6197052L.20199585 .6087036C.21899414 .6067047 .22599793 .5987091 .22599793 .56973269V.08496094C.22599793 .065979007 .22299195 .053985597 .21699524 .04698181 .21199036 .039993287 .20399475 .036987306 .19299317 .035995485L.10899353 .0289917V0H.43699647Z"/>
<path id="font_1_1" d="M.33999635 .46694947C.36999513 .46694947 .41999818 .4519348 .41999818 .38290406 .41999818 .28987123 .37199403 .21484375 .29699708 .21484375 .24398804 .21484375 .21398926 .2508545 .21398926 .3008728 .21398926 .36390687 .24499512 .46694947 .33999635 .46694947M.45700074 .4719391C.43099977 .48895265 .38198854 .5019531 .33299256 .5019531 .16899109 .5019531 .11999512 .38891603 .11999512 .31788636 .11999512 .24385071 .17399597 .20584107 .20399475 .19483948V.19284058C.17298889 .17984009 .11299133 .15783692 .11299133 .11782837 .11299133 .08482361 .14299011 .061828615 .18399048 .04283142V.04081726C.115997318 .028823853 .02999878-.013183594 .02999878-.096191409 .02999878-.18519593 .12298584-.2421875 .25-.2421875 .3849945-.2421875 .49398805-.18519593 .49398805-.07518005 .49398805-.00018310547 .43699647 .05381775 .31900025 .081832889 .23498535 .1018219 .19799805 .11582947 .19799805 .14382935 .19799805 .16282654 .21798706 .1768341 .24198914 .18283081 .2619934 .17984009 .2809906 .17984009 .29599 .17984009 .43499757 .17984009 .5119934 .25585938 .5119934 .35890199 .5119934 .38591004 .5039978 .4109192 .4909973 .42793275L.57499697 .4399414 .60798647 .50294497 .60198977 .51194766 .45700074 .4719391M.27198792-.2071991C.18499756-.2071991 .12199402-.15919495 .12199402-.08718872 .12199402-.015182495 .18699646 .018829346 .22799683 .02482605 .29100038 .015823365 .40899659-.010177612 .40899659-.094192508 .40899659-.17019654 .34700013-.2071991 .27198792-.2071991Z"/>
<path id="font_4_1" d="M.1749878 .2822113C.1749878 .56832888 .2619934 .65437319 .32499696 .66737368V.6923828C.1499939 .685379 .10499573 .46829225 .10499573 .2822113 .10499573 .09614563 .1499939-.12094116 .32499696-.12792969V-.10293579C.2669983-.090927127 .1749878-.0059051516 .1749878 .2822113Z"/>
<path id="font_4_2" d="M.1749878 .2822113C.1749878-.0059051516 .08299255-.090927127 .024993897-.10293579V-.12792969C.19999695-.12094116 .24499512 .09614563 .24499512 .2822113 .24499512 .46829225 .19999695 .685379 .024993897 .6923828V.66737368C.08799744 .65437319 .1749878 .56832888 .1749878 .2822113Z"/>
<path id="font_2_5" d="M.6349945 .14315796V.20117188H.084991458V.14315796H.6349945M.6349945 .36288453V.42089845H.084991458V.36288453H.6349945Z"/>
<path id="font_4_4" d="M.2649994 .64468386C.3600006 .64468386 .3869934 .49682618 .3869934 .33398438 .3869934 .17112732 .3600006 .023269654 .2649994 .023269654 .16999817 .023269654 .14299011 .17112732 .14299011 .33398438 .14299011 .49682618 .16999817 .64468386 .2649994 .64468386M.2649994 .6796875C.099990848 .6796875 .040985109 .53378298 .040985109 .33398438 .040985109 .13417053 .099990848-.01171875 .2649994-.01171875 .42999269-.01171875 .4889984 .13417053 .4889984 .33398438 .4889984 .53378298 .42999269 .6796875 .2649994 .6796875Z"/>
<path id="font_2_6" d="M.6349945 .07472229 .17298889 .28173829 .6349945 .48875428V.5517578L.084991458 .31674195V.24673462L.6349945 .01171875V.07472229Z"/>
<path id="font_1_3" d="M.29899598 .023269654C.2599945 .023269654 .23298645 .03427124 .21099854 .053253175 .22399903 .11720276 .2519989 .21911621 .2899933 .28607179 .33799745 .37001039 .41099549 .44995118 .46798707 .44995118 .5039978 .44995118 .5219879 .41996766 .5219879 .3670044 .5219879 .28807069 .46299745 .023269654 .29899598 .023269654M.1459961-.23016358 .20098877 .010269165C.22200012-.0027313233 .25698854-.01171875 .30899049-.01171875 .55400088-.01171875 .62098696 .29206849 .62098696 .36801148 .62098696 .4549408 .58399966 .5019531 .5099945 .5019531 .43299867 .5019531 .33399964 .42895509 .2579956 .28607179H.25498963L.31199647 .4970703 .30699159 .50205996 .12599182 .47375489 .11999512 .44995118 .18199158 .4449463C.20599365 .4429474 .20399475 .42695619 .19699097 .39698792L.056991579-.2421875 .1459961-.23016358Z"/>
<path id="font_1_2" d="M.13198853 .47375489 .12599182 .4497528 .18299866 .44476319C.20999146 .44276429 .21299744 .43377687 .20399475 .39881898L.11999512 .08621216C.10499573 .029266358 .117996219-.01171875 .17199707-.01171875 .24398804-.01171875 .2999878 .056259157 .33399964 .13215637L.30999757 .14613343C.2919922 .111190799 .24798584 .040267946 .21998596 .040267946 .19999695 .040267946 .20098877 .06324768 .20999146 .095199588L.31900025 .4970703 .31399537 .5020447 .13198853 .47375489M.30899049 .71484377C.2659912 .71484377 .24398804 .6808319 .24398804 .6488342 .24398804 .61183169 .2689972 .5928345 .29899598 .5928345 .33799745 .5928345 .36299134 .6198425 .36299134 .6598358 .36299134 .6988373 .33699037 .71484377 .30899049 .71484377Z"/>
<path id="font_2_2" d="M.14898682 .33818055C.18199158 .3171997 .2630005 .29719544 .27598573 .2902069 .27799989 .288208 .2809906 .28720094 .2809906 .2822113 .2809906 .2782135 .27799989 .2762146 .27598573 .27520753 .2630005 .268219 .18199158 .24821472 .147995 .22721863 .13198853 .21922302 .125 .2122345 .125 .20223999 .125 .19624329 .12799073 .18823242 .13398743 .1772461 .14299011 .16125489 .1499939 .1542511 .1599884 .1542511 .16699219 .1542511 .17399597 .1582489 .18499756 .1642456 .21998596 .1832428 .2769928 .2432251 .2899933 .25021363 .2919922 .2512207 .2939911 .25221253 .29499818 .25221253 .29599 .25221253 .2979889 .25221253 .29899598 .2512207 .3019867 .2492218 .3019867 .24621582 .3019867 .24421692 .3019867 .22822571 .27999879 .14924622 .27999879 .10826111 .27999879 .07728577 .2869873 .07128906 .31698609 .07128906 .34298707 .07128906 .35299684 .07627869 .35299684 .09927368V.11227417C.35299684 .15325928 .33099366 .22822571 .33099366 .2432251 .33099366 .24621582 .33099366 .2492218 .33499146 .2512207 .33599855 .25221253 .33699037 .25221253 .33799745 .25221253 .33999635 .25221253 .34199525 .2512207 .34298707 .25021363 .35598756 .2432251 .4139862 .1832428 .44898988 .1622467 .45799256 .15625 .46699525 .1542511 .47299195 .1542511 .48199464 .1542511 .4909973 .16125489 .49899293 .1772461 .5049896 .18823242 .5089874 .19624329 .5089874 .20223999 .5089874 .2122345 .5019989 .21922302 .48599244 .22721863 .45098878 .24821472 .37098695 .268219 .35798646 .27520753 .35499574 .2762146 .35299684 .2782135 .35299684 .2822113 .35299684 .28720094 .35499574 .288208 .35798646 .2902069 .37098695 .29719544 .45098878 .3171997 .48599244 .33818055 .5019989 .34718324 .5089874 .354187 .5089874 .36418153 .5089874 .37017823 .5049896 .37716676 .49899293 .38816834 .4909973 .40415956 .48399354 .41215516 .47399903 .41215516 .46798707 .41215516 .45999146 .40815736 .44898988 .40116883 .4139862 .38217164 .35598756 .32218934 .34298707 .3152008 .34199525 .31419374 .34098817 .31219483 .33799745 .31219483 .33699037 .31219483 .33599855 .31219483 .33499146 .31419374 .33099366 .31619264 .33099366 .31819154 .33099366 .32218934 .33099366 .33618165 .35398866 .41716004 .35398866 .45614625 .35398866 .48612977 .34700013 .49414063 .31698609 .49414063 .2869873 .49414063 .27999879 .48612977 .27999879 .45614625 .27999879 .41716004 .3019867 .33618165 .3019867 .32218934 .3019867 .31819154 .3019867 .31619264 .29899598 .31419374 .2979889 .31219483 .29599 .31219483 .29499818 .31219483 .2939911 .31219483 .2919922 .31219483 .2899933 .31419374 .2769928 .32218934 .21998596 .38116456 .18499756 .40116883 .17399597 .40716554 .1659851 .41116334 .1599884 .41116334 .1499939 .41116334 .14299011 .40415956 .13398743 .38816834 .12799073 .37716676 .125 .37017823 .125 .36317445 .125 .35317994 .13198853 .34617616 .14898682 .33818055Z"/>
<path id="font_4_3" d="M.1329956-.01171875C.17199707-.01171875 .19499207 .015274048 .19599915 .05126953 .19599915 .088272098 .17199707 .11627197 .1329956 .11627197 .09498596 .11627197 .069992069 .088272098 .069992069 .05126953 .069992069 .015274048 .09498596-.01171875 .1329956-.01171875Z"/>
<path id="font_4_8" d="M.42599488 .5919647 .44999696 .6599579 .44499208 .66796877H.11099243L.100997928 .65896609 .08099365 .32388307 .10499573 .31188966C.14698792 .35983277 .18798828 .3828125 .24198914 .3828125 .30599977 .3828125 .37599183 .3358612 .37599183 .20404053 .37599183 .10116577 .33399964 .023269654 .24699402 .023269654 .1769867 .023269654 .14099121 .07420349 .12098694 .13113404 .115997318 .14611817 .10699463 .15510559 .09298706 .15510559 .07299805 .15510559 .039993287 .13513184 .039993287 .10217285 .039993287 .056228639 .10998535-.01171875 .23999024-.01171875 .40499879-.01171875 .47999574 .0881958 .47999574 .21502686 .47999574 .35484315 .3919983 .4268036 .272995 .4268036 .21798706 .4268036 .15899658 .4028015 .1269989 .3738098L.125 .37580873 .147995 .56292727C.15098572 .58795168 .1579895 .5919647 .1769867 .5919647H.42599488Z"/>
<path id="font_2_3" d="M.6349945 .20620728 .17298889 .3572235 .6349945 .5092468V.5722656L.084991458 .39222718V.32221986L.6349945 .14318848V.20620728M.6349945-.0078125V.050186159H.084991458V-.0078125H.6349945Z"/>
<path id="font_2_4" d="M.6349945-.0078125V.050186159H.084991458V-.0078125H.6349945M.084991458 .14318848 .6349945 .32221986V.39222718L.084991458 .5722656V.5092468L.5469971 .3572235 .084991458 .20620728V.14318848Z"/>
</defs>
<path transform="matrix(1.00006,0,0,-1.00006,69.726139,47.954095)" d="M-68.03302-27.2133V27.2133H26.7163V-27.2133ZM26.7163 27.2133" fill="#d9d9ff"/>
<path transform="matrix(1.00006,0,0,-1.00006,69.726139,47.954095)" d="M26.7163-27.2133V27.2133H80.14922V-27.2133ZM80.14922 27.2133" fill="#d9f0d9"/>
<path transform="matrix(1.00006,0,0,-1.00006,69.726139,47.954095)" d="M80.14922-27.2133V27.2133H119.0578V-27.2133ZM119.0578 27.2133" fill="#d9d9ff"/>
<path transform="matrix(1.00006,0,0,-1.00006,69.726139,47.954095)" stroke-width=".19925" stroke-linecap="butt" stroke-dasharray="2.98883,2.98883" stroke-miterlimit="10" stroke-linejoin="miter" fill="none" stroke="#000000" d="M80.14922-27.2133V27.2133"/>
<path transform="matrix(1.00006,0,0,-1.00006,69.726139,47.954095)" stroke-width=".19925" stroke-linecap="butt" stroke-dasharray="2.98883,2.98883" stroke-miterlimit="10" stroke-linejoin="miter" fill="none" stroke="#000000" d="M26.7163-27.2133V27.2133"/>
<path transform="matrix(1.00006,0,0,-1.00006,69.726139,47.954095)" stroke-width=".3985" stroke-linecap="butt" stroke-miterlimit="10" stroke-linejoin="miter" fill="none" stroke="#000000" d="M-68.03302 0H118.59952"/>
<path transform="matrix(1.00006,0,0,-1.00006,188.33277,47.954095)" stroke-width=".31879" stroke-linecap="round" stroke-linejoin="round" fill="none" stroke="#000000" d="M-1.19551 1.59401C-1.09587 .99626 0 .09961 .29886 0 0-.09961-1.09587-.99626-1.19551-1.59401"/>
<path transform="matrix(1.00006,0,0,-1.00006,69.726139,47.954095)" stroke-width=".3985" stroke-linecap="butt" stroke-miterlimit="10" stroke-linejoin="miter" fill="none" stroke="#000000" d="M0-27.2133V26.75502"/>
<path transform="matrix(0,-1.00006,-1.00006,-0,69.726139,21.19747)" stroke-width=".31879" stroke-linecap="round" stroke-linejoin="round" fill="none" stroke="#000000" d="M-1.19551 1.59401C-1.09587 .99626 0 .09961 .29886 0 0-.09961-1.09587-.99626-1.19551-1.59401"/>
<use data-text="t" xlink:href="#font_1_4" transform="matrix(9.166149,0,0,-9.166149,185.13806,57.002637)"/>
<path transform="matrix(1.00006,0,0,-1.00006,69.726139,47.954095)" stroke-width=".3985" stroke-linecap="butt" stroke-miterlimit="10" stroke-linejoin="miter" fill="none" stroke="#929292" d="M-53.43289 1.19554V-1.19554"/>
<use data-text="&#x2212;" xlink:href="#font_2_1" transform="matrix(7.3329398,0,0,-7.3329398,11.260628,56.175588)"/>
<use data-text="&#x03c0;" xlink:href="#font_3_1" transform="matrix(7.3329398,0,0,-7.3329398,16.537941,56.176588)"/>
<path transform="matrix(1.00006,0,0,-1.00006,69.726139,47.954095)" stroke-width=".3985" stroke-linecap="butt" stroke-miterlimit="10" stroke-linejoin="miter" fill="none" stroke="#929292" d="M-26.7163 1.19554V-1.19554"/>
<use data-text="&#x2212;" xlink:href="#font_2_1" transform="matrix(7.3329398,0,0,-7.3329398,37.14218,58.771745)"/>
<use data-text="&#x03c0;" xlink:href="#font_3_1" transform="matrix(6.232974,0,0,-6.232974,43.61458,55.631559)"/>
<path transform="matrix(1.00006,0,0,-1.00006,-98.58795,23.813649)" stroke-width=".4253" stroke-linecap="butt" stroke-miterlimit="10" stroke-linejoin="miter" fill="none" stroke="#000000" d="M142.194-32.892H146.259"/>
<use data-text="2" xlink:href="#font_4_6" transform="matrix(6.232974,0,0,-6.232974,43.9946,61.52191)"/>
<path transform="matrix(1.00006,0,0,-1.00006,69.726139,47.954095)" stroke-width=".3985" stroke-linecap="butt" stroke-miterlimit="10" stroke-linejoin="miter" fill="none" stroke="#929292" d="M26.7163 1.19554V-1.19554"/>
<use data-text="&#x03c0;" xlink:href="#font_3_1" transform="matrix(6.232974,0,0,-6.232974,94.41162,55.631555)"/>
<path transform="matrix(1.00006,0,0,-1.00006,-42.514589,23.813649)" stroke-width=".4253" stroke-linecap="butt" stroke-miterlimit="10" stroke-linejoin="miter" fill="none" stroke="#000000" d="M136.918-32.892H140.983"/>
<use data-text="2" xlink:href="#font_4_6" transform="matrix(6.232974,0,0,-6.232974,94.79065,61.52191)"/>
<path transform="matrix(1.00006,0,0,-1.00006,69.726139,47.954095)" stroke-width=".3985" stroke-linecap="butt" stroke-miterlimit="10" stroke-linejoin="miter" fill="none" stroke="#929292" d="M53.43289 1.19554V-1.19554"/>
<use data-text="&#x03c0;" xlink:href="#font_3_1" transform="matrix(7.3329398,0,0,-7.3329398,120.771198,56.175588)"/>
<path transform="matrix(1.00006,0,0,-1.00006,69.726139,47.954095)" stroke-width=".3985" stroke-linecap="butt" stroke-miterlimit="10" stroke-linejoin="miter" fill="none" stroke="#929292" d="M80.14922 1.19554V-1.19554"/>
<use data-text="3" xlink:href="#font_4_7" transform="matrix(6.232974,0,0,-6.232974,146.19474,56.72262)"/>
<use data-text="&#x03c0;" xlink:href="#font_3_1" transform="matrix(6.232974,0,0,-6.232974,149.50092,56.72262)"/>
<path transform="matrix(1.00006,0,0,-1.00006,9.268517,24.904713)" stroke-width=".4253" stroke-linecap="butt" stroke-miterlimit="10" stroke-linejoin="miter" fill="none" stroke="#000000" d="M136.918-32.892H144.289"/>
<use data-text="2" xlink:href="#font_4_6" transform="matrix(6.232974,0,0,-6.232974,148.22684,62.612977)"/>
<path transform="matrix(1.00006,0,0,-1.00006,69.726139,47.954095)" stroke-width=".3985" stroke-linecap="butt" stroke-miterlimit="10" stroke-linejoin="miter" fill="none" stroke="#929292" d="M106.86581 1.19554V-1.19554"/>
<use data-text="2" xlink:href="#font_4_6" transform="matrix(7.3329398,0,0,-7.3329398,172.26229,57.458665)"/>
<use data-text="&#x03c0;" xlink:href="#font_3_1" transform="matrix(7.3329398,0,0,-7.3329398,176.15253,57.459665)"/>
<path transform="matrix(1.00006,0,0,-1.00006,69.726139,47.954095)" stroke-width=".3985" stroke-linecap="butt" stroke-miterlimit="10" stroke-linejoin="miter" fill="none" stroke="#929292" d="M1.19554-17.00824H-1.19554"/>
<use data-text="&#x2212;" xlink:href="#font_2_1" transform="matrix(7.3329398,0,0,-7.3329398,55.96531,67.41826)"/>
<use data-text="1" xlink:href="#font_4_5" transform="matrix(7.3329398,0,0,-7.3329398,61.242624,67.419269)"/>
<path transform="matrix(1.00006,0,0,-1.00006,69.726139,47.954095)" stroke-width=".3985" stroke-linecap="butt" stroke-miterlimit="10" stroke-linejoin="miter" fill="none" stroke="#929292" d="M1.19554 17.00824H-1.19554"/>
<use data-text="1" xlink:href="#font_4_5" transform="matrix(7.3329398,0,0,-7.3329398,61.241624,33.400224)"/>
<path transform="matrix(1.00006,0,0,-1.00006,69.726139,47.954095)" stroke-width=".3985" stroke-linecap="butt" stroke-miterlimit="10" stroke-linejoin="miter" fill="none" stroke="#929292" d="M1.19554 17.00824H-1.19554"/>
<path transform="matrix(1.00006,0,0,-1.00006,69.726139,47.954095)" stroke-width="1.59404" stroke-linecap="butt" stroke-miterlimit="10" stroke-linejoin="miter" fill="none" stroke="#990000" d="M-68.03302 0H-67.56976-67.1065-66.64326-66.18001-65.71675-65.2535-64.79025-64.327-63.86374-63.40048-62.93723-62.47398-62.01073-61.54747-61.08421-60.62097-60.15771-59.69447-59.23122-58.76797-58.3047-57.84145-57.3782-56.91495-56.45169-55.98843-55.52519-55.06194-54.59868-54.13542-53.67218-53.20892-52.74567-52.28241-51.81915-51.35591-50.89265-50.42941-49.96616-49.50291-49.03964-48.5764-48.11314-47.64989-47.18663-46.72337-46.26013-45.79688-45.33362-44.87036-44.40712-43.94386-43.48062-43.01736-42.5541-42.09085-41.6276-41.16435-40.7011-40.23785-39.7746-39.31134-38.84808-38.38484-37.92157-37.45833-36.99507-36.53181-36.06856-35.6053-35.14206-34.6788-34.21556-33.7523-33.28905-32.82579-32.36255-31.89929-31.43604-30.9728-30.50954-30.04628-29.58302-29.11978-28.65651-28.19327-27.73001-27.26677-26.8035-26.34024-25.877-25.41374-24.9505-24.48724-24.024-23.56073-23.09749-22.63423-22.17099-21.70773-21.24448-20.78122-20.31796-19.85472-19.39145-18.9282-18.46495-18.00171-17.53844-17.0752-16.61194-16.14868-15.68544-15.22218-14.75894-14.29567-13.83243-13.36917-12.90593-12.44267-11.97943-11.51616-11.05292-10.58966-10.12639-9.66315-9.19989-8.73665-8.27339-7.81013-7.34688-6.88364-6.42038-5.95714-5.49388-5.03061-4.56737-4.10411-3.64087-3.17761-2.71437-2.2511-1.78786-1.3246-.86134-.39809 .06512 .52837 .99162 1.45488 1.91814 2.38138 2.84464 3.30789 3.77115 4.23439 4.69765 5.16092 5.62416 6.08742 6.55066 7.01392 7.47716 7.94043 8.40367 8.86693 9.33017 9.79343 10.25668 10.71994 11.1832 11.64644 12.1097 12.57295 13.03621 13.49945 13.9627 14.42596 14.88922 15.35246 15.81572 16.27898 16.74222 17.20549 17.66873 18.13199 18.59523 19.05849 19.52173 19.98499 20.44824 20.9115 21.37476 21.83801 22.30127 22.76451 23.22777 23.69102 24.15428"/>
<path transform="matrix(1.00006,0,0,-1.00006,69.726139,47.954095)" stroke-width=".79701" stroke-linecap="butt" stroke-dasharray="2.98883,2.98883" stroke-miterlimit="10" stroke-linejoin="miter" fill="none" stroke="#009900" d="M26.7163 17.00824H26.97609 27.23589 27.49565 27.75545 28.01523 28.27502 28.5348 28.79459 29.05438 29.31415 29.57393 29.83372 30.0935 30.3533 30.61308 30.87286 31.13266 31.39244 31.6522 31.912 32.17178 32.43158 32.69136 32.95114 33.21094 33.4707 33.7305 33.9903 34.25006 34.50986 34.76964 35.02942 35.28922 35.549 35.80879 36.06856 36.32835 36.58815 36.84792 37.1077 37.3675 37.62727 37.88707 38.14685 38.40663 38.66641 38.92621 39.18599 39.44577 39.70555 39.96535 40.22513 40.48491 40.7447 41.00449 41.26425 41.52405 41.78383 42.04362 42.3034 42.56319 42.82298 43.08276 43.34254 43.60233 43.8621 44.1219 44.38168 44.64146 44.90126 45.16104 45.4208 45.68062 45.9404 46.20018 46.45996 46.71974 46.97954 47.23932 47.4991 47.7589 48.01866 48.27847 48.53825 48.79802 49.05782 49.3176 49.57738 49.83717 50.09695 50.35675 50.61652 50.87631 51.13611 51.39587 51.65565 51.91545 52.17523 52.43503 52.69481 52.95459 53.21437 53.47415 53.73393 53.99373 54.25351 54.5133 54.77309 55.03287 55.29266 55.55243 55.81221 56.072 56.33179 56.59158 56.85136 57.11115 57.37093 57.63072 57.8905 58.15028 58.41006 58.66986 58.92964 59.18942 59.44922 59.709 59.96877 60.22858 60.48836 60.74814 61.00792 61.2677 61.5275 61.78728 62.04706 62.30685 62.56662 62.82643 63.08621 63.34598 63.60577 63.86555 64.12534 64.38513 64.64491 64.90471 65.16447 65.42427 65.68405 65.94383 66.20361 66.46341 66.72319 66.98299 67.24277 67.50253 67.76233 68.02211 68.28189 68.54169 68.80147 69.06126 69.32103 69.58083 69.84062 70.10039 70.36017 70.61996 70.87975 71.13954 71.39932 71.6591 71.91888 72.17868 72.43846 72.69824 72.95802 73.21782 73.4776 73.73738 73.99718 74.25696 74.51672 74.77654 75.03632 75.2961 75.55588 75.81566 76.07545 76.33524 76.59502 76.85481 77.11458 77.37439 77.63416 77.89394 78.15373 78.41351"/>
<path transform="matrix(1.00006,0,0,-1.00006,69.726139,47.954095)" stroke-width="1.59404" stroke-linecap="butt" stroke-miterlimit="10" stroke-linejoin="miter" fill="none" stroke="#990000" d="M26.7163 17.00798 26.97609 17.0059 27.23589 16.99968 27.49565 16.98929 27.75545 16.97554 28.01523 16.95789 28.27502 16.9361 28.5348 16.9104 28.79459 16.88133 29.05438 16.84734 29.31415 16.80945 29.57393 16.76819 29.83372 16.7225 30.0935 16.67319 30.3533 16.61998 30.61308 16.56316 30.87286 16.50294 31.13266 16.4378 31.39244 16.36877 31.6522 16.2961 31.912 16.22006 32.17178 16.14014 32.43158 16.05655 32.69136 15.9691 32.95114 15.878 33.21094 15.78302 33.4707 15.68414 33.7305 15.58162 33.9903 15.47574 34.25006 15.36623 34.50986 15.25308 34.76964 15.1368 35.02942 15.01665 35.28922 14.8926 35.549 14.76541 35.80879 14.63435 36.06856 14.50044 36.32835 14.3629 36.58815 14.22249 36.84792 14.07846 37.1077 13.93132 37.3675 13.78052 37.62727 13.62636 37.88707 13.46909 38.14685 13.30896 38.40663 13.14572 38.66641 12.97963 38.92621 12.81015 39.18599 12.63809 39.44577 12.46265 39.70555 12.28436 39.96535 12.10294 40.22513 11.9192 40.48491 11.7326 40.7447 11.54315 41.00449 11.3511 41.26425 11.15671 41.52405 10.95921 41.78383 10.75887 42.04362 10.55643 42.3034 10.35167 42.56319 10.1443 42.82298 9.93462 43.08276 9.72284 43.34254 9.50847 43.60233 9.29204 43.8621 9.07324 44.1219 8.85239 44.38168 8.62971 44.64146 8.40471 44.90126 8.17789 45.16104 7.94925 45.4208 7.71904 45.68062 7.48651 45.9404 7.25241 46.20018 7.01625 46.45996 6.77878 46.71974 6.53976 46.97954 6.29945 47.23932 6.05731 47.4991 5.81413 47.7589 5.56914 48.01866 5.3231 48.27847 5.07552 48.53825 4.82689 48.79802 4.57722 49.05782 4.3268 49.3176 4.07504 49.57738 3.82227 49.83717 3.56897 50.09695 3.31438 50.35675 3.059 50.61652 2.80338 50.87631 2.5467 51.13611 2.28952 51.39587 2.0318 51.65565 1.77383 51.91545 1.51535 52.17523 1.2566 52.43503 .99707 52.69481 .73755 52.95459 .47801 53.21437 .2185 53.47415-.04099 53.73393-.30077 53.99373-.56029 54.25351-.81982 54.5133-1.07935 54.77309-1.33835 55.03287-1.59709 55.29266-1.85559 55.55243-2.11356 55.81221-2.37126 56.072-2.62819 56.33179-2.88434 56.59158-3.13997 56.85136-3.3951 57.11115-3.64917 57.37093-3.90247 57.63072-4.15472 57.8905-4.40646 58.15028-4.65665 58.41006-4.90605 58.66986-5.15416 58.92964-5.40123 59.18942-5.64674 59.44922-5.89122 59.709-6.13412 59.96877-6.37575 60.22858-6.6158 60.48836-6.85431 60.74814-7.09125 61.00792-7.32637 61.2677-7.55995 61.5275-7.7917 61.78728-8.02191 62.04706-8.25056 62.30685-8.47635 62.56662-8.70058 62.82643-8.92271 63.08621-9.14279 63.34598-9.36055 63.60577-9.5762 63.86555-9.79005 64.12534-10.00157 64.38513-10.2105 64.64491-10.41681 64.90471-10.6208 65.16447-10.82245 65.42427-11.0215 65.68405-11.21823 65.94383-11.41234 66.20361-11.6039 66.46341-11.79228 66.72319-11.97786 66.98299-12.16081 67.24277-12.34093 67.50253-12.5182 67.76233-12.6926 68.02211-12.86441 68.28189-13.03258 68.54169-13.19815 68.80147-13.36008 69.06126-13.51942 69.32103-13.6754 69.58083-13.82828 69.84062-13.97775 70.10039-14.12439 70.36017-14.26765 70.61996-14.40755 70.87975-14.54327 71.13954-14.6764 71.39932-14.80591 71.6591-14.93178 71.91888-15.05452 72.17868-15.17392 72.43846-15.28966 72.69824-15.40152 72.95802-15.50974 73.21782-15.61432 73.4776-15.71555 73.73738-15.81313 73.99718-15.90681 74.25696-15.99713 74.51672-16.0838 74.77654-16.16608 75.03632-16.24472 75.2961-16.31972 75.55588-16.39056 75.81566-16.45831 76.07545-16.52188 76.33524-16.58183 76.59502-16.6379 76.85481-16.6898 77.11458-16.73755 77.37439-16.78166 77.63416-16.82164 77.89394-16.85797 78.15373-16.89067 78.41351-16.91922"/>
<path transform="matrix(1.00006,0,0,-1.00006,69.726139,47.954095)" stroke-width="1.59404" stroke-linecap="butt" stroke-miterlimit="10" stroke-linejoin="miter" fill="none" stroke="#990000" d="M80.14922 0H80.34464 80.54005 80.73549 80.93092 81.12634 81.32176 81.51718 81.7126 81.90802 82.10344 82.29887 82.4943 82.68971 82.88513 83.08055 83.27599 83.4714 83.66684 83.86226 84.05768 84.2531 84.44852 84.64394 84.83936 85.03477 85.23021 85.42563 85.62106 85.81648 86.0119 86.20732 86.40274 86.59818 86.7936 86.98901 87.18443 87.37985 87.57527 87.77069 87.96614 88.16156 88.35698 88.5524 88.74782 88.94324 89.13866 89.33409 89.52951 89.72493 89.92035 90.11577 90.3112 90.50662 90.70204 90.89748 91.0929 91.28831 91.48373 91.67915 91.87457 92.06999 92.26543 92.46085 92.65628 92.8517 93.04712 93.24254 93.43796 93.63339 93.82881 94.02423 94.21965 94.41507 94.61049 94.80591 95.00134 95.19678 95.3922 95.58762 95.78304 95.97845 96.17387 96.36931 96.56473 96.76015 96.95557 97.15099 97.3464 97.54184 97.73726 97.9327 98.12811 98.32352 98.51895 98.71437 98.90979 99.10521 99.30064 99.49606 99.69148 99.88692 100.08234 100.27776 100.47318 100.6686 100.86403 101.05945 101.25487 101.45029 101.6457 101.84113 102.03656 102.232 102.42741 102.62283 102.81825 103.01366 103.20909 103.40453 103.59995 103.79536 103.99078 104.1862 104.38162 104.57704 104.77248 104.96791 105.16333 105.35873 105.55417 105.74959 105.945 106.14043 106.33586 106.53128 106.7267 106.92212 107.11755 107.31297 107.50839 107.70381 107.89925 108.09467 108.29008 108.4855 108.68092 108.87634 109.07178 109.2672 109.46263 109.65805 109.85345 110.04887 110.2443 110.43973 110.63516 110.83058 111.026 111.22142 111.41684 111.61226 111.8077 112.00313 112.19853 112.39395 112.58937 112.7848 112.98022 113.17564 113.37108 113.5665 113.76192 113.95734 114.15276 114.34819 114.5436 114.73903 114.93445 115.12988 115.3253 115.52072 115.71614 115.91156 116.107 116.30241 116.49783 116.69327 116.88867 117.08409 117.27951 117.47495 117.67038 117.8658 118.06122 118.25664 118.45206 118.64748 118.8429 119.03835"/>
<path transform="matrix(1.00006,0,0,-1.00006,69.726139,47.954095)" d="M28.50961 17.00824C28.50961 17.99866 27.70673 18.80156 26.7163 18.80156 25.72588 18.80156 24.92299 17.99866 24.92299 17.00824 24.92299 16.01782 25.72588 15.21492 26.7163 15.21492 27.70673 15.21492 28.50961 16.01782 28.50961 17.00824ZM26.7163 17.00824" fill="#009900"/>
<path transform="matrix(1.00006,0,0,-1.00006,69.726139,47.954095)" stroke-width="1.19553" stroke-linecap="butt" stroke-miterlimit="10" stroke-linejoin="miter" fill="none" stroke="#990000" d="M29.70515 0C29.70515 1.65071 28.36702 2.98885 26.7163 2.98885 25.06558 2.98885 23.72743 1.65071 23.72743 0 23.72743-1.65071 25.06558-2.98885 26.7163-2.98885 28.36702-2.98885 29.70515-1.65071 29.70515 0ZM26.7163 0"/>
<path transform="matrix(1.00006,0,0,-1.00006,69.726139,47.954095)" d="M29.70515 17.00798C29.70515 18.6587 28.36702 19.99684 26.7163 19.99684 25.06558 19.99684 23.72743 18.6587 23.72743 17.00798 23.72743 15.35725 25.06558 14.01912 26.7163 14.01912 28.36702 14.01912 29.70515 15.35725 29.70515 17.00798ZM26.7163 17.00798" fill="#990000"/>
<path transform="matrix(1.00006,0,0,-1.00006,69.726139,47.954095)" stroke-width=".79701" stroke-linecap="butt" stroke-miterlimit="10" stroke-linejoin="miter" fill="none" stroke="#009900" d="M81.94254 17.00824C81.94254 17.99866 81.13963 18.80156 80.14922 18.80156 79.1588 18.80156 78.3559 17.99866 78.3559 17.00824 78.3559 16.01782 79.1588 15.21492 80.14922 15.21492 81.13963 15.21492 81.94254 16.01782 81.94254 17.00824ZM80.14922 17.00824"/>
<path transform="matrix(1.00006,0,0,-1.00006,69.726139,47.954095)" d="M83.13808 0C83.13808 1.65071 81.79994 2.98885 80.14922 2.98885 78.49849 2.98885 77.16035 1.65071 77.16035 0 77.16035-1.65071 78.49849-2.98885 80.14922-2.98885 81.79994-2.98885 83.13808-1.65071 83.13808 0ZM80.14922 0" fill="#990000"/>
<path transform="matrix(1.00006,0,0,-1.00006,69.726139,47.954095)" stroke-width="1.19553" stroke-linecap="butt" stroke-miterlimit="10" stroke-linejoin="miter" fill="none" stroke="#990000" d="M83.13808-17.00798C83.13808-15.35725 81.79994-14.01912 80.14922-14.01912 78.49849-14.01912 77.16035-15.35725 77.16035-17.00798 77.16035-18.6587 78.49849-19.99684 80.14922-19.99684 81.79994-19.99684 83.13808-18.6587 83.13808-17.00798ZM80.14922-17.00798"/>
<use data-text="g" xlink:href="#font_1_1" transform="matrix(9.166149,0,0,-9.166149,33.498964,42.302755)" fill="#0000ff"/>
<use data-text="(" xlink:href="#font_4_1" transform="matrix(9.166149,0,0,-9.166149,39.247316,42.303754)" fill="#0000ff"/>
<use data-text="t" xlink:href="#font_1_4" transform="matrix(9.166149,0,0,-9.166149,42.65451,42.302755)" fill="#0000ff"/>
<use data-text=")" xlink:href="#font_4_2" transform="matrix(9.166149,0,0,-9.166149,46.75975,42.303754)" fill="#0000ff"/>
<use data-text="=" xlink:href="#font_2_5" transform="matrix(9.166149,0,0,-9.166149,51.67305,42.302755)" fill="#0000ff"/>
<use data-text="0" xlink:href="#font_4_4" transform="matrix(9.166149,0,0,-9.166149,59.97354,42.303754)" fill="#0000ff"/>
<use data-text="g" xlink:href="#font_1_1" transform="matrix(9.166149,0,0,-9.166149,100.926,8.284714)" fill="#009900"/>
<use data-text="(" xlink:href="#font_4_1" transform="matrix(9.166149,0,0,-9.166149,106.674358,8.285713)" fill="#009900"/>
<use data-text="t" xlink:href="#font_1_4" transform="matrix(9.166149,0,0,-9.166149,110.08155,8.284714)" fill="#009900"/>
<use data-text=")" xlink:href="#font_4_2" transform="matrix(9.166149,0,0,-9.166149,114.18679,8.285713)" fill="#009900"/>
<use data-text="=" xlink:href="#font_2_5" transform="matrix(9.166149,0,0,-9.166149,119.10009,8.284714)" fill="#009900"/>
<use data-text="t" xlink:href="#font_1_4" transform="matrix(9.166149,0,0,-9.166149,127.59959,8.285713)" fill="#009900"/>
<use data-text="&#x2212;" xlink:href="#font_2_1" transform="matrix(9.166149,0,0,-9.166149,132.9219,8.284714)" fill="#009900"/>
<use data-text="2" xlink:href="#font_4_6" transform="matrix(9.166149,0,0,-9.166149,140.73538,8.285713)" fill="#009900"/>
<use data-text="g" xlink:href="#font_1_1" transform="matrix(9.166149,0,0,-9.166149,153.76718,42.302755)" fill="#0000ff"/>
<use data-text="(" xlink:href="#font_4_1" transform="matrix(9.166149,0,0,-9.166149,159.51554,42.303754)" fill="#0000ff"/>
<use data-text="t" xlink:href="#font_1_4" transform="matrix(9.166149,0,0,-9.166149,162.92273,42.302755)" fill="#0000ff"/>
<use data-text=")" xlink:href="#font_4_2" transform="matrix(9.166149,0,0,-9.166149,167.02796,42.303754)" fill="#0000ff"/>
<use data-text="=" xlink:href="#font_2_5" transform="matrix(9.166149,0,0,-9.166149,171.94126,42.302755)" fill="#0000ff"/>
<use data-text="0" xlink:href="#font_4_4" transform="matrix(9.166149,0,0,-9.166149,180.24176,42.303754)" fill="#0000ff"/>
<use data-text="t" xlink:href="#font_1_4" transform="matrix(9.166149,0,0,-9.166149,26.751557,69.51839)" fill="#0000ff"/>
<use data-text="&#x003c;" xlink:href="#font_2_6" transform="matrix(9.166149,0,0,-9.166149,32.560914,69.51939)" fill="#0000ff"/>
<use data-text="p" xlink:href="#font_1_3" transform="matrix(9.166149,0,0,-9.166149,41.06041,69.51839)" fill="#0000ff"/>
<use data-text="i" xlink:href="#font_1_2" transform="matrix(9.166149,0,0,-9.166149,47.165056,69.51839)" fill="#0000ff"/>
<use data-text="&#x2217;" xlink:href="#font_2_2" transform="matrix(9.166149,0,0,-9.166149,52.391099,69.51939)" fill="#0000ff"/>
<use data-text="0" xlink:href="#font_4_4" transform="matrix(9.166149,0,0,-9.166149,59.42752,69.51839)" fill="#0000ff"/>
<use data-text="." xlink:href="#font_4_3" transform="matrix(9.166149,0,0,-9.166149,64.28558,69.51839)" fill="#0000ff"/>
<use data-text="5" xlink:href="#font_4_8" transform="matrix(9.166149,0,0,-9.166149,66.7146,69.51839)" fill="#0000ff"/>
<use data-text="p" xlink:href="#font_1_3" transform="matrix(9.166149,0,0,-9.166149,80.48278,69.51839)" fill="#009900"/>
<use data-text="i" xlink:href="#font_1_2" transform="matrix(9.166149,0,0,-9.166149,86.587429,69.51839)" fill="#009900"/>
<use data-text="&#x2217;" xlink:href="#font_2_2" transform="matrix(9.166149,0,0,-9.166149,91.81246,69.51939)" fill="#009900"/>
<use data-text="0" xlink:href="#font_4_4" transform="matrix(9.166149,0,0,-9.166149,98.84887,69.51839)" fill="#009900"/>
<use data-text="." xlink:href="#font_4_3" transform="matrix(9.166149,0,0,-9.166149,103.70693,69.51839)" fill="#009900"/>
<use data-text="5" xlink:href="#font_4_8" transform="matrix(9.166149,0,0,-9.166149,106.13596,69.51839)" fill="#009900"/>
<use data-text="&#x2264;" xlink:href="#font_2_3" transform="matrix(9.166149,0,0,-9.166149,112.7087,69.51939)" fill="#009900"/>
<use data-text="t" xlink:href="#font_1_4" transform="matrix(9.166149,0,0,-9.166149,121.209209,69.51839)" fill="#009900"/>
<use data-text="&#x003c;" xlink:href="#font_2_6" transform="matrix(9.166149,0,0,-9.166149,127.01856,69.51939)" fill="#009900"/>
<use data-text="p" xlink:href="#font_1_3" transform="matrix(9.166149,0,0,-9.166149,135.51807,69.51839)" fill="#009900"/>
<use data-text="i" xlink:href="#font_1_2" transform="matrix(9.166149,0,0,-9.166149,141.62271,69.51839)" fill="#009900"/>
<use data-text="&#x2217;" xlink:href="#font_2_2" transform="matrix(9.166149,0,0,-9.166149,146.84876,69.51939)" fill="#009900"/>
<use data-text="1" xlink:href="#font_4_5" transform="matrix(9.166149,0,0,-9.166149,153.88419,69.51839)" fill="#009900"/>
<use data-text="." xlink:href="#font_4_3" transform="matrix(9.166149,0,0,-9.166149,158.74225,69.51839)" fill="#009900"/>
<use data-text="5" xlink:href="#font_4_8" transform="matrix(9.166149,0,0,-9.166149,161.17127,69.51839)" fill="#009900"/>
<use data-text="t" xlink:href="#font_1_4" transform="matrix(9.166149,0,0,-9.166149,147.01978,69.51839)" fill="#0000ff"/>
<use data-text="&#x2265;" xlink:href="#font_2_4" transform="matrix(9.166149,0,0,-9.166149,152.82913,69.51939)" fill="#0000ff"/>
<use data-text="p" xlink:href="#font_1_3" transform="matrix(9.166149,0,0,-9.166149,161.32862,69.51839)" fill="#0000ff"/>
<use data-text="i" xlink:href="#font_1_2" transform="matrix(9.166149,0,0,-9.166149,167.43326,69.51839)" fill="#0000ff"/>
<use data-text="&#x2217;" xlink:href="#font_2_2" transform="matrix(9.166149,0,0,-9.166149,172.6593,69.51939)" fill="#0000ff"/>
<use data-text="1" xlink:href="#font_4_5" transform="matrix(9.166149,0,0,-9.166149,179.69574,69.51839)" fill="#0000ff"/>
<use data-text="." xlink:href="#font_4_3" transform="matrix(9.166149,0,0,-9.166149,184.5538,69.51839)" fill="#0000ff"/>
<use data-text="5" xlink:href="#font_4_8" transform="matrix(9.166149,0,0,-9.166149,186.98282,69.51839)" fill="#0000ff"/>
</svg>
