<svg xmlns="http://www.w3.org/2000/svg" xmlns:xlink="http://www.w3.org/1999/xlink" version="1.1" width="144" height="61" viewBox="0 0 144 61">
<defs>
<path id="font_1_2" d="M.42799378 .45222474 .43899537 .49023438H.31199647L.34599305 .6092224 .33399964 .6162262 .23699951 .53923037 .22399903 .49023438H.14299011L.13198853 .45222474H.21499634L.125 .08627319C.10998535 .029266358 .12199402-.01171875 .17199707-.01171875 .2519989-.01171875 .31599427 .054275514 .35598756 .1292572L.33399964 .1462555C.31098939 .10726929 .2599945 .040267946 .22898865 .040267946 .20799256 .040267946 .20799256 .0632782 .21398926 .088272098L.30299378 .45222474H.42799378Z"/>
<path id="font_2_3" d="M.07398987 .2861328V.21612549H.31900025V.2861328H.07398987Z"/>
<path id="font_2_7" d="M.12998963 .3657837C.12998963 .3487854 .1349945 .33779908 .147995 .33779908 .1599884 .33779908 .18699646 .34777833 .23498535 .34777833 .31999208 .34777833 .36799623 .27090455 .36799623 .18403626 .36799623 .065216068 .30899049 .023269654 .23799134 .023269654 .17199707 .023269654 .1289978 .07319641 .10998535 .12911988 .10398865 .14808655 .09399414 .15707398 .07998657 .15707398 .06199646 .15707398 .026992798 .13809204 .026992798 .10215759 .026992798 .05921936 .09599304-.01171875 .23699951-.01171875 .38198854-.01171875 .47299195 .06121826 .47299195 .18902588 .47299195 .32281495 .35798646 .3627777 .30299378 .3677826V.3717804C.35699464 .38078309 .44400025 .4207611 .44400025 .5197296 .44400025 .6306915 .35699464 .6796875 .25 .6796875 .117996219 .6796875 .052993776 .60369876 .052993776 .5607147 .052993776 .5297241 .08799744 .51272585 .101989749 .51272585 .114990238 .51272585 .12298584 .5197296 .1269989 .5327301 .14898682 .60069277 .18699646 .64468386 .24299622 .64468386 .32199098 .64468386 .34098817 .57470706 .34098817 .51872256 .34098817 .4587555 .31999208 .38378907 .23498535 .38378907 .18699646 .38378907 .1599884 .39378358 .147995 .39378358 .1349945 .39378358 .12998963 .38378907 .12998963 .3657837Z"/>
<path id="font_2_6" d="M.4850006 .13195801 .45700074 .13696289C.43598939 .08299255 .41600038 .07598877 .37599183 .07598877H.11999512C.13598633 .1279602 .19499207 .19892884 .28799439 .2658844 .38398744 .33584596 .45799256 .38082887 .45799256 .49276734 .45799256 .63168337 .3659973 .6796875 .26098634 .6796875 .12399292 .6796875 .052993776 .5967102 .052993776 .54473879 .052993776 .51075747 .09098816 .49476625 .10798645 .49476625 .12599182 .49476625 .1329956 .50476077 .13699341 .5217438 .15299988 .5897064 .19198609 .64468386 .2539978 .64468386 .33099366 .64468386 .35299684 .5797119 .35299684 .50675967 .35299684 .3998108 .29899598 .33984376 .21199036 .26289369 .08898926 .15594483 .04598999 .08798218 .026992798 .009994507L.036987306 0H.45098878L.4850006 .13195801Z"/>
<path id="font_2_5" d="M.43699647 0V.0289917L.35299684 .035995485C.33198548 .037994386 .31999208 .04598999 .31999208 .08496094V.67367556L.31498719 .6796875 .10899353 .6446991V.6197052L.20199585 .6087036C.21899414 .6067047 .22599793 .5987091 .22599793 .56973269V.08496094C.22599793 .065979007 .22299195 .053985597 .21699524 .04698181 .21199036 .039993287 .20399475 .036987306 .19299317 .035995485L.10899353 .0289917V0H.43699647Z"/>
<path id="font_2_4" d="M.2649994 .64468386C.3600006 .64468386 .3869934 .49682618 .3869934 .33398438 .3869934 .17112732 .3600006 .023269654 .2649994 .023269654 .16999817 .023269654 .14299011 .17112732 .14299011 .33398438 .14299011 .49682618 .16999817 .64468386 .2649994 .64468386M.2649994 .6796875C.099990848 .6796875 .040985109 .53378298 .040985109 .33398438 .040985109 .13417053 .099990848-.01171875 .2649994-.01171875 .42999269-.01171875 .4889984 .13417053 .4889984 .33398438 .4889984 .53378298 .42999269 .6796875 .2649994 .6796875Z"/>
<path id="font_3_2" d="M.6349945 .07472229 .17298889 .28173829 .6349945 .48875428V.5517578L.084991458 .31674195V.24673462L.6349945 .01171875V.07472229Z"/>
<path id="font_3_1" d="M.6349945-.0078125V.050186159H.084991458V-.0078125H.6349945M.084991458 .14318848 .6349945 .32221986V.39222718L.084991458 .5722656V.5092468L.5469971 .3572235 .084991458 .20620728V.14318848Z"/>
<path id="font_1_1" d="M.18699646 .6923828 .17999268 .66337588 .23899842 .658371C.2619934 .6563721 .2689972 .64237979 .26098634 .609375L.1769867 .25634767C.12998963 .05734253 .23799134-.0146484379 .4099884-.0146484379 .54599-.0146484379 .67099 .014343262 .7259979 .24736023L.8109894 .609375C.81900027 .6433716 .8279877 .6563721 .8529968 .658371L.9079895 .66337588 .9149933 .6923828H.6409912L.6339874 .66337588 .69299319 .658371C.71598818 .6563721 .72299197 .64237979 .71499636 .609375L.6339874 .26036073C.6029968 .12734986 .55400088 .020339966 .4149933 .020339966 .3039856 .020339966 .23399353 .081344608 .27799989 .26934815L.35699464 .609375C.36499024 .6433716 .37399293 .65737918 .39898683 .65937808L.45399476 .66337588 .46099855 .6923828H.18699646Z"/>
<path id="font_2_1" d="M.1749878 .2822113C.1749878 .56832888 .2619934 .65437319 .32499696 .66737368V.6923828C.1499939 .685379 .10499573 .46829225 .10499573 .2822113 .10499573 .09614563 .1499939-.12094116 .32499696-.12792969V-.10293579C.2669983-.090927127 .1749878-.0059051516 .1749878 .2822113Z"/>
<path id="font_2_2" d="M.1749878 .2822113C.1749878-.0059051516 .08299255-.090927127 .024993897-.10293579V-.12792969C.19999695-.12094116 .24499512 .09614563 .24499512 .2822113 .24499512 .46829225 .19999695 .685379 .024993897 .6923828V.66737368C.08799744 .65437319 .1749878 .56832888 .1749878 .2822113Z"/>
<path id="font_2_11" d="M.18998719 .7480469C.13999939 .7020416 .07199097 .6350403 .07199097 .56404116 .07199097 .5100403 .10398865 .47703553 .13699341 .4780426 .16699219 .4780426 .18499756 .4990387 .18499756 .5260315 .18499756 .56204226 .1519928 .58303835 .1519928 .6200409 .1519928 .6580353 .17599488 .6960449 .20698548 .7320404L.18998719 .7480469M.36999513 .7480469C.31999208 .7020416 .2519989 .6350403 .2519989 .56404116 .2519989 .5100403 .28399659 .47703553 .31698609 .4780426 .34700013 .4780426 .36499024 .4990387 .36499024 .5260315 .36499024 .56204226 .33198548 .58303835 .33198548 .6200409 .33198548 .6580353 .35598756 .6960449 .3869934 .7320404L.36999513 .7480469Z"/>
<path id="font_2_10" d="M.28799439 .5019531C.12799073 .5019531 .04899597 .40698243 .04899597 .24510193 .04899597 .083236698 .12799073-.01171875 .28799439-.01171875 .44999696-.01171875 .5279999 .083236698 .5279999 .24510193 .5279999 .40698243 .44999696 .5019531 .28799439 .5019531M.15299988 .24510193C.15299988 .38301087 .19699097 .46694947 .28799439 .46694947 .3809967 .46694947 .42399598 .38301087 .42399598 .24510193 .42399598 .10720825 .3809967 .023269654 .28799439 .023269654 .19699097 .023269654 .15299988 .10720825 .15299988 .24510193Z"/>
<path id="font_2_8" d="M.20098877 .45022584H.32299806V.49023438H.20098877L.19699097 .60220339C.19400025 .6971741 .22898865 .70718386 .24499512 .70718386 .2659912 .70718386 .28799439 .6971741 .31298829 .6391907 .31799317 .62919619 .32499696 .6221924 .33999635 .6221924 .3600006 .6221924 .3889923 .6391907 .3889923 .66918948 .3889923 .70217898 .34700013 .7421875 .2669983 .7421875 .21199036 .7421875 .16499329 .71717837 .13999939 .67918398 .116989139 .64419558 .10699463 .5912018 .10699463 .5252228V.49023438H.02999878V.45022584H.10699463V.087020877C.10699463 .035995485 .10398865 .033996583 .03199768 .0289917V0H.29599V.0289917C.20498657 .032989503 .20098877 .034988405 .20098877 .08602905V.45022584Z"/>
<path id="font_2_12" d="M.08898926 .47218324C.13899231 .5181732 .20698548 .58517459 .20698548 .6561737 .20698548 .71017459 .1749878 .7431793 .14199829 .7421875 .11199951 .7421875 .09399414 .72117617 .09399414 .69418337 .09399414 .6581726 .1269989 .6371765 .1269989 .60017397 .1269989 .56217959 .102996829 .5241852 .07199097 .48817445L.08898926 .47218324M.2689972 .47218324C.31900025 .5181732 .3869934 .58517459 .3869934 .6561737 .3869934 .71017459 .35499574 .7431793 .32199098 .7421875 .2919922 .7421875 .27398683 .72117617 .27398683 .69418337 .27398683 .6581726 .30699159 .6371765 .30699159 .60017397 .30699159 .56217959 .2829895 .5241852 .2519989 .48817445L.2689972 .47218324Z"/>
<path id="font_2_9" d="M.5289917 .34295655C.5289917 .4439392 .47399903 .5019531 .38198854 .5019531 .30799867 .5019531 .2619934 .46594239 .19999695 .4259491L.18598938 .5019531 .036987306 .47694398V.45195008L.07499695 .4469452C.100997928 .4429474 .10699463 .4379425 .10699463 .40194703V.08699036C.10699463 .035995485 .10398865 .033996583 .03199768 .0289917V0H.27598573V.0289917C.20498657 .033996583 .20098877 .035995485 .20098877 .08699036V.32095338C.20098877 .34596253 .20298767 .35995484 .21099854 .37594605 .23199463 .4149475 .2769928 .44795228 .32998658 .44795228 .397995 .44795228 .43499757 .40994264 .43499757 .32295228V.08699036C.43499757 .035995485 .43199159 .033996583 .3600006 .0289917V0H.60398867V.0289917C.5329895 .033996583 .5289917 .035995485 .5289917 .08699036V.34295655Z"/>
</defs>
<path transform="matrix(1.00009,0,0,-1.00003,70.946338,37.517736)" d="M-69.44937-21.82706V35.71686H19.84267V-21.82706ZM19.84267 35.71686" fill="#d9d9ff"/>
<path transform="matrix(1.00009,0,0,-1.00003,70.946338,37.517736)" d="M19.84267-21.82706V35.71686H69.44937V-21.82706ZM69.44937 35.71686" fill="#d9ffd9"/>
<path transform="matrix(1.00009,0,0,-1.00003,70.946338,37.517736)" stroke-width=".3985" stroke-linecap="butt" stroke-miterlimit="10" stroke-linejoin="miter" fill="none" stroke="#000000" d="M-69.44937 0H68.99109"/>
<path transform="matrix(1.00009,0,0,-1.00003,139.94364,37.517736)" stroke-width=".31879" stroke-linecap="round" stroke-linejoin="round" fill="none" stroke="#000000" d="M-1.19551 1.59401C-1.09587 .99626 0 .09961 .29886 0 0-.09961-1.09587-.99626-1.19551-1.59401"/>
<use data-text="t" xlink:href="#font_1_2" transform="matrix(9.166425,0,0,-9.165875,138.44841,46.56601)"/>
<path transform="matrix(1.00009,0,0,-1.00003,70.946338,37.517736)" stroke-width=".3985" stroke-linecap="butt" stroke-miterlimit="10" stroke-linejoin="miter" fill="none" stroke="#000000" d="M0-21.82706V35.25858"/>
<path transform="matrix(0,-1.00003,-1.00009,-0,70.946338,2.2580949)" stroke-width=".31879" stroke-linecap="round" stroke-linejoin="round" fill="none" stroke="#000000" d="M-1.19551 1.59401C-1.09587 .99626 0 .09961 .29886 0 0-.09961-1.09587-.99626-1.19551-1.59401"/>
<path transform="matrix(1.00009,0,0,-1.00003,70.946338,37.517736)" stroke-width=".3985" stroke-linecap="butt" stroke-miterlimit="10" stroke-linejoin="miter" fill="none" stroke="#b5b5b5" d="M-59.52802 1.98438V-1.98438"/>
<use data-text="-" xlink:href="#font_2_3" transform="matrix(9.166425,0,0,-9.165875,7.1835939,48.641069)"/>
<use data-text="3" xlink:href="#font_2_7" transform="matrix(9.166425,0,0,-9.165875,10.776825,48.641069)"/>
<path transform="matrix(1.00009,0,0,-1.00003,70.946338,37.517736)" stroke-width=".3985" stroke-linecap="butt" stroke-miterlimit="10" stroke-linejoin="miter" fill="none" stroke="#b5b5b5" d="M-39.68535 1.98438V-1.98438"/>
<use data-text="-" xlink:href="#font_2_3" transform="matrix(9.166425,0,0,-9.165875,27.027382,48.641069)"/>
<use data-text="2" xlink:href="#font_2_6" transform="matrix(9.166425,0,0,-9.165875,30.620614,48.641069)"/>
<path transform="matrix(1.00009,0,0,-1.00003,70.946338,37.517736)" stroke-width=".3985" stroke-linecap="butt" stroke-miterlimit="10" stroke-linejoin="miter" fill="none" stroke="#b5b5b5" d="M-19.84267 1.98438V-1.98438"/>
<use data-text="-" xlink:href="#font_2_3" transform="matrix(9.166425,0,0,-9.165875,46.87217,48.641069)"/>
<use data-text="1" xlink:href="#font_2_5" transform="matrix(9.166425,0,0,-9.165875,50.4654,48.641069)"/>
<path transform="matrix(1.00009,0,0,-1.00003,70.946338,37.517736)" stroke-width=".3985" stroke-linecap="butt" stroke-miterlimit="10" stroke-linejoin="miter" fill="none" stroke="#b5b5b5" d="M0 1.98438V-1.98438"/>
<use data-text="0" xlink:href="#font_2_4" transform="matrix(9.166425,0,0,-9.165875,68.515117,48.641069)"/>
<path transform="matrix(1.00009,0,0,-1.00003,70.946338,37.517736)" stroke-width=".3985" stroke-linecap="butt" stroke-miterlimit="10" stroke-linejoin="miter" fill="none" stroke="#b5b5b5" d="M19.84267 1.98438V-1.98438"/>
<use data-text="1" xlink:href="#font_2_5" transform="matrix(9.166425,0,0,-9.165875,88.3599,48.641069)"/>
<path transform="matrix(1.00009,0,0,-1.00003,70.946338,37.517736)" stroke-width=".3985" stroke-linecap="butt" stroke-miterlimit="10" stroke-linejoin="miter" fill="none" stroke="#b5b5b5" d="M39.68535 1.98438V-1.98438"/>
<use data-text="2" xlink:href="#font_2_6" transform="matrix(9.166425,0,0,-9.165875,108.20369,48.641069)"/>
<path transform="matrix(1.00009,0,0,-1.00003,70.946338,37.517736)" stroke-width=".3985" stroke-linecap="butt" stroke-miterlimit="10" stroke-linejoin="miter" fill="none" stroke="#b5b5b5" d="M59.52802 1.98438V-1.98438"/>
<use data-text="3" xlink:href="#font_2_7" transform="matrix(9.166425,0,0,-9.165875,128.04848,48.641069)"/>
<path transform="matrix(1.00009,0,0,-1.00003,70.946338,37.517736)" stroke-width=".3985" stroke-linecap="butt" stroke-miterlimit="10" stroke-linejoin="miter" fill="none" stroke="#b5b5b5" d="M1.98438 19.84267H-1.98438"/>
<use data-text="1" xlink:href="#font_2_5" transform="matrix(9.166425,0,0,-9.165875,61.692506,20.74323)"/>
<path transform="matrix(1.00009,0,0,-1.00003,70.946338,37.517736)" stroke-width="1.19553" stroke-linecap="butt" stroke-miterlimit="10" stroke-linejoin="miter" fill="none" stroke="#0000ff" d="M-69.44937 0H-69.0058-68.56223-68.11865-67.6751-67.23154-66.78796-66.3444-65.90085-65.45728-65.0137-64.57014-64.12657-63.683-63.23943-62.79587-62.35231-61.90874-61.46518-61.02162-60.57805-60.13448-59.6909-59.24734-58.80379-58.36021-57.91666-57.4731-57.02951-56.58595-56.1424-55.69882-55.25525-54.81168-54.36812-53.92456-53.48099-53.03743-52.59387-52.15028-51.70673-51.26317-50.8196-50.37604-49.93246-49.4889-49.04535-48.60176-48.1582-47.71465-47.27107-46.8275-46.38394-45.94037-45.49681-45.05324-44.60968-44.16612-43.72253-43.27898-42.83542-42.39185-41.94829-41.50473-41.06116-40.61758-40.17401-39.73045-39.2869-38.8433-38.39975-37.95619-37.51262-37.06906-36.62549-36.18193-35.73837-35.29478-34.85123-34.40767-33.9641-33.52054-33.07698-32.6334-32.18983-31.74626-31.3027-30.85915-30.41556-29.972-29.52844-29.08487-28.64131-28.19775-27.75418-27.31061-26.86703-26.42348-25.97992-25.53635-25.09279-24.64923-24.20566-23.76208-23.31853-22.87495-22.43138-21.98781-21.54425-21.1007-20.65712-20.21356-19.77-19.32643-18.88286-18.43929-17.99573-17.55217-17.1086-16.66504-16.22148-15.7779-15.33434-14.89078-14.4472-14.00363-13.56006-13.1165-12.67294-12.22937-11.78581-11.34225-10.89867-10.45511-10.01155-9.56798-9.12442-8.68085-8.23729-7.79373-7.35014-6.90659-6.46303-6.01944-5.57588-5.13232-4.68875-4.2452-3.80162-3.35806-2.9145-2.47092-2.02736-1.5838-1.14023-.69667-.25311 .19043 .63399 1.07756 1.52112 1.96468 2.40826 2.85182 3.29538 3.73895 4.18253 4.62608 5.06964 5.51321 5.95679 6.40034 6.8439 7.28749 7.73105 8.1746 8.61818 9.06174 9.50531 9.94887 10.39243 10.83601 11.27957 11.72313 12.16672 12.61026 13.05382 13.49739 13.94096 14.38454 14.8281 15.27165 15.71524 16.1588 16.60236 17.04593 17.48949 17.93304 18.37662 18.82019"/>
<path transform="matrix(1.00009,0,0,-1.00003,70.946338,37.517736)" stroke-width="1.19553" stroke-linecap="butt" stroke-miterlimit="10" stroke-linejoin="miter" fill="none" stroke="#009900" d="M19.84267 19.84267H20.09184 20.34103 20.59021 20.8394 21.0886 21.33777 21.58696 21.83614 22.08533 22.33452 22.58368 22.83287 23.08205 23.33124 23.58041 23.82959 24.07878 24.32796 24.57715 24.82634 25.07552 25.3247 25.57388 25.82307 26.07227 26.32144 26.57063 26.81982 27.069 27.31819 27.56737 27.81656 28.06573 28.31491 28.5641 28.81328 29.06247 29.31166 29.56084 29.81003 30.0592 30.3084 30.55759 30.80676 31.05595 31.30513 31.5543 31.8035 32.05267 32.30186 32.55104 32.80022 33.04941 33.29858 33.54778 33.79697 34.04614 34.29533 34.54451 34.7937 35.0429 35.29207 35.54126 35.79044 36.03963 36.28882 36.538 36.78719 37.03636 37.28555 37.53473 37.7839 38.0331 38.28227 38.53146 38.78065 39.02983 39.27902 39.52821 39.77739 40.02658 40.27574 40.52493 40.77412 41.0233 41.27249 41.52167 41.77086 42.02003 42.26921 42.5184 42.76758 43.01677 43.26596 43.51514 43.76433 44.0135 44.2627 44.51189 44.76106 45.01025 45.25945 45.50862 45.75781 46.00699 46.25618 46.50536 46.75453 47.00372 47.2529 47.50209 47.75128 48.00046 48.24965 48.49883 48.74802 48.99721 49.24637 49.49556 49.74474 49.99393 50.24312 50.4923 50.74149 50.99066 51.23985 51.48903 51.7382 51.9874 52.23659 52.48576 52.73495 52.98413 53.23332 53.48251 53.73169 53.98088 54.23006 54.47925 54.72844 54.97762 55.2268 55.47598 55.72517 55.97435 56.22353 56.47272 56.7219 56.97108 57.22028 57.46945 57.71864 57.96782 58.217 58.46619 58.71536 58.96455 59.21375 59.46292 59.71211 59.96129 60.21048 60.45966 60.70883 60.95802 61.2072 61.45639 61.70558 61.95476 62.20395 62.45313 62.70232 62.9515 63.20068 63.44987 63.69905 63.94824 64.19743 64.44661 64.6958 64.94498 65.19417 65.44334 65.69252 65.94171 66.1909 66.44008 66.68927 66.93843 67.18762 67.43681 67.68599 67.93518 68.18436 68.43355 68.68274 68.93192 69.1811 69.43028"/>
<path transform="matrix(1.00009,0,0,-1.00003,70.946338,37.517736)" stroke-width=".79701" stroke-linecap="butt" stroke-miterlimit="10" stroke-linejoin="miter" fill="none" stroke="#0000ff" d="M21.23744 0C21.23744 .77031 20.61298 1.39478 19.84267 1.39478 19.07234 1.39478 18.44788 .77031 18.44788 0 18.44788-.77031 19.07234-1.39478 19.84267-1.39478 20.61298-1.39478 21.23744-.77031 21.23744 0ZM19.84267 0"/>
<path transform="matrix(1.00009,0,0,-1.00003,70.946338,37.517736)" d="M21.23744 19.84267C21.23744 20.61298 20.61298 21.23744 19.84267 21.23744 19.07234 21.23744 18.44788 20.61298 18.44788 19.84267 18.44788 19.07234 19.07234 18.44788 19.84267 18.44788 20.61298 18.44788 21.23744 19.07234 21.23744 19.84267ZM19.84267 19.84267" fill="#009900"/>
<use data-text="t" xlink:href="#font_1_2" transform="matrix(7.33316,0,0,-7.3327205,38.631425,55.882287)" fill="#0000ff"/>
<use data-text="&#x003c;" xlink:href="#font_3_2" transform="matrix(7.33316,0,0,-7.3327205,43.27884,55.882287)" fill="#0000ff"/>
<use data-text="1" xlink:href="#font_2_5" transform="matrix(7.33316,0,0,-7.3327205,49.919435,55.882287)" fill="#0000ff"/>
<use data-text="t" xlink:href="#font_1_2" transform="matrix(7.33316,0,0,-7.3327205,108.08667,55.882287)" fill="#009900"/>
<use data-text="&#x2265;" xlink:href="#font_3_1" transform="matrix(7.33316,0,0,-7.3327205,112.734088,55.882287)" fill="#009900"/>
<use data-text="1" xlink:href="#font_2_5" transform="matrix(7.33316,0,0,-7.3327205,119.37468,55.882287)" fill="#009900"/>
<use data-text="U" xlink:href="#font_1_1" transform="matrix(9.166425,0,0,-9.165875,96.87666,11.6849579)" fill="#009900"/>
<use data-text="(" xlink:href="#font_2_1" transform="matrix(9.166425,0,0,-9.165875,105.236408,11.6849579)" fill="#009900"/>
<use data-text="t" xlink:href="#font_1_2" transform="matrix(9.166425,0,0,-9.165875,108.64371,11.6849579)" fill="#009900"/>
<use data-text=")" xlink:href="#font_2_2" transform="matrix(9.166425,0,0,-9.165875,112.74907,11.6849579)" fill="#009900"/>
<use data-text="&#x201c;" xlink:href="#font_2_11" transform="matrix(7.33316,0,0,-7.3327205,38.389406,30.310519)" fill="#0000ff"/>
<use data-text="o" xlink:href="#font_2_10" transform="matrix(7.33316,0,0,-7.3327205,41.161348,30.310519)" fill="#0000ff"/>
<use data-text="f" xlink:href="#font_2_8" transform="matrix(7.33316,0,0,-7.3327205,45.39258,30.310519)" fill="#0000ff"/>
<use data-text="f" xlink:href="#font_2_8" transform="matrix(7.33316,0,0,-7.3327205,47.731859,30.310519)" fill="#0000ff"/>
<use data-text="&#x201d;" xlink:href="#font_2_12" transform="matrix(7.33316,0,0,-7.3327205,50.53311,30.310519)" fill="#0000ff"/>
<use data-text="&#x201c;" xlink:href="#font_2_11" transform="matrix(7.33316,0,0,-7.3327205,108.44672,30.310519)" fill="#009900"/>
<use data-text="o" xlink:href="#font_2_10" transform="matrix(7.33316,0,0,-7.3327205,111.21866,30.310519)" fill="#009900"/>
<use data-text="n" xlink:href="#font_2_9" transform="matrix(7.33316,0,0,-7.3327205,115.44989,30.310519)" fill="#009900"/>
<use data-text="&#x201d;" xlink:href="#font_2_12" transform="matrix(7.33316,0,0,-7.3327205,119.39513,30.310519)" fill="#009900"/>
</svg>
