<svg xmlns="http://www.w3.org/2000/svg" xmlns:xlink="http://www.w3.org/1999/xlink" version="1.1" width="126" height="82" viewBox="0 0 126 82">
<defs>
<path id="font_1_1" d="M.42799378 .45222474 .43899537 .49023438H.31199647L.34599305 .6092224 .33399964 .6162262 .23699951 .53923037 .22399903 .49023438H.14299011L.13198853 .45222474H.21499634L.125 .08627319C.10998535 .029266358 .12199402-.01171875 .17199707-.01171875 .2519989-.01171875 .31599427 .054275514 .35598756 .1292572L.33399964 .1462555C.31098939 .10726929 .2599945 .040267946 .22898865 .040267946 .20799256 .040267946 .20799256 .0632782 .21398926 .088272098L.30299378 .45222474H.42799378Z"/>
<path id="font_2_3" d="M.07398987 .2861328V.21612549H.31900025V.2861328H.07398987Z"/>
<path id="font_2_6" d="M.43699647 0V.0289917L.35299684 .035995485C.33198548 .037994386 .31999208 .04598999 .31999208 .08496094V.67367556L.31498719 .6796875 .10899353 .6446991V.6197052L.20199585 .6087036C.21899414 .6067047 .22599793 .5987091 .22599793 .56973269V.08496094C.22599793 .065979007 .22299195 .053985597 .21699524 .04698181 .21199036 .039993287 .20399475 .036987306 .19299317 .035995485L.10899353 .0289917V0H.43699647Z"/>
<path id="font_2_5" d="M.2649994 .64468386C.3600006 .64468386 .3869934 .49682618 .3869934 .33398438 .3869934 .17112732 .3600006 .023269654 .2649994 .023269654 .16999817 .023269654 .14299011 .17112732 .14299011 .33398438 .14299011 .49682618 .16999817 .64468386 .2649994 .64468386M.2649994 .6796875C.099990848 .6796875 .040985109 .53378298 .040985109 .33398438 .040985109 .13417053 .099990848-.01171875 .2649994-.01171875 .42999269-.01171875 .4889984 .13417053 .4889984 .33398438 .4889984 .53378298 .42999269 .6796875 .2649994 .6796875Z"/>
<path id="font_2_15" d="M.19400025 .32104493C.19400025 .34602357 .19799805 .36001588 .20698548 .37800599 .22999573 .42396546 .272995 .44795228 .32598878 .44795228 .3659973 .44795228 .45498658 .42196656 .45498658 .25009156 .45498658 .10321045 .40899659 .023269654 .30899049 .023269654 .25698854 .023269654 .21699524 .050247194 .20098877 .096221927 .19499207 .11419678 .19400025 .13418579 .19400025 .15716553V.32104493M.02999878 .47694398V.45195008L.067993167 .4469452C.09399414 .4429474 .099990848 .43795777 .099990848 .40197755V-.14324951C.099990848-.19444275 .09498596-.19645691 .024993897-.20147705V-.23046875H.28399659V-.20147705C.19999695-.19645691 .19400025-.19444275 .19400025-.14324951V.011276245C.21499634-.0007324219 .2619934-.01171875 .30799867-.01171875 .44299317-.01171875 .5589905 .050247194 .5589905 .25608827 .5589905 .32704164 .54599 .5019531 .3639984 .5019531 .29100038 .5019531 .23298645 .4529419 .19400025 .42796327L.18099976 .5019531 .02999878 .47694398Z"/>
<path id="font_2_12" d="M.036987306 .47694398V.45195008L.07499695 .4469452C.100997928 .4429474 .10699463 .43795777 .10699463 .40194703V.08699036C.10699463 .035995485 .10398865 .033996583 .03199768 .0289917V0H.27598573V.0289917C.20498657 .033996583 .20098877 .035995485 .20098877 .08699036V.49609376L.19400025 .5020752 .036987306 .47694398M.15299988 .71484377C.116989139 .71484377 .09199524 .6888428 .09199524 .65283206 .09199524 .61782839 .116989139 .5928345 .15299988 .5928345 .18998719 .5928345 .21299744 .61782839 .21398926 .65283206 .21398926 .6888428 .18998719 .71484377 .15299988 .71484377Z"/>
<path id="font_2_4" d="M.15899658-.0146484379 .36898805 .70703127H.3019867L.09199524-.0146484379H.15899658Z"/>
<path id="font_2_7" d="M.4850006 .13195801 .45700074 .13696289C.43598939 .08299255 .41600038 .07598877 .37599183 .07598877H.11999512C.13598633 .1279602 .19499207 .19892884 .28799439 .2658844 .38398744 .33584596 .45799256 .38082887 .45799256 .49276734 .45799256 .63168337 .3659973 .6796875 .26098634 .6796875 .12399292 .6796875 .052993776 .5967102 .052993776 .54473879 .052993776 .51075747 .09098816 .49476625 .10798645 .49476625 .12599182 .49476625 .1329956 .50476077 .13699341 .5217438 .15299988 .5897064 .19198609 .64468386 .2539978 .64468386 .33099366 .64468386 .35299684 .5797119 .35299684 .50675967 .35299684 .3998108 .29899598 .33984376 .21199036 .26289369 .08898926 .15594483 .04598999 .08798218 .026992798 .009994507L.036987306 0H.45098878L.4850006 .13195801Z"/>
<path id="font_2_8" d="M.12998963 .3657837C.12998963 .3487854 .1349945 .33779908 .147995 .33779908 .1599884 .33779908 .18699646 .34777833 .23498535 .34777833 .31999208 .34777833 .36799623 .27090455 .36799623 .18403626 .36799623 .065216068 .30899049 .023269654 .23799134 .023269654 .17199707 .023269654 .1289978 .07319641 .10998535 .12911988 .10398865 .14808655 .09399414 .15707398 .07998657 .15707398 .06199646 .15707398 .026992798 .13809204 .026992798 .10215759 .026992798 .05921936 .09599304-.01171875 .23699951-.01171875 .38198854-.01171875 .47299195 .06121826 .47299195 .18902588 .47299195 .32281495 .35798646 .3627777 .30299378 .3677826V.3717804C.35699464 .38078309 .44400025 .4207611 .44400025 .5197296 .44400025 .6306915 .35699464 .6796875 .25 .6796875 .117996219 .6796875 .052993776 .60369876 .052993776 .5607147 .052993776 .5297241 .08799744 .51272585 .101989749 .51272585 .114990238 .51272585 .12298584 .5197296 .1269989 .5327301 .14898682 .60069277 .18699646 .64468386 .24299622 .64468386 .32199098 .64468386 .34098817 .57470706 .34098817 .51872256 .34098817 .4587555 .31999208 .38378907 .23498535 .38378907 .18699646 .38378907 .1599884 .39378358 .147995 .39378358 .1349945 .39378358 .12998963 .38378907 .12998963 .3657837Z"/>
<path id="font_2_9" d="M.2999878 .17871094V.0769043C.2999878 .04296875 .2889862 .036987306 .2649994 .034988405L.20098877 .0289917V0H.46499635V.0289917L.41999818 .033981325C.39698792 .036987306 .3899994 .04296875 .3899994 .0769043V.17871094H.49299623V.22570801H.3899994V.66796877H.31698609C.22299195 .5298767 .11099243 .35577394 .018997193 .19970703L.027999878 .17871094H.2999878M.09098816 .22570801C.15098572 .33476258 .22099304 .4498291 .2979889 .5709076H.2999878V.22570801H.09098816Z"/>
<path id="font_2_10" d="M.42599488 .5919647 .44999696 .6599579 .44499208 .66796877H.11099243L.100997928 .65896609 .08099365 .32388307 .10499573 .31188966C.14698792 .35983277 .18798828 .3828125 .24198914 .3828125 .30599977 .3828125 .37599183 .3358612 .37599183 .20404053 .37599183 .10116577 .33399964 .023269654 .24699402 .023269654 .1769867 .023269654 .14099121 .07420349 .12098694 .13113404 .115997318 .14611817 .10699463 .15510559 .09298706 .15510559 .07299805 .15510559 .039993287 .13513184 .039993287 .10217285 .039993287 .056228639 .10998535-.01171875 .23999024-.01171875 .40499879-.01171875 .47999574 .0881958 .47999574 .21502686 .47999574 .35484315 .3919983 .4268036 .272995 .4268036 .21798706 .4268036 .15899658 .4028015 .1269989 .3738098L.125 .37580873 .147995 .56292727C.15098572 .58795168 .1579895 .5919647 .1769867 .5919647H.42599488Z"/>
<path id="font_1_2" d="M.5329895 .48995973C.5039978 .388031 .48799134 .33506776 .46199037 .2741089 .41799928 .173172 .33099366 .040267946 .24798584 .040267946 .21598816 .040267946 .20799256 .070251468 .22299195 .12820435L.31900025 .4970703 .31399537 .50205996 .13198853 .47375489 .12599182 .4497528 .18798828 .44476319C.21199036 .44276429 .21099854 .42778016 .20298767 .39682008L.13398743 .13316345C.11299133 .053253175 .12098694-.01171875 .20098877-.01171875 .29699708-.01171875 .4019928 .09420776 .46199037 .21005249H.46398927L.43099977 .096206668C.4119873 .029266358 .42399598-.01171875 .47698976-.01171875 .548996-.01171875 .60899356 .057250978 .6439972 .13116455L.6199951 .14613343C.59999087 .11218262 .55599978 .040267946 .5279999 .040267946 .5069885 .040267946 .5069885 .06324768 .5149994 .09420776L.621994 .5019531 .5329895 .48995973Z"/>
<path id="font_2_1" d="M.1749878 .2822113C.1749878 .56832888 .2619934 .65437319 .32499696 .66737368V.6923828C.1499939 .685379 .10499573 .46829225 .10499573 .2822113 .10499573 .09614563 .1499939-.12094116 .32499696-.12792969V-.10293579C.2669983-.090927127 .1749878-.0059051516 .1749878 .2822113Z"/>
<path id="font_2_2" d="M.1749878 .2822113C.1749878-.0059051516 .08299255-.090927127 .024993897-.10293579V-.12792969C.19999695-.12094116 .24499512 .09614563 .24499512 .2822113 .24499512 .46829225 .19999695 .685379 .024993897 .6923828V.66737368C.08799744 .65437319 .1749878 .56832888 .1749878 .2822113Z"/>
<path id="font_3_2" d="M.6349945 .14315796V.20117188H.084991458V.14315796H.6349945M.6349945 .36288453V.42089845H.084991458V.36288453H.6349945Z"/>
<path id="font_2_17" d="M.18998719 .7480469C.13999939 .7020416 .07199097 .6350403 .07199097 .56404116 .07199097 .5100403 .10398865 .47703553 .13699341 .4780426 .16699219 .4780426 .18499756 .4990387 .18499756 .5260315 .18499756 .56204226 .1519928 .58303835 .1519928 .6200409 .1519928 .6580353 .17599488 .6960449 .20698548 .7320404L.18998719 .7480469M.36999513 .7480469C.31999208 .7020416 .2519989 .6350403 .2519989 .56404116 .2519989 .5100403 .28399659 .47703553 .31698609 .4780426 .34700013 .4780426 .36499024 .4990387 .36499024 .5260315 .36499024 .56204226 .33198548 .58303835 .33198548 .6200409 .33198548 .6580353 .35598756 .6960449 .3869934 .7320404L.36999513 .7480469Z"/>
<path id="font_2_14" d="M.28799439 .5019531C.12799073 .5019531 .04899597 .40698243 .04899597 .24510193 .04899597 .083236698 .12799073-.01171875 .28799439-.01171875 .44999696-.01171875 .5279999 .083236698 .5279999 .24510193 .5279999 .40698243 .44999696 .5019531 .28799439 .5019531M.15299988 .24510193C.15299988 .38301087 .19699097 .46694947 .28799439 .46694947 .3809967 .46694947 .42399598 .38301087 .42399598 .24510193 .42399598 .10720825 .3809967 .023269654 .28799439 .023269654 .19699097 .023269654 .15299988 .10720825 .15299988 .24510193Z"/>
<path id="font_2_11" d="M.20098877 .45022584H.32299806V.49023438H.20098877L.19699097 .60220339C.19400025 .6971741 .22898865 .70718386 .24499512 .70718386 .2659912 .70718386 .28799439 .6971741 .31298829 .6391907 .31799317 .62919619 .32499696 .6221924 .33999635 .6221924 .3600006 .6221924 .3889923 .6391907 .3889923 .66918948 .3889923 .70217898 .34700013 .7421875 .2669983 .7421875 .21199036 .7421875 .16499329 .71717837 .13999939 .67918398 .116989139 .64419558 .10699463 .5912018 .10699463 .5252228V.49023438H.02999878V.45022584H.10699463V.087020877C.10699463 .035995485 .10398865 .033996583 .03199768 .0289917V0H.29599V.0289917C.20498657 .032989503 .20098877 .034988405 .20098877 .08602905V.45022584Z"/>
<path id="font_2_18" d="M.08898926 .47218324C.13899231 .5181732 .20698548 .58517459 .20698548 .6561737 .20698548 .71017459 .1749878 .7431793 .14199829 .7421875 .11199951 .7421875 .09399414 .72117617 .09399414 .69418337 .09399414 .6581726 .1269989 .6371765 .1269989 .60017397 .1269989 .56217959 .102996829 .5241852 .07199097 .48817445L.08898926 .47218324M.2689972 .47218324C.31900025 .5181732 .3869934 .58517459 .3869934 .6561737 .3869934 .71017459 .35499574 .7431793 .32199098 .7421875 .2919922 .7421875 .27398683 .72117617 .27398683 .69418337 .27398683 .6581726 .30699159 .6371765 .30699159 .60017397 .30699159 .56217959 .2829895 .5241852 .2519989 .48817445L.2689972 .47218324Z"/>
<path id="font_2_13" d="M.5289917 .34295655C.5289917 .4439392 .47399903 .5019531 .38198854 .5019531 .30799867 .5019531 .2619934 .46594239 .19999695 .4259491L.18598938 .5019531 .036987306 .47694398V.45195008L.07499695 .4469452C.100997928 .4429474 .10699463 .4379425 .10699463 .40194703V.08699036C.10699463 .035995485 .10398865 .033996583 .03199768 .0289917V0H.27598573V.0289917C.20498657 .033996583 .20098877 .035995485 .20098877 .08699036V.32095338C.20098877 .34596253 .20298767 .35995484 .21099854 .37594605 .23199463 .4149475 .2769928 .44795228 .32998658 .44795228 .397995 .44795228 .43499757 .40994264 .43499757 .32295228V.08699036C.43499757 .035995485 .43199159 .033996583 .3600006 .0289917V0H.60398867V.0289917C.5329895 .033996583 .5289917 .035995485 .5289917 .08699036V.34295655Z"/>
<path id="font_2_16" d="M.36698915 .35102845V.46794129C.33399964 .49194337 .2829895 .5019531 .23799134 .5019531 .12998963 .5019531 .056991579 .45095826 .055999757 .35603334 .056991579 .27308656 .12399292 .2361145 .20698548 .21113587 .2519989 .19714356 .31498719 .17416382 .31498719 .10621643 .31498719 .055252077 .2749939 .023269654 .22200012 .023269654 .14099121 .023269654 .09599304 .082229617 .07598877 .16716004H.04699707L.056991579 .03627014C.09298706 .004272461 .1539917-.01171875 .21299744-.01171875 .33198548-.01171875 .3999939 .051254274 .3999939 .13618469 .3999939 .2241211 .34599305 .26409913 .24299622 .29606629 .20199585 .30906678 .13598633 .3300476 .13598633 .3860016 .13699341 .43795777 .17599488 .46694947 .22599793 .46694947 .29699708 .46694947 .33099366 .4119873 .33799745 .35102845H.36698915Z"/>
<path id="font_3_1" d="M.07998657 .28173829C.07998657 .24674988 .10798645 .21875 .14299011 .21875 .17799378 .21875 .20599365 .24674988 .20599365 .28173829 .20599365 .31674195 .17799378 .34474183 .14299011 .34474183 .10798645 .34474183 .07998657 .31674195 .07998657 .28173829Z"/>
</defs>
<path transform="matrix(1.00005,0,0,-1.00006,24.320664,41.064683)" d="M-19.84267-39.68535V39.68535H31.16858V-39.68535ZM31.16858 39.68535" fill="#d9d9ff"/>
<path transform="matrix(1.00005,0,0,-1.00006,24.320664,41.064683)" d="M31.16858-39.68535V39.68535H99.2134V-39.68535ZM99.2134 39.68535" fill="#d9f0d9"/>
<path transform="matrix(1.00005,0,0,-1.00006,24.320664,41.064683)" stroke-width=".3985" stroke-linecap="butt" stroke-miterlimit="10" stroke-linejoin="miter" fill="none" stroke="#000000" d="M-19.84267 0H98.75511"/>
<path transform="matrix(1.00005,0,0,-1.00006,123.08071,41.064683)" stroke-width=".31879" stroke-linecap="round" stroke-linejoin="round" fill="none" stroke="#000000" d="M-1.19551 1.59401C-1.09587 .99626 0 .09961 .29886 0 0-.09961-1.09587-.99626-1.19551-1.59401"/>
<path transform="matrix(1.00005,0,0,-1.00006,24.320664,41.064683)" stroke-width=".3985" stroke-linecap="butt" stroke-miterlimit="10" stroke-linejoin="miter" fill="none" stroke="#000000" d="M0-39.68535V39.22707"/>
<path transform="matrix(0,-1.00006,-1.00005,-0,24.320664,1.8352585)" stroke-width=".31879" stroke-linecap="round" stroke-linejoin="round" fill="none" stroke="#000000" d="M-1.19551 1.59401C-1.09587 .99626 0 .09961 .29886 0 0-.09961-1.09587-.99626-1.19551-1.59401"/>
<use data-text="t" xlink:href="#font_1_1" transform="matrix(7.332866,0,0,-7.3329398,119.99144,48.983156)"/>
<path transform="matrix(1.00005,0,0,-1.00006,24.320664,41.064683)" stroke-width=".3985" stroke-linecap="butt" stroke-miterlimit="10" stroke-linejoin="miter" fill="none" stroke="#929292" d="M-19.84267 1.98438V-1.98438"/>
<use data-text="-" xlink:href="#font_2_3" transform="matrix(7.332866,0,0,-7.3329398,1.0935059,50.961275)"/>
<use data-text="1" xlink:href="#font_2_6" transform="matrix(7.332866,0,0,-7.3329398,3.9679948,50.961275)"/>
<path transform="matrix(1.00005,0,0,-1.00006,24.320664,41.064683)" stroke-width=".3985" stroke-linecap="butt" stroke-miterlimit="10" stroke-linejoin="miter" fill="none" stroke="#929292" d="M0 1.98438V-1.98438"/>
<use data-text="0" xlink:href="#font_2_5" transform="matrix(7.332866,0,0,-7.3329398,22.375565,50.961275)"/>
<path transform="matrix(1.00005,0,0,-1.00006,24.320664,41.064683)" stroke-width=".3985" stroke-linecap="butt" stroke-miterlimit="10" stroke-linejoin="miter" fill="none" stroke="#929292" d="M19.84267 1.98438V-1.98438"/>
<use data-text="1" xlink:href="#font_2_6" transform="matrix(7.332866,0,0,-7.3329398,42.21956,50.961275)"/>
<path transform="matrix(1.00005,0,0,-1.00006,24.320664,41.064683)" stroke-width=".3985" stroke-linecap="butt" stroke-miterlimit="10" stroke-linejoin="miter" fill="none" stroke="#929292" d="M31.16858 1.98438V-1.98438"/>
<use data-text="p" xlink:href="#font_2_15" transform="matrix(7.332866,0,0,-7.3329398,48.563875,51.240297)"/>
<use data-text="i" xlink:href="#font_2_12" transform="matrix(7.332866,0,0,-7.3329398,53.022256,51.240297)"/>
<use data-text="/" xlink:href="#font_2_4" transform="matrix(7.332866,0,0,-7.3329398,55.15612,51.240297)"/>
<use data-text="2" xlink:href="#font_2_7" transform="matrix(7.332866,0,0,-7.3329398,58.529237,51.240297)"/>
<path transform="matrix(1.00005,0,0,-1.00006,24.320664,41.064683)" stroke-width=".3985" stroke-linecap="butt" stroke-miterlimit="10" stroke-linejoin="miter" fill="none" stroke="#929292" d="M59.52802 1.98438V-1.98438"/>
<use data-text="3" xlink:href="#font_2_8" transform="matrix(7.332866,0,0,-7.3329398,81.90654,50.961275)"/>
<path transform="matrix(1.00005,0,0,-1.00006,24.320664,41.064683)" stroke-width=".3985" stroke-linecap="butt" stroke-miterlimit="10" stroke-linejoin="miter" fill="none" stroke="#929292" d="M79.37071 1.98438V-1.98438"/>
<use data-text="4" xlink:href="#font_2_9" transform="matrix(7.332866,0,0,-7.3329398,101.750537,50.961275)"/>
<path transform="matrix(1.00005,0,0,-1.00006,24.320664,41.064683)" stroke-width=".3985" stroke-linecap="butt" stroke-miterlimit="10" stroke-linejoin="miter" fill="none" stroke="#929292" d="M99.2134 1.98438V-1.98438"/>
<use data-text="5" xlink:href="#font_2_10" transform="matrix(7.332866,0,0,-7.3329398,121.59452,50.961275)"/>
<path transform="matrix(1.00005,0,0,-1.00006,24.320664,41.064683)" stroke-width="1.19553" stroke-linecap="butt" stroke-miterlimit="10" stroke-linejoin="miter" fill="none" stroke="#0000ff" d="M-19.84267 0H-19.59135-19.34006-19.08875-18.83745-18.58615-18.33484-18.08354-17.83223-17.58093-17.32962-17.07832-16.82701-16.57571-16.3244-16.0731-15.82181-15.5705-15.31921-15.06789-14.81659-14.56528-14.31398-14.06268-13.81139-13.56006-13.30876-13.05748-12.80617-12.55487-12.30354-12.05225-11.80095-11.54965-11.29834-11.04704-10.79573-10.54443-10.29314-10.04182-9.79053-9.53922-9.28792-9.0366-8.78531-8.534-8.2827-8.0314-7.78009-7.5288-7.27748-7.02618-6.77487-6.52357-6.27228-6.02097-5.76965-5.51836-5.26706-5.01576-4.76447-4.51314-4.26184-4.01054-3.75925-3.50793-3.25662-3.00531-2.75403-2.50273-2.25142-2.00012-1.74881-1.49751-1.2462-.9949-.74359-.4923-.24098 .01027 .26158 .51288 .76418 1.01549 1.26678 1.5181 1.7694 2.0207 2.272 2.52332 2.77461 3.02591 3.27722 3.52852 3.77983 4.03113 4.28244 4.53374 4.78505 5.03633 5.28764 5.53896 5.79025 6.04156 6.29285 6.54417 6.79547 7.04678 7.29807 7.54938 7.80067 8.05199 8.3033 8.55458 8.8059 9.05719 9.30852 9.5598 9.81111 10.06241 10.31372 10.56502 10.81631 11.06763 11.31892 11.57024 11.82153 12.07285 12.32414 12.57545 12.82675 13.07806 13.32936 13.58066 13.83197 14.08325 14.33458 14.58588 14.83719 15.08849 15.33978 15.5911 15.8424 16.0937 16.34499 16.5963 16.8476 17.09892 17.35022 17.60152 17.85281 18.10413 18.35544 18.60672 18.85803 19.10933 19.36064 19.61194 19.86325 20.11455 20.36586 20.61716 20.86847 21.11977 21.37106 21.62238 21.87367 22.12498 22.37628 22.6276 22.87889 23.13019 23.3815 23.63281 23.88411 24.13539 24.3867 24.63802 24.88933 25.14063 25.39192 25.64322 25.89453 26.14584 26.39714 26.64844 26.89973 27.15105 27.40236 27.65366 27.90495 28.15627 28.40756 28.65887 28.91017 29.16148 29.41278 29.66408 29.91539 30.16669"/>
<path transform="matrix(1.00005,0,0,-1.00006,24.320664,41.064683)" stroke-width=".79701" stroke-linecap="butt" stroke-dasharray="2.98883,2.98883" stroke-miterlimit="10" stroke-linejoin="miter" fill="none" stroke="#8080ff" d="M-19.84267-16.69621-19.59135-16.55905-19.34006-16.41948-19.08875-16.27718-18.83745-16.13185-18.58615-15.98439-18.33484-15.83482-18.08354-15.68132-17.83223-15.52629-17.58093-15.36826-17.32962-15.20839-17.07832-15.0458-16.82701-14.88078-16.57571-14.71335-16.3244-14.5435-16.0731-14.37122-15.82181-14.19711-15.5705-14.0206-15.31921-13.84135-15.06789-13.65999-14.81659-13.47711-14.56528-13.2915-14.31398-13.10379-14.06268-12.91396-13.81139-12.72261-13.56006-12.52852-13.30876-12.33232-13.05748-12.13492-12.80617-11.93538-12.55487-11.73312-12.30354-11.52966-12.05225-11.32408-11.80095-11.11699-11.54965-10.90776-11.29834-10.69704-11.04704-10.48479-10.79573-10.27042-10.54443-10.05453-10.29314-9.83714-10.04182-9.61855-9.79053-9.39752-9.53922-9.17528-9.28792-8.95213-9.0366-8.72717-8.78531-8.5007-8.534-8.2727-8.2827-8.04381-8.0314-7.8134-7.78009-7.58179-7.5288-7.34894-7.27748-7.1152-7.02618-6.87965-6.77487-6.64377-6.52357-6.40639-6.27228-6.16782-6.02097-5.92863-5.76965-5.68822-5.51836-5.4469-5.26706-5.205-5.01576-4.96185-4.76447-4.71843-4.51314-4.47379-4.26184-4.22885-4.01054-3.98268-3.75925-3.73653-3.50793-3.48917-3.25662-3.2415-3.00531-2.99352-2.75403-2.74464-2.50273-2.49574-2.25142-2.24596-2.00012-1.99649-1.74881-1.74608-1.49751-1.496-1.2462-1.2453-.9949-.99399-.74359-.743-.4923-.49199-.24098-.24098 .01027 .01027 .26158 .26158 .51288 .51257 .76418 .76357 1.01549 1.01459 1.26678 1.2656 1.5181 1.51628 1.7694 1.76668 2.0207 2.01677 2.272 2.26656 2.52332 2.51604 2.77461 2.76521 3.02591 3.0138 3.27722 3.26208 3.52852 3.50975 3.77983 3.7568 4.03113 4.00296 4.28244 4.24883 4.53374 4.49408 4.78505 4.7381 5.03633 4.98184 5.28764 5.22467 5.53896 5.46689 5.79025 5.70792 6.04156 5.9483 6.29285 6.1875 6.54417 6.42609 6.79547 6.66286 7.04678 6.89902 7.29807 7.13426 7.54938 7.36801 7.80067 7.60056 8.05199 7.83217 8.3033 8.06288 8.55458 8.29149 8.8059 8.51886 9.05719 8.74565 9.30852 8.9706 9.5598 9.19376 9.81111 9.41539 10.06241 9.6364 10.31372 9.85501 10.56502 10.07242 10.81631 10.28828 11.06763 10.50233 11.31892 10.71458 11.57024 10.92471 11.82153 11.13394 12.07285 11.34134 12.32414 11.54633 12.57545 11.74948 12.82675 11.95143 13.07806 12.15097 13.32936 12.34836 13.58066 12.54425 13.83197 12.73834 14.08325 12.92969 14.33458 13.11923 14.58588 13.30695 14.83719 13.49225 15.08849 13.67513 15.33978 13.85619 15.5911 14.03543 15.8424 14.21164 16.0937 14.38574 16.34499 14.5574 16.5963 14.72728 16.8476 14.8941 17.09892 15.0588 17.35022 15.22171 17.60152 15.38156 17.85281 15.53902 18.10413 15.69403 18.35544 15.84723 18.60672 15.9965 18.85803 16.14366 19.10933 16.28899 19.36064 16.43127 19.61194 16.57025 19.86325 16.70712 20.11455 16.84216 20.36586 16.97327 20.61716 17.10164 20.86847 17.22789 21.11977 17.35173 21.37106 17.47162 21.62238 17.58911 21.87367 17.70445 22.12498 17.81648 22.37628 17.92517 22.6276 18.03175 22.87889 18.13562 23.13019 18.23552 23.3815 18.33302 23.63281 18.42809 23.88411 18.52014 24.13539 18.60825 24.3867 18.69392 24.63802 18.77719 24.88933 18.85681 25.14063 18.93283 25.39192 19.0067 25.64322 19.07785 25.89453 19.14507 26.14584 19.20956 26.39714 19.27103 26.64844 19.32945 26.89973 19.38426 27.15105 19.43633 27.40236 19.48569 27.65366 19.53171 27.90495 19.57379 28.15627 19.61346 28.40756 19.6504 28.65887 19.6834 28.91017 19.71336 29.16148 19.74063 29.41278 19.76424 29.66408 19.78453 29.91539 19.80179 30.16669 19.81662"/>
<path transform="matrix(1.00005,0,0,-1.00006,24.320664,41.064683)" stroke-width="1.19553" stroke-linecap="butt" stroke-miterlimit="10" stroke-linejoin="miter" fill="none" stroke="#009900" d="M31.16858 19.84236 31.5104 19.83965 31.85225 19.83055 32.19408 19.8157 32.5359 19.79512 32.87773 19.76848 33.21957 19.73639 33.5614 19.69824 33.90323 19.65402 34.24507 19.60406 34.58691 19.54836 34.92874 19.48691 35.27057 19.41968 35.61241 19.3464 35.95424 19.26799 36.29607 19.18321 36.63791 19.09268 36.97975 18.99701 37.32158 18.89558 37.6634 18.7887 38.00525 18.67578 38.34708 18.5577 38.6889 18.43385 39.03073 18.30457 39.37257 18.16982 39.7144 18.02995 40.05623 17.88431 40.39807 17.73383 40.7399 17.5779 41.08174 17.41682 41.42357 17.25061 41.76541 17.07893 42.10724 16.9024 42.44907 16.72104 42.7909 16.53423 43.13274 16.34288 43.47458 16.14668 43.8164 15.94594 44.15825 15.74007 44.50008 15.52933 44.8419 15.31435 45.18373 15.09454 45.52557 14.8705 45.86742 14.64218 46.20924 14.40935 46.55109 14.1723 46.89291 13.93098 47.23474 13.68573 47.57657 13.43593 47.91841 13.18253 48.26024 12.92516 48.60207 12.66386 48.94391 12.39894 49.28574 12.13007 49.62756 11.85817 49.96939 11.58205 50.31125 11.30257 50.65308 11.0201 50.9949 10.73457 51.33675 10.44542 51.67857 10.15355 52.0204 9.85803 52.36223 9.5601 52.70409 9.25885 53.04591 8.95546 53.38774 8.64906 53.72957 8.34023 54.07141 8.02896 54.41324 7.715 54.75507 7.39859 55.09691 7.08067 55.43874 6.76035 55.78056 6.4379 56.12239 6.11392 56.46423 5.78783 56.80606 5.45961 57.14789 5.13051 57.48975 4.79927 57.83157 4.46712 58.1734 4.13347 58.51523 3.7986 58.85707 3.46222 59.1989 3.12523 59.54074 2.78732 59.88258 2.44821 60.22441 2.10881 60.56624 1.76878 60.90807 1.42787 61.24991 1.08694 61.59174 .7454 61.93358 .40388 62.27542 .06204 62.61725-.27943 62.95908-.62097 63.3009-.96251 63.64275-1.30373 63.98457-1.64496 64.3264-1.98497 64.66823-2.32498 65.01007-2.6641 65.3519-3.0023 65.69373-3.3396 66.03557-3.67596 66.3774-4.01175 66.71924-4.34572 67.06107-4.67816 67.40291-5.01 67.74474-5.34004 68.08656-5.66853 68.4284-5.99493 68.77023-6.32011 69.11208-6.64317 69.4539-6.96411 69.79575-7.28323 70.13757-7.59995 70.4794-7.91483 70.82124-8.22699 71.16307-8.53674 71.5049-8.84404 71.84673-9.14864 72.18857-9.4505 72.5304-9.74995 72.87222-10.04607 73.21407-10.33945 73.55591-10.6295 73.89774-10.91653 74.23956-11.20023 74.5814-11.48062 74.92323-11.75795 75.26506-12.03168 75.60689-12.30144 75.94875-12.56787 76.29057-12.83069 76.6324-13.08926 76.97424-13.3445 77.31607-13.5952 77.6579-13.84225 77.99973-14.08508 78.34158-14.32367 78.68341-14.55832 79.02524-14.78813 79.36708-15.01399 79.70891-15.23503 80.05074-15.45181 80.39256-15.66437 80.7344-15.87177 81.07623-16.07433 81.41806-16.27234 81.7599-16.46552 82.10173-16.65414 82.44356-16.83733 82.7854-17.01564 83.12724-17.18915 83.46907-17.3572 83.8109-17.52066 84.15273-17.67812 84.49457-17.83072 84.8364-17.97787 85.17824-18.11987 85.52008-18.25642 85.86191-18.38753 86.20374-18.51347 86.54556-18.63399 86.8874-18.74843 87.22923-18.85773 87.57106-18.96098 87.9129-19.05878 88.25473-19.15082 88.59656-19.23772 88.93839-19.31825 89.28023-19.39334 89.62206-19.46298 89.9639-19.52657 90.30574-19.58438 90.64757-19.63617 90.9894-19.6825 91.33122-19.72246 91.67307-19.75697 92.01491-19.78574 92.35674-19.80814 92.69858-19.82541 93.0404-19.8363 93.38223-19.84145 93.72406-19.84053 94.0659-19.83388 94.40775-19.82115 94.74957-19.8027 95.0914-19.77817 95.43324-19.7479 95.77507-19.71216 96.1169-19.67007 96.45874-19.62224 96.80057-19.56895 97.1424-19.5096 97.48422-19.4445 97.82607-19.37337 98.1679-19.29646 98.50972-19.2144 98.85156-19.12599 99.1934-19.03214"/>
<path transform="matrix(1.00005,0,0,-1.00006,24.320664,41.064683)" stroke-width=".79701" stroke-linecap="butt" stroke-dasharray="2.98883,2.98883" stroke-miterlimit="10" stroke-linejoin="miter" fill="none" stroke="#80cc80" d="M31.16858 19.84267H31.5104 31.85225 32.19408 32.5359 32.87773 33.21957 33.5614 33.90323 34.24507 34.58691 34.92874 35.27057 35.61241 35.95424 36.29607 36.63791 36.97975 37.32158 37.6634 38.00525 38.34708 38.6889 39.03073 39.37257 39.7144 40.05623 40.39807 40.7399 41.08174 41.42357 41.76541 42.10724 42.44907 42.7909 43.13274 43.47458 43.8164 44.15825 44.50008 44.8419 45.18373 45.52557 45.86742 46.20924 46.55109 46.89291 47.23474 47.57657 47.91841 48.26024 48.60207 48.94391 49.28574 49.62756 49.96939 50.31125 50.65308 50.9949 51.33675 51.67857 52.0204 52.36223 52.70409 53.04591 53.38774 53.72957 54.07141 54.41324 54.75507 55.09691 55.43874 55.78056 56.12239 56.46423 56.80606 57.14789 57.48975 57.83157 58.1734 58.51523 58.85707 59.1989 59.54074 59.88258 60.22441 60.56624 60.90807 61.24991 61.59174 61.93358 62.27542 62.61725 62.95908 63.3009 63.64275 63.98457 64.3264 64.66823 65.01007 65.3519 65.69373 66.03557 66.3774 66.71924 67.06107 67.40291 67.74474 68.08656 68.4284 68.77023 69.11208 69.4539 69.79575 70.13757 70.4794 70.82124 71.16307 71.5049 71.84673 72.18857 72.5304 72.87222 73.21407 73.55591 73.89774 74.23956 74.5814 74.92323 75.26506 75.60689 75.94875 76.29057 76.6324 76.97424 77.31607 77.6579 77.99973 78.34158 78.68341 79.02524 79.36708 79.70891 80.05074 80.39256 80.7344 81.07623 81.41806 81.7599 82.10173 82.44356 82.7854 83.12724 83.46907 83.8109 84.15273 84.49457 84.8364 85.17824 85.52008 85.86191 86.20374 86.54556 86.8874 87.22923 87.57106 87.9129 88.25473 88.59656 88.93839 89.28023 89.62206 89.9639 90.30574 90.64757 90.9894 91.33122 91.67307 92.01491 92.35674 92.69858 93.0404 93.38223 93.72406 94.0659 94.40775 94.74957 95.0914 95.43324 95.77507 96.1169 96.45874 96.80057 97.1424 97.48422 97.82607 98.1679 98.50972 98.85156 99.1934"/>
<path transform="matrix(1.00005,0,0,-1.00006,24.320664,41.064683)" stroke-width=".79701" stroke-linecap="butt" stroke-miterlimit="10" stroke-linejoin="miter" fill="none" stroke="#0000ff" d="M33.26076 0C33.26076 1.15549 32.32407 2.09216 31.16858 2.09216 30.01309 2.09216 29.0764 1.15549 29.0764 0 29.0764-1.15549 30.01309-2.09216 31.16858-2.09216 32.32407-2.09216 33.26076-1.15549 33.26076 0ZM31.16858 0"/>
<path transform="matrix(1.00005,0,0,-1.00006,24.320664,41.064683)" d="M33.26076 19.84236C33.26076 20.99785 32.32407 21.93452 31.16858 21.93452 30.01309 21.93452 29.0764 20.99785 29.0764 19.84236 29.0764 18.68687 30.01309 17.75018 31.16858 17.75018 32.32407 17.75018 33.26076 18.68687 33.26076 19.84236ZM31.16858 19.84236" fill="#009900"/>
<use data-text="u" xlink:href="#font_1_2" transform="matrix(7.332866,0,0,-7.3329398,17.281311,6.988636)" fill="#0000ff"/>
<use data-text="(" xlink:href="#font_2_1" transform="matrix(7.332866,0,0,-7.3329398,22.214554,6.988636)" fill="#0000ff"/>
<use data-text="t" xlink:href="#font_1_1" transform="matrix(7.332866,0,0,-7.3329398,24.94069,6.988636)" fill="#0000ff"/>
<use data-text=")" xlink:href="#font_2_2" transform="matrix(7.332866,0,0,-7.3329398,28.224854,6.988636)" fill="#0000ff"/>
<use data-text="=" xlink:href="#font_3_2" transform="matrix(7.332866,0,0,-7.3329398,32.155046,6.988636)" fill="#0000ff"/>
<use data-text="0" xlink:href="#font_2_5" transform="matrix(7.332866,0,0,-7.3329398,38.79538,6.988636)" fill="#0000ff"/>
<use data-text="u" xlink:href="#font_1_2" transform="matrix(7.332866,0,0,-7.3329398,76.81229,6.988636)" fill="#009900"/>
<use data-text="(" xlink:href="#font_2_1" transform="matrix(7.332866,0,0,-7.3329398,81.74553,6.988636)" fill="#009900"/>
<use data-text="t" xlink:href="#font_1_1" transform="matrix(7.332866,0,0,-7.3329398,84.471668,6.988636)" fill="#009900"/>
<use data-text=")" xlink:href="#font_2_2" transform="matrix(7.332866,0,0,-7.3329398,87.75583,6.988636)" fill="#009900"/>
<use data-text="=" xlink:href="#font_3_2" transform="matrix(7.332866,0,0,-7.3329398,91.68602,6.988636)" fill="#009900"/>
<use data-text="1" xlink:href="#font_2_6" transform="matrix(7.332866,0,0,-7.3329398,98.326358,6.988636)" fill="#009900"/>
<use data-text="&#x201c;" xlink:href="#font_2_17" transform="matrix(7.332866,0,0,-7.3329398,22.23256,77.31386)" fill="#0000ff"/>
<use data-text="o" xlink:href="#font_2_14" transform="matrix(7.332866,0,0,-7.3329398,25.00438,77.31386)" fill="#0000ff"/>
<use data-text="f" xlink:href="#font_2_11" transform="matrix(7.332866,0,0,-7.3329398,29.235444,77.31386)" fill="#0000ff"/>
<use data-text="f" xlink:href="#font_2_11" transform="matrix(7.332866,0,0,-7.3329398,31.574624,77.31386)" fill="#0000ff"/>
<use data-text="&#x201d;" xlink:href="#font_2_18" transform="matrix(7.332866,0,0,-7.3329398,34.37577,77.31386)" fill="#0000ff"/>
<use data-text="&#x201c;" xlink:href="#font_2_17" transform="matrix(7.332866,0,0,-7.3329398,82.36556,77.31386)" fill="#009900"/>
<use data-text="o" xlink:href="#font_2_14" transform="matrix(7.332866,0,0,-7.3329398,85.13738,77.31386)" fill="#009900"/>
<use data-text="n" xlink:href="#font_2_13" transform="matrix(7.332866,0,0,-7.3329398,89.36845,77.31386)" fill="#009900"/>
<use data-text="&#x201d;" xlink:href="#font_2_18" transform="matrix(7.332866,0,0,-7.3329398,93.31353,77.31386)" fill="#009900"/>
<use data-text="(" xlink:href="#font_2_1" transform="matrix(7.332866,0,0,-7.3329398,44.47467,27.35286)"/>
<use data-text="s" xlink:href="#font_2_16" transform="matrix(7.332866,0,0,-7.3329398,47.040803,27.286856)"/>
<use data-text="i" xlink:href="#font_2_12" transform="matrix(7.332866,0,0,-7.3329398,50.23793,27.286856)"/>
<use data-text="n" xlink:href="#font_2_13" transform="matrix(7.332866,0,0,-7.3329398,52.371797,27.286856)"/>
<use data-text="t" xlink:href="#font_1_1" transform="matrix(7.332866,0,0,-7.3329398,57.847337,27.286856)"/>
<use data-text=")" xlink:href="#font_2_2" transform="matrix(7.332866,0,0,-7.3329398,61.1305,27.35286)"/>
<use data-text="(" xlink:href="#font_2_1" transform="matrix(7.332866,0,0,-7.3329398,84.16165,27.35286)"/>
<use data-text="s" xlink:href="#font_2_16" transform="matrix(7.332866,0,0,-7.3329398,86.72778,27.286856)"/>
<use data-text="i" xlink:href="#font_2_12" transform="matrix(7.332866,0,0,-7.3329398,89.92491,27.286856)"/>
<use data-text="n" xlink:href="#font_2_13" transform="matrix(7.332866,0,0,-7.3329398,92.05878,27.286856)"/>
<use data-text="t" xlink:href="#font_1_1" transform="matrix(7.332866,0,0,-7.3329398,97.53432,27.286856)"/>
<use data-text=")" xlink:href="#font_2_2" transform="matrix(7.332866,0,0,-7.3329398,100.81749,27.35286)"/>
<use data-text="&#x00b7;" xlink:href="#font_3_1" transform="matrix(7.332866,0,0,-7.3329398,31.277012,27.227852)" fill="#0000ff"/>
<use data-text="0" xlink:href="#font_2_5" transform="matrix(7.332866,0,0,-7.3329398,33.317113,27.227852)" fill="#0000ff"/>
<use data-text="&#x00b7;" xlink:href="#font_3_1" transform="matrix(7.332866,0,0,-7.3329398,110.65198,27.247853)" fill="#009900"/>
<use data-text="1" xlink:href="#font_2_6" transform="matrix(7.332866,0,0,-7.3329398,112.69208,27.247853)" fill="#009900"/>
<path transform="matrix(1.00005,0,0,-1.00006,24.320664,41.064683)" stroke-width=".3985" stroke-linecap="butt" stroke-miterlimit="10" stroke-linejoin="miter" fill="none" stroke="#000000" d="M9.92133 9.92133V1.45045"/>
<path transform="matrix(0,1.00006,1.00005,0,34.24249,39.614145)" stroke-width=".31879" stroke-linecap="round" stroke-linejoin="round" fill="none" stroke="#000000" d="M-1.19551 1.59401C-1.09587 .99626 0 .09961 .29886 0 0-.09961-1.09587-.99626-1.19551-1.59401"/>
<path transform="matrix(1.00005,0,0,-1.00006,24.320664,41.064683)" stroke-width=".3985" stroke-linecap="butt" stroke-miterlimit="10" stroke-linejoin="miter" fill="none" stroke="#000000" d="M89.29204 10.91353V-7.47865"/>
<path transform="matrix(0,1.00006,1.00005,0,113.617168,48.54378)" stroke-width=".31879" stroke-linecap="round" stroke-linejoin="round" fill="none" stroke="#000000" d="M-1.19551 1.59401C-1.09587 .99626 0 .09961 .29886 0 0-.09961-1.09587-.99626-1.19551-1.59401"/>
</svg>
