<svg xmlns="http://www.w3.org/2000/svg" xmlns:xlink="http://www.w3.org/1999/xlink" version="1.1" width="167" height="114" viewBox="0 0 167 114">
<defs>
<path id="font_1_7" d="M.4850006 .13195801 .45700074 .13696289C.43598939 .08299255 .41600038 .07598877 .37599183 .07598877H.11999512C.13598633 .1279602 .19499207 .19892884 .28799439 .2658844 .38398744 .33584596 .45799256 .38082887 .45799256 .49276734 .45799256 .63168337 .3659973 .6796875 .26098634 .6796875 .12399292 .6796875 .052993776 .5967102 .052993776 .54473879 .052993776 .51075747 .09098816 .49476625 .10798645 .49476625 .12599182 .49476625 .1329956 .50476077 .13699341 .5217438 .15299988 .5897064 .19198609 .64468386 .2539978 .64468386 .33099366 .64468386 .35299684 .5797119 .35299684 .50675967 .35299684 .3998108 .29899598 .33984376 .21199036 .26289369 .08898926 .15594483 .04598999 .08798218 .026992798 .009994507L.036987306 0H.45098878L.4850006 .13195801Z"/>
<path id="font_1_8" d="M.2999878 .17871094V.0769043C.2999878 .04296875 .2889862 .036987306 .2649994 .034988405L.20098877 .0289917V0H.46499635V.0289917L.41999818 .033981325C.39698792 .036987306 .3899994 .04296875 .3899994 .0769043V.17871094H.49299623V.22570801H.3899994V.66796877H.31698609C.22299195 .5298767 .11099243 .35577394 .018997193 .19970703L.027999878 .17871094H.2999878M.09098816 .22570801C.15098572 .33476258 .22099304 .4498291 .2979889 .5709076H.2999878V.22570801H.09098816Z"/>
<path id="font_2_1" d="M.42799378 .45222474 .43899537 .49023438H.31199647L.34599305 .6092224 .33399964 .6162262 .23699951 .53923037 .22399903 .49023438H.14299011L.13198853 .45222474H.21499634L.125 .08627319C.10998535 .029266358 .12199402-.01171875 .17199707-.01171875 .2519989-.01171875 .31599427 .054275514 .35598756 .1292572L.33399964 .1462555C.31098939 .10726929 .2599945 .040267946 .22898865 .040267946 .20799256 .040267946 .20799256 .0632782 .21398926 .088272098L.30299378 .45222474H.42799378Z"/>
<path id="font_3_1" d="M.6349945 .2529297V.31092835H.084991458V.2529297H.6349945Z"/>
<path id="font_2_2" d="M.070999149 .45393373 .07398987 .42893983 .14199829 .43093873C.1639862 .43193055 .16899109 .41493226 .1769867 .36291505 .18798828 .28489686 .20999146 .09286499 .20999146 .0128479 .20999146-.017166138 .20799256-.058166505 .18598938-.11117554 .16799927-.15318299 .14199829-.18218994 .12199402-.18218994 .10699463-.18218994 .09599304-.17118836 .08099365-.15118408 .068984989-.13517761 .06098938-.127182 .04598999-.127182 .019989014-.12818909-.005004883-.15818787-.005004883-.18719483-.005004883-.21418762 .023986817-.2421875 .067993167-.2421875 .15299988-.2421875 .18998719-.17919922 .27799989-.027160645 .2979889 .0068511965 .35798646 .11286926 .41999818 .21488953 .47698976 .30891419 .5399933 .40592958 .5399933 .4459381 .5399933 .48094178 .5289917 .5019531 .5219879 .5019531 .5029907 .5019531 .46899415 .49394227 .44400025 .47694398 .44499208 .4419403 .44299317 .3809204 .43099977 .33891297 .4149933 .28289796 .35598756 .17488098 .2899933 .06085205H.2869873C.27999879 .21388245 .26098634 .42492677 .24699402 .49795533L.23899842 .5019531 .070999149 .45393373Z"/>
<path id="font_1_1" d="M.1749878 .2822113C.1749878 .56832888 .2619934 .65437319 .32499696 .66737368V.6923828C.1499939 .685379 .10499573 .46829225 .10499573 .2822113 .10499573 .09614563 .1499939-.12094116 .32499696-.12792969V-.10293579C.2669983-.090927127 .1749878-.0059051516 .1749878 .2822113Z"/>
<path id="font_1_5" d="M.2649994 .64468386C.3600006 .64468386 .3869934 .49682618 .3869934 .33398438 .3869934 .17112732 .3600006 .023269654 .2649994 .023269654 .16999817 .023269654 .14299011 .17112732 .14299011 .33398438 .14299011 .49682618 .16999817 .64468386 .2649994 .64468386M.2649994 .6796875C.099990848 .6796875 .040985109 .53378298 .040985109 .33398438 .040985109 .13417053 .099990848-.01171875 .2649994-.01171875 .42999269-.01171875 .4889984 .13417053 .4889984 .33398438 .4889984 .53378298 .42999269 .6796875 .2649994 .6796875Z"/>
<path id="font_1_3" d="M.069992069-.140625C.11999512-.09362793 .19299317-.027633667 .19299317 .051361085 .19299317 .10636902 .1599884 .1423645 .125 .14137268 .09399414 .14137268 .07598877 .117370609 .07598877 .09136963 .07598877 .055374147 .10899353 .037368776 .10899353-.005630493 .10899353-.04663086 .08299255-.086639408 .050994874-.12162781L.069992069-.140625Z"/>
<path id="font_1_6" d="M.43699647 0V.0289917L.35299684 .035995485C.33198548 .037994386 .31999208 .04598999 .31999208 .08496094V.67367556L.31498719 .6796875 .10899353 .6446991V.6197052L.20199585 .6087036C.21899414 .6067047 .22599793 .5987091 .22599793 .56973269V.08496094C.22599793 .065979007 .22299195 .053985597 .21699524 .04698181 .21199036 .039993287 .20399475 .036987306 .19299317 .035995485L.10899353 .0289917V0H.43699647Z"/>
<path id="font_1_2" d="M.1749878 .2822113C.1749878-.0059051516 .08299255-.090927127 .024993897-.10293579V-.12792969C.19999695-.12094116 .24499512 .09614563 .24499512 .2822113 .24499512 .46829225 .19999695 .685379 .024993897 .6923828V.66737368C.08799744 .65437319 .1749878 .56832888 .1749878 .2822113Z"/>
<path id="font_1_4" d="M.1329956-.01171875C.17199707-.01171875 .19499207 .015274048 .19599915 .05126953 .19599915 .088272098 .17199707 .11627197 .1329956 .11627197 .09498596 .11627197 .069992069 .088272098 .069992069 .05126953 .069992069 .015274048 .09498596-.01171875 .1329956-.01171875Z"/>
<path id="font_1_9" d="M.42599488 .5919647 .44999696 .6599579 .44499208 .66796877H.11099243L.100997928 .65896609 .08099365 .32388307 .10499573 .31188966C.14698792 .35983277 .18798828 .3828125 .24198914 .3828125 .30599977 .3828125 .37599183 .3358612 .37599183 .20404053 .37599183 .10116577 .33399964 .023269654 .24699402 .023269654 .1769867 .023269654 .14099121 .07420349 .12098694 .13113404 .115997318 .14611817 .10699463 .15510559 .09298706 .15510559 .07299805 .15510559 .039993287 .13513184 .039993287 .10217285 .039993287 .056228639 .10998535-.01171875 .23999024-.01171875 .40499879-.01171875 .47999574 .0881958 .47999574 .21502686 .47999574 .35484315 .3919983 .4268036 .272995 .4268036 .21798706 .4268036 .15899658 .4028015 .1269989 .3738098L.125 .37580873 .147995 .56292727C.15098572 .58795168 .1579895 .5919647 .1769867 .5919647H.42599488Z"/>
</defs>
<path transform="matrix(1.00005,0,0,-1,33.62258,52.986)" stroke-width=".3985" stroke-linecap="butt" stroke-miterlimit="10" stroke-linejoin="miter" fill="none" stroke="#cbcbcb" d="M-26.92937-59.24455V48.47295"/>
<path transform="matrix(1.00005,0,0,-1,33.62258,52.986)" stroke-width=".3985" stroke-linecap="butt" stroke-miterlimit="10" stroke-linejoin="miter" fill="none" stroke="#cbcbcb" d="M26.92937-59.24455V48.47295"/>
<path transform="matrix(1.00005,0,0,-1,33.62258,52.986)" stroke-width=".3985" stroke-linecap="butt" stroke-miterlimit="10" stroke-linejoin="miter" fill="none" stroke="#cbcbcb" d="M53.85875-59.24455V48.47295"/>
<path transform="matrix(1.00005,0,0,-1,33.62258,52.986)" stroke-width=".3985" stroke-linecap="butt" stroke-miterlimit="10" stroke-linejoin="miter" fill="none" stroke="#cbcbcb" d="M80.78815-59.24455V48.47295"/>
<path transform="matrix(1.00005,0,0,-1,33.62258,52.986)" stroke-width=".3985" stroke-linecap="butt" stroke-miterlimit="10" stroke-linejoin="miter" fill="none" stroke="#cbcbcb" d="M107.71751-59.24455V48.47295"/>
<path transform="matrix(1.00005,0,0,-1,33.62258,52.986)" stroke-width=".3985" stroke-linecap="butt" stroke-miterlimit="10" stroke-linejoin="miter" fill="none" stroke="#000000" d="M53.85875-1.88524V1.88524"/>
<use data-text="2" xlink:href="#font_1_7" transform="matrix(10.036901,0,0,-10.0364,84.822139,63.105)"/>
<path transform="matrix(1.00005,0,0,-1,33.62258,52.986)" stroke-width=".3985" stroke-linecap="butt" stroke-miterlimit="10" stroke-linejoin="miter" fill="none" stroke="#000000" d="M107.71751-1.88524V1.88524"/>
<use data-text="4" xlink:href="#font_1_8" transform="matrix(10.036901,0,0,-10.0364,138.68384,63.105)"/>
<path transform="matrix(1.00005,0,0,-1,33.62258,52.986)" stroke-width=".3985" stroke-linecap="butt" stroke-miterlimit="10" stroke-linejoin="miter" fill="none" stroke="#000000" d="M-32.31516 0H128.80281"/>
<path transform="matrix(1.00005,0,0,-1,162.43183,52.986)" stroke-width=".31879" stroke-linecap="round" stroke-linejoin="round" fill="none" stroke="#000000" d="M-1.19551 1.59401C-1.09587 .99626 0 .09961 .29886 0 0-.09961-1.09587-.99626-1.19551-1.59401"/>
<use data-text="t" xlink:href="#font_2_1" transform="matrix(10.036901,0,0,-10.0364,160.75293,62.57)"/>
<path transform="matrix(1.00005,0,0,-1,33.62258,52.986)" stroke-width=".3985" stroke-linecap="butt" stroke-miterlimit="10" stroke-linejoin="miter" fill="none" stroke="#cbcbcb" d="M-32.31516-53.85875H129.2611"/>
<path transform="matrix(1.00005,0,0,-1,33.62258,52.986)" stroke-width=".3985" stroke-linecap="butt" stroke-miterlimit="10" stroke-linejoin="miter" fill="none" stroke="#cbcbcb" d="M-32.31516-26.92937H129.2611"/>
<path transform="matrix(1.00005,0,0,-1,33.62258,52.986)" stroke-width=".3985" stroke-linecap="butt" stroke-miterlimit="10" stroke-linejoin="miter" fill="none" stroke="#cbcbcb" d="M-32.31516 26.92937H129.2611"/>
<path transform="matrix(1.00005,0,0,-1,33.62258,52.986)" stroke-width=".3985" stroke-linecap="butt" stroke-miterlimit="10" stroke-linejoin="miter" fill="none" stroke="#000000" d="M-1.88524-53.85875H1.88524"/>
<use data-text="&#x2212;" xlink:href="#font_3_1" transform="matrix(7.332866,0,0,-7.3325,21.056954,109.299999)"/>
<use data-text="2" xlink:href="#font_1_7" transform="matrix(7.332866,0,0,-7.3325,26.334206,109.299999)"/>
<path transform="matrix(1.00005,0,0,-1,33.62258,52.986)" stroke-width=".3985" stroke-linecap="butt" stroke-miterlimit="10" stroke-linejoin="miter" fill="none" stroke="#000000" d="M0-59.24455V48.01466"/>
<path transform="matrix(0,-1,-1.00005,-0,33.62258,4.97134)" stroke-width=".31879" stroke-linecap="round" stroke-linejoin="round" fill="none" stroke="#000000" d="M-1.19551 1.59401C-1.09587 .99626 0 .09961 .29886 0 0-.09961-1.09587-.99626-1.19551-1.59401"/>
<use data-text="y" xlink:href="#font_2_2" transform="matrix(10.036901,0,0,-10.0364,24.605126,5.762001)"/>
<path transform="matrix(1.00005,0,0,-1,33.62258,52.986)" stroke-width="1.59404" stroke-linecap="butt" stroke-miterlimit="10" stroke-linejoin="miter" fill="none" stroke="#000000" d="M-31.237-42.54768-25.58281-39.72057-18.85046-36.3544-12.11812-32.98822-5.38577-29.62206 1.34653-26.25629 8.07887-22.8901 14.81122-19.52394 21.54356-16.15776 28.27591-12.7916 35.00827-9.42543 41.74062-6.05927 48.47295-2.69308 55.20529 .67305 61.93764 4.03922 68.66998 7.4054 75.40233 10.77156 82.13467 14.13774 88.86702 17.5039 95.59937 20.87007 102.33171 24.23625 109.06406 27.60242 115.79642 30.96861 122.52876 34.3348 128.18294 37.1619"/>
<path transform="matrix(-.89440467,.44717,.4471923,.89436,2.3840218,95.533679)" stroke-width="1.27522" stroke-linecap="round" stroke-linejoin="round" fill="none" stroke="#000000" d="M-2.27148 3.02866C-2.0822 1.8929 0 .18927 .56786 0 0-.18927-2.0822-1.8929-2.27148-3.02866"/>
<path transform="matrix(.89440467,-.44717,-.4471923,-.89436,161.81192,15.8241009)" stroke-width="1.27522" stroke-linecap="round" stroke-linejoin="round" fill="none" stroke="#000000" d="M-2.27148 3.02866C-2.0822 1.8929 0 .18927 .56786 0 0-.18927-2.0822-1.8929-2.27148-3.02866"/>
<path transform="matrix(1.00005,0,0,-1,33.62258,52.986)" stroke-width=".3985" stroke-linecap="butt" stroke-miterlimit="10" stroke-linejoin="miter" fill="none" stroke="#000000" d="M21.54356-26.92937"/>
<path transform="matrix(1.00005,0,0,-1,33.62258,52.986)" d="M7.47728-36.90207H35.60985V-27.128628H7.47728Z" fill="#ffffff"/>
<use data-text="(" xlink:href="#font_1_1" transform="matrix(9.166058,0,0,-9.1656,42.097009,87.597)"/>
<use data-text="0" xlink:href="#font_1_5" transform="matrix(9.166058,0,0,-9.1656,45.305124,87.597)"/>
<use data-text="," xlink:href="#font_1_3" transform="matrix(9.166058,0,0,-9.1656,50.16314,87.597)"/>
<use data-text="&#x2212;" xlink:href="#font_3_1" transform="matrix(9.166058,0,0,-9.1656,53.57258,87.597)"/>
<use data-text="1" xlink:href="#font_1_6" transform="matrix(9.166058,0,0,-9.1656,60.167917,87.597)"/>
<use data-text=")" xlink:href="#font_1_2" transform="matrix(9.166058,0,0,-9.1656,65.02593,87.597)"/>
<path transform="matrix(1.00005,0,0,-1,33.62258,52.986)" stroke-width="1.19553" stroke-linecap="butt" stroke-miterlimit="10" stroke-linejoin="miter" fill="none" stroke="#0033cc" d="M0-26.92937V-14.4211"/>
<path transform="matrix(0,-1,-1.00005,-0,33.62258,67.4071)" stroke-width=".9564" stroke-linecap="round" stroke-linejoin="round" fill="none" stroke="#0033cc" d="M-1.91284 2.55046C-1.75343 1.59402 0 .15938 .4782 0 0-.15938-1.75343-1.59402-1.91284-2.55046"/>
<path transform="matrix(1.00005,0,0,-1,33.62258,52.986)" d="M-12.7523-23.30539H-.5977402V-17.088669H-12.7523Z" fill="#ffffff"/>
<use data-text="0" xlink:href="#font_1_5" transform="matrix(9.166058,0,0,-9.1656,20.869942,76.212)" fill="#0033cc"/>
<use data-text="." xlink:href="#font_1_4" transform="matrix(9.166058,0,0,-9.1656,25.727959,76.212)" fill="#0033cc"/>
<use data-text="5" xlink:href="#font_1_9" transform="matrix(9.166058,0,0,-9.1656,28.15696,76.212)" fill="#0033cc"/>
<path transform="matrix(1.00005,0,0,-1,33.62258,52.986)" stroke-width="1.19553" stroke-linecap="butt" stroke-miterlimit="10" stroke-linejoin="miter" fill="none" stroke="#009966" d="M0-13.46468H23.27983"/>
<path transform="matrix(1.00005,0,0,-1,56.903577,66.45068)" stroke-width=".9564" stroke-linecap="round" stroke-linejoin="round" fill="none" stroke="#009966" d="M-1.91284 2.55046C-1.75343 1.59402 0 .15938 .4782 0 0-.15938-1.75343-1.59402-1.91284-2.55046"/>
<path transform="matrix(1.00005,0,0,-1,33.62258,52.986)" d="M9.68721-16.53319H14.54901V-10.39617H9.68721Z" fill="#ffffff"/>
<use data-text="1" xlink:href="#font_1_6" transform="matrix(9.166058,0,0,-9.1656,43.310068,69.519)" fill="#009966"/>
<path transform="matrix(1.00005,0,0,-1,33.62258,52.986)" d="M2.83937-26.92937C2.83937-25.3612 1.56815-24.09 0-24.09-1.56815-24.09-2.83937-25.3612-2.83937-26.92937-2.83937-28.49753-1.56815-29.76875 0-29.76875 1.56815-29.76875 2.83937-28.49753 2.83937-26.92937ZM0-26.92937" fill="#ffffff"/>
<path transform="matrix(1.00005,0,0,-1,33.62258,52.986)" stroke-width="1.19553" stroke-linecap="butt" stroke-miterlimit="10" stroke-linejoin="miter" fill="none" stroke="#000000" d="M2.83937-26.92937C2.83937-25.3612 1.56815-24.09 0-24.09-1.56815-24.09-2.83937-25.3612-2.83937-26.92937-2.83937-28.49753-1.56815-29.76875 0-29.76875 1.56815-29.76875 2.83937-28.49753 2.83937-26.92937ZM0-26.92937"/>
<path transform="matrix(1.00005,0,0,-1,33.62258,52.986)" stroke-width="1.19553" stroke-linecap="butt" stroke-miterlimit="10" stroke-linejoin="miter" fill="none" stroke="#0033cc" d="M26.92937-13.46468V-.9564"/>
<path transform="matrix(0,-1,-1.00005,-0,60.5533,53.9424)" stroke-width=".9564" stroke-linecap="round" stroke-linejoin="round" fill="none" stroke="#0033cc" d="M-1.91284 2.55046C-1.75343 1.59402 0 .15938 .4782 0 0-.15938-1.75343-1.59402-1.91284-2.55046"/>
<path transform="matrix(1.00005,0,0,-1,33.62258,52.986)" d="M14.17705-9.8407H26.33161V-3.62398H14.17705Z" fill="#ffffff"/>
<use data-text="0" xlink:href="#font_1_5" transform="matrix(9.166058,0,0,-9.1656,47.800294,62.747)" fill="#0033cc"/>
<use data-text="." xlink:href="#font_1_4" transform="matrix(9.166058,0,0,-9.1656,52.65831,62.747)" fill="#0033cc"/>
<use data-text="5" xlink:href="#font_1_9" transform="matrix(9.166058,0,0,-9.1656,55.08731,62.747)" fill="#0033cc"/>
<path transform="matrix(1.00005,0,0,-1,33.62258,52.986)" stroke-width="1.19553" stroke-linecap="butt" stroke-miterlimit="10" stroke-linejoin="miter" fill="none" stroke="#009966" d="M26.92937 0H50.20923"/>
<path transform="matrix(1.00005,0,0,-1,83.83432,52.986)" stroke-width=".9564" stroke-linecap="round" stroke-linejoin="round" fill="none" stroke="#009966" d="M-1.91284 2.55046C-1.75343 1.59402 0 .15938 .4782 0 0-.15938-1.75343-1.59402-1.91284-2.55046"/>
<path transform="matrix(1.00005,0,0,-1,33.62258,52.986)" d="M36.6166-3.06851H41.4784V3.06851H36.6166Z" fill="#ffffff"/>
<use data-text="1" xlink:href="#font_1_6" transform="matrix(9.166058,0,0,-9.1656,70.24141,56.055)" fill="#009966"/>
<path transform="matrix(1.00005,0,0,-1,33.62258,52.986)" d="M29.76875-13.46468C29.76875-11.89651 28.49753-10.62529 26.92937-10.62529 25.3612-10.62529 24.09-11.89651 24.09-13.46468 24.09-15.03284 25.3612-16.30405 26.92937-16.30405 28.49753-16.30405 29.76875-15.03284 29.76875-13.46468ZM26.92937-13.46468" fill="#ffffff"/>
<path transform="matrix(1.00005,0,0,-1,33.62258,52.986)" stroke-width="1.19553" stroke-linecap="butt" stroke-miterlimit="10" stroke-linejoin="miter" fill="none" stroke="#000000" d="M29.76875-13.46468C29.76875-11.89651 28.49753-10.62529 26.92937-10.62529 25.3612-10.62529 24.09-11.89651 24.09-13.46468 24.09-15.03284 25.3612-16.30405 26.92937-16.30405 28.49753-16.30405 29.76875-15.03284 29.76875-13.46468ZM26.92937-13.46468"/>
<path transform="matrix(1.00005,0,0,-1,33.62258,52.986)" stroke-width="1.19553" stroke-linecap="butt" stroke-miterlimit="10" stroke-linejoin="miter" fill="none" stroke="#0033cc" d="M53.85875 0V12.50826"/>
<path transform="matrix(0,-1,-1.00005,-0,87.484027,40.47774)" stroke-width=".9564" stroke-linecap="round" stroke-linejoin="round" fill="none" stroke="#0033cc" d="M-1.91284 2.55046C-1.75343 1.59402 0 .15938 .4782 0 0-.15938-1.75343-1.59402-1.91284-2.55046"/>
<path transform="matrix(1.00005,0,0,-1,33.62258,52.986)" d="M41.10643 3.62396H53.26099V9.84068H41.10643Z" fill="#ffffff"/>
<use data-text="0" xlink:href="#font_1_5" transform="matrix(9.166058,0,0,-9.1656,74.73064,49.281999)" fill="#0033cc"/>
<use data-text="." xlink:href="#font_1_4" transform="matrix(9.166058,0,0,-9.1656,79.58865,49.281999)" fill="#0033cc"/>
<use data-text="5" xlink:href="#font_1_9" transform="matrix(9.166058,0,0,-9.1656,82.017658,49.281999)" fill="#0033cc"/>
<path transform="matrix(1.00005,0,0,-1,33.62258,52.986)" stroke-width="1.19553" stroke-linecap="butt" stroke-miterlimit="10" stroke-linejoin="miter" fill="none" stroke="#009966" d="M53.85875 13.46468H77.1386"/>
<path transform="matrix(1.00005,0,0,-1,110.76504,39.52132)" stroke-width=".9564" stroke-linecap="round" stroke-linejoin="round" fill="none" stroke="#009966" d="M-1.91284 2.55046C-1.75343 1.59402 0 .15938 .4782 0 0-.15938-1.75343-1.59402-1.91284-2.55046"/>
<path transform="matrix(1.00005,0,0,-1,33.62258,52.986)" d="M63.54597 10.39615H68.40777V16.533169H63.54597Z" fill="#ffffff"/>
<use data-text="1" xlink:href="#font_1_6" transform="matrix(9.166058,0,0,-9.1656,97.17175,42.59)" fill="#009966"/>
<path transform="matrix(1.00005,0,0,-1,33.62258,52.986)" d="M56.69812 0C56.69812 1.56815 55.42691 2.83937 53.85875 2.83937 52.29059 2.83937 51.01936 1.56815 51.01936 0 51.01936-1.56815 52.29059-2.83937 53.85875-2.83937 55.42691-2.83937 56.69812-1.56815 56.69812 0ZM53.85875 0" fill="#ffffff"/>
<path transform="matrix(1.00005,0,0,-1,33.62258,52.986)" stroke-width="1.19553" stroke-linecap="butt" stroke-miterlimit="10" stroke-linejoin="miter" fill="none" stroke="#000000" d="M56.69812 0C56.69812 1.56815 55.42691 2.83937 53.85875 2.83937 52.29059 2.83937 51.01936 1.56815 51.01936 0 51.01936-1.56815 52.29059-2.83937 53.85875-2.83937 55.42691-2.83937 56.69812-1.56815 56.69812 0ZM53.85875 0"/>
<path transform="matrix(1.00005,0,0,-1,33.62258,52.986)" stroke-width="1.19553" stroke-linecap="butt" stroke-miterlimit="10" stroke-linejoin="miter" fill="none" stroke="#0033cc" d="M80.78815 13.46468V25.97295"/>
<path transform="matrix(0,-1,-1.00005,-0,114.414768,27.01305)" stroke-width=".9564" stroke-linecap="round" stroke-linejoin="round" fill="none" stroke="#0033cc" d="M-1.91284 2.55046C-1.75343 1.59402 0 .15938 .4782 0 0-.15938-1.75343-1.59402-1.91284-2.55046"/>
<path transform="matrix(1.00005,0,0,-1,33.62258,52.986)" d="M68.03583 17.08865H80.190387V23.30537H68.03583Z" fill="#ffffff"/>
<use data-text="0" xlink:href="#font_1_5" transform="matrix(9.166058,0,0,-9.1656,101.66198,35.818)" fill="#0033cc"/>
<use data-text="." xlink:href="#font_1_4" transform="matrix(9.166058,0,0,-9.1656,106.52,35.818)" fill="#0033cc"/>
<use data-text="5" xlink:href="#font_1_9" transform="matrix(9.166058,0,0,-9.1656,108.949,35.818)" fill="#0033cc"/>
<path transform="matrix(1.00005,0,0,-1,33.62258,52.986)" stroke-width="1.19553" stroke-linecap="butt" stroke-miterlimit="10" stroke-linejoin="miter" fill="none" stroke="#009966" d="M80.78815 26.92937H104.068"/>
<path transform="matrix(1.00005,0,0,-1,137.69577,26.05663)" stroke-width=".9564" stroke-linecap="round" stroke-linejoin="round" fill="none" stroke="#009966" d="M-1.91284 2.55046C-1.75343 1.59402 0 .15938 .4782 0 0-.15938-1.75343-1.59402-1.91284-2.55046"/>
<path transform="matrix(1.00005,0,0,-1,33.62258,52.986)" d="M90.47536 23.86086H95.33716V29.99788H90.47536Z" fill="#ffffff"/>
<use data-text="1" xlink:href="#font_1_6" transform="matrix(9.166058,0,0,-9.1656,124.1021,29.125)" fill="#009966"/>
<path transform="matrix(1.00005,0,0,-1,33.62258,52.986)" d="M83.62752 13.46468C83.62752 15.03284 82.3563 16.30405 80.78815 16.30405 79.21999 16.30405 77.94876 15.03284 77.94876 13.46468 77.94876 11.89651 79.21999 10.62529 80.78815 10.62529 82.3563 10.62529 83.62752 11.89651 83.62752 13.46468ZM80.78815 13.46468" fill="#ffffff"/>
<path transform="matrix(1.00005,0,0,-1,33.62258,52.986)" stroke-width="1.19553" stroke-linecap="butt" stroke-miterlimit="10" stroke-linejoin="miter" fill="none" stroke="#000000" d="M83.62752 13.46468C83.62752 15.03284 82.3563 16.30405 80.78815 16.30405 79.21999 16.30405 77.94876 15.03284 77.94876 13.46468 77.94876 11.89651 79.21999 10.62529 80.78815 10.62529 82.3563 10.62529 83.62752 11.89651 83.62752 13.46468ZM80.78815 13.46468"/>
<path transform="matrix(1.00005,0,0,-1,33.62258,52.986)" d="M110.5569 26.92937C110.5569 28.49753 109.28568 29.76875 107.71751 29.76875 106.14935 29.76875 104.87814 28.49753 104.87814 26.92937 104.87814 25.3612 106.14935 24.09 107.71751 24.09 109.28568 24.09 110.5569 25.3612 110.5569 26.92937ZM107.71751 26.92937" fill="#ffffff"/>
<path transform="matrix(1.00005,0,0,-1,33.62258,52.986)" stroke-width="1.19553" stroke-linecap="butt" stroke-miterlimit="10" stroke-linejoin="miter" fill="none" stroke="#000000" d="M110.5569 26.92937C110.5569 28.49753 109.28568 29.76875 107.71751 29.76875 106.14935 29.76875 104.87814 28.49753 104.87814 26.92937 104.87814 25.3612 106.14935 24.09 107.71751 24.09 109.28568 24.09 110.5569 25.3612 110.5569 26.92937ZM107.71751 26.92937"/>
</svg>
