<svg xmlns="http://www.w3.org/2000/svg" xmlns:xlink="http://www.w3.org/1999/xlink" version="1.1" width="136" height="61" viewBox="0 0 136 61">
<defs>
<path id="font_1_1" d="M.6589966 .23046875C.6759949 .23046875 .69400027 .23046875 .69400027 .25045777 .69400027 .27046205 .6759949 .27046205 .6589966 .27046205H.117996219C.100997928 .27046205 .08299255 .27046205 .08299255 .25045777 .08299255 .23046875 .100997928 .23046875 .117996219 .23046875H.6589966Z"/>
<path id="font_2_4" d="M.36099244 .6508026C.36099244 .6697998 .36099244 .6748047 .34700013 .6748047 .33898927 .6748047 .33599855 .6748047 .32798768 .662796L.026992798 .19598389V.16699219H.2899933V.07598877C.2899933 .038986207 .28799439 .0289917 .21499634 .0289917H.19499207V0C.21798706 .0019989014 .29699708 .0019989014 .32499696 .0019989014 .35299684 .0019989014 .43299867 .0019989014 .45599366 0V.0289917H.43598939C.3639984 .0289917 .36099244 .038986207 .36099244 .07598877V.16699219H.46199037V.19598389H.36099244V.6508026M.29499818 .5728302V.19598389H.051986696L.29499818 .5728302Z"/>
<path id="font_2_3" d="M.43998719 .16790772H.41799928C.4149933 .15092469 .40699769 .09597778 .39698792 .07998657 .3899994 .070999149 .33299256 .070999149 .30299378 .070999149H.117996219C.14498902 .09397888 .20599365 .15792847 .23199463 .18190003 .38398744 .3217926 .43998719 .37374879 .43998719 .47270204 .43998719 .5878906 .34899903 .66503909 .23298645 .66503909 .116989139 .66503909 .04899597 .5658264 .04899597 .4797058 .04899597 .42871095 .09298706 .42871095 .09599304 .42871095 .116989139 .42871095 .14299011 .44371034 .14299011 .475708 .14299011 .5037079 .12399292 .5227051 .09599304 .5227051 .08699036 .5227051 .084991458 .5227051 .08198547 .521698 .100997928 .5899048 .15499878 .6360321 .21998596 .6360321 .30499269 .6360321 .35699464 .56481936 .35699464 .47270204 .35699464 .3877411 .30799867 .313797 .25099183 .24984741L.04899597 .023986817V0H.4139862L.43998719 .16790772Z"/>
<path id="font_2_5" d="M.12799073 .5727997C.17098999 .5588074 .20599365 .5578003 .21699524 .5578003 .32998658 .5578003 .4019928 .6409912 .4019928 .6550598 .4019928 .6590576 .3999939 .6640625 .3939972 .6640625 .3919983 .6640625 .3899994 .6640625 .3809967 .66004946 .32499696 .6358795 .2769928 .6328125 .25099183 .6328125 .18499756 .6328125 .13798523 .6530609 .11898804 .6610565 .11199951 .6640625 .10998535 .6640625 .10899353 .6640625 .100997928 .6640625 .100997928 .65805056 .100997928 .64201357V.34495545C.100997928 .32695008 .100997928 .32095338 .11299133 .32095338 .117996219 .32095338 .11898804 .32196046 .1289978 .33395387 .15699768 .37493897 .20399475 .39894105 .2539978 .39894105 .30699159 .39894105 .33299256 .34994508 .34098817 .33294679 .35798646 .29396058 .35899354 .2449646 .35899354 .20697022 .35899354 .16897583 .35899354 .11193848 .33099366 .0667572 .30899049 .03060913 .269989 .005508423 .22599793 .005508423 .1599884 .005508423 .09498596 .050689699 .07699585 .12397766 .08198547 .12197876 .08799744 .12097168 .09298706 .12097168 .10998535 .12097168 .13699341 .13098145 .13699341 .16497803 .13699341 .1929779 .117996219 .20898438 .09298706 .20898438 .07499695 .20898438 .04899597 .19998169 .04899597 .16098023 .04899597 .075790408 .116989139-.021484375 .22799683-.021484375 .34098817-.021484375 .43998719 .073791507 .43998719 .20097351 .43998719 .3199463 .3600006 .4189453 .25498963 .4189453 .19799805 .4189453 .1539917 .39393617 .12799073 .36595155V.5727997Z"/>
<path id="font_2_2" d="M.28799439 .64105227C.28799439 .664032 .28799439 .66503909 .2679901 .66503909 .24398804 .6380615 .19400025 .6012573 .09098816 .6012573V.5722656C.11399841 .5722656 .1639862 .5722656 .21899414 .59825137V.07701111C.21899414 .041000368 .21598816 .0289917 .12799073 .0289917H.09700012V0C.12399292 .0019989014 .22099304 .0019989014 .2539978 .0019989014 .2869873 .0019989014 .3829956 .0019989014 .4099884 0V.0289917H.3789978C.29100038 .0289917 .28799439 .041000368 .28799439 .07701111V.64105227Z"/>
<path id="font_2_1" d="M.44799806 .31976319C.44799806 .40283204 .44299317 .48390199 .40699769 .55996707 .3659973 .64302065 .2939911 .66503909 .24499512 .66503909 .18699646 .66503909 .115997318 .63601687 .07899475 .552948 .050994874 .48989869 .040985109 .42785646 .040985109 .31976319 .040985109 .22268677 .04798889 .14962769 .083999637 .078567508 .12298584 .0025177003 .19198609-.021484375 .24398804-.021484375 .33099366-.021484375 .3809967 .030532837 .4099884 .08857727 .44599916 .16363526 .44799806 .26171876 .44799806 .31976319M.24398804-.0014953613C.21199036-.0014953613 .14698792 .016525269 .12799073 .12561035 .116989139 .18565369 .116989139 .26171876 .116989139 .33177186 .116989139 .41384889 .116989139 .48789979 .1329956 .5469513 .1499939 .6139984 .20098877 .6450348 .24398804 .6450348 .28199769 .6450348 .33999635 .6220093 .35899354 .53593447 .37199403 .4788971 .37199403 .39982606 .37199403 .33177186 .37199403 .26472474 .37199403 .18865967 .36099244 .12760926 .34199525 .01751709 .2789917-.0014953613 .24398804-.0014953613Z"/>
<clipPath id="clip_3">
<path transform="matrix(1,0,0,-1.00002,1.0839996,55.520814)" d="M0 0H133.12372V53.75677H0Z"/>
</clipPath>
<path id="font_4_1" d="M.18699646 .23144531C.21598816 .23144531 .2899933 .23344422 .33999635 .2544403 .4099884 .28442384 .4149933 .34339906 .4149933 .35740663 .4149933 .40138246 .3769989 .4423828 .30799867 .4423828 .19699097 .4423828 .04598999 .34539796 .04598999 .17037964 .04598999 .06829834 .10499573-.0107421879 .20298767-.0107421879 .34599305-.0107421879 .42999269 .095321658 .42999269 .10733032 .42999269 .113342288 .42399598 .12034607 .41799928 .12034607 .41299439 .12034607 .41099549 .11834717 .40499879 .1103363 .32598878 .011245728 .21699524 .011245728 .20498657 .011245728 .1269989 .011245728 .117996219 .095321658 .117996219 .12734986 .117996219 .13935852 .11898804 .17037964 .13398743 .23144531H.18699646M.13999939 .25343324C.1789856 .40538026 .28199769 .42037965 .30799867 .42037965 .35499574 .42037965 .38198854 .39138795 .38198854 .35740663 .38198854 .25343324 .22200012 .25343324 .18099976 .25343324H.13999939Z"/>
<path id="font_5_1" d="M.22099304 .3976593H.31900025C.33799745 .3976593 .34999085 .3976593 .34999085 .4166565 .34999085 .43066407 .33699037 .43066407 .31999208 .43066407H.22898865L.2649994 .57250979C.2689972 .58750918 .2689972 .5924988 .2689972 .5934906 .2689972 .6144867 .25299073 .6244812 .23599243 .6244812 .20199585 .6244812 .19499207 .5974884 .18399048 .552536L.15299988 .43066407H.056991579C.037994386 .43066407 .024993897 .43066407 .024993897 .4116516 .024993897 .3976593 .037994386 .3976593 .054992677 .3976593H.14498902L.084991458 .15802002C.07899475 .13305664 .069992069 .09811401 .069992069 .084121707 .069992069 .024215699 .11898804-.009765625 .17199707-.009765625 .2789917-.009765625 .33999635 .13105774 .33999635 .14303589 .33999635 .15402222 .33099366 .15602112 .32499696 .15602112 .31399537 .15602112 .31298829 .15202332 .30599977 .13705445 .28599549 .08912659 .23599243 .018234253 .1749878 .018234253 .1539917 .018234253 .14199829 .032211305 .14199829 .06515503 .14199829 .084121707 .14498902 .09510803 .147995 .10809326L.22099304 .3976593Z"/>
</defs>
<path transform="matrix(1,0,0,-1.00002,1.0839996,55.520814)" stroke-width=".19925" stroke-linecap="butt" stroke-miterlimit="10" stroke-linejoin="miter" fill="none" stroke="#929292" d="M7.39575 13.68495V17.93666M36.9788 13.68495V17.93666M96.1449 13.68495V17.93666M125.72795 13.68495V17.93666"/>
<path transform="matrix(1,0,0,-1.00002,1.0839996,55.520814)" stroke-width=".19925" stroke-linecap="butt" stroke-miterlimit="10" stroke-linejoin="miter" fill="none" stroke="#929292" d="M64.43591 0H68.68777M64.43591 31.62163H68.68777M64.43591 47.43245H68.68777"/>
<path transform="matrix(1,0,0,-1.00002,1.0839996,55.520814)" stroke-width=".3985" stroke-linecap="butt" stroke-miterlimit="10" stroke-linejoin="miter" fill="none" stroke="#000000" d="M0 15.8108H131.1312"/>
<path transform="matrix(1,0,0,-1.00002,132.2152,39.709699)" d="M1.99252 0-1.19551 1.59401 0 0-1.19551-1.59401"/>
<path transform="matrix(1,0,0,-1.00002,1.0839996,55.520814)" stroke-width=".3985" stroke-linecap="butt" stroke-miterlimit="10" stroke-linejoin="miter" fill="none" stroke="#000000" d="M66.56186 0V51.76425"/>
<path transform="matrix(0,-1.00002,-1,-0,67.64586,3.7555238)" d="M1.99252 0-1.19551 1.59401 0 0-1.19551-1.59401"/>
<use data-text="&#x2212;" xlink:href="#font_1_1" transform="matrix(11.9552,0,0,-11.95544,.9039993,53.37577)"/>
<use data-text="4" xlink:href="#font_2_4" transform="matrix(11.9552,0,0,-11.95544,10.201996,53.37577)"/>
<use data-text="&#x2212;" xlink:href="#font_1_1" transform="matrix(11.9552,0,0,-11.95544,30.487,53.37577)"/>
<use data-text="2" xlink:href="#font_2_3" transform="matrix(11.9552,0,0,-11.95544,39.784997,53.37577)"/>
<use data-text="2" xlink:href="#font_2_3" transform="matrix(11.9552,0,0,-11.95544,94.302,53.37577)"/>
<use data-text="4" xlink:href="#font_2_4" transform="matrix(11.9552,0,0,-11.95544,123.885,53.37577)"/>
<use data-text="&#x2212;" xlink:href="#font_1_1" transform="matrix(11.9552,0,0,-11.95544,46.533,58.874879)"/>
<use data-text="5" xlink:href="#font_2_5" transform="matrix(11.9552,0,0,-11.95544,55.830999,58.874879)"/>
<use data-text="5" xlink:href="#font_2_5" transform="matrix(11.9552,0,0,-11.95544,55.832,27.751257)"/>
<use data-text="1" xlink:href="#font_2_2" transform="matrix(11.9552,0,0,-11.95544,49.979,11.939938)"/>
<use data-text="0" xlink:href="#font_2_1" transform="matrix(11.9552,0,0,-11.95544,55.825094,11.939938)"/>
<g clip-path="url(#clip_3)">
<path transform="matrix(1,0,0,-1.00002,1.0839996,55.520814)" stroke-width="1.19553" stroke-linecap="butt" stroke-miterlimit="10" stroke-linejoin="miter" fill="none" stroke="#ff0000" d="M0 15.84593 1.34467 15.84927 2.68935 15.85294 4.03404 15.85695 5.37871 15.86134 6.7234 15.86615 8.06808 15.8714 9.41277 15.87718 10.75745 15.88348 12.10213 15.89041 13.44681 15.898 14.79149 15.90628 16.13618 15.91537 17.48085 15.92532 18.82555 15.93623 20.17023 15.94817 21.51491 15.96123 22.85959 15.97556 24.20428 15.99124 25.54895 16.0084 26.89365 16.0272 28.23833 16.0478 29.583 16.07037 30.92769 16.09508 32.27237 16.12212 33.61705 16.15175 34.96173 16.18404 36.30643 16.21973 37.6511 16.25867 38.99579 16.30138 40.34047 16.34784 41.68515 16.3991 43.02983 16.45505 44.37453 16.5164 45.7192 16.58348 47.06387 16.65715 48.40857 16.73785 49.75323 16.82578 51.09793 16.92256 52.44261 17.02852 53.7873 17.14426 55.13197 17.27109 56.47665 17.41026 57.82133 17.56238 59.16602 17.7291 60.51071 17.91159 61.85538 18.1115 63.20007 18.3307 64.54475 18.57045 65.88943 18.83295 67.23412 19.12001 68.57881 19.43483 69.92348 19.77975 71.26817 20.15742 72.61285 20.57112 73.95752 21.02426 75.30222 21.52019 76.6469 22.06354 77.99158 22.65855 79.33626 23.31038 80.68095 24.02415 82.02562 24.80586 83.37032 25.66177 84.715 26.59929 86.05968 27.62617 87.40436 28.75047 88.74904 29.98235 90.09372 31.3305 91.4384 32.8076 92.7831 34.42513 94.12776 36.19667 95.47246 38.13672 96.81714 40.2618 98.16183 42.58888 99.5065 45.13725 100.8512 47.9289 102.19588 50.98575 103.54054 54.33292 104.88524 57.99786 106.22992 62.01381 107.5746 66.41048 108.91928 71.22646 110.26398 76.49904 111.60864 82.27536 112.95334 88.60095 114.29802 95.528 115.64268 103.11497 116.98738 111.42357 118.33206 120.52141 119.67674 130.48699 121.02142 141.40183 122.36612 153.3529 123.71078 166.44205 125.05548 180.78119 126.40016 196.47975 127.74484 213.6756 129.08953 232.5028 130.4342 253.12708 131.77889 275.71598 133.12357 300.44349"/>
<use data-text="e" xlink:href="#font_4_1" transform="matrix(13.09092,0,0,-13.091183,107.748,11.822941)"/>
<use data-text="t" xlink:href="#font_5_1" transform="matrix(9.56412,0,0,-9.564312,113.84281,7.0720446)"/>
</g>
</svg>
