<svg xmlns="http://www.w3.org/2000/svg" xmlns:xlink="http://www.w3.org/1999/xlink" version="1.1" width="236" height="197" viewBox="0 0 236 197">
<defs>
<path id="font_1_2" d="M.42799378 .45222474 .43899537 .49023438H.31199647L.34599305 .6092224 .33399964 .6162262 .23699951 .53923037 .22399903 .49023438H.14299011L.13198853 .45222474H.21499634L.125 .08627319C.10998535 .029266358 .12199402-.01171875 .17199707-.01171875 .2519989-.01171875 .31599427 .054275514 .35598756 .1292572L.33399964 .1462555C.31098939 .10726929 .2599945 .040267946 .22898865 .040267946 .20799256 .040267946 .20799256 .0632782 .21398926 .088272098L.30299378 .45222474H.42799378Z"/>
<path id="font_1_1" d="M.43199159 .49023438H.3019867L.32998658 .6031952C.34899903 .67918398 .36799623 .70718386 .3959961 .70718386 .4229889 .70718386 .44099427 .68518069 .46299745 .6371918 .46798707 .62719729 .47499085 .6201935 .48999024 .6201935 .5099945 .6201935 .5389862 .6391907 .5389862 .6641846 .5389862 .70718386 .4850006 .7421875 .4249878 .7421875 .3600006 .7421875 .31799317 .71517947 .2849884 .67318728 .2539978 .63420107 .23399353 .5802002 .21998596 .5272217L.20999146 .49023438H.12298584L.11199951 .45222474H.20098877L.084991458-.137146C.07299805-.19918823 .06298828-.2052002 .052993776-.2052002 .041992189-.2052002 .026992798-.19718933 0-.15615845-.007003784-.14616394-.014007568-.13415528-.027008057-.13415528-.04901123-.13415528-.072006229-.15916443-.072006229-.18418885-.071014408-.2171936-.028015137-.2421875 .018997193-.2421875 .11898804-.2421875 .16099549-.16116333 .20298767 .030960083L.29599 .45222474H.42199708L.43199159 .49023438Z"/>
<path id="font_2_1" d="M.1749878 .2822113C.1749878 .56832888 .2619934 .65437319 .32499696 .66737368V.6923828C.1499939 .685379 .10499573 .46829225 .10499573 .2822113 .10499573 .09614563 .1499939-.12094116 .32499696-.12792969V-.10293579C.2669983-.090927127 .1749878-.0059051516 .1749878 .2822113Z"/>
<path id="font_2_2" d="M.1749878 .2822113C.1749878-.0059051516 .08299255-.090927127 .024993897-.10293579V-.12792969C.19999695-.12094116 .24499512 .09614563 .24499512 .2822113 .24499512 .46829225 .19999695 .685379 .024993897 .6923828V.66737368C.08799744 .65437319 .1749878 .56832888 .1749878 .2822113Z"/>
</defs>
<path transform="matrix(1.200072,0,0,-1.2,1.0954132,195.4704)" stroke-width=".79701" stroke-linecap="butt" stroke-miterlimit="10" stroke-linejoin="miter" fill="none" stroke="#000000" d="M186.30176 74.40988V122.60043"/>
<path transform="matrix(0,-1.2,-1.200072,-0,224.67095,48.34987)" stroke-width=".6376" stroke-linecap="round" stroke-linejoin="round" fill="none" stroke="#000000" d="M-1.55415 2.0722C-1.42464 1.29512 0 .1295 .38852 0 0-.1295-1.42464-1.29512-1.55415-2.0722"/>
<path transform="matrix(1.00006,0,0,-1,1.0930252,195.472)" stroke-width=".79701" stroke-linecap="butt" stroke-miterlimit="10" stroke-linejoin="miter" fill="none" stroke="#0000ff" d="M10.59695 96.83755H10.91644 11.23595 11.55544 11.87494 12.19443 12.51393 12.83342 13.15294 13.47244 13.79193 14.11142 14.43092 14.75043 15.06992 15.3894 15.70892 16.02843 16.34793 16.6674 16.98691 17.30641 17.62592 17.94539 18.26491 18.58441 18.90392 19.22339 19.5429 19.8624 20.1819 20.50137 20.82089 21.1404 21.4599 21.77939 22.09888 22.41838 22.73788 23.05739 23.37689 23.69638 24.01588 24.33537 24.65488 24.97437 25.29388 25.61337 25.93288 26.25238 26.57187 26.89136 27.21086 27.53035 27.84987 28.16936 28.48886 28.80836 29.12785 29.44734 29.76685 30.08635 30.40587 30.72534 31.04485 31.36435 31.68385 32.00334 32.32283 32.64235 32.96185 33.28136 33.60083 33.92033 34.23984 34.55934 34.87881 35.19833 35.51784 35.83734 36.15681 36.47632 36.79582 37.11533 37.43483 37.75432 38.07382 38.39333 38.71281 39.0323 39.3518 39.67131 39.99081 40.31032 40.6298 40.94931 41.2688 41.5883 41.90779 42.22731 42.5468 42.86632 43.18578 43.5053 43.82477 44.14429 44.4638 44.78328 45.10278 45.42227 45.74179 46.06131 46.38077 46.70029 47.01974 47.3393 47.6588 47.97826 48.29779 48.61725 48.93675 49.25627 49.57576 49.89528 50.21474 50.53426 50.85378 51.17326 51.49277 51.81223 52.13176 52.45128 52.77072 53.09024 53.40973 53.72925 54.04875 54.36823 54.68774 55.00723 55.32674 55.64626 55.96571 56.28525 56.6047 56.92422 57.24376 57.56322 57.88272 58.20221 58.52173 58.84123 59.1607 59.48022 59.7997 60.11922 60.43872 60.75821 61.07773 61.39719 61.7167 62.03622 62.3557 62.67522 62.99467 63.3142 63.63371 63.9532 64.2727 64.59218 64.9117 65.23122 65.55066 65.8702 66.18967 66.50919 66.8287 67.14816 67.46768 67.78717 68.10667 68.4262 68.74567 69.06519 69.38463 69.70418 70.0237 70.34315 70.66267 70.98213 71.30165 71.6212 71.94064 72.26016 72.57964 72.89915 73.21866 73.53815 73.85767 74.17714"/>
<path transform="matrix(1.00006,0,0,-1,1.0930252,195.472)" stroke-width=".79701" stroke-linecap="butt" stroke-dasharray="2.98883,2.98883" stroke-miterlimit="10" stroke-linejoin="miter" fill="none" stroke="#009900" d="M74.17876 145.25635 74.49826 144.52924 74.81776 143.80751 75.13724 143.09133 75.45674 142.38072 75.77625 141.6755 76.09575 140.97589 76.41524 140.28174 76.73474 139.59311 77.05424 138.90995 77.37375 138.23226 77.69325 137.56014 78.01273 136.89348 78.33223 136.23238 78.65173 135.57669 78.97122 134.92659 79.29073 134.28192 79.61023 133.64284 79.92973 133.00917 80.24924 132.38108 80.56871 131.75843 80.88821 131.14125 81.20772 130.52965 81.52722 129.92351 81.84673 129.32294 82.16621 128.72779 82.48572 128.13819 82.80522 127.55405 83.12471 126.97548 83.4442 126.40233 83.7637 125.83473 84.0832 125.27263 84.40271 124.71597 84.72221 124.16489 85.0417 123.61926 85.3612 123.07921 85.6807 122.54457 86.0002 122.01549 86.31969 121.49188 86.6392 120.9738 86.9587 120.46118 87.2782 119.95407 87.59769 119.45251 87.91719 118.9564 88.23668 118.46582 88.55618 117.98073 88.8757 117.50114 89.19519 117.02707 89.51468 116.55852 89.83418 116.0954 90.15369 115.63786 90.47318 115.18576 90.79266 114.73918 91.11217 114.29811 91.43169 113.86253 91.75119 113.43248 92.07066 113.00789 92.39017 112.58884 92.70967 112.17526 93.02917 111.76721 93.34865 111.36464 93.66815 110.9676 93.98767 110.57603 94.30717 110.18996 94.62665 109.80942 94.94615 109.43434 95.26566 109.06482 95.58516 108.70076 95.90463 108.34222 96.22415 107.98917 96.54366 107.64163 96.86316 107.29959 97.18265 106.96306 97.50214 106.632 97.82164 106.30647 98.14114 105.98643 98.46063 105.67189 98.78015 105.36287 99.09964 105.05934 99.41914 104.7613 99.73863 104.4688 100.05814 104.18176 100.37762 103.90024 100.69713 103.62422 101.01663 103.3537 101.33614 103.0887 101.65562 102.82915 101.97513 102.57516 102.29462 102.32663 102.61412 102.08363 102.93361 101.84612 103.25311 101.6141 103.57262 101.3876 103.89212 101.16661 104.21162 100.95111 104.53111 100.7411 104.8506 100.53659 105.1701 100.33762 105.48961 100.1441 105.80913 99.95612 106.1286 99.77362 106.44812 99.59662 106.7676 99.42514 107.08711 99.25916 107.40657 99.09868 107.72609 98.9437 108.04561 98.7942 108.3651 98.65022 108.6846 98.51175 109.00407 98.37877 109.3236 98.25131 109.64311 98.1293 109.96259 98.01286 110.28209 97.90187 110.60156 97.79642 110.9211 97.69644 111.2406 97.60199 111.56006 97.51302 111.8796 97.42957 112.19907 97.35161 112.51857 97.27913 112.83809 97.21217 113.15756 97.15074 113.47708 97.09477 113.79655 97.04433 114.11607 96.99937 114.4356 96.95993 114.75507 96.926 115.07457 96.89754 115.39403 96.8746 115.71358 96.85716 116.03308 96.84521 116.35254 96.83879 116.67206 96.83786 116.99153 96.8424 117.31105 96.85248 117.63055 96.86806 117.95004 96.88913 118.26956 96.9157 118.58904 96.94775 118.90854 96.98537 119.22806 97.02843 119.54753 97.077 119.86707 97.13109 120.18651 97.19067 120.50603 97.25575 120.82556 97.32634 121.14502 97.40242 121.46452 97.48404 121.78401 97.57112 122.10353 97.66371 122.42305 97.7618 122.74251 97.8654 123.06203 97.9745 123.38152 98.08908 123.70103 98.2092 124.02054 98.33481 124.34001 98.4659 124.65953 98.60252 124.979 98.74463 125.29852 98.89226 125.61804 99.04536 125.9375 99.20396 126.25702 99.36809 126.57649 99.5377 126.896 99.71283 127.21552 99.89345 127.535 100.07957 127.8545 100.27121 128.17398 100.4683 128.4935 100.67094 128.81302 100.87909 129.13248 101.09271 129.45201 101.31186 129.77147 101.53647 130.09099 101.76662 130.4105 102.00227 130.72998 102.24338 131.0495 102.49005 131.36898 102.74217 131.68848 102.99982 132.008 103.26297 132.32749 103.53162 132.647 103.80577 132.96645 104.0854 133.28598 104.37057 133.6055 104.66125 133.92496 104.95738 134.24448 105.25905 134.56395 105.56618 134.88347 105.87888 135.203 106.19707 135.52245 106.52069 135.84197 106.84988 136.16146 107.18452 136.48097 107.5247 136.80048 107.8704 137.11995 108.22156 137.43947 108.57825 137.75896 108.9404"/>
<path transform="matrix(1.00006,0,0,-1,1.0930252,195.472)" stroke-width=".79701" stroke-linecap="butt" stroke-miterlimit="10" stroke-linejoin="miter" fill="none" stroke="#cc6600" d="M137.76056 96.83755 137.97354 96.59424 138.18657 96.35094 138.39957 96.10764 138.61257 95.86432 138.82555 95.62103 139.03855 95.37772 139.25156 95.13441 139.46456 94.89113 139.67755 94.6478 139.89055 94.40451 140.10353 94.16121 140.31656 93.9179 140.52956 93.67459 140.74256 93.43129 140.95555 93.18799 141.16855 92.94467 141.38153 92.70139 141.59455 92.45805 141.80754 92.21477 142.02054 91.97147 142.23354 91.72815 142.44654 91.48486 142.65955 91.24153 142.87255 90.99825 143.08554 90.75496 143.29854 90.51163 143.51154 90.26834 143.72454 90.02502 143.93753 89.78172 144.15053 89.5384 144.36353 89.29512 144.57653 89.0518 144.78954 88.8085 145.00255 88.56519 145.21553 88.32188 145.42853 88.0786 145.64153 87.83528 145.85453 87.59198 146.06752 87.34868 146.28054 87.10536 146.49352 86.86208 146.70652 86.61877 146.91953 86.37546 147.1325 86.13216 147.34554 85.88884 147.55854 85.64554 147.77153 85.40224 147.98451 85.15892 148.19751 84.91563 148.4105 84.67233 148.62352 84.42902 148.83652 84.18571 149.04952 83.9424 149.2625 83.69911 149.47551 83.45581 149.68852 83.2125 149.90152 82.9692 150.11452 82.72589 150.32752 82.48259 150.5405 82.23927 150.7535 81.99599 150.9665 81.75266 151.1795 81.50937 151.3925 81.26607 151.6055 81.02275 151.81851 80.77946 152.03151 80.53615 152.2445 80.29285 152.4575 80.04955 152.6705 79.80623 152.8835 79.56294 153.09648 79.31963 153.3095 79.07632 153.52249 78.83301 153.73549 78.58972 153.9485 78.3464 154.16152 78.1031 154.3745 77.85982 154.5875 77.61649 154.80049 77.3732 155.01349 77.12988 155.22649 76.88658 155.43949 76.64328 155.65248 76.39998 155.86548 76.15668 156.07849 75.91336 156.29148 75.67006 156.5045 75.42676 156.7175 75.18346 156.93048 74.94014 157.14348 74.69684 157.35648 74.45355 157.56948 74.21024 157.78249 73.96693 157.99549 73.72362 158.20847 73.48032 158.42147 73.23701 158.63448 72.9937 158.84749 72.75041 159.06049 72.50711 159.2735 72.2638 159.48647 72.0205 159.69947 71.77718 159.91245 71.5339 160.12548 71.29059 160.33849 71.04726 160.55147 70.80399 160.76447 70.56064 160.97745 70.31737 161.19048 70.07407 161.40348 69.83073 161.61647 69.58746 161.82947 69.34413 162.04244 69.10086 162.25545 68.85753 162.46848 68.61421 162.68146 68.37094 162.89447 68.12761 163.10746 67.88434 163.32045 67.64099 163.53347 67.39769 163.74645 67.15442 163.95946 66.91109 164.17244 66.66782 164.38545 66.42448 164.59847 66.18117 164.81145 65.93788 165.02446 65.69456 165.23744 65.4513 165.45046 65.20796 165.66345 64.96466 165.87642 64.72136 166.08945 64.47804 166.30243 64.23477 166.51544 63.99144 166.72846 63.74812 166.94144 63.50484 167.15445 63.26154 167.36743 63.01823 167.58045 62.77492 167.79344 62.5316 168.00643 62.28831 168.21945 62.04501 168.43242 61.80173 168.64543 61.55841 168.85845 61.31508 169.07143 61.0718 169.28446 60.82848 169.49744 60.58519 169.71044 60.34189 169.92343 60.09857 170.13642 59.85527 170.34943 59.61195 170.56241 59.36867 170.77544 59.12535 170.98844 58.88205 171.20142 58.63876 171.41443 58.39543 171.62741 58.15215 171.84043 57.90883 172.05344 57.66553 172.2664 57.42223 172.47942 57.17892 172.6924 56.93564 172.90543 56.6923 173.11844 56.44897 173.33142 56.2057 173.5444 55.9624 173.7574 55.71912 173.9704 55.47578 174.18343 55.23245 174.39641 54.98918 174.60942 54.74588 174.82239 54.50258 175.0354 54.25928 175.24843 54.01595 175.46141 53.77267 175.67441 53.52934 175.88739 53.28606 176.10039 53.04276 176.31342 52.79942 176.5264 52.55615 176.73941 52.3128 176.9524 52.06953 177.1654 51.82622 177.37842 51.5829 177.59137 51.33963 177.8044 51.0963 178.01738 50.85303 178.2304 50.6097 178.4434 50.36638 178.65637 50.12311 178.8694 49.87978 179.08238 49.6365 179.2954 49.39319 179.5084 49.14984 179.72138 48.90657 179.93439 48.66325 180.14737 48.41998"/>
<path transform="matrix(1.00006,0,0,-1,1.0930252,195.472)" stroke-width=".79701" stroke-linecap="butt" stroke-dasharray=".79701,1.99255" stroke-miterlimit="10" stroke-linejoin="miter" fill="none" stroke="#b30000" d="M180.14844 48.41876H180.36142 180.57445 180.78745 181.00043 181.21343 181.42642 181.63944 181.85243 182.06543 182.27841 182.49141 182.70444 182.91744 183.13043 183.34343 183.55641 183.76941 183.98242 184.19542 184.40842 184.62142 184.8344 185.04743 185.26042 185.47342 185.68642 185.89942 186.1124 186.32541 186.5384 186.7514 186.9644 187.17742 187.39041 187.60341 187.8164 188.0294 188.2424 188.4554 188.6684 188.8814 189.09439 189.3074 189.52039 189.73342 189.9464 190.1594 190.37239 190.58539 190.79839 191.0114 191.22438 191.43738 191.65038 191.86339 192.0764 192.2894 192.50238 192.71538 192.92838 193.14138 193.35439 193.56739 193.78037 193.99337 194.20638 194.41939 194.63239 194.84539 195.05837 195.27136 195.48436 195.69738 195.91037 196.12337 196.33637 196.54936 196.76238 196.97537 197.18837 197.40137 197.61435 197.82735 198.04036 198.25336 198.46637 198.67935 198.89235 199.10536 199.31836 199.53136 199.74436 199.95735 200.17034 200.38335 200.59635 200.80934 201.02236 201.23535 201.44835 201.66136 201.87435 202.08734 202.30033 202.51334 202.72635 202.93933 203.15235 203.36533 203.57834 203.79135 204.00434 204.21733 204.43032 204.64333 204.85636 205.06934 205.28234 205.49532 205.70833 205.92133 206.13431 206.34734 206.5603 206.77332 206.98633 207.19931 207.41234 207.62532 207.83832 208.05132 208.2643 208.47733 208.6903 208.90332 209.11632 209.3293 209.54233 209.75531 209.96833 210.18132 210.39429 210.6073 210.82028 211.03331 211.24633 211.4593 211.6723 211.88529 212.09832 212.31131 212.52429 212.7373 212.95027 213.1633 213.37631 213.5893 213.8023 214.01529 214.22827 214.4413 214.65428 214.8673 215.08028 215.29329 215.5063 215.71929 215.93228 216.14528 216.35828 216.5713 216.78427 216.99729 217.21027 217.42328 217.6363 217.84929 218.06227 218.27526 218.48827 218.7013 218.91426 219.12729 219.34026 219.55327 219.7663 219.97925 220.19228 220.40526 220.61826 220.83127 221.04425 221.25728 221.47026 221.68328 221.89627 222.10924 222.32227 222.53524"/>
<use data-text="t" xlink:href="#font_1_2" transform="matrix(10.037002,0,0,-10.0364,226.34653,95.148)"/>
<use data-text="f" xlink:href="#font_1_1" transform="matrix(10.037002,0,0,-10.0364,122.15629,12.695999)"/>
<use data-text="(" xlink:href="#font_2_1" transform="matrix(10.037002,0,0,-10.0364,127.764629,12.695999)"/>
<use data-text="t" xlink:href="#font_1_2" transform="matrix(10.037002,0,0,-10.0364,131.49585,12.695999)"/>
<use data-text=")" xlink:href="#font_2_2" transform="matrix(10.037002,0,0,-10.0364,135.99013,12.695999)"/>
<path transform="matrix(1.00006,0,0,-1,1.0930252,195.472)" stroke-width=".19925" stroke-linecap="butt" stroke-miterlimit="10" stroke-linejoin="miter" fill="none" stroke="#929292" d=""/>
<path transform="matrix(1.00006,0,0,-1,1.0930252,195.472)" stroke-width=".19925" stroke-linecap="butt" stroke-miterlimit="10" stroke-linejoin="miter" fill="none" stroke="#929292" d=""/>
<path transform="matrix(1.00006,0,0,-1,1.0930252,195.472)" stroke-width=".3985" stroke-linecap="butt" stroke-miterlimit="10" stroke-linejoin="miter" fill="none" stroke="#000000" d="M0 96.83755H231.14075"/>
<path transform="matrix(1.00006,0,0,-1,232.24762,98.63445)" d="M1.99252 0-1.19551 1.59401 0 0-1.19551-1.59401"/>
<path transform="matrix(1.00006,0,0,-1,1.0930252,195.472)" stroke-width=".3985" stroke-linecap="butt" stroke-miterlimit="10" stroke-linejoin="miter" fill="none" stroke="#000000" d="M116.56664 0V191.6826"/>
<path transform="matrix(0,-1,-1.00006,-0,117.66666,3.7893983)" d="M1.99252 0-1.19551 1.59401 0 0-1.19551-1.59401"/>
</svg>
