<svg xmlns="http://www.w3.org/2000/svg" xmlns:xlink="http://www.w3.org/1999/xlink" version="1.1" width="137" height="143" viewBox="0 0 137 143">
<defs>
<path id="font_1_1" d="M.42799378 .45222474 .43899537 .49023438H.31199647L.34599305 .6092224 .33399964 .6162262 .23699951 .53923037 .22399903 .49023438H.14299011L.13198853 .45222474H.21499634L.125 .08627319C.10998535 .029266358 .12199402-.01171875 .17199707-.01171875 .2519989-.01171875 .31599427 .054275514 .35598756 .1292572L.33399964 .1462555C.31098939 .10726929 .2599945 .040267946 .22898865 .040267946 .20799256 .040267946 .20799256 .0632782 .21398926 .088272098L.30299378 .45222474H.42799378Z"/>
<path id="font_1_2" d="M.070999149 .45393373 .07398987 .42893983 .14199829 .43093873C.1639862 .43193055 .16899109 .41493226 .1769867 .36291505 .18798828 .28489686 .20999146 .09286499 .20999146 .0128479 .20999146-.017166138 .20799256-.058166505 .18598938-.11117554 .16799927-.15318299 .14199829-.18218994 .12199402-.18218994 .10699463-.18218994 .09599304-.17118836 .08099365-.15118408 .068984989-.13517761 .06098938-.127182 .04598999-.127182 .019989014-.12818909-.005004883-.15818787-.005004883-.18719483-.005004883-.21418762 .023986817-.2421875 .067993167-.2421875 .15299988-.2421875 .18998719-.17919922 .27799989-.027160645 .2979889 .0068511965 .35798646 .11286926 .41999818 .21488953 .47698976 .30891419 .5399933 .40592958 .5399933 .4459381 .5399933 .48094178 .5289917 .5019531 .5219879 .5019531 .5029907 .5019531 .46899415 .49394227 .44400025 .47694398 .44499208 .4419403 .44299317 .3809204 .43099977 .33891297 .4149933 .28289796 .35598756 .17488098 .2899933 .06085205H.2869873C.27999879 .21388245 .26098634 .42492677 .24699402 .49795533L.23899842 .5019531 .070999149 .45393373Z"/>
<path id="font_2_1" d="M.1749878 .2822113C.1749878 .56832888 .2619934 .65437319 .32499696 .66737368V.6923828C.1499939 .685379 .10499573 .46829225 .10499573 .2822113 .10499573 .09614563 .1499939-.12094116 .32499696-.12792969V-.10293579C.2669983-.090927127 .1749878-.0059051516 .1749878 .2822113Z"/>
<path id="font_2_2" d="M.1749878 .2822113C.1749878-.0059051516 .08299255-.090927127 .024993897-.10293579V-.12792969C.19999695-.12094116 .24499512 .09614563 .24499512 .2822113 .24499512 .46829225 .19999695 .685379 .024993897 .6923828V.66737368C.08799744 .65437319 .1749878 .56832888 .1749878 .2822113Z"/>
<path id="font_2_3" d="M.069992069-.140625C.11999512-.09362793 .19299317-.027633667 .19299317 .051361085 .19299317 .10636902 .1599884 .1423645 .125 .14137268 .09399414 .14137268 .07598877 .117370609 .07598877 .09136963 .07598877 .055374147 .10899353 .037368776 .10899353-.005630493 .10899353-.04663086 .08299255-.086639408 .050994874-.12162781L.069992069-.140625Z"/>
</defs>
<path transform="matrix(1.00008,0,0,-1.00003,12.631287,119.34723)" stroke-width=".3985" stroke-linecap="butt" stroke-miterlimit="10" stroke-linejoin="miter" fill="none" stroke="#000000" d="M-11.33855 0H101.59038"/>
<path transform="matrix(1.00008,0,0,-1.00003,114.22979,119.34723)" stroke-width=".31879" stroke-linecap="round" stroke-linejoin="round" fill="none" stroke="#000000" d="M-1.19551 1.59401C-1.09587 .99626 0 .09961 .29886 0 0-.09961-1.09587-.99626-1.19551-1.59401"/>
<use data-text="t" xlink:href="#font_1_1" transform="matrix(10.037203,0,0,-10.036701,118.30575,122.39632)"/>
<path transform="matrix(1.00008,0,0,-1.00003,12.631287,119.34723)" stroke-width=".3985" stroke-linecap="butt" stroke-miterlimit="10" stroke-linejoin="miter" fill="none" stroke="#000000" d="M0-22.6771V107.25922"/>
<path transform="matrix(0,-1.00003,-1.00008,-0,12.631287,12.084793)" stroke-width=".31879" stroke-linecap="round" stroke-linejoin="round" fill="none" stroke="#000000" d="M-1.19551 1.59401C-1.09587 .99626 0 .09961 .29886 0 0-.09961-1.09587-.99626-1.19551-1.59401"/>
<use data-text="y" xlink:href="#font_1_2" transform="matrix(10.037203,0,0,-10.036701,10.095093,5.761818)"/>
<path transform="matrix(1.00008,0,0,-1.00003,12.631287,119.34723)" stroke-width=".79701" stroke-linecap="butt" stroke-miterlimit="10" stroke-linejoin="miter" fill="none" stroke="#0000ff" d="M-11.33855 7.89207C-11.33855 7.89207-7.92528 6.73584-6.61435 6.43614-5.30342 6.13646-3.20111 5.81885-1.89018 5.73196-.57925 5.64507 1.52304 5.68008 2.83397 5.80983 4.1449 5.93956 6.24721 6.32602 7.55814 6.66713 8.86906 7.00822 10.9714 7.73007 12.28233 8.26837 13.59326 8.80669 15.69557 9.83366 17.0065 10.54697 18.31743 11.26028 20.41974 12.55002 21.73067 13.4095 23.0416 14.269 25.14394 15.77016 26.45486 16.74178 27.7658 17.7134 29.8681 19.36652 31.17903 20.4123 32.48996 21.45807 34.5923 23.19943 35.90323 24.27919 37.21416 25.35896 39.31647 27.12053 40.6274 28.19452 41.93832 29.26851 44.04066 30.98972 45.3516 32.01988 46.66252 33.05006 48.76483 34.66792 50.07576 35.61948 51.38669 36.57103 53.489 38.0354 54.79993 38.87823 56.11086 39.72105 58.2132 40.9859 59.52412 41.69403 60.83505 42.40218 62.93736 43.42477 64.24829 43.98218 65.55922 44.53957 67.66156 45.31575 68.97249 45.71146 70.28342 46.10716 72.38573 46.60786 73.69666 46.83434 75.00758 47.06082 77.10992 47.28325 78.42085 47.34384 79.73178 47.40445 81.83409 47.36813 83.14502 47.27118 84.45595 47.17422 86.55826 46.88718 87.86919 46.64487 89.18011 46.40254 91.28246 45.89883 92.59338 45.5246 93.90431 45.15036 96.00662 44.43343 97.31755 43.94757 98.62848 43.46172 102.04175 42.02277 102.04175 42.02277"/>
<use data-text="y" xlink:href="#font_1_2" transform="matrix(10.037203,0,0,-10.036701,118.82579,79.64104)" fill="#0000ff"/>
<use data-text="(" xlink:href="#font_2_1" transform="matrix(10.037203,0,0,-10.036701,124.444248,79.64104)" fill="#0000ff"/>
<use data-text="t" xlink:href="#font_1_1" transform="matrix(10.037203,0,0,-10.036701,128.17554,79.64104)" fill="#0000ff"/>
<use data-text=")" xlink:href="#font_2_2" transform="matrix(10.037203,0,0,-10.036701,132.6699,79.64104)" fill="#0000ff"/>
<path transform="matrix(1.00008,0,0,-1.00003,12.631287,119.34723)" d="M57.6899 40.06253C57.6899 40.61276 57.24385 41.0588 56.69362 41.0588 56.14337 41.0588 55.69734 40.61276 55.69734 40.06253 55.69734 39.51228 56.14337 39.06625 56.69362 39.06625 57.24385 39.06625 57.6899 39.51228 57.6899 40.06253ZM56.69362 40.06253"/>
<path transform="matrix(1.00008,0,0,-1.00003,12.631287,119.34723)" stroke-width=".3985" stroke-linecap="butt" stroke-miterlimit="10" stroke-linejoin="miter" fill="none" stroke="#000000" d="M57.6899 40.06253C57.6899 40.61276 57.24385 41.0588 56.69362 41.0588 56.14337 41.0588 55.69734 40.61276 55.69734 40.06253 55.69734 39.51228 56.14337 39.06625 56.69362 39.06625 57.24385 39.06625 57.6899 39.51228 57.6899 40.06253ZM56.69362 40.06253"/>
<use data-text="(" xlink:href="#font_2_1" transform="matrix(10.037203,0,0,-10.036701,30.300698,89.78434)"/>
<use data-text="t" xlink:href="#font_1_1" transform="matrix(10.037203,0,0,-10.036701,34.032007,89.78434)"/>
<use data-text="," xlink:href="#font_2_3" transform="matrix(10.037203,0,0,-10.036701,38.527368,89.78434)"/>
<use data-text="y" xlink:href="#font_1_2" transform="matrix(10.037203,0,0,-10.036701,45.059885,89.78434)"/>
<use data-text="(" xlink:href="#font_2_1" transform="matrix(10.037203,0,0,-10.036701,50.67833,89.78434)"/>
<use data-text="t" xlink:href="#font_1_1" transform="matrix(10.037203,0,0,-10.036701,54.40963,89.78434)"/>
<use data-text=")" xlink:href="#font_2_2" transform="matrix(10.037203,0,0,-10.036701,58.90399,89.78434)"/>
<use data-text=")" xlink:href="#font_2_2" transform="matrix(10.037203,0,0,-10.036701,62.417016,89.78434)"/>
</svg>
