<svg xmlns="http://www.w3.org/2000/svg" xmlns:xlink="http://www.w3.org/1999/xlink" version="1.1" width="92" height="58" viewBox="0 0 92 58">
<defs>
<path id="font_1_1" d="M.6349945 .2529297V.31092835H.084991458V.2529297H.6349945Z"/>
<path id="font_2_2" d="M.4850006 .13195801 .45700074 .13696289C.43598939 .08299255 .41600038 .07598877 .37599183 .07598877H.11999512C.13598633 .1279602 .19499207 .19892884 .28799439 .2658844 .38398744 .33584596 .45799256 .38082887 .45799256 .49276734 .45799256 .63168337 .3659973 .6796875 .26098634 .6796875 .12399292 .6796875 .052993776 .5967102 .052993776 .54473879 .052993776 .51075747 .09098816 .49476625 .10798645 .49476625 .12599182 .49476625 .1329956 .50476077 .13699341 .5217438 .15299988 .5897064 .19198609 .64468386 .2539978 .64468386 .33099366 .64468386 .35299684 .5797119 .35299684 .50675967 .35299684 .3998108 .29899598 .33984376 .21199036 .26289369 .08898926 .15594483 .04598999 .08798218 .026992798 .009994507L.036987306 0H.45098878L.4850006 .13195801Z"/>
<path id="font_2_1" d="M.43699647 0V.0289917L.35299684 .035995485C.33198548 .037994386 .31999208 .04598999 .31999208 .08496094V.67367556L.31498719 .6796875 .10899353 .6446991V.6197052L.20199585 .6087036C.21899414 .6067047 .22599793 .5987091 .22599793 .56973269V.08496094C.22599793 .065979007 .22299195 .053985597 .21699524 .04698181 .21199036 .039993287 .20399475 .036987306 .19299317 .035995485L.10899353 .0289917V0H.43699647Z"/>
<path id="font_2_3" d="M.2999878 .17871094V.0769043C.2999878 .04296875 .2889862 .036987306 .2649994 .034988405L.20098877 .0289917V0H.46499635V.0289917L.41999818 .033981325C.39698792 .036987306 .3899994 .04296875 .3899994 .0769043V.17871094H.49299623V.22570801H.3899994V.66796877H.31698609C.22299195 .5298767 .11099243 .35577394 .018997193 .19970703L.027999878 .17871094H.2999878M.09098816 .22570801C.15098572 .33476258 .22099304 .4498291 .2979889 .5709076H.2999878V.22570801H.09098816Z"/>
<clipPath id="clip_3">
<path transform="matrix(.500025,0,0,-.500025,1.9933472,56.891046)" d="M0 0H177.19426V109.16235H0Z"/>
</clipPath>
<path id="font_4_1" d="M.42799378 .45222474 .43899537 .49023438H.31199647L.34599305 .6092224 .33399964 .6162262 .23699951 .53923037 .22399903 .49023438H.14299011L.13198853 .45222474H.21499634L.125 .08627319C.10998535 .029266358 .12199402-.01171875 .17199707-.01171875 .2519989-.01171875 .31599427 .054275514 .35598756 .1292572L.33399964 .1462555C.31098939 .10726929 .2599945 .040267946 .22898865 .040267946 .20799256 .040267946 .20799256 .0632782 .21398926 .088272098L.30299378 .45222474H.42799378Z"/>
<path id="font_4_2" d="M.070999149 .45393373 .07398987 .42893983 .14199829 .43093873C.1639862 .43193055 .16899109 .41493226 .1769867 .36291505 .18798828 .28489686 .20999146 .09286499 .20999146 .0128479 .20999146-.017166138 .20799256-.058166505 .18598938-.11117554 .16799927-.15318299 .14199829-.18218994 .12199402-.18218994 .10699463-.18218994 .09599304-.17118836 .08099365-.15118408 .068984989-.13517761 .06098938-.127182 .04598999-.127182 .019989014-.12818909-.005004883-.15818787-.005004883-.18719483-.005004883-.21418762 .023986817-.2421875 .067993167-.2421875 .15299988-.2421875 .18998719-.17919922 .27799989-.027160645 .2979889 .0068511965 .35798646 .11286926 .41999818 .21488953 .47698976 .30891419 .5399933 .40592958 .5399933 .4459381 .5399933 .48094178 .5289917 .5019531 .5219879 .5019531 .5029907 .5019531 .46899415 .49394227 .44400025 .47694398 .44499208 .4419403 .44299317 .3809204 .43099977 .33891297 .4149933 .28289796 .35598756 .17488098 .2899933 .06085205H.2869873C.27999879 .21388245 .26098634 .42492677 .24699402 .49795533L.23899842 .5019531 .070999149 .45393373Z"/>
</defs>
<path transform="matrix(.500025,0,0,-.500025,1.9933472,56.891046)" stroke-width=".19925" stroke-linecap="butt" stroke-miterlimit="10" stroke-linejoin="miter" fill="none" stroke="#929292" d="M35.43884 20.41505V23.24988M70.8777 20.41505V23.24988M106.31654 20.41505V23.24988M141.7554 20.41505V23.24988"/>
<path transform="matrix(.500025,0,0,-.500025,1.9933472,56.891046)" stroke-width=".19925" stroke-linecap="butt" stroke-miterlimit="10" stroke-linejoin="miter" fill="none" stroke="#929292" d="M17.71942 19.70654V23.95837M53.15826 19.70654V23.95837M124.03598 19.70654V23.95837M159.47483 19.70654V23.95837"/>
<path transform="matrix(.500025,0,0,-.500025,1.9933472,56.891046)" stroke-width=".19925" stroke-linecap="butt" stroke-miterlimit="10" stroke-linejoin="miter" fill="none" stroke="#929292" d="M87.17963 3.63873H90.01462M87.17963 40.0262H90.01462M87.17963 76.41365H90.01462"/>
<path transform="matrix(.500025,0,0,-.500025,1.9933472,56.891046)" stroke-width=".19925" stroke-linecap="butt" stroke-miterlimit="10" stroke-linejoin="miter" fill="none" stroke="#929292" d="M86.4711 58.21992H90.72313M86.4711 94.60738H90.72313"/>
<path transform="matrix(.500025,0,0,-.500025,1.9933472,56.891046)" stroke-width=".3985" stroke-linecap="butt" stroke-miterlimit="10" stroke-linejoin="miter" fill="none" stroke="#000000" d="M0 21.83246H175.20174"/>
<path transform="matrix(.500025,0,0,-.500025,89.598598,45.97427)" d="M1.99252 0-1.19551 1.59401 0 0-1.19551-1.59401"/>
<path transform="matrix(.500025,0,0,-.500025,1.9933472,56.891046)" stroke-width=".3985" stroke-linecap="butt" stroke-miterlimit="10" stroke-linejoin="miter" fill="none" stroke="#000000" d="M88.59712 0V107.16983"/>
<path transform="matrix(0,-.500025,-.500025,-0,46.29412,3.3034516)" d="M1.99252 0-1.19551 1.59401 0 0-1.19551-1.59401"/>
<use data-text="&#x2212;" xlink:href="#font_1_1" transform="matrix(7.9194958,0,0,-7.9194958,5.9035418,54.039407)"/>
<use data-text="2" xlink:href="#font_2_2" transform="matrix(7.9194958,0,0,-7.9194958,11.602329,54.039407)"/>
<use data-text="&#x2212;" xlink:href="#font_1_1" transform="matrix(7.9194958,0,0,-7.9194958,23.623927,54.039407)"/>
<use data-text="1" xlink:href="#font_2_1" transform="matrix(7.9194958,0,0,-7.9194958,29.322714,54.039407)"/>
<use data-text="1" xlink:href="#font_2_1" transform="matrix(7.9194958,0,0,-7.9194958,61.91384,54.039407)"/>
<use data-text="2" xlink:href="#font_2_2" transform="matrix(7.9194958,0,0,-7.9194958,79.634227,54.039407)"/>
<use data-text="2" xlink:href="#font_2_2" transform="matrix(7.9194958,0,0,-7.9194958,39.33071,30.431225)"/>
<use data-text="4" xlink:href="#font_2_3" transform="matrix(7.9194958,0,0,-7.9194958,39.33071,12.236315)"/>
<g clip-path="url(#clip_3)">
<path transform="matrix(.500025,0,0,-.500025,1.9933472,56.891046)" stroke-width="1.59404" stroke-linecap="butt" stroke-miterlimit="10" stroke-linejoin="miter" fill="none" stroke="#0000ff" d="M88.59712 40.0262 89.75427 40.62967 90.9114 41.25372 92.06856 41.89813 93.22571 42.56384 94.38286 43.25194 95.54002 43.96294 96.69716 44.69725 97.85431 45.4561 99.01144 46.24062 100.16861 47.05078 101.32576 47.88733 102.4829 48.75154 103.64006 49.64522 104.7972 50.56836 105.95435 51.5219 107.11151 52.50708 108.26865 53.52538 109.4258 54.57753 110.58295 55.66388 111.7401 56.7868 112.89725 57.94682 114.0544 59.14543 115.21155 60.38388 116.36868 61.6629 117.52585 62.98521 118.683 64.3512 119.84013 65.76266 120.9973 67.22125 122.15443 68.72626 123.31158 70.28271 124.46875 71.89122 125.62589 73.55304 126.78304 75.26926 127.94017 77.04297 129.09734 78.87434 130.25449 80.76831 131.41164 82.72504 132.56879 84.74509 133.72592 86.83319 134.88309 88.99042 136.04024 91.2197 137.19738 93.52303 138.35453 95.90094 139.51168 98.36018 140.66883 100.89894 141.82599 103.52484 142.98313 106.23462 144.14028 109.03554 144.84998 110.81122"/>
<path transform="matrix(.18559428,-.4642782,-.4642782,-.18559428,74.42194,1.4826698)" stroke-width="1.27522" stroke-linecap="round" stroke-linejoin="round" fill="none" stroke="#0000ff" d="M-2.27148 3.02866C-2.0822 1.8929 0 .18927 .56786 0 0-.18927-2.0822-1.8929-2.27148-3.02866"/>
</g>
<path transform="matrix(.500025,0,0,-.500025,1.9933472,56.891046)" stroke-width=".3985" stroke-linecap="butt" stroke-miterlimit="10" stroke-linejoin="miter" fill="none" stroke="#000000" d="M90.58968 40.0262C90.58968 41.12666 89.69759 42.01875 88.59712 42.01875 87.49666 42.01875 86.60457 41.12666 86.60457 40.0262 86.60457 38.92572 87.49666 38.03365 88.59712 38.03365 89.69759 38.03365 90.58968 38.92572 90.58968 40.0262ZM88.59712 40.0262"/>
<path transform="matrix(.500025,0,0,-.500025,1.9933472,56.891046)" stroke-width=".3985" stroke-linecap="butt" stroke-miterlimit="10" stroke-linejoin="miter" fill="none" stroke="#000000" d="M99.44939 44.57463C99.44939 45.6751 98.55731 46.56718 97.45683 46.56718 96.35637 46.56718 95.46428 45.6751 95.46428 44.57463 95.46428 43.47415 96.35637 42.58208 97.45683 42.58208 98.55731 42.58208 99.44939 43.47415 99.44939 44.57463ZM97.45683 44.57463"/>
<path transform="matrix(.500025,0,0,-.500025,1.9933472,56.891046)" stroke-width=".3985" stroke-linecap="butt" stroke-miterlimit="10" stroke-linejoin="miter" fill="none" stroke="#000000" d="M108.3091 50.26016C108.3091 51.36064 107.41702 52.25272 106.31654 52.25272 105.21608 52.25272 104.32399 51.36064 104.32399 50.26016 104.32399 49.1597 105.21608 48.26761 106.31654 48.26761 107.41702 48.26761 108.3091 49.1597 108.3091 50.26016ZM106.31654 50.26016"/>
<path transform="matrix(.500025,0,0,-.500025,1.9933472,56.891046)" stroke-width=".3985" stroke-linecap="butt" stroke-miterlimit="10" stroke-linejoin="miter" fill="none" stroke="#000000" d="M117.16881 57.3671C117.16881 58.46756 116.27673 59.35965 115.17625 59.35965 114.07579 59.35965 113.1837 58.46756 113.1837 57.3671 113.1837 56.26662 114.07579 55.37454 115.17625 55.37454 116.27673 55.37454 117.16881 56.26662 117.16881 57.3671ZM115.17625 57.3671"/>
<path transform="matrix(.500025,0,0,-.500025,1.9933472,56.891046)" stroke-width=".3985" stroke-linecap="butt" stroke-miterlimit="10" stroke-linejoin="miter" fill="none" stroke="#000000" d="M126.02853 66.25075C126.02853 67.35121 125.13644 68.2433 124.03598 68.2433 122.9355 68.2433 122.04343 67.35121 122.04343 66.25075 122.04343 65.15027 122.9355 64.2582 124.03598 64.2582 125.13644 64.2582 126.02853 65.15027 126.02853 66.25075ZM124.03598 66.25075"/>
<path transform="matrix(.500025,0,0,-.500025,1.9933472,56.891046)" stroke-width=".3985" stroke-linecap="butt" stroke-miterlimit="10" stroke-linejoin="miter" fill="none" stroke="#000000" d="M134.88825 77.3553C134.88825 78.45578 133.99616 79.34785 132.89569 79.34785 131.79521 79.34785 130.90314 78.45578 130.90314 77.3553 130.90314 76.25484 131.79521 75.36275 132.89569 75.36275 133.99616 75.36275 134.88825 76.25484 134.88825 77.3553ZM132.89569 77.3553"/>
<path transform="matrix(.500025,0,0,-.500025,1.9933472,56.891046)" stroke-width=".3985" stroke-linecap="butt" stroke-miterlimit="10" stroke-linejoin="miter" fill="none" stroke="#000000" d="M143.74796 91.23602C143.74796 92.33649 142.85587 93.22858 141.7554 93.22858 140.65493 93.22858 139.76285 92.33649 139.76285 91.23602 139.76285 90.13554 140.65493 89.24347 141.7554 89.24347 142.85587 89.24347 143.74796 90.13554 143.74796 91.23602ZM141.7554 91.23602"/>
<path transform="matrix(.500025,0,0,-.500025,1.9933472,56.891046)" stroke-width=".3985" stroke-linecap="butt" stroke-miterlimit="10" stroke-linejoin="miter" fill="none" stroke="#000000" d="M152.60767 108.58691C152.60767 109.6874 151.71559 110.57947 150.61511 110.57947 149.51465 110.57947 148.62256 109.6874 148.62256 108.58691 148.62256 107.48645 149.51465 106.59436 150.61511 106.59436 151.71559 106.59436 152.60767 107.48645 152.60767 108.58691ZM150.61511 108.58691"/>
<path transform="matrix(.500025,0,0,-.500025,1.9933472,56.891046)" stroke-width=".3985" stroke-linecap="butt" stroke-miterlimit="10" stroke-linejoin="miter" fill="none" stroke="#000000" d=""/>
<use data-text="t" xlink:href="#font_4_1" transform="matrix(7.9194958,0,0,-7.9194958,85.34851,44.205915)"/>
<use data-text="y" xlink:href="#font_4_2" transform="matrix(7.9194958,0,0,-7.9194958,48.424169,7.923601)"/>
</svg>
