<svg xmlns="http://www.w3.org/2000/svg" xmlns:xlink="http://www.w3.org/1999/xlink" version="1.1" width="195" height="52" viewBox="0 0 195 52">
<defs>
<path id="font_1_5" d="M.20599365 .3996582H.2999878C.31999208 .3996582 .32998658 .3996582 .32998658 .41966249 .32998658 .43066407 .31999208 .43066407 .3019867 .43066407H.21398926C.25 .5724945 .25498963 .59246829 .25498963 .59846499 .25498963 .61546328 .24299622 .62545779 .22599793 .62545779 .22299195 .62545779 .19499207 .62446597 .18598938 .58947756L.14698792 .43066407H.052993776C.032989503 .43066407 .022994996 .43066407 .022994996 .4116516 .022994996 .3996582 .0309906 .3996582 .050994874 .3996582H.13899231C.066986087 .11608887 .06298828 .099121097 .06298828 .08114624 .06298828 .02722168 .100997928-.0107421879 .15499878-.0107421879 .25698854-.0107421879 .31399537 .13505554 .31399537 .14305115 .31399537 .1530304 .30599977 .1530304 .3019867 .1530304 .29299928 .1530304 .2919922 .15003968 .2869873 .13905335 .24398804 .035217287 .19099427 .011245728 .15699768 .011245728 .13598633 .011245728 .12599182 .024230957 .12599182 .057174684 .12599182 .08114624 .12799073 .088134769 .13198853 .10510254L.20599365 .3996582Z"/>
<path id="font_2_1" d="M.4889984 .31877137C.4889984 .42585755 .47799684 .49090577 .44499208 .55496218 .40098573 .6430359 .31999208 .66503909 .2649994 .66503909 .13899231 .66503909 .09298706 .5709839 .07899475 .5429535 .042999269 .4698944 .040985109 .3708191 .040985109 .31877137 .040985109 .25271607 .04399109 .15162659 .09199524 .07156372 .13798523-.0024871827 .21199036-.021484375 .2649994-.021484375 .31298829-.021484375 .39898683-.0064849855 .44898988 .09257507 .48599244 .16464234 .4889984 .2537079 .4889984 .31877137M.2649994 .006515503C.23098755 .006515503 .1619873 .022521973 .14099121 .12760926 .12998963 .18466187 .12998963 .2787323 .12998963 .33078004 .12998963 .3998413 .12998963 .4698944 .14099121 .5249481 .1619873 .6270294 .23999024 .6370239 .2649994 .6370239 .29899598 .6370239 .36799623 .62002566 .3880005 .5289459 .3999939 .4738922 .3999939 .39883424 .3999939 .33078004 .3999939 .27172853 .3999939 .18165589 .3880005 .12561035 .36698915 .020523072 .2979889 .006515503 .2649994 .006515503Z"/>
<path id="font_2_2" d="M.31399537 .63708499C.31399537 .664032 .31199647 .66503909 .2849884 .66503909 .24398804 .6251831 .19099427 .6013489 .09599304 .6013489V.5683594C.12298584 .5683594 .1769867 .5683594 .23498535 .5953522V.08203125C.23498535 .04499817 .23199463 .032989503 .13699341 .032989503H.101989749V0C.14299011 .0029907227 .22898865 .0029907227 .27398683 .0029907227 .31900025 .0029907227 .4059906 .0029907227 .44699098 0V.032989503H.4119873C.31698609 .032989503 .31399537 .04499817 .31399537 .08203125V.63708499Z"/>
<path id="font_2_3" d="M.28199769 .20405579C.2979889 .21907044 .33999635 .2520752 .35598756 .26608277 .41799928 .32312013 .47698976 .3781433 .47698976 .46917726 .47698976 .588089 .3769989 .66503909 .2519989 .66503909 .13198853 .66503909 .052993776 .57411196 .052993776 .48516847 .052993776 .4361725 .09199524 .4291687 .10598755 .4291687 .1269989 .4291687 .1579895 .4441681 .1579895 .48217774 .1579895 .5341797 .10798645 .5341797 .09599304 .5341797 .125 .6070709 .19198609 .6320343 .24099732 .6320343 .33399964 .6320343 .38198854 .55314639 .38198854 .46917726 .38198854 .36514283 .30899049 .28910829 .19099427 .16804505L.06498718 .037994386C.052993776 .026992798 .052993776 .024993897 .052993776 0H.44799806L.47698976 .17904663H.44599916C.44299317 .1590271 .43499757 .10900879 .4229889 .08999634 .4169922 .08198547 .34098817 .08198547 .32499696 .08198547H.14698792L.28199769 .20405579Z"/>
<path id="font_1_1" d="M.19198609 .052993776C.19198609 .08198547 .16799927 .10598755 .13899231 .10598755 .10998535 .10598755 .085998538 .08198547 .085998538 .052993776 .085998538 .023986817 .10998535 0 .13899231 0 .16799927 0 .19198609 .023986817 .19198609 .052993776Z"/>
<path id="font_3_1" d="M.7919922 .5736542C.80400088 .6226196 .82598879 .64660647 .897995 .6496124 .9079895 .6496124 .91600039 .65560916 .91600039 .6686096 .91600039 .6746063 .9109955 .6826172 .901001 .6826172 .8939972 .6826172 .875 .6796112 .8009949 .6796112 .72099307 .6796112 .70799258 .6826172 .69898989 .6826172 .68299868 .6826172 .6799927 .6716156 .6799927 .66360476 .6799927 .65060427 .69299319 .6496124 .70199587 .6496124 .7630005 .6476135 .7630005 .6206207 .7630005 .6066284 .7630005 .6016388 .7630005 .5966339 .7589874 .58065798L.6489868 .14292908 .4079895 .6646118C.3999939 .6826172 .397995 .6826172 .37399293 .6826172H.24398804C.22599793 .6826172 .21299744 .6826172 .21299744 .66360476 .21299744 .6496124 .22499085 .6496124 .24598694 .6496124 .2539978 .6496124 .28399659 .6496124 .30699159 .6436157L.17298889 .10694885C.16099549 .05697632 .1349945 .034988405 .067993167 .032989503 .06199646 .032989503 .049987794 .03199768 .049987794 .01399231 .049987794 .0079956059 .054992677 0 .06498718 0 .068984989 0 .09199524 .0029907227 .1639862 .0029907227 .24299622 .0029907227 .2579956 0 .2669983 0 .2709961 0 .28599549 0 .28599549 .018997193 .28599549 .0309906 .2749939 .032989503 .2679901 .032989503 .23199463 .033996583 .20199585 .039993287 .20199585 .07496643 .20199585 .079956058 .20498657 .093948367 .20498657 .094955448L.33599855 .6166229H.33699037L.61499026 .017990113C.621994 .0019989014 .6230011 0 .6339874 0 .647995 0 .6489868 .0039978029 .6529999 .020996094L.7919922 .5736542Z"/>
<path id="font_4_1" d="M.69898989 .22743225C.71499636 .22743225 .7369995 .22743225 .7369995 .25042726 .7369995 .2734375 .71499636 .2734375 .69898989 .2734375H.12599182C.10998535 .2734375 .08799744 .2734375 .08799744 .25042726 .08799744 .22743225 .10998535 .22743225 .12599182 .22743225H.69898989Z"/>
<path id="font_5_1" d="M.269989 .55532839C.2939911 .5173187 .32199098 .4893036 .34700013 .4703064 .4079895 .4242859 .46899415 .41429139 .47099305 .41429139 .48298646 .41429139 .48298646 .42529298 .48298646 .43328858 .48298646 .44929505 .48199464 .45030213 .45999146 .4573059 .3919983 .4763031 .35299684 .51231387 .32998658 .537323 .2789917 .59233096 .2669983 .652359 .26098634 .6843567 .2599945 .6893463 .2559967 .6933594 .25 .6933594 .24099732 .6933594 .23999024 .6873474 .23799134 .675354 .21499634 .56433108 .14399719 .48631288 .033996583 .455307 .018997193 .45030213 .016998291 .45030213 .016998291 .43328858 .016998291 .42529298 .016998291 .41429139 .0289917 .41429139 .03199768 .41429139 .09098816 .42529298 .147995 .4663086 .18099976 .49131776 .20799256 .5213165 .22999573 .55532839V-.15785218C.22999573-.17585755 .22999573-.19386292 .25-.19386292 .269989-.19386292 .269989-.17585755 .269989-.15785218V.55532839Z"/>
<path id="font_1_2" d="M.37298585 .37835694C.35499574 .41537477 .32598878 .4423828 .2809906 .4423828 .1639862 .4423828 .039993287 .29533387 .039993287 .14929199 .039993287 .055267335 .09498596-.0107421879 .17298889-.0107421879 .19299317-.0107421879 .24299622-.0067443849 .30299378 .06427002 .31098939 .022247315 .34599305-.0107421879 .3939972-.0107421879 .42900086-.0107421879 .45199586 .012252808 .46798707 .044265748 .4850006 .08027649 .49798585 .14129639 .49798585 .14329529 .49798585 .1532898 .4889984 .1532898 .48599244 .1532898 .47599793 .1532898 .47499085 .14929199 .47200013 .13528443 .45498658 .07026672 .43699647 .011245728 .3959961 .011245728 .36898805 .011245728 .3659973 .037261964 .3659973 .057266237 .3659973 .07926941 .36799623 .08728027 .3789978 .13128662 .3899994 .17329407 .3919983 .18330384 .40098573 .22131348L.43699647 .36135865C.44400025 .38935853 .44400025 .39135743 .44400025 .39537049 .44400025 .41236878 .43199159 .42237855 .4149933 .42237855 .3909912 .42237855 .37599183 .4003601 .37298585 .37835694M.30799867 .119277957C.30299378 .10127258 .30299378 .09927368 .28799439 .08227539 .24398804 .027252198 .20298767 .011245728 .1749878 .011245728 .125 .011245728 .11099243 .06626892 .11099243 .105285648 .11099243 .1552887 .14299011 .27833558 .1659851 .32434083 .19699097 .38336183 .24198914 .42037965 .28199769 .42037965 .34700013 .42037965 .36099244 .3383484 .36099244 .33235169 .36099244 .32633973 .35899354 .32034303 .35798646 .31533814L.30799867 .119277957Z"/>
<path id="font_1_3" d="M.23899842 .68333438C.23899842 .6843262 .23899842 .69433596 .22599793 .69433596 .20298767 .69433596 .12998963 .6863251 .10398865 .6843262 .09599304 .68333438 .084991458 .6823273 .084991458 .6643219 .084991458 .6523285 .09399414 .6523285 .10899353 .6523285 .15699768 .6523285 .15899658 .6453247 .15899658 .6353302 .15899658 .6283264 .1499939 .5943451 .14498902 .573349L.06298828 .24731446C.050994874 .1973114 .04699707 .18130493 .04699707 .14628601 .04699707 .05126953 .099990848-.0107421879 .17399597-.0107421879 .2919922-.0107421879 .4149933 .1382904 .4149933 .28233338 .4149933 .37335206 .3619995 .4423828 .28199769 .4423828 .23599243 .4423828 .19499207 .41337586 .16499329 .38235475L.23899842 .68333438M.14498902 .30534364C.15098572 .3273468 .15098572 .3293457 .1599884 .3403473 .20899964 .405365 .2539978 .42037965 .27999879 .42037965 .31599427 .42037965 .34298707 .3903656 .34298707 .32633973 .34298707 .26733399 .30999757 .15229798 .2919922 .11428833 .25898744 .04725647 .21299744 .011245728 .17399597 .011245728 .13999939 .011245728 .10699463 .038253786 .10699463 .11227417 .10699463 .13128662 .10699463 .15029907 .12298584 .21331787L.14498902 .30534364Z"/>
<path id="font_1_4" d="M.2869873 .68333438C.2869873 .6843262 .2869873 .69433596 .27398683 .69433596 .25099183 .69433596 .17799378 .6863251 .1519928 .6843262 .14399719 .68333438 .1329956 .6823273 .1329956 .6643219 .1329956 .6523285 .14199829 .6523285 .15699768 .6523285 .20498657 .6523285 .20698548 .6453247 .20698548 .6353302L.20399475 .6153412 .05899048 .039260866C.054992677 .025253296 .054992677 .023254395 .054992677 .01725769 .054992677-.0057525637 .07499695-.0107421879 .083999637-.0107421879 .099990848-.0107421879 .115997318 .0012512207 .12098694 .015258789L.13999939 .091278079 .1619873 .18130493C.16799927 .2033081 .17399597 .22531128 .1789856 .24832154 .18099976 .25431825 .18899536 .28733827 .18998719 .29333497 .19299317 .30233766 .22399903 .35835267 .2579956 .38536073 .27999879 .4013672 .31098939 .42037965 .35398866 .42037965 .39698792 .42037965 .4079895 .3863678 .4079895 .35035707 .4079895 .29634095 .36999513 .18730164 .34599305 .12628174 .33799745 .103271488 .33299256 .091278079 .33299256 .0712738 .33299256 .024261475 .36799623-.0107421879 .4149933-.0107421879 .5089874-.0107421879 .54599 .13528443 .54599 .14329529 .54599 .1532898 .5369873 .1532898 .5339966 .1532898 .5239868 .1532898 .5239868 .15029907 .5189972 .13528443 .5039978 .08227539 .47200013 .011245728 .4169922 .011245728 .3999939 .011245728 .3929901 .021255494 .3929901 .044265748 .3929901 .0692749 .4019928 .09327698 .41099549 .11528015 .4269867 .15829468 .47200013 .2773285 .47200013 .3353424 .47200013 .4003601 .43199159 .4423828 .35699464 .4423828 .2939911 .4423828 .24598694 .41137696 .20899964 .36535646L.2869873 .68333438Z"/>
</defs>
<path transform="matrix(1,0,0,-1.00002,15.839996,18.316126)" stroke-width=".79701" stroke-linecap="butt" stroke-miterlimit="10" stroke-linejoin="miter" fill="none" stroke="#000000" d="M-14.17339 0H169.28385"/>
<path transform="matrix(1,0,0,-1.00002,185.52234,18.316126)" stroke-width=".79701" stroke-linecap="round" stroke-linejoin="round" fill="none" stroke="#000000" d="M-2.55046 3.11095C-2.0845 1.24435-1.04614 .36295 0 0-1.04614-.36295-2.0845-1.24435-2.55046-3.11095"/>
<use data-text="t" xlink:href="#font_1_5" transform="matrix(10.9091,0,0,-10.909318,189.955,21.671193)"/>
<path transform="matrix(1,0,0,-1.00002,15.839996,18.316126)" stroke-width=".3985" stroke-linecap="butt" stroke-miterlimit="10" stroke-linejoin="miter" fill="none" stroke="#000000" d="M0 2.83484V-2.83484"/>
<use data-text="t" xlink:href="#font_1_5" transform="matrix(10.9091,0,0,-10.909318,11.503998,31.696396)"/>
<use data-text="0" xlink:href="#font_2_1" transform="matrix(7.9701,0,0,-7.9702599,15.443001,33.332429)"/>
<path transform="matrix(1,0,0,-1.00002,15.839996,18.316126)" stroke-width=".3985" stroke-linecap="butt" stroke-miterlimit="10" stroke-linejoin="miter" fill="none" stroke="#000000" d="M28.3468 2.83484V-2.83484"/>
<use data-text="t" xlink:href="#font_1_5" transform="matrix(10.9091,0,0,-10.909318,39.850999,31.696396)"/>
<use data-text="1" xlink:href="#font_2_2" transform="matrix(7.9701,0,0,-7.9702599,43.79,33.332429)"/>
<path transform="matrix(1,0,0,-1.00002,15.839996,18.316126)" stroke-width=".3985" stroke-linecap="butt" stroke-miterlimit="10" stroke-linejoin="miter" fill="none" stroke="#000000" d="M56.69362 2.83484V-2.83484"/>
<use data-text="t" xlink:href="#font_1_5" transform="matrix(10.9091,0,0,-10.909318,68.198,31.696396)"/>
<use data-text="2" xlink:href="#font_2_3" transform="matrix(7.9701,0,0,-7.9702599,72.137,33.332429)"/>
<path transform="matrix(1,0,0,-1.00002,15.839996,18.316126)" stroke-width=".3985" stroke-linecap="butt" stroke-miterlimit="10" stroke-linejoin="miter" fill="none" stroke="#000000" d="M85.04042-2.83484"/>
<use data-text="." xlink:href="#font_1_1" transform="matrix(10.9091,0,0,-10.909318,94.517,26.138283)"/>
<use data-text="." xlink:href="#font_1_1" transform="matrix(10.9091,0,0,-10.909318,99.34973,26.138283)"/>
<use data-text="." xlink:href="#font_1_1" transform="matrix(10.9091,0,0,-10.909318,104.193378,26.138283)"/>
<path transform="matrix(1,0,0,-1.00002,15.839996,18.316126)" stroke-width=".3985" stroke-linecap="butt" stroke-miterlimit="10" stroke-linejoin="miter" fill="none" stroke="#000000" d="M113.38724 2.83484V-2.83484"/>
<use data-text="t" xlink:href="#font_1_5" transform="matrix(10.9091,0,0,-10.909318,117.812999,31.696396)"/>
<use data-text="N" xlink:href="#font_3_1" transform="matrix(7.9701,0,0,-7.9702599,121.752,33.38543)"/>
<use data-text="&#x2212;" xlink:href="#font_4_1" transform="matrix(7.9701,0,0,-7.9702599,129.32199,33.38543)"/>
<use data-text="1" xlink:href="#font_2_2" transform="matrix(7.9701,0,0,-7.9702599,135.909,33.38543)"/>
<path transform="matrix(1,0,0,-1.00002,15.839996,18.316126)" stroke-width=".3985" stroke-linecap="butt" stroke-miterlimit="10" stroke-linejoin="miter" fill="none" stroke="#000000" d="M141.73404 2.83484V-2.83484"/>
<use data-text="t" xlink:href="#font_1_5" transform="matrix(10.9091,0,0,-10.909318,151.56999,31.696396)"/>
<use data-text="N" xlink:href="#font_3_1" transform="matrix(7.9701,0,0,-7.9702599,155.509,33.38543)"/>
<use data-text="&#x2191;" xlink:href="#font_5_1" transform="matrix(10.9091,0,0,-10.909318,13.112999,39.649557)"/>
<use data-text="a" xlink:href="#font_1_2" transform="matrix(10.9091,0,0,-10.909318,12.956993,46.691698)"/>
<use data-text="&#x2191;" xlink:href="#font_5_1" transform="matrix(10.9091,0,0,-10.909318,154.847,39.649557)"/>
<use data-text="b" xlink:href="#font_1_3" transform="matrix(10.9091,0,0,-10.909318,155.233,49.57075)"/>
<path transform="matrix(1,0,0,-1.00002,15.839996,18.316126)" stroke-width=".3985" stroke-linecap="butt" stroke-miterlimit="10" stroke-linejoin="miter" fill="none" stroke="#000000" d="M0 8.50412V14.17339"/>
<path transform="matrix(1,0,0,-1.00002,15.839996,18.316126)" stroke-width=".3985" stroke-linecap="butt" stroke-miterlimit="10" stroke-linejoin="miter" fill="none" stroke="#000000" d="M.3985 11.33855H10.77191"/>
<path transform="matrix(-1,-0,0,1.00002,16.039246,6.9773495)" stroke-width=".3985" stroke-linecap="round" stroke-linejoin="round" fill="none" stroke="#000000" d="M-2.07224 2.39104C-1.69365 .95639-.84999 .27895 0 0-.84999-.27895-1.69365-.95639-2.07224-2.39104"/>
<path transform="matrix(1,0,0,-1.00002,15.839996,18.316126)" stroke-width=".3985" stroke-linecap="butt" stroke-miterlimit="10" stroke-linejoin="miter" fill="none" stroke="#000000" d="M17.57486 11.33855H27.9483"/>
<path transform="matrix(1,0,0,-1.00002,43.98755,6.9773495)" stroke-width=".3985" stroke-linecap="round" stroke-linejoin="round" fill="none" stroke="#000000" d="M-2.07224 2.39104C-1.69365 .95639-.84999 .27895 0 0-.84999-.27895-1.69365-.95639-2.07224-2.39104"/>
<path transform="matrix(1,0,0,-1.00002,15.839996,18.316126)" stroke-width=".3985" stroke-linecap="butt" stroke-miterlimit="10" stroke-linejoin="miter" fill="none" stroke="#000000" d="M28.3468 8.50412V14.17339"/>
<path transform="matrix(1,0,0,-1.00002,15.839996,18.316126)" stroke-width=".3985" stroke-linecap="butt" stroke-miterlimit="10" stroke-linejoin="miter" fill="none" stroke="#000000" d="M28.7453 11.33855H39.11873"/>
<path transform="matrix(-1,-0,0,1.00002,44.386049,6.9773495)" stroke-width=".3985" stroke-linecap="round" stroke-linejoin="round" fill="none" stroke="#000000" d="M-2.07224 2.39104C-1.69365 .95639-.84999 .27895 0 0-.84999-.27895-1.69365-.95639-2.07224-2.39104"/>
<path transform="matrix(1,0,0,-1.00002,15.839996,18.316126)" stroke-width=".3985" stroke-linecap="butt" stroke-miterlimit="10" stroke-linejoin="miter" fill="none" stroke="#000000" d="M42.5202 5.66927"/>
<use data-text="h" xlink:href="#font_1_4" transform="matrix(10.9091,0,0,-10.909318,55.216997,8.810935)"/>
<path transform="matrix(1,0,0,-1.00002,15.839996,18.316126)" stroke-width=".3985" stroke-linecap="butt" stroke-miterlimit="10" stroke-linejoin="miter" fill="none" stroke="#000000" d="M45.92168 11.33855H56.2951"/>
<path transform="matrix(1,0,0,-1.00002,72.33435,6.9773495)" stroke-width=".3985" stroke-linecap="round" stroke-linejoin="round" fill="none" stroke="#000000" d="M-2.07224 2.39104C-1.69365 .95639-.84999 .27895 0 0-.84999-.27895-1.69365-.95639-2.07224-2.39104"/>
<path transform="matrix(1,0,0,-1.00002,15.839996,18.316126)" stroke-width=".3985" stroke-linecap="butt" stroke-miterlimit="10" stroke-linejoin="miter" fill="none" stroke="#000000" d="M56.69362 8.50412V14.17339"/>
<path transform="matrix(1,0,0,-1.00002,15.839996,18.316126)" stroke-width=".3985" stroke-linecap="butt" stroke-miterlimit="10" stroke-linejoin="miter" fill="none" stroke="#000000" d="M113.38724 8.50412V14.17339"/>
<path transform="matrix(1,0,0,-1.00002,15.839996,18.316126)" stroke-width=".3985" stroke-linecap="butt" stroke-miterlimit="10" stroke-linejoin="miter" fill="none" stroke="#000000" d="M113.78574 11.33855H124.15915"/>
<path transform="matrix(-1,-0,0,1.00002,129.42649,6.9773495)" stroke-width=".3985" stroke-linecap="round" stroke-linejoin="round" fill="none" stroke="#000000" d="M-2.07224 2.39104C-1.69365 .95639-.84999 .27895 0 0-.84999-.27895-1.69365-.95639-2.07224-2.39104"/>
<path transform="matrix(1,0,0,-1.00002,15.839996,18.316126)" stroke-width=".3985" stroke-linecap="butt" stroke-miterlimit="10" stroke-linejoin="miter" fill="none" stroke="#000000" d="M127.56062 5.66927"/>
<use data-text="h" xlink:href="#font_1_4" transform="matrix(10.9091,0,0,-10.909318,140.258,8.810935)"/>
<path transform="matrix(1,0,0,-1.00002,15.839996,18.316126)" stroke-width=".3985" stroke-linecap="butt" stroke-miterlimit="10" stroke-linejoin="miter" fill="none" stroke="#000000" d="M130.9621 11.33855H141.33554"/>
<path transform="matrix(1,0,0,-1.00002,157.37479,6.9773495)" stroke-width=".3985" stroke-linecap="round" stroke-linejoin="round" fill="none" stroke="#000000" d="M-2.07224 2.39104C-1.69365 .95639-.84999 .27895 0 0-.84999-.27895-1.69365-.95639-2.07224-2.39104"/>
<path transform="matrix(1,0,0,-1.00002,15.839996,18.316126)" stroke-width=".3985" stroke-linecap="butt" stroke-miterlimit="10" stroke-linejoin="miter" fill="none" stroke="#000000" d="M141.73404 8.50412V14.17339"/>
</svg>
