<svg xmlns="http://www.w3.org/2000/svg" xmlns:xlink="http://www.w3.org/1999/xlink" version="1.1" width="152" height="58" viewBox="0 0 152 58">
<defs>
<path id="font_1_1" d="M.42799378 .45222474 .43899537 .49023438H.31199647L.34599305 .6092224 .33399964 .6162262 .23699951 .53923037 .22399903 .49023438H.14299011L.13198853 .45222474H.21499634L.125 .08627319C.10998535 .029266358 .12199402-.01171875 .17199707-.01171875 .2519989-.01171875 .31599427 .054275514 .35598756 .1292572L.33399964 .1462555C.31098939 .10726929 .2599945 .040267946 .22898865 .040267946 .20799256 .040267946 .20799256 .0632782 .21398926 .088272098L.30299378 .45222474H.42799378Z"/>
<path id="font_1_2" d="M.5329895 .48995973C.5039978 .388031 .48799134 .33506776 .46199037 .2741089 .41799928 .173172 .33099366 .040267946 .24798584 .040267946 .21598816 .040267946 .20799256 .070251468 .22299195 .12820435L.31900025 .4970703 .31399537 .50205996 .13198853 .47375489 .12599182 .4497528 .18798828 .44476319C.21199036 .44276429 .21099854 .42778016 .20298767 .39682008L.13398743 .13316345C.11299133 .053253175 .12098694-.01171875 .20098877-.01171875 .29699708-.01171875 .4019928 .09420776 .46199037 .21005249H.46398927L.43099977 .096206668C.4119873 .029266358 .42399598-.01171875 .47698976-.01171875 .548996-.01171875 .60899356 .057250978 .6439972 .13116455L.6199951 .14613343C.59999087 .11218262 .55599978 .040267946 .5279999 .040267946 .5069885 .040267946 .5069885 .06324768 .5149994 .09420776L.621994 .5019531 .5329895 .48995973Z"/>
<path id="font_2_3" d="M.43699647 0V.0289917L.35299684 .035995485C.33198548 .037994386 .31999208 .04598999 .31999208 .08496094V.67367556L.31498719 .6796875 .10899353 .6446991V.6197052L.20199585 .6087036C.21899414 .6067047 .22599793 .5987091 .22599793 .56973269V.08496094C.22599793 .065979007 .22299195 .053985597 .21699524 .04698181 .21199036 .039993287 .20399475 .036987306 .19299317 .035995485L.10899353 .0289917V0H.43699647Z"/>
<path id="font_2_1" d="M.1749878 .2822113C.1749878 .56832888 .2619934 .65437319 .32499696 .66737368V.6923828C.1499939 .685379 .10499573 .46829225 .10499573 .2822113 .10499573 .09614563 .1499939-.12094116 .32499696-.12792969V-.10293579C.2669983-.090927127 .1749878-.0059051516 .1749878 .2822113Z"/>
<path id="font_2_2" d="M.1749878 .2822113C.1749878-.0059051516 .08299255-.090927127 .024993897-.10293579V-.12792969C.19999695-.12094116 .24499512 .09614563 .24499512 .2822113 .24499512 .46829225 .19999695 .685379 .024993897 .6923828V.66737368C.08799744 .65437319 .1749878 .56832888 .1749878 .2822113Z"/>
<path id="font_2_4" d="M.2999878 .17871094V.0769043C.2999878 .04296875 .2889862 .036987306 .2649994 .034988405L.20098877 .0289917V0H.46499635V.0289917L.41999818 .033981325C.39698792 .036987306 .3899994 .04296875 .3899994 .0769043V.17871094H.49299623V.22570801H.3899994V.66796877H.31698609C.22299195 .5298767 .11099243 .35577394 .018997193 .19970703L.027999878 .17871094H.2999878M.09098816 .22570801C.15098572 .33476258 .22099304 .4498291 .2979889 .5709076H.2999878V.22570801H.09098816Z"/>
</defs>
<path transform="matrix(1.00008,0,0,-1.00002,19.595932,37.848459)" stroke-width=".79701" stroke-linecap="butt" stroke-miterlimit="10" stroke-linejoin="miter" fill="none" stroke="#000000" d="M-18.42523 0H128.2694"/>
<path transform="matrix(1.00008,0,0,-1.00002,147.87558,37.848459)" stroke-width=".6376" stroke-linecap="round" stroke-linejoin="round" fill="none" stroke="#000000" d="M-1.55415 2.0722C-1.42464 1.29512 0 .1295 .38852 0 0-.1295-1.42464-1.29512-1.55415-2.0722"/>
<use data-text="t" xlink:href="#font_1_1" transform="matrix(10.037203,0,0,-10.036601,146.44408,47.632654)"/>
<path transform="matrix(1.00008,0,0,-1.00002,19.595932,37.848459)" stroke-width=".79701" stroke-linecap="butt" stroke-miterlimit="10" stroke-linejoin="miter" fill="none" stroke="#000000" d="M0-18.42523V36.14313"/>
<path transform="matrix(0,-1.00002,-1.00008,-0,19.595932,1.7046013)" stroke-width=".6376" stroke-linecap="round" stroke-linejoin="round" fill="none" stroke="#000000" d="M-1.55415 2.0722C-1.42464 1.29512 0 .1295 .38852 0 0-.1295-1.42464-1.29512-1.55415-2.0722"/>
<path transform="matrix(1.00008,0,0,-1.00002,19.595932,37.848459)" stroke-width="1.7008" stroke-linecap="butt" stroke-miterlimit="10" stroke-linejoin="miter" fill="none" stroke="#ff8000" d="M-18.42523 0H18.42523"/>
<path transform="matrix(1.00008,0,0,-1.00002,19.595932,37.848459)" stroke-width=".79701" stroke-linecap="butt" stroke-dasharray="2.98883,2.98883" stroke-miterlimit="10" stroke-linejoin="miter" fill="none" stroke="#ff8000" d="M18.42523 0V18.42523"/>
<path transform="matrix(1.00008,0,0,-1.00002,19.595932,37.848459)" stroke-width="1.7008" stroke-linecap="butt" stroke-miterlimit="10" stroke-linejoin="miter" fill="none" stroke="#ff8000" d="M18.42523 18.42523H128.97676"/>
<path transform="matrix(1.00008,0,0,-1.00002,19.595932,37.848459)" stroke-width=".3985" stroke-linecap="butt" stroke-miterlimit="10" stroke-linejoin="miter" fill="none" stroke="#ff8000" d="M46.06311 18.42523"/>
<use data-text="u" xlink:href="#font_1_2" transform="matrix(10.037203,0,0,-10.036601,54.258707,14.386988)" fill="#ff8000"/>
<use data-text="1" xlink:href="#font_2_3" transform="matrix(7.6081087,0,0,-7.6076529,60.79322,16.02402)" fill="#ff8000"/>
<use data-text="(" xlink:href="#font_2_1" transform="matrix(10.037203,0,0,-10.036601,65.32758,14.386988)" fill="#ff8000"/>
<use data-text="t" xlink:href="#font_1_1" transform="matrix(10.037203,0,0,-10.036601,69.05888,14.386988)" fill="#ff8000"/>
<use data-text=")" xlink:href="#font_2_2" transform="matrix(10.037203,0,0,-10.036601,73.553249,14.386988)" fill="#ff8000"/>
<path transform="matrix(1.00008,0,0,-1.00002,19.595932,37.848459)" stroke-width="2.5512" stroke-linecap="butt" stroke-dasharray="2.5512,3.9851" stroke-miterlimit="10" stroke-linejoin="miter" fill="none" stroke="#0000ff" d="M-18.42523 0H73.70099"/>
<path transform="matrix(1.00008,0,0,-1.00002,19.595932,37.848459)" stroke-width=".79701" stroke-linecap="butt" stroke-dasharray=".79701,.99628" stroke-miterlimit="10" stroke-linejoin="miter" fill="none" stroke="#0000ff" d="M73.70099 0V18.42523"/>
<path transform="matrix(1.00008,0,0,-1.00002,19.595932,37.848459)" stroke-width="2.5512" stroke-linecap="butt" stroke-dasharray="2.5512,3.9851" stroke-miterlimit="10" stroke-linejoin="miter" fill="none" stroke="#0000ff" d="M73.70099 18.42523H128.97676"/>
<path transform="matrix(1.00008,0,0,-1.00002,19.595932,37.848459)" stroke-width=".3985" stroke-linecap="butt" stroke-miterlimit="10" stroke-linejoin="miter" fill="none" stroke="#0000ff" d="M101.33887 18.42523"/>
<use data-text="u" xlink:href="#font_1_2" transform="matrix(10.037203,0,0,-10.036601,109.53912,29.9243)" fill="#0000ff"/>
<use data-text="4" xlink:href="#font_2_4" transform="matrix(7.6081087,0,0,-7.6076529,116.07364,31.56133)" fill="#0000ff"/>
<use data-text="(" xlink:href="#font_2_1" transform="matrix(10.037203,0,0,-10.036601,120.608,29.9243)" fill="#0000ff"/>
<use data-text="t" xlink:href="#font_1_1" transform="matrix(10.037203,0,0,-10.036601,124.3393,29.9243)" fill="#0000ff"/>
<use data-text=")" xlink:href="#font_2_2" transform="matrix(10.037203,0,0,-10.036601,128.83367,29.9243)" fill="#0000ff"/>
<path transform="matrix(1.00008,0,0,-1.00002,19.595932,37.848459)" d="M21.00473 0C21.00473 1.42462 19.84985 2.5795 18.42523 2.5795 17.00061 2.5795 15.84573 1.42462 15.84573 0 15.84573-1.42462 17.00061-2.5795 18.42523-2.5795 19.84985-2.5795 21.00473-1.42462 21.00473 0ZM18.42523 0" fill="#ffffff"/>
<path transform="matrix(1.00008,0,0,-1.00002,19.595932,37.848459)" stroke-width="1.13385" stroke-linecap="butt" stroke-miterlimit="10" stroke-linejoin="miter" fill="none" stroke="#ff8000" d="M21.00473 0C21.00473 1.42462 19.84985 2.5795 18.42523 2.5795 17.00061 2.5795 15.84573 1.42462 15.84573 0 15.84573-1.42462 17.00061-2.5795 18.42523-2.5795 19.84985-2.5795 21.00473-1.42462 21.00473 0ZM18.42523 0"/>
<use data-text="1" xlink:href="#font_2_3" transform="matrix(10.037203,0,0,-10.036601,35.36019,48.33567)"/>
<path transform="matrix(1.00008,0,0,-1.00002,19.595932,37.848459)" d="M21.00473 18.42523C21.00473 19.84985 19.84985 21.00473 18.42523 21.00473 17.00061 21.00473 15.84573 19.84985 15.84573 18.42523 15.84573 17.00061 17.00061 15.84573 18.42523 15.84573 19.84985 15.84573 21.00473 17.00061 21.00473 18.42523ZM18.42523 18.42523" fill="#ff8000"/>
<path transform="matrix(1.00008,0,0,-1.00002,19.595932,37.848459)" stroke-width="1.13385" stroke-linecap="butt" stroke-miterlimit="10" stroke-linejoin="miter" fill="none" stroke="#ff8000" d="M21.00473 18.42523C21.00473 19.84985 19.84985 21.00473 18.42523 21.00473 17.00061 21.00473 15.84573 19.84985 15.84573 18.42523 15.84573 17.00061 17.00061 15.84573 18.42523 15.84573 19.84985 15.84573 21.00473 17.00061 21.00473 18.42523ZM18.42523 18.42523"/>
<path transform="matrix(1.00008,0,0,-1.00002,19.595932,37.848459)" d="M76.2805 0C76.2805 1.42462 75.12561 2.5795 73.70099 2.5795 72.27637 2.5795 71.12149 1.42462 71.12149 0 71.12149-1.42462 72.27637-2.5795 73.70099-2.5795 75.12561-2.5795 76.2805-1.42462 76.2805 0ZM73.70099 0" fill="#ffffff"/>
<path transform="matrix(1.00008,0,0,-1.00002,19.595932,37.848459)" stroke-width="1.13385" stroke-linecap="butt" stroke-miterlimit="10" stroke-linejoin="miter" fill="none" stroke="#0000ff" d="M76.2805 0C76.2805 1.42462 75.12561 2.5795 73.70099 2.5795 72.27637 2.5795 71.12149 1.42462 71.12149 0 71.12149-1.42462 72.27637-2.5795 73.70099-2.5795 75.12561-2.5795 76.2805-1.42462 76.2805 0ZM73.70099 0"/>
<use data-text="4" xlink:href="#font_2_4" transform="matrix(10.037203,0,0,-10.036601,90.64062,48.33567)"/>
<path transform="matrix(1.00008,0,0,-1.00002,19.595932,37.848459)" d="M76.2805 18.42523C76.2805 19.84985 75.12561 21.00473 73.70099 21.00473 72.27637 21.00473 71.12149 19.84985 71.12149 18.42523 71.12149 17.00061 72.27637 15.84573 73.70099 15.84573 75.12561 15.84573 76.2805 17.00061 76.2805 18.42523ZM73.70099 18.42523" fill="#0000ff"/>
<path transform="matrix(1.00008,0,0,-1.00002,19.595932,37.848459)" stroke-width="1.13385" stroke-linecap="butt" stroke-miterlimit="10" stroke-linejoin="miter" fill="none" stroke="#0000ff" d="M76.2805 18.42523C76.2805 19.84985 75.12561 21.00473 73.70099 21.00473 72.27637 21.00473 71.12149 19.84985 71.12149 18.42523 71.12149 17.00061 72.27637 15.84573 73.70099 15.84573 75.12561 15.84573 76.2805 17.00061 76.2805 18.42523ZM73.70099 18.42523"/>
</svg>
