<svg xmlns="http://www.w3.org/2000/svg" xmlns:xlink="http://www.w3.org/1999/xlink" version="1.1" width="87" height="87" viewBox="0 0 87 87">
<defs>
<path id="font_1_1" d="M.42799378 .45222474 .43899537 .49023438H.31199647L.34599305 .6092224 .33399964 .6162262 .23699951 .53923037 .22399903 .49023438H.14299011L.13198853 .45222474H.21499634L.125 .08627319C.10998535 .029266358 .12199402-.01171875 .17199707-.01171875 .2519989-.01171875 .31599427 .054275514 .35598756 .1292572L.33399964 .1462555C.31098939 .10726929 .2599945 .040267946 .22898865 .040267946 .20799256 .040267946 .20799256 .0632782 .21398926 .088272098L.30299378 .45222474H.42799378Z"/>
<path id="font_1_2" d="M.070999149 .45393373 .07398987 .42893983 .14199829 .43093873C.1639862 .43193055 .16899109 .41493226 .1769867 .36291505 .18798828 .28489686 .20999146 .09286499 .20999146 .0128479 .20999146-.017166138 .20799256-.058166505 .18598938-.11117554 .16799927-.15318299 .14199829-.18218994 .12199402-.18218994 .10699463-.18218994 .09599304-.17118836 .08099365-.15118408 .068984989-.13517761 .06098938-.127182 .04598999-.127182 .019989014-.12818909-.005004883-.15818787-.005004883-.18719483-.005004883-.21418762 .023986817-.2421875 .067993167-.2421875 .15299988-.2421875 .18998719-.17919922 .27799989-.027160645 .2979889 .0068511965 .35798646 .11286926 .41999818 .21488953 .47698976 .30891419 .5399933 .40592958 .5399933 .4459381 .5399933 .48094178 .5289917 .5019531 .5219879 .5019531 .5029907 .5019531 .46899415 .49394227 .44400025 .47694398 .44499208 .4419403 .44299317 .3809204 .43099977 .33891297 .4149933 .28289796 .35598756 .17488098 .2899933 .06085205H.2869873C.27999879 .21388245 .26098634 .42492677 .24699402 .49795533L.23899842 .5019531 .070999149 .45393373Z"/>
<path id="font_2_1" d="M.07398987 .2861328V.21612549H.31900025V.2861328H.07398987Z"/>
<path id="font_2_3" d="M.43699647 0V.0289917L.35299684 .035995485C.33198548 .037994386 .31999208 .04598999 .31999208 .08496094V.67367556L.31498719 .6796875 .10899353 .6446991V.6197052L.20199585 .6087036C.21899414 .6067047 .22599793 .5987091 .22599793 .56973269V.08496094C.22599793 .065979007 .22299195 .053985597 .21699524 .04698181 .21199036 .039993287 .20399475 .036987306 .19299317 .035995485L.10899353 .0289917V0H.43699647Z"/>
<path id="font_2_2" d="M.2649994 .64468386C.3600006 .64468386 .3869934 .49682618 .3869934 .33398438 .3869934 .17112732 .3600006 .023269654 .2649994 .023269654 .16999817 .023269654 .14299011 .17112732 .14299011 .33398438 .14299011 .49682618 .16999817 .64468386 .2649994 .64468386M.2649994 .6796875C.099990848 .6796875 .040985109 .53378298 .040985109 .33398438 .040985109 .13417053 .099990848-.01171875 .2649994-.01171875 .42999269-.01171875 .4889984 .13417053 .4889984 .33398438 .4889984 .53378298 .42999269 .6796875 .2649994 .6796875Z"/>
</defs>
<path transform="matrix(1.00002,0,0,-1.00005,41.883226,45.90164)" stroke-width=".3985" stroke-linecap="butt" stroke-miterlimit="10" stroke-linejoin="miter" fill="none" stroke="#cbcbcb" d="M-25.51236-34.0165V34.0165"/>
<path transform="matrix(1.00002,0,0,-1.00005,41.883226,45.90164)" stroke-width=".3985" stroke-linecap="butt" stroke-miterlimit="10" stroke-linejoin="miter" fill="none" stroke="#cbcbcb" d="M-17.00824-34.0165V34.0165"/>
<path transform="matrix(1.00002,0,0,-1.00005,41.883226,45.90164)" stroke-width=".3985" stroke-linecap="butt" stroke-miterlimit="10" stroke-linejoin="miter" fill="none" stroke="#cbcbcb" d="M-8.50412-34.0165V34.0165"/>
<path transform="matrix(1.00002,0,0,-1.00005,41.883226,45.90164)" stroke-width=".3985" stroke-linecap="butt" stroke-miterlimit="10" stroke-linejoin="miter" fill="none" stroke="#cbcbcb" d="M0-34.0165V34.0165"/>
<path transform="matrix(1.00002,0,0,-1.00005,41.883226,45.90164)" stroke-width=".3985" stroke-linecap="butt" stroke-miterlimit="10" stroke-linejoin="miter" fill="none" stroke="#cbcbcb" d="M8.50412-34.0165V34.0165"/>
<path transform="matrix(1.00002,0,0,-1.00005,41.883226,45.90164)" stroke-width=".3985" stroke-linecap="butt" stroke-miterlimit="10" stroke-linejoin="miter" fill="none" stroke="#cbcbcb" d="M17.00824-34.0165V34.0165"/>
<path transform="matrix(1.00002,0,0,-1.00005,41.883226,45.90164)" stroke-width=".3985" stroke-linecap="butt" stroke-miterlimit="10" stroke-linejoin="miter" fill="none" stroke="#cbcbcb" d="M25.51236-34.0165V34.0165"/>
<path transform="matrix(1.00002,0,0,-1.00005,41.883226,45.90164)" stroke-width=".3985" stroke-linecap="butt" stroke-miterlimit="10" stroke-linejoin="miter" fill="none" stroke="#cbcbcb" d="M-34.0165-29.76443H34.0165"/>
<path transform="matrix(1.00002,0,0,-1.00005,41.883226,45.90164)" stroke-width=".3985" stroke-linecap="butt" stroke-miterlimit="10" stroke-linejoin="miter" fill="none" stroke="#cbcbcb" d="M-34.0165-25.51236H34.0165"/>
<path transform="matrix(1.00002,0,0,-1.00005,41.883226,45.90164)" stroke-width=".3985" stroke-linecap="butt" stroke-miterlimit="10" stroke-linejoin="miter" fill="none" stroke="#cbcbcb" d="M-34.0165-21.26031H34.0165"/>
<path transform="matrix(1.00002,0,0,-1.00005,41.883226,45.90164)" stroke-width=".3985" stroke-linecap="butt" stroke-miterlimit="10" stroke-linejoin="miter" fill="none" stroke="#cbcbcb" d="M-34.0165-17.00824H34.0165"/>
<path transform="matrix(1.00002,0,0,-1.00005,41.883226,45.90164)" stroke-width=".3985" stroke-linecap="butt" stroke-miterlimit="10" stroke-linejoin="miter" fill="none" stroke="#cbcbcb" d="M-34.0165-12.75616H34.0165"/>
<path transform="matrix(1.00002,0,0,-1.00005,41.883226,45.90164)" stroke-width=".3985" stroke-linecap="butt" stroke-miterlimit="10" stroke-linejoin="miter" fill="none" stroke="#cbcbcb" d="M-34.0165-8.50412H34.0165"/>
<path transform="matrix(1.00002,0,0,-1.00005,41.883226,45.90164)" stroke-width=".3985" stroke-linecap="butt" stroke-miterlimit="10" stroke-linejoin="miter" fill="none" stroke="#cbcbcb" d="M-34.0165-4.25204H34.0165"/>
<path transform="matrix(1.00002,0,0,-1.00005,41.883226,45.90164)" stroke-width=".3985" stroke-linecap="butt" stroke-miterlimit="10" stroke-linejoin="miter" fill="none" stroke="#cbcbcb" d="M-34.0165 0H34.0165"/>
<path transform="matrix(1.00002,0,0,-1.00005,41.883226,45.90164)" stroke-width=".3985" stroke-linecap="butt" stroke-miterlimit="10" stroke-linejoin="miter" fill="none" stroke="#cbcbcb" d="M-34.0165 4.25204H34.0165"/>
<path transform="matrix(1.00002,0,0,-1.00005,41.883226,45.90164)" stroke-width=".3985" stroke-linecap="butt" stroke-miterlimit="10" stroke-linejoin="miter" fill="none" stroke="#cbcbcb" d="M-34.0165 8.50412H34.0165"/>
<path transform="matrix(1.00002,0,0,-1.00005,41.883226,45.90164)" stroke-width=".3985" stroke-linecap="butt" stroke-miterlimit="10" stroke-linejoin="miter" fill="none" stroke="#cbcbcb" d="M-34.0165 12.75616H34.0165"/>
<path transform="matrix(1.00002,0,0,-1.00005,41.883226,45.90164)" stroke-width=".3985" stroke-linecap="butt" stroke-miterlimit="10" stroke-linejoin="miter" fill="none" stroke="#cbcbcb" d="M-34.0165 17.00824H34.0165"/>
<path transform="matrix(1.00002,0,0,-1.00005,41.883226,45.90164)" stroke-width=".3985" stroke-linecap="butt" stroke-miterlimit="10" stroke-linejoin="miter" fill="none" stroke="#cbcbcb" d="M-34.0165 21.26031H34.0165"/>
<path transform="matrix(1.00002,0,0,-1.00005,41.883226,45.90164)" stroke-width=".3985" stroke-linecap="butt" stroke-miterlimit="10" stroke-linejoin="miter" fill="none" stroke="#cbcbcb" d="M-34.0165 25.51236H34.0165"/>
<path transform="matrix(1.00002,0,0,-1.00005,41.883226,45.90164)" stroke-width=".3985" stroke-linecap="butt" stroke-miterlimit="10" stroke-linejoin="miter" fill="none" stroke="#cbcbcb" d="M-34.0165 29.76443H34.0165"/>
<path transform="matrix(1.00002,0,0,-1.00005,41.883226,45.90164)" stroke-width=".3985" stroke-linecap="butt" stroke-miterlimit="10" stroke-linejoin="miter" fill="none" stroke="#000000" d="M-34.0165 0H43.82306"/>
<path transform="matrix(1.00002,0,0,-1.00005,85.90642,45.90164)" stroke-width=".3985" stroke-linecap="round" stroke-linejoin="round" fill="none" stroke="#000000" d="M-2.07224 2.39104C-1.69365 .95639-.84999 .27895 0 0-.84999-.27895-1.69365-.95639-2.07224-2.39104"/>
<use data-text="t" xlink:href="#font_1_1" transform="matrix(7.332647,0,0,-7.332866,81.708019,53.820039)"/>
<path transform="matrix(1.00002,0,0,-1.00005,41.883226,45.90164)" stroke-width=".3985" stroke-linecap="butt" stroke-miterlimit="10" stroke-linejoin="miter" fill="none" stroke="#000000" d="M0-34.0165V43.82306"/>
<path transform="matrix(0,-1.00005,-1.00002,-0,41.883226,1.8771362)" stroke-width=".3985" stroke-linecap="round" stroke-linejoin="round" fill="none" stroke="#000000" d="M-2.07224 2.39104C-1.69365 .95639-.84999 .27895 0 0-.84999-.27895-1.69365-.95639-2.07224-2.39104"/>
<use data-text="y" xlink:href="#font_1_2" transform="matrix(7.332647,0,0,-7.332866,34.379068,5.425621)"/>
<path transform="matrix(1.00002,0,0,-1.00005,41.883226,45.90164)" stroke-width=".3985" stroke-linecap="butt" stroke-miterlimit="10" stroke-linejoin="miter" fill="none" stroke="#cbcbcb" d="M-34.0165-34.0165V34.0165H34.0165V-34.0165ZM34.0165 34.0165"/>
<path transform="matrix(1.00002,0,0,-1.00005,41.883226,45.90164)" stroke-width=".3985" stroke-linecap="butt" stroke-miterlimit="10" stroke-linejoin="miter" fill="none" stroke="#000000" d="M-17.00824-35.71744V-32.31557"/>
<use data-text="-" xlink:href="#font_2_1" transform="matrix(5.4995105,0,0,-5.499675,22.053826,85.30061)"/>
<use data-text="1" xlink:href="#font_2_3" transform="matrix(5.4995105,0,0,-5.499675,24.209633,85.30061)"/>
<path transform="matrix(1.00002,0,0,-1.00005,41.883226,45.90164)" stroke-width=".3985" stroke-linecap="butt" stroke-miterlimit="10" stroke-linejoin="miter" fill="none" stroke="#000000" d="M0-35.71744V-32.31557"/>
<use data-text="0" xlink:href="#font_2_2" transform="matrix(5.4995105,0,0,-5.499675,40.424196,85.30061)"/>
<path transform="matrix(1.00002,0,0,-1.00005,41.883226,45.90164)" stroke-width=".3985" stroke-linecap="butt" stroke-miterlimit="10" stroke-linejoin="miter" fill="none" stroke="#000000" d="M17.00824-35.71744V-32.31557"/>
<use data-text="1" xlink:href="#font_2_3" transform="matrix(5.4995105,0,0,-5.499675,57.433538,85.30061)"/>
<path transform="matrix(1.00002,0,0,-1.00005,41.883226,45.90164)" stroke-width=".3985" stroke-linecap="butt" stroke-miterlimit="10" stroke-linejoin="miter" fill="none" stroke="#000000" d="M-35.71744-17.00824H-32.31557"/>
<use data-text="-" xlink:href="#font_2_1" transform="matrix(5.4995105,0,0,-5.499675,1.0924072,64.75159)"/>
<use data-text="1" xlink:href="#font_2_3" transform="matrix(5.4995105,0,0,-5.499675,3.2482148,64.75159)"/>
<path transform="matrix(1.00002,0,0,-1.00005,41.883226,45.90164)" stroke-width=".3985" stroke-linecap="butt" stroke-miterlimit="10" stroke-linejoin="miter" fill="none" stroke="#000000" d="M-35.71744 0H-32.31557"/>
<use data-text="0" xlink:href="#font_2_2" transform="matrix(5.4995105,0,0,-5.499675,3.2504502,47.727735)"/>
<path transform="matrix(1.00002,0,0,-1.00005,41.883226,45.90164)" stroke-width=".3985" stroke-linecap="butt" stroke-miterlimit="10" stroke-linejoin="miter" fill="none" stroke="#000000" d="M-35.71744 17.00824H-32.31557"/>
<use data-text="1" xlink:href="#font_2_3" transform="matrix(5.4995105,0,0,-5.499675,3.2504502,30.733885)"/>
<path transform="matrix(1.00002,0,0,-1.00005,41.883226,45.90164)" stroke-width=".79701" stroke-linecap="butt" stroke-miterlimit="10" stroke-linejoin="miter" fill="none" stroke="#409f9f" d="M-26.42381-32.32828-24.6009-27.20059"/>
<path transform="matrix(1.00002,0,0,-1.00005,41.883226,45.90164)" stroke-width=".79701" stroke-linecap="butt" stroke-miterlimit="10" stroke-linejoin="miter" fill="none" stroke="#409f9f" d="M-26.72952-27.9467-24.2952-23.07802"/>
<path transform="matrix(1.00002,0,0,-1.00005,41.883226,45.90164)" stroke-width=".79701" stroke-linecap="butt" stroke-miterlimit="10" stroke-linejoin="miter" fill="none" stroke="#409f9f" d="M-27.16112-23.42448-23.8636-19.09615"/>
<path transform="matrix(1.00002,0,0,-1.00005,41.883226,45.90164)" stroke-width=".79701" stroke-linecap="butt" stroke-miterlimit="10" stroke-linejoin="miter" fill="none" stroke="#409f9f" d="M-27.68925-18.6409-23.33546-15.37558"/>
<path transform="matrix(1.00002,0,0,-1.00005,41.883226,45.90164)" stroke-width=".79701" stroke-linecap="butt" stroke-miterlimit="10" stroke-linejoin="miter" fill="none" stroke="#409f9f" d="M-28.10942-13.56665-22.9153-11.9457"/>
<path transform="matrix(1.00002,0,0,-1.00005,41.883226,45.90164)" stroke-width=".79701" stroke-linecap="butt" stroke-miterlimit="10" stroke-linejoin="miter" fill="none" stroke="#409f9f" d="M-28.23373-8.50412H-22.791"/>
<path transform="matrix(1.00002,0,0,-1.00005,41.883226,45.90164)" stroke-width=".79701" stroke-linecap="butt" stroke-miterlimit="10" stroke-linejoin="miter" fill="none" stroke="#409f9f" d="M-28.18597-3.75092-22.83875-4.75317"/>
<path transform="matrix(1.00002,0,0,-1.00005,41.883226,45.90164)" stroke-width=".79701" stroke-linecap="butt" stroke-miterlimit="10" stroke-linejoin="miter" fill="none" stroke="#409f9f" d="M-28.15198 .6597-22.87276-.6597"/>
<path transform="matrix(1.00002,0,0,-1.00005,41.883226,45.90164)" stroke-width=".79701" stroke-linecap="butt" stroke-miterlimit="10" stroke-linejoin="miter" fill="none" stroke="#409f9f" d="M-28.18597 4.75317-22.83875 3.75092"/>
<path transform="matrix(1.00002,0,0,-1.00005,41.883226,45.90164)" stroke-width=".79701" stroke-linecap="butt" stroke-miterlimit="10" stroke-linejoin="miter" fill="none" stroke="#409f9f" d="M-28.23373 8.50412H-22.791"/>
<path transform="matrix(1.00002,0,0,-1.00005,41.883226,45.90164)" stroke-width=".79701" stroke-linecap="butt" stroke-miterlimit="10" stroke-linejoin="miter" fill="none" stroke="#409f9f" d="M-28.10942 11.9457-22.9153 13.56665"/>
<path transform="matrix(1.00002,0,0,-1.00005,41.883226,45.90164)" stroke-width=".79701" stroke-linecap="butt" stroke-miterlimit="10" stroke-linejoin="miter" fill="none" stroke="#409f9f" d="M-27.68925 15.37558-23.33546 18.6409"/>
<path transform="matrix(1.00002,0,0,-1.00005,41.883226,45.90164)" stroke-width=".79701" stroke-linecap="butt" stroke-miterlimit="10" stroke-linejoin="miter" fill="none" stroke="#409f9f" d="M-27.16112 19.09615-23.8636 23.42448"/>
<path transform="matrix(1.00002,0,0,-1.00005,41.883226,45.90164)" stroke-width=".79701" stroke-linecap="butt" stroke-miterlimit="10" stroke-linejoin="miter" fill="none" stroke="#409f9f" d="M-26.72952 23.07802-24.2952 27.9467"/>
<path transform="matrix(1.00002,0,0,-1.00005,41.883226,45.90164)" stroke-width=".79701" stroke-linecap="butt" stroke-miterlimit="10" stroke-linejoin="miter" fill="none" stroke="#409f9f" d="M-26.42381 27.20059-24.6009 32.32828"/>
<path transform="matrix(1.00002,0,0,-1.00005,41.883226,45.90164)" stroke-width=".79701" stroke-linecap="butt" stroke-miterlimit="10" stroke-linejoin="miter" fill="none" stroke="#409f9f" d="M-17.9197-32.32828-16.09679-27.20059"/>
<path transform="matrix(1.00002,0,0,-1.00005,41.883226,45.90164)" stroke-width=".79701" stroke-linecap="butt" stroke-miterlimit="10" stroke-linejoin="miter" fill="none" stroke="#409f9f" d="M-18.2254-27.9467-15.79108-23.07802"/>
<path transform="matrix(1.00002,0,0,-1.00005,41.883226,45.90164)" stroke-width=".79701" stroke-linecap="butt" stroke-miterlimit="10" stroke-linejoin="miter" fill="none" stroke="#409f9f" d="M-18.657-23.42448-15.35948-19.09615"/>
<path transform="matrix(1.00002,0,0,-1.00005,41.883226,45.90164)" stroke-width=".79701" stroke-linecap="butt" stroke-miterlimit="10" stroke-linejoin="miter" fill="none" stroke="#409f9f" d="M-19.18513-18.6409-14.83134-15.37558"/>
<path transform="matrix(1.00002,0,0,-1.00005,41.883226,45.90164)" stroke-width=".79701" stroke-linecap="butt" stroke-miterlimit="10" stroke-linejoin="miter" fill="none" stroke="#409f9f" d="M-19.6053-13.56665-14.41118-11.9457"/>
<path transform="matrix(1.00002,0,0,-1.00005,41.883226,45.90164)" stroke-width=".79701" stroke-linecap="butt" stroke-miterlimit="10" stroke-linejoin="miter" fill="none" stroke="#409f9f" d="M-19.7296-8.50412H-14.28687"/>
<path transform="matrix(1.00002,0,0,-1.00005,41.883226,45.90164)" stroke-width=".79701" stroke-linecap="butt" stroke-miterlimit="10" stroke-linejoin="miter" fill="none" stroke="#409f9f" d="M-19.68185-3.75092-14.33463-4.75317"/>
<path transform="matrix(1.00002,0,0,-1.00005,41.883226,45.90164)" stroke-width=".79701" stroke-linecap="butt" stroke-miterlimit="10" stroke-linejoin="miter" fill="none" stroke="#409f9f" d="M-19.64786 .6597-14.36862-.6597"/>
<path transform="matrix(1.00002,0,0,-1.00005,41.883226,45.90164)" stroke-width=".79701" stroke-linecap="butt" stroke-miterlimit="10" stroke-linejoin="miter" fill="none" stroke="#409f9f" d="M-19.68185 4.75317-14.33463 3.75092"/>
<path transform="matrix(1.00002,0,0,-1.00005,41.883226,45.90164)" stroke-width=".79701" stroke-linecap="butt" stroke-miterlimit="10" stroke-linejoin="miter" fill="none" stroke="#409f9f" d="M-19.7296 8.50412H-14.28687"/>
<path transform="matrix(1.00002,0,0,-1.00005,41.883226,45.90164)" stroke-width=".79701" stroke-linecap="butt" stroke-miterlimit="10" stroke-linejoin="miter" fill="none" stroke="#409f9f" d="M-19.6053 11.9457-14.41118 13.56665"/>
<path transform="matrix(1.00002,0,0,-1.00005,41.883226,45.90164)" stroke-width=".79701" stroke-linecap="butt" stroke-miterlimit="10" stroke-linejoin="miter" fill="none" stroke="#409f9f" d="M-19.18513 15.37558-14.83134 18.6409"/>
<path transform="matrix(1.00002,0,0,-1.00005,41.883226,45.90164)" stroke-width=".79701" stroke-linecap="butt" stroke-miterlimit="10" stroke-linejoin="miter" fill="none" stroke="#409f9f" d="M-18.657 19.09615-15.35948 23.42448"/>
<path transform="matrix(1.00002,0,0,-1.00005,41.883226,45.90164)" stroke-width=".79701" stroke-linecap="butt" stroke-miterlimit="10" stroke-linejoin="miter" fill="none" stroke="#409f9f" d="M-18.2254 23.07802-15.79108 27.9467"/>
<path transform="matrix(1.00002,0,0,-1.00005,41.883226,45.90164)" stroke-width=".79701" stroke-linecap="butt" stroke-miterlimit="10" stroke-linejoin="miter" fill="none" stroke="#409f9f" d="M-17.9197 27.20059-16.09679 32.32828"/>
<path transform="matrix(1.00002,0,0,-1.00005,41.883226,45.90164)" stroke-width=".79701" stroke-linecap="butt" stroke-miterlimit="10" stroke-linejoin="miter" fill="none" stroke="#409f9f" d="M-9.41557-32.32828-7.59267-27.20059"/>
<path transform="matrix(1.00002,0,0,-1.00005,41.883226,45.90164)" stroke-width=".79701" stroke-linecap="butt" stroke-miterlimit="10" stroke-linejoin="miter" fill="none" stroke="#409f9f" d="M-9.72128-27.9467-7.28696-23.07802"/>
<path transform="matrix(1.00002,0,0,-1.00005,41.883226,45.90164)" stroke-width=".79701" stroke-linecap="butt" stroke-miterlimit="10" stroke-linejoin="miter" fill="none" stroke="#409f9f" d="M-10.15288-23.42448-6.85536-19.09615"/>
<path transform="matrix(1.00002,0,0,-1.00005,41.883226,45.90164)" stroke-width=".79701" stroke-linecap="butt" stroke-miterlimit="10" stroke-linejoin="miter" fill="none" stroke="#409f9f" d="M-10.68102-18.6409-6.32722-15.37558"/>
<path transform="matrix(1.00002,0,0,-1.00005,41.883226,45.90164)" stroke-width=".79701" stroke-linecap="butt" stroke-miterlimit="10" stroke-linejoin="miter" fill="none" stroke="#409f9f" d="M-11.10118-13.56665-5.90706-11.9457"/>
<path transform="matrix(1.00002,0,0,-1.00005,41.883226,45.90164)" stroke-width=".79701" stroke-linecap="butt" stroke-miterlimit="10" stroke-linejoin="miter" fill="none" stroke="#409f9f" d="M-11.22548-8.50412H-5.78275"/>
<path transform="matrix(1.00002,0,0,-1.00005,41.883226,45.90164)" stroke-width=".79701" stroke-linecap="butt" stroke-miterlimit="10" stroke-linejoin="miter" fill="none" stroke="#409f9f" d="M-11.17773-3.75092-5.8305-4.75317"/>
<path transform="matrix(1.00002,0,0,-1.00005,41.883226,45.90164)" stroke-width=".79701" stroke-linecap="butt" stroke-miterlimit="10" stroke-linejoin="miter" fill="none" stroke="#409f9f" d="M-11.14372 .6597-5.8645-.6597"/>
<path transform="matrix(1.00002,0,0,-1.00005,41.883226,45.90164)" stroke-width=".79701" stroke-linecap="butt" stroke-miterlimit="10" stroke-linejoin="miter" fill="none" stroke="#409f9f" d="M-11.17773 4.75317-5.8305 3.75092"/>
<path transform="matrix(1.00002,0,0,-1.00005,41.883226,45.90164)" stroke-width=".79701" stroke-linecap="butt" stroke-miterlimit="10" stroke-linejoin="miter" fill="none" stroke="#409f9f" d="M-11.22548 8.50412H-5.78275"/>
<path transform="matrix(1.00002,0,0,-1.00005,41.883226,45.90164)" stroke-width=".79701" stroke-linecap="butt" stroke-miterlimit="10" stroke-linejoin="miter" fill="none" stroke="#409f9f" d="M-11.10118 11.9457-5.90706 13.56665"/>
<path transform="matrix(1.00002,0,0,-1.00005,41.883226,45.90164)" stroke-width=".79701" stroke-linecap="butt" stroke-miterlimit="10" stroke-linejoin="miter" fill="none" stroke="#409f9f" d="M-10.68102 15.37558-6.32722 18.6409"/>
<path transform="matrix(1.00002,0,0,-1.00005,41.883226,45.90164)" stroke-width=".79701" stroke-linecap="butt" stroke-miterlimit="10" stroke-linejoin="miter" fill="none" stroke="#409f9f" d="M-10.15288 19.09615-6.85536 23.42448"/>
<path transform="matrix(1.00002,0,0,-1.00005,41.883226,45.90164)" stroke-width=".79701" stroke-linecap="butt" stroke-miterlimit="10" stroke-linejoin="miter" fill="none" stroke="#409f9f" d="M-9.72128 23.07802-7.28696 27.9467"/>
<path transform="matrix(1.00002,0,0,-1.00005,41.883226,45.90164)" stroke-width=".79701" stroke-linecap="butt" stroke-miterlimit="10" stroke-linejoin="miter" fill="none" stroke="#409f9f" d="M-9.41557 27.20059-7.59267 32.32828"/>
<path transform="matrix(1.00002,0,0,-1.00005,41.883226,45.90164)" stroke-width=".79701" stroke-linecap="butt" stroke-miterlimit="10" stroke-linejoin="miter" fill="none" stroke="#409f9f" d="M-.91144-32.32828 .91144-27.20059"/>
<path transform="matrix(1.00002,0,0,-1.00005,41.883226,45.90164)" stroke-width=".79701" stroke-linecap="butt" stroke-miterlimit="10" stroke-linejoin="miter" fill="none" stroke="#409f9f" d="M-1.21715-27.9467 1.21715-23.07802"/>
<path transform="matrix(1.00002,0,0,-1.00005,41.883226,45.90164)" stroke-width=".79701" stroke-linecap="butt" stroke-miterlimit="10" stroke-linejoin="miter" fill="none" stroke="#409f9f" d="M-1.64876-23.42448 1.64876-19.09615"/>
<path transform="matrix(1.00002,0,0,-1.00005,41.883226,45.90164)" stroke-width=".79701" stroke-linecap="butt" stroke-miterlimit="10" stroke-linejoin="miter" fill="none" stroke="#409f9f" d="M-2.17688-18.6409 2.17688-15.37558"/>
<path transform="matrix(1.00002,0,0,-1.00005,41.883226,45.90164)" stroke-width=".79701" stroke-linecap="butt" stroke-miterlimit="10" stroke-linejoin="miter" fill="none" stroke="#409f9f" d="M-2.59705-13.56665 2.59705-11.9457"/>
<path transform="matrix(1.00002,0,0,-1.00005,41.883226,45.90164)" stroke-width=".79701" stroke-linecap="butt" stroke-miterlimit="10" stroke-linejoin="miter" fill="none" stroke="#409f9f" d="M-2.72136-8.50412H2.72136"/>
<path transform="matrix(1.00002,0,0,-1.00005,41.883226,45.90164)" stroke-width=".79701" stroke-linecap="butt" stroke-miterlimit="10" stroke-linejoin="miter" fill="none" stroke="#409f9f" d="M-2.67361-3.75092 2.67361-4.75317"/>
<path transform="matrix(1.00002,0,0,-1.00005,41.883226,45.90164)" stroke-width=".79701" stroke-linecap="butt" stroke-miterlimit="10" stroke-linejoin="miter" fill="none" stroke="#409f9f" d="M-2.6396 .6597 2.6396-.6597"/>
<path transform="matrix(1.00002,0,0,-1.00005,41.883226,45.90164)" stroke-width=".79701" stroke-linecap="butt" stroke-miterlimit="10" stroke-linejoin="miter" fill="none" stroke="#409f9f" d="M-2.67361 4.75317 2.67361 3.75092"/>
<path transform="matrix(1.00002,0,0,-1.00005,41.883226,45.90164)" stroke-width=".79701" stroke-linecap="butt" stroke-miterlimit="10" stroke-linejoin="miter" fill="none" stroke="#409f9f" d="M-2.72136 8.50412H2.72136"/>
<path transform="matrix(1.00002,0,0,-1.00005,41.883226,45.90164)" stroke-width=".79701" stroke-linecap="butt" stroke-miterlimit="10" stroke-linejoin="miter" fill="none" stroke="#409f9f" d="M-2.59705 11.9457 2.59705 13.56665"/>
<path transform="matrix(1.00002,0,0,-1.00005,41.883226,45.90164)" stroke-width=".79701" stroke-linecap="butt" stroke-miterlimit="10" stroke-linejoin="miter" fill="none" stroke="#409f9f" d="M-2.17688 15.37558 2.17688 18.6409"/>
<path transform="matrix(1.00002,0,0,-1.00005,41.883226,45.90164)" stroke-width=".79701" stroke-linecap="butt" stroke-miterlimit="10" stroke-linejoin="miter" fill="none" stroke="#409f9f" d="M-1.64876 19.09615 1.64876 23.42448"/>
<path transform="matrix(1.00002,0,0,-1.00005,41.883226,45.90164)" stroke-width=".79701" stroke-linecap="butt" stroke-miterlimit="10" stroke-linejoin="miter" fill="none" stroke="#409f9f" d="M-1.21715 23.07802 1.21715 27.9467"/>
<path transform="matrix(1.00002,0,0,-1.00005,41.883226,45.90164)" stroke-width=".79701" stroke-linecap="butt" stroke-miterlimit="10" stroke-linejoin="miter" fill="none" stroke="#409f9f" d="M-.91144 27.20059 .91144 32.32828"/>
<path transform="matrix(1.00002,0,0,-1.00005,41.883226,45.90164)" stroke-width=".79701" stroke-linecap="butt" stroke-miterlimit="10" stroke-linejoin="miter" fill="none" stroke="#409f9f" d="M7.59267-32.32828 9.41557-27.20059"/>
<path transform="matrix(1.00002,0,0,-1.00005,41.883226,45.90164)" stroke-width=".79701" stroke-linecap="butt" stroke-miterlimit="10" stroke-linejoin="miter" fill="none" stroke="#409f9f" d="M7.28696-27.9467 9.72128-23.07802"/>
<path transform="matrix(1.00002,0,0,-1.00005,41.883226,45.90164)" stroke-width=".79701" stroke-linecap="butt" stroke-miterlimit="10" stroke-linejoin="miter" fill="none" stroke="#409f9f" d="M6.85536-23.42448 10.15288-19.09615"/>
<path transform="matrix(1.00002,0,0,-1.00005,41.883226,45.90164)" stroke-width=".79701" stroke-linecap="butt" stroke-miterlimit="10" stroke-linejoin="miter" fill="none" stroke="#409f9f" d="M6.32722-18.6409 10.68102-15.37558"/>
<path transform="matrix(1.00002,0,0,-1.00005,41.883226,45.90164)" stroke-width=".79701" stroke-linecap="butt" stroke-miterlimit="10" stroke-linejoin="miter" fill="none" stroke="#409f9f" d="M5.90706-13.56665 11.10118-11.9457"/>
<path transform="matrix(1.00002,0,0,-1.00005,41.883226,45.90164)" stroke-width=".79701" stroke-linecap="butt" stroke-miterlimit="10" stroke-linejoin="miter" fill="none" stroke="#409f9f" d="M5.78275-8.50412H11.22548"/>
<path transform="matrix(1.00002,0,0,-1.00005,41.883226,45.90164)" stroke-width=".79701" stroke-linecap="butt" stroke-miterlimit="10" stroke-linejoin="miter" fill="none" stroke="#409f9f" d="M5.8305-3.75092 11.17773-4.75317"/>
<path transform="matrix(1.00002,0,0,-1.00005,41.883226,45.90164)" stroke-width=".79701" stroke-linecap="butt" stroke-miterlimit="10" stroke-linejoin="miter" fill="none" stroke="#409f9f" d="M5.8645 .6597 11.14372-.6597"/>
<path transform="matrix(1.00002,0,0,-1.00005,41.883226,45.90164)" stroke-width=".79701" stroke-linecap="butt" stroke-miterlimit="10" stroke-linejoin="miter" fill="none" stroke="#409f9f" d="M5.8305 4.75317 11.17773 3.75092"/>
<path transform="matrix(1.00002,0,0,-1.00005,41.883226,45.90164)" stroke-width=".79701" stroke-linecap="butt" stroke-miterlimit="10" stroke-linejoin="miter" fill="none" stroke="#409f9f" d="M5.78275 8.50412H11.22548"/>
<path transform="matrix(1.00002,0,0,-1.00005,41.883226,45.90164)" stroke-width=".79701" stroke-linecap="butt" stroke-miterlimit="10" stroke-linejoin="miter" fill="none" stroke="#409f9f" d="M5.90706 11.9457 11.10118 13.56665"/>
<path transform="matrix(1.00002,0,0,-1.00005,41.883226,45.90164)" stroke-width=".79701" stroke-linecap="butt" stroke-miterlimit="10" stroke-linejoin="miter" fill="none" stroke="#409f9f" d="M6.32722 15.37558 10.68102 18.6409"/>
<path transform="matrix(1.00002,0,0,-1.00005,41.883226,45.90164)" stroke-width=".79701" stroke-linecap="butt" stroke-miterlimit="10" stroke-linejoin="miter" fill="none" stroke="#409f9f" d="M6.85536 19.09615 10.15288 23.42448"/>
<path transform="matrix(1.00002,0,0,-1.00005,41.883226,45.90164)" stroke-width=".79701" stroke-linecap="butt" stroke-miterlimit="10" stroke-linejoin="miter" fill="none" stroke="#409f9f" d="M7.28696 23.07802 9.72128 27.9467"/>
<path transform="matrix(1.00002,0,0,-1.00005,41.883226,45.90164)" stroke-width=".79701" stroke-linecap="butt" stroke-miterlimit="10" stroke-linejoin="miter" fill="none" stroke="#409f9f" d="M7.59267 27.20059 9.41557 32.32828"/>
<path transform="matrix(1.00002,0,0,-1.00005,41.883226,45.90164)" stroke-width=".79701" stroke-linecap="butt" stroke-miterlimit="10" stroke-linejoin="miter" fill="none" stroke="#409f9f" d="M16.09679-32.32828 17.9197-27.20059"/>
<path transform="matrix(1.00002,0,0,-1.00005,41.883226,45.90164)" stroke-width=".79701" stroke-linecap="butt" stroke-miterlimit="10" stroke-linejoin="miter" fill="none" stroke="#409f9f" d="M15.79108-27.9467 18.2254-23.07802"/>
<path transform="matrix(1.00002,0,0,-1.00005,41.883226,45.90164)" stroke-width=".79701" stroke-linecap="butt" stroke-miterlimit="10" stroke-linejoin="miter" fill="none" stroke="#409f9f" d="M15.35948-23.42448 18.657-19.09615"/>
<path transform="matrix(1.00002,0,0,-1.00005,41.883226,45.90164)" stroke-width=".79701" stroke-linecap="butt" stroke-miterlimit="10" stroke-linejoin="miter" fill="none" stroke="#409f9f" d="M14.83134-18.6409 19.18513-15.37558"/>
<path transform="matrix(1.00002,0,0,-1.00005,41.883226,45.90164)" stroke-width=".79701" stroke-linecap="butt" stroke-miterlimit="10" stroke-linejoin="miter" fill="none" stroke="#409f9f" d="M14.41118-13.56665 19.6053-11.9457"/>
<path transform="matrix(1.00002,0,0,-1.00005,41.883226,45.90164)" stroke-width=".79701" stroke-linecap="butt" stroke-miterlimit="10" stroke-linejoin="miter" fill="none" stroke="#409f9f" d="M14.28687-8.50412H19.7296"/>
<path transform="matrix(1.00002,0,0,-1.00005,41.883226,45.90164)" stroke-width=".79701" stroke-linecap="butt" stroke-miterlimit="10" stroke-linejoin="miter" fill="none" stroke="#409f9f" d="M14.33463-3.75092 19.68185-4.75317"/>
<path transform="matrix(1.00002,0,0,-1.00005,41.883226,45.90164)" stroke-width=".79701" stroke-linecap="butt" stroke-miterlimit="10" stroke-linejoin="miter" fill="none" stroke="#409f9f" d="M14.36862 .6597 19.64786-.6597"/>
<path transform="matrix(1.00002,0,0,-1.00005,41.883226,45.90164)" stroke-width=".79701" stroke-linecap="butt" stroke-miterlimit="10" stroke-linejoin="miter" fill="none" stroke="#409f9f" d="M14.33463 4.75317 19.68185 3.75092"/>
<path transform="matrix(1.00002,0,0,-1.00005,41.883226,45.90164)" stroke-width=".79701" stroke-linecap="butt" stroke-miterlimit="10" stroke-linejoin="miter" fill="none" stroke="#409f9f" d="M14.28687 8.50412H19.7296"/>
<path transform="matrix(1.00002,0,0,-1.00005,41.883226,45.90164)" stroke-width=".79701" stroke-linecap="butt" stroke-miterlimit="10" stroke-linejoin="miter" fill="none" stroke="#409f9f" d="M14.41118 11.9457 19.6053 13.56665"/>
<path transform="matrix(1.00002,0,0,-1.00005,41.883226,45.90164)" stroke-width=".79701" stroke-linecap="butt" stroke-miterlimit="10" stroke-linejoin="miter" fill="none" stroke="#409f9f" d="M14.83134 15.37558 19.18513 18.6409"/>
<path transform="matrix(1.00002,0,0,-1.00005,41.883226,45.90164)" stroke-width=".79701" stroke-linecap="butt" stroke-miterlimit="10" stroke-linejoin="miter" fill="none" stroke="#409f9f" d="M15.35948 19.09615 18.657 23.42448"/>
<path transform="matrix(1.00002,0,0,-1.00005,41.883226,45.90164)" stroke-width=".79701" stroke-linecap="butt" stroke-miterlimit="10" stroke-linejoin="miter" fill="none" stroke="#409f9f" d="M15.79108 23.07802 18.2254 27.9467"/>
<path transform="matrix(1.00002,0,0,-1.00005,41.883226,45.90164)" stroke-width=".79701" stroke-linecap="butt" stroke-miterlimit="10" stroke-linejoin="miter" fill="none" stroke="#409f9f" d="M16.09679 27.20059 17.9197 32.32828"/>
<path transform="matrix(1.00002,0,0,-1.00005,41.883226,45.90164)" stroke-width=".79701" stroke-linecap="butt" stroke-miterlimit="10" stroke-linejoin="miter" fill="none" stroke="#409f9f" d="M24.6009-32.32828 26.42381-27.20059"/>
<path transform="matrix(1.00002,0,0,-1.00005,41.883226,45.90164)" stroke-width=".79701" stroke-linecap="butt" stroke-miterlimit="10" stroke-linejoin="miter" fill="none" stroke="#409f9f" d="M24.2952-27.9467 26.72952-23.07802"/>
<path transform="matrix(1.00002,0,0,-1.00005,41.883226,45.90164)" stroke-width=".79701" stroke-linecap="butt" stroke-miterlimit="10" stroke-linejoin="miter" fill="none" stroke="#409f9f" d="M23.8636-23.42448 27.16112-19.09615"/>
<path transform="matrix(1.00002,0,0,-1.00005,41.883226,45.90164)" stroke-width=".79701" stroke-linecap="butt" stroke-miterlimit="10" stroke-linejoin="miter" fill="none" stroke="#409f9f" d="M23.33546-18.6409 27.68925-15.37558"/>
<path transform="matrix(1.00002,0,0,-1.00005,41.883226,45.90164)" stroke-width=".79701" stroke-linecap="butt" stroke-miterlimit="10" stroke-linejoin="miter" fill="none" stroke="#409f9f" d="M22.9153-13.56665 28.10942-11.9457"/>
<path transform="matrix(1.00002,0,0,-1.00005,41.883226,45.90164)" stroke-width=".79701" stroke-linecap="butt" stroke-miterlimit="10" stroke-linejoin="miter" fill="none" stroke="#409f9f" d="M22.791-8.50412H28.23373"/>
<path transform="matrix(1.00002,0,0,-1.00005,41.883226,45.90164)" stroke-width=".79701" stroke-linecap="butt" stroke-miterlimit="10" stroke-linejoin="miter" fill="none" stroke="#409f9f" d="M22.83875-3.75092 28.18597-4.75317"/>
<path transform="matrix(1.00002,0,0,-1.00005,41.883226,45.90164)" stroke-width=".79701" stroke-linecap="butt" stroke-miterlimit="10" stroke-linejoin="miter" fill="none" stroke="#409f9f" d="M22.87276 .6597 28.15198-.6597"/>
<path transform="matrix(1.00002,0,0,-1.00005,41.883226,45.90164)" stroke-width=".79701" stroke-linecap="butt" stroke-miterlimit="10" stroke-linejoin="miter" fill="none" stroke="#409f9f" d="M22.83875 4.75317 28.18597 3.75092"/>
<path transform="matrix(1.00002,0,0,-1.00005,41.883226,45.90164)" stroke-width=".79701" stroke-linecap="butt" stroke-miterlimit="10" stroke-linejoin="miter" fill="none" stroke="#409f9f" d="M22.791 8.50412H28.23373"/>
<path transform="matrix(1.00002,0,0,-1.00005,41.883226,45.90164)" stroke-width=".79701" stroke-linecap="butt" stroke-miterlimit="10" stroke-linejoin="miter" fill="none" stroke="#409f9f" d="M22.9153 11.9457 28.10942 13.56665"/>
<path transform="matrix(1.00002,0,0,-1.00005,41.883226,45.90164)" stroke-width=".79701" stroke-linecap="butt" stroke-miterlimit="10" stroke-linejoin="miter" fill="none" stroke="#409f9f" d="M23.33546 15.37558 27.68925 18.6409"/>
<path transform="matrix(1.00002,0,0,-1.00005,41.883226,45.90164)" stroke-width=".79701" stroke-linecap="butt" stroke-miterlimit="10" stroke-linejoin="miter" fill="none" stroke="#409f9f" d="M23.8636 19.09615 27.16112 23.42448"/>
<path transform="matrix(1.00002,0,0,-1.00005,41.883226,45.90164)" stroke-width=".79701" stroke-linecap="butt" stroke-miterlimit="10" stroke-linejoin="miter" fill="none" stroke="#409f9f" d="M24.2952 23.07802 26.72952 27.9467"/>
<path transform="matrix(1.00002,0,0,-1.00005,41.883226,45.90164)" stroke-width=".79701" stroke-linecap="butt" stroke-miterlimit="10" stroke-linejoin="miter" fill="none" stroke="#409f9f" d="M24.6009 27.20059 26.42381 32.32828"/>
</svg>
