<svg xmlns="http://www.w3.org/2000/svg" xmlns:xlink="http://www.w3.org/1999/xlink" version="1.1" width="107" height="107" viewBox="0 0 107 107">
<defs>
<path id="font_1_1" d="M.42799378 .45222474 .43899537 .49023438H.31199647L.34599305 .6092224 .33399964 .6162262 .23699951 .53923037 .22399903 .49023438H.14299011L.13198853 .45222474H.21499634L.125 .08627319C.10998535 .029266358 .12199402-.01171875 .17199707-.01171875 .2519989-.01171875 .31599427 .054275514 .35598756 .1292572L.33399964 .1462555C.31098939 .10726929 .2599945 .040267946 .22898865 .040267946 .20799256 .040267946 .20799256 .0632782 .21398926 .088272098L.30299378 .45222474H.42799378Z"/>
<path id="font_1_2" d="M.070999149 .45393373 .07398987 .42893983 .14199829 .43093873C.1639862 .43193055 .16899109 .41493226 .1769867 .36291505 .18798828 .28489686 .20999146 .09286499 .20999146 .0128479 .20999146-.017166138 .20799256-.058166505 .18598938-.11117554 .16799927-.15318299 .14199829-.18218994 .12199402-.18218994 .10699463-.18218994 .09599304-.17118836 .08099365-.15118408 .068984989-.13517761 .06098938-.127182 .04598999-.127182 .019989014-.12818909-.005004883-.15818787-.005004883-.18719483-.005004883-.21418762 .023986817-.2421875 .067993167-.2421875 .15299988-.2421875 .18998719-.17919922 .27799989-.027160645 .2979889 .0068511965 .35798646 .11286926 .41999818 .21488953 .47698976 .30891419 .5399933 .40592958 .5399933 .4459381 .5399933 .48094178 .5289917 .5019531 .5219879 .5019531 .5029907 .5019531 .46899415 .49394227 .44400025 .47694398 .44499208 .4419403 .44299317 .3809204 .43099977 .33891297 .4149933 .28289796 .35598756 .17488098 .2899933 .06085205H.2869873C.27999879 .21388245 .26098634 .42492677 .24699402 .49795533L.23899842 .5019531 .070999149 .45393373Z"/>
<path id="font_2_1" d="M.07398987 .2861328V.21612549H.31900025V.2861328H.07398987Z"/>
<path id="font_2_5" d="M.12998963 .3657837C.12998963 .3487854 .1349945 .33779908 .147995 .33779908 .1599884 .33779908 .18699646 .34777833 .23498535 .34777833 .31999208 .34777833 .36799623 .27090455 .36799623 .18403626 .36799623 .065216068 .30899049 .023269654 .23799134 .023269654 .17199707 .023269654 .1289978 .07319641 .10998535 .12911988 .10398865 .14808655 .09399414 .15707398 .07998657 .15707398 .06199646 .15707398 .026992798 .13809204 .026992798 .10215759 .026992798 .05921936 .09599304-.01171875 .23699951-.01171875 .38198854-.01171875 .47299195 .06121826 .47299195 .18902588 .47299195 .32281495 .35798646 .3627777 .30299378 .3677826V.3717804C.35699464 .38078309 .44400025 .4207611 .44400025 .5197296 .44400025 .6306915 .35699464 .6796875 .25 .6796875 .117996219 .6796875 .052993776 .60369876 .052993776 .5607147 .052993776 .5297241 .08799744 .51272585 .101989749 .51272585 .114990238 .51272585 .12298584 .5197296 .1269989 .5327301 .14898682 .60069277 .18699646 .64468386 .24299622 .64468386 .32199098 .64468386 .34098817 .57470706 .34098817 .51872256 .34098817 .4587555 .31999208 .38378907 .23498535 .38378907 .18699646 .38378907 .1599884 .39378358 .147995 .39378358 .1349945 .39378358 .12998963 .38378907 .12998963 .3657837Z"/>
<path id="font_2_4" d="M.4850006 .13195801 .45700074 .13696289C.43598939 .08299255 .41600038 .07598877 .37599183 .07598877H.11999512C.13598633 .1279602 .19499207 .19892884 .28799439 .2658844 .38398744 .33584596 .45799256 .38082887 .45799256 .49276734 .45799256 .63168337 .3659973 .6796875 .26098634 .6796875 .12399292 .6796875 .052993776 .5967102 .052993776 .54473879 .052993776 .51075747 .09098816 .49476625 .10798645 .49476625 .12599182 .49476625 .1329956 .50476077 .13699341 .5217438 .15299988 .5897064 .19198609 .64468386 .2539978 .64468386 .33099366 .64468386 .35299684 .5797119 .35299684 .50675967 .35299684 .3998108 .29899598 .33984376 .21199036 .26289369 .08898926 .15594483 .04598999 .08798218 .026992798 .009994507L.036987306 0H.45098878L.4850006 .13195801Z"/>
<path id="font_2_3" d="M.43699647 0V.0289917L.35299684 .035995485C.33198548 .037994386 .31999208 .04598999 .31999208 .08496094V.67367556L.31498719 .6796875 .10899353 .6446991V.6197052L.20199585 .6087036C.21899414 .6067047 .22599793 .5987091 .22599793 .56973269V.08496094C.22599793 .065979007 .22299195 .053985597 .21699524 .04698181 .21199036 .039993287 .20399475 .036987306 .19299317 .035995485L.10899353 .0289917V0H.43699647Z"/>
<path id="font_2_2" d="M.2649994 .64468386C.3600006 .64468386 .3869934 .49682618 .3869934 .33398438 .3869934 .17112732 .3600006 .023269654 .2649994 .023269654 .16999817 .023269654 .14299011 .17112732 .14299011 .33398438 .14299011 .49682618 .16999817 .64468386 .2649994 .64468386M.2649994 .6796875C.099990848 .6796875 .040985109 .53378298 .040985109 .33398438 .040985109 .13417053 .099990848-.01171875 .2649994-.01171875 .42999269-.01171875 .4889984 .13417053 .4889984 .33398438 .4889984 .53378298 .42999269 .6796875 .2649994 .6796875Z"/>
</defs>
<path transform="matrix(1.00002,0,0,-1.00005,53.78746,53.83704)" stroke-width=".3985" stroke-linecap="butt" stroke-miterlimit="10" stroke-linejoin="miter" fill="none" stroke="#cbcbcb" d="M-39.6849-45.35419V45.35419"/>
<path transform="matrix(1.00002,0,0,-1.00005,53.78746,53.83704)" stroke-width=".3985" stroke-linecap="butt" stroke-miterlimit="10" stroke-linejoin="miter" fill="none" stroke="#cbcbcb" d="M-34.01564-45.35419V45.35419"/>
<path transform="matrix(1.00002,0,0,-1.00005,53.78746,53.83704)" stroke-width=".3985" stroke-linecap="butt" stroke-miterlimit="10" stroke-linejoin="miter" fill="none" stroke="#cbcbcb" d="M-28.34636-45.35419V45.35419"/>
<path transform="matrix(1.00002,0,0,-1.00005,53.78746,53.83704)" stroke-width=".3985" stroke-linecap="butt" stroke-miterlimit="10" stroke-linejoin="miter" fill="none" stroke="#cbcbcb" d="M-22.6771-45.35419V45.35419"/>
<path transform="matrix(1.00002,0,0,-1.00005,53.78746,53.83704)" stroke-width=".3985" stroke-linecap="butt" stroke-miterlimit="10" stroke-linejoin="miter" fill="none" stroke="#cbcbcb" d="M-17.00781-45.35419V45.35419"/>
<path transform="matrix(1.00002,0,0,-1.00005,53.78746,53.83704)" stroke-width=".3985" stroke-linecap="butt" stroke-miterlimit="10" stroke-linejoin="miter" fill="none" stroke="#cbcbcb" d="M-11.33855-45.35419V45.35419"/>
<path transform="matrix(1.00002,0,0,-1.00005,53.78746,53.83704)" stroke-width=".3985" stroke-linecap="butt" stroke-miterlimit="10" stroke-linejoin="miter" fill="none" stroke="#cbcbcb" d="M-5.66925-45.35419V45.35419"/>
<path transform="matrix(1.00002,0,0,-1.00005,53.78746,53.83704)" stroke-width=".3985" stroke-linecap="butt" stroke-miterlimit="10" stroke-linejoin="miter" fill="none" stroke="#cbcbcb" d="M0-45.35419V45.35419"/>
<path transform="matrix(1.00002,0,0,-1.00005,53.78746,53.83704)" stroke-width=".3985" stroke-linecap="butt" stroke-miterlimit="10" stroke-linejoin="miter" fill="none" stroke="#cbcbcb" d="M5.66925-45.35419V45.35419"/>
<path transform="matrix(1.00002,0,0,-1.00005,53.78746,53.83704)" stroke-width=".3985" stroke-linecap="butt" stroke-miterlimit="10" stroke-linejoin="miter" fill="none" stroke="#cbcbcb" d="M11.33855-45.35419V45.35419"/>
<path transform="matrix(1.00002,0,0,-1.00005,53.78746,53.83704)" stroke-width=".3985" stroke-linecap="butt" stroke-miterlimit="10" stroke-linejoin="miter" fill="none" stroke="#cbcbcb" d="M17.00781-45.35419V45.35419"/>
<path transform="matrix(1.00002,0,0,-1.00005,53.78746,53.83704)" stroke-width=".3985" stroke-linecap="butt" stroke-miterlimit="10" stroke-linejoin="miter" fill="none" stroke="#cbcbcb" d="M22.6771-45.35419V45.35419"/>
<path transform="matrix(1.00002,0,0,-1.00005,53.78746,53.83704)" stroke-width=".3985" stroke-linecap="butt" stroke-miterlimit="10" stroke-linejoin="miter" fill="none" stroke="#cbcbcb" d="M28.34636-45.35419V45.35419"/>
<path transform="matrix(1.00002,0,0,-1.00005,53.78746,53.83704)" stroke-width=".3985" stroke-linecap="butt" stroke-miterlimit="10" stroke-linejoin="miter" fill="none" stroke="#cbcbcb" d="M34.01564-45.35419V45.35419"/>
<path transform="matrix(1.00002,0,0,-1.00005,53.78746,53.83704)" stroke-width=".3985" stroke-linecap="butt" stroke-miterlimit="10" stroke-linejoin="miter" fill="none" stroke="#cbcbcb" d="M39.6849-45.35419V45.35419"/>
<path transform="matrix(1.00002,0,0,-1.00005,53.78746,53.83704)" stroke-width=".3985" stroke-linecap="butt" stroke-miterlimit="10" stroke-linejoin="miter" fill="none" stroke="#cbcbcb" d="M-45.35419-39.6849H45.35419"/>
<path transform="matrix(1.00002,0,0,-1.00005,53.78746,53.83704)" stroke-width=".3985" stroke-linecap="butt" stroke-miterlimit="10" stroke-linejoin="miter" fill="none" stroke="#cbcbcb" d="M-45.35419-34.01564H45.35419"/>
<path transform="matrix(1.00002,0,0,-1.00005,53.78746,53.83704)" stroke-width=".3985" stroke-linecap="butt" stroke-miterlimit="10" stroke-linejoin="miter" fill="none" stroke="#cbcbcb" d="M-45.35419-28.34636H45.35419"/>
<path transform="matrix(1.00002,0,0,-1.00005,53.78746,53.83704)" stroke-width=".3985" stroke-linecap="butt" stroke-miterlimit="10" stroke-linejoin="miter" fill="none" stroke="#cbcbcb" d="M-45.35419-22.6771H45.35419"/>
<path transform="matrix(1.00002,0,0,-1.00005,53.78746,53.83704)" stroke-width=".3985" stroke-linecap="butt" stroke-miterlimit="10" stroke-linejoin="miter" fill="none" stroke="#cbcbcb" d="M-45.35419-17.00781H45.35419"/>
<path transform="matrix(1.00002,0,0,-1.00005,53.78746,53.83704)" stroke-width=".3985" stroke-linecap="butt" stroke-miterlimit="10" stroke-linejoin="miter" fill="none" stroke="#cbcbcb" d="M-45.35419-11.33855H45.35419"/>
<path transform="matrix(1.00002,0,0,-1.00005,53.78746,53.83704)" stroke-width=".3985" stroke-linecap="butt" stroke-miterlimit="10" stroke-linejoin="miter" fill="none" stroke="#cbcbcb" d="M-45.35419-5.66925H45.35419"/>
<path transform="matrix(1.00002,0,0,-1.00005,53.78746,53.83704)" stroke-width=".3985" stroke-linecap="butt" stroke-miterlimit="10" stroke-linejoin="miter" fill="none" stroke="#cbcbcb" d="M-45.35419 0H45.35419"/>
<path transform="matrix(1.00002,0,0,-1.00005,53.78746,53.83704)" stroke-width=".3985" stroke-linecap="butt" stroke-miterlimit="10" stroke-linejoin="miter" fill="none" stroke="#cbcbcb" d="M-45.35419 5.66925H45.35419"/>
<path transform="matrix(1.00002,0,0,-1.00005,53.78746,53.83704)" stroke-width=".3985" stroke-linecap="butt" stroke-miterlimit="10" stroke-linejoin="miter" fill="none" stroke="#cbcbcb" d="M-45.35419 11.33855H45.35419"/>
<path transform="matrix(1.00002,0,0,-1.00005,53.78746,53.83704)" stroke-width=".3985" stroke-linecap="butt" stroke-miterlimit="10" stroke-linejoin="miter" fill="none" stroke="#cbcbcb" d="M-45.35419 17.00781H45.35419"/>
<path transform="matrix(1.00002,0,0,-1.00005,53.78746,53.83704)" stroke-width=".3985" stroke-linecap="butt" stroke-miterlimit="10" stroke-linejoin="miter" fill="none" stroke="#cbcbcb" d="M-45.35419 22.6771H45.35419"/>
<path transform="matrix(1.00002,0,0,-1.00005,53.78746,53.83704)" stroke-width=".3985" stroke-linecap="butt" stroke-miterlimit="10" stroke-linejoin="miter" fill="none" stroke="#cbcbcb" d="M-45.35419 28.34636H45.35419"/>
<path transform="matrix(1.00002,0,0,-1.00005,53.78746,53.83704)" stroke-width=".3985" stroke-linecap="butt" stroke-miterlimit="10" stroke-linejoin="miter" fill="none" stroke="#cbcbcb" d="M-45.35419 34.01564H45.35419"/>
<path transform="matrix(1.00002,0,0,-1.00005,53.78746,53.83704)" stroke-width=".3985" stroke-linecap="butt" stroke-miterlimit="10" stroke-linejoin="miter" fill="none" stroke="#cbcbcb" d="M-45.35419 39.6849H45.35419"/>
<path transform="matrix(1.00002,0,0,-1.00005,53.78746,53.83704)" stroke-width=".3985" stroke-linecap="butt" stroke-miterlimit="10" stroke-linejoin="miter" fill="none" stroke="#000000" d="M-45.35419 0H51.75888"/>
<path transform="matrix(1.00002,0,0,-1.00005,105.74663,53.83704)" stroke-width=".3985" stroke-linecap="round" stroke-linejoin="round" fill="none" stroke="#000000" d="M-2.07224 2.39104C-1.69365 .95639-.84999 .27895 0 0-.84999-.27895-1.69365-.95639-2.07224-2.39104"/>
<use data-text="t" xlink:href="#font_1_1" transform="matrix(7.332647,0,0,-7.332866,101.54942,61.755437)"/>
<path transform="matrix(1.00002,0,0,-1.00005,53.78746,53.83704)" stroke-width=".3985" stroke-linecap="butt" stroke-miterlimit="10" stroke-linejoin="miter" fill="none" stroke="#000000" d="M0-45.35419V51.75888"/>
<path transform="matrix(0,-1.00005,-1.00002,-0,53.78746,1.8763161)" stroke-width=".3985" stroke-linecap="round" stroke-linejoin="round" fill="none" stroke="#000000" d="M-2.07224 2.39104C-1.69365 .95639-.84999 .27895 0 0-.84999-.27895-1.69365-.95639-2.07224-2.39104"/>
<use data-text="y" xlink:href="#font_1_2" transform="matrix(7.332647,0,0,-7.332866,46.2843,5.4246218)"/>
<path transform="matrix(1.00002,0,0,-1.00005,53.78746,53.83704)" stroke-width=".3985" stroke-linecap="butt" stroke-miterlimit="10" stroke-linejoin="miter" fill="none" stroke="#cbcbcb" d="M-45.35419-45.35419V45.35419H45.35419V-45.35419ZM45.35419 45.35419"/>
<path transform="matrix(1.00002,0,0,-1.00005,53.78746,53.83704)" stroke-width=".3985" stroke-linecap="butt" stroke-miterlimit="10" stroke-linejoin="miter" fill="none" stroke="#000000" d="M-34.01564-46.48811V-44.22026"/>
<use data-text="-" xlink:href="#font_2_1" transform="matrix(5.4995105,0,0,-5.499675,14.398674,105.1406)"/>
<use data-text="3" xlink:href="#font_2_5" transform="matrix(5.4995105,0,0,-5.499675,16.554482,105.1406)"/>
<path transform="matrix(1.00002,0,0,-1.00005,53.78746,53.83704)" stroke-width=".3985" stroke-linecap="butt" stroke-miterlimit="10" stroke-linejoin="miter" fill="none" stroke="#000000" d="M-22.6771-46.48811V-44.22026"/>
<use data-text="-" xlink:href="#font_2_1" transform="matrix(5.4995105,0,0,-5.499675,25.7379,105.1406)"/>
<use data-text="2" xlink:href="#font_2_4" transform="matrix(5.4995105,0,0,-5.499675,27.893708,105.1406)"/>
<path transform="matrix(1.00002,0,0,-1.00005,53.78746,53.83704)" stroke-width=".3985" stroke-linecap="butt" stroke-miterlimit="10" stroke-linejoin="miter" fill="none" stroke="#000000" d="M-11.33855-46.48811V-44.22026"/>
<use data-text="-" xlink:href="#font_2_1" transform="matrix(5.4995105,0,0,-5.499675,37.076128,105.1406)"/>
<use data-text="1" xlink:href="#font_2_3" transform="matrix(5.4995105,0,0,-5.499675,39.231935,105.1406)"/>
<path transform="matrix(1.00002,0,0,-1.00005,53.78746,53.83704)" stroke-width=".3985" stroke-linecap="butt" stroke-miterlimit="10" stroke-linejoin="miter" fill="none" stroke="#000000" d="M0-46.48811V-44.22026"/>
<use data-text="0" xlink:href="#font_2_2" transform="matrix(5.4995105,0,0,-5.499675,52.32843,105.1406)"/>
<path transform="matrix(1.00002,0,0,-1.00005,53.78746,53.83704)" stroke-width=".3985" stroke-linecap="butt" stroke-miterlimit="10" stroke-linejoin="miter" fill="none" stroke="#000000" d="M11.33855-46.48811V-44.22026"/>
<use data-text="1" xlink:href="#font_2_3" transform="matrix(5.4995105,0,0,-5.499675,63.667657,105.1406)"/>
<path transform="matrix(1.00002,0,0,-1.00005,53.78746,53.83704)" stroke-width=".3985" stroke-linecap="butt" stroke-miterlimit="10" stroke-linejoin="miter" fill="none" stroke="#000000" d="M22.6771-46.48811V-44.22026"/>
<use data-text="2" xlink:href="#font_2_4" transform="matrix(5.4995105,0,0,-5.499675,75.00688,105.1406)"/>
<path transform="matrix(1.00002,0,0,-1.00005,53.78746,53.83704)" stroke-width=".3985" stroke-linecap="butt" stroke-miterlimit="10" stroke-linejoin="miter" fill="none" stroke="#000000" d="M34.01564-46.48811V-44.22026"/>
<use data-text="3" xlink:href="#font_2_5" transform="matrix(5.4995105,0,0,-5.499675,86.34511,105.1406)"/>
<path transform="matrix(1.00002,0,0,-1.00005,53.78746,53.83704)" stroke-width=".3985" stroke-linecap="butt" stroke-miterlimit="10" stroke-linejoin="miter" fill="none" stroke="#000000" d="M-46.48811-34.01564H-44.22026"/>
<use data-text="-" xlink:href="#font_2_1" transform="matrix(5.4995105,0,0,-5.499675,1.0923996,89.68083)"/>
<use data-text="3" xlink:href="#font_2_5" transform="matrix(5.4995105,0,0,-5.499675,3.248207,89.68083)"/>
<path transform="matrix(1.00002,0,0,-1.00005,53.78746,53.83704)" stroke-width=".3985" stroke-linecap="butt" stroke-miterlimit="10" stroke-linejoin="miter" fill="none" stroke="#000000" d="M-46.48811-22.6771H-44.22026"/>
<use data-text="-" xlink:href="#font_2_1" transform="matrix(5.4995105,0,0,-5.499675,1.0923996,78.35626)"/>
<use data-text="2" xlink:href="#font_2_4" transform="matrix(5.4995105,0,0,-5.499675,3.248207,78.35626)"/>
<path transform="matrix(1.00002,0,0,-1.00005,53.78746,53.83704)" stroke-width=".3985" stroke-linecap="butt" stroke-miterlimit="10" stroke-linejoin="miter" fill="none" stroke="#000000" d="M-46.48811-11.33855H-44.22026"/>
<use data-text="-" xlink:href="#font_2_1" transform="matrix(5.4995105,0,0,-5.499675,1.0923996,67.0177)"/>
<use data-text="1" xlink:href="#font_2_3" transform="matrix(5.4995105,0,0,-5.499675,3.248207,67.0177)"/>
<path transform="matrix(1.00002,0,0,-1.00005,53.78746,53.83704)" stroke-width=".3985" stroke-linecap="butt" stroke-miterlimit="10" stroke-linejoin="miter" fill="none" stroke="#000000" d="M-46.48811 0H-44.22026"/>
<use data-text="0" xlink:href="#font_2_2" transform="matrix(5.4995105,0,0,-5.499675,3.2504502,55.66313)"/>
<path transform="matrix(1.00002,0,0,-1.00005,53.78746,53.83704)" stroke-width=".3985" stroke-linecap="butt" stroke-miterlimit="10" stroke-linejoin="miter" fill="none" stroke="#000000" d="M-46.48811 11.33855H-44.22026"/>
<use data-text="1" xlink:href="#font_2_3" transform="matrix(5.4995105,0,0,-5.499675,3.2504502,44.339567)"/>
<path transform="matrix(1.00002,0,0,-1.00005,53.78746,53.83704)" stroke-width=".3985" stroke-linecap="butt" stroke-miterlimit="10" stroke-linejoin="miter" fill="none" stroke="#000000" d="M-46.48811 22.6771H-44.22026"/>
<use data-text="2" xlink:href="#font_2_4" transform="matrix(5.4995105,0,0,-5.499675,3.2504502,33)"/>
<path transform="matrix(1.00002,0,0,-1.00005,53.78746,53.83704)" stroke-width=".3985" stroke-linecap="butt" stroke-miterlimit="10" stroke-linejoin="miter" fill="none" stroke="#000000" d="M-46.48811 34.01564H-44.22026"/>
<use data-text="3" xlink:href="#font_2_5" transform="matrix(5.4995105,0,0,-5.499675,3.2504502,21.646435)"/>
<path transform="matrix(1.00002,0,0,-1.00005,53.78746,53.83704)" stroke-width=".79701" stroke-linecap="butt" stroke-miterlimit="10" stroke-linejoin="miter" fill="none" stroke="#409f9f" d="M-40.80966-41.65378-38.56017-37.71603"/>
<path transform="matrix(1.00002,0,0,-1.00005,53.78746,53.83704)" stroke-width=".79701" stroke-linecap="butt" stroke-miterlimit="10" stroke-linejoin="miter" fill="none" stroke="#409f9f" d="M-40.40204-36.16704-38.96779-31.86424"/>
<path transform="matrix(1.00002,0,0,-1.00005,53.78746,53.83704)" stroke-width=".79701" stroke-linecap="butt" stroke-miterlimit="10" stroke-linejoin="miter" fill="none" stroke="#409f9f" d="M-40.26917-30.53755-39.10065-26.15517"/>
<path transform="matrix(1.00002,0,0,-1.00005,53.78746,53.83704)" stroke-width=".79701" stroke-linecap="butt" stroke-miterlimit="10" stroke-linejoin="miter" fill="none" stroke="#409f9f" d="M-40.2349-24.87694-39.13492-20.47723"/>
<path transform="matrix(1.00002,0,0,-1.00005,53.78746,53.83704)" stroke-width=".79701" stroke-linecap="butt" stroke-miterlimit="10" stroke-linejoin="miter" fill="none" stroke="#409f9f" d="M-40.26917-19.199-39.10065-14.81662"/>
<path transform="matrix(1.00002,0,0,-1.00005,53.78746,53.83704)" stroke-width=".79701" stroke-linecap="butt" stroke-miterlimit="10" stroke-linejoin="miter" fill="none" stroke="#409f9f" d="M-40.40204-13.48994-38.96779-9.18713"/>
<path transform="matrix(1.00002,0,0,-1.00005,53.78746,53.83704)" stroke-width=".79701" stroke-linecap="butt" stroke-miterlimit="10" stroke-linejoin="miter" fill="none" stroke="#409f9f" d="M-40.80966-7.63812-38.56017-3.70038"/>
<path transform="matrix(1.00002,0,0,-1.00005,53.78746,53.83704)" stroke-width=".79701" stroke-linecap="butt" stroke-miterlimit="10" stroke-linejoin="miter" fill="none" stroke="#409f9f" d="M-41.95258 0H-37.41725"/>
<path transform="matrix(1.00002,0,0,-1.00005,53.78746,53.83704)" stroke-width=".79701" stroke-linecap="butt" stroke-miterlimit="10" stroke-linejoin="miter" fill="none" stroke="#409f9f" d="M-40.80966 7.63795-38.56017 3.70055"/>
<path transform="matrix(1.00002,0,0,-1.00005,53.78746,53.83704)" stroke-width=".79701" stroke-linecap="butt" stroke-miterlimit="10" stroke-linejoin="miter" fill="none" stroke="#409f9f" d="M-40.40204 13.48978-38.96779 9.1873"/>
<path transform="matrix(1.00002,0,0,-1.00005,53.78746,53.83704)" stroke-width=".79701" stroke-linecap="butt" stroke-miterlimit="10" stroke-linejoin="miter" fill="none" stroke="#409f9f" d="M-40.26917 19.19882-39.10065 14.8168"/>
<path transform="matrix(1.00002,0,0,-1.00005,53.78746,53.83704)" stroke-width=".79701" stroke-linecap="butt" stroke-miterlimit="10" stroke-linejoin="miter" fill="none" stroke="#409f9f" d="M-40.2349 24.87694-39.13492 20.47723"/>
<path transform="matrix(1.00002,0,0,-1.00005,53.78746,53.83704)" stroke-width=".79701" stroke-linecap="butt" stroke-miterlimit="10" stroke-linejoin="miter" fill="none" stroke="#409f9f" d="M-40.26917 30.53738-39.10065 26.15535"/>
<path transform="matrix(1.00002,0,0,-1.00005,53.78746,53.83704)" stroke-width=".79701" stroke-linecap="butt" stroke-miterlimit="10" stroke-linejoin="miter" fill="none" stroke="#409f9f" d="M-40.40204 36.16687-38.96779 31.86441"/>
<path transform="matrix(1.00002,0,0,-1.00005,53.78746,53.83704)" stroke-width=".79701" stroke-linecap="butt" stroke-miterlimit="10" stroke-linejoin="miter" fill="none" stroke="#409f9f" d="M-40.80966 41.65361-38.56017 37.7162"/>
<path transform="matrix(1.00002,0,0,-1.00005,53.78746,53.83704)" stroke-width=".79701" stroke-linecap="butt" stroke-miterlimit="10" stroke-linejoin="miter" fill="none" stroke="#409f9f" d="M-35.14038-41.65378-32.89088-37.71603"/>
<path transform="matrix(1.00002,0,0,-1.00005,53.78746,53.83704)" stroke-width=".79701" stroke-linecap="butt" stroke-miterlimit="10" stroke-linejoin="miter" fill="none" stroke="#409f9f" d="M-34.73276-36.16704-33.29851-31.86424"/>
<path transform="matrix(1.00002,0,0,-1.00005,53.78746,53.83704)" stroke-width=".79701" stroke-linecap="butt" stroke-miterlimit="10" stroke-linejoin="miter" fill="none" stroke="#409f9f" d="M-34.5999-30.53755-33.43138-26.15517"/>
<path transform="matrix(1.00002,0,0,-1.00005,53.78746,53.83704)" stroke-width=".79701" stroke-linecap="butt" stroke-miterlimit="10" stroke-linejoin="miter" fill="none" stroke="#409f9f" d="M-34.56563-24.87694-33.46564-20.47723"/>
<path transform="matrix(1.00002,0,0,-1.00005,53.78746,53.83704)" stroke-width=".79701" stroke-linecap="butt" stroke-miterlimit="10" stroke-linejoin="miter" fill="none" stroke="#409f9f" d="M-34.5999-19.199-33.43138-14.81662"/>
<path transform="matrix(1.00002,0,0,-1.00005,53.78746,53.83704)" stroke-width=".79701" stroke-linecap="butt" stroke-miterlimit="10" stroke-linejoin="miter" fill="none" stroke="#409f9f" d="M-34.73276-13.48994-33.29851-9.18713"/>
<path transform="matrix(1.00002,0,0,-1.00005,53.78746,53.83704)" stroke-width=".79701" stroke-linecap="butt" stroke-miterlimit="10" stroke-linejoin="miter" fill="none" stroke="#409f9f" d="M-35.14038-7.63812-32.89088-3.70038"/>
<path transform="matrix(1.00002,0,0,-1.00005,53.78746,53.83704)" stroke-width=".79701" stroke-linecap="butt" stroke-miterlimit="10" stroke-linejoin="miter" fill="none" stroke="#409f9f" d="M-36.2833 0H-31.74797"/>
<path transform="matrix(1.00002,0,0,-1.00005,53.78746,53.83704)" stroke-width=".79701" stroke-linecap="butt" stroke-miterlimit="10" stroke-linejoin="miter" fill="none" stroke="#409f9f" d="M-35.14038 7.63795-32.89088 3.70055"/>
<path transform="matrix(1.00002,0,0,-1.00005,53.78746,53.83704)" stroke-width=".79701" stroke-linecap="butt" stroke-miterlimit="10" stroke-linejoin="miter" fill="none" stroke="#409f9f" d="M-34.73276 13.48978-33.29851 9.1873"/>
<path transform="matrix(1.00002,0,0,-1.00005,53.78746,53.83704)" stroke-width=".79701" stroke-linecap="butt" stroke-miterlimit="10" stroke-linejoin="miter" fill="none" stroke="#409f9f" d="M-34.5999 19.19882-33.43138 14.8168"/>
<path transform="matrix(1.00002,0,0,-1.00005,53.78746,53.83704)" stroke-width=".79701" stroke-linecap="butt" stroke-miterlimit="10" stroke-linejoin="miter" fill="none" stroke="#409f9f" d="M-34.56563 24.87694-33.46564 20.47723"/>
<path transform="matrix(1.00002,0,0,-1.00005,53.78746,53.83704)" stroke-width=".79701" stroke-linecap="butt" stroke-miterlimit="10" stroke-linejoin="miter" fill="none" stroke="#409f9f" d="M-34.5999 30.53738-33.43138 26.15535"/>
<path transform="matrix(1.00002,0,0,-1.00005,53.78746,53.83704)" stroke-width=".79701" stroke-linecap="butt" stroke-miterlimit="10" stroke-linejoin="miter" fill="none" stroke="#409f9f" d="M-34.73276 36.16687-33.29851 31.86441"/>
<path transform="matrix(1.00002,0,0,-1.00005,53.78746,53.83704)" stroke-width=".79701" stroke-linecap="butt" stroke-miterlimit="10" stroke-linejoin="miter" fill="none" stroke="#409f9f" d="M-35.14038 41.65361-32.89088 37.7162"/>
<path transform="matrix(1.00002,0,0,-1.00005,53.78746,53.83704)" stroke-width=".79701" stroke-linecap="butt" stroke-miterlimit="10" stroke-linejoin="miter" fill="none" stroke="#409f9f" d="M-29.47112-41.65378-27.22162-37.71603"/>
<path transform="matrix(1.00002,0,0,-1.00005,53.78746,53.83704)" stroke-width=".79701" stroke-linecap="butt" stroke-miterlimit="10" stroke-linejoin="miter" fill="none" stroke="#409f9f" d="M-29.06349-36.16704-27.62924-31.86424"/>
<path transform="matrix(1.00002,0,0,-1.00005,53.78746,53.83704)" stroke-width=".79701" stroke-linecap="butt" stroke-miterlimit="10" stroke-linejoin="miter" fill="none" stroke="#409f9f" d="M-28.93062-30.53755-27.7621-26.15517"/>
<path transform="matrix(1.00002,0,0,-1.00005,53.78746,53.83704)" stroke-width=".79701" stroke-linecap="butt" stroke-miterlimit="10" stroke-linejoin="miter" fill="none" stroke="#409f9f" d="M-28.89635-24.87694-27.79637-20.47723"/>
<path transform="matrix(1.00002,0,0,-1.00005,53.78746,53.83704)" stroke-width=".79701" stroke-linecap="butt" stroke-miterlimit="10" stroke-linejoin="miter" fill="none" stroke="#409f9f" d="M-28.93062-19.199-27.7621-14.81662"/>
<path transform="matrix(1.00002,0,0,-1.00005,53.78746,53.83704)" stroke-width=".79701" stroke-linecap="butt" stroke-miterlimit="10" stroke-linejoin="miter" fill="none" stroke="#409f9f" d="M-29.06349-13.48994-27.62924-9.18713"/>
<path transform="matrix(1.00002,0,0,-1.00005,53.78746,53.83704)" stroke-width=".79701" stroke-linecap="butt" stroke-miterlimit="10" stroke-linejoin="miter" fill="none" stroke="#409f9f" d="M-29.47112-7.63812-27.22162-3.70038"/>
<path transform="matrix(1.00002,0,0,-1.00005,53.78746,53.83704)" stroke-width=".79701" stroke-linecap="butt" stroke-miterlimit="10" stroke-linejoin="miter" fill="none" stroke="#409f9f" d="M-30.61403 0H-26.0787"/>
<path transform="matrix(1.00002,0,0,-1.00005,53.78746,53.83704)" stroke-width=".79701" stroke-linecap="butt" stroke-miterlimit="10" stroke-linejoin="miter" fill="none" stroke="#409f9f" d="M-29.47112 7.63795-27.22162 3.70055"/>
<path transform="matrix(1.00002,0,0,-1.00005,53.78746,53.83704)" stroke-width=".79701" stroke-linecap="butt" stroke-miterlimit="10" stroke-linejoin="miter" fill="none" stroke="#409f9f" d="M-29.06349 13.48978-27.62924 9.1873"/>
<path transform="matrix(1.00002,0,0,-1.00005,53.78746,53.83704)" stroke-width=".79701" stroke-linecap="butt" stroke-miterlimit="10" stroke-linejoin="miter" fill="none" stroke="#409f9f" d="M-28.93062 19.19882-27.7621 14.8168"/>
<path transform="matrix(1.00002,0,0,-1.00005,53.78746,53.83704)" stroke-width=".79701" stroke-linecap="butt" stroke-miterlimit="10" stroke-linejoin="miter" fill="none" stroke="#409f9f" d="M-28.89635 24.87694-27.79637 20.47723"/>
<path transform="matrix(1.00002,0,0,-1.00005,53.78746,53.83704)" stroke-width=".79701" stroke-linecap="butt" stroke-miterlimit="10" stroke-linejoin="miter" fill="none" stroke="#409f9f" d="M-28.93062 30.53738-27.7621 26.15535"/>
<path transform="matrix(1.00002,0,0,-1.00005,53.78746,53.83704)" stroke-width=".79701" stroke-linecap="butt" stroke-miterlimit="10" stroke-linejoin="miter" fill="none" stroke="#409f9f" d="M-29.06349 36.16687-27.62924 31.86441"/>
<path transform="matrix(1.00002,0,0,-1.00005,53.78746,53.83704)" stroke-width=".79701" stroke-linecap="butt" stroke-miterlimit="10" stroke-linejoin="miter" fill="none" stroke="#409f9f" d="M-29.47112 41.65361-27.22162 37.7162"/>
<path transform="matrix(1.00002,0,0,-1.00005,53.78746,53.83704)" stroke-width=".79701" stroke-linecap="butt" stroke-miterlimit="10" stroke-linejoin="miter" fill="none" stroke="#409f9f" d="M-23.80183-41.65378-21.55234-37.71603"/>
<path transform="matrix(1.00002,0,0,-1.00005,53.78746,53.83704)" stroke-width=".79701" stroke-linecap="butt" stroke-miterlimit="10" stroke-linejoin="miter" fill="none" stroke="#409f9f" d="M-23.39421-36.16704-21.95996-31.86424"/>
<path transform="matrix(1.00002,0,0,-1.00005,53.78746,53.83704)" stroke-width=".79701" stroke-linecap="butt" stroke-miterlimit="10" stroke-linejoin="miter" fill="none" stroke="#409f9f" d="M-23.26135-30.53755-22.09283-26.15517"/>
<path transform="matrix(1.00002,0,0,-1.00005,53.78746,53.83704)" stroke-width=".79701" stroke-linecap="butt" stroke-miterlimit="10" stroke-linejoin="miter" fill="none" stroke="#409f9f" d="M-23.22708-24.87694-22.12709-20.47723"/>
<path transform="matrix(1.00002,0,0,-1.00005,53.78746,53.83704)" stroke-width=".79701" stroke-linecap="butt" stroke-miterlimit="10" stroke-linejoin="miter" fill="none" stroke="#409f9f" d="M-23.26135-19.199-22.09283-14.81662"/>
<path transform="matrix(1.00002,0,0,-1.00005,53.78746,53.83704)" stroke-width=".79701" stroke-linecap="butt" stroke-miterlimit="10" stroke-linejoin="miter" fill="none" stroke="#409f9f" d="M-23.39421-13.48994-21.95996-9.18713"/>
<path transform="matrix(1.00002,0,0,-1.00005,53.78746,53.83704)" stroke-width=".79701" stroke-linecap="butt" stroke-miterlimit="10" stroke-linejoin="miter" fill="none" stroke="#409f9f" d="M-23.80183-7.63812-21.55234-3.70038"/>
<path transform="matrix(1.00002,0,0,-1.00005,53.78746,53.83704)" stroke-width=".79701" stroke-linecap="butt" stroke-miterlimit="10" stroke-linejoin="miter" fill="none" stroke="#409f9f" d="M-24.94475 0H-20.40942"/>
<path transform="matrix(1.00002,0,0,-1.00005,53.78746,53.83704)" stroke-width=".79701" stroke-linecap="butt" stroke-miterlimit="10" stroke-linejoin="miter" fill="none" stroke="#409f9f" d="M-23.80183 7.63795-21.55234 3.70055"/>
<path transform="matrix(1.00002,0,0,-1.00005,53.78746,53.83704)" stroke-width=".79701" stroke-linecap="butt" stroke-miterlimit="10" stroke-linejoin="miter" fill="none" stroke="#409f9f" d="M-23.39421 13.48978-21.95996 9.1873"/>
<path transform="matrix(1.00002,0,0,-1.00005,53.78746,53.83704)" stroke-width=".79701" stroke-linecap="butt" stroke-miterlimit="10" stroke-linejoin="miter" fill="none" stroke="#409f9f" d="M-23.26135 19.19882-22.09283 14.8168"/>
<path transform="matrix(1.00002,0,0,-1.00005,53.78746,53.83704)" stroke-width=".79701" stroke-linecap="butt" stroke-miterlimit="10" stroke-linejoin="miter" fill="none" stroke="#409f9f" d="M-23.22708 24.87694-22.12709 20.47723"/>
<path transform="matrix(1.00002,0,0,-1.00005,53.78746,53.83704)" stroke-width=".79701" stroke-linecap="butt" stroke-miterlimit="10" stroke-linejoin="miter" fill="none" stroke="#409f9f" d="M-23.26135 30.53738-22.09283 26.15535"/>
<path transform="matrix(1.00002,0,0,-1.00005,53.78746,53.83704)" stroke-width=".79701" stroke-linecap="butt" stroke-miterlimit="10" stroke-linejoin="miter" fill="none" stroke="#409f9f" d="M-23.39421 36.16687-21.95996 31.86441"/>
<path transform="matrix(1.00002,0,0,-1.00005,53.78746,53.83704)" stroke-width=".79701" stroke-linecap="butt" stroke-miterlimit="10" stroke-linejoin="miter" fill="none" stroke="#409f9f" d="M-23.80183 41.65361-21.55234 37.7162"/>
<path transform="matrix(1.00002,0,0,-1.00005,53.78746,53.83704)" stroke-width=".79701" stroke-linecap="butt" stroke-miterlimit="10" stroke-linejoin="miter" fill="none" stroke="#409f9f" d="M-18.13257-41.65378-15.88307-37.71603"/>
<path transform="matrix(1.00002,0,0,-1.00005,53.78746,53.83704)" stroke-width=".79701" stroke-linecap="butt" stroke-miterlimit="10" stroke-linejoin="miter" fill="none" stroke="#409f9f" d="M-17.72493-36.16704-16.2907-31.86424"/>
<path transform="matrix(1.00002,0,0,-1.00005,53.78746,53.83704)" stroke-width=".79701" stroke-linecap="butt" stroke-miterlimit="10" stroke-linejoin="miter" fill="none" stroke="#409f9f" d="M-17.59207-30.53755-16.42355-26.15517"/>
<path transform="matrix(1.00002,0,0,-1.00005,53.78746,53.83704)" stroke-width=".79701" stroke-linecap="butt" stroke-miterlimit="10" stroke-linejoin="miter" fill="none" stroke="#409f9f" d="M-17.5578-24.87694-16.45782-20.47723"/>
<path transform="matrix(1.00002,0,0,-1.00005,53.78746,53.83704)" stroke-width=".79701" stroke-linecap="butt" stroke-miterlimit="10" stroke-linejoin="miter" fill="none" stroke="#409f9f" d="M-17.59207-19.199-16.42355-14.81662"/>
<path transform="matrix(1.00002,0,0,-1.00005,53.78746,53.83704)" stroke-width=".79701" stroke-linecap="butt" stroke-miterlimit="10" stroke-linejoin="miter" fill="none" stroke="#409f9f" d="M-17.72493-13.48994-16.2907-9.18713"/>
<path transform="matrix(1.00002,0,0,-1.00005,53.78746,53.83704)" stroke-width=".79701" stroke-linecap="butt" stroke-miterlimit="10" stroke-linejoin="miter" fill="none" stroke="#409f9f" d="M-18.13257-7.63812-15.88307-3.70038"/>
<path transform="matrix(1.00002,0,0,-1.00005,53.78746,53.83704)" stroke-width=".79701" stroke-linecap="butt" stroke-miterlimit="10" stroke-linejoin="miter" fill="none" stroke="#409f9f" d="M-19.27548 0H-14.74014"/>
<path transform="matrix(1.00002,0,0,-1.00005,53.78746,53.83704)" stroke-width=".79701" stroke-linecap="butt" stroke-miterlimit="10" stroke-linejoin="miter" fill="none" stroke="#409f9f" d="M-18.13257 7.63795-15.88307 3.70055"/>
<path transform="matrix(1.00002,0,0,-1.00005,53.78746,53.83704)" stroke-width=".79701" stroke-linecap="butt" stroke-miterlimit="10" stroke-linejoin="miter" fill="none" stroke="#409f9f" d="M-17.72493 13.48978-16.2907 9.1873"/>
<path transform="matrix(1.00002,0,0,-1.00005,53.78746,53.83704)" stroke-width=".79701" stroke-linecap="butt" stroke-miterlimit="10" stroke-linejoin="miter" fill="none" stroke="#409f9f" d="M-17.59207 19.19882-16.42355 14.8168"/>
<path transform="matrix(1.00002,0,0,-1.00005,53.78746,53.83704)" stroke-width=".79701" stroke-linecap="butt" stroke-miterlimit="10" stroke-linejoin="miter" fill="none" stroke="#409f9f" d="M-17.5578 24.87694-16.45782 20.47723"/>
<path transform="matrix(1.00002,0,0,-1.00005,53.78746,53.83704)" stroke-width=".79701" stroke-linecap="butt" stroke-miterlimit="10" stroke-linejoin="miter" fill="none" stroke="#409f9f" d="M-17.59207 30.53738-16.42355 26.15535"/>
<path transform="matrix(1.00002,0,0,-1.00005,53.78746,53.83704)" stroke-width=".79701" stroke-linecap="butt" stroke-miterlimit="10" stroke-linejoin="miter" fill="none" stroke="#409f9f" d="M-17.72493 36.16687-16.2907 31.86441"/>
<path transform="matrix(1.00002,0,0,-1.00005,53.78746,53.83704)" stroke-width=".79701" stroke-linecap="butt" stroke-miterlimit="10" stroke-linejoin="miter" fill="none" stroke="#409f9f" d="M-18.13257 41.65361-15.88307 37.7162"/>
<path transform="matrix(1.00002,0,0,-1.00005,53.78746,53.83704)" stroke-width=".79701" stroke-linecap="butt" stroke-miterlimit="10" stroke-linejoin="miter" fill="none" stroke="#409f9f" d="M-12.46329-41.65378-10.21379-37.71603"/>
<path transform="matrix(1.00002,0,0,-1.00005,53.78746,53.83704)" stroke-width=".79701" stroke-linecap="butt" stroke-miterlimit="10" stroke-linejoin="miter" fill="none" stroke="#409f9f" d="M-12.05566-36.16704-10.62141-31.86424"/>
<path transform="matrix(1.00002,0,0,-1.00005,53.78746,53.83704)" stroke-width=".79701" stroke-linecap="butt" stroke-miterlimit="10" stroke-linejoin="miter" fill="none" stroke="#409f9f" d="M-11.92279-30.53755-10.75429-26.15517"/>
<path transform="matrix(1.00002,0,0,-1.00005,53.78746,53.83704)" stroke-width=".79701" stroke-linecap="butt" stroke-miterlimit="10" stroke-linejoin="miter" fill="none" stroke="#409f9f" d="M-11.88853-24.87694-10.78854-20.47723"/>
<path transform="matrix(1.00002,0,0,-1.00005,53.78746,53.83704)" stroke-width=".79701" stroke-linecap="butt" stroke-miterlimit="10" stroke-linejoin="miter" fill="none" stroke="#409f9f" d="M-11.92279-19.199-10.75429-14.81662"/>
<path transform="matrix(1.00002,0,0,-1.00005,53.78746,53.83704)" stroke-width=".79701" stroke-linecap="butt" stroke-miterlimit="10" stroke-linejoin="miter" fill="none" stroke="#409f9f" d="M-12.05566-13.48994-10.62141-9.18713"/>
<path transform="matrix(1.00002,0,0,-1.00005,53.78746,53.83704)" stroke-width=".79701" stroke-linecap="butt" stroke-miterlimit="10" stroke-linejoin="miter" fill="none" stroke="#409f9f" d="M-12.46329-7.63812-10.21379-3.70038"/>
<path transform="matrix(1.00002,0,0,-1.00005,53.78746,53.83704)" stroke-width=".79701" stroke-linecap="butt" stroke-miterlimit="10" stroke-linejoin="miter" fill="none" stroke="#409f9f" d="M-13.6062 0H-9.07088"/>
<path transform="matrix(1.00002,0,0,-1.00005,53.78746,53.83704)" stroke-width=".79701" stroke-linecap="butt" stroke-miterlimit="10" stroke-linejoin="miter" fill="none" stroke="#409f9f" d="M-12.46329 7.63795-10.21379 3.70055"/>
<path transform="matrix(1.00002,0,0,-1.00005,53.78746,53.83704)" stroke-width=".79701" stroke-linecap="butt" stroke-miterlimit="10" stroke-linejoin="miter" fill="none" stroke="#409f9f" d="M-12.05566 13.48978-10.62141 9.1873"/>
<path transform="matrix(1.00002,0,0,-1.00005,53.78746,53.83704)" stroke-width=".79701" stroke-linecap="butt" stroke-miterlimit="10" stroke-linejoin="miter" fill="none" stroke="#409f9f" d="M-11.92279 19.19882-10.75429 14.8168"/>
<path transform="matrix(1.00002,0,0,-1.00005,53.78746,53.83704)" stroke-width=".79701" stroke-linecap="butt" stroke-miterlimit="10" stroke-linejoin="miter" fill="none" stroke="#409f9f" d="M-11.88853 24.87694-10.78854 20.47723"/>
<path transform="matrix(1.00002,0,0,-1.00005,53.78746,53.83704)" stroke-width=".79701" stroke-linecap="butt" stroke-miterlimit="10" stroke-linejoin="miter" fill="none" stroke="#409f9f" d="M-11.92279 30.53738-10.75429 26.15535"/>
<path transform="matrix(1.00002,0,0,-1.00005,53.78746,53.83704)" stroke-width=".79701" stroke-linecap="butt" stroke-miterlimit="10" stroke-linejoin="miter" fill="none" stroke="#409f9f" d="M-12.05566 36.16687-10.62141 31.86441"/>
<path transform="matrix(1.00002,0,0,-1.00005,53.78746,53.83704)" stroke-width=".79701" stroke-linecap="butt" stroke-miterlimit="10" stroke-linejoin="miter" fill="none" stroke="#409f9f" d="M-12.46329 41.65361-10.21379 37.7162"/>
<path transform="matrix(1.00002,0,0,-1.00005,53.78746,53.83704)" stroke-width=".79701" stroke-linecap="butt" stroke-miterlimit="10" stroke-linejoin="miter" fill="none" stroke="#409f9f" d="M-6.794-41.65378-4.5445-37.71603"/>
<path transform="matrix(1.00002,0,0,-1.00005,53.78746,53.83704)" stroke-width=".79701" stroke-linecap="butt" stroke-miterlimit="10" stroke-linejoin="miter" fill="none" stroke="#409f9f" d="M-6.38637-36.16704-4.95213-31.86424"/>
<path transform="matrix(1.00002,0,0,-1.00005,53.78746,53.83704)" stroke-width=".79701" stroke-linecap="butt" stroke-miterlimit="10" stroke-linejoin="miter" fill="none" stroke="#409f9f" d="M-6.25351-30.53755-5.08499-26.15517"/>
<path transform="matrix(1.00002,0,0,-1.00005,53.78746,53.83704)" stroke-width=".79701" stroke-linecap="butt" stroke-miterlimit="10" stroke-linejoin="miter" fill="none" stroke="#409f9f" d="M-6.21924-24.87694-5.11926-20.47723"/>
<path transform="matrix(1.00002,0,0,-1.00005,53.78746,53.83704)" stroke-width=".79701" stroke-linecap="butt" stroke-miterlimit="10" stroke-linejoin="miter" fill="none" stroke="#409f9f" d="M-6.25351-19.199-5.08499-14.81662"/>
<path transform="matrix(1.00002,0,0,-1.00005,53.78746,53.83704)" stroke-width=".79701" stroke-linecap="butt" stroke-miterlimit="10" stroke-linejoin="miter" fill="none" stroke="#409f9f" d="M-6.38637-13.48994-4.95213-9.18713"/>
<path transform="matrix(1.00002,0,0,-1.00005,53.78746,53.83704)" stroke-width=".79701" stroke-linecap="butt" stroke-miterlimit="10" stroke-linejoin="miter" fill="none" stroke="#409f9f" d="M-6.794-7.63812-4.5445-3.70038"/>
<path transform="matrix(1.00002,0,0,-1.00005,53.78746,53.83704)" stroke-width=".79701" stroke-linecap="butt" stroke-miterlimit="10" stroke-linejoin="miter" fill="none" stroke="#409f9f" d="M-7.93692 0H-3.40158"/>
<path transform="matrix(1.00002,0,0,-1.00005,53.78746,53.83704)" stroke-width=".79701" stroke-linecap="butt" stroke-miterlimit="10" stroke-linejoin="miter" fill="none" stroke="#409f9f" d="M-6.794 7.63795-4.5445 3.70055"/>
<path transform="matrix(1.00002,0,0,-1.00005,53.78746,53.83704)" stroke-width=".79701" stroke-linecap="butt" stroke-miterlimit="10" stroke-linejoin="miter" fill="none" stroke="#409f9f" d="M-6.38637 13.48978-4.95213 9.1873"/>
<path transform="matrix(1.00002,0,0,-1.00005,53.78746,53.83704)" stroke-width=".79701" stroke-linecap="butt" stroke-miterlimit="10" stroke-linejoin="miter" fill="none" stroke="#409f9f" d="M-6.25351 19.19882-5.08499 14.8168"/>
<path transform="matrix(1.00002,0,0,-1.00005,53.78746,53.83704)" stroke-width=".79701" stroke-linecap="butt" stroke-miterlimit="10" stroke-linejoin="miter" fill="none" stroke="#409f9f" d="M-6.21924 24.87694-5.11926 20.47723"/>
<path transform="matrix(1.00002,0,0,-1.00005,53.78746,53.83704)" stroke-width=".79701" stroke-linecap="butt" stroke-miterlimit="10" stroke-linejoin="miter" fill="none" stroke="#409f9f" d="M-6.25351 30.53738-5.08499 26.15535"/>
<path transform="matrix(1.00002,0,0,-1.00005,53.78746,53.83704)" stroke-width=".79701" stroke-linecap="butt" stroke-miterlimit="10" stroke-linejoin="miter" fill="none" stroke="#409f9f" d="M-6.38637 36.16687-4.95213 31.86441"/>
<path transform="matrix(1.00002,0,0,-1.00005,53.78746,53.83704)" stroke-width=".79701" stroke-linecap="butt" stroke-miterlimit="10" stroke-linejoin="miter" fill="none" stroke="#409f9f" d="M-6.794 41.65361-4.5445 37.7162"/>
<path transform="matrix(1.00002,0,0,-1.00005,53.78746,53.83704)" stroke-width=".79701" stroke-linecap="butt" stroke-miterlimit="10" stroke-linejoin="miter" fill="none" stroke="#409f9f" d="M-1.12474-41.65378 1.12474-37.71603"/>
<path transform="matrix(1.00002,0,0,-1.00005,53.78746,53.83704)" stroke-width=".79701" stroke-linecap="butt" stroke-miterlimit="10" stroke-linejoin="miter" fill="none" stroke="#409f9f" d="M-.71712-36.16704 .71712-31.86424"/>
<path transform="matrix(1.00002,0,0,-1.00005,53.78746,53.83704)" stroke-width=".79701" stroke-linecap="butt" stroke-miterlimit="10" stroke-linejoin="miter" fill="none" stroke="#409f9f" d="M-.58424-30.53755 .58424-26.15517"/>
<path transform="matrix(1.00002,0,0,-1.00005,53.78746,53.83704)" stroke-width=".79701" stroke-linecap="butt" stroke-miterlimit="10" stroke-linejoin="miter" fill="none" stroke="#409f9f" d="M-.54999-24.87694 .54999-20.47723"/>
<path transform="matrix(1.00002,0,0,-1.00005,53.78746,53.83704)" stroke-width=".79701" stroke-linecap="butt" stroke-miterlimit="10" stroke-linejoin="miter" fill="none" stroke="#409f9f" d="M-.58424-19.199 .58424-14.81662"/>
<path transform="matrix(1.00002,0,0,-1.00005,53.78746,53.83704)" stroke-width=".79701" stroke-linecap="butt" stroke-miterlimit="10" stroke-linejoin="miter" fill="none" stroke="#409f9f" d="M-.71712-13.48994 .71712-9.18713"/>
<path transform="matrix(1.00002,0,0,-1.00005,53.78746,53.83704)" stroke-width=".79701" stroke-linecap="butt" stroke-miterlimit="10" stroke-linejoin="miter" fill="none" stroke="#409f9f" d="M-1.12474-7.63812 1.12474-3.70038"/>
<path transform="matrix(1.00002,0,0,-1.00005,53.78746,53.83704)" stroke-width=".79701" stroke-linecap="butt" stroke-miterlimit="10" stroke-linejoin="miter" fill="none" stroke="#409f9f" d="M-2.26765 0H2.26765"/>
<path transform="matrix(1.00002,0,0,-1.00005,53.78746,53.83704)" stroke-width=".79701" stroke-linecap="butt" stroke-miterlimit="10" stroke-linejoin="miter" fill="none" stroke="#409f9f" d="M-1.12474 7.63795 1.12474 3.70055"/>
<path transform="matrix(1.00002,0,0,-1.00005,53.78746,53.83704)" stroke-width=".79701" stroke-linecap="butt" stroke-miterlimit="10" stroke-linejoin="miter" fill="none" stroke="#409f9f" d="M-.71712 13.48978 .71712 9.1873"/>
<path transform="matrix(1.00002,0,0,-1.00005,53.78746,53.83704)" stroke-width=".79701" stroke-linecap="butt" stroke-miterlimit="10" stroke-linejoin="miter" fill="none" stroke="#409f9f" d="M-.58424 19.19882 .58424 14.8168"/>
<path transform="matrix(1.00002,0,0,-1.00005,53.78746,53.83704)" stroke-width=".79701" stroke-linecap="butt" stroke-miterlimit="10" stroke-linejoin="miter" fill="none" stroke="#409f9f" d="M-.54999 24.87694 .54999 20.47723"/>
<path transform="matrix(1.00002,0,0,-1.00005,53.78746,53.83704)" stroke-width=".79701" stroke-linecap="butt" stroke-miterlimit="10" stroke-linejoin="miter" fill="none" stroke="#409f9f" d="M-.58424 30.53738 .58424 26.15535"/>
<path transform="matrix(1.00002,0,0,-1.00005,53.78746,53.83704)" stroke-width=".79701" stroke-linecap="butt" stroke-miterlimit="10" stroke-linejoin="miter" fill="none" stroke="#409f9f" d="M-.71712 36.16687 .71712 31.86441"/>
<path transform="matrix(1.00002,0,0,-1.00005,53.78746,53.83704)" stroke-width=".79701" stroke-linecap="butt" stroke-miterlimit="10" stroke-linejoin="miter" fill="none" stroke="#409f9f" d="M-1.12474 41.65361 1.12474 37.7162"/>
<path transform="matrix(1.00002,0,0,-1.00005,53.78746,53.83704)" stroke-width=".79701" stroke-linecap="butt" stroke-miterlimit="10" stroke-linejoin="miter" fill="none" stroke="#409f9f" d="M4.5445-41.65378 6.794-37.71603"/>
<path transform="matrix(1.00002,0,0,-1.00005,53.78746,53.83704)" stroke-width=".79701" stroke-linecap="butt" stroke-miterlimit="10" stroke-linejoin="miter" fill="none" stroke="#409f9f" d="M4.95213-36.16704 6.38637-31.86424"/>
<path transform="matrix(1.00002,0,0,-1.00005,53.78746,53.83704)" stroke-width=".79701" stroke-linecap="butt" stroke-miterlimit="10" stroke-linejoin="miter" fill="none" stroke="#409f9f" d="M5.08499-30.53755 6.25351-26.15517"/>
<path transform="matrix(1.00002,0,0,-1.00005,53.78746,53.83704)" stroke-width=".79701" stroke-linecap="butt" stroke-miterlimit="10" stroke-linejoin="miter" fill="none" stroke="#409f9f" d="M5.11926-24.87694 6.21924-20.47723"/>
<path transform="matrix(1.00002,0,0,-1.00005,53.78746,53.83704)" stroke-width=".79701" stroke-linecap="butt" stroke-miterlimit="10" stroke-linejoin="miter" fill="none" stroke="#409f9f" d="M5.08499-19.199 6.25351-14.81662"/>
<path transform="matrix(1.00002,0,0,-1.00005,53.78746,53.83704)" stroke-width=".79701" stroke-linecap="butt" stroke-miterlimit="10" stroke-linejoin="miter" fill="none" stroke="#409f9f" d="M4.95213-13.48994 6.38637-9.18713"/>
<path transform="matrix(1.00002,0,0,-1.00005,53.78746,53.83704)" stroke-width=".79701" stroke-linecap="butt" stroke-miterlimit="10" stroke-linejoin="miter" fill="none" stroke="#409f9f" d="M4.5445-7.63812 6.794-3.70038"/>
<path transform="matrix(1.00002,0,0,-1.00005,53.78746,53.83704)" stroke-width=".79701" stroke-linecap="butt" stroke-miterlimit="10" stroke-linejoin="miter" fill="none" stroke="#409f9f" d="M3.40158 0H7.93692"/>
<path transform="matrix(1.00002,0,0,-1.00005,53.78746,53.83704)" stroke-width=".79701" stroke-linecap="butt" stroke-miterlimit="10" stroke-linejoin="miter" fill="none" stroke="#409f9f" d="M4.5445 7.63795 6.794 3.70055"/>
<path transform="matrix(1.00002,0,0,-1.00005,53.78746,53.83704)" stroke-width=".79701" stroke-linecap="butt" stroke-miterlimit="10" stroke-linejoin="miter" fill="none" stroke="#409f9f" d="M4.95213 13.48978 6.38637 9.1873"/>
<path transform="matrix(1.00002,0,0,-1.00005,53.78746,53.83704)" stroke-width=".79701" stroke-linecap="butt" stroke-miterlimit="10" stroke-linejoin="miter" fill="none" stroke="#409f9f" d="M5.08499 19.19882 6.25351 14.8168"/>
<path transform="matrix(1.00002,0,0,-1.00005,53.78746,53.83704)" stroke-width=".79701" stroke-linecap="butt" stroke-miterlimit="10" stroke-linejoin="miter" fill="none" stroke="#409f9f" d="M5.11926 24.87694 6.21924 20.47723"/>
<path transform="matrix(1.00002,0,0,-1.00005,53.78746,53.83704)" stroke-width=".79701" stroke-linecap="butt" stroke-miterlimit="10" stroke-linejoin="miter" fill="none" stroke="#409f9f" d="M5.08499 30.53738 6.25351 26.15535"/>
<path transform="matrix(1.00002,0,0,-1.00005,53.78746,53.83704)" stroke-width=".79701" stroke-linecap="butt" stroke-miterlimit="10" stroke-linejoin="miter" fill="none" stroke="#409f9f" d="M4.95213 36.16687 6.38637 31.86441"/>
<path transform="matrix(1.00002,0,0,-1.00005,53.78746,53.83704)" stroke-width=".79701" stroke-linecap="butt" stroke-miterlimit="10" stroke-linejoin="miter" fill="none" stroke="#409f9f" d="M4.5445 41.65361 6.794 37.7162"/>
<path transform="matrix(1.00002,0,0,-1.00005,53.78746,53.83704)" stroke-width=".79701" stroke-linecap="butt" stroke-miterlimit="10" stroke-linejoin="miter" fill="none" stroke="#409f9f" d="M10.21379-41.65378 12.46329-37.71603"/>
<path transform="matrix(1.00002,0,0,-1.00005,53.78746,53.83704)" stroke-width=".79701" stroke-linecap="butt" stroke-miterlimit="10" stroke-linejoin="miter" fill="none" stroke="#409f9f" d="M10.62141-36.16704 12.05566-31.86424"/>
<path transform="matrix(1.00002,0,0,-1.00005,53.78746,53.83704)" stroke-width=".79701" stroke-linecap="butt" stroke-miterlimit="10" stroke-linejoin="miter" fill="none" stroke="#409f9f" d="M10.75429-30.53755 11.92279-26.15517"/>
<path transform="matrix(1.00002,0,0,-1.00005,53.78746,53.83704)" stroke-width=".79701" stroke-linecap="butt" stroke-miterlimit="10" stroke-linejoin="miter" fill="none" stroke="#409f9f" d="M10.78854-24.87694 11.88853-20.47723"/>
<path transform="matrix(1.00002,0,0,-1.00005,53.78746,53.83704)" stroke-width=".79701" stroke-linecap="butt" stroke-miterlimit="10" stroke-linejoin="miter" fill="none" stroke="#409f9f" d="M10.75429-19.199 11.92279-14.81662"/>
<path transform="matrix(1.00002,0,0,-1.00005,53.78746,53.83704)" stroke-width=".79701" stroke-linecap="butt" stroke-miterlimit="10" stroke-linejoin="miter" fill="none" stroke="#409f9f" d="M10.62141-13.48994 12.05566-9.18713"/>
<path transform="matrix(1.00002,0,0,-1.00005,53.78746,53.83704)" stroke-width=".79701" stroke-linecap="butt" stroke-miterlimit="10" stroke-linejoin="miter" fill="none" stroke="#409f9f" d="M10.21379-7.63812 12.46329-3.70038"/>
<path transform="matrix(1.00002,0,0,-1.00005,53.78746,53.83704)" stroke-width=".79701" stroke-linecap="butt" stroke-miterlimit="10" stroke-linejoin="miter" fill="none" stroke="#409f9f" d="M9.07088 0H13.6062"/>
<path transform="matrix(1.00002,0,0,-1.00005,53.78746,53.83704)" stroke-width=".79701" stroke-linecap="butt" stroke-miterlimit="10" stroke-linejoin="miter" fill="none" stroke="#409f9f" d="M10.21379 7.63795 12.46329 3.70055"/>
<path transform="matrix(1.00002,0,0,-1.00005,53.78746,53.83704)" stroke-width=".79701" stroke-linecap="butt" stroke-miterlimit="10" stroke-linejoin="miter" fill="none" stroke="#409f9f" d="M10.62141 13.48978 12.05566 9.1873"/>
<path transform="matrix(1.00002,0,0,-1.00005,53.78746,53.83704)" stroke-width=".79701" stroke-linecap="butt" stroke-miterlimit="10" stroke-linejoin="miter" fill="none" stroke="#409f9f" d="M10.75429 19.19882 11.92279 14.8168"/>
<path transform="matrix(1.00002,0,0,-1.00005,53.78746,53.83704)" stroke-width=".79701" stroke-linecap="butt" stroke-miterlimit="10" stroke-linejoin="miter" fill="none" stroke="#409f9f" d="M10.78854 24.87694 11.88853 20.47723"/>
<path transform="matrix(1.00002,0,0,-1.00005,53.78746,53.83704)" stroke-width=".79701" stroke-linecap="butt" stroke-miterlimit="10" stroke-linejoin="miter" fill="none" stroke="#409f9f" d="M10.75429 30.53738 11.92279 26.15535"/>
<path transform="matrix(1.00002,0,0,-1.00005,53.78746,53.83704)" stroke-width=".79701" stroke-linecap="butt" stroke-miterlimit="10" stroke-linejoin="miter" fill="none" stroke="#409f9f" d="M10.62141 36.16687 12.05566 31.86441"/>
<path transform="matrix(1.00002,0,0,-1.00005,53.78746,53.83704)" stroke-width=".79701" stroke-linecap="butt" stroke-miterlimit="10" stroke-linejoin="miter" fill="none" stroke="#409f9f" d="M10.21379 41.65361 12.46329 37.7162"/>
<path transform="matrix(1.00002,0,0,-1.00005,53.78746,53.83704)" stroke-width=".79701" stroke-linecap="butt" stroke-miterlimit="10" stroke-linejoin="miter" fill="none" stroke="#409f9f" d="M15.88307-41.65378 18.13257-37.71603"/>
<path transform="matrix(1.00002,0,0,-1.00005,53.78746,53.83704)" stroke-width=".79701" stroke-linecap="butt" stroke-miterlimit="10" stroke-linejoin="miter" fill="none" stroke="#409f9f" d="M16.2907-36.16704 17.72493-31.86424"/>
<path transform="matrix(1.00002,0,0,-1.00005,53.78746,53.83704)" stroke-width=".79701" stroke-linecap="butt" stroke-miterlimit="10" stroke-linejoin="miter" fill="none" stroke="#409f9f" d="M16.42355-30.53755 17.59207-26.15517"/>
<path transform="matrix(1.00002,0,0,-1.00005,53.78746,53.83704)" stroke-width=".79701" stroke-linecap="butt" stroke-miterlimit="10" stroke-linejoin="miter" fill="none" stroke="#409f9f" d="M16.45782-24.87694 17.5578-20.47723"/>
<path transform="matrix(1.00002,0,0,-1.00005,53.78746,53.83704)" stroke-width=".79701" stroke-linecap="butt" stroke-miterlimit="10" stroke-linejoin="miter" fill="none" stroke="#409f9f" d="M16.42355-19.199 17.59207-14.81662"/>
<path transform="matrix(1.00002,0,0,-1.00005,53.78746,53.83704)" stroke-width=".79701" stroke-linecap="butt" stroke-miterlimit="10" stroke-linejoin="miter" fill="none" stroke="#409f9f" d="M16.2907-13.48994 17.72493-9.18713"/>
<path transform="matrix(1.00002,0,0,-1.00005,53.78746,53.83704)" stroke-width=".79701" stroke-linecap="butt" stroke-miterlimit="10" stroke-linejoin="miter" fill="none" stroke="#409f9f" d="M15.88307-7.63812 18.13257-3.70038"/>
<path transform="matrix(1.00002,0,0,-1.00005,53.78746,53.83704)" stroke-width=".79701" stroke-linecap="butt" stroke-miterlimit="10" stroke-linejoin="miter" fill="none" stroke="#409f9f" d="M14.74014 0H19.27548"/>
<path transform="matrix(1.00002,0,0,-1.00005,53.78746,53.83704)" stroke-width=".79701" stroke-linecap="butt" stroke-miterlimit="10" stroke-linejoin="miter" fill="none" stroke="#409f9f" d="M15.88307 7.63795 18.13257 3.70055"/>
<path transform="matrix(1.00002,0,0,-1.00005,53.78746,53.83704)" stroke-width=".79701" stroke-linecap="butt" stroke-miterlimit="10" stroke-linejoin="miter" fill="none" stroke="#409f9f" d="M16.2907 13.48978 17.72493 9.1873"/>
<path transform="matrix(1.00002,0,0,-1.00005,53.78746,53.83704)" stroke-width=".79701" stroke-linecap="butt" stroke-miterlimit="10" stroke-linejoin="miter" fill="none" stroke="#409f9f" d="M16.42355 19.19882 17.59207 14.8168"/>
<path transform="matrix(1.00002,0,0,-1.00005,53.78746,53.83704)" stroke-width=".79701" stroke-linecap="butt" stroke-miterlimit="10" stroke-linejoin="miter" fill="none" stroke="#409f9f" d="M16.45782 24.87694 17.5578 20.47723"/>
<path transform="matrix(1.00002,0,0,-1.00005,53.78746,53.83704)" stroke-width=".79701" stroke-linecap="butt" stroke-miterlimit="10" stroke-linejoin="miter" fill="none" stroke="#409f9f" d="M16.42355 30.53738 17.59207 26.15535"/>
<path transform="matrix(1.00002,0,0,-1.00005,53.78746,53.83704)" stroke-width=".79701" stroke-linecap="butt" stroke-miterlimit="10" stroke-linejoin="miter" fill="none" stroke="#409f9f" d="M16.2907 36.16687 17.72493 31.86441"/>
<path transform="matrix(1.00002,0,0,-1.00005,53.78746,53.83704)" stroke-width=".79701" stroke-linecap="butt" stroke-miterlimit="10" stroke-linejoin="miter" fill="none" stroke="#409f9f" d="M15.88307 41.65361 18.13257 37.7162"/>
<path transform="matrix(1.00002,0,0,-1.00005,53.78746,53.83704)" stroke-width=".79701" stroke-linecap="butt" stroke-miterlimit="10" stroke-linejoin="miter" fill="none" stroke="#409f9f" d="M21.55234-41.65378 23.80183-37.71603"/>
<path transform="matrix(1.00002,0,0,-1.00005,53.78746,53.83704)" stroke-width=".79701" stroke-linecap="butt" stroke-miterlimit="10" stroke-linejoin="miter" fill="none" stroke="#409f9f" d="M21.95996-36.16704 23.39421-31.86424"/>
<path transform="matrix(1.00002,0,0,-1.00005,53.78746,53.83704)" stroke-width=".79701" stroke-linecap="butt" stroke-miterlimit="10" stroke-linejoin="miter" fill="none" stroke="#409f9f" d="M22.09283-30.53755 23.26135-26.15517"/>
<path transform="matrix(1.00002,0,0,-1.00005,53.78746,53.83704)" stroke-width=".79701" stroke-linecap="butt" stroke-miterlimit="10" stroke-linejoin="miter" fill="none" stroke="#409f9f" d="M22.12709-24.87694 23.22708-20.47723"/>
<path transform="matrix(1.00002,0,0,-1.00005,53.78746,53.83704)" stroke-width=".79701" stroke-linecap="butt" stroke-miterlimit="10" stroke-linejoin="miter" fill="none" stroke="#409f9f" d="M22.09283-19.199 23.26135-14.81662"/>
<path transform="matrix(1.00002,0,0,-1.00005,53.78746,53.83704)" stroke-width=".79701" stroke-linecap="butt" stroke-miterlimit="10" stroke-linejoin="miter" fill="none" stroke="#409f9f" d="M21.95996-13.48994 23.39421-9.18713"/>
<path transform="matrix(1.00002,0,0,-1.00005,53.78746,53.83704)" stroke-width=".79701" stroke-linecap="butt" stroke-miterlimit="10" stroke-linejoin="miter" fill="none" stroke="#409f9f" d="M21.55234-7.63812 23.80183-3.70038"/>
<path transform="matrix(1.00002,0,0,-1.00005,53.78746,53.83704)" stroke-width=".79701" stroke-linecap="butt" stroke-miterlimit="10" stroke-linejoin="miter" fill="none" stroke="#409f9f" d="M20.40942 0H24.94475"/>
<path transform="matrix(1.00002,0,0,-1.00005,53.78746,53.83704)" stroke-width=".79701" stroke-linecap="butt" stroke-miterlimit="10" stroke-linejoin="miter" fill="none" stroke="#409f9f" d="M21.55234 7.63795 23.80183 3.70055"/>
<path transform="matrix(1.00002,0,0,-1.00005,53.78746,53.83704)" stroke-width=".79701" stroke-linecap="butt" stroke-miterlimit="10" stroke-linejoin="miter" fill="none" stroke="#409f9f" d="M21.95996 13.48978 23.39421 9.1873"/>
<path transform="matrix(1.00002,0,0,-1.00005,53.78746,53.83704)" stroke-width=".79701" stroke-linecap="butt" stroke-miterlimit="10" stroke-linejoin="miter" fill="none" stroke="#409f9f" d="M22.09283 19.19882 23.26135 14.8168"/>
<path transform="matrix(1.00002,0,0,-1.00005,53.78746,53.83704)" stroke-width=".79701" stroke-linecap="butt" stroke-miterlimit="10" stroke-linejoin="miter" fill="none" stroke="#409f9f" d="M22.12709 24.87694 23.22708 20.47723"/>
<path transform="matrix(1.00002,0,0,-1.00005,53.78746,53.83704)" stroke-width=".79701" stroke-linecap="butt" stroke-miterlimit="10" stroke-linejoin="miter" fill="none" stroke="#409f9f" d="M22.09283 30.53738 23.26135 26.15535"/>
<path transform="matrix(1.00002,0,0,-1.00005,53.78746,53.83704)" stroke-width=".79701" stroke-linecap="butt" stroke-miterlimit="10" stroke-linejoin="miter" fill="none" stroke="#409f9f" d="M21.95996 36.16687 23.39421 31.86441"/>
<path transform="matrix(1.00002,0,0,-1.00005,53.78746,53.83704)" stroke-width=".79701" stroke-linecap="butt" stroke-miterlimit="10" stroke-linejoin="miter" fill="none" stroke="#409f9f" d="M21.55234 41.65361 23.80183 37.7162"/>
<path transform="matrix(1.00002,0,0,-1.00005,53.78746,53.83704)" stroke-width=".79701" stroke-linecap="butt" stroke-miterlimit="10" stroke-linejoin="miter" fill="none" stroke="#409f9f" d="M27.22162-41.65378 29.47112-37.71603"/>
<path transform="matrix(1.00002,0,0,-1.00005,53.78746,53.83704)" stroke-width=".79701" stroke-linecap="butt" stroke-miterlimit="10" stroke-linejoin="miter" fill="none" stroke="#409f9f" d="M27.62924-36.16704 29.06349-31.86424"/>
<path transform="matrix(1.00002,0,0,-1.00005,53.78746,53.83704)" stroke-width=".79701" stroke-linecap="butt" stroke-miterlimit="10" stroke-linejoin="miter" fill="none" stroke="#409f9f" d="M27.7621-30.53755 28.93062-26.15517"/>
<path transform="matrix(1.00002,0,0,-1.00005,53.78746,53.83704)" stroke-width=".79701" stroke-linecap="butt" stroke-miterlimit="10" stroke-linejoin="miter" fill="none" stroke="#409f9f" d="M27.79637-24.87694 28.89635-20.47723"/>
<path transform="matrix(1.00002,0,0,-1.00005,53.78746,53.83704)" stroke-width=".79701" stroke-linecap="butt" stroke-miterlimit="10" stroke-linejoin="miter" fill="none" stroke="#409f9f" d="M27.7621-19.199 28.93062-14.81662"/>
<path transform="matrix(1.00002,0,0,-1.00005,53.78746,53.83704)" stroke-width=".79701" stroke-linecap="butt" stroke-miterlimit="10" stroke-linejoin="miter" fill="none" stroke="#409f9f" d="M27.62924-13.48994 29.06349-9.18713"/>
<path transform="matrix(1.00002,0,0,-1.00005,53.78746,53.83704)" stroke-width=".79701" stroke-linecap="butt" stroke-miterlimit="10" stroke-linejoin="miter" fill="none" stroke="#409f9f" d="M27.22162-7.63812 29.47112-3.70038"/>
<path transform="matrix(1.00002,0,0,-1.00005,53.78746,53.83704)" stroke-width=".79701" stroke-linecap="butt" stroke-miterlimit="10" stroke-linejoin="miter" fill="none" stroke="#409f9f" d="M26.0787 0H30.61403"/>
<path transform="matrix(1.00002,0,0,-1.00005,53.78746,53.83704)" stroke-width=".79701" stroke-linecap="butt" stroke-miterlimit="10" stroke-linejoin="miter" fill="none" stroke="#409f9f" d="M27.22162 7.63795 29.47112 3.70055"/>
<path transform="matrix(1.00002,0,0,-1.00005,53.78746,53.83704)" stroke-width=".79701" stroke-linecap="butt" stroke-miterlimit="10" stroke-linejoin="miter" fill="none" stroke="#409f9f" d="M27.62924 13.48978 29.06349 9.1873"/>
<path transform="matrix(1.00002,0,0,-1.00005,53.78746,53.83704)" stroke-width=".79701" stroke-linecap="butt" stroke-miterlimit="10" stroke-linejoin="miter" fill="none" stroke="#409f9f" d="M27.7621 19.19882 28.93062 14.8168"/>
<path transform="matrix(1.00002,0,0,-1.00005,53.78746,53.83704)" stroke-width=".79701" stroke-linecap="butt" stroke-miterlimit="10" stroke-linejoin="miter" fill="none" stroke="#409f9f" d="M27.79637 24.87694 28.89635 20.47723"/>
<path transform="matrix(1.00002,0,0,-1.00005,53.78746,53.83704)" stroke-width=".79701" stroke-linecap="butt" stroke-miterlimit="10" stroke-linejoin="miter" fill="none" stroke="#409f9f" d="M27.7621 30.53738 28.93062 26.15535"/>
<path transform="matrix(1.00002,0,0,-1.00005,53.78746,53.83704)" stroke-width=".79701" stroke-linecap="butt" stroke-miterlimit="10" stroke-linejoin="miter" fill="none" stroke="#409f9f" d="M27.62924 36.16687 29.06349 31.86441"/>
<path transform="matrix(1.00002,0,0,-1.00005,53.78746,53.83704)" stroke-width=".79701" stroke-linecap="butt" stroke-miterlimit="10" stroke-linejoin="miter" fill="none" stroke="#409f9f" d="M27.22162 41.65361 29.47112 37.7162"/>
<path transform="matrix(1.00002,0,0,-1.00005,53.78746,53.83704)" stroke-width=".79701" stroke-linecap="butt" stroke-miterlimit="10" stroke-linejoin="miter" fill="none" stroke="#409f9f" d="M32.89088-41.65378 35.14038-37.71603"/>
<path transform="matrix(1.00002,0,0,-1.00005,53.78746,53.83704)" stroke-width=".79701" stroke-linecap="butt" stroke-miterlimit="10" stroke-linejoin="miter" fill="none" stroke="#409f9f" d="M33.29851-36.16704 34.73276-31.86424"/>
<path transform="matrix(1.00002,0,0,-1.00005,53.78746,53.83704)" stroke-width=".79701" stroke-linecap="butt" stroke-miterlimit="10" stroke-linejoin="miter" fill="none" stroke="#409f9f" d="M33.43138-30.53755 34.5999-26.15517"/>
<path transform="matrix(1.00002,0,0,-1.00005,53.78746,53.83704)" stroke-width=".79701" stroke-linecap="butt" stroke-miterlimit="10" stroke-linejoin="miter" fill="none" stroke="#409f9f" d="M33.46564-24.87694 34.56563-20.47723"/>
<path transform="matrix(1.00002,0,0,-1.00005,53.78746,53.83704)" stroke-width=".79701" stroke-linecap="butt" stroke-miterlimit="10" stroke-linejoin="miter" fill="none" stroke="#409f9f" d="M33.43138-19.199 34.5999-14.81662"/>
<path transform="matrix(1.00002,0,0,-1.00005,53.78746,53.83704)" stroke-width=".79701" stroke-linecap="butt" stroke-miterlimit="10" stroke-linejoin="miter" fill="none" stroke="#409f9f" d="M33.29851-13.48994 34.73276-9.18713"/>
<path transform="matrix(1.00002,0,0,-1.00005,53.78746,53.83704)" stroke-width=".79701" stroke-linecap="butt" stroke-miterlimit="10" stroke-linejoin="miter" fill="none" stroke="#409f9f" d="M32.89088-7.63812 35.14038-3.70038"/>
<path transform="matrix(1.00002,0,0,-1.00005,53.78746,53.83704)" stroke-width=".79701" stroke-linecap="butt" stroke-miterlimit="10" stroke-linejoin="miter" fill="none" stroke="#409f9f" d="M31.74797 0H36.2833"/>
<path transform="matrix(1.00002,0,0,-1.00005,53.78746,53.83704)" stroke-width=".79701" stroke-linecap="butt" stroke-miterlimit="10" stroke-linejoin="miter" fill="none" stroke="#409f9f" d="M32.89088 7.63795 35.14038 3.70055"/>
<path transform="matrix(1.00002,0,0,-1.00005,53.78746,53.83704)" stroke-width=".79701" stroke-linecap="butt" stroke-miterlimit="10" stroke-linejoin="miter" fill="none" stroke="#409f9f" d="M33.29851 13.48978 34.73276 9.1873"/>
<path transform="matrix(1.00002,0,0,-1.00005,53.78746,53.83704)" stroke-width=".79701" stroke-linecap="butt" stroke-miterlimit="10" stroke-linejoin="miter" fill="none" stroke="#409f9f" d="M33.43138 19.19882 34.5999 14.8168"/>
<path transform="matrix(1.00002,0,0,-1.00005,53.78746,53.83704)" stroke-width=".79701" stroke-linecap="butt" stroke-miterlimit="10" stroke-linejoin="miter" fill="none" stroke="#409f9f" d="M33.46564 24.87694 34.56563 20.47723"/>
<path transform="matrix(1.00002,0,0,-1.00005,53.78746,53.83704)" stroke-width=".79701" stroke-linecap="butt" stroke-miterlimit="10" stroke-linejoin="miter" fill="none" stroke="#409f9f" d="M33.43138 30.53738 34.5999 26.15535"/>
<path transform="matrix(1.00002,0,0,-1.00005,53.78746,53.83704)" stroke-width=".79701" stroke-linecap="butt" stroke-miterlimit="10" stroke-linejoin="miter" fill="none" stroke="#409f9f" d="M33.29851 36.16687 34.73276 31.86441"/>
<path transform="matrix(1.00002,0,0,-1.00005,53.78746,53.83704)" stroke-width=".79701" stroke-linecap="butt" stroke-miterlimit="10" stroke-linejoin="miter" fill="none" stroke="#409f9f" d="M32.89088 41.65361 35.14038 37.7162"/>
<path transform="matrix(1.00002,0,0,-1.00005,53.78746,53.83704)" stroke-width=".79701" stroke-linecap="butt" stroke-miterlimit="10" stroke-linejoin="miter" fill="none" stroke="#409f9f" d="M38.56017-41.65378 40.80966-37.71603"/>
<path transform="matrix(1.00002,0,0,-1.00005,53.78746,53.83704)" stroke-width=".79701" stroke-linecap="butt" stroke-miterlimit="10" stroke-linejoin="miter" fill="none" stroke="#409f9f" d="M38.96779-36.16704 40.40204-31.86424"/>
<path transform="matrix(1.00002,0,0,-1.00005,53.78746,53.83704)" stroke-width=".79701" stroke-linecap="butt" stroke-miterlimit="10" stroke-linejoin="miter" fill="none" stroke="#409f9f" d="M39.10065-30.53755 40.26917-26.15517"/>
<path transform="matrix(1.00002,0,0,-1.00005,53.78746,53.83704)" stroke-width=".79701" stroke-linecap="butt" stroke-miterlimit="10" stroke-linejoin="miter" fill="none" stroke="#409f9f" d="M39.13492-24.87694 40.2349-20.47723"/>
<path transform="matrix(1.00002,0,0,-1.00005,53.78746,53.83704)" stroke-width=".79701" stroke-linecap="butt" stroke-miterlimit="10" stroke-linejoin="miter" fill="none" stroke="#409f9f" d="M39.10065-19.199 40.26917-14.81662"/>
<path transform="matrix(1.00002,0,0,-1.00005,53.78746,53.83704)" stroke-width=".79701" stroke-linecap="butt" stroke-miterlimit="10" stroke-linejoin="miter" fill="none" stroke="#409f9f" d="M38.96779-13.48994 40.40204-9.18713"/>
<path transform="matrix(1.00002,0,0,-1.00005,53.78746,53.83704)" stroke-width=".79701" stroke-linecap="butt" stroke-miterlimit="10" stroke-linejoin="miter" fill="none" stroke="#409f9f" d="M38.56017-7.63812 40.80966-3.70038"/>
<path transform="matrix(1.00002,0,0,-1.00005,53.78746,53.83704)" stroke-width=".79701" stroke-linecap="butt" stroke-miterlimit="10" stroke-linejoin="miter" fill="none" stroke="#409f9f" d="M37.41725 0H41.95258"/>
<path transform="matrix(1.00002,0,0,-1.00005,53.78746,53.83704)" stroke-width=".79701" stroke-linecap="butt" stroke-miterlimit="10" stroke-linejoin="miter" fill="none" stroke="#409f9f" d="M38.56017 7.63795 40.80966 3.70055"/>
<path transform="matrix(1.00002,0,0,-1.00005,53.78746,53.83704)" stroke-width=".79701" stroke-linecap="butt" stroke-miterlimit="10" stroke-linejoin="miter" fill="none" stroke="#409f9f" d="M38.96779 13.48978 40.40204 9.1873"/>
<path transform="matrix(1.00002,0,0,-1.00005,53.78746,53.83704)" stroke-width=".79701" stroke-linecap="butt" stroke-miterlimit="10" stroke-linejoin="miter" fill="none" stroke="#409f9f" d="M39.10065 19.19882 40.26917 14.8168"/>
<path transform="matrix(1.00002,0,0,-1.00005,53.78746,53.83704)" stroke-width=".79701" stroke-linecap="butt" stroke-miterlimit="10" stroke-linejoin="miter" fill="none" stroke="#409f9f" d="M39.13492 24.87694 40.2349 20.47723"/>
<path transform="matrix(1.00002,0,0,-1.00005,53.78746,53.83704)" stroke-width=".79701" stroke-linecap="butt" stroke-miterlimit="10" stroke-linejoin="miter" fill="none" stroke="#409f9f" d="M39.10065 30.53738 40.26917 26.15535"/>
<path transform="matrix(1.00002,0,0,-1.00005,53.78746,53.83704)" stroke-width=".79701" stroke-linecap="butt" stroke-miterlimit="10" stroke-linejoin="miter" fill="none" stroke="#409f9f" d="M38.96779 36.16687 40.40204 31.86441"/>
<path transform="matrix(1.00002,0,0,-1.00005,53.78746,53.83704)" stroke-width=".79701" stroke-linecap="butt" stroke-miterlimit="10" stroke-linejoin="miter" fill="none" stroke="#409f9f" d="M38.56017 41.65361 40.80966 37.7162"/>
</svg>
