<svg xmlns="http://www.w3.org/2000/svg" xmlns:xlink="http://www.w3.org/1999/xlink" version="1.1" width="123" height="119" viewBox="0 0 123 119">
<defs>
<path id="font_1_2" d="M.42799378 .45222474 .43899537 .49023438H.31199647L.34599305 .6092224 .33399964 .6162262 .23699951 .53923037 .22399903 .49023438H.14299011L.13198853 .45222474H.21499634L.125 .08627319C.10998535 .029266358 .12199402-.01171875 .17199707-.01171875 .2519989-.01171875 .31599427 .054275514 .35598756 .1292572L.33399964 .1462555C.31098939 .10726929 .2599945 .040267946 .22898865 .040267946 .20799256 .040267946 .20799256 .0632782 .21398926 .088272098L.30299378 .45222474H.42799378Z"/>
<path id="font_1_3" d="M.070999149 .45393373 .07398987 .42893983 .14199829 .43093873C.1639862 .43193055 .16899109 .41493226 .1769867 .36291505 .18798828 .28489686 .20999146 .09286499 .20999146 .0128479 .20999146-.017166138 .20799256-.058166505 .18598938-.11117554 .16799927-.15318299 .14199829-.18218994 .12199402-.18218994 .10699463-.18218994 .09599304-.17118836 .08099365-.15118408 .068984989-.13517761 .06098938-.127182 .04598999-.127182 .019989014-.12818909-.005004883-.15818787-.005004883-.18719483-.005004883-.21418762 .023986817-.2421875 .067993167-.2421875 .15299988-.2421875 .18998719-.17919922 .27799989-.027160645 .2979889 .0068511965 .35798646 .11286926 .41999818 .21488953 .47698976 .30891419 .5399933 .40592958 .5399933 .4459381 .5399933 .48094178 .5289917 .5019531 .5219879 .5019531 .5029907 .5019531 .46899415 .49394227 .44400025 .47694398 .44499208 .4419403 .44299317 .3809204 .43099977 .33891297 .4149933 .28289796 .35598756 .17488098 .2899933 .06085205H.2869873C.27999879 .21388245 .26098634 .42492677 .24699402 .49795533L.23899842 .5019531 .070999149 .45393373Z"/>
<path id="font_2_1" d="M.1749878 .2822113C.1749878 .56832888 .2619934 .65437319 .32499696 .66737368V.6923828C.1499939 .685379 .10499573 .46829225 .10499573 .2822113 .10499573 .09614563 .1499939-.12094116 .32499696-.12792969V-.10293579C.2669983-.090927127 .1749878-.0059051516 .1749878 .2822113Z"/>
<path id="font_2_2" d="M.1749878 .2822113C.1749878-.0059051516 .08299255-.090927127 .024993897-.10293579V-.12792969C.19999695-.12094116 .24499512 .09614563 .24499512 .2822113 .24499512 .46829225 .19999695 .685379 .024993897 .6923828V.66737368C.08799744 .65437319 .1749878 .56832888 .1749878 .2822113Z"/>
<path id="font_2_3" d="M.069992069-.140625C.11999512-.09362793 .19299317-.027633667 .19299317 .051361085 .19299317 .10636902 .1599884 .1423645 .125 .14137268 .09399414 .14137268 .07598877 .117370609 .07598877 .09136963 .07598877 .055374147 .10899353 .037368776 .10899353-.005630493 .10899353-.04663086 .08299255-.086639408 .050994874-.12162781L.069992069-.140625Z"/>
<path id="font_3_4" d="M.084991458 .31092835V.2529297H.33099366V.0068359377H.3889923V.2529297H.6349945V.31092835H.3889923V.5566406H.33099366V.31092835H.084991458Z"/>
<path id="font_1_1" d="M.35198976 .7371979 .34700013 .7421875 .16699219 .71824648 .16099549 .6953125 .21798706 .68829348C.24299622 .6852875 .24699402 .67826846 .23799134 .63920596L.09199524-.01171875 .1789856 .0002746582C.20599365 .10221863 .22099304 .15718079 .24598694 .22012329 .27598573 .2980652 .375 .44995118 .46199037 .44995118 .49398805 .44995118 .5059967 .42097474 .49398805 .38000489L.4119873 .096221927C.3929901 .030273438 .40699769-.01171875 .46398927-.01171875 .5329895-.01171875 .58898928 .056259157 .6230011 .13220215L.598999 .14619446C.58099368 .11122131 .5369873 .040267946 .5089874 .040267946 .4889984 .040267946 .4889984 .06324768 .49899293 .0952301L.5779877 .35702516C.60198977 .43595887 .58898928 .5019531 .5079956 .5019531 .41299439 .5019531 .30699159 .39898683 .24299622 .27908326H.23999024L.35198976 .7371979Z"/>
<path id="font_2_4" d="M.05999756 .045333864C.10398865 .004348755 .18699646-.0146484379 .25698854-.0146484379 .43399049-.0146484379 .5039978 .08631897 .5039978 .18826294 .5039978 .30619813 .42399598 .36218263 .30699159 .40515138L.2749939 .41714479C.20799256 .44213868 .1519928 .48512269 .1519928 .5450897 .1519928 .61805728 .19599915 .6720276 .27999879 .6720276 .3659973 .6720276 .4139862 .6230469 .42999269 .5220947H.46099855V.6630249C.4269867 .6900177 .35899354 .70703127 .29100038 .70703127 .16899109 .70703127 .06098938 .64604189 .06098938 .5140991 .06098938 .40914918 .14498902 .354187 .25 .3171997L.2679901 .31019593C.31199647 .2932129 .40699769 .24723816 .40699769 .15827942 .40699769 .0723114 .35198976 .020339966 .2630005 .020339966 .16899109 .020339966 .10699463 .093307498 .08198547 .20524597H.049987794L.05999756 .045333864Z"/>
<path id="font_2_7" d="M.44099427 .2627716C.46199037 .2627716 .48098756 .2677765 .48098756 .30078126 .48098756 .35983277 .46199037 .5019531 .2789917 .5019531 .12298584 .5019531 .04899597 .39086915 .04899597 .24082947 .04899597 .08317566 .116989139-.01373291 .27999879-.01171875 .3909912-.010726929 .44799806 .050247194 .47499085 .1290741L.44499208 .14503479C.4169922 .08717346 .3789978 .039276124 .2999878 .039276124 .17599488 .039276124 .15098572 .15901184 .15299988 .2627716H.44099427M.1539917 .30078126C.1539917 .34181214 .16899109 .46694947 .272995 .46694947 .3659973 .46694947 .3769989 .37184144 .3769989 .33280946 .3769989 .31378175 .37098695 .30078126 .34298707 .30078126H.1539917Z"/>
<path id="font_2_6" d="M.2999878 .040267946C.18099976 .040267946 .15299988 .16418457 .15299988 .25810243 .15299988 .40699769 .21199036 .46694947 .2809906 .46694947 .32699586 .46694947 .35598756 .43397523 .37599183 .38000489 .38198854 .36402894 .3880005 .35403443 .40699769 .35403443 .4269867 .35403443 .46598817 .36701966 .46598817 .40499879 .46598817 .45095826 .3999939 .5019531 .2919922 .5019531 .10998535 .5019531 .04899597 .37301637 .04899597 .2401123 .04899597 .07324219 .1309967-.01171875 .2809906-.01171875 .35099793-.01171875 .44499208 .025268555 .47299195 .13220215L.44400025 .14619446C.41299439 .07624817 .37298585 .040267946 .2999878 .040267946Z"/>
<path id="font_2_5" d="M.34298707 .14318848C.34298707 .06225586 .2809906 .041275026 .24198914 .041275026 .17999268 .041275026 .1499939 .085235599 .1499939 .14419556 .1499939 .19116211 .17199707 .21513367 .22799683 .23612976 .2679901 .2511139 .32099916 .27009584 .34298707 .28408814V.14318848M.43299867 .36901856C.43299867 .42697145 .41999818 .5019531 .2689972 .5019531 .1559906 .5019531 .066986087 .44296266 .066986087 .3880005 .066986087 .35603334 .10398865 .3410492 .12298584 .3410492 .14399719 .3410492 .1499939 .35203553 .15499878 .36901856 .1769867 .44296266 .21798706 .46694947 .2579956 .46694947 .29699708 .46694947 .34298707 .44696046 .34298707 .36701966V.32505799C.31799317 .29907228 .22099304 .27409364 .14199829 .24911499 .069992069 .22712708 .04899597 .1771698 .04899597 .13020325 .04899597 .055267335 .09899902-.01171875 .19299317-.01171875 .25498963-.009719849 .30999757 .027267456 .34199525 .04826355 .35598756 .011276245 .37199403-.01171875 .40699769-.01171875 .44400025-.01171875 .4869995-.0007324219 .5249939 .01828003L.5189972 .042266847C.5049896 .039276124 .48298646 .03727722 .46798707 .041275026 .44999696 .045272829 .43299867 .06425476 .43299867 .12721253V.36901856Z"/>
<path id="font_2_8" d="M.5289917 .34295655C.5289917 .4439392 .47399903 .5019531 .38198854 .5019531 .30799867 .5019531 .2619934 .46594239 .19999695 .4259491L.18598938 .5019531 .036987306 .47694398V.45195008L.07499695 .4469452C.100997928 .4429474 .10699463 .4379425 .10699463 .40194703V.08699036C.10699463 .035995485 .10398865 .033996583 .03199768 .0289917V0H.27598573V.0289917C.20498657 .033996583 .20098877 .035995485 .20098877 .08699036V.32095338C.20098877 .34596253 .20298767 .35995484 .21099854 .37594605 .23199463 .4149475 .2769928 .44795228 .32998658 .44795228 .397995 .44795228 .43499757 .40994264 .43499757 .32295228V.08699036C.43499757 .035995485 .43199159 .033996583 .3600006 .0289917V0H.60398867V.0289917C.5329895 .033996583 .5289917 .035995485 .5289917 .08699036V.34295655Z"/>
<path id="font_2_9" d="M.32598878 .45022584V.49023438H.19699097V.6162262H.16799927L.10699463 .49023438H.0309906V.45022584H.102996829V.102264408C.102996829 .0002746582 .1789856-.01171875 .21398926-.01171875 .2649994-.01171875 .31298829 .014266968 .34199525 .03227234L.33399964 .053268434C.30999757 .043273927 .28799439 .040267946 .2630005 .040267946 .22898865 .040267946 .19699097 .06427002 .19699097 .14025879V.45022584H.32598878Z"/>
<path id="font_4_1" d="M.673996 0 .3899994 .6933594H.31599427L.04399109 0H.673996M.5469971 .053985597H.10499573L.31999208 .6013031 .5469971 .053985597Z"/>
<path id="font_3_1" d="M.2769928 .50541689C.2829895 .5204315 .28399659 .5294342 .28399659 .53344729 .28399659 .5544586 .2539978 .56347659 .22299195 .56347659 .19299317 .56347659 .1619873 .5544586 .15899658 .53944399L.053985597 .05303955C.053985597 .046035768 .067993167 .040039064 .07998657 .040039064 .08799744 .040039064 .09599304 .043029787 .09799194 .048034669L.2769928 .50541689Z"/>
<path id="font_3_3" d="M.5269928 .30897523C.6069946 .30897523 .6230011 .3840332 .6329956 .43621827L.6380005 .45822145 .61299136 .47122193C.59498599 .42321778 .56599429 .37597657 .5299988 .37597657 .45799256 .37597657 .28599549 .47721864 .18899536 .47721864 .13798523 .47721864 .09199524 .37799073 .085998538 .32696534L.11099243 .31497193C.13198853 .36297608 .16099549 .40722657 .19599915 .40722657 .2630005 .40722657 .42900086 .30897523 .5269928 .30897523M.5269928 .087890628C.6069946 .087890628 .6230011 .16287232 .6329956 .21485901L.6380005 .23684693 .61299136 .24984741C.59498599 .20185852 .56599429 .15487671 .5299988 .15487671 .45799256 .15487671 .28599549 .25585938 .18899536 .25585938 .13798523 .25585938 .09199524 .15687561 .085998538 .10588074L.11099243 .09388733C.13198853 .14187622 .16099549 .18585205 .19599915 .18585205 .2630005 .18585205 .42900086 .087890628 .5269928 .087890628Z"/>
<path id="font_3_2" d="M.6349945 .2529297V.31092835H.084991458V.2529297H.6349945Z"/>
</defs>
<path transform="matrix(1.00002,0,0,-1.00002,24.9459,99.666759)" stroke-width=".3985" stroke-linecap="butt" stroke-miterlimit="10" stroke-linejoin="miter" fill="none" stroke="#000000" d="M-5.66927 0H39.22707"/>
<path transform="matrix(1.00002,0,0,-1.00002,64.17375,99.666759)" stroke-width=".31879" stroke-linecap="round" stroke-linejoin="round" fill="none" stroke="#000000" d="M-1.19551 1.59401C-1.09587 .99626 0 .09961 .29886 0 0-.09961-1.09587-.99626-1.19551-1.59401"/>
<use data-text="t" xlink:href="#font_1_2" transform="matrix(10.036601,0,0,-10.036601,68.24877,102.71582)"/>
<path transform="matrix(1.00002,0,0,-1.00002,24.9459,99.666759)" stroke-width=".3985" stroke-linecap="butt" stroke-miterlimit="10" stroke-linejoin="miter" fill="none" stroke="#000000" d="M0-5.66927V64.73946"/>
<path transform="matrix(0,-1.00002,-1.00002,-0,24.9459,34.925996)" stroke-width=".31879" stroke-linecap="round" stroke-linejoin="round" fill="none" stroke="#000000" d="M-1.19551 1.59401C-1.09587 .99626 0 .09961 .29886 0 0-.09961-1.09587-.99626-1.19551-1.59401"/>
<use data-text="y" xlink:href="#font_1_3" transform="matrix(10.036601,0,0,-10.036601,22.409852,28.603333)"/>
<path transform="matrix(1.00002,0,0,-1.00002,24.9459,99.666759)" stroke-width=".79701" stroke-linecap="butt" stroke-miterlimit="10" stroke-linejoin="miter" fill="none" stroke="#0000ff" d="M0 28.3468C0 28.3468 1.02379 29.38583 1.41698 29.79926 1.81018 30.21269 2.44078 30.89188 2.83397 31.32654 3.22717 31.76122 3.85777 32.47507 4.25096 32.93213 4.64417 33.38919 5.27477 34.1403 5.66795 34.62076 6.06116 35.10123 6.69176 35.89009 7.08495 36.39503 7.47815 36.89998 8.10876 37.72926 8.50195 38.26013 8.89516 38.791 9.52576 39.66309 9.91895 40.22127 10.31215 40.77945 10.94273 41.69643 11.33594 42.28317 11.72914 42.86992 12.35973 43.83336 12.75293 44.45018 13.14613 45.067 13.77672 46.08035 14.16992 46.72879 14.56313 47.37723 15.19373 48.44212 15.58693 49.12376 15.98013 49.80539 16.61072 50.92487 17.00392 51.64156 17.39713 52.35823 18.02771 53.53578 18.42091 54.28912 18.81412 55.04248 19.4447 56.27922 19.8379 57.07121 20.23111 57.8632 20.8617 59.16458 21.2549 59.99733 21.6481 60.83008 22.2787 62.19792 22.6719 63.0731 23.06511 63.94829 23.6957 65.38503 24.0889 66.30504 24.4821 67.22504 25.11269 68.73662 25.50589 69.70392 25.8991 70.67122 26.52968 72.25993 26.92288 73.27667 27.31607 74.29341 27.94667 75.96295 28.33987 77.03197 28.73306 78.101 29.36366 79.8576 29.75687 80.98148 30.15005 82.10535 30.78067 83.95074 31.17387 85.13211 31.56706 86.31346 32.19766 88.25412 32.59087 89.49599 32.98405 90.73785 34.00786 94.08263 34.00786 94.08263"/>
<use data-text="y" xlink:href="#font_1_3" transform="matrix(10.036601,0,0,-10.036601,63.098665,7.900917)" fill="#0000ff"/>
<use data-text="(" xlink:href="#font_2_1" transform="matrix(10.036601,0,0,-10.036601,68.71677,7.900917)" fill="#0000ff"/>
<use data-text="t" xlink:href="#font_1_2" transform="matrix(10.036601,0,0,-10.036601,72.447849,7.900917)" fill="#0000ff"/>
<use data-text=")" xlink:href="#font_2_2" transform="matrix(10.036601,0,0,-10.036601,76.94194,7.900917)" fill="#0000ff"/>
<path transform="matrix(1.00002,0,0,-1.00002,24.9459,99.666759)" d="M14.67152 46.73528C14.67152 47.01039 14.4485 47.23341 14.17339 47.23341 13.89828 47.23341 13.67525 47.01039 13.67525 46.73528 13.67525 46.46017 13.89828 46.23714 14.17339 46.23714 14.4485 46.23714 14.67152 46.46017 14.67152 46.73528ZM14.17339 46.73528"/>
<path transform="matrix(1.00002,0,0,-1.00002,24.9459,99.666759)" stroke-width=".3985" stroke-linecap="butt" stroke-miterlimit="10" stroke-linejoin="miter" fill="none" stroke="#000000" d="M14.67152 46.73528C14.67152 47.01039 14.4485 47.23341 14.17339 47.23341 13.89828 47.23341 13.67525 47.01039 13.67525 46.73528 13.67525 46.46017 13.89828 46.23714 14.17339 46.23714 14.4485 46.23714 14.67152 46.46017 14.67152 46.73528ZM14.17339 46.73528"/>
<use data-text="(" xlink:href="#font_2_1" transform="matrix(10.036601,0,0,-10.036601,.09339905,63.43203)"/>
<use data-text="t" xlink:href="#font_1_2" transform="matrix(10.036601,0,0,-10.036601,3.8244782,63.43203)"/>
<use data-text="," xlink:href="#font_2_3" transform="matrix(10.036601,0,0,-10.036601,8.319572,63.43203)"/>
<use data-text="y" xlink:href="#font_1_3" transform="matrix(10.036601,0,0,-10.036601,14.8517,63.43203)"/>
<use data-text="(" xlink:href="#font_2_1" transform="matrix(10.036601,0,0,-10.036601,20.46981,63.43203)"/>
<use data-text="t" xlink:href="#font_1_2" transform="matrix(10.036601,0,0,-10.036601,24.20089,63.43203)"/>
<use data-text=")" xlink:href="#font_2_2" transform="matrix(10.036601,0,0,-10.036601,28.694977,63.43203)"/>
<use data-text=")" xlink:href="#font_2_2" transform="matrix(10.036601,0,0,-10.036601,32.207796,63.43203)"/>
<path transform="matrix(1.00002,0,0,-1.00002,24.9459,99.666759)" d="M26.01007 69.71863C26.01007 69.99373 25.78705 70.21677 25.51193 70.21677 25.23683 70.21677 25.0138 69.99373 25.0138 69.71863 25.0138 69.44351 25.23683 69.22049 25.51193 69.22049 25.78705 69.22049 26.01007 69.44351 26.01007 69.71863ZM25.51193 69.71863"/>
<path transform="matrix(1.00002,0,0,-1.00002,24.9459,99.666759)" stroke-width=".3985" stroke-linecap="butt" stroke-miterlimit="10" stroke-linejoin="miter" fill="none" stroke="#000000" d="M26.01007 69.71863C26.01007 69.99373 25.78705 70.21677 25.51193 70.21677 25.23683 70.21677 25.0138 69.99373 25.0138 69.71863 25.0138 69.44351 25.23683 69.22049 25.51193 69.22049 25.78705 69.22049 26.01007 69.44351 26.01007 69.71863ZM25.51193 69.71863"/>
<use data-text="(" xlink:href="#font_2_1" transform="matrix(10.036601,0,0,-10.036601,53.85748,24.082245)"/>
<use data-text="t" xlink:href="#font_1_2" transform="matrix(10.036601,0,0,-10.036601,57.58856,24.082245)"/>
<use data-text="+" xlink:href="#font_3_4" transform="matrix(10.036601,0,0,-10.036601,63.416677,24.082245)"/>
<use data-text="h" xlink:href="#font_1_1" transform="matrix(10.036601,0,0,-10.036601,71.97185,24.082245)"/>
<use data-text="," xlink:href="#font_2_3" transform="matrix(10.036601,0,0,-10.036601,78.60498,24.082245)"/>
<use data-text="y" xlink:href="#font_1_3" transform="matrix(10.036601,0,0,-10.036601,85.137119,24.082245)"/>
<use data-text="(" xlink:href="#font_2_1" transform="matrix(10.036601,0,0,-10.036601,90.75523,24.082245)"/>
<use data-text="t" xlink:href="#font_1_2" transform="matrix(10.036601,0,0,-10.036601,94.48631,24.082245)"/>
<use data-text="+" xlink:href="#font_3_4" transform="matrix(10.036601,0,0,-10.036601,100.31444,24.082245)"/>
<use data-text="h" xlink:href="#font_1_1" transform="matrix(10.036601,0,0,-10.036601,108.86961,24.082245)"/>
<use data-text=")" xlink:href="#font_2_2" transform="matrix(10.036601,0,0,-10.036601,115.50275,24.082245)"/>
<use data-text=")" xlink:href="#font_2_2" transform="matrix(10.036601,0,0,-10.036601,119.01555,24.082245)"/>
<path transform="matrix(1.00002,0,0,-1.00002,24.9459,99.666759)" stroke-width=".79701" stroke-linecap="butt" stroke-dasharray="2.98883,2.98883" stroke-miterlimit="10" stroke-linejoin="miter" fill="none" stroke="#cc0000" d="M14.17339 46.73528 25.51193 69.71863"/>
<use data-text="S" xlink:href="#font_2_4" transform="matrix(9.165783,0,0,-9.165783,48.387369,51.52279)" fill="#cc0000"/>
<use data-text="e" xlink:href="#font_2_7" transform="matrix(9.165783,0,0,-9.165783,53.24523,51.52279)" fill="#cc0000"/>
<use data-text="c" xlink:href="#font_2_6" transform="matrix(9.165783,0,0,-9.165783,57.956445,51.52279)" fill="#cc0000"/>
<use data-text="a" xlink:href="#font_2_5" transform="matrix(9.165783,0,0,-9.165783,62.50267,51.52279)" fill="#cc0000"/>
<use data-text="n" xlink:href="#font_2_8" transform="matrix(9.165783,0,0,-9.165783,67.28722,51.52279)" fill="#cc0000"/>
<use data-text="t" xlink:href="#font_2_9" transform="matrix(9.165783,0,0,-9.165783,72.96084,51.52279)" fill="#cc0000"/>
<path transform="matrix(1.00002,0,0,-1.00002,24.9459,99.666759)" stroke-width=".3985" stroke-linecap="butt" stroke-dasharray="2.98883,2.98883" stroke-miterlimit="10" stroke-linejoin="miter" fill="none" stroke="#929292" d="M8.50412 37.38858 19.84267 56.08199"/>
<path transform="matrix(1.00002,0,0,-1.00002,24.9459,99.666759)" stroke-width=".79701" stroke-linecap="butt" stroke-miterlimit="10" stroke-linejoin="miter" fill="none" stroke="#000000" d="M14.17339 0C14.59856-1.19554 15.5907-1.99255 17.00803-1.99255 18.42535-1.99255 19.4175-2.78955 19.84267-3.9851 20.26784-2.78955 21.25998-1.99255 22.6773-1.99255 24.09462-1.99255 25.08676-1.19554 25.51193 0"/>
<use data-text="h" xlink:href="#font_1_1" transform="matrix(10.036601,0,0,-10.036601,41.47223,116.743099)"/>
<path transform="matrix(1.00002,0,0,-1.00002,24.9459,99.666759)" stroke-width=".79701" stroke-linecap="butt" stroke-miterlimit="10" stroke-linejoin="miter" fill="none" stroke="#000000" d="M25.51193 46.73528C24.31639 47.33302 23.51938 48.72783 23.51938 50.72038V54.24184C23.51938 56.23439 22.72238 57.6292 21.52682 58.22694 22.72238 58.82469 23.51938 60.2195 23.51938 62.21205V65.73352C23.51938 67.72607 24.31639 69.12088 25.51193 69.71863"/>
<use data-text="&#x2206;" xlink:href="#font_4_1" transform="matrix(10.036601,0,0,-10.036601,60.034605,43.715635)"/>
<use data-text="y" xlink:href="#font_1_3" transform="matrix(10.036601,0,0,-10.036601,67.736759,43.715635)"/>
<use data-text="y" xlink:href="#font_1_3" transform="matrix(9.165783,0,0,-9.165783,8.317574,68.99014)"/>
<use data-text="&#x2032;" xlink:href="#font_3_1" transform="matrix(6.9660398,0,0,-6.9660398,13.448669,64.87506)"/>
<use data-text="(" xlink:href="#font_2_1" transform="matrix(9.165783,0,0,-9.165783,15.998726,68.99014)"/>
<use data-text="t" xlink:href="#font_1_2" transform="matrix(9.165783,0,0,-9.165783,19.405793,68.99014)"/>
<use data-text=")" xlink:href="#font_2_2" transform="matrix(9.165783,0,0,-9.165783,23.510872,68.99014)"/>
<use data-text="&#x2248;" xlink:href="#font_3_3" transform="matrix(9.165783,0,0,-9.165783,28.422974,68.99014)"/>
<use data-text="y" xlink:href="#font_1_3" transform="matrix(9.165783,0,0,-9.165783,38.417184,62.245004)"/>
<use data-text="(" xlink:href="#font_2_1" transform="matrix(9.165783,0,0,-9.165783,43.548288,62.245004)"/>
<use data-text="t" xlink:href="#font_1_2" transform="matrix(9.165783,0,0,-9.165783,46.955347,62.245004)"/>
<use data-text="+" xlink:href="#font_3_4" transform="matrix(9.165783,0,0,-9.165783,52.27746,62.245004)"/>
<use data-text="h" xlink:href="#font_1_1" transform="matrix(9.165783,0,0,-9.165783,60.090616,62.245004)"/>
<use data-text=")" xlink:href="#font_2_2" transform="matrix(9.165783,0,0,-9.165783,66.14774,62.245004)"/>
<use data-text="&#x2212;" xlink:href="#font_3_2" transform="matrix(9.165783,0,0,-9.165783,70.57383,62.245004)"/>
<use data-text="y" xlink:href="#font_1_3" transform="matrix(9.165783,0,0,-9.165783,78.885,62.245004)"/>
<use data-text="(" xlink:href="#font_2_1" transform="matrix(9.165783,0,0,-9.165783,84.016109,62.245004)"/>
<use data-text="t" xlink:href="#font_1_2" transform="matrix(9.165783,0,0,-9.165783,87.423168,62.245004)"/>
<use data-text=")" xlink:href="#font_2_2" transform="matrix(9.165783,0,0,-9.165783,91.52824,62.245004)"/>
<path transform="matrix(1.00002,0,0,-1.00002,-87.12734,-18.678614)" stroke-width=".5316" stroke-linecap="butt" stroke-miterlimit="10" stroke-linejoin="miter" fill="none" stroke="#000000" d="M125.044-85.086H181.859"/>
<use data-text="h" xlink:href="#font_1_1" transform="matrix(9.165783,0,0,-9.165783,63.298669,75.82428)"/>
</svg>
