<svg xmlns="http://www.w3.org/2000/svg" xmlns:xlink="http://www.w3.org/1999/xlink" version="1.1" width="169" height="153" viewBox="0 0 169 153">
<defs>
<path id="font_1_2" d="M.42799378 .45222474 .43899537 .49023438H.31199647L.34599305 .6092224 .33399964 .6162262 .23699951 .53923037 .22399903 .49023438H.14299011L.13198853 .45222474H.21499634L.125 .08627319C.10998535 .029266358 .12199402-.01171875 .17199707-.01171875 .2519989-.01171875 .31599427 .054275514 .35598756 .1292572L.33399964 .1462555C.31098939 .10726929 .2599945 .040267946 .22898865 .040267946 .20799256 .040267946 .20799256 .0632782 .21398926 .088272098L.30299378 .45222474H.42799378Z"/>
<path id="font_1_1" d="M.43199159 .49023438H.3019867L.32998658 .6031952C.34899903 .67918398 .36799623 .70718386 .3959961 .70718386 .4229889 .70718386 .44099427 .68518069 .46299745 .6371918 .46798707 .62719729 .47499085 .6201935 .48999024 .6201935 .5099945 .6201935 .5389862 .6391907 .5389862 .6641846 .5389862 .70718386 .4850006 .7421875 .4249878 .7421875 .3600006 .7421875 .31799317 .71517947 .2849884 .67318728 .2539978 .63420107 .23399353 .5802002 .21998596 .5272217L.20999146 .49023438H.12298584L.11199951 .45222474H.20098877L.084991458-.137146C.07299805-.19918823 .06298828-.2052002 .052993776-.2052002 .041992189-.2052002 .026992798-.19718933 0-.15615845-.007003784-.14616394-.014007568-.13415528-.027008057-.13415528-.04901123-.13415528-.072006229-.15916443-.072006229-.18418885-.071014408-.2171936-.028015137-.2421875 .018997193-.2421875 .11898804-.2421875 .16099549-.16116333 .20298767 .030960083L.29599 .45222474H.42199708L.43199159 .49023438Z"/>
<path id="font_2_1" d="M.1749878 .2822113C.1749878 .56832888 .2619934 .65437319 .32499696 .66737368V.6923828C.1499939 .685379 .10499573 .46829225 .10499573 .2822113 .10499573 .09614563 .1499939-.12094116 .32499696-.12792969V-.10293579C.2669983-.090927127 .1749878-.0059051516 .1749878 .2822113Z"/>
<path id="font_2_2" d="M.1749878 .2822113C.1749878-.0059051516 .08299255-.090927127 .024993897-.10293579V-.12792969C.19999695-.12094116 .24499512 .09614563 .24499512 .2822113 .24499512 .46829225 .19999695 .685379 .024993897 .6923828V.66737368C.08799744 .65437319 .1749878 .56832888 .1749878 .2822113Z"/>
<path id="font_2_3" d="M.07398987 .2861328V.21612549H.31900025V.2861328H.07398987Z"/>
<path id="font_2_5" d="M.43699647 0V.0289917L.35299684 .035995485C.33198548 .037994386 .31999208 .04598999 .31999208 .08496094V.67367556L.31498719 .6796875 .10899353 .6446991V.6197052L.20199585 .6087036C.21899414 .6067047 .22599793 .5987091 .22599793 .56973269V.08496094C.22599793 .065979007 .22299195 .053985597 .21699524 .04698181 .21199036 .039993287 .20399475 .036987306 .19299317 .035995485L.10899353 .0289917V0H.43699647Z"/>
<path id="font_2_4" d="M.2649994 .64468386C.3600006 .64468386 .3869934 .49682618 .3869934 .33398438 .3869934 .17112732 .3600006 .023269654 .2649994 .023269654 .16999817 .023269654 .14299011 .17112732 .14299011 .33398438 .14299011 .49682618 .16999817 .64468386 .2649994 .64468386M.2649994 .6796875C.099990848 .6796875 .040985109 .53378298 .040985109 .33398438 .040985109 .13417053 .099990848-.01171875 .2649994-.01171875 .42999269-.01171875 .4889984 .13417053 .4889984 .33398438 .4889984 .53378298 .42999269 .6796875 .2649994 .6796875Z"/>
<path id="font_2_6" d="M.4850006 .13195801 .45700074 .13696289C.43598939 .08299255 .41600038 .07598877 .37599183 .07598877H.11999512C.13598633 .1279602 .19499207 .19892884 .28799439 .2658844 .38398744 .33584596 .45799256 .38082887 .45799256 .49276734 .45799256 .63168337 .3659973 .6796875 .26098634 .6796875 .12399292 .6796875 .052993776 .5967102 .052993776 .54473879 .052993776 .51075747 .09098816 .49476625 .10798645 .49476625 .12599182 .49476625 .1329956 .50476077 .13699341 .5217438 .15299988 .5897064 .19198609 .64468386 .2539978 .64468386 .33099366 .64468386 .35299684 .5797119 .35299684 .50675967 .35299684 .3998108 .29899598 .33984376 .21199036 .26289369 .08898926 .15594483 .04598999 .08798218 .026992798 .009994507L.036987306 0H.45098878L.4850006 .13195801Z"/>
<path id="font_2_7" d="M.12998963 .3657837C.12998963 .3487854 .1349945 .33779908 .147995 .33779908 .1599884 .33779908 .18699646 .34777833 .23498535 .34777833 .31999208 .34777833 .36799623 .27090455 .36799623 .18403626 .36799623 .065216068 .30899049 .023269654 .23799134 .023269654 .17199707 .023269654 .1289978 .07319641 .10998535 .12911988 .10398865 .14808655 .09399414 .15707398 .07998657 .15707398 .06199646 .15707398 .026992798 .13809204 .026992798 .10215759 .026992798 .05921936 .09599304-.01171875 .23699951-.01171875 .38198854-.01171875 .47299195 .06121826 .47299195 .18902588 .47299195 .32281495 .35798646 .3627777 .30299378 .3677826V.3717804C.35699464 .38078309 .44400025 .4207611 .44400025 .5197296 .44400025 .6306915 .35699464 .6796875 .25 .6796875 .117996219 .6796875 .052993776 .60369876 .052993776 .5607147 .052993776 .5297241 .08799744 .51272585 .101989749 .51272585 .114990238 .51272585 .12298584 .5197296 .1269989 .5327301 .14898682 .60069277 .18699646 .64468386 .24299622 .64468386 .32199098 .64468386 .34098817 .57470706 .34098817 .51872256 .34098817 .4587555 .31999208 .38378907 .23498535 .38378907 .18699646 .38378907 .1599884 .39378358 .147995 .39378358 .1349945 .39378358 .12998963 .38378907 .12998963 .3657837Z"/>
<path id="font_2_8" d="M.2999878 .17871094V.0769043C.2999878 .04296875 .2889862 .036987306 .2649994 .034988405L.20098877 .0289917V0H.46499635V.0289917L.41999818 .033981325C.39698792 .036987306 .3899994 .04296875 .3899994 .0769043V.17871094H.49299623V.22570801H.3899994V.66796877H.31698609C.22299195 .5298767 .11099243 .35577394 .018997193 .19970703L.027999878 .17871094H.2999878M.09098816 .22570801C.15098572 .33476258 .22099304 .4498291 .2979889 .5709076H.2999878V.22570801H.09098816Z"/>
<path id="font_2_9" d="M.42599488 .5919647 .44999696 .6599579 .44499208 .66796877H.11099243L.100997928 .65896609 .08099365 .32388307 .10499573 .31188966C.14698792 .35983277 .18798828 .3828125 .24198914 .3828125 .30599977 .3828125 .37599183 .3358612 .37599183 .20404053 .37599183 .10116577 .33399964 .023269654 .24699402 .023269654 .1769867 .023269654 .14099121 .07420349 .12098694 .13113404 .115997318 .14611817 .10699463 .15510559 .09298706 .15510559 .07299805 .15510559 .039993287 .13513184 .039993287 .10217285 .039993287 .056228639 .10998535-.01171875 .23999024-.01171875 .40499879-.01171875 .47999574 .0881958 .47999574 .21502686 .47999574 .35484315 .3919983 .4268036 .272995 .4268036 .21798706 .4268036 .15899658 .4028015 .1269989 .3738098L.125 .37580873 .147995 .56292727C.15098572 .58795168 .1579895 .5919647 .1769867 .5919647H.42599488Z"/>
</defs>
<path transform="matrix(1.00008,0,0,-1.00005,35.11109,94.53807)" d="M-22.67752-45.35506V68.0326H45.35506V-45.35506ZM45.35506 68.0326" fill="#f2f2ff"/>
<path transform="matrix(1.00008,0,0,-1.00005,35.11109,94.53807)" d="M45.35506-45.35506V68.0326H90.71013V-45.35506ZM90.71013 68.0326" fill="#f2fff2"/>
<path transform="matrix(1.00008,0,0,-1.00005,35.11109,94.53807)" d="M90.71013-45.35506V68.0326H113.38766V-45.35506ZM113.38766 68.0326" fill="#fff2f2"/>
<path transform="matrix(1.00008,0,0,-1.00005,35.11109,94.53807)" stroke-width=".3985" stroke-linecap="butt" stroke-miterlimit="10" stroke-linejoin="miter" fill="none" stroke="#000000" d="M-34.01628 0H124.26814"/>
<path transform="matrix(1.00008,0,0,-1.00005,159.38918,94.53807)" stroke-width=".31879" stroke-linecap="round" stroke-linejoin="round" fill="none" stroke="#000000" d="M-1.19551 1.59401C-1.09587 .99626 0 .09961 .29886 0 0-.09961-1.09587-.99626-1.19551-1.59401"/>
<use data-text="t" xlink:href="#font_1_2" transform="matrix(10.037203,0,0,-10.036901,163.46537,97.58722)"/>
<path transform="matrix(1.00008,0,0,-1.00005,35.11109,94.53807)" stroke-width=".3985" stroke-linecap="butt" stroke-miterlimit="10" stroke-linejoin="miter" fill="none" stroke="#000000" d="M0-56.69382V78.91307"/>
<path transform="matrix(0,-1.00005,-1.00008,-0,35.11109,15.621056)" stroke-width=".31879" stroke-linecap="round" stroke-linejoin="round" fill="none" stroke="#000000" d="M-1.19551 1.59401C-1.09587 .99626 0 .09961 .29886 0 0-.09961-1.09587-.99626-1.19551-1.59401"/>
<use data-text="f" xlink:href="#font_1_1" transform="matrix(10.037203,0,0,-10.036901,26.983437,9.297813)"/>
<use data-text="(" xlink:href="#font_2_1" transform="matrix(10.037203,0,0,-10.036901,32.59189,9.297813)"/>
<use data-text="t" xlink:href="#font_1_2" transform="matrix(10.037203,0,0,-10.036901,36.32219,9.297813)"/>
<use data-text=")" xlink:href="#font_2_2" transform="matrix(10.037203,0,0,-10.036901,40.81756,9.297813)"/>
<path transform="matrix(1.00008,0,0,-1.00005,35.11109,94.53807)" stroke-width=".3985" stroke-linecap="butt" stroke-miterlimit="10" stroke-linejoin="miter" fill="none" stroke="#b5b5b5" d="M-22.67752 2.26787V-2.26787"/>
<use data-text="-" xlink:href="#font_2_3" transform="matrix(9.166333,0,0,-9.166058,8.201942,107.475719)"/>
<use data-text="1" xlink:href="#font_2_5" transform="matrix(9.166333,0,0,-9.166058,11.795151,107.475719)"/>
<path transform="matrix(1.00008,0,0,-1.00005,35.11109,94.53807)" stroke-width=".3985" stroke-linecap="butt" stroke-miterlimit="10" stroke-linejoin="miter" fill="none" stroke="#b5b5b5" d="M0 2.26787V-2.26787"/>
<use data-text="0" xlink:href="#font_2_4" transform="matrix(9.166333,0,0,-9.166058,32.679895,107.475719)"/>
<path transform="matrix(1.00008,0,0,-1.00005,35.11109,94.53807)" stroke-width=".3985" stroke-linecap="butt" stroke-miterlimit="10" stroke-linejoin="miter" fill="none" stroke="#b5b5b5" d="M22.67752 2.26787V-2.26787"/>
<use data-text="1" xlink:href="#font_2_5" transform="matrix(9.166333,0,0,-9.166058,55.35971,107.475719)"/>
<path transform="matrix(1.00008,0,0,-1.00005,35.11109,94.53807)" stroke-width=".3985" stroke-linecap="butt" stroke-miterlimit="10" stroke-linejoin="miter" fill="none" stroke="#b5b5b5" d="M45.35506 2.26787V-2.26787"/>
<use data-text="2" xlink:href="#font_2_6" transform="matrix(9.166333,0,0,-9.166058,78.03853,107.475719)"/>
<path transform="matrix(1.00008,0,0,-1.00005,35.11109,94.53807)" stroke-width=".3985" stroke-linecap="butt" stroke-miterlimit="10" stroke-linejoin="miter" fill="none" stroke="#b5b5b5" d="M68.0326 2.26787V-2.26787"/>
<use data-text="3" xlink:href="#font_2_7" transform="matrix(9.166333,0,0,-9.166058,100.71834,107.475719)"/>
<path transform="matrix(1.00008,0,0,-1.00005,35.11109,94.53807)" stroke-width=".3985" stroke-linecap="butt" stroke-miterlimit="10" stroke-linejoin="miter" fill="none" stroke="#b5b5b5" d="M90.71013 2.26787V-2.26787"/>
<use data-text="4" xlink:href="#font_2_8" transform="matrix(9.166333,0,0,-9.166058,123.397159,107.475719)"/>
<path transform="matrix(1.00008,0,0,-1.00005,35.11109,94.53807)" stroke-width=".3985" stroke-linecap="butt" stroke-miterlimit="10" stroke-linejoin="miter" fill="none" stroke="#b5b5b5" d="M113.38766 2.26787V-2.26787"/>
<use data-text="5" xlink:href="#font_2_9" transform="matrix(9.166333,0,0,-9.166058,146.07697,107.475719)"/>
<path transform="matrix(1.00008,0,0,-1.00005,35.11109,94.53807)" stroke-width=".3985" stroke-linecap="butt" stroke-miterlimit="10" stroke-linejoin="miter" fill="none" stroke="#b5b5b5" d="M2.26787-45.35506H-2.26787"/>
<use data-text="-" xlink:href="#font_2_3" transform="matrix(9.166333,0,0,-9.166058,19.850869,142.9645)"/>
<use data-text="2" xlink:href="#font_2_6" transform="matrix(9.166333,0,0,-9.166058,23.444077,142.9645)"/>
<path transform="matrix(1.00008,0,0,-1.00005,35.11109,94.53807)" stroke-width=".3985" stroke-linecap="butt" stroke-miterlimit="10" stroke-linejoin="miter" fill="none" stroke="#b5b5b5" d="M2.26787-22.67752H-2.26787"/>
<use data-text="-" xlink:href="#font_2_3" transform="matrix(9.166333,0,0,-9.166058,19.850869,120.285358)"/>
<use data-text="1" xlink:href="#font_2_5" transform="matrix(9.166333,0,0,-9.166058,23.444077,120.285358)"/>
<path transform="matrix(1.00008,0,0,-1.00005,35.11109,94.53807)" stroke-width=".3985" stroke-linecap="butt" stroke-miterlimit="10" stroke-linejoin="miter" fill="none" stroke="#b5b5b5" d="M2.26787 0H-2.26787"/>
<use data-text="0" xlink:href="#font_2_4" transform="matrix(9.166333,0,0,-9.166058,23.448159,97.58222)"/>
<path transform="matrix(1.00008,0,0,-1.00005,35.11109,94.53807)" stroke-width=".3985" stroke-linecap="butt" stroke-miterlimit="10" stroke-linejoin="miter" fill="none" stroke="#b5b5b5" d="M2.26787 22.67752H-2.26787"/>
<use data-text="1" xlink:href="#font_2_5" transform="matrix(9.166333,0,0,-9.166058,23.448159,74.92809)"/>
<path transform="matrix(1.00008,0,0,-1.00005,35.11109,94.53807)" stroke-width=".3985" stroke-linecap="butt" stroke-miterlimit="10" stroke-linejoin="miter" fill="none" stroke="#b5b5b5" d="M2.26787 45.35506H-2.26787"/>
<use data-text="2" xlink:href="#font_2_6" transform="matrix(9.166333,0,0,-9.166058,23.448159,52.24896)"/>
<path transform="matrix(1.00008,0,0,-1.00005,35.11109,94.53807)" stroke-width=".3985" stroke-linecap="butt" stroke-miterlimit="10" stroke-linejoin="miter" fill="none" stroke="#b5b5b5" d="M2.26787 68.0326H-2.26787"/>
<use data-text="3" xlink:href="#font_2_7" transform="matrix(9.166333,0,0,-9.166058,23.448159,29.54583)"/>
<path transform="matrix(1.00008,0,0,-1.00005,35.11109,94.53807)" stroke-width="1.19553" stroke-linecap="butt" stroke-miterlimit="10" stroke-linejoin="miter" fill="none" stroke="#0000ff" d="M-22.67752 5.66936-22.33598 5.4998-21.99445 5.33267-21.65291 5.16832-21.31137 5.0067-20.96985 4.84753-20.6283 4.6908-20.28677 4.53679-19.94525 4.38524-19.60371 4.23643-19.26218 4.09007-18.92065 3.94647-18.5791 3.8053-18.23758 3.66653-17.89604 3.53055-17.55452 3.39697-17.21298 3.26617-16.87144 3.13779-16.5299 3.01219-16.18839 2.88899-15.84683 2.76823-15.50531 2.65022-15.16379 2.53467-14.82225 2.42184-14.48071 2.31146-14.13919 2.20386-13.79764 2.09866-13.45612 1.9959-13.11458 1.89589-12.77306 1.7983-12.43152 1.70349-12.09 1.6111-11.74844 1.52148-11.40692 1.43428-11.06537 1.3495-10.72385 1.26749-10.38232 1.18825-10.04077 1.11108-9.69925 1.03703-9.35771 .96506-9.01617 .89586-8.67464 .82942-8.33311 .7654-7.99158 .7038-7.65005 .64499-7.30852 .58858-6.96698 .53493-6.62544 .48372-6.2839 .43529-5.94237 .38892-5.60086 .34567-5.25931 .30482-4.91779 .26642-4.57625 .23077-4.23471 .19756-3.89317 .16678-3.55165 .13875-3.21011 .11348-2.86859 .09064-2.52705 .07022-2.18552 .05258-1.84398 .03734-1.50246 .02455-1.1609 .01453-.8194 .00725-.47784 .00241-.13632 0 .20517 .00032 .54672 .0031 .88824 .00862 1.22978 .01659 1.5713 .02698 1.91284 .04013 2.25436 .0557 2.59592 .07402 2.93744 .09479 3.27898 .11833 3.62051 .14427 3.96204 .17299 4.30357 .20415 4.64511 .2377 4.98663 .27403 5.32819 .31279 5.66971 .35432 6.01125 .39827 6.35277 .44463 6.6943 .49377 7.03583 .54567 7.37738 .59966 7.7189 .65675 8.06044 .71591 8.40198 .77821 8.7435 .84256 9.08504 .9097 9.42657 .97926 9.76811 1.05156 10.10965 1.12666 10.45119 1.20383 10.79271 1.28375 11.13425 1.36646 11.47577 1.45158 11.8173 1.53947 12.15884 1.62943 12.50038 1.72253 12.8419 1.81769 13.18346 1.91595 13.52496 2.01631 13.8665 2.11942 14.20804 2.2253 14.54958 2.33362 14.8911 2.44435 15.23265 2.55785 15.57417 2.67377 15.91571 2.79247 16.25723 2.91357 16.59877 3.0371 16.9403 3.16339 17.28185 3.29247 17.62337 3.42361 17.96492 3.55788 18.30643 3.69421 18.64796 3.83333 18.9895 3.97519 19.33104 4.11949 19.67256 4.2662 20.01411 4.4157 20.35564 4.5676 20.69717 4.72227 21.03871 4.87936 21.38023 5.03923 21.72179 5.20154 22.06331 5.36624 22.40485 5.53372 22.74638 5.70363 23.0879 5.87628 23.42943 6.05138 23.77098 6.22925 24.1125 6.40953 24.45404 6.59224 24.79558 6.77771 25.13712 6.9656 25.47862 7.15627 25.82018 7.34935 26.1617 7.54521 26.50325 7.74347 26.84477 7.94418 27.18631 8.14764 27.52785 8.35353 27.86937 8.5622 28.21089 8.77327 28.55244 8.9871 28.89397 9.20337 29.2355 9.42242 29.57704 9.64389 29.91858 9.86777 30.26009 10.0944 30.60164 10.32349 30.94316 10.55533 31.28471 10.78958 31.62624 11.02628 31.96777 11.26572 32.30931 11.50795 32.65083 11.75224 32.99237 11.99968 33.33391 12.24916 33.67545 12.50142 34.01697 12.75644 34.35852 13.01389 34.70004 13.27376 35.04156 13.53638 35.3831 13.8018 35.72464 14.06929 36.06616 14.33954 36.40771 14.61255 36.74924 14.88799 37.09079 15.16585 37.4323 15.44649 37.77383 15.72989 38.11537 16.01537 38.45691 16.30362 38.79843 16.59462 39.13998 16.88806 39.4815 17.18427 39.82303 17.48253 40.16457 17.78394 40.5061 18.08775 40.84763 18.394 41.18918 18.70265 41.5307 19.01407 41.87224 19.32828 42.21376 19.6449 42.5553 19.96393 42.89684 20.28574 43.23837 20.60997 43.5799 20.93698 43.92145 21.26639 44.26297 21.59824 44.60449 21.93285 44.94604 22.27023 45.28757 22.61003"/>
<path transform="matrix(1.00008,0,0,-1.00005,35.11109,94.53807)" stroke-width="1.19553" stroke-linecap="butt" stroke-miterlimit="10" stroke-linejoin="miter" fill="none" stroke="#009900" d="M45.35506 45.35506 45.58273 45.12737 45.81042 44.89967 46.0381 44.67198 46.2658 44.4443 46.4935 44.2166 46.72118 43.9889 46.94887 43.76123 47.17656 43.53354 47.40425 43.30583 47.63194 43.07816 47.85962 42.85048 48.08731 42.62279 48.315 42.3951 48.5427 42.1674 48.77039 41.93971 48.99806 41.71204 49.22577 41.48433 49.45346 41.25664 49.68114 41.02896 49.90883 40.80127 50.1365 40.57358 50.3642 40.34589 50.59189 40.11821 50.81958 39.89052 51.04726 39.66283 51.27496 39.43513 51.50266 39.20744 51.73033 38.97975 51.95802 38.75208 52.18573 38.52437 52.4134 38.29669 52.64108 38.06902 52.86877 37.84132 53.09647 37.61362 53.32416 37.38594 53.55185 37.15825 53.77953 36.93056 54.00722 36.70288 54.23492 36.47517 54.4626 36.24748 54.69029 36.0198 54.91798 35.79211 55.14568 35.56442 55.37335 35.33675 55.60104 35.10905 55.82874 34.88136 56.05643 34.65367 56.28412 34.42598 56.5118 34.19829 56.73949 33.97061 56.9672 33.7429 57.19487 33.51521 57.42255 33.28754 57.65024 33.05986 57.87794 32.83217 58.10562 32.60446 58.33331 32.37679 58.561 32.1491 58.78868 31.92142 59.01639 31.69371 59.24408 31.46602 59.47176 31.23834 59.69945 31.01065 59.92714 30.78296 60.15482 30.55527 60.3825 30.32759 60.6102 30.0999 60.83789 29.8722 61.06558 29.64452 61.29327 29.41682 61.52095 29.18913 61.74866 28.96144 61.97635 28.73375 62.20403 28.50607 62.4317 28.2784 62.6594 28.0507 62.88708 27.823 63.11478 27.59532 63.34247 27.36763 63.57014 27.13994 63.79785 26.91225 64.02554 26.68456 64.25322 26.45686 64.48091 26.22919 64.7086 26.0015 64.9363 25.7738 65.16397 25.54613 65.39166 25.31844 65.61937 25.09073 65.84705 24.86305 66.07474 24.63536 66.30243 24.40767 66.5301 24.18 66.75781 23.95229 66.98549 23.72461 67.21317 23.49692 67.44086 23.26924 67.66856 23.04153 67.89624 22.81384 68.12393 22.58617 68.35162 22.35847 68.57932 22.13077 68.807 21.90309 69.0347 21.6754 69.26237 21.44771 69.49007 21.22003 69.71776 20.99234 69.94543 20.76465 70.17313 20.53697 70.40083 20.30928 70.62851 20.08157 70.8562 19.8539 71.0839 19.6262 71.31157 19.39851 71.53928 19.17082 71.76697 18.94313 71.99464 18.71545 72.22232 18.48778 72.45003 18.26007 72.67772 18.03238 72.9054 17.8047 73.13309 17.57701 73.3608 17.3493 73.58847 17.12163 73.81616 16.89394 74.04384 16.66624 74.27153 16.43857 74.49922 16.21088 74.72691 15.98318 74.95459 15.7555 75.18228 15.52782 75.40999 15.30011 75.63766 15.07242 75.86536 14.84474 76.09305 14.61705 76.32074 14.38936 76.54843 14.16167 76.77611 13.93399 77.00378 13.7063 77.23149 13.4786 77.45918 13.25092 77.68686 13.02322 77.91455 12.79555 78.14226 12.56784 78.36993 12.34015 78.59763 12.11247 78.82532 11.88478 79.053 11.6571 79.28069 11.42941 79.50838 11.20172 79.73607 10.97403 79.96375 10.74635 80.19145 10.51865 80.41913 10.29095 80.64682 10.06328 80.87451 9.83559 81.1022 9.60788 81.3299 9.3802 81.55757 9.15253 81.78526 8.92484 82.01295 8.69713 82.24065 8.46945 82.46834 8.24176 82.69601 8.01408 82.9237 7.78639 83.15141 7.55869 83.37909 7.33101 83.60678 7.10332 83.83446 6.87564 84.06215 6.64793 84.28984 6.42026 84.51753 6.19257 84.74521 5.96487 84.97292 5.73718 85.2006 5.50949 85.42828 5.2818 85.65598 5.05412 85.88368 4.82642 86.11136 4.59872 86.33904 4.37106 86.56673 4.14337 86.79442 3.91568 87.02211 3.68799 87.2498 3.4603 87.47748 3.2326 87.70517 3.00493 87.93288 2.77722 88.16055 2.54953 88.38824 2.32185 88.61592 2.09418 88.84363 1.86647 89.0713 1.6388 89.299 1.4111 89.52669 1.18341 89.75438 .95572 89.98207 .72803 90.20976 .50034 90.43744 .27266 90.66515 .04495"/>
<path transform="matrix(1.00008,0,0,-1.00005,35.11109,94.53807)" stroke-width="1.19553" stroke-linecap="butt" stroke-miterlimit="10" stroke-linejoin="miter" fill="none" stroke="#b30000" d="M90.71013-22.67752H90.82396 90.9378 91.05165 91.1655 91.27933 91.39317 91.50702 91.62086 91.73473 91.84857 91.9624 92.07625 92.1901 92.30394 92.41779 92.53163 92.64548 92.75932 92.87317 92.98701 93.10086 93.21469 93.32854 93.44237 93.55621 93.67007 93.78392 93.89777 94.0116 94.12544 94.23929 94.35313 94.46698 94.58084 94.69467 94.80852 94.92236 95.03621 95.15005 95.2639 95.37773 95.49158 95.60542 95.71927 95.83311 95.94696 96.0608 96.17464 96.28848 96.40233 96.51619 96.63004 96.74388 96.85771 96.97156 97.0854 97.19925 97.3131 97.42694 97.54079 97.65463 97.76848 97.88232 97.99615 98.11 98.22385 98.33768 98.45154 98.56538 98.67923 98.79308 98.90692 99.02075 99.1346 99.24844 99.36229 99.47615 99.58998 99.70383 99.81767 99.93152 100.04536 100.15921 100.27304 100.38689 100.50073 100.61458 100.72842 100.84227 100.95612 101.06995 101.18379 101.29765 101.4115 101.52534 101.63919 101.75302 101.86687 101.98071 102.09456 102.2084 102.32227 102.4361 102.54994 102.66379 102.77762 102.89146 103.00531 103.11916 103.233 103.34685 103.4607 103.57454 103.68839 103.80223 103.91606 104.0299 104.14375 104.25761 104.37146 104.4853 104.59914 104.71298 104.82683 104.94067 105.05452 105.16837 105.28221 105.39604 105.50989 105.62373 105.73758 105.85143 105.96526 106.0791 106.19296 106.30681 106.42065 106.5345 106.64833 106.76218 106.87602 106.98987 107.10373 107.21758 107.3314 107.44525 107.55908 107.67293 107.78677 107.90062 108.01447 108.12831 108.24216 108.356 108.46985 108.5837 108.69754 108.81137 108.92522 109.03908 109.15292 109.26677 109.38062 109.49445 109.60829 109.72214 109.83598 109.94981 110.06367 110.17752 110.29135 110.4052 110.51904 110.63289 110.74673 110.86058 110.97443 111.08827 111.20212 111.31596 111.42981 111.54364 111.65749 111.77133 111.88518 111.99904 112.11288 112.22672 112.34055 112.45439 112.56824 112.68208 112.79593 112.90979 113.02362 113.13747 113.25131 113.36516"/>
</svg>
