<svg xmlns="http://www.w3.org/2000/svg" xmlns:xlink="http://www.w3.org/1999/xlink" version="1.1" width="117" height="48" viewBox="0 0 117 48">
<defs>
<path id="font_1_4" d="M.42799378 .45222474 .43899537 .49023438H.31199647L.34599305 .6092224 .33399964 .6162262 .23699951 .53923037 .22399903 .49023438H.14299011L.13198853 .45222474H.21499634L.125 .08627319C.10998535 .029266358 .12199402-.01171875 .17199707-.01171875 .2519989-.01171875 .31599427 .054275514 .35598756 .1292572L.33399964 .1462555C.31098939 .10726929 .2599945 .040267946 .22898865 .040267946 .20799256 .040267946 .20799256 .0632782 .21398926 .088272098L.30299378 .45222474H.42799378Z"/>
<path id="font_1_1" d="M.42799378 .15419007C.3939972 .10821533 .33499146 .03727722 .2679901 .03727722 .19499207 .03727722 .17999268 .097229007 .17999268 .16816712 .17999268 .29808045 .25498963 .46694947 .34700013 .46694947 .3789978 .46694947 .40098573 .44696046 .40699769 .38700868 .40899659 .36901856 .41799928 .35702516 .43598939 .35702516 .45999146 .35702516 .5 .38002015 .5 .41299439 .5 .46394349 .44599916 .5019531 .37098695 .5019531 .19299317 .5019531 .08099365 .31207276 .08099365 .14819336 .08099365 .026275635 .1539917-.01171875 .22399903-.01171875 .2979889-.01171875 .3829956 .02027893 .45199586 .13519287L.42799378 .15419007Z"/>
<path id="font_1_2" d="M.17098999 .112213138C.17098999 .22013855 .2579956 .46694947 .41799928 .46694947 .44898988 .46694947 .47499085 .45794679 .4869995 .44696046 .47200013 .37002564 .43899537 .27609254 .3880005 .19316101 .33999635 .115219119 .27398683 .040267946 .22099304 .040267946 .18899536 .040267946 .17098999 .06724548 .17098999 .112213138M.46398927 .71824648 .45799256 .6953125 .5179901 .68930056C.5419922 .6872864 .5439911 .6802826 .5359955 .6482239L.49798585 .48693849 .49598695 .48493959C.47698976 .49494935 .44599916 .5019531 .4119873 .5019531 .1789856 .5019531 .07199097 .24111939 .07199097 .12020874 .07199097 .055267335 .09098816-.01171875 .17199707-.01171875 .2869873-.01171875 .37599183 .11122131 .43499757 .21813965H.43699647L.4039917 .099227908C.38398744 .028274537 .39898683-.01272583 .44999696-.01171875 .522995-.01171875 .57899478 .056259157 .61299136 .13220215L.58898928 .14619446C.57099917 .11122131 .5269928 .040267946 .49899293 .040267946 .47898866 .040267946 .48098756 .06326294 .4889984 .0952301L.6469879 .7371979 .6419983 .7421875 .46398927 .71824648Z"/>
<path id="font_1_3" d="M.43499757 .15118408C.39898683 .10421753 .34498597 .03727722 .269989 .03727722 .19999695 .03727722 .1789856 .097229007 .1789856 .17616272 .1789856 .1811676 .1789856 .1851654 .17999268 .19215393 .34799195 .22613526 .42099 .26609803 .46398927 .30607606 .49899293 .3410492 .5059967 .37402345 .5059967 .4019928 .5059967 .45495606 .46398927 .5019531 .38198854 .5019531 .2919922 .5019531 .21798706 .45596314 .16299439 .3880005 .10998535 .32305909 .07998657 .23612976 .07998657 .15219116 .07998657 .012268066 .17098999-.01171875 .22898865-.01171875 .3019867-.01171875 .3899994 .02027893 .45799256 .13119507L.43499757 .15118408M.18199158 .22613526C.19898987 .3470459 .27398683 .46694947 .35398866 .46694947 .3889923 .46694947 .4119873 .44296266 .4119873 .4079895 .4119873 .3380432 .35099793 .26210023 .18199158 .22613526Z"/>
<path id="font_2_2" d="M.6349945 .2529297V.31092835H.084991458V.2529297H.6349945Z"/>
<path id="font_3_1" d="M.1749878 .2822113C.1749878 .56832888 .2619934 .65437319 .32499696 .66737368V.6923828C.1499939 .685379 .10499573 .46829225 .10499573 .2822113 .10499573 .09614563 .1499939-.12094116 .32499696-.12792969V-.10293579C.2669983-.090927127 .1749878-.0059051516 .1749878 .2822113Z"/>
<path id="font_2_1" d="M.4909973 .1572113C.5249939 .10424805 .6179962-.01171875 .7609863-.01171875 .94599917-.01171875 1.0009918 .12922669 1.0009918 .24716187 1.0009918 .36608888 .8899994 .4600525 .7789917 .4600525 .6380005 .4600525 .5479889 .33309938 .5319977 .30612184H.5309906C.49198915 .37008668 .4039917 .4580536 .2659912 .4580536 .083999637 .4580536 .015991211 .33010865 .015991211 .21217346 .015991211 .09320068 .13398743-.0107421879 .24499512-.0107421879 .3849945-.0107421879 .47299195 .12918091 .48999024 .15716553L.4909973 .1572113M.55999758 .26213075C.59799197 .33009339 .66999819 .4140625 .7829895 .4140625 .8549957 .4140625 .94299319 .34109498 .94299319 .25112916 .94299319 .150177 .8880005 .057266237 .79100039 .057266237 .6879883 .057266237 .6069946 .17315674 .55999758 .2620697V.26213075M.46398927 .2071228C.42599488 .13917542 .35398866 .03527832 .24099732 .03527832 .16899109 .03527832 .07899475 .11819458 .07899475 .20811463 .07899475 .30802918 .14898682 .38694764 .23298645 .38694764 .33299256 .38694764 .4169922 .28204347 .46398927 .2071228Z"/>
<path id="font_3_3" d="M.069992069-.140625C.11999512-.09362793 .19299317-.027633667 .19299317 .051361085 .19299317 .10636902 .1599884 .1423645 .125 .14137268 .09399414 .14137268 .07598877 .117370609 .07598877 .09136963 .07598877 .055374147 .10899353 .037368776 .10899353-.005630493 .10899353-.04663086 .08299255-.086639408 .050994874-.12162781L.069992069-.140625Z"/>
<path id="font_3_2" d="M.1749878 .2822113C.1749878-.0059051516 .08299255-.090927127 .024993897-.10293579V-.12792969C.19999695-.12094116 .24499512 .09614563 .24499512 .2822113 .24499512 .46829225 .19999695 .685379 .024993897 .6923828V.66737368C.08799744 .65437319 .1749878 .56832888 .1749878 .2822113Z"/>
<path id="font_3_4" d="M.43699647 0V.0289917L.35299684 .035995485C.33198548 .037994386 .31999208 .04598999 .31999208 .08496094V.67367556L.31498719 .6796875 .10899353 .6446991V.6197052L.20199585 .6087036C.21899414 .6067047 .22599793 .5987091 .22599793 .56973269V.08496094C.22599793 .065979007 .22299195 .053985597 .21699524 .04698181 .21199036 .039993287 .20399475 .036987306 .19299317 .035995485L.10899353 .0289917V0H.43699647Z"/>
<path id="font_3_5" d="M.19599915 .61035159C.19599915 .6573639 .20199585 .66137698 .2919922 .66537478V.6923828H.1329956V-.12792969H.2919922V-.10093689C.20199585-.09693909 .19599915-.092941287 .19599915-.045913698V.61035159Z"/>
<path id="font_3_6" d="M.2999878 .040267946C.18099976 .040267946 .15299988 .16418457 .15299988 .25810243 .15299988 .40699769 .21199036 .46694947 .2809906 .46694947 .32699586 .46694947 .35598756 .43397523 .37599183 .38000489 .38198854 .36402894 .3880005 .35403443 .40699769 .35403443 .4269867 .35403443 .46598817 .36701966 .46598817 .40499879 .46598817 .45095826 .3999939 .5019531 .2919922 .5019531 .10998535 .5019531 .04899597 .37301637 .04899597 .2401123 .04899597 .07324219 .1309967-.01171875 .2809906-.01171875 .35099793-.01171875 .44499208 .025268555 .47299195 .13220215L.44400025 .14619446C.41299439 .07624817 .37298585 .040267946 .2999878 .040267946Z"/>
<path id="font_3_7" d="M.28799439 .5019531C.12799073 .5019531 .04899597 .40698243 .04899597 .24510193 .04899597 .083236698 .12799073-.01171875 .28799439-.01171875 .44999696-.01171875 .5279999 .083236698 .5279999 .24510193 .5279999 .40698243 .44999696 .5019531 .28799439 .5019531M.15299988 .24510193C.15299988 .38301087 .19699097 .46694947 .28799439 .46694947 .3809967 .46694947 .42399598 .38301087 .42399598 .24510193 .42399598 .10720825 .3809967 .023269654 .28799439 .023269654 .19699097 .023269654 .15299988 .10720825 .15299988 .24510193Z"/>
<path id="font_3_8" d="M.36698915 .35102845V.46794129C.33399964 .49194337 .2829895 .5019531 .23799134 .5019531 .12998963 .5019531 .056991579 .45095826 .055999757 .35603334 .056991579 .27308656 .12399292 .2361145 .20698548 .21113587 .2519989 .19714356 .31498719 .17416382 .31498719 .10621643 .31498719 .055252077 .2749939 .023269654 .22200012 .023269654 .14099121 .023269654 .09599304 .082229617 .07598877 .16716004H.04699707L.056991579 .03627014C.09298706 .004272461 .1539917-.01171875 .21299744-.01171875 .33198548-.01171875 .3999939 .051254274 .3999939 .13618469 .3999939 .2241211 .34599305 .26409913 .24299622 .29606629 .20199585 .30906678 .13598633 .3300476 .13598633 .3860016 .13699341 .43795777 .17599488 .46694947 .22599793 .46694947 .29699708 .46694947 .33099366 .4119873 .33799745 .35102845H.36698915Z"/>
</defs>
<path transform="matrix(1,0,0,-1,57.785005,24.277)" d="M-56.69275-22.6771V22.6771H0V-22.6771ZM0 22.6771" fill="#d9d9ec"/>
<path transform="matrix(1,0,0,-1,57.785005,24.277)" d="M0-22.6771V22.6771H34.01564V-22.6771ZM34.01564 22.6771" fill="#d9ecd9"/>
<path transform="matrix(1,0,0,-1,57.785005,24.277)" d="M34.01564-22.6771V22.6771H56.69275V-22.6771ZM56.69275 22.6771" fill="#ecd9d9"/>
<path transform="matrix(1,0,0,-1,57.785005,24.277)" stroke-width=".3985" stroke-linecap="butt" stroke-miterlimit="10" stroke-linejoin="miter" fill="none" stroke="#000000" d="M-56.69275 0H56.23447"/>
<path transform="matrix(1,0,0,-1,114.01947,24.277)" stroke-width=".31879" stroke-linecap="round" stroke-linejoin="round" fill="none" stroke="#000000" d="M-1.19551 1.59401C-1.09587 .99626 0 .09961 .29886 0 0-.09961-1.09587-.99626-1.19551-1.59401"/>
<use data-text="t" xlink:href="#font_1_4" transform="matrix(9.1656,0,0,-9.1656,111.39101,33.325)"/>
<path transform="matrix(1,0,0,-1,57.785005,24.277)" stroke-width=".3985" stroke-linecap="butt" stroke-miterlimit="10" stroke-linejoin="miter" fill="none" stroke="#000000" d="M0 1.13391V-1.13391"/>
<path transform="matrix(1,0,0,-1,57.785005,24.277)" stroke-width=".3985" stroke-linecap="butt" stroke-miterlimit="10" stroke-linejoin="miter" fill="none" stroke="#000000" d="M34.01564 1.13391V-1.13391"/>
<use data-text="c" xlink:href="#font_1_1" transform="matrix(7.3325,0,0,-7.3325,55.880006,31.302)"/>
<use data-text="d" xlink:href="#font_1_2" transform="matrix(7.3325,0,0,-7.3325,89.278,33.155)"/>
<use data-text="e" xlink:href="#font_1_3" transform="matrix(7.3325,0,0,-7.3325,23.555008,21.943)" fill="#000080"/>
<use data-text="&#x2212;" xlink:href="#font_2_2" transform="matrix(6.2326,0,0,-6.2326,27.41201,19.050002)" fill="#000080"/>
<use data-text="t" xlink:href="#font_1_4" transform="matrix(6.2326,0,0,-6.2326,32.032014,19.050002)" fill="#000080"/>
<use data-text="(" xlink:href="#font_3_1" transform="matrix(7.3325,0,0,-7.3325,17.225007,32.022)" fill="#000080"/>
<use data-text="&#x2212;" xlink:href="#font_2_2" transform="matrix(7.3325,0,0,-7.3325,19.791008,32.022)" fill="#000080"/>
<use data-text="&#x221e;" xlink:href="#font_2_1" transform="matrix(7.3325,0,0,-7.3325,25.070405,32.022)" fill="#000080"/>
<use data-text="," xlink:href="#font_3_3" transform="matrix(7.3325,0,0,-7.3325,32.55101,32.022)" fill="#000080"/>
<use data-text="c" xlink:href="#font_1_1" transform="matrix(7.3325,0,0,-7.3325,35.27501,32.022)" fill="#000080"/>
<use data-text=")" xlink:href="#font_3_2" transform="matrix(7.3325,0,0,-7.3325,39.085008,32.022)" fill="#000080"/>
<use data-text="1" xlink:href="#font_3_4" transform="matrix(7.3325,0,0,-7.3325,67.51401,21.031)" fill="#008000"/>
<use data-text="&#x2212;" xlink:href="#font_2_2" transform="matrix(7.3325,0,0,-7.3325,72.377017,21.031)" fill="#008000"/>
<use data-text="t" xlink:href="#font_1_4" transform="matrix(7.3325,0,0,-7.3325,78.78702,21.031)" fill="#008000"/>
<use data-text="[" xlink:href="#font_3_5" transform="matrix(7.3325,0,0,-7.3325,66.509,32.168)" fill="#008000"/>
<use data-text="c" xlink:href="#font_1_1" transform="matrix(7.3325,0,0,-7.3325,68.931,32.168)" fill="#008000"/>
<use data-text="," xlink:href="#font_3_3" transform="matrix(7.3325,0,0,-7.3325,72.741,32.168)" fill="#008000"/>
<use data-text="d" xlink:href="#font_1_2" transform="matrix(7.3325,0,0,-7.3325,75.465,32.168)" fill="#008000"/>
<use data-text=")" xlink:href="#font_3_2" transform="matrix(7.3325,0,0,-7.3325,80.509998,32.168)" fill="#008000"/>
<use data-text="c" xlink:href="#font_3_6" transform="matrix(7.3325,0,0,-7.3325,95.49701,20.835001)" fill="#800000"/>
<use data-text="o" xlink:href="#font_3_7" transform="matrix(7.3325,0,0,-7.3325,99.13393,20.835001)" fill="#800000"/>
<use data-text="s" xlink:href="#font_3_8" transform="matrix(7.3325,0,0,-7.3325,103.36478,20.835001)" fill="#800000"/>
<use data-text="t" xlink:href="#font_1_4" transform="matrix(7.3325,0,0,-7.3325,107.49802,20.835001)" fill="#800000"/>
<use data-text="[" xlink:href="#font_3_5" transform="matrix(7.3325,0,0,-7.3325,93.018009,32.168)" fill="#800000"/>
<use data-text="d" xlink:href="#font_1_2" transform="matrix(7.3325,0,0,-7.3325,95.44,32.168)" fill="#800000"/>
<use data-text="," xlink:href="#font_3_3" transform="matrix(7.3325,0,0,-7.3325,100.48601,32.168)" fill="#800000"/>
<use data-text="&#x221e;" xlink:href="#font_2_1" transform="matrix(7.3325,0,0,-7.3325,103.21001,32.168)" fill="#800000"/>
<use data-text=")" xlink:href="#font_3_2" transform="matrix(7.3325,0,0,-7.3325,110.69301,32.168)" fill="#800000"/>
</svg>
