<svg xmlns="http://www.w3.org/2000/svg" xmlns:xlink="http://www.w3.org/1999/xlink" version="1.1" width="17" height="47" viewBox="0 0 17 47">
<defs>
<path id="font_1_1" d="M.070999149 .45393373 .07398987 .42893983 .14199829 .43093873C.1639862 .43193055 .16899109 .41493226 .1769867 .36291505 .18798828 .28489686 .20999146 .09286499 .20999146 .0128479 .20999146-.017166138 .20799256-.058166505 .18598938-.11117554 .16799927-.15318299 .14199829-.18218994 .12199402-.18218994 .10699463-.18218994 .09599304-.17118836 .08099365-.15118408 .068984989-.13517761 .06098938-.127182 .04598999-.127182 .019989014-.12818909-.005004883-.15818787-.005004883-.18719483-.005004883-.21418762 .023986817-.2421875 .067993167-.2421875 .15299988-.2421875 .18998719-.17919922 .27799989-.027160645 .2979889 .0068511965 .35798646 .11286926 .41999818 .21488953 .47698976 .30891419 .5399933 .40592958 .5399933 .4459381 .5399933 .48094178 .5289917 .5019531 .5219879 .5019531 .5029907 .5019531 .46899415 .49394227 .44400025 .47694398 .44499208 .4419403 .44299317 .3809204 .43099977 .33891297 .4149933 .28289796 .35598756 .17488098 .2899933 .06085205H.2869873C.27999879 .21388245 .26098634 .42492677 .24699402 .49795533L.23899842 .5019531 .070999149 .45393373Z"/>
<path id="font_2_1" d="M.2649994 .64468386C.3600006 .64468386 .3869934 .49682618 .3869934 .33398438 .3869934 .17112732 .3600006 .023269654 .2649994 .023269654 .16999817 .023269654 .14299011 .17112732 .14299011 .33398438 .14299011 .49682618 .16999817 .64468386 .2649994 .64468386M.2649994 .6796875C.099990848 .6796875 .040985109 .53378298 .040985109 .33398438 .040985109 .13417053 .099990848-.01171875 .2649994-.01171875 .42999269-.01171875 .4889984 .13417053 .4889984 .33398438 .4889984 .53378298 .42999269 .6796875 .2649994 .6796875Z"/>
<path id="font_2_2" d="M.2999878 .17871094V.0769043C.2999878 .04296875 .2889862 .036987306 .2649994 .034988405L.20098877 .0289917V0H.46499635V.0289917L.41999818 .033981325C.39698792 .036987306 .3899994 .04296875 .3899994 .0769043V.17871094H.49299623V.22570801H.3899994V.66796877H.31698609C.22299195 .5298767 .11099243 .35577394 .018997193 .19970703L.027999878 .17871094H.2999878M.09098816 .22570801C.15098572 .33476258 .22099304 .4498291 .2979889 .5709076H.2999878V.22570801H.09098816Z"/>
</defs>
<path transform="matrix(1.00003,0,0,-1.00003,7.409294,35.58368)" stroke-width=".79701" stroke-linecap="butt" stroke-miterlimit="10" stroke-linejoin="miter" fill="none" stroke="#000000" d="M0-10.2047V33.78558"/>
<path transform="matrix(0,-1.00003,-1.00003,-0,7.409294,1.3985748)" stroke-width=".79701" stroke-linecap="round" stroke-linejoin="round" fill="none" stroke="#000000" d="M-2.55046 3.11095C-2.0845 1.24435-1.04614 .36295 0 0-1.04614-.36295-2.0845-1.24435-2.55046-3.11095"/>
<use data-text="y" xlink:href="#font_1_1" transform="matrix(5.499565,0,0,-5.499565,12.724457,4.519747)"/>
<path transform="matrix(1.00003,0,0,-1.00003,7.409294,35.58368)" d="M.3985 0C.3985 .22008 .22008 .3985 0 .3985-.22008 .3985-.3985 .22008-.3985 0-.3985-.22008-.22008-.3985 0-.3985 .22008-.3985 .3985-.22008 .3985 0ZM0 0"/>
<path transform="matrix(1.00003,0,0,-1.00003,7.409294,35.58368)" stroke-width=".3985" stroke-linecap="butt" stroke-miterlimit="10" stroke-linejoin="miter" fill="none" stroke="#000000" d="M.3985 0C.3985 .22008 .22008 .3985 0 .3985-.22008 .3985-.3985 .22008-.3985 0-.3985-.22008-.22008-.3985 0-.3985 .22008-.3985 .3985-.22008 .3985 0ZM0 0"/>
<path transform="matrix(1.00003,0,0,-1.00003,7.409294,35.58368)" stroke-width=".3985" stroke-linecap="butt" stroke-miterlimit="10" stroke-linejoin="miter" fill="none" stroke="#000000" d="M0 0"/>
<use data-text="0" xlink:href="#font_2_1" transform="matrix(5.499565,0,0,-5.499565,1.0931015,37.409734)"/>
<path transform="matrix(1.00003,0,0,-1.00003,7.409294,35.58368)" d="M.3985 22.6771C.3985 22.89717 .22008 23.07559 0 23.07559-.22008 23.07559-.3985 22.89717-.3985 22.6771-.3985 22.45702-.22008 22.27858 0 22.27858 .22008 22.27858 .3985 22.45702 .3985 22.6771ZM0 22.6771"/>
<path transform="matrix(1.00003,0,0,-1.00003,7.409294,35.58368)" stroke-width=".3985" stroke-linecap="butt" stroke-miterlimit="10" stroke-linejoin="miter" fill="none" stroke="#000000" d="M.3985 22.6771C.3985 22.89717 .22008 23.07559 0 23.07559-.22008 23.07559-.3985 22.89717-.3985 22.6771-.3985 22.45702-.22008 22.27858 0 22.27858 .22008 22.27858 .3985 22.45702 .3985 22.6771ZM0 22.6771"/>
<path transform="matrix(1.00003,0,0,-1.00003,7.409294,35.58368)" stroke-width=".3985" stroke-linecap="butt" stroke-miterlimit="10" stroke-linejoin="miter" fill="none" stroke="#000000" d="M0 22.6771"/>
<use data-text="4" xlink:href="#font_2_2" transform="matrix(5.499565,0,0,-5.499565,1.0931015,14.747053)"/>
<path transform="matrix(1.00003,0,0,-1.00003,7.409294,35.58368)" d="M0-5.66927V-10.16808" fill="#ffffff"/>
<path transform="matrix(1.00003,0,0,-1.00003,7.409294,35.58368)" stroke-width=".79701" stroke-linecap="butt" stroke-miterlimit="10" stroke-linejoin="miter" fill="none" stroke="#409f9f" d="M0-5.66927V-10.16808"/>
<path transform="matrix(0,-1.00003,-1.00003,-0,7.409294,45.95131)" d="M3.84644 0 .3985 1.39537V0-1.39537Z" fill="#409f9f"/>
<path transform="matrix(0,-1.00003,-1.00003,-0,7.409294,45.95131)" stroke-width=".79701" stroke-linecap="butt" stroke-miterlimit="10" stroke-linejoin="miter" fill="none" stroke="#409f9f" d="M3.84644 0 .3985 1.39537V0-1.39537Z"/>
<path transform="matrix(1.00003,0,0,-1.00003,7.409294,35.58368)" d="M0 11.33855V15.89403" fill="#ffffff"/>
<path transform="matrix(1.00003,0,0,-1.00003,7.409294,35.58368)" stroke-width=".79701" stroke-linecap="butt" stroke-miterlimit="10" stroke-linejoin="miter" fill="none" stroke="#409f9f" d="M0 11.33855V15.89403"/>
<path transform="matrix(0,1.00003,1.00003,0,7.409294,19.489916)" d="M3.84644 0 .3985 1.39537V0-1.39537Z" fill="#409f9f"/>
<path transform="matrix(0,1.00003,1.00003,0,7.409294,19.489916)" stroke-width=".79701" stroke-linecap="butt" stroke-miterlimit="10" stroke-linejoin="miter" fill="none" stroke="#409f9f" d="M3.84644 0 .3985 1.39537V0-1.39537Z"/>
<path transform="matrix(1.00003,0,0,-1.00003,7.409294,35.58368)" d="M0 28.34636V23.84753" fill="#ffffff"/>
<path transform="matrix(1.00003,0,0,-1.00003,7.409294,35.58368)" stroke-width=".79701" stroke-linecap="butt" stroke-miterlimit="10" stroke-linejoin="miter" fill="none" stroke="#409f9f" d="M0 28.34636V23.84753"/>
<path transform="matrix(0,-1.00003,-1.00003,-0,7.409294,11.93469)" d="M3.84644 0 .3985 1.39537V0-1.39537Z" fill="#409f9f"/>
<path transform="matrix(0,-1.00003,-1.00003,-0,7.409294,11.93469)" stroke-width=".79701" stroke-linecap="butt" stroke-miterlimit="10" stroke-linejoin="miter" fill="none" stroke="#409f9f" d="M3.84644 0 .3985 1.39537V0-1.39537Z"/>
</svg>
