<svg xmlns="http://www.w3.org/2000/svg" xmlns:xlink="http://www.w3.org/1999/xlink" version="1.1" width="181" height="68" viewBox="0 0 181 68">
<defs>
<path id="font_1_1" d="M.42799378 .45222474 .43899537 .49023438H.31199647L.34599305 .6092224 .33399964 .6162262 .23699951 .53923037 .22399903 .49023438H.14299011L.13198853 .45222474H.21499634L.125 .08627319C.10998535 .029266358 .12199402-.01171875 .17199707-.01171875 .2519989-.01171875 .31599427 .054275514 .35598756 .1292572L.33399964 .1462555C.31098939 .10726929 .2599945 .040267946 .22898865 .040267946 .20799256 .040267946 .20799256 .0632782 .21398926 .088272098L.30299378 .45222474H.42799378Z"/>
<path id="font_1_2" d="M.5329895 .48995973C.5039978 .388031 .48799134 .33506776 .46199037 .2741089 .41799928 .173172 .33099366 .040267946 .24798584 .040267946 .21598816 .040267946 .20799256 .070251468 .22299195 .12820435L.31900025 .4970703 .31399537 .50205996 .13198853 .47375489 .12599182 .4497528 .18798828 .44476319C.21199036 .44276429 .21099854 .42778016 .20298767 .39682008L.13398743 .13316345C.11299133 .053253175 .12098694-.01171875 .20098877-.01171875 .29699708-.01171875 .4019928 .09420776 .46199037 .21005249H.46398927L.43099977 .096206668C.4119873 .029266358 .42399598-.01171875 .47698976-.01171875 .548996-.01171875 .60899356 .057250978 .6439972 .13116455L.6199951 .14613343C.59999087 .11218262 .55599978 .040267946 .5279999 .040267946 .5069885 .040267946 .5069885 .06324768 .5149994 .09420776L.621994 .5019531 .5329895 .48995973Z"/>
<path id="font_2_1" d="M.6349945 .2529297V.31092835H.084991458V.2529297H.6349945Z"/>
<path id="font_3_4" d="M.4850006 .13195801 .45700074 .13696289C.43598939 .08299255 .41600038 .07598877 .37599183 .07598877H.11999512C.13598633 .1279602 .19499207 .19892884 .28799439 .2658844 .38398744 .33584596 .45799256 .38082887 .45799256 .49276734 .45799256 .63168337 .3659973 .6796875 .26098634 .6796875 .12399292 .6796875 .052993776 .5967102 .052993776 .54473879 .052993776 .51075747 .09098816 .49476625 .10798645 .49476625 .12599182 .49476625 .1329956 .50476077 .13699341 .5217438 .15299988 .5897064 .19198609 .64468386 .2539978 .64468386 .33099366 .64468386 .35299684 .5797119 .35299684 .50675967 .35299684 .3998108 .29899598 .33984376 .21199036 .26289369 .08898926 .15594483 .04598999 .08798218 .026992798 .009994507L.036987306 0H.45098878L.4850006 .13195801Z"/>
<path id="font_3_1" d="M.1749878 .2822113C.1749878 .56832888 .2619934 .65437319 .32499696 .66737368V.6923828C.1499939 .685379 .10499573 .46829225 .10499573 .2822113 .10499573 .09614563 .1499939-.12094116 .32499696-.12792969V-.10293579C.2669983-.090927127 .1749878-.0059051516 .1749878 .2822113Z"/>
<path id="font_3_2" d="M.1749878 .2822113C.1749878-.0059051516 .08299255-.090927127 .024993897-.10293579V-.12792969C.19999695-.12094116 .24499512 .09614563 .24499512 .2822113 .24499512 .46829225 .19999695 .685379 .024993897 .6923828V.66737368C.08799744 .65437319 .1749878 .56832888 .1749878 .2822113Z"/>
<path id="font_3_3" d="M.43699647 0V.0289917L.35299684 .035995485C.33198548 .037994386 .31999208 .04598999 .31999208 .08496094V.67367556L.31498719 .6796875 .10899353 .6446991V.6197052L.20199585 .6087036C.21899414 .6067047 .22599793 .5987091 .22599793 .56973269V.08496094C.22599793 .065979007 .22299195 .053985597 .21699524 .04698181 .21199036 .039993287 .20399475 .036987306 .19299317 .035995485L.10899353 .0289917V0H.43699647Z"/>
</defs>
<path transform="matrix(1.00006,0,0,-1.00009,86.53514,52.026334)" stroke-width=".79701" stroke-linecap="butt" stroke-miterlimit="10" stroke-linejoin="miter" fill="none" stroke="#000000" d="M-85.04042 0H84.33305"/>
<path transform="matrix(1.00006,0,0,-1.00009,170.87326,52.026334)" stroke-width=".6376" stroke-linecap="round" stroke-linejoin="round" fill="none" stroke="#000000" d="M-1.55415 2.0722C-1.42464 1.29512 0 .1295 .38852 0 0-.1295-1.42464-1.29512-1.55415-2.0722"/>
<use data-text="t" xlink:href="#font_1_1" transform="matrix(10.037002,0,0,-10.037303,175.39847,55.075609)"/>
<path transform="matrix(1.00006,0,0,-1.00009,86.53514,52.026334)" stroke-width=".79701" stroke-linecap="butt" stroke-miterlimit="10" stroke-linejoin="miter" fill="none" stroke="#000000" d="M0-14.17339V50.31696"/>
<path transform="matrix(0,-1.00009,-1.00006,-0,86.53514,1.7048454)" stroke-width=".6376" stroke-linecap="round" stroke-linejoin="round" fill="none" stroke="#000000" d="M-1.55415 2.0722C-1.42464 1.29512 0 .1295 .38852 0 0-.1295-1.42464-1.29512-1.55415-2.0722"/>
<path transform="matrix(1.00006,0,0,-1.00009,86.53514,52.026334)" stroke-width=".19925" stroke-linecap="butt" stroke-miterlimit="10" stroke-linejoin="miter" fill="none" stroke="#929292" d="M-85.04042 0H85.04042M-85.04042 28.3468H85.04042M-85.04042-14.17339V42.5202M-56.69362-14.17339V42.5202M-28.3468-14.17339V42.5202M0-14.17339V42.5202M28.3468-14.17339V42.5202M56.69362-14.17339V42.5202M85.03047-14.17339V42.5202M85.04042 42.5202"/>
<path transform="matrix(1.00006,0,0,-1.00009,86.53514,52.026334)" stroke-width="1.19553" stroke-linecap="butt" stroke-miterlimit="10" stroke-linejoin="miter" fill="none" stroke="#0000ff" d="M-85.04042 0H-56.69362"/>
<path transform="matrix(1.00006,0,0,-1.00009,86.53514,52.026334)" stroke-width=".3985" stroke-linecap="butt" stroke-dasharray="2.98883,2.98883" stroke-miterlimit="10" stroke-linejoin="miter" fill="none" stroke="#0000ff" d="M-56.69362 0V28.3468"/>
<path transform="matrix(1.00006,0,0,-1.00009,86.53514,52.026334)" stroke-width="1.19553" stroke-linecap="butt" stroke-miterlimit="10" stroke-linejoin="miter" fill="none" stroke="#0000ff" d="M-56.69362 28.3468H85.04042"/>
<path transform="matrix(1.00006,0,0,-1.00009,86.53514,52.026334)" stroke-width=".3985" stroke-linecap="butt" stroke-miterlimit="10" stroke-linejoin="miter" fill="none" stroke="#0000ff" d="M-28.3468 28.3468"/>
<use data-text="u" xlink:href="#font_1_2" transform="matrix(10.037002,0,0,-10.037303,44.045595,18.641327)" fill="#0000ff"/>
<use data-text="&#x2212;" xlink:href="#font_2_1" transform="matrix(7.6079566,0,0,-7.608185,50.580995,20.278473)" fill="#0000ff"/>
<use data-text="2" xlink:href="#font_3_4" transform="matrix(7.6079566,0,0,-7.608185,56.05533,20.278473)" fill="#0000ff"/>
<use data-text="(" xlink:href="#font_3_1" transform="matrix(10.037002,0,0,-10.037303,60.588594,18.641327)" fill="#0000ff"/>
<use data-text="t" xlink:href="#font_1_1" transform="matrix(10.037002,0,0,-10.037303,64.319828,18.641327)" fill="#0000ff"/>
<use data-text=")" xlink:href="#font_3_2" transform="matrix(10.037002,0,0,-10.037303,68.815097,18.641327)" fill="#0000ff"/>
<path transform="matrix(1.00006,0,0,-1.00009,86.53514,52.026334)" d="M-54.42583 0C-54.42583 1.25247-55.44113 2.26778-56.69362 2.26778-57.94609 2.26778-58.9614 1.25247-58.9614 0-58.9614-1.25247-57.94609-2.26778-56.69362-2.26778-55.44113-2.26778-54.42583-1.25247-54.42583 0ZM-56.69362 0" fill="#ffffff"/>
<path transform="matrix(1.00006,0,0,-1.00009,86.53514,52.026334)" stroke-width=".3985" stroke-linecap="butt" stroke-miterlimit="10" stroke-linejoin="miter" fill="none" stroke="#000000" d="M-54.42583 0C-54.42583 1.25247-55.44113 2.26778-56.69362 2.26778-57.94609 2.26778-58.9614 1.25247-58.9614 0-58.9614-1.25247-57.94609-2.26778-56.69362-2.26778-55.44113-2.26778-54.42583-1.25247-54.42583 0ZM-56.69362 0"/>
<use data-text="&#x2212;" xlink:href="#font_2_1" transform="matrix(10.037002,0,0,-10.037303,23.565369,62.146245)"/>
<use data-text="2" xlink:href="#font_3_4" transform="matrix(10.037002,0,0,-10.037303,30.787812,62.146245)"/>
<path transform="matrix(1.00006,0,0,-1.00009,86.53514,52.026334)" d="M-54.42583 28.3468C-54.42583 29.59927-55.44113 30.6146-56.69362 30.6146-57.94609 30.6146-58.9614 29.59927-58.9614 28.3468-58.9614 27.09433-57.94609 26.07901-56.69362 26.07901-55.44113 26.07901-54.42583 27.09433-54.42583 28.3468ZM-56.69362 28.3468" fill="#0000ff"/>
<path transform="matrix(1.00006,0,0,-1.00009,86.53514,52.026334)" stroke-width=".3985" stroke-linecap="butt" stroke-miterlimit="10" stroke-linejoin="miter" fill="none" stroke="#0000ff" d="M-54.42583 28.3468C-54.42583 29.59927-55.44113 30.6146-56.69362 30.6146-57.94609 30.6146-58.9614 29.59927-58.9614 28.3468-58.9614 27.09433-57.94609 26.07901-56.69362 26.07901-55.44113 26.07901-54.42583 27.09433-54.42583 28.3468ZM-56.69362 28.3468"/>
<use data-text="1" xlink:href="#font_3_3" transform="matrix(10.037002,0,0,-10.037303,21.11522,27.037085)" fill="#0000ff"/>
<path transform="matrix(1.00006,0,0,-1.00009,86.53514,52.026334)" stroke-width="1.19553" stroke-linecap="butt" stroke-miterlimit="10" stroke-linejoin="miter" fill="none" stroke="#ff8000" d="M-85.04042 0H28.3468"/>
<path transform="matrix(1.00006,0,0,-1.00009,86.53514,52.026334)" stroke-width=".3985" stroke-linecap="butt" stroke-dasharray="2.98883,2.98883" stroke-miterlimit="10" stroke-linejoin="miter" fill="none" stroke="#ff8000" d="M28.3468 0V28.3468"/>
<path transform="matrix(1.00006,0,0,-1.00009,86.53514,52.026334)" stroke-width="1.19553" stroke-linecap="butt" stroke-miterlimit="10" stroke-linejoin="miter" fill="none" stroke="#ff8000" d="M28.3468 28.3468H85.04042"/>
<path transform="matrix(1.00006,0,0,-1.00009,86.53514,52.026334)" stroke-width=".3985" stroke-linecap="butt" stroke-miterlimit="10" stroke-linejoin="miter" fill="none" stroke="#ff8000" d="M56.69362 28.3468"/>
<use data-text="u" xlink:href="#font_1_2" transform="matrix(10.037002,0,0,-10.037303,131.82785,34.178728)" fill="#ff8000"/>
<use data-text="1" xlink:href="#font_3_3" transform="matrix(7.6079566,0,0,-7.608185,138.36325,35.815874)" fill="#ff8000"/>
<use data-text="(" xlink:href="#font_3_1" transform="matrix(10.037002,0,0,-10.037303,142.89655,34.178728)" fill="#ff8000"/>
<use data-text="t" xlink:href="#font_1_1" transform="matrix(10.037002,0,0,-10.037303,146.62778,34.178728)" fill="#ff8000"/>
<use data-text=")" xlink:href="#font_3_2" transform="matrix(10.037002,0,0,-10.037303,151.12302,34.178728)" fill="#ff8000"/>
<path transform="matrix(1.00006,0,0,-1.00009,86.53514,52.026334)" d="M30.6146 0C30.6146 1.25247 29.59927 2.26778 28.3468 2.26778 27.09433 2.26778 26.07901 1.25247 26.07901 0 26.07901-1.25247 27.09433-2.26778 28.3468-2.26778 29.59927-2.26778 30.6146-1.25247 30.6146 0ZM28.3468 0" fill="#ffffff"/>
<path transform="matrix(1.00006,0,0,-1.00009,86.53514,52.026334)" stroke-width=".3985" stroke-linecap="butt" stroke-miterlimit="10" stroke-linejoin="miter" fill="none" stroke="#000000" d="M30.6146 0C30.6146 1.25247 29.59927 2.26778 28.3468 2.26778 27.09433 2.26778 26.07901 1.25247 26.07901 0 26.07901-1.25247 27.09433-2.26778 28.3468-2.26778 29.59927-2.26778 30.6146-1.25247 30.6146 0ZM28.3468 0"/>
<use data-text="1" xlink:href="#font_3_3" transform="matrix(10.037002,0,0,-10.037303,112.22168,62.146245)"/>
<path transform="matrix(1.00006,0,0,-1.00009,86.53514,52.026334)" d="M30.6146 28.3468C30.6146 29.59927 29.59927 30.6146 28.3468 30.6146 27.09433 30.6146 26.07901 29.59927 26.07901 28.3468 26.07901 27.09433 27.09433 26.07901 28.3468 26.07901 29.59927 26.07901 30.6146 27.09433 30.6146 28.3468ZM28.3468 28.3468" fill="#ff8000"/>
<path transform="matrix(1.00006,0,0,-1.00009,86.53514,52.026334)" stroke-width=".3985" stroke-linecap="butt" stroke-miterlimit="10" stroke-linejoin="miter" fill="none" stroke="#ff8000" d="M30.6146 28.3468C30.6146 29.59927 29.59927 30.6146 28.3468 30.6146 27.09433 30.6146 26.07901 29.59927 26.07901 28.3468 26.07901 27.09433 27.09433 26.07901 28.3468 26.07901 29.59927 26.07901 30.6146 27.09433 30.6146 28.3468ZM28.3468 28.3468"/>
<use data-text="1" xlink:href="#font_3_3" transform="matrix(10.037002,0,0,-10.037303,106.16032,27.037085)" fill="#ff8000"/>
</svg>
