<svg xmlns="http://www.w3.org/2000/svg" xmlns:xlink="http://www.w3.org/1999/xlink" version="1.1" width="129" height="76" viewBox="0 0 129 76">
<defs>
<path id="font_1_2" d="M.42799378 .45222474 .43899537 .49023438H.31199647L.34599305 .6092224 .33399964 .6162262 .23699951 .53923037 .22399903 .49023438H.14299011L.13198853 .45222474H.21499634L.125 .08627319C.10998535 .029266358 .12199402-.01171875 .17199707-.01171875 .2519989-.01171875 .31599427 .054275514 .35598756 .1292572L.33399964 .1462555C.31098939 .10726929 .2599945 .040267946 .22898865 .040267946 .20799256 .040267946 .20799256 .0632782 .21398926 .088272098L.30299378 .45222474H.42799378Z"/>
<path id="font_1_3" d="M.5069885 .1381836C.48298646 .0932312 .45599366 .040267946 .42799378 .040267946 .40899659 .040267946 .40098573 .06324768 .3789978 .1521759L.34700013 .2830658C.3829956 .34701539 .43399049 .42694093 .46299745 .42694093 .47200013 .42694093 .47999574 .42494203 .4909973 .4189453 .5009918 .4149475 .5109863 .4109497 .522995 .4109497 .54499819 .4109497 .56599429 .4319458 .56599429 .4589386 .56599429 .48994447 .54299929 .5019531 .5149994 .5019531 .46199037 .5019531 .4169922 .45394898 .38198854 .39796449L.33799745 .33003236H.33599855L.29599 .49794007 .2899933 .5019531 .125 .45195008 .12799073 .427948 .20298767 .43295289C.22099304 .4339447 .22799683 .42893983 .23899842 .38298036L.2749939 .2381134 .24699402 .19015503C.20399475 .11723328 .16699219 .0652771 .14299011 .0652771 .1329956 .0652771 .12298584 .0692749 .11399841 .07426453 .10398865 .07926941 .09098816 .089279178 .07398987 .089279178 .04798889 .089279178 .0309906 .0632782 .0309906 .039276124 .0309906 .010269165 .054992677-.01171875 .09498596-.01171875 .16299439-.01171875 .20199585 .056259157 .24299622 .12319946L.2829895 .18914795H.2849884L.30299378 .111206058C.32199098 .031280519 .34098817-.01171875 .3919983-.01171875 .46499635-.01171875 .5029907 .06324768 .5329895 .12420654L.5069885 .1381836Z"/>
<path id="font_2_1" d="M.1749878 .2822113C.1749878 .56832888 .2619934 .65437319 .32499696 .66737368V.6923828C.1499939 .685379 .10499573 .46829225 .10499573 .2822113 .10499573 .09614563 .1499939-.12094116 .32499696-.12792969V-.10293579C.2669983-.090927127 .1749878-.0059051516 .1749878 .2822113Z"/>
<path id="font_2_2" d="M.1749878 .2822113C.1749878-.0059051516 .08299255-.090927127 .024993897-.10293579V-.12792969C.19999695-.12094116 .24499512 .09614563 .24499512 .2822113 .24499512 .46829225 .19999695 .685379 .024993897 .6923828V.66737368C.08799744 .65437319 .1749878 .56832888 .1749878 .2822113Z"/>
<path id="font_2_3" d="M.069992069-.140625C.11999512-.09362793 .19299317-.027633667 .19299317 .051361085 .19299317 .10636902 .1599884 .1423645 .125 .14137268 .09399414 .14137268 .07598877 .117370609 .07598877 .09136963 .07598877 .055374147 .10899353 .037368776 .10899353-.005630493 .10899353-.04663086 .08299255-.086639408 .050994874-.12162781L.069992069-.140625Z"/>
<path id="font_1_4" d="M.070999149 .45393373 .07398987 .42893983 .14199829 .43093873C.1639862 .43193055 .16899109 .41493226 .1769867 .36291505 .18798828 .28489686 .20999146 .09286499 .20999146 .0128479 .20999146-.017166138 .20799256-.058166505 .18598938-.11117554 .16799927-.15318299 .14199829-.18218994 .12199402-.18218994 .10699463-.18218994 .09599304-.17118836 .08099365-.15118408 .068984989-.13517761 .06098938-.127182 .04598999-.127182 .019989014-.12818909-.005004883-.15818787-.005004883-.18719483-.005004883-.21418762 .023986817-.2421875 .067993167-.2421875 .15299988-.2421875 .18998719-.17919922 .27799989-.027160645 .2979889 .0068511965 .35798646 .11286926 .41999818 .21488953 .47698976 .30891419 .5399933 .40592958 .5399933 .4459381 .5399933 .48094178 .5289917 .5019531 .5219879 .5019531 .5029907 .5019531 .46899415 .49394227 .44400025 .47694398 .44499208 .4419403 .44299317 .3809204 .43099977 .33891297 .4149933 .28289796 .35598756 .17488098 .2899933 .06085205H.2869873C.27999879 .21388245 .26098634 .42492677 .24699402 .49795533L.23899842 .5019531 .070999149 .45393373Z"/>
<path id="font_3_2" d="M.6349945 .14315796V.20117188H.084991458V.14315796H.6349945M.6349945 .36288453V.42089845H.084991458V.36288453H.6349945Z"/>
<path id="font_2_4" d="M.2649994 .64468386C.3600006 .64468386 .3869934 .49682618 .3869934 .33398438 .3869934 .17112732 .3600006 .023269654 .2649994 .023269654 .16999817 .023269654 .14299011 .17112732 .14299011 .33398438 .14299011 .49682618 .16999817 .64468386 .2649994 .64468386M.2649994 .6796875C.099990848 .6796875 .040985109 .53378298 .040985109 .33398438 .040985109 .13417053 .099990848-.01171875 .2649994-.01171875 .42999269-.01171875 .4889984 .13417053 .4889984 .33398438 .4889984 .53378298 .42999269 .6796875 .2649994 .6796875Z"/>
<path id="font_1_1" d="M.43499757 .15118408C.39898683 .10421753 .34498597 .03727722 .269989 .03727722 .19999695 .03727722 .1789856 .097229007 .1789856 .17616272 .1789856 .1811676 .1789856 .1851654 .17999268 .19215393 .34799195 .22613526 .42099 .26609803 .46398927 .30607606 .49899293 .3410492 .5059967 .37402345 .5059967 .4019928 .5059967 .45495606 .46398927 .5019531 .38198854 .5019531 .2919922 .5019531 .21798706 .45596314 .16299439 .3880005 .10998535 .32305909 .07998657 .23612976 .07998657 .15219116 .07998657 .012268066 .17098999-.01171875 .22898865-.01171875 .3019867-.01171875 .3899994 .02027893 .45799256 .13119507L.43499757 .15118408M.18199158 .22613526C.19898987 .3470459 .27398683 .46694947 .35398866 .46694947 .3889923 .46694947 .4119873 .44296266 .4119873 .4079895 .4119873 .3380432 .35099793 .26210023 .18199158 .22613526Z"/>
<path id="font_3_1" d="M.6349945 .2529297V.31092835H.084991458V.2529297H.6349945Z"/>
<path id="font_2_5" d="M.4850006 .13195801 .45700074 .13696289C.43598939 .08299255 .41600038 .07598877 .37599183 .07598877H.11999512C.13598633 .1279602 .19499207 .19892884 .28799439 .2658844 .38398744 .33584596 .45799256 .38082887 .45799256 .49276734 .45799256 .63168337 .3659973 .6796875 .26098634 .6796875 .12399292 .6796875 .052993776 .5967102 .052993776 .54473879 .052993776 .51075747 .09098816 .49476625 .10798645 .49476625 .12599182 .49476625 .1329956 .50476077 .13699341 .5217438 .15299988 .5897064 .19198609 .64468386 .2539978 .64468386 .33099366 .64468386 .35299684 .5797119 .35299684 .50675967 .35299684 .3998108 .29899598 .33984376 .21199036 .26289369 .08898926 .15594483 .04598999 .08798218 .026992798 .009994507L.036987306 0H.45098878L.4850006 .13195801Z"/>
</defs>
<path transform="matrix(1.00006,0,0,-1.00006,20.827385,70.46351)" stroke-width=".3985" stroke-linecap="butt" stroke-miterlimit="10" stroke-linejoin="miter" fill="none" stroke="#000000" d="M-4.53543 0H49.49197"/>
<path transform="matrix(1.00006,0,0,-1.00006,70.52161,70.46351)" stroke-width=".3985" stroke-linecap="round" stroke-linejoin="round" fill="none" stroke="#000000" d="M-2.07224 2.39104C-1.69365 .95639-.84999 .27895 0 0-.84999-.27895-1.69365-.95639-2.07224-2.39104"/>
<use data-text="t" xlink:href="#font_1_2" transform="matrix(10.037002,0,0,-10.037002,74.3376,73.512699)"/>
<path transform="matrix(1.00006,0,0,-1.00006,20.827385,70.46351)" stroke-width=".3985" stroke-linecap="butt" stroke-miterlimit="10" stroke-linejoin="miter" fill="none" stroke="#000000" d="M0-4.53543V56.2953"/>
<path transform="matrix(0,-1.00006,-1.00006,-0,20.827385,13.965572)" stroke-width=".3985" stroke-linecap="round" stroke-linejoin="round" fill="none" stroke="#000000" d="M-2.07224 2.39104C-1.69365 .95639-.84999 .27895 0 0-.84999-.27895-1.69365-.95639-2.07224-2.39104"/>
<use data-text="x" xlink:href="#font_1_3" transform="matrix(10.037002,0,0,-10.037002,1.3112183,7.90176)"/>
<use data-text="(" xlink:href="#font_2_1" transform="matrix(10.037002,0,0,-10.037002,7.1915667,7.90176)"/>
<use data-text="t" xlink:href="#font_1_2" transform="matrix(10.037002,0,0,-10.037002,10.922791,7.90176)"/>
<use data-text=")" xlink:href="#font_2_2" transform="matrix(10.037002,0,0,-10.037002,15.418068,7.90176)"/>
<use data-text="," xlink:href="#font_2_3" transform="matrix(10.037002,0,0,-10.037002,18.931015,7.90176)"/>
<use data-text="y" xlink:href="#font_1_4" transform="matrix(10.037002,0,0,-10.037002,23.204537,7.90176)"/>
<use data-text="(" xlink:href="#font_2_1" transform="matrix(10.037002,0,0,-10.037002,28.823876,7.90176)"/>
<use data-text="t" xlink:href="#font_1_2" transform="matrix(10.037002,0,0,-10.037002,32.5541,7.90176)"/>
<use data-text=")" xlink:href="#font_2_2" transform="matrix(10.037002,0,0,-10.037002,37.049379,7.90176)"/>
<path transform="matrix(1.00006,0,0,-1.00006,20.827385,70.46351)" stroke-width=".79701" stroke-linecap="butt" stroke-miterlimit="10" stroke-linejoin="miter" fill="none" stroke="#0000ff" d="M-4.53543 16.61848-2.26787 15.03714-.00032 13.60663 2.26718 12.31387 4.53473 11.14221 6.80228 10.08195 9.06981 9.1224 11.33736 8.25562 13.6049 7.46873 15.87245 6.75832 18.14 6.11574 20.40755 5.53336 22.67508 5.0067 24.94264 4.53056 27.21017 4.09908 29.47772 3.7084 31.74529 3.35616 34.0128 3.03606 36.28036 2.74747 38.54791 2.48622 40.81546 2.24954 43.08301 2.03569 45.35056 1.84123 47.61809 1.66544 49.88564 1.50763"/>
<use data-text="x" xlink:href="#font_1_3" transform="matrix(10.037002,0,0,-10.037002,74.53261,72.44163)" fill="#0000ff"/>
<use data-text="(" xlink:href="#font_2_1" transform="matrix(10.037002,0,0,-10.037002,80.412967,72.44163)" fill="#0000ff"/>
<use data-text="t" xlink:href="#font_1_2" transform="matrix(10.037002,0,0,-10.037002,84.14418,72.44163)" fill="#0000ff"/>
<use data-text=")" xlink:href="#font_2_2" transform="matrix(10.037002,0,0,-10.037002,88.639469,72.44163)" fill="#0000ff"/>
<use data-text="=" xlink:href="#font_3_2" transform="matrix(10.037002,0,0,-10.037002,94.01878,72.44163)" fill="#0000ff"/>
<use data-text="x" xlink:href="#font_1_3" transform="matrix(10.037002,0,0,-10.037002,103.32634,72.44163)" fill="#0000ff"/>
<use data-text="0" xlink:href="#font_2_4" transform="matrix(7.6079566,0,0,-7.6079566,108.83566,74.07773)" fill="#0000ff"/>
<use data-text="e" xlink:href="#font_1_1" transform="matrix(10.037002,0,0,-10.037002,113.36894,72.44163)" fill="#0000ff"/>
<use data-text="&#x2212;" xlink:href="#font_3_1" transform="matrix(7.6079566,0,0,-7.6079566,118.64926,68.48139)" fill="#0000ff"/>
<use data-text="t" xlink:href="#font_1_2" transform="matrix(7.6079566,0,0,-7.6079566,124.2896,68.48139)" fill="#0000ff"/>
<path transform="matrix(1.00006,0,0,-1.00006,20.827385,70.46351)" stroke-width=".79701" stroke-linecap="butt" stroke-miterlimit="10" stroke-linejoin="miter" fill="none" stroke="#ff0000" d="M-4.53543 43.9768-2.26787 36.007-.00032 29.48119 2.26718 24.14157 4.53473 19.76808 6.80228 16.18561 9.06981 13.25125 11.33736 10.84808 13.6049 8.88158 15.87245 7.27148 18.14 5.95311 20.40755 4.87384 22.67508 3.98936 24.94264 3.26686 27.21017 2.67412 29.47772 2.1907 31.74529 1.79243 34.0128 1.46819 36.28036 1.19968 38.54791 .98132 40.81546 .80449 43.08301 .65709 45.35056 .5391 47.61809 .44186 49.88564 .35916"/>
<use data-text="y" xlink:href="#font_1_4" transform="matrix(10.037002,0,0,-10.037002,42.29368,64.04012)" fill="#ff0000"/>
<use data-text="(" xlink:href="#font_2_1" transform="matrix(10.037002,0,0,-10.037002,47.912019,64.04012)" fill="#ff0000"/>
<use data-text="t" xlink:href="#font_1_2" transform="matrix(10.037002,0,0,-10.037002,51.64325,64.04012)" fill="#ff0000"/>
<use data-text=")" xlink:href="#font_2_2" transform="matrix(10.037002,0,0,-10.037002,56.13752,64.04012)" fill="#ff0000"/>
<use data-text="=" xlink:href="#font_3_2" transform="matrix(10.037002,0,0,-10.037002,61.517839,64.04012)" fill="#ff0000"/>
<use data-text="y" xlink:href="#font_1_4" transform="matrix(10.037002,0,0,-10.037002,71.15142,64.04012)" fill="#ff0000"/>
<use data-text="0" xlink:href="#font_2_4" transform="matrix(7.6079566,0,0,-7.6079566,76.290729,65.67622)" fill="#ff0000"/>
<use data-text="e" xlink:href="#font_1_1" transform="matrix(10.037002,0,0,-10.037002,80.824008,64.04012)" fill="#ff0000"/>
<use data-text="&#x2212;" xlink:href="#font_3_1" transform="matrix(7.6079566,0,0,-7.6079566,86.10431,60.079889)" fill="#ff0000"/>
<use data-text="2" xlink:href="#font_2_5" transform="matrix(7.6079566,0,0,-7.6079566,91.57864,60.079889)" fill="#ff0000"/>
<use data-text="t" xlink:href="#font_1_2" transform="matrix(7.6079566,0,0,-7.6079566,95.77989,60.079889)" fill="#ff0000"/>
</svg>
