<svg xmlns="http://www.w3.org/2000/svg" xmlns:xlink="http://www.w3.org/1999/xlink" version="1.1" width="130" height="58" viewBox="0 0 130 58">
<defs>
<path id="font_1_2" d="M.42799378 .45222474 .43899537 .49023438H.31199647L.34599305 .6092224 .33399964 .6162262 .23699951 .53923037 .22399903 .49023438H.14299011L.13198853 .45222474H.21499634L.125 .08627319C.10998535 .029266358 .12199402-.01171875 .17199707-.01171875 .2519989-.01171875 .31599427 .054275514 .35598756 .1292572L.33399964 .1462555C.31098939 .10726929 .2599945 .040267946 .22898865 .040267946 .20799256 .040267946 .20799256 .0632782 .21398926 .088272098L.30299378 .45222474H.42799378Z"/>
<path id="font_2_1" d="M.15699768 .46417237 .19198609 .68917849C.19699097 .72517397 .18399048 .7421875 .14698792 .7421875 .10998535 .7421875 .09700012 .72517397 .101989749 .68917849L.13699341 .46417237H.15699768M.32199098 .46417237 .35699464 .68917849C.3619995 .72517397 .34899903 .7421875 .31199647 .7421875 .2749939 .7421875 .2619934 .72517397 .2669983 .68917849L.3019867 .46417237H.32199098Z"/>
<path id="font_2_7" d="M.3809967 .6720276C.5589905 .6720276 .59999087 .4931183 .60198977 .3461914 .59999087 .19924927 .5589905 .020339966 .3809967 .020339966 .20298767 .020339966 .1619873 .19924927 .1599884 .3461914 .1619873 .4931183 .20298767 .6720276 .3809967 .6720276M.3809967 .70703127C.2709961 .70703127 .18899536 .6730194 .1329956 .61006167 .07899475 .55007937 .04798889 .4591217 .04798889 .3461914 .04798889 .23423767 .07899475 .14228821 .1329956 .08232117 .18899536 .019348145 .2709961-.0146484379 .3809967-.0146484379 .49198915-.0146484379 .57299807 .019348145 .6289978 .08232117 .6839905 .14228821 .71398928 .23423767 .71398928 .3461914 .71398928 .4591217 .6839905 .55007937 .6289978 .61006167 .57299807 .6730194 .49198915 .70703127 .3809967 .70703127Z"/>
<path id="font_2_10" d="M.20098877 .45022584H.32299806V.49023438H.20098877L.19699097 .60220339C.19400025 .6971741 .22898865 .70718386 .24499512 .70718386 .2659912 .70718386 .28799439 .6971741 .31298829 .6391907 .31799317 .62919619 .32499696 .6221924 .33999635 .6221924 .3600006 .6221924 .3889923 .6391907 .3889923 .66918948 .3889923 .70217898 .34700013 .7421875 .2669983 .7421875 .21199036 .7421875 .16499329 .71717837 .13999939 .67918398 .116989139 .64419558 .10699463 .5912018 .10699463 .5252228V.49023438H.02999878V.45022584H.10699463V.087020877C.10699463 .035995485 .10398865 .033996583 .03199768 .0289917V0H.29599V.0289917C.20498657 .032989503 .20098877 .034988405 .20098877 .08602905V.45022584Z"/>
<path id="font_2_4" d="M.2649994 .64468386C.3600006 .64468386 .3869934 .49682618 .3869934 .33398438 .3869934 .17112732 .3600006 .023269654 .2649994 .023269654 .16999817 .023269654 .14299011 .17112732 .14299011 .33398438 .14299011 .49682618 .16999817 .64468386 .2649994 .64468386M.2649994 .6796875C.099990848 .6796875 .040985109 .53378298 .040985109 .33398438 .040985109 .13417053 .099990848-.01171875 .2649994-.01171875 .42999269-.01171875 .4889984 .13417053 .4889984 .33398438 .4889984 .53378298 .42999269 .6796875 .2649994 .6796875Z"/>
<path id="font_2_6" d="M.6539917 .22418213C.6539917 .2741394 .6589966 .27912904 .72499087 .2861328V.3151245H.44898988V.2861328C.5499878 .27912904 .5549927 .27313233 .5549927 .22418213V.08929443C.5549927 .05432129 .5419922 .043319704 .5209961 .035339357 .49499513 .025344849 .46699525 .020339966 .43299867 .020339966 .20298767 .020339966 .1599884 .22418213 .1599884 .3491211 .1599884 .5070648 .22299195 .6720276 .41999818 .6720276 .5299988 .6720276 .59399417 .6220398 .61499026 .5090637H.644989V.6660309C.59599307 .6900177 .5099945 .70703127 .42999269 .70703127 .27999879 .70703127 .17999268 .6580353 .12298584 .5840454 .07199097 .5170746 .04798889 .437088 .04798889 .33311463 .04798889 .20419312 .09899902 .10127258 .17199707 .049316408 .24798584-.0036621094 .33599855-.0146484379 .42399598-.0146484379 .49398805-.0146484379 .59098818 .0073394777 .6539917 .02734375V.22418213Z"/>
<path id="font_2_17" d="M.18899536 .5019531 .036987306 .47694398V.45195008L.07499695 .4469452C.100997928 .4429474 .10699463 .4379425 .10699463 .40194703V.08699036C.10699463 .035995485 .101989749 .033996583 .03199768 .0289917V0H.29599V.0289917C.20698548 .033996583 .20098877 .035995485 .20098877 .08699036V.32095338C.20098877 .39794923 .23498535 .4239502 .2579956 .4239502 .27398683 .4239502 .29100038 .4179535 .31999208 .40194703 .32699586 .39794923 .33499146 .39694215 .33999635 .39694215 .3639984 .39694215 .38598634 .4219513 .38598634 .4529419 .38598634 .47494508 .37199403 .5019531 .33299256 .5019531 .29699708 .5019531 .2669983 .47994996 .20098877 .4219513L.18899536 .5019531Z"/>
<path id="font_2_8" d="M.34298707 .14318848C.34298707 .06225586 .2809906 .041275026 .24198914 .041275026 .17999268 .041275026 .1499939 .085235599 .1499939 .14419556 .1499939 .19116211 .17199707 .21513367 .22799683 .23612976 .2679901 .2511139 .32099916 .27009584 .34298707 .28408814V.14318848M.43299867 .36901856C.43299867 .42697145 .41999818 .5019531 .2689972 .5019531 .1559906 .5019531 .066986087 .44296266 .066986087 .3880005 .066986087 .35603334 .10398865 .3410492 .12298584 .3410492 .14399719 .3410492 .1499939 .35203553 .15499878 .36901856 .1769867 .44296266 .21798706 .46694947 .2579956 .46694947 .29699708 .46694947 .34298707 .44696046 .34298707 .36701966V.32505799C.31799317 .29907228 .22099304 .27409364 .14199829 .24911499 .069992069 .22712708 .04899597 .1771698 .04899597 .13020325 .04899597 .055267335 .09899902-.01171875 .19299317-.01171875 .25498963-.009719849 .30999757 .027267456 .34199525 .04826355 .35598756 .011276245 .37199403-.01171875 .40699769-.01171875 .44400025-.01171875 .4869995-.0007324219 .5249939 .01828003L.5189972 .042266847C.5049896 .039276124 .48298646 .03727722 .46798707 .041275026 .44999696 .045272829 .43299867 .06425476 .43299867 .12721253V.36901856Z"/>
<path id="font_2_16" d="M.19400025 .32104493C.19400025 .34602357 .19799805 .36001588 .20698548 .37800599 .22999573 .42396546 .272995 .44795228 .32598878 .44795228 .3659973 .44795228 .45498658 .42196656 .45498658 .25009156 .45498658 .10321045 .40899659 .023269654 .30899049 .023269654 .25698854 .023269654 .21699524 .050247194 .20098877 .096221927 .19499207 .11419678 .19400025 .13418579 .19400025 .15716553V.32104493M.02999878 .47694398V.45195008L.067993167 .4469452C.09399414 .4429474 .099990848 .43795777 .099990848 .40197755V-.14324951C.099990848-.19444275 .09498596-.19645691 .024993897-.20147705V-.23046875H.28399659V-.20147705C.19999695-.19645691 .19400025-.19444275 .19400025-.14324951V.011276245C.21499634-.0007324219 .2619934-.01171875 .30799867-.01171875 .44299317-.01171875 .5589905 .050247194 .5589905 .25608827 .5589905 .32704164 .54599 .5019531 .3639984 .5019531 .29100038 .5019531 .23298645 .4529419 .19400025 .42796327L.18099976 .5019531 .02999878 .47694398Z"/>
<path id="font_2_11" d="M.5169983 .34295655C.5169983 .4439392 .46199037 .5019531 .36898805 .5019531 .29599 .5019531 .25099183 .46794129 .18798828 .4259491V.73617556L.18099976 .7421875 .024993897 .7171478V.6921234L.06298828 .68711856C.08898926 .6831207 .09498596 .67811587 .09498596 .6420746V.08699036C.09599304 .037994386 .09098816 .033996583 .020996094 .0289917V0H.2639923V.0289917C.19499207 .033996583 .18899536 .037994386 .18899536 .08699036V.32095338C.18899536 .34596253 .18998719 .35995484 .19799805 .37495423 .21899414 .4149475 .2649994 .44795228 .31799317 .44795228 .38598634 .44795228 .4229889 .40994264 .4229889 .32295228V.08699036C.4229889 .037994386 .41799928 .033996583 .34799195 .0289917V0H.59199526V.0289917C.522995 .033996583 .5169983 .037994386 .5169983 .08699036V.34295655Z"/>
<path id="font_2_15" d="M.28799439 .5019531C.12799073 .5019531 .04899597 .40698243 .04899597 .24510193 .04899597 .083236698 .12799073-.01171875 .28799439-.01171875 .44999696-.01171875 .5279999 .083236698 .5279999 .24510193 .5279999 .40698243 .44999696 .5019531 .28799439 .5019531M.15299988 .24510193C.15299988 .38301087 .19699097 .46694947 .28799439 .46694947 .3809967 .46694947 .42399598 .38301087 .42399598 .24510193 .42399598 .10720825 .3809967 .023269654 .28799439 .023269654 .19699097 .023269654 .15299988 .10720825 .15299988 .24510193Z"/>
<path id="font_1_1" d="M.33999635 .46694947C.36999513 .46694947 .41999818 .4519348 .41999818 .38290406 .41999818 .28987123 .37199403 .21484375 .29699708 .21484375 .24398804 .21484375 .21398926 .2508545 .21398926 .3008728 .21398926 .36390687 .24499512 .46694947 .33999635 .46694947M.45700074 .4719391C.43099977 .48895265 .38198854 .5019531 .33299256 .5019531 .16899109 .5019531 .11999512 .38891603 .11999512 .31788636 .11999512 .24385071 .17399597 .20584107 .20399475 .19483948V.19284058C.17298889 .17984009 .11299133 .15783692 .11299133 .11782837 .11299133 .08482361 .14299011 .061828615 .18399048 .04283142V.04081726C.115997318 .028823853 .02999878-.013183594 .02999878-.096191409 .02999878-.18519593 .12298584-.2421875 .25-.2421875 .3849945-.2421875 .49398805-.18519593 .49398805-.07518005 .49398805-.00018310547 .43699647 .05381775 .31900025 .081832889 .23498535 .1018219 .19799805 .11582947 .19799805 .14382935 .19799805 .16282654 .21798706 .1768341 .24198914 .18283081 .2619934 .17984009 .2809906 .17984009 .29599 .17984009 .43499757 .17984009 .5119934 .25585938 .5119934 .35890199 .5119934 .38591004 .5039978 .4109192 .4909973 .42793275L.57499697 .4399414 .60798647 .50294497 .60198977 .51194766 .45700074 .4719391M.27198792-.2071991C.18499756-.2071991 .12199402-.15919495 .12199402-.08718872 .12199402-.015182495 .18699646 .018829346 .22799683 .02482605 .29100038 .015823365 .40899659-.010177612 .40899659-.094192508 .40899659-.17019654 .34700013-.2071991 .27198792-.2071991Z"/>
<path id="font_2_5" d="M.4850006 .13195801 .45700074 .13696289C.43598939 .08299255 .41600038 .07598877 .37599183 .07598877H.11999512C.13598633 .1279602 .19499207 .19892884 .28799439 .2658844 .38398744 .33584596 .45799256 .38082887 .45799256 .49276734 .45799256 .63168337 .3659973 .6796875 .26098634 .6796875 .12399292 .6796875 .052993776 .5967102 .052993776 .54473879 .052993776 .51075747 .09098816 .49476625 .10798645 .49476625 .12599182 .49476625 .1329956 .50476077 .13699341 .5217438 .15299988 .5897064 .19198609 .64468386 .2539978 .64468386 .33099366 .64468386 .35299684 .5797119 .35299684 .50675967 .35299684 .3998108 .29899598 .33984376 .21199036 .26289369 .08898926 .15594483 .04598999 .08798218 .026992798 .009994507L.036987306 0H.45098878L.4850006 .13195801Z"/>
<path id="font_2_2" d="M.1749878 .2822113C.1749878 .56832888 .2619934 .65437319 .32499696 .66737368V.6923828C.1499939 .685379 .10499573 .46829225 .10499573 .2822113 .10499573 .09614563 .1499939-.12094116 .32499696-.12792969V-.10293579C.2669983-.090927127 .1749878-.0059051516 .1749878 .2822113Z"/>
<path id="font_2_3" d="M.1749878 .2822113C.1749878-.0059051516 .08299255-.090927127 .024993897-.10293579V-.12792969C.19999695-.12094116 .24499512 .09614563 .24499512 .2822113 .24499512 .46829225 .19999695 .685379 .024993897 .6923828V.66737368C.08799744 .65437319 .1749878 .56832888 .1749878 .2822113Z"/>
<path id="font_2_12" d="M.036987306 .47694398V.45195008L.07499695 .4469452C.100997928 .4429474 .10699463 .43795777 .10699463 .40194703V.08699036C.10699463 .035995485 .10398865 .033996583 .03199768 .0289917V0H.27598573V.0289917C.20498657 .033996583 .20098877 .035995485 .20098877 .08699036V.49609376L.19400025 .5020752 .036987306 .47694398M.15299988 .71484377C.116989139 .71484377 .09199524 .6888428 .09199524 .65283206 .09199524 .61782839 .116989139 .5928345 .15299988 .5928345 .18998719 .5928345 .21299744 .61782839 .21398926 .65283206 .21398926 .6888428 .18998719 .71484377 .15299988 .71484377Z"/>
<path id="font_2_14" d="M.5289917 .34295655C.5289917 .4439392 .47399903 .5019531 .38198854 .5019531 .30799867 .5019531 .2619934 .46594239 .19999695 .4259491L.18598938 .5019531 .036987306 .47694398V.45195008L.07499695 .4469452C.100997928 .4429474 .10699463 .4379425 .10699463 .40194703V.08699036C.10699463 .035995485 .10398865 .033996583 .03199768 .0289917V0H.27598573V.0289917C.20498657 .033996583 .20098877 .035995485 .20098877 .08699036V.32095338C.20098877 .34596253 .20298767 .35995484 .21099854 .37594605 .23199463 .4149475 .2769928 .44795228 .32998658 .44795228 .397995 .44795228 .43499757 .40994264 .43499757 .32295228V.08699036C.43499757 .035995485 .43199159 .033996583 .3600006 .0289917V0H.60398867V.0289917C.5329895 .033996583 .5289917 .035995485 .5289917 .08699036V.34295655Z"/>
<path id="font_2_18" d="M.32598878 .45022584V.49023438H.19699097V.6162262H.16799927L.10699463 .49023438H.0309906V.45022584H.102996829V.102264408C.102996829 .0002746582 .1789856-.01171875 .21398926-.01171875 .2649994-.01171875 .31298829 .014266968 .34199525 .03227234L.33399964 .053268434C.30999757 .043273927 .28799439 .040267946 .2630005 .040267946 .22898865 .040267946 .19699097 .06427002 .19699097 .14025879V.45022584H.32598878Z"/>
<path id="font_2_9" d="M.44099427 .2627716C.46199037 .2627716 .48098756 .2677765 .48098756 .30078126 .48098756 .35983277 .46199037 .5019531 .2789917 .5019531 .12298584 .5019531 .04899597 .39086915 .04899597 .24082947 .04899597 .08317566 .116989139-.01373291 .27999879-.01171875 .3909912-.010726929 .44799806 .050247194 .47499085 .1290741L.44499208 .14503479C.4169922 .08717346 .3789978 .039276124 .2999878 .039276124 .17599488 .039276124 .15098572 .15901184 .15299988 .2627716H.44099427M.1539917 .30078126C.1539917 .34181214 .16899109 .46694947 .272995 .46694947 .3659973 .46694947 .3769989 .37184144 .3769989 .33280946 .3769989 .31378175 .37098695 .30078126 .34298707 .30078126H.1539917Z"/>
<path id="font_2_19" d="M.33898927 .49023438V.46122743L.3880005 .45622254C.4039917 .45422364 .40699769 .44322206 .40299989 .42921449 .394989 .39718629 .37599183 .3391571 .35299684 .27511598L.28599549 .08999634H.28399659L.22299195 .25810243C.20298767 .31513978 .18299866 .37316896 .1639862 .42721559 .15699768 .44622804 .16099549 .45422364 .17999268 .45622254L.22499085 .46122743V.49023438H.0009918213V.46122743C.04798889 .4572296 .056991579 .4532318 .07199097 .41619874 .09899902 .3501587 .12199402 .28511048 .14698792 .21607971L.22399903 0H.29599L.3849945 .24209595C.4139862 .32014466 .44299317 .3861847 .45700074 .41819764 .47200013 .4532318 .48298646 .45922853 .5289917 .46122743V.49023438H.33898927Z"/>
<path id="font_2_13" d="M.18899536 .7361908 .18199158 .7421875 .024993897 .71717837V.6921692L.06298828 .6881714C.08898926 .6851654 .09498596 .6801758 .09498596 .6421509V.087005618C.09498596 .035995485 .09199524 .033996583 .019989014 .0289917V0H.2639923V.0289917C.19299317 .033996583 .18899536 .035995485 .18899536 .087005618V.7361908Z"/>
</defs>
<path transform="matrix(1.00005,0,0,-1.00005,1.4913712,39.969198)" d="M31.89014-17.00813V38.26823H85.04042V-17.00813ZM85.04042 38.26823" fill="#bfdfbf"/>
<path transform="matrix(1.00005,0,0,-1.00005,1.4913712,39.969198)" stroke-width=".3985" stroke-linecap="butt" stroke-miterlimit="10" stroke-linejoin="miter" fill="none" stroke="#000000" d="M0 0H127.10236"/>
<path transform="matrix(1.00005,0,0,-1.00005,128.60009,39.969198)" stroke-width=".31879" stroke-linecap="round" stroke-linejoin="round" fill="none" stroke="#000000" d="M-1.19551 1.59401C-1.09587 .99626 0 .09961 .29886 0 0-.09961-1.09587-.99626-1.19551-1.59401"/>
<use data-text="t" xlink:href="#font_1_2" transform="matrix(9.166058,0,0,-9.166058,122.85343,36.49002)"/>
<path transform="matrix(1.00005,0,0,-1.00005,1.4913712,39.969198)" stroke-width=".19925" stroke-linecap="butt" stroke-dasharray="2.98883,2.98883" stroke-miterlimit="10" stroke-linejoin="miter" fill="none" stroke="#000000" d="M31.89014-17.00813V38.26823"/>
<path transform="matrix(1.00005,0,0,-1.00005,1.4913712,39.969198)" stroke-width=".19925" stroke-linecap="butt" stroke-dasharray="2.98883,2.98883" stroke-miterlimit="10" stroke-linejoin="miter" fill="none" stroke="#000000" d="M85.04042-17.00813V38.26823"/>
<path transform="matrix(1.00005,0,0,-1.00005,1.4913712,39.969198)" stroke-width="1.19553" stroke-linecap="butt" stroke-miterlimit="10" stroke-linejoin="miter" fill="none" stroke="#000000" d="M.9564 0H.3218 .6436 .96541 1.28722 1.60901 1.93083 2.25264 2.57445 2.89626 3.21806 3.53989 3.86168 4.18349 4.5053 4.8271 5.1489 5.47073 5.79254 6.11433 6.43614 6.75795 7.07977 7.40157 7.72337 8.0452 8.36699 8.68881 9.01062 9.33243 9.65422 9.97603 10.29784 10.61966 10.94147 11.26328 11.58508 11.90688 12.2287 12.5505 12.87231 13.1941 13.51593 13.83774 14.15955 14.48135 14.80316 15.12497 15.44676 15.76859 16.09041 16.4122 16.73401 17.05582 17.37764 17.69943 18.02124 18.34305 18.66486 18.98666 19.30849 19.6303 19.95209 20.2739 20.5957 20.91753 21.23933 21.56114 21.88295 22.20474 22.52655 22.84837 23.17018 23.49197 23.81378 24.1356 24.45741 24.77922 25.10103 25.42284 25.74463 26.06645 26.38826 26.71007 27.03188 27.35368 27.67549 27.9973 28.3191 28.64091 28.96272 29.28453 29.60635 29.92816 30.24995 30.57176 30.89357 31.21538 31.53719 31.85901"/>
<path transform="matrix(-1.00005,-0,0,1.00005,2.4478188,39.969198)" stroke-width=".9564" stroke-linecap="round" stroke-linejoin="round" fill="none" stroke="#000000" d="M-1.91284 2.55046C-1.75343 1.59402 0 .15938 .4782 0 0-.15938-1.75343-1.59402-1.91284-2.55046"/>
<path transform="matrix(1.00005,0,0,-1.00005,1.4913712,39.969198)" stroke-width="1.19553" stroke-linecap="butt" stroke-miterlimit="10" stroke-linejoin="miter" fill="none" stroke="#000000" d="M85.04042 0H85.46959 85.89877 86.32797 86.75716 87.18634 87.61551 88.04471 88.47389 88.90308 89.33226 89.76146 90.19064 90.61983 91.04901 91.4782 91.90738 92.33656 92.76575 93.19495 93.62413 94.05331 94.4825 94.9117 95.34087 95.77005 96.19923 96.62843 97.05762 97.4868 97.91599 98.34518 98.77435 99.20354 99.63272 100.06192 100.4911 100.92029 101.34947 101.77867 102.20786 102.63702 103.06621 103.4954 103.92459 104.35378 104.78296 105.21216 105.64134 106.07053 106.4997 106.92888 107.35806 107.78725 108.21645 108.64563 109.07481 109.504 109.9332 110.36237 110.79155 111.22073 111.64993 112.07912 112.5083 112.93748 113.36668 113.79587 114.22504 114.65422 115.08342 115.5126 115.94179 116.37097 116.80017 117.22935 117.65854 118.0877 118.5169 118.94609 119.37527 119.80446 120.23366 120.66284 121.09203 121.52121 121.9504 122.37958 122.80876 123.23795 123.66714 124.09633 124.52551 124.9547 125.38388 125.81306 126.24225 126.67143 127.10063 126.57338"/>
<path transform="matrix(1.00005,0,0,-1.00005,128.07108,39.969198)" stroke-width=".9564" stroke-linecap="round" stroke-linejoin="round" fill="none" stroke="#000000" d="M-1.91284 2.55046C-1.75343 1.59402 0 .15938 .4782 0 0-.15938-1.75343-1.59402-1.91284-2.55046"/>
<use data-text="&quot;" xlink:href="#font_2_1" transform="matrix(9.166058,0,0,-9.166058,6.6916315,11.9327969)"/>
<use data-text="O" xlink:href="#font_2_7" transform="matrix(9.166058,0,0,-9.166058,10.889683,11.9327969)"/>
<use data-text="f" xlink:href="#font_2_10" transform="matrix(9.166058,0,0,-9.166058,17.874218,11.9327969)"/>
<use data-text="f" xlink:href="#font_2_10" transform="matrix(9.166058,0,0,-9.166058,20.798192,11.9327969)"/>
<use data-text="&quot;" xlink:href="#font_2_1" transform="matrix(9.166058,0,0,-9.166058,23.978817,11.9327969)"/>
<use data-text="0" xlink:href="#font_2_4" transform="matrix(9.166058,0,0,-9.166058,15.006046,36.520025)"/>
<use data-text="G" xlink:href="#font_2_6" transform="matrix(9.166058,0,0,-9.166058,46.92264,25.351468)" fill="#008000"/>
<use data-text="r" xlink:href="#font_2_17" transform="matrix(9.166058,0,0,-9.166058,53.604703,25.351468)" fill="#008000"/>
<use data-text="a" xlink:href="#font_2_8" transform="matrix(9.166058,0,0,-9.166058,57.078634,25.351468)" fill="#008000"/>
<use data-text="p" xlink:href="#font_2_16" transform="matrix(9.166058,0,0,-9.166058,61.872488,25.351468)" fill="#008000"/>
<use data-text="h" xlink:href="#font_2_11" transform="matrix(9.166058,0,0,-9.166058,67.44545,25.351468)" fill="#008000"/>
<use data-text="o" xlink:href="#font_2_15" transform="matrix(9.166058,0,0,-9.166058,44.681528,34.317914)" fill="#008000"/>
<use data-text="f" xlink:href="#font_2_10" transform="matrix(9.166058,0,0,-9.166058,49.970338,34.317914)" fill="#008000"/>
<use data-text="g" xlink:href="#font_1_1" transform="matrix(9.166058,0,0,-9.166058,55.153047,34.317914)" fill="#008000"/>
<use data-text="2" xlink:href="#font_2_5" transform="matrix(6.966248,0,0,-6.966248,60.323305,35.81199)" fill="#008000"/>
<use data-text="(" xlink:href="#font_2_2" transform="matrix(9.166058,0,0,-9.166058,64.51652,34.317914)" fill="#008000"/>
<use data-text="t" xlink:href="#font_1_2" transform="matrix(9.166058,0,0,-9.166058,67.92468,34.317914)" fill="#008000"/>
<use data-text=")" xlink:href="#font_2_3" transform="matrix(9.166058,0,0,-9.166058,72.028888,34.317914)" fill="#008000"/>
<use data-text="i" xlink:href="#font_2_12" transform="matrix(9.166058,0,0,-9.166058,40.571325,51.86579)" fill="#008000"/>
<use data-text="n" xlink:href="#font_2_14" transform="matrix(9.166058,0,0,-9.166058,43.238645,51.86579)" fill="#008000"/>
<use data-text="t" xlink:href="#font_2_18" transform="matrix(9.166058,0,0,-9.166058,48.912435,51.86579)" fill="#008000"/>
<use data-text="e" xlink:href="#font_2_9" transform="matrix(9.166058,0,0,-9.166058,52.065565,51.86579)" fill="#008000"/>
<use data-text="r" xlink:href="#font_2_17" transform="matrix(9.166058,0,0,-9.166058,56.77692,51.86579)" fill="#008000"/>
<use data-text="v" xlink:href="#font_2_19" transform="matrix(9.166058,0,0,-9.166058,60.507505,51.86579)" fill="#008000"/>
<use data-text="a" xlink:href="#font_2_8" transform="matrix(9.166058,0,0,-9.166058,65.072208,51.86579)" fill="#008000"/>
<use data-text="l" xlink:href="#font_2_13" transform="matrix(9.166058,0,0,-9.166058,69.86606,51.86579)" fill="#008000"/>
<use data-text="2" xlink:href="#font_2_5" transform="matrix(9.166058,0,0,-9.166058,74.48575,51.86579)" fill="#008000"/>
<use data-text="&quot;" xlink:href="#font_2_1" transform="matrix(9.166058,0,0,-9.166058,49.463769,11.9327969)"/>
<use data-text="O" xlink:href="#font_2_7" transform="matrix(9.166058,0,0,-9.166058,53.66182,11.9327969)"/>
<use data-text="n" xlink:href="#font_2_14" transform="matrix(9.166058,0,0,-9.166058,60.600526,11.9327969)"/>
<use data-text="&quot;" xlink:href="#font_2_1" transform="matrix(9.166058,0,0,-9.166058,66.26515,11.9327969)"/>
<use data-text="&quot;" xlink:href="#font_2_1" transform="matrix(9.166058,0,0,-9.166058,97.05215,11.9327969)"/>
<use data-text="O" xlink:href="#font_2_7" transform="matrix(9.166058,0,0,-9.166058,101.2502,11.9327969)"/>
<use data-text="f" xlink:href="#font_2_10" transform="matrix(9.166058,0,0,-9.166058,108.23473,11.9327969)"/>
<use data-text="f" xlink:href="#font_2_10" transform="matrix(9.166058,0,0,-9.166058,111.15871,11.9327969)"/>
<use data-text="&quot;" xlink:href="#font_2_1" transform="matrix(9.166058,0,0,-9.166058,114.33933,11.9327969)"/>
<use data-text="0" xlink:href="#font_2_4" transform="matrix(9.166058,0,0,-9.166058,105.36656,36.520025)"/>
</svg>
