<svg xmlns="http://www.w3.org/2000/svg" xmlns:xlink="http://www.w3.org/1999/xlink" version="1.1" width="246" height="68" viewBox="0 0 246 68">
<defs>
<path id="font_1_1" d="M.05999756 .045333864C.10398865 .004348755 .18699646-.0146484379 .25698854-.0146484379 .43399049-.0146484379 .5039978 .08631897 .5039978 .18826294 .5039978 .30619813 .42399598 .36218263 .30699159 .40515138L.2749939 .41714479C.20799256 .44213868 .1519928 .48512269 .1519928 .5450897 .1519928 .61805728 .19599915 .6720276 .27999879 .6720276 .3659973 .6720276 .4139862 .6230469 .42999269 .5220947H.46099855V.6630249C.4269867 .6900177 .35899354 .70703127 .29100038 .70703127 .16899109 .70703127 .06098938 .64604189 .06098938 .5140991 .06098938 .40914918 .14498902 .354187 .25 .3171997L.2679901 .31019593C.31199647 .2932129 .40699769 .24723816 .40699769 .15827942 .40699769 .0723114 .35198976 .020339966 .2630005 .020339966 .16899109 .020339966 .10699463 .093307498 .08198547 .20524597H.049987794L.05999756 .045333864Z"/>
<path id="font_1_13" d="M.32598878 .45022584V.49023438H.19699097V.6162262H.16799927L.10699463 .49023438H.0309906V.45022584H.102996829V.102264408C.102996829 .0002746582 .1789856-.01171875 .21398926-.01171875 .2649994-.01171875 .31298829 .014266968 .34199525 .03227234L.33399964 .053268434C.30999757 .043273927 .28799439 .040267946 .2630005 .040267946 .22898865 .040267946 .19699097 .06427002 .19699097 .14025879V.45022584H.32598878Z"/>
<path id="font_1_4" d="M.44099427 .2627716C.46199037 .2627716 .48098756 .2677765 .48098756 .30078126 .48098756 .35983277 .46199037 .5019531 .2789917 .5019531 .12298584 .5019531 .04899597 .39086915 .04899597 .24082947 .04899597 .08317566 .116989139-.01373291 .27999879-.01171875 .3909912-.010726929 .44799806 .050247194 .47499085 .1290741L.44499208 .14503479C.4169922 .08717346 .3789978 .039276124 .2999878 .039276124 .17599488 .039276124 .15098572 .15901184 .15299988 .2627716H.44099427M.1539917 .30078126C.1539917 .34181214 .16899109 .46694947 .272995 .46694947 .3659973 .46694947 .3769989 .37184144 .3769989 .33280946 .3769989 .31378175 .37098695 .30078126 .34298707 .30078126H.1539917Z"/>
<path id="font_1_11" d="M.19400025 .32104493C.19400025 .34602357 .19799805 .36001588 .20698548 .37800599 .22999573 .42396546 .272995 .44795228 .32598878 .44795228 .3659973 .44795228 .45498658 .42196656 .45498658 .25009156 .45498658 .10321045 .40899659 .023269654 .30899049 .023269654 .25698854 .023269654 .21699524 .050247194 .20098877 .096221927 .19499207 .11419678 .19400025 .13418579 .19400025 .15716553V.32104493M.02999878 .47694398V.45195008L.067993167 .4469452C.09399414 .4429474 .099990848 .43795777 .099990848 .40197755V-.14324951C.099990848-.19444275 .09498596-.19645691 .024993897-.20147705V-.23046875H.28399659V-.20147705C.19999695-.19645691 .19400025-.19444275 .19400025-.14324951V.011276245C.21499634-.0007324219 .2619934-.01171875 .30799867-.01171875 .44299317-.01171875 .5589905 .050247194 .5589905 .25608827 .5589905 .32704164 .54599 .5019531 .3639984 .5019531 .29100038 .5019531 .23298645 .4529419 .19400025 .42796327L.18099976 .5019531 .02999878 .47694398Z"/>
<path id="font_1_7" d="M.036987306 .47694398V.45195008L.07499695 .4469452C.100997928 .4429474 .10699463 .43795777 .10699463 .40194703V.08699036C.10699463 .035995485 .10398865 .033996583 .03199768 .0289917V0H.27598573V.0289917C.20498657 .033996583 .20098877 .035995485 .20098877 .08699036V.49609376L.19400025 .5020752 .036987306 .47694398M.15299988 .71484377C.116989139 .71484377 .09199524 .6888428 .09199524 .65283206 .09199524 .61782839 .116989139 .5928345 .15299988 .5928345 .18998719 .5928345 .21299744 .61782839 .21398926 .65283206 .21398926 .6888428 .18998719 .71484377 .15299988 .71484377Z"/>
<path id="font_1_9" d="M.5289917 .34295655C.5289917 .4439392 .47399903 .5019531 .38198854 .5019531 .30799867 .5019531 .2619934 .46594239 .19999695 .4259491L.18598938 .5019531 .036987306 .47694398V.45195008L.07499695 .4469452C.100997928 .4429474 .10699463 .4379425 .10699463 .40194703V.08699036C.10699463 .035995485 .10398865 .033996583 .03199768 .0289917V0H.27598573V.0289917C.20498657 .033996583 .20098877 .035995485 .20098877 .08699036V.32095338C.20098877 .34596253 .20298767 .35995484 .21099854 .37594605 .23199463 .4149475 .2769928 .44795228 .32998658 .44795228 .397995 .44795228 .43499757 .40994264 .43499757 .32295228V.08699036C.43499757 .035995485 .43199159 .033996583 .3600006 .0289917V0H.60398867V.0289917C.5329895 .033996583 .5289917 .035995485 .5289917 .08699036V.34295655Z"/>
<path id="font_1_6" d="M.2599945 .46694947C.30899049 .46694947 .3600006 .43093873 .3600006 .33392335 .3600006 .24989319 .31599427 .20588684 .2579956 .20588684 .20199585 .20588684 .15499878 .24989319 .15499878 .33392335 .15499878 .43293763 .20698548 .46694947 .2599945 .46694947M.2809906-.2071991C.19599915-.2071991 .13699341-.16319275 .13699341-.09118652 .13699341-.057174684 .14698792-.032180787 .16799927-.016174317 .18998719 .0008239746 .22299195 .0068359377 .2709961 .0068359377 .35899354 .0068359377 .42399598-.014175415 .42399598-.08918762 .42399598-.16918946 .35198976-.2071991 .2809906-.2071991M.3889923 .47094728C.36099244 .48994447 .30599977 .5019531 .2599945 .5019531 .10699463 .5019531 .052993776 .40792848 .052993776 .33392335 .052993776 .23989868 .114990238 .19688416 .16099549 .18489075V.18289185C.10699463 .1618805 .068984989 .13285828 .068984989 .09384155 .068984989 .05882263 .10899353 .020828248 .15699768 .015823365V.013824463C.11399841-.00016784668 .041992189-.024169922 .041992189-.09617615 .041992189-.19718933 .14199829-.2421875 .2579956-.2421875 .31799317-.2421875 .3809967-.23019409 .42900086-.20118714 .47499085-.17318726 .5079956-.12619019 .5079956-.06417847 .5079956 .043823244 .42199708 .081832889 .31498719 .081832889H.23498535C.16299439 .081832889 .1519928 .10585022 .1519928 .12486267 .1519928 .15388489 .18998719 .16989136 .20298767 .17388916 .22200012 .17189026 .24299622 .17089844 .2539978 .17089844 .34899903 .17089844 .45599366 .21289063 .45599366 .33392335 .45599366 .3759308 .44299317 .41093446 .42599488 .42793275L.5049896 .4399414 .5249939 .50294497 .5169983 .51194766 .3889923 .47094728Z"/>
<path id="font_1_5" d="M.20098877 .45022584H.32299806V.49023438H.20098877L.19699097 .60220339C.19400025 .6971741 .22898865 .70718386 .24499512 .70718386 .2659912 .70718386 .28799439 .6971741 .31298829 .6391907 .31799317 .62919619 .32499696 .6221924 .33999635 .6221924 .3600006 .6221924 .3889923 .6391907 .3889923 .66918948 .3889923 .70217898 .34700013 .7421875 .2669983 .7421875 .21199036 .7421875 .16499329 .71717837 .13999939 .67918398 .116989139 .64419558 .10699463 .5912018 .10699463 .5252228V.49023438H.02999878V.45022584H.10699463V.087020877C.10699463 .035995485 .10398865 .033996583 .03199768 .0289917V0H.29599V.0289917C.20498657 .032989503 .20098877 .034988405 .20098877 .08602905V.45022584Z"/>
<path id="font_1_10" d="M.28799439 .5019531C.12799073 .5019531 .04899597 .40698243 .04899597 .24510193 .04899597 .083236698 .12799073-.01171875 .28799439-.01171875 .44999696-.01171875 .5279999 .083236698 .5279999 .24510193 .5279999 .40698243 .44999696 .5019531 .28799439 .5019531M.15299988 .24510193C.15299988 .38301087 .19699097 .46694947 .28799439 .46694947 .3809967 .46694947 .42399598 .38301087 .42399598 .24510193 .42399598 .10720825 .3809967 .023269654 .28799439 .023269654 .19699097 .023269654 .15299988 .10720825 .15299988 .24510193Z"/>
<path id="font_1_12" d="M.18899536 .5019531 .036987306 .47694398V.45195008L.07499695 .4469452C.100997928 .4429474 .10699463 .4379425 .10699463 .40194703V.08699036C.10699463 .035995485 .101989749 .033996583 .03199768 .0289917V0H.29599V.0289917C.20698548 .033996583 .20098877 .035995485 .20098877 .08699036V.32095338C.20098877 .39794923 .23498535 .4239502 .2579956 .4239502 .27398683 .4239502 .29100038 .4179535 .31999208 .40194703 .32699586 .39794923 .33499146 .39694215 .33999635 .39694215 .3639984 .39694215 .38598634 .4219513 .38598634 .4529419 .38598634 .47494508 .37199403 .5019531 .33299256 .5019531 .29699708 .5019531 .2669983 .47994996 .20098877 .4219513L.18899536 .5019531Z"/>
<path id="font_1_14" d="M-.0020141602 .49023438V.46122743C.038986207 .45922853 .051986696 .45622254 .06399536 .41819764 .10598755 .2861328 .1499939 .15106201 .19198609 0H.2679901L.38598634 .38150025H.3889923C.43099977 .2543335 .47200013 .12716675 .5119934 0H.58799746C.6299896 .14703369 .68899539 .32513429 .71398928 .40318299 .73098757 .45422364 .74198916 .45822145 .7919922 .46122743V.49023438H.59498599V.46122743L.6519928 .45622254C.6689911 .45422364 .66999819 .4412079 .66600039 .4232025 .6529999 .36416627 .6069946 .20205689 .57598879 .08898926H.57398989C.5309906 .21922302 .48999024 .3484497 .44898988 .47851563H.37298585L.25698854 .08898926H.25498963C.21899414 .20410156 .18798828 .3201599 .1559906 .4282074 .1499939 .44721986 .1559906 .45622254 .17399597 .45822145L.20899964 .46122743V.49023438H-.0020141602Z"/>
<path id="font_1_2" d="M.34298707 .14318848C.34298707 .06225586 .2809906 .041275026 .24198914 .041275026 .17999268 .041275026 .1499939 .085235599 .1499939 .14419556 .1499939 .19116211 .17199707 .21513367 .22799683 .23612976 .2679901 .2511139 .32099916 .27009584 .34298707 .28408814V.14318848M.43299867 .36901856C.43299867 .42697145 .41999818 .5019531 .2689972 .5019531 .1559906 .5019531 .066986087 .44296266 .066986087 .3880005 .066986087 .35603334 .10398865 .3410492 .12298584 .3410492 .14399719 .3410492 .1499939 .35203553 .15499878 .36901856 .1769867 .44296266 .21798706 .46694947 .2579956 .46694947 .29699708 .46694947 .34298707 .44696046 .34298707 .36701966V.32505799C.31799317 .29907228 .22099304 .27409364 .14199829 .24911499 .069992069 .22712708 .04899597 .1771698 .04899597 .13020325 .04899597 .055267335 .09899902-.01171875 .19299317-.01171875 .25498963-.009719849 .30999757 .027267456 .34199525 .04826355 .35598756 .011276245 .37199403-.01171875 .40699769-.01171875 .44400025-.01171875 .4869995-.0007324219 .5249939 .01828003L.5189972 .042266847C.5049896 .039276124 .48298646 .03727722 .46798707 .041275026 .44999696 .045272829 .43299867 .06425476 .43299867 .12721253V.36901856Z"/>
<path id="font_1_3" d="M.58299258 0V.0289917C.5119934 .033996583 .5079956 .035995485 .5079956 .08699036V.73617556L.5009918 .7421875 .34399415 .7171478V.6921234L.38198854 .6881256C.4079895 .6851196 .4139862 .68011477 .4139862 .6420746V.47795106C.38598634 .49295045 .34899903 .5019531 .30299378 .5019531 .22099304 .5019531 .1599884 .47595216 .117996219 .43295289 .07499695 .3879547 .04899597 .32196046 .04899597 .2349701 .04899597 .0872345 .12599182-.01171875 .2579956-.01171875 .31199647-.01171875 .35899354 .012268066 .41299439 .056259157V.0069885256L.42099 0H.58299258M.4139862 .16998291C.4139862 .14819336 .41299439 .13121033 .40699769 .114212039 .3869934 .06225586 .34298707 .042266847 .29100038 .042266847 .19898987 .042266847 .15299988 .13220215 .15299988 .24711609 .15299988 .37701417 .19999695 .46694947 .3019867 .46694947 .34899903 .46694947 .3869934 .44496156 .40499879 .4039917 .41299439 .38700868 .4139862 .37301637 .4139862 .34603883V.16998291Z"/>
<path id="font_1_8" d="M.036987306 .47694398V.45195008L.07499695 .4469452C.100997928 .4429474 .10699463 .4379425 .10699463 .40194703V.08699036C.10699463 .035995485 .10398865 .033996583 .03199768 .0289917V0H.27598573V.0289917C.20498657 .033996583 .20098877 .035995485 .20098877 .08699036V.32095338C.20098877 .34596253 .20199585 .35995484 .20899964 .37394715 .22799683 .41394044 .27198792 .44795228 .32699586 .44795228 .41299439 .44795228 .4229889 .38494874 .4229889 .32295228V.08699036C.4229889 .035995485 .41999818 .033996583 .34799195 .0289917V0H.59199526V.0289917C.5209961 .033996583 .5169983 .035995485 .5169983 .08699036V.32095338C.5169983 .34596253 .5179901 .35995484 .5239868 .37594605 .5389862 .4159546 .58200076 .44795228 .6380005 .44795228 .70098879 .44995118 .7389984 .40994264 .7389984 .32295228V.08699036C.7389984 .035995485 .73599246 .033996583 .6639862 .0289917V0H.9079895V.0289917C.83699038 .033996583 .83299258 .035995485 .83299258 .08699036V.34295655C.83299258 .4439392 .7789917 .5019531 .6839905 .5019531 .60198977 .5019531 .54299929 .4469452 .5079956 .42494203 .48399354 .4719391 .44599916 .5019531 .37599183 .5019531 .29899598 .5019531 .23599243 .45195008 .20098877 .4259491L.19198609 .5019531 .036987306 .47694398Z"/>
</defs>
<path transform="matrix(1.00006,0,0,-1,4.085144,64.404)" stroke-width=".79701" stroke-linecap="butt" stroke-miterlimit="10" stroke-linejoin="miter" fill="none" stroke="#929292" d="M0 0C32.45567 15.13443 49.22968 34.01608 85.04042 34.01608 119.4072 34.01608 137.7865 44.93929 170.08086 56.69362"/>
<path transform="matrix(1.00006,0,0,-1,4.085144,64.404)" d="M1.99255 0C1.99255 1.10046 1.10046 1.99255 0 1.99255-1.10046 1.99255-1.99255 1.10046-1.99255 0-1.99255-1.10046-1.10046-1.99255 0-1.99255 1.10046-1.99255 1.99255-1.10046 1.99255 0ZM0 0"/>
<path transform="matrix(1.00006,0,0,-1,4.085144,64.404)" stroke-width=".3985" stroke-linecap="butt" stroke-miterlimit="10" stroke-linejoin="miter" fill="none" stroke="#000000" d="M1.99255 0C1.99255 1.10046 1.10046 1.99255 0 1.99255-1.10046 1.99255-1.99255 1.10046-1.99255 0-1.99255-1.10046-1.10046-1.99255 0-1.99255 1.10046-1.99255 1.99255-1.10046 1.99255 0ZM0 0"/>
<path transform="matrix(1.00006,0,0,-1,4.085144,64.404)" d="M30.33936 11.33855C30.33936 12.43901 29.44728 13.3311 28.3468 13.3311 27.24634 13.3311 26.35425 12.43901 26.35425 11.33855 26.35425 10.23807 27.24634 9.346 28.3468 9.346 29.44728 9.346 30.33936 10.23807 30.33936 11.33855ZM28.3468 11.33855"/>
<path transform="matrix(1.00006,0,0,-1,4.085144,64.404)" stroke-width=".3985" stroke-linecap="butt" stroke-miterlimit="10" stroke-linejoin="miter" fill="none" stroke="#000000" d="M30.33936 11.33855C30.33936 12.43901 29.44728 13.3311 28.3468 13.3311 27.24634 13.3311 26.35425 12.43901 26.35425 11.33855 26.35425 10.23807 27.24634 9.346 28.3468 9.346 29.44728 9.346 30.33936 10.23807 30.33936 11.33855ZM28.3468 11.33855"/>
<path transform="matrix(1.00006,0,0,-1,4.085144,64.404)" d="M58.68617 22.67752C58.68617 23.77798 57.79408 24.67007 56.69362 24.67007 55.59314 24.67007 54.70107 23.77798 54.70107 22.67752 54.70107 21.57704 55.59314 20.68497 56.69362 20.68497 57.79408 20.68497 58.68617 21.57704 58.68617 22.67752ZM56.69362 22.67752"/>
<path transform="matrix(1.00006,0,0,-1,4.085144,64.404)" stroke-width=".3985" stroke-linecap="butt" stroke-miterlimit="10" stroke-linejoin="miter" fill="none" stroke="#000000" d="M58.68617 22.67752C58.68617 23.77798 57.79408 24.67007 56.69362 24.67007 55.59314 24.67007 54.70107 23.77798 54.70107 22.67752 54.70107 21.57704 55.59314 20.68497 56.69362 20.68497 57.79408 20.68497 58.68617 21.57704 58.68617 22.67752ZM56.69362 22.67752"/>
<path transform="matrix(1.00006,0,0,-1,4.085144,64.404)" d="M87.03297 34.01608C87.03297 35.11655 86.1409 36.00864 85.04042 36.00864 83.93996 36.00864 83.04787 35.11655 83.04787 34.01608 83.04787 32.9156 83.93996 32.02353 85.04042 32.02353 86.1409 32.02353 87.03297 32.9156 87.03297 34.01608ZM85.04042 34.01608"/>
<path transform="matrix(1.00006,0,0,-1,4.085144,64.404)" stroke-width=".3985" stroke-linecap="butt" stroke-miterlimit="10" stroke-linejoin="miter" fill="none" stroke="#000000" d="M87.03297 34.01608C87.03297 35.11655 86.1409 36.00864 85.04042 36.00864 83.93996 36.00864 83.04787 35.11655 83.04787 34.01608 83.04787 32.9156 83.93996 32.02353 85.04042 32.02353 86.1409 32.02353 87.03297 32.9156 87.03297 34.01608ZM85.04042 34.01608"/>
<path transform="matrix(1.00006,0,0,-1,4.085144,64.404)" d="M115.37979 42.5202C115.37979 43.62067 114.4877 44.51276 113.38724 44.51276 112.28676 44.51276 111.39468 43.62067 111.39468 42.5202 111.39468 41.41972 112.28676 40.52765 113.38724 40.52765 114.4877 40.52765 115.37979 41.41972 115.37979 42.5202ZM113.38724 42.5202"/>
<path transform="matrix(1.00006,0,0,-1,4.085144,64.404)" stroke-width=".3985" stroke-linecap="butt" stroke-miterlimit="10" stroke-linejoin="miter" fill="none" stroke="#000000" d="M115.37979 42.5202C115.37979 43.62067 114.4877 44.51276 113.38724 44.51276 112.28676 44.51276 111.39468 43.62067 111.39468 42.5202 111.39468 41.41972 112.28676 40.52765 113.38724 40.52765 114.4877 40.52765 115.37979 41.41972 115.37979 42.5202ZM113.38724 42.5202"/>
<path transform="matrix(1.00006,0,0,-1,4.085144,64.404)" d="M143.7266 51.02432C143.7266 52.1248 142.83452 53.01688 141.73404 53.01688 140.63358 53.01688 139.74149 52.1248 139.74149 51.02432 139.74149 49.92386 140.63358 49.03177 141.73404 49.03177 142.83452 49.03177 143.7266 49.92386 143.7266 51.02432ZM141.73404 51.02432"/>
<path transform="matrix(1.00006,0,0,-1,4.085144,64.404)" stroke-width=".3985" stroke-linecap="butt" stroke-miterlimit="10" stroke-linejoin="miter" fill="none" stroke="#000000" d="M143.7266 51.02432C143.7266 52.1248 142.83452 53.01688 141.73404 53.01688 140.63358 53.01688 139.74149 52.1248 139.74149 51.02432 139.74149 49.92386 140.63358 49.03177 141.73404 49.03177 142.83452 49.03177 143.7266 49.92386 143.7266 51.02432ZM141.73404 51.02432"/>
<use data-text="S" xlink:href="#font_1_1" transform="matrix(8.249595,0,0,-8.2491,152.06201,7.950001)"/>
<use data-text="t" xlink:href="#font_1_13" transform="matrix(8.249595,0,0,-8.2491,156.3353,7.950001)"/>
<use data-text="e" xlink:href="#font_1_4" transform="matrix(8.249595,0,0,-8.2491,159.16492,7.950001)"/>
<use data-text="p" xlink:href="#font_1_11" transform="matrix(8.249595,0,0,-8.2491,163.40522,7.950001)"/>
<use data-text="p" xlink:href="#font_1_11" transform="matrix(8.249595,0,0,-8.2491,168.42096,7.950001)"/>
<use data-text="i" xlink:href="#font_1_7" transform="matrix(8.249595,0,0,-8.2491,173.4367,7.950001)"/>
<use data-text="n" xlink:href="#font_1_9" transform="matrix(8.249595,0,0,-8.2491,175.83734,7.950001)"/>
<use data-text="g" xlink:href="#font_1_6" transform="matrix(8.249595,0,0,-8.2491,180.94385,7.950001)"/>
<use data-text="f" xlink:href="#font_1_5" transform="matrix(8.249595,0,0,-8.2491,187.07329,7.950001)"/>
<use data-text="o" xlink:href="#font_1_10" transform="matrix(8.249595,0,0,-8.2491,189.70491,7.950001)"/>
<use data-text="r" xlink:href="#font_1_12" transform="matrix(8.249595,0,0,-8.2491,194.46492,7.950001)"/>
<use data-text="w" xlink:href="#font_1_14" transform="matrix(8.249595,0,0,-8.2491,197.82251,7.950001)"/>
<use data-text="a" xlink:href="#font_1_2" transform="matrix(8.249595,0,0,-8.2491,204.16645,7.950001)"/>
<use data-text="r" xlink:href="#font_1_12" transform="matrix(8.249595,0,0,-8.2491,208.48099,7.950001)"/>
<use data-text="d" xlink:href="#font_1_3" transform="matrix(8.249595,0,0,-8.2491,211.53333,7.950001)"/>
<use data-text="i" xlink:href="#font_1_7" transform="matrix(8.249595,0,0,-8.2491,218.3145,7.950001)"/>
<use data-text="n" xlink:href="#font_1_9" transform="matrix(8.249595,0,0,-8.2491,220.71512,7.950001)"/>
<use data-text="t" xlink:href="#font_1_13" transform="matrix(8.249595,0,0,-8.2491,227.67778,7.950001)"/>
<use data-text="i" xlink:href="#font_1_7" transform="matrix(8.249595,0,0,-8.2491,230.51564,7.950001)"/>
<use data-text="m" xlink:href="#font_1_8" transform="matrix(8.249595,0,0,-8.2491,232.91626,7.950001)"/>
<use data-text="e" xlink:href="#font_1_4" transform="matrix(8.249595,0,0,-8.2491,240.53064,7.950001)"/>
</svg>
