<svg xmlns="http://www.w3.org/2000/svg" xmlns:xlink="http://www.w3.org/1999/xlink" version="1.1" width="124" height="127" viewBox="0 0 124 127">
<defs>
<path id="font_1_1" d="M.42799378 .45222474 .43899537 .49023438H.31199647L.34599305 .6092224 .33399964 .6162262 .23699951 .53923037 .22399903 .49023438H.14299011L.13198853 .45222474H.21499634L.125 .08627319C.10998535 .029266358 .12199402-.01171875 .17199707-.01171875 .2519989-.01171875 .31599427 .054275514 .35598756 .1292572L.33399964 .1462555C.31098939 .10726929 .2599945 .040267946 .22898865 .040267946 .20799256 .040267946 .20799256 .0632782 .21398926 .088272098L.30299378 .45222474H.42799378Z"/>
<path id="font_1_2" d="M.070999149 .45393373 .07398987 .42893983 .14199829 .43093873C.1639862 .43193055 .16899109 .41493226 .1769867 .36291505 .18798828 .28489686 .20999146 .09286499 .20999146 .0128479 .20999146-.017166138 .20799256-.058166505 .18598938-.11117554 .16799927-.15318299 .14199829-.18218994 .12199402-.18218994 .10699463-.18218994 .09599304-.17118836 .08099365-.15118408 .068984989-.13517761 .06098938-.127182 .04598999-.127182 .019989014-.12818909-.005004883-.15818787-.005004883-.18719483-.005004883-.21418762 .023986817-.2421875 .067993167-.2421875 .15299988-.2421875 .18998719-.17919922 .27799989-.027160645 .2979889 .0068511965 .35798646 .11286926 .41999818 .21488953 .47698976 .30891419 .5399933 .40592958 .5399933 .4459381 .5399933 .48094178 .5289917 .5019531 .5219879 .5019531 .5029907 .5019531 .46899415 .49394227 .44400025 .47694398 .44499208 .4419403 .44299317 .3809204 .43099977 .33891297 .4149933 .28289796 .35598756 .17488098 .2899933 .06085205H.2869873C.27999879 .21388245 .26098634 .42492677 .24699402 .49795533L.23899842 .5019531 .070999149 .45393373Z"/>
</defs>
<path transform="matrix(1,0,0,-1.00005,57.985,68.52283)" stroke-width=".3985" stroke-linecap="butt" stroke-miterlimit="10" stroke-linejoin="miter" fill="none" stroke="#cbcbcb" d="M-22.67752-45.35506V45.35506"/>
<path transform="matrix(1,0,0,-1.00005,57.985,68.52283)" stroke-width=".3985" stroke-linecap="butt" stroke-miterlimit="10" stroke-linejoin="miter" fill="none" stroke="#cbcbcb" d="M0-45.35506V45.35506"/>
<path transform="matrix(1,0,0,-1.00005,57.985,68.52283)" stroke-width=".3985" stroke-linecap="butt" stroke-miterlimit="10" stroke-linejoin="miter" fill="none" stroke="#cbcbcb" d="M22.67752-45.35506V45.35506"/>
<path transform="matrix(1,0,0,-1.00005,57.985,68.52283)" stroke-width=".3985" stroke-linecap="butt" stroke-miterlimit="10" stroke-linejoin="miter" fill="none" stroke="#cbcbcb" d="M-45.35506-22.67752H45.35506"/>
<path transform="matrix(1,0,0,-1.00005,57.985,68.52283)" stroke-width=".3985" stroke-linecap="butt" stroke-miterlimit="10" stroke-linejoin="miter" fill="none" stroke="#cbcbcb" d="M-45.35506 0H45.35506"/>
<path transform="matrix(1,0,0,-1.00005,57.985,68.52283)" stroke-width=".3985" stroke-linecap="butt" stroke-miterlimit="10" stroke-linejoin="miter" fill="none" stroke="#cbcbcb" d="M-45.35506 22.67752H45.35506"/>
<path transform="matrix(1,0,0,-1.00005,57.985,68.52283)" stroke-width="1.0959" stroke-linecap="butt" stroke-miterlimit="10" stroke-linejoin="miter" fill="none" stroke="#1a8c8c" d="M-22.67752-22.67752H-12.10953"/>
<path transform="matrix(1,0,0,-1.00005,45.87547,91.20148)" d="M3.03864 0-1.82318 2.43091 0 0-1.82318-2.43091" fill="#1a8c8c"/>
<path transform="matrix(1,0,0,-1.00005,57.985,68.52283)" stroke-width="1.0959" stroke-linecap="butt" stroke-miterlimit="10" stroke-linejoin="miter" fill="none" stroke="#1a8c8c" d="M-22.67752 0-15.20648 7.47102"/>
<path transform="matrix(.7071,-.7071353,-.7071,-.7071353,42.77852,61.051435)" d="M3.03864 0-1.82318 2.43091 0 0-1.82318-2.43091" fill="#1a8c8c"/>
<path transform="matrix(1,0,0,-1.00005,57.985,68.52283)" stroke-width="1.0959" stroke-linecap="butt" stroke-miterlimit="10" stroke-linejoin="miter" fill="none" stroke="#1a8c8c" d="M-22.67752 22.67752-17.95076 32.13013"/>
<path transform="matrix(.4472,-.89440467,-.89436,-.44722236,40.034219,36.39111)" d="M3.03864 0-1.82318 2.43091 0 0-1.82318-2.43091" fill="#1a8c8c"/>
<path transform="matrix(1,0,0,-1.00005,57.985,68.52283)" stroke-width="1.0959" stroke-linecap="butt" stroke-miterlimit="10" stroke-linejoin="miter" fill="none" stroke="#1a8c8c" d="M0-22.67752 7.47122-30.14983"/>
<path transform="matrix(.70705,.7071754,.70714,-.7070854,65.4562,98.67415)" d="M3.03864 0-1.82318 2.43091 0 0-1.82318-2.43091" fill="#1a8c8c"/>
<path transform="matrix(1,0,0,-1.00005,57.985,68.52283)" stroke-width="1.0959" stroke-linecap="butt" stroke-miterlimit="10" stroke-linejoin="miter" fill="none" stroke="#1a8c8c" d="M0 0H10.56798"/>
<path transform="matrix(1,0,0,-1.00005,68.55298,68.52283)" d="M3.03864 0-1.82318 2.43091 0 0-1.82318-2.43091" fill="#1a8c8c"/>
<path transform="matrix(1,0,0,-1.00005,57.985,68.52283)" stroke-width="1.0959" stroke-linecap="butt" stroke-miterlimit="10" stroke-linejoin="miter" fill="none" stroke="#1a8c8c" d="M0 22.67752 7.47102 30.14854"/>
<path transform="matrix(.7071,-.7071353,-.7071,-.7071353,65.456027,38.37278)" d="M3.03864 0-1.82318 2.43091 0 0-1.82318-2.43091" fill="#1a8c8c"/>
<path transform="matrix(1,0,0,-1.00005,57.985,68.52283)" stroke-width="1.0959" stroke-linecap="butt" stroke-miterlimit="10" stroke-linejoin="miter" fill="none" stroke="#1a8c8c" d="M22.67752-22.67752 27.40427-32.13013"/>
<path transform="matrix(.4472,.89440467,.89436,-.44722236,85.38925,100.65454)" d="M3.03864 0-1.82318 2.43091 0 0-1.82318-2.43091" fill="#1a8c8c"/>
<path transform="matrix(1,0,0,-1.00005,57.985,68.52283)" stroke-width="1.0959" stroke-linecap="butt" stroke-miterlimit="10" stroke-linejoin="miter" fill="none" stroke="#1a8c8c" d="M22.67752 0 30.14874-7.4723"/>
<path transform="matrix(.70705,.7071754,.70714,-.7070854,88.13373,75.99549)" d="M3.03864 0-1.82318 2.43091 0 0-1.82318-2.43091" fill="#1a8c8c"/>
<path transform="matrix(1,0,0,-1.00005,57.985,68.52283)" stroke-width="1.0959" stroke-linecap="butt" stroke-miterlimit="10" stroke-linejoin="miter" fill="none" stroke="#1a8c8c" d="M22.67752 22.67752H33.2455"/>
<path transform="matrix(1,0,0,-1.00005,91.2305,45.844175)" d="M3.03864 0-1.82318 2.43091 0 0-1.82318-2.43091" fill="#1a8c8c"/>
<path transform="matrix(1,0,0,-1.00005,57.985,68.52283)" stroke-width=".79701" stroke-linecap="butt" stroke-miterlimit="10" stroke-linejoin="miter" fill="none" stroke="#000000" d="M-56.69382 0H55.8968"/>
<path transform="matrix(1,0,0,-1.00005,114.280307,68.52283)" stroke-width=".79701" stroke-linecap="round" stroke-linejoin="round" fill="none" stroke="#000000" d="M-2.55046 3.11095C-2.0845 1.24435-1.04614 .36295 0 0-1.04614-.36295-2.0845-1.24435-2.55046-3.11095"/>
<use data-text="t" xlink:href="#font_1_1" transform="matrix(10.0364,0,0,-10.036901,118.495,71.571979)"/>
<path transform="matrix(1,0,0,-1.00005,57.985,68.52283)" stroke-width=".79701" stroke-linecap="butt" stroke-miterlimit="10" stroke-linejoin="miter" fill="none" stroke="#000000" d="M0-56.69382V55.8968"/>
<path transform="matrix(0,-1.00005,-1,-0,57.985,12.224716)" stroke-width=".79701" stroke-linecap="round" stroke-linejoin="round" fill="none" stroke="#000000" d="M-2.55046 3.11095C-2.0845 1.24435-1.04614 .36295 0 0-1.04614-.36295-2.0845-1.24435-2.55046-3.11095"/>
<use data-text="y" xlink:href="#font_1_2" transform="matrix(10.0364,0,0,-10.036901,55.447999,5.7626917)"/>
</svg>
