<svg xmlns="http://www.w3.org/2000/svg" xmlns:xlink="http://www.w3.org/1999/xlink" version="1.1" width="205" height="169" viewBox="0 0 205 169">
<defs>
<path id="font_1_3" d="M.6349945 .2529297V.31092835H.084991458V.2529297H.6349945Z"/>
<path id="font_2_4" d="M.12998963 .3657837C.12998963 .3487854 .1349945 .33779908 .147995 .33779908 .1599884 .33779908 .18699646 .34777833 .23498535 .34777833 .31999208 .34777833 .36799623 .27090455 .36799623 .18403626 .36799623 .065216068 .30899049 .023269654 .23799134 .023269654 .17199707 .023269654 .1289978 .07319641 .10998535 .12911988 .10398865 .14808655 .09399414 .15707398 .07998657 .15707398 .06199646 .15707398 .026992798 .13809204 .026992798 .10215759 .026992798 .05921936 .09599304-.01171875 .23699951-.01171875 .38198854-.01171875 .47299195 .06121826 .47299195 .18902588 .47299195 .32281495 .35798646 .3627777 .30299378 .3677826V.3717804C.35699464 .38078309 .44400025 .4207611 .44400025 .5197296 .44400025 .6306915 .35699464 .6796875 .25 .6796875 .117996219 .6796875 .052993776 .60369876 .052993776 .5607147 .052993776 .5297241 .08799744 .51272585 .101989749 .51272585 .114990238 .51272585 .12298584 .5197296 .1269989 .5327301 .14898682 .60069277 .18699646 .64468386 .24299622 .64468386 .32199098 .64468386 .34098817 .57470706 .34098817 .51872256 .34098817 .4587555 .31999208 .38378907 .23498535 .38378907 .18699646 .38378907 .1599884 .39378358 .147995 .39378358 .1349945 .39378358 .12998963 .38378907 .12998963 .3657837Z"/>
<path id="font_2_3" d="M.4850006 .13195801 .45700074 .13696289C.43598939 .08299255 .41600038 .07598877 .37599183 .07598877H.11999512C.13598633 .1279602 .19499207 .19892884 .28799439 .2658844 .38398744 .33584596 .45799256 .38082887 .45799256 .49276734 .45799256 .63168337 .3659973 .6796875 .26098634 .6796875 .12399292 .6796875 .052993776 .5967102 .052993776 .54473879 .052993776 .51075747 .09098816 .49476625 .10798645 .49476625 .12599182 .49476625 .1329956 .50476077 .13699341 .5217438 .15299988 .5897064 .19198609 .64468386 .2539978 .64468386 .33099366 .64468386 .35299684 .5797119 .35299684 .50675967 .35299684 .3998108 .29899598 .33984376 .21199036 .26289369 .08898926 .15594483 .04598999 .08798218 .026992798 .009994507L.036987306 0H.45098878L.4850006 .13195801Z"/>
<path id="font_2_2" d="M.43699647 0V.0289917L.35299684 .035995485C.33198548 .037994386 .31999208 .04598999 .31999208 .08496094V.67367556L.31498719 .6796875 .10899353 .6446991V.6197052L.20199585 .6087036C.21899414 .6067047 .22599793 .5987091 .22599793 .56973269V.08496094C.22599793 .065979007 .22299195 .053985597 .21699524 .04698181 .21199036 .039993287 .20399475 .036987306 .19299317 .035995485L.10899353 .0289917V0H.43699647Z"/>
<path id="font_2_5" d="M.42599488 .5919647 .44999696 .6599579 .44499208 .66796877H.11099243L.100997928 .65896609 .08099365 .32388307 .10499573 .31188966C.14698792 .35983277 .18798828 .3828125 .24198914 .3828125 .30599977 .3828125 .37599183 .3358612 .37599183 .20404053 .37599183 .10116577 .33399964 .023269654 .24699402 .023269654 .1769867 .023269654 .14099121 .07420349 .12098694 .13113404 .115997318 .14611817 .10699463 .15510559 .09298706 .15510559 .07299805 .15510559 .039993287 .13513184 .039993287 .10217285 .039993287 .056228639 .10998535-.01171875 .23999024-.01171875 .40499879-.01171875 .47999574 .0881958 .47999574 .21502686 .47999574 .35484315 .3919983 .4268036 .272995 .4268036 .21798706 .4268036 .15899658 .4028015 .1269989 .3738098L.125 .37580873 .147995 .56292727C.15098572 .58795168 .1579895 .5919647 .1769867 .5919647H.42599488Z"/>
<path id="font_2_1" d="M.2649994 .64468386C.3600006 .64468386 .3869934 .49682618 .3869934 .33398438 .3869934 .17112732 .3600006 .023269654 .2649994 .023269654 .16999817 .023269654 .14299011 .17112732 .14299011 .33398438 .14299011 .49682618 .16999817 .64468386 .2649994 .64468386M.2649994 .6796875C.099990848 .6796875 .040985109 .53378298 .040985109 .33398438 .040985109 .13417053 .099990848-.01171875 .2649994-.01171875 .42999269-.01171875 .4889984 .13417053 .4889984 .33398438 .4889984 .53378298 .42999269 .6796875 .2649994 .6796875Z"/>
<clipPath id="clip_3">
<path transform="matrix(1.00006,0,0,-1.00008,4.1283876,163.20578)" d="M3.23787 0H197.51003V161.39575H3.23787Z"/>
</clipPath>
<path id="font_2_6" d="M.34298707 .14318848C.34298707 .06225586 .2809906 .041275026 .24198914 .041275026 .17999268 .041275026 .1499939 .085235599 .1499939 .14419556 .1499939 .19116211 .17199707 .21513367 .22799683 .23612976 .2679901 .2511139 .32099916 .27009584 .34298707 .28408814V.14318848M.43299867 .36901856C.43299867 .42697145 .41999818 .5019531 .2689972 .5019531 .1559906 .5019531 .066986087 .44296266 .066986087 .3880005 .066986087 .35603334 .10398865 .3410492 .12298584 .3410492 .14399719 .3410492 .1499939 .35203553 .15499878 .36901856 .1769867 .44296266 .21798706 .46694947 .2579956 .46694947 .29699708 .46694947 .34298707 .44696046 .34298707 .36701966V.32505799C.31799317 .29907228 .22099304 .27409364 .14199829 .24911499 .069992069 .22712708 .04899597 .1771698 .04899597 .13020325 .04899597 .055267335 .09899902-.01171875 .19299317-.01171875 .25498963-.009719849 .30999757 .027267456 .34199525 .04826355 .35598756 .011276245 .37199403-.01171875 .40699769-.01171875 .44400025-.01171875 .4869995-.0007324219 .5249939 .01828003L.5189972 .042266847C.5049896 .039276124 .48298646 .03727722 .46798707 .041275026 .44999696 .045272829 .43299867 .06425476 .43299867 .12721253V.36901856Z"/>
<path id="font_2_7" d="M.36698915 .35102845V.46794129C.33399964 .49194337 .2829895 .5019531 .23799134 .5019531 .12998963 .5019531 .056991579 .45095826 .055999757 .35603334 .056991579 .27308656 .12399292 .2361145 .20698548 .21113587 .2519989 .19714356 .31498719 .17416382 .31498719 .10621643 .31498719 .055252077 .2749939 .023269654 .22200012 .023269654 .14099121 .023269654 .09599304 .082229617 .07598877 .16716004H.04699707L.056991579 .03627014C.09298706 .004272461 .1539917-.01171875 .21299744-.01171875 .33198548-.01171875 .3999939 .051254274 .3999939 .13618469 .3999939 .2241211 .34599305 .26409913 .24299622 .29606629 .20199585 .30906678 .13598633 .3300476 .13598633 .3860016 .13699341 .43795777 .17599488 .46694947 .22599793 .46694947 .29699708 .46694947 .33099366 .4119873 .33799745 .35102845H.36698915Z"/>
<path id="font_4_2" d="M.5069885 .1381836C.48298646 .0932312 .45599366 .040267946 .42799378 .040267946 .40899659 .040267946 .40098573 .06324768 .3789978 .1521759L.34700013 .2830658C.3829956 .34701539 .43399049 .42694093 .46299745 .42694093 .47200013 .42694093 .47999574 .42494203 .4909973 .4189453 .5009918 .4149475 .5109863 .4109497 .522995 .4109497 .54499819 .4109497 .56599429 .4319458 .56599429 .4589386 .56599429 .48994447 .54299929 .5019531 .5149994 .5019531 .46199037 .5019531 .4169922 .45394898 .38198854 .39796449L.33799745 .33003236H.33599855L.29599 .49794007 .2899933 .5019531 .125 .45195008 .12799073 .427948 .20298767 .43295289C.22099304 .4339447 .22799683 .42893983 .23899842 .38298036L.2749939 .2381134 .24699402 .19015503C.20399475 .11723328 .16699219 .0652771 .14299011 .0652771 .1329956 .0652771 .12298584 .0692749 .11399841 .07426453 .10398865 .07926941 .09098816 .089279178 .07398987 .089279178 .04798889 .089279178 .0309906 .0632782 .0309906 .039276124 .0309906 .010269165 .054992677-.01171875 .09498596-.01171875 .16299439-.01171875 .20199585 .056259157 .24299622 .12319946L.2829895 .18914795H.2849884L.30299378 .111206058C.32199098 .031280519 .34098817-.01171875 .3919983-.01171875 .46499635-.01171875 .5029907 .06324768 .5329895 .12420654L.5069885 .1381836Z"/>
<path id="font_1_1" d="M.91799929 .29692079C.8549957 .3169403 .7669983 .3780365 .72698977 .41210938L.70799258 .38505555C.7350006 .36201478 .7589874 .32795716 .7689972 .31092835H.07199097V.2529297H.7689972C.7599945 .23799134 .7350006 .20411682 .70799258 .17922974L.72698977 .15234375C.7669983 .186203 .85598757 .24694824 .91799929 .266922V.29692079Z"/>
<path id="font_1_2" d="M.4909973 .1572113C.5249939 .10424805 .6179962-.01171875 .7609863-.01171875 .94599917-.01171875 1.0009918 .12922669 1.0009918 .24716187 1.0009918 .36608888 .8899994 .4600525 .7789917 .4600525 .6380005 .4600525 .5479889 .33309938 .5319977 .30612184H.5309906C.49198915 .37008668 .4039917 .4580536 .2659912 .4580536 .083999637 .4580536 .015991211 .33010865 .015991211 .21217346 .015991211 .09320068 .13398743-.0107421879 .24499512-.0107421879 .3849945-.0107421879 .47299195 .12918091 .48999024 .15716553L.4909973 .1572113M.55999758 .26213075C.59799197 .33009339 .66999819 .4140625 .7829895 .4140625 .8549957 .4140625 .94299319 .34109498 .94299319 .25112916 .94299319 .150177 .8880005 .057266237 .79100039 .057266237 .6879883 .057266237 .6069946 .17315674 .55999758 .2620697V.26213075M.46398927 .2071228C.42599488 .13917542 .35398866 .03527832 .24099732 .03527832 .16899109 .03527832 .07899475 .11819458 .07899475 .20811463 .07899475 .30802918 .14898682 .38694764 .23298645 .38694764 .33299256 .38694764 .4169922 .28204347 .46398927 .2071228Z"/>
<path id="font_4_1" d="M.43499757 .15118408C.39898683 .10421753 .34498597 .03727722 .269989 .03727722 .19999695 .03727722 .1789856 .097229007 .1789856 .17616272 .1789856 .1811676 .1789856 .1851654 .17999268 .19215393 .34799195 .22613526 .42099 .26609803 .46398927 .30607606 .49899293 .3410492 .5059967 .37402345 .5059967 .4019928 .5059967 .45495606 .46398927 .5019531 .38198854 .5019531 .2919922 .5019531 .21798706 .45596314 .16299439 .3880005 .10998535 .32305909 .07998657 .23612976 .07998657 .15219116 .07998657 .012268066 .17098999-.01171875 .22898865-.01171875 .3019867-.01171875 .3899994 .02027893 .45799256 .13119507L.43499757 .15118408M.18199158 .22613526C.19898987 .3470459 .27398683 .46694947 .35398866 .46694947 .3889923 .46694947 .4119873 .44296266 .4119873 .4079895 .4119873 .3380432 .35099793 .26210023 .18199158 .22613526Z"/>
<path id="font_4_3" d="M.070999149 .45393373 .07398987 .42893983 .14199829 .43093873C.1639862 .43193055 .16899109 .41493226 .1769867 .36291505 .18798828 .28489686 .20999146 .09286499 .20999146 .0128479 .20999146-.017166138 .20799256-.058166505 .18598938-.11117554 .16799927-.15318299 .14199829-.18218994 .12199402-.18218994 .10699463-.18218994 .09599304-.17118836 .08099365-.15118408 .068984989-.13517761 .06098938-.127182 .04598999-.127182 .019989014-.12818909-.005004883-.15818787-.005004883-.18719483-.005004883-.21418762 .023986817-.2421875 .067993167-.2421875 .15299988-.2421875 .18998719-.17919922 .27799989-.027160645 .2979889 .0068511965 .35798646 .11286926 .41999818 .21488953 .47698976 .30891419 .5399933 .40592958 .5399933 .4459381 .5399933 .48094178 .5289917 .5019531 .5219879 .5019531 .5029907 .5019531 .46899415 .49394227 .44400025 .47694398 .44499208 .4419403 .44299317 .3809204 .43099977 .33891297 .4149933 .28289796 .35598756 .17488098 .2899933 .06085205H.2869873C.27999879 .21388245 .26098634 .42492677 .24699402 .49795533L.23899842 .5019531 .070999149 .45393373Z"/>
</defs>
<path transform="matrix(1.00006,0,0,-1.00008,4.1283876,163.20578)" stroke-width=".19925" stroke-linecap="butt" stroke-miterlimit="10" stroke-linejoin="miter" fill="none" stroke="#929292" d="M3.23787 36.30156V40.55353M35.61656 36.30156V40.55353M67.99525 36.30156V40.55353M132.75264 36.30156V40.55353M165.13134 36.30156V40.55353M197.51003 36.30156V40.55353"/>
<path transform="matrix(1.00006,0,0,-1.00008,4.1283876,163.20578)" stroke-width=".19925" stroke-linecap="butt" stroke-miterlimit="10" stroke-linejoin="miter" fill="none" stroke="#929292" d="M98.24805 0H102.49982M98.24805 76.85512H102.49982M98.24805 115.28267H102.49982M98.24805 153.71024H102.49982"/>
<path transform="matrix(1.00006,0,0,-1.00008,4.1283876,163.20578)" stroke-width=".3985" stroke-linecap="butt" stroke-miterlimit="10" stroke-linejoin="miter" fill="none" stroke="#000000" d="M3.23787 38.42755H195.5175"/>
<path transform="matrix(1.00006,0,0,-1.00008,199.65761,124.775157)" d="M1.99252 0-1.19551 1.59401 0 0-1.19551-1.59401"/>
<path transform="matrix(1.00006,0,0,-1.00008,4.1283876,163.20578)" stroke-width=".3985" stroke-linecap="butt" stroke-miterlimit="10" stroke-linejoin="miter" fill="none" stroke="#000000" d="M100.37395 0V159.40323"/>
<path transform="matrix(0,-1.00008,-1.00006,-0,104.508358,3.789795)" d="M1.99252 0-1.19551 1.59401 0 0-1.19551-1.59401"/>
<use data-text="&#x2212;" xlink:href="#font_1_3" transform="matrix(10.037002,0,0,-10.037203,1.0932083,137.02069)"/>
<use data-text="3" xlink:href="#font_2_4" transform="matrix(10.037002,0,0,-10.037203,8.315643,137.02069)"/>
<use data-text="&#x2212;" xlink:href="#font_1_3" transform="matrix(10.037002,0,0,-10.037203,33.474149,137.02069)"/>
<use data-text="2" xlink:href="#font_2_3" transform="matrix(10.037002,0,0,-10.037203,40.696584,137.02069)"/>
<use data-text="&#x2212;" xlink:href="#font_1_3" transform="matrix(10.037002,0,0,-10.037203,65.85409,137.02069)"/>
<use data-text="1" xlink:href="#font_2_2" transform="matrix(10.037002,0,0,-10.037203,73.07652,137.02069)"/>
<use data-text="1" xlink:href="#font_2_2" transform="matrix(10.037002,0,0,-10.037203,134.22719,137.02069)"/>
<use data-text="2" xlink:href="#font_2_3" transform="matrix(10.037002,0,0,-10.037203,166.60712,137.02069)"/>
<use data-text="3" xlink:href="#font_2_4" transform="matrix(10.037002,0,0,-10.037203,198.98809,137.02069)"/>
<use data-text="&#x2212;" xlink:href="#font_1_3" transform="matrix(10.037002,0,0,-10.037203,86.437328,166.53905)"/>
<use data-text="5" xlink:href="#font_2_5" transform="matrix(10.037002,0,0,-10.037203,93.65976,166.53905)"/>
<use data-text="5" xlink:href="#font_2_5" transform="matrix(10.037002,0,0,-10.037203,93.65876,89.677898)"/>
<use data-text="1" xlink:href="#font_2_2" transform="matrix(10.037002,0,0,-10.037203,88.33544,51.246828)"/>
<use data-text="0" xlink:href="#font_2_1" transform="matrix(10.037002,0,0,-10.037203,93.65505,51.246828)"/>
<use data-text="1" xlink:href="#font_2_2" transform="matrix(10.037002,0,0,-10.037203,88.33544,12.816757)"/>
<use data-text="5" xlink:href="#font_2_5" transform="matrix(10.037002,0,0,-10.037203,93.65505,12.816757)"/>
<g clip-path="url(#clip_3)">
<path transform="matrix(1.00006,0,0,-1.00008,4.1283876,163.20578)" stroke-width="1.19553" stroke-linecap="butt" stroke-miterlimit="10" stroke-linejoin="miter" fill="none" stroke="#ff0000" d="M0 38.77374 2.0277 38.79614 4.0554 38.81996 6.08313 38.84532 8.11084 38.87231 10.13855 38.90106 12.16628 38.93167 14.19398 38.96425 16.22171 38.99893 18.24942 39.03586 20.27713 39.07518 22.30486 39.11703 24.33257 39.16159 26.36029 39.20856 28.388 39.25926 30.41571 39.31306 32.44344 39.37079 34.47115 39.4315 36.49886 39.49597 38.52658 39.56525 40.55429 39.63893 42.58202 39.7174 44.60973 39.80042 46.63744 39.88956 48.66516 39.98425 50.69287 40.08415 52.7206 40.19176 54.7483 40.3055 56.77602 40.427 58.80374 40.55614 60.83145 40.6937 62.85918 40.84048 64.88689 40.99658 66.9146 41.16267 68.94232 41.33951 70.97003 41.52704 72.99774 41.7277 75.02547 41.94138 77.05318 42.16815 79.0809 42.4095 81.10861 42.66704 83.13632 42.94156 85.16405 43.23283 87.19176 43.5434 89.21948 43.87395 91.2472 44.22603 93.2749 44.60117 95.30263 45.0002 97.33034 45.42459 99.35806 45.87735 101.38577 46.357 103.41348 46.86931 105.44121 47.41475 107.46892 47.9957 109.49663 48.61407 111.52435 49.27226 113.55206 49.97304 115.57979 50.71913 117.6075 51.51366 119.63521 52.35938 121.66293 53.25998 123.69064 54.2182 125.71837 55.23868 127.74608 56.3252 129.77379 57.48192 131.80152 58.71307 133.82923 60.02414 135.85695 61.42006 137.88466 62.90567 139.91237 64.48843 141.9401 66.17224 143.9678 67.96527 145.9955 69.87411 148.02324 71.90672 150.05095 74.0705 152.07868 76.37416 154.10637 78.82605 156.13408 81.43707 158.16182 84.21599 160.18953 87.17668 162.21726 90.32628 164.24495 93.68062 166.27266 97.25192 168.3004 101.05302 170.32811 105.1009 172.35582 109.40947 174.38353 113.9968 176.41124 118.88257 178.43898 124.0818 180.46668 129.61693 182.49439 135.51094 184.52211 141.78385 186.54982 148.46488 188.57755 155.57398 190.60526 163.14496 192.63297 171.2063 194.66069 179.78716 196.6884 188.9237 198.71613 198.64511 200.74384 209.00287"/>
<use data-text="a" xlink:href="#font_2_6" transform="matrix(10.037002,0,0,-10.037203,159.7167,116.48604)"/>
<use data-text="s" xlink:href="#font_2_7" transform="matrix(10.037002,0,0,-10.037203,164.96607,116.48604)"/>
<use data-text="x" xlink:href="#font_4_2" transform="matrix(10.037002,0,0,-10.037203,171.81543,116.48604)"/>
<use data-text="&#x2192;" xlink:href="#font_1_1" transform="matrix(10.037002,0,0,-10.037203,179.5629,116.48604)"/>
<use data-text="&#x221e;" xlink:href="#font_1_2" transform="matrix(10.037002,0,0,-10.037203,191.45676,116.48604)"/>
<use data-text="e" xlink:href="#font_4_1" transform="matrix(8.06453,-9.610923,-9.61073,-8.064692,175.91806,24.8873)"/>
<use data-text="x" xlink:href="#font_4_2" transform="matrix(6.1128408,-7.284992,-7.2848465,-6.112963,175.97919,16.051402)"/>
<use data-text="&#x2192;" xlink:href="#font_1_1" transform="matrix(8.06453,-9.610923,-9.61073,-8.064692,185.77494,13.140345)"/>
<use data-text="&#x221e;" xlink:href="#font_1_2" transform="matrix(8.06453,-9.610923,-9.61073,-8.064692,195.33945,1.7417927)"/>
</g>
<use data-text="x" xlink:href="#font_4_2" transform="matrix(10.037002,0,0,-10.037203,192.37068,121.28842)"/>
<use data-text="y" xlink:href="#font_4_3" transform="matrix(10.037002,0,0,-10.037203,108.45365,10.160538)"/>
</svg>
