<svg xmlns="http://www.w3.org/2000/svg" xmlns:xlink="http://www.w3.org/1999/xlink" version="1.1" width="154" height="114" viewBox="0 0 154 114">
<defs>
<path id="font_1_1" d="M.43199159 .49023438H.3019867L.32998658 .6031952C.34899903 .67918398 .36799623 .70718386 .3959961 .70718386 .4229889 .70718386 .44099427 .68518069 .46299745 .6371918 .46798707 .62719729 .47499085 .6201935 .48999024 .6201935 .5099945 .6201935 .5389862 .6391907 .5389862 .6641846 .5389862 .70718386 .4850006 .7421875 .4249878 .7421875 .3600006 .7421875 .31799317 .71517947 .2849884 .67318728 .2539978 .63420107 .23399353 .5802002 .21998596 .5272217L.20999146 .49023438H.12298584L.11199951 .45222474H.20098877L.084991458-.137146C.07299805-.19918823 .06298828-.2052002 .052993776-.2052002 .041992189-.2052002 .026992798-.19718933 0-.15615845-.007003784-.14616394-.014007568-.13415528-.027008057-.13415528-.04901123-.13415528-.072006229-.15916443-.072006229-.18418885-.071014408-.2171936-.028015137-.2421875 .018997193-.2421875 .11898804-.2421875 .16099549-.16116333 .20298767 .030960083L.29599 .45222474H.42199708L.43199159 .49023438Z"/>
<path id="font_2_1" d="M.1749878 .2822113C.1749878 .56832888 .2619934 .65437319 .32499696 .66737368V.6923828C.1499939 .685379 .10499573 .46829225 .10499573 .2822113 .10499573 .09614563 .1499939-.12094116 .32499696-.12792969V-.10293579C.2669983-.090927127 .1749878-.0059051516 .1749878 .2822113Z"/>
<path id="font_1_3" d="M.070999149 .45393373 .07398987 .42893983 .14199829 .43093873C.1639862 .43193055 .16899109 .41493226 .1769867 .36291505 .18798828 .28489686 .20999146 .09286499 .20999146 .0128479 .20999146-.017166138 .20799256-.058166505 .18598938-.11117554 .16799927-.15318299 .14199829-.18218994 .12199402-.18218994 .10699463-.18218994 .09599304-.17118836 .08099365-.15118408 .068984989-.13517761 .06098938-.127182 .04598999-.127182 .019989014-.12818909-.005004883-.15818787-.005004883-.18719483-.005004883-.21418762 .023986817-.2421875 .067993167-.2421875 .15299988-.2421875 .18998719-.17919922 .27799989-.027160645 .2979889 .0068511965 .35798646 .11286926 .41999818 .21488953 .47698976 .30891419 .5399933 .40592958 .5399933 .4459381 .5399933 .48094178 .5289917 .5019531 .5219879 .5019531 .5029907 .5019531 .46899415 .49394227 .44400025 .47694398 .44499208 .4419403 .44299317 .3809204 .43099977 .33891297 .4149933 .28289796 .35598756 .17488098 .2899933 .06085205H.2869873C.27999879 .21388245 .26098634 .42492677 .24699402 .49795533L.23899842 .5019531 .070999149 .45393373Z"/>
<path id="font_2_2" d="M.1749878 .2822113C.1749878-.0059051516 .08299255-.090927127 .024993897-.10293579V-.12792969C.19999695-.12094116 .24499512 .09614563 .24499512 .2822113 .24499512 .46829225 .19999695 .685379 .024993897 .6923828V.66737368C.08799744 .65437319 .1749878 .56832888 .1749878 .2822113Z"/>
<path id="font_1_2" d="M.42799378 .45222474 .43899537 .49023438H.31199647L.34599305 .6092224 .33399964 .6162262 .23699951 .53923037 .22399903 .49023438H.14299011L.13198853 .45222474H.21499634L.125 .08627319C.10998535 .029266358 .12199402-.01171875 .17199707-.01171875 .2519989-.01171875 .31599427 .054275514 .35598756 .1292572L.33399964 .1462555C.31098939 .10726929 .2599945 .040267946 .22898865 .040267946 .20799256 .040267946 .20799256 .0632782 .21398926 .088272098L.30299378 .45222474H.42799378Z"/>
<path id="font_2_4" d="M.2649994 .64468386C.3600006 .64468386 .3869934 .49682618 .3869934 .33398438 .3869934 .17112732 .3600006 .023269654 .2649994 .023269654 .16999817 .023269654 .14299011 .17112732 .14299011 .33398438 .14299011 .49682618 .16999817 .64468386 .2649994 .64468386M.2649994 .6796875C.099990848 .6796875 .040985109 .53378298 .040985109 .33398438 .040985109 .13417053 .099990848-.01171875 .2649994-.01171875 .42999269-.01171875 .4889984 .13417053 .4889984 .33398438 .4889984 .53378298 .42999269 .6796875 .2649994 .6796875Z"/>
<path id="font_2_5" d="M.43699647 0V.0289917L.35299684 .035995485C.33198548 .037994386 .31999208 .04598999 .31999208 .08496094V.67367556L.31498719 .6796875 .10899353 .6446991V.6197052L.20199585 .6087036C.21899414 .6067047 .22599793 .5987091 .22599793 .56973269V.08496094C.22599793 .065979007 .22299195 .053985597 .21699524 .04698181 .21199036 .039993287 .20399475 .036987306 .19299317 .035995485L.10899353 .0289917V0H.43699647Z"/>
<path id="font_2_6" d="M.4850006 .13195801 .45700074 .13696289C.43598939 .08299255 .41600038 .07598877 .37599183 .07598877H.11999512C.13598633 .1279602 .19499207 .19892884 .28799439 .2658844 .38398744 .33584596 .45799256 .38082887 .45799256 .49276734 .45799256 .63168337 .3659973 .6796875 .26098634 .6796875 .12399292 .6796875 .052993776 .5967102 .052993776 .54473879 .052993776 .51075747 .09098816 .49476625 .10798645 .49476625 .12599182 .49476625 .1329956 .50476077 .13699341 .5217438 .15299988 .5897064 .19198609 .64468386 .2539978 .64468386 .33099366 .64468386 .35299684 .5797119 .35299684 .50675967 .35299684 .3998108 .29899598 .33984376 .21199036 .26289369 .08898926 .15594483 .04598999 .08798218 .026992798 .009994507L.036987306 0H.45098878L.4850006 .13195801Z"/>
<path id="font_2_3" d="M.07398987 .2861328V.21612549H.31900025V.2861328H.07398987Z"/>
</defs>
<path transform="matrix(1,0,0,-1.00003,52.647005,58.381364)" stroke-width=".3985" stroke-linecap="butt" stroke-miterlimit="10" stroke-linejoin="miter" fill="none" stroke="#000000" d="M-49.88289-24.94095 56.32875 28.16383"/>
<path transform="matrix(.89438,-.44718344,-.44717,-.89440688,109.153949,30.127585)" stroke-width=".3985" stroke-linecap="round" stroke-linejoin="round" fill="none" stroke="#000000" d="M-2.07224 2.39104C-1.69365 .95639-.84999 .27895 0 0-.84999-.27895-1.69365-.95639-2.07224-2.39104"/>
<path transform="matrix(1,0,0,-1.00003,52.647005,58.381364)" stroke-width=".3985" stroke-linecap="butt" stroke-miterlimit="10" stroke-linejoin="miter" fill="none" stroke="#000000" d="M0 0V56.28665"/>
<path transform="matrix(0,-1.00003,-1,-0,52.647005,1.8937645)" stroke-width=".3985" stroke-linecap="round" stroke-linejoin="round" fill="none" stroke="#000000" d="M-2.07224 2.39104C-1.69365 .95639-.84999 .27895 0 0-.84999-.27895-1.69365-.95639-2.07224-2.39104"/>
<use data-text="f" xlink:href="#font_1_1" transform="matrix(5.4994,0,0,-5.499565,38.949007,5.908787)"/>
<use data-text="(" xlink:href="#font_2_1" transform="matrix(5.4994,0,0,-5.499565,42.021005,5.908787)"/>
<use data-text="y" xlink:href="#font_1_3" transform="matrix(5.4994,0,0,-5.499565,44.245004,5.908787)"/>
<use data-text=")" xlink:href="#font_2_2" transform="matrix(5.4994,0,0,-5.499565,47.323007,5.908787)"/>
<path transform="matrix(1,0,0,-1.00003,52.647005,58.381364)" stroke-width=".79701" stroke-linecap="butt" stroke-miterlimit="10" stroke-linejoin="miter" fill="none" stroke="#ec008c" d="M-22.67406-11.3368-22.21632-10.20184-21.7586-9.08519-21.30087-7.98724-20.84314-6.90761-20.3854-5.84634-19.92767-4.80373-19.46994-3.77945-19.0122-2.77388-18.55447-1.78664-18.09676-.8177-17.63902 .13249-17.1813 1.06439-16.72357 1.97758-16.26584 2.87247-15.8081 3.74864-15.35037 4.60649-14.89264 5.44603-14.4349 6.26685-13.97717 7.06934-13.51944 7.85315-13.06172 8.61862-12.604 9.36577-12.14627 10.09422-11.68854 10.80432-11.2308 11.49577-10.77307 12.16887-10.31534 12.82327-9.8576 13.4597-9.39987 14.0771-8.94214 14.67615-8.48442 15.25688-8.02669 15.81926-7.56895 16.36296-7.11122 16.88799-6.6535 17.39465-6.19577 17.88301-5.73804 18.35268-5.2803 18.804-4.82257 19.23697-4.36484 19.65129-3.90712 20.04726-3.44939 20.42455-2.99165 20.7835-2.53392 21.12376-2.07619 21.44568-1.61845 21.74928-1.16074 22.0342-.703 22.30042-.24527 22.54865 .2124 22.77818 .67014 22.98904 1.12785 23.18158 1.58559 23.35577 2.04332 23.51129 2.50105 23.64847 2.95879 23.7673 3.41652 23.86746 3.87425 23.94893 4.33199 24.01207 4.7897 24.05688 5.24744 24.08298 5.70517 24.09077 6.1629 24.08022 6.62062 24.05096 7.07835 24.0034 7.53609 23.93715 7.99382 23.85254 8.45155 23.74927 8.90929 23.62766 9.367 23.48769 9.82474 23.32906 10.28247 23.15208 10.7402 22.95642 11.19794 22.74245 11.65567 22.51012 12.1134 22.2591 12.57112 21.98941 13.02885 21.70172 13.48657 21.395 13.9443 21.0703 14.40204 20.72691 14.85977 20.36519 15.3175 19.98477 15.77524 19.58604 16.23297 19.1686 16.6907 18.73285 17.14844 18.2784 17.60617 17.80595 18.06387 17.31448 18.5216 16.80504 18.97934 16.27655 19.43707 15.73006 19.8948 15.16489 20.35254 14.58105 20.81027 13.97923 21.268 13.35837 21.72574 12.7195 22.18347 12.06195 22.64117 11.38573"/>
<path transform="matrix(1,0,0,-1.00003,52.647005,58.381364)" stroke-width=".3985" stroke-linecap="butt" stroke-miterlimit="10" stroke-linejoin="miter" fill="none" stroke="#cbcbcb" d="M-45.34814-27.20923 54.41762 22.67459"/>
<path transform="matrix(1,0,0,-1.00003,52.647005,58.381364)" stroke-width=".3985" stroke-linecap="butt" stroke-miterlimit="10" stroke-linejoin="miter" fill="none" stroke="#cbcbcb" d="M-40.8134-29.47655 58.95236 20.40727"/>
<path transform="matrix(1,0,0,-1.00003,52.647005,58.381364)" stroke-width=".3985" stroke-linecap="butt" stroke-miterlimit="10" stroke-linejoin="miter" fill="none" stroke="#cbcbcb" d="M-36.27866-31.74388 63.4871 18.13994"/>
<path transform="matrix(1,0,0,-1.00003,52.647005,58.381364)" stroke-width=".3985" stroke-linecap="butt" stroke-miterlimit="10" stroke-linejoin="miter" fill="none" stroke="#cbcbcb" d="M-31.74391-34.01122 68.02185 15.8726"/>
<path transform="matrix(1,0,0,-1.00003,52.647005,58.381364)" stroke-width=".3985" stroke-linecap="butt" stroke-miterlimit="10" stroke-linejoin="miter" fill="none" stroke="#cbcbcb" d="M-27.20917-36.27853 72.55661 13.60527"/>
<path transform="matrix(1,0,0,-1.00003,52.647005,58.381364)" stroke-width=".3985" stroke-linecap="butt" stroke-miterlimit="10" stroke-linejoin="miter" fill="none" stroke="#cbcbcb" d="M-22.67442-38.54587 77.09134 11.33795"/>
<path transform="matrix(1,0,0,-1.00003,52.647005,58.381364)" stroke-width=".3985" stroke-linecap="butt" stroke-miterlimit="10" stroke-linejoin="miter" fill="none" stroke="#cbcbcb" d="M-18.13968-40.8132 81.62608 9.07062"/>
<path transform="matrix(1,0,0,-1.00003,52.647005,58.381364)" stroke-width=".3985" stroke-linecap="butt" stroke-miterlimit="10" stroke-linejoin="miter" fill="none" stroke="#cbcbcb" d="M-13.60493-43.08054 86.16083 6.80328"/>
<path transform="matrix(1,0,0,-1.00003,52.647005,58.381364)" stroke-width=".3985" stroke-linecap="butt" stroke-miterlimit="10" stroke-linejoin="miter" fill="none" stroke="#cbcbcb" d="M-9.07019-45.34785 90.69557 4.53596"/>
<path transform="matrix(1,0,0,-1.00003,52.647005,58.381364)" stroke-width=".3985" stroke-linecap="butt" stroke-miterlimit="10" stroke-linejoin="miter" fill="none" stroke="#cbcbcb" d="M-4.53545-47.6152 95.23032 2.26862"/>
<path transform="matrix(1,0,0,-1.00003,52.647005,58.381364)" stroke-width=".3985" stroke-linecap="butt" stroke-miterlimit="10" stroke-linejoin="miter" fill="none" stroke="#cbcbcb" d="M-45.34813-22.67448 4.53474-47.61545"/>
<path transform="matrix(1,0,0,-1.00003,52.647005,58.381364)" stroke-width=".3985" stroke-linecap="butt" stroke-miterlimit="10" stroke-linejoin="miter" fill="none" stroke="#cbcbcb" d="M-40.81339-20.40707 9.06949-45.34802"/>
<path transform="matrix(1,0,0,-1.00003,52.647005,58.381364)" stroke-width=".3985" stroke-linecap="butt" stroke-miterlimit="10" stroke-linejoin="miter" fill="none" stroke="#cbcbcb" d="M-36.27863-18.13966 13.60425-43.08063"/>
<path transform="matrix(1,0,0,-1.00003,52.647005,58.381364)" stroke-width=".3985" stroke-linecap="butt" stroke-miterlimit="10" stroke-linejoin="miter" fill="none" stroke="#cbcbcb" d="M-31.74388-15.87224 18.13899-40.8132"/>
<path transform="matrix(1,0,0,-1.00003,52.647005,58.381364)" stroke-width=".3985" stroke-linecap="butt" stroke-miterlimit="10" stroke-linejoin="miter" fill="none" stroke="#cbcbcb" d="M-27.20915-13.60483 22.67372-38.54578"/>
<path transform="matrix(1,0,0,-1.00003,52.647005,58.381364)" stroke-width=".3985" stroke-linecap="butt" stroke-miterlimit="10" stroke-linejoin="miter" fill="none" stroke="#cbcbcb" d="M-22.6744-11.33742 27.20848-36.27837"/>
<path transform="matrix(1,0,0,-1.00003,52.647005,58.381364)" stroke-width=".3985" stroke-linecap="butt" stroke-miterlimit="10" stroke-linejoin="miter" fill="none" stroke="#cbcbcb" d="M-18.13966-9.06999 31.74321-34.01096"/>
<path transform="matrix(1,0,0,-1.00003,52.647005,58.381364)" stroke-width=".3985" stroke-linecap="butt" stroke-miterlimit="10" stroke-linejoin="miter" fill="none" stroke="#cbcbcb" d="M-13.6049-6.80257 36.27797-31.74353"/>
<path transform="matrix(1,0,0,-1.00003,52.647005,58.381364)" stroke-width=".3985" stroke-linecap="butt" stroke-miterlimit="10" stroke-linejoin="miter" fill="none" stroke="#cbcbcb" d="M-9.07016-4.53517 40.81271-29.47612"/>
<path transform="matrix(1,0,0,-1.00003,52.647005,58.381364)" stroke-width=".3985" stroke-linecap="butt" stroke-miterlimit="10" stroke-linejoin="miter" fill="none" stroke="#cbcbcb" d="M-4.53543-2.26775 45.34744-27.20871"/>
<path transform="matrix(1,0,0,-1.00003,52.647005,58.381364)" stroke-width=".3985" stroke-linecap="butt" stroke-miterlimit="10" stroke-linejoin="miter" fill="none" stroke="#cbcbcb" d="M-.00066-.00032 49.88222-24.94128"/>
<path transform="matrix(1,0,0,-1.00003,52.647005,58.381364)" stroke-width=".3985" stroke-linecap="butt" stroke-miterlimit="10" stroke-linejoin="miter" fill="none" stroke="#cbcbcb" d="M4.53404 2.26704 54.41693-22.67389"/>
<path transform="matrix(1,0,0,-1.00003,52.647005,58.381364)" stroke-width=".3985" stroke-linecap="butt" stroke-miterlimit="10" stroke-linejoin="miter" fill="none" stroke="#cbcbcb" d="M9.06877 4.53447 58.95168-20.40648"/>
<path transform="matrix(1,0,0,-1.00003,52.647005,58.381364)" stroke-width=".3985" stroke-linecap="butt" stroke-miterlimit="10" stroke-linejoin="miter" fill="none" stroke="#cbcbcb" d="M13.60353 6.8019 63.48642-18.13905"/>
<path transform="matrix(1,0,0,-1.00003,52.647005,58.381364)" stroke-width=".3985" stroke-linecap="butt" stroke-miterlimit="10" stroke-linejoin="miter" fill="none" stroke="#cbcbcb" d="M18.13826 9.06929 68.02115-15.87164"/>
<path transform="matrix(1,0,0,-1.00003,52.647005,58.381364)" stroke-width=".3985" stroke-linecap="butt" stroke-miterlimit="10" stroke-linejoin="miter" fill="none" stroke="#cbcbcb" d="M22.67302 11.33672 72.55591-13.60423"/>
<path transform="matrix(1,0,0,-1.00003,52.647005,58.381364)" stroke-width=".3985" stroke-linecap="butt" stroke-miterlimit="10" stroke-linejoin="miter" fill="none" stroke="#cbcbcb" d="M27.20776 13.60414 77.09065-11.3368"/>
<path transform="matrix(1,0,0,-1.00003,52.647005,58.381364)" stroke-width=".3985" stroke-linecap="butt" stroke-miterlimit="10" stroke-linejoin="miter" fill="none" stroke="#cbcbcb" d="M31.7425 15.87154 81.62538-9.0694"/>
<path transform="matrix(1,0,0,-1.00003,52.647005,58.381364)" stroke-width=".3985" stroke-linecap="butt" stroke-miterlimit="10" stroke-linejoin="miter" fill="none" stroke="#cbcbcb" d="M36.27725 18.13896 86.16014-6.80199"/>
<path transform="matrix(1,0,0,-1.00003,52.647005,58.381364)" stroke-width=".3985" stroke-linecap="butt" stroke-miterlimit="10" stroke-linejoin="miter" fill="none" stroke="#cbcbcb" d="M40.812 20.40639 90.69489-4.53456"/>
<path transform="matrix(1,0,0,-1.00003,52.647005,58.381364)" stroke-width=".3985" stroke-linecap="butt" stroke-miterlimit="10" stroke-linejoin="miter" fill="none" stroke="#cbcbcb" d="M45.34676 22.6738 95.22964-2.26714"/>
<path transform="matrix(1,0,0,-1.00003,52.647005,58.381364)" stroke-width=".3985" stroke-linecap="butt" stroke-miterlimit="10" stroke-linejoin="miter" fill="none" stroke="#000000" d="M0 0 56.32875-28.16383"/>
<path transform="matrix(.89438,.44718344,.44717,-.89440688,109.153949,86.63514)" stroke-width=".3985" stroke-linecap="round" stroke-linejoin="round" fill="none" stroke="#000000" d="M-2.07224 2.39104C-1.69365 .95639-.84999 .27895 0 0-.84999-.27895-1.69365-.95639-2.07224-2.39104"/>
<use data-text="t" xlink:href="#font_1_2" transform="matrix(5.4994,0,0,-5.499565,105.325,93.51242)"/>
<path transform="matrix(1,0,0,-1.00003,52.647005,58.381364)" stroke-width=".3985" stroke-linecap="butt" stroke-miterlimit="10" stroke-linejoin="miter" fill="none" stroke="#000000" d="M-49.88289-24.94191 56.32875 28.1649"/>
<path transform="matrix(.89438,-.44721345,-.4472,-.89440688,109.153949,30.126515)" stroke-width=".3985" stroke-linecap="round" stroke-linejoin="round" fill="none" stroke="#000000" d="M-2.07224 2.39104C-1.69365 .95639-.84999 .27895 0 0-.84999-.27895-1.69365-.95639-2.07224-2.39104"/>
<use data-text="y" xlink:href="#font_1_3" transform="matrix(5.4994,0,0,-5.499565,102.854999,33.556619)"/>
<path transform="matrix(1,0,0,-1.00003,52.647005,58.381364)" stroke-width=".3985" stroke-linecap="butt" stroke-miterlimit="10" stroke-linejoin="miter" fill="none" stroke="#cbcbcb" d="M-49.88289-24.94191 49.88289 24.94191 99.76578 .00095 0-49.88287ZM99.76578 .00095"/>
<path transform="matrix(1,0,0,-1.00003,52.647005,58.381364)" stroke-width=".3985" stroke-linecap="butt" stroke-miterlimit="10" stroke-linejoin="miter" fill="none" stroke="#000000" d="M-51.24326-25.6221-48.52248-24.2617"/>
<use data-text="0" xlink:href="#font_2_4" transform="matrix(5.4994,0,0,-5.499565,2.6660004,89.7253)"/>
<path transform="matrix(1,0,0,-1.00003,52.647005,58.381364)" stroke-width=".3985" stroke-linecap="butt" stroke-miterlimit="10" stroke-linejoin="miter" fill="none" stroke="#000000" d="M-28.5692-36.95892-25.8484-35.59851"/>
<use data-text="1" xlink:href="#font_2_5" transform="matrix(5.4994,0,0,-5.499565,25.340004,101.062648)"/>
<path transform="matrix(1,0,0,-1.00003,52.647005,58.381364)" stroke-width=".3985" stroke-linecap="butt" stroke-miterlimit="10" stroke-linejoin="miter" fill="none" stroke="#000000" d="M-5.89513-48.29573-3.17433-46.93532"/>
<use data-text="2" xlink:href="#font_2_6" transform="matrix(5.4994,0,0,-5.499565,48.014,112.39898)"/>
<path transform="matrix(1,0,0,-1.00003,52.647005,58.381364)" stroke-width=".3985" stroke-linecap="butt" stroke-miterlimit="10" stroke-linejoin="miter" fill="none" stroke="#000000" d="M-46.70851-21.99432-43.0806-23.80824"/>
<use data-text="-" xlink:href="#font_2_3" transform="matrix(5.4994,0,0,-5.499565,1.0920029,84.031139)"/>
<use data-text="2" xlink:href="#font_2_6" transform="matrix(5.4994,0,0,-5.499565,3.2477647,84.031139)"/>
<path transform="matrix(1,0,0,-1.00003,52.647005,58.381364)" stroke-width=".3985" stroke-linecap="butt" stroke-miterlimit="10" stroke-linejoin="miter" fill="none" stroke="#000000" d="M-24.03444-10.65706-20.40652-12.47098"/>
<use data-text="-" xlink:href="#font_2_3" transform="matrix(5.4994,0,0,-5.499565,23.767006,72.693798)"/>
<use data-text="1" xlink:href="#font_2_5" transform="matrix(5.4994,0,0,-5.499565,25.922768,72.693798)"/>
<path transform="matrix(1,0,0,-1.00003,52.647005,58.381364)" stroke-width=".3985" stroke-linecap="butt" stroke-miterlimit="10" stroke-linejoin="miter" fill="none" stroke="#000000" d="M-1.36037 .68016 2.26753-1.13374"/>
<use data-text="0" xlink:href="#font_2_4" transform="matrix(5.4994,0,0,-5.499565,48.599008,61.341455)"/>
<path transform="matrix(1,0,0,-1.00003,52.647005,58.381364)" stroke-width=".3985" stroke-linecap="butt" stroke-miterlimit="10" stroke-linejoin="miter" fill="none" stroke="#000000" d="M21.31369 12.0174 24.9416 10.20349"/>
<use data-text="1" xlink:href="#font_2_5" transform="matrix(5.4994,0,0,-5.499565,71.273,50.01911)"/>
<path transform="matrix(1,0,0,-1.00003,52.647005,58.381364)" stroke-width=".3985" stroke-linecap="butt" stroke-miterlimit="10" stroke-linejoin="miter" fill="none" stroke="#000000" d="M43.98775 23.35466 47.61568 21.54074"/>
<use data-text="2" xlink:href="#font_2_6" transform="matrix(5.4994,0,0,-5.499565,93.94701,38.68077)"/>
<path transform="matrix(1,0,0,-1.00003,52.647005,58.381364)" stroke-width=".79701" stroke-linecap="butt" stroke-miterlimit="10" stroke-linejoin="miter" fill="none" stroke="#409f9f" d="M-39.59451-23.7231-42.03227-26.16049"/>
<path transform="matrix(1,0,0,-1.00003,52.647005,58.381364)" stroke-width=".79701" stroke-linecap="butt" stroke-miterlimit="10" stroke-linejoin="miter" fill="none" stroke="#409f9f" d="M-35.30403-21.40205-37.25327-23.94672"/>
<path transform="matrix(1,0,0,-1.00003,52.647005,58.381364)" stroke-width=".79701" stroke-linecap="butt" stroke-miterlimit="10" stroke-linejoin="miter" fill="none" stroke="#409f9f" d="M-31.16127-19.07602-32.32652-21.73795"/>
<path transform="matrix(1,0,0,-1.00003,52.647005,58.381364)" stroke-width=".79701" stroke-linecap="butt" stroke-miterlimit="10" stroke-linejoin="miter" fill="none" stroke="#409f9f" d="M-27.2645-16.77745-27.1538-19.50165"/>
<path transform="matrix(1,0,0,-1.00003,52.647005,58.381364)" stroke-width=".79701" stroke-linecap="butt" stroke-miterlimit="10" stroke-linejoin="miter" fill="none" stroke="#409f9f" d="M-23.66115-14.60277-21.68768-17.1415"/>
<path transform="matrix(1,0,0,-1.00003,52.647005,58.381364)" stroke-width=".79701" stroke-linecap="butt" stroke-miterlimit="10" stroke-linejoin="miter" fill="none" stroke="#409f9f" d="M-20.06674-12.64122-16.21259-14.56825"/>
<path transform="matrix(1,0,0,-1.00003,52.647005,58.381364)" stroke-width=".79701" stroke-linecap="butt" stroke-miterlimit="10" stroke-linejoin="miter" fill="none" stroke="#409f9f" d="M-16.06825-10.75746-11.1416-11.91716"/>
<path transform="matrix(1,0,0,-1.00003,52.647005,58.381364)" stroke-width=".79701" stroke-linecap="butt" stroke-miterlimit="10" stroke-linejoin="miter" fill="none" stroke="#409f9f" d="M-11.73073-8.77791-6.40964-9.36188"/>
<path transform="matrix(1,0,0,-1.00003,52.647005,58.381364)" stroke-width=".79701" stroke-linecap="butt" stroke-miterlimit="10" stroke-linejoin="miter" fill="none" stroke="#409f9f" d="M-7.24821-6.684-1.82263-6.92096"/>
<path transform="matrix(1,0,0,-1.00003,52.647005,58.381364)" stroke-width=".79701" stroke-linecap="butt" stroke-miterlimit="10" stroke-linejoin="miter" fill="none" stroke="#409f9f" d="M-2.7249-4.50743 2.7235-4.5627"/>
<path transform="matrix(1,0,0,-1.00003,52.647005,58.381364)" stroke-width=".79701" stroke-linecap="butt" stroke-miterlimit="10" stroke-linejoin="miter" fill="none" stroke="#409f9f" d="M1.80916-2.26767 7.25896-2.26761"/>
<path transform="matrix(1,0,0,-1.00003,52.647005,58.381364)" stroke-width=".79701" stroke-linecap="butt" stroke-miterlimit="10" stroke-linejoin="miter" fill="none" stroke="#409f9f" d="M6.34457 .02737 11.79298-.0279"/>
<path transform="matrix(1,0,0,-1.00003,52.647005,58.381364)" stroke-width=".79701" stroke-linecap="butt" stroke-miterlimit="10" stroke-linejoin="miter" fill="none" stroke="#409f9f" d="M10.89072 2.38564 16.3163 2.14867"/>
<path transform="matrix(1,0,0,-1.00003,52.647005,58.381364)" stroke-width=".79701" stroke-linecap="butt" stroke-miterlimit="10" stroke-linejoin="miter" fill="none" stroke="#409f9f" d="M15.47772 4.82655 20.79881 4.24258"/>
<path transform="matrix(1,0,0,-1.00003,52.647005,58.381364)" stroke-width=".79701" stroke-linecap="butt" stroke-miterlimit="10" stroke-linejoin="miter" fill="none" stroke="#409f9f" d="M20.20967 7.38184 25.13632 6.22214"/>
<path transform="matrix(1,0,0,-1.00003,52.647005,58.381364)" stroke-width=".79701" stroke-linecap="butt" stroke-miterlimit="10" stroke-linejoin="miter" fill="none" stroke="#409f9f" d="M25.28067 10.03291 29.13483 8.10588"/>
<path transform="matrix(1,0,0,-1.00003,52.647005,58.381364)" stroke-width=".79701" stroke-linecap="butt" stroke-miterlimit="10" stroke-linejoin="miter" fill="none" stroke="#409f9f" d="M30.75438 12.60655 32.7306 10.0671"/>
<path transform="matrix(1,0,0,-1.00003,52.647005,58.381364)" stroke-width=".79701" stroke-linecap="butt" stroke-miterlimit="10" stroke-linejoin="miter" fill="none" stroke="#409f9f" d="M36.22188 14.96632 36.33258 12.24213"/>
<path transform="matrix(1,0,0,-1.00003,52.647005,58.381364)" stroke-width=".79701" stroke-linecap="butt" stroke-miterlimit="10" stroke-linejoin="miter" fill="none" stroke="#409f9f" d="M41.3946 17.2026 40.22935 14.54068"/>
<path transform="matrix(1,0,0,-1.00003,52.647005,58.381364)" stroke-width=".79701" stroke-linecap="butt" stroke-miterlimit="10" stroke-linejoin="miter" fill="none" stroke="#409f9f" d="M46.32135 19.41139 44.37212 16.86674"/>
<path transform="matrix(1,0,0,-1.00003,52.647005,58.381364)" stroke-width=".79701" stroke-linecap="butt" stroke-miterlimit="10" stroke-linejoin="miter" fill="none" stroke="#409f9f" d="M51.10036 21.62518 48.6626 19.18779"/>
<path transform="matrix(1,0,0,-1.00003,52.647005,58.381364)" stroke-width=".79701" stroke-linecap="butt" stroke-miterlimit="10" stroke-linejoin="miter" fill="none" stroke="#409f9f" d="M-35.05977-25.99043-37.49753-28.42783"/>
<path transform="matrix(1,0,0,-1.00003,52.647005,58.381364)" stroke-width=".79701" stroke-linecap="butt" stroke-miterlimit="10" stroke-linejoin="miter" fill="none" stroke="#409f9f" d="M-30.76929-23.66939-32.7185-26.21404"/>
<path transform="matrix(1,0,0,-1.00003,52.647005,58.381364)" stroke-width=".79701" stroke-linecap="butt" stroke-miterlimit="10" stroke-linejoin="miter" fill="none" stroke="#409f9f" d="M-26.62651-21.34334-27.79178-24.00526"/>
<path transform="matrix(1,0,0,-1.00003,52.647005,58.381364)" stroke-width=".79701" stroke-linecap="butt" stroke-miterlimit="10" stroke-linejoin="miter" fill="none" stroke="#409f9f" d="M-22.72975-19.04478-22.61905-21.76898"/>
<path transform="matrix(1,0,0,-1.00003,52.647005,58.381364)" stroke-width=".79701" stroke-linecap="butt" stroke-miterlimit="10" stroke-linejoin="miter" fill="none" stroke="#409f9f" d="M-19.12639-16.8701-17.15294-19.40883"/>
<path transform="matrix(1,0,0,-1.00003,52.647005,58.381364)" stroke-width=".79701" stroke-linecap="butt" stroke-miterlimit="10" stroke-linejoin="miter" fill="none" stroke="#409f9f" d="M-15.532-14.90854-11.67783-16.83557"/>
<path transform="matrix(1,0,0,-1.00003,52.647005,58.381364)" stroke-width=".79701" stroke-linecap="butt" stroke-miterlimit="10" stroke-linejoin="miter" fill="none" stroke="#409f9f" d="M-11.53351-13.0248-6.60684-14.1845"/>
<path transform="matrix(1,0,0,-1.00003,52.647005,58.381364)" stroke-width=".79701" stroke-linecap="butt" stroke-miterlimit="10" stroke-linejoin="miter" fill="none" stroke="#409f9f" d="M-7.19597-11.04523-1.87488-11.6292"/>
<path transform="matrix(1,0,0,-1.00003,52.647005,58.381364)" stroke-width=".79701" stroke-linecap="butt" stroke-miterlimit="10" stroke-linejoin="miter" fill="none" stroke="#409f9f" d="M-2.71347-8.95132 2.7121-9.1883"/>
<path transform="matrix(1,0,0,-1.00003,52.647005,58.381364)" stroke-width=".79701" stroke-linecap="butt" stroke-miterlimit="10" stroke-linejoin="miter" fill="none" stroke="#409f9f" d="M1.80983-6.77475 7.25826-6.83003"/>
<path transform="matrix(1,0,0,-1.00003,52.647005,58.381364)" stroke-width=".79701" stroke-linecap="butt" stroke-miterlimit="10" stroke-linejoin="miter" fill="none" stroke="#409f9f" d="M6.34392-4.535 11.7937-4.53494"/>
<path transform="matrix(1,0,0,-1.00003,52.647005,58.381364)" stroke-width=".79701" stroke-linecap="butt" stroke-miterlimit="10" stroke-linejoin="miter" fill="none" stroke="#409f9f" d="M10.87932-2.23994 16.32774-2.29521"/>
<path transform="matrix(1,0,0,-1.00003,52.647005,58.381364)" stroke-width=".79701" stroke-linecap="butt" stroke-miterlimit="10" stroke-linejoin="miter" fill="none" stroke="#409f9f" d="M15.42548 .11832 20.85106-.11864"/>
<path transform="matrix(1,0,0,-1.00003,52.647005,58.381364)" stroke-width=".79701" stroke-linecap="butt" stroke-miterlimit="10" stroke-linejoin="miter" fill="none" stroke="#409f9f" d="M20.01247 2.55923 25.33356 1.97527"/>
<path transform="matrix(1,0,0,-1.00003,52.647005,58.381364)" stroke-width=".79701" stroke-linecap="butt" stroke-miterlimit="10" stroke-linejoin="miter" fill="none" stroke="#409f9f" d="M24.74442 5.1145 29.67108 3.9548"/>
<path transform="matrix(1,0,0,-1.00003,52.647005,58.381364)" stroke-width=".79701" stroke-linecap="butt" stroke-miterlimit="10" stroke-linejoin="miter" fill="none" stroke="#409f9f" d="M29.81541 7.7656 33.66957 5.83856"/>
<path transform="matrix(1,0,0,-1.00003,52.647005,58.381364)" stroke-width=".79701" stroke-linecap="butt" stroke-miterlimit="10" stroke-linejoin="miter" fill="none" stroke="#409f9f" d="M35.28914 10.33922 37.26537 7.79976"/>
<path transform="matrix(1,0,0,-1.00003,52.647005,58.381364)" stroke-width=".79701" stroke-linecap="butt" stroke-miterlimit="10" stroke-linejoin="miter" fill="none" stroke="#409f9f" d="M40.75664 12.69899 40.86734 9.97481"/>
<path transform="matrix(1,0,0,-1.00003,52.647005,58.381364)" stroke-width=".79701" stroke-linecap="butt" stroke-miterlimit="10" stroke-linejoin="miter" fill="none" stroke="#409f9f" d="M45.92937 14.93529 44.7641 12.27336"/>
<path transform="matrix(1,0,0,-1.00003,52.647005,58.381364)" stroke-width=".79701" stroke-linecap="butt" stroke-miterlimit="10" stroke-linejoin="miter" fill="none" stroke="#409f9f" d="M50.8561 17.14407 48.90688 14.59941"/>
<path transform="matrix(1,0,0,-1.00003,52.647005,58.381364)" stroke-width=".79701" stroke-linecap="butt" stroke-miterlimit="10" stroke-linejoin="miter" fill="none" stroke="#409f9f" d="M55.63512 19.35786 53.19736 16.92046"/>
<path transform="matrix(1,0,0,-1.00003,52.647005,58.381364)" stroke-width=".79701" stroke-linecap="butt" stroke-miterlimit="10" stroke-linejoin="miter" fill="none" stroke="#409f9f" d="M-30.52504-28.25777-32.9628-30.69516"/>
<path transform="matrix(1,0,0,-1.00003,52.647005,58.381364)" stroke-width=".79701" stroke-linecap="butt" stroke-miterlimit="10" stroke-linejoin="miter" fill="none" stroke="#409f9f" d="M-26.23454-25.9367-28.18378-28.48137"/>
<path transform="matrix(1,0,0,-1.00003,52.647005,58.381364)" stroke-width=".79701" stroke-linecap="butt" stroke-miterlimit="10" stroke-linejoin="miter" fill="none" stroke="#409f9f" d="M-22.09178-23.61067-23.25705-26.2726"/>
<path transform="matrix(1,0,0,-1.00003,52.647005,58.381364)" stroke-width=".79701" stroke-linecap="butt" stroke-miterlimit="10" stroke-linejoin="miter" fill="none" stroke="#409f9f" d="M-18.195-21.31212-18.0843-24.03632"/>
<path transform="matrix(1,0,0,-1.00003,52.647005,58.381364)" stroke-width=".79701" stroke-linecap="butt" stroke-miterlimit="10" stroke-linejoin="miter" fill="none" stroke="#409f9f" d="M-14.59166-19.13744-12.6182-21.67616"/>
<path transform="matrix(1,0,0,-1.00003,52.647005,58.381364)" stroke-width=".79701" stroke-linecap="butt" stroke-miterlimit="10" stroke-linejoin="miter" fill="none" stroke="#409f9f" d="M-10.99725-17.17587-7.1431-19.1029"/>
<path transform="matrix(1,0,0,-1.00003,52.647005,58.381364)" stroke-width=".79701" stroke-linecap="butt" stroke-miterlimit="10" stroke-linejoin="miter" fill="none" stroke="#409f9f" d="M-6.99876-15.29211-2.07211-16.45181"/>
<path transform="matrix(1,0,0,-1.00003,52.647005,58.381364)" stroke-width=".79701" stroke-linecap="butt" stroke-miterlimit="10" stroke-linejoin="miter" fill="none" stroke="#409f9f" d="M-2.66124-13.31256 2.65984-13.89653"/>
<path transform="matrix(1,0,0,-1.00003,52.647005,58.381364)" stroke-width=".79701" stroke-linecap="butt" stroke-miterlimit="10" stroke-linejoin="miter" fill="none" stroke="#409f9f" d="M1.82124-11.21866 7.24684-11.45563"/>
<path transform="matrix(1,0,0,-1.00003,52.647005,58.381364)" stroke-width=".79701" stroke-linecap="butt" stroke-miterlimit="10" stroke-linejoin="miter" fill="none" stroke="#409f9f" d="M6.34457-9.04208 11.79298-9.09735"/>
<path transform="matrix(1,0,0,-1.00003,52.647005,58.381364)" stroke-width=".79701" stroke-linecap="butt" stroke-miterlimit="10" stroke-linejoin="miter" fill="none" stroke="#409f9f" d="M10.87865-6.80234 16.32843-6.80228"/>
<path transform="matrix(1,0,0,-1.00003,52.647005,58.381364)" stroke-width=".79701" stroke-linecap="butt" stroke-miterlimit="10" stroke-linejoin="miter" fill="none" stroke="#409f9f" d="M15.41405-4.50728 20.86247-4.56255"/>
<path transform="matrix(1,0,0,-1.00003,52.647005,58.381364)" stroke-width=".79701" stroke-linecap="butt" stroke-miterlimit="10" stroke-linejoin="miter" fill="none" stroke="#409f9f" d="M19.9602-2.149 25.38579-2.38597"/>
<path transform="matrix(1,0,0,-1.00003,52.647005,58.381364)" stroke-width=".79701" stroke-linecap="butt" stroke-miterlimit="10" stroke-linejoin="miter" fill="none" stroke="#409f9f" d="M24.54721 .2919 29.86829-.29205"/>
<path transform="matrix(1,0,0,-1.00003,52.647005,58.381364)" stroke-width=".79701" stroke-linecap="butt" stroke-miterlimit="10" stroke-linejoin="miter" fill="none" stroke="#409f9f" d="M29.27916 2.84717 34.20581 1.68747"/>
<path transform="matrix(1,0,0,-1.00003,52.647005,58.381364)" stroke-width=".79701" stroke-linecap="butt" stroke-miterlimit="10" stroke-linejoin="miter" fill="none" stroke="#409f9f" d="M34.35016 5.49826 38.20432 3.57123"/>
<path transform="matrix(1,0,0,-1.00003,52.647005,58.381364)" stroke-width=".79701" stroke-linecap="butt" stroke-miterlimit="10" stroke-linejoin="miter" fill="none" stroke="#409f9f" d="M39.82387 8.0719 41.8001 5.53244"/>
<path transform="matrix(1,0,0,-1.00003,52.647005,58.381364)" stroke-width=".79701" stroke-linecap="butt" stroke-miterlimit="10" stroke-linejoin="miter" fill="none" stroke="#409f9f" d="M45.29137 10.43167 45.40207 7.70747"/>
<path transform="matrix(1,0,0,-1.00003,52.647005,58.381364)" stroke-width=".79701" stroke-linecap="butt" stroke-miterlimit="10" stroke-linejoin="miter" fill="none" stroke="#409f9f" d="M50.4641 12.66795 49.29884 10.00603"/>
<path transform="matrix(1,0,0,-1.00003,52.647005,58.381364)" stroke-width=".79701" stroke-linecap="butt" stroke-miterlimit="10" stroke-linejoin="miter" fill="none" stroke="#409f9f" d="M55.39084 14.87674 53.4416 12.33208"/>
<path transform="matrix(1,0,0,-1.00003,52.647005,58.381364)" stroke-width=".79701" stroke-linecap="butt" stroke-miterlimit="10" stroke-linejoin="miter" fill="none" stroke="#409f9f" d="M60.16985 17.09053 57.73209 14.65314"/>
<path transform="matrix(1,0,0,-1.00003,52.647005,58.381364)" stroke-width=".79701" stroke-linecap="butt" stroke-miterlimit="10" stroke-linejoin="miter" fill="none" stroke="#409f9f" d="M-25.99028-30.5251-28.42804-32.9625"/>
<path transform="matrix(1,0,0,-1.00003,52.647005,58.381364)" stroke-width=".79701" stroke-linecap="butt" stroke-miterlimit="10" stroke-linejoin="miter" fill="none" stroke="#409f9f" d="M-21.6998-28.20404-23.64903-30.7487"/>
<path transform="matrix(1,0,0,-1.00003,52.647005,58.381364)" stroke-width=".79701" stroke-linecap="butt" stroke-miterlimit="10" stroke-linejoin="miter" fill="none" stroke="#409f9f" d="M-17.55704-25.878-18.72229-28.53993"/>
<path transform="matrix(1,0,0,-1.00003,52.647005,58.381364)" stroke-width=".79701" stroke-linecap="butt" stroke-miterlimit="10" stroke-linejoin="miter" fill="none" stroke="#409f9f" d="M-13.66026-23.57945-13.54956-26.30363"/>
<path transform="matrix(1,0,0,-1.00003,52.647005,58.381364)" stroke-width=".79701" stroke-linecap="butt" stroke-miterlimit="10" stroke-linejoin="miter" fill="none" stroke="#409f9f" d="M-10.0569-21.40475-8.08345-23.94348"/>
<path transform="matrix(1,0,0,-1.00003,52.647005,58.381364)" stroke-width=".79701" stroke-linecap="butt" stroke-miterlimit="10" stroke-linejoin="miter" fill="none" stroke="#409f9f" d="M-6.46251-19.4432-2.60835-21.37024"/>
<path transform="matrix(1,0,0,-1.00003,52.647005,58.381364)" stroke-width=".79701" stroke-linecap="butt" stroke-miterlimit="10" stroke-linejoin="miter" fill="none" stroke="#409f9f" d="M-2.46402-17.55945 2.46262-18.71915"/>
<path transform="matrix(1,0,0,-1.00003,52.647005,58.381364)" stroke-width=".79701" stroke-linecap="butt" stroke-miterlimit="10" stroke-linejoin="miter" fill="none" stroke="#409f9f" d="M1.8735-15.5799 7.19458-16.16386"/>
<path transform="matrix(1,0,0,-1.00003,52.647005,58.381364)" stroke-width=".79701" stroke-linecap="butt" stroke-miterlimit="10" stroke-linejoin="miter" fill="none" stroke="#409f9f" d="M6.356-13.486 11.78159-13.72296"/>
<path transform="matrix(1,0,0,-1.00003,52.647005,58.381364)" stroke-width=".79701" stroke-linecap="butt" stroke-miterlimit="10" stroke-linejoin="miter" fill="none" stroke="#409f9f" d="M10.87932-11.30942 16.32774-11.36469"/>
<path transform="matrix(1,0,0,-1.00003,52.647005,58.381364)" stroke-width=".79701" stroke-linecap="butt" stroke-miterlimit="10" stroke-linejoin="miter" fill="none" stroke="#409f9f" d="M15.4134-9.06966 20.86319-9.0696"/>
<path transform="matrix(1,0,0,-1.00003,52.647005,58.381364)" stroke-width=".79701" stroke-linecap="butt" stroke-miterlimit="10" stroke-linejoin="miter" fill="none" stroke="#409f9f" d="M19.9488-6.7746 25.39722-6.82988"/>
<path transform="matrix(1,0,0,-1.00003,52.647005,58.381364)" stroke-width=".79701" stroke-linecap="butt" stroke-miterlimit="10" stroke-linejoin="miter" fill="none" stroke="#409f9f" d="M24.49495-4.41634 29.92055-4.6533"/>
<path transform="matrix(1,0,0,-1.00003,52.647005,58.381364)" stroke-width=".79701" stroke-linecap="butt" stroke-miterlimit="10" stroke-linejoin="miter" fill="none" stroke="#409f9f" d="M29.08195-1.97542 34.40305-2.55939"/>
<path transform="matrix(1,0,0,-1.00003,52.647005,58.381364)" stroke-width=".79701" stroke-linecap="butt" stroke-miterlimit="10" stroke-linejoin="miter" fill="none" stroke="#409f9f" d="M33.8139 .57983 38.74055-.57983"/>
<path transform="matrix(1,0,0,-1.00003,52.647005,58.381364)" stroke-width=".79701" stroke-linecap="butt" stroke-miterlimit="10" stroke-linejoin="miter" fill="none" stroke="#409f9f" d="M38.8849 3.23093 42.73906 1.3039"/>
<path transform="matrix(1,0,0,-1.00003,52.647005,58.381364)" stroke-width=".79701" stroke-linecap="butt" stroke-miterlimit="10" stroke-linejoin="miter" fill="none" stroke="#409f9f" d="M44.35863 5.80457 46.33485 3.2651"/>
<path transform="matrix(1,0,0,-1.00003,52.647005,58.381364)" stroke-width=".79701" stroke-linecap="butt" stroke-miterlimit="10" stroke-linejoin="miter" fill="none" stroke="#409f9f" d="M49.82611 8.16434 49.93681 5.44014"/>
<path transform="matrix(1,0,0,-1.00003,52.647005,58.381364)" stroke-width=".79701" stroke-linecap="butt" stroke-miterlimit="10" stroke-linejoin="miter" fill="none" stroke="#409f9f" d="M54.99886 10.40062 53.83359 7.7387"/>
<path transform="matrix(1,0,0,-1.00003,52.647005,58.381364)" stroke-width=".79701" stroke-linecap="butt" stroke-miterlimit="10" stroke-linejoin="miter" fill="none" stroke="#409f9f" d="M59.92558 12.6094 57.97635 10.06476"/>
<path transform="matrix(1,0,0,-1.00003,52.647005,58.381364)" stroke-width=".79701" stroke-linecap="butt" stroke-miterlimit="10" stroke-linejoin="miter" fill="none" stroke="#409f9f" d="M64.7046 14.8232 62.26685 12.3858"/>
<path transform="matrix(1,0,0,-1.00003,52.647005,58.381364)" stroke-width=".79701" stroke-linecap="butt" stroke-miterlimit="10" stroke-linejoin="miter" fill="none" stroke="#409f9f" d="M-21.45554-32.79242-23.8933-35.22981"/>
<path transform="matrix(1,0,0,-1.00003,52.647005,58.381364)" stroke-width=".79701" stroke-linecap="butt" stroke-miterlimit="10" stroke-linejoin="miter" fill="none" stroke="#409f9f" d="M-17.16505-30.47137-19.11427-33.01602"/>
<path transform="matrix(1,0,0,-1.00003,52.647005,58.381364)" stroke-width=".79701" stroke-linecap="butt" stroke-miterlimit="10" stroke-linejoin="miter" fill="none" stroke="#409f9f" d="M-13.02228-28.14532-14.18755-30.80725"/>
<path transform="matrix(1,0,0,-1.00003,52.647005,58.381364)" stroke-width=".79701" stroke-linecap="butt" stroke-miterlimit="10" stroke-linejoin="miter" fill="none" stroke="#409f9f" d="M-9.12552-25.84677-9.01482-28.57097"/>
<path transform="matrix(1,0,0,-1.00003,52.647005,58.381364)" stroke-width=".79701" stroke-linecap="butt" stroke-miterlimit="10" stroke-linejoin="miter" fill="none" stroke="#409f9f" d="M-5.52216-23.67209-3.54869-26.21082"/>
<path transform="matrix(1,0,0,-1.00003,52.647005,58.381364)" stroke-width=".79701" stroke-linecap="butt" stroke-miterlimit="10" stroke-linejoin="miter" fill="none" stroke="#409f9f" d="M-1.92775-21.71053 1.92639-23.63756"/>
<path transform="matrix(1,0,0,-1.00003,52.647005,58.381364)" stroke-width=".79701" stroke-linecap="butt" stroke-miterlimit="10" stroke-linejoin="miter" fill="none" stroke="#409f9f" d="M2.07071-19.82678 6.99738-20.98648"/>
<path transform="matrix(1,0,0,-1.00003,52.647005,58.381364)" stroke-width=".79701" stroke-linecap="butt" stroke-miterlimit="10" stroke-linejoin="miter" fill="none" stroke="#409f9f" d="M6.40825-17.84723 11.72934-18.43118"/>
<path transform="matrix(1,0,0,-1.00003,52.647005,58.381364)" stroke-width=".79701" stroke-linecap="butt" stroke-miterlimit="10" stroke-linejoin="miter" fill="none" stroke="#409f9f" d="M10.89075-15.75331 16.31633-15.99028"/>
<path transform="matrix(1,0,0,-1.00003,52.647005,58.381364)" stroke-width=".79701" stroke-linecap="butt" stroke-miterlimit="10" stroke-linejoin="miter" fill="none" stroke="#409f9f" d="M15.41406-13.57674 20.86249-13.63202"/>
<path transform="matrix(1,0,0,-1.00003,52.647005,58.381364)" stroke-width=".79701" stroke-linecap="butt" stroke-miterlimit="10" stroke-linejoin="miter" fill="none" stroke="#409f9f" d="M19.94815-11.33699 25.39793-11.33693"/>
<path transform="matrix(1,0,0,-1.00003,52.647005,58.381364)" stroke-width=".79701" stroke-linecap="butt" stroke-miterlimit="10" stroke-linejoin="miter" fill="none" stroke="#409f9f" d="M24.48355-9.04193 29.93198-9.0972"/>
<path transform="matrix(1,0,0,-1.00003,52.647005,58.381364)" stroke-width=".79701" stroke-linecap="butt" stroke-miterlimit="10" stroke-linejoin="miter" fill="none" stroke="#409f9f" d="M29.02971-6.68367 34.45529-6.92064"/>
<path transform="matrix(1,0,0,-1.00003,52.647005,58.381364)" stroke-width=".79701" stroke-linecap="butt" stroke-miterlimit="10" stroke-linejoin="miter" fill="none" stroke="#409f9f" d="M33.6167-4.24274 38.93779-4.8267"/>
<path transform="matrix(1,0,0,-1.00003,52.647005,58.381364)" stroke-width=".79701" stroke-linecap="butt" stroke-miterlimit="10" stroke-linejoin="miter" fill="none" stroke="#409f9f" d="M38.34865-1.68747 43.27531-2.84717"/>
<path transform="matrix(1,0,0,-1.00003,52.647005,58.381364)" stroke-width=".79701" stroke-linecap="butt" stroke-miterlimit="10" stroke-linejoin="miter" fill="none" stroke="#409f9f" d="M43.41966 .96361 47.27382-.96342"/>
<path transform="matrix(1,0,0,-1.00003,52.647005,58.381364)" stroke-width=".79701" stroke-linecap="butt" stroke-miterlimit="10" stroke-linejoin="miter" fill="none" stroke="#409f9f" d="M48.89337 3.53723 50.8696 .99777"/>
<path transform="matrix(1,0,0,-1.00003,52.647005,58.381364)" stroke-width=".79701" stroke-linecap="butt" stroke-miterlimit="10" stroke-linejoin="miter" fill="none" stroke="#409f9f" d="M54.36087 5.897 54.47157 3.1728"/>
<path transform="matrix(1,0,0,-1.00003,52.647005,58.381364)" stroke-width=".79701" stroke-linecap="butt" stroke-miterlimit="10" stroke-linejoin="miter" fill="none" stroke="#409f9f" d="M59.5336 8.1333 58.36833 5.47136"/>
<path transform="matrix(1,0,0,-1.00003,52.647005,58.381364)" stroke-width=".79701" stroke-linecap="butt" stroke-miterlimit="10" stroke-linejoin="miter" fill="none" stroke="#409f9f" d="M64.46033 10.34209 62.51111 7.79742"/>
<path transform="matrix(1,0,0,-1.00003,52.647005,58.381364)" stroke-width=".79701" stroke-linecap="butt" stroke-miterlimit="10" stroke-linejoin="miter" fill="none" stroke="#409f9f" d="M69.23935 12.55586 66.80159 10.11847"/>
<path transform="matrix(1,0,0,-1.00003,52.647005,58.381364)" stroke-width=".79701" stroke-linecap="butt" stroke-miterlimit="10" stroke-linejoin="miter" fill="none" stroke="#409f9f" d="M-16.92079-35.05975-19.35855-37.49715"/>
<path transform="matrix(1,0,0,-1.00003,52.647005,58.381364)" stroke-width=".79701" stroke-linecap="butt" stroke-miterlimit="10" stroke-linejoin="miter" fill="none" stroke="#409f9f" d="M-12.63031-32.7387-14.57954-35.28336"/>
<path transform="matrix(1,0,0,-1.00003,52.647005,58.381364)" stroke-width=".79701" stroke-linecap="butt" stroke-miterlimit="10" stroke-linejoin="miter" fill="none" stroke="#409f9f" d="M-8.48755-30.41266-9.6528-33.07458"/>
<path transform="matrix(1,0,0,-1.00003,52.647005,58.381364)" stroke-width=".79701" stroke-linecap="butt" stroke-miterlimit="10" stroke-linejoin="miter" fill="none" stroke="#409f9f" d="M-4.59077-28.1141-4.48007-30.8383"/>
<path transform="matrix(1,0,0,-1.00003,52.647005,58.381364)" stroke-width=".79701" stroke-linecap="butt" stroke-miterlimit="10" stroke-linejoin="miter" fill="none" stroke="#409f9f" d="M-.98743-25.93942 .98602-28.47815"/>
<path transform="matrix(1,0,0,-1.00003,52.647005,58.381364)" stroke-width=".79701" stroke-linecap="butt" stroke-miterlimit="10" stroke-linejoin="miter" fill="none" stroke="#409f9f" d="M2.60696-23.97786 6.46112-25.90489"/>
<path transform="matrix(1,0,0,-1.00003,52.647005,58.381364)" stroke-width=".79701" stroke-linecap="butt" stroke-miterlimit="10" stroke-linejoin="miter" fill="none" stroke="#409f9f" d="M6.60545-22.0941 11.5321-23.2538"/>
<path transform="matrix(1,0,0,-1.00003,52.647005,58.381364)" stroke-width=".79701" stroke-linecap="butt" stroke-miterlimit="10" stroke-linejoin="miter" fill="none" stroke="#409f9f" d="M10.94298-20.11455 16.26407-20.69852"/>
<path transform="matrix(1,0,0,-1.00003,52.647005,58.381364)" stroke-width=".79701" stroke-linecap="butt" stroke-miterlimit="10" stroke-linejoin="miter" fill="none" stroke="#409f9f" d="M15.42549-18.02065 20.85107-18.25761"/>
<path transform="matrix(1,0,0,-1.00003,52.647005,58.381364)" stroke-width=".79701" stroke-linecap="butt" stroke-miterlimit="10" stroke-linejoin="miter" fill="none" stroke="#409f9f" d="M19.9488-15.84407 25.39722-15.89935"/>
<path transform="matrix(1,0,0,-1.00003,52.647005,58.381364)" stroke-width=".79701" stroke-linecap="butt" stroke-miterlimit="10" stroke-linejoin="miter" fill="none" stroke="#409f9f" d="M24.48288-13.60432 29.93268-13.60426"/>
<path transform="matrix(1,0,0,-1.00003,52.647005,58.381364)" stroke-width=".79701" stroke-linecap="butt" stroke-miterlimit="10" stroke-linejoin="miter" fill="none" stroke="#409f9f" d="M29.0183-11.30927 34.4667-11.36453"/>
<path transform="matrix(1,0,0,-1.00003,52.647005,58.381364)" stroke-width=".79701" stroke-linecap="butt" stroke-miterlimit="10" stroke-linejoin="miter" fill="none" stroke="#409f9f" d="M33.56444-8.95099 38.99002-9.18796"/>
<path transform="matrix(1,0,0,-1.00003,52.647005,58.381364)" stroke-width=".79701" stroke-linecap="butt" stroke-miterlimit="10" stroke-linejoin="miter" fill="none" stroke="#409f9f" d="M38.15144-6.51007 43.47253-7.09404"/>
<path transform="matrix(1,0,0,-1.00003,52.647005,58.381364)" stroke-width=".79701" stroke-linecap="butt" stroke-miterlimit="10" stroke-linejoin="miter" fill="none" stroke="#409f9f" d="M42.88339-3.9548 47.81004-5.1145"/>
<path transform="matrix(1,0,0,-1.00003,52.647005,58.381364)" stroke-width=".79701" stroke-linecap="butt" stroke-miterlimit="10" stroke-linejoin="miter" fill="none" stroke="#409f9f" d="M47.95439-1.30371 51.80855-3.23074"/>
<path transform="matrix(1,0,0,-1.00003,52.647005,58.381364)" stroke-width=".79701" stroke-linecap="butt" stroke-miterlimit="10" stroke-linejoin="miter" fill="none" stroke="#409f9f" d="M53.4281 1.2699 55.40433-1.26955"/>
<path transform="matrix(1,0,0,-1.00003,52.647005,58.381364)" stroke-width=".79701" stroke-linecap="butt" stroke-miterlimit="10" stroke-linejoin="miter" fill="none" stroke="#409f9f" d="M58.8956 3.62968 59.0063 .90549"/>
<path transform="matrix(1,0,0,-1.00003,52.647005,58.381364)" stroke-width=".79701" stroke-linecap="butt" stroke-miterlimit="10" stroke-linejoin="miter" fill="none" stroke="#409f9f" d="M64.06833 5.86597 62.90308 3.20404"/>
<path transform="matrix(1,0,0,-1.00003,52.647005,58.381364)" stroke-width=".79701" stroke-linecap="butt" stroke-miterlimit="10" stroke-linejoin="miter" fill="none" stroke="#409f9f" d="M68.99507 8.07475 67.04584 5.53009"/>
<path transform="matrix(1,0,0,-1.00003,52.647005,58.381364)" stroke-width=".79701" stroke-linecap="butt" stroke-miterlimit="10" stroke-linejoin="miter" fill="none" stroke="#409f9f" d="M73.77408 10.28854 71.33632 7.85115"/>
<path transform="matrix(1,0,0,-1.00003,52.647005,58.381364)" stroke-width=".79701" stroke-linecap="butt" stroke-miterlimit="10" stroke-linejoin="miter" fill="none" stroke="#409f9f" d="M-12.38605-37.32709-14.8238-39.76448"/>
<path transform="matrix(1,0,0,-1.00003,52.647005,58.381364)" stroke-width=".79701" stroke-linecap="butt" stroke-miterlimit="10" stroke-linejoin="miter" fill="none" stroke="#409f9f" d="M-8.09557-35.00603-10.04478-37.55069"/>
<path transform="matrix(1,0,0,-1.00003,52.647005,58.381364)" stroke-width=".79701" stroke-linecap="butt" stroke-miterlimit="10" stroke-linejoin="miter" fill="none" stroke="#409f9f" d="M-3.95279-32.68-5.11806-35.34192"/>
<path transform="matrix(1,0,0,-1.00003,52.647005,58.381364)" stroke-width=".79701" stroke-linecap="butt" stroke-miterlimit="10" stroke-linejoin="miter" fill="none" stroke="#409f9f" d="M-.05603-30.38144 .05466-33.10564"/>
<path transform="matrix(1,0,0,-1.00003,52.647005,58.381364)" stroke-width=".79701" stroke-linecap="butt" stroke-miterlimit="10" stroke-linejoin="miter" fill="none" stroke="#409f9f" d="M3.54732-28.20674 5.52077-30.74548"/>
<path transform="matrix(1,0,0,-1.00003,52.647005,58.381364)" stroke-width=".79701" stroke-linecap="butt" stroke-miterlimit="10" stroke-linejoin="miter" fill="none" stroke="#409f9f" d="M7.14171-26.2452 10.99586-28.17223"/>
<path transform="matrix(1,0,0,-1.00003,52.647005,58.381364)" stroke-width=".79701" stroke-linecap="butt" stroke-miterlimit="10" stroke-linejoin="miter" fill="none" stroke="#409f9f" d="M11.1402-24.36143 16.06686-25.52113"/>
<path transform="matrix(1,0,0,-1.00003,52.647005,58.381364)" stroke-width=".79701" stroke-linecap="butt" stroke-miterlimit="10" stroke-linejoin="miter" fill="none" stroke="#409f9f" d="M15.47774-22.38188 20.79883-22.96585"/>
<path transform="matrix(1,0,0,-1.00003,52.647005,58.381364)" stroke-width=".79701" stroke-linecap="butt" stroke-miterlimit="10" stroke-linejoin="miter" fill="none" stroke="#409f9f" d="M19.96024-20.28798 25.38582-20.52495"/>
<path transform="matrix(1,0,0,-1.00003,52.647005,58.381364)" stroke-width=".79701" stroke-linecap="butt" stroke-miterlimit="10" stroke-linejoin="miter" fill="none" stroke="#409f9f" d="M24.48355-18.1114 29.93198-18.16667"/>
<path transform="matrix(1,0,0,-1.00003,52.647005,58.381364)" stroke-width=".79701" stroke-linecap="butt" stroke-miterlimit="10" stroke-linejoin="miter" fill="none" stroke="#409f9f" d="M29.01764-15.87164 34.46742-15.87158"/>
<path transform="matrix(1,0,0,-1.00003,52.647005,58.381364)" stroke-width=".79701" stroke-linecap="butt" stroke-miterlimit="10" stroke-linejoin="miter" fill="none" stroke="#409f9f" d="M33.55304-13.57658 39.00146-13.63187"/>
<path transform="matrix(1,0,0,-1.00003,52.647005,58.381364)" stroke-width=".79701" stroke-linecap="butt" stroke-miterlimit="10" stroke-linejoin="miter" fill="none" stroke="#409f9f" d="M38.0992-11.21832 43.52478-11.45529"/>
<path transform="matrix(1,0,0,-1.00003,52.647005,58.381364)" stroke-width=".79701" stroke-linecap="butt" stroke-miterlimit="10" stroke-linejoin="miter" fill="none" stroke="#409f9f" d="M42.68619-8.7774 48.00728-9.36137"/>
<path transform="matrix(1,0,0,-1.00003,52.647005,58.381364)" stroke-width=".79701" stroke-linecap="butt" stroke-miterlimit="10" stroke-linejoin="miter" fill="none" stroke="#409f9f" d="M47.41814-6.22214 52.3448-7.38184"/>
<path transform="matrix(1,0,0,-1.00003,52.647005,58.381364)" stroke-width=".79701" stroke-linecap="butt" stroke-miterlimit="10" stroke-linejoin="miter" fill="none" stroke="#409f9f" d="M52.48914-3.57104 56.34329-5.49808"/>
<path transform="matrix(1,0,0,-1.00003,52.647005,58.381364)" stroke-width=".79701" stroke-linecap="butt" stroke-miterlimit="10" stroke-linejoin="miter" fill="none" stroke="#409f9f" d="M57.96286-.9974 59.93909-3.53687"/>
<path transform="matrix(1,0,0,-1.00003,52.647005,58.381364)" stroke-width=".79701" stroke-linecap="butt" stroke-miterlimit="10" stroke-linejoin="miter" fill="none" stroke="#409f9f" d="M63.43036 1.36235 63.54106-1.36183"/>
<path transform="matrix(1,0,0,-1.00003,52.647005,58.381364)" stroke-width=".79701" stroke-linecap="butt" stroke-miterlimit="10" stroke-linejoin="miter" fill="none" stroke="#409f9f" d="M68.60309 3.59863 67.43782 .9367"/>
<path transform="matrix(1,0,0,-1.00003,52.647005,58.381364)" stroke-width=".79701" stroke-linecap="butt" stroke-miterlimit="10" stroke-linejoin="miter" fill="none" stroke="#409f9f" d="M73.52982 5.80742 71.5806 3.26276"/>
<path transform="matrix(1,0,0,-1.00003,52.647005,58.381364)" stroke-width=".79701" stroke-linecap="butt" stroke-miterlimit="10" stroke-linejoin="miter" fill="none" stroke="#409f9f" d="M78.30884 8.02121 75.87108 5.58382"/>
<path transform="matrix(1,0,0,-1.00003,52.647005,58.381364)" stroke-width=".79701" stroke-linecap="butt" stroke-miterlimit="10" stroke-linejoin="miter" fill="none" stroke="#409f9f" d="M-7.85132-39.5944-10.28908-42.0318"/>
<path transform="matrix(1,0,0,-1.00003,52.647005,58.381364)" stroke-width=".79701" stroke-linecap="butt" stroke-miterlimit="10" stroke-linejoin="miter" fill="none" stroke="#409f9f" d="M-3.56082-37.27336-5.51006-39.81802"/>
<path transform="matrix(1,0,0,-1.00003,52.647005,58.381364)" stroke-width=".79701" stroke-linecap="butt" stroke-miterlimit="10" stroke-linejoin="miter" fill="none" stroke="#409f9f" d="M.58192-34.94731-.58333-37.60925"/>
<path transform="matrix(1,0,0,-1.00003,52.647005,58.381364)" stroke-width=".79701" stroke-linecap="butt" stroke-miterlimit="10" stroke-linejoin="miter" fill="none" stroke="#409f9f" d="M4.4787-32.64876 4.5894-35.37296"/>
<path transform="matrix(1,0,0,-1.00003,52.647005,58.381364)" stroke-width=".79701" stroke-linecap="butt" stroke-miterlimit="10" stroke-linejoin="miter" fill="none" stroke="#409f9f" d="M8.08205-30.47408 10.05551-33.0128"/>
<path transform="matrix(1,0,0,-1.00003,52.647005,58.381364)" stroke-width=".79701" stroke-linecap="butt" stroke-miterlimit="10" stroke-linejoin="miter" fill="none" stroke="#409f9f" d="M11.67645-28.51251 15.53061-30.43954"/>
<path transform="matrix(1,0,0,-1.00003,52.647005,58.381364)" stroke-width=".79701" stroke-linecap="butt" stroke-miterlimit="10" stroke-linejoin="miter" fill="none" stroke="#409f9f" d="M15.67494-26.62877 20.6016-27.78847"/>
<path transform="matrix(1,0,0,-1.00003,52.647005,58.381364)" stroke-width=".79701" stroke-linecap="butt" stroke-miterlimit="10" stroke-linejoin="miter" fill="none" stroke="#409f9f" d="M20.01247-24.64922 25.33356-25.23318"/>
<path transform="matrix(1,0,0,-1.00003,52.647005,58.381364)" stroke-width=".79701" stroke-linecap="butt" stroke-miterlimit="10" stroke-linejoin="miter" fill="none" stroke="#409f9f" d="M24.49496-22.5553 29.92056-22.79227"/>
<path transform="matrix(1,0,0,-1.00003,52.647005,58.381364)" stroke-width=".79701" stroke-linecap="butt" stroke-miterlimit="10" stroke-linejoin="miter" fill="none" stroke="#409f9f" d="M29.0183-20.37874 34.4667-20.434"/>
<path transform="matrix(1,0,0,-1.00003,52.647005,58.381364)" stroke-width=".79701" stroke-linecap="butt" stroke-miterlimit="10" stroke-linejoin="miter" fill="none" stroke="#409f9f" d="M33.55237-18.13898 39.00215-18.13892"/>
<path transform="matrix(1,0,0,-1.00003,52.647005,58.381364)" stroke-width=".79701" stroke-linecap="butt" stroke-miterlimit="10" stroke-linejoin="miter" fill="none" stroke="#409f9f" d="M38.08777-15.84392 43.5362-15.8992"/>
<path transform="matrix(1,0,0,-1.00003,52.647005,58.381364)" stroke-width=".79701" stroke-linecap="butt" stroke-miterlimit="10" stroke-linejoin="miter" fill="none" stroke="#409f9f" d="M42.63393-13.48566 48.05951-13.72263"/>
<path transform="matrix(1,0,0,-1.00003,52.647005,58.381364)" stroke-width=".79701" stroke-linecap="butt" stroke-miterlimit="10" stroke-linejoin="miter" fill="none" stroke="#409f9f" d="M47.22093-11.04474 52.542-11.6287"/>
<path transform="matrix(1,0,0,-1.00003,52.647005,58.381364)" stroke-width=".79701" stroke-linecap="butt" stroke-miterlimit="10" stroke-linejoin="miter" fill="none" stroke="#409f9f" d="M51.95288-8.48946 56.87953-9.64915"/>
<path transform="matrix(1,0,0,-1.00003,52.647005,58.381364)" stroke-width=".79701" stroke-linecap="butt" stroke-miterlimit="10" stroke-linejoin="miter" fill="none" stroke="#409f9f" d="M57.02388-5.83838 60.87804-7.76541"/>
<path transform="matrix(1,0,0,-1.00003,52.647005,58.381364)" stroke-width=".79701" stroke-linecap="butt" stroke-miterlimit="10" stroke-linejoin="miter" fill="none" stroke="#409f9f" d="M62.49759-3.26474 64.47382-5.8042"/>
<path transform="matrix(1,0,0,-1.00003,52.647005,58.381364)" stroke-width=".79701" stroke-linecap="butt" stroke-miterlimit="10" stroke-linejoin="miter" fill="none" stroke="#409f9f" d="M67.96509-.90497 68.07579-3.62917"/>
<path transform="matrix(1,0,0,-1.00003,52.647005,58.381364)" stroke-width=".79701" stroke-linecap="butt" stroke-miterlimit="10" stroke-linejoin="miter" fill="none" stroke="#409f9f" d="M73.13782 1.3313 71.97256-1.33061"/>
<path transform="matrix(1,0,0,-1.00003,52.647005,58.381364)" stroke-width=".79701" stroke-linecap="butt" stroke-miterlimit="10" stroke-linejoin="miter" fill="none" stroke="#409f9f" d="M78.06456 3.54008 76.11533 .99544"/>
<path transform="matrix(1,0,0,-1.00003,52.647005,58.381364)" stroke-width=".79701" stroke-linecap="butt" stroke-miterlimit="10" stroke-linejoin="miter" fill="none" stroke="#409f9f" d="M82.84357 5.75388 80.4058 3.31648"/>
<path transform="matrix(1,0,0,-1.00003,52.647005,58.381364)" stroke-width=".79701" stroke-linecap="butt" stroke-miterlimit="10" stroke-linejoin="miter" fill="none" stroke="#409f9f" d="M-3.31656-41.86174-5.75432-44.29913"/>
<path transform="matrix(1,0,0,-1.00003,52.647005,58.381364)" stroke-width=".79701" stroke-linecap="butt" stroke-miterlimit="10" stroke-linejoin="miter" fill="none" stroke="#409f9f" d="M.9739-39.5407-.97531-42.08534"/>
<path transform="matrix(1,0,0,-1.00003,52.647005,58.381364)" stroke-width=".79701" stroke-linecap="butt" stroke-miterlimit="10" stroke-linejoin="miter" fill="none" stroke="#409f9f" d="M5.11667-37.21465 3.95142-39.87657"/>
<path transform="matrix(1,0,0,-1.00003,52.647005,58.381364)" stroke-width=".79701" stroke-linecap="butt" stroke-miterlimit="10" stroke-linejoin="miter" fill="none" stroke="#409f9f" d="M9.01344-34.91609 9.12415-37.64029"/>
<path transform="matrix(1,0,0,-1.00003,52.647005,58.381364)" stroke-width=".79701" stroke-linecap="butt" stroke-miterlimit="10" stroke-linejoin="miter" fill="none" stroke="#409f9f" d="M12.61679-32.74141 14.59026-35.28014"/>
<path transform="matrix(1,0,0,-1.00003,52.647005,58.381364)" stroke-width=".79701" stroke-linecap="butt" stroke-miterlimit="10" stroke-linejoin="miter" fill="none" stroke="#409f9f" d="M16.2112-30.77985 20.06535-32.70688"/>
<path transform="matrix(1,0,0,-1.00003,52.647005,58.381364)" stroke-width=".79701" stroke-linecap="butt" stroke-miterlimit="10" stroke-linejoin="miter" fill="none" stroke="#409f9f" d="M20.20969-28.8961 25.13634-30.05579"/>
<path transform="matrix(1,0,0,-1.00003,52.647005,58.381364)" stroke-width=".79701" stroke-linecap="butt" stroke-miterlimit="10" stroke-linejoin="miter" fill="none" stroke="#409f9f" d="M24.54723-26.91653 29.8683-27.5005"/>
<path transform="matrix(1,0,0,-1.00003,52.647005,58.381364)" stroke-width=".79701" stroke-linecap="butt" stroke-miterlimit="10" stroke-linejoin="miter" fill="none" stroke="#409f9f" d="M29.02972-24.82263 34.4553-25.0596"/>
<path transform="matrix(1,0,0,-1.00003,52.647005,58.381364)" stroke-width=".79701" stroke-linecap="butt" stroke-miterlimit="10" stroke-linejoin="miter" fill="none" stroke="#409f9f" d="M33.55304-22.64606 39.00146-22.70134"/>
<path transform="matrix(1,0,0,-1.00003,52.647005,58.381364)" stroke-width=".79701" stroke-linecap="butt" stroke-miterlimit="10" stroke-linejoin="miter" fill="none" stroke="#409f9f" d="M38.08713-20.40631 43.53691-20.40625"/>
<path transform="matrix(1,0,0,-1.00003,52.647005,58.381364)" stroke-width=".79701" stroke-linecap="butt" stroke-miterlimit="10" stroke-linejoin="miter" fill="none" stroke="#409f9f" d="M42.62253-18.11125 48.07094-18.16652"/>
<path transform="matrix(1,0,0,-1.00003,52.647005,58.381364)" stroke-width=".79701" stroke-linecap="butt" stroke-miterlimit="10" stroke-linejoin="miter" fill="none" stroke="#409f9f" d="M47.16867-15.75298 52.59427-15.98994"/>
<path transform="matrix(1,0,0,-1.00003,52.647005,58.381364)" stroke-width=".79701" stroke-linecap="butt" stroke-miterlimit="10" stroke-linejoin="miter" fill="none" stroke="#409f9f" d="M51.75568-13.31206 57.07677-13.89603"/>
<path transform="matrix(1,0,0,-1.00003,52.647005,58.381364)" stroke-width=".79701" stroke-linecap="butt" stroke-miterlimit="10" stroke-linejoin="miter" fill="none" stroke="#409f9f" d="M56.48763-10.75679 61.41428-11.91649"/>
<path transform="matrix(1,0,0,-1.00003,52.647005,58.381364)" stroke-width=".79701" stroke-linecap="butt" stroke-miterlimit="10" stroke-linejoin="miter" fill="none" stroke="#409f9f" d="M61.55862-8.1057 65.41278-10.03273"/>
<path transform="matrix(1,0,0,-1.00003,52.647005,58.381364)" stroke-width=".79701" stroke-linecap="butt" stroke-miterlimit="10" stroke-linejoin="miter" fill="none" stroke="#409f9f" d="M67.03233-5.53207 69.00856-8.07153"/>
<path transform="matrix(1,0,0,-1.00003,52.647005,58.381364)" stroke-width=".79701" stroke-linecap="butt" stroke-miterlimit="10" stroke-linejoin="miter" fill="none" stroke="#409f9f" d="M72.49983-3.1723 72.61053-5.89648"/>
<path transform="matrix(1,0,0,-1.00003,52.647005,58.381364)" stroke-width=".79701" stroke-linecap="butt" stroke-miterlimit="10" stroke-linejoin="miter" fill="none" stroke="#409f9f" d="M77.67258-.936 76.50731-3.59793"/>
<path transform="matrix(1,0,0,-1.00003,52.647005,58.381364)" stroke-width=".79701" stroke-linecap="butt" stroke-miterlimit="10" stroke-linejoin="miter" fill="none" stroke="#409f9f" d="M82.5993 1.27277 80.65007-1.27188"/>
<path transform="matrix(1,0,0,-1.00003,52.647005,58.381364)" stroke-width=".79701" stroke-linecap="butt" stroke-miterlimit="10" stroke-linejoin="miter" fill="none" stroke="#409f9f" d="M87.37833 3.48656 84.94057 1.04916"/>
<path transform="matrix(1,0,0,-1.00003,52.647005,58.381364)" stroke-width=".79701" stroke-linecap="butt" stroke-miterlimit="10" stroke-linejoin="miter" fill="none" stroke="#409f9f" d="M1.21817-44.12909-1.21957-46.56648"/>
<path transform="matrix(1,0,0,-1.00003,52.647005,58.381364)" stroke-width=".79701" stroke-linecap="butt" stroke-miterlimit="10" stroke-linejoin="miter" fill="none" stroke="#409f9f" d="M5.50865-41.80803 3.55943-44.35269"/>
<path transform="matrix(1,0,0,-1.00003,52.647005,58.381364)" stroke-width=".79701" stroke-linecap="butt" stroke-miterlimit="10" stroke-linejoin="miter" fill="none" stroke="#409f9f" d="M9.65143-39.482 8.48616-42.14392"/>
<path transform="matrix(1,0,0,-1.00003,52.647005,58.381364)" stroke-width=".79701" stroke-linecap="butt" stroke-miterlimit="10" stroke-linejoin="miter" fill="none" stroke="#409f9f" d="M13.54819-37.18344 13.65889-39.90764"/>
<path transform="matrix(1,0,0,-1.00003,52.647005,58.381364)" stroke-width=".79701" stroke-linecap="butt" stroke-miterlimit="10" stroke-linejoin="miter" fill="none" stroke="#409f9f" d="M17.15155-35.00874 19.12502-37.54749"/>
<path transform="matrix(1,0,0,-1.00003,52.647005,58.381364)" stroke-width=".79701" stroke-linecap="butt" stroke-miterlimit="10" stroke-linejoin="miter" fill="none" stroke="#409f9f" d="M20.74596-33.0472 24.60011-34.97423"/>
<path transform="matrix(1,0,0,-1.00003,52.647005,58.381364)" stroke-width=".79701" stroke-linecap="butt" stroke-miterlimit="10" stroke-linejoin="miter" fill="none" stroke="#409f9f" d="M24.74443-31.16344 29.6711-32.32314"/>
<path transform="matrix(1,0,0,-1.00003,52.647005,58.381364)" stroke-width=".79701" stroke-linecap="butt" stroke-miterlimit="10" stroke-linejoin="miter" fill="none" stroke="#409f9f" d="M29.08197-29.18388 34.40306-29.76785"/>
<path transform="matrix(1,0,0,-1.00003,52.647005,58.381364)" stroke-width=".79701" stroke-linecap="butt" stroke-miterlimit="10" stroke-linejoin="miter" fill="none" stroke="#409f9f" d="M33.56447-27.08998 38.99005-27.32695"/>
<path transform="matrix(1,0,0,-1.00003,52.647005,58.381364)" stroke-width=".79701" stroke-linecap="butt" stroke-miterlimit="10" stroke-linejoin="miter" fill="none" stroke="#409f9f" d="M38.08778-24.9134 43.53621-24.96867"/>
<path transform="matrix(1,0,0,-1.00003,52.647005,58.381364)" stroke-width=".79701" stroke-linecap="butt" stroke-miterlimit="10" stroke-linejoin="miter" fill="none" stroke="#409f9f" d="M42.62187-22.67365 48.07166-22.67358"/>
<path transform="matrix(1,0,0,-1.00003,52.647005,58.381364)" stroke-width=".79701" stroke-linecap="butt" stroke-miterlimit="10" stroke-linejoin="miter" fill="none" stroke="#409f9f" d="M47.15727-20.3786 52.6057-20.43387"/>
<path transform="matrix(1,0,0,-1.00003,52.647005,58.381364)" stroke-width=".79701" stroke-linecap="butt" stroke-miterlimit="10" stroke-linejoin="miter" fill="none" stroke="#409f9f" d="M51.70343-18.02032 57.12901-18.2573"/>
<path transform="matrix(1,0,0,-1.00003,52.647005,58.381364)" stroke-width=".79701" stroke-linecap="butt" stroke-miterlimit="10" stroke-linejoin="miter" fill="none" stroke="#409f9f" d="M56.29042-15.5794 61.61151-16.16338"/>
<path transform="matrix(1,0,0,-1.00003,52.647005,58.381364)" stroke-width=".79701" stroke-linecap="butt" stroke-miterlimit="10" stroke-linejoin="miter" fill="none" stroke="#409f9f" d="M61.02237-13.02414 65.94904-14.18384"/>
<path transform="matrix(1,0,0,-1.00003,52.647005,58.381364)" stroke-width=".79701" stroke-linecap="butt" stroke-miterlimit="10" stroke-linejoin="miter" fill="none" stroke="#409f9f" d="M66.09337-10.37305 69.94754-12.30008"/>
<path transform="matrix(1,0,0,-1.00003,52.647005,58.381364)" stroke-width=".79701" stroke-linecap="butt" stroke-miterlimit="10" stroke-linejoin="miter" fill="none" stroke="#409f9f" d="M71.5671-7.79941 73.54332-10.33887"/>
<path transform="matrix(1,0,0,-1.00003,52.647005,58.381364)" stroke-width=".79701" stroke-linecap="butt" stroke-miterlimit="10" stroke-linejoin="miter" fill="none" stroke="#409f9f" d="M77.03459-5.43964 77.1453-8.16383"/>
<path transform="matrix(1,0,0,-1.00003,52.647005,58.381364)" stroke-width=".79701" stroke-linecap="butt" stroke-miterlimit="10" stroke-linejoin="miter" fill="none" stroke="#409f9f" d="M82.20732-3.20335 81.04205-5.86528"/>
<path transform="matrix(1,0,0,-1.00003,52.647005,58.381364)" stroke-width=".79701" stroke-linecap="butt" stroke-miterlimit="10" stroke-linejoin="miter" fill="none" stroke="#409f9f" d="M87.13405-.99457 85.18483-3.53923"/>
<path transform="matrix(1,0,0,-1.00003,52.647005,58.381364)" stroke-width=".79701" stroke-linecap="butt" stroke-miterlimit="10" stroke-linejoin="miter" fill="none" stroke="#409f9f" d="M91.91307 1.21921 89.47531-1.21817"/>
</svg>
