<svg xmlns="http://www.w3.org/2000/svg" xmlns:xlink="http://www.w3.org/1999/xlink" version="1.1" width="113" height="84" viewBox="0 0 113 84">
<defs>
<path id="font_1_1" d="M.23098755 .35134889C.23599243 .37236024 .24598694 .41036988 .24598694 .41537477 .24598694 .43237306 .23399353 .4423828 .21699524 .4423828 .21398926 .4423828 .18598938 .44137574 .1769867 .40637208L.032989503-.17282105C.02999878-.18482971 .02999878-.18682862 .02999878-.18882752 .02999878-.2038269 .040985109-.21582031 .057998659-.21582031 .07899475-.21582031 .09098816-.1978302 .09298706-.19482422 .09700012-.18582154 .10998535-.13380432 .147995 .020248414 .17999268-.0067443849 .22499085-.0107421879 .24499512-.0107421879 .31498719-.0107421879 .35398866 .03425598 .37799073 .06227112 .3869934 .01725769 .42399598-.0107421879 .46798707-.0107421879 .5029907-.0107421879 .526001 .012252808 .5419922 .044265748 .5589905 .08027649 .57199099 .14129639 .57199099 .14329529 .57199099 .1532898 .5629883 .1532898 .55999758 .1532898 .5499878 .1532898 .548996 .14929199 .54599 .13528443 .5289917 .07026672 .5109863 .011245728 .46998597 .011245728 .44299317 .011245728 .43998719 .037261964 .43998719 .057266237 .43998719 .07926941 .45199586 .12628174 .45999146 .16130066L.48799134 .2693329C.4909973 .28433229 .5009918 .32234193 .5049896 .3373413 .5099945 .36035157 .519989 .3983612 .519989 .40437318 .519989 .42237855 .5059967 .43138124 .4909973 .43138124 .48599244 .43138124 .45999146 .43037416 .45199586 .3963623L.40499879 .20930481C.3929901 .15930176 .38198854 .11727905 .3789978 .107284549 .37799073 .10227966 .32998658 .011245728 .24899292 .011245728 .19898987 .011245728 .1749878 .044265748 .1749878 .09828186 .1749878 .12728882 .18199158 .1552887 .18899536 .18330384L.23098755 .35134889Z"/>
<path id="font_1_2" d="M.33399964 .30233766C.33999635 .32835389 .36299134 .42037965 .43299867 .42037965 .43798829 .42037965 .46199037 .42037965 .48298646 .40734864 .45498658 .402359 .43499757 .37734986 .43499757 .35334779 .43499757 .33735658 .44599916 .31835938 .47299195 .31835938 .49499513 .31835938 .5269928 .3363495 .5269928 .37635804 .5269928 .42837525 .46798707 .4423828 .43399049 .4423828 .37599183 .4423828 .34098817 .38935853 .32899476 .36634828 .3039856 .43237306 .25 .4423828 .22099304 .4423828 .116989139 .4423828 .05999756 .3133545 .05999756 .28834535 .05999756 .27833558 .069992069 .27833558 .07199097 .27833558 .07998657 .27833558 .08299255 .28033448 .084991458 .28933717 .11898804 .39535523 .18499756 .42037965 .21899414 .42037965 .23799134 .42037965 .272995 .4113617 .272995 .35334779 .272995 .32235719 .2559967 .25532533 .21899414 .11528015 .20298767 .053268434 .16799927 .011245728 .12399292 .011245728 .117996219 .011245728 .09498596 .011245728 .07398987 .024276734 .09899902 .029266358 .12098694 .05027771 .12098694 .07827759 .12098694 .105270389 .09899902 .11328125 .083999637 .11328125 .053985597 .11328125 .0289917 .08728027 .0289917 .055267335 .0289917 .009246826 .07899475-.0107421879 .12298584-.0107421879 .18899536-.0107421879 .22499085 .059280397 .22799683 .0652771 .23999024 .028274537 .27598573-.0107421879 .33599855-.0107421879 .43899537-.0107421879 .49598695 .118270877 .49598695 .14328003 .49598695 .1532898 .4869995 .1532898 .48399354 .1532898 .47499085 .1532898 .47299195 .14929199 .47099305 .14228821 .43798829 .03527832 .36999513 .011245728 .33799745 .011245728 .29899598 .011245728 .2829895 .043273927 .2829895 .07727051 .2829895 .09927368 .2889862 .121276859 .2999878 .16529846L.33399964 .30233766Z"/>
<path id="font_2_1" d="M.4889984 .31877137C.4889984 .42585755 .47799684 .49090577 .44499208 .55496218 .40098573 .6430359 .31999208 .66503909 .2649994 .66503909 .13899231 .66503909 .09298706 .5709839 .07899475 .5429535 .042999269 .4698944 .040985109 .3708191 .040985109 .31877137 .040985109 .25271607 .04399109 .15162659 .09199524 .07156372 .13798523-.0024871827 .21199036-.021484375 .2649994-.021484375 .31298829-.021484375 .39898683-.0064849855 .44898988 .09257507 .48599244 .16464234 .4889984 .2537079 .4889984 .31877137M.2649994 .006515503C.23098755 .006515503 .1619873 .022521973 .14099121 .12760926 .12998963 .18466187 .12998963 .2787323 .12998963 .33078004 .12998963 .3998413 .12998963 .4698944 .14099121 .5249481 .1619873 .6270294 .23999024 .6370239 .2649994 .6370239 .29899598 .6370239 .36799623 .62002566 .3880005 .5289459 .3999939 .4738922 .3999939 .39883424 .3999939 .33078004 .3999939 .27172853 .3999939 .18165589 .3880005 .12561035 .36698915 .020523072 .2979889 .006515503 .2649994 .006515503Z"/>
<path id="font_3_35" d="M.55400088 .21650696C.55400088 .3425293 .45098878 .44140626 .32899476 .44140626 .25 .44140626 .20098877 .39845277 .18399048 .38053895V.69433596L.034988405 .68333438V.6503296C.102996829 .6503296 .11099243 .6433258 .11099243 .5943451V.00048828127H.14199829L.17799378 .0625C.20199585 .02822876 .24899292-.009765625 .31698609-.009765625 .44400025-.009765625 .55400088 .08828735 .55400088 .21640015V.21650696M.46499635 .21740723C.46499635 .19438172 .46499635 .12332153 .42900086 .07627869 .3929901 .031234742 .34599305 .018234253 .31298829 .018234253 .2649994 .018234253 .22499085 .04324341 .19898987 .08229065 .18699646 .1013031 .18699646 .10231018 .18699646 .12132263V.3164978C.18699646 .33551026 .18699646 .3375244 .20199585 .3555298 .23098755 .39248658 .27799989 .4133911 .32299806 .4133911 .375 .4133911 .4139862 .38252259 .43399049 .35253907 .45098878 .3255005 .46499635 .29048158 .46499635 .21740723Z"/>
<path id="font_3_66" d="M.2599945 .0001373291V.03314209C.19499207 .03314209 .19099427 .038146974 .19099427 .07714844V.44140626L.04499817 .43045045V.39746095C.10899353 .39746095 .117996219 .39144898 .117996219 .34239198V.07814026C.117996219 .03314209 .10598755 .03314209 .041992189 .03314209V0C.08099365 .0029907227 .13699341 .0029907227 .1519928 .0029907227 .16499329 .0029907227 .22499085 .0029907227 .2599945 0V.0001373291M.20298767 .6021881C.20298767 .6351929 .1769867 .6582031 .147995 .6582031 .11898804 .6582031 .09298706 .6351929 .09298706 .6021881 .09298706 .5731964 .115997318 .54719546 .147995 .54719546 .1789856 .54719546 .20298767 .5731964 .20298767 .6021881Z"/>
<path id="font_3_55" d="M.3769989 .63201907C.3769989 .6750946 .33499146 .70410159 .28199769 .70410159 .20698548 .70410159 .117996219 .65005496 .117996219 .54286196V.43066407H.035995485V.3976593H.117996219V.07795715C.117996219 .032989503 .10598755 .032989503 .041992189 .032989503V0C.08099365 .0029907227 .13598633 .0029907227 .1599884 .0029907227 .21899414 .0029907227 .22099304 .0029907227 .28599549 0V.032989503H.2659912C.19299317 .032989503 .19099427 .04397583 .19099427 .079956058V.3976593H.31098939V.43066407H.18798828V.54385378C.18798828 .63108828 .23699951 .6760864 .2809906 .6760864 .29699708 .6760864 .30599977 .6720886 .30999757 .6710968 .2919922 .6620941 .2869873 .6450958 .2869873 .63209536 .2869873 .60609439 .30599977 .58709719 .33198548 .58709719 .35899354 .58709719 .3769989 .60609439 .3769989 .63209536V.63201907Z"/>
<path id="font_3_109" d="M.56199648 .00022888184V.033233644C.49398805 .033233644 .48599244 .040237428 .48599244 .08924866V.44140626L.33399964 .43040467V.3973999C.4019928 .3973999 .4099884 .39039613 .4099884 .34136964V.16726685C.4099884 .08125305 .35798646 .018234253 .2829895 .018234253 .19699097 .018234253 .19299317 .06123352 .19299317 .11126709V.44140626L.040985109 .43040467V.3973999C.116989139 .3973999 .116989139 .39439393 .116989139 .30534364V.15527344C.116989139 .08325195 .116989139-.009765625 .2769928-.009765625 .37098695-.009765625 .40699769 .0622406 .4119873 .071243289H.41299439V-.009765625L.56199648 .00022888184Z"/>
<path id="font_3_96" d="M.38398744 .3784027C.38398744 .4133911 .35198976 .44140626 .30799867 .44140626 .24299622 .44140626 .19898987 .39239503 .17799378 .33639527H.1769867V.44140626L.034988405 .43045045V.39746095C.102996829 .39746095 .11099243 .3904419 .11099243 .3413849V.078048709C.11099243 .032989503 .09899902 .032989503 .034988405 .032989503V0C.07398987 .0029907227 .1289978 .0029907227 .15299988 .0029907227 .21199036 .0029907227 .21398926 .0029907227 .2789917 0V.032989503H.25898744C.18598938 .032989503 .18399048 .044006349 .18399048 .08004761V.22824097C.18399048 .30332948 .21499634 .41145326 .31098939 .41345216 .30499269 .40899659 .29499818 .40098573 .29499818 .37799073 .29499818 .34700013 .31900025 .33299256 .33898927 .33299256 .36299134 .33299256 .38398744 .34899903 .38398744 .37799073V.3784027Z"/>
<path id="font_3_43" d="M.44099427 .12031555C.44099427 .13232422 .42799378 .13232422 .4249878 .13232422 .41799928 .13232422 .41299439 .13131714 .4099884 .12130737 .40299989 .10029602 .375 .021224976 .2749939 .021224976 .21299744 .021224976 .12399292 .0692749 .12399292 .21739197 .12399292 .3614807 .19799805 .4152832 .2709961 .4152832 .27999879 .4152832 .33299256 .4152832 .36799623 .39746095 .33999635 .3884735 .33599855 .36547853 .33599855 .35346986 .33599855 .32647706 .35499574 .30647279 .3829956 .30647279 .40899659 .30625917 .42999269 .32426454 .42999269 .35427857 .42999269 .41627503 .3619995 .44628907 .2679901 .44628907 .1289978 .44628907 .034988405 .3352661 .034988405 .21624756 .034988405 .0892334 .13899231-.009765625 .2649994-.009765625 .4059906-.009765625 .44099427 .10824585 .44099427 .12023926V.12031555Z"/>
<path id="font_3_28" d="M.5139923 .09020996V.14530945H.48298646V.09020996C.48298646 .0491333 .46798707 .033111574 .44699098 .033111574 .4099884 .033111574 .4099884 .079193118 .4099884 .09020996V.29856874C.4099884 .39653016 .31498719 .44628907 .22399903 .44628907 .14099121 .44628907 .066986087 .4143219 .066986087 .34857179 .066986087 .318573 .08799744 .30056764 .11399841 .30056764 .14199829 .30056764 .16099549 .3205719 .16099549 .3475647 .16099549 .37156678 .1459961 .38856507 .12399292 .3935547 .16099549 .41827394 .21499634 .41827394 .22200012 .41827394 .27799989 .41827394 .33399964 .37957765 .33399964 .29756166V.26651C.27598573 .26350404 .20899964 .26049806 .13899231 .23144531 .050994874 .1933899 .033996583 .13528443 .033996583 .10223389 .033996583 .016220093 .1349945-.009765625 .20399475-.009765625 .2769928-.009765625 .32199098 .031219483 .34399415 .07122803 .34899903 .033111574 .375-.0048828127 .4189911-.0048828127 .42900086-.0048828127 .5139923-.00088500979 .5139923 .09010315V.09020996M.33399964 .14111328C.33399964 .04421997 .2519989 .018234253 .21199036 .018234253 .1599884 .018234253 .115997318 .053222658 .115997318 .10122681 .115997318 .16722107 .17799378 .23522949 .33399964 .24023438V.14111328Z"/>
<path id="font_3_105" d="M.35299684 .1250763V.1809845H.32199098V.12705994C.32199098 .058166505 .29100038 .021224976 .25299073 .021224976 .18598938 .021224976 .18598938 .10710144 .18598938 .12307739V.3976593H.33499146V.43066407H.18598938V.6142578H.15499878C.1539917 .52345278 .11299133 .4286499 .019989014 .42565919V.3976593H.10998535V.1250763C.10998535 .008224487 .19999695-.009765625 .24598694-.009765625 .31298829-.010009766 .35299684 .049987794 .35299684 .125V.1250763Z"/>
<path id="font_3_81" d="M.5 .21325684C.5 .3382721 .39698792 .44628907 .2649994 .44628907 .1329956 .44628907 .02999878 .3382721 .02999878 .21325684 .02999878 .08824158 .13699341-.009765625 .2649994-.009765625 .3939972-.009765625 .5 .08824158 .5 .21325684M.41099549 .22225952C.41099549 .17625427 .40899659 .12124634 .3809967 .07923889 .35398866 .039230348 .30899049 .021224976 .2649994 .021224976 .21099854 .021224976 .16899109 .047225954 .14698792 .082229617 .12199402 .12324524 .11898804 .17224121 .11898804 .22225952 .11898804 .2602539 .11898804 .32026673 .1499939 .363266 .17599488 .3982849 .21798706 .41827394 .2649994 .41827394 .31698609 .41827394 .3600006 .39328004 .3829956 .35827638 .4099884 .31626893 .41099549 .2622528 .41099549 .22225952Z"/>
<path id="font_3_77" d="M.56199648 0V.032989503C.49798585 .032989503 .48599244 .032989503 .48599244 .07803345V.3032837C.48599244 .38737489 .44799806 .44140626 .34298707 .44140626 .24398804 .44140626 .19898987 .36935426 .18699646 .34532167H.18598938V.44140626L.040985109 .43045045V.39746095C.10899353 .39746095 .116989139 .3904419 .116989139 .3413849V.078048709C.116989139 .032989503 .10499573 .032989503 .040985109 .032989503V0C.083999637 .0029907227 .12799073 .0029907227 .15499878 .0029907227 .18399048 .0029907227 .22599793 .0029907227 .2689972 0V.032989503C.20498657 .032989503 .19299317 .032989503 .19299317 .078048709V.25927735C.19299317 .36434938 .272995 .4133911 .33399964 .4133911 .394989 .4133911 .4099884 .37036134 .4099884 .3072815V.07803345C.4099884 .032989503 .397995 .032989503 .33399964 .032989503V0C.3769989 .0029907227 .42099 .0029907227 .44799806 .0029907227 .47698976 .0029907227 .5189972 .0029907227 .56199648 0Z"/>
<path id="font_4_1" d="M.24198914 .35336305C.24699402 .3723755 .25498963 .4053955 .25498963 .41038514 .25498963 .43139649 .23899842 .44140626 .22200012 .44140626 .18798828 .44140626 .17999268 .40838624 .17599488 .39437867L.036987306-.1608429C.032989503-.17684937 .032989503-.18183899 .032989503-.18385315 .032989503-.20884705 .052993776-.21484375 .06498718-.21484375 .069992069-.21484375 .09298706-.21385193 .10598755-.18785095 .10899353-.17984009 .13798523-.060791017 .1579895 .019226075 .1749878 .006225586 .20899964-.009765625 .2599945-.009765625 .34199525-.009765625 .3959961 .057235719 .39898683 .06124878 .4169922-.0077667238 .4850006-.009765625 .49699403-.009765625 .54299929-.009765625 .56599429 .02822876 .57398989 .04524231 .59399417 .08125305 .60798647 .13928223 .60798647 .14328003 .60798647 .14927674 .60398867 .15628052 .59199526 .15628052 .5799866 .15628052 .5779877 .15028382 .57199099 .12527466 .55799868 .070251468 .5389862 .018234253 .5 .018234253 .47698976 .018234253 .46798707 .037231447 .46798707 .06524658 .46798707 .08226013 .47898866 .12527466 .48599244 .15428162L.5119934 .2563324C.5179901 .28233338 .522995 .30334474 .5309906 .33335877 .5359955 .35536195 .54599 .39437867 .54599 .40039063 .54599 .42539979 .526001 .43139649 .5139923 .43139649 .47898866 .43139649 .47299195 .40638734 .46199037 .3613739L.44099427 .27833558 .4099884 .1532898 .3999939 .11326599C.397995 .10726929 .37098695 .069244388 .34799195 .050247194 .33099366 .037231447 .3019867 .018234253 .2649994 .018234253 .21798706 .018234253 .18598938 .04324341 .18598938 .105270389 .18598938 .13127136 .19400025 .1612854 .19999695 .18530274L.24198914 .35336305Z"/>
<path id="font_2_2" d="M.73098757 .3330078C.74598696 .3330078 .7659912 .3330078 .7659912 .3560028 .7659912 .3789978 .74198916 .3789978 .72698977 .3789978H.09799194C.08299255 .3789978 .05899048 .3789978 .05899048 .3560028 .05899048 .3330078 .07899475 .3330078 .09399414 .3330078H.73098757M.72698977 .12098694C.74198916 .12098694 .7659912 .12098694 .7659912 .14398194 .7659912 .16699219 .74598696 .16699219 .73098757 .16699219H.09399414C.07899475 .16699219 .05899048 .16699219 .05899048 .14398194 .05899048 .12098694 .08299255 .12098694 .09799194 .12098694H.72698977Z"/>
<path id="font_3_97" d="M.5299988 .18458557C.5299988 .2716217 .47299195 .36065675 .37098695 .38467408L.23298645 .416687C.16899109 .4316864 .12199402 .4827118 .12199402 .5437927 .12199402 .61094668 .17999268 .6740875 .2669983 .6740875 .43998719 .6740875 .46299745 .51171877 .46798707 .4737091 .46998597 .46270753 .47099305 .45570375 .48399354 .45570375 .5 .45570375 .5 .46270753 .5 .4817047V.6781006C.5 .6940918 .5 .70410159 .4869995 .70410159 .47898866 .70410159 .47698976 .7010956 .46998597 .690094L.43499757 .6340027C.3849945 .6890869 .32099916 .70410159 .2659912 .70410159 .14698792 .70410159 .05899048 .61395266 .05899048 .51171877 .05899048 .43569947 .101989749 .39367677 .12098694 .3746643 .15699768 .33865357 .18998719 .3306427 .2979889 .30563355 .38398744 .28562928 .39898683 .2826233 .43199159 .24760437 .44198609 .23660279 .46699525 .20259094 .46699525 .15356446 .46699525 .08453369 .4139862 .011505127 .31999208 .011505127 .20999146 .011505127 .09599304 .06452942 .08999634 .20359802 .08898926 .21960449 .08898926 .22660828 .07499695 .22660828 .05899048 .22660828 .05899048 .21859741 .05899048 .19958496V.004501343C.05899048-.011489868 .05899048-.021484375 .07199097-.021484375 .07998657-.021484375 .08099365-.019485474 .08799744-.009490967 .09199524-.0034942628 .09599304 .005508423 .12399292 .047531129 .18699646-.0084991459 .26098634-.021484375 .32099916-.021484375 .44599916-.021484375 .5299988 .07752991 .5299988 .18458557Z"/>
<path id="font_3_72" d="M.2669983 0V.032989503C.20298767 .032989503 .19099427 .032989503 .19099427 .07801819V.69433596L.041992189 .6826172V.6496124C.10998535 .6496124 .117996219 .64260867 .117996219 .5936432V.07795715C.117996219 .032989503 .10598755 .032989503 .041992189 .032989503V0C.08099365 .0029907227 .13699341 .0029907227 .1539917 .0029907227 .17399597 .0029907227 .22799683 .0029907227 .2669983 0Z"/>
<path id="font_3_50" d="M.44099427 .12036133C.44099427 .12435913 .43798829 .13438416 .4249878 .13438416 .4139862 .13438416 .4119873 .12736511 .4099884 .12136841 .37399293 .024230957 .28799439 .021224976 .269989 .021224976 .22499085 .021224976 .1789856 .042251588 .14898682 .08831787 .11898804 .13438416 .11898804 .19847107 .11898804 .22851563H.41299439C.43499757 .22851563 .44099427 .22851563 .44099427 .25151063 .44099427 .34039308 .3919983 .44628907 .25099183 .44628907 .1269989 .44628907 .02999878 .3433838 .02999878 .21949768 .02999878 .09031677 .13798523-.009765625 .2639923-.009765625 .3909912-.009765625 .44099427 .097335819 .44099427 .12036133M.37298585 .25450135H.11999512C.1289978 .39431764 .21398926 .41827394 .25099183 .41827394 .36799623 .41827394 .37199403 .27748109 .37298585 .25450135Z"/>
<path id="font_3_108" d="M.7509918 .6496124V.6826172C.70599368 .6796112 .6609955 .6796112 .6339874 .6796112 .6049957 .6796112 .5609894 .6796112 .5159912 .6826172V.6496124C.61698916 .6496124 .61698916 .6016083 .61698916 .5756073V.23054505C.61698916 .0945282 .5149994 .011505127 .41299439 .011505127 .35899354 .011505127 .23699951 .042510988 .23699951 .22554016V.6016083C.23699951 .63861086 .23899842 .6496124 .31599427 .6496124H.33799745V.6826172L.19099427 .6796112 .04399109 .6826172V.6496124H.06599426C.14299011 .6496124 .14498902 .63861086 .14498902 .6016083V.22854615C.14498902 .08552551 .2689972-.021484375 .41099549-.021484375 .54499819-.021484375 .6499939 .09051514 .6499939 .22753906V.5756073C.6499939 .6016083 .6499939 .6496124 .7509918 .6496124Z"/>
<path id="font_3_98" d="M.3829956 .12924195C.3829956 .1772461 .35398866 .24725342 .23498535 .2692566 .22698975 .2712555 .17098999 .28126527 .16699219 .28126527 .13598633 .28826905 .08898926 .30926515 .08898926 .34927369 .08898926 .37927247 .11099243 .4212799 .20599365 .4212799 .31799317 .4212799 .32299806 .33926393 .32499696 .31126405 .32598878 .30326844 .33299256 .30026246 .33999635 .30026246 .35598756 .30026246 .35598756 .30726625 .35598756 .32626344V.4202881C.35598756 .4362793 .35598756 .44628907 .34298707 .44628907 .33799745 .44628907 .33499146 .44628907 .31900025 .4302826 .31698609 .4292755 .30799867 .4202881 .30499269 .4202881 .30499269 .4202881 .3019867 .4202881 .29599 .4242859 .27999879 .43528749 .25099183 .44628907 .20599365 .44628907 .06599426 .44628907 .034988405 .37026979 .034988405 .32226563 .034988405 .27226258 .07199097 .24325562 .07499695 .24024964 .114990238 .21025086 .13798523 .20625305 .20498657 .19424439 .2519989 .18525696 .32899476 .17124939 .32899476 .10324097 .32899476 .0642395 .30299378 .018234253 .21099854 .018234253 .10998535 .018234253 .08099365 .09623718 .067993167 .14924622 .06399536 .1622467 .06298828 .16725159 .050994874 .16725159 .034988405 .16725159 .034988405 .15924073 .034988405 .14024353V.016220093C.034988405 .00022888184 .034988405-.009765625 .04798889-.009765625 .053985597-.009765625 .054992677-.008773804 .07299805 .010223389 .07798767 .0152282719 .08898926 .02822876 .09399414 .033233644 .13899231-.0077667238 .18598938-.009765625 .21199036-.009765625 .33898927-.009765625 .3829956 .06323242 .3829956 .12924195Z"/>
</defs>
<path transform="matrix(1.00003,0,0,-1.00005,29.81491,42.073305)" stroke-width=".3985" stroke-linecap="butt" stroke-miterlimit="10" stroke-linejoin="miter" fill="none" stroke="#000000" d="M-28.3468 0H61.96439"/>
<path transform="matrix(1.00003,0,0,-1.00005,91.98042,42.073305)" stroke-width=".3985" stroke-linecap="round" stroke-linejoin="round" fill="none" stroke="#000000" d="M-2.07224 2.39104C-1.69365 .95639-.84999 .27895 0 0-.84999-.27895-1.69365-.95639-2.07224-2.39104"/>
<use data-text="&#x00b5;" xlink:href="#font_1_1" transform="matrix(10.909428,0,0,-10.909644,88.892688,50.60573)"/>
<path transform="matrix(1.00003,0,0,-1.00005,29.81491,42.073305)" stroke-width=".3985" stroke-linecap="butt" stroke-miterlimit="10" stroke-linejoin="miter" fill="none" stroke="#000000" d="M0-34.01608V33.61757"/>
<path transform="matrix(0,-1.00005,-1.00003,-0,29.81491,8.254795)" stroke-width=".3985" stroke-linecap="round" stroke-linejoin="round" fill="none" stroke="#000000" d="M-2.07224 2.39104C-1.69365 .95639-.84999 .27895 0 0-.84999-.27895-1.69365-.95639-2.07224-2.39104"/>
<use data-text="x" xlink:href="#font_1_2" transform="matrix(10.909428,0,0,-10.909644,19.744606,10.403723)"/>
<use data-text="0" xlink:href="#font_2_1" transform="matrix(7.9703395,0,0,-7.970498,21.745667,51.045755)"/>
<path transform="matrix(1.00003,0,0,-1.00005,29.81491,42.073305)" stroke-width=".79701" stroke-linecap="butt" stroke-miterlimit="10" stroke-linejoin="miter" fill="none" stroke="#000000" d="M0 0 .57222 4.02777 1.14447 5.69522 1.71672 6.97552 2.28897 8.05515 2.86122 9.00586 3.43347 9.86531 4.0057 10.65599 4.57796 11.39174 5.1502 12.08293 5.72246 12.73607 6.29471 13.35806 6.86696 13.95193 7.43921 14.52158 8.01144 15.06961 8.5837 15.5986 9.15594 16.11029 9.7282 16.60597 10.30045 17.0874 10.8727 17.55583 11.44493 18.01173 12.01718 18.45638 12.58943 18.89108 13.16168 19.3154 13.73393 19.73106 14.30618 20.13766 14.87843 20.53645 15.45067 20.9279 16.02292 21.312 16.59517 21.68918 17.16742 22.05986 17.73967 22.42448 18.31192 22.7835 18.88417 23.13644 19.4564 23.48463 20.02866 23.82764 20.6009 24.16545 21.17316 24.4985 21.7454 24.82767 22.31766 25.15207 22.8899 25.47258 23.46214 25.78877 24.0344 26.10149 24.60664 26.41032 25.1789 26.7157 25.75114 27.01761 26.3234 27.31606 26.89563 27.61148 27.46788 27.90388 28.04013 28.19281 28.61237 28.47916 29.18462 28.76247 29.75687 29.04317 30.32912 29.32086 30.90135 29.59639 31.4736 29.8689 32.04585 30.13924 32.6181 30.4074 33.19035 30.67297 33.7626 30.9364 34.33484 31.19722 34.90709 31.4563 35.47934 31.71281 36.05159 31.968 36.62384 32.22017 37.19609 32.47104 37.76834 32.72018 38.34058 32.96716 38.91283 33.21198 39.48508 33.4555 40.05733 33.69685 40.62958 33.93692 41.20183 34.17482 41.77408 34.4114 42.34631 34.64627 42.91856 34.87941 43.49081 35.11168 44.06306 35.3418 44.63531 35.57062 45.20757 35.79768 45.7798 36.02348 46.35205 36.2484 46.9243 36.47115 47.49655 36.69305 48.0688 36.91321 48.64105 37.1325 49.2133 37.35007 49.78554 37.56677 50.35779 37.78218 50.93004 37.99585 51.50229 38.20866 52.07454 38.42061 52.64679 38.63081 53.21904 38.8406 53.79128 39.04865 54.36353 39.25583 54.93578 39.46173 55.50803 39.66675 56.08028 39.87091 56.65251 40.07376"/>
<path transform="matrix(1.00003,0,0,-1.00005,29.81491,42.073305)" stroke-width=".79701" stroke-linecap="butt" stroke-dasharray="2.98883,2.98883" stroke-miterlimit="10" stroke-linejoin="miter" fill="none" stroke="#000000" d="M0 0 .57222-4.02777 1.14447-5.69522 1.71672-6.97552 2.28897-8.05515 2.86122-9.00586 3.43347-9.86531 4.0057-10.65599 4.57796-11.39174 5.1502-12.08293 5.72246-12.73607 6.29471-13.35806 6.86696-13.95193 7.43921-14.52158 8.01144-15.06961 8.5837-15.5986 9.15594-16.11029 9.7282-16.60597 10.30045-17.0874 10.8727-17.55583 11.44493-18.01173 12.01718-18.45638 12.58943-18.89108 13.16168-19.3154 13.73393-19.73106 14.30618-20.13766 14.87843-20.53645 15.45067-20.9279 16.02292-21.312 16.59517-21.68918 17.16742-22.05986 17.73967-22.42448 18.31192-22.7835 18.88417-23.13644 19.4564-23.48463 20.02866-23.82764 20.6009-24.16545 21.17316-24.4985 21.7454-24.82767 22.31766-25.15207 22.8899-25.47258 23.46214-25.78877 24.0344-26.10149 24.60664-26.41032 25.1789-26.7157 25.75114-27.01761 26.3234-27.31606 26.89563-27.61148 27.46788-27.90388 28.04013-28.19281 28.61237-28.47916 29.18462-28.76247 29.75687-29.04317 30.32912-29.32086 30.90135-29.59639 31.4736-29.8689 32.04585-30.13924 32.6181-30.4074 33.19035-30.67297 33.7626-30.9364 34.33484-31.19722 34.90709-31.4563 35.47934-31.71281 36.05159-31.968 36.62384-32.22017 37.19609-32.47104 37.76834-32.72018 38.34058-32.96716 38.91283-33.21198 39.48508-33.4555 40.05733-33.69685 40.62958-33.93692 41.20183-34.17482 41.77408-34.4114 42.34631-34.64627 42.91856-34.87941 43.49081-35.11168 44.06306-35.3418 44.63531-35.57062 45.20757-35.79768 45.7798-36.02348 46.35205-36.2484 46.9243-36.47115 47.49655-36.69305 48.0688-36.91321 48.64105-37.1325 49.2133-37.35007 49.78554-37.56677 50.35779-37.78218 50.93004-37.99585 51.50229-38.20866 52.07454-38.42061 52.64679-38.63081 53.21904-38.8406 53.79128-39.04865 54.36353-39.25583 54.93578-39.46173 55.50803-39.66675 56.08028-39.87091 56.65251-40.07376"/>
<path transform="matrix(1.00003,0,0,-1.00005,29.81491,42.073305)" stroke-width=".3985" stroke-linecap="butt" stroke-dasharray=".3985,1.99255" stroke-miterlimit="10" stroke-linejoin="miter" fill="none" stroke="#000000" d="M0-34.01608V34.01608"/>
<use data-text="b" xlink:href="#font_3_35" transform="matrix(7.9703395,0,0,-7.970498,35.06807,54.35492)"/>
<use data-text="i" xlink:href="#font_3_66" transform="matrix(7.9703395,0,0,-7.970498,39.770578,54.35492)"/>
<use data-text="f" xlink:href="#font_3_55" transform="matrix(7.9703395,0,0,-7.970498,42.121828,54.35492)"/>
<use data-text="u" xlink:href="#font_3_109" transform="matrix(7.9703395,0,0,-7.970498,44.71219,54.35492)"/>
<use data-text="r" xlink:href="#font_3_96" transform="matrix(7.9703395,0,0,-7.970498,49.414697,54.35492)"/>
<use data-text="c" xlink:href="#font_3_43" transform="matrix(7.9703395,0,0,-7.970498,52.714418,54.35492)"/>
<use data-text="a" xlink:href="#font_3_28" transform="matrix(7.9703395,0,0,-7.970498,56.47641,54.35492)"/>
<use data-text="t" xlink:href="#font_3_105" transform="matrix(7.9703395,0,0,-7.970498,60.708665,54.35492)"/>
<use data-text="i" xlink:href="#font_3_66" transform="matrix(7.9703395,0,0,-7.970498,64.00041,54.35492)"/>
<use data-text="o" xlink:href="#font_3_81" transform="matrix(7.9703395,0,0,-7.970498,66.351657,54.35492)"/>
<use data-text="n" xlink:href="#font_3_77" transform="matrix(7.9703395,0,0,-7.970498,70.58391,54.35492)"/>
<use data-text="a" xlink:href="#font_3_28" transform="matrix(7.9703395,0,0,-7.970498,78.09993,54.35492)"/>
<use data-text="t" xlink:href="#font_3_105" transform="matrix(7.9703395,0,0,-7.970498,82.332187,54.35492)"/>
<use data-text="&#x00b5;" xlink:href="#font_4_1" transform="matrix(7.9703395,0,0,-7.970498,88.45268,54.35492)"/>
<use data-text="=" xlink:href="#font_2_2" transform="matrix(7.9703395,0,0,-7.970498,95.8999,54.35492)"/>
<use data-text="0" xlink:href="#font_2_1" transform="matrix(7.9703395,0,0,-7.970498,104.834659,54.35492)"/>
<path transform="matrix(1.00003,0,0,-1.00005,29.81491,42.073305)" stroke-width=".79701" stroke-linecap="butt" stroke-miterlimit="10" stroke-linejoin="miter" fill="none" stroke="#000000" d="M36.85092 25.51193H45.35506"/>
<use data-text="S" xlink:href="#font_3_97" transform="matrix(7.9703395,0,0,-7.970498,79.20639,19.282164)"/>
<use data-text="t" xlink:href="#font_3_105" transform="matrix(7.9703395,0,0,-7.970498,83.908908,19.282164)"/>
<use data-text="a" xlink:href="#font_3_28" transform="matrix(7.9703395,0,0,-7.970498,87.20065,19.282164)"/>
<use data-text="b" xlink:href="#font_3_35" transform="matrix(7.9703395,0,0,-7.970498,91.43289,19.282164)"/>
<use data-text="l" xlink:href="#font_3_72" transform="matrix(7.9703395,0,0,-7.970498,96.13541,19.282164)"/>
<use data-text="e" xlink:href="#font_3_50" transform="matrix(7.9703395,0,0,-7.970498,98.48665,19.282164)"/>
<path transform="matrix(1.00003,0,0,-1.00005,29.81491,42.073305)" stroke-width=".79701" stroke-linecap="butt" stroke-dasharray="2.98883,2.98883" stroke-miterlimit="10" stroke-linejoin="miter" fill="none" stroke="#000000" d="M36.85092 17.00824H45.35506"/>
<use data-text="U" xlink:href="#font_3_108" transform="matrix(7.9703395,0,0,-7.970498,79.20639,27.746588)"/>
<use data-text="n" xlink:href="#font_3_77" transform="matrix(7.9703395,0,0,-7.970498,85.55078,27.746588)"/>
<use data-text="s" xlink:href="#font_3_98" transform="matrix(7.9703395,0,0,-7.970498,90.253299,27.746588)"/>
<use data-text="t" xlink:href="#font_3_105" transform="matrix(7.9703395,0,0,-7.970498,93.592868,27.746588)"/>
<use data-text="a" xlink:href="#font_3_28" transform="matrix(7.9703395,0,0,-7.970498,96.88461,27.746588)"/>
<use data-text="b" xlink:href="#font_3_35" transform="matrix(7.9703395,0,0,-7.970498,101.11685,27.746588)"/>
<use data-text="l" xlink:href="#font_3_72" transform="matrix(7.9703395,0,0,-7.970498,105.81937,27.746588)"/>
<use data-text="e" xlink:href="#font_3_50" transform="matrix(7.9703395,0,0,-7.970498,108.17061,27.746588)"/>
</svg>
