<svg xmlns="http://www.w3.org/2000/svg" xmlns:xlink="http://www.w3.org/1999/xlink" version="1.1" width="94" height="65" viewBox="0 0 94 65">
<defs>
<path id="font_1_1" d="M.43699647 0V.0289917L.35299684 .035995485C.33198548 .037994386 .31999208 .04598999 .31999208 .08496094V.67367556L.31498719 .6796875 .10899353 .6446991V.6197052L.20199585 .6087036C.21899414 .6067047 .22599793 .5987091 .22599793 .56973269V.08496094C.22599793 .065979007 .22299195 .053985597 .21699524 .04698181 .21199036 .039993287 .20399475 .036987306 .19299317 .035995485L.10899353 .0289917V0H.43699647Z"/>
<clipPath id="clip_2">
<path transform="matrix(1.00005,0,0,-1,1.3923645,63.721)" d="M0 0H90.96863V62.62363H0Z"/>
</clipPath>
<path id="font_1_8" d="M.36698915 .35102845V.46794129C.33399964 .49194337 .2829895 .5019531 .23799134 .5019531 .12998963 .5019531 .056991579 .45095826 .055999757 .35603334 .056991579 .27308656 .12399292 .2361145 .20698548 .21113587 .2519989 .19714356 .31498719 .17416382 .31498719 .10621643 .31498719 .055252077 .2749939 .023269654 .22200012 .023269654 .14099121 .023269654 .09599304 .082229617 .07598877 .16716004H.04699707L.056991579 .03627014C.09298706 .004272461 .1539917-.01171875 .21299744-.01171875 .33198548-.01171875 .3999939 .051254274 .3999939 .13618469 .3999939 .2241211 .34599305 .26409913 .24299622 .29606629 .20199585 .30906678 .13598633 .3300476 .13598633 .3860016 .13699341 .43795777 .17599488 .46694947 .22599793 .46694947 .29699708 .46694947 .33099366 .4119873 .33799745 .35102845H.36698915Z"/>
<path id="font_1_5" d="M.18899536 .7361908 .18199158 .7421875 .024993897 .71717837V.6921692L.06298828 .6881714C.08898926 .6851654 .09498596 .6801758 .09498596 .6421509V.087005618C.09498596 .035995485 .09199524 .033996583 .019989014 .0289917V0H.2639923V.0289917C.19299317 .033996583 .18899536 .035995485 .18899536 .087005618V.7361908Z"/>
<path id="font_1_6" d="M.28799439 .5019531C.12799073 .5019531 .04899597 .40698243 .04899597 .24510193 .04899597 .083236698 .12799073-.01171875 .28799439-.01171875 .44999696-.01171875 .5279999 .083236698 .5279999 .24510193 .5279999 .40698243 .44999696 .5019531 .28799439 .5019531M.15299988 .24510193C.15299988 .38301087 .19699097 .46694947 .28799439 .46694947 .3809967 .46694947 .42399598 .38301087 .42399598 .24510193 .42399598 .10720825 .3809967 .023269654 .28799439 .023269654 .19699097 .023269654 .15299988 .10720825 .15299988 .24510193Z"/>
<path id="font_1_7" d="M.19400025 .32104493C.19400025 .34602357 .19799805 .36001588 .20698548 .37800599 .22999573 .42396546 .272995 .44795228 .32598878 .44795228 .3659973 .44795228 .45498658 .42196656 .45498658 .25009156 .45498658 .10321045 .40899659 .023269654 .30899049 .023269654 .25698854 .023269654 .21699524 .050247194 .20098877 .096221927 .19499207 .11419678 .19400025 .13418579 .19400025 .15716553V.32104493M.02999878 .47694398V.45195008L.067993167 .4469452C.09399414 .4429474 .099990848 .43795777 .099990848 .40197755V-.14324951C.099990848-.19444275 .09498596-.19645691 .024993897-.20147705V-.23046875H.28399659V-.20147705C.19999695-.19645691 .19400025-.19444275 .19400025-.14324951V.011276245C.21499634-.0007324219 .2619934-.01171875 .30799867-.01171875 .44299317-.01171875 .5589905 .050247194 .5589905 .25608827 .5589905 .32704164 .54599 .5019531 .3639984 .5019531 .29100038 .5019531 .23298645 .4529419 .19400025 .42796327L.18099976 .5019531 .02999878 .47694398Z"/>
<path id="font_1_4" d="M.44099427 .2627716C.46199037 .2627716 .48098756 .2677765 .48098756 .30078126 .48098756 .35983277 .46199037 .5019531 .2789917 .5019531 .12298584 .5019531 .04899597 .39086915 .04899597 .24082947 .04899597 .08317566 .116989139-.01373291 .27999879-.01171875 .3909912-.010726929 .44799806 .050247194 .47499085 .1290741L.44499208 .14503479C.4169922 .08717346 .3789978 .039276124 .2999878 .039276124 .17599488 .039276124 .15098572 .15901184 .15299988 .2627716H.44099427M.1539917 .30078126C.1539917 .34181214 .16899109 .46694947 .272995 .46694947 .3659973 .46694947 .3769989 .37184144 .3769989 .33280946 .3769989 .31378175 .37098695 .30078126 .34298707 .30078126H.1539917Z"/>
<path id="font_1_3" d="M.1329956-.01171875C.17199707-.01171875 .19499207 .015274048 .19599915 .05126953 .19599915 .088272098 .17199707 .11627197 .1329956 .11627197 .09498596 .11627197 .069992069 .088272098 .069992069 .05126953 .069992069 .015274048 .09498596-.01171875 .1329956-.01171875M.1329956 .3622284C.17199707 .3622284 .19499207 .3892212 .19599915 .42622376 .19599915 .46221925 .17199707 .49023438 .1329956 .49023438 .09498596 .49023438 .069992069 .46221925 .069992069 .42622376 .069992069 .3892212 .09498596 .3622284 .1329956 .3622284Z"/>
<path id="font_3_1" d="M.6349945 .2529297V.31092835H.084991458V.2529297H.6349945Z"/>
<path id="font_1_2" d="M.4850006 .13195801 .45700074 .13696289C.43598939 .08299255 .41600038 .07598877 .37599183 .07598877H.11999512C.13598633 .1279602 .19499207 .19892884 .28799439 .2658844 .38398744 .33584596 .45799256 .38082887 .45799256 .49276734 .45799256 .63168337 .3659973 .6796875 .26098634 .6796875 .12399292 .6796875 .052993776 .5967102 .052993776 .54473879 .052993776 .51075747 .09098816 .49476625 .10798645 .49476625 .12599182 .49476625 .1329956 .50476077 .13699341 .5217438 .15299988 .5897064 .19198609 .64468386 .2539978 .64468386 .33099366 .64468386 .35299684 .5797119 .35299684 .50675967 .35299684 .3998108 .29899598 .33984376 .21199036 .26289369 .08898926 .15594483 .04598999 .08798218 .026992798 .009994507L.036987306 0H.45098878L.4850006 .13195801Z"/>
<path id="font_4_1" d="M.42799378 .45222474 .43899537 .49023438H.31199647L.34599305 .6092224 .33399964 .6162262 .23699951 .53923037 .22399903 .49023438H.14299011L.13198853 .45222474H.21499634L.125 .08627319C.10998535 .029266358 .12199402-.01171875 .17199707-.01171875 .2519989-.01171875 .31599427 .054275514 .35598756 .1292572L.33399964 .1462555C.31098939 .10726929 .2599945 .040267946 .22898865 .040267946 .20799256 .040267946 .20799256 .0632782 .21398926 .088272098L.30299378 .45222474H.42799378Z"/>
<path id="font_4_2" d="M.070999149 .45393373 .07398987 .42893983 .14199829 .43093873C.1639862 .43193055 .16899109 .41493226 .1769867 .36291505 .18798828 .28489686 .20999146 .09286499 .20999146 .0128479 .20999146-.017166138 .20799256-.058166505 .18598938-.11117554 .16799927-.15318299 .14199829-.18218994 .12199402-.18218994 .10699463-.18218994 .09599304-.17118836 .08099365-.15118408 .068984989-.13517761 .06098938-.127182 .04598999-.127182 .019989014-.12818909-.005004883-.15818787-.005004883-.18719483-.005004883-.21418762 .023986817-.2421875 .067993167-.2421875 .15299988-.2421875 .18998719-.17919922 .27799989-.027160645 .2979889 .0068511965 .35798646 .11286926 .41999818 .21488953 .47698976 .30891419 .5399933 .40592958 .5399933 .4459381 .5399933 .48094178 .5289917 .5019531 .5219879 .5019531 .5029907 .5019531 .46899415 .49394227 .44400025 .47694398 .44499208 .4419403 .44299317 .3809204 .43099977 .33891297 .4149933 .28289796 .35598756 .17488098 .2899933 .06085205H.2869873C.27999879 .21388245 .26098634 .42492677 .24699402 .49795533L.23899842 .5019531 .070999149 .45393373Z"/>
</defs>
<path transform="matrix(1.00005,0,0,-1,1.3923645,63.721)" stroke-width=".3985" stroke-linecap="butt" stroke-miterlimit="10" stroke-linejoin="miter" fill="none" stroke="#cbcbcb" d="M42.80876 0V62.62363"/>
<path transform="matrix(1.00005,0,0,-1,1.3923645,63.721)" stroke-width=".3985" stroke-linecap="butt" stroke-miterlimit="10" stroke-linejoin="miter" fill="none" stroke="#cbcbcb" d="M69.56424 0V62.62363"/>
<path transform="matrix(1.00005,0,0,-1,1.3923645,63.721)" stroke-width=".3985" stroke-linecap="butt" stroke-miterlimit="10" stroke-linejoin="miter" fill="none" stroke="#cbcbcb" d="M0 47.88866H90.96863"/>
<path transform="matrix(1.00005,0,0,-1,1.3923645,63.721)" stroke-width=".3985" stroke-linecap="butt" stroke-miterlimit="10" stroke-linejoin="miter" fill="none" stroke="#cbcbcb" d=""/>
<path transform="matrix(1.00005,0,0,-1,1.3923645,63.721)" stroke-width=".19925" stroke-linecap="butt" stroke-miterlimit="10" stroke-linejoin="miter" fill="none" stroke="#929292" d="M42.80876 9.63373V12.46872"/>
<path transform="matrix(1.00005,0,0,-1,1.3923645,63.721)" stroke-width=".19925" stroke-linecap="butt" stroke-miterlimit="10" stroke-linejoin="miter" fill="none" stroke="#929292" d="M69.56424 8.92519V13.17725"/>
<path transform="matrix(1.00005,0,0,-1,1.3923645,63.721)" stroke-width=".19925" stroke-linecap="butt" stroke-miterlimit="10" stroke-linejoin="miter" fill="none" stroke="#929292" d="M14.63573 47.88866H17.47084"/>
<path transform="matrix(1.00005,0,0,-1,1.3923645,63.721)" stroke-width=".19925" stroke-linecap="butt" stroke-miterlimit="10" stroke-linejoin="miter" fill="none" stroke="#929292" d=""/>
<path transform="matrix(1.00005,0,0,-1,1.3923645,63.721)" stroke-width=".99628" stroke-linecap="butt" stroke-miterlimit="10" stroke-linejoin="miter" fill="none" stroke="#000000" d="M0 11.05122H88.07942"/>
<path transform="matrix(1.00005,0,0,-1,89.47619,52.66978)" d="M2.8892 0-1.73352 2.31136 0 0-1.73352-2.31136"/>
<path transform="matrix(1.00005,0,0,-1,1.3923645,63.721)" stroke-width=".99628" stroke-linecap="butt" stroke-miterlimit="10" stroke-linejoin="miter" fill="none" stroke="#000000" d="M16.05328 0V59.73442"/>
<path transform="matrix(0,-1,-1.00005,-0,17.446446,3.98658)" d="M2.8892 0-1.73352 2.31136 0 0-1.73352-2.31136"/>
<use data-text="1" xlink:href="#font_1_1" transform="matrix(7.332866,0,0,-7.3325,69.01575,63.403)"/>
<g clip-path="url(#clip_2)">
<path transform="matrix(1.00005,0,0,-1,1.3923645,63.721)" stroke-width=".99628" stroke-linecap="butt" stroke-dasharray="2.98883,2.98883" stroke-miterlimit="10" stroke-linejoin="miter" fill="none" stroke="#000000" d="M32.10657 22.10245V22.10245L69.56424 53.0459"/>
<use data-text="s" xlink:href="#font_1_8" transform="matrix(7.332866,0,0,-7.3325,55.529069,43.531)"/>
<use data-text="l" xlink:href="#font_1_5" transform="matrix(7.332866,0,0,-7.3325,58.726198,43.531)"/>
<use data-text="o" xlink:href="#font_1_6" transform="matrix(7.332866,0,0,-7.3325,60.77207,43.531)"/>
<use data-text="p" xlink:href="#font_1_7" transform="matrix(7.332866,0,0,-7.3325,65.00313,43.531)"/>
<use data-text="e" xlink:href="#font_1_4" transform="matrix(7.332866,0,0,-7.3325,69.46152,43.531)"/>
<use data-text=":" xlink:href="#font_1_3" transform="matrix(7.332866,0,0,-7.3325,73.230609,43.531)"/>
<use data-text="&#x2212;" xlink:href="#font_3_1" transform="matrix(7.332866,0,0,-7.3325,77.22415,43.531)"/>
<use data-text="2" xlink:href="#font_1_2" transform="matrix(7.332866,0,0,-7.3325,82.50042,43.531)"/>
</g>
<path transform="matrix(1.00005,0,0,-1,1.3923645,63.721)" d="M34.09912 22.10245C34.09912 23.20293 33.20705 24.095 32.10657 24.095 31.0061 24.095 30.11401 23.20293 30.11401 22.10245 30.11401 21.00198 31.0061 20.1099 32.10657 20.1099 33.20705 20.1099 34.09912 21.00198 34.09912 22.10245ZM32.10657 22.10245" fill="#0000cc"/>
<path transform="matrix(1.00005,0,0,-1,1.3923645,63.721)" stroke-width=".99628" stroke-linecap="butt" stroke-miterlimit="10" stroke-linejoin="miter" fill="none" stroke="#0000ff" d="M34.09912 22.10245C34.09912 23.20293 33.20705 24.095 32.10657 24.095 31.0061 24.095 30.11401 23.20293 30.11401 22.10245 30.11401 21.00198 31.0061 20.1099 32.10657 20.1099 33.20705 20.1099 34.09912 21.00198 34.09912 22.10245ZM32.10657 22.10245"/>
<path transform="matrix(1.00005,0,0,-1,1.3923645,63.721)" d="M71.5568 53.0459C71.5568 54.14636 70.66472 55.03845 69.56424 55.03845 68.46378 55.03845 67.57169 54.14636 67.57169 53.0459 67.57169 51.94542 68.46378 51.05334 69.56424 51.05334 70.66472 51.05334 71.5568 51.94542 71.5568 53.0459ZM69.56424 53.0459" fill="#0000cc"/>
<path transform="matrix(1.00005,0,0,-1,1.3923645,63.721)" stroke-width=".99628" stroke-linecap="butt" stroke-miterlimit="10" stroke-linejoin="miter" fill="none" stroke="#0000ff" d="M71.5568 53.0459C71.5568 54.14636 70.66472 55.03845 69.56424 55.03845 68.46378 55.03845 67.57169 54.14636 67.57169 53.0459 67.57169 51.94542 68.46378 51.05334 69.56424 51.05334 70.66472 51.05334 71.5568 51.94542 71.5568 53.0459ZM69.56424 53.0459"/>
<path transform="matrix(1.00005,0,0,-1,1.3923645,63.721)" stroke-width=".99628" stroke-linecap="butt" stroke-miterlimit="10" stroke-linejoin="miter" fill="none" stroke="#0000ff" d=""/>
<use data-text="t" xlink:href="#font_4_1" transform="matrix(10.036901,0,0,-10.0364,84.1725,48.885004)"/>
<use data-text="y" xlink:href="#font_4_2" transform="matrix(10.036901,0,0,-10.0364,21.689377,9.758999)"/>
</svg>
