<svg xmlns="http://www.w3.org/2000/svg" xmlns:xlink="http://www.w3.org/1999/xlink" version="1.1" width="127" height="124" viewBox="0 0 127 124">
<defs>
<path id="font_1_2" d="M.070999149 .45393373 .07398987 .42893983 .14199829 .43093873C.1639862 .43193055 .16899109 .41493226 .1769867 .36291505 .18798828 .28489686 .20999146 .09286499 .20999146 .0128479 .20999146-.017166138 .20799256-.058166505 .18598938-.11117554 .16799927-.15318299 .14199829-.18218994 .12199402-.18218994 .10699463-.18218994 .09599304-.17118836 .08099365-.15118408 .068984989-.13517761 .06098938-.127182 .04598999-.127182 .019989014-.12818909-.005004883-.15818787-.005004883-.18719483-.005004883-.21418762 .023986817-.2421875 .067993167-.2421875 .15299988-.2421875 .18998719-.17919922 .27799989-.027160645 .2979889 .0068511965 .35798646 .11286926 .41999818 .21488953 .47698976 .30891419 .5399933 .40592958 .5399933 .4459381 .5399933 .48094178 .5289917 .5019531 .5219879 .5019531 .5029907 .5019531 .46899415 .49394227 .44400025 .47694398 .44499208 .4419403 .44299317 .3809204 .43099977 .33891297 .4149933 .28289796 .35598756 .17488098 .2899933 .06085205H.2869873C.27999879 .21388245 .26098634 .42492677 .24699402 .49795533L.23899842 .5019531 .070999149 .45393373Z"/>
<path id="font_1_1" d="M.42799378 .45222474 .43899537 .49023438H.31199647L.34599305 .6092224 .33399964 .6162262 .23699951 .53923037 .22399903 .49023438H.14299011L.13198853 .45222474H.21499634L.125 .08627319C.10998535 .029266358 .12199402-.01171875 .17199707-.01171875 .2519989-.01171875 .31599427 .054275514 .35598756 .1292572L.33399964 .1462555C.31098939 .10726929 .2599945 .040267946 .22898865 .040267946 .20799256 .040267946 .20799256 .0632782 .21398926 .088272098L.30299378 .45222474H.42799378Z"/>
<path id="font_2_1" d="M.43699647 0V.0289917L.35299684 .035995485C.33198548 .037994386 .31999208 .04598999 .31999208 .08496094V.67367556L.31498719 .6796875 .10899353 .6446991V.6197052L.20199585 .6087036C.21899414 .6067047 .22599793 .5987091 .22599793 .56973269V.08496094C.22599793 .065979007 .22299195 .053985597 .21699524 .04698181 .21199036 .039993287 .20399475 .036987306 .19299317 .035995485L.10899353 .0289917V0H.43699647Z"/>
<path id="font_2_2" d="M.12998963 .3657837C.12998963 .3487854 .1349945 .33779908 .147995 .33779908 .1599884 .33779908 .18699646 .34777833 .23498535 .34777833 .31999208 .34777833 .36799623 .27090455 .36799623 .18403626 .36799623 .065216068 .30899049 .023269654 .23799134 .023269654 .17199707 .023269654 .1289978 .07319641 .10998535 .12911988 .10398865 .14808655 .09399414 .15707398 .07998657 .15707398 .06199646 .15707398 .026992798 .13809204 .026992798 .10215759 .026992798 .05921936 .09599304-.01171875 .23699951-.01171875 .38198854-.01171875 .47299195 .06121826 .47299195 .18902588 .47299195 .32281495 .35798646 .3627777 .30299378 .3677826V.3717804C.35699464 .38078309 .44400025 .4207611 .44400025 .5197296 .44400025 .6306915 .35699464 .6796875 .25 .6796875 .117996219 .6796875 .052993776 .60369876 .052993776 .5607147 .052993776 .5297241 .08799744 .51272585 .101989749 .51272585 .114990238 .51272585 .12298584 .5197296 .1269989 .5327301 .14898682 .60069277 .18699646 .64468386 .24299622 .64468386 .32199098 .64468386 .34098817 .57470706 .34098817 .51872256 .34098817 .4587555 .31999208 .38378907 .23498535 .38378907 .18699646 .38378907 .1599884 .39378358 .147995 .39378358 .1349945 .39378358 .12998963 .38378907 .12998963 .3657837Z"/>
<path id="font_2_10" d="M.36698915 .35102845V.46794129C.33399964 .49194337 .2829895 .5019531 .23799134 .5019531 .12998963 .5019531 .056991579 .45095826 .055999757 .35603334 .056991579 .27308656 .12399292 .2361145 .20698548 .21113587 .2519989 .19714356 .31498719 .17416382 .31498719 .10621643 .31498719 .055252077 .2749939 .023269654 .22200012 .023269654 .14099121 .023269654 .09599304 .082229617 .07598877 .16716004H.04699707L.056991579 .03627014C.09298706 .004272461 .1539917-.01171875 .21299744-.01171875 .33198548-.01171875 .3999939 .051254274 .3999939 .13618469 .3999939 .2241211 .34599305 .26409913 .24299622 .29606629 .20199585 .30906678 .13598633 .3300476 .13598633 .3860016 .13699341 .43795777 .17599488 .46694947 .22599793 .46694947 .29699708 .46694947 .33099366 .4119873 .33799745 .35102845H.36698915Z"/>
<path id="font_2_5" d="M.036987306 .47694398V.45195008L.07499695 .4469452C.100997928 .4429474 .10699463 .43795777 .10699463 .40194703V.08699036C.10699463 .035995485 .10398865 .033996583 .03199768 .0289917V0H.27598573V.0289917C.20498657 .033996583 .20098877 .035995485 .20098877 .08699036V.49609376L.19400025 .5020752 .036987306 .47694398M.15299988 .71484377C.116989139 .71484377 .09199524 .6888428 .09199524 .65283206 .09199524 .61782839 .116989139 .5928345 .15299988 .5928345 .18998719 .5928345 .21299744 .61782839 .21398926 .65283206 .21398926 .6888428 .18998719 .71484377 .15299988 .71484377Z"/>
<path id="font_2_7" d="M.5289917 .34295655C.5289917 .4439392 .47399903 .5019531 .38198854 .5019531 .30799867 .5019531 .2619934 .46594239 .19999695 .4259491L.18598938 .5019531 .036987306 .47694398V.45195008L.07499695 .4469452C.100997928 .4429474 .10699463 .4379425 .10699463 .40194703V.08699036C.10699463 .035995485 .10398865 .033996583 .03199768 .0289917V0H.27598573V.0289917C.20498657 .033996583 .20098877 .035995485 .20098877 .08699036V.32095338C.20098877 .34596253 .20298767 .35995484 .21099854 .37594605 .23199463 .4149475 .2769928 .44795228 .32998658 .44795228 .397995 .44795228 .43499757 .40994264 .43499757 .32295228V.08699036C.43499757 .035995485 .43199159 .033996583 .3600006 .0289917V0H.60398867V.0289917C.5329895 .033996583 .5289917 .035995485 .5289917 .08699036V.34295655Z"/>
<path id="font_2_6" d="M.09498596 .0869751C.09498596 .035995485 .09199524 .033996583 .019989014 .0289917V0H.2639923V.0289917C.19299317 .033996583 .18899536 .035995485 .18899536 .0869751V.25390626H.19099427C.23199463 .18896485 .30299378 .10203552 .35499574 .049087526 .3919983 .0121154789 .43099977 .00010681152 .46299745-.0018920899L.5379944-.0048828127V.023117066C.5079956 .031097413 .48298646 .046081544 .45199586 .077056888 .3899994 .13800049 .31199647 .23292542 .27398683 .28692628 .2689972 .2939453 .2669983 .2989502 .2769928 .30996705 .32499696 .36506654 .35699464 .394104 .3909912 .41915895 .4249878 .4441986 .44999696 .45622254 .5079956 .46221925V.49023438H.40499879C.37098695 .49023438 .3619995 .4852295 .34199525 .46122743 .31298829 .42616273 .21398926 .30195619 .19099427 .26789857H.18899536V.73617556L.18199158 .7421875 .024993897 .71717837V.69218447L.06298828 .68818667C.08898926 .6851959 .09498596 .68019106 .09498596 .64219668V.0869751Z"/>
<path id="font_2_8" d="M.28799439 .5019531C.12799073 .5019531 .04899597 .40698243 .04899597 .24510193 .04899597 .083236698 .12799073-.01171875 .28799439-.01171875 .44999696-.01171875 .5279999 .083236698 .5279999 .24510193 .5279999 .40698243 .44999696 .5019531 .28799439 .5019531M.15299988 .24510193C.15299988 .38301087 .19699097 .46694947 .28799439 .46694947 .3809967 .46694947 .42399598 .38301087 .42399598 .24510193 .42399598 .10720825 .3809967 .023269654 .28799439 .023269654 .19699097 .023269654 .15299988 .10720825 .15299988 .24510193Z"/>
<path id="font_2_11" d="M.59098818 0V.0289917C.5219879 .033996583 .5159912 .035995485 .5159912 .08699036V.49609376L.5089874 .50209048 .35198976 .47709657V.45210267L.3899994 .44711305C.41600038 .44309999 .42199708 .43811036 .42199708 .40213014V.17721558C.42199708 .14923096 .4189911 .12724304 .4139862 .117248538 .3909912 .071258548 .34298707 .042266847 .29100038 .042266847 .23298645 .042266847 .18998719 .07826233 .18998719 .15621948V.49609376L.18299866 .50209048 .025985718 .47709657V.45210267L.06399536 .44711305C.08999634 .44309999 .09599304 .43811036 .09599304 .40213014V.13822937C.09599304 .023269654 .1639862-.01171875 .23799134-.01171875 .32299806-.01171875 .3919983 .04626465 .42099 .060272218L.43099977 0H.59098818Z"/>
<path id="font_2_9" d="M.18899536 .5019531 .036987306 .47694398V.45195008L.07499695 .4469452C.100997928 .4429474 .10699463 .4379425 .10699463 .40194703V.08699036C.10699463 .035995485 .101989749 .033996583 .03199768 .0289917V0H.29599V.0289917C.20698548 .033996583 .20098877 .035995485 .20098877 .08699036V.32095338C.20098877 .39794923 .23498535 .4239502 .2579956 .4239502 .27398683 .4239502 .29100038 .4179535 .31999208 .40194703 .32699586 .39794923 .33499146 .39694215 .33999635 .39694215 .3639984 .39694215 .38598634 .4219513 .38598634 .4529419 .38598634 .47494508 .37199403 .5019531 .33299256 .5019531 .29699708 .5019531 .2669983 .47994996 .20098877 .4219513L.18899536 .5019531Z"/>
<path id="font_2_3" d="M.2999878 .040267946C.18099976 .040267946 .15299988 .16418457 .15299988 .25810243 .15299988 .40699769 .21199036 .46694947 .2809906 .46694947 .32699586 .46694947 .35598756 .43397523 .37599183 .38000489 .38198854 .36402894 .3880005 .35403443 .40699769 .35403443 .4269867 .35403443 .46598817 .36701966 .46598817 .40499879 .46598817 .45095826 .3999939 .5019531 .2919922 .5019531 .10998535 .5019531 .04899597 .37301637 .04899597 .2401123 .04899597 .07324219 .1309967-.01171875 .2809906-.01171875 .35099793-.01171875 .44499208 .025268555 .47299195 .13220215L.44400025 .14619446C.41299439 .07624817 .37298585 .040267946 .2999878 .040267946Z"/>
<path id="font_2_4" d="M.44099427 .2627716C.46199037 .2627716 .48098756 .2677765 .48098756 .30078126 .48098756 .35983277 .46199037 .5019531 .2789917 .5019531 .12298584 .5019531 .04899597 .39086915 .04899597 .24082947 .04899597 .08317566 .116989139-.01373291 .27999879-.01171875 .3909912-.010726929 .44799806 .050247194 .47499085 .1290741L.44499208 .14503479C.4169922 .08717346 .3789978 .039276124 .2999878 .039276124 .17599488 .039276124 .15098572 .15901184 .15299988 .2627716H.44099427M.1539917 .30078126C.1539917 .34181214 .16899109 .46694947 .272995 .46694947 .3659973 .46694947 .3769989 .37184144 .3769989 .33280946 .3769989 .31378175 .37098695 .30078126 .34298707 .30078126H.1539917Z"/>
</defs>
<path transform="matrix(1.00002,0,0,-1.00002,54.867418,78.595317)" stroke-width=".79701" stroke-linecap="butt" stroke-miterlimit="10" stroke-linejoin="miter" fill="none" stroke="#000000" d="M0-43.65382V48.80966"/>
<path transform="matrix(0,-1.00002,-1.00002,-0,54.867418,29.38615)" stroke-width=".79701" stroke-linecap="round" stroke-linejoin="round" fill="none" stroke="#000000" d="M-2.55046 3.11095C-2.0845 1.24435-1.04614 .36295 0 0-1.04614-.36295-2.0845-1.24435-2.55046-3.11095"/>
<use data-text="y" xlink:href="#font_1_2" transform="matrix(5.4995105,0,0,-5.4995105,60.18253,32.50739)"/>
<path transform="matrix(1.00002,0,0,-1.00002,54.867418,78.595317)" stroke-width=".79701" stroke-linecap="butt" stroke-miterlimit="10" stroke-linejoin="miter" fill="none" stroke="#000000" d="M-43.65382 0H48.80966"/>
<path transform="matrix(1.00002,0,0,-1.00002,104.076587,78.595317)" stroke-width=".79701" stroke-linecap="round" stroke-linejoin="round" fill="none" stroke="#000000" d="M-2.55046 3.11095C-2.0845 1.24435-1.04614 .36295 0 0-1.04614-.36295-2.0845-1.24435-2.55046-3.11095"/>
<use data-text="t" xlink:href="#font_1_1" transform="matrix(5.4995105,0,0,-5.4995105,104.72142,88.41751)"/>
<path transform="matrix(1.00002,0,0,-1.00002,54.867418,78.595317)" d="M-38.0747 19.84267C-38.0747 22.92397-40.57253 25.42178-43.65382 25.42178-46.73514 25.42178-49.23296 22.92397-49.23296 19.84267-49.23296 16.76135-46.73514 14.26353-43.65382 14.26353-40.57253 14.26353-38.0747 16.76135-38.0747 19.84267ZM-43.65382 19.84267" fill="#ffffff"/>
<path transform="matrix(1.00002,0,0,-1.00002,54.867418,78.595317)" stroke-width=".79701" stroke-linecap="butt" stroke-miterlimit="10" stroke-linejoin="miter" fill="none" stroke="#000000" d="M-38.0747 19.84267C-38.0747 22.92397-40.57253 25.42178-43.65382 25.42178-46.73514 25.42178-49.23296 22.92397-49.23296 19.84267-49.23296 16.76135-46.73514 14.26353-43.65382 14.26353-40.57253 14.26353-38.0747 16.76135-38.0747 19.84267ZM-43.65382 19.84267"/>
<path transform="matrix(1.00002,0,0,-1.00002,54.867418,78.595317)" stroke-width=".3985" stroke-linecap="butt" stroke-miterlimit="10" stroke-linejoin="miter" fill="none" stroke="#000000" d="M-43.65382 19.84267"/>
<use data-text="1" xlink:href="#font_2_1" transform="matrix(5.4995105,0,0,-5.4995105,4.8964159,60.592954)"/>
<path transform="matrix(1.00002,0,0,-1.00002,54.867418,78.595317)" d="M-38.0747 59.52802C-38.0747 62.60933-40.57253 65.10715-43.65382 65.10715-46.73514 65.10715-49.23296 62.60933-49.23296 59.52802-49.23296 56.44672-46.73514 53.9489-43.65382 53.9489-40.57253 53.9489-38.0747 56.44672-38.0747 59.52802ZM-43.65382 59.52802" fill="#ffffff"/>
<path transform="matrix(1.00002,0,0,-1.00002,54.867418,78.595317)" stroke-width=".79701" stroke-linecap="butt" stroke-miterlimit="10" stroke-linejoin="miter" fill="none" stroke="#000000" d="M-38.0747 59.52802C-38.0747 62.60933-40.57253 65.10715-43.65382 65.10715-46.73514 65.10715-49.23296 62.60933-49.23296 59.52802-49.23296 56.44672-46.73514 53.9489-43.65382 53.9489-40.57253 53.9489-38.0747 56.44672-38.0747 59.52802ZM-43.65382 59.52802"/>
<path transform="matrix(1.00002,0,0,-1.00002,54.867418,78.595317)" stroke-width=".3985" stroke-linecap="butt" stroke-miterlimit="10" stroke-linejoin="miter" fill="none" stroke="#000000" d="M-43.65382 59.52802"/>
<use data-text="3" xlink:href="#font_2_2" transform="matrix(5.4995105,0,0,-5.4995105,4.8964159,20.892159)"/>
<path transform="matrix(1.00002,0,0,-1.00002,54.867418,78.595317)" d="M0 0V-2.43108" fill="#ffffff"/>
<path transform="matrix(1.00002,0,0,-1.00002,54.867418,78.595317)" stroke-width=".79701" stroke-linecap="butt" stroke-miterlimit="10" stroke-linejoin="miter" fill="none" stroke="#409f9f" d="M0 0V-2.43108"/>
<path transform="matrix(0,-1.00002,-1.00002,-0,54.867418,83.37848)" d="M3.91737 0 1.58841 .88107 2.53879 0 1.58841-.88107Z" fill="#409f9f"/>
<path transform="matrix(0,-1.00002,-1.00002,-0,54.867418,83.37848)" stroke-width=".74721" stroke-linecap="butt" stroke-miterlimit="10" stroke-linejoin="miter" fill="none" stroke="#409f9f" d="M3.91737 0 1.58841 .88107 2.53879 0 1.58841-.88107Z"/>
<path transform="matrix(1.00002,0,0,-1.00002,54.867418,78.595317)" d="M0 39.68535V41.71979" fill="#ffffff"/>
<path transform="matrix(1.00002,0,0,-1.00002,54.867418,78.595317)" stroke-width=".79701" stroke-linecap="butt" stroke-miterlimit="10" stroke-linejoin="miter" fill="none" stroke="#409f9f" d="M0 39.68535V41.71979"/>
<path transform="matrix(0,1.00002,1.00002,0,54.867418,34.52265)" d="M3.91737 0 1.58841 .88107 2.53879 0 1.58841-.88107Z" fill="#409f9f"/>
<path transform="matrix(0,1.00002,1.00002,0,54.867418,34.52265)" stroke-width=".74721" stroke-linecap="butt" stroke-miterlimit="10" stroke-linejoin="miter" fill="none" stroke="#409f9f" d="M3.91737 0 1.58841 .88107 2.53879 0 1.58841-.88107Z"/>
<path transform="matrix(1.00002,0,0,-1.00002,54.867418,78.595317)" stroke-width=".79701" stroke-linecap="butt" stroke-miterlimit="10" stroke-linejoin="miter" fill="none" stroke="#cbcbcb" d="M-53.57515 19.84267H53.57515"/>
<path transform="matrix(1.00002,0,0,-1.00002,54.867418,78.595317)" stroke-width=".79701" stroke-linecap="butt" stroke-miterlimit="10" stroke-linejoin="miter" fill="none" stroke="#cbcbcb" d="M-53.57515 59.52802H53.57515"/>
<path transform="matrix(1.00002,0,0,-1.00002,54.867418,78.595317)" stroke-width=".3985" stroke-linecap="butt" stroke-miterlimit="10" stroke-linejoin="miter" fill="none" stroke="#000000" d="M50.59888 32.74059 53.29337 35.43507"/>
<path transform="matrix(.70711418,-.70711418,-.70711418,-.70711418,108.30276,43.01863)" stroke-width=".3985" stroke-linecap="round" stroke-linejoin="round" fill="none" stroke="#000000" d="M-2.07224 2.39104C-1.69365 .95639-.84999 .27895 0 0-.84999-.27895-1.69365-.95639-2.07224-2.39104"/>
<use data-text="s" xlink:href="#font_2_10" transform="matrix(5.4995105,0,0,-5.4995105,109.0075,44.91364)"/>
<use data-text="i" xlink:href="#font_2_5" transform="matrix(5.4995105,0,0,-5.4995105,111.40529,44.91364)"/>
<use data-text="n" xlink:href="#font_2_7" transform="matrix(5.4995105,0,0,-5.4995105,113.005649,44.91364)"/>
<use data-text="k" xlink:href="#font_2_6" transform="matrix(5.4995105,0,0,-5.4995105,116.409839,44.91364)"/>
<path transform="matrix(1.00002,0,0,-1.00002,54.867418,78.595317)" stroke-width=".3985" stroke-linecap="butt" stroke-miterlimit="10" stroke-linejoin="miter" fill="none" stroke="#000000" d="M50.59888 72.42595 53.29337 75.12044"/>
<path transform="matrix(.70711418,-.70711418,-.70711418,-.70711418,108.30276,3.3324815)" stroke-width=".3985" stroke-linecap="round" stroke-linejoin="round" fill="none" stroke="#000000" d="M-2.07224 2.39104C-1.69365 .95639-.84999 .27895 0 0-.84999-.27895-1.69365-.95639-2.07224-2.39104"/>
<use data-text="s" xlink:href="#font_2_10" transform="matrix(5.4995105,0,0,-5.4995105,109.0075,4.5548326)"/>
<use data-text="o" xlink:href="#font_2_8" transform="matrix(5.4995105,0,0,-5.4995105,111.40529,4.5548326)"/>
<use data-text="u" xlink:href="#font_2_11" transform="matrix(5.4995105,0,0,-5.4995105,114.57851,4.5548326)"/>
<use data-text="r" xlink:href="#font_2_9" transform="matrix(5.4995105,0,0,-5.4995105,117.91121,4.5548326)"/>
<use data-text="c" xlink:href="#font_2_3" transform="matrix(5.4995105,0,0,-5.4995105,119.95154,4.5548326)"/>
<use data-text="e" xlink:href="#font_2_4" transform="matrix(5.4995105,0,0,-5.4995105,122.67381,4.5548326)"/>
</svg>
