<svg xmlns="http://www.w3.org/2000/svg" xmlns:xlink="http://www.w3.org/1999/xlink" version="1.1" width="88" height="126" viewBox="0 0 88 126">
<defs>
<path id="font_1_1" d="M.42799378 .45222474 .43899537 .49023438H.31199647L.34599305 .6092224 .33399964 .6162262 .23699951 .53923037 .22399903 .49023438H.14299011L.13198853 .45222474H.21499634L.125 .08627319C.10998535 .029266358 .12199402-.01171875 .17199707-.01171875 .2519989-.01171875 .31599427 .054275514 .35598756 .1292572L.33399964 .1462555C.31098939 .10726929 .2599945 .040267946 .22898865 .040267946 .20799256 .040267946 .20799256 .0632782 .21398926 .088272098L.30299378 .45222474H.42799378Z"/>
<path id="font_2_1" d="M.6349945 .2529297V.31092835H.084991458V.2529297H.6349945Z"/>
<path id="font_3_3" d="M.4850006 .13195801 .45700074 .13696289C.43598939 .08299255 .41600038 .07598877 .37599183 .07598877H.11999512C.13598633 .1279602 .19499207 .19892884 .28799439 .2658844 .38398744 .33584596 .45799256 .38082887 .45799256 .49276734 .45799256 .63168337 .3659973 .6796875 .26098634 .6796875 .12399292 .6796875 .052993776 .5967102 .052993776 .54473879 .052993776 .51075747 .09098816 .49476625 .10798645 .49476625 .12599182 .49476625 .1329956 .50476077 .13699341 .5217438 .15299988 .5897064 .19198609 .64468386 .2539978 .64468386 .33099366 .64468386 .35299684 .5797119 .35299684 .50675967 .35299684 .3998108 .29899598 .33984376 .21199036 .26289369 .08898926 .15594483 .04598999 .08798218 .026992798 .009994507L.036987306 0H.45098878L.4850006 .13195801Z"/>
<path id="font_3_2" d="M.43699647 0V.0289917L.35299684 .035995485C.33198548 .037994386 .31999208 .04598999 .31999208 .08496094V.67367556L.31498719 .6796875 .10899353 .6446991V.6197052L.20199585 .6087036C.21899414 .6067047 .22599793 .5987091 .22599793 .56973269V.08496094C.22599793 .065979007 .22299195 .053985597 .21699524 .04698181 .21199036 .039993287 .20399475 .036987306 .19299317 .035995485L.10899353 .0289917V0H.43699647Z"/>
<path id="font_3_1" d="M.2649994 .64468386C.3600006 .64468386 .3869934 .49682618 .3869934 .33398438 .3869934 .17112732 .3600006 .023269654 .2649994 .023269654 .16999817 .023269654 .14299011 .17112732 .14299011 .33398438 .14299011 .49682618 .16999817 .64468386 .2649994 .64468386M.2649994 .6796875C.099990848 .6796875 .040985109 .53378298 .040985109 .33398438 .040985109 .13417053 .099990848-.01171875 .2649994-.01171875 .42999269-.01171875 .4889984 .13417053 .4889984 .33398438 .4889984 .53378298 .42999269 .6796875 .2649994 .6796875Z"/>
<path id="font_3_4" d="M.12998963 .3657837C.12998963 .3487854 .1349945 .33779908 .147995 .33779908 .1599884 .33779908 .18699646 .34777833 .23498535 .34777833 .31999208 .34777833 .36799623 .27090455 .36799623 .18403626 .36799623 .065216068 .30899049 .023269654 .23799134 .023269654 .17199707 .023269654 .1289978 .07319641 .10998535 .12911988 .10398865 .14808655 .09399414 .15707398 .07998657 .15707398 .06199646 .15707398 .026992798 .13809204 .026992798 .10215759 .026992798 .05921936 .09599304-.01171875 .23699951-.01171875 .38198854-.01171875 .47299195 .06121826 .47299195 .18902588 .47299195 .32281495 .35798646 .3627777 .30299378 .3677826V.3717804C.35699464 .38078309 .44400025 .4207611 .44400025 .5197296 .44400025 .6306915 .35699464 .6796875 .25 .6796875 .117996219 .6796875 .052993776 .60369876 .052993776 .5607147 .052993776 .5297241 .08799744 .51272585 .101989749 .51272585 .114990238 .51272585 .12298584 .5197296 .1269989 .5327301 .14898682 .60069277 .18699646 .64468386 .24299622 .64468386 .32199098 .64468386 .34098817 .57470706 .34098817 .51872256 .34098817 .4587555 .31999208 .38378907 .23498535 .38378907 .18699646 .38378907 .1599884 .39378358 .147995 .39378358 .1349945 .39378358 .12998963 .38378907 .12998963 .3657837Z"/>
<path id="font_3_5" d="M.2999878 .17871094V.0769043C.2999878 .04296875 .2889862 .036987306 .2649994 .034988405L.20098877 .0289917V0H.46499635V.0289917L.41999818 .033981325C.39698792 .036987306 .3899994 .04296875 .3899994 .0769043V.17871094H.49299623V.22570801H.3899994V.66796877H.31698609C.22299195 .5298767 .11099243 .35577394 .018997193 .19970703L.027999878 .17871094H.2999878M.09098816 .22570801C.15098572 .33476258 .22099304 .4498291 .2979889 .5709076H.2999878V.22570801H.09098816Z"/>
</defs>
<path transform="matrix(1.00003,0,0,-1,45.362436,93.074)" d="M-41.66972-31.74838V91.27643H-19.84267V-31.74838ZM-19.84267 91.27643" fill="#d9d9ff"/>
<path transform="matrix(1.00003,0,0,-1,45.362436,93.074)" d="M-19.84267-31.74838V91.27643H41.66972V-31.74838ZM41.66972 91.27643" fill="#d9f0d9"/>
<path transform="matrix(1.00003,0,0,-1,45.362436,93.074)" stroke-width=".3985" stroke-linecap="butt" stroke-miterlimit="10" stroke-linejoin="miter" fill="none" stroke="#000000" d="M-41.66972 0H41.21144"/>
<path transform="matrix(1.00003,0,0,-1,86.57512,93.074)" stroke-width=".31879" stroke-linecap="round" stroke-linejoin="round" fill="none" stroke="#000000" d="M-1.19551 1.59401C-1.09587 .99626 0 .09961 .29886 0 0-.09961-1.09587-.99626-1.19551-1.59401"/>
<path transform="matrix(1.00003,0,0,-1,45.362436,93.074)" stroke-width=".3985" stroke-linecap="butt" stroke-miterlimit="10" stroke-linejoin="miter" fill="none" stroke="#000000" d="M0-31.74838V90.81815"/>
<path transform="matrix(0,-1,-1.00003,-0,45.362436,2.255844)" stroke-width=".31879" stroke-linecap="round" stroke-linejoin="round" fill="none" stroke="#000000" d="M-1.19551 1.59401C-1.09587 .99626 0 .09961 .29886 0 0-.09961-1.09587-.99626-1.19551-1.59401"/>
<use data-text="t" xlink:href="#font_1_1" transform="matrix(7.3327205,0,0,-7.3325,83.48658,100.992)"/>
<path transform="matrix(1.00003,0,0,-1,45.362436,93.074)" stroke-width=".3985" stroke-linecap="butt" stroke-miterlimit="10" stroke-linejoin="miter" fill="none" stroke="#929292" d="M-39.68535 1.39478V-1.39478"/>
<use data-text="&#x2212;" xlink:href="#font_2_1" transform="matrix(7.3327205,0,0,-7.3325,1.0931015,102.77699)"/>
<use data-text="2" xlink:href="#font_3_3" transform="matrix(7.3327205,0,0,-7.3325,6.3692629,102.778)"/>
<path transform="matrix(1.00003,0,0,-1,45.362436,93.074)" stroke-width=".3985" stroke-linecap="butt" stroke-miterlimit="10" stroke-linejoin="miter" fill="none" stroke="#929292" d="M-19.84267 1.39478V-1.39478"/>
<use data-text="&#x2212;" xlink:href="#font_2_1" transform="matrix(7.3327205,0,0,-7.3325,20.9357,102.77699)"/>
<use data-text="1" xlink:href="#font_3_2" transform="matrix(7.3327205,0,0,-7.3325,26.21186,102.778)"/>
<path transform="matrix(1.00003,0,0,-1,45.362436,93.074)" stroke-width=".3985" stroke-linecap="butt" stroke-miterlimit="10" stroke-linejoin="miter" fill="none" stroke="#929292" d="M0 1.39478V-1.39478"/>
<use data-text="0" xlink:href="#font_3_1" transform="matrix(7.3327205,0,0,-7.3325,43.417375,102.77699)"/>
<path transform="matrix(1.00003,0,0,-1,45.362436,93.074)" stroke-width=".3985" stroke-linecap="butt" stroke-miterlimit="10" stroke-linejoin="miter" fill="none" stroke="#929292" d="M19.84267 1.39478V-1.39478"/>
<use data-text="1" xlink:href="#font_3_2" transform="matrix(7.3327205,0,0,-7.3325,63.26097,102.77699)"/>
<path transform="matrix(1.00003,0,0,-1,45.362436,93.074)" stroke-width=".3985" stroke-linecap="butt" stroke-miterlimit="10" stroke-linejoin="miter" fill="none" stroke="#929292" d="M39.68535 1.39478V-1.39478"/>
<use data-text="2" xlink:href="#font_3_3" transform="matrix(7.3327205,0,0,-7.3325,83.10457,102.77699)"/>
<path transform="matrix(1.00003,0,0,-1,45.362436,93.074)" stroke-width=".3985" stroke-linecap="butt" stroke-miterlimit="10" stroke-linejoin="miter" fill="none" stroke="#929292" d="M1.39478-19.84267H-1.39478"/>
<use data-text="&#x2212;" xlink:href="#font_2_1" transform="matrix(7.3327205,0,0,-7.3325,31.403016,115.371)"/>
<use data-text="1" xlink:href="#font_3_2" transform="matrix(7.3327205,0,0,-7.3325,36.679178,115.371997)"/>
<path transform="matrix(1.00003,0,0,-1,45.362436,93.074)" stroke-width=".3985" stroke-linecap="butt" stroke-miterlimit="10" stroke-linejoin="miter" fill="none" stroke="#929292" d="M1.39478 19.84267H-1.39478"/>
<use data-text="1" xlink:href="#font_3_2" transform="matrix(7.3327205,0,0,-7.3325,36.679178,75.686)"/>
<path transform="matrix(1.00003,0,0,-1,45.362436,93.074)" stroke-width=".3985" stroke-linecap="butt" stroke-miterlimit="10" stroke-linejoin="miter" fill="none" stroke="#929292" d="M1.39478 39.68535H-1.39478"/>
<use data-text="2" xlink:href="#font_3_3" transform="matrix(7.3327205,0,0,-7.3325,36.679178,55.843)"/>
<path transform="matrix(1.00003,0,0,-1,45.362436,93.074)" stroke-width=".3985" stroke-linecap="butt" stroke-miterlimit="10" stroke-linejoin="miter" fill="none" stroke="#929292" d="M1.39478 59.52802H-1.39478"/>
<use data-text="3" xlink:href="#font_3_4" transform="matrix(7.3327205,0,0,-7.3325,36.679178,35.981)"/>
<path transform="matrix(1.00003,0,0,-1,45.362436,93.074)" stroke-width=".3985" stroke-linecap="butt" stroke-miterlimit="10" stroke-linejoin="miter" fill="none" stroke="#929292" d="M1.39478 79.37071H-1.39478"/>
<use data-text="4" xlink:href="#font_3_5" transform="matrix(7.3327205,0,0,-7.3325,36.679178,16.157998)"/>
<path transform="matrix(1.00003,0,0,-1,45.362436,93.074)" stroke-width=".3985" stroke-linecap="butt" stroke-miterlimit="10" stroke-linejoin="miter" fill="none" stroke="#929292" d="M1.39478 19.84267H-1.39478"/>
</svg>
