<svg xmlns="http://www.w3.org/2000/svg" xmlns:xlink="http://www.w3.org/1999/xlink" version="1.1" width="67" height="60" viewBox="0 0 67 60">
<defs>
<path id="font_1_1" d="M.42799378 .45222474 .43899537 .49023438H.31199647L.34599305 .6092224 .33399964 .6162262 .23699951 .53923037 .22399903 .49023438H.14299011L.13198853 .45222474H.21499634L.125 .08627319C.10998535 .029266358 .12199402-.01171875 .17199707-.01171875 .2519989-.01171875 .31599427 .054275514 .35598756 .1292572L.33399964 .1462555C.31098939 .10726929 .2599945 .040267946 .22898865 .040267946 .20799256 .040267946 .20799256 .0632782 .21398926 .088272098L.30299378 .45222474H.42799378Z"/>
</defs>
<path transform="matrix(1.00009,0,0,-1,29.441597,30.146)" stroke-width=".3985" stroke-linecap="butt" stroke-miterlimit="10" stroke-linejoin="miter" fill="none" stroke="#cbcbcb" d="M-14.17339-28.3468V28.3468"/>
<path transform="matrix(1.00009,0,0,-1,29.441597,30.146)" stroke-width=".3985" stroke-linecap="butt" stroke-miterlimit="10" stroke-linejoin="miter" fill="none" stroke="#cbcbcb" d="M0-28.3468V28.3468"/>
<path transform="matrix(1.00009,0,0,-1,29.441597,30.146)" stroke-width=".3985" stroke-linecap="butt" stroke-miterlimit="10" stroke-linejoin="miter" fill="none" stroke="#cbcbcb" d="M14.17339-28.3468V28.3468"/>
<path transform="matrix(1.00009,0,0,-1,29.441597,30.146)" stroke-width=".3985" stroke-linecap="butt" stroke-miterlimit="10" stroke-linejoin="miter" fill="none" stroke="#cbcbcb" d="M-28.3468-14.17339H28.3468"/>
<path transform="matrix(1.00009,0,0,-1,29.441597,30.146)" stroke-width=".3985" stroke-linecap="butt" stroke-miterlimit="10" stroke-linejoin="miter" fill="none" stroke="#cbcbcb" d="M-28.3468 0H28.3468"/>
<path transform="matrix(1.00009,0,0,-1,29.441597,30.146)" stroke-width=".3985" stroke-linecap="butt" stroke-miterlimit="10" stroke-linejoin="miter" fill="none" stroke="#cbcbcb" d="M-28.3468 14.17339H28.3468"/>
<path transform="matrix(1.00009,0,0,-1,29.441597,30.146)" stroke-width="1.0959" stroke-linecap="butt" stroke-miterlimit="10" stroke-linejoin="miter" fill="none" stroke="#1a8c8c" d="M-19.13394-14.17339H-9.21283"/>
<path transform="matrix(1.00009,0,0,-1,29.441597,30.146)" d="M-13.17711-14.17339C-13.17711-13.62315-13.62315-13.17711-14.17339-13.17711-14.72363-13.17711-15.16966-13.62315-15.16966-14.17339-15.16966-14.72363-14.72363-15.16966-14.17339-15.16966-13.62315-15.16966-13.17711-14.72363-13.17711-14.17339ZM-14.17339-14.17339" fill="#ffffff"/>
<path transform="matrix(1.00009,0,0,-1,29.441597,30.146)" stroke-width=".79701" stroke-linecap="butt" stroke-miterlimit="10" stroke-linejoin="miter" fill="none" stroke="#000000" d="M-13.17711-14.17339C-13.17711-13.62315-13.62315-13.17711-14.17339-13.17711-14.72363-13.17711-15.16966-13.62315-15.16966-14.17339-15.16966-14.72363-14.72363-15.16966-14.17339-15.16966-13.62315-15.16966-13.17711-14.72363-13.17711-14.17339ZM-14.17339-14.17339"/>
<path transform="matrix(1.00009,0,0,-1,29.441597,30.146)" stroke-width="1.0959" stroke-linecap="butt" stroke-miterlimit="10" stroke-linejoin="miter" fill="none" stroke="#1a8c8c" d="M-17.68062-3.50723-10.66615 3.50723"/>
<path transform="matrix(1.00009,0,0,-1,29.441597,30.146)" d="M-13.17711 0C-13.17711 .55023-13.62315 .99628-14.17339 .99628-14.72363 .99628-15.16966 .55023-15.16966 0-15.16966-.55023-14.72363-.99628-14.17339-.99628-13.62315-.99628-13.17711-.55023-13.17711 0ZM-14.17339 0" fill="#ffffff"/>
<path transform="matrix(1.00009,0,0,-1,29.441597,30.146)" stroke-width=".79701" stroke-linecap="butt" stroke-miterlimit="10" stroke-linejoin="miter" fill="none" stroke="#000000" d="M-13.17711 0C-13.17711 .55023-13.62315 .99628-14.17339 .99628-14.72363 .99628-15.16966 .55023-15.16966 0-15.16966-.55023-14.72363-.99628-14.17339-.99628-13.62315-.99628-13.17711-.55023-13.17711 0ZM-14.17339 0"/>
<path transform="matrix(1.00009,0,0,-1,29.441597,30.146)" stroke-width="1.0959" stroke-linecap="butt" stroke-miterlimit="10" stroke-linejoin="miter" fill="none" stroke="#1a8c8c" d="M-16.39188 9.73642-11.95491 18.61037"/>
<path transform="matrix(1.00009,0,0,-1,29.441597,30.146)" d="M-13.17711 14.17339C-13.17711 14.72363-13.62315 15.16966-14.17339 15.16966-14.72363 15.16966-15.16966 14.72363-15.16966 14.17339-15.16966 13.62315-14.72363 13.17711-14.17339 13.17711-13.62315 13.17711-13.17711 13.62315-13.17711 14.17339ZM-14.17339 14.17339" fill="#ffffff"/>
<path transform="matrix(1.00009,0,0,-1,29.441597,30.146)" stroke-width=".79701" stroke-linecap="butt" stroke-miterlimit="10" stroke-linejoin="miter" fill="none" stroke="#000000" d="M-13.17711 14.17339C-13.17711 14.72363-13.62315 15.16966-14.17339 15.16966-14.72363 15.16966-15.16966 14.72363-15.16966 14.17339-15.16966 13.62315-14.72363 13.17711-14.17339 13.17711-13.62315 13.17711-13.17711 13.62315-13.17711 14.17339ZM-14.17339 14.17339"/>
<path transform="matrix(1.00009,0,0,-1,29.441597,30.146)" stroke-width="1.0959" stroke-linecap="butt" stroke-miterlimit="10" stroke-linejoin="miter" fill="none" stroke="#1a8c8c" d="M-3.50723-10.66573 3.50723-17.68105"/>
<path transform="matrix(1.00009,0,0,-1,29.441597,30.146)" d="M.99628-14.17339C.99628-13.62315 .55023-13.17711 0-13.17711-.55023-13.17711-.99628-13.62315-.99628-14.17339-.99628-14.72363-.55023-15.16966 0-15.16966 .55023-15.16966 .99628-14.72363 .99628-14.17339ZM0-14.17339" fill="#ffffff"/>
<path transform="matrix(1.00009,0,0,-1,29.441597,30.146)" stroke-width=".79701" stroke-linecap="butt" stroke-miterlimit="10" stroke-linejoin="miter" fill="none" stroke="#000000" d="M.99628-14.17339C.99628-13.62315 .55023-13.17711 0-13.17711-.55023-13.17711-.99628-13.62315-.99628-14.17339-.99628-14.72363-.55023-15.16966 0-15.16966 .55023-15.16966 .99628-14.72363 .99628-14.17339ZM0-14.17339"/>
<path transform="matrix(1.00009,0,0,-1,29.441597,30.146)" stroke-width="1.0959" stroke-linecap="butt" stroke-miterlimit="10" stroke-linejoin="miter" fill="none" stroke="#1a8c8c" d="M-4.96056 0H4.96056"/>
<path transform="matrix(1.00009,0,0,-1,29.441597,30.146)" d="M.99628 0C.99628 .55023 .55023 .99628 0 .99628-.55023 .99628-.99628 .55023-.99628 0-.99628-.55023-.55023-.99628 0-.99628 .55023-.99628 .99628-.55023 .99628 0ZM0 0" fill="#ffffff"/>
<path transform="matrix(1.00009,0,0,-1,29.441597,30.146)" stroke-width=".79701" stroke-linecap="butt" stroke-miterlimit="10" stroke-linejoin="miter" fill="none" stroke="#000000" d="M.99628 0C.99628 .55023 .55023 .99628 0 .99628-.55023 .99628-.99628 .55023-.99628 0-.99628-.55023-.55023-.99628 0-.99628 .55023-.99628 .99628-.55023 .99628 0ZM0 0"/>
<path transform="matrix(1.00009,0,0,-1,29.441597,30.146)" stroke-width="1.0959" stroke-linecap="butt" stroke-miterlimit="10" stroke-linejoin="miter" fill="none" stroke="#1a8c8c" d="M-3.50723 10.66615 3.50723 17.68062"/>
<path transform="matrix(1.00009,0,0,-1,29.441597,30.146)" d="M.99628 14.17339C.99628 14.72363 .55023 15.16966 0 15.16966-.55023 15.16966-.99628 14.72363-.99628 14.17339-.99628 13.62315-.55023 13.17711 0 13.17711 .55023 13.17711 .99628 13.62315 .99628 14.17339ZM0 14.17339" fill="#ffffff"/>
<path transform="matrix(1.00009,0,0,-1,29.441597,30.146)" stroke-width=".79701" stroke-linecap="butt" stroke-miterlimit="10" stroke-linejoin="miter" fill="none" stroke="#000000" d="M.99628 14.17339C.99628 14.72363 .55023 15.16966 0 15.16966-.55023 15.16966-.99628 14.72363-.99628 14.17339-.99628 13.62315-.55023 13.17711 0 13.17711 .55023 13.17711 .99628 13.62315 .99628 14.17339ZM0 14.17339"/>
<path transform="matrix(1.00009,0,0,-1,29.441597,30.146)" stroke-width="1.0959" stroke-linecap="butt" stroke-miterlimit="10" stroke-linejoin="miter" fill="none" stroke="#1a8c8c" d="M11.95491-9.73642 16.39188-18.61037"/>
<path transform="matrix(1.00009,0,0,-1,29.441597,30.146)" d="M15.16966-14.17339C15.16966-13.62315 14.72363-13.17711 14.17339-13.17711 13.62315-13.17711 13.17711-13.62315 13.17711-14.17339 13.17711-14.72363 13.62315-15.16966 14.17339-15.16966 14.72363-15.16966 15.16966-14.72363 15.16966-14.17339ZM14.17339-14.17339" fill="#ffffff"/>
<path transform="matrix(1.00009,0,0,-1,29.441597,30.146)" stroke-width=".79701" stroke-linecap="butt" stroke-miterlimit="10" stroke-linejoin="miter" fill="none" stroke="#000000" d="M15.16966-14.17339C15.16966-13.62315 14.72363-13.17711 14.17339-13.17711 13.62315-13.17711 13.17711-13.62315 13.17711-14.17339 13.17711-14.72363 13.62315-15.16966 14.17339-15.16966 14.72363-15.16966 15.16966-14.72363 15.16966-14.17339ZM14.17339-14.17339"/>
<path transform="matrix(1.00009,0,0,-1,29.441597,30.146)" stroke-width="1.0959" stroke-linecap="butt" stroke-miterlimit="10" stroke-linejoin="miter" fill="none" stroke="#1a8c8c" d="M10.66615 3.50764 17.68062-3.50764"/>
<path transform="matrix(1.00009,0,0,-1,29.441597,30.146)" d="M15.16966 0C15.16966 .55023 14.72363 .99628 14.17339 .99628 13.62315 .99628 13.17711 .55023 13.17711 0 13.17711-.55023 13.62315-.99628 14.17339-.99628 14.72363-.99628 15.16966-.55023 15.16966 0ZM14.17339 0" fill="#ffffff"/>
<path transform="matrix(1.00009,0,0,-1,29.441597,30.146)" stroke-width=".79701" stroke-linecap="butt" stroke-miterlimit="10" stroke-linejoin="miter" fill="none" stroke="#000000" d="M15.16966 0C15.16966 .55023 14.72363 .99628 14.17339 .99628 13.62315 .99628 13.17711 .55023 13.17711 0 13.17711-.55023 13.62315-.99628 14.17339-.99628 14.72363-.99628 15.16966-.55023 15.16966 0ZM14.17339 0"/>
<path transform="matrix(1.00009,0,0,-1,29.441597,30.146)" stroke-width="1.0959" stroke-linecap="butt" stroke-miterlimit="10" stroke-linejoin="miter" fill="none" stroke="#1a8c8c" d="M9.21283 14.17339H19.13394"/>
<path transform="matrix(1.00009,0,0,-1,29.441597,30.146)" d="M15.16966 14.17339C15.16966 14.72363 14.72363 15.16966 14.17339 15.16966 13.62315 15.16966 13.17711 14.72363 13.17711 14.17339 13.17711 13.62315 13.62315 13.17711 14.17339 13.17711 14.72363 13.17711 15.16966 13.62315 15.16966 14.17339ZM14.17339 14.17339" fill="#ffffff"/>
<path transform="matrix(1.00009,0,0,-1,29.441597,30.146)" stroke-width=".79701" stroke-linecap="butt" stroke-miterlimit="10" stroke-linejoin="miter" fill="none" stroke="#000000" d="M15.16966 14.17339C15.16966 14.72363 14.72363 15.16966 14.17339 15.16966 13.62315 15.16966 13.17711 14.72363 13.17711 14.17339 13.17711 13.62315 13.62315 13.17711 14.17339 13.17711 14.72363 13.17711 15.16966 13.62315 15.16966 14.17339ZM14.17339 14.17339"/>
<path transform="matrix(1.00009,0,0,-1,29.441597,30.146)" stroke-width=".3985" stroke-linecap="butt" stroke-miterlimit="10" stroke-linejoin="miter" fill="none" stroke="#000000" d="M-28.3468 0H27.9483"/>
<path transform="matrix(1.00009,0,0,-1,57.591684,30.146)" stroke-width=".3985" stroke-linecap="round" stroke-linejoin="round" fill="none" stroke="#000000" d="M-2.07224 2.39104C-1.69365 .95639-.84999 .27895 0 0-.84999-.27895-1.69365-.95639-2.07224-2.39104"/>
<use data-text="t" xlink:href="#font_1_1" transform="matrix(10.037303,0,0,-10.0364,61.408464,33.195)"/>
</svg>
