<svg xmlns="http://www.w3.org/2000/svg" xmlns:xlink="http://www.w3.org/1999/xlink" version="1.1" width="95" height="49" viewBox="0 0 95 49">
<defs>
<path id="font_1_1" d="M.42799378 .45222474 .43899537 .49023438H.31199647L.34599305 .6092224 .33399964 .6162262 .23699951 .53923037 .22399903 .49023438H.14299011L.13198853 .45222474H.21499634L.125 .08627319C.10998535 .029266358 .12199402-.01171875 .17199707-.01171875 .2519989-.01171875 .31599427 .054275514 .35598756 .1292572L.33399964 .1462555C.31098939 .10726929 .2599945 .040267946 .22898865 .040267946 .20799256 .040267946 .20799256 .0632782 .21398926 .088272098L.30299378 .45222474H.42799378Z"/>
<path id="font_2_2" d="M.43699647 0V.0289917L.35299684 .035995485C.33198548 .037994386 .31999208 .04598999 .31999208 .08496094V.67367556L.31498719 .6796875 .10899353 .6446991V.6197052L.20199585 .6087036C.21899414 .6067047 .22599793 .5987091 .22599793 .56973269V.08496094C.22599793 .065979007 .22299195 .053985597 .21699524 .04698181 .21199036 .039993287 .20399475 .036987306 .19299317 .035995485L.10899353 .0289917V0H.43699647Z"/>
<path id="font_2_3" d="M.4850006 .13195801 .45700074 .13696289C.43598939 .08299255 .41600038 .07598877 .37599183 .07598877H.11999512C.13598633 .1279602 .19499207 .19892884 .28799439 .2658844 .38398744 .33584596 .45799256 .38082887 .45799256 .49276734 .45799256 .63168337 .3659973 .6796875 .26098634 .6796875 .12399292 .6796875 .052993776 .5967102 .052993776 .54473879 .052993776 .51075747 .09098816 .49476625 .10798645 .49476625 .12599182 .49476625 .1329956 .50476077 .13699341 .5217438 .15299988 .5897064 .19198609 .64468386 .2539978 .64468386 .33099366 .64468386 .35299684 .5797119 .35299684 .50675967 .35299684 .3998108 .29899598 .33984376 .21199036 .26289369 .08898926 .15594483 .04598999 .08798218 .026992798 .009994507L.036987306 0H.45098878L.4850006 .13195801Z"/>
<path id="font_2_4" d="M.12998963 .3657837C.12998963 .3487854 .1349945 .33779908 .147995 .33779908 .1599884 .33779908 .18699646 .34777833 .23498535 .34777833 .31999208 .34777833 .36799623 .27090455 .36799623 .18403626 .36799623 .065216068 .30899049 .023269654 .23799134 .023269654 .17199707 .023269654 .1289978 .07319641 .10998535 .12911988 .10398865 .14808655 .09399414 .15707398 .07998657 .15707398 .06199646 .15707398 .026992798 .13809204 .026992798 .10215759 .026992798 .05921936 .09599304-.01171875 .23699951-.01171875 .38198854-.01171875 .47299195 .06121826 .47299195 .18902588 .47299195 .32281495 .35798646 .3627777 .30299378 .3677826V.3717804C.35699464 .38078309 .44400025 .4207611 .44400025 .5197296 .44400025 .6306915 .35699464 .6796875 .25 .6796875 .117996219 .6796875 .052993776 .60369876 .052993776 .5607147 .052993776 .5297241 .08799744 .51272585 .101989749 .51272585 .114990238 .51272585 .12298584 .5197296 .1269989 .5327301 .14898682 .60069277 .18699646 .64468386 .24299622 .64468386 .32199098 .64468386 .34098817 .57470706 .34098817 .51872256 .34098817 .4587555 .31999208 .38378907 .23498535 .38378907 .18699646 .38378907 .1599884 .39378358 .147995 .39378358 .1349945 .39378358 .12998963 .38378907 .12998963 .3657837Z"/>
<path id="font_2_5" d="M.2999878 .17871094V.0769043C.2999878 .04296875 .2889862 .036987306 .2649994 .034988405L.20098877 .0289917V0H.46499635V.0289917L.41999818 .033981325C.39698792 .036987306 .3899994 .04296875 .3899994 .0769043V.17871094H.49299623V.22570801H.3899994V.66796877H.31698609C.22299195 .5298767 .11099243 .35577394 .018997193 .19970703L.027999878 .17871094H.2999878M.09098816 .22570801C.15098572 .33476258 .22099304 .4498291 .2979889 .5709076H.2999878V.22570801H.09098816Z"/>
<path id="font_2_6" d="M.42599488 .5919647 .44999696 .6599579 .44499208 .66796877H.11099243L.100997928 .65896609 .08099365 .32388307 .10499573 .31188966C.14698792 .35983277 .18798828 .3828125 .24198914 .3828125 .30599977 .3828125 .37599183 .3358612 .37599183 .20404053 .37599183 .10116577 .33399964 .023269654 .24699402 .023269654 .1769867 .023269654 .14099121 .07420349 .12098694 .13113404 .115997318 .14611817 .10699463 .15510559 .09298706 .15510559 .07299805 .15510559 .039993287 .13513184 .039993287 .10217285 .039993287 .056228639 .10998535-.01171875 .23999024-.01171875 .40499879-.01171875 .47999574 .0881958 .47999574 .21502686 .47999574 .35484315 .3919983 .4268036 .272995 .4268036 .21798706 .4268036 .15899658 .4028015 .1269989 .3738098L.125 .37580873 .147995 .56292727C.15098572 .58795168 .1579895 .5919647 .1769867 .5919647H.42599488Z"/>
<path id="font_2_1" d="M.2649994 .64468386C.3600006 .64468386 .3869934 .49682618 .3869934 .33398438 .3869934 .17112732 .3600006 .023269654 .2649994 .023269654 .16999817 .023269654 .14299011 .17112732 .14299011 .33398438 .14299011 .49682618 .16999817 .64468386 .2649994 .64468386M.2649994 .6796875C.099990848 .6796875 .040985109 .53378298 .040985109 .33398438 .040985109 .13417053 .099990848-.01171875 .2649994-.01171875 .42999269-.01171875 .4889984 .13417053 .4889984 .33398438 .4889984 .53378298 .42999269 .6796875 .2649994 .6796875Z"/>
<path id="font_3_1" d="M.6349945 .2529297V.31092835H.084991458V.2529297H.6349945Z"/>
<path id="font_3_2" d="M.6349945 .14315796V.20117188H.084991458V.14315796H.6349945M.6349945 .36288453V.42089845H.084991458V.36288453H.6349945Z"/>
<path id="font_3_3" d="M.6349945 .07472229 .17298889 .28173829 .6349945 .48875428V.5517578L.084991458 .31674195V.24673462L.6349945 .01171875V.07472229Z"/>
</defs>
<path transform="matrix(1.00003,0,0,-1.00002,15.541512,27.321227)" d="M-14.17339-19.84267V25.51215H14.17339V-19.84267ZM14.17339 25.51215" fill="#d9d9ff"/>
<path transform="matrix(1.00003,0,0,-1.00002,15.541512,27.321227)" d="M14.17339-19.84267V25.51215H42.5202V-19.84267ZM42.5202 25.51215" fill="#d9f0d9"/>
<path transform="matrix(1.00003,0,0,-1.00002,15.541512,27.321227)" d="M42.5202-19.84267V25.51215H77.95372V-19.84267ZM77.95372 25.51215" fill="#d9d9ff"/>
<path transform="matrix(1.00003,0,0,-1.00002,15.541512,27.321227)" stroke-width=".19925" stroke-linecap="butt" stroke-dasharray="2.98883,2.98883" stroke-miterlimit="10" stroke-linejoin="miter" fill="none" stroke="#000000" d="M42.5202-19.84267V25.51215"/>
<path transform="matrix(1.00003,0,0,-1.00002,15.541512,27.321227)" stroke-width=".19925" stroke-linecap="butt" stroke-dasharray="2.98883,2.98883" stroke-miterlimit="10" stroke-linejoin="miter" fill="none" stroke="#000000" d="M14.17339-19.84267V25.51215"/>
<path transform="matrix(1.00003,0,0,-1.00002,15.541512,27.321227)" stroke-width=".3985" stroke-linecap="butt" stroke-miterlimit="10" stroke-linejoin="miter" fill="none" stroke="#000000" d="M-14.17339 0H77.49544"/>
<path transform="matrix(1.00003,0,0,-1.00002,93.039279,27.321227)" stroke-width=".31879" stroke-linecap="round" stroke-linejoin="round" fill="none" stroke="#000000" d="M-1.19551 1.59401C-1.09587 .99626 0 .09961 .29886 0 0-.09961-1.09587-.99626-1.19551-1.59401"/>
<path transform="matrix(1.00003,0,0,-1.00002,15.541512,27.321227)" stroke-width=".3985" stroke-linecap="butt" stroke-miterlimit="10" stroke-linejoin="miter" fill="none" stroke="#000000" d="M0-19.84267V25.05388"/>
<path transform="matrix(0,-1.00002,-1.00003,-0,15.541512,2.2668439)" stroke-width=".31879" stroke-linecap="round" stroke-linejoin="round" fill="none" stroke="#000000" d="M-1.19551 1.59401C-1.09587 .99626 0 .09961 .29886 0 0-.09961-1.09587-.99626-1.19551-1.59401"/>
<use data-text="t" xlink:href="#font_1_1" transform="matrix(7.3327205,0,0,-7.332647,90.51777,35.239385)"/>
<path transform="matrix(1.00003,0,0,-1.00002,15.541512,27.321227)" stroke-width=".3985" stroke-linecap="butt" stroke-miterlimit="10" stroke-linejoin="miter" fill="none" stroke="#929292" d="M14.17339 1.4174V-1.4174"/>
<use data-text="1" xlink:href="#font_2_2" transform="matrix(7.3327205,0,0,-7.332647,27.770878,36.763418)"/>
<path transform="matrix(1.00003,0,0,-1.00002,15.541512,27.321227)" stroke-width=".3985" stroke-linecap="butt" stroke-miterlimit="10" stroke-linejoin="miter" fill="none" stroke="#929292" d="M28.3468 1.4174V-1.4174"/>
<use data-text="2" xlink:href="#font_2_3" transform="matrix(7.3327205,0,0,-7.332647,41.944307,36.763418)"/>
<path transform="matrix(1.00003,0,0,-1.00002,15.541512,27.321227)" stroke-width=".3985" stroke-linecap="butt" stroke-miterlimit="10" stroke-linejoin="miter" fill="none" stroke="#929292" d="M42.5202 1.4174V-1.4174"/>
<use data-text="3" xlink:href="#font_2_4" transform="matrix(7.3327205,0,0,-7.332647,56.117734,36.763418)"/>
<path transform="matrix(1.00003,0,0,-1.00002,15.541512,27.321227)" stroke-width=".3985" stroke-linecap="butt" stroke-miterlimit="10" stroke-linejoin="miter" fill="none" stroke="#929292" d="M56.69362 1.4174V-1.4174"/>
<use data-text="4" xlink:href="#font_2_5" transform="matrix(7.3327205,0,0,-7.332647,70.29216,36.763418)"/>
<path transform="matrix(1.00003,0,0,-1.00002,15.541512,27.321227)" stroke-width=".3985" stroke-linecap="butt" stroke-miterlimit="10" stroke-linejoin="miter" fill="none" stroke="#929292" d="M70.867 1.4174V-1.4174"/>
<use data-text="5" xlink:href="#font_2_6" transform="matrix(7.3327205,0,0,-7.332647,84.465579,36.763418)"/>
<path transform="matrix(1.00003,0,0,-1.00002,15.541512,27.321227)" stroke-width=".3985" stroke-linecap="butt" stroke-miterlimit="10" stroke-linejoin="miter" fill="none" stroke="#929292" d="M1.4174 14.17339H-1.4174"/>
<use data-text="1" xlink:href="#font_2_2" transform="matrix(7.3327205,0,0,-7.332647,9.670334,15.601992)"/>
<path transform="matrix(1.00003,0,0,-1.00002,15.541512,27.321227)" stroke-width="1.19553" stroke-linecap="butt" stroke-miterlimit="10" stroke-linejoin="miter" fill="none" stroke="#0000ff" d="M-14.17339 0H-13.89569-13.61801-13.34032-13.06262-12.78494-12.50725-12.22955-11.95187-11.67418-11.39648-11.1188-10.84111-10.56342-10.28574-10.00804-9.73035-9.45267-9.17497-8.89728-8.6196-8.3419-8.06421-7.78653-7.50883-7.23116-6.95348-6.67578-6.39809-6.1204-5.84271-5.56502-5.28734-5.00964-4.73196-4.45427-4.17657-3.8989-3.6212-3.3435-3.06583-2.78813-2.51044-2.23276-1.95506-1.67737-1.39969-1.122-.8443-.56662-.28893-.01123 .26642 .54411 .82181 1.09949 1.37718 1.65488 1.93256 2.21025 2.48795 2.76563 3.04332 3.32101 3.5987 3.87639 4.15408 4.43176 4.70946 4.98715 5.26483 5.54253 5.82022 6.0979 6.3756 6.65329 6.93097 7.20866 7.48636 7.76404 8.04173 8.31943 8.5971 8.8748 9.1525 9.43018 9.70787 9.98557 10.26324 10.54094 10.81863 11.09631 11.37401 11.6517 11.92938 12.20708 12.48476 12.76245 13.04015 13.31783"/>
<path transform="matrix(1.00003,0,0,-1.00002,15.541512,27.321227)" stroke-width="1.19553" stroke-linecap="butt" stroke-miterlimit="10" stroke-linejoin="miter" fill="none" stroke="#009900" d="M14.17339 14.17339H14.45108 14.72876 15.00645 15.28415 15.56183 15.83952 16.11722 16.3949 16.67259 16.95029 17.22797 17.50566 17.78336 18.06104 18.33873 18.61642 18.8941 19.1718 19.4495 19.72717 20.00487 20.28256 20.56024 20.83794 21.11563 21.39331 21.671 21.9487 22.22638 22.50407 22.78177 23.05945 23.33714 23.61482 23.89252 24.17021 24.44789 24.72559 25.00328 25.28096 25.55865 25.83635 26.11403 26.39172 26.66942 26.9471 27.2248 27.50249 27.78017 28.05786 28.33556 28.61324 28.89093 29.16862 29.4463 29.724 30.0017 30.27937 30.55707 30.83476 31.11244 31.39014 31.66783 31.94551 32.2232 32.5009 32.77858 33.05627 33.33397 33.61165 33.88934 34.16704 34.44472 34.72241 35.0001 35.27779 35.55548 35.83318 36.11086 36.38855 36.66624 36.94391 37.2216 37.4993 37.77698 38.05467 38.33237 38.61005 38.88774 39.16544 39.44312 39.72081 39.9985 40.27618 40.55388 40.83156 41.10925 41.38695 41.66463"/>
<path transform="matrix(1.00003,0,0,-1.00002,15.541512,27.321227)" stroke-width="1.19553" stroke-linecap="butt" stroke-miterlimit="10" stroke-linejoin="miter" fill="none" stroke="#0000ff" d="M42.5202 0H42.8779 43.23563 43.59332 43.95103 44.30875 44.66646 45.02417 45.38187 45.73958 46.09729 46.455 46.81271 47.17041 47.52812 47.88583 48.24355 48.60124 48.95897 49.31667 49.67438 50.03209 50.38979 50.74751 51.10521 51.46292 51.82063 52.17833 52.53606 52.89375 53.25148 53.60918 53.96687 54.3246 54.6823 55.04002 55.39772 55.75542 56.11314 56.47084 56.82857 57.18626 57.54398 57.90169 58.25938 58.6171 58.97481 59.33252 59.69023 60.04794 60.40564 60.76335 61.12106 61.47878 61.83649 62.19418 62.5519 62.9096 63.26732 63.62503 63.98273 64.34045 64.69815 65.05586 65.41357 65.77127 66.129 66.4867 66.8444 67.20212 67.55981 67.91754 68.27524 68.63295 68.99066 69.34836 69.70609 70.06378 70.4215 70.7792 71.13692 71.49463 71.85233 72.21004 72.56775 72.92546 73.28317 73.64087 73.99858 74.3563 74.714 75.07172 75.42943 75.78712 76.14484 76.50255 76.86026 77.21797 77.57567 77.93338"/>
<path transform="matrix(1.00003,0,0,-1.00002,15.541512,27.321227)" stroke-width=".79701" stroke-linecap="butt" stroke-miterlimit="10" stroke-linejoin="miter" fill="none" stroke="#0000ff" d="M15.6678 0C15.6678 .82533 14.99873 1.49442 14.17339 1.49442 13.34804 1.49442 12.67897 .82533 12.67897 0 12.67897-.82533 13.34804-1.49442 14.17339-1.49442 14.99873-1.49442 15.6678-.82533 15.6678 0ZM14.17339 0"/>
<path transform="matrix(1.00003,0,0,-1.00002,15.541512,27.321227)" d="M15.6678 14.17339C15.6678 14.99873 14.99873 15.6678 14.17339 15.6678 13.34804 15.6678 12.67897 14.99873 12.67897 14.17339 12.67897 13.34804 13.34804 12.67897 14.17339 12.67897 14.99873 12.67897 15.6678 13.34804 15.6678 14.17339ZM14.17339 14.17339" fill="#009900"/>
<path transform="matrix(1.00003,0,0,-1.00002,15.541512,27.321227)" stroke-width=".79701" stroke-linecap="butt" stroke-miterlimit="10" stroke-linejoin="miter" fill="none" stroke="#009900" d="M44.01462 14.17339C44.01462 14.99873 43.34555 15.6678 42.5202 15.6678 41.69485 15.6678 41.02579 14.99873 41.02579 14.17339 41.02579 13.34804 41.69485 12.67897 42.5202 12.67897 43.34555 12.67897 44.01462 13.34804 44.01462 14.17339ZM42.5202 14.17339"/>
<path transform="matrix(1.00003,0,0,-1.00002,15.541512,27.321227)" d="M44.01462 0C44.01462 .82533 43.34555 1.49442 42.5202 1.49442 41.69485 1.49442 41.02579 .82533 41.02579 0 41.02579-.82533 41.69485-1.49442 42.5202-1.49442 43.34555-1.49442 44.01462-.82533 44.01462 0ZM42.5202 0" fill="#0000ff"/>
<use data-text="0" xlink:href="#font_2_1" transform="matrix(7.3327205,0,0,-7.332647,2.0931092,23.882157)" fill="#0000ff"/>
<use data-text="&#x2212;" xlink:href="#font_3_1" transform="matrix(7.3327205,0,0,-7.332647,6.9572527,23.882157)" fill="#0000ff"/>
<use data-text="0" xlink:href="#font_2_1" transform="matrix(7.3327205,0,0,-7.332647,13.207443,23.882157)" fill="#0000ff"/>
<use data-text="=" xlink:href="#font_3_2" transform="matrix(7.3327205,0,0,-7.332647,18.460595,23.882157)" fill="#0000ff"/>
<use data-text="0" xlink:href="#font_2_1" transform="matrix(7.3327205,0,0,-7.332647,25.1008,23.882157)" fill="#0000ff"/>
<use data-text="1" xlink:href="#font_2_2" transform="matrix(7.3327205,0,0,-7.332647,30.44096,9.708874)" fill="#009900"/>
<use data-text="&#x2212;" xlink:href="#font_3_1" transform="matrix(7.3327205,0,0,-7.332647,35.305105,9.708874)" fill="#009900"/>
<use data-text="0" xlink:href="#font_2_1" transform="matrix(7.3327205,0,0,-7.332647,41.555295,9.708874)" fill="#0000ff"/>
<use data-text="=" xlink:href="#font_3_2" transform="matrix(7.3327205,0,0,-7.332647,46.808446,9.708874)" fill="#009900"/>
<use data-text="1" xlink:href="#font_2_2" transform="matrix(7.3327205,0,0,-7.332647,53.44865,9.708874)" fill="#009900"/>
<use data-text="1" xlink:href="#font_2_2" transform="matrix(7.3327205,0,0,-7.332647,62.623929,23.882157)" fill="#009900"/>
<use data-text="&#x2212;" xlink:href="#font_3_1" transform="matrix(7.3327205,0,0,-7.332647,67.48807,23.882157)" fill="#009900"/>
<use data-text="1" xlink:href="#font_2_2" transform="matrix(7.3327205,0,0,-7.332647,73.738269,23.882157)" fill="#009900"/>
<use data-text="=" xlink:href="#font_3_2" transform="matrix(7.3327205,0,0,-7.332647,78.407398,23.882157)" fill="#0000ff"/>
<use data-text="0" xlink:href="#font_2_1" transform="matrix(7.3327205,0,0,-7.332647,85.0466,23.882157)" fill="#0000ff"/>
<use data-text="t" xlink:href="#font_1_1" transform="matrix(7.3327205,0,0,-7.332647,8.032288,43.701555)" fill="#0000ff"/>
<use data-text="&#x003c;" xlink:href="#font_3_3" transform="matrix(7.3327205,0,0,-7.332647,12.680428,43.701555)" fill="#0000ff"/>
<use data-text="1" xlink:href="#font_2_2" transform="matrix(7.3327205,0,0,-7.332647,19.320626,43.701555)" fill="#0000ff"/>
<use data-text="1" xlink:href="#font_2_2" transform="matrix(7.3327205,0,0,-7.332647,30.273957,43.701555)" fill="#009900"/>
<use data-text="&#x003c;" xlink:href="#font_3_3" transform="matrix(7.3327205,0,0,-7.332647,35.527116,43.701555)" fill="#009900"/>
<use data-text="t" xlink:href="#font_1_1" transform="matrix(7.3327205,0,0,-7.332647,42.327318,43.701555)" fill="#009900"/>
<use data-text="&#x003c;" xlink:href="#font_3_3" transform="matrix(7.3327205,0,0,-7.332647,46.974466,43.701555)" fill="#009900"/>
<use data-text="3" xlink:href="#font_2_4" transform="matrix(7.3327205,0,0,-7.332647,53.614664,43.701555)" fill="#009900"/>
<use data-text="3" xlink:href="#font_2_4" transform="matrix(7.3327205,0,0,-7.332647,68.11209,43.701555)" fill="#0000ff"/>
<use data-text="&#x003c;" xlink:href="#font_3_3" transform="matrix(7.3327205,0,0,-7.332647,73.36525,43.701555)" fill="#0000ff"/>
<use data-text="t" xlink:href="#font_1_1" transform="matrix(7.3327205,0,0,-7.332647,80.16545,43.701555)" fill="#0000ff"/>
</svg>
