<svg xmlns="http://www.w3.org/2000/svg" xmlns:xlink="http://www.w3.org/1999/xlink" version="1.1" width="131" height="57" viewBox="0 0 131 57">
<defs>
<path id="font_1_1" d="M.42799378 .45222474 .43899537 .49023438H.31199647L.34599305 .6092224 .33399964 .6162262 .23699951 .53923037 .22399903 .49023438H.14299011L.13198853 .45222474H.21499634L.125 .08627319C.10998535 .029266358 .12199402-.01171875 .17199707-.01171875 .2519989-.01171875 .31599427 .054275514 .35598756 .1292572L.33399964 .1462555C.31098939 .10726929 .2599945 .040267946 .22898865 .040267946 .20799256 .040267946 .20799256 .0632782 .21398926 .088272098L.30299378 .45222474H.42799378Z"/>
<path id="font_2_1" d="M.07398987 .2861328V.21612549H.31900025V.2861328H.07398987Z"/>
<path id="font_2_5" d="M.2999878 .17871094V.0769043C.2999878 .04296875 .2889862 .036987306 .2649994 .034988405L.20098877 .0289917V0H.46499635V.0289917L.41999818 .033981325C.39698792 .036987306 .3899994 .04296875 .3899994 .0769043V.17871094H.49299623V.22570801H.3899994V.66796877H.31698609C.22299195 .5298767 .11099243 .35577394 .018997193 .19970703L.027999878 .17871094H.2999878M.09098816 .22570801C.15098572 .33476258 .22099304 .4498291 .2979889 .5709076H.2999878V.22570801H.09098816Z"/>
<path id="font_2_4" d="M.4850006 .13195801 .45700074 .13696289C.43598939 .08299255 .41600038 .07598877 .37599183 .07598877H.11999512C.13598633 .1279602 .19499207 .19892884 .28799439 .2658844 .38398744 .33584596 .45799256 .38082887 .45799256 .49276734 .45799256 .63168337 .3659973 .6796875 .26098634 .6796875 .12399292 .6796875 .052993776 .5967102 .052993776 .54473879 .052993776 .51075747 .09098816 .49476625 .10798645 .49476625 .12599182 .49476625 .1329956 .50476077 .13699341 .5217438 .15299988 .5897064 .19198609 .64468386 .2539978 .64468386 .33099366 .64468386 .35299684 .5797119 .35299684 .50675967 .35299684 .3998108 .29899598 .33984376 .21199036 .26289369 .08898926 .15594483 .04598999 .08798218 .026992798 .009994507L.036987306 0H.45098878L.4850006 .13195801Z"/>
<path id="font_2_3" d="M.43699647 0V.0289917L.35299684 .035995485C.33198548 .037994386 .31999208 .04598999 .31999208 .08496094V.67367556L.31498719 .6796875 .10899353 .6446991V.6197052L.20199585 .6087036C.21899414 .6067047 .22599793 .5987091 .22599793 .56973269V.08496094C.22599793 .065979007 .22299195 .053985597 .21699524 .04698181 .21199036 .039993287 .20399475 .036987306 .19299317 .035995485L.10899353 .0289917V0H.43699647Z"/>
<path id="font_2_2" d="M.1329956-.01171875C.17199707-.01171875 .19499207 .015274048 .19599915 .05126953 .19599915 .088272098 .17199707 .11627197 .1329956 .11627197 .09498596 .11627197 .069992069 .088272098 .069992069 .05126953 .069992069 .015274048 .09498596-.01171875 .1329956-.01171875Z"/>
<path id="font_2_6" d="M.42599488 .5919647 .44999696 .6599579 .44499208 .66796877H.11099243L.100997928 .65896609 .08099365 .32388307 .10499573 .31188966C.14698792 .35983277 .18798828 .3828125 .24198914 .3828125 .30599977 .3828125 .37599183 .3358612 .37599183 .20404053 .37599183 .10116577 .33399964 .023269654 .24699402 .023269654 .1769867 .023269654 .14099121 .07420349 .12098694 .13113404 .115997318 .14611817 .10699463 .15510559 .09298706 .15510559 .07299805 .15510559 .039993287 .13513184 .039993287 .10217285 .039993287 .056228639 .10998535-.01171875 .23999024-.01171875 .40499879-.01171875 .47999574 .0881958 .47999574 .21502686 .47999574 .35484315 .3919983 .4268036 .272995 .4268036 .21798706 .4268036 .15899658 .4028015 .1269989 .3738098L.125 .37580873 .147995 .56292727C.15098572 .58795168 .1579895 .5919647 .1769867 .5919647H.42599488Z"/>
</defs>
<path transform="matrix(1.00009,0,0,-1.00006,59.35029,36.242216)" d="M25.51193-19.13394V34.44107H70.15787V-19.13394ZM70.15787 34.44107" fill="#dfbfbf"/>
<path transform="matrix(1.00009,0,0,-1.00006,59.35029,36.242216)" stroke-width=".3985" stroke-linecap="butt" stroke-miterlimit="10" stroke-linejoin="miter" fill="none" stroke="#000000" d="M-57.40189 0H69.69958"/>
<path transform="matrix(1.00009,0,0,-1.00006,129.05614,36.242216)" stroke-width=".31879" stroke-linecap="round" stroke-linejoin="round" fill="none" stroke="#000000" d="M-1.19551 1.59401C-1.09587 .99626 0 .09961 .29886 0 0-.09961-1.09587-.99626-1.19551-1.59401"/>
<path transform="matrix(1.00009,0,0,-1.00006,59.35029,36.242216)" stroke-width=".3985" stroke-linecap="butt" stroke-miterlimit="10" stroke-linejoin="miter" fill="none" stroke="#000000" d="M0-19.13394V33.9828"/>
<path transform="matrix(0,-1.00006,-1.00009,-0,59.35029,2.2573777)" stroke-width=".31879" stroke-linecap="round" stroke-linejoin="round" fill="none" stroke="#000000" d="M-1.19551 1.59401C-1.09587 .99626 0 .09961 .29886 0 0-.09961-1.09587-.99626-1.19551-1.59401"/>
<use data-text="t" xlink:href="#font_1_1" transform="matrix(9.166425,0,0,-9.166149,125.01119,45.290758)"/>
<path transform="matrix(1.00009,0,0,-1.00006,59.35029,36.242216)" stroke-width=".79701" stroke-linecap="butt" stroke-miterlimit="10" stroke-linejoin="miter" fill="none" stroke="#929292" d="M-51.0239 2.55115V-2.55115"/>
<use data-text="-" xlink:href="#font_2_1" transform="matrix(9.166425,0,0,-9.166149,4.0923159,45.778787)"/>
<use data-text="4" xlink:href="#font_2_5" transform="matrix(9.166425,0,0,-9.166149,7.6855547,45.778787)"/>
<path transform="matrix(1.00009,0,0,-1.00006,59.35029,36.242216)" stroke-width=".79701" stroke-linecap="butt" stroke-miterlimit="10" stroke-linejoin="miter" fill="none" stroke="#929292" d="M-25.51193 2.55115V-2.55115"/>
<use data-text="-" xlink:href="#font_2_1" transform="matrix(9.166425,0,0,-9.166149,29.606614,45.778787)"/>
<use data-text="2" xlink:href="#font_2_4" transform="matrix(9.166425,0,0,-9.166149,33.199853,45.778787)"/>
<path transform="matrix(1.00009,0,0,-1.00006,59.35029,36.242216)" stroke-width=".79701" stroke-linecap="butt" stroke-miterlimit="10" stroke-linejoin="miter" fill="none" stroke="#929292" d="M25.51193 2.55115V-2.55115"/>
<use data-text="2" xlink:href="#font_2_4" transform="matrix(9.166425,0,0,-9.166149,82.433368,45.778787)"/>
<path transform="matrix(1.00009,0,0,-1.00006,59.35029,36.242216)" stroke-width=".79701" stroke-linecap="butt" stroke-miterlimit="10" stroke-linejoin="miter" fill="none" stroke="#929292" d="M51.0239 2.55115V-2.55115"/>
<use data-text="4" xlink:href="#font_2_5" transform="matrix(9.166425,0,0,-9.166149,107.94766,45.778787)"/>
<path transform="matrix(1.00009,0,0,-1.00006,59.35029,36.242216)" stroke-width=".3985" stroke-linecap="butt" stroke-miterlimit="10" stroke-linejoin="miter" fill="none" stroke="#929292" d="M1.27565-12.75595H-1.27565"/>
<use data-text="-" xlink:href="#font_2_1" transform="matrix(7.33316,0,0,-7.3329398,50.459489,51.454126)"/>
<use data-text="1" xlink:href="#font_2_3" transform="matrix(7.33316,0,0,-7.3329398,53.334085,51.454126)"/>
<path transform="matrix(1.00009,0,0,-1.00006,59.35029,36.242216)" stroke-width=".3985" stroke-linecap="butt" stroke-miterlimit="10" stroke-linejoin="miter" fill="none" stroke="#929292" d="M1.27565 12.75595H-1.27565"/>
<use data-text="1" xlink:href="#font_2_3" transform="matrix(7.33316,0,0,-7.3329398,53.336748,25.940598)"/>
<path transform="matrix(1.00009,0,0,-1.00006,59.35029,36.242216)" stroke-width=".3985" stroke-linecap="butt" stroke-miterlimit="10" stroke-linejoin="miter" fill="none" stroke="#929292" d="M1.27565 25.51193H-1.27565"/>
<use data-text="2" xlink:href="#font_2_4" transform="matrix(7.33316,0,0,-7.3329398,53.336748,13.183832)"/>
<path transform="matrix(1.00009,0,0,-1.00006,59.35029,36.242216)" stroke-width="1.19553" stroke-linecap="butt" stroke-miterlimit="10" stroke-linejoin="miter" fill="none" stroke="#000000" d="M-56.44547 0H-56.56453-55.72719-54.88985-54.05249-53.21515-52.37782-51.54048-50.70313-49.86578-49.02844-48.19109-47.35374-46.5164-45.67905-44.8417-44.00436-43.16702-42.32967-41.49234-40.655-39.81764-38.9803-38.14296-37.30562-36.46826-35.63092-34.79358-33.95622-33.11888-32.28154-31.44418-30.60686-29.76952-28.93217-28.09482-27.25748-26.42014-25.58278-24.74544-23.9081-23.07076-22.2334-21.39606-20.55872-19.72137-18.88403-18.04669-17.20934-16.372-15.53465-14.69731-13.85995-13.02261-12.18527-11.34792-10.51057-9.67323-8.83589-7.99857-7.16121-6.32387-5.48651-4.64917-3.81183-2.97447-2.13713-1.29979-.46245 .37486 1.2122 2.04956 2.88689 3.72423 4.56158 5.39893 6.23627 7.07361 7.91096 8.7483 9.58565 10.423 11.26035 12.09769 12.93503 13.77237 14.60971 15.44705 16.28441 17.12175 17.95909 18.79645 19.63379 20.47113 21.30847 22.14583 22.98317 23.82051 24.65785 25.4952"/>
<path transform="matrix(-1.00009,-0,0,1.00006,2.8997384,36.242216)" stroke-width=".9564" stroke-linecap="round" stroke-linejoin="round" fill="none" stroke="#000000" d="M-1.91284 2.55046C-1.75343 1.59402 0 .15938 .4782 0 0-.15938-1.75343-1.59402-1.91284-2.55046"/>
<path transform="matrix(1.00009,0,0,-1.00006,59.35029,36.242216)" stroke-width="1.19553" stroke-linecap="butt" stroke-miterlimit="10" stroke-linejoin="miter" fill="none" stroke="#9f4040" d="M25.51193 19.13394H25.96272 26.41353 26.8643 27.3151 27.76587 28.21667 28.66745 29.11824 29.56903 30.0198 30.47061 30.92139 31.37218 31.82297 32.27376 32.72455 33.17532 33.62611 34.07692 34.5277 34.97849 35.42928 35.88007 36.33086 36.78163 37.23242 37.6832 38.134 38.5848 39.03557 39.48637 39.93715 40.38794 40.83873 41.28952 41.74031 42.19109 42.64189 43.09268 43.54346 43.99425 44.44504 44.89583 45.34662 45.7974 46.24818 46.69897 47.14977 47.60056 48.05133 48.50214 48.95291 49.4037 49.85449 50.30528 50.75607 51.20685 51.65765 52.10844 52.55922 53.01001 53.46078 53.91158 54.36238 54.81316 55.26395 55.71474 56.16553 56.6163 57.0671 57.5179 57.96867 58.41946 58.87024 59.32104 59.77184 60.22261 60.6734 61.12418 61.57498 62.02577 62.47655 62.92734 63.37813 63.82892 64.27971 64.7305 65.18129 65.63206 66.08286 66.53366 66.98444 67.43523 67.88602 68.3368 68.7876 69.23837 69.68916 70.13994"/>
<path transform="matrix(1.00009,0,0,-1.00006,59.35029,36.242216)" d="M27.30522 19.13394C27.30522 20.12436 26.50235 20.92723 25.51193 20.92723 24.52153 20.92723 23.71866 20.12436 23.71866 19.13394 23.71866 18.14354 24.52153 17.34067 25.51193 17.34067 26.50235 17.34067 27.30522 18.14354 27.30522 19.13394ZM25.51193 19.13394" fill="#9f4040"/>
<use data-text="1" xlink:href="#font_2_3" transform="matrix(9.166425,0,0,-9.166149,101.112049,13.757866)" fill="#800000"/>
<use data-text="." xlink:href="#font_2_2" transform="matrix(9.166425,0,0,-9.166149,105.97025,13.757866)" fill="#800000"/>
<use data-text="5" xlink:href="#font_2_6" transform="matrix(9.166425,0,0,-9.166149,108.399349,13.757866)" fill="#800000"/>
</svg>
