<svg xmlns="http://www.w3.org/2000/svg" xmlns:xlink="http://www.w3.org/1999/xlink" version="1.1" width="201" height="117" viewBox="0 0 201 117">
<defs>
<path id="font_1_6" d="M.4850006 .13195801 .45700074 .13696289C.43598939 .08299255 .41600038 .07598877 .37599183 .07598877H.11999512C.13598633 .1279602 .19499207 .19892884 .28799439 .2658844 .38398744 .33584596 .45799256 .38082887 .45799256 .49276734 .45799256 .63168337 .3659973 .6796875 .26098634 .6796875 .12399292 .6796875 .052993776 .5967102 .052993776 .54473879 .052993776 .51075747 .09098816 .49476625 .10798645 .49476625 .12599182 .49476625 .1329956 .50476077 .13699341 .5217438 .15299988 .5897064 .19198609 .64468386 .2539978 .64468386 .33099366 .64468386 .35299684 .5797119 .35299684 .50675967 .35299684 .3998108 .29899598 .33984376 .21199036 .26289369 .08898926 .15594483 .04598999 .08798218 .026992798 .009994507L.036987306 0H.45098878L.4850006 .13195801Z"/>
<path id="font_1_7" d="M.2999878 .17871094V.0769043C.2999878 .04296875 .2889862 .036987306 .2649994 .034988405L.20098877 .0289917V0H.46499635V.0289917L.41999818 .033981325C.39698792 .036987306 .3899994 .04296875 .3899994 .0769043V.17871094H.49299623V.22570801H.3899994V.66796877H.31698609C.22299195 .5298767 .11099243 .35577394 .018997193 .19970703L.027999878 .17871094H.2999878M.09098816 .22570801C.15098572 .33476258 .22099304 .4498291 .2979889 .5709076H.2999878V.22570801H.09098816Z"/>
<path id="font_2_1" d="M.42799378 .45222474 .43899537 .49023438H.31199647L.34599305 .6092224 .33399964 .6162262 .23699951 .53923037 .22399903 .49023438H.14299011L.13198853 .45222474H.21499634L.125 .08627319C.10998535 .029266358 .12199402-.01171875 .17199707-.01171875 .2519989-.01171875 .31599427 .054275514 .35598756 .1292572L.33399964 .1462555C.31098939 .10726929 .2599945 .040267946 .22898865 .040267946 .20799256 .040267946 .20799256 .0632782 .21398926 .088272098L.30299378 .45222474H.42799378Z"/>
<path id="font_3_1" d="M.6349945 .2529297V.31092835H.084991458V.2529297H.6349945Z"/>
<path id="font_2_2" d="M.070999149 .45393373 .07398987 .42893983 .14199829 .43093873C.1639862 .43193055 .16899109 .41493226 .1769867 .36291505 .18798828 .28489686 .20999146 .09286499 .20999146 .0128479 .20999146-.017166138 .20799256-.058166505 .18598938-.11117554 .16799927-.15318299 .14199829-.18218994 .12199402-.18218994 .10699463-.18218994 .09599304-.17118836 .08099365-.15118408 .068984989-.13517761 .06098938-.127182 .04598999-.127182 .019989014-.12818909-.005004883-.15818787-.005004883-.18719483-.005004883-.21418762 .023986817-.2421875 .067993167-.2421875 .15299988-.2421875 .18998719-.17919922 .27799989-.027160645 .2979889 .0068511965 .35798646 .11286926 .41999818 .21488953 .47698976 .30891419 .5399933 .40592958 .5399933 .4459381 .5399933 .48094178 .5289917 .5019531 .5219879 .5019531 .5029907 .5019531 .46899415 .49394227 .44400025 .47694398 .44499208 .4419403 .44299317 .3809204 .43099977 .33891297 .4149933 .28289796 .35598756 .17488098 .2899933 .06085205H.2869873C.27999879 .21388245 .26098634 .42492677 .24699402 .49795533L.23899842 .5019531 .070999149 .45393373Z"/>
<path id="font_1_1" d="M.1749878 .2822113C.1749878 .56832888 .2619934 .65437319 .32499696 .66737368V.6923828C.1499939 .685379 .10499573 .46829225 .10499573 .2822113 .10499573 .09614563 .1499939-.12094116 .32499696-.12792969V-.10293579C.2669983-.090927127 .1749878-.0059051516 .1749878 .2822113Z"/>
<path id="font_1_4" d="M.2649994 .64468386C.3600006 .64468386 .3869934 .49682618 .3869934 .33398438 .3869934 .17112732 .3600006 .023269654 .2649994 .023269654 .16999817 .023269654 .14299011 .17112732 .14299011 .33398438 .14299011 .49682618 .16999817 .64468386 .2649994 .64468386M.2649994 .6796875C.099990848 .6796875 .040985109 .53378298 .040985109 .33398438 .040985109 .13417053 .099990848-.01171875 .2649994-.01171875 .42999269-.01171875 .4889984 .13417053 .4889984 .33398438 .4889984 .53378298 .42999269 .6796875 .2649994 .6796875Z"/>
<path id="font_1_3" d="M.069992069-.140625C.11999512-.09362793 .19299317-.027633667 .19299317 .051361085 .19299317 .10636902 .1599884 .1423645 .125 .14137268 .09399414 .14137268 .07598877 .117370609 .07598877 .09136963 .07598877 .055374147 .10899353 .037368776 .10899353-.005630493 .10899353-.04663086 .08299255-.086639408 .050994874-.12162781L.069992069-.140625Z"/>
<path id="font_1_5" d="M.43699647 0V.0289917L.35299684 .035995485C.33198548 .037994386 .31999208 .04598999 .31999208 .08496094V.67367556L.31498719 .6796875 .10899353 .6446991V.6197052L.20199585 .6087036C.21899414 .6067047 .22599793 .5987091 .22599793 .56973269V.08496094C.22599793 .065979007 .22299195 .053985597 .21699524 .04698181 .21199036 .039993287 .20399475 .036987306 .19299317 .035995485L.10899353 .0289917V0H.43699647Z"/>
<path id="font_1_2" d="M.1749878 .2822113C.1749878-.0059051516 .08299255-.090927127 .024993897-.10293579V-.12792969C.19999695-.12094116 .24499512 .09614563 .24499512 .2822113 .24499512 .46829225 .19999695 .685379 .024993897 .6923828V.66737368C.08799744 .65437319 .1749878 .56832888 .1749878 .2822113Z"/>
</defs>
<path transform="matrix(1.00002,0,0,-1,26.817505,68.444)" stroke-width=".3985" stroke-linecap="butt" stroke-miterlimit="10" stroke-linejoin="miter" fill="none" stroke="#cbcbcb" d="M-21.2601-46.77216V59.52834"/>
<path transform="matrix(1.00002,0,0,-1,26.817505,68.444)" stroke-width=".3985" stroke-linecap="butt" stroke-miterlimit="10" stroke-linejoin="miter" fill="none" stroke="#cbcbcb" d="M21.2601-46.77216V59.52834"/>
<path transform="matrix(1.00002,0,0,-1,26.817505,68.444)" stroke-width=".3985" stroke-linecap="butt" stroke-miterlimit="10" stroke-linejoin="miter" fill="none" stroke="#cbcbcb" d="M42.5202-46.77216V59.52834"/>
<path transform="matrix(1.00002,0,0,-1,26.817505,68.444)" stroke-width=".3985" stroke-linecap="butt" stroke-miterlimit="10" stroke-linejoin="miter" fill="none" stroke="#cbcbcb" d="M63.7803-46.77216V59.52834"/>
<path transform="matrix(1.00002,0,0,-1,26.817505,68.444)" stroke-width=".3985" stroke-linecap="butt" stroke-miterlimit="10" stroke-linejoin="miter" fill="none" stroke="#cbcbcb" d="M85.04042-46.77216V59.52834"/>
<path transform="matrix(1.00002,0,0,-1,26.817505,68.444)" stroke-width=".3985" stroke-linecap="butt" stroke-miterlimit="10" stroke-linejoin="miter" fill="none" stroke="#000000" d="M42.5202-1.48834V1.48834"/>
<use data-text="2" xlink:href="#font_1_6" transform="matrix(10.036601,0,0,-10.0364,66.6763,78.563)"/>
<path transform="matrix(1.00002,0,0,-1,26.817505,68.444)" stroke-width=".3985" stroke-linecap="butt" stroke-miterlimit="10" stroke-linejoin="miter" fill="none" stroke="#000000" d="M85.04042-1.48834V1.48834"/>
<use data-text="4" xlink:href="#font_1_7" transform="matrix(10.036601,0,0,-10.0364,109.19815,78.563)"/>
<path transform="matrix(1.00002,0,0,-1,26.817505,68.444)" stroke-width=".3985" stroke-linecap="butt" stroke-miterlimit="10" stroke-linejoin="miter" fill="none" stroke="#000000" d="M-25.51204 0H95.21219"/>
<path transform="matrix(1.00002,0,0,-1,122.0316,68.444)" stroke-width=".31879" stroke-linecap="round" stroke-linejoin="round" fill="none" stroke="#000000" d="M-1.19551 1.59401C-1.09587 .99626 0 .09961 .29886 0 0-.09961-1.09587-.99626-1.19551-1.59401"/>
<use data-text="t" xlink:href="#font_2_1" transform="matrix(10.036601,0,0,-10.0364,120.35238,78.028)"/>
<path transform="matrix(1.00002,0,0,-1,26.817505,68.444)" stroke-width=".3985" stroke-linecap="butt" stroke-miterlimit="10" stroke-linejoin="miter" fill="none" stroke="#cbcbcb" d="M-25.51204-42.5202H95.67047"/>
<path transform="matrix(1.00002,0,0,-1,26.817505,68.444)" stroke-width=".3985" stroke-linecap="butt" stroke-miterlimit="10" stroke-linejoin="miter" fill="none" stroke="#cbcbcb" d="M-25.51204-21.2601H95.67047"/>
<path transform="matrix(1.00002,0,0,-1,26.817505,68.444)" stroke-width=".3985" stroke-linecap="butt" stroke-miterlimit="10" stroke-linejoin="miter" fill="none" stroke="#cbcbcb" d="M-25.51204 21.2601H95.67047"/>
<path transform="matrix(1.00002,0,0,-1,26.817505,68.444)" stroke-width=".3985" stroke-linecap="butt" stroke-miterlimit="10" stroke-linejoin="miter" fill="none" stroke="#cbcbcb" d="M-25.51204 42.5202H95.67047"/>
<path transform="matrix(1.00002,0,0,-1,26.817505,68.444)" stroke-width=".3985" stroke-linecap="butt" stroke-miterlimit="10" stroke-linejoin="miter" fill="none" stroke="#000000" d="M-1.48834-42.5202H1.48834"/>
<use data-text="&#x2212;" xlink:href="#font_3_1" transform="matrix(7.332647,0,0,-7.3325,14.252251,113.419)"/>
<use data-text="2" xlink:href="#font_1_6" transform="matrix(7.332647,0,0,-7.3325,19.529358,113.419)"/>
<path transform="matrix(1.00002,0,0,-1,26.817505,68.444)" stroke-width=".3985" stroke-linecap="butt" stroke-miterlimit="10" stroke-linejoin="miter" fill="none" stroke="#000000" d="M-1.48834 42.5202H1.48834"/>
<use data-text="2" xlink:href="#font_1_6" transform="matrix(7.332647,0,0,-7.3325,19.529358,28.379002)"/>
<path transform="matrix(1.00002,0,0,-1,26.817505,68.444)" stroke-width=".3985" stroke-linecap="butt" stroke-miterlimit="10" stroke-linejoin="miter" fill="none" stroke="#000000" d="M0-46.77216V59.07007"/>
<path transform="matrix(0,-1,-1.00002,-0,26.817505,9.373932)" stroke-width=".31879" stroke-linecap="round" stroke-linejoin="round" fill="none" stroke="#000000" d="M-1.19551 1.59401C-1.09587 .99626 0 .09961 .29886 0 0-.09961-1.09587-.99626-1.19551-1.59401"/>
<use data-text="y" xlink:href="#font_2_2" transform="matrix(10.036601,0,0,-10.0364,17.800316,10.165001)"/>
<path transform="matrix(1.00002,0,0,-1,26.817505,68.444)" stroke-width="1.59404" stroke-linecap="butt" stroke-miterlimit="10" stroke-linejoin="miter" fill="none" stroke="#000000" d="M-24.43388-33.4769-20.46303-31.49146-15.41402-28.96693-10.36499-26.44243-5.316-23.91794-.26697-21.39342 4.782-18.86923 9.83104-16.34473 14.88004-13.82022 19.92906-11.29572 24.97807-8.7712 30.0271-6.2467 35.07611-3.72218 40.12512-1.19768 45.17413 1.3268 50.22316 3.85129 55.27217 6.37581 60.32118 8.90031 65.37021 11.42482 70.41922 13.94933 75.46823 16.47385 80.51726 18.99835 85.56625 21.52284 90.6153 24.04736 94.58614 26.03282"/>
<path transform="matrix(-.89437797,.44717,.44717894,.89436,2.3831349,101.9209)" stroke-width="1.27522" stroke-linecap="round" stroke-linejoin="round" fill="none" stroke="#000000" d="M-2.27148 3.02866C-2.0822 1.8929 0 .18927 .56786 0 0-.18927-2.0822-1.8929-2.27148-3.02866"/>
<path transform="matrix(.89437797,-.44717,-.44717894,-.89436,121.40554,42.41118)" stroke-width="1.27522" stroke-linecap="round" stroke-linejoin="round" fill="none" stroke="#000000" d="M-2.27148 3.02866C-2.0822 1.8929 0 .18927 .56786 0 0-.18927-2.0822-1.8929-2.27148-3.02866"/>
<path transform="matrix(1.00002,0,0,-1,26.817505,68.444)" stroke-width=".3985" stroke-linecap="butt" stroke-miterlimit="10" stroke-linejoin="miter" fill="none" stroke="#000000" d="M17.00813-21.2601"/>
<path transform="matrix(1.00002,0,0,-1,26.817505,68.444)" d="M2.94185-31.23279H31.07442V-21.45935H2.94185Z" fill="#ffffff"/>
<use data-text="(" xlink:href="#font_1_1" transform="matrix(9.165783,0,0,-9.1656,30.755585,97.385)"/>
<use data-text="0" xlink:href="#font_1_4" transform="matrix(9.165783,0,0,-9.1656,33.9636,97.385)"/>
<use data-text="," xlink:href="#font_1_3" transform="matrix(9.165783,0,0,-9.1656,38.821466,97.385)"/>
<use data-text="&#x2212;" xlink:href="#font_3_1" transform="matrix(9.165783,0,0,-9.1656,42.230813,97.385)"/>
<use data-text="1" xlink:href="#font_1_5" transform="matrix(9.165783,0,0,-9.1656,48.82595,97.385)"/>
<use data-text=")" xlink:href="#font_1_2" transform="matrix(9.165783,0,0,-9.1656,53.683816,97.385)"/>
<path transform="matrix(1.00002,0,0,-1,26.817505,68.444)" stroke-width="1.19553" stroke-linecap="butt" stroke-miterlimit="10" stroke-linejoin="miter" fill="none" stroke="#0033cc" d="M0-21.2601V-.9564"/>
<path transform="matrix(0,-1,-1.00002,-0,26.817505,69.4004)" stroke-width=".9564" stroke-linecap="round" stroke-linejoin="round" fill="none" stroke="#0033cc" d="M-1.91284 2.55046C-1.75343 1.59402 0 .15938 .4782 0 0-.15938-1.75343-1.59402-1.91284-2.55046"/>
<path transform="matrix(1.00002,0,0,-1,26.817505,68.444)" d="M-4.42345-15.69113H4.4234607V-5.5689995H-4.42345Z" fill="#ffffff"/>
<use data-text="1" xlink:href="#font_1_5" transform="matrix(9.165783,0,0,-9.1656,24.38646,82.143009)" fill="#0033cc"/>
<path transform="matrix(1.00002,0,0,-1,26.817505,68.444)" stroke-width="1.19553" stroke-linecap="butt" stroke-miterlimit="10" stroke-linejoin="miter" fill="none" stroke="#009966" d="M0 0H39.43764"/>
<path transform="matrix(1.00002,0,0,-1,66.255939,68.444)" stroke-width=".9564" stroke-linecap="round" stroke-linejoin="round" fill="none" stroke="#009966" d="M-1.91284 2.55046C-1.75343 1.59402 0 .15938 .4782 0 0-.15938-1.75343-1.59402-1.91284-2.55046"/>
<path transform="matrix(1.00002,0,0,-1,26.817505,68.444)" d="M16.76984-4.06479H23.624192V4.06479H16.76984Z" fill="#ffffff"/>
<use data-text="2" xlink:href="#font_1_6" transform="matrix(9.165783,0,0,-9.1656,44.583864,71.513)" fill="#009966"/>
<path transform="matrix(1.00002,0,0,-1,26.817505,68.444)" d="M2.24162-21.2601C2.24162-20.02208 1.238-19.01848 0-19.01848-1.238-19.01848-2.24162-20.02208-2.24162-21.2601-2.24162-22.49811-1.238-23.50172 0-23.50172 1.238-23.50172 2.24162-22.49811 2.24162-21.2601ZM0-21.2601" fill="#ffffff"/>
<path transform="matrix(1.00002,0,0,-1,26.817505,68.444)" stroke-width="1.19553" stroke-linecap="butt" stroke-miterlimit="10" stroke-linejoin="miter" fill="none" stroke="#000000" d="M2.24162-21.2601C2.24162-20.02208 1.238-19.01848 0-19.01848-1.238-19.01848-2.24162-20.02208-2.24162-21.2601-2.24162-22.49811-1.238-23.50172 0-23.50172 1.238-23.50172 2.24162-22.49811 2.24162-21.2601ZM0-21.2601"/>
<path transform="matrix(1.00002,0,0,-1,26.817505,68.444)" stroke-width="1.19553" stroke-linecap="butt" stroke-miterlimit="10" stroke-linejoin="miter" fill="none" stroke="#0033cc" d="M42.5202 0V20.30368"/>
<path transform="matrix(0,-1,-1.00002,-0,69.338558,48.14032)" stroke-width=".9564" stroke-linecap="round" stroke-linejoin="round" fill="none" stroke="#0033cc" d="M-1.91284 2.55046C-1.75343 1.59402 0 .15938 .4782 0 0-.15938-1.75343-1.59402-1.91284-2.55046"/>
<path transform="matrix(1.00002,0,0,-1,26.817505,68.444)" d="M38.09674 5.56897H46.94365V15.691101H38.09674Z" fill="#ffffff"/>
<use data-text="1" xlink:href="#font_1_5" transform="matrix(9.165783,0,0,-9.1656,66.9073,60.882)" fill="#0033cc"/>
<path transform="matrix(1.00002,0,0,-1,26.817505,68.444)" stroke-width="1.19553" stroke-linecap="butt" stroke-miterlimit="10" stroke-linejoin="miter" fill="none" stroke="#009966" d="M42.5202 21.2601H81.95786"/>
<path transform="matrix(1.00002,0,0,-1,108.77701,47.1839)" stroke-width=".9564" stroke-linecap="round" stroke-linejoin="round" fill="none" stroke="#009966" d="M-1.91284 2.55046C-1.75343 1.59402 0 .15938 .4782 0 0-.15938-1.75343-1.59402-1.91284-2.55046"/>
<path transform="matrix(1.00002,0,0,-1,26.817505,68.444)" d="M59.29005 17.1953H66.1444V25.324879H59.29005Z" fill="#ffffff"/>
<use data-text="2" xlink:href="#font_1_6" transform="matrix(9.165783,0,0,-9.1656,87.10471,50.252)" fill="#009966"/>
<path transform="matrix(1.00002,0,0,-1,26.817505,68.444)" d="M44.76183 0C44.76183 1.238 43.75822 2.24162 42.5202 2.24162 41.28218 2.24162 40.27858 1.238 40.27858 0 40.27858-1.238 41.28218-2.24162 42.5202-2.24162 43.75822-2.24162 44.76183-1.238 44.76183 0ZM42.5202 0" fill="#ffffff"/>
<path transform="matrix(1.00002,0,0,-1,26.817505,68.444)" stroke-width="1.19553" stroke-linecap="butt" stroke-miterlimit="10" stroke-linejoin="miter" fill="none" stroke="#000000" d="M44.76183 0C44.76183 1.238 43.75822 2.24162 42.5202 2.24162 41.28218 2.24162 40.27858 1.238 40.27858 0 40.27858-1.238 41.28218-2.24162 42.5202-2.24162 43.75822-2.24162 44.76183-1.238 44.76183 0ZM42.5202 0"/>
<path transform="matrix(1.00002,0,0,-1,26.817505,68.444)" stroke-width="1.19553" stroke-linecap="butt" stroke-miterlimit="10" stroke-linejoin="miter" fill="none" stroke="#0033cc" d="M85.04042 21.2601V41.56378"/>
<path transform="matrix(0,-1,-1.00002,-0,111.85963,26.880219)" stroke-width=".9564" stroke-linecap="round" stroke-linejoin="round" fill="none" stroke="#0033cc" d="M-1.91284 2.55046C-1.75343 1.59402 0 .15938 .4782 0 0-.15938-1.75343-1.59402-1.91284-2.55046"/>
<path transform="matrix(1.00002,0,0,-1,26.817505,68.444)" d="M80.61696 26.82907H89.46387V36.9512H80.61696Z" fill="#ffffff"/>
<use data-text="1" xlink:href="#font_1_5" transform="matrix(9.165783,0,0,-9.1656,109.42916,39.622)" fill="#0033cc"/>
<path transform="matrix(1.00002,0,0,-1,26.817505,68.444)" stroke-width="1.19553" stroke-linecap="butt" stroke-miterlimit="10" stroke-linejoin="miter" fill="none" stroke="#009966" d="M85.04042 42.5202H124.47806"/>
<path transform="matrix(1.00002,0,0,-1,151.29807,25.923802)" stroke-width=".9564" stroke-linecap="round" stroke-linejoin="round" fill="none" stroke="#009966" d="M-1.91284 2.55046C-1.75343 1.59402 0 .15938 .4782 0 0-.15938-1.75343-1.59402-1.91284-2.55046"/>
<path transform="matrix(1.00002,0,0,-1,26.817505,68.444)" d="M101.81027 38.4554H108.66462V46.584978H101.81027Z" fill="#ffffff"/>
<use data-text="2" xlink:href="#font_1_6" transform="matrix(9.165783,0,0,-9.1656,129.62656,28.992)" fill="#009966"/>
<path transform="matrix(1.00002,0,0,-1,26.817505,68.444)" d="M87.28204 21.2601C87.28204 22.49811 86.27844 23.50172 85.04042 23.50172 83.8024 23.50172 82.7988 22.49811 82.7988 21.2601 82.7988 20.02208 83.8024 19.01848 85.04042 19.01848 86.27844 19.01848 87.28204 20.02208 87.28204 21.2601ZM85.04042 21.2601" fill="#ffffff"/>
<path transform="matrix(1.00002,0,0,-1,26.817505,68.444)" stroke-width="1.19553" stroke-linecap="butt" stroke-miterlimit="10" stroke-linejoin="miter" fill="none" stroke="#000000" d="M87.28204 21.2601C87.28204 22.49811 86.27844 23.50172 85.04042 23.50172 83.8024 23.50172 82.7988 22.49811 82.7988 21.2601 82.7988 20.02208 83.8024 19.01848 85.04042 19.01848 86.27844 19.01848 87.28204 20.02208 87.28204 21.2601ZM85.04042 21.2601"/>
<path transform="matrix(1.00002,0,0,-1,26.817505,68.444)" stroke-width="1.19553" stroke-linecap="butt" stroke-miterlimit="10" stroke-linejoin="miter" fill="none" stroke="#0033cc" d="M127.56062 42.5202V62.82388"/>
<path transform="matrix(0,-1,-1.00002,-0,154.38068,5.620121)" stroke-width=".9564" stroke-linecap="round" stroke-linejoin="round" fill="none" stroke="#0033cc" d="M-1.91284 2.55046C-1.75343 1.59402 0 .15938 .4782 0 0-.15938-1.75343-1.59402-1.91284-2.55046"/>
<path transform="matrix(1.00002,0,0,-1,26.817505,68.444)" d="M123.13718 48.08917H131.98409V58.2113H123.13718Z" fill="#ffffff"/>
<use data-text="1" xlink:href="#font_1_5" transform="matrix(9.165783,0,0,-9.1656,151.95001,18.362)" fill="#0033cc"/>
<path transform="matrix(1.00002,0,0,-1,26.817505,68.444)" stroke-width="1.19553" stroke-linecap="butt" stroke-miterlimit="10" stroke-linejoin="miter" fill="none" stroke="#009966" d="M127.56062 63.7803H166.99829"/>
<path transform="matrix(1.00002,0,0,-1,193.81914,4.6637)" stroke-width=".9564" stroke-linecap="round" stroke-linejoin="round" fill="none" stroke="#009966" d="M-1.91284 2.55046C-1.75343 1.59402 0 .15938 .4782 0 0-.15938-1.75343-1.59402-1.91284-2.55046"/>
<path transform="matrix(1.00002,0,0,-1,26.817505,68.444)" d="M144.33048 59.7155H151.18483V67.84508H144.33048Z" fill="#ffffff"/>
<use data-text="2" xlink:href="#font_1_6" transform="matrix(9.165783,0,0,-9.1656,172.14742,7.7319986)" fill="#009966"/>
<path transform="matrix(1.00002,0,0,-1,26.817505,68.444)" d="M129.80225 42.5202C129.80225 43.75822 128.79865 44.76183 127.56062 44.76183 126.32262 44.76183 125.319 43.75822 125.319 42.5202 125.319 41.28218 126.32262 40.27858 127.56062 40.27858 128.79865 40.27858 129.80225 41.28218 129.80225 42.5202ZM127.56062 42.5202" fill="#ffffff"/>
<path transform="matrix(1.00002,0,0,-1,26.817505,68.444)" stroke-width="1.19553" stroke-linecap="butt" stroke-miterlimit="10" stroke-linejoin="miter" fill="none" stroke="#000000" d="M129.80225 42.5202C129.80225 43.75822 128.79865 44.76183 127.56062 44.76183 126.32262 44.76183 125.319 43.75822 125.319 42.5202 125.319 41.28218 126.32262 40.27858 127.56062 40.27858 128.79865 40.27858 129.80225 41.28218 129.80225 42.5202ZM127.56062 42.5202"/>
<path transform="matrix(1.00002,0,0,-1,26.817505,68.444)" d="M172.32248 63.7803C172.32248 65.01833 171.31887 66.02193 170.08086 66.02193 168.84284 66.02193 167.83924 65.01833 167.83924 63.7803 167.83924 62.54228 168.84284 61.53868 170.08086 61.53868 171.31887 61.53868 172.32248 62.54228 172.32248 63.7803ZM170.08086 63.7803" fill="#ffffff"/>
<path transform="matrix(1.00002,0,0,-1,26.817505,68.444)" stroke-width="1.19553" stroke-linecap="butt" stroke-miterlimit="10" stroke-linejoin="miter" fill="none" stroke="#000000" d="M172.32248 63.7803C172.32248 65.01833 171.31887 66.02193 170.08086 66.02193 168.84284 66.02193 167.83924 65.01833 167.83924 63.7803 167.83924 62.54228 168.84284 61.53868 170.08086 61.53868 171.31887 61.53868 172.32248 62.54228 172.32248 63.7803ZM170.08086 63.7803"/>
</svg>
