<svg xmlns="http://www.w3.org/2000/svg" xmlns:xlink="http://www.w3.org/1999/xlink" version="1.1" width="144" height="61" viewBox="0 0 144 61">
<defs>
<path id="font_1_2" d="M.42799378 .45222474 .43899537 .49023438H.31199647L.34599305 .6092224 .33399964 .6162262 .23699951 .53923037 .22399903 .49023438H.14299011L.13198853 .45222474H.21499634L.125 .08627319C.10998535 .029266358 .12199402-.01171875 .17199707-.01171875 .2519989-.01171875 .31599427 .054275514 .35598756 .1292572L.33399964 .1462555C.31098939 .10726929 .2599945 .040267946 .22898865 .040267946 .20799256 .040267946 .20799256 .0632782 .21398926 .088272098L.30299378 .45222474H.42799378Z"/>
<path id="font_2_3" d="M.07398987 .2861328V.21612549H.31900025V.2861328H.07398987Z"/>
<path id="font_2_7" d="M.12998963 .3657837C.12998963 .3487854 .1349945 .33779908 .147995 .33779908 .1599884 .33779908 .18699646 .34777833 .23498535 .34777833 .31999208 .34777833 .36799623 .27090455 .36799623 .18403626 .36799623 .065216068 .30899049 .023269654 .23799134 .023269654 .17199707 .023269654 .1289978 .07319641 .10998535 .12911988 .10398865 .14808655 .09399414 .15707398 .07998657 .15707398 .06199646 .15707398 .026992798 .13809204 .026992798 .10215759 .026992798 .05921936 .09599304-.01171875 .23699951-.01171875 .38198854-.01171875 .47299195 .06121826 .47299195 .18902588 .47299195 .32281495 .35798646 .3627777 .30299378 .3677826V.3717804C.35699464 .38078309 .44400025 .4207611 .44400025 .5197296 .44400025 .6306915 .35699464 .6796875 .25 .6796875 .117996219 .6796875 .052993776 .60369876 .052993776 .5607147 .052993776 .5297241 .08799744 .51272585 .101989749 .51272585 .114990238 .51272585 .12298584 .5197296 .1269989 .5327301 .14898682 .60069277 .18699646 .64468386 .24299622 .64468386 .32199098 .64468386 .34098817 .57470706 .34098817 .51872256 .34098817 .4587555 .31999208 .38378907 .23498535 .38378907 .18699646 .38378907 .1599884 .39378358 .147995 .39378358 .1349945 .39378358 .12998963 .38378907 .12998963 .3657837Z"/>
<path id="font_2_6" d="M.4850006 .13195801 .45700074 .13696289C.43598939 .08299255 .41600038 .07598877 .37599183 .07598877H.11999512C.13598633 .1279602 .19499207 .19892884 .28799439 .2658844 .38398744 .33584596 .45799256 .38082887 .45799256 .49276734 .45799256 .63168337 .3659973 .6796875 .26098634 .6796875 .12399292 .6796875 .052993776 .5967102 .052993776 .54473879 .052993776 .51075747 .09098816 .49476625 .10798645 .49476625 .12599182 .49476625 .1329956 .50476077 .13699341 .5217438 .15299988 .5897064 .19198609 .64468386 .2539978 .64468386 .33099366 .64468386 .35299684 .5797119 .35299684 .50675967 .35299684 .3998108 .29899598 .33984376 .21199036 .26289369 .08898926 .15594483 .04598999 .08798218 .026992798 .009994507L.036987306 0H.45098878L.4850006 .13195801Z"/>
<path id="font_2_5" d="M.43699647 0V.0289917L.35299684 .035995485C.33198548 .037994386 .31999208 .04598999 .31999208 .08496094V.67367556L.31498719 .6796875 .10899353 .6446991V.6197052L.20199585 .6087036C.21899414 .6067047 .22599793 .5987091 .22599793 .56973269V.08496094C.22599793 .065979007 .22299195 .053985597 .21699524 .04698181 .21199036 .039993287 .20399475 .036987306 .19299317 .035995485L.10899353 .0289917V0H.43699647Z"/>
<path id="font_2_4" d="M.2649994 .64468386C.3600006 .64468386 .3869934 .49682618 .3869934 .33398438 .3869934 .17112732 .3600006 .023269654 .2649994 .023269654 .16999817 .023269654 .14299011 .17112732 .14299011 .33398438 .14299011 .49682618 .16999817 .64468386 .2649994 .64468386M.2649994 .6796875C.099990848 .6796875 .040985109 .53378298 .040985109 .33398438 .040985109 .13417053 .099990848-.01171875 .2649994-.01171875 .42999269-.01171875 .4889984 .13417053 .4889984 .33398438 .4889984 .53378298 .42999269 .6796875 .2649994 .6796875Z"/>
<path id="font_3_3" d="M.6349945 .07472229 .17298889 .28173829 .6349945 .48875428V.5517578L.084991458 .31674195V.24673462L.6349945 .01171875V.07472229Z"/>
<path id="font_3_1" d="M.6349945 .2529297V.31092835H.084991458V.2529297H.6349945Z"/>
<path id="font_3_2" d="M.6349945-.0078125V.050186159H.084991458V-.0078125H.6349945M.084991458 .14318848 .6349945 .32221986V.39222718L.084991458 .5722656V.5092468L.5469971 .3572235 .084991458 .20620728V.14318848Z"/>
<path id="font_1_1" d="M.18699646 .6923828 .17999268 .66337588 .23899842 .658371C.2619934 .6563721 .2689972 .64237979 .26098634 .609375L.1769867 .25634767C.12998963 .05734253 .23799134-.0146484379 .4099884-.0146484379 .54599-.0146484379 .67099 .014343262 .7259979 .24736023L.8109894 .609375C.81900027 .6433716 .8279877 .6563721 .8529968 .658371L.9079895 .66337588 .9149933 .6923828H.6409912L.6339874 .66337588 .69299319 .658371C.71598818 .6563721 .72299197 .64237979 .71499636 .609375L.6339874 .26036073C.6029968 .12734986 .55400088 .020339966 .4149933 .020339966 .3039856 .020339966 .23399353 .081344608 .27799989 .26934815L.35699464 .609375C.36499024 .6433716 .37399293 .65737918 .39898683 .65937808L.45399476 .66337588 .46099855 .6923828H.18699646Z"/>
<path id="font_2_1" d="M.1749878 .2822113C.1749878 .56832888 .2619934 .65437319 .32499696 .66737368V.6923828C.1499939 .685379 .10499573 .46829225 .10499573 .2822113 .10499573 .09614563 .1499939-.12094116 .32499696-.12792969V-.10293579C.2669983-.090927127 .1749878-.0059051516 .1749878 .2822113Z"/>
<path id="font_2_2" d="M.1749878 .2822113C.1749878-.0059051516 .08299255-.090927127 .024993897-.10293579V-.12792969C.19999695-.12094116 .24499512 .09614563 .24499512 .2822113 .24499512 .46829225 .19999695 .685379 .024993897 .6923828V.66737368C.08799744 .65437319 .1749878 .56832888 .1749878 .2822113Z"/>
<path id="font_2_11" d="M.18998719 .7480469C.13999939 .7020416 .07199097 .6350403 .07199097 .56404116 .07199097 .5100403 .10398865 .47703553 .13699341 .4780426 .16699219 .4780426 .18499756 .4990387 .18499756 .5260315 .18499756 .56204226 .1519928 .58303835 .1519928 .6200409 .1519928 .6580353 .17599488 .6960449 .20698548 .7320404L.18998719 .7480469M.36999513 .7480469C.31999208 .7020416 .2519989 .6350403 .2519989 .56404116 .2519989 .5100403 .28399659 .47703553 .31698609 .4780426 .34700013 .4780426 .36499024 .4990387 .36499024 .5260315 .36499024 .56204226 .33198548 .58303835 .33198548 .6200409 .33198548 .6580353 .35598756 .6960449 .3869934 .7320404L.36999513 .7480469Z"/>
<path id="font_2_10" d="M.28799439 .5019531C.12799073 .5019531 .04899597 .40698243 .04899597 .24510193 .04899597 .083236698 .12799073-.01171875 .28799439-.01171875 .44999696-.01171875 .5279999 .083236698 .5279999 .24510193 .5279999 .40698243 .44999696 .5019531 .28799439 .5019531M.15299988 .24510193C.15299988 .38301087 .19699097 .46694947 .28799439 .46694947 .3809967 .46694947 .42399598 .38301087 .42399598 .24510193 .42399598 .10720825 .3809967 .023269654 .28799439 .023269654 .19699097 .023269654 .15299988 .10720825 .15299988 .24510193Z"/>
<path id="font_2_8" d="M.20098877 .45022584H.32299806V.49023438H.20098877L.19699097 .60220339C.19400025 .6971741 .22898865 .70718386 .24499512 .70718386 .2659912 .70718386 .28799439 .6971741 .31298829 .6391907 .31799317 .62919619 .32499696 .6221924 .33999635 .6221924 .3600006 .6221924 .3889923 .6391907 .3889923 .66918948 .3889923 .70217898 .34700013 .7421875 .2669983 .7421875 .21199036 .7421875 .16499329 .71717837 .13999939 .67918398 .116989139 .64419558 .10699463 .5912018 .10699463 .5252228V.49023438H.02999878V.45022584H.10699463V.087020877C.10699463 .035995485 .10398865 .033996583 .03199768 .0289917V0H.29599V.0289917C.20498657 .032989503 .20098877 .034988405 .20098877 .08602905V.45022584Z"/>
<path id="font_2_12" d="M.08898926 .47218324C.13899231 .5181732 .20698548 .58517459 .20698548 .6561737 .20698548 .71017459 .1749878 .7431793 .14199829 .7421875 .11199951 .7421875 .09399414 .72117617 .09399414 .69418337 .09399414 .6581726 .1269989 .6371765 .1269989 .60017397 .1269989 .56217959 .102996829 .5241852 .07199097 .48817445L.08898926 .47218324M.2689972 .47218324C.31900025 .5181732 .3869934 .58517459 .3869934 .6561737 .3869934 .71017459 .35499574 .7431793 .32199098 .7421875 .2919922 .7421875 .27398683 .72117617 .27398683 .69418337 .27398683 .6581726 .30699159 .6371765 .30699159 .60017397 .30699159 .56217959 .2829895 .5241852 .2519989 .48817445L.2689972 .47218324Z"/>
<path id="font_2_9" d="M.5289917 .34295655C.5289917 .4439392 .47399903 .5019531 .38198854 .5019531 .30799867 .5019531 .2619934 .46594239 .19999695 .4259491L.18598938 .5019531 .036987306 .47694398V.45195008L.07499695 .4469452C.100997928 .4429474 .10699463 .4379425 .10699463 .40194703V.08699036C.10699463 .035995485 .10398865 .033996583 .03199768 .0289917V0H.27598573V.0289917C.20498657 .033996583 .20098877 .035995485 .20098877 .08699036V.32095338C.20098877 .34596253 .20298767 .35995484 .21099854 .37594605 .23199463 .4149475 .2769928 .44795228 .32998658 .44795228 .397995 .44795228 .43499757 .40994264 .43499757 .32295228V.08699036C.43499757 .035995485 .43199159 .033996583 .3600006 .0289917V0H.60398867V.0289917C.5329895 .033996583 .5289917 .035995485 .5289917 .08699036V.34295655Z"/>
</defs>
<path transform="matrix(1.00009,0,0,-1.00003,70.946338,37.517736)" d="M-69.44937-21.82706V35.71686H-39.68535V-21.82706ZM-39.68535 35.71686" fill="#d9d9ff"/>
<path transform="matrix(1.00009,0,0,-1.00003,70.946338,37.517736)" d="M-39.68535-21.82706V35.71686H69.44937V-21.82706ZM69.44937 35.71686" fill="#d9ffd9"/>
<path transform="matrix(1.00009,0,0,-1.00003,70.946338,37.517736)" stroke-width=".3985" stroke-linecap="butt" stroke-miterlimit="10" stroke-linejoin="miter" fill="none" stroke="#000000" d="M-69.44937 0H68.99109"/>
<path transform="matrix(1.00009,0,0,-1.00003,139.94364,37.517736)" stroke-width=".31879" stroke-linecap="round" stroke-linejoin="round" fill="none" stroke="#000000" d="M-1.19551 1.59401C-1.09587 .99626 0 .09961 .29886 0 0-.09961-1.09587-.99626-1.19551-1.59401"/>
<use data-text="t" xlink:href="#font_1_2" transform="matrix(9.166425,0,0,-9.165875,138.44841,46.56601)"/>
<path transform="matrix(1.00009,0,0,-1.00003,70.946338,37.517736)" stroke-width=".3985" stroke-linecap="butt" stroke-miterlimit="10" stroke-linejoin="miter" fill="none" stroke="#000000" d="M0-21.82706V35.25858"/>
<path transform="matrix(0,-1.00003,-1.00009,-0,70.946338,2.2580949)" stroke-width=".31879" stroke-linecap="round" stroke-linejoin="round" fill="none" stroke="#000000" d="M-1.19551 1.59401C-1.09587 .99626 0 .09961 .29886 0 0-.09961-1.09587-.99626-1.19551-1.59401"/>
<path transform="matrix(1.00009,0,0,-1.00003,70.946338,37.517736)" stroke-width=".3985" stroke-linecap="butt" stroke-miterlimit="10" stroke-linejoin="miter" fill="none" stroke="#b5b5b5" d="M-59.52802 1.98438V-1.98438"/>
<use data-text="-" xlink:href="#font_2_3" transform="matrix(9.166425,0,0,-9.165875,7.1835939,48.641069)"/>
<use data-text="3" xlink:href="#font_2_7" transform="matrix(9.166425,0,0,-9.165875,10.776825,48.641069)"/>
<path transform="matrix(1.00009,0,0,-1.00003,70.946338,37.517736)" stroke-width=".3985" stroke-linecap="butt" stroke-miterlimit="10" stroke-linejoin="miter" fill="none" stroke="#b5b5b5" d="M-39.68535 1.98438V-1.98438"/>
<use data-text="-" xlink:href="#font_2_3" transform="matrix(9.166425,0,0,-9.165875,27.027382,48.641069)"/>
<use data-text="2" xlink:href="#font_2_6" transform="matrix(9.166425,0,0,-9.165875,30.620614,48.641069)"/>
<path transform="matrix(1.00009,0,0,-1.00003,70.946338,37.517736)" stroke-width=".3985" stroke-linecap="butt" stroke-miterlimit="10" stroke-linejoin="miter" fill="none" stroke="#b5b5b5" d="M-19.84267 1.98438V-1.98438"/>
<use data-text="-" xlink:href="#font_2_3" transform="matrix(9.166425,0,0,-9.165875,46.87217,48.641069)"/>
<use data-text="1" xlink:href="#font_2_5" transform="matrix(9.166425,0,0,-9.165875,50.4654,48.641069)"/>
<path transform="matrix(1.00009,0,0,-1.00003,70.946338,37.517736)" stroke-width=".3985" stroke-linecap="butt" stroke-miterlimit="10" stroke-linejoin="miter" fill="none" stroke="#b5b5b5" d="M0 1.98438V-1.98438"/>
<use data-text="0" xlink:href="#font_2_4" transform="matrix(9.166425,0,0,-9.165875,68.515117,48.641069)"/>
<path transform="matrix(1.00009,0,0,-1.00003,70.946338,37.517736)" stroke-width=".3985" stroke-linecap="butt" stroke-miterlimit="10" stroke-linejoin="miter" fill="none" stroke="#b5b5b5" d="M19.84267 1.98438V-1.98438"/>
<use data-text="1" xlink:href="#font_2_5" transform="matrix(9.166425,0,0,-9.165875,88.3599,48.641069)"/>
<path transform="matrix(1.00009,0,0,-1.00003,70.946338,37.517736)" stroke-width=".3985" stroke-linecap="butt" stroke-miterlimit="10" stroke-linejoin="miter" fill="none" stroke="#b5b5b5" d="M39.68535 1.98438V-1.98438"/>
<use data-text="2" xlink:href="#font_2_6" transform="matrix(9.166425,0,0,-9.165875,108.20369,48.641069)"/>
<path transform="matrix(1.00009,0,0,-1.00003,70.946338,37.517736)" stroke-width=".3985" stroke-linecap="butt" stroke-miterlimit="10" stroke-linejoin="miter" fill="none" stroke="#b5b5b5" d="M59.52802 1.98438V-1.98438"/>
<use data-text="3" xlink:href="#font_2_7" transform="matrix(9.166425,0,0,-9.165875,128.04848,48.641069)"/>
<path transform="matrix(1.00009,0,0,-1.00003,70.946338,37.517736)" stroke-width=".3985" stroke-linecap="butt" stroke-miterlimit="10" stroke-linejoin="miter" fill="none" stroke="#b5b5b5" d="M1.98438 19.84267H-1.98438"/>
<use data-text="1" xlink:href="#font_2_5" transform="matrix(9.166425,0,0,-9.165875,61.692506,20.74323)"/>
<path transform="matrix(1.00009,0,0,-1.00003,70.946338,37.517736)" stroke-width="1.19553" stroke-linecap="butt" stroke-miterlimit="10" stroke-linejoin="miter" fill="none" stroke="#0000ff" d="M-69.44937 0H-69.30493-69.1605-69.0161-68.87166-68.72723-68.58282-68.43839-68.29396-68.14955-68.00511-67.8607-67.71626-67.57185-67.42743-67.283-67.13858-66.99416-66.84973-66.70532-66.56088-66.41646-66.27205-66.12761-65.98318-65.83878-65.69434-65.54993-65.40549-65.26106-65.11665-64.97221-64.82779-64.68338-64.53894-64.39453-64.2501-64.10568-63.96127-63.81683-63.67241-63.52798-63.38356-63.23914-63.09471-62.95029-62.80588-62.66144-62.51701-62.3726-62.22816-62.08374-61.93933-61.79489-61.65048-61.50604-61.36162-61.21721-61.07277-60.92834-60.78394-60.63951-60.4951-60.35066-60.20624-60.06183-59.91739-59.77296-59.62854-59.48412-59.3397-59.19527-59.05084-58.90643-58.762-58.61757-58.47316-58.32872-58.1843-58.03989-57.89545-57.75104-57.6066-57.46217-57.31776-57.17334-57.02892-56.88449-56.74007-56.59566-56.45122-56.3068-56.16238-56.01794-55.87352-55.72911-55.58467-55.44026-55.29582-55.1514-55.00699-54.86255-54.71812-54.57372-54.42928-54.28485-54.14044-53.996-53.8516-53.70717-53.56274-53.41832-53.2739-53.12947-52.98505-52.84062-52.69621-52.55177-52.40735-52.26294-52.1185-51.97408-51.82967-51.68523-51.54082-51.39638-51.25195-51.10754-50.9631-50.81868-50.67427-50.52983-50.38542-50.241-50.09657-49.95216-49.80772-49.6633-49.51888-49.37445-49.23003-49.0856-48.94118-48.79677-48.65233-48.5079-48.3635-48.21906-48.07463-47.93022-47.78578-47.64137-47.49693-47.35251-47.2081-47.06366-46.91924-46.77483-46.6304-46.486-46.34155-46.19713-46.05272-45.90828-45.76385-45.61945-45.475-45.3306-45.18616-45.04173-44.89732-44.75288-44.60846-44.46405-44.31961-44.17519-44.03078-43.88634-43.74193-43.59749-43.45306-43.30865-43.16423-43.0198-42.87538-42.73096-42.58655-42.44211-42.29768-42.15327-42.00883-41.86441-41.72-41.57556-41.43115-41.28671-41.14229-40.99788-40.85344-40.70901"/>
<path transform="matrix(1.00009,0,0,-1.00003,70.946338,37.517736)" stroke-width="1.19553" stroke-linecap="butt" stroke-miterlimit="10" stroke-linejoin="miter" fill="none" stroke="#009900" d="M-39.68535 19.84267H-39.13701-38.5887-38.04036-37.49203-36.94373-36.39539-35.84706-35.29872-34.75041-34.20207-33.65375-33.10542-32.55711-32.00877-31.46045-30.91212-30.3638-29.81546-29.26715-28.71883-28.17049-27.62218-27.07384-26.52551-25.97719-25.42888-24.88054-24.33221-23.78389-23.23557-22.68723-22.1389-21.59059-21.04225-20.49393-19.9456-19.39728-18.84895-18.30063-17.7523-17.20398-16.65564-16.10733-15.55899-15.01067-14.46234-13.91402-13.36569-12.81735-12.26904-11.72072-11.17238-10.62407-10.07574-9.5274-8.97908-8.43076-7.88243-7.33409-6.78578-6.23746-5.68913-5.1408-4.59248-4.04414-3.49582-2.94751-2.39917-1.85085-1.3025-.7542-.20586 .34242 .89073 1.43907 1.9874 2.5357 3.08405 3.63237 4.18071 4.72902 5.27736 5.82568 6.37401 6.92233 7.47066 8.01898 8.5673 9.11563 9.66397 10.21228 10.7606 11.30894 11.85727 12.4056 12.95392 13.50226 14.05057 14.59889 15.14722 15.69554 16.24387 16.7922 17.34053 17.88884 18.43718 18.9855 19.53383 20.08215 20.6305 21.1788 21.72713 22.27545 22.82379 23.3721 23.92044 24.46877 25.0171 25.56541 26.11374 26.66208 27.21039 27.75871 28.30704 28.85536 29.40369 29.95203 30.50035 31.04868 31.597 32.14534 32.69365 33.24197 33.79031 34.33864 34.88695 35.43529 35.98361 36.53192 37.08026 37.62859 38.17693 38.72523 39.27357 39.8219 40.37022 40.91855 41.46687 42.01518 42.56352 43.11185 43.66017 44.2085 44.75682 45.30516 45.85347 46.40181 46.95013 47.49847 48.04677 48.59511 49.14343 49.69176 50.24008 50.78842 51.33675 51.88506 52.4334 52.98172 53.53004 54.07837 54.6267 55.175 55.72334 56.27167 56.82 57.36832 57.91666 58.46498 59.01329 59.56163 60.10995 60.6583 61.2066 61.75493 62.30325 62.85158 63.3999 63.94824 64.49657 65.04489 65.59322 66.14156 66.68987 67.23819 67.78653 68.33484 68.88316 69.43149"/>
<path transform="matrix(1.00009,0,0,-1.00003,70.946338,37.517736)" stroke-width=".79701" stroke-linecap="butt" stroke-miterlimit="10" stroke-linejoin="miter" fill="none" stroke="#0000ff" d="M-38.29057 0C-38.29057 .77031-38.91504 1.39478-39.68535 1.39478-40.45566 1.39478-41.08012 .77031-41.08012 0-41.08012-.77031-40.45566-1.39478-39.68535-1.39478-38.91504-1.39478-38.29057-.77031-38.29057 0ZM-39.68535 0"/>
<path transform="matrix(1.00009,0,0,-1.00003,70.946338,37.517736)" d="M-38.29057 19.84267C-38.29057 20.61298-38.91504 21.23744-39.68535 21.23744-40.45566 21.23744-41.08012 20.61298-41.08012 19.84267-41.08012 19.07234-40.45566 18.44788-39.68535 18.44788-38.91504 18.44788-38.29057 19.07234-38.29057 19.84267ZM-39.68535 19.84267" fill="#009900"/>
<use data-text="t" xlink:href="#font_1_2" transform="matrix(7.33316,0,0,-7.3327205,6.2255098,55.882287)" fill="#0000ff"/>
<use data-text="&#x003c;" xlink:href="#font_3_3" transform="matrix(7.33316,0,0,-7.3327205,10.872925,55.882287)" fill="#0000ff"/>
<use data-text="&#x2212;" xlink:href="#font_3_1" transform="matrix(7.33316,0,0,-7.3327205,17.50943,55.882287)" fill="#0000ff"/>
<use data-text="2" xlink:href="#font_2_6" transform="matrix(7.33316,0,0,-7.3327205,22.789994,55.882287)" fill="#0000ff"/>
<use data-text="t" xlink:href="#font_1_2" transform="matrix(7.33316,0,0,-7.3327205,75.68176,55.882287)" fill="#009900"/>
<use data-text="&#x2265;" xlink:href="#font_3_2" transform="matrix(7.33316,0,0,-7.3327205,80.32918,55.882287)" fill="#009900"/>
<use data-text="&#x2212;" xlink:href="#font_3_1" transform="matrix(7.33316,0,0,-7.3327205,86.96568,55.882287)" fill="#009900"/>
<use data-text="2" xlink:href="#font_2_6" transform="matrix(7.33316,0,0,-7.3327205,92.24625,55.882287)" fill="#009900"/>
<use data-text="U" xlink:href="#font_1_1" transform="matrix(9.166425,0,0,-9.165875,96.87666,11.6849579)" fill="#009900"/>
<use data-text="(" xlink:href="#font_2_1" transform="matrix(9.166425,0,0,-9.165875,105.236408,11.6849579)" fill="#009900"/>
<use data-text="t" xlink:href="#font_1_2" transform="matrix(9.166425,0,0,-9.165875,108.64371,11.6849579)" fill="#009900"/>
<use data-text=")" xlink:href="#font_2_2" transform="matrix(9.166425,0,0,-9.165875,112.74907,11.6849579)" fill="#009900"/>
<use data-text="&#x201c;" xlink:href="#font_2_11" transform="matrix(7.33316,0,0,-7.3327205,8.622726,30.310519)" fill="#0000ff"/>
<use data-text="o" xlink:href="#font_2_10" transform="matrix(7.33316,0,0,-7.3327205,11.394669,30.310519)" fill="#0000ff"/>
<use data-text="f" xlink:href="#font_2_8" transform="matrix(7.33316,0,0,-7.3327205,15.6259,30.310519)" fill="#0000ff"/>
<use data-text="f" xlink:href="#font_2_8" transform="matrix(7.33316,0,0,-7.3327205,17.96518,30.310519)" fill="#0000ff"/>
<use data-text="&#x201d;" xlink:href="#font_2_12" transform="matrix(7.33316,0,0,-7.3327205,20.766434,30.310519)" fill="#0000ff"/>
<use data-text="&#x201c;" xlink:href="#font_2_11" transform="matrix(7.33316,0,0,-7.3327205,78.68003,30.310519)" fill="#009900"/>
<use data-text="o" xlink:href="#font_2_10" transform="matrix(7.33316,0,0,-7.3327205,81.45197,30.310519)" fill="#009900"/>
<use data-text="n" xlink:href="#font_2_9" transform="matrix(7.33316,0,0,-7.3327205,85.683208,30.310519)" fill="#009900"/>
<use data-text="&#x201d;" xlink:href="#font_2_12" transform="matrix(7.33316,0,0,-7.3327205,89.62844,30.310519)" fill="#009900"/>
</svg>
