<svg xmlns="http://www.w3.org/2000/svg" xmlns:xlink="http://www.w3.org/1999/xlink" version="1.1" width="156" height="67" viewBox="0 0 156 67">
<defs>
<path id="font_1_1" d="M.6349945 .2529297V.31092835H.084991458V.2529297H.6349945Z"/>
<path id="font_2_1" d="M.43699647 0V.0289917L.35299684 .035995485C.33198548 .037994386 .31999208 .04598999 .31999208 .08496094V.67367556L.31498719 .6796875 .10899353 .6446991V.6197052L.20199585 .6087036C.21899414 .6067047 .22599793 .5987091 .22599793 .56973269V.08496094C.22599793 .065979007 .22299195 .053985597 .21699524 .04698181 .21199036 .039993287 .20399475 .036987306 .19299317 .035995485L.10899353 .0289917V0H.43699647Z"/>
<path id="font_2_2" d="M.4850006 .13195801 .45700074 .13696289C.43598939 .08299255 .41600038 .07598877 .37599183 .07598877H.11999512C.13598633 .1279602 .19499207 .19892884 .28799439 .2658844 .38398744 .33584596 .45799256 .38082887 .45799256 .49276734 .45799256 .63168337 .3659973 .6796875 .26098634 .6796875 .12399292 .6796875 .052993776 .5967102 .052993776 .54473879 .052993776 .51075747 .09098816 .49476625 .10798645 .49476625 .12599182 .49476625 .1329956 .50476077 .13699341 .5217438 .15299988 .5897064 .19198609 .64468386 .2539978 .64468386 .33099366 .64468386 .35299684 .5797119 .35299684 .50675967 .35299684 .3998108 .29899598 .33984376 .21199036 .26289369 .08898926 .15594483 .04598999 .08798218 .026992798 .009994507L.036987306 0H.45098878L.4850006 .13195801Z"/>
<path id="font_2_3" d="M.2999878 .17871094V.0769043C.2999878 .04296875 .2889862 .036987306 .2649994 .034988405L.20098877 .0289917V0H.46499635V.0289917L.41999818 .033981325C.39698792 .036987306 .3899994 .04296875 .3899994 .0769043V.17871094H.49299623V.22570801H.3899994V.66796877H.31698609C.22299195 .5298767 .11099243 .35577394 .018997193 .19970703L.027999878 .17871094H.2999878M.09098816 .22570801C.15098572 .33476258 .22099304 .4498291 .2979889 .5709076H.2999878V.22570801H.09098816Z"/>
<clipPath id="clip_3">
<path transform="matrix(1,0,0,-1.00005,2.0930024,63.23436)" d="M0 0H152.14139V61.43271H0Z"/>
</clipPath>
<path id="font_4_1" d="M.42799378 .45222474 .43899537 .49023438H.31199647L.34599305 .6092224 .33399964 .6162262 .23699951 .53923037 .22399903 .49023438H.14299011L.13198853 .45222474H.21499634L.125 .08627319C.10998535 .029266358 .12199402-.01171875 .17199707-.01171875 .2519989-.01171875 .31599427 .054275514 .35598756 .1292572L.33399964 .1462555C.31098939 .10726929 .2599945 .040267946 .22898865 .040267946 .20799256 .040267946 .20799256 .0632782 .21398926 .088272098L.30299378 .45222474H.42799378Z"/>
<path id="font_4_2" d="M.070999149 .45393373 .07398987 .42893983 .14199829 .43093873C.1639862 .43193055 .16899109 .41493226 .1769867 .36291505 .18798828 .28489686 .20999146 .09286499 .20999146 .0128479 .20999146-.017166138 .20799256-.058166505 .18598938-.11117554 .16799927-.15318299 .14199829-.18218994 .12199402-.18218994 .10699463-.18218994 .09599304-.17118836 .08099365-.15118408 .068984989-.13517761 .06098938-.127182 .04598999-.127182 .019989014-.12818909-.005004883-.15818787-.005004883-.18719483-.005004883-.21418762 .023986817-.2421875 .067993167-.2421875 .15299988-.2421875 .18998719-.17919922 .27799989-.027160645 .2979889 .0068511965 .35798646 .11286926 .41999818 .21488953 .47698976 .30891419 .5399933 .40592958 .5399933 .4459381 .5399933 .48094178 .5289917 .5019531 .5219879 .5019531 .5029907 .5019531 .46899415 .49394227 .44400025 .47694398 .44499208 .4419403 .44299317 .3809204 .43099977 .33891297 .4149933 .28289796 .35598756 .17488098 .2899933 .06085205H.2869873C.27999879 .21388245 .26098634 .42492677 .24699402 .49795533L.23899842 .5019531 .070999149 .45393373Z"/>
</defs>
<path transform="matrix(1,0,0,-1.00005,2.0930024,63.23436)" stroke-width=".19925" stroke-linecap="butt" stroke-miterlimit="10" stroke-linejoin="miter" fill="none" stroke="#929292" d="M0 9.11389V11.94873M38.03534 9.11389V11.94873M76.0707 9.11389V11.94873M114.10605 9.11389V11.94873"/>
<path transform="matrix(1,0,0,-1.00005,2.0930024,63.23436)" stroke-width=".19925" stroke-linecap="butt" stroke-miterlimit="10" stroke-linejoin="miter" fill="none" stroke="#929292" d="M19.01767 8.4054V12.65723M95.08836 8.4054V12.65723M133.12372 8.4054V12.65723"/>
<path transform="matrix(1,0,0,-1.00005,2.0930024,63.23436)" stroke-width=".19925" stroke-linecap="butt" stroke-miterlimit="10" stroke-linejoin="miter" fill="none" stroke="#929292" d="M55.63554 1.75522H58.47049M55.63554 19.30742H58.47049M55.63554 36.85962H58.47049M55.63554 54.41182H58.47049"/>
<path transform="matrix(1,0,0,-1.00005,2.0930024,63.23436)" stroke-width=".19925" stroke-linecap="butt" stroke-miterlimit="10" stroke-linejoin="miter" fill="none" stroke="#929292" d="M54.927 28.08353H59.17902M54.927 45.63573H59.17902"/>
<path transform="matrix(1,0,0,-1.00005,2.0930024,63.23436)" stroke-width=".3985" stroke-linecap="butt" stroke-miterlimit="10" stroke-linejoin="miter" fill="none" stroke="#000000" d="M0 10.53131H150.14887"/>
<path transform="matrix(1,0,0,-1.00005,152.24187,52.702524)" d="M1.99252 0-1.19551 1.59401 0 0-1.19551-1.59401"/>
<path transform="matrix(1,0,0,-1.00005,2.0930024,63.23436)" stroke-width=".3985" stroke-linecap="butt" stroke-miterlimit="10" stroke-linejoin="miter" fill="none" stroke="#000000" d="M57.05302 0V59.44019"/>
<path transform="matrix(0,-1.00005,-1,-0,59.146024,3.7912026)" d="M1.99252 0-1.19551 1.59401 0 0-1.19551-1.59401"/>
<use data-text="&#x2212;" xlink:href="#font_1_1" transform="matrix(10.9988,0,0,-10.99935,14.236,65.592479)"/>
<use data-text="1" xlink:href="#font_2_1" transform="matrix(10.9988,0,0,-10.99935,22.150002,65.592479)"/>
<use data-text="1" xlink:href="#font_2_1" transform="matrix(10.9988,0,0,-10.99935,94.264,65.592479)"/>
<use data-text="2" xlink:href="#font_2_2" transform="matrix(10.9988,0,0,-10.99935,132.3,65.592479)"/>
<use data-text="2" xlink:href="#font_2_2" transform="matrix(10.9988,0,0,-10.99935,47.787004,38.83214)"/>
<use data-text="4" xlink:href="#font_2_3" transform="matrix(10.9988,0,0,-10.99935,47.787004,21.279267)"/>
<g clip-path="url(#clip_3)">
<path transform="matrix(1,0,0,-1.00005,2.0930024,63.23436)" stroke-width=".79701" stroke-linecap="butt" stroke-dasharray="2.98883,2.98883" stroke-miterlimit="10" stroke-linejoin="miter" fill="none" stroke="#0000ff" d="M57.05302 19.30742 58.41138 19.62625 59.76971 19.95702 61.12808 20.29973 62.48643 20.65454 63.84479 21.02287 65.20314 21.40419 66.56151 21.79956 67.91986 22.20905 69.27821 22.63354 70.63658 23.07367 71.99493 23.5296 73.35327 24.00209 74.71164 24.49197 76.06999 24.99933 77.42834 25.52554 78.78671 26.07054 80.14507 26.63545 81.50342 27.22108 82.86179 27.82787 84.22014 28.45622 85.57849 29.10846 86.93686 29.78406 88.29521 30.48361 89.65356 31.20921 91.01193 31.96053 92.37027 32.74011 93.72862 33.54724 95.08699 34.38371 96.44534 35.25148 97.8037 36.15024 99.16206 37.0812 100.52042 38.04657 101.87877 39.04723 103.23714 40.08395 104.59547 41.15805 105.95384 42.27158 107.3122 43.42616 108.67056 44.62146 110.0289 45.86066 111.38725 47.14574 112.74562 48.47672 114.10397 49.85667 115.46233 51.28647 116.8207 52.76753 118.17905 54.30334 119.5374 55.89462 120.89577 57.54321 122.25412 59.25307 123.61246 61.0247"/>
</g>
<path transform="matrix(1,0,0,-1.00005,2.0930024,63.23436)" stroke-width=".3985" stroke-linecap="butt" stroke-miterlimit="10" stroke-linejoin="miter" fill="none" stroke="#000000" d="M59.04558 19.30742C59.04558 20.40788 58.15349 21.29997 57.05302 21.29997 55.95255 21.29997 55.06047 20.40788 55.06047 19.30742 55.06047 18.20694 55.95255 17.31487 57.05302 17.31487 58.15349 17.31487 59.04558 18.20694 59.04558 19.30742ZM57.05302 19.30742"/>
<path transform="matrix(1,0,0,-1.00005,2.0930024,63.23436)" stroke-width=".3985" stroke-linecap="butt" stroke-miterlimit="10" stroke-linejoin="miter" fill="none" stroke="#000000" d="M68.55441 21.50145C68.55441 22.60191 67.66232 23.494 66.56186 23.494 65.46138 23.494 64.5693 22.60191 64.5693 21.50145 64.5693 20.40097 65.46138 19.5089 66.56186 19.5089 67.66232 19.5089 68.55441 20.40097 68.55441 21.50145ZM66.56186 21.50145"/>
<path transform="matrix(1,0,0,-1.00005,2.0930024,63.23436)" stroke-width=".3985" stroke-linecap="butt" stroke-miterlimit="10" stroke-linejoin="miter" fill="none" stroke="#000000" d="M78.06325 24.24397C78.06325 25.34444 77.17116 26.23653 76.0707 26.23653 74.97021 26.23653 74.07814 25.34444 74.07814 24.24397 74.07814 23.1435 74.97021 22.25142 76.0707 22.25142 77.17116 22.25142 78.06325 23.1435 78.06325 24.24397ZM76.0707 24.24397"/>
<path transform="matrix(1,0,0,-1.00005,2.0930024,63.23436)" stroke-width=".3985" stroke-linecap="butt" stroke-miterlimit="10" stroke-linejoin="miter" fill="none" stroke="#000000" d="M87.57208 27.67213C87.57208 28.77261 86.68001 29.66469 85.57953 29.66469 84.47906 29.66469 83.58698 28.77261 83.58698 27.67213 83.58698 26.57167 84.47906 25.67958 85.57953 25.67958 86.68001 25.67958 87.57208 26.57167 87.57208 27.67213ZM85.57953 27.67213"/>
<path transform="matrix(1,0,0,-1.00005,2.0930024,63.23436)" stroke-width=".3985" stroke-linecap="butt" stroke-miterlimit="10" stroke-linejoin="miter" fill="none" stroke="#000000" d="M97.08092 31.95734C97.08092 33.0578 96.18884 33.94989 95.08836 33.94989 93.9879 33.94989 93.09581 33.0578 93.09581 31.95734 93.09581 30.85686 93.9879 29.96478 95.08836 29.96478 96.18884 29.96478 97.08092 30.85686 97.08092 31.95734ZM95.08836 31.95734"/>
<path transform="matrix(1,0,0,-1.00005,2.0930024,63.23436)" stroke-width=".3985" stroke-linecap="butt" stroke-miterlimit="10" stroke-linejoin="miter" fill="none" stroke="#000000" d="M106.58975 37.31384C106.58975 38.4143 105.69768 39.3064 104.5972 39.3064 103.49673 39.3064 102.60464 38.4143 102.60464 37.31384 102.60464 36.21336 103.49673 35.32129 104.5972 35.32129 105.69768 35.32129 106.58975 36.21336 106.58975 37.31384ZM104.5972 37.31384"/>
<path transform="matrix(1,0,0,-1.00005,2.0930024,63.23436)" stroke-width=".3985" stroke-linecap="butt" stroke-miterlimit="10" stroke-linejoin="miter" fill="none" stroke="#000000" d="M116.0986 44.00948C116.0986 45.10995 115.20651 46.00203 114.10605 46.00203 113.00557 46.00203 112.1135 45.10995 112.1135 44.00948 112.1135 42.90901 113.00557 42.01692 114.10605 42.01692 115.20651 42.01692 116.0986 42.90901 116.0986 44.00948ZM114.10605 44.00948"/>
<path transform="matrix(1,0,0,-1.00005,2.0930024,63.23436)" stroke-width=".3985" stroke-linecap="butt" stroke-miterlimit="10" stroke-linejoin="miter" fill="none" stroke="#000000" d="M125.60744 52.37901C125.60744 53.47949 124.71535 54.37157 123.61488 54.37157 122.5144 54.37157 121.62233 53.47949 121.62233 52.37901 121.62233 51.27855 122.5144 50.38646 123.61488 50.38646 124.71535 50.38646 125.60744 51.27855 125.60744 52.37901ZM123.61488 52.37901"/>
<path transform="matrix(1,0,0,-1.00005,2.0930024,63.23436)" stroke-width=".3985" stroke-linecap="butt" stroke-miterlimit="10" stroke-linejoin="miter" fill="none" stroke="#000000" d=""/>
<use data-text="t" xlink:href="#font_4_1" transform="matrix(10.9988,0,0,-10.99935,145.91,49.207658)"/>
<use data-text="y" xlink:href="#font_4_2" transform="matrix(10.9988,0,0,-10.99935,63.143,10.63773)"/>
</svg>
