<svg xmlns="http://www.w3.org/2000/svg" xmlns:xlink="http://www.w3.org/1999/xlink" version="1.1" width="198" height="204" viewBox="0 0 198 204">
<defs>
<path id="font_1_2" d="M.42799378 .45222474 .43899537 .49023438H.31199647L.34599305 .6092224 .33399964 .6162262 .23699951 .53923037 .22399903 .49023438H.14299011L.13198853 .45222474H.21499634L.125 .08627319C.10998535 .029266358 .12199402-.01171875 .17199707-.01171875 .2519989-.01171875 .31599427 .054275514 .35598756 .1292572L.33399964 .1462555C.31098939 .10726929 .2599945 .040267946 .22898865 .040267946 .20799256 .040267946 .20799256 .0632782 .21398926 .088272098L.30299378 .45222474H.42799378Z"/>
<path id="font_1_1" d="M.43199159 .49023438H.3019867L.32998658 .6031952C.34899903 .67918398 .36799623 .70718386 .3959961 .70718386 .4229889 .70718386 .44099427 .68518069 .46299745 .6371918 .46798707 .62719729 .47499085 .6201935 .48999024 .6201935 .5099945 .6201935 .5389862 .6391907 .5389862 .6641846 .5389862 .70718386 .4850006 .7421875 .4249878 .7421875 .3600006 .7421875 .31799317 .71517947 .2849884 .67318728 .2539978 .63420107 .23399353 .5802002 .21998596 .5272217L.20999146 .49023438H.12298584L.11199951 .45222474H.20098877L.084991458-.137146C.07299805-.19918823 .06298828-.2052002 .052993776-.2052002 .041992189-.2052002 .026992798-.19718933 0-.15615845-.007003784-.14616394-.014007568-.13415528-.027008057-.13415528-.04901123-.13415528-.072006229-.15916443-.072006229-.18418885-.071014408-.2171936-.028015137-.2421875 .018997193-.2421875 .11898804-.2421875 .16099549-.16116333 .20298767 .030960083L.29599 .45222474H.42199708L.43199159 .49023438Z"/>
<path id="font_2_1" d="M.1749878 .2822113C.1749878 .56832888 .2619934 .65437319 .32499696 .66737368V.6923828C.1499939 .685379 .10499573 .46829225 .10499573 .2822113 .10499573 .09614563 .1499939-.12094116 .32499696-.12792969V-.10293579C.2669983-.090927127 .1749878-.0059051516 .1749878 .2822113Z"/>
<path id="font_2_2" d="M.1749878 .2822113C.1749878-.0059051516 .08299255-.090927127 .024993897-.10293579V-.12792969C.19999695-.12094116 .24499512 .09614563 .24499512 .2822113 .24499512 .46829225 .19999695 .685379 .024993897 .6923828V.66737368C.08799744 .65437319 .1749878 .56832888 .1749878 .2822113Z"/>
<path id="font_2_3" d="M.4850006 .13195801 .45700074 .13696289C.43598939 .08299255 .41600038 .07598877 .37599183 .07598877H.11999512C.13598633 .1279602 .19499207 .19892884 .28799439 .2658844 .38398744 .33584596 .45799256 .38082887 .45799256 .49276734 .45799256 .63168337 .3659973 .6796875 .26098634 .6796875 .12399292 .6796875 .052993776 .5967102 .052993776 .54473879 .052993776 .51075747 .09098816 .49476625 .10798645 .49476625 .12599182 .49476625 .1329956 .50476077 .13699341 .5217438 .15299988 .5897064 .19198609 .64468386 .2539978 .64468386 .33099366 .64468386 .35299684 .5797119 .35299684 .50675967 .35299684 .3998108 .29899598 .33984376 .21199036 .26289369 .08898926 .15594483 .04598999 .08798218 .026992798 .009994507L.036987306 0H.45098878L.4850006 .13195801Z"/>
<path id="font_3_2" d="M.6349945 .14315796V.20117188H.084991458V.14315796H.6349945M.6349945 .36288453V.42089845H.084991458V.36288453H.6349945Z"/>
<path id="font_3_1" d="M.07998657 .28173829C.07998657 .24674988 .10798645 .21875 .14299011 .21875 .17799378 .21875 .20599365 .24674988 .20599365 .28173829 .20599365 .31674195 .17799378 .34474183 .14299011 .34474183 .10798645 .34474183 .07998657 .31674195 .07998657 .28173829Z"/>
<path id="font_1_3" d="M.5329895 .48995973C.5039978 .388031 .48799134 .33506776 .46199037 .2741089 .41799928 .173172 .33099366 .040267946 .24798584 .040267946 .21598816 .040267946 .20799256 .070251468 .22299195 .12820435L.31900025 .4970703 .31399537 .50205996 .13198853 .47375489 .12599182 .4497528 .18798828 .44476319C.21199036 .44276429 .21099854 .42778016 .20298767 .39682008L.13398743 .13316345C.11299133 .053253175 .12098694-.01171875 .20098877-.01171875 .29699708-.01171875 .4019928 .09420776 .46199037 .21005249H.46398927L.43099977 .096206668C.4119873 .029266358 .42399598-.01171875 .47698976-.01171875 .548996-.01171875 .60899356 .057250978 .6439972 .13116455L.6199951 .14613343C.59999087 .11218262 .55599978 .040267946 .5279999 .040267946 .5069885 .040267946 .5069885 .06324768 .5149994 .09420776L.621994 .5019531 .5329895 .48995973Z"/>
</defs>
<path transform="matrix(1,0,0,-1.00006,16.682999,186.67241)" stroke-width=".3985" stroke-linecap="butt" stroke-miterlimit="10" stroke-linejoin="miter" fill="none" stroke="#000000" d="M-15.5908 0H171.04085"/>
<path transform="matrix(1,0,0,-1.00006,187.72385,186.67241)" stroke-width=".31879" stroke-linecap="round" stroke-linejoin="round" fill="none" stroke="#000000" d="M-1.19551 1.59401C-1.09587 .99626 0 .09961 .29886 0 0-.09961-1.09587-.99626-1.19551-1.59401"/>
<use data-text="t" xlink:href="#font_1_2" transform="matrix(10.0364,0,0,-10.037002,191.799,189.72159)"/>
<path transform="matrix(1,0,0,-1.00006,16.682999,186.67241)" stroke-width=".3985" stroke-linecap="butt" stroke-miterlimit="10" stroke-linejoin="miter" fill="none" stroke="#000000" d="M0-15.5908V171.04085"/>
<path transform="matrix(0,-1.00006,-1,-0,16.682999,15.621307)" stroke-width=".31879" stroke-linecap="round" stroke-linejoin="round" fill="none" stroke="#000000" d="M-1.19551 1.59401C-1.09587 .99626 0 .09961 .29886 0 0-.09961-1.09587-.99626-1.19551-1.59401"/>
<use data-text="f" xlink:href="#font_1_1" transform="matrix(10.0364,0,0,-10.037002,8.556,9.297775)"/>
<use data-text="(" xlink:href="#font_2_1" transform="matrix(10.0364,0,0,-10.037002,14.163002,9.297775)"/>
<use data-text="t" xlink:href="#font_1_2" transform="matrix(10.0364,0,0,-10.037002,17.894005,9.297775)"/>
<use data-text=")" xlink:href="#font_2_2" transform="matrix(10.0364,0,0,-10.037002,22.389008,9.297775)"/>
<path transform="matrix(1,0,0,-1.00006,16.682999,186.67241)" stroke-width=".79701" stroke-linecap="butt" stroke-miterlimit="10" stroke-linejoin="miter" fill="none" stroke="#0000ff" d="M62.36331 0 155.90831 93.54497"/>
<path transform="matrix(1,0,0,-1.00006,16.682999,186.67241)" d="M64.55513 0C64.55513 1.21051 63.57384 2.19182 62.36331 2.19182 61.15279 2.19182 60.1715 1.21051 60.1715 0 60.1715-1.21051 61.15279-2.19182 62.36331-2.19182 63.57384-2.19182 64.55513-1.21051 64.55513 0ZM62.36331 0" fill="#ffffff"/>
<path transform="matrix(1,0,0,-1.00006,16.682999,186.67241)" stroke-width=".3985" stroke-linecap="butt" stroke-miterlimit="10" stroke-linejoin="miter" fill="none" stroke="#0000ff" d="M64.55513 0C64.55513 1.21051 63.57384 2.19182 62.36331 2.19182 61.15279 2.19182 60.1715 1.21051 60.1715 0 60.1715-1.21051 61.15279-2.19182 62.36331-2.19182 63.57384-2.19182 64.55513-1.21051 64.55513 0ZM62.36331 0"/>
<use data-text="2" xlink:href="#font_2_3" transform="matrix(10.0364,0,0,-10.037002,76.384,199.9102)"/>
<use data-text="f" xlink:href="#font_1_1" transform="matrix(10.0364,0,0,-10.037002,126.906009,111.23089)" fill="#0000ff"/>
<use data-text="(" xlink:href="#font_2_1" transform="matrix(10.0364,0,0,-10.037002,132.513,111.23089)" fill="#0000ff"/>
<use data-text="t" xlink:href="#font_1_2" transform="matrix(10.0364,0,0,-10.037002,136.24402,111.23089)" fill="#0000ff"/>
<use data-text=")" xlink:href="#font_2_2" transform="matrix(10.0364,0,0,-10.037002,140.73902,111.23089)" fill="#0000ff"/>
<use data-text="=" xlink:href="#font_3_2" transform="matrix(10.0364,0,0,-10.037002,146.11801,111.23089)" fill="#0000ff"/>
<use data-text="t" xlink:href="#font_1_2" transform="matrix(10.0364,0,0,-10.037002,155.42502,111.23089)" fill="#0000ff"/>
<use data-text="&#x00b7;" xlink:href="#font_3_1" transform="matrix(10.0364,0,0,-10.037002,161.25302,111.23089)" fill="#0000ff"/>
<use data-text="u" xlink:href="#font_1_3" transform="matrix(10.0364,0,0,-10.037002,165.37902,111.23089)" fill="#0000ff"/>
<use data-text="2" xlink:href="#font_2_3" transform="matrix(7.6075,0,0,-7.6079566,171.91301,112.86799)" fill="#0000ff"/>
<use data-text="(" xlink:href="#font_2_1" transform="matrix(10.0364,0,0,-10.037002,176.447,111.23089)" fill="#0000ff"/>
<use data-text="t" xlink:href="#font_1_2" transform="matrix(10.0364,0,0,-10.037002,180.177,111.23089)" fill="#0000ff"/>
<use data-text=")" xlink:href="#font_2_2" transform="matrix(10.0364,0,0,-10.037002,184.672,111.23089)" fill="#0000ff"/>
</svg>
