<svg xmlns="http://www.w3.org/2000/svg" xmlns:xlink="http://www.w3.org/1999/xlink" version="1.1" width="174" height="381" viewBox="0 0 174 381">
<defs>
<path id="font_1_2" d="M.42799378 .45222474 .43899537 .49023438H.31199647L.34599305 .6092224 .33399964 .6162262 .23699951 .53923037 .22399903 .49023438H.14299011L.13198853 .45222474H.21499634L.125 .08627319C.10998535 .029266358 .12199402-.01171875 .17199707-.01171875 .2519989-.01171875 .31599427 .054275514 .35598756 .1292572L.33399964 .1462555C.31098939 .10726929 .2599945 .040267946 .22898865 .040267946 .20799256 .040267946 .20799256 .0632782 .21398926 .088272098L.30299378 .45222474H.42799378Z"/>
<path id="font_2_1" d="M.07398987 .2861328V.21612549H.31900025V.2861328H.07398987Z"/>
<path id="font_2_4" d="M.12998963 .3657837C.12998963 .3487854 .1349945 .33779908 .147995 .33779908 .1599884 .33779908 .18699646 .34777833 .23498535 .34777833 .31999208 .34777833 .36799623 .27090455 .36799623 .18403626 .36799623 .065216068 .30899049 .023269654 .23799134 .023269654 .17199707 .023269654 .1289978 .07319641 .10998535 .12911988 .10398865 .14808655 .09399414 .15707398 .07998657 .15707398 .06199646 .15707398 .026992798 .13809204 .026992798 .10215759 .026992798 .05921936 .09599304-.01171875 .23699951-.01171875 .38198854-.01171875 .47299195 .06121826 .47299195 .18902588 .47299195 .32281495 .35798646 .3627777 .30299378 .3677826V.3717804C.35699464 .38078309 .44400025 .4207611 .44400025 .5197296 .44400025 .6306915 .35699464 .6796875 .25 .6796875 .117996219 .6796875 .052993776 .60369876 .052993776 .5607147 .052993776 .5297241 .08799744 .51272585 .101989749 .51272585 .114990238 .51272585 .12298584 .5197296 .1269989 .5327301 .14898682 .60069277 .18699646 .64468386 .24299622 .64468386 .32199098 .64468386 .34098817 .57470706 .34098817 .51872256 .34098817 .4587555 .31999208 .38378907 .23498535 .38378907 .18699646 .38378907 .1599884 .39378358 .147995 .39378358 .1349945 .39378358 .12998963 .38378907 .12998963 .3657837Z"/>
<path id="font_2_3" d="M.4850006 .13195801 .45700074 .13696289C.43598939 .08299255 .41600038 .07598877 .37599183 .07598877H.11999512C.13598633 .1279602 .19499207 .19892884 .28799439 .2658844 .38398744 .33584596 .45799256 .38082887 .45799256 .49276734 .45799256 .63168337 .3659973 .6796875 .26098634 .6796875 .12399292 .6796875 .052993776 .5967102 .052993776 .54473879 .052993776 .51075747 .09098816 .49476625 .10798645 .49476625 .12599182 .49476625 .1329956 .50476077 .13699341 .5217438 .15299988 .5897064 .19198609 .64468386 .2539978 .64468386 .33099366 .64468386 .35299684 .5797119 .35299684 .50675967 .35299684 .3998108 .29899598 .33984376 .21199036 .26289369 .08898926 .15594483 .04598999 .08798218 .026992798 .009994507L.036987306 0H.45098878L.4850006 .13195801Z"/>
<path id="font_2_2" d="M.43699647 0V.0289917L.35299684 .035995485C.33198548 .037994386 .31999208 .04598999 .31999208 .08496094V.67367556L.31498719 .6796875 .10899353 .6446991V.6197052L.20199585 .6087036C.21899414 .6067047 .22599793 .5987091 .22599793 .56973269V.08496094C.22599793 .065979007 .22299195 .053985597 .21699524 .04698181 .21199036 .039993287 .20399475 .036987306 .19299317 .035995485L.10899353 .0289917V0H.43699647Z"/>
<path id="font_2_5" d="M.2999878 .17871094V.0769043C.2999878 .04296875 .2889862 .036987306 .2649994 .034988405L.20098877 .0289917V0H.46499635V.0289917L.41999818 .033981325C.39698792 .036987306 .3899994 .04296875 .3899994 .0769043V.17871094H.49299623V.22570801H.3899994V.66796877H.31698609C.22299195 .5298767 .11099243 .35577394 .018997193 .19970703L.027999878 .17871094H.2999878M.09098816 .22570801C.15098572 .33476258 .22099304 .4498291 .2979889 .5709076H.2999878V.22570801H.09098816Z"/>
<path id="font_1_1" d="M.43499757 .15118408C.39898683 .10421753 .34498597 .03727722 .269989 .03727722 .19999695 .03727722 .1789856 .097229007 .1789856 .17616272 .1789856 .1811676 .1789856 .1851654 .17999268 .19215393 .34799195 .22613526 .42099 .26609803 .46398927 .30607606 .49899293 .3410492 .5059967 .37402345 .5059967 .4019928 .5059967 .45495606 .46398927 .5019531 .38198854 .5019531 .2919922 .5019531 .21798706 .45596314 .16299439 .3880005 .10998535 .32305909 .07998657 .23612976 .07998657 .15219116 .07998657 .012268066 .17098999-.01171875 .22898865-.01171875 .3019867-.01171875 .3899994 .02027893 .45799256 .13119507L.43499757 .15118408M.18199158 .22613526C.19898987 .3470459 .27398683 .46694947 .35398866 .46694947 .3889923 .46694947 .4119873 .44296266 .4119873 .4079895 .4119873 .3380432 .35099793 .26210023 .18199158 .22613526Z"/>
</defs>
<path transform="matrix(1.00008,0,0,-1.00005,100.71233,346.03355)" stroke-width=".3985" stroke-linecap="butt" stroke-miterlimit="10" stroke-linejoin="miter" fill="none" stroke="#000000" d="M-99.21382 0H70.40874"/>
<path transform="matrix(1.00008,0,0,-1.00005,171.12671,346.03355)" stroke-width=".31879" stroke-linecap="round" stroke-linejoin="round" fill="none" stroke="#000000" d="M-1.19551 1.59401C-1.09587 .99626 0 .09961 .29886 0 0-.09961-1.09587-.99626-1.19551-1.59401"/>
<path transform="matrix(1.00008,0,0,-1.00005,100.71233,346.03355)" stroke-width=".3985" stroke-linecap="butt" stroke-miterlimit="10" stroke-linejoin="miter" fill="none" stroke="#000000" d="M0-34.01608V135.60648"/>
<path transform="matrix(0,-1.00005,-1.00008,-0,100.71233,210.42029)" stroke-width=".31879" stroke-linecap="round" stroke-linejoin="round" fill="none" stroke="#000000" d="M-1.19551 1.59401C-1.09587 .99626 0 .09961 .29886 0 0-.09961-1.09587-.99626-1.19551-1.59401"/>
<use data-text="t" xlink:href="#font_1_2" transform="matrix(9.166333,0,0,-9.166058,166.79663,355.082)"/>
<path transform="matrix(1.00008,0,0,-1.00005,100.71233,346.03355)" stroke-width=".3985" stroke-linecap="butt" stroke-miterlimit="10" stroke-linejoin="miter" fill="none" stroke="#929292" d="M-85.04042 2.83484V-2.83484"/>
<use data-text="-" xlink:href="#font_2_1" transform="matrix(9.166333,0,0,-9.166058,11.435196,355.57)"/>
<use data-text="3" xlink:href="#font_2_4" transform="matrix(9.166333,0,0,-9.166058,15.028397,355.57)"/>
<path transform="matrix(1.00008,0,0,-1.00005,100.71233,346.03355)" stroke-width=".3985" stroke-linecap="butt" stroke-miterlimit="10" stroke-linejoin="miter" fill="none" stroke="#929292" d="M-56.69362 2.83484V-2.83484"/>
<use data-text="-" xlink:href="#font_2_1" transform="matrix(9.166333,0,0,-9.166058,39.784463,355.57)"/>
<use data-text="2" xlink:href="#font_2_3" transform="matrix(9.166333,0,0,-9.166058,43.377664,355.57)"/>
<path transform="matrix(1.00008,0,0,-1.00005,100.71233,346.03355)" stroke-width=".3985" stroke-linecap="butt" stroke-miterlimit="10" stroke-linejoin="miter" fill="none" stroke="#929292" d="M-28.3468 2.83484V-2.83484"/>
<use data-text="-" xlink:href="#font_2_1" transform="matrix(9.166333,0,0,-9.166058,68.13373,355.57)"/>
<use data-text="1" xlink:href="#font_2_2" transform="matrix(9.166333,0,0,-9.166058,71.72693,355.57)"/>
<path transform="matrix(1.00008,0,0,-1.00005,100.71233,346.03355)" stroke-width=".3985" stroke-linecap="butt" stroke-miterlimit="10" stroke-linejoin="miter" fill="none" stroke="#929292" d="M28.3468 2.83484V-2.83484"/>
<use data-text="1" xlink:href="#font_2_2" transform="matrix(9.166333,0,0,-9.166058,126.63041,355.57)"/>
<path transform="matrix(1.00008,0,0,-1.00005,100.71233,346.03355)" stroke-width=".3985" stroke-linecap="butt" stroke-miterlimit="10" stroke-linejoin="miter" fill="none" stroke="#929292" d="M56.69362 2.83484V-2.83484"/>
<use data-text="2" xlink:href="#font_2_3" transform="matrix(9.166333,0,0,-9.166058,154.97968,355.57)"/>
<path transform="matrix(1.00008,0,0,-1.00005,100.71233,346.03355)" stroke-width=".3985" stroke-linecap="butt" stroke-miterlimit="10" stroke-linejoin="miter" fill="none" stroke="#929292" d="M2.83484-28.3468H-2.83484"/>
<use data-text="-" xlink:href="#font_2_1" transform="matrix(9.166333,0,0,-9.166058,91.68961,377.4501)"/>
<use data-text="1" xlink:href="#font_2_2" transform="matrix(9.166333,0,0,-9.166058,95.282817,377.4501)"/>
<path transform="matrix(1.00008,0,0,-1.00005,100.71233,346.03355)" stroke-width=".3985" stroke-linecap="butt" stroke-miterlimit="10" stroke-linejoin="miter" fill="none" stroke="#929292" d="M2.83484 28.3468H-2.83484"/>
<use data-text="1" xlink:href="#font_2_2" transform="matrix(9.166333,0,0,-9.166058,95.2859,320.75428)"/>
<path transform="matrix(1.00008,0,0,-1.00005,100.71233,346.03355)" stroke-width=".3985" stroke-linecap="butt" stroke-miterlimit="10" stroke-linejoin="miter" fill="none" stroke="#929292" d="M2.83484 56.69362H-2.83484"/>
<use data-text="2" xlink:href="#font_2_3" transform="matrix(9.166333,0,0,-9.166058,95.2859,292.40586)"/>
<path transform="matrix(1.00008,0,0,-1.00005,100.71233,346.03355)" stroke-width=".3985" stroke-linecap="butt" stroke-miterlimit="10" stroke-linejoin="miter" fill="none" stroke="#929292" d="M2.83484 85.04042H-2.83484"/>
<use data-text="3" xlink:href="#font_2_4" transform="matrix(9.166333,0,0,-9.166058,95.2859,264.03245)"/>
<path transform="matrix(1.00008,0,0,-1.00005,100.71233,346.03355)" stroke-width=".3985" stroke-linecap="butt" stroke-miterlimit="10" stroke-linejoin="miter" fill="none" stroke="#929292" d="M2.83484 113.38724H-2.83484"/>
<use data-text="4" xlink:href="#font_2_5" transform="matrix(9.166333,0,0,-9.166058,95.2859,235.70903)"/>
<path transform="matrix(1.00008,0,0,-1.00005,100.71233,346.03355)" stroke-width="1.19553" stroke-linecap="butt" stroke-miterlimit="10" stroke-linejoin="miter" fill="none" stroke="#0000ff" d="M-98.25787 .88434-97.49622 .90701-95.7786 .96367-94.06099 1.02596-92.3434 1.08868-90.62578 1.15659-88.90817 1.23012-87.19055 1.30667-85.47295 1.38885-83.75534 1.47711-82.03773 1.56793-80.32013 1.66698-78.60252 1.76906-76.8849 1.87979-75.1673 1.99875-73.44969 2.1233-71.73207 2.25653-70.01448 2.3984-68.29688 2.5459-66.57925 2.70767-64.86165 2.87462-63.14404 3.0563-61.42642 3.24617-59.70883 3.44774-57.99123 3.66315-56.2736 3.89282-54.556 4.13634-52.8384 4.39456-51.12077 4.66966-49.40318 4.96162-47.68558 5.2709-45.96796 5.59962-44.25035 5.95128-42.53275 6.32283-40.81512 6.71686-39.09752 7.13643-37.37993 7.58453-35.66231 8.05774-33.9447 8.5599-32.2271 9.0954-30.50948 9.66289-28.79187 10.26671-27.07428 10.91032-25.35666 11.59071-23.63905 12.31392-21.92145 13.08513-20.20383 13.90176-18.48622 14.76898-16.76862 15.69073-15.05101 16.67172-13.3334 17.71501-11.6158 18.82101-9.89818 19.99751-8.18057 21.24538-6.46297 22.57198-4.74536 23.98119-3.02776 25.48123-1.31015 27.0721 .40744 28.75641 2.12505 30.55273 3.84265 32.46066 5.56027 34.4884 7.27786 36.64244 8.99547 38.93144 10.71309 41.36316 12.4307 43.94629 14.1483 46.69159 15.86592 49.60777 17.58351 52.70647 19.30112 55.99852 21.01874 59.49602 22.73634 63.21368 24.45395 67.16145 26.17157 71.35664 27.88916 75.81265 29.60677 80.54807 31.32439 85.58109 33.04199 90.92467 34.7596 96.6069 36.47722 102.64082 38.19482 109.04843 39.91241 115.8622 41.63004 123.099 43.34764 130.78995 45.06525 138.95975 46.78287 147.63861 48.50047 156.85945 50.21806 166.65773 51.93568 177.0698 53.65329 188.12763 55.37091 199.88098 57.08852 212.36533 58.80612 225.62953 60.52374 239.72509 62.24133 254.69956 63.95894 270.61003 65.67656 287.5136 67.39417 305.47 69.11177 324.55183 70.82939 344.82405"/>
<path transform="matrix(-.9995899,.02966148,.029662373,.99955996,2.4466019,345.14918)" stroke-width=".9564" stroke-linecap="round" stroke-linejoin="round" fill="none" stroke="#0000ff" d="M-1.91284 2.55046C-1.75343 1.59402 0 .15938 .4782 0 0-.15938-1.75343-1.59402-1.91284-2.55046"/>
<use data-text="e" xlink:href="#font_1_1" transform="matrix(9.166333,0,0,-9.166058,82.24185,234.831)" fill="#0000ff"/>
<use data-text="t" xlink:href="#font_1_2" transform="matrix(6.9664576,0,0,-6.966248,87.215259,231.2138)" fill="#0000ff"/>
</svg>
