<svg xmlns="http://www.w3.org/2000/svg" xmlns:xlink="http://www.w3.org/1999/xlink" version="1.1" width="198" height="143" viewBox="0 0 198 143">
<defs>
<path id="font_1_1" d="M.42799378 .45222474 .43899537 .49023438H.31199647L.34599305 .6092224 .33399964 .6162262 .23699951 .53923037 .22399903 .49023438H.14299011L.13198853 .45222474H.21499634L.125 .08627319C.10998535 .029266358 .12199402-.01171875 .17199707-.01171875 .2519989-.01171875 .31599427 .054275514 .35598756 .1292572L.33399964 .1462555C.31098939 .10726929 .2599945 .040267946 .22898865 .040267946 .20799256 .040267946 .20799256 .0632782 .21398926 .088272098L.30299378 .45222474H.42799378Z"/>
<path id="font_2_12" d="M.36698915 .35102845V.46794129C.33399964 .49194337 .2829895 .5019531 .23799134 .5019531 .12998963 .5019531 .056991579 .45095826 .055999757 .35603334 .056991579 .27308656 .12399292 .2361145 .20698548 .21113587 .2519989 .19714356 .31498719 .17416382 .31498719 .10621643 .31498719 .055252077 .2749939 .023269654 .22200012 .023269654 .14099121 .023269654 .09599304 .082229617 .07598877 .16716004H.04699707L.056991579 .03627014C.09298706 .004272461 .1539917-.01171875 .21299744-.01171875 .33198548-.01171875 .3999939 .051254274 .3999939 .13618469 .3999939 .2241211 .34599305 .26409913 .24299622 .29606629 .20199585 .30906678 .13598633 .3300476 .13598633 .3860016 .13699341 .43795777 .17599488 .46694947 .22599793 .46694947 .29699708 .46694947 .33099366 .4119873 .33799745 .35102845H.36698915Z"/>
<path id="font_2_10" d="M.036987306 .47694398V.45195008L.07499695 .4469452C.100997928 .4429474 .10699463 .43795777 .10699463 .40194703V.08699036C.10699463 .035995485 .10398865 .033996583 .03199768 .0289917V0H.27598573V.0289917C.20498657 .033996583 .20098877 .035995485 .20098877 .08699036V.49609376L.19400025 .5020752 .036987306 .47694398M.15299988 .71484377C.116989139 .71484377 .09199524 .6888428 .09199524 .65283206 .09199524 .61782839 .116989139 .5928345 .15299988 .5928345 .18998719 .5928345 .21299744 .61782839 .21398926 .65283206 .21398926 .6888428 .18998719 .71484377 .15299988 .71484377Z"/>
<path id="font_2_11" d="M.5289917 .34295655C.5289917 .4439392 .47399903 .5019531 .38198854 .5019531 .30799867 .5019531 .2619934 .46594239 .19999695 .4259491L.18598938 .5019531 .036987306 .47694398V.45195008L.07499695 .4469452C.100997928 .4429474 .10699463 .4379425 .10699463 .40194703V.08699036C.10699463 .035995485 .10398865 .033996583 .03199768 .0289917V0H.27598573V.0289917C.20498657 .033996583 .20098877 .035995485 .20098877 .08699036V.32095338C.20098877 .34596253 .20298767 .35995484 .21099854 .37594605 .23199463 .4149475 .2769928 .44795228 .32998658 .44795228 .397995 .44795228 .43499757 .40994264 .43499757 .32295228V.08699036C.43499757 .035995485 .43199159 .033996583 .3600006 .0289917V0H.60398867V.0289917C.5329895 .033996583 .5289917 .035995485 .5289917 .08699036V.34295655Z"/>
<path id="font_2_1" d="M.1749878 .2822113C.1749878 .56832888 .2619934 .65437319 .32499696 .66737368V.6923828C.1499939 .685379 .10499573 .46829225 .10499573 .2822113 .10499573 .09614563 .1499939-.12094116 .32499696-.12792969V-.10293579C.2669983-.090927127 .1749878-.0059051516 .1749878 .2822113Z"/>
<path id="font_2_6" d="M.4850006 .13195801 .45700074 .13696289C.43598939 .08299255 .41600038 .07598877 .37599183 .07598877H.11999512C.13598633 .1279602 .19499207 .19892884 .28799439 .2658844 .38398744 .33584596 .45799256 .38082887 .45799256 .49276734 .45799256 .63168337 .3659973 .6796875 .26098634 .6796875 .12399292 .6796875 .052993776 .5967102 .052993776 .54473879 .052993776 .51075747 .09098816 .49476625 .10798645 .49476625 .12599182 .49476625 .1329956 .50476077 .13699341 .5217438 .15299988 .5897064 .19198609 .64468386 .2539978 .64468386 .33099366 .64468386 .35299684 .5797119 .35299684 .50675967 .35299684 .3998108 .29899598 .33984376 .21199036 .26289369 .08898926 .15594483 .04598999 .08798218 .026992798 .009994507L.036987306 0H.45098878L.4850006 .13195801Z"/>
<path id="font_2_2" d="M.1749878 .2822113C.1749878-.0059051516 .08299255-.090927127 .024993897-.10293579V-.12792969C.19999695-.12094116 .24499512 .09614563 .24499512 .2822113 .24499512 .46829225 .19999695 .685379 .024993897 .6923828V.66737368C.08799744 .65437319 .1749878 .56832888 .1749878 .2822113Z"/>
<path id="font_2_3" d="M.07398987 .2861328V.21612549H.31900025V.2861328H.07398987Z"/>
<path id="font_2_5" d="M.43699647 0V.0289917L.35299684 .035995485C.33198548 .037994386 .31999208 .04598999 .31999208 .08496094V.67367556L.31498719 .6796875 .10899353 .6446991V.6197052L.20199585 .6087036C.21899414 .6067047 .22599793 .5987091 .22599793 .56973269V.08496094C.22599793 .065979007 .22299195 .053985597 .21699524 .04698181 .21199036 .039993287 .20399475 .036987306 .19299317 .035995485L.10899353 .0289917V0H.43699647Z"/>
<path id="font_2_4" d="M.2649994 .64468386C.3600006 .64468386 .3869934 .49682618 .3869934 .33398438 .3869934 .17112732 .3600006 .023269654 .2649994 .023269654 .16999817 .023269654 .14299011 .17112732 .14299011 .33398438 .14299011 .49682618 .16999817 .64468386 .2649994 .64468386M.2649994 .6796875C.099990848 .6796875 .040985109 .53378298 .040985109 .33398438 .040985109 .13417053 .099990848-.01171875 .2649994-.01171875 .42999269-.01171875 .4889984 .13417053 .4889984 .33398438 .4889984 .53378298 .42999269 .6796875 .2649994 .6796875Z"/>
<path id="font_2_7" d="M.12998963 .3657837C.12998963 .3487854 .1349945 .33779908 .147995 .33779908 .1599884 .33779908 .18699646 .34777833 .23498535 .34777833 .31999208 .34777833 .36799623 .27090455 .36799623 .18403626 .36799623 .065216068 .30899049 .023269654 .23799134 .023269654 .17199707 .023269654 .1289978 .07319641 .10998535 .12911988 .10398865 .14808655 .09399414 .15707398 .07998657 .15707398 .06199646 .15707398 .026992798 .13809204 .026992798 .10215759 .026992798 .05921936 .09599304-.01171875 .23699951-.01171875 .38198854-.01171875 .47299195 .06121826 .47299195 .18902588 .47299195 .32281495 .35798646 .3627777 .30299378 .3677826V.3717804C.35699464 .38078309 .44400025 .4207611 .44400025 .5197296 .44400025 .6306915 .35699464 .6796875 .25 .6796875 .117996219 .6796875 .052993776 .60369876 .052993776 .5607147 .052993776 .5297241 .08799744 .51272585 .101989749 .51272585 .114990238 .51272585 .12298584 .5197296 .1269989 .5327301 .14898682 .60069277 .18699646 .64468386 .24299622 .64468386 .32199098 .64468386 .34098817 .57470706 .34098817 .51872256 .34098817 .4587555 .31999208 .38378907 .23498535 .38378907 .18699646 .38378907 .1599884 .39378358 .147995 .39378358 .1349945 .39378358 .12998963 .38378907 .12998963 .3657837Z"/>
<path id="font_2_8" d="M.2999878 .17871094V.0769043C.2999878 .04296875 .2889862 .036987306 .2649994 .034988405L.20098877 .0289917V0H.46499635V.0289917L.41999818 .033981325C.39698792 .036987306 .3899994 .04296875 .3899994 .0769043V.17871094H.49299623V.22570801H.3899994V.66796877H.31698609C.22299195 .5298767 .11099243 .35577394 .018997193 .19970703L.027999878 .17871094H.2999878M.09098816 .22570801C.15098572 .33476258 .22099304 .4498291 .2979889 .5709076H.2999878V.22570801H.09098816Z"/>
<path id="font_2_9" d="M.42599488 .5919647 .44999696 .6599579 .44499208 .66796877H.11099243L.100997928 .65896609 .08099365 .32388307 .10499573 .31188966C.14698792 .35983277 .18798828 .3828125 .24198914 .3828125 .30599977 .3828125 .37599183 .3358612 .37599183 .20404053 .37599183 .10116577 .33399964 .023269654 .24699402 .023269654 .1769867 .023269654 .14099121 .07420349 .12098694 .13113404 .115997318 .14611817 .10699463 .15510559 .09298706 .15510559 .07299805 .15510559 .039993287 .13513184 .039993287 .10217285 .039993287 .056228639 .10998535-.01171875 .23999024-.01171875 .40499879-.01171875 .47999574 .0881958 .47999574 .21502686 .47999574 .35484315 .3919983 .4268036 .272995 .4268036 .21798706 .4268036 .15899658 .4028015 .1269989 .3738098L.125 .37580873 .147995 .56292727C.15098572 .58795168 .1579895 .5919647 .1769867 .5919647H.42599488Z"/>
</defs>
<path transform="matrix(1.00003,0,0,-1.0001,46.44838,74.02611)" d="M0-68.0326V68.0326H45.35506V-68.0326ZM45.35506 68.0326" fill="#d9d9ff"/>
<path transform="matrix(1.00003,0,0,-1.0001,46.44838,74.02611)" d="M45.35506-68.0326V68.0326H147.40396V-68.0326ZM147.40396 68.0326" fill="#d9ffd9"/>
<path transform="matrix(1.00003,0,0,-1.0001,46.44838,74.02611)" stroke-width=".3985" stroke-linecap="butt" stroke-miterlimit="10" stroke-linejoin="miter" fill="none" stroke="#000000" d="M-45.35506 0H146.94568"/>
<path transform="matrix(1.00003,0,0,-1.0001,193.39847,74.02611)" stroke-width=".31879" stroke-linecap="round" stroke-linejoin="round" fill="none" stroke="#000000" d="M-1.19551 1.59401C-1.09587 .99626 0 .09961 .29886 0 0-.09961-1.09587-.99626-1.19551-1.59401"/>
<use data-text="t" xlink:href="#font_1_1" transform="matrix(10.036701,0,0,-10.037404,191.71875,83.61107)"/>
<path transform="matrix(1.00003,0,0,-1.0001,46.44838,74.02611)" stroke-width=".3985" stroke-linecap="butt" stroke-miterlimit="10" stroke-linejoin="miter" fill="none" stroke="#000000" d="M0-68.0326V67.57431"/>
<path transform="matrix(0,-1.0001,-1.00003,-0,46.44838,6.445038)" stroke-width=".31879" stroke-linecap="round" stroke-linejoin="round" fill="none" stroke="#000000" d="M-1.19551 1.59401C-1.09587 .99626 0 .09961 .29886 0 0-.09961-1.09587-.99626-1.19551-1.59401"/>
<use data-text="s" xlink:href="#font_2_12" transform="matrix(10.036701,0,0,-10.037404,17.193497,8.9025959)"/>
<use data-text="i" xlink:href="#font_2_10" transform="matrix(10.036701,0,0,-10.037404,21.569497,8.9025959)"/>
<use data-text="n" xlink:href="#font_2_11" transform="matrix(10.036701,0,0,-10.037404,24.490174,8.9025959)"/>
<use data-text="(" xlink:href="#font_2_1" transform="matrix(10.036701,0,0,-10.037404,30.702897,8.9025959)"/>
<use data-text="2" xlink:href="#font_2_6" transform="matrix(10.036701,0,0,-10.037404,34.215745,8.9025959)"/>
<use data-text=")" xlink:href="#font_2_2" transform="matrix(10.036701,0,0,-10.037404,39.535188,8.9025959)"/>
<path transform="matrix(1.00003,0,0,-1.0001,46.44838,74.02611)" stroke-width=".3985" stroke-linecap="butt" stroke-miterlimit="10" stroke-linejoin="miter" fill="none" stroke="#b5b5b5" d="M-22.67752 2.26787V-2.26787"/>
<use data-text="-" xlink:href="#font_2_3" transform="matrix(9.165875,0,0,-9.166516,19.540574,86.9644)"/>
<use data-text="1" xlink:href="#font_2_5" transform="matrix(9.165875,0,0,-9.166516,23.133599,86.9644)"/>
<path transform="matrix(1.00003,0,0,-1.0001,46.44838,74.02611)" stroke-width=".3985" stroke-linecap="butt" stroke-miterlimit="10" stroke-linejoin="miter" fill="none" stroke="#b5b5b5" d="M0 2.26787V-2.26787"/>
<use data-text="0" xlink:href="#font_2_4" transform="matrix(9.165875,0,0,-9.166516,44.017305,86.9644)"/>
<path transform="matrix(1.00003,0,0,-1.0001,46.44838,74.02611)" stroke-width=".3985" stroke-linecap="butt" stroke-miterlimit="10" stroke-linejoin="miter" fill="none" stroke="#b5b5b5" d="M22.67752 2.26787V-2.26787"/>
<use data-text="1" xlink:href="#font_2_5" transform="matrix(9.165875,0,0,-9.166516,66.695987,86.9644)"/>
<path transform="matrix(1.00003,0,0,-1.0001,46.44838,74.02611)" stroke-width=".3985" stroke-linecap="butt" stroke-miterlimit="10" stroke-linejoin="miter" fill="none" stroke="#b5b5b5" d="M45.35506 2.26787V-2.26787"/>
<use data-text="2" xlink:href="#font_2_6" transform="matrix(9.165875,0,0,-9.166516,89.37367,86.9644)"/>
<path transform="matrix(1.00003,0,0,-1.0001,46.44838,74.02611)" stroke-width=".3985" stroke-linecap="butt" stroke-miterlimit="10" stroke-linejoin="miter" fill="none" stroke="#b5b5b5" d="M68.0326 2.26787V-2.26787"/>
<use data-text="3" xlink:href="#font_2_7" transform="matrix(9.165875,0,0,-9.166516,112.052349,86.9644)"/>
<path transform="matrix(1.00003,0,0,-1.0001,46.44838,74.02611)" stroke-width=".3985" stroke-linecap="butt" stroke-miterlimit="10" stroke-linejoin="miter" fill="none" stroke="#b5b5b5" d="M90.71013 2.26787V-2.26787"/>
<use data-text="4" xlink:href="#font_2_8" transform="matrix(9.165875,0,0,-9.166516,134.73004,86.9644)"/>
<path transform="matrix(1.00003,0,0,-1.0001,46.44838,74.02611)" stroke-width=".3985" stroke-linecap="butt" stroke-miterlimit="10" stroke-linejoin="miter" fill="none" stroke="#b5b5b5" d="M113.38766 2.26787V-2.26787"/>
<use data-text="5" xlink:href="#font_2_9" transform="matrix(9.165875,0,0,-9.166516,157.40872,86.9644)"/>
<path transform="matrix(1.00003,0,0,-1.0001,46.44838,74.02611)" stroke-width=".3985" stroke-linecap="butt" stroke-miterlimit="10" stroke-linejoin="miter" fill="none" stroke="#b5b5b5" d="M2.26787-45.35506H-2.26787"/>
<use data-text="-" xlink:href="#font_2_3" transform="matrix(9.165875,0,0,-9.166516,31.18892,122.454959)"/>
<use data-text="2" xlink:href="#font_2_6" transform="matrix(9.165875,0,0,-9.166516,34.781946,122.454959)"/>
<path transform="matrix(1.00003,0,0,-1.0001,46.44838,74.02611)" stroke-width=".3985" stroke-linecap="butt" stroke-miterlimit="10" stroke-linejoin="miter" fill="none" stroke="#b5b5b5" d="M2.26787-22.67752H-2.26787"/>
<use data-text="-" xlink:href="#font_2_3" transform="matrix(9.165875,0,0,-9.166516,31.18892,99.77469)"/>
<use data-text="1" xlink:href="#font_2_5" transform="matrix(9.165875,0,0,-9.166516,34.781946,99.77469)"/>
<path transform="matrix(1.00003,0,0,-1.0001,46.44838,74.02611)" stroke-width=".3985" stroke-linecap="butt" stroke-miterlimit="10" stroke-linejoin="miter" fill="none" stroke="#b5b5b5" d="M2.26787 0H-2.26787"/>
<use data-text="0" xlink:href="#font_2_4" transform="matrix(9.165875,0,0,-9.166516,34.786027,77.07041)"/>
<path transform="matrix(1.00003,0,0,-1.0001,46.44838,74.02611)" stroke-width=".3985" stroke-linecap="butt" stroke-miterlimit="10" stroke-linejoin="miter" fill="none" stroke="#b5b5b5" d="M2.26787 22.67752H-2.26787"/>
<use data-text="1" xlink:href="#font_2_5" transform="matrix(9.165875,0,0,-9.166516,34.786027,54.415147)"/>
<path transform="matrix(1.00003,0,0,-1.0001,46.44838,74.02611)" stroke-width=".3985" stroke-linecap="butt" stroke-miterlimit="10" stroke-linejoin="miter" fill="none" stroke="#b5b5b5" d="M2.26787 45.35506H-2.26787"/>
<use data-text="2" xlink:href="#font_2_6" transform="matrix(9.165875,0,0,-9.166516,34.786027,31.734879)"/>
<path transform="matrix(1.00003,0,0,-1.0001,46.44838,74.02611)" stroke-width="1.19553" stroke-linecap="butt" stroke-miterlimit="10" stroke-linejoin="miter" fill="none" stroke="#0000ff" d="M0 0 .22559 .00032 .4512 .00206 .67682 .00482 .90242 .00862 1.12804 .01382 1.35365 .02007 1.57927 .02731 1.80487 .03563 2.03049 .0453 2.2561 .05605 2.48174 .0678 2.70732 .08061 2.93294 .09479 3.15855 .10968 3.38417 .12593 3.60979 .14357 3.83539 .16193 4.061 .18164 4.28662 .20241 4.51222 .22421 4.73784 .24739 4.96347 .27126 5.18907 .29654 5.41467 .32317 5.64029 .35051 5.8659 .37924 6.09154 .40898 6.31712 .43979 6.54274 .47162 6.76836 .50484 6.99397 .5391 7.21959 .57439 7.4452 .61073 7.6708 .64845 7.89642 .6872 8.12202 .72699 8.34764 .76817 8.57327 .81003 8.79889 .8533 9.02448 .8976 9.25009 .94292 9.47571 .98962 9.70134 1.03738 9.92694 1.08617 10.15254 1.136 10.37816 1.18723 10.60378 1.23946 10.82939 1.29276 11.05501 1.34709 11.28062 1.40279 11.50621 1.4592 11.73183 1.51698 11.95746 1.57614 12.18307 1.63602 12.40868 1.69727 12.63428 1.75957 12.8599 1.82288 13.08551 1.88757 13.31113 1.95299 13.53674 2.01976 13.76236 2.08792 13.98796 2.15678 14.21356 2.22704 14.4392 2.29832 14.66481 2.37064 14.89043 2.444 15.11601 2.51875 15.34163 2.59453 15.56726 2.67134 15.79288 2.74954 16.01848 2.82845 16.2441 2.90872 16.4697 2.99004 16.69531 3.07274 16.92093 3.15614 17.14655 3.24092 17.37216 3.32674 17.59778 3.41393 17.82336 3.50182 18.049 3.5911 18.27461 3.68141 18.50023 3.77277 18.72583 3.8655 18.95143 3.95927 19.17706 4.0541 19.40268 4.14993 19.62828 4.24716 19.8539 4.34544 20.07951 4.44476 20.30511 4.54509 20.53073 4.6465 20.75635 4.74925 20.98196 4.85307 21.20758 4.95792 21.43317 5.06415 21.6588 5.17143 21.88441 5.27972 22.11002 5.38908 22.33563 5.49947 22.56125 5.61122 22.78687 5.72404 23.01247 5.83789 23.23808 5.95311 23.4637 6.06903 23.68932 6.18633 23.91492 6.30466 24.14053 6.42441 24.36615 6.54483 24.59177 6.66663 24.81737 6.78947 25.04298 6.91368 25.2686 7.03862 25.49422 7.16492 25.71982 7.29227 25.94543 7.42097 26.17105 7.55038 26.39667 7.6812 26.62227 7.81303 26.84789 7.94624 27.0735 8.08018 27.29912 8.21547 27.52472 8.3518 27.75034 8.48917 27.97595 8.62793 28.20157 8.76773 28.42717 8.90857 28.65279 9.05045 28.8784 9.1937 29.10402 9.33765 29.32962 9.48297 29.55524 9.6297 29.78085 9.77711 30.00647 9.9259 30.23207 10.07573 30.45769 10.22661 30.6833 10.37852 30.90892 10.5318 31.13454 10.68613 31.36014 10.84149 31.58575 10.99826 31.81137 11.15569 32.03697 11.31451 32.26259 11.47438 32.4882 11.63564 32.7138 11.79793 32.93942 11.9609 33.16504 12.12563 33.39066 12.29102 33.61627 12.45781 33.84187 12.62527 34.06749 12.79451 34.2931 12.9644 34.5187 13.13568 34.74434 13.30766 34.96994 13.48103 35.19556 13.65578 35.42116 13.8312 35.64677 14.00803 35.8724 14.18588 36.09802 14.36514 36.32361 14.54507 36.54922 14.7264 36.77484 14.90875 37.00046 15.09215 37.22607 15.27693 37.45168 15.4624 37.67729 15.64961 37.90291 15.83751 38.12851 16.02643 38.35414 16.21675 38.57976 16.40811 38.80536 16.6005 39.03096 16.79428 39.25658 16.98875 39.48221 17.18462 39.70782 17.38184 39.93343 17.57977 40.15903 17.77908 40.38464 17.97945 40.61026 18.18083 40.83588 18.38326 41.0615 18.58707 41.2871 18.79193 41.51271 18.99782 41.73831 19.20474 41.96394 19.41304 42.18956 19.6224 42.41518 19.83278 42.64076 20.0442 42.86638 20.25702 43.09201 20.47087 43.31763 20.68576 43.54323 20.90167 43.76883 21.11897 43.99445 21.33699 44.22006 21.55672 44.44568 21.77713 44.6713 21.9986 44.89691 22.22144"/>
<path transform="matrix(1.00003,0,0,-1.0001,46.44838,74.02611)" stroke-width="1.19553" stroke-linecap="butt" stroke-miterlimit="10" stroke-linejoin="miter" fill="none" stroke="#009900" d="M45.35506 20.61932 45.86752 20.4013 46.37999 20.17224 46.89247 19.93279 47.40494 19.68364 47.91742 19.42412 48.42989 19.15456 48.94235 18.87532 49.45483 18.58707 49.9673 18.28879 50.47978 17.98082 50.99225 17.6642 51.50471 17.33824 52.0172 17.00328 52.52966 16.66002 53.04214 16.30914 53.55461 15.94824 54.0671 15.57971 54.57956 15.20358 55.09204 14.81982 55.6045 14.42778 56.11697 14.02881 56.62946 13.62291 57.14192 13.2094 57.6544 12.78966 58.16687 12.36368 58.67934 11.93047 59.19182 11.49168 59.70428 11.0474 60.21677 10.59651 60.72923 10.14113 61.24171 9.68022 61.75418 9.21446 62.26666 8.7435 62.77913 8.26874 63.2916 7.7895 63.80408 7.30644 64.31654 6.81923 64.82903 6.32889 65.3415 5.8351 65.85396 5.33821 66.36646 4.83888 66.8789 4.3375 67.3914 3.83333 67.90385 3.32709 68.41634 2.81944 68.9288 2.31042 69.44128 1.80005 69.95375 1.28896 70.46622 .77681 70.9787 .2647 71.49117-.24739 72.00365-.7595 72.51611-1.2713 73.02858-1.78273 73.54106-2.29314 74.05353-2.80249 74.56601-3.31012 75.07848-3.81601 75.59094-4.32053 76.10342-4.82227 76.61589-5.3216 77.12837-5.8185 77.64084-6.31229 78.15332-6.80295 78.66579-7.28983 79.17827-7.77357 79.69073-8.25249 80.2032-8.7276 80.71568-9.19888 81.22815-9.66466 81.74063-10.12556 82.2531-10.58128 82.76556-11.03252 83.27805-11.47682 83.79051-11.91592 84.30301-12.34915 84.81546-12.77548 85.32796-13.1952 85.84041-13.60905 86.35289-14.0153 86.86536-14.41428 87.37784-14.80632 87.8903-15.19112 88.40279-15.56726 88.91525-15.93579 89.42773-16.29703 89.94019-16.64825 90.45268-16.99187 90.96513-17.32716 91.47763-17.65347 91.99008-17.97044 92.50258-18.27841 93.01503-18.5774 93.52751-18.86598 94.03998-19.14557 94.55244-19.41547 95.06493-19.675 95.5774-19.92484 96.08987-20.16464 96.60234-20.3937 97.1148-20.6124 97.62729-20.82071 98.13976-21.019 98.65224-21.2055 99.1647-21.38129 99.67719-21.54738 100.18965-21.70102 100.70212-21.84393 101.2146-21.9761 101.72707-22.09758 102.23955-22.20622 102.75201-22.30449 103.2645-22.39136 103.77696-22.46643 104.28944-22.53046 104.80191-22.5827 105.31439-22.62389 105.82686-22.65225 106.33934-22.67024 106.8518-22.67717 107.36429-22.67094 107.87674-22.65398 108.38924-22.62526 108.90169-22.58513 109.41418-22.53322 109.92664-22.47023 110.43912-22.39584 110.95158-22.30934 111.46407-22.21176 111.97653-22.10344 112.48901-21.98303 113.00148-21.85118 113.51396-21.70897 114.02643-21.55568 114.53891-21.39063 115.05136-21.21484 115.56386-21.02936 116.07631-20.83144 116.5888-20.62347 117.10126-20.40547 117.61374-20.1771 118.1262-19.93765 118.63867-19.6885 119.15115-19.42966 119.66362-19.15976 120.1761-18.88084 120.68857-18.59296 121.20105-18.29468 121.71352-17.9867 122.22598-17.67009 122.73846-17.34482 123.25095-17.00987 123.76341-16.66695 124.2759-16.31573 124.78835-15.95482 125.30084-15.58698 125.8133-15.21083 126.32579-14.82744 126.83824-14.43503 127.35072-14.03642 127.86319-13.63086 128.37567-13.21735 128.88814-12.79762 129.40062-12.372 129.91309-11.93877 130.42557-11.5 130.93804-11.05605 131.45052-10.60551 131.96297-10.14978 132.47547-9.68921 132.98792-9.2238 133.50041-8.75285 134.01287-8.27774 134.52535-7.79883 135.03781-7.31578 135.5503-6.82857 136.06276-6.33823 136.57524-5.8448 137.0877-5.3479 137.60019-4.84892 138.11266-4.34683 138.62514-3.84265 139.13759-3.33711 139.65009-2.8295 140.16254-2.32011 140.67504-1.80972 141.18749-1.29863 141.69997-.78651 142.21244-.27438 142.7249 .2377 143.2374 .74983 143.74985 1.26195 144.26235 1.77304 144.7748 2.28343 145.28728 2.79247 145.79975 3.30043 146.31223 3.80632 146.82469 4.31085 147.33718 4.81259"/>
<path transform="matrix(1.00003,0,0,-1.0001,46.44838,74.02611)" stroke-width=".79701" stroke-linecap="butt" stroke-miterlimit="10" stroke-linejoin="miter" fill="none" stroke="#0000ff" d="M46.9491 22.67752C46.9491 23.55789 46.23543 24.27156 45.35506 24.27156 44.47467 24.27156 43.761 23.55789 43.761 22.67752 43.761 21.79713 44.47467 21.08347 45.35506 21.08347 46.23543 21.08347 46.9491 21.79713 46.9491 22.67752ZM45.35506 22.67752"/>
<path transform="matrix(1.00003,0,0,-1.0001,46.44838,74.02611)" d="M46.9491 20.61932C46.9491 21.4997 46.23543 22.21336 45.35506 22.21336 44.47467 22.21336 43.761 21.4997 43.761 20.61932 43.761 19.73894 44.47467 19.02527 45.35506 19.02527 46.23543 19.02527 46.9491 19.73894 46.9491 20.61932ZM45.35506 20.61932" fill="#009900"/>
</svg>
