<svg xmlns="http://www.w3.org/2000/svg" xmlns:xlink="http://www.w3.org/1999/xlink" version="1.1" width="212" height="134" viewBox="0 0 212 134">
<defs>
<path id="font_1_1" d="M.42799378 .45222474 .43899537 .49023438H.31199647L.34599305 .6092224 .33399964 .6162262 .23699951 .53923037 .22399903 .49023438H.14299011L.13198853 .45222474H.21499634L.125 .08627319C.10998535 .029266358 .12199402-.01171875 .17199707-.01171875 .2519989-.01171875 .31599427 .054275514 .35598756 .1292572L.33399964 .1462555C.31098939 .10726929 .2599945 .040267946 .22898865 .040267946 .20799256 .040267946 .20799256 .0632782 .21398926 .088272098L.30299378 .45222474H.42799378Z"/>
<path id="font_1_2" d="M.070999149 .45393373 .07398987 .42893983 .14199829 .43093873C.1639862 .43193055 .16899109 .41493226 .1769867 .36291505 .18798828 .28489686 .20999146 .09286499 .20999146 .0128479 .20999146-.017166138 .20799256-.058166505 .18598938-.11117554 .16799927-.15318299 .14199829-.18218994 .12199402-.18218994 .10699463-.18218994 .09599304-.17118836 .08099365-.15118408 .068984989-.13517761 .06098938-.127182 .04598999-.127182 .019989014-.12818909-.005004883-.15818787-.005004883-.18719483-.005004883-.21418762 .023986817-.2421875 .067993167-.2421875 .15299988-.2421875 .18998719-.17919922 .27799989-.027160645 .2979889 .0068511965 .35798646 .11286926 .41999818 .21488953 .47698976 .30891419 .5399933 .40592958 .5399933 .4459381 .5399933 .48094178 .5289917 .5019531 .5219879 .5019531 .5029907 .5019531 .46899415 .49394227 .44400025 .47694398 .44499208 .4419403 .44299317 .3809204 .43099977 .33891297 .4149933 .28289796 .35598756 .17488098 .2899933 .06085205H.2869873C.27999879 .21388245 .26098634 .42492677 .24699402 .49795533L.23899842 .5019531 .070999149 .45393373Z"/>
<path id="font_2_7" d="M.18899536 .5019531 .036987306 .47694398V.45195008L.07499695 .4469452C.100997928 .4429474 .10699463 .4379425 .10699463 .40194703V.08699036C.10699463 .035995485 .101989749 .033996583 .03199768 .0289917V0H.29599V.0289917C.20698548 .033996583 .20098877 .035995485 .20098877 .08699036V.32095338C.20098877 .39794923 .23498535 .4239502 .2579956 .4239502 .27398683 .4239502 .29100038 .4179535 .31999208 .40194703 .32699586 .39794923 .33499146 .39694215 .33999635 .39694215 .3639984 .39694215 .38598634 .4219513 .38598634 .4529419 .38598634 .47494508 .37199403 .5019531 .33299256 .5019531 .29699708 .5019531 .2669983 .47994996 .20098877 .4219513L.18899536 .5019531Z"/>
<path id="font_2_6" d="M.036987306 .47694398V.45195008L.07499695 .4469452C.100997928 .4429474 .10699463 .43795777 .10699463 .40194703V.08699036C.10699463 .035995485 .10398865 .033996583 .03199768 .0289917V0H.27598573V.0289917C.20498657 .033996583 .20098877 .035995485 .20098877 .08699036V.49609376L.19400025 .5020752 .036987306 .47694398M.15299988 .71484377C.116989139 .71484377 .09199524 .6888428 .09199524 .65283206 .09199524 .61782839 .116989139 .5928345 .15299988 .5928345 .18998719 .5928345 .21299744 .61782839 .21398926 .65283206 .21398926 .6888428 .18998719 .71484377 .15299988 .71484377Z"/>
<path id="font_2_8" d="M.36698915 .35102845V.46794129C.33399964 .49194337 .2829895 .5019531 .23799134 .5019531 .12998963 .5019531 .056991579 .45095826 .055999757 .35603334 .056991579 .27308656 .12399292 .2361145 .20698548 .21113587 .2519989 .19714356 .31498719 .17416382 .31498719 .10621643 .31498719 .055252077 .2749939 .023269654 .22200012 .023269654 .14099121 .023269654 .09599304 .082229617 .07598877 .16716004H.04699707L.056991579 .03627014C.09298706 .004272461 .1539917-.01171875 .21299744-.01171875 .33198548-.01171875 .3999939 .051254274 .3999939 .13618469 .3999939 .2241211 .34599305 .26409913 .24299622 .29606629 .20199585 .30906678 .13598633 .3300476 .13598633 .3860016 .13699341 .43795777 .17599488 .46694947 .22599793 .46694947 .29699708 .46694947 .33099366 .4119873 .33799745 .35102845H.36698915Z"/>
<path id="font_2_5" d="M.44099427 .2627716C.46199037 .2627716 .48098756 .2677765 .48098756 .30078126 .48098756 .35983277 .46199037 .5019531 .2789917 .5019531 .12298584 .5019531 .04899597 .39086915 .04899597 .24082947 .04899597 .08317566 .116989139-.01373291 .27999879-.01171875 .3909912-.010726929 .44799806 .050247194 .47499085 .1290741L.44499208 .14503479C.4169922 .08717346 .3789978 .039276124 .2999878 .039276124 .17599488 .039276124 .15098572 .15901184 .15299988 .2627716H.44099427M.1539917 .30078126C.1539917 .34181214 .16899109 .46694947 .272995 .46694947 .3659973 .46694947 .3769989 .37184144 .3769989 .33280946 .3769989 .31378175 .37098695 .30078126 .34298707 .30078126H.1539917Z"/>
<path id="font_2_1" d="M.2649994 .64468386C.3600006 .64468386 .3869934 .49682618 .3869934 .33398438 .3869934 .17112732 .3600006 .023269654 .2649994 .023269654 .16999817 .023269654 .14299011 .17112732 .14299011 .33398438 .14299011 .49682618 .16999817 .64468386 .2649994 .64468386M.2649994 .6796875C.099990848 .6796875 .040985109 .53378298 .040985109 .33398438 .040985109 .13417053 .099990848-.01171875 .2649994-.01171875 .42999269-.01171875 .4889984 .13417053 .4889984 .33398438 .4889984 .53378298 .42999269 .6796875 .2649994 .6796875Z"/>
<path id="font_2_2" d="M.43699647 0V.0289917L.35299684 .035995485C.33198548 .037994386 .31999208 .04598999 .31999208 .08496094V.67367556L.31498719 .6796875 .10899353 .6446991V.6197052L.20199585 .6087036C.21899414 .6067047 .22599793 .5987091 .22599793 .56973269V.08496094C.22599793 .065979007 .22299195 .053985597 .21699524 .04698181 .21199036 .039993287 .20399475 .036987306 .19299317 .035995485L.10899353 .0289917V0H.43699647Z"/>
<path id="font_2_3" d="M.4850006 .13195801 .45700074 .13696289C.43598939 .08299255 .41600038 .07598877 .37599183 .07598877H.11999512C.13598633 .1279602 .19499207 .19892884 .28799439 .2658844 .38398744 .33584596 .45799256 .38082887 .45799256 .49276734 .45799256 .63168337 .3659973 .6796875 .26098634 .6796875 .12399292 .6796875 .052993776 .5967102 .052993776 .54473879 .052993776 .51075747 .09098816 .49476625 .10798645 .49476625 .12599182 .49476625 .1329956 .50476077 .13699341 .5217438 .15299988 .5897064 .19198609 .64468386 .2539978 .64468386 .33099366 .64468386 .35299684 .5797119 .35299684 .50675967 .35299684 .3998108 .29899598 .33984376 .21199036 .26289369 .08898926 .15594483 .04598999 .08798218 .026992798 .009994507L.036987306 0H.45098878L.4850006 .13195801Z"/>
<path id="font_2_4" d="M.12998963 .3657837C.12998963 .3487854 .1349945 .33779908 .147995 .33779908 .1599884 .33779908 .18699646 .34777833 .23498535 .34777833 .31999208 .34777833 .36799623 .27090455 .36799623 .18403626 .36799623 .065216068 .30899049 .023269654 .23799134 .023269654 .17199707 .023269654 .1289978 .07319641 .10998535 .12911988 .10398865 .14808655 .09399414 .15707398 .07998657 .15707398 .06199646 .15707398 .026992798 .13809204 .026992798 .10215759 .026992798 .05921936 .09599304-.01171875 .23699951-.01171875 .38198854-.01171875 .47299195 .06121826 .47299195 .18902588 .47299195 .32281495 .35798646 .3627777 .30299378 .3677826V.3717804C.35699464 .38078309 .44400025 .4207611 .44400025 .5197296 .44400025 .6306915 .35699464 .6796875 .25 .6796875 .117996219 .6796875 .052993776 .60369876 .052993776 .5607147 .052993776 .5297241 .08799744 .51272585 .101989749 .51272585 .114990238 .51272585 .12298584 .5197296 .1269989 .5327301 .14898682 .60069277 .18699646 .64468386 .24299622 .64468386 .32199098 .64468386 .34098817 .57470706 .34098817 .51872256 .34098817 .4587555 .31999208 .38378907 .23498535 .38378907 .18699646 .38378907 .1599884 .39378358 .147995 .39378358 .1349945 .39378358 .12998963 .38378907 .12998963 .3657837Z"/>
</defs>
<path transform="matrix(1.00002,0,0,-1.00006,20.998162,83.890308)" stroke-width=".3985" stroke-linecap="butt" stroke-miterlimit="10" stroke-linejoin="miter" fill="none" stroke="#cbcbcb" d="M-18.14206 0H135.60692"/>
<path transform="matrix(1.00002,0,0,-1.00006,156.60779,83.890308)" stroke-width=".31879" stroke-linecap="round" stroke-linejoin="round" fill="none" stroke="#cbcbcb" d="M-1.19551 1.59401C-1.09587 .99626 0 .09961 .29886 0 0-.09961-1.09587-.99626-1.19551-1.59401"/>
<use data-text="t" xlink:href="#font_1_1" transform="matrix(10.036601,0,0,-10.037002,154.92783,93.474887)" fill="#cbcbcb"/>
<path transform="matrix(1.00002,0,0,-1.00006,20.998162,83.890308)" stroke-width=".3985" stroke-linecap="butt" stroke-miterlimit="10" stroke-linejoin="miter" fill="none" stroke="#cbcbcb" d="M0-13.60663V78.91307"/>
<path transform="matrix(0,-1.00006,-1.00002,-0,20.998162,4.9725039)" stroke-width=".31879" stroke-linecap="round" stroke-linejoin="round" fill="none" stroke="#cbcbcb" d="M-1.19551 1.59401C-1.09587 .99626 0 .09961 .29886 0 0-.09961-1.09587-.99626-1.19551-1.59401"/>
<use data-text="y" xlink:href="#font_1_2" transform="matrix(10.036601,0,0,-10.037002,11.98098,5.7636187)" fill="#cbcbcb"/>
<path transform="matrix(1.00002,0,0,-1.00006,20.998162,83.890308)" stroke-width=".3985" stroke-linecap="butt" stroke-miterlimit="10" stroke-linejoin="miter" fill="none" stroke="#000000" d="M0-45.35506V-23.13579"/>
<path transform="matrix(0,-1.00006,-1.00002,-0,20.998162,107.02748)" stroke-width=".31879" stroke-linecap="round" stroke-linejoin="round" fill="none" stroke="#000000" d="M-1.19551 1.59401C-1.09587 .99626 0 .09961 .29886 0 0-.09961-1.09587-.99626-1.19551-1.59401"/>
<use data-text="r" xlink:href="#font_2_7" transform="matrix(10.036601,0,0,-10.037002,1.1587677,110.09288)"/>
<use data-text="i" xlink:href="#font_2_6" transform="matrix(10.036601,0,0,-10.037002,5.1332628,110.09288)"/>
<use data-text="s" xlink:href="#font_2_8" transform="matrix(10.036601,0,0,-10.037002,8.06395,110.09288)"/>
<use data-text="e" xlink:href="#font_2_5" transform="matrix(10.036601,0,0,-10.037002,12.439903,110.09288)"/>
<path transform="matrix(1.00002,0,0,-1.00006,20.998162,83.890308)" stroke-width=".3985" stroke-linecap="butt" stroke-miterlimit="10" stroke-linejoin="miter" fill="none" stroke="#000000" d="M0-22.67752H44.89677"/>
<path transform="matrix(1.00002,0,0,-1.00006,65.89583,106.56918)" stroke-width=".31879" stroke-linecap="round" stroke-linejoin="round" fill="none" stroke="#000000" d="M-1.19551 1.59401C-1.09587 .99626 0 .09961 .29886 0 0-.09961-1.09587-.99626-1.19551-1.59401"/>
<use data-text="r" xlink:href="#font_2_7" transform="matrix(10.036601,0,0,-10.037002,58.133905,103.115459)"/>
<use data-text="i" xlink:href="#font_2_6" transform="matrix(10.036601,0,0,-10.037002,62.1084,103.115459)"/>
<use data-text="s" xlink:href="#font_2_8" transform="matrix(10.036601,0,0,-10.037002,65.039089,103.115459)"/>
<use data-text="e" xlink:href="#font_2_5" transform="matrix(10.036601,0,0,-10.037002,69.41504,103.115459)"/>
<path transform="matrix(1.00002,0,0,-1.00006,20.998162,83.890308)" d="M1.59404-45.35506C1.59404-44.47467 .88037-43.761 0-43.761-.88037-43.761-1.59404-44.47467-1.59404-45.35506-1.59404-46.23543-.88037-46.9491 0-46.9491 .88037-46.9491 1.59404-46.23543 1.59404-45.35506ZM0-45.35506" fill="#ccccff"/>
<path transform="matrix(1.00002,0,0,-1.00006,20.998162,83.890308)" stroke-width=".3985" stroke-linecap="butt" stroke-miterlimit="10" stroke-linejoin="miter" fill="none" stroke="#000000" d="M1.59404-45.35506C1.59404-44.47467 .88037-43.761 0-43.761-.88037-43.761-1.59404-44.47467-1.59404-45.35506-1.59404-46.23543-.88037-46.9491 0-46.9491 .88037-46.9491 1.59404-46.23543 1.59404-45.35506ZM0-45.35506"/>
<path transform="matrix(1.00002,0,0,-1.00006,20.998162,83.890308)" stroke-width=".3985" stroke-linecap="butt" stroke-miterlimit="10" stroke-linejoin="miter" fill="none" stroke="#000000" d="M0 0"/>
<use data-text="t" xlink:href="#font_1_1" transform="matrix(10.036601,0,0,-10.037002,16.96408,93.474887)"/>
<use data-text="0" xlink:href="#font_2_1" transform="matrix(7.6076529,0,0,-7.6079566,20.717156,95.11098)"/>
<path transform="matrix(1.00002,0,0,-1.00006,20.998162,83.890308)" stroke-width=".3985" stroke-linecap="butt" stroke-miterlimit="10" stroke-linejoin="miter" fill="none" stroke="#000000" d="M0-45.35506"/>
<use data-text="y" xlink:href="#font_1_2" transform="matrix(10.036601,0,0,-10.037002,7.927902,130.4971)"/>
<use data-text="0" xlink:href="#font_2_1" transform="matrix(7.6076529,0,0,-7.6079566,13.066002,132.13321)"/>
<path transform="matrix(1.00002,0,0,-1.00006,20.998162,83.890308)" stroke-width=".3985" stroke-linecap="butt" stroke-miterlimit="10" stroke-linejoin="miter" fill="none" stroke="#000000" d="M45.35506-22.67752V-.45827"/>
<path transform="matrix(0,-1.00006,-1.00002,-0,66.354129,84.3486)" stroke-width=".31879" stroke-linecap="round" stroke-linejoin="round" fill="none" stroke="#000000" d="M-1.19551 1.59401C-1.09587 .99626 0 .09961 .29886 0 0-.09961-1.09587-.99626-1.19551-1.59401"/>
<use data-text="r" xlink:href="#font_2_7" transform="matrix(10.036601,0,0,-10.037002,46.51467,87.41451)"/>
<use data-text="i" xlink:href="#font_2_6" transform="matrix(10.036601,0,0,-10.037002,50.489168,87.41451)"/>
<use data-text="s" xlink:href="#font_2_8" transform="matrix(10.036601,0,0,-10.037002,53.419855,87.41451)"/>
<use data-text="e" xlink:href="#font_2_5" transform="matrix(10.036601,0,0,-10.037002,57.795808,87.41451)"/>
<path transform="matrix(1.00002,0,0,-1.00006,20.998162,83.890308)" stroke-width=".3985" stroke-linecap="butt" stroke-miterlimit="10" stroke-linejoin="miter" fill="none" stroke="#000000" d="M45.35506 0H90.25185"/>
<path transform="matrix(1.00002,0,0,-1.00006,111.251819,83.890308)" stroke-width=".31879" stroke-linecap="round" stroke-linejoin="round" fill="none" stroke="#000000" d="M-1.19551 1.59401C-1.09587 .99626 0 .09961 .29886 0 0-.09961-1.09587-.99626-1.19551-1.59401"/>
<use data-text="r" xlink:href="#font_2_7" transform="matrix(10.036601,0,0,-10.037002,103.489818,80.437099)"/>
<use data-text="i" xlink:href="#font_2_6" transform="matrix(10.036601,0,0,-10.037002,107.46431,80.437099)"/>
<use data-text="s" xlink:href="#font_2_8" transform="matrix(10.036601,0,0,-10.037002,110.395,80.437099)"/>
<use data-text="e" xlink:href="#font_2_5" transform="matrix(10.036601,0,0,-10.037002,114.77095,80.437099)"/>
<path transform="matrix(1.00002,0,0,-1.00006,20.998162,83.890308)" d="M46.9491-22.67752C46.9491-21.79713 46.23543-21.08347 45.35506-21.08347 44.47467-21.08347 43.761-21.79713 43.761-22.67752 43.761-23.55789 44.47467-24.27156 45.35506-24.27156 46.23543-24.27156 46.9491-23.55789 46.9491-22.67752ZM45.35506-22.67752" fill="#ccccff"/>
<path transform="matrix(1.00002,0,0,-1.00006,20.998162,83.890308)" stroke-width=".3985" stroke-linecap="butt" stroke-miterlimit="10" stroke-linejoin="miter" fill="none" stroke="#000000" d="M46.9491-22.67752C46.9491-21.79713 46.23543-21.08347 45.35506-21.08347 44.47467-21.08347 43.761-21.79713 43.761-22.67752 43.761-23.55789 44.47467-24.27156 45.35506-24.27156 46.23543-24.27156 46.9491-23.55789 46.9491-22.67752ZM45.35506-22.67752"/>
<path transform="matrix(1.00002,0,0,-1.00006,20.998162,83.890308)" stroke-width=".3985" stroke-linecap="butt" stroke-miterlimit="10" stroke-linejoin="miter" fill="none" stroke="#000000" d="M45.35506 0"/>
<use data-text="t" xlink:href="#font_1_1" transform="matrix(10.036601,0,0,-10.037002,62.31999,93.474887)"/>
<use data-text="1" xlink:href="#font_2_2" transform="matrix(7.6076529,0,0,-7.6079566,66.07306,95.11098)"/>
<path transform="matrix(1.00002,0,0,-1.00006,20.998162,83.890308)" stroke-width=".3985" stroke-linecap="butt" stroke-miterlimit="10" stroke-linejoin="miter" fill="none" stroke="#000000" d="M0-22.67752"/>
<use data-text="y" xlink:href="#font_1_2" transform="matrix(10.036601,0,0,-10.037002,7.927902,107.81874)"/>
<use data-text="1" xlink:href="#font_2_2" transform="matrix(7.6076529,0,0,-7.6079566,13.066002,109.45484)"/>
<path transform="matrix(1.00002,0,0,-1.00006,20.998162,83.890308)" stroke-width=".3985" stroke-linecap="butt" stroke-miterlimit="10" stroke-linejoin="miter" fill="none" stroke="#000000" d="M90.71013 0V22.21924"/>
<path transform="matrix(0,-1.00006,-1.00002,-0,111.710109,61.66973)" stroke-width=".31879" stroke-linecap="round" stroke-linejoin="round" fill="none" stroke="#000000" d="M-1.19551 1.59401C-1.09587 .99626 0 .09961 .29886 0 0-.09961-1.09587-.99626-1.19551-1.59401"/>
<use data-text="r" xlink:href="#font_2_7" transform="matrix(10.036601,0,0,-10.037002,91.87058,64.73515)"/>
<use data-text="i" xlink:href="#font_2_6" transform="matrix(10.036601,0,0,-10.037002,95.84508,64.73515)"/>
<use data-text="s" xlink:href="#font_2_8" transform="matrix(10.036601,0,0,-10.037002,98.775768,64.73515)"/>
<use data-text="e" xlink:href="#font_2_5" transform="matrix(10.036601,0,0,-10.037002,103.15172,64.73515)"/>
<path transform="matrix(1.00002,0,0,-1.00006,20.998162,83.890308)" stroke-width=".3985" stroke-linecap="butt" stroke-miterlimit="10" stroke-linejoin="miter" fill="none" stroke="#000000" d="M90.71013 22.67752H135.60692"/>
<path transform="matrix(1.00002,0,0,-1.00006,156.60779,61.211427)" stroke-width=".31879" stroke-linecap="round" stroke-linejoin="round" fill="none" stroke="#000000" d="M-1.19551 1.59401C-1.09587 .99626 0 .09961 .29886 0 0-.09961-1.09587-.99626-1.19551-1.59401"/>
<use data-text="r" xlink:href="#font_2_7" transform="matrix(10.036601,0,0,-10.037002,148.84574,57.757738)"/>
<use data-text="i" xlink:href="#font_2_6" transform="matrix(10.036601,0,0,-10.037002,152.82022,57.757738)"/>
<use data-text="s" xlink:href="#font_2_8" transform="matrix(10.036601,0,0,-10.037002,155.75092,57.757738)"/>
<use data-text="e" xlink:href="#font_2_5" transform="matrix(10.036601,0,0,-10.037002,160.12686,57.757738)"/>
<path transform="matrix(1.00002,0,0,-1.00006,20.998162,83.890308)" d="M92.30417 0C92.30417 .88037 91.5905 1.59404 90.71013 1.59404 89.82974 1.59404 89.11607 .88037 89.11607 0 89.11607-.88037 89.82974-1.59404 90.71013-1.59404 91.5905-1.59404 92.30417-.88037 92.30417 0ZM90.71013 0" fill="#ccccff"/>
<path transform="matrix(1.00002,0,0,-1.00006,20.998162,83.890308)" stroke-width=".3985" stroke-linecap="butt" stroke-miterlimit="10" stroke-linejoin="miter" fill="none" stroke="#000000" d="M92.30417 0C92.30417 .88037 91.5905 1.59404 90.71013 1.59404 89.82974 1.59404 89.11607 .88037 89.11607 0 89.11607-.88037 89.82974-1.59404 90.71013-1.59404 91.5905-1.59404 92.30417-.88037 92.30417 0ZM90.71013 0"/>
<path transform="matrix(1.00002,0,0,-1.00006,20.998162,83.890308)" stroke-width=".3985" stroke-linecap="butt" stroke-miterlimit="10" stroke-linejoin="miter" fill="none" stroke="#000000" d="M90.71013 0"/>
<use data-text="t" xlink:href="#font_1_1" transform="matrix(10.036601,0,0,-10.037002,107.675899,93.474887)"/>
<use data-text="2" xlink:href="#font_2_3" transform="matrix(7.6076529,0,0,-7.6079566,111.42897,95.11098)"/>
<path transform="matrix(1.00002,0,0,-1.00006,20.998162,83.890308)" stroke-width=".3985" stroke-linecap="butt" stroke-miterlimit="10" stroke-linejoin="miter" fill="none" stroke="#000000" d="M0 0"/>
<use data-text="y" xlink:href="#font_1_2" transform="matrix(10.036601,0,0,-10.037002,7.927902,85.13938)"/>
<use data-text="2" xlink:href="#font_2_3" transform="matrix(7.6076529,0,0,-7.6079566,13.066002,86.77548)"/>
<path transform="matrix(1.00002,0,0,-1.00006,20.998162,83.890308)" stroke-width=".3985" stroke-linecap="butt" stroke-miterlimit="10" stroke-linejoin="miter" fill="none" stroke="#000000" d="M136.0652 22.67752V44.89677"/>
<path transform="matrix(0,-1.00006,-1.00002,-0,157.0661,38.99084)" stroke-width=".31879" stroke-linecap="round" stroke-linejoin="round" fill="none" stroke="#000000" d="M-1.19551 1.59401C-1.09587 .99626 0 .09961 .29886 0 0-.09961-1.09587-.99626-1.19551-1.59401"/>
<use data-text="r" xlink:href="#font_2_7" transform="matrix(10.036601,0,0,-10.037002,137.22649,42.056795)"/>
<use data-text="i" xlink:href="#font_2_6" transform="matrix(10.036601,0,0,-10.037002,141.20099,42.056795)"/>
<use data-text="s" xlink:href="#font_2_8" transform="matrix(10.036601,0,0,-10.037002,144.13167,42.056795)"/>
<use data-text="e" xlink:href="#font_2_5" transform="matrix(10.036601,0,0,-10.037002,148.50763,42.056795)"/>
<path transform="matrix(1.00002,0,0,-1.00006,20.998162,83.890308)" stroke-width=".3985" stroke-linecap="butt" stroke-miterlimit="10" stroke-linejoin="miter" fill="none" stroke="#000000" d="M136.0652 45.35506H180.96199"/>
<path transform="matrix(1.00002,0,0,-1.00006,201.96378,38.532526)" stroke-width=".31879" stroke-linecap="round" stroke-linejoin="round" fill="none" stroke="#000000" d="M-1.19551 1.59401C-1.09587 .99626 0 .09961 .29886 0 0-.09961-1.09587-.99626-1.19551-1.59401"/>
<use data-text="r" xlink:href="#font_2_7" transform="matrix(10.036601,0,0,-10.037002,194.20163,35.07838)"/>
<use data-text="i" xlink:href="#font_2_6" transform="matrix(10.036601,0,0,-10.037002,198.17612,35.07838)"/>
<use data-text="s" xlink:href="#font_2_8" transform="matrix(10.036601,0,0,-10.037002,201.10681,35.07838)"/>
<use data-text="e" xlink:href="#font_2_5" transform="matrix(10.036601,0,0,-10.037002,205.48276,35.07838)"/>
<path transform="matrix(1.00002,0,0,-1.00006,20.998162,83.890308)" d="M137.65924 22.67752C137.65924 23.55789 136.94557 24.27156 136.0652 24.27156 135.18482 24.27156 134.47115 23.55789 134.47115 22.67752 134.47115 21.79713 135.18482 21.08347 136.0652 21.08347 136.94557 21.08347 137.65924 21.79713 137.65924 22.67752ZM136.0652 22.67752" fill="#ccccff"/>
<path transform="matrix(1.00002,0,0,-1.00006,20.998162,83.890308)" stroke-width=".3985" stroke-linecap="butt" stroke-miterlimit="10" stroke-linejoin="miter" fill="none" stroke="#000000" d="M137.65924 22.67752C137.65924 23.55789 136.94557 24.27156 136.0652 24.27156 135.18482 24.27156 134.47115 23.55789 134.47115 22.67752 134.47115 21.79713 135.18482 21.08347 136.0652 21.08347 136.94557 21.08347 137.65924 21.79713 137.65924 22.67752ZM136.0652 22.67752"/>
<path transform="matrix(1.00002,0,0,-1.00006,20.998162,83.890308)" stroke-width=".3985" stroke-linecap="butt" stroke-miterlimit="10" stroke-linejoin="miter" fill="none" stroke="#000000" d="M136.0652 0"/>
<use data-text="t" xlink:href="#font_1_1" transform="matrix(10.036601,0,0,-10.037002,153.0318,93.474887)"/>
<use data-text="3" xlink:href="#font_2_4" transform="matrix(7.6076529,0,0,-7.6079566,156.78488,95.11098)"/>
<path transform="matrix(1.00002,0,0,-1.00006,20.998162,83.890308)" stroke-width=".3985" stroke-linecap="butt" stroke-miterlimit="10" stroke-linejoin="miter" fill="none" stroke="#000000" d="M0 22.67752"/>
<use data-text="y" xlink:href="#font_1_2" transform="matrix(10.036601,0,0,-10.037002,7.927902,62.46102)"/>
<use data-text="3" xlink:href="#font_2_4" transform="matrix(7.6076529,0,0,-7.6079566,13.066002,64.09712)"/>
</svg>
