<svg xmlns="http://www.w3.org/2000/svg" xmlns:xlink="http://www.w3.org/1999/xlink" version="1.1" width="156" height="107" viewBox="0 0 156 107">
<defs>
<path id="font_1_1" d="M.43199159 .49023438H.3019867L.32998658 .6031952C.34899903 .67918398 .36799623 .70718386 .3959961 .70718386 .4229889 .70718386 .44099427 .68518069 .46299745 .6371918 .46798707 .62719729 .47499085 .6201935 .48999024 .6201935 .5099945 .6201935 .5389862 .6391907 .5389862 .6641846 .5389862 .70718386 .4850006 .7421875 .4249878 .7421875 .3600006 .7421875 .31799317 .71517947 .2849884 .67318728 .2539978 .63420107 .23399353 .5802002 .21998596 .5272217L.20999146 .49023438H.12298584L.11199951 .45222474H.20098877L.084991458-.137146C.07299805-.19918823 .06298828-.2052002 .052993776-.2052002 .041992189-.2052002 .026992798-.19718933 0-.15615845-.007003784-.14616394-.014007568-.13415528-.027008057-.13415528-.04901123-.13415528-.072006229-.15916443-.072006229-.18418885-.071014408-.2171936-.028015137-.2421875 .018997193-.2421875 .11898804-.2421875 .16099549-.16116333 .20298767 .030960083L.29599 .45222474H.42199708L.43199159 .49023438Z"/>
<path id="font_2_1" d="M.1749878 .2822113C.1749878 .56832888 .2619934 .65437319 .32499696 .66737368V.6923828C.1499939 .685379 .10499573 .46829225 .10499573 .2822113 .10499573 .09614563 .1499939-.12094116 .32499696-.12792969V-.10293579C.2669983-.090927127 .1749878-.0059051516 .1749878 .2822113Z"/>
<path id="font_1_3" d="M.070999149 .45393373 .07398987 .42893983 .14199829 .43093873C.1639862 .43193055 .16899109 .41493226 .1769867 .36291505 .18798828 .28489686 .20999146 .09286499 .20999146 .0128479 .20999146-.017166138 .20799256-.058166505 .18598938-.11117554 .16799927-.15318299 .14199829-.18218994 .12199402-.18218994 .10699463-.18218994 .09599304-.17118836 .08099365-.15118408 .068984989-.13517761 .06098938-.127182 .04598999-.127182 .019989014-.12818909-.005004883-.15818787-.005004883-.18719483-.005004883-.21418762 .023986817-.2421875 .067993167-.2421875 .15299988-.2421875 .18998719-.17919922 .27799989-.027160645 .2979889 .0068511965 .35798646 .11286926 .41999818 .21488953 .47698976 .30891419 .5399933 .40592958 .5399933 .4459381 .5399933 .48094178 .5289917 .5019531 .5219879 .5019531 .5029907 .5019531 .46899415 .49394227 .44400025 .47694398 .44499208 .4419403 .44299317 .3809204 .43099977 .33891297 .4149933 .28289796 .35598756 .17488098 .2899933 .06085205H.2869873C.27999879 .21388245 .26098634 .42492677 .24699402 .49795533L.23899842 .5019531 .070999149 .45393373Z"/>
<path id="font_2_2" d="M.1749878 .2822113C.1749878-.0059051516 .08299255-.090927127 .024993897-.10293579V-.12792969C.19999695-.12094116 .24499512 .09614563 .24499512 .2822113 .24499512 .46829225 .19999695 .685379 .024993897 .6923828V.66737368C.08799744 .65437319 .1749878 .56832888 .1749878 .2822113Z"/>
<path id="font_2_12" d="M.036987306 .47694398V.45195008L.07499695 .4469452C.100997928 .4429474 .10699463 .43795777 .10699463 .40194703V.08699036C.10699463 .035995485 .10398865 .033996583 .03199768 .0289917V0H.27598573V.0289917C.20498657 .033996583 .20098877 .035995485 .20098877 .08699036V.49609376L.19400025 .5020752 .036987306 .47694398M.15299988 .71484377C.116989139 .71484377 .09199524 .6888428 .09199524 .65283206 .09199524 .61782839 .116989139 .5928345 .15299988 .5928345 .18998719 .5928345 .21299744 .61782839 .21398926 .65283206 .21398926 .6888428 .18998719 .71484377 .15299988 .71484377Z"/>
<path id="font_2_14" d="M.5289917 .34295655C.5289917 .4439392 .47399903 .5019531 .38198854 .5019531 .30799867 .5019531 .2619934 .46594239 .19999695 .4259491L.18598938 .5019531 .036987306 .47694398V.45195008L.07499695 .4469452C.100997928 .4429474 .10699463 .4379425 .10699463 .40194703V.08699036C.10699463 .035995485 .10398865 .033996583 .03199768 .0289917V0H.27598573V.0289917C.20498657 .033996583 .20098877 .035995485 .20098877 .08699036V.32095338C.20098877 .34596253 .20298767 .35995484 .21099854 .37594605 .23199463 .4149475 .2769928 .44795228 .32998658 .44795228 .397995 .44795228 .43499757 .40994264 .43499757 .32295228V.08699036C.43499757 .035995485 .43199159 .033996583 .3600006 .0289917V0H.60398867V.0289917C.5329895 .033996583 .5289917 .035995485 .5289917 .08699036V.34295655Z"/>
<path id="font_2_8" d="M.2999878 .040267946C.18099976 .040267946 .15299988 .16418457 .15299988 .25810243 .15299988 .40699769 .21199036 .46694947 .2809906 .46694947 .32699586 .46694947 .35598756 .43397523 .37599183 .38000489 .38198854 .36402894 .3880005 .35403443 .40699769 .35403443 .4269867 .35403443 .46598817 .36701966 .46598817 .40499879 .46598817 .45095826 .3999939 .5019531 .2919922 .5019531 .10998535 .5019531 .04899597 .37301637 .04899597 .2401123 .04899597 .07324219 .1309967-.01171875 .2809906-.01171875 .35099793-.01171875 .44499208 .025268555 .47299195 .13220215L.44400025 .14619446C.41299439 .07624817 .37298585 .040267946 .2999878 .040267946Z"/>
<path id="font_2_17" d="M.18899536 .5019531 .036987306 .47694398V.45195008L.07499695 .4469452C.100997928 .4429474 .10699463 .4379425 .10699463 .40194703V.08699036C.10699463 .035995485 .101989749 .033996583 .03199768 .0289917V0H.29599V.0289917C.20698548 .033996583 .20098877 .035995485 .20098877 .08699036V.32095338C.20098877 .39794923 .23498535 .4239502 .2579956 .4239502 .27398683 .4239502 .29100038 .4179535 .31999208 .40194703 .32699586 .39794923 .33499146 .39694215 .33999635 .39694215 .3639984 .39694215 .38598634 .4219513 .38598634 .4529419 .38598634 .47494508 .37199403 .5019531 .33299256 .5019531 .29699708 .5019531 .2669983 .47994996 .20098877 .4219513L.18899536 .5019531Z"/>
<path id="font_2_10" d="M.44099427 .2627716C.46199037 .2627716 .48098756 .2677765 .48098756 .30078126 .48098756 .35983277 .46199037 .5019531 .2789917 .5019531 .12298584 .5019531 .04899597 .39086915 .04899597 .24082947 .04899597 .08317566 .116989139-.01373291 .27999879-.01171875 .3909912-.010726929 .44799806 .050247194 .47499085 .1290741L.44499208 .14503479C.4169922 .08717346 .3789978 .039276124 .2999878 .039276124 .17599488 .039276124 .15098572 .15901184 .15299988 .2627716H.44099427M.1539917 .30078126C.1539917 .34181214 .16899109 .46694947 .272995 .46694947 .3659973 .46694947 .3769989 .37184144 .3769989 .33280946 .3769989 .31378175 .37098695 .30078126 .34298707 .30078126H.1539917Z"/>
<path id="font_2_7" d="M.34298707 .14318848C.34298707 .06225586 .2809906 .041275026 .24198914 .041275026 .17999268 .041275026 .1499939 .085235599 .1499939 .14419556 .1499939 .19116211 .17199707 .21513367 .22799683 .23612976 .2679901 .2511139 .32099916 .27009584 .34298707 .28408814V.14318848M.43299867 .36901856C.43299867 .42697145 .41999818 .5019531 .2689972 .5019531 .1559906 .5019531 .066986087 .44296266 .066986087 .3880005 .066986087 .35603334 .10398865 .3410492 .12298584 .3410492 .14399719 .3410492 .1499939 .35203553 .15499878 .36901856 .1769867 .44296266 .21798706 .46694947 .2579956 .46694947 .29699708 .46694947 .34298707 .44696046 .34298707 .36701966V.32505799C.31799317 .29907228 .22099304 .27409364 .14199829 .24911499 .069992069 .22712708 .04899597 .1771698 .04899597 .13020325 .04899597 .055267335 .09899902-.01171875 .19299317-.01171875 .25498963-.009719849 .30999757 .027267456 .34199525 .04826355 .35598756 .011276245 .37199403-.01171875 .40699769-.01171875 .44400025-.01171875 .4869995-.0007324219 .5249939 .01828003L.5189972 .042266847C.5049896 .039276124 .48298646 .03727722 .46798707 .041275026 .44999696 .045272829 .43299867 .06425476 .43299867 .12721253V.36901856Z"/>
<path id="font_2_18" d="M.36698915 .35102845V.46794129C.33399964 .49194337 .2829895 .5019531 .23799134 .5019531 .12998963 .5019531 .056991579 .45095826 .055999757 .35603334 .056991579 .27308656 .12399292 .2361145 .20698548 .21113587 .2519989 .19714356 .31498719 .17416382 .31498719 .10621643 .31498719 .055252077 .2749939 .023269654 .22200012 .023269654 .14099121 .023269654 .09599304 .082229617 .07598877 .16716004H.04699707L.056991579 .03627014C.09298706 .004272461 .1539917-.01171875 .21299744-.01171875 .33198548-.01171875 .3999939 .051254274 .3999939 .13618469 .3999939 .2241211 .34599305 .26409913 .24299622 .29606629 .20199585 .30906678 .13598633 .3300476 .13598633 .3860016 .13699341 .43795777 .17599488 .46694947 .22599793 .46694947 .29699708 .46694947 .33099366 .4119873 .33799745 .35102845H.36698915Z"/>
<path id="font_2_11" d="M.2599945 .46694947C.30899049 .46694947 .3600006 .43093873 .3600006 .33392335 .3600006 .24989319 .31599427 .20588684 .2579956 .20588684 .20199585 .20588684 .15499878 .24989319 .15499878 .33392335 .15499878 .43293763 .20698548 .46694947 .2599945 .46694947M.2809906-.2071991C.19599915-.2071991 .13699341-.16319275 .13699341-.09118652 .13699341-.057174684 .14698792-.032180787 .16799927-.016174317 .18998719 .0008239746 .22299195 .0068359377 .2709961 .0068359377 .35899354 .0068359377 .42399598-.014175415 .42399598-.08918762 .42399598-.16918946 .35198976-.2071991 .2809906-.2071991M.3889923 .47094728C.36099244 .48994447 .30599977 .5019531 .2599945 .5019531 .10699463 .5019531 .052993776 .40792848 .052993776 .33392335 .052993776 .23989868 .114990238 .19688416 .16099549 .18489075V.18289185C.10699463 .1618805 .068984989 .13285828 .068984989 .09384155 .068984989 .05882263 .10899353 .020828248 .15699768 .015823365V.013824463C.11399841-.00016784668 .041992189-.024169922 .041992189-.09617615 .041992189-.19718933 .14199829-.2421875 .2579956-.2421875 .31799317-.2421875 .3809967-.23019409 .42900086-.20118714 .47499085-.17318726 .5079956-.12619019 .5079956-.06417847 .5079956 .043823244 .42199708 .081832889 .31498719 .081832889H.23498535C.16299439 .081832889 .1519928 .10585022 .1519928 .12486267 .1519928 .15388489 .18998719 .16989136 .20298767 .17388916 .22200012 .17189026 .24299622 .17089844 .2539978 .17089844 .34899903 .17089844 .45599366 .21289063 .45599366 .33392335 .45599366 .3759308 .44299317 .41093446 .42599488 .42793275L.5049896 .4399414 .5249939 .50294497 .5169983 .51194766 .3889923 .47094728Z"/>
<path id="font_2_19" d="M.32598878 .45022584V.49023438H.19699097V.6162262H.16799927L.10699463 .49023438H.0309906V.45022584H.102996829V.102264408C.102996829 .0002746582 .1789856-.01171875 .21398926-.01171875 .2649994-.01171875 .31298829 .014266968 .34199525 .03227234L.33399964 .053268434C.30999757 .043273927 .28799439 .040267946 .2630005 .040267946 .22898865 .040267946 .19699097 .06427002 .19699097 .14025879V.45022584H.32598878Z"/>
<path id="font_2_20" d="M.33898927 .49023438V.46122743L.3880005 .45622254C.4039917 .45422364 .40699769 .44322206 .40299989 .42921449 .394989 .39718629 .37599183 .3391571 .35299684 .27511598L.28599549 .08999634H.28399659L.22299195 .25810243C.20298767 .31513978 .18299866 .37316896 .1639862 .42721559 .15699768 .44622804 .16099549 .45422364 .17999268 .45622254L.22499085 .46122743V.49023438H.0009918213V.46122743C.04798889 .4572296 .056991579 .4532318 .07199097 .41619874 .09899902 .3501587 .12199402 .28511048 .14698792 .21607971L.22399903 0H.29599L.3849945 .24209595C.4139862 .32014466 .44299317 .3861847 .45700074 .41819764 .47200013 .4532318 .48298646 .45922853 .5289917 .46122743V.49023438H.33898927Z"/>
<path id="font_2_13" d="M.18899536 .7361908 .18199158 .7421875 .024993897 .71717837V.6921692L.06298828 .6881714C.08898926 .6851654 .09498596 .6801758 .09498596 .6421509V.087005618C.09498596 .035995485 .09199524 .033996583 .019989014 .0289917V0H.2639923V.0289917C.19299317 .033996583 .18899536 .035995485 .18899536 .087005618V.7361908Z"/>
<path id="font_2_15" d="M.28799439 .5019531C.12799073 .5019531 .04899597 .40698243 .04899597 .24510193 .04899597 .083236698 .12799073-.01171875 .28799439-.01171875 .44999696-.01171875 .5279999 .083236698 .5279999 .24510193 .5279999 .40698243 .44999696 .5019531 .28799439 .5019531M.15299988 .24510193C.15299988 .38301087 .19699097 .46694947 .28799439 .46694947 .3809967 .46694947 .42399598 .38301087 .42399598 .24510193 .42399598 .10720825 .3809967 .023269654 .28799439 .023269654 .19699097 .023269654 .15299988 .10720825 .15299988 .24510193Z"/>
<path id="font_2_16" d="M.19400025 .32104493C.19400025 .34602357 .19799805 .36001588 .20698548 .37800599 .22999573 .42396546 .272995 .44795228 .32598878 .44795228 .3659973 .44795228 .45498658 .42196656 .45498658 .25009156 .45498658 .10321045 .40899659 .023269654 .30899049 .023269654 .25698854 .023269654 .21699524 .050247194 .20098877 .096221927 .19499207 .11419678 .19400025 .13418579 .19400025 .15716553V.32104493M.02999878 .47694398V.45195008L.067993167 .4469452C.09399414 .4429474 .099990848 .43795777 .099990848 .40197755V-.14324951C.099990848-.19444275 .09498596-.19645691 .024993897-.20147705V-.23046875H.28399659V-.20147705C.19999695-.19645691 .19400025-.19444275 .19400025-.14324951V.011276245C.21499634-.0007324219 .2619934-.01171875 .30799867-.01171875 .44299317-.01171875 .5589905 .050247194 .5589905 .25608827 .5589905 .32704164 .54599 .5019531 .3639984 .5019531 .29100038 .5019531 .23298645 .4529419 .19400025 .42796327L.18099976 .5019531 .02999878 .47694398Z"/>
<path id="font_2_9" d="M.58299258 0V.0289917C.5119934 .033996583 .5079956 .035995485 .5079956 .08699036V.73617556L.5009918 .7421875 .34399415 .7171478V.6921234L.38198854 .6881256C.4079895 .6851196 .4139862 .68011477 .4139862 .6420746V.47795106C.38598634 .49295045 .34899903 .5019531 .30299378 .5019531 .22099304 .5019531 .1599884 .47595216 .117996219 .43295289 .07499695 .3879547 .04899597 .32196046 .04899597 .2349701 .04899597 .0872345 .12599182-.01171875 .2579956-.01171875 .31199647-.01171875 .35899354 .012268066 .41299439 .056259157V.0069885256L.42099 0H.58299258M.4139862 .16998291C.4139862 .14819336 .41299439 .13121033 .40699769 .114212039 .3869934 .06225586 .34298707 .042266847 .29100038 .042266847 .19898987 .042266847 .15299988 .13220215 .15299988 .24711609 .15299988 .37701417 .19999695 .46694947 .3019867 .46694947 .34899903 .46694947 .3869934 .44496156 .40499879 .4039917 .41299439 .38700868 .4139862 .37301637 .4139862 .34603883V.16998291Z"/>
<path id="font_1_2" d="M.42799378 .45222474 .43899537 .49023438H.31199647L.34599305 .6092224 .33399964 .6162262 .23699951 .53923037 .22399903 .49023438H.14299011L.13198853 .45222474H.21499634L.125 .08627319C.10998535 .029266358 .12199402-.01171875 .17199707-.01171875 .2519989-.01171875 .31599427 .054275514 .35598756 .1292572L.33399964 .1462555C.31098939 .10726929 .2599945 .040267946 .22898865 .040267946 .20799256 .040267946 .20799256 .0632782 .21398926 .088272098L.30299378 .45222474H.42799378Z"/>
<path id="font_2_4" d="M.2649994 .64468386C.3600006 .64468386 .3869934 .49682618 .3869934 .33398438 .3869934 .17112732 .3600006 .023269654 .2649994 .023269654 .16999817 .023269654 .14299011 .17112732 .14299011 .33398438 .14299011 .49682618 .16999817 .64468386 .2649994 .64468386M.2649994 .6796875C.099990848 .6796875 .040985109 .53378298 .040985109 .33398438 .040985109 .13417053 .099990848-.01171875 .2649994-.01171875 .42999269-.01171875 .4889984 .13417053 .4889984 .33398438 .4889984 .53378298 .42999269 .6796875 .2649994 .6796875Z"/>
<path id="font_2_5" d="M.43699647 0V.0289917L.35299684 .035995485C.33198548 .037994386 .31999208 .04598999 .31999208 .08496094V.67367556L.31498719 .6796875 .10899353 .6446991V.6197052L.20199585 .6087036C.21899414 .6067047 .22599793 .5987091 .22599793 .56973269V.08496094C.22599793 .065979007 .22299195 .053985597 .21699524 .04698181 .21199036 .039993287 .20399475 .036987306 .19299317 .035995485L.10899353 .0289917V0H.43699647Z"/>
<path id="font_2_6" d="M.4850006 .13195801 .45700074 .13696289C.43598939 .08299255 .41600038 .07598877 .37599183 .07598877H.11999512C.13598633 .1279602 .19499207 .19892884 .28799439 .2658844 .38398744 .33584596 .45799256 .38082887 .45799256 .49276734 .45799256 .63168337 .3659973 .6796875 .26098634 .6796875 .12399292 .6796875 .052993776 .5967102 .052993776 .54473879 .052993776 .51075747 .09098816 .49476625 .10798645 .49476625 .12599182 .49476625 .1329956 .50476077 .13699341 .5217438 .15299988 .5897064 .19198609 .64468386 .2539978 .64468386 .33099366 .64468386 .35299684 .5797119 .35299684 .50675967 .35299684 .3998108 .29899598 .33984376 .21199036 .26289369 .08898926 .15594483 .04598999 .08798218 .026992798 .009994507L.036987306 0H.45098878L.4850006 .13195801Z"/>
<path id="font_2_3" d="M.07398987 .2861328V.21612549H.31900025V.2861328H.07398987Z"/>
</defs>
<path transform="matrix(1.00005,0,0,-1.00005,53.075998,51.578927)" stroke-width=".3985" stroke-linecap="butt" stroke-miterlimit="10" stroke-linejoin="miter" fill="none" stroke="#000000" d="M-49.88289-19.95276 56.31517 22.52563"/>
<path transform="matrix(.92848637,-.37138853,-.37138853,-.92848637,109.578998,28.978157)" stroke-width=".3985" stroke-linecap="round" stroke-linejoin="round" fill="none" stroke="#000000" d="M-2.07224 2.39104C-1.69365 .95639-.84999 .27895 0 0-.84999-.27895-1.69365-.95639-2.07224-2.39104"/>
<path transform="matrix(1.00005,0,0,-1.00005,53.075998,51.578927)" stroke-width=".3985" stroke-linecap="butt" stroke-miterlimit="10" stroke-linejoin="miter" fill="none" stroke="#000000" d="M0-22.67406V49.48438"/>
<path transform="matrix(0,-1.00005,-1.00005,-0,53.075998,1.8928223)" stroke-width=".3985" stroke-linecap="round" stroke-linejoin="round" fill="none" stroke="#000000" d="M-2.07224 2.39104C-1.69365 .95639-.84999 .27895 0 0-.84999-.27895-1.69365-.95639-2.07224-2.39104"/>
<use data-text="f" xlink:href="#font_1_1" transform="matrix(5.499675,0,0,-5.499675,39.37731,5.907646)"/>
<use data-text="(" xlink:href="#font_2_1" transform="matrix(5.499675,0,0,-5.499675,42.450464,5.907646)"/>
<use data-text="y" xlink:href="#font_1_3" transform="matrix(5.499675,0,0,-5.499675,44.673578,5.907646)"/>
<use data-text=")" xlink:href="#font_2_2" transform="matrix(5.499675,0,0,-5.499675,47.752717,5.907646)"/>
<path transform="matrix(1.00005,0,0,-1.00005,53.075998,51.578927)" stroke-width=".3985" stroke-linecap="butt" stroke-dasharray="2.98883,2.98883" stroke-miterlimit="10" stroke-linejoin="miter" fill="none" stroke="#000000" d="M-22.67406 13.60461V-9.06944"/>
<use data-text="i" xlink:href="#font_2_12" transform="matrix(5.499675,-2.1998699,0,-5.499675,15.085098,39.34712)"/>
<use data-text="n" xlink:href="#font_2_14" transform="matrix(5.499675,-2.1998699,0,-5.499675,16.685509,38.706956)"/>
<use data-text="c" xlink:href="#font_2_8" transform="matrix(5.499675,-2.1998699,0,-5.499675,20.089806,37.345239)"/>
<use data-text="r" xlink:href="#font_2_17" transform="matrix(5.499675,-2.1998699,0,-5.499675,22.817643,36.2541)"/>
<use data-text="e" xlink:href="#font_2_10" transform="matrix(5.499675,-2.1998699,0,-5.499675,24.852509,35.440156)"/>
<use data-text="a" xlink:href="#font_2_7" transform="matrix(5.499675,-2.1998699,0,-5.499675,27.679337,34.30942)"/>
<use data-text="s" xlink:href="#font_2_18" transform="matrix(5.499675,-2.1998699,0,-5.499675,30.55568,33.15889)"/>
<use data-text="i" xlink:href="#font_2_12" transform="matrix(5.499675,-2.1998699,0,-5.499675,32.948045,32.201944)"/>
<use data-text="n" xlink:href="#font_2_14" transform="matrix(5.499675,-2.1998699,0,-5.499675,34.548448,31.561779)"/>
<use data-text="g" xlink:href="#font_2_11" transform="matrix(5.499675,-2.1998699,0,-5.499675,37.952745,30.200062)"/>
<use data-text="f" xlink:href="#font_1_1" transform="matrix(5.499675,-2.1998699,0,-5.499675,42.64348,28.323765)"/>
<path transform="matrix(1.00005,0,0,-1.00005,53.075998,51.578927)" stroke-width=".3985" stroke-linecap="butt" stroke-miterlimit="10" stroke-linejoin="miter" fill="none" stroke="#000000" d="M-38.54584-7.48198"/>
<use data-text="n" xlink:href="#font_2_14" transform="matrix(5.499675,-2.1998699,0,-5.499675,4.0155489,58.513078)"/>
<use data-text="e" xlink:href="#font_2_10" transform="matrix(5.499675,-2.1998699,0,-5.499675,7.4198458,57.151357)"/>
<use data-text="g" xlink:href="#font_2_11" transform="matrix(5.499675,-2.1998699,0,-5.499675,10.246681,56.020624)"/>
<use data-text="a" xlink:href="#font_2_7" transform="matrix(5.499675,-2.1998699,0,-5.499675,13.106522,54.87669)"/>
<use data-text="t" xlink:href="#font_2_19" transform="matrix(5.499675,-2.1998699,0,-5.499675,15.982849,53.726156)"/>
<use data-text="i" xlink:href="#font_2_12" transform="matrix(5.499675,-2.1998699,0,-5.499675,17.869248,52.971597)"/>
<use data-text="v" xlink:href="#font_2_20" transform="matrix(5.499675,-2.1998699,0,-5.499675,19.469666,52.331434)"/>
<use data-text="e" xlink:href="#font_2_10" transform="matrix(5.499675,-2.1998699,0,-5.499675,22.214005,51.233697)"/>
<path transform="matrix(1.00005,0,0,-1.00005,53.075998,51.578927)" stroke-width=".3985" stroke-linecap="butt" stroke-miterlimit="10" stroke-linejoin="miter" fill="none" stroke="#000000" d="M-38.54584-13.1505"/>
<use data-text="s" xlink:href="#font_2_18" transform="matrix(5.499675,-2.1998699,0,-5.499675,6.6906816,63.234308)"/>
<use data-text="l" xlink:href="#font_2_13" transform="matrix(5.499675,-2.1998699,0,-5.499675,9.088539,62.275167)"/>
<use data-text="o" xlink:href="#font_2_15" transform="matrix(5.499675,-2.1998699,0,-5.499675,10.622948,61.6614)"/>
<use data-text="p" xlink:href="#font_2_16" transform="matrix(5.499675,-2.1998699,0,-5.499675,13.796265,60.392076)"/>
<use data-text="e" xlink:href="#font_2_10" transform="matrix(5.499675,-2.1998699,0,-5.499675,17.140053,59.054559)"/>
<use data-text="s" xlink:href="#font_2_18" transform="matrix(5.499675,-2.1998699,0,-5.499675,19.966897,57.923826)"/>
<path transform="matrix(1.00005,0,0,-1.00005,53.075998,51.578927)" stroke-width=".3985" stroke-linecap="butt" stroke-miterlimit="10" stroke-linejoin="miter" fill="none" stroke="#000000" d="M0 7.93605"/>
<path transform="matrix(1.00005,0,0,-1.00005,53.075998,51.578927)" d="M10.78464 19.56447-10.78464 10.93689V3.82152L10.78464 12.4491ZM-10.78464 3.82152" fill="#ffffff"/>
<use data-text="p" xlink:href="#font_2_16" transform="matrix(5.499675,-2.1998699,0,-5.499675,43.287508,45.131406)"/>
<use data-text="o" xlink:href="#font_2_15" transform="matrix(5.499675,-2.1998699,0,-5.499675,46.63131,43.793886)"/>
<use data-text="s" xlink:href="#font_2_18" transform="matrix(5.499675,-2.1998699,0,-5.499675,49.804628,42.52456)"/>
<use data-text="i" xlink:href="#font_2_12" transform="matrix(5.499675,-2.1998699,0,-5.499675,52.202486,41.56541)"/>
<use data-text="t" xlink:href="#font_2_19" transform="matrix(5.499675,-2.1998699,0,-5.499675,53.802888,40.92525)"/>
<use data-text="i" xlink:href="#font_2_12" transform="matrix(5.499675,-2.1998699,0,-5.499675,55.694795,40.16849)"/>
<use data-text="v" xlink:href="#font_2_20" transform="matrix(5.499675,-2.1998699,0,-5.499675,57.295198,39.528329)"/>
<use data-text="e" xlink:href="#font_2_10" transform="matrix(5.499675,-2.1998699,0,-5.499675,60.039537,38.430597)"/>
<path transform="matrix(1.00005,0,0,-1.00005,53.075998,51.578927)" stroke-width=".3985" stroke-linecap="butt" stroke-miterlimit="10" stroke-linejoin="miter" fill="none" stroke="#000000" d="M0 2.26753"/>
<path transform="matrix(1.00005,0,0,-1.00005,53.075998,51.578927)" d="M8.83295 13.32452-8.83295 6.25829V-1.06631L8.83295 5.99991ZM-8.83295-1.06631" fill="#ffffff"/>
<use data-text="s" xlink:href="#font_2_18" transform="matrix(5.499675,-2.1998699,0,-5.499675,45.2386,50.01865)"/>
<use data-text="l" xlink:href="#font_2_13" transform="matrix(5.499675,-2.1998699,0,-5.499675,47.63646,49.05951)"/>
<use data-text="o" xlink:href="#font_2_15" transform="matrix(5.499675,-2.1998699,0,-5.499675,49.170869,48.445745)"/>
<use data-text="p" xlink:href="#font_2_16" transform="matrix(5.499675,-2.1998699,0,-5.499675,52.344186,47.17642)"/>
<use data-text="e" xlink:href="#font_2_10" transform="matrix(5.499675,-2.1998699,0,-5.499675,55.687974,45.8389)"/>
<use data-text="s" xlink:href="#font_2_18" transform="matrix(5.499675,-2.1998699,0,-5.499675,58.514818,44.708169)"/>
<path transform="matrix(1.00005,0,0,-1.00005,53.075998,51.578927)" stroke-width=".3985" stroke-linecap="butt" stroke-dasharray="2.98883,2.98883" stroke-miterlimit="10" stroke-linejoin="miter" fill="none" stroke="#000000" d="M22.67406 31.74352V9.06944"/>
<use data-text="d" xlink:href="#font_2_9" transform="matrix(5.499675,-2.1998699,0,-5.499675,59.879339,21.429223)"/>
<use data-text="e" xlink:href="#font_2_10" transform="matrix(5.499675,-2.1998699,0,-5.499675,63.168149,20.113698)"/>
<use data-text="c" xlink:href="#font_2_8" transform="matrix(5.499675,-2.1998699,0,-5.499675,65.99498,18.982968)"/>
<use data-text="r" xlink:href="#font_2_17" transform="matrix(5.499675,-2.1998699,0,-5.499675,68.72281,17.89183)"/>
<use data-text="e" xlink:href="#font_2_10" transform="matrix(5.499675,-2.1998699,0,-5.499675,70.75769,17.07788)"/>
<use data-text="a" xlink:href="#font_2_7" transform="matrix(5.499675,-2.1998699,0,-5.499675,73.58452,15.947147)"/>
<use data-text="s" xlink:href="#font_2_18" transform="matrix(5.499675,-2.1998699,0,-5.499675,76.460849,14.796616)"/>
<use data-text="i" xlink:href="#font_2_12" transform="matrix(5.499675,-2.1998699,0,-5.499675,78.8587,13.837475)"/>
<use data-text="n" xlink:href="#font_2_14" transform="matrix(5.499675,-2.1998699,0,-5.499675,80.45911,13.197311)"/>
<use data-text="g" xlink:href="#font_2_11" transform="matrix(5.499675,-2.1998699,0,-5.499675,83.857929,11.837788)"/>
<use data-text="f" xlink:href="#font_1_1" transform="matrix(5.499675,-2.1998699,0,-5.499675,88.549777,9.961048)"/>
<path transform="matrix(1.00005,0,0,-1.00005,53.075998,51.578927)" stroke-width=".3985" stroke-linecap="butt" stroke-miterlimit="10" stroke-linejoin="miter" fill="none" stroke="#000000" d="M38.54584 23.3541"/>
<use data-text="n" xlink:href="#font_2_14" transform="matrix(5.499675,-2.1998699,0,-5.499675,81.1114,27.675538)"/>
<use data-text="e" xlink:href="#font_2_10" transform="matrix(5.499675,-2.1998699,0,-5.499675,84.51569,26.313817)"/>
<use data-text="g" xlink:href="#font_2_11" transform="matrix(5.499675,-2.1998699,0,-5.499675,87.34253,25.183083)"/>
<use data-text="a" xlink:href="#font_2_7" transform="matrix(5.499675,-2.1998699,0,-5.499675,90.20237,24.03915)"/>
<use data-text="t" xlink:href="#font_2_19" transform="matrix(5.499675,-2.1998699,0,-5.499675,93.0787,22.888615)"/>
<use data-text="i" xlink:href="#font_2_12" transform="matrix(5.499675,-2.1998699,0,-5.499675,94.965099,22.134057)"/>
<use data-text="v" xlink:href="#font_2_20" transform="matrix(5.499675,-2.1998699,0,-5.499675,96.56551,21.493893)"/>
<use data-text="e" xlink:href="#font_2_10" transform="matrix(5.499675,-2.1998699,0,-5.499675,99.30985,20.396157)"/>
<path transform="matrix(1.00005,0,0,-1.00005,53.075998,51.578927)" stroke-width=".3985" stroke-linecap="butt" stroke-miterlimit="10" stroke-linejoin="miter" fill="none" stroke="#000000" d="M38.54584 17.68558"/>
<use data-text="s" xlink:href="#font_2_18" transform="matrix(5.499675,-2.1998699,0,-5.499675,83.78653,32.396768)"/>
<use data-text="l" xlink:href="#font_2_13" transform="matrix(5.499675,-2.1998699,0,-5.499675,86.18439,31.437626)"/>
<use data-text="o" xlink:href="#font_2_15" transform="matrix(5.499675,-2.1998699,0,-5.499675,87.718799,30.82386)"/>
<use data-text="p" xlink:href="#font_2_16" transform="matrix(5.499675,-2.1998699,0,-5.499675,90.89211,29.554535)"/>
<use data-text="e" xlink:href="#font_2_10" transform="matrix(5.499675,-2.1998699,0,-5.499675,94.2359,28.217019)"/>
<use data-text="s" xlink:href="#font_2_18" transform="matrix(5.499675,-2.1998699,0,-5.499675,97.062747,27.086285)"/>
<path transform="matrix(1.00005,0,0,-1.00005,53.075998,51.578927)" stroke-width=".79701" stroke-linecap="butt" stroke-miterlimit="10" stroke-linejoin="miter" fill="none" stroke="#ec008c" d="M-34.0111-41.94673-33.32433-39.63249-32.63756-37.35979-31.95078-35.1289-31.26402-32.9392-30.57726-30.7917-29.89049-28.6854-29.2037-26.62096-28.51694-24.59767-27.83018-22.61627-27.14342-20.67671-26.45663-18.77832-25.76987-16.92181-25.0831-15.10681-24.39635-13.33368-23.70958-11.6017-23.0228-9.9116-22.33603-8.2634-21.64925-6.65631-20.96251-5.09113-20.27573-3.56744-19.58896-2.08528-18.90219-.64462-18.21542 .75415-17.52866 2.11177-16.84189 3.42752-16.15512 4.70142-15.46834 5.93413-14.78159 7.12498-14.09482 8.27432-13.40805 9.38214-12.72127 10.4481-12.03452 11.47253-11.34773 12.45546-10.66096 13.39685-9.97421 14.29674-9.28745 15.15475-8.60066 15.97128-7.9139 16.74625-7.22713 17.4794-6.54036 18.17134-5.85359 18.82143-5.16682 19.42964-4.48006 19.9967-3.79327 20.5219-3.10654 21.00557-2.41975 21.44772-1.73299 21.84837-1.04622 22.20714-.35945 22.5244 .32727 22.80011 1.01404 23.03398 1.7008 23.22668 2.38759 23.37753 3.07436 23.48686 3.76111 23.55434 4.44788 23.58061 5.13466 23.56503 5.82143 23.50795 6.5082 23.40898 7.19495 23.26852 7.88171 23.08687 8.5685 22.86302 9.25526 22.598 9.94205 22.29109 10.62878 21.94304 11.31557 21.55278 12.00233 21.12134 12.6891 20.64804 13.37587 20.13356 14.06264 19.57687 14.7494 18.979 15.43617 18.33963 16.12294 17.65842 16.80971 16.93565 17.49648 16.17104 18.18324 15.36523 18.87003 14.51758 19.55678 13.62842 20.24356 12.69737 20.93031 11.72517 21.61708 10.7111 22.30385 9.65552 22.99063 8.55879 23.6774 7.41982 24.36415 6.23932 25.05093 5.01735 25.7377 3.75381 26.42447 2.44878 27.11124 1.10188 27.798-.28653 28.48476-1.71683 29.17154-3.18828 29.8583-4.70158 30.54507-6.25641 31.23183-7.85277 31.91861-9.49098 32.60538-11.17038 33.29214-12.89162 33.97893-14.65474"/>
<path transform="matrix(1.00005,0,0,-1.00005,53.075998,51.578927)" stroke-width=".3985" stroke-linecap="butt" stroke-miterlimit="10" stroke-linejoin="miter" fill="none" stroke="#cbcbcb" d="M-45.34814-22.6745 54.41762 17.23293"/>
<path transform="matrix(1.00005,0,0,-1.00005,53.075998,51.578927)" stroke-width=".3985" stroke-linecap="butt" stroke-miterlimit="10" stroke-linejoin="miter" fill="none" stroke="#cbcbcb" d="M-40.8134-25.3953 58.95236 14.51213"/>
<path transform="matrix(1.00005,0,0,-1.00005,53.075998,51.578927)" stroke-width=".3985" stroke-linecap="butt" stroke-miterlimit="10" stroke-linejoin="miter" fill="none" stroke="#cbcbcb" d="M-36.27866-28.1161 63.4871 11.79134"/>
<path transform="matrix(1.00005,0,0,-1.00005,53.075998,51.578927)" stroke-width=".3985" stroke-linecap="butt" stroke-miterlimit="10" stroke-linejoin="miter" fill="none" stroke="#cbcbcb" d="M-31.74391-30.83688 68.02185 9.07054"/>
<path transform="matrix(1.00005,0,0,-1.00005,53.075998,51.578927)" stroke-width=".3985" stroke-linecap="butt" stroke-miterlimit="10" stroke-linejoin="miter" fill="none" stroke="#cbcbcb" d="M-27.20917-33.55768 72.55661 6.34975"/>
<path transform="matrix(1.00005,0,0,-1.00005,53.075998,51.578927)" stroke-width=".3985" stroke-linecap="butt" stroke-miterlimit="10" stroke-linejoin="miter" fill="none" stroke="#cbcbcb" d="M-22.67442-36.27847 77.09134 3.62895"/>
<path transform="matrix(1.00005,0,0,-1.00005,53.075998,51.578927)" stroke-width=".3985" stroke-linecap="butt" stroke-miterlimit="10" stroke-linejoin="miter" fill="none" stroke="#cbcbcb" d="M-18.13968-38.99927 81.62608 .90816"/>
<path transform="matrix(1.00005,0,0,-1.00005,53.075998,51.578927)" stroke-width=".3985" stroke-linecap="butt" stroke-miterlimit="10" stroke-linejoin="miter" fill="none" stroke="#cbcbcb" d="M-13.60493-41.72006 86.16083-1.81262"/>
<path transform="matrix(1.00005,0,0,-1.00005,53.075998,51.578927)" stroke-width=".3985" stroke-linecap="butt" stroke-miterlimit="10" stroke-linejoin="miter" fill="none" stroke="#cbcbcb" d="M-9.07019-44.44086 90.69557-4.53342"/>
<path transform="matrix(1.00005,0,0,-1.00005,53.075998,51.578927)" stroke-width=".3985" stroke-linecap="butt" stroke-miterlimit="10" stroke-linejoin="miter" fill="none" stroke="#cbcbcb" d="M-4.53545-47.16167 95.23032-7.25423"/>
<path transform="matrix(1.00005,0,0,-1.00005,53.075998,51.578927)" stroke-width=".3985" stroke-linecap="butt" stroke-miterlimit="10" stroke-linejoin="miter" fill="none" stroke="#cbcbcb" d="M-45.34813-18.13977 4.53474-48.06892"/>
<path transform="matrix(1.00005,0,0,-1.00005,53.075998,51.578927)" stroke-width=".3985" stroke-linecap="butt" stroke-miterlimit="10" stroke-linejoin="miter" fill="none" stroke="#cbcbcb" d="M-40.81339-16.3258 9.06949-46.25496"/>
<path transform="matrix(1.00005,0,0,-1.00005,53.075998,51.578927)" stroke-width=".3985" stroke-linecap="butt" stroke-miterlimit="10" stroke-linejoin="miter" fill="none" stroke="#cbcbcb" d="M-36.27863-14.51186 13.60425-44.44101"/>
<path transform="matrix(1.00005,0,0,-1.00005,53.075998,51.578927)" stroke-width=".3985" stroke-linecap="butt" stroke-miterlimit="10" stroke-linejoin="miter" fill="none" stroke="#cbcbcb" d="M-31.74388-12.69792 18.13899-42.62708"/>
<path transform="matrix(1.00005,0,0,-1.00005,53.075998,51.578927)" stroke-width=".3985" stroke-linecap="butt" stroke-miterlimit="10" stroke-linejoin="miter" fill="none" stroke="#cbcbcb" d="M-27.20915-10.88396 22.67372-40.81311"/>
<path transform="matrix(1.00005,0,0,-1.00005,53.075998,51.578927)" stroke-width=".3985" stroke-linecap="butt" stroke-miterlimit="10" stroke-linejoin="miter" fill="none" stroke="#cbcbcb" d="M-22.6744-9.07 27.20848-38.99916"/>
<path transform="matrix(1.00005,0,0,-1.00005,53.075998,51.578927)" stroke-width=".3985" stroke-linecap="butt" stroke-miterlimit="10" stroke-linejoin="miter" fill="none" stroke="#cbcbcb" d="M-18.13966-7.25606 31.74321-37.18521"/>
<path transform="matrix(1.00005,0,0,-1.00005,53.075998,51.578927)" stroke-width=".3985" stroke-linecap="butt" stroke-miterlimit="10" stroke-linejoin="miter" fill="none" stroke="#cbcbcb" d="M-13.6049-5.44212 36.27797-35.37128"/>
<path transform="matrix(1.00005,0,0,-1.00005,53.075998,51.578927)" stroke-width=".3985" stroke-linecap="butt" stroke-miterlimit="10" stroke-linejoin="miter" fill="none" stroke="#cbcbcb" d="M-9.07016-3.62816 40.81271-33.55731"/>
<path transform="matrix(1.00005,0,0,-1.00005,53.075998,51.578927)" stroke-width=".3985" stroke-linecap="butt" stroke-miterlimit="10" stroke-linejoin="miter" fill="none" stroke="#cbcbcb" d="M-4.53543-1.81421 45.34744-31.74336"/>
<path transform="matrix(1.00005,0,0,-1.00005,53.075998,51.578927)" stroke-width=".3985" stroke-linecap="butt" stroke-miterlimit="10" stroke-linejoin="miter" fill="none" stroke="#cbcbcb" d="M-.00066-.00024 49.88222-29.9294"/>
<path transform="matrix(1.00005,0,0,-1.00005,53.075998,51.578927)" stroke-width=".3985" stroke-linecap="butt" stroke-miterlimit="10" stroke-linejoin="miter" fill="none" stroke="#cbcbcb" d="M4.53404 1.81366 54.41693-28.11548"/>
<path transform="matrix(1.00005,0,0,-1.00005,53.075998,51.578927)" stroke-width=".3985" stroke-linecap="butt" stroke-miterlimit="10" stroke-linejoin="miter" fill="none" stroke="#cbcbcb" d="M9.06877 3.62761 58.95168-26.30153"/>
<path transform="matrix(1.00005,0,0,-1.00005,53.075998,51.578927)" stroke-width=".3985" stroke-linecap="butt" stroke-miterlimit="10" stroke-linejoin="miter" fill="none" stroke="#cbcbcb" d="M13.60353 5.44156 63.48642-24.48758"/>
<path transform="matrix(1.00005,0,0,-1.00005,53.075998,51.578927)" stroke-width=".3985" stroke-linecap="butt" stroke-miterlimit="10" stroke-linejoin="miter" fill="none" stroke="#cbcbcb" d="M18.13826 7.25551 68.02115-22.67363"/>
<path transform="matrix(1.00005,0,0,-1.00005,53.075998,51.578927)" stroke-width=".3985" stroke-linecap="butt" stroke-miterlimit="10" stroke-linejoin="miter" fill="none" stroke="#cbcbcb" d="M22.67302 9.06946 72.55591-20.85968"/>
<path transform="matrix(1.00005,0,0,-1.00005,53.075998,51.578927)" stroke-width=".3985" stroke-linecap="butt" stroke-miterlimit="10" stroke-linejoin="miter" fill="none" stroke="#cbcbcb" d="M27.20776 10.8834 77.09065-19.04573"/>
<path transform="matrix(1.00005,0,0,-1.00005,53.075998,51.578927)" stroke-width=".3985" stroke-linecap="butt" stroke-miterlimit="10" stroke-linejoin="miter" fill="none" stroke="#cbcbcb" d="M31.7425 12.69736 81.62538-17.23178"/>
<path transform="matrix(1.00005,0,0,-1.00005,53.075998,51.578927)" stroke-width=".3985" stroke-linecap="butt" stroke-miterlimit="10" stroke-linejoin="miter" fill="none" stroke="#cbcbcb" d="M36.27725 14.5113 86.16014-15.41783"/>
<path transform="matrix(1.00005,0,0,-1.00005,53.075998,51.578927)" stroke-width=".3985" stroke-linecap="butt" stroke-miterlimit="10" stroke-linejoin="miter" fill="none" stroke="#cbcbcb" d="M40.812 16.32526 90.69489-13.60388"/>
<path transform="matrix(1.00005,0,0,-1.00005,53.075998,51.578927)" stroke-width=".3985" stroke-linecap="butt" stroke-miterlimit="10" stroke-linejoin="miter" fill="none" stroke="#cbcbcb" d="M45.34676 18.1392 95.22964-11.78993"/>
<path transform="matrix(1.00005,0,0,-1.00005,53.075998,51.578927)" stroke-width=".3985" stroke-linecap="butt" stroke-miterlimit="10" stroke-linejoin="miter" fill="none" stroke="#000000" d="M0 0 56.34346-33.80542"/>
<path transform="matrix(.85751286,.5145057,.5145057,-.85751286,109.593128,85.48855)" stroke-width=".3985" stroke-linecap="round" stroke-linejoin="round" fill="none" stroke="#000000" d="M-2.07224 2.39104C-1.69365 .95639-.84999 .27895 0 0-.84999-.27895-1.69365-.95639-2.07224-2.39104"/>
<use data-text="t" xlink:href="#font_1_2" transform="matrix(5.499675,0,0,-5.499675,105.75763,92.37996)"/>
<path transform="matrix(1.00005,0,0,-1.00005,53.075998,51.578927)" stroke-width=".3985" stroke-linecap="butt" stroke-miterlimit="10" stroke-linejoin="miter" fill="none" stroke="#000000" d="M-49.88289-19.95372 56.31517 22.5267"/>
<path transform="matrix(.92848637,-.37138853,-.37138853,-.92848637,109.578998,28.977087)" stroke-width=".3985" stroke-linecap="round" stroke-linejoin="round" fill="none" stroke="#000000" d="M-2.07224 2.39104C-1.69365 .95639-.84999 .27895 0 0-.84999-.27895-1.69365-.95639-2.07224-2.39104"/>
<use data-text="y" xlink:href="#font_1_3" transform="matrix(5.499675,0,0,-5.499675,103.28651,32.422967)"/>
<path transform="matrix(1.00005,0,0,-1.00005,53.075998,51.578927)" stroke-width=".3985" stroke-linecap="butt" stroke-miterlimit="10" stroke-linejoin="miter" fill="none" stroke="#cbcbcb" d="M-49.88289-19.95372 49.88289 19.95372 99.76578-9.97542 0-49.88287ZM99.76578-9.97542"/>
<path transform="matrix(1.00005,0,0,-1.00005,53.075998,51.578927)" stroke-width=".3985" stroke-linecap="butt" stroke-miterlimit="10" stroke-linejoin="miter" fill="none" stroke="#000000" d="M-51.24326-20.49788-48.52248-19.40955"/>
<use data-text="0" xlink:href="#font_2_4" transform="matrix(5.499675,0,0,-5.499675,3.0924988,78.07124)"/>
<path transform="matrix(1.00005,0,0,-1.00005,53.075998,51.578927)" stroke-width=".3985" stroke-linecap="butt" stroke-miterlimit="10" stroke-linejoin="miter" fill="none" stroke="#000000" d="M-28.5692-34.10207-25.8484-33.01372"/>
<use data-text="1" xlink:href="#font_2_5" transform="matrix(5.499675,0,0,-5.499675,25.767632,91.675937)"/>
<path transform="matrix(1.00005,0,0,-1.00005,53.075998,51.578927)" stroke-width=".3985" stroke-linecap="butt" stroke-miterlimit="10" stroke-linejoin="miter" fill="none" stroke="#000000" d="M-5.89513-47.70625-3.17433-46.6179"/>
<use data-text="2" xlink:href="#font_2_6" transform="matrix(5.499675,0,0,-5.499675,48.442766,105.28061)"/>
<path transform="matrix(1.00005,0,0,-1.00005,53.075998,51.578927)" stroke-width=".3985" stroke-linecap="butt" stroke-miterlimit="10" stroke-linejoin="miter" fill="none" stroke="#000000" d="M3.17433-47.2527 5.89513-48.88515"/>
<use data-text="-" xlink:href="#font_2_3" transform="matrix(5.499675,0,0,-5.499675,60.95339,102.307468)"/>
<use data-text="2" xlink:href="#font_2_6" transform="matrix(5.499675,0,0,-5.499675,63.109258,102.307468)"/>
<path transform="matrix(1.00005,0,0,-1.00005,53.075998,51.578927)" stroke-width=".3985" stroke-linecap="butt" stroke-miterlimit="10" stroke-linejoin="miter" fill="none" stroke="#000000" d="M25.8484-38.1828 28.5692-39.81525"/>
<use data-text="-" xlink:href="#font_2_3" transform="matrix(5.499675,0,0,-5.499675,83.628528,93.237)"/>
<use data-text="1" xlink:href="#font_2_5" transform="matrix(5.499675,0,0,-5.499675,85.78439,93.237)"/>
<path transform="matrix(1.00005,0,0,-1.00005,53.075998,51.578927)" stroke-width=".3985" stroke-linecap="butt" stroke-miterlimit="10" stroke-linejoin="miter" fill="none" stroke="#000000" d="M71.19655-20.04305 73.91733-21.67549"/>
<use data-text="1" xlink:href="#font_2_5" transform="matrix(5.499675,0,0,-5.499675,128.97879,75.09711)"/>
<path transform="matrix(1.00005,0,0,-1.00005,53.075998,51.578927)" stroke-width=".3985" stroke-linecap="butt" stroke-miterlimit="10" stroke-linejoin="miter" fill="none" stroke="#000000" d="M93.8706-10.97314 96.5914-12.60559"/>
<use data-text="2" xlink:href="#font_2_6" transform="matrix(5.499675,0,0,-5.499675,151.65392,66.02665)"/>
<path transform="matrix(1.00005,0,0,-1.00005,53.075998,51.578927)" stroke-width=".79701" stroke-linecap="butt" stroke-miterlimit="10" stroke-linejoin="miter" fill="none" stroke="#409f9f" d="M-39.59451-19.76373-42.03227-21.95738"/>
<path transform="matrix(1.00005,0,0,-1.00005,53.075998,51.578927)" stroke-width=".79701" stroke-linecap="butt" stroke-miterlimit="10" stroke-linejoin="miter" fill="none" stroke="#409f9f" d="M-35.30403-17.87173-37.25327-20.22147"/>
<path transform="matrix(1.00005,0,0,-1.00005,53.075998,51.578927)" stroke-width=".79701" stroke-linecap="butt" stroke-miterlimit="10" stroke-linejoin="miter" fill="none" stroke="#409f9f" d="M-31.16127-15.95995-32.32652-18.50536"/>
<path transform="matrix(1.00005,0,0,-1.00005,53.075998,51.578927)" stroke-width=".79701" stroke-linecap="butt" stroke-miterlimit="10" stroke-linejoin="miter" fill="none" stroke="#409f9f" d="M-27.2645-14.05107-27.1538-16.78633"/>
<path transform="matrix(1.00005,0,0,-1.00005,53.075998,51.578927)" stroke-width=".79701" stroke-linecap="butt" stroke-miterlimit="10" stroke-linejoin="miter" fill="none" stroke="#409f9f" d="M-23.66115-12.23671-21.68768-14.97278"/>
<path transform="matrix(1.00005,0,0,-1.00005,53.075998,51.578927)" stroke-width=".79701" stroke-linecap="butt" stroke-miterlimit="10" stroke-linejoin="miter" fill="none" stroke="#409f9f" d="M-20.06674-10.63457-16.21259-12.94704"/>
<path transform="matrix(1.00005,0,0,-1.00005,53.075998,51.578927)" stroke-width=".79701" stroke-linecap="butt" stroke-miterlimit="10" stroke-linejoin="miter" fill="none" stroke="#409f9f" d="M-16.06825-9.15068-11.1416-10.80302"/>
<path transform="matrix(1.00005,0,0,-1.00005,53.075998,51.578927)" stroke-width=".79701" stroke-linecap="butt" stroke-miterlimit="10" stroke-linejoin="miter" fill="none" stroke="#409f9f" d="M-11.73073-7.60489-6.40964-8.72093"/>
<path transform="matrix(1.00005,0,0,-1.00005,53.075998,51.578927)" stroke-width=".79701" stroke-linecap="butt" stroke-miterlimit="10" stroke-linejoin="miter" fill="none" stroke="#409f9f" d="M-7.24821-5.9592-1.82263-6.7387"/>
<path transform="matrix(1.00005,0,0,-1.00005,53.075998,51.578927)" stroke-width=".79701" stroke-linecap="butt" stroke-miterlimit="10" stroke-linejoin="miter" fill="none" stroke="#409f9f" d="M-2.7249-4.23494 2.7235-4.83505"/>
<path transform="matrix(1.00005,0,0,-1.00005,53.075998,51.578927)" stroke-width=".79701" stroke-linecap="butt" stroke-miterlimit="10" stroke-linejoin="miter" fill="none" stroke="#409f9f" d="M1.80916-2.44858 7.25896-2.9935"/>
<path transform="matrix(1.00005,0,0,-1.00005,53.075998,51.578927)" stroke-width=".79701" stroke-linecap="butt" stroke-miterlimit="10" stroke-linejoin="miter" fill="none" stroke="#409f9f" d="M6.34457-.60706 11.79298-1.20717"/>
<path transform="matrix(1.00005,0,0,-1.00005,53.075998,51.578927)" stroke-width=".79701" stroke-linecap="butt" stroke-miterlimit="10" stroke-linejoin="miter" fill="none" stroke="#409f9f" d="M10.89072 1.29657 16.3163 .51707"/>
<path transform="matrix(1.00005,0,0,-1.00005,53.075998,51.578927)" stroke-width=".79701" stroke-linecap="butt" stroke-miterlimit="10" stroke-linejoin="miter" fill="none" stroke="#409f9f" d="M15.47772 3.27878 20.79881 2.16275"/>
<path transform="matrix(1.00005,0,0,-1.00005,53.075998,51.578927)" stroke-width=".79701" stroke-linecap="butt" stroke-miterlimit="10" stroke-linejoin="miter" fill="none" stroke="#409f9f" d="M20.20967 5.36089 25.13632 3.70854"/>
<path transform="matrix(1.00005,0,0,-1.00005,53.075998,51.578927)" stroke-width=".79701" stroke-linecap="butt" stroke-miterlimit="10" stroke-linejoin="miter" fill="none" stroke="#409f9f" d="M25.28067 7.5049 29.13483 5.19244"/>
<path transform="matrix(1.00005,0,0,-1.00005,53.075998,51.578927)" stroke-width=".79701" stroke-linecap="butt" stroke-miterlimit="10" stroke-linejoin="miter" fill="none" stroke="#409f9f" d="M30.75438 9.53114 32.7306 6.7941"/>
<path transform="matrix(1.00005,0,0,-1.00005,53.075998,51.578927)" stroke-width=".79701" stroke-linecap="butt" stroke-miterlimit="10" stroke-linejoin="miter" fill="none" stroke="#409f9f" d="M36.22188 11.3442 36.33258 8.60893"/>
<path transform="matrix(1.00005,0,0,-1.00005,53.075998,51.578927)" stroke-width=".79701" stroke-linecap="butt" stroke-miterlimit="10" stroke-linejoin="miter" fill="none" stroke="#409f9f" d="M41.3946 13.06322 40.22935 10.5178"/>
<path transform="matrix(1.00005,0,0,-1.00005,53.075998,51.578927)" stroke-width=".79701" stroke-linecap="butt" stroke-miterlimit="10" stroke-linejoin="miter" fill="none" stroke="#409f9f" d="M46.32135 14.77934 44.37212 12.4296"/>
<path transform="matrix(1.00005,0,0,-1.00005,53.075998,51.578927)" stroke-width=".79701" stroke-linecap="butt" stroke-miterlimit="10" stroke-linejoin="miter" fill="none" stroke="#409f9f" d="M51.10036 16.51524 48.6626 14.3216"/>
<path transform="matrix(1.00005,0,0,-1.00005,53.075998,51.578927)" stroke-width=".79701" stroke-linecap="butt" stroke-miterlimit="10" stroke-linejoin="miter" fill="none" stroke="#409f9f" d="M-35.05977-22.48453-37.49753-24.67818"/>
<path transform="matrix(1.00005,0,0,-1.00005,53.075998,51.578927)" stroke-width=".79701" stroke-linecap="butt" stroke-miterlimit="10" stroke-linejoin="miter" fill="none" stroke="#409f9f" d="M-30.76929-20.59251-32.7185-22.94226"/>
<path transform="matrix(1.00005,0,0,-1.00005,53.075998,51.578927)" stroke-width=".79701" stroke-linecap="butt" stroke-miterlimit="10" stroke-linejoin="miter" fill="none" stroke="#409f9f" d="M-26.62651-18.68073-27.79178-21.22615"/>
<path transform="matrix(1.00005,0,0,-1.00005,53.075998,51.578927)" stroke-width=".79701" stroke-linecap="butt" stroke-miterlimit="10" stroke-linejoin="miter" fill="none" stroke="#409f9f" d="M-22.72975-16.77187-22.61905-19.50713"/>
<path transform="matrix(1.00005,0,0,-1.00005,53.075998,51.578927)" stroke-width=".79701" stroke-linecap="butt" stroke-miterlimit="10" stroke-linejoin="miter" fill="none" stroke="#409f9f" d="M-19.12639-14.95749-17.15294-17.69357"/>
<path transform="matrix(1.00005,0,0,-1.00005,53.075998,51.578927)" stroke-width=".79701" stroke-linecap="butt" stroke-miterlimit="10" stroke-linejoin="miter" fill="none" stroke="#409f9f" d="M-15.532-13.35536-11.67783-15.66782"/>
<path transform="matrix(1.00005,0,0,-1.00005,53.075998,51.578927)" stroke-width=".79701" stroke-linecap="butt" stroke-miterlimit="10" stroke-linejoin="miter" fill="none" stroke="#409f9f" d="M-11.53351-11.87148-6.60684-13.5238"/>
<path transform="matrix(1.00005,0,0,-1.00005,53.075998,51.578927)" stroke-width=".79701" stroke-linecap="butt" stroke-miterlimit="10" stroke-linejoin="miter" fill="none" stroke="#409f9f" d="M-7.19597-10.32568-1.87488-11.44171"/>
<path transform="matrix(1.00005,0,0,-1.00005,53.075998,51.578927)" stroke-width=".79701" stroke-linecap="butt" stroke-miterlimit="10" stroke-linejoin="miter" fill="none" stroke="#409f9f" d="M-2.71347-8.68 2.7121-9.45949"/>
<path transform="matrix(1.00005,0,0,-1.00005,53.075998,51.578927)" stroke-width=".79701" stroke-linecap="butt" stroke-miterlimit="10" stroke-linejoin="miter" fill="none" stroke="#409f9f" d="M1.80983-6.95573 7.25826-7.55585"/>
<path transform="matrix(1.00005,0,0,-1.00005,53.075998,51.578927)" stroke-width=".79701" stroke-linecap="butt" stroke-miterlimit="10" stroke-linejoin="miter" fill="none" stroke="#409f9f" d="M6.34392-5.16936 11.7937-5.7143"/>
<path transform="matrix(1.00005,0,0,-1.00005,53.075998,51.578927)" stroke-width=".79701" stroke-linecap="butt" stroke-miterlimit="10" stroke-linejoin="miter" fill="none" stroke="#409f9f" d="M10.87932-3.32784 16.32774-3.92795"/>
<path transform="matrix(1.00005,0,0,-1.00005,53.075998,51.578927)" stroke-width=".79701" stroke-linecap="butt" stroke-miterlimit="10" stroke-linejoin="miter" fill="none" stroke="#409f9f" d="M15.42548-1.42421 20.85106-2.2037"/>
<path transform="matrix(1.00005,0,0,-1.00005,53.075998,51.578927)" stroke-width=".79701" stroke-linecap="butt" stroke-miterlimit="10" stroke-linejoin="miter" fill="none" stroke="#409f9f" d="M20.01247 .558 25.33356-.55803"/>
<path transform="matrix(1.00005,0,0,-1.00005,53.075998,51.578927)" stroke-width=".79701" stroke-linecap="butt" stroke-miterlimit="10" stroke-linejoin="miter" fill="none" stroke="#409f9f" d="M24.74442 2.64009 29.67108 .98776"/>
<path transform="matrix(1.00005,0,0,-1.00005,53.075998,51.578927)" stroke-width=".79701" stroke-linecap="butt" stroke-miterlimit="10" stroke-linejoin="miter" fill="none" stroke="#409f9f" d="M29.81541 4.78412 33.66957 2.47165"/>
<path transform="matrix(1.00005,0,0,-1.00005,53.075998,51.578927)" stroke-width=".79701" stroke-linecap="butt" stroke-miterlimit="10" stroke-linejoin="miter" fill="none" stroke="#409f9f" d="M35.28914 6.81036 37.26537 4.0733"/>
<path transform="matrix(1.00005,0,0,-1.00005,53.075998,51.578927)" stroke-width=".79701" stroke-linecap="butt" stroke-miterlimit="10" stroke-linejoin="miter" fill="none" stroke="#409f9f" d="M40.75664 8.62341 40.86734 5.88814"/>
<path transform="matrix(1.00005,0,0,-1.00005,53.075998,51.578927)" stroke-width=".79701" stroke-linecap="butt" stroke-miterlimit="10" stroke-linejoin="miter" fill="none" stroke="#409f9f" d="M45.92937 10.34244 44.7641 7.79701"/>
<path transform="matrix(1.00005,0,0,-1.00005,53.075998,51.578927)" stroke-width=".79701" stroke-linecap="butt" stroke-miterlimit="10" stroke-linejoin="miter" fill="none" stroke="#409f9f" d="M50.8561 12.05855 48.90688 9.70882"/>
<path transform="matrix(1.00005,0,0,-1.00005,53.075998,51.578927)" stroke-width=".79701" stroke-linecap="butt" stroke-miterlimit="10" stroke-linejoin="miter" fill="none" stroke="#409f9f" d="M55.63512 13.79445 53.19736 11.6008"/>
<path transform="matrix(1.00005,0,0,-1.00005,53.075998,51.578927)" stroke-width=".79701" stroke-linecap="butt" stroke-miterlimit="10" stroke-linejoin="miter" fill="none" stroke="#409f9f" d="M-30.52504-25.20532-32.9628-27.39897"/>
<path transform="matrix(1.00005,0,0,-1.00005,53.075998,51.578927)" stroke-width=".79701" stroke-linecap="butt" stroke-miterlimit="10" stroke-linejoin="miter" fill="none" stroke="#409f9f" d="M-26.23454-23.31332-28.18378-25.66306"/>
<path transform="matrix(1.00005,0,0,-1.00005,53.075998,51.578927)" stroke-width=".79701" stroke-linecap="butt" stroke-miterlimit="10" stroke-linejoin="miter" fill="none" stroke="#409f9f" d="M-22.09178-21.40154-23.25705-23.94696"/>
<path transform="matrix(1.00005,0,0,-1.00005,53.075998,51.578927)" stroke-width=".79701" stroke-linecap="butt" stroke-miterlimit="10" stroke-linejoin="miter" fill="none" stroke="#409f9f" d="M-18.195-19.49268-18.0843-22.22794"/>
<path transform="matrix(1.00005,0,0,-1.00005,53.075998,51.578927)" stroke-width=".79701" stroke-linecap="butt" stroke-miterlimit="10" stroke-linejoin="miter" fill="none" stroke="#409f9f" d="M-14.59166-17.6783-12.6182-20.41438"/>
<path transform="matrix(1.00005,0,0,-1.00005,53.075998,51.578927)" stroke-width=".79701" stroke-linecap="butt" stroke-miterlimit="10" stroke-linejoin="miter" fill="none" stroke="#409f9f" d="M-10.99725-16.07616-7.1431-18.38863"/>
<path transform="matrix(1.00005,0,0,-1.00005,53.075998,51.578927)" stroke-width=".79701" stroke-linecap="butt" stroke-miterlimit="10" stroke-linejoin="miter" fill="none" stroke="#409f9f" d="M-6.99876-14.59229-2.07211-16.24461"/>
<path transform="matrix(1.00005,0,0,-1.00005,53.075998,51.578927)" stroke-width=".79701" stroke-linecap="butt" stroke-miterlimit="10" stroke-linejoin="miter" fill="none" stroke="#409f9f" d="M-2.66124-13.04648 2.65984-14.16252"/>
<path transform="matrix(1.00005,0,0,-1.00005,53.075998,51.578927)" stroke-width=".79701" stroke-linecap="butt" stroke-miterlimit="10" stroke-linejoin="miter" fill="none" stroke="#409f9f" d="M1.82124-11.40079 7.24684-12.18028"/>
<path transform="matrix(1.00005,0,0,-1.00005,53.075998,51.578927)" stroke-width=".79701" stroke-linecap="butt" stroke-miterlimit="10" stroke-linejoin="miter" fill="none" stroke="#409f9f" d="M6.34457-9.67654 11.79298-10.27666"/>
<path transform="matrix(1.00005,0,0,-1.00005,53.075998,51.578927)" stroke-width=".79701" stroke-linecap="butt" stroke-miterlimit="10" stroke-linejoin="miter" fill="none" stroke="#409f9f" d="M10.87865-7.89017 16.32843-8.4351"/>
<path transform="matrix(1.00005,0,0,-1.00005,53.075998,51.578927)" stroke-width=".79701" stroke-linecap="butt" stroke-miterlimit="10" stroke-linejoin="miter" fill="none" stroke="#409f9f" d="M15.41405-6.04865 20.86247-6.64876"/>
<path transform="matrix(1.00005,0,0,-1.00005,53.075998,51.578927)" stroke-width=".79701" stroke-linecap="butt" stroke-miterlimit="10" stroke-linejoin="miter" fill="none" stroke="#409f9f" d="M19.9602-4.145 25.38579-4.9245"/>
<path transform="matrix(1.00005,0,0,-1.00005,53.075998,51.578927)" stroke-width=".79701" stroke-linecap="butt" stroke-miterlimit="10" stroke-linejoin="miter" fill="none" stroke="#409f9f" d="M24.54721-2.1628 29.86829-3.27882"/>
<path transform="matrix(1.00005,0,0,-1.00005,53.075998,51.578927)" stroke-width=".79701" stroke-linecap="butt" stroke-miterlimit="10" stroke-linejoin="miter" fill="none" stroke="#409f9f" d="M29.27916-.0807 34.20581-1.73303"/>
<path transform="matrix(1.00005,0,0,-1.00005,53.075998,51.578927)" stroke-width=".79701" stroke-linecap="butt" stroke-miterlimit="10" stroke-linejoin="miter" fill="none" stroke="#409f9f" d="M34.35016 2.06331 38.20432-.24913"/>
<path transform="matrix(1.00005,0,0,-1.00005,53.075998,51.578927)" stroke-width=".79701" stroke-linecap="butt" stroke-miterlimit="10" stroke-linejoin="miter" fill="none" stroke="#409f9f" d="M39.82387 4.08955 41.8001 1.3525"/>
<path transform="matrix(1.00005,0,0,-1.00005,53.075998,51.578927)" stroke-width=".79701" stroke-linecap="butt" stroke-miterlimit="10" stroke-linejoin="miter" fill="none" stroke="#409f9f" d="M45.29137 5.9026 45.40207 3.16734"/>
<path transform="matrix(1.00005,0,0,-1.00005,53.075998,51.578927)" stroke-width=".79701" stroke-linecap="butt" stroke-miterlimit="10" stroke-linejoin="miter" fill="none" stroke="#409f9f" d="M50.4641 7.62163 49.29884 5.0762"/>
<path transform="matrix(1.00005,0,0,-1.00005,53.075998,51.578927)" stroke-width=".79701" stroke-linecap="butt" stroke-miterlimit="10" stroke-linejoin="miter" fill="none" stroke="#409f9f" d="M55.39084 9.33775 53.4416 6.988"/>
<path transform="matrix(1.00005,0,0,-1.00005,53.075998,51.578927)" stroke-width=".79701" stroke-linecap="butt" stroke-miterlimit="10" stroke-linejoin="miter" fill="none" stroke="#409f9f" d="M60.16985 11.07364 57.73209 8.88"/>
<path transform="matrix(1.00005,0,0,-1.00005,53.075998,51.578927)" stroke-width=".79701" stroke-linecap="butt" stroke-miterlimit="10" stroke-linejoin="miter" fill="none" stroke="#409f9f" d="M-25.99028-27.92612-28.42804-30.11977"/>
<path transform="matrix(1.00005,0,0,-1.00005,53.075998,51.578927)" stroke-width=".79701" stroke-linecap="butt" stroke-miterlimit="10" stroke-linejoin="miter" fill="none" stroke="#409f9f" d="M-21.6998-26.0341-23.64903-28.38385"/>
<path transform="matrix(1.00005,0,0,-1.00005,53.075998,51.578927)" stroke-width=".79701" stroke-linecap="butt" stroke-miterlimit="10" stroke-linejoin="miter" fill="none" stroke="#409f9f" d="M-17.55704-24.12233-18.72229-26.66774"/>
<path transform="matrix(1.00005,0,0,-1.00005,53.075998,51.578927)" stroke-width=".79701" stroke-linecap="butt" stroke-miterlimit="10" stroke-linejoin="miter" fill="none" stroke="#409f9f" d="M-13.66026-22.21346-13.54956-24.94872"/>
<path transform="matrix(1.00005,0,0,-1.00005,53.075998,51.578927)" stroke-width=".79701" stroke-linecap="butt" stroke-miterlimit="10" stroke-linejoin="miter" fill="none" stroke="#409f9f" d="M-10.0569-20.3991-8.08345-23.13516"/>
<path transform="matrix(1.00005,0,0,-1.00005,53.075998,51.578927)" stroke-width=".79701" stroke-linecap="butt" stroke-miterlimit="10" stroke-linejoin="miter" fill="none" stroke="#409f9f" d="M-6.46251-18.79695-2.60835-21.10942"/>
<path transform="matrix(1.00005,0,0,-1.00005,53.075998,51.578927)" stroke-width=".79701" stroke-linecap="butt" stroke-miterlimit="10" stroke-linejoin="miter" fill="none" stroke="#409f9f" d="M-2.46402-17.31306 2.46262-18.96541"/>
<path transform="matrix(1.00005,0,0,-1.00005,53.075998,51.578927)" stroke-width=".79701" stroke-linecap="butt" stroke-miterlimit="10" stroke-linejoin="miter" fill="none" stroke="#409f9f" d="M1.8735-15.76727 7.19458-16.88332"/>
<path transform="matrix(1.00005,0,0,-1.00005,53.075998,51.578927)" stroke-width=".79701" stroke-linecap="butt" stroke-miterlimit="10" stroke-linejoin="miter" fill="none" stroke="#409f9f" d="M6.356-14.12158 11.78159-14.90108"/>
<path transform="matrix(1.00005,0,0,-1.00005,53.075998,51.578927)" stroke-width=".79701" stroke-linecap="butt" stroke-miterlimit="10" stroke-linejoin="miter" fill="none" stroke="#409f9f" d="M10.87932-12.39732 16.32774-12.99744"/>
<path transform="matrix(1.00005,0,0,-1.00005,53.075998,51.578927)" stroke-width=".79701" stroke-linecap="butt" stroke-miterlimit="10" stroke-linejoin="miter" fill="none" stroke="#409f9f" d="M15.4134-10.61096 20.86319-11.15588"/>
<path transform="matrix(1.00005,0,0,-1.00005,53.075998,51.578927)" stroke-width=".79701" stroke-linecap="butt" stroke-miterlimit="10" stroke-linejoin="miter" fill="none" stroke="#409f9f" d="M19.9488-8.76944 25.39722-9.36955"/>
<path transform="matrix(1.00005,0,0,-1.00005,53.075998,51.578927)" stroke-width=".79701" stroke-linecap="butt" stroke-miterlimit="10" stroke-linejoin="miter" fill="none" stroke="#409f9f" d="M24.49495-6.8658 29.92055-7.6453"/>
<path transform="matrix(1.00005,0,0,-1.00005,53.075998,51.578927)" stroke-width=".79701" stroke-linecap="butt" stroke-miterlimit="10" stroke-linejoin="miter" fill="none" stroke="#409f9f" d="M29.08195-4.88358 34.40305-5.99962"/>
<path transform="matrix(1.00005,0,0,-1.00005,53.075998,51.578927)" stroke-width=".79701" stroke-linecap="butt" stroke-miterlimit="10" stroke-linejoin="miter" fill="none" stroke="#409f9f" d="M33.8139-2.80148 38.74055-4.45383"/>
<path transform="matrix(1.00005,0,0,-1.00005,53.075998,51.578927)" stroke-width=".79701" stroke-linecap="butt" stroke-miterlimit="10" stroke-linejoin="miter" fill="none" stroke="#409f9f" d="M38.8849-.65746 42.73906-2.96992"/>
<path transform="matrix(1.00005,0,0,-1.00005,53.075998,51.578927)" stroke-width=".79701" stroke-linecap="butt" stroke-miterlimit="10" stroke-linejoin="miter" fill="none" stroke="#409f9f" d="M44.35863 1.36876 46.33485-1.36827"/>
<path transform="matrix(1.00005,0,0,-1.00005,53.075998,51.578927)" stroke-width=".79701" stroke-linecap="butt" stroke-miterlimit="10" stroke-linejoin="miter" fill="none" stroke="#409f9f" d="M49.82611 3.18181 49.93681 .44655"/>
<path transform="matrix(1.00005,0,0,-1.00005,53.075998,51.578927)" stroke-width=".79701" stroke-linecap="butt" stroke-miterlimit="10" stroke-linejoin="miter" fill="none" stroke="#409f9f" d="M54.99886 4.90083 53.83359 2.35542"/>
<path transform="matrix(1.00005,0,0,-1.00005,53.075998,51.578927)" stroke-width=".79701" stroke-linecap="butt" stroke-miterlimit="10" stroke-linejoin="miter" fill="none" stroke="#409f9f" d="M59.92558 6.61696 57.97635 4.26721"/>
<path transform="matrix(1.00005,0,0,-1.00005,53.075998,51.578927)" stroke-width=".79701" stroke-linecap="butt" stroke-miterlimit="10" stroke-linejoin="miter" fill="none" stroke="#409f9f" d="M64.7046 8.35286 62.26685 6.15921"/>
<path transform="matrix(1.00005,0,0,-1.00005,53.075998,51.578927)" stroke-width=".79701" stroke-linecap="butt" stroke-miterlimit="10" stroke-linejoin="miter" fill="none" stroke="#409f9f" d="M-21.45554-30.64691-23.8933-32.84055"/>
<path transform="matrix(1.00005,0,0,-1.00005,53.075998,51.578927)" stroke-width=".79701" stroke-linecap="butt" stroke-miterlimit="10" stroke-linejoin="miter" fill="none" stroke="#409f9f" d="M-17.16505-28.7549-19.11427-31.10464"/>
<path transform="matrix(1.00005,0,0,-1.00005,53.075998,51.578927)" stroke-width=".79701" stroke-linecap="butt" stroke-miterlimit="10" stroke-linejoin="miter" fill="none" stroke="#409f9f" d="M-13.02228-26.84311-14.18755-29.38853"/>
<path transform="matrix(1.00005,0,0,-1.00005,53.075998,51.578927)" stroke-width=".79701" stroke-linecap="butt" stroke-miterlimit="10" stroke-linejoin="miter" fill="none" stroke="#409f9f" d="M-9.12552-24.93425-9.01482-27.66951"/>
<path transform="matrix(1.00005,0,0,-1.00005,53.075998,51.578927)" stroke-width=".79701" stroke-linecap="butt" stroke-miterlimit="10" stroke-linejoin="miter" fill="none" stroke="#409f9f" d="M-5.52216-23.11987-3.54869-25.85596"/>
<path transform="matrix(1.00005,0,0,-1.00005,53.075998,51.578927)" stroke-width=".79701" stroke-linecap="butt" stroke-miterlimit="10" stroke-linejoin="miter" fill="none" stroke="#409f9f" d="M-1.92775-21.51775 1.92639-23.8302"/>
<path transform="matrix(1.00005,0,0,-1.00005,53.075998,51.578927)" stroke-width=".79701" stroke-linecap="butt" stroke-miterlimit="10" stroke-linejoin="miter" fill="none" stroke="#409f9f" d="M2.07071-20.03386 6.99738-21.68619"/>
<path transform="matrix(1.00005,0,0,-1.00005,53.075998,51.578927)" stroke-width=".79701" stroke-linecap="butt" stroke-miterlimit="10" stroke-linejoin="miter" fill="none" stroke="#409f9f" d="M6.40825-18.48807 11.72934-19.6041"/>
<path transform="matrix(1.00005,0,0,-1.00005,53.075998,51.578927)" stroke-width=".79701" stroke-linecap="butt" stroke-miterlimit="10" stroke-linejoin="miter" fill="none" stroke="#409f9f" d="M10.89075-16.84238 16.31633-17.62187"/>
<path transform="matrix(1.00005,0,0,-1.00005,53.075998,51.578927)" stroke-width=".79701" stroke-linecap="butt" stroke-miterlimit="10" stroke-linejoin="miter" fill="none" stroke="#409f9f" d="M15.41406-15.11812 20.86249-15.71823"/>
<path transform="matrix(1.00005,0,0,-1.00005,53.075998,51.578927)" stroke-width=".79701" stroke-linecap="butt" stroke-miterlimit="10" stroke-linejoin="miter" fill="none" stroke="#409f9f" d="M19.94815-13.33174 25.39793-13.87668"/>
<path transform="matrix(1.00005,0,0,-1.00005,53.075998,51.578927)" stroke-width=".79701" stroke-linecap="butt" stroke-miterlimit="10" stroke-linejoin="miter" fill="none" stroke="#409f9f" d="M24.48355-11.49022 29.93198-12.09033"/>
<path transform="matrix(1.00005,0,0,-1.00005,53.075998,51.578927)" stroke-width=".79701" stroke-linecap="butt" stroke-miterlimit="10" stroke-linejoin="miter" fill="none" stroke="#409f9f" d="M29.02971-9.5866 34.45529-10.36609"/>
<path transform="matrix(1.00005,0,0,-1.00005,53.075998,51.578927)" stroke-width=".79701" stroke-linecap="butt" stroke-miterlimit="10" stroke-linejoin="miter" fill="none" stroke="#409f9f" d="M33.6167-7.60437 38.93779-8.72041"/>
<path transform="matrix(1.00005,0,0,-1.00005,53.075998,51.578927)" stroke-width=".79701" stroke-linecap="butt" stroke-miterlimit="10" stroke-linejoin="miter" fill="none" stroke="#409f9f" d="M38.34865-5.52228 43.27531-7.1746"/>
<path transform="matrix(1.00005,0,0,-1.00005,53.075998,51.578927)" stroke-width=".79701" stroke-linecap="butt" stroke-miterlimit="10" stroke-linejoin="miter" fill="none" stroke="#409f9f" d="M43.41966-3.37825 47.27382-5.69072"/>
<path transform="matrix(1.00005,0,0,-1.00005,53.075998,51.578927)" stroke-width=".79701" stroke-linecap="butt" stroke-miterlimit="10" stroke-linejoin="miter" fill="none" stroke="#409f9f" d="M48.89337-1.352 50.8696-4.08907"/>
<path transform="matrix(1.00005,0,0,-1.00005,53.075998,51.578927)" stroke-width=".79701" stroke-linecap="butt" stroke-miterlimit="10" stroke-linejoin="miter" fill="none" stroke="#409f9f" d="M54.36087 .46103 54.47157-2.27423"/>
<path transform="matrix(1.00005,0,0,-1.00005,53.075998,51.578927)" stroke-width=".79701" stroke-linecap="butt" stroke-miterlimit="10" stroke-linejoin="miter" fill="none" stroke="#409f9f" d="M59.5336 2.18005 58.36833-.36536"/>
<path transform="matrix(1.00005,0,0,-1.00005,53.075998,51.578927)" stroke-width=".79701" stroke-linecap="butt" stroke-miterlimit="10" stroke-linejoin="miter" fill="none" stroke="#409f9f" d="M64.46033 3.89616 62.51111 1.54643"/>
<path transform="matrix(1.00005,0,0,-1.00005,53.075998,51.578927)" stroke-width=".79701" stroke-linecap="butt" stroke-miterlimit="10" stroke-linejoin="miter" fill="none" stroke="#409f9f" d="M69.23935 5.63206 66.80159 3.43842"/>
<path transform="matrix(1.00005,0,0,-1.00005,53.075998,51.578927)" stroke-width=".79701" stroke-linecap="butt" stroke-miterlimit="10" stroke-linejoin="miter" fill="none" stroke="#409f9f" d="M-16.92079-33.3677-19.35855-35.56136"/>
<path transform="matrix(1.00005,0,0,-1.00005,53.075998,51.578927)" stroke-width=".79701" stroke-linecap="butt" stroke-miterlimit="10" stroke-linejoin="miter" fill="none" stroke="#409f9f" d="M-12.63031-31.47571-14.57954-33.82544"/>
<path transform="matrix(1.00005,0,0,-1.00005,53.075998,51.578927)" stroke-width=".79701" stroke-linecap="butt" stroke-miterlimit="10" stroke-linejoin="miter" fill="none" stroke="#409f9f" d="M-8.48755-29.56392-9.6528-32.10934"/>
<path transform="matrix(1.00005,0,0,-1.00005,53.075998,51.578927)" stroke-width=".79701" stroke-linecap="butt" stroke-miterlimit="10" stroke-linejoin="miter" fill="none" stroke="#409f9f" d="M-4.59077-27.65504-4.48007-30.39032"/>
<path transform="matrix(1.00005,0,0,-1.00005,53.075998,51.578927)" stroke-width=".79701" stroke-linecap="butt" stroke-miterlimit="10" stroke-linejoin="miter" fill="none" stroke="#409f9f" d="M-.98743-25.84068 .98602-28.57677"/>
<path transform="matrix(1.00005,0,0,-1.00005,53.075998,51.578927)" stroke-width=".79701" stroke-linecap="butt" stroke-miterlimit="10" stroke-linejoin="miter" fill="none" stroke="#409f9f" d="M2.60696-24.23854 6.46112-26.55101"/>
<path transform="matrix(1.00005,0,0,-1.00005,53.075998,51.578927)" stroke-width=".79701" stroke-linecap="butt" stroke-miterlimit="10" stroke-linejoin="miter" fill="none" stroke="#409f9f" d="M6.60545-22.75467 11.5321-24.407"/>
<path transform="matrix(1.00005,0,0,-1.00005,53.075998,51.578927)" stroke-width=".79701" stroke-linecap="butt" stroke-miterlimit="10" stroke-linejoin="miter" fill="none" stroke="#409f9f" d="M10.94298-21.20886 16.26407-22.3249"/>
<path transform="matrix(1.00005,0,0,-1.00005,53.075998,51.578927)" stroke-width=".79701" stroke-linecap="butt" stroke-miterlimit="10" stroke-linejoin="miter" fill="none" stroke="#409f9f" d="M15.42549-19.56317 20.85107-20.34267"/>
<path transform="matrix(1.00005,0,0,-1.00005,53.075998,51.578927)" stroke-width=".79701" stroke-linecap="butt" stroke-miterlimit="10" stroke-linejoin="miter" fill="none" stroke="#409f9f" d="M19.9488-17.83893 25.39722-18.43904"/>
<path transform="matrix(1.00005,0,0,-1.00005,53.075998,51.578927)" stroke-width=".79701" stroke-linecap="butt" stroke-miterlimit="10" stroke-linejoin="miter" fill="none" stroke="#409f9f" d="M24.48288-16.05255 29.93268-16.59749"/>
<path transform="matrix(1.00005,0,0,-1.00005,53.075998,51.578927)" stroke-width=".79701" stroke-linecap="butt" stroke-miterlimit="10" stroke-linejoin="miter" fill="none" stroke="#409f9f" d="M29.0183-14.21103 34.4667-14.81114"/>
<path transform="matrix(1.00005,0,0,-1.00005,53.075998,51.578927)" stroke-width=".79701" stroke-linecap="butt" stroke-miterlimit="10" stroke-linejoin="miter" fill="none" stroke="#409f9f" d="M33.56444-12.30739 38.99002-13.08688"/>
<path transform="matrix(1.00005,0,0,-1.00005,53.075998,51.578927)" stroke-width=".79701" stroke-linecap="butt" stroke-miterlimit="10" stroke-linejoin="miter" fill="none" stroke="#409f9f" d="M38.15144-10.32518 43.47253-11.44121"/>
<path transform="matrix(1.00005,0,0,-1.00005,53.075998,51.578927)" stroke-width=".79701" stroke-linecap="butt" stroke-miterlimit="10" stroke-linejoin="miter" fill="none" stroke="#409f9f" d="M42.88339-8.24309 47.81004-9.89542"/>
<path transform="matrix(1.00005,0,0,-1.00005,53.075998,51.578927)" stroke-width=".79701" stroke-linecap="butt" stroke-miterlimit="10" stroke-linejoin="miter" fill="none" stroke="#409f9f" d="M47.95439-6.09906 51.80855-8.41151"/>
<path transform="matrix(1.00005,0,0,-1.00005,53.075998,51.578927)" stroke-width=".79701" stroke-linecap="butt" stroke-miterlimit="10" stroke-linejoin="miter" fill="none" stroke="#409f9f" d="M53.4281-4.07281 55.40433-6.80988"/>
<path transform="matrix(1.00005,0,0,-1.00005,53.075998,51.578927)" stroke-width=".79701" stroke-linecap="butt" stroke-miterlimit="10" stroke-linejoin="miter" fill="none" stroke="#409f9f" d="M58.8956-2.25977 59.0063-4.99503"/>
<path transform="matrix(1.00005,0,0,-1.00005,53.075998,51.578927)" stroke-width=".79701" stroke-linecap="butt" stroke-miterlimit="10" stroke-linejoin="miter" fill="none" stroke="#409f9f" d="M64.06833-.54074 62.90308-3.08617"/>
<path transform="matrix(1.00005,0,0,-1.00005,53.075998,51.578927)" stroke-width=".79701" stroke-linecap="butt" stroke-miterlimit="10" stroke-linejoin="miter" fill="none" stroke="#409f9f" d="M68.99507 1.17537 67.04584-1.17436"/>
<path transform="matrix(1.00005,0,0,-1.00005,53.075998,51.578927)" stroke-width=".79701" stroke-linecap="butt" stroke-miterlimit="10" stroke-linejoin="miter" fill="none" stroke="#409f9f" d="M73.77408 2.91125 71.33632 .71762"/>
<path transform="matrix(1.00005,0,0,-1.00005,53.075998,51.578927)" stroke-width=".79701" stroke-linecap="butt" stroke-miterlimit="10" stroke-linejoin="miter" fill="none" stroke="#409f9f" d="M-12.38605-36.0885-14.8238-38.28215"/>
<path transform="matrix(1.00005,0,0,-1.00005,53.075998,51.578927)" stroke-width=".79701" stroke-linecap="butt" stroke-miterlimit="10" stroke-linejoin="miter" fill="none" stroke="#409f9f" d="M-8.09557-34.19649-10.04478-36.54623"/>
<path transform="matrix(1.00005,0,0,-1.00005,53.075998,51.578927)" stroke-width=".79701" stroke-linecap="butt" stroke-miterlimit="10" stroke-linejoin="miter" fill="none" stroke="#409f9f" d="M-3.95279-32.28471-5.11806-34.83012"/>
<path transform="matrix(1.00005,0,0,-1.00005,53.075998,51.578927)" stroke-width=".79701" stroke-linecap="butt" stroke-miterlimit="10" stroke-linejoin="miter" fill="none" stroke="#409f9f" d="M-.05603-30.37584 .05466-33.1111"/>
<path transform="matrix(1.00005,0,0,-1.00005,53.075998,51.578927)" stroke-width=".79701" stroke-linecap="butt" stroke-miterlimit="10" stroke-linejoin="miter" fill="none" stroke="#409f9f" d="M3.54732-28.56146 5.52077-31.29755"/>
<path transform="matrix(1.00005,0,0,-1.00005,53.075998,51.578927)" stroke-width=".79701" stroke-linecap="butt" stroke-miterlimit="10" stroke-linejoin="miter" fill="none" stroke="#409f9f" d="M7.14171-26.95934 10.99586-29.27179"/>
<path transform="matrix(1.00005,0,0,-1.00005,53.075998,51.578927)" stroke-width=".79701" stroke-linecap="butt" stroke-miterlimit="10" stroke-linejoin="miter" fill="none" stroke="#409f9f" d="M11.1402-25.47545 16.06686-27.12779"/>
<path transform="matrix(1.00005,0,0,-1.00005,53.075998,51.578927)" stroke-width=".79701" stroke-linecap="butt" stroke-miterlimit="10" stroke-linejoin="miter" fill="none" stroke="#409f9f" d="M15.47774-23.92966 20.79883-25.0457"/>
<path transform="matrix(1.00005,0,0,-1.00005,53.075998,51.578927)" stroke-width=".79701" stroke-linecap="butt" stroke-miterlimit="10" stroke-linejoin="miter" fill="none" stroke="#409f9f" d="M19.96024-22.28397 25.38582-23.06346"/>
<path transform="matrix(1.00005,0,0,-1.00005,53.075998,51.578927)" stroke-width=".79701" stroke-linecap="butt" stroke-miterlimit="10" stroke-linejoin="miter" fill="none" stroke="#409f9f" d="M24.48355-20.55971 29.93198-21.15982"/>
<path transform="matrix(1.00005,0,0,-1.00005,53.075998,51.578927)" stroke-width=".79701" stroke-linecap="butt" stroke-miterlimit="10" stroke-linejoin="miter" fill="none" stroke="#409f9f" d="M29.01764-18.77335 34.46742-19.31827"/>
<path transform="matrix(1.00005,0,0,-1.00005,53.075998,51.578927)" stroke-width=".79701" stroke-linecap="butt" stroke-miterlimit="10" stroke-linejoin="miter" fill="none" stroke="#409f9f" d="M33.55304-16.93182 39.00146-17.53194"/>
<path transform="matrix(1.00005,0,0,-1.00005,53.075998,51.578927)" stroke-width=".79701" stroke-linecap="butt" stroke-miterlimit="10" stroke-linejoin="miter" fill="none" stroke="#409f9f" d="M38.0992-15.02818 43.52478-15.80768"/>
<path transform="matrix(1.00005,0,0,-1.00005,53.075998,51.578927)" stroke-width=".79701" stroke-linecap="butt" stroke-miterlimit="10" stroke-linejoin="miter" fill="none" stroke="#409f9f" d="M42.68619-13.04596 48.00728-14.162"/>
<path transform="matrix(1.00005,0,0,-1.00005,53.075998,51.578927)" stroke-width=".79701" stroke-linecap="butt" stroke-miterlimit="10" stroke-linejoin="miter" fill="none" stroke="#409f9f" d="M47.41814-10.96387 52.3448-12.61621"/>
<path transform="matrix(1.00005,0,0,-1.00005,53.075998,51.578927)" stroke-width=".79701" stroke-linecap="butt" stroke-miterlimit="10" stroke-linejoin="miter" fill="none" stroke="#409f9f" d="M52.48914-8.81984 56.34329-11.13231"/>
<path transform="matrix(1.00005,0,0,-1.00005,53.075998,51.578927)" stroke-width=".79701" stroke-linecap="butt" stroke-miterlimit="10" stroke-linejoin="miter" fill="none" stroke="#409f9f" d="M57.96286-6.79361 59.93909-9.53065"/>
<path transform="matrix(1.00005,0,0,-1.00005,53.075998,51.578927)" stroke-width=".79701" stroke-linecap="butt" stroke-miterlimit="10" stroke-linejoin="miter" fill="none" stroke="#409f9f" d="M63.43036-4.98056 63.54106-7.71582"/>
<path transform="matrix(1.00005,0,0,-1.00005,53.075998,51.578927)" stroke-width=".79701" stroke-linecap="butt" stroke-miterlimit="10" stroke-linejoin="miter" fill="none" stroke="#409f9f" d="M68.60309-3.26154 67.43782-5.80695"/>
<path transform="matrix(1.00005,0,0,-1.00005,53.075998,51.578927)" stroke-width=".79701" stroke-linecap="butt" stroke-miterlimit="10" stroke-linejoin="miter" fill="none" stroke="#409f9f" d="M73.52982-1.54541 71.5806-3.89516"/>
<path transform="matrix(1.00005,0,0,-1.00005,53.075998,51.578927)" stroke-width=".79701" stroke-linecap="butt" stroke-miterlimit="10" stroke-linejoin="miter" fill="none" stroke="#409f9f" d="M78.30884 .19048 75.87108-2.00316"/>
<path transform="matrix(1.00005,0,0,-1.00005,53.075998,51.578927)" stroke-width=".79701" stroke-linecap="butt" stroke-miterlimit="10" stroke-linejoin="miter" fill="none" stroke="#409f9f" d="M-7.85132-38.8093-10.28908-41.00293"/>
<path transform="matrix(1.00005,0,0,-1.00005,53.075998,51.578927)" stroke-width=".79701" stroke-linecap="butt" stroke-miterlimit="10" stroke-linejoin="miter" fill="none" stroke="#409f9f" d="M-3.56082-36.91728-5.51006-39.26703"/>
<path transform="matrix(1.00005,0,0,-1.00005,53.075998,51.578927)" stroke-width=".79701" stroke-linecap="butt" stroke-miterlimit="10" stroke-linejoin="miter" fill="none" stroke="#409f9f" d="M.58192-35.0055-.58333-37.55092"/>
<path transform="matrix(1.00005,0,0,-1.00005,53.075998,51.578927)" stroke-width=".79701" stroke-linecap="butt" stroke-miterlimit="10" stroke-linejoin="miter" fill="none" stroke="#409f9f" d="M4.4787-33.09663 4.5894-35.8319"/>
<path transform="matrix(1.00005,0,0,-1.00005,53.075998,51.578927)" stroke-width=".79701" stroke-linecap="butt" stroke-miterlimit="10" stroke-linejoin="miter" fill="none" stroke="#409f9f" d="M8.08205-31.28226 10.05551-34.01834"/>
<path transform="matrix(1.00005,0,0,-1.00005,53.075998,51.578927)" stroke-width=".79701" stroke-linecap="butt" stroke-miterlimit="10" stroke-linejoin="miter" fill="none" stroke="#409f9f" d="M11.67645-29.68011 15.53061-31.99258"/>
<path transform="matrix(1.00005,0,0,-1.00005,53.075998,51.578927)" stroke-width=".79701" stroke-linecap="butt" stroke-miterlimit="10" stroke-linejoin="miter" fill="none" stroke="#409f9f" d="M15.67494-28.19624 20.6016-29.84857"/>
<path transform="matrix(1.00005,0,0,-1.00005,53.075998,51.578927)" stroke-width=".79701" stroke-linecap="butt" stroke-miterlimit="10" stroke-linejoin="miter" fill="none" stroke="#409f9f" d="M20.01247-26.65044 25.33356-27.76648"/>
<path transform="matrix(1.00005,0,0,-1.00005,53.075998,51.578927)" stroke-width=".79701" stroke-linecap="butt" stroke-miterlimit="10" stroke-linejoin="miter" fill="none" stroke="#409f9f" d="M24.49496-25.00476 29.92056-25.78426"/>
<path transform="matrix(1.00005,0,0,-1.00005,53.075998,51.578927)" stroke-width=".79701" stroke-linecap="butt" stroke-miterlimit="10" stroke-linejoin="miter" fill="none" stroke="#409f9f" d="M29.0183-23.2805 34.4667-23.88062"/>
<path transform="matrix(1.00005,0,0,-1.00005,53.075998,51.578927)" stroke-width=".79701" stroke-linecap="butt" stroke-miterlimit="10" stroke-linejoin="miter" fill="none" stroke="#409f9f" d="M33.55237-21.49413 39.00215-22.03906"/>
<path transform="matrix(1.00005,0,0,-1.00005,53.075998,51.578927)" stroke-width=".79701" stroke-linecap="butt" stroke-miterlimit="10" stroke-linejoin="miter" fill="none" stroke="#409f9f" d="M38.08777-19.6526 43.5362-20.25272"/>
<path transform="matrix(1.00005,0,0,-1.00005,53.075998,51.578927)" stroke-width=".79701" stroke-linecap="butt" stroke-miterlimit="10" stroke-linejoin="miter" fill="none" stroke="#409f9f" d="M42.63393-17.74898 48.05951-18.52847"/>
<path transform="matrix(1.00005,0,0,-1.00005,53.075998,51.578927)" stroke-width=".79701" stroke-linecap="butt" stroke-miterlimit="10" stroke-linejoin="miter" fill="none" stroke="#409f9f" d="M47.22093-15.76675 52.542-16.8828"/>
<path transform="matrix(1.00005,0,0,-1.00005,53.075998,51.578927)" stroke-width=".79701" stroke-linecap="butt" stroke-miterlimit="10" stroke-linejoin="miter" fill="none" stroke="#409f9f" d="M51.95288-13.68466 56.87953-15.33699"/>
<path transform="matrix(1.00005,0,0,-1.00005,53.075998,51.578927)" stroke-width=".79701" stroke-linecap="butt" stroke-miterlimit="10" stroke-linejoin="miter" fill="none" stroke="#409f9f" d="M57.02388-11.54063 60.87804-13.8531"/>
<path transform="matrix(1.00005,0,0,-1.00005,53.075998,51.578927)" stroke-width=".79701" stroke-linecap="butt" stroke-miterlimit="10" stroke-linejoin="miter" fill="none" stroke="#409f9f" d="M62.49759-9.51439 64.47382-12.25145"/>
<path transform="matrix(1.00005,0,0,-1.00005,53.075998,51.578927)" stroke-width=".79701" stroke-linecap="butt" stroke-miterlimit="10" stroke-linejoin="miter" fill="none" stroke="#409f9f" d="M67.96509-7.70134 68.07579-10.4366"/>
<path transform="matrix(1.00005,0,0,-1.00005,53.075998,51.578927)" stroke-width=".79701" stroke-linecap="butt" stroke-miterlimit="10" stroke-linejoin="miter" fill="none" stroke="#409f9f" d="M73.13782-5.98232 71.97256-8.52774"/>
<path transform="matrix(1.00005,0,0,-1.00005,53.075998,51.578927)" stroke-width=".79701" stroke-linecap="butt" stroke-miterlimit="10" stroke-linejoin="miter" fill="none" stroke="#409f9f" d="M78.06456-4.2662 76.11533-6.61594"/>
<path transform="matrix(1.00005,0,0,-1.00005,53.075998,51.578927)" stroke-width=".79701" stroke-linecap="butt" stroke-miterlimit="10" stroke-linejoin="miter" fill="none" stroke="#409f9f" d="M82.84357-2.5303 80.4058-4.72395"/>
<path transform="matrix(1.00005,0,0,-1.00005,53.075998,51.578927)" stroke-width=".79701" stroke-linecap="butt" stroke-miterlimit="10" stroke-linejoin="miter" fill="none" stroke="#409f9f" d="M-3.31656-41.53009-5.75432-43.72374"/>
<path transform="matrix(1.00005,0,0,-1.00005,53.075998,51.578927)" stroke-width=".79701" stroke-linecap="butt" stroke-miterlimit="10" stroke-linejoin="miter" fill="none" stroke="#409f9f" d="M.9739-39.63809-.97531-41.98782"/>
<path transform="matrix(1.00005,0,0,-1.00005,53.075998,51.578927)" stroke-width=".79701" stroke-linecap="butt" stroke-miterlimit="10" stroke-linejoin="miter" fill="none" stroke="#409f9f" d="M5.11667-37.7263 3.95142-40.27171"/>
<path transform="matrix(1.00005,0,0,-1.00005,53.075998,51.578927)" stroke-width=".79701" stroke-linecap="butt" stroke-miterlimit="10" stroke-linejoin="miter" fill="none" stroke="#409f9f" d="M9.01344-35.81743 9.12415-38.55269"/>
<path transform="matrix(1.00005,0,0,-1.00005,53.075998,51.578927)" stroke-width=".79701" stroke-linecap="butt" stroke-miterlimit="10" stroke-linejoin="miter" fill="none" stroke="#409f9f" d="M12.61679-34.00307 14.59026-36.73915"/>
<path transform="matrix(1.00005,0,0,-1.00005,53.075998,51.578927)" stroke-width=".79701" stroke-linecap="butt" stroke-miterlimit="10" stroke-linejoin="miter" fill="none" stroke="#409f9f" d="M16.2112-32.40092 20.06535-34.7134"/>
<path transform="matrix(1.00005,0,0,-1.00005,53.075998,51.578927)" stroke-width=".79701" stroke-linecap="butt" stroke-miterlimit="10" stroke-linejoin="miter" fill="none" stroke="#409f9f" d="M20.20969-30.91705 25.13634-32.56938"/>
<path transform="matrix(1.00005,0,0,-1.00005,53.075998,51.578927)" stroke-width=".79701" stroke-linecap="butt" stroke-miterlimit="10" stroke-linejoin="miter" fill="none" stroke="#409f9f" d="M24.54723-29.37125 29.8683-30.48729"/>
<path transform="matrix(1.00005,0,0,-1.00005,53.075998,51.578927)" stroke-width=".79701" stroke-linecap="butt" stroke-miterlimit="10" stroke-linejoin="miter" fill="none" stroke="#409f9f" d="M29.02972-27.72556 34.4553-28.50505"/>
<path transform="matrix(1.00005,0,0,-1.00005,53.075998,51.578927)" stroke-width=".79701" stroke-linecap="butt" stroke-miterlimit="10" stroke-linejoin="miter" fill="none" stroke="#409f9f" d="M33.55304-26.0013 39.00146-26.60141"/>
<path transform="matrix(1.00005,0,0,-1.00005,53.075998,51.578927)" stroke-width=".79701" stroke-linecap="butt" stroke-miterlimit="10" stroke-linejoin="miter" fill="none" stroke="#409f9f" d="M38.08713-24.21494 43.53691-24.75987"/>
<path transform="matrix(1.00005,0,0,-1.00005,53.075998,51.578927)" stroke-width=".79701" stroke-linecap="butt" stroke-miterlimit="10" stroke-linejoin="miter" fill="none" stroke="#409f9f" d="M42.62253-22.37341 48.07094-22.97353"/>
<path transform="matrix(1.00005,0,0,-1.00005,53.075998,51.578927)" stroke-width=".79701" stroke-linecap="butt" stroke-miterlimit="10" stroke-linejoin="miter" fill="none" stroke="#409f9f" d="M47.16867-20.46977 52.59427-21.24927"/>
<path transform="matrix(1.00005,0,0,-1.00005,53.075998,51.578927)" stroke-width=".79701" stroke-linecap="butt" stroke-miterlimit="10" stroke-linejoin="miter" fill="none" stroke="#409f9f" d="M51.75568-18.48756 57.07677-19.60359"/>
<path transform="matrix(1.00005,0,0,-1.00005,53.075998,51.578927)" stroke-width=".79701" stroke-linecap="butt" stroke-miterlimit="10" stroke-linejoin="miter" fill="none" stroke="#409f9f" d="M56.48763-16.40547 61.41428-18.0578"/>
<path transform="matrix(1.00005,0,0,-1.00005,53.075998,51.578927)" stroke-width=".79701" stroke-linecap="butt" stroke-miterlimit="10" stroke-linejoin="miter" fill="none" stroke="#409f9f" d="M61.55862-14.26144 65.41278-16.5739"/>
<path transform="matrix(1.00005,0,0,-1.00005,53.075998,51.578927)" stroke-width=".79701" stroke-linecap="butt" stroke-miterlimit="10" stroke-linejoin="miter" fill="none" stroke="#409f9f" d="M67.03233-12.2352 69.00856-14.97226"/>
<path transform="matrix(1.00005,0,0,-1.00005,53.075998,51.578927)" stroke-width=".79701" stroke-linecap="butt" stroke-miterlimit="10" stroke-linejoin="miter" fill="none" stroke="#409f9f" d="M72.49983-10.42215 72.61053-13.15741"/>
<path transform="matrix(1.00005,0,0,-1.00005,53.075998,51.578927)" stroke-width=".79701" stroke-linecap="butt" stroke-miterlimit="10" stroke-linejoin="miter" fill="none" stroke="#409f9f" d="M77.67258-8.70313 76.50731-11.24855"/>
<path transform="matrix(1.00005,0,0,-1.00005,53.075998,51.578927)" stroke-width=".79701" stroke-linecap="butt" stroke-miterlimit="10" stroke-linejoin="miter" fill="none" stroke="#409f9f" d="M82.5993-6.987 80.65007-9.33675"/>
<path transform="matrix(1.00005,0,0,-1.00005,53.075998,51.578927)" stroke-width=".79701" stroke-linecap="butt" stroke-miterlimit="10" stroke-linejoin="miter" fill="none" stroke="#409f9f" d="M87.37833-5.2511 84.94057-7.44475"/>
<path transform="matrix(1.00005,0,0,-1.00005,53.075998,51.578927)" stroke-width=".79701" stroke-linecap="butt" stroke-miterlimit="10" stroke-linejoin="miter" fill="none" stroke="#409f9f" d="M1.21817-44.2509-1.21957-46.44455"/>
<path transform="matrix(1.00005,0,0,-1.00005,53.075998,51.578927)" stroke-width=".79701" stroke-linecap="butt" stroke-miterlimit="10" stroke-linejoin="miter" fill="none" stroke="#409f9f" d="M5.50865-42.35889 3.55943-44.70863"/>
<path transform="matrix(1.00005,0,0,-1.00005,53.075998,51.578927)" stroke-width=".79701" stroke-linecap="butt" stroke-miterlimit="10" stroke-linejoin="miter" fill="none" stroke="#409f9f" d="M9.65143-40.44711 8.48616-42.99252"/>
<path transform="matrix(1.00005,0,0,-1.00005,53.075998,51.578927)" stroke-width=".79701" stroke-linecap="butt" stroke-miterlimit="10" stroke-linejoin="miter" fill="none" stroke="#409f9f" d="M13.54819-38.53824 13.65889-41.2735"/>
<path transform="matrix(1.00005,0,0,-1.00005,53.075998,51.578927)" stroke-width=".79701" stroke-linecap="butt" stroke-miterlimit="10" stroke-linejoin="miter" fill="none" stroke="#409f9f" d="M17.15155-36.72386 19.12502-39.45995"/>
<path transform="matrix(1.00005,0,0,-1.00005,53.075998,51.578927)" stroke-width=".79701" stroke-linecap="butt" stroke-miterlimit="10" stroke-linejoin="miter" fill="none" stroke="#409f9f" d="M20.74596-35.12173 24.60011-37.43419"/>
<path transform="matrix(1.00005,0,0,-1.00005,53.075998,51.578927)" stroke-width=".79701" stroke-linecap="butt" stroke-miterlimit="10" stroke-linejoin="miter" fill="none" stroke="#409f9f" d="M24.74443-33.63785 29.6711-35.29019"/>
<path transform="matrix(1.00005,0,0,-1.00005,53.075998,51.578927)" stroke-width=".79701" stroke-linecap="butt" stroke-miterlimit="10" stroke-linejoin="miter" fill="none" stroke="#409f9f" d="M29.08197-32.09206 34.40306-33.20808"/>
<path transform="matrix(1.00005,0,0,-1.00005,53.075998,51.578927)" stroke-width=".79701" stroke-linecap="butt" stroke-miterlimit="10" stroke-linejoin="miter" fill="none" stroke="#409f9f" d="M33.56447-30.44637 38.99005-31.22586"/>
<path transform="matrix(1.00005,0,0,-1.00005,53.075998,51.578927)" stroke-width=".79701" stroke-linecap="butt" stroke-miterlimit="10" stroke-linejoin="miter" fill="none" stroke="#409f9f" d="M38.08778-28.7221 43.53621-29.32222"/>
<path transform="matrix(1.00005,0,0,-1.00005,53.075998,51.578927)" stroke-width=".79701" stroke-linecap="butt" stroke-miterlimit="10" stroke-linejoin="miter" fill="none" stroke="#409f9f" d="M42.62187-26.93575 48.07166-27.48067"/>
<path transform="matrix(1.00005,0,0,-1.00005,53.075998,51.578927)" stroke-width=".79701" stroke-linecap="butt" stroke-miterlimit="10" stroke-linejoin="miter" fill="none" stroke="#409f9f" d="M47.15727-25.09422 52.6057-25.69434"/>
<path transform="matrix(1.00005,0,0,-1.00005,53.075998,51.578927)" stroke-width=".79701" stroke-linecap="butt" stroke-miterlimit="10" stroke-linejoin="miter" fill="none" stroke="#409f9f" d="M51.70343-23.19058 57.12901-23.97008"/>
<path transform="matrix(1.00005,0,0,-1.00005,53.075998,51.578927)" stroke-width=".79701" stroke-linecap="butt" stroke-miterlimit="10" stroke-linejoin="miter" fill="none" stroke="#409f9f" d="M56.29042-21.20836 61.61151-22.3244"/>
<path transform="matrix(1.00005,0,0,-1.00005,53.075998,51.578927)" stroke-width=".79701" stroke-linecap="butt" stroke-miterlimit="10" stroke-linejoin="miter" fill="none" stroke="#409f9f" d="M61.02237-19.12627 65.94904-20.77861"/>
<path transform="matrix(1.00005,0,0,-1.00005,53.075998,51.578927)" stroke-width=".79701" stroke-linecap="butt" stroke-miterlimit="10" stroke-linejoin="miter" fill="none" stroke="#409f9f" d="M66.09337-16.98224 69.94754-19.29471"/>
<path transform="matrix(1.00005,0,0,-1.00005,53.075998,51.578927)" stroke-width=".79701" stroke-linecap="butt" stroke-miterlimit="10" stroke-linejoin="miter" fill="none" stroke="#409f9f" d="M71.5671-14.95601 73.54332-17.69305"/>
<path transform="matrix(1.00005,0,0,-1.00005,53.075998,51.578927)" stroke-width=".79701" stroke-linecap="butt" stroke-miterlimit="10" stroke-linejoin="miter" fill="none" stroke="#409f9f" d="M77.03459-13.14296 77.1453-15.87822"/>
<path transform="matrix(1.00005,0,0,-1.00005,53.075998,51.578927)" stroke-width=".79701" stroke-linecap="butt" stroke-miterlimit="10" stroke-linejoin="miter" fill="none" stroke="#409f9f" d="M82.20732-11.42393 81.04205-13.96935"/>
<path transform="matrix(1.00005,0,0,-1.00005,53.075998,51.578927)" stroke-width=".79701" stroke-linecap="butt" stroke-miterlimit="10" stroke-linejoin="miter" fill="none" stroke="#409f9f" d="M87.13405-9.70781 85.18483-12.05754"/>
<path transform="matrix(1.00005,0,0,-1.00005,53.075998,51.578927)" stroke-width=".79701" stroke-linecap="butt" stroke-miterlimit="10" stroke-linejoin="miter" fill="none" stroke="#409f9f" d="M91.91307-7.97191 89.47531-10.16556"/>
</svg>
