<svg xmlns="http://www.w3.org/2000/svg" xmlns:xlink="http://www.w3.org/1999/xlink" version="1.1" width="80" height="36" viewBox="0 0 80 36">
<defs>
<path id="font_1_3" d="M.2999878 .17871094V.0769043C.2999878 .04296875 .2889862 .036987306 .2649994 .034988405L.20098877 .0289917V0H.46499635V.0289917L.41999818 .033981325C.39698792 .036987306 .3899994 .04296875 .3899994 .0769043V.17871094H.49299623V.22570801H.3899994V.66796877H.31698609C.22299195 .5298767 .11099243 .35577394 .018997193 .19970703L.027999878 .17871094H.2999878M.09098816 .22570801C.15098572 .33476258 .22099304 .4498291 .2979889 .5709076H.2999878V.22570801H.09098816Z"/>
<path id="font_1_4" d="M.2649994 .3380127C.34498597 .3380127 .3880005 .2700653 .3880005 .17915344 .3880005 .09121704 .34999085 .023269654 .2649994 .023269654 .18199158 .023269654 .14199829 .09121704 .14199829 .17915344 .14199829 .2700653 .18598938 .3380127 .2649994 .3380127M.2649994-.01171875C.4269867-.01171875 .48799134 .081222537 .48799134 .18214417 .48799134 .28405763 .42399598 .3420105 .35598756 .35801698V.36102296C.4169922 .37701417 .46598817 .427948 .46598817 .5098419 .46598817 .6187134 .3809967 .6796875 .2649994 .6796875 .15098572 .6796875 .06399536 .61772158 .06399536 .5098419 .06399536 .427948 .11399841 .37701417 .17399597 .36102296V.35801698C.10699463 .3420105 .041992189 .28405763 .041992189 .18214417 .041992189 .081222537 .101989749-.01171875 .2649994-.01171875M.2649994 .37402345C.19299317 .37402345 .16099549 .44392396 .16099549 .5118408 .16099549 .5887451 .19699097 .64468386 .2649994 .64468386 .33299256 .64468386 .36698915 .5887451 .36898805 .5118408 .36898805 .44392396 .33799745 .37402345 .2649994 .37402345Z"/>
<path id="font_2_1" d="M.42799378 .45222474 .43899537 .49023438H.31199647L.34599305 .6092224 .33399964 .6162262 .23699951 .53923037 .22399903 .49023438H.14299011L.13198853 .45222474H.21499634L.125 .08627319C.10998535 .029266358 .12199402-.01171875 .17199707-.01171875 .2519989-.01171875 .31599427 .054275514 .35598756 .1292572L.33399964 .1462555C.31098939 .10726929 .2599945 .040267946 .22898865 .040267946 .20799256 .040267946 .20799256 .0632782 .21398926 .088272098L.30299378 .45222474H.42799378Z"/>
<path id="font_1_2" d="M.43699647 0V.0289917L.35299684 .035995485C.33198548 .037994386 .31999208 .04598999 .31999208 .08496094V.67367556L.31498719 .6796875 .10899353 .6446991V.6197052L.20199585 .6087036C.21899414 .6067047 .22599793 .5987091 .22599793 .56973269V.08496094C.22599793 .065979007 .22299195 .053985597 .21699524 .04698181 .21199036 .039993287 .20399475 .036987306 .19299317 .035995485L.10899353 .0289917V0H.43699647Z"/>
<path id="font_1_7" d="M.3809967 .6720276C.5589905 .6720276 .59999087 .4931183 .60198977 .3461914 .59999087 .19924927 .5589905 .020339966 .3809967 .020339966 .20298767 .020339966 .1619873 .19924927 .1599884 .3461914 .1619873 .4931183 .20298767 .6720276 .3809967 .6720276M.3809967 .70703127C.2709961 .70703127 .18899536 .6730194 .1329956 .61006167 .07899475 .55007937 .04798889 .4591217 .04798889 .3461914 .04798889 .23423767 .07899475 .14228821 .1329956 .08232117 .18899536 .019348145 .2709961-.0146484379 .3809967-.0146484379 .49198915-.0146484379 .57299807 .019348145 .6289978 .08232117 .6839905 .14228821 .71398928 .23423767 .71398928 .3461914 .71398928 .4591217 .6839905 .55007937 .6289978 .61006167 .57299807 .6730194 .49198915 .70703127 .3809967 .70703127Z"/>
<path id="font_1_5" d="M.034988405 .6923828V.66337588C.12298584 .6573639 .125 .655365 .125 .5993347V.093048099C.125 .037002565 .12298584 .035003663 .034988405 .0289917V0H.32998658V.0289917C.22698975 .035003663 .22399903 .037002565 .22399903 .093048099V.32722474H.3639984C.44898988 .32722474 .45298768 .3032074 .46199037 .23916626H.49198915V.4532776H.46199037C.45298768 .38923646 .44898988 .36523438 .3639984 .36523438H.22399903V.62135317C.22399903 .65437319 .22799683 .65737918 .26098634 .65737918H.3600006C.47599793 .65737918 .49899293 .6343689 .5130005 .5323181H.54299929V.6923828H.034988405Z"/>
<path id="font_1_6" d="M.033996583 .6923828V.66337588C.12199402 .6573639 .12399292 .655365 .12399292 .5993347V.20309448C.12399292 .15007019 .12199402 .11204529 .116989139 .07902527 .11099243 .037002565 .08699036 .032989503 .034988405 .0289917V0H.27198792V.0289917C.20698548 .033996583 .18299866 .037002565 .1769867 .07902527 .17199707 .11204529 .16999817 .15007019 .16999817 .20309448V.6023407H.17199707C.31498719 .4012146 .45700074 .20109558 .59799197 0H.6639862V.48927308C.6639862 .54229739 .66600039 .58032229 .67099 .6133423 .6769867 .655365 .70098879 .6593628 .7529907 .66337588V.6923828H.5159912V.66337588C.58099368 .658371 .6049957 .655365 .61099246 .6133423 .6159973 .58032229 .6179962 .54229739 .6179962 .48927308V.13806153L.6159973 .14006043C.4850006 .32417298 .35499574 .5082855 .22599793 .6923828H.033996583Z"/>
<path id="font_1_1" d="M.2649994 .64468386C.3600006 .64468386 .3869934 .49682618 .3869934 .33398438 .3869934 .17112732 .3600006 .023269654 .2649994 .023269654 .16999817 .023269654 .14299011 .17112732 .14299011 .33398438 .14299011 .49682618 .16999817 .64468386 .2649994 .64468386M.2649994 .6796875C.099990848 .6796875 .040985109 .53378298 .040985109 .33398438 .040985109 .13417053 .099990848-.01171875 .2649994-.01171875 .42999269-.01171875 .4889984 .13417053 .4889984 .33398438 .4889984 .53378298 .42999269 .6796875 .2649994 .6796875Z"/>
<path id="font_3_1" d="M.6349945 .2529297V.31092835H.084991458V.2529297H.6349945Z"/>
</defs>
<path transform="matrix(1.00008,0,0,-1,8.221184,23.723999)" d="M-6.80318-11.33855V22.6771H22.6771V-11.33855ZM22.6771 22.6771" fill="#d9d9ff"/>
<path transform="matrix(1.00008,0,0,-1,8.221184,23.723999)" d="M22.6771-11.33855V22.6771H45.35419V-11.33855ZM45.35419 22.6771" fill="#d9f0d9"/>
<path transform="matrix(1.00008,0,0,-1,8.221184,23.723999)" d="M45.35419-11.33855V22.6771H69.1652V-11.33855ZM69.1652 22.6771" fill="#d9d9ff"/>
<use data-text="4" xlink:href="#font_1_3" transform="matrix(9.166333,0,0,-9.1656,28.468804,33.26)"/>
<use data-text="8" xlink:href="#font_1_4" transform="matrix(9.166333,0,0,-9.1656,51.147619,33.26)"/>
<path transform="matrix(1.00008,0,0,-1,8.221184,23.723999)" stroke-width=".3985" stroke-linecap="butt" stroke-miterlimit="10" stroke-linejoin="miter" fill="none" stroke="#000000" d="M-6.80318 0H68.70692"/>
<path transform="matrix(1.00008,0,0,-1,76.93359,23.723999)" stroke-width=".31879" stroke-linecap="round" stroke-linejoin="round" fill="none" stroke="#000000" d="M-1.19551 1.59401C-1.09587 .99626 0 .09961 .29886 0 0-.09961-1.09587-.99626-1.19551-1.59401"/>
<path transform="matrix(1.00008,0,0,-1,8.221184,23.723999)" stroke-width=".3985" stroke-linecap="butt" stroke-miterlimit="10" stroke-linejoin="miter" fill="none" stroke="#000000" d="M0-11.33855V22.21881"/>
<path transform="matrix(0,-1,-1.00008,-0,8.221184,1.5051899)" stroke-width=".31879" stroke-linecap="round" stroke-linejoin="round" fill="none" stroke="#000000" d="M-1.19551 1.59401C-1.09587 .99626 0 .09961 .29886 0 0-.09961-1.09587-.99626-1.19551-1.59401"/>
<use data-text="t" xlink:href="#font_2_1" transform="matrix(9.166333,0,0,-9.1656,74.30447,32.772)"/>
<path transform="matrix(1.00008,0,0,-1,8.221184,23.723999)" stroke-width=".3985" stroke-linecap="butt" stroke-miterlimit="10" stroke-linejoin="miter" fill="none" stroke="#929292" d="M22.6771 1.13391V-1.13391"/>
<path transform="matrix(1.00008,0,0,-1,8.221184,23.723999)" stroke-width=".3985" stroke-linecap="butt" stroke-miterlimit="10" stroke-linejoin="miter" fill="none" stroke="#929292" d="M45.35419 1.13391V-1.13391"/>
<path transform="matrix(1.00008,0,0,-1,8.221184,23.723999)" stroke-width=".3985" stroke-linecap="butt" stroke-miterlimit="10" stroke-linejoin="miter" fill="none" stroke="#929292" d="M1.13391 11.33855H-1.13391"/>
<use data-text="1" xlink:href="#font_1_2" transform="matrix(9.166333,0,0,-9.1656,1.0936127,15.453999)"/>
<path transform="matrix(1.00008,0,0,-1,8.221184,23.723999)" stroke-width="1.59404" stroke-linecap="butt" stroke-miterlimit="10" stroke-linejoin="miter" fill="none" stroke="#000000" d="M-5.59769 0H-6.51701-6.23085-5.9447-5.65854-5.37238-5.08621-4.80003-4.51389-4.22772-3.94156-3.65538-3.36922-3.08305-2.7969-2.51074-2.22458-1.93842-1.65225-1.36609-1.07993-.79376-.5076-.22144 .0647 .35086 .63701 .92317 1.20934 1.4955 1.78166 2.06783 2.35399 2.64015 2.92632 3.21248 3.49864 3.78482 4.07097 4.35712 4.64328 4.92946 5.21562 5.50179 5.78795 6.07411 6.36028 6.64644 6.9326 7.21877 7.50491 7.79108 8.07724 8.3634 8.64957 8.93573 9.2219 9.50806 9.79422 10.08038 10.36655 10.65273 10.93887 11.22504 11.5112 11.79736 12.08353 12.36969 12.65585 12.94202 13.22818 13.51434 13.8005 14.08667 14.37282 14.65898 14.94514 15.23131 15.51747 15.80363 16.08981 16.37598 16.66212 16.94829 17.23447 17.52061 17.80678 18.09294 18.3791 18.66527 18.95143 19.2376 19.52376 19.80992 20.09608 20.38225 20.66841 20.95456 21.24072 21.52689"/>
<path transform="matrix(-1.00008,-0,0,1,2.623046,23.723999)" stroke-width="1.27522" stroke-linecap="round" stroke-linejoin="round" fill="none" stroke="#000000" d="M-2.27148 3.02866C-2.0822 1.8929 0 .18927 .56786 0 0-.18927-2.0822-1.8929-2.27148-3.02866"/>
<path transform="matrix(1.00008,0,0,-1,8.221184,23.723999)" stroke-width="1.19553" stroke-linecap="butt" stroke-miterlimit="10" stroke-linejoin="miter" fill="none" stroke="#000000" d="M24.66962 0C24.66962 1.10043 23.77753 1.99252 22.6771 1.99252 21.57664 1.99252 20.68457 1.10043 20.68457 0 20.68457-1.10043 21.57664-1.99252 22.6771-1.99252 23.77753-1.99252 24.66962-1.10043 24.66962 0ZM22.6771 0"/>
<path transform="matrix(1.00008,0,0,-1,8.221184,23.723999)" d="M24.66962 11.33855C24.66962 12.43898 23.77753 13.33107 22.6771 13.33107 21.57664 13.33107 20.68457 12.43898 20.68457 11.33855 20.68457 10.2381 21.57664 9.34602 22.6771 9.34602 23.77753 9.34602 24.66962 10.2381 24.66962 11.33855ZM22.6771 11.33855"/>
<path transform="matrix(1.00008,0,0,-1,8.221184,23.723999)" stroke-width="1.59404" stroke-linecap="butt" stroke-miterlimit="10" stroke-linejoin="miter" fill="none" stroke="#000000" d="M22.6771 11.33855H22.89456 23.11205 23.32951 23.547 23.76447 23.98195 24.19942 24.4169 24.63437 24.85185 25.06934 25.2868 25.50429 25.72176 25.93924 26.15671 26.37419 26.59166 26.80914 27.02661 27.2441 27.46158 27.67906 27.89651 28.114 28.33148 28.54897 28.76643 28.9839 29.20139 29.41885 29.63634 29.85382 30.0713 30.28876 30.50624 30.72372 30.94121 31.15868 31.37614 31.59364 31.81111 32.02858 32.24606 32.46355 32.68102 32.89848 33.11597 33.33345 33.55092 33.7684 33.98589 34.20335 34.42082 34.6383 34.85579 35.07326 35.29073 35.50821 35.7257 35.94318 36.16064 36.37813 36.5956 36.81308 37.03055 37.24803 37.4655 37.68297 37.90045 38.11794 38.33542 38.55289 38.77037 38.98784 39.20532 39.42279 39.64027 39.85774 40.07523 40.2927 40.51018 40.72766 40.94514 41.16261 41.38008 41.59756 41.81503 42.03252 42.24998 42.46747 42.68494 42.90242 43.1199 43.33739 43.55486 43.77232 43.9898 44.20729"/>
<path transform="matrix(1.00008,0,0,-1,8.221184,23.723999)" stroke-width="1.19553" stroke-linecap="butt" stroke-miterlimit="10" stroke-linejoin="miter" fill="none" stroke="#000000" d="M47.34671 11.33855C47.34671 12.43898 46.45462 13.33107 45.35419 13.33107 44.25374 13.33107 43.36166 12.43898 43.36166 11.33855 43.36166 10.2381 44.25374 9.34602 45.35419 9.34602 46.45462 9.34602 47.34671 10.2381 47.34671 11.33855ZM45.35419 11.33855"/>
<path transform="matrix(1.00008,0,0,-1,8.221184,23.723999)" d="M47.34671 0C47.34671 1.10043 46.45462 1.99252 45.35419 1.99252 44.25374 1.99252 43.36166 1.10043 43.36166 0 43.36166-1.10043 44.25374-1.99252 45.35419-1.99252 46.45462-1.99252 47.34671-1.10043 47.34671 0ZM45.35419 0"/>
<path transform="matrix(1.00008,0,0,-1,8.221184,23.723999)" stroke-width="1.59404" stroke-linecap="butt" stroke-miterlimit="10" stroke-linejoin="miter" fill="none" stroke="#000000" d="M45.35419 0H45.59468 45.83516 46.07564 46.31613 46.55663 46.7971 47.0376 47.27809 47.51857 47.75906 47.99956 48.24004 48.48053 48.72101 48.96149 49.20198 49.44246 49.68297 49.92345 50.16394 50.40442 50.64491 50.88539 51.12589 51.36636 51.60686 51.84734 52.08784 52.32832 52.56882 52.8093 53.04979 53.29027 53.53076 53.77124 54.01173 54.25221 54.4927 54.7332 54.9737 55.21417 55.45467 55.69514 55.93562 56.17612 56.4166 56.6571 56.8976 57.13808 57.37856 57.61905 57.85953 58.10002 58.3405 58.581 58.82147 59.06198 59.30246 59.54295 59.78343 60.02393 60.2644 60.5049 60.74538 60.98587 61.22635 61.46686 61.70734 61.94783 62.18831 62.4288 62.66928 62.90976 63.15025 63.39073 63.63123 63.87173 64.11221 64.35269 64.59319 64.83366 65.07416 65.31465 65.55513 65.79561 66.0361 66.2766 66.51709 66.75757 66.99806 67.23854 67.47903 67.71951 67.96 68.20049 68.44098 68.68147 68.92197 67.95694"/>
<path transform="matrix(1.00008,0,0,-1,76.183559,23.723999)" stroke-width="1.27522" stroke-linecap="round" stroke-linejoin="round" fill="none" stroke="#000000" d="M-2.27148 3.02866C-2.0822 1.8929 0 .18927 .56786 0 0-.18927-2.0822-1.8929-2.27148-3.02866"/>
<use data-text="O" xlink:href="#font_1_7" transform="matrix(5.4998404,0,0,-5.4994,13.705624,32.418)" fill="#0000ff"/>
<use data-text="F" xlink:href="#font_1_5" transform="matrix(5.4998404,0,0,-5.4994,17.896504,32.418)" fill="#0000ff"/>
<use data-text="F" xlink:href="#font_1_5" transform="matrix(5.4998404,0,0,-5.4994,21.086407,32.418)" fill="#0000ff"/>
<use data-text="O" xlink:href="#font_1_7" transform="matrix(5.4998404,0,0,-5.4994,37.997568,32.418)" fill="#009900"/>
<use data-text="N" xlink:href="#font_1_6" transform="matrix(5.4998404,0,0,-5.4994,42.188447,32.418)" fill="#009900"/>
<use data-text="O" xlink:href="#font_1_7" transform="matrix(5.4998404,0,0,-5.4994,60.197343,32.418)" fill="#0000ff"/>
<use data-text="F" xlink:href="#font_1_5" transform="matrix(5.4998404,0,0,-5.4994,64.38822,32.418)" fill="#0000ff"/>
<use data-text="F" xlink:href="#font_1_5" transform="matrix(5.4998404,0,0,-5.4994,67.578128,32.418)" fill="#0000ff"/>
<use data-text="0" xlink:href="#font_1_1" transform="matrix(9.166333,0,0,-9.1656,9.615295,20.274998)" fill="#0000ff"/>
<use data-text="&#x2212;" xlink:href="#font_3_1" transform="matrix(9.166333,0,0,-9.1656,15.694778,20.274998)" fill="#0000ff"/>
<use data-text="0" xlink:href="#font_1_1" transform="matrix(9.166333,0,0,-9.1656,23.508408,20.274998)" fill="#0000ff"/>
<use data-text="1" xlink:href="#font_1_2" transform="matrix(9.166333,0,0,-9.1656,32.862154,8.936999)" fill="#009900"/>
<use data-text="&#x2212;" xlink:href="#font_3_1" transform="matrix(9.166333,0,0,-9.1656,38.941637,8.936999)" fill="#009900"/>
<use data-text="0" xlink:href="#font_1_1" transform="matrix(9.166333,0,0,-9.1656,46.755266,8.936999)" fill="#009900"/>
<use data-text="1" xlink:href="#font_1_2" transform="matrix(9.166333,0,0,-9.1656,56.108015,19.190999)" fill="#0000ff"/>
<use data-text="&#x2212;" xlink:href="#font_3_1" transform="matrix(9.166333,0,0,-9.1656,62.187498,19.190999)" fill="#0000ff"/>
<use data-text="1" xlink:href="#font_1_2" transform="matrix(9.166333,0,0,-9.1656,70.00113,19.190999)" fill="#0000ff"/>
</svg>
