<svg xmlns="http://www.w3.org/2000/svg" xmlns:xlink="http://www.w3.org/1999/xlink" version="1.1" width="298" height="299" viewBox="0 0 298 299">
<defs>
<path id="font_1_1" d="M.6349945 .2529297V.31092835H.084991458V.2529297H.6349945Z"/>
<path id="font_2_3" d="M.12998963 .3657837C.12998963 .3487854 .1349945 .33779908 .147995 .33779908 .1599884 .33779908 .18699646 .34777833 .23498535 .34777833 .31999208 .34777833 .36799623 .27090455 .36799623 .18403626 .36799623 .065216068 .30899049 .023269654 .23799134 .023269654 .17199707 .023269654 .1289978 .07319641 .10998535 .12911988 .10398865 .14808655 .09399414 .15707398 .07998657 .15707398 .06199646 .15707398 .026992798 .13809204 .026992798 .10215759 .026992798 .05921936 .09599304-.01171875 .23699951-.01171875 .38198854-.01171875 .47299195 .06121826 .47299195 .18902588 .47299195 .32281495 .35798646 .3627777 .30299378 .3677826V.3717804C.35699464 .38078309 .44400025 .4207611 .44400025 .5197296 .44400025 .6306915 .35699464 .6796875 .25 .6796875 .117996219 .6796875 .052993776 .60369876 .052993776 .5607147 .052993776 .5297241 .08799744 .51272585 .101989749 .51272585 .114990238 .51272585 .12298584 .5197296 .1269989 .5327301 .14898682 .60069277 .18699646 .64468386 .24299622 .64468386 .32199098 .64468386 .34098817 .57470706 .34098817 .51872256 .34098817 .4587555 .31999208 .38378907 .23498535 .38378907 .18699646 .38378907 .1599884 .39378358 .147995 .39378358 .1349945 .39378358 .12998963 .38378907 .12998963 .3657837Z"/>
<path id="font_2_2" d="M.4850006 .13195801 .45700074 .13696289C.43598939 .08299255 .41600038 .07598877 .37599183 .07598877H.11999512C.13598633 .1279602 .19499207 .19892884 .28799439 .2658844 .38398744 .33584596 .45799256 .38082887 .45799256 .49276734 .45799256 .63168337 .3659973 .6796875 .26098634 .6796875 .12399292 .6796875 .052993776 .5967102 .052993776 .54473879 .052993776 .51075747 .09098816 .49476625 .10798645 .49476625 .12599182 .49476625 .1329956 .50476077 .13699341 .5217438 .15299988 .5897064 .19198609 .64468386 .2539978 .64468386 .33099366 .64468386 .35299684 .5797119 .35299684 .50675967 .35299684 .3998108 .29899598 .33984376 .21199036 .26289369 .08898926 .15594483 .04598999 .08798218 .026992798 .009994507L.036987306 0H.45098878L.4850006 .13195801Z"/>
<path id="font_2_1" d="M.43699647 0V.0289917L.35299684 .035995485C.33198548 .037994386 .31999208 .04598999 .31999208 .08496094V.67367556L.31498719 .6796875 .10899353 .6446991V.6197052L.20199585 .6087036C.21899414 .6067047 .22599793 .5987091 .22599793 .56973269V.08496094C.22599793 .065979007 .22299195 .053985597 .21699524 .04698181 .21199036 .039993287 .20399475 .036987306 .19299317 .035995485L.10899353 .0289917V0H.43699647Z"/>
<clipPath id="clip_3">
<path transform="matrix(1.00002,0,0,-1.00008,25.705834,272.5355)" d="M-24.61227-24.61227H270.72016V270.72016H-24.61227Z"/>
</clipPath>
<path id="font_4_1" d="M.5069885 .1381836C.48298646 .0932312 .45599366 .040267946 .42799378 .040267946 .40899659 .040267946 .40098573 .06324768 .3789978 .1521759L.34700013 .2830658C.3829956 .34701539 .43399049 .42694093 .46299745 .42694093 .47200013 .42694093 .47999574 .42494203 .4909973 .4189453 .5009918 .4149475 .5109863 .4109497 .522995 .4109497 .54499819 .4109497 .56599429 .4319458 .56599429 .4589386 .56599429 .48994447 .54299929 .5019531 .5149994 .5019531 .46199037 .5019531 .4169922 .45394898 .38198854 .39796449L.33799745 .33003236H.33599855L.29599 .49794007 .2899933 .5019531 .125 .45195008 .12799073 .427948 .20298767 .43295289C.22099304 .4339447 .22799683 .42893983 .23899842 .38298036L.2749939 .2381134 .24699402 .19015503C.20399475 .11723328 .16699219 .0652771 .14299011 .0652771 .1329956 .0652771 .12298584 .0692749 .11399841 .07426453 .10398865 .07926941 .09098816 .089279178 .07398987 .089279178 .04798889 .089279178 .0309906 .0632782 .0309906 .039276124 .0309906 .010269165 .054992677-.01171875 .09498596-.01171875 .16299439-.01171875 .20199585 .056259157 .24299622 .12319946L.2829895 .18914795H.2849884L.30299378 .111206058C.32199098 .031280519 .34098817-.01171875 .3919983-.01171875 .46499635-.01171875 .5029907 .06324768 .5329895 .12420654L.5069885 .1381836Z"/>
<path id="font_4_2" d="M.070999149 .45393373 .07398987 .42893983 .14199829 .43093873C.1639862 .43193055 .16899109 .41493226 .1769867 .36291505 .18798828 .28489686 .20999146 .09286499 .20999146 .0128479 .20999146-.017166138 .20799256-.058166505 .18598938-.11117554 .16799927-.15318299 .14199829-.18218994 .12199402-.18218994 .10699463-.18218994 .09599304-.17118836 .08099365-.15118408 .068984989-.13517761 .06098938-.127182 .04598999-.127182 .019989014-.12818909-.005004883-.15818787-.005004883-.18719483-.005004883-.21418762 .023986817-.2421875 .067993167-.2421875 .15299988-.2421875 .18998719-.17919922 .27799989-.027160645 .2979889 .0068511965 .35798646 .11286926 .41999818 .21488953 .47698976 .30891419 .5399933 .40592958 .5399933 .4459381 .5399933 .48094178 .5289917 .5019531 .5219879 .5019531 .5029907 .5019531 .46899415 .49394227 .44400025 .47694398 .44499208 .4419403 .44299317 .3809204 .43099977 .33891297 .4149933 .28289796 .35598756 .17488098 .2899933 .06085205H.2869873C.27999879 .21388245 .26098634 .42492677 .24699402 .49795533L.23899842 .5019531 .070999149 .45393373Z"/>
</defs>
<path transform="matrix(1.00002,0,0,-1.00008,25.705834,272.5355)" stroke-width=".3985" stroke-linecap="butt" stroke-miterlimit="10" stroke-linejoin="miter" fill="none" stroke="#cbcbcb" d="M0-24.61227V270.72016M41.01797-24.61227V270.72016M82.03595-24.61227V270.72016M164.0719-24.61227V270.72016M205.08989-24.61227V270.72016M246.10787-24.61227V270.72016"/>
<path transform="matrix(1.00002,0,0,-1.00008,25.705834,272.5355)" stroke-width=".3985" stroke-linecap="butt" stroke-miterlimit="10" stroke-linejoin="miter" fill="none" stroke="#cbcbcb" d="M-24.61227 0H270.72016M-24.61227 41.01797H270.72016M-24.61227 82.03595H270.72016M-24.61227 164.0719H270.72016M-24.61227 205.08989H270.72016M-24.61227 246.10787H270.72016"/>
<path transform="matrix(1.00002,0,0,-1.00008,25.705834,272.5355)" stroke-width=".19925" stroke-linecap="butt" stroke-miterlimit="10" stroke-linejoin="miter" fill="none" stroke="#929292" d="M0 120.928V125.17984M41.01797 120.928V125.17984M82.03595 120.928V125.17984M164.0719 120.928V125.17984M205.08989 120.928V125.17984M246.10787 120.928V125.17984"/>
<path transform="matrix(1.00002,0,0,-1.00008,25.705834,272.5355)" stroke-width=".19925" stroke-linecap="butt" stroke-miterlimit="10" stroke-linejoin="miter" fill="none" stroke="#929292" d="M120.928 0H125.17984M120.928 41.01797H125.17984M120.928 82.03595H125.17984M120.928 164.0719H125.17984M120.928 205.08989H125.17984M120.928 246.10787H125.17984"/>
<path transform="matrix(1.00002,0,0,-1.00008,25.705834,272.5355)" stroke-width=".3985" stroke-linecap="butt" stroke-miterlimit="10" stroke-linejoin="miter" fill="none" stroke="#000000" d="M-24.61227 123.05392H268.72764"/>
<path transform="matrix(1.00002,0,0,-1.00008,294.43885,149.47174)" d="M1.99252 0-1.19551 1.59401 0 0-1.19551-1.59401"/>
<path transform="matrix(1.00002,0,0,-1.00008,25.705834,272.5355)" stroke-width=".3985" stroke-linecap="butt" stroke-miterlimit="10" stroke-linejoin="miter" fill="none" stroke="#000000" d="M123.05392-24.61227V268.72764"/>
<path transform="matrix(0,-1.00008,-1.00002,-0,148.7622,3.786377)" d="M1.99252 0-1.19551 1.59401 0 0-1.19551-1.59401"/>
<use data-text="&#x2212;" xlink:href="#font_1_1" transform="matrix(10.036601,0,0,-10.037203,19.432709,161.71762)"/>
<use data-text="3" xlink:href="#font_2_3" transform="matrix(10.036601,0,0,-10.037203,26.654854,161.71762)"/>
<use data-text="&#x2212;" xlink:href="#font_1_1" transform="matrix(10.036601,0,0,-10.037203,60.451528,161.71762)"/>
<use data-text="2" xlink:href="#font_2_2" transform="matrix(10.036601,0,0,-10.037203,67.673679,161.71762)"/>
<use data-text="&#x2212;" xlink:href="#font_1_1" transform="matrix(10.036601,0,0,-10.037203,101.47035,161.71762)"/>
<use data-text="1" xlink:href="#font_2_1" transform="matrix(10.036601,0,0,-10.037203,108.6925,161.71762)"/>
<use data-text="1" xlink:href="#font_2_1" transform="matrix(10.036601,0,0,-10.037203,187.11908,161.71762)"/>
<use data-text="2" xlink:href="#font_2_2" transform="matrix(10.036601,0,0,-10.037203,228.1379,161.71762)"/>
<use data-text="3" xlink:href="#font_2_3" transform="matrix(10.036601,0,0,-10.037203,269.15675,161.71762)"/>
<use data-text="&#x2212;" xlink:href="#font_1_1" transform="matrix(10.036601,0,0,-10.037203,130.69095,275.86878)"/>
<use data-text="3" xlink:href="#font_2_3" transform="matrix(10.036601,0,0,-10.037203,137.91309,275.86878)"/>
<use data-text="&#x2212;" xlink:href="#font_1_1" transform="matrix(10.036601,0,0,-10.037203,130.69095,234.87448)"/>
<use data-text="2" xlink:href="#font_2_2" transform="matrix(10.036601,0,0,-10.037203,137.91309,234.87448)"/>
<use data-text="&#x2212;" xlink:href="#font_1_1" transform="matrix(10.036601,0,0,-10.037203,130.69095,193.8532)"/>
<use data-text="1" xlink:href="#font_2_1" transform="matrix(10.036601,0,0,-10.037203,137.91309,193.8532)"/>
<use data-text="1" xlink:href="#font_2_1" transform="matrix(10.036601,0,0,-10.037203,137.91309,111.81064)"/>
<use data-text="2" xlink:href="#font_2_2" transform="matrix(10.036601,0,0,-10.037203,137.91309,70.78935)"/>
<use data-text="3" xlink:href="#font_2_3" transform="matrix(10.036601,0,0,-10.037203,137.91309,29.741074)"/>
<g clip-path="url(#clip_3)">
<path transform="matrix(1.00002,0,0,-1.00008,25.705834,272.5355)" stroke-width=".3985" stroke-linecap="butt" stroke-miterlimit="10" stroke-linejoin="miter" fill="none" stroke="#000000" d="M0 123.05392H8.20358"/>
<path transform="matrix(1.00002,0,0,-1.00008,25.705834,272.5355)" stroke-width=".3985" stroke-linecap="butt" stroke-miterlimit="10" stroke-linejoin="miter" fill="none" stroke="#000000" d="M17.57906 123.05392H25.78265"/>
<path transform="matrix(1.00002,0,0,-1.00008,25.705834,272.5355)" stroke-width=".3985" stroke-linecap="butt" stroke-miterlimit="10" stroke-linejoin="miter" fill="none" stroke="#000000" d="M35.15813 123.05392H43.36172"/>
<path transform="matrix(1.00002,0,0,-1.00008,25.705834,272.5355)" stroke-width=".3985" stroke-linecap="butt" stroke-miterlimit="10" stroke-linejoin="miter" fill="none" stroke="#000000" d="M52.73721 123.05392H60.9408"/>
<path transform="matrix(1.00002,0,0,-1.00008,25.705834,272.5355)" stroke-width=".3985" stroke-linecap="butt" stroke-miterlimit="10" stroke-linejoin="miter" fill="none" stroke="#000000" d="M70.31627 123.05392H78.51987"/>
<path transform="matrix(1.00002,0,0,-1.00008,25.705834,272.5355)" stroke-width=".3985" stroke-linecap="butt" stroke-miterlimit="10" stroke-linejoin="miter" fill="none" stroke="#000000" d="M87.89536 123.05392H96.09895"/>
<path transform="matrix(1.00002,0,0,-1.00008,25.705834,272.5355)" stroke-width=".3985" stroke-linecap="butt" stroke-miterlimit="10" stroke-linejoin="miter" fill="none" stroke="#000000" d="M105.47443 123.05392H113.67801"/>
<path transform="matrix(1.00002,0,0,-1.00008,25.705834,272.5355)" stroke-width=".3985" stroke-linecap="butt" stroke-miterlimit="10" stroke-linejoin="miter" fill="none" stroke="#000000" d="M123.0535 123.05392H131.2571"/>
<path transform="matrix(1.00002,0,0,-1.00008,25.705834,272.5355)" stroke-width=".3985" stroke-linecap="butt" stroke-miterlimit="10" stroke-linejoin="miter" fill="none" stroke="#000000" d="M140.63257 123.05392H148.83617"/>
<path transform="matrix(1.00002,0,0,-1.00008,25.705834,272.5355)" stroke-width=".3985" stroke-linecap="butt" stroke-miterlimit="10" stroke-linejoin="miter" fill="none" stroke="#000000" d="M158.21164 123.05392H166.41522"/>
<path transform="matrix(1.00002,0,0,-1.00008,25.705834,272.5355)" stroke-width=".3985" stroke-linecap="butt" stroke-miterlimit="10" stroke-linejoin="miter" fill="none" stroke="#000000" d="M175.79071 123.05392H183.99431"/>
<path transform="matrix(1.00002,0,0,-1.00008,25.705834,272.5355)" stroke-width=".3985" stroke-linecap="butt" stroke-miterlimit="10" stroke-linejoin="miter" fill="none" stroke="#000000" d="M193.36978 123.05392H201.57338"/>
<path transform="matrix(1.00002,0,0,-1.00008,25.705834,272.5355)" stroke-width=".3985" stroke-linecap="butt" stroke-miterlimit="10" stroke-linejoin="miter" fill="none" stroke="#000000" d="M210.94887 123.05392H219.15245"/>
<path transform="matrix(1.00002,0,0,-1.00008,25.705834,272.5355)" stroke-width=".3985" stroke-linecap="butt" stroke-miterlimit="10" stroke-linejoin="miter" fill="none" stroke="#000000" d="M228.52793 123.05392H236.73152"/>
<path transform="matrix(1.00002,0,0,-1.00008,25.705834,272.5355)" stroke-width=".3985" stroke-linecap="butt" stroke-miterlimit="10" stroke-linejoin="miter" fill="none" stroke="#000000" d="M246.10701 123.05392H254.31061"/>
<path transform="matrix(1.00002,0,0,-1.00008,25.705834,272.5355)" stroke-width=".3985" stroke-linecap="butt" stroke-miterlimit="10" stroke-linejoin="miter" fill="none" stroke="#000000" d=""/>
</g>
<use data-text="x" xlink:href="#font_4_1" transform="matrix(10.036601,0,0,-10.037203,287.15205,145.98537)"/>
<use data-text="y" xlink:href="#font_4_2" transform="matrix(10.036601,0,0,-10.037203,152.70639,10.156494)"/>
</svg>
