<svg xmlns="http://www.w3.org/2000/svg" xmlns:xlink="http://www.w3.org/1999/xlink" version="1.1" width="123" height="115" viewBox="0 0 123 115">
<defs>
<path id="font_1_1" d="M.42799378 .45222474 .43899537 .49023438H.31199647L.34599305 .6092224 .33399964 .6162262 .23699951 .53923037 .22399903 .49023438H.14299011L.13198853 .45222474H.21499634L.125 .08627319C.10998535 .029266358 .12199402-.01171875 .17199707-.01171875 .2519989-.01171875 .31599427 .054275514 .35598756 .1292572L.33399964 .1462555C.31098939 .10726929 .2599945 .040267946 .22898865 .040267946 .20799256 .040267946 .20799256 .0632782 .21398926 .088272098L.30299378 .45222474H.42799378Z"/>
<path id="font_1_2" d="M.5069885 .1381836C.48298646 .0932312 .45599366 .040267946 .42799378 .040267946 .40899659 .040267946 .40098573 .06324768 .3789978 .1521759L.34700013 .2830658C.3829956 .34701539 .43399049 .42694093 .46299745 .42694093 .47200013 .42694093 .47999574 .42494203 .4909973 .4189453 .5009918 .4149475 .5109863 .4109497 .522995 .4109497 .54499819 .4109497 .56599429 .4319458 .56599429 .4589386 .56599429 .48994447 .54299929 .5019531 .5149994 .5019531 .46199037 .5019531 .4169922 .45394898 .38198854 .39796449L.33799745 .33003236H.33599855L.29599 .49794007 .2899933 .5019531 .125 .45195008 .12799073 .427948 .20298767 .43295289C.22099304 .4339447 .22799683 .42893983 .23899842 .38298036L.2749939 .2381134 .24699402 .19015503C.20399475 .11723328 .16699219 .0652771 .14299011 .0652771 .1329956 .0652771 .12298584 .0692749 .11399841 .07426453 .10398865 .07926941 .09098816 .089279178 .07398987 .089279178 .04798889 .089279178 .0309906 .0632782 .0309906 .039276124 .0309906 .010269165 .054992677-.01171875 .09498596-.01171875 .16299439-.01171875 .20199585 .056259157 .24299622 .12319946L.2829895 .18914795H.2849884L.30299378 .111206058C.32199098 .031280519 .34098817-.01171875 .3919983-.01171875 .46499635-.01171875 .5029907 .06324768 .5329895 .12420654L.5069885 .1381836Z"/>
<path id="font_2_1" d="M.1749878 .2822113C.1749878 .56832888 .2619934 .65437319 .32499696 .66737368V.6923828C.1499939 .685379 .10499573 .46829225 .10499573 .2822113 .10499573 .09614563 .1499939-.12094116 .32499696-.12792969V-.10293579C.2669983-.090927127 .1749878-.0059051516 .1749878 .2822113Z"/>
<path id="font_2_2" d="M.1749878 .2822113C.1749878-.0059051516 .08299255-.090927127 .024993897-.10293579V-.12792969C.19999695-.12094116 .24499512 .09614563 .24499512 .2822113 .24499512 .46829225 .19999695 .685379 .024993897 .6923828V.66737368C.08799744 .65437319 .1749878 .56832888 .1749878 .2822113Z"/>
<path id="font_2_3" d="M.069992069-.140625C.11999512-.09362793 .19299317-.027633667 .19299317 .051361085 .19299317 .10636902 .1599884 .1423645 .125 .14137268 .09399414 .14137268 .07598877 .117370609 .07598877 .09136963 .07598877 .055374147 .10899353 .037368776 .10899353-.005630493 .10899353-.04663086 .08299255-.086639408 .050994874-.12162781L.069992069-.140625Z"/>
<path id="font_1_3" d="M.070999149 .45393373 .07398987 .42893983 .14199829 .43093873C.1639862 .43193055 .16899109 .41493226 .1769867 .36291505 .18798828 .28489686 .20999146 .09286499 .20999146 .0128479 .20999146-.017166138 .20799256-.058166505 .18598938-.11117554 .16799927-.15318299 .14199829-.18218994 .12199402-.18218994 .10699463-.18218994 .09599304-.17118836 .08099365-.15118408 .068984989-.13517761 .06098938-.127182 .04598999-.127182 .019989014-.12818909-.005004883-.15818787-.005004883-.18719483-.005004883-.21418762 .023986817-.2421875 .067993167-.2421875 .15299988-.2421875 .18998719-.17919922 .27799989-.027160645 .2979889 .0068511965 .35798646 .11286926 .41999818 .21488953 .47698976 .30891419 .5399933 .40592958 .5399933 .4459381 .5399933 .48094178 .5289917 .5019531 .5219879 .5019531 .5029907 .5019531 .46899415 .49394227 .44400025 .47694398 .44499208 .4419403 .44299317 .3809204 .43099977 .33891297 .4149933 .28289796 .35598756 .17488098 .2899933 .06085205H.2869873C.27999879 .21388245 .26098634 .42492677 .24699402 .49795533L.23899842 .5019531 .070999149 .45393373Z"/>
</defs>
<path transform="matrix(1,0,0,-1.00002,50.982004,63.656038)" stroke-width=".3985" stroke-linecap="butt" stroke-miterlimit="10" stroke-linejoin="miter" fill="none" stroke="#000000" d="M0 0H49.49197"/>
<path transform="matrix(1,0,0,-1.00002,100.67324,63.656038)" stroke-width=".3985" stroke-linecap="round" stroke-linejoin="round" fill="none" stroke="#000000" d="M-2.07224 2.39104C-1.69365 .95639-.84999 .27895 0 0-.84999-.27895-1.69365-.95639-2.07224-2.39104"/>
<use data-text="t" xlink:href="#font_1_1" transform="matrix(10.0364,0,0,-10.036601,104.49,66.70509)"/>
<path transform="matrix(1,0,0,-1.00002,50.982004,63.656038)" stroke-width=".3985" stroke-linecap="butt" stroke-miterlimit="10" stroke-linejoin="miter" fill="none" stroke="#000000" d="M0-49.89049V49.49197"/>
<path transform="matrix(0,-1.00002,-1,-0,50.982004,13.963802)" stroke-width=".3985" stroke-linecap="round" stroke-linejoin="round" fill="none" stroke="#000000" d="M-2.07224 2.39104C-1.69365 .95639-.84999 .27895 0 0-.84999-.27895-1.69365-.95639-2.07224-2.39104"/>
<use data-text="x" xlink:href="#font_1_2" transform="matrix(10.0364,0,0,-10.036601,31.467995,7.8999178)"/>
<use data-text="(" xlink:href="#font_2_1" transform="matrix(10.0364,0,0,-10.036601,37.347993,7.8999178)"/>
<use data-text="t" xlink:href="#font_1_1" transform="matrix(10.0364,0,0,-10.036601,41.077997,7.8999178)"/>
<use data-text=")" xlink:href="#font_2_2" transform="matrix(10.0364,0,0,-10.036601,45.572999,7.8999178)"/>
<use data-text="," xlink:href="#font_2_3" transform="matrix(10.0364,0,0,-10.036601,49.08574,7.8999178)"/>
<use data-text="y" xlink:href="#font_1_3" transform="matrix(10.0364,0,0,-10.036601,53.36,7.8999178)"/>
<use data-text="(" xlink:href="#font_2_1" transform="matrix(10.0364,0,0,-10.036601,58.977998,7.8999178)"/>
<use data-text="t" xlink:href="#font_1_1" transform="matrix(10.0364,0,0,-10.036601,62.709,7.8999178)"/>
<use data-text=")" xlink:href="#font_2_2" transform="matrix(10.0364,0,0,-10.036601,67.203,7.8999178)"/>
<path transform="matrix(1,0,0,-1.00002,50.982004,63.656038)" stroke-width=".3985" stroke-linecap="butt" stroke-miterlimit="10" stroke-linejoin="miter" fill="none" stroke="#e0e0e0" d="M0-49.89049V49.89049"/>
<path transform="matrix(1,0,0,-1.00002,50.982004,63.656038)" stroke-width=".3985" stroke-linecap="butt" stroke-miterlimit="10" stroke-linejoin="miter" fill="none" stroke="#e0e0e0" d="M-49.89049 22.67752H49.89049"/>
<path transform="matrix(1,0,0,-1.00002,50.982004,63.656038)" stroke-width=".3985" stroke-linecap="butt" stroke-miterlimit="10" stroke-linejoin="miter" fill="none" stroke="#e0e0e0" d="M0-49.89049V49.89049"/>
<path transform="matrix(1,0,0,-1.00002,50.982004,63.656038)" stroke-width=".3985" stroke-linecap="butt" stroke-miterlimit="10" stroke-linejoin="miter" fill="none" stroke="#e0e0e0" d="M-49.89049 0H49.89049"/>
<path transform="matrix(1,0,0,-1.00002,50.982004,63.656038)" d="M2.26787 22.67752C2.26787 23.93004 1.25252 24.94539 0 24.94539-1.25252 24.94539-2.26787 23.93004-2.26787 22.67752-2.26787 21.42499-1.25252 20.40964 0 20.40964 1.25252 20.40964 2.26787 21.42499 2.26787 22.67752ZM0 22.67752" fill="#ccccff"/>
<path transform="matrix(1,0,0,-1.00002,50.982004,63.656038)" stroke-width=".3985" stroke-linecap="butt" stroke-miterlimit="10" stroke-linejoin="miter" fill="none" stroke="#0000b3" d="M2.26787 22.67752C2.26787 23.93004 1.25252 24.94539 0 24.94539-1.25252 24.94539-2.26787 23.93004-2.26787 22.67752-2.26787 21.42499-1.25252 20.40964 0 20.40964 1.25252 20.40964 2.26787 21.42499 2.26787 22.67752ZM0 22.67752"/>
<path transform="matrix(1,0,0,-1.00002,50.982004,63.656038)" d="M2.26787 0C2.26787 1.25252 1.25252 2.26787 0 2.26787-1.25252 2.26787-2.26787 1.25252-2.26787 0-2.26787-1.25252-1.25252-2.26787 0-2.26787 1.25252-2.26787 2.26787-1.25252 2.26787 0ZM0 0" fill="#ffcccc"/>
<path transform="matrix(1,0,0,-1.00002,50.982004,63.656038)" stroke-width=".3985" stroke-linecap="butt" stroke-miterlimit="10" stroke-linejoin="miter" fill="none" stroke="#b30000" d="M2.26787 0C2.26787 1.25252 1.25252 2.26787 0 2.26787-1.25252 2.26787-2.26787 1.25252-2.26787 0-2.26787-1.25252-1.25252-2.26787 0-2.26787 1.25252-2.26787 2.26787-1.25252 2.26787 0ZM0 0"/>
<path transform="matrix(1,0,0,-1.00002,50.982004,63.656038)" stroke-width=".3985" stroke-linecap="butt" stroke-miterlimit="10" stroke-linejoin="miter" fill="none" stroke="#e0e0e0" d="M4.53543-49.89049V49.89049"/>
<path transform="matrix(1,0,0,-1.00002,50.982004,63.656038)" stroke-width=".3985" stroke-linecap="butt" stroke-miterlimit="10" stroke-linejoin="miter" fill="none" stroke="#e0e0e0" d="M-49.89049 18.57047H49.89049"/>
<path transform="matrix(1,0,0,-1.00002,50.982004,63.656038)" stroke-width=".3985" stroke-linecap="butt" stroke-miterlimit="10" stroke-linejoin="miter" fill="none" stroke="#e0e0e0" d="M4.53543-49.89049V49.89049"/>
<path transform="matrix(1,0,0,-1.00002,50.982004,63.656038)" stroke-width=".3985" stroke-linecap="butt" stroke-miterlimit="10" stroke-linejoin="miter" fill="none" stroke="#e0e0e0" d="M-49.89049 .00032H49.89049"/>
<path transform="matrix(1,0,0,-1.00002,50.982004,63.656038)" d="M6.8033 18.57047C6.8033 19.823 5.78795 20.83835 4.53543 20.83835 3.2829 20.83835 2.26755 19.823 2.26755 18.57047 2.26755 17.31795 3.2829 16.3026 4.53543 16.3026 5.78795 16.3026 6.8033 17.31795 6.8033 18.57047ZM4.53543 18.57047" fill="#ccccff"/>
<path transform="matrix(1,0,0,-1.00002,50.982004,63.656038)" stroke-width=".3985" stroke-linecap="butt" stroke-miterlimit="10" stroke-linejoin="miter" fill="none" stroke="#0000b3" d="M6.8033 18.57047C6.8033 19.823 5.78795 20.83835 4.53543 20.83835 3.2829 20.83835 2.26755 19.823 2.26755 18.57047 2.26755 17.31795 3.2829 16.3026 4.53543 16.3026 5.78795 16.3026 6.8033 17.31795 6.8033 18.57047ZM4.53543 18.57047"/>
<path transform="matrix(1,0,0,-1.00002,50.982004,63.656038)" d="M6.8033 .00032C6.8033 1.25285 5.78795 2.2682 4.53543 2.2682 3.2829 2.2682 2.26755 1.25285 2.26755 .00032 2.26755-1.25218 3.2829-2.26753 4.53543-2.26753 5.78795-2.26753 6.8033-1.25218 6.8033 .00032ZM4.53543 .00032" fill="#ffcccc"/>
<path transform="matrix(1,0,0,-1.00002,50.982004,63.656038)" stroke-width=".3985" stroke-linecap="butt" stroke-miterlimit="10" stroke-linejoin="miter" fill="none" stroke="#b30000" d="M6.8033 .00032C6.8033 1.25285 5.78795 2.2682 4.53543 2.2682 3.2829 2.2682 2.26755 1.25285 2.26755 .00032 2.26755-1.25218 3.2829-2.26753 4.53543-2.26753 5.78795-2.26753 6.8033-1.25218 6.8033 .00032ZM4.53543 .00032"/>
<path transform="matrix(1,0,0,-1.00002,50.982004,63.656038)" stroke-width=".3985" stroke-linecap="butt" stroke-miterlimit="10" stroke-linejoin="miter" fill="none" stroke="#e0e0e0" d="M9.07086-49.89049V49.89049"/>
<path transform="matrix(1,0,0,-1.00002,50.982004,63.656038)" stroke-width=".3985" stroke-linecap="butt" stroke-miterlimit="10" stroke-linejoin="miter" fill="none" stroke="#e0e0e0" d="M-49.89049 15.20427H49.89049"/>
<path transform="matrix(1,0,0,-1.00002,50.982004,63.656038)" stroke-width=".3985" stroke-linecap="butt" stroke-miterlimit="10" stroke-linejoin="miter" fill="none" stroke="#e0e0e0" d="M9.07086-49.89049V49.89049"/>
<path transform="matrix(1,0,0,-1.00002,50.982004,63.656038)" stroke-width=".3985" stroke-linecap="butt" stroke-miterlimit="10" stroke-linejoin="miter" fill="none" stroke="#e0e0e0" d="M-49.89049 .00032H49.89049"/>
<path transform="matrix(1,0,0,-1.00002,50.982004,63.656038)" d="M11.33875 15.20427C11.33875 16.45679 10.32338 17.47214 9.07086 17.47214 7.81834 17.47214 6.80298 16.45679 6.80298 15.20427 6.80298 13.95175 7.81834 12.93639 9.07086 12.93639 10.32338 12.93639 11.33875 13.95175 11.33875 15.20427ZM9.07086 15.20427" fill="#ccccff"/>
<path transform="matrix(1,0,0,-1.00002,50.982004,63.656038)" stroke-width=".3985" stroke-linecap="butt" stroke-miterlimit="10" stroke-linejoin="miter" fill="none" stroke="#0000b3" d="M11.33875 15.20427C11.33875 16.45679 10.32338 17.47214 9.07086 17.47214 7.81834 17.47214 6.80298 16.45679 6.80298 15.20427 6.80298 13.95175 7.81834 12.93639 9.07086 12.93639 10.32338 12.93639 11.33875 13.95175 11.33875 15.20427ZM9.07086 15.20427"/>
<path transform="matrix(1,0,0,-1.00002,50.982004,63.656038)" d="M11.33875 .00032C11.33875 1.25285 10.32338 2.2682 9.07086 2.2682 7.81834 2.2682 6.80298 1.25285 6.80298 .00032 6.80298-1.25218 7.81834-2.26753 9.07086-2.26753 10.32338-2.26753 11.33875-1.25218 11.33875 .00032ZM9.07086 .00032" fill="#ffcccc"/>
<path transform="matrix(1,0,0,-1.00002,50.982004,63.656038)" stroke-width=".3985" stroke-linecap="butt" stroke-miterlimit="10" stroke-linejoin="miter" fill="none" stroke="#b30000" d="M11.33875 .00032C11.33875 1.25285 10.32338 2.2682 9.07086 2.2682 7.81834 2.2682 6.80298 1.25285 6.80298 .00032 6.80298-1.25218 7.81834-2.26753 9.07086-2.26753 10.32338-2.26753 11.33875-1.25218 11.33875 .00032ZM9.07086 .00032"/>
<path transform="matrix(1,0,0,-1.00002,50.982004,63.656038)" stroke-width=".3985" stroke-linecap="butt" stroke-miterlimit="10" stroke-linejoin="miter" fill="none" stroke="#e0e0e0" d="M13.6063-49.89049V49.89049"/>
<path transform="matrix(1,0,0,-1.00002,50.982004,63.656038)" stroke-width=".3985" stroke-linecap="butt" stroke-miterlimit="10" stroke-linejoin="miter" fill="none" stroke="#e0e0e0" d="M-49.89049 12.44812H49.89049"/>
<path transform="matrix(1,0,0,-1.00002,50.982004,63.656038)" stroke-width=".3985" stroke-linecap="butt" stroke-miterlimit="10" stroke-linejoin="miter" fill="none" stroke="#e0e0e0" d="M13.6063-49.89049V49.89049"/>
<path transform="matrix(1,0,0,-1.00002,50.982004,63.656038)" stroke-width=".3985" stroke-linecap="butt" stroke-miterlimit="10" stroke-linejoin="miter" fill="none" stroke="#e0e0e0" d="M-49.89049 .00032H49.89049"/>
<path transform="matrix(1,0,0,-1.00002,50.982004,63.656038)" d="M15.87418 12.44812C15.87418 13.70064 14.85881 14.71599 13.6063 14.71599 12.35378 14.71599 11.33842 13.70064 11.33842 12.44812 11.33842 11.1956 12.35378 10.18024 13.6063 10.18024 14.85881 10.18024 15.87418 11.1956 15.87418 12.44812ZM13.6063 12.44812" fill="#ccccff"/>
<path transform="matrix(1,0,0,-1.00002,50.982004,63.656038)" stroke-width=".3985" stroke-linecap="butt" stroke-miterlimit="10" stroke-linejoin="miter" fill="none" stroke="#0000b3" d="M15.87418 12.44812C15.87418 13.70064 14.85881 14.71599 13.6063 14.71599 12.35378 14.71599 11.33842 13.70064 11.33842 12.44812 11.33842 11.1956 12.35378 10.18024 13.6063 10.18024 14.85881 10.18024 15.87418 11.1956 15.87418 12.44812ZM13.6063 12.44812"/>
<path transform="matrix(1,0,0,-1.00002,50.982004,63.656038)" d="M15.87418 .00032C15.87418 1.25285 14.85881 2.2682 13.6063 2.2682 12.35378 2.2682 11.33842 1.25285 11.33842 .00032 11.33842-1.25218 12.35378-2.26753 13.6063-2.26753 14.85881-2.26753 15.87418-1.25218 15.87418 .00032ZM13.6063 .00032" fill="#ffcccc"/>
<path transform="matrix(1,0,0,-1.00002,50.982004,63.656038)" stroke-width=".3985" stroke-linecap="butt" stroke-miterlimit="10" stroke-linejoin="miter" fill="none" stroke="#b30000" d="M15.87418 .00032C15.87418 1.25285 14.85881 2.2682 13.6063 2.2682 12.35378 2.2682 11.33842 1.25285 11.33842 .00032 11.33842-1.25218 12.35378-2.26753 13.6063-2.26753 14.85881-2.26753 15.87418-1.25218 15.87418 .00032ZM13.6063 .00032"/>
<path transform="matrix(1,0,0,-1.00002,50.982004,63.656038)" stroke-width=".3985" stroke-linecap="butt" stroke-miterlimit="10" stroke-linejoin="miter" fill="none" stroke="#e0e0e0" d="M18.14172-49.89049V49.89049"/>
<path transform="matrix(1,0,0,-1.00002,50.982004,63.656038)" stroke-width=".3985" stroke-linecap="butt" stroke-miterlimit="10" stroke-linejoin="miter" fill="none" stroke="#e0e0e0" d="M-49.89049 10.19131H49.89049"/>
<path transform="matrix(1,0,0,-1.00002,50.982004,63.656038)" stroke-width=".3985" stroke-linecap="butt" stroke-miterlimit="10" stroke-linejoin="miter" fill="none" stroke="#e0e0e0" d="M18.14172-49.89049V49.89049"/>
<path transform="matrix(1,0,0,-1.00002,50.982004,63.656038)" stroke-width=".3985" stroke-linecap="butt" stroke-miterlimit="10" stroke-linejoin="miter" fill="none" stroke="#e0e0e0" d="M-49.89049 .00032H49.89049"/>
<path transform="matrix(1,0,0,-1.00002,50.982004,63.656038)" d="M20.4096 10.19131C20.4096 11.44383 19.39426 12.45918 18.14172 12.45918 16.8892 12.45918 15.87386 11.44383 15.87386 10.19131 15.87386 8.93878 16.8892 7.92343 18.14172 7.92343 19.39426 7.92343 20.4096 8.93878 20.4096 10.19131ZM18.14172 10.19131" fill="#ccccff"/>
<path transform="matrix(1,0,0,-1.00002,50.982004,63.656038)" stroke-width=".3985" stroke-linecap="butt" stroke-miterlimit="10" stroke-linejoin="miter" fill="none" stroke="#0000b3" d="M20.4096 10.19131C20.4096 11.44383 19.39426 12.45918 18.14172 12.45918 16.8892 12.45918 15.87386 11.44383 15.87386 10.19131 15.87386 8.93878 16.8892 7.92343 18.14172 7.92343 19.39426 7.92343 20.4096 8.93878 20.4096 10.19131ZM18.14172 10.19131"/>
<path transform="matrix(1,0,0,-1.00002,50.982004,63.656038)" d="M20.4096 .00032C20.4096 1.25285 19.39426 2.2682 18.14172 2.2682 16.8892 2.2682 15.87386 1.25285 15.87386 .00032 15.87386-1.25218 16.8892-2.26753 18.14172-2.26753 19.39426-2.26753 20.4096-1.25218 20.4096 .00032ZM18.14172 .00032" fill="#ffcccc"/>
<path transform="matrix(1,0,0,-1.00002,50.982004,63.656038)" stroke-width=".3985" stroke-linecap="butt" stroke-miterlimit="10" stroke-linejoin="miter" fill="none" stroke="#b30000" d="M20.4096 .00032C20.4096 1.25285 19.39426 2.2682 18.14172 2.2682 16.8892 2.2682 15.87386 1.25285 15.87386 .00032 15.87386-1.25218 16.8892-2.26753 18.14172-2.26753 19.39426-2.26753 20.4096-1.25218 20.4096 .00032ZM18.14172 .00032"/>
<path transform="matrix(1,0,0,-1.00002,50.982004,63.656038)" stroke-width=".3985" stroke-linecap="butt" stroke-miterlimit="10" stroke-linejoin="miter" fill="none" stroke="#e0e0e0" d="M22.67717-49.89049V49.89049"/>
<path transform="matrix(1,0,0,-1.00002,50.982004,63.656038)" stroke-width=".3985" stroke-linecap="butt" stroke-miterlimit="10" stroke-linejoin="miter" fill="none" stroke="#e0e0e0" d="M-49.89049 8.34488H49.89049"/>
<path transform="matrix(1,0,0,-1.00002,50.982004,63.656038)" stroke-width=".3985" stroke-linecap="butt" stroke-miterlimit="10" stroke-linejoin="miter" fill="none" stroke="#e0e0e0" d="M22.67717-49.89049V49.89049"/>
<path transform="matrix(1,0,0,-1.00002,50.982004,63.656038)" stroke-width=".3985" stroke-linecap="butt" stroke-miterlimit="10" stroke-linejoin="miter" fill="none" stroke="#e0e0e0" d="M-49.89049 .00032H49.89049"/>
<path transform="matrix(1,0,0,-1.00002,50.982004,63.656038)" d="M24.94504 8.34488C24.94504 9.5974 23.92969 10.61275 22.67717 10.61275 21.42464 10.61275 20.40929 9.5974 20.40929 8.34488 20.40929 7.09235 21.42464 6.077 22.67717 6.077 23.92969 6.077 24.94504 7.09235 24.94504 8.34488ZM22.67717 8.34488" fill="#ccccff"/>
<path transform="matrix(1,0,0,-1.00002,50.982004,63.656038)" stroke-width=".3985" stroke-linecap="butt" stroke-miterlimit="10" stroke-linejoin="miter" fill="none" stroke="#0000b3" d="M24.94504 8.34488C24.94504 9.5974 23.92969 10.61275 22.67717 10.61275 21.42464 10.61275 20.40929 9.5974 20.40929 8.34488 20.40929 7.09235 21.42464 6.077 22.67717 6.077 23.92969 6.077 24.94504 7.09235 24.94504 8.34488ZM22.67717 8.34488"/>
<path transform="matrix(1,0,0,-1.00002,50.982004,63.656038)" d="M24.94504 .00032C24.94504 1.25285 23.92969 2.2682 22.67717 2.2682 21.42464 2.2682 20.40929 1.25285 20.40929 .00032 20.40929-1.25218 21.42464-2.26753 22.67717-2.26753 23.92969-2.26753 24.94504-1.25218 24.94504 .00032ZM22.67717 .00032" fill="#ffcccc"/>
<path transform="matrix(1,0,0,-1.00002,50.982004,63.656038)" stroke-width=".3985" stroke-linecap="butt" stroke-miterlimit="10" stroke-linejoin="miter" fill="none" stroke="#b30000" d="M24.94504 .00032C24.94504 1.25285 23.92969 2.2682 22.67717 2.2682 21.42464 2.2682 20.40929 1.25285 20.40929 .00032 20.40929-1.25218 21.42464-2.26753 22.67717-2.26753 23.92969-2.26753 24.94504-1.25218 24.94504 .00032ZM22.67717 .00032"/>
<path transform="matrix(1,0,0,-1.00002,50.982004,63.656038)" stroke-width=".3985" stroke-linecap="butt" stroke-miterlimit="10" stroke-linejoin="miter" fill="none" stroke="#e0e0e0" d="M27.2126-49.89049V49.89049"/>
<path transform="matrix(1,0,0,-1.00002,50.982004,63.656038)" stroke-width=".3985" stroke-linecap="butt" stroke-miterlimit="10" stroke-linejoin="miter" fill="none" stroke="#e0e0e0" d="M-49.89049 6.83202H49.89049"/>
<path transform="matrix(1,0,0,-1.00002,50.982004,63.656038)" stroke-width=".3985" stroke-linecap="butt" stroke-miterlimit="10" stroke-linejoin="miter" fill="none" stroke="#e0e0e0" d="M27.2126-49.89049V49.89049"/>
<path transform="matrix(1,0,0,-1.00002,50.982004,63.656038)" stroke-width=".3985" stroke-linecap="butt" stroke-miterlimit="10" stroke-linejoin="miter" fill="none" stroke="#e0e0e0" d="M-49.89049 .00032H49.89049"/>
<path transform="matrix(1,0,0,-1.00002,50.982004,63.656038)" d="M29.48047 6.83202C29.48047 8.08453 28.46512 9.0999 27.2126 9.0999 25.96008 9.0999 24.94472 8.08453 24.94472 6.83202 24.94472 5.5795 25.96008 4.56415 27.2126 4.56415 28.46512 4.56415 29.48047 5.5795 29.48047 6.83202ZM27.2126 6.83202" fill="#ccccff"/>
<path transform="matrix(1,0,0,-1.00002,50.982004,63.656038)" stroke-width=".3985" stroke-linecap="butt" stroke-miterlimit="10" stroke-linejoin="miter" fill="none" stroke="#0000b3" d="M29.48047 6.83202C29.48047 8.08453 28.46512 9.0999 27.2126 9.0999 25.96008 9.0999 24.94472 8.08453 24.94472 6.83202 24.94472 5.5795 25.96008 4.56415 27.2126 4.56415 28.46512 4.56415 29.48047 5.5795 29.48047 6.83202ZM27.2126 6.83202"/>
<path transform="matrix(1,0,0,-1.00002,50.982004,63.656038)" d="M29.48047 .00032C29.48047 1.25285 28.46512 2.2682 27.2126 2.2682 25.96008 2.2682 24.94472 1.25285 24.94472 .00032 24.94472-1.25218 25.96008-2.26753 27.2126-2.26753 28.46512-2.26753 29.48047-1.25218 29.48047 .00032ZM27.2126 .00032" fill="#ffcccc"/>
<path transform="matrix(1,0,0,-1.00002,50.982004,63.656038)" stroke-width=".3985" stroke-linecap="butt" stroke-miterlimit="10" stroke-linejoin="miter" fill="none" stroke="#b30000" d="M29.48047 .00032C29.48047 1.25285 28.46512 2.2682 27.2126 2.2682 25.96008 2.2682 24.94472 1.25285 24.94472 .00032 24.94472-1.25218 25.96008-2.26753 27.2126-2.26753 28.46512-2.26753 29.48047-1.25218 29.48047 .00032ZM27.2126 .00032"/>
<path transform="matrix(1,0,0,-1.00002,50.982004,63.656038)" stroke-width=".3985" stroke-linecap="butt" stroke-miterlimit="10" stroke-linejoin="miter" fill="none" stroke="#e0e0e0" d="M31.74803-49.89049V49.89049"/>
<path transform="matrix(1,0,0,-1.00002,50.982004,63.656038)" stroke-width=".3985" stroke-linecap="butt" stroke-miterlimit="10" stroke-linejoin="miter" fill="none" stroke="#e0e0e0" d="M-49.89049 5.59358H49.89049"/>
<path transform="matrix(1,0,0,-1.00002,50.982004,63.656038)" stroke-width=".3985" stroke-linecap="butt" stroke-miterlimit="10" stroke-linejoin="miter" fill="none" stroke="#e0e0e0" d="M31.74803-49.89049V49.89049"/>
<path transform="matrix(1,0,0,-1.00002,50.982004,63.656038)" stroke-width=".3985" stroke-linecap="butt" stroke-miterlimit="10" stroke-linejoin="miter" fill="none" stroke="#e0e0e0" d="M-49.89049 .00032H49.89049"/>
<path transform="matrix(1,0,0,-1.00002,50.982004,63.656038)" d="M34.01591 5.59358C34.01591 6.8461 33.00055 7.86145 31.74803 7.86145 30.49551 7.86145 29.48015 6.8461 29.48015 5.59358 29.48015 4.34105 30.49551 3.3257 31.74803 3.3257 33.00055 3.3257 34.01591 4.34105 34.01591 5.59358ZM31.74803 5.59358" fill="#ccccff"/>
<path transform="matrix(1,0,0,-1.00002,50.982004,63.656038)" stroke-width=".3985" stroke-linecap="butt" stroke-miterlimit="10" stroke-linejoin="miter" fill="none" stroke="#0000b3" d="M34.01591 5.59358C34.01591 6.8461 33.00055 7.86145 31.74803 7.86145 30.49551 7.86145 29.48015 6.8461 29.48015 5.59358 29.48015 4.34105 30.49551 3.3257 31.74803 3.3257 33.00055 3.3257 34.01591 4.34105 34.01591 5.59358ZM31.74803 5.59358"/>
<path transform="matrix(1,0,0,-1.00002,50.982004,63.656038)" d="M34.01591 .00032C34.01591 1.25285 33.00055 2.2682 31.74803 2.2682 30.49551 2.2682 29.48015 1.25285 29.48015 .00032 29.48015-1.25218 30.49551-2.26753 31.74803-2.26753 33.00055-2.26753 34.01591-1.25218 34.01591 .00032ZM31.74803 .00032" fill="#ffcccc"/>
<path transform="matrix(1,0,0,-1.00002,50.982004,63.656038)" stroke-width=".3985" stroke-linecap="butt" stroke-miterlimit="10" stroke-linejoin="miter" fill="none" stroke="#b30000" d="M34.01591 .00032C34.01591 1.25285 33.00055 2.2682 31.74803 2.2682 30.49551 2.2682 29.48015 1.25285 29.48015 .00032 29.48015-1.25218 30.49551-2.26753 31.74803-2.26753 33.00055-2.26753 34.01591-1.25218 34.01591 .00032ZM31.74803 .00032"/>
<path transform="matrix(1,0,0,-1.00002,50.982004,63.656038)" stroke-width=".3985" stroke-linecap="butt" stroke-miterlimit="10" stroke-linejoin="miter" fill="none" stroke="#e0e0e0" d="M36.28348-49.89049V49.89049"/>
<path transform="matrix(1,0,0,-1.00002,50.982004,63.656038)" stroke-width=".3985" stroke-linecap="butt" stroke-miterlimit="10" stroke-linejoin="miter" fill="none" stroke="#e0e0e0" d="M-49.89049 4.57936H49.89049"/>
<path transform="matrix(1,0,0,-1.00002,50.982004,63.656038)" stroke-width=".3985" stroke-linecap="butt" stroke-miterlimit="10" stroke-linejoin="miter" fill="none" stroke="#e0e0e0" d="M36.28348-49.89049V49.89049"/>
<path transform="matrix(1,0,0,-1.00002,50.982004,63.656038)" stroke-width=".3985" stroke-linecap="butt" stroke-miterlimit="10" stroke-linejoin="miter" fill="none" stroke="#e0e0e0" d="M-49.89049 .00032H49.89049"/>
<path transform="matrix(1,0,0,-1.00002,50.982004,63.656038)" d="M38.55136 4.57936C38.55136 5.83188 37.536 6.84724 36.28348 6.84724 35.03096 6.84724 34.01561 5.83188 34.01561 4.57936 34.01561 3.32684 35.03096 2.31148 36.28348 2.31148 37.536 2.31148 38.55136 3.32684 38.55136 4.57936ZM36.28348 4.57936" fill="#ccccff"/>
<path transform="matrix(1,0,0,-1.00002,50.982004,63.656038)" stroke-width=".3985" stroke-linecap="butt" stroke-miterlimit="10" stroke-linejoin="miter" fill="none" stroke="#0000b3" d="M38.55136 4.57936C38.55136 5.83188 37.536 6.84724 36.28348 6.84724 35.03096 6.84724 34.01561 5.83188 34.01561 4.57936 34.01561 3.32684 35.03096 2.31148 36.28348 2.31148 37.536 2.31148 38.55136 3.32684 38.55136 4.57936ZM36.28348 4.57936"/>
<path transform="matrix(1,0,0,-1.00002,50.982004,63.656038)" d="M38.55136 .00032C38.55136 1.25285 37.536 2.2682 36.28348 2.2682 35.03096 2.2682 34.01561 1.25285 34.01561 .00032 34.01561-1.25218 35.03096-2.26753 36.28348-2.26753 37.536-2.26753 38.55136-1.25218 38.55136 .00032ZM36.28348 .00032" fill="#ffcccc"/>
<path transform="matrix(1,0,0,-1.00002,50.982004,63.656038)" stroke-width=".3985" stroke-linecap="butt" stroke-miterlimit="10" stroke-linejoin="miter" fill="none" stroke="#b30000" d="M38.55136 .00032C38.55136 1.25285 37.536 2.2682 36.28348 2.2682 35.03096 2.2682 34.01561 1.25285 34.01561 .00032 34.01561-1.25218 35.03096-2.26753 36.28348-2.26753 37.536-2.26753 38.55136-1.25218 38.55136 .00032ZM36.28348 .00032"/>
<path transform="matrix(1,0,0,-1.00002,50.982004,63.656038)" stroke-width=".3985" stroke-linecap="butt" stroke-miterlimit="10" stroke-linejoin="miter" fill="none" stroke="#e0e0e0" d="M40.81891-49.89049V49.89049"/>
<path transform="matrix(1,0,0,-1.00002,50.982004,63.656038)" stroke-width=".3985" stroke-linecap="butt" stroke-miterlimit="10" stroke-linejoin="miter" fill="none" stroke="#e0e0e0" d="M-49.89049 3.74922H49.89049"/>
<path transform="matrix(1,0,0,-1.00002,50.982004,63.656038)" stroke-width=".3985" stroke-linecap="butt" stroke-miterlimit="10" stroke-linejoin="miter" fill="none" stroke="#e0e0e0" d="M40.81891-49.89049V49.89049"/>
<path transform="matrix(1,0,0,-1.00002,50.982004,63.656038)" stroke-width=".3985" stroke-linecap="butt" stroke-miterlimit="10" stroke-linejoin="miter" fill="none" stroke="#e0e0e0" d="M-49.89049 .00032H49.89049"/>
<path transform="matrix(1,0,0,-1.00002,50.982004,63.656038)" d="M43.08679 3.74922C43.08679 5.00175 42.07144 6.0171 40.81891 6.0171 39.56639 6.0171 38.55104 5.00175 38.55104 3.74922 38.55104 2.4967 39.56639 1.48135 40.81891 1.48135 42.07144 1.48135 43.08679 2.4967 43.08679 3.74922ZM40.81891 3.74922" fill="#ccccff"/>
<path transform="matrix(1,0,0,-1.00002,50.982004,63.656038)" stroke-width=".3985" stroke-linecap="butt" stroke-miterlimit="10" stroke-linejoin="miter" fill="none" stroke="#0000b3" d="M43.08679 3.74922C43.08679 5.00175 42.07144 6.0171 40.81891 6.0171 39.56639 6.0171 38.55104 5.00175 38.55104 3.74922 38.55104 2.4967 39.56639 1.48135 40.81891 1.48135 42.07144 1.48135 43.08679 2.4967 43.08679 3.74922ZM40.81891 3.74922"/>
<path transform="matrix(1,0,0,-1.00002,50.982004,63.656038)" d="M43.08679 .00032C43.08679 1.25285 42.07144 2.2682 40.81891 2.2682 39.56639 2.2682 38.55104 1.25285 38.55104 .00032 38.55104-1.25218 39.56639-2.26753 40.81891-2.26753 42.07144-2.26753 43.08679-1.25218 43.08679 .00032ZM40.81891 .00032" fill="#ffcccc"/>
<path transform="matrix(1,0,0,-1.00002,50.982004,63.656038)" stroke-width=".3985" stroke-linecap="butt" stroke-miterlimit="10" stroke-linejoin="miter" fill="none" stroke="#b30000" d="M43.08679 .00032C43.08679 1.25285 42.07144 2.2682 40.81891 2.2682 39.56639 2.2682 38.55104 1.25285 38.55104 .00032 38.55104-1.25218 39.56639-2.26753 40.81891-2.26753 42.07144-2.26753 43.08679-1.25218 43.08679 .00032ZM40.81891 .00032"/>
<path transform="matrix(1,0,0,-1.00002,50.982004,63.656038)" stroke-width=".3985" stroke-linecap="butt" stroke-miterlimit="10" stroke-linejoin="miter" fill="none" stroke="#e0e0e0" d="M45.35437-49.89049V49.89049"/>
<path transform="matrix(1,0,0,-1.00002,50.982004,63.656038)" stroke-width=".3985" stroke-linecap="butt" stroke-miterlimit="10" stroke-linejoin="miter" fill="none" stroke="#e0e0e0" d="M-49.89049 3.06894H49.89049"/>
<path transform="matrix(1,0,0,-1.00002,50.982004,63.656038)" stroke-width=".3985" stroke-linecap="butt" stroke-miterlimit="10" stroke-linejoin="miter" fill="none" stroke="#e0e0e0" d="M45.35437-49.89049V49.89049"/>
<path transform="matrix(1,0,0,-1.00002,50.982004,63.656038)" stroke-width=".3985" stroke-linecap="butt" stroke-miterlimit="10" stroke-linejoin="miter" fill="none" stroke="#e0e0e0" d="M-49.89049 .00032H49.89049"/>
<path transform="matrix(1,0,0,-1.00002,50.982004,63.656038)" d="M47.62224 3.06894C47.62224 4.32146 46.60689 5.3368 45.35437 5.3368 44.10184 5.3368 43.08649 4.32146 43.08649 3.06894 43.08649 1.81642 44.10184 .80106 45.35437 .80106 46.60689 .80106 47.62224 1.81642 47.62224 3.06894ZM45.35437 3.06894" fill="#ccccff"/>
<path transform="matrix(1,0,0,-1.00002,50.982004,63.656038)" stroke-width=".3985" stroke-linecap="butt" stroke-miterlimit="10" stroke-linejoin="miter" fill="none" stroke="#0000b3" d="M47.62224 3.06894C47.62224 4.32146 46.60689 5.3368 45.35437 5.3368 44.10184 5.3368 43.08649 4.32146 43.08649 3.06894 43.08649 1.81642 44.10184 .80106 45.35437 .80106 46.60689 .80106 47.62224 1.81642 47.62224 3.06894ZM45.35437 3.06894"/>
<path transform="matrix(1,0,0,-1.00002,50.982004,63.656038)" d="M47.62224 .00032C47.62224 1.25285 46.60689 2.2682 45.35437 2.2682 44.10184 2.2682 43.08649 1.25285 43.08649 .00032 43.08649-1.25218 44.10184-2.26753 45.35437-2.26753 46.60689-2.26753 47.62224-1.25218 47.62224 .00032ZM45.35437 .00032" fill="#ffcccc"/>
<path transform="matrix(1,0,0,-1.00002,50.982004,63.656038)" stroke-width=".3985" stroke-linecap="butt" stroke-miterlimit="10" stroke-linejoin="miter" fill="none" stroke="#b30000" d="M47.62224 .00032C47.62224 1.25285 46.60689 2.2682 45.35437 2.2682 44.10184 2.2682 43.08649 1.25285 43.08649 .00032 43.08649-1.25218 44.10184-2.26753 45.35437-2.26753 46.60689-2.26753 47.62224-1.25218 47.62224 .00032ZM45.35437 .00032"/>
<path transform="matrix(1,0,0,-1.00002,50.982004,63.656038)" stroke-width=".3985" stroke-linecap="butt" stroke-miterlimit="10" stroke-linejoin="miter" fill="none" stroke="#e0e0e0" d="M49.8898-49.89049V49.89049"/>
<path transform="matrix(1,0,0,-1.00002,50.982004,63.656038)" stroke-width=".3985" stroke-linecap="butt" stroke-miterlimit="10" stroke-linejoin="miter" fill="none" stroke="#e0e0e0" d="M-49.89049 2.51321H49.89049"/>
<path transform="matrix(1,0,0,-1.00002,50.982004,63.656038)" stroke-width=".3985" stroke-linecap="butt" stroke-miterlimit="10" stroke-linejoin="miter" fill="none" stroke="#e0e0e0" d="M49.8898-49.89049V49.89049"/>
<path transform="matrix(1,0,0,-1.00002,50.982004,63.656038)" stroke-width=".3985" stroke-linecap="butt" stroke-miterlimit="10" stroke-linejoin="miter" fill="none" stroke="#e0e0e0" d="M-49.89049 .00032H49.89049"/>
<path transform="matrix(1,0,0,-1.00002,50.982004,63.656038)" d="M52.15767 2.51321C52.15767 3.76573 51.14232 4.7811 49.8898 4.7811 48.63728 4.7811 47.62192 3.76573 47.62192 2.51321 47.62192 1.2607 48.63728 .24533 49.8898 .24533 51.14232 .24533 52.15767 1.2607 52.15767 2.51321ZM49.8898 2.51321" fill="#ccccff"/>
<path transform="matrix(1,0,0,-1.00002,50.982004,63.656038)" stroke-width=".3985" stroke-linecap="butt" stroke-miterlimit="10" stroke-linejoin="miter" fill="none" stroke="#0000b3" d="M52.15767 2.51321C52.15767 3.76573 51.14232 4.7811 49.8898 4.7811 48.63728 4.7811 47.62192 3.76573 47.62192 2.51321 47.62192 1.2607 48.63728 .24533 49.8898 .24533 51.14232 .24533 52.15767 1.2607 52.15767 2.51321ZM49.8898 2.51321"/>
<path transform="matrix(1,0,0,-1.00002,50.982004,63.656038)" d="M52.15767 .00032C52.15767 1.25285 51.14232 2.2682 49.8898 2.2682 48.63728 2.2682 47.62192 1.25285 47.62192 .00032 47.62192-1.25218 48.63728-2.26753 49.8898-2.26753 51.14232-2.26753 52.15767-1.25218 52.15767 .00032ZM49.8898 .00032" fill="#ffcccc"/>
<path transform="matrix(1,0,0,-1.00002,50.982004,63.656038)" stroke-width=".3985" stroke-linecap="butt" stroke-miterlimit="10" stroke-linejoin="miter" fill="none" stroke="#b30000" d="M52.15767 .00032C52.15767 1.25285 51.14232 2.2682 49.8898 2.2682 48.63728 2.2682 47.62192 1.25285 47.62192 .00032 47.62192-1.25218 48.63728-2.26753 49.8898-2.26753 51.14232-2.26753 52.15767-1.25218 52.15767 .00032ZM49.8898 .00032"/>
<path transform="matrix(1,0,0,-1.00002,50.982004,63.656038)" stroke-width=".3985" stroke-linecap="butt" stroke-miterlimit="10" stroke-linejoin="miter" fill="none" stroke="#e0e0e0" d="M54.42523-49.89049V49.89049"/>
<path transform="matrix(1,0,0,-1.00002,50.982004,63.656038)" stroke-width=".3985" stroke-linecap="butt" stroke-miterlimit="10" stroke-linejoin="miter" fill="none" stroke="#e0e0e0" d="M-49.89049 2.05714H49.89049"/>
<path transform="matrix(1,0,0,-1.00002,50.982004,63.656038)" stroke-width=".3985" stroke-linecap="butt" stroke-miterlimit="10" stroke-linejoin="miter" fill="none" stroke="#e0e0e0" d="M54.42523-49.89049V49.89049"/>
<path transform="matrix(1,0,0,-1.00002,50.982004,63.656038)" stroke-width=".3985" stroke-linecap="butt" stroke-miterlimit="10" stroke-linejoin="miter" fill="none" stroke="#e0e0e0" d="M-49.89049 .00032H49.89049"/>
<path transform="matrix(1,0,0,-1.00002,50.982004,63.656038)" d="M56.69312 2.05714C56.69312 3.30966 55.67775 4.32501 54.42523 4.32501 53.17271 4.32501 52.15736 3.30966 52.15736 2.05714 52.15736 .80461 53.17271-.21072 54.42523-.21072 55.67775-.21072 56.69312 .80461 56.69312 2.05714ZM54.42523 2.05714" fill="#ccccff"/>
<path transform="matrix(1,0,0,-1.00002,50.982004,63.656038)" stroke-width=".3985" stroke-linecap="butt" stroke-miterlimit="10" stroke-linejoin="miter" fill="none" stroke="#0000b3" d="M56.69312 2.05714C56.69312 3.30966 55.67775 4.32501 54.42523 4.32501 53.17271 4.32501 52.15736 3.30966 52.15736 2.05714 52.15736 .80461 53.17271-.21072 54.42523-.21072 55.67775-.21072 56.69312 .80461 56.69312 2.05714ZM54.42523 2.05714"/>
<path transform="matrix(1,0,0,-1.00002,50.982004,63.656038)" d="M56.69312 .00032C56.69312 1.25285 55.67775 2.2682 54.42523 2.2682 53.17271 2.2682 52.15736 1.25285 52.15736 .00032 52.15736-1.25218 53.17271-2.26753 54.42523-2.26753 55.67775-2.26753 56.69312-1.25218 56.69312 .00032ZM54.42523 .00032" fill="#ffcccc"/>
<path transform="matrix(1,0,0,-1.00002,50.982004,63.656038)" stroke-width=".3985" stroke-linecap="butt" stroke-miterlimit="10" stroke-linejoin="miter" fill="none" stroke="#b30000" d="M56.69312 .00032C56.69312 1.25285 55.67775 2.2682 54.42523 2.2682 53.17271 2.2682 52.15736 1.25285 52.15736 .00032 52.15736-1.25218 53.17271-2.26753 54.42523-2.26753 55.67775-2.26753 56.69312-1.25218 56.69312 .00032ZM54.42523 .00032"/>
<path transform="matrix(1,0,0,-1.00002,50.982004,63.656038)" stroke-width=".3985" stroke-linecap="butt" stroke-miterlimit="10" stroke-linejoin="miter" fill="none" stroke="#e0e0e0" d="M58.96066-49.89049V49.89049"/>
<path transform="matrix(1,0,0,-1.00002,50.982004,63.656038)" stroke-width=".3985" stroke-linecap="butt" stroke-miterlimit="10" stroke-linejoin="miter" fill="none" stroke="#e0e0e0" d="M-49.89049 1.68272H49.89049"/>
<path transform="matrix(1,0,0,-1.00002,50.982004,63.656038)" stroke-width=".3985" stroke-linecap="butt" stroke-miterlimit="10" stroke-linejoin="miter" fill="none" stroke="#e0e0e0" d="M58.96066-49.89049V49.89049"/>
<path transform="matrix(1,0,0,-1.00002,50.982004,63.656038)" stroke-width=".3985" stroke-linecap="butt" stroke-miterlimit="10" stroke-linejoin="miter" fill="none" stroke="#e0e0e0" d="M-49.89049 .00032H49.89049"/>
<path transform="matrix(1,0,0,-1.00002,50.982004,63.656038)" d="M61.22855 1.68272C61.22855 2.93526 60.2132 3.9506 58.96066 3.9506 57.70815 3.9506 56.6928 2.93526 56.6928 1.68272 56.6928 .4302 57.70815-.58513 58.96066-.58513 60.2132-.58513 61.22855 .4302 61.22855 1.68272ZM58.96066 1.68272" fill="#ccccff"/>
<path transform="matrix(1,0,0,-1.00002,50.982004,63.656038)" stroke-width=".3985" stroke-linecap="butt" stroke-miterlimit="10" stroke-linejoin="miter" fill="none" stroke="#0000b3" d="M61.22855 1.68272C61.22855 2.93526 60.2132 3.9506 58.96066 3.9506 57.70815 3.9506 56.6928 2.93526 56.6928 1.68272 56.6928 .4302 57.70815-.58513 58.96066-.58513 60.2132-.58513 61.22855 .4302 61.22855 1.68272ZM58.96066 1.68272"/>
<path transform="matrix(1,0,0,-1.00002,50.982004,63.656038)" d="M61.22855 .00032C61.22855 1.25285 60.2132 2.2682 58.96066 2.2682 57.70815 2.2682 56.6928 1.25285 56.6928 .00032 56.6928-1.25218 57.70815-2.26753 58.96066-2.26753 60.2132-2.26753 61.22855-1.25218 61.22855 .00032ZM58.96066 .00032" fill="#ffcccc"/>
<path transform="matrix(1,0,0,-1.00002,50.982004,63.656038)" stroke-width=".3985" stroke-linecap="butt" stroke-miterlimit="10" stroke-linejoin="miter" fill="none" stroke="#b30000" d="M61.22855 .00032C61.22855 1.25285 60.2132 2.2682 58.96066 2.2682 57.70815 2.2682 56.6928 1.25285 56.6928 .00032 56.6928-1.25218 57.70815-2.26753 58.96066-2.26753 60.2132-2.26753 61.22855-1.25218 61.22855 .00032ZM58.96066 .00032"/>
<path transform="matrix(1,0,0,-1.00002,50.982004,63.656038)" stroke-width=".3985" stroke-linecap="butt" stroke-miterlimit="10" stroke-linejoin="miter" fill="none" stroke="#e0e0e0" d="M63.49611-49.89049V49.89049"/>
<path transform="matrix(1,0,0,-1.00002,50.982004,63.656038)" stroke-width=".3985" stroke-linecap="butt" stroke-miterlimit="10" stroke-linejoin="miter" fill="none" stroke="#e0e0e0" d="M-49.89049 1.37892H49.89049"/>
<path transform="matrix(1,0,0,-1.00002,50.982004,63.656038)" stroke-width=".3985" stroke-linecap="butt" stroke-miterlimit="10" stroke-linejoin="miter" fill="none" stroke="#e0e0e0" d="M63.49611-49.89049V49.89049"/>
<path transform="matrix(1,0,0,-1.00002,50.982004,63.656038)" stroke-width=".3985" stroke-linecap="butt" stroke-miterlimit="10" stroke-linejoin="miter" fill="none" stroke="#e0e0e0" d="M-49.89049 .00032H49.89049"/>
<path transform="matrix(1,0,0,-1.00002,50.982004,63.656038)" d="M65.76398 1.37892C65.76398 2.63144 64.74863 3.64679 63.49611 3.64679 62.24358 3.64679 61.22823 2.63144 61.22823 1.37892 61.22823 .1264 62.24358-.88895 63.49611-.88895 64.74863-.88895 65.76398 .1264 65.76398 1.37892ZM63.49611 1.37892" fill="#ccccff"/>
<path transform="matrix(1,0,0,-1.00002,50.982004,63.656038)" stroke-width=".3985" stroke-linecap="butt" stroke-miterlimit="10" stroke-linejoin="miter" fill="none" stroke="#0000b3" d="M65.76398 1.37892C65.76398 2.63144 64.74863 3.64679 63.49611 3.64679 62.24358 3.64679 61.22823 2.63144 61.22823 1.37892 61.22823 .1264 62.24358-.88895 63.49611-.88895 64.74863-.88895 65.76398 .1264 65.76398 1.37892ZM63.49611 1.37892"/>
<path transform="matrix(1,0,0,-1.00002,50.982004,63.656038)" d="M65.76398 .00032C65.76398 1.25285 64.74863 2.2682 63.49611 2.2682 62.24358 2.2682 61.22823 1.25285 61.22823 .00032 61.22823-1.25218 62.24358-2.26753 63.49611-2.26753 64.74863-2.26753 65.76398-1.25218 65.76398 .00032ZM63.49611 .00032" fill="#ffcccc"/>
<path transform="matrix(1,0,0,-1.00002,50.982004,63.656038)" stroke-width=".3985" stroke-linecap="butt" stroke-miterlimit="10" stroke-linejoin="miter" fill="none" stroke="#b30000" d="M65.76398 .00032C65.76398 1.25285 64.74863 2.2682 63.49611 2.2682 62.24358 2.2682 61.22823 1.25285 61.22823 .00032 61.22823-1.25218 62.24358-2.26753 63.49611-2.26753 64.74863-2.26753 65.76398-1.25218 65.76398 .00032ZM63.49611 .00032"/>
<path transform="matrix(1,0,0,-1.00002,50.982004,63.656038)" stroke-width=".3985" stroke-linecap="butt" stroke-miterlimit="10" stroke-linejoin="miter" fill="none" stroke="#e0e0e0" d="M68.03154-49.89049V49.89049"/>
<path transform="matrix(1,0,0,-1.00002,50.982004,63.656038)" stroke-width=".3985" stroke-linecap="butt" stroke-miterlimit="10" stroke-linejoin="miter" fill="none" stroke="#e0e0e0" d="M-49.89049 1.127H49.89049"/>
<path transform="matrix(1,0,0,-1.00002,50.982004,63.656038)" stroke-width=".3985" stroke-linecap="butt" stroke-miterlimit="10" stroke-linejoin="miter" fill="none" stroke="#e0e0e0" d="M68.03154-49.89049V49.89049"/>
<path transform="matrix(1,0,0,-1.00002,50.982004,63.656038)" stroke-width=".3985" stroke-linecap="butt" stroke-miterlimit="10" stroke-linejoin="miter" fill="none" stroke="#e0e0e0" d="M-49.89049 .00032H49.89049"/>
<path transform="matrix(1,0,0,-1.00002,50.982004,63.656038)" d="M70.29941 1.127C70.29941 2.37953 69.28406 3.39488 68.03154 3.39488 66.77902 3.39488 65.76366 2.37953 65.76366 1.127 65.76366-.1255 66.77902-1.14085 68.03154-1.14085 69.28406-1.14085 70.29941-.1255 70.29941 1.127ZM68.03154 1.127" fill="#ccccff"/>
<path transform="matrix(1,0,0,-1.00002,50.982004,63.656038)" stroke-width=".3985" stroke-linecap="butt" stroke-miterlimit="10" stroke-linejoin="miter" fill="none" stroke="#0000b3" d="M70.29941 1.127C70.29941 2.37953 69.28406 3.39488 68.03154 3.39488 66.77902 3.39488 65.76366 2.37953 65.76366 1.127 65.76366-.1255 66.77902-1.14085 68.03154-1.14085 69.28406-1.14085 70.29941-.1255 70.29941 1.127ZM68.03154 1.127"/>
<path transform="matrix(1,0,0,-1.00002,50.982004,63.656038)" d="M70.29941 .00032C70.29941 1.25285 69.28406 2.2682 68.03154 2.2682 66.77902 2.2682 65.76366 1.25285 65.76366 .00032 65.76366-1.25218 66.77902-2.26753 68.03154-2.26753 69.28406-2.26753 70.29941-1.25218 70.29941 .00032ZM68.03154 .00032" fill="#ffcccc"/>
<path transform="matrix(1,0,0,-1.00002,50.982004,63.656038)" stroke-width=".3985" stroke-linecap="butt" stroke-miterlimit="10" stroke-linejoin="miter" fill="none" stroke="#b30000" d="M70.29941 .00032C70.29941 1.25285 69.28406 2.2682 68.03154 2.2682 66.77902 2.2682 65.76366 1.25285 65.76366 .00032 65.76366-1.25218 66.77902-2.26753 68.03154-2.26753 69.28406-2.26753 70.29941-1.25218 70.29941 .00032ZM68.03154 .00032"/>
</svg>
