<svg xmlns="http://www.w3.org/2000/svg" xmlns:xlink="http://www.w3.org/1999/xlink" version="1.1" width="231" height="85" viewBox="0 0 231 85">
<defs>
<path id="font_1_1" d="M.42799378 .45222474 .43899537 .49023438H.31199647L.34599305 .6092224 .33399964 .6162262 .23699951 .53923037 .22399903 .49023438H.14299011L.13198853 .45222474H.21499634L.125 .08627319C.10998535 .029266358 .12199402-.01171875 .17199707-.01171875 .2519989-.01171875 .31599427 .054275514 .35598756 .1292572L.33399964 .1462555C.31098939 .10726929 .2599945 .040267946 .22898865 .040267946 .20799256 .040267946 .20799256 .0632782 .21398926 .088272098L.30299378 .45222474H.42799378Z"/>
<path id="font_2_1" d="M.43699647 0V.0289917L.35299684 .035995485C.33198548 .037994386 .31999208 .04598999 .31999208 .08496094V.67367556L.31498719 .6796875 .10899353 .6446991V.6197052L.20199585 .6087036C.21899414 .6067047 .22599793 .5987091 .22599793 .56973269V.08496094C.22599793 .065979007 .22299195 .053985597 .21699524 .04698181 .21199036 .039993287 .20399475 .036987306 .19299317 .035995485L.10899353 .0289917V0H.43699647Z"/>
<path id="font_2_2" d="M.4850006 .13195801 .45700074 .13696289C.43598939 .08299255 .41600038 .07598877 .37599183 .07598877H.11999512C.13598633 .1279602 .19499207 .19892884 .28799439 .2658844 .38398744 .33584596 .45799256 .38082887 .45799256 .49276734 .45799256 .63168337 .3659973 .6796875 .26098634 .6796875 .12399292 .6796875 .052993776 .5967102 .052993776 .54473879 .052993776 .51075747 .09098816 .49476625 .10798645 .49476625 .12599182 .49476625 .1329956 .50476077 .13699341 .5217438 .15299988 .5897064 .19198609 .64468386 .2539978 .64468386 .33099366 .64468386 .35299684 .5797119 .35299684 .50675967 .35299684 .3998108 .29899598 .33984376 .21199036 .26289369 .08898926 .15594483 .04598999 .08798218 .026992798 .009994507L.036987306 0H.45098878L.4850006 .13195801Z"/>
<path id="font_2_3" d="M.12998963 .3657837C.12998963 .3487854 .1349945 .33779908 .147995 .33779908 .1599884 .33779908 .18699646 .34777833 .23498535 .34777833 .31999208 .34777833 .36799623 .27090455 .36799623 .18403626 .36799623 .065216068 .30899049 .023269654 .23799134 .023269654 .17199707 .023269654 .1289978 .07319641 .10998535 .12911988 .10398865 .14808655 .09399414 .15707398 .07998657 .15707398 .06199646 .15707398 .026992798 .13809204 .026992798 .10215759 .026992798 .05921936 .09599304-.01171875 .23699951-.01171875 .38198854-.01171875 .47299195 .06121826 .47299195 .18902588 .47299195 .32281495 .35798646 .3627777 .30299378 .3677826V.3717804C.35699464 .38078309 .44400025 .4207611 .44400025 .5197296 .44400025 .6306915 .35699464 .6796875 .25 .6796875 .117996219 .6796875 .052993776 .60369876 .052993776 .5607147 .052993776 .5297241 .08799744 .51272585 .101989749 .51272585 .114990238 .51272585 .12298584 .5197296 .1269989 .5327301 .14898682 .60069277 .18699646 .64468386 .24299622 .64468386 .32199098 .64468386 .34098817 .57470706 .34098817 .51872256 .34098817 .4587555 .31999208 .38378907 .23498535 .38378907 .18699646 .38378907 .1599884 .39378358 .147995 .39378358 .1349945 .39378358 .12998963 .38378907 .12998963 .3657837Z"/>
<path id="font_2_4" d="M.2999878 .17871094V.0769043C.2999878 .04296875 .2889862 .036987306 .2649994 .034988405L.20098877 .0289917V0H.46499635V.0289917L.41999818 .033981325C.39698792 .036987306 .3899994 .04296875 .3899994 .0769043V.17871094H.49299623V.22570801H.3899994V.66796877H.31698609C.22299195 .5298767 .11099243 .35577394 .018997193 .19970703L.027999878 .17871094H.2999878M.09098816 .22570801C.15098572 .33476258 .22099304 .4498291 .2979889 .5709076H.2999878V.22570801H.09098816Z"/>
<path id="font_2_5" d="M.42599488 .5919647 .44999696 .6599579 .44499208 .66796877H.11099243L.100997928 .65896609 .08099365 .32388307 .10499573 .31188966C.14698792 .35983277 .18798828 .3828125 .24198914 .3828125 .30599977 .3828125 .37599183 .3358612 .37599183 .20404053 .37599183 .10116577 .33399964 .023269654 .24699402 .023269654 .1769867 .023269654 .14099121 .07420349 .12098694 .13113404 .115997318 .14611817 .10699463 .15510559 .09298706 .15510559 .07299805 .15510559 .039993287 .13513184 .039993287 .10217285 .039993287 .056228639 .10998535-.01171875 .23999024-.01171875 .40499879-.01171875 .47999574 .0881958 .47999574 .21502686 .47999574 .35484315 .3919983 .4268036 .272995 .4268036 .21798706 .4268036 .15899658 .4028015 .1269989 .3738098L.125 .37580873 .147995 .56292727C.15098572 .58795168 .1579895 .5919647 .1769867 .5919647H.42599488Z"/>
<path id="font_2_6" d="M.27198792-.01171875C.41999818-.01171875 .49899293 .07821655 .49899293 .2140503 .49899293 .3488922 .4119873 .42385865 .30799867 .421875 .23199463 .42385865 .17199707 .36886598 .14498902 .33590699H.14299011C.14399719 .5557556 .20698548 .64468386 .29699708 .64468386 .34298707 .64468386 .375 .6057129 .3899994 .5487671 .3929901 .5367737 .40098573 .527771 .41600038 .527771 .43798829 .527771 .46899415 .5447693 .46899415 .57273867 .46899415 .6127014 .41999818 .6796875 .2999878 .6796875 .22099304 .6796875 .16499329 .64967349 .12298584 .6017151 .07798767 .5497589 .04399109 .45384217 .04399109 .3089447 .04399109 .093185428 .12199402-.01171875 .27198792-.01171875M.27398683 .37086488C.33699037 .37086488 .39898683 .31393434 .39898683 .19906616 .39898683 .094192508 .35798646 .023269654 .27398683 .023269654 .18699646 .023269654 .14498902 .11616516 .14498902 .23602295 .14498902 .2969513 .18998719 .37086488 .27398683 .37086488Z"/>
<path id="font_2_7" d="M.07199097 .66796877 .040985109 .5279999H.067993167L.07798767 .5489807C.09098816 .57696536 .10398865 .5919647 .14898682 .5919647H.4189911C.40899659 .5559845 .3909912 .4980011 .30999757 .38206483 .22399903 .25914 .16699219 .14718628 .16699219 .029251099 .16699219-.0037231446 .18998719-.01171875 .22099304-.01171875 .25-.01171875 .2709961-.0027313233 .269989 .026260376 .2649994 .15818787 .2919922 .26412965 .34498597 .35708619 .40899659 .46905519 .46199037 .5310211 .49699403 .65696719L.48799134 .66796877H.07199097Z"/>
<path id="font_2_8" d="M.2649994 .3380127C.34498597 .3380127 .3880005 .2700653 .3880005 .17915344 .3880005 .09121704 .34999085 .023269654 .2649994 .023269654 .18199158 .023269654 .14199829 .09121704 .14199829 .17915344 .14199829 .2700653 .18598938 .3380127 .2649994 .3380127M.2649994-.01171875C.4269867-.01171875 .48799134 .081222537 .48799134 .18214417 .48799134 .28405763 .42399598 .3420105 .35598756 .35801698V.36102296C.4169922 .37701417 .46598817 .427948 .46598817 .5098419 .46598817 .6187134 .3809967 .6796875 .2649994 .6796875 .15098572 .6796875 .06399536 .61772158 .06399536 .5098419 .06399536 .427948 .11399841 .37701417 .17399597 .36102296V.35801698C.10699463 .3420105 .041992189 .28405763 .041992189 .18214417 .041992189 .081222537 .101989749-.01171875 .2649994-.01171875M.2649994 .37402345C.19299317 .37402345 .16099549 .44392396 .16099549 .5118408 .16099549 .5887451 .19699097 .64468386 .2649994 .64468386 .33299256 .64468386 .36698915 .5887451 .36898805 .5118408 .36898805 .44392396 .33799745 .37402345 .2649994 .37402345Z"/>
<path id="font_2_9" d="M.22898865 .26757813C.29100038 .26757813 .34298707 .30256654 .3769989 .35157777H.3789978C.3789978 .28857423 .37399293 .20774842 .35598756 .13894654 .33799745 .073135379 .30299378 .023269654 .23899842 .023269654 .17098999 .023269654 .1459961 .0761261 .1309967 .12298584 .1269989 .13595581 .11999512 .1439209 .102996829 .1439209 .083999637 .1439209 .055999757 .12397766 .055999757 .09307861 .055999757 .049194337 .10899353-.01171875 .22999573-.01171875 .31098939-.01171875 .37298585 .01828003 .41099549 .071136478 .45199586 .12797547 .47698976 .2157135 .47698976 .36058045 .47698976 .48461915 .45199586 .56565859 .41299439 .6126709 .375 .6576843 .31999208 .6796875 .2559967 .6796875 .12799073 .6796875 .035995485 .5946655 .035995485 .45661927 .035995485 .3315735 .12599182 .26757813 .22898865 .26757813M.25898744 .3205719C.18099976 .3205719 .13598633 .38859559 .13598633 .48461915 .13598633 .57666018 .1769867 .64468386 .25498963 .64468386 .33499146 .64468386 .37399293 .5496521 .37399293 .45262147 .37399293 .4356079 .37298585 .41560365 .36698915 .39959718 .35099793 .35258485 .31199647 .3205719 .25898744 .3205719Z"/>
</defs>
<path transform="matrix(1,0,0,-1.00008,12.545998,68.13517)" stroke-width=".19925" stroke-linecap="butt" stroke-dasharray="2.98883,2.98883" stroke-miterlimit="10" stroke-linejoin="miter" fill="none" stroke="#000000" d="M132.66286-15.47725V66.33142"/>
<path transform="matrix(1,0,0,-1.00008,12.545998,68.13517)" stroke-width=".19925" stroke-linecap="butt" stroke-dasharray="2.98883,2.98883" stroke-miterlimit="10" stroke-linejoin="miter" fill="none" stroke="#000000" d="M66.33142-15.47725V66.33142"/>
<path transform="matrix(1,0,0,-1.00008,12.545998,68.13517)" stroke-width=".3985" stroke-linecap="butt" stroke-miterlimit="10" stroke-linejoin="miter" fill="none" stroke="#000000" d="M-11.05522 0H216.22444"/>
<path transform="matrix(1,0,0,-1.00008,228.77045,68.13517)" stroke-width=".31879" stroke-linecap="round" stroke-linejoin="round" fill="none" stroke="#000000" d="M-1.19551 1.59401C-1.09587 .99626 0 .09961 .29886 0 0-.09961-1.09587-.99626-1.19551-1.59401"/>
<path transform="matrix(1,0,0,-1.00008,12.545998,68.13517)" stroke-width=".3985" stroke-linecap="butt" stroke-miterlimit="10" stroke-linejoin="miter" fill="none" stroke="#000000" d="M0-15.47725V65.87314"/>
<path transform="matrix(0,-1.00008,-1,-0,12.545998,2.2567597)" stroke-width=".31879" stroke-linecap="round" stroke-linejoin="round" fill="none" stroke="#000000" d="M-1.19551 1.59401C-1.09587 .99626 0 .09961 .29886 0 0-.09961-1.09587-.99626-1.19551-1.59401"/>
<use data-text="t" xlink:href="#font_1_1" transform="matrix(10.0364,0,0,-10.037203,224.879,77.71994)"/>
<path transform="matrix(1,0,0,-1.00008,12.545998,68.13517)" stroke-width=".3985" stroke-linecap="butt" stroke-miterlimit="10" stroke-linejoin="miter" fill="none" stroke="#929292" d="M22.11046 2.21117V-2.21117"/>
<use data-text="1" xlink:href="#font_2_1" transform="matrix(10.0364,0,0,-10.037203,31.994996,80.024127)"/>
<path transform="matrix(1,0,0,-1.00008,12.545998,68.13517)" stroke-width=".3985" stroke-linecap="butt" stroke-miterlimit="10" stroke-linejoin="miter" fill="none" stroke="#929292" d="M44.22093 2.21117V-2.21117"/>
<use data-text="2" xlink:href="#font_2_2" transform="matrix(10.0364,0,0,-10.037203,54.104997,80.024127)"/>
<path transform="matrix(1,0,0,-1.00008,12.545998,68.13517)" stroke-width=".3985" stroke-linecap="butt" stroke-miterlimit="10" stroke-linejoin="miter" fill="none" stroke="#929292" d="M66.33142 2.21117V-2.21117"/>
<use data-text="3" xlink:href="#font_2_3" transform="matrix(10.0364,0,0,-10.037203,76.215999,80.024127)"/>
<path transform="matrix(1,0,0,-1.00008,12.545998,68.13517)" stroke-width=".3985" stroke-linecap="butt" stroke-miterlimit="10" stroke-linejoin="miter" fill="none" stroke="#929292" d="M88.4419 2.21117V-2.21117"/>
<use data-text="4" xlink:href="#font_2_4" transform="matrix(10.0364,0,0,-10.037203,98.326,80.024127)"/>
<path transform="matrix(1,0,0,-1.00008,12.545998,68.13517)" stroke-width=".3985" stroke-linecap="butt" stroke-miterlimit="10" stroke-linejoin="miter" fill="none" stroke="#929292" d="M110.55237 2.21117V-2.21117"/>
<use data-text="5" xlink:href="#font_2_5" transform="matrix(10.0364,0,0,-10.037203,120.437,80.024127)"/>
<path transform="matrix(1,0,0,-1.00008,12.545998,68.13517)" stroke-width=".3985" stroke-linecap="butt" stroke-miterlimit="10" stroke-linejoin="miter" fill="none" stroke="#929292" d="M132.66286 2.21117V-2.21117"/>
<use data-text="6" xlink:href="#font_2_6" transform="matrix(10.0364,0,0,-10.037203,142.547,80.024127)"/>
<path transform="matrix(1,0,0,-1.00008,12.545998,68.13517)" stroke-width=".3985" stroke-linecap="butt" stroke-miterlimit="10" stroke-linejoin="miter" fill="none" stroke="#929292" d="M154.77333 2.21117V-2.21117"/>
<use data-text="7" xlink:href="#font_2_7" transform="matrix(10.0364,0,0,-10.037203,164.65699,80.024127)"/>
<path transform="matrix(1,0,0,-1.00008,12.545998,68.13517)" stroke-width=".3985" stroke-linecap="butt" stroke-miterlimit="10" stroke-linejoin="miter" fill="none" stroke="#929292" d="M176.8838 2.21117V-2.21117"/>
<use data-text="8" xlink:href="#font_2_8" transform="matrix(10.0364,0,0,-10.037203,186.768,80.024127)"/>
<path transform="matrix(1,0,0,-1.00008,12.545998,68.13517)" stroke-width=".3985" stroke-linecap="butt" stroke-miterlimit="10" stroke-linejoin="miter" fill="none" stroke="#929292" d="M198.99428 2.21117V-2.21117"/>
<use data-text="9" xlink:href="#font_2_9" transform="matrix(10.0364,0,0,-10.037203,208.87799,80.024127)"/>
<path transform="matrix(1,0,0,-1.00008,12.545998,68.13517)" stroke-width=".3985" stroke-linecap="butt" stroke-miterlimit="10" stroke-linejoin="miter" fill="none" stroke="#929292" d="M2.21117 22.11046H-2.21117"/>
<use data-text="1" xlink:href="#font_2_1" transform="matrix(10.0364,0,0,-10.037203,6.034996,49.38367)"/>
<path transform="matrix(1,0,0,-1.00008,12.545998,68.13517)" stroke-width=".79701" stroke-linecap="butt" stroke-dasharray="2.98883,2.98883" stroke-miterlimit="10" stroke-linejoin="miter" fill="none" stroke="#0000ff" d="M-11.05522 0H-10.29172-9.52824-8.76476-8.00127-7.23778-6.47429-5.7108-4.94731-4.18382-3.42032-2.65685-1.89336-1.12987-.36638 .39706 1.16055 1.92404 2.68753 3.45103 4.21451 4.97801 5.74149 6.50497 7.26846 8.03195 8.79546 9.55893 10.32243 11.0859 11.84941 12.61288 13.37637 14.13986 14.90335 15.66685 16.43034 17.19385 17.95732 18.72081 19.4843 20.24779 21.01128 21.77477 22.53827 23.30174 24.06525 24.82872 25.59221 26.3557 27.11919 27.88268 28.64616 29.40967 30.17314 30.93663 31.70012 32.46361 33.2271 33.99059 34.75409 35.51756 36.28107 37.04454 37.80803 38.57152 39.335 40.0985 40.86198 41.62549 42.38896 43.15245 43.91594 44.67943 45.44292 46.2064 46.9699 47.73338 48.49689 49.26036 50.02385 50.78734 51.55083 52.31432 53.0778 53.8413 54.60478 55.36827 56.13176 56.89525 57.65874 58.42223 59.18571 59.9492 60.7127 61.47618 62.23967 63.00316 63.76665 64.53014"/>
<path transform="matrix(1,0,0,-1.00008,12.545998,68.13517)" stroke-width=".79701" stroke-linecap="butt" stroke-dasharray="2.98883,2.98883" stroke-miterlimit="10" stroke-linejoin="miter" fill="none" stroke="#990000" d="M-11.05522 0H-10.29172-9.52824-8.76476-8.00127-7.23778-6.47429-5.7108-4.94731-4.18382-3.42032-2.65685-1.89336-1.12987-.36638 .39706 1.16055 1.92404 2.68753 3.45103 4.21451 4.97801 5.74149 6.50497 7.26846 8.03195 8.79546 9.55893 10.32243 11.0859 11.84941 12.61288 13.37637 14.13986 14.90335 15.66685 16.43034 17.19385 17.95732 18.72081 19.4843 20.24779 21.01128 21.77477 22.53827 23.30174 24.06525 24.82872 25.59221 26.3557 27.11919 27.88268 28.64616 29.40967 30.17314 30.93663 31.70012 32.46361 33.2271 33.99059 34.75409 35.51756 36.28107 37.04454 37.80803 38.57152 39.335 40.0985 40.86198 41.62549 42.38896 43.15245 43.91594 44.67943 45.44292 46.2064 46.9699 47.73338 48.49689 49.26036 50.02385 50.78734 51.55083 52.31432 53.0778 53.8413 54.60478 55.36827 56.13176 56.89525 57.65874 58.42223 59.18571 59.9492 60.7127 61.47618 62.23967 63.00316 63.76665 64.53014"/>
<path transform="matrix(1,0,0,-1.00008,12.545998,68.13517)" stroke-width="1.19553" stroke-linecap="butt" stroke-miterlimit="10" stroke-linejoin="miter" fill="none" stroke="#009900" d="M-10.0988 0H-10.29172-9.52824-8.76476-8.00127-7.23778-6.47429-5.7108-4.94731-4.18382-3.42032-2.65685-1.89336-1.12987-.36638 .39706 1.16055 1.92404 2.68753 3.45103 4.21451 4.97801 5.74149 6.50497 7.26846 8.03195 8.79546 9.55893 10.32243 11.0859 11.84941 12.61288 13.37637 14.13986 14.90335 15.66685 16.43034 17.19385 17.95732 18.72081 19.4843 20.24779 21.01128 21.77477 22.53827 23.30174 24.06525 24.82872 25.59221 26.3557 27.11919 27.88268 28.64616 29.40967 30.17314 30.93663 31.70012 32.46361 33.2271 33.99059 34.75409 35.51756 36.28107 37.04454 37.80803 38.57152 39.335 40.0985 40.86198 41.62549 42.38896 43.15245 43.91594 44.67943 45.44292 46.2064 46.9699 47.73338 48.49689 49.26036 50.02385 50.78734 51.55083 52.31432 53.0778 53.8413 54.60478 55.36827 56.13176 56.89525 57.65874 58.42223 59.18571 59.9492 60.7127 61.47618 62.23967 63.00316 63.76665 64.53014"/>
<path transform="matrix(-1,-0,0,1.00008,2.447198,68.13517)" stroke-width=".9564" stroke-linecap="round" stroke-linejoin="round" fill="none" stroke="#009900" d="M-1.91284 2.55046C-1.75343 1.59402 0 .15938 .4782 0 0-.15938-1.75343-1.59402-1.91284-2.55046"/>
<path transform="matrix(1,0,0,-1.00008,12.545998,68.13517)" stroke-width=".79701" stroke-linecap="butt" stroke-dasharray="2.98883,2.98883" stroke-miterlimit="10" stroke-linejoin="miter" fill="none" stroke="#0000ff" d="M68.10028 22.11046H68.73456 69.36884 70.00311 70.63739 71.27165 71.90593 72.5402 73.17447 73.80875 74.44302 75.07729 75.71156 76.34583 76.9801 77.61438 78.24864 78.88292 79.5172 80.15146 80.78574 81.42003 82.05429 82.68857 83.32283 83.95709 84.59137 85.22565 85.85992 86.4942 87.12848 87.76274 88.39702 89.03128 89.66556 90.29984 90.93411 91.56837 92.20265 92.83693 93.47119 94.10547 94.73975 95.37401 96.00829 96.64256 97.27682 97.91112 98.5454 99.17964 99.81392 100.4482 101.08246 101.71675 102.35103 102.98529 103.61957 104.25383 104.88809 105.52238 106.15665 106.79092 107.4252 108.05946 108.69374 109.32802 109.96228 110.59656 111.23083 111.8651 112.49937 113.13365 113.76793 114.4022 115.03647 115.67073 116.30501 116.93929 117.57356 118.20784 118.84212 119.47638 120.11066 120.74492 121.37918 122.01347 122.64775 123.28201 123.91629 124.55057 125.18483 125.8191 126.45338 127.08765 127.72192 128.3562 128.99047 129.62476 130.25904 130.89328"/>
<path transform="matrix(1,0,0,-1.00008,12.545998,68.13517)" stroke-width=".79701" stroke-linecap="butt" stroke-dasharray="2.98883,2.98883" stroke-miterlimit="10" stroke-linejoin="miter" fill="none" stroke="#990000" d="M68.10028 0H68.73456 69.36884 70.00311 70.63739 71.27165 71.90593 72.5402 73.17447 73.80875 74.44302 75.07729 75.71156 76.34583 76.9801 77.61438 78.24864 78.88292 79.5172 80.15146 80.78574 81.42003 82.05429 82.68857 83.32283 83.95709 84.59137 85.22565 85.85992 86.4942 87.12848 87.76274 88.39702 89.03128 89.66556 90.29984 90.93411 91.56837 92.20265 92.83693 93.47119 94.10547 94.73975 95.37401 96.00829 96.64256 97.27682 97.91112 98.5454 99.17964 99.81392 100.4482 101.08246 101.71675 102.35103 102.98529 103.61957 104.25383 104.88809 105.52238 106.15665 106.79092 107.4252 108.05946 108.69374 109.32802 109.96228 110.59656 111.23083 111.8651 112.49937 113.13365 113.76793 114.4022 115.03647 115.67073 116.30501 116.93929 117.57356 118.20784 118.84212 119.47638 120.11066 120.74492 121.37918 122.01347 122.64775 123.28201 123.91629 124.55057 125.18483 125.8191 126.45338 127.08765 127.72192 128.3562 128.99047 129.62476 130.25904 130.89328"/>
<path transform="matrix(1,0,0,-1.00008,12.545998,68.13517)" stroke-width="1.19553" stroke-linecap="butt" stroke-miterlimit="10" stroke-linejoin="miter" fill="none" stroke="#009900" d="M66.33142 22.11046H66.98323 67.63504 68.28687 68.93867 69.5905 70.24231 70.89412 71.54594 72.19775 72.84958 73.50139 74.1532 74.80502 75.45683 76.10866 76.76048 77.41228 78.0641 78.71593 79.36774 80.01956 80.67137 81.32318 81.975 82.62682 83.27864 83.93045 84.58226 85.2341 85.88591 86.5377 87.18954 87.84135 88.49316 89.14499 89.7968 90.44862 91.10043 91.75224 92.40408 93.05588 93.7077 94.35953 95.01132 95.66315 96.31497 96.96678 97.6186 98.27042 98.92223 99.57405 100.22586 100.87769 101.5295 102.1813 102.83313 103.48494 104.13676 104.78859 105.4404 106.09221 106.74403 107.39584 108.04765 108.69948 109.3513 110.0031 110.65492 111.30675 111.95857 112.61038 113.26219 113.91402 114.56583 115.21764 115.86946 116.52127 117.17308 117.82492 118.47673 119.12854 119.78036 120.43217 121.084 121.73581 122.38762 123.03944 123.69125 124.34306 124.9949 125.6467 126.29851 126.95035 127.60214 128.25399 128.90579 129.55759 130.20943 130.86124"/>
<path transform="matrix(1,0,0,-1.00008,12.545998,68.13517)" stroke-width=".79701" stroke-linecap="butt" stroke-dasharray="2.98883,2.98883" stroke-miterlimit="10" stroke-linejoin="miter" fill="none" stroke="#0000ff" d="M134.43172 22.11046H135.26235 136.09299 136.9236 137.75423 138.58486 139.41548 140.24613 141.07674 141.90737 142.73799 143.56862 144.39925 145.22988 146.0605 146.89113 147.72177 148.55239 149.38301 150.21364 151.04427 151.87491 152.70552 153.53615 154.36678 155.19742 156.02802 156.85866 157.6893 158.51992 159.35054 160.18117 161.0118 161.84243 162.67305 163.50368 164.3343 165.16493 165.99556 166.82619 167.6568 168.48744 169.31807 170.1487 170.97933 171.80995 172.64058 173.4712 174.30184 175.13245 175.96309 176.79373 177.62435 178.45497 179.2856 180.11623 180.94686 181.77748 182.60811 183.43874 184.26938 185.09998 185.93062 186.76123 187.59188 188.4225 189.25312 190.08376 190.91439 191.74501 192.57563 193.40627 194.2369 195.06752 195.89815 196.72876 197.5594 198.39003 199.22066 200.05129 200.88191 201.71254 202.54317 203.3738 204.2044 205.03505 205.86569 206.69629 207.52693 208.35755 209.18819 210.0188 210.84943 211.68007 212.5107 213.34133 214.17194 215.00258 215.83319 216.66384"/>
<path transform="matrix(1,0,0,-1.00008,12.545998,68.13517)" stroke-width=".79701" stroke-linecap="butt" stroke-dasharray="2.98883,2.98883" stroke-miterlimit="10" stroke-linejoin="miter" fill="none" stroke="#990000" d="M134.43172 22.11046H135.26235 136.09299 136.9236 137.75423 138.58486 139.41548 140.24613 141.07674 141.90737 142.73799 143.56862 144.39925 145.22988 146.0605 146.89113 147.72177 148.55239 149.38301 150.21364 151.04427 151.87491 152.70552 153.53615 154.36678 155.19742 156.02802 156.85866 157.6893 158.51992 159.35054 160.18117 161.0118 161.84243 162.67305 163.50368 164.3343 165.16493 165.99556 166.82619 167.6568 168.48744 169.31807 170.1487 170.97933 171.80995 172.64058 173.4712 174.30184 175.13245 175.96309 176.79373 177.62435 178.45497 179.2856 180.11623 180.94686 181.77748 182.60811 183.43874 184.26938 185.09998 185.93062 186.76123 187.59188 188.4225 189.25312 190.08376 190.91439 191.74501 192.57563 193.40627 194.2369 195.06752 195.89815 196.72876 197.5594 198.39003 199.22066 200.05129 200.88191 201.71254 202.54317 203.3738 204.2044 205.03505 205.86569 206.69629 207.52693 208.35755 209.18819 210.0188 210.84943 211.68007 212.5107 213.34133 214.17194 215.00258 215.83319 216.66384"/>
<path transform="matrix(1,0,0,-1.00008,12.545998,68.13517)" stroke-width="1.19553" stroke-linecap="butt" stroke-miterlimit="10" stroke-linejoin="miter" fill="none" stroke="#009900" d="M132.66286 0H133.51136 134.35987 135.20836 136.05689 136.9054 137.75389 138.6024 139.45092 140.29943 141.14794 141.99645 142.84494 143.69345 144.54196 145.39048 146.23899 147.0875 147.93599 148.7845 149.63301 150.48152 151.33003 152.17853 153.02704 153.87557 154.72406 155.57257 156.42108 157.26958 158.1181 158.96662 159.81511 160.66362 161.51213 162.36063 163.20915 164.05767 164.90616 165.75467 166.60317 167.45169 168.3002 169.1487 169.99721 170.84572 171.69423 172.54274 173.39125 174.23975 175.08826 175.93677 176.78528 177.63379 178.4823 179.3308 180.1793 181.02783 181.87633 182.72484 183.57334 184.42185 185.27037 186.11887 186.96738 187.81589 188.66439 189.51291 190.36142 191.20992 192.05843 192.90694 193.75543 194.60396 195.45247 196.30097 197.14948 197.99799 198.8465 199.695 200.54352 201.39202 202.24053 203.08905 203.93756 204.78606 205.63457 206.48308 207.33159 208.1801 209.02861 209.8771 210.72562 211.57413 212.42264 213.27115 214.11966 214.96817 215.81667 215.70877"/>
<path transform="matrix(1,0,0,-1.00008,228.25476,68.13517)" stroke-width=".9564" stroke-linecap="round" stroke-linejoin="round" fill="none" stroke="#009900" d="M-1.91284 2.55046C-1.75343 1.59402 0 .15938 .4782 0 0-.15938-1.75343-1.59402-1.91284-2.55046"/>
<path transform="matrix(1,0,0,-1.00008,12.545998,68.13517)" stroke-width=".79701" stroke-linecap="butt" stroke-miterlimit="10" stroke-linejoin="miter" fill="none" stroke="#009900" d="M68.6627 0C68.6627 1.28754 67.61897 2.33128 66.33142 2.33128 65.04387 2.33128 64.00014 1.28754 64.00014 0 64.00014-1.28754 65.04387-2.33128 66.33142-2.33128 67.61897-2.33128 68.6627-1.28754 68.6627 0ZM66.33142 0"/>
<path transform="matrix(1,0,0,-1.00008,12.545998,68.13517)" d="M68.6627 22.11046C68.6627 23.39801 67.61897 24.44174 66.33142 24.44174 65.04387 24.44174 64.00014 23.39801 64.00014 22.11046 64.00014 20.82292 65.04387 19.77917 66.33142 19.77917 67.61897 19.77917 68.6627 20.82292 68.6627 22.11046ZM66.33142 22.11046" fill="#009900"/>
<path transform="matrix(1,0,0,-1.00008,12.545998,68.13517)" stroke-width=".79701" stroke-linecap="butt" stroke-miterlimit="10" stroke-linejoin="miter" fill="none" stroke="#009900" d="M134.99414 22.11046C134.99414 23.39801 133.9504 24.44174 132.66286 24.44174 131.3753 24.44174 130.33158 23.39801 130.33158 22.11046 130.33158 20.82292 131.3753 19.77917 132.66286 19.77917 133.9504 19.77917 134.99414 20.82292 134.99414 22.11046ZM132.66286 22.11046"/>
<path transform="matrix(1,0,0,-1.00008,12.545998,68.13517)" d="M134.99414 0C134.99414 1.28754 133.9504 2.33128 132.66286 2.33128 131.3753 2.33128 130.33158 1.28754 130.33158 0 130.33158-1.28754 131.3753-2.33128 132.66286-2.33128 133.9504-2.33128 134.99414-1.28754 134.99414 0ZM132.66286 0" fill="#009900"/>
</svg>
