<svg xmlns="http://www.w3.org/2000/svg" xmlns:xlink="http://www.w3.org/1999/xlink" version="1.1" width="133" height="51" viewBox="0 0 133 51">
<defs>
<path id="font_1_1" d="M.3959961 .37998963C.37998963 .37998963 .3659973 .37998963 .35198976 .36598207 .33599855 .35098268 .33399964 .33398438 .33399964 .3269806 .33399964 .30297853 .35198976 .2919922 .37098695 .2919922 .3999939 .2919922 .4269867 .315979 .4269867 .35598756 .4269867 .40522767 .37998963 .4423828 .30899049 .4423828 .17399597 .4423828 .040985109 .2989807 .040985109 .15811157 .040985109 .06819153 .09899902-.0107421879 .20298767-.0107421879 .34599305-.0107421879 .42999269 .09516907 .42999269 .107162479 .42999269 .11315918 .42399598 .120147708 .41799928 .120147708 .41299439 .120147708 .41099549 .1181488 .40499879 .1101532 .32598878 .011245728 .21699524 .011245728 .20498657 .011245728 .14199829 .011245728 .114990238 .06021118 .114990238 .120147708 .114990238 .1611023 .1349945 .25801087 .16899109 .31999208 .19999695 .37698365 .25498963 .42037965 .30999757 .42037965 .34399415 .42037965 .38198854 .40724183 .3959961 .37998963Z"/>
<path id="font_2_1" d="M.22099304 .3976593H.31900025C.33799745 .3976593 .34999085 .3976593 .34999085 .4166565 .34999085 .43066407 .33699037 .43066407 .31999208 .43066407H.22898865L.2649994 .57250979C.2689972 .58750918 .2689972 .5924988 .2689972 .5934906 .2689972 .6144867 .25299073 .6244812 .23599243 .6244812 .20199585 .6244812 .19499207 .5974884 .18399048 .552536L.15299988 .43066407H.056991579C.037994386 .43066407 .024993897 .43066407 .024993897 .4116516 .024993897 .3976593 .037994386 .3976593 .054992677 .3976593H.14498902L.084991458 .15802002C.07899475 .13305664 .069992069 .09811401 .069992069 .084121707 .069992069 .024215699 .11898804-.009765625 .17199707-.009765625 .2789917-.009765625 .33999635 .13105774 .33999635 .14303589 .33999635 .15402222 .33099366 .15602112 .32499696 .15602112 .31399537 .15602112 .31298829 .15202332 .30599977 .13705445 .28599549 .08912659 .23599243 .018234253 .1749878 .018234253 .1539917 .018234253 .14199829 .032211305 .14199829 .06515503 .14199829 .084121707 .14498902 .09510803 .147995 .10809326L.22099304 .3976593Z"/>
<path id="font_3_64" d="M.2939911 .18304444V.24804688H.011993408V.18304444H.2939911Z"/>
<path id="font_3_106" d="M.48599244 .17131043C.48599244 .25431825 .41999818 .330307 .31799317 .35231019 .39698792 .38031007 .45599366 .44831849 .45599366 .5283203 .45599366 .6080475 .3659973 .66503909 .2619934 .66503909 .15499878 .66503909 .07398987 .6070404 .07398987 .53105166 .07398987 .49404908 .09899902 .4780426 .125 .4780426 .1559906 .4780426 .17599488 .5000458 .17599488 .52905276 .17599488 .56604006 .14399719 .5800476 .12199402 .5810547 .1639862 .6360321 .24099732 .6390381 .25898744 .6390381 .2849884 .63931277 .36099244 .63131716 .36099244 .5283203 .36099244 .458313 .33198548 .41630555 .31799317 .40031434 .28799439 .36930848 .2649994 .36730958 .20399475 .36331178 .18499756 .36231996 .1769867 .36131288 .1769867 .34831239 .1769867 .3343048 .18598938 .3343048 .20298767 .3343048H.25299073C.33198548 .3343048 .38198854 .27630616 .38198854 .17131043 .38198854 .045440675 .31098939 .008514404 .2579956 .008514404 .20298767 .008514404 .12799073 .0284729 .09298706 .08137512 .1289978 .08137512 .1539917 .10437012 .1539917 .13737488 .1539917 .16937256 .1309967 .19238281 .09899902 .19238281 .07199097 .19238281 .04399109 .17536927 .04399109 .13537598 .04399109 .04045105 .1459961-.021484375 .2599945-.021484375 .3929901-.021484375 .48599244 .070388797 .48599244 .17037964V.17131043Z"/>
<path id="font_3_107" d="M.47698976 .17900086H.44599916C.44299317 .15899658 .43499757 .10899353 .4229889 .08999634 .4169922 .08198547 .34098817 .08198547 .32499696 .08198547H.14698792L.28199769 .20399475C.2979889 .2190094 .33999635 .2519989 .35598756 .26600648 .41799928 .3230133 .47698976 .37802125 .47698976 .46902467 .47698976 .58802798 .3769989 .66503909 .2519989 .66503909 .13198853 .6651764 .052993776 .574173 .052993776 .48516847 .052993776 .4361725 .09199524 .4291687 .10598755 .4291687 .1269989 .4291687 .1579895 .4441681 .1579895 .48217774 .1579895 .5341797 .10798645 .5341797 .09599304 .5341797 .125 .6070709 .19198609 .6320343 .24099732 .6320343 .33399964 .6320343 .38198854 .55314639 .38198854 .46917726 .38198854 .36517335 .30899049 .2891693 .19099427 .16816712L.06498718 .03817749C.052993776 .026992798 .052993776 .024993897 .052993776 0H.44799806L.47698976 .17900086Z"/>
<path id="font_3_82" d="M.44699098 0V.032989503H.4119873C.31698609 .032989503 .31399537 .04499817 .31399537 .08203125V.6371765C.31399537 .664032 .31199647 .66503909 .2849884 .66503909 .24398804 .6252289 .19099427 .6013489 .09599304 .6013489V.5683594C.12298584 .5683594 .1769867 .5683594 .23498535 .5953522V.08203125C.23498535 .04499817 .23199463 .032989503 .13699341 .032989503H.101989749V0C.14299011 .0029907227 .22898865 .0029907227 .27398683 .0029907227 .31900025 .0029907227 .4059906 .0029907227 .44699098 0Z"/>
<path id="font_3_57" d="M.5 .1640625V.197052H.3939972V.64682009C.3939972 .6668091 .3939972 .6748047 .37298585 .6748047 .3600006 .6748047 .35899354 .6737976 .34899903 .6598053L.02999878 .197052V.1640625H.31199647V.08100891C.31199647 .04399109 .30899049 .032989503 .23199463 .032989503H.20899964V0L.35299684 .0029907227 .49699403 0V.032989503H.47399903C.39698792 .032989503 .3939972 .04399109 .3939972 .08100891V.1640625H.5M.31900025 .197052H.06498718L.31900025 .56585696V.197052Z"/>
<path id="font_4_4" d="M.31399537 .63708499C.31399537 .664032 .31199647 .66503909 .2849884 .66503909 .24398804 .6251831 .19099427 .6013489 .09599304 .6013489V.5683594C.12298584 .5683594 .1769867 .5683594 .23498535 .5953522V.08203125C.23498535 .04499817 .23199463 .032989503 .13699341 .032989503H.101989749V0C.14299011 .0029907227 .22898865 .0029907227 .27398683 .0029907227 .31900025 .0029907227 .4059906 .0029907227 .44699098 0V.032989503H.4119873C.31698609 .032989503 .31399537 .04499817 .31399537 .08203125V.63708499Z"/>
<path id="font_5_1" d="M.69898989 .22743225C.71499636 .22743225 .7369995 .22743225 .7369995 .25042726 .7369995 .2734375 .71499636 .2734375 .69898989 .2734375H.12599182C.10998535 .2734375 .08799744 .2734375 .08799744 .25042726 .08799744 .22743225 .10998535 .22743225 .12599182 .22743225H.69898989Z"/>
<path id="font_2_2" d="M.375 .10926819C.36999513 .09025574 .32299806 .018234253 .2559967 .018234253 .20698548 .018234253 .18998719 .054244996 .18998719 .09925842 .18998719 .15829468 .22499085 .24832154 .24699402 .3043518 .25698854 .32936097 .2599945 .33836366 .2599945 .35636903 .2599945 .4113922 .21598816 .44140626 .16999817 .44140626 .070999149 .44140626 .02999878 .300354 .02999878 .28834535 .02999878 .27934266 .036987306 .27534486 .04499817 .27534486 .057998659 .27534486 .05899048 .28134156 .06199646 .29135133 .08799744 .38038636 .13198853 .4133911 .16699219 .4133911 .18199158 .4133911 .19099427 .4033966 .19099427 .38038636 .19099427 .3573761 .18199158 .33436585 .16899109 .29934693 .1269989 .19329834 .117996219 .15028382 .117996219 .11427307 .117996219 .016220093 .19198609-.009765625 .25099183-.009765625 .32598878-.009765625 .37199403 .050247194 .37599183 .055236818 .3919983 .008224487 .43699647-.009765625 .47299195-.009765625 .519989-.009765625 .54299929 .030227662 .5499878 .04524231 .56999209 .08125305 .58399966 .13928223 .58399966 .14328003 .58399966 .14927674 .5799866 .15628052 .56799319 .15628052 .55599978 .15628052 .55400088 .1512909 .5479889 .12527466 .5349884 .07525635 .5169983 .018234253 .47599793 .018234253 .45298768 .018234253 .44400025 .037231447 .44400025 .06524658 .44400025 .08226013 .45298768 .11627197 .45899964 .14128113 .46499635 .16629029 .47999574 .22631836 .48399354 .24432373L.5039978 .32035829C.5099945 .34736634 .5219879 .39439393 .5219879 .40039063 .5219879 .42539979 .5019989 .43139649 .48999024 .43139649 .47599793 .43139649 .45399476 .4223938 .44699098 .39839173L.375 .10926819Z"/>
<path id="font_6_1" d="M.46398927 .38404847C.45098878 .38105775 .4169922 .36405946 .4169922 .32705689 .4169922 .30204774 .43598939 .2890625 .45700074 .2890625 .48098756 .2890625 .5149994 .3060608 .5149994 .35404969 .5149994 .41940309 .43899537 .44140626 .375 .44140626 .21998596 .44140626 .07499695 .3070526 .07499695 .1681366 .07499695 .07319641 .14399719-.009765625 .272995-.009765625 .46099855-.009765625 .5329895 .09017944 .5329895 .10118103 .5329895 .11016846 .5219879 .121170047 .5139923 .121170047 .5089874 .121170047 .5079956 .120162967 .49299623 .10517883 .43899537 .04321289 .34599305 .023223877 .2749939 .023223877 .19198609 .023223877 .1619873 .077194217 .1619873 .1351471 .1619873 .13815308 .1639862 .2540741 .23298645 .3390503 .24798584 .35604859 .2999878 .40838624 .37599183 .40838624 .3809967 .40838624 .43399049 .40838624 .46398927 .38404847Z"/>
<path id="font_4_1" d="M.33299256-.25C.34098817-.25 .35299684-.25 .35299684-.23800659 .35299684-.23400879 .35198976-.23300171 .33898927-.22000122 .20199585-.09100342 .16799927 .09498596 .16799927 .25 .16799927 .5379944 .2869873 .6729889 .33799745 .71899417 .35198976 .7319946 .35299684 .73298647 .35299684 .73799136 .35299684 .7429962 .34899903 .75 .33898927 .75 .32299806 .75 .272995 .69898989 .2649994 .6899872 .1309967 .5499878 .102996829 .36999513 .102996829 .25 .102996829 .025985718 .19699097-.15400696 .33299256-.25Z"/>
<path id="font_4_2" d="M.30899049 .25C.30899049 .34500123 .29299928 .45899964 .23098755 .57699587 .18199158 .6689911 .09098816 .75 .07299805 .75 .06298828 .75 .05999756 .7429962 .05999756 .73799136 .05999756 .73399356 .05999756 .7319946 .07199097 .7200012 .21199036 .58699038 .24398804 .4039917 .24398804 .25 .24398804-.037002565 .125-.17300415 .07398987-.2190094 .06098938-.23200989 .05999756-.23300171 .05999756-.23800659 .05999756-.24301148 .06298828-.25 .07299805-.25 .08898926-.25 .13899231-.19900513 .14698792-.19000244 .2809906-.05000305 .30899049 .12998963 .30899049 .25Z"/>
<path id="font_4_5" d="M.73098757 .3330078C.74598696 .3330078 .7659912 .3330078 .7659912 .3560028 .7659912 .3789978 .74198916 .3789978 .72698977 .3789978H.09799194C.08299255 .3789978 .05899048 .3789978 .05899048 .3560028 .05899048 .3330078 .07899475 .3330078 .09399414 .3330078H.73098757M.72698977 .12098694C.74198916 .12098694 .7659912 .12098694 .7659912 .14398194 .7659912 .16699219 .74598696 .16699219 .73098757 .16699219H.09399414C.07899475 .16699219 .05899048 .16699219 .05899048 .14398194 .05899048 .12098694 .08299255 .12098694 .09799194 .12098694H.72698977Z"/>
<path id="font_4_3" d="M.4889984 .31877137C.4889984 .42585755 .47799684 .49090577 .44499208 .55496218 .40098573 .6430359 .31999208 .66503909 .2649994 .66503909 .13899231 .66503909 .09298706 .5709839 .07899475 .5429535 .042999269 .4698944 .040985109 .3708191 .040985109 .31877137 .040985109 .25271607 .04399109 .15162659 .09199524 .07156372 .13798523-.0024871827 .21199036-.021484375 .2649994-.021484375 .31298829-.021484375 .39898683-.0064849855 .44898988 .09257507 .48599244 .16464234 .4889984 .2537079 .4889984 .31877137M.2649994 .006515503C.23098755 .006515503 .1619873 .022521973 .14099121 .12760926 .12998963 .18466187 .12998963 .2787323 .12998963 .33078004 .12998963 .3998413 .12998963 .4698944 .14099121 .5249481 .1619873 .6270294 .23999024 .6370239 .2649994 .6370239 .29899598 .6370239 .36799623 .62002566 .3880005 .5289459 .3999939 .4738922 .3999939 .39883424 .3999939 .33078004 .3999939 .27172853 .3999939 .18165589 .3880005 .12561035 .36698915 .020523072 .2979889 .006515503 .2649994 .006515503Z"/>
<path id="font_3_80" d="M.7659912 .3387909C.7659912 .539978 .6069946 .70410159 .41299439 .70410159 .21598816 .70410159 .05899048 .53897097 .05899048 .3387909 .05899048 .13461304 .22200012-.021484375 .4119873-.021484375 .60598757-.021484375 .7659912 .13661194 .7659912 .3387909M.6619873 .35380555C.6619873 .09957886 .5179901 .011505127 .41299439 .011505127 .3039856 .011505127 .16299439 .10258484 .16299439 .35380555 .16299439 .5930176 .30899049 .6730957 .4119873 .6730957 .519989 .6730957 .6619873 .5890198 .6619873 .35380555Z"/>
<path id="font_3_76" d="M.7509918 .6496124V.6826172C.70599368 .6796112 .6589966 .6796112 .6329956 .6796112 .6069946 .6796112 .55999758 .6796112 .5149994 .6826172V.6496124C.6159973 .6496124 .6159973 .6016388 .6159973 .5756531V.14892578L.24299622 .66760256C.23199463 .6816101 .23098755 .6826172 .21099854 .6826172H.04399109V.6496124H.07199097C.08999634 .6496124 .09799194 .6496124 .117996219 .6476135 .14399719 .64460757 .14498902 .6436157 .14498902 .62461856V.10694885C.14498902 .080963138 .14498902 .032989503 .04399109 .032989503V0C.08898926 .0029907227 .13598633 .0029907227 .1619873 .0029907227 .18798828 .0029907227 .23498535 .0029907227 .27999879 0V.032989503C.1789856 .032989503 .1789856 .080963138 .1789856 .10694885V.6164093L.6119995 .01499939C.62098696 .0029907227 .6230011 0 .6329956 0 .6499939 0 .6499939 .009994507 .6499939 .027999878V.5754547C.6499939 .6014252 .6499939 .64941409 .7509918 .64941409V.6496124Z"/>
<path id="font_3_54" d="M.647995 .45303346 .61898806 .6796875H.04399109V.64668276H.06599426C.14299011 .64668276 .14498902 .6356964 .14498902 .59877017V.08102417C.14498902 .044006349 .14299011 .032989503 .06599426 .032989503H.04399109V0L.19799805 .0029907227C.24499512 .0029907227 .31799317 .0029907227 .36299134 0V.032989503H.33099366C.23699951 .032989503 .23699951 .04699707 .23699951 .08203125V.32421876H.32998658C.42799378 .32421876 .43998719 .29318238 .43998719 .2071228H.47099305V.47399903H.43998719C.43998719 .38916017 .42799378 .35720826 .32998658 .35720826H.23699951V.60575869C.23699951 .6396942 .23899842 .64668276 .2849884 .64668276H.41799928C.58099368 .64668276 .59999087 .58380129 .61698916 .45303346H.647995Z"/>
</defs>
<path transform="matrix(1.00009,0,0,-1.00005,57.118547,30.632832)" d="M-54.56789-18.70892V29.62247H21.82706V-18.70892ZM21.82706 29.62247" fill="#d9f0d9"/>
<path transform="matrix(1.00009,0,0,-1.00005,57.118547,30.632832)" d="M21.82706-18.70892V29.62247H74.83601V-18.70892ZM74.83601 29.62247" fill="#d9d9ff"/>
<use data-text="c" xlink:href="#font_1_1" transform="matrix(9.963496,0,0,-9.963098,76.79131,40.317316)"/>
<path transform="matrix(1.00009,0,0,-1.00005,57.118547,30.632832)" stroke-width=".3985" stroke-linecap="butt" stroke-miterlimit="10" stroke-linejoin="miter" fill="none" stroke="#000000" d="M-54.56789 0H74.43752"/>
<path transform="matrix(1.00009,0,0,-1.00005,131.76203,30.632832)" stroke-width=".3985" stroke-linecap="round" stroke-linejoin="round" fill="none" stroke="#000000" d="M-2.07224 2.39104C-1.69365 .95639-.84999 .27895 0 0-.84999-.27895-1.69365-.95639-2.07224-2.39104"/>
<path transform="matrix(1.00009,0,0,-1.00005,57.118547,30.632832)" stroke-width=".3985" stroke-linecap="butt" stroke-miterlimit="10" stroke-linejoin="miter" fill="none" stroke="#000000" d="M0-18.70892V29.22395"/>
<path transform="matrix(0,-1.00005,-1.00009,-0,57.118547,1.2081604)" stroke-width=".3985" stroke-linecap="round" stroke-linejoin="round" fill="none" stroke="#000000" d="M-2.07224 2.39104C-1.69365 .95639-.84999 .27895 0 0-.84999-.27895-1.69365-.95639-2.07224-2.39104"/>
<use data-text="t" xlink:href="#font_2_1" transform="matrix(7.970817,0,0,-7.970498,128.873,39.37127)"/>
<path transform="matrix(1.00009,0,0,-1.00005,57.118547,30.632832)" stroke-width=".3985" stroke-linecap="butt" stroke-miterlimit="10" stroke-linejoin="miter" fill="none" stroke="#929292" d="M-46.77248 1.55917V-1.55917"/>
<use data-text="-" xlink:href="#font_3_64" transform="matrix(7.970817,0,0,-7.970498,6.8150179,39.768289)"/>
<use data-text="3" xlink:href="#font_3_106" transform="matrix(7.970817,0,0,-7.970498,9.636673,39.768289)"/>
<path transform="matrix(1.00009,0,0,-1.00005,57.118547,30.632832)" stroke-width=".3985" stroke-linecap="butt" stroke-miterlimit="10" stroke-linejoin="miter" fill="none" stroke="#929292" d="M-31.18166 1.55917V-1.55917"/>
<use data-text="-" xlink:href="#font_3_64" transform="matrix(7.970817,0,0,-7.970498,22.407425,39.768289)"/>
<use data-text="2" xlink:href="#font_3_107" transform="matrix(7.970817,0,0,-7.970498,25.22908,39.768289)"/>
<path transform="matrix(1.00009,0,0,-1.00005,57.118547,30.632832)" stroke-width=".3985" stroke-linecap="butt" stroke-miterlimit="10" stroke-linejoin="miter" fill="none" stroke="#929292" d="M-15.59082 1.55917V-1.55917"/>
<use data-text="-" xlink:href="#font_3_64" transform="matrix(7.970817,0,0,-7.970498,37.998826,39.768289)"/>
<use data-text="1" xlink:href="#font_3_82" transform="matrix(7.970817,0,0,-7.970498,40.82048,39.768289)"/>
<path transform="matrix(1.00009,0,0,-1.00005,57.118547,30.632832)" stroke-width=".3985" stroke-linecap="butt" stroke-miterlimit="10" stroke-linejoin="miter" fill="none" stroke="#929292" d="M15.59082 1.55917V-1.55917"/>
<use data-text="1" xlink:href="#font_3_82" transform="matrix(7.970817,0,0,-7.970498,70.59476,39.768289)"/>
<path transform="matrix(1.00009,0,0,-1.00005,57.118547,30.632832)" stroke-width=".3985" stroke-linecap="butt" stroke-miterlimit="10" stroke-linejoin="miter" fill="none" stroke="#929292" d="M31.18166 1.55917V-1.55917"/>
<use data-text="2" xlink:href="#font_3_107" transform="matrix(7.970817,0,0,-7.970498,86.187168,39.768289)"/>
<path transform="matrix(1.00009,0,0,-1.00005,57.118547,30.632832)" stroke-width=".3985" stroke-linecap="butt" stroke-miterlimit="10" stroke-linejoin="miter" fill="none" stroke="#929292" d="M46.77248 1.55917V-1.55917"/>
<use data-text="3" xlink:href="#font_3_106" transform="matrix(7.970817,0,0,-7.970498,101.778568,39.768289)"/>
<path transform="matrix(1.00009,0,0,-1.00005,57.118547,30.632832)" stroke-width=".3985" stroke-linecap="butt" stroke-miterlimit="10" stroke-linejoin="miter" fill="none" stroke="#929292" d="M62.36331 1.55917V-1.55917"/>
<use data-text="4" xlink:href="#font_3_57" transform="matrix(7.970817,0,0,-7.970498,117.37097,39.84829)"/>
<path transform="matrix(1.00009,0,0,-1.00005,57.118547,30.632832)" stroke-width=".3985" stroke-linecap="butt" stroke-miterlimit="10" stroke-linejoin="miter" fill="none" stroke="#929292" d="M1.55917 15.59082H-1.55917"/>
<use data-text="1" xlink:href="#font_3_82" transform="matrix(7.970817,0,0,-7.970498,50.609964,17.691185)"/>
<path transform="matrix(1.00009,0,0,-1.00005,57.118547,30.632832)" stroke-width="1.19553" stroke-linecap="butt" stroke-miterlimit="10" stroke-linejoin="miter" fill="none" stroke="#009900" d="M-53.37238 15.59082H-53.80591-53.04391-52.28194-51.51996-50.75797-49.99599-49.23401-48.47202-47.71004-46.94804-46.18605-45.42407-44.66208-43.9001-43.1381-42.37613-41.61415-40.85217-40.09018-39.3282-38.56621-37.80423-37.04224-36.28026-35.51828-34.75629-33.99431-33.23233-32.47034-31.70836-30.94637-30.18439-29.4224-28.6604-27.89842-27.13643-26.37445-25.61247-24.85048-24.0885-23.32652-22.56453-21.80255-21.04056-20.27858-19.5166-18.75461-17.99261-17.23064-16.46864-15.70667-14.94469-14.18271-13.42073-12.65872-11.89674-11.13475-10.37277-9.6108-8.8488-8.08682-7.32484-6.56285-5.80087-5.03888-4.2769-3.51492-2.75293-1.99095-1.22896-.46696 .29497 1.05696 1.81894 2.58092 3.34291 4.1049 4.8669 5.62888 6.39085 7.15285 7.91481 8.67679 9.4388 10.20078 10.96277 11.72475 12.48672 13.24872 14.0107 14.77267 15.53467 16.29665 17.05864 17.82062 18.5826 19.34459 20.10657 20.86858"/>
<path transform="matrix(-1.00009,-0,0,1.00005,3.1435509,15.041232)" stroke-width="1.19553" stroke-linecap="round" stroke-linejoin="round" fill="none" stroke="#009900" d="M-3.02867 3.83081C-2.47534 1.53229-1.24231 .44691 0 0-1.24231-.44691-2.47534-1.53229-3.02867-3.83081"/>
<path transform="matrix(1.00009,0,0,-1.00005,57.118547,30.632832)" stroke-width="1.19553" stroke-linecap="butt" stroke-miterlimit="10" stroke-linejoin="miter" fill="none" stroke="#0000ff" d="M21.82706 0H22.36232 22.8976 23.43286 23.96811 24.50339 25.03867 25.57393 26.10919 26.64447 27.17973 27.71501 28.25027 28.78555 29.3208 29.85608 30.39134 30.92662 31.46188 31.99716 32.53242 33.0677 33.60297 34.13823 34.67351 35.20877 35.74403 36.2793 36.81458 37.34984 37.88512 38.42038 38.95566 39.49092 40.0262 40.56146 41.09673 41.63199 42.16725 42.70253 43.23781 43.77307 44.30833 44.84361 45.37888 45.91415 46.4494 46.98466 47.51994 48.05522 48.59048 49.12575 49.66103 50.19629 50.73157 51.26685 51.80211 52.33736 52.87263 53.4079 53.94318 54.47844 55.0137 55.54898 56.08426 56.61952 57.15479 57.69006 58.22531 58.76059 59.29585 59.83113 60.3664 60.90167 61.43694 61.97221 62.50748 63.04276 63.578 64.11328 64.64854 65.1838 65.71909 66.25436 66.78963 67.32489 67.86017 68.39543 68.93071 69.46596 70.00122 70.5365 71.07178 71.60704 72.14232 72.67758 73.21284 73.74812 74.2834 73.62314"/>
<path transform="matrix(1.00009,0,0,-1.00005,131.34613,30.632832)" stroke-width="1.19553" stroke-linecap="round" stroke-linejoin="round" fill="none" stroke="#0000ff" d="M-3.02867 3.83081C-2.47534 1.53229-1.24231 .44691 0 0-1.24231-.44691-2.47534-1.53229-3.02867-3.83081"/>
<path transform="matrix(1.00009,0,0,-1.00005,57.118547,30.632832)" stroke-width="1.19553" stroke-linecap="butt" stroke-miterlimit="10" stroke-linejoin="miter" fill="none" stroke="#009900" d="M23.47092 15.59082C23.47092 16.49872 22.73494 17.2347 21.82706 17.2347 20.91916 17.2347 20.18318 16.49872 20.18318 15.59082 20.18318 14.68292 20.91916 13.94696 21.82706 13.94696 22.73494 13.94696 23.47092 14.68292 23.47092 15.59082ZM21.82706 15.59082"/>
<path transform="matrix(1.00009,0,0,-1.00005,57.118547,30.632832)" d="M23.47092 0C23.47092 .90788 22.73494 1.64386 21.82706 1.64386 20.91916 1.64386 20.18318 .90788 20.18318 0 20.18318-.90788 20.91916-1.64386 21.82706-1.64386 22.73494-1.64386 23.47092-.90788 23.47092 0ZM21.82706 0" fill="#0000ff"/>
<use data-text="1" xlink:href="#font_4_4" transform="matrix(7.970817,0,0,-7.970498,.90348818,9.212761)" fill="#009900"/>
<use data-text="&#x2212;" xlink:href="#font_5_1" transform="matrix(7.970817,0,0,-7.970498,7.021042,9.212761)" fill="#009900"/>
<use data-text="u" xlink:href="#font_2_2" transform="matrix(7.970817,0,0,-7.970498,15.489807,9.212761)" fill="#009900"/>
<use data-text="c" xlink:href="#font_6_1" transform="matrix(5.978138,0,0,-5.9778988,20.39325,10.208811)" fill="#009900"/>
<use data-text="(" xlink:href="#font_4_1" transform="matrix(7.970817,0,0,-7.970498,24.233582,9.212761)" fill="#009900"/>
<use data-text="t" xlink:href="#font_2_1" transform="matrix(7.970817,0,0,-7.970498,27.527894,9.212761)" fill="#009900"/>
<use data-text=")" xlink:href="#font_4_2" transform="matrix(7.970817,0,0,-7.970498,30.586167,9.212761)" fill="#009900"/>
<use data-text="=" xlink:href="#font_4_5" transform="matrix(7.970817,0,0,-7.970498,36.229509,9.212761)" fill="#009900"/>
<use data-text="1" xlink:href="#font_4_4" transform="matrix(7.970817,0,0,-7.970498,45.164796,9.212761)" fill="#009900"/>
<use data-text="1" xlink:href="#font_4_4" transform="matrix(7.970817,0,0,-7.970498,81.20271,24.80454)" fill="#0000ff"/>
<use data-text="&#x2212;" xlink:href="#font_5_1" transform="matrix(7.970817,0,0,-7.970498,87.32027,24.80454)" fill="#0000ff"/>
<use data-text="u" xlink:href="#font_2_2" transform="matrix(7.970817,0,0,-7.970498,95.78903,24.80454)" fill="#0000ff"/>
<use data-text="c" xlink:href="#font_6_1" transform="matrix(5.978138,0,0,-5.9778988,100.692478,25.80059)" fill="#0000ff"/>
<use data-text="(" xlink:href="#font_4_1" transform="matrix(7.970817,0,0,-7.970498,104.53281,24.80454)" fill="#0000ff"/>
<use data-text="t" xlink:href="#font_2_1" transform="matrix(7.970817,0,0,-7.970498,107.82712,24.80454)" fill="#0000ff"/>
<use data-text=")" xlink:href="#font_4_2" transform="matrix(7.970817,0,0,-7.970498,110.88539,24.80454)" fill="#0000ff"/>
<use data-text="=" xlink:href="#font_4_5" transform="matrix(7.970817,0,0,-7.970498,116.52873,24.80454)" fill="#0000ff"/>
<use data-text="0" xlink:href="#font_4_3" transform="matrix(7.970817,0,0,-7.970498,125.46402,24.80454)" fill="#0000ff"/>
<use data-text="O" xlink:href="#font_3_80" transform="matrix(7.970817,0,0,-7.970498,34.282495,46.898645)" fill="#009900"/>
<use data-text="N" xlink:href="#font_3_76" transform="matrix(7.970817,0,0,-7.970498,40.86637,46.898645)" fill="#009900"/>
<use data-text="O" xlink:href="#font_3_80" transform="matrix(7.970817,0,0,-7.970498,96.6381,46.898645)" fill="#0000ff"/>
<use data-text="F" xlink:href="#font_3_54" transform="matrix(7.970817,0,0,-7.970498,103.22198,46.898645)" fill="#0000ff"/>
<use data-text="F" xlink:href="#font_3_54" transform="matrix(7.970817,0,0,-7.970498,108.745769,46.898645)" fill="#0000ff"/>
</svg>
