<svg xmlns="http://www.w3.org/2000/svg" xmlns:xlink="http://www.w3.org/1999/xlink" version="1.1" width="142" height="43" viewBox="0 0 142 43">
<defs>
<path id="font_1_1" d="M.42799378 .45222474 .43899537 .49023438H.31199647L.34599305 .6092224 .33399964 .6162262 .23699951 .53923037 .22399903 .49023438H.14299011L.13198853 .45222474H.21499634L.125 .08627319C.10998535 .029266358 .12199402-.01171875 .17199707-.01171875 .2519989-.01171875 .31599427 .054275514 .35598756 .1292572L.33399964 .1462555C.31098939 .10726929 .2599945 .040267946 .22898865 .040267946 .20799256 .040267946 .20799256 .0632782 .21398926 .088272098L.30299378 .45222474H.42799378Z"/>
<path id="font_2_4" d="M.3809967 .6720276C.5589905 .6720276 .59999087 .4931183 .60198977 .3461914 .59999087 .19924927 .5589905 .020339966 .3809967 .020339966 .20298767 .020339966 .1619873 .19924927 .1599884 .3461914 .1619873 .4931183 .20298767 .6720276 .3809967 .6720276M.3809967 .70703127C.2709961 .70703127 .18899536 .6730194 .1329956 .61006167 .07899475 .55007937 .04798889 .4591217 .04798889 .3461914 .04798889 .23423767 .07899475 .14228821 .1329956 .08232117 .18899536 .019348145 .2709961-.0146484379 .3809967-.0146484379 .49198915-.0146484379 .57299807 .019348145 .6289978 .08232117 .6839905 .14228821 .71398928 .23423767 .71398928 .3461914 .71398928 .4591217 .6839905 .55007937 .6289978 .61006167 .57299807 .6730194 .49198915 .70703127 .3809967 .70703127Z"/>
<path id="font_2_3" d="M.033996583 .6923828V.66337588C.12199402 .6573639 .12399292 .655365 .12399292 .5993347V.20309448C.12399292 .15007019 .12199402 .11204529 .116989139 .07902527 .11099243 .037002565 .08699036 .032989503 .034988405 .0289917V0H.27198792V.0289917C.20698548 .033996583 .18299866 .037002565 .1769867 .07902527 .17199707 .11204529 .16999817 .15007019 .16999817 .20309448V.6023407H.17199707C.31498719 .4012146 .45700074 .20109558 .59799197 0H.6639862V.48927308C.6639862 .54229739 .66600039 .58032229 .67099 .6133423 .6769867 .655365 .70098879 .6593628 .7529907 .66337588V.6923828H.5159912V.66337588C.58099368 .658371 .6049957 .655365 .61099246 .6133423 .6159973 .58032229 .6179962 .54229739 .6179962 .48927308V.13806153L.6159973 .14006043C.4850006 .32417298 .35499574 .5082855 .22599793 .6923828H.033996583Z"/>
<path id="font_2_10" d="M.18899536 .5019531 .036987306 .47694398V.45195008L.07499695 .4469452C.100997928 .4429474 .10699463 .4379425 .10699463 .40194703V.08699036C.10699463 .035995485 .101989749 .033996583 .03199768 .0289917V0H.29599V.0289917C.20698548 .033996583 .20098877 .035995485 .20098877 .08699036V.32095338C.20098877 .39794923 .23498535 .4239502 .2579956 .4239502 .27398683 .4239502 .29100038 .4179535 .31999208 .40194703 .32699586 .39794923 .33499146 .39694215 .33999635 .39694215 .3639984 .39694215 .38598634 .4219513 .38598634 .4529419 .38598634 .47494508 .37199403 .5019531 .33299256 .5019531 .29699708 .5019531 .2669983 .47994996 .20098877 .4219513L.18899536 .5019531Z"/>
<path id="font_2_5" d="M.44099427 .2627716C.46199037 .2627716 .48098756 .2677765 .48098756 .30078126 .48098756 .35983277 .46199037 .5019531 .2789917 .5019531 .12298584 .5019531 .04899597 .39086915 .04899597 .24082947 .04899597 .08317566 .116989139-.01373291 .27999879-.01171875 .3909912-.010726929 .44799806 .050247194 .47499085 .1290741L.44499208 .14503479C.4169922 .08717346 .3789978 .039276124 .2999878 .039276124 .17599488 .039276124 .15098572 .15901184 .15299988 .2627716H.44099427M.1539917 .30078126C.1539917 .34181214 .16899109 .46694947 .272995 .46694947 .3659973 .46694947 .3769989 .37184144 .3769989 .33280946 .3769989 .31378175 .37098695 .30078126 .34298707 .30078126H.1539917Z"/>
<path id="font_2_6" d="M.2599945 .46694947C.30899049 .46694947 .3600006 .43093873 .3600006 .33392335 .3600006 .24989319 .31599427 .20588684 .2579956 .20588684 .20199585 .20588684 .15499878 .24989319 .15499878 .33392335 .15499878 .43293763 .20698548 .46694947 .2599945 .46694947M.2809906-.2071991C.19599915-.2071991 .13699341-.16319275 .13699341-.09118652 .13699341-.057174684 .14698792-.032180787 .16799927-.016174317 .18998719 .0008239746 .22299195 .0068359377 .2709961 .0068359377 .35899354 .0068359377 .42399598-.014175415 .42399598-.08918762 .42399598-.16918946 .35198976-.2071991 .2809906-.2071991M.3889923 .47094728C.36099244 .48994447 .30599977 .5019531 .2599945 .5019531 .10699463 .5019531 .052993776 .40792848 .052993776 .33392335 .052993776 .23989868 .114990238 .19688416 .16099549 .18489075V.18289185C.10699463 .1618805 .068984989 .13285828 .068984989 .09384155 .068984989 .05882263 .10899353 .020828248 .15699768 .015823365V.013824463C.11399841-.00016784668 .041992189-.024169922 .041992189-.09617615 .041992189-.19718933 .14199829-.2421875 .2579956-.2421875 .31799317-.2421875 .3809967-.23019409 .42900086-.20118714 .47499085-.17318726 .5079956-.12619019 .5079956-.06417847 .5079956 .043823244 .42199708 .081832889 .31498719 .081832889H.23498535C.16299439 .081832889 .1519928 .10585022 .1519928 .12486267 .1519928 .15388489 .18998719 .16989136 .20298767 .17388916 .22200012 .17189026 .24299622 .17089844 .2539978 .17089844 .34899903 .17089844 .45599366 .21289063 .45599366 .33392335 .45599366 .3759308 .44299317 .41093446 .42599488 .42793275L.5049896 .4399414 .5249939 .50294497 .5169983 .51194766 .3889923 .47094728Z"/>
<path id="font_2_7" d="M.036987306 .47694398V.45195008L.07499695 .4469452C.100997928 .4429474 .10699463 .43795777 .10699463 .40194703V.08699036C.10699463 .035995485 .10398865 .033996583 .03199768 .0289917V0H.27598573V.0289917C.20498657 .033996583 .20098877 .035995485 .20098877 .08699036V.49609376L.19400025 .5020752 .036987306 .47694398M.15299988 .71484377C.116989139 .71484377 .09199524 .6888428 .09199524 .65283206 .09199524 .61782839 .116989139 .5928345 .15299988 .5928345 .18998719 .5928345 .21299744 .61782839 .21398926 .65283206 .21398926 .6888428 .18998719 .71484377 .15299988 .71484377Z"/>
<path id="font_2_9" d="M.28799439 .5019531C.12799073 .5019531 .04899597 .40698243 .04899597 .24510193 .04899597 .083236698 .12799073-.01171875 .28799439-.01171875 .44999696-.01171875 .5279999 .083236698 .5279999 .24510193 .5279999 .40698243 .44999696 .5019531 .28799439 .5019531M.15299988 .24510193C.15299988 .38301087 .19699097 .46694947 .28799439 .46694947 .3809967 .46694947 .42399598 .38301087 .42399598 .24510193 .42399598 .10720825 .3809967 .023269654 .28799439 .023269654 .19699097 .023269654 .15299988 .10720825 .15299988 .24510193Z"/>
<path id="font_2_8" d="M.5289917 .34295655C.5289917 .4439392 .47399903 .5019531 .38198854 .5019531 .30799867 .5019531 .2619934 .46594239 .19999695 .4259491L.18598938 .5019531 .036987306 .47694398V.45195008L.07499695 .4469452C.100997928 .4429474 .10699463 .4379425 .10699463 .40194703V.08699036C.10699463 .035995485 .10398865 .033996583 .03199768 .0289917V0H.27598573V.0289917C.20498657 .033996583 .20098877 .035995485 .20098877 .08699036V.32095338C.20098877 .34596253 .20298767 .35995484 .21099854 .37594605 .23199463 .4149475 .2769928 .44795228 .32998658 .44795228 .397995 .44795228 .43499757 .40994264 .43499757 .32295228V.08699036C.43499757 .035995485 .43199159 .033996583 .3600006 .0289917V0H.60398867V.0289917C.5329895 .033996583 .5289917 .035995485 .5289917 .08699036V.34295655Z"/>
<path id="font_2_1" d="M.43699647 0V.0289917L.35299684 .035995485C.33198548 .037994386 .31999208 .04598999 .31999208 .08496094V.67367556L.31498719 .6796875 .10899353 .6446991V.6197052L.20199585 .6087036C.21899414 .6067047 .22599793 .5987091 .22599793 .56973269V.08496094C.22599793 .065979007 .22299195 .053985597 .21699524 .04698181 .21199036 .039993287 .20399475 .036987306 .19299317 .035995485L.10899353 .0289917V0H.43699647Z"/>
<path id="font_2_2" d="M.034988405 .6923828V.66337588C.12298584 .6573639 .125 .655365 .125 .5993347V.093048099C.125 .037002565 .12298584 .035003663 .034988405 .0289917V0H.32998658V.0289917C.22698975 .035003663 .22399903 .037002565 .22399903 .093048099V.32722474H.3639984C.44898988 .32722474 .45298768 .3032074 .46199037 .23916626H.49198915V.4532776H.46199037C.45298768 .38923646 .44898988 .36523438 .3639984 .36523438H.22399903V.62135317C.22399903 .65437319 .22799683 .65737918 .26098634 .65737918H.3600006C.47599793 .65737918 .49899293 .6343689 .5130005 .5323181H.54299929V.6923828H.034988405Z"/>
</defs>
<path transform="matrix(1.00005,0,0,-1.00008,1.4913712,29.48108)" d="M0-11.90572V27.77962H39.68535V-11.90572ZM39.68535 27.77962" fill="#d9d9ec"/>
<path transform="matrix(1.00005,0,0,-1.00008,1.4913712,29.48108)" stroke-width=".3985" stroke-linecap="butt" stroke-miterlimit="10" stroke-linejoin="miter" fill="none" stroke="#000000" d="M.45827 0H138.44048"/>
<path transform="matrix(-1.00005,-0,0,1.00008,1.9496641,29.48108)" stroke-width=".31879" stroke-linecap="round" stroke-linejoin="round" fill="none" stroke="#000000" d="M-1.19551 1.59401C-1.09587 .99626 0 .09961 .29886 0 0-.09961-1.09587-.99626-1.19551-1.59401"/>
<path transform="matrix(1.00005,0,0,-1.00008,139.93875,29.48108)" stroke-width=".31879" stroke-linecap="round" stroke-linejoin="round" fill="none" stroke="#000000" d="M-1.19551 1.59401C-1.09587 .99626 0 .09961 .29886 0 0-.09961-1.09587-.99626-1.19551-1.59401"/>
<use data-text="t" xlink:href="#font_1_1" transform="matrix(9.166058,0,0,-9.166333,136.4591,26.0018)"/>
<path transform="matrix(1.00005,0,0,-1.00008,1.4913712,29.48108)" stroke-width=".19925" stroke-linecap="butt" stroke-dasharray="2.98883,2.98883" stroke-miterlimit="10" stroke-linejoin="miter" fill="none" stroke="#000000" d="M39.68535-11.90572V27.77962"/>
<path transform="matrix(1.00005,0,0,-1.00008,1.4913712,29.48108)" d="M41.77753 19.84267C41.77753 20.99815 40.84084 21.93483 39.68535 21.93483 38.52986 21.93483 37.59317 20.99815 37.59317 19.84267 37.59317 18.68718 38.52986 17.75049 39.68535 17.75049 40.84084 17.75049 41.77753 18.68718 41.77753 19.84267ZM39.68535 19.84267"/>
<path transform="matrix(1.00005,0,0,-1.00008,1.4913712,29.48108)" stroke-width="1.19553" stroke-linecap="butt" stroke-miterlimit="10" stroke-linejoin="miter" fill="none" stroke="#000000" d="M41.77753 0C41.77753 1.15549 40.84084 2.09216 39.68535 2.09216 38.52986 2.09216 37.59317 1.15549 37.59317 0 37.59317-1.15549 38.52986-2.09216 39.68535-2.09216 40.84084-2.09216 41.77753-1.15549 41.77753 0ZM39.68535 0"/>
<path transform="matrix(1.00005,0,0,-1.00008,1.4913712,29.48108)" stroke-width="1.19553" stroke-linecap="butt" stroke-miterlimit="10" stroke-linejoin="miter" fill="none" stroke="#000000" d="M0 19.84267H.40054 .80112 1.20169 1.60226 2.00284 2.40341 2.80399 3.20456 3.60513 4.00569 4.40627 4.80684 5.20741 5.60799 6.00856 6.40913 6.80971 7.21028 7.61086 8.01141 8.41197 8.81255 9.21312 9.6137 10.01427 10.41484 10.81541 11.21599 11.61655 12.01712 12.4177 12.81827 13.21884 13.61942 14.01999 14.42056 14.82114 15.22171 15.62227 16.02284 16.42342 16.82399 17.22456 17.62514 18.02571 18.42628 18.82686 19.22742 19.62799 20.02855 20.42912 20.8297 21.23027 21.63084 22.03142 22.43199 22.83257 23.23312 23.6337 24.03427 24.43484 24.83542 25.236 25.63657 26.03714 26.43771 26.83827 27.23885 27.63942 28.04 28.44057 28.84114 29.24171 29.64229 30.04286 30.44344 30.844 31.24457 31.64514 32.04572 32.44629 32.84686 33.24744 33.64801 34.04858 34.44914 34.84972 35.25029 35.65086 36.05144 36.45201 36.85258 37.25316 37.65373 38.0543 38.45486 38.85544 39.25601 39.65657"/>
<path transform="matrix(1.00005,0,0,-1.00008,1.4913712,29.48108)" stroke-width="1.19553" stroke-linecap="butt" stroke-miterlimit="10" stroke-linejoin="miter" fill="none" stroke="#000000" d="M40.87587 0H41.86592 42.85602 43.84607 44.83617 45.82623 46.81631 47.80638 48.79645 49.78653 50.77661 51.76668 52.75676 53.74683 54.73691 55.72697 56.71706 57.70712 58.6972 59.68727 60.67735 61.66743 62.6575 63.64758 64.63765 65.62772 66.61781 67.60788 68.59796 69.58803 70.57811 71.56819 72.55826 73.54834 74.5384 75.52849 76.51855 77.50864 78.4987 79.48878 80.47887 81.46893 82.459 83.44908 84.43915 85.42924 86.4193 87.4094 88.39944 89.38954 90.3796 91.36969 92.35976 93.34984 94.33992 95.32999 96.32007 97.31013 98.30022 99.29028 100.28036 101.27043 102.26051 103.25058 104.24066 105.23073 106.22083 107.21088 108.20097 109.19102 110.18112 111.17119 112.16127 113.15134 114.14142 115.13148 116.12157 117.11163 118.10172 119.0918 120.08186 121.07195 122.06201 123.0521 124.04216 125.03224 126.02231 127.0124 128.00246 128.99256 129.9826 130.9727 131.96277 132.95285 133.94292 134.93299 135.92307 136.91315 137.90322 137.93688"/>
<path transform="matrix(1.00005,0,0,-1.00008,139.43515,29.48108)" stroke-width=".9564" stroke-linecap="round" stroke-linejoin="round" fill="none" stroke="#000000" d="M-1.91284 2.55046C-1.75343 1.59402 0 .15938 .4782 0 0-.15938-1.75343-1.59402-1.91284-2.55046"/>
<use data-text="O" xlink:href="#font_2_4" transform="matrix(7.332866,0,0,-7.3330867,15.68008,22.079487)" fill="#000080"/>
<use data-text="N" xlink:href="#font_2_3" transform="matrix(7.332866,0,0,-7.3330867,21.26772,22.079487)" fill="#000080"/>
<use data-text="r" xlink:href="#font_2_10" transform="matrix(7.332866,0,0,-7.3330867,7.9686968,39.110849)" fill="#000080"/>
<use data-text="e" xlink:href="#font_2_5" transform="matrix(7.332866,0,0,-7.3330867,10.681854,39.110849)" fill="#000080"/>
<use data-text="g" xlink:href="#font_2_6" transform="matrix(7.332866,0,0,-7.3330867,14.450943,39.110849)" fill="#000080"/>
<use data-text="i" xlink:href="#font_2_7" transform="matrix(7.332866,0,0,-7.3330867,18.26403,39.110849)" fill="#000080"/>
<use data-text="o" xlink:href="#font_2_9" transform="matrix(7.332866,0,0,-7.3330867,20.397896,39.110849)" fill="#000080"/>
<use data-text="n" xlink:href="#font_2_8" transform="matrix(7.332866,0,0,-7.3330867,24.62896,39.110849)" fill="#000080"/>
<use data-text="1" xlink:href="#font_2_1" transform="matrix(7.332866,0,0,-7.3330867,30.810563,39.110849)" fill="#000080"/>
<use data-text="O" xlink:href="#font_2_4" transform="matrix(7.332866,0,0,-7.3330867,83.73747,22.079487)" fill="#000080"/>
<use data-text="F" xlink:href="#font_2_2" transform="matrix(7.332866,0,0,-7.3330867,89.32511,22.079487)" fill="#000080"/>
<use data-text="F" xlink:href="#font_2_2" transform="matrix(7.332866,0,0,-7.3330867,93.57818,22.079487)" fill="#000080"/>
</svg>
