<svg xmlns="http://www.w3.org/2000/svg" xmlns:xlink="http://www.w3.org/1999/xlink" version="1.1" width="139" height="75" viewBox="0 0 139 75">
<defs>
<path id="font_1_1" d="M.6349945 .2529297V.31092835H.084991458V.2529297H.6349945Z"/>
<path id="font_2_3" d="M.2649994 .64468386C.3600006 .64468386 .3869934 .49682618 .3869934 .33398438 .3869934 .17112732 .3600006 .023269654 .2649994 .023269654 .16999817 .023269654 .14299011 .17112732 .14299011 .33398438 .14299011 .49682618 .16999817 .64468386 .2649994 .64468386M.2649994 .6796875C.099990848 .6796875 .040985109 .53378298 .040985109 .33398438 .040985109 .13417053 .099990848-.01171875 .2649994-.01171875 .42999269-.01171875 .4889984 .13417053 .4889984 .33398438 .4889984 .53378298 .42999269 .6796875 .2649994 .6796875Z"/>
<path id="font_2_2" d="M.1329956-.01171875C.17199707-.01171875 .19499207 .015274048 .19599915 .05126953 .19599915 .088272098 .17199707 .11627197 .1329956 .11627197 .09498596 .11627197 .069992069 .088272098 .069992069 .05126953 .069992069 .015274048 .09498596-.01171875 .1329956-.01171875Z"/>
<path id="font_2_7" d="M.42599488 .5919647 .44999696 .6599579 .44499208 .66796877H.11099243L.100997928 .65896609 .08099365 .32388307 .10499573 .31188966C.14698792 .35983277 .18798828 .3828125 .24198914 .3828125 .30599977 .3828125 .37599183 .3358612 .37599183 .20404053 .37599183 .10116577 .33399964 .023269654 .24699402 .023269654 .1769867 .023269654 .14099121 .07420349 .12098694 .13113404 .115997318 .14611817 .10699463 .15510559 .09298706 .15510559 .07299805 .15510559 .039993287 .13513184 .039993287 .10217285 .039993287 .056228639 .10998535-.01171875 .23999024-.01171875 .40499879-.01171875 .47999574 .0881958 .47999574 .21502686 .47999574 .35484315 .3919983 .4268036 .272995 .4268036 .21798706 .4268036 .15899658 .4028015 .1269989 .3738098L.125 .37580873 .147995 .56292727C.15098572 .58795168 .1579895 .5919647 .1769867 .5919647H.42599488Z"/>
<path id="font_2_4" d="M.43699647 0V.0289917L.35299684 .035995485C.33198548 .037994386 .31999208 .04598999 .31999208 .08496094V.67367556L.31498719 .6796875 .10899353 .6446991V.6197052L.20199585 .6087036C.21899414 .6067047 .22599793 .5987091 .22599793 .56973269V.08496094C.22599793 .065979007 .22299195 .053985597 .21699524 .04698181 .21199036 .039993287 .20399475 .036987306 .19299317 .035995485L.10899353 .0289917V0H.43699647Z"/>
<path id="font_2_8" d="M.27198792-.01171875C.41999818-.01171875 .49899293 .07821655 .49899293 .2140503 .49899293 .3488922 .4119873 .42385865 .30799867 .421875 .23199463 .42385865 .17199707 .36886598 .14498902 .33590699H.14299011C.14399719 .5557556 .20698548 .64468386 .29699708 .64468386 .34298707 .64468386 .375 .6057129 .3899994 .5487671 .3929901 .5367737 .40098573 .527771 .41600038 .527771 .43798829 .527771 .46899415 .5447693 .46899415 .57273867 .46899415 .6127014 .41999818 .6796875 .2999878 .6796875 .22099304 .6796875 .16499329 .64967349 .12298584 .6017151 .07798767 .5497589 .04399109 .45384217 .04399109 .3089447 .04399109 .093185428 .12199402-.01171875 .27198792-.01171875M.27398683 .37086488C.33699037 .37086488 .39898683 .31393434 .39898683 .19906616 .39898683 .094192508 .35798646 .023269654 .27398683 .023269654 .18699646 .023269654 .14498902 .11616516 .14498902 .23602295 .14498902 .2969513 .18998719 .37086488 .27398683 .37086488Z"/>
<path id="font_2_6" d="M.2999878 .17871094V.0769043C.2999878 .04296875 .2889862 .036987306 .2649994 .034988405L.20098877 .0289917V0H.46499635V.0289917L.41999818 .033981325C.39698792 .036987306 .3899994 .04296875 .3899994 .0769043V.17871094H.49299623V.22570801H.3899994V.66796877H.31698609C.22299195 .5298767 .11099243 .35577394 .018997193 .19970703L.027999878 .17871094H.2999878M.09098816 .22570801C.15098572 .33476258 .22099304 .4498291 .2979889 .5709076H.2999878V.22570801H.09098816Z"/>
<path id="font_2_5" d="M.4850006 .13195801 .45700074 .13696289C.43598939 .08299255 .41600038 .07598877 .37599183 .07598877H.11999512C.13598633 .1279602 .19499207 .19892884 .28799439 .2658844 .38398744 .33584596 .45799256 .38082887 .45799256 .49276734 .45799256 .63168337 .3659973 .6796875 .26098634 .6796875 .12399292 .6796875 .052993776 .5967102 .052993776 .54473879 .052993776 .51075747 .09098816 .49476625 .10798645 .49476625 .12599182 .49476625 .1329956 .50476077 .13699341 .5217438 .15299988 .5897064 .19198609 .64468386 .2539978 .64468386 .33099366 .64468386 .35299684 .5797119 .35299684 .50675967 .35299684 .3998108 .29899598 .33984376 .21199036 .26289369 .08898926 .15594483 .04598999 .08798218 .026992798 .009994507L.036987306 0H.45098878L.4850006 .13195801Z"/>
<clipPath id="clip_3">
<path transform="matrix(1.00002,0,0,-1.00005,-363.0739,73.124057)" d="M366.10865 0H499.23905V53.75998H366.10865Z"/>
</clipPath>
<path id="font_4_1" d="M.42799378 .45222474 .43899537 .49023438H.31199647L.34599305 .6092224 .33399964 .6162262 .23699951 .53923037 .22399903 .49023438H.14299011L.13198853 .45222474H.21499634L.125 .08627319C.10998535 .029266358 .12199402-.01171875 .17199707-.01171875 .2519989-.01171875 .31599427 .054275514 .35598756 .1292572L.33399964 .1462555C.31098939 .10726929 .2599945 .040267946 .22898865 .040267946 .20799256 .040267946 .20799256 .0632782 .21398926 .088272098L.30299378 .45222474H.42799378Z"/>
<path id="font_4_2" d="M.070999149 .45393373 .07398987 .42893983 .14199829 .43093873C.1639862 .43193055 .16899109 .41493226 .1769867 .36291505 .18798828 .28489686 .20999146 .09286499 .20999146 .0128479 .20999146-.017166138 .20799256-.058166505 .18598938-.11117554 .16799927-.15318299 .14199829-.18218994 .12199402-.18218994 .10699463-.18218994 .09599304-.17118836 .08099365-.15118408 .068984989-.13517761 .06098938-.127182 .04598999-.127182 .019989014-.12818909-.005004883-.15818787-.005004883-.18719483-.005004883-.21418762 .023986817-.2421875 .067993167-.2421875 .15299988-.2421875 .18998719-.17919922 .27799989-.027160645 .2979889 .0068511965 .35798646 .11286926 .41999818 .21488953 .47698976 .30891419 .5399933 .40592958 .5399933 .4459381 .5399933 .48094178 .5289917 .5019531 .5219879 .5019531 .5029907 .5019531 .46899415 .49394227 .44400025 .47694398 .44499208 .4419403 .44299317 .3809204 .43099977 .33891297 .4149933 .28289796 .35598756 .17488098 .2899933 .06085205H.2869873C.27999879 .21388245 .26098634 .42492677 .24699402 .49795533L.23899842 .5019531 .070999149 .45393373Z"/>
<path id="font_2_9" d="M.034988405 .6923828V.66337588C.12298584 .6573639 .125 .655365 .125 .5992737V.0929718C.125 .036987306 .12298584 .034988405 .034988405 .0289917V0H.5649872L.57699587 .17294312H.5469971C.5239868 .050994874 .47898866 .034988405 .35299684 .034988405 .30599977 .034988405 .269989 .036987306 .24899292 .04498291 .22799683 .053985597 .22399903 .07098389 .22399903 .1199646V.3408966H.3639984C.44898988 .3408966 .45298768 .3169098 .46199037 .2539215H.49198915V.4650421H.46199037C.45298768 .40293885 .44898988 .37890626 .3639984 .37890626H.22399903V.6213074C.22399903 .6533661 .22898865 .65737918 .26098634 .65737918H.35899354C.47299195 .65737918 .49598695 .6323395 .5099945 .52815249H.5399933V.6923828H.034988405Z"/>
<path id="font_2_21" d="M.59098818 0V.0289917C.5219879 .033996583 .5159912 .035995485 .5159912 .08699036V.49609376L.5089874 .50209048 .35198976 .47709657V.45210267L.3899994 .44711305C.41600038 .44309999 .42199708 .43811036 .42199708 .40213014V.17721558C.42199708 .14923096 .4189911 .12724304 .4139862 .117248538 .3909912 .071258548 .34298707 .042266847 .29100038 .042266847 .23298645 .042266847 .18998719 .07826233 .18998719 .15621948V.49609376L.18299866 .50209048 .025985718 .47709657V.45210267L.06399536 .44711305C.08999634 .44309999 .09599304 .43811036 .09599304 .40213014V.13822937C.09599304 .023269654 .1639862-.01171875 .23799134-.01171875 .32299806-.01171875 .3919983 .04626465 .42099 .060272218L.43099977 0H.59098818Z"/>
<path id="font_2_15" d="M.18899536 .7361908 .18199158 .7421875 .024993897 .71717837V.6921692L.06298828 .6881714C.08898926 .6851654 .09498596 .6801758 .09498596 .6421509V.087005618C.09498596 .035995485 .09199524 .033996583 .019989014 .0289917V0H.2639923V.0289917C.19299317 .033996583 .18899536 .035995485 .18899536 .087005618V.7361908Z"/>
<path id="font_2_13" d="M.44099427 .2627716C.46199037 .2627716 .48098756 .2677765 .48098756 .30078126 .48098756 .35983277 .46199037 .5019531 .2789917 .5019531 .12298584 .5019531 .04899597 .39086915 .04899597 .24082947 .04899597 .08317566 .116989139-.01373291 .27999879-.01171875 .3909912-.010726929 .44799806 .050247194 .47499085 .1290741L.44499208 .14503479C.4169922 .08717346 .3789978 .039276124 .2999878 .039276124 .17599488 .039276124 .15098572 .15901184 .15299988 .2627716H.44099427M.1539917 .30078126C.1539917 .34181214 .16899109 .46694947 .272995 .46694947 .3659973 .46694947 .3769989 .37184144 .3769989 .33280946 .3769989 .31378175 .37098695 .30078126 .34298707 .30078126H.1539917Z"/>
<path id="font_2_18" d="M.18899536 .5019531 .036987306 .47694398V.45195008L.07499695 .4469452C.100997928 .4429474 .10699463 .4379425 .10699463 .40194703V.08699036C.10699463 .035995485 .101989749 .033996583 .03199768 .0289917V0H.29599V.0289917C.20698548 .033996583 .20098877 .035995485 .20098877 .08699036V.32095338C.20098877 .39794923 .23498535 .4239502 .2579956 .4239502 .27398683 .4239502 .29100038 .4179535 .31999208 .40194703 .32699586 .39794923 .33499146 .39694215 .33999635 .39694215 .3639984 .39694215 .38598634 .4219513 .38598634 .4529419 .38598634 .47494508 .37199403 .5019531 .33299256 .5019531 .29699708 .5019531 .2669983 .47994996 .20098877 .4219513L.18899536 .5019531Z"/>
<path id="font_2_1" d="M.08898926 .47218324C.13899231 .5181732 .20698548 .58517459 .20698548 .6561737 .20698548 .71017459 .1749878 .7431793 .14199829 .7421875 .11199951 .7421875 .09399414 .72117617 .09399414 .69418337 .09399414 .6581726 .1269989 .6371765 .1269989 .60017397 .1269989 .56217959 .102996829 .5241852 .07199097 .48817445L.08898926 .47218324Z"/>
<path id="font_2_19" d="M.36698915 .35102845V.46794129C.33399964 .49194337 .2829895 .5019531 .23799134 .5019531 .12998963 .5019531 .056991579 .45095826 .055999757 .35603334 .056991579 .27308656 .12399292 .2361145 .20698548 .21113587 .2519989 .19714356 .31498719 .17416382 .31498719 .10621643 .31498719 .055252077 .2749939 .023269654 .22200012 .023269654 .14099121 .023269654 .09599304 .082229617 .07598877 .16716004H.04699707L.056991579 .03627014C.09298706 .004272461 .1539917-.01171875 .21299744-.01171875 .33198548-.01171875 .3999939 .051254274 .3999939 .13618469 .3999939 .2241211 .34599305 .26409913 .24299622 .29606629 .20199585 .30906678 .13598633 .3300476 .13598633 .3860016 .13699341 .43795777 .17599488 .46694947 .22599793 .46694947 .29699708 .46694947 .33099366 .4119873 .33799745 .35102845H.36698915Z"/>
<path id="font_2_10" d="M.2709961 0V.0289917C.20599365 .033996583 .18199158 .037002565 .17599488 .07902527 .17098999 .11204529 .16899109 .15007019 .16899109 .20309448V.60032656H.17098999L.42900086 .011993408H.45599366L.71699526 .60032656H.7200012V.09303284C.7200012 .037002565 .71798709 .034988405 .6299896 .0289917V0H.9089966V.0289917C.82199099 .034988405 .81900027 .037002565 .81900027 .09303284V.5993347C.81900027 .655365 .82199099 .6573639 .9089966 .66337588V.6923828H.70799258C.673996 .6033325 .6329956 .5152893 .59298709 .42723084L.47299195 .15907288H.47099305L.35299684 .42622376C.31399537 .5152893 .27198792 .6033325 .23599243 .6923828H.032989503V.66337588C.12098694 .6573639 .12298584 .655365 .12298584 .5993347V.20309448C.12298584 .15007019 .12098694 .11204529 .115997318 .07902527 .10998535 .037002565 .085998538 .032989503 .033996583 .0289917V0H.2709961Z"/>
<path id="font_2_20" d="M.32598878 .45022584V.49023438H.19699097V.6162262H.16799927L.10699463 .49023438H.0309906V.45022584H.102996829V.102264408C.102996829 .0002746582 .1789856-.01171875 .21398926-.01171875 .2649994-.01171875 .31298829 .014266968 .34199525 .03227234L.33399964 .053268434C.30999757 .043273927 .28799439 .040267946 .2630005 .040267946 .22898865 .040267946 .19699097 .06427002 .19699097 .14025879V.45022584H.32598878Z"/>
<path id="font_2_14" d="M.5169983 .34295655C.5169983 .4439392 .46199037 .5019531 .36898805 .5019531 .29599 .5019531 .25099183 .46794129 .18798828 .4259491V.73617556L.18099976 .7421875 .024993897 .7171478V.6921234L.06298828 .68711856C.08898926 .6831207 .09498596 .67811587 .09498596 .6420746V.08699036C.09599304 .037994386 .09098816 .033996583 .020996094 .0289917V0H.2639923V.0289917C.19499207 .033996583 .18899536 .037994386 .18899536 .08699036V.32095338C.18899536 .34596253 .18998719 .35995484 .19799805 .37495423 .21899414 .4149475 .2649994 .44795228 .31799317 .44795228 .38598634 .44795228 .4229889 .40994264 .4229889 .32295228V.08699036C.4229889 .037994386 .41799928 .033996583 .34799195 .0289917V0H.59199526V.0289917C.522995 .033996583 .5169983 .037994386 .5169983 .08699036V.34295655Z"/>
<path id="font_2_16" d="M.28799439 .5019531C.12799073 .5019531 .04899597 .40698243 .04899597 .24510193 .04899597 .083236698 .12799073-.01171875 .28799439-.01171875 .44999696-.01171875 .5279999 .083236698 .5279999 .24510193 .5279999 .40698243 .44999696 .5019531 .28799439 .5019531M.15299988 .24510193C.15299988 .38301087 .19699097 .46694947 .28799439 .46694947 .3809967 .46694947 .42399598 .38301087 .42399598 .24510193 .42399598 .10720825 .3809967 .023269654 .28799439 .023269654 .19699097 .023269654 .15299988 .10720825 .15299988 .24510193Z"/>
<path id="font_2_12" d="M.58299258 0V.0289917C.5119934 .033996583 .5079956 .035995485 .5079956 .08699036V.73617556L.5009918 .7421875 .34399415 .7171478V.6921234L.38198854 .6881256C.4079895 .6851196 .4139862 .68011477 .4139862 .6420746V.47795106C.38598634 .49295045 .34899903 .5019531 .30299378 .5019531 .22099304 .5019531 .1599884 .47595216 .117996219 .43295289 .07499695 .3879547 .04899597 .32196046 .04899597 .2349701 .04899597 .0872345 .12599182-.01171875 .2579956-.01171875 .31199647-.01171875 .35899354 .012268066 .41299439 .056259157V.0069885256L.42099 0H.58299258M.4139862 .16998291C.4139862 .14819336 .41299439 .13121033 .40699769 .114212039 .3869934 .06225586 .34298707 .042266847 .29100038 .042266847 .19898987 .042266847 .15299988 .13220215 .15299988 .24711609 .15299988 .37701417 .19999695 .46694947 .3019867 .46694947 .34899903 .46694947 .3869934 .44496156 .40499879 .4039917 .41299439 .38700868 .4139862 .37301637 .4139862 .34603883V.16998291Z"/>
<path id="font_2_11" d="M.05999756 .045333864C.10398865 .004348755 .18699646-.0146484379 .25698854-.0146484379 .43399049-.0146484379 .5039978 .08631897 .5039978 .18826294 .5039978 .30619813 .42399598 .36218263 .30699159 .40515138L.2749939 .41714479C.20799256 .44213868 .1519928 .48512269 .1519928 .5450897 .1519928 .61805728 .19599915 .6720276 .27999879 .6720276 .3659973 .6720276 .4139862 .6230469 .42999269 .5220947H.46099855V.6630249C.4269867 .6900177 .35899354 .70703127 .29100038 .70703127 .16899109 .70703127 .06098938 .64604189 .06098938 .5140991 .06098938 .40914918 .14498902 .354187 .25 .3171997L.2679901 .31019593C.31199647 .2932129 .40699769 .24723816 .40699769 .15827942 .40699769 .0723114 .35198976 .020339966 .2630005 .020339966 .16899109 .020339966 .10699463 .093307498 .08198547 .20524597H.049987794L.05999756 .045333864Z"/>
<path id="font_2_17" d="M.19400025 .32104493C.19400025 .34602357 .19799805 .36001588 .20698548 .37800599 .22999573 .42396546 .272995 .44795228 .32598878 .44795228 .3659973 .44795228 .45498658 .42196656 .45498658 .25009156 .45498658 .10321045 .40899659 .023269654 .30899049 .023269654 .25698854 .023269654 .21699524 .050247194 .20098877 .096221927 .19499207 .11419678 .19400025 .13418579 .19400025 .15716553V.32104493M.02999878 .47694398V.45195008L.067993167 .4469452C.09399414 .4429474 .099990848 .43795777 .099990848 .40197755V-.14324951C.099990848-.19444275 .09498596-.19645691 .024993897-.20147705V-.23046875H.28399659V-.20147705C.19999695-.19645691 .19400025-.19444275 .19400025-.14324951V.011276245C.21499634-.0007324219 .2619934-.01171875 .30799867-.01171875 .44299317-.01171875 .5589905 .050247194 .5589905 .25608827 .5589905 .32704164 .54599 .5019531 .3639984 .5019531 .29100038 .5019531 .23298645 .4529419 .19400025 .42796327L.18099976 .5019531 .02999878 .47694398Z"/>
</defs>
<path transform="matrix(1.00002,0,0,-1.00005,-363.0739,73.124057)" stroke-width=".3985" stroke-linecap="butt" stroke-miterlimit="10" stroke-linejoin="miter" fill="none" stroke="#cbcbcb" d="M395.2309 0V53.75998M436.83418 0V53.75998M478.4374 0V53.75998"/>
<path transform="matrix(1.00002,0,0,-1.00005,-363.0739,73.124057)" stroke-width=".3985" stroke-linecap="butt" stroke-miterlimit="10" stroke-linejoin="miter" fill="none" stroke="#cbcbcb" d="M374.4293 0V53.75998M457.6358 0V53.75998M499.23905 0V53.75998"/>
<path transform="matrix(1.00002,0,0,-1.00005,-363.0739,73.124057)" stroke-width=".3985" stroke-linecap="butt" stroke-miterlimit="10" stroke-linejoin="miter" fill="none" stroke="#cbcbcb" d="M366.10865 11.65878H499.23905M366.10865 24.61299H499.23905M366.10865 37.56721H499.23905M366.10865 50.52142H499.23905"/>
<path transform="matrix(1.00002,0,0,-1.00005,-363.0739,73.124057)" stroke-width=".3985" stroke-linecap="butt" stroke-miterlimit="10" stroke-linejoin="miter" fill="none" stroke="#cbcbcb" d="M366.10865 5.18167H499.23905M366.10865 18.1359H499.23905M366.10865 31.0901H499.23905"/>
<path transform="matrix(1.00002,0,0,-1.00005,-363.0739,73.124057)" stroke-width=".79701" stroke-linecap="butt" stroke-miterlimit="10" stroke-linejoin="miter" fill="none" stroke="#929292" d="M395.2309 42.62683V45.46179M436.83418 42.62683V45.46179M478.4374 42.62683V45.46179"/>
<path transform="matrix(1.00002,0,0,-1.00005,-363.0739,73.124057)" stroke-width=".79701" stroke-linecap="butt" stroke-miterlimit="10" stroke-linejoin="miter" fill="none" stroke="#929292" d="M374.4293 41.91829V46.17033M457.6358 41.91829V46.17033M499.23905 41.91829V46.17033"/>
<path transform="matrix(1.00002,0,0,-1.00005,-363.0739,73.124057)" stroke-width=".79701" stroke-linecap="butt" stroke-miterlimit="10" stroke-linejoin="miter" fill="none" stroke="#929292" d="M414.61515 11.65878H417.44996M414.61515 24.61299H417.44996M414.61515 37.56721H417.44996M414.61515 50.52142H417.44996"/>
<path transform="matrix(1.00002,0,0,-1.00005,-363.0739,73.124057)" stroke-width=".79701" stroke-linecap="butt" stroke-miterlimit="10" stroke-linejoin="miter" fill="none" stroke="#929292" d="M413.90663 5.18167H418.15843M413.90663 18.1359H418.15843M413.90663 31.0901H418.15843"/>
<path transform="matrix(1.00002,0,0,-1.00005,-363.0739,73.124057)" stroke-width=".99628" stroke-linecap="butt" stroke-miterlimit="10" stroke-linejoin="miter" fill="none" stroke="#000000" d="M366.10865 44.04433H496.34986"/>
<path transform="matrix(1.00002,0,0,-1.00005,133.28589,29.077523)" d="M2.8892 0-1.73352 2.31136 0 0-1.73352-2.31136"/>
<path transform="matrix(1.00002,0,0,-1.00005,-363.0739,73.124057)" stroke-width=".99628" stroke-linecap="butt" stroke-miterlimit="10" stroke-linejoin="miter" fill="none" stroke="#000000" d="M416.03254 0V50.87077"/>
<path transform="matrix(0,-1.00005,-1.00002,-0,52.96695,22.250744)" d="M2.8892 0-1.73352 2.31136 0 0-1.73352-2.31136"/>
<use data-text="&#x2212;" xlink:href="#font_1_1" transform="matrix(10.036601,0,0,-10.036901,1.0973816,41.622484)"/>
<use data-text="0" xlink:href="#font_2_3" transform="matrix(10.036601,0,0,-10.036901,8.319519,41.622484)"/>
<use data-text="." xlink:href="#font_2_2" transform="matrix(10.036601,0,0,-10.036901,13.638947,41.622484)"/>
<use data-text="5" xlink:href="#font_2_7" transform="matrix(10.036601,0,0,-10.036901,16.298615,41.622484)"/>
<use data-text="0" xlink:href="#font_2_3" transform="matrix(10.036601,0,0,-10.036901,87.91611,41.622484)"/>
<use data-text="." xlink:href="#font_2_2" transform="matrix(10.036601,0,0,-10.036901,93.235538,41.622484)"/>
<use data-text="5" xlink:href="#font_2_7" transform="matrix(10.036601,0,0,-10.036901,95.89523,41.622484)"/>
<use data-text="1" xlink:href="#font_2_4" transform="matrix(10.036601,0,0,-10.036901,133.51303,41.622484)"/>
<use data-text="&#x2212;" xlink:href="#font_1_1" transform="matrix(10.036601,0,0,-10.036901,34.597047,71.27496)"/>
<use data-text="6" xlink:href="#font_2_8" transform="matrix(10.036601,0,0,-10.036901,41.819185,71.27496)"/>
<use data-text="&#x2212;" xlink:href="#font_1_1" transform="matrix(10.036601,0,0,-10.036901,34.597047,58.347318)"/>
<use data-text="4" xlink:href="#font_2_6" transform="matrix(10.036601,0,0,-10.036901,41.819185,58.347318)"/>
<use data-text="&#x2212;" xlink:href="#font_1_1" transform="matrix(10.036601,0,0,-10.036901,34.597047,45.39267)"/>
<use data-text="2" xlink:href="#font_2_5" transform="matrix(10.036601,0,0,-10.036901,41.819185,45.39267)"/>
<g clip-path="url(#clip_3)">
<path transform="matrix(1.00002,0,0,-1.00005,-363.0739,73.124057)" stroke-width=".99628" stroke-linecap="butt" stroke-miterlimit="10" stroke-linejoin="miter" fill="none" stroke="#0000ff" d="M416.03254 31.0901 457.6358 24.61299"/>
<path transform="matrix(1.00002,0,0,-1.00005,-363.0739,73.124057)" stroke-width=".99628" stroke-linecap="butt" stroke-miterlimit="10" stroke-linejoin="miter" fill="none" stroke="#0000ff" d=""/>
<path transform="matrix(1.00002,0,0,-1.00005,-363.0739,73.124057)" stroke-width=".99628" stroke-linecap="butt" stroke-miterlimit="10" stroke-linejoin="miter" fill="none" stroke="#0000ff" d="M0 205.972 80.92674 142.97559"/>
<path transform="matrix(.7890758,.6142707,.61425229,-.7890994,-282.14558,-69.85869)" d="M2.8892 0-1.73352 2.31136 0 0-1.73352-2.31136" fill="#0000ff"/>
<path transform="matrix(1.00002,0,0,-1.00005,-363.0739,73.124057)" stroke-width=".99628" stroke-linecap="butt" stroke-miterlimit="10" stroke-linejoin="miter" fill="none" stroke="#0000ff" d="M832.06509 205.972 912.9918 268.9684"/>
<path transform="matrix(.7890758,-.6142707,-.61425229,-.7890994,549.9362,-195.85776)" d="M2.8892 0-1.73352 2.31136 0 0-1.73352-2.31136" fill="#0000ff"/>
<path transform="matrix(1.00002,0,0,-1.00005,-363.0739,73.124057)" stroke-width=".99628" stroke-linecap="butt" stroke-miterlimit="10" stroke-linejoin="miter" fill="none" stroke="#0000ff" d=""/>
</g>
<path transform="matrix(1.00002,0,0,-1.00005,-363.0739,73.124057)" d="M418.0251 31.0901C418.0251 32.19058 417.133 33.08266 416.03254 33.08266 414.93208 33.08266 414.03999 32.19058 414.03999 31.0901 414.03999 29.98964 414.93208 29.09755 416.03254 29.09755 417.133 29.09755 418.0251 29.98964 418.0251 31.0901ZM416.03254 31.0901" fill="#0000cc"/>
<path transform="matrix(1.00002,0,0,-1.00005,-363.0739,73.124057)" stroke-width=".99628" stroke-linecap="butt" stroke-miterlimit="10" stroke-linejoin="miter" fill="none" stroke="#0000ff" d="M418.0251 31.0901C418.0251 32.19058 417.133 33.08266 416.03254 33.08266 414.93208 33.08266 414.03999 32.19058 414.03999 31.0901 414.03999 29.98964 414.93208 29.09755 416.03254 29.09755 417.133 29.09755 418.0251 29.98964 418.0251 31.0901ZM416.03254 31.0901"/>
<path transform="matrix(1.00002,0,0,-1.00005,-363.0739,73.124057)" stroke-width=".99628" stroke-linecap="butt" stroke-miterlimit="10" stroke-linejoin="miter" fill="none" stroke="#0000ff" d=""/>
<use data-text="t" xlink:href="#font_4_1" transform="matrix(10.036601,0,0,-10.036901,127.98294,25.292668)"/>
<use data-text="y" xlink:href="#font_4_2" transform="matrix(10.036601,0,0,-10.036901,57.21051,28.0238)"/>
<use data-text="E" xlink:href="#font_2_9" transform="matrix(9.165783,0,0,-9.166058,25.113862,7.632782)"/>
<use data-text="u" xlink:href="#font_2_21" transform="matrix(9.165783,0,0,-9.166058,30.567505,7.632782)"/>
<use data-text="l" xlink:href="#font_2_15" transform="matrix(9.165783,0,0,-9.166058,36.12198,7.632782)"/>
<use data-text="e" xlink:href="#font_2_13" transform="matrix(9.165783,0,0,-9.166058,38.6792,7.632782)"/>
<use data-text="r" xlink:href="#font_2_18" transform="matrix(9.165783,0,0,-9.166058,43.39041,7.632782)"/>
<use data-text="&#x2019;" xlink:href="#font_2_1" transform="matrix(9.165783,0,0,-9.166058,46.790956,7.632782)"/>
<use data-text="s" xlink:href="#font_2_19" transform="matrix(9.165783,0,0,-9.166058,48.33081,7.632782)"/>
<use data-text="M" xlink:href="#font_2_10" transform="matrix(9.165783,0,0,-9.166058,54.38025,7.632782)"/>
<use data-text="e" xlink:href="#font_2_13" transform="matrix(9.165783,0,0,-9.166058,62.757768,7.632782)"/>
<use data-text="t" xlink:href="#font_2_20" transform="matrix(9.165783,0,0,-9.166058,67.46898,7.632782)"/>
<use data-text="h" xlink:href="#font_2_14" transform="matrix(9.165783,0,0,-9.166058,70.622028,7.632782)"/>
<use data-text="o" xlink:href="#font_2_16" transform="matrix(9.165783,0,0,-9.166058,76.17648,7.632782)"/>
<use data-text="d" xlink:href="#font_2_12" transform="matrix(9.165783,0,0,-9.166058,81.46513,7.632782)"/>
<use data-text="S" xlink:href="#font_2_11" transform="matrix(9.165783,0,0,-9.166058,88.99942,7.632782)"/>
<use data-text="t" xlink:href="#font_2_20" transform="matrix(9.165783,0,0,-9.166058,93.756458,7.632782)"/>
<use data-text="e" xlink:href="#font_2_13" transform="matrix(9.165783,0,0,-9.166058,96.900318,7.632782)"/>
<use data-text="p" xlink:href="#font_2_17" transform="matrix(9.165783,0,0,-9.166058,101.61153,7.632782)"/>
<use data-text="1" xlink:href="#font_2_4" transform="matrix(9.165783,0,0,-9.166058,109.23747,7.632782)"/>
</svg>
