<svg xmlns="http://www.w3.org/2000/svg" xmlns:xlink="http://www.w3.org/1999/xlink" version="1.1" width="116" height="50" viewBox="0 0 116 50">
<defs>
<path id="font_1_2" d="M.42799378 .45222474 .43899537 .49023438H.31199647L.34599305 .6092224 .33399964 .6162262 .23699951 .53923037 .22399903 .49023438H.14299011L.13198853 .45222474H.21499634L.125 .08627319C.10998535 .029266358 .12199402-.01171875 .17199707-.01171875 .2519989-.01171875 .31599427 .054275514 .35598756 .1292572L.33399964 .1462555C.31098939 .10726929 .2599945 .040267946 .22898865 .040267946 .20799256 .040267946 .20799256 .0632782 .21398926 .088272098L.30299378 .45222474H.42799378Z"/>
<path id="font_2_1" d="M.07398987 .2861328V.21612549H.31900025V.2861328H.07398987Z"/>
<path id="font_2_4" d="M.2999878 .17871094V.0769043C.2999878 .04296875 .2889862 .036987306 .2649994 .034988405L.20098877 .0289917V0H.46499635V.0289917L.41999818 .033981325C.39698792 .036987306 .3899994 .04296875 .3899994 .0769043V.17871094H.49299623V.22570801H.3899994V.66796877H.31698609C.22299195 .5298767 .11099243 .35577394 .018997193 .19970703L.027999878 .17871094H.2999878M.09098816 .22570801C.15098572 .33476258 .22099304 .4498291 .2979889 .5709076H.2999878V.22570801H.09098816Z"/>
<path id="font_2_3" d="M.4850006 .13195801 .45700074 .13696289C.43598939 .08299255 .41600038 .07598877 .37599183 .07598877H.11999512C.13598633 .1279602 .19499207 .19892884 .28799439 .2658844 .38398744 .33584596 .45799256 .38082887 .45799256 .49276734 .45799256 .63168337 .3659973 .6796875 .26098634 .6796875 .12399292 .6796875 .052993776 .5967102 .052993776 .54473879 .052993776 .51075747 .09098816 .49476625 .10798645 .49476625 .12599182 .49476625 .1329956 .50476077 .13699341 .5217438 .15299988 .5897064 .19198609 .64468386 .2539978 .64468386 .33099366 .64468386 .35299684 .5797119 .35299684 .50675967 .35299684 .3998108 .29899598 .33984376 .21199036 .26289369 .08898926 .15594483 .04598999 .08798218 .026992798 .009994507L.036987306 0H.45098878L.4850006 .13195801Z"/>
<path id="font_2_2" d="M.43699647 0V.0289917L.35299684 .035995485C.33198548 .037994386 .31999208 .04598999 .31999208 .08496094V.67367556L.31498719 .6796875 .10899353 .6446991V.6197052L.20199585 .6087036C.21899414 .6067047 .22599793 .5987091 .22599793 .56973269V.08496094C.22599793 .065979007 .22299195 .053985597 .21699524 .04698181 .21199036 .039993287 .20399475 .036987306 .19299317 .035995485L.10899353 .0289917V0H.43699647Z"/>
<path id="font_1_1" d="M.43499757 .15118408C.39898683 .10421753 .34498597 .03727722 .269989 .03727722 .19999695 .03727722 .1789856 .097229007 .1789856 .17616272 .1789856 .1811676 .1789856 .1851654 .17999268 .19215393 .34799195 .22613526 .42099 .26609803 .46398927 .30607606 .49899293 .3410492 .5059967 .37402345 .5059967 .4019928 .5059967 .45495606 .46398927 .5019531 .38198854 .5019531 .2919922 .5019531 .21798706 .45596314 .16299439 .3880005 .10998535 .32305909 .07998657 .23612976 .07998657 .15219116 .07998657 .012268066 .17098999-.01171875 .22898865-.01171875 .3019867-.01171875 .3899994 .02027893 .45799256 .13119507L.43499757 .15118408M.18199158 .22613526C.19898987 .3470459 .27398683 .46694947 .35398866 .46694947 .3889923 .46694947 .4119873 .44296266 .4119873 .4079895 .4119873 .3380432 .35099793 .26210023 .18199158 .22613526Z"/>
<path id="font_3_1" d="M.6349945 .2529297V.31092835H.084991458V.2529297H.6349945Z"/>
</defs>
<path transform="matrix(1,0,0,-1.00002,52.676004,31.872376)" d="M0-17.00781V30.61404H22.6771V-17.00781ZM22.6771 30.61404" fill="#bfdfbf"/>
<path transform="matrix(1,0,0,-1.00002,52.676004,31.872376)" stroke-width=".3985" stroke-linecap="butt" stroke-miterlimit="10" stroke-linejoin="miter" fill="none" stroke="#000000" d="M-51.02345 0H61.90375"/>
<path transform="matrix(1,0,0,-1.00002,114.57976,31.872376)" stroke-width=".31879" stroke-linecap="round" stroke-linejoin="round" fill="none" stroke="#000000" d="M-1.19551 1.59401C-1.09587 .99626 0 .09961 .29886 0 0-.09961-1.09587-.99626-1.19551-1.59401"/>
<path transform="matrix(1,0,0,-1.00002,52.676004,31.872376)" stroke-width=".3985" stroke-linecap="butt" stroke-miterlimit="10" stroke-linejoin="miter" fill="none" stroke="#000000" d="M0-17.00781V30.15576"/>
<path transform="matrix(0,-1.00002,-1,-0,52.676004,1.716011)" stroke-width=".31879" stroke-linecap="round" stroke-linejoin="round" fill="none" stroke="#000000" d="M-1.19551 1.59401C-1.09587 .99626 0 .09961 .29886 0 0-.09961-1.09587-.99626-1.19551-1.59401"/>
<use data-text="t" xlink:href="#font_1_2" transform="matrix(9.1656,0,0,-9.165783,110.817,40.920557)"/>
<path transform="matrix(1,0,0,-1.00002,52.676004,31.872376)" stroke-width=".79701" stroke-linecap="butt" stroke-miterlimit="10" stroke-linejoin="miter" fill="none" stroke="#929292" d="M-45.35419 2.26765V-2.26765"/>
<use data-text="-" xlink:href="#font_2_1" transform="matrix(9.1656,0,0,-9.165783,3.0930024,41.40857)"/>
<use data-text="4" xlink:href="#font_2_4" transform="matrix(9.1656,0,0,-9.165783,6.6859209,41.40857)"/>
<path transform="matrix(1,0,0,-1.00002,52.676004,31.872376)" stroke-width=".79701" stroke-linecap="butt" stroke-miterlimit="10" stroke-linejoin="miter" fill="none" stroke="#929292" d="M-22.6771 2.26765V-2.26765"/>
<use data-text="-" xlink:href="#font_2_1" transform="matrix(9.1656,0,0,-9.165783,25.770005,41.40857)"/>
<use data-text="2" xlink:href="#font_2_3" transform="matrix(9.1656,0,0,-9.165783,29.362923,41.40857)"/>
<path transform="matrix(1,0,0,-1.00002,52.676004,31.872376)" stroke-width=".79701" stroke-linecap="butt" stroke-miterlimit="10" stroke-linejoin="miter" fill="none" stroke="#929292" d="M22.6771 2.26765V-2.26765"/>
<use data-text="2" xlink:href="#font_2_3" transform="matrix(9.1656,0,0,-9.165783,72.922008,41.40857)"/>
<path transform="matrix(1,0,0,-1.00002,52.676004,31.872376)" stroke-width=".79701" stroke-linecap="butt" stroke-miterlimit="10" stroke-linejoin="miter" fill="none" stroke="#929292" d="M45.35419 2.26765V-2.26765"/>
<use data-text="4" xlink:href="#font_2_4" transform="matrix(9.1656,0,0,-9.165783,95.599,41.40857)"/>
<path transform="matrix(1,0,0,-1.00002,52.676004,31.872376)" stroke-width=".3985" stroke-linecap="butt" stroke-miterlimit="10" stroke-linejoin="miter" fill="none" stroke="#929292" d="M1.13391-11.33855H-1.13391"/>
<use data-text="-" xlink:href="#font_2_1" transform="matrix(7.3325,0,0,-7.332647,43.644006,45.66565)"/>
<use data-text="1" xlink:href="#font_2_2" transform="matrix(7.3325,0,0,-7.332647,46.51834,45.66565)"/>
<path transform="matrix(1,0,0,-1.00002,52.676004,31.872376)" stroke-width=".3985" stroke-linecap="butt" stroke-miterlimit="10" stroke-linejoin="miter" fill="none" stroke="#929292" d="M1.13391 11.33855H-1.13391"/>
<use data-text="1" xlink:href="#font_2_2" transform="matrix(7.3325,0,0,-7.332647,46.522005,22.988198)"/>
<path transform="matrix(1,0,0,-1.00002,52.676004,31.872376)" stroke-width=".3985" stroke-linecap="butt" stroke-miterlimit="10" stroke-linejoin="miter" fill="none" stroke="#929292" d="M1.13391 22.6771H-1.13391"/>
<use data-text="2" xlink:href="#font_2_3" transform="matrix(7.3325,0,0,-7.332647,46.522005,11.649971)"/>
<path transform="matrix(1,0,0,-1.00002,52.676004,31.872376)" stroke-width="1.19553" stroke-linecap="butt" stroke-miterlimit="10" stroke-linejoin="miter" fill="none" stroke="#000000" d="M-50.06703 0H-50.5174-50.01134-49.50528-48.99922-48.49315-47.98709-47.48103-46.97498-46.46892-45.96284-45.45679-44.95073-44.44464-43.93858-43.43253-42.92647-42.42041-41.91435-41.4083-40.90222-40.39616-39.8901-39.38405-38.87798-38.37192-37.86586-37.3598-36.85374-36.34767-35.8416-35.33554-34.82948-34.32343-33.81737-33.3113-32.80524-32.29918-31.79312-31.28705-30.78099-30.27493-29.76888-29.26282-28.75674-28.25069-27.74463-27.23856-26.7325-26.22644-25.72037-25.21431-24.70825-24.20218-23.69612-23.19006-22.684-22.17795-21.67189-21.16582-20.65976-20.1537-19.64764-19.14157-18.6355-18.12944-17.62338-17.11732-16.61125-16.1052-15.59914-15.09308-14.58702-14.08096-13.57489-13.06883-12.56277-12.05672-11.55066-11.04459-10.53851-10.03246-9.5264-9.02032-8.51427-8.00821-7.50215-6.9961-6.49004-5.98396-5.4779-4.97185-4.46579-3.95972-3.45366-2.9476-2.44154-1.93547-1.4294-.92334"/>
<path transform="matrix(-1,-0,0,1.00002,2.6089707,31.872376)" stroke-width=".9564" stroke-linecap="round" stroke-linejoin="round" fill="none" stroke="#000000" d="M-1.91284 2.55046C-1.75343 1.59402 0 .15938 .4782 0 0-.15938-1.75343-1.59402-1.91284-2.55046"/>
<path transform="matrix(1,0,0,-1.00002,52.676004,31.872376)" stroke-width="1.19553" stroke-linecap="butt" stroke-miterlimit="10" stroke-linejoin="miter" fill="none" stroke="#409f40" d="M0 22.6771 .21745 22.25148 .43494 21.82726 .65242 21.41444 .86989 21.00613 1.08736 20.60683 1.30484 20.21684 1.52232 19.83138 1.73979 19.45456 1.95728 19.08499 2.17474 18.72444 2.39223 18.36803 2.6097 18.01889 2.82718 17.67632 3.04466 17.34068 3.26215 17.01196 3.4796 16.6874 3.69708 16.36974 3.91457 16.059 4.13205 15.7552 4.34952 15.45589 4.567 15.16072 4.78447 14.87283 5.00194 14.59152 5.21942 14.3147 5.4369 14.04271 5.65439 13.7749 5.87184 13.51399 6.08932 13.25792 6.30681 13.00603 6.52429 12.75862 6.74176 12.51605 6.95924 12.27798 7.17671 12.04443 7.3942 11.815 7.61166 11.59079 7.82915 11.37071 8.04663 11.15514 8.2641 10.94406 8.48157 10.73541 8.69905 10.53125 8.91653 10.3316 9.134 10.13435 9.35149 9.94164 9.56895 9.75339 9.78644 9.56721 10.0039 9.38591 10.22139 9.20909 10.43887 9.03192 10.65634 8.86203 10.87381 8.69421 11.0913 8.52847 11.30878 8.36514 11.52626 8.20631 11.74373 8.05197 11.9612 7.898 12.17868 7.74818 12.39616 7.60077 12.61363 7.45544 12.83112 7.31496 13.04858 7.17654 13.26607 7.04054 13.48354 6.90665 13.70102 6.77515 13.9185 6.64574 14.13597 6.51875 14.35344 6.39626 14.57092 6.27376 14.7884 6.15369 15.00587 6.03778 15.22336 5.9222 15.44084 5.81113 15.65833 5.70004 15.87578 5.59105 16.09326 5.48656 16.31075 5.3824 16.52823 5.27791 16.74568 5.17824 16.96317 5.08067 17.18065 4.98308 17.39812 4.89001 17.6156 4.79727 17.83308 4.7042 18.05057 4.61562 18.26802 4.52737 18.4855 4.44087 18.70299 4.35712 18.92047 4.27547 19.13792 4.1938 19.35541 4.11458 19.57289 4.03497 19.79037 3.95781 20.00784 3.88307 20.22533 3.81041 20.44281 3.73775 20.66028 3.6675 20.87775 3.59724 21.09523 3.5291 21.31271 3.46127 21.53018 3.39552"/>
<path transform="matrix(1,0,0,-1.00002,52.676004,31.872376)" stroke-width="1.19553" stroke-linecap="butt" stroke-miterlimit="10" stroke-linejoin="miter" fill="none" stroke="#000000" d="M22.6771 0H23.07777 23.47847 23.87917 24.27988 24.68057 25.08127 25.48196 25.88268 26.28336 26.68405 27.08475 27.48544 27.88615 28.28685 28.68755 29.08823 29.48894 29.88962 30.29033 30.69102 31.09172 31.49243 31.89311 32.29381 32.6945 33.0952 33.4959 33.8966 34.2973 34.698 35.0987 35.49939 35.90009 36.30078 36.70148 37.10217 37.50288 37.90356 38.30426 38.70497 39.10567 39.50636 39.90706 40.30775 40.70845 41.10915 41.50984 41.91054 42.31125 42.71194 43.11264 43.51334 43.91402 44.31471 44.71542 45.11612 45.51682 45.91753 46.31822 46.7189 47.1196 47.5203 47.92099 48.3217 48.7224 49.1231 49.5238 49.92448 50.32518 50.72588 51.12657 51.52727 51.92798 52.32867 52.72935 53.13007 53.53076 53.93146 54.33215 54.73285 55.13354 55.53426 55.93494 56.33563 56.73634 57.13704 57.53773 57.93843 58.33913 58.7398 59.14052 59.54121 59.94191 60.34262 60.74332 61.14401 61.5447 61.94539 61.38966"/>
<path transform="matrix(1,0,0,-1.00002,114.06566,31.872376)" stroke-width=".9564" stroke-linecap="round" stroke-linejoin="round" fill="none" stroke="#000000" d="M-1.91284 2.55046C-1.75343 1.59402 0 .15938 .4782 0 0-.15938-1.75343-1.59402-1.91284-2.55046"/>
<path transform="matrix(1,0,0,-1.00002,52.676004,31.872376)" d="M1.99252 22.6771C1.99252 23.77753 1.10043 24.66962 0 24.66962-1.10043 24.66962-1.99252 23.77753-1.99252 22.6771-1.99252 21.57664-1.10043 20.68457 0 20.68457 1.10043 20.68457 1.99252 21.57664 1.99252 22.6771ZM0 22.6771" fill="#409f40"/>
<path transform="matrix(1,0,0,-1.00002,52.676004,31.872376)" stroke-width=".79701" stroke-linecap="butt" stroke-miterlimit="10" stroke-linejoin="miter" fill="none" stroke="#000000" d="M1.59401 0C1.59401 .88036 .88036 1.59401 0 1.59401-.88036 1.59401-1.59401 .88036-1.59401 0-1.59401-.88036-.88036-1.59401 0-1.59401 .88036-1.59401 1.59401-.88036 1.59401 0ZM0 0"/>
<path transform="matrix(1,0,0,-1.00002,52.676004,31.872376)" stroke-width=".79701" stroke-linecap="butt" stroke-miterlimit="10" stroke-linejoin="miter" fill="none" stroke="#409f40" d="M24.2711 3.06888C24.2711 3.94923 23.55745 4.66289 22.6771 4.66289 21.79672 4.66289 21.08307 3.94923 21.08307 3.06888 21.08307 2.18852 21.79672 1.47485 22.6771 1.47485 23.55745 1.47485 24.2711 2.18852 24.2711 3.06888ZM22.6771 3.06888"/>
<path transform="matrix(1,0,0,-1.00002,52.676004,31.872376)" d="M24.2711 0C24.2711 .88036 23.55745 1.59401 22.6771 1.59401 21.79672 1.59401 21.08307 .88036 21.08307 0 21.08307-.88036 21.79672-1.59401 22.6771-1.59401 23.55745-1.59401 24.2711-.88036 24.2711 0ZM22.6771 0"/>
<use data-text="2" xlink:href="#font_2_3" transform="matrix(9.1656,0,0,-9.165783,55.916006,9.7079319)" fill="#008000"/>
<use data-text="e" xlink:href="#font_1_1" transform="matrix(9.1656,0,0,-9.165783,60.777006,9.7079319)" fill="#008000"/>
<use data-text="&#x2212;" xlink:href="#font_3_1" transform="matrix(6.9659,0,0,-6.9660398,65.599018,6.091859)" fill="#008000"/>
<use data-text="t" xlink:href="#font_1_2" transform="matrix(6.9659,0,0,-6.9660398,70.763019,6.091859)" fill="#008000"/>
</svg>
