<svg xmlns="http://www.w3.org/2000/svg" xmlns:xlink="http://www.w3.org/1999/xlink" version="1.1" width="117" height="49" viewBox="0 0 117 49">
<defs>
<path id="font_1_1" d="M.42799378 .45222474 .43899537 .49023438H.31199647L.34599305 .6092224 .33399964 .6162262 .23699951 .53923037 .22399903 .49023438H.14299011L.13198853 .45222474H.21499634L.125 .08627319C.10998535 .029266358 .12199402-.01171875 .17199707-.01171875 .2519989-.01171875 .31599427 .054275514 .35598756 .1292572L.33399964 .1462555C.31098939 .10726929 .2599945 .040267946 .22898865 .040267946 .20799256 .040267946 .20799256 .0632782 .21398926 .088272098L.30299378 .45222474H.42799378Z"/>
<path id="font_2_1" d="M.07398987 .2861328V.21612549H.31900025V.2861328H.07398987Z"/>
<path id="font_2_4" d="M.12998963 .3657837C.12998963 .3487854 .1349945 .33779908 .147995 .33779908 .1599884 .33779908 .18699646 .34777833 .23498535 .34777833 .31999208 .34777833 .36799623 .27090455 .36799623 .18403626 .36799623 .065216068 .30899049 .023269654 .23799134 .023269654 .17199707 .023269654 .1289978 .07319641 .10998535 .12911988 .10398865 .14808655 .09399414 .15707398 .07998657 .15707398 .06199646 .15707398 .026992798 .13809204 .026992798 .10215759 .026992798 .05921936 .09599304-.01171875 .23699951-.01171875 .38198854-.01171875 .47299195 .06121826 .47299195 .18902588 .47299195 .32281495 .35798646 .3627777 .30299378 .3677826V.3717804C.35699464 .38078309 .44400025 .4207611 .44400025 .5197296 .44400025 .6306915 .35699464 .6796875 .25 .6796875 .117996219 .6796875 .052993776 .60369876 .052993776 .5607147 .052993776 .5297241 .08799744 .51272585 .101989749 .51272585 .114990238 .51272585 .12298584 .5197296 .1269989 .5327301 .14898682 .60069277 .18699646 .64468386 .24299622 .64468386 .32199098 .64468386 .34098817 .57470706 .34098817 .51872256 .34098817 .4587555 .31999208 .38378907 .23498535 .38378907 .18699646 .38378907 .1599884 .39378358 .147995 .39378358 .1349945 .39378358 .12998963 .38378907 .12998963 .3657837Z"/>
<path id="font_2_3" d="M.4850006 .13195801 .45700074 .13696289C.43598939 .08299255 .41600038 .07598877 .37599183 .07598877H.11999512C.13598633 .1279602 .19499207 .19892884 .28799439 .2658844 .38398744 .33584596 .45799256 .38082887 .45799256 .49276734 .45799256 .63168337 .3659973 .6796875 .26098634 .6796875 .12399292 .6796875 .052993776 .5967102 .052993776 .54473879 .052993776 .51075747 .09098816 .49476625 .10798645 .49476625 .12599182 .49476625 .1329956 .50476077 .13699341 .5217438 .15299988 .5897064 .19198609 .64468386 .2539978 .64468386 .33099366 .64468386 .35299684 .5797119 .35299684 .50675967 .35299684 .3998108 .29899598 .33984376 .21199036 .26289369 .08898926 .15594483 .04598999 .08798218 .026992798 .009994507L.036987306 0H.45098878L.4850006 .13195801Z"/>
<path id="font_2_2" d="M.43699647 0V.0289917L.35299684 .035995485C.33198548 .037994386 .31999208 .04598999 .31999208 .08496094V.67367556L.31498719 .6796875 .10899353 .6446991V.6197052L.20199585 .6087036C.21899414 .6067047 .22599793 .5987091 .22599793 .56973269V.08496094C.22599793 .065979007 .22299195 .053985597 .21699524 .04698181 .21199036 .039993287 .20399475 .036987306 .19299317 .035995485L.10899353 .0289917V0H.43699647Z"/>
</defs>
<path transform="matrix(1.00003,0,0,-1.00003,57.985727,24.476254)" d="M-56.69275-22.6771V22.6771H0V-22.6771ZM0 22.6771" fill="#d9d9ec"/>
<path transform="matrix(1.00003,0,0,-1.00003,57.985727,24.476254)" d="M0-22.6771V22.6771H22.6771V-22.6771ZM22.6771 22.6771" fill="#d9ecd9"/>
<path transform="matrix(1.00003,0,0,-1.00003,57.985727,24.476254)" d="M22.6771-22.6771V22.6771H56.69275V-22.6771ZM56.69275 22.6771" fill="#ecd9d9"/>
<path transform="matrix(1.00003,0,0,-1.00003,57.985727,24.476254)" stroke-width=".3985" stroke-linecap="butt" stroke-miterlimit="10" stroke-linejoin="miter" fill="none" stroke="#000000" d="M-56.69275 0H56.23447"/>
<path transform="matrix(1.00003,0,0,-1.00003,114.221889,24.476254)" stroke-width=".31879" stroke-linecap="round" stroke-linejoin="round" fill="none" stroke="#000000" d="M-1.19551 1.59401C-1.09587 .99626 0 .09961 .29886 0 0-.09961-1.09587-.99626-1.19551-1.59401"/>
<path transform="matrix(1.00003,0,0,-1.00003,57.985727,24.476254)" stroke-width=".3985" stroke-linecap="butt" stroke-miterlimit="10" stroke-linejoin="miter" fill="none" stroke="#000000" d="M0-22.6771V22.21881"/>
<path transform="matrix(0,-1.00003,-1.00003,-0,57.985727,2.2567769)" stroke-width=".31879" stroke-linecap="round" stroke-linejoin="round" fill="none" stroke="#000000" d="M-1.19551 1.59401C-1.09587 .99626 0 .09961 .29886 0 0-.09961-1.09587-.99626-1.19551-1.59401"/>
<use data-text="t" xlink:href="#font_1_1" transform="matrix(7.3327205,0,0,-7.3327205,111.98335,32.394495)"/>
<path transform="matrix(1.00003,0,0,-1.00003,57.985727,24.476254)" stroke-width=".3985" stroke-linecap="butt" stroke-miterlimit="10" stroke-linejoin="miter" fill="none" stroke="#929292" d="M-34.01564 1.13391V-1.13391"/>
<use data-text="-" xlink:href="#font_2_1" transform="matrix(7.3327205,0,0,-7.3327205,20.585602,33.692529)"/>
<use data-text="3" xlink:href="#font_2_4" transform="matrix(7.3327205,0,0,-7.3327205,23.46003,33.692529)"/>
<path transform="matrix(1.00003,0,0,-1.00003,57.985727,24.476254)" stroke-width=".3985" stroke-linecap="butt" stroke-miterlimit="10" stroke-linejoin="miter" fill="none" stroke="#929292" d="M-22.6771 1.13391V-1.13391"/>
<use data-text="-" xlink:href="#font_2_1" transform="matrix(7.3327205,0,0,-7.3327205,31.924942,33.692529)"/>
<use data-text="2" xlink:href="#font_2_3" transform="matrix(7.3327205,0,0,-7.3327205,34.79937,33.692529)"/>
<path transform="matrix(1.00003,0,0,-1.00003,57.985727,24.476254)" stroke-width=".3985" stroke-linecap="butt" stroke-miterlimit="10" stroke-linejoin="miter" fill="none" stroke="#929292" d="M-11.33855 1.13391V-1.13391"/>
<use data-text="-" xlink:href="#font_2_1" transform="matrix(7.3327205,0,0,-7.3327205,43.263284,33.692529)"/>
<use data-text="1" xlink:href="#font_2_2" transform="matrix(7.3327205,0,0,-7.3327205,46.13771,33.692529)"/>
<path transform="matrix(1.00003,0,0,-1.00003,57.985727,24.476254)" stroke-width=".3985" stroke-linecap="butt" stroke-miterlimit="10" stroke-linejoin="miter" fill="none" stroke="#929292" d="M11.33855 1.13391V-1.13391"/>
<use data-text="1" xlink:href="#font_2_2" transform="matrix(7.3327205,0,0,-7.3327205,67.380008,33.692529)"/>
<path transform="matrix(1.00003,0,0,-1.00003,57.985727,24.476254)" stroke-width=".3985" stroke-linecap="butt" stroke-miterlimit="10" stroke-linejoin="miter" fill="none" stroke="#929292" d="M22.6771 1.13391V-1.13391"/>
<use data-text="2" xlink:href="#font_2_3" transform="matrix(7.3327205,0,0,-7.3327205,78.71835,33.692529)"/>
<path transform="matrix(1.00003,0,0,-1.00003,57.985727,24.476254)" stroke-width=".3985" stroke-linecap="butt" stroke-miterlimit="10" stroke-linejoin="miter" fill="none" stroke="#929292" d="M34.01564 1.13391V-1.13391"/>
<use data-text="3" xlink:href="#font_2_4" transform="matrix(7.3327205,0,0,-7.3327205,90.05769,33.692529)"/>
<path transform="matrix(1.00003,0,0,-1.00003,57.985727,24.476254)" stroke-width=".79701" stroke-linecap="butt" stroke-dasharray="2.98883,2.98883" stroke-miterlimit="10" stroke-linejoin="miter" fill="none" stroke="#8080bf" d="M-56.69275 10.8721-56.12698 11.01915-55.56123 11.1387-54.99547 11.23058-54.42973 11.29424-53.86398 11.3299-53.29823 11.33733-52.73248 11.31621-52.16673 11.26743-51.60098 11.19061-51.03522 11.08575-50.46947 10.95358-49.90372 10.79372-49.33797 10.60704-48.77223 10.39406-48.20647 10.15512-47.64072 9.89128-47.07497 9.60252-46.50922 9.29005-45.94347 8.95409-45.37772 8.59593-44.81198 8.21652-44.24622 7.81651-43.68047 7.39748-43.1147 6.9596-42.54897 6.50456-41.9832 6.03328-41.41747 5.54694-40.8517 5.0466-40.28595 4.53395-39.72021 4.01006-39.15445 3.47615-38.5887 2.93358-38.02295 2.38376-37.4572 1.82787-36.89145 1.26747-36.3257 .70396-35.75993 .13875-35.1942-.42664-34.62845-.99118-34.0627-1.55328-33.49695-2.11159-32.93118-2.66438-32.36545-3.21075-31.79968-3.74933-31.23393-4.27824-30.66818-4.79675-30.10243-5.303-29.5367-5.79642-28.97093-6.27498-28.40518-6.73813-27.83943-7.18468-27.27368-7.61305-26.70793-8.02292-26.14218-8.41237-25.57643-8.78107-25.01068-9.12778-24.44493-9.45183-23.87917-9.75235-23.31343-10.02866-22.74767-10.28021-22.18193-10.506-21.61617-10.70549-21.05042-10.87814-20.48468-11.024-19.91891-11.14252-19.35316-11.23334-18.78741-11.29597-18.22166-11.33092-17.65591-11.33716-17.09016-11.315-16.5244-11.26518-15.95866-11.18698-15.39291-11.08127-14.82716-10.94804-14.26141-10.78749-13.69565-10.59943-13.12991-10.38557-12.56415-10.14578-11.9984-9.88074-11.43266-9.59111-10.8669-9.27777-10.30116-8.9411-9.7354-8.58228-9.16965-8.202-8.60388-7.80112-8.03815-7.38123-7.47238-6.94281-6.90665-6.48709-6.3409-6.01546-5.77515-5.52843-5.2094-5.02773-4.64363-4.51457-4.0779-3.99016-3.51213-3.45609-2.9464-2.91316-2.38063-2.36317-1.81488-1.80693-1.24913-1.24635-.68338-.68286"/>
<path transform="matrix(1.00003,0,0,-1.00003,57.985727,24.476254)" stroke-width="1.19553" stroke-linecap="butt" stroke-miterlimit="10" stroke-linejoin="miter" fill="none" stroke="#008000" d="M0 11.33855 .22212 11.12123 .44427 10.90567 .66641 10.69356 .88858 10.4861 1.11072 10.28297 1.33287 10.0835 1.55502 9.8873 1.77716 9.6956 1.99931 9.50737 2.22145 9.32362 2.4436 9.14214 2.66576 8.96515 2.88791 8.79059 3.11006 8.6205 3.3322 8.4525 3.55435 8.28918 3.7765 8.1283 3.99864 7.97049 4.2208 7.81635 4.44293 7.66443 4.66508 7.51582 4.88725 7.36946 5.10939 7.22655 5.33154 7.0871 5.55368 6.94868 5.77583 6.81374 5.99799 6.68225 6.22012 6.55284 6.44228 6.4248 6.66441 6.30006 6.88658 6.1786 7.10872 6.05836 7.33087 5.94055 7.55302 5.826 7.77516 5.71251 7.99731 5.60246 8.21945 5.49365 8.4416 5.38707 8.66376 5.28154 8.8859 5.17946 9.10806 5.0786 9.3302 4.98102 9.55235 4.88342 9.7745 4.78932 9.99664 4.6964 10.2188 4.60454 10.44093 4.51595 10.66309 4.42755 10.88524 4.34242 11.10739 4.25748 11.32954 4.17581 11.55168 4.09415 11.77383 4.01472 11.99599 3.93654 12.21812 3.86041 12.44028 3.78566 12.66241 3.71196 12.88457 3.64052 13.10674 3.56905 13.32887 3.49985 13.55103 3.43185 13.77316 3.36594 13.99532 3.3002 14.21745 3.2367 14.4396 3.1732 14.66176 3.11195 14.8839 3.05174 15.10605 2.99292 15.3282 2.93393 15.55035 2.87718 15.7725 2.82164 15.99464 2.76715 16.2168 2.71265 16.43893 2.66057 16.66109 2.60832 16.88324 2.5585 17.10538 2.50867 17.32755 2.45987 17.54968 2.41212 17.77184 2.36575 17.99399 2.31921 18.21613 2.2739 18.43828 2.23064 18.66042 2.18651 18.88257 2.14447 19.10472 2.10262 19.32687 2.06178 19.54903 2.02197 19.77116 1.98236 19.99332 1.94499 20.21545 1.90642 20.4376 1.87007 20.65976 1.83374 20.8819 1.79741 21.10405 1.76228 21.32619 1.72838 21.54836 1.69533 21.77051 1.66246 21.99265 1.62958"/>
<path transform="matrix(1.00003,0,0,-1.00003,57.985727,24.476254)" stroke-width=".79701" stroke-linecap="butt" stroke-dasharray="2.98883,2.98883" stroke-miterlimit="10" stroke-linejoin="miter" fill="none" stroke="#bf8080" d="M22.6771 11.33855 23.02052 11.1669 23.36394 10.9951 23.70737 10.82349 24.0508 10.65167 24.39423 10.48004 24.73767 10.30824 25.0811 10.13661 25.42453 9.96481 25.76796 9.79318 26.11139 9.62138 26.4548 9.44975 26.79823 9.27795 27.14168 9.10632 27.4851 8.93452 27.82854 8.7629 28.17197 8.59108 28.5154 8.41946 28.85883 8.24767 29.20226 8.07603 29.54567 7.90424 29.8891 7.7326 30.23254 7.5608 30.57597 7.38918 30.9194 7.21738 31.26283 7.04575 31.60626 6.87395 31.94969 6.70232 32.29312 6.53052 32.63655 6.35889 32.97998 6.18707 33.32341 6.01546 33.66684 5.84364 34.01027 5.67201 34.3537 5.50021 34.69713 5.3286 35.04057 5.1568 35.384 4.98517 35.72742 4.81337 36.07085 4.64174 36.41428 4.46994 36.7577 4.29831 37.10114 4.12651 37.44456 3.95488 37.78801 3.78308 38.13144 3.61145 38.47487 3.43964 38.81828 3.268 39.16171 3.0962 39.50514 2.92459 39.84857 2.75278 40.19202 2.58115 40.53545 2.40935 40.87888 2.23772 41.2223 2.06593 41.56573 1.8943 41.90915 1.7225 42.25258 1.55087 42.59602 1.37907 42.93945 1.20744 43.28288 1.03564 43.62631 .86401 43.96974 .6922 44.31317 .52058 44.6566 .34877 45.00003 .17714 45.34344 .00534 45.68689-.16626 46.03032-.33806 46.37375-.50967 46.71718-.68149 47.06061-.85312 47.40405-1.0249 47.74747-1.19653 48.0909-1.36833 48.43433-1.53996 48.77776-1.71176 49.12119-1.88339 49.46461-2.05519 49.80804-2.22682 50.15147-2.39862 50.49492-2.57025 50.83835-2.74207 51.18176-2.91368 51.52519-3.0855 51.86862-3.25713 52.21205-3.42892 52.55548-3.60056 52.89893-3.77235 53.24234-3.94398 53.58578-4.11577 53.92921-4.2874 54.27263-4.4592 54.61606-4.63083 54.95949-4.80263 55.30293-4.97426 55.64635-5.14607 55.98979-5.31769 56.33322-5.4895 56.67665-5.66113"/>
<path transform="matrix(1.00003,0,0,-1.00003,57.985727,24.476254)" d="M1.19551 0C1.19551 .66026 .66026 1.19551 0 1.19551-.66026 1.19551-1.19551 .66026-1.19551 0-1.19551-.66026-.66026-1.19551 0-1.19551 .66026-1.19551 1.19551-.66026 1.19551 0ZM0 0" fill="#008000"/>
<path transform="matrix(1.00003,0,0,-1.00003,57.985727,24.476254)" stroke-width=".79701" stroke-linecap="butt" stroke-miterlimit="10" stroke-linejoin="miter" fill="none" stroke="#000080" d="M1.19551 11.33855C1.19551 11.99881 .66026 12.53406 0 12.53406-.66026 12.53406-1.19551 11.99881-1.19551 11.33855-1.19551 10.67827-.66026 10.14302 0 10.14302 .66026 10.14302 1.19551 10.67827 1.19551 11.33855ZM0 11.33855"/>
</svg>
