<svg xmlns="http://www.w3.org/2000/svg" xmlns:xlink="http://www.w3.org/1999/xlink" version="1.1" width="158" height="108" viewBox="0 0 158 108">
<defs>
<path id="font_1_7" d="M.4850006 .13195801 .45700074 .13696289C.43598939 .08299255 .41600038 .07598877 .37599183 .07598877H.11999512C.13598633 .1279602 .19499207 .19892884 .28799439 .2658844 .38398744 .33584596 .45799256 .38082887 .45799256 .49276734 .45799256 .63168337 .3659973 .6796875 .26098634 .6796875 .12399292 .6796875 .052993776 .5967102 .052993776 .54473879 .052993776 .51075747 .09098816 .49476625 .10798645 .49476625 .12599182 .49476625 .1329956 .50476077 .13699341 .5217438 .15299988 .5897064 .19198609 .64468386 .2539978 .64468386 .33099366 .64468386 .35299684 .5797119 .35299684 .50675967 .35299684 .3998108 .29899598 .33984376 .21199036 .26289369 .08898926 .15594483 .04598999 .08798218 .026992798 .009994507L.036987306 0H.45098878L.4850006 .13195801Z"/>
<path id="font_1_8" d="M.2999878 .17871094V.0769043C.2999878 .04296875 .2889862 .036987306 .2649994 .034988405L.20098877 .0289917V0H.46499635V.0289917L.41999818 .033981325C.39698792 .036987306 .3899994 .04296875 .3899994 .0769043V.17871094H.49299623V.22570801H.3899994V.66796877H.31698609C.22299195 .5298767 .11099243 .35577394 .018997193 .19970703L.027999878 .17871094H.2999878M.09098816 .22570801C.15098572 .33476258 .22099304 .4498291 .2979889 .5709076H.2999878V.22570801H.09098816Z"/>
<path id="font_2_1" d="M.42799378 .45222474 .43899537 .49023438H.31199647L.34599305 .6092224 .33399964 .6162262 .23699951 .53923037 .22399903 .49023438H.14299011L.13198853 .45222474H.21499634L.125 .08627319C.10998535 .029266358 .12199402-.01171875 .17199707-.01171875 .2519989-.01171875 .31599427 .054275514 .35598756 .1292572L.33399964 .1462555C.31098939 .10726929 .2599945 .040267946 .22898865 .040267946 .20799256 .040267946 .20799256 .0632782 .21398926 .088272098L.30299378 .45222474H.42799378Z"/>
<path id="font_3_1" d="M.6349945 .2529297V.31092835H.084991458V.2529297H.6349945Z"/>
<path id="font_2_2" d="M.070999149 .45393373 .07398987 .42893983 .14199829 .43093873C.1639862 .43193055 .16899109 .41493226 .1769867 .36291505 .18798828 .28489686 .20999146 .09286499 .20999146 .0128479 .20999146-.017166138 .20799256-.058166505 .18598938-.11117554 .16799927-.15318299 .14199829-.18218994 .12199402-.18218994 .10699463-.18218994 .09599304-.17118836 .08099365-.15118408 .068984989-.13517761 .06098938-.127182 .04598999-.127182 .019989014-.12818909-.005004883-.15818787-.005004883-.18719483-.005004883-.21418762 .023986817-.2421875 .067993167-.2421875 .15299988-.2421875 .18998719-.17919922 .27799989-.027160645 .2979889 .0068511965 .35798646 .11286926 .41999818 .21488953 .47698976 .30891419 .5399933 .40592958 .5399933 .4459381 .5399933 .48094178 .5289917 .5019531 .5219879 .5019531 .5029907 .5019531 .46899415 .49394227 .44400025 .47694398 .44499208 .4419403 .44299317 .3809204 .43099977 .33891297 .4149933 .28289796 .35598756 .17488098 .2899933 .06085205H.2869873C.27999879 .21388245 .26098634 .42492677 .24699402 .49795533L.23899842 .5019531 .070999149 .45393373Z"/>
<path id="font_1_1" d="M.1749878 .2822113C.1749878 .56832888 .2619934 .65437319 .32499696 .66737368V.6923828C.1499939 .685379 .10499573 .46829225 .10499573 .2822113 .10499573 .09614563 .1499939-.12094116 .32499696-.12792969V-.10293579C.2669983-.090927127 .1749878-.0059051516 .1749878 .2822113Z"/>
<path id="font_1_5" d="M.2649994 .64468386C.3600006 .64468386 .3869934 .49682618 .3869934 .33398438 .3869934 .17112732 .3600006 .023269654 .2649994 .023269654 .16999817 .023269654 .14299011 .17112732 .14299011 .33398438 .14299011 .49682618 .16999817 .64468386 .2649994 .64468386M.2649994 .6796875C.099990848 .6796875 .040985109 .53378298 .040985109 .33398438 .040985109 .13417053 .099990848-.01171875 .2649994-.01171875 .42999269-.01171875 .4889984 .13417053 .4889984 .33398438 .4889984 .53378298 .42999269 .6796875 .2649994 .6796875Z"/>
<path id="font_1_3" d="M.069992069-.140625C.11999512-.09362793 .19299317-.027633667 .19299317 .051361085 .19299317 .10636902 .1599884 .1423645 .125 .14137268 .09399414 .14137268 .07598877 .117370609 .07598877 .09136963 .07598877 .055374147 .10899353 .037368776 .10899353-.005630493 .10899353-.04663086 .08299255-.086639408 .050994874-.12162781L.069992069-.140625Z"/>
<path id="font_1_6" d="M.43699647 0V.0289917L.35299684 .035995485C.33198548 .037994386 .31999208 .04598999 .31999208 .08496094V.67367556L.31498719 .6796875 .10899353 .6446991V.6197052L.20199585 .6087036C.21899414 .6067047 .22599793 .5987091 .22599793 .56973269V.08496094C.22599793 .065979007 .22299195 .053985597 .21699524 .04698181 .21199036 .039993287 .20399475 .036987306 .19299317 .035995485L.10899353 .0289917V0H.43699647Z"/>
<path id="font_1_2" d="M.1749878 .2822113C.1749878-.0059051516 .08299255-.090927127 .024993897-.10293579V-.12792969C.19999695-.12094116 .24499512 .09614563 .24499512 .2822113 .24499512 .46829225 .19999695 .685379 .024993897 .6923828V.66737368C.08799744 .65437319 .1749878 .56832888 .1749878 .2822113Z"/>
<path id="font_1_4" d="M.1329956-.01171875C.17199707-.01171875 .19499207 .015274048 .19599915 .05126953 .19599915 .088272098 .17199707 .11627197 .1329956 .11627197 .09498596 .11627197 .069992069 .088272098 .069992069 .05126953 .069992069 .015274048 .09498596-.01171875 .1329956-.01171875Z"/>
<path id="font_1_9" d="M.42599488 .5919647 .44999696 .6599579 .44499208 .66796877H.11099243L.100997928 .65896609 .08099365 .32388307 .10499573 .31188966C.14698792 .35983277 .18798828 .3828125 .24198914 .3828125 .30599977 .3828125 .37599183 .3358612 .37599183 .20404053 .37599183 .10116577 .33399964 .023269654 .24699402 .023269654 .1769867 .023269654 .14099121 .07420349 .12098694 .13113404 .115997318 .14611817 .10699463 .15510559 .09298706 .15510559 .07299805 .15510559 .039993287 .13513184 .039993287 .10217285 .039993287 .056228639 .10998535-.01171875 .23999024-.01171875 .40499879-.01171875 .47999574 .0881958 .47999574 .21502686 .47999574 .35484315 .3919983 .4268036 .272995 .4268036 .21798706 .4268036 .15899658 .4028015 .1269989 .3738098L.125 .37580873 .147995 .56292727C.15098572 .58795168 .1579895 .5919647 .1769867 .5919647H.42599488Z"/>
</defs>
<path transform="matrix(1.00002,0,0,-1,31.91961,50.435)" stroke-width=".3985" stroke-linecap="butt" stroke-miterlimit="10" stroke-linejoin="miter" fill="none" stroke="#cbcbcb" d="M-25.51193-56.12622V45.92157"/>
<path transform="matrix(1.00002,0,0,-1,31.91961,50.435)" stroke-width=".3985" stroke-linecap="butt" stroke-miterlimit="10" stroke-linejoin="miter" fill="none" stroke="#cbcbcb" d="M25.51193-56.12622V45.92157"/>
<path transform="matrix(1.00002,0,0,-1,31.91961,50.435)" stroke-width=".3985" stroke-linecap="butt" stroke-miterlimit="10" stroke-linejoin="miter" fill="none" stroke="#cbcbcb" d="M51.0239-56.12622V45.92157"/>
<path transform="matrix(1.00002,0,0,-1,31.91961,50.435)" stroke-width=".3985" stroke-linecap="butt" stroke-miterlimit="10" stroke-linejoin="miter" fill="none" stroke="#cbcbcb" d="M76.53586-56.12622V45.92157"/>
<path transform="matrix(1.00002,0,0,-1,31.91961,50.435)" stroke-width=".3985" stroke-linecap="butt" stroke-miterlimit="10" stroke-linejoin="miter" fill="none" stroke="#cbcbcb" d="M102.0478-56.12622V45.92157"/>
<path transform="matrix(1.00002,0,0,-1,31.91961,50.435)" stroke-width=".3985" stroke-linecap="butt" stroke-miterlimit="10" stroke-linejoin="miter" fill="none" stroke="#000000" d="M51.0239-1.78601V1.78601"/>
<use data-text="2" xlink:href="#font_1_7" transform="matrix(10.036601,0,0,-10.0364,80.28258,60.554)"/>
<path transform="matrix(1.00002,0,0,-1,31.91961,50.435)" stroke-width=".3985" stroke-linecap="butt" stroke-miterlimit="10" stroke-linejoin="miter" fill="none" stroke="#000000" d="M102.0478-1.78601V1.78601"/>
<use data-text="4" xlink:href="#font_1_8" transform="matrix(10.036601,0,0,-10.0364,131.3076,60.554)"/>
<path transform="matrix(1.00002,0,0,-1,31.91961,50.435)" stroke-width=".3985" stroke-linecap="butt" stroke-miterlimit="10" stroke-linejoin="miter" fill="none" stroke="#000000" d="M-30.61426 0H121.99915"/>
<path transform="matrix(1.00002,0,0,-1,153.9212,50.435)" stroke-width=".31879" stroke-linecap="round" stroke-linejoin="round" fill="none" stroke="#000000" d="M-1.19551 1.59401C-1.09587 .99626 0 .09961 .29886 0 0-.09961-1.09587-.99626-1.19551-1.59401"/>
<use data-text="t" xlink:href="#font_2_1" transform="matrix(10.036601,0,0,-10.0364,152.242,60.019)"/>
<path transform="matrix(1.00002,0,0,-1,31.91961,50.435)" stroke-width=".3985" stroke-linecap="butt" stroke-miterlimit="10" stroke-linejoin="miter" fill="none" stroke="#cbcbcb" d="M-30.61426-51.0239H122.45743"/>
<path transform="matrix(1.00002,0,0,-1,31.91961,50.435)" stroke-width=".3985" stroke-linecap="butt" stroke-miterlimit="10" stroke-linejoin="miter" fill="none" stroke="#cbcbcb" d="M-30.61426-25.51193H122.45743"/>
<path transform="matrix(1.00002,0,0,-1,31.91961,50.435)" stroke-width=".3985" stroke-linecap="butt" stroke-miterlimit="10" stroke-linejoin="miter" fill="none" stroke="#cbcbcb" d="M-30.61426 25.51193H122.45743"/>
<path transform="matrix(1.00002,0,0,-1,31.91961,50.435)" stroke-width=".3985" stroke-linecap="butt" stroke-miterlimit="10" stroke-linejoin="miter" fill="none" stroke="#000000" d="M-1.78601-51.0239H1.78601"/>
<use data-text="&#x2212;" xlink:href="#font_3_1" transform="matrix(7.332647,0,0,-7.3325,19.354355,103.914)"/>
<use data-text="2" xlink:href="#font_1_7" transform="matrix(7.332647,0,0,-7.3325,24.63144,103.914)"/>
<path transform="matrix(1.00002,0,0,-1,31.91961,50.435)" stroke-width=".3985" stroke-linecap="butt" stroke-miterlimit="10" stroke-linejoin="miter" fill="none" stroke="#000000" d="M0-56.12622V45.46329"/>
<path transform="matrix(0,-1,-1.00002,-0,31.91961,4.97171)" stroke-width=".31879" stroke-linecap="round" stroke-linejoin="round" fill="none" stroke="#000000" d="M-1.19551 1.59401C-1.09587 .99626 0 .09961 .29886 0 0-.09961-1.09587-.99626-1.19551-1.59401"/>
<use data-text="y" xlink:href="#font_2_2" transform="matrix(10.036601,0,0,-10.0364,22.90242,5.7630007)"/>
<path transform="matrix(1.00002,0,0,-1,31.91961,50.435)" stroke-width="1.59404" stroke-linecap="butt" stroke-miterlimit="10" stroke-linejoin="miter" fill="none" stroke="#000000" d="M-29.5361-40.2798-24.23627-37.62987-17.85828-34.44089-11.48027-31.25189-5.1023-28.0629 1.27565-24.87428 7.65364-21.6853 14.03163-18.4963 20.40962-15.30731 26.78761-12.11832 33.1656-8.92934 39.5436-5.74034 45.92157-2.55133 52.29956 .63762 58.67757 3.82661 65.05556 7.01561 71.43353 10.2046 77.81152 13.3936 84.1895 16.58258 90.56749 19.77158 96.94548 22.96057 103.32347 26.14957 109.70146 29.33858 116.07945 32.52757 121.37927 35.1775"/>
<path transform="matrix(-.89437797,.44717,.44717894,.89436,2.3829175,90.7148)" stroke-width="1.27522" stroke-linecap="round" stroke-linejoin="round" fill="none" stroke="#000000" d="M-2.27148 3.02866C-2.0822 1.8929 0 .18927 .56786 0 0-.18927-2.0822-1.8929-2.27148-3.02866"/>
<path transform="matrix(.89437797,-.44717,-.44717894,-.89436,153.30132,15.2575)" stroke-width="1.27522" stroke-linecap="round" stroke-linejoin="round" fill="none" stroke="#000000" d="M-2.27148 3.02866C-2.0822 1.8929 0 .18927 .56786 0 0-.18927-2.0822-1.8929-2.27148-3.02866"/>
<path transform="matrix(1.00002,0,0,-1,31.91961,50.435)" stroke-width=".3985" stroke-linecap="butt" stroke-miterlimit="10" stroke-linejoin="miter" fill="none" stroke="#000000" d="M20.40962-25.51193"/>
<path transform="matrix(1.00002,0,0,-1,31.91961,50.435)" d="M6.34334-35.48463H34.47591V-25.71119H6.34334Z" fill="#ffffff"/>
<use data-text="(" xlink:href="#font_1_1" transform="matrix(9.165783,0,0,-9.1656,39.259759,83.628009)"/>
<use data-text="0" xlink:href="#font_1_5" transform="matrix(9.165783,0,0,-9.1656,42.46778,83.628009)"/>
<use data-text="," xlink:href="#font_1_3" transform="matrix(9.165783,0,0,-9.1656,47.325647,83.628009)"/>
<use data-text="&#x2212;" xlink:href="#font_3_1" transform="matrix(9.165783,0,0,-9.1656,50.734994,83.628009)"/>
<use data-text="1" xlink:href="#font_1_6" transform="matrix(9.165783,0,0,-9.1656,57.330118,83.628009)"/>
<use data-text=")" xlink:href="#font_1_2" transform="matrix(9.165783,0,0,-9.1656,62.187997,83.628009)"/>
<path transform="matrix(1.00002,0,0,-1,31.91961,50.435)" stroke-width="1.19553" stroke-linecap="butt" stroke-miterlimit="10" stroke-linejoin="miter" fill="none" stroke="#0033cc" d="M0-25.51193V-13.71237"/>
<path transform="matrix(0,-1,-1.00002,-0,31.91961,64.14737)" stroke-width=".9564" stroke-linecap="round" stroke-linejoin="round" fill="none" stroke="#0033cc" d="M-1.91284 2.55046C-1.75343 1.59402 0 .15938 .4782 0 0-.15938-1.75343-1.59402-1.91284-2.55046"/>
<path transform="matrix(1.00002,0,0,-1,31.91961,50.435)" d="M-12.7523-22.24231H-.5977402V-16.025589H-12.7523Z" fill="#ffffff"/>
<use data-text="0" xlink:href="#font_1_5" transform="matrix(9.165783,0,0,-9.1656,19.16735,72.59801)" fill="#0033cc"/>
<use data-text="." xlink:href="#font_1_4" transform="matrix(9.165783,0,0,-9.1656,24.025216,72.59801)" fill="#0033cc"/>
<use data-text="5" xlink:href="#font_1_9" transform="matrix(9.165783,0,0,-9.1656,26.45414,72.59801)" fill="#0033cc"/>
<path transform="matrix(1.00002,0,0,-1,31.91961,50.435)" stroke-width="1.19553" stroke-linecap="butt" stroke-miterlimit="10" stroke-linejoin="miter" fill="none" stroke="#009966" d="M0-12.75595H22.00415"/>
<path transform="matrix(1.00002,0,0,-1,53.924203,63.190954)" stroke-width=".9564" stroke-linecap="round" stroke-linejoin="round" fill="none" stroke="#009966" d="M-1.91284 2.55046C-1.75343 1.59402 0 .15938 .4782 0 0-.15938-1.75343-1.59402-1.91284-2.55046"/>
<path transform="matrix(1.00002,0,0,-1,31.91961,50.435)" d="M9.04936-15.82448H13.91116V-9.68746H9.04936Z" fill="#ffffff"/>
<use data-text="1" xlink:href="#font_1_6" transform="matrix(9.165783,0,0,-9.1656,40.96879,66.259)" fill="#009966"/>
<path transform="matrix(1.00002,0,0,-1,31.91961,50.435)" d="M2.68993-25.51193C2.68993-24.02632 1.48561-22.822 0-22.822-1.48561-22.822-2.68993-24.02632-2.68993-25.51193-2.68993-26.99754-1.48561-28.20187 0-28.20187 1.48561-28.20187 2.68993-26.99754 2.68993-25.51193ZM0-25.51193" fill="#ffffff"/>
<path transform="matrix(1.00002,0,0,-1,31.91961,50.435)" stroke-width="1.19553" stroke-linecap="butt" stroke-miterlimit="10" stroke-linejoin="miter" fill="none" stroke="#000000" d="M2.68993-25.51193C2.68993-24.02632 1.48561-22.822 0-22.822-1.48561-22.822-2.68993-24.02632-2.68993-25.51193-2.68993-26.99754-1.48561-28.20187 0-28.20187 1.48561-28.20187 2.68993-26.99754 2.68993-25.51193ZM0-25.51193"/>
<path transform="matrix(1.00002,0,0,-1,31.91961,50.435)" stroke-width="1.19553" stroke-linecap="butt" stroke-miterlimit="10" stroke-linejoin="miter" fill="none" stroke="#0033cc" d="M25.51193-12.75595V-.9564"/>
<path transform="matrix(0,-1,-1.00002,-0,57.432054,51.391405)" stroke-width=".9564" stroke-linecap="round" stroke-linejoin="round" fill="none" stroke="#0033cc" d="M-1.91284 2.55046C-1.75343 1.59402 0 .15938 .4782 0 0-.15938-1.75343-1.59402-1.91284-2.55046"/>
<path transform="matrix(1.00002,0,0,-1,31.91961,50.435)" d="M12.75963-9.48634H24.91419V-3.2696195H12.75963Z" fill="#ffffff"/>
<use data-text="0" xlink:href="#font_1_5" transform="matrix(9.165783,0,0,-9.1656,44.679864,59.842004)" fill="#0033cc"/>
<use data-text="." xlink:href="#font_1_4" transform="matrix(9.165783,0,0,-9.1656,49.537729,59.842004)" fill="#0033cc"/>
<use data-text="5" xlink:href="#font_1_9" transform="matrix(9.165783,0,0,-9.1656,51.966653,59.842004)" fill="#0033cc"/>
<path transform="matrix(1.00002,0,0,-1,31.91961,50.435)" stroke-width="1.19553" stroke-linecap="butt" stroke-miterlimit="10" stroke-linejoin="miter" fill="none" stroke="#009966" d="M25.51193 0H47.51611"/>
<path transform="matrix(1.00002,0,0,-1,79.43667,50.435)" stroke-width=".9564" stroke-linecap="round" stroke-linejoin="round" fill="none" stroke="#009966" d="M-1.91284 2.55046C-1.75343 1.59402 0 .15938 .4782 0 0-.15938-1.75343-1.59402-1.91284-2.55046"/>
<path transform="matrix(1.00002,0,0,-1,31.91961,50.435)" d="M34.56133-3.06851H39.42313V3.06851H34.56133Z" fill="#ffffff"/>
<use data-text="1" xlink:href="#font_1_6" transform="matrix(9.165783,0,0,-9.1656,66.4813,53.504)" fill="#009966"/>
<path transform="matrix(1.00002,0,0,-1,31.91961,50.435)" d="M28.20187-12.75595C28.20187-11.27034 26.99754-10.06602 25.51193-10.06602 24.02632-10.06602 22.822-11.27034 22.822-12.75595 22.822-14.24158 24.02632-15.44589 25.51193-15.44589 26.99754-15.44589 28.20187-14.24158 28.20187-12.75595ZM25.51193-12.75595" fill="#ffffff"/>
<path transform="matrix(1.00002,0,0,-1,31.91961,50.435)" stroke-width="1.19553" stroke-linecap="butt" stroke-miterlimit="10" stroke-linejoin="miter" fill="none" stroke="#000000" d="M28.20187-12.75595C28.20187-11.27034 26.99754-10.06602 25.51193-10.06602 24.02632-10.06602 22.822-11.27034 22.822-12.75595 22.822-14.24158 24.02632-15.44589 25.51193-15.44589 26.99754-15.44589 28.20187-14.24158 28.20187-12.75595ZM25.51193-12.75595"/>
<path transform="matrix(1.00002,0,0,-1,31.91961,50.435)" stroke-width="1.19553" stroke-linecap="butt" stroke-miterlimit="10" stroke-linejoin="miter" fill="none" stroke="#0033cc" d="M51.0239 0V11.79955"/>
<path transform="matrix(0,-1,-1.00002,-0,82.944538,38.635454)" stroke-width=".9564" stroke-linecap="round" stroke-linejoin="round" fill="none" stroke="#0033cc" d="M-1.91284 2.55046C-1.75343 1.59402 0 .15938 .4782 0 0-.15938-1.75343-1.59402-1.91284-2.55046"/>
<path transform="matrix(1.00002,0,0,-1,31.91961,50.435)" d="M38.27158 3.2696H50.42614V9.4863209H38.27158Z" fill="#ffffff"/>
<use data-text="0" xlink:href="#font_1_5" transform="matrix(9.165783,0,0,-9.1656,70.192378,47.086004)" fill="#0033cc"/>
<use data-text="." xlink:href="#font_1_4" transform="matrix(9.165783,0,0,-9.1656,75.05024,47.086004)" fill="#0033cc"/>
<use data-text="5" xlink:href="#font_1_9" transform="matrix(9.165783,0,0,-9.1656,77.479167,47.086004)" fill="#0033cc"/>
<path transform="matrix(1.00002,0,0,-1,31.91961,50.435)" stroke-width="1.19553" stroke-linecap="butt" stroke-miterlimit="10" stroke-linejoin="miter" fill="none" stroke="#009966" d="M51.0239 12.75595H73.02808"/>
<path transform="matrix(1.00002,0,0,-1,104.94916,37.67905)" stroke-width=".9564" stroke-linecap="round" stroke-linejoin="round" fill="none" stroke="#009966" d="M-1.91284 2.55046C-1.75343 1.59402 0 .15938 .4782 0 0-.15938-1.75343-1.59402-1.91284-2.55046"/>
<path transform="matrix(1.00002,0,0,-1,31.91961,50.435)" d="M60.07329 9.68744H64.93509V15.82446H60.07329Z" fill="#ffffff"/>
<use data-text="1" xlink:href="#font_1_6" transform="matrix(9.165783,0,0,-9.1656,91.99381,40.748)" fill="#009966"/>
<path transform="matrix(1.00002,0,0,-1,31.91961,50.435)" d="M53.71382 0C53.71382 1.48561 52.5095 2.68993 51.0239 2.68993 49.53828 2.68993 48.33397 1.48561 48.33397 0 48.33397-1.48561 49.53828-2.68993 51.0239-2.68993 52.5095-2.68993 53.71382-1.48561 53.71382 0ZM51.0239 0" fill="#ffffff"/>
<path transform="matrix(1.00002,0,0,-1,31.91961,50.435)" stroke-width="1.19553" stroke-linecap="butt" stroke-miterlimit="10" stroke-linejoin="miter" fill="none" stroke="#000000" d="M53.71382 0C53.71382 1.48561 52.5095 2.68993 51.0239 2.68993 49.53828 2.68993 48.33397 1.48561 48.33397 0 48.33397-1.48561 49.53828-2.68993 51.0239-2.68993 52.5095-2.68993 53.71382-1.48561 53.71382 0ZM51.0239 0"/>
<path transform="matrix(1.00002,0,0,-1,31.91961,50.435)" stroke-width="1.19553" stroke-linecap="butt" stroke-miterlimit="10" stroke-linejoin="miter" fill="none" stroke="#0033cc" d="M76.53586 12.75595V24.55553"/>
<path transform="matrix(0,-1,-1.00002,-0,108.457,25.87947)" stroke-width=".9564" stroke-linecap="round" stroke-linejoin="round" fill="none" stroke="#0033cc" d="M-1.91284 2.55046C-1.75343 1.59402 0 .15938 .4782 0 0-.15938-1.75343-1.59402-1.91284-2.55046"/>
<path transform="matrix(1.00002,0,0,-1,31.91961,50.435)" d="M63.78354 16.02559H75.938098V22.242312H63.78354Z" fill="#ffffff"/>
<use data-text="0" xlink:href="#font_1_5" transform="matrix(9.165783,0,0,-9.1656,95.70489,34.33)" fill="#0033cc"/>
<use data-text="." xlink:href="#font_1_4" transform="matrix(9.165783,0,0,-9.1656,100.56275,34.33)" fill="#0033cc"/>
<use data-text="5" xlink:href="#font_1_9" transform="matrix(9.165783,0,0,-9.1656,102.99168,34.33)" fill="#0033cc"/>
<path transform="matrix(1.00002,0,0,-1,31.91961,50.435)" stroke-width="1.19553" stroke-linecap="butt" stroke-miterlimit="10" stroke-linejoin="miter" fill="none" stroke="#009966" d="M76.53586 25.51193H98.54004"/>
<path transform="matrix(1.00002,0,0,-1,130.46163,24.92307)" stroke-width=".9564" stroke-linecap="round" stroke-linejoin="round" fill="none" stroke="#009966" d="M-1.91284 2.55046C-1.75343 1.59402 0 .15938 .4782 0 0-.15938-1.75343-1.59402-1.91284-2.55046"/>
<path transform="matrix(1.00002,0,0,-1,31.91961,50.435)" d="M85.58525 22.44342H90.44705V28.58044H85.58525Z" fill="#ffffff"/>
<use data-text="1" xlink:href="#font_1_6" transform="matrix(9.165783,0,0,-9.1656,117.506328,27.992)" fill="#009966"/>
<path transform="matrix(1.00002,0,0,-1,31.91961,50.435)" d="M79.22578 12.75595C79.22578 14.24158 78.02147 15.44589 76.53586 15.44589 75.05025 15.44589 73.84593 14.24158 73.84593 12.75595 73.84593 11.27034 75.05025 10.06602 76.53586 10.06602 78.02147 10.06602 79.22578 11.27034 79.22578 12.75595ZM76.53586 12.75595" fill="#ffffff"/>
<path transform="matrix(1.00002,0,0,-1,31.91961,50.435)" stroke-width="1.19553" stroke-linecap="butt" stroke-miterlimit="10" stroke-linejoin="miter" fill="none" stroke="#000000" d="M79.22578 12.75595C79.22578 14.24158 78.02147 15.44589 76.53586 15.44589 75.05025 15.44589 73.84593 14.24158 73.84593 12.75595 73.84593 11.27034 75.05025 10.06602 76.53586 10.06602 78.02147 10.06602 79.22578 11.27034 79.22578 12.75595ZM76.53586 12.75595"/>
<path transform="matrix(1.00002,0,0,-1,31.91961,50.435)" d="M104.73773 25.51193C104.73773 26.99754 103.53342 28.20187 102.0478 28.20187 100.5622 28.20187 99.35788 26.99754 99.35788 25.51193 99.35788 24.02632 100.5622 22.822 102.0478 22.822 103.53342 22.822 104.73773 24.02632 104.73773 25.51193ZM102.0478 25.51193" fill="#ffffff"/>
<path transform="matrix(1.00002,0,0,-1,31.91961,50.435)" stroke-width="1.19553" stroke-linecap="butt" stroke-miterlimit="10" stroke-linejoin="miter" fill="none" stroke="#000000" d="M104.73773 25.51193C104.73773 26.99754 103.53342 28.20187 102.0478 28.20187 100.5622 28.20187 99.35788 26.99754 99.35788 25.51193 99.35788 24.02632 100.5622 22.822 102.0478 22.822 103.53342 22.822 104.73773 24.02632 104.73773 25.51193ZM102.0478 25.51193"/>
</svg>
