<svg xmlns="http://www.w3.org/2000/svg" xmlns:xlink="http://www.w3.org/1999/xlink" version="1.1" width="142" height="43" viewBox="0 0 142 43">
<defs>
<path id="font_1_1" d="M.42799378 .45222474 .43899537 .49023438H.31199647L.34599305 .6092224 .33399964 .6162262 .23699951 .53923037 .22399903 .49023438H.14299011L.13198853 .45222474H.21499634L.125 .08627319C.10998535 .029266358 .12199402-.01171875 .17199707-.01171875 .2519989-.01171875 .31599427 .054275514 .35598756 .1292572L.33399964 .1462555C.31098939 .10726929 .2599945 .040267946 .22898865 .040267946 .20799256 .040267946 .20799256 .0632782 .21398926 .088272098L.30299378 .45222474H.42799378Z"/>
<path id="font_2_3" d="M.3809967 .6720276C.5589905 .6720276 .59999087 .4931183 .60198977 .3461914 .59999087 .19924927 .5589905 .020339966 .3809967 .020339966 .20298767 .020339966 .1619873 .19924927 .1599884 .3461914 .1619873 .4931183 .20298767 .6720276 .3809967 .6720276M.3809967 .70703127C.2709961 .70703127 .18899536 .6730194 .1329956 .61006167 .07899475 .55007937 .04798889 .4591217 .04798889 .3461914 .04798889 .23423767 .07899475 .14228821 .1329956 .08232117 .18899536 .019348145 .2709961-.0146484379 .3809967-.0146484379 .49198915-.0146484379 .57299807 .019348145 .6289978 .08232117 .6839905 .14228821 .71398928 .23423767 .71398928 .3461914 .71398928 .4591217 .6839905 .55007937 .6289978 .61006167 .57299807 .6730194 .49198915 .70703127 .3809967 .70703127Z"/>
<path id="font_2_2" d="M.033996583 .6923828V.66337588C.12199402 .6573639 .12399292 .655365 .12399292 .5993347V.20309448C.12399292 .15007019 .12199402 .11204529 .116989139 .07902527 .11099243 .037002565 .08699036 .032989503 .034988405 .0289917V0H.27198792V.0289917C.20698548 .033996583 .18299866 .037002565 .1769867 .07902527 .17199707 .11204529 .16999817 .15007019 .16999817 .20309448V.6023407H.17199707C.31498719 .4012146 .45700074 .20109558 .59799197 0H.6639862V.48927308C.6639862 .54229739 .66600039 .58032229 .67099 .6133423 .6769867 .655365 .70098879 .6593628 .7529907 .66337588V.6923828H.5159912V.66337588C.58099368 .658371 .6049957 .655365 .61099246 .6133423 .6159973 .58032229 .6179962 .54229739 .6179962 .48927308V.13806153L.6159973 .14006043C.4850006 .32417298 .35499574 .5082855 .22599793 .6923828H.033996583Z"/>
<path id="font_2_9" d="M.18899536 .5019531 .036987306 .47694398V.45195008L.07499695 .4469452C.100997928 .4429474 .10699463 .4379425 .10699463 .40194703V.08699036C.10699463 .035995485 .101989749 .033996583 .03199768 .0289917V0H.29599V.0289917C.20698548 .033996583 .20098877 .035995485 .20098877 .08699036V.32095338C.20098877 .39794923 .23498535 .4239502 .2579956 .4239502 .27398683 .4239502 .29100038 .4179535 .31999208 .40194703 .32699586 .39794923 .33499146 .39694215 .33999635 .39694215 .3639984 .39694215 .38598634 .4219513 .38598634 .4529419 .38598634 .47494508 .37199403 .5019531 .33299256 .5019531 .29699708 .5019531 .2669983 .47994996 .20098877 .4219513L.18899536 .5019531Z"/>
<path id="font_2_4" d="M.44099427 .2627716C.46199037 .2627716 .48098756 .2677765 .48098756 .30078126 .48098756 .35983277 .46199037 .5019531 .2789917 .5019531 .12298584 .5019531 .04899597 .39086915 .04899597 .24082947 .04899597 .08317566 .116989139-.01373291 .27999879-.01171875 .3909912-.010726929 .44799806 .050247194 .47499085 .1290741L.44499208 .14503479C.4169922 .08717346 .3789978 .039276124 .2999878 .039276124 .17599488 .039276124 .15098572 .15901184 .15299988 .2627716H.44099427M.1539917 .30078126C.1539917 .34181214 .16899109 .46694947 .272995 .46694947 .3659973 .46694947 .3769989 .37184144 .3769989 .33280946 .3769989 .31378175 .37098695 .30078126 .34298707 .30078126H.1539917Z"/>
<path id="font_2_5" d="M.2599945 .46694947C.30899049 .46694947 .3600006 .43093873 .3600006 .33392335 .3600006 .24989319 .31599427 .20588684 .2579956 .20588684 .20199585 .20588684 .15499878 .24989319 .15499878 .33392335 .15499878 .43293763 .20698548 .46694947 .2599945 .46694947M.2809906-.2071991C.19599915-.2071991 .13699341-.16319275 .13699341-.09118652 .13699341-.057174684 .14698792-.032180787 .16799927-.016174317 .18998719 .0008239746 .22299195 .0068359377 .2709961 .0068359377 .35899354 .0068359377 .42399598-.014175415 .42399598-.08918762 .42399598-.16918946 .35198976-.2071991 .2809906-.2071991M.3889923 .47094728C.36099244 .48994447 .30599977 .5019531 .2599945 .5019531 .10699463 .5019531 .052993776 .40792848 .052993776 .33392335 .052993776 .23989868 .114990238 .19688416 .16099549 .18489075V.18289185C.10699463 .1618805 .068984989 .13285828 .068984989 .09384155 .068984989 .05882263 .10899353 .020828248 .15699768 .015823365V.013824463C.11399841-.00016784668 .041992189-.024169922 .041992189-.09617615 .041992189-.19718933 .14199829-.2421875 .2579956-.2421875 .31799317-.2421875 .3809967-.23019409 .42900086-.20118714 .47499085-.17318726 .5079956-.12619019 .5079956-.06417847 .5079956 .043823244 .42199708 .081832889 .31498719 .081832889H.23498535C.16299439 .081832889 .1519928 .10585022 .1519928 .12486267 .1519928 .15388489 .18998719 .16989136 .20298767 .17388916 .22200012 .17189026 .24299622 .17089844 .2539978 .17089844 .34899903 .17089844 .45599366 .21289063 .45599366 .33392335 .45599366 .3759308 .44299317 .41093446 .42599488 .42793275L.5049896 .4399414 .5249939 .50294497 .5169983 .51194766 .3889923 .47094728Z"/>
<path id="font_2_6" d="M.036987306 .47694398V.45195008L.07499695 .4469452C.100997928 .4429474 .10699463 .43795777 .10699463 .40194703V.08699036C.10699463 .035995485 .10398865 .033996583 .03199768 .0289917V0H.27598573V.0289917C.20498657 .033996583 .20098877 .035995485 .20098877 .08699036V.49609376L.19400025 .5020752 .036987306 .47694398M.15299988 .71484377C.116989139 .71484377 .09199524 .6888428 .09199524 .65283206 .09199524 .61782839 .116989139 .5928345 .15299988 .5928345 .18998719 .5928345 .21299744 .61782839 .21398926 .65283206 .21398926 .6888428 .18998719 .71484377 .15299988 .71484377Z"/>
<path id="font_2_8" d="M.28799439 .5019531C.12799073 .5019531 .04899597 .40698243 .04899597 .24510193 .04899597 .083236698 .12799073-.01171875 .28799439-.01171875 .44999696-.01171875 .5279999 .083236698 .5279999 .24510193 .5279999 .40698243 .44999696 .5019531 .28799439 .5019531M.15299988 .24510193C.15299988 .38301087 .19699097 .46694947 .28799439 .46694947 .3809967 .46694947 .42399598 .38301087 .42399598 .24510193 .42399598 .10720825 .3809967 .023269654 .28799439 .023269654 .19699097 .023269654 .15299988 .10720825 .15299988 .24510193Z"/>
<path id="font_2_7" d="M.5289917 .34295655C.5289917 .4439392 .47399903 .5019531 .38198854 .5019531 .30799867 .5019531 .2619934 .46594239 .19999695 .4259491L.18598938 .5019531 .036987306 .47694398V.45195008L.07499695 .4469452C.100997928 .4429474 .10699463 .4379425 .10699463 .40194703V.08699036C.10699463 .035995485 .10398865 .033996583 .03199768 .0289917V0H.27598573V.0289917C.20498657 .033996583 .20098877 .035995485 .20098877 .08699036V.32095338C.20098877 .34596253 .20298767 .35995484 .21099854 .37594605 .23199463 .4149475 .2769928 .44795228 .32998658 .44795228 .397995 .44795228 .43499757 .40994264 .43499757 .32295228V.08699036C.43499757 .035995485 .43199159 .033996583 .3600006 .0289917V0H.60398867V.0289917C.5329895 .033996583 .5289917 .035995485 .5289917 .08699036V.34295655Z"/>
<path id="font_2_1" d="M.034988405 .6923828V.66337588C.12298584 .6573639 .125 .655365 .125 .5993347V.093048099C.125 .037002565 .12298584 .035003663 .034988405 .0289917V0H.32998658V.0289917C.22698975 .035003663 .22399903 .037002565 .22399903 .093048099V.32722474H.3639984C.44898988 .32722474 .45298768 .3032074 .46199037 .23916626H.49198915V.4532776H.46199037C.45298768 .38923646 .44898988 .36523438 .3639984 .36523438H.22399903V.62135317C.22399903 .65437319 .22799683 .65737918 .26098634 .65737918H.3600006C.47599793 .65737918 .49899293 .6343689 .5130005 .5323181H.54299929V.6923828H.034988405Z"/>
</defs>
<path transform="matrix(1.00005,0,0,-1.00008,1.4913712,29.48108)" d="M99.2134-11.90572V27.77962H138.89876V-11.90572ZM138.89876 27.77962" fill="#ecd9d9"/>
<path transform="matrix(1.00005,0,0,-1.00008,1.4913712,29.48108)" stroke-width=".3985" stroke-linecap="butt" stroke-miterlimit="10" stroke-linejoin="miter" fill="none" stroke="#000000" d="M.45827 0H138.44048"/>
<path transform="matrix(-1.00005,-0,0,1.00008,1.9496641,29.48108)" stroke-width=".31879" stroke-linecap="round" stroke-linejoin="round" fill="none" stroke="#000000" d="M-1.19551 1.59401C-1.09587 .99626 0 .09961 .29886 0 0-.09961-1.09587-.99626-1.19551-1.59401"/>
<path transform="matrix(1.00005,0,0,-1.00008,139.93875,29.48108)" stroke-width=".31879" stroke-linecap="round" stroke-linejoin="round" fill="none" stroke="#000000" d="M-1.19551 1.59401C-1.09587 .99626 0 .09961 .29886 0 0-.09961-1.09587-.99626-1.19551-1.59401"/>
<use data-text="t" xlink:href="#font_1_1" transform="matrix(9.166058,0,0,-9.166333,136.4591,26.0018)"/>
<path transform="matrix(1.00005,0,0,-1.00008,1.4913712,29.48108)" stroke-width=".19925" stroke-linecap="butt" stroke-dasharray="2.98883,2.98883" stroke-miterlimit="10" stroke-linejoin="miter" fill="none" stroke="#000000" d="M99.2134-11.90572V27.77962"/>
<path transform="matrix(1.00005,0,0,-1.00008,1.4913712,29.48108)" stroke-width="1.19553" stroke-linecap="butt" stroke-miterlimit="10" stroke-linejoin="miter" fill="none" stroke="#000000" d="M.9564 0H.99005 1.98013 2.9702 3.96028 4.95035 5.94043 6.93051 7.92058 8.91066 9.90073 10.89081 11.88089 12.87096 13.86104 14.8511 15.84119 16.83125 17.82133 18.8114 19.80148 20.79155 21.78163 22.7717 23.76178 24.75185 25.74194 26.73201 27.72209 28.71216 29.70224 30.6923 31.68239 32.67247 33.66254 34.65262 35.64267 36.63277 37.62283 38.61292 39.60298 40.59306 41.58313 42.57321 43.56328 44.55336 45.54343 46.53352 47.52357 48.51367 49.50372 50.49382 51.48389 52.47395 53.46405 54.4541 55.4442 56.43427 57.42435 58.41441 59.4045 60.39456 61.38464 62.37471 63.36479 64.35486 65.34494 66.335 67.3251 68.31516 69.30524 70.2953 71.28539 72.27547 73.26553 74.25562 75.24568 76.23576 77.22585 78.21591 79.206 80.19608 81.18614 82.17622 83.16629 84.15637 85.14644 86.13652 87.12659 88.11667 89.10674 90.09682 91.08688 92.07697 93.06705 94.05711 95.0472 96.03726 97.02734 98.01743"/>
<path transform="matrix(-1.00005,-0,0,1.00008,2.4478188,29.48108)" stroke-width=".9564" stroke-linecap="round" stroke-linejoin="round" fill="none" stroke="#000000" d="M-1.91284 2.55046C-1.75343 1.59402 0 .15938 .4782 0 0-.15938-1.75343-1.59402-1.91284-2.55046"/>
<path transform="matrix(1.00005,0,0,-1.00008,1.4913712,29.48108)" d="M101.30557 19.84267C101.30557 20.99815 100.36888 21.93483 99.2134 21.93483 98.0579 21.93483 97.12122 20.99815 97.12122 19.84267 97.12122 18.68718 98.0579 17.75049 99.2134 17.75049 100.36888 17.75049 101.30557 18.68718 101.30557 19.84267ZM99.2134 19.84267"/>
<path transform="matrix(1.00005,0,0,-1.00008,1.4913712,29.48108)" stroke-width="1.19553" stroke-linecap="butt" stroke-miterlimit="10" stroke-linejoin="miter" fill="none" stroke="#000000" d="M101.30557 0C101.30557 1.15549 100.36888 2.09216 99.2134 2.09216 98.0579 2.09216 97.12122 1.15549 97.12122 0 97.12122-1.15549 98.0579-2.09216 99.2134-2.09216 100.36888-2.09216 101.30557-1.15549 101.30557 0ZM99.2134 0"/>
<path transform="matrix(1.00005,0,0,-1.00008,1.4913712,29.48108)" stroke-width="1.19553" stroke-linecap="butt" stroke-miterlimit="10" stroke-linejoin="miter" fill="none" stroke="#000000" d="M99.2134 19.84267H99.61395 100.01453 100.4151 100.81567 101.21623 101.6168 102.01738 102.41795 102.81853 103.2191 103.61967 104.02025 104.42082 104.82138 105.22195 105.62253 106.0231 106.42368 106.82425 107.22482 107.6254 108.02597 108.42654 108.82709 109.22766 109.62823 110.02881 110.42938 110.82996 111.23053 111.6311 112.03168 112.43225 112.83281 113.23338 113.63396 114.03453 114.4351 114.83568 115.23625 115.63683 116.0374 116.43796 116.83853 117.2391 117.63968 118.04025 118.44083 118.8414 119.24196 119.64253 120.0431 120.44366 120.84424 121.24481 121.64539 122.04596 122.44653 122.8471 123.24768 123.64825 124.04881 124.44939 124.84996 125.25053 125.65111 126.05168 126.45226 126.85283 127.2534 127.65398 128.05454 128.45511 128.85569 129.25626 129.65683 130.0574 130.45798 130.85855 131.25913 131.65969 132.06026 132.46083 132.8614 133.26198 133.66255 134.06313 134.4637 134.86428 135.26485 135.6654 136.06598 136.46656 136.86713 137.2677 137.66828 138.06885 138.46942 137.91356"/>
<path transform="matrix(1.00005,0,0,-1.00008,139.4118,9.636822)" stroke-width=".9564" stroke-linecap="round" stroke-linejoin="round" fill="none" stroke="#000000" d="M-1.91284 2.55046C-1.75343 1.59402 0 .15938 .4782 0 0-.15938-1.75343-1.59402-1.91284-2.55046"/>
<use data-text="O" xlink:href="#font_2_3" transform="matrix(7.332866,0,0,-7.3330867,114.89803,22.079487)" fill="#800000"/>
<use data-text="N" xlink:href="#font_2_2" transform="matrix(7.332866,0,0,-7.3330867,120.48567,22.079487)" fill="#800000"/>
<use data-text="r" xlink:href="#font_2_9" transform="matrix(7.332866,0,0,-7.3330867,106.86363,39.110849)" fill="#800000"/>
<use data-text="e" xlink:href="#font_2_4" transform="matrix(7.332866,0,0,-7.3330867,109.57679,39.110849)" fill="#800000"/>
<use data-text="g" xlink:href="#font_2_5" transform="matrix(7.332866,0,0,-7.3330867,113.34588,39.110849)" fill="#800000"/>
<use data-text="i" xlink:href="#font_2_6" transform="matrix(7.332866,0,0,-7.3330867,117.158969,39.110849)" fill="#800000"/>
<use data-text="o" xlink:href="#font_2_8" transform="matrix(7.332866,0,0,-7.3330867,119.29283,39.110849)" fill="#800000"/>
<use data-text="n" xlink:href="#font_2_7" transform="matrix(7.332866,0,0,-7.3330867,123.523899,39.110849)" fill="#800000"/>
<use data-text="n" xlink:href="#font_2_7" transform="matrix(7.332866,0,0,-7.3330867,129.7055,39.110849)" fill="#800000"/>
<use data-text="O" xlink:href="#font_2_3" transform="matrix(7.332866,0,0,-7.3330867,44.050497,22.079487)" fill="#800000"/>
<use data-text="F" xlink:href="#font_2_1" transform="matrix(7.332866,0,0,-7.3330867,49.638135,22.079487)" fill="#800000"/>
<use data-text="F" xlink:href="#font_2_1" transform="matrix(7.332866,0,0,-7.3330867,53.8912,22.079487)" fill="#800000"/>
</svg>
