<svg xmlns="http://www.w3.org/2000/svg" xmlns:xlink="http://www.w3.org/1999/xlink" version="1.1" width="66" height="61" viewBox="0 0 66 61">
<defs>
<path id="font_1_1" d="M.22099304 .3976593H.31900025C.33799745 .3976593 .34999085 .3976593 .34999085 .4166565 .34999085 .43066407 .33699037 .43066407 .31999208 .43066407H.22898865L.2649994 .57250979C.2689972 .58750918 .2689972 .5924988 .2689972 .5934906 .2689972 .6144867 .25299073 .6244812 .23599243 .6244812 .20199585 .6244812 .19499207 .5974884 .18399048 .552536L.15299988 .43066407H.056991579C.037994386 .43066407 .024993897 .43066407 .024993897 .4116516 .024993897 .3976593 .037994386 .3976593 .054992677 .3976593H.14498902L.084991458 .15802002C.07899475 .13305664 .069992069 .09811401 .069992069 .084121707 .069992069 .024215699 .11898804-.009765625 .17199707-.009765625 .2789917-.009765625 .33999635 .13105774 .33999635 .14303589 .33999635 .15402222 .33099366 .15602112 .32499696 .15602112 .31399537 .15602112 .31298829 .15202332 .30599977 .13705445 .28599549 .08912659 .23599243 .018234253 .1749878 .018234253 .1539917 .018234253 .14199829 .032211305 .14199829 .06515503 .14199829 .084121707 .14498902 .09510803 .147995 .10809326L.22099304 .3976593Z"/>
<path id="font_1_2" d="M.5179901 .37738038C.5219879 .39138795 .5219879 .39338685 .5219879 .40039063 .5219879 .42539979 .5019989 .43139649 .48999024 .43139649 .4850006 .43139649 .46199037 .43040467 .44898988 .40438844 .44699098 .3993988 .43798829 .3633728 .43299867 .34236146L.37298585 .102264408C.37199403 .09925842 .32899476 .018234253 .2559967 .018234253 .20698548 .018234253 .18998719 .054244996 .18998719 .09925842 .18998719 .1572876 .22399903 .24632263 .24699402 .3043518 .25698854 .32936097 .2599945 .33836366 .2599945 .35636903 .2599945 .4113922 .21598816 .44140626 .16999817 .44140626 .070999149 .44140626 .02999878 .300354 .02999878 .28834535 .02999878 .27934266 .036987306 .27534486 .04499817 .27534486 .057998659 .27534486 .05899048 .28134156 .06199646 .29135133 .08799744 .37838746 .1309967 .4133911 .16699219 .4133911 .18199158 .4133911 .19099427 .4033966 .19099427 .38038636 .19099427 .359375 .18299866 .33636476 .17599488 .31835938 .1349945 .21231079 .117996219 .1612854 .117996219 .11427307 .117996219 .016220093 .19198609-.009765625 .25099183-.009765625 .2979889-.009765625 .33198548 .011230469 .35598756 .034240724 .34199525-.021774292 .33198548-.060791017 .2939911-.108795169 .26098634-.14985657 .22099304-.17610169 .17599488-.17610169 .15899658-.17610169 .12098694-.17308045 .100997928-.14279175 .1539917-.13879395 .1579895-.09379578 .1579895-.08778381 .1579895-.06378174 .13999939-.05078125 .11898804-.05078125 .09700012-.05078125 .06199646-.0677948 .06199646-.11679077 .06199646-.1639862 .10499573-.20410156 .17599488-.20410156 .27799989-.20410156 .3929901-.121795658 .4229889-.00077819827L.5179901 .37738038Z"/>
<path id="font_2_1" d="M.79599 .22436524C.81199648 .22436524 .83699038 .22436524 .83699038 .2503662 .83699038 .2763672 .81199648 .2763672 .79599 .2763672H.1659851C.1499939 .2763672 .125 .2763672 .125 .2503662 .125 .22436524 .1499939 .22436524 .1659851 .22436524H.79599Z"/>
<path id="font_3_2" d="M.35899354 .6349335C.35899354 .66503909 .35499574 .66503909 .32499696 .66503909 .25898744 .60058596 .15699768 .60058596 .12098694 .60058596V.5615845C.14698792 .5615845 .21299744 .5615845 .272995 .58958438V.08496094C.272995 .051986696 .272995 .038986207 .16999817 .038986207H.1269989V0C.18199158 .0039978029 .2599945 .0039978029 .31599427 .0039978029 .37199403 .0039978029 .44999696 .0039978029 .5049896 0V.038986207H.46199037C.35899354 .038986207 .35899354 .051986696 .35899354 .08496094V.6349335Z"/>
<path id="font_3_1" d="M.5499878 .31877137C.5499878 .39183045 .5499878 .66503909 .30499269 .66503909 .05999756 .66503909 .05999756 .39183045 .05999756 .31877137 .05999756 .2467041 .05999756-.021484375 .30499269-.021484375 .5499878-.021484375 .5499878 .2467041 .5499878 .31877137M.30499269 .010513306C.2630005 .010513306 .19499207 .030517579 .17098999 .113601688 .15499878 .17164612 .15499878 .2697296 .15499878 .33177186 .15499878 .39883424 .15499878 .4758911 .16899109 .52993777 .19400025 .6200104 .269989 .6330261 .30499269 .6330261 .35099793 .6330261 .4169922 .6110077 .43899537 .5349426 .45399476 .48190309 .45498658 .408844 .45498658 .33177186 .45498658 .26771546 .45498658 .16664124 .43798829 .1105957 .4099884 .023513794 .33799745 .010513306 .30499269 .010513306Z"/>
</defs>
<path transform="matrix(1.00003,0,0,-1.00009,35.692209,30.374653)" stroke-width=".3985" stroke-linecap="butt" stroke-miterlimit="10" stroke-linejoin="miter" fill="none" stroke="#cbcbcb" d="M-11.33855-22.6771V22.6771"/>
<path transform="matrix(1.00003,0,0,-1.00009,35.692209,30.374653)" stroke-width=".3985" stroke-linecap="butt" stroke-miterlimit="10" stroke-linejoin="miter" fill="none" stroke="#cbcbcb" d="M0-22.6771V22.6771"/>
<path transform="matrix(1.00003,0,0,-1.00009,35.692209,30.374653)" stroke-width=".3985" stroke-linecap="butt" stroke-miterlimit="10" stroke-linejoin="miter" fill="none" stroke="#cbcbcb" d="M11.33855-22.6771V22.6771"/>
<path transform="matrix(1.00003,0,0,-1.00009,35.692209,30.374653)" stroke-width=".3985" stroke-linecap="butt" stroke-miterlimit="10" stroke-linejoin="miter" fill="none" stroke="#cbcbcb" d="M-22.6771-11.33855H22.6771"/>
<path transform="matrix(1.00003,0,0,-1.00009,35.692209,30.374653)" stroke-width=".3985" stroke-linecap="butt" stroke-miterlimit="10" stroke-linejoin="miter" fill="none" stroke="#cbcbcb" d="M-22.6771 0H22.6771"/>
<path transform="matrix(1.00003,0,0,-1.00009,35.692209,30.374653)" stroke-width=".3985" stroke-linecap="butt" stroke-miterlimit="10" stroke-linejoin="miter" fill="none" stroke="#cbcbcb" d="M-22.6771 11.33855H22.6771"/>
<path transform="matrix(1.00003,0,0,-1.00009,35.692209,30.374653)" stroke-width=".3985" stroke-linecap="butt" stroke-miterlimit="10" stroke-linejoin="miter" fill="none" stroke="#000000" d="M-22.6771 0H29.08177"/>
<path transform="matrix(1.00003,0,0,-1.00009,64.974109,30.374653)" stroke-width=".3985" stroke-linecap="round" stroke-linejoin="round" fill="none" stroke="#000000" d="M-2.07224 2.39104C-1.69365 .95639-.84999 .27895 0 0-.84999-.27895-1.69365-.95639-2.07224-2.39104"/>
<use data-text="t" xlink:href="#font_1_1" transform="matrix(7.9703395,0,0,-7.970817,60.80896,39.11344)"/>
<path transform="matrix(1.00003,0,0,-1.00009,35.692209,30.374653)" stroke-width=".3985" stroke-linecap="butt" stroke-miterlimit="10" stroke-linejoin="miter" fill="none" stroke="#000000" d="M0-22.6771V29.08177"/>
<path transform="matrix(0,-1.00009,-1.00003,-0,35.692209,1.0909977)" stroke-width=".3985" stroke-linecap="round" stroke-linejoin="round" fill="none" stroke="#000000" d="M-2.07224 2.39104C-1.69365 .95639-.84999 .27895 0 0-.84999-.27895-1.69365-.95639-2.07224-2.39104"/>
<use data-text="y" xlink:href="#font_1_2" transform="matrix(7.9703395,0,0,-7.970817,27.384957,4.668339)"/>
<path transform="matrix(1.00003,0,0,-1.00009,35.692209,30.374653)" stroke-width=".3985" stroke-linecap="butt" stroke-miterlimit="10" stroke-linejoin="miter" fill="none" stroke="#cbcbcb" d="M-22.6771-22.6771V22.6771H22.6771V-22.6771ZM22.6771 22.6771"/>
<path transform="matrix(1.00003,0,0,-1.00009,35.692209,30.374653)" stroke-width=".3985" stroke-linecap="butt" stroke-miterlimit="10" stroke-linejoin="miter" fill="none" stroke="#000000" d="M-11.33855-23.811V-21.54315"/>
<use data-text="&#x2212;" xlink:href="#font_2_1" transform="matrix(5.97778,0,0,-5.978138,16.813637,59.608285)"/>
<use data-text="1" xlink:href="#font_3_2" transform="matrix(5.97778,0,0,-5.978138,22.569809,59.608285)"/>
<path transform="matrix(1.00003,0,0,-1.00009,35.692209,30.374653)" stroke-width=".3985" stroke-linecap="butt" stroke-miterlimit="10" stroke-linejoin="miter" fill="none" stroke="#000000" d="M0-23.811V-21.54315"/>
<use data-text="0" xlink:href="#font_3_1" transform="matrix(5.97778,0,0,-5.978138,33.86615,59.608285)"/>
<path transform="matrix(1.00003,0,0,-1.00009,35.692209,30.374653)" stroke-width=".3985" stroke-linecap="butt" stroke-miterlimit="10" stroke-linejoin="miter" fill="none" stroke="#000000" d="M11.33855-23.811V-21.54315"/>
<use data-text="1" xlink:href="#font_3_2" transform="matrix(5.97778,0,0,-5.978138,45.204496,59.608285)"/>
<path transform="matrix(1.00003,0,0,-1.00009,35.692209,30.374653)" stroke-width=".3985" stroke-linecap="butt" stroke-miterlimit="10" stroke-linejoin="miter" fill="none" stroke="#000000" d="M-23.811-11.33855H-21.54315"/>
<use data-text="&#x2212;" xlink:href="#font_2_1" transform="matrix(5.97778,0,0,-5.978138,.9031601,43.22581)"/>
<use data-text="1" xlink:href="#font_3_2" transform="matrix(5.97778,0,0,-5.978138,6.6593325,43.22581)"/>
<path transform="matrix(1.00003,0,0,-1.00009,35.692209,30.374653)" stroke-width=".3985" stroke-linecap="butt" stroke-miterlimit="10" stroke-linejoin="miter" fill="none" stroke="#000000" d="M-23.811 0H-21.54315"/>
<use data-text="0" xlink:href="#font_3_1" transform="matrix(5.97778,0,0,-5.978138,6.6603319,32.300828)"/>
<path transform="matrix(1.00003,0,0,-1.00009,35.692209,30.374653)" stroke-width=".3985" stroke-linecap="butt" stroke-miterlimit="10" stroke-linejoin="miter" fill="none" stroke="#000000" d="M-23.811 11.33855H-21.54315"/>
<use data-text="1" xlink:href="#font_3_2" transform="matrix(5.97778,0,0,-5.978138,6.6603319,20.961808)"/>
<path transform="matrix(1.00003,0,0,-1.00009,35.692209,30.374653)" stroke-width="1.0959" stroke-linecap="butt" stroke-miterlimit="10" stroke-linejoin="miter" fill="none" stroke="#409f9f" d="M-15.30693-11.33855H-7.37015"/>
<path transform="matrix(1.00003,0,0,-1.00009,35.692209,30.374653)" d="M-10.74078-11.33855C-10.74078-11.0084-11.0084-10.74078-11.33855-10.74078-11.66867-10.74078-11.9363-11.0084-11.9363-11.33855-11.9363-11.66867-11.66867-11.9363-11.33855-11.9363-11.0084-11.9363-10.74078-11.66867-10.74078-11.33855ZM-11.33855-11.33855" fill="#ffffff"/>
<path transform="matrix(1.00003,0,0,-1.00009,35.692209,30.374653)" stroke-width=".3985" stroke-linecap="butt" stroke-miterlimit="10" stroke-linejoin="miter" fill="none" stroke="#000000" d="M-10.74078-11.33855C-10.74078-11.0084-11.0084-10.74078-11.33855-10.74078-11.66867-10.74078-11.9363-11.0084-11.9363-11.33855-11.9363-11.66867-11.66867-11.9363-11.33855-11.9363-11.0084-11.9363-10.74078-11.66867-10.74078-11.33855ZM-11.33855-11.33855"/>
<path transform="matrix(1.00003,0,0,-1.00009,35.692209,30.374653)" stroke-width="1.0959" stroke-linecap="butt" stroke-miterlimit="10" stroke-linejoin="miter" fill="none" stroke="#409f9f" d="M-14.14427-2.80573-8.5328 2.80573"/>
<path transform="matrix(1.00003,0,0,-1.00009,35.692209,30.374653)" d="M-10.74078 0C-10.74078 .33012-11.0084 .59775-11.33855 .59775-11.66867 .59775-11.9363 .33012-11.9363 0-11.9363-.33012-11.66867-.59775-11.33855-.59775-11.0084-.59775-10.74078-.33012-10.74078 0ZM-11.33855 0" fill="#ffffff"/>
<path transform="matrix(1.00003,0,0,-1.00009,35.692209,30.374653)" stroke-width=".3985" stroke-linecap="butt" stroke-miterlimit="10" stroke-linejoin="miter" fill="none" stroke="#000000" d="M-10.74078 0C-10.74078 .33012-11.0084 .59775-11.33855 .59775-11.66867 .59775-11.9363 .33012-11.9363 0-11.9363-.33012-11.66867-.59775-11.33855-.59775-11.0084-.59775-10.74078-.33012-10.74078 0ZM-11.33855 0"/>
<path transform="matrix(1.00003,0,0,-1.00009,35.692209,30.374653)" stroke-width="1.0959" stroke-linecap="butt" stroke-miterlimit="10" stroke-linejoin="miter" fill="none" stroke="#409f9f" d="M-13.1133 7.78903-9.56378 14.88805"/>
<path transform="matrix(1.00003,0,0,-1.00009,35.692209,30.374653)" d="M-10.74078 11.33855C-10.74078 11.66867-11.0084 11.9363-11.33855 11.9363-11.66867 11.9363-11.9363 11.66867-11.9363 11.33855-11.9363 11.0084-11.66867 10.74078-11.33855 10.74078-11.0084 10.74078-10.74078 11.0084-10.74078 11.33855ZM-11.33855 11.33855" fill="#ffffff"/>
<path transform="matrix(1.00003,0,0,-1.00009,35.692209,30.374653)" stroke-width=".3985" stroke-linecap="butt" stroke-miterlimit="10" stroke-linejoin="miter" fill="none" stroke="#000000" d="M-10.74078 11.33855C-10.74078 11.66867-11.0084 11.9363-11.33855 11.9363-11.66867 11.9363-11.9363 11.66867-11.9363 11.33855-11.9363 11.0084-11.66867 10.74078-11.33855 10.74078-11.0084 10.74078-10.74078 11.0084-10.74078 11.33855ZM-11.33855 11.33855"/>
<path transform="matrix(1.00003,0,0,-1.00009,35.692209,30.374653)" stroke-width="1.0959" stroke-linecap="butt" stroke-miterlimit="10" stroke-linejoin="miter" fill="none" stroke="#409f9f" d="M-2.80573-8.53246 2.80573-14.14462"/>
<path transform="matrix(1.00003,0,0,-1.00009,35.692209,30.374653)" d="M.59775-11.33855C.59775-11.0084 .33012-10.74078 0-10.74078-.33012-10.74078-.59775-11.0084-.59775-11.33855-.59775-11.66867-.33012-11.9363 0-11.9363 .33012-11.9363 .59775-11.66867 .59775-11.33855ZM0-11.33855" fill="#ffffff"/>
<path transform="matrix(1.00003,0,0,-1.00009,35.692209,30.374653)" stroke-width=".3985" stroke-linecap="butt" stroke-miterlimit="10" stroke-linejoin="miter" fill="none" stroke="#000000" d="M.59775-11.33855C.59775-11.0084 .33012-10.74078 0-10.74078-.33012-10.74078-.59775-11.0084-.59775-11.33855-.59775-11.66867-.33012-11.9363 0-11.9363 .33012-11.9363 .59775-11.66867 .59775-11.33855ZM0-11.33855"/>
<path transform="matrix(1.00003,0,0,-1.00009,35.692209,30.374653)" stroke-width="1.0959" stroke-linecap="butt" stroke-miterlimit="10" stroke-linejoin="miter" fill="none" stroke="#409f9f" d="M-3.96838 0H3.96838"/>
<path transform="matrix(1.00003,0,0,-1.00009,35.692209,30.374653)" d="M.59775 0C.59775 .33012 .33012 .59775 0 .59775-.33012 .59775-.59775 .33012-.59775 0-.59775-.33012-.33012-.59775 0-.59775 .33012-.59775 .59775-.33012 .59775 0ZM0 0" fill="#ffffff"/>
<path transform="matrix(1.00003,0,0,-1.00009,35.692209,30.374653)" stroke-width=".3985" stroke-linecap="butt" stroke-miterlimit="10" stroke-linejoin="miter" fill="none" stroke="#000000" d="M.59775 0C.59775 .33012 .33012 .59775 0 .59775-.33012 .59775-.59775 .33012-.59775 0-.59775-.33012-.33012-.59775 0-.59775 .33012-.59775 .59775-.33012 .59775 0ZM0 0"/>
<path transform="matrix(1.00003,0,0,-1.00009,35.692209,30.374653)" stroke-width="1.0959" stroke-linecap="butt" stroke-miterlimit="10" stroke-linejoin="miter" fill="none" stroke="#409f9f" d="M-2.80573 8.5328 2.80573 14.14427"/>
<path transform="matrix(1.00003,0,0,-1.00009,35.692209,30.374653)" d="M.59775 11.33855C.59775 11.66867 .33012 11.9363 0 11.9363-.33012 11.9363-.59775 11.66867-.59775 11.33855-.59775 11.0084-.33012 10.74078 0 10.74078 .33012 10.74078 .59775 11.0084 .59775 11.33855ZM0 11.33855" fill="#ffffff"/>
<path transform="matrix(1.00003,0,0,-1.00009,35.692209,30.374653)" stroke-width=".3985" stroke-linecap="butt" stroke-miterlimit="10" stroke-linejoin="miter" fill="none" stroke="#000000" d="M.59775 11.33855C.59775 11.66867 .33012 11.9363 0 11.9363-.33012 11.9363-.59775 11.66867-.59775 11.33855-.59775 11.0084-.33012 10.74078 0 10.74078 .33012 10.74078 .59775 11.0084 .59775 11.33855ZM0 11.33855"/>
<path transform="matrix(1.00003,0,0,-1.00009,35.692209,30.374653)" stroke-width="1.0959" stroke-linecap="butt" stroke-miterlimit="10" stroke-linejoin="miter" fill="none" stroke="#409f9f" d="M9.56378-7.78903 13.1133-14.88805"/>
<path transform="matrix(1.00003,0,0,-1.00009,35.692209,30.374653)" d="M11.9363-11.33855C11.9363-11.0084 11.66867-10.74078 11.33855-10.74078 11.0084-10.74078 10.74078-11.0084 10.74078-11.33855 10.74078-11.66867 11.0084-11.9363 11.33855-11.9363 11.66867-11.9363 11.9363-11.66867 11.9363-11.33855ZM11.33855-11.33855" fill="#ffffff"/>
<path transform="matrix(1.00003,0,0,-1.00009,35.692209,30.374653)" stroke-width=".3985" stroke-linecap="butt" stroke-miterlimit="10" stroke-linejoin="miter" fill="none" stroke="#000000" d="M11.9363-11.33855C11.9363-11.0084 11.66867-10.74078 11.33855-10.74078 11.0084-10.74078 10.74078-11.0084 10.74078-11.33855 10.74078-11.66867 11.0084-11.9363 11.33855-11.9363 11.66867-11.9363 11.9363-11.66867 11.9363-11.33855ZM11.33855-11.33855"/>
<path transform="matrix(1.00003,0,0,-1.00009,35.692209,30.374653)" stroke-width="1.0959" stroke-linecap="butt" stroke-miterlimit="10" stroke-linejoin="miter" fill="none" stroke="#409f9f" d="M8.5328 2.80608 14.14427-2.80608"/>
<path transform="matrix(1.00003,0,0,-1.00009,35.692209,30.374653)" d="M11.9363 0C11.9363 .33012 11.66867 .59775 11.33855 .59775 11.0084 .59775 10.74078 .33012 10.74078 0 10.74078-.33012 11.0084-.59775 11.33855-.59775 11.66867-.59775 11.9363-.33012 11.9363 0ZM11.33855 0" fill="#ffffff"/>
<path transform="matrix(1.00003,0,0,-1.00009,35.692209,30.374653)" stroke-width=".3985" stroke-linecap="butt" stroke-miterlimit="10" stroke-linejoin="miter" fill="none" stroke="#000000" d="M11.9363 0C11.9363 .33012 11.66867 .59775 11.33855 .59775 11.0084 .59775 10.74078 .33012 10.74078 0 10.74078-.33012 11.0084-.59775 11.33855-.59775 11.66867-.59775 11.9363-.33012 11.9363 0ZM11.33855 0"/>
<path transform="matrix(1.00003,0,0,-1.00009,35.692209,30.374653)" stroke-width="1.0959" stroke-linecap="butt" stroke-miterlimit="10" stroke-linejoin="miter" fill="none" stroke="#409f9f" d="M7.37015 11.33855H15.30693"/>
<path transform="matrix(1.00003,0,0,-1.00009,35.692209,30.374653)" d="M11.9363 11.33855C11.9363 11.66867 11.66867 11.9363 11.33855 11.9363 11.0084 11.9363 10.74078 11.66867 10.74078 11.33855 10.74078 11.0084 11.0084 10.74078 11.33855 10.74078 11.66867 10.74078 11.9363 11.0084 11.9363 11.33855ZM11.33855 11.33855" fill="#ffffff"/>
<path transform="matrix(1.00003,0,0,-1.00009,35.692209,30.374653)" stroke-width=".3985" stroke-linecap="butt" stroke-miterlimit="10" stroke-linejoin="miter" fill="none" stroke="#000000" d="M11.9363 11.33855C11.9363 11.66867 11.66867 11.9363 11.33855 11.9363 11.0084 11.9363 10.74078 11.66867 10.74078 11.33855 10.74078 11.0084 11.0084 10.74078 11.33855 10.74078 11.66867 10.74078 11.9363 11.0084 11.9363 11.33855ZM11.33855 11.33855"/>
</svg>
