<svg xmlns="http://www.w3.org/2000/svg" xmlns:xlink="http://www.w3.org/1999/xlink" version="1.1" width="144" height="61" viewBox="0 0 144 61">
<defs>
<path id="font_1_2" d="M.42799378 .45222474 .43899537 .49023438H.31199647L.34599305 .6092224 .33399964 .6162262 .23699951 .53923037 .22399903 .49023438H.14299011L.13198853 .45222474H.21499634L.125 .08627319C.10998535 .029266358 .12199402-.01171875 .17199707-.01171875 .2519989-.01171875 .31599427 .054275514 .35598756 .1292572L.33399964 .1462555C.31098939 .10726929 .2599945 .040267946 .22898865 .040267946 .20799256 .040267946 .20799256 .0632782 .21398926 .088272098L.30299378 .45222474H.42799378Z"/>
<path id="font_2_3" d="M.07398987 .2861328V.21612549H.31900025V.2861328H.07398987Z"/>
<path id="font_2_6" d="M.4850006 .13195801 .45700074 .13696289C.43598939 .08299255 .41600038 .07598877 .37599183 .07598877H.11999512C.13598633 .1279602 .19499207 .19892884 .28799439 .2658844 .38398744 .33584596 .45799256 .38082887 .45799256 .49276734 .45799256 .63168337 .3659973 .6796875 .26098634 .6796875 .12399292 .6796875 .052993776 .5967102 .052993776 .54473879 .052993776 .51075747 .09098816 .49476625 .10798645 .49476625 .12599182 .49476625 .1329956 .50476077 .13699341 .5217438 .15299988 .5897064 .19198609 .64468386 .2539978 .64468386 .33099366 .64468386 .35299684 .5797119 .35299684 .50675967 .35299684 .3998108 .29899598 .33984376 .21199036 .26289369 .08898926 .15594483 .04598999 .08798218 .026992798 .009994507L.036987306 0H.45098878L.4850006 .13195801Z"/>
<path id="font_2_5" d="M.43699647 0V.0289917L.35299684 .035995485C.33198548 .037994386 .31999208 .04598999 .31999208 .08496094V.67367556L.31498719 .6796875 .10899353 .6446991V.6197052L.20199585 .6087036C.21899414 .6067047 .22599793 .5987091 .22599793 .56973269V.08496094C.22599793 .065979007 .22299195 .053985597 .21699524 .04698181 .21199036 .039993287 .20399475 .036987306 .19299317 .035995485L.10899353 .0289917V0H.43699647Z"/>
<path id="font_2_4" d="M.2649994 .64468386C.3600006 .64468386 .3869934 .49682618 .3869934 .33398438 .3869934 .17112732 .3600006 .023269654 .2649994 .023269654 .16999817 .023269654 .14299011 .17112732 .14299011 .33398438 .14299011 .49682618 .16999817 .64468386 .2649994 .64468386M.2649994 .6796875C.099990848 .6796875 .040985109 .53378298 .040985109 .33398438 .040985109 .13417053 .099990848-.01171875 .2649994-.01171875 .42999269-.01171875 .4889984 .13417053 .4889984 .33398438 .4889984 .53378298 .42999269 .6796875 .2649994 .6796875Z"/>
<path id="font_3_2" d="M.6349945 .07472229 .17298889 .28173829 .6349945 .48875428V.5517578L.084991458 .31674195V.24673462L.6349945 .01171875V.07472229Z"/>
<path id="font_3_1" d="M.6349945-.0078125V.050186159H.084991458V-.0078125H.6349945M.084991458 .14318848 .6349945 .32221986V.39222718L.084991458 .5722656V.5092468L.5469971 .3572235 .084991458 .20620728V.14318848Z"/>
<path id="font_1_1" d="M.18699646 .6923828 .17999268 .66337588 .23899842 .658371C.2619934 .6563721 .2689972 .64237979 .26098634 .609375L.1769867 .25634767C.12998963 .05734253 .23799134-.0146484379 .4099884-.0146484379 .54599-.0146484379 .67099 .014343262 .7259979 .24736023L.8109894 .609375C.81900027 .6433716 .8279877 .6563721 .8529968 .658371L.9079895 .66337588 .9149933 .6923828H.6409912L.6339874 .66337588 .69299319 .658371C.71598818 .6563721 .72299197 .64237979 .71499636 .609375L.6339874 .26036073C.6029968 .12734986 .55400088 .020339966 .4149933 .020339966 .3039856 .020339966 .23399353 .081344608 .27799989 .26934815L.35699464 .609375C.36499024 .6433716 .37399293 .65737918 .39898683 .65937808L.45399476 .66337588 .46099855 .6923828H.18699646Z"/>
<path id="font_2_1" d="M.1749878 .2822113C.1749878 .56832888 .2619934 .65437319 .32499696 .66737368V.6923828C.1499939 .685379 .10499573 .46829225 .10499573 .2822113 .10499573 .09614563 .1499939-.12094116 .32499696-.12792969V-.10293579C.2669983-.090927127 .1749878-.0059051516 .1749878 .2822113Z"/>
<path id="font_2_2" d="M.1749878 .2822113C.1749878-.0059051516 .08299255-.090927127 .024993897-.10293579V-.12792969C.19999695-.12094116 .24499512 .09614563 .24499512 .2822113 .24499512 .46829225 .19999695 .685379 .024993897 .6923828V.66737368C.08799744 .65437319 .1749878 .56832888 .1749878 .2822113Z"/>
<path id="font_2_10" d="M.18998719 .7480469C.13999939 .7020416 .07199097 .6350403 .07199097 .56404116 .07199097 .5100403 .10398865 .47703553 .13699341 .4780426 .16699219 .4780426 .18499756 .4990387 .18499756 .5260315 .18499756 .56204226 .1519928 .58303835 .1519928 .6200409 .1519928 .6580353 .17599488 .6960449 .20698548 .7320404L.18998719 .7480469M.36999513 .7480469C.31999208 .7020416 .2519989 .6350403 .2519989 .56404116 .2519989 .5100403 .28399659 .47703553 .31698609 .4780426 .34700013 .4780426 .36499024 .4990387 .36499024 .5260315 .36499024 .56204226 .33198548 .58303835 .33198548 .6200409 .33198548 .6580353 .35598756 .6960449 .3869934 .7320404L.36999513 .7480469Z"/>
<path id="font_2_9" d="M.28799439 .5019531C.12799073 .5019531 .04899597 .40698243 .04899597 .24510193 .04899597 .083236698 .12799073-.01171875 .28799439-.01171875 .44999696-.01171875 .5279999 .083236698 .5279999 .24510193 .5279999 .40698243 .44999696 .5019531 .28799439 .5019531M.15299988 .24510193C.15299988 .38301087 .19699097 .46694947 .28799439 .46694947 .3809967 .46694947 .42399598 .38301087 .42399598 .24510193 .42399598 .10720825 .3809967 .023269654 .28799439 .023269654 .19699097 .023269654 .15299988 .10720825 .15299988 .24510193Z"/>
<path id="font_2_7" d="M.20098877 .45022584H.32299806V.49023438H.20098877L.19699097 .60220339C.19400025 .6971741 .22898865 .70718386 .24499512 .70718386 .2659912 .70718386 .28799439 .6971741 .31298829 .6391907 .31799317 .62919619 .32499696 .6221924 .33999635 .6221924 .3600006 .6221924 .3889923 .6391907 .3889923 .66918948 .3889923 .70217898 .34700013 .7421875 .2669983 .7421875 .21199036 .7421875 .16499329 .71717837 .13999939 .67918398 .116989139 .64419558 .10699463 .5912018 .10699463 .5252228V.49023438H.02999878V.45022584H.10699463V.087020877C.10699463 .035995485 .10398865 .033996583 .03199768 .0289917V0H.29599V.0289917C.20498657 .032989503 .20098877 .034988405 .20098877 .08602905V.45022584Z"/>
<path id="font_2_11" d="M.08898926 .47218324C.13899231 .5181732 .20698548 .58517459 .20698548 .6561737 .20698548 .71017459 .1749878 .7431793 .14199829 .7421875 .11199951 .7421875 .09399414 .72117617 .09399414 .69418337 .09399414 .6581726 .1269989 .6371765 .1269989 .60017397 .1269989 .56217959 .102996829 .5241852 .07199097 .48817445L.08898926 .47218324M.2689972 .47218324C.31900025 .5181732 .3869934 .58517459 .3869934 .6561737 .3869934 .71017459 .35499574 .7431793 .32199098 .7421875 .2919922 .7421875 .27398683 .72117617 .27398683 .69418337 .27398683 .6581726 .30699159 .6371765 .30699159 .60017397 .30699159 .56217959 .2829895 .5241852 .2519989 .48817445L.2689972 .47218324Z"/>
<path id="font_2_8" d="M.5289917 .34295655C.5289917 .4439392 .47399903 .5019531 .38198854 .5019531 .30799867 .5019531 .2619934 .46594239 .19999695 .4259491L.18598938 .5019531 .036987306 .47694398V.45195008L.07499695 .4469452C.100997928 .4429474 .10699463 .4379425 .10699463 .40194703V.08699036C.10699463 .035995485 .10398865 .033996583 .03199768 .0289917V0H.27598573V.0289917C.20498657 .033996583 .20098877 .035995485 .20098877 .08699036V.32095338C.20098877 .34596253 .20298767 .35995484 .21099854 .37594605 .23199463 .4149475 .2769928 .44795228 .32998658 .44795228 .397995 .44795228 .43499757 .40994264 .43499757 .32295228V.08699036C.43499757 .035995485 .43199159 .033996583 .3600006 .0289917V0H.60398867V.0289917C.5329895 .033996583 .5289917 .035995485 .5289917 .08699036V.34295655Z"/>
</defs>
<path transform="matrix(1.00009,0,0,-1.00003,70.946338,37.517736)" d="M-69.44937-21.82706V35.71686H0V-21.82706ZM0 35.71686" fill="#d9d9ff"/>
<path transform="matrix(1.00009,0,0,-1.00003,70.946338,37.517736)" d="M0-21.82706V35.71686H69.44937V-21.82706ZM69.44937 35.71686" fill="#d9ffd9"/>
<path transform="matrix(1.00009,0,0,-1.00003,70.946338,37.517736)" stroke-width=".3985" stroke-linecap="butt" stroke-miterlimit="10" stroke-linejoin="miter" fill="none" stroke="#000000" d="M-69.44937 0H68.99109"/>
<path transform="matrix(1.00009,0,0,-1.00003,139.94364,37.517736)" stroke-width=".31879" stroke-linecap="round" stroke-linejoin="round" fill="none" stroke="#000000" d="M-1.19551 1.59401C-1.09587 .99626 0 .09961 .29886 0 0-.09961-1.09587-.99626-1.19551-1.59401"/>
<use data-text="t" xlink:href="#font_1_2" transform="matrix(9.166425,0,0,-9.165875,138.44841,46.56601)"/>
<path transform="matrix(1.00009,0,0,-1.00003,70.946338,37.517736)" stroke-width=".3985" stroke-linecap="butt" stroke-miterlimit="10" stroke-linejoin="miter" fill="none" stroke="#000000" d="M0-21.82706V35.25858"/>
<path transform="matrix(0,-1.00003,-1.00009,-0,70.946338,2.2580949)" stroke-width=".31879" stroke-linecap="round" stroke-linejoin="round" fill="none" stroke="#000000" d="M-1.19551 1.59401C-1.09587 .99626 0 .09961 .29886 0 0-.09961-1.09587-.99626-1.19551-1.59401"/>
<path transform="matrix(1.00009,0,0,-1.00003,70.946338,37.517736)" stroke-width=".3985" stroke-linecap="butt" stroke-miterlimit="10" stroke-linejoin="miter" fill="none" stroke="#b5b5b5" d="M-39.68535 1.98438V-1.98438"/>
<use data-text="-" xlink:href="#font_2_3" transform="matrix(9.166425,0,0,-9.165875,27.027382,48.641069)"/>
<use data-text="2" xlink:href="#font_2_6" transform="matrix(9.166425,0,0,-9.165875,30.620614,48.641069)"/>
<path transform="matrix(1.00009,0,0,-1.00003,70.946338,37.517736)" stroke-width=".3985" stroke-linecap="butt" stroke-miterlimit="10" stroke-linejoin="miter" fill="none" stroke="#b5b5b5" d="M-19.84267 1.98438V-1.98438"/>
<use data-text="-" xlink:href="#font_2_3" transform="matrix(9.166425,0,0,-9.165875,46.87217,48.641069)"/>
<use data-text="1" xlink:href="#font_2_5" transform="matrix(9.166425,0,0,-9.165875,50.4654,48.641069)"/>
<path transform="matrix(1.00009,0,0,-1.00003,70.946338,37.517736)" stroke-width=".3985" stroke-linecap="butt" stroke-miterlimit="10" stroke-linejoin="miter" fill="none" stroke="#b5b5b5" d="M0 1.98438V-1.98438"/>
<use data-text="0" xlink:href="#font_2_4" transform="matrix(9.166425,0,0,-9.165875,68.515117,48.641069)"/>
<path transform="matrix(1.00009,0,0,-1.00003,70.946338,37.517736)" stroke-width=".3985" stroke-linecap="butt" stroke-miterlimit="10" stroke-linejoin="miter" fill="none" stroke="#b5b5b5" d="M19.84267 1.98438V-1.98438"/>
<use data-text="1" xlink:href="#font_2_5" transform="matrix(9.166425,0,0,-9.165875,88.3599,48.641069)"/>
<path transform="matrix(1.00009,0,0,-1.00003,70.946338,37.517736)" stroke-width=".3985" stroke-linecap="butt" stroke-miterlimit="10" stroke-linejoin="miter" fill="none" stroke="#b5b5b5" d="M39.68535 1.98438V-1.98438"/>
<use data-text="2" xlink:href="#font_2_6" transform="matrix(9.166425,0,0,-9.165875,108.20369,48.641069)"/>
<path transform="matrix(1.00009,0,0,-1.00003,70.946338,37.517736)" stroke-width=".3985" stroke-linecap="butt" stroke-miterlimit="10" stroke-linejoin="miter" fill="none" stroke="#b5b5b5" d="M1.98438 19.84267H-1.98438"/>
<use data-text="1" xlink:href="#font_2_5" transform="matrix(9.166425,0,0,-9.165875,61.692506,20.74323)"/>
<path transform="matrix(1.00009,0,0,-1.00003,70.946338,37.517736)" stroke-width="1.19553" stroke-linecap="butt" stroke-miterlimit="10" stroke-linejoin="miter" fill="none" stroke="#0000ff" d="M-69.44937 0H-69.10541-68.76144-68.4175-68.07355-67.7296-67.38565-67.04169-66.69772-66.35379-66.00984-65.66588-65.32191-64.97798-64.63403-64.29007-63.9461-63.60217-63.25821-62.91426-62.57031-62.22636-61.8824-61.53845-61.19449-60.85054-60.50659-60.16263-59.81868-59.47473-59.13078-58.78682-58.44287-58.09892-57.75497-57.41103-57.06706-56.7231-56.37917-56.03522-55.69125-55.34729-55.00336-54.6594-54.31544-53.97148-53.62752-53.28358-52.93964-52.59567-52.25172-51.90778-51.56383-51.21986-50.87592-50.53197-50.188-49.84406-49.5001-49.15616-48.8122-48.46825-48.12428-47.78035-47.43639-47.09242-46.74847-46.40453-46.06058-45.71663-45.37267-45.02872-44.68477-44.34082-43.99686-43.6529-43.30896-42.96501-42.62105-42.27708-41.93315-41.58919-41.24524-40.90129-40.55734-40.21338-39.86943-39.52547-39.18152-38.83757-38.49362-38.14966-37.80571-37.46176-37.1178-36.77385-36.4299-36.08595-35.742-35.39804-35.05408-34.71014-34.3662-34.02223-33.67827-33.33434-32.99037-32.64642-32.30246-31.9585-31.61456-31.27061-30.92667-30.5827-30.23875-29.8948-29.55084-29.2069-28.86295-28.51898-28.17503-27.83109-27.48714-27.14317-26.79922-26.45526-26.11133-25.76738-25.42342-25.07945-24.7355-24.39157-24.0476-23.70364-23.3597-23.01575-22.6718-22.32784-21.98387-21.63994-21.29599-20.95203-20.60806-20.26413-19.92017-19.57622-19.23227-18.88832-18.54436-18.20041-17.85646-17.5125-17.16855-16.8246-16.48064-16.13669-15.79274-15.44878-15.10483-14.76088-14.41693-14.07298-13.72902-13.38506-13.04112-12.69717-12.35321-12.00925-11.66531-11.32135-10.9774-10.63344-10.28949-9.94554-9.6016-9.25764-8.91368-8.56973-8.22578-7.88182-7.53787-7.19392-6.84996-6.50601-6.16206-5.81812-5.47415-5.1302-4.78624-4.4423-4.09836-3.7544-3.41043-3.06648-2.72255-2.37859-2.03462-1.69067-1.34673-1.00278"/>
<path transform="matrix(1.00009,0,0,-1.00003,70.946338,37.517736)" stroke-width="1.19553" stroke-linecap="butt" stroke-miterlimit="10" stroke-linejoin="miter" fill="none" stroke="#009900" d="M0 19.84267H.34877 .69759 1.04637 1.39517 1.74396 2.09276 2.44156 2.79036 3.13916 3.48795 3.83675 4.18553 4.53435 4.88315 5.23193 5.58073 5.92952 6.27834 6.62712 6.97592 7.32472 7.67351 8.02231 8.37111 8.71991 9.0687 9.41751 9.7663 10.1151 10.4639 10.81268 11.16148 11.51027 11.85909 12.20789 12.55667 12.90547 13.25427 13.60306 13.95187 14.30066 14.64946 14.99826 15.34705 15.69585 16.04465 16.39345 16.74223 17.09105 17.43983 17.78864 18.13742 18.48622 18.83504 19.1838 19.53262 19.88141 20.23021 20.57901 20.92781 21.27661 21.6254 21.9742 22.32298 22.6718 23.02057 23.36938 23.71819 24.06697 24.41579 24.76457 25.11337 25.46217 25.81096 26.15977 26.50856 26.85736 27.20615 27.55495 27.90375 28.25255 28.60135 28.95013 29.29895 29.64772 29.99654 30.34534 30.69412 31.04292 31.39171 31.74052 32.08931 32.43811 32.78691 33.13571 33.4845 33.8333 34.1821 34.53088 34.8797 35.22849 35.57729 35.92609 36.27487 36.62367 36.97247 37.32126 37.67007 38.01886 38.36766 38.71646 39.06525 39.41406 39.76285 40.11165 40.46045 40.80925 41.15804 41.50684 41.85564 42.20442 42.55324 42.90201 43.25082 43.59961 43.94841 44.29723 44.64601 44.99481 45.3436 45.6924 46.04118 46.39 46.7388 47.08759 47.43639 47.78517 48.13399 48.48277 48.83157 49.18039 49.52916 49.87798 50.22676 50.57556 50.92436 51.27315 51.62195 51.97075 52.31955 52.66833 53.01715 53.36594 53.71474 54.06354 54.41232 54.76114 55.10991 55.45872 55.80753 56.15631 56.50511 56.85391 57.2027 57.5515 57.9003 58.2491 58.5979 58.94669 59.29549 59.64429 59.99307 60.34187 60.69069 61.03947 61.38828 61.73706 62.08586 62.43468 62.78345 63.13226 63.48105 63.82985 64.17865 64.52745 64.87625 65.22504 65.57384 65.92262 66.27144 66.62022 66.96902 67.31783 67.66661 68.01543 68.36421 68.71301 69.0618 69.4106"/>
<path transform="matrix(1.00009,0,0,-1.00003,70.946338,37.517736)" stroke-width=".79701" stroke-linecap="butt" stroke-miterlimit="10" stroke-linejoin="miter" fill="none" stroke="#0000ff" d="M1.39478 0C1.39478 .77031 .77031 1.39478 0 1.39478-.77031 1.39478-1.39478 .77031-1.39478 0-1.39478-.77031-.77031-1.39478 0-1.39478 .77031-1.39478 1.39478-.77031 1.39478 0ZM0 0"/>
<path transform="matrix(1.00009,0,0,-1.00003,70.946338,37.517736)" d="M1.39478 19.84267C1.39478 20.61298 .77031 21.23744 0 21.23744-.77031 21.23744-1.39478 20.61298-1.39478 19.84267-1.39478 19.07234-.77031 18.44788 0 18.44788 .77031 18.44788 1.39478 19.07234 1.39478 19.84267ZM0 19.84267" fill="#009900"/>
<use data-text="t" xlink:href="#font_1_2" transform="matrix(7.33316,0,0,-7.3327205,28.708527,55.882287)" fill="#0000ff"/>
<use data-text="&#x003c;" xlink:href="#font_3_2" transform="matrix(7.33316,0,0,-7.3327205,33.35594,55.882287)" fill="#0000ff"/>
<use data-text="0" xlink:href="#font_2_4" transform="matrix(7.33316,0,0,-7.3327205,39.996538,55.882287)" fill="#0000ff"/>
<use data-text="t" xlink:href="#font_1_2" transform="matrix(7.33316,0,0,-7.3327205,98.16378,55.882287)" fill="#009900"/>
<use data-text="&#x2265;" xlink:href="#font_3_1" transform="matrix(7.33316,0,0,-7.3327205,102.811199,55.882287)" fill="#009900"/>
<use data-text="0" xlink:href="#font_2_4" transform="matrix(7.33316,0,0,-7.3327205,109.45179,55.882287)" fill="#009900"/>
<use data-text="U" xlink:href="#font_1_1" transform="matrix(9.166425,0,0,-9.165875,96.87666,11.6849579)" fill="#009900"/>
<use data-text="(" xlink:href="#font_2_1" transform="matrix(9.166425,0,0,-9.165875,105.236408,11.6849579)" fill="#009900"/>
<use data-text="t" xlink:href="#font_1_2" transform="matrix(9.166425,0,0,-9.165875,108.64371,11.6849579)" fill="#009900"/>
<use data-text=")" xlink:href="#font_2_2" transform="matrix(9.166425,0,0,-9.165875,112.74907,11.6849579)" fill="#009900"/>
<use data-text="&#x201c;" xlink:href="#font_2_10" transform="matrix(7.33316,0,0,-7.3327205,28.466507,30.310519)" fill="#0000ff"/>
<use data-text="o" xlink:href="#font_2_9" transform="matrix(7.33316,0,0,-7.3327205,31.23845,30.310519)" fill="#0000ff"/>
<use data-text="f" xlink:href="#font_2_7" transform="matrix(7.33316,0,0,-7.3327205,35.46968,30.310519)" fill="#0000ff"/>
<use data-text="f" xlink:href="#font_2_7" transform="matrix(7.33316,0,0,-7.3327205,37.80896,30.310519)" fill="#0000ff"/>
<use data-text="&#x201d;" xlink:href="#font_2_11" transform="matrix(7.33316,0,0,-7.3327205,40.610216,30.310519)" fill="#0000ff"/>
<use data-text="&#x201c;" xlink:href="#font_2_10" transform="matrix(7.33316,0,0,-7.3327205,98.52382,30.310519)" fill="#009900"/>
<use data-text="o" xlink:href="#font_2_9" transform="matrix(7.33316,0,0,-7.3327205,101.29576,30.310519)" fill="#009900"/>
<use data-text="n" xlink:href="#font_2_8" transform="matrix(7.33316,0,0,-7.3327205,105.52699,30.310519)" fill="#009900"/>
<use data-text="&#x201d;" xlink:href="#font_2_11" transform="matrix(7.33316,0,0,-7.3327205,109.47223,30.310519)" fill="#009900"/>
</svg>
