<svg xmlns="http://www.w3.org/2000/svg" xmlns:xlink="http://www.w3.org/1999/xlink" version="1.1" width="135" height="134" viewBox="0 0 135 134">
<defs>
<path id="font_1_1" d="M.43199159 .49023438H.3019867L.32998658 .6031952C.34899903 .67918398 .36799623 .70718386 .3959961 .70718386 .4229889 .70718386 .44099427 .68518069 .46299745 .6371918 .46798707 .62719729 .47499085 .6201935 .48999024 .6201935 .5099945 .6201935 .5389862 .6391907 .5389862 .6641846 .5389862 .70718386 .4850006 .7421875 .4249878 .7421875 .3600006 .7421875 .31799317 .71517947 .2849884 .67318728 .2539978 .63420107 .23399353 .5802002 .21998596 .5272217L.20999146 .49023438H.12298584L.11199951 .45222474H.20098877L.084991458-.137146C.07299805-.19918823 .06298828-.2052002 .052993776-.2052002 .041992189-.2052002 .026992798-.19718933 0-.15615845-.007003784-.14616394-.014007568-.13415528-.027008057-.13415528-.04901123-.13415528-.072006229-.15916443-.072006229-.18418885-.071014408-.2171936-.028015137-.2421875 .018997193-.2421875 .11898804-.2421875 .16099549-.16116333 .20298767 .030960083L.29599 .45222474H.42199708L.43199159 .49023438Z"/>
<path id="font_2_1" d="M.1749878 .2822113C.1749878 .56832888 .2619934 .65437319 .32499696 .66737368V.6923828C.1499939 .685379 .10499573 .46829225 .10499573 .2822113 .10499573 .09614563 .1499939-.12094116 .32499696-.12792969V-.10293579C.2669983-.090927127 .1749878-.0059051516 .1749878 .2822113Z"/>
<path id="font_1_3" d="M.070999149 .45393373 .07398987 .42893983 .14199829 .43093873C.1639862 .43193055 .16899109 .41493226 .1769867 .36291505 .18798828 .28489686 .20999146 .09286499 .20999146 .0128479 .20999146-.017166138 .20799256-.058166505 .18598938-.11117554 .16799927-.15318299 .14199829-.18218994 .12199402-.18218994 .10699463-.18218994 .09599304-.17118836 .08099365-.15118408 .068984989-.13517761 .06098938-.127182 .04598999-.127182 .019989014-.12818909-.005004883-.15818787-.005004883-.18719483-.005004883-.21418762 .023986817-.2421875 .067993167-.2421875 .15299988-.2421875 .18998719-.17919922 .27799989-.027160645 .2979889 .0068511965 .35798646 .11286926 .41999818 .21488953 .47698976 .30891419 .5399933 .40592958 .5399933 .4459381 .5399933 .48094178 .5289917 .5019531 .5219879 .5019531 .5029907 .5019531 .46899415 .49394227 .44400025 .47694398 .44499208 .4419403 .44299317 .3809204 .43099977 .33891297 .4149933 .28289796 .35598756 .17488098 .2899933 .06085205H.2869873C.27999879 .21388245 .26098634 .42492677 .24699402 .49795533L.23899842 .5019531 .070999149 .45393373Z"/>
<path id="font_2_2" d="M.1749878 .2822113C.1749878-.0059051516 .08299255-.090927127 .024993897-.10293579V-.12792969C.19999695-.12094116 .24499512 .09614563 .24499512 .2822113 .24499512 .46829225 .19999695 .685379 .024993897 .6923828V.66737368C.08799744 .65437319 .1749878 .56832888 .1749878 .2822113Z"/>
<path id="font_2_12" d="M.036987306 .47694398V.45195008L.07499695 .4469452C.100997928 .4429474 .10699463 .43795777 .10699463 .40194703V.08699036C.10699463 .035995485 .10398865 .033996583 .03199768 .0289917V0H.27598573V.0289917C.20498657 .033996583 .20098877 .035995485 .20098877 .08699036V.49609376L.19400025 .5020752 .036987306 .47694398M.15299988 .71484377C.116989139 .71484377 .09199524 .6888428 .09199524 .65283206 .09199524 .61782839 .116989139 .5928345 .15299988 .5928345 .18998719 .5928345 .21299744 .61782839 .21398926 .65283206 .21398926 .6888428 .18998719 .71484377 .15299988 .71484377Z"/>
<path id="font_2_14" d="M.5289917 .34295655C.5289917 .4439392 .47399903 .5019531 .38198854 .5019531 .30799867 .5019531 .2619934 .46594239 .19999695 .4259491L.18598938 .5019531 .036987306 .47694398V.45195008L.07499695 .4469452C.100997928 .4429474 .10699463 .4379425 .10699463 .40194703V.08699036C.10699463 .035995485 .10398865 .033996583 .03199768 .0289917V0H.27598573V.0289917C.20498657 .033996583 .20098877 .035995485 .20098877 .08699036V.32095338C.20098877 .34596253 .20298767 .35995484 .21099854 .37594605 .23199463 .4149475 .2769928 .44795228 .32998658 .44795228 .397995 .44795228 .43499757 .40994264 .43499757 .32295228V.08699036C.43499757 .035995485 .43199159 .033996583 .3600006 .0289917V0H.60398867V.0289917C.5329895 .033996583 .5289917 .035995485 .5289917 .08699036V.34295655Z"/>
<path id="font_2_8" d="M.2999878 .040267946C.18099976 .040267946 .15299988 .16418457 .15299988 .25810243 .15299988 .40699769 .21199036 .46694947 .2809906 .46694947 .32699586 .46694947 .35598756 .43397523 .37599183 .38000489 .38198854 .36402894 .3880005 .35403443 .40699769 .35403443 .4269867 .35403443 .46598817 .36701966 .46598817 .40499879 .46598817 .45095826 .3999939 .5019531 .2919922 .5019531 .10998535 .5019531 .04899597 .37301637 .04899597 .2401123 .04899597 .07324219 .1309967-.01171875 .2809906-.01171875 .35099793-.01171875 .44499208 .025268555 .47299195 .13220215L.44400025 .14619446C.41299439 .07624817 .37298585 .040267946 .2999878 .040267946Z"/>
<path id="font_2_17" d="M.18899536 .5019531 .036987306 .47694398V.45195008L.07499695 .4469452C.100997928 .4429474 .10699463 .4379425 .10699463 .40194703V.08699036C.10699463 .035995485 .101989749 .033996583 .03199768 .0289917V0H.29599V.0289917C.20698548 .033996583 .20098877 .035995485 .20098877 .08699036V.32095338C.20098877 .39794923 .23498535 .4239502 .2579956 .4239502 .27398683 .4239502 .29100038 .4179535 .31999208 .40194703 .32699586 .39794923 .33499146 .39694215 .33999635 .39694215 .3639984 .39694215 .38598634 .4219513 .38598634 .4529419 .38598634 .47494508 .37199403 .5019531 .33299256 .5019531 .29699708 .5019531 .2669983 .47994996 .20098877 .4219513L.18899536 .5019531Z"/>
<path id="font_2_10" d="M.44099427 .2627716C.46199037 .2627716 .48098756 .2677765 .48098756 .30078126 .48098756 .35983277 .46199037 .5019531 .2789917 .5019531 .12298584 .5019531 .04899597 .39086915 .04899597 .24082947 .04899597 .08317566 .116989139-.01373291 .27999879-.01171875 .3909912-.010726929 .44799806 .050247194 .47499085 .1290741L.44499208 .14503479C.4169922 .08717346 .3789978 .039276124 .2999878 .039276124 .17599488 .039276124 .15098572 .15901184 .15299988 .2627716H.44099427M.1539917 .30078126C.1539917 .34181214 .16899109 .46694947 .272995 .46694947 .3659973 .46694947 .3769989 .37184144 .3769989 .33280946 .3769989 .31378175 .37098695 .30078126 .34298707 .30078126H.1539917Z"/>
<path id="font_2_7" d="M.34298707 .14318848C.34298707 .06225586 .2809906 .041275026 .24198914 .041275026 .17999268 .041275026 .1499939 .085235599 .1499939 .14419556 .1499939 .19116211 .17199707 .21513367 .22799683 .23612976 .2679901 .2511139 .32099916 .27009584 .34298707 .28408814V.14318848M.43299867 .36901856C.43299867 .42697145 .41999818 .5019531 .2689972 .5019531 .1559906 .5019531 .066986087 .44296266 .066986087 .3880005 .066986087 .35603334 .10398865 .3410492 .12298584 .3410492 .14399719 .3410492 .1499939 .35203553 .15499878 .36901856 .1769867 .44296266 .21798706 .46694947 .2579956 .46694947 .29699708 .46694947 .34298707 .44696046 .34298707 .36701966V.32505799C.31799317 .29907228 .22099304 .27409364 .14199829 .24911499 .069992069 .22712708 .04899597 .1771698 .04899597 .13020325 .04899597 .055267335 .09899902-.01171875 .19299317-.01171875 .25498963-.009719849 .30999757 .027267456 .34199525 .04826355 .35598756 .011276245 .37199403-.01171875 .40699769-.01171875 .44400025-.01171875 .4869995-.0007324219 .5249939 .01828003L.5189972 .042266847C.5049896 .039276124 .48298646 .03727722 .46798707 .041275026 .44999696 .045272829 .43299867 .06425476 .43299867 .12721253V.36901856Z"/>
<path id="font_2_18" d="M.36698915 .35102845V.46794129C.33399964 .49194337 .2829895 .5019531 .23799134 .5019531 .12998963 .5019531 .056991579 .45095826 .055999757 .35603334 .056991579 .27308656 .12399292 .2361145 .20698548 .21113587 .2519989 .19714356 .31498719 .17416382 .31498719 .10621643 .31498719 .055252077 .2749939 .023269654 .22200012 .023269654 .14099121 .023269654 .09599304 .082229617 .07598877 .16716004H.04699707L.056991579 .03627014C.09298706 .004272461 .1539917-.01171875 .21299744-.01171875 .33198548-.01171875 .3999939 .051254274 .3999939 .13618469 .3999939 .2241211 .34599305 .26409913 .24299622 .29606629 .20199585 .30906678 .13598633 .3300476 .13598633 .3860016 .13699341 .43795777 .17599488 .46694947 .22599793 .46694947 .29699708 .46694947 .33099366 .4119873 .33799745 .35102845H.36698915Z"/>
<path id="font_2_11" d="M.2599945 .46694947C.30899049 .46694947 .3600006 .43093873 .3600006 .33392335 .3600006 .24989319 .31599427 .20588684 .2579956 .20588684 .20199585 .20588684 .15499878 .24989319 .15499878 .33392335 .15499878 .43293763 .20698548 .46694947 .2599945 .46694947M.2809906-.2071991C.19599915-.2071991 .13699341-.16319275 .13699341-.09118652 .13699341-.057174684 .14698792-.032180787 .16799927-.016174317 .18998719 .0008239746 .22299195 .0068359377 .2709961 .0068359377 .35899354 .0068359377 .42399598-.014175415 .42399598-.08918762 .42399598-.16918946 .35198976-.2071991 .2809906-.2071991M.3889923 .47094728C.36099244 .48994447 .30599977 .5019531 .2599945 .5019531 .10699463 .5019531 .052993776 .40792848 .052993776 .33392335 .052993776 .23989868 .114990238 .19688416 .16099549 .18489075V.18289185C.10699463 .1618805 .068984989 .13285828 .068984989 .09384155 .068984989 .05882263 .10899353 .020828248 .15699768 .015823365V.013824463C.11399841-.00016784668 .041992189-.024169922 .041992189-.09617615 .041992189-.19718933 .14199829-.2421875 .2579956-.2421875 .31799317-.2421875 .3809967-.23019409 .42900086-.20118714 .47499085-.17318726 .5079956-.12619019 .5079956-.06417847 .5079956 .043823244 .42199708 .081832889 .31498719 .081832889H.23498535C.16299439 .081832889 .1519928 .10585022 .1519928 .12486267 .1519928 .15388489 .18998719 .16989136 .20298767 .17388916 .22200012 .17189026 .24299622 .17089844 .2539978 .17089844 .34899903 .17089844 .45599366 .21289063 .45599366 .33392335 .45599366 .3759308 .44299317 .41093446 .42599488 .42793275L.5049896 .4399414 .5249939 .50294497 .5169983 .51194766 .3889923 .47094728Z"/>
<path id="font_2_19" d="M.32598878 .45022584V.49023438H.19699097V.6162262H.16799927L.10699463 .49023438H.0309906V.45022584H.102996829V.102264408C.102996829 .0002746582 .1789856-.01171875 .21398926-.01171875 .2649994-.01171875 .31298829 .014266968 .34199525 .03227234L.33399964 .053268434C.30999757 .043273927 .28799439 .040267946 .2630005 .040267946 .22898865 .040267946 .19699097 .06427002 .19699097 .14025879V.45022584H.32598878Z"/>
<path id="font_2_20" d="M.33898927 .49023438V.46122743L.3880005 .45622254C.4039917 .45422364 .40699769 .44322206 .40299989 .42921449 .394989 .39718629 .37599183 .3391571 .35299684 .27511598L.28599549 .08999634H.28399659L.22299195 .25810243C.20298767 .31513978 .18299866 .37316896 .1639862 .42721559 .15699768 .44622804 .16099549 .45422364 .17999268 .45622254L.22499085 .46122743V.49023438H.0009918213V.46122743C.04798889 .4572296 .056991579 .4532318 .07199097 .41619874 .09899902 .3501587 .12199402 .28511048 .14698792 .21607971L.22399903 0H.29599L.3849945 .24209595C.4139862 .32014466 .44299317 .3861847 .45700074 .41819764 .47200013 .4532318 .48298646 .45922853 .5289917 .46122743V.49023438H.33898927Z"/>
<path id="font_2_13" d="M.18899536 .7361908 .18199158 .7421875 .024993897 .71717837V.6921692L.06298828 .6881714C.08898926 .6851654 .09498596 .6801758 .09498596 .6421509V.087005618C.09498596 .035995485 .09199524 .033996583 .019989014 .0289917V0H.2639923V.0289917C.19299317 .033996583 .18899536 .035995485 .18899536 .087005618V.7361908Z"/>
<path id="font_2_15" d="M.28799439 .5019531C.12799073 .5019531 .04899597 .40698243 .04899597 .24510193 .04899597 .083236698 .12799073-.01171875 .28799439-.01171875 .44999696-.01171875 .5279999 .083236698 .5279999 .24510193 .5279999 .40698243 .44999696 .5019531 .28799439 .5019531M.15299988 .24510193C.15299988 .38301087 .19699097 .46694947 .28799439 .46694947 .3809967 .46694947 .42399598 .38301087 .42399598 .24510193 .42399598 .10720825 .3809967 .023269654 .28799439 .023269654 .19699097 .023269654 .15299988 .10720825 .15299988 .24510193Z"/>
<path id="font_2_16" d="M.19400025 .32104493C.19400025 .34602357 .19799805 .36001588 .20698548 .37800599 .22999573 .42396546 .272995 .44795228 .32598878 .44795228 .3659973 .44795228 .45498658 .42196656 .45498658 .25009156 .45498658 .10321045 .40899659 .023269654 .30899049 .023269654 .25698854 .023269654 .21699524 .050247194 .20098877 .096221927 .19499207 .11419678 .19400025 .13418579 .19400025 .15716553V.32104493M.02999878 .47694398V.45195008L.067993167 .4469452C.09399414 .4429474 .099990848 .43795777 .099990848 .40197755V-.14324951C.099990848-.19444275 .09498596-.19645691 .024993897-.20147705V-.23046875H.28399659V-.20147705C.19999695-.19645691 .19400025-.19444275 .19400025-.14324951V.011276245C.21499634-.0007324219 .2619934-.01171875 .30799867-.01171875 .44299317-.01171875 .5589905 .050247194 .5589905 .25608827 .5589905 .32704164 .54599 .5019531 .3639984 .5019531 .29100038 .5019531 .23298645 .4529419 .19400025 .42796327L.18099976 .5019531 .02999878 .47694398Z"/>
<path id="font_2_9" d="M.58299258 0V.0289917C.5119934 .033996583 .5079956 .035995485 .5079956 .08699036V.73617556L.5009918 .7421875 .34399415 .7171478V.6921234L.38198854 .6881256C.4079895 .6851196 .4139862 .68011477 .4139862 .6420746V.47795106C.38598634 .49295045 .34899903 .5019531 .30299378 .5019531 .22099304 .5019531 .1599884 .47595216 .117996219 .43295289 .07499695 .3879547 .04899597 .32196046 .04899597 .2349701 .04899597 .0872345 .12599182-.01171875 .2579956-.01171875 .31199647-.01171875 .35899354 .012268066 .41299439 .056259157V.0069885256L.42099 0H.58299258M.4139862 .16998291C.4139862 .14819336 .41299439 .13121033 .40699769 .114212039 .3869934 .06225586 .34298707 .042266847 .29100038 .042266847 .19898987 .042266847 .15299988 .13220215 .15299988 .24711609 .15299988 .37701417 .19999695 .46694947 .3019867 .46694947 .34899903 .46694947 .3869934 .44496156 .40499879 .4039917 .41299439 .38700868 .4139862 .37301637 .4139862 .34603883V.16998291Z"/>
<path id="font_1_2" d="M.42799378 .45222474 .43899537 .49023438H.31199647L.34599305 .6092224 .33399964 .6162262 .23699951 .53923037 .22399903 .49023438H.14299011L.13198853 .45222474H.21499634L.125 .08627319C.10998535 .029266358 .12199402-.01171875 .17199707-.01171875 .2519989-.01171875 .31599427 .054275514 .35598756 .1292572L.33399964 .1462555C.31098939 .10726929 .2599945 .040267946 .22898865 .040267946 .20799256 .040267946 .20799256 .0632782 .21398926 .088272098L.30299378 .45222474H.42799378Z"/>
<path id="font_2_4" d="M.2649994 .64468386C.3600006 .64468386 .3869934 .49682618 .3869934 .33398438 .3869934 .17112732 .3600006 .023269654 .2649994 .023269654 .16999817 .023269654 .14299011 .17112732 .14299011 .33398438 .14299011 .49682618 .16999817 .64468386 .2649994 .64468386M.2649994 .6796875C.099990848 .6796875 .040985109 .53378298 .040985109 .33398438 .040985109 .13417053 .099990848-.01171875 .2649994-.01171875 .42999269-.01171875 .4889984 .13417053 .4889984 .33398438 .4889984 .53378298 .42999269 .6796875 .2649994 .6796875Z"/>
<path id="font_2_5" d="M.43699647 0V.0289917L.35299684 .035995485C.33198548 .037994386 .31999208 .04598999 .31999208 .08496094V.67367556L.31498719 .6796875 .10899353 .6446991V.6197052L.20199585 .6087036C.21899414 .6067047 .22599793 .5987091 .22599793 .56973269V.08496094C.22599793 .065979007 .22299195 .053985597 .21699524 .04698181 .21199036 .039993287 .20399475 .036987306 .19299317 .035995485L.10899353 .0289917V0H.43699647Z"/>
<path id="font_2_6" d="M.4850006 .13195801 .45700074 .13696289C.43598939 .08299255 .41600038 .07598877 .37599183 .07598877H.11999512C.13598633 .1279602 .19499207 .19892884 .28799439 .2658844 .38398744 .33584596 .45799256 .38082887 .45799256 .49276734 .45799256 .63168337 .3659973 .6796875 .26098634 .6796875 .12399292 .6796875 .052993776 .5967102 .052993776 .54473879 .052993776 .51075747 .09098816 .49476625 .10798645 .49476625 .12599182 .49476625 .1329956 .50476077 .13699341 .5217438 .15299988 .5897064 .19198609 .64468386 .2539978 .64468386 .33099366 .64468386 .35299684 .5797119 .35299684 .50675967 .35299684 .3998108 .29899598 .33984376 .21199036 .26289369 .08898926 .15594483 .04598999 .08798218 .026992798 .009994507L.036987306 0H.45098878L.4850006 .13195801Z"/>
<path id="font_2_3" d="M.07398987 .2861328V.21612549H.31900025V.2861328H.07398987Z"/>
</defs>
<path transform="matrix(1.00009,0,0,-1.00003,53.077806,58.68634)" stroke-width=".3985" stroke-linecap="butt" stroke-miterlimit="10" stroke-linejoin="miter" fill="none" stroke="#000000" d="M-49.88289-19.95276 56.31517 22.52563"/>
<path transform="matrix(.92852357,-.37138114,-.37140344,-.92846789,109.58306,36.08602)" stroke-width=".3985" stroke-linecap="round" stroke-linejoin="round" fill="none" stroke="#000000" d="M-2.07224 2.39104C-1.69365 .95639-.84999 .27895 0 0-.84999-.27895-1.69365-.95639-2.07224-2.39104"/>
<path transform="matrix(1.00009,0,0,-1.00003,53.077806,58.68634)" stroke-width=".3985" stroke-linecap="butt" stroke-miterlimit="10" stroke-linejoin="miter" fill="none" stroke="#000000" d="M0-22.67406V49.48438"/>
<path transform="matrix(0,-1.00003,-1.00009,-0,53.077806,9.001228)" stroke-width=".3985" stroke-linecap="round" stroke-linejoin="round" fill="none" stroke="#000000" d="M-2.07224 2.39104C-1.69365 .95639-.84999 .27895 0 0-.84999-.27895-1.69365-.95639-2.07224-2.39104"/>
<use data-text="f" xlink:href="#font_1_1" transform="matrix(5.499895,0,0,-5.499565,39.37858,13.015968)"/>
<use data-text="(" xlink:href="#font_2_1" transform="matrix(5.499895,0,0,-5.499565,42.45185,13.015968)"/>
<use data-text="y" xlink:href="#font_1_3" transform="matrix(5.499895,0,0,-5.499565,44.67505,13.015968)"/>
<use data-text=")" xlink:href="#font_2_2" transform="matrix(5.499895,0,0,-5.499565,47.75432,13.015968)"/>
<path transform="matrix(1.00009,0,0,-1.00003,53.077806,58.68634)" stroke-width=".3985" stroke-linecap="butt" stroke-dasharray="2.98883,2.98883" stroke-miterlimit="10" stroke-linejoin="miter" fill="none" stroke="#000000" d="M-22.67406 13.60461V-9.06944"/>
<use data-text="i" xlink:href="#font_2_12" transform="matrix(5.499895,-2.1998263,0,-5.499565,15.085388,46.454774)"/>
<use data-text="n" xlink:href="#font_2_14" transform="matrix(5.499895,-2.1998263,0,-5.499565,16.68586,45.814626)"/>
<use data-text="c" xlink:href="#font_2_8" transform="matrix(5.499895,-2.1998263,0,-5.499565,20.090302,44.45293)"/>
<use data-text="r" xlink:href="#font_2_17" transform="matrix(5.499895,-2.1998263,0,-5.499565,22.818245,43.36182)"/>
<use data-text="e" xlink:href="#font_2_10" transform="matrix(5.499895,-2.1998263,0,-5.499565,24.853196,42.54789)"/>
<use data-text="a" xlink:href="#font_2_7" transform="matrix(5.499895,-2.1998263,0,-5.499565,27.680146,41.41718)"/>
<use data-text="s" xlink:href="#font_2_18" transform="matrix(5.499895,-2.1998263,0,-5.499565,30.55658,40.266668)"/>
<use data-text="i" xlink:href="#font_2_12" transform="matrix(5.499895,-2.1998263,0,-5.499565,32.94905,39.309743)"/>
<use data-text="n" xlink:href="#font_2_14" transform="matrix(5.499895,-2.1998263,0,-5.499565,34.549516,38.66959)"/>
<use data-text="g" xlink:href="#font_2_11" transform="matrix(5.499895,-2.1998263,0,-5.499565,37.95395,37.3079)"/>
<use data-text="f" xlink:href="#font_1_1" transform="matrix(5.499895,-2.1998263,0,-5.499565,42.644884,35.43164)"/>
<path transform="matrix(1.00009,0,0,-1.00003,53.077806,58.68634)" stroke-width=".3985" stroke-linecap="butt" stroke-miterlimit="10" stroke-linejoin="miter" fill="none" stroke="#000000" d="M-38.54584-7.48198"/>
<use data-text="n" xlink:href="#font_2_14" transform="matrix(5.499895,-2.1998263,0,-5.499565,4.015396,65.620349)"/>
<use data-text="e" xlink:href="#font_2_10" transform="matrix(5.499895,-2.1998263,0,-5.499565,7.419838,64.25865)"/>
<use data-text="g" xlink:href="#font_2_11" transform="matrix(5.499895,-2.1998263,0,-5.499565,10.24678,63.127946)"/>
<use data-text="a" xlink:href="#font_2_7" transform="matrix(5.499895,-2.1998263,0,-5.499565,13.106735,61.98403)"/>
<use data-text="t" xlink:href="#font_2_19" transform="matrix(5.499895,-2.1998263,0,-5.499565,15.983185,60.833524)"/>
<use data-text="i" xlink:href="#font_2_12" transform="matrix(5.499895,-2.1998263,0,-5.499565,17.86966,60.078977)"/>
<use data-text="v" xlink:href="#font_2_20" transform="matrix(5.499895,-2.1998263,0,-5.499565,19.470124,59.438829)"/>
<use data-text="e" xlink:href="#font_2_10" transform="matrix(5.499895,-2.1998263,0,-5.499565,22.214585,58.341115)"/>
<path transform="matrix(1.00009,0,0,-1.00003,53.077806,58.68634)" stroke-width=".3985" stroke-linecap="butt" stroke-miterlimit="10" stroke-linejoin="miter" fill="none" stroke="#000000" d="M-38.54584-13.1505"/>
<use data-text="s" xlink:href="#font_2_18" transform="matrix(5.499895,-2.1998263,0,-5.499565,6.690628,70.34149)"/>
<use data-text="l" xlink:href="#font_2_13" transform="matrix(5.499895,-2.1998263,0,-5.499565,9.088585,69.38237)"/>
<use data-text="o" xlink:href="#font_2_15" transform="matrix(5.499895,-2.1998263,0,-5.499565,10.6230549,68.768619)"/>
<use data-text="p" xlink:href="#font_2_16" transform="matrix(5.499895,-2.1998263,0,-5.499565,13.796494,67.49931)"/>
<use data-text="e" xlink:href="#font_2_10" transform="matrix(5.499895,-2.1998263,0,-5.499565,17.140427,66.16183)"/>
<use data-text="s" xlink:href="#font_2_18" transform="matrix(5.499895,-2.1998263,0,-5.499565,19.967377,65.03111)"/>
<path transform="matrix(1.00009,0,0,-1.00003,53.077806,58.68634)" stroke-width=".3985" stroke-linecap="butt" stroke-miterlimit="10" stroke-linejoin="miter" fill="none" stroke="#000000" d="M0 7.93605"/>
<path transform="matrix(1.00009,0,0,-1.00003,53.077806,58.68634)" d="M10.78464 19.56447-10.78464 10.93689V3.82152L10.78464 12.4491ZM-10.78464 3.82152" fill="#ffffff"/>
<use data-text="p" xlink:href="#font_2_16" transform="matrix(5.499895,-2.1998263,0,-5.499565,43.288927,52.238946)"/>
<use data-text="o" xlink:href="#font_2_15" transform="matrix(5.499895,-2.1998263,0,-5.499565,46.632867,50.90145)"/>
<use data-text="s" xlink:href="#font_2_18" transform="matrix(5.499895,-2.1998263,0,-5.499565,49.806306,49.632154)"/>
<use data-text="i" xlink:href="#font_2_12" transform="matrix(5.499895,-2.1998263,0,-5.499565,52.20427,48.673025)"/>
<use data-text="t" xlink:href="#font_2_19" transform="matrix(5.499895,-2.1998263,0,-5.499565,53.804735,48.032876)"/>
<use data-text="i" xlink:href="#font_2_12" transform="matrix(5.499895,-2.1998263,0,-5.499565,55.6967,47.27613)"/>
<use data-text="v" xlink:href="#font_2_20" transform="matrix(5.499895,-2.1998263,0,-5.499565,57.29718,46.635984)"/>
<use data-text="e" xlink:href="#font_2_10" transform="matrix(5.499895,-2.1998263,0,-5.499565,60.041627,45.53827)"/>
<path transform="matrix(1.00009,0,0,-1.00003,53.077806,58.68634)" stroke-width=".3985" stroke-linecap="butt" stroke-miterlimit="10" stroke-linejoin="miter" fill="none" stroke="#000000" d="M0 2.26753"/>
<path transform="matrix(1.00009,0,0,-1.00003,53.077806,58.68634)" d="M8.83295 13.32452-8.83295 6.25829V-1.06631L8.83295 5.99991ZM-8.83295-1.06631" fill="#ffffff"/>
<use data-text="s" xlink:href="#font_2_18" transform="matrix(5.499895,-2.1998263,0,-5.499565,45.240098,57.126096)"/>
<use data-text="l" xlink:href="#font_2_13" transform="matrix(5.499895,-2.1998263,0,-5.499565,47.638055,56.166975)"/>
<use data-text="o" xlink:href="#font_2_15" transform="matrix(5.499895,-2.1998263,0,-5.499565,49.172525,55.553224)"/>
<use data-text="p" xlink:href="#font_2_16" transform="matrix(5.499895,-2.1998263,0,-5.499565,52.345964,54.28392)"/>
<use data-text="e" xlink:href="#font_2_10" transform="matrix(5.499895,-2.1998263,0,-5.499565,55.689897,52.94643)"/>
<use data-text="s" xlink:href="#font_2_18" transform="matrix(5.499895,-2.1998263,0,-5.499565,58.516847,51.81572)"/>
<path transform="matrix(1.00009,0,0,-1.00003,53.077806,58.68634)" stroke-width=".3985" stroke-linecap="butt" stroke-dasharray="2.98883,2.98883" stroke-miterlimit="10" stroke-linejoin="miter" fill="none" stroke="#000000" d="M22.67406 31.74352V9.06944"/>
<use data-text="d" xlink:href="#font_2_9" transform="matrix(5.499895,-2.1998263,0,-5.499565,59.881418,28.537236)"/>
<use data-text="e" xlink:href="#font_2_10" transform="matrix(5.499895,-2.1998263,0,-5.499565,63.170358,27.22174)"/>
<use data-text="c" xlink:href="#font_2_8" transform="matrix(5.499895,-2.1998263,0,-5.499565,65.99731,26.09103)"/>
<use data-text="r" xlink:href="#font_2_17" transform="matrix(5.499895,-2.1998263,0,-5.499565,68.72524,24.999917)"/>
<use data-text="e" xlink:href="#font_2_10" transform="matrix(5.499895,-2.1998263,0,-5.499565,70.7602,24.185982)"/>
<use data-text="a" xlink:href="#font_2_7" transform="matrix(5.499895,-2.1998263,0,-5.499565,73.58715,23.055272)"/>
<use data-text="s" xlink:href="#font_2_18" transform="matrix(5.499895,-2.1998263,0,-5.499565,76.4636,21.904763)"/>
<use data-text="i" xlink:href="#font_2_12" transform="matrix(5.499895,-2.1998263,0,-5.499565,78.86155,20.94564)"/>
<use data-text="n" xlink:href="#font_2_14" transform="matrix(5.499895,-2.1998263,0,-5.499565,80.46203,20.305489)"/>
<use data-text="g" xlink:href="#font_2_11" transform="matrix(5.499895,-2.1998263,0,-5.499565,83.86097,18.945996)"/>
<use data-text="f" xlink:href="#font_1_1" transform="matrix(5.499895,-2.1998263,0,-5.499565,88.553,17.06929)"/>
<path transform="matrix(1.00009,0,0,-1.00003,53.077806,58.68634)" stroke-width=".3985" stroke-linecap="butt" stroke-miterlimit="10" stroke-linejoin="miter" fill="none" stroke="#000000" d="M38.54584 23.3541"/>
<use data-text="n" xlink:href="#font_2_14" transform="matrix(5.499895,-2.1998263,0,-5.499565,81.11433,34.783426)"/>
<use data-text="e" xlink:href="#font_2_10" transform="matrix(5.499895,-2.1998263,0,-5.499565,84.51877,33.421735)"/>
<use data-text="g" xlink:href="#font_2_11" transform="matrix(5.499895,-2.1998263,0,-5.499565,87.34571,32.291025)"/>
<use data-text="a" xlink:href="#font_2_7" transform="matrix(5.499895,-2.1998263,0,-5.499565,90.205669,31.14711)"/>
<use data-text="t" xlink:href="#font_2_19" transform="matrix(5.499895,-2.1998263,0,-5.499565,93.082118,29.996602)"/>
<use data-text="i" xlink:href="#font_2_12" transform="matrix(5.499895,-2.1998263,0,-5.499565,94.96859,29.242054)"/>
<use data-text="v" xlink:href="#font_2_20" transform="matrix(5.499895,-2.1998263,0,-5.499565,96.56905,28.601906)"/>
<use data-text="e" xlink:href="#font_2_10" transform="matrix(5.499895,-2.1998263,0,-5.499565,99.313518,27.504193)"/>
<path transform="matrix(1.00009,0,0,-1.00003,53.077806,58.68634)" stroke-width=".3985" stroke-linecap="butt" stroke-miterlimit="10" stroke-linejoin="miter" fill="none" stroke="#000000" d="M38.54584 17.68558"/>
<use data-text="s" xlink:href="#font_2_18" transform="matrix(5.499895,-2.1998263,0,-5.499565,83.789569,39.504564)"/>
<use data-text="l" xlink:href="#font_2_13" transform="matrix(5.499895,-2.1998263,0,-5.499565,86.18752,38.54544)"/>
<use data-text="o" xlink:href="#font_2_15" transform="matrix(5.499895,-2.1998263,0,-5.499565,87.72199,37.93169)"/>
<use data-text="p" xlink:href="#font_2_16" transform="matrix(5.499895,-2.1998263,0,-5.499565,90.89543,36.662389)"/>
<use data-text="e" xlink:href="#font_2_10" transform="matrix(5.499895,-2.1998263,0,-5.499565,94.239368,35.324899)"/>
<use data-text="s" xlink:href="#font_2_18" transform="matrix(5.499895,-2.1998263,0,-5.499565,97.066318,34.194189)"/>
<path transform="matrix(1.00009,0,0,-1.00003,53.077806,58.68634)" stroke-width=".79701" stroke-linecap="butt" stroke-miterlimit="10" stroke-linejoin="miter" fill="none" stroke="#ec008c" d="M-34.0111-41.94673-33.32433-39.63249-32.63756-37.35979-31.95078-35.1289-31.26402-32.9392-30.57726-30.7917-29.89049-28.6854-29.2037-26.62096-28.51694-24.59767-27.83018-22.61627-27.14342-20.67671-26.45663-18.77832-25.76987-16.92181-25.0831-15.10681-24.39635-13.33368-23.70958-11.6017-23.0228-9.9116-22.33603-8.2634-21.64925-6.65631-20.96251-5.09113-20.27573-3.56744-19.58896-2.08528-18.90219-.64462-18.21542 .75415-17.52866 2.11177-16.84189 3.42752-16.15512 4.70142-15.46834 5.93413-14.78159 7.12498-14.09482 8.27432-13.40805 9.38214-12.72127 10.4481-12.03452 11.47253-11.34773 12.45546-10.66096 13.39685-9.97421 14.29674-9.28745 15.15475-8.60066 15.97128-7.9139 16.74625-7.22713 17.4794-6.54036 18.17134-5.85359 18.82143-5.16682 19.42964-4.48006 19.9967-3.79327 20.5219-3.10654 21.00557-2.41975 21.44772-1.73299 21.84837-1.04622 22.20714-.35945 22.5244 .32727 22.80011 1.01404 23.03398 1.7008 23.22668 2.38759 23.37753 3.07436 23.48686 3.76111 23.55434 4.44788 23.58061 5.13466 23.56503 5.82143 23.50795 6.5082 23.40898 7.19495 23.26852 7.88171 23.08687 8.5685 22.86302 9.25526 22.598 9.94205 22.29109 10.62878 21.94304 11.31557 21.55278 12.00233 21.12134 12.6891 20.64804 13.37587 20.13356 14.06264 19.57687 14.7494 18.979 15.43617 18.33963 16.12294 17.65842 16.80971 16.93565 17.49648 16.17104 18.18324 15.36523 18.87003 14.51758 19.55678 13.62842 20.24356 12.69737 20.93031 11.72517 21.61708 10.7111 22.30385 9.65552 22.99063 8.55879 23.6774 7.41982 24.36415 6.23932 25.05093 5.01735 25.7377 3.75381 26.42447 2.44878 27.11124 1.10188 27.798-.28653 28.48476-1.71683 29.17154-3.18828 29.8583-4.70158 30.54507-6.25641 31.23183-7.85277 31.91861-9.49098 32.60538-11.17038 33.29214-12.89162 33.97893-14.65474"/>
<path transform="matrix(1.00009,0,0,-1.00003,53.077806,58.68634)" stroke-width=".3985" stroke-linecap="butt" stroke-miterlimit="10" stroke-linejoin="miter" fill="none" stroke="#cbcbcb" d="M-47.162-51.69673 52.60376 48.06903"/>
<path transform="matrix(1.00009,0,0,-1.00003,53.077806,58.68634)" stroke-width=".3985" stroke-linecap="butt" stroke-miterlimit="10" stroke-linejoin="miter" fill="none" stroke="#cbcbcb" d="M-44.44112-53.5106 55.32465 46.25516"/>
<path transform="matrix(1.00009,0,0,-1.00003,53.077806,58.68634)" stroke-width=".3985" stroke-linecap="butt" stroke-miterlimit="10" stroke-linejoin="miter" fill="none" stroke="#cbcbcb" d="M-41.72025-55.32446 58.04552 44.4413"/>
<path transform="matrix(1.00009,0,0,-1.00003,53.077806,58.68634)" stroke-width=".3985" stroke-linecap="butt" stroke-miterlimit="10" stroke-linejoin="miter" fill="none" stroke="#cbcbcb" d="M-38.99936-57.13834 60.7664 42.62744"/>
<path transform="matrix(1.00009,0,0,-1.00003,53.077806,58.68634)" stroke-width=".3985" stroke-linecap="butt" stroke-miterlimit="10" stroke-linejoin="miter" fill="none" stroke="#cbcbcb" d="M-36.27847-58.95218 63.48729 40.81358"/>
<path transform="matrix(1.00009,0,0,-1.00003,53.077806,58.68634)" stroke-width=".3985" stroke-linecap="butt" stroke-miterlimit="10" stroke-linejoin="miter" fill="none" stroke="#cbcbcb" d="M-33.5576-60.76605 66.20816 38.99971"/>
<path transform="matrix(1.00009,0,0,-1.00003,53.077806,58.68634)" stroke-width=".3985" stroke-linecap="butt" stroke-miterlimit="10" stroke-linejoin="miter" fill="none" stroke="#cbcbcb" d="M-30.83672-62.57991 68.92905 37.18585"/>
<path transform="matrix(1.00009,0,0,-1.00003,53.077806,58.68634)" stroke-width=".3985" stroke-linecap="butt" stroke-miterlimit="10" stroke-linejoin="miter" fill="none" stroke="#cbcbcb" d="M-28.11584-64.39378 71.64993 35.37198"/>
<path transform="matrix(1.00009,0,0,-1.00003,53.077806,58.68634)" stroke-width=".3985" stroke-linecap="butt" stroke-miterlimit="10" stroke-linejoin="miter" fill="none" stroke="#cbcbcb" d="M-25.39496-66.20764 74.3708 33.55812"/>
<path transform="matrix(1.00009,0,0,-1.00003,53.077806,58.68634)" stroke-width=".3985" stroke-linecap="butt" stroke-miterlimit="10" stroke-linejoin="miter" fill="none" stroke="#cbcbcb" d="M-22.67407-68.02151 77.09169 31.74425"/>
<path transform="matrix(1.00009,0,0,-1.00003,53.077806,58.68634)" stroke-width=".3985" stroke-linecap="butt" stroke-miterlimit="10" stroke-linejoin="miter" fill="none" stroke="#cbcbcb" d="M-45.34813-45.34813-15.41801-65.3009"/>
<path transform="matrix(1.00009,0,0,-1.00003,53.077806,58.68634)" stroke-width=".3985" stroke-linecap="butt" stroke-miterlimit="10" stroke-linejoin="miter" fill="none" stroke="#cbcbcb" d="M-40.81339-40.81339-10.88327-60.76614"/>
<path transform="matrix(1.00009,0,0,-1.00003,53.077806,58.68634)" stroke-width=".3985" stroke-linecap="butt" stroke-miterlimit="10" stroke-linejoin="miter" fill="none" stroke="#cbcbcb" d="M-36.27863-36.27863-6.34853-56.2314"/>
<path transform="matrix(1.00009,0,0,-1.00003,53.077806,58.68634)" stroke-width=".3985" stroke-linecap="butt" stroke-miterlimit="10" stroke-linejoin="miter" fill="none" stroke="#cbcbcb" d="M-31.74388-31.74388-1.81377-51.69664"/>
<path transform="matrix(1.00009,0,0,-1.00003,53.077806,58.68634)" stroke-width=".3985" stroke-linecap="butt" stroke-miterlimit="10" stroke-linejoin="miter" fill="none" stroke="#cbcbcb" d="M-27.20915-27.20915 2.72095-47.16191"/>
<path transform="matrix(1.00009,0,0,-1.00003,53.077806,58.68634)" stroke-width=".3985" stroke-linecap="butt" stroke-miterlimit="10" stroke-linejoin="miter" fill="none" stroke="#cbcbcb" d="M-22.6744-22.6744 7.25569-42.62717"/>
<path transform="matrix(1.00009,0,0,-1.00003,53.077806,58.68634)" stroke-width=".3985" stroke-linecap="butt" stroke-miterlimit="10" stroke-linejoin="miter" fill="none" stroke="#cbcbcb" d="M-18.13966-18.13966 11.79044-38.09242"/>
<path transform="matrix(1.00009,0,0,-1.00003,53.077806,58.68634)" stroke-width=".3985" stroke-linecap="butt" stroke-miterlimit="10" stroke-linejoin="miter" fill="none" stroke="#cbcbcb" d="M-13.6049-13.6049 16.32518-33.55768"/>
<path transform="matrix(1.00009,0,0,-1.00003,53.077806,58.68634)" stroke-width=".3985" stroke-linecap="butt" stroke-miterlimit="10" stroke-linejoin="miter" fill="none" stroke="#cbcbcb" d="M-9.07016-9.07016 20.85994-29.02292"/>
<path transform="matrix(1.00009,0,0,-1.00003,53.077806,58.68634)" stroke-width=".3985" stroke-linecap="butt" stroke-miterlimit="10" stroke-linejoin="miter" fill="none" stroke="#cbcbcb" d="M-4.53543-4.53543 25.39467-24.48819"/>
<path transform="matrix(1.00009,0,0,-1.00003,53.077806,58.68634)" stroke-width=".3985" stroke-linecap="butt" stroke-miterlimit="10" stroke-linejoin="miter" fill="none" stroke="#cbcbcb" d="M-.00066-.00066 29.92943-19.95343"/>
<path transform="matrix(1.00009,0,0,-1.00003,53.077806,58.68634)" stroke-width=".3985" stroke-linecap="butt" stroke-miterlimit="10" stroke-linejoin="miter" fill="none" stroke="#cbcbcb" d="M4.53404 4.53404 34.46416-15.4187"/>
<path transform="matrix(1.00009,0,0,-1.00003,53.077806,58.68634)" stroke-width=".3985" stroke-linecap="butt" stroke-miterlimit="10" stroke-linejoin="miter" fill="none" stroke="#cbcbcb" d="M9.06877 9.06877 38.99889-10.88397"/>
<path transform="matrix(1.00009,0,0,-1.00003,53.077806,58.68634)" stroke-width=".3985" stroke-linecap="butt" stroke-miterlimit="10" stroke-linejoin="miter" fill="none" stroke="#cbcbcb" d="M13.60353 13.60353 43.53365-6.34921"/>
<path transform="matrix(1.00009,0,0,-1.00003,53.077806,58.68634)" stroke-width=".3985" stroke-linecap="butt" stroke-miterlimit="10" stroke-linejoin="miter" fill="none" stroke="#cbcbcb" d="M18.13826 18.13826 48.06837-1.81448"/>
<path transform="matrix(1.00009,0,0,-1.00003,53.077806,58.68634)" stroke-width=".3985" stroke-linecap="butt" stroke-miterlimit="10" stroke-linejoin="miter" fill="none" stroke="#cbcbcb" d="M22.67302 22.67302 52.60312 2.72025"/>
<path transform="matrix(1.00009,0,0,-1.00003,53.077806,58.68634)" stroke-width=".3985" stroke-linecap="butt" stroke-miterlimit="10" stroke-linejoin="miter" fill="none" stroke="#cbcbcb" d="M27.20776 27.20776 57.13788 7.255"/>
<path transform="matrix(1.00009,0,0,-1.00003,53.077806,58.68634)" stroke-width=".3985" stroke-linecap="butt" stroke-miterlimit="10" stroke-linejoin="miter" fill="none" stroke="#cbcbcb" d="M31.7425 31.7425 61.6726 11.78973"/>
<path transform="matrix(1.00009,0,0,-1.00003,53.077806,58.68634)" stroke-width=".3985" stroke-linecap="butt" stroke-miterlimit="10" stroke-linejoin="miter" fill="none" stroke="#cbcbcb" d="M36.27725 36.27725 66.20737 16.32448"/>
<path transform="matrix(1.00009,0,0,-1.00003,53.077806,58.68634)" stroke-width=".3985" stroke-linecap="butt" stroke-miterlimit="10" stroke-linejoin="miter" fill="none" stroke="#cbcbcb" d="M40.812 40.812 70.74211 20.85924"/>
<path transform="matrix(1.00009,0,0,-1.00003,53.077806,58.68634)" stroke-width=".3985" stroke-linecap="butt" stroke-miterlimit="10" stroke-linejoin="miter" fill="none" stroke="#cbcbcb" d="M45.34676 45.34676 75.27686 25.39398"/>
<path transform="matrix(1.00009,0,0,-1.00003,53.077806,58.68634)" stroke-width=".3985" stroke-linecap="butt" stroke-miterlimit="10" stroke-linejoin="miter" fill="none" stroke="#000000" d="M0 0 33.67998-22.4526"/>
<path transform="matrix(.83209487,.5546767,.55471,-.83204498,86.926609,81.25013)" stroke-width=".3985" stroke-linecap="round" stroke-linejoin="round" fill="none" stroke="#000000" d="M-2.07224 2.39104C-1.69365 .95639-.84999 .27895 0 0-.84999-.27895-1.69365-.95639-2.07224-2.39104"/>
<use data-text="t" xlink:href="#font_1_2" transform="matrix(5.499895,0,0,-5.499565,83.08651,88.14923)"/>
<path transform="matrix(1.00009,0,0,-1.00003,53.077806,58.68634)" stroke-width=".3985" stroke-linecap="butt" stroke-miterlimit="10" stroke-linejoin="miter" fill="none" stroke="#000000" d="M-49.88289-49.88289 56.40338 56.40338"/>
<path transform="matrix(.70716366,-.7071212,-.70716366,-.7071212,109.62717,2.1403733)" stroke-width=".3985" stroke-linecap="round" stroke-linejoin="round" fill="none" stroke="#000000" d="M-2.07224 2.39104C-1.69365 .95639-.84999 .27895 0 0-.84999-.27895-1.69365-.95639-2.07224-2.39104"/>
<use data-text="y" xlink:href="#font_1_3" transform="matrix(5.499895,0,0,-5.499565,103.29033,5.5187418)"/>
<path transform="matrix(1.00009,0,0,-1.00003,53.077806,58.68634)" stroke-width=".3985" stroke-linecap="butt" stroke-miterlimit="10" stroke-linejoin="miter" fill="none" stroke="#cbcbcb" d="M-49.88289-49.88289 49.88289 49.88289 79.81299 29.93011-19.95277-69.83565ZM79.81299 29.93011"/>
<path transform="matrix(1.00009,0,0,-1.00003,53.077806,58.68634)" stroke-width=".3985" stroke-linecap="butt" stroke-miterlimit="10" stroke-linejoin="miter" fill="none" stroke="#000000" d="M-51.24326-51.24326-48.52248-48.52248"/>
<use data-text="0" xlink:href="#font_2_4" transform="matrix(5.499895,0,0,-5.499565,3.092308,114.29201)"/>
<path transform="matrix(1.00009,0,0,-1.00003,53.077806,58.68634)" stroke-width=".3985" stroke-linecap="butt" stroke-miterlimit="10" stroke-linejoin="miter" fill="none" stroke="#000000" d="M-37.63864-60.31271-34.91786-57.59193"/>
<use data-text="1" xlink:href="#font_2_5" transform="matrix(5.499895,0,0,-5.499565,16.698533,123.36128)"/>
<path transform="matrix(1.00009,0,0,-1.00003,53.077806,58.68634)" stroke-width=".3985" stroke-linecap="butt" stroke-miterlimit="10" stroke-linejoin="miter" fill="none" stroke="#000000" d="M-24.03403-69.38217-21.31325-66.66138"/>
<use data-text="2" xlink:href="#font_2_6" transform="matrix(5.499895,0,0,-5.499565,30.303757,132.43155)"/>
<path transform="matrix(1.00009,0,0,-1.00003,53.077806,58.68634)" stroke-width=".3985" stroke-linecap="butt" stroke-miterlimit="10" stroke-linejoin="miter" fill="none" stroke="#000000" d="M-16.23428-64.75676-14.60178-65.84505"/>
<use data-text="-" xlink:href="#font_2_3" transform="matrix(5.499895,0,0,-5.499565,40.456666,126.374378)"/>
<use data-text="2" xlink:href="#font_2_6" transform="matrix(5.499895,0,0,-5.499565,42.612627,126.374378)"/>
<path transform="matrix(1.00009,0,0,-1.00003,53.077806,58.68634)" stroke-width=".3985" stroke-linecap="butt" stroke-miterlimit="10" stroke-linejoin="miter" fill="none" stroke="#000000" d="M6.43977-42.08269 8.07228-43.17097"/>
<use data-text="-" xlink:href="#font_2_3" transform="matrix(5.499895,0,0,-5.499565,63.13271,103.69969)"/>
<use data-text="1" xlink:href="#font_2_5" transform="matrix(5.499895,0,0,-5.499565,65.288669,103.69969)"/>
<path transform="matrix(1.00009,0,0,-1.00003,53.077806,58.68634)" stroke-width=".3985" stroke-linecap="butt" stroke-miterlimit="10" stroke-linejoin="miter" fill="none" stroke="#000000" d="M51.78792 3.26544 53.42041 2.17714"/>
<use data-text="1" xlink:href="#font_2_5" transform="matrix(5.499895,0,0,-5.499565,108.48479,58.35033)"/>
<path transform="matrix(1.00009,0,0,-1.00003,53.077806,58.68634)" stroke-width=".3985" stroke-linecap="butt" stroke-miterlimit="10" stroke-linejoin="miter" fill="none" stroke="#000000" d="M74.46199 25.93951 76.09448 24.85121"/>
<use data-text="2" xlink:href="#font_2_6" transform="matrix(5.499895,0,0,-5.499565,131.16083,35.67565)"/>
<path transform="matrix(1.00009,0,0,-1.00003,53.077806,58.68634)" stroke-width=".79701" stroke-linecap="butt" stroke-miterlimit="10" stroke-linejoin="miter" fill="none" stroke="#409f9f" d="M-41.16467-45.09015-44.08983-49.23383"/>
<path transform="matrix(1.00009,0,0,-1.00003,53.077806,58.68634)" stroke-width=".79701" stroke-linecap="butt" stroke-miterlimit="10" stroke-linejoin="miter" fill="none" stroke="#409f9f" d="M-36.8039-40.5536-39.38112-44.70087"/>
<path transform="matrix(1.00009,0,0,-1.00003,53.077806,58.68634)" stroke-width=".79701" stroke-linecap="butt" stroke-miterlimit="10" stroke-linejoin="miter" fill="none" stroke="#409f9f" d="M-32.55927-36.05435-34.55623-40.13062"/>
<path transform="matrix(1.00009,0,0,-1.00003,53.077806,58.68634)" stroke-width=".79701" stroke-linecap="butt" stroke-miterlimit="10" stroke-linejoin="miter" fill="none" stroke="#409f9f" d="M-28.52245-31.66742-29.52356-35.44806"/>
<path transform="matrix(1.00009,0,0,-1.00003,53.077806,58.68634)" stroke-width=".79701" stroke-linecap="butt" stroke-miterlimit="10" stroke-linejoin="miter" fill="none" stroke="#409f9f" d="M-24.76991-27.5419-24.20662-30.5041"/>
<path transform="matrix(1.00009,0,0,-1.00003,53.077806,58.68634)" stroke-width=".79701" stroke-linecap="butt" stroke-miterlimit="10" stroke-linejoin="miter" fill="none" stroke="#409f9f" d="M-21.10977-23.71744-18.79726-25.25906"/>
<path transform="matrix(1.00009,0,0,-1.00003,53.077806,58.68634)" stroke-width=".79701" stroke-linecap="butt" stroke-miterlimit="10" stroke-linejoin="miter" fill="none" stroke="#409f9f" d="M-17.1575-19.88072-13.68005-20.0263"/>
<path transform="matrix(1.00009,0,0,-1.00003,53.077806,58.68634)" stroke-width=".79701" stroke-linecap="butt" stroke-miterlimit="10" stroke-linejoin="miter" fill="none" stroke="#409f9f" d="M-12.89568-15.80814-8.87239-15.0294"/>
<path transform="matrix(1.00009,0,0,-1.00003,53.077806,58.68634)" stroke-width=".79701" stroke-linecap="butt" stroke-miterlimit="10" stroke-linejoin="miter" fill="none" stroke="#409f9f" d="M-8.47214-11.53197-4.22643-10.23607"/>
<path transform="matrix(1.00009,0,0,-1.00003,53.077806,58.68634)" stroke-width=".79701" stroke-linecap="butt" stroke-miterlimit="10" stroke-linejoin="miter" fill="none" stroke="#409f9f" d="M-3.98285-7.12782 .35374-5.57074"/>
<path transform="matrix(1.00009,0,0,-1.00003,53.077806,58.68634)" stroke-width=".79701" stroke-linecap="butt" stroke-miterlimit="10" stroke-linejoin="miter" fill="none" stroke="#409f9f" d="M.54028-2.632 4.90012-.99702"/>
<path transform="matrix(1.00009,0,0,-1.00003,53.077806,58.68634)" stroke-width=".79701" stroke-linecap="butt" stroke-miterlimit="10" stroke-linejoin="miter" fill="none" stroke="#409f9f" d="M5.08662 1.94165 9.42323 3.49873"/>
<path transform="matrix(1.00009,0,0,-1.00003,53.077806,58.68634)" stroke-width=".79701" stroke-linecap="butt" stroke-miterlimit="10" stroke-linejoin="miter" fill="none" stroke="#409f9f" d="M9.66681 6.60696 13.9125 7.90288"/>
<path transform="matrix(1.00009,0,0,-1.00003,53.077806,58.68634)" stroke-width=".79701" stroke-linecap="butt" stroke-miterlimit="10" stroke-linejoin="miter" fill="none" stroke="#409f9f" d="M14.31276 11.4003 18.33606 12.17905"/>
<path transform="matrix(1.00009,0,0,-1.00003,53.077806,58.68634)" stroke-width=".79701" stroke-linecap="butt" stroke-miterlimit="10" stroke-linejoin="miter" fill="none" stroke="#409f9f" d="M19.12042 16.3972 22.59787 16.25162"/>
<path transform="matrix(1.00009,0,0,-1.00003,53.077806,58.68634)" stroke-width=".79701" stroke-linecap="butt" stroke-miterlimit="10" stroke-linejoin="miter" fill="none" stroke="#409f9f" d="M24.23763 21.62997 26.55016 20.08835"/>
<path transform="matrix(1.00009,0,0,-1.00003,53.077806,58.68634)" stroke-width=".79701" stroke-linecap="butt" stroke-miterlimit="10" stroke-linejoin="miter" fill="none" stroke="#409f9f" d="M29.64604 26.87508 30.21124 23.91273"/>
<path transform="matrix(1.00009,0,0,-1.00003,53.077806,58.68634)" stroke-width=".79701" stroke-linecap="butt" stroke-miterlimit="10" stroke-linejoin="miter" fill="none" stroke="#409f9f" d="M34.96393 31.81897 33.96283 28.03833"/>
<path transform="matrix(1.00009,0,0,-1.00003,53.077806,58.68634)" stroke-width=".79701" stroke-linecap="butt" stroke-miterlimit="10" stroke-linejoin="miter" fill="none" stroke="#409f9f" d="M39.99661 36.50153 37.99965 32.42526"/>
<path transform="matrix(1.00009,0,0,-1.00003,53.077806,58.68634)" stroke-width=".79701" stroke-linecap="butt" stroke-miterlimit="10" stroke-linejoin="miter" fill="none" stroke="#409f9f" d="M44.82149 41.07178 42.24426 36.92451"/>
<path transform="matrix(1.00009,0,0,-1.00003,53.077806,58.68634)" stroke-width=".79701" stroke-linecap="butt" stroke-miterlimit="10" stroke-linejoin="miter" fill="none" stroke="#409f9f" d="M49.53021 45.60472 46.60504 41.46106"/>
<path transform="matrix(1.00009,0,0,-1.00003,53.077806,58.68634)" stroke-width=".79701" stroke-linecap="butt" stroke-miterlimit="10" stroke-linejoin="miter" fill="none" stroke="#409f9f" d="M-38.44379-46.90402-41.36896-51.04768"/>
<path transform="matrix(1.00009,0,0,-1.00003,53.077806,58.68634)" stroke-width=".79701" stroke-linecap="butt" stroke-miterlimit="10" stroke-linejoin="miter" fill="none" stroke="#409f9f" d="M-34.08301-42.36748-36.66023-46.51472"/>
<path transform="matrix(1.00009,0,0,-1.00003,53.077806,58.68634)" stroke-width=".79701" stroke-linecap="butt" stroke-miterlimit="10" stroke-linejoin="miter" fill="none" stroke="#409f9f" d="M-29.8384-37.86823-31.83536-41.94449"/>
<path transform="matrix(1.00009,0,0,-1.00003,53.077806,58.68634)" stroke-width=".79701" stroke-linecap="butt" stroke-miterlimit="10" stroke-linejoin="miter" fill="none" stroke="#409f9f" d="M-25.80156-33.4813-26.80267-37.26193"/>
<path transform="matrix(1.00009,0,0,-1.00003,53.077806,58.68634)" stroke-width=".79701" stroke-linecap="butt" stroke-miterlimit="10" stroke-linejoin="miter" fill="none" stroke="#409f9f" d="M-22.04903-29.35577-21.48573-32.31796"/>
<path transform="matrix(1.00009,0,0,-1.00003,53.077806,58.68634)" stroke-width=".79701" stroke-linecap="butt" stroke-miterlimit="10" stroke-linejoin="miter" fill="none" stroke="#409f9f" d="M-18.3889-25.53131-16.07637-27.07294"/>
<path transform="matrix(1.00009,0,0,-1.00003,53.077806,58.68634)" stroke-width=".79701" stroke-linecap="butt" stroke-miterlimit="10" stroke-linejoin="miter" fill="none" stroke="#409f9f" d="M-14.43663-21.6946-10.95917-21.84018"/>
<path transform="matrix(1.00009,0,0,-1.00003,53.077806,58.68634)" stroke-width=".79701" stroke-linecap="butt" stroke-miterlimit="10" stroke-linejoin="miter" fill="none" stroke="#409f9f" d="M-10.1748-17.62201-6.1515-16.84326"/>
<path transform="matrix(1.00009,0,0,-1.00003,53.077806,58.68634)" stroke-width=".79701" stroke-linecap="butt" stroke-miterlimit="10" stroke-linejoin="miter" fill="none" stroke="#409f9f" d="M-5.75125-13.34584-1.50555-12.04993"/>
<path transform="matrix(1.00009,0,0,-1.00003,53.077806,58.68634)" stroke-width=".79701" stroke-linecap="butt" stroke-miterlimit="10" stroke-linejoin="miter" fill="none" stroke="#409f9f" d="M-1.26196-8.9417 3.07462-7.38461"/>
<path transform="matrix(1.00009,0,0,-1.00003,53.077806,58.68634)" stroke-width=".79701" stroke-linecap="butt" stroke-miterlimit="10" stroke-linejoin="miter" fill="none" stroke="#409f9f" d="M3.26117-4.44588 7.621-2.8109"/>
<path transform="matrix(1.00009,0,0,-1.00003,53.077806,58.68634)" stroke-width=".79701" stroke-linecap="butt" stroke-miterlimit="10" stroke-linejoin="miter" fill="none" stroke="#409f9f" d="M7.8075 .12778 12.1441 1.68486"/>
<path transform="matrix(1.00009,0,0,-1.00003,53.077806,58.68634)" stroke-width=".79701" stroke-linecap="butt" stroke-miterlimit="10" stroke-linejoin="miter" fill="none" stroke="#409f9f" d="M12.3877 4.7931 16.63339 6.089"/>
<path transform="matrix(1.00009,0,0,-1.00003,53.077806,58.68634)" stroke-width=".79701" stroke-linecap="butt" stroke-miterlimit="10" stroke-linejoin="miter" fill="none" stroke="#409f9f" d="M17.03365 9.58644 21.05693 10.36517"/>
<path transform="matrix(1.00009,0,0,-1.00003,53.077806,58.68634)" stroke-width=".79701" stroke-linecap="butt" stroke-miterlimit="10" stroke-linejoin="miter" fill="none" stroke="#409f9f" d="M21.8413 14.58333 25.31876 14.43776"/>
<path transform="matrix(1.00009,0,0,-1.00003,53.077806,58.68634)" stroke-width=".79701" stroke-linecap="butt" stroke-miterlimit="10" stroke-linejoin="miter" fill="none" stroke="#409f9f" d="M26.95851 19.8161 29.27104 18.27448"/>
<path transform="matrix(1.00009,0,0,-1.00003,53.077806,58.68634)" stroke-width=".79701" stroke-linecap="butt" stroke-miterlimit="10" stroke-linejoin="miter" fill="none" stroke="#409f9f" d="M32.36691 25.06122 32.93213 22.09886"/>
<path transform="matrix(1.00009,0,0,-1.00003,53.077806,58.68634)" stroke-width=".79701" stroke-linecap="butt" stroke-miterlimit="10" stroke-linejoin="miter" fill="none" stroke="#409f9f" d="M37.68481 30.0051 36.6837 26.22446"/>
<path transform="matrix(1.00009,0,0,-1.00003,53.077806,58.68634)" stroke-width=".79701" stroke-linecap="butt" stroke-miterlimit="10" stroke-linejoin="miter" fill="none" stroke="#409f9f" d="M42.71748 34.68765 40.72054 30.61139"/>
<path transform="matrix(1.00009,0,0,-1.00003,53.077806,58.68634)" stroke-width=".79701" stroke-linecap="butt" stroke-miterlimit="10" stroke-linejoin="miter" fill="none" stroke="#409f9f" d="M47.54237 39.2579 44.96515 35.11064"/>
<path transform="matrix(1.00009,0,0,-1.00003,53.077806,58.68634)" stroke-width=".79701" stroke-linecap="butt" stroke-miterlimit="10" stroke-linejoin="miter" fill="none" stroke="#409f9f" d="M52.2511 43.79086 49.32593 39.64719"/>
<path transform="matrix(1.00009,0,0,-1.00003,53.077806,58.68634)" stroke-width=".79701" stroke-linecap="butt" stroke-miterlimit="10" stroke-linejoin="miter" fill="none" stroke="#409f9f" d="M-35.72292-48.71788-38.64807-52.86154"/>
<path transform="matrix(1.00009,0,0,-1.00003,53.077806,58.68634)" stroke-width=".79701" stroke-linecap="butt" stroke-miterlimit="10" stroke-linejoin="miter" fill="none" stroke="#409f9f" d="M-31.36214-44.18134-33.93935-48.32858"/>
<path transform="matrix(1.00009,0,0,-1.00003,53.077806,58.68634)" stroke-width=".79701" stroke-linecap="butt" stroke-miterlimit="10" stroke-linejoin="miter" fill="none" stroke="#409f9f" d="M-27.11751-39.68208-29.11447-43.75835"/>
<path transform="matrix(1.00009,0,0,-1.00003,53.077806,58.68634)" stroke-width=".79701" stroke-linecap="butt" stroke-miterlimit="10" stroke-linejoin="miter" fill="none" stroke="#409f9f" d="M-23.08069-35.29514-24.0818-39.07578"/>
<path transform="matrix(1.00009,0,0,-1.00003,53.077806,58.68634)" stroke-width=".79701" stroke-linecap="butt" stroke-miterlimit="10" stroke-linejoin="miter" fill="none" stroke="#409f9f" d="M-19.32816-31.16963-18.76486-34.13182"/>
<path transform="matrix(1.00009,0,0,-1.00003,53.077806,58.68634)" stroke-width=".79701" stroke-linecap="butt" stroke-miterlimit="10" stroke-linejoin="miter" fill="none" stroke="#409f9f" d="M-15.66801-27.34515-13.3555-28.8868"/>
<path transform="matrix(1.00009,0,0,-1.00003,53.077806,58.68634)" stroke-width=".79701" stroke-linecap="butt" stroke-miterlimit="10" stroke-linejoin="miter" fill="none" stroke="#409f9f" d="M-11.71574-23.50845-8.2383-23.65402"/>
<path transform="matrix(1.00009,0,0,-1.00003,53.077806,58.68634)" stroke-width=".79701" stroke-linecap="butt" stroke-miterlimit="10" stroke-linejoin="miter" fill="none" stroke="#409f9f" d="M-7.45392-19.43585-3.43062-18.65712"/>
<path transform="matrix(1.00009,0,0,-1.00003,53.077806,58.68634)" stroke-width=".79701" stroke-linecap="butt" stroke-miterlimit="10" stroke-linejoin="miter" fill="none" stroke="#409f9f" d="M-3.03036-15.1597 1.21532-13.86378"/>
<path transform="matrix(1.00009,0,0,-1.00003,53.077806,58.68634)" stroke-width=".79701" stroke-linecap="butt" stroke-miterlimit="10" stroke-linejoin="miter" fill="none" stroke="#409f9f" d="M1.4589-10.75554 5.7955-9.19847"/>
<path transform="matrix(1.00009,0,0,-1.00003,53.077806,58.68634)" stroke-width=".79701" stroke-linecap="butt" stroke-miterlimit="10" stroke-linejoin="miter" fill="none" stroke="#409f9f" d="M5.98204-6.25972 10.34189-4.62476"/>
<path transform="matrix(1.00009,0,0,-1.00003,53.077806,58.68634)" stroke-width=".79701" stroke-linecap="butt" stroke-miterlimit="10" stroke-linejoin="miter" fill="none" stroke="#409f9f" d="M10.52838-1.68607 14.86499-.12898"/>
<path transform="matrix(1.00009,0,0,-1.00003,53.077806,58.68634)" stroke-width=".79701" stroke-linecap="butt" stroke-miterlimit="10" stroke-linejoin="miter" fill="none" stroke="#409f9f" d="M15.10857 2.97925 19.35426 4.27515"/>
<path transform="matrix(1.00009,0,0,-1.00003,53.077806,58.68634)" stroke-width=".79701" stroke-linecap="butt" stroke-miterlimit="10" stroke-linejoin="miter" fill="none" stroke="#409f9f" d="M19.75452 7.77258 23.77782 8.55132"/>
<path transform="matrix(1.00009,0,0,-1.00003,53.077806,58.68634)" stroke-width=".79701" stroke-linecap="butt" stroke-miterlimit="10" stroke-linejoin="miter" fill="none" stroke="#409f9f" d="M24.56218 12.76947 28.03963 12.6239"/>
<path transform="matrix(1.00009,0,0,-1.00003,53.077806,58.68634)" stroke-width=".79701" stroke-linecap="butt" stroke-miterlimit="10" stroke-linejoin="miter" fill="none" stroke="#409f9f" d="M29.6794 18.00226 31.99191 16.46062"/>
<path transform="matrix(1.00009,0,0,-1.00003,53.077806,58.68634)" stroke-width=".79701" stroke-linecap="butt" stroke-miterlimit="10" stroke-linejoin="miter" fill="none" stroke="#409f9f" d="M35.0878 23.24736 35.65302 20.285"/>
<path transform="matrix(1.00009,0,0,-1.00003,53.077806,58.68634)" stroke-width=".79701" stroke-linecap="butt" stroke-miterlimit="10" stroke-linejoin="miter" fill="none" stroke="#409f9f" d="M40.4057 28.19124 39.40459 24.4106"/>
<path transform="matrix(1.00009,0,0,-1.00003,53.077806,58.68634)" stroke-width=".79701" stroke-linecap="butt" stroke-miterlimit="10" stroke-linejoin="miter" fill="none" stroke="#409f9f" d="M45.43837 32.8738 43.4414 28.79755"/>
<path transform="matrix(1.00009,0,0,-1.00003,53.077806,58.68634)" stroke-width=".79701" stroke-linecap="butt" stroke-miterlimit="10" stroke-linejoin="miter" fill="none" stroke="#409f9f" d="M50.26324 37.44405 47.68604 33.2968"/>
<path transform="matrix(1.00009,0,0,-1.00003,53.077806,58.68634)" stroke-width=".79701" stroke-linecap="butt" stroke-miterlimit="10" stroke-linejoin="miter" fill="none" stroke="#409f9f" d="M54.97197 41.977 52.04681 37.83334"/>
<path transform="matrix(1.00009,0,0,-1.00003,53.077806,58.68634)" stroke-width=".79701" stroke-linecap="butt" stroke-miterlimit="10" stroke-linejoin="miter" fill="none" stroke="#409f9f" d="M-33.00203-50.53175-35.9272-54.67542"/>
<path transform="matrix(1.00009,0,0,-1.00003,53.077806,58.68634)" stroke-width=".79701" stroke-linecap="butt" stroke-miterlimit="10" stroke-linejoin="miter" fill="none" stroke="#409f9f" d="M-28.64125-45.99521-31.21848-50.14246"/>
<path transform="matrix(1.00009,0,0,-1.00003,53.077806,58.68634)" stroke-width=".79701" stroke-linecap="butt" stroke-miterlimit="10" stroke-linejoin="miter" fill="none" stroke="#409f9f" d="M-24.39662-41.49596-26.39359-45.5722"/>
<path transform="matrix(1.00009,0,0,-1.00003,53.077806,58.68634)" stroke-width=".79701" stroke-linecap="butt" stroke-miterlimit="10" stroke-linejoin="miter" fill="none" stroke="#409f9f" d="M-20.3598-37.10901-21.36092-40.88965"/>
<path transform="matrix(1.00009,0,0,-1.00003,53.077806,58.68634)" stroke-width=".79701" stroke-linecap="butt" stroke-miterlimit="10" stroke-linejoin="miter" fill="none" stroke="#409f9f" d="M-16.60727-32.98349-16.04398-35.9457"/>
<path transform="matrix(1.00009,0,0,-1.00003,53.077806,58.68634)" stroke-width=".79701" stroke-linecap="butt" stroke-miterlimit="10" stroke-linejoin="miter" fill="none" stroke="#409f9f" d="M-12.94714-29.15903-10.63461-30.70067"/>
<path transform="matrix(1.00009,0,0,-1.00003,53.077806,58.68634)" stroke-width=".79701" stroke-linecap="butt" stroke-miterlimit="10" stroke-linejoin="miter" fill="none" stroke="#409f9f" d="M-8.99487-25.32233-5.51741-25.4679"/>
<path transform="matrix(1.00009,0,0,-1.00003,53.077806,58.68634)" stroke-width=".79701" stroke-linecap="butt" stroke-miterlimit="10" stroke-linejoin="miter" fill="none" stroke="#409f9f" d="M-4.73303-21.24973-.70975-20.471"/>
<path transform="matrix(1.00009,0,0,-1.00003,53.077806,58.68634)" stroke-width=".79701" stroke-linecap="butt" stroke-miterlimit="10" stroke-linejoin="miter" fill="none" stroke="#409f9f" d="M-.3095-16.97356 3.93619-15.67766"/>
<path transform="matrix(1.00009,0,0,-1.00003,53.077806,58.68634)" stroke-width=".79701" stroke-linecap="butt" stroke-miterlimit="10" stroke-linejoin="miter" fill="none" stroke="#409f9f" d="M4.17978-12.56941 8.51639-11.01233"/>
<path transform="matrix(1.00009,0,0,-1.00003,53.077806,58.68634)" stroke-width=".79701" stroke-linecap="butt" stroke-miterlimit="10" stroke-linejoin="miter" fill="none" stroke="#409f9f" d="M8.70293-8.0736 13.06276-6.43863"/>
<path transform="matrix(1.00009,0,0,-1.00003,53.077806,58.68634)" stroke-width=".79701" stroke-linecap="butt" stroke-miterlimit="10" stroke-linejoin="miter" fill="none" stroke="#409f9f" d="M13.24927-3.49992 17.58588-1.94286"/>
<path transform="matrix(1.00009,0,0,-1.00003,53.077806,58.68634)" stroke-width=".79701" stroke-linecap="butt" stroke-miterlimit="10" stroke-linejoin="miter" fill="none" stroke="#409f9f" d="M17.82945 1.16537 22.07515 2.46129"/>
<path transform="matrix(1.00009,0,0,-1.00003,53.077806,58.68634)" stroke-width=".79701" stroke-linecap="butt" stroke-miterlimit="10" stroke-linejoin="miter" fill="none" stroke="#409f9f" d="M22.4754 5.95871 26.4987 6.73744"/>
<path transform="matrix(1.00009,0,0,-1.00003,53.077806,58.68634)" stroke-width=".79701" stroke-linecap="butt" stroke-miterlimit="10" stroke-linejoin="miter" fill="none" stroke="#409f9f" d="M27.28307 10.9556 30.76051 10.81003"/>
<path transform="matrix(1.00009,0,0,-1.00003,53.077806,58.68634)" stroke-width=".79701" stroke-linecap="butt" stroke-miterlimit="10" stroke-linejoin="miter" fill="none" stroke="#409f9f" d="M32.40027 16.18839 34.7128 14.64674"/>
<path transform="matrix(1.00009,0,0,-1.00003,53.077806,58.68634)" stroke-width=".79701" stroke-linecap="butt" stroke-miterlimit="10" stroke-linejoin="miter" fill="none" stroke="#409f9f" d="M37.80869 21.43349 38.37389 18.47115"/>
<path transform="matrix(1.00009,0,0,-1.00003,53.077806,58.68634)" stroke-width=".79701" stroke-linecap="butt" stroke-miterlimit="10" stroke-linejoin="miter" fill="none" stroke="#409f9f" d="M43.12657 26.37737 42.12546 22.59673"/>
<path transform="matrix(1.00009,0,0,-1.00003,53.077806,58.68634)" stroke-width=".79701" stroke-linecap="butt" stroke-miterlimit="10" stroke-linejoin="miter" fill="none" stroke="#409f9f" d="M48.15926 31.05994 46.1623 26.98367"/>
<path transform="matrix(1.00009,0,0,-1.00003,53.077806,58.68634)" stroke-width=".79701" stroke-linecap="butt" stroke-miterlimit="10" stroke-linejoin="miter" fill="none" stroke="#409f9f" d="M52.98413 35.63017 50.4069 31.48293"/>
<path transform="matrix(1.00009,0,0,-1.00003,53.077806,58.68634)" stroke-width=".79701" stroke-linecap="butt" stroke-miterlimit="10" stroke-linejoin="miter" fill="none" stroke="#409f9f" d="M57.69286 40.16313 54.76768 36.01947"/>
<path transform="matrix(1.00009,0,0,-1.00003,53.077806,58.68634)" stroke-width=".79701" stroke-linecap="butt" stroke-miterlimit="10" stroke-linejoin="miter" fill="none" stroke="#409f9f" d="M-30.28114-52.3456-33.20631-56.48927"/>
<path transform="matrix(1.00009,0,0,-1.00003,53.077806,58.68634)" stroke-width=".79701" stroke-linecap="butt" stroke-miterlimit="10" stroke-linejoin="miter" fill="none" stroke="#409f9f" d="M-25.92036-47.80905-28.49759-51.95631"/>
<path transform="matrix(1.00009,0,0,-1.00003,53.077806,58.68634)" stroke-width=".79701" stroke-linecap="butt" stroke-miterlimit="10" stroke-linejoin="miter" fill="none" stroke="#409f9f" d="M-21.67575-43.3098-23.67271-47.38606"/>
<path transform="matrix(1.00009,0,0,-1.00003,53.077806,58.68634)" stroke-width=".79701" stroke-linecap="butt" stroke-miterlimit="10" stroke-linejoin="miter" fill="none" stroke="#409f9f" d="M-17.63893-38.92287-18.64003-42.7035"/>
<path transform="matrix(1.00009,0,0,-1.00003,53.077806,58.68634)" stroke-width=".79701" stroke-linecap="butt" stroke-miterlimit="10" stroke-linejoin="miter" fill="none" stroke="#409f9f" d="M-13.8864-34.79735-13.3231-37.75955"/>
<path transform="matrix(1.00009,0,0,-1.00003,53.077806,58.68634)" stroke-width=".79701" stroke-linecap="butt" stroke-miterlimit="10" stroke-linejoin="miter" fill="none" stroke="#409f9f" d="M-10.22626-30.97289-7.91373-32.51451"/>
<path transform="matrix(1.00009,0,0,-1.00003,53.077806,58.68634)" stroke-width=".79701" stroke-linecap="butt" stroke-miterlimit="10" stroke-linejoin="miter" fill="none" stroke="#409f9f" d="M-6.27399-27.13618-2.79654-27.28175"/>
<path transform="matrix(1.00009,0,0,-1.00003,53.077806,58.68634)" stroke-width=".79701" stroke-linecap="butt" stroke-miterlimit="10" stroke-linejoin="miter" fill="none" stroke="#409f9f" d="M-2.01216-23.06358 2.01112-22.28485"/>
<path transform="matrix(1.00009,0,0,-1.00003,53.077806,58.68634)" stroke-width=".79701" stroke-linecap="butt" stroke-miterlimit="10" stroke-linejoin="miter" fill="none" stroke="#409f9f" d="M2.41138-18.78741 6.65707-17.49152"/>
<path transform="matrix(1.00009,0,0,-1.00003,53.077806,58.68634)" stroke-width=".79701" stroke-linecap="butt" stroke-miterlimit="10" stroke-linejoin="miter" fill="none" stroke="#409f9f" d="M6.90065-14.38327 11.23726-12.82619"/>
<path transform="matrix(1.00009,0,0,-1.00003,53.077806,58.68634)" stroke-width=".79701" stroke-linecap="butt" stroke-miterlimit="10" stroke-linejoin="miter" fill="none" stroke="#409f9f" d="M11.42381-9.88745 15.78365-8.25247"/>
<path transform="matrix(1.00009,0,0,-1.00003,53.077806,58.68634)" stroke-width=".79701" stroke-linecap="butt" stroke-miterlimit="10" stroke-linejoin="miter" fill="none" stroke="#409f9f" d="M15.97014-5.31378 20.30675-3.7567"/>
<path transform="matrix(1.00009,0,0,-1.00003,53.077806,58.68634)" stroke-width=".79701" stroke-linecap="butt" stroke-miterlimit="10" stroke-linejoin="miter" fill="none" stroke="#409f9f" d="M20.55032-.64847 24.79604 .64743"/>
<path transform="matrix(1.00009,0,0,-1.00003,53.077806,58.68634)" stroke-width=".79701" stroke-linecap="butt" stroke-miterlimit="10" stroke-linejoin="miter" fill="none" stroke="#409f9f" d="M25.19629 4.14485 29.21957 4.9236"/>
<path transform="matrix(1.00009,0,0,-1.00003,53.077806,58.68634)" stroke-width=".79701" stroke-linecap="butt" stroke-miterlimit="10" stroke-linejoin="miter" fill="none" stroke="#409f9f" d="M30.00394 9.14175 33.4814 8.99617"/>
<path transform="matrix(1.00009,0,0,-1.00003,53.077806,58.68634)" stroke-width=".79701" stroke-linecap="butt" stroke-miterlimit="10" stroke-linejoin="miter" fill="none" stroke="#409f9f" d="M35.12115 14.37453 37.43369 12.8329"/>
<path transform="matrix(1.00009,0,0,-1.00003,53.077806,58.68634)" stroke-width=".79701" stroke-linecap="butt" stroke-miterlimit="10" stroke-linejoin="miter" fill="none" stroke="#409f9f" d="M40.52956 19.61963 41.09477 16.65729"/>
<path transform="matrix(1.00009,0,0,-1.00003,53.077806,58.68634)" stroke-width=".79701" stroke-linecap="butt" stroke-miterlimit="10" stroke-linejoin="miter" fill="none" stroke="#409f9f" d="M45.84746 24.56352 44.84634 20.78288"/>
<path transform="matrix(1.00009,0,0,-1.00003,53.077806,58.68634)" stroke-width=".79701" stroke-linecap="butt" stroke-miterlimit="10" stroke-linejoin="miter" fill="none" stroke="#409f9f" d="M50.88013 29.24608 48.88316 25.16982"/>
<path transform="matrix(1.00009,0,0,-1.00003,53.077806,58.68634)" stroke-width=".79701" stroke-linecap="butt" stroke-miterlimit="10" stroke-linejoin="miter" fill="none" stroke="#409f9f" d="M55.70502 33.81631 53.12779 29.66907"/>
<path transform="matrix(1.00009,0,0,-1.00003,53.077806,58.68634)" stroke-width=".79701" stroke-linecap="butt" stroke-miterlimit="10" stroke-linejoin="miter" fill="none" stroke="#409f9f" d="M60.41373 38.34927 57.48857 34.20561"/>
<path transform="matrix(1.00009,0,0,-1.00003,53.077806,58.68634)" stroke-width=".79701" stroke-linecap="butt" stroke-miterlimit="10" stroke-linejoin="miter" fill="none" stroke="#409f9f" d="M-27.56027-54.15947-30.48543-58.30313"/>
<path transform="matrix(1.00009,0,0,-1.00003,53.077806,58.68634)" stroke-width=".79701" stroke-linecap="butt" stroke-miterlimit="10" stroke-linejoin="miter" fill="none" stroke="#409f9f" d="M-23.1995-49.62292-25.7767-53.77019"/>
<path transform="matrix(1.00009,0,0,-1.00003,53.077806,58.68634)" stroke-width=".79701" stroke-linecap="butt" stroke-miterlimit="10" stroke-linejoin="miter" fill="none" stroke="#409f9f" d="M-18.95486-45.12367-20.95183-49.19994"/>
<path transform="matrix(1.00009,0,0,-1.00003,53.077806,58.68634)" stroke-width=".79701" stroke-linecap="butt" stroke-miterlimit="10" stroke-linejoin="miter" fill="none" stroke="#409f9f" d="M-14.91805-40.73674-15.91916-44.51738"/>
<path transform="matrix(1.00009,0,0,-1.00003,53.077806,58.68634)" stroke-width=".79701" stroke-linecap="butt" stroke-miterlimit="10" stroke-linejoin="miter" fill="none" stroke="#409f9f" d="M-11.16551-36.61122-10.60222-39.57341"/>
<path transform="matrix(1.00009,0,0,-1.00003,53.077806,58.68634)" stroke-width=".79701" stroke-linecap="butt" stroke-miterlimit="10" stroke-linejoin="miter" fill="none" stroke="#409f9f" d="M-7.50537-32.78676-5.19286-34.32838"/>
<path transform="matrix(1.00009,0,0,-1.00003,53.077806,58.68634)" stroke-width=".79701" stroke-linecap="butt" stroke-miterlimit="10" stroke-linejoin="miter" fill="none" stroke="#409f9f" d="M-3.5531-28.95004-.07565-29.09563"/>
<path transform="matrix(1.00009,0,0,-1.00003,53.077806,58.68634)" stroke-width=".79701" stroke-linecap="butt" stroke-miterlimit="10" stroke-linejoin="miter" fill="none" stroke="#409f9f" d="M.70871-24.87746 4.73201-24.09871"/>
<path transform="matrix(1.00009,0,0,-1.00003,53.077806,58.68634)" stroke-width=".79701" stroke-linecap="butt" stroke-miterlimit="10" stroke-linejoin="miter" fill="none" stroke="#409f9f" d="M5.13226-20.60129 9.37796-19.30537"/>
<path transform="matrix(1.00009,0,0,-1.00003,53.077806,58.68634)" stroke-width=".79701" stroke-linecap="butt" stroke-miterlimit="10" stroke-linejoin="miter" fill="none" stroke="#409f9f" d="M9.62154-16.19714 13.95815-14.64006"/>
<path transform="matrix(1.00009,0,0,-1.00003,53.077806,58.68634)" stroke-width=".79701" stroke-linecap="butt" stroke-miterlimit="10" stroke-linejoin="miter" fill="none" stroke="#409f9f" d="M14.14468-11.70132 18.50453-10.06635"/>
<path transform="matrix(1.00009,0,0,-1.00003,53.077806,58.68634)" stroke-width=".79701" stroke-linecap="butt" stroke-miterlimit="10" stroke-linejoin="miter" fill="none" stroke="#409f9f" d="M18.69102-7.12766 23.02763-5.57057"/>
<path transform="matrix(1.00009,0,0,-1.00003,53.077806,58.68634)" stroke-width=".79701" stroke-linecap="butt" stroke-miterlimit="10" stroke-linejoin="miter" fill="none" stroke="#409f9f" d="M23.27121-2.46233 27.5169-1.16643"/>
<path transform="matrix(1.00009,0,0,-1.00003,53.077806,58.68634)" stroke-width=".79701" stroke-linecap="butt" stroke-miterlimit="10" stroke-linejoin="miter" fill="none" stroke="#409f9f" d="M27.91716 2.331 31.94046 3.10973"/>
<path transform="matrix(1.00009,0,0,-1.00003,53.077806,58.68634)" stroke-width=".79701" stroke-linecap="butt" stroke-miterlimit="10" stroke-linejoin="miter" fill="none" stroke="#409f9f" d="M32.72482 7.32788 36.20227 7.1823"/>
<path transform="matrix(1.00009,0,0,-1.00003,53.077806,58.68634)" stroke-width=".79701" stroke-linecap="butt" stroke-miterlimit="10" stroke-linejoin="miter" fill="none" stroke="#409f9f" d="M37.84204 12.56065 40.15456 11.01903"/>
<path transform="matrix(1.00009,0,0,-1.00003,53.077806,58.68634)" stroke-width=".79701" stroke-linecap="butt" stroke-miterlimit="10" stroke-linejoin="miter" fill="none" stroke="#409f9f" d="M43.25044 17.80577 43.81566 14.84341"/>
<path transform="matrix(1.00009,0,0,-1.00003,53.077806,58.68634)" stroke-width=".79701" stroke-linecap="butt" stroke-miterlimit="10" stroke-linejoin="miter" fill="none" stroke="#409f9f" d="M48.56834 22.74965 47.56723 18.96901"/>
<path transform="matrix(1.00009,0,0,-1.00003,53.077806,58.68634)" stroke-width=".79701" stroke-linecap="butt" stroke-miterlimit="10" stroke-linejoin="miter" fill="none" stroke="#409f9f" d="M53.60101 27.4322 51.60405 23.35594"/>
<path transform="matrix(1.00009,0,0,-1.00003,53.077806,58.68634)" stroke-width=".79701" stroke-linecap="butt" stroke-miterlimit="10" stroke-linejoin="miter" fill="none" stroke="#409f9f" d="M58.42589 32.00246 55.84866 27.8552"/>
<path transform="matrix(1.00009,0,0,-1.00003,53.077806,58.68634)" stroke-width=".79701" stroke-linecap="butt" stroke-miterlimit="10" stroke-linejoin="miter" fill="none" stroke="#409f9f" d="M63.13461 36.53542 60.20944 32.39174"/>
<path transform="matrix(1.00009,0,0,-1.00003,53.077806,58.68634)" stroke-width=".79701" stroke-linecap="butt" stroke-miterlimit="10" stroke-linejoin="miter" fill="none" stroke="#409f9f" d="M-24.83939-55.97333-27.76456-60.11699"/>
<path transform="matrix(1.00009,0,0,-1.00003,53.077806,58.68634)" stroke-width=".79701" stroke-linecap="butt" stroke-miterlimit="10" stroke-linejoin="miter" fill="none" stroke="#409f9f" d="M-20.4786-51.43678-23.05583-55.58403"/>
<path transform="matrix(1.00009,0,0,-1.00003,53.077806,58.68634)" stroke-width=".79701" stroke-linecap="butt" stroke-miterlimit="10" stroke-linejoin="miter" fill="none" stroke="#409f9f" d="M-16.234-46.93753-18.23096-51.0138"/>
<path transform="matrix(1.00009,0,0,-1.00003,53.077806,58.68634)" stroke-width=".79701" stroke-linecap="butt" stroke-miterlimit="10" stroke-linejoin="miter" fill="none" stroke="#409f9f" d="M-12.19716-42.55058-13.19827-46.33122"/>
<path transform="matrix(1.00009,0,0,-1.00003,53.077806,58.68634)" stroke-width=".79701" stroke-linecap="butt" stroke-miterlimit="10" stroke-linejoin="miter" fill="none" stroke="#409f9f" d="M-8.44463-38.42508-7.88133-41.38727"/>
<path transform="matrix(1.00009,0,0,-1.00003,53.077806,58.68634)" stroke-width=".79701" stroke-linecap="butt" stroke-miterlimit="10" stroke-linejoin="miter" fill="none" stroke="#409f9f" d="M-4.7845-34.6006-2.47197-36.14224"/>
<path transform="matrix(1.00009,0,0,-1.00003,53.077806,58.68634)" stroke-width=".79701" stroke-linecap="butt" stroke-miterlimit="10" stroke-linejoin="miter" fill="none" stroke="#409f9f" d="M-.83223-30.7639 2.64522-30.90947"/>
<path transform="matrix(1.00009,0,0,-1.00003,53.077806,58.68634)" stroke-width=".79701" stroke-linecap="butt" stroke-miterlimit="10" stroke-linejoin="miter" fill="none" stroke="#409f9f" d="M3.4296-26.6913 7.45288-25.91257"/>
<path transform="matrix(1.00009,0,0,-1.00003,53.077806,58.68634)" stroke-width=".79701" stroke-linecap="butt" stroke-miterlimit="10" stroke-linejoin="miter" fill="none" stroke="#409f9f" d="M7.85313-22.41515 12.09883-21.11923"/>
<path transform="matrix(1.00009,0,0,-1.00003,53.077806,58.68634)" stroke-width=".79701" stroke-linecap="butt" stroke-miterlimit="10" stroke-linejoin="miter" fill="none" stroke="#409f9f" d="M12.34242-18.01099 16.67903-16.45392"/>
<path transform="matrix(1.00009,0,0,-1.00003,53.077806,58.68634)" stroke-width=".79701" stroke-linecap="butt" stroke-miterlimit="10" stroke-linejoin="miter" fill="none" stroke="#409f9f" d="M16.86557-13.51517 21.2254-11.8802"/>
<path transform="matrix(1.00009,0,0,-1.00003,53.077806,58.68634)" stroke-width=".79701" stroke-linecap="butt" stroke-miterlimit="10" stroke-linejoin="miter" fill="none" stroke="#409f9f" d="M21.4119-8.94151 25.7485-7.38443"/>
<path transform="matrix(1.00009,0,0,-1.00003,53.077806,58.68634)" stroke-width=".79701" stroke-linecap="butt" stroke-miterlimit="10" stroke-linejoin="miter" fill="none" stroke="#409f9f" d="M25.9921-4.27618 30.2378-2.98029"/>
<path transform="matrix(1.00009,0,0,-1.00003,53.077806,58.68634)" stroke-width=".79701" stroke-linecap="butt" stroke-miterlimit="10" stroke-linejoin="miter" fill="none" stroke="#409f9f" d="M30.63805 .51714 34.66135 1.29587"/>
<path transform="matrix(1.00009,0,0,-1.00003,53.077806,58.68634)" stroke-width=".79701" stroke-linecap="butt" stroke-miterlimit="10" stroke-linejoin="miter" fill="none" stroke="#409f9f" d="M35.4457 5.51402 38.92316 5.36845"/>
<path transform="matrix(1.00009,0,0,-1.00003,53.077806,58.68634)" stroke-width=".79701" stroke-linecap="butt" stroke-miterlimit="10" stroke-linejoin="miter" fill="none" stroke="#409f9f" d="M40.56291 10.7468 42.87544 9.20517"/>
<path transform="matrix(1.00009,0,0,-1.00003,53.077806,58.68634)" stroke-width=".79701" stroke-linecap="butt" stroke-miterlimit="10" stroke-linejoin="miter" fill="none" stroke="#409f9f" d="M45.97133 15.99191 46.53653 13.02956"/>
<path transform="matrix(1.00009,0,0,-1.00003,53.077806,58.68634)" stroke-width=".79701" stroke-linecap="butt" stroke-miterlimit="10" stroke-linejoin="miter" fill="none" stroke="#409f9f" d="M51.28922 20.93579 50.2881 17.15515"/>
<path transform="matrix(1.00009,0,0,-1.00003,53.077806,58.68634)" stroke-width=".79701" stroke-linecap="butt" stroke-miterlimit="10" stroke-linejoin="miter" fill="none" stroke="#409f9f" d="M56.3219 25.61835 54.32494 21.5421"/>
<path transform="matrix(1.00009,0,0,-1.00003,53.077806,58.68634)" stroke-width=".79701" stroke-linecap="butt" stroke-miterlimit="10" stroke-linejoin="miter" fill="none" stroke="#409f9f" d="M61.14677 30.1886 58.56955 26.04135"/>
<path transform="matrix(1.00009,0,0,-1.00003,53.077806,58.68634)" stroke-width=".79701" stroke-linecap="butt" stroke-miterlimit="10" stroke-linejoin="miter" fill="none" stroke="#409f9f" d="M65.8555 34.72156 62.93033 30.5779"/>
<path transform="matrix(1.00009,0,0,-1.00003,53.077806,58.68634)" stroke-width=".79701" stroke-linecap="butt" stroke-miterlimit="10" stroke-linejoin="miter" fill="none" stroke="#409f9f" d="M-22.1185-57.7872-25.04367-61.93086"/>
<path transform="matrix(1.00009,0,0,-1.00003,53.077806,58.68634)" stroke-width=".79701" stroke-linecap="butt" stroke-miterlimit="10" stroke-linejoin="miter" fill="none" stroke="#409f9f" d="M-17.75772-53.25066-20.33495-57.3979"/>
<path transform="matrix(1.00009,0,0,-1.00003,53.077806,58.68634)" stroke-width=".79701" stroke-linecap="butt" stroke-miterlimit="10" stroke-linejoin="miter" fill="none" stroke="#409f9f" d="M-13.5131-48.7514-15.51007-52.82765"/>
<path transform="matrix(1.00009,0,0,-1.00003,53.077806,58.68634)" stroke-width=".79701" stroke-linecap="butt" stroke-miterlimit="10" stroke-linejoin="miter" fill="none" stroke="#409f9f" d="M-9.47629-44.36446-10.47739-48.1451"/>
<path transform="matrix(1.00009,0,0,-1.00003,53.077806,58.68634)" stroke-width=".79701" stroke-linecap="butt" stroke-miterlimit="10" stroke-linejoin="miter" fill="none" stroke="#409f9f" d="M-5.72375-40.23895-5.16046-43.20114"/>
<path transform="matrix(1.00009,0,0,-1.00003,53.077806,58.68634)" stroke-width=".79701" stroke-linecap="butt" stroke-miterlimit="10" stroke-linejoin="miter" fill="none" stroke="#409f9f" d="M-2.06361-36.41447 .2489-37.95612"/>
<path transform="matrix(1.00009,0,0,-1.00003,53.077806,58.68634)" stroke-width=".79701" stroke-linecap="butt" stroke-miterlimit="10" stroke-linejoin="miter" fill="none" stroke="#409f9f" d="M1.88864-32.57777 5.36609-32.72334"/>
<path transform="matrix(1.00009,0,0,-1.00003,53.077806,58.68634)" stroke-width=".79701" stroke-linecap="butt" stroke-miterlimit="10" stroke-linejoin="miter" fill="none" stroke="#409f9f" d="M6.15047-28.50517 10.17377-27.72644"/>
<path transform="matrix(1.00009,0,0,-1.00003,53.077806,58.68634)" stroke-width=".79701" stroke-linecap="butt" stroke-miterlimit="10" stroke-linejoin="miter" fill="none" stroke="#409f9f" d="M10.57402-24.22902 14.81972-22.9331"/>
<path transform="matrix(1.00009,0,0,-1.00003,53.077806,58.68634)" stroke-width=".79701" stroke-linecap="butt" stroke-miterlimit="10" stroke-linejoin="miter" fill="none" stroke="#409f9f" d="M15.0633-19.82486 19.3999-18.26779"/>
<path transform="matrix(1.00009,0,0,-1.00003,53.077806,58.68634)" stroke-width=".79701" stroke-linecap="butt" stroke-miterlimit="10" stroke-linejoin="miter" fill="none" stroke="#409f9f" d="M19.58646-15.32904 23.94629-13.69408"/>
<path transform="matrix(1.00009,0,0,-1.00003,53.077806,58.68634)" stroke-width=".79701" stroke-linecap="butt" stroke-miterlimit="10" stroke-linejoin="miter" fill="none" stroke="#409f9f" d="M24.13278-10.75537 28.46939-9.1983"/>
<path transform="matrix(1.00009,0,0,-1.00003,53.077806,58.68634)" stroke-width=".79701" stroke-linecap="butt" stroke-miterlimit="10" stroke-linejoin="miter" fill="none" stroke="#409f9f" d="M28.71297-6.09006 32.95868-4.79414"/>
<path transform="matrix(1.00009,0,0,-1.00003,53.077806,58.68634)" stroke-width=".79701" stroke-linecap="butt" stroke-miterlimit="10" stroke-linejoin="miter" fill="none" stroke="#409f9f" d="M33.35893-1.29672 37.38222-.51799"/>
<path transform="matrix(1.00009,0,0,-1.00003,53.077806,58.68634)" stroke-width=".79701" stroke-linecap="butt" stroke-miterlimit="10" stroke-linejoin="miter" fill="none" stroke="#409f9f" d="M38.16658 3.70015 41.64403 3.55458"/>
<path transform="matrix(1.00009,0,0,-1.00003,53.077806,58.68634)" stroke-width=".79701" stroke-linecap="butt" stroke-miterlimit="10" stroke-linejoin="miter" fill="none" stroke="#409f9f" d="M43.2838 8.93294 45.59631 7.3913"/>
<path transform="matrix(1.00009,0,0,-1.00003,53.077806,58.68634)" stroke-width=".79701" stroke-linecap="butt" stroke-miterlimit="10" stroke-linejoin="miter" fill="none" stroke="#409f9f" d="M48.6922 14.17804 49.25742 11.2157"/>
<path transform="matrix(1.00009,0,0,-1.00003,53.077806,58.68634)" stroke-width=".79701" stroke-linecap="butt" stroke-miterlimit="10" stroke-linejoin="miter" fill="none" stroke="#409f9f" d="M54.0101 19.12192 53.00899 15.34128"/>
<path transform="matrix(1.00009,0,0,-1.00003,53.077806,58.68634)" stroke-width=".79701" stroke-linecap="butt" stroke-miterlimit="10" stroke-linejoin="miter" fill="none" stroke="#409f9f" d="M59.04277 23.80447 57.0458 19.72823"/>
<path transform="matrix(1.00009,0,0,-1.00003,53.077806,58.68634)" stroke-width=".79701" stroke-linecap="butt" stroke-miterlimit="10" stroke-linejoin="miter" fill="none" stroke="#409f9f" d="M63.86766 28.37473 61.29044 24.22748"/>
<path transform="matrix(1.00009,0,0,-1.00003,53.077806,58.68634)" stroke-width=".79701" stroke-linecap="butt" stroke-miterlimit="10" stroke-linejoin="miter" fill="none" stroke="#409f9f" d="M68.57637 32.90768 65.65121 28.76402"/>
<path transform="matrix(1.00009,0,0,-1.00003,53.077806,58.68634)" stroke-width=".79701" stroke-linecap="butt" stroke-miterlimit="10" stroke-linejoin="miter" fill="none" stroke="#409f9f" d="M-19.39763-59.60106-22.32278-63.74474"/>
<path transform="matrix(1.00009,0,0,-1.00003,53.077806,58.68634)" stroke-width=".79701" stroke-linecap="butt" stroke-miterlimit="10" stroke-linejoin="miter" fill="none" stroke="#409f9f" d="M-15.03685-55.06453-17.61407-59.21178"/>
<path transform="matrix(1.00009,0,0,-1.00003,53.077806,58.68634)" stroke-width=".79701" stroke-linecap="butt" stroke-miterlimit="10" stroke-linejoin="miter" fill="none" stroke="#409f9f" d="M-10.79222-50.56526-12.78918-54.64153"/>
<path transform="matrix(1.00009,0,0,-1.00003,53.077806,58.68634)" stroke-width=".79701" stroke-linecap="butt" stroke-miterlimit="10" stroke-linejoin="miter" fill="none" stroke="#409f9f" d="M-6.7554-46.17833-7.75652-49.95897"/>
<path transform="matrix(1.00009,0,0,-1.00003,53.077806,58.68634)" stroke-width=".79701" stroke-linecap="butt" stroke-miterlimit="10" stroke-linejoin="miter" fill="none" stroke="#409f9f" d="M-3.00287-42.05281-2.43958-45.01501"/>
<path transform="matrix(1.00009,0,0,-1.00003,53.077806,58.68634)" stroke-width=".79701" stroke-linecap="butt" stroke-miterlimit="10" stroke-linejoin="miter" fill="none" stroke="#409f9f" d="M.65726-38.22835 2.96977-39.76997"/>
<path transform="matrix(1.00009,0,0,-1.00003,53.077806,58.68634)" stroke-width=".79701" stroke-linecap="butt" stroke-miterlimit="10" stroke-linejoin="miter" fill="none" stroke="#409f9f" d="M4.60953-34.39165 8.08698-34.53722"/>
<path transform="matrix(1.00009,0,0,-1.00003,53.077806,58.68634)" stroke-width=".79701" stroke-linecap="butt" stroke-miterlimit="10" stroke-linejoin="miter" fill="none" stroke="#409f9f" d="M8.87135-30.31905 12.89464-29.54031"/>
<path transform="matrix(1.00009,0,0,-1.00003,53.077806,58.68634)" stroke-width=".79701" stroke-linecap="butt" stroke-miterlimit="10" stroke-linejoin="miter" fill="none" stroke="#409f9f" d="M13.29489-26.04288 17.5406-24.74698"/>
<path transform="matrix(1.00009,0,0,-1.00003,53.077806,58.68634)" stroke-width=".79701" stroke-linecap="butt" stroke-miterlimit="10" stroke-linejoin="miter" fill="none" stroke="#409f9f" d="M17.78418-21.63873 22.12079-20.08165"/>
<path transform="matrix(1.00009,0,0,-1.00003,53.077806,58.68634)" stroke-width=".79701" stroke-linecap="butt" stroke-miterlimit="10" stroke-linejoin="miter" fill="none" stroke="#409f9f" d="M22.30733-17.14291 26.66716-15.50793"/>
<path transform="matrix(1.00009,0,0,-1.00003,53.077806,58.68634)" stroke-width=".79701" stroke-linecap="butt" stroke-miterlimit="10" stroke-linejoin="miter" fill="none" stroke="#409f9f" d="M26.85367-12.56924 31.19028-11.01216"/>
<path transform="matrix(1.00009,0,0,-1.00003,53.077806,58.68634)" stroke-width=".79701" stroke-linecap="butt" stroke-miterlimit="10" stroke-linejoin="miter" fill="none" stroke="#409f9f" d="M31.43385-7.90393 35.67955-6.60802"/>
<path transform="matrix(1.00009,0,0,-1.00003,53.077806,58.68634)" stroke-width=".79701" stroke-linecap="butt" stroke-miterlimit="10" stroke-linejoin="miter" fill="none" stroke="#409f9f" d="M36.0798-3.1106 40.1031-2.33185"/>
<path transform="matrix(1.00009,0,0,-1.00003,53.077806,58.68634)" stroke-width=".79701" stroke-linecap="butt" stroke-miterlimit="10" stroke-linejoin="miter" fill="none" stroke="#409f9f" d="M40.88747 1.88629 44.36491 1.7407"/>
<path transform="matrix(1.00009,0,0,-1.00003,53.077806,58.68634)" stroke-width=".79701" stroke-linecap="butt" stroke-miterlimit="10" stroke-linejoin="miter" fill="none" stroke="#409f9f" d="M46.00467 7.11906 48.3172 5.57744"/>
<path transform="matrix(1.00009,0,0,-1.00003,53.077806,58.68634)" stroke-width=".79701" stroke-linecap="butt" stroke-miterlimit="10" stroke-linejoin="miter" fill="none" stroke="#409f9f" d="M51.41309 12.36417 51.97829 9.40182"/>
<path transform="matrix(1.00009,0,0,-1.00003,53.077806,58.68634)" stroke-width=".79701" stroke-linecap="butt" stroke-miterlimit="10" stroke-linejoin="miter" fill="none" stroke="#409f9f" d="M56.73097 17.30806 55.72987 13.5274"/>
<path transform="matrix(1.00009,0,0,-1.00003,53.077806,58.68634)" stroke-width=".79701" stroke-linecap="butt" stroke-miterlimit="10" stroke-linejoin="miter" fill="none" stroke="#409f9f" d="M61.76366 21.99062 59.7667 17.91435"/>
<path transform="matrix(1.00009,0,0,-1.00003,53.077806,58.68634)" stroke-width=".79701" stroke-linecap="butt" stroke-miterlimit="10" stroke-linejoin="miter" fill="none" stroke="#409f9f" d="M66.58853 26.56085 64.0113 22.4136"/>
<path transform="matrix(1.00009,0,0,-1.00003,53.077806,58.68634)" stroke-width=".79701" stroke-linecap="butt" stroke-miterlimit="10" stroke-linejoin="miter" fill="none" stroke="#409f9f" d="M71.29726 31.09381 68.37209 26.95015"/>
<path transform="matrix(1.00009,0,0,-1.00003,53.077806,58.68634)" stroke-width=".79701" stroke-linecap="butt" stroke-miterlimit="10" stroke-linejoin="miter" fill="none" stroke="#409f9f" d="M-16.67674-61.41493-19.60191-65.5586"/>
<path transform="matrix(1.00009,0,0,-1.00003,53.077806,58.68634)" stroke-width=".79701" stroke-linecap="butt" stroke-miterlimit="10" stroke-linejoin="miter" fill="none" stroke="#409f9f" d="M-12.31596-56.87839-14.89319-61.02565"/>
<path transform="matrix(1.00009,0,0,-1.00003,53.077806,58.68634)" stroke-width=".79701" stroke-linecap="butt" stroke-miterlimit="10" stroke-linejoin="miter" fill="none" stroke="#409f9f" d="M-8.07135-52.37914-10.06831-56.4554"/>
<path transform="matrix(1.00009,0,0,-1.00003,53.077806,58.68634)" stroke-width=".79701" stroke-linecap="butt" stroke-miterlimit="10" stroke-linejoin="miter" fill="none" stroke="#409f9f" d="M-4.03452-47.9922-5.03563-51.77284"/>
<path transform="matrix(1.00009,0,0,-1.00003,53.077806,58.68634)" stroke-width=".79701" stroke-linecap="butt" stroke-miterlimit="10" stroke-linejoin="miter" fill="none" stroke="#409f9f" d="M-.28198-43.86668 .2813-46.82889"/>
<path transform="matrix(1.00009,0,0,-1.00003,53.077806,58.68634)" stroke-width=".79701" stroke-linecap="butt" stroke-miterlimit="10" stroke-linejoin="miter" fill="none" stroke="#409f9f" d="M3.37813-40.04222 5.69066-41.58385"/>
<path transform="matrix(1.00009,0,0,-1.00003,53.077806,58.68634)" stroke-width=".79701" stroke-linecap="butt" stroke-miterlimit="10" stroke-linejoin="miter" fill="none" stroke="#409f9f" d="M7.3304-36.2055 10.80786-36.35109"/>
<path transform="matrix(1.00009,0,0,-1.00003,53.077806,58.68634)" stroke-width=".79701" stroke-linecap="butt" stroke-miterlimit="10" stroke-linejoin="miter" fill="none" stroke="#409f9f" d="M11.59222-32.13292 15.61552-31.35417"/>
<path transform="matrix(1.00009,0,0,-1.00003,53.077806,58.68634)" stroke-width=".79701" stroke-linecap="butt" stroke-miterlimit="10" stroke-linejoin="miter" fill="none" stroke="#409f9f" d="M16.01578-27.85675 20.26147-26.56084"/>
<path transform="matrix(1.00009,0,0,-1.00003,53.077806,58.68634)" stroke-width=".79701" stroke-linecap="butt" stroke-miterlimit="10" stroke-linejoin="miter" fill="none" stroke="#409f9f" d="M20.50507-23.4526 24.84166-21.89552"/>
<path transform="matrix(1.00009,0,0,-1.00003,53.077806,58.68634)" stroke-width=".79701" stroke-linecap="butt" stroke-miterlimit="10" stroke-linejoin="miter" fill="none" stroke="#409f9f" d="M25.02821-18.95679 29.38805-17.32181"/>
<path transform="matrix(1.00009,0,0,-1.00003,53.077806,58.68634)" stroke-width=".79701" stroke-linecap="butt" stroke-miterlimit="10" stroke-linejoin="miter" fill="none" stroke="#409f9f" d="M29.57454-14.38312 33.91115-12.82603"/>
<path transform="matrix(1.00009,0,0,-1.00003,53.077806,58.68634)" stroke-width=".79701" stroke-linecap="butt" stroke-miterlimit="10" stroke-linejoin="miter" fill="none" stroke="#409f9f" d="M34.15474-9.71779 38.40044-8.42189"/>
<path transform="matrix(1.00009,0,0,-1.00003,53.077806,58.68634)" stroke-width=".79701" stroke-linecap="butt" stroke-miterlimit="10" stroke-linejoin="miter" fill="none" stroke="#409f9f" d="M38.80069-4.92445 42.82397-4.14572"/>
<path transform="matrix(1.00009,0,0,-1.00003,53.077806,58.68634)" stroke-width=".79701" stroke-linecap="butt" stroke-miterlimit="10" stroke-linejoin="miter" fill="none" stroke="#409f9f" d="M43.60834 .07242 47.0858-.07315"/>
<path transform="matrix(1.00009,0,0,-1.00003,53.077806,58.68634)" stroke-width=".79701" stroke-linecap="butt" stroke-miterlimit="10" stroke-linejoin="miter" fill="none" stroke="#409f9f" d="M48.72556 5.30519 51.03809 3.76357"/>
<path transform="matrix(1.00009,0,0,-1.00003,53.077806,58.68634)" stroke-width=".79701" stroke-linecap="butt" stroke-miterlimit="10" stroke-linejoin="miter" fill="none" stroke="#409f9f" d="M54.13396 10.55031 54.69917 7.58795"/>
<path transform="matrix(1.00009,0,0,-1.00003,53.077806,58.68634)" stroke-width=".79701" stroke-linecap="butt" stroke-miterlimit="10" stroke-linejoin="miter" fill="none" stroke="#409f9f" d="M59.45186 15.49419 58.45074 11.71355"/>
<path transform="matrix(1.00009,0,0,-1.00003,53.077806,58.68634)" stroke-width=".79701" stroke-linecap="butt" stroke-miterlimit="10" stroke-linejoin="miter" fill="none" stroke="#409f9f" d="M64.48453 20.17674 62.48758 16.10048"/>
<path transform="matrix(1.00009,0,0,-1.00003,53.077806,58.68634)" stroke-width=".79701" stroke-linecap="butt" stroke-miterlimit="10" stroke-linejoin="miter" fill="none" stroke="#409f9f" d="M69.30942 24.747 66.7322 20.59973"/>
<path transform="matrix(1.00009,0,0,-1.00003,53.077806,58.68634)" stroke-width=".79701" stroke-linecap="butt" stroke-miterlimit="10" stroke-linejoin="miter" fill="none" stroke="#409f9f" d="M74.01814 29.27994 71.09297 25.13628"/>
</svg>
