<svg xmlns="http://www.w3.org/2000/svg" xmlns:xlink="http://www.w3.org/1999/xlink" version="1.1" width="280" height="89" viewBox="0 0 280 89">
<defs>
<path id="font_1_1" d="M.42799378 .45222474 .43899537 .49023438H.31199647L.34599305 .6092224 .33399964 .6162262 .23699951 .53923037 .22399903 .49023438H.14299011L.13198853 .45222474H.21499634L.125 .08627319C.10998535 .029266358 .12199402-.01171875 .17199707-.01171875 .2519989-.01171875 .31599427 .054275514 .35598756 .1292572L.33399964 .1462555C.31098939 .10726929 .2599945 .040267946 .22898865 .040267946 .20799256 .040267946 .20799256 .0632782 .21398926 .088272098L.30299378 .45222474H.42799378Z"/>
<path id="font_2_4" d="M.43699647 0V.0289917L.35299684 .035995485C.33198548 .037994386 .31999208 .04598999 .31999208 .08496094V.67367556L.31498719 .6796875 .10899353 .6446991V.6197052L.20199585 .6087036C.21899414 .6067047 .22599793 .5987091 .22599793 .56973269V.08496094C.22599793 .065979007 .22299195 .053985597 .21699524 .04698181 .21199036 .039993287 .20399475 .036987306 .19299317 .035995485L.10899353 .0289917V0H.43699647Z"/>
<path id="font_2_5" d="M.4850006 .13195801 .45700074 .13696289C.43598939 .08299255 .41600038 .07598877 .37599183 .07598877H.11999512C.13598633 .1279602 .19499207 .19892884 .28799439 .2658844 .38398744 .33584596 .45799256 .38082887 .45799256 .49276734 .45799256 .63168337 .3659973 .6796875 .26098634 .6796875 .12399292 .6796875 .052993776 .5967102 .052993776 .54473879 .052993776 .51075747 .09098816 .49476625 .10798645 .49476625 .12599182 .49476625 .1329956 .50476077 .13699341 .5217438 .15299988 .5897064 .19198609 .64468386 .2539978 .64468386 .33099366 .64468386 .35299684 .5797119 .35299684 .50675967 .35299684 .3998108 .29899598 .33984376 .21199036 .26289369 .08898926 .15594483 .04598999 .08798218 .026992798 .009994507L.036987306 0H.45098878L.4850006 .13195801Z"/>
<path id="font_2_6" d="M.12998963 .3657837C.12998963 .3487854 .1349945 .33779908 .147995 .33779908 .1599884 .33779908 .18699646 .34777833 .23498535 .34777833 .31999208 .34777833 .36799623 .27090455 .36799623 .18403626 .36799623 .065216068 .30899049 .023269654 .23799134 .023269654 .17199707 .023269654 .1289978 .07319641 .10998535 .12911988 .10398865 .14808655 .09399414 .15707398 .07998657 .15707398 .06199646 .15707398 .026992798 .13809204 .026992798 .10215759 .026992798 .05921936 .09599304-.01171875 .23699951-.01171875 .38198854-.01171875 .47299195 .06121826 .47299195 .18902588 .47299195 .32281495 .35798646 .3627777 .30299378 .3677826V.3717804C.35699464 .38078309 .44400025 .4207611 .44400025 .5197296 .44400025 .6306915 .35699464 .6796875 .25 .6796875 .117996219 .6796875 .052993776 .60369876 .052993776 .5607147 .052993776 .5297241 .08799744 .51272585 .101989749 .51272585 .114990238 .51272585 .12298584 .5197296 .1269989 .5327301 .14898682 .60069277 .18699646 .64468386 .24299622 .64468386 .32199098 .64468386 .34098817 .57470706 .34098817 .51872256 .34098817 .4587555 .31999208 .38378907 .23498535 .38378907 .18699646 .38378907 .1599884 .39378358 .147995 .39378358 .1349945 .39378358 .12998963 .38378907 .12998963 .3657837Z"/>
<path id="font_2_7" d="M.2999878 .17871094V.0769043C.2999878 .04296875 .2889862 .036987306 .2649994 .034988405L.20098877 .0289917V0H.46499635V.0289917L.41999818 .033981325C.39698792 .036987306 .3899994 .04296875 .3899994 .0769043V.17871094H.49299623V.22570801H.3899994V.66796877H.31698609C.22299195 .5298767 .11099243 .35577394 .018997193 .19970703L.027999878 .17871094H.2999878M.09098816 .22570801C.15098572 .33476258 .22099304 .4498291 .2979889 .5709076H.2999878V.22570801H.09098816Z"/>
<path id="font_2_8" d="M.42599488 .5919647 .44999696 .6599579 .44499208 .66796877H.11099243L.100997928 .65896609 .08099365 .32388307 .10499573 .31188966C.14698792 .35983277 .18798828 .3828125 .24198914 .3828125 .30599977 .3828125 .37599183 .3358612 .37599183 .20404053 .37599183 .10116577 .33399964 .023269654 .24699402 .023269654 .1769867 .023269654 .14099121 .07420349 .12098694 .13113404 .115997318 .14611817 .10699463 .15510559 .09298706 .15510559 .07299805 .15510559 .039993287 .13513184 .039993287 .10217285 .039993287 .056228639 .10998535-.01171875 .23999024-.01171875 .40499879-.01171875 .47999574 .0881958 .47999574 .21502686 .47999574 .35484315 .3919983 .4268036 .272995 .4268036 .21798706 .4268036 .15899658 .4028015 .1269989 .3738098L.125 .37580873 .147995 .56292727C.15098572 .58795168 .1579895 .5919647 .1769867 .5919647H.42599488Z"/>
<path id="font_2_9" d="M.27198792-.01171875C.41999818-.01171875 .49899293 .07821655 .49899293 .2140503 .49899293 .3488922 .4119873 .42385865 .30799867 .421875 .23199463 .42385865 .17199707 .36886598 .14498902 .33590699H.14299011C.14399719 .5557556 .20698548 .64468386 .29699708 .64468386 .34298707 .64468386 .375 .6057129 .3899994 .5487671 .3929901 .5367737 .40098573 .527771 .41600038 .527771 .43798829 .527771 .46899415 .5447693 .46899415 .57273867 .46899415 .6127014 .41999818 .6796875 .2999878 .6796875 .22099304 .6796875 .16499329 .64967349 .12298584 .6017151 .07798767 .5497589 .04399109 .45384217 .04399109 .3089447 .04399109 .093185428 .12199402-.01171875 .27198792-.01171875M.27398683 .37086488C.33699037 .37086488 .39898683 .31393434 .39898683 .19906616 .39898683 .094192508 .35798646 .023269654 .27398683 .023269654 .18699646 .023269654 .14498902 .11616516 .14498902 .23602295 .14498902 .2969513 .18998719 .37086488 .27398683 .37086488Z"/>
<path id="font_2_10" d="M.07199097 .66796877 .040985109 .5279999H.067993167L.07798767 .5489807C.09098816 .57696536 .10398865 .5919647 .14898682 .5919647H.4189911C.40899659 .5559845 .3909912 .4980011 .30999757 .38206483 .22399903 .25914 .16699219 .14718628 .16699219 .029251099 .16699219-.0037231446 .18998719-.01171875 .22099304-.01171875 .25-.01171875 .2709961-.0027313233 .269989 .026260376 .2649994 .15818787 .2919922 .26412965 .34498597 .35708619 .40899659 .46905519 .46199037 .5310211 .49699403 .65696719L.48799134 .66796877H.07199097Z"/>
<path id="font_2_11" d="M.2649994 .3380127C.34498597 .3380127 .3880005 .2700653 .3880005 .17915344 .3880005 .09121704 .34999085 .023269654 .2649994 .023269654 .18199158 .023269654 .14199829 .09121704 .14199829 .17915344 .14199829 .2700653 .18598938 .3380127 .2649994 .3380127M.2649994-.01171875C.4269867-.01171875 .48799134 .081222537 .48799134 .18214417 .48799134 .28405763 .42399598 .3420105 .35598756 .35801698V.36102296C.4169922 .37701417 .46598817 .427948 .46598817 .5098419 .46598817 .6187134 .3809967 .6796875 .2649994 .6796875 .15098572 .6796875 .06399536 .61772158 .06399536 .5098419 .06399536 .427948 .11399841 .37701417 .17399597 .36102296V.35801698C.10699463 .3420105 .041992189 .28405763 .041992189 .18214417 .041992189 .081222537 .101989749-.01171875 .2649994-.01171875M.2649994 .37402345C.19299317 .37402345 .16099549 .44392396 .16099549 .5118408 .16099549 .5887451 .19699097 .64468386 .2649994 .64468386 .33299256 .64468386 .36698915 .5887451 .36898805 .5118408 .36898805 .44392396 .33799745 .37402345 .2649994 .37402345Z"/>
<path id="font_2_12" d="M.22898865 .26757813C.29100038 .26757813 .34298707 .30256654 .3769989 .35157777H.3789978C.3789978 .28857423 .37399293 .20774842 .35598756 .13894654 .33799745 .073135379 .30299378 .023269654 .23899842 .023269654 .17098999 .023269654 .1459961 .0761261 .1309967 .12298584 .1269989 .13595581 .11999512 .1439209 .102996829 .1439209 .083999637 .1439209 .055999757 .12397766 .055999757 .09307861 .055999757 .049194337 .10899353-.01171875 .22999573-.01171875 .31098939-.01171875 .37298585 .01828003 .41099549 .071136478 .45199586 .12797547 .47698976 .2157135 .47698976 .36058045 .47698976 .48461915 .45199586 .56565859 .41299439 .6126709 .375 .6576843 .31999208 .6796875 .2559967 .6796875 .12799073 .6796875 .035995485 .5946655 .035995485 .45661927 .035995485 .3315735 .12599182 .26757813 .22898865 .26757813M.25898744 .3205719C.18099976 .3205719 .13598633 .38859559 .13598633 .48461915 .13598633 .57666018 .1769867 .64468386 .25498963 .64468386 .33499146 .64468386 .37399293 .5496521 .37399293 .45262147 .37399293 .4356079 .37298585 .41560365 .36698915 .39959718 .35099793 .35258485 .31199647 .3205719 .25898744 .3205719Z"/>
<path id="font_2_3" d="M.2649994 .64468386C.3600006 .64468386 .3869934 .49682618 .3869934 .33398438 .3869934 .17112732 .3600006 .023269654 .2649994 .023269654 .16999817 .023269654 .14299011 .17112732 .14299011 .33398438 .14299011 .49682618 .16999817 .64468386 .2649994 .64468386M.2649994 .6796875C.099990848 .6796875 .040985109 .53378298 .040985109 .33398438 .040985109 .13417053 .099990848-.01171875 .2649994-.01171875 .42999269-.01171875 .4889984 .13417053 .4889984 .33398438 .4889984 .53378298 .42999269 .6796875 .2649994 .6796875Z"/>
<path id="font_1_2" d="M.5329895 .48995973C.5039978 .388031 .48799134 .33506776 .46199037 .2741089 .41799928 .173172 .33099366 .040267946 .24798584 .040267946 .21598816 .040267946 .20799256 .070251468 .22299195 .12820435L.31900025 .4970703 .31399537 .50205996 .13198853 .47375489 .12599182 .4497528 .18798828 .44476319C.21199036 .44276429 .21099854 .42778016 .20298767 .39682008L.13398743 .13316345C.11299133 .053253175 .12098694-.01171875 .20098877-.01171875 .29699708-.01171875 .4019928 .09420776 .46199037 .21005249H.46398927L.43099977 .096206668C.4119873 .029266358 .42399598-.01171875 .47698976-.01171875 .548996-.01171875 .60899356 .057250978 .6439972 .13116455L.6199951 .14613343C.59999087 .11218262 .55599978 .040267946 .5279999 .040267946 .5069885 .040267946 .5069885 .06324768 .5149994 .09420776L.621994 .5019531 .5329895 .48995973Z"/>
<path id="font_2_1" d="M.1749878 .2822113C.1749878 .56832888 .2619934 .65437319 .32499696 .66737368V.6923828C.1499939 .685379 .10499573 .46829225 .10499573 .2822113 .10499573 .09614563 .1499939-.12094116 .32499696-.12792969V-.10293579C.2669983-.090927127 .1749878-.0059051516 .1749878 .2822113Z"/>
<path id="font_2_2" d="M.1749878 .2822113C.1749878-.0059051516 .08299255-.090927127 .024993897-.10293579V-.12792969C.19999695-.12094116 .24499512 .09614563 .24499512 .2822113 .24499512 .46829225 .19999695 .685379 .024993897 .6923828V.66737368C.08799744 .65437319 .1749878 .56832888 .1749878 .2822113Z"/>
<path id="font_2_19" d="M.32598878 .45022584V.49023438H.19699097V.6162262H.16799927L.10699463 .49023438H.0309906V.45022584H.102996829V.102264408C.102996829 .0002746582 .1789856-.01171875 .21398926-.01171875 .2649994-.01171875 .31298829 .014266968 .34199525 .03227234L.33399964 .053268434C.30999757 .043273927 .28799439 .040267946 .2630005 .040267946 .22898865 .040267946 .19699097 .06427002 .19699097 .14025879V.45022584H.32598878Z"/>
<path id="font_2_20" d="M.59098818 0V.0289917C.5219879 .033996583 .5159912 .035995485 .5159912 .08699036V.49609376L.5089874 .50209048 .35198976 .47709657V.45210267L.3899994 .44711305C.41600038 .44309999 .42199708 .43811036 .42199708 .40213014V.17721558C.42199708 .14923096 .4189911 .12724304 .4139862 .117248538 .3909912 .071258548 .34298707 .042266847 .29100038 .042266847 .23298645 .042266847 .18998719 .07826233 .18998719 .15621948V.49609376L.18299866 .50209048 .025985718 .47709657V.45210267L.06399536 .44711305C.08999634 .44309999 .09599304 .43811036 .09599304 .40213014V.13822937C.09599304 .023269654 .1639862-.01171875 .23799134-.01171875 .32299806-.01171875 .3919983 .04626465 .42099 .060272218L.43099977 0H.59098818Z"/>
<path id="font_2_17" d="M.18899536 .5019531 .036987306 .47694398V.45195008L.07499695 .4469452C.100997928 .4429474 .10699463 .4379425 .10699463 .40194703V.08699036C.10699463 .035995485 .101989749 .033996583 .03199768 .0289917V0H.29599V.0289917C.20698548 .033996583 .20098877 .035995485 .20098877 .08699036V.32095338C.20098877 .39794923 .23498535 .4239502 .2579956 .4239502 .27398683 .4239502 .29100038 .4179535 .31999208 .40194703 .32699586 .39794923 .33499146 .39694215 .33999635 .39694215 .3639984 .39694215 .38598634 .4219513 .38598634 .4529419 .38598634 .47494508 .37199403 .5019531 .33299256 .5019531 .29699708 .5019531 .2669983 .47994996 .20098877 .4219513L.18899536 .5019531Z"/>
<path id="font_2_16" d="M.5289917 .34295655C.5289917 .4439392 .47399903 .5019531 .38198854 .5019531 .30799867 .5019531 .2619934 .46594239 .19999695 .4259491L.18598938 .5019531 .036987306 .47694398V.45195008L.07499695 .4469452C.100997928 .4429474 .10699463 .4379425 .10699463 .40194703V.08699036C.10699463 .035995485 .10398865 .033996583 .03199768 .0289917V0H.27598573V.0289917C.20498657 .033996583 .20098877 .035995485 .20098877 .08699036V.32095338C.20098877 .34596253 .20298767 .35995484 .21099854 .37594605 .23199463 .4149475 .2769928 .44795228 .32998658 .44795228 .397995 .44795228 .43499757 .40994264 .43499757 .32295228V.08699036C.43499757 .035995485 .43199159 .033996583 .3600006 .0289917V0H.60398867V.0289917C.5329895 .033996583 .5289917 .035995485 .5289917 .08699036V.34295655Z"/>
<path id="font_2_18" d="M.36698915 .35102845V.46794129C.33399964 .49194337 .2829895 .5019531 .23799134 .5019531 .12998963 .5019531 .056991579 .45095826 .055999757 .35603334 .056991579 .27308656 .12399292 .2361145 .20698548 .21113587 .2519989 .19714356 .31498719 .17416382 .31498719 .10621643 .31498719 .055252077 .2749939 .023269654 .22200012 .023269654 .14099121 .023269654 .09599304 .082229617 .07598877 .16716004H.04699707L.056991579 .03627014C.09298706 .004272461 .1539917-.01171875 .21299744-.01171875 .33198548-.01171875 .3999939 .051254274 .3999939 .13618469 .3999939 .2241211 .34599305 .26409913 .24299622 .29606629 .20199585 .30906678 .13598633 .3300476 .13598633 .3860016 .13699341 .43795777 .17599488 .46694947 .22599793 .46694947 .29699708 .46694947 .33099366 .4119873 .33799745 .35102845H.36698915Z"/>
<path id="font_2_15" d="M.3809967 .6720276C.5589905 .6720276 .59999087 .4931183 .60198977 .3461914 .59999087 .19924927 .5589905 .020339966 .3809967 .020339966 .20298767 .020339966 .1619873 .19924927 .1599884 .3461914 .1619873 .4931183 .20298767 .6720276 .3809967 .6720276M.3809967 .70703127C.2709961 .70703127 .18899536 .6730194 .1329956 .61006167 .07899475 .55007937 .04798889 .4591217 .04798889 .3461914 .04798889 .23423767 .07899475 .14228821 .1329956 .08232117 .18899536 .019348145 .2709961-.0146484379 .3809967-.0146484379 .49198915-.0146484379 .57299807 .019348145 .6289978 .08232117 .6839905 .14228821 .71398928 .23423767 .71398928 .3461914 .71398928 .4591217 .6839905 .55007937 .6289978 .61006167 .57299807 .6730194 .49198915 .70703127 .3809967 .70703127Z"/>
<path id="font_2_14" d="M.033996583 .6923828V.66337588C.12199402 .6573639 .12399292 .655365 .12399292 .5993347V.20309448C.12399292 .15007019 .12199402 .11204529 .116989139 .07902527 .11099243 .037002565 .08699036 .032989503 .034988405 .0289917V0H.27198792V.0289917C.20698548 .033996583 .18299866 .037002565 .1769867 .07902527 .17199707 .11204529 .16999817 .15007019 .16999817 .20309448V.6023407H.17199707C.31498719 .4012146 .45700074 .20109558 .59799197 0H.6639862V.48927308C.6639862 .54229739 .66600039 .58032229 .67099 .6133423 .6769867 .655365 .70098879 .6593628 .7529907 .66337588V.6923828H.5159912V.66337588C.58099368 .658371 .6049957 .655365 .61099246 .6133423 .6159973 .58032229 .6179962 .54229739 .6179962 .48927308V.13806153L.6159973 .14006043C.4850006 .32417298 .35499574 .5082855 .22599793 .6923828H.033996583Z"/>
<path id="font_3_2" d="M.6349945 .14315796V.20117188H.084991458V.14315796H.6349945M.6349945 .36288453V.42089845H.084991458V.36288453H.6349945Z"/>
<path id="font_3_1" d="M.6349945 .2529297V.31092835H.084991458V.2529297H.6349945Z"/>
<path id="font_2_13" d="M.034988405 .6923828V.66337588C.12298584 .6573639 .125 .655365 .125 .5993347V.093048099C.125 .037002565 .12298584 .035003663 .034988405 .0289917V0H.32998658V.0289917C.22698975 .035003663 .22399903 .037002565 .22399903 .093048099V.32722474H.3639984C.44898988 .32722474 .45298768 .3032074 .46199037 .23916626H.49198915V.4532776H.46199037C.45298768 .38923646 .44898988 .36523438 .3639984 .36523438H.22399903V.62135317C.22399903 .65437319 .22799683 .65737918 .26098634 .65737918H.3600006C.47599793 .65737918 .49899293 .6343689 .5130005 .5323181H.54299929V.6923828H.034988405Z"/>
</defs>
<path transform="matrix(1.00008,0,0,-1,12.831306,58.332)" stroke-width=".19925" stroke-linecap="butt" stroke-dasharray="2.98883,2.98883" stroke-miterlimit="10" stroke-linejoin="miter" fill="none" stroke="#000000" d="M181.42028-29.48083V56.69382"/>
<path transform="matrix(1.00008,0,0,-1,12.831306,58.332)" stroke-width=".19925" stroke-linecap="butt" stroke-dasharray="2.98883,2.98883" stroke-miterlimit="10" stroke-linejoin="miter" fill="none" stroke="#000000" d="M90.71013-29.48083V56.69382"/>
<path transform="matrix(1.00008,0,0,-1,12.831306,58.332)" stroke-width=".3985" stroke-linecap="butt" stroke-miterlimit="10" stroke-linejoin="miter" fill="none" stroke="#000000" d="M-11.33876 0H264.86878"/>
<path transform="matrix(1.00008,0,0,-1,277.72126,58.332)" stroke-width=".31879" stroke-linecap="round" stroke-linejoin="round" fill="none" stroke="#000000" d="M-1.19551 1.59401C-1.09587 .99626 0 .09961 .29886 0 0-.09961-1.09587-.99626-1.19551-1.59401"/>
<path transform="matrix(1.00008,0,0,-1,12.831306,58.332)" stroke-width=".3985" stroke-linecap="butt" stroke-miterlimit="10" stroke-linejoin="miter" fill="none" stroke="#000000" d="M0-29.48083V56.23553"/>
<path transform="matrix(0,-1,-1.00008,-0,12.831306,2.0964699)" stroke-width=".31879" stroke-linecap="round" stroke-linejoin="round" fill="none" stroke="#000000" d="M-1.19551 1.59401C-1.09587 .99626 0 .09961 .29886 0 0-.09961-1.09587-.99626-1.19551-1.59401"/>
<use data-text="t" xlink:href="#font_1_1" transform="matrix(10.037203,0,0,-10.0364,273.77317,67.916)"/>
<path transform="matrix(1.00008,0,0,-1,12.831306,58.332)" stroke-width=".3985" stroke-linecap="butt" stroke-miterlimit="10" stroke-linejoin="miter" fill="none" stroke="#929292" d="M22.67752 2.26787V-2.26787"/>
<use data-text="1" xlink:href="#font_2_4" transform="matrix(10.037203,0,0,-10.0364,32.848909,70.265)"/>
<path transform="matrix(1.00008,0,0,-1,12.831306,58.332)" stroke-width=".3985" stroke-linecap="butt" stroke-miterlimit="10" stroke-linejoin="miter" fill="none" stroke="#929292" d="M45.35506 2.26787V-2.26787"/>
<use data-text="2" xlink:href="#font_2_5" transform="matrix(10.037203,0,0,-10.0364,55.52772,70.265)"/>
<path transform="matrix(1.00008,0,0,-1,12.831306,58.332)" stroke-width=".3985" stroke-linecap="butt" stroke-miterlimit="10" stroke-linejoin="miter" fill="none" stroke="#929292" d="M68.0326 2.26787V-2.26787"/>
<use data-text="3" xlink:href="#font_2_6" transform="matrix(10.037203,0,0,-10.0364,78.207538,70.265)"/>
<path transform="matrix(1.00008,0,0,-1,12.831306,58.332)" stroke-width=".3985" stroke-linecap="butt" stroke-miterlimit="10" stroke-linejoin="miter" fill="none" stroke="#929292" d="M90.71013 2.26787V-2.26787"/>
<use data-text="4" xlink:href="#font_2_7" transform="matrix(10.037203,0,0,-10.0364,100.886348,70.265)"/>
<path transform="matrix(1.00008,0,0,-1,12.831306,58.332)" stroke-width=".3985" stroke-linecap="butt" stroke-miterlimit="10" stroke-linejoin="miter" fill="none" stroke="#929292" d="M113.38766 2.26787V-2.26787"/>
<use data-text="5" xlink:href="#font_2_8" transform="matrix(10.037203,0,0,-10.0364,123.56616,70.265)"/>
<path transform="matrix(1.00008,0,0,-1,12.831306,58.332)" stroke-width=".3985" stroke-linecap="butt" stroke-miterlimit="10" stroke-linejoin="miter" fill="none" stroke="#929292" d="M136.0652 2.26787V-2.26787"/>
<use data-text="6" xlink:href="#font_2_9" transform="matrix(10.037203,0,0,-10.0364,146.24497,70.265)"/>
<path transform="matrix(1.00008,0,0,-1,12.831306,58.332)" stroke-width=".3985" stroke-linecap="butt" stroke-miterlimit="10" stroke-linejoin="miter" fill="none" stroke="#929292" d="M158.74274 2.26787V-2.26787"/>
<use data-text="7" xlink:href="#font_2_10" transform="matrix(10.037203,0,0,-10.0364,168.92478,70.265)"/>
<path transform="matrix(1.00008,0,0,-1,12.831306,58.332)" stroke-width=".3985" stroke-linecap="butt" stroke-miterlimit="10" stroke-linejoin="miter" fill="none" stroke="#929292" d="M181.42028 2.26787V-2.26787"/>
<use data-text="8" xlink:href="#font_2_11" transform="matrix(10.037203,0,0,-10.0364,191.6036,70.265)"/>
<path transform="matrix(1.00008,0,0,-1,12.831306,58.332)" stroke-width=".3985" stroke-linecap="butt" stroke-miterlimit="10" stroke-linejoin="miter" fill="none" stroke="#929292" d="M204.09781 2.26787V-2.26787"/>
<use data-text="9" xlink:href="#font_2_12" transform="matrix(10.037203,0,0,-10.0364,214.28342,70.265)"/>
<path transform="matrix(1.00008,0,0,-1,12.831306,58.332)" stroke-width=".3985" stroke-linecap="butt" stroke-miterlimit="10" stroke-linejoin="miter" fill="none" stroke="#929292" d="M226.77533 2.26787V-2.26787"/>
<use data-text="1" xlink:href="#font_2_4" transform="matrix(10.037203,0,0,-10.0364,234.30103,70.265)"/>
<use data-text="0" xlink:href="#font_2_3" transform="matrix(10.037203,0,0,-10.0364,239.62075,70.265)"/>
<path transform="matrix(1.00008,0,0,-1,12.831306,58.332)" stroke-width=".3985" stroke-linecap="butt" stroke-miterlimit="10" stroke-linejoin="miter" fill="none" stroke="#929292" d="M249.45287 2.26787V-2.26787"/>
<use data-text="1" xlink:href="#font_2_4" transform="matrix(10.037203,0,0,-10.0364,256.97984,70.265)"/>
<use data-text="1" xlink:href="#font_2_4" transform="matrix(10.037203,0,0,-10.0364,262.29957,70.265)"/>
<path transform="matrix(1.00008,0,0,-1,12.831306,58.332)" stroke-width=".3985" stroke-linecap="butt" stroke-miterlimit="10" stroke-linejoin="miter" fill="none" stroke="#929292" d="M2.26787 22.67752H-2.26787"/>
<use data-text="1" xlink:href="#font_2_4" transform="matrix(10.037203,0,0,-10.0364,4.107605,39.015)"/>
<path transform="matrix(1.00008,0,0,-1,12.831306,58.332)" stroke-width=".79701" stroke-linecap="butt" stroke-dasharray="2.98883,2.98883" stroke-miterlimit="10" stroke-linejoin="miter" fill="none" stroke="#0000ff" d="M-11.33876 0H-10.3266-9.31445-8.3023-7.29018-6.27803-5.26588-4.25375-3.24161-2.22946-1.21732-.20517 .80693 1.81908 2.8312 3.84335 4.85548 5.86763 6.87979 7.89192 8.90407 9.91621 10.92834 11.94049 12.95264 13.96478 14.97691 15.98907 17.00122 18.01335 19.0255 20.03764 21.04977 22.06192 23.07405 24.08621 25.09836 26.11049 27.12263 28.13478 29.14693 30.15906 31.1712 32.18335 33.1955 34.20764 35.21979 36.23192 37.24406 38.2562 39.26836 40.28049 41.29262 42.3048 43.31693 44.32907 45.3412 46.35335 47.3655 48.37762 49.38977 50.40192 51.41406 52.42621 53.43835 54.4505 55.46263 56.47476 57.48692 58.49905 59.5112 60.52336 61.53549 62.54764 63.55977 64.57193 65.58406 66.59619 67.60834 68.6205 69.63264 70.64478 71.65692 72.66907 73.6812 74.69334 75.70549 76.71762 77.72978 78.74191 79.75407 80.7662 81.77834 82.7905 83.80263 84.81477 85.8269 86.83907 87.85121 88.86334"/>
<path transform="matrix(1.00008,0,0,-1,12.831306,58.332)" stroke-width=".79701" stroke-linecap="butt" stroke-dasharray="2.98883,2.98883" stroke-miterlimit="10" stroke-linejoin="miter" fill="none" stroke="#990000" d="M-11.33876 0H-10.3266-9.31445-8.3023-7.29018-6.27803-5.26588-4.25375-3.24161-2.22946-1.21732-.20517 .80693 1.81908 2.8312 3.84335 4.85548 5.86763 6.87979 7.89192 8.90407 9.91621 10.92834 11.94049 12.95264 13.96478 14.97691 15.98907 17.00122 18.01335 19.0255 20.03764 21.04977 22.06192 23.07405 24.08621 25.09836 26.11049 27.12263 28.13478 29.14693 30.15906 31.1712 32.18335 33.1955 34.20764 35.21979 36.23192 37.24406 38.2562 39.26836 40.28049 41.29262 42.3048 43.31693 44.32907 45.3412 46.35335 47.3655 48.37762 49.38977 50.40192 51.41406 52.42621 53.43835 54.4505 55.46263 56.47476 57.48692 58.49905 59.5112 60.52336 61.53549 62.54764 63.55977 64.57193 65.58406 66.59619 67.60834 68.6205 69.63264 70.64478 71.65692 72.66907 73.6812 74.69334 75.70549 76.71762 77.72978 78.74191 79.75407 80.7662 81.77834 82.7905 83.80263 84.81477 85.8269 86.83907 87.85121 88.86334"/>
<path transform="matrix(1.00008,0,0,-1,12.831306,58.332)" stroke-width="1.19553" stroke-linecap="butt" stroke-miterlimit="10" stroke-linejoin="miter" fill="none" stroke="#009900" d="M-10.38234 0H-10.3266-9.31445-8.3023-7.29018-6.27803-5.26588-4.25375-3.24161-2.22946-1.21732-.20517 .80693 1.81908 2.8312 3.84335 4.85548 5.86763 6.87979 7.89192 8.90407 9.91621 10.92834 11.94049 12.95264 13.96478 14.97691 15.98907 17.00122 18.01335 19.0255 20.03764 21.04977 22.06192 23.07405 24.08621 25.09836 26.11049 27.12263 28.13478 29.14693 30.15906 31.1712 32.18335 33.1955 34.20764 35.21979 36.23192 37.24406 38.2562 39.26836 40.28049 41.29262 42.3048 43.31693 44.32907 45.3412 46.35335 47.3655 48.37762 49.38977 50.40192 51.41406 52.42621 53.43835 54.4505 55.46263 56.47476 57.48692 58.49905 59.5112 60.52336 61.53549 62.54764 63.55977 64.57193 65.58406 66.59619 67.60834 68.6205 69.63264 70.64478 71.65692 72.66907 73.6812 74.69334 75.70549 76.71762 77.72978 78.74191 79.75407 80.7662 81.77834 82.7905 83.80263 84.81477 85.8269 86.83907 87.85121 88.86334"/>
<path transform="matrix(-1.00008,-0,0,1,2.4481354,58.332)" stroke-width=".9564" stroke-linecap="round" stroke-linejoin="round" fill="none" stroke="#009900" d="M-1.91284 2.55046C-1.75343 1.59402 0 .15938 .4782 0 0-.15938-1.75343-1.59402-1.91284-2.55046"/>
<path transform="matrix(1.00008,0,0,-1,12.831306,58.332)" stroke-width=".79701" stroke-linecap="butt" stroke-dasharray="2.98883,2.98883" stroke-miterlimit="10" stroke-linejoin="miter" fill="none" stroke="#0000ff" d="M92.52435 22.67752H93.40398 94.28358 95.16321 96.0428 96.92242 97.80203 98.68164 99.56126 100.44087 101.3205 102.20009 103.07971 103.95934 104.83893 105.71855 106.59816 107.47777 108.35738 109.237 110.11662 110.99623 111.87584 112.75545 113.63506 114.51466 115.39429 116.27391 117.15352 118.03314 118.91273 119.79234 120.67197 121.55157 122.4312 123.3108 124.19041 125.07002 125.94963 126.82925 127.70886 128.58849 129.4681 130.3477 131.22731 132.10694 132.98654 133.86615 134.74578 135.62538 136.50499 137.3846 138.26422 139.14385 140.02344 140.90306 141.78266 142.66228 143.54189 144.42151 145.30113 146.18074 147.06035 147.93994 148.81957 149.69918 150.5788 151.45842 152.33803 153.21764 154.09723 154.97686 155.85646 156.73609 157.6157 158.4953 159.37493 160.25453 161.13414 162.01375 162.89337 163.773 164.65259 165.53221 166.41182 167.29145 168.17104 169.05066 169.93029 170.80988 171.6895 172.5691 173.44873 174.32834 175.20795 176.08756 176.96717 177.84679 178.7264 179.60602"/>
<path transform="matrix(1.00008,0,0,-1,12.831306,58.332)" stroke-width=".79701" stroke-linecap="butt" stroke-dasharray="2.98883,2.98883" stroke-miterlimit="10" stroke-linejoin="miter" fill="none" stroke="#990000" d="M92.52435 0H93.40398 94.28358 95.16321 96.0428 96.92242 97.80203 98.68164 99.56126 100.44087 101.3205 102.20009 103.07971 103.95934 104.83893 105.71855 106.59816 107.47777 108.35738 109.237 110.11662 110.99623 111.87584 112.75545 113.63506 114.51466 115.39429 116.27391 117.15352 118.03314 118.91273 119.79234 120.67197 121.55157 122.4312 123.3108 124.19041 125.07002 125.94963 126.82925 127.70886 128.58849 129.4681 130.3477 131.22731 132.10694 132.98654 133.86615 134.74578 135.62538 136.50499 137.3846 138.26422 139.14385 140.02344 140.90306 141.78266 142.66228 143.54189 144.42151 145.30113 146.18074 147.06035 147.93994 148.81957 149.69918 150.5788 151.45842 152.33803 153.21764 154.09723 154.97686 155.85646 156.73609 157.6157 158.4953 159.37493 160.25453 161.13414 162.01375 162.89337 163.773 164.65259 165.53221 166.41182 167.29145 168.17104 169.05066 169.93029 170.80988 171.6895 172.5691 173.44873 174.32834 175.20795 176.08756 176.96717 177.84679 178.7264 179.60602"/>
<path transform="matrix(1.00008,0,0,-1,12.831306,58.332)" stroke-width="1.19553" stroke-linecap="butt" stroke-miterlimit="10" stroke-linejoin="miter" fill="none" stroke="#009900" d="M90.71013 22.67752H91.60773 92.50533 93.40294 94.30054 95.19815 96.09576 96.99336 97.89098 98.78857 99.68619 100.58379 101.4814 102.379 103.2766 104.17421 105.07181 105.96942 106.86702 107.76463 108.66225 109.55984 110.45746 111.35506 112.25267 113.15028 114.04788 114.9455 115.8431 116.74069 117.63829 118.5359 119.43352 120.33112 121.22873 122.12633 123.02394 123.92155 124.81915 125.71677 126.61436 127.51198 128.40958 129.30719 130.2048 131.1024 132 132.8976 133.79521 134.69283 135.59043 136.48804 137.38564 138.28325 139.18085 140.07846 140.97608 141.87368 142.77129 143.66889 144.5665 145.46411 146.36171 147.25931 148.1569 149.05452 149.95212 150.84973 151.74735 152.64495 153.54256 154.44016 155.33777 156.23538 157.13298 158.0306 158.92819 159.8258 160.7234 161.62102 162.51862 163.41623 164.31383 165.21143 166.10904 167.00666 167.90425 168.80187 169.69947 170.59708 171.49468 172.39229 173.2899 174.1875 175.08512 175.98271 176.88031 177.77794 178.67554 179.57314"/>
<path transform="matrix(1.00008,0,0,-1,12.831306,58.332)" stroke-width=".79701" stroke-linecap="butt" stroke-dasharray="2.98883,2.98883" stroke-miterlimit="10" stroke-linejoin="miter" fill="none" stroke="#0000ff" d="M183.2345 22.67752H184.06359 184.89269 185.72179 186.55086 187.37996 188.20906 189.03815 189.86724 190.69634 191.52542 192.35453 193.18361 194.01268 194.84178 195.67087 196.49997 197.32906 198.15814 198.98725 199.81635 200.64542 201.47452 202.30362 203.1327 203.9618 204.7909 205.61998 206.44908 207.27819 208.10726 208.93636 209.76544 210.59453 211.42363 212.25272 213.0818 213.9109 214.73999 215.56908 216.39818 217.22727 218.05637 218.88545 219.71454 220.54364 221.37274 222.20183 223.03092 223.86002 224.68909 225.51819 226.34728 227.17636 228.00547 228.83457 229.66365 230.49274 231.32184 232.15093 232.98003 233.80912 234.6382 235.4673 236.29639 237.12549 237.95458 238.78366 239.61275 240.44185 241.27092 242.10002 242.92913 243.75821 244.5873 245.4164 246.24549 247.07459 247.90369 248.73276 249.56186 250.39096 251.22005 252.04914 252.87824 253.70732 254.53643 255.3655 256.19459 257.02369 257.85279 258.6819 259.51097 260.34004 261.16914 261.99827 262.82734 263.65644 264.48554 265.3146"/>
<path transform="matrix(1.00008,0,0,-1,12.831306,58.332)" stroke-width=".79701" stroke-linecap="butt" stroke-dasharray="2.98883,2.98883" stroke-miterlimit="10" stroke-linejoin="miter" fill="none" stroke="#990000" d="M183.2345 22.67752H184.06359 184.89269 185.72179 186.55086 187.37996 188.20906 189.03815 189.86724 190.69634 191.52542 192.35453 193.18361 194.01268 194.84178 195.67087 196.49997 197.32906 198.15814 198.98725 199.81635 200.64542 201.47452 202.30362 203.1327 203.9618 204.7909 205.61998 206.44908 207.27819 208.10726 208.93636 209.76544 210.59453 211.42363 212.25272 213.0818 213.9109 214.73999 215.56908 216.39818 217.22727 218.05637 218.88545 219.71454 220.54364 221.37274 222.20183 223.03092 223.86002 224.68909 225.51819 226.34728 227.17636 228.00547 228.83457 229.66365 230.49274 231.32184 232.15093 232.98003 233.80912 234.6382 235.4673 236.29639 237.12549 237.95458 238.78366 239.61275 240.44185 241.27092 242.10002 242.92913 243.75821 244.5873 245.4164 246.24549 247.07459 247.90369 248.73276 249.56186 250.39096 251.22005 252.04914 252.87824 253.70732 254.53643 255.3655 256.19459 257.02369 257.85279 258.6819 259.51097 260.34004 261.16914 261.99827 262.82734 263.65644 264.48554 265.3146"/>
<path transform="matrix(1.00008,0,0,-1,12.831306,58.332)" stroke-width="1.19553" stroke-linecap="butt" stroke-miterlimit="10" stroke-linejoin="miter" fill="none" stroke="#009900" d="M181.42028 0H182.26769 183.11511 183.96256 184.80998 185.65741 186.50484 187.35228 188.1997 189.04714 189.89456 190.742 191.58943 192.43686 193.2843 194.13173 194.97917 195.8266 196.67403 197.52146 198.3689 199.21633 200.06375 200.91118 201.7586 202.60605 203.45346 204.3009 205.14833 205.99578 206.8432 207.69065 208.53807 209.38552 210.23294 211.08036 211.9278 212.77523 213.62267 214.47008 215.31752 216.16495 217.01239 217.85982 218.70725 219.55467 220.4021 221.24954 222.09697 222.94441 223.79184 224.63928 225.4867 226.33414 227.18157 228.02899 228.87644 229.72385 230.57129 231.41872 232.26616 233.11357 233.96102 234.80844 235.65589 236.50331 237.35074 238.19818 239.04561 239.89305 240.74047 241.5879 242.43534 243.28278 244.13019 244.97763 245.82506 246.67249 247.51992 248.36734 249.21479 250.06221 250.90966 251.75708 252.60453 253.45195 254.2994 255.1468 255.99423 256.84169 257.6891 258.53654 259.38398 260.2314 261.07884 261.92628 262.77369 263.62113 264.46855 264.35957"/>
<path transform="matrix(1.00008,0,0,-1,277.212,58.332)" stroke-width=".9564" stroke-linecap="round" stroke-linejoin="round" fill="none" stroke="#009900" d="M-1.91284 2.55046C-1.75343 1.59402 0 .15938 .4782 0 0-.15938-1.75343-1.59402-1.91284-2.55046"/>
<path transform="matrix(1.00008,0,0,-1,12.831306,58.332)" stroke-width=".79701" stroke-linecap="butt" stroke-miterlimit="10" stroke-linejoin="miter" fill="none" stroke="#009900" d="M93.1012 0C93.1012 1.32056 92.03069 2.39107 90.71013 2.39107 89.38956 2.39107 88.31905 1.32056 88.31905 0 88.31905-1.32056 89.38956-2.39107 90.71013-2.39107 92.03069-2.39107 93.1012-1.32056 93.1012 0ZM90.71013 0"/>
<path transform="matrix(1.00008,0,0,-1,12.831306,58.332)" d="M93.1012 22.67752C93.1012 23.99808 92.03069 25.06859 90.71013 25.06859 89.38956 25.06859 88.31905 23.99808 88.31905 22.67752 88.31905 21.35695 89.38956 20.28644 90.71013 20.28644 92.03069 20.28644 93.1012 21.35695 93.1012 22.67752ZM90.71013 22.67752" fill="#009900"/>
<path transform="matrix(1.00008,0,0,-1,12.831306,58.332)" stroke-width=".79701" stroke-linecap="butt" stroke-miterlimit="10" stroke-linejoin="miter" fill="none" stroke="#009900" d="M183.81134 22.67752C183.81134 23.99808 182.74083 25.06859 181.42028 25.06859 180.0997 25.06859 179.02919 23.99808 179.02919 22.67752 179.02919 21.35695 180.0997 20.28644 181.42028 20.28644 182.74083 20.28644 183.81134 21.35695 183.81134 22.67752ZM181.42028 22.67752"/>
<path transform="matrix(1.00008,0,0,-1,12.831306,58.332)" d="M183.81134 0C183.81134 1.32056 182.74083 2.39107 181.42028 2.39107 180.0997 2.39107 179.02919 1.32056 179.02919 0 179.02919-1.32056 180.0997-2.39107 181.42028-2.39107 182.74083-2.39107 183.81134-1.32056 183.81134 0ZM181.42028 0" fill="#009900"/>
<use data-text="u" xlink:href="#font_1_2" transform="matrix(10.037203,0,0,-10.0364,20.765942,81.474)"/>
<use data-text="4" xlink:href="#font_2_7" transform="matrix(7.6081087,0,0,-7.6075,27.300465,83.111)"/>
<use data-text="(" xlink:href="#font_2_1" transform="matrix(10.037203,0,0,-10.0364,31.834828,81.474)"/>
<use data-text="t" xlink:href="#font_1_1" transform="matrix(10.037203,0,0,-10.0364,35.566129,81.474)"/>
<use data-text=")" xlink:href="#font_2_2" transform="matrix(10.037203,0,0,-10.0364,40.06049,81.474)"/>
<use data-text="t" xlink:href="#font_2_19" transform="matrix(10.037203,0,0,-10.0364,45.831884,81.474)"/>
<use data-text="u" xlink:href="#font_2_20" transform="matrix(10.037203,0,0,-10.0364,49.28468,81.474)"/>
<use data-text="r" xlink:href="#font_2_17" transform="matrix(10.037203,0,0,-10.0364,55.36723,81.474)"/>
<use data-text="n" xlink:href="#font_2_16" transform="matrix(10.037203,0,0,-10.0364,59.34196,81.474)"/>
<use data-text="s" xlink:href="#font_2_18" transform="matrix(10.037203,0,0,-10.0364,65.55499,81.474)"/>
<use data-text="O" xlink:href="#font_2_15" transform="matrix(10.037203,0,0,-10.0364,72.18959,81.474)"/>
<use data-text="N" xlink:href="#font_2_14" transform="matrix(10.037203,0,0,-10.0364,79.83794,81.474)"/>
<use data-text="u" xlink:href="#font_1_2" transform="matrix(10.037203,0,0,-10.0364,15.966557,7.9420015)"/>
<use data-text="4" xlink:href="#font_2_7" transform="matrix(7.6081087,0,0,-7.6075,22.50108,9.579002)"/>
<use data-text="(" xlink:href="#font_2_1" transform="matrix(10.037203,0,0,-10.0364,27.035443,7.9420015)"/>
<use data-text="t" xlink:href="#font_1_1" transform="matrix(10.037203,0,0,-10.0364,30.766743,7.9420015)"/>
<use data-text=")" xlink:href="#font_2_2" transform="matrix(10.037203,0,0,-10.0364,35.261106,7.9420015)"/>
<use data-text="=" xlink:href="#font_3_2" transform="matrix(10.037203,0,0,-10.0364,40.64053,7.9420015)"/>
<use data-text="0" xlink:href="#font_2_3" transform="matrix(10.037203,0,0,-10.0364,49.73025,7.9420015)"/>
<use data-text="u" xlink:href="#font_1_2" transform="matrix(10.037203,0,0,-10.0364,61.325189,7.9000017)"/>
<use data-text="8" xlink:href="#font_2_11" transform="matrix(7.6081087,0,0,-7.6075,67.85971,9.537003)"/>
<use data-text="(" xlink:href="#font_2_1" transform="matrix(10.037203,0,0,-10.0364,72.39407,7.9000017)"/>
<use data-text="t" xlink:href="#font_1_1" transform="matrix(10.037203,0,0,-10.0364,76.125377,7.9000017)"/>
<use data-text=")" xlink:href="#font_2_2" transform="matrix(10.037203,0,0,-10.0364,80.619739,7.9000017)"/>
<use data-text="=" xlink:href="#font_3_2" transform="matrix(10.037203,0,0,-10.0364,85.99916,7.9000017)"/>
<use data-text="0" xlink:href="#font_2_3" transform="matrix(10.037203,0,0,-10.0364,95.08888,7.9000017)"/>
<use data-text="0" xlink:href="#font_2_3" transform="matrix(10.037203,0,0,-10.0364,27.872509,52.463)"/>
<use data-text="&#x2212;" xlink:href="#font_3_1" transform="matrix(10.037203,0,0,-10.0364,34.53004,52.463)"/>
<use data-text="0" xlink:href="#font_2_3" transform="matrix(10.037203,0,0,-10.0364,43.085729,52.463)"/>
<use data-text="=" xlink:href="#font_3_2" transform="matrix(10.037203,0,0,-10.0364,50.276304,52.463)"/>
<use data-text="0" xlink:href="#font_2_3" transform="matrix(10.037203,0,0,-10.0364,59.365034,52.463)"/>
<use data-text="O" xlink:href="#font_2_15" transform="matrix(10.037203,0,0,-10.0364,69.20149,52.463)"/>
<use data-text="F" xlink:href="#font_2_13" transform="matrix(10.037203,0,0,-10.0364,76.84984,52.463)"/>
<use data-text="F" xlink:href="#font_2_13" transform="matrix(10.037203,0,0,-10.0364,82.6714,52.463)"/>
<path transform="matrix(1.00008,0,0,-1,12.831306,58.332)" stroke-width=".79701" stroke-linecap="butt" stroke-miterlimit="10" stroke-linejoin="miter" fill="none" stroke="#000000" d="M74.8359-20.40962H88.8688"/>
<path transform="matrix(1.00008,0,0,-1,101.707218,78.74162)" stroke-width=".6376" stroke-linecap="round" stroke-linejoin="round" fill="none" stroke="#000000" d="M-1.55415 2.0722C-1.42464 1.29512 0 .1295 .38852 0 0-.1295-1.42464-1.29512-1.55415-2.0722"/>
<use data-text="u" xlink:href="#font_1_2" transform="matrix(10.037203,0,0,-10.0364,113.75138,81.454)"/>
<use data-text="8" xlink:href="#font_2_11" transform="matrix(7.6081087,0,0,-7.6075,120.285907,83.091)"/>
<use data-text="(" xlink:href="#font_2_1" transform="matrix(10.037203,0,0,-10.0364,124.82027,81.454)"/>
<use data-text="t" xlink:href="#font_1_1" transform="matrix(10.037203,0,0,-10.0364,128.55158,81.454)"/>
<use data-text=")" xlink:href="#font_2_2" transform="matrix(10.037203,0,0,-10.0364,133.04593,81.454)"/>
<use data-text="t" xlink:href="#font_2_19" transform="matrix(10.037203,0,0,-10.0364,138.81732,81.454)"/>
<use data-text="u" xlink:href="#font_2_20" transform="matrix(10.037203,0,0,-10.0364,142.27011,81.454)"/>
<use data-text="r" xlink:href="#font_2_17" transform="matrix(10.037203,0,0,-10.0364,148.35266,81.454)"/>
<use data-text="n" xlink:href="#font_2_16" transform="matrix(10.037203,0,0,-10.0364,152.3274,81.454)"/>
<use data-text="s" xlink:href="#font_2_18" transform="matrix(10.037203,0,0,-10.0364,158.54044,81.454)"/>
<use data-text="O" xlink:href="#font_2_15" transform="matrix(10.037203,0,0,-10.0364,165.17502,81.454)"/>
<use data-text="N" xlink:href="#font_2_14" transform="matrix(10.037203,0,0,-10.0364,172.82337,81.454)"/>
<use data-text="u" xlink:href="#font_1_2" transform="matrix(10.037203,0,0,-10.0364,106.683818,7.9420015)"/>
<use data-text="4" xlink:href="#font_2_7" transform="matrix(7.6081087,0,0,-7.6075,113.21834,9.579002)"/>
<use data-text="(" xlink:href="#font_2_1" transform="matrix(10.037203,0,0,-10.0364,117.7527,7.9420015)"/>
<use data-text="t" xlink:href="#font_1_1" transform="matrix(10.037203,0,0,-10.0364,121.484,7.9420015)"/>
<use data-text=")" xlink:href="#font_2_2" transform="matrix(10.037203,0,0,-10.0364,125.97836,7.9420015)"/>
<use data-text="=" xlink:href="#font_3_2" transform="matrix(10.037203,0,0,-10.0364,131.35779,7.9420015)"/>
<use data-text="1" xlink:href="#font_2_4" transform="matrix(10.037203,0,0,-10.0364,140.44751,7.9420015)"/>
<use data-text="u" xlink:href="#font_1_2" transform="matrix(10.037203,0,0,-10.0364,152.04245,7.9000017)"/>
<use data-text="8" xlink:href="#font_2_11" transform="matrix(7.6081087,0,0,-7.6075,158.57697,9.537003)"/>
<use data-text="(" xlink:href="#font_2_1" transform="matrix(10.037203,0,0,-10.0364,163.11133,7.9000017)"/>
<use data-text="t" xlink:href="#font_1_1" transform="matrix(10.037203,0,0,-10.0364,166.84262,7.9000017)"/>
<use data-text=")" xlink:href="#font_2_2" transform="matrix(10.037203,0,0,-10.0364,171.33699,7.9000017)"/>
<use data-text="=" xlink:href="#font_3_2" transform="matrix(10.037203,0,0,-10.0364,176.71642,7.9000017)"/>
<use data-text="0" xlink:href="#font_2_3" transform="matrix(10.037203,0,0,-10.0364,185.80614,7.9000017)"/>
<use data-text="1" xlink:href="#font_2_4" transform="matrix(10.037203,0,0,-10.0364,120.49892,29.786002)"/>
<use data-text="&#x2212;" xlink:href="#font_3_1" transform="matrix(10.037203,0,0,-10.0364,127.15645,29.786002)"/>
<use data-text="0" xlink:href="#font_2_3" transform="matrix(10.037203,0,0,-10.0364,135.71213,29.786002)"/>
<use data-text="=" xlink:href="#font_3_2" transform="matrix(10.037203,0,0,-10.0364,142.90271,29.786002)"/>
<use data-text="1" xlink:href="#font_2_4" transform="matrix(10.037203,0,0,-10.0364,151.99144,29.786002)"/>
<use data-text="O" xlink:href="#font_2_15" transform="matrix(10.037203,0,0,-10.0364,161.8279,29.786002)"/>
<use data-text="N" xlink:href="#font_2_14" transform="matrix(10.037203,0,0,-10.0364,169.47624,29.786002)"/>
<path transform="matrix(1.00008,0,0,-1,12.831306,58.332)" stroke-width=".79701" stroke-linecap="butt" stroke-miterlimit="10" stroke-linejoin="miter" fill="none" stroke="#000000" d="M165.54605-20.40962H179.57894"/>
<path transform="matrix(1.00008,0,0,-1,192.42459,78.74162)" stroke-width=".6376" stroke-linecap="round" stroke-linejoin="round" fill="none" stroke="#000000" d="M-1.55415 2.0722C-1.42464 1.29512 0 .1295 .38852 0 0-.1295-1.42464-1.29512-1.55415-2.0722"/>
<use data-text="u" xlink:href="#font_1_2" transform="matrix(10.037203,0,0,-10.0364,195.69995,7.9420015)"/>
<use data-text="4" xlink:href="#font_2_7" transform="matrix(7.6081087,0,0,-7.6075,202.23447,9.579002)"/>
<use data-text="(" xlink:href="#font_2_1" transform="matrix(10.037203,0,0,-10.0364,206.76883,7.9420015)"/>
<use data-text="t" xlink:href="#font_1_1" transform="matrix(10.037203,0,0,-10.0364,210.50012,7.9420015)"/>
<use data-text=")" xlink:href="#font_2_2" transform="matrix(10.037203,0,0,-10.0364,214.99449,7.9420015)"/>
<use data-text="=" xlink:href="#font_3_2" transform="matrix(10.037203,0,0,-10.0364,220.37392,7.9420015)"/>
<use data-text="1" xlink:href="#font_2_4" transform="matrix(10.037203,0,0,-10.0364,229.46364,7.9420015)"/>
<use data-text="u" xlink:href="#font_1_2" transform="matrix(10.037203,0,0,-10.0364,237.65628,7.9000017)"/>
<use data-text="8" xlink:href="#font_2_11" transform="matrix(7.6081087,0,0,-7.6075,244.1908,9.537003)"/>
<use data-text="(" xlink:href="#font_2_1" transform="matrix(10.037203,0,0,-10.0364,248.72516,7.9000017)"/>
<use data-text="t" xlink:href="#font_1_1" transform="matrix(10.037203,0,0,-10.0364,252.45647,7.9000017)"/>
<use data-text=")" xlink:href="#font_2_2" transform="matrix(10.037203,0,0,-10.0364,256.95085,7.9000017)"/>
<use data-text="=" xlink:href="#font_3_2" transform="matrix(10.037203,0,0,-10.0364,262.33027,7.9000017)"/>
<use data-text="0" xlink:href="#font_2_3" transform="matrix(10.037203,0,0,-10.0364,271.41999,7.9000017)"/>
<use data-text="1" xlink:href="#font_2_4" transform="matrix(10.037203,0,0,-10.0364,205.90576,52.463)"/>
<use data-text="&#x2212;" xlink:href="#font_3_1" transform="matrix(10.037203,0,0,-10.0364,212.5633,52.463)"/>
<use data-text="1" xlink:href="#font_2_4" transform="matrix(10.037203,0,0,-10.0364,221.11898,52.463)"/>
<use data-text="=" xlink:href="#font_3_2" transform="matrix(10.037203,0,0,-10.0364,228.30954,52.463)"/>
<use data-text="0" xlink:href="#font_2_3" transform="matrix(10.037203,0,0,-10.0364,237.39829,52.463)"/>
<use data-text="O" xlink:href="#font_2_15" transform="matrix(10.037203,0,0,-10.0364,247.23474,52.463)"/>
<use data-text="F" xlink:href="#font_2_13" transform="matrix(10.037203,0,0,-10.0364,254.88309,52.463)"/>
<use data-text="F" xlink:href="#font_2_13" transform="matrix(10.037203,0,0,-10.0364,260.70466,52.463)"/>
</svg>
