<svg xmlns="http://www.w3.org/2000/svg" xmlns:xlink="http://www.w3.org/1999/xlink" version="1.1" width="83" height="35" viewBox="0 0 83 35">
<defs>
<path id="font_1_2" d="M.2999878 .17871094V.0769043C.2999878 .04296875 .2889862 .036987306 .2649994 .034988405L.20098877 .0289917V0H.46499635V.0289917L.41999818 .033981325C.39698792 .036987306 .3899994 .04296875 .3899994 .0769043V.17871094H.49299623V.22570801H.3899994V.66796877H.31698609C.22299195 .5298767 .11099243 .35577394 .018997193 .19970703L.027999878 .17871094H.2999878M.09098816 .22570801C.15098572 .33476258 .22099304 .4498291 .2979889 .5709076H.2999878V.22570801H.09098816Z"/>
<path id="font_1_3" d="M.2649994 .3380127C.34498597 .3380127 .3880005 .2700653 .3880005 .17915344 .3880005 .09121704 .34999085 .023269654 .2649994 .023269654 .18199158 .023269654 .14199829 .09121704 .14199829 .17915344 .14199829 .2700653 .18598938 .3380127 .2649994 .3380127M.2649994-.01171875C.4269867-.01171875 .48799134 .081222537 .48799134 .18214417 .48799134 .28405763 .42399598 .3420105 .35598756 .35801698V.36102296C.4169922 .37701417 .46598817 .427948 .46598817 .5098419 .46598817 .6187134 .3809967 .6796875 .2649994 .6796875 .15098572 .6796875 .06399536 .61772158 .06399536 .5098419 .06399536 .427948 .11399841 .37701417 .17399597 .36102296V.35801698C.10699463 .3420105 .041992189 .28405763 .041992189 .18214417 .041992189 .081222537 .101989749-.01171875 .2649994-.01171875M.2649994 .37402345C.19299317 .37402345 .16099549 .44392396 .16099549 .5118408 .16099549 .5887451 .19699097 .64468386 .2649994 .64468386 .33299256 .64468386 .36698915 .5887451 .36898805 .5118408 .36898805 .44392396 .33799745 .37402345 .2649994 .37402345Z"/>
<path id="font_2_1" d="M.42799378 .45222474 .43899537 .49023438H.31199647L.34599305 .6092224 .33399964 .6162262 .23699951 .53923037 .22399903 .49023438H.14299011L.13198853 .45222474H.21499634L.125 .08627319C.10998535 .029266358 .12199402-.01171875 .17199707-.01171875 .2519989-.01171875 .31599427 .054275514 .35598756 .1292572L.33399964 .1462555C.31098939 .10726929 .2599945 .040267946 .22898865 .040267946 .20799256 .040267946 .20799256 .0632782 .21398926 .088272098L.30299378 .45222474H.42799378Z"/>
<path id="font_1_1" d="M.43699647 0V.0289917L.35299684 .035995485C.33198548 .037994386 .31999208 .04598999 .31999208 .08496094V.67367556L.31498719 .6796875 .10899353 .6446991V.6197052L.20199585 .6087036C.21899414 .6067047 .22599793 .5987091 .22599793 .56973269V.08496094C.22599793 .065979007 .22299195 .053985597 .21699524 .04698181 .21199036 .039993287 .20399475 .036987306 .19299317 .035995485L.10899353 .0289917V0H.43699647Z"/>
<path id="font_1_6" d="M.3809967 .6720276C.5589905 .6720276 .59999087 .4931183 .60198977 .3461914 .59999087 .19924927 .5589905 .020339966 .3809967 .020339966 .20298767 .020339966 .1619873 .19924927 .1599884 .3461914 .1619873 .4931183 .20298767 .6720276 .3809967 .6720276M.3809967 .70703127C.2709961 .70703127 .18899536 .6730194 .1329956 .61006167 .07899475 .55007937 .04798889 .4591217 .04798889 .3461914 .04798889 .23423767 .07899475 .14228821 .1329956 .08232117 .18899536 .019348145 .2709961-.0146484379 .3809967-.0146484379 .49198915-.0146484379 .57299807 .019348145 .6289978 .08232117 .6839905 .14228821 .71398928 .23423767 .71398928 .3461914 .71398928 .4591217 .6839905 .55007937 .6289978 .61006167 .57299807 .6730194 .49198915 .70703127 .3809967 .70703127Z"/>
<path id="font_1_4" d="M.034988405 .6923828V.66337588C.12298584 .6573639 .125 .655365 .125 .5993347V.093048099C.125 .037002565 .12298584 .035003663 .034988405 .0289917V0H.32998658V.0289917C.22698975 .035003663 .22399903 .037002565 .22399903 .093048099V.32722474H.3639984C.44898988 .32722474 .45298768 .3032074 .46199037 .23916626H.49198915V.4532776H.46199037C.45298768 .38923646 .44898988 .36523438 .3639984 .36523438H.22399903V.62135317C.22399903 .65437319 .22799683 .65737918 .26098634 .65737918H.3600006C.47599793 .65737918 .49899293 .6343689 .5130005 .5323181H.54299929V.6923828H.034988405Z"/>
<path id="font_1_5" d="M.033996583 .6923828V.66337588C.12199402 .6573639 .12399292 .655365 .12399292 .5993347V.20309448C.12399292 .15007019 .12199402 .11204529 .116989139 .07902527 .11099243 .037002565 .08699036 .032989503 .034988405 .0289917V0H.27198792V.0289917C.20698548 .033996583 .18299866 .037002565 .1769867 .07902527 .17199707 .11204529 .16999817 .15007019 .16999817 .20309448V.6023407H.17199707C.31498719 .4012146 .45700074 .20109558 .59799197 0H.6639862V.48927308C.6639862 .54229739 .66600039 .58032229 .67099 .6133423 .6769867 .655365 .70098879 .6593628 .7529907 .66337588V.6923828H.5159912V.66337588C.58099368 .658371 .6049957 .655365 .61099246 .6133423 .6159973 .58032229 .6179962 .54229739 .6179962 .48927308V.13806153L.6159973 .14006043C.4850006 .32417298 .35499574 .5082855 .22599793 .6923828H.033996583Z"/>
</defs>
<path transform="matrix(1.00002,0,0,-1.00006,12.630569,17.594155)" d="M-11.33855-15.87389V15.87389H22.6771V-15.87389ZM22.6771 15.87389" fill="#d9d9ff"/>
<path transform="matrix(1.00002,0,0,-1.00006,12.630569,17.594155)" d="M22.6771-15.87389V15.87389H68.0313V-15.87389ZM68.0313 15.87389" fill="#d9f0d9"/>
<use data-text="4" xlink:href="#font_1_2" transform="matrix(7.332647,0,0,-7.3329398,33.362985,25.903653)"/>
<use data-text="8" xlink:href="#font_1_3" transform="matrix(7.332647,0,0,-7.3329398,56.04044,25.903653)"/>
<path transform="matrix(1.00002,0,0,-1.00006,12.630569,17.594155)" stroke-width=".3985" stroke-linecap="butt" stroke-miterlimit="10" stroke-linejoin="miter" fill="none" stroke="#000000" d="M-11.33855 0H67.57301"/>
<path transform="matrix(1.00002,0,0,-1.00006,80.20493,17.594155)" stroke-width=".31879" stroke-linecap="round" stroke-linejoin="round" fill="none" stroke="#000000" d="M-1.19551 1.59401C-1.09587 .99626 0 .09961 .29886 0 0-.09961-1.09587-.99626-1.19551-1.59401"/>
<path transform="matrix(1.00002,0,0,-1.00006,12.630569,17.594155)" stroke-width=".3985" stroke-linecap="butt" stroke-miterlimit="10" stroke-linejoin="miter" fill="none" stroke="#000000" d="M0-15.87389V15.4156"/>
<path transform="matrix(0,-1.00006,-1.00002,-0,12.630569,2.1776305)" stroke-width=".31879" stroke-linecap="round" stroke-linejoin="round" fill="none" stroke="#000000" d="M-1.19551 1.59401C-1.09587 .99626 0 .09961 .29886 0 0-.09961-1.09587-.99626-1.19551-1.59401"/>
<use data-text="t" xlink:href="#font_2_1" transform="matrix(7.332647,0,0,-7.3329398,77.96789,25.512629)"/>
<path transform="matrix(1.00002,0,0,-1.00006,12.630569,17.594155)" stroke-width=".3985" stroke-linecap="butt" stroke-miterlimit="10" stroke-linejoin="miter" fill="none" stroke="#929292" d="M22.6771 1.13391V-1.13391"/>
<path transform="matrix(1.00002,0,0,-1.00006,12.630569,17.594155)" stroke-width=".3985" stroke-linecap="butt" stroke-miterlimit="10" stroke-linejoin="miter" fill="none" stroke="#929292" d="M45.35419 1.13391V-1.13391"/>
<path transform="matrix(1.00002,0,0,-1.00006,12.630569,17.594155)" stroke-width=".3985" stroke-linecap="butt" stroke-miterlimit="10" stroke-linejoin="miter" fill="none" stroke="#929292" d="M1.13391 11.33855H-1.13391"/>
<use data-text="1" xlink:href="#font_1_1" transform="matrix(7.332647,0,0,-7.3329398,6.476448,8.709621)"/>
<path transform="matrix(1.00002,0,0,-1.00006,12.630569,17.594155)" stroke-width=".79701" stroke-linecap="butt" stroke-miterlimit="10" stroke-linejoin="miter" fill="none" stroke="#000000" d="M-11.33855 0H-11.00427-10.67001-10.33575-10.0015-9.66724-9.33298-8.99872-8.66444-8.33018-7.99593-7.66167-7.32741-6.99315-6.65889-6.32463-5.99036-5.65611-5.32185-4.98758-4.65332-4.31908-3.98482-3.65054-3.31628-2.98203-2.64777-2.3135-1.97925-1.64499-1.31071-.97646-.6422-.30794 .02628 .36053 .6948 1.02905 1.36333 1.69759 2.03185 2.3661 2.70036 3.03462 3.36888 3.70316 4.03741 4.37166 4.70592 5.04018 5.37445 5.7087 6.04297 6.37723 6.71149 7.04575 7.38 7.71426 8.04852 8.38278 8.71706 9.05132 9.38557 9.71983 10.05408 10.38834 10.72261 11.05687 11.39113 11.72539 12.05965 12.3939 12.72816 13.06242 13.39668 13.73096 14.06522 14.39948 14.73373 15.068 15.40225 15.73651 16.07079 16.40504 16.73929 17.07355 17.4078 17.74207 18.07632 18.4106 18.74486 19.07912 19.41338 19.74763 20.0819 20.41615 20.75041 21.08469 21.41895 21.7532"/>
<path transform="matrix(1.00002,0,0,-1.00006,12.630569,17.594155)" stroke-width=".79701" stroke-linecap="butt" stroke-miterlimit="10" stroke-linejoin="miter" fill="none" stroke="#000000" d="M22.6771 11.33855H23.13504 23.593 24.05098 24.50894 24.9669 25.42488 25.88283 26.34079 26.79875 27.25673 27.71469 28.17265 28.63063 29.08858 29.54654 30.00452 30.46248 30.92044 31.3784 31.83636 32.29433 32.7523 33.21027 33.66823 34.12619 34.58415 35.04211 35.50008 35.95804 36.41602 36.87398 37.33194 37.7899 38.24786 38.70583 39.1638 39.62177 40.07973 40.53769 40.99565 41.45361 41.91159 42.36955 42.82751 43.28546 43.74344 44.2014 44.65936 45.11734 45.5753 46.03325 46.49123 46.94919 47.40715 47.86511 48.32309 48.78104 49.239 49.69698 50.15494 50.6129 51.07088 51.52882 51.98679 52.44475 52.90273 53.36069 53.81866 54.27663 54.73457 55.19255 55.65051 56.10847 56.56644 57.0244 57.48236 57.94032 58.3983 58.85626 59.31422 59.7722 60.23015 60.68811 61.14607 61.60405 62.06201 62.51997 62.97794 63.4359 63.89386 64.35184 64.8098 65.26776 65.72571 66.18369 66.64165 67.09961 67.55759 68.01555"/>
<path transform="matrix(1.00002,0,0,-1.00006,12.630569,17.594155)" stroke-width=".79701" stroke-linecap="butt" stroke-miterlimit="10" stroke-linejoin="miter" fill="none" stroke="#000000" d="M23.8726 0C23.8726 .66026 23.33736 1.19551 22.6771 1.19551 22.01682 1.19551 21.48157 .66026 21.48157 0 21.48157-.66026 22.01682-1.19551 22.6771-1.19551 23.33736-1.19551 23.8726-.66026 23.8726 0ZM22.6771 0"/>
<path transform="matrix(1.00002,0,0,-1.00006,12.630569,17.594155)" d="M23.8726 11.33855C23.8726 11.99881 23.33736 12.53406 22.6771 12.53406 22.01682 12.53406 21.48157 11.99881 21.48157 11.33855 21.48157 10.67827 22.01682 10.14302 22.6771 10.14302 23.33736 10.14302 23.8726 10.67827 23.8726 11.33855ZM22.6771 11.33855"/>
<use data-text="O" xlink:href="#font_1_6" transform="matrix(7.332647,0,0,-7.3329398,11.250542,29.922894)" fill="#0000ff"/>
<use data-text="F" xlink:href="#font_1_4" transform="matrix(7.332647,0,0,-7.3329398,16.83802,29.922894)" fill="#0000ff"/>
<use data-text="F" xlink:href="#font_1_4" transform="matrix(7.332647,0,0,-7.3329398,21.090958,29.922894)" fill="#0000ff"/>
<use data-text="O" xlink:href="#font_1_6" transform="matrix(7.332647,0,0,-7.3329398,52.330366,29.922894)" fill="#009900"/>
<use data-text="N" xlink:href="#font_1_5" transform="matrix(7.332647,0,0,-7.3329398,57.917844,29.922894)" fill="#009900"/>
</svg>
