<svg xmlns="http://www.w3.org/2000/svg" xmlns:xlink="http://www.w3.org/1999/xlink" version="1.1" width="128" height="42" viewBox="0 0 128 42">
<defs>
<path id="font_1_2" d="M.42799378 .45222474 .43899537 .49023438H.31199647L.34599305 .6092224 .33399964 .6162262 .23699951 .53923037 .22399903 .49023438H.14299011L.13198853 .45222474H.21499634L.125 .08627319C.10998535 .029266358 .12199402-.01171875 .17199707-.01171875 .2519989-.01171875 .31599427 .054275514 .35598756 .1292572L.33399964 .1462555C.31098939 .10726929 .2599945 .040267946 .22898865 .040267946 .20799256 .040267946 .20799256 .0632782 .21398926 .088272098L.30299378 .45222474H.42799378Z"/>
<path id="font_2_3" d="M.07398987 .2861328V.21612549H.31900025V.2861328H.07398987Z"/>
<path id="font_2_5" d="M.43699647 0V.0289917L.35299684 .035995485C.33198548 .037994386 .31999208 .04598999 .31999208 .08496094V.67367556L.31498719 .6796875 .10899353 .6446991V.6197052L.20199585 .6087036C.21899414 .6067047 .22599793 .5987091 .22599793 .56973269V.08496094C.22599793 .065979007 .22299195 .053985597 .21699524 .04698181 .21199036 .039993287 .20399475 .036987306 .19299317 .035995485L.10899353 .0289917V0H.43699647Z"/>
<path id="font_2_6" d="M.4850006 .13195801 .45700074 .13696289C.43598939 .08299255 .41600038 .07598877 .37599183 .07598877H.11999512C.13598633 .1279602 .19499207 .19892884 .28799439 .2658844 .38398744 .33584596 .45799256 .38082887 .45799256 .49276734 .45799256 .63168337 .3659973 .6796875 .26098634 .6796875 .12399292 .6796875 .052993776 .5967102 .052993776 .54473879 .052993776 .51075747 .09098816 .49476625 .10798645 .49476625 .12599182 .49476625 .1329956 .50476077 .13699341 .5217438 .15299988 .5897064 .19198609 .64468386 .2539978 .64468386 .33099366 .64468386 .35299684 .5797119 .35299684 .50675967 .35299684 .3998108 .29899598 .33984376 .21199036 .26289369 .08898926 .15594483 .04598999 .08798218 .026992798 .009994507L.036987306 0H.45098878L.4850006 .13195801Z"/>
<path id="font_2_7" d="M.12998963 .3657837C.12998963 .3487854 .1349945 .33779908 .147995 .33779908 .1599884 .33779908 .18699646 .34777833 .23498535 .34777833 .31999208 .34777833 .36799623 .27090455 .36799623 .18403626 .36799623 .065216068 .30899049 .023269654 .23799134 .023269654 .17199707 .023269654 .1289978 .07319641 .10998535 .12911988 .10398865 .14808655 .09399414 .15707398 .07998657 .15707398 .06199646 .15707398 .026992798 .13809204 .026992798 .10215759 .026992798 .05921936 .09599304-.01171875 .23699951-.01171875 .38198854-.01171875 .47299195 .06121826 .47299195 .18902588 .47299195 .32281495 .35798646 .3627777 .30299378 .3677826V.3717804C.35699464 .38078309 .44400025 .4207611 .44400025 .5197296 .44400025 .6306915 .35699464 .6796875 .25 .6796875 .117996219 .6796875 .052993776 .60369876 .052993776 .5607147 .052993776 .5297241 .08799744 .51272585 .101989749 .51272585 .114990238 .51272585 .12298584 .5197296 .1269989 .5327301 .14898682 .60069277 .18699646 .64468386 .24299622 .64468386 .32199098 .64468386 .34098817 .57470706 .34098817 .51872256 .34098817 .4587555 .31999208 .38378907 .23498535 .38378907 .18699646 .38378907 .1599884 .39378358 .147995 .39378358 .1349945 .39378358 .12998963 .38378907 .12998963 .3657837Z"/>
<path id="font_2_8" d="M.2999878 .17871094V.0769043C.2999878 .04296875 .2889862 .036987306 .2649994 .034988405L.20098877 .0289917V0H.46499635V.0289917L.41999818 .033981325C.39698792 .036987306 .3899994 .04296875 .3899994 .0769043V.17871094H.49299623V.22570801H.3899994V.66796877H.31698609C.22299195 .5298767 .11099243 .35577394 .018997193 .19970703L.027999878 .17871094H.2999878M.09098816 .22570801C.15098572 .33476258 .22099304 .4498291 .2979889 .5709076H.2999878V.22570801H.09098816Z"/>
<path id="font_2_9" d="M.42599488 .5919647 .44999696 .6599579 .44499208 .66796877H.11099243L.100997928 .65896609 .08099365 .32388307 .10499573 .31188966C.14698792 .35983277 .18798828 .3828125 .24198914 .3828125 .30599977 .3828125 .37599183 .3358612 .37599183 .20404053 .37599183 .10116577 .33399964 .023269654 .24699402 .023269654 .1769867 .023269654 .14099121 .07420349 .12098694 .13113404 .115997318 .14611817 .10699463 .15510559 .09298706 .15510559 .07299805 .15510559 .039993287 .13513184 .039993287 .10217285 .039993287 .056228639 .10998535-.01171875 .23999024-.01171875 .40499879-.01171875 .47999574 .0881958 .47999574 .21502686 .47999574 .35484315 .3919983 .4268036 .272995 .4268036 .21798706 .4268036 .15899658 .4028015 .1269989 .3738098L.125 .37580873 .147995 .56292727C.15098572 .58795168 .1579895 .5919647 .1769867 .5919647H.42599488Z"/>
<path id="font_2_10" d="M.27198792-.01171875C.41999818-.01171875 .49899293 .07821655 .49899293 .2140503 .49899293 .3488922 .4119873 .42385865 .30799867 .421875 .23199463 .42385865 .17199707 .36886598 .14498902 .33590699H.14299011C.14399719 .5557556 .20698548 .64468386 .29699708 .64468386 .34298707 .64468386 .375 .6057129 .3899994 .5487671 .3929901 .5367737 .40098573 .527771 .41600038 .527771 .43798829 .527771 .46899415 .5447693 .46899415 .57273867 .46899415 .6127014 .41999818 .6796875 .2999878 .6796875 .22099304 .6796875 .16499329 .64967349 .12298584 .6017151 .07798767 .5497589 .04399109 .45384217 .04399109 .3089447 .04399109 .093185428 .12199402-.01171875 .27198792-.01171875M.27398683 .37086488C.33699037 .37086488 .39898683 .31393434 .39898683 .19906616 .39898683 .094192508 .35798646 .023269654 .27398683 .023269654 .18699646 .023269654 .14498902 .11616516 .14498902 .23602295 .14498902 .2969513 .18998719 .37086488 .27398683 .37086488Z"/>
<path id="font_2_11" d="M.07199097 .66796877 .040985109 .5279999H.067993167L.07798767 .5489807C.09098816 .57696536 .10398865 .5919647 .14898682 .5919647H.4189911C.40899659 .5559845 .3909912 .4980011 .30999757 .38206483 .22399903 .25914 .16699219 .14718628 .16699219 .029251099 .16699219-.0037231446 .18998719-.01171875 .22099304-.01171875 .25-.01171875 .2709961-.0027313233 .269989 .026260376 .2649994 .15818787 .2919922 .26412965 .34498597 .35708619 .40899659 .46905519 .46199037 .5310211 .49699403 .65696719L.48799134 .66796877H.07199097Z"/>
<path id="font_1_3" d="M.5329895 .48995973C.5039978 .388031 .48799134 .33506776 .46199037 .2741089 .41799928 .173172 .33099366 .040267946 .24798584 .040267946 .21598816 .040267946 .20799256 .070251468 .22299195 .12820435L.31900025 .4970703 .31399537 .50205996 .13198853 .47375489 .12599182 .4497528 .18798828 .44476319C.21199036 .44276429 .21099854 .42778016 .20298767 .39682008L.13398743 .13316345C.11299133 .053253175 .12098694-.01171875 .20098877-.01171875 .29699708-.01171875 .4019928 .09420776 .46199037 .21005249H.46398927L.43099977 .096206668C.4119873 .029266358 .42399598-.01171875 .47698976-.01171875 .548996-.01171875 .60899356 .057250978 .6439972 .13116455L.6199951 .14613343C.59999087 .11218262 .55599978 .040267946 .5279999 .040267946 .5069885 .040267946 .5069885 .06324768 .5149994 .09420776L.621994 .5019531 .5329895 .48995973Z"/>
<path id="font_1_1" d="M.42799378 .15419007C.3939972 .10821533 .33499146 .03727722 .2679901 .03727722 .19499207 .03727722 .17999268 .097229007 .17999268 .16816712 .17999268 .29808045 .25498963 .46694947 .34700013 .46694947 .3789978 .46694947 .40098573 .44696046 .40699769 .38700868 .40899659 .36901856 .41799928 .35702516 .43598939 .35702516 .45999146 .35702516 .5 .38002015 .5 .41299439 .5 .46394349 .44599916 .5019531 .37098695 .5019531 .19299317 .5019531 .08099365 .31207276 .08099365 .14819336 .08099365 .026275635 .1539917-.01171875 .22399903-.01171875 .2979889-.01171875 .3829956 .02027893 .45199586 .13519287L.42799378 .15419007Z"/>
<path id="font_2_1" d="M.1749878 .2822113C.1749878 .56832888 .2619934 .65437319 .32499696 .66737368V.6923828C.1499939 .685379 .10499573 .46829225 .10499573 .2822113 .10499573 .09614563 .1499939-.12094116 .32499696-.12792969V-.10293579C.2669983-.090927127 .1749878-.0059051516 .1749878 .2822113Z"/>
<path id="font_2_2" d="M.1749878 .2822113C.1749878-.0059051516 .08299255-.090927127 .024993897-.10293579V-.12792969C.19999695-.12094116 .24499512 .09614563 .24499512 .2822113 .24499512 .46829225 .19999695 .685379 .024993897 .6923828V.66737368C.08799744 .65437319 .1749878 .56832888 .1749878 .2822113Z"/>
<path id="font_2_12" d="M.042999269 .38905335V.3310547H.5269928V.38905335H.042999269M.042999269 .16894531V.1109314H.5269928V.16894531H.042999269Z"/>
<path id="font_2_4" d="M.2649994 .64468386C.3600006 .64468386 .3869934 .49682618 .3869934 .33398438 .3869934 .17112732 .3600006 .023269654 .2649994 .023269654 .16999817 .023269654 .14299011 .17112732 .14299011 .33398438 .14299011 .49682618 .16999817 .64468386 .2649994 .64468386M.2649994 .6796875C.099990848 .6796875 .040985109 .53378298 .040985109 .33398438 .040985109 .13417053 .099990848-.01171875 .2649994-.01171875 .42999269-.01171875 .4889984 .13417053 .4889984 .33398438 .4889984 .53378298 .42999269 .6796875 .2649994 .6796875Z"/>
</defs>
<path transform="matrix(1.00002,0,0,-1,19.649758,26.810002)" stroke-width=".19925" stroke-linecap="butt" stroke-dasharray="2.98883,2.98883" stroke-miterlimit="10" stroke-linejoin="miter" fill="none" stroke="#000000" d="M56.69362-14.17339V25.51215"/>
<path transform="matrix(1.00002,0,0,-1,19.649758,26.810002)" stroke-width=".19925" stroke-linecap="butt" stroke-dasharray="2.98883,2.98883" stroke-miterlimit="10" stroke-linejoin="miter" fill="none" stroke="#000000" d="M14.17339-14.17339V25.51215"/>
<path transform="matrix(1.00002,0,0,-1,19.649758,26.810002)" stroke-width=".3985" stroke-linecap="butt" stroke-miterlimit="10" stroke-linejoin="miter" fill="none" stroke="#000000" d="M-18.42546 0H105.84224"/>
<path transform="matrix(1.00002,0,0,-1,125.49412,26.810002)" stroke-width=".31879" stroke-linecap="round" stroke-linejoin="round" fill="none" stroke="#000000" d="M-1.19551 1.59401C-1.09587 .99626 0 .09961 .29886 0 0-.09961-1.09587-.99626-1.19551-1.59401"/>
<path transform="matrix(1.00002,0,0,-1,19.649758,26.810002)" stroke-width=".3985" stroke-linecap="butt" stroke-miterlimit="10" stroke-linejoin="miter" fill="none" stroke="#000000" d="M0-14.17339V25.05388"/>
<path transform="matrix(0,-1,-1.00002,-0,19.649758,1.7561207)" stroke-width=".31879" stroke-linecap="round" stroke-linejoin="round" fill="none" stroke="#000000" d="M-1.19551 1.59401C-1.09587 .99626 0 .09961 .29886 0 0-.09961-1.09587-.99626-1.19551-1.59401"/>
<use data-text="t" xlink:href="#font_1_2" transform="matrix(7.332647,0,0,-7.3325,122.97382,34.728)"/>
<path transform="matrix(1.00002,0,0,-1,19.649758,26.810002)" stroke-width=".3985" stroke-linecap="butt" stroke-miterlimit="10" stroke-linejoin="miter" fill="none" stroke="#929292" d="M-14.17339 1.4174V-1.4174"/>
<use data-text="-" xlink:href="#font_2_3" transform="matrix(7.332647,0,0,-7.3325,2.0924073,36.252004)"/>
<use data-text="1" xlink:href="#font_2_5" transform="matrix(7.332647,0,0,-7.3325,4.966812,36.252004)"/>
<path transform="matrix(1.00002,0,0,-1,19.649758,26.810002)" stroke-width=".3985" stroke-linecap="butt" stroke-miterlimit="10" stroke-linejoin="miter" fill="none" stroke="#929292" d="M14.17339 1.4174V-1.4174"/>
<use data-text="1" xlink:href="#font_2_5" transform="matrix(7.332647,0,0,-7.3325,31.879002,36.252004)"/>
<path transform="matrix(1.00002,0,0,-1,19.649758,26.810002)" stroke-width=".3985" stroke-linecap="butt" stroke-miterlimit="10" stroke-linejoin="miter" fill="none" stroke="#929292" d="M28.3468 1.4174V-1.4174"/>
<use data-text="2" xlink:href="#font_2_6" transform="matrix(7.332647,0,0,-7.3325,46.052286,36.252004)"/>
<path transform="matrix(1.00002,0,0,-1,19.649758,26.810002)" stroke-width=".3985" stroke-linecap="butt" stroke-miterlimit="10" stroke-linejoin="miter" fill="none" stroke="#929292" d="M42.5202 1.4174V-1.4174"/>
<use data-text="3" xlink:href="#font_2_7" transform="matrix(7.332647,0,0,-7.3325,60.22557,36.252004)"/>
<path transform="matrix(1.00002,0,0,-1,19.649758,26.810002)" stroke-width=".3985" stroke-linecap="butt" stroke-miterlimit="10" stroke-linejoin="miter" fill="none" stroke="#929292" d="M56.69362 1.4174V-1.4174"/>
<use data-text="4" xlink:href="#font_2_8" transform="matrix(7.332647,0,0,-7.3325,74.39986,36.252004)"/>
<path transform="matrix(1.00002,0,0,-1,19.649758,26.810002)" stroke-width=".3985" stroke-linecap="butt" stroke-miterlimit="10" stroke-linejoin="miter" fill="none" stroke="#929292" d="M70.867 1.4174V-1.4174"/>
<use data-text="5" xlink:href="#font_2_9" transform="matrix(7.332647,0,0,-7.3325,88.573139,36.252004)"/>
<path transform="matrix(1.00002,0,0,-1,19.649758,26.810002)" stroke-width=".3985" stroke-linecap="butt" stroke-miterlimit="10" stroke-linejoin="miter" fill="none" stroke="#929292" d="M85.04042 1.4174V-1.4174"/>
<use data-text="6" xlink:href="#font_2_10" transform="matrix(7.332647,0,0,-7.3325,102.74742,36.252004)"/>
<path transform="matrix(1.00002,0,0,-1,19.649758,26.810002)" stroke-width=".3985" stroke-linecap="butt" stroke-miterlimit="10" stroke-linejoin="miter" fill="none" stroke="#929292" d="M99.21382 1.4174V-1.4174"/>
<use data-text="7" xlink:href="#font_2_11" transform="matrix(7.332647,0,0,-7.3325,116.9207,36.252004)"/>
<path transform="matrix(1.00002,0,0,-1,19.649758,26.810002)" stroke-width=".3985" stroke-linecap="butt" stroke-miterlimit="10" stroke-linejoin="miter" fill="none" stroke="#929292" d="M1.4174 14.17339H-1.4174"/>
<use data-text="1" xlink:href="#font_2_5" transform="matrix(7.332647,0,0,-7.3325,13.778641,15.0910019)"/>
<path transform="matrix(1.00002,0,0,-1,19.649758,26.810002)" stroke-width=".79701" stroke-linecap="butt" stroke-dasharray="2.98883,2.98883" stroke-miterlimit="10" stroke-linejoin="miter" fill="none" stroke="#0000ff" d="M-18.42546 0H-18.10776-17.79007-17.47235-17.15466-16.83696-16.51926-16.20157-15.88385-15.56616-15.24846-14.93077-14.61307-14.29536-13.97766-13.65997-13.34227-13.02458-12.70686-12.38916-12.07147-11.75377-11.43608-11.11836-10.80067-10.48297-10.16528-9.84758-9.52989-9.21217-8.89447-8.57678-8.25908-7.94139-7.62367-7.30598-6.98828-6.6706-6.35289-6.03519-5.71748-5.3998-5.08209-4.76439-4.44669-4.12898-3.8113-3.49359-3.1759-2.85818-2.5405-2.2228-1.9051-1.5874-1.26971-.952-.6343-.3166 .00107 .31876 .63647 .95416 1.27187 1.58955 1.90726 2.22496 2.54266 2.86035 3.17805 3.49576 3.81346 4.13116 4.44885 4.76656 5.08424 5.40195 5.71965 6.03735 6.35504 6.67274 6.99045 7.30815 7.62585 7.94354 8.26125 8.57893 8.89665 9.21434 9.53204 9.84973 10.16743 10.48514 10.80284 11.12054 11.43823 11.75594 12.07364 12.39134 12.70903 13.02673"/>
<path transform="matrix(1.00002,0,0,-1,19.649758,26.810002)" stroke-width=".79701" stroke-linecap="butt" stroke-dasharray="2.98883,2.98883" stroke-miterlimit="10" stroke-linejoin="miter" fill="none" stroke="#990000" d="M-18.42546 0H-18.10776-17.79007-17.47235-17.15466-16.83696-16.51926-16.20157-15.88385-15.56616-15.24846-14.93077-14.61307-14.29536-13.97766-13.65997-13.34227-13.02458-12.70686-12.38916-12.07147-11.75377-11.43608-11.11836-10.80067-10.48297-10.16528-9.84758-9.52989-9.21217-8.89447-8.57678-8.25908-7.94139-7.62367-7.30598-6.98828-6.6706-6.35289-6.03519-5.71748-5.3998-5.08209-4.76439-4.44669-4.12898-3.8113-3.49359-3.1759-2.85818-2.5405-2.2228-1.9051-1.5874-1.26971-.952-.6343-.3166 .00107 .31876 .63647 .95416 1.27187 1.58955 1.90726 2.22496 2.54266 2.86035 3.17805 3.49576 3.81346 4.13116 4.44885 4.76656 5.08424 5.40195 5.71965 6.03735 6.35504 6.67274 6.99045 7.30815 7.62585 7.94354 8.26125 8.57893 8.89665 9.21434 9.53204 9.84973 10.16743 10.48514 10.80284 11.12054 11.43823 11.75594 12.07364 12.39134 12.70903 13.02673"/>
<path transform="matrix(1.00002,0,0,-1,19.649758,26.810002)" stroke-width="1.19553" stroke-linecap="butt" stroke-miterlimit="10" stroke-linejoin="miter" fill="none" stroke="#009900" d="M-17.46904 0H-18.10776-17.79007-17.47235-17.15466-16.83696-16.51926-16.20157-15.88385-15.56616-15.24846-14.93077-14.61307-14.29536-13.97766-13.65997-13.34227-13.02458-12.70686-12.38916-12.07147-11.75377-11.43608-11.11836-10.80067-10.48297-10.16528-9.84758-9.52989-9.21217-8.89447-8.57678-8.25908-7.94139-7.62367-7.30598-6.98828-6.6706-6.35289-6.03519-5.71748-5.3998-5.08209-4.76439-4.44669-4.12898-3.8113-3.49359-3.1759-2.85818-2.5405-2.2228-1.9051-1.5874-1.26971-.952-.6343-.3166 .00107 .31876 .63647 .95416 1.27187 1.58955 1.90726 2.22496 2.54266 2.86035 3.17805 3.49576 3.81346 4.13116 4.44885 4.76656 5.08424 5.40195 5.71965 6.03735 6.35504 6.67274 6.99045 7.30815 7.62585 7.94354 8.26125 8.57893 8.89665 9.21434 9.53204 9.84973 10.16743 10.48514 10.80284 11.12054 11.43823 11.75594 12.07364 12.39134 12.70903 13.02673"/>
<path transform="matrix(-1.00002,-0,0,1,2.1803685,26.810002)" stroke-width=".9564" stroke-linecap="round" stroke-linejoin="round" fill="none" stroke="#009900" d="M-1.91284 2.55046C-1.75343 1.59402 0 .15938 .4782 0 0-.15938-1.75343-1.59402-1.91284-2.55046"/>
<path transform="matrix(1.00002,0,0,-1,19.649758,26.810002)" stroke-width=".79701" stroke-linecap="butt" stroke-dasharray="2.98883,2.98883" stroke-miterlimit="10" stroke-linejoin="miter" fill="none" stroke="#0000ff" d="M15.3073 14.17339H15.71387 16.12045 16.52705 16.93362 17.34023 17.7468 18.1534 18.55997 18.96655 19.37315 19.77972 20.18633 20.5929 20.99948 21.40608 21.81265 22.21925 22.62582 23.03242 23.439 23.84558 24.25218 24.65875 25.06535 25.47192 25.87852 26.2851 26.69168 27.09828 27.50485 27.91145 28.31802 28.72461 29.13121 29.53778 29.94438 30.35095 30.75755 31.16412 31.57071 31.97731 32.38388 32.79048 33.19705 33.60365 34.01022 34.41681 34.82341 35.22998 35.63658 36.04315 36.44975 36.85634 37.26291 37.66951 38.07608 38.48268 38.88925 39.29584 39.70244 40.10901 40.51561 40.92218 41.32878 41.73535 42.14194 42.54854 42.95511 43.36171 43.76828 44.17488 44.58147 44.98804 45.39464 45.80121 46.20781 46.61438 47.02098 47.42757 47.83414 48.24074 48.64731 49.05391 49.46048 49.86707 50.27367 50.68024 51.08684 51.49341 51.90001 52.3066 52.71317 53.11977 53.52634 53.93294 54.33951 54.74611 55.1527 55.55927"/>
<path transform="matrix(1.00002,0,0,-1,19.649758,26.810002)" stroke-width=".79701" stroke-linecap="butt" stroke-dasharray="2.98883,2.98883" stroke-miterlimit="10" stroke-linejoin="miter" fill="none" stroke="#990000" d="M15.3073 0H15.71387 16.12045 16.52705 16.93362 17.34023 17.7468 18.1534 18.55997 18.96655 19.37315 19.77972 20.18633 20.5929 20.99948 21.40608 21.81265 22.21925 22.62582 23.03242 23.439 23.84558 24.25218 24.65875 25.06535 25.47192 25.87852 26.2851 26.69168 27.09828 27.50485 27.91145 28.31802 28.72461 29.13121 29.53778 29.94438 30.35095 30.75755 31.16412 31.57071 31.97731 32.38388 32.79048 33.19705 33.60365 34.01022 34.41681 34.82341 35.22998 35.63658 36.04315 36.44975 36.85634 37.26291 37.66951 38.07608 38.48268 38.88925 39.29584 39.70244 40.10901 40.51561 40.92218 41.32878 41.73535 42.14194 42.54854 42.95511 43.36171 43.76828 44.17488 44.58147 44.98804 45.39464 45.80121 46.20781 46.61438 47.02098 47.42757 47.83414 48.24074 48.64731 49.05391 49.46048 49.86707 50.27367 50.68024 51.08684 51.49341 51.90001 52.3066 52.71317 53.11977 53.52634 53.93294 54.33951 54.74611 55.1527 55.55927"/>
<path transform="matrix(1.00002,0,0,-1,19.649758,26.810002)" stroke-width="1.19553" stroke-linecap="butt" stroke-miterlimit="10" stroke-linejoin="miter" fill="none" stroke="#009900" d="M14.17339 14.17339H14.59122 15.00906 15.42688 15.84471 16.26256 16.68037 17.0982 17.51605 17.93387 18.35172 18.76955 19.18736 19.60521 20.02304 20.44086 20.8587 21.27654 21.69435 22.1122 22.53003 22.94785 23.36569 23.78352 24.20134 24.61919 25.03702 25.45483 25.87268 26.29051 26.70834 27.12617 27.544 27.96184 28.37967 28.7975 29.21533 29.63316 30.051 30.46883 30.88666 31.30449 31.72232 32.14015 32.55798 32.97581 33.39365 33.81148 34.22931 34.64714 35.06499 35.4828 35.90063 36.31848 36.7363 37.15413 37.57198 37.98979 38.40762 38.82547 39.24329 39.66112 40.07896 40.49678 40.91461 41.33246 41.75027 42.1681 42.58595 43.00377 43.42162 43.83945 44.25726 44.67511 45.09294 45.51076 45.9286 46.34644 46.76425 47.1821 47.59993 48.01775 48.4356 48.85342 49.27124 49.68909 50.10692 50.52473 50.94258 51.36041 51.77824 52.19608 52.6139 53.03174 53.44957 53.8674 54.28523 54.70306 55.1209 55.53873"/>
<path transform="matrix(1.00002,0,0,-1,19.649758,26.810002)" stroke-width=".79701" stroke-linecap="butt" stroke-dasharray="2.98883,2.98883" stroke-miterlimit="10" stroke-linejoin="miter" fill="none" stroke="#0000ff" d="M57.8275 14.17339H58.31693 58.80634 59.29575 59.78516 60.2746 60.764 61.25342 61.74284 62.23225 62.72166 63.21107 63.7005 64.18993 64.67934 65.16876 65.65817 66.14758 66.637 67.12642 67.61584 68.10526 68.59468 69.08409 69.5735 70.06291 70.55234 71.04176 71.53117 72.02058 72.51001 72.99942 73.48883 73.97826 74.46767 74.95709 75.4465 75.93593 76.42534 76.91475 77.40417 77.89359 78.38301 78.87242 79.36185 79.85126 80.34067 80.83008 81.3195 81.80893 82.29834 82.78777 83.27718 83.76659 84.256 84.74542 85.23483 85.72426 86.21368 86.7031 87.1925 87.68192 88.17134 88.66075 89.15018 89.6396 90.12901 90.61842 91.10783 91.59726 92.08667 92.5761 93.0655 93.55493 94.04434 94.53375 95.02318 95.51259 96.002 96.49142 96.98085 97.47026 97.95967 98.4491 98.9385 99.42792 99.91734 100.40677 100.89618 101.38559 101.87502 102.36443 102.85384 103.34326 103.83269 104.3221 104.81151 105.30092 105.79034 106.27975"/>
<path transform="matrix(1.00002,0,0,-1,19.649758,26.810002)" stroke-width=".79701" stroke-linecap="butt" stroke-dasharray="2.98883,2.98883" stroke-miterlimit="10" stroke-linejoin="miter" fill="none" stroke="#990000" d="M57.8275 14.17339H58.31693 58.80634 59.29575 59.78516 60.2746 60.764 61.25342 61.74284 62.23225 62.72166 63.21107 63.7005 64.18993 64.67934 65.16876 65.65817 66.14758 66.637 67.12642 67.61584 68.10526 68.59468 69.08409 69.5735 70.06291 70.55234 71.04176 71.53117 72.02058 72.51001 72.99942 73.48883 73.97826 74.46767 74.95709 75.4465 75.93593 76.42534 76.91475 77.40417 77.89359 78.38301 78.87242 79.36185 79.85126 80.34067 80.83008 81.3195 81.80893 82.29834 82.78777 83.27718 83.76659 84.256 84.74542 85.23483 85.72426 86.21368 86.7031 87.1925 87.68192 88.17134 88.66075 89.15018 89.6396 90.12901 90.61842 91.10783 91.59726 92.08667 92.5761 93.0655 93.55493 94.04434 94.53375 95.02318 95.51259 96.002 96.49142 96.98085 97.47026 97.95967 98.4491 98.9385 99.42792 99.91734 100.40677 100.89618 101.38559 101.87502 102.36443 102.85384 103.34326 103.83269 104.3221 104.81151 105.30092 105.79034 106.27975"/>
<path transform="matrix(1.00002,0,0,-1,19.649758,26.810002)" stroke-width="1.19553" stroke-linecap="butt" stroke-miterlimit="10" stroke-linejoin="miter" fill="none" stroke="#009900" d="M56.69362 0H57.19449 57.69536 58.19624 58.69713 59.198 59.69888 60.19975 60.70064 61.20152 61.7024 62.20328 62.70416 63.20503 63.7059 64.20679 64.70767 65.20854 65.70941 66.21031 66.71118 67.21205 67.71295 68.21382 68.71469 69.21558 69.71646 70.21733 70.71822 71.2191 71.71997 72.22086 72.72173 73.22261 73.7235 74.22437 74.72523 75.22614 75.727 76.22787 76.72878 77.22964 77.73051 78.2314 78.73228 79.23315 79.73404 80.23492 80.7358 81.23668 81.73755 82.23843 82.73932 83.24019 83.74106 84.24196 84.74283 85.2437 85.7446 86.24547 86.74634 87.24722 87.74811 88.24898 88.74986 89.25075 89.75162 90.2525 90.75337 91.25426 91.75514 92.25601 92.75688 93.25778 93.75865 94.25952 94.76042 95.26129 95.76216 96.26305 96.76393 97.2648 97.76569 98.26656 98.76744 99.26833 99.7692 100.27008 100.77095 101.27184 101.7727 102.27359 102.77448 103.27534 103.77623 104.27711 104.77798 105.27885 105.77975 105.3242"/>
<path transform="matrix(1.00002,0,0,-1,124.97607,26.810002)" stroke-width=".9564" stroke-linecap="round" stroke-linejoin="round" fill="none" stroke="#009900" d="M-1.91284 2.55046C-1.75343 1.59402 0 .15938 .4782 0 0-.15938-1.75343-1.59402-1.91284-2.55046"/>
<path transform="matrix(1.00002,0,0,-1,19.649758,26.810002)" stroke-width=".79701" stroke-linecap="butt" stroke-miterlimit="10" stroke-linejoin="miter" fill="none" stroke="#009900" d="M15.6678 0C15.6678 .82533 14.99873 1.49442 14.17339 1.49442 13.34804 1.49442 12.67897 .82533 12.67897 0 12.67897-.82533 13.34804-1.49442 14.17339-1.49442 14.99873-1.49442 15.6678-.82533 15.6678 0ZM14.17339 0"/>
<path transform="matrix(1.00002,0,0,-1,19.649758,26.810002)" d="M15.6678 14.17339C15.6678 14.99873 14.99873 15.6678 14.17339 15.6678 13.34804 15.6678 12.67897 14.99873 12.67897 14.17339 12.67897 13.34804 13.34804 12.67897 14.17339 12.67897 14.99873 12.67897 15.6678 13.34804 15.6678 14.17339ZM14.17339 14.17339" fill="#009900"/>
<path transform="matrix(1.00002,0,0,-1,19.649758,26.810002)" stroke-width=".79701" stroke-linecap="butt" stroke-miterlimit="10" stroke-linejoin="miter" fill="none" stroke="#009900" d="M58.18803 14.17339C58.18803 14.99873 57.51895 15.6678 56.69362 15.6678 55.86827 15.6678 55.1992 14.99873 55.1992 14.17339 55.1992 13.34804 55.86827 12.67897 56.69362 12.67897 57.51895 12.67897 58.18803 13.34804 58.18803 14.17339ZM56.69362 14.17339"/>
<path transform="matrix(1.00002,0,0,-1,19.649758,26.810002)" d="M58.18803 0C58.18803 .82533 57.51895 1.49442 56.69362 1.49442 55.86827 1.49442 55.1992 .82533 55.1992 0 55.1992-.82533 55.86827-1.49442 56.69362-1.49442 57.51895-1.49442 58.18803-.82533 58.18803 0ZM56.69362 0" fill="#009900"/>
<use data-text="u" xlink:href="#font_1_3" transform="matrix(7.332647,0,0,-7.3325,4.122444,22.161002)" fill="#0000ff"/>
<use data-text="c" xlink:href="#font_1_1" transform="matrix(6.232725,0,0,-6.2326,8.897545,23.356)" fill="#0000ff"/>
<use data-text="(" xlink:href="#font_2_1" transform="matrix(7.332647,0,0,-7.3325,12.633614,22.161002)" fill="#0000ff"/>
<use data-text="t" xlink:href="#font_1_2" transform="matrix(7.332647,0,0,-7.3325,15.359673,22.161002)" fill="#0000ff"/>
<use data-text=")" xlink:href="#font_2_2" transform="matrix(7.332647,0,0,-7.3325,18.64273,22.161002)" fill="#0000ff"/>
<use data-text="=" xlink:href="#font_2_12" transform="matrix(7.332647,0,0,-7.3325,21.20916,22.161002)" fill="#0000ff"/>
<use data-text="0" xlink:href="#font_2_4" transform="matrix(7.332647,0,0,-7.3325,27.03128,22.161002)" fill="#0000ff"/>
<use data-text="u" xlink:href="#font_1_3" transform="matrix(7.332647,0,0,-7.3325,41.682199,7.988001)" fill="#990000"/>
<use data-text="c" xlink:href="#font_1_1" transform="matrix(6.232725,0,0,-6.2326,46.4573,9.183001)" fill="#990000"/>
<use data-text="(" xlink:href="#font_2_1" transform="matrix(7.332647,0,0,-7.3325,50.193368,7.988001)" fill="#990000"/>
<use data-text="t" xlink:href="#font_1_2" transform="matrix(7.332647,0,0,-7.3325,52.919427,7.988001)" fill="#990000"/>
<use data-text=")" xlink:href="#font_2_2" transform="matrix(7.332647,0,0,-7.3325,56.202486,7.988001)" fill="#990000"/>
<use data-text="=" xlink:href="#font_2_12" transform="matrix(7.332647,0,0,-7.3325,58.768915,7.988001)" fill="#990000"/>
<use data-text="1" xlink:href="#font_2_5" transform="matrix(7.332647,0,0,-7.3325,64.591037,7.988001)" fill="#990000"/>
<use data-text="u" xlink:href="#font_1_3" transform="matrix(7.332647,0,0,-7.3325,87.74712,22.161002)" fill="#990000"/>
<use data-text="c" xlink:href="#font_1_1" transform="matrix(6.232725,0,0,-6.2326,92.522228,23.356)" fill="#990000"/>
<use data-text="(" xlink:href="#font_2_1" transform="matrix(7.332647,0,0,-7.3325,96.25829,22.161002)" fill="#990000"/>
<use data-text="t" xlink:href="#font_1_2" transform="matrix(7.332647,0,0,-7.3325,98.98435,22.161002)" fill="#990000"/>
<use data-text=")" xlink:href="#font_2_2" transform="matrix(7.332647,0,0,-7.3325,102.26741,22.161002)" fill="#990000"/>
<use data-text="=" xlink:href="#font_2_12" transform="matrix(7.332647,0,0,-7.3325,104.83384,22.161002)" fill="#990000"/>
<use data-text="1" xlink:href="#font_2_5" transform="matrix(7.332647,0,0,-7.3325,110.65596,22.161002)" fill="#990000"/>
</svg>
