<svg xmlns="http://www.w3.org/2000/svg" xmlns:xlink="http://www.w3.org/1999/xlink" version="1.1" width="95" height="136" viewBox="0 0 95 136">
<defs>
<path id="font_1_1" d="M.42799378 .45222474 .43899537 .49023438H.31199647L.34599305 .6092224 .33399964 .6162262 .23699951 .53923037 .22399903 .49023438H.14299011L.13198853 .45222474H.21499634L.125 .08627319C.10998535 .029266358 .12199402-.01171875 .17199707-.01171875 .2519989-.01171875 .31599427 .054275514 .35598756 .1292572L.33399964 .1462555C.31098939 .10726929 .2599945 .040267946 .22898865 .040267946 .20799256 .040267946 .20799256 .0632782 .21398926 .088272098L.30299378 .45222474H.42799378Z"/>
<path id="font_1_2" d="M.070999149 .45393373 .07398987 .42893983 .14199829 .43093873C.1639862 .43193055 .16899109 .41493226 .1769867 .36291505 .18798828 .28489686 .20999146 .09286499 .20999146 .0128479 .20999146-.017166138 .20799256-.058166505 .18598938-.11117554 .16799927-.15318299 .14199829-.18218994 .12199402-.18218994 .10699463-.18218994 .09599304-.17118836 .08099365-.15118408 .068984989-.13517761 .06098938-.127182 .04598999-.127182 .019989014-.12818909-.005004883-.15818787-.005004883-.18719483-.005004883-.21418762 .023986817-.2421875 .067993167-.2421875 .15299988-.2421875 .18998719-.17919922 .27799989-.027160645 .2979889 .0068511965 .35798646 .11286926 .41999818 .21488953 .47698976 .30891419 .5399933 .40592958 .5399933 .4459381 .5399933 .48094178 .5289917 .5019531 .5219879 .5019531 .5029907 .5019531 .46899415 .49394227 .44400025 .47694398 .44499208 .4419403 .44299317 .3809204 .43099977 .33891297 .4149933 .28289796 .35598756 .17488098 .2899933 .06085205H.2869873C.27999879 .21388245 .26098634 .42492677 .24699402 .49795533L.23899842 .5019531 .070999149 .45393373Z"/>
<path id="font_2_2" d="M.2649994 .64468386C.3600006 .64468386 .3869934 .49682618 .3869934 .33398438 .3869934 .17112732 .3600006 .023269654 .2649994 .023269654 .16999817 .023269654 .14299011 .17112732 .14299011 .33398438 .14299011 .49682618 .16999817 .64468386 .2649994 .64468386M.2649994 .6796875C.099990848 .6796875 .040985109 .53378298 .040985109 .33398438 .040985109 .13417053 .099990848-.01171875 .2649994-.01171875 .42999269-.01171875 .4889984 .13417053 .4889984 .33398438 .4889984 .53378298 .42999269 .6796875 .2649994 .6796875Z"/>
<path id="font_2_3" d="M.43699647 0V.0289917L.35299684 .035995485C.33198548 .037994386 .31999208 .04598999 .31999208 .08496094V.67367556L.31498719 .6796875 .10899353 .6446991V.6197052L.20199585 .6087036C.21899414 .6067047 .22599793 .5987091 .22599793 .56973269V.08496094C.22599793 .065979007 .22299195 .053985597 .21699524 .04698181 .21199036 .039993287 .20399475 .036987306 .19299317 .035995485L.10899353 .0289917V0H.43699647Z"/>
<path id="font_2_4" d="M.4850006 .13195801 .45700074 .13696289C.43598939 .08299255 .41600038 .07598877 .37599183 .07598877H.11999512C.13598633 .1279602 .19499207 .19892884 .28799439 .2658844 .38398744 .33584596 .45799256 .38082887 .45799256 .49276734 .45799256 .63168337 .3659973 .6796875 .26098634 .6796875 .12399292 .6796875 .052993776 .5967102 .052993776 .54473879 .052993776 .51075747 .09098816 .49476625 .10798645 .49476625 .12599182 .49476625 .1329956 .50476077 .13699341 .5217438 .15299988 .5897064 .19198609 .64468386 .2539978 .64468386 .33099366 .64468386 .35299684 .5797119 .35299684 .50675967 .35299684 .3998108 .29899598 .33984376 .21199036 .26289369 .08898926 .15594483 .04598999 .08798218 .026992798 .009994507L.036987306 0H.45098878L.4850006 .13195801Z"/>
<path id="font_2_1" d="M.07398987 .2861328V.21612549H.31900025V.2861328H.07398987Z"/>
</defs>
<path transform="matrix(1.00006,0,0,-1.00005,18.63926,72.26486)" stroke-width=".3985" stroke-linecap="butt" stroke-miterlimit="10" stroke-linejoin="miter" fill="none" stroke="#cbcbcb" d="M-5.66936-56.69382V56.69382"/>
<path transform="matrix(1.00006,0,0,-1.00005,18.63926,72.26486)" stroke-width=".3985" stroke-linecap="butt" stroke-miterlimit="10" stroke-linejoin="miter" fill="none" stroke="#cbcbcb" d="M0-56.69382V56.69382"/>
<path transform="matrix(1.00006,0,0,-1.00005,18.63926,72.26486)" stroke-width=".3985" stroke-linecap="butt" stroke-miterlimit="10" stroke-linejoin="miter" fill="none" stroke="#cbcbcb" d="M5.66936-56.69382V56.69382"/>
<path transform="matrix(1.00006,0,0,-1.00005,18.63926,72.26486)" stroke-width=".3985" stroke-linecap="butt" stroke-miterlimit="10" stroke-linejoin="miter" fill="none" stroke="#cbcbcb" d="M11.33876-56.69382V56.69382"/>
<path transform="matrix(1.00006,0,0,-1.00005,18.63926,72.26486)" stroke-width=".3985" stroke-linecap="butt" stroke-miterlimit="10" stroke-linejoin="miter" fill="none" stroke="#cbcbcb" d="M17.00813-56.69382V56.69382"/>
<path transform="matrix(1.00006,0,0,-1.00005,18.63926,72.26486)" stroke-width=".3985" stroke-linecap="butt" stroke-miterlimit="10" stroke-linejoin="miter" fill="none" stroke="#cbcbcb" d="M22.67752-56.69382V56.69382"/>
<path transform="matrix(1.00006,0,0,-1.00005,18.63926,72.26486)" stroke-width=".3985" stroke-linecap="butt" stroke-miterlimit="10" stroke-linejoin="miter" fill="none" stroke="#cbcbcb" d="M28.3469-56.69382V56.69382"/>
<path transform="matrix(1.00006,0,0,-1.00005,18.63926,72.26486)" stroke-width=".3985" stroke-linecap="butt" stroke-miterlimit="10" stroke-linejoin="miter" fill="none" stroke="#cbcbcb" d="M34.01628-56.69382V56.69382"/>
<path transform="matrix(1.00006,0,0,-1.00005,18.63926,72.26486)" stroke-width=".3985" stroke-linecap="butt" stroke-miterlimit="10" stroke-linejoin="miter" fill="none" stroke="#cbcbcb" d="M39.68567-56.69382V56.69382"/>
<path transform="matrix(1.00006,0,0,-1.00005,18.63926,72.26486)" stroke-width=".3985" stroke-linecap="butt" stroke-miterlimit="10" stroke-linejoin="miter" fill="none" stroke="#cbcbcb" d="M45.35506-56.69382V56.69382"/>
<path transform="matrix(1.00006,0,0,-1.00005,18.63926,72.26486)" stroke-width=".3985" stroke-linecap="butt" stroke-miterlimit="10" stroke-linejoin="miter" fill="none" stroke="#cbcbcb" d="M51.02443-56.69382V56.69382"/>
<path transform="matrix(1.00006,0,0,-1.00005,18.63926,72.26486)" stroke-width=".3985" stroke-linecap="butt" stroke-miterlimit="10" stroke-linejoin="miter" fill="none" stroke="#cbcbcb" d="M56.69382-56.69382V56.69382"/>
<path transform="matrix(1.00006,0,0,-1.00005,18.63926,72.26486)" stroke-width=".3985" stroke-linecap="butt" stroke-miterlimit="10" stroke-linejoin="miter" fill="none" stroke="#cbcbcb" d="M62.3632-56.69382V56.69382"/>
<path transform="matrix(1.00006,0,0,-1.00005,18.63926,72.26486)" stroke-width=".3985" stroke-linecap="butt" stroke-miterlimit="10" stroke-linejoin="miter" fill="none" stroke="#cbcbcb" d="M-11.33876-51.02443H68.0326"/>
<path transform="matrix(1.00006,0,0,-1.00005,18.63926,72.26486)" stroke-width=".3985" stroke-linecap="butt" stroke-miterlimit="10" stroke-linejoin="miter" fill="none" stroke="#cbcbcb" d="M-11.33876-45.35506H68.0326"/>
<path transform="matrix(1.00006,0,0,-1.00005,18.63926,72.26486)" stroke-width=".3985" stroke-linecap="butt" stroke-miterlimit="10" stroke-linejoin="miter" fill="none" stroke="#cbcbcb" d="M-11.33876-39.68567H68.0326"/>
<path transform="matrix(1.00006,0,0,-1.00005,18.63926,72.26486)" stroke-width=".3985" stroke-linecap="butt" stroke-miterlimit="10" stroke-linejoin="miter" fill="none" stroke="#cbcbcb" d="M-11.33876-34.01628H68.0326"/>
<path transform="matrix(1.00006,0,0,-1.00005,18.63926,72.26486)" stroke-width=".3985" stroke-linecap="butt" stroke-miterlimit="10" stroke-linejoin="miter" fill="none" stroke="#cbcbcb" d="M-11.33876-28.3469H68.0326"/>
<path transform="matrix(1.00006,0,0,-1.00005,18.63926,72.26486)" stroke-width=".3985" stroke-linecap="butt" stroke-miterlimit="10" stroke-linejoin="miter" fill="none" stroke="#cbcbcb" d="M-11.33876-22.67752H68.0326"/>
<path transform="matrix(1.00006,0,0,-1.00005,18.63926,72.26486)" stroke-width=".3985" stroke-linecap="butt" stroke-miterlimit="10" stroke-linejoin="miter" fill="none" stroke="#cbcbcb" d="M-11.33876-17.00813H68.0326"/>
<path transform="matrix(1.00006,0,0,-1.00005,18.63926,72.26486)" stroke-width=".3985" stroke-linecap="butt" stroke-miterlimit="10" stroke-linejoin="miter" fill="none" stroke="#cbcbcb" d="M-11.33876-11.33876H68.0326"/>
<path transform="matrix(1.00006,0,0,-1.00005,18.63926,72.26486)" stroke-width=".3985" stroke-linecap="butt" stroke-miterlimit="10" stroke-linejoin="miter" fill="none" stroke="#cbcbcb" d="M-11.33876-5.66936H68.0326"/>
<path transform="matrix(1.00006,0,0,-1.00005,18.63926,72.26486)" stroke-width=".3985" stroke-linecap="butt" stroke-miterlimit="10" stroke-linejoin="miter" fill="none" stroke="#cbcbcb" d="M-11.33876 0H68.0326"/>
<path transform="matrix(1.00006,0,0,-1.00005,18.63926,72.26486)" stroke-width=".3985" stroke-linecap="butt" stroke-miterlimit="10" stroke-linejoin="miter" fill="none" stroke="#cbcbcb" d="M-11.33876 5.66936H68.0326"/>
<path transform="matrix(1.00006,0,0,-1.00005,18.63926,72.26486)" stroke-width=".3985" stroke-linecap="butt" stroke-miterlimit="10" stroke-linejoin="miter" fill="none" stroke="#cbcbcb" d="M-11.33876 11.33876H68.0326"/>
<path transform="matrix(1.00006,0,0,-1.00005,18.63926,72.26486)" stroke-width=".3985" stroke-linecap="butt" stroke-miterlimit="10" stroke-linejoin="miter" fill="none" stroke="#cbcbcb" d="M-11.33876 17.00813H68.0326"/>
<path transform="matrix(1.00006,0,0,-1.00005,18.63926,72.26486)" stroke-width=".3985" stroke-linecap="butt" stroke-miterlimit="10" stroke-linejoin="miter" fill="none" stroke="#cbcbcb" d="M-11.33876 22.67752H68.0326"/>
<path transform="matrix(1.00006,0,0,-1.00005,18.63926,72.26486)" stroke-width=".3985" stroke-linecap="butt" stroke-miterlimit="10" stroke-linejoin="miter" fill="none" stroke="#cbcbcb" d="M-11.33876 28.3469H68.0326"/>
<path transform="matrix(1.00006,0,0,-1.00005,18.63926,72.26486)" stroke-width=".3985" stroke-linecap="butt" stroke-miterlimit="10" stroke-linejoin="miter" fill="none" stroke="#cbcbcb" d="M-11.33876 34.01628H68.0326"/>
<path transform="matrix(1.00006,0,0,-1.00005,18.63926,72.26486)" stroke-width=".3985" stroke-linecap="butt" stroke-miterlimit="10" stroke-linejoin="miter" fill="none" stroke="#cbcbcb" d="M-11.33876 39.68567H68.0326"/>
<path transform="matrix(1.00006,0,0,-1.00005,18.63926,72.26486)" stroke-width=".3985" stroke-linecap="butt" stroke-miterlimit="10" stroke-linejoin="miter" fill="none" stroke="#cbcbcb" d="M-11.33876 45.35506H68.0326"/>
<path transform="matrix(1.00006,0,0,-1.00005,18.63926,72.26486)" stroke-width=".3985" stroke-linecap="butt" stroke-miterlimit="10" stroke-linejoin="miter" fill="none" stroke="#cbcbcb" d="M-11.33876 51.02443H68.0326"/>
<path transform="matrix(1.00006,0,0,-1.00005,18.63926,72.26486)" stroke-width=".3985" stroke-linecap="butt" stroke-miterlimit="10" stroke-linejoin="miter" fill="none" stroke="#000000" d="M-11.33876 0H74.43741"/>
<path transform="matrix(1.00006,0,0,-1.00005,93.280399,72.26486)" stroke-width=".3985" stroke-linecap="round" stroke-linejoin="round" fill="none" stroke="#000000" d="M-2.07224 2.39104C-1.69365 .95639-.84999 .27895 0 0-.84999-.27895-1.69365-.95639-2.07224-2.39104"/>
<use data-text="t" xlink:href="#font_1_1" transform="matrix(5.49973,0,0,-5.499675,89.47251,79.0532)"/>
<path transform="matrix(1.00006,0,0,-1.00005,18.63926,72.26486)" stroke-width=".3985" stroke-linecap="butt" stroke-miterlimit="10" stroke-linejoin="miter" fill="none" stroke="#000000" d="M0-56.69382V63.09863"/>
<path transform="matrix(0,-1.00005,-1.00006,-0,18.63926,8.963821)" stroke-width=".3985" stroke-linecap="round" stroke-linejoin="round" fill="none" stroke="#000000" d="M-2.07224 2.39104C-1.69365 .95639-.84999 .27895 0 0-.84999-.27895-1.69365-.95639-2.07224-2.39104"/>
<use data-text="y" xlink:href="#font_1_2" transform="matrix(5.49973,0,0,-5.499675,12.160866,12.283867)"/>
<path transform="matrix(1.00006,0,0,-1.00005,18.63926,72.26486)" stroke-width=".3985" stroke-linecap="butt" stroke-miterlimit="10" stroke-linejoin="miter" fill="none" stroke="#cbcbcb" d="M-11.33876-56.69382V56.69382H68.0326V-56.69382ZM68.0326 56.69382"/>
<path transform="matrix(1.00006,0,0,-1.00005,18.63926,72.26486)" stroke-width=".3985" stroke-linecap="butt" stroke-miterlimit="10" stroke-linejoin="miter" fill="none" stroke="#000000" d="M0-58.0544V-55.33322"/>
<use data-text="0" xlink:href="#font_2_2" transform="matrix(5.49973,0,0,-5.499675,17.180169,134.68198)"/>
<path transform="matrix(1.00006,0,0,-1.00005,18.63926,72.26486)" stroke-width=".3985" stroke-linecap="butt" stroke-miterlimit="10" stroke-linejoin="miter" fill="none" stroke="#000000" d="M22.67752-58.0544V-55.33322"/>
<use data-text="1" xlink:href="#font_2_3" transform="matrix(5.49973,0,0,-5.499675,39.85953,134.68198)"/>
<path transform="matrix(1.00006,0,0,-1.00005,18.63926,72.26486)" stroke-width=".3985" stroke-linecap="butt" stroke-miterlimit="10" stroke-linejoin="miter" fill="none" stroke="#000000" d="M45.35506-58.0544V-55.33322"/>
<use data-text="2" xlink:href="#font_2_4" transform="matrix(5.49973,0,0,-5.499675,62.53889,134.68198)"/>
<path transform="matrix(1.00006,0,0,-1.00005,18.63926,72.26486)" stroke-width=".3985" stroke-linecap="butt" stroke-miterlimit="10" stroke-linejoin="miter" fill="none" stroke="#000000" d="M-12.69934-45.35506H-9.07086"/>
<use data-text="-" xlink:href="#font_2_1" transform="matrix(5.49973,0,0,-5.499675,1.0932083,119.46322)"/>
<use data-text="2" xlink:href="#font_2_4" transform="matrix(5.49973,0,0,-5.499675,3.2490998,119.46322)"/>
<path transform="matrix(1.00006,0,0,-1.00005,18.63926,72.26486)" stroke-width=".3985" stroke-linecap="butt" stroke-miterlimit="10" stroke-linejoin="miter" fill="none" stroke="#000000" d="M-12.69934-22.67752H-9.07086"/>
<use data-text="-" xlink:href="#font_2_1" transform="matrix(5.49973,0,0,-5.499675,1.0932083,96.78508)"/>
<use data-text="1" xlink:href="#font_2_3" transform="matrix(5.49973,0,0,-5.499675,3.2490998,96.78508)"/>
<path transform="matrix(1.00006,0,0,-1.00005,18.63926,72.26486)" stroke-width=".3985" stroke-linecap="butt" stroke-miterlimit="10" stroke-linejoin="miter" fill="none" stroke="#000000" d="M-12.69934 0H-9.07086"/>
<use data-text="0" xlink:href="#font_2_2" transform="matrix(5.49973,0,0,-5.499675,3.2513352,74.09096)"/>
<path transform="matrix(1.00006,0,0,-1.00005,18.63926,72.26486)" stroke-width=".3985" stroke-linecap="butt" stroke-miterlimit="10" stroke-linejoin="miter" fill="none" stroke="#000000" d="M-12.69934 22.67752H-9.07086"/>
<use data-text="1" xlink:href="#font_2_3" transform="matrix(5.49973,0,0,-5.499675,3.2513352,51.42782)"/>
<path transform="matrix(1.00006,0,0,-1.00005,18.63926,72.26486)" stroke-width=".3985" stroke-linecap="butt" stroke-miterlimit="10" stroke-linejoin="miter" fill="none" stroke="#000000" d="M-12.69934 45.35506H-9.07086"/>
<use data-text="2" xlink:href="#font_2_4" transform="matrix(5.49973,0,0,-5.499675,3.2513352,28.748688)"/>
<path transform="matrix(1.00006,0,0,-1.00005,18.63926,72.26486)" stroke-width=".79701" stroke-linecap="butt" stroke-miterlimit="10" stroke-linejoin="miter" fill="none" stroke="#409f9f" d="M-6.21121-53.22621-5.1275-48.82265"/>
<path transform="matrix(1.00006,0,0,-1.00005,18.63926,72.26486)" stroke-width=".79701" stroke-linecap="butt" stroke-miterlimit="10" stroke-linejoin="miter" fill="none" stroke="#409f9f" d="M-6.38666-47.50632-4.95206-43.20378"/>
<path transform="matrix(1.00006,0,0,-1.00005,18.63926,72.26486)" stroke-width=".79701" stroke-linecap="butt" stroke-miterlimit="10" stroke-linejoin="miter" fill="none" stroke="#409f9f" d="M-6.65866-41.7262-4.68005-37.64514"/>
<path transform="matrix(1.00006,0,0,-1.00005,18.63926,72.26486)" stroke-width=".79701" stroke-linecap="butt" stroke-miterlimit="10" stroke-linejoin="miter" fill="none" stroke="#409f9f" d="M-7.0853-35.78621-4.25342-32.24634"/>
<path transform="matrix(1.00006,0,0,-1.00005,18.63926,72.26486)" stroke-width=".79701" stroke-linecap="butt" stroke-miterlimit="10" stroke-linejoin="miter" fill="none" stroke="#409f9f" d="M-7.64552-29.458-3.69319-27.2358"/>
<path transform="matrix(1.00006,0,0,-1.00005,18.63926,72.26486)" stroke-width=".79701" stroke-linecap="butt" stroke-miterlimit="10" stroke-linejoin="miter" fill="none" stroke="#409f9f" d="M-7.93689-22.67752H-3.40182"/>
<path transform="matrix(1.00006,0,0,-1.00005,18.63926,72.26486)" stroke-width=".79701" stroke-linecap="butt" stroke-miterlimit="10" stroke-linejoin="miter" fill="none" stroke="#409f9f" d="M-7.74762-16.09947-3.5911-17.9168"/>
<path transform="matrix(1.00006,0,0,-1.00005,18.63926,72.26486)" stroke-width=".79701" stroke-linecap="butt" stroke-miterlimit="10" stroke-linejoin="miter" fill="none" stroke="#409f9f" d="M-7.4836-9.97816-3.85512-12.69934"/>
<path transform="matrix(1.00006,0,0,-1.00005,18.63926,72.26486)" stroke-width=".79701" stroke-linecap="butt" stroke-miterlimit="10" stroke-linejoin="miter" fill="none" stroke="#409f9f" d="M-7.32373-4.1188-4.01498-7.21991"/>
<path transform="matrix(1.00006,0,0,-1.00005,18.63926,72.26486)" stroke-width=".79701" stroke-linecap="butt" stroke-miterlimit="10" stroke-linejoin="miter" fill="none" stroke="#409f9f" d="M-7.2725 1.6035-4.06621-1.6035"/>
<path transform="matrix(1.00006,0,0,-1.00005,18.63926,72.26486)" stroke-width=".79701" stroke-linecap="butt" stroke-miterlimit="10" stroke-linejoin="miter" fill="none" stroke="#409f9f" d="M-7.32373 7.21991-4.01498 4.1188"/>
<path transform="matrix(1.00006,0,0,-1.00005,18.63926,72.26486)" stroke-width=".79701" stroke-linecap="butt" stroke-miterlimit="10" stroke-linejoin="miter" fill="none" stroke="#409f9f" d="M-7.4836 12.69934-3.85512 9.97816"/>
<path transform="matrix(1.00006,0,0,-1.00005,18.63926,72.26486)" stroke-width=".79701" stroke-linecap="butt" stroke-miterlimit="10" stroke-linejoin="miter" fill="none" stroke="#409f9f" d="M-7.74762 17.9168-3.5911 16.09947"/>
<path transform="matrix(1.00006,0,0,-1.00005,18.63926,72.26486)" stroke-width=".79701" stroke-linecap="butt" stroke-miterlimit="10" stroke-linejoin="miter" fill="none" stroke="#409f9f" d="M-7.93689 22.67752H-3.40182"/>
<path transform="matrix(1.00006,0,0,-1.00005,18.63926,72.26486)" stroke-width=".79701" stroke-linecap="butt" stroke-miterlimit="10" stroke-linejoin="miter" fill="none" stroke="#409f9f" d="M-7.64552 27.2358-3.69319 29.458"/>
<path transform="matrix(1.00006,0,0,-1.00005,18.63926,72.26486)" stroke-width=".79701" stroke-linecap="butt" stroke-miterlimit="10" stroke-linejoin="miter" fill="none" stroke="#409f9f" d="M-7.0853 32.24634-4.25342 35.78621"/>
<path transform="matrix(1.00006,0,0,-1.00005,18.63926,72.26486)" stroke-width=".79701" stroke-linecap="butt" stroke-miterlimit="10" stroke-linejoin="miter" fill="none" stroke="#409f9f" d="M-6.65866 37.64514-4.68005 41.7262"/>
<path transform="matrix(1.00006,0,0,-1.00005,18.63926,72.26486)" stroke-width=".79701" stroke-linecap="butt" stroke-miterlimit="10" stroke-linejoin="miter" fill="none" stroke="#409f9f" d="M-6.38666 43.20378-4.95206 47.50632"/>
<path transform="matrix(1.00006,0,0,-1.00005,18.63926,72.26486)" stroke-width=".79701" stroke-linecap="butt" stroke-miterlimit="10" stroke-linejoin="miter" fill="none" stroke="#409f9f" d="M-6.21121 48.82265-5.1275 53.22621"/>
<path transform="matrix(1.00006,0,0,-1.00005,18.63926,72.26486)" stroke-width=".79701" stroke-linecap="butt" stroke-miterlimit="10" stroke-linejoin="miter" fill="none" stroke="#409f9f" d="M-.54185-53.22621 .54185-48.82265"/>
<path transform="matrix(1.00006,0,0,-1.00005,18.63926,72.26486)" stroke-width=".79701" stroke-linecap="butt" stroke-miterlimit="10" stroke-linejoin="miter" fill="none" stroke="#409f9f" d="M-.7173-47.50632 .7173-43.20378"/>
<path transform="matrix(1.00006,0,0,-1.00005,18.63926,72.26486)" stroke-width=".79701" stroke-linecap="butt" stroke-miterlimit="10" stroke-linejoin="miter" fill="none" stroke="#409f9f" d="M-.98929-41.7262 .98929-37.64514"/>
<path transform="matrix(1.00006,0,0,-1.00005,18.63926,72.26486)" stroke-width=".79701" stroke-linecap="butt" stroke-miterlimit="10" stroke-linejoin="miter" fill="none" stroke="#409f9f" d="M-1.41594-35.78621 1.41594-32.24634"/>
<path transform="matrix(1.00006,0,0,-1.00005,18.63926,72.26486)" stroke-width=".79701" stroke-linecap="butt" stroke-miterlimit="10" stroke-linejoin="miter" fill="none" stroke="#409f9f" d="M-1.97617-29.458 1.97617-27.2358"/>
<path transform="matrix(1.00006,0,0,-1.00005,18.63926,72.26486)" stroke-width=".79701" stroke-linecap="butt" stroke-miterlimit="10" stroke-linejoin="miter" fill="none" stroke="#409f9f" d="M-2.26752-22.67752H2.26752"/>
<path transform="matrix(1.00006,0,0,-1.00005,18.63926,72.26486)" stroke-width=".79701" stroke-linecap="butt" stroke-miterlimit="10" stroke-linejoin="miter" fill="none" stroke="#409f9f" d="M-2.07826-16.09947 2.07826-17.9168"/>
<path transform="matrix(1.00006,0,0,-1.00005,18.63926,72.26486)" stroke-width=".79701" stroke-linecap="butt" stroke-miterlimit="10" stroke-linejoin="miter" fill="none" stroke="#409f9f" d="M-1.81422-9.97816 1.81422-12.69934"/>
<path transform="matrix(1.00006,0,0,-1.00005,18.63926,72.26486)" stroke-width=".79701" stroke-linecap="butt" stroke-miterlimit="10" stroke-linejoin="miter" fill="none" stroke="#409f9f" d="M-1.65436-4.1188 1.65436-7.21991"/>
<path transform="matrix(1.00006,0,0,-1.00005,18.63926,72.26486)" stroke-width=".79701" stroke-linecap="butt" stroke-miterlimit="10" stroke-linejoin="miter" fill="none" stroke="#409f9f" d="M-1.60315 1.6035 1.60315-1.6035"/>
<path transform="matrix(1.00006,0,0,-1.00005,18.63926,72.26486)" stroke-width=".79701" stroke-linecap="butt" stroke-miterlimit="10" stroke-linejoin="miter" fill="none" stroke="#409f9f" d="M-1.65436 7.21991 1.65436 4.1188"/>
<path transform="matrix(1.00006,0,0,-1.00005,18.63926,72.26486)" stroke-width=".79701" stroke-linecap="butt" stroke-miterlimit="10" stroke-linejoin="miter" fill="none" stroke="#409f9f" d="M-1.81422 12.69934 1.81422 9.97816"/>
<path transform="matrix(1.00006,0,0,-1.00005,18.63926,72.26486)" stroke-width=".79701" stroke-linecap="butt" stroke-miterlimit="10" stroke-linejoin="miter" fill="none" stroke="#409f9f" d="M-2.07826 17.9168 2.07826 16.09947"/>
<path transform="matrix(1.00006,0,0,-1.00005,18.63926,72.26486)" stroke-width=".79701" stroke-linecap="butt" stroke-miterlimit="10" stroke-linejoin="miter" fill="none" stroke="#409f9f" d="M-2.26752 22.67752H2.26752"/>
<path transform="matrix(1.00006,0,0,-1.00005,18.63926,72.26486)" stroke-width=".79701" stroke-linecap="butt" stroke-miterlimit="10" stroke-linejoin="miter" fill="none" stroke="#409f9f" d="M-1.97617 27.2358 1.97617 29.458"/>
<path transform="matrix(1.00006,0,0,-1.00005,18.63926,72.26486)" stroke-width=".79701" stroke-linecap="butt" stroke-miterlimit="10" stroke-linejoin="miter" fill="none" stroke="#409f9f" d="M-1.41594 32.24634 1.41594 35.78621"/>
<path transform="matrix(1.00006,0,0,-1.00005,18.63926,72.26486)" stroke-width=".79701" stroke-linecap="butt" stroke-miterlimit="10" stroke-linejoin="miter" fill="none" stroke="#409f9f" d="M-.98929 37.64514 .98929 41.7262"/>
<path transform="matrix(1.00006,0,0,-1.00005,18.63926,72.26486)" stroke-width=".79701" stroke-linecap="butt" stroke-miterlimit="10" stroke-linejoin="miter" fill="none" stroke="#409f9f" d="M-.7173 43.20378 .7173 47.50632"/>
<path transform="matrix(1.00006,0,0,-1.00005,18.63926,72.26486)" stroke-width=".79701" stroke-linecap="butt" stroke-miterlimit="10" stroke-linejoin="miter" fill="none" stroke="#409f9f" d="M-.54185 48.82265 .54185 53.22621"/>
<path transform="matrix(1.00006,0,0,-1.00005,18.63926,72.26486)" stroke-width=".79701" stroke-linecap="butt" stroke-miterlimit="10" stroke-linejoin="miter" fill="none" stroke="#409f9f" d="M5.1275-53.22621 6.21121-48.82265"/>
<path transform="matrix(1.00006,0,0,-1.00005,18.63926,72.26486)" stroke-width=".79701" stroke-linecap="butt" stroke-miterlimit="10" stroke-linejoin="miter" fill="none" stroke="#409f9f" d="M4.95206-47.50632 6.38666-43.20378"/>
<path transform="matrix(1.00006,0,0,-1.00005,18.63926,72.26486)" stroke-width=".79701" stroke-linecap="butt" stroke-miterlimit="10" stroke-linejoin="miter" fill="none" stroke="#409f9f" d="M4.68005-41.7262 6.65866-37.64514"/>
<path transform="matrix(1.00006,0,0,-1.00005,18.63926,72.26486)" stroke-width=".79701" stroke-linecap="butt" stroke-miterlimit="10" stroke-linejoin="miter" fill="none" stroke="#409f9f" d="M4.25342-35.78621 7.0853-32.24634"/>
<path transform="matrix(1.00006,0,0,-1.00005,18.63926,72.26486)" stroke-width=".79701" stroke-linecap="butt" stroke-miterlimit="10" stroke-linejoin="miter" fill="none" stroke="#409f9f" d="M3.69319-29.458 7.64552-27.2358"/>
<path transform="matrix(1.00006,0,0,-1.00005,18.63926,72.26486)" stroke-width=".79701" stroke-linecap="butt" stroke-miterlimit="10" stroke-linejoin="miter" fill="none" stroke="#409f9f" d="M3.40182-22.67752H7.93689"/>
<path transform="matrix(1.00006,0,0,-1.00005,18.63926,72.26486)" stroke-width=".79701" stroke-linecap="butt" stroke-miterlimit="10" stroke-linejoin="miter" fill="none" stroke="#409f9f" d="M3.5911-16.09947 7.74762-17.9168"/>
<path transform="matrix(1.00006,0,0,-1.00005,18.63926,72.26486)" stroke-width=".79701" stroke-linecap="butt" stroke-miterlimit="10" stroke-linejoin="miter" fill="none" stroke="#409f9f" d="M3.85512-9.97816 7.4836-12.69934"/>
<path transform="matrix(1.00006,0,0,-1.00005,18.63926,72.26486)" stroke-width=".79701" stroke-linecap="butt" stroke-miterlimit="10" stroke-linejoin="miter" fill="none" stroke="#409f9f" d="M4.01498-4.1188 7.32373-7.21991"/>
<path transform="matrix(1.00006,0,0,-1.00005,18.63926,72.26486)" stroke-width=".79701" stroke-linecap="butt" stroke-miterlimit="10" stroke-linejoin="miter" fill="none" stroke="#409f9f" d="M4.06621 1.6035 7.2725-1.6035"/>
<path transform="matrix(1.00006,0,0,-1.00005,18.63926,72.26486)" stroke-width=".79701" stroke-linecap="butt" stroke-miterlimit="10" stroke-linejoin="miter" fill="none" stroke="#409f9f" d="M4.01498 7.21991 7.32373 4.1188"/>
<path transform="matrix(1.00006,0,0,-1.00005,18.63926,72.26486)" stroke-width=".79701" stroke-linecap="butt" stroke-miterlimit="10" stroke-linejoin="miter" fill="none" stroke="#409f9f" d="M3.85512 12.69934 7.4836 9.97816"/>
<path transform="matrix(1.00006,0,0,-1.00005,18.63926,72.26486)" stroke-width=".79701" stroke-linecap="butt" stroke-miterlimit="10" stroke-linejoin="miter" fill="none" stroke="#409f9f" d="M3.5911 17.9168 7.74762 16.09947"/>
<path transform="matrix(1.00006,0,0,-1.00005,18.63926,72.26486)" stroke-width=".79701" stroke-linecap="butt" stroke-miterlimit="10" stroke-linejoin="miter" fill="none" stroke="#409f9f" d="M3.40182 22.67752H7.93689"/>
<path transform="matrix(1.00006,0,0,-1.00005,18.63926,72.26486)" stroke-width=".79701" stroke-linecap="butt" stroke-miterlimit="10" stroke-linejoin="miter" fill="none" stroke="#409f9f" d="M3.69319 27.2358 7.64552 29.458"/>
<path transform="matrix(1.00006,0,0,-1.00005,18.63926,72.26486)" stroke-width=".79701" stroke-linecap="butt" stroke-miterlimit="10" stroke-linejoin="miter" fill="none" stroke="#409f9f" d="M4.25342 32.24634 7.0853 35.78621"/>
<path transform="matrix(1.00006,0,0,-1.00005,18.63926,72.26486)" stroke-width=".79701" stroke-linecap="butt" stroke-miterlimit="10" stroke-linejoin="miter" fill="none" stroke="#409f9f" d="M4.68005 37.64514 6.65866 41.7262"/>
<path transform="matrix(1.00006,0,0,-1.00005,18.63926,72.26486)" stroke-width=".79701" stroke-linecap="butt" stroke-miterlimit="10" stroke-linejoin="miter" fill="none" stroke="#409f9f" d="M4.95206 43.20378 6.38666 47.50632"/>
<path transform="matrix(1.00006,0,0,-1.00005,18.63926,72.26486)" stroke-width=".79701" stroke-linecap="butt" stroke-miterlimit="10" stroke-linejoin="miter" fill="none" stroke="#409f9f" d="M5.1275 48.82265 6.21121 53.22621"/>
<path transform="matrix(1.00006,0,0,-1.00005,18.63926,72.26486)" stroke-width=".79701" stroke-linecap="butt" stroke-miterlimit="10" stroke-linejoin="miter" fill="none" stroke="#409f9f" d="M10.79689-53.22621 11.88062-48.82265"/>
<path transform="matrix(1.00006,0,0,-1.00005,18.63926,72.26486)" stroke-width=".79701" stroke-linecap="butt" stroke-miterlimit="10" stroke-linejoin="miter" fill="none" stroke="#409f9f" d="M10.62144-47.50632 12.05606-43.20378"/>
<path transform="matrix(1.00006,0,0,-1.00005,18.63926,72.26486)" stroke-width=".79701" stroke-linecap="butt" stroke-miterlimit="10" stroke-linejoin="miter" fill="none" stroke="#409f9f" d="M10.34946-41.7262 12.32805-37.64514"/>
<path transform="matrix(1.00006,0,0,-1.00005,18.63926,72.26486)" stroke-width=".79701" stroke-linecap="butt" stroke-miterlimit="10" stroke-linejoin="miter" fill="none" stroke="#409f9f" d="M9.9228-35.78621 12.7547-32.24634"/>
<path transform="matrix(1.00006,0,0,-1.00005,18.63926,72.26486)" stroke-width=".79701" stroke-linecap="butt" stroke-miterlimit="10" stroke-linejoin="miter" fill="none" stroke="#409f9f" d="M9.36258-29.458 13.31493-27.2358"/>
<path transform="matrix(1.00006,0,0,-1.00005,18.63926,72.26486)" stroke-width=".79701" stroke-linecap="butt" stroke-miterlimit="10" stroke-linejoin="miter" fill="none" stroke="#409f9f" d="M9.07123-22.67752H13.60628"/>
<path transform="matrix(1.00006,0,0,-1.00005,18.63926,72.26486)" stroke-width=".79701" stroke-linecap="butt" stroke-miterlimit="10" stroke-linejoin="miter" fill="none" stroke="#409f9f" d="M9.26048-16.09947 13.41702-17.9168"/>
<path transform="matrix(1.00006,0,0,-1.00005,18.63926,72.26486)" stroke-width=".79701" stroke-linecap="butt" stroke-miterlimit="10" stroke-linejoin="miter" fill="none" stroke="#409f9f" d="M9.52452-9.97816 13.15298-12.69934"/>
<path transform="matrix(1.00006,0,0,-1.00005,18.63926,72.26486)" stroke-width=".79701" stroke-linecap="butt" stroke-miterlimit="10" stroke-linejoin="miter" fill="none" stroke="#409f9f" d="M9.68439-4.1188 12.99312-7.21991"/>
<path transform="matrix(1.00006,0,0,-1.00005,18.63926,72.26486)" stroke-width=".79701" stroke-linecap="butt" stroke-miterlimit="10" stroke-linejoin="miter" fill="none" stroke="#409f9f" d="M9.7356 1.6035 12.94191-1.6035"/>
<path transform="matrix(1.00006,0,0,-1.00005,18.63926,72.26486)" stroke-width=".79701" stroke-linecap="butt" stroke-miterlimit="10" stroke-linejoin="miter" fill="none" stroke="#409f9f" d="M9.68439 7.21991 12.99312 4.1188"/>
<path transform="matrix(1.00006,0,0,-1.00005,18.63926,72.26486)" stroke-width=".79701" stroke-linecap="butt" stroke-miterlimit="10" stroke-linejoin="miter" fill="none" stroke="#409f9f" d="M9.52452 12.69934 13.15298 9.97816"/>
<path transform="matrix(1.00006,0,0,-1.00005,18.63926,72.26486)" stroke-width=".79701" stroke-linecap="butt" stroke-miterlimit="10" stroke-linejoin="miter" fill="none" stroke="#409f9f" d="M9.26048 17.9168 13.41702 16.09947"/>
<path transform="matrix(1.00006,0,0,-1.00005,18.63926,72.26486)" stroke-width=".79701" stroke-linecap="butt" stroke-miterlimit="10" stroke-linejoin="miter" fill="none" stroke="#409f9f" d="M9.07123 22.67752H13.60628"/>
<path transform="matrix(1.00006,0,0,-1.00005,18.63926,72.26486)" stroke-width=".79701" stroke-linecap="butt" stroke-miterlimit="10" stroke-linejoin="miter" fill="none" stroke="#409f9f" d="M9.36258 27.2358 13.31493 29.458"/>
<path transform="matrix(1.00006,0,0,-1.00005,18.63926,72.26486)" stroke-width=".79701" stroke-linecap="butt" stroke-miterlimit="10" stroke-linejoin="miter" fill="none" stroke="#409f9f" d="M9.9228 32.24634 12.7547 35.78621"/>
<path transform="matrix(1.00006,0,0,-1.00005,18.63926,72.26486)" stroke-width=".79701" stroke-linecap="butt" stroke-miterlimit="10" stroke-linejoin="miter" fill="none" stroke="#409f9f" d="M10.34946 37.64514 12.32805 41.7262"/>
<path transform="matrix(1.00006,0,0,-1.00005,18.63926,72.26486)" stroke-width=".79701" stroke-linecap="butt" stroke-miterlimit="10" stroke-linejoin="miter" fill="none" stroke="#409f9f" d="M10.62144 43.20378 12.05606 47.50632"/>
<path transform="matrix(1.00006,0,0,-1.00005,18.63926,72.26486)" stroke-width=".79701" stroke-linecap="butt" stroke-miterlimit="10" stroke-linejoin="miter" fill="none" stroke="#409f9f" d="M10.79689 48.82265 11.88062 53.22621"/>
<path transform="matrix(1.00006,0,0,-1.00005,18.63926,72.26486)" stroke-width=".79701" stroke-linecap="butt" stroke-miterlimit="10" stroke-linejoin="miter" fill="none" stroke="#409f9f" d="M16.46628-53.22621 17.54999-48.82265"/>
<path transform="matrix(1.00006,0,0,-1.00005,18.63926,72.26486)" stroke-width=".79701" stroke-linecap="butt" stroke-miterlimit="10" stroke-linejoin="miter" fill="none" stroke="#409f9f" d="M16.29083-47.50632 17.72543-43.20378"/>
<path transform="matrix(1.00006,0,0,-1.00005,18.63926,72.26486)" stroke-width=".79701" stroke-linecap="butt" stroke-miterlimit="10" stroke-linejoin="miter" fill="none" stroke="#409f9f" d="M16.01883-41.7262 17.99744-37.64514"/>
<path transform="matrix(1.00006,0,0,-1.00005,18.63926,72.26486)" stroke-width=".79701" stroke-linecap="butt" stroke-miterlimit="10" stroke-linejoin="miter" fill="none" stroke="#409f9f" d="M15.5922-35.78621 18.42407-32.24634"/>
<path transform="matrix(1.00006,0,0,-1.00005,18.63926,72.26486)" stroke-width=".79701" stroke-linecap="butt" stroke-miterlimit="10" stroke-linejoin="miter" fill="none" stroke="#409f9f" d="M15.03197-29.458 18.9843-27.2358"/>
<path transform="matrix(1.00006,0,0,-1.00005,18.63926,72.26486)" stroke-width=".79701" stroke-linecap="butt" stroke-miterlimit="10" stroke-linejoin="miter" fill="none" stroke="#409f9f" d="M14.7406-22.67752H19.27567"/>
<path transform="matrix(1.00006,0,0,-1.00005,18.63926,72.26486)" stroke-width=".79701" stroke-linecap="butt" stroke-miterlimit="10" stroke-linejoin="miter" fill="none" stroke="#409f9f" d="M14.92987-16.09947 19.0864-17.9168"/>
<path transform="matrix(1.00006,0,0,-1.00005,18.63926,72.26486)" stroke-width=".79701" stroke-linecap="butt" stroke-miterlimit="10" stroke-linejoin="miter" fill="none" stroke="#409f9f" d="M15.1939-9.97816 18.82237-12.69934"/>
<path transform="matrix(1.00006,0,0,-1.00005,18.63926,72.26486)" stroke-width=".79701" stroke-linecap="butt" stroke-miterlimit="10" stroke-linejoin="miter" fill="none" stroke="#409f9f" d="M15.35376-4.1188 18.6625-7.21991"/>
<path transform="matrix(1.00006,0,0,-1.00005,18.63926,72.26486)" stroke-width=".79701" stroke-linecap="butt" stroke-miterlimit="10" stroke-linejoin="miter" fill="none" stroke="#409f9f" d="M15.40498 1.6035 18.61128-1.6035"/>
<path transform="matrix(1.00006,0,0,-1.00005,18.63926,72.26486)" stroke-width=".79701" stroke-linecap="butt" stroke-miterlimit="10" stroke-linejoin="miter" fill="none" stroke="#409f9f" d="M15.35376 7.21991 18.6625 4.1188"/>
<path transform="matrix(1.00006,0,0,-1.00005,18.63926,72.26486)" stroke-width=".79701" stroke-linecap="butt" stroke-miterlimit="10" stroke-linejoin="miter" fill="none" stroke="#409f9f" d="M15.1939 12.69934 18.82237 9.97816"/>
<path transform="matrix(1.00006,0,0,-1.00005,18.63926,72.26486)" stroke-width=".79701" stroke-linecap="butt" stroke-miterlimit="10" stroke-linejoin="miter" fill="none" stroke="#409f9f" d="M14.92987 17.9168 19.0864 16.09947"/>
<path transform="matrix(1.00006,0,0,-1.00005,18.63926,72.26486)" stroke-width=".79701" stroke-linecap="butt" stroke-miterlimit="10" stroke-linejoin="miter" fill="none" stroke="#409f9f" d="M14.7406 22.67752H19.27567"/>
<path transform="matrix(1.00006,0,0,-1.00005,18.63926,72.26486)" stroke-width=".79701" stroke-linecap="butt" stroke-miterlimit="10" stroke-linejoin="miter" fill="none" stroke="#409f9f" d="M15.03197 27.2358 18.9843 29.458"/>
<path transform="matrix(1.00006,0,0,-1.00005,18.63926,72.26486)" stroke-width=".79701" stroke-linecap="butt" stroke-miterlimit="10" stroke-linejoin="miter" fill="none" stroke="#409f9f" d="M15.5922 32.24634 18.42407 35.78621"/>
<path transform="matrix(1.00006,0,0,-1.00005,18.63926,72.26486)" stroke-width=".79701" stroke-linecap="butt" stroke-miterlimit="10" stroke-linejoin="miter" fill="none" stroke="#409f9f" d="M16.01883 37.64514 17.99744 41.7262"/>
<path transform="matrix(1.00006,0,0,-1.00005,18.63926,72.26486)" stroke-width=".79701" stroke-linecap="butt" stroke-miterlimit="10" stroke-linejoin="miter" fill="none" stroke="#409f9f" d="M16.29083 43.20378 17.72543 47.50632"/>
<path transform="matrix(1.00006,0,0,-1.00005,18.63926,72.26486)" stroke-width=".79701" stroke-linecap="butt" stroke-miterlimit="10" stroke-linejoin="miter" fill="none" stroke="#409f9f" d="M16.46628 48.82265 17.54999 53.22621"/>
<path transform="matrix(1.00006,0,0,-1.00005,18.63926,72.26486)" stroke-width=".79701" stroke-linecap="butt" stroke-miterlimit="10" stroke-linejoin="miter" fill="none" stroke="#409f9f" d="M22.13565-53.22621 23.21938-48.82265"/>
<path transform="matrix(1.00006,0,0,-1.00005,18.63926,72.26486)" stroke-width=".79701" stroke-linecap="butt" stroke-miterlimit="10" stroke-linejoin="miter" fill="none" stroke="#409f9f" d="M21.9602-47.50632 23.39482-43.20378"/>
<path transform="matrix(1.00006,0,0,-1.00005,18.63926,72.26486)" stroke-width=".79701" stroke-linecap="butt" stroke-miterlimit="10" stroke-linejoin="miter" fill="none" stroke="#409f9f" d="M21.68822-41.7262 23.66681-37.64514"/>
<path transform="matrix(1.00006,0,0,-1.00005,18.63926,72.26486)" stroke-width=".79701" stroke-linecap="butt" stroke-miterlimit="10" stroke-linejoin="miter" fill="none" stroke="#409f9f" d="M21.26157-35.78621 24.09346-32.24634"/>
<path transform="matrix(1.00006,0,0,-1.00005,18.63926,72.26486)" stroke-width=".79701" stroke-linecap="butt" stroke-miterlimit="10" stroke-linejoin="miter" fill="none" stroke="#409f9f" d="M20.70134-29.458 24.65369-27.2358"/>
<path transform="matrix(1.00006,0,0,-1.00005,18.63926,72.26486)" stroke-width=".79701" stroke-linecap="butt" stroke-miterlimit="10" stroke-linejoin="miter" fill="none" stroke="#409f9f" d="M20.40999-22.67752H24.94504"/>
<path transform="matrix(1.00006,0,0,-1.00005,18.63926,72.26486)" stroke-width=".79701" stroke-linecap="butt" stroke-miterlimit="10" stroke-linejoin="miter" fill="none" stroke="#409f9f" d="M20.59924-16.09947 24.75578-17.9168"/>
<path transform="matrix(1.00006,0,0,-1.00005,18.63926,72.26486)" stroke-width=".79701" stroke-linecap="butt" stroke-miterlimit="10" stroke-linejoin="miter" fill="none" stroke="#409f9f" d="M20.86328-9.97816 24.49174-12.69934"/>
<path transform="matrix(1.00006,0,0,-1.00005,18.63926,72.26486)" stroke-width=".79701" stroke-linecap="butt" stroke-miterlimit="10" stroke-linejoin="miter" fill="none" stroke="#409f9f" d="M21.02315-4.1188 24.33188-7.21991"/>
<path transform="matrix(1.00006,0,0,-1.00005,18.63926,72.26486)" stroke-width=".79701" stroke-linecap="butt" stroke-miterlimit="10" stroke-linejoin="miter" fill="none" stroke="#409f9f" d="M21.07436 1.6035 24.28067-1.6035"/>
<path transform="matrix(1.00006,0,0,-1.00005,18.63926,72.26486)" stroke-width=".79701" stroke-linecap="butt" stroke-miterlimit="10" stroke-linejoin="miter" fill="none" stroke="#409f9f" d="M21.02315 7.21991 24.33188 4.1188"/>
<path transform="matrix(1.00006,0,0,-1.00005,18.63926,72.26486)" stroke-width=".79701" stroke-linecap="butt" stroke-miterlimit="10" stroke-linejoin="miter" fill="none" stroke="#409f9f" d="M20.86328 12.69934 24.49174 9.97816"/>
<path transform="matrix(1.00006,0,0,-1.00005,18.63926,72.26486)" stroke-width=".79701" stroke-linecap="butt" stroke-miterlimit="10" stroke-linejoin="miter" fill="none" stroke="#409f9f" d="M20.59924 17.9168 24.75578 16.09947"/>
<path transform="matrix(1.00006,0,0,-1.00005,18.63926,72.26486)" stroke-width=".79701" stroke-linecap="butt" stroke-miterlimit="10" stroke-linejoin="miter" fill="none" stroke="#409f9f" d="M20.40999 22.67752H24.94504"/>
<path transform="matrix(1.00006,0,0,-1.00005,18.63926,72.26486)" stroke-width=".79701" stroke-linecap="butt" stroke-miterlimit="10" stroke-linejoin="miter" fill="none" stroke="#409f9f" d="M20.70134 27.2358 24.65369 29.458"/>
<path transform="matrix(1.00006,0,0,-1.00005,18.63926,72.26486)" stroke-width=".79701" stroke-linecap="butt" stroke-miterlimit="10" stroke-linejoin="miter" fill="none" stroke="#409f9f" d="M21.26157 32.24634 24.09346 35.78621"/>
<path transform="matrix(1.00006,0,0,-1.00005,18.63926,72.26486)" stroke-width=".79701" stroke-linecap="butt" stroke-miterlimit="10" stroke-linejoin="miter" fill="none" stroke="#409f9f" d="M21.68822 37.64514 23.66681 41.7262"/>
<path transform="matrix(1.00006,0,0,-1.00005,18.63926,72.26486)" stroke-width=".79701" stroke-linecap="butt" stroke-miterlimit="10" stroke-linejoin="miter" fill="none" stroke="#409f9f" d="M21.9602 43.20378 23.39482 47.50632"/>
<path transform="matrix(1.00006,0,0,-1.00005,18.63926,72.26486)" stroke-width=".79701" stroke-linecap="butt" stroke-miterlimit="10" stroke-linejoin="miter" fill="none" stroke="#409f9f" d="M22.13565 48.82265 23.21938 53.22621"/>
<path transform="matrix(1.00006,0,0,-1.00005,18.63926,72.26486)" stroke-width=".79701" stroke-linecap="butt" stroke-miterlimit="10" stroke-linejoin="miter" fill="none" stroke="#409f9f" d="M27.80504-53.22621 28.88875-48.82265"/>
<path transform="matrix(1.00006,0,0,-1.00005,18.63926,72.26486)" stroke-width=".79701" stroke-linecap="butt" stroke-miterlimit="10" stroke-linejoin="miter" fill="none" stroke="#409f9f" d="M27.6296-47.50632 29.0642-43.20378"/>
<path transform="matrix(1.00006,0,0,-1.00005,18.63926,72.26486)" stroke-width=".79701" stroke-linecap="butt" stroke-miterlimit="10" stroke-linejoin="miter" fill="none" stroke="#409f9f" d="M27.35759-41.7262 29.3362-37.64514"/>
<path transform="matrix(1.00006,0,0,-1.00005,18.63926,72.26486)" stroke-width=".79701" stroke-linecap="butt" stroke-miterlimit="10" stroke-linejoin="miter" fill="none" stroke="#409f9f" d="M26.93095-35.78621 29.76283-32.24634"/>
<path transform="matrix(1.00006,0,0,-1.00005,18.63926,72.26486)" stroke-width=".79701" stroke-linecap="butt" stroke-miterlimit="10" stroke-linejoin="miter" fill="none" stroke="#409f9f" d="M26.37073-29.458 30.32306-27.2358"/>
<path transform="matrix(1.00006,0,0,-1.00005,18.63926,72.26486)" stroke-width=".79701" stroke-linecap="butt" stroke-miterlimit="10" stroke-linejoin="miter" fill="none" stroke="#409f9f" d="M26.07936-22.67752H30.61443"/>
<path transform="matrix(1.00006,0,0,-1.00005,18.63926,72.26486)" stroke-width=".79701" stroke-linecap="butt" stroke-miterlimit="10" stroke-linejoin="miter" fill="none" stroke="#409f9f" d="M26.26863-16.09947 30.42516-17.9168"/>
<path transform="matrix(1.00006,0,0,-1.00005,18.63926,72.26486)" stroke-width=".79701" stroke-linecap="butt" stroke-miterlimit="10" stroke-linejoin="miter" fill="none" stroke="#409f9f" d="M26.53265-9.97816 30.16113-12.69934"/>
<path transform="matrix(1.00006,0,0,-1.00005,18.63926,72.26486)" stroke-width=".79701" stroke-linecap="butt" stroke-miterlimit="10" stroke-linejoin="miter" fill="none" stroke="#409f9f" d="M26.69252-4.1188 30.00127-7.21991"/>
<path transform="matrix(1.00006,0,0,-1.00005,18.63926,72.26486)" stroke-width=".79701" stroke-linecap="butt" stroke-miterlimit="10" stroke-linejoin="miter" fill="none" stroke="#409f9f" d="M26.74374 1.6035 29.95004-1.6035"/>
<path transform="matrix(1.00006,0,0,-1.00005,18.63926,72.26486)" stroke-width=".79701" stroke-linecap="butt" stroke-miterlimit="10" stroke-linejoin="miter" fill="none" stroke="#409f9f" d="M26.69252 7.21991 30.00127 4.1188"/>
<path transform="matrix(1.00006,0,0,-1.00005,18.63926,72.26486)" stroke-width=".79701" stroke-linecap="butt" stroke-miterlimit="10" stroke-linejoin="miter" fill="none" stroke="#409f9f" d="M26.53265 12.69934 30.16113 9.97816"/>
<path transform="matrix(1.00006,0,0,-1.00005,18.63926,72.26486)" stroke-width=".79701" stroke-linecap="butt" stroke-miterlimit="10" stroke-linejoin="miter" fill="none" stroke="#409f9f" d="M26.26863 17.9168 30.42516 16.09947"/>
<path transform="matrix(1.00006,0,0,-1.00005,18.63926,72.26486)" stroke-width=".79701" stroke-linecap="butt" stroke-miterlimit="10" stroke-linejoin="miter" fill="none" stroke="#409f9f" d="M26.07936 22.67752H30.61443"/>
<path transform="matrix(1.00006,0,0,-1.00005,18.63926,72.26486)" stroke-width=".79701" stroke-linecap="butt" stroke-miterlimit="10" stroke-linejoin="miter" fill="none" stroke="#409f9f" d="M26.37073 27.2358 30.32306 29.458"/>
<path transform="matrix(1.00006,0,0,-1.00005,18.63926,72.26486)" stroke-width=".79701" stroke-linecap="butt" stroke-miterlimit="10" stroke-linejoin="miter" fill="none" stroke="#409f9f" d="M26.93095 32.24634 29.76283 35.78621"/>
<path transform="matrix(1.00006,0,0,-1.00005,18.63926,72.26486)" stroke-width=".79701" stroke-linecap="butt" stroke-miterlimit="10" stroke-linejoin="miter" fill="none" stroke="#409f9f" d="M27.35759 37.64514 29.3362 41.7262"/>
<path transform="matrix(1.00006,0,0,-1.00005,18.63926,72.26486)" stroke-width=".79701" stroke-linecap="butt" stroke-miterlimit="10" stroke-linejoin="miter" fill="none" stroke="#409f9f" d="M27.6296 43.20378 29.0642 47.50632"/>
<path transform="matrix(1.00006,0,0,-1.00005,18.63926,72.26486)" stroke-width=".79701" stroke-linecap="butt" stroke-miterlimit="10" stroke-linejoin="miter" fill="none" stroke="#409f9f" d="M27.80504 48.82265 28.88875 53.22621"/>
<path transform="matrix(1.00006,0,0,-1.00005,18.63926,72.26486)" stroke-width=".79701" stroke-linecap="butt" stroke-miterlimit="10" stroke-linejoin="miter" fill="none" stroke="#409f9f" d="M33.47441-53.22621 34.55814-48.82265"/>
<path transform="matrix(1.00006,0,0,-1.00005,18.63926,72.26486)" stroke-width=".79701" stroke-linecap="butt" stroke-miterlimit="10" stroke-linejoin="miter" fill="none" stroke="#409f9f" d="M33.29897-47.50632 34.73358-43.20378"/>
<path transform="matrix(1.00006,0,0,-1.00005,18.63926,72.26486)" stroke-width=".79701" stroke-linecap="butt" stroke-miterlimit="10" stroke-linejoin="miter" fill="none" stroke="#409f9f" d="M33.02698-41.7262 35.00557-37.64514"/>
<path transform="matrix(1.00006,0,0,-1.00005,18.63926,72.26486)" stroke-width=".79701" stroke-linecap="butt" stroke-miterlimit="10" stroke-linejoin="miter" fill="none" stroke="#409f9f" d="M32.60033-35.78621 35.43222-32.24634"/>
<path transform="matrix(1.00006,0,0,-1.00005,18.63926,72.26486)" stroke-width=".79701" stroke-linecap="butt" stroke-miterlimit="10" stroke-linejoin="miter" fill="none" stroke="#409f9f" d="M32.0401-29.458 35.99245-27.2358"/>
<path transform="matrix(1.00006,0,0,-1.00005,18.63926,72.26486)" stroke-width=".79701" stroke-linecap="butt" stroke-miterlimit="10" stroke-linejoin="miter" fill="none" stroke="#409f9f" d="M31.74875-22.67752H36.2838"/>
<path transform="matrix(1.00006,0,0,-1.00005,18.63926,72.26486)" stroke-width=".79701" stroke-linecap="butt" stroke-miterlimit="10" stroke-linejoin="miter" fill="none" stroke="#409f9f" d="M31.93802-16.09947 36.09454-17.9168"/>
<path transform="matrix(1.00006,0,0,-1.00005,18.63926,72.26486)" stroke-width=".79701" stroke-linecap="butt" stroke-miterlimit="10" stroke-linejoin="miter" fill="none" stroke="#409f9f" d="M32.20204-9.97816 35.8305-12.69934"/>
<path transform="matrix(1.00006,0,0,-1.00005,18.63926,72.26486)" stroke-width=".79701" stroke-linecap="butt" stroke-miterlimit="10" stroke-linejoin="miter" fill="none" stroke="#409f9f" d="M32.36191-4.1188 35.67064-7.21991"/>
<path transform="matrix(1.00006,0,0,-1.00005,18.63926,72.26486)" stroke-width=".79701" stroke-linecap="butt" stroke-miterlimit="10" stroke-linejoin="miter" fill="none" stroke="#409f9f" d="M32.41312 1.6035 35.61943-1.6035"/>
<path transform="matrix(1.00006,0,0,-1.00005,18.63926,72.26486)" stroke-width=".79701" stroke-linecap="butt" stroke-miterlimit="10" stroke-linejoin="miter" fill="none" stroke="#409f9f" d="M32.36191 7.21991 35.67064 4.1188"/>
<path transform="matrix(1.00006,0,0,-1.00005,18.63926,72.26486)" stroke-width=".79701" stroke-linecap="butt" stroke-miterlimit="10" stroke-linejoin="miter" fill="none" stroke="#409f9f" d="M32.20204 12.69934 35.8305 9.97816"/>
<path transform="matrix(1.00006,0,0,-1.00005,18.63926,72.26486)" stroke-width=".79701" stroke-linecap="butt" stroke-miterlimit="10" stroke-linejoin="miter" fill="none" stroke="#409f9f" d="M31.93802 17.9168 36.09454 16.09947"/>
<path transform="matrix(1.00006,0,0,-1.00005,18.63926,72.26486)" stroke-width=".79701" stroke-linecap="butt" stroke-miterlimit="10" stroke-linejoin="miter" fill="none" stroke="#409f9f" d="M31.74875 22.67752H36.2838"/>
<path transform="matrix(1.00006,0,0,-1.00005,18.63926,72.26486)" stroke-width=".79701" stroke-linecap="butt" stroke-miterlimit="10" stroke-linejoin="miter" fill="none" stroke="#409f9f" d="M32.0401 27.2358 35.99245 29.458"/>
<path transform="matrix(1.00006,0,0,-1.00005,18.63926,72.26486)" stroke-width=".79701" stroke-linecap="butt" stroke-miterlimit="10" stroke-linejoin="miter" fill="none" stroke="#409f9f" d="M32.60033 32.24634 35.43222 35.78621"/>
<path transform="matrix(1.00006,0,0,-1.00005,18.63926,72.26486)" stroke-width=".79701" stroke-linecap="butt" stroke-miterlimit="10" stroke-linejoin="miter" fill="none" stroke="#409f9f" d="M33.02698 37.64514 35.00557 41.7262"/>
<path transform="matrix(1.00006,0,0,-1.00005,18.63926,72.26486)" stroke-width=".79701" stroke-linecap="butt" stroke-miterlimit="10" stroke-linejoin="miter" fill="none" stroke="#409f9f" d="M33.29897 43.20378 34.73358 47.50632"/>
<path transform="matrix(1.00006,0,0,-1.00005,18.63926,72.26486)" stroke-width=".79701" stroke-linecap="butt" stroke-miterlimit="10" stroke-linejoin="miter" fill="none" stroke="#409f9f" d="M33.47441 48.82265 34.55814 53.22621"/>
<path transform="matrix(1.00006,0,0,-1.00005,18.63926,72.26486)" stroke-width=".79701" stroke-linecap="butt" stroke-miterlimit="10" stroke-linejoin="miter" fill="none" stroke="#409f9f" d="M39.14381-53.22621 40.22752-48.82265"/>
<path transform="matrix(1.00006,0,0,-1.00005,18.63926,72.26486)" stroke-width=".79701" stroke-linecap="butt" stroke-miterlimit="10" stroke-linejoin="miter" fill="none" stroke="#409f9f" d="M38.96837-47.50632 40.40297-43.20378"/>
<path transform="matrix(1.00006,0,0,-1.00005,18.63926,72.26486)" stroke-width=".79701" stroke-linecap="butt" stroke-miterlimit="10" stroke-linejoin="miter" fill="none" stroke="#409f9f" d="M38.69637-41.7262 40.67497-37.64514"/>
<path transform="matrix(1.00006,0,0,-1.00005,18.63926,72.26486)" stroke-width=".79701" stroke-linecap="butt" stroke-miterlimit="10" stroke-linejoin="miter" fill="none" stroke="#409f9f" d="M38.26973-35.78621 41.10161-32.24634"/>
<path transform="matrix(1.00006,0,0,-1.00005,18.63926,72.26486)" stroke-width=".79701" stroke-linecap="butt" stroke-miterlimit="10" stroke-linejoin="miter" fill="none" stroke="#409f9f" d="M37.7095-29.458 41.66183-27.2358"/>
<path transform="matrix(1.00006,0,0,-1.00005,18.63926,72.26486)" stroke-width=".79701" stroke-linecap="butt" stroke-miterlimit="10" stroke-linejoin="miter" fill="none" stroke="#409f9f" d="M37.41814-22.67752H41.9532"/>
<path transform="matrix(1.00006,0,0,-1.00005,18.63926,72.26486)" stroke-width=".79701" stroke-linecap="butt" stroke-miterlimit="10" stroke-linejoin="miter" fill="none" stroke="#409f9f" d="M37.6074-16.09947 41.76393-17.9168"/>
<path transform="matrix(1.00006,0,0,-1.00005,18.63926,72.26486)" stroke-width=".79701" stroke-linecap="butt" stroke-miterlimit="10" stroke-linejoin="miter" fill="none" stroke="#409f9f" d="M37.87143-9.97816 41.49991-12.69934"/>
<path transform="matrix(1.00006,0,0,-1.00005,18.63926,72.26486)" stroke-width=".79701" stroke-linecap="butt" stroke-miterlimit="10" stroke-linejoin="miter" fill="none" stroke="#409f9f" d="M38.0313-4.1188 41.34004-7.21991"/>
<path transform="matrix(1.00006,0,0,-1.00005,18.63926,72.26486)" stroke-width=".79701" stroke-linecap="butt" stroke-miterlimit="10" stroke-linejoin="miter" fill="none" stroke="#409f9f" d="M38.08252 1.6035 41.28882-1.6035"/>
<path transform="matrix(1.00006,0,0,-1.00005,18.63926,72.26486)" stroke-width=".79701" stroke-linecap="butt" stroke-miterlimit="10" stroke-linejoin="miter" fill="none" stroke="#409f9f" d="M38.0313 7.21991 41.34004 4.1188"/>
<path transform="matrix(1.00006,0,0,-1.00005,18.63926,72.26486)" stroke-width=".79701" stroke-linecap="butt" stroke-miterlimit="10" stroke-linejoin="miter" fill="none" stroke="#409f9f" d="M37.87143 12.69934 41.49991 9.97816"/>
<path transform="matrix(1.00006,0,0,-1.00005,18.63926,72.26486)" stroke-width=".79701" stroke-linecap="butt" stroke-miterlimit="10" stroke-linejoin="miter" fill="none" stroke="#409f9f" d="M37.6074 17.9168 41.76393 16.09947"/>
<path transform="matrix(1.00006,0,0,-1.00005,18.63926,72.26486)" stroke-width=".79701" stroke-linecap="butt" stroke-miterlimit="10" stroke-linejoin="miter" fill="none" stroke="#409f9f" d="M37.41814 22.67752H41.9532"/>
<path transform="matrix(1.00006,0,0,-1.00005,18.63926,72.26486)" stroke-width=".79701" stroke-linecap="butt" stroke-miterlimit="10" stroke-linejoin="miter" fill="none" stroke="#409f9f" d="M37.7095 27.2358 41.66183 29.458"/>
<path transform="matrix(1.00006,0,0,-1.00005,18.63926,72.26486)" stroke-width=".79701" stroke-linecap="butt" stroke-miterlimit="10" stroke-linejoin="miter" fill="none" stroke="#409f9f" d="M38.26973 32.24634 41.10161 35.78621"/>
<path transform="matrix(1.00006,0,0,-1.00005,18.63926,72.26486)" stroke-width=".79701" stroke-linecap="butt" stroke-miterlimit="10" stroke-linejoin="miter" fill="none" stroke="#409f9f" d="M38.69637 37.64514 40.67497 41.7262"/>
<path transform="matrix(1.00006,0,0,-1.00005,18.63926,72.26486)" stroke-width=".79701" stroke-linecap="butt" stroke-miterlimit="10" stroke-linejoin="miter" fill="none" stroke="#409f9f" d="M38.96837 43.20378 40.40297 47.50632"/>
<path transform="matrix(1.00006,0,0,-1.00005,18.63926,72.26486)" stroke-width=".79701" stroke-linecap="butt" stroke-miterlimit="10" stroke-linejoin="miter" fill="none" stroke="#409f9f" d="M39.14381 48.82265 40.22752 53.22621"/>
<path transform="matrix(1.00006,0,0,-1.00005,18.63926,72.26486)" stroke-width=".79701" stroke-linecap="butt" stroke-miterlimit="10" stroke-linejoin="miter" fill="none" stroke="#409f9f" d="M44.81319-53.22621 45.89691-48.82265"/>
<path transform="matrix(1.00006,0,0,-1.00005,18.63926,72.26486)" stroke-width=".79701" stroke-linecap="butt" stroke-miterlimit="10" stroke-linejoin="miter" fill="none" stroke="#409f9f" d="M44.63774-47.50632 46.07236-43.20378"/>
<path transform="matrix(1.00006,0,0,-1.00005,18.63926,72.26486)" stroke-width=".79701" stroke-linecap="butt" stroke-miterlimit="10" stroke-linejoin="miter" fill="none" stroke="#409f9f" d="M44.36575-41.7262 46.34435-37.64514"/>
<path transform="matrix(1.00006,0,0,-1.00005,18.63926,72.26486)" stroke-width=".79701" stroke-linecap="butt" stroke-miterlimit="10" stroke-linejoin="miter" fill="none" stroke="#409f9f" d="M43.9391-35.78621 46.771-32.24634"/>
<path transform="matrix(1.00006,0,0,-1.00005,18.63926,72.26486)" stroke-width=".79701" stroke-linecap="butt" stroke-miterlimit="10" stroke-linejoin="miter" fill="none" stroke="#409f9f" d="M43.37888-29.458 47.33122-27.2358"/>
<path transform="matrix(1.00006,0,0,-1.00005,18.63926,72.26486)" stroke-width=".79701" stroke-linecap="butt" stroke-miterlimit="10" stroke-linejoin="miter" fill="none" stroke="#409f9f" d="M43.08752-22.67752H47.62257"/>
<path transform="matrix(1.00006,0,0,-1.00005,18.63926,72.26486)" stroke-width=".79701" stroke-linecap="butt" stroke-miterlimit="10" stroke-linejoin="miter" fill="none" stroke="#409f9f" d="M43.2768-16.09947 47.43332-17.9168"/>
<path transform="matrix(1.00006,0,0,-1.00005,18.63926,72.26486)" stroke-width=".79701" stroke-linecap="butt" stroke-miterlimit="10" stroke-linejoin="miter" fill="none" stroke="#409f9f" d="M43.54082-9.97816 47.16928-12.69934"/>
<path transform="matrix(1.00006,0,0,-1.00005,18.63926,72.26486)" stroke-width=".79701" stroke-linecap="butt" stroke-miterlimit="10" stroke-linejoin="miter" fill="none" stroke="#409f9f" d="M43.70068-4.1188 47.00941-7.21991"/>
<path transform="matrix(1.00006,0,0,-1.00005,18.63926,72.26486)" stroke-width=".79701" stroke-linecap="butt" stroke-miterlimit="10" stroke-linejoin="miter" fill="none" stroke="#409f9f" d="M43.75189 1.6035 46.9582-1.6035"/>
<path transform="matrix(1.00006,0,0,-1.00005,18.63926,72.26486)" stroke-width=".79701" stroke-linecap="butt" stroke-miterlimit="10" stroke-linejoin="miter" fill="none" stroke="#409f9f" d="M43.70068 7.21991 47.00941 4.1188"/>
<path transform="matrix(1.00006,0,0,-1.00005,18.63926,72.26486)" stroke-width=".79701" stroke-linecap="butt" stroke-miterlimit="10" stroke-linejoin="miter" fill="none" stroke="#409f9f" d="M43.54082 12.69934 47.16928 9.97816"/>
<path transform="matrix(1.00006,0,0,-1.00005,18.63926,72.26486)" stroke-width=".79701" stroke-linecap="butt" stroke-miterlimit="10" stroke-linejoin="miter" fill="none" stroke="#409f9f" d="M43.2768 17.9168 47.43332 16.09947"/>
<path transform="matrix(1.00006,0,0,-1.00005,18.63926,72.26486)" stroke-width=".79701" stroke-linecap="butt" stroke-miterlimit="10" stroke-linejoin="miter" fill="none" stroke="#409f9f" d="M43.08752 22.67752H47.62257"/>
<path transform="matrix(1.00006,0,0,-1.00005,18.63926,72.26486)" stroke-width=".79701" stroke-linecap="butt" stroke-miterlimit="10" stroke-linejoin="miter" fill="none" stroke="#409f9f" d="M43.37888 27.2358 47.33122 29.458"/>
<path transform="matrix(1.00006,0,0,-1.00005,18.63926,72.26486)" stroke-width=".79701" stroke-linecap="butt" stroke-miterlimit="10" stroke-linejoin="miter" fill="none" stroke="#409f9f" d="M43.9391 32.24634 46.771 35.78621"/>
<path transform="matrix(1.00006,0,0,-1.00005,18.63926,72.26486)" stroke-width=".79701" stroke-linecap="butt" stroke-miterlimit="10" stroke-linejoin="miter" fill="none" stroke="#409f9f" d="M44.36575 37.64514 46.34435 41.7262"/>
<path transform="matrix(1.00006,0,0,-1.00005,18.63926,72.26486)" stroke-width=".79701" stroke-linecap="butt" stroke-miterlimit="10" stroke-linejoin="miter" fill="none" stroke="#409f9f" d="M44.63774 43.20378 46.07236 47.50632"/>
<path transform="matrix(1.00006,0,0,-1.00005,18.63926,72.26486)" stroke-width=".79701" stroke-linecap="butt" stroke-miterlimit="10" stroke-linejoin="miter" fill="none" stroke="#409f9f" d="M44.81319 48.82265 45.89691 53.22621"/>
<path transform="matrix(1.00006,0,0,-1.00005,18.63926,72.26486)" stroke-width=".79701" stroke-linecap="butt" stroke-miterlimit="10" stroke-linejoin="miter" fill="none" stroke="#409f9f" d="M50.48257-53.22621 51.56628-48.82265"/>
<path transform="matrix(1.00006,0,0,-1.00005,18.63926,72.26486)" stroke-width=".79701" stroke-linecap="butt" stroke-miterlimit="10" stroke-linejoin="miter" fill="none" stroke="#409f9f" d="M50.30713-47.50632 51.74173-43.20378"/>
<path transform="matrix(1.00006,0,0,-1.00005,18.63926,72.26486)" stroke-width=".79701" stroke-linecap="butt" stroke-miterlimit="10" stroke-linejoin="miter" fill="none" stroke="#409f9f" d="M50.03513-41.7262 52.01373-37.64514"/>
<path transform="matrix(1.00006,0,0,-1.00005,18.63926,72.26486)" stroke-width=".79701" stroke-linecap="butt" stroke-miterlimit="10" stroke-linejoin="miter" fill="none" stroke="#409f9f" d="M49.60849-35.78621 52.44037-32.24634"/>
<path transform="matrix(1.00006,0,0,-1.00005,18.63926,72.26486)" stroke-width=".79701" stroke-linecap="butt" stroke-miterlimit="10" stroke-linejoin="miter" fill="none" stroke="#409f9f" d="M49.04826-29.458 53.0006-27.2358"/>
<path transform="matrix(1.00006,0,0,-1.00005,18.63926,72.26486)" stroke-width=".79701" stroke-linecap="butt" stroke-miterlimit="10" stroke-linejoin="miter" fill="none" stroke="#409f9f" d="M48.7569-22.67752H53.29196"/>
<path transform="matrix(1.00006,0,0,-1.00005,18.63926,72.26486)" stroke-width=".79701" stroke-linecap="butt" stroke-miterlimit="10" stroke-linejoin="miter" fill="none" stroke="#409f9f" d="M48.94617-16.09947 53.10269-17.9168"/>
<path transform="matrix(1.00006,0,0,-1.00005,18.63926,72.26486)" stroke-width=".79701" stroke-linecap="butt" stroke-miterlimit="10" stroke-linejoin="miter" fill="none" stroke="#409f9f" d="M49.21019-9.97816 52.83867-12.69934"/>
<path transform="matrix(1.00006,0,0,-1.00005,18.63926,72.26486)" stroke-width=".79701" stroke-linecap="butt" stroke-miterlimit="10" stroke-linejoin="miter" fill="none" stroke="#409f9f" d="M49.37006-4.1188 52.6788-7.21991"/>
<path transform="matrix(1.00006,0,0,-1.00005,18.63926,72.26486)" stroke-width=".79701" stroke-linecap="butt" stroke-miterlimit="10" stroke-linejoin="miter" fill="none" stroke="#409f9f" d="M49.42128 1.6035 52.62758-1.6035"/>
<path transform="matrix(1.00006,0,0,-1.00005,18.63926,72.26486)" stroke-width=".79701" stroke-linecap="butt" stroke-miterlimit="10" stroke-linejoin="miter" fill="none" stroke="#409f9f" d="M49.37006 7.21991 52.6788 4.1188"/>
<path transform="matrix(1.00006,0,0,-1.00005,18.63926,72.26486)" stroke-width=".79701" stroke-linecap="butt" stroke-miterlimit="10" stroke-linejoin="miter" fill="none" stroke="#409f9f" d="M49.21019 12.69934 52.83867 9.97816"/>
<path transform="matrix(1.00006,0,0,-1.00005,18.63926,72.26486)" stroke-width=".79701" stroke-linecap="butt" stroke-miterlimit="10" stroke-linejoin="miter" fill="none" stroke="#409f9f" d="M48.94617 17.9168 53.10269 16.09947"/>
<path transform="matrix(1.00006,0,0,-1.00005,18.63926,72.26486)" stroke-width=".79701" stroke-linecap="butt" stroke-miterlimit="10" stroke-linejoin="miter" fill="none" stroke="#409f9f" d="M48.7569 22.67752H53.29196"/>
<path transform="matrix(1.00006,0,0,-1.00005,18.63926,72.26486)" stroke-width=".79701" stroke-linecap="butt" stroke-miterlimit="10" stroke-linejoin="miter" fill="none" stroke="#409f9f" d="M49.04826 27.2358 53.0006 29.458"/>
<path transform="matrix(1.00006,0,0,-1.00005,18.63926,72.26486)" stroke-width=".79701" stroke-linecap="butt" stroke-miterlimit="10" stroke-linejoin="miter" fill="none" stroke="#409f9f" d="M49.60849 32.24634 52.44037 35.78621"/>
<path transform="matrix(1.00006,0,0,-1.00005,18.63926,72.26486)" stroke-width=".79701" stroke-linecap="butt" stroke-miterlimit="10" stroke-linejoin="miter" fill="none" stroke="#409f9f" d="M50.03513 37.64514 52.01373 41.7262"/>
<path transform="matrix(1.00006,0,0,-1.00005,18.63926,72.26486)" stroke-width=".79701" stroke-linecap="butt" stroke-miterlimit="10" stroke-linejoin="miter" fill="none" stroke="#409f9f" d="M50.30713 43.20378 51.74173 47.50632"/>
<path transform="matrix(1.00006,0,0,-1.00005,18.63926,72.26486)" stroke-width=".79701" stroke-linecap="butt" stroke-miterlimit="10" stroke-linejoin="miter" fill="none" stroke="#409f9f" d="M50.48257 48.82265 51.56628 53.22621"/>
<path transform="matrix(1.00006,0,0,-1.00005,18.63926,72.26486)" stroke-width=".79701" stroke-linecap="butt" stroke-miterlimit="10" stroke-linejoin="miter" fill="none" stroke="#409f9f" d="M56.15195-53.22621 57.23567-48.82265"/>
<path transform="matrix(1.00006,0,0,-1.00005,18.63926,72.26486)" stroke-width=".79701" stroke-linecap="butt" stroke-miterlimit="10" stroke-linejoin="miter" fill="none" stroke="#409f9f" d="M55.9765-47.50632 57.41112-43.20378"/>
<path transform="matrix(1.00006,0,0,-1.00005,18.63926,72.26486)" stroke-width=".79701" stroke-linecap="butt" stroke-miterlimit="10" stroke-linejoin="miter" fill="none" stroke="#409f9f" d="M55.70451-41.7262 57.6831-37.64514"/>
<path transform="matrix(1.00006,0,0,-1.00005,18.63926,72.26486)" stroke-width=".79701" stroke-linecap="butt" stroke-miterlimit="10" stroke-linejoin="miter" fill="none" stroke="#409f9f" d="M55.27786-35.78621 58.10976-32.24634"/>
<path transform="matrix(1.00006,0,0,-1.00005,18.63926,72.26486)" stroke-width=".79701" stroke-linecap="butt" stroke-miterlimit="10" stroke-linejoin="miter" fill="none" stroke="#409f9f" d="M54.71764-29.458 58.66998-27.2358"/>
<path transform="matrix(1.00006,0,0,-1.00005,18.63926,72.26486)" stroke-width=".79701" stroke-linecap="butt" stroke-miterlimit="10" stroke-linejoin="miter" fill="none" stroke="#409f9f" d="M54.42628-22.67752H58.96133"/>
<path transform="matrix(1.00006,0,0,-1.00005,18.63926,72.26486)" stroke-width=".79701" stroke-linecap="butt" stroke-miterlimit="10" stroke-linejoin="miter" fill="none" stroke="#409f9f" d="M54.61555-16.09947 58.77208-17.9168"/>
<path transform="matrix(1.00006,0,0,-1.00005,18.63926,72.26486)" stroke-width=".79701" stroke-linecap="butt" stroke-miterlimit="10" stroke-linejoin="miter" fill="none" stroke="#409f9f" d="M54.87958-9.97816 58.50804-12.69934"/>
<path transform="matrix(1.00006,0,0,-1.00005,18.63926,72.26486)" stroke-width=".79701" stroke-linecap="butt" stroke-miterlimit="10" stroke-linejoin="miter" fill="none" stroke="#409f9f" d="M55.03944-4.1188 58.34818-7.21991"/>
<path transform="matrix(1.00006,0,0,-1.00005,18.63926,72.26486)" stroke-width=".79701" stroke-linecap="butt" stroke-miterlimit="10" stroke-linejoin="miter" fill="none" stroke="#409f9f" d="M55.09065 1.6035 58.29697-1.6035"/>
<path transform="matrix(1.00006,0,0,-1.00005,18.63926,72.26486)" stroke-width=".79701" stroke-linecap="butt" stroke-miterlimit="10" stroke-linejoin="miter" fill="none" stroke="#409f9f" d="M55.03944 7.21991 58.34818 4.1188"/>
<path transform="matrix(1.00006,0,0,-1.00005,18.63926,72.26486)" stroke-width=".79701" stroke-linecap="butt" stroke-miterlimit="10" stroke-linejoin="miter" fill="none" stroke="#409f9f" d="M54.87958 12.69934 58.50804 9.97816"/>
<path transform="matrix(1.00006,0,0,-1.00005,18.63926,72.26486)" stroke-width=".79701" stroke-linecap="butt" stroke-miterlimit="10" stroke-linejoin="miter" fill="none" stroke="#409f9f" d="M54.61555 17.9168 58.77208 16.09947"/>
<path transform="matrix(1.00006,0,0,-1.00005,18.63926,72.26486)" stroke-width=".79701" stroke-linecap="butt" stroke-miterlimit="10" stroke-linejoin="miter" fill="none" stroke="#409f9f" d="M54.42628 22.67752H58.96133"/>
<path transform="matrix(1.00006,0,0,-1.00005,18.63926,72.26486)" stroke-width=".79701" stroke-linecap="butt" stroke-miterlimit="10" stroke-linejoin="miter" fill="none" stroke="#409f9f" d="M54.71764 27.2358 58.66998 29.458"/>
<path transform="matrix(1.00006,0,0,-1.00005,18.63926,72.26486)" stroke-width=".79701" stroke-linecap="butt" stroke-miterlimit="10" stroke-linejoin="miter" fill="none" stroke="#409f9f" d="M55.27786 32.24634 58.10976 35.78621"/>
<path transform="matrix(1.00006,0,0,-1.00005,18.63926,72.26486)" stroke-width=".79701" stroke-linecap="butt" stroke-miterlimit="10" stroke-linejoin="miter" fill="none" stroke="#409f9f" d="M55.70451 37.64514 57.6831 41.7262"/>
<path transform="matrix(1.00006,0,0,-1.00005,18.63926,72.26486)" stroke-width=".79701" stroke-linecap="butt" stroke-miterlimit="10" stroke-linejoin="miter" fill="none" stroke="#409f9f" d="M55.9765 43.20378 57.41112 47.50632"/>
<path transform="matrix(1.00006,0,0,-1.00005,18.63926,72.26486)" stroke-width=".79701" stroke-linecap="butt" stroke-miterlimit="10" stroke-linejoin="miter" fill="none" stroke="#409f9f" d="M56.15195 48.82265 57.23567 53.22621"/>
<path transform="matrix(1.00006,0,0,-1.00005,18.63926,72.26486)" stroke-width=".79701" stroke-linecap="butt" stroke-miterlimit="10" stroke-linejoin="miter" fill="none" stroke="#409f9f" d="M61.82135-53.22621 62.90506-48.82265"/>
<path transform="matrix(1.00006,0,0,-1.00005,18.63926,72.26486)" stroke-width=".79701" stroke-linecap="butt" stroke-miterlimit="10" stroke-linejoin="miter" fill="none" stroke="#409f9f" d="M61.6459-47.50632 63.0805-43.20378"/>
<path transform="matrix(1.00006,0,0,-1.00005,18.63926,72.26486)" stroke-width=".79701" stroke-linecap="butt" stroke-miterlimit="10" stroke-linejoin="miter" fill="none" stroke="#409f9f" d="M61.3739-41.7262 63.35251-37.64514"/>
<path transform="matrix(1.00006,0,0,-1.00005,18.63926,72.26486)" stroke-width=".79701" stroke-linecap="butt" stroke-miterlimit="10" stroke-linejoin="miter" fill="none" stroke="#409f9f" d="M60.94727-35.78621 63.77914-32.24634"/>
<path transform="matrix(1.00006,0,0,-1.00005,18.63926,72.26486)" stroke-width=".79701" stroke-linecap="butt" stroke-miterlimit="10" stroke-linejoin="miter" fill="none" stroke="#409f9f" d="M60.38704-29.458 64.33937-27.2358"/>
<path transform="matrix(1.00006,0,0,-1.00005,18.63926,72.26486)" stroke-width=".79701" stroke-linecap="butt" stroke-miterlimit="10" stroke-linejoin="miter" fill="none" stroke="#409f9f" d="M60.09567-22.67752H64.63074"/>
<path transform="matrix(1.00006,0,0,-1.00005,18.63926,72.26486)" stroke-width=".79701" stroke-linecap="butt" stroke-miterlimit="10" stroke-linejoin="miter" fill="none" stroke="#409f9f" d="M60.28494-16.09947 64.44147-17.9168"/>
<path transform="matrix(1.00006,0,0,-1.00005,18.63926,72.26486)" stroke-width=".79701" stroke-linecap="butt" stroke-miterlimit="10" stroke-linejoin="miter" fill="none" stroke="#409f9f" d="M60.54897-9.97816 64.17744-12.69934"/>
<path transform="matrix(1.00006,0,0,-1.00005,18.63926,72.26486)" stroke-width=".79701" stroke-linecap="butt" stroke-miterlimit="10" stroke-linejoin="miter" fill="none" stroke="#409f9f" d="M60.70883-4.1188 64.01758-7.21991"/>
<path transform="matrix(1.00006,0,0,-1.00005,18.63926,72.26486)" stroke-width=".79701" stroke-linecap="butt" stroke-miterlimit="10" stroke-linejoin="miter" fill="none" stroke="#409f9f" d="M60.76006 1.6035 63.96635-1.6035"/>
<path transform="matrix(1.00006,0,0,-1.00005,18.63926,72.26486)" stroke-width=".79701" stroke-linecap="butt" stroke-miterlimit="10" stroke-linejoin="miter" fill="none" stroke="#409f9f" d="M60.70883 7.21991 64.01758 4.1188"/>
<path transform="matrix(1.00006,0,0,-1.00005,18.63926,72.26486)" stroke-width=".79701" stroke-linecap="butt" stroke-miterlimit="10" stroke-linejoin="miter" fill="none" stroke="#409f9f" d="M60.54897 12.69934 64.17744 9.97816"/>
<path transform="matrix(1.00006,0,0,-1.00005,18.63926,72.26486)" stroke-width=".79701" stroke-linecap="butt" stroke-miterlimit="10" stroke-linejoin="miter" fill="none" stroke="#409f9f" d="M60.28494 17.9168 64.44147 16.09947"/>
<path transform="matrix(1.00006,0,0,-1.00005,18.63926,72.26486)" stroke-width=".79701" stroke-linecap="butt" stroke-miterlimit="10" stroke-linejoin="miter" fill="none" stroke="#409f9f" d="M60.09567 22.67752H64.63074"/>
<path transform="matrix(1.00006,0,0,-1.00005,18.63926,72.26486)" stroke-width=".79701" stroke-linecap="butt" stroke-miterlimit="10" stroke-linejoin="miter" fill="none" stroke="#409f9f" d="M60.38704 27.2358 64.33937 29.458"/>
<path transform="matrix(1.00006,0,0,-1.00005,18.63926,72.26486)" stroke-width=".79701" stroke-linecap="butt" stroke-miterlimit="10" stroke-linejoin="miter" fill="none" stroke="#409f9f" d="M60.94727 32.24634 63.77914 35.78621"/>
<path transform="matrix(1.00006,0,0,-1.00005,18.63926,72.26486)" stroke-width=".79701" stroke-linecap="butt" stroke-miterlimit="10" stroke-linejoin="miter" fill="none" stroke="#409f9f" d="M61.3739 37.64514 63.35251 41.7262"/>
<path transform="matrix(1.00006,0,0,-1.00005,18.63926,72.26486)" stroke-width=".79701" stroke-linecap="butt" stroke-miterlimit="10" stroke-linejoin="miter" fill="none" stroke="#409f9f" d="M61.6459 43.20378 63.0805 47.50632"/>
<path transform="matrix(1.00006,0,0,-1.00005,18.63926,72.26486)" stroke-width=".79701" stroke-linecap="butt" stroke-miterlimit="10" stroke-linejoin="miter" fill="none" stroke="#409f9f" d="M61.82135 48.82265 62.90506 53.22621"/>
<path transform="matrix(1.00006,0,0,-1.00005,18.63926,72.26486)" stroke-width=".79701" stroke-linecap="butt" stroke-miterlimit="10" stroke-linejoin="miter" fill="none" stroke="#ec008c" d="M-11.33876 10.4792-10.53734 9.83766-9.73593 9.17743-8.93451 8.49713-8.13312 7.79883-7.3317 7.08429-6.53029 6.3521-5.72887 5.60811-4.92747 4.84857-4.12607 4.07968-3.32465 3.29938-2.52325 2.50801-1.72183 1.71457-.92043 .91626-.119 .11555 .68234-.68028 1.48376-1.48099 2.28517-2.27687 3.0866-3.06651 3.88799-3.84924 4.68939-4.62225 5.49081-5.38528 6.2922-6.13477 7.09363-6.87044 7.89503-7.59053 8.69646-8.2933 9.49785-8.97812 10.29927-9.64491 11.10068-10.29095 11.90208-10.91797 12.70349-11.52249 13.5049-12.10591 14.30632-12.66785 15.10771-13.20871 15.90913-13.72775 16.71054-14.2243 17.51196-14.69907 18.31335-15.1534 19.11476-15.58733 19.91618-15.99979 20.71759-16.3922 21.519-16.76488 22.3204-17.11887 23.12183-17.45451 23.92322-17.77252 24.72464-18.07321 25.52605-18.35764 26.32747-18.62582 27.12886-18.87914 27.93027-19.11823 28.73169-19.34315 29.53308-19.55492 30.3345-19.75423 31.13591-19.94179 31.93733-20.11792 32.73872-20.28333 33.54015-20.43869 34.34155-20.58437 35.14296-20.72105 35.94437-20.84943 36.74577-20.96915 37.5472-21.08195 38.34859-21.18716 39.15001-21.28577 39.95142-21.37782 40.75284-21.46432 41.55423-21.54495 42.35564-21.62038 43.15706-21.69098 43.95847-21.75706 44.75987-21.81866 45.56128-21.87611 46.3627-21.9301 47.1641-21.98026 47.96552-22.02698 48.76692-22.07092 49.56833-22.11174 50.36974-22.14981 51.17114-22.18546 51.97256-22.21867 52.77397-22.24982 53.57538-22.27853 54.37679-22.30554 55.1782-22.33078 55.9796-22.35432 56.781-22.37611 57.58243-22.39653 58.38383-22.41592 59.18524-22.43355 59.98665-22.45016 60.78807-22.4654 61.58948-22.47993 62.39088-22.49344 63.19229-22.50589 63.9937-22.51765 64.7951-22.52837 65.59651-22.5384 66.39793-22.5481 67.19934-22.55675 68.00075-22.56505"/>
<path transform="matrix(1.00006,0,0,-1.00005,18.63926,72.26486)" stroke-width=".79701" stroke-linecap="butt" stroke-miterlimit="10" stroke-linejoin="miter" fill="none" stroke="#ec008c" d="M-11.33876 24.61044-11.07335 24.65854-10.80794 24.70767-10.54253 24.7575-10.27713 24.80975-10.01172 24.86201-9.7463 24.91634-9.48091 24.97171-9.2155 25.02948-8.9501 25.08797-8.68468 25.14853-8.41928 25.21011-8.15388 25.27379-7.88847 25.3385-7.62306 25.40527-7.35765 25.4738-7.09225 25.54437-6.82684 25.61636-6.56143 25.69077-6.29604 25.76723-6.03062 25.8458-5.76523 25.9257-5.4998 26.00807-5.2344 26.0932-4.96901 26.1804-4.7036 26.27002-4.43819 26.36206-4.17278 26.45686-3.90738 26.55411-3.64197 26.65411-3.37656 26.7562-3.11116 26.86172-2.84575 26.97038-2.58035 27.08147-2.31493 27.19669-2.04953 27.3147-1.78413 27.43614-1.51872 27.56105-1.25331 27.68909-.9879 27.82092-.7225 27.95692-.45709 28.09741-.19168 28.24136 .07368 28.38843 .33908 28.54137 .60448 28.69847 .8699 28.8604 1.1353 29.02719 1.40071 29.19916 1.6661 29.3767 1.93152 29.5594 2.19693 29.74763 2.46233 29.9421 2.72774 30.1421 2.99315 30.34938 3.25856 30.5622 3.52396 30.78261 3.78935 31.00961 4.05478 31.24388 4.32018 31.48643 4.58559 31.73662 4.851 31.99512 5.1164 32.26224 5.3818 32.53906 5.6472 32.82489 5.91263 33.1204 6.17802 33.4263 6.44344 33.7436 6.70883 34.0713 6.97424 34.41006 7.23965 34.76198 7.50505 35.12703 7.77046 35.50525 8.03587 35.89766 8.30127 36.30528 8.56668 36.72745 8.83208 37.16655 9.0975 37.62366 9.3629 38.09772 9.62831 38.59047 9.8937 39.10432 10.15912 39.63826 10.42453 40.19502 10.68993 40.776 10.95534 41.38087 11.22075 42.01308 11.48615 42.67227 11.75156 43.36226 12.01695 44.08372 12.28238 44.83774 12.54778 45.62842 12.81319 46.45682 13.07858 47.3264 13.344 48.23921 13.6094 49.19841 13.8748 50.20744 14.14021 51.27013 14.40562 52.3916 14.67102 53.57468 14.93643 54.82524"/>
<path transform="matrix(1.00006,0,0,-1.00005,18.63926,72.26486)" stroke-width=".79701" stroke-linecap="butt" stroke-miterlimit="10" stroke-linejoin="miter" fill="none" stroke="#ec008c" d="M-11.33876 22.92978-10.81902 22.94188-10.29927 22.95435-9.77953 22.96748-9.2598 22.98099-8.74005 22.99518-8.2203 23.01039-7.70058 23.02596-7.18083 23.04257-6.66109 23.05988-6.14134 23.07787-5.62161 23.09691-5.10187 23.11662-4.58212 23.13739-4.06241 23.1592-3.54266 23.18204-3.02292 23.20625-2.50317 23.23117-1.98344 23.25745-1.4637 23.28516-.94395 23.31387-.42422 23.34431 .09547 23.3758 .61522 23.40903 1.13496 23.44397 1.65471 23.48065 2.17445 23.51906 2.6942 23.5592 3.21393 23.60141 3.73366 23.6457 4.2534 23.69208 4.77313 23.74088 5.29288 23.79208 5.81262 23.8457 6.33237 23.90178 6.8521 23.96095 7.37184 24.02289 7.89159 24.08794 8.41132 24.1561 8.93106 24.22809 9.4508 24.30316 9.97055 24.38242 10.49028 24.46547 11.01001 24.55266 11.52975 24.6447 12.04948 24.74126 12.56923 24.84262 13.08897 24.94922 13.60872 25.06133 14.12845 25.17932 14.6482 25.30354 15.16794 25.43399 15.68767 25.57173 16.20741 25.71635 16.72716 25.86896 17.2469 26.02986 17.76663 26.19908 18.28636 26.37798 18.8061 26.56621 19.32584 26.76518 19.84558 26.97488 20.36533 27.19669 20.88506 27.43095 21.4048 27.67838 21.92455 27.9403 22.44429 28.21713 22.96402 28.51056 23.48376 28.82097 24.00351 29.15039 24.52324 29.49988 25.04298 29.87048 25.56273 30.26425 26.08246 30.68297 26.6022 31.1283 27.12195 31.6027 27.6417 32.10828 28.16142 32.64807 28.68117 33.22455 29.20091 33.84084 29.72066 34.50107 30.24039 35.20905 30.76013 35.96893 31.27988 36.78625 31.79959 37.6669 32.31934 38.61713 32.83908 39.64413 33.35883 40.75734 33.87856 41.96567 34.3983 43.28163 34.91805 44.71802 35.43777 46.28969 35.95752 48.01604 36.47726 49.91817 36.997 52.0224 37.51674 54.36018 38.03648 56.97064 38.55623 59.89944 39.07596 63.20439 39.59569 66.96161 40.11543 71.26382"/>
</svg>
