<svg xmlns="http://www.w3.org/2000/svg" xmlns:xlink="http://www.w3.org/1999/xlink" version="1.1" width="120" height="175" viewBox="0 0 120 175">
<defs>
<path id="font_1_1" d="M.35198976 .7371979 .34700013 .7421875 .16699219 .71824648 .16099549 .6953125 .21798706 .68829348C.24299622 .6852875 .24699402 .67826846 .23799134 .63920596L.09199524-.01171875 .1789856 .0002746582C.20599365 .10221863 .22099304 .15718079 .24598694 .22012329 .27598573 .2980652 .375 .44995118 .46199037 .44995118 .49398805 .44995118 .5059967 .42097474 .49398805 .38000489L.4119873 .096221927C.3929901 .030273438 .40699769-.01171875 .46398927-.01171875 .5329895-.01171875 .58898928 .056259157 .6230011 .13220215L.598999 .14619446C.58099368 .11122131 .5369873 .040267946 .5089874 .040267946 .4889984 .040267946 .4889984 .06324768 .49899293 .0952301L.5779877 .35702516C.60198977 .43595887 .58898928 .5019531 .5079956 .5019531 .41299439 .5019531 .30699159 .39898683 .24299622 .27908326H.23999024L.35198976 .7371979Z"/>
<path id="font_2_1" d="M.1749878 .2822113C.1749878 .56832888 .2619934 .65437319 .32499696 .66737368V.6923828C.1499939 .685379 .10499573 .46829225 .10499573 .2822113 .10499573 .09614563 .1499939-.12094116 .32499696-.12792969V-.10293579C.2669983-.090927127 .1749878-.0059051516 .1749878 .2822113Z"/>
<path id="font_2_9" d="M.20098877 .45022584H.32299806V.49023438H.20098877L.19699097 .60220339C.19400025 .6971741 .22898865 .70718386 .24499512 .70718386 .2659912 .70718386 .28799439 .6971741 .31298829 .6391907 .31799317 .62919619 .32499696 .6221924 .33999635 .6221924 .3600006 .6221924 .3889923 .6391907 .3889923 .66918948 .3889923 .70217898 .34700013 .7421875 .2669983 .7421875 .21199036 .7421875 .16499329 .71717837 .13999939 .67918398 .116989139 .64419558 .10699463 .5912018 .10699463 .5252228V.49023438H.02999878V.45022584H.10699463V.087020877C.10699463 .035995485 .10398865 .033996583 .03199768 .0289917V0H.29599V.0289917C.20498657 .032989503 .20098877 .034988405 .20098877 .08602905V.45022584Z"/>
<path id="font_2_15" d="M.32598878 .45022584V.49023438H.19699097V.6162262H.16799927L.10699463 .49023438H.0309906V.45022584H.102996829V.102264408C.102996829 .0002746582 .1789856-.01171875 .21398926-.01171875 .2649994-.01171875 .31298829 .014266968 .34199525 .03227234L.33399964 .053268434C.30999757 .043273927 .28799439 .040267946 .2630005 .040267946 .22898865 .040267946 .19699097 .06427002 .19699097 .14025879V.45022584H.32598878Z"/>
<path id="font_2_2" d="M.1749878 .2822113C.1749878-.0059051516 .08299255-.090927127 .024993897-.10293579V-.12792969C.19999695-.12094116 .24499512 .09614563 .24499512 .2822113 .24499512 .46829225 .19999695 .685379 .024993897 .6923828V.66737368C.08799744 .65437319 .1749878 .56832888 .1749878 .2822113Z"/>
<path id="font_2_7" d="M.34498597 0C.49699403 0 .59498599 .055023195 .59498599 .19422913 .59498599 .3123932 .5109863 .36445619 .4139862 .37745667V.37945558C.5079956 .39845277 .5629883 .45643617 .5629883 .53341677 .5629883 .58839419 .54100039 .6293793 .5009918 .6563721 .46199037 .68237307 .4019928 .69337466 .32398988 .6923828H.034988405V.66337588C.12298584 .65737918 .125 .65538027 .125 .59939578V.09307861C.125 .037002565 .12298584 .035003663 .034988405 .0289917V0H.34498597M.22399903 .35546876H.29599C.41999818 .35546876 .48799134 .29336549 .48799134 .18721009 .48799134 .06703186 .4059906 .034988405 .31999208 .034988405 .23999024 .034988405 .22399903 .05001831 .22399903 .11210632V.35546876M.22399903 .60739138C.22399903 .65037539 .22698975 .6563721 .30499269 .65737918 .3769989 .658371 .45799256 .63038638 .45799256 .52742007 .45799256 .42944337 .394989 .39045716 .29100038 .39045716H.22399903V.60739138Z"/>
<path id="font_2_16" d="M.59098818 0V.0289917C.5219879 .033996583 .5159912 .035995485 .5159912 .08699036V.49609376L.5089874 .50209048 .35198976 .47709657V.45210267L.3899994 .44711305C.41600038 .44309999 .42199708 .43811036 .42199708 .40213014V.17721558C.42199708 .14923096 .4189911 .12724304 .4139862 .117248538 .3909912 .071258548 .34298707 .042266847 .29100038 .042266847 .23298645 .042266847 .18998719 .07826233 .18998719 .15621948V.49609376L.18299866 .50209048 .025985718 .47709657V.45210267L.06399536 .44711305C.08999634 .44309999 .09599304 .43811036 .09599304 .40213014V.13822937C.09599304 .023269654 .1639862-.01171875 .23799134-.01171875 .32299806-.01171875 .3919983 .04626465 .42099 .060272218L.43099977 0H.59098818Z"/>
<path id="font_2_11" d="M.036987306 .47694398V.45195008L.07499695 .4469452C.100997928 .4429474 .10699463 .43795777 .10699463 .40194703V.08699036C.10699463 .035995485 .10398865 .033996583 .03199768 .0289917V0H.27598573V.0289917C.20498657 .033996583 .20098877 .035995485 .20098877 .08699036V.49609376L.19400025 .5020752 .036987306 .47694398M.15299988 .71484377C.116989139 .71484377 .09199524 .6888428 .09199524 .65283206 .09199524 .61782839 .116989139 .5928345 .15299988 .5928345 .18998719 .5928345 .21299744 .61782839 .21398926 .65283206 .21398926 .6888428 .18998719 .71484377 .15299988 .71484377Z"/>
<path id="font_2_12" d="M.18899536 .7361908 .18199158 .7421875 .024993897 .71717837V.6921692L.06298828 .6881714C.08898926 .6851654 .09498596 .6801758 .09498596 .6421509V.087005618C.09498596 .035995485 .09199524 .033996583 .019989014 .0289917V0H.2639923V.0289917C.19299317 .033996583 .18899536 .035995485 .18899536 .087005618V.7361908Z"/>
<path id="font_2_8" d="M.58299258 0V.0289917C.5119934 .033996583 .5079956 .035995485 .5079956 .08699036V.73617556L.5009918 .7421875 .34399415 .7171478V.6921234L.38198854 .6881256C.4079895 .6851196 .4139862 .68011477 .4139862 .6420746V.47795106C.38598634 .49295045 .34899903 .5019531 .30299378 .5019531 .22099304 .5019531 .1599884 .47595216 .117996219 .43295289 .07499695 .3879547 .04899597 .32196046 .04899597 .2349701 .04899597 .0872345 .12599182-.01171875 .2579956-.01171875 .31199647-.01171875 .35899354 .012268066 .41299439 .056259157V.0069885256L.42099 0H.58299258M.4139862 .16998291C.4139862 .14819336 .41299439 .13121033 .40699769 .114212039 .3869934 .06225586 .34298707 .042266847 .29100038 .042266847 .19898987 .042266847 .15299988 .13220215 .15299988 .24711609 .15299988 .37701417 .19999695 .46694947 .3019867 .46694947 .34899903 .46694947 .3869934 .44496156 .40499879 .4039917 .41299439 .38700868 .4139862 .37301637 .4139862 .34603883V.16998291Z"/>
<path id="font_2_13" d="M.5289917 .34295655C.5289917 .4439392 .47399903 .5019531 .38198854 .5019531 .30799867 .5019531 .2619934 .46594239 .19999695 .4259491L.18598938 .5019531 .036987306 .47694398V.45195008L.07499695 .4469452C.100997928 .4429474 .10699463 .4379425 .10699463 .40194703V.08699036C.10699463 .035995485 .10398865 .033996583 .03199768 .0289917V0H.27598573V.0289917C.20498657 .033996583 .20098877 .035995485 .20098877 .08699036V.32095338C.20098877 .34596253 .20298767 .35995484 .21099854 .37594605 .23199463 .4149475 .2769928 .44795228 .32998658 .44795228 .397995 .44795228 .43499757 .40994264 .43499757 .32295228V.08699036C.43499757 .035995485 .43199159 .033996583 .3600006 .0289917V0H.60398867V.0289917C.5329895 .033996583 .5289917 .035995485 .5289917 .08699036V.34295655Z"/>
<path id="font_2_10" d="M.2599945 .46694947C.30899049 .46694947 .3600006 .43093873 .3600006 .33392335 .3600006 .24989319 .31599427 .20588684 .2579956 .20588684 .20199585 .20588684 .15499878 .24989319 .15499878 .33392335 .15499878 .43293763 .20698548 .46694947 .2599945 .46694947M.2809906-.2071991C.19599915-.2071991 .13699341-.16319275 .13699341-.09118652 .13699341-.057174684 .14698792-.032180787 .16799927-.016174317 .18998719 .0008239746 .22299195 .0068359377 .2709961 .0068359377 .35899354 .0068359377 .42399598-.014175415 .42399598-.08918762 .42399598-.16918946 .35198976-.2071991 .2809906-.2071991M.3889923 .47094728C.36099244 .48994447 .30599977 .5019531 .2599945 .5019531 .10699463 .5019531 .052993776 .40792848 .052993776 .33392335 .052993776 .23989868 .114990238 .19688416 .16099549 .18489075V.18289185C.10699463 .1618805 .068984989 .13285828 .068984989 .09384155 .068984989 .05882263 .10899353 .020828248 .15699768 .015823365V.013824463C.11399841-.00016784668 .041992189-.024169922 .041992189-.09617615 .041992189-.19718933 .14199829-.2421875 .2579956-.2421875 .31799317-.2421875 .3809967-.23019409 .42900086-.20118714 .47499085-.17318726 .5079956-.12619019 .5079956-.06417847 .5079956 .043823244 .42199708 .081832889 .31498719 .081832889H.23498535C.16299439 .081832889 .1519928 .10585022 .1519928 .12486267 .1519928 .15388489 .18998719 .16989136 .20298767 .17388916 .22200012 .17189026 .24299622 .17089844 .2539978 .17089844 .34899903 .17089844 .45599366 .21289063 .45599366 .33392335 .45599366 .3759308 .44299317 .41093446 .42599488 .42793275L.5049896 .4399414 .5249939 .50294497 .5169983 .51194766 .3889923 .47094728Z"/>
<path id="font_2_4" d="M.2649994 .64468386C.3600006 .64468386 .3869934 .49682618 .3869934 .33398438 .3869934 .17112732 .3600006 .023269654 .2649994 .023269654 .16999817 .023269654 .14299011 .17112732 .14299011 .33398438 .14299011 .49682618 .16999817 .64468386 .2649994 .64468386M.2649994 .6796875C.099990848 .6796875 .040985109 .53378298 .040985109 .33398438 .040985109 .13417053 .099990848-.01171875 .2649994-.01171875 .42999269-.01171875 .4889984 .13417053 .4889984 .33398438 .4889984 .53378298 .42999269 .6796875 .2649994 .6796875Z"/>
<path id="font_2_6" d="M.12998963 .3657837C.12998963 .3487854 .1349945 .33779908 .147995 .33779908 .1599884 .33779908 .18699646 .34777833 .23498535 .34777833 .31999208 .34777833 .36799623 .27090455 .36799623 .18403626 .36799623 .065216068 .30899049 .023269654 .23799134 .023269654 .17199707 .023269654 .1289978 .07319641 .10998535 .12911988 .10398865 .14808655 .09399414 .15707398 .07998657 .15707398 .06199646 .15707398 .026992798 .13809204 .026992798 .10215759 .026992798 .05921936 .09599304-.01171875 .23699951-.01171875 .38198854-.01171875 .47299195 .06121826 .47299195 .18902588 .47299195 .32281495 .35798646 .3627777 .30299378 .3677826V.3717804C.35699464 .38078309 .44400025 .4207611 .44400025 .5197296 .44400025 .6306915 .35699464 .6796875 .25 .6796875 .117996219 .6796875 .052993776 .60369876 .052993776 .5607147 .052993776 .5297241 .08799744 .51272585 .101989749 .51272585 .114990238 .51272585 .12298584 .5197296 .1269989 .5327301 .14898682 .60069277 .18699646 .64468386 .24299622 .64468386 .32199098 .64468386 .34098817 .57470706 .34098817 .51872256 .34098817 .4587555 .31999208 .38378907 .23498535 .38378907 .18699646 .38378907 .1599884 .39378358 .147995 .39378358 .1349945 .39378358 .12998963 .38378907 .12998963 .3657837Z"/>
<path id="font_2_5" d="M.4850006 .13195801 .45700074 .13696289C.43598939 .08299255 .41600038 .07598877 .37599183 .07598877H.11999512C.13598633 .1279602 .19499207 .19892884 .28799439 .2658844 .38398744 .33584596 .45799256 .38082887 .45799256 .49276734 .45799256 .63168337 .3659973 .6796875 .26098634 .6796875 .12399292 .6796875 .052993776 .5967102 .052993776 .54473879 .052993776 .51075747 .09098816 .49476625 .10798645 .49476625 .12599182 .49476625 .1329956 .50476077 .13699341 .5217438 .15299988 .5897064 .19198609 .64468386 .2539978 .64468386 .33099366 .64468386 .35299684 .5797119 .35299684 .50675967 .35299684 .3998108 .29899598 .33984376 .21199036 .26289369 .08898926 .15594483 .04598999 .08798218 .026992798 .009994507L.036987306 0H.45098878L.4850006 .13195801Z"/>
<path id="font_2_3" d="M.15899658-.0146484379 .36898805 .70703127H.3019867L.09199524-.0146484379H.15899658Z"/>
<path id="font_2_14" d="M.36698915 .35102845V.46794129C.33399964 .49194337 .2829895 .5019531 .23799134 .5019531 .12998963 .5019531 .056991579 .45095826 .055999757 .35603334 .056991579 .27308656 .12399292 .2361145 .20698548 .21113587 .2519989 .19714356 .31498719 .17416382 .31498719 .10621643 .31498719 .055252077 .2749939 .023269654 .22200012 .023269654 .14099121 .023269654 .09599304 .082229617 .07598877 .16716004H.04699707L.056991579 .03627014C.09298706 .004272461 .1539917-.01171875 .21299744-.01171875 .33198548-.01171875 .3999939 .051254274 .3999939 .13618469 .3999939 .2241211 .34599305 .26409913 .24299622 .29606629 .20199585 .30906678 .13598633 .3300476 .13598633 .3860016 .13699341 .43795777 .17599488 .46694947 .22599793 .46694947 .29699708 .46694947 .33099366 .4119873 .33799745 .35102845H.36698915Z"/>
<path id="font_1_2" d="M.42799378 .45222474 .43899537 .49023438H.31199647L.34599305 .6092224 .33399964 .6162262 .23699951 .53923037 .22399903 .49023438H.14299011L.13198853 .45222474H.21499634L.125 .08627319C.10998535 .029266358 .12199402-.01171875 .17199707-.01171875 .2519989-.01171875 .31599427 .054275514 .35598756 .1292572L.33399964 .1462555C.31098939 .10726929 .2599945 .040267946 .22898865 .040267946 .20799256 .040267946 .20799256 .0632782 .21398926 .088272098L.30299378 .45222474H.42799378Z"/>
</defs>
<path transform="matrix(1.00005,0,0,-1.00002,47.64863,172.9122)" stroke-width=".79701" stroke-linecap="butt" stroke-miterlimit="10" stroke-linejoin="miter" fill="none" stroke="#000000" d="M28.3468 0V157.94528"/>
<path transform="matrix(0,-1.00002,-1.00005,-0,75.99684,14.565247)" stroke-width=".79701" stroke-linecap="round" stroke-linejoin="round" fill="none" stroke="#000000" d="M-2.55046 3.11095C-2.0845 1.24435-1.04614 .36295 0 0-1.04614-.36295-2.0845-1.24435-2.55046-3.11095"/>
<use data-text="h" xlink:href="#font_1_1" transform="matrix(10.036901,0,0,-10.036601,64.71648,9.297928)"/>
<use data-text="(" xlink:href="#font_2_1" transform="matrix(10.036901,0,0,-10.036601,73.607929,9.297928)"/>
<use data-text="f" xlink:href="#font_2_9" transform="matrix(10.036901,0,0,-10.036601,77.12085,9.297928)"/>
<use data-text="t" xlink:href="#font_2_15" transform="matrix(10.036901,0,0,-10.036601,80.32262,9.297928)"/>
<use data-text=")" xlink:href="#font_2_2" transform="matrix(10.036901,0,0,-10.036601,83.76526,9.297928)"/>
<path transform="matrix(1.00005,0,0,-1.00002,47.64863,172.9122)" d="M-45.35506 0V141.73404H0V0ZM0 141.73404" fill="#ebebeb"/>
<path transform="matrix(1.00005,0,0,-1.00002,47.64863,172.9122)" stroke-width=".79701" stroke-linecap="butt" stroke-miterlimit="10" stroke-linejoin="miter" fill="none" stroke="#000000" d="M-45.35506 0V141.73404H0V0ZM0 141.73404"/>
<use data-text="B" xlink:href="#font_2_7" transform="matrix(10.036901,0,0,-10.036601,5.7085344,104.549839)"/>
<use data-text="u" xlink:href="#font_2_16" transform="matrix(10.036901,0,0,-10.036601,12.07193,104.549839)"/>
<use data-text="i" xlink:href="#font_2_11" transform="matrix(10.036901,0,0,-10.036601,18.154297,104.549839)"/>
<use data-text="l" xlink:href="#font_2_12" transform="matrix(10.036901,0,0,-10.036601,21.075036,104.549839)"/>
<use data-text="d" xlink:href="#font_2_8" transform="matrix(10.036901,0,0,-10.036601,23.875329,104.549839)"/>
<use data-text="i" xlink:href="#font_2_11" transform="matrix(10.036901,0,0,-10.036601,29.877404,104.549839)"/>
<use data-text="n" xlink:href="#font_2_13" transform="matrix(10.036901,0,0,-10.036601,32.808176,104.549839)"/>
<use data-text="g" xlink:href="#font_2_10" transform="matrix(10.036901,0,0,-10.036601,39.02102,104.549839)"/>
<path transform="matrix(1.00005,0,0,-1.00002,47.64863,172.9122)" d="M32.01036 141.73404C32.01036 143.75739 30.37013 145.3976 28.3468 145.3976 26.32347 145.3976 24.68324 143.75739 24.68324 141.73404 24.68324 139.71071 26.32347 138.07048 28.3468 138.07048 30.37013 138.07048 32.01036 139.71071 32.01036 141.73404ZM28.3468 141.73404" fill="#ff9999"/>
<path transform="matrix(1.00005,0,0,-1.00002,47.64863,172.9122)" stroke-width=".3985" stroke-linecap="butt" stroke-dasharray="2.98883,2.98883" stroke-miterlimit="10" stroke-linejoin="miter" fill="none" stroke="#ff0000" d="M32.01036 141.73404C32.01036 143.75739 30.37013 145.3976 28.3468 145.3976 26.32347 145.3976 24.68324 143.75739 24.68324 141.73404 24.68324 139.71071 26.32347 138.07048 28.3468 138.07048 30.37013 138.07048 32.01036 139.71071 32.01036 141.73404ZM28.3468 141.73404"/>
<use data-text="h" xlink:href="#font_1_1" transform="matrix(10.036901,0,0,-10.036601,49.75173,34.29042)"/>
<use data-text="(" xlink:href="#font_2_1" transform="matrix(10.036901,0,0,-10.036601,56.38507,34.29042)"/>
<use data-text="0" xlink:href="#font_2_4" transform="matrix(10.036901,0,0,-10.036601,59.897989,34.29042)"/>
<use data-text=")" xlink:href="#font_2_2" transform="matrix(10.036901,0,0,-10.036601,65.21754,34.29042)"/>
<path transform="matrix(1.00005,0,0,-1.00002,47.64863,172.9122)" stroke-width=".79701" stroke-linecap="butt" stroke-miterlimit="10" stroke-linejoin="miter" fill="none" stroke="#ff0000" d="M42.5202 147.40332V136.86176"/>
<path transform="matrix(0,1.00002,1.00005,0,90.17095,36.446214)" stroke-width=".79701" stroke-linecap="round" stroke-linejoin="round" fill="none" stroke="#ff0000" d="M-2.55046 3.11095C-2.0845 1.24435-1.04614 .36295 0 0-1.04614-.36295-2.0845-1.24435-2.55046-3.11095"/>
<use data-text="3" xlink:href="#font_2_6" transform="matrix(10.036901,0,0,-10.036601,93.768939,34.692445)" fill="#ff0000"/>
<use data-text="2" xlink:href="#font_2_5" transform="matrix(10.036901,0,0,-10.036601,99.088489,34.692445)" fill="#ff0000"/>
<use data-text="f" xlink:href="#font_2_9" transform="matrix(5.909395,0,0,-5.9092185,106.67558,31.315369)" fill="#ff0000"/>
<use data-text="t" xlink:href="#font_2_15" transform="matrix(5.909395,0,0,-5.9092185,108.56067,31.315369)" fill="#ff0000"/>
<use data-text="/" xlink:href="#font_2_3" transform="matrix(10.99935,0,0,-10.999021,110.00275,34.692445)" fill="#ff0000"/>
<use data-text="s" xlink:href="#font_2_14" transform="matrix(5.909395,0,0,-5.9092185,113.890949,34.692445)" fill="#ff0000"/>
<use data-text="2" xlink:href="#font_2_5" transform="matrix(4.491124,0,0,-4.49099,116.466068,32.360399)" fill="#ff0000"/>
<path transform="matrix(1.00005,0,0,-1.00002,47.64863,172.9122)" d="M32.01036 51.02432C32.01036 53.04765 30.37013 54.68788 28.3468 54.68788 26.32347 54.68788 24.68324 53.04765 24.68324 51.02432 24.68324 49.00099 26.32347 47.36076 28.3468 47.36076 30.37013 47.36076 32.01036 49.00099 32.01036 51.02432ZM28.3468 51.02432" fill="#ff0000"/>
<use data-text="h" xlink:href="#font_1_1" transform="matrix(10.036901,0,0,-10.036601,50.362764,125.001239)"/>
<use data-text="(" xlink:href="#font_2_1" transform="matrix(10.036901,0,0,-10.036601,56.9961,125.001239)"/>
<use data-text="t" xlink:href="#font_1_2" transform="matrix(10.036901,0,0,-10.036601,60.727289,125.001239)"/>
<use data-text=")" xlink:href="#font_2_2" transform="matrix(10.036901,0,0,-10.036601,65.22152,125.001239)"/>
<path transform="matrix(1.00005,0,0,-1.00002,47.64863,172.9122)" stroke-width=".79701" stroke-linecap="butt" stroke-miterlimit="10" stroke-linejoin="miter" fill="none" stroke="#ff0000" d="M42.5202 56.69362V46.15205"/>
<path transform="matrix(0,1.00002,1.00005,0,90.17095,127.15773)" stroke-width=".79701" stroke-linecap="round" stroke-linejoin="round" fill="none" stroke="#ff0000" d="M-2.55046 3.11095C-2.0845 1.24435-1.04614 .36295 0 0-1.04614-.36295-2.0845-1.24435-2.55046-3.11095"/>
<use data-text="3" xlink:href="#font_2_6" transform="matrix(10.036901,0,0,-10.036601,93.768939,125.40425)" fill="#ff0000"/>
<use data-text="2" xlink:href="#font_2_5" transform="matrix(10.036901,0,0,-10.036601,99.088489,125.40425)" fill="#ff0000"/>
<use data-text="f" xlink:href="#font_2_9" transform="matrix(5.909395,0,0,-5.9092185,106.67558,122.027179)" fill="#ff0000"/>
<use data-text="t" xlink:href="#font_2_15" transform="matrix(5.909395,0,0,-5.9092185,108.56067,122.027179)" fill="#ff0000"/>
<use data-text="/" xlink:href="#font_2_3" transform="matrix(10.99935,0,0,-10.999021,110.00275,125.40425)" fill="#ff0000"/>
<use data-text="s" xlink:href="#font_2_14" transform="matrix(5.909395,0,0,-5.9092185,113.890949,125.40425)" fill="#ff0000"/>
<use data-text="2" xlink:href="#font_2_5" transform="matrix(4.491124,0,0,-4.49099,116.466068,123.072208)" fill="#ff0000"/>
<path transform="matrix(1.00005,0,0,-1.00002,47.64863,172.9122)" stroke-width=".79701" stroke-linecap="butt" stroke-miterlimit="10" stroke-linejoin="miter" fill="none" stroke="#000000" d="M-14.17339 0H70.867"/>
</svg>
