<svg xmlns="http://www.w3.org/2000/svg" xmlns:xlink="http://www.w3.org/1999/xlink" version="1.1" width="242" height="128" viewBox="0 0 242 128">
<defs>
<path id="font_1_1" d="M.43699647 0V.0289917L.35299684 .035995485C.33198548 .037994386 .31999208 .04598999 .31999208 .08496094V.67367556L.31498719 .6796875 .10899353 .6446991V.6197052L.20199585 .6087036C.21899414 .6067047 .22599793 .5987091 .22599793 .56973269V.08496094C.22599793 .065979007 .22299195 .053985597 .21699524 .04698181 .21199036 .039993287 .20399475 .036987306 .19299317 .035995485L.10899353 .0289917V0H.43699647Z"/>
<path id="font_1_2" d="M.4850006 .13195801 .45700074 .13696289C.43598939 .08299255 .41600038 .07598877 .37599183 .07598877H.11999512C.13598633 .1279602 .19499207 .19892884 .28799439 .2658844 .38398744 .33584596 .45799256 .38082887 .45799256 .49276734 .45799256 .63168337 .3659973 .6796875 .26098634 .6796875 .12399292 .6796875 .052993776 .5967102 .052993776 .54473879 .052993776 .51075747 .09098816 .49476625 .10798645 .49476625 .12599182 .49476625 .1329956 .50476077 .13699341 .5217438 .15299988 .5897064 .19198609 .64468386 .2539978 .64468386 .33099366 .64468386 .35299684 .5797119 .35299684 .50675967 .35299684 .3998108 .29899598 .33984376 .21199036 .26289369 .08898926 .15594483 .04598999 .08798218 .026992798 .009994507L.036987306 0H.45098878L.4850006 .13195801Z"/>
<path id="font_1_3" d="M.12998963 .3657837C.12998963 .3487854 .1349945 .33779908 .147995 .33779908 .1599884 .33779908 .18699646 .34777833 .23498535 .34777833 .31999208 .34777833 .36799623 .27090455 .36799623 .18403626 .36799623 .065216068 .30899049 .023269654 .23799134 .023269654 .17199707 .023269654 .1289978 .07319641 .10998535 .12911988 .10398865 .14808655 .09399414 .15707398 .07998657 .15707398 .06199646 .15707398 .026992798 .13809204 .026992798 .10215759 .026992798 .05921936 .09599304-.01171875 .23699951-.01171875 .38198854-.01171875 .47299195 .06121826 .47299195 .18902588 .47299195 .32281495 .35798646 .3627777 .30299378 .3677826V.3717804C.35699464 .38078309 .44400025 .4207611 .44400025 .5197296 .44400025 .6306915 .35699464 .6796875 .25 .6796875 .117996219 .6796875 .052993776 .60369876 .052993776 .5607147 .052993776 .5297241 .08799744 .51272585 .101989749 .51272585 .114990238 .51272585 .12298584 .5197296 .1269989 .5327301 .14898682 .60069277 .18699646 .64468386 .24299622 .64468386 .32199098 .64468386 .34098817 .57470706 .34098817 .51872256 .34098817 .4587555 .31999208 .38378907 .23498535 .38378907 .18699646 .38378907 .1599884 .39378358 .147995 .39378358 .1349945 .39378358 .12998963 .38378907 .12998963 .3657837Z"/>
<path id="font_1_4" d="M.2999878 .17871094V.0769043C.2999878 .04296875 .2889862 .036987306 .2649994 .034988405L.20098877 .0289917V0H.46499635V.0289917L.41999818 .033981325C.39698792 .036987306 .3899994 .04296875 .3899994 .0769043V.17871094H.49299623V.22570801H.3899994V.66796877H.31698609C.22299195 .5298767 .11099243 .35577394 .018997193 .19970703L.027999878 .17871094H.2999878M.09098816 .22570801C.15098572 .33476258 .22099304 .4498291 .2979889 .5709076H.2999878V.22570801H.09098816Z"/>
<clipPath id="clip_2">
<path transform="matrix(1.00003,0,0,-1.00002,1.3920212,126.34323)" d="M0 0H238.63304V125.24484H0Z"/>
</clipPath>
<path id="font_3_1" d="M.35198976 .7371979 .34700013 .7421875 .16699219 .71824648 .16099549 .6953125 .21798706 .68829348C.24299622 .6852875 .24699402 .67826846 .23799134 .63920596L.09199524-.01171875 .1789856 .0002746582C.20599365 .10221863 .22099304 .15718079 .24598694 .22012329 .27598573 .2980652 .375 .44995118 .46199037 .44995118 .49398805 .44995118 .5059967 .42097474 .49398805 .38000489L.4119873 .096221927C.3929901 .030273438 .40699769-.01171875 .46398927-.01171875 .5329895-.01171875 .58898928 .056259157 .6230011 .13220215L.598999 .14619446C.58099368 .11122131 .5369873 .040267946 .5089874 .040267946 .4889984 .040267946 .4889984 .06324768 .49899293 .0952301L.5779877 .35702516C.60198977 .43595887 .58898928 .5019531 .5079956 .5019531 .41299439 .5019531 .30699159 .39898683 .24299622 .27908326H.23999024L.35198976 .7371979Z"/>
<path id="font_1_9" d="M.18899536 .5019531 .036987306 .47694398V.45195008L.07499695 .4469452C.100997928 .4429474 .10699463 .4379425 .10699463 .40194703V.08699036C.10699463 .035995485 .101989749 .033996583 .03199768 .0289917V0H.29599V.0289917C.20698548 .033996583 .20098877 .035995485 .20098877 .08699036V.32095338C.20098877 .39794923 .23498535 .4239502 .2579956 .4239502 .27398683 .4239502 .29100038 .4179535 .31999208 .40194703 .32699586 .39794923 .33499146 .39694215 .33999635 .39694215 .3639984 .39694215 .38598634 .4219513 .38598634 .4529419 .38598634 .47494508 .37199403 .5019531 .33299256 .5019531 .29699708 .5019531 .2669983 .47994996 .20098877 .4219513L.18899536 .5019531Z"/>
<path id="font_1_11" d="M.59098818 0V.0289917C.5219879 .033996583 .5159912 .035995485 .5159912 .08699036V.49609376L.5089874 .50209048 .35198976 .47709657V.45210267L.3899994 .44711305C.41600038 .44309999 .42199708 .43811036 .42199708 .40213014V.17721558C.42199708 .14923096 .4189911 .12724304 .4139862 .117248538 .3909912 .071258548 .34298707 .042266847 .29100038 .042266847 .23298645 .042266847 .18998719 .07826233 .18998719 .15621948V.49609376L.18299866 .50209048 .025985718 .47709657V.45210267L.06399536 .44711305C.08999634 .44309999 .09599304 .43811036 .09599304 .40213014V.13822937C.09599304 .023269654 .1639862-.01171875 .23799134-.01171875 .32299806-.01171875 .3919983 .04626465 .42099 .060272218L.43099977 0H.59098818Z"/>
<path id="font_1_8" d="M.5289917 .34295655C.5289917 .4439392 .47399903 .5019531 .38198854 .5019531 .30799867 .5019531 .2619934 .46594239 .19999695 .4259491L.18598938 .5019531 .036987306 .47694398V.45195008L.07499695 .4469452C.100997928 .4429474 .10699463 .4379425 .10699463 .40194703V.08699036C.10699463 .035995485 .10398865 .033996583 .03199768 .0289917V0H.27598573V.0289917C.20498657 .033996583 .20098877 .035995485 .20098877 .08699036V.32095338C.20098877 .34596253 .20298767 .35995484 .21099854 .37594605 .23199463 .4149475 .2769928 .44795228 .32998658 .44795228 .397995 .44795228 .43499757 .40994264 .43499757 .32295228V.08699036C.43499757 .035995485 .43199159 .033996583 .3600006 .0289917V0H.60398867V.0289917C.5329895 .033996583 .5289917 .035995485 .5289917 .08699036V.34295655Z"/>
<path id="font_1_5" d="M.1329956-.01171875C.17199707-.01171875 .19499207 .015274048 .19599915 .05126953 .19599915 .088272098 .17199707 .11627197 .1329956 .11627197 .09498596 .11627197 .069992069 .088272098 .069992069 .05126953 .069992069 .015274048 .09498596-.01171875 .1329956-.01171875M.1329956 .3622284C.17199707 .3622284 .19499207 .3892212 .19599915 .42622376 .19599915 .46221925 .17199707 .49023438 .1329956 .49023438 .09498596 .49023438 .069992069 .46221925 .069992069 .42622376 .069992069 .3892212 .09498596 .3622284 .1329956 .3622284Z"/>
<path id="font_3_4" d="M.070999149 .45393373 .07398987 .42893983 .14199829 .43093873C.1639862 .43193055 .16899109 .41493226 .1769867 .36291505 .18798828 .28489686 .20999146 .09286499 .20999146 .0128479 .20999146-.017166138 .20799256-.058166505 .18598938-.11117554 .16799927-.15318299 .14199829-.18218994 .12199402-.18218994 .10699463-.18218994 .09599304-.17118836 .08099365-.15118408 .068984989-.13517761 .06098938-.127182 .04598999-.127182 .019989014-.12818909-.005004883-.15818787-.005004883-.18719483-.005004883-.21418762 .023986817-.2421875 .067993167-.2421875 .15299988-.2421875 .18998719-.17919922 .27799989-.027160645 .2979889 .0068511965 .35798646 .11286926 .41999818 .21488953 .47698976 .30891419 .5399933 .40592958 .5399933 .4459381 .5399933 .48094178 .5289917 .5019531 .5219879 .5019531 .5029907 .5019531 .46899415 .49394227 .44400025 .47694398 .44499208 .4419403 .44299317 .3809204 .43099977 .33891297 .4149933 .28289796 .35598756 .17488098 .2899933 .06085205H.2869873C.27999879 .21388245 .26098634 .42492677 .24699402 .49795533L.23899842 .5019531 .070999149 .45393373Z"/>
<path id="font_3_2" d="M.18399048 .0002746582 .3600006 .7371979 .35499574 .7421875 .17599488 .71824648 .16999817 .6953125 .22698975 .68829348C.2519989 .6852875 .2559967 .67826846 .24699402 .63920596L.09199524-.01171875 .18399048 .0002746582M.5499878 .5019531C.5099945 .5019531 .46099855 .47094728 .4099884 .427948 .35398866 .378891 .3019867 .32374574 .25498963 .26660157 .27398683 .2027893 .2979889 .14396668 .32598878 .08314514 .35499574 .01927185 .38398744-.01171875 .43199159-.01171875 .49598695-.01171875 .5399933 .045272829 .56999209 .12901306L.54499819 .14196778C.5169983 .08215332 .49198915 .043273927 .46499635 .043273927 .44799806 .043273927 .43399049 .062210084 .40899659 .11405945 .37799073 .17686463 .35299684 .2416687 .33399964 .30870057 .3619995 .34075929 .43998719 .4259491 .47599793 .4259491 .4909973 .4259491 .5019989 .42092896 .5249939 .40690614 .5319977 .40293885 .5419922 .39894105 .5529938 .39894105 .58099368 .39894105 .60198977 .427948 .60198977 .4529419 .60198977 .47994996 .58898928 .5019531 .5499878 .5019531Z"/>
<path id="font_1_7" d="M.036987306 .47694398V.45195008L.07499695 .4469452C.100997928 .4429474 .10699463 .43795777 .10699463 .40194703V.08699036C.10699463 .035995485 .10398865 .033996583 .03199768 .0289917V0H.27598573V.0289917C.20498657 .033996583 .20098877 .035995485 .20098877 .08699036V.49609376L.19400025 .5020752 .036987306 .47694398M.15299988 .71484377C.116989139 .71484377 .09199524 .6888428 .09199524 .65283206 .09199524 .61782839 .116989139 .5928345 .15299988 .5928345 .18998719 .5928345 .21299744 .61782839 .21398926 .65283206 .21398926 .6888428 .18998719 .71484377 .15299988 .71484377Z"/>
<path id="font_1_10" d="M.36698915 .35102845V.46794129C.33399964 .49194337 .2829895 .5019531 .23799134 .5019531 .12998963 .5019531 .056991579 .45095826 .055999757 .35603334 .056991579 .27308656 .12399292 .2361145 .20698548 .21113587 .2519989 .19714356 .31498719 .17416382 .31498719 .10621643 .31498719 .055252077 .2749939 .023269654 .22200012 .023269654 .14099121 .023269654 .09599304 .082229617 .07598877 .16716004H.04699707L.056991579 .03627014C.09298706 .004272461 .1539917-.01171875 .21299744-.01171875 .33198548-.01171875 .3999939 .051254274 .3999939 .13618469 .3999939 .2241211 .34599305 .26409913 .24299622 .29606629 .20199585 .30906678 .13598633 .3300476 .13598633 .3860016 .13699341 .43795777 .17599488 .46694947 .22599793 .46694947 .29699708 .46694947 .33099366 .4119873 .33799745 .35102845H.36698915Z"/>
<path id="font_1_6" d="M.44099427 .2627716C.46199037 .2627716 .48098756 .2677765 .48098756 .30078126 .48098756 .35983277 .46199037 .5019531 .2789917 .5019531 .12298584 .5019531 .04899597 .39086915 .04899597 .24082947 .04899597 .08317566 .116989139-.01373291 .27999879-.01171875 .3909912-.010726929 .44799806 .050247194 .47499085 .1290741L.44499208 .14503479C.4169922 .08717346 .3789978 .039276124 .2999878 .039276124 .17599488 .039276124 .15098572 .15901184 .15299988 .2627716H.44099427M.1539917 .30078126C.1539917 .34181214 .16899109 .46694947 .272995 .46694947 .3659973 .46694947 .3769989 .37184144 .3769989 .33280946 .3769989 .31378175 .37098695 .30078126 .34298707 .30078126H.1539917Z"/>
<path id="font_4_2" d="M.07998657 .28173829C.07998657 .24674988 .10798645 .21875 .14299011 .21875 .17799378 .21875 .20599365 .24674988 .20599365 .28173829 .20599365 .31674195 .17799378 .34474183 .14299011 .34474183 .10798645 .34474183 .07998657 .31674195 .07998657 .28173829Z"/>
<path id="font_4_1" d="M.2769928 .50541689C.2829895 .5204315 .28399659 .5294342 .28399659 .53344729 .28399659 .5544586 .2539978 .56347659 .22299195 .56347659 .19299317 .56347659 .1619873 .5544586 .15899658 .53944399L.053985597 .05303955C.053985597 .046035768 .067993167 .040039064 .07998657 .040039064 .08799744 .040039064 .09599304 .043029787 .09799194 .048034669L.2769928 .50541689Z"/>
<path id="font_4_3" d="M.084991458 .31092835V.2529297H.33099366V.0068359377H.3889923V.2529297H.6349945V.31092835H.3889923V.5566406H.33099366V.31092835H.084991458Z"/>
<path id="font_3_3" d="M.42799378 .45222474 .43899537 .49023438H.31199647L.34599305 .6092224 .33399964 .6162262 .23699951 .53923037 .22399903 .49023438H.14299011L.13198853 .45222474H.21499634L.125 .08627319C.10998535 .029266358 .12199402-.01171875 .17199707-.01171875 .2519989-.01171875 .31599427 .054275514 .35598756 .1292572L.33399964 .1462555C.31098939 .10726929 .2599945 .040267946 .22898865 .040267946 .20799256 .040267946 .20799256 .0632782 .21398926 .088272098L.30299378 .45222474H.42799378Z"/>
</defs>
<path transform="matrix(1.00003,0,0,-1.00002,1.3920212,126.34323)" stroke-width=".3985" stroke-linecap="butt" stroke-miterlimit="10" stroke-linejoin="miter" fill="none" stroke="#cbcbcb" d="M0 0V125.24484M47.72661 0V125.24484M95.45322 0V125.24484M143.17983 0V125.24484M190.90644 0V125.24484M238.63304 0V125.24484"/>
<path transform="matrix(1.00003,0,0,-1.00002,1.3920212,126.34323)" stroke-width=".3985" stroke-linecap="butt" stroke-miterlimit="10" stroke-linejoin="miter" fill="none" stroke="#cbcbcb" d="M71.5899 0V125.24484M119.31651 0V125.24484M167.04314 0V125.24484M214.76975 0V125.24484"/>
<path transform="matrix(1.00003,0,0,-1.00002,1.3920212,126.34323)" stroke-width=".3985" stroke-linecap="butt" stroke-miterlimit="10" stroke-linejoin="miter" fill="none" stroke="#cbcbcb" d="M0 58.14938H238.63304"/>
<path transform="matrix(1.00003,0,0,-1.00002,1.3920212,126.34323)" stroke-width=".3985" stroke-linecap="butt" stroke-miterlimit="10" stroke-linejoin="miter" fill="none" stroke="#cbcbcb" d="M0 102.87968H238.63304"/>
<path transform="matrix(1.00003,0,0,-1.00002,1.3920212,126.34323)" stroke-width=".19925" stroke-linecap="butt" stroke-miterlimit="10" stroke-linejoin="miter" fill="none" stroke="#929292" d="M0 12.00163V14.83653M47.72661 12.00163V14.83653M95.45322 12.00163V14.83653M143.17983 12.00163V14.83653M190.90644 12.00163V14.83653M238.63304 12.00163V14.83653"/>
<path transform="matrix(1.00003,0,0,-1.00002,1.3920212,126.34323)" stroke-width=".19925" stroke-linecap="butt" stroke-miterlimit="10" stroke-linejoin="miter" fill="none" stroke="#929292" d="M71.5899 11.29312V15.54503M119.31651 11.29312V15.54503M167.04314 11.29312V15.54503M214.76975 11.29312V15.54503"/>
<path transform="matrix(1.00003,0,0,-1.00002,1.3920212,126.34323)" stroke-width=".19925" stroke-linecap="butt" stroke-miterlimit="10" stroke-linejoin="miter" fill="none" stroke="#929292" d="M22.4459 58.14938H25.28069"/>
<path transform="matrix(1.00003,0,0,-1.00002,1.3920212,126.34323)" stroke-width=".19925" stroke-linecap="butt" stroke-miterlimit="10" stroke-linejoin="miter" fill="none" stroke="#929292" d="M21.73743 102.87968H25.98915"/>
<path transform="matrix(1.00003,0,0,-1.00002,1.3920212,126.34323)" stroke-width=".99628" stroke-linecap="butt" stroke-miterlimit="10" stroke-linejoin="miter" fill="none" stroke="#000000" d="M0 13.41908H235.74384"/>
<path transform="matrix(1.00003,0,0,-1.00002,237.14295,112.92388)" d="M2.8892 0-1.73352 2.31136 0 0-1.73352-2.31136"/>
<path transform="matrix(1.00003,0,0,-1.00002,1.3920212,126.34323)" stroke-width=".99628" stroke-linecap="butt" stroke-miterlimit="10" stroke-linejoin="miter" fill="none" stroke="#000000" d="M23.8633 0V122.35562"/>
<path transform="matrix(0,-1.00002,-1.00003,-0,25.256039,3.9851609)" d="M2.8892 0-1.73352 2.31136 0 0-1.73352-2.31136"/>
<use data-text="1" xlink:href="#font_1_1" transform="matrix(7.3327205,0,0,-7.332647,71.03911,123.65718)"/>
<use data-text="2" xlink:href="#font_1_2" transform="matrix(7.3327205,0,0,-7.332647,118.76755,123.65718)"/>
<use data-text="3" xlink:href="#font_1_3" transform="matrix(7.3327205,0,0,-7.332647,166.495,123.65718)"/>
<use data-text="4" xlink:href="#font_1_4" transform="matrix(7.3327205,0,0,-7.332647,214.22342,123.65718)"/>
<use data-text="2" xlink:href="#font_1_2" transform="matrix(7.3327205,0,0,-7.332647,15.542446,25.916214)"/>
<g clip-path="url(#clip_2)">
<path transform="matrix(1.00003,0,0,-1.00002,1.3920212,126.34323)" stroke-width=".99628" stroke-linecap="butt" stroke-dasharray="2.98883,2.98883" stroke-miterlimit="10" stroke-linejoin="miter" fill="none" stroke="#000000" d="M71.5899 58.14938V58.14938L190.90644 102.87968"/>
<path transform="matrix(1.00003,0,0,-1.00002,1.3920212,126.34323)" stroke-width=".99628" stroke-linecap="butt" stroke-dasharray="2.98883,2.98883" stroke-miterlimit="10" stroke-linejoin="miter" fill="none" stroke="#000000" d="M71.5899 13.41908V13.41908 102.87968"/>
<path transform="matrix(1.00003,0,0,-1.00002,1.3920212,126.34323)" stroke-width=".99628" stroke-linecap="butt" stroke-dasharray="2.98883,2.98883" stroke-miterlimit="10" stroke-linejoin="miter" fill="none" stroke="#000000" d="M190.90644 13.41908V13.41908 102.87968"/>
<path transform="matrix(1.00003,0,0,-1.00002,1.3920212,126.34323)" stroke-width=".99628" stroke-linecap="butt" stroke-dasharray="2.98883,2.98883" stroke-miterlimit="10" stroke-linejoin="miter" fill="none" stroke="#000000" d="M71.5899 102.87968V102.87968H190.90644"/>
<path transform="matrix(1.00003,0,0,-1.00002,1.3920212,126.34323)" stroke-width=".99628" stroke-linecap="butt" stroke-miterlimit="10" stroke-linejoin="miter" fill="none" stroke="#000000" d="M71.5899 14.25098V55.08098"/>
<path transform="matrix(0,1.00002,1.00003,0,72.98407,112.091968)" stroke-width=".79701" stroke-linecap="round" stroke-linejoin="round" fill="none" stroke="#000000" d="M-1.73352 2.31136C-1.58905 1.4446 0 .14444 .43336 0 0-.14444-1.58905-1.4446-1.73352-2.31136"/>
<path transform="matrix(0,-1.00002,-1.00003,-0,72.98407,71.261157)" stroke-width=".79701" stroke-linecap="round" stroke-linejoin="round" fill="none" stroke="#000000" d="M-1.73352 2.31136C-1.58905 1.4446 0 .14444 .43336 0 0-.14444-1.58905-1.4446-1.73352-2.31136"/>
<path transform="matrix(1.00003,0,0,-1.00002,1.3920212,126.34323)" stroke-width=".99628" stroke-linecap="butt" stroke-miterlimit="10" stroke-linejoin="miter" fill="none" stroke="#000000" d="M200.45175 14.25098V102.04779"/>
<path transform="matrix(0,1.00002,1.00003,0,201.8498,112.091968)" stroke-width=".79701" stroke-linecap="round" stroke-linejoin="round" fill="none" stroke="#000000" d="M-1.73352 2.31136C-1.58905 1.4446 0 .14444 .43336 0 0-.14444-1.58905-1.4446-1.73352-2.31136"/>
<path transform="matrix(0,-1.00002,-1.00003,-0,201.8498,24.293396)" stroke-width=".79701" stroke-linecap="round" stroke-linejoin="round" fill="none" stroke="#000000" d="M-1.73352 2.31136C-1.58905 1.4446 0 .14444 .43336 0 0-.14444-1.58905-1.4446-1.73352-2.31136"/>
<path transform="matrix(1.00003,0,0,-1.00002,1.3920212,126.34323)" stroke-width=".99628" stroke-linecap="butt" stroke-miterlimit="10" stroke-linejoin="miter" fill="none" stroke="#000000" d="M72.42181 4.47302H190.07454"/>
<path transform="matrix(-1.00003,-0,0,1.00002,73.816,121.870128)" stroke-width=".79701" stroke-linecap="round" stroke-linejoin="round" fill="none" stroke="#000000" d="M-1.73352 2.31136C-1.58905 1.4446 0 .14444 .43336 0 0-.14444-1.58905-1.4446-1.73352-2.31136"/>
<path transform="matrix(1.00003,0,0,-1.00002,191.47226,121.870128)" stroke-width=".79701" stroke-linecap="round" stroke-linejoin="round" fill="none" stroke="#000000" d="M-1.73352 2.31136C-1.58905 1.4446 0 .14444 .43336 0 0-.14444-1.58905-1.4446-1.73352-2.31136"/>
<path transform="matrix(1.00003,0,0,-1.00002,1.3920212,126.34323)" d="M125.01982-.4075H137.47653V12.92095H125.01982Z" fill="#ffffff"/>
<use data-text="h" xlink:href="#font_3_1" transform="matrix(9.165875,0,0,-9.165783,129.61588,123.471179)"/>
<use data-text="r" xlink:href="#font_1_9" transform="matrix(9.165875,0,0,-9.165783,119.68758,19.684098)"/>
<use data-text="u" xlink:href="#font_1_11" transform="matrix(9.165875,0,0,-9.165783,123.31727,19.684098)"/>
<use data-text="n" xlink:href="#font_1_8" transform="matrix(9.165875,0,0,-9.165783,128.88095,19.684098)"/>
<use data-text=":" xlink:href="#font_1_5" transform="matrix(9.165875,0,0,-9.165783,134.55463,19.684098)"/>
<use data-text="h" xlink:href="#font_3_1" transform="matrix(9.165875,0,0,-9.165783,139.54317,19.684098)"/>
<path transform="matrix(1.00003,0,0,-1.00002,1.3920212,126.34323)" d="M63.38416 29.19225H79.79566V42.37623H63.38416Z" fill="#ffffff"/>
<use data-text="y" xlink:href="#font_3_4" transform="matrix(9.165875,0,0,-9.165783,68.476039,91.69853)"/>
<use data-text="k" xlink:href="#font_3_2" transform="matrix(6.9661095,0,0,-6.9660398,73.16818,93.39757)"/>
<use data-text="r" xlink:href="#font_1_9" transform="matrix(9.165875,0,0,-9.165783,28.22483,47.71566)"/>
<use data-text="i" xlink:href="#font_1_7" transform="matrix(9.165875,0,0,-9.165783,31.854523,47.71566)"/>
<use data-text="s" xlink:href="#font_1_10" transform="matrix(9.165875,0,0,-9.165783,34.52179,47.71566)"/>
<use data-text="e" xlink:href="#font_1_6" transform="matrix(9.165875,0,0,-9.165783,38.518114,47.71566)"/>
<use data-text=":" xlink:href="#font_1_5" transform="matrix(9.165875,0,0,-9.165783,43.22937,47.71566)"/>
<use data-text="h" xlink:href="#font_3_1" transform="matrix(9.165875,0,0,-9.165783,48.22943,47.71566)"/>
<use data-text="&#x00b7;" xlink:href="#font_4_2" transform="matrix(9.165875,0,0,-9.165783,55.504655,47.71566)"/>
<use data-text="y" xlink:href="#font_3_4" transform="matrix(9.165875,0,0,-9.165783,59.771783,47.71566)"/>
<use data-text="&#x2032;" xlink:href="#font_4_1" transform="matrix(6.9661095,0,0,-6.9660398,64.90193,44.099588)"/>
<use data-text="k" xlink:href="#font_3_2" transform="matrix(6.9661095,0,0,-6.9660398,64.46391,51.43174)"/>
<path transform="matrix(1.00003,0,0,-1.00002,1.3920212,126.34323)" d="M191.40457 51.55739H216.52353V64.74137H191.40457Z" fill="#ffffff"/>
<use data-text="y" xlink:href="#font_3_4" transform="matrix(9.165875,0,0,-9.165783,196.49988,69.33309)"/>
<use data-text="k" xlink:href="#font_3_2" transform="matrix(6.9661095,0,0,-6.9660398,201.19203,71.03212)"/>
<use data-text="+" xlink:href="#font_4_3" transform="matrix(6.9661095,0,0,-6.9660398,205.51517,71.03212)"/>
<use data-text="1" xlink:href="#font_1_1" transform="matrix(6.9661095,0,0,-6.9660398,210.52832,71.03212)"/>
</g>
<path transform="matrix(1.00003,0,0,-1.00002,1.3920212,126.34323)" d="M73.58246 58.14938C73.58246 59.24986 72.69038 60.14194 71.5899 60.14194 70.48944 60.14194 69.59735 59.24986 69.59735 58.14938 69.59735 57.04892 70.48944 56.15683 71.5899 56.15683 72.69038 56.15683 73.58246 57.04892 73.58246 58.14938ZM71.5899 58.14938" fill="#0000cc"/>
<path transform="matrix(1.00003,0,0,-1.00002,1.3920212,126.34323)" stroke-width=".99628" stroke-linecap="butt" stroke-miterlimit="10" stroke-linejoin="miter" fill="none" stroke="#0000ff" d="M73.58246 58.14938C73.58246 59.24986 72.69038 60.14194 71.5899 60.14194 70.48944 60.14194 69.59735 59.24986 69.59735 58.14938 69.59735 57.04892 70.48944 56.15683 71.5899 56.15683 72.69038 56.15683 73.58246 57.04892 73.58246 58.14938ZM71.5899 58.14938"/>
<path transform="matrix(1.00003,0,0,-1.00002,1.3920212,126.34323)" d="M192.89899 102.87968C192.89899 103.98016 192.00691 104.87224 190.90644 104.87224 189.80597 104.87224 188.91388 103.98016 188.91388 102.87968 188.91388 101.77922 189.80597 100.88713 190.90644 100.88713 192.00691 100.88713 192.89899 101.77922 192.89899 102.87968ZM190.90644 102.87968" fill="#0000cc"/>
<path transform="matrix(1.00003,0,0,-1.00002,1.3920212,126.34323)" stroke-width=".99628" stroke-linecap="butt" stroke-miterlimit="10" stroke-linejoin="miter" fill="none" stroke="#0000ff" d="M192.89899 102.87968C192.89899 103.98016 192.00691 104.87224 190.90644 104.87224 189.80597 104.87224 188.91388 103.98016 188.91388 102.87968 188.91388 101.77922 189.80597 100.88713 190.90644 100.88713 192.00691 100.88713 192.89899 101.77922 192.89899 102.87968ZM190.90644 102.87968"/>
<path transform="matrix(1.00003,0,0,-1.00002,1.3920212,126.34323)" stroke-width=".99628" stroke-linecap="butt" stroke-miterlimit="10" stroke-linejoin="miter" fill="none" stroke="#0000ff" d=""/>
<use data-text="t" xlink:href="#font_3_3" transform="matrix(10.036701,0,0,-10.036601,231.83895,109.138889)"/>
<use data-text="y" xlink:href="#font_3_4" transform="matrix(10.036701,0,0,-10.036601,29.498864,9.757896)"/>
</svg>
