<svg xmlns="http://www.w3.org/2000/svg" xmlns:xlink="http://www.w3.org/1999/xlink" version="1.1" width="122" height="37" viewBox="0 0 122 37">
<defs>
<path id="font_1_1" d="M.42799378 .45222474 .43899537 .49023438H.31199647L.34599305 .6092224 .33399964 .6162262 .23699951 .53923037 .22399903 .49023438H.14299011L.13198853 .45222474H.21499634L.125 .08627319C.10998535 .029266358 .12199402-.01171875 .17199707-.01171875 .2519989-.01171875 .31599427 .054275514 .35598756 .1292572L.33399964 .1462555C.31098939 .10726929 .2599945 .040267946 .22898865 .040267946 .20799256 .040267946 .20799256 .0632782 .21398926 .088272098L.30299378 .45222474H.42799378Z"/>
<path id="font_2_4" d="M.3809967 .6720276C.5589905 .6720276 .59999087 .4931183 .60198977 .3461914 .59999087 .19924927 .5589905 .020339966 .3809967 .020339966 .20298767 .020339966 .1619873 .19924927 .1599884 .3461914 .1619873 .4931183 .20298767 .6720276 .3809967 .6720276M.3809967 .70703127C.2709961 .70703127 .18899536 .6730194 .1329956 .61006167 .07899475 .55007937 .04798889 .4591217 .04798889 .3461914 .04798889 .23423767 .07899475 .14228821 .1329956 .08232117 .18899536 .019348145 .2709961-.0146484379 .3809967-.0146484379 .49198915-.0146484379 .57299807 .019348145 .6289978 .08232117 .6839905 .14228821 .71398928 .23423767 .71398928 .3461914 .71398928 .4591217 .6839905 .55007937 .6289978 .61006167 .57299807 .6730194 .49198915 .70703127 .3809967 .70703127Z"/>
<path id="font_2_3" d="M.033996583 .6923828V.66337588C.12199402 .6573639 .12399292 .655365 .12399292 .5993347V.20309448C.12399292 .15007019 .12199402 .11204529 .116989139 .07902527 .11099243 .037002565 .08699036 .032989503 .034988405 .0289917V0H.27198792V.0289917C.20698548 .033996583 .18299866 .037002565 .1769867 .07902527 .17199707 .11204529 .16999817 .15007019 .16999817 .20309448V.6023407H.17199707C.31498719 .4012146 .45700074 .20109558 .59799197 0H.6639862V.48927308C.6639862 .54229739 .66600039 .58032229 .67099 .6133423 .6769867 .655365 .70098879 .6593628 .7529907 .66337588V.6923828H.5159912V.66337588C.58099368 .658371 .6049957 .655365 .61099246 .6133423 .6159973 .58032229 .6179962 .54229739 .6179962 .48927308V.13806153L.6159973 .14006043C.4850006 .32417298 .35499574 .5082855 .22599793 .6923828H.033996583Z"/>
<path id="font_2_10" d="M.18899536 .5019531 .036987306 .47694398V.45195008L.07499695 .4469452C.100997928 .4429474 .10699463 .4379425 .10699463 .40194703V.08699036C.10699463 .035995485 .101989749 .033996583 .03199768 .0289917V0H.29599V.0289917C.20698548 .033996583 .20098877 .035995485 .20098877 .08699036V.32095338C.20098877 .39794923 .23498535 .4239502 .2579956 .4239502 .27398683 .4239502 .29100038 .4179535 .31999208 .40194703 .32699586 .39794923 .33499146 .39694215 .33999635 .39694215 .3639984 .39694215 .38598634 .4219513 .38598634 .4529419 .38598634 .47494508 .37199403 .5019531 .33299256 .5019531 .29699708 .5019531 .2669983 .47994996 .20098877 .4219513L.18899536 .5019531Z"/>
<path id="font_2_5" d="M.44099427 .2627716C.46199037 .2627716 .48098756 .2677765 .48098756 .30078126 .48098756 .35983277 .46199037 .5019531 .2789917 .5019531 .12298584 .5019531 .04899597 .39086915 .04899597 .24082947 .04899597 .08317566 .116989139-.01373291 .27999879-.01171875 .3909912-.010726929 .44799806 .050247194 .47499085 .1290741L.44499208 .14503479C.4169922 .08717346 .3789978 .039276124 .2999878 .039276124 .17599488 .039276124 .15098572 .15901184 .15299988 .2627716H.44099427M.1539917 .30078126C.1539917 .34181214 .16899109 .46694947 .272995 .46694947 .3659973 .46694947 .3769989 .37184144 .3769989 .33280946 .3769989 .31378175 .37098695 .30078126 .34298707 .30078126H.1539917Z"/>
<path id="font_2_6" d="M.2599945 .46694947C.30899049 .46694947 .3600006 .43093873 .3600006 .33392335 .3600006 .24989319 .31599427 .20588684 .2579956 .20588684 .20199585 .20588684 .15499878 .24989319 .15499878 .33392335 .15499878 .43293763 .20698548 .46694947 .2599945 .46694947M.2809906-.2071991C.19599915-.2071991 .13699341-.16319275 .13699341-.09118652 .13699341-.057174684 .14698792-.032180787 .16799927-.016174317 .18998719 .0008239746 .22299195 .0068359377 .2709961 .0068359377 .35899354 .0068359377 .42399598-.014175415 .42399598-.08918762 .42399598-.16918946 .35198976-.2071991 .2809906-.2071991M.3889923 .47094728C.36099244 .48994447 .30599977 .5019531 .2599945 .5019531 .10699463 .5019531 .052993776 .40792848 .052993776 .33392335 .052993776 .23989868 .114990238 .19688416 .16099549 .18489075V.18289185C.10699463 .1618805 .068984989 .13285828 .068984989 .09384155 .068984989 .05882263 .10899353 .020828248 .15699768 .015823365V.013824463C.11399841-.00016784668 .041992189-.024169922 .041992189-.09617615 .041992189-.19718933 .14199829-.2421875 .2579956-.2421875 .31799317-.2421875 .3809967-.23019409 .42900086-.20118714 .47499085-.17318726 .5079956-.12619019 .5079956-.06417847 .5079956 .043823244 .42199708 .081832889 .31498719 .081832889H.23498535C.16299439 .081832889 .1519928 .10585022 .1519928 .12486267 .1519928 .15388489 .18998719 .16989136 .20298767 .17388916 .22200012 .17189026 .24299622 .17089844 .2539978 .17089844 .34899903 .17089844 .45599366 .21289063 .45599366 .33392335 .45599366 .3759308 .44299317 .41093446 .42599488 .42793275L.5049896 .4399414 .5249939 .50294497 .5169983 .51194766 .3889923 .47094728Z"/>
<path id="font_2_7" d="M.036987306 .47694398V.45195008L.07499695 .4469452C.100997928 .4429474 .10699463 .43795777 .10699463 .40194703V.08699036C.10699463 .035995485 .10398865 .033996583 .03199768 .0289917V0H.27598573V.0289917C.20498657 .033996583 .20098877 .035995485 .20098877 .08699036V.49609376L.19400025 .5020752 .036987306 .47694398M.15299988 .71484377C.116989139 .71484377 .09199524 .6888428 .09199524 .65283206 .09199524 .61782839 .116989139 .5928345 .15299988 .5928345 .18998719 .5928345 .21299744 .61782839 .21398926 .65283206 .21398926 .6888428 .18998719 .71484377 .15299988 .71484377Z"/>
<path id="font_2_9" d="M.28799439 .5019531C.12799073 .5019531 .04899597 .40698243 .04899597 .24510193 .04899597 .083236698 .12799073-.01171875 .28799439-.01171875 .44999696-.01171875 .5279999 .083236698 .5279999 .24510193 .5279999 .40698243 .44999696 .5019531 .28799439 .5019531M.15299988 .24510193C.15299988 .38301087 .19699097 .46694947 .28799439 .46694947 .3809967 .46694947 .42399598 .38301087 .42399598 .24510193 .42399598 .10720825 .3809967 .023269654 .28799439 .023269654 .19699097 .023269654 .15299988 .10720825 .15299988 .24510193Z"/>
<path id="font_2_8" d="M.5289917 .34295655C.5289917 .4439392 .47399903 .5019531 .38198854 .5019531 .30799867 .5019531 .2619934 .46594239 .19999695 .4259491L.18598938 .5019531 .036987306 .47694398V.45195008L.07499695 .4469452C.100997928 .4429474 .10699463 .4379425 .10699463 .40194703V.08699036C.10699463 .035995485 .10398865 .033996583 .03199768 .0289917V0H.27598573V.0289917C.20498657 .033996583 .20098877 .035995485 .20098877 .08699036V.32095338C.20098877 .34596253 .20298767 .35995484 .21099854 .37594605 .23199463 .4149475 .2769928 .44795228 .32998658 .44795228 .397995 .44795228 .43499757 .40994264 .43499757 .32295228V.08699036C.43499757 .035995485 .43199159 .033996583 .3600006 .0289917V0H.60398867V.0289917C.5329895 .033996583 .5289917 .035995485 .5289917 .08699036V.34295655Z"/>
<path id="font_2_1" d="M.4850006 .13195801 .45700074 .13696289C.43598939 .08299255 .41600038 .07598877 .37599183 .07598877H.11999512C.13598633 .1279602 .19499207 .19892884 .28799439 .2658844 .38398744 .33584596 .45799256 .38082887 .45799256 .49276734 .45799256 .63168337 .3659973 .6796875 .26098634 .6796875 .12399292 .6796875 .052993776 .5967102 .052993776 .54473879 .052993776 .51075747 .09098816 .49476625 .10798645 .49476625 .12599182 .49476625 .1329956 .50476077 .13699341 .5217438 .15299988 .5897064 .19198609 .64468386 .2539978 .64468386 .33099366 .64468386 .35299684 .5797119 .35299684 .50675967 .35299684 .3998108 .29899598 .33984376 .21199036 .26289369 .08898926 .15594483 .04598999 .08798218 .026992798 .009994507L.036987306 0H.45098878L.4850006 .13195801Z"/>
<path id="font_2_2" d="M.034988405 .6923828V.66337588C.12298584 .6573639 .125 .655365 .125 .5993347V.093048099C.125 .037002565 .12298584 .035003663 .034988405 .0289917V0H.32998658V.0289917C.22698975 .035003663 .22399903 .037002565 .22399903 .093048099V.32722474H.3639984C.44898988 .32722474 .45298768 .3032074 .46199037 .23916626H.49198915V.4532776H.46199037C.45298768 .38923646 .44898988 .36523438 .3639984 .36523438H.22399903V.62135317C.22399903 .65437319 .22799683 .65737918 .26098634 .65737918H.3600006C.47599793 .65737918 .49899293 .6343689 .5130005 .5323181H.54299929V.6923828H.034988405Z"/>
</defs>
<path transform="matrix(1.00002,0,0,-1.00009,1.4913483,25.512856)" d="M34.0165-10.20503V23.81145H68.03302V-10.20503ZM68.03302 23.81145" fill="#d9ecd9"/>
<path transform="matrix(1.00002,0,0,-1.00009,1.4913483,25.512856)" stroke-width=".3985" stroke-linecap="butt" stroke-miterlimit="10" stroke-linejoin="miter" fill="none" stroke="#000000" d="M.45827 0H118.59952"/>
<path transform="matrix(-1.00002,-0,0,1.00009,1.9496274,25.512856)" stroke-width=".31879" stroke-linecap="round" stroke-linejoin="round" fill="none" stroke="#000000" d="M-1.19551 1.59401C-1.09587 .99626 0 .09961 .29886 0 0-.09961-1.09587-.99626-1.19551-1.59401"/>
<path transform="matrix(1.00002,0,0,-1.00009,120.09324,25.512856)" stroke-width=".31879" stroke-linecap="round" stroke-linejoin="round" fill="none" stroke="#000000" d="M-1.19551 1.59401C-1.09587 .99626 0 .09961 .29886 0 0-.09961-1.09587-.99626-1.19551-1.59401"/>
<use data-text="t" xlink:href="#font_1_1" transform="matrix(9.165783,0,0,-9.166425,116.89767,34.56167)"/>
<path transform="matrix(1.00002,0,0,-1.00009,1.4913483,25.512856)" stroke-width=".19925" stroke-linecap="butt" stroke-dasharray="2.98883,2.98883" stroke-miterlimit="10" stroke-linejoin="miter" fill="none" stroke="#000000" d="M34.0165-10.20503V23.81145"/>
<path transform="matrix(1.00002,0,0,-1.00009,1.4913483,25.512856)" stroke-width="1.19553" stroke-linecap="butt" stroke-miterlimit="10" stroke-linejoin="miter" fill="none" stroke="#000000" d="M0 0H.33322 .66644 .99968 1.3329 1.66612 1.99936 2.3326 2.66583 2.99905 3.33229 3.66553 3.99875 4.33199 4.6652 4.99843 5.33168 5.6649 5.99812 6.33138 6.6646 6.99783 7.33105 7.66428 7.99751 8.33075 8.66399 8.99721 9.33044 9.66368 9.9969 10.33014 10.66336 10.99658 11.32982 11.66306 11.99628 12.32951 12.66275 12.99599 13.32921 13.66243 13.99567 14.32889 14.66214 14.99536 15.32858 15.66183 15.99506 16.3283 16.66151 16.99474 17.32797 17.66121 17.99443 18.32767 18.6609 18.99414 19.32736 19.66058 19.99382 20.32704 20.6603 20.99352 21.32674 21.65997 21.99321 22.32643 22.65967 22.99289 23.32613 23.65935 23.99258 24.32582 24.65904 24.9923 25.32552 25.65874 25.99197 26.3252 26.65843 26.99167 27.32489 27.65813 27.99136 28.32458 28.65782 28.99104 29.32428 29.6575 29.99074 30.32397 30.6572 30.99045 31.32367 31.65689 31.99013 32.32335 32.65659 32.9898"/>
<path transform="matrix(1.00002,0,0,-1.00009,1.4913483,25.512856)" stroke-width="1.19553" stroke-linecap="butt" stroke-miterlimit="10" stroke-linejoin="miter" fill="none" stroke="#000000" d="M35.80981 0C35.80981 .99042 35.00693 1.7933 34.0165 1.7933 33.02608 1.7933 32.22319 .99042 32.22319 0 32.22319-.99042 33.02608-1.7933 34.0165-1.7933 35.00693-1.7933 35.80981-.99042 35.80981 0ZM34.0165 0"/>
<path transform="matrix(1.00002,0,0,-1.00009,1.4913483,25.512856)" d="M35.80981 17.00824C35.80981 17.99866 35.00693 18.80156 34.0165 18.80156 33.02608 18.80156 32.22319 17.99866 32.22319 17.00824 32.22319 16.01782 33.02608 15.21492 34.0165 15.21492 35.00693 15.21492 35.80981 16.01782 35.80981 17.00824ZM34.0165 17.00824"/>
<path transform="matrix(1.00002,0,0,-1.00009,1.4913483,25.512856)" stroke-width="1.19553" stroke-linecap="butt" stroke-miterlimit="10" stroke-linejoin="miter" fill="none" stroke="#000000" d="M34.0165 17.00824H34.34973 34.68295 35.01619 35.34943 35.68265 36.01588 36.3491 36.68234 37.01556 37.3488 37.68204 38.01526 38.3485 38.68173 39.01495 39.34819 39.68141 40.01463 40.34789 40.6811 41.01434 41.34758 41.6808 42.01404 42.34726 42.6805 43.01372 43.34695 43.68019 44.01341 44.34665 44.67989 45.0131 45.34634 45.67957 46.01279 46.34604 46.67926 47.0125 47.34572 47.67896 48.01219 48.34541 48.67865 49.01187 49.34511 49.67834 50.01157 50.34479 50.67804 51.01126 51.3445 51.67772 52.01096 52.3442 52.67741 53.01065 53.34387 53.67711 54.01035 54.34357 54.6768 55.01004 55.34326 55.6765 56.00972 56.34294 56.67618 57.00941 57.34265 57.67587 58.00911 58.34235 58.67557 59.0088 59.34203 59.67525 60.0085 60.34172 60.67494 61.0082 61.34142 61.67465 62.00787 62.3411 62.67433 63.00757 63.3408 63.67403 64.00726 64.3405 64.67372 65.00696 65.34018 65.6734 66.00664 66.33987 66.6731 67.00633"/>
<path transform="matrix(1.00002,0,0,-1.00009,1.4913483,25.512856)" stroke-width="1.19553" stroke-linecap="butt" stroke-miterlimit="10" stroke-linejoin="miter" fill="none" stroke="#000000" d="M69.82634 17.00824C69.82634 17.99866 69.02345 18.80156 68.03302 18.80156 67.0426 18.80156 66.23972 17.99866 66.23972 17.00824 66.23972 16.01782 67.0426 15.21492 68.03302 15.21492 69.02345 15.21492 69.82634 16.01782 69.82634 17.00824ZM68.03302 17.00824"/>
<path transform="matrix(1.00002,0,0,-1.00009,1.4913483,25.512856)" d="M69.82634 0C69.82634 .99042 69.02345 1.7933 68.03302 1.7933 67.0426 1.7933 66.23972 .99042 66.23972 0 66.23972-.99042 67.0426-1.7933 68.03302-1.7933 69.02345-1.7933 69.82634-.99042 69.82634 0ZM68.03302 0"/>
<path transform="matrix(1.00002,0,0,-1.00009,1.4913483,25.512856)" stroke-width="1.19553" stroke-linecap="butt" stroke-miterlimit="10" stroke-linejoin="miter" fill="none" stroke="#000000" d="M68.03302 0H68.54817 69.06334 69.57849 70.09364 70.60881 71.12396 71.63911 72.15428 72.66945 73.1846 73.69975 74.2149 74.73007 75.24522 75.76039 76.27556 76.79071 77.30585 77.82101 78.33617 78.85133 79.3665 79.88167 80.3968 80.91196 81.42712 81.94228 82.45744 82.97261 83.48775 84.00291 84.51807 85.03323 85.54839 86.06355 86.5787 87.09386 87.60902 88.12418 88.63934 89.1545 89.66965 90.1848 90.69997 91.21513 91.73029 92.24544 92.76059 93.27576 93.79091 94.30608 94.82124 95.33638 95.85155 96.3667 96.88187 97.39702 97.91219 98.42734 98.94249 99.45766 99.97281 100.48798 101.00313 101.51828 102.03343 102.5486 103.06377 103.57892 104.09409 104.60922 105.12439 105.63954 106.15471 106.66988 107.18503 107.70018 108.21533 108.73048 109.24565 109.76082 110.27599 110.79112 111.30629 111.82144 112.3366 112.85176 113.36693 113.88206 114.39723 114.9124 115.42755 115.9427 116.45787 116.97302 117.48817 118.00334 118.51851 119.03366"/>
<use data-text="O" xlink:href="#font_2_4" transform="matrix(7.332647,0,0,-7.33316,46.862257,19.528317)" fill="#008000"/>
<use data-text="N" xlink:href="#font_2_3" transform="matrix(7.332647,0,0,-7.33316,52.449735,19.528317)" fill="#008000"/>
<use data-text="r" xlink:href="#font_2_10" transform="matrix(7.332647,0,0,-7.33316,39.151105,34.00862)" fill="#008000"/>
<use data-text="e" xlink:href="#font_2_5" transform="matrix(7.332647,0,0,-7.33316,41.864179,34.00862)" fill="#008000"/>
<use data-text="g" xlink:href="#font_2_6" transform="matrix(7.332647,0,0,-7.33316,45.63316,34.00862)" fill="#008000"/>
<use data-text="i" xlink:href="#font_2_7" transform="matrix(7.332647,0,0,-7.33316,49.446134,34.00862)" fill="#008000"/>
<use data-text="o" xlink:href="#font_2_9" transform="matrix(7.332647,0,0,-7.33316,51.579938,34.00862)" fill="#008000"/>
<use data-text="n" xlink:href="#font_2_8" transform="matrix(7.332647,0,0,-7.33316,55.81087,34.00862)" fill="#008000"/>
<use data-text="2" xlink:href="#font_2_1" transform="matrix(7.332647,0,0,-7.33316,61.99229,34.00862)" fill="#008000"/>
<use data-text="O" xlink:href="#font_2_4" transform="matrix(7.332647,0,0,-7.33316,11.450546,19.528317)" fill="#008000"/>
<use data-text="F" xlink:href="#font_2_2" transform="matrix(7.332647,0,0,-7.33316,17.038025,19.528317)" fill="#008000"/>
<use data-text="F" xlink:href="#font_2_2" transform="matrix(7.332647,0,0,-7.33316,21.290963,19.528317)" fill="#008000"/>
<use data-text="O" xlink:href="#font_2_4" transform="matrix(7.332647,0,0,-7.33316,87.98908,19.528317)" fill="#008000"/>
<use data-text="F" xlink:href="#font_2_2" transform="matrix(7.332647,0,0,-7.33316,93.57656,19.528317)" fill="#008000"/>
<use data-text="F" xlink:href="#font_2_2" transform="matrix(7.332647,0,0,-7.33316,97.8295,19.528317)" fill="#008000"/>
</svg>
