<svg xmlns="http://www.w3.org/2000/svg" xmlns:xlink="http://www.w3.org/1999/xlink" version="1.1" width="107" height="107" viewBox="0 0 107 107">
<defs>
<path id="font_1_1" d="M.42799378 .45222474 .43899537 .49023438H.31199647L.34599305 .6092224 .33399964 .6162262 .23699951 .53923037 .22399903 .49023438H.14299011L.13198853 .45222474H.21499634L.125 .08627319C.10998535 .029266358 .12199402-.01171875 .17199707-.01171875 .2519989-.01171875 .31599427 .054275514 .35598756 .1292572L.33399964 .1462555C.31098939 .10726929 .2599945 .040267946 .22898865 .040267946 .20799256 .040267946 .20799256 .0632782 .21398926 .088272098L.30299378 .45222474H.42799378Z"/>
<path id="font_1_2" d="M.070999149 .45393373 .07398987 .42893983 .14199829 .43093873C.1639862 .43193055 .16899109 .41493226 .1769867 .36291505 .18798828 .28489686 .20999146 .09286499 .20999146 .0128479 .20999146-.017166138 .20799256-.058166505 .18598938-.11117554 .16799927-.15318299 .14199829-.18218994 .12199402-.18218994 .10699463-.18218994 .09599304-.17118836 .08099365-.15118408 .068984989-.13517761 .06098938-.127182 .04598999-.127182 .019989014-.12818909-.005004883-.15818787-.005004883-.18719483-.005004883-.21418762 .023986817-.2421875 .067993167-.2421875 .15299988-.2421875 .18998719-.17919922 .27799989-.027160645 .2979889 .0068511965 .35798646 .11286926 .41999818 .21488953 .47698976 .30891419 .5399933 .40592958 .5399933 .4459381 .5399933 .48094178 .5289917 .5019531 .5219879 .5019531 .5029907 .5019531 .46899415 .49394227 .44400025 .47694398 .44499208 .4419403 .44299317 .3809204 .43099977 .33891297 .4149933 .28289796 .35598756 .17488098 .2899933 .06085205H.2869873C.27999879 .21388245 .26098634 .42492677 .24699402 .49795533L.23899842 .5019531 .070999149 .45393373Z"/>
<path id="font_2_1" d="M.07398987 .2861328V.21612549H.31900025V.2861328H.07398987Z"/>
<path id="font_2_5" d="M.12998963 .3657837C.12998963 .3487854 .1349945 .33779908 .147995 .33779908 .1599884 .33779908 .18699646 .34777833 .23498535 .34777833 .31999208 .34777833 .36799623 .27090455 .36799623 .18403626 .36799623 .065216068 .30899049 .023269654 .23799134 .023269654 .17199707 .023269654 .1289978 .07319641 .10998535 .12911988 .10398865 .14808655 .09399414 .15707398 .07998657 .15707398 .06199646 .15707398 .026992798 .13809204 .026992798 .10215759 .026992798 .05921936 .09599304-.01171875 .23699951-.01171875 .38198854-.01171875 .47299195 .06121826 .47299195 .18902588 .47299195 .32281495 .35798646 .3627777 .30299378 .3677826V.3717804C.35699464 .38078309 .44400025 .4207611 .44400025 .5197296 .44400025 .6306915 .35699464 .6796875 .25 .6796875 .117996219 .6796875 .052993776 .60369876 .052993776 .5607147 .052993776 .5297241 .08799744 .51272585 .101989749 .51272585 .114990238 .51272585 .12298584 .5197296 .1269989 .5327301 .14898682 .60069277 .18699646 .64468386 .24299622 .64468386 .32199098 .64468386 .34098817 .57470706 .34098817 .51872256 .34098817 .4587555 .31999208 .38378907 .23498535 .38378907 .18699646 .38378907 .1599884 .39378358 .147995 .39378358 .1349945 .39378358 .12998963 .38378907 .12998963 .3657837Z"/>
<path id="font_2_4" d="M.4850006 .13195801 .45700074 .13696289C.43598939 .08299255 .41600038 .07598877 .37599183 .07598877H.11999512C.13598633 .1279602 .19499207 .19892884 .28799439 .2658844 .38398744 .33584596 .45799256 .38082887 .45799256 .49276734 .45799256 .63168337 .3659973 .6796875 .26098634 .6796875 .12399292 .6796875 .052993776 .5967102 .052993776 .54473879 .052993776 .51075747 .09098816 .49476625 .10798645 .49476625 .12599182 .49476625 .1329956 .50476077 .13699341 .5217438 .15299988 .5897064 .19198609 .64468386 .2539978 .64468386 .33099366 .64468386 .35299684 .5797119 .35299684 .50675967 .35299684 .3998108 .29899598 .33984376 .21199036 .26289369 .08898926 .15594483 .04598999 .08798218 .026992798 .009994507L.036987306 0H.45098878L.4850006 .13195801Z"/>
<path id="font_2_3" d="M.43699647 0V.0289917L.35299684 .035995485C.33198548 .037994386 .31999208 .04598999 .31999208 .08496094V.67367556L.31498719 .6796875 .10899353 .6446991V.6197052L.20199585 .6087036C.21899414 .6067047 .22599793 .5987091 .22599793 .56973269V.08496094C.22599793 .065979007 .22299195 .053985597 .21699524 .04698181 .21199036 .039993287 .20399475 .036987306 .19299317 .035995485L.10899353 .0289917V0H.43699647Z"/>
<path id="font_2_2" d="M.2649994 .64468386C.3600006 .64468386 .3869934 .49682618 .3869934 .33398438 .3869934 .17112732 .3600006 .023269654 .2649994 .023269654 .16999817 .023269654 .14299011 .17112732 .14299011 .33398438 .14299011 .49682618 .16999817 .64468386 .2649994 .64468386M.2649994 .6796875C.099990848 .6796875 .040985109 .53378298 .040985109 .33398438 .040985109 .13417053 .099990848-.01171875 .2649994-.01171875 .42999269-.01171875 .4889984 .13417053 .4889984 .33398438 .4889984 .53378298 .42999269 .6796875 .2649994 .6796875Z"/>
</defs>
<path transform="matrix(1.00002,0,0,-1.00005,53.78746,53.83704)" stroke-width=".3985" stroke-linecap="butt" stroke-miterlimit="10" stroke-linejoin="miter" fill="none" stroke="#cbcbcb" d="M-39.6849-45.35419V45.35419"/>
<path transform="matrix(1.00002,0,0,-1.00005,53.78746,53.83704)" stroke-width=".3985" stroke-linecap="butt" stroke-miterlimit="10" stroke-linejoin="miter" fill="none" stroke="#cbcbcb" d="M-34.01564-45.35419V45.35419"/>
<path transform="matrix(1.00002,0,0,-1.00005,53.78746,53.83704)" stroke-width=".3985" stroke-linecap="butt" stroke-miterlimit="10" stroke-linejoin="miter" fill="none" stroke="#cbcbcb" d="M-28.34636-45.35419V45.35419"/>
<path transform="matrix(1.00002,0,0,-1.00005,53.78746,53.83704)" stroke-width=".3985" stroke-linecap="butt" stroke-miterlimit="10" stroke-linejoin="miter" fill="none" stroke="#cbcbcb" d="M-22.6771-45.35419V45.35419"/>
<path transform="matrix(1.00002,0,0,-1.00005,53.78746,53.83704)" stroke-width=".3985" stroke-linecap="butt" stroke-miterlimit="10" stroke-linejoin="miter" fill="none" stroke="#cbcbcb" d="M-17.00781-45.35419V45.35419"/>
<path transform="matrix(1.00002,0,0,-1.00005,53.78746,53.83704)" stroke-width=".3985" stroke-linecap="butt" stroke-miterlimit="10" stroke-linejoin="miter" fill="none" stroke="#cbcbcb" d="M-11.33855-45.35419V45.35419"/>
<path transform="matrix(1.00002,0,0,-1.00005,53.78746,53.83704)" stroke-width=".3985" stroke-linecap="butt" stroke-miterlimit="10" stroke-linejoin="miter" fill="none" stroke="#cbcbcb" d="M-5.66925-45.35419V45.35419"/>
<path transform="matrix(1.00002,0,0,-1.00005,53.78746,53.83704)" stroke-width=".3985" stroke-linecap="butt" stroke-miterlimit="10" stroke-linejoin="miter" fill="none" stroke="#cbcbcb" d="M0-45.35419V45.35419"/>
<path transform="matrix(1.00002,0,0,-1.00005,53.78746,53.83704)" stroke-width=".3985" stroke-linecap="butt" stroke-miterlimit="10" stroke-linejoin="miter" fill="none" stroke="#cbcbcb" d="M5.66925-45.35419V45.35419"/>
<path transform="matrix(1.00002,0,0,-1.00005,53.78746,53.83704)" stroke-width=".3985" stroke-linecap="butt" stroke-miterlimit="10" stroke-linejoin="miter" fill="none" stroke="#cbcbcb" d="M11.33855-45.35419V45.35419"/>
<path transform="matrix(1.00002,0,0,-1.00005,53.78746,53.83704)" stroke-width=".3985" stroke-linecap="butt" stroke-miterlimit="10" stroke-linejoin="miter" fill="none" stroke="#cbcbcb" d="M17.00781-45.35419V45.35419"/>
<path transform="matrix(1.00002,0,0,-1.00005,53.78746,53.83704)" stroke-width=".3985" stroke-linecap="butt" stroke-miterlimit="10" stroke-linejoin="miter" fill="none" stroke="#cbcbcb" d="M22.6771-45.35419V45.35419"/>
<path transform="matrix(1.00002,0,0,-1.00005,53.78746,53.83704)" stroke-width=".3985" stroke-linecap="butt" stroke-miterlimit="10" stroke-linejoin="miter" fill="none" stroke="#cbcbcb" d="M28.34636-45.35419V45.35419"/>
<path transform="matrix(1.00002,0,0,-1.00005,53.78746,53.83704)" stroke-width=".3985" stroke-linecap="butt" stroke-miterlimit="10" stroke-linejoin="miter" fill="none" stroke="#cbcbcb" d="M34.01564-45.35419V45.35419"/>
<path transform="matrix(1.00002,0,0,-1.00005,53.78746,53.83704)" stroke-width=".3985" stroke-linecap="butt" stroke-miterlimit="10" stroke-linejoin="miter" fill="none" stroke="#cbcbcb" d="M39.6849-45.35419V45.35419"/>
<path transform="matrix(1.00002,0,0,-1.00005,53.78746,53.83704)" stroke-width=".3985" stroke-linecap="butt" stroke-miterlimit="10" stroke-linejoin="miter" fill="none" stroke="#cbcbcb" d="M-45.35419-39.6849H45.35419"/>
<path transform="matrix(1.00002,0,0,-1.00005,53.78746,53.83704)" stroke-width=".3985" stroke-linecap="butt" stroke-miterlimit="10" stroke-linejoin="miter" fill="none" stroke="#cbcbcb" d="M-45.35419-34.01564H45.35419"/>
<path transform="matrix(1.00002,0,0,-1.00005,53.78746,53.83704)" stroke-width=".3985" stroke-linecap="butt" stroke-miterlimit="10" stroke-linejoin="miter" fill="none" stroke="#cbcbcb" d="M-45.35419-28.34636H45.35419"/>
<path transform="matrix(1.00002,0,0,-1.00005,53.78746,53.83704)" stroke-width=".3985" stroke-linecap="butt" stroke-miterlimit="10" stroke-linejoin="miter" fill="none" stroke="#cbcbcb" d="M-45.35419-22.6771H45.35419"/>
<path transform="matrix(1.00002,0,0,-1.00005,53.78746,53.83704)" stroke-width=".3985" stroke-linecap="butt" stroke-miterlimit="10" stroke-linejoin="miter" fill="none" stroke="#cbcbcb" d="M-45.35419-17.00781H45.35419"/>
<path transform="matrix(1.00002,0,0,-1.00005,53.78746,53.83704)" stroke-width=".3985" stroke-linecap="butt" stroke-miterlimit="10" stroke-linejoin="miter" fill="none" stroke="#cbcbcb" d="M-45.35419-11.33855H45.35419"/>
<path transform="matrix(1.00002,0,0,-1.00005,53.78746,53.83704)" stroke-width=".3985" stroke-linecap="butt" stroke-miterlimit="10" stroke-linejoin="miter" fill="none" stroke="#cbcbcb" d="M-45.35419-5.66925H45.35419"/>
<path transform="matrix(1.00002,0,0,-1.00005,53.78746,53.83704)" stroke-width=".3985" stroke-linecap="butt" stroke-miterlimit="10" stroke-linejoin="miter" fill="none" stroke="#cbcbcb" d="M-45.35419 0H45.35419"/>
<path transform="matrix(1.00002,0,0,-1.00005,53.78746,53.83704)" stroke-width=".3985" stroke-linecap="butt" stroke-miterlimit="10" stroke-linejoin="miter" fill="none" stroke="#cbcbcb" d="M-45.35419 5.66925H45.35419"/>
<path transform="matrix(1.00002,0,0,-1.00005,53.78746,53.83704)" stroke-width=".3985" stroke-linecap="butt" stroke-miterlimit="10" stroke-linejoin="miter" fill="none" stroke="#cbcbcb" d="M-45.35419 11.33855H45.35419"/>
<path transform="matrix(1.00002,0,0,-1.00005,53.78746,53.83704)" stroke-width=".3985" stroke-linecap="butt" stroke-miterlimit="10" stroke-linejoin="miter" fill="none" stroke="#cbcbcb" d="M-45.35419 17.00781H45.35419"/>
<path transform="matrix(1.00002,0,0,-1.00005,53.78746,53.83704)" stroke-width=".3985" stroke-linecap="butt" stroke-miterlimit="10" stroke-linejoin="miter" fill="none" stroke="#cbcbcb" d="M-45.35419 22.6771H45.35419"/>
<path transform="matrix(1.00002,0,0,-1.00005,53.78746,53.83704)" stroke-width=".3985" stroke-linecap="butt" stroke-miterlimit="10" stroke-linejoin="miter" fill="none" stroke="#cbcbcb" d="M-45.35419 28.34636H45.35419"/>
<path transform="matrix(1.00002,0,0,-1.00005,53.78746,53.83704)" stroke-width=".3985" stroke-linecap="butt" stroke-miterlimit="10" stroke-linejoin="miter" fill="none" stroke="#cbcbcb" d="M-45.35419 34.01564H45.35419"/>
<path transform="matrix(1.00002,0,0,-1.00005,53.78746,53.83704)" stroke-width=".3985" stroke-linecap="butt" stroke-miterlimit="10" stroke-linejoin="miter" fill="none" stroke="#cbcbcb" d="M-45.35419 39.6849H45.35419"/>
<path transform="matrix(1.00002,0,0,-1.00005,53.78746,53.83704)" stroke-width=".3985" stroke-linecap="butt" stroke-miterlimit="10" stroke-linejoin="miter" fill="none" stroke="#000000" d="M-45.35419 0H51.75888"/>
<path transform="matrix(1.00002,0,0,-1.00005,105.74663,53.83704)" stroke-width=".3985" stroke-linecap="round" stroke-linejoin="round" fill="none" stroke="#000000" d="M-2.07224 2.39104C-1.69365 .95639-.84999 .27895 0 0-.84999-.27895-1.69365-.95639-2.07224-2.39104"/>
<use data-text="t" xlink:href="#font_1_1" transform="matrix(7.332647,0,0,-7.332866,101.54942,61.755437)"/>
<path transform="matrix(1.00002,0,0,-1.00005,53.78746,53.83704)" stroke-width=".3985" stroke-linecap="butt" stroke-miterlimit="10" stroke-linejoin="miter" fill="none" stroke="#000000" d="M0-45.35419V51.75888"/>
<path transform="matrix(0,-1.00005,-1.00002,-0,53.78746,1.8763161)" stroke-width=".3985" stroke-linecap="round" stroke-linejoin="round" fill="none" stroke="#000000" d="M-2.07224 2.39104C-1.69365 .95639-.84999 .27895 0 0-.84999-.27895-1.69365-.95639-2.07224-2.39104"/>
<use data-text="y" xlink:href="#font_1_2" transform="matrix(7.332647,0,0,-7.332866,46.2843,5.4246218)"/>
<path transform="matrix(1.00002,0,0,-1.00005,53.78746,53.83704)" stroke-width=".3985" stroke-linecap="butt" stroke-miterlimit="10" stroke-linejoin="miter" fill="none" stroke="#cbcbcb" d="M-45.35419-45.35419V45.35419H45.35419V-45.35419ZM45.35419 45.35419"/>
<path transform="matrix(1.00002,0,0,-1.00005,53.78746,53.83704)" stroke-width=".3985" stroke-linecap="butt" stroke-miterlimit="10" stroke-linejoin="miter" fill="none" stroke="#000000" d="M-34.01564-46.48811V-44.22026"/>
<use data-text="-" xlink:href="#font_2_1" transform="matrix(5.4995105,0,0,-5.499675,14.398674,105.1406)"/>
<use data-text="3" xlink:href="#font_2_5" transform="matrix(5.4995105,0,0,-5.499675,16.554482,105.1406)"/>
<path transform="matrix(1.00002,0,0,-1.00005,53.78746,53.83704)" stroke-width=".3985" stroke-linecap="butt" stroke-miterlimit="10" stroke-linejoin="miter" fill="none" stroke="#000000" d="M-22.6771-46.48811V-44.22026"/>
<use data-text="-" xlink:href="#font_2_1" transform="matrix(5.4995105,0,0,-5.499675,25.7379,105.1406)"/>
<use data-text="2" xlink:href="#font_2_4" transform="matrix(5.4995105,0,0,-5.499675,27.893708,105.1406)"/>
<path transform="matrix(1.00002,0,0,-1.00005,53.78746,53.83704)" stroke-width=".3985" stroke-linecap="butt" stroke-miterlimit="10" stroke-linejoin="miter" fill="none" stroke="#000000" d="M-11.33855-46.48811V-44.22026"/>
<use data-text="-" xlink:href="#font_2_1" transform="matrix(5.4995105,0,0,-5.499675,37.076128,105.1406)"/>
<use data-text="1" xlink:href="#font_2_3" transform="matrix(5.4995105,0,0,-5.499675,39.231935,105.1406)"/>
<path transform="matrix(1.00002,0,0,-1.00005,53.78746,53.83704)" stroke-width=".3985" stroke-linecap="butt" stroke-miterlimit="10" stroke-linejoin="miter" fill="none" stroke="#000000" d="M0-46.48811V-44.22026"/>
<use data-text="0" xlink:href="#font_2_2" transform="matrix(5.4995105,0,0,-5.499675,52.32843,105.1406)"/>
<path transform="matrix(1.00002,0,0,-1.00005,53.78746,53.83704)" stroke-width=".3985" stroke-linecap="butt" stroke-miterlimit="10" stroke-linejoin="miter" fill="none" stroke="#000000" d="M11.33855-46.48811V-44.22026"/>
<use data-text="1" xlink:href="#font_2_3" transform="matrix(5.4995105,0,0,-5.499675,63.667657,105.1406)"/>
<path transform="matrix(1.00002,0,0,-1.00005,53.78746,53.83704)" stroke-width=".3985" stroke-linecap="butt" stroke-miterlimit="10" stroke-linejoin="miter" fill="none" stroke="#000000" d="M22.6771-46.48811V-44.22026"/>
<use data-text="2" xlink:href="#font_2_4" transform="matrix(5.4995105,0,0,-5.499675,75.00688,105.1406)"/>
<path transform="matrix(1.00002,0,0,-1.00005,53.78746,53.83704)" stroke-width=".3985" stroke-linecap="butt" stroke-miterlimit="10" stroke-linejoin="miter" fill="none" stroke="#000000" d="M34.01564-46.48811V-44.22026"/>
<use data-text="3" xlink:href="#font_2_5" transform="matrix(5.4995105,0,0,-5.499675,86.34511,105.1406)"/>
<path transform="matrix(1.00002,0,0,-1.00005,53.78746,53.83704)" stroke-width=".3985" stroke-linecap="butt" stroke-miterlimit="10" stroke-linejoin="miter" fill="none" stroke="#000000" d="M-46.48811-34.01564H-44.22026"/>
<use data-text="-" xlink:href="#font_2_1" transform="matrix(5.4995105,0,0,-5.499675,1.0923996,89.68083)"/>
<use data-text="3" xlink:href="#font_2_5" transform="matrix(5.4995105,0,0,-5.499675,3.248207,89.68083)"/>
<path transform="matrix(1.00002,0,0,-1.00005,53.78746,53.83704)" stroke-width=".3985" stroke-linecap="butt" stroke-miterlimit="10" stroke-linejoin="miter" fill="none" stroke="#000000" d="M-46.48811-22.6771H-44.22026"/>
<use data-text="-" xlink:href="#font_2_1" transform="matrix(5.4995105,0,0,-5.499675,1.0923996,78.35626)"/>
<use data-text="2" xlink:href="#font_2_4" transform="matrix(5.4995105,0,0,-5.499675,3.248207,78.35626)"/>
<path transform="matrix(1.00002,0,0,-1.00005,53.78746,53.83704)" stroke-width=".3985" stroke-linecap="butt" stroke-miterlimit="10" stroke-linejoin="miter" fill="none" stroke="#000000" d="M-46.48811-11.33855H-44.22026"/>
<use data-text="-" xlink:href="#font_2_1" transform="matrix(5.4995105,0,0,-5.499675,1.0923996,67.0177)"/>
<use data-text="1" xlink:href="#font_2_3" transform="matrix(5.4995105,0,0,-5.499675,3.248207,67.0177)"/>
<path transform="matrix(1.00002,0,0,-1.00005,53.78746,53.83704)" stroke-width=".3985" stroke-linecap="butt" stroke-miterlimit="10" stroke-linejoin="miter" fill="none" stroke="#000000" d="M-46.48811 0H-44.22026"/>
<use data-text="0" xlink:href="#font_2_2" transform="matrix(5.4995105,0,0,-5.499675,3.2504502,55.66313)"/>
<path transform="matrix(1.00002,0,0,-1.00005,53.78746,53.83704)" stroke-width=".3985" stroke-linecap="butt" stroke-miterlimit="10" stroke-linejoin="miter" fill="none" stroke="#000000" d="M-46.48811 11.33855H-44.22026"/>
<use data-text="1" xlink:href="#font_2_3" transform="matrix(5.4995105,0,0,-5.499675,3.2504502,44.339567)"/>
<path transform="matrix(1.00002,0,0,-1.00005,53.78746,53.83704)" stroke-width=".3985" stroke-linecap="butt" stroke-miterlimit="10" stroke-linejoin="miter" fill="none" stroke="#000000" d="M-46.48811 22.6771H-44.22026"/>
<use data-text="2" xlink:href="#font_2_4" transform="matrix(5.4995105,0,0,-5.499675,3.2504502,33)"/>
<path transform="matrix(1.00002,0,0,-1.00005,53.78746,53.83704)" stroke-width=".3985" stroke-linecap="butt" stroke-miterlimit="10" stroke-linejoin="miter" fill="none" stroke="#000000" d="M-46.48811 34.01564H-44.22026"/>
<use data-text="3" xlink:href="#font_2_5" transform="matrix(5.4995105,0,0,-5.499675,3.2504502,21.646435)"/>
<path transform="matrix(1.00002,0,0,-1.00005,53.78746,53.83704)" stroke-width=".79701" stroke-linecap="butt" stroke-miterlimit="10" stroke-linejoin="miter" fill="none" stroke="#409f9f" d="M-39.76328-41.95119-39.60654-37.41862"/>
<path transform="matrix(1.00002,0,0,-1.00005,53.78746,53.83704)" stroke-width=".79701" stroke-linecap="butt" stroke-miterlimit="10" stroke-linejoin="miter" fill="none" stroke="#409f9f" d="M-39.83559-36.27829-39.53423-31.75299"/>
<path transform="matrix(1.00002,0,0,-1.00005,53.78746,53.83704)" stroke-width=".79701" stroke-linecap="butt" stroke-miterlimit="10" stroke-linejoin="miter" fill="none" stroke="#409f9f" d="M-40.08179-30.57907-39.28802-26.11365"/>
<path transform="matrix(1.00002,0,0,-1.00005,53.78746,53.83704)" stroke-width=".79701" stroke-linecap="butt" stroke-miterlimit="10" stroke-linejoin="miter" fill="none" stroke="#409f9f" d="M-41.95258-22.6771H-37.41725"/>
<path transform="matrix(1.00002,0,0,-1.00005,53.78746,53.83704)" stroke-width=".79701" stroke-linecap="butt" stroke-miterlimit="10" stroke-linejoin="miter" fill="none" stroke="#409f9f" d="M-40.49217-14.88876-38.87764-19.12686"/>
<path transform="matrix(1.00002,0,0,-1.00005,53.78746,53.83704)" stroke-width=".79701" stroke-linecap="butt" stroke-miterlimit="10" stroke-linejoin="miter" fill="none" stroke="#409f9f" d="M-40.40204-9.1873-38.96779-13.48978"/>
<path transform="matrix(1.00002,0,0,-1.00005,53.78746,53.83704)" stroke-width=".79701" stroke-linecap="butt" stroke-miterlimit="10" stroke-linejoin="miter" fill="none" stroke="#409f9f" d="M-40.75188-3.66855-38.61795-7.66995"/>
<path transform="matrix(1.00002,0,0,-1.00005,53.78746,53.83704)" stroke-width=".79701" stroke-linecap="butt" stroke-miterlimit="10" stroke-linejoin="miter" fill="none" stroke="#409f9f" d="M-41.95258 0H-37.41725"/>
<path transform="matrix(1.00002,0,0,-1.00005,53.78746,53.83704)" stroke-width=".79701" stroke-linecap="butt" stroke-miterlimit="10" stroke-linejoin="miter" fill="none" stroke="#409f9f" d="M-40.75188 3.66855-38.61795 7.66995"/>
<path transform="matrix(1.00002,0,0,-1.00005,53.78746,53.83704)" stroke-width=".79701" stroke-linecap="butt" stroke-miterlimit="10" stroke-linejoin="miter" fill="none" stroke="#409f9f" d="M-40.40204 9.18713-38.96779 13.48994"/>
<path transform="matrix(1.00002,0,0,-1.00005,53.78746,53.83704)" stroke-width=".79701" stroke-linecap="butt" stroke-miterlimit="10" stroke-linejoin="miter" fill="none" stroke="#409f9f" d="M-40.49217 14.88876-38.87764 19.12686"/>
<path transform="matrix(1.00002,0,0,-1.00005,53.78746,53.83704)" stroke-width=".79701" stroke-linecap="butt" stroke-miterlimit="10" stroke-linejoin="miter" fill="none" stroke="#409f9f" d="M-41.95258 22.6771H-37.41725"/>
<path transform="matrix(1.00002,0,0,-1.00005,53.78746,53.83704)" stroke-width=".79701" stroke-linecap="butt" stroke-miterlimit="10" stroke-linejoin="miter" fill="none" stroke="#409f9f" d="M-40.08179 30.5789-39.28802 26.11382"/>
<path transform="matrix(1.00002,0,0,-1.00005,53.78746,53.83704)" stroke-width=".79701" stroke-linecap="butt" stroke-miterlimit="10" stroke-linejoin="miter" fill="none" stroke="#409f9f" d="M-39.83559 36.27829-39.53423 31.75299"/>
<path transform="matrix(1.00002,0,0,-1.00005,53.78746,53.83704)" stroke-width=".79701" stroke-linecap="butt" stroke-miterlimit="10" stroke-linejoin="miter" fill="none" stroke="#409f9f" d="M-39.76328 41.95119-39.60654 37.41862"/>
<path transform="matrix(1.00002,0,0,-1.00005,53.78746,53.83704)" stroke-width=".79701" stroke-linecap="butt" stroke-miterlimit="10" stroke-linejoin="miter" fill="none" stroke="#409f9f" d="M-34.094-41.95119-33.93727-37.41862"/>
<path transform="matrix(1.00002,0,0,-1.00005,53.78746,53.83704)" stroke-width=".79701" stroke-linecap="butt" stroke-miterlimit="10" stroke-linejoin="miter" fill="none" stroke="#409f9f" d="M-34.16632-36.27829-33.86496-31.75299"/>
<path transform="matrix(1.00002,0,0,-1.00005,53.78746,53.83704)" stroke-width=".79701" stroke-linecap="butt" stroke-miterlimit="10" stroke-linejoin="miter" fill="none" stroke="#409f9f" d="M-34.4125-30.57907-33.61876-26.11365"/>
<path transform="matrix(1.00002,0,0,-1.00005,53.78746,53.83704)" stroke-width=".79701" stroke-linecap="butt" stroke-miterlimit="10" stroke-linejoin="miter" fill="none" stroke="#409f9f" d="M-36.2833-22.6771H-31.74797"/>
<path transform="matrix(1.00002,0,0,-1.00005,53.78746,53.83704)" stroke-width=".79701" stroke-linecap="butt" stroke-miterlimit="10" stroke-linejoin="miter" fill="none" stroke="#409f9f" d="M-34.8229-14.88876-33.20836-19.12686"/>
<path transform="matrix(1.00002,0,0,-1.00005,53.78746,53.83704)" stroke-width=".79701" stroke-linecap="butt" stroke-miterlimit="10" stroke-linejoin="miter" fill="none" stroke="#409f9f" d="M-34.73276-9.1873-33.29851-13.48978"/>
<path transform="matrix(1.00002,0,0,-1.00005,53.78746,53.83704)" stroke-width=".79701" stroke-linecap="butt" stroke-miterlimit="10" stroke-linejoin="miter" fill="none" stroke="#409f9f" d="M-35.0826-3.66855-32.94867-7.66995"/>
<path transform="matrix(1.00002,0,0,-1.00005,53.78746,53.83704)" stroke-width=".79701" stroke-linecap="butt" stroke-miterlimit="10" stroke-linejoin="miter" fill="none" stroke="#409f9f" d="M-36.2833 0H-31.74797"/>
<path transform="matrix(1.00002,0,0,-1.00005,53.78746,53.83704)" stroke-width=".79701" stroke-linecap="butt" stroke-miterlimit="10" stroke-linejoin="miter" fill="none" stroke="#409f9f" d="M-35.0826 3.66855-32.94867 7.66995"/>
<path transform="matrix(1.00002,0,0,-1.00005,53.78746,53.83704)" stroke-width=".79701" stroke-linecap="butt" stroke-miterlimit="10" stroke-linejoin="miter" fill="none" stroke="#409f9f" d="M-34.73276 9.18713-33.29851 13.48994"/>
<path transform="matrix(1.00002,0,0,-1.00005,53.78746,53.83704)" stroke-width=".79701" stroke-linecap="butt" stroke-miterlimit="10" stroke-linejoin="miter" fill="none" stroke="#409f9f" d="M-34.8229 14.88876-33.20836 19.12686"/>
<path transform="matrix(1.00002,0,0,-1.00005,53.78746,53.83704)" stroke-width=".79701" stroke-linecap="butt" stroke-miterlimit="10" stroke-linejoin="miter" fill="none" stroke="#409f9f" d="M-36.2833 22.6771H-31.74797"/>
<path transform="matrix(1.00002,0,0,-1.00005,53.78746,53.83704)" stroke-width=".79701" stroke-linecap="butt" stroke-miterlimit="10" stroke-linejoin="miter" fill="none" stroke="#409f9f" d="M-34.4125 30.5789-33.61876 26.11382"/>
<path transform="matrix(1.00002,0,0,-1.00005,53.78746,53.83704)" stroke-width=".79701" stroke-linecap="butt" stroke-miterlimit="10" stroke-linejoin="miter" fill="none" stroke="#409f9f" d="M-34.16632 36.27829-33.86496 31.75299"/>
<path transform="matrix(1.00002,0,0,-1.00005,53.78746,53.83704)" stroke-width=".79701" stroke-linecap="butt" stroke-miterlimit="10" stroke-linejoin="miter" fill="none" stroke="#409f9f" d="M-34.094 41.95119-33.93727 37.41862"/>
<path transform="matrix(1.00002,0,0,-1.00005,53.78746,53.83704)" stroke-width=".79701" stroke-linecap="butt" stroke-miterlimit="10" stroke-linejoin="miter" fill="none" stroke="#409f9f" d="M-28.42473-41.95119-28.26799-37.41862"/>
<path transform="matrix(1.00002,0,0,-1.00005,53.78746,53.83704)" stroke-width=".79701" stroke-linecap="butt" stroke-miterlimit="10" stroke-linejoin="miter" fill="none" stroke="#409f9f" d="M-28.49704-36.27829-28.19568-31.75299"/>
<path transform="matrix(1.00002,0,0,-1.00005,53.78746,53.83704)" stroke-width=".79701" stroke-linecap="butt" stroke-miterlimit="10" stroke-linejoin="miter" fill="none" stroke="#409f9f" d="M-28.74324-30.57907-27.94948-26.11365"/>
<path transform="matrix(1.00002,0,0,-1.00005,53.78746,53.83704)" stroke-width=".79701" stroke-linecap="butt" stroke-miterlimit="10" stroke-linejoin="miter" fill="none" stroke="#409f9f" d="M-30.61403-22.6771H-26.0787"/>
<path transform="matrix(1.00002,0,0,-1.00005,53.78746,53.83704)" stroke-width=".79701" stroke-linecap="butt" stroke-miterlimit="10" stroke-linejoin="miter" fill="none" stroke="#409f9f" d="M-29.15363-14.88876-27.5391-19.12686"/>
<path transform="matrix(1.00002,0,0,-1.00005,53.78746,53.83704)" stroke-width=".79701" stroke-linecap="butt" stroke-miterlimit="10" stroke-linejoin="miter" fill="none" stroke="#409f9f" d="M-29.06349-9.1873-27.62924-13.48978"/>
<path transform="matrix(1.00002,0,0,-1.00005,53.78746,53.83704)" stroke-width=".79701" stroke-linecap="butt" stroke-miterlimit="10" stroke-linejoin="miter" fill="none" stroke="#409f9f" d="M-29.41333-3.66855-27.27939-7.66995"/>
<path transform="matrix(1.00002,0,0,-1.00005,53.78746,53.83704)" stroke-width=".79701" stroke-linecap="butt" stroke-miterlimit="10" stroke-linejoin="miter" fill="none" stroke="#409f9f" d="M-30.61403 0H-26.0787"/>
<path transform="matrix(1.00002,0,0,-1.00005,53.78746,53.83704)" stroke-width=".79701" stroke-linecap="butt" stroke-miterlimit="10" stroke-linejoin="miter" fill="none" stroke="#409f9f" d="M-29.41333 3.66855-27.27939 7.66995"/>
<path transform="matrix(1.00002,0,0,-1.00005,53.78746,53.83704)" stroke-width=".79701" stroke-linecap="butt" stroke-miterlimit="10" stroke-linejoin="miter" fill="none" stroke="#409f9f" d="M-29.06349 9.18713-27.62924 13.48994"/>
<path transform="matrix(1.00002,0,0,-1.00005,53.78746,53.83704)" stroke-width=".79701" stroke-linecap="butt" stroke-miterlimit="10" stroke-linejoin="miter" fill="none" stroke="#409f9f" d="M-29.15363 14.88876-27.5391 19.12686"/>
<path transform="matrix(1.00002,0,0,-1.00005,53.78746,53.83704)" stroke-width=".79701" stroke-linecap="butt" stroke-miterlimit="10" stroke-linejoin="miter" fill="none" stroke="#409f9f" d="M-30.61403 22.6771H-26.0787"/>
<path transform="matrix(1.00002,0,0,-1.00005,53.78746,53.83704)" stroke-width=".79701" stroke-linecap="butt" stroke-miterlimit="10" stroke-linejoin="miter" fill="none" stroke="#409f9f" d="M-28.74324 30.5789-27.94948 26.11382"/>
<path transform="matrix(1.00002,0,0,-1.00005,53.78746,53.83704)" stroke-width=".79701" stroke-linecap="butt" stroke-miterlimit="10" stroke-linejoin="miter" fill="none" stroke="#409f9f" d="M-28.49704 36.27829-28.19568 31.75299"/>
<path transform="matrix(1.00002,0,0,-1.00005,53.78746,53.83704)" stroke-width=".79701" stroke-linecap="butt" stroke-miterlimit="10" stroke-linejoin="miter" fill="none" stroke="#409f9f" d="M-28.42473 41.95119-28.26799 37.41862"/>
<path transform="matrix(1.00002,0,0,-1.00005,53.78746,53.83704)" stroke-width=".79701" stroke-linecap="butt" stroke-miterlimit="10" stroke-linejoin="miter" fill="none" stroke="#409f9f" d="M-22.75545-41.95119-22.59872-37.41862"/>
<path transform="matrix(1.00002,0,0,-1.00005,53.78746,53.83704)" stroke-width=".79701" stroke-linecap="butt" stroke-miterlimit="10" stroke-linejoin="miter" fill="none" stroke="#409f9f" d="M-22.82777-36.27829-22.52641-31.75299"/>
<path transform="matrix(1.00002,0,0,-1.00005,53.78746,53.83704)" stroke-width=".79701" stroke-linecap="butt" stroke-miterlimit="10" stroke-linejoin="miter" fill="none" stroke="#409f9f" d="M-23.07396-30.57907-22.28021-26.11365"/>
<path transform="matrix(1.00002,0,0,-1.00005,53.78746,53.83704)" stroke-width=".79701" stroke-linecap="butt" stroke-miterlimit="10" stroke-linejoin="miter" fill="none" stroke="#409f9f" d="M-24.94475-22.6771H-20.40942"/>
<path transform="matrix(1.00002,0,0,-1.00005,53.78746,53.83704)" stroke-width=".79701" stroke-linecap="butt" stroke-miterlimit="10" stroke-linejoin="miter" fill="none" stroke="#409f9f" d="M-23.48436-14.88876-21.86981-19.12686"/>
<path transform="matrix(1.00002,0,0,-1.00005,53.78746,53.83704)" stroke-width=".79701" stroke-linecap="butt" stroke-miterlimit="10" stroke-linejoin="miter" fill="none" stroke="#409f9f" d="M-23.39421-9.1873-21.95996-13.48978"/>
<path transform="matrix(1.00002,0,0,-1.00005,53.78746,53.83704)" stroke-width=".79701" stroke-linecap="butt" stroke-miterlimit="10" stroke-linejoin="miter" fill="none" stroke="#409f9f" d="M-23.74405-3.66855-21.61012-7.66995"/>
<path transform="matrix(1.00002,0,0,-1.00005,53.78746,53.83704)" stroke-width=".79701" stroke-linecap="butt" stroke-miterlimit="10" stroke-linejoin="miter" fill="none" stroke="#409f9f" d="M-24.94475 0H-20.40942"/>
<path transform="matrix(1.00002,0,0,-1.00005,53.78746,53.83704)" stroke-width=".79701" stroke-linecap="butt" stroke-miterlimit="10" stroke-linejoin="miter" fill="none" stroke="#409f9f" d="M-23.74405 3.66855-21.61012 7.66995"/>
<path transform="matrix(1.00002,0,0,-1.00005,53.78746,53.83704)" stroke-width=".79701" stroke-linecap="butt" stroke-miterlimit="10" stroke-linejoin="miter" fill="none" stroke="#409f9f" d="M-23.39421 9.18713-21.95996 13.48994"/>
<path transform="matrix(1.00002,0,0,-1.00005,53.78746,53.83704)" stroke-width=".79701" stroke-linecap="butt" stroke-miterlimit="10" stroke-linejoin="miter" fill="none" stroke="#409f9f" d="M-23.48436 14.88876-21.86981 19.12686"/>
<path transform="matrix(1.00002,0,0,-1.00005,53.78746,53.83704)" stroke-width=".79701" stroke-linecap="butt" stroke-miterlimit="10" stroke-linejoin="miter" fill="none" stroke="#409f9f" d="M-24.94475 22.6771H-20.40942"/>
<path transform="matrix(1.00002,0,0,-1.00005,53.78746,53.83704)" stroke-width=".79701" stroke-linecap="butt" stroke-miterlimit="10" stroke-linejoin="miter" fill="none" stroke="#409f9f" d="M-23.07396 30.5789-22.28021 26.11382"/>
<path transform="matrix(1.00002,0,0,-1.00005,53.78746,53.83704)" stroke-width=".79701" stroke-linecap="butt" stroke-miterlimit="10" stroke-linejoin="miter" fill="none" stroke="#409f9f" d="M-22.82777 36.27829-22.52641 31.75299"/>
<path transform="matrix(1.00002,0,0,-1.00005,53.78746,53.83704)" stroke-width=".79701" stroke-linecap="butt" stroke-miterlimit="10" stroke-linejoin="miter" fill="none" stroke="#409f9f" d="M-22.75545 41.95119-22.59872 37.41862"/>
<path transform="matrix(1.00002,0,0,-1.00005,53.78746,53.83704)" stroke-width=".79701" stroke-linecap="butt" stroke-miterlimit="10" stroke-linejoin="miter" fill="none" stroke="#409f9f" d="M-17.08618-41.95119-16.92944-37.41862"/>
<path transform="matrix(1.00002,0,0,-1.00005,53.78746,53.83704)" stroke-width=".79701" stroke-linecap="butt" stroke-miterlimit="10" stroke-linejoin="miter" fill="none" stroke="#409f9f" d="M-17.1585-36.27829-16.85713-31.75299"/>
<path transform="matrix(1.00002,0,0,-1.00005,53.78746,53.83704)" stroke-width=".79701" stroke-linecap="butt" stroke-miterlimit="10" stroke-linejoin="miter" fill="none" stroke="#409f9f" d="M-17.4047-30.57907-16.61093-26.11365"/>
<path transform="matrix(1.00002,0,0,-1.00005,53.78746,53.83704)" stroke-width=".79701" stroke-linecap="butt" stroke-miterlimit="10" stroke-linejoin="miter" fill="none" stroke="#409f9f" d="M-19.27548-22.6771H-14.74014"/>
<path transform="matrix(1.00002,0,0,-1.00005,53.78746,53.83704)" stroke-width=".79701" stroke-linecap="butt" stroke-miterlimit="10" stroke-linejoin="miter" fill="none" stroke="#409f9f" d="M-17.81508-14.88876-16.20055-19.12686"/>
<path transform="matrix(1.00002,0,0,-1.00005,53.78746,53.83704)" stroke-width=".79701" stroke-linecap="butt" stroke-miterlimit="10" stroke-linejoin="miter" fill="none" stroke="#409f9f" d="M-17.72493-9.1873-16.2907-13.48978"/>
<path transform="matrix(1.00002,0,0,-1.00005,53.78746,53.83704)" stroke-width=".79701" stroke-linecap="butt" stroke-miterlimit="10" stroke-linejoin="miter" fill="none" stroke="#409f9f" d="M-18.07478-3.66855-15.94084-7.66995"/>
<path transform="matrix(1.00002,0,0,-1.00005,53.78746,53.83704)" stroke-width=".79701" stroke-linecap="butt" stroke-miterlimit="10" stroke-linejoin="miter" fill="none" stroke="#409f9f" d="M-19.27548 0H-14.74014"/>
<path transform="matrix(1.00002,0,0,-1.00005,53.78746,53.83704)" stroke-width=".79701" stroke-linecap="butt" stroke-miterlimit="10" stroke-linejoin="miter" fill="none" stroke="#409f9f" d="M-18.07478 3.66855-15.94084 7.66995"/>
<path transform="matrix(1.00002,0,0,-1.00005,53.78746,53.83704)" stroke-width=".79701" stroke-linecap="butt" stroke-miterlimit="10" stroke-linejoin="miter" fill="none" stroke="#409f9f" d="M-17.72493 9.18713-16.2907 13.48994"/>
<path transform="matrix(1.00002,0,0,-1.00005,53.78746,53.83704)" stroke-width=".79701" stroke-linecap="butt" stroke-miterlimit="10" stroke-linejoin="miter" fill="none" stroke="#409f9f" d="M-17.81508 14.88876-16.20055 19.12686"/>
<path transform="matrix(1.00002,0,0,-1.00005,53.78746,53.83704)" stroke-width=".79701" stroke-linecap="butt" stroke-miterlimit="10" stroke-linejoin="miter" fill="none" stroke="#409f9f" d="M-19.27548 22.6771H-14.74014"/>
<path transform="matrix(1.00002,0,0,-1.00005,53.78746,53.83704)" stroke-width=".79701" stroke-linecap="butt" stroke-miterlimit="10" stroke-linejoin="miter" fill="none" stroke="#409f9f" d="M-17.4047 30.5789-16.61093 26.11382"/>
<path transform="matrix(1.00002,0,0,-1.00005,53.78746,53.83704)" stroke-width=".79701" stroke-linecap="butt" stroke-miterlimit="10" stroke-linejoin="miter" fill="none" stroke="#409f9f" d="M-17.1585 36.27829-16.85713 31.75299"/>
<path transform="matrix(1.00002,0,0,-1.00005,53.78746,53.83704)" stroke-width=".79701" stroke-linecap="butt" stroke-miterlimit="10" stroke-linejoin="miter" fill="none" stroke="#409f9f" d="M-17.08618 41.95119-16.92944 37.41862"/>
<path transform="matrix(1.00002,0,0,-1.00005,53.78746,53.83704)" stroke-width=".79701" stroke-linecap="butt" stroke-miterlimit="10" stroke-linejoin="miter" fill="none" stroke="#409f9f" d="M-11.4169-41.95119-11.26018-37.41862"/>
<path transform="matrix(1.00002,0,0,-1.00005,53.78746,53.83704)" stroke-width=".79701" stroke-linecap="butt" stroke-miterlimit="10" stroke-linejoin="miter" fill="none" stroke="#409f9f" d="M-11.48923-36.27829-11.18785-31.75299"/>
<path transform="matrix(1.00002,0,0,-1.00005,53.78746,53.83704)" stroke-width=".79701" stroke-linecap="butt" stroke-miterlimit="10" stroke-linejoin="miter" fill="none" stroke="#409f9f" d="M-11.73541-30.57907-10.94167-26.11365"/>
<path transform="matrix(1.00002,0,0,-1.00005,53.78746,53.83704)" stroke-width=".79701" stroke-linecap="butt" stroke-miterlimit="10" stroke-linejoin="miter" fill="none" stroke="#409f9f" d="M-13.6062-22.6771H-9.07088"/>
<path transform="matrix(1.00002,0,0,-1.00005,53.78746,53.83704)" stroke-width=".79701" stroke-linecap="butt" stroke-miterlimit="10" stroke-linejoin="miter" fill="none" stroke="#409f9f" d="M-12.14581-14.88876-10.53127-19.12686"/>
<path transform="matrix(1.00002,0,0,-1.00005,53.78746,53.83704)" stroke-width=".79701" stroke-linecap="butt" stroke-miterlimit="10" stroke-linejoin="miter" fill="none" stroke="#409f9f" d="M-12.05566-9.1873-10.62141-13.48978"/>
<path transform="matrix(1.00002,0,0,-1.00005,53.78746,53.83704)" stroke-width=".79701" stroke-linecap="butt" stroke-miterlimit="10" stroke-linejoin="miter" fill="none" stroke="#409f9f" d="M-12.4055-3.66855-10.27158-7.66995"/>
<path transform="matrix(1.00002,0,0,-1.00005,53.78746,53.83704)" stroke-width=".79701" stroke-linecap="butt" stroke-miterlimit="10" stroke-linejoin="miter" fill="none" stroke="#409f9f" d="M-13.6062 0H-9.07088"/>
<path transform="matrix(1.00002,0,0,-1.00005,53.78746,53.83704)" stroke-width=".79701" stroke-linecap="butt" stroke-miterlimit="10" stroke-linejoin="miter" fill="none" stroke="#409f9f" d="M-12.4055 3.66855-10.27158 7.66995"/>
<path transform="matrix(1.00002,0,0,-1.00005,53.78746,53.83704)" stroke-width=".79701" stroke-linecap="butt" stroke-miterlimit="10" stroke-linejoin="miter" fill="none" stroke="#409f9f" d="M-12.05566 9.18713-10.62141 13.48994"/>
<path transform="matrix(1.00002,0,0,-1.00005,53.78746,53.83704)" stroke-width=".79701" stroke-linecap="butt" stroke-miterlimit="10" stroke-linejoin="miter" fill="none" stroke="#409f9f" d="M-12.14581 14.88876-10.53127 19.12686"/>
<path transform="matrix(1.00002,0,0,-1.00005,53.78746,53.83704)" stroke-width=".79701" stroke-linecap="butt" stroke-miterlimit="10" stroke-linejoin="miter" fill="none" stroke="#409f9f" d="M-13.6062 22.6771H-9.07088"/>
<path transform="matrix(1.00002,0,0,-1.00005,53.78746,53.83704)" stroke-width=".79701" stroke-linecap="butt" stroke-miterlimit="10" stroke-linejoin="miter" fill="none" stroke="#409f9f" d="M-11.73541 30.5789-10.94167 26.11382"/>
<path transform="matrix(1.00002,0,0,-1.00005,53.78746,53.83704)" stroke-width=".79701" stroke-linecap="butt" stroke-miterlimit="10" stroke-linejoin="miter" fill="none" stroke="#409f9f" d="M-11.48923 36.27829-11.18785 31.75299"/>
<path transform="matrix(1.00002,0,0,-1.00005,53.78746,53.83704)" stroke-width=".79701" stroke-linecap="butt" stroke-miterlimit="10" stroke-linejoin="miter" fill="none" stroke="#409f9f" d="M-11.4169 41.95119-11.26018 37.41862"/>
<path transform="matrix(1.00002,0,0,-1.00005,53.78746,53.83704)" stroke-width=".79701" stroke-linecap="butt" stroke-miterlimit="10" stroke-linejoin="miter" fill="none" stroke="#409f9f" d="M-5.74762-41.95119-5.59088-37.41862"/>
<path transform="matrix(1.00002,0,0,-1.00005,53.78746,53.83704)" stroke-width=".79701" stroke-linecap="butt" stroke-miterlimit="10" stroke-linejoin="miter" fill="none" stroke="#409f9f" d="M-5.81993-36.27829-5.51857-31.75299"/>
<path transform="matrix(1.00002,0,0,-1.00005,53.78746,53.83704)" stroke-width=".79701" stroke-linecap="butt" stroke-miterlimit="10" stroke-linejoin="miter" fill="none" stroke="#409f9f" d="M-6.06613-30.57907-5.27237-26.11365"/>
<path transform="matrix(1.00002,0,0,-1.00005,53.78746,53.83704)" stroke-width=".79701" stroke-linecap="butt" stroke-miterlimit="10" stroke-linejoin="miter" fill="none" stroke="#409f9f" d="M-7.93692-22.6771H-3.40158"/>
<path transform="matrix(1.00002,0,0,-1.00005,53.78746,53.83704)" stroke-width=".79701" stroke-linecap="butt" stroke-miterlimit="10" stroke-linejoin="miter" fill="none" stroke="#409f9f" d="M-6.47652-14.88876-4.86198-19.12686"/>
<path transform="matrix(1.00002,0,0,-1.00005,53.78746,53.83704)" stroke-width=".79701" stroke-linecap="butt" stroke-miterlimit="10" stroke-linejoin="miter" fill="none" stroke="#409f9f" d="M-6.38637-9.1873-4.95213-13.48978"/>
<path transform="matrix(1.00002,0,0,-1.00005,53.78746,53.83704)" stroke-width=".79701" stroke-linecap="butt" stroke-miterlimit="10" stroke-linejoin="miter" fill="none" stroke="#409f9f" d="M-6.73622-3.66855-4.60228-7.66995"/>
<path transform="matrix(1.00002,0,0,-1.00005,53.78746,53.83704)" stroke-width=".79701" stroke-linecap="butt" stroke-miterlimit="10" stroke-linejoin="miter" fill="none" stroke="#409f9f" d="M-7.93692 0H-3.40158"/>
<path transform="matrix(1.00002,0,0,-1.00005,53.78746,53.83704)" stroke-width=".79701" stroke-linecap="butt" stroke-miterlimit="10" stroke-linejoin="miter" fill="none" stroke="#409f9f" d="M-6.73622 3.66855-4.60228 7.66995"/>
<path transform="matrix(1.00002,0,0,-1.00005,53.78746,53.83704)" stroke-width=".79701" stroke-linecap="butt" stroke-miterlimit="10" stroke-linejoin="miter" fill="none" stroke="#409f9f" d="M-6.38637 9.18713-4.95213 13.48994"/>
<path transform="matrix(1.00002,0,0,-1.00005,53.78746,53.83704)" stroke-width=".79701" stroke-linecap="butt" stroke-miterlimit="10" stroke-linejoin="miter" fill="none" stroke="#409f9f" d="M-6.47652 14.88876-4.86198 19.12686"/>
<path transform="matrix(1.00002,0,0,-1.00005,53.78746,53.83704)" stroke-width=".79701" stroke-linecap="butt" stroke-miterlimit="10" stroke-linejoin="miter" fill="none" stroke="#409f9f" d="M-7.93692 22.6771H-3.40158"/>
<path transform="matrix(1.00002,0,0,-1.00005,53.78746,53.83704)" stroke-width=".79701" stroke-linecap="butt" stroke-miterlimit="10" stroke-linejoin="miter" fill="none" stroke="#409f9f" d="M-6.06613 30.5789-5.27237 26.11382"/>
<path transform="matrix(1.00002,0,0,-1.00005,53.78746,53.83704)" stroke-width=".79701" stroke-linecap="butt" stroke-miterlimit="10" stroke-linejoin="miter" fill="none" stroke="#409f9f" d="M-5.81993 36.27829-5.51857 31.75299"/>
<path transform="matrix(1.00002,0,0,-1.00005,53.78746,53.83704)" stroke-width=".79701" stroke-linecap="butt" stroke-miterlimit="10" stroke-linejoin="miter" fill="none" stroke="#409f9f" d="M-5.74762 41.95119-5.59088 37.41862"/>
<path transform="matrix(1.00002,0,0,-1.00005,53.78746,53.83704)" stroke-width=".79701" stroke-linecap="butt" stroke-miterlimit="10" stroke-linejoin="miter" fill="none" stroke="#409f9f" d="M-.07835-41.95119 .07835-37.41862"/>
<path transform="matrix(1.00002,0,0,-1.00005,53.78746,53.83704)" stroke-width=".79701" stroke-linecap="butt" stroke-miterlimit="10" stroke-linejoin="miter" fill="none" stroke="#409f9f" d="M-.15068-36.27829 .15068-31.75299"/>
<path transform="matrix(1.00002,0,0,-1.00005,53.78746,53.83704)" stroke-width=".79701" stroke-linecap="butt" stroke-miterlimit="10" stroke-linejoin="miter" fill="none" stroke="#409f9f" d="M-.39687-30.57907 .39687-26.11365"/>
<path transform="matrix(1.00002,0,0,-1.00005,53.78746,53.83704)" stroke-width=".79701" stroke-linecap="butt" stroke-miterlimit="10" stroke-linejoin="miter" fill="none" stroke="#409f9f" d="M-2.26765-22.6771H2.26765"/>
<path transform="matrix(1.00002,0,0,-1.00005,53.78746,53.83704)" stroke-width=".79701" stroke-linecap="butt" stroke-miterlimit="10" stroke-linejoin="miter" fill="none" stroke="#409f9f" d="M-.80727-14.88876 .80727-19.12686"/>
<path transform="matrix(1.00002,0,0,-1.00005,53.78746,53.83704)" stroke-width=".79701" stroke-linecap="butt" stroke-miterlimit="10" stroke-linejoin="miter" fill="none" stroke="#409f9f" d="M-.71712-9.1873 .71712-13.48978"/>
<path transform="matrix(1.00002,0,0,-1.00005,53.78746,53.83704)" stroke-width=".79701" stroke-linecap="butt" stroke-miterlimit="10" stroke-linejoin="miter" fill="none" stroke="#409f9f" d="M-1.06696-3.66855 1.06696-7.66995"/>
<path transform="matrix(1.00002,0,0,-1.00005,53.78746,53.83704)" stroke-width=".79701" stroke-linecap="butt" stroke-miterlimit="10" stroke-linejoin="miter" fill="none" stroke="#409f9f" d="M-2.26765 0H2.26765"/>
<path transform="matrix(1.00002,0,0,-1.00005,53.78746,53.83704)" stroke-width=".79701" stroke-linecap="butt" stroke-miterlimit="10" stroke-linejoin="miter" fill="none" stroke="#409f9f" d="M-1.06696 3.66855 1.06696 7.66995"/>
<path transform="matrix(1.00002,0,0,-1.00005,53.78746,53.83704)" stroke-width=".79701" stroke-linecap="butt" stroke-miterlimit="10" stroke-linejoin="miter" fill="none" stroke="#409f9f" d="M-.71712 9.18713 .71712 13.48994"/>
<path transform="matrix(1.00002,0,0,-1.00005,53.78746,53.83704)" stroke-width=".79701" stroke-linecap="butt" stroke-miterlimit="10" stroke-linejoin="miter" fill="none" stroke="#409f9f" d="M-.80727 14.88876 .80727 19.12686"/>
<path transform="matrix(1.00002,0,0,-1.00005,53.78746,53.83704)" stroke-width=".79701" stroke-linecap="butt" stroke-miterlimit="10" stroke-linejoin="miter" fill="none" stroke="#409f9f" d="M-2.26765 22.6771H2.26765"/>
<path transform="matrix(1.00002,0,0,-1.00005,53.78746,53.83704)" stroke-width=".79701" stroke-linecap="butt" stroke-miterlimit="10" stroke-linejoin="miter" fill="none" stroke="#409f9f" d="M-.39687 30.5789 .39687 26.11382"/>
<path transform="matrix(1.00002,0,0,-1.00005,53.78746,53.83704)" stroke-width=".79701" stroke-linecap="butt" stroke-miterlimit="10" stroke-linejoin="miter" fill="none" stroke="#409f9f" d="M-.15068 36.27829 .15068 31.75299"/>
<path transform="matrix(1.00002,0,0,-1.00005,53.78746,53.83704)" stroke-width=".79701" stroke-linecap="butt" stroke-miterlimit="10" stroke-linejoin="miter" fill="none" stroke="#409f9f" d="M-.07835 41.95119 .07835 37.41862"/>
<path transform="matrix(1.00002,0,0,-1.00005,53.78746,53.83704)" stroke-width=".79701" stroke-linecap="butt" stroke-miterlimit="10" stroke-linejoin="miter" fill="none" stroke="#409f9f" d="M5.59088-41.95119 5.74762-37.41862"/>
<path transform="matrix(1.00002,0,0,-1.00005,53.78746,53.83704)" stroke-width=".79701" stroke-linecap="butt" stroke-miterlimit="10" stroke-linejoin="miter" fill="none" stroke="#409f9f" d="M5.51857-36.27829 5.81993-31.75299"/>
<path transform="matrix(1.00002,0,0,-1.00005,53.78746,53.83704)" stroke-width=".79701" stroke-linecap="butt" stroke-miterlimit="10" stroke-linejoin="miter" fill="none" stroke="#409f9f" d="M5.27237-30.57907 6.06613-26.11365"/>
<path transform="matrix(1.00002,0,0,-1.00005,53.78746,53.83704)" stroke-width=".79701" stroke-linecap="butt" stroke-miterlimit="10" stroke-linejoin="miter" fill="none" stroke="#409f9f" d="M3.40158-22.6771H7.93692"/>
<path transform="matrix(1.00002,0,0,-1.00005,53.78746,53.83704)" stroke-width=".79701" stroke-linecap="butt" stroke-miterlimit="10" stroke-linejoin="miter" fill="none" stroke="#409f9f" d="M4.86198-14.88876 6.47652-19.12686"/>
<path transform="matrix(1.00002,0,0,-1.00005,53.78746,53.83704)" stroke-width=".79701" stroke-linecap="butt" stroke-miterlimit="10" stroke-linejoin="miter" fill="none" stroke="#409f9f" d="M4.95213-9.1873 6.38637-13.48978"/>
<path transform="matrix(1.00002,0,0,-1.00005,53.78746,53.83704)" stroke-width=".79701" stroke-linecap="butt" stroke-miterlimit="10" stroke-linejoin="miter" fill="none" stroke="#409f9f" d="M4.60228-3.66855 6.73622-7.66995"/>
<path transform="matrix(1.00002,0,0,-1.00005,53.78746,53.83704)" stroke-width=".79701" stroke-linecap="butt" stroke-miterlimit="10" stroke-linejoin="miter" fill="none" stroke="#409f9f" d="M3.40158 0H7.93692"/>
<path transform="matrix(1.00002,0,0,-1.00005,53.78746,53.83704)" stroke-width=".79701" stroke-linecap="butt" stroke-miterlimit="10" stroke-linejoin="miter" fill="none" stroke="#409f9f" d="M4.60228 3.66855 6.73622 7.66995"/>
<path transform="matrix(1.00002,0,0,-1.00005,53.78746,53.83704)" stroke-width=".79701" stroke-linecap="butt" stroke-miterlimit="10" stroke-linejoin="miter" fill="none" stroke="#409f9f" d="M4.95213 9.18713 6.38637 13.48994"/>
<path transform="matrix(1.00002,0,0,-1.00005,53.78746,53.83704)" stroke-width=".79701" stroke-linecap="butt" stroke-miterlimit="10" stroke-linejoin="miter" fill="none" stroke="#409f9f" d="M4.86198 14.88876 6.47652 19.12686"/>
<path transform="matrix(1.00002,0,0,-1.00005,53.78746,53.83704)" stroke-width=".79701" stroke-linecap="butt" stroke-miterlimit="10" stroke-linejoin="miter" fill="none" stroke="#409f9f" d="M3.40158 22.6771H7.93692"/>
<path transform="matrix(1.00002,0,0,-1.00005,53.78746,53.83704)" stroke-width=".79701" stroke-linecap="butt" stroke-miterlimit="10" stroke-linejoin="miter" fill="none" stroke="#409f9f" d="M5.27237 30.5789 6.06613 26.11382"/>
<path transform="matrix(1.00002,0,0,-1.00005,53.78746,53.83704)" stroke-width=".79701" stroke-linecap="butt" stroke-miterlimit="10" stroke-linejoin="miter" fill="none" stroke="#409f9f" d="M5.51857 36.27829 5.81993 31.75299"/>
<path transform="matrix(1.00002,0,0,-1.00005,53.78746,53.83704)" stroke-width=".79701" stroke-linecap="butt" stroke-miterlimit="10" stroke-linejoin="miter" fill="none" stroke="#409f9f" d="M5.59088 41.95119 5.74762 37.41862"/>
<path transform="matrix(1.00002,0,0,-1.00005,53.78746,53.83704)" stroke-width=".79701" stroke-linecap="butt" stroke-miterlimit="10" stroke-linejoin="miter" fill="none" stroke="#409f9f" d="M11.26018-41.95119 11.4169-37.41862"/>
<path transform="matrix(1.00002,0,0,-1.00005,53.78746,53.83704)" stroke-width=".79701" stroke-linecap="butt" stroke-miterlimit="10" stroke-linejoin="miter" fill="none" stroke="#409f9f" d="M11.18785-36.27829 11.48923-31.75299"/>
<path transform="matrix(1.00002,0,0,-1.00005,53.78746,53.83704)" stroke-width=".79701" stroke-linecap="butt" stroke-miterlimit="10" stroke-linejoin="miter" fill="none" stroke="#409f9f" d="M10.94167-30.57907 11.73541-26.11365"/>
<path transform="matrix(1.00002,0,0,-1.00005,53.78746,53.83704)" stroke-width=".79701" stroke-linecap="butt" stroke-miterlimit="10" stroke-linejoin="miter" fill="none" stroke="#409f9f" d="M9.07088-22.6771H13.6062"/>
<path transform="matrix(1.00002,0,0,-1.00005,53.78746,53.83704)" stroke-width=".79701" stroke-linecap="butt" stroke-miterlimit="10" stroke-linejoin="miter" fill="none" stroke="#409f9f" d="M10.53127-14.88876 12.14581-19.12686"/>
<path transform="matrix(1.00002,0,0,-1.00005,53.78746,53.83704)" stroke-width=".79701" stroke-linecap="butt" stroke-miterlimit="10" stroke-linejoin="miter" fill="none" stroke="#409f9f" d="M10.62141-9.1873 12.05566-13.48978"/>
<path transform="matrix(1.00002,0,0,-1.00005,53.78746,53.83704)" stroke-width=".79701" stroke-linecap="butt" stroke-miterlimit="10" stroke-linejoin="miter" fill="none" stroke="#409f9f" d="M10.27158-3.66855 12.4055-7.66995"/>
<path transform="matrix(1.00002,0,0,-1.00005,53.78746,53.83704)" stroke-width=".79701" stroke-linecap="butt" stroke-miterlimit="10" stroke-linejoin="miter" fill="none" stroke="#409f9f" d="M9.07088 0H13.6062"/>
<path transform="matrix(1.00002,0,0,-1.00005,53.78746,53.83704)" stroke-width=".79701" stroke-linecap="butt" stroke-miterlimit="10" stroke-linejoin="miter" fill="none" stroke="#409f9f" d="M10.27158 3.66855 12.4055 7.66995"/>
<path transform="matrix(1.00002,0,0,-1.00005,53.78746,53.83704)" stroke-width=".79701" stroke-linecap="butt" stroke-miterlimit="10" stroke-linejoin="miter" fill="none" stroke="#409f9f" d="M10.62141 9.18713 12.05566 13.48994"/>
<path transform="matrix(1.00002,0,0,-1.00005,53.78746,53.83704)" stroke-width=".79701" stroke-linecap="butt" stroke-miterlimit="10" stroke-linejoin="miter" fill="none" stroke="#409f9f" d="M10.53127 14.88876 12.14581 19.12686"/>
<path transform="matrix(1.00002,0,0,-1.00005,53.78746,53.83704)" stroke-width=".79701" stroke-linecap="butt" stroke-miterlimit="10" stroke-linejoin="miter" fill="none" stroke="#409f9f" d="M9.07088 22.6771H13.6062"/>
<path transform="matrix(1.00002,0,0,-1.00005,53.78746,53.83704)" stroke-width=".79701" stroke-linecap="butt" stroke-miterlimit="10" stroke-linejoin="miter" fill="none" stroke="#409f9f" d="M10.94167 30.5789 11.73541 26.11382"/>
<path transform="matrix(1.00002,0,0,-1.00005,53.78746,53.83704)" stroke-width=".79701" stroke-linecap="butt" stroke-miterlimit="10" stroke-linejoin="miter" fill="none" stroke="#409f9f" d="M11.18785 36.27829 11.48923 31.75299"/>
<path transform="matrix(1.00002,0,0,-1.00005,53.78746,53.83704)" stroke-width=".79701" stroke-linecap="butt" stroke-miterlimit="10" stroke-linejoin="miter" fill="none" stroke="#409f9f" d="M11.26018 41.95119 11.4169 37.41862"/>
<path transform="matrix(1.00002,0,0,-1.00005,53.78746,53.83704)" stroke-width=".79701" stroke-linecap="butt" stroke-miterlimit="10" stroke-linejoin="miter" fill="none" stroke="#409f9f" d="M16.92944-41.95119 17.08618-37.41862"/>
<path transform="matrix(1.00002,0,0,-1.00005,53.78746,53.83704)" stroke-width=".79701" stroke-linecap="butt" stroke-miterlimit="10" stroke-linejoin="miter" fill="none" stroke="#409f9f" d="M16.85713-36.27829 17.1585-31.75299"/>
<path transform="matrix(1.00002,0,0,-1.00005,53.78746,53.83704)" stroke-width=".79701" stroke-linecap="butt" stroke-miterlimit="10" stroke-linejoin="miter" fill="none" stroke="#409f9f" d="M16.61093-30.57907 17.4047-26.11365"/>
<path transform="matrix(1.00002,0,0,-1.00005,53.78746,53.83704)" stroke-width=".79701" stroke-linecap="butt" stroke-miterlimit="10" stroke-linejoin="miter" fill="none" stroke="#409f9f" d="M14.74014-22.6771H19.27548"/>
<path transform="matrix(1.00002,0,0,-1.00005,53.78746,53.83704)" stroke-width=".79701" stroke-linecap="butt" stroke-miterlimit="10" stroke-linejoin="miter" fill="none" stroke="#409f9f" d="M16.20055-14.88876 17.81508-19.12686"/>
<path transform="matrix(1.00002,0,0,-1.00005,53.78746,53.83704)" stroke-width=".79701" stroke-linecap="butt" stroke-miterlimit="10" stroke-linejoin="miter" fill="none" stroke="#409f9f" d="M16.2907-9.1873 17.72493-13.48978"/>
<path transform="matrix(1.00002,0,0,-1.00005,53.78746,53.83704)" stroke-width=".79701" stroke-linecap="butt" stroke-miterlimit="10" stroke-linejoin="miter" fill="none" stroke="#409f9f" d="M15.94084-3.66855 18.07478-7.66995"/>
<path transform="matrix(1.00002,0,0,-1.00005,53.78746,53.83704)" stroke-width=".79701" stroke-linecap="butt" stroke-miterlimit="10" stroke-linejoin="miter" fill="none" stroke="#409f9f" d="M14.74014 0H19.27548"/>
<path transform="matrix(1.00002,0,0,-1.00005,53.78746,53.83704)" stroke-width=".79701" stroke-linecap="butt" stroke-miterlimit="10" stroke-linejoin="miter" fill="none" stroke="#409f9f" d="M15.94084 3.66855 18.07478 7.66995"/>
<path transform="matrix(1.00002,0,0,-1.00005,53.78746,53.83704)" stroke-width=".79701" stroke-linecap="butt" stroke-miterlimit="10" stroke-linejoin="miter" fill="none" stroke="#409f9f" d="M16.2907 9.18713 17.72493 13.48994"/>
<path transform="matrix(1.00002,0,0,-1.00005,53.78746,53.83704)" stroke-width=".79701" stroke-linecap="butt" stroke-miterlimit="10" stroke-linejoin="miter" fill="none" stroke="#409f9f" d="M16.20055 14.88876 17.81508 19.12686"/>
<path transform="matrix(1.00002,0,0,-1.00005,53.78746,53.83704)" stroke-width=".79701" stroke-linecap="butt" stroke-miterlimit="10" stroke-linejoin="miter" fill="none" stroke="#409f9f" d="M14.74014 22.6771H19.27548"/>
<path transform="matrix(1.00002,0,0,-1.00005,53.78746,53.83704)" stroke-width=".79701" stroke-linecap="butt" stroke-miterlimit="10" stroke-linejoin="miter" fill="none" stroke="#409f9f" d="M16.61093 30.5789 17.4047 26.11382"/>
<path transform="matrix(1.00002,0,0,-1.00005,53.78746,53.83704)" stroke-width=".79701" stroke-linecap="butt" stroke-miterlimit="10" stroke-linejoin="miter" fill="none" stroke="#409f9f" d="M16.85713 36.27829 17.1585 31.75299"/>
<path transform="matrix(1.00002,0,0,-1.00005,53.78746,53.83704)" stroke-width=".79701" stroke-linecap="butt" stroke-miterlimit="10" stroke-linejoin="miter" fill="none" stroke="#409f9f" d="M16.92944 41.95119 17.08618 37.41862"/>
<path transform="matrix(1.00002,0,0,-1.00005,53.78746,53.83704)" stroke-width=".79701" stroke-linecap="butt" stroke-miterlimit="10" stroke-linejoin="miter" fill="none" stroke="#409f9f" d="M22.59872-41.95119 22.75545-37.41862"/>
<path transform="matrix(1.00002,0,0,-1.00005,53.78746,53.83704)" stroke-width=".79701" stroke-linecap="butt" stroke-miterlimit="10" stroke-linejoin="miter" fill="none" stroke="#409f9f" d="M22.52641-36.27829 22.82777-31.75299"/>
<path transform="matrix(1.00002,0,0,-1.00005,53.78746,53.83704)" stroke-width=".79701" stroke-linecap="butt" stroke-miterlimit="10" stroke-linejoin="miter" fill="none" stroke="#409f9f" d="M22.28021-30.57907 23.07396-26.11365"/>
<path transform="matrix(1.00002,0,0,-1.00005,53.78746,53.83704)" stroke-width=".79701" stroke-linecap="butt" stroke-miterlimit="10" stroke-linejoin="miter" fill="none" stroke="#409f9f" d="M20.40942-22.6771H24.94475"/>
<path transform="matrix(1.00002,0,0,-1.00005,53.78746,53.83704)" stroke-width=".79701" stroke-linecap="butt" stroke-miterlimit="10" stroke-linejoin="miter" fill="none" stroke="#409f9f" d="M21.86981-14.88876 23.48436-19.12686"/>
<path transform="matrix(1.00002,0,0,-1.00005,53.78746,53.83704)" stroke-width=".79701" stroke-linecap="butt" stroke-miterlimit="10" stroke-linejoin="miter" fill="none" stroke="#409f9f" d="M21.95996-9.1873 23.39421-13.48978"/>
<path transform="matrix(1.00002,0,0,-1.00005,53.78746,53.83704)" stroke-width=".79701" stroke-linecap="butt" stroke-miterlimit="10" stroke-linejoin="miter" fill="none" stroke="#409f9f" d="M21.61012-3.66855 23.74405-7.66995"/>
<path transform="matrix(1.00002,0,0,-1.00005,53.78746,53.83704)" stroke-width=".79701" stroke-linecap="butt" stroke-miterlimit="10" stroke-linejoin="miter" fill="none" stroke="#409f9f" d="M20.40942 0H24.94475"/>
<path transform="matrix(1.00002,0,0,-1.00005,53.78746,53.83704)" stroke-width=".79701" stroke-linecap="butt" stroke-miterlimit="10" stroke-linejoin="miter" fill="none" stroke="#409f9f" d="M21.61012 3.66855 23.74405 7.66995"/>
<path transform="matrix(1.00002,0,0,-1.00005,53.78746,53.83704)" stroke-width=".79701" stroke-linecap="butt" stroke-miterlimit="10" stroke-linejoin="miter" fill="none" stroke="#409f9f" d="M21.95996 9.18713 23.39421 13.48994"/>
<path transform="matrix(1.00002,0,0,-1.00005,53.78746,53.83704)" stroke-width=".79701" stroke-linecap="butt" stroke-miterlimit="10" stroke-linejoin="miter" fill="none" stroke="#409f9f" d="M21.86981 14.88876 23.48436 19.12686"/>
<path transform="matrix(1.00002,0,0,-1.00005,53.78746,53.83704)" stroke-width=".79701" stroke-linecap="butt" stroke-miterlimit="10" stroke-linejoin="miter" fill="none" stroke="#409f9f" d="M20.40942 22.6771H24.94475"/>
<path transform="matrix(1.00002,0,0,-1.00005,53.78746,53.83704)" stroke-width=".79701" stroke-linecap="butt" stroke-miterlimit="10" stroke-linejoin="miter" fill="none" stroke="#409f9f" d="M22.28021 30.5789 23.07396 26.11382"/>
<path transform="matrix(1.00002,0,0,-1.00005,53.78746,53.83704)" stroke-width=".79701" stroke-linecap="butt" stroke-miterlimit="10" stroke-linejoin="miter" fill="none" stroke="#409f9f" d="M22.52641 36.27829 22.82777 31.75299"/>
<path transform="matrix(1.00002,0,0,-1.00005,53.78746,53.83704)" stroke-width=".79701" stroke-linecap="butt" stroke-miterlimit="10" stroke-linejoin="miter" fill="none" stroke="#409f9f" d="M22.59872 41.95119 22.75545 37.41862"/>
<path transform="matrix(1.00002,0,0,-1.00005,53.78746,53.83704)" stroke-width=".79701" stroke-linecap="butt" stroke-miterlimit="10" stroke-linejoin="miter" fill="none" stroke="#409f9f" d="M28.26799-41.95119 28.42473-37.41862"/>
<path transform="matrix(1.00002,0,0,-1.00005,53.78746,53.83704)" stroke-width=".79701" stroke-linecap="butt" stroke-miterlimit="10" stroke-linejoin="miter" fill="none" stroke="#409f9f" d="M28.19568-36.27829 28.49704-31.75299"/>
<path transform="matrix(1.00002,0,0,-1.00005,53.78746,53.83704)" stroke-width=".79701" stroke-linecap="butt" stroke-miterlimit="10" stroke-linejoin="miter" fill="none" stroke="#409f9f" d="M27.94948-30.57907 28.74324-26.11365"/>
<path transform="matrix(1.00002,0,0,-1.00005,53.78746,53.83704)" stroke-width=".79701" stroke-linecap="butt" stroke-miterlimit="10" stroke-linejoin="miter" fill="none" stroke="#409f9f" d="M26.0787-22.6771H30.61403"/>
<path transform="matrix(1.00002,0,0,-1.00005,53.78746,53.83704)" stroke-width=".79701" stroke-linecap="butt" stroke-miterlimit="10" stroke-linejoin="miter" fill="none" stroke="#409f9f" d="M27.5391-14.88876 29.15363-19.12686"/>
<path transform="matrix(1.00002,0,0,-1.00005,53.78746,53.83704)" stroke-width=".79701" stroke-linecap="butt" stroke-miterlimit="10" stroke-linejoin="miter" fill="none" stroke="#409f9f" d="M27.62924-9.1873 29.06349-13.48978"/>
<path transform="matrix(1.00002,0,0,-1.00005,53.78746,53.83704)" stroke-width=".79701" stroke-linecap="butt" stroke-miterlimit="10" stroke-linejoin="miter" fill="none" stroke="#409f9f" d="M27.27939-3.66855 29.41333-7.66995"/>
<path transform="matrix(1.00002,0,0,-1.00005,53.78746,53.83704)" stroke-width=".79701" stroke-linecap="butt" stroke-miterlimit="10" stroke-linejoin="miter" fill="none" stroke="#409f9f" d="M26.0787 0H30.61403"/>
<path transform="matrix(1.00002,0,0,-1.00005,53.78746,53.83704)" stroke-width=".79701" stroke-linecap="butt" stroke-miterlimit="10" stroke-linejoin="miter" fill="none" stroke="#409f9f" d="M27.27939 3.66855 29.41333 7.66995"/>
<path transform="matrix(1.00002,0,0,-1.00005,53.78746,53.83704)" stroke-width=".79701" stroke-linecap="butt" stroke-miterlimit="10" stroke-linejoin="miter" fill="none" stroke="#409f9f" d="M27.62924 9.18713 29.06349 13.48994"/>
<path transform="matrix(1.00002,0,0,-1.00005,53.78746,53.83704)" stroke-width=".79701" stroke-linecap="butt" stroke-miterlimit="10" stroke-linejoin="miter" fill="none" stroke="#409f9f" d="M27.5391 14.88876 29.15363 19.12686"/>
<path transform="matrix(1.00002,0,0,-1.00005,53.78746,53.83704)" stroke-width=".79701" stroke-linecap="butt" stroke-miterlimit="10" stroke-linejoin="miter" fill="none" stroke="#409f9f" d="M26.0787 22.6771H30.61403"/>
<path transform="matrix(1.00002,0,0,-1.00005,53.78746,53.83704)" stroke-width=".79701" stroke-linecap="butt" stroke-miterlimit="10" stroke-linejoin="miter" fill="none" stroke="#409f9f" d="M27.94948 30.5789 28.74324 26.11382"/>
<path transform="matrix(1.00002,0,0,-1.00005,53.78746,53.83704)" stroke-width=".79701" stroke-linecap="butt" stroke-miterlimit="10" stroke-linejoin="miter" fill="none" stroke="#409f9f" d="M28.19568 36.27829 28.49704 31.75299"/>
<path transform="matrix(1.00002,0,0,-1.00005,53.78746,53.83704)" stroke-width=".79701" stroke-linecap="butt" stroke-miterlimit="10" stroke-linejoin="miter" fill="none" stroke="#409f9f" d="M28.26799 41.95119 28.42473 37.41862"/>
<path transform="matrix(1.00002,0,0,-1.00005,53.78746,53.83704)" stroke-width=".79701" stroke-linecap="butt" stroke-miterlimit="10" stroke-linejoin="miter" fill="none" stroke="#409f9f" d="M33.93727-41.95119 34.094-37.41862"/>
<path transform="matrix(1.00002,0,0,-1.00005,53.78746,53.83704)" stroke-width=".79701" stroke-linecap="butt" stroke-miterlimit="10" stroke-linejoin="miter" fill="none" stroke="#409f9f" d="M33.86496-36.27829 34.16632-31.75299"/>
<path transform="matrix(1.00002,0,0,-1.00005,53.78746,53.83704)" stroke-width=".79701" stroke-linecap="butt" stroke-miterlimit="10" stroke-linejoin="miter" fill="none" stroke="#409f9f" d="M33.61876-30.57907 34.4125-26.11365"/>
<path transform="matrix(1.00002,0,0,-1.00005,53.78746,53.83704)" stroke-width=".79701" stroke-linecap="butt" stroke-miterlimit="10" stroke-linejoin="miter" fill="none" stroke="#409f9f" d="M31.74797-22.6771H36.2833"/>
<path transform="matrix(1.00002,0,0,-1.00005,53.78746,53.83704)" stroke-width=".79701" stroke-linecap="butt" stroke-miterlimit="10" stroke-linejoin="miter" fill="none" stroke="#409f9f" d="M33.20836-14.88876 34.8229-19.12686"/>
<path transform="matrix(1.00002,0,0,-1.00005,53.78746,53.83704)" stroke-width=".79701" stroke-linecap="butt" stroke-miterlimit="10" stroke-linejoin="miter" fill="none" stroke="#409f9f" d="M33.29851-9.1873 34.73276-13.48978"/>
<path transform="matrix(1.00002,0,0,-1.00005,53.78746,53.83704)" stroke-width=".79701" stroke-linecap="butt" stroke-miterlimit="10" stroke-linejoin="miter" fill="none" stroke="#409f9f" d="M32.94867-3.66855 35.0826-7.66995"/>
<path transform="matrix(1.00002,0,0,-1.00005,53.78746,53.83704)" stroke-width=".79701" stroke-linecap="butt" stroke-miterlimit="10" stroke-linejoin="miter" fill="none" stroke="#409f9f" d="M31.74797 0H36.2833"/>
<path transform="matrix(1.00002,0,0,-1.00005,53.78746,53.83704)" stroke-width=".79701" stroke-linecap="butt" stroke-miterlimit="10" stroke-linejoin="miter" fill="none" stroke="#409f9f" d="M32.94867 3.66855 35.0826 7.66995"/>
<path transform="matrix(1.00002,0,0,-1.00005,53.78746,53.83704)" stroke-width=".79701" stroke-linecap="butt" stroke-miterlimit="10" stroke-linejoin="miter" fill="none" stroke="#409f9f" d="M33.29851 9.18713 34.73276 13.48994"/>
<path transform="matrix(1.00002,0,0,-1.00005,53.78746,53.83704)" stroke-width=".79701" stroke-linecap="butt" stroke-miterlimit="10" stroke-linejoin="miter" fill="none" stroke="#409f9f" d="M33.20836 14.88876 34.8229 19.12686"/>
<path transform="matrix(1.00002,0,0,-1.00005,53.78746,53.83704)" stroke-width=".79701" stroke-linecap="butt" stroke-miterlimit="10" stroke-linejoin="miter" fill="none" stroke="#409f9f" d="M31.74797 22.6771H36.2833"/>
<path transform="matrix(1.00002,0,0,-1.00005,53.78746,53.83704)" stroke-width=".79701" stroke-linecap="butt" stroke-miterlimit="10" stroke-linejoin="miter" fill="none" stroke="#409f9f" d="M33.61876 30.5789 34.4125 26.11382"/>
<path transform="matrix(1.00002,0,0,-1.00005,53.78746,53.83704)" stroke-width=".79701" stroke-linecap="butt" stroke-miterlimit="10" stroke-linejoin="miter" fill="none" stroke="#409f9f" d="M33.86496 36.27829 34.16632 31.75299"/>
<path transform="matrix(1.00002,0,0,-1.00005,53.78746,53.83704)" stroke-width=".79701" stroke-linecap="butt" stroke-miterlimit="10" stroke-linejoin="miter" fill="none" stroke="#409f9f" d="M33.93727 41.95119 34.094 37.41862"/>
<path transform="matrix(1.00002,0,0,-1.00005,53.78746,53.83704)" stroke-width=".79701" stroke-linecap="butt" stroke-miterlimit="10" stroke-linejoin="miter" fill="none" stroke="#409f9f" d="M39.60654-41.95119 39.76328-37.41862"/>
<path transform="matrix(1.00002,0,0,-1.00005,53.78746,53.83704)" stroke-width=".79701" stroke-linecap="butt" stroke-miterlimit="10" stroke-linejoin="miter" fill="none" stroke="#409f9f" d="M39.53423-36.27829 39.83559-31.75299"/>
<path transform="matrix(1.00002,0,0,-1.00005,53.78746,53.83704)" stroke-width=".79701" stroke-linecap="butt" stroke-miterlimit="10" stroke-linejoin="miter" fill="none" stroke="#409f9f" d="M39.28802-30.57907 40.08179-26.11365"/>
<path transform="matrix(1.00002,0,0,-1.00005,53.78746,53.83704)" stroke-width=".79701" stroke-linecap="butt" stroke-miterlimit="10" stroke-linejoin="miter" fill="none" stroke="#409f9f" d="M37.41725-22.6771H41.95258"/>
<path transform="matrix(1.00002,0,0,-1.00005,53.78746,53.83704)" stroke-width=".79701" stroke-linecap="butt" stroke-miterlimit="10" stroke-linejoin="miter" fill="none" stroke="#409f9f" d="M38.87764-14.88876 40.49217-19.12686"/>
<path transform="matrix(1.00002,0,0,-1.00005,53.78746,53.83704)" stroke-width=".79701" stroke-linecap="butt" stroke-miterlimit="10" stroke-linejoin="miter" fill="none" stroke="#409f9f" d="M38.96779-9.1873 40.40204-13.48978"/>
<path transform="matrix(1.00002,0,0,-1.00005,53.78746,53.83704)" stroke-width=".79701" stroke-linecap="butt" stroke-miterlimit="10" stroke-linejoin="miter" fill="none" stroke="#409f9f" d="M38.61795-3.66855 40.75188-7.66995"/>
<path transform="matrix(1.00002,0,0,-1.00005,53.78746,53.83704)" stroke-width=".79701" stroke-linecap="butt" stroke-miterlimit="10" stroke-linejoin="miter" fill="none" stroke="#409f9f" d="M37.41725 0H41.95258"/>
<path transform="matrix(1.00002,0,0,-1.00005,53.78746,53.83704)" stroke-width=".79701" stroke-linecap="butt" stroke-miterlimit="10" stroke-linejoin="miter" fill="none" stroke="#409f9f" d="M38.61795 3.66855 40.75188 7.66995"/>
<path transform="matrix(1.00002,0,0,-1.00005,53.78746,53.83704)" stroke-width=".79701" stroke-linecap="butt" stroke-miterlimit="10" stroke-linejoin="miter" fill="none" stroke="#409f9f" d="M38.96779 9.18713 40.40204 13.48994"/>
<path transform="matrix(1.00002,0,0,-1.00005,53.78746,53.83704)" stroke-width=".79701" stroke-linecap="butt" stroke-miterlimit="10" stroke-linejoin="miter" fill="none" stroke="#409f9f" d="M38.87764 14.88876 40.49217 19.12686"/>
<path transform="matrix(1.00002,0,0,-1.00005,53.78746,53.83704)" stroke-width=".79701" stroke-linecap="butt" stroke-miterlimit="10" stroke-linejoin="miter" fill="none" stroke="#409f9f" d="M37.41725 22.6771H41.95258"/>
<path transform="matrix(1.00002,0,0,-1.00005,53.78746,53.83704)" stroke-width=".79701" stroke-linecap="butt" stroke-miterlimit="10" stroke-linejoin="miter" fill="none" stroke="#409f9f" d="M39.28802 30.5789 40.08179 26.11382"/>
<path transform="matrix(1.00002,0,0,-1.00005,53.78746,53.83704)" stroke-width=".79701" stroke-linecap="butt" stroke-miterlimit="10" stroke-linejoin="miter" fill="none" stroke="#409f9f" d="M39.53423 36.27829 39.83559 31.75299"/>
<path transform="matrix(1.00002,0,0,-1.00005,53.78746,53.83704)" stroke-width=".79701" stroke-linecap="butt" stroke-miterlimit="10" stroke-linejoin="miter" fill="none" stroke="#409f9f" d="M39.60654 41.95119 39.76328 37.41862"/>
<path transform="matrix(1.00002,0,0,-1.00005,53.78746,53.83704)" stroke-width=".79701" stroke-linecap="butt" stroke-miterlimit="10" stroke-linejoin="miter" fill="none" stroke="#ec008c" d="M-45.35419-34.11926-44.58238-33.35489-43.81058-32.59036-43.03876-31.82721-42.26695-31.06438-41.49515-30.30226-40.72333-29.54066-39.95152-28.77959-39.17972-28.01971-38.4079-27.26036-37.6361-26.50221-36.86429-25.74512-36.09247-24.98854-35.32066-24.23317-34.54886-23.4795-33.77705-22.72656-33.00523-21.97517-32.23343-21.22481-31.46162-20.4762-30.6898-19.72948-29.918-18.9843-29.1462-18.24088-28.37437-17.4997-27.60257-16.76074-26.83076-16.02406-26.05896-15.28963-25.28716-14.55812-24.51534-13.82887-23.74353-13.1029-22.97173-12.3804-22.1999-11.66136-21.42812-10.94632-20.6563-10.23454-19.88449-9.52744-19.11269-8.82483-18.34087-8.12672-17.56906-7.43434-16.79726-6.74747-16.02545-6.0665-15.25365-5.39157-14.48183-4.7241-13.71002-4.06352-12.93822-3.41075-12.1664-2.76663-11.39459-2.13133-10.62279-1.50589-9.85097-.89064-9.07916-.28667-8.30736 .30588-7.53555 .88547-6.76373 1.45207-5.99193 2.00381-5.22012 2.54031-4.4483 3.05971-3.6765 3.56213-2.9047 4.04485-2.13287 4.50766-1.36107 4.94815-.58926 5.36613 .18251 5.75992 .95433 6.12584 1.72614 6.4634 2.49794 6.77013 3.26974 7.04436 4.04156 7.2833 4.81337 7.48468 5.58517 7.6461 6.357 7.76445 7.1288 7.83658 7.9006 7.8596 8.67242 7.83002 9.44421 7.74368 10.21602 7.59695 10.98782 7.3859 11.75963 7.10474 12.53145 6.75041 13.30325 6.31633 14.07507 5.79712 14.84688 5.18707 15.61868 4.47978 16.3905 3.66837 17.16231 2.74535 17.93411 1.70311 18.70593 .53268 19.47774-.77422 20.24954-2.22752 21.02135-3.83759 21.79315-5.61545 22.56497-7.57326 23.33678-9.72328 24.10858-12.07867 24.8804-14.65431 25.6522-17.46646 26.42403-20.53069 27.19583-23.86534 27.96764-27.48839 28.73944-31.42218 29.51125-35.68658 30.28307-40.30637 31.05487-45.3047"/>
</svg>
