<svg xmlns="http://www.w3.org/2000/svg" xmlns:xlink="http://www.w3.org/1999/xlink" version="1.1" width="142" height="43" viewBox="0 0 142 43">
<defs>
<path id="font_1_1" d="M.42799378 .45222474 .43899537 .49023438H.31199647L.34599305 .6092224 .33399964 .6162262 .23699951 .53923037 .22399903 .49023438H.14299011L.13198853 .45222474H.21499634L.125 .08627319C.10998535 .029266358 .12199402-.01171875 .17199707-.01171875 .2519989-.01171875 .31599427 .054275514 .35598756 .1292572L.33399964 .1462555C.31098939 .10726929 .2599945 .040267946 .22898865 .040267946 .20799256 .040267946 .20799256 .0632782 .21398926 .088272098L.30299378 .45222474H.42799378Z"/>
<path id="font_2_4" d="M.3809967 .6720276C.5589905 .6720276 .59999087 .4931183 .60198977 .3461914 .59999087 .19924927 .5589905 .020339966 .3809967 .020339966 .20298767 .020339966 .1619873 .19924927 .1599884 .3461914 .1619873 .4931183 .20298767 .6720276 .3809967 .6720276M.3809967 .70703127C.2709961 .70703127 .18899536 .6730194 .1329956 .61006167 .07899475 .55007937 .04798889 .4591217 .04798889 .3461914 .04798889 .23423767 .07899475 .14228821 .1329956 .08232117 .18899536 .019348145 .2709961-.0146484379 .3809967-.0146484379 .49198915-.0146484379 .57299807 .019348145 .6289978 .08232117 .6839905 .14228821 .71398928 .23423767 .71398928 .3461914 .71398928 .4591217 .6839905 .55007937 .6289978 .61006167 .57299807 .6730194 .49198915 .70703127 .3809967 .70703127Z"/>
<path id="font_2_3" d="M.033996583 .6923828V.66337588C.12199402 .6573639 .12399292 .655365 .12399292 .5993347V.20309448C.12399292 .15007019 .12199402 .11204529 .116989139 .07902527 .11099243 .037002565 .08699036 .032989503 .034988405 .0289917V0H.27198792V.0289917C.20698548 .033996583 .18299866 .037002565 .1769867 .07902527 .17199707 .11204529 .16999817 .15007019 .16999817 .20309448V.6023407H.17199707C.31498719 .4012146 .45700074 .20109558 .59799197 0H.6639862V.48927308C.6639862 .54229739 .66600039 .58032229 .67099 .6133423 .6769867 .655365 .70098879 .6593628 .7529907 .66337588V.6923828H.5159912V.66337588C.58099368 .658371 .6049957 .655365 .61099246 .6133423 .6159973 .58032229 .6179962 .54229739 .6179962 .48927308V.13806153L.6159973 .14006043C.4850006 .32417298 .35499574 .5082855 .22599793 .6923828H.033996583Z"/>
<path id="font_2_10" d="M.18899536 .5019531 .036987306 .47694398V.45195008L.07499695 .4469452C.100997928 .4429474 .10699463 .4379425 .10699463 .40194703V.08699036C.10699463 .035995485 .101989749 .033996583 .03199768 .0289917V0H.29599V.0289917C.20698548 .033996583 .20098877 .035995485 .20098877 .08699036V.32095338C.20098877 .39794923 .23498535 .4239502 .2579956 .4239502 .27398683 .4239502 .29100038 .4179535 .31999208 .40194703 .32699586 .39794923 .33499146 .39694215 .33999635 .39694215 .3639984 .39694215 .38598634 .4219513 .38598634 .4529419 .38598634 .47494508 .37199403 .5019531 .33299256 .5019531 .29699708 .5019531 .2669983 .47994996 .20098877 .4219513L.18899536 .5019531Z"/>
<path id="font_2_5" d="M.44099427 .2627716C.46199037 .2627716 .48098756 .2677765 .48098756 .30078126 .48098756 .35983277 .46199037 .5019531 .2789917 .5019531 .12298584 .5019531 .04899597 .39086915 .04899597 .24082947 .04899597 .08317566 .116989139-.01373291 .27999879-.01171875 .3909912-.010726929 .44799806 .050247194 .47499085 .1290741L.44499208 .14503479C.4169922 .08717346 .3789978 .039276124 .2999878 .039276124 .17599488 .039276124 .15098572 .15901184 .15299988 .2627716H.44099427M.1539917 .30078126C.1539917 .34181214 .16899109 .46694947 .272995 .46694947 .3659973 .46694947 .3769989 .37184144 .3769989 .33280946 .3769989 .31378175 .37098695 .30078126 .34298707 .30078126H.1539917Z"/>
<path id="font_2_6" d="M.2599945 .46694947C.30899049 .46694947 .3600006 .43093873 .3600006 .33392335 .3600006 .24989319 .31599427 .20588684 .2579956 .20588684 .20199585 .20588684 .15499878 .24989319 .15499878 .33392335 .15499878 .43293763 .20698548 .46694947 .2599945 .46694947M.2809906-.2071991C.19599915-.2071991 .13699341-.16319275 .13699341-.09118652 .13699341-.057174684 .14698792-.032180787 .16799927-.016174317 .18998719 .0008239746 .22299195 .0068359377 .2709961 .0068359377 .35899354 .0068359377 .42399598-.014175415 .42399598-.08918762 .42399598-.16918946 .35198976-.2071991 .2809906-.2071991M.3889923 .47094728C.36099244 .48994447 .30599977 .5019531 .2599945 .5019531 .10699463 .5019531 .052993776 .40792848 .052993776 .33392335 .052993776 .23989868 .114990238 .19688416 .16099549 .18489075V.18289185C.10699463 .1618805 .068984989 .13285828 .068984989 .09384155 .068984989 .05882263 .10899353 .020828248 .15699768 .015823365V.013824463C.11399841-.00016784668 .041992189-.024169922 .041992189-.09617615 .041992189-.19718933 .14199829-.2421875 .2579956-.2421875 .31799317-.2421875 .3809967-.23019409 .42900086-.20118714 .47499085-.17318726 .5079956-.12619019 .5079956-.06417847 .5079956 .043823244 .42199708 .081832889 .31498719 .081832889H.23498535C.16299439 .081832889 .1519928 .10585022 .1519928 .12486267 .1519928 .15388489 .18998719 .16989136 .20298767 .17388916 .22200012 .17189026 .24299622 .17089844 .2539978 .17089844 .34899903 .17089844 .45599366 .21289063 .45599366 .33392335 .45599366 .3759308 .44299317 .41093446 .42599488 .42793275L.5049896 .4399414 .5249939 .50294497 .5169983 .51194766 .3889923 .47094728Z"/>
<path id="font_2_7" d="M.036987306 .47694398V.45195008L.07499695 .4469452C.100997928 .4429474 .10699463 .43795777 .10699463 .40194703V.08699036C.10699463 .035995485 .10398865 .033996583 .03199768 .0289917V0H.27598573V.0289917C.20498657 .033996583 .20098877 .035995485 .20098877 .08699036V.49609376L.19400025 .5020752 .036987306 .47694398M.15299988 .71484377C.116989139 .71484377 .09199524 .6888428 .09199524 .65283206 .09199524 .61782839 .116989139 .5928345 .15299988 .5928345 .18998719 .5928345 .21299744 .61782839 .21398926 .65283206 .21398926 .6888428 .18998719 .71484377 .15299988 .71484377Z"/>
<path id="font_2_9" d="M.28799439 .5019531C.12799073 .5019531 .04899597 .40698243 .04899597 .24510193 .04899597 .083236698 .12799073-.01171875 .28799439-.01171875 .44999696-.01171875 .5279999 .083236698 .5279999 .24510193 .5279999 .40698243 .44999696 .5019531 .28799439 .5019531M.15299988 .24510193C.15299988 .38301087 .19699097 .46694947 .28799439 .46694947 .3809967 .46694947 .42399598 .38301087 .42399598 .24510193 .42399598 .10720825 .3809967 .023269654 .28799439 .023269654 .19699097 .023269654 .15299988 .10720825 .15299988 .24510193Z"/>
<path id="font_2_8" d="M.5289917 .34295655C.5289917 .4439392 .47399903 .5019531 .38198854 .5019531 .30799867 .5019531 .2619934 .46594239 .19999695 .4259491L.18598938 .5019531 .036987306 .47694398V.45195008L.07499695 .4469452C.100997928 .4429474 .10699463 .4379425 .10699463 .40194703V.08699036C.10699463 .035995485 .10398865 .033996583 .03199768 .0289917V0H.27598573V.0289917C.20498657 .033996583 .20098877 .035995485 .20098877 .08699036V.32095338C.20098877 .34596253 .20298767 .35995484 .21099854 .37594605 .23199463 .4149475 .2769928 .44795228 .32998658 .44795228 .397995 .44795228 .43499757 .40994264 .43499757 .32295228V.08699036C.43499757 .035995485 .43199159 .033996583 .3600006 .0289917V0H.60398867V.0289917C.5329895 .033996583 .5289917 .035995485 .5289917 .08699036V.34295655Z"/>
<path id="font_2_1" d="M.4850006 .13195801 .45700074 .13696289C.43598939 .08299255 .41600038 .07598877 .37599183 .07598877H.11999512C.13598633 .1279602 .19499207 .19892884 .28799439 .2658844 .38398744 .33584596 .45799256 .38082887 .45799256 .49276734 .45799256 .63168337 .3659973 .6796875 .26098634 .6796875 .12399292 .6796875 .052993776 .5967102 .052993776 .54473879 .052993776 .51075747 .09098816 .49476625 .10798645 .49476625 .12599182 .49476625 .1329956 .50476077 .13699341 .5217438 .15299988 .5897064 .19198609 .64468386 .2539978 .64468386 .33099366 .64468386 .35299684 .5797119 .35299684 .50675967 .35299684 .3998108 .29899598 .33984376 .21199036 .26289369 .08898926 .15594483 .04598999 .08798218 .026992798 .009994507L.036987306 0H.45098878L.4850006 .13195801Z"/>
<path id="font_2_2" d="M.034988405 .6923828V.66337588C.12298584 .6573639 .125 .655365 .125 .5993347V.093048099C.125 .037002565 .12298584 .035003663 .034988405 .0289917V0H.32998658V.0289917C.22698975 .035003663 .22399903 .037002565 .22399903 .093048099V.32722474H.3639984C.44898988 .32722474 .45298768 .3032074 .46199037 .23916626H.49198915V.4532776H.46199037C.45298768 .38923646 .44898988 .36523438 .3639984 .36523438H.22399903V.62135317C.22399903 .65437319 .22799683 .65737918 .26098634 .65737918H.3600006C.47599793 .65737918 .49899293 .6343689 .5130005 .5323181H.54299929V.6923828H.034988405Z"/>
</defs>
<path transform="matrix(1.00005,0,0,-1.00008,1.4913712,29.48108)" d="M39.68535-11.90572V27.77962H79.37071V-11.90572ZM79.37071 27.77962" fill="#d9ecd9"/>
<path transform="matrix(1.00005,0,0,-1.00008,1.4913712,29.48108)" stroke-width=".3985" stroke-linecap="butt" stroke-miterlimit="10" stroke-linejoin="miter" fill="none" stroke="#000000" d="M.45827 0H138.44048"/>
<path transform="matrix(-1.00005,-0,0,1.00008,1.9496641,29.48108)" stroke-width=".31879" stroke-linecap="round" stroke-linejoin="round" fill="none" stroke="#000000" d="M-1.19551 1.59401C-1.09587 .99626 0 .09961 .29886 0 0-.09961-1.09587-.99626-1.19551-1.59401"/>
<path transform="matrix(1.00005,0,0,-1.00008,139.93875,29.48108)" stroke-width=".31879" stroke-linecap="round" stroke-linejoin="round" fill="none" stroke="#000000" d="M-1.19551 1.59401C-1.09587 .99626 0 .09961 .29886 0 0-.09961-1.09587-.99626-1.19551-1.59401"/>
<use data-text="t" xlink:href="#font_1_1" transform="matrix(9.166058,0,0,-9.166333,136.4591,26.0018)"/>
<path transform="matrix(1.00005,0,0,-1.00008,1.4913712,29.48108)" stroke-width=".19925" stroke-linecap="butt" stroke-dasharray="2.98883,2.98883" stroke-miterlimit="10" stroke-linejoin="miter" fill="none" stroke="#000000" d="M39.68535-11.90572V27.77962"/>
<path transform="matrix(1.00005,0,0,-1.00008,1.4913712,29.48108)" stroke-width="1.19553" stroke-linecap="butt" stroke-miterlimit="10" stroke-linejoin="miter" fill="none" stroke="#000000" d="M.9564 0H.38873 .7775 1.16626 1.55504 1.94379 2.33255 2.72133 3.11009 3.49886 3.8876 4.27637 4.66513 5.05391 5.44267 5.83142 6.2202 6.60896 6.99773 7.38647 7.77524 8.164 8.55278 8.94154 9.33029 9.71907 10.10783 10.4966 10.88536 11.27411 11.66287 12.05165 12.44041 12.82916 13.21793 13.6067 13.99547 14.38423 14.77298 15.16174 15.5505 15.93929 16.32805 16.7168 17.10558 17.49434 17.8831 18.27187 18.66061 19.04938 19.43816 19.82692 20.21567 20.60445 20.99321 21.38197 21.77074 22.15948 22.54825 22.93703 23.32579 23.71455 24.10332 24.49208 24.88084 25.2696 25.65836 26.04712 26.43588 26.82466 27.21342 27.60217 27.99095 28.37971 28.76848 29.15724 29.54599 29.93475 30.32353 30.7123 31.10104 31.48982 31.87859 32.26735 32.65611 33.04486 33.43362 33.8224 34.21117 34.59993 34.9887 35.37746 35.76622 36.15498 36.54375 36.9325 37.32126 37.71004 38.0988 38.48755"/>
<path transform="matrix(-1.00005,-0,0,1.00008,2.4478188,29.48108)" stroke-width=".9564" stroke-linecap="round" stroke-linejoin="round" fill="none" stroke="#000000" d="M-1.91284 2.55046C-1.75343 1.59402 0 .15938 .4782 0 0-.15938-1.75343-1.59402-1.91284-2.55046"/>
<path transform="matrix(1.00005,0,0,-1.00008,1.4913712,29.48108)" stroke-width="1.19553" stroke-linecap="butt" stroke-miterlimit="10" stroke-linejoin="miter" fill="none" stroke="#000000" d="M41.77753 0C41.77753 1.15549 40.84084 2.09216 39.68535 2.09216 38.52986 2.09216 37.59317 1.15549 37.59317 0 37.59317-1.15549 38.52986-2.09216 39.68535-2.09216 40.84084-2.09216 41.77753-1.15549 41.77753 0ZM39.68535 0"/>
<path transform="matrix(1.00005,0,0,-1.00008,1.4913712,29.48108)" d="M41.77753 19.84267C41.77753 20.99815 40.84084 21.93483 39.68535 21.93483 38.52986 21.93483 37.59317 20.99815 37.59317 19.84267 37.59317 18.68718 38.52986 17.75049 39.68535 17.75049 40.84084 17.75049 41.77753 18.68718 41.77753 19.84267ZM39.68535 19.84267"/>
<path transform="matrix(1.00005,0,0,-1.00008,1.4913712,29.48108)" stroke-width="1.19553" stroke-linecap="butt" stroke-miterlimit="10" stroke-linejoin="miter" fill="none" stroke="#000000" d="M39.68535 19.84267H40.07411 40.46288 40.85162 41.24039 41.62915 42.01791 42.4067 42.79544 43.1842 43.57298 43.96175 44.35051 44.73926 45.12802 45.51678 45.90556 46.29431 46.68307 47.07185 47.46062 47.84938 48.23813 48.62689 49.01566 49.40443 49.7932 50.18195 50.57072 50.95949 51.34825 51.737 52.12576 52.51453 52.90329 53.29207 53.68082 54.06958 54.45836 54.84712 55.23589 55.62463 56.0134 56.40216 56.79094 57.1797 57.56845 57.95723 58.346 58.73476 59.1235 59.51227 59.90103 60.28981 60.67857 61.06732 61.4561 61.84486 62.23363 62.62239 63.01114 63.3999 63.78868 64.17744 64.5662 64.95496 65.34373 65.7325 66.12126 66.51001 66.89877 67.28754 67.67632 68.06508 68.45383 68.8426 69.23137 69.62013 70.00888 70.39764 70.7864 71.17519 71.56395 71.9527 72.34148 72.73024 73.119 73.50777 73.89651 74.28528 74.67406 75.06282 75.45158 75.84035 76.22911 76.61787 77.00664 77.39539 77.78415 78.17291"/>
<path transform="matrix(1.00005,0,0,-1.00008,1.4913712,29.48108)" stroke-width="1.19553" stroke-linecap="butt" stroke-miterlimit="10" stroke-linejoin="miter" fill="none" stroke="#000000" d="M81.46288 19.84267C81.46288 20.99815 80.5262 21.93483 79.37071 21.93483 78.21523 21.93483 77.27853 20.99815 77.27853 19.84267 77.27853 18.68718 78.21523 17.75049 79.37071 17.75049 80.5262 17.75049 81.46288 18.68718 81.46288 19.84267ZM79.37071 19.84267"/>
<path transform="matrix(1.00005,0,0,-1.00008,1.4913712,29.48108)" d="M81.46288 0C81.46288 1.15549 80.5262 2.09216 79.37071 2.09216 78.21523 2.09216 77.27853 1.15549 77.27853 0 77.27853-1.15549 78.21523-2.09216 79.37071-2.09216 80.5262-2.09216 81.46288-1.15549 81.46288 0ZM79.37071 0"/>
<path transform="matrix(1.00005,0,0,-1.00008,1.4913712,29.48108)" stroke-width="1.19553" stroke-linecap="butt" stroke-miterlimit="10" stroke-linejoin="miter" fill="none" stroke="#000000" d="M79.37071 0H79.9717 80.57271 81.17374 81.77473 82.37575 82.97676 83.57776 84.17877 84.77979 85.38078 85.98181 86.58281 87.18382 87.78482 88.38583 88.98685 89.58784 90.18886 90.78987 91.39088 91.9919 92.5929 93.19391 93.7949 94.39594 94.99695 95.59793 96.19894 96.79996 97.40097 98.00198 98.60298 99.20398 99.80501 100.40602 101.00703 101.60802 102.20903 102.81006 103.41106 104.01207 104.61308 105.21408 105.8151 106.4161 107.01712 107.61812 108.21913 108.82014 109.42114 110.02216 110.62317 111.22417 111.82518 112.4262 113.02719 113.62822 114.22922 114.83023 115.43123 116.03224 116.63327 117.23425 117.83527 118.43628 119.0373 119.6383 120.2393 120.84032 121.44131 122.04234 122.64336 123.24434 123.84535 124.44637 125.04738 125.64839 126.2494 126.8504 127.45142 128.05243 128.65345 129.25444 129.85544 130.45647 131.05747 131.65848 132.25949 132.86049 133.4615 134.06252 134.66353 135.26454 135.86554 136.46656 137.06755 137.66857 138.26958 137.91417"/>
<path transform="matrix(1.00005,0,0,-1.00008,139.41242,29.48108)" stroke-width=".9564" stroke-linecap="round" stroke-linejoin="round" fill="none" stroke="#000000" d="M-1.91284 2.55046C-1.75343 1.59402 0 .15938 .4782 0 0-.15938-1.75343-1.59402-1.91284-2.55046"/>
<use data-text="O" xlink:href="#font_2_4" transform="matrix(7.332866,0,0,-7.3330867,55.36706,22.079487)" fill="#008000"/>
<use data-text="N" xlink:href="#font_2_3" transform="matrix(7.332866,0,0,-7.3330867,60.9547,22.079487)" fill="#008000"/>
<use data-text="r" xlink:href="#font_2_10" transform="matrix(7.332866,0,0,-7.3330867,47.655675,39.110849)" fill="#008000"/>
<use data-text="e" xlink:href="#font_2_5" transform="matrix(7.332866,0,0,-7.3330867,50.36883,39.110849)" fill="#008000"/>
<use data-text="g" xlink:href="#font_2_6" transform="matrix(7.332866,0,0,-7.3330867,54.13792,39.110849)" fill="#008000"/>
<use data-text="i" xlink:href="#font_2_7" transform="matrix(7.332866,0,0,-7.3330867,57.951009,39.110849)" fill="#008000"/>
<use data-text="o" xlink:href="#font_2_9" transform="matrix(7.332866,0,0,-7.3330867,60.084875,39.110849)" fill="#008000"/>
<use data-text="n" xlink:href="#font_2_8" transform="matrix(7.332866,0,0,-7.3330867,64.31593,39.110849)" fill="#008000"/>
<use data-text="2" xlink:href="#font_2_1" transform="matrix(7.332866,0,0,-7.3330867,70.49754,39.110849)" fill="#008000"/>
<use data-text="O" xlink:href="#font_2_4" transform="matrix(7.332866,0,0,-7.3330867,14.285011,22.079487)" fill="#008000"/>
<use data-text="F" xlink:href="#font_2_2" transform="matrix(7.332866,0,0,-7.3330867,19.87265,22.079487)" fill="#008000"/>
<use data-text="F" xlink:href="#font_2_2" transform="matrix(7.332866,0,0,-7.3330867,24.125718,22.079487)" fill="#008000"/>
<use data-text="O" xlink:href="#font_2_4" transform="matrix(7.332866,0,0,-7.3330867,103.58147,22.079487)" fill="#008000"/>
<use data-text="F" xlink:href="#font_2_2" transform="matrix(7.332866,0,0,-7.3330867,109.169109,22.079487)" fill="#008000"/>
<use data-text="F" xlink:href="#font_2_2" transform="matrix(7.332866,0,0,-7.3330867,113.42217,22.079487)" fill="#008000"/>
</svg>
