<svg xmlns="http://www.w3.org/2000/svg" xmlns:xlink="http://www.w3.org/1999/xlink" version="1.1" width="131" height="57" viewBox="0 0 131 57">
<defs>
<path id="font_1_2" d="M.42799378 .45222474 .43899537 .49023438H.31199647L.34599305 .6092224 .33399964 .6162262 .23699951 .53923037 .22399903 .49023438H.14299011L.13198853 .45222474H.21499634L.125 .08627319C.10998535 .029266358 .12199402-.01171875 .17199707-.01171875 .2519989-.01171875 .31599427 .054275514 .35598756 .1292572L.33399964 .1462555C.31098939 .10726929 .2599945 .040267946 .22898865 .040267946 .20799256 .040267946 .20799256 .0632782 .21398926 .088272098L.30299378 .45222474H.42799378Z"/>
<path id="font_2_1" d="M.07398987 .2861328V.21612549H.31900025V.2861328H.07398987Z"/>
<path id="font_2_5" d="M.2999878 .17871094V.0769043C.2999878 .04296875 .2889862 .036987306 .2649994 .034988405L.20098877 .0289917V0H.46499635V.0289917L.41999818 .033981325C.39698792 .036987306 .3899994 .04296875 .3899994 .0769043V.17871094H.49299623V.22570801H.3899994V.66796877H.31698609C.22299195 .5298767 .11099243 .35577394 .018997193 .19970703L.027999878 .17871094H.2999878M.09098816 .22570801C.15098572 .33476258 .22099304 .4498291 .2979889 .5709076H.2999878V.22570801H.09098816Z"/>
<path id="font_2_4" d="M.4850006 .13195801 .45700074 .13696289C.43598939 .08299255 .41600038 .07598877 .37599183 .07598877H.11999512C.13598633 .1279602 .19499207 .19892884 .28799439 .2658844 .38398744 .33584596 .45799256 .38082887 .45799256 .49276734 .45799256 .63168337 .3659973 .6796875 .26098634 .6796875 .12399292 .6796875 .052993776 .5967102 .052993776 .54473879 .052993776 .51075747 .09098816 .49476625 .10798645 .49476625 .12599182 .49476625 .1329956 .50476077 .13699341 .5217438 .15299988 .5897064 .19198609 .64468386 .2539978 .64468386 .33099366 .64468386 .35299684 .5797119 .35299684 .50675967 .35299684 .3998108 .29899598 .33984376 .21199036 .26289369 .08898926 .15594483 .04598999 .08798218 .026992798 .009994507L.036987306 0H.45098878L.4850006 .13195801Z"/>
<path id="font_2_3" d="M.43699647 0V.0289917L.35299684 .035995485C.33198548 .037994386 .31999208 .04598999 .31999208 .08496094V.67367556L.31498719 .6796875 .10899353 .6446991V.6197052L.20199585 .6087036C.21899414 .6067047 .22599793 .5987091 .22599793 .56973269V.08496094C.22599793 .065979007 .22299195 .053985597 .21699524 .04698181 .21199036 .039993287 .20399475 .036987306 .19299317 .035995485L.10899353 .0289917V0H.43699647Z"/>
<path id="font_2_9" d="M.36698915 .35102845V.46794129C.33399964 .49194337 .2829895 .5019531 .23799134 .5019531 .12998963 .5019531 .056991579 .45095826 .055999757 .35603334 .056991579 .27308656 .12399292 .2361145 .20698548 .21113587 .2519989 .19714356 .31498719 .17416382 .31498719 .10621643 .31498719 .055252077 .2749939 .023269654 .22200012 .023269654 .14099121 .023269654 .09599304 .082229617 .07598877 .16716004H.04699707L.056991579 .03627014C.09298706 .004272461 .1539917-.01171875 .21299744-.01171875 .33198548-.01171875 .3999939 .051254274 .3999939 .13618469 .3999939 .2241211 .34599305 .26409913 .24299622 .29606629 .20199585 .30906678 .13598633 .3300476 .13598633 .3860016 .13699341 .43795777 .17599488 .46694947 .22599793 .46694947 .29699708 .46694947 .33099366 .4119873 .33799745 .35102845H.36698915Z"/>
<path id="font_2_7" d="M.036987306 .47694398V.45195008L.07499695 .4469452C.100997928 .4429474 .10699463 .43795777 .10699463 .40194703V.08699036C.10699463 .035995485 .10398865 .033996583 .03199768 .0289917V0H.27598573V.0289917C.20498657 .033996583 .20098877 .035995485 .20098877 .08699036V.49609376L.19400025 .5020752 .036987306 .47694398M.15299988 .71484377C.116989139 .71484377 .09199524 .6888428 .09199524 .65283206 .09199524 .61782839 .116989139 .5928345 .15299988 .5928345 .18998719 .5928345 .21299744 .61782839 .21398926 .65283206 .21398926 .6888428 .18998719 .71484377 .15299988 .71484377Z"/>
<path id="font_2_8" d="M.5289917 .34295655C.5289917 .4439392 .47399903 .5019531 .38198854 .5019531 .30799867 .5019531 .2619934 .46594239 .19999695 .4259491L.18598938 .5019531 .036987306 .47694398V.45195008L.07499695 .4469452C.100997928 .4429474 .10699463 .4379425 .10699463 .40194703V.08699036C.10699463 .035995485 .10398865 .033996583 .03199768 .0289917V0H.27598573V.0289917C.20498657 .033996583 .20098877 .035995485 .20098877 .08699036V.32095338C.20098877 .34596253 .20298767 .35995484 .21099854 .37594605 .23199463 .4149475 .2769928 .44795228 .32998658 .44795228 .397995 .44795228 .43499757 .40994264 .43499757 .32295228V.08699036C.43499757 .035995485 .43199159 .033996583 .3600006 .0289917V0H.60398867V.0289917C.5329895 .033996583 .5289917 .035995485 .5289917 .08699036V.34295655Z"/>
<path id="font_1_1" d="M.43499757 .15118408C.39898683 .10421753 .34498597 .03727722 .269989 .03727722 .19999695 .03727722 .1789856 .097229007 .1789856 .17616272 .1789856 .1811676 .1789856 .1851654 .17999268 .19215393 .34799195 .22613526 .42099 .26609803 .46398927 .30607606 .49899293 .3410492 .5059967 .37402345 .5059967 .4019928 .5059967 .45495606 .46398927 .5019531 .38198854 .5019531 .2919922 .5019531 .21798706 .45596314 .16299439 .3880005 .10998535 .32305909 .07998657 .23612976 .07998657 .15219116 .07998657 .012268066 .17098999-.01171875 .22898865-.01171875 .3019867-.01171875 .3899994 .02027893 .45799256 .13119507L.43499757 .15118408M.18199158 .22613526C.19898987 .3470459 .27398683 .46694947 .35398866 .46694947 .3889923 .46694947 .4119873 .44296266 .4119873 .4079895 .4119873 .3380432 .35099793 .26210023 .18199158 .22613526Z"/>
<path id="font_3_1" d="M.6349945 .2529297V.31092835H.084991458V.2529297H.6349945Z"/>
<path id="font_2_2" d="M.1329956-.01171875C.17199707-.01171875 .19499207 .015274048 .19599915 .05126953 .19599915 .088272098 .17199707 .11627197 .1329956 .11627197 .09498596 .11627197 .069992069 .088272098 .069992069 .05126953 .069992069 .015274048 .09498596-.01171875 .1329956-.01171875Z"/>
<path id="font_2_6" d="M.42599488 .5919647 .44999696 .6599579 .44499208 .66796877H.11099243L.100997928 .65896609 .08099365 .32388307 .10499573 .31188966C.14698792 .35983277 .18798828 .3828125 .24198914 .3828125 .30599977 .3828125 .37599183 .3358612 .37599183 .20404053 .37599183 .10116577 .33399964 .023269654 .24699402 .023269654 .1769867 .023269654 .14099121 .07420349 .12098694 .13113404 .115997318 .14611817 .10699463 .15510559 .09298706 .15510559 .07299805 .15510559 .039993287 .13513184 .039993287 .10217285 .039993287 .056228639 .10998535-.01171875 .23999024-.01171875 .40499879-.01171875 .47999574 .0881958 .47999574 .21502686 .47999574 .35484315 .3919983 .4268036 .272995 .4268036 .21798706 .4268036 .15899658 .4028015 .1269989 .3738098L.125 .37580873 .147995 .56292727C.15098572 .58795168 .1579895 .5919647 .1769867 .5919647H.42599488Z"/>
</defs>
<path transform="matrix(1.00009,0,0,-1.00002,59.35029,36.132444)" d="M-57.40189-19.13394V34.44107H0V-19.13394ZM0 34.44107" fill="#d9d9ec"/>
<path transform="matrix(1.00009,0,0,-1.00002,59.35029,36.132444)" d="M0-19.13394V34.44107H25.51193V-19.13394ZM25.51193 34.44107" fill="#d9ecd9"/>
<path transform="matrix(1.00009,0,0,-1.00002,59.35029,36.132444)" d="M25.51193-19.13394V34.44107H70.15787V-19.13394ZM70.15787 34.44107" fill="#f0e4d9"/>
<path transform="matrix(1.00009,0,0,-1.00002,59.35029,36.132444)" stroke-width=".3985" stroke-linecap="butt" stroke-miterlimit="10" stroke-linejoin="miter" fill="none" stroke="#000000" d="M-57.40189 0H69.69958"/>
<path transform="matrix(1.00009,0,0,-1.00002,129.05614,36.132444)" stroke-width=".31879" stroke-linecap="round" stroke-linejoin="round" fill="none" stroke="#000000" d="M-1.19551 1.59401C-1.09587 .99626 0 .09961 .29886 0 0-.09961-1.09587-.99626-1.19551-1.59401"/>
<path transform="matrix(1.00009,0,0,-1.00002,59.35029,36.132444)" stroke-width=".3985" stroke-linecap="butt" stroke-miterlimit="10" stroke-linejoin="miter" fill="none" stroke="#000000" d="M0-19.13394V33.9828"/>
<path transform="matrix(0,-1.00002,-1.00009,-0,59.35029,2.148964)" stroke-width=".31879" stroke-linecap="round" stroke-linejoin="round" fill="none" stroke="#000000" d="M-1.19551 1.59401C-1.09587 .99626 0 .09961 .29886 0 0-.09961-1.09587-.99626-1.19551-1.59401"/>
<use data-text="t" xlink:href="#font_1_2" transform="matrix(9.166425,0,0,-9.165783,125.01119,45.180627)"/>
<path transform="matrix(1.00009,0,0,-1.00002,59.35029,36.132444)" stroke-width=".79701" stroke-linecap="butt" stroke-miterlimit="10" stroke-linejoin="miter" fill="none" stroke="#929292" d="M-51.0239 2.55115V-2.55115"/>
<use data-text="-" xlink:href="#font_2_1" transform="matrix(9.166425,0,0,-9.165783,4.0923159,45.668634)"/>
<use data-text="4" xlink:href="#font_2_5" transform="matrix(9.166425,0,0,-9.165783,7.6855547,45.668634)"/>
<path transform="matrix(1.00009,0,0,-1.00002,59.35029,36.132444)" stroke-width=".79701" stroke-linecap="butt" stroke-miterlimit="10" stroke-linejoin="miter" fill="none" stroke="#929292" d="M-25.51193 2.55115V-2.55115"/>
<use data-text="-" xlink:href="#font_2_1" transform="matrix(9.166425,0,0,-9.165783,29.606614,45.668634)"/>
<use data-text="2" xlink:href="#font_2_4" transform="matrix(9.166425,0,0,-9.165783,33.199853,45.668634)"/>
<path transform="matrix(1.00009,0,0,-1.00002,59.35029,36.132444)" stroke-width=".79701" stroke-linecap="butt" stroke-miterlimit="10" stroke-linejoin="miter" fill="none" stroke="#929292" d="M25.51193 2.55115V-2.55115"/>
<use data-text="2" xlink:href="#font_2_4" transform="matrix(9.166425,0,0,-9.165783,82.433368,45.668634)"/>
<path transform="matrix(1.00009,0,0,-1.00002,59.35029,36.132444)" stroke-width=".79701" stroke-linecap="butt" stroke-miterlimit="10" stroke-linejoin="miter" fill="none" stroke="#929292" d="M51.0239 2.55115V-2.55115"/>
<use data-text="4" xlink:href="#font_2_5" transform="matrix(9.166425,0,0,-9.165783,107.94766,45.668634)"/>
<path transform="matrix(1.00009,0,0,-1.00002,59.35029,36.132444)" stroke-width=".3985" stroke-linecap="butt" stroke-miterlimit="10" stroke-linejoin="miter" fill="none" stroke="#929292" d="M1.27565-12.75595H-1.27565"/>
<use data-text="-" xlink:href="#font_2_1" transform="matrix(7.33316,0,0,-7.332647,50.459489,51.343748)"/>
<use data-text="1" xlink:href="#font_2_3" transform="matrix(7.33316,0,0,-7.332647,53.334085,51.343748)"/>
<path transform="matrix(1.00009,0,0,-1.00002,59.35029,36.132444)" stroke-width=".3985" stroke-linecap="butt" stroke-miterlimit="10" stroke-linejoin="miter" fill="none" stroke="#929292" d="M1.27565 12.75595H-1.27565"/>
<use data-text="1" xlink:href="#font_2_3" transform="matrix(7.33316,0,0,-7.332647,53.336748,25.831238)"/>
<path transform="matrix(1.00009,0,0,-1.00002,59.35029,36.132444)" stroke-width=".3985" stroke-linecap="butt" stroke-miterlimit="10" stroke-linejoin="miter" fill="none" stroke="#929292" d="M1.27565 25.51193H-1.27565"/>
<use data-text="2" xlink:href="#font_2_4" transform="matrix(7.33316,0,0,-7.332647,53.336748,13.074982)"/>
<path transform="matrix(1.00009,0,0,-1.00002,59.35029,36.132444)" stroke-width="1.19553" stroke-linecap="butt" stroke-miterlimit="10" stroke-linejoin="miter" fill="none" stroke="#8080bf" d="M-57.40189 12.46906-56.83257 12.3365-56.26323 12.17924-55.69391 11.99841-55.12459 11.79288-54.55525 11.56476-53.98593 11.3127-53.41661 11.03883-52.84729 10.7424-52.27797 10.42513-51.70863 10.08665-51.13931 9.72832-50.56999 9.35051-50.00067 8.95404-49.43134 8.54004-48.86203 8.10852-48.2927 7.66162-47.72336 7.19856-47.15405 6.72171-46.58472 6.2314-46.0154 5.72845-45.44606 5.2144-44.87675 4.68965-44.30742 4.15596-43.7381 3.6135-43.16878 3.06401-42.59944 2.50871-42.03014 1.94814-41.4608 1.38368-40.89148 .81668-40.32216 .24796-39.75284-.32094-39.1835-.8897-38.61418-1.45648-38.04486-2.02036-37.47552-2.58034-36.9062-3.13487-36.33688-3.68375-35.76756-4.22485-35.19823-4.75777-34.6289-5.28078-34.05959-5.79385-33.49025-6.29506-32.92094-6.7838-32.35161-7.25891-31.7823-7.71982-31.21297-8.16498-30.64365-8.59416-30.07433-9.00621-29.50499-9.39996-28.93567-9.77562-28.36633-10.13142-27.79703-10.46698-27.22769-10.78192-26.65837-11.07524-26.08905-11.34657-25.51971-11.59512-24.9504-11.8209-24.38107-12.02293-23.81175-12.20123-23.24243-12.35481-22.67311-12.48404-22.10378-12.58836-21.53445-12.66759-20.96513-12.72151-20.3958-12.75032-19.82649-12.75401-19.25716-12.73143-18.68784-12.68433-18.1185-12.61115-17.54918-12.51364-16.97986-12.39081-16.41052-12.24327-15.84122-12.07161-15.27188-11.8756-14.70256-11.65643-14.13324-11.41331-13.56392-11.14822-12.9946-10.86017-12.42526-10.55106-11.85594-10.22076-11.28662-9.87003-10.7173-9.49962-10.14796-9.11034-9.57864-8.70334-9.00932-8.27824-8.43999-7.83739-7.87067-7.38037-7.30135-6.90875-6.73203-6.42351-6.16269-5.92543-5.59338-5.41566-5.02405-4.8948-4.45471-4.36461-3.8854-3.82545-3.31607-3.27872-2.74677-2.72514-2.17743-2.16653-1.60811-1.60364-1.03877-1.03741"/>
<path transform="matrix(1.00009,0,0,-1.00002,59.35029,36.132444)" stroke-width="1.19553" stroke-linecap="butt" stroke-miterlimit="10" stroke-linejoin="miter" fill="none" stroke="#409f40" d="M0 25.51193 .24466 25.03313 .48932 24.55586 .73398 24.09145 .97864 23.6321 1.2233 23.18288 1.46796 22.74414 1.71262 22.31049 1.95729 21.88655 2.20195 21.47081 2.44661 21.06517 2.69127 20.66422 2.93594 20.27144 3.18062 19.88603 3.42528 19.50844 3.66994 19.13861 3.9146 18.77348 4.15926 18.4161 4.40392 18.06654 4.64859 17.72475 4.89325 17.38802 5.13791 17.05597 5.38257 16.73209 5.62724 16.41559 5.8719 16.10417 6.11656 15.79819 6.36124 15.49689 6.6059 15.20337 6.85056 14.91531 7.09521 14.63191 7.33989 14.35358 7.58455 14.08069 7.82921 13.81287 8.07387 13.5501 8.31854 13.29199 8.5632 13.03975 8.80786 12.79218 9.05252 12.54964 9.2972 12.31218 9.54185 12.07745 9.78651 11.84776 10.03119 11.62315 10.27585 11.40126 10.52051 11.18442 10.76517 10.97266 11.00984 10.76321 11.2545 10.55923 11.49916 10.36032 11.74382 10.16101 11.98848 9.96988 12.23314 9.78107 12.47783 9.5946 12.72249 9.41087 12.96715 9.23218 13.2118 9.05856 13.45647 8.88533 13.70114 8.71678 13.9458 8.55093 14.19046 8.38744 14.43512 8.22939 14.67978 8.07367 14.92445 7.9207 15.16911 7.77005 15.41377 7.62212 15.65845 7.47652 15.9031 7.33365 16.14777 7.19585 16.39244 7.05804 16.6371 6.92297 16.88176 6.79256 17.12642 6.66254 17.3711 6.53757 17.61575 6.41261 17.86041 6.29 18.10507 6.17244 18.34973 6.05525 18.5944 5.93768 18.83907 5.82558 19.08374 5.7158 19.3284 5.60603 19.57306 5.50131 19.81772 5.39699 20.0624 5.29227 20.30705 5.19261 20.55171 5.09334 20.79637 4.99603 21.04103 4.90181 21.28569 4.80994 21.53035 4.71808 21.77504 4.62894 22.0197 4.5394 22.26436 4.45258 22.50903 4.3685 22.7537 4.28676 22.99835 4.205 23.24301 4.12598 23.48767 4.04695 23.73233 3.97026 23.97699 3.89397 24.22165 3.82"/>
<path transform="matrix(1.00009,0,0,-1.00002,59.35029,36.132444)" stroke-width="1.19553" stroke-linecap="butt" stroke-miterlimit="10" stroke-linejoin="miter" fill="none" stroke="#b37940" d="M25.51193 19.13394H25.96272 26.41353 26.8643 27.3151 27.76587 28.21667 28.66745 29.11824 29.56903 30.0198 30.47061 30.92139 31.37218 31.82297 32.27376 32.72455 33.17532 33.62611 34.07692 34.5277 34.97849 35.42928 35.88007 36.33086 36.78163 37.23242 37.6832 38.134 38.5848 39.03557 39.48637 39.93715 40.38794 40.83873 41.28952 41.74031 42.19109 42.64189 43.09268 43.54346 43.99425 44.44504 44.89583 45.34662 45.7974 46.24818 46.69897 47.14977 47.60056 48.05133 48.50214 48.95291 49.4037 49.85449 50.30528 50.75607 51.20685 51.65765 52.10844 52.55922 53.01001 53.46078 53.91158 54.36238 54.81316 55.26395 55.71474 56.16553 56.6163 57.0671 57.5179 57.96867 58.41946 58.87024 59.32104 59.77184 60.22261 60.6734 61.12418 61.57498 62.02577 62.47655 62.92734 63.37813 63.82892 64.27971 64.7305 65.18129 65.63206 66.08286 66.53366 66.98444 67.43523 67.88602 68.3368 68.7876 69.23837 69.68916 70.13994"/>
<path transform="matrix(1.00009,0,0,-1.00002,59.35029,36.132444)" stroke-width=".79701" stroke-linecap="butt" stroke-miterlimit="10" stroke-linejoin="miter" fill="none" stroke="#8080bf" d="M1.34496 0C1.34496 .7428 .7428 1.34496 0 1.34496-.7428 1.34496-1.34496 .7428-1.34496 0-1.34496-.7428-.7428-1.34496 0-1.34496 .7428-1.34496 1.34496-.7428 1.34496 0ZM0 0"/>
<path transform="matrix(1.00009,0,0,-1.00002,59.35029,36.132444)" d="M1.79327 25.51193C1.79327 26.50235 .9904 27.30522 0 27.30522-.9904 27.30522-1.79327 26.50235-1.79327 25.51193-1.79327 24.52153-.9904 23.71866 0 23.71866 .9904 23.71866 1.79327 24.52153 1.79327 25.51193ZM0 25.51193" fill="#409f40"/>
<path transform="matrix(1.00009,0,0,-1.00002,59.35029,36.132444)" stroke-width=".79701" stroke-linecap="butt" stroke-miterlimit="10" stroke-linejoin="miter" fill="none" stroke="#409f40" d="M26.8569 3.45251C26.8569 4.19531 26.25473 4.79749 25.51193 4.79749 24.76913 4.79749 24.16698 4.19531 24.16698 3.45251 24.16698 2.70972 24.76913 2.10754 25.51193 2.10754 26.25473 2.10754 26.8569 2.70972 26.8569 3.45251ZM25.51193 3.45251"/>
<path transform="matrix(1.00009,0,0,-1.00002,59.35029,36.132444)" d="M27.30522 19.13394C27.30522 20.12436 26.50235 20.92723 25.51193 20.92723 24.52153 20.92723 23.71866 20.12436 23.71866 19.13394 23.71866 18.14354 24.52153 17.34067 25.51193 17.34067 26.50235 17.34067 27.30522 18.14354 27.30522 19.13394ZM25.51193 19.13394" fill="#b37940"/>
<use data-text="s" xlink:href="#font_2_9" transform="matrix(9.166425,0,0,-9.165783,21.839913,26.57925)" fill="#000080"/>
<use data-text="i" xlink:href="#font_2_7" transform="matrix(9.166425,0,0,-9.165783,25.836472,26.57925)" fill="#000080"/>
<use data-text="n" xlink:href="#font_2_8" transform="matrix(9.166425,0,0,-9.165783,28.503907,26.57925)" fill="#000080"/>
<use data-text="t" xlink:href="#font_1_2" transform="matrix(9.166425,0,0,-9.165783,35.34813,26.57925)" fill="#000080"/>
<use data-text="2" xlink:href="#font_2_4" transform="matrix(9.166425,0,0,-9.165783,62.873605,10.707933)" fill="#008000"/>
<use data-text="e" xlink:href="#font_1_1" transform="matrix(9.166425,0,0,-9.165783,67.73604,10.707933)" fill="#008000"/>
<use data-text="&#x2212;" xlink:href="#font_3_1" transform="matrix(6.966527,0,0,-6.9660398,72.55847,7.0918619)" fill="#008000"/>
<use data-text="t" xlink:href="#font_1_2" transform="matrix(6.966527,0,0,-6.9660398,77.722949,7.0918619)" fill="#008000"/>
<use data-text="1" xlink:href="#font_2_3" transform="matrix(9.166425,0,0,-9.165783,101.112049,13.648993)" fill="#994d00"/>
<use data-text="." xlink:href="#font_2_2" transform="matrix(9.166425,0,0,-9.165783,105.97025,13.648993)" fill="#994d00"/>
<use data-text="5" xlink:href="#font_2_6" transform="matrix(9.166425,0,0,-9.165783,108.399349,13.648993)" fill="#994d00"/>
</svg>
