<svg xmlns="http://www.w3.org/2000/svg" xmlns:xlink="http://www.w3.org/1999/xlink" version="1.1" width="111" height="122" viewBox="0 0 111 122">
<defs>
<path id="font_1_5" d="M.4850006 .13195801 .45700074 .13696289C.43598939 .08299255 .41600038 .07598877 .37599183 .07598877H.11999512C.13598633 .1279602 .19499207 .19892884 .28799439 .2658844 .38398744 .33584596 .45799256 .38082887 .45799256 .49276734 .45799256 .63168337 .3659973 .6796875 .26098634 .6796875 .12399292 .6796875 .052993776 .5967102 .052993776 .54473879 .052993776 .51075747 .09098816 .49476625 .10798645 .49476625 .12599182 .49476625 .1329956 .50476077 .13699341 .5217438 .15299988 .5897064 .19198609 .64468386 .2539978 .64468386 .33099366 .64468386 .35299684 .5797119 .35299684 .50675967 .35299684 .3998108 .29899598 .33984376 .21199036 .26289369 .08898926 .15594483 .04598999 .08798218 .026992798 .009994507L.036987306 0H.45098878L.4850006 .13195801Z"/>
<path id="font_1_7" d="M.2999878 .17871094V.0769043C.2999878 .04296875 .2889862 .036987306 .2649994 .034988405L.20098877 .0289917V0H.46499635V.0289917L.41999818 .033981325C.39698792 .036987306 .3899994 .04296875 .3899994 .0769043V.17871094H.49299623V.22570801H.3899994V.66796877H.31698609C.22299195 .5298767 .11099243 .35577394 .018997193 .19970703L.027999878 .17871094H.2999878M.09098816 .22570801C.15098572 .33476258 .22099304 .4498291 .2979889 .5709076H.2999878V.22570801H.09098816Z"/>
<path id="font_2_1" d="M.42799378 .45222474 .43899537 .49023438H.31199647L.34599305 .6092224 .33399964 .6162262 .23699951 .53923037 .22399903 .49023438H.14299011L.13198853 .45222474H.21499634L.125 .08627319C.10998535 .029266358 .12199402-.01171875 .17199707-.01171875 .2519989-.01171875 .31599427 .054275514 .35598756 .1292572L.33399964 .1462555C.31098939 .10726929 .2599945 .040267946 .22898865 .040267946 .20799256 .040267946 .20799256 .0632782 .21398926 .088272098L.30299378 .45222474H.42799378Z"/>
<path id="font_2_2" d="M.070999149 .45393373 .07398987 .42893983 .14199829 .43093873C.1639862 .43193055 .16899109 .41493226 .1769867 .36291505 .18798828 .28489686 .20999146 .09286499 .20999146 .0128479 .20999146-.017166138 .20799256-.058166505 .18598938-.11117554 .16799927-.15318299 .14199829-.18218994 .12199402-.18218994 .10699463-.18218994 .09599304-.17118836 .08099365-.15118408 .068984989-.13517761 .06098938-.127182 .04598999-.127182 .019989014-.12818909-.005004883-.15818787-.005004883-.18719483-.005004883-.21418762 .023986817-.2421875 .067993167-.2421875 .15299988-.2421875 .18998719-.17919922 .27799989-.027160645 .2979889 .0068511965 .35798646 .11286926 .41999818 .21488953 .47698976 .30891419 .5399933 .40592958 .5399933 .4459381 .5399933 .48094178 .5289917 .5019531 .5219879 .5019531 .5029907 .5019531 .46899415 .49394227 .44400025 .47694398 .44499208 .4419403 .44299317 .3809204 .43099977 .33891297 .4149933 .28289796 .35598756 .17488098 .2899933 .06085205H.2869873C.27999879 .21388245 .26098634 .42492677 .24699402 .49795533L.23899842 .5019531 .070999149 .45393373Z"/>
<path id="font_1_6" d="M.12998963 .3657837C.12998963 .3487854 .1349945 .33779908 .147995 .33779908 .1599884 .33779908 .18699646 .34777833 .23498535 .34777833 .31999208 .34777833 .36799623 .27090455 .36799623 .18403626 .36799623 .065216068 .30899049 .023269654 .23799134 .023269654 .17199707 .023269654 .1289978 .07319641 .10998535 .12911988 .10398865 .14808655 .09399414 .15707398 .07998657 .15707398 .06199646 .15707398 .026992798 .13809204 .026992798 .10215759 .026992798 .05921936 .09599304-.01171875 .23699951-.01171875 .38198854-.01171875 .47299195 .06121826 .47299195 .18902588 .47299195 .32281495 .35798646 .3627777 .30299378 .3677826V.3717804C.35699464 .38078309 .44400025 .4207611 .44400025 .5197296 .44400025 .6306915 .35699464 .6796875 .25 .6796875 .117996219 .6796875 .052993776 .60369876 .052993776 .5607147 .052993776 .5297241 .08799744 .51272585 .101989749 .51272585 .114990238 .51272585 .12298584 .5197296 .1269989 .5327301 .14898682 .60069277 .18699646 .64468386 .24299622 .64468386 .32199098 .64468386 .34098817 .57470706 .34098817 .51872256 .34098817 .4587555 .31999208 .38378907 .23498535 .38378907 .18699646 .38378907 .1599884 .39378358 .147995 .39378358 .1349945 .39378358 .12998963 .38378907 .12998963 .3657837Z"/>
<path id="font_1_1" d="M.1749878 .2822113C.1749878 .56832888 .2619934 .65437319 .32499696 .66737368V.6923828C.1499939 .685379 .10499573 .46829225 .10499573 .2822113 .10499573 .09614563 .1499939-.12094116 .32499696-.12792969V-.10293579C.2669983-.090927127 .1749878-.0059051516 .1749878 .2822113Z"/>
<path id="font_1_4" d="M.43699647 0V.0289917L.35299684 .035995485C.33198548 .037994386 .31999208 .04598999 .31999208 .08496094V.67367556L.31498719 .6796875 .10899353 .6446991V.6197052L.20199585 .6087036C.21899414 .6067047 .22599793 .5987091 .22599793 .56973269V.08496094C.22599793 .065979007 .22299195 .053985597 .21699524 .04698181 .21199036 .039993287 .20399475 .036987306 .19299317 .035995485L.10899353 .0289917V0H.43699647Z"/>
<path id="font_1_3" d="M.069992069-.140625C.11999512-.09362793 .19299317-.027633667 .19299317 .051361085 .19299317 .10636902 .1599884 .1423645 .125 .14137268 .09399414 .14137268 .07598877 .117370609 .07598877 .09136963 .07598877 .055374147 .10899353 .037368776 .10899353-.005630493 .10899353-.04663086 .08299255-.086639408 .050994874-.12162781L.069992069-.140625Z"/>
<path id="font_1_2" d="M.1749878 .2822113C.1749878-.0059051516 .08299255-.090927127 .024993897-.10293579V-.12792969C.19999695-.12094116 .24499512 .09614563 .24499512 .2822113 .24499512 .46829225 .19999695 .685379 .024993897 .6923828V.66737368C.08799744 .65437319 .1749878 .56832888 .1749878 .2822113Z"/>
</defs>
<path transform="matrix(1.00002,0,0,-1.00002,11.769234,103.16283)" stroke-width=".3985" stroke-linecap="butt" stroke-miterlimit="10" stroke-linejoin="miter" fill="none" stroke="#cbcbcb" d="M17.00824-13.60663V98.64792"/>
<path transform="matrix(1.00002,0,0,-1.00002,11.769234,103.16283)" stroke-width=".3985" stroke-linecap="butt" stroke-miterlimit="10" stroke-linejoin="miter" fill="none" stroke="#cbcbcb" d="M34.0165-13.60663V98.64792"/>
<path transform="matrix(1.00002,0,0,-1.00002,11.769234,103.16283)" stroke-width=".3985" stroke-linecap="butt" stroke-miterlimit="10" stroke-linejoin="miter" fill="none" stroke="#cbcbcb" d="M51.02477-13.60663V98.64792"/>
<path transform="matrix(1.00002,0,0,-1.00002,11.769234,103.16283)" stroke-width=".3985" stroke-linecap="butt" stroke-miterlimit="10" stroke-linejoin="miter" fill="none" stroke="#cbcbcb" d="M68.03302-13.60663V98.64792"/>
<path transform="matrix(1.00002,0,0,-1.00002,11.769234,103.16283)" stroke-width=".3985" stroke-linecap="butt" stroke-miterlimit="10" stroke-linejoin="miter" fill="none" stroke="#000000" d="M34.0165-1.19069V1.19069"/>
<use data-text="2" xlink:href="#font_1_5" transform="matrix(10.036601,0,0,-10.036601,43.124864,113.28203)"/>
<path transform="matrix(1.00002,0,0,-1.00002,11.769234,103.16283)" stroke-width=".3985" stroke-linecap="butt" stroke-miterlimit="10" stroke-linejoin="miter" fill="none" stroke="#000000" d="M68.03302-1.19069V1.19069"/>
<use data-text="4" xlink:href="#font_1_7" transform="matrix(10.036601,0,0,-10.036601,77.14155,113.28203)"/>
<path transform="matrix(1.00002,0,0,-1.00002,11.769234,103.16283)" stroke-width=".3985" stroke-linecap="butt" stroke-miterlimit="10" stroke-linejoin="miter" fill="none" stroke="#000000" d="M-10.20503 0H94.78806"/>
<path transform="matrix(1.00002,0,0,-1.00002,106.5592,103.16283)" stroke-width=".31879" stroke-linecap="round" stroke-linejoin="round" fill="none" stroke="#000000" d="M-1.19551 1.59401C-1.09587 .99626 0 .09961 .29886 0 0-.09961-1.09587-.99626-1.19551-1.59401"/>
<use data-text="t" xlink:href="#font_2_1" transform="matrix(10.036601,0,0,-10.036601,104.879108,112.74702)"/>
<path transform="matrix(1.00002,0,0,-1.00002,11.769234,103.16283)" stroke-width=".3985" stroke-linecap="butt" stroke-miterlimit="10" stroke-linejoin="miter" fill="none" stroke="#cbcbcb" d="M-10.20503-17.00824H95.24634"/>
<path transform="matrix(1.00002,0,0,-1.00002,11.769234,103.16283)" stroke-width=".3985" stroke-linecap="butt" stroke-miterlimit="10" stroke-linejoin="miter" fill="none" stroke="#cbcbcb" d="M-10.20503 17.00824H95.24634"/>
<path transform="matrix(1.00002,0,0,-1.00002,11.769234,103.16283)" stroke-width=".3985" stroke-linecap="butt" stroke-miterlimit="10" stroke-linejoin="miter" fill="none" stroke="#cbcbcb" d="M-10.20503 34.0165H95.24634"/>
<path transform="matrix(1.00002,0,0,-1.00002,11.769234,103.16283)" stroke-width=".3985" stroke-linecap="butt" stroke-miterlimit="10" stroke-linejoin="miter" fill="none" stroke="#cbcbcb" d="M-10.20503 51.02477H95.24634"/>
<path transform="matrix(1.00002,0,0,-1.00002,11.769234,103.16283)" stroke-width=".3985" stroke-linecap="butt" stroke-miterlimit="10" stroke-linejoin="miter" fill="none" stroke="#cbcbcb" d="M-10.20503 68.03302H95.24634"/>
<path transform="matrix(1.00002,0,0,-1.00002,11.769234,103.16283)" stroke-width=".3985" stroke-linecap="butt" stroke-miterlimit="10" stroke-linejoin="miter" fill="none" stroke="#cbcbcb" d="M-10.20503 85.04128H95.24634"/>
<path transform="matrix(1.00002,0,0,-1.00002,11.769234,103.16283)" stroke-width=".3985" stroke-linecap="butt" stroke-miterlimit="10" stroke-linejoin="miter" fill="none" stroke="#000000" d="M-1.19069 34.0165H1.19069"/>
<use data-text="2" xlink:href="#font_1_5" transform="matrix(7.332647,0,0,-7.332647,4.4810869,71.6002)"/>
<path transform="matrix(1.00002,0,0,-1.00002,11.769234,103.16283)" stroke-width=".3985" stroke-linecap="butt" stroke-miterlimit="10" stroke-linejoin="miter" fill="none" stroke="#000000" d="M-1.19069 68.03302H1.19069"/>
<use data-text="4" xlink:href="#font_1_7" transform="matrix(7.332647,0,0,-7.332647,4.4810869,37.58351)"/>
<path transform="matrix(1.00002,0,0,-1.00002,11.769234,103.16283)" stroke-width=".3985" stroke-linecap="butt" stroke-miterlimit="10" stroke-linejoin="miter" fill="none" stroke="#000000" d="M0-13.60663V98.18965"/>
<path transform="matrix(0,-1.00002,-1.00002,-0,11.769234,4.9712069)" stroke-width=".31879" stroke-linecap="round" stroke-linejoin="round" fill="none" stroke="#000000" d="M-1.19551 1.59401C-1.09587 .99626 0 .09961 .29886 0 0-.09961-1.09587-.99626-1.19551-1.59401"/>
<use data-text="y" xlink:href="#font_2_2" transform="matrix(10.036601,0,0,-10.036601,15.7133259,5.7618715)"/>
<path transform="matrix(1.00002,0,0,-1.00002,11.769234,103.16283)" stroke-width="1.59404" stroke-linecap="butt" stroke-miterlimit="10" stroke-linejoin="miter" fill="none" stroke="#000000" d="M-9.20204-.4709-5.81126 1.78967-1.4175 4.71867 2.97623 7.64767 7.37 10.57668 11.76373 13.50595 16.1575 16.43494 20.55127 19.36421 24.94504 22.29321 29.3388 25.22247 33.73257 28.15149 38.12634 31.08073 42.52011 34.00975 46.91388 36.93903 51.30765 39.86801 55.70142 42.79729 60.09517 45.72629 64.48894 48.65555 68.8827 51.58455 73.27647 54.51381 77.67023 57.44283 82.064 60.37209 86.45776 63.30109 90.85153 66.23036 94.2423 68.49072"/>
<path transform="matrix(-.8320367,.55468109,.55468109,.8320367,2.56701,103.63373)" stroke-width="1.27522" stroke-linecap="round" stroke-linejoin="round" fill="none" stroke="#000000" d="M-2.27148 3.02866C-2.0822 1.8929 0 .18927 .56786 0 0-.18927-2.0822-1.8929-2.27148-3.02866"/>
<path transform="matrix(.8320367,-.5546711,-.5546711,-.8320367,106.01342,34.670755)" stroke-width="1.27522" stroke-linecap="round" stroke-linejoin="round" fill="none" stroke="#000000" d="M-2.27148 3.02866C-2.0822 1.8929 0 .18927 .56786 0 0-.18927-2.0822-1.8929-2.27148-3.02866"/>
<path transform="matrix(1.00002,0,0,-1.00002,11.769234,103.16283)" stroke-width="1.19553" stroke-linecap="butt" stroke-miterlimit="10" stroke-linejoin="miter" fill="none" stroke="#0033cc" d="M17.00824 17.00824V50.06834"/>
<path transform="matrix(0,-1.00002,-1.00002,-0,28.777815,53.093484)" stroke-width=".9564" stroke-linecap="round" stroke-linejoin="round" fill="none" stroke="#0033cc" d="M-1.91284 2.55046C-1.75343 1.59402 0 .15938 .4782 0 0-.15938-1.75343-1.59402-1.91284-2.55046"/>
<path transform="matrix(1.00002,0,0,-1.00002,11.769234,103.16283)" d="M13.35011 29.66019H20.666359V38.37281H13.35011Z" fill="#ffffff"/>
<use data-text="2" xlink:href="#font_1_5" transform="matrix(10.036601,0,0,-10.036601,26.115525,72.50621)" fill="#0033cc"/>
<path transform="matrix(1.00002,0,0,-1.00002,11.769234,103.16283)" stroke-width="1.19553" stroke-linecap="butt" stroke-miterlimit="10" stroke-linejoin="miter" fill="none" stroke="#009966" d="M17.00824 51.02477H65.37566"/>
<path transform="matrix(1.00002,0,0,-1.00002,77.14621,52.137037)" stroke-width=".9564" stroke-linecap="round" stroke-linejoin="round" fill="none" stroke="#009966" d="M-1.91284 2.55046C-1.75343 1.59402 0 .15938 .4782 0 0-.15938-1.75343-1.59402-1.91284-2.55046"/>
<path transform="matrix(1.00002,0,0,-1.00002,11.769234,103.16283)" d="M39.23926 47.93135H44.101064V54.11818H39.23926Z" fill="#ffffff"/>
<use data-text="3" xlink:href="#font_1_6" transform="matrix(9.165783,0,0,-9.165783,51.009019,55.180868)" fill="#009966"/>
<path transform="matrix(1.00002,0,0,-1.00002,11.769234,103.16283)" d="M18.80156 17.00824C18.80156 17.99866 17.99866 18.80156 17.00824 18.80156 16.01782 18.80156 15.21492 17.99866 15.21492 17.00824 15.21492 16.01782 16.01782 15.21492 17.00824 15.21492 17.99866 15.21492 18.80156 16.01782 18.80156 17.00824ZM17.00824 17.00824" fill="#ffffff"/>
<path transform="matrix(1.00002,0,0,-1.00002,11.769234,103.16283)" stroke-width="1.19553" stroke-linecap="butt" stroke-miterlimit="10" stroke-linejoin="miter" fill="none" stroke="#000000" d="M18.80156 17.00824C18.80156 17.99866 17.99866 18.80156 17.00824 18.80156 16.01782 18.80156 15.21492 17.99866 15.21492 17.00824 15.21492 16.01782 16.01782 15.21492 17.00824 15.21492 17.99866 15.21492 18.80156 16.01782 18.80156 17.00824ZM17.00824 17.00824"/>
<path transform="matrix(1.00002,0,0,-1.00002,11.769234,103.16283)" stroke-width=".3985" stroke-linecap="butt" stroke-miterlimit="10" stroke-linejoin="miter" fill="none" stroke="#000000" d="M30.6149 17.00824"/>
<path transform="matrix(1.00002,0,0,-1.00002,11.769234,103.16283)" d="M19.84628 7.03554H41.3835V16.80898H19.84628Z" fill="#ffffff"/>
<use data-text="(" xlink:href="#font_1_1" transform="matrix(9.165783,0,0,-9.165783,32.612657,93.83564)"/>
<use data-text="1" xlink:href="#font_1_4" transform="matrix(9.165783,0,0,-9.165783,35.820688,93.83564)"/>
<use data-text="," xlink:href="#font_1_3" transform="matrix(9.165783,0,0,-9.165783,40.67855,93.83564)"/>
<use data-text="1" xlink:href="#font_1_4" transform="matrix(9.165783,0,0,-9.165783,44.07905,93.83564)"/>
<use data-text=")" xlink:href="#font_1_2" transform="matrix(9.165783,0,0,-9.165783,48.94609,93.83564)"/>
<path transform="matrix(1.00002,0,0,-1.00002,11.769234,103.16283)" stroke-width=".3985" stroke-linecap="butt" stroke-miterlimit="10" stroke-linejoin="miter" fill="none" stroke="#000000" d="M81.63968 51.02477"/>
<path transform="matrix(1.00002,0,0,-1.00002,11.769234,103.16283)" d="M70.87106 41.05206H92.40828V50.8255H70.87106Z" fill="#ffffff"/>
<use data-text="(" xlink:href="#font_1_1" transform="matrix(9.165783,0,0,-9.165783,83.63767,59.81896)"/>
<use data-text="2" xlink:href="#font_1_5" transform="matrix(9.165783,0,0,-9.165783,86.8457,59.81896)"/>
<use data-text="," xlink:href="#font_1_3" transform="matrix(9.165783,0,0,-9.165783,91.70357,59.81896)"/>
<use data-text="2" xlink:href="#font_1_5" transform="matrix(9.165783,0,0,-9.165783,95.104068,59.81896)"/>
<use data-text=")" xlink:href="#font_1_2" transform="matrix(9.165783,0,0,-9.165783,99.97111,59.81896)"/>
<path transform="matrix(1.00002,0,0,-1.00002,11.769234,103.16283)" d="M69.82634 51.02477C69.82634 52.01518 69.02345 52.81808 68.03302 52.81808 67.0426 52.81808 66.23972 52.01518 66.23972 51.02477 66.23972 50.03433 67.0426 49.23145 68.03302 49.23145 69.02345 49.23145 69.82634 50.03433 69.82634 51.02477ZM68.03302 51.02477" fill="#ffffff"/>
<path transform="matrix(1.00002,0,0,-1.00002,11.769234,103.16283)" stroke-width="1.19553" stroke-linecap="butt" stroke-miterlimit="10" stroke-linejoin="miter" fill="none" stroke="#000000" d="M69.82634 51.02477C69.82634 52.01518 69.02345 52.81808 68.03302 52.81808 67.0426 52.81808 66.23972 52.01518 66.23972 51.02477 66.23972 50.03433 67.0426 49.23145 68.03302 49.23145 69.02345 49.23145 69.82634 50.03433 69.82634 51.02477ZM68.03302 51.02477"/>
</svg>
