<svg xmlns="http://www.w3.org/2000/svg" xmlns:xlink="http://www.w3.org/1999/xlink" version="1.1" width="221" height="66" viewBox="0 0 221 66">
<defs>
<path id="font_1_1" d="M.42799378 .15419007C.3939972 .10821533 .33499146 .03727722 .2679901 .03727722 .19499207 .03727722 .17999268 .097229007 .17999268 .16816712 .17999268 .29808045 .25498963 .46694947 .34700013 .46694947 .3789978 .46694947 .40098573 .44696046 .40699769 .38700868 .40899659 .36901856 .41799928 .35702516 .43598939 .35702516 .45999146 .35702516 .5 .38002015 .5 .41299439 .5 .46394349 .44599916 .5019531 .37098695 .5019531 .19299317 .5019531 .08099365 .31207276 .08099365 .14819336 .08099365 .026275635 .1539917-.01171875 .22399903-.01171875 .2979889-.01171875 .3829956 .02027893 .45199586 .13519287L.42799378 .15419007Z"/>
<path id="font_1_2" d="M.42799378 .45222474 .43899537 .49023438H.31199647L.34599305 .6092224 .33399964 .6162262 .23699951 .53923037 .22399903 .49023438H.14299011L.13198853 .45222474H.21499634L.125 .08627319C.10998535 .029266358 .12199402-.01171875 .17199707-.01171875 .2519989-.01171875 .31599427 .054275514 .35598756 .1292572L.33399964 .1462555C.31098939 .10726929 .2599945 .040267946 .22898865 .040267946 .20799256 .040267946 .20799256 .0632782 .21398926 .088272098L.30299378 .45222474H.42799378Z"/>
<path id="font_2_1" d="M.6349945 .2529297V.31092835H.084991458V.2529297H.6349945Z"/>
<path id="font_3_1" d="M.5239868 .14224243C.49798585 .09126282 .45799256 .039260866 .43598939 .039260866 .42399598 .039260866 .42099 .05126953 .42099 .06925964 .42099 .08026123 .42199708 .09326172 .42399598 .10624695L.49198915 .42520143H.57899478L.61898806 .5019531C.58999636 .49520875 .548996 .49121095 .5019989 .49121095H.21798706C.16699219 .49121095 .09700012 .46620179 .05899048 .4052124L.07499695 .38720704C.114990238 .41819764 .16699219 .42520143 .21998596 .42520143 .1769867 .24923706 .147995 .09225464 .09199524 .08226013 .066986087 .07826233 .034988405 .06225586 .034988405 .024261475 .034988405 .0012664795 .06599426-.01171875 .08099365-.01171875 .13398743-.01171875 .17098999 .054260255 .18899536 .09925842 .21199036 .15724182 .24699402 .28222657 .2769928 .42520143H.4019928L.33699037 .12324524C.33399964 .102249149 .33198548 .08325195 .33198548 .06726074 .33198548 .01626587 .34799195-.01171875 .38398744-.01171875 .45700074-.01171875 .5130005 .044265748 .5479889 .12825012L.5239868 .14224243Z"/>
<path id="font_4_5" d="M.4850006 .13195801 .45700074 .13696289C.43598939 .08299255 .41600038 .07598877 .37599183 .07598877H.11999512C.13598633 .1279602 .19499207 .19892884 .28799439 .2658844 .38398744 .33584596 .45799256 .38082887 .45799256 .49276734 .45799256 .63168337 .3659973 .6796875 .26098634 .6796875 .12399292 .6796875 .052993776 .5967102 .052993776 .54473879 .052993776 .51075747 .09098816 .49476625 .10798645 .49476625 .12599182 .49476625 .1329956 .50476077 .13699341 .5217438 .15299988 .5897064 .19198609 .64468386 .2539978 .64468386 .33099366 .64468386 .35299684 .5797119 .35299684 .50675967 .35299684 .3998108 .29899598 .33984376 .21199036 .26289369 .08898926 .15594483 .04598999 .08798218 .026992798 .009994507L.036987306 0H.45098878L.4850006 .13195801Z"/>
<path id="font_4_6" d="M.12998963 .3657837C.12998963 .3487854 .1349945 .33779908 .147995 .33779908 .1599884 .33779908 .18699646 .34777833 .23498535 .34777833 .31999208 .34777833 .36799623 .27090455 .36799623 .18403626 .36799623 .065216068 .30899049 .023269654 .23799134 .023269654 .17199707 .023269654 .1289978 .07319641 .10998535 .12911988 .10398865 .14808655 .09399414 .15707398 .07998657 .15707398 .06199646 .15707398 .026992798 .13809204 .026992798 .10215759 .026992798 .05921936 .09599304-.01171875 .23699951-.01171875 .38198854-.01171875 .47299195 .06121826 .47299195 .18902588 .47299195 .32281495 .35798646 .3627777 .30299378 .3677826V.3717804C.35699464 .38078309 .44400025 .4207611 .44400025 .5197296 .44400025 .6306915 .35699464 .6796875 .25 .6796875 .117996219 .6796875 .052993776 .60369876 .052993776 .5607147 .052993776 .5297241 .08799744 .51272585 .101989749 .51272585 .114990238 .51272585 .12298584 .5197296 .1269989 .5327301 .14898682 .60069277 .18699646 .64468386 .24299622 .64468386 .32199098 .64468386 .34098817 .57470706 .34098817 .51872256 .34098817 .4587555 .31999208 .38378907 .23498535 .38378907 .18699646 .38378907 .1599884 .39378358 .147995 .39378358 .1349945 .39378358 .12998963 .38378907 .12998963 .3657837Z"/>
<path id="font_4_4" d="M.43699647 0V.0289917L.35299684 .035995485C.33198548 .037994386 .31999208 .04598999 .31999208 .08496094V.67367556L.31498719 .6796875 .10899353 .6446991V.6197052L.20199585 .6087036C.21899414 .6067047 .22599793 .5987091 .22599793 .56973269V.08496094C.22599793 .065979007 .22299195 .053985597 .21699524 .04698181 .21199036 .039993287 .20399475 .036987306 .19299317 .035995485L.10899353 .0289917V0H.43699647Z"/>
<path id="font_1_3" d="M.5329895 .48995973C.5039978 .388031 .48799134 .33506776 .46199037 .2741089 .41799928 .173172 .33099366 .040267946 .24798584 .040267946 .21598816 .040267946 .20799256 .070251468 .22299195 .12820435L.31900025 .4970703 .31399537 .50205996 .13198853 .47375489 .12599182 .4497528 .18798828 .44476319C.21199036 .44276429 .21099854 .42778016 .20298767 .39682008L.13398743 .13316345C.11299133 .053253175 .12098694-.01171875 .20098877-.01171875 .29699708-.01171875 .4019928 .09420776 .46199037 .21005249H.46398927L.43099977 .096206668C.4119873 .029266358 .42399598-.01171875 .47698976-.01171875 .548996-.01171875 .60899356 .057250978 .6439972 .13116455L.6199951 .14613343C.59999087 .11218262 .55599978 .040267946 .5279999 .040267946 .5069885 .040267946 .5069885 .06324768 .5149994 .09420776L.621994 .5019531 .5329895 .48995973Z"/>
<path id="font_4_1" d="M.1749878 .2822113C.1749878 .56832888 .2619934 .65437319 .32499696 .66737368V.6923828C.1499939 .685379 .10499573 .46829225 .10499573 .2822113 .10499573 .09614563 .1499939-.12094116 .32499696-.12792969V-.10293579C.2669983-.090927127 .1749878-.0059051516 .1749878 .2822113Z"/>
<path id="font_4_2" d="M.1749878 .2822113C.1749878-.0059051516 .08299255-.090927127 .024993897-.10293579V-.12792969C.19999695-.12094116 .24499512 .09614563 .24499512 .2822113 .24499512 .46829225 .19999695 .685379 .024993897 .6923828V.66737368C.08799744 .65437319 .1749878 .56832888 .1749878 .2822113Z"/>
<path id="font_2_3" d="M.6349945 .14315796V.20117188H.084991458V.14315796H.6349945M.6349945 .36288453V.42089845H.084991458V.36288453H.6349945Z"/>
<path id="font_4_3" d="M.2649994 .64468386C.3600006 .64468386 .3869934 .49682618 .3869934 .33398438 .3869934 .17112732 .3600006 .023269654 .2649994 .023269654 .16999817 .023269654 .14299011 .17112732 .14299011 .33398438 .14299011 .49682618 .16999817 .64468386 .2649994 .64468386M.2649994 .6796875C.099990848 .6796875 .040985109 .53378298 .040985109 .33398438 .040985109 .13417053 .099990848-.01171875 .2649994-.01171875 .42999269-.01171875 .4889984 .13417053 .4889984 .33398438 .4889984 .53378298 .42999269 .6796875 .2649994 .6796875Z"/>
<path id="font_4_9" d="M.3809967 .6720276C.5589905 .6720276 .59999087 .4931183 .60198977 .3461914 .59999087 .19924927 .5589905 .020339966 .3809967 .020339966 .20298767 .020339966 .1619873 .19924927 .1599884 .3461914 .1619873 .4931183 .20298767 .6720276 .3809967 .6720276M.3809967 .70703127C.2709961 .70703127 .18899536 .6730194 .1329956 .61006167 .07899475 .55007937 .04798889 .4591217 .04798889 .3461914 .04798889 .23423767 .07899475 .14228821 .1329956 .08232117 .18899536 .019348145 .2709961-.0146484379 .3809967-.0146484379 .49198915-.0146484379 .57299807 .019348145 .6289978 .08232117 .6839905 .14228821 .71398928 .23423767 .71398928 .3461914 .71398928 .4591217 .6839905 .55007937 .6289978 .61006167 .57299807 .6730194 .49198915 .70703127 .3809967 .70703127Z"/>
<path id="font_4_7" d="M.034988405 .6923828V.66337588C.12298584 .6573639 .125 .655365 .125 .5993347V.093048099C.125 .037002565 .12298584 .035003663 .034988405 .0289917V0H.32998658V.0289917C.22698975 .035003663 .22399903 .037002565 .22399903 .093048099V.32722474H.3639984C.44898988 .32722474 .45298768 .3032074 .46199037 .23916626H.49198915V.4532776H.46199037C.45298768 .38923646 .44898988 .36523438 .3639984 .36523438H.22399903V.62135317C.22399903 .65437319 .22799683 .65737918 .26098634 .65737918H.3600006C.47599793 .65737918 .49899293 .6343689 .5130005 .5323181H.54299929V.6923828H.034988405Z"/>
<path id="font_4_8" d="M.033996583 .6923828V.66337588C.12199402 .6573639 .12399292 .655365 .12399292 .5993347V.20309448C.12399292 .15007019 .12199402 .11204529 .116989139 .07902527 .11099243 .037002565 .08699036 .032989503 .034988405 .0289917V0H.27198792V.0289917C.20698548 .033996583 .18299866 .037002565 .1769867 .07902527 .17199707 .11204529 .16999817 .15007019 .16999817 .20309448V.6023407H.17199707C.31498719 .4012146 .45700074 .20109558 .59799197 0H.6639862V.48927308C.6639862 .54229739 .66600039 .58032229 .67099 .6133423 .6769867 .655365 .70098879 .6593628 .7529907 .66337588V.6923828H.5159912V.66337588C.58099368 .658371 .6049957 .655365 .61099246 .6133423 .6159973 .58032229 .6179962 .54229739 .6179962 .48927308V.13806153L.6159973 .14006043C.4850006 .32417298 .35499574 .5082855 .22599793 .6923828H.033996583Z"/>
<path id="font_4_12" d="M.36698915 .35102845V.46794129C.33399964 .49194337 .2829895 .5019531 .23799134 .5019531 .12998963 .5019531 .056991579 .45095826 .055999757 .35603334 .056991579 .27308656 .12399292 .2361145 .20698548 .21113587 .2519989 .19714356 .31498719 .17416382 .31498719 .10621643 .31498719 .055252077 .2749939 .023269654 .22200012 .023269654 .14099121 .023269654 .09599304 .082229617 .07598877 .16716004H.04699707L.056991579 .03627014C.09298706 .004272461 .1539917-.01171875 .21299744-.01171875 .33198548-.01171875 .3999939 .051254274 .3999939 .13618469 .3999939 .2241211 .34599305 .26409913 .24299622 .29606629 .20199585 .30906678 .13598633 .3300476 .13598633 .3860016 .13699341 .43795777 .17599488 .46694947 .22599793 .46694947 .29699708 .46694947 .33099366 .4119873 .33799745 .35102845H.36698915Z"/>
<path id="font_4_10" d="M.036987306 .47694398V.45195008L.07499695 .4469452C.100997928 .4429474 .10699463 .43795777 .10699463 .40194703V.08699036C.10699463 .035995485 .10398865 .033996583 .03199768 .0289917V0H.27598573V.0289917C.20498657 .033996583 .20098877 .035995485 .20098877 .08699036V.49609376L.19400025 .5020752 .036987306 .47694398M.15299988 .71484377C.116989139 .71484377 .09199524 .6888428 .09199524 .65283206 .09199524 .61782839 .116989139 .5928345 .15299988 .5928345 .18998719 .5928345 .21299744 .61782839 .21398926 .65283206 .21398926 .6888428 .18998719 .71484377 .15299988 .71484377Z"/>
<path id="font_4_11" d="M.5289917 .34295655C.5289917 .4439392 .47399903 .5019531 .38198854 .5019531 .30799867 .5019531 .2619934 .46594239 .19999695 .4259491L.18598938 .5019531 .036987306 .47694398V.45195008L.07499695 .4469452C.100997928 .4429474 .10699463 .4379425 .10699463 .40194703V.08699036C.10699463 .035995485 .10398865 .033996583 .03199768 .0289917V0H.27598573V.0289917C.20498657 .033996583 .20098877 .035995485 .20098877 .08699036V.32095338C.20098877 .34596253 .20298767 .35995484 .21099854 .37594605 .23199463 .4149475 .2769928 .44795228 .32998658 .44795228 .397995 .44795228 .43499757 .40994264 .43499757 .32295228V.08699036C.43499757 .035995485 .43199159 .033996583 .3600006 .0289917V0H.60398867V.0289917C.5329895 .033996583 .5289917 .035995485 .5289917 .08699036V.34295655Z"/>
<path id="font_2_2" d="M.07998657 .28173829C.07998657 .24674988 .10798645 .21875 .14299011 .21875 .17799378 .21875 .20599365 .24674988 .20599365 .28173829 .20599365 .31674195 .17799378 .34474183 .14299011 .34474183 .10798645 .34474183 .07998657 .31674195 .07998657 .28173829Z"/>
</defs>
<path transform="matrix(1.00003,0,0,-1.00006,80.8634,33.160089)" d="M-79.37071-31.74838V31.74838H31.16858V-31.74838ZM31.16858 31.74838" fill="#d9d9ff"/>
<path transform="matrix(1.00003,0,0,-1.00006,80.8634,33.160089)" d="M31.16858-31.74838V31.74838H138.89876V-31.74838ZM138.89876 31.74838" fill="#d9f0d9"/>
<use data-text="c" xlink:href="#font_1_1" transform="matrix(9.165875,0,0,-9.166149,109.65127,54.983396)"/>
<path transform="matrix(1.00003,0,0,-1.00006,80.8634,33.160089)" stroke-width=".3985" stroke-linecap="butt" stroke-miterlimit="10" stroke-linejoin="miter" fill="none" stroke="#000000" d="M-79.37071 0H138.44048"/>
<path transform="matrix(1.00003,0,0,-1.00006,219.30805,33.160089)" stroke-width=".31879" stroke-linecap="round" stroke-linejoin="round" fill="none" stroke="#000000" d="M-1.19551 1.59401C-1.09587 .99626 0 .09961 .29886 0 0-.09961-1.09587-.99626-1.19551-1.59401"/>
<path transform="matrix(1.00003,0,0,-1.00006,80.8634,33.160089)" stroke-width=".3985" stroke-linecap="butt" stroke-miterlimit="10" stroke-linejoin="miter" fill="none" stroke="#000000" d="M0-31.74838V31.2901"/>
<path transform="matrix(0,-1.00006,-1.00003,-0,80.8634,1.8681107)" stroke-width=".31879" stroke-linecap="round" stroke-linejoin="round" fill="none" stroke="#000000" d="M-1.19551 1.59401C-1.09587 .99626 0 .09961 .29886 0 0-.09961-1.09587-.99626-1.19551-1.59401"/>
<use data-text="t" xlink:href="#font_1_2" transform="matrix(7.3327205,0,0,-7.3329398,216.21947,41.078565)"/>
<path transform="matrix(1.00003,0,0,-1.00006,80.8634,33.160089)" stroke-width=".3985" stroke-linecap="butt" stroke-miterlimit="10" stroke-linejoin="miter" fill="none" stroke="#929292" d="M-62.33748 1.39478V-1.39478"/>
<use data-text="&#x2212;" xlink:href="#font_2_1" transform="matrix(7.3327205,0,0,-7.3329398,13.494385,41.580595)"/>
<use data-text="&#x03c0;" xlink:href="#font_3_1" transform="matrix(7.3327205,0,0,-7.3329398,18.770554,41.580595)"/>
<path transform="matrix(1.00003,0,0,-1.00006,80.8634,33.160089)" stroke-width=".3985" stroke-linecap="butt" stroke-miterlimit="10" stroke-linejoin="miter" fill="none" stroke="#929292" d="M-31.16858 1.39478V-1.39478"/>
<use data-text="&#x2212;" xlink:href="#font_2_1" transform="matrix(7.3327205,0,0,-7.3329398,43.827287,44.17675)"/>
<use data-text="&#x03c0;" xlink:href="#font_3_1" transform="matrix(6.2327878,0,0,-6.232974,50.298479,41.03656)"/>
<path transform="matrix(1.00003,0,0,-1.00006,-103.03812,26.013659)" stroke-width=".4253" stroke-linecap="butt" stroke-miterlimit="10" stroke-linejoin="miter" fill="none" stroke="#000000" d="M153.332-16.098H157.397"/>
<use data-text="2" xlink:href="#font_4_5" transform="matrix(6.2327878,0,0,-6.232974,50.678514,46.92691)"/>
<path transform="matrix(1.00003,0,0,-1.00006,80.8634,33.160089)" stroke-width=".3985" stroke-linecap="butt" stroke-miterlimit="10" stroke-linejoin="miter" fill="none" stroke="#929292" d="M31.16858 1.39478V-1.39478"/>
<use data-text="&#x03c0;" xlink:href="#font_3_1" transform="matrix(6.2327878,0,0,-6.232974,110.00028,41.03656)"/>
<path transform="matrix(1.00003,0,0,-1.00006,-38.060159,26.013659)" stroke-width=".4253" stroke-linecap="butt" stroke-miterlimit="10" stroke-linejoin="miter" fill="none" stroke="#000000" d="M148.056-16.098H152.121"/>
<use data-text="2" xlink:href="#font_4_5" transform="matrix(6.2327878,0,0,-6.232974,110.3803,46.92691)"/>
<path transform="matrix(1.00003,0,0,-1.00006,80.8634,33.160089)" stroke-width=".3985" stroke-linecap="butt" stroke-miterlimit="10" stroke-linejoin="miter" fill="none" stroke="#929292" d="M62.33748 1.39478V-1.39478"/>
<use data-text="&#x03c0;" xlink:href="#font_3_1" transform="matrix(7.3327205,0,0,-7.3329398,140.8112,41.580595)"/>
<path transform="matrix(1.00003,0,0,-1.00006,80.8634,33.160089)" stroke-width=".3985" stroke-linecap="butt" stroke-miterlimit="10" stroke-linejoin="miter" fill="none" stroke="#929292" d="M93.50607 1.39478V-1.39478"/>
<use data-text="3" xlink:href="#font_4_6" transform="matrix(6.2327878,0,0,-6.232974,170.6861,42.127626)"/>
<use data-text="&#x03c0;" xlink:href="#font_3_1" transform="matrix(6.2327878,0,0,-6.232974,173.99222,42.127626)"/>
<path transform="matrix(1.00003,0,0,-1.00006,22.625664,27.104725)" stroke-width=".4253" stroke-linecap="butt" stroke-miterlimit="10" stroke-linejoin="miter" fill="none" stroke="#000000" d="M148.056-16.098H155.427"/>
<use data-text="2" xlink:href="#font_4_5" transform="matrix(6.2327878,0,0,-6.232974,172.71918,48.01798)"/>
<path transform="matrix(1.00003,0,0,-1.00006,80.8634,33.160089)" stroke-width=".3985" stroke-linecap="butt" stroke-miterlimit="10" stroke-linejoin="miter" fill="none" stroke="#929292" d="M124.67497 1.39478V-1.39478"/>
<use data-text="2" xlink:href="#font_4_5" transform="matrix(7.3327205,0,0,-7.3329398,201.20603,42.86367)"/>
<use data-text="&#x03c0;" xlink:href="#font_3_1" transform="matrix(7.3327205,0,0,-7.3329398,205.09516,42.86367)"/>
<path transform="matrix(1.00003,0,0,-1.00006,80.8634,33.160089)" stroke-width=".3985" stroke-linecap="butt" stroke-miterlimit="10" stroke-linejoin="miter" fill="none" stroke="#929292" d="M1.39478-19.84267H-1.39478"/>
<use data-text="&#x2212;" xlink:href="#font_2_1" transform="matrix(7.3327205,0,0,-7.3329398,66.903987,55.458425)"/>
<use data-text="1" xlink:href="#font_4_4" transform="matrix(7.3327205,0,0,-7.3329398,72.18015,55.458425)"/>
<path transform="matrix(1.00003,0,0,-1.00006,80.8634,33.160089)" stroke-width=".3985" stroke-linecap="butt" stroke-miterlimit="10" stroke-linejoin="miter" fill="none" stroke="#929292" d="M1.39478 19.84267H-1.39478"/>
<use data-text="1" xlink:href="#font_4_4" transform="matrix(7.3327205,0,0,-7.3329398,72.180149,15.771044)"/>
<path transform="matrix(1.00003,0,0,-1.00006,80.8634,33.160089)" stroke-width=".3985" stroke-linecap="butt" stroke-miterlimit="10" stroke-linejoin="miter" fill="none" stroke="#929292" d="M1.39478 19.84267H-1.39478"/>
<path transform="matrix(1.00003,0,0,-1.00006,80.8634,33.160089)" stroke-width="1.19553" stroke-linecap="butt" stroke-miterlimit="10" stroke-linejoin="miter" fill="none" stroke="#009900" d="M-78.41429 0H-78.82146-78.27223-77.72299-77.17377-76.62453-76.0753-75.52606-74.97682-74.42758-73.87836-73.32912-72.77989-72.23065-71.68143-71.13217-70.58295-70.0337-69.48448-68.93524-68.38602-67.83678-67.28754-66.7383-66.18907-65.63985-65.0906-64.54138-63.99214-63.4429-62.89366-62.34444-61.7952-61.24597-60.69673-60.1475-59.59827-59.04903-58.49979-57.95056-57.40132-56.8521-56.30286-55.75363-55.20438-54.65515-54.10591-53.55669-53.00745-52.45822-51.90898-51.35974-50.8105-50.26128-49.71205-49.16281-48.61357-48.06435-47.51509-46.96587-46.41664-45.86742-45.31818-44.76894-44.21971-43.67047-43.12123-42.57199-42.02278-41.47353-40.9243-40.37506-39.82584-39.27658-38.72736-38.17813-37.62889-37.07965-36.53043-35.98119-35.43195-34.8827-34.3335-33.78426-33.23502-32.68578-32.13655-31.5873-31.03807-30.48885-29.93962-29.39037-28.84114-28.2919-27.74266-27.19345-26.64421-26.09499-25.54573-24.9965-24.44727-23.89804-23.3488-22.79958-22.25034-21.7011-21.15186-20.60263-20.05339-19.50417-18.95493-18.4057-17.85646-17.30722-16.75798-16.20876-15.65952-15.11029-14.56105-14.01183-13.46257-12.91335-12.3641-11.81488-11.26564-10.71642-10.16718-9.61794-9.0687-8.51947-7.97023-7.421-6.87178-6.32254-5.7733-5.22406-4.67484-4.1256-3.57637-3.02713-2.4779-1.92865-1.37943-.83018-.28096 .26825 .81747 1.36671 1.91594 2.46518 3.0144 3.56364 4.11288 4.66212 5.21135 5.76059 6.30981 6.85905 7.40828 7.95753 8.50676 9.056 9.60522 10.15446 10.70369 11.25293 11.80215 12.3514 12.90063 13.44986 13.9991 14.54832 15.09756 15.64679 16.19604 16.74527 17.29451 17.84372 18.39297 18.9422 19.49144 20.04068 20.58992 21.13914 21.68837 22.23761 22.78685 23.33607 23.88533 24.43456 24.9838 25.533 26.08226 26.63148 27.18073 27.72995 28.2792 28.82843 29.37766 29.9269"/>
<path transform="matrix(-1.00003,-0,0,1.00006,2.4467545,33.160089)" stroke-width=".9564" stroke-linecap="round" stroke-linejoin="round" fill="none" stroke="#009900" d="M-1.91284 2.55046C-1.75343 1.59402 0 .15938 .4782 0 0-.15938-1.75343-1.59402-1.91284-2.55046"/>
<path transform="matrix(1.00003,0,0,-1.00006,80.8634,33.160089)" stroke-width=".3985" stroke-linecap="butt" stroke-dasharray="2.98883,2.98883" stroke-miterlimit="10" stroke-linejoin="miter" fill="none" stroke="#8080ff" d="M-78.98901 14.76286-78.82146 14.65157-78.27223 14.27614-77.72299 13.88858-77.17377 13.49164-76.62453 13.0835-76.0753 12.66568-75.52606 12.23814-74.97682 11.80095-74.42758 11.35526-73.87836 10.9005-73.32912 10.43755-72.77989 9.96643-72.23065 9.48775-71.68143 9.00209-71.13217 8.50888-70.58295 8.0096-70.0337 7.50397-69.48448 6.99287-68.93524 6.47664-68.38602 5.95496-67.83678 5.42874-67.28754 4.89828-66.7383 4.36418-66.18907 3.82706-65.63985 3.28632-65.0906 2.74373-64.54138 2.19873-63.99214 1.65222-63.4429 1.1042-62.89366 .55588-62.34444 .00664-61.7952-.54195-61.24597-1.09088-60.69673-1.6386-60.1475-2.18541-59.59827-2.73041-59.04903-3.27298-58.49979-3.81345-57.95056-4.35086-57.40132-4.88495-56.8521-5.4154-56.30286-5.94164-55.75363-6.46362-55.20438-6.98016-54.65515-7.49156-54.10591-7.9972-53.55669-8.49646-53.00745-8.98969-52.45822-9.47565-51.90898-9.95462-51.35974-10.42574-50.8105-10.88899-50.26128-11.34406-49.71205-11.79004-49.16281-12.22725-48.61357-12.65477-48.06435-13.07352-47.51509-13.48135-46.96587-13.87889-46.41664-14.26675-45.86742-14.64218-45.31818-15.00764-44.76894-15.36067-44.21971-15.70221-43.67047-16.03253-43.12123-16.34953-42.57199-16.65475-42.02278-16.94632-41.47353-17.22577-40.9243-17.49191-40.37506-17.74382-39.82584-17.98392-39.27658-18.20798-38.72736-18.41962-38.17813-18.61671-37.62889-18.79929-37.07965-18.96825-36.53043-19.12144-35.98119-19.26132-35.43195-19.38547-34.8827-19.49538-34.3335-19.59015-33.78426-19.66948-33.23502-19.73486-32.68578-19.78331-32.13655-19.81815-31.5873-19.83751-31.03807-19.84145-30.48885-19.83055-29.93962-19.80359-29.39037-19.76213-28.84114-19.70549-28.2919-19.63344-27.74266-19.54715-27.19345-19.44481-26.64421-19.32825-26.09499-19.19684-25.54573-19.05031-24.9965-18.88983-24.44727-18.71422-23.89804-18.525-23.3488-18.32031-22.79958-18.10292-22.25034-17.87099-21.7011-17.62575-21.15186-17.36717-20.60263-17.09438-20.05339-16.80946-19.50417-16.51093-18.95493-16.19998-18.4057-15.87721-17.85646-15.54112-17.30722-15.19446-16.75798-14.83475-16.20876-14.46446-15.65952-14.08325-15.11029-13.69087-14.56105-13.28879-14.01183-12.87549-13.46257-12.45282-12.91335-12.02046-12.3641-11.5787-11.81488-11.12848-11.26564-10.66948-10.71642-10.20291-10.16718-9.72754-9.61794-9.24492-9.0687-8.75563-8.51947-8.25969-7.97023-7.75739-7.421-7.24872-6.87178-6.73491-6.32254-6.21565-5.7733-5.69156-5.22406-5.16351-4.67484-4.63123-4.1256-4.09561-3.57637-3.55667-3.02713-3.01501-2.4779-2.47122-1.92865-1.92532-1.37943-1.37791-.83018-.82957-.28096-.28096 .26825 .26825 .81747 .81686 1.36671 1.3655 1.91594 1.9126 2.46518 2.45851 3.0144 3.0026 3.56364 3.54398 4.11288 4.08319 4.66212 4.6188 5.21135 5.1511 5.76059 5.67973 6.30981 6.20354 6.85905 6.7228 7.40828 7.23691 7.95753 7.74559 8.50676 8.24817 9.056 8.74443 9.60522 9.23372 10.15446 9.71634 10.70369 10.192 11.25293 10.65887 11.80215 11.11789 12.3514 11.56842 12.90063 12.01016 13.44986 12.44252 13.9991 12.86581 14.54832 13.2791 15.09756 13.6818 15.64679 14.07448 16.19604 14.456 16.74527 14.82626 17.29451 15.18597 17.84372 15.53326 18.39297 15.86934 18.9422 16.19272 19.49144 16.50395 20.04068 16.8028 20.58992 17.0877 21.13914 17.36113 21.68837 17.61967 22.23761 17.86554 22.78685 18.09776 23.33607 18.31577 23.88533 18.52045 24.43456 18.70998 24.9838 18.8859 25.533 19.04666 26.08226 19.19351 26.63148 19.32552 27.18073 19.4421 27.72995 19.54503 28.2792 19.63162 28.82843 19.7043 29.37766 19.76091 29.9269 19.8027"/>
<path transform="matrix(-.832925,-.5533432,-.5533266,.83294996,1.8720322,18.396344)" stroke-width=".31879" stroke-linecap="round" stroke-linejoin="round" fill="none" stroke="#8080ff" d="M-1.19551 1.59401C-1.09587 .99626 0 .09961 .29886 0 0-.09961-1.09587-.99626-1.19551-1.59401"/>
<path transform="matrix(1.00003,0,0,-1.00006,80.8634,33.160089)" stroke-width="1.19553" stroke-linecap="butt" stroke-miterlimit="10" stroke-linejoin="miter" fill="none" stroke="#0000ff" d="M31.16858 19.84236 31.70963 19.83418 32.25069 19.81268 32.79175 19.77515 33.33281 19.72397 33.87387 19.65767 34.41493 19.57683 34.956 19.48175 35.49706 19.37125 36.0381 19.248 36.57918 19.10844 37.12022 18.95613 37.66129 18.789 38.20235 18.60825 38.74341 18.41386 39.28445 18.20496 39.82553 17.98392 40.36658 17.74776 40.90764 17.49979 41.4487 17.2379 41.98976 16.96356 42.53082 16.67685 43.07188 16.3774 43.61293 16.06615 44.154 15.74248 44.69507 15.40791 45.23613 15.06062 45.77718 14.70305 46.31825 14.33427 46.8593 13.9549 47.40036 13.56522 47.94142 13.16525 48.48248 12.7562 49.02353 12.33656 49.5646 11.90843 50.10565 11.47124 50.64671 11.02554 51.18777 10.57198 51.72882 10.10994 52.26988 9.64095 52.81094 9.16408 53.352 8.68115 53.89305 8.19125 54.43413 7.69562 54.97519 7.19423 55.51625 6.68738 56.05731 6.17569 56.59837 5.65916 57.13942 5.13867 57.6805 4.61368 58.22154 4.08624 58.7626 3.55518 59.30367 3.02167 59.84473 2.48607 60.38577 1.94803 60.92685 1.4094 61.4679 .86896 62.00896 .32849 62.55002-.21223 63.09108-.75298 63.63213-1.29344 64.1732-1.83238 64.71426-2.37071 65.25533-2.90692 65.79637-3.44102 66.33745-3.9724 66.8785-4.50073 67.41956-5.02606 67.96062-5.54744 68.50168-6.06487 69.04272-6.57777 69.5838-7.08583 70.12485-7.58813 70.66592-8.08559 71.20697-8.57639 71.74803-9.06113 72.2891-9.53922 72.83015-10.01004 73.3712-10.47327 73.91228-10.92865 74.45332-11.37645 74.99438-11.81519 75.53545-12.24573 76.0765-12.66628 76.61757-13.07835 77.15862-13.48015 77.69969-13.87193 78.24074-14.25433 78.7818-14.62463 79.32286-14.98523 79.86392-15.33372 80.40497-15.67192 80.94604-15.99742 81.48709-16.3114 82.02815-16.61357 82.56921-16.90302 83.11028-17.18066 83.65134-17.44437 84.1924-17.696 84.73344-17.93396 85.27452-18.15862 85.81558-18.36995 86.35664-18.56767 86.89769-18.75208 87.43877-18.92131 87.97981-19.07755 88.52087-19.21895 89.06194-19.3461 89.603-19.45905 90.14404-19.55775 90.68512-19.64162 91.22617-19.71065 91.76723-19.76607 92.30829-19.80542 92.84935-19.83116 93.3904-19.84145 93.93147-19.8372 94.47252-19.81815 95.01358-19.78453 95.55464-19.73639 96.09572-19.6728 96.63676-19.5959 97.17783-19.50325 97.71889-19.39668 98.25993-19.27527 98.80101-19.13962 99.34206-18.99005 99.88312-18.82594 100.42418-18.64851 100.96524-18.45624 101.50629-18.25128 102.04736-18.03175 102.58841-17.79922 103.12947-17.55368 103.67053-17.2951 104.2116-17.02382 104.75264-16.73921 105.29372-16.44308 105.83478-16.13365 106.37584-15.81303 106.91689-15.47997 107.45796-15.13603 107.99901-14.78027 108.54007-14.4142 109.08113-14.03755 109.6222-13.6494 110.16325-13.25185 110.70432-12.84401 111.24536-12.4271 111.78644-12.00076 112.32748-11.56538 112.86855-11.12183 113.4096-10.66948 113.95067-10.20985 114.49171-9.74179 115.03279-9.26672 115.57384-8.785 116.11491-8.29692 116.65596-7.8022 117.19704-7.30171 117.73808-6.79637 118.27914-6.2853 118.8202-5.76996 119.36127-5.2501 119.90231-4.7263 120.44337-4.19948 120.98444-3.669 121.52548-3.13612 122.06656-2.60083 122.6076-2.06369 123.14867-1.52505 123.68973-.9849 124.23079-.44385 124.77185 .09657 125.31291 .63731 125.85396 1.17778 126.39503 1.71732 126.9361 2.25565 127.47716 2.79218 128.0182 3.32658 128.55928 3.85915 129.10033 4.3878 129.64139 4.91371 130.18245 5.43631 130.72351 5.95467 131.26456 6.46877 131.80564 6.97745 132.34668 7.48125 132.88774 7.97963 133.4288 8.47194 133.96987 8.95789 134.51091 9.43718 135.05199 9.9098 135.59304 10.37459 136.1341 10.83208 136.67517 11.28079 137.21623 11.72223 137.75728 12.1543 138.29836 12.57695 138.08003 12.40979"/>
<path transform="matrix(.79400387,-.60788646,-.60786828,-.7940276,218.94759,20.749554)" stroke-width=".9564" stroke-linecap="round" stroke-linejoin="round" fill="none" stroke="#0000ff" d="M-1.91284 2.55046C-1.75343 1.59402 0 .15938 .4782 0 0-.15938-1.75343-1.59402-1.91284-2.55046"/>
<path transform="matrix(1.00003,0,0,-1.00006,80.8634,33.160089)" stroke-width=".3985" stroke-linecap="butt" stroke-dasharray="2.98883,2.98883" stroke-miterlimit="10" stroke-linejoin="miter" fill="none" stroke="#8080ff" d="M31.16858 19.84267H31.70963 32.25069 32.79175 33.33281 33.87387 34.41493 34.956 35.49706 36.0381 36.57918 37.12022 37.66129 38.20235 38.74341 39.28445 39.82553 40.36658 40.90764 41.4487 41.98976 42.53082 43.07188 43.61293 44.154 44.69507 45.23613 45.77718 46.31825 46.8593 47.40036 47.94142 48.48248 49.02353 49.5646 50.10565 50.64671 51.18777 51.72882 52.26988 52.81094 53.352 53.89305 54.43413 54.97519 55.51625 56.05731 56.59837 57.13942 57.6805 58.22154 58.7626 59.30367 59.84473 60.38577 60.92685 61.4679 62.00896 62.55002 63.09108 63.63213 64.1732 64.71426 65.25533 65.79637 66.33745 66.8785 67.41956 67.96062 68.50168 69.04272 69.5838 70.12485 70.66592 71.20697 71.74803 72.2891 72.83015 73.3712 73.91228 74.45332 74.99438 75.53545 76.0765 76.61757 77.15862 77.69969 78.24074 78.7818 79.32286 79.86392 80.40497 80.94604 81.48709 82.02815 82.56921 83.11028 83.65134 84.1924 84.73344 85.27452 85.81558 86.35664 86.89769 87.43877 87.97981 88.52087 89.06194 89.603 90.14404 90.68512 91.22617 91.76723 92.30829 92.84935 93.3904 93.93147 94.47252 95.01358 95.55464 96.09572 96.63676 97.17783 97.71889 98.25993 98.80101 99.34206 99.88312 100.42418 100.96524 101.50629 102.04736 102.58841 103.12947 103.67053 104.2116 104.75264 105.29372 105.83478 106.37584 106.91689 107.45796 107.99901 108.54007 109.08113 109.6222 110.16325 110.70432 111.24536 111.78644 112.32748 112.86855 113.4096 113.95067 114.49171 115.03279 115.57384 116.11491 116.65596 117.19704 117.73808 118.27914 118.8202 119.36127 119.90231 120.44337 120.98444 121.52548 122.06656 122.6076 123.14867 123.68973 124.23079 124.77185 125.31291 125.85396 126.39503 126.9361 127.47716 128.0182 128.55928 129.10033 129.64139 130.18245 130.72351 131.26456 131.80564 132.34668 132.88774 133.4288 133.96987 134.51091 135.05199 135.59304 136.1341 136.67517 137.21623 137.75728 138.29836 138.38112"/>
<path transform="matrix(1.00003,0,0,-1.00006,219.24868,13.316227)" stroke-width=".31879" stroke-linecap="round" stroke-linejoin="round" fill="none" stroke="#8080ff" d="M-1.19551 1.59401C-1.09587 .99626 0 .09961 .29886 0 0-.09961-1.09587-.99626-1.19551-1.59401"/>
<path transform="matrix(1.00003,0,0,-1.00006,80.8634,33.160089)" stroke-width=".79701" stroke-linecap="butt" stroke-miterlimit="10" stroke-linejoin="miter" fill="none" stroke="#0000ff" d="M33.26076 0C33.26076 1.15549 32.32407 2.09216 31.16858 2.09216 30.01309 2.09216 29.0764 1.15549 29.0764 0 29.0764-1.15549 30.01309-2.09216 31.16858-2.09216 32.32407-2.09216 33.26076-1.15549 33.26076 0ZM31.16858 0"/>
<path transform="matrix(1.00003,0,0,-1.00006,80.8634,33.160089)" d="M33.26076 19.84236C33.26076 20.99785 32.32407 21.93452 31.16858 21.93452 30.01309 21.93452 29.0764 20.99785 29.0764 19.84236 29.0764 18.68687 30.01309 17.75018 31.16858 17.75018 32.32407 17.75018 33.26076 18.68687 33.26076 19.84236ZM31.16858 19.84236" fill="#0000ff"/>
<use data-text="u" xlink:href="#font_1_3" transform="matrix(7.3327205,0,0,-7.3329398,44.060304,8.988638)" fill="#0000ff"/>
<use data-text="(" xlink:href="#font_4_1" transform="matrix(7.3327205,0,0,-7.3329398,48.993455,8.988638)" fill="#0000ff"/>
<use data-text="t" xlink:href="#font_1_2" transform="matrix(7.3327205,0,0,-7.3329398,51.71953,8.988638)" fill="#0000ff"/>
<use data-text=")" xlink:href="#font_4_2" transform="matrix(7.3327205,0,0,-7.3329398,55.00363,8.988638)" fill="#0000ff"/>
<use data-text="=" xlink:href="#font_2_3" transform="matrix(7.3327205,0,0,-7.3329398,58.93373,8.988638)" fill="#0000ff"/>
<use data-text="0" xlink:href="#font_4_3" transform="matrix(7.3327205,0,0,-7.3329398,65.57393,8.988638)" fill="#0000ff"/>
<use data-text="u" xlink:href="#font_1_3" transform="matrix(7.3327205,0,0,-7.3329398,153.19757,8.988638)" fill="#009900"/>
<use data-text="(" xlink:href="#font_4_1" transform="matrix(7.3327205,0,0,-7.3329398,158.13074,8.988638)" fill="#009900"/>
<use data-text="t" xlink:href="#font_1_2" transform="matrix(7.3327205,0,0,-7.3329398,160.85681,8.988638)" fill="#009900"/>
<use data-text=")" xlink:href="#font_4_2" transform="matrix(7.3327205,0,0,-7.3329398,164.1409,8.988638)" fill="#009900"/>
<use data-text="=" xlink:href="#font_2_3" transform="matrix(7.3327205,0,0,-7.3329398,168.07102,8.988638)" fill="#009900"/>
<use data-text="1" xlink:href="#font_4_4" transform="matrix(7.3327205,0,0,-7.3329398,174.71121,8.988638)" fill="#009900"/>
<use data-text="O" xlink:href="#font_4_9" transform="matrix(7.3327205,0,0,-7.3329398,49.71147,61.36378)" fill="#0000ff"/>
<use data-text="F" xlink:href="#font_4_7" transform="matrix(7.3327205,0,0,-7.3329398,55.29901,61.36378)" fill="#0000ff"/>
<use data-text="F" xlink:href="#font_4_7" transform="matrix(7.3327205,0,0,-7.3329398,59.552003,61.36378)" fill="#0000ff"/>
<use data-text="O" xlink:href="#font_4_9" transform="matrix(7.3327205,0,0,-7.3329398,160.24478,61.36378)" fill="#009900"/>
<use data-text="N" xlink:href="#font_4_8" transform="matrix(7.3327205,0,0,-7.3329398,165.83234,61.36378)" fill="#009900"/>
<use data-text="s" xlink:href="#font_4_12" transform="matrix(7.3327205,0,0,-7.3329398,43.89029,28.832829)"/>
<use data-text="i" xlink:href="#font_4_10" transform="matrix(7.3327205,0,0,-7.3329398,47.087358,28.832829)"/>
<use data-text="n" xlink:href="#font_4_11" transform="matrix(7.3327205,0,0,-7.3329398,49.22119,28.832829)"/>
<use data-text="(" xlink:href="#font_4_1" transform="matrix(7.3327205,0,0,-7.3329398,53.760149,28.832829)"/>
<use data-text="t" xlink:href="#font_1_2" transform="matrix(7.3327205,0,0,-7.3329398,56.483675,28.832829)"/>
<use data-text=")" xlink:href="#font_4_2" transform="matrix(7.3327205,0,0,-7.3329398,59.76677,28.832829)"/>
<use data-text="&#x00b7;" xlink:href="#font_2_2" transform="matrix(7.3327205,0,0,-7.3329398,63.307878,28.832829)"/>
<use data-text="0" xlink:href="#font_4_3" transform="matrix(7.3327205,0,0,-7.3329398,66.321979,28.832829)" fill="#0000ff"/>
<use data-text="s" xlink:href="#font_4_12" transform="matrix(7.3327205,0,0,-7.3329398,153.02857,28.832829)"/>
<use data-text="i" xlink:href="#font_4_10" transform="matrix(7.3327205,0,0,-7.3329398,156.22565,28.832829)"/>
<use data-text="n" xlink:href="#font_4_11" transform="matrix(7.3327205,0,0,-7.3329398,158.35947,28.832829)"/>
<use data-text="(" xlink:href="#font_4_1" transform="matrix(7.3327205,0,0,-7.3329398,162.89844,28.832829)"/>
<use data-text="t" xlink:href="#font_1_2" transform="matrix(7.3327205,0,0,-7.3329398,165.62195,28.832829)"/>
<use data-text=")" xlink:href="#font_4_2" transform="matrix(7.3327205,0,0,-7.3329398,168.90506,28.832829)"/>
<use data-text="&#x00b7;" xlink:href="#font_2_2" transform="matrix(7.3327205,0,0,-7.3329398,172.44617,28.832829)"/>
<use data-text="1" xlink:href="#font_4_4" transform="matrix(7.3327205,0,0,-7.3329398,175.46027,28.832829)" fill="#009900"/>
</svg>
