<svg xmlns="http://www.w3.org/2000/svg" xmlns:xlink="http://www.w3.org/1999/xlink" version="1.1" width="93" height="54" viewBox="0 0 93 54">
<defs>
<path id="font_1_1" d="M.42799378 .45222474 .43899537 .49023438H.31199647L.34599305 .6092224 .33399964 .6162262 .23699951 .53923037 .22399903 .49023438H.14299011L.13198853 .45222474H.21499634L.125 .08627319C.10998535 .029266358 .12199402-.01171875 .17199707-.01171875 .2519989-.01171875 .31599427 .054275514 .35598756 .1292572L.33399964 .1462555C.31098939 .10726929 .2599945 .040267946 .22898865 .040267946 .20799256 .040267946 .20799256 .0632782 .21398926 .088272098L.30299378 .45222474H.42799378Z"/>
<path id="font_2_1" d="M.2649994 .64468386C.3600006 .64468386 .3869934 .49682618 .3869934 .33398438 .3869934 .17112732 .3600006 .023269654 .2649994 .023269654 .16999817 .023269654 .14299011 .17112732 .14299011 .33398438 .14299011 .49682618 .16999817 .64468386 .2649994 .64468386M.2649994 .6796875C.099990848 .6796875 .040985109 .53378298 .040985109 .33398438 .040985109 .13417053 .099990848-.01171875 .2649994-.01171875 .42999269-.01171875 .4889984 .13417053 .4889984 .33398438 .4889984 .53378298 .42999269 .6796875 .2649994 .6796875Z"/>
<path id="font_3_2" d="M.084991458 .31092835V.2529297H.33099366V.0068359377H.3889923V.2529297H.6349945V.31092835H.3889923V.5566406H.33099366V.31092835H.084991458Z"/>
<path id="font_3_1" d="M.14898682 .33818055C.18199158 .3171997 .2630005 .29719544 .27598573 .2902069 .27799989 .288208 .2809906 .28720094 .2809906 .2822113 .2809906 .2782135 .27799989 .2762146 .27598573 .27520753 .2630005 .268219 .18199158 .24821472 .147995 .22721863 .13198853 .21922302 .125 .2122345 .125 .20223999 .125 .19624329 .12799073 .18823242 .13398743 .1772461 .14299011 .16125489 .1499939 .1542511 .1599884 .1542511 .16699219 .1542511 .17399597 .1582489 .18499756 .1642456 .21998596 .1832428 .2769928 .2432251 .2899933 .25021363 .2919922 .2512207 .2939911 .25221253 .29499818 .25221253 .29599 .25221253 .2979889 .25221253 .29899598 .2512207 .3019867 .2492218 .3019867 .24621582 .3019867 .24421692 .3019867 .22822571 .27999879 .14924622 .27999879 .10826111 .27999879 .07728577 .2869873 .07128906 .31698609 .07128906 .34298707 .07128906 .35299684 .07627869 .35299684 .09927368V.11227417C.35299684 .15325928 .33099366 .22822571 .33099366 .2432251 .33099366 .24621582 .33099366 .2492218 .33499146 .2512207 .33599855 .25221253 .33699037 .25221253 .33799745 .25221253 .33999635 .25221253 .34199525 .2512207 .34298707 .25021363 .35598756 .2432251 .4139862 .1832428 .44898988 .1622467 .45799256 .15625 .46699525 .1542511 .47299195 .1542511 .48199464 .1542511 .4909973 .16125489 .49899293 .1772461 .5049896 .18823242 .5089874 .19624329 .5089874 .20223999 .5089874 .2122345 .5019989 .21922302 .48599244 .22721863 .45098878 .24821472 .37098695 .268219 .35798646 .27520753 .35499574 .2762146 .35299684 .2782135 .35299684 .2822113 .35299684 .28720094 .35499574 .288208 .35798646 .2902069 .37098695 .29719544 .45098878 .3171997 .48599244 .33818055 .5019989 .34718324 .5089874 .354187 .5089874 .36418153 .5089874 .37017823 .5049896 .37716676 .49899293 .38816834 .4909973 .40415956 .48399354 .41215516 .47399903 .41215516 .46798707 .41215516 .45999146 .40815736 .44898988 .40116883 .4139862 .38217164 .35598756 .32218934 .34298707 .3152008 .34199525 .31419374 .34098817 .31219483 .33799745 .31219483 .33699037 .31219483 .33599855 .31219483 .33499146 .31419374 .33099366 .31619264 .33099366 .31819154 .33099366 .32218934 .33099366 .33618165 .35398866 .41716004 .35398866 .45614625 .35398866 .48612977 .34700013 .49414063 .31698609 .49414063 .2869873 .49414063 .27999879 .48612977 .27999879 .45614625 .27999879 .41716004 .3019867 .33618165 .3019867 .32218934 .3019867 .31819154 .3019867 .31619264 .29899598 .31419374 .2979889 .31219483 .29599 .31219483 .29499818 .31219483 .2939911 .31219483 .2919922 .31219483 .2899933 .31419374 .2769928 .32218934 .21998596 .38116456 .18499756 .40116883 .17399597 .40716554 .1659851 .41116334 .1599884 .41116334 .1499939 .41116334 .14299011 .40415956 .13398743 .38816834 .12799073 .37716676 .125 .37017823 .125 .36317445 .125 .35317994 .13198853 .34617616 .14898682 .33818055Z"/>
<path id="font_2_2" d="M.43699647 0V.0289917L.35299684 .035995485C.33198548 .037994386 .31999208 .04598999 .31999208 .08496094V.67367556L.31498719 .6796875 .10899353 .6446991V.6197052L.20199585 .6087036C.21899414 .6067047 .22599793 .5987091 .22599793 .56973269V.08496094C.22599793 .065979007 .22299195 .053985597 .21699524 .04698181 .21199036 .039993287 .20399475 .036987306 .19299317 .035995485L.10899353 .0289917V0H.43699647Z"/>
<path id="font_2_3" d="M.4850006 .13195801 .45700074 .13696289C.43598939 .08299255 .41600038 .07598877 .37599183 .07598877H.11999512C.13598633 .1279602 .19499207 .19892884 .28799439 .2658844 .38398744 .33584596 .45799256 .38082887 .45799256 .49276734 .45799256 .63168337 .3659973 .6796875 .26098634 .6796875 .12399292 .6796875 .052993776 .5967102 .052993776 .54473879 .052993776 .51075747 .09098816 .49476625 .10798645 .49476625 .12599182 .49476625 .1329956 .50476077 .13699341 .5217438 .15299988 .5897064 .19198609 .64468386 .2539978 .64468386 .33099366 .64468386 .35299684 .5797119 .35299684 .50675967 .35299684 .3998108 .29899598 .33984376 .21199036 .26289369 .08898926 .15594483 .04598999 .08798218 .026992798 .009994507L.036987306 0H.45098878L.4850006 .13195801Z"/>
</defs>
<path transform="matrix(1.00005,0,0,-1.00002,18.542374,27.311226)" stroke-width=".3985" stroke-linecap="butt" stroke-miterlimit="10" stroke-linejoin="miter" fill="none" stroke="#000000" d="M-11.33855 0H67.57388"/>
<path transform="matrix(1.00005,0,0,-1.00002,86.11963,27.311226)" stroke-width=".31879" stroke-linecap="round" stroke-linejoin="round" fill="none" stroke="#000000" d="M-1.19551 1.59401C-1.09587 .99626 0 .09961 .29886 0 0-.09961-1.09587-.99626-1.19551-1.59401"/>
<path transform="matrix(1.00005,0,0,-1.00002,18.542374,27.311226)" stroke-width=".3985" stroke-linecap="butt" stroke-miterlimit="10" stroke-linejoin="miter" fill="none" stroke="#000000" d="M0-25.51193V25.05367"/>
<path transform="matrix(0,-1.00002,-1.00005,-0,18.542374,2.2570534)" stroke-width=".31879" stroke-linecap="round" stroke-linejoin="round" fill="none" stroke="#000000" d="M-1.19551 1.59401C-1.09587 .99626 0 .09961 .29886 0 0-.09961-1.09587-.99626-1.19551-1.59401"/>
<use data-text="t" xlink:href="#font_1_1" transform="matrix(10.036901,0,0,-10.036601,81.60553,36.895418)"/>
<path transform="matrix(1.00005,0,0,-1.00002,18.542374,27.311226)" stroke-width=".3985" stroke-linecap="butt" stroke-miterlimit="10" stroke-linejoin="miter" fill="none" stroke="#929292" d="M0 2.83484V-2.83484"/>
<use data-text="0" xlink:href="#font_2_1" transform="matrix(10.036901,0,0,-10.036601,1.0925064,37.430429)"/>
<use data-text="+" xlink:href="#font_3_2" transform="matrix(10.036901,0,0,-10.036601,7.74984,37.430429)"/>
<use data-text="0" xlink:href="#font_2_1" transform="matrix(10.036901,0,0,-10.036601,16.305268,37.430429)"/>
<use data-text="&#x2217;" xlink:href="#font_3_1" transform="matrix(10.036901,0,0,-10.036601,22.962594,37.430429)"/>
<use data-text="1" xlink:href="#font_2_2" transform="matrix(10.036901,0,0,-10.036601,30.667984,37.430429)"/>
<use data-text="t" xlink:href="#font_1_1" transform="matrix(10.036901,0,0,-10.036601,14.509178,22.234124)"/>
<use data-text="0" xlink:href="#font_2_1" transform="matrix(7.60788,0,0,-7.6076529,18.26136,23.870156)"/>
<path transform="matrix(1.00005,0,0,-1.00002,18.542374,27.311226)" stroke-width=".3985" stroke-linecap="butt" stroke-miterlimit="10" stroke-linejoin="miter" fill="none" stroke="#929292" d="M28.3468 2.83484V-2.83484"/>
<use data-text="0" xlink:href="#font_2_1" transform="matrix(10.036901,0,0,-10.036601,29.440918,37.430429)"/>
<use data-text="+" xlink:href="#font_3_2" transform="matrix(10.036901,0,0,-10.036601,36.09825,37.430429)"/>
<use data-text="1" xlink:href="#font_2_2" transform="matrix(10.036901,0,0,-10.036601,44.65368,37.430429)"/>
<use data-text="&#x2217;" xlink:href="#font_3_1" transform="matrix(10.036901,0,0,-10.036601,51.311006,37.430429)"/>
<use data-text="1" xlink:href="#font_2_2" transform="matrix(10.036901,0,0,-10.036601,59.016397,37.430429)"/>
<use data-text="t" xlink:href="#font_1_1" transform="matrix(10.036901,0,0,-10.036601,42.857595,22.276125)"/>
<use data-text="1" xlink:href="#font_2_2" transform="matrix(7.60788,0,0,-7.6076529,46.609777,23.912158)"/>
<path transform="matrix(1.00005,0,0,-1.00002,18.542374,27.311226)" stroke-width=".3985" stroke-linecap="butt" stroke-miterlimit="10" stroke-linejoin="miter" fill="none" stroke="#929292" d="M56.69362 2.83484V-2.83484"/>
<use data-text="0" xlink:href="#font_2_1" transform="matrix(10.036901,0,0,-10.036601,57.789335,37.430429)"/>
<use data-text="+" xlink:href="#font_3_2" transform="matrix(10.036901,0,0,-10.036601,64.44667,37.430429)"/>
<use data-text="2" xlink:href="#font_2_3" transform="matrix(10.036901,0,0,-10.036601,73.00209,37.430429)"/>
<use data-text="&#x2217;" xlink:href="#font_3_1" transform="matrix(10.036901,0,0,-10.036601,79.659427,37.430429)"/>
<use data-text="1" xlink:href="#font_2_2" transform="matrix(10.036901,0,0,-10.036601,87.36481,37.430429)"/>
<use data-text="t" xlink:href="#font_1_1" transform="matrix(10.036901,0,0,-10.036601,71.20502,22.276125)"/>
<use data-text="2" xlink:href="#font_2_3" transform="matrix(7.60788,0,0,-7.6076529,74.9572,23.912158)"/>
</svg>
