<svg xmlns="http://www.w3.org/2000/svg" xmlns:xlink="http://www.w3.org/1999/xlink" version="1.1" width="196" height="103" viewBox="0 0 196 103">
<defs>
<path id="font_1_3" d="M.42799378 .45222474 .43899537 .49023438H.31199647L.34599305 .6092224 .33399964 .6162262 .23699951 .53923037 .22399903 .49023438H.14299011L.13198853 .45222474H.21499634L.125 .08627319C.10998535 .029266358 .12199402-.01171875 .17199707-.01171875 .2519989-.01171875 .31599427 .054275514 .35598756 .1292572L.33399964 .1462555C.31098939 .10726929 .2599945 .040267946 .22898865 .040267946 .20799256 .040267946 .20799256 .0632782 .21398926 .088272098L.30299378 .45222474H.42799378Z"/>
<path id="font_1_2" d="M.18399048 .0002746582 .3600006 .7371979 .35499574 .7421875 .17599488 .71824648 .16999817 .6953125 .22698975 .68829348C.2519989 .6852875 .2559967 .67826846 .24699402 .63920596L.09199524-.01171875 .18399048 .0002746582M.5499878 .5019531C.5099945 .5019531 .46099855 .47094728 .4099884 .427948 .35398866 .378891 .3019867 .32374574 .25498963 .26660157 .27398683 .2027893 .2979889 .14396668 .32598878 .08314514 .35499574 .01927185 .38398744-.01171875 .43199159-.01171875 .49598695-.01171875 .5399933 .045272829 .56999209 .12901306L.54499819 .14196778C.5169983 .08215332 .49198915 .043273927 .46499635 .043273927 .44799806 .043273927 .43399049 .062210084 .40899659 .11405945 .37799073 .17686463 .35299684 .2416687 .33399964 .30870057 .3619995 .34075929 .43998719 .4259491 .47599793 .4259491 .4909973 .4259491 .5019989 .42092896 .5249939 .40690614 .5319977 .40293885 .5419922 .39894105 .5529938 .39894105 .58099368 .39894105 .60198977 .427948 .60198977 .4529419 .60198977 .47994996 .58898928 .5019531 .5499878 .5019531Z"/>
<path id="font_2_3" d="M.084991458 .31092835V.2529297H.33099366V.0068359377H.3889923V.2529297H.6349945V.31092835H.3889923V.5566406H.33099366V.31092835H.084991458Z"/>
<path id="font_3_4" d="M.43699647 0V.0289917L.35299684 .035995485C.33198548 .037994386 .31999208 .04598999 .31999208 .08496094V.67367556L.31498719 .6796875 .10899353 .6446991V.6197052L.20199585 .6087036C.21899414 .6067047 .22599793 .5987091 .22599793 .56973269V.08496094C.22599793 .065979007 .22299195 .053985597 .21699524 .04698181 .21199036 .039993287 .20399475 .036987306 .19299317 .035995485L.10899353 .0289917V0H.43699647Z"/>
<path id="font_1_4" d="M.070999149 .45393373 .07398987 .42893983 .14199829 .43093873C.1639862 .43193055 .16899109 .41493226 .1769867 .36291505 .18798828 .28489686 .20999146 .09286499 .20999146 .0128479 .20999146-.017166138 .20799256-.058166505 .18598938-.11117554 .16799927-.15318299 .14199829-.18218994 .12199402-.18218994 .10699463-.18218994 .09599304-.17118836 .08099365-.15118408 .068984989-.13517761 .06098938-.127182 .04598999-.127182 .019989014-.12818909-.005004883-.15818787-.005004883-.18719483-.005004883-.21418762 .023986817-.2421875 .067993167-.2421875 .15299988-.2421875 .18998719-.17919922 .27799989-.027160645 .2979889 .0068511965 .35798646 .11286926 .41999818 .21488953 .47698976 .30891419 .5399933 .40592958 .5399933 .4459381 .5399933 .48094178 .5289917 .5019531 .5219879 .5019531 .5029907 .5019531 .46899415 .49394227 .44400025 .47694398 .44499208 .4419403 .44299317 .3809204 .43099977 .33891297 .4149933 .28289796 .35598756 .17488098 .2899933 .06085205H.2869873C.27999879 .21388245 .26098634 .42492677 .24699402 .49795533L.23899842 .5019531 .070999149 .45393373Z"/>
<clipPath id="clip_4">
<path transform="matrix(1.00006,0,0,-1,3.9103699,101.296)" d="M0 0H190.89975V100.19867H0Z"/>
</clipPath>
<path id="font_1_1" d="M.35198976 .7371979 .34700013 .7421875 .16699219 .71824648 .16099549 .6953125 .21798706 .68829348C.24299622 .6852875 .24699402 .67826846 .23799134 .63920596L.09199524-.01171875 .1789856 .0002746582C.20599365 .10221863 .22099304 .15718079 .24598694 .22012329 .27598573 .2980652 .375 .44995118 .46199037 .44995118 .49398805 .44995118 .5059967 .42097474 .49398805 .38000489L.4119873 .096221927C.3929901 .030273438 .40699769-.01171875 .46398927-.01171875 .5329895-.01171875 .58898928 .056259157 .6230011 .13220215L.598999 .14619446C.58099368 .11122131 .5369873 .040267946 .5089874 .040267946 .4889984 .040267946 .4889984 .06324768 .49899293 .0952301L.5779877 .35702516C.60198977 .43595887 .58898928 .5019531 .5079956 .5019531 .41299439 .5019531 .30699159 .39898683 .24299622 .27908326H.23999024L.35198976 .7371979Z"/>
<path id="font_2_2" d="M.07998657 .28173829C.07998657 .24674988 .10798645 .21875 .14299011 .21875 .17799378 .21875 .20599365 .24674988 .20599365 .28173829 .20599365 .31674195 .17799378 .34474183 .14299011 .34474183 .10798645 .34474183 .07998657 .31674195 .07998657 .28173829Z"/>
<path id="font_2_1" d="M.2769928 .50541689C.2829895 .5204315 .28399659 .5294342 .28399659 .53344729 .28399659 .5544586 .2539978 .56347659 .22299195 .56347659 .19299317 .56347659 .1619873 .5544586 .15899658 .53944399L.053985597 .05303955C.053985597 .046035768 .067993167 .040039064 .07998657 .040039064 .08799744 .040039064 .09599304 .043029787 .09799194 .048034669L.2769928 .50541689Z"/>
<path id="font_3_7" d="M.18899536 .5019531 .036987306 .47694398V.45195008L.07499695 .4469452C.100997928 .4429474 .10699463 .4379425 .10699463 .40194703V.08699036C.10699463 .035995485 .101989749 .033996583 .03199768 .0289917V0H.29599V.0289917C.20698548 .033996583 .20098877 .035995485 .20098877 .08699036V.32095338C.20098877 .39794923 .23498535 .4239502 .2579956 .4239502 .27398683 .4239502 .29100038 .4179535 .31999208 .40194703 .32699586 .39794923 .33499146 .39694215 .33999635 .39694215 .3639984 .39694215 .38598634 .4219513 .38598634 .4529419 .38598634 .47494508 .37199403 .5019531 .33299256 .5019531 .29699708 .5019531 .2669983 .47994996 .20098877 .4219513L.18899536 .5019531Z"/>
<path id="font_3_6" d="M.036987306 .47694398V.45195008L.07499695 .4469452C.100997928 .4429474 .10699463 .43795777 .10699463 .40194703V.08699036C.10699463 .035995485 .10398865 .033996583 .03199768 .0289917V0H.27598573V.0289917C.20498657 .033996583 .20098877 .035995485 .20098877 .08699036V.49609376L.19400025 .5020752 .036987306 .47694398M.15299988 .71484377C.116989139 .71484377 .09199524 .6888428 .09199524 .65283206 .09199524 .61782839 .116989139 .5928345 .15299988 .5928345 .18998719 .5928345 .21299744 .61782839 .21398926 .65283206 .21398926 .6888428 .18998719 .71484377 .15299988 .71484377Z"/>
<path id="font_3_8" d="M.36698915 .35102845V.46794129C.33399964 .49194337 .2829895 .5019531 .23799134 .5019531 .12998963 .5019531 .056991579 .45095826 .055999757 .35603334 .056991579 .27308656 .12399292 .2361145 .20698548 .21113587 .2519989 .19714356 .31498719 .17416382 .31498719 .10621643 .31498719 .055252077 .2749939 .023269654 .22200012 .023269654 .14099121 .023269654 .09599304 .082229617 .07598877 .16716004H.04699707L.056991579 .03627014C.09298706 .004272461 .1539917-.01171875 .21299744-.01171875 .33198548-.01171875 .3999939 .051254274 .3999939 .13618469 .3999939 .2241211 .34599305 .26409913 .24299622 .29606629 .20199585 .30906678 .13598633 .3300476 .13598633 .3860016 .13699341 .43795777 .17599488 .46694947 .22599793 .46694947 .29699708 .46694947 .33099366 .4119873 .33799745 .35102845H.36698915Z"/>
<path id="font_3_5" d="M.44099427 .2627716C.46199037 .2627716 .48098756 .2677765 .48098756 .30078126 .48098756 .35983277 .46199037 .5019531 .2789917 .5019531 .12298584 .5019531 .04899597 .39086915 .04899597 .24082947 .04899597 .08317566 .116989139-.01373291 .27999879-.01171875 .3909912-.010726929 .44799806 .050247194 .47499085 .1290741L.44499208 .14503479C.4169922 .08717346 .3789978 .039276124 .2999878 .039276124 .17599488 .039276124 .15098572 .15901184 .15299988 .2627716H.44099427M.1539917 .30078126C.1539917 .34181214 .16899109 .46694947 .272995 .46694947 .3659973 .46694947 .3769989 .37184144 .3769989 .33280946 .3769989 .31378175 .37098695 .30078126 .34298707 .30078126H.1539917Z"/>
<path id="font_3_1" d="M.1749878 .2822113C.1749878 .56832888 .2619934 .65437319 .32499696 .66737368V.6923828C.1499939 .685379 .10499573 .46829225 .10499573 .2822113 .10499573 .09614563 .1499939-.12094116 .32499696-.12792969V-.10293579C.2669983-.090927127 .1749878-.0059051516 .1749878 .2822113Z"/>
<path id="font_3_3" d="M.069992069-.140625C.11999512-.09362793 .19299317-.027633667 .19299317 .051361085 .19299317 .10636902 .1599884 .1423645 .125 .14137268 .09399414 .14137268 .07598877 .117370609 .07598877 .09136963 .07598877 .055374147 .10899353 .037368776 .10899353-.005630493 .10899353-.04663086 .08299255-.086639408 .050994874-.12162781L.069992069-.140625Z"/>
<path id="font_3_2" d="M.1749878 .2822113C.1749878-.0059051516 .08299255-.090927127 .024993897-.10293579V-.12792969C.19999695-.12094116 .24499512 .09614563 .24499512 .2822113 .24499512 .46829225 .19999695 .685379 .024993897 .6923828V.66737368C.08799744 .65437319 .1749878 .56832888 .1749878 .2822113Z"/>
</defs>
<path transform="matrix(1.00006,0,0,-1,3.9103699,101.296)" stroke-width=".3985" stroke-linecap="butt" stroke-miterlimit="10" stroke-linejoin="miter" fill="none" stroke="#cbcbcb" d="M78.60577 0V100.19867M134.75276 0V100.19867"/>
<path transform="matrix(1.00006,0,0,-1,3.9103699,101.296)" stroke-width=".3985" stroke-linecap="butt" stroke-miterlimit="10" stroke-linejoin="miter" fill="none" stroke="#cbcbcb" d="M0 39.10191H190.89975M0 75.75996H190.89975"/>
<path transform="matrix(1.00006,0,0,-1,3.9103699,101.296)" stroke-width=".19925" stroke-linecap="butt" stroke-miterlimit="10" stroke-linejoin="miter" fill="none" stroke="#929292" d="M78.60577 12.5373V16.78912M134.75276 12.5373V16.78912"/>
<path transform="matrix(1.00006,0,0,-1,3.9103699,101.296)" stroke-width=".19925" stroke-linecap="butt" stroke-miterlimit="10" stroke-linejoin="miter" fill="none" stroke="#929292" d="M20.33281 39.10191H24.58475M20.33281 75.75996H24.58475"/>
<path transform="matrix(1.00006,0,0,-1,3.9103699,101.296)" stroke-width=".99628" stroke-linecap="butt" stroke-miterlimit="10" stroke-linejoin="miter" fill="none" stroke="#000000" d="M0 14.66321H188.01053"/>
<path transform="matrix(1.00006,0,0,-1,191.93218,86.63279)" d="M2.8892 0-1.73352 2.31136 0 0-1.73352-2.31136"/>
<path transform="matrix(1.00006,0,0,-1,3.9103699,101.296)" stroke-width=".99628" stroke-linecap="butt" stroke-miterlimit="10" stroke-linejoin="miter" fill="none" stroke="#000000" d="M22.45879 0V97.30945"/>
<path transform="matrix(0,-1,-1.00006,-0,26.370507,3.9865494)" d="M2.8892 0-1.73352 2.31136 0 0-1.73352-2.31136"/>
<path transform="matrix(1.00006,0,0,-1,3.9103699,101.296)" d="M70.81073-2.45683H86.4008V12.03916H70.81073Z" fill="#ffffff"/>
<use data-text="t" xlink:href="#font_1_3" transform="matrix(10.037002,0,0,-10.0364,78.14283,98.642)"/>
<use data-text="k" xlink:href="#font_1_2" transform="matrix(7.6079566,0,0,-7.6075,81.89606,100.487)"/>
<path transform="matrix(1.00006,0,0,-1,3.9103699,101.296)" d="M122.203-2.45683H147.30252V12.03916H122.203Z" fill="#ffffff"/>
<use data-text="t" xlink:href="#font_1_3" transform="matrix(10.037002,0,0,-10.0364,129.53891,98.642)"/>
<use data-text="k" xlink:href="#font_1_2" transform="matrix(7.6079566,0,0,-7.6075,133.29215,100.487)"/>
<use data-text="+" xlink:href="#font_2_3" transform="matrix(7.6079566,0,0,-7.6075,138.01442,100.487)"/>
<use data-text="1" xlink:href="#font_3_4" transform="matrix(7.6079566,0,0,-7.6075,143.48874,100.487)"/>
<path transform="matrix(1.00006,0,0,-1,3.9103699,101.296)" d="M3.4919 32.18765H20.79473V46.016149H3.4919Z" fill="#ffffff"/>
<use data-text="y" xlink:href="#font_1_4" transform="matrix(10.037002,0,0,-10.0364,11.148804,63.442998)"/>
<use data-text="k" xlink:href="#font_1_2" transform="matrix(7.6079566,0,0,-7.6075,16.28711,65.287998)"/>
<path transform="matrix(1.00006,0,0,-1,3.9103699,101.296)" d="M-6.01753 68.8457H20.794739V82.6742H-6.01753Z" fill="#ffffff"/>
<use data-text="y" xlink:href="#font_1_4" transform="matrix(10.037002,0,0,-10.0364,1.638237,26.784996)"/>
<use data-text="k" xlink:href="#font_1_2" transform="matrix(7.6079566,0,0,-7.6075,6.7765429,28.629998)"/>
<use data-text="+" xlink:href="#font_2_3" transform="matrix(7.6079566,0,0,-7.6075,11.497826,28.629998)"/>
<use data-text="1" xlink:href="#font_3_4" transform="matrix(7.6079566,0,0,-7.6075,16.972153,28.629998)"/>
<g clip-path="url(#clip_4)">
<path transform="matrix(1.00006,0,0,-1,3.9103699,101.296)" stroke-width=".99628" stroke-linecap="butt" stroke-miterlimit="10" stroke-linejoin="miter" fill="none" stroke="#929292" d="M78.60577 39.10191V39.10191 74.92807"/>
<path transform="matrix(0,-1,-1.00006,-0,82.52085,26.367928)" stroke-width=".79701" stroke-linecap="round" stroke-linejoin="round" fill="none" stroke="#929292" d="M-1.73352 2.31136C-1.58905 1.4446 0 .14444 .43336 0 0-.14444-1.58905-1.4446-1.73352-2.31136"/>
<path transform="matrix(1.00006,0,0,-1,3.9103699,101.296)" d="M63.90826 48.04153H93.30328V66.82034H63.90826Z" fill="#ffffff"/>
<use data-text="h" xlink:href="#font_1_1" transform="matrix(10.037002,0,0,-10.0364,71.02239,45.934999)" fill="#929292"/>
<use data-text="&#x00b7;" xlink:href="#font_2_2" transform="matrix(10.037002,0,0,-10.0364,78.98888,45.934999)" fill="#929292"/>
<use data-text="y" xlink:href="#font_1_4" transform="matrix(10.037002,0,0,-10.0364,83.661159,45.934999)" fill="#929292"/>
<use data-text="&#x2032;" xlink:href="#font_2_1" transform="matrix(7.6079566,0,0,-7.6075,89.279499,41.975)" fill="#929292"/>
<use data-text="k" xlink:href="#font_1_2" transform="matrix(7.6079566,0,0,-7.6075,88.79946,49.988)" fill="#929292"/>
<path transform="matrix(1.00006,0,0,-1,3.9103699,101.296)" d="M78.60577 75.75996V75.75996H131.11351" fill="#ffffff"/>
<path transform="matrix(1.00006,0,0,-1,3.9103699,101.296)" stroke-width=".99628" stroke-linecap="butt" stroke-miterlimit="10" stroke-linejoin="miter" fill="none" stroke="#929292" d="M78.60577 75.75996V75.75996H131.11351"/>
<path transform="matrix(1.00006,0,0,-1,135.03174,25.536042)" stroke-width=".79701" stroke-linecap="round" stroke-linejoin="round" fill="none" stroke="#929292" d="M-1.73352 2.31136C-1.58905 1.4446 0 .14444 .43336 0 0-.14444-1.58905-1.4446-1.73352-2.31136"/>
<path transform="matrix(1.00006,0,0,-1,3.9103699,101.296)" d="M98.7595 68.76662H111.79167V82.75332H98.7595Z" fill="#ffffff"/>
<use data-text="h" xlink:href="#font_1_1" transform="matrix(10.037002,0,0,-10.0364,105.87548,29.241997)" fill="#929292"/>
<use data-text="r" xlink:href="#font_3_7" transform="matrix(0,-9.1656,-9.166149,-0,66.0871,51.372)" fill="#929292"/>
<use data-text="i" xlink:href="#font_3_6" transform="matrix(0,-9.1656,-9.166149,-0,66.0871,47.742425)" fill="#929292"/>
<use data-text="s" xlink:href="#font_3_8" transform="matrix(0,-9.1656,-9.166149,-0,66.0871,45.06607)" fill="#929292"/>
<use data-text="e" xlink:href="#font_3_5" transform="matrix(0,-9.1656,-9.166149,-0,66.0871,41.06987)" fill="#929292"/>
<use data-text="(" xlink:href="#font_3_1" transform="matrix(9.166149,0,0,-9.1656,83.82116,72.378)"/>
<use data-text="t" xlink:href="#font_1_3" transform="matrix(9.166149,0,0,-9.1656,87.22836,72.378)"/>
<use data-text="k" xlink:href="#font_1_2" transform="matrix(6.9663178,0,0,-6.9659,90.65657,74.076)"/>
<use data-text="," xlink:href="#font_3_3" transform="matrix(9.166149,0,0,-9.1656,95.47786,72.378)"/>
<use data-text="y" xlink:href="#font_1_4" transform="matrix(9.166149,0,0,-9.1656,99.381099,72.378)"/>
<use data-text="k" xlink:href="#font_1_2" transform="matrix(6.9663178,0,0,-6.9659,104.07437,74.076)"/>
<use data-text=")" xlink:href="#font_3_2" transform="matrix(9.166149,0,0,-9.1656,108.89566,72.378)"/>
<use data-text="(" xlink:href="#font_3_1" transform="matrix(9.166149,0,0,-9.1656,138.28243,35.72)"/>
<use data-text="t" xlink:href="#font_1_3" transform="matrix(9.166149,0,0,-9.1656,141.68964,35.72)"/>
<use data-text="k" xlink:href="#font_1_2" transform="matrix(6.9663178,0,0,-6.9659,145.11783,37.418)"/>
<use data-text="+" xlink:href="#font_2_3" transform="matrix(6.9663178,0,0,-6.9659,149.4411,37.418)"/>
<use data-text="1" xlink:href="#font_3_4" transform="matrix(6.9663178,0,0,-6.9659,154.4534,37.418)"/>
<use data-text="," xlink:href="#font_3_3" transform="matrix(9.166149,0,0,-9.1656,158.64664,35.72)"/>
<use data-text="y" xlink:href="#font_1_4" transform="matrix(9.166149,0,0,-9.1656,162.55088,35.72)"/>
<use data-text="k" xlink:href="#font_1_2" transform="matrix(6.9663178,0,0,-6.9659,167.24317,37.418)"/>
<use data-text="+" xlink:href="#font_2_3" transform="matrix(6.9663178,0,0,-6.9659,171.56642,37.418)"/>
<use data-text="1" xlink:href="#font_3_4" transform="matrix(6.9663178,0,0,-6.9659,176.57971,37.418)"/>
<use data-text=")" xlink:href="#font_3_2" transform="matrix(9.166149,0,0,-9.1656,180.77298,35.72)"/>
</g>
<path transform="matrix(1.00006,0,0,-1,3.9103699,101.296)" d="M80.59833 39.10191C80.59833 40.20238 79.70624 41.09447 78.60577 41.09447 77.50531 41.09447 76.61322 40.20238 76.61322 39.10191 76.61322 38.00143 77.50531 37.10936 78.60577 37.10936 79.70624 37.10936 80.59833 38.00143 80.59833 39.10191ZM78.60577 39.10191" fill="#0000cc"/>
<path transform="matrix(1.00006,0,0,-1,3.9103699,101.296)" stroke-width=".99628" stroke-linecap="butt" stroke-miterlimit="10" stroke-linejoin="miter" fill="none" stroke="#0000ff" d="M80.59833 39.10191C80.59833 40.20238 79.70624 41.09447 78.60577 41.09447 77.50531 41.09447 76.61322 40.20238 76.61322 39.10191 76.61322 38.00143 77.50531 37.10936 78.60577 37.10936 79.70624 37.10936 80.59833 38.00143 80.59833 39.10191ZM78.60577 39.10191"/>
<path transform="matrix(1.00006,0,0,-1,3.9103699,101.296)" d="M136.74532 75.75996C136.74532 76.86043 135.85323 77.75252 134.75276 77.75252 133.65229 77.75252 132.76021 76.86043 132.76021 75.75996 132.76021 74.6595 133.65229 73.76741 134.75276 73.76741 135.85323 73.76741 136.74532 74.6595 136.74532 75.75996ZM134.75276 75.75996" fill="#0000cc"/>
<path transform="matrix(1.00006,0,0,-1,3.9103699,101.296)" stroke-width=".99628" stroke-linecap="butt" stroke-miterlimit="10" stroke-linejoin="miter" fill="none" stroke="#0000ff" d="M136.74532 75.75996C136.74532 76.86043 135.85323 77.75252 134.75276 77.75252 133.65229 77.75252 132.76021 76.86043 132.76021 75.75996 132.76021 74.6595 133.65229 73.76741 134.75276 73.76741 135.85323 73.76741 136.74532 74.6595 136.74532 75.75996ZM134.75276 75.75996"/>
<path transform="matrix(1.00006,0,0,-1,3.9103699,101.296)" stroke-width=".99628" stroke-linecap="butt" stroke-miterlimit="10" stroke-linejoin="miter" fill="none" stroke="#0000ff" d=""/>
<use data-text="t" xlink:href="#font_1_3" transform="matrix(10.037002,0,0,-10.0364,186.62833,82.848)"/>
<use data-text="y" xlink:href="#font_1_4" transform="matrix(10.037002,0,0,-10.0364,30.614975,9.758995)"/>
</svg>
