<svg xmlns="http://www.w3.org/2000/svg" xmlns:xlink="http://www.w3.org/1999/xlink" version="1.1" width="9" height="139" viewBox="0 0 9 139">
<path transform="matrix(1.00003,0,0,-1.00005,4.4561464,69.23271)" stroke-width="1.19553" stroke-linecap="butt" stroke-miterlimit="10" stroke-linejoin="miter" fill="none" stroke="#000000" d="M0-68.03258V68.03258"/>
<path transform="matrix(1.00003,0,0,-1.00005,4.4561464,69.23271)" stroke-width="1.19553" stroke-linecap="butt" stroke-miterlimit="10" stroke-linejoin="miter" fill="none" stroke="#005959" d="M0 59.52802V56.33833"/>
<path transform="matrix(0,1.00005,1.00003,0,4.4561464,12.891567)" d="M3.18808 0-1.91284 2.55046 0 0-1.91284-2.55046" fill="#005959"/>
<path transform="matrix(1.00003,0,0,-1.00005,4.4561464,69.23271)" d="M2.98883 42.5202C2.98883 44.17091 1.6507 45.50903 0 45.50903-1.6507 45.50903-2.98883 44.17091-2.98883 42.5202-2.98883 40.86949-1.6507 39.53137 0 39.53137 1.6507 39.53137 2.98883 40.86949 2.98883 42.5202ZM0 42.5202"/>
<path transform="matrix(1.00003,0,0,-1.00005,4.4561464,69.23271)" stroke-width=".3985" stroke-linecap="butt" stroke-miterlimit="10" stroke-linejoin="miter" fill="none" stroke="#000000" d="M2.98883 42.5202C2.98883 44.17091 1.6507 45.50903 0 45.50903-1.6507 45.50903-2.98883 44.17091-2.98883 42.5202-2.98883 40.86949-1.6507 39.53137 0 39.53137 1.6507 39.53137 2.98883 40.86949 2.98883 42.5202ZM0 42.5202"/>
<path transform="matrix(1.00003,0,0,-1.00005,4.4561464,69.23271)" stroke-width="1.19553" stroke-linecap="butt" stroke-miterlimit="10" stroke-linejoin="miter" fill="none" stroke="#005959" d="M0 21.26009V24.44975"/>
<path transform="matrix(0,-1.00005,-1.00003,-0,4.4561464,44.78174)" d="M3.18808 0-1.91284 2.55046 0 0-1.91284-2.55046" fill="#005959"/>
<path transform="matrix(1.00003,0,0,-1.00005,4.4561464,69.23271)" d="M2.98883 0C2.98883 1.6507 1.6507 2.98883 0 2.98883-1.6507 2.98883-2.98883 1.6507-2.98883 0-2.98883-1.6507-1.6507-2.98883 0-2.98883 1.6507-2.98883 2.98883-1.6507 2.98883 0ZM0 0"/>
<path transform="matrix(1.00003,0,0,-1.00005,4.4561464,69.23271)" stroke-width=".3985" stroke-linecap="butt" stroke-miterlimit="10" stroke-linejoin="miter" fill="none" stroke="#000000" d="M2.98883 0C2.98883 1.6507 1.6507 2.98883 0 2.98883-1.6507 2.98883-2.98883 1.6507-2.98883 0-2.98883-1.6507-1.6507-2.98883 0-2.98883 1.6507-2.98883 2.98883-1.6507 2.98883 0ZM0 0"/>
<path transform="matrix(1.00003,0,0,-1.00005,4.4561464,69.23271)" stroke-width="1.19553" stroke-linecap="butt" stroke-miterlimit="10" stroke-linejoin="miter" fill="none" stroke="#005959" d="M0-21.26009V-24.44975"/>
<path transform="matrix(0,1.00005,1.00003,0,4.4561464,93.683689)" d="M3.18808 0-1.91284 2.55046 0 0-1.91284-2.55046" fill="#005959"/>
<path transform="matrix(1.00003,0,0,-1.00005,4.4561464,69.23271)" d="M2.98883-42.5202C2.98883-40.86949 1.6507-39.53137 0-39.53137-1.6507-39.53137-2.98883-40.86949-2.98883-42.5202-2.98883-44.17091-1.6507-45.50903 0-45.50903 1.6507-45.50903 2.98883-44.17091 2.98883-42.5202ZM0-42.5202"/>
<path transform="matrix(1.00003,0,0,-1.00005,4.4561464,69.23271)" stroke-width=".3985" stroke-linecap="butt" stroke-miterlimit="10" stroke-linejoin="miter" fill="none" stroke="#000000" d="M2.98883-42.5202C2.98883-40.86949 1.6507-39.53137 0-39.53137-1.6507-39.53137-2.98883-40.86949-2.98883-42.5202-2.98883-44.17091-1.6507-45.50903 0-45.50903 1.6507-45.50903 2.98883-44.17091 2.98883-42.5202ZM0-42.5202"/>
<path transform="matrix(1.00003,0,0,-1.00005,4.4561464,69.23271)" stroke-width="1.19553" stroke-linecap="butt" stroke-miterlimit="10" stroke-linejoin="miter" fill="none" stroke="#005959" d="M0-55.2764V-58.46606"/>
<path transform="matrix(0,1.00005,1.00003,0,4.4561464,127.70169)" d="M3.18808 0-1.91284 2.55046 0 0-1.91284-2.55046" fill="#005959"/>
</svg>
