<svg xmlns="http://www.w3.org/2000/svg" xmlns:xlink="http://www.w3.org/1999/xlink" version="1.1" width="97" height="46" viewBox="0 0 97 46">
<defs>
<path id="font_1_3" d="M.2999878 .17871094V.0769043C.2999878 .04296875 .2889862 .036987306 .2649994 .034988405L.20098877 .0289917V0H.46499635V.0289917L.41999818 .033981325C.39698792 .036987306 .3899994 .04296875 .3899994 .0769043V.17871094H.49299623V.22570801H.3899994V.66796877H.31698609C.22299195 .5298767 .11099243 .35577394 .018997193 .19970703L.027999878 .17871094H.2999878M.09098816 .22570801C.15098572 .33476258 .22099304 .4498291 .2979889 .5709076H.2999878V.22570801H.09098816Z"/>
<path id="font_1_4" d="M.2649994 .3380127C.34498597 .3380127 .3880005 .2700653 .3880005 .17915344 .3880005 .09121704 .34999085 .023269654 .2649994 .023269654 .18199158 .023269654 .14199829 .09121704 .14199829 .17915344 .14199829 .2700653 .18598938 .3380127 .2649994 .3380127M.2649994-.01171875C.4269867-.01171875 .48799134 .081222537 .48799134 .18214417 .48799134 .28405763 .42399598 .3420105 .35598756 .35801698V.36102296C.4169922 .37701417 .46598817 .427948 .46598817 .5098419 .46598817 .6187134 .3809967 .6796875 .2649994 .6796875 .15098572 .6796875 .06399536 .61772158 .06399536 .5098419 .06399536 .427948 .11399841 .37701417 .17399597 .36102296V.35801698C.10699463 .3420105 .041992189 .28405763 .041992189 .18214417 .041992189 .081222537 .101989749-.01171875 .2649994-.01171875M.2649994 .37402345C.19299317 .37402345 .16099549 .44392396 .16099549 .5118408 .16099549 .5887451 .19699097 .64468386 .2649994 .64468386 .33299256 .64468386 .36698915 .5887451 .36898805 .5118408 .36898805 .44392396 .33799745 .37402345 .2649994 .37402345Z"/>
<path id="font_2_1" d="M.42799378 .45222474 .43899537 .49023438H.31199647L.34599305 .6092224 .33399964 .6162262 .23699951 .53923037 .22399903 .49023438H.14299011L.13198853 .45222474H.21499634L.125 .08627319C.10998535 .029266358 .12199402-.01171875 .17199707-.01171875 .2519989-.01171875 .31599427 .054275514 .35598756 .1292572L.33399964 .1462555C.31098939 .10726929 .2599945 .040267946 .22898865 .040267946 .20799256 .040267946 .20799256 .0632782 .21398926 .088272098L.30299378 .45222474H.42799378Z"/>
<path id="font_1_2" d="M.43699647 0V.0289917L.35299684 .035995485C.33198548 .037994386 .31999208 .04598999 .31999208 .08496094V.67367556L.31498719 .6796875 .10899353 .6446991V.6197052L.20199585 .6087036C.21899414 .6067047 .22599793 .5987091 .22599793 .56973269V.08496094C.22599793 .065979007 .22299195 .053985597 .21699524 .04698181 .21199036 .039993287 .20399475 .036987306 .19299317 .035995485L.10899353 .0289917V0H.43699647Z"/>
<path id="font_1_7" d="M.3809967 .6720276C.5589905 .6720276 .59999087 .4931183 .60198977 .3461914 .59999087 .19924927 .5589905 .020339966 .3809967 .020339966 .20298767 .020339966 .1619873 .19924927 .1599884 .3461914 .1619873 .4931183 .20298767 .6720276 .3809967 .6720276M.3809967 .70703127C.2709961 .70703127 .18899536 .6730194 .1329956 .61006167 .07899475 .55007937 .04798889 .4591217 .04798889 .3461914 .04798889 .23423767 .07899475 .14228821 .1329956 .08232117 .18899536 .019348145 .2709961-.0146484379 .3809967-.0146484379 .49198915-.0146484379 .57299807 .019348145 .6289978 .08232117 .6839905 .14228821 .71398928 .23423767 .71398928 .3461914 .71398928 .4591217 .6839905 .55007937 .6289978 .61006167 .57299807 .6730194 .49198915 .70703127 .3809967 .70703127Z"/>
<path id="font_1_5" d="M.034988405 .6923828V.66337588C.12298584 .6573639 .125 .655365 .125 .5993347V.093048099C.125 .037002565 .12298584 .035003663 .034988405 .0289917V0H.32998658V.0289917C.22698975 .035003663 .22399903 .037002565 .22399903 .093048099V.32722474H.3639984C.44898988 .32722474 .45298768 .3032074 .46199037 .23916626H.49198915V.4532776H.46199037C.45298768 .38923646 .44898988 .36523438 .3639984 .36523438H.22399903V.62135317C.22399903 .65437319 .22799683 .65737918 .26098634 .65737918H.3600006C.47599793 .65737918 .49899293 .6343689 .5130005 .5323181H.54299929V.6923828H.034988405Z"/>
<path id="font_1_6" d="M.033996583 .6923828V.66337588C.12199402 .6573639 .12399292 .655365 .12399292 .5993347V.20309448C.12399292 .15007019 .12199402 .11204529 .116989139 .07902527 .11099243 .037002565 .08699036 .032989503 .034988405 .0289917V0H.27198792V.0289917C.20698548 .033996583 .18299866 .037002565 .1769867 .07902527 .17199707 .11204529 .16999817 .15007019 .16999817 .20309448V.6023407H.17199707C.31498719 .4012146 .45700074 .20109558 .59799197 0H.6639862V.48927308C.6639862 .54229739 .66600039 .58032229 .67099 .6133423 .6769867 .655365 .70098879 .6593628 .7529907 .66337588V.6923828H.5159912V.66337588C.58099368 .658371 .6049957 .655365 .61099246 .6133423 .6159973 .58032229 .6179962 .54229739 .6179962 .48927308V.13806153L.6159973 .14006043C.4850006 .32417298 .35499574 .5082855 .22599793 .6923828H.033996583Z"/>
<path id="font_1_1" d="M.2649994 .64468386C.3600006 .64468386 .3869934 .49682618 .3869934 .33398438 .3869934 .17112732 .3600006 .023269654 .2649994 .023269654 .16999817 .023269654 .14299011 .17112732 .14299011 .33398438 .14299011 .49682618 .16999817 .64468386 .2649994 .64468386M.2649994 .6796875C.099990848 .6796875 .040985109 .53378298 .040985109 .33398438 .040985109 .13417053 .099990848-.01171875 .2649994-.01171875 .42999269-.01171875 .4889984 .13417053 .4889984 .33398438 .4889984 .53378298 .42999269 .6796875 .2649994 .6796875Z"/>
</defs>
<path transform="matrix(1.00005,0,0,-1.00003,9.936844,30.34543)" d="M-8.50412-14.17339V28.3468H28.3468V-14.17339ZM28.3468 28.3468" fill="#d9d9ff"/>
<path transform="matrix(1.00005,0,0,-1.00003,9.936844,30.34543)" d="M28.3468-14.17339V28.3468H85.04042V-14.17339ZM85.04042 28.3468" fill="#d9f0d9"/>
<use data-text="4" xlink:href="#font_1_3" transform="matrix(9.166058,0,0,-9.165875,35.85414,39.881719)"/>
<use data-text="8" xlink:href="#font_1_4" transform="matrix(9.166058,0,0,-9.165875,64.20256,39.881719)"/>
<path transform="matrix(1.00005,0,0,-1.00003,9.936844,30.34543)" stroke-width=".3985" stroke-linecap="butt" stroke-miterlimit="10" stroke-linejoin="miter" fill="none" stroke="#000000" d="M-8.50412 0H84.58214"/>
<path transform="matrix(1.00005,0,0,-1.00003,94.52321,30.34543)" stroke-width=".31879" stroke-linecap="round" stroke-linejoin="round" fill="none" stroke="#000000" d="M-1.19551 1.59401C-1.09587 .99626 0 .09961 .29886 0 0-.09961-1.09587-.99626-1.19551-1.59401"/>
<path transform="matrix(1.00005,0,0,-1.00003,9.936844,30.34543)" stroke-width=".3985" stroke-linecap="butt" stroke-miterlimit="10" stroke-linejoin="miter" fill="none" stroke="#000000" d="M0-14.17339V27.88852"/>
<path transform="matrix(0,-1.00003,-1.00005,-0,9.936844,2.4560738)" stroke-width=".31879" stroke-linecap="round" stroke-linejoin="round" fill="none" stroke="#000000" d="M-1.19551 1.59401C-1.09587 .99626 0 .09961 .29886 0 0-.09961-1.09587-.99626-1.19551-1.59401"/>
<use data-text="t" xlink:href="#font_2_1" transform="matrix(9.166058,0,0,-9.165875,91.61092,39.393705)"/>
<path transform="matrix(1.00005,0,0,-1.00003,9.936844,30.34543)" stroke-width=".3985" stroke-linecap="butt" stroke-miterlimit="10" stroke-linejoin="miter" fill="none" stroke="#929292" d="M28.3468 1.4174V-1.4174"/>
<path transform="matrix(1.00005,0,0,-1.00003,9.936844,30.34543)" stroke-width=".79701" stroke-linecap="butt" stroke-dasharray="2.98883,2.98883" stroke-miterlimit="10" stroke-linejoin="miter" fill="none" stroke="#000000" d="M28.3468 0V28.3468"/>
<path transform="matrix(1.00005,0,0,-1.00003,9.936844,30.34543)" stroke-width=".3985" stroke-linecap="butt" stroke-miterlimit="10" stroke-linejoin="miter" fill="none" stroke="#929292" d="M56.69362 1.4174V-1.4174"/>
<path transform="matrix(1.00005,0,0,-1.00003,9.936844,30.34543)" stroke-width=".79701" stroke-linecap="butt" stroke-dasharray="2.98883,2.98883" stroke-miterlimit="10" stroke-linejoin="miter" fill="none" stroke="#000000" d="M56.69362 0V28.3468"/>
<path transform="matrix(1.00005,0,0,-1.00003,9.936844,30.34543)" stroke-width=".3985" stroke-linecap="butt" stroke-miterlimit="10" stroke-linejoin="miter" fill="none" stroke="#929292" d="M1.4174 14.17339H-1.4174"/>
<use data-text="1" xlink:href="#font_1_2" transform="matrix(9.166058,0,0,-9.165875,3.0934983,19.240097)"/>
<path transform="matrix(1.00005,0,0,-1.00003,9.936844,30.34543)" stroke-width="1.59404" stroke-linecap="butt" stroke-miterlimit="10" stroke-linejoin="miter" fill="none" stroke="#000000" d="M-7.29861 0H-8.14337-7.78264-7.4219-7.06117-6.70042-6.33969-5.97896-5.61823-5.25749-4.89674-4.53601-4.17528-3.81453-3.45381-3.09306-2.73232-2.3716-2.01085-1.65012-1.28938-.92865-.5679-.20717 .15353 .51428 .875 1.23575 1.59648 1.95721 2.31796 2.67868 3.03943 3.40018 3.7609 4.12164 4.48238 4.84311 5.20384 5.56459 5.92532 6.28606 6.6468 7.00752 7.36827 7.72902 8.08974 8.45049 8.81122 9.17195 9.5327 9.89342 10.25417 10.6149 10.97563 11.33636 11.69711 12.05785 12.41858 12.77933 13.14005 13.5008 13.86154 14.22226 14.58301 14.94374 15.30447 15.66522 16.02596 16.38669 16.74742 17.10817 17.46889 17.82964 18.19037 18.5511 18.91185 19.27257 19.63332 19.99406 20.35478 20.71553 21.07626 21.437 21.79774 22.15848 22.51921 22.87994 23.24069 23.60141 23.96216 24.3229 24.68362 25.04437 25.40509 25.76584 26.12659 26.4873 26.84805 27.20879"/>
<path transform="matrix(-1.00005,-0,0,1.00003,2.637869,30.34543)" stroke-width="1.27522" stroke-linecap="round" stroke-linejoin="round" fill="none" stroke="#000000" d="M-2.27148 3.02866C-2.0822 1.8929 0 .18927 .56786 0 0-.18927-2.0822-1.8929-2.27148-3.02866"/>
<path transform="matrix(1.00005,0,0,-1.00003,9.936844,30.34543)" stroke-width="1.59404" stroke-linecap="butt" stroke-miterlimit="10" stroke-linejoin="miter" fill="none" stroke="#000000" d="M28.3468 14.17339H28.91927 29.49173 30.06418 30.63664 31.20912 31.78159 32.35405 32.9265 33.49896 34.07144 34.6439 35.21637 35.78882 36.36128 36.93376 37.50623 38.07869 38.65114 39.2236 39.79608 40.36855 40.94101 41.51346 42.08592 42.6584 43.23087 43.80333 44.37578 44.94824 45.52072 46.09319 46.66565 47.2381 47.81058 48.38304 48.9555 49.52797 50.10042 50.6729 51.24536 51.81783 52.39027 52.96274 53.53522 54.10768 54.68015 55.2526 55.82506 56.39754 56.97 57.54247 58.11491 58.68738 59.25986 59.83232 60.40479 60.97723 61.5497 62.12218 62.69464 63.2671 63.83955 64.41202 64.9845 65.55696 66.12943 66.70187 67.27435 67.84682 68.41928 68.99174 69.5642 70.13667 70.70914 71.2816 71.85406 72.42651 72.999 73.57146 74.14392 74.71638 75.28883 75.86131 76.43378 77.00624 77.5787 78.15115 78.72363 79.2961 79.86856 80.44102 81.01347 81.58595 82.15842 82.73088 83.30334 83.8758 84.44827 83.81523"/>
<path transform="matrix(1.00005,0,0,-1.00003,93.75626,16.171616)" stroke-width="1.27522" stroke-linecap="round" stroke-linejoin="round" fill="none" stroke="#000000" d="M-2.27148 3.02866C-2.0822 1.8929 0 .18927 .56786 0 0-.18927-2.0822-1.8929-2.27148-3.02866"/>
<path transform="matrix(1.00005,0,0,-1.00003,9.936844,30.34543)" stroke-width="1.19553" stroke-linecap="butt" stroke-miterlimit="10" stroke-linejoin="miter" fill="none" stroke="#000000" d="M30.8375 0C30.8375 1.37558 29.72238 2.49069 28.3468 2.49069 26.97122 2.49069 25.85611 1.37558 25.85611 0 25.85611-1.37558 26.97122-2.49069 28.3468-2.49069 29.72238-2.49069 30.8375-1.37558 30.8375 0ZM28.3468 0"/>
<path transform="matrix(1.00005,0,0,-1.00003,9.936844,30.34543)" d="M30.8375 14.17339C30.8375 15.54897 29.72238 16.66408 28.3468 16.66408 26.97122 16.66408 25.85611 15.54897 25.85611 14.17339 25.85611 12.7978 26.97122 11.6827 28.3468 11.6827 29.72238 11.6827 30.8375 12.7978 30.8375 14.17339ZM28.3468 14.17339"/>
<use data-text="O" xlink:href="#font_1_7" transform="matrix(7.332866,0,0,-7.3327205,16.352166,41.37076)" fill="#0000ff"/>
<use data-text="F" xlink:href="#font_1_5" transform="matrix(7.332866,0,0,-7.3327205,21.939805,41.37076)" fill="#0000ff"/>
<use data-text="F" xlink:href="#font_1_5" transform="matrix(7.332866,0,0,-7.3327205,26.192872,41.37076)" fill="#0000ff"/>
<use data-text="O" xlink:href="#font_1_7" transform="matrix(7.332866,0,0,-7.3327205,46.803689,41.37076)" fill="#009900"/>
<use data-text="N" xlink:href="#font_1_6" transform="matrix(7.332866,0,0,-7.3327205,52.391328,41.37076)" fill="#009900"/>
<use data-text="O" xlink:href="#font_1_7" transform="matrix(7.332866,0,0,-7.3327205,75.1521,41.37076)" fill="#009900"/>
<use data-text="N" xlink:href="#font_1_6" transform="matrix(7.332866,0,0,-7.3327205,80.73974,41.37076)" fill="#009900"/>
<use data-text="0" xlink:href="#font_1_1" transform="matrix(9.166058,0,0,-9.165875,20.971398,26.896328)" fill="#0000ff"/>
<use data-text="1" xlink:href="#font_1_2" transform="matrix(9.166058,0,0,-9.165875,50.027849,12.772902)" fill="#009900"/>
<use data-text="1" xlink:href="#font_1_2" transform="matrix(9.166058,0,0,-9.165875,78.37626,12.772902)" fill="#009900"/>
</svg>
