<svg xmlns="http://www.w3.org/2000/svg" xmlns:xlink="http://www.w3.org/1999/xlink" version="1.1" width="163" height="144" viewBox="0 0 163 144">
<defs>
<path id="font_1_2" d="M.42799378 .45222474 .43899537 .49023438H.31199647L.34599305 .6092224 .33399964 .6162262 .23699951 .53923037 .22399903 .49023438H.14299011L.13198853 .45222474H.21499634L.125 .08627319C.10998535 .029266358 .12199402-.01171875 .17199707-.01171875 .2519989-.01171875 .31599427 .054275514 .35598756 .1292572L.33399964 .1462555C.31098939 .10726929 .2599945 .040267946 .22898865 .040267946 .20799256 .040267946 .20799256 .0632782 .21398926 .088272098L.30299378 .45222474H.42799378Z"/>
<path id="font_1_1" d="M.43199159 .49023438H.3019867L.32998658 .6031952C.34899903 .67918398 .36799623 .70718386 .3959961 .70718386 .4229889 .70718386 .44099427 .68518069 .46299745 .6371918 .46798707 .62719729 .47499085 .6201935 .48999024 .6201935 .5099945 .6201935 .5389862 .6391907 .5389862 .6641846 .5389862 .70718386 .4850006 .7421875 .4249878 .7421875 .3600006 .7421875 .31799317 .71517947 .2849884 .67318728 .2539978 .63420107 .23399353 .5802002 .21998596 .5272217L.20999146 .49023438H.12298584L.11199951 .45222474H.20098877L.084991458-.137146C.07299805-.19918823 .06298828-.2052002 .052993776-.2052002 .041992189-.2052002 .026992798-.19718933 0-.15615845-.007003784-.14616394-.014007568-.13415528-.027008057-.13415528-.04901123-.13415528-.072006229-.15916443-.072006229-.18418885-.071014408-.2171936-.028015137-.2421875 .018997193-.2421875 .11898804-.2421875 .16099549-.16116333 .20298767 .030960083L.29599 .45222474H.42199708L.43199159 .49023438Z"/>
<path id="font_2_1" d="M.1749878 .2822113C.1749878 .56832888 .2619934 .65437319 .32499696 .66737368V.6923828C.1499939 .685379 .10499573 .46829225 .10499573 .2822113 .10499573 .09614563 .1499939-.12094116 .32499696-.12792969V-.10293579C.2669983-.090927127 .1749878-.0059051516 .1749878 .2822113Z"/>
<path id="font_2_2" d="M.1749878 .2822113C.1749878-.0059051516 .08299255-.090927127 .024993897-.10293579V-.12792969C.19999695-.12094116 .24499512 .09614563 .24499512 .2822113 .24499512 .46829225 .19999695 .685379 .024993897 .6923828V.66737368C.08799744 .65437319 .1749878 .56832888 .1749878 .2822113Z"/>
<path id="font_2_3" d="M.07398987 .2861328V.21612549H.31900025V.2861328H.07398987Z"/>
<path id="font_2_5" d="M.43699647 0V.0289917L.35299684 .035995485C.33198548 .037994386 .31999208 .04598999 .31999208 .08496094V.67367556L.31498719 .6796875 .10899353 .6446991V.6197052L.20199585 .6087036C.21899414 .6067047 .22599793 .5987091 .22599793 .56973269V.08496094C.22599793 .065979007 .22299195 .053985597 .21699524 .04698181 .21199036 .039993287 .20399475 .036987306 .19299317 .035995485L.10899353 .0289917V0H.43699647Z"/>
<path id="font_2_4" d="M.2649994 .64468386C.3600006 .64468386 .3869934 .49682618 .3869934 .33398438 .3869934 .17112732 .3600006 .023269654 .2649994 .023269654 .16999817 .023269654 .14299011 .17112732 .14299011 .33398438 .14299011 .49682618 .16999817 .64468386 .2649994 .64468386M.2649994 .6796875C.099990848 .6796875 .040985109 .53378298 .040985109 .33398438 .040985109 .13417053 .099990848-.01171875 .2649994-.01171875 .42999269-.01171875 .4889984 .13417053 .4889984 .33398438 .4889984 .53378298 .42999269 .6796875 .2649994 .6796875Z"/>
<path id="font_2_6" d="M.4850006 .13195801 .45700074 .13696289C.43598939 .08299255 .41600038 .07598877 .37599183 .07598877H.11999512C.13598633 .1279602 .19499207 .19892884 .28799439 .2658844 .38398744 .33584596 .45799256 .38082887 .45799256 .49276734 .45799256 .63168337 .3659973 .6796875 .26098634 .6796875 .12399292 .6796875 .052993776 .5967102 .052993776 .54473879 .052993776 .51075747 .09098816 .49476625 .10798645 .49476625 .12599182 .49476625 .1329956 .50476077 .13699341 .5217438 .15299988 .5897064 .19198609 .64468386 .2539978 .64468386 .33099366 .64468386 .35299684 .5797119 .35299684 .50675967 .35299684 .3998108 .29899598 .33984376 .21199036 .26289369 .08898926 .15594483 .04598999 .08798218 .026992798 .009994507L.036987306 0H.45098878L.4850006 .13195801Z"/>
<path id="font_2_7" d="M.12998963 .3657837C.12998963 .3487854 .1349945 .33779908 .147995 .33779908 .1599884 .33779908 .18699646 .34777833 .23498535 .34777833 .31999208 .34777833 .36799623 .27090455 .36799623 .18403626 .36799623 .065216068 .30899049 .023269654 .23799134 .023269654 .17199707 .023269654 .1289978 .07319641 .10998535 .12911988 .10398865 .14808655 .09399414 .15707398 .07998657 .15707398 .06199646 .15707398 .026992798 .13809204 .026992798 .10215759 .026992798 .05921936 .09599304-.01171875 .23699951-.01171875 .38198854-.01171875 .47299195 .06121826 .47299195 .18902588 .47299195 .32281495 .35798646 .3627777 .30299378 .3677826V.3717804C.35699464 .38078309 .44400025 .4207611 .44400025 .5197296 .44400025 .6306915 .35699464 .6796875 .25 .6796875 .117996219 .6796875 .052993776 .60369876 .052993776 .5607147 .052993776 .5297241 .08799744 .51272585 .101989749 .51272585 .114990238 .51272585 .12298584 .5197296 .1269989 .5327301 .14898682 .60069277 .18699646 .64468386 .24299622 .64468386 .32199098 .64468386 .34098817 .57470706 .34098817 .51872256 .34098817 .4587555 .31999208 .38378907 .23498535 .38378907 .18699646 .38378907 .1599884 .39378358 .147995 .39378358 .1349945 .39378358 .12998963 .38378907 .12998963 .3657837Z"/>
<path id="font_2_8" d="M.2999878 .17871094V.0769043C.2999878 .04296875 .2889862 .036987306 .2649994 .034988405L.20098877 .0289917V0H.46499635V.0289917L.41999818 .033981325C.39698792 .036987306 .3899994 .04296875 .3899994 .0769043V.17871094H.49299623V.22570801H.3899994V.66796877H.31698609C.22299195 .5298767 .11099243 .35577394 .018997193 .19970703L.027999878 .17871094H.2999878M.09098816 .22570801C.15098572 .33476258 .22099304 .4498291 .2979889 .5709076H.2999878V.22570801H.09098816Z"/>
<path id="font_2_9" d="M.42599488 .5919647 .44999696 .6599579 .44499208 .66796877H.11099243L.100997928 .65896609 .08099365 .32388307 .10499573 .31188966C.14698792 .35983277 .18798828 .3828125 .24198914 .3828125 .30599977 .3828125 .37599183 .3358612 .37599183 .20404053 .37599183 .10116577 .33399964 .023269654 .24699402 .023269654 .1769867 .023269654 .14099121 .07420349 .12098694 .13113404 .115997318 .14611817 .10699463 .15510559 .09298706 .15510559 .07299805 .15510559 .039993287 .13513184 .039993287 .10217285 .039993287 .056228639 .10998535-.01171875 .23999024-.01171875 .40499879-.01171875 .47999574 .0881958 .47999574 .21502686 .47999574 .35484315 .3919983 .4268036 .272995 .4268036 .21798706 .4268036 .15899658 .4028015 .1269989 .3738098L.125 .37580873 .147995 .56292727C.15098572 .58795168 .1579895 .5919647 .1769867 .5919647H.42599488Z"/>
<path id="font_3_1" d="M.6349945 .07472229 .17298889 .28173829 .6349945 .48875428V.5517578L.084991458 .31674195V.24673462L.6349945 .01171875V.07472229Z"/>
</defs>
<path transform="matrix(1.00005,0,0,-1.00002,36.50908,86.153469)" d="M-34.01628-45.35506V68.0326H22.67752V-45.35506ZM22.67752 68.0326" fill="#f2f2ff"/>
<path transform="matrix(1.00005,0,0,-1.00002,36.50908,86.153469)" d="M22.67752-45.35506V68.0326H90.71013V-45.35506ZM90.71013 68.0326" fill="#f2fff2"/>
<path transform="matrix(1.00005,0,0,-1.00002,36.50908,86.153469)" d="M90.71013-45.35506V68.0326H124.72643V-45.35506ZM124.72643 68.0326" fill="#fff2f2"/>
<path transform="matrix(1.00005,0,0,-1.00002,36.50908,86.153469)" stroke-width=".3985" stroke-linecap="butt" stroke-miterlimit="10" stroke-linejoin="miter" fill="none" stroke="#000000" d="M-34.01628 0H119.73271"/>
<path transform="matrix(1.00005,0,0,-1.00002,156.24777,86.153469)" stroke-width=".31879" stroke-linecap="round" stroke-linejoin="round" fill="none" stroke="#000000" d="M-1.19551 1.59401C-1.09587 .99626 0 .09961 .29886 0 0-.09961-1.09587-.99626-1.19551-1.59401"/>
<use data-text="t" xlink:href="#font_1_2" transform="matrix(10.036901,0,0,-10.036601,154.56797,82.6674)"/>
<path transform="matrix(1.00005,0,0,-1.00002,36.50908,86.153469)" stroke-width=".3985" stroke-linecap="butt" stroke-miterlimit="10" stroke-linejoin="miter" fill="none" stroke="#000000" d="M0-56.69382V78.91307"/>
<path transform="matrix(0,-1.00002,-1.00005,-0,36.50908,7.2388155)" stroke-width=".31879" stroke-linecap="round" stroke-linejoin="round" fill="none" stroke="#000000" d="M-1.19551 1.59401C-1.09587 .99626 0 .09961 .29886 0 0-.09961-1.09587-.99626-1.19551-1.59401"/>
<use data-text="f" xlink:href="#font_1_1" transform="matrix(10.036901,0,0,-10.036601,15.764038,9.297928)"/>
<use data-text="(" xlink:href="#font_2_1" transform="matrix(10.036901,0,0,-10.036601,21.371315,9.297928)"/>
<use data-text="t" xlink:href="#font_1_2" transform="matrix(10.036901,0,0,-10.036601,25.102509,9.297928)"/>
<use data-text=")" xlink:href="#font_2_2" transform="matrix(10.036901,0,0,-10.036601,29.596734,9.297928)"/>
<path transform="matrix(1.00005,0,0,-1.00002,36.50908,86.153469)" stroke-width=".3985" stroke-linecap="butt" stroke-miterlimit="10" stroke-linejoin="miter" fill="none" stroke="#b5b5b5" d="M-22.67752 2.26787V-2.26787"/>
<use data-text="-" xlink:href="#font_2_3" transform="matrix(9.166058,0,0,-9.165783,9.600731,99.09073)"/>
<use data-text="1" xlink:href="#font_2_5" transform="matrix(9.166058,0,0,-9.165783,13.193825,99.09073)"/>
<path transform="matrix(1.00005,0,0,-1.00002,36.50908,86.153469)" stroke-width=".3985" stroke-linecap="butt" stroke-miterlimit="10" stroke-linejoin="miter" fill="none" stroke="#b5b5b5" d="M0 2.26787V-2.26787"/>
<use data-text="0" xlink:href="#font_2_4" transform="matrix(9.166058,0,0,-9.165783,34.077959,99.09073)"/>
<path transform="matrix(1.00005,0,0,-1.00002,36.50908,86.153469)" stroke-width=".3985" stroke-linecap="butt" stroke-miterlimit="10" stroke-linejoin="miter" fill="none" stroke="#b5b5b5" d="M22.67752 2.26787V-2.26787"/>
<use data-text="1" xlink:href="#font_2_5" transform="matrix(9.166058,0,0,-9.165783,56.757089,99.09073)"/>
<path transform="matrix(1.00005,0,0,-1.00002,36.50908,86.153469)" stroke-width=".3985" stroke-linecap="butt" stroke-miterlimit="10" stroke-linejoin="miter" fill="none" stroke="#b5b5b5" d="M45.35506 2.26787V-2.26787"/>
<use data-text="2" xlink:href="#font_2_6" transform="matrix(9.166058,0,0,-9.165783,79.43523,99.09073)"/>
<path transform="matrix(1.00005,0,0,-1.00002,36.50908,86.153469)" stroke-width=".3985" stroke-linecap="butt" stroke-miterlimit="10" stroke-linejoin="miter" fill="none" stroke="#b5b5b5" d="M68.0326 2.26787V-2.26787"/>
<use data-text="3" xlink:href="#font_2_7" transform="matrix(9.166058,0,0,-9.165783,102.11435,99.09073)"/>
<path transform="matrix(1.00005,0,0,-1.00002,36.50908,86.153469)" stroke-width=".3985" stroke-linecap="butt" stroke-miterlimit="10" stroke-linejoin="miter" fill="none" stroke="#b5b5b5" d="M90.71013 2.26787V-2.26787"/>
<use data-text="4" xlink:href="#font_2_8" transform="matrix(9.166058,0,0,-9.165783,124.79249,99.09073)"/>
<path transform="matrix(1.00005,0,0,-1.00002,36.50908,86.153469)" stroke-width=".3985" stroke-linecap="butt" stroke-miterlimit="10" stroke-linejoin="miter" fill="none" stroke="#b5b5b5" d="M113.38766 2.26787V-2.26787"/>
<use data-text="5" xlink:href="#font_2_9" transform="matrix(9.166058,0,0,-9.165783,147.47162,99.09073)"/>
<path transform="matrix(1.00005,0,0,-1.00002,36.50908,86.153469)" stroke-width=".3985" stroke-linecap="butt" stroke-miterlimit="10" stroke-linejoin="miter" fill="none" stroke="#b5b5b5" d="M2.26787-45.35506H-2.26787"/>
<use data-text="-" xlink:href="#font_2_3" transform="matrix(9.166058,0,0,-9.165783,21.249321,134.57843)"/>
<use data-text="2" xlink:href="#font_2_6" transform="matrix(9.166058,0,0,-9.165783,24.842415,134.57843)"/>
<path transform="matrix(1.00005,0,0,-1.00002,36.50908,86.153469)" stroke-width=".3985" stroke-linecap="butt" stroke-miterlimit="10" stroke-linejoin="miter" fill="none" stroke="#b5b5b5" d="M2.26787-22.67752H-2.26787"/>
<use data-text="-" xlink:href="#font_2_3" transform="matrix(9.166058,0,0,-9.165783,21.249321,111.89998)"/>
<use data-text="1" xlink:href="#font_2_5" transform="matrix(9.166058,0,0,-9.165783,24.842415,111.89998)"/>
<path transform="matrix(1.00005,0,0,-1.00002,36.50908,86.153469)" stroke-width=".3985" stroke-linecap="butt" stroke-miterlimit="10" stroke-linejoin="miter" fill="none" stroke="#b5b5b5" d="M2.26787 0H-2.26787"/>
<use data-text="0" xlink:href="#font_2_4" transform="matrix(9.166058,0,0,-9.165783,24.846497,89.197528)"/>
<path transform="matrix(1.00005,0,0,-1.00002,36.50908,86.153469)" stroke-width=".3985" stroke-linecap="butt" stroke-miterlimit="10" stroke-linejoin="miter" fill="none" stroke="#b5b5b5" d="M2.26787 22.67752H-2.26787"/>
<use data-text="1" xlink:href="#font_2_5" transform="matrix(9.166058,0,0,-9.165783,24.846497,66.544078)"/>
<path transform="matrix(1.00005,0,0,-1.00002,36.50908,86.153469)" stroke-width=".3985" stroke-linecap="butt" stroke-miterlimit="10" stroke-linejoin="miter" fill="none" stroke="#b5b5b5" d="M2.26787 45.35506H-2.26787"/>
<use data-text="2" xlink:href="#font_2_6" transform="matrix(9.166058,0,0,-9.165783,24.846497,43.86562)"/>
<path transform="matrix(1.00005,0,0,-1.00002,36.50908,86.153469)" stroke-width=".3985" stroke-linecap="butt" stroke-miterlimit="10" stroke-linejoin="miter" fill="none" stroke="#b5b5b5" d="M2.26787 68.0326H-2.26787"/>
<use data-text="3" xlink:href="#font_2_7" transform="matrix(9.166058,0,0,-9.165783,24.846497,21.163163)"/>
<path transform="matrix(1.00005,0,0,-1.00002,36.50908,86.153469)" stroke-width="1.19553" stroke-linecap="butt" stroke-miterlimit="10" stroke-linejoin="miter" fill="none" stroke="#0000ff" d="M-34.01628 51.02443-33.73738 50.19084-33.45847 49.36452-33.17957 48.5451-32.90068 47.73228-32.62177 46.92638-32.34286 46.12738-32.06398 45.33533-31.78506 44.55017-31.50616 43.7716-31.22728 43.0003-30.94836 42.23558-30.66946 41.47777-30.39055 40.72687-30.11166 39.98256-29.83275 39.24551-29.55385 38.51505-29.27496 37.79149-28.99606 37.07484-28.71715 36.36514-28.43826 35.66235-28.15935 34.96614-27.88045 34.27686-27.60155 33.59447-27.32265 32.919-27.04373 32.25049-26.76483 31.58853-26.48593 30.93382-26.20703 30.2857-25.92813 29.64452-25.64925 29.01024-25.37033 28.38287-25.09143 27.7621-24.81253 27.14825-24.53363 26.54164-24.25471 25.94162-23.97583 25.34818-23.69691 24.76201-23.41801 24.1824-23.13911 23.61008-22.86023 23.04431-22.58131 22.48547-22.30241 21.93321-22.02351 21.3882-21.74461 20.84978-21.4657 20.3186-21.18681 19.79404-20.90791 19.27635-20.629 18.76529-20.35011 18.26146-20.0712 17.7642-19.7923 17.27388-19.5134 16.79047-19.23451 16.314-18.9556 15.84442-18.6767 15.38142-18.3978 14.9257-18.1189 14.47656-17.83998 14.03433-17.5611 13.59868-17.28218 13.17029-17.00328 12.74883-16.72438 12.33394-16.4455 11.92596-16.16658 11.52492-15.88768 11.13043-15.60878 10.74323-15.32988 10.3626-15.05096 9.98921-14.77208 9.62242-14.49316 9.26256-14.21426 8.90926-13.93536 8.56323-13.65646 8.22375-13.37756 7.89124-13.09866 7.56561-12.81976 7.24692-12.54086 6.93513-12.26195 6.62994-11.98306 6.33167-11.70415 6.04065-11.42525 5.75587-11.14635 5.47835-10.86745 5.20775-10.58855 4.94374-10.30966 4.68663-10.03075 4.4368-9.75185 4.1932-9.47293 3.95685-9.19405 3.72743-8.91515 3.5046-8.63623 3.28867-8.35735 3.07965-8.07843 2.8776-7.79953 2.68242-7.52063 2.49384-7.24174 2.3125-6.96283 2.13777-6.68394 1.96994-6.40503 1.8087-6.12613 1.65471-5.84721 1.50763-5.56833 1.36716-5.28941 1.23358-5.01051 1.10693-4.73161 .98721-4.45271 .87405-4.1738 .76817-3.89493 .66887-3.61601 .57646-3.33711 .491-3.05821 .41211-2.77931 .34047-2.5004 .27542-2.2215 .21729-1.9426 .16608-1.6637 .1218-1.38478 .08441-1.1059 .05362-.827 .03009-.5481 .01312-.2692 .0031 .00966 0 .28857 .00345 .56747 .01416 .84637 .03148 1.12527 .0557 1.40419 .08682 1.68307 .1249 1.96199 .16953 2.24088 .22108 2.51978 .27992 2.79868 .34532 3.07759 .41763 3.35648 .49654 3.63539 .5827 3.91429 .67543 4.1932 .7751 4.47209 .88167 4.75099 .99518 5.0299 1.11559 5.30879 1.24257 5.58769 1.3765 5.86661 1.51733 6.1455 1.66508 6.42441 1.81976 6.70331 1.98135 6.9822 2.14952 7.26111 2.32462 7.54001 2.50664 7.81892 2.69556 8.09781 2.89142 8.37672 3.0942 8.65561 3.30354 8.93451 3.5198 9.21341 3.74301 9.49232 3.97311 9.77121 4.21014 10.05013 4.45377 10.32903 4.70428 10.60793 4.96207 10.88683 5.22644 11.16574 5.49738 11.44464 5.77559 11.72353 6.06038 12.00243 6.35243 12.28134 6.65106 12.56023 6.9566 12.83914 7.26872 13.11804 7.5881 13.39694 7.91406 13.67584 8.2473 13.95476 8.5871 14.23366 8.93349 14.51256 9.28712 14.79144 9.64769 15.07036 10.01483 15.34924 10.38889 15.62816 10.76988 15.90706 11.15778 16.18596 11.5526 16.46486 11.954 16.74377 12.3623 17.02266 12.7779 17.30156 13.1997 17.58047 13.62878 17.85938 14.06479 18.13826 14.50735 18.41718 14.95718 18.69608 15.41364 18.97496 15.8766 19.25388 16.34686 19.53278 16.82404 19.81168 17.3078 20.09058 17.79846 20.36949 18.29607 20.64838 18.80057 20.92729 19.31201 21.20618 19.83002 21.48509 20.35529"/>
<path transform="matrix(1.00005,0,0,-1.00002,36.50908,86.153469)" stroke-width="1.19553" stroke-linecap="butt" stroke-miterlimit="10" stroke-linejoin="miter" fill="none" stroke="#009900" d="M22.67752 68.0326 23.0135 67.6966 23.34952 67.36058 23.6855 67.0246 24.0215 66.6886 24.3575 66.3526 24.6935 66.0166 25.02948 65.6806 25.36548 65.34462 25.70149 65.0086 26.03749 64.6726 26.37347 64.33662 26.70947 64.00063 27.04547 63.66463 27.38145 63.32863 27.71747 62.99263 28.05347 62.65663 28.38947 62.32063 28.72546 61.98463 29.06145 61.64865 29.39746 61.31264 29.73343 60.97665 30.06944 60.64066 30.40544 60.30464 30.74144 59.96866 31.07742 59.63266 31.41342 59.29668 31.74944 58.96066 32.08542 58.62468 32.42142 58.28868 32.75742 57.95267 33.09343 57.61667 33.4294 57.28069 33.76541 56.94469 34.10141 56.60869 34.4374 56.2727 34.7734 55.93669 35.10939 55.6007 35.4454 55.26471 35.78137 54.92871 36.11739 54.59271 36.45338 54.2567 36.78937 53.92073 37.12538 53.58472 37.46138 53.24872 37.79736 52.91273 38.13336 52.57672 38.46936 52.24074 38.80536 51.90472 39.14136 51.56874 39.47736 51.23274 39.81335 50.89674 40.14934 50.56076 40.48534 50.22476 40.82135 49.88875 41.15733 49.55275 41.49333 49.21677 41.82933 48.88077 42.16533 48.54477 42.50133 48.20877 42.83731 47.87279 43.17332 47.53677 43.50932 47.20078 43.8453 46.86479 44.1813 46.52878 44.5173 46.1928 44.8533 45.8568 45.1893 45.5208 45.5253 45.1848 45.8613 44.8488 46.19728 44.51282 46.53328 44.1768 46.8693 43.8408 47.20528 43.50482 47.54128 43.16882 47.87729 42.83281 48.21326 42.49684 48.54927 42.16083 48.88525 41.82483 49.22127 41.48883 49.55725 41.15283 49.89325 40.81685 50.22926 40.48083 50.56523 40.14487 50.90125 39.80885 51.23724 39.47285 51.57324 39.13686 51.90923 38.80086 52.24524 38.46486 52.58122 38.12886 52.91722 37.79288 53.25322 37.45688 53.58922 37.12088 53.92523 36.78487 54.2612 36.44888 54.59721 36.11288 54.9332 35.77689 55.2692 35.4409 55.6052 35.10489 55.9412 34.7689 56.2772 34.43289 56.61319 34.09691 56.94919 33.76091 57.28519 33.4249 57.62117 33.08893 57.95717 32.75291 58.29318 32.41692 58.62918 32.08092 58.96516 31.74493 59.30116 31.40894 59.63716 31.07292 59.97316 30.73694 60.30914 30.40094 60.64516 30.06494 60.98114 29.72896 61.31714 29.39296 61.65315 29.05695 61.98914 28.72096 62.32513 28.38496 62.66113 28.04897 62.99713 27.71297 63.33311 27.37697 63.66911 27.04099 64.00513 26.70497 64.34113 26.36897 64.67711 26.03299 65.0131 25.69699 65.3491 25.361 65.68509 25.025 66.0211 24.689 66.3571 24.353 66.6931 24.017 67.0291 23.681 67.36508 23.34502 67.7011 23.009 68.03706 22.67302 68.37308 22.33702 68.70908 22.001 69.04507 21.66502 69.38107 21.32903 69.71706 20.99304 70.05307 20.65703 70.38905 20.32104 70.72505 19.98505 71.06105 19.64903 71.39706 19.31305 71.73305 18.97705 72.06905 18.64105 72.40504 18.30505 72.74103 17.96907 73.07704 17.63306 73.41302 17.29706 73.74902 16.96107 74.085 16.62508 74.42102 16.28908 74.75702 15.95306 75.093 15.6171 75.42902 15.28108 75.76501 14.94508 76.101 14.6091 76.437 14.27309 76.773 13.9371 77.109 13.60109 77.44499 13.2651 77.78099 12.92911 78.11699 12.59311 78.45297 12.25713 78.78897 11.92111 79.12498 11.58511 79.46097 11.24911 79.79697 10.91313 80.13297 10.57713 80.46896 10.24113 80.80496 9.90514 81.14095 9.56915 81.47696 9.23314 81.81296 8.89714 82.14894 8.56116 82.48494 8.22514 82.82094 7.88916 83.15694 7.55316 83.49294 7.21716 83.82893 6.88116 84.16493 6.54518 84.50092 6.20918 84.83691 5.87317 85.17293 5.53717 85.50891 5.20119 85.84491 4.86519 86.18092 4.52917 86.51689 4.1932 86.8529 3.8572 87.18889 3.5212 87.5249 3.1852 87.86089 2.8492 88.19688 2.51321 88.5329 2.1772 88.86887 1.84123 89.20488 1.50522 89.54088 1.16922"/>
<path transform="matrix(1.00005,0,0,-1.00002,36.50908,86.153469)" stroke-width="1.19553" stroke-linecap="butt" stroke-miterlimit="10" stroke-linejoin="miter" fill="none" stroke="#b30000" d="M90.71013-22.67752H90.88072 91.0513 91.2219 91.39249 91.5631 91.73369 91.90427 92.07486 92.24545 92.41606 92.58665 92.75723 92.92783 93.09843 93.26903 93.43962 93.6102 93.78079 93.9514 94.122 94.29259 94.46317 94.63377 94.80437 94.97496 95.14555 95.31613 95.48674 95.65733 95.82793 95.99852 96.16911 96.3397 96.5103 96.6809 96.85149 97.02208 97.19267 97.36327 97.53386 97.70447 97.87505 98.04564 98.21623 98.38683 98.55743 98.72801 98.8986 99.0692 99.23979 99.4104 99.58098 99.75157 99.92216 100.09277 100.26337 100.43396 100.60454 100.77513 100.94574 101.11633 101.28693 101.4575 101.62811 101.7987 101.9693 102.1399 102.31047 102.48108 102.65167 102.82227 102.99286 103.16345 103.33405 103.50464 103.67523 103.84583 104.01642 104.18703 104.3576 104.5282 104.6988 104.86938 105.04 105.21057 105.38116 105.55177 105.72235 105.89296 106.06354 106.23413 106.40474 106.57532 106.74593 106.9165 107.08711 107.2577 107.42828 107.59889 107.76947 107.94008 108.11067 108.28125 108.45186 108.62245 108.79305 108.96364 109.13422 109.30482 109.47542 109.64601 109.8166 109.98718 110.1578 110.32838 110.49898 110.66957 110.84015 111.01077 111.18135 111.35194 111.52254 111.69313 111.86374 112.03432 112.20491 112.3755 112.5461 112.7167 112.88728 113.05788 113.22849 113.39906 113.56967 113.74025 113.91084 114.08145 114.25203 114.42264 114.59322 114.76381 114.93442 115.105 115.2756 115.44618 115.61679 115.78738 115.95796 116.12857 116.29915 116.46976 116.64035 116.81093 116.98154 117.15213 117.32272 117.49332 117.66391 117.8345 118.00511 118.17569 118.34628 118.51688 118.68748 118.85808 119.02866 119.19925 119.36984 119.54045 119.71104 119.88162 120.05222 120.22282 120.39342 120.56401 120.73459 120.90518 121.07579 121.24638 121.41698 121.58755 121.75815 121.92876 122.09935 122.26994 122.44052 122.61113 122.78172 122.95232 123.12291 123.29349 123.4641 123.63469 123.80528 123.97588 124.14647 124.31706 124.48766 124.65825"/>
<path transform="matrix(1.00005,0,0,-1.00002,36.50908,86.153469)" stroke-width=".79701" stroke-linecap="butt" stroke-miterlimit="10" stroke-linejoin="miter" fill="none" stroke="#0000ff" d="M24.27156 22.67752C24.27156 23.55789 23.55789 24.27156 22.67752 24.27156 21.79713 24.27156 21.08347 23.55789 21.08347 22.67752 21.08347 21.79713 21.79713 21.08347 22.67752 21.08347 23.55789 21.08347 24.27156 21.79713 24.27156 22.67752ZM22.67752 22.67752"/>
<path transform="matrix(1.00005,0,0,-1.00002,36.50908,86.153469)" d="M24.27156 68.0326C24.27156 68.91296 23.55789 69.62663 22.67752 69.62663 21.79713 69.62663 21.08347 68.91296 21.08347 68.0326 21.08347 67.1522 21.79713 66.43854 22.67752 66.43854 23.55789 66.43854 24.27156 67.1522 24.27156 68.0326ZM22.67752 68.0326" fill="#009900"/>
<path transform="matrix(1.00005,0,0,-1.00002,36.50908,86.153469)" stroke-width=".79701" stroke-linecap="butt" stroke-miterlimit="10" stroke-linejoin="miter" fill="none" stroke="#009900" d="M92.30417 0C92.30417 .88037 91.5905 1.59404 90.71013 1.59404 89.82974 1.59404 89.11607 .88037 89.11607 0 89.11607-.88037 89.82974-1.59404 90.71013-1.59404 91.5905-1.59404 92.30417-.88037 92.30417 0ZM90.71013 0"/>
<path transform="matrix(1.00005,0,0,-1.00002,36.50908,86.153469)" d="M92.30417-22.67752C92.30417-21.79713 91.5905-21.08347 90.71013-21.08347 89.82974-21.08347 89.11607-21.79713 89.11607-22.67752 89.11607-23.55789 89.82974-24.27156 90.71013-24.27156 91.5905-24.27156 92.30417-23.55789 92.30417-22.67752ZM90.71013-22.67752" fill="#b30000"/>
<use data-text="t" xlink:href="#font_1_2" transform="matrix(10.036901,0,0,-10.036601,24.64048,124.713237)"/>
<use data-text="&#x003c;" xlink:href="#font_3_1" transform="matrix(10.036901,0,0,-10.036601,31.0018,124.713237)"/>
<use data-text="t" xlink:href="#font_1_2" transform="matrix(10.036901,0,0,-10.036601,40.309267,124.713237)"/>
<use data-text="1" xlink:href="#font_2_5" transform="matrix(7.60788,0,0,-7.6076529,44.062448,126.349269)"/>
<use data-text="t" xlink:href="#font_1_2" transform="matrix(9.166058,0,0,-9.165783,73.42792,124.51523)" fill="#929292"/>
<use data-text="1" xlink:href="#font_2_5" transform="matrix(6.966248,0,0,-6.9660398,76.85509,126.00926)" fill="#929292"/>
<use data-text="&#x003c;" xlink:href="#font_3_1" transform="matrix(9.166058,0,0,-9.165783,82.75339,124.51523)" fill="#929292"/>
<use data-text="t" xlink:href="#font_1_2" transform="matrix(9.166058,0,0,-9.165783,91.252819,124.51523)" fill="#929292"/>
<use data-text="&#x003c;" xlink:href="#font_3_1" transform="matrix(9.166058,0,0,-9.165783,97.0621,124.51523)" fill="#929292"/>
<use data-text="t" xlink:href="#font_1_2" transform="matrix(9.166058,0,0,-9.165783,105.56252,124.51523)" fill="#929292"/>
<use data-text="2" xlink:href="#font_2_6" transform="matrix(6.966248,0,0,-6.9660398,108.98969,126.00926)" fill="#929292"/>
<use data-text="t" xlink:href="#font_1_2" transform="matrix(10.036901,0,0,-10.036601,126.69457,124.713237)"/>
<use data-text="2" xlink:href="#font_2_6" transform="matrix(7.60788,0,0,-7.6076529,130.44776,126.349269)"/>
<use data-text="&#x003c;" xlink:href="#font_3_1" transform="matrix(10.036901,0,0,-10.036601,136.84809,124.713237)"/>
<use data-text="t" xlink:href="#font_1_2" transform="matrix(10.036901,0,0,-10.036601,146.15454,124.713237)"/>
</svg>
