<svg xmlns="http://www.w3.org/2000/svg" xmlns:xlink="http://www.w3.org/1999/xlink" version="1.1" width="207" height="64" viewBox="0 0 207 64">
<defs>
<path id="font_1_2" d="M.42799378 .45222474 .43899537 .49023438H.31199647L.34599305 .6092224 .33399964 .6162262 .23699951 .53923037 .22399903 .49023438H.14299011L.13198853 .45222474H.21499634L.125 .08627319C.10998535 .029266358 .12199402-.01171875 .17199707-.01171875 .2519989-.01171875 .31599427 .054275514 .35598756 .1292572L.33399964 .1462555C.31098939 .10726929 .2599945 .040267946 .22898865 .040267946 .20799256 .040267946 .20799256 .0632782 .21398926 .088272098L.30299378 .45222474H.42799378Z"/>
<path id="font_2_1" d="M.6349945 .2529297V.31092835H.084991458V.2529297H.6349945Z"/>
<path id="font_3_1" d="M.5239868 .14224243C.49798585 .09126282 .45799256 .039260866 .43598939 .039260866 .42399598 .039260866 .42099 .05126953 .42099 .06925964 .42099 .08026123 .42199708 .09326172 .42399598 .10624695L.49198915 .42520143H.57899478L.61898806 .5019531C.58999636 .49520875 .548996 .49121095 .5019989 .49121095H.21798706C.16699219 .49121095 .09700012 .46620179 .05899048 .4052124L.07499695 .38720704C.114990238 .41819764 .16699219 .42520143 .21998596 .42520143 .1769867 .24923706 .147995 .09225464 .09199524 .08226013 .066986087 .07826233 .034988405 .06225586 .034988405 .024261475 .034988405 .0012664795 .06599426-.01171875 .08099365-.01171875 .13398743-.01171875 .17098999 .054260255 .18899536 .09925842 .21199036 .15724182 .24699402 .28222657 .2769928 .42520143H.4019928L.33699037 .12324524C.33399964 .102249149 .33198548 .08325195 .33198548 .06726074 .33198548 .01626587 .34799195-.01171875 .38398744-.01171875 .45700074-.01171875 .5130005 .044265748 .5479889 .12825012L.5239868 .14224243Z"/>
<path id="font_4_6" d="M.4850006 .13195801 .45700074 .13696289C.43598939 .08299255 .41600038 .07598877 .37599183 .07598877H.11999512C.13598633 .1279602 .19499207 .19892884 .28799439 .2658844 .38398744 .33584596 .45799256 .38082887 .45799256 .49276734 .45799256 .63168337 .3659973 .6796875 .26098634 .6796875 .12399292 .6796875 .052993776 .5967102 .052993776 .54473879 .052993776 .51075747 .09098816 .49476625 .10798645 .49476625 .12599182 .49476625 .1329956 .50476077 .13699341 .5217438 .15299988 .5897064 .19198609 .64468386 .2539978 .64468386 .33099366 .64468386 .35299684 .5797119 .35299684 .50675967 .35299684 .3998108 .29899598 .33984376 .21199036 .26289369 .08898926 .15594483 .04598999 .08798218 .026992798 .009994507L.036987306 0H.45098878L.4850006 .13195801Z"/>
<path id="font_4_3" d="M.15899658-.0146484379 .36898805 .70703127H.3019867L.09199524-.0146484379H.15899658Z"/>
<path id="font_4_7" d="M.12998963 .3657837C.12998963 .3487854 .1349945 .33779908 .147995 .33779908 .1599884 .33779908 .18699646 .34777833 .23498535 .34777833 .31999208 .34777833 .36799623 .27090455 .36799623 .18403626 .36799623 .065216068 .30899049 .023269654 .23799134 .023269654 .17199707 .023269654 .1289978 .07319641 .10998535 .12911988 .10398865 .14808655 .09399414 .15707398 .07998657 .15707398 .06199646 .15707398 .026992798 .13809204 .026992798 .10215759 .026992798 .05921936 .09599304-.01171875 .23699951-.01171875 .38198854-.01171875 .47299195 .06121826 .47299195 .18902588 .47299195 .32281495 .35798646 .3627777 .30299378 .3677826V.3717804C.35699464 .38078309 .44400025 .4207611 .44400025 .5197296 .44400025 .6306915 .35699464 .6796875 .25 .6796875 .117996219 .6796875 .052993776 .60369876 .052993776 .5607147 .052993776 .5297241 .08799744 .51272585 .101989749 .51272585 .114990238 .51272585 .12298584 .5197296 .1269989 .5327301 .14898682 .60069277 .18699646 .64468386 .24299622 .64468386 .32199098 .64468386 .34098817 .57470706 .34098817 .51872256 .34098817 .4587555 .31999208 .38378907 .23498535 .38378907 .18699646 .38378907 .1599884 .39378358 .147995 .39378358 .1349945 .39378358 .12998963 .38378907 .12998963 .3657837Z"/>
<path id="font_4_8" d="M.42599488 .5919647 .44999696 .6599579 .44499208 .66796877H.11099243L.100997928 .65896609 .08099365 .32388307 .10499573 .31188966C.14698792 .35983277 .18798828 .3828125 .24198914 .3828125 .30599977 .3828125 .37599183 .3358612 .37599183 .20404053 .37599183 .10116577 .33399964 .023269654 .24699402 .023269654 .1769867 .023269654 .14099121 .07420349 .12098694 .13113404 .115997318 .14611817 .10699463 .15510559 .09298706 .15510559 .07299805 .15510559 .039993287 .13513184 .039993287 .10217285 .039993287 .056228639 .10998535-.01171875 .23999024-.01171875 .40499879-.01171875 .47999574 .0881958 .47999574 .21502686 .47999574 .35484315 .3919983 .4268036 .272995 .4268036 .21798706 .4268036 .15899658 .4028015 .1269989 .3738098L.125 .37580873 .147995 .56292727C.15098572 .58795168 .1579895 .5919647 .1769867 .5919647H.42599488Z"/>
<path id="font_4_5" d="M.43699647 0V.0289917L.35299684 .035995485C.33198548 .037994386 .31999208 .04598999 .31999208 .08496094V.67367556L.31498719 .6796875 .10899353 .6446991V.6197052L.20199585 .6087036C.21899414 .6067047 .22599793 .5987091 .22599793 .56973269V.08496094C.22599793 .065979007 .22299195 .053985597 .21699524 .04698181 .21199036 .039993287 .20399475 .036987306 .19299317 .035995485L.10899353 .0289917V0H.43699647Z"/>
<path id="font_1_1" d="M.33999635 .46694947C.36999513 .46694947 .41999818 .4519348 .41999818 .38290406 .41999818 .28987123 .37199403 .21484375 .29699708 .21484375 .24398804 .21484375 .21398926 .2508545 .21398926 .3008728 .21398926 .36390687 .24499512 .46694947 .33999635 .46694947M.45700074 .4719391C.43099977 .48895265 .38198854 .5019531 .33299256 .5019531 .16899109 .5019531 .11999512 .38891603 .11999512 .31788636 .11999512 .24385071 .17399597 .20584107 .20399475 .19483948V.19284058C.17298889 .17984009 .11299133 .15783692 .11299133 .11782837 .11299133 .08482361 .14299011 .061828615 .18399048 .04283142V.04081726C.115997318 .028823853 .02999878-.013183594 .02999878-.096191409 .02999878-.18519593 .12298584-.2421875 .25-.2421875 .3849945-.2421875 .49398805-.18519593 .49398805-.07518005 .49398805-.00018310547 .43699647 .05381775 .31900025 .081832889 .23498535 .1018219 .19799805 .11582947 .19799805 .14382935 .19799805 .16282654 .21798706 .1768341 .24198914 .18283081 .2619934 .17984009 .2809906 .17984009 .29599 .17984009 .43499757 .17984009 .5119934 .25585938 .5119934 .35890199 .5119934 .38591004 .5039978 .4109192 .4909973 .42793275L.57499697 .4399414 .60798647 .50294497 .60198977 .51194766 .45700074 .4719391M.27198792-.2071991C.18499756-.2071991 .12199402-.15919495 .12199402-.08718872 .12199402-.015182495 .18699646 .018829346 .22799683 .02482605 .29100038 .015823365 .40899659-.010177612 .40899659-.094192508 .40899659-.17019654 .34700013-.2071991 .27198792-.2071991Z"/>
<path id="font_4_1" d="M.1749878 .2822113C.1749878 .56832888 .2619934 .65437319 .32499696 .66737368V.6923828C.1499939 .685379 .10499573 .46829225 .10499573 .2822113 .10499573 .09614563 .1499939-.12094116 .32499696-.12792969V-.10293579C.2669983-.090927127 .1749878-.0059051516 .1749878 .2822113Z"/>
<path id="font_4_2" d="M.1749878 .2822113C.1749878-.0059051516 .08299255-.090927127 .024993897-.10293579V-.12792969C.19999695-.12094116 .24499512 .09614563 .24499512 .2822113 .24499512 .46829225 .19999695 .685379 .024993897 .6923828V.66737368C.08799744 .65437319 .1749878 .56832888 .1749878 .2822113Z"/>
<path id="font_2_2" d="M.6349945 .14315796V.20117188H.084991458V.14315796H.6349945M.6349945 .36288453V.42089845H.084991458V.36288453H.6349945Z"/>
<path id="font_4_4" d="M.2649994 .64468386C.3600006 .64468386 .3869934 .49682618 .3869934 .33398438 .3869934 .17112732 .3600006 .023269654 .2649994 .023269654 .16999817 .023269654 .14299011 .17112732 .14299011 .33398438 .14299011 .49682618 .16999817 .64468386 .2649994 .64468386M.2649994 .6796875C.099990848 .6796875 .040985109 .53378298 .040985109 .33398438 .040985109 .13417053 .099990848-.01171875 .2649994-.01171875 .42999269-.01171875 .4889984 .13417053 .4889984 .33398438 .4889984 .53378298 .42999269 .6796875 .2649994 .6796875Z"/>
<path id="font_4_11" d="M.36698915 .35102845V.46794129C.33399964 .49194337 .2829895 .5019531 .23799134 .5019531 .12998963 .5019531 .056991579 .45095826 .055999757 .35603334 .056991579 .27308656 .12399292 .2361145 .20698548 .21113587 .2519989 .19714356 .31498719 .17416382 .31498719 .10621643 .31498719 .055252077 .2749939 .023269654 .22200012 .023269654 .14099121 .023269654 .09599304 .082229617 .07598877 .16716004H.04699707L.056991579 .03627014C.09298706 .004272461 .1539917-.01171875 .21299744-.01171875 .33198548-.01171875 .3999939 .051254274 .3999939 .13618469 .3999939 .2241211 .34599305 .26409913 .24299622 .29606629 .20199585 .30906678 .13598633 .3300476 .13598633 .3860016 .13699341 .43795777 .17599488 .46694947 .22599793 .46694947 .29699708 .46694947 .33099366 .4119873 .33799745 .35102845H.36698915Z"/>
<path id="font_4_9" d="M.036987306 .47694398V.45195008L.07499695 .4469452C.100997928 .4429474 .10699463 .43795777 .10699463 .40194703V.08699036C.10699463 .035995485 .10398865 .033996583 .03199768 .0289917V0H.27598573V.0289917C.20498657 .033996583 .20098877 .035995485 .20098877 .08699036V.49609376L.19400025 .5020752 .036987306 .47694398M.15299988 .71484377C.116989139 .71484377 .09199524 .6888428 .09199524 .65283206 .09199524 .61782839 .116989139 .5928345 .15299988 .5928345 .18998719 .5928345 .21299744 .61782839 .21398926 .65283206 .21398926 .6888428 .18998719 .71484377 .15299988 .71484377Z"/>
<path id="font_4_10" d="M.5289917 .34295655C.5289917 .4439392 .47399903 .5019531 .38198854 .5019531 .30799867 .5019531 .2619934 .46594239 .19999695 .4259491L.18598938 .5019531 .036987306 .47694398V.45195008L.07499695 .4469452C.100997928 .4429474 .10699463 .4379425 .10699463 .40194703V.08699036C.10699463 .035995485 .10398865 .033996583 .03199768 .0289917V0H.27598573V.0289917C.20498657 .033996583 .20098877 .035995485 .20098877 .08699036V.32095338C.20098877 .34596253 .20298767 .35995484 .21099854 .37594605 .23199463 .4149475 .2769928 .44795228 .32998658 .44795228 .397995 .44795228 .43499757 .40994264 .43499757 .32295228V.08699036C.43499757 .035995485 .43199159 .033996583 .3600006 .0289917V0H.60398867V.0289917C.5329895 .033996583 .5289917 .035995485 .5289917 .08699036V.34295655Z"/>
</defs>
<path transform="matrix(1.00006,0,0,-1.00005,35.57621,32.41582)" d="M-34.0165-30.6149V30.6149H26.7163V-30.6149ZM26.7163 30.6149" fill="#d9d9ff"/>
<path transform="matrix(1.00006,0,0,-1.00005,35.57621,32.41582)" d="M26.7163-30.6149V30.6149H106.86581V-30.6149ZM106.86581 30.6149" fill="#d9f0d9"/>
<path transform="matrix(1.00006,0,0,-1.00005,35.57621,32.41582)" d="M106.86581-30.6149V30.6149H170.08257V-30.6149ZM170.08257 30.6149" fill="#d9d9ff"/>
<path transform="matrix(1.00006,0,0,-1.00005,35.57621,32.41582)" stroke-width=".19925" stroke-linecap="butt" stroke-dasharray="2.98883,2.98883" stroke-miterlimit="10" stroke-linejoin="miter" fill="none" stroke="#000000" d="M106.86581-30.6149V30.6149"/>
<path transform="matrix(1.00006,0,0,-1.00005,35.57621,32.41582)" stroke-width=".19925" stroke-linecap="butt" stroke-dasharray="2.98883,2.98883" stroke-miterlimit="10" stroke-linejoin="miter" fill="none" stroke="#000000" d="M26.7163-30.6149V30.6149"/>
<path transform="matrix(1.00006,0,0,-1.00005,35.57621,32.41582)" stroke-width=".3985" stroke-linecap="butt" stroke-miterlimit="10" stroke-linejoin="miter" fill="none" stroke="#000000" d="M-34.0165 0H169.6243"/>
<path transform="matrix(1.00006,0,0,-1.00005,205.2107,32.41582)" stroke-width=".31879" stroke-linecap="round" stroke-linejoin="round" fill="none" stroke="#000000" d="M-1.19551 1.59401C-1.09587 .99626 0 .09961 .29886 0 0-.09961-1.09587-.99626-1.19551-1.59401"/>
<path transform="matrix(1.00006,0,0,-1.00005,35.57621,32.41582)" stroke-width=".3985" stroke-linecap="butt" stroke-miterlimit="10" stroke-linejoin="miter" fill="none" stroke="#000000" d="M0-30.6149V30.15662"/>
<path transform="matrix(0,-1.00005,-1.00006,-0,35.57621,2.2576943)" stroke-width=".31879" stroke-linecap="round" stroke-linejoin="round" fill="none" stroke="#000000" d="M-1.19551 1.59401C-1.09587 .99626 0 .09961 .29886 0 0-.09961-1.09587-.99626-1.19551-1.59401"/>
<use data-text="t" xlink:href="#font_1_2" transform="matrix(9.166149,0,0,-9.166058,202.0152,41.46427)"/>
<path transform="matrix(1.00006,0,0,-1.00005,35.57621,32.41582)" stroke-width=".3985" stroke-linecap="butt" stroke-miterlimit="10" stroke-linejoin="miter" fill="none" stroke="#929292" d="M-26.7163 1.7933V-1.7933"/>
<use data-text="&#x2212;" xlink:href="#font_2_1" transform="matrix(9.166149,0,0,-9.166058,2.0932084,44.979448)"/>
<use data-text="&#x03c0;" xlink:href="#font_3_1" transform="matrix(6.9663178,0,0,-6.966248,9.883675,41.053255)"/>
<path transform="matrix(1.00006,0,0,-1.00005,-101.487,28.561629)" stroke-width=".5316" stroke-linecap="butt" stroke-miterlimit="10" stroke-linejoin="miter" fill="none" stroke="#000000" d="M111.364-13.836H115.907"/>
<use data-text="2" xlink:href="#font_4_6" transform="matrix(6.9663178,0,0,-6.966248,10.307709,48.41662)"/>
<path transform="matrix(1.00006,0,0,-1.00005,35.57621,32.41582)" stroke-width=".3985" stroke-linecap="butt" stroke-miterlimit="10" stroke-linejoin="miter" fill="none" stroke="#929292" d="M26.7163 1.7933V-1.7933"/>
<use data-text="&#x03c0;" xlink:href="#font_3_1" transform="matrix(5.9094545,0,0,-5.909395,57.147504,41.78929)"/>
<use data-text="/" xlink:href="#font_4_3" transform="matrix(10.99946,0,0,-10.99935,60.416707,45.39147)"/>
<use data-text="2" xlink:href="#font_4_6" transform="matrix(5.9094545,0,0,-5.909395,64.30493,45.39147)"/>
<path transform="matrix(1.00006,0,0,-1.00005,35.57621,32.41582)" stroke-width=".3985" stroke-linecap="butt" stroke-miterlimit="10" stroke-linejoin="miter" fill="none" stroke="#929292" d="M53.43289 1.7933V-1.7933"/>
<use data-text="&#x03c0;" xlink:href="#font_3_1" transform="matrix(9.166149,0,0,-9.166058,86.02324,42.141309)"/>
<path transform="matrix(1.00006,0,0,-1.00005,35.57621,32.41582)" stroke-width=".3985" stroke-linecap="butt" stroke-miterlimit="10" stroke-linejoin="miter" fill="none" stroke="#929292" d="M80.14922 1.7933V-1.7933"/>
<use data-text="3" xlink:href="#font_4_7" transform="matrix(5.9094545,0,0,-5.909395,109.01661,41.78929)"/>
<use data-text="&#x03c0;" xlink:href="#font_3_1" transform="matrix(5.9094545,0,0,-5.909395,112.1508,41.78929)"/>
<use data-text="/" xlink:href="#font_4_3" transform="matrix(10.99946,0,0,-10.99935,115.41999,45.39147)"/>
<use data-text="2" xlink:href="#font_4_6" transform="matrix(5.9094545,0,0,-5.909395,119.30823,45.39147)"/>
<path transform="matrix(1.00006,0,0,-1.00005,35.57621,32.41582)" stroke-width=".3985" stroke-linecap="butt" stroke-miterlimit="10" stroke-linejoin="miter" fill="none" stroke="#929292" d="M106.86581 1.7933V-1.7933"/>
<use data-text="2" xlink:href="#font_4_6" transform="matrix(9.166149,0,0,-9.166058,137.02829,43.745389)"/>
<use data-text="&#x03c0;" xlink:href="#font_3_1" transform="matrix(9.166149,0,0,-9.166058,141.88959,43.745389)"/>
<path transform="matrix(1.00006,0,0,-1.00005,35.57621,32.41582)" stroke-width=".3985" stroke-linecap="butt" stroke-miterlimit="10" stroke-linejoin="miter" fill="none" stroke="#929292" d="M133.58214 1.7933V-1.7933"/>
<use data-text="5" xlink:href="#font_4_8" transform="matrix(5.9094545,0,0,-5.909395,162.45282,41.78929)"/>
<use data-text="&#x03c0;" xlink:href="#font_3_1" transform="matrix(5.9094545,0,0,-5.909395,165.587,41.78929)"/>
<use data-text="/" xlink:href="#font_4_3" transform="matrix(10.99946,0,0,-10.99935,168.8562,45.39147)"/>
<use data-text="2" xlink:href="#font_4_6" transform="matrix(5.9094545,0,0,-5.909395,172.74445,45.39147)"/>
<path transform="matrix(1.00006,0,0,-1.00005,35.57621,32.41582)" stroke-width=".3985" stroke-linecap="butt" stroke-miterlimit="10" stroke-linejoin="miter" fill="none" stroke="#929292" d="M160.29872 1.7933V-1.7933"/>
<use data-text="3" xlink:href="#font_4_7" transform="matrix(9.166149,0,0,-9.166058,190.46451,43.745389)"/>
<use data-text="&#x03c0;" xlink:href="#font_3_1" transform="matrix(9.166149,0,0,-9.166058,195.32579,43.745389)"/>
<path transform="matrix(1.00006,0,0,-1.00005,35.57621,32.41582)" stroke-width=".3985" stroke-linecap="butt" stroke-miterlimit="10" stroke-linejoin="miter" fill="none" stroke="#929292" d="M17.00824 1.7933V-1.7933"/>
<path transform="matrix(1.00006,0,0,-1.00005,35.57621,32.41582)" stroke-width=".3985" stroke-linecap="butt" stroke-miterlimit="10" stroke-linejoin="miter" fill="none" stroke="#929292" d="M1.19554-17.00824H-1.19554"/>
<use data-text="&#x2212;" xlink:href="#font_2_1" transform="matrix(9.166149,0,0,-9.166058,19.523247,52.493825)"/>
<use data-text="1" xlink:href="#font_4_5" transform="matrix(9.166149,0,0,-9.166058,26.118645,52.493825)"/>
<path transform="matrix(1.00006,0,0,-1.00005,35.57621,32.41582)" stroke-width=".3985" stroke-linecap="butt" stroke-miterlimit="10" stroke-linejoin="miter" fill="none" stroke="#929292" d="M1.19554 17.00824H-1.19554"/>
<use data-text="1" xlink:href="#font_4_5" transform="matrix(9.166149,0,0,-9.166058,26.119645,18.475125)"/>
<path transform="matrix(1.00006,0,0,-1.00005,35.57621,32.41582)" stroke-width=".3985" stroke-linecap="butt" stroke-miterlimit="10" stroke-linejoin="miter" fill="none" stroke="#929292" d="M1.19554 17.00824H-1.19554"/>
<path transform="matrix(1.00006,0,0,-1.00005,35.57621,32.41582)" stroke-width="1.59404" stroke-linecap="butt" stroke-miterlimit="10" stroke-linejoin="miter" fill="none" stroke="#990000" d="M-34.0165 0H-33.72427-33.43205-33.13982-32.8476-32.55537-32.26315-31.97092-31.6787-31.38647-31.09424-30.80202-30.50978-30.21756-29.92532-29.63312-29.3409-29.04866-28.75644-28.46422-28.172-27.87976-27.58754-27.29532-27.00308-26.71086-26.41862-26.1264-25.83417-25.54196-25.24974-24.9575-24.66528-24.37305-24.08083-23.78859-23.49637-23.20415-22.91193-22.6197-22.32747-22.03525-21.74301-21.4508-21.15858-20.86635-20.57413-20.28189-19.98967-19.69743-19.40521-19.11299-18.82076-18.52855-18.23631-17.94409-17.65186-17.35965-17.06741-16.77519-16.48297-16.19073-15.89851-15.60628-15.31406-15.02182-14.7296-14.4374-14.14516-13.85294-13.5607-13.26848-12.97624-12.68402-12.3918-12.09956-11.80736-11.51512-11.2229-10.93066-10.63844-10.34624-10.054-9.76178-9.46954-9.17732-8.88509-8.59286-8.30064-8.0084-7.71619-7.42397-7.13174-6.83951-6.54729-6.25507-5.96283-5.67061-5.37837-5.08617-4.79393-4.50171-4.20949-3.91725-3.62503-3.33281-3.04059-2.74835-2.45613-2.16391-1.87167-1.57945-1.28722-.995-.70277-.41055-.11833 .17386 .46608 .75832 1.05054 1.34277 1.635 1.92722 2.21944 2.51166 2.8039 3.09612 3.38835 3.68057 3.97281 4.26503 4.55725 4.84947 5.1417 5.43393 5.72615 6.01839 6.3106 6.60281 6.89505 7.18727 7.4795 7.77173 8.06396 8.35619 8.6484 8.94064 9.23285 9.52509 9.8173 10.10954 10.40175 10.69397 10.9862 11.27843 11.57066 11.86288 12.15512 12.44734 12.73956 13.0318 13.324 13.61624 13.90846 14.2007 14.49292 14.78514 15.07738 15.3696 15.66183 15.95404 16.24628 16.5385 16.83072 17.12296 17.41516 17.7074 17.99962 18.29185 18.58408 18.8763 19.16853 19.46075 19.75299 20.04521 20.33743 20.62965 20.92188 21.21411 21.50632 21.79855 22.09077 22.38301 22.67523 22.96745 23.25969 23.55191 23.84415 24.13637"/>
<path transform="matrix(1.00006,0,0,-1.00005,35.57621,32.41582)" stroke-width="1.59404" stroke-linecap="butt" stroke-miterlimit="10" stroke-linejoin="miter" fill="none" stroke="#990000" d="M26.7163 17.00798 27.11028 17.00278 27.50423 16.98929 27.8982 16.96698 28.29213 16.93427 28.68611 16.89352 29.08006 16.84396 29.47403 16.78453 29.86797 16.71626 30.26195 16.63971 30.65591 16.55328 31.04987 16.45857 31.44383 16.35501 31.83778 16.24213 32.23175 16.12117 32.6257 15.99168 33.01967 15.85283 33.41362 15.70595 33.80759 15.55075 34.20154 15.38698 34.5955 15.21492 34.98946 15.03506 35.38342 14.84665 35.77737 14.65044 36.17134 14.44698 36.56529 14.23494 36.95926 14.01538 37.35321 13.78882 37.74718 13.55447 38.14113 13.31259 38.5351 13.06398 38.92905 12.80861 39.32301 12.54544 39.71696 12.27658 40.11093 12.00043 40.5049 11.71808 40.89885 11.42947 41.2928 11.13518 41.68677 10.83386 42.08073 10.52737 42.4747 10.21542 42.86864 9.89749 43.2626 9.5744 43.65657 9.24687 44.05054 8.91313 44.44449 8.57549 44.83844 8.23315 45.23242 7.88618 45.62637 7.53477 46.02032 7.17975 46.41429 6.82057 46.80826 6.45802 47.20221 6.09207 47.59618 5.72252 47.99013 5.3501 48.3841 4.97482 48.77805 4.59644 49.17201 4.21597 49.56596 3.83344 49.95993 3.44882 50.35388 3.06187 50.74785 2.67361 51.1418 2.28406 51.53577 1.8927 51.92972 1.50108 52.32368 1.10841 52.71764 .7147 53.1116 .32127 53.50555-.07239 53.89952-.46634 54.29347-.85979 54.68744-1.25298 55.08139-1.64539 55.47536-2.03726 55.86931-2.42758 56.26328-2.81662 56.65723-3.2046 57.0512-3.59052 57.44516-3.97435 57.83911-4.35638 58.23308-4.73607 58.62704-5.1134 59.021-5.48766 59.41495-5.85928 59.80893-6.22704 60.20288-6.5922 60.59683-6.95346 60.99078-7.3108 61.38477-7.6648 61.77872-8.01439 62.17268-8.3598 62.56662-8.70058 62.9606-9.03665 63.35455-9.36781 63.74852-9.69403 64.14246-10.01534 64.53644-10.3309 64.93039-10.64104 65.32436-10.94572 65.71829-11.24393 66.11227-11.53667 66.50623-11.82318 66.90019-12.10294 67.29414-12.37622 67.68811-12.64328 68.08206-12.90332 68.47603-13.1561 68.86998-13.40291 69.26395-13.64168 69.6579-13.87291 70.05186-14.09767 70.44582-14.31358 70.83978-14.5225 71.23375-14.72415 71.6277-14.91698 72.02167-15.10202 72.41562-15.27927 72.80959-15.44797 73.20354-15.60863 73.5975-15.76122 73.99146-15.90472 74.38542-16.03995 74.77939-16.16711 75.17334-16.28442 75.56729-16.39368 75.96126-16.4949 76.35522-16.58598 76.74918-16.66852 77.14313-16.74274 77.5371-16.80736 77.93106-16.86292 78.32503-16.90988 78.71896-16.94751 79.11293-16.9758 79.5069-16.99551 79.90086-17.0059 80.2948-17.00693 80.68878-16.99916 81.08273-16.98203 81.4767-16.95557 81.87064-16.9205 82.26462-16.87666 82.65857-16.82268 83.05254-16.76039 83.44649-16.68929 83.84045-16.6083 84.2344-16.51956 84.62837-16.42146 85.02234-16.31401 85.41629-16.19852 85.81026-16.07474 86.20421-15.94107 86.59818-15.79962 86.99213-15.64989 87.3861-15.4908 87.78004-15.32417 88.17401-15.14977 88.56796-14.9663 88.96193-14.77528 89.35588-14.57649 89.74985-14.36938 90.1438-14.15477 90.53777-13.93312 90.93172-13.70291 91.32568-13.46573 91.71964-13.22176 92.1136-12.97028 92.50755-12.71179 92.90152-12.44734 93.29547-12.17537 93.68944-11.8969 94.0834-11.61244 94.47737-11.32126 94.8713-11.02411 95.26527-10.7215 95.65924-10.41264 96.0532-10.09837 96.44714-9.77914 96.84111-9.45396 97.23508-9.12386 97.62904-8.78934 98.023-8.44962 98.41695-8.10521 98.81093-7.75694 99.20488-7.40424 99.59885-7.04764 99.9928-6.68744 100.38676-6.32332 100.78072-5.95584 101.17468-5.5855 101.56863-5.21176 101.9626-4.8352 102.35655-4.45654 102.75052-4.07504 103.14447-3.69173 103.53844-3.30608 103.93239-2.91861 104.32635-2.52983 104.7203-2.13976 105.11427-1.7484"/>
<path transform="matrix(1.00006,0,0,-1.00005,35.57621,32.41582)" stroke-width="1.59404" stroke-linecap="butt" stroke-miterlimit="10" stroke-linejoin="miter" fill="none" stroke="#990000" d="M106.86581 0H107.18347 107.50113 107.81877 108.13644 108.4541 108.77176 109.08942 109.40707 109.72475 110.0424 110.36006 110.6777 110.99538 111.31305 111.63069 111.94835 112.266 112.58366 112.90134 113.219 113.53665 113.85431 114.17195 114.48962 114.80728 115.12495 115.4426 115.76025 116.07793 116.39558 116.71324 117.0309 117.34856 117.66623 117.98387 118.30153 118.61919 118.93684 119.25452 119.57217 119.88983 120.20749 120.52515 120.8428 121.16048 121.47813 121.79578 122.11343 122.4311 122.74876 123.06642 123.38408 123.70174 124.01941 124.33707 124.65471 124.97238 125.29004 125.6077 125.92535 126.24301 126.56067 126.87833 127.196 127.51366 127.83131 128.14896 128.46663 128.78429 129.10195 129.4196 129.73726 130.05493 130.37259 130.69025 131.0079 131.32556 131.64324 131.96088 132.27854 132.59619 132.91385 133.23152 133.54918 133.86684 134.1845 134.50215 134.81981 135.13748 135.45514 135.77278 136.09044 136.40811 136.72577 137.04343 137.36109 137.67874 137.99642 138.31406 138.63172 138.94937 139.26703 139.5847 139.90236 140.22002 140.53768 140.85533 141.173 141.49066 141.80832 142.12596 142.44362 142.76129 143.07895 143.3966 143.71427 144.03192 144.3496 144.66725 144.9849 145.30257 145.62023 145.93788 146.25554 146.5732 146.89086 147.20851 147.52619 147.84384 148.1615 148.47914 148.7968 149.11449 149.43213 149.74979 150.06745 150.3851 150.70278 151.02043 151.33809 151.65575 151.9734 152.29106 152.60872 152.92638 153.24404 153.56169 153.87937 154.19702 154.51468 154.83234 155.15 155.46767 155.78533 156.10297 156.42063 156.73828 157.05596 157.37361 157.69127 158.00893 158.32659 158.64424 158.9619 159.27957 159.59722 159.91487 160.23255 160.5502 160.86786 161.18552 161.50318 161.82085 162.1385 162.45615 162.7738 163.09146 163.40914 163.72679 164.04445 164.3621 164.67977 164.99744 165.3151 165.63275 165.95041 166.26805 166.58573 166.90338 167.22104 167.5387 167.85636 168.17403 168.49169 168.80933 169.12699 169.44466 169.76232 170.07997"/>
<path transform="matrix(1.00006,0,0,-1.00005,35.57621,32.41582)" stroke-width="1.19553" stroke-linecap="butt" stroke-miterlimit="10" stroke-linejoin="miter" fill="none" stroke="#990000" d="M29.10739 0C29.10739 1.32056 28.03687 2.39108 26.7163 2.39108 25.39574 2.39108 24.32521 1.32056 24.32521 0 24.32521-1.32056 25.39574-2.39108 26.7163-2.39108 28.03687-2.39108 29.10739-1.32056 29.10739 0ZM26.7163 0"/>
<path transform="matrix(1.00006,0,0,-1.00005,35.57621,32.41582)" d="M29.10739 17.00798C29.10739 18.32855 28.03687 19.39906 26.7163 19.39906 25.39574 19.39906 24.32521 18.32855 24.32521 17.00798 24.32521 15.68741 25.39574 14.6169 26.7163 14.6169 28.03687 14.6169 29.10739 15.68741 29.10739 17.00798ZM26.7163 17.00798" fill="#990000"/>
<path transform="matrix(1.00006,0,0,-1.00005,35.57621,32.41582)" d="M109.2569 0C109.2569 1.32056 108.18637 2.39108 106.86581 2.39108 105.54524 2.39108 104.47472 1.32056 104.47472 0 104.47472-1.32056 105.54524-2.39108 106.86581-2.39108 108.18637-2.39108 109.2569-1.32056 109.2569 0ZM106.86581 0" fill="#990000"/>
<path transform="matrix(1.00006,0,0,-1.00005,35.57621,32.41582)" stroke-width="1.19553" stroke-linecap="butt" stroke-miterlimit="10" stroke-linejoin="miter" fill="none" stroke="#990000" d="M109.2569 0C109.2569 1.32056 108.18637 2.39108 106.86581 2.39108 105.54524 2.39108 104.47472 1.32056 104.47472 0 104.47472-1.32056 105.54524-2.39108 106.86581-2.39108 108.18637-2.39108 109.2569-1.32056 109.2569 0ZM106.86581 0"/>
<use data-text="g" xlink:href="#font_1_1" transform="matrix(9.166149,0,0,-9.166058,16.357064,26.764538)" fill="#0000ff"/>
<use data-text="(" xlink:href="#font_4_1" transform="matrix(9.166149,0,0,-9.166058,22.105408,26.764538)" fill="#0000ff"/>
<use data-text="t" xlink:href="#font_1_2" transform="matrix(9.166149,0,0,-9.166058,25.512612,26.764538)" fill="#0000ff"/>
<use data-text=")" xlink:href="#font_4_2" transform="matrix(9.166149,0,0,-9.166058,29.617859,26.764538)" fill="#0000ff"/>
<use data-text="=" xlink:href="#font_2_2" transform="matrix(9.166149,0,0,-9.166058,34.53115,26.764538)" fill="#0000ff"/>
<use data-text="0" xlink:href="#font_4_4" transform="matrix(9.166149,0,0,-9.166058,42.83165,26.764538)" fill="#0000ff"/>
<use data-text="g" xlink:href="#font_1_1" transform="matrix(9.166149,0,0,-9.166058,80.42691,11.684786)" fill="#990000"/>
<use data-text="(" xlink:href="#font_4_1" transform="matrix(9.166149,0,0,-9.166058,86.17525,11.684786)" fill="#990000"/>
<use data-text="t" xlink:href="#font_1_2" transform="matrix(9.166149,0,0,-9.166058,89.58246,11.684786)" fill="#990000"/>
<use data-text=")" xlink:href="#font_4_2" transform="matrix(9.166149,0,0,-9.166058,93.6877,11.684786)" fill="#990000"/>
<use data-text="=" xlink:href="#font_2_2" transform="matrix(9.166149,0,0,-9.166058,98.601,11.684786)" fill="#990000"/>
<use data-text="s" xlink:href="#font_4_11" transform="matrix(9.166149,0,0,-9.166058,106.90149,11.684786)" fill="#990000"/>
<use data-text="i" xlink:href="#font_4_9" transform="matrix(9.166149,0,0,-9.166058,110.897937,11.684786)" fill="#990000"/>
<use data-text="n" xlink:href="#font_4_10" transform="matrix(9.166149,0,0,-9.166058,113.56528,11.684786)" fill="#990000"/>
<use data-text="t" xlink:href="#font_1_2" transform="matrix(9.166149,0,0,-9.166058,120.4093,11.684786)" fill="#990000"/>
<use data-text="g" xlink:href="#font_1_1" transform="matrix(9.166149,0,0,-9.166058,158.4896,26.764538)" fill="#0000ff"/>
<use data-text="(" xlink:href="#font_4_1" transform="matrix(9.166149,0,0,-9.166058,164.23793,26.764538)" fill="#0000ff"/>
<use data-text="t" xlink:href="#font_1_2" transform="matrix(9.166149,0,0,-9.166058,167.64514,26.764538)" fill="#0000ff"/>
<use data-text=")" xlink:href="#font_4_2" transform="matrix(9.166149,0,0,-9.166058,171.75038,26.764538)" fill="#0000ff"/>
<use data-text="=" xlink:href="#font_2_2" transform="matrix(9.166149,0,0,-9.166058,176.66367,26.764538)" fill="#0000ff"/>
<use data-text="0" xlink:href="#font_4_4" transform="matrix(9.166149,0,0,-9.166058,184.96417,26.764538)" fill="#0000ff"/>
</svg>
