<svg xmlns="http://www.w3.org/2000/svg" xmlns:xlink="http://www.w3.org/1999/xlink" version="1.1" width="109" height="96" viewBox="0 0 109 96">
<defs>
<path id="font_1_1" d="M.17098999 .112213138C.17098999 .22013855 .2579956 .46694947 .41799928 .46694947 .44898988 .46694947 .47499085 .45794679 .4869995 .44696046 .47200013 .37002564 .43899537 .27609254 .3880005 .19316101 .33999635 .115219119 .27398683 .040267946 .22099304 .040267946 .18899536 .040267946 .17098999 .06724548 .17098999 .112213138M.46398927 .71824648 .45799256 .6953125 .5179901 .68930056C.5419922 .6872864 .5439911 .6802826 .5359955 .6482239L.49798585 .48693849 .49598695 .48493959C.47698976 .49494935 .44599916 .5019531 .4119873 .5019531 .1789856 .5019531 .07199097 .24111939 .07199097 .12020874 .07199097 .055267335 .09098816-.01171875 .17199707-.01171875 .2869873-.01171875 .37599183 .11122131 .43499757 .21813965H.43699647L.4039917 .099227908C.38398744 .028274537 .39898683-.01272583 .44999696-.01171875 .522995-.01171875 .57899478 .056259157 .61299136 .13220215L.58898928 .14619446C.57099917 .11122131 .5269928 .040267946 .49899293 .040267946 .47898866 .040267946 .48098756 .06326294 .4889984 .0952301L.6469879 .7371979 .6419983 .7421875 .46398927 .71824648Z"/>
<path id="font_1_4" d="M.070999149 .45393373 .07398987 .42893983 .14199829 .43093873C.1639862 .43193055 .16899109 .41493226 .1769867 .36291505 .18798828 .28489686 .20999146 .09286499 .20999146 .0128479 .20999146-.017166138 .20799256-.058166505 .18598938-.11117554 .16799927-.15318299 .14199829-.18218994 .12199402-.18218994 .10699463-.18218994 .09599304-.17118836 .08099365-.15118408 .068984989-.13517761 .06098938-.127182 .04598999-.127182 .019989014-.12818909-.005004883-.15818787-.005004883-.18719483-.005004883-.21418762 .023986817-.2421875 .067993167-.2421875 .15299988-.2421875 .18998719-.17919922 .27799989-.027160645 .2979889 .0068511965 .35798646 .11286926 .41999818 .21488953 .47698976 .30891419 .5399933 .40592958 .5399933 .4459381 .5399933 .48094178 .5289917 .5019531 .5219879 .5019531 .5029907 .5019531 .46899415 .49394227 .44400025 .47694398 .44499208 .4419403 .44299317 .3809204 .43099977 .33891297 .4149933 .28289796 .35598756 .17488098 .2899933 .06085205H.2869873C.27999879 .21388245 .26098634 .42492677 .24699402 .49795533L.23899842 .5019531 .070999149 .45393373Z"/>
<path id="font_1_3" d="M.5069885 .1381836C.48298646 .0932312 .45599366 .040267946 .42799378 .040267946 .40899659 .040267946 .40098573 .06324768 .3789978 .1521759L.34700013 .2830658C.3829956 .34701539 .43399049 .42694093 .46299745 .42694093 .47200013 .42694093 .47999574 .42494203 .4909973 .4189453 .5009918 .4149475 .5109863 .4109497 .522995 .4109497 .54499819 .4109497 .56599429 .4319458 .56599429 .4589386 .56599429 .48994447 .54299929 .5019531 .5149994 .5019531 .46199037 .5019531 .4169922 .45394898 .38198854 .39796449L.33799745 .33003236H.33599855L.29599 .49794007 .2899933 .5019531 .125 .45195008 .12799073 .427948 .20298767 .43295289C.22099304 .4339447 .22799683 .42893983 .23899842 .38298036L.2749939 .2381134 .24699402 .19015503C.20399475 .11723328 .16699219 .0652771 .14299011 .0652771 .1329956 .0652771 .12298584 .0692749 .11399841 .07426453 .10398865 .07926941 .09098816 .089279178 .07398987 .089279178 .04798889 .089279178 .0309906 .0632782 .0309906 .039276124 .0309906 .010269165 .054992677-.01171875 .09498596-.01171875 .16299439-.01171875 .20199585 .056259157 .24299622 .12319946L.2829895 .18914795H.2849884L.30299378 .111206058C.32199098 .031280519 .34098817-.01171875 .3919983-.01171875 .46499635-.01171875 .5029907 .06324768 .5329895 .12420654L.5069885 .1381836Z"/>
<path id="font_2_1" d="M.07998657 .28173829C.07998657 .24674988 .10798645 .21875 .14299011 .21875 .17799378 .21875 .20599365 .24674988 .20599365 .28173829 .20599365 .31674195 .17799378 .34474183 .14299011 .34474183 .10798645 .34474183 .07998657 .31674195 .07998657 .28173829Z"/>
<path id="font_1_2" d="M.43499757 .15118408C.39898683 .10421753 .34498597 .03727722 .269989 .03727722 .19999695 .03727722 .1789856 .097229007 .1789856 .17616272 .1789856 .1811676 .1789856 .1851654 .17999268 .19215393 .34799195 .22613526 .42099 .26609803 .46398927 .30607606 .49899293 .3410492 .5059967 .37402345 .5059967 .4019928 .5059967 .45495606 .46398927 .5019531 .38198854 .5019531 .2919922 .5019531 .21798706 .45596314 .16299439 .3880005 .10998535 .32305909 .07998657 .23612976 .07998657 .15219116 .07998657 .012268066 .17098999-.01171875 .22898865-.01171875 .3019867-.01171875 .3899994 .02027893 .45799256 .13119507L.43499757 .15118408M.18199158 .22613526C.19898987 .3470459 .27398683 .46694947 .35398866 .46694947 .3889923 .46694947 .4119873 .44296266 .4119873 .4079895 .4119873 .3380432 .35099793 .26210023 .18199158 .22613526Z"/>
<path id="font_3_4" d="M.42599488 .5919647 .44999696 .6599579 .44499208 .66796877H.11099243L.100997928 .65896609 .08099365 .32388307 .10499573 .31188966C.14698792 .35983277 .18798828 .3828125 .24198914 .3828125 .30599977 .3828125 .37599183 .3358612 .37599183 .20404053 .37599183 .10116577 .33399964 .023269654 .24699402 .023269654 .1769867 .023269654 .14099121 .07420349 .12098694 .13113404 .115997318 .14611817 .10699463 .15510559 .09298706 .15510559 .07299805 .15510559 .039993287 .13513184 .039993287 .10217285 .039993287 .056228639 .10998535-.01171875 .23999024-.01171875 .40499879-.01171875 .47999574 .0881958 .47999574 .21502686 .47999574 .35484315 .3919983 .4268036 .272995 .4268036 .21798706 .4268036 .15899658 .4028015 .1269989 .3738098L.125 .37580873 .147995 .56292727C.15098572 .58795168 .1579895 .5919647 .1769867 .5919647H.42599488Z"/>
<path id="font_3_3" d="M.4850006 .13195801 .45700074 .13696289C.43598939 .08299255 .41600038 .07598877 .37599183 .07598877H.11999512C.13598633 .1279602 .19499207 .19892884 .28799439 .2658844 .38398744 .33584596 .45799256 .38082887 .45799256 .49276734 .45799256 .63168337 .3659973 .6796875 .26098634 .6796875 .12399292 .6796875 .052993776 .5967102 .052993776 .54473879 .052993776 .51075747 .09098816 .49476625 .10798645 .49476625 .12599182 .49476625 .1329956 .50476077 .13699341 .5217438 .15299988 .5897064 .19198609 .64468386 .2539978 .64468386 .33099366 .64468386 .35299684 .5797119 .35299684 .50675967 .35299684 .3998108 .29899598 .33984376 .21199036 .26289369 .08898926 .15594483 .04598999 .08798218 .026992798 .009994507L.036987306 0H.45098878L.4850006 .13195801Z"/>
<path id="font_2_2" d="M.084991458 .31092835V.2529297H.33099366V.0068359377H.3889923V.2529297H.6349945V.31092835H.3889923V.5566406H.33099366V.31092835H.084991458Z"/>
<path id="font_3_2" d="M.43699647 0V.0289917L.35299684 .035995485C.33198548 .037994386 .31999208 .04598999 .31999208 .08496094V.67367556L.31498719 .6796875 .10899353 .6446991V.6197052L.20199585 .6087036C.21899414 .6067047 .22599793 .5987091 .22599793 .56973269V.08496094C.22599793 .065979007 .22299195 .053985597 .21699524 .04698181 .21199036 .039993287 .20399475 .036987306 .19299317 .035995485L.10899353 .0289917V0H.43699647Z"/>
<path id="font_3_1" d="M.2649994 .64468386C.3600006 .64468386 .3869934 .49682618 .3869934 .33398438 .3869934 .17112732 .3600006 .023269654 .2649994 .023269654 .16999817 .023269654 .14299011 .17112732 .14299011 .33398438 .14299011 .49682618 .16999817 .64468386 .2649994 .64468386M.2649994 .6796875C.099990848 .6796875 .040985109 .53378298 .040985109 .33398438 .040985109 .13417053 .099990848-.01171875 .2649994-.01171875 .42999269-.01171875 .4889984 .13417053 .4889984 .33398438 .4889984 .53378298 .42999269 .6796875 .2649994 .6796875Z"/>
<path id="font_4_1" d="M.18499756 .48995973 .0309906-.22816468 .117996219-.2421875 .16899109 .03327942C.18299866 .009277344 .20799256-.01171875 .2649994-.01171875 .31498719-.01171875 .3619995 .026275635 .41099549 .070251468 .41099549 .021270752 .42399598-.01171875 .46199037-.01171875 .5349884-.01171875 .59098818 .043273927 .6259918 .12721253L.60198977 .14120484C.57598879 .09024048 .5349884 .039276124 .5130005 .039276124 .5039978 .039276124 .5009918 .05027771 .5009918 .06425476 .5009918 .084243778 .5069885 .113220218 .5109863 .1322174L.59098818 .5019531 .49798585 .48995973 .42799378 .16519165C.4099884 .08024597 .33799745 .046279909 .29699708 .046279909 .25 .046279909 .21099854 .08325195 .21099854 .15919495 .21099854 .17817688 .21299744 .19915772 .21798706 .22215271L.27799989 .5019531 .18499756 .48995973Z"/>
<path id="font_5_1" d="M.1619873-1.1491547H.33699037V-1.1191406C.24198914-1.114151 .22698975-1.1091461 .22698975-.98913577V-.1300354C.22698975-.0040130617 .24198914-.0050201418 .33699037 0V.02999878H.1619873V-1.1491547Z"/>
<path id="font_5_2" d="M.25299073 .031951906H.07798767V.001953125C.17298889-.0030670167 .18798828-.0020599366 .18798828-.12808228V-.9871826C.18798828-1.107193 .17298889-1.1121979 .07798767-1.1171875V-1.1472015H.25299073V.031951906Z"/>
</defs>
<use data-text="d" xlink:href="#font_1_1" transform="matrix(10.0364,0,0,-10.036601,3.0909959,9.101845)"/>
<use data-text="y" xlink:href="#font_1_4" transform="matrix(10.0364,0,0,-10.036601,10.538002,9.101845)"/>
<path transform="matrix(1,0,0,-1.00002,-112.55,-72.059787)" stroke-width=".5821" stroke-linecap="butt" stroke-miterlimit="10" stroke-linejoin="miter" fill="none" stroke="#000000" d="M115.641-85.72H128.711"/>
<use data-text="d" xlink:href="#font_1_1" transform="matrix(10.0364,0,0,-10.036601,3.1240006,23.971138)"/>
<use data-text="x" xlink:href="#font_1_3" transform="matrix(10.0364,0,0,-10.036601,10.239807,23.971138)"/>
<path transform="matrix(1,0,0,-1.00002,-112.55,-72.059787)" stroke-width=".5821" stroke-linecap="butt" stroke-miterlimit="10" stroke-linejoin="miter" fill="none" stroke="#000000" d="M114.446-98.153H129.906"/>
<use data-text="&#x00b7;" xlink:href="#font_2_1" transform="matrix(10.0364,0,0,-10.036601,17.867997,18.46502)"/>
<use data-text="e" xlink:href="#font_1_2" transform="matrix(10.0364,0,0,-10.036601,24.512001,18.302025)"/>
<use data-text="5" xlink:href="#font_3_4" transform="matrix(7.6075,0,0,-7.6076529,29.792,13.796944)"/>
<use data-text="x" xlink:href="#font_1_3" transform="matrix(7.6075,0,0,-7.6076529,33.993005,13.796944)"/>
<use data-text="2" xlink:href="#font_3_3" transform="matrix(5.4994,0,0,-5.4995105,38.450006,10.794884)"/>
<path transform="matrix(1,0,0,-1.00002,-89.934,-70.24474)" stroke-width=".5821" stroke-linecap="butt" stroke-miterlimit="10" stroke-linejoin="miter" fill="none" stroke="#000000" d="M114.446-90.67H132.297"/>
<use data-text="+" xlink:href="#font_2_2" transform="matrix(10.0364,0,0,-10.036601,46.835,18.388024)"/>
<use data-text="1" xlink:href="#font_3_2" transform="matrix(10.0364,0,0,-10.036601,58.692,18.302025)"/>
<use data-text="0" xlink:href="#font_3_1" transform="matrix(10.0364,0,0,-10.036601,64.01129,18.302025)"/>
<use data-text="x" xlink:href="#font_1_3" transform="matrix(10.0364,0,0,-10.036601,69.557,18.302025)"/>
<use data-text="e" xlink:href="#font_1_2" transform="matrix(10.0364,0,0,-10.036601,75.36807,18.302025)"/>
<use data-text="5" xlink:href="#font_3_4" transform="matrix(7.6075,0,0,-7.6076529,80.65199,13.796944)"/>
<use data-text="x" xlink:href="#font_1_3" transform="matrix(7.6075,0,0,-7.6076529,84.853,13.796944)"/>
<use data-text="2" xlink:href="#font_3_3" transform="matrix(5.4994,0,0,-5.4995105,89.31,10.794884)"/>
<path transform="matrix(1,0,0,-1.00002,-55.753999,-70.24474)" stroke-width=".5821" stroke-linecap="butt" stroke-miterlimit="10" stroke-linejoin="miter" fill="none" stroke="#000000" d="M114.446-90.67H148.977"/>
<use data-text="&#x00b7;" xlink:href="#font_2_1" transform="matrix(10.0364,0,0,-10.036601,94.405,18.46502)"/>
<use data-text="y" xlink:href="#font_1_4" transform="matrix(10.0364,0,0,-10.036601,101.768,15.923973)"/>
<path transform="matrix(1,0,0,-1.00002,-13.223,-72.622798)" stroke-width=".5821" stroke-linecap="butt" stroke-miterlimit="10" stroke-linejoin="miter" fill="none" stroke="#000000" d="M114.446-93.048H120.61"/>
<use data-text="d" xlink:href="#font_1_1" transform="matrix(10.0364,0,0,-10.036601,15.564003,45.12257)"/>
<use data-text="y" xlink:href="#font_1_4" transform="matrix(10.0364,0,0,-10.036601,23.01101,45.12257)"/>
<path transform="matrix(1,0,0,-1.00002,-100.076999,-36.03906)" stroke-width=".5821" stroke-linecap="butt" stroke-miterlimit="10" stroke-linejoin="miter" fill="none" stroke="#000000" d="M115.641-85.72H128.711"/>
<use data-text="d" xlink:href="#font_1_1" transform="matrix(10.0364,0,0,-10.036601,15.597008,59.991865)"/>
<use data-text="x" xlink:href="#font_1_3" transform="matrix(10.0364,0,0,-10.036601,22.712815,59.991865)"/>
<use data-text="&#x00b7;" xlink:href="#font_2_1" transform="matrix(10.0364,0,0,-10.036601,29.207,50.63667)"/>
<use data-text="&#x00b5;" xlink:href="#font_4_1" transform="matrix(10.0364,0,0,-10.036601,35.878,50.09966)"/>
<use data-text="+" xlink:href="#font_2_2" transform="matrix(10.0364,0,0,-10.036601,46.835,51.64869)"/>
<use data-text="d" xlink:href="#font_1_1" transform="matrix(10.0364,0,0,-10.036601,57.937,45.12257)"/>
<use data-text="&#x00b5;" xlink:href="#font_4_1" transform="matrix(10.0364,0,0,-10.036601,64.843,45.12257)"/>
<path transform="matrix(1,0,0,-1.00002,-57.704,-36.03906)" stroke-width=".5821" stroke-linecap="butt" stroke-miterlimit="10" stroke-linejoin="miter" fill="none" stroke="#000000" d="M115.641-85.72H129.005"/>
<use data-text="d" xlink:href="#font_1_1" transform="matrix(10.0364,0,0,-10.036601,58.117,59.991865)"/>
<use data-text="x" xlink:href="#font_1_3" transform="matrix(10.0364,0,0,-10.036601,65.2328,59.991865)"/>
<use data-text="&#x00b7;" xlink:href="#font_2_1" transform="matrix(10.0364,0,0,-10.036601,71.727,50.63667)"/>
<use data-text="y" xlink:href="#font_1_4" transform="matrix(10.0364,0,0,-10.036601,76.256,50.09966)"/>
<use data-text="d" xlink:href="#font_1_1" transform="matrix(10.0364,0,0,-10.036601,33.238,79.13925)"/>
<path transform="matrix(1,0,0,-1.00002,-85.453,-2.0223809)" stroke-width=".5821" stroke-linecap="butt" stroke-miterlimit="10" stroke-linejoin="miter" fill="none" stroke="#000000" d="M115.641-85.72H128.645"/>
<use data-text="d" xlink:href="#font_1_1" transform="matrix(10.0364,0,0,-10.036601,30.187996,94.008548)"/>
<use data-text="x" xlink:href="#font_1_3" transform="matrix(10.0364,0,0,-10.036601,37.303804,94.008548)"/>
<use data-text="[" xlink:href="#font_5_1" transform="matrix(10.0363,0,0,-10.036501,45.453996,78.07822)"/>
<use data-text="y" xlink:href="#font_1_4" transform="matrix(10.0364,0,0,-10.036601,50.18199,86.52438)"/>
<use data-text="&#x00b7;" xlink:href="#font_2_1" transform="matrix(10.0364,0,0,-10.036601,57.132997,86.52438)"/>
<use data-text="&#x00b5;" xlink:href="#font_4_1" transform="matrix(10.0364,0,0,-10.036601,61.259004,86.52438)"/>
<use data-text="]" xlink:href="#font_5_2" transform="matrix(10.0363,0,0,-10.036501,67.71701,78.07822)"/>
<path transform="matrix(1,0,0,-1.00002,50.446,105.54477)" stroke-width=".3985" stroke-linecap="butt" stroke-miterlimit="10" stroke-linejoin="miter" fill="none" stroke="#000000" d="M-40.8708 78.97125C-41.37813 74.60478-39.98805 71.16284-36.59079 68.37314"/>
<path transform="matrix(.1393,-.9902499,-.99023,-.13930279,9.598789,26.369355)" stroke-width=".3985" stroke-linecap="round" stroke-linejoin="round" fill="none" stroke="#000000" d="M-2.07224 2.39104C-1.69365 .95639-.84999 .27895 0 0-.84999-.27895-1.69365-.95639-2.07224-2.39104"/>
<path transform="matrix(.78789,.61579236,.61578,-.7879058,14.012829,37.29953)" stroke-width=".3985" stroke-linecap="round" stroke-linejoin="round" fill="none" stroke="#000000" d="M-2.07224 2.39104C-1.69365 .95639-.84999 .27895 0 0-.84999-.27895-1.69365-.95639-2.07224-2.39104"/>
<path transform="matrix(1,0,0,-1.00002,50.446,105.54477)" stroke-width=".3985" stroke-linecap="butt" stroke-miterlimit="10" stroke-linejoin="miter" fill="none" stroke="#000000" d="M-16.90546 84.65541-11.44131 64.19212"/>
<path transform="matrix(-.25795,-.96615937,-.96614,.25795517,33.48915,20.695145)" stroke-width=".3985" stroke-linecap="round" stroke-linejoin="round" fill="none" stroke="#000000" d="M-2.07224 2.39104C-1.69365 .95639-.84999 .27895 0 0-.84999-.27895-1.69365-.95639-2.07224-2.39104"/>
<path transform="matrix(.25795,.96615937,.96614,-.25795517,39.05606,41.54387)" stroke-width=".3985" stroke-linecap="round" stroke-linejoin="round" fill="none" stroke="#000000" d="M-2.07224 2.39104C-1.69365 .95639-.84999 .27895 0 0-.84999-.27895-1.69365-.95639-2.07224-2.39104"/>
<path transform="matrix(1,0,0,-1.00002,50.446,105.54477)" stroke-width=".3985" stroke-linecap="butt" stroke-miterlimit="10" stroke-linejoin="miter" fill="none" stroke="#000000" d="M25.25809 84.73326 14.42723 71.628"/>
<path transform="matrix(.63701,-.77079549,-.77078,-.63702276,75.83101,20.656205)" stroke-width=".3985" stroke-linecap="round" stroke-linejoin="round" fill="none" stroke="#000000" d="M-2.07224 2.39104C-1.69365 .95639-.84999 .27895 0 0-.84999-.27895-1.69365-.95639-2.07224-2.39104"/>
<path transform="matrix(-.63701,.77079549,.77078,.63702276,64.74631,34.06891)" stroke-width=".3985" stroke-linecap="round" stroke-linejoin="round" fill="none" stroke="#000000" d="M-2.07224 2.39104C-1.69365 .95639-.84999 .27895 0 0-.84999-.27895-1.69365-.95639-2.07224-2.39104"/>
<path transform="matrix(1,0,0,-1.00002,50.446,105.54477)" stroke-width=".3985" stroke-linecap="butt" stroke-miterlimit="10" stroke-linejoin="miter" fill="none" stroke="#000000" d="M53.89867 84.64307C55.11594 71.68446 47.66498 60.58664 35.21016 56.80692"/>
<path transform="matrix(-.10666,-.9942799,-.99426,.10666214,104.32599,20.700737)" stroke-width=".3985" stroke-linecap="round" stroke-linejoin="round" fill="none" stroke="#000000" d="M-2.07224 2.39104C-1.69365 .95639-.84999 .27895 0 0-.84999-.27895-1.69365-.95639-2.07224-2.39104"/>
<path transform="matrix(-.96063,.27770559,.2777,.96064928,85.465,48.7947)" stroke-width=".3985" stroke-linecap="round" stroke-linejoin="round" fill="none" stroke="#000000" d="M-2.07224 2.39104C-1.69365 .95639-.84999 .27895 0 0-.84999-.27895-1.69365-.95639-2.07224-2.39104"/>
<path transform="matrix(1,0,0,-1.00002,50.446,105.54477)" stroke-width=".3985" stroke-linecap="butt" stroke-miterlimit="10" stroke-linejoin="miter" fill="none" stroke="#000000" d="M-1.70073 41.66983V34.86644"/>
<path transform="matrix(1,0,0,-1.00002,50.446,105.54477)" stroke-width=".3985" stroke-linecap="butt" stroke-miterlimit="10" stroke-linejoin="miter" fill="none" stroke="#000000" d="M1.70073 41.66983V34.86644"/>
</svg>
