<svg xmlns="http://www.w3.org/2000/svg" xmlns:xlink="http://www.w3.org/1999/xlink" version="1.1" width="212" height="175" viewBox="0 0 212 175">
<defs>
<path id="font_1_1" d="M.2649994 .64468386C.3600006 .64468386 .3869934 .49682618 .3869934 .33398438 .3869934 .17112732 .3600006 .023269654 .2649994 .023269654 .16999817 .023269654 .14299011 .17112732 .14299011 .33398438 .14299011 .49682618 .16999817 .64468386 .2649994 .64468386M.2649994 .6796875C.099990848 .6796875 .040985109 .53378298 .040985109 .33398438 .040985109 .13417053 .099990848-.01171875 .2649994-.01171875 .42999269-.01171875 .4889984 .13417053 .4889984 .33398438 .4889984 .53378298 .42999269 .6796875 .2649994 .6796875Z"/>
<path id="font_1_2" d="M.43699647 0V.0289917L.35299684 .035995485C.33198548 .037994386 .31999208 .04598999 .31999208 .08496094V.67367556L.31498719 .6796875 .10899353 .6446991V.6197052L.20199585 .6087036C.21899414 .6067047 .22599793 .5987091 .22599793 .56973269V.08496094C.22599793 .065979007 .22299195 .053985597 .21699524 .04698181 .21199036 .039993287 .20399475 .036987306 .19299317 .035995485L.10899353 .0289917V0H.43699647Z"/>
<path id="font_1_3" d="M.4850006 .13195801 .45700074 .13696289C.43598939 .08299255 .41600038 .07598877 .37599183 .07598877H.11999512C.13598633 .1279602 .19499207 .19892884 .28799439 .2658844 .38398744 .33584596 .45799256 .38082887 .45799256 .49276734 .45799256 .63168337 .3659973 .6796875 .26098634 .6796875 .12399292 .6796875 .052993776 .5967102 .052993776 .54473879 .052993776 .51075747 .09098816 .49476625 .10798645 .49476625 .12599182 .49476625 .1329956 .50476077 .13699341 .5217438 .15299988 .5897064 .19198609 .64468386 .2539978 .64468386 .33099366 .64468386 .35299684 .5797119 .35299684 .50675967 .35299684 .3998108 .29899598 .33984376 .21199036 .26289369 .08898926 .15594483 .04598999 .08798218 .026992798 .009994507L.036987306 0H.45098878L.4850006 .13195801Z"/>
<path id="font_1_4" d="M.12998963 .3657837C.12998963 .3487854 .1349945 .33779908 .147995 .33779908 .1599884 .33779908 .18699646 .34777833 .23498535 .34777833 .31999208 .34777833 .36799623 .27090455 .36799623 .18403626 .36799623 .065216068 .30899049 .023269654 .23799134 .023269654 .17199707 .023269654 .1289978 .07319641 .10998535 .12911988 .10398865 .14808655 .09399414 .15707398 .07998657 .15707398 .06199646 .15707398 .026992798 .13809204 .026992798 .10215759 .026992798 .05921936 .09599304-.01171875 .23699951-.01171875 .38198854-.01171875 .47299195 .06121826 .47299195 .18902588 .47299195 .32281495 .35798646 .3627777 .30299378 .3677826V.3717804C.35699464 .38078309 .44400025 .4207611 .44400025 .5197296 .44400025 .6306915 .35699464 .6796875 .25 .6796875 .117996219 .6796875 .052993776 .60369876 .052993776 .5607147 .052993776 .5297241 .08799744 .51272585 .101989749 .51272585 .114990238 .51272585 .12298584 .5197296 .1269989 .5327301 .14898682 .60069277 .18699646 .64468386 .24299622 .64468386 .32199098 .64468386 .34098817 .57470706 .34098817 .51872256 .34098817 .4587555 .31999208 .38378907 .23498535 .38378907 .18699646 .38378907 .1599884 .39378358 .147995 .39378358 .1349945 .39378358 .12998963 .38378907 .12998963 .3657837Z"/>
<path id="font_1_5" d="M.2999878 .17871094V.0769043C.2999878 .04296875 .2889862 .036987306 .2649994 .034988405L.20098877 .0289917V0H.46499635V.0289917L.41999818 .033981325C.39698792 .036987306 .3899994 .04296875 .3899994 .0769043V.17871094H.49299623V.22570801H.3899994V.66796877H.31698609C.22299195 .5298767 .11099243 .35577394 .018997193 .19970703L.027999878 .17871094H.2999878M.09098816 .22570801C.15098572 .33476258 .22099304 .4498291 .2979889 .5709076H.2999878V.22570801H.09098816Z"/>
<path id="font_2_1" d="M.6349945 .2529297V.31092835H.084991458V.2529297H.6349945Z"/>
<clipPath id="clip_3">
<path transform="matrix(1.00003,0,0,-1.00006,16.295655,163.20185)" d="M0 0H194.272V161.39484H0Z"/>
</clipPath>
</defs>
<path transform="matrix(1.00003,0,0,-1.00006,16.295655,163.20185)" stroke-width=".19925" stroke-linecap="butt" stroke-linejoin="bevel" fill="none" stroke="#929292" d="M0 0V4.25212M38.93227 0V4.25212M77.86453 0V4.25212M116.7968 0V4.25212M155.72907 0V4.25212M0 161.39484V157.14269M38.93227 161.39484V157.14269M77.86453 161.39484V157.14269M116.7968 161.39484V157.14269M155.72907 161.39484V157.14269"/>
<path transform="matrix(1.00003,0,0,-1.00006,16.295655,163.20185)" stroke-width=".19925" stroke-linecap="butt" stroke-linejoin="bevel" fill="none" stroke="#929292" d="M0 26.89914H4.25186M0 80.69742H4.25186M0 134.4957H4.25186M194.272 26.89914H190.02011M194.272 80.69742H190.02011M194.272 134.4957H190.02011"/>
<path transform="matrix(1.00003,0,0,-1.00006,16.295655,163.20185)" stroke-width=".3985" stroke-linecap="butt" stroke-linejoin="bevel" fill="none" stroke="#000000" d="M0 0V161.39484H194.272V0H0Z"/>
<use data-text="0" xlink:href="#font_1_1" transform="matrix(10.036701,0,0,-10.037002,13.633575,173.32144)"/>
<use data-text="1" xlink:href="#font_1_2" transform="matrix(10.036701,0,0,-10.037002,47.243585,173.32144)"/>
<use data-text="0" xlink:href="#font_1_1" transform="matrix(10.036701,0,0,-10.037002,52.563035,173.32144)"/>
<use data-text="0" xlink:href="#font_1_1" transform="matrix(10.036701,0,0,-10.037002,57.882486,173.32144)"/>
<use data-text="2" xlink:href="#font_1_3" transform="matrix(10.036701,0,0,-10.037002,86.17675,173.32144)"/>
<use data-text="0" xlink:href="#font_1_1" transform="matrix(10.036701,0,0,-10.037002,91.4962,173.32144)"/>
<use data-text="0" xlink:href="#font_1_1" transform="matrix(10.036701,0,0,-10.037002,96.81565,173.32144)"/>
<use data-text="3" xlink:href="#font_1_4" transform="matrix(10.036701,0,0,-10.037002,125.10992,173.32144)"/>
<use data-text="0" xlink:href="#font_1_1" transform="matrix(10.036701,0,0,-10.037002,130.42937,173.32144)"/>
<use data-text="0" xlink:href="#font_1_1" transform="matrix(10.036701,0,0,-10.037002,135.74881,173.32144)"/>
<use data-text="4" xlink:href="#font_1_5" transform="matrix(10.036701,0,0,-10.037002,164.0441,173.32144)"/>
<use data-text="0" xlink:href="#font_1_1" transform="matrix(10.036701,0,0,-10.037002,169.36356,173.32144)"/>
<use data-text="0" xlink:href="#font_1_1" transform="matrix(10.036701,0,0,-10.037002,174.683,173.32144)"/>
<use data-text="&#x2212;" xlink:href="#font_2_1" transform="matrix(10.036701,0,0,-10.037002,.3511734,139.66144)"/>
<use data-text="1" xlink:href="#font_1_2" transform="matrix(10.036701,0,0,-10.037002,7.573387,139.66144)"/>
<use data-text="0" xlink:href="#font_1_1" transform="matrix(10.036701,0,0,-10.037002,7.5723955,85.83221)"/>
<use data-text="1" xlink:href="#font_1_2" transform="matrix(10.036701,0,0,-10.037002,7.5723955,32.057985)"/>
<g clip-path="url(#clip_3)">
<path transform="matrix(1.00003,0,0,-1.00006,16.295655,163.20185)" stroke-width=".3985" stroke-linecap="butt" stroke-linejoin="bevel" fill="none" stroke="#ff0000" d="M0 80.69742 .38931 86.58401 .77864 92.40068 1.16795 98.07748 1.55728 103.54553 1.94661 108.73761 2.33592 113.59398 2.72525 118.05655 3.11458 122.06668 3.50389 125.5824 3.89322 128.55905 4.28255 130.95954 4.67186 132.7564 5.06119 133.92704 5.45052 134.46019 5.83983 134.3456 6.22916 133.58704 6.61848 132.19367 7.0078 130.18213 7.39713 127.574 7.78645 124.4042 8.17577 120.70934 8.5651 116.53244 8.9544 111.9257 9.34373 106.94559 9.73306 101.64807 10.12238 96.09932 10.5117 90.36496 10.90103 84.51602 11.29034 78.62134 11.67967 72.75032 12.069 66.97615 12.45831 61.36446 12.84764 55.98679 13.23697 50.90553 13.62628 46.18097 14.01561 41.87334 14.40494 38.03107 14.79425 34.70096 15.18358 31.9228 15.5729 29.73268 15.96222 28.15532 16.35155 27.20525 16.74086 26.90074 17.13019 27.24342 17.51952 28.22633 17.90883 29.83867 18.29816 32.06592 18.68748 34.87471 19.0768 38.23442 19.46613 42.10359 19.85545 46.43706 20.24477 51.18205 20.6341 56.28159 21.02342 61.6754 21.41273 67.29733 21.80206 73.07849 22.19139 78.95381 22.5807 84.84686 22.97003 90.6926 23.35936 96.41727 23.74867 101.95364 24.138 107.2345 24.52731 112.19684 24.91664 116.78099 25.30597 120.92937 25.69528 124.5968 26.08461 127.737 26.47394 130.31018 26.86325 132.28728 27.25258 133.64783 27.6419 134.36927 28.03122 134.44565 28.42055 133.87862 28.80988 132.67194 29.19919 130.83956 29.58852 128.40465 29.97784 125.39839 30.36716 121.85364 30.75648 117.81499 31.14581 113.33038 31.53513 108.45517 31.92445 103.24428 32.31377 97.76276 32.7031 92.07681 33.09242 86.25316 33.48174 80.36601 33.87106 74.48102 34.26039 68.66972 34.6497 63.00209 35.03903 57.54962 35.42836 52.37315 35.81767 47.53722 36.207 43.10208 36.59633 39.11671 36.98564 35.6295 37.37497 32.6862 37.7643 30.31908 38.15361 28.55557 38.54294 27.41934 38.93227 26.92548 39.32158 27.07558 39.7109 27.86858 40.10022 29.29854 40.48955 31.34608 40.87888 33.9849 41.26819 37.18428 41.65752 40.90927 42.04684 45.11092 42.43616 49.7392 42.82549 54.73973 43.21481 60.05446 43.60413 65.61453 43.99345 71.3564 44.38278 77.2102 44.7721 83.10487 45.16142 88.97266 45.55075 94.74036 45.94006 100.33969 46.32939 105.70285 46.71872 110.76581 47.10803 115.46724 47.49736 119.74957 47.88667 123.56604 48.276 126.86548 48.66533 129.60974 49.05464 131.76703 49.44397 133.31214 49.8333 134.2224 50.22261 134.49085 50.61194 134.11371 51.00127 133.09424 51.39058 131.44533 51.7799 129.18579 52.16924 126.34686 52.55855 122.95541 52.94788 119.05774 53.3372 114.7006 53.72652 109.93462 54.11584 104.81625 54.50517 99.409 54.89449 93.77577 55.28381 87.98601 55.67313 82.10854 56.06245 76.21709 56.45178 70.37567 56.8411 64.6596 57.23042 59.13667 57.61975 53.87143 58.00906 48.92952 58.39839 44.36958 58.78772 40.24432 59.17703 36.60541 59.56636 33.49855 59.95569 30.95767 60.345 29.01231 60.73433 27.68996 61.12366 27.00511 61.51297 26.96315 61.9023 27.56622 62.29163 28.81111 62.68094 30.67683 63.07027 33.14348 63.45958 36.18202 63.8489 39.75584 64.23824 43.82083 64.62755 48.32858 65.01688 53.22586 65.4062 58.45345 65.79552 63.94623 66.18484 69.64348 66.57417 75.47145 66.96349 81.36127 67.35281 87.24411 67.74214 93.04788 68.13145 98.70477 68.52078 104.14539 68.91011 109.30302 69.29942 114.11798 69.68875 118.52997 70.07808 122.49007 70.46739 125.94499 70.85672 128.85709 71.24603 131.19248 71.63536 132.92049 72.02469 134.01958 72.414 134.47847 72.80333 134.29288 73.19266 133.46114 73.58197 131.99675 73.9713 129.91692 74.36063 127.24477 74.74994 124.01363 75.13927 120.26065 75.5286 116.03535 75.91791 111.38234 76.30724 106.36296 76.69656 101.03424 77.08588 95.46127 77.4752 89.71077 77.86453 83.85214 78.25385 77.95746 78.64317 72.09453 79.0325 66.33434 79.42181 60.7463 79.81114 55.39822 80.20045 50.35356 80.58978 45.67526 80.97911 41.41605 81.36842 37.6292 81.75775 34.36095 82.14708 31.6479 82.53639 29.52287 82.92572 28.01544 83.31505 27.1412 83.70436 26.90666 84.09369 27.32089 84.48302 28.37752 84.87233 30.06032 85.26166 32.35158 85.65099 35.22656 86.0403 38.646 86.42963 42.5695 86.81895 46.95297 87.20827 51.7405 87.5976 56.87553 87.98691 62.29785 88.37624 67.94183 88.76556 73.7386 89.15488 79.61714 89.5442 85.50858 89.93353 91.34409 90.32285 97.05208 90.71217 102.56265 91.1015 107.81065 91.49081 112.73267 91.88014 117.27162 92.26947 121.36891 92.65878 124.97716 93.04811 128.05495 93.43744 130.56465 93.82675 132.47287 94.21608 133.75919 94.60541 134.41016 94.99472 134.415 95.38405 133.77318 95.77336 132.49494 96.16269 130.5953 96.55202 128.09529 96.94133 125.02502 97.33066 121.42377 97.71999 117.33241 98.1093 112.7994 98.49863 107.8833 98.88795 102.64012 99.27727 97.13171 99.6666 91.42586 100.05592 85.59251 100.44524 79.70107 100.83456 73.8209 101.22389 68.0236 101.6132 62.37587 102.00253 56.95137 102.39186 51.81096 102.78117 47.01752 103.1705 42.62813 103.55981 38.69708 103.94914 35.27121 104.33847 32.38924 104.72778 30.08829 105.11711 28.39633 105.50644 27.33167 105.89575 26.9072 106.28508 27.13315 106.67441 27.9993 107.06372 29.49757 107.45305 31.61293 107.84238 34.31845 108.23169 37.5797 108.62102 41.35849 109.01035 45.61125 109.39966 50.28577 109.78899 55.32452 110.17831 60.6683 110.56763 66.25256 110.95695 72.01167 111.34627 77.87462 111.7356 83.76929 112.12492 89.629 112.51424 95.38004 112.90356 100.95622 113.2929 106.28925 113.6822 111.31348 114.07153 115.97293 114.46086 120.20471 114.85017 123.9636 115.2395 127.20387 115.62883 129.88303 116.01814 131.97255 116.40747 133.44554 116.7968 134.28588 117.18611 134.48116 117.57544 134.03034 117.96477 132.93985 118.35408 131.22206 118.74341 128.89368 119.13272 125.98964 119.52205 122.54172 119.91138 118.59023 120.30069 114.18254 120.69002 109.37404 121.07935 104.21964 121.46866 98.7844 121.85799 93.13019 122.24731 87.32805 122.63663 81.4452 123.02596 75.55429 123.41528 69.72525 123.8046 64.0264 124.19392 58.5293 124.58325 53.2974 124.97256 48.39423 125.3619 43.88162 125.75122 39.81071 126.14053 36.22935 126.52986 33.18224 126.91917 30.7075 127.3085 28.83318 127.69783 27.58022 128.08715 26.96637 128.47647 27.00027 128.8658 27.67543 129.25511 28.9892 129.64444 30.9254 130.03377 33.4582 130.42308 36.55861 130.81241 40.18945 131.20174 44.30826 131.59105 48.86227 131.98038 53.79828 132.3697 59.06029 132.75902 64.58052 133.14835 70.29443 133.53768 76.13316 133.92699 82.02461 134.31632 87.90315 134.70563 93.6956 135.09496 99.3299 135.48429 104.74147 135.8736 109.86362 136.26293 114.63551 136.65225 119.0007 137.04157 122.90378 137.4309 126.30222 137.82022 129.14975 138.20954 131.41736 138.59886 133.07543 138.98819 134.10512 139.3775 134.49031 139.76683 134.22992 140.15616 133.32935 140.54547 131.79341 140.9348 129.64415 141.32413 126.90744 141.71344 123.61714 142.10277 119.80823 142.49208 115.53073 142.88141 110.8352 143.27074 105.77657 143.66005 100.41771 144.04938 94.82161 144.4387 89.05498 144.82802 83.18881 145.21735 77.29413 145.60668 71.43925 145.99599 65.69414 146.38532 60.13033 146.77465 54.81398 147.16396 49.80696 147.55329 45.17332 147.94261 40.96576 148.33193 37.23378 148.72126 34.02632 149.11058 31.3789 149.4999 29.32327 149.88922 27.88417 150.27855 27.08205 150.66786 26.9228 151.05719 27.40805 151.4465 28.53459 151.83583 30.29002 152.22516 32.64854 152.61447 35.5843 153.0038 39.064 153.39313 43.04184 153.78244 47.47267 154.17177 52.30267 154.5611 57.47429 154.95041 62.92407 155.33974 68.58742 155.72907 74.39763 156.11838 80.28207 156.5077 86.1703 156.89704 91.99506 157.28635 97.68314 157.67568 103.16786 158.065 108.38362 158.45432 113.2642 158.84365 117.75528 159.23296 121.79929 159.62229 125.35268 160.01161 128.36699 160.40093 130.8089 160.79026 132.6504 161.17958 133.86624 161.5689 134.44243 161.95822 134.37517 162.34755 133.66344 162.73686 132.31201 163.12619 130.34246 163.51552 127.77734 163.90483 124.64522 164.29416 120.98532 164.68349 116.84232 165.0728 112.26515 165.46213 107.30658 165.85146 102.03004 166.24077 96.49796 166.6301 90.77382 167.01941 84.93134 167.40874 79.03772 167.79807 73.16135 168.18738 67.37857 168.5767 61.75342 168.96604 56.35637 169.35535 51.25198 169.74468 46.50215 170.134 42.16277 170.52332 38.28392 170.91265 34.91937 171.30197 32.10196 171.69129 29.86664 172.08061 28.24463 172.46994 27.25204 172.85926 26.90182 173.24858 27.19609 173.63791 28.13701 174.02722 29.70685 174.41655 31.88838 174.80587 34.65736 175.19519 37.9805 175.58452 41.81577 175.97383 46.11694 176.36316 50.83667 176.75249 55.912 177.1418 61.28645 177.53113 66.89491 177.92046 72.66801 178.30977 78.53741 178.6991 84.43262 179.08843 90.28317 179.47774 96.01915 179.86707 101.5706 180.2564 106.87242 180.6457 111.85791 181.03504 116.47057 181.42436 120.65285 181.81368 124.35524 182.203 127.53258 182.59232 130.14826 182.98165 132.16945 183.37097 133.57198 183.76029 134.33808 184.14962 134.46341 184.53894 133.93994 184.92826 132.77576 185.31758 130.98859 185.70691 128.59778 186.09622 125.62758 186.48555 122.11993 186.87488 118.11572 187.26419 113.65962 187.65352 108.80916 188.04285 103.62086 188.43216 98.15765 188.82149 92.48245 189.21082 86.66687 189.60013 80.78133 189.98946 74.89365 190.37877 69.07536 190.7681 63.39587 191.15743 57.92459 191.54674 52.72768 191.93607 47.86754 192.3254 43.39906 192.7147 39.38087 193.10404 35.85922 193.49337 32.87505 193.88268 30.46432 194.272 28.65994"/>
</g>
</svg>
