<svg xmlns="http://www.w3.org/2000/svg" xmlns:xlink="http://www.w3.org/1999/xlink" version="1.1" width="364" height="153" viewBox="0 0 364 153">
<defs>
<path id="font_1_1" d="M.6589966 .23046875C.6759949 .23046875 .69400027 .23046875 .69400027 .25045777 .69400027 .27046205 .6759949 .27046205 .6589966 .27046205H.117996219C.100997928 .27046205 .08299255 .27046205 .08299255 .25045777 .08299255 .23046875 .100997928 .23046875 .117996219 .23046875H.6589966Z"/>
<path id="font_2_5" d="M.36099244 .6508026C.36099244 .6697998 .36099244 .6748047 .34700013 .6748047 .33898927 .6748047 .33599855 .6748047 .32798768 .662796L.026992798 .19598389V.16699219H.2899933V.07598877C.2899933 .038986207 .28799439 .0289917 .21499634 .0289917H.19499207V0C.21798706 .0019989014 .29699708 .0019989014 .32499696 .0019989014 .35299684 .0019989014 .43299867 .0019989014 .45599366 0V.0289917H.43598939C.3639984 .0289917 .36099244 .038986207 .36099244 .07598877V.16699219H.46199037V.19598389H.36099244V.6508026M.29499818 .5728302V.19598389H.051986696L.29499818 .5728302Z"/>
<path id="font_2_4" d="M.18399048 .35888673C.16699219 .35787965 .16299439 .35688783 .16299439 .34788514 .16299439 .33789063 .16799927 .33789063 .18598938 .33789063H.23199463C.31698609 .33789063 .35499574 .267807 .35499574 .17172241 .35499574 .04058838 .2869873 .005508423 .23799134 .005508423 .18998719 .005508423 .10798645 .028564454 .07899475 .09472656 .11099243 .08970642 .13999939 .10771179 .13999939 .14372254 .13999939 .17271424 .11898804 .1927185 .09098816 .1927185 .066986087 .1927185 .040985109 .1787262 .040985109 .14071656 .040985109 .051620485 .12998963-.021484375 .24099732-.021484375 .3600006-.021484375 .44799806 .06965637 .44799806 .17071533 .44799806 .26280213 .37399293 .33488465 .27799989 .35188294 .36499024 .3769226 .42099 .45011903 .42099 .5282135 .42099 .6071167 .33898927 .66503909 .24198914 .66503909 .14199829 .66503909 .067993167 .604126 .067993167 .5312042 .067993167 .49121095 .09899902 .48321534 .11399841 .48321534 .1349945 .48321534 .15899658 .49821473 .15899658 .5282135 .15899658 .5602112 .1349945 .57421877 .11299133 .57421877 .10699463 .57421877 .10499573 .57421877 .101989749 .57321169 .13999939 .641037 .23399353 .641037 .23899842 .641037 .27198792 .641037 .33699037 .6260681 .33699037 .5282135 .33699037 .5092163 .33399964 .453125 .30499269 .41001893 .2749939 .3658905 .24099732 .36288453 .21398926 .36187745L.18399048 .35888673Z"/>
<path id="font_2_3" d="M.43998719 .16790772H.41799928C.4149933 .15092469 .40699769 .09597778 .39698792 .07998657 .3899994 .070999149 .33299256 .070999149 .30299378 .070999149H.117996219C.14498902 .09397888 .20599365 .15792847 .23199463 .18190003 .38398744 .3217926 .43998719 .37374879 .43998719 .47270204 .43998719 .5878906 .34899903 .66503909 .23298645 .66503909 .116989139 .66503909 .04899597 .5658264 .04899597 .4797058 .04899597 .42871095 .09298706 .42871095 .09599304 .42871095 .116989139 .42871095 .14299011 .44371034 .14299011 .475708 .14299011 .5037079 .12399292 .5227051 .09599304 .5227051 .08699036 .5227051 .084991458 .5227051 .08198547 .521698 .100997928 .5899048 .15499878 .6360321 .21998596 .6360321 .30499269 .6360321 .35699464 .56481936 .35699464 .47270204 .35699464 .3877411 .30799867 .313797 .25099183 .24984741L.04899597 .023986817V0H.4139862L.43998719 .16790772Z"/>
<path id="font_2_2" d="M.28799439 .64105227C.28799439 .664032 .28799439 .66503909 .2679901 .66503909 .24398804 .6380615 .19400025 .6012573 .09098816 .6012573V.5722656C.11399841 .5722656 .1639862 .5722656 .21899414 .59825137V.07701111C.21899414 .041000368 .21598816 .0289917 .12799073 .0289917H.09700012V0C.12399292 .0019989014 .22099304 .0019989014 .2539978 .0019989014 .2869873 .0019989014 .3829956 .0019989014 .4099884 0V.0289917H.3789978C.29100038 .0289917 .28799439 .041000368 .28799439 .07701111V.64105227Z"/>
<path id="font_2_6" d="M.12799073 .5727997C.17098999 .5588074 .20599365 .5578003 .21699524 .5578003 .32998658 .5578003 .4019928 .6409912 .4019928 .6550598 .4019928 .6590576 .3999939 .6640625 .3939972 .6640625 .3919983 .6640625 .3899994 .6640625 .3809967 .66004946 .32499696 .6358795 .2769928 .6328125 .25099183 .6328125 .18499756 .6328125 .13798523 .6530609 .11898804 .6610565 .11199951 .6640625 .10998535 .6640625 .10899353 .6640625 .100997928 .6640625 .100997928 .65805056 .100997928 .64201357V.34495545C.100997928 .32695008 .100997928 .32095338 .11299133 .32095338 .117996219 .32095338 .11898804 .32196046 .1289978 .33395387 .15699768 .37493897 .20399475 .39894105 .2539978 .39894105 .30699159 .39894105 .33299256 .34994508 .34098817 .33294679 .35798646 .29396058 .35899354 .2449646 .35899354 .20697022 .35899354 .16897583 .35899354 .11193848 .33099366 .0667572 .30899049 .03060913 .269989 .005508423 .22599793 .005508423 .1599884 .005508423 .09498596 .050689699 .07699585 .12397766 .08198547 .12197876 .08799744 .12097168 .09298706 .12097168 .10998535 .12097168 .13699341 .13098145 .13699341 .16497803 .13699341 .1929779 .117996219 .20898438 .09298706 .20898438 .07499695 .20898438 .04899597 .19998169 .04899597 .16098023 .04899597 .075790408 .116989139-.021484375 .22799683-.021484375 .34098817-.021484375 .43998719 .073791507 .43998719 .20097351 .43998719 .3199463 .3600006 .4189453 .25498963 .4189453 .19799805 .4189453 .1539917 .39393617 .12799073 .36595155V.5727997Z"/>
<path id="font_2_1" d="M.44799806 .31976319C.44799806 .40283204 .44299317 .48390199 .40699769 .55996707 .3659973 .64302065 .2939911 .66503909 .24499512 .66503909 .18699646 .66503909 .115997318 .63601687 .07899475 .552948 .050994874 .48989869 .040985109 .42785646 .040985109 .31976319 .040985109 .22268677 .04798889 .14962769 .083999637 .078567508 .12298584 .0025177003 .19198609-.021484375 .24398804-.021484375 .33099366-.021484375 .3809967 .030532837 .4099884 .08857727 .44599916 .16363526 .44799806 .26171876 .44799806 .31976319M.24398804-.0014953613C.21199036-.0014953613 .14698792 .016525269 .12799073 .12561035 .116989139 .18565369 .116989139 .26171876 .116989139 .33177186 .116989139 .41384889 .116989139 .48789979 .1329956 .5469513 .1499939 .6139984 .20098877 .6450348 .24398804 .6450348 .28199769 .6450348 .33999635 .6220093 .35899354 .53593447 .37199403 .4788971 .37199403 .39982606 .37199403 .33177186 .37199403 .26472474 .37199403 .18865967 .36099244 .12760926 .34199525 .01751709 .2789917-.0014953613 .24398804-.0014953613Z"/>
<clipPath id="clip_3">
<path transform="matrix(1.00003,0,0,-1.00002,1.4670563,147.71363)" d="M0 0H361.33583V145.9142H0Z"/>
</clipPath>
<path id="font_4_1" d="M.18699646 .23144531C.21598816 .23144531 .2899933 .23344422 .33999635 .2544403 .4099884 .28442384 .4149933 .34339906 .4149933 .35740663 .4149933 .40138246 .3769989 .4423828 .30799867 .4423828 .19699097 .4423828 .04598999 .34539796 .04598999 .17037964 .04598999 .06829834 .10499573-.0107421879 .20298767-.0107421879 .34599305-.0107421879 .42999269 .095321658 .42999269 .10733032 .42999269 .113342288 .42399598 .12034607 .41799928 .12034607 .41299439 .12034607 .41099549 .11834717 .40499879 .1103363 .32598878 .011245728 .21699524 .011245728 .20498657 .011245728 .1269989 .011245728 .117996219 .095321658 .117996219 .12734986 .117996219 .13935852 .11898804 .17037964 .13398743 .23144531H.18699646M.13999939 .25343324C.1789856 .40538026 .28199769 .42037965 .30799867 .42037965 .35499574 .42037965 .38198854 .39138795 .38198854 .35740663 .38198854 .25343324 .22200012 .25343324 .18099976 .25343324H.13999939Z"/>
<path id="font_5_1" d="M.22099304 .3976593H.31900025C.33799745 .3976593 .34999085 .3976593 .34999085 .4166565 .34999085 .43066407 .33699037 .43066407 .31999208 .43066407H.22898865L.2649994 .57250979C.2689972 .58750918 .2689972 .5924988 .2689972 .5934906 .2689972 .6144867 .25299073 .6244812 .23599243 .6244812 .20199585 .6244812 .19499207 .5974884 .18399048 .552536L.15299988 .43066407H.056991579C.037994386 .43066407 .024993897 .43066407 .024993897 .4116516 .024993897 .3976593 .037994386 .3976593 .054992677 .3976593H.14498902L.084991458 .15802002C.07899475 .13305664 .069992069 .09811401 .069992069 .084121707 .069992069 .024215699 .11898804-.009765625 .17199707-.009765625 .2789917-.009765625 .33999635 .13105774 .33999635 .14303589 .33999635 .15402222 .33099366 .15602112 .32499696 .15602112 .31399537 .15602112 .31298829 .15202332 .30599977 .13705445 .28599549 .08912659 .23599243 .018234253 .1749878 .018234253 .1539917 .018234253 .14199829 .032211305 .14199829 .06515503 .14199829 .084121707 .14498902 .09510803 .147995 .10809326L.22099304 .3976593Z"/>
</defs>
<path transform="matrix(1.00003,0,0,-1.00002,1.4670563,147.71363)" stroke-width=".19925" stroke-linecap="butt" stroke-miterlimit="10" stroke-linejoin="miter" fill="none" stroke="#929292" d="M20.0742 40.79001V45.04185M60.22263 40.79001V45.04185M100.37105 40.79001V45.04185M140.51949 40.79001V45.04185M220.81633 40.79001V45.04185M260.96476 40.79001V45.04185M301.11317 40.79001V45.04185M341.2616 40.79001V45.04185"/>
<path transform="matrix(1.00003,0,0,-1.00002,1.4670563,147.71363)" stroke-width=".19925" stroke-linecap="butt" stroke-miterlimit="10" stroke-linejoin="miter" fill="none" stroke="#929292" d="M178.54186 0H182.79393M178.54186 85.83188H182.79393M178.54186 128.74784H182.79393"/>
<path transform="matrix(1.00003,0,0,-1.00002,1.4670563,147.71363)" stroke-width=".3985" stroke-linecap="butt" stroke-miterlimit="10" stroke-linejoin="miter" fill="none" stroke="#000000" d="M0 42.91594H359.3433"/>
<path transform="matrix(1.00003,0,0,-1.00002,360.82118,104.79683)" d="M1.99252 0-1.19551 1.59401 0 0-1.19551-1.59401"/>
<path transform="matrix(1.00003,0,0,-1.00002,1.4670563,147.71363)" stroke-width=".3985" stroke-linecap="butt" stroke-miterlimit="10" stroke-linejoin="miter" fill="none" stroke="#000000" d="M180.66791 0V143.92168"/>
<path transform="matrix(0,-1.00002,-1.00003,-0,182.1404,3.7890626)" d="M1.99252 0-1.19551 1.59401 0 0-1.19551-1.59401"/>
<use data-text="&#x2212;" xlink:href="#font_1_1" transform="matrix(11.95556,0,0,-11.95544,13.965431,118.463039)"/>
<use data-text="4" xlink:href="#font_2_5" transform="matrix(11.95556,0,0,-11.95544,23.26471,118.463039)"/>
<use data-text="&#x2212;" xlink:href="#font_1_1" transform="matrix(11.95556,0,0,-11.95544,54.11564,118.463039)"/>
<use data-text="3" xlink:href="#font_2_4" transform="matrix(11.95556,0,0,-11.95544,63.414918,118.463039)"/>
<use data-text="&#x2212;" xlink:href="#font_1_1" transform="matrix(11.95556,0,0,-11.95544,94.26484,118.463039)"/>
<use data-text="2" xlink:href="#font_2_3" transform="matrix(11.95556,0,0,-11.95544,103.56412,118.463039)"/>
<use data-text="&#x2212;" xlink:href="#font_1_1" transform="matrix(11.95556,0,0,-11.95544,134.41506,118.463039)"/>
<use data-text="1" xlink:href="#font_2_2" transform="matrix(11.95556,0,0,-11.95544,143.71433,118.463039)"/>
<use data-text="1" xlink:href="#font_2_2" transform="matrix(11.95556,0,0,-11.95544,219.3636,118.463039)"/>
<use data-text="2" xlink:href="#font_2_3" transform="matrix(11.95556,0,0,-11.95544,259.51283,118.463039)"/>
<use data-text="3" xlink:href="#font_2_4" transform="matrix(11.95556,0,0,-11.95544,299.66304,118.463039)"/>
<use data-text="4" xlink:href="#font_2_5" transform="matrix(11.95556,0,0,-11.95544,339.81224,118.463039)"/>
<use data-text="&#x2212;" xlink:href="#font_1_1" transform="matrix(11.95556,0,0,-11.95544,161.02684,151.06769)"/>
<use data-text="5" xlink:href="#font_2_6" transform="matrix(11.95556,0,0,-11.95544,170.32611,151.06769)"/>
<use data-text="5" xlink:href="#font_2_6" transform="matrix(11.95556,0,0,-11.95544,170.32613,65.73198)"/>
<use data-text="1" xlink:href="#font_2_2" transform="matrix(11.95556,0,0,-11.95544,164.47196,22.815117)"/>
<use data-text="0" xlink:href="#font_2_1" transform="matrix(11.95556,0,0,-11.95544,170.31822,22.815117)"/>
<g clip-path="url(#clip_3)">
<path transform="matrix(1.00003,0,0,-1.00002,1.4670563,147.71363)" stroke-width="1.19553" stroke-linecap="butt" stroke-miterlimit="10" stroke-linejoin="miter" fill="none" stroke="#ff0000" d="M0 43.01128 3.64984 43.02034 7.2997 43.03029 10.94954 43.04117 14.5994 43.05309 18.24925 43.06613 21.8991 43.08044 25.54895 43.09612 29.1988 43.11325 32.84865 43.13202 36.49852 43.15259 40.14838 43.1751 43.79822 43.19977 47.44807 43.2268 51.09793 43.25638 54.74777 43.28877 58.39763 43.32425 62.04749 43.36311 65.69734 43.40569 69.3472 43.4523 72.99706 43.50333 76.6469 43.55923 80.29675 43.62045 83.94661 43.68752 87.59645 43.76093 91.2463 43.84137 94.89616 43.929 98.546 44.02591 102.19588 44.13158 105.84573 44.24753 109.49557 44.37361 113.14543 44.51274 116.79527 44.66467 120.44513 44.83119 124.09499 45.01323 127.74484 45.21321 131.39469 45.43227 135.04454 45.67087 138.69441 45.93361 142.34426 46.22124 145.99411 46.53537 149.64395 46.87964 153.29381 47.2574 156.94367 47.67032 160.59352 48.12285 164.24337 48.61816 167.89322 49.1608 171.54308 49.7558 175.19293 50.40656 178.84279 51.11906 182.49263 51.89824 186.14249 52.75279 189.79235 53.68903 193.4422 54.71411 197.09204 55.83705 200.7419 57.06703 204.39176 58.41313 208.04161 59.88799 211.69147 61.5031 215.34133 63.27232 218.99117 65.20973 222.64102 67.33159 226.29087 69.6548 229.94072 72.19954 233.59058 74.98685 237.24044 78.0386 240.89029 81.38234 244.54015 85.04172 248.19 89.05101 251.83985 93.44156 255.4897 98.25012 259.13954 103.51608 262.7894 109.28423 266.43925 115.60077 270.0891 122.51788 273.73899 130.0954 277.38883 138.39275 281.03868 147.47806 284.6885 157.42598 288.33839 168.32662 291.98823 180.2607 295.6381 193.33289 299.28794 207.6445 302.93778 223.32341 306.58766 240.49321 310.2375 259.29557 313.88734 279.8892 317.5372 302.44154 321.18708 327.13624 324.8369 354.18614 328.48677 383.81275 332.1366 416.25205 335.78645 451.78044 339.43635 490.70179 343.08619 533.313 346.73603 579.98837 350.3859 631.09188 354.0357 687.0731 357.68559 748.38717 361.33543 815.5059"/>
<use data-text="e" xlink:href="#font_4_1" transform="matrix(13.091312,0,0,-13.091183,283.10176,19.988663)"/>
<use data-text="t" xlink:href="#font_5_1" transform="matrix(9.564407,0,0,-9.564312,289.19795,15.237778)"/>
</g>
</svg>
