<svg xmlns="http://www.w3.org/2000/svg" xmlns:xlink="http://www.w3.org/1999/xlink" version="1.1" width="157" height="128" viewBox="0 0 157 128">
<defs>
<path id="font_1_3" d="M.2939911 .64004519C.2939911 .66400149 .2939911 .6660156 .2709961 .6660156 .20899964 .60227969 .12098694 .60227969 .08898926 .60227969V.57128909C.10899353 .57128909 .16799927 .57128909 .21998596 .5972748V.07902527C.21998596 .042999269 .21699524 .0309906 .1269989 .0309906H.09498596V0C.12998963 .0029907227 .21699524 .0029907227 .25698854 .0029907227 .29699708 .0029907227 .38398744 .0029907227 .4189911 0V.0309906H.3869934C.29699708 .0309906 .2939911 .041992189 .2939911 .07902527V.64004519Z"/>
<path id="font_1_4" d="M.1269989 .07699585 .23298645 .18003845C.3889923 .31811524 .44898988 .3721466 .44898988 .47216798 .44898988 .5860901 .35899354 .6660156 .23699951 .6660156 .12399292 .6660156 .049987794 .57411196 .049987794 .48516847 .049987794 .4291687 .099990848 .4291687 .102996829 .4291687 .11999512 .4291687 .15499878 .44117738 .15499878 .48217774 .15499878 .5081787 .13699341 .5341797 .101989749 .5341797 .09399414 .5341797 .09199524 .5341797 .08898926 .5331726 .11199951 .59806826 .1659851 .63500979 .22399903 .63500979 .31498719 .63500979 .35798646 .5541382 .35798646 .47216798 .35798646 .39215089 .30799867 .31311036 .25299073 .25108338L.06098938 .036987306C.049987794 .025985718 .049987794 .023986817 .049987794 0H.42099L.44898988 .17404175H.42399598C.4189911 .14402771 .4119873 .1000061 .4019928 .084991458 .394989 .07699585 .32899476 .07699585 .30699159 .07699585H.1269989Z"/>
<clipPath id="clip_2">
<path transform="matrix(1.00006,0,0,-1,1.7631912,122.136)" d="M0 0H145.70549V121.04271H0Z"/>
</clipPath>
<path id="font_3_2" d="M.20599365 .3996582H.2999878C.31999208 .3996582 .32998658 .3996582 .32998658 .41966249 .32998658 .43066407 .31999208 .43066407 .3019867 .43066407H.21398926C.25 .5724945 .25498963 .59246829 .25498963 .59846499 .25498963 .61546328 .24299622 .62545779 .22599793 .62545779 .22299195 .62545779 .19499207 .62446597 .18598938 .58947756L.14698792 .43066407H.052993776C.032989503 .43066407 .022994996 .43066407 .022994996 .4116516 .022994996 .3996582 .0309906 .3996582 .050994874 .3996582H.13899231C.066986087 .11608887 .06298828 .099121097 .06298828 .08114624 .06298828 .02722168 .100997928-.0107421879 .15499878-.0107421879 .25698854-.0107421879 .31399537 .13505554 .31399537 .14305115 .31399537 .1530304 .30599977 .1530304 .3019867 .1530304 .29299928 .1530304 .2919922 .15003968 .2869873 .13905335 .24398804 .035217287 .19099427 .011245728 .15699768 .011245728 .13598633 .011245728 .12599182 .024230957 .12599182 .057174684 .12599182 .08114624 .12799073 .088134769 .13198853 .10510254L.20599365 .3996582Z"/>
<path id="font_3_4" d="M.48599244 .38136292C.48999024 .39537049 .48999024 .39736939 .48999024 .40437318 .48999024 .42237855 .47599793 .43138124 .46099855 .43138124 .45098878 .43138124 .43499757 .42536927 .42599488 .41036988 .42399598 .405365 .41600038 .37435914 .4119873 .35635377 .40499879 .33035279 .397995 .30334474 .3919983 .27633668L.34700013 .09628296C.34298707 .08126831 .2999878 .011245728 .23399353 .011245728 .18299866 .011245728 .17199707 .055267335 .17199707 .0922699 .17199707 .1382904 .18899536 .20030213 .22299195 .28833009 .23899842 .3293457 .24299622 .3403473 .24299622 .36035157 .24299622 .405365 .21099854 .4423828 .16099549 .4423828 .06599426 .4423828 .0289917 .29733277 .0289917 .28833009 .0289917 .27833558 .038986207 .27833558 .040985109 .27833558 .050994874 .27833558 .051986696 .28033448 .056991579 .29634095 .083999637 .3903656 .12399292 .42037965 .1579895 .42037965 .1659851 .42037965 .18299866 .42037965 .18299866 .3883667 .18299866 .36335755 .17298889 .3373413 .1659851 .31834413 .12599182 .21231079 .10798645 .1552887 .10798645 .10827637 .10798645 .019256592 .17098999-.0107421879 .22999573-.0107421879 .2689972-.0107421879 .30299378 .0062561037 .33099366 .03425598 .31799317-.017745972 .30599977-.06674194 .2659912-.11973572 .23999024-.15385437 .20199585-.18309021 .1559906-.18309021 .14199829-.18309021 .09700012-.18005371 .07998657-.14074707 .09599304-.14074707 .10899353-.14074707 .12298584-.1287384 .1329956-.11973572 .14299011-.10673523 .14299011-.08773804 .14299011-.056747438 .115997318-.052734376 .10598755-.052734376 .08299255-.052734376 .049987794-.068740848 .049987794-.11773682 .049987794-.16796875 .09399414-.20507813 .1559906-.20507813 .25898744-.20507813 .3619995-.11373901 .3899994-.00074768069L.48599244 .38136292Z"/>
<path id="font_3_3" d="M.33399964 .30233766C.33999635 .32835389 .36299134 .42037965 .43299867 .42037965 .43798829 .42037965 .46199037 .42037965 .48298646 .40734864 .45498658 .402359 .43499757 .37734986 .43499757 .35334779 .43499757 .33735658 .44599916 .31835938 .47299195 .31835938 .49499513 .31835938 .5269928 .3363495 .5269928 .37635804 .5269928 .42837525 .46798707 .4423828 .43399049 .4423828 .37599183 .4423828 .34098817 .38935853 .32899476 .36634828 .3039856 .43237306 .25 .4423828 .22099304 .4423828 .116989139 .4423828 .05999756 .3133545 .05999756 .28834535 .05999756 .27833558 .069992069 .27833558 .07199097 .27833558 .07998657 .27833558 .08299255 .28033448 .084991458 .28933717 .11898804 .39535523 .18499756 .42037965 .21899414 .42037965 .23799134 .42037965 .272995 .4113617 .272995 .35334779 .272995 .32235719 .2559967 .25532533 .21899414 .11528015 .20298767 .053268434 .16799927 .011245728 .12399292 .011245728 .117996219 .011245728 .09498596 .011245728 .07398987 .024276734 .09899902 .029266358 .12098694 .05027771 .12098694 .07827759 .12098694 .105270389 .09899902 .11328125 .083999637 .11328125 .053985597 .11328125 .0289917 .08728027 .0289917 .055267335 .0289917 .009246826 .07899475-.0107421879 .12298584-.0107421879 .18899536-.0107421879 .22499085 .059280397 .22799683 .0652771 .23999024 .028274537 .27598573-.0107421879 .33599855-.0107421879 .43899537-.0107421879 .49598695 .118270877 .49598695 .14328003 .49598695 .1532898 .4869995 .1532898 .48399354 .1532898 .47499085 .1532898 .47299195 .14929199 .47099305 .14228821 .43798829 .03527832 .36999513 .011245728 .33799745 .011245728 .29899598 .011245728 .2829895 .043273927 .2829895 .07727051 .2829895 .09927368 .2889862 .121276859 .2999878 .16529846L.33399964 .30233766Z"/>
<path id="font_1_1" d="M.33099366-.2400055C.33099366-.23701477 .33099366-.23500061 .31399537-.21800232 .18899536-.0920105 .15699768 .09700012 .15699768 .25 .15699768 .42399598 .19499207 .59799197 .31799317 .72299197 .33099366 .73498538 .33099366 .7369995 .33099366 .73999026 .33099366 .746994 .32699586 .75 .32099916 .75 .31098939 .75 .22099304 .6819916 .1619873 .5549927 .11099243 .44499208 .09899902 .33399964 .09899902 .25 .09899902 .17199707 .10998535 .050994874 .16499329-.06201172 .22499085-.18501282 .31098939-.25 .32099916-.25 .32699586-.25 .33099366-.24700928 .33099366-.2400055Z"/>
<path id="font_1_2" d="M.2889862 .25C.2889862 .32798768 .27799989 .44898988 .22299195 .56199648 .16299439 .68499758 .07699585 .75 .066986087 .75 .06098938 .75 .056991579 .74598696 .056991579 .73999026 .056991579 .7369995 .056991579 .73498538 .07598877 .71699526 .17399597 .6179962 .23098755 .45899964 .23098755 .25 .23098755 .07899475 .19400025-.09700012 .069992069-.2230072 .056991579-.23500061 .056991579-.23701477 .056991579-.2400055 .056991579-.2460022 .06098938-.25 .066986087-.25 .07699585-.25 .16699219-.18200684 .22599793-.055007936 .2769928 .054992677 .2889862 .16600037 .2889862 .25Z"/>
<path id="font_1_5" d="M.68699648 .32714845C.70199587 .32714845 .72099307 .32714845 .72099307 .34713746 .72099307 .36714173 .70199587 .36714173 .6879883 .36714173H.08898926C.07499695 .36714173 .055999757 .36714173 .055999757 .34713746 .055999757 .32714845 .07499695 .32714845 .08999634 .32714845H.68699648M.6879883 .13284302C.70199587 .13284302 .72099307 .13284302 .72099307 .15284729 .72099307 .17285156 .70199587 .17285156 .68699648 .17285156H.08999634C.07499695 .17285156 .055999757 .17285156 .055999757 .15284729 .055999757 .13284302 .07499695 .13284302 .08898926 .13284302H.6879883Z"/>
<path id="font_4_1" d="M.4889984 .31877137C.4889984 .42585755 .47799684 .49090577 .44499208 .55496218 .40098573 .6430359 .31999208 .66503909 .2649994 .66503909 .13899231 .66503909 .09298706 .5709839 .07899475 .5429535 .042999269 .4698944 .040985109 .3708191 .040985109 .31877137 .040985109 .25271607 .04399109 .15162659 .09199524 .07156372 .13798523-.0024871827 .21199036-.021484375 .2649994-.021484375 .31298829-.021484375 .39898683-.0064849855 .44898988 .09257507 .48599244 .16464234 .4889984 .2537079 .4889984 .31877137M.2649994 .006515503C.23098755 .006515503 .1619873 .022521973 .14099121 .12760926 .12998963 .18466187 .12998963 .2787323 .12998963 .33078004 .12998963 .3998413 .12998963 .4698944 .14099121 .5249481 .1619873 .6270294 .23999024 .6370239 .2649994 .6370239 .29899598 .6370239 .36799623 .62002566 .3880005 .5289459 .3999939 .4738922 .3999939 .39883424 .3999939 .33078004 .3999939 .27172853 .3999939 .18165589 .3880005 .12561035 .36698915 .020523072 .2979889 .006515503 .2649994 .006515503Z"/>
<path id="font_3_1" d="M.18699646 .23144531C.21598816 .23144531 .2899933 .23344422 .33999635 .2544403 .4099884 .28442384 .4149933 .34339906 .4149933 .35740663 .4149933 .40138246 .3769989 .4423828 .30799867 .4423828 .19699097 .4423828 .04598999 .34539796 .04598999 .17037964 .04598999 .06829834 .10499573-.0107421879 .20298767-.0107421879 .34599305-.0107421879 .42999269 .095321658 .42999269 .10733032 .42999269 .113342288 .42399598 .12034607 .41799928 .12034607 .41299439 .12034607 .41099549 .11834717 .40499879 .1103363 .32598878 .011245728 .21699524 .011245728 .20498657 .011245728 .1269989 .011245728 .117996219 .095321658 .117996219 .12734986 .117996219 .13935852 .11898804 .17037964 .13398743 .23144531H.18699646M.13999939 .25343324C.1789856 .40538026 .28199769 .42037965 .30799867 .42037965 .35499574 .42037965 .38198854 .39138795 .38198854 .35740663 .38198854 .25343324 .22200012 .25343324 .18099976 .25343324H.13999939Z"/>
<path id="font_5_1" d="M.69898989 .22743225C.71499636 .22743225 .7369995 .22743225 .7369995 .25042726 .7369995 .2734375 .71499636 .2734375 .69898989 .2734375H.12599182C.10998535 .2734375 .08799744 .2734375 .08799744 .25042726 .08799744 .22743225 .10998535 .22743225 .12599182 .22743225H.69898989Z"/>
<path id="font_6_1" d="M.22099304 .3976593H.31900025C.33799745 .3976593 .34999085 .3976593 .34999085 .4166565 .34999085 .43066407 .33699037 .43066407 .31999208 .43066407H.22898865L.2649994 .57250979C.2689972 .58750918 .2689972 .5924988 .2689972 .5934906 .2689972 .6144867 .25299073 .6244812 .23599243 .6244812 .20199585 .6244812 .19499207 .5974884 .18399048 .552536L.15299988 .43066407H.056991579C.037994386 .43066407 .024993897 .43066407 .024993897 .4116516 .024993897 .3976593 .037994386 .3976593 .054992677 .3976593H.14498902L.084991458 .15802002C.07899475 .13305664 .069992069 .09811401 .069992069 .084121707 .069992069 .024215699 .11898804-.009765625 .17199707-.009765625 .2789917-.009765625 .33999635 .13105774 .33999635 .14303589 .33999635 .15402222 .33099366 .15602112 .32499696 .15602112 .31399537 .15602112 .31298829 .15202332 .30599977 .13705445 .28599549 .08912659 .23599243 .018234253 .1749878 .018234253 .1539917 .018234253 .14199829 .032211305 .14199829 .06515503 .14199829 .084121707 .14498902 .09510803 .147995 .10809326L.22099304 .3976593Z"/>
<path id="font_4_2" d="M.28199769 .20405579C.2979889 .21907044 .33999635 .2520752 .35598756 .26608277 .41799928 .32312013 .47698976 .3781433 .47698976 .46917726 .47698976 .588089 .3769989 .66503909 .2519989 .66503909 .13198853 .66503909 .052993776 .57411196 .052993776 .48516847 .052993776 .4361725 .09199524 .4291687 .10598755 .4291687 .1269989 .4291687 .1579895 .4441681 .1579895 .48217774 .1579895 .5341797 .10798645 .5341797 .09599304 .5341797 .125 .6070709 .19198609 .6320343 .24099732 .6320343 .33399964 .6320343 .38198854 .55314639 .38198854 .46917726 .38198854 .36514283 .30899049 .28910829 .19099427 .16804505L.06498718 .037994386C.052993776 .026992798 .052993776 .024993897 .052993776 0H.44799806L.47698976 .17904663H.44599916C.44299317 .1590271 .43499757 .10900879 .4229889 .08999634 .4169922 .08198547 .34098817 .08198547 .32499696 .08198547H.14698792L.28199769 .20405579Z"/>
</defs>
<path transform="matrix(1.00006,0,0,-1,1.7631912,122.136)" stroke-width=".79701" stroke-linecap="butt" stroke-miterlimit="10" stroke-linejoin="miter" fill="none" stroke="#929292" d="M39.2284 7.54868V10.38356M95.26897 7.54868V10.38356"/>
<path transform="matrix(1.00006,0,0,-1,1.7631912,122.136)" stroke-width=".79701" stroke-linecap="butt" stroke-miterlimit="10" stroke-linejoin="miter" fill="none" stroke="#929292" d="M67.24869 6.84015V11.09207M123.28926 6.84015V11.09207"/>
<path transform="matrix(1.00006,0,0,-1,1.7631912,122.136)" stroke-width=".79701" stroke-linecap="butt" stroke-miterlimit="10" stroke-linejoin="miter" fill="none" stroke="#929292" d="M9.79062 98.62738H12.62561"/>
<path transform="matrix(1.00006,0,0,-1,1.7631912,122.136)" stroke-width=".79701" stroke-linecap="butt" stroke-miterlimit="10" stroke-linejoin="miter" fill="none" stroke="#929292" d=""/>
<path transform="matrix(1.00006,0,0,-1,1.7631912,122.136)" stroke-width="2.98883" stroke-linecap="butt" stroke-miterlimit="10" stroke-linejoin="miter" fill="none" stroke="#000000" d="M0 8.96613H139.82741"/>
<path transform="matrix(1.00006,0,0,-1,141.59897,113.16987)" d="M5.87807 0-3.52684 4.70245 0 0-3.52684-4.70245"/>
<path transform="matrix(1.00006,0,0,-1,1.7631912,122.136)" stroke-width="2.98883" stroke-linecap="butt" stroke-miterlimit="10" stroke-linejoin="miter" fill="none" stroke="#000000" d="M11.20811 0V115.16463"/>
<path transform="matrix(0,-1,-1.00006,-0,12.971973,6.9713747)" d="M5.87807 0-3.52684 4.70245 0 0-3.52684-4.70245"/>
<use data-text="1" xlink:href="#font_1_3" transform="matrix(10.909754,0,0,-10.9091,66.28806,127.457)"/>
<use data-text="2" xlink:href="#font_1_4" transform="matrix(10.909754,0,0,-10.9091,122.33242,127.457)"/>
<g clip-path="url(#clip_2)">
<path transform="matrix(1.00006,0,0,-1,1.7631912,122.136)" stroke-width="2.98883" stroke-linecap="butt" stroke-miterlimit="10" stroke-linejoin="miter" fill="none" stroke="#ff0000" d="M0 41.81898 1.47173 40.96791 2.94347 40.13783 4.41519 39.3298 5.88693 38.54305 7.35867 37.77643 8.83041 37.02919 10.30214 36.3024 11.77388 35.59901 13.2456 34.91014 14.71736 34.23741 16.1891 33.58136 17.66083 32.94331 19.13257 32.32198 20.6043 31.71677 22.07605 31.12769 23.54778 30.55179 25.01952 29.99203 26.49124 29.44843 27.96298 28.9188 29.43474 28.39938 30.90646 27.89638 32.3782 27.40657 33.84995 26.92778 35.32167 26.46217 36.79341 26.00731 38.26515 25.56618 39.73688 25.1358 41.20863 24.71861 42.68036 24.30975 44.1521 23.91165 45.62384 23.52432 47.09557 23.14746 48.56732 22.77898 50.03905 22.42094 51.51079 22.07127 52.98251 21.73235 54.45425 21.4015 55.92601 21.07845 57.39774 20.76643 58.86948 20.45953 60.3412 20.16122 61.81294 19.87071 63.28468 19.58774 64.75642 19.31364 66.22815 19.04439 67.6999 18.7832 69.17163 18.53064 70.64337 18.28049 72.11511 18.04082 73.58684 17.80411 75.0586 17.57549 76.5303 17.35223 78.00206 17.13434 79.47379 16.92453 80.94553 16.71715 82.41728 16.51515 83.889 16.31906 85.36075 16.13077 86.83247 15.94516 88.30421 15.76225 89.77596 15.58714 91.2477 15.415 92.71942 15.24823 94.19116 15.08415 95.6629 14.92517 97.13464 14.77214 98.60638 14.62123 100.07811 14.47624 101.54985 14.33046 103.02158 14.19354 104.49333 14.05637 105.96506 13.92456 107.4368 13.79813 108.90854 13.67145 110.38026 13.5504 111.85202 13.42961 113.32375 13.31396 114.79549 13.20341 116.26721 13.09312 117.73897 12.98553 119.2107 12.88037 120.68243 12.77815 122.15416 12.68132 123.6259 12.58447 125.09766 12.4906 126.56938 12.39888 128.04113 12.3104 129.51285 12.22404 130.98459 12.13797 132.45633 12.057 133.92807 11.97658 135.3998 11.89856 136.87154 11.82326 138.34328 11.74794 139.81502 11.67531 141.28676 11.60672 142.75849 11.5383 144.23023 11.47162 145.70195 11.4067"/>
<path transform="matrix(1.00006,0,0,-1,1.7631912,122.136)" stroke-width="2.98883" stroke-linecap="butt" stroke-miterlimit="10" stroke-linejoin="miter" fill="none" stroke="#0000ff" d="M0 95.90448 1.47173 91.45541 2.94347 87.23712 4.41519 83.23154 5.88693 79.43166 7.35867 75.8265 8.83041 72.40546 10.30214 69.16046 11.77388 66.09315 13.2456 63.16751 14.71736 60.39806 16.1891 57.7638 17.66083 55.26826 19.13257 52.9021 20.6043 50.65192 22.07605 48.51889 23.54778 46.4954 25.01952 44.57217 26.49124 42.75269 27.96298 41.02177 29.43474 39.38293 30.90646 37.82686 32.3782 36.34596 33.84995 34.94727 35.32167 33.61789 36.79341 32.35962 38.26515 31.15791 39.73688 30.02145 41.20863 28.9491 42.68036 27.92279 44.1521 26.95535 45.62384 26.03394 47.09557 25.15974 48.56732 24.33217 50.03905 23.54482 51.51079 22.79883 52.98251 22.09364 54.45425 21.417 55.92601 20.78177 57.39774 20.17564 58.86948 19.6045 60.3412 19.05609 61.81294 18.54382 63.28468 18.05368 64.75642 17.58745 66.22815 17.14394 67.6999 16.72432 69.17163 16.3286 70.64337 15.95503 72.11511 15.59367 73.58684 15.25626 75.0586 14.93513 76.5303 14.62994 78.00206 14.34015 79.47379 14.06516 80.94553 13.80428 82.41728 13.55673 83.889 13.32184 85.36075 13.09898 86.83247 12.88751 88.30421 12.68686 89.77596 12.4965 91.2477 12.31586 92.71942 12.14447 94.19116 11.98184 95.6629 11.82751 97.13464 11.68112 98.60638 11.54219 100.07811 11.41039 101.54985 11.28532 103.02158 11.16666 104.49333 11.05406 105.96506 10.94724 107.4368 10.84586 108.90854 10.7497 110.38026 10.65843 111.85202 10.57184 113.32375 10.48967 114.79549 10.41173 116.26721 10.33777 117.73897 10.26758 119.2107 10.20099 120.68243 10.13783 122.15416 10.07785 123.6259 10.02097 125.09766 9.967 126.56938 9.91579 128.04113 9.86719 129.51285 9.82108 130.98459 9.77734 132.45633 9.73584 133.92807 9.69644 135.3998 9.65907 136.87154 9.62363 138.34328 9.58998 139.81502 9.55806 141.28676 9.52779 142.75849 9.49904 144.23023 9.47177 145.70195 9.44589"/>
</g>
<use data-text="t" xlink:href="#font_3_2" transform="matrix(10.909754,0,0,-10.9091,138.40738,108.039)"/>
<use data-text="y" xlink:href="#font_3_4" transform="matrix(10.909754,0,0,-10.9091,18.103173,10.921005)"/>
<path transform="matrix(1.00006,0,0,-1,1.7631912,122.136)" d="M59.77571 86.36395H151.98316V119.54828H59.77571Z" fill="#ffffff"/>
<path transform="matrix(1.00006,0,0,-1,1.7631912,122.136)" stroke-width="2.98883" stroke-linecap="butt" stroke-miterlimit="10" stroke-linejoin="miter" fill="none" stroke="#000000" d="M59.77571 86.36395H151.98316V119.54828H59.77571Z"/>
<path transform="matrix(1.00006,0,0,-1,66.02605,11.822006)" stroke-width="2.98883" stroke-linecap="butt" stroke-miterlimit="10" stroke-linejoin="miter" fill="none" stroke="#ff0000" d="M0 0H8.50412 17.00826"/>
<use data-text="x" xlink:href="#font_3_3" transform="matrix(10.909754,0,0,-10.9091,87.94836,15.434006)"/>
<use data-text="(" xlink:href="#font_1_1" transform="matrix(10.909754,0,0,-10.9091,94.18373,15.434006)"/>
<use data-text="t" xlink:href="#font_3_2" transform="matrix(10.909754,0,0,-10.9091,98.42699,15.434006)"/>
<use data-text=")" xlink:href="#font_1_2" transform="matrix(10.909754,0,0,-10.9091,102.36621,15.434006)"/>
<use data-text="=" xlink:href="#font_1_5" transform="matrix(10.909754,0,0,-10.9091,109.6212,15.434006)"/>
<use data-text="x" xlink:href="#font_3_3" transform="matrix(10.909754,0,0,-10.9091,121.155338,15.434006)"/>
<use data-text="0" xlink:href="#font_4_1" transform="matrix(7.9705779,0,0,-7.9701,127.39072,17.070008)"/>
<use data-text="e" xlink:href="#font_3_1" transform="matrix(10.909754,0,0,-10.9091,132.12299,15.434006)"/>
<use data-text="&#x2212;" xlink:href="#font_5_1" transform="matrix(7.9705779,0,0,-7.9701,137.2033,11.475006)"/>
<use data-text="t" xlink:href="#font_6_1" transform="matrix(7.9705779,0,0,-7.9701,143.78969,11.475006)"/>
<path transform="matrix(1.00006,0,0,-1,66.02605,26.421006)" stroke-width="2.98883" stroke-linecap="butt" stroke-miterlimit="10" stroke-linejoin="miter" fill="none" stroke="#0000ff" d="M0 0H8.50412 17.00826"/>
<use data-text="y" xlink:href="#font_3_4" transform="matrix(10.909754,0,0,-10.9091,86.52127,30.15001)"/>
<use data-text="(" xlink:href="#font_1_1" transform="matrix(10.909754,0,0,-10.9091,92.26163,30.15001)"/>
<use data-text="t" xlink:href="#font_3_2" transform="matrix(10.909754,0,0,-10.9091,96.50488,30.15001)"/>
<use data-text=")" xlink:href="#font_1_2" transform="matrix(10.909754,0,0,-10.9091,100.44411,30.15001)"/>
<use data-text="=" xlink:href="#font_1_5" transform="matrix(10.909754,0,0,-10.9091,107.6991,30.15001)"/>
<use data-text="y" xlink:href="#font_3_4" transform="matrix(10.909754,0,0,-10.9091,119.23323,30.15001)"/>
<use data-text="0" xlink:href="#font_4_1" transform="matrix(7.9705779,0,0,-7.9701,124.58255,31.78601)"/>
<use data-text="e" xlink:href="#font_3_1" transform="matrix(10.909754,0,0,-10.9091,129.31484,30.15001)"/>
<use data-text="&#x2212;" xlink:href="#font_5_1" transform="matrix(7.9705779,0,0,-7.9701,134.39414,26.19101)"/>
<use data-text="2" xlink:href="#font_4_2" transform="matrix(7.9705779,0,0,-7.9701,140.98154,26.19101)"/>
<use data-text="t" xlink:href="#font_6_1" transform="matrix(7.9705779,0,0,-7.9701,145.21578,26.19101)"/>
</svg>
