<svg xmlns="http://www.w3.org/2000/svg" xmlns:xlink="http://www.w3.org/1999/xlink" version="1.1" width="164" height="54" viewBox="0 0 164 54">
<defs>
<path id="font_1_1" d="M.6589966 .23046875C.6759949 .23046875 .69400027 .23046875 .69400027 .25045777 .69400027 .27046205 .6759949 .27046205 .6589966 .27046205H.117996219C.100997928 .27046205 .08299255 .27046205 .08299255 .25045777 .08299255 .23046875 .100997928 .23046875 .117996219 .23046875H.6589966Z"/>
<path id="font_2_4" d="M.36099244 .6508026C.36099244 .6697998 .36099244 .6748047 .34700013 .6748047 .33898927 .6748047 .33599855 .6748047 .32798768 .662796L.026992798 .19598389V.16699219H.2899933V.07598877C.2899933 .038986207 .28799439 .0289917 .21499634 .0289917H.19499207V0C.21798706 .0019989014 .29699708 .0019989014 .32499696 .0019989014 .35299684 .0019989014 .43299867 .0019989014 .45599366 0V.0289917H.43598939C.3639984 .0289917 .36099244 .038986207 .36099244 .07598877V.16699219H.46199037V.19598389H.36099244V.6508026M.29499818 .5728302V.19598389H.051986696L.29499818 .5728302Z"/>
<path id="font_2_3" d="M.43998719 .16790772H.41799928C.4149933 .15092469 .40699769 .09597778 .39698792 .07998657 .3899994 .070999149 .33299256 .070999149 .30299378 .070999149H.117996219C.14498902 .09397888 .20599365 .15792847 .23199463 .18190003 .38398744 .3217926 .43998719 .37374879 .43998719 .47270204 .43998719 .5878906 .34899903 .66503909 .23298645 .66503909 .116989139 .66503909 .04899597 .5658264 .04899597 .4797058 .04899597 .42871095 .09298706 .42871095 .09599304 .42871095 .116989139 .42871095 .14299011 .44371034 .14299011 .475708 .14299011 .5037079 .12399292 .5227051 .09599304 .5227051 .08699036 .5227051 .084991458 .5227051 .08198547 .521698 .100997928 .5899048 .15499878 .6360321 .21998596 .6360321 .30499269 .6360321 .35699464 .56481936 .35699464 .47270204 .35699464 .3877411 .30799867 .313797 .25099183 .24984741L.04899597 .023986817V0H.4139862L.43998719 .16790772Z"/>
<path id="font_2_5" d="M.12799073 .5727997C.17098999 .5588074 .20599365 .5578003 .21699524 .5578003 .32998658 .5578003 .4019928 .6409912 .4019928 .6550598 .4019928 .6590576 .3999939 .6640625 .3939972 .6640625 .3919983 .6640625 .3899994 .6640625 .3809967 .66004946 .32499696 .6358795 .2769928 .6328125 .25099183 .6328125 .18499756 .6328125 .13798523 .6530609 .11898804 .6610565 .11199951 .6640625 .10998535 .6640625 .10899353 .6640625 .100997928 .6640625 .100997928 .65805056 .100997928 .64201357V.34495545C.100997928 .32695008 .100997928 .32095338 .11299133 .32095338 .117996219 .32095338 .11898804 .32196046 .1289978 .33395387 .15699768 .37493897 .20399475 .39894105 .2539978 .39894105 .30699159 .39894105 .33299256 .34994508 .34098817 .33294679 .35798646 .29396058 .35899354 .2449646 .35899354 .20697022 .35899354 .16897583 .35899354 .11193848 .33099366 .0667572 .30899049 .03060913 .269989 .005508423 .22599793 .005508423 .1599884 .005508423 .09498596 .050689699 .07699585 .12397766 .08198547 .12197876 .08799744 .12097168 .09298706 .12097168 .10998535 .12097168 .13699341 .13098145 .13699341 .16497803 .13699341 .1929779 .117996219 .20898438 .09298706 .20898438 .07499695 .20898438 .04899597 .19998169 .04899597 .16098023 .04899597 .075790408 .116989139-.021484375 .22799683-.021484375 .34098817-.021484375 .43998719 .073791507 .43998719 .20097351 .43998719 .3199463 .3600006 .4189453 .25498963 .4189453 .19799805 .4189453 .1539917 .39393617 .12799073 .36595155V.5727997Z"/>
<path id="font_2_2" d="M.28799439 .64105227C.28799439 .664032 .28799439 .66503909 .2679901 .66503909 .24398804 .6380615 .19400025 .6012573 .09098816 .6012573V.5722656C.11399841 .5722656 .1639862 .5722656 .21899414 .59825137V.07701111C.21899414 .041000368 .21598816 .0289917 .12799073 .0289917H.09700012V0C.12399292 .0019989014 .22099304 .0019989014 .2539978 .0019989014 .2869873 .0019989014 .3829956 .0019989014 .4099884 0V.0289917H.3789978C.29100038 .0289917 .28799439 .041000368 .28799439 .07701111V.64105227Z"/>
<path id="font_2_1" d="M.44799806 .31976319C.44799806 .40283204 .44299317 .48390199 .40699769 .55996707 .3659973 .64302065 .2939911 .66503909 .24499512 .66503909 .18699646 .66503909 .115997318 .63601687 .07899475 .552948 .050994874 .48989869 .040985109 .42785646 .040985109 .31976319 .040985109 .22268677 .04798889 .14962769 .083999637 .078567508 .12298584 .0025177003 .19198609-.021484375 .24398804-.021484375 .33099366-.021484375 .3809967 .030532837 .4099884 .08857727 .44599916 .16363526 .44799806 .26171876 .44799806 .31976319M.24398804-.0014953613C.21199036-.0014953613 .14698792 .016525269 .12799073 .12561035 .116989139 .18565369 .116989139 .26171876 .116989139 .33177186 .116989139 .41384889 .116989139 .48789979 .1329956 .5469513 .1499939 .6139984 .20098877 .6450348 .24398804 .6450348 .28199769 .6450348 .33999635 .6220093 .35899354 .53593447 .37199403 .4788971 .37199403 .39982606 .37199403 .33177186 .37199403 .26472474 .37199403 .18865967 .36099244 .12760926 .34199525 .01751709 .2789917-.0014953613 .24398804-.0014953613Z"/>
<clipPath id="clip_3">
<path transform="matrix(1.00006,0,0,-1,1.5442276,48.954004)" d="M0 0H160.843V47.44841H0Z"/>
</clipPath>
<path id="font_4_1" d="M.18699646 .23144531C.21598816 .23144531 .2899933 .23344422 .33999635 .2544403 .4099884 .28442384 .4149933 .34339906 .4149933 .35740663 .4149933 .40138246 .3769989 .4423828 .30799867 .4423828 .19699097 .4423828 .04598999 .34539796 .04598999 .17037964 .04598999 .06829834 .10499573-.0107421879 .20298767-.0107421879 .34599305-.0107421879 .42999269 .095321658 .42999269 .10733032 .42999269 .113342288 .42399598 .12034607 .41799928 .12034607 .41299439 .12034607 .41099549 .11834717 .40499879 .1103363 .32598878 .011245728 .21699524 .011245728 .20498657 .011245728 .1269989 .011245728 .117996219 .095321658 .117996219 .12734986 .117996219 .13935852 .11898804 .17037964 .13398743 .23144531H.18699646M.13999939 .25343324C.1789856 .40538026 .28199769 .42037965 .30799867 .42037965 .35499574 .42037965 .38198854 .39138795 .38198854 .35740663 .38198854 .25343324 .22200012 .25343324 .18099976 .25343324H.13999939Z"/>
<path id="font_5_1" d="M.22099304 .3976593H.31900025C.33799745 .3976593 .34999085 .3976593 .34999085 .4166565 .34999085 .43066407 .33699037 .43066407 .31999208 .43066407H.22898865L.2649994 .57250979C.2689972 .58750918 .2689972 .5924988 .2689972 .5934906 .2689972 .6144867 .25299073 .6244812 .23599243 .6244812 .20199585 .6244812 .19499207 .5974884 .18399048 .552536L.15299988 .43066407H.056991579C.037994386 .43066407 .024993897 .43066407 .024993897 .4116516 .024993897 .3976593 .037994386 .3976593 .054992677 .3976593H.14498902L.084991458 .15802002C.07899475 .13305664 .069992069 .09811401 .069992069 .084121707 .069992069 .024215699 .11898804-.009765625 .17199707-.009765625 .2789917-.009765625 .33999635 .13105774 .33999635 .14303589 .33999635 .15402222 .33099366 .15602112 .32499696 .15602112 .31399537 .15602112 .31298829 .15202332 .30599977 .13705445 .28599549 .08912659 .23599243 .018234253 .1749878 .018234253 .1539917 .018234253 .14199829 .032211305 .14199829 .06515503 .14199829 .084121707 .14498902 .09510803 .147995 .10809326L.22099304 .3976593Z"/>
</defs>
<path transform="matrix(1.00006,0,0,-1,1.5442276,48.954004)" stroke-width=".19925" stroke-linecap="butt" stroke-miterlimit="10" stroke-linejoin="miter" fill="none" stroke="#929292" d="M8.93571 11.8294V16.08139M44.6786 11.8294V16.08139M116.16438 11.8294V16.08139M151.90729 11.8294V16.08139"/>
<path transform="matrix(1.00006,0,0,-1,1.5442276,48.954004)" stroke-width=".19925" stroke-linecap="butt" stroke-miterlimit="10" stroke-linejoin="miter" fill="none" stroke="#929292" d="M78.29552 0H82.54747M78.29552 27.91083H82.54747M78.29552 41.86624H82.54747"/>
<path transform="matrix(1.00006,0,0,-1,1.5442276,48.954004)" stroke-width=".3985" stroke-linecap="butt" stroke-miterlimit="10" stroke-linejoin="miter" fill="none" stroke="#000000" d="M0 13.95541H158.85048"/>
<path transform="matrix(1.00006,0,0,-1,160.40424,34.998594)" d="M1.99252 0-1.19551 1.59401 0 0-1.19551-1.59401"/>
<path transform="matrix(1.00006,0,0,-1,1.5442276,48.954004)" stroke-width=".3985" stroke-linecap="butt" stroke-miterlimit="10" stroke-linejoin="miter" fill="none" stroke="#000000" d="M80.4215 0V45.45589"/>
<path transform="matrix(0,-1,-1.00006,-0,81.97055,3.4981118)" d="M1.99252 0-1.19551 1.59401 0 0-1.19551-1.59401"/>
<use data-text="&#x2212;" xlink:href="#font_1_1" transform="matrix(11.955917,0,0,-11.9552,2.9043122,48.664)"/>
<use data-text="4" xlink:href="#font_2_4" transform="matrix(11.955917,0,0,-11.9552,12.203873,48.664)"/>
<use data-text="&#x2212;" xlink:href="#font_1_1" transform="matrix(11.955917,0,0,-11.9552,38.649454,48.664)"/>
<use data-text="2" xlink:href="#font_2_3" transform="matrix(11.955917,0,0,-11.9552,47.949014,48.664)"/>
<use data-text="2" xlink:href="#font_2_3" transform="matrix(11.955917,0,0,-11.9552,114.78902,48.664)"/>
<use data-text="4" xlink:href="#font_2_4" transform="matrix(11.955917,0,0,-11.9552,150.53415,48.664)"/>
<use data-text="&#x2212;" xlink:href="#font_1_1" transform="matrix(11.955917,0,0,-11.9552,60.85678,52.308004)"/>
<use data-text="5" xlink:href="#font_2_5" transform="matrix(11.955917,0,0,-11.9552,70.15634,52.308004)"/>
<use data-text="5" xlink:href="#font_2_5" transform="matrix(11.955917,0,0,-11.9552,70.15534,24.895003)"/>
<use data-text="1" xlink:href="#font_2_2" transform="matrix(11.955917,0,0,-11.9552,64.30199,10.940002)"/>
<use data-text="0" xlink:href="#font_2_1" transform="matrix(11.955917,0,0,-11.9552,70.14844,10.940002)"/>
<g clip-path="url(#clip_3)">
<path transform="matrix(1.00006,0,0,-1,1.5442276,48.954004)" stroke-width="1.19553" stroke-linecap="butt" stroke-miterlimit="10" stroke-linejoin="miter" fill="none" stroke="#ff0000" d="M0 13.9864 1.62466 13.98935 3.24934 13.9926 4.87401 13.99614 6.49869 14.00002 8.12337 14.00426 9.74803 14.0089 11.37271 14.01399 12.99738 14.01956 14.62206 14.02567 16.24673 14.03236 17.87141 14.03967 19.4961 14.0477 21.12077 14.05649 22.74544 14.06612 24.37012 14.07664 25.99478 14.08818 27.61946 14.10081 29.24414 14.11467 30.8688 14.12982 32.49348 14.14641 34.11816 14.16458 35.74284 14.18451 37.36752 14.2063 38.99219 14.23018 40.61687 14.25633 42.24153 14.28484 43.86621 14.31635 45.49089 14.35071 47.11555 14.38841 48.74023 14.42941 50.36493 14.47464 51.9896 14.52405 53.61427 14.5782 55.23894 14.6374 56.86362 14.70244 58.4883 14.77367 60.11296 14.85126 61.73764 14.93668 63.36232 15.03021 64.98698 15.13237 66.61168 15.24432 68.23634 15.36716 69.86102 15.50143 71.4857 15.64859 73.11037 15.80966 74.73505 15.9861 76.35971 16.1796 77.98439 16.3912 79.60907 16.6229 81.23373 16.87627 82.85841 17.15414 84.4831 17.4586 86.10777 17.79193 87.73245 18.1571 89.35712 18.55707 90.9818 18.99478 92.60648 19.47438 94.23114 19.99957 95.85582 20.57489 97.48048 21.2049 99.10516 21.89488 100.72986 22.65034 102.35452 23.47784 103.9792 24.38423 105.60388 25.37659 107.22855 26.46391 108.85323 27.65387 110.47789 28.95761 112.10257 30.38535 113.72725 31.94899 115.35191 33.66136 116.97661 35.53706 118.60129 37.59108 120.22595 39.84038 121.85063 42.30444 123.4753 45.00258 125.09998 47.95694 126.72466 51.1918 128.34932 54.73648 129.974 58.61719 131.59867 62.86801 133.22336 67.52188 134.84804 72.62035 136.4727 78.20363 138.09738 84.31776 139.72205 91.01442 141.34673 98.34799 142.9714 106.3782 144.59607 115.17432 146.22075 124.80829 147.84543 135.35692 149.47011 146.91004 151.09479 159.5665 152.71945 173.42282 154.34413 188.60074 155.96881 205.21857 157.59348 223.42258 159.21816 243.36067 160.84284 265.1864"/>
<use data-text="e" xlink:href="#font_4_1" transform="matrix(13.091705,0,0,-13.09092,129.4669,11.008604)"/>
<use data-text="t" xlink:href="#font_5_1" transform="matrix(9.564694,0,0,-9.56412,135.56327,6.257803)"/>
</g>
</svg>
