<svg xmlns="http://www.w3.org/2000/svg" xmlns:xlink="http://www.w3.org/1999/xlink" version="1.1" width="307" height="210" viewBox="0 0 307 210">
<defs>
<path id="font_1_1" d="M.42799378 .45222474 .43899537 .49023438H.31199647L.34599305 .6092224 .33399964 .6162262 .23699951 .53923037 .22399903 .49023438H.14299011L.13198853 .45222474H.21499634L.125 .08627319C.10998535 .029266358 .12199402-.01171875 .17199707-.01171875 .2519989-.01171875 .31599427 .054275514 .35598756 .1292572L.33399964 .1462555C.31098939 .10726929 .2599945 .040267946 .22898865 .040267946 .20799256 .040267946 .20799256 .0632782 .21398926 .088272098L.30299378 .45222474H.42799378Z"/>
<path id="font_2_1" d="M.6349945 .2529297V.31092835H.084991458V.2529297H.6349945Z"/>
<path id="font_3_5" d="M.27198792-.01171875C.41999818-.01171875 .49899293 .07821655 .49899293 .2140503 .49899293 .3488922 .4119873 .42385865 .30799867 .421875 .23199463 .42385865 .17199707 .36886598 .14498902 .33590699H.14299011C.14399719 .5557556 .20698548 .64468386 .29699708 .64468386 .34298707 .64468386 .375 .6057129 .3899994 .5487671 .3929901 .5367737 .40098573 .527771 .41600038 .527771 .43798829 .527771 .46899415 .5447693 .46899415 .57273867 .46899415 .6127014 .41999818 .6796875 .2999878 .6796875 .22099304 .6796875 .16499329 .64967349 .12298584 .6017151 .07798767 .5497589 .04399109 .45384217 .04399109 .3089447 .04399109 .093185428 .12199402-.01171875 .27198792-.01171875M.27398683 .37086488C.33699037 .37086488 .39898683 .31393434 .39898683 .19906616 .39898683 .094192508 .35798646 .023269654 .27398683 .023269654 .18699646 .023269654 .14498902 .11616516 .14498902 .23602295 .14498902 .2969513 .18998719 .37086488 .27398683 .37086488Z"/>
<path id="font_3_4" d="M.2999878 .17871094V.0769043C.2999878 .04296875 .2889862 .036987306 .2649994 .034988405L.20098877 .0289917V0H.46499635V.0289917L.41999818 .033981325C.39698792 .036987306 .3899994 .04296875 .3899994 .0769043V.17871094H.49299623V.22570801H.3899994V.66796877H.31698609C.22299195 .5298767 .11099243 .35577394 .018997193 .19970703L.027999878 .17871094H.2999878M.09098816 .22570801C.15098572 .33476258 .22099304 .4498291 .2979889 .5709076H.2999878V.22570801H.09098816Z"/>
<path id="font_3_3" d="M.4850006 .13195801 .45700074 .13696289C.43598939 .08299255 .41600038 .07598877 .37599183 .07598877H.11999512C.13598633 .1279602 .19499207 .19892884 .28799439 .2658844 .38398744 .33584596 .45799256 .38082887 .45799256 .49276734 .45799256 .63168337 .3659973 .6796875 .26098634 .6796875 .12399292 .6796875 .052993776 .5967102 .052993776 .54473879 .052993776 .51075747 .09098816 .49476625 .10798645 .49476625 .12599182 .49476625 .1329956 .50476077 .13699341 .5217438 .15299988 .5897064 .19198609 .64468386 .2539978 .64468386 .33099366 .64468386 .35299684 .5797119 .35299684 .50675967 .35299684 .3998108 .29899598 .33984376 .21199036 .26289369 .08898926 .15594483 .04598999 .08798218 .026992798 .009994507L.036987306 0H.45098878L.4850006 .13195801Z"/>
<path id="font_3_1" d="M.2649994 .64468386C.3600006 .64468386 .3869934 .49682618 .3869934 .33398438 .3869934 .17112732 .3600006 .023269654 .2649994 .023269654 .16999817 .023269654 .14299011 .17112732 .14299011 .33398438 .14299011 .49682618 .16999817 .64468386 .2649994 .64468386M.2649994 .6796875C.099990848 .6796875 .040985109 .53378298 .040985109 .33398438 .040985109 .13417053 .099990848-.01171875 .2649994-.01171875 .42999269-.01171875 .4889984 .13417053 .4889984 .33398438 .4889984 .53378298 .42999269 .6796875 .2649994 .6796875Z"/>
<path id="font_3_2" d="M.43699647 0V.0289917L.35299684 .035995485C.33198548 .037994386 .31999208 .04598999 .31999208 .08496094V.67367556L.31498719 .6796875 .10899353 .6446991V.6197052L.20199585 .6087036C.21899414 .6067047 .22599793 .5987091 .22599793 .56973269V.08496094C.22599793 .065979007 .22299195 .053985597 .21699524 .04698181 .21199036 .039993287 .20399475 .036987306 .19299317 .035995485L.10899353 .0289917V0H.43699647Z"/>
<clipPath id="clip_4">
<path transform="matrix(1.2,0,0,-1.20006,88.74922,179.37859)" d="M-16.18948-13.45029H178.07454V147.94524H-16.18948Z"/>
</clipPath>
</defs>
<path transform="matrix(1,0,0,-1.00005,69.323,195.51898)" stroke-width=".79701" stroke-linecap="butt" stroke-miterlimit="10" stroke-linejoin="miter" fill="none" stroke="#000000" d="M-68.03217 0H33.30872"/>
<path transform="matrix(1,0,0,-1.00005,102.631717,195.51898)" stroke-width=".6376" stroke-linecap="round" stroke-linejoin="round" fill="none" stroke="#000000" d="M-1.55415 2.0722C-1.42464 1.29512 0 .1295 .38852 0 0-.1295-1.42464-1.29512-1.55415-2.0722"/>
<use data-text="t" xlink:href="#font_1_1" transform="matrix(10.0364,0,0,-10.036901,107.155,198.56813)"/>
<path transform="matrix(1.2,0,0,-1.20006,88.74922,179.37859)" stroke-width=".19925" stroke-linecap="butt" stroke-miterlimit="10" stroke-linejoin="miter" fill="none" stroke="#929292" d="M-16.18858-13.45029V-9.19832M16.18858-13.45029V-9.19832M48.56575-13.45029V-9.19832M80.94293-13.45029V-9.19832M113.3201-13.45029V-9.19832M145.69728-13.45029V-9.19832M178.07445-13.45029V-9.19832M-16.18858 147.94524V143.69326M16.18858 147.94524V143.69326M48.56575 147.94524V143.69326M80.94293 147.94524V143.69326M113.3201 147.94524V143.69326M145.69728 147.94524V143.69326M178.07445 147.94524V143.69326"/>
<path transform="matrix(1.2,0,0,-1.20006,88.74922,179.37859)" stroke-width=".19925" stroke-linecap="butt" stroke-miterlimit="10" stroke-linejoin="miter" fill="none" stroke="#929292" d="M-16.18948 0H-11.9376M-16.18948 33.62373H-11.9376M-16.18948 67.24747H-11.9376M-16.18948 100.8712H-11.9376M-16.18948 134.49494H-11.9376M178.07454 0H173.82266M178.07454 33.62373H173.82266M178.07454 67.24747H173.82266M178.07454 100.8712H173.82266M178.07454 134.49494H173.82266"/>
<path transform="matrix(1.2,0,0,-1.20006,88.74922,179.37859)" stroke-width=".3985" stroke-linecap="butt" stroke-miterlimit="10" stroke-linejoin="miter" fill="none" stroke="#000000" d="M-16.18948-13.45029V147.94524H178.07454V-13.45029H-16.18948Z"/>
<use data-text="&#x2212;" xlink:href="#font_2_1" transform="matrix(12.04368,0,0,-12.044282,61.79602,207.6628)"/>
<use data-text="6" xlink:href="#font_3_5" transform="matrix(12.04368,0,0,-12.044282,70.46242,207.6628)"/>
<use data-text="&#x2212;" xlink:href="#font_2_1" transform="matrix(12.04368,0,0,-12.044282,100.64842,207.6628)"/>
<use data-text="4" xlink:href="#font_3_4" transform="matrix(12.04368,0,0,-12.044282,109.31482,207.6628)"/>
<use data-text="&#x2212;" xlink:href="#font_2_1" transform="matrix(12.04368,0,0,-12.044282,139.50083,207.6628)"/>
<use data-text="2" xlink:href="#font_3_3" transform="matrix(12.04368,0,0,-12.044282,148.16722,207.6628)"/>
<use data-text="0" xlink:href="#font_3_1" transform="matrix(12.04368,0,0,-12.044282,182.68643,207.6628)"/>
<use data-text="2" xlink:href="#font_3_3" transform="matrix(12.04368,0,0,-12.044282,221.53882,207.6628)"/>
<use data-text="4" xlink:href="#font_3_4" transform="matrix(12.04368,0,0,-12.044282,260.39125,207.6628)"/>
<use data-text="6" xlink:href="#font_3_5" transform="matrix(12.04368,0,0,-12.044282,299.2448,207.6628)"/>
<use data-text="&#x2212;" xlink:href="#font_2_1" transform="matrix(12.04368,0,0,-12.044282,50.18843,183.41078)"/>
<use data-text="2" xlink:href="#font_3_3" transform="matrix(12.04368,0,0,-12.044282,58.854829,183.41078)"/>
<use data-text="&#x2212;" xlink:href="#font_2_1" transform="matrix(12.04368,0,0,-12.044282,50.18843,143.05997)"/>
<use data-text="1" xlink:href="#font_3_2" transform="matrix(12.04368,0,0,-12.044282,58.854829,143.05997)"/>
<use data-text="0" xlink:href="#font_3_1" transform="matrix(12.04368,0,0,-12.044282,58.854814,102.67675)"/>
<use data-text="1" xlink:href="#font_3_2" transform="matrix(12.04368,0,0,-12.044282,58.854814,62.359537)"/>
<use data-text="2" xlink:href="#font_3_3" transform="matrix(12.04368,0,0,-12.044282,58.854814,22.008728)"/>
<g clip-path="url(#clip_4)">
<path transform="matrix(1.2,0,0,-1.20006,88.74922,179.37859)" stroke-width=".3985" stroke-linecap="butt" stroke-miterlimit="10" stroke-linejoin="miter" fill="none" stroke="#000000" d="M0 67.24747H.24403 .48807 .73212 .97615 1.2202 1.46425 1.70828 1.95232 2.19638 2.44041 2.68445 2.9285 3.17255 3.4166 3.66063 3.90466 4.14871 4.39276 4.6368 4.88084 5.12488 5.36894 5.61298 5.85701 6.10106 6.34511 6.58914 6.83319 7.07722 7.32126 7.56532 7.80936 8.05339 8.29744 8.54149 8.78554 9.02957 9.2736 9.51767 9.7617 10.00574 10.24979 10.49382 10.73788 10.98192 11.22595 11.47 11.71405 11.95808 12.20213 12.44617 12.69022 12.93427 13.1783 13.42233 13.66638 13.91043 14.15448 14.39851 14.64255 14.88661 15.13065 15.37468 15.61873 15.86278 16.10683 16.35086 16.5949 16.83894 17.083 17.32703 17.57108 17.81511 18.05916 18.3032 18.54724 18.79129 19.03534 19.27937 19.52342 19.76746 20.01149 20.25555 20.49959 20.74362 20.98767 21.23172 21.47577 21.7198 21.96384 22.2079 22.45193 22.69597 22.94002 23.18405 23.4281 23.67215 23.91618 24.16023 24.40428 24.64833 24.89235 25.1364 25.38043 25.6245 25.86855 26.11256 26.35661 26.60065 26.84471 27.08876 27.33278 27.57684 27.82086 28.06491 28.30898 28.55301 28.79706 29.04108 29.28513 29.52917 29.77321 30.01727 30.26129 30.50534 30.7494 30.99342 31.23749 31.48149 31.72557 31.96962 32.21364 32.45769 32.7017 32.94579 33.18983 33.43385 33.6779 33.92194 34.16599 34.41005 34.65407 34.89813 35.14215 35.3862 35.63026 35.87427 36.11835 36.36237 36.60641 36.85046 37.0945 37.33856 37.58257 37.82663 38.0707 38.31471 38.55878 38.80278 39.04684 39.29091 39.53493 39.77898 40.023 40.26707 40.51112 40.75514 40.99919 41.24323 41.48727 41.73134 41.97536 42.2194 42.46344 42.70749 42.95155 43.19556 43.43964 43.68365 43.9277 44.17175 44.41579 44.65985 44.90385 45.14792 45.39197 45.636 45.88005 46.12407 46.36813 46.6122 46.85622 47.10027 47.34428 47.58835 47.83241 48.07643 48.32048 48.5645"/>
<path transform="matrix(1.2,0,0,-1.20006,88.74922,179.37859)" stroke-width=".3985" stroke-linecap="butt" stroke-miterlimit="10" stroke-linejoin="miter" fill="none" stroke="#000000" d="M48.56575 134.49494 48.80978 133.48505 49.05383 132.48271 49.29788 131.488 49.54192 130.50106 49.78595 129.52162 50.03001 128.54996 50.27405 127.58583 50.51808 126.62944 50.76213 125.6806 51.00616 124.73936 51.25021 123.80591 51.49426 122.88 51.7383 121.9618 51.98235 121.05116 52.2264 120.14825 52.47043 119.25288 52.71448 118.36526 52.95851 117.4852 53.20256 116.61285 53.44661 115.74806 53.69064 114.8909 53.9347 114.04147 54.17873 113.19962 54.42278 112.36548 54.66682 111.53888 54.91086 110.72003 55.15489 109.90874 55.39896 109.10515 55.64299 108.30914 55.88702 107.52083 56.13107 106.74011 56.37512 105.96701 56.61916 105.20163 56.8632 104.44382 57.10724 103.69373 57.35129 102.95122 57.59534 102.21637 57.83937 101.48915 58.08342 100.7696 58.32745 100.05766 58.5715 99.35335 58.81555 98.65672 59.05959 97.9677 59.30363 97.28636 59.54768 96.61261 59.79172 95.94656 60.03577 95.2881 60.2798 94.63734 60.52383 93.99414 60.7679 93.35867 61.01193 92.73077 61.25597 92.1105 61.50002 91.49794 61.74406 90.89297 61.9881 90.29567 62.23215 89.70598 62.47618 89.12398 62.72025 88.54958 62.96428 87.98285 63.20831 87.42372 63.45236 86.87228 63.6964 86.32846 63.94044 85.79222 64.1845 85.26372 64.42853 84.7428 64.67258 84.22958 64.91663 83.72395 65.16066 83.22595 65.40471 82.73564 65.64874 82.25294 65.89279 81.77788 66.13684 81.31049 66.38087 80.85071 66.62491 80.39857 66.86896 79.95409 67.113 79.51724 67.35706 79.08804 67.60109 78.66647 67.84512 78.25256 68.08919 77.84627 68.33322 77.44763 68.57726 77.05663 68.8213 76.67326 69.06535 76.29755 69.30939 75.92947 69.55344 75.56905 69.79747 75.21625 70.04152 74.8711 70.28557 74.53358 70.5296 74.20372 70.77365 73.8815 71.01768 73.5669 71.26173 73.25995 71.50578 72.96066 71.74982 72.66899 71.99385 72.38496 72.23792 72.10858 72.48195 71.83984 72.726 71.57875 72.97003 71.32529 73.2141 71.07945 73.45811 70.84131 73.70216 70.61075 73.94618 70.3879 74.19025 70.1726 74.43431 69.96498 74.67833 69.76503 74.92238 69.5727 75.1664 69.38803 75.41048 69.21097 75.65453 69.04155 75.89854 68.8798 76.1426 68.72568 76.38663 68.57921 76.63068 68.44037 76.87474 68.30916 77.11876 68.18561 77.36281 68.06967 77.60684 67.96141 77.85089 67.86078 78.09494 67.76776 78.33896 67.68243 78.58304 67.6047 78.82706 67.53464 79.0711 67.47221 79.31516 67.41742 79.55919 67.37029 79.80325 67.33076 80.04726 67.29892 80.29132 67.27469 80.53537 67.2581 80.7794 67.24916 81.02345 67.24788 81.26747 67.25421 81.51154 67.2682 81.7556 67.28983 81.99962 67.31908 82.24367 67.35599 82.48769 67.40053 82.73175 67.45274 82.97581 67.51256 83.21983 67.58003 83.46388 67.65515 83.7079 67.7379 83.95197 67.82831 84.19603 67.92635 84.44003 68.03201 84.6841 68.14534 84.92813 68.26628 85.17218 68.3949 85.41623 68.53113 85.66025 68.675 85.90433 68.82654 86.14833 68.98569 86.3924 69.15251 86.63644 69.32698 86.88046 69.50903 87.12454 69.69878 87.36855 69.89613 87.61261 70.10117 87.85666 70.31383 88.1007 70.5341 88.34474 70.76205 88.58876 70.9976 88.83282 71.24084 89.07689 71.49171 89.3209 71.7502 89.56496 72.01636 89.80898 72.29012 90.05302 72.57156 90.2971 72.86064 90.54112 73.15732 90.78517 73.46169 91.02919 73.77364 91.27325 74.09329 91.51732 74.42058 91.76132 74.75546 92.00539 75.09804 92.24942 75.4482 92.49347 75.80608 92.73752 76.17155 92.98154 76.54465 93.2256 76.92545 93.46962 77.3138 93.71368 77.70985 93.95773 78.11359 94.20175 78.52486 94.44582 78.94385 94.68983 79.37042 94.9339 79.80469 95.17795 80.24661 95.42198 80.69609 95.66603 81.1533 95.91005 81.61806 96.1541 82.09056 96.39816 82.57068 96.6422 83.05838 96.88625 83.55377 97.13026 84.05675"/>
<path transform="matrix(1.2,0,0,-1.20006,88.74922,179.37859)" stroke-width=".3985" stroke-linecap="butt" stroke-miterlimit="10" stroke-linejoin="miter" fill="none" stroke="#000000" d="M97.13152 67.24747 97.2942 66.90955 97.4569 66.57161 97.61958 66.2337 97.78227 65.89578 97.94499 65.55788 98.10768 65.21994 98.27037 64.88203 98.43306 64.54411 98.59576 64.20619 98.75845 63.86827 98.92116 63.53035 99.08385 63.19243 99.24655 62.85452 99.40924 62.51659 99.57193 62.17868 99.73462 61.84076 99.89732 61.50285 100.06003 61.16492 100.22272 60.827 100.3854 60.48909 100.54811 60.15117 100.7108 59.81326 100.87349 59.47533 101.0362 59.1374 101.1989 58.7995 101.36159 58.46158 101.52428 58.12366 101.68697 57.78574 101.84967 57.44781 102.01236 57.10991 102.17506 56.77197 102.33775 56.43407 102.50046 56.09615 102.66315 55.75822 102.82584 55.4203 102.98853 55.08238 103.15125 54.74448 103.31393 54.40656 103.47662 54.06862 103.63931 53.73071 103.80202 53.39279 103.9647 53.05489 104.1274 52.71695 104.2901 52.37904 104.4528 52.04112 104.6155 51.7032 104.77818 51.3653 104.94087 51.02736 105.10358 50.68944 105.26628 50.35153 105.42897 50.01361 105.59166 49.67569 105.75436 49.33777 105.91705 48.99986 106.07974 48.66194 106.24243 48.324 106.40515 47.9861 106.56784 47.64818 106.73053 47.31026 106.89322 46.97234 107.05592 46.63441 107.21861 46.29651 107.38132 45.95859 107.544 45.62067 107.70671 45.28275 107.8694 44.94482 108.03209 44.60692 108.19478 44.26898 108.35748 43.93106 108.52019 43.59315 108.68288 43.25523 108.84557 42.91733 109.00827 42.57939 109.17096 42.24149 109.33365 41.90356 109.49635 41.56564 109.65904 41.22772 109.82175 40.8898 109.98444 40.55188 110.14713 40.21397 110.30981 39.87604 110.47252 39.53813 110.63522 39.20021 110.79791 38.8623 110.96062 38.52437 111.1233 38.18645 111.286 37.84854 111.44868 37.51062 111.6114 37.17268 111.7741 36.83478 111.93678 36.49686 112.09947 36.15895 112.26218 35.82103 112.42487 35.48311 112.58755 35.14519 112.75026 34.80727 112.91295 34.46936 113.07565 34.13142 113.23834 33.79352 113.40103 33.4556 113.56374 33.11766 113.72643 32.77975 113.88913 32.44182 114.05182 32.10394 114.21451 31.766 114.37721 31.42805 114.5399 31.09018 114.7026 30.75224 114.8653 30.41435 115.028 30.0764 115.1907 29.73846 115.35338 29.40057 115.51608 29.06264 115.67876 28.72475 115.84148 28.38681 116.00418 28.04887 116.16685 27.711 116.32956 27.37306 116.49223 27.03516 116.65494 26.69722 116.81764 26.35928 116.98033 26.02141 117.14304 25.68344 117.30573 25.34557 117.46841 25.00763 117.63112 24.6697 117.79381 24.3318 117.95653 23.99387 118.1192 23.65598 118.2819 23.31804 118.44461 22.98009 118.60728 22.64221 118.76999 22.30426 118.93266 21.96638 119.09538 21.62843 119.25809 21.2905 119.42076 20.95262 119.58347 20.61469 119.74614 20.27678 119.90884 19.93884 120.07156 19.6009 120.23424 19.26303 120.39694 18.9251 120.55962 18.58719 120.72232 18.24925 120.88503 17.91132 121.04771 17.57344 121.21042 17.23549 121.37311 16.8976 121.53581 16.55966 121.69852 16.22173 121.86119 15.88383 122.0239 15.5459 122.18658 15.20801 122.34929 14.87007 122.512 14.53212 122.67467 14.19424 122.83737 13.85631 123.00005 13.51842 123.16275 13.18047 123.32547 12.84253 123.48814 12.50465 123.65085 12.16672 123.81352 11.82881 123.97623 11.49088 124.13893 11.15294 124.30162 10.81506 124.46432 10.47713 124.62701 10.13922 124.78972 9.80128 124.95241 9.46335 125.1151 9.12547 125.2778 8.78752 125.44049 8.44963 125.6032 8.1117 125.7659 7.77376 125.92857 7.43587 126.09128 7.09793 126.25395 6.76004 126.41667 6.4221 126.57938 6.08415 126.74205 5.74628 126.90475 5.40834 127.06743 5.07045 127.23013 4.7325 127.39284 4.39456 127.55553 4.05669 127.71823 3.71875 127.88092 3.38084 128.04363 3.04291 128.20632 2.70497 128.369 2.3671 128.53173 2.02916 128.6944 1.69125 128.8571 1.35332 129.0198 1.01538 129.18248 .6775 129.34519 .33955 129.50786 .00166"/>
<path transform="matrix(1.2,0,0,-1.20006,88.74922,179.37859)" stroke-width=".3985" stroke-linecap="butt" stroke-miterlimit="10" stroke-linejoin="miter" fill="none" stroke="#000000" d="M129.50868 0H129.67137 129.83408 129.99677 130.15946 130.32216 130.48485 130.64754 130.81024 130.97295 131.13564 131.29833 131.46102 131.62372 131.7864 131.94911 132.1118 132.2745 132.4372 132.59989 132.76258 132.9253 133.08798 133.25067 133.41336 133.57607 133.73876 133.90145 134.06415 134.22686 134.38954 134.55223 134.71492 134.87763 135.04033 135.20302 135.3657 135.52841 135.6911 135.85379 136.01648 136.1792 136.34189 136.50458 136.66727 136.82997 136.99266 137.15537 137.31806 137.48076 137.64345 137.80614 137.96883 138.13153 138.29424 138.45693 138.61962 138.78232 138.945 139.1077 139.2704 139.4331 139.5958 139.75849 139.92118 140.08388 140.24657 140.40927 140.57196 140.73467 140.89736 141.06005 141.22274 141.38545 141.54814 141.71083 141.87352 142.03621 142.19892 142.3616 142.5243 142.687 142.8497 143.01239 143.17508 143.33779 143.50049 143.66318 143.82587 143.98857 144.15126 144.31395 144.47664 144.63936 144.80205 144.96474 145.12743 145.29012 145.45282 145.61553 145.77822 145.94092 146.10359 146.2663 146.42899 146.59168 146.7544 146.91709 147.07979 147.24246 147.40517 147.56787 147.73056 147.89327 148.05594 148.21865 148.38135 148.54402 148.70673 148.86942 149.03212 149.19483 149.3575 149.5202 149.68289 149.8456 150.0083 150.17099 150.3337 150.49637 150.65908 150.82178 150.98447 151.14717 151.30985 151.47255 151.63526 151.79793 151.96065 152.12332 152.28603 152.44873 152.6114 152.77411 152.93679 153.0995 153.2622 153.4249 153.58759 153.75028 153.91298 154.0757 154.23838 154.40108 154.56375 154.72646 154.88916 155.05184 155.21456 155.37723 155.53993 155.70264 155.86531 156.02802 156.1907 156.35341 156.51612 156.67879 156.84149 157.00418 157.16689 157.32959 157.49228 157.65499 157.81766 157.98036 158.14307 158.30576 158.46846 158.63114 158.79384 158.95655 159.11922 159.28192 159.44461 159.60732 159.77002 159.9327 160.0954 160.25809 160.4208 160.5835 160.74619 160.90889 161.07157 161.23427 161.39698 161.55966 161.72237 161.88504"/>
</g>
</svg>
