<svg xmlns="http://www.w3.org/2000/svg" xmlns:xlink="http://www.w3.org/1999/xlink" version="1.1" width="8" height="59" viewBox="0 0 8 59">
<path transform="matrix(1.00006,0,0,-1,3.961197,29.543999)" stroke-width="1.19553" stroke-linecap="butt" stroke-miterlimit="10" stroke-linejoin="miter" fill="none" stroke="#000000" d="M0-28.3468V28.3468"/>
<path transform="matrix(1.00006,0,0,-1,3.961197,29.543999)" stroke-width="1.19553" stroke-linecap="butt" stroke-miterlimit="10" stroke-linejoin="miter" fill="none" stroke="#008080" d="M0 21.2601V23.03075"/>
<path transform="matrix(0,1,1.00006,0,3.961197,6.5132486)" d="M3.18808 0-1.91284 2.55046 0 0-1.91284-2.55046" fill="#008080"/>
<path transform="matrix(1.00006,0,0,-1,3.961197,29.543999)" d="M1.49442 14.17339C1.49442 14.99873 .82533 15.6678 0 15.6678-.82533 15.6678-1.49442 14.99873-1.49442 14.17339-1.49442 13.34804-.82533 12.67897 0 12.67897 .82533 12.67897 1.49442 13.34804 1.49442 14.17339ZM0 14.17339"/>
<path transform="matrix(1.00006,0,0,-1,3.961197,29.543999)" stroke-width=".3985" stroke-linecap="butt" stroke-miterlimit="10" stroke-linejoin="miter" fill="none" stroke="#000000" d="M1.49442 14.17339C1.49442 14.99873 .82533 15.6678 0 15.6678-.82533 15.6678-1.49442 14.99873-1.49442 14.17339-1.49442 13.34804-.82533 12.67897 0 12.67897 .82533 12.67897 1.49442 13.34804 1.49442 14.17339ZM0 14.17339"/>
<path transform="matrix(1.00006,0,0,-1,3.961197,29.543999)" stroke-width="1.19553" stroke-linecap="butt" stroke-miterlimit="10" stroke-linejoin="miter" fill="none" stroke="#008080" d="M0 8.50412V6.73323"/>
<path transform="matrix(0,-1,-1.00006,-0,3.961197,22.810769)" d="M3.18808 0-1.91284 2.55046 0 0-1.91284-2.55046" fill="#008080"/>
<path transform="matrix(1.00006,0,0,-1,3.961197,29.543999)" d="M1.49442 0C1.49442 .82533 .82533 1.49442 0 1.49442-.82533 1.49442-1.49442 .82533-1.49442 0-1.49442-.82533-.82533-1.49442 0-1.49442 .82533-1.49442 1.49442-.82533 1.49442 0ZM0 0"/>
<path transform="matrix(1.00006,0,0,-1,3.961197,29.543999)" stroke-width=".3985" stroke-linecap="butt" stroke-miterlimit="10" stroke-linejoin="miter" fill="none" stroke="#000000" d="M1.49442 0C1.49442 .82533 .82533 1.49442 0 1.49442-.82533 1.49442-1.49442 .82533-1.49442 0-1.49442-.82533-.82533-1.49442 0-1.49442 .82533-1.49442 1.49442-.82533 1.49442 0ZM0 0"/>
<path transform="matrix(1.00006,0,0,-1,3.961197,29.543999)" stroke-width="1.19553" stroke-linecap="butt" stroke-miterlimit="10" stroke-linejoin="miter" fill="none" stroke="#008080" d="M0-8.50412V-6.73323"/>
<path transform="matrix(0,1,1.00006,0,3.961197,36.27723)" d="M3.18808 0-1.91284 2.55046 0 0-1.91284-2.55046" fill="#008080"/>
<path transform="matrix(1.00006,0,0,-1,3.961197,29.543999)" d="M1.49442-14.17339C1.49442-13.34804 .82533-12.67897 0-12.67897-.82533-12.67897-1.49442-13.34804-1.49442-14.17339-1.49442-14.99873-.82533-15.6678 0-15.6678 .82533-15.6678 1.49442-14.99873 1.49442-14.17339ZM0-14.17339"/>
<path transform="matrix(1.00006,0,0,-1,3.961197,29.543999)" stroke-width=".3985" stroke-linecap="butt" stroke-miterlimit="10" stroke-linejoin="miter" fill="none" stroke="#000000" d="M1.49442-14.17339C1.49442-13.34804 .82533-12.67897 0-12.67897-.82533-12.67897-1.49442-13.34804-1.49442-14.17339-1.49442-14.99873-.82533-15.6678 0-15.6678 .82533-15.6678 1.49442-14.99873 1.49442-14.17339ZM0-14.17339"/>
<path transform="matrix(1.00006,0,0,-1,3.961197,29.543999)" stroke-width="1.19553" stroke-linecap="butt" stroke-miterlimit="10" stroke-linejoin="miter" fill="none" stroke="#008080" d="M0-22.67752V-20.90665"/>
<path transform="matrix(0,1,1.00006,0,3.961197,50.45065)" d="M3.18808 0-1.91284 2.55046 0 0-1.91284-2.55046" fill="#008080"/>
</svg>
