<svg xmlns="http://www.w3.org/2000/svg" xmlns:xlink="http://www.w3.org/1999/xlink" version="1.1" width="156" height="93" viewBox="0 0 156 93">
<defs>
<path id="font_1_2" d="M.43699647 0V.0289917L.35299684 .035995485C.33198548 .037994386 .31999208 .04598999 .31999208 .08496094V.67367556L.31498719 .6796875 .10899353 .6446991V.6197052L.20199585 .6087036C.21899414 .6067047 .22599793 .5987091 .22599793 .56973269V.08496094C.22599793 .065979007 .22299195 .053985597 .21699524 .04698181 .21199036 .039993287 .20399475 .036987306 .19299317 .035995485L.10899353 .0289917V0H.43699647Z"/>
<path id="font_1_3" d="M.4850006 .13195801 .45700074 .13696289C.43598939 .08299255 .41600038 .07598877 .37599183 .07598877H.11999512C.13598633 .1279602 .19499207 .19892884 .28799439 .2658844 .38398744 .33584596 .45799256 .38082887 .45799256 .49276734 .45799256 .63168337 .3659973 .6796875 .26098634 .6796875 .12399292 .6796875 .052993776 .5967102 .052993776 .54473879 .052993776 .51075747 .09098816 .49476625 .10798645 .49476625 .12599182 .49476625 .1329956 .50476077 .13699341 .5217438 .15299988 .5897064 .19198609 .64468386 .2539978 .64468386 .33099366 .64468386 .35299684 .5797119 .35299684 .50675967 .35299684 .3998108 .29899598 .33984376 .21199036 .26289369 .08898926 .15594483 .04598999 .08798218 .026992798 .009994507L.036987306 0H.45098878L.4850006 .13195801Z"/>
<path id="font_1_4" d="M.12998963 .3657837C.12998963 .3487854 .1349945 .33779908 .147995 .33779908 .1599884 .33779908 .18699646 .34777833 .23498535 .34777833 .31999208 .34777833 .36799623 .27090455 .36799623 .18403626 .36799623 .065216068 .30899049 .023269654 .23799134 .023269654 .17199707 .023269654 .1289978 .07319641 .10998535 .12911988 .10398865 .14808655 .09399414 .15707398 .07998657 .15707398 .06199646 .15707398 .026992798 .13809204 .026992798 .10215759 .026992798 .05921936 .09599304-.01171875 .23699951-.01171875 .38198854-.01171875 .47299195 .06121826 .47299195 .18902588 .47299195 .32281495 .35798646 .3627777 .30299378 .3677826V.3717804C.35699464 .38078309 .44400025 .4207611 .44400025 .5197296 .44400025 .6306915 .35699464 .6796875 .25 .6796875 .117996219 .6796875 .052993776 .60369876 .052993776 .5607147 .052993776 .5297241 .08799744 .51272585 .101989749 .51272585 .114990238 .51272585 .12298584 .5197296 .1269989 .5327301 .14898682 .60069277 .18699646 .64468386 .24299622 .64468386 .32199098 .64468386 .34098817 .57470706 .34098817 .51872256 .34098817 .4587555 .31999208 .38378907 .23498535 .38378907 .18699646 .38378907 .1599884 .39378358 .147995 .39378358 .1349945 .39378358 .12998963 .38378907 .12998963 .3657837Z"/>
<path id="font_1_5" d="M.2999878 .17871094V.0769043C.2999878 .04296875 .2889862 .036987306 .2649994 .034988405L.20098877 .0289917V0H.46499635V.0289917L.41999818 .033981325C.39698792 .036987306 .3899994 .04296875 .3899994 .0769043V.17871094H.49299623V.22570801H.3899994V.66796877H.31698609C.22299195 .5298767 .11099243 .35577394 .018997193 .19970703L.027999878 .17871094H.2999878M.09098816 .22570801C.15098572 .33476258 .22099304 .4498291 .2979889 .5709076H.2999878V.22570801H.09098816Z"/>
<path id="font_1_6" d="M.42599488 .5919647 .44999696 .6599579 .44499208 .66796877H.11099243L.100997928 .65896609 .08099365 .32388307 .10499573 .31188966C.14698792 .35983277 .18798828 .3828125 .24198914 .3828125 .30599977 .3828125 .37599183 .3358612 .37599183 .20404053 .37599183 .10116577 .33399964 .023269654 .24699402 .023269654 .1769867 .023269654 .14099121 .07420349 .12098694 .13113404 .115997318 .14611817 .10699463 .15510559 .09298706 .15510559 .07299805 .15510559 .039993287 .13513184 .039993287 .10217285 .039993287 .056228639 .10998535-.01171875 .23999024-.01171875 .40499879-.01171875 .47999574 .0881958 .47999574 .21502686 .47999574 .35484315 .3919983 .4268036 .272995 .4268036 .21798706 .4268036 .15899658 .4028015 .1269989 .3738098L.125 .37580873 .147995 .56292727C.15098572 .58795168 .1579895 .5919647 .1769867 .5919647H.42599488Z"/>
<path id="font_1_7" d="M.27198792-.01171875C.41999818-.01171875 .49899293 .07821655 .49899293 .2140503 .49899293 .3488922 .4119873 .42385865 .30799867 .421875 .23199463 .42385865 .17199707 .36886598 .14498902 .33590699H.14299011C.14399719 .5557556 .20698548 .64468386 .29699708 .64468386 .34298707 .64468386 .375 .6057129 .3899994 .5487671 .3929901 .5367737 .40098573 .527771 .41600038 .527771 .43798829 .527771 .46899415 .5447693 .46899415 .57273867 .46899415 .6127014 .41999818 .6796875 .2999878 .6796875 .22099304 .6796875 .16499329 .64967349 .12298584 .6017151 .07798767 .5497589 .04399109 .45384217 .04399109 .3089447 .04399109 .093185428 .12199402-.01171875 .27198792-.01171875M.27398683 .37086488C.33699037 .37086488 .39898683 .31393434 .39898683 .19906616 .39898683 .094192508 .35798646 .023269654 .27398683 .023269654 .18699646 .023269654 .14498902 .11616516 .14498902 .23602295 .14498902 .2969513 .18998719 .37086488 .27398683 .37086488Z"/>
<clipPath id="clip_2">
<path transform="matrix(1,0,0,-1.00002,6.586998,92.063549)" d="M0 0H147.65985V90.96513H0Z"/>
</clipPath>
<path id="font_1_13" d="M.36698915 .35102845V.46794129C.33399964 .49194337 .2829895 .5019531 .23799134 .5019531 .12998963 .5019531 .056991579 .45095826 .055999757 .35603334 .056991579 .27308656 .12399292 .2361145 .20698548 .21113587 .2519989 .19714356 .31498719 .17416382 .31498719 .10621643 .31498719 .055252077 .2749939 .023269654 .22200012 .023269654 .14099121 .023269654 .09599304 .082229617 .07598877 .16716004H.04699707L.056991579 .03627014C.09298706 .004272461 .1539917-.01171875 .21299744-.01171875 .33198548-.01171875 .3999939 .051254274 .3999939 .13618469 .3999939 .2241211 .34599305 .26409913 .24299622 .29606629 .20199585 .30906678 .13598633 .3300476 .13598633 .3860016 .13699341 .43795777 .17599488 .46694947 .22599793 .46694947 .29699708 .46694947 .33099366 .4119873 .33799745 .35102845H.36698915Z"/>
<path id="font_1_10" d="M.18899536 .7361908 .18199158 .7421875 .024993897 .71717837V.6921692L.06298828 .6881714C.08898926 .6851654 .09498596 .6801758 .09498596 .6421509V.087005618C.09498596 .035995485 .09199524 .033996583 .019989014 .0289917V0H.2639923V.0289917C.19299317 .033996583 .18899536 .035995485 .18899536 .087005618V.7361908Z"/>
<path id="font_1_11" d="M.28799439 .5019531C.12799073 .5019531 .04899597 .40698243 .04899597 .24510193 .04899597 .083236698 .12799073-.01171875 .28799439-.01171875 .44999696-.01171875 .5279999 .083236698 .5279999 .24510193 .5279999 .40698243 .44999696 .5019531 .28799439 .5019531M.15299988 .24510193C.15299988 .38301087 .19699097 .46694947 .28799439 .46694947 .3809967 .46694947 .42399598 .38301087 .42399598 .24510193 .42399598 .10720825 .3809967 .023269654 .28799439 .023269654 .19699097 .023269654 .15299988 .10720825 .15299988 .24510193Z"/>
<path id="font_1_12" d="M.19400025 .32104493C.19400025 .34602357 .19799805 .36001588 .20698548 .37800599 .22999573 .42396546 .272995 .44795228 .32598878 .44795228 .3659973 .44795228 .45498658 .42196656 .45498658 .25009156 .45498658 .10321045 .40899659 .023269654 .30899049 .023269654 .25698854 .023269654 .21699524 .050247194 .20098877 .096221927 .19499207 .11419678 .19400025 .13418579 .19400025 .15716553V.32104493M.02999878 .47694398V.45195008L.067993167 .4469452C.09399414 .4429474 .099990848 .43795777 .099990848 .40197755V-.14324951C.099990848-.19444275 .09498596-.19645691 .024993897-.20147705V-.23046875H.28399659V-.20147705C.19999695-.19645691 .19400025-.19444275 .19400025-.14324951V.011276245C.21499634-.0007324219 .2619934-.01171875 .30799867-.01171875 .44299317-.01171875 .5589905 .050247194 .5589905 .25608827 .5589905 .32704164 .54599 .5019531 .3639984 .5019531 .29100038 .5019531 .23298645 .4529419 .19400025 .42796327L.18099976 .5019531 .02999878 .47694398Z"/>
<path id="font_1_9" d="M.44099427 .2627716C.46199037 .2627716 .48098756 .2677765 .48098756 .30078126 .48098756 .35983277 .46199037 .5019531 .2789917 .5019531 .12298584 .5019531 .04899597 .39086915 .04899597 .24082947 .04899597 .08317566 .116989139-.01373291 .27999879-.01171875 .3909912-.010726929 .44799806 .050247194 .47499085 .1290741L.44499208 .14503479C.4169922 .08717346 .3789978 .039276124 .2999878 .039276124 .17599488 .039276124 .15098572 .15901184 .15299988 .2627716H.44099427M.1539917 .30078126C.1539917 .34181214 .16899109 .46694947 .272995 .46694947 .3659973 .46694947 .3769989 .37184144 .3769989 .33280946 .3769989 .31378175 .37098695 .30078126 .34298707 .30078126H.1539917Z"/>
<path id="font_1_8" d="M.1329956-.01171875C.17199707-.01171875 .19499207 .015274048 .19599915 .05126953 .19599915 .088272098 .17199707 .11627197 .1329956 .11627197 .09498596 .11627197 .069992069 .088272098 .069992069 .05126953 .069992069 .015274048 .09498596-.01171875 .1329956-.01171875M.1329956 .3622284C.17199707 .3622284 .19499207 .3892212 .19599915 .42622376 .19599915 .46221925 .17199707 .49023438 .1329956 .49023438 .09498596 .49023438 .069992069 .46221925 .069992069 .42622376 .069992069 .3892212 .09498596 .3622284 .1329956 .3622284Z"/>
<path id="font_3_1" d="M.6349945 .2529297V.31092835H.084991458V.2529297H.6349945Z"/>
<path id="font_1_1" d="M.2649994 .64468386C.3600006 .64468386 .3869934 .49682618 .3869934 .33398438 .3869934 .17112732 .3600006 .023269654 .2649994 .023269654 .16999817 .023269654 .14299011 .17112732 .14299011 .33398438 .14299011 .49682618 .16999817 .64468386 .2649994 .64468386M.2649994 .6796875C.099990848 .6796875 .040985109 .53378298 .040985109 .33398438 .040985109 .13417053 .099990848-.01171875 .2649994-.01171875 .42999269-.01171875 .4889984 .13417053 .4889984 .33398438 .4889984 .53378298 .42999269 .6796875 .2649994 .6796875Z"/>
<path id="font_4_1" d="M.42799378 .45222474 .43899537 .49023438H.31199647L.34599305 .6092224 .33399964 .6162262 .23699951 .53923037 .22399903 .49023438H.14299011L.13198853 .45222474H.21499634L.125 .08627319C.10998535 .029266358 .12199402-.01171875 .17199707-.01171875 .2519989-.01171875 .31599427 .054275514 .35598756 .1292572L.33399964 .1462555C.31098939 .10726929 .2599945 .040267946 .22898865 .040267946 .20799256 .040267946 .20799256 .0632782 .21398926 .088272098L.30299378 .45222474H.42799378Z"/>
<path id="font_4_2" d="M.070999149 .45393373 .07398987 .42893983 .14199829 .43093873C.1639862 .43193055 .16899109 .41493226 .1769867 .36291505 .18798828 .28489686 .20999146 .09286499 .20999146 .0128479 .20999146-.017166138 .20799256-.058166505 .18598938-.11117554 .16799927-.15318299 .14199829-.18218994 .12199402-.18218994 .10699463-.18218994 .09599304-.17118836 .08099365-.15118408 .068984989-.13517761 .06098938-.127182 .04598999-.127182 .019989014-.12818909-.005004883-.15818787-.005004883-.18719483-.005004883-.21418762 .023986817-.2421875 .067993167-.2421875 .15299988-.2421875 .18998719-.17919922 .27799989-.027160645 .2979889 .0068511965 .35798646 .11286926 .41999818 .21488953 .47698976 .30891419 .5399933 .40592958 .5399933 .4459381 .5399933 .48094178 .5289917 .5019531 .5219879 .5019531 .5029907 .5019531 .46899415 .49394227 .44400025 .47694398 .44499208 .4419403 .44299317 .3809204 .43099977 .33891297 .4149933 .28289796 .35598756 .17488098 .2899933 .06085205H.2869873C.27999879 .21388245 .26098634 .42492677 .24699402 .49795533L.23899842 .5019531 .070999149 .45393373Z"/>
</defs>
<path transform="matrix(1,0,0,-1.00002,6.586998,92.063549)" stroke-width=".3985" stroke-linecap="butt" stroke-miterlimit="10" stroke-linejoin="miter" fill="none" stroke="#cbcbcb" d="M14.76598 0V90.96513M35.86024 0V90.96513M56.95451 0V90.96513M78.04877 0V90.96513M99.14304 0V90.96513M120.2373 0V90.96513M141.33158 0V90.96513"/>
<path transform="matrix(1,0,0,-1.00002,6.586998,92.063549)" stroke-width=".3985" stroke-linecap="butt" stroke-miterlimit="10" stroke-linejoin="miter" fill="none" stroke="#cbcbcb" d="M25.31311 0V90.96513M46.40738 0V90.96513M67.50165 0V90.96513M88.5959 0V90.96513M109.69017 0V90.96513M130.78444 0V90.96513"/>
<path transform="matrix(1,0,0,-1.00002,6.586998,92.063549)" stroke-width=".3985" stroke-linecap="butt" stroke-miterlimit="10" stroke-linejoin="miter" fill="none" stroke="#cbcbcb" d="M0 25.79608H147.65985M0 52.94984H147.65985M0 80.10362H147.65985"/>
<path transform="matrix(1,0,0,-1.00002,6.586998,92.063549)" stroke-width=".3985" stroke-linecap="butt" stroke-miterlimit="10" stroke-linejoin="miter" fill="none" stroke="#cbcbcb" d="M0 39.37297H147.65985M0 66.52673H147.65985"/>
<path transform="matrix(1,0,0,-1.00002,6.586998,92.063549)" stroke-width=".19925" stroke-linecap="butt" stroke-miterlimit="10" stroke-linejoin="miter" fill="none" stroke="#929292" d="M14.76598 10.8018V13.63658M35.86024 10.8018V13.63658M56.95451 10.8018V13.63658M78.04877 10.8018V13.63658M99.14304 10.8018V13.63658M120.2373 10.8018V13.63658M141.33158 10.8018V13.63658"/>
<path transform="matrix(1,0,0,-1.00002,6.586998,92.063549)" stroke-width=".19925" stroke-linecap="butt" stroke-miterlimit="10" stroke-linejoin="miter" fill="none" stroke="#929292" d="M25.31311 10.09332V14.34505M46.40738 10.09332V14.34505M67.50165 10.09332V14.34505M88.5959 10.09332V14.34505M109.69017 10.09332V14.34505M130.78444 10.09332V14.34505"/>
<path transform="matrix(1,0,0,-1.00002,6.586998,92.063549)" stroke-width=".19925" stroke-linecap="butt" stroke-miterlimit="10" stroke-linejoin="miter" fill="none" stroke="#929292" d="M2.80139 25.79608H5.63629M2.80139 52.94984H5.63629M2.80139 80.10362H5.63629"/>
<path transform="matrix(1,0,0,-1.00002,6.586998,92.063549)" stroke-width=".19925" stroke-linecap="butt" stroke-miterlimit="10" stroke-linejoin="miter" fill="none" stroke="#929292" d="M2.09288 39.37297H6.3448M2.09288 66.52673H6.3448"/>
<path transform="matrix(1,0,0,-1.00002,6.586998,92.063549)" stroke-width=".99628" stroke-linecap="butt" stroke-miterlimit="10" stroke-linejoin="miter" fill="none" stroke="#000000" d="M0 12.2192H144.77063"/>
<path transform="matrix(1,0,0,-1.00002,151.35764,79.8441)" d="M2.8892 0-1.73352 2.31136 0 0-1.73352-2.31136"/>
<path transform="matrix(1,0,0,-1.00002,6.586998,92.063549)" stroke-width=".99628" stroke-linecap="butt" stroke-miterlimit="10" stroke-linejoin="miter" fill="none" stroke="#000000" d="M4.21884 0V88.07593"/>
<path transform="matrix(0,-1.00002,-1,-0,10.805838,3.985855)" d="M2.8892 0-1.73352 2.31136 0 0-1.73352-2.31136"/>
<use data-text="1" xlink:href="#font_1_2" transform="matrix(7.3325,0,0,-7.332647,29.954998,90.577518)"/>
<use data-text="2" xlink:href="#font_1_3" transform="matrix(7.3325,0,0,-7.332647,51.05,90.577518)"/>
<use data-text="3" xlink:href="#font_1_4" transform="matrix(7.3325,0,0,-7.332647,72.144,90.577518)"/>
<use data-text="4" xlink:href="#font_1_5" transform="matrix(7.3325,0,0,-7.332647,93.238,90.577518)"/>
<use data-text="5" xlink:href="#font_1_6" transform="matrix(7.3325,0,0,-7.332647,114.332,90.577518)"/>
<use data-text="6" xlink:href="#font_1_7" transform="matrix(7.3325,0,0,-7.332647,135.427,90.577518)"/>
<use data-text="2" xlink:href="#font_1_3" transform="matrix(7.3325,0,0,-7.332647,1.0929947,55.144807)"/>
<use data-text="4" xlink:href="#font_1_5" transform="matrix(7.3325,0,0,-7.332647,1.0929947,27.990265)"/>
<g clip-path="url(#clip_2)">
<path transform="matrix(1,0,0,-1.00002,6.586998,92.063549)" stroke-width=".99628" stroke-linecap="butt" stroke-miterlimit="10" stroke-linejoin="miter" fill="none" stroke="#000000" d="M25.31311 39.37297V39.37297L33.00168 43.08441"/>
<path transform="matrix(.90053,-.4347187,-.43471,-.90054807,39.588678,48.97827)" stroke-width=".79701" stroke-linecap="round" stroke-linejoin="round" fill="none" stroke="#000000" d="M-1.73352 2.31136C-1.58905 1.4446 0 .14444 .43336 0 0-.14444-1.58905-1.4446-1.73352-2.31136"/>
<use data-text="s" xlink:href="#font_1_13" transform="matrix(7.3325,0,0,-7.332647,16.470002,77.68426)"/>
<use data-text="l" xlink:href="#font_1_10" transform="matrix(7.3325,0,0,-7.332647,19.66697,77.68426)"/>
<use data-text="o" xlink:href="#font_1_11" transform="matrix(7.3325,0,0,-7.332647,21.712738,77.68426)"/>
<use data-text="p" xlink:href="#font_1_12" transform="matrix(7.3325,0,0,-7.332647,25.943589,77.68426)"/>
<use data-text="e" xlink:href="#font_1_9" transform="matrix(7.3325,0,0,-7.332647,30.401749,77.68426)"/>
<use data-text=":" xlink:href="#font_1_8" transform="matrix(7.3325,0,0,-7.332647,34.170656,77.68426)"/>
<use data-text="&#x2212;" xlink:href="#font_3_1" transform="matrix(7.3325,0,0,-7.332647,38.165,77.68426)"/>
<use data-text="2" xlink:href="#font_1_3" transform="matrix(7.3325,0,0,-7.332647,43.441,77.68426)"/>
<use data-text="s" xlink:href="#font_1_13" transform="matrix(7.3325,0,0,-7.332647,61.295999,77.68426)"/>
<use data-text="l" xlink:href="#font_1_10" transform="matrix(7.3325,0,0,-7.332647,64.492969,77.68426)"/>
<use data-text="o" xlink:href="#font_1_11" transform="matrix(7.3325,0,0,-7.332647,66.538738,77.68426)"/>
<use data-text="p" xlink:href="#font_1_12" transform="matrix(7.3325,0,0,-7.332647,70.769588,77.68426)"/>
<use data-text="e" xlink:href="#font_1_9" transform="matrix(7.3325,0,0,-7.332647,75.227748,77.68426)"/>
<use data-text=":" xlink:href="#font_1_8" transform="matrix(7.3325,0,0,-7.332647,78.99665,77.68426)"/>
<use data-text="0" xlink:href="#font_1_1" transform="matrix(7.3325,0,0,-7.332647,82.985538,77.68426)"/>
<use data-text="s" xlink:href="#font_1_13" transform="matrix(7.3325,0,0,-7.332647,103.485,77.68426)"/>
<use data-text="l" xlink:href="#font_1_10" transform="matrix(7.3325,0,0,-7.332647,106.68197,77.68426)"/>
<use data-text="o" xlink:href="#font_1_11" transform="matrix(7.3325,0,0,-7.332647,108.72774,77.68426)"/>
<use data-text="p" xlink:href="#font_1_12" transform="matrix(7.3325,0,0,-7.332647,112.95859,77.68426)"/>
<use data-text="e" xlink:href="#font_1_9" transform="matrix(7.3325,0,0,-7.332647,117.41675,77.68426)"/>
<use data-text=":" xlink:href="#font_1_8" transform="matrix(7.3325,0,0,-7.332647,121.18565,77.68426)"/>
<use data-text="3" xlink:href="#font_1_4" transform="matrix(7.3325,0,0,-7.332647,125.17454,77.68426)"/>
</g>
<path transform="matrix(1,0,0,-1.00002,6.586998,92.063549)" d="M27.30566 39.37297C27.30566 40.47343 26.41357 41.36552 25.31311 41.36552 24.21265 41.36552 23.32056 40.47343 23.32056 39.37297 23.32056 38.27249 24.21265 37.38042 25.31311 37.38042 26.41357 37.38042 27.30566 38.27249 27.30566 39.37297ZM25.31311 39.37297" fill="#0000cc"/>
<path transform="matrix(1,0,0,-1.00002,6.586998,92.063549)" stroke-width=".99628" stroke-linecap="butt" stroke-miterlimit="10" stroke-linejoin="miter" fill="none" stroke="#0000ff" d="M27.30566 39.37297C27.30566 40.47343 26.41357 41.36552 25.31311 41.36552 24.21265 41.36552 23.32056 40.47343 23.32056 39.37297 23.32056 38.27249 24.21265 37.38042 25.31311 37.38042 26.41357 37.38042 27.30566 38.27249 27.30566 39.37297ZM25.31311 39.37297"/>
<path transform="matrix(1,0,0,-1.00002,6.586998,92.063549)" d="M37.8528 44.4643C37.8528 45.56476 36.96071 46.45685 35.86024 46.45685 34.75977 46.45685 33.86769 45.56476 33.86769 44.4643 33.86769 43.36382 34.75977 42.47174 35.86024 42.47174 36.96071 42.47174 37.8528 43.36382 37.8528 44.4643ZM35.86024 44.4643" fill="#0000cc"/>
<path transform="matrix(1,0,0,-1.00002,6.586998,92.063549)" stroke-width=".99628" stroke-linecap="butt" stroke-miterlimit="10" stroke-linejoin="miter" fill="none" stroke="#0000ff" d="M37.8528 44.4643C37.8528 45.56476 36.96071 46.45685 35.86024 46.45685 34.75977 46.45685 33.86769 45.56476 33.86769 44.4643 33.86769 43.36382 34.75977 42.47174 35.86024 42.47174 36.96071 42.47174 37.8528 43.36382 37.8528 44.4643ZM35.86024 44.4643"/>
<path transform="matrix(1,0,0,-1.00002,6.586998,92.063549)" d="M69.4942 59.7383C69.4942 60.83876 68.60211 61.73085 67.50165 61.73085 66.40117 61.73085 65.5091 60.83876 65.5091 59.7383 65.5091 58.63782 66.40117 57.74574 67.50165 57.74574 68.60211 57.74574 69.4942 58.63782 69.4942 59.7383ZM67.50165 59.7383" fill="#0000cc"/>
<path transform="matrix(1,0,0,-1.00002,6.586998,92.063549)" stroke-width=".99628" stroke-linecap="butt" stroke-miterlimit="10" stroke-linejoin="miter" fill="none" stroke="#0000ff" d="M69.4942 59.7383C69.4942 60.83876 68.60211 61.73085 67.50165 61.73085 66.40117 61.73085 65.5091 60.83876 65.5091 59.7383 65.5091 58.63782 66.40117 57.74574 67.50165 57.74574 68.60211 57.74574 69.4942 58.63782 69.4942 59.7383ZM67.50165 59.7383"/>
<path transform="matrix(1,0,0,-1.00002,6.586998,92.063549)" stroke-width=".99628" stroke-linecap="butt" stroke-miterlimit="10" stroke-linejoin="miter" fill="none" stroke="#0000ff" d=""/>
<use data-text="t" xlink:href="#font_4_1" transform="matrix(10.0364,0,0,-10.036601,146.05399,76.05923)"/>
<use data-text="y" xlink:href="#font_4_2" transform="matrix(10.0364,0,0,-10.036601,15.050003,9.757896)"/>
</svg>
