<svg xmlns="http://www.w3.org/2000/svg" xmlns:xlink="http://www.w3.org/1999/xlink" version="1.1" width="116" height="51" viewBox="0 0 116 51">
<defs>
<path id="font_1_1" d="M.42799378 .45222474 .43899537 .49023438H.31199647L.34599305 .6092224 .33399964 .6162262 .23699951 .53923037 .22399903 .49023438H.14299011L.13198853 .45222474H.21499634L.125 .08627319C.10998535 .029266358 .12199402-.01171875 .17199707-.01171875 .2519989-.01171875 .31599427 .054275514 .35598756 .1292572L.33399964 .1462555C.31098939 .10726929 .2599945 .040267946 .22898865 .040267946 .20799256 .040267946 .20799256 .0632782 .21398926 .088272098L.30299378 .45222474H.42799378Z"/>
<path id="font_2_3" d="M.07398987 .2861328V.21612549H.31900025V.2861328H.07398987Z"/>
<path id="font_2_7" d="M.2999878 .17871094V.0769043C.2999878 .04296875 .2889862 .036987306 .2649994 .034988405L.20098877 .0289917V0H.46499635V.0289917L.41999818 .033981325C.39698792 .036987306 .3899994 .04296875 .3899994 .0769043V.17871094H.49299623V.22570801H.3899994V.66796877H.31698609C.22299195 .5298767 .11099243 .35577394 .018997193 .19970703L.027999878 .17871094H.2999878M.09098816 .22570801C.15098572 .33476258 .22099304 .4498291 .2979889 .5709076H.2999878V.22570801H.09098816Z"/>
<path id="font_2_6" d="M.4850006 .13195801 .45700074 .13696289C.43598939 .08299255 .41600038 .07598877 .37599183 .07598877H.11999512C.13598633 .1279602 .19499207 .19892884 .28799439 .2658844 .38398744 .33584596 .45799256 .38082887 .45799256 .49276734 .45799256 .63168337 .3659973 .6796875 .26098634 .6796875 .12399292 .6796875 .052993776 .5967102 .052993776 .54473879 .052993776 .51075747 .09098816 .49476625 .10798645 .49476625 .12599182 .49476625 .1329956 .50476077 .13699341 .5217438 .15299988 .5897064 .19198609 .64468386 .2539978 .64468386 .33099366 .64468386 .35299684 .5797119 .35299684 .50675967 .35299684 .3998108 .29899598 .33984376 .21199036 .26289369 .08898926 .15594483 .04598999 .08798218 .026992798 .009994507L.036987306 0H.45098878L.4850006 .13195801Z"/>
<path id="font_2_5" d="M.43699647 0V.0289917L.35299684 .035995485C.33198548 .037994386 .31999208 .04598999 .31999208 .08496094V.67367556L.31498719 .6796875 .10899353 .6446991V.6197052L.20199585 .6087036C.21899414 .6067047 .22599793 .5987091 .22599793 .56973269V.08496094C.22599793 .065979007 .22299195 .053985597 .21699524 .04698181 .21199036 .039993287 .20399475 .036987306 .19299317 .035995485L.10899353 .0289917V0H.43699647Z"/>
<path id="font_1_2" d="M.5329895 .48995973C.5039978 .388031 .48799134 .33506776 .46199037 .2741089 .41799928 .173172 .33099366 .040267946 .24798584 .040267946 .21598816 .040267946 .20799256 .070251468 .22299195 .12820435L.31900025 .4970703 .31399537 .50205996 .13198853 .47375489 .12599182 .4497528 .18798828 .44476319C.21199036 .44276429 .21099854 .42778016 .20298767 .39682008L.13398743 .13316345C.11299133 .053253175 .12098694-.01171875 .20098877-.01171875 .29699708-.01171875 .4019928 .09420776 .46199037 .21005249H.46398927L.43099977 .096206668C.4119873 .029266358 .42399598-.01171875 .47698976-.01171875 .548996-.01171875 .60899356 .057250978 .6439972 .13116455L.6199951 .14613343C.59999087 .11218262 .55599978 .040267946 .5279999 .040267946 .5069885 .040267946 .5069885 .06324768 .5149994 .09420776L.621994 .5019531 .5329895 .48995973Z"/>
<path id="font_2_4" d="M.2649994 .64468386C.3600006 .64468386 .3869934 .49682618 .3869934 .33398438 .3869934 .17112732 .3600006 .023269654 .2649994 .023269654 .16999817 .023269654 .14299011 .17112732 .14299011 .33398438 .14299011 .49682618 .16999817 .64468386 .2649994 .64468386M.2649994 .6796875C.099990848 .6796875 .040985109 .53378298 .040985109 .33398438 .040985109 .13417053 .099990848-.01171875 .2649994-.01171875 .42999269-.01171875 .4889984 .13417053 .4889984 .33398438 .4889984 .53378298 .42999269 .6796875 .2649994 .6796875Z"/>
<path id="font_2_1" d="M.1749878 .2822113C.1749878 .56832888 .2619934 .65437319 .32499696 .66737368V.6923828C.1499939 .685379 .10499573 .46829225 .10499573 .2822113 .10499573 .09614563 .1499939-.12094116 .32499696-.12792969V-.10293579C.2669983-.090927127 .1749878-.0059051516 .1749878 .2822113Z"/>
<path id="font_2_2" d="M.1749878 .2822113C.1749878-.0059051516 .08299255-.090927127 .024993897-.10293579V-.12792969C.19999695-.12094116 .24499512 .09614563 .24499512 .2822113 .24499512 .46829225 .19999695 .685379 .024993897 .6923828V.66737368C.08799744 .65437319 .1749878 .56832888 .1749878 .2822113Z"/>
</defs>
<path transform="matrix(1,0,0,-1,52.676004,32.413003)" d="M-51.02345-17.00781V30.61404H0V-17.00781ZM0 30.61404" fill="#d9d9ec"/>
<path transform="matrix(1,0,0,-1,52.676004,32.413003)" stroke-width=".3985" stroke-linecap="butt" stroke-miterlimit="10" stroke-linejoin="miter" fill="none" stroke="#000000" d="M-51.02345 0H61.90375"/>
<path transform="matrix(1,0,0,-1,114.57976,32.413003)" stroke-width=".31879" stroke-linecap="round" stroke-linejoin="round" fill="none" stroke="#000000" d="M-1.19551 1.59401C-1.09587 .99626 0 .09961 .29886 0 0-.09961-1.09587-.99626-1.19551-1.59401"/>
<path transform="matrix(1,0,0,-1,52.676004,32.413003)" stroke-width=".3985" stroke-linecap="butt" stroke-miterlimit="10" stroke-linejoin="miter" fill="none" stroke="#000000" d="M0-17.00781V30.15576"/>
<path transform="matrix(0,-1,-1,-0,52.676004,2.2572423)" stroke-width=".31879" stroke-linecap="round" stroke-linejoin="round" fill="none" stroke="#000000" d="M-1.19551 1.59401C-1.09587 .99626 0 .09961 .29886 0 0-.09961-1.09587-.99626-1.19551-1.59401"/>
<use data-text="t" xlink:href="#font_1_1" transform="matrix(9.1656,0,0,-9.1656,110.817,41.461004)"/>
<path transform="matrix(1,0,0,-1,52.676004,32.413003)" stroke-width=".79701" stroke-linecap="butt" stroke-miterlimit="10" stroke-linejoin="miter" fill="none" stroke="#929292" d="M-45.35419 2.26765V-2.26765"/>
<use data-text="-" xlink:href="#font_2_3" transform="matrix(9.1656,0,0,-9.1656,3.0930024,41.949007)"/>
<use data-text="4" xlink:href="#font_2_7" transform="matrix(9.1656,0,0,-9.1656,6.6859209,41.949007)"/>
<path transform="matrix(1,0,0,-1,52.676004,32.413003)" stroke-width=".79701" stroke-linecap="butt" stroke-miterlimit="10" stroke-linejoin="miter" fill="none" stroke="#929292" d="M-22.6771 2.26765V-2.26765"/>
<use data-text="-" xlink:href="#font_2_3" transform="matrix(9.1656,0,0,-9.1656,25.770005,41.949007)"/>
<use data-text="2" xlink:href="#font_2_6" transform="matrix(9.1656,0,0,-9.1656,29.362923,41.949007)"/>
<path transform="matrix(1,0,0,-1,52.676004,32.413003)" stroke-width=".79701" stroke-linecap="butt" stroke-miterlimit="10" stroke-linejoin="miter" fill="none" stroke="#929292" d="M22.6771 2.26765V-2.26765"/>
<use data-text="2" xlink:href="#font_2_6" transform="matrix(9.1656,0,0,-9.1656,72.922008,41.949007)"/>
<path transform="matrix(1,0,0,-1,52.676004,32.413003)" stroke-width=".79701" stroke-linecap="butt" stroke-miterlimit="10" stroke-linejoin="miter" fill="none" stroke="#929292" d="M45.35419 2.26765V-2.26765"/>
<use data-text="4" xlink:href="#font_2_7" transform="matrix(9.1656,0,0,-9.1656,95.599,41.949007)"/>
<path transform="matrix(1,0,0,-1,52.676004,32.413003)" stroke-width=".3985" stroke-linecap="butt" stroke-miterlimit="10" stroke-linejoin="miter" fill="none" stroke="#929292" d="M1.13391-11.33855H-1.13391"/>
<use data-text="-" xlink:href="#font_2_3" transform="matrix(7.3325,0,0,-7.3325,43.644006,46.206)"/>
<use data-text="1" xlink:href="#font_2_5" transform="matrix(7.3325,0,0,-7.3325,46.51834,46.206)"/>
<path transform="matrix(1,0,0,-1,52.676004,32.413003)" stroke-width=".3985" stroke-linecap="butt" stroke-miterlimit="10" stroke-linejoin="miter" fill="none" stroke="#929292" d="M1.13391 11.33855H-1.13391"/>
<use data-text="1" xlink:href="#font_2_5" transform="matrix(7.3325,0,0,-7.3325,46.522005,23.529004)"/>
<path transform="matrix(1,0,0,-1,52.676004,32.413003)" stroke-width=".3985" stroke-linecap="butt" stroke-miterlimit="10" stroke-linejoin="miter" fill="none" stroke="#929292" d="M1.13391 22.6771H-1.13391"/>
<use data-text="2" xlink:href="#font_2_6" transform="matrix(7.3325,0,0,-7.3325,46.522005,12.191002)"/>
<path transform="matrix(1,0,0,-1,52.676004,32.413003)" stroke-width="1.19553" stroke-linecap="butt" stroke-miterlimit="10" stroke-linejoin="miter" fill="none" stroke="#000000" d="M-50.06703 11.33855H-50.5174-50.01134-49.50528-48.99922-48.49315-47.98709-47.48103-46.97498-46.46892-45.96284-45.45679-44.95073-44.44464-43.93858-43.43253-42.92647-42.42041-41.91435-41.4083-40.90222-40.39616-39.8901-39.38405-38.87798-38.37192-37.86586-37.3598-36.85374-36.34767-35.8416-35.33554-34.82948-34.32343-33.81737-33.3113-32.80524-32.29918-31.79312-31.28705-30.78099-30.27493-29.76888-29.26282-28.75674-28.25069-27.74463-27.23856-26.7325-26.22644-25.72037-25.21431-24.70825-24.20218-23.69612-23.19006-22.684-22.17795-21.67189-21.16582-20.65976-20.1537-19.64764-19.14157-18.6355-18.12944-17.62338-17.11732-16.61125-16.1052-15.59914-15.09308-14.58702-14.08096-13.57489-13.06883-12.56277-12.05672-11.55066-11.04459-10.53851-10.03246-9.5264-9.02032-8.51427-8.00821-7.50215-6.9961-6.49004-5.98396-5.4779-4.97185-4.46579-3.95972-3.45366-2.9476-2.44154-1.93547-1.4294-.92334"/>
<path transform="matrix(-1,-0,0,1,2.6089707,21.074452)" stroke-width=".9564" stroke-linecap="round" stroke-linejoin="round" fill="none" stroke="#000000" d="M-1.91284 2.55046C-1.75343 1.59402 0 .15938 .4782 0 0-.15938-1.75343-1.59402-1.91284-2.55046"/>
<path transform="matrix(1,0,0,-1,52.676004,32.413003)" stroke-width="1.19553" stroke-linecap="butt" stroke-miterlimit="10" stroke-linejoin="miter" fill="none" stroke="#000000" d="M0 0H.62975 1.2595 1.88928 2.51904 3.1488 3.77858 4.40834 5.03812 5.66786 6.29764 6.9274 7.55717 8.18692 8.8167 9.44647 10.07623 10.706 11.33575 11.96553 12.59529 13.22507 13.85483 14.48459 15.11436 15.74413 16.37389 17.00365 17.63342 18.2632 18.89294 19.52272 20.15248 20.78226 21.412 22.04178 22.67155 23.30132 23.93108 24.56084 25.19061 25.82037 26.45015 27.07991 27.70967 28.33945 28.96921 29.59897 30.22873 30.8585 31.48827 32.11803 32.7478 33.37756 34.00734 34.63708 35.26686 35.89662 36.5264 37.15617 37.78592 38.4157 39.04546 39.67523 40.30498 40.93475 41.56453 42.19429 42.82405 43.45381 44.08359 44.71335 45.34311 45.97289 46.60265 47.2324 47.86217 48.49193 49.1217 49.75148 50.38124 51.011 51.64076 52.27054 52.9003 53.53006 54.15984 54.7896 55.41937 56.04912 56.6789 57.30865 57.93843 58.56819 59.19795 59.82773 60.45749 61.08727 61.71701 61.39037"/>
<path transform="matrix(1,0,0,-1,114.066379,32.413003)" stroke-width=".9564" stroke-linecap="round" stroke-linejoin="round" fill="none" stroke="#000000" d="M-1.91284 2.55046C-1.75343 1.59402 0 .15938 .4782 0 0-.15938-1.75343-1.59402-1.91284-2.55046"/>
<path transform="matrix(1,0,0,-1,52.676004,32.413003)" stroke-width=".79701" stroke-linecap="butt" stroke-miterlimit="10" stroke-linejoin="miter" fill="none" stroke="#000000" d="M1.59401 11.33855C1.59401 12.2189 .88036 12.93256 0 12.93256-.88036 12.93256-1.59401 12.2189-1.59401 11.33855-1.59401 10.45818-.88036 9.74452 0 9.74452 .88036 9.74452 1.59401 10.45818 1.59401 11.33855ZM0 11.33855"/>
<path transform="matrix(1,0,0,-1,52.676004,32.413003)" d="M1.99252 0C1.99252 1.10043 1.10043 1.99252 0 1.99252-1.10043 1.99252-1.99252 1.10043-1.99252 0-1.99252-1.10043-1.10043-1.99252 0-1.99252 1.10043-1.99252 1.99252-1.10043 1.99252 0ZM0 0"/>
<use data-text="u" xlink:href="#font_1_2" transform="matrix(9.1656,0,0,-9.1656,73.417,12.213001)"/>
<use data-text="0" xlink:href="#font_2_4" transform="matrix(6.9659,0,0,-6.9659,79.384,13.707001)"/>
<use data-text="(" xlink:href="#font_2_1" transform="matrix(9.1656,0,0,-9.1656,83.576999,12.213001)"/>
<use data-text="t" xlink:href="#font_1_1" transform="matrix(9.1656,0,0,-9.1656,86.985,12.213001)"/>
<use data-text=")" xlink:href="#font_2_2" transform="matrix(9.1656,0,0,-9.1656,91.089008,12.213001)"/>
</svg>
