<svg xmlns="http://www.w3.org/2000/svg" xmlns:xlink="http://www.w3.org/1999/xlink" version="1.1" width="156" height="84" viewBox="0 0 156 84">
<defs>
<path id="font_1_2" d="M.42799378 .45222474 .43899537 .49023438H.31199647L.34599305 .6092224 .33399964 .6162262 .23699951 .53923037 .22399903 .49023438H.14299011L.13198853 .45222474H.21499634L.125 .08627319C.10998535 .029266358 .12199402-.01171875 .17199707-.01171875 .2519989-.01171875 .31599427 .054275514 .35598756 .1292572L.33399964 .1462555C.31098939 .10726929 .2599945 .040267946 .22898865 .040267946 .20799256 .040267946 .20799256 .0632782 .21398926 .088272098L.30299378 .45222474H.42799378Z"/>
<path id="font_2_3" d="M.07398987 .2861328V.21612549H.31900025V.2861328H.07398987Z"/>
<path id="font_2_5" d="M.43699647 0V.0289917L.35299684 .035995485C.33198548 .037994386 .31999208 .04598999 .31999208 .08496094V.67367556L.31498719 .6796875 .10899353 .6446991V.6197052L.20199585 .6087036C.21899414 .6067047 .22599793 .5987091 .22599793 .56973269V.08496094C.22599793 .065979007 .22299195 .053985597 .21699524 .04698181 .21199036 .039993287 .20399475 .036987306 .19299317 .035995485L.10899353 .0289917V0H.43699647Z"/>
<path id="font_2_6" d="M.4850006 .13195801 .45700074 .13696289C.43598939 .08299255 .41600038 .07598877 .37599183 .07598877H.11999512C.13598633 .1279602 .19499207 .19892884 .28799439 .2658844 .38398744 .33584596 .45799256 .38082887 .45799256 .49276734 .45799256 .63168337 .3659973 .6796875 .26098634 .6796875 .12399292 .6796875 .052993776 .5967102 .052993776 .54473879 .052993776 .51075747 .09098816 .49476625 .10798645 .49476625 .12599182 .49476625 .1329956 .50476077 .13699341 .5217438 .15299988 .5897064 .19198609 .64468386 .2539978 .64468386 .33099366 .64468386 .35299684 .5797119 .35299684 .50675967 .35299684 .3998108 .29899598 .33984376 .21199036 .26289369 .08898926 .15594483 .04598999 .08798218 .026992798 .009994507L.036987306 0H.45098878L.4850006 .13195801Z"/>
<path id="font_2_7" d="M.12998963 .3657837C.12998963 .3487854 .1349945 .33779908 .147995 .33779908 .1599884 .33779908 .18699646 .34777833 .23498535 .34777833 .31999208 .34777833 .36799623 .27090455 .36799623 .18403626 .36799623 .065216068 .30899049 .023269654 .23799134 .023269654 .17199707 .023269654 .1289978 .07319641 .10998535 .12911988 .10398865 .14808655 .09399414 .15707398 .07998657 .15707398 .06199646 .15707398 .026992798 .13809204 .026992798 .10215759 .026992798 .05921936 .09599304-.01171875 .23699951-.01171875 .38198854-.01171875 .47299195 .06121826 .47299195 .18902588 .47299195 .32281495 .35798646 .3627777 .30299378 .3677826V.3717804C.35699464 .38078309 .44400025 .4207611 .44400025 .5197296 .44400025 .6306915 .35699464 .6796875 .25 .6796875 .117996219 .6796875 .052993776 .60369876 .052993776 .5607147 .052993776 .5297241 .08799744 .51272585 .101989749 .51272585 .114990238 .51272585 .12298584 .5197296 .1269989 .5327301 .14898682 .60069277 .18699646 .64468386 .24299622 .64468386 .32199098 .64468386 .34098817 .57470706 .34098817 .51872256 .34098817 .4587555 .31999208 .38378907 .23498535 .38378907 .18699646 .38378907 .1599884 .39378358 .147995 .39378358 .1349945 .39378358 .12998963 .38378907 .12998963 .3657837Z"/>
<path id="font_2_8" d="M.2999878 .17871094V.0769043C.2999878 .04296875 .2889862 .036987306 .2649994 .034988405L.20098877 .0289917V0H.46499635V.0289917L.41999818 .033981325C.39698792 .036987306 .3899994 .04296875 .3899994 .0769043V.17871094H.49299623V.22570801H.3899994V.66796877H.31698609C.22299195 .5298767 .11099243 .35577394 .018997193 .19970703L.027999878 .17871094H.2999878M.09098816 .22570801C.15098572 .33476258 .22099304 .4498291 .2979889 .5709076H.2999878V.22570801H.09098816Z"/>
<path id="font_2_9" d="M.42599488 .5919647 .44999696 .6599579 .44499208 .66796877H.11099243L.100997928 .65896609 .08099365 .32388307 .10499573 .31188966C.14698792 .35983277 .18798828 .3828125 .24198914 .3828125 .30599977 .3828125 .37599183 .3358612 .37599183 .20404053 .37599183 .10116577 .33399964 .023269654 .24699402 .023269654 .1769867 .023269654 .14099121 .07420349 .12098694 .13113404 .115997318 .14611817 .10699463 .15510559 .09298706 .15510559 .07299805 .15510559 .039993287 .13513184 .039993287 .10217285 .039993287 .056228639 .10998535-.01171875 .23999024-.01171875 .40499879-.01171875 .47999574 .0881958 .47999574 .21502686 .47999574 .35484315 .3919983 .4268036 .272995 .4268036 .21798706 .4268036 .15899658 .4028015 .1269989 .3738098L.125 .37580873 .147995 .56292727C.15098572 .58795168 .1579895 .5919647 .1769867 .5919647H.42599488Z"/>
<path id="font_2_10" d="M.27198792-.01171875C.41999818-.01171875 .49899293 .07821655 .49899293 .2140503 .49899293 .3488922 .4119873 .42385865 .30799867 .421875 .23199463 .42385865 .17199707 .36886598 .14498902 .33590699H.14299011C.14399719 .5557556 .20698548 .64468386 .29699708 .64468386 .34298707 .64468386 .375 .6057129 .3899994 .5487671 .3929901 .5367737 .40098573 .527771 .41600038 .527771 .43798829 .527771 .46899415 .5447693 .46899415 .57273867 .46899415 .6127014 .41999818 .6796875 .2999878 .6796875 .22099304 .6796875 .16499329 .64967349 .12298584 .6017151 .07798767 .5497589 .04399109 .45384217 .04399109 .3089447 .04399109 .093185428 .12199402-.01171875 .27198792-.01171875M.27398683 .37086488C.33699037 .37086488 .39898683 .31393434 .39898683 .19906616 .39898683 .094192508 .35798646 .023269654 .27398683 .023269654 .18699646 .023269654 .14498902 .11616516 .14498902 .23602295 .14498902 .2969513 .18998719 .37086488 .27398683 .37086488Z"/>
<path id="font_1_1" d="M.33999635 .46694947C.36999513 .46694947 .41999818 .4519348 .41999818 .38290406 .41999818 .28987123 .37199403 .21484375 .29699708 .21484375 .24398804 .21484375 .21398926 .2508545 .21398926 .3008728 .21398926 .36390687 .24499512 .46694947 .33999635 .46694947M.45700074 .4719391C.43099977 .48895265 .38198854 .5019531 .33299256 .5019531 .16899109 .5019531 .11999512 .38891603 .11999512 .31788636 .11999512 .24385071 .17399597 .20584107 .20399475 .19483948V.19284058C.17298889 .17984009 .11299133 .15783692 .11299133 .11782837 .11299133 .08482361 .14299011 .061828615 .18399048 .04283142V.04081726C.115997318 .028823853 .02999878-.013183594 .02999878-.096191409 .02999878-.18519593 .12298584-.2421875 .25-.2421875 .3849945-.2421875 .49398805-.18519593 .49398805-.07518005 .49398805-.00018310547 .43699647 .05381775 .31900025 .081832889 .23498535 .1018219 .19799805 .11582947 .19799805 .14382935 .19799805 .16282654 .21798706 .1768341 .24198914 .18283081 .2619934 .17984009 .2809906 .17984009 .29599 .17984009 .43499757 .17984009 .5119934 .25585938 .5119934 .35890199 .5119934 .38591004 .5039978 .4109192 .4909973 .42793275L.57499697 .4399414 .60798647 .50294497 .60198977 .51194766 .45700074 .4719391M.27198792-.2071991C.18499756-.2071991 .12199402-.15919495 .12199402-.08718872 .12199402-.015182495 .18699646 .018829346 .22799683 .02482605 .29100038 .015823365 .40899659-.010177612 .40899659-.094192508 .40899659-.17019654 .34700013-.2071991 .27198792-.2071991Z"/>
<path id="font_2_1" d="M.1749878 .2822113C.1749878 .56832888 .2619934 .65437319 .32499696 .66737368V.6923828C.1499939 .685379 .10499573 .46829225 .10499573 .2822113 .10499573 .09614563 .1499939-.12094116 .32499696-.12792969V-.10293579C.2669983-.090927127 .1749878-.0059051516 .1749878 .2822113Z"/>
<path id="font_2_2" d="M.1749878 .2822113C.1749878-.0059051516 .08299255-.090927127 .024993897-.10293579V-.12792969C.19999695-.12094116 .24499512 .09614563 .24499512 .2822113 .24499512 .46829225 .19999695 .685379 .024993897 .6923828V.66737368C.08799744 .65437319 .1749878 .56832888 .1749878 .2822113Z"/>
<path id="font_3_4" d="M.6349945 .14315796V.20117188H.084991458V.14315796H.6349945M.6349945 .36288453V.42089845H.084991458V.36288453H.6349945Z"/>
<path id="font_2_4" d="M.2649994 .64468386C.3600006 .64468386 .3869934 .49682618 .3869934 .33398438 .3869934 .17112732 .3600006 .023269654 .2649994 .023269654 .16999817 .023269654 .14299011 .17112732 .14299011 .33398438 .14299011 .49682618 .16999817 .64468386 .2649994 .64468386M.2649994 .6796875C.099990848 .6796875 .040985109 .53378298 .040985109 .33398438 .040985109 .13417053 .099990848-.01171875 .2649994-.01171875 .42999269-.01171875 .4889984 .13417053 .4889984 .33398438 .4889984 .53378298 .42999269 .6796875 .2649994 .6796875Z"/>
<path id="font_3_1" d="M.6349945 .2529297V.31092835H.084991458V.2529297H.6349945Z"/>
<path id="font_3_5" d="M.6349945 .07472229 .17298889 .28173829 .6349945 .48875428V.5517578L.084991458 .31674195V.24673462L.6349945 .01171875V.07472229Z"/>
<path id="font_3_2" d="M.6349945 .20620728 .17298889 .3572235 .6349945 .5092468V.5722656L.084991458 .39222718V.32221986L.6349945 .14318848V.20620728M.6349945-.0078125V.050186159H.084991458V-.0078125H.6349945Z"/>
<path id="font_3_3" d="M.6349945-.0078125V.050186159H.084991458V-.0078125H.6349945M.084991458 .14318848 .6349945 .32221986V.39222718L.084991458 .5722656V.5092468L.5469971 .3572235 .084991458 .20620728V.14318848Z"/>
</defs>
<path transform="matrix(1,0,0,-1.00006,44.21,48.955095)" d="M-42.52063-34.0165V47.62315H17.00824V-34.0165ZM17.00824 47.62315" fill="#d9d9ff"/>
<path transform="matrix(1,0,0,-1.00006,44.21,48.955095)" d="M17.00824-34.0165V47.62315H68.03302V-34.0165ZM68.03302 47.62315" fill="#d9f0d9"/>
<path transform="matrix(1,0,0,-1.00006,44.21,48.955095)" d="M68.03302-34.0165V47.62315H110.55367V-34.0165ZM110.55367 47.62315" fill="#d9d9ff"/>
<path transform="matrix(1,0,0,-1.00006,44.21,48.955095)" stroke-width=".19925" stroke-linecap="butt" stroke-dasharray="2.98883,2.98883" stroke-miterlimit="10" stroke-linejoin="miter" fill="none" stroke="#000000" d="M68.03302-34.0165V47.62315"/>
<path transform="matrix(1,0,0,-1.00006,44.21,48.955095)" stroke-width=".19925" stroke-linecap="butt" stroke-dasharray="2.98883,2.98883" stroke-miterlimit="10" stroke-linejoin="miter" fill="none" stroke="#000000" d="M17.00824-34.0165V47.62315"/>
<path transform="matrix(1,0,0,-1.00006,44.21,48.955095)" stroke-width=".3985" stroke-linecap="butt" stroke-miterlimit="10" stroke-linejoin="miter" fill="none" stroke="#000000" d="M-42.52063 0H110.09538"/>
<path transform="matrix(1,0,0,-1.00006,154.30539,48.955095)" stroke-width=".31879" stroke-linecap="round" stroke-linejoin="round" fill="none" stroke="#000000" d="M-1.19551 1.59401C-1.09587 .99626 0 .09961 .29886 0 0-.09961-1.09587-.99626-1.19551-1.59401"/>
<path transform="matrix(1,0,0,-1.00006,44.21,48.955095)" stroke-width=".3985" stroke-linecap="butt" stroke-miterlimit="10" stroke-linejoin="miter" fill="none" stroke="#000000" d="M0-34.0165V47.16487"/>
<path transform="matrix(0,-1.00006,-1,-0,44.21,1.7873955)" stroke-width=".31879" stroke-linecap="round" stroke-linejoin="round" fill="none" stroke="#000000" d="M-1.19551 1.59401C-1.09587 .99626 0 .09961 .29886 0 0-.09961-1.09587-.99626-1.19551-1.59401"/>
<use data-text="t" xlink:href="#font_1_2" transform="matrix(9.1656,0,0,-9.166149,151.111,58.003637)"/>
<path transform="matrix(1,0,0,-1.00006,44.21,48.955095)" stroke-width=".3985" stroke-linecap="butt" stroke-miterlimit="10" stroke-linejoin="miter" fill="none" stroke="#929292" d="M-17.00824 1.70091V-1.70091"/>
<use data-text="-" xlink:href="#font_2_3" transform="matrix(9.1656,0,0,-9.166149,22.973,59.852746)"/>
<use data-text="1" xlink:href="#font_2_5" transform="matrix(9.1656,0,0,-9.166149,26.565918,59.852746)"/>
<path transform="matrix(1,0,0,-1.00006,44.21,48.955095)" stroke-width=".3985" stroke-linecap="butt" stroke-miterlimit="10" stroke-linejoin="miter" fill="none" stroke="#929292" d="M17.00824 1.70091V-1.70091"/>
<use data-text="1" xlink:href="#font_2_5" transform="matrix(9.1656,0,0,-9.166149,58.787,59.852746)"/>
<path transform="matrix(1,0,0,-1.00006,44.21,48.955095)" stroke-width=".3985" stroke-linecap="butt" stroke-miterlimit="10" stroke-linejoin="miter" fill="none" stroke="#929292" d="M34.0165 1.70091V-1.70091"/>
<use data-text="2" xlink:href="#font_2_6" transform="matrix(9.1656,0,0,-9.166149,75.796,59.852746)"/>
<path transform="matrix(1,0,0,-1.00006,44.21,48.955095)" stroke-width=".3985" stroke-linecap="butt" stroke-miterlimit="10" stroke-linejoin="miter" fill="none" stroke="#929292" d="M51.02477 1.70091V-1.70091"/>
<use data-text="3" xlink:href="#font_2_7" transform="matrix(9.1656,0,0,-9.166149,92.804,59.852746)"/>
<path transform="matrix(1,0,0,-1.00006,44.21,48.955095)" stroke-width=".3985" stroke-linecap="butt" stroke-miterlimit="10" stroke-linejoin="miter" fill="none" stroke="#929292" d="M68.03302 1.70091V-1.70091"/>
<use data-text="4" xlink:href="#font_2_8" transform="matrix(9.1656,0,0,-9.166149,109.812,59.852746)"/>
<path transform="matrix(1,0,0,-1.00006,44.21,48.955095)" stroke-width=".3985" stroke-linecap="butt" stroke-miterlimit="10" stroke-linejoin="miter" fill="none" stroke="#929292" d="M85.04128 1.70091V-1.70091"/>
<use data-text="5" xlink:href="#font_2_9" transform="matrix(9.1656,0,0,-9.166149,126.82,59.852746)"/>
<path transform="matrix(1,0,0,-1.00006,44.21,48.955095)" stroke-width=".3985" stroke-linecap="butt" stroke-miterlimit="10" stroke-linejoin="miter" fill="none" stroke="#929292" d="M102.04953 1.70091V-1.70091"/>
<use data-text="6" xlink:href="#font_2_10" transform="matrix(9.1656,0,0,-9.166149,143.82901,59.852746)"/>
<path transform="matrix(1,0,0,-1.00006,44.21,48.955095)" stroke-width=".3985" stroke-linecap="butt" stroke-miterlimit="10" stroke-linejoin="miter" fill="none" stroke="#929292" d="M1.70091-17.00824H-1.70091"/>
<use data-text="-" xlink:href="#font_2_3" transform="matrix(9.1656,0,0,-9.166149,34.054,69.033298)"/>
<use data-text="1" xlink:href="#font_2_5" transform="matrix(9.1656,0,0,-9.166149,37.64692,69.033298)"/>
<path transform="matrix(1,0,0,-1.00006,44.21,48.955095)" stroke-width=".3985" stroke-linecap="butt" stroke-miterlimit="10" stroke-linejoin="miter" fill="none" stroke="#929292" d="M1.70091 17.00824H-1.70091"/>
<use data-text="1" xlink:href="#font_2_5" transform="matrix(9.1656,0,0,-9.166149,37.65,35.01426)"/>
<path transform="matrix(1,0,0,-1.00006,44.21,48.955095)" stroke-width=".3985" stroke-linecap="butt" stroke-miterlimit="10" stroke-linejoin="miter" fill="none" stroke="#929292" d="M1.70091 34.0165H-1.70091"/>
<use data-text="2" xlink:href="#font_2_6" transform="matrix(9.1656,0,0,-9.166149,37.65,18.005238)"/>
<path transform="matrix(1,0,0,-1.00006,44.21,48.955095)" stroke-width="1.59404" stroke-linecap="butt" stroke-miterlimit="10" stroke-linejoin="miter" fill="none" stroke="#990000" d="M-42.52063 0H-42.22685-41.93307-41.63928-41.34549-41.0517-40.75792-40.46414-40.17036-39.87657-39.5828-39.28902-38.99524-38.70145-38.40767-38.11388-37.8201-37.52632-37.23254-36.93875-36.64497-36.3512-36.05742-35.76363-35.46985-35.17604-34.88226-34.58849-34.29471-34.00092-33.70714-33.41336-33.11958-32.82579-32.53201-32.23822-31.94444-31.65067-31.35689-31.0631-30.76932-30.47554-30.18176-29.88797-29.5942-29.3004-29.00662-28.71283-28.41905-28.12526-27.83148-27.5377-27.24393-26.95013-26.65636-26.36258-26.0688-25.77501-25.48123-25.18744-24.89366-24.59988-24.3061-24.01231-23.71854-23.42474-23.13097-22.83717-22.5434-22.2496-21.95583-21.66205-21.36827-21.07448-20.7807-20.48692-20.19315-19.89935-19.60558-19.31178-19.018-18.72423-18.43045-18.13666-17.84288-17.5491-17.25531-16.96152-16.66774-16.37395-16.08017-15.78639-15.4926-15.19882-14.90504-14.61127-14.31747-14.0237-13.7299-13.43613-13.14235-12.84857-12.55478-12.261-11.96722-11.67345-11.37964-11.08586-10.79208-10.4983-10.20451-9.91074-9.61694-9.32317-9.02939-8.73561-8.44182-8.14804-7.85426-7.56049-7.2667-6.97292-6.67912-6.38535-6.09157-5.79779-5.504-5.2102-4.91643-4.62265-4.32886-4.03508-3.74129-3.44751-3.15373-2.85995-2.56616-2.27238-1.9786-1.68483-1.39104-1.09726-.80347-.50969-.21591 .07784 .37161 .6654 .9592 1.25298 1.54675 1.84053 2.13432 2.4281 2.7219 3.01567 3.30945 3.60323 3.89702 4.1908 4.48457 4.77835 5.07214 5.36592 5.6597 5.95348 6.24727 6.54106 6.83485 7.12863 7.42241 7.71619 8.00998 8.30376 8.59753 8.89131 9.1851 9.4789 9.77267 10.06645 10.36023 10.65402 10.9478 11.24158 11.53535 11.82915 12.12292 12.41672 12.71051 13.00429 13.29807 13.59186 13.88564 14.17941 14.47319 14.76698 15.06076 15.35455 15.64833 15.94211"/>
<path transform="matrix(1,0,0,-1.00006,44.21,48.955095)" stroke-width=".79701" stroke-linecap="butt" stroke-dasharray="2.98883,2.98883" stroke-miterlimit="10" stroke-linejoin="miter" fill="none" stroke="#009900" d="M17.00824 17.00824H17.25946 17.51068 17.76189 18.01312 18.26434 18.51556 18.76677 19.018 19.26923 19.52045 19.77167 20.02289 20.27411 20.52533 20.77655 21.02779 21.27899 21.5302 21.78143 22.03265 22.28387 22.53508 22.78632 23.03754 23.28876 23.53996 23.7912 24.04242 24.29364 24.54486 24.79608 25.0473 25.29852 25.54974 25.80096 26.05219 26.30339 26.55463 26.80583 27.05707 27.30827 27.55951 27.81071 28.06195 28.31316 28.56439 28.81561 29.06683 29.31805 29.56927 29.8205 30.07172 30.32294 30.57416 30.82538 31.07658 31.32782 31.57903 31.83026 32.08147 32.3327 32.58391 32.83514 33.08635 33.33759 33.58879 33.84003 34.09125 34.34247 34.59367 34.84491 35.09613 35.34735 35.59856 35.84978 36.10101 36.35222 36.60344 36.85466 37.1059 37.3571 37.60832 37.85954 38.11078 38.36198 38.61322 38.86444 39.11566 39.36687 39.6181 39.86932 40.12054 40.37175 40.62297 40.8742 41.12541 41.37663 41.62785 41.87909 42.1303 42.38152 42.63274 42.88397 43.13518 43.38641 43.63763 43.88885 44.14006 44.3913 44.64252 44.89372 45.14494 45.39616 45.6474 45.8986 46.14983 46.40105 46.65228 46.90349 47.15471 47.40593 47.65717 47.90837 48.1596 48.41081 48.66205 48.91325 49.16449 49.4157 49.66692 49.91814 50.16936 50.4206 50.6718 50.92302 51.17424 51.42548 51.67668 51.9279 52.17912 52.43036 52.68156 52.9328 53.184 53.43524 53.68645 53.93768 54.18889 54.44011 54.69133 54.94255 55.19377 55.44499 55.69621 55.94743 56.19865 56.44987 56.7011 56.95232 57.20354 57.45476 57.706 57.9572 58.20842 58.45964 58.71088 58.96208 59.21329 59.46452 59.71574 59.96696 60.21817 60.4694 60.72063 60.97185 61.22307 61.47429 61.72551 61.97673 62.22795 62.47919 62.7304 62.98161 63.23283 63.48405 63.73528 63.98648 64.23772 64.48894 64.74016 64.99136 65.2426 65.49382 65.74504 65.99625 66.24748 66.4987 66.74992 67.00114"/>
<path transform="matrix(1,0,0,-1.00006,44.21,48.955095)" stroke-width="1.59404" stroke-linecap="butt" stroke-miterlimit="10" stroke-linejoin="miter" fill="none" stroke="#990000" d="M17.00824-17.00824 17.25946-16.75702 17.51068-16.5058 17.76189-16.2546 18.01312-16.00336 18.26434-15.75214 18.51556-15.50092 18.76677-15.24971 19.018-14.99847 19.26923-14.74725 19.52045-14.49603 19.77167-14.24481 20.02289-13.99358 20.27411-13.74237 20.52533-13.49115 20.77655-13.23993 21.02779-12.9887 21.27899-12.73749 21.5302-12.48627 21.78143-12.23505 22.03265-11.98383 22.28387-11.7326 22.53508-11.4814 22.78632-11.23016 23.03754-10.97894 23.28876-10.72772 23.53996-10.47652 23.7912-10.22528 24.04242-9.97406 24.29364-9.72284 24.54486-9.47162 24.79608-9.2204 25.0473-8.96918 25.29852-8.71796 25.54974-8.46674 25.80096-8.21552 26.05219-7.9643 26.30339-7.71307 26.55463-7.46185 26.80583-7.21065 27.05707-6.95941 27.30827-6.7082 27.55951-6.45697 27.81071-6.20576 28.06195-5.95453 28.31316-5.70332 28.56439-5.45209 28.81561-5.20087 29.06683-4.94965 29.31805-4.69843 29.56927-4.4472 29.8205-4.19598 30.07172-3.94476 30.32294-3.69354 30.57416-3.44232 30.82538-3.1911 31.07658-2.93988 31.32782-2.68866 31.57903-2.43745 31.83026-2.18622 32.08147-1.93501 32.3327-1.68378 32.58391-1.43257 32.83514-1.18134 33.08635-.93013 33.33759-.6789 33.58879-.42769 33.84003-.17645 34.09125 .07472 34.34247 .32594 34.59367 .57716 34.84491 .8284 35.09613 1.0796 35.34735 1.33083 35.59856 1.58205 35.84978 1.83328 36.10101 2.08449 36.35222 2.3357 36.60344 2.58693 36.85466 2.83815 37.1059 3.08937 37.3571 3.34059 37.60832 3.59181 37.85954 3.84303 38.11078 4.09425 38.36198 4.34547 38.61322 4.5967 38.86444 4.84792 39.11566 5.09914 39.36687 5.35036 39.6181 5.6016 39.86932 5.8528 40.12054 6.10402 40.37175 6.35524 40.62297 6.60646 40.8742 6.85768 41.12541 7.10889 41.37663 7.36012 41.62785 7.61134 41.87909 7.86256 42.1303 8.11378 42.38152 8.365 42.63274 8.61623 42.88397 8.86745 43.13518 9.11867 43.38641 9.36989 43.63763 9.62111 43.88885 9.87233 44.14006 10.12355 44.3913 10.37477 44.64252 10.62599 44.89372 10.87721 45.14494 11.12843 45.39616 11.37964 45.6474 11.63087 45.8986 11.88208 46.14983 12.13332 46.40105 12.38452 46.65228 12.63576 46.90349 12.88698 47.15471 13.1382 47.40593 13.3894 47.65717 13.64064 47.90837 13.89186 48.1596 14.14308 48.41081 14.39429 48.66205 14.64552 48.91325 14.89674 49.16449 15.14796 49.4157 15.39917 49.66692 15.6504 49.91814 15.90163 50.16936 16.15283 50.4206 16.40407 50.6718 16.65527 50.92302 16.90651 51.17424 17.15771 51.42548 17.40895 51.67668 17.66017 51.9279 17.91139 52.17912 18.1626 52.43036 18.41383 52.68156 18.66505 52.9328 18.91628 53.184 19.16748 53.43524 19.41872 53.68645 19.66994 53.93768 19.92116 54.18889 20.17236 54.44011 20.4236 54.69133 20.67482 54.94255 20.92603 55.19377 21.17725 55.44499 21.42847 55.69621 21.6797 55.94743 21.93091 56.19865 22.18214 56.44987 22.43336 56.7011 22.68459 56.95232 22.93579 57.20354 23.18703 57.45476 23.43825 57.706 23.68947 57.9572 23.94067 58.20842 24.19191 58.45964 24.44313 58.71088 24.69435 58.96208 24.94556 59.21329 25.1968 59.46452 25.44801 59.71574 25.69922 59.96696 25.95044 60.21817 26.20166 60.4694 26.4529 60.72063 26.7041 60.97185 26.95534 61.22307 27.20656 61.47429 27.45778 61.72551 27.70898 61.97673 27.96022 62.22795 28.21144 62.47919 28.46266 62.7304 28.71387 62.98161 28.9651 63.23283 29.21632 63.48405 29.46754 63.73528 29.71875 63.98648 29.96997 64.23772 30.2212 64.48894 30.47241 64.74016 30.72363 64.99136 30.97485 65.2426 31.22609 65.49382 31.4773 65.74504 31.72853 65.99625 31.97974 66.24748 32.23097 66.4987 32.48218 66.74992 32.73341 67.00114 32.98462"/>
<path transform="matrix(1,0,0,-1.00006,44.21,48.955095)" stroke-width="1.59404" stroke-linecap="butt" stroke-miterlimit="10" stroke-linejoin="miter" fill="none" stroke="#990000" d="M68.03302 0H68.2466 68.4602 68.67377 68.88737 69.10097 69.31456 69.52814 69.74173 69.95532 70.16891 70.38249 70.5961 70.80966 71.02327 71.23686 71.45044 71.66403 71.87762 72.09122 72.30481 72.51839 72.732 72.94557 73.15916 73.37276 73.58633 73.79993 74.01353 74.2271 74.4407 74.65428 74.86787 75.08147 75.29506 75.50865 75.72223 75.93582 76.14943 76.36299 76.5766 76.79018 77.00377 77.21736 77.43095 77.64453 77.85812 78.07172 78.28531 78.49889 78.7125 78.92609 79.13966 79.35326 79.56685 79.78043 79.99403 80.20761 80.4212 80.63478 80.84839 81.06197 81.27556 81.48915 81.70274 81.91632 82.12993 82.3435 82.5571 82.77068 82.98428 83.19786 83.41145 83.62505 83.83862 84.05222 84.26582 84.47939 84.693 84.90659 85.12018 85.33376 85.54735 85.76094 85.97453 86.18811 86.40172 86.61528 86.82889 87.04248 87.25606 87.46965 87.68324 87.89684 88.11043 88.324 88.53761 88.75117 88.96478 89.17838 89.39195 89.60555 89.81915 90.03271 90.24632 90.4599 90.6735 90.88708 91.10068 91.31427 91.52785 91.74144 91.95505 92.16861 92.38222 92.5958 92.80939 93.02298 93.23657 93.45015 93.66374 93.87733 94.09094 94.3045 94.51811 94.73169 94.94528 95.15887 95.37247 95.58604 95.79965 96.01323 96.22682 96.4404 96.654 96.86758 97.08118 97.29477 97.50836 97.72194 97.93555 98.14912 98.36272 98.5763 98.7899 99.00348 99.21707 99.43066 99.64424 99.85783 100.07144 100.28502 100.49861 100.7122 100.9258 101.13937 101.35297 101.56656 101.78015 101.99373 102.20734 102.4209 102.6345 102.8481 103.06168 103.27527 103.48886 103.70245 103.91605 104.12962 104.34323 104.5568 104.7704 104.984 105.19757 105.41116 105.62476 105.83833 106.05194 106.26552 106.47913 106.6927 106.9063 107.11989 107.33347 107.54706 107.76067 107.97423 108.18784 108.40141 108.615 108.8286 109.04219 109.25577 109.46936 109.68295 109.89656 110.11012 110.32373 110.53731"/>
<path transform="matrix(1,0,0,-1.00006,44.21,48.955095)" d="M18.80156 17.00824C18.80156 17.99866 17.99866 18.80156 17.00824 18.80156 16.01782 18.80156 15.21492 17.99866 15.21492 17.00824 15.21492 16.01782 16.01782 15.21492 17.00824 15.21492 17.99866 15.21492 18.80156 16.01782 18.80156 17.00824ZM17.00824 17.00824" fill="#009900"/>
<path transform="matrix(1,0,0,-1.00006,44.21,48.955095)" stroke-width="1.19553" stroke-linecap="butt" stroke-miterlimit="10" stroke-linejoin="miter" fill="none" stroke="#990000" d="M19.9971 0C19.9971 1.65071 18.65897 2.98885 17.00824 2.98885 15.35751 2.98885 14.01938 1.65071 14.01938 0 14.01938-1.65071 15.35751-2.98885 17.00824-2.98885 18.65897-2.98885 19.9971-1.65071 19.9971 0ZM17.00824 0"/>
<path transform="matrix(1,0,0,-1.00006,44.21,48.955095)" d="M19.9971-17.00824C19.9971-15.35751 18.65897-14.01938 17.00824-14.01938 15.35751-14.01938 14.01938-15.35751 14.01938-17.00824 14.01938-18.65897 15.35751-19.9971 17.00824-19.9971 18.65897-19.9971 19.9971-18.65897 19.9971-17.00824ZM17.00824-17.00824" fill="#990000"/>
<path transform="matrix(1,0,0,-1.00006,44.21,48.955095)" stroke-width=".79701" stroke-linecap="butt" stroke-miterlimit="10" stroke-linejoin="miter" fill="none" stroke="#009900" d="M69.82634 17.00824C69.82634 17.99866 69.02345 18.80156 68.03302 18.80156 67.0426 18.80156 66.23972 17.99866 66.23972 17.00824 66.23972 16.01782 67.0426 15.21492 68.03302 15.21492 69.02345 15.21492 69.82634 16.01782 69.82634 17.00824ZM68.03302 17.00824"/>
<path transform="matrix(1,0,0,-1.00006,44.21,48.955095)" d="M71.02188 0C71.02188 1.65071 69.68375 2.98885 68.03302 2.98885 66.38231 2.98885 65.04416 1.65071 65.04416 0 65.04416-1.65071 66.38231-2.98885 68.03302-2.98885 69.68375-2.98885 71.02188-1.65071 71.02188 0ZM68.03302 0" fill="#990000"/>
<path transform="matrix(1,0,0,-1.00006,44.21,48.955095)" stroke-width="1.19553" stroke-linecap="butt" stroke-miterlimit="10" stroke-linejoin="miter" fill="none" stroke="#990000" d="M71.02188 34.0165C71.02188 35.66722 69.68375 37.00536 68.03302 37.00536 66.38231 37.00536 65.04416 35.66722 65.04416 34.0165 65.04416 32.36578 66.38231 31.02763 68.03302 31.02763 69.68375 31.02763 71.02188 32.36578 71.02188 34.0165ZM68.03302 34.0165"/>
<use data-text="g" xlink:href="#font_1_1" transform="matrix(9.1656,0,0,-9.166149,15.887001,43.303758)" fill="#0000ff"/>
<use data-text="(" xlink:href="#font_2_1" transform="matrix(9.1656,0,0,-9.166149,21.635003,43.303758)" fill="#0000ff"/>
<use data-text="t" xlink:href="#font_1_2" transform="matrix(9.1656,0,0,-9.166149,25.042,43.303758)" fill="#0000ff"/>
<use data-text=")" xlink:href="#font_2_2" transform="matrix(9.1656,0,0,-9.166149,29.147004,43.303758)" fill="#0000ff"/>
<use data-text="=" xlink:href="#font_3_4" transform="matrix(9.1656,0,0,-9.166149,34.060007,43.303758)" fill="#0000ff"/>
<use data-text="0" xlink:href="#font_2_4" transform="matrix(9.1656,0,0,-9.166149,42.359,43.303758)" fill="#0000ff"/>
<use data-text="g" xlink:href="#font_1_1" transform="matrix(9.1656,0,0,-9.166149,64.496,9.285713)" fill="#009900"/>
<use data-text="(" xlink:href="#font_2_1" transform="matrix(9.1656,0,0,-9.166149,70.244,9.285713)" fill="#009900"/>
<use data-text="t" xlink:href="#font_1_2" transform="matrix(9.1656,0,0,-9.166149,73.651,9.285713)" fill="#009900"/>
<use data-text=")" xlink:href="#font_2_2" transform="matrix(9.1656,0,0,-9.166149,77.756008,9.285713)" fill="#009900"/>
<use data-text="=" xlink:href="#font_3_4" transform="matrix(9.1656,0,0,-9.166149,82.66901,9.285713)" fill="#009900"/>
<use data-text="t" xlink:href="#font_1_2" transform="matrix(9.1656,0,0,-9.166149,91.168,9.285713)" fill="#009900"/>
<use data-text="&#x2212;" xlink:href="#font_3_1" transform="matrix(9.1656,0,0,-9.166149,96.490009,9.285713)" fill="#009900"/>
<use data-text="2" xlink:href="#font_2_6" transform="matrix(9.1656,0,0,-9.166149,104.30301,9.285713)" fill="#009900"/>
<use data-text="g" xlink:href="#font_1_1" transform="matrix(9.1656,0,0,-9.166149,117.936008,43.303758)" fill="#0000ff"/>
<use data-text="(" xlink:href="#font_2_1" transform="matrix(9.1656,0,0,-9.166149,123.684009,43.303758)" fill="#0000ff"/>
<use data-text="t" xlink:href="#font_1_2" transform="matrix(9.1656,0,0,-9.166149,127.091,43.303758)" fill="#0000ff"/>
<use data-text=")" xlink:href="#font_2_2" transform="matrix(9.1656,0,0,-9.166149,131.19602,43.303758)" fill="#0000ff"/>
<use data-text="=" xlink:href="#font_3_4" transform="matrix(9.1656,0,0,-9.166149,136.10901,43.303758)" fill="#0000ff"/>
<use data-text="0" xlink:href="#font_2_4" transform="matrix(9.1656,0,0,-9.166149,144.408,43.303758)" fill="#0000ff"/>
<use data-text="t" xlink:href="#font_1_2" transform="matrix(9.1656,0,0,-9.166149,22.069,79.49492)" fill="#0000ff"/>
<use data-text="&#x003c;" xlink:href="#font_3_5" transform="matrix(9.1656,0,0,-9.166149,27.877999,79.49492)" fill="#0000ff"/>
<use data-text="1" xlink:href="#font_2_5" transform="matrix(9.1656,0,0,-9.166149,36.178,79.49492)" fill="#0000ff"/>
<use data-text="1" xlink:href="#font_2_5" transform="matrix(9.1656,0,0,-9.166149,69.712,79.49492)" fill="#009900"/>
<use data-text="&#x2264;" xlink:href="#font_3_2" transform="matrix(9.1656,0,0,-9.166149,76.279,79.49492)" fill="#009900"/>
<use data-text="t" xlink:href="#font_1_2" transform="matrix(9.1656,0,0,-9.166149,84.778,79.49492)" fill="#009900"/>
<use data-text="&#x003c;" xlink:href="#font_3_5" transform="matrix(9.1656,0,0,-9.166149,90.587009,79.49492)" fill="#009900"/>
<use data-text="4" xlink:href="#font_2_8" transform="matrix(9.1656,0,0,-9.166149,98.88701,79.49492)" fill="#009900"/>
<use data-text="t" xlink:href="#font_1_2" transform="matrix(9.1656,0,0,-9.166149,124.118007,79.49492)" fill="#0000ff"/>
<use data-text="&#x2265;" xlink:href="#font_3_3" transform="matrix(9.1656,0,0,-9.166149,129.927,79.49492)" fill="#0000ff"/>
<use data-text="4" xlink:href="#font_2_8" transform="matrix(9.1656,0,0,-9.166149,138.227,79.49492)" fill="#0000ff"/>
</svg>
