<svg xmlns="http://www.w3.org/2000/svg" xmlns:xlink="http://www.w3.org/1999/xlink" version="1.1" width="236" height="197" viewBox="0 0 236 197">
<defs>
<path id="font_1_2" d="M.42799378 .45222474 .43899537 .49023438H.31199647L.34599305 .6092224 .33399964 .6162262 .23699951 .53923037 .22399903 .49023438H.14299011L.13198853 .45222474H.21499634L.125 .08627319C.10998535 .029266358 .12199402-.01171875 .17199707-.01171875 .2519989-.01171875 .31599427 .054275514 .35598756 .1292572L.33399964 .1462555C.31098939 .10726929 .2599945 .040267946 .22898865 .040267946 .20799256 .040267946 .20799256 .0632782 .21398926 .088272098L.30299378 .45222474H.42799378Z"/>
<path id="font_1_1" d="M.43199159 .49023438H.3019867L.32998658 .6031952C.34899903 .67918398 .36799623 .70718386 .3959961 .70718386 .4229889 .70718386 .44099427 .68518069 .46299745 .6371918 .46798707 .62719729 .47499085 .6201935 .48999024 .6201935 .5099945 .6201935 .5389862 .6391907 .5389862 .6641846 .5389862 .70718386 .4850006 .7421875 .4249878 .7421875 .3600006 .7421875 .31799317 .71517947 .2849884 .67318728 .2539978 .63420107 .23399353 .5802002 .21998596 .5272217L.20999146 .49023438H.12298584L.11199951 .45222474H.20098877L.084991458-.137146C.07299805-.19918823 .06298828-.2052002 .052993776-.2052002 .041992189-.2052002 .026992798-.19718933 0-.15615845-.007003784-.14616394-.014007568-.13415528-.027008057-.13415528-.04901123-.13415528-.072006229-.15916443-.072006229-.18418885-.071014408-.2171936-.028015137-.2421875 .018997193-.2421875 .11898804-.2421875 .16099549-.16116333 .20298767 .030960083L.29599 .45222474H.42199708L.43199159 .49023438Z"/>
<path id="font_2_1" d="M.1749878 .2822113C.1749878 .56832888 .2619934 .65437319 .32499696 .66737368V.6923828C.1499939 .685379 .10499573 .46829225 .10499573 .2822113 .10499573 .09614563 .1499939-.12094116 .32499696-.12792969V-.10293579C.2669983-.090927127 .1749878-.0059051516 .1749878 .2822113Z"/>
<path id="font_2_2" d="M.1749878 .2822113C.1749878-.0059051516 .08299255-.090927127 .024993897-.10293579V-.12792969C.19999695-.12094116 .24499512 .09614563 .24499512 .2822113 .24499512 .46829225 .19999695 .685379 .024993897 .6923828V.66737368C.08799744 .65437319 .1749878 .56832888 .1749878 .2822113Z"/>
</defs>
<path transform="matrix(1.2,0,0,-1.2,20.559212,179.37021)" stroke-width=".19925" stroke-linecap="butt" stroke-miterlimit="10" stroke-linejoin="miter" fill="none" stroke="#929292" d=""/>
<path transform="matrix(1.2,0,0,-1.2,20.559212,179.37021)" stroke-width=".19925" stroke-linecap="butt" stroke-miterlimit="10" stroke-linejoin="miter" fill="none" stroke="#929292" d=""/>
<path transform="matrix(1.2,0,0,-1.2,20.559212,179.37021)" stroke-width=".3985" stroke-linecap="butt" stroke-miterlimit="10" stroke-linejoin="miter" fill="none" stroke="#000000" d="M-16.1897 67.24747H176.08457"/>
<path transform="matrix(1.2,0,0,-1.2,231.86069,98.67325)" d="M1.99252 0-1.19551 1.59401 0 0-1.19551-1.59401"/>
<path transform="matrix(1.2,0,0,-1.2,20.559212,179.37021)" stroke-width=".3985" stroke-linecap="butt" stroke-miterlimit="10" stroke-linejoin="miter" fill="none" stroke="#000000" d="M80.94368-13.45029V145.95272"/>
<path transform="matrix(0,-1.2,-1.2,-0,117.691638,4.226944)" d="M1.99252 0-1.19551 1.59401 0 0-1.19551-1.59401"/>
<path transform="matrix(1.2,0,0,-1.2,20.559212,179.37021)" stroke-width=".79701" stroke-linecap="butt" stroke-miterlimit="10" stroke-linejoin="miter" fill="none" stroke="#000000" d="M80.94368 58.84154V96.80147"/>
<path transform="matrix(0,-1.2,-1.2,-0,117.691638,63.208444)" stroke-width=".6376" stroke-linecap="round" stroke-linejoin="round" fill="none" stroke="#000000" d="M-1.55415 2.0722C-1.42464 1.29512 0 .1295 .38852 0 0-.1295-1.42464-1.29512-1.55415-2.0722"/>
<use data-text="t" xlink:href="#font_1_2" transform="matrix(12.04368,0,0,-12.04368,224.77881,94.4894)"/>
<use data-text="f" xlink:href="#font_1_1" transform="matrix(12.04368,0,0,-12.04368,123.08001,14.914993)"/>
<use data-text="(" xlink:href="#font_2_1" transform="matrix(12.04368,0,0,-12.04368,129.80841,14.914993)"/>
<use data-text="t" xlink:href="#font_1_2" transform="matrix(12.04368,0,0,-12.04368,134.28562,14.914993)"/>
<use data-text=")" xlink:href="#font_2_2" transform="matrix(12.04368,0,0,-12.04368,139.67963,14.914993)"/>
</svg>
