<svg xmlns="http://www.w3.org/2000/svg" xmlns:xlink="http://www.w3.org/1999/xlink" version="1.1" width="249" height="135" viewBox="0 0 249 135">
<defs>
<path id="font_1_1" d="M.42799378 .45222474 .43899537 .49023438H.31199647L.34599305 .6092224 .33399964 .6162262 .23699951 .53923037 .22399903 .49023438H.14299011L.13198853 .45222474H.21499634L.125 .08627319C.10998535 .029266358 .12199402-.01171875 .17199707-.01171875 .2519989-.01171875 .31599427 .054275514 .35598756 .1292572L.33399964 .1462555C.31098939 .10726929 .2599945 .040267946 .22898865 .040267946 .20799256 .040267946 .20799256 .0632782 .21398926 .088272098L.30299378 .45222474H.42799378Z"/>
<path id="font_1_2" d="M.070999149 .45393373 .07398987 .42893983 .14199829 .43093873C.1639862 .43193055 .16899109 .41493226 .1769867 .36291505 .18798828 .28489686 .20999146 .09286499 .20999146 .0128479 .20999146-.017166138 .20799256-.058166505 .18598938-.11117554 .16799927-.15318299 .14199829-.18218994 .12199402-.18218994 .10699463-.18218994 .09599304-.17118836 .08099365-.15118408 .068984989-.13517761 .06098938-.127182 .04598999-.127182 .019989014-.12818909-.005004883-.15818787-.005004883-.18719483-.005004883-.21418762 .023986817-.2421875 .067993167-.2421875 .15299988-.2421875 .18998719-.17919922 .27799989-.027160645 .2979889 .0068511965 .35798646 .11286926 .41999818 .21488953 .47698976 .30891419 .5399933 .40592958 .5399933 .4459381 .5399933 .48094178 .5289917 .5019531 .5219879 .5019531 .5029907 .5019531 .46899415 .49394227 .44400025 .47694398 .44499208 .4419403 .44299317 .3809204 .43099977 .33891297 .4149933 .28289796 .35598756 .17488098 .2899933 .06085205H.2869873C.27999879 .21388245 .26098634 .42492677 .24699402 .49795533L.23899842 .5019531 .070999149 .45393373Z"/>
<path id="font_2_1" d="M.07398987 .2861328V.21612549H.31900025V.2861328H.07398987Z"/>
<path id="font_2_5" d="M.12998963 .3657837C.12998963 .3487854 .1349945 .33779908 .147995 .33779908 .1599884 .33779908 .18699646 .34777833 .23498535 .34777833 .31999208 .34777833 .36799623 .27090455 .36799623 .18403626 .36799623 .065216068 .30899049 .023269654 .23799134 .023269654 .17199707 .023269654 .1289978 .07319641 .10998535 .12911988 .10398865 .14808655 .09399414 .15707398 .07998657 .15707398 .06199646 .15707398 .026992798 .13809204 .026992798 .10215759 .026992798 .05921936 .09599304-.01171875 .23699951-.01171875 .38198854-.01171875 .47299195 .06121826 .47299195 .18902588 .47299195 .32281495 .35798646 .3627777 .30299378 .3677826V.3717804C.35699464 .38078309 .44400025 .4207611 .44400025 .5197296 .44400025 .6306915 .35699464 .6796875 .25 .6796875 .117996219 .6796875 .052993776 .60369876 .052993776 .5607147 .052993776 .5297241 .08799744 .51272585 .101989749 .51272585 .114990238 .51272585 .12298584 .5197296 .1269989 .5327301 .14898682 .60069277 .18699646 .64468386 .24299622 .64468386 .32199098 .64468386 .34098817 .57470706 .34098817 .51872256 .34098817 .4587555 .31999208 .38378907 .23498535 .38378907 .18699646 .38378907 .1599884 .39378358 .147995 .39378358 .1349945 .39378358 .12998963 .38378907 .12998963 .3657837Z"/>
<path id="font_2_4" d="M.4850006 .13195801 .45700074 .13696289C.43598939 .08299255 .41600038 .07598877 .37599183 .07598877H.11999512C.13598633 .1279602 .19499207 .19892884 .28799439 .2658844 .38398744 .33584596 .45799256 .38082887 .45799256 .49276734 .45799256 .63168337 .3659973 .6796875 .26098634 .6796875 .12399292 .6796875 .052993776 .5967102 .052993776 .54473879 .052993776 .51075747 .09098816 .49476625 .10798645 .49476625 .12599182 .49476625 .1329956 .50476077 .13699341 .5217438 .15299988 .5897064 .19198609 .64468386 .2539978 .64468386 .33099366 .64468386 .35299684 .5797119 .35299684 .50675967 .35299684 .3998108 .29899598 .33984376 .21199036 .26289369 .08898926 .15594483 .04598999 .08798218 .026992798 .009994507L.036987306 0H.45098878L.4850006 .13195801Z"/>
<path id="font_2_3" d="M.43699647 0V.0289917L.35299684 .035995485C.33198548 .037994386 .31999208 .04598999 .31999208 .08496094V.67367556L.31498719 .6796875 .10899353 .6446991V.6197052L.20199585 .6087036C.21899414 .6067047 .22599793 .5987091 .22599793 .56973269V.08496094C.22599793 .065979007 .22299195 .053985597 .21699524 .04698181 .21199036 .039993287 .20399475 .036987306 .19299317 .035995485L.10899353 .0289917V0H.43699647Z"/>
<path id="font_2_2" d="M.2649994 .64468386C.3600006 .64468386 .3869934 .49682618 .3869934 .33398438 .3869934 .17112732 .3600006 .023269654 .2649994 .023269654 .16999817 .023269654 .14299011 .17112732 .14299011 .33398438 .14299011 .49682618 .16999817 .64468386 .2649994 .64468386M.2649994 .6796875C.099990848 .6796875 .040985109 .53378298 .040985109 .33398438 .040985109 .13417053 .099990848-.01171875 .2649994-.01171875 .42999269-.01171875 .4889984 .13417053 .4889984 .33398438 .4889984 .53378298 .42999269 .6796875 .2649994 .6796875Z"/>
<path id="font_2_6" d="M.2999878 .17871094V.0769043C.2999878 .04296875 .2889862 .036987306 .2649994 .034988405L.20098877 .0289917V0H.46499635V.0289917L.41999818 .033981325C.39698792 .036987306 .3899994 .04296875 .3899994 .0769043V.17871094H.49299623V.22570801H.3899994V.66796877H.31698609C.22299195 .5298767 .11099243 .35577394 .018997193 .19970703L.027999878 .17871094H.2999878M.09098816 .22570801C.15098572 .33476258 .22099304 .4498291 .2979889 .5709076H.2999878V.22570801H.09098816Z"/>
<path id="font_2_7" d="M.42599488 .5919647 .44999696 .6599579 .44499208 .66796877H.11099243L.100997928 .65896609 .08099365 .32388307 .10499573 .31188966C.14698792 .35983277 .18798828 .3828125 .24198914 .3828125 .30599977 .3828125 .37599183 .3358612 .37599183 .20404053 .37599183 .10116577 .33399964 .023269654 .24699402 .023269654 .1769867 .023269654 .14099121 .07420349 .12098694 .13113404 .115997318 .14611817 .10699463 .15510559 .09298706 .15510559 .07299805 .15510559 .039993287 .13513184 .039993287 .10217285 .039993287 .056228639 .10998535-.01171875 .23999024-.01171875 .40499879-.01171875 .47999574 .0881958 .47999574 .21502686 .47999574 .35484315 .3919983 .4268036 .272995 .4268036 .21798706 .4268036 .15899658 .4028015 .1269989 .3738098L.125 .37580873 .147995 .56292727C.15098572 .58795168 .1579895 .5919647 .1769867 .5919647H.42599488Z"/>
</defs>
<path transform="matrix(1,0,0,-1.00005,98.007999,83.32051)" stroke-width=".3985" stroke-linecap="butt" stroke-miterlimit="10" stroke-linejoin="miter" fill="none" stroke="#cbcbcb" d="M-79.37135-45.35506V68.0326"/>
<path transform="matrix(1,0,0,-1.00005,98.007999,83.32051)" stroke-width=".3985" stroke-linecap="butt" stroke-miterlimit="10" stroke-linejoin="miter" fill="none" stroke="#cbcbcb" d="M-64.79303-45.35506V68.0326"/>
<path transform="matrix(1,0,0,-1.00005,98.007999,83.32051)" stroke-width=".3985" stroke-linecap="butt" stroke-miterlimit="10" stroke-linejoin="miter" fill="none" stroke="#cbcbcb" d="M-50.21472-45.35506V68.0326"/>
<path transform="matrix(1,0,0,-1.00005,98.007999,83.32051)" stroke-width=".3985" stroke-linecap="butt" stroke-miterlimit="10" stroke-linejoin="miter" fill="none" stroke="#cbcbcb" d="M-35.63641-45.35506V68.0326"/>
<path transform="matrix(1,0,0,-1.00005,98.007999,83.32051)" stroke-width=".3985" stroke-linecap="butt" stroke-miterlimit="10" stroke-linejoin="miter" fill="none" stroke="#cbcbcb" d="M-21.05809-45.35506V68.0326"/>
<path transform="matrix(1,0,0,-1.00005,98.007999,83.32051)" stroke-width=".3985" stroke-linecap="butt" stroke-miterlimit="10" stroke-linejoin="miter" fill="none" stroke="#cbcbcb" d="M-6.47978-45.35506V68.0326"/>
<path transform="matrix(1,0,0,-1.00005,98.007999,83.32051)" stroke-width=".3985" stroke-linecap="butt" stroke-miterlimit="10" stroke-linejoin="miter" fill="none" stroke="#cbcbcb" d="M8.09851-45.35506V68.0326"/>
<path transform="matrix(1,0,0,-1.00005,98.007999,83.32051)" stroke-width=".3985" stroke-linecap="butt" stroke-miterlimit="10" stroke-linejoin="miter" fill="none" stroke="#cbcbcb" d="M22.67683-45.35506V68.0326"/>
<path transform="matrix(1,0,0,-1.00005,98.007999,83.32051)" stroke-width=".3985" stroke-linecap="butt" stroke-miterlimit="10" stroke-linejoin="miter" fill="none" stroke="#cbcbcb" d="M37.25514-45.35506V68.0326"/>
<path transform="matrix(1,0,0,-1.00005,98.007999,83.32051)" stroke-width=".3985" stroke-linecap="butt" stroke-miterlimit="10" stroke-linejoin="miter" fill="none" stroke="#cbcbcb" d="M51.83347-45.35506V68.0326"/>
<path transform="matrix(1,0,0,-1.00005,98.007999,83.32051)" stroke-width=".3985" stroke-linecap="butt" stroke-miterlimit="10" stroke-linejoin="miter" fill="none" stroke="#cbcbcb" d="M66.41176-45.35506V68.0326"/>
<path transform="matrix(1,0,0,-1.00005,98.007999,83.32051)" stroke-width=".3985" stroke-linecap="butt" stroke-miterlimit="10" stroke-linejoin="miter" fill="none" stroke="#cbcbcb" d="M80.99008-45.35506V68.0326"/>
<path transform="matrix(1,0,0,-1.00005,98.007999,83.32051)" stroke-width=".3985" stroke-linecap="butt" stroke-miterlimit="10" stroke-linejoin="miter" fill="none" stroke="#cbcbcb" d="M95.5684-45.35506V68.0326"/>
<path transform="matrix(1,0,0,-1.00005,98.007999,83.32051)" stroke-width=".3985" stroke-linecap="butt" stroke-miterlimit="10" stroke-linejoin="miter" fill="none" stroke="#cbcbcb" d="M110.14671-45.35506V68.0326"/>
<path transform="matrix(1,0,0,-1.00005,98.007999,83.32051)" stroke-width=".3985" stroke-linecap="butt" stroke-miterlimit="10" stroke-linejoin="miter" fill="none" stroke="#cbcbcb" d="M124.72504-45.35506V68.0326"/>
<path transform="matrix(1,0,0,-1.00005,98.007999,83.32051)" stroke-width=".3985" stroke-linecap="butt" stroke-miterlimit="10" stroke-linejoin="miter" fill="none" stroke="#cbcbcb" d="M-90.71013-34.01628H136.0652"/>
<path transform="matrix(1,0,0,-1.00005,98.007999,83.32051)" stroke-width=".3985" stroke-linecap="butt" stroke-miterlimit="10" stroke-linejoin="miter" fill="none" stroke="#cbcbcb" d="M-90.71013-27.53719H136.0652"/>
<path transform="matrix(1,0,0,-1.00005,98.007999,83.32051)" stroke-width=".3985" stroke-linecap="butt" stroke-miterlimit="10" stroke-linejoin="miter" fill="none" stroke="#cbcbcb" d="M-90.71013-21.05809H136.0652"/>
<path transform="matrix(1,0,0,-1.00005,98.007999,83.32051)" stroke-width=".3985" stroke-linecap="butt" stroke-miterlimit="10" stroke-linejoin="miter" fill="none" stroke="#cbcbcb" d="M-90.71013-14.57898H136.0652"/>
<path transform="matrix(1,0,0,-1.00005,98.007999,83.32051)" stroke-width=".3985" stroke-linecap="butt" stroke-miterlimit="10" stroke-linejoin="miter" fill="none" stroke="#cbcbcb" d="M-90.71013-8.09988H136.0652"/>
<path transform="matrix(1,0,0,-1.00005,98.007999,83.32051)" stroke-width=".3985" stroke-linecap="butt" stroke-miterlimit="10" stroke-linejoin="miter" fill="none" stroke="#cbcbcb" d="M-90.71013-1.6208H136.0652"/>
<path transform="matrix(1,0,0,-1.00005,98.007999,83.32051)" stroke-width=".3985" stroke-linecap="butt" stroke-miterlimit="10" stroke-linejoin="miter" fill="none" stroke="#cbcbcb" d="M-90.71013 4.85828H136.0652"/>
<path transform="matrix(1,0,0,-1.00005,98.007999,83.32051)" stroke-width=".3985" stroke-linecap="butt" stroke-miterlimit="10" stroke-linejoin="miter" fill="none" stroke="#cbcbcb" d="M-90.71013 11.33736H136.0652"/>
<path transform="matrix(1,0,0,-1.00005,98.007999,83.32051)" stroke-width=".3985" stroke-linecap="butt" stroke-miterlimit="10" stroke-linejoin="miter" fill="none" stroke="#cbcbcb" d="M-90.71013 17.81645H136.0652"/>
<path transform="matrix(1,0,0,-1.00005,98.007999,83.32051)" stroke-width=".3985" stroke-linecap="butt" stroke-miterlimit="10" stroke-linejoin="miter" fill="none" stroke="#cbcbcb" d="M-90.71013 24.29556H136.0652"/>
<path transform="matrix(1,0,0,-1.00005,98.007999,83.32051)" stroke-width=".3985" stroke-linecap="butt" stroke-miterlimit="10" stroke-linejoin="miter" fill="none" stroke="#cbcbcb" d="M-90.71013 30.77466H136.0652"/>
<path transform="matrix(1,0,0,-1.00005,98.007999,83.32051)" stroke-width=".3985" stroke-linecap="butt" stroke-miterlimit="10" stroke-linejoin="miter" fill="none" stroke="#cbcbcb" d="M-90.71013 37.25375H136.0652"/>
<path transform="matrix(1,0,0,-1.00005,98.007999,83.32051)" stroke-width=".3985" stroke-linecap="butt" stroke-miterlimit="10" stroke-linejoin="miter" fill="none" stroke="#cbcbcb" d="M-90.71013 43.73285H136.0652"/>
<path transform="matrix(1,0,0,-1.00005,98.007999,83.32051)" stroke-width=".3985" stroke-linecap="butt" stroke-miterlimit="10" stroke-linejoin="miter" fill="none" stroke="#cbcbcb" d="M-90.71013 50.21194H136.0652"/>
<path transform="matrix(1,0,0,-1.00005,98.007999,83.32051)" stroke-width=".3985" stroke-linecap="butt" stroke-miterlimit="10" stroke-linejoin="miter" fill="none" stroke="#cbcbcb" d="M-90.71013 56.69104H136.0652"/>
<path transform="matrix(1,0,0,-1.00005,98.007999,83.32051)" stroke-width=".3985" stroke-linecap="butt" stroke-miterlimit="10" stroke-linejoin="miter" fill="none" stroke="#000000" d="M-90.71013 0H149.27335"/>
<path transform="matrix(1,0,0,-1.00005,247.48059,83.32051)" stroke-width=".3985" stroke-linecap="round" stroke-linejoin="round" fill="none" stroke="#000000" d="M-2.07224 2.39104C-1.69365 .95639-.84999 .27895 0 0-.84999-.27895-1.69365-.95639-2.07224-2.39104"/>
<use data-text="t" xlink:href="#font_1_1" transform="matrix(7.3325,0,0,-7.332866,243.28202,91.23891)"/>
<path transform="matrix(1,0,0,-1.00005,98.007999,83.32051)" stroke-width=".3985" stroke-linecap="butt" stroke-miterlimit="10" stroke-linejoin="miter" fill="none" stroke="#000000" d="M0-45.35506V81.24074"/>
<path transform="matrix(0,-1.00005,-1,-0,98.007999,1.8764572)" stroke-width=".3985" stroke-linecap="round" stroke-linejoin="round" fill="none" stroke="#000000" d="M-2.07224 2.39104C-1.69365 .95639-.84999 .27895 0 0-.84999-.27895-1.69365-.95639-2.07224-2.39104"/>
<use data-text="y" xlink:href="#font_1_2" transform="matrix(7.3325,0,0,-7.332866,90.504009,5.4246218)"/>
<path transform="matrix(1,0,0,-1.00005,98.007999,83.32051)" stroke-width=".3985" stroke-linecap="butt" stroke-miterlimit="10" stroke-linejoin="miter" fill="none" stroke="#cbcbcb" d="M-90.71013-45.35506V68.0326H136.0652V-45.35506ZM136.0652 68.0326"/>
<path transform="matrix(1,0,0,-1.00005,98.007999,83.32051)" stroke-width=".3985" stroke-linecap="butt" stroke-miterlimit="10" stroke-linejoin="miter" fill="none" stroke="#000000" d="M-68.0326-47.62294V-43.08716"/>
<use data-text="-" xlink:href="#font_2_1" transform="matrix(5.4994,0,0,-5.499675,24.602997,133.49102)"/>
<use data-text="3" xlink:href="#font_2_5" transform="matrix(5.4994,0,0,-5.499675,26.758759,133.49102)"/>
<path transform="matrix(1,0,0,-1.00005,98.007999,83.32051)" stroke-width=".3985" stroke-linecap="butt" stroke-miterlimit="10" stroke-linejoin="miter" fill="none" stroke="#000000" d="M-45.35506-47.62294V-43.08716"/>
<use data-text="-" xlink:href="#font_2_1" transform="matrix(5.4994,0,0,-5.499675,47.28099,133.49102)"/>
<use data-text="2" xlink:href="#font_2_4" transform="matrix(5.4994,0,0,-5.499675,49.436754,133.49102)"/>
<path transform="matrix(1,0,0,-1.00005,98.007999,83.32051)" stroke-width=".3985" stroke-linecap="butt" stroke-miterlimit="10" stroke-linejoin="miter" fill="none" stroke="#000000" d="M-22.67752-47.62294V-43.08716"/>
<use data-text="-" xlink:href="#font_2_1" transform="matrix(5.4994,0,0,-5.499675,69.95799,133.49102)"/>
<use data-text="1" xlink:href="#font_2_3" transform="matrix(5.4994,0,0,-5.499675,72.113758,133.49102)"/>
<path transform="matrix(1,0,0,-1.00005,98.007999,83.32051)" stroke-width=".3985" stroke-linecap="butt" stroke-miterlimit="10" stroke-linejoin="miter" fill="none" stroke="#000000" d="M0-47.62294V-43.08716"/>
<use data-text="0" xlink:href="#font_2_2" transform="matrix(5.4994,0,0,-5.499675,96.548999,133.49102)"/>
<path transform="matrix(1,0,0,-1.00005,98.007999,83.32051)" stroke-width=".3985" stroke-linecap="butt" stroke-miterlimit="10" stroke-linejoin="miter" fill="none" stroke="#000000" d="M22.67752-47.62294V-43.08716"/>
<use data-text="1" xlink:href="#font_2_3" transform="matrix(5.4994,0,0,-5.499675,119.227,133.49102)"/>
<path transform="matrix(1,0,0,-1.00005,98.007999,83.32051)" stroke-width=".3985" stroke-linecap="butt" stroke-miterlimit="10" stroke-linejoin="miter" fill="none" stroke="#000000" d="M45.35506-47.62294V-43.08716"/>
<use data-text="2" xlink:href="#font_2_4" transform="matrix(5.4994,0,0,-5.499675,141.905,133.49102)"/>
<path transform="matrix(1,0,0,-1.00005,98.007999,83.32051)" stroke-width=".3985" stroke-linecap="butt" stroke-miterlimit="10" stroke-linejoin="miter" fill="none" stroke="#000000" d="M68.0326-47.62294V-43.08716"/>
<use data-text="3" xlink:href="#font_2_5" transform="matrix(5.4994,0,0,-5.499675,164.582,133.49102)"/>
<path transform="matrix(1,0,0,-1.00005,98.007999,83.32051)" stroke-width=".3985" stroke-linecap="butt" stroke-miterlimit="10" stroke-linejoin="miter" fill="none" stroke="#000000" d="M90.71013-47.62294V-43.08716"/>
<use data-text="4" xlink:href="#font_2_6" transform="matrix(5.4994,0,0,-5.499675,187.26,133.49102)"/>
<path transform="matrix(1,0,0,-1.00005,98.007999,83.32051)" stroke-width=".3985" stroke-linecap="butt" stroke-miterlimit="10" stroke-linejoin="miter" fill="none" stroke="#000000" d="M113.38766-47.62294V-43.08716"/>
<use data-text="5" xlink:href="#font_2_7" transform="matrix(5.4994,0,0,-5.499675,209.937,133.49102)"/>
<path transform="matrix(1,0,0,-1.00005,98.007999,83.32051)" stroke-width=".3985" stroke-linecap="butt" stroke-miterlimit="10" stroke-linejoin="miter" fill="none" stroke="#000000" d="M-92.97801-22.67752H-88.44221"/>
<use data-text="-" xlink:href="#font_2_1" transform="matrix(5.4994,0,0,-5.499675,1.0919952,107.84074)"/>
<use data-text="1" xlink:href="#font_2_3" transform="matrix(5.4994,0,0,-5.499675,3.247757,107.84074)"/>
<path transform="matrix(1,0,0,-1.00005,98.007999,83.32051)" stroke-width=".3985" stroke-linecap="butt" stroke-miterlimit="10" stroke-linejoin="miter" fill="none" stroke="#000000" d="M-92.97801 0H-88.44221"/>
<use data-text="0" xlink:href="#font_2_2" transform="matrix(5.4994,0,0,-5.499675,3.25,85.1466)"/>
<path transform="matrix(1,0,0,-1.00005,98.007999,83.32051)" stroke-width=".3985" stroke-linecap="butt" stroke-miterlimit="10" stroke-linejoin="miter" fill="none" stroke="#000000" d="M-92.97801 22.67752H-88.44221"/>
<use data-text="1" xlink:href="#font_2_3" transform="matrix(5.4994,0,0,-5.499675,3.25,62.483469)"/>
<path transform="matrix(1,0,0,-1.00005,98.007999,83.32051)" stroke-width=".3985" stroke-linecap="butt" stroke-miterlimit="10" stroke-linejoin="miter" fill="none" stroke="#000000" d="M-92.97801 45.35506H-88.44221"/>
<use data-text="2" xlink:href="#font_2_4" transform="matrix(5.4994,0,0,-5.499675,3.25,39.804338)"/>
<path transform="matrix(1,0,0,-1.00005,98.007999,83.32051)" stroke-width=".79701" stroke-linecap="butt" stroke-miterlimit="10" stroke-linejoin="miter" fill="none" stroke="#409f9f" d="M-79.8011-38.53128-78.94159-29.50127"/>
<path transform="matrix(1,0,0,-1.00005,98.007999,83.32051)" stroke-width=".79701" stroke-linecap="butt" stroke-miterlimit="10" stroke-linejoin="miter" fill="none" stroke="#409f9f" d="M-79.94746-32.0356-78.79523-23.03879"/>
<path transform="matrix(1,0,0,-1.00005,98.007999,83.32051)" stroke-width=".79701" stroke-linecap="butt" stroke-miterlimit="10" stroke-linejoin="miter" fill="none" stroke="#409f9f" d="M-80.19144-25.51878-78.55125-16.59741"/>
<path transform="matrix(1,0,0,-1.00005,98.007999,83.32051)" stroke-width=".79701" stroke-linecap="butt" stroke-miterlimit="10" stroke-linejoin="miter" fill="none" stroke="#409f9f" d="M-80.652-18.92996-78.0907-10.228"/>
<path transform="matrix(1,0,0,-1.00005,98.007999,83.32051)" stroke-width=".79701" stroke-linecap="butt" stroke-miterlimit="10" stroke-linejoin="miter" fill="none" stroke="#409f9f" d="M-81.68663-11.99791-77.05606-4.20184"/>
<path transform="matrix(1,0,0,-1.00005,98.007999,83.32051)" stroke-width=".79701" stroke-linecap="butt" stroke-miterlimit="10" stroke-linejoin="miter" fill="none" stroke="#409f9f" d="M-83.71852-2.90767-75.02417-.33392"/>
<path transform="matrix(1,0,0,-1.00005,98.007999,83.32051)" stroke-width=".79701" stroke-linecap="butt" stroke-miterlimit="10" stroke-linejoin="miter" fill="none" stroke="#409f9f" d="M-82.97249 7.61371-75.7702 2.10283"/>
<path transform="matrix(1,0,0,-1.00005,98.007999,83.32051)" stroke-width=".79701" stroke-linecap="butt" stroke-miterlimit="10" stroke-linejoin="miter" fill="none" stroke="#409f9f" d="M-81.88629 15.11082-76.8564 7.56389"/>
<path transform="matrix(1,0,0,-1.00005,98.007999,83.32051)" stroke-width=".79701" stroke-linecap="butt" stroke-miterlimit="10" stroke-linejoin="miter" fill="none" stroke="#409f9f" d="M-81.47556 21.83318-77.26714 13.79973"/>
<path transform="matrix(1,0,0,-1.00005,98.007999,83.32051)" stroke-width=".79701" stroke-linecap="butt" stroke-miterlimit="10" stroke-linejoin="miter" fill="none" stroke="#409f9f" d="M-81.40773 28.34795-77.33496 20.2432"/>
<path transform="matrix(1,0,0,-1.00005,98.007999,83.32051)" stroke-width=".79701" stroke-linecap="butt" stroke-miterlimit="10" stroke-linejoin="miter" fill="none" stroke="#409f9f" d="M-81.62538 34.70938-77.11731 26.83995"/>
<path transform="matrix(1,0,0,-1.00005,98.007999,83.32051)" stroke-width=".79701" stroke-linecap="butt" stroke-miterlimit="10" stroke-linejoin="miter" fill="none" stroke="#409f9f" d="M-82.3126 40.7061-76.43008 33.80139"/>
<path transform="matrix(1,0,0,-1.00005,98.007999,83.32051)" stroke-width=".79701" stroke-linecap="butt" stroke-miterlimit="10" stroke-linejoin="miter" fill="none" stroke="#409f9f" d="M-83.74242 44.93874-75.00027 42.52695"/>
<path transform="matrix(1,0,0,-1.00005,98.007999,83.32051)" stroke-width=".79701" stroke-linecap="butt" stroke-miterlimit="10" stroke-linejoin="miter" fill="none" stroke="#409f9f" d="M-82.66176 47.09041-76.08093 53.33348"/>
<path transform="matrix(1,0,0,-1.00005,98.007999,83.32051)" stroke-width=".79701" stroke-linecap="butt" stroke-miterlimit="10" stroke-linejoin="miter" fill="none" stroke="#409f9f" d="M-81.05617 52.48055-77.68652 60.90154"/>
<path transform="matrix(1,0,0,-1.00005,98.007999,83.32051)" stroke-width=".79701" stroke-linecap="butt" stroke-miterlimit="10" stroke-linejoin="miter" fill="none" stroke="#409f9f" d="M-65.2228-38.53128-64.36327-29.50127"/>
<path transform="matrix(1,0,0,-1.00005,98.007999,83.32051)" stroke-width=".79701" stroke-linecap="butt" stroke-miterlimit="10" stroke-linejoin="miter" fill="none" stroke="#409f9f" d="M-65.36916-32.0356-64.2169-23.03879"/>
<path transform="matrix(1,0,0,-1.00005,98.007999,83.32051)" stroke-width=".79701" stroke-linecap="butt" stroke-miterlimit="10" stroke-linejoin="miter" fill="none" stroke="#409f9f" d="M-65.61311-25.51878-63.97295-16.59741"/>
<path transform="matrix(1,0,0,-1.00005,98.007999,83.32051)" stroke-width=".79701" stroke-linecap="butt" stroke-miterlimit="10" stroke-linejoin="miter" fill="none" stroke="#409f9f" d="M-66.07367-18.92996-63.51239-10.228"/>
<path transform="matrix(1,0,0,-1.00005,98.007999,83.32051)" stroke-width=".79701" stroke-linecap="butt" stroke-miterlimit="10" stroke-linejoin="miter" fill="none" stroke="#409f9f" d="M-67.10832-11.99791-62.47774-4.20184"/>
<path transform="matrix(1,0,0,-1.00005,98.007999,83.32051)" stroke-width=".79701" stroke-linecap="butt" stroke-miterlimit="10" stroke-linejoin="miter" fill="none" stroke="#409f9f" d="M-69.1402-2.90767-60.44586-.33392"/>
<path transform="matrix(1,0,0,-1.00005,98.007999,83.32051)" stroke-width=".79701" stroke-linecap="butt" stroke-miterlimit="10" stroke-linejoin="miter" fill="none" stroke="#409f9f" d="M-68.39417 7.61371-61.1919 2.10283"/>
<path transform="matrix(1,0,0,-1.00005,98.007999,83.32051)" stroke-width=".79701" stroke-linecap="butt" stroke-miterlimit="10" stroke-linejoin="miter" fill="none" stroke="#409f9f" d="M-67.30797 15.11082-62.27809 7.56389"/>
<path transform="matrix(1,0,0,-1.00005,98.007999,83.32051)" stroke-width=".79701" stroke-linecap="butt" stroke-miterlimit="10" stroke-linejoin="miter" fill="none" stroke="#409f9f" d="M-66.89725 21.83318-62.68881 13.79973"/>
<path transform="matrix(1,0,0,-1.00005,98.007999,83.32051)" stroke-width=".79701" stroke-linecap="butt" stroke-miterlimit="10" stroke-linejoin="miter" fill="none" stroke="#409f9f" d="M-66.8294 28.34795-62.75665 20.2432"/>
<path transform="matrix(1,0,0,-1.00005,98.007999,83.32051)" stroke-width=".79701" stroke-linecap="butt" stroke-miterlimit="10" stroke-linejoin="miter" fill="none" stroke="#409f9f" d="M-67.04707 34.70938-62.53899 26.83995"/>
<path transform="matrix(1,0,0,-1.00005,98.007999,83.32051)" stroke-width=".79701" stroke-linecap="butt" stroke-miterlimit="10" stroke-linejoin="miter" fill="none" stroke="#409f9f" d="M-67.7343 40.7061-61.85176 33.80139"/>
<path transform="matrix(1,0,0,-1.00005,98.007999,83.32051)" stroke-width=".79701" stroke-linecap="butt" stroke-miterlimit="10" stroke-linejoin="miter" fill="none" stroke="#409f9f" d="M-69.1641 44.93874-60.42195 42.52695"/>
<path transform="matrix(1,0,0,-1.00005,98.007999,83.32051)" stroke-width=".79701" stroke-linecap="butt" stroke-miterlimit="10" stroke-linejoin="miter" fill="none" stroke="#409f9f" d="M-68.08344 47.09041-61.50262 53.33348"/>
<path transform="matrix(1,0,0,-1.00005,98.007999,83.32051)" stroke-width=".79701" stroke-linecap="butt" stroke-miterlimit="10" stroke-linejoin="miter" fill="none" stroke="#409f9f" d="M-66.47784 52.48055-63.10822 60.90154"/>
<path transform="matrix(1,0,0,-1.00005,98.007999,83.32051)" stroke-width=".79701" stroke-linecap="butt" stroke-miterlimit="10" stroke-linejoin="miter" fill="none" stroke="#409f9f" d="M-50.64449-38.53128-49.78497-29.50127"/>
<path transform="matrix(1,0,0,-1.00005,98.007999,83.32051)" stroke-width=".79701" stroke-linecap="butt" stroke-miterlimit="10" stroke-linejoin="miter" fill="none" stroke="#409f9f" d="M-50.79085-32.0356-49.6386-23.03879"/>
<path transform="matrix(1,0,0,-1.00005,98.007999,83.32051)" stroke-width=".79701" stroke-linecap="butt" stroke-miterlimit="10" stroke-linejoin="miter" fill="none" stroke="#409f9f" d="M-51.0348-25.51878-49.39464-16.59741"/>
<path transform="matrix(1,0,0,-1.00005,98.007999,83.32051)" stroke-width=".79701" stroke-linecap="butt" stroke-miterlimit="10" stroke-linejoin="miter" fill="none" stroke="#409f9f" d="M-51.49538-18.92996-48.93408-10.228"/>
<path transform="matrix(1,0,0,-1.00005,98.007999,83.32051)" stroke-width=".79701" stroke-linecap="butt" stroke-miterlimit="10" stroke-linejoin="miter" fill="none" stroke="#409f9f" d="M-52.53001-11.99791-47.89943-4.20184"/>
<path transform="matrix(1,0,0,-1.00005,98.007999,83.32051)" stroke-width=".79701" stroke-linecap="butt" stroke-miterlimit="10" stroke-linejoin="miter" fill="none" stroke="#409f9f" d="M-54.5619-2.90767-45.86755-.33392"/>
<path transform="matrix(1,0,0,-1.00005,98.007999,83.32051)" stroke-width=".79701" stroke-linecap="butt" stroke-miterlimit="10" stroke-linejoin="miter" fill="none" stroke="#409f9f" d="M-53.81586 7.61371-46.61359 2.10283"/>
<path transform="matrix(1,0,0,-1.00005,98.007999,83.32051)" stroke-width=".79701" stroke-linecap="butt" stroke-miterlimit="10" stroke-linejoin="miter" fill="none" stroke="#409f9f" d="M-52.72966 15.11082-47.69978 7.56389"/>
<path transform="matrix(1,0,0,-1.00005,98.007999,83.32051)" stroke-width=".79701" stroke-linecap="butt" stroke-miterlimit="10" stroke-linejoin="miter" fill="none" stroke="#409f9f" d="M-52.31894 21.83318-48.11052 13.79973"/>
<path transform="matrix(1,0,0,-1.00005,98.007999,83.32051)" stroke-width=".79701" stroke-linecap="butt" stroke-miterlimit="10" stroke-linejoin="miter" fill="none" stroke="#409f9f" d="M-52.25111 28.34795-48.17834 20.2432"/>
<path transform="matrix(1,0,0,-1.00005,98.007999,83.32051)" stroke-width=".79701" stroke-linecap="butt" stroke-miterlimit="10" stroke-linejoin="miter" fill="none" stroke="#409f9f" d="M-52.46877 34.70938-47.96068 26.83995"/>
<path transform="matrix(1,0,0,-1.00005,98.007999,83.32051)" stroke-width=".79701" stroke-linecap="butt" stroke-miterlimit="10" stroke-linejoin="miter" fill="none" stroke="#409f9f" d="M-53.15599 40.7061-47.27347 33.80139"/>
<path transform="matrix(1,0,0,-1.00005,98.007999,83.32051)" stroke-width=".79701" stroke-linecap="butt" stroke-miterlimit="10" stroke-linejoin="miter" fill="none" stroke="#409f9f" d="M-54.5858 44.93874-45.84366 42.52695"/>
<path transform="matrix(1,0,0,-1.00005,98.007999,83.32051)" stroke-width=".79701" stroke-linecap="butt" stroke-miterlimit="10" stroke-linejoin="miter" fill="none" stroke="#409f9f" d="M-53.50513 47.09041-46.92432 53.33348"/>
<path transform="matrix(1,0,0,-1.00005,98.007999,83.32051)" stroke-width=".79701" stroke-linecap="butt" stroke-miterlimit="10" stroke-linejoin="miter" fill="none" stroke="#409f9f" d="M-51.89955 52.48055-48.5299 60.90154"/>
<path transform="matrix(1,0,0,-1.00005,98.007999,83.32051)" stroke-width=".79701" stroke-linecap="butt" stroke-miterlimit="10" stroke-linejoin="miter" fill="none" stroke="#409f9f" d="M-36.06616-38.53128-35.20665-29.50127"/>
<path transform="matrix(1,0,0,-1.00005,98.007999,83.32051)" stroke-width=".79701" stroke-linecap="butt" stroke-miterlimit="10" stroke-linejoin="miter" fill="none" stroke="#409f9f" d="M-36.21254-32.0356-35.06029-23.03879"/>
<path transform="matrix(1,0,0,-1.00005,98.007999,83.32051)" stroke-width=".79701" stroke-linecap="butt" stroke-miterlimit="10" stroke-linejoin="miter" fill="none" stroke="#409f9f" d="M-36.4565-25.51878-34.81633-16.59741"/>
<path transform="matrix(1,0,0,-1.00005,98.007999,83.32051)" stroke-width=".79701" stroke-linecap="butt" stroke-miterlimit="10" stroke-linejoin="miter" fill="none" stroke="#409f9f" d="M-36.91705-18.92996-34.35576-10.228"/>
<path transform="matrix(1,0,0,-1.00005,98.007999,83.32051)" stroke-width=".79701" stroke-linecap="butt" stroke-miterlimit="10" stroke-linejoin="miter" fill="none" stroke="#409f9f" d="M-37.9517-11.99791-33.32112-4.20184"/>
<path transform="matrix(1,0,0,-1.00005,98.007999,83.32051)" stroke-width=".79701" stroke-linecap="butt" stroke-miterlimit="10" stroke-linejoin="miter" fill="none" stroke="#409f9f" d="M-39.98358-2.90767-31.28923-.33392"/>
<path transform="matrix(1,0,0,-1.00005,98.007999,83.32051)" stroke-width=".79701" stroke-linecap="butt" stroke-miterlimit="10" stroke-linejoin="miter" fill="none" stroke="#409f9f" d="M-39.23755 7.61371-32.03528 2.10283"/>
<path transform="matrix(1,0,0,-1.00005,98.007999,83.32051)" stroke-width=".79701" stroke-linecap="butt" stroke-miterlimit="10" stroke-linejoin="miter" fill="none" stroke="#409f9f" d="M-38.15135 15.11082-33.12148 7.56389"/>
<path transform="matrix(1,0,0,-1.00005,98.007999,83.32051)" stroke-width=".79701" stroke-linecap="butt" stroke-miterlimit="10" stroke-linejoin="miter" fill="none" stroke="#409f9f" d="M-37.74062 21.83318-33.5322 13.79973"/>
<path transform="matrix(1,0,0,-1.00005,98.007999,83.32051)" stroke-width=".79701" stroke-linecap="butt" stroke-miterlimit="10" stroke-linejoin="miter" fill="none" stroke="#409f9f" d="M-37.67279 28.34795-33.60002 20.2432"/>
<path transform="matrix(1,0,0,-1.00005,98.007999,83.32051)" stroke-width=".79701" stroke-linecap="butt" stroke-miterlimit="10" stroke-linejoin="miter" fill="none" stroke="#409f9f" d="M-37.89046 34.70938-33.38237 26.83995"/>
<path transform="matrix(1,0,0,-1.00005,98.007999,83.32051)" stroke-width=".79701" stroke-linecap="butt" stroke-miterlimit="10" stroke-linejoin="miter" fill="none" stroke="#409f9f" d="M-38.57767 40.7061-32.69514 33.80139"/>
<path transform="matrix(1,0,0,-1.00005,98.007999,83.32051)" stroke-width=".79701" stroke-linecap="butt" stroke-miterlimit="10" stroke-linejoin="miter" fill="none" stroke="#409f9f" d="M-40.00748 44.93874-31.26534 42.52695"/>
<path transform="matrix(1,0,0,-1.00005,98.007999,83.32051)" stroke-width=".79701" stroke-linecap="butt" stroke-miterlimit="10" stroke-linejoin="miter" fill="none" stroke="#409f9f" d="M-38.92682 47.09041-32.34601 53.33348"/>
<path transform="matrix(1,0,0,-1.00005,98.007999,83.32051)" stroke-width=".79701" stroke-linecap="butt" stroke-miterlimit="10" stroke-linejoin="miter" fill="none" stroke="#409f9f" d="M-37.32123 52.48055-33.95158 60.90154"/>
<path transform="matrix(1,0,0,-1.00005,98.007999,83.32051)" stroke-width=".79701" stroke-linecap="butt" stroke-miterlimit="10" stroke-linejoin="miter" fill="none" stroke="#409f9f" d="M-21.48785-38.53128-20.62833-29.50127"/>
<path transform="matrix(1,0,0,-1.00005,98.007999,83.32051)" stroke-width=".79701" stroke-linecap="butt" stroke-miterlimit="10" stroke-linejoin="miter" fill="none" stroke="#409f9f" d="M-21.63422-32.0356-20.48196-23.03879"/>
<path transform="matrix(1,0,0,-1.00005,98.007999,83.32051)" stroke-width=".79701" stroke-linecap="butt" stroke-miterlimit="10" stroke-linejoin="miter" fill="none" stroke="#409f9f" d="M-21.87817-25.51878-20.238-16.59741"/>
<path transform="matrix(1,0,0,-1.00005,98.007999,83.32051)" stroke-width=".79701" stroke-linecap="butt" stroke-miterlimit="10" stroke-linejoin="miter" fill="none" stroke="#409f9f" d="M-22.33873-18.92996-19.77745-10.228"/>
<path transform="matrix(1,0,0,-1.00005,98.007999,83.32051)" stroke-width=".79701" stroke-linecap="butt" stroke-miterlimit="10" stroke-linejoin="miter" fill="none" stroke="#409f9f" d="M-23.37338-11.99791-18.7428-4.20184"/>
<path transform="matrix(1,0,0,-1.00005,98.007999,83.32051)" stroke-width=".79701" stroke-linecap="butt" stroke-miterlimit="10" stroke-linejoin="miter" fill="none" stroke="#409f9f" d="M-25.40526-2.90767-16.71092-.33392"/>
<path transform="matrix(1,0,0,-1.00005,98.007999,83.32051)" stroke-width=".79701" stroke-linecap="butt" stroke-miterlimit="10" stroke-linejoin="miter" fill="none" stroke="#409f9f" d="M-24.65923 7.61371-17.45695 2.10283"/>
<path transform="matrix(1,0,0,-1.00005,98.007999,83.32051)" stroke-width=".79701" stroke-linecap="butt" stroke-miterlimit="10" stroke-linejoin="miter" fill="none" stroke="#409f9f" d="M-23.57303 15.11082-18.54315 7.56389"/>
<path transform="matrix(1,0,0,-1.00005,98.007999,83.32051)" stroke-width=".79701" stroke-linecap="butt" stroke-miterlimit="10" stroke-linejoin="miter" fill="none" stroke="#409f9f" d="M-23.16231 21.83318-18.95387 13.79973"/>
<path transform="matrix(1,0,0,-1.00005,98.007999,83.32051)" stroke-width=".79701" stroke-linecap="butt" stroke-miterlimit="10" stroke-linejoin="miter" fill="none" stroke="#409f9f" d="M-23.09447 28.34795-19.02171 20.2432"/>
<path transform="matrix(1,0,0,-1.00005,98.007999,83.32051)" stroke-width=".79701" stroke-linecap="butt" stroke-miterlimit="10" stroke-linejoin="miter" fill="none" stroke="#409f9f" d="M-23.31213 34.70938-18.80405 26.83995"/>
<path transform="matrix(1,0,0,-1.00005,98.007999,83.32051)" stroke-width=".79701" stroke-linecap="butt" stroke-miterlimit="10" stroke-linejoin="miter" fill="none" stroke="#409f9f" d="M-23.99936 40.7061-18.11682 33.80139"/>
<path transform="matrix(1,0,0,-1.00005,98.007999,83.32051)" stroke-width=".79701" stroke-linecap="butt" stroke-miterlimit="10" stroke-linejoin="miter" fill="none" stroke="#409f9f" d="M-25.42917 44.93874-16.68703 42.52695"/>
<path transform="matrix(1,0,0,-1.00005,98.007999,83.32051)" stroke-width=".79701" stroke-linecap="butt" stroke-miterlimit="10" stroke-linejoin="miter" fill="none" stroke="#409f9f" d="M-24.3485 47.09041-17.76768 53.33348"/>
<path transform="matrix(1,0,0,-1.00005,98.007999,83.32051)" stroke-width=".79701" stroke-linecap="butt" stroke-miterlimit="10" stroke-linejoin="miter" fill="none" stroke="#409f9f" d="M-22.7429 52.48055-19.37328 60.90154"/>
<path transform="matrix(1,0,0,-1.00005,98.007999,83.32051)" stroke-width=".79701" stroke-linecap="butt" stroke-miterlimit="10" stroke-linejoin="miter" fill="none" stroke="#409f9f" d="M-6.90953-38.53128-6.05002-29.50127"/>
<path transform="matrix(1,0,0,-1.00005,98.007999,83.32051)" stroke-width=".79701" stroke-linecap="butt" stroke-miterlimit="10" stroke-linejoin="miter" fill="none" stroke="#409f9f" d="M-7.0559-32.0356-5.90366-23.03879"/>
<path transform="matrix(1,0,0,-1.00005,98.007999,83.32051)" stroke-width=".79701" stroke-linecap="butt" stroke-miterlimit="10" stroke-linejoin="miter" fill="none" stroke="#409f9f" d="M-7.29987-25.51878-5.65968-16.59741"/>
<path transform="matrix(1,0,0,-1.00005,98.007999,83.32051)" stroke-width=".79701" stroke-linecap="butt" stroke-miterlimit="10" stroke-linejoin="miter" fill="none" stroke="#409f9f" d="M-7.76042-18.92996-5.19913-10.228"/>
<path transform="matrix(1,0,0,-1.00005,98.007999,83.32051)" stroke-width=".79701" stroke-linecap="butt" stroke-miterlimit="10" stroke-linejoin="miter" fill="none" stroke="#409f9f" d="M-8.79506-11.99791-4.16449-4.20184"/>
<path transform="matrix(1,0,0,-1.00005,98.007999,83.32051)" stroke-width=".79701" stroke-linecap="butt" stroke-miterlimit="10" stroke-linejoin="miter" fill="none" stroke="#409f9f" d="M-10.82695-2.90767-2.1326-.33392"/>
<path transform="matrix(1,0,0,-1.00005,98.007999,83.32051)" stroke-width=".79701" stroke-linecap="butt" stroke-miterlimit="10" stroke-linejoin="miter" fill="none" stroke="#409f9f" d="M-10.08092 7.61371-2.87863 2.10283"/>
<path transform="matrix(1,0,0,-1.00005,98.007999,83.32051)" stroke-width=".79701" stroke-linecap="butt" stroke-miterlimit="10" stroke-linejoin="miter" fill="none" stroke="#409f9f" d="M-8.99472 15.11082-3.96483 7.56389"/>
<path transform="matrix(1,0,0,-1.00005,98.007999,83.32051)" stroke-width=".79701" stroke-linecap="butt" stroke-miterlimit="10" stroke-linejoin="miter" fill="none" stroke="#409f9f" d="M-8.58398 21.83318-4.37556 13.79973"/>
<path transform="matrix(1,0,0,-1.00005,98.007999,83.32051)" stroke-width=".79701" stroke-linecap="butt" stroke-miterlimit="10" stroke-linejoin="miter" fill="none" stroke="#409f9f" d="M-8.51616 28.34795-4.44339 20.2432"/>
<path transform="matrix(1,0,0,-1.00005,98.007999,83.32051)" stroke-width=".79701" stroke-linecap="butt" stroke-miterlimit="10" stroke-linejoin="miter" fill="none" stroke="#409f9f" d="M-8.73381 34.70938-4.22574 26.83995"/>
<path transform="matrix(1,0,0,-1.00005,98.007999,83.32051)" stroke-width=".79701" stroke-linecap="butt" stroke-miterlimit="10" stroke-linejoin="miter" fill="none" stroke="#409f9f" d="M-9.42104 40.7061-3.53851 33.80139"/>
<path transform="matrix(1,0,0,-1.00005,98.007999,83.32051)" stroke-width=".79701" stroke-linecap="butt" stroke-miterlimit="10" stroke-linejoin="miter" fill="none" stroke="#409f9f" d="M-10.85085 44.93874-2.1087 42.52695"/>
<path transform="matrix(1,0,0,-1.00005,98.007999,83.32051)" stroke-width=".79701" stroke-linecap="butt" stroke-miterlimit="10" stroke-linejoin="miter" fill="none" stroke="#409f9f" d="M-9.77019 47.09041-3.18936 53.33348"/>
<path transform="matrix(1,0,0,-1.00005,98.007999,83.32051)" stroke-width=".79701" stroke-linecap="butt" stroke-miterlimit="10" stroke-linejoin="miter" fill="none" stroke="#409f9f" d="M-8.1646 52.48055-4.79495 60.90154"/>
<path transform="matrix(1,0,0,-1.00005,98.007999,83.32051)" stroke-width=".79701" stroke-linecap="butt" stroke-miterlimit="10" stroke-linejoin="miter" fill="none" stroke="#409f9f" d="M7.66875-38.53128 8.52827-29.50127"/>
<path transform="matrix(1,0,0,-1.00005,98.007999,83.32051)" stroke-width=".79701" stroke-linecap="butt" stroke-miterlimit="10" stroke-linejoin="miter" fill="none" stroke="#409f9f" d="M7.52238-32.0356 8.67464-23.03879"/>
<path transform="matrix(1,0,0,-1.00005,98.007999,83.32051)" stroke-width=".79701" stroke-linecap="butt" stroke-miterlimit="10" stroke-linejoin="miter" fill="none" stroke="#409f9f" d="M7.27843-25.51878 8.9186-16.59741"/>
<path transform="matrix(1,0,0,-1.00005,98.007999,83.32051)" stroke-width=".79701" stroke-linecap="butt" stroke-miterlimit="10" stroke-linejoin="miter" fill="none" stroke="#409f9f" d="M6.81787-18.92996 9.37915-10.228"/>
<path transform="matrix(1,0,0,-1.00005,98.007999,83.32051)" stroke-width=".79701" stroke-linecap="butt" stroke-miterlimit="10" stroke-linejoin="miter" fill="none" stroke="#409f9f" d="M5.78322-11.99791 10.4138-4.20184"/>
<path transform="matrix(1,0,0,-1.00005,98.007999,83.32051)" stroke-width=".79701" stroke-linecap="butt" stroke-miterlimit="10" stroke-linejoin="miter" fill="none" stroke="#409f9f" d="M3.75134-2.90767 12.44568-.33392"/>
<path transform="matrix(1,0,0,-1.00005,98.007999,83.32051)" stroke-width=".79701" stroke-linecap="butt" stroke-miterlimit="10" stroke-linejoin="miter" fill="none" stroke="#409f9f" d="M4.49738 7.61371 11.69965 2.10283"/>
<path transform="matrix(1,0,0,-1.00005,98.007999,83.32051)" stroke-width=".79701" stroke-linecap="butt" stroke-miterlimit="10" stroke-linejoin="miter" fill="none" stroke="#409f9f" d="M5.58357 15.11082 10.61345 7.56389"/>
<path transform="matrix(1,0,0,-1.00005,98.007999,83.32051)" stroke-width=".79701" stroke-linecap="butt" stroke-miterlimit="10" stroke-linejoin="miter" fill="none" stroke="#409f9f" d="M5.9943 21.83318 10.20273 13.79973"/>
<path transform="matrix(1,0,0,-1.00005,98.007999,83.32051)" stroke-width=".79701" stroke-linecap="butt" stroke-miterlimit="10" stroke-linejoin="miter" fill="none" stroke="#409f9f" d="M6.06213 28.34795 10.13489 20.2432"/>
<path transform="matrix(1,0,0,-1.00005,98.007999,83.32051)" stroke-width=".79701" stroke-linecap="butt" stroke-miterlimit="10" stroke-linejoin="miter" fill="none" stroke="#409f9f" d="M5.84447 34.70938 10.35255 26.83995"/>
<path transform="matrix(1,0,0,-1.00005,98.007999,83.32051)" stroke-width=".79701" stroke-linecap="butt" stroke-miterlimit="10" stroke-linejoin="miter" fill="none" stroke="#409f9f" d="M5.15724 40.7061 11.03978 33.80139"/>
<path transform="matrix(1,0,0,-1.00005,98.007999,83.32051)" stroke-width=".79701" stroke-linecap="butt" stroke-miterlimit="10" stroke-linejoin="miter" fill="none" stroke="#409f9f" d="M3.72745 44.93874 12.46959 42.52695"/>
<path transform="matrix(1,0,0,-1.00005,98.007999,83.32051)" stroke-width=".79701" stroke-linecap="butt" stroke-miterlimit="10" stroke-linejoin="miter" fill="none" stroke="#409f9f" d="M4.8081 47.09041 11.38892 53.33348"/>
<path transform="matrix(1,0,0,-1.00005,98.007999,83.32051)" stroke-width=".79701" stroke-linecap="butt" stroke-miterlimit="10" stroke-linejoin="miter" fill="none" stroke="#409f9f" d="M6.4137 52.48055 9.78333 60.90154"/>
<path transform="matrix(1,0,0,-1.00005,98.007999,83.32051)" stroke-width=".79701" stroke-linecap="butt" stroke-miterlimit="10" stroke-linejoin="miter" fill="none" stroke="#409f9f" d="M22.24707-38.53128 23.10658-29.50127"/>
<path transform="matrix(1,0,0,-1.00005,98.007999,83.32051)" stroke-width=".79701" stroke-linecap="butt" stroke-miterlimit="10" stroke-linejoin="miter" fill="none" stroke="#409f9f" d="M22.10071-32.0356 23.25296-23.03879"/>
<path transform="matrix(1,0,0,-1.00005,98.007999,83.32051)" stroke-width=".79701" stroke-linecap="butt" stroke-miterlimit="10" stroke-linejoin="miter" fill="none" stroke="#409f9f" d="M21.85675-25.51878 23.49692-16.59741"/>
<path transform="matrix(1,0,0,-1.00005,98.007999,83.32051)" stroke-width=".79701" stroke-linecap="butt" stroke-miterlimit="10" stroke-linejoin="miter" fill="none" stroke="#409f9f" d="M21.39618-18.92996 23.95747-10.228"/>
<path transform="matrix(1,0,0,-1.00005,98.007999,83.32051)" stroke-width=".79701" stroke-linecap="butt" stroke-miterlimit="10" stroke-linejoin="miter" fill="none" stroke="#409f9f" d="M20.36154-11.99791 24.99213-4.20184"/>
<path transform="matrix(1,0,0,-1.00005,98.007999,83.32051)" stroke-width=".79701" stroke-linecap="butt" stroke-miterlimit="10" stroke-linejoin="miter" fill="none" stroke="#409f9f" d="M18.32965-2.90767 27.024-.33392"/>
<path transform="matrix(1,0,0,-1.00005,98.007999,83.32051)" stroke-width=".79701" stroke-linecap="butt" stroke-miterlimit="10" stroke-linejoin="miter" fill="none" stroke="#409f9f" d="M19.0757 7.61371 26.27797 2.10283"/>
<path transform="matrix(1,0,0,-1.00005,98.007999,83.32051)" stroke-width=".79701" stroke-linecap="butt" stroke-miterlimit="10" stroke-linejoin="miter" fill="none" stroke="#409f9f" d="M20.1619 15.11082 25.19177 7.56389"/>
<path transform="matrix(1,0,0,-1.00005,98.007999,83.32051)" stroke-width=".79701" stroke-linecap="butt" stroke-miterlimit="10" stroke-linejoin="miter" fill="none" stroke="#409f9f" d="M20.57262 21.83318 24.78104 13.79973"/>
<path transform="matrix(1,0,0,-1.00005,98.007999,83.32051)" stroke-width=".79701" stroke-linecap="butt" stroke-miterlimit="10" stroke-linejoin="miter" fill="none" stroke="#409f9f" d="M20.64044 28.34795 24.71321 20.2432"/>
<path transform="matrix(1,0,0,-1.00005,98.007999,83.32051)" stroke-width=".79701" stroke-linecap="butt" stroke-miterlimit="10" stroke-linejoin="miter" fill="none" stroke="#409f9f" d="M20.42279 34.70938 24.93088 26.83995"/>
<path transform="matrix(1,0,0,-1.00005,98.007999,83.32051)" stroke-width=".79701" stroke-linecap="butt" stroke-miterlimit="10" stroke-linejoin="miter" fill="none" stroke="#409f9f" d="M19.73557 40.7061 25.61809 33.80139"/>
<path transform="matrix(1,0,0,-1.00005,98.007999,83.32051)" stroke-width=".79701" stroke-linecap="butt" stroke-miterlimit="10" stroke-linejoin="miter" fill="none" stroke="#409f9f" d="M18.30576 44.93874 27.0479 42.52695"/>
<path transform="matrix(1,0,0,-1.00005,98.007999,83.32051)" stroke-width=".79701" stroke-linecap="butt" stroke-miterlimit="10" stroke-linejoin="miter" fill="none" stroke="#409f9f" d="M19.38643 47.09041 25.96724 53.33348"/>
<path transform="matrix(1,0,0,-1.00005,98.007999,83.32051)" stroke-width=".79701" stroke-linecap="butt" stroke-miterlimit="10" stroke-linejoin="miter" fill="none" stroke="#409f9f" d="M20.992 52.48055 24.36165 60.90154"/>
<path transform="matrix(1,0,0,-1.00005,98.007999,83.32051)" stroke-width=".79701" stroke-linecap="butt" stroke-miterlimit="10" stroke-linejoin="miter" fill="none" stroke="#409f9f" d="M36.8254-38.53128 37.6849-29.50127"/>
<path transform="matrix(1,0,0,-1.00005,98.007999,83.32051)" stroke-width=".79701" stroke-linecap="butt" stroke-miterlimit="10" stroke-linejoin="miter" fill="none" stroke="#409f9f" d="M36.67902-32.0356 37.83127-23.03879"/>
<path transform="matrix(1,0,0,-1.00005,98.007999,83.32051)" stroke-width=".79701" stroke-linecap="butt" stroke-miterlimit="10" stroke-linejoin="miter" fill="none" stroke="#409f9f" d="M36.43506-25.51878 38.07523-16.59741"/>
<path transform="matrix(1,0,0,-1.00005,98.007999,83.32051)" stroke-width=".79701" stroke-linecap="butt" stroke-miterlimit="10" stroke-linejoin="miter" fill="none" stroke="#409f9f" d="M35.9745-18.92996 38.5358-10.228"/>
<path transform="matrix(1,0,0,-1.00005,98.007999,83.32051)" stroke-width=".79701" stroke-linecap="butt" stroke-miterlimit="10" stroke-linejoin="miter" fill="none" stroke="#409f9f" d="M34.93985-11.99791 39.57043-4.20184"/>
<path transform="matrix(1,0,0,-1.00005,98.007999,83.32051)" stroke-width=".79701" stroke-linecap="butt" stroke-miterlimit="10" stroke-linejoin="miter" fill="none" stroke="#409f9f" d="M32.90797-2.90767 41.60233-.33392"/>
<path transform="matrix(1,0,0,-1.00005,98.007999,83.32051)" stroke-width=".79701" stroke-linecap="butt" stroke-miterlimit="10" stroke-linejoin="miter" fill="none" stroke="#409f9f" d="M33.654 7.61371 40.85628 2.10283"/>
<path transform="matrix(1,0,0,-1.00005,98.007999,83.32051)" stroke-width=".79701" stroke-linecap="butt" stroke-miterlimit="10" stroke-linejoin="miter" fill="none" stroke="#409f9f" d="M34.7402 15.11082 39.77008 7.56389"/>
<path transform="matrix(1,0,0,-1.00005,98.007999,83.32051)" stroke-width=".79701" stroke-linecap="butt" stroke-miterlimit="10" stroke-linejoin="miter" fill="none" stroke="#409f9f" d="M35.15094 21.83318 39.35936 13.79973"/>
<path transform="matrix(1,0,0,-1.00005,98.007999,83.32051)" stroke-width=".79701" stroke-linecap="butt" stroke-miterlimit="10" stroke-linejoin="miter" fill="none" stroke="#409f9f" d="M35.21877 28.34795 39.29153 20.2432"/>
<path transform="matrix(1,0,0,-1.00005,98.007999,83.32051)" stroke-width=".79701" stroke-linecap="butt" stroke-miterlimit="10" stroke-linejoin="miter" fill="none" stroke="#409f9f" d="M35.0011 34.70938 39.50919 26.83995"/>
<path transform="matrix(1,0,0,-1.00005,98.007999,83.32051)" stroke-width=".79701" stroke-linecap="butt" stroke-miterlimit="10" stroke-linejoin="miter" fill="none" stroke="#409f9f" d="M34.31389 40.7061 40.19641 33.80139"/>
<path transform="matrix(1,0,0,-1.00005,98.007999,83.32051)" stroke-width=".79701" stroke-linecap="butt" stroke-miterlimit="10" stroke-linejoin="miter" fill="none" stroke="#409f9f" d="M32.88408 44.93874 41.62622 42.52695"/>
<path transform="matrix(1,0,0,-1.00005,98.007999,83.32051)" stroke-width=".79701" stroke-linecap="butt" stroke-miterlimit="10" stroke-linejoin="miter" fill="none" stroke="#409f9f" d="M33.96474 47.09041 40.54555 53.33348"/>
<path transform="matrix(1,0,0,-1.00005,98.007999,83.32051)" stroke-width=".79701" stroke-linecap="butt" stroke-miterlimit="10" stroke-linejoin="miter" fill="none" stroke="#409f9f" d="M35.57033 52.48055 38.93997 60.90154"/>
<path transform="matrix(1,0,0,-1.00005,98.007999,83.32051)" stroke-width=".79701" stroke-linecap="butt" stroke-miterlimit="10" stroke-linejoin="miter" fill="none" stroke="#409f9f" d="M51.4037-38.53128 52.26323-29.50127"/>
<path transform="matrix(1,0,0,-1.00005,98.007999,83.32051)" stroke-width=".79701" stroke-linecap="butt" stroke-miterlimit="10" stroke-linejoin="miter" fill="none" stroke="#409f9f" d="M51.25734-32.0356 52.40959-23.03879"/>
<path transform="matrix(1,0,0,-1.00005,98.007999,83.32051)" stroke-width=".79701" stroke-linecap="butt" stroke-miterlimit="10" stroke-linejoin="miter" fill="none" stroke="#409f9f" d="M51.01338-25.51878 52.65355-16.59741"/>
<path transform="matrix(1,0,0,-1.00005,98.007999,83.32051)" stroke-width=".79701" stroke-linecap="butt" stroke-miterlimit="10" stroke-linejoin="miter" fill="none" stroke="#409f9f" d="M50.55283-18.92996 53.1141-10.228"/>
<path transform="matrix(1,0,0,-1.00005,98.007999,83.32051)" stroke-width=".79701" stroke-linecap="butt" stroke-miterlimit="10" stroke-linejoin="miter" fill="none" stroke="#409f9f" d="M49.51817-11.99791 54.14876-4.20184"/>
<path transform="matrix(1,0,0,-1.00005,98.007999,83.32051)" stroke-width=".79701" stroke-linecap="butt" stroke-miterlimit="10" stroke-linejoin="miter" fill="none" stroke="#409f9f" d="M47.4863-2.90767 56.18063-.33392"/>
<path transform="matrix(1,0,0,-1.00005,98.007999,83.32051)" stroke-width=".79701" stroke-linecap="butt" stroke-miterlimit="10" stroke-linejoin="miter" fill="none" stroke="#409f9f" d="M48.23233 7.61371 55.4346 2.10283"/>
<path transform="matrix(1,0,0,-1.00005,98.007999,83.32051)" stroke-width=".79701" stroke-linecap="butt" stroke-miterlimit="10" stroke-linejoin="miter" fill="none" stroke="#409f9f" d="M49.31853 15.11082 54.3484 7.56389"/>
<path transform="matrix(1,0,0,-1.00005,98.007999,83.32051)" stroke-width=".79701" stroke-linecap="butt" stroke-miterlimit="10" stroke-linejoin="miter" fill="none" stroke="#409f9f" d="M49.72925 21.83318 53.93768 13.79973"/>
<path transform="matrix(1,0,0,-1.00005,98.007999,83.32051)" stroke-width=".79701" stroke-linecap="butt" stroke-miterlimit="10" stroke-linejoin="miter" fill="none" stroke="#409f9f" d="M49.79709 28.34795 53.86984 20.2432"/>
<path transform="matrix(1,0,0,-1.00005,98.007999,83.32051)" stroke-width=".79701" stroke-linecap="butt" stroke-miterlimit="10" stroke-linejoin="miter" fill="none" stroke="#409f9f" d="M49.57942 34.70938 54.08751 26.83995"/>
<path transform="matrix(1,0,0,-1.00005,98.007999,83.32051)" stroke-width=".79701" stroke-linecap="butt" stroke-miterlimit="10" stroke-linejoin="miter" fill="none" stroke="#409f9f" d="M48.8922 40.7061 54.77473 33.80139"/>
<path transform="matrix(1,0,0,-1.00005,98.007999,83.32051)" stroke-width=".79701" stroke-linecap="butt" stroke-miterlimit="10" stroke-linejoin="miter" fill="none" stroke="#409f9f" d="M47.46239 44.93874 56.20453 42.52695"/>
<path transform="matrix(1,0,0,-1.00005,98.007999,83.32051)" stroke-width=".79701" stroke-linecap="butt" stroke-miterlimit="10" stroke-linejoin="miter" fill="none" stroke="#409f9f" d="M48.54306 47.09041 55.12387 53.33348"/>
<path transform="matrix(1,0,0,-1.00005,98.007999,83.32051)" stroke-width=".79701" stroke-linecap="butt" stroke-miterlimit="10" stroke-linejoin="miter" fill="none" stroke="#409f9f" d="M50.14865 52.48055 53.51828 60.90154"/>
<path transform="matrix(1,0,0,-1.00005,98.007999,83.32051)" stroke-width=".79701" stroke-linecap="butt" stroke-miterlimit="10" stroke-linejoin="miter" fill="none" stroke="#409f9f" d="M65.98201-38.53128 66.84152-29.50127"/>
<path transform="matrix(1,0,0,-1.00005,98.007999,83.32051)" stroke-width=".79701" stroke-linecap="butt" stroke-miterlimit="10" stroke-linejoin="miter" fill="none" stroke="#409f9f" d="M65.83565-32.0356 66.98788-23.03879"/>
<path transform="matrix(1,0,0,-1.00005,98.007999,83.32051)" stroke-width=".79701" stroke-linecap="butt" stroke-miterlimit="10" stroke-linejoin="miter" fill="none" stroke="#409f9f" d="M65.59167-25.51878 67.23186-16.59741"/>
<path transform="matrix(1,0,0,-1.00005,98.007999,83.32051)" stroke-width=".79701" stroke-linecap="butt" stroke-miterlimit="10" stroke-linejoin="miter" fill="none" stroke="#409f9f" d="M65.13112-18.92996 67.69241-10.228"/>
<path transform="matrix(1,0,0,-1.00005,98.007999,83.32051)" stroke-width=".79701" stroke-linecap="butt" stroke-miterlimit="10" stroke-linejoin="miter" fill="none" stroke="#409f9f" d="M64.09648-11.99791 68.72705-4.20184"/>
<path transform="matrix(1,0,0,-1.00005,98.007999,83.32051)" stroke-width=".79701" stroke-linecap="butt" stroke-miterlimit="10" stroke-linejoin="miter" fill="none" stroke="#409f9f" d="M62.06459-2.90767 70.75894-.33392"/>
<path transform="matrix(1,0,0,-1.00005,98.007999,83.32051)" stroke-width=".79701" stroke-linecap="butt" stroke-miterlimit="10" stroke-linejoin="miter" fill="none" stroke="#409f9f" d="M62.81062 7.61371 70.01291 2.10283"/>
<path transform="matrix(1,0,0,-1.00005,98.007999,83.32051)" stroke-width=".79701" stroke-linecap="butt" stroke-miterlimit="10" stroke-linejoin="miter" fill="none" stroke="#409f9f" d="M63.89682 15.11082 68.92671 7.56389"/>
<path transform="matrix(1,0,0,-1.00005,98.007999,83.32051)" stroke-width=".79701" stroke-linecap="butt" stroke-miterlimit="10" stroke-linejoin="miter" fill="none" stroke="#409f9f" d="M64.30756 21.83318 68.51598 13.79973"/>
<path transform="matrix(1,0,0,-1.00005,98.007999,83.32051)" stroke-width=".79701" stroke-linecap="butt" stroke-miterlimit="10" stroke-linejoin="miter" fill="none" stroke="#409f9f" d="M64.37538 28.34795 68.44815 20.2432"/>
<path transform="matrix(1,0,0,-1.00005,98.007999,83.32051)" stroke-width=".79701" stroke-linecap="butt" stroke-miterlimit="10" stroke-linejoin="miter" fill="none" stroke="#409f9f" d="M64.15773 34.70938 68.6658 26.83995"/>
<path transform="matrix(1,0,0,-1.00005,98.007999,83.32051)" stroke-width=".79701" stroke-linecap="butt" stroke-miterlimit="10" stroke-linejoin="miter" fill="none" stroke="#409f9f" d="M63.4705 40.7061 69.35303 33.80139"/>
<path transform="matrix(1,0,0,-1.00005,98.007999,83.32051)" stroke-width=".79701" stroke-linecap="butt" stroke-miterlimit="10" stroke-linejoin="miter" fill="none" stroke="#409f9f" d="M62.0407 44.93874 70.78284 42.52695"/>
<path transform="matrix(1,0,0,-1.00005,98.007999,83.32051)" stroke-width=".79701" stroke-linecap="butt" stroke-miterlimit="10" stroke-linejoin="miter" fill="none" stroke="#409f9f" d="M63.12135 47.09041 69.70218 53.33348"/>
<path transform="matrix(1,0,0,-1.00005,98.007999,83.32051)" stroke-width=".79701" stroke-linecap="butt" stroke-miterlimit="10" stroke-linejoin="miter" fill="none" stroke="#409f9f" d="M64.72694 52.48055 68.09659 60.90154"/>
<path transform="matrix(1,0,0,-1.00005,98.007999,83.32051)" stroke-width=".79701" stroke-linecap="butt" stroke-miterlimit="10" stroke-linejoin="miter" fill="none" stroke="#409f9f" d="M80.56032-38.53128 81.41985-29.50127"/>
<path transform="matrix(1,0,0,-1.00005,98.007999,83.32051)" stroke-width=".79701" stroke-linecap="butt" stroke-miterlimit="10" stroke-linejoin="miter" fill="none" stroke="#409f9f" d="M80.41396-32.0356 81.56621-23.03879"/>
<path transform="matrix(1,0,0,-1.00005,98.007999,83.32051)" stroke-width=".79701" stroke-linecap="butt" stroke-miterlimit="10" stroke-linejoin="miter" fill="none" stroke="#409f9f" d="M80.17-25.51878 81.81017-16.59741"/>
<path transform="matrix(1,0,0,-1.00005,98.007999,83.32051)" stroke-width=".79701" stroke-linecap="butt" stroke-miterlimit="10" stroke-linejoin="miter" fill="none" stroke="#409f9f" d="M79.70944-18.92996 82.27072-10.228"/>
<path transform="matrix(1,0,0,-1.00005,98.007999,83.32051)" stroke-width=".79701" stroke-linecap="butt" stroke-miterlimit="10" stroke-linejoin="miter" fill="none" stroke="#409f9f" d="M78.67479-11.99791 83.30537-4.20184"/>
<path transform="matrix(1,0,0,-1.00005,98.007999,83.32051)" stroke-width=".79701" stroke-linecap="butt" stroke-miterlimit="10" stroke-linejoin="miter" fill="none" stroke="#409f9f" d="M76.64291-2.90767 85.33725-.33392"/>
<path transform="matrix(1,0,0,-1.00005,98.007999,83.32051)" stroke-width=".79701" stroke-linecap="butt" stroke-miterlimit="10" stroke-linejoin="miter" fill="none" stroke="#409f9f" d="M77.38895 7.61371 84.59122 2.10283"/>
<path transform="matrix(1,0,0,-1.00005,98.007999,83.32051)" stroke-width=".79701" stroke-linecap="butt" stroke-miterlimit="10" stroke-linejoin="miter" fill="none" stroke="#409f9f" d="M78.47514 15.11082 83.50502 7.56389"/>
<path transform="matrix(1,0,0,-1.00005,98.007999,83.32051)" stroke-width=".79701" stroke-linecap="butt" stroke-miterlimit="10" stroke-linejoin="miter" fill="none" stroke="#409f9f" d="M78.88586 21.83318 83.0943 13.79973"/>
<path transform="matrix(1,0,0,-1.00005,98.007999,83.32051)" stroke-width=".79701" stroke-linecap="butt" stroke-miterlimit="10" stroke-linejoin="miter" fill="none" stroke="#409f9f" d="M78.9537 28.34795 83.02646 20.2432"/>
<path transform="matrix(1,0,0,-1.00005,98.007999,83.32051)" stroke-width=".79701" stroke-linecap="butt" stroke-miterlimit="10" stroke-linejoin="miter" fill="none" stroke="#409f9f" d="M78.73604 34.70938 83.24413 26.83995"/>
<path transform="matrix(1,0,0,-1.00005,98.007999,83.32051)" stroke-width=".79701" stroke-linecap="butt" stroke-miterlimit="10" stroke-linejoin="miter" fill="none" stroke="#409f9f" d="M78.04881 40.7061 83.93135 33.80139"/>
<path transform="matrix(1,0,0,-1.00005,98.007999,83.32051)" stroke-width=".79701" stroke-linecap="butt" stroke-miterlimit="10" stroke-linejoin="miter" fill="none" stroke="#409f9f" d="M76.61902 44.93874 85.36116 42.52695"/>
<path transform="matrix(1,0,0,-1.00005,98.007999,83.32051)" stroke-width=".79701" stroke-linecap="butt" stroke-miterlimit="10" stroke-linejoin="miter" fill="none" stroke="#409f9f" d="M77.69968 47.09041 84.28049 53.33348"/>
<path transform="matrix(1,0,0,-1.00005,98.007999,83.32051)" stroke-width=".79701" stroke-linecap="butt" stroke-miterlimit="10" stroke-linejoin="miter" fill="none" stroke="#409f9f" d="M79.30527 52.48055 82.6749 60.90154"/>
<path transform="matrix(1,0,0,-1.00005,98.007999,83.32051)" stroke-width=".79701" stroke-linecap="butt" stroke-miterlimit="10" stroke-linejoin="miter" fill="none" stroke="#409f9f" d="M95.13864-38.53128 95.99815-29.50127"/>
<path transform="matrix(1,0,0,-1.00005,98.007999,83.32051)" stroke-width=".79701" stroke-linecap="butt" stroke-miterlimit="10" stroke-linejoin="miter" fill="none" stroke="#409f9f" d="M94.99228-32.0356 96.14453-23.03879"/>
<path transform="matrix(1,0,0,-1.00005,98.007999,83.32051)" stroke-width=".79701" stroke-linecap="butt" stroke-miterlimit="10" stroke-linejoin="miter" fill="none" stroke="#409f9f" d="M94.74832-25.51878 96.38849-16.59741"/>
<path transform="matrix(1,0,0,-1.00005,98.007999,83.32051)" stroke-width=".79701" stroke-linecap="butt" stroke-miterlimit="10" stroke-linejoin="miter" fill="none" stroke="#409f9f" d="M94.28775-18.92996 96.84904-10.228"/>
<path transform="matrix(1,0,0,-1.00005,98.007999,83.32051)" stroke-width=".79701" stroke-linecap="butt" stroke-miterlimit="10" stroke-linejoin="miter" fill="none" stroke="#409f9f" d="M93.25311-11.99791 97.8837-4.20184"/>
<path transform="matrix(1,0,0,-1.00005,98.007999,83.32051)" stroke-width=".79701" stroke-linecap="butt" stroke-miterlimit="10" stroke-linejoin="miter" fill="none" stroke="#409f9f" d="M91.22122-2.90767 99.91557-.33392"/>
<path transform="matrix(1,0,0,-1.00005,98.007999,83.32051)" stroke-width=".79701" stroke-linecap="butt" stroke-miterlimit="10" stroke-linejoin="miter" fill="none" stroke="#409f9f" d="M91.96727 7.61371 99.16954 2.10283"/>
<path transform="matrix(1,0,0,-1.00005,98.007999,83.32051)" stroke-width=".79701" stroke-linecap="butt" stroke-miterlimit="10" stroke-linejoin="miter" fill="none" stroke="#409f9f" d="M93.05347 15.11082 98.08334 7.56389"/>
<path transform="matrix(1,0,0,-1.00005,98.007999,83.32051)" stroke-width=".79701" stroke-linecap="butt" stroke-miterlimit="10" stroke-linejoin="miter" fill="none" stroke="#409f9f" d="M93.46419 21.83318 97.6726 13.79973"/>
<path transform="matrix(1,0,0,-1.00005,98.007999,83.32051)" stroke-width=".79701" stroke-linecap="butt" stroke-miterlimit="10" stroke-linejoin="miter" fill="none" stroke="#409f9f" d="M93.53201 28.34795 97.60478 20.2432"/>
<path transform="matrix(1,0,0,-1.00005,98.007999,83.32051)" stroke-width=".79701" stroke-linecap="butt" stroke-miterlimit="10" stroke-linejoin="miter" fill="none" stroke="#409f9f" d="M93.31436 34.70938 97.82245 26.83995"/>
<path transform="matrix(1,0,0,-1.00005,98.007999,83.32051)" stroke-width=".79701" stroke-linecap="butt" stroke-miterlimit="10" stroke-linejoin="miter" fill="none" stroke="#409f9f" d="M92.62714 40.7061 98.50966 33.80139"/>
<path transform="matrix(1,0,0,-1.00005,98.007999,83.32051)" stroke-width=".79701" stroke-linecap="butt" stroke-miterlimit="10" stroke-linejoin="miter" fill="none" stroke="#409f9f" d="M91.19733 44.93874 99.93947 42.52695"/>
<path transform="matrix(1,0,0,-1.00005,98.007999,83.32051)" stroke-width=".79701" stroke-linecap="butt" stroke-miterlimit="10" stroke-linejoin="miter" fill="none" stroke="#409f9f" d="M92.278 47.09041 98.85881 53.33348"/>
<path transform="matrix(1,0,0,-1.00005,98.007999,83.32051)" stroke-width=".79701" stroke-linecap="butt" stroke-miterlimit="10" stroke-linejoin="miter" fill="none" stroke="#409f9f" d="M93.88358 52.48055 97.25322 60.90154"/>
<path transform="matrix(1,0,0,-1.00005,98.007999,83.32051)" stroke-width=".79701" stroke-linecap="butt" stroke-miterlimit="10" stroke-linejoin="miter" fill="none" stroke="#409f9f" d="M109.71696-38.53128 110.57648-29.50127"/>
<path transform="matrix(1,0,0,-1.00005,98.007999,83.32051)" stroke-width=".79701" stroke-linecap="butt" stroke-miterlimit="10" stroke-linejoin="miter" fill="none" stroke="#409f9f" d="M109.57059-32.0356 110.72284-23.03879"/>
<path transform="matrix(1,0,0,-1.00005,98.007999,83.32051)" stroke-width=".79701" stroke-linecap="butt" stroke-miterlimit="10" stroke-linejoin="miter" fill="none" stroke="#409f9f" d="M109.32663-25.51878 110.9668-16.59741"/>
<path transform="matrix(1,0,0,-1.00005,98.007999,83.32051)" stroke-width=".79701" stroke-linecap="butt" stroke-miterlimit="10" stroke-linejoin="miter" fill="none" stroke="#409f9f" d="M108.86607-18.92996 111.42737-10.228"/>
<path transform="matrix(1,0,0,-1.00005,98.007999,83.32051)" stroke-width=".79701" stroke-linecap="butt" stroke-miterlimit="10" stroke-linejoin="miter" fill="none" stroke="#409f9f" d="M107.83142-11.99791 112.462-4.20184"/>
<path transform="matrix(1,0,0,-1.00005,98.007999,83.32051)" stroke-width=".79701" stroke-linecap="butt" stroke-miterlimit="10" stroke-linejoin="miter" fill="none" stroke="#409f9f" d="M105.79955-2.90767 114.4939-.33392"/>
<path transform="matrix(1,0,0,-1.00005,98.007999,83.32051)" stroke-width=".79701" stroke-linecap="butt" stroke-miterlimit="10" stroke-linejoin="miter" fill="none" stroke="#409f9f" d="M106.54558 7.61371 113.74785 2.10283"/>
<path transform="matrix(1,0,0,-1.00005,98.007999,83.32051)" stroke-width=".79701" stroke-linecap="butt" stroke-miterlimit="10" stroke-linejoin="miter" fill="none" stroke="#409f9f" d="M107.63177 15.11082 112.66165 7.56389"/>
<path transform="matrix(1,0,0,-1.00005,98.007999,83.32051)" stroke-width=".79701" stroke-linecap="butt" stroke-miterlimit="10" stroke-linejoin="miter" fill="none" stroke="#409f9f" d="M108.04251 21.83318 112.25093 13.79973"/>
<path transform="matrix(1,0,0,-1.00005,98.007999,83.32051)" stroke-width=".79701" stroke-linecap="butt" stroke-miterlimit="10" stroke-linejoin="miter" fill="none" stroke="#409f9f" d="M108.11034 28.34795 112.1831 20.2432"/>
<path transform="matrix(1,0,0,-1.00005,98.007999,83.32051)" stroke-width=".79701" stroke-linecap="butt" stroke-miterlimit="10" stroke-linejoin="miter" fill="none" stroke="#409f9f" d="M107.89267 34.70938 112.40076 26.83995"/>
<path transform="matrix(1,0,0,-1.00005,98.007999,83.32051)" stroke-width=".79701" stroke-linecap="butt" stroke-miterlimit="10" stroke-linejoin="miter" fill="none" stroke="#409f9f" d="M107.20546 40.7061 113.08798 33.80139"/>
<path transform="matrix(1,0,0,-1.00005,98.007999,83.32051)" stroke-width=".79701" stroke-linecap="butt" stroke-miterlimit="10" stroke-linejoin="miter" fill="none" stroke="#409f9f" d="M105.77565 44.93874 114.51779 42.52695"/>
<path transform="matrix(1,0,0,-1.00005,98.007999,83.32051)" stroke-width=".79701" stroke-linecap="butt" stroke-miterlimit="10" stroke-linejoin="miter" fill="none" stroke="#409f9f" d="M106.85631 47.09041 113.43712 53.33348"/>
<path transform="matrix(1,0,0,-1.00005,98.007999,83.32051)" stroke-width=".79701" stroke-linecap="butt" stroke-miterlimit="10" stroke-linejoin="miter" fill="none" stroke="#409f9f" d="M108.4619 52.48055 111.83154 60.90154"/>
<path transform="matrix(1,0,0,-1.00005,98.007999,83.32051)" stroke-width=".79701" stroke-linecap="butt" stroke-miterlimit="10" stroke-linejoin="miter" fill="none" stroke="#409f9f" d="M124.29527-38.53128 125.1548-29.50127"/>
<path transform="matrix(1,0,0,-1.00005,98.007999,83.32051)" stroke-width=".79701" stroke-linecap="butt" stroke-miterlimit="10" stroke-linejoin="miter" fill="none" stroke="#409f9f" d="M124.14891-32.0356 125.30116-23.03879"/>
<path transform="matrix(1,0,0,-1.00005,98.007999,83.32051)" stroke-width=".79701" stroke-linecap="butt" stroke-miterlimit="10" stroke-linejoin="miter" fill="none" stroke="#409f9f" d="M123.90495-25.51878 125.54512-16.59741"/>
<path transform="matrix(1,0,0,-1.00005,98.007999,83.32051)" stroke-width=".79701" stroke-linecap="butt" stroke-miterlimit="10" stroke-linejoin="miter" fill="none" stroke="#409f9f" d="M123.4444-18.92996 126.00568-10.228"/>
<path transform="matrix(1,0,0,-1.00005,98.007999,83.32051)" stroke-width=".79701" stroke-linecap="butt" stroke-miterlimit="10" stroke-linejoin="miter" fill="none" stroke="#409f9f" d="M122.40974-11.99791 127.04033-4.20184"/>
<path transform="matrix(1,0,0,-1.00005,98.007999,83.32051)" stroke-width=".79701" stroke-linecap="butt" stroke-miterlimit="10" stroke-linejoin="miter" fill="none" stroke="#409f9f" d="M120.37787-2.90767 129.0722-.33392"/>
<path transform="matrix(1,0,0,-1.00005,98.007999,83.32051)" stroke-width=".79701" stroke-linecap="butt" stroke-miterlimit="10" stroke-linejoin="miter" fill="none" stroke="#409f9f" d="M121.1239 7.61371 128.32617 2.10283"/>
<path transform="matrix(1,0,0,-1.00005,98.007999,83.32051)" stroke-width=".79701" stroke-linecap="butt" stroke-miterlimit="10" stroke-linejoin="miter" fill="none" stroke="#409f9f" d="M122.2101 15.11082 127.23997 7.56389"/>
<path transform="matrix(1,0,0,-1.00005,98.007999,83.32051)" stroke-width=".79701" stroke-linecap="butt" stroke-miterlimit="10" stroke-linejoin="miter" fill="none" stroke="#409f9f" d="M122.62082 21.83318 126.82925 13.79973"/>
<path transform="matrix(1,0,0,-1.00005,98.007999,83.32051)" stroke-width=".79701" stroke-linecap="butt" stroke-miterlimit="10" stroke-linejoin="miter" fill="none" stroke="#409f9f" d="M122.68866 28.34795 126.76141 20.2432"/>
<path transform="matrix(1,0,0,-1.00005,98.007999,83.32051)" stroke-width=".79701" stroke-linecap="butt" stroke-miterlimit="10" stroke-linejoin="miter" fill="none" stroke="#409f9f" d="M122.471 34.70938 126.97908 26.83995"/>
<path transform="matrix(1,0,0,-1.00005,98.007999,83.32051)" stroke-width=".79701" stroke-linecap="butt" stroke-miterlimit="10" stroke-linejoin="miter" fill="none" stroke="#409f9f" d="M121.78377 40.7061 127.6663 33.80139"/>
<path transform="matrix(1,0,0,-1.00005,98.007999,83.32051)" stroke-width=".79701" stroke-linecap="butt" stroke-miterlimit="10" stroke-linejoin="miter" fill="none" stroke="#409f9f" d="M120.35396 44.93874 129.0961 42.52695"/>
<path transform="matrix(1,0,0,-1.00005,98.007999,83.32051)" stroke-width=".79701" stroke-linecap="butt" stroke-miterlimit="10" stroke-linejoin="miter" fill="none" stroke="#409f9f" d="M121.43463 47.09041 128.01544 53.33348"/>
<path transform="matrix(1,0,0,-1.00005,98.007999,83.32051)" stroke-width=".79701" stroke-linecap="butt" stroke-miterlimit="10" stroke-linejoin="miter" fill="none" stroke="#409f9f" d="M123.0402 52.48055 126.40985 60.90154"/>
</svg>
