<svg xmlns="http://www.w3.org/2000/svg" xmlns:xlink="http://www.w3.org/1999/xlink" version="1.1" width="178" height="151" viewBox="0 0 178 151">
<defs>
<path id="font_1_3" d="M.2939911 .64004519C.2939911 .66400149 .2939911 .6660156 .2709961 .6660156 .20899964 .60227969 .12098694 .60227969 .08898926 .60227969V.57128909C.10899353 .57128909 .16799927 .57128909 .21998596 .5972748V.07902527C.21998596 .042999269 .21699524 .0309906 .1269989 .0309906H.09498596V0C.12998963 .0029907227 .21699524 .0029907227 .25698854 .0029907227 .29699708 .0029907227 .38398744 .0029907227 .4189911 0V.0309906H.3869934C.29699708 .0309906 .2939911 .041992189 .2939911 .07902527V.64004519Z"/>
<path id="font_1_4" d="M.1269989 .07699585 .23298645 .18003845C.3889923 .31811524 .44898988 .3721466 .44898988 .47216798 .44898988 .5860901 .35899354 .6660156 .23699951 .6660156 .12399292 .6660156 .049987794 .57411196 .049987794 .48516847 .049987794 .4291687 .099990848 .4291687 .102996829 .4291687 .11999512 .4291687 .15499878 .44117738 .15499878 .48217774 .15499878 .5081787 .13699341 .5341797 .101989749 .5341797 .09399414 .5341797 .09199524 .5341797 .08898926 .5331726 .11199951 .59806826 .1659851 .63500979 .22399903 .63500979 .31498719 .63500979 .35798646 .5541382 .35798646 .47216798 .35798646 .39215089 .30799867 .31311036 .25299073 .25108338L.06098938 .036987306C.049987794 .025985718 .049987794 .023986817 .049987794 0H.42099L.44898988 .17404175H.42399598C.4189911 .14402771 .4119873 .1000061 .4019928 .084991458 .394989 .07699585 .32899476 .07699585 .30699159 .07699585H.1269989Z"/>
<clipPath id="clip_2">
<path transform="matrix(1,0,0,-1,1.2639999,146.845)" d="M0 0H174.84342V145.25125H0Z"/>
</clipPath>
<path id="font_3_2" d="M.20599365 .3996582H.2999878C.31999208 .3996582 .32998658 .3996582 .32998658 .41966249 .32998658 .43066407 .31999208 .43066407 .3019867 .43066407H.21398926C.25 .5724945 .25498963 .59246829 .25498963 .59846499 .25498963 .61546328 .24299622 .62545779 .22599793 .62545779 .22299195 .62545779 .19499207 .62446597 .18598938 .58947756L.14698792 .43066407H.052993776C.032989503 .43066407 .022994996 .43066407 .022994996 .4116516 .022994996 .3996582 .0309906 .3996582 .050994874 .3996582H.13899231C.066986087 .11608887 .06298828 .099121097 .06298828 .08114624 .06298828 .02722168 .100997928-.0107421879 .15499878-.0107421879 .25698854-.0107421879 .31399537 .13505554 .31399537 .14305115 .31399537 .1530304 .30599977 .1530304 .3019867 .1530304 .29299928 .1530304 .2919922 .15003968 .2869873 .13905335 .24398804 .035217287 .19099427 .011245728 .15699768 .011245728 .13598633 .011245728 .12599182 .024230957 .12599182 .057174684 .12599182 .08114624 .12799073 .088134769 .13198853 .10510254L.20599365 .3996582Z"/>
<path id="font_3_4" d="M.48599244 .38136292C.48999024 .39537049 .48999024 .39736939 .48999024 .40437318 .48999024 .42237855 .47599793 .43138124 .46099855 .43138124 .45098878 .43138124 .43499757 .42536927 .42599488 .41036988 .42399598 .405365 .41600038 .37435914 .4119873 .35635377 .40499879 .33035279 .397995 .30334474 .3919983 .27633668L.34700013 .09628296C.34298707 .08126831 .2999878 .011245728 .23399353 .011245728 .18299866 .011245728 .17199707 .055267335 .17199707 .0922699 .17199707 .1382904 .18899536 .20030213 .22299195 .28833009 .23899842 .3293457 .24299622 .3403473 .24299622 .36035157 .24299622 .405365 .21099854 .4423828 .16099549 .4423828 .06599426 .4423828 .0289917 .29733277 .0289917 .28833009 .0289917 .27833558 .038986207 .27833558 .040985109 .27833558 .050994874 .27833558 .051986696 .28033448 .056991579 .29634095 .083999637 .3903656 .12399292 .42037965 .1579895 .42037965 .1659851 .42037965 .18299866 .42037965 .18299866 .3883667 .18299866 .36335755 .17298889 .3373413 .1659851 .31834413 .12599182 .21231079 .10798645 .1552887 .10798645 .10827637 .10798645 .019256592 .17098999-.0107421879 .22999573-.0107421879 .2689972-.0107421879 .30299378 .0062561037 .33099366 .03425598 .31799317-.017745972 .30599977-.06674194 .2659912-.11973572 .23999024-.15385437 .20199585-.18309021 .1559906-.18309021 .14199829-.18309021 .09700012-.18005371 .07998657-.14074707 .09599304-.14074707 .10899353-.14074707 .12298584-.1287384 .1329956-.11973572 .14299011-.10673523 .14299011-.08773804 .14299011-.056747438 .115997318-.052734376 .10598755-.052734376 .08299255-.052734376 .049987794-.068740848 .049987794-.11773682 .049987794-.16796875 .09399414-.20507813 .1559906-.20507813 .25898744-.20507813 .3619995-.11373901 .3899994-.00074768069L.48599244 .38136292Z"/>
<path id="font_3_3" d="M.33399964 .30233766C.33999635 .32835389 .36299134 .42037965 .43299867 .42037965 .43798829 .42037965 .46199037 .42037965 .48298646 .40734864 .45498658 .402359 .43499757 .37734986 .43499757 .35334779 .43499757 .33735658 .44599916 .31835938 .47299195 .31835938 .49499513 .31835938 .5269928 .3363495 .5269928 .37635804 .5269928 .42837525 .46798707 .4423828 .43399049 .4423828 .37599183 .4423828 .34098817 .38935853 .32899476 .36634828 .3039856 .43237306 .25 .4423828 .22099304 .4423828 .116989139 .4423828 .05999756 .3133545 .05999756 .28834535 .05999756 .27833558 .069992069 .27833558 .07199097 .27833558 .07998657 .27833558 .08299255 .28033448 .084991458 .28933717 .11898804 .39535523 .18499756 .42037965 .21899414 .42037965 .23799134 .42037965 .272995 .4113617 .272995 .35334779 .272995 .32235719 .2559967 .25532533 .21899414 .11528015 .20298767 .053268434 .16799927 .011245728 .12399292 .011245728 .117996219 .011245728 .09498596 .011245728 .07398987 .024276734 .09899902 .029266358 .12098694 .05027771 .12098694 .07827759 .12098694 .105270389 .09899902 .11328125 .083999637 .11328125 .053985597 .11328125 .0289917 .08728027 .0289917 .055267335 .0289917 .009246826 .07899475-.0107421879 .12298584-.0107421879 .18899536-.0107421879 .22499085 .059280397 .22799683 .0652771 .23999024 .028274537 .27598573-.0107421879 .33599855-.0107421879 .43899537-.0107421879 .49598695 .118270877 .49598695 .14328003 .49598695 .1532898 .4869995 .1532898 .48399354 .1532898 .47499085 .1532898 .47299195 .14929199 .47099305 .14228821 .43798829 .03527832 .36999513 .011245728 .33799745 .011245728 .29899598 .011245728 .2829895 .043273927 .2829895 .07727051 .2829895 .09927368 .2889862 .121276859 .2999878 .16529846L.33399964 .30233766Z"/>
<path id="font_1_1" d="M.33099366-.2400055C.33099366-.23701477 .33099366-.23500061 .31399537-.21800232 .18899536-.0920105 .15699768 .09700012 .15699768 .25 .15699768 .42399598 .19499207 .59799197 .31799317 .72299197 .33099366 .73498538 .33099366 .7369995 .33099366 .73999026 .33099366 .746994 .32699586 .75 .32099916 .75 .31098939 .75 .22099304 .6819916 .1619873 .5549927 .11099243 .44499208 .09899902 .33399964 .09899902 .25 .09899902 .17199707 .10998535 .050994874 .16499329-.06201172 .22499085-.18501282 .31098939-.25 .32099916-.25 .32699586-.25 .33099366-.24700928 .33099366-.2400055Z"/>
<path id="font_1_2" d="M.2889862 .25C.2889862 .32798768 .27799989 .44898988 .22299195 .56199648 .16299439 .68499758 .07699585 .75 .066986087 .75 .06098938 .75 .056991579 .74598696 .056991579 .73999026 .056991579 .7369995 .056991579 .73498538 .07598877 .71699526 .17399597 .6179962 .23098755 .45899964 .23098755 .25 .23098755 .07899475 .19400025-.09700012 .069992069-.2230072 .056991579-.23500061 .056991579-.23701477 .056991579-.2400055 .056991579-.2460022 .06098938-.25 .066986087-.25 .07699585-.25 .16699219-.18200684 .22599793-.055007936 .2769928 .054992677 .2889862 .16600037 .2889862 .25Z"/>
<path id="font_1_5" d="M.68699648 .32714845C.70199587 .32714845 .72099307 .32714845 .72099307 .34713746 .72099307 .36714173 .70199587 .36714173 .6879883 .36714173H.08898926C.07499695 .36714173 .055999757 .36714173 .055999757 .34713746 .055999757 .32714845 .07499695 .32714845 .08999634 .32714845H.68699648M.6879883 .13284302C.70199587 .13284302 .72099307 .13284302 .72099307 .15284729 .72099307 .17285156 .70199587 .17285156 .68699648 .17285156H.08999634C.07499695 .17285156 .055999757 .17285156 .055999757 .15284729 .055999757 .13284302 .07499695 .13284302 .08898926 .13284302H.6879883Z"/>
<path id="font_4_1" d="M.4889984 .31877137C.4889984 .42585755 .47799684 .49090577 .44499208 .55496218 .40098573 .6430359 .31999208 .66503909 .2649994 .66503909 .13899231 .66503909 .09298706 .5709839 .07899475 .5429535 .042999269 .4698944 .040985109 .3708191 .040985109 .31877137 .040985109 .25271607 .04399109 .15162659 .09199524 .07156372 .13798523-.0024871827 .21199036-.021484375 .2649994-.021484375 .31298829-.021484375 .39898683-.0064849855 .44898988 .09257507 .48599244 .16464234 .4889984 .2537079 .4889984 .31877137M.2649994 .006515503C.23098755 .006515503 .1619873 .022521973 .14099121 .12760926 .12998963 .18466187 .12998963 .2787323 .12998963 .33078004 .12998963 .3998413 .12998963 .4698944 .14099121 .5249481 .1619873 .6270294 .23999024 .6370239 .2649994 .6370239 .29899598 .6370239 .36799623 .62002566 .3880005 .5289459 .3999939 .4738922 .3999939 .39883424 .3999939 .33078004 .3999939 .27172853 .3999939 .18165589 .3880005 .12561035 .36698915 .020523072 .2979889 .006515503 .2649994 .006515503Z"/>
<path id="font_3_1" d="M.18699646 .23144531C.21598816 .23144531 .2899933 .23344422 .33999635 .2544403 .4099884 .28442384 .4149933 .34339906 .4149933 .35740663 .4149933 .40138246 .3769989 .4423828 .30799867 .4423828 .19699097 .4423828 .04598999 .34539796 .04598999 .17037964 .04598999 .06829834 .10499573-.0107421879 .20298767-.0107421879 .34599305-.0107421879 .42999269 .095321658 .42999269 .10733032 .42999269 .113342288 .42399598 .12034607 .41799928 .12034607 .41299439 .12034607 .41099549 .11834717 .40499879 .1103363 .32598878 .011245728 .21699524 .011245728 .20498657 .011245728 .1269989 .011245728 .117996219 .095321658 .117996219 .12734986 .117996219 .13935852 .11898804 .17037964 .13398743 .23144531H.18699646M.13999939 .25343324C.1789856 .40538026 .28199769 .42037965 .30799867 .42037965 .35499574 .42037965 .38198854 .39138795 .38198854 .35740663 .38198854 .25343324 .22200012 .25343324 .18099976 .25343324H.13999939Z"/>
<path id="font_5_1" d="M.69898989 .22743225C.71499636 .22743225 .7369995 .22743225 .7369995 .25042726 .7369995 .2734375 .71499636 .2734375 .69898989 .2734375H.12599182C.10998535 .2734375 .08799744 .2734375 .08799744 .25042726 .08799744 .22743225 .10998535 .22743225 .12599182 .22743225H.69898989Z"/>
<path id="font_6_1" d="M.22099304 .3976593H.31900025C.33799745 .3976593 .34999085 .3976593 .34999085 .4166565 .34999085 .43066407 .33699037 .43066407 .31999208 .43066407H.22898865L.2649994 .57250979C.2689972 .58750918 .2689972 .5924988 .2689972 .5934906 .2689972 .6144867 .25299073 .6244812 .23599243 .6244812 .20199585 .6244812 .19499207 .5974884 .18399048 .552536L.15299988 .43066407H.056991579C.037994386 .43066407 .024993897 .43066407 .024993897 .4116516 .024993897 .3976593 .037994386 .3976593 .054992677 .3976593H.14498902L.084991458 .15802002C.07899475 .13305664 .069992069 .09811401 .069992069 .084121707 .069992069 .024215699 .11898804-.009765625 .17199707-.009765625 .2789917-.009765625 .33999635 .13105774 .33999635 .14303589 .33999635 .15402222 .33099366 .15602112 .32499696 .15602112 .31399537 .15602112 .31298829 .15202332 .30599977 .13705445 .28599549 .08912659 .23599243 .018234253 .1749878 .018234253 .1539917 .018234253 .14199829 .032211305 .14199829 .06515503 .14199829 .084121707 .14498902 .09510803 .147995 .10809326L.22099304 .3976593Z"/>
<path id="font_4_2" d="M.28199769 .20405579C.2979889 .21907044 .33999635 .2520752 .35598756 .26608277 .41799928 .32312013 .47698976 .3781433 .47698976 .46917726 .47698976 .588089 .3769989 .66503909 .2519989 .66503909 .13198853 .66503909 .052993776 .57411196 .052993776 .48516847 .052993776 .4361725 .09199524 .4291687 .10598755 .4291687 .1269989 .4291687 .1579895 .4441681 .1579895 .48217774 .1579895 .5341797 .10798645 .5341797 .09599304 .5341797 .125 .6070709 .19198609 .6320343 .24099732 .6320343 .33399964 .6320343 .38198854 .55314639 .38198854 .46917726 .38198854 .36514283 .30899049 .28910829 .19099427 .16804505L.06498718 .037994386C.052993776 .026992798 .052993776 .024993897 .052993776 0H.44799806L.47698976 .17904663H.44599916C.44299317 .1590271 .43499757 .10900879 .4229889 .08999634 .4169922 .08198547 .34098817 .08198547 .32499696 .08198547H.14698792L.28199769 .20405579Z"/>
</defs>
<path transform="matrix(1,0,0,-1,1.2639999,146.845)" stroke-width=".79701" stroke-linecap="butt" stroke-miterlimit="10" stroke-linejoin="miter" fill="none" stroke="#929292" d="M47.07323 9.3418V12.1769M114.3207 9.3418V12.1769"/>
<path transform="matrix(1,0,0,-1,1.2639999,146.845)" stroke-width=".79701" stroke-linecap="butt" stroke-miterlimit="10" stroke-linejoin="miter" fill="none" stroke="#929292" d="M80.69696 8.63322V12.88545M147.94443 8.63322V12.88545"/>
<path transform="matrix(1,0,0,-1,1.2639999,146.845)" stroke-width=".79701" stroke-linecap="butt" stroke-miterlimit="10" stroke-linejoin="miter" fill="none" stroke="#929292" d="M12.03197 118.35286H14.867"/>
<path transform="matrix(1,0,0,-1,1.2639999,146.845)" stroke-width=".79701" stroke-linecap="butt" stroke-miterlimit="10" stroke-linejoin="miter" fill="none" stroke="#929292" d=""/>
<path transform="matrix(1,0,0,-1,1.2639999,146.845)" stroke-width="1.99255" stroke-linecap="butt" stroke-miterlimit="10" stroke-linejoin="miter" fill="none" stroke="#000000" d="M0 10.75934H170.45978"/>
<path transform="matrix(1,0,0,-1,171.72379,136.08567)" d="M4.38364 0-2.63017 3.50691 0 0-2.63017-3.50691"/>
<path transform="matrix(1,0,0,-1,1.2639999,146.845)" stroke-width="1.99255" stroke-linecap="butt" stroke-miterlimit="10" stroke-linejoin="miter" fill="none" stroke="#000000" d="M13.4495 0V140.8676"/>
<path transform="matrix(0,-1,-1,-0,14.7135,5.9774019)" d="M4.38364 0-2.63017 3.50691 0 0-2.63017-3.50691"/>
<use data-text="1" xlink:href="#font_1_3" transform="matrix(10.9091,0,0,-10.9091,79.234,149.874)"/>
<use data-text="2" xlink:href="#font_1_4" transform="matrix(10.9091,0,0,-10.9091,146.48099,149.874)"/>
<g clip-path="url(#clip_2)">
<path transform="matrix(1,0,0,-1,1.2639999,146.845)" stroke-width="1.99255" stroke-linecap="butt" stroke-miterlimit="10" stroke-linejoin="miter" fill="none" stroke="#ff0000" d="M0 50.18279 1.76604 49.16148 3.53207 48.1654 5.29814 47.19579 7.06418 46.25166 8.83025 45.33171 10.5963 44.43503 12.36235 43.56287 14.1284 42.71881 15.89445 41.89218 17.6605 41.08488 19.42657 40.29762 21.19261 39.532 22.95868 38.78638 24.72472 38.06012 26.49078 37.35323 28.25684 36.66216 30.02289 35.99045 31.78894 35.33812 33.55498 34.70255 35.32104 34.07925 37.08708 33.47566 38.85315 32.8879 40.61919 32.31334 42.38525 31.7546 44.15129 31.20879 45.91736 30.67941 47.6834 30.16296 49.44946 29.66234 51.2155 29.1717 52.98157 28.694 54.74762 28.22919 56.51367 27.77698 58.27972 27.33476 60.04578 26.90515 61.81183 26.48552 63.5779 26.07881 65.34393 25.68181 67.10999 25.29416 68.87604 24.91971 70.64209 24.55144 72.40814 24.19347 74.1742 23.84486 75.94025 23.50531 77.7063 23.17638 79.47235 22.85327 81.2384 22.53986 83.00446 22.23676 84.77051 21.93658 86.53656 21.64899 88.30261 21.36494 90.06868 21.09058 91.83472 20.82268 93.60078 20.56122 95.36682 20.30943 97.13289 20.06058 98.89894 19.81818 100.66498 19.58286 102.43105 19.35692 104.19708 19.1342 105.96315 18.91472 107.7292 18.70459 109.49525 18.498 111.2613 18.29788 113.02736 18.10098 114.79341 17.91022 116.55946 17.72656 118.3255 17.54547 120.09157 17.37149 121.8576 17.19655 123.62367 17.03226 125.38972 16.86763 127.15578 16.70947 128.92183 16.55775 130.68787 16.40575 132.45394 16.26048 134.21999 16.11555 135.98604 15.97676 137.75209 15.8441 139.51815 15.71176 141.2842 15.58264 143.05027 15.45644 144.8163 15.33379 146.58237 15.21759 148.3484 15.10138 150.11447 14.98874 151.88051 14.87866 153.64658 14.77248 155.41262 14.66885 157.17868 14.56557 158.94472 14.4684 160.71079 14.3719 162.47682 14.27829 164.24288 14.18791 166.00893 14.09753 167.77498 14.01038 169.54105 13.92805 171.30709 13.84595 173.07315 13.76595 174.83919 13.68802"/>
<path transform="matrix(1,0,0,-1,1.2639999,146.845)" stroke-width="1.99255" stroke-linecap="butt" stroke-miterlimit="10" stroke-linejoin="miter" fill="none" stroke="#0000ff" d="M0 115.08539 1.76604 109.74649 3.53207 104.68454 5.29814 99.87784 7.06418 95.31798 8.83025 90.99182 10.5963 86.88654 12.36235 82.99257 14.1284 79.3118 15.89445 75.80103 17.6605 72.47768 19.42657 69.31657 21.19261 66.32191 22.95868 63.48253 24.72472 60.7823 26.49078 58.22267 28.25684 55.7945 30.02289 53.48662 31.78894 51.30322 33.55498 49.22612 35.32104 47.25952 37.08708 45.39223 38.85315 43.61517 40.61919 41.9367 42.38525 40.34146 44.15129 38.83156 45.91736 37.38948 47.6834 36.02574 49.44946 34.73892 51.2155 33.50734 52.98157 32.34642 54.74762 31.24072 56.51367 30.1917 58.27972 29.19861 60.04578 28.25378 61.81183 27.3586 63.5779 26.51236 65.34393 25.70041 67.10999 24.93813 68.87604 24.21078 70.64209 23.52542 72.40814 22.86732 74.1742 22.2526 75.94025 21.66443 77.7063 21.10493 79.47235 20.57272 81.2384 20.06918 83.00446 19.59433 84.77051 19.14603 86.53656 18.71243 88.30261 18.30751 90.06868 17.92216 91.83472 17.55594 93.60078 17.20819 95.36682 16.87819 97.13289 16.56514 98.89894 16.26808 100.66498 15.9862 102.43105 15.7188 104.19708 15.46503 105.96315 15.22424 107.7292 14.9958 109.49525 14.77904 111.2613 14.57338 113.02736 14.37822 114.79341 14.19302 116.55946 14.01733 118.3255 13.85062 120.09157 13.69246 121.8576 13.54239 123.62367 13.4 125.38972 13.26488 127.15578 13.13669 128.92183 13.01505 130.68787 12.89963 132.45394 12.79013 134.21999 12.68622 135.98604 12.58762 137.75209 12.49408 139.51815 12.4053 141.2842 12.3211 143.05027 12.24118 144.8163 12.16539 146.58237 12.09343 148.3484 12.02516 150.11447 11.96039 151.88051 11.89894 153.64658 11.84064 155.41262 11.78531 157.17868 11.73282 158.94472 11.68301 160.71079 11.63574 162.47682 11.59088 164.24288 11.54834 166.00893 11.50797 167.77498 11.46967 169.54105 11.43333 171.30709 11.39885 173.07315 11.36613 174.83919 11.33507"/>
</g>
<use data-text="t" xlink:href="#font_3_2" transform="matrix(10.9091,0,0,-10.9091,167.53601,131.453)"/>
<use data-text="y" xlink:href="#font_3_4" transform="matrix(10.9091,0,0,-10.9091,19.346,10.923004)"/>
<path transform="matrix(1,0,0,-1,1.2639999,146.845)" d="M70.43442 111.56877H160.6493V144.7531H70.43442Z" fill="#ffffff"/>
<path transform="matrix(1,0,0,-1,1.2639999,146.845)" stroke-width=".99628" stroke-linecap="butt" stroke-miterlimit="10" stroke-linejoin="miter" fill="none" stroke="#000000" d="M70.43442 111.56877H160.6493V144.7531H70.43442Z"/>
<path transform="matrix(1,0,0,-1,75.186,11.326004)" stroke-width=".99628" stroke-linecap="butt" stroke-miterlimit="10" stroke-linejoin="miter" fill="none" stroke="#ff0000" d="M0 0H8.50412 17.00826"/>
<use data-text="x" xlink:href="#font_3_3" transform="matrix(10.9091,0,0,-10.9091,96.11099,14.938004)"/>
<use data-text="(" xlink:href="#font_1_1" transform="matrix(10.9091,0,0,-10.9091,102.34499,14.938004)"/>
<use data-text="t" xlink:href="#font_3_2" transform="matrix(10.9091,0,0,-10.9091,106.588,14.938004)"/>
<use data-text=")" xlink:href="#font_1_2" transform="matrix(10.9091,0,0,-10.9091,110.52699,14.938004)"/>
<use data-text="=" xlink:href="#font_1_5" transform="matrix(10.9091,0,0,-10.9091,117.78154,14.938004)"/>
<use data-text="x" xlink:href="#font_3_3" transform="matrix(10.9091,0,0,-10.9091,129.31499,14.938004)"/>
<use data-text="0" xlink:href="#font_4_1" transform="matrix(7.9701,0,0,-7.9701,135.54999,16.574006)"/>
<use data-text="e" xlink:href="#font_3_1" transform="matrix(10.9091,0,0,-10.9091,140.28199,14.938004)"/>
<use data-text="&#x2212;" xlink:href="#font_5_1" transform="matrix(7.9701,0,0,-7.9701,145.36199,10.979004)"/>
<use data-text="t" xlink:href="#font_6_1" transform="matrix(7.9701,0,0,-7.9701,151.94799,10.979004)"/>
<path transform="matrix(1,0,0,-1,75.186,25.925004)" stroke-width=".99628" stroke-linecap="butt" stroke-miterlimit="10" stroke-linejoin="miter" fill="none" stroke="#0000ff" d="M0 0H8.50412 17.00826"/>
<use data-text="y" xlink:href="#font_3_4" transform="matrix(10.9091,0,0,-10.9091,94.68399,29.654)"/>
<use data-text="(" xlink:href="#font_1_1" transform="matrix(10.9091,0,0,-10.9091,100.42399,29.654)"/>
<use data-text="t" xlink:href="#font_3_2" transform="matrix(10.9091,0,0,-10.9091,104.665988,29.654)"/>
<use data-text=")" xlink:href="#font_1_2" transform="matrix(10.9091,0,0,-10.9091,108.60498,29.654)"/>
<use data-text="=" xlink:href="#font_1_5" transform="matrix(10.9091,0,0,-10.9091,115.85953,29.654)"/>
<use data-text="y" xlink:href="#font_3_4" transform="matrix(10.9091,0,0,-10.9091,127.392978,29.654)"/>
<use data-text="0" xlink:href="#font_4_1" transform="matrix(7.9701,0,0,-7.9701,132.74198,31.291)"/>
<use data-text="e" xlink:href="#font_3_1" transform="matrix(10.9091,0,0,-10.9091,137.47397,29.654)"/>
<use data-text="&#x2212;" xlink:href="#font_5_1" transform="matrix(7.9701,0,0,-7.9701,142.55397,25.695)"/>
<use data-text="2" xlink:href="#font_4_2" transform="matrix(7.9701,0,0,-7.9701,149.13997,25.695)"/>
<use data-text="t" xlink:href="#font_6_1" transform="matrix(7.9701,0,0,-7.9701,153.37397,25.695)"/>
</svg>
