<svg xmlns="http://www.w3.org/2000/svg" xmlns:xlink="http://www.w3.org/1999/xlink" version="1.1" width="132" height="73" viewBox="0 0 132 73">
<defs>
<path id="font_1_1" d="M.42799378 .15419007C.3939972 .10821533 .33499146 .03727722 .2679901 .03727722 .19499207 .03727722 .17999268 .097229007 .17999268 .16816712 .17999268 .29808045 .25498963 .46694947 .34700013 .46694947 .3789978 .46694947 .40098573 .44696046 .40699769 .38700868 .40899659 .36901856 .41799928 .35702516 .43598939 .35702516 .45999146 .35702516 .5 .38002015 .5 .41299439 .5 .46394349 .44599916 .5019531 .37098695 .5019531 .19299317 .5019531 .08099365 .31207276 .08099365 .14819336 .08099365 .026275635 .1539917-.01171875 .22399903-.01171875 .2979889-.01171875 .3829956 .02027893 .45199586 .13519287L.42799378 .15419007Z"/>
<path id="font_1_3" d="M.42799378 .45222474 .43899537 .49023438H.31199647L.34599305 .6092224 .33399964 .6162262 .23699951 .53923037 .22399903 .49023438H.14299011L.13198853 .45222474H.21499634L.125 .08627319C.10998535 .029266358 .12199402-.01171875 .17199707-.01171875 .2519989-.01171875 .31599427 .054275514 .35598756 .1292572L.33399964 .1462555C.31098939 .10726929 .2599945 .040267946 .22898865 .040267946 .20799256 .040267946 .20799256 .0632782 .21398926 .088272098L.30299378 .45222474H.42799378Z"/>
<path id="font_2_1" d="M.6349945 .2529297V.31092835H.084991458V.2529297H.6349945Z"/>
<path id="font_3_6" d="M.4850006 .13195801 .45700074 .13696289C.43598939 .08299255 .41600038 .07598877 .37599183 .07598877H.11999512C.13598633 .1279602 .19499207 .19892884 .28799439 .2658844 .38398744 .33584596 .45799256 .38082887 .45799256 .49276734 .45799256 .63168337 .3659973 .6796875 .26098634 .6796875 .12399292 .6796875 .052993776 .5967102 .052993776 .54473879 .052993776 .51075747 .09098816 .49476625 .10798645 .49476625 .12599182 .49476625 .1329956 .50476077 .13699341 .5217438 .15299988 .5897064 .19198609 .64468386 .2539978 .64468386 .33099366 .64468386 .35299684 .5797119 .35299684 .50675967 .35299684 .3998108 .29899598 .33984376 .21199036 .26289369 .08898926 .15594483 .04598999 .08798218 .026992798 .009994507L.036987306 0H.45098878L.4850006 .13195801Z"/>
<path id="font_3_5" d="M.43699647 0V.0289917L.35299684 .035995485C.33198548 .037994386 .31999208 .04598999 .31999208 .08496094V.67367556L.31498719 .6796875 .10899353 .6446991V.6197052L.20199585 .6087036C.21899414 .6067047 .22599793 .5987091 .22599793 .56973269V.08496094C.22599793 .065979007 .22299195 .053985597 .21699524 .04698181 .21199036 .039993287 .20399475 .036987306 .19299317 .035995485L.10899353 .0289917V0H.43699647Z"/>
<path id="font_1_4" d="M.5329895 .48995973C.5039978 .388031 .48799134 .33506776 .46199037 .2741089 .41799928 .173172 .33099366 .040267946 .24798584 .040267946 .21598816 .040267946 .20799256 .070251468 .22299195 .12820435L.31900025 .4970703 .31399537 .50205996 .13198853 .47375489 .12599182 .4497528 .18798828 .44476319C.21199036 .44276429 .21099854 .42778016 .20298767 .39682008L.13398743 .13316345C.11299133 .053253175 .12098694-.01171875 .20098877-.01171875 .29699708-.01171875 .4019928 .09420776 .46199037 .21005249H.46398927L.43099977 .096206668C.4119873 .029266358 .42399598-.01171875 .47698976-.01171875 .548996-.01171875 .60899356 .057250978 .6439972 .13116455L.6199951 .14613343C.59999087 .11218262 .55599978 .040267946 .5279999 .040267946 .5069885 .040267946 .5069885 .06324768 .5149994 .09420776L.621994 .5019531 .5329895 .48995973Z"/>
<path id="font_3_1" d="M.1749878 .2822113C.1749878 .56832888 .2619934 .65437319 .32499696 .66737368V.6923828C.1499939 .685379 .10499573 .46829225 .10499573 .2822113 .10499573 .09614563 .1499939-.12094116 .32499696-.12792969V-.10293579C.2669983-.090927127 .1749878-.0059051516 .1749878 .2822113Z"/>
<path id="font_3_2" d="M.1749878 .2822113C.1749878-.0059051516 .08299255-.090927127 .024993897-.10293579V-.12792969C.19999695-.12094116 .24499512 .09614563 .24499512 .2822113 .24499512 .46829225 .19999695 .685379 .024993897 .6923828V.66737368C.08799744 .65437319 .1749878 .56832888 .1749878 .2822113Z"/>
<path id="font_2_3" d="M.6349945 .14315796V.20117188H.084991458V.14315796H.6349945M.6349945 .36288453V.42089845H.084991458V.36288453H.6349945Z"/>
<path id="font_3_4" d="M.2649994 .64468386C.3600006 .64468386 .3869934 .49682618 .3869934 .33398438 .3869934 .17112732 .3600006 .023269654 .2649994 .023269654 .16999817 .023269654 .14299011 .17112732 .14299011 .33398438 .14299011 .49682618 .16999817 .64468386 .2649994 .64468386M.2649994 .6796875C.099990848 .6796875 .040985109 .53378298 .040985109 .33398438 .040985109 .13417053 .099990848-.01171875 .2649994-.01171875 .42999269-.01171875 .4889984 .13417053 .4889984 .33398438 .4889984 .53378298 .42999269 .6796875 .2649994 .6796875Z"/>
<path id="font_3_10" d="M.18998719 .7480469C.13999939 .7020416 .07199097 .6350403 .07199097 .56404116 .07199097 .5100403 .10398865 .47703553 .13699341 .4780426 .16699219 .4780426 .18499756 .4990387 .18499756 .5260315 .18499756 .56204226 .1519928 .58303835 .1519928 .6200409 .1519928 .6580353 .17599488 .6960449 .20698548 .7320404L.18998719 .7480469M.36999513 .7480469C.31999208 .7020416 .2519989 .6350403 .2519989 .56404116 .2519989 .5100403 .28399659 .47703553 .31698609 .4780426 .34700013 .4780426 .36499024 .4990387 .36499024 .5260315 .36499024 .56204226 .33198548 .58303835 .33198548 .6200409 .33198548 .6580353 .35598756 .6960449 .3869934 .7320404L.36999513 .7480469Z"/>
<path id="font_3_9" d="M.28799439 .5019531C.12799073 .5019531 .04899597 .40698243 .04899597 .24510193 .04899597 .083236698 .12799073-.01171875 .28799439-.01171875 .44999696-.01171875 .5279999 .083236698 .5279999 .24510193 .5279999 .40698243 .44999696 .5019531 .28799439 .5019531M.15299988 .24510193C.15299988 .38301087 .19699097 .46694947 .28799439 .46694947 .3809967 .46694947 .42399598 .38301087 .42399598 .24510193 .42399598 .10720825 .3809967 .023269654 .28799439 .023269654 .19699097 .023269654 .15299988 .10720825 .15299988 .24510193Z"/>
<path id="font_3_7" d="M.20098877 .45022584H.32299806V.49023438H.20098877L.19699097 .60220339C.19400025 .6971741 .22898865 .70718386 .24499512 .70718386 .2659912 .70718386 .28799439 .6971741 .31298829 .6391907 .31799317 .62919619 .32499696 .6221924 .33999635 .6221924 .3600006 .6221924 .3889923 .6391907 .3889923 .66918948 .3889923 .70217898 .34700013 .7421875 .2669983 .7421875 .21199036 .7421875 .16499329 .71717837 .13999939 .67918398 .116989139 .64419558 .10699463 .5912018 .10699463 .5252228V.49023438H.02999878V.45022584H.10699463V.087020877C.10699463 .035995485 .10398865 .033996583 .03199768 .0289917V0H.29599V.0289917C.20498657 .032989503 .20098877 .034988405 .20098877 .08602905V.45022584Z"/>
<path id="font_3_11" d="M.08898926 .47218324C.13899231 .5181732 .20698548 .58517459 .20698548 .6561737 .20698548 .71017459 .1749878 .7431793 .14199829 .7421875 .11199951 .7421875 .09399414 .72117617 .09399414 .69418337 .09399414 .6581726 .1269989 .6371765 .1269989 .60017397 .1269989 .56217959 .102996829 .5241852 .07199097 .48817445L.08898926 .47218324M.2689972 .47218324C.31900025 .5181732 .3869934 .58517459 .3869934 .6561737 .3869934 .71017459 .35499574 .7431793 .32199098 .7421875 .2919922 .7421875 .27398683 .72117617 .27398683 .69418337 .27398683 .6581726 .30699159 .6371765 .30699159 .60017397 .30699159 .56217959 .2829895 .5241852 .2519989 .48817445L.2689972 .47218324Z"/>
<path id="font_3_8" d="M.5289917 .34295655C.5289917 .4439392 .47399903 .5019531 .38198854 .5019531 .30799867 .5019531 .2619934 .46594239 .19999695 .4259491L.18598938 .5019531 .036987306 .47694398V.45195008L.07499695 .4469452C.100997928 .4429474 .10699463 .4379425 .10699463 .40194703V.08699036C.10699463 .035995485 .10398865 .033996583 .03199768 .0289917V0H.27598573V.0289917C.20498657 .033996583 .20098877 .035995485 .20098877 .08699036V.32095338C.20098877 .34596253 .20298767 .35995484 .21099854 .37594605 .23199463 .4149475 .2769928 .44795228 .32998658 .44795228 .397995 .44795228 .43499757 .40994264 .43499757 .32295228V.08699036C.43499757 .035995485 .43199159 .033996583 .3600006 .0289917V0H.60398867V.0289917C.5329895 .033996583 .5289917 .035995485 .5289917 .08699036V.34295655Z"/>
<path id="font_1_2" d="M.43499757 .15118408C.39898683 .10421753 .34498597 .03727722 .269989 .03727722 .19999695 .03727722 .1789856 .097229007 .1789856 .17616272 .1789856 .1811676 .1789856 .1851654 .17999268 .19215393 .34799195 .22613526 .42099 .26609803 .46398927 .30607606 .49899293 .3410492 .5059967 .37402345 .5059967 .4019928 .5059967 .45495606 .46398927 .5019531 .38198854 .5019531 .2919922 .5019531 .21798706 .45596314 .16299439 .3880005 .10998535 .32305909 .07998657 .23612976 .07998657 .15219116 .07998657 .012268066 .17098999-.01171875 .22898865-.01171875 .3019867-.01171875 .3899994 .02027893 .45799256 .13119507L.43499757 .15118408M.18199158 .22613526C.19898987 .3470459 .27398683 .46694947 .35398866 .46694947 .3889923 .46694947 .4119873 .44296266 .4119873 .4079895 .4119873 .3380432 .35099793 .26210023 .18199158 .22613526Z"/>
<path id="font_3_3" d="M.15899658-.0146484379 .36898805 .70703127H.3019867L.09199524-.0146484379H.15899658Z"/>
<path id="font_2_2" d="M.07998657 .28173829C.07998657 .24674988 .10798645 .21875 .14299011 .21875 .17799378 .21875 .20599365 .24674988 .20599365 .28173829 .20599365 .31674195 .17799378 .34474183 .14299011 .34474183 .10798645 .34474183 .07998657 .31674195 .07998657 .28173829Z"/>
</defs>
<path transform="matrix(1,0,0,-1.00002,66.121997,49.42267)" d="M-64.63141-22.11076V47.62315H17.00824V-22.11076ZM17.00824 47.62315" fill="#d9d9ff"/>
<path transform="matrix(1,0,0,-1.00002,66.121997,49.42267)" d="M17.00824-22.11076V47.62315H64.63141V-22.11076ZM64.63141 47.62315" fill="#d9f0d9"/>
<use data-text="c" xlink:href="#font_1_1" transform="matrix(9.1656,0,0,-9.165783,80.74899,69.26106)"/>
<path transform="matrix(1,0,0,-1.00002,66.121997,49.42267)" stroke-width=".3985" stroke-linecap="butt" stroke-miterlimit="10" stroke-linejoin="miter" fill="none" stroke="#000000" d="M-64.63141 0H64.17314"/>
<path transform="matrix(1,0,0,-1.00002,130.29514,49.42267)" stroke-width=".31879" stroke-linecap="round" stroke-linejoin="round" fill="none" stroke="#000000" d="M-1.19551 1.59401C-1.09587 .99626 0 .09961 .29886 0 0-.09961-1.09587-.99626-1.19551-1.59401"/>
<path transform="matrix(1,0,0,-1.00002,66.121997,49.42267)" stroke-width=".3985" stroke-linecap="butt" stroke-miterlimit="10" stroke-linejoin="miter" fill="none" stroke="#000000" d="M0-22.11076V47.16487"/>
<path transform="matrix(0,-1.00002,-1,-0,66.121997,2.2568513)" stroke-width=".31879" stroke-linecap="round" stroke-linejoin="round" fill="none" stroke="#000000" d="M-1.19551 1.59401C-1.09587 .99626 0 .09961 .29886 0 0-.09961-1.09587-.99626-1.19551-1.59401"/>
<use data-text="t" xlink:href="#font_1_3" transform="matrix(7.3325,0,0,-7.332647,127.490009,57.340829)"/>
<path transform="matrix(1,0,0,-1.00002,66.121997,49.42267)" stroke-width=".3985" stroke-linecap="butt" stroke-miterlimit="10" stroke-linejoin="miter" fill="none" stroke="#929292" d="M-34.0165 1.19554V-1.19554"/>
<use data-text="&#x2212;" xlink:href="#font_2_1" transform="matrix(7.3325,0,0,-7.332647,27.522995,58.926858)"/>
<use data-text="2" xlink:href="#font_3_6" transform="matrix(7.3325,0,0,-7.332647,32.798997,58.926858)"/>
<path transform="matrix(1,0,0,-1.00002,66.121997,49.42267)" stroke-width=".3985" stroke-linecap="butt" stroke-miterlimit="10" stroke-linejoin="miter" fill="none" stroke="#929292" d="M-17.00824 1.19554V-1.19554"/>
<use data-text="&#x2212;" xlink:href="#font_2_1" transform="matrix(7.3325,0,0,-7.332647,44.53099,58.926858)"/>
<use data-text="1" xlink:href="#font_3_5" transform="matrix(7.3325,0,0,-7.332647,49.80699,58.926858)"/>
<path transform="matrix(1,0,0,-1.00002,66.121997,49.42267)" stroke-width=".3985" stroke-linecap="butt" stroke-miterlimit="10" stroke-linejoin="miter" fill="none" stroke="#929292" d="M17.00824 1.19554V-1.19554"/>
<use data-text="1" xlink:href="#font_3_5" transform="matrix(7.3325,0,0,-7.332647,81.185,58.926858)"/>
<path transform="matrix(1,0,0,-1.00002,66.121997,49.42267)" stroke-width=".3985" stroke-linecap="butt" stroke-miterlimit="10" stroke-linejoin="miter" fill="none" stroke="#929292" d="M34.0165 1.19554V-1.19554"/>
<use data-text="2" xlink:href="#font_3_6" transform="matrix(7.3325,0,0,-7.332647,98.19399,58.926858)"/>
<path transform="matrix(1,0,0,-1.00002,66.121997,49.42267)" stroke-width=".3985" stroke-linecap="butt" stroke-miterlimit="10" stroke-linejoin="miter" fill="none" stroke="#929292" d="M17.00824 1.19554V-1.19554"/>
<path transform="matrix(1,0,0,-1.00002,66.121997,49.42267)" stroke-width=".3985" stroke-linecap="butt" stroke-miterlimit="10" stroke-linejoin="miter" fill="none" stroke="#929292" d="M1.19554-17.00824H-1.19554"/>
<use data-text="&#x2212;" xlink:href="#font_2_1" transform="matrix(7.3325,0,0,-7.332647,52.36199,68.886058)"/>
<use data-text="1" xlink:href="#font_3_5" transform="matrix(7.3325,0,0,-7.332647,57.637994,68.886058)"/>
<path transform="matrix(1,0,0,-1.00002,66.121997,49.42267)" stroke-width=".3985" stroke-linecap="butt" stroke-miterlimit="10" stroke-linejoin="miter" fill="none" stroke="#929292" d="M1.19554 17.00824H-1.19554"/>
<use data-text="1" xlink:href="#font_3_5" transform="matrix(7.3325,0,0,-7.332647,57.637994,34.869379)"/>
<path transform="matrix(1,0,0,-1.00002,66.121997,49.42267)" stroke-width=".3985" stroke-linecap="butt" stroke-miterlimit="10" stroke-linejoin="miter" fill="none" stroke="#929292" d="M1.19554 17.00824H-1.19554"/>
<path transform="matrix(1,0,0,-1.00002,66.121997,49.42267)" stroke-width=".3985" stroke-linecap="butt" stroke-dasharray="2.98883,2.98883" stroke-miterlimit="10" stroke-linejoin="miter" fill="none" stroke="#009900" d="M-64.63141 17.00824H-64.22136-63.81131-63.40126-62.99121-62.58118-62.17111-61.76106-61.35101-60.94095-60.53091-60.12086-59.71082-59.30077-58.89072-58.48067-58.0706-57.66057-57.2505-56.84047-56.43042-56.02036-55.61032-55.20026-54.7902-54.38016-53.97012-53.56006-53.15001-52.73996-52.32991-51.91986-51.50981-51.09976-50.68971-50.27966-49.86961-49.45955-49.04951-48.63945-48.22942-47.81937-47.4093-46.99927-46.5892-46.17915-45.7691-45.35907-44.949-44.53896-44.1289-43.71886-43.3088-42.89876-42.48871-42.07866-41.66861-41.25856-40.8485-40.43846-40.0284-39.61835-39.20831-38.79825-38.38821-37.97815-37.5681-37.15805-36.748-36.33795-35.9279-35.51785-35.1078-34.69775-34.2877-33.87764-33.4676-33.05756-32.6475-32.23744-31.82741-31.41734-31.0073-30.59726-30.1872-29.77716-29.3671-28.95705-28.547-28.13695-27.7269-27.31685-26.90681-26.49675-26.0867-25.67665-25.26659-24.85655-24.4465-24.03645-23.6264-23.21635-22.80629-22.39624-21.9862-21.57614-21.1661-20.75604-20.34601-19.93594-19.5259-19.11584-18.7058-18.29576-17.8857-17.47565-17.0656-16.65553-16.2455-15.83545-15.4254-15.01535-14.60529-14.19524-13.78519-13.37515-12.96509-12.55505-12.14499-11.73494-11.32489-10.91484-10.50479-10.09474-9.68471-9.27464-8.86458-8.45454-8.04448-7.63445-7.2244-6.81435-6.4043-5.99423-5.58418-5.17413-4.7641-4.35403-3.944-3.53394-3.12389-2.71384-2.30379-1.89374-1.48369-1.07364-.66359-.25352 .15648 .56653 .97656 1.38663 1.79668 2.20673 2.61679 3.02682 3.43687 3.84692 4.25697 4.66702 5.07707 5.48714 5.89717 6.30724 6.71727 7.12732 7.53738 7.94743 8.35748 8.76753 9.17758 9.58762 9.99768 10.40773 10.81778 11.22784 11.63788 12.04793 12.45798 12.86803 13.27809 13.68813 14.09819 14.50822 14.91829 15.32832 15.73837 16.14844 16.55849 16.96854"/>
<path transform="matrix(1,0,0,-1.00002,66.121997,49.42267)" stroke-width="1.19553" stroke-linecap="butt" stroke-miterlimit="10" stroke-linejoin="miter" fill="none" stroke="#009900" d="M-64.63141 .02438-64.22136 .02698-63.81131 .02956-63.40126 .03217-62.99121 .03528-62.58118 .03891-62.17111 .04254-61.76106 .04617-61.35101 .05032-60.94095 .055-60.53091 .0602-60.12086 .06538-59.71082 .07161-59.30077 .07784-58.89072 .0846-58.48067 .09186-58.0706 .09964-57.66057 .10846-57.2505 .11781-56.84047 .12766-56.43042 .13805-56.02036 .14946-55.61032 .16193-55.20026 .17543-54.7902 .18944-54.38016 .205-53.97012 .22108-53.56006 .23874-53.15001 .25743-52.73996 .27766-52.32991 .29895-51.91986 .3218-51.50981 .34358-51.09976 .37059-50.68971 .39757-50.27966 .4282-49.86961 .45882-49.45955 .49309-49.04951 .53046-48.63945 .56781-48.22942 .60883-47.81937 .65295-47.4093 .69707-46.99927 .74481-46.5892 .7957-46.17915 .85019-45.7691 .90833-45.35907 .96957-44.949 1.03392-44.53896 1.10193-44.1289 1.17355-43.71886 1.2483-43.3088 1.32668-42.89876 1.4118-42.48871 1.50003-42.07866 1.59192-41.66861 1.69052-41.25856 1.79277-40.8485 1.90178-40.43846 2.0139-40.0284 2.13329-39.61835 2.25578-39.20831 2.38501-38.79825 2.52101-38.38821 2.66374-37.97815 2.81012-37.5681 2.96687-37.15805 3.12674-36.748 3.29646-36.33795 3.47037-35.9279 3.6541-35.51785 3.84096-35.1078 4.0382-34.69775 4.24582-34.2877 4.45708-33.87764 4.67819-33.4676 4.90605-33.05756 5.1443-32.6475 5.3893-32.23744 5.64465-31.82741 5.90627-31.41734 6.17513-31.0073 6.45749-30.59726 6.7435-30.1872 7.04298-29.77716 7.34558-29.3671 7.6622-28.95705 7.98558-28.547 8.3188-28.13695 8.65878-27.7269 9.00967-27.31685 9.36676-26.90681 9.73425-26.49675 10.1085-26.0867 10.49312-25.67665 10.88396-25.26659 11.2857-24.85655 11.69418-24.4465 12.10892-24.03645 12.53455-23.6264 12.96329-23.21635 13.40187-22.80629 13.84464-22.39624 14.2967-21.9862 14.75296-21.57614 15.21544-21.1661 15.68518-20.75604 16.15804-20.34601 16.63454-19.93594 17.11777-19.5259 17.60411-19.11584 18.09045-18.7058 18.58408-18.29576 19.07718-17.8857 19.57079-17.47565 20.06752-17.0656 20.56789-16.65553 21.06464-16.2455 21.56136-15.83545 22.05807-15.4254 22.55118-15.01535 23.04117-14.60529 23.53114-14.19524 24.01802-13.78519 24.49763-13.37515 24.9741-12.96509 25.44334-12.55505 25.90944-12.14499 26.36569-11.73494 26.8183-11.32489 27.26053-10.91484 27.69238-10.50479 28.11436-10.09474 28.52962-9.68471 28.93085-9.27464 29.3222-8.86458 29.70319-8.45454 30.07068-8.04448 30.42104-7.63445 30.76154-7.2244 31.08803-6.81435 31.401-6.4043 31.69374-5.99423 31.97299-5.58418 32.23822-5.17413 32.48323-4.7641 32.71472-4.35403 32.92546-3.944 33.12268-3.53394 33.29659-3.12389 33.45282-2.71384 33.59244-2.30379 33.71129-1.89374 33.81354-1.48369 33.89503-1.07364 33.95628-.66359 33.99728-.25352 34.02116H.15648L.56653 34.00404 .97656 33.96667 1.38663 33.91217 1.79668 33.83379 2.20673 33.7388 2.61679 33.62306 3.02682 33.49017 3.43687 33.33707 3.84692 33.1637 4.25697 32.9732 4.66702 32.76558 5.07707 32.54083 5.48714 32.29948 5.89717 32.03735 6.30724 31.76175 6.71727 31.46951 7.12732 31.16327 7.53738 30.8399 7.94743 30.50304 8.35748 30.15579 8.76753 29.79195 9.17758 29.41408 9.58762 29.02635 9.99768 28.62459 10.40773 28.213 10.81778 27.79463 11.22784 27.36226 11.63788 26.92368 12.04793 26.47418 12.45798 26.01845 12.86803 25.55597 13.27809 25.08624 13.68813 24.60973 14.09819 24.13014 14.50822 23.6469 14.91829 23.16054 15.32832 22.66693 15.73837 22.17384 16.14844 21.67711 16.55849 21.18347 16.96854 20.68364"/>
<path transform="matrix(1,0,0,-1.00002,66.121997,49.42267)" stroke-width=".3985" stroke-linecap="butt" stroke-dasharray="2.98883,2.98883" stroke-miterlimit="10" stroke-linejoin="miter" fill="none" stroke="#8080ff" d="M17.00824 20.6359 17.24751 20.34677 17.4868 20.05714 17.72609 19.76492 17.96538 19.4753 18.20465 19.18619 18.44392 18.89706 18.68323 18.61107 18.9225 18.32195 19.16179 18.03647 19.40106 17.75047 19.64034 17.46811 19.87964 17.18211 20.11891 16.89977 20.3582 16.62103 20.59747 16.34178 20.83675 16.06305 21.07605 15.78743 21.31532 15.51492 21.55461 15.23932 21.79388 14.97044 22.03317 14.70158 22.27246 14.43323 22.51173 14.16748 22.75102 13.90587 22.9903 13.64687 23.22958 13.38838 23.46887 13.1299 23.70815 12.87814 23.94742 12.6264 24.1867 12.37779 24.426 12.12968 24.66528 11.8878 24.90456 11.64644 25.14383 11.40819 25.38313 11.16997 25.6224 10.93846 25.8617 10.70747 26.10097 10.4791 26.34024 10.25487 26.57954 10.03375 26.81882 9.81264 27.0581 9.59828 27.29738 9.3839 27.53665 9.17264 27.77596 8.96503 28.01523 8.76105 28.25452 8.56017 28.49379 8.3598 28.73308 8.1657 28.97237 7.97156 29.21164 7.78471 29.45093 7.59734 29.6902 7.41359 29.92949 7.23347 30.16878 7.05647 30.40805 6.87949 30.64734 6.70923 30.88661 6.5395 31.1259 6.376 31.36519 6.2125 31.60446 6.05263 31.84375 5.8964 32.08304 5.73964 32.32231 5.59015 32.5616 5.44379 32.80087 5.29741 33.04016 5.15468 33.27945 5.01505 33.51872 4.87906 33.75801 4.74617 33.99728 4.61331 34.23657 4.48405 34.47586 4.35844 34.71513 4.23595 34.95442 4.11656 35.1937 3.99771 35.433 3.88197 35.67227 3.76984 35.91154 3.66084 36.15083 3.55185 36.3901 3.44647 36.62941 3.34422 36.86868 3.24562 37.10797 3.14699 37.34724 3.05148 37.58652 2.95961 37.82582 2.86774 38.0651 2.7795 38.30438 2.69125 38.54366 2.60924 38.78294 2.52412 39.02222 2.44626 39.2615 2.36789 39.5008 2.29315 39.74007 2.21788 39.97935 2.14679 40.21863 2.07515 40.45793 2.00716 40.6972 1.94228 40.93648 1.87791 41.17577 1.81302 41.41504 1.75177 41.65434 1.69417 41.89362 1.63603 42.1329 1.58205 42.37218 1.52754 42.61145 1.47305 42.85075 1.42166 43.09003 1.3708 43.32932 1.32304 43.56859 1.2758 43.80788 1.23117 44.04716 1.18704 44.28644 1.14658 44.52573 1.10193 44.765 1.06456 45.00429 1.02408 45.24358 .98618 45.48285 .95244 45.72214 .91507 45.96141 .88081 46.2007 .84706 46.43999 .81645 46.67926 .78581 46.91855 .7552 47.15784 .72769 47.39711 .69707 47.6364 .67006 47.87567 .6462 48.11496 .6187 48.35425 .59534 48.59352 .57146 48.83281 .55069 49.07208 .52681 49.31137 .50656 49.55066 .48633 49.78993 .46608 50.02922 .44897 50.2685 .4282 50.5078 .41159 50.74707 .39447 50.98634 .37733 51.22563 .36383 51.4649 .34671 51.70421 .33478 51.94348 .32076 52.18275 .30727 52.42204 .29428 52.66133 .28131 52.90062 .26936 53.1399 .25795 53.37917 .24654 53.61845 .23615 53.85774 .22575 54.09702 .21591 54.3363 .20656 54.57558 .19722 54.81487 .18839 55.05415 .18008 55.29343 .1723 55.53271 .16452 55.77199 .15726 56.01129 .15 56.25056 .14323 56.48984 .13649 56.72913 .13026 56.9684 .12456 57.2077 .11833 57.44698 .11314 57.68625 .10794 57.92554 .10275 58.16481 .09808 58.40411 .09341 58.64339 .08875 58.88266 .0846 59.12195 .08044 59.36124 .07681 59.60052 .07317 59.8398 .06953 60.07907 .06589 60.31836 .06279 60.55765 .05968 60.79694 .05708 61.03621 .05396 61.27548 .05136 61.51477 .04878 61.75406 .04617 61.99335 .0441 62.23262 .04202 62.4719 .03995 62.7112 .03787 62.95047 .0358 63.18976 .0337 63.42903 .03217 63.6683 .03061 63.90761 .02904 64.14688 .0275 64.38617 .02594 64.62544 .02438"/>
<path transform="matrix(1,0,0,-1.00002,66.121997,49.42267)" stroke-width="1.19553" stroke-linecap="butt" stroke-miterlimit="10" stroke-linejoin="miter" fill="none" stroke="#0000ff" d="M18.0287 0H18.26279 18.49687 18.73097 18.96506 19.19916 19.43324 19.66734 19.90143 20.13551 20.36961 20.6037 20.8378 21.0719 21.30597 21.54007 21.77417 22.00826 22.24234 22.47644 22.71053 22.94463 23.17873 23.4128 23.6469 23.881 24.11507 24.34918 24.58327 24.81735 25.05145 25.28554 25.51964 25.75372 25.98782 26.22191 26.456 26.69011 26.92418 27.15828 27.39238 27.62645 27.86055 28.09465 28.32874 28.56284 28.79692 29.031 29.2651 29.4992 29.73328 29.96738 30.20148 30.43556 30.66966 30.90375 31.13783 31.37193 31.60602 31.84012 32.0742 32.3083 32.54239 32.77647 33.01059 33.24466 33.47876 33.71286 33.94693 34.18105 34.41513 34.64922 34.88332 35.1174 35.35149 35.58559 35.81969 36.05379 36.28786 36.52196 36.75606 36.99014 37.22423 37.45833 37.69241 37.92651 38.16061 38.39468 38.62878 38.86288 39.09695 39.33107 39.56516 39.79924 40.03334 40.26743 40.50153 40.73561 40.96971 41.2038 41.43788 41.672 41.90607 42.14017 42.37427 42.60834 42.84244 43.07654 43.31062 43.54472 43.77881 44.0129 44.247 44.4811 44.71516 44.94926 45.18336 45.41745 45.65155 45.88564 46.11972 46.35382 46.5879 46.822 47.05609 47.29019 47.52428 47.75836 47.99248 48.22655 48.46065 48.69475 48.92882 49.16293 49.39702 49.6311 49.8652 50.09929 50.33337 50.56747 50.80157 51.03566 51.26974 51.50385 51.73793 51.97203 52.20612 52.4402 52.6743 52.9084 53.14249 53.37657 53.61067 53.84476 54.07884 54.31296 54.54703 54.78113 55.01523 55.2493 55.48341 55.7175 55.95158 56.18568 56.41977 56.65387 56.88795 57.12206 57.35614 57.59023 57.82433 58.05841 58.29251 58.52661 58.76068 58.99478 59.22888 59.46297 59.69705 59.93115 60.16524 60.39934 60.63344 60.86751 61.10161 61.33571 61.56978 61.8039 62.03798 62.27206 62.50616 62.74025 62.97435 63.20844 63.44254 63.67662 63.9107 64.1448 64.37889 64.61299"/>
<path transform="matrix(1,0,0,-1.00002,66.121997,49.42267)" stroke-width="1.19553" stroke-linecap="butt" stroke-miterlimit="10" stroke-linejoin="miter" fill="none" stroke="#0000ff" d="M18.80156 0C18.80156 .99042 17.99866 1.7933 17.00824 1.7933 16.01782 1.7933 15.21492 .99042 15.21492 0 15.21492-.99042 16.01782-1.7933 17.00824-1.7933 17.99866-1.7933 18.80156-.99042 18.80156 0ZM17.00824 0"/>
<path transform="matrix(1,0,0,-1.00002,66.121997,49.42267)" d="M18.80156 20.6359C18.80156 21.62631 17.99866 22.4292 17.00824 22.4292 16.01782 22.4292 15.21492 21.62631 15.21492 20.6359 15.21492 19.64546 16.01782 18.84258 17.00824 18.84258 17.99866 18.84258 18.80156 19.64546 18.80156 20.6359ZM17.00824 20.6359" fill="#009900"/>
<use data-text="1" xlink:href="#font_3_5" transform="matrix(7.3325,0,0,-7.332647,7.043991,28.08624)" fill="#009900"/>
<use data-text="&#x2212;" xlink:href="#font_2_1" transform="matrix(7.3325,0,0,-7.332647,11.906998,28.08624)" fill="#009900"/>
<use data-text="u" xlink:href="#font_1_4" transform="matrix(7.3325,0,0,-7.332647,18.156998,28.08624)" fill="#009900"/>
<use data-text="(" xlink:href="#font_3_1" transform="matrix(7.3325,0,0,-7.332647,23.091004,28.08624)" fill="#009900"/>
<use data-text="t" xlink:href="#font_1_3" transform="matrix(7.3325,0,0,-7.332647,25.817002,28.08624)" fill="#009900"/>
<use data-text=")" xlink:href="#font_3_2" transform="matrix(7.3325,0,0,-7.332647,29.100007,28.08624)" fill="#009900"/>
<use data-text="=" xlink:href="#font_2_3" transform="matrix(7.3325,0,0,-7.332647,33.03,28.08624)" fill="#009900"/>
<use data-text="1" xlink:href="#font_3_5" transform="matrix(7.3325,0,0,-7.332647,39.67,28.08624)" fill="#009900"/>
<use data-text="1" xlink:href="#font_3_5" transform="matrix(7.3325,0,0,-7.332647,88.683,45.09558)" fill="#0000ff"/>
<use data-text="&#x2212;" xlink:href="#font_2_1" transform="matrix(7.3325,0,0,-7.332647,93.546009,45.09558)" fill="#0000ff"/>
<use data-text="u" xlink:href="#font_1_4" transform="matrix(7.3325,0,0,-7.332647,99.796009,45.09558)" fill="#0000ff"/>
<use data-text="(" xlink:href="#font_3_1" transform="matrix(7.3325,0,0,-7.332647,104.73001,45.09558)" fill="#0000ff"/>
<use data-text="t" xlink:href="#font_1_3" transform="matrix(7.3325,0,0,-7.332647,107.45601,45.09558)" fill="#0000ff"/>
<use data-text=")" xlink:href="#font_3_2" transform="matrix(7.3325,0,0,-7.332647,110.73901,45.09558)" fill="#0000ff"/>
<use data-text="=" xlink:href="#font_2_3" transform="matrix(7.3325,0,0,-7.332647,114.66901,45.09558)" fill="#0000ff"/>
<use data-text="0" xlink:href="#font_3_4" transform="matrix(7.3325,0,0,-7.332647,121.309009,45.09558)" fill="#0000ff"/>
<use data-text="&#x201c;" xlink:href="#font_3_10" transform="matrix(7.3325,0,0,-7.332647,34.559999,68.09505)" fill="#009900"/>
<use data-text="o" xlink:href="#font_3_9" transform="matrix(7.3325,0,0,-7.332647,37.331697,68.09505)" fill="#009900"/>
<use data-text="f" xlink:href="#font_3_7" transform="matrix(7.3325,0,0,-7.332647,41.562547,68.09505)" fill="#009900"/>
<use data-text="f" xlink:href="#font_3_7" transform="matrix(7.3325,0,0,-7.332647,43.90161,68.09505)" fill="#009900"/>
<use data-text="&#x201d;" xlink:href="#font_3_11" transform="matrix(7.3325,0,0,-7.332647,46.70262,68.09505)" fill="#009900"/>
<use data-text="&#x201c;" xlink:href="#font_3_10" transform="matrix(7.3325,0,0,-7.332647,99.79199,68.09505)" fill="#0000ff"/>
<use data-text="o" xlink:href="#font_3_9" transform="matrix(7.3325,0,0,-7.332647,102.56369,68.09505)" fill="#0000ff"/>
<use data-text="n" xlink:href="#font_3_8" transform="matrix(7.3325,0,0,-7.332647,106.79454,68.09505)" fill="#0000ff"/>
<use data-text="&#x201d;" xlink:href="#font_3_11" transform="matrix(7.3325,0,0,-7.332647,110.739429,68.09505)" fill="#0000ff"/>
<use data-text="2" xlink:href="#font_3_6" transform="matrix(9.1656,0,0,-9.165783,90.49999,28.935259)"/>
<use data-text="e" xlink:href="#font_1_2" transform="matrix(9.1656,0,0,-9.165783,95.361,28.935259)"/>
<use data-text="&#x2212;" xlink:href="#font_2_1" transform="matrix(6.9659,0,0,-6.9660398,100.18301,25.318188)"/>
<use data-text="t" xlink:href="#font_1_3" transform="matrix(3.7424,0,0,-3.7424749,105.277,23.770157)"/>
<use data-text="2" xlink:href="#font_3_6" transform="matrix(2.8442,0,0,-2.8442569,106.952999,22.294127)"/>
<use data-text="/" xlink:href="#font_3_3" transform="matrix(6.9659,0,0,-6.9660398,108.590007,25.318188)"/>
<use data-text="2" xlink:href="#font_3_6" transform="matrix(3.7424,0,0,-3.7424749,111.051998,25.318188)"/>
<use data-text="&#x00b7;" xlink:href="#font_2_2" transform="matrix(9.1656,0,0,-9.165783,114.753,28.935259)"/>
<use data-text="0" xlink:href="#font_3_4" transform="matrix(9.1656,0,0,-9.165783,118.521,28.935259)" fill="#0000ff"/>
<use data-text="2" xlink:href="#font_3_6" transform="matrix(9.1656,0,0,-9.165783,25.868996,13.742954)"/>
<use data-text="e" xlink:href="#font_1_2" transform="matrix(9.1656,0,0,-9.165783,30.730004,13.742954)"/>
<use data-text="&#x2212;" xlink:href="#font_2_1" transform="matrix(6.9659,0,0,-6.9660398,35.55201,10.125883)"/>
<use data-text="t" xlink:href="#font_1_3" transform="matrix(3.7424,0,0,-3.7424749,40.646005,8.577852)"/>
<use data-text="2" xlink:href="#font_3_6" transform="matrix(2.8442,0,0,-2.8442569,42.322,7.101822)"/>
<use data-text="/" xlink:href="#font_3_3" transform="matrix(6.9659,0,0,-6.9660398,43.959009,10.125883)"/>
<use data-text="2" xlink:href="#font_3_6" transform="matrix(3.7424,0,0,-3.7424749,46.420999,10.125883)"/>
<use data-text="&#x00b7;" xlink:href="#font_2_2" transform="matrix(9.1656,0,0,-9.165783,50.122,13.742954)"/>
<use data-text="1" xlink:href="#font_3_5" transform="matrix(9.1656,0,0,-9.165783,53.890008,13.742954)" fill="#009900"/>
</svg>
