<svg xmlns="http://www.w3.org/2000/svg" xmlns:xlink="http://www.w3.org/1999/xlink" version="1.1" width="105" height="106" viewBox="0 0 105 106">
<defs>
<path id="font_1_1" d="M.42799378 .45222474 .43899537 .49023438H.31199647L.34599305 .6092224 .33399964 .6162262 .23699951 .53923037 .22399903 .49023438H.14299011L.13198853 .45222474H.21499634L.125 .08627319C.10998535 .029266358 .12199402-.01171875 .17199707-.01171875 .2519989-.01171875 .31599427 .054275514 .35598756 .1292572L.33399964 .1462555C.31098939 .10726929 .2599945 .040267946 .22898865 .040267946 .20799256 .040267946 .20799256 .0632782 .21398926 .088272098L.30299378 .45222474H.42799378Z"/>
<path id="font_1_2" d="M.070999149 .45393373 .07398987 .42893983 .14199829 .43093873C.1639862 .43193055 .16899109 .41493226 .1769867 .36291505 .18798828 .28489686 .20999146 .09286499 .20999146 .0128479 .20999146-.017166138 .20799256-.058166505 .18598938-.11117554 .16799927-.15318299 .14199829-.18218994 .12199402-.18218994 .10699463-.18218994 .09599304-.17118836 .08099365-.15118408 .068984989-.13517761 .06098938-.127182 .04598999-.127182 .019989014-.12818909-.005004883-.15818787-.005004883-.18719483-.005004883-.21418762 .023986817-.2421875 .067993167-.2421875 .15299988-.2421875 .18998719-.17919922 .27799989-.027160645 .2979889 .0068511965 .35798646 .11286926 .41999818 .21488953 .47698976 .30891419 .5399933 .40592958 .5399933 .4459381 .5399933 .48094178 .5289917 .5019531 .5219879 .5019531 .5029907 .5019531 .46899415 .49394227 .44400025 .47694398 .44499208 .4419403 .44299317 .3809204 .43099977 .33891297 .4149933 .28289796 .35598756 .17488098 .2899933 .06085205H.2869873C.27999879 .21388245 .26098634 .42492677 .24699402 .49795533L.23899842 .5019531 .070999149 .45393373Z"/>
</defs>
<path transform="matrix(1.00006,0,0,-1.00002,18.102044,56.45289)" stroke-width=".19925" stroke-linecap="butt" stroke-miterlimit="10" stroke-linejoin="miter" fill="none" stroke="#cbcbcb" d="M-14.17339-45.35506V45.35506"/>
<path transform="matrix(1.00006,0,0,-1.00002,18.102044,56.45289)" stroke-width=".19925" stroke-linecap="butt" stroke-miterlimit="10" stroke-linejoin="miter" fill="none" stroke="#cbcbcb" d="M-7.08669-45.35506V45.35506"/>
<path transform="matrix(1.00006,0,0,-1.00002,18.102044,56.45289)" stroke-width=".19925" stroke-linecap="butt" stroke-miterlimit="10" stroke-linejoin="miter" fill="none" stroke="#cbcbcb" d="M0-45.35506V45.35506"/>
<path transform="matrix(1.00006,0,0,-1.00002,18.102044,56.45289)" stroke-width=".19925" stroke-linecap="butt" stroke-miterlimit="10" stroke-linejoin="miter" fill="none" stroke="#cbcbcb" d="M7.08669-45.35506V45.35506"/>
<path transform="matrix(1.00006,0,0,-1.00002,18.102044,56.45289)" stroke-width=".19925" stroke-linecap="butt" stroke-miterlimit="10" stroke-linejoin="miter" fill="none" stroke="#cbcbcb" d="M14.17339-45.35506V45.35506"/>
<path transform="matrix(1.00006,0,0,-1.00002,18.102044,56.45289)" stroke-width=".19925" stroke-linecap="butt" stroke-miterlimit="10" stroke-linejoin="miter" fill="none" stroke="#cbcbcb" d="M21.2601-45.35506V45.35506"/>
<path transform="matrix(1.00006,0,0,-1.00002,18.102044,56.45289)" stroke-width=".19925" stroke-linecap="butt" stroke-miterlimit="10" stroke-linejoin="miter" fill="none" stroke="#cbcbcb" d="M28.3468-45.35506V45.35506"/>
<path transform="matrix(1.00006,0,0,-1.00002,18.102044,56.45289)" stroke-width=".19925" stroke-linecap="butt" stroke-miterlimit="10" stroke-linejoin="miter" fill="none" stroke="#cbcbcb" d="M35.43349-45.35506V45.35506"/>
<path transform="matrix(1.00006,0,0,-1.00002,18.102044,56.45289)" stroke-width=".19925" stroke-linecap="butt" stroke-miterlimit="10" stroke-linejoin="miter" fill="none" stroke="#cbcbcb" d="M42.5202-45.35506V45.35506"/>
<path transform="matrix(1.00006,0,0,-1.00002,18.102044,56.45289)" stroke-width=".19925" stroke-linecap="butt" stroke-miterlimit="10" stroke-linejoin="miter" fill="none" stroke="#cbcbcb" d="M49.6069-45.35506V45.35506"/>
<path transform="matrix(1.00006,0,0,-1.00002,18.102044,56.45289)" stroke-width=".19925" stroke-linecap="butt" stroke-miterlimit="10" stroke-linejoin="miter" fill="none" stroke="#cbcbcb" d="M56.69362-45.35506V45.35506"/>
<path transform="matrix(1.00006,0,0,-1.00002,18.102044,56.45289)" stroke-width=".19925" stroke-linecap="butt" stroke-miterlimit="10" stroke-linejoin="miter" fill="none" stroke="#cbcbcb" d="M63.7803-45.35506V45.35506"/>
<path transform="matrix(1.00006,0,0,-1.00002,18.102044,56.45289)" stroke-width=".19925" stroke-linecap="butt" stroke-miterlimit="10" stroke-linejoin="miter" fill="none" stroke="#cbcbcb" d="M70.867-45.35506V45.35506"/>
<path transform="matrix(1.00006,0,0,-1.00002,18.102044,56.45289)" stroke-width=".19925" stroke-linecap="butt" stroke-miterlimit="10" stroke-linejoin="miter" fill="none" stroke="#cbcbcb" d="M-14.17339-45.35506H70.867"/>
<path transform="matrix(1.00006,0,0,-1.00002,18.102044,56.45289)" stroke-width=".19925" stroke-linecap="butt" stroke-miterlimit="10" stroke-linejoin="miter" fill="none" stroke="#cbcbcb" d="M-14.17339-39.68578H70.867"/>
<path transform="matrix(1.00006,0,0,-1.00002,18.102044,56.45289)" stroke-width=".19925" stroke-linecap="butt" stroke-miterlimit="10" stroke-linejoin="miter" fill="none" stroke="#cbcbcb" d="M-14.17339-34.0165H70.867"/>
<path transform="matrix(1.00006,0,0,-1.00002,18.102044,56.45289)" stroke-width=".19925" stroke-linecap="butt" stroke-miterlimit="10" stroke-linejoin="miter" fill="none" stroke="#cbcbcb" d="M-14.17339-28.34723H70.867"/>
<path transform="matrix(1.00006,0,0,-1.00002,18.102044,56.45289)" stroke-width=".19925" stroke-linecap="butt" stroke-miterlimit="10" stroke-linejoin="miter" fill="none" stroke="#cbcbcb" d="M-14.17339-22.67795H70.867"/>
<path transform="matrix(1.00006,0,0,-1.00002,18.102044,56.45289)" stroke-width=".19925" stroke-linecap="butt" stroke-miterlimit="10" stroke-linejoin="miter" fill="none" stroke="#cbcbcb" d="M-14.17339-17.00868H70.867"/>
<path transform="matrix(1.00006,0,0,-1.00002,18.102044,56.45289)" stroke-width=".19925" stroke-linecap="butt" stroke-miterlimit="10" stroke-linejoin="miter" fill="none" stroke="#cbcbcb" d="M-14.17339-11.3394H70.867"/>
<path transform="matrix(1.00006,0,0,-1.00002,18.102044,56.45289)" stroke-width=".19925" stroke-linecap="butt" stroke-miterlimit="10" stroke-linejoin="miter" fill="none" stroke="#cbcbcb" d="M-14.17339-5.67014H70.867"/>
<path transform="matrix(1.00006,0,0,-1.00002,18.102044,56.45289)" stroke-width=".19925" stroke-linecap="butt" stroke-miterlimit="10" stroke-linejoin="miter" fill="none" stroke="#cbcbcb" d="M-14.17339-.00084H70.867"/>
<path transform="matrix(1.00006,0,0,-1.00002,18.102044,56.45289)" stroke-width=".19925" stroke-linecap="butt" stroke-miterlimit="10" stroke-linejoin="miter" fill="none" stroke="#cbcbcb" d="M-14.17339 5.6684H70.867"/>
<path transform="matrix(1.00006,0,0,-1.00002,18.102044,56.45289)" stroke-width=".19925" stroke-linecap="butt" stroke-miterlimit="10" stroke-linejoin="miter" fill="none" stroke="#cbcbcb" d="M-14.17339 11.33768H70.867"/>
<path transform="matrix(1.00006,0,0,-1.00002,18.102044,56.45289)" stroke-width=".19925" stroke-linecap="butt" stroke-miterlimit="10" stroke-linejoin="miter" fill="none" stroke="#cbcbcb" d="M-14.17339 17.00694H70.867"/>
<path transform="matrix(1.00006,0,0,-1.00002,18.102044,56.45289)" stroke-width=".19925" stroke-linecap="butt" stroke-miterlimit="10" stroke-linejoin="miter" fill="none" stroke="#cbcbcb" d="M-14.17339 22.67622H70.867"/>
<path transform="matrix(1.00006,0,0,-1.00002,18.102044,56.45289)" stroke-width=".19925" stroke-linecap="butt" stroke-miterlimit="10" stroke-linejoin="miter" fill="none" stroke="#cbcbcb" d="M-14.17339 28.34549H70.867"/>
<path transform="matrix(1.00006,0,0,-1.00002,18.102044,56.45289)" stroke-width=".19925" stroke-linecap="butt" stroke-miterlimit="10" stroke-linejoin="miter" fill="none" stroke="#cbcbcb" d="M-14.17339 34.01477H70.867"/>
<path transform="matrix(1.00006,0,0,-1.00002,18.102044,56.45289)" stroke-width=".19925" stroke-linecap="butt" stroke-miterlimit="10" stroke-linejoin="miter" fill="none" stroke="#cbcbcb" d="M-14.17339 39.68404H70.867"/>
<path transform="matrix(1.00006,0,0,-1.00002,18.102044,56.45289)" stroke-width=".19925" stroke-linecap="butt" stroke-miterlimit="10" stroke-linejoin="miter" fill="none" stroke="#cbcbcb" d="M-14.17339 45.35332H70.867"/>
<path transform="matrix(1.00006,0,0,-1.00002,18.102044,56.45289)" stroke-width=".3985" stroke-linecap="butt" stroke-miterlimit="10" stroke-linejoin="miter" fill="none" stroke="#000000" d="M-17.00824 0H84.64192"/>
<path transform="matrix(1.00006,0,0,-1.00002,102.9483,56.45289)" stroke-width=".3985" stroke-linecap="round" stroke-linejoin="round" fill="none" stroke="#000000" d="M-2.07224 2.39104C-1.69365 .95639-.84999 .27895 0 0-.84999-.27895-1.69365-.95639-2.07224-2.39104"/>
<use data-text="t" xlink:href="#font_1_1" transform="matrix(10.037002,0,0,-10.036601,99.088909,66.03708)"/>
<path transform="matrix(1.00006,0,0,-1.00002,18.102044,56.45289)" stroke-width=".3985" stroke-linecap="butt" stroke-miterlimit="10" stroke-linejoin="miter" fill="none" stroke="#000000" d="M0-48.18991V53.46068"/>
<path transform="matrix(0,-1.00002,-1.00006,-0,18.102044,2.791874)" stroke-width=".3985" stroke-linecap="round" stroke-linejoin="round" fill="none" stroke="#000000" d="M-2.07224 2.39104C-1.69365 .95639-.84999 .27895 0 0-.84999-.27895-1.69365-.95639-2.07224-2.39104"/>
<use data-text="y" xlink:href="#font_1_2" transform="matrix(10.037002,0,0,-10.036601,9.083504,5.761875)"/>
<path transform="matrix(1.00006,0,0,-1.00002,18.102044,56.45289)" stroke-width=".79701" stroke-linecap="butt" stroke-miterlimit="10" stroke-linejoin="miter" fill="none" stroke="#9999ff" d="M-14.17339-45.35506-13.18326-41.39975"/>
<path transform="matrix(.24284455,-.9700694,-.97010818,-.24283485,4.6496069,98.925647)" d="M1.70563 0 2.05464-.13252 .98071 0 2.05464 .13252Z" fill="#9999ff"/>
<path transform="matrix(1.00006,0,0,-1.00002,18.102044,56.45289)" stroke-width=".79701" stroke-linecap="butt" stroke-miterlimit="10" stroke-linejoin="miter" fill="none" stroke="#9999ff" d="M-14.17339-39.68578-12.26283-36.08597"/>
<path transform="matrix(.4688081,-.8833077,-.883343,-.4687894,5.3203365,93.51586)" d="M1.70563 0 2.05464-.13252 .98071 0 2.05464 .13252Z" fill="#9999ff"/>
<path transform="matrix(1.00006,0,0,-1.00002,18.102044,56.45289)" stroke-width=".79701" stroke-linecap="butt" stroke-miterlimit="10" stroke-linejoin="miter" fill="none" stroke="#9999ff" d="M-14.17339-34.0165-10.73088-31.83794"/>
<path transform="matrix(.84502068,-.5347507,-.53477206,-.8449869,6.4365446,88.88249)" d="M1.70563 0 2.05464-.13252 .98071 0 2.05464 .13252Z" fill="#9999ff"/>
<path transform="matrix(1.00006,0,0,-1.00002,18.102044,56.45289)" stroke-width=".79701" stroke-linecap="butt" stroke-miterlimit="10" stroke-linejoin="miter" fill="none" stroke="#9999ff" d="M-14.17339-28.34723H-10.09589"/>
<path transform="matrix(1.00006,0,0,-1.00002,6.9002315,84.80069)" d="M1.70563 0 2.05464-.13252 .98071 0 2.05464 .13252Z" fill="#9999ff"/>
<path transform="matrix(1.00006,0,0,-1.00002,18.102044,56.45289)" stroke-width=".79701" stroke-linecap="butt" stroke-miterlimit="10" stroke-linejoin="miter" fill="none" stroke="#9999ff" d="M-14.17339-22.67795-10.20074-23.593"/>
<path transform="matrix(.9745184,.2244645,.22447346,-.9744795,6.8236076,79.79828)" d="M1.70563 0 2.05464-.13252 .98071 0 2.05464 .13252Z" fill="#9999ff"/>
<path transform="matrix(1.00006,0,0,-1.00002,18.102044,56.45289)" stroke-width=".79701" stroke-linecap="butt" stroke-miterlimit="10" stroke-linejoin="miter" fill="none" stroke="#9999ff" d="M-14.17339-17.00868-10.20074-17.92374"/>
<path transform="matrix(.9745184,.2244645,.22447346,-.9744795,6.8236076,74.12891)" d="M1.70563 0 2.05464-.13252 .98071 0 2.05464 .13252Z" fill="#9999ff"/>
<path transform="matrix(1.00006,0,0,-1.00002,18.102044,56.45289)" stroke-width=".79701" stroke-linecap="butt" stroke-miterlimit="10" stroke-linejoin="miter" fill="none" stroke="#9999ff" d="M-14.17339-11.3394-10.13364-11.88246"/>
<path transform="matrix(.9910894,.13320267,.13320799,-.9910498,6.87241,68.188388)" d="M1.70563 0 2.05464-.13252 .98071 0 2.05464 .13252Z" fill="#9999ff"/>
<path transform="matrix(1.00006,0,0,-1.00002,18.102044,56.45289)" stroke-width=".79701" stroke-linecap="butt" stroke-miterlimit="10" stroke-linejoin="miter" fill="none" stroke="#9999ff" d="M-14.17339-5.67014-10.10463-5.82611"/>
<path transform="matrix(.9992799,.038270769,.038272297,-.99924007,6.8923609,62.236818)" d="M1.70563 0 2.05464-.13252 .98071 0 2.05464 .13252Z" fill="#9999ff"/>
<path transform="matrix(1.00006,0,0,-1.00002,18.102044,56.45289)" stroke-width=".79701" stroke-linecap="butt" stroke-miterlimit="10" stroke-linejoin="miter" fill="none" stroke="#9999ff" d="M-14.17339-.00084H-10.09589"/>
<path transform="matrix(1.00006,0,0,-1.00002,6.9002315,56.453729)" d="M1.70563 0 2.05464-.13252 .98071 0 2.05464 .13252Z" fill="#9999ff"/>
<path transform="matrix(1.00006,0,0,-1.00002,18.102044,56.45289)" stroke-width=".79701" stroke-linecap="butt" stroke-miterlimit="10" stroke-linejoin="miter" fill="none" stroke="#9999ff" d="M-14.17339 5.6684-10.10463 5.8226"/>
<path transform="matrix(.9992999,-.037830756,-.037832269,-.99926,6.8923408,50.671976)" d="M1.70563 0 2.05464-.13252 .98071 0 2.05464 .13252Z" fill="#9999ff"/>
<path transform="matrix(1.00006,0,0,-1.00002,18.102044,56.45289)" stroke-width=".79701" stroke-linecap="butt" stroke-miterlimit="10" stroke-linejoin="miter" fill="none" stroke="#9999ff" d="M-14.17339 11.33768-10.13362 11.8794"/>
<path transform="matrix(.9911294,-.13287267,-.13287798,-.9910898,6.87237,44.720117)" d="M1.70563 0 2.05464-.13252 .98071 0 2.05464 .13252Z" fill="#9999ff"/>
<path transform="matrix(1.00006,0,0,-1.00002,18.102044,56.45289)" stroke-width=".79701" stroke-linecap="butt" stroke-miterlimit="10" stroke-linejoin="miter" fill="none" stroke="#9999ff" d="M-14.17339 17.00694-10.20071 17.91844"/>
<path transform="matrix(.9746784,-.22365448,-.2236634,-.9746395,6.823447,38.781274)" d="M1.70563 0 2.05464-.13252 .98071 0 2.05464 .13252Z" fill="#9999ff"/>
<path transform="matrix(1.00006,0,0,-1.00002,18.102044,56.45289)" stroke-width=".79701" stroke-linecap="butt" stroke-miterlimit="10" stroke-linejoin="miter" fill="none" stroke="#9999ff" d="M-14.17339 22.67622-10.20073 23.59082"/>
<path transform="matrix(.9745484,-.22433448,-.22434345,-.9745095,6.823577,33.109544)" d="M1.70563 0 2.05464-.13252 .98071 0 2.05464 .13252Z" fill="#9999ff"/>
<path transform="matrix(1.00006,0,0,-1.00002,18.102044,56.45289)" stroke-width=".79701" stroke-linecap="butt" stroke-miterlimit="10" stroke-linejoin="miter" fill="none" stroke="#9999ff" d="M-14.17339 28.34549H-10.09589"/>
<path transform="matrix(1.00006,0,0,-1.00002,6.9002315,28.10683)" d="M1.70563 0 2.05464-.13252 .98071 0 2.05464 .13252Z" fill="#9999ff"/>
<path transform="matrix(1.00006,0,0,-1.00002,18.102044,56.45289)" stroke-width=".79701" stroke-linecap="butt" stroke-miterlimit="10" stroke-linejoin="miter" fill="none" stroke="#9999ff" d="M-14.17339 34.01477-10.73091 31.83356"/>
<path transform="matrix(.84472069,.5352107,.53523209,-.8446869,6.4368546,24.02716)" d="M1.70563 0 2.05464-.13252 .98071 0 2.05464 .13252Z" fill="#9999ff"/>
<path transform="matrix(1.00006,0,0,-1.00002,18.102044,56.45289)" stroke-width=".79701" stroke-linecap="butt" stroke-miterlimit="10" stroke-linejoin="miter" fill="none" stroke="#9999ff" d="M-14.17339 39.68404-12.25975 36.08383"/>
<path transform="matrix(.46937815,.8830177,.88305297,-.4693594,5.3227875,19.392376)" d="M1.70563 0 2.05464-.13252 .98071 0 2.05464 .13252Z" fill="#9999ff"/>
<path transform="matrix(1.00006,0,0,-1.00002,18.102044,56.45289)" stroke-width=".79701" stroke-linecap="butt" stroke-miterlimit="10" stroke-linejoin="miter" fill="none" stroke="#9999ff" d="M-14.17339 45.35332-13.1828 41.39803"/>
<path transform="matrix(.24295457,.9700394,.9700782,-.24294487,4.6499369,13.981899)" d="M1.70563 0 2.05464-.13252 .98071 0 2.05464 .13252Z" fill="#9999ff"/>
<path transform="matrix(1.00006,0,0,-1.00002,18.102044,56.45289)" stroke-width=".79701" stroke-linecap="butt" stroke-miterlimit="10" stroke-linejoin="miter" fill="none" stroke="#9999ff" d="M-7.08669-45.35506-6.09654-41.39975"/>
<path transform="matrix(.24284455,-.9700694,-.97010818,-.24283485,11.736732,98.925647)" d="M1.70563 0 2.05464-.13252 .98071 0 2.05464 .13252Z" fill="#9999ff"/>
<path transform="matrix(1.00006,0,0,-1.00002,18.102044,56.45289)" stroke-width=".79701" stroke-linecap="butt" stroke-miterlimit="10" stroke-linejoin="miter" fill="none" stroke="#9999ff" d="M-7.08669-39.68578-5.17613-36.08597"/>
<path transform="matrix(.4688081,-.8833077,-.883343,-.4687894,12.407461,93.51586)" d="M1.70563 0 2.05464-.13252 .98071 0 2.05464 .13252Z" fill="#9999ff"/>
<path transform="matrix(1.00006,0,0,-1.00002,18.102044,56.45289)" stroke-width=".79701" stroke-linecap="butt" stroke-miterlimit="10" stroke-linejoin="miter" fill="none" stroke="#9999ff" d="M-7.08669-34.0165-3.64418-31.83794"/>
<path transform="matrix(.84502068,-.5347507,-.53477206,-.8449869,13.523688,88.88249)" d="M1.70563 0 2.05464-.13252 .98071 0 2.05464 .13252Z" fill="#9999ff"/>
<path transform="matrix(1.00006,0,0,-1.00002,18.102044,56.45289)" stroke-width=".79701" stroke-linecap="butt" stroke-miterlimit="10" stroke-linejoin="miter" fill="none" stroke="#9999ff" d="M-7.08669-28.34723H-3.00919"/>
<path transform="matrix(1.00006,0,0,-1.00002,13.987356,84.80069)" d="M1.70563 0 2.05464-.13252 .98071 0 2.05464 .13252Z" fill="#9999ff"/>
<path transform="matrix(1.00006,0,0,-1.00002,18.102044,56.45289)" stroke-width=".79701" stroke-linecap="butt" stroke-miterlimit="10" stroke-linejoin="miter" fill="none" stroke="#9999ff" d="M-7.08669-22.67795-3.11404-23.593"/>
<path transform="matrix(.9745184,.2244645,.22447346,-.9744795,13.910732,79.79828)" d="M1.70563 0 2.05464-.13252 .98071 0 2.05464 .13252Z" fill="#9999ff"/>
<path transform="matrix(1.00006,0,0,-1.00002,18.102044,56.45289)" stroke-width=".79701" stroke-linecap="butt" stroke-miterlimit="10" stroke-linejoin="miter" fill="none" stroke="#9999ff" d="M-7.08669-17.00868-3.11404-17.92374"/>
<path transform="matrix(.9745184,.2244645,.22447346,-.9744795,13.910732,74.12891)" d="M1.70563 0 2.05464-.13252 .98071 0 2.05464 .13252Z" fill="#9999ff"/>
<path transform="matrix(1.00006,0,0,-1.00002,18.102044,56.45289)" stroke-width=".79701" stroke-linecap="butt" stroke-miterlimit="10" stroke-linejoin="miter" fill="none" stroke="#9999ff" d="M-7.08669-11.3394-3.04692-11.88246"/>
<path transform="matrix(.9910894,.13320267,.13320799,-.9910498,13.959535,68.188388)" d="M1.70563 0 2.05464-.13252 .98071 0 2.05464 .13252Z" fill="#9999ff"/>
<path transform="matrix(1.00006,0,0,-1.00002,18.102044,56.45289)" stroke-width=".79701" stroke-linecap="butt" stroke-miterlimit="10" stroke-linejoin="miter" fill="none" stroke="#9999ff" d="M-7.08669-5.67014-3.01791-5.82611"/>
<path transform="matrix(.9992799,.038270769,.038272297,-.99924007,13.979486,62.236818)" d="M1.70563 0 2.05464-.13252 .98071 0 2.05464 .13252Z" fill="#9999ff"/>
<path transform="matrix(1.00006,0,0,-1.00002,18.102044,56.45289)" stroke-width=".79701" stroke-linecap="butt" stroke-miterlimit="10" stroke-linejoin="miter" fill="none" stroke="#9999ff" d="M-7.08669-.00084H-3.00919"/>
<path transform="matrix(1.00006,0,0,-1.00002,13.987356,56.453729)" d="M1.70563 0 2.05464-.13252 .98071 0 2.05464 .13252Z" fill="#9999ff"/>
<path transform="matrix(1.00006,0,0,-1.00002,18.102044,56.45289)" stroke-width=".79701" stroke-linecap="butt" stroke-miterlimit="10" stroke-linejoin="miter" fill="none" stroke="#9999ff" d="M-7.08669 5.6684-3.01791 5.8226"/>
<path transform="matrix(.9992999,-.037830756,-.037832269,-.99926,13.9794659,50.671976)" d="M1.70563 0 2.05464-.13252 .98071 0 2.05464 .13252Z" fill="#9999ff"/>
<path transform="matrix(1.00006,0,0,-1.00002,18.102044,56.45289)" stroke-width=".79701" stroke-linecap="butt" stroke-miterlimit="10" stroke-linejoin="miter" fill="none" stroke="#9999ff" d="M-7.08669 11.33768-3.0469 11.8794"/>
<path transform="matrix(.9911294,-.13287267,-.13287798,-.9910898,13.959495,44.720117)" d="M1.70563 0 2.05464-.13252 .98071 0 2.05464 .13252Z" fill="#9999ff"/>
<path transform="matrix(1.00006,0,0,-1.00002,18.102044,56.45289)" stroke-width=".79701" stroke-linecap="butt" stroke-miterlimit="10" stroke-linejoin="miter" fill="none" stroke="#9999ff" d="M-7.08669 17.00694-3.11401 17.91844"/>
<path transform="matrix(.9746784,-.22365448,-.2236634,-.9746395,13.910572,38.781274)" d="M1.70563 0 2.05464-.13252 .98071 0 2.05464 .13252Z" fill="#9999ff"/>
<path transform="matrix(1.00006,0,0,-1.00002,18.102044,56.45289)" stroke-width=".79701" stroke-linecap="butt" stroke-miterlimit="10" stroke-linejoin="miter" fill="none" stroke="#9999ff" d="M-7.08669 22.67622-3.11403 23.59082"/>
<path transform="matrix(.9745484,-.22433448,-.22434345,-.9745095,13.910702,33.109544)" d="M1.70563 0 2.05464-.13252 .98071 0 2.05464 .13252Z" fill="#9999ff"/>
<path transform="matrix(1.00006,0,0,-1.00002,18.102044,56.45289)" stroke-width=".79701" stroke-linecap="butt" stroke-miterlimit="10" stroke-linejoin="miter" fill="none" stroke="#9999ff" d="M-7.08669 28.34549H-3.00919"/>
<path transform="matrix(1.00006,0,0,-1.00002,13.987356,28.10683)" d="M1.70563 0 2.05464-.13252 .98071 0 2.05464 .13252Z" fill="#9999ff"/>
<path transform="matrix(1.00006,0,0,-1.00002,18.102044,56.45289)" stroke-width=".79701" stroke-linecap="butt" stroke-miterlimit="10" stroke-linejoin="miter" fill="none" stroke="#9999ff" d="M-7.08669 34.01477-3.64421 31.83356"/>
<path transform="matrix(.84472069,.5352107,.53523209,-.8446869,13.523998,24.02716)" d="M1.70563 0 2.05464-.13252 .98071 0 2.05464 .13252Z" fill="#9999ff"/>
<path transform="matrix(1.00006,0,0,-1.00002,18.102044,56.45289)" stroke-width=".79701" stroke-linecap="butt" stroke-miterlimit="10" stroke-linejoin="miter" fill="none" stroke="#9999ff" d="M-7.08669 39.68404-5.17305 36.08383"/>
<path transform="matrix(.46937815,.8830177,.88305297,-.4693594,12.409912,19.392376)" d="M1.70563 0 2.05464-.13252 .98071 0 2.05464 .13252Z" fill="#9999ff"/>
<path transform="matrix(1.00006,0,0,-1.00002,18.102044,56.45289)" stroke-width=".79701" stroke-linecap="butt" stroke-miterlimit="10" stroke-linejoin="miter" fill="none" stroke="#9999ff" d="M-7.08669 45.35332-6.09608 41.39803"/>
<path transform="matrix(.24295457,.9700394,.9700782,-.24294487,11.7370619,13.981899)" d="M1.70563 0 2.05464-.13252 .98071 0 2.05464 .13252Z" fill="#9999ff"/>
<path transform="matrix(1.00006,0,0,-1.00002,18.102044,56.45289)" stroke-width=".79701" stroke-linecap="butt" stroke-miterlimit="10" stroke-linejoin="miter" fill="none" stroke="#9999ff" d="M0-45.35506 .99013-41.39975"/>
<path transform="matrix(.24284455,-.9700694,-.97010818,-.24283485,18.823847,98.925647)" d="M1.70563 0 2.05464-.13252 .98071 0 2.05464 .13252Z" fill="#9999ff"/>
<path transform="matrix(1.00006,0,0,-1.00002,18.102044,56.45289)" stroke-width=".79701" stroke-linecap="butt" stroke-miterlimit="10" stroke-linejoin="miter" fill="none" stroke="#9999ff" d="M0-39.68578 1.91055-36.08597"/>
<path transform="matrix(.4688081,-.8833077,-.883343,-.4687894,19.494557,93.51586)" d="M1.70563 0 2.05464-.13252 .98071 0 2.05464 .13252Z" fill="#9999ff"/>
<path transform="matrix(1.00006,0,0,-1.00002,18.102044,56.45289)" stroke-width=".79701" stroke-linecap="butt" stroke-miterlimit="10" stroke-linejoin="miter" fill="none" stroke="#9999ff" d="M0-34.0165 3.44249-31.83794"/>
<path transform="matrix(.84502068,-.5347507,-.53477206,-.8449869,20.610783,88.88249)" d="M1.70563 0 2.05464-.13252 .98071 0 2.05464 .13252Z" fill="#9999ff"/>
<path transform="matrix(1.00006,0,0,-1.00002,18.102044,56.45289)" stroke-width=".79701" stroke-linecap="butt" stroke-miterlimit="10" stroke-linejoin="miter" fill="none" stroke="#9999ff" d="M0-28.34723H4.0775"/>
<path transform="matrix(1.00006,0,0,-1.00002,21.074461,84.80069)" d="M1.70563 0 2.05464-.13252 .98071 0 2.05464 .13252Z" fill="#9999ff"/>
<path transform="matrix(1.00006,0,0,-1.00002,18.102044,56.45289)" stroke-width=".79701" stroke-linecap="butt" stroke-miterlimit="10" stroke-linejoin="miter" fill="none" stroke="#9999ff" d="M0-22.67795 3.97264-23.593"/>
<path transform="matrix(.9745184,.2244645,.22447346,-.9744795,20.997828,79.79828)" d="M1.70563 0 2.05464-.13252 .98071 0 2.05464 .13252Z" fill="#9999ff"/>
<path transform="matrix(1.00006,0,0,-1.00002,18.102044,56.45289)" stroke-width=".79701" stroke-linecap="butt" stroke-miterlimit="10" stroke-linejoin="miter" fill="none" stroke="#9999ff" d="M0-17.00868 3.97264-17.92374"/>
<path transform="matrix(.9745184,.2244645,.22447346,-.9744795,20.997828,74.12891)" d="M1.70563 0 2.05464-.13252 .98071 0 2.05464 .13252Z" fill="#9999ff"/>
<path transform="matrix(1.00006,0,0,-1.00002,18.102044,56.45289)" stroke-width=".79701" stroke-linecap="butt" stroke-miterlimit="10" stroke-linejoin="miter" fill="none" stroke="#9999ff" d="M0-11.3394 4.03975-11.88246"/>
<path transform="matrix(.9910894,.13320267,.13320799,-.9910498,21.04663,68.188388)" d="M1.70563 0 2.05464-.13252 .98071 0 2.05464 .13252Z" fill="#9999ff"/>
<path transform="matrix(1.00006,0,0,-1.00002,18.102044,56.45289)" stroke-width=".79701" stroke-linecap="butt" stroke-miterlimit="10" stroke-linejoin="miter" fill="none" stroke="#9999ff" d="M0-5.67014 4.06876-5.82611"/>
<path transform="matrix(.9992799,.038270769,.038272297,-.99924007,21.066582,62.236818)" d="M1.70563 0 2.05464-.13252 .98071 0 2.05464 .13252Z" fill="#9999ff"/>
<path transform="matrix(1.00006,0,0,-1.00002,18.102044,56.45289)" stroke-width=".79701" stroke-linecap="butt" stroke-miterlimit="10" stroke-linejoin="miter" fill="none" stroke="#9999ff" d="M0-.00084H4.0775"/>
<path transform="matrix(1.00006,0,0,-1.00002,21.074461,56.453729)" d="M1.70563 0 2.05464-.13252 .98071 0 2.05464 .13252Z" fill="#9999ff"/>
<path transform="matrix(1.00006,0,0,-1.00002,18.102044,56.45289)" stroke-width=".79701" stroke-linecap="butt" stroke-miterlimit="10" stroke-linejoin="miter" fill="none" stroke="#9999ff" d="M0 5.6684 4.06876 5.8226"/>
<path transform="matrix(.9992999,-.037830756,-.037832269,-.99926,21.06656,50.671976)" d="M1.70563 0 2.05464-.13252 .98071 0 2.05464 .13252Z" fill="#9999ff"/>
<path transform="matrix(1.00006,0,0,-1.00002,18.102044,56.45289)" stroke-width=".79701" stroke-linecap="butt" stroke-miterlimit="10" stroke-linejoin="miter" fill="none" stroke="#9999ff" d="M0 11.33768 4.03976 11.8794"/>
<path transform="matrix(.9911294,-.13287267,-.13287798,-.9910898,21.046589,44.720117)" d="M1.70563 0 2.05464-.13252 .98071 0 2.05464 .13252Z" fill="#9999ff"/>
<path transform="matrix(1.00006,0,0,-1.00002,18.102044,56.45289)" stroke-width=".79701" stroke-linecap="butt" stroke-miterlimit="10" stroke-linejoin="miter" fill="none" stroke="#9999ff" d="M0 17.00694 3.97267 17.91844"/>
<path transform="matrix(.9746784,-.22365448,-.2236634,-.9746395,20.997668,38.781274)" d="M1.70563 0 2.05464-.13252 .98071 0 2.05464 .13252Z" fill="#9999ff"/>
<path transform="matrix(1.00006,0,0,-1.00002,18.102044,56.45289)" stroke-width=".79701" stroke-linecap="butt" stroke-miterlimit="10" stroke-linejoin="miter" fill="none" stroke="#9999ff" d="M0 22.67622 3.97266 23.59082"/>
<path transform="matrix(.9745484,-.22433448,-.22434345,-.9745095,20.997797,33.109544)" d="M1.70563 0 2.05464-.13252 .98071 0 2.05464 .13252Z" fill="#9999ff"/>
<path transform="matrix(1.00006,0,0,-1.00002,18.102044,56.45289)" stroke-width=".79701" stroke-linecap="butt" stroke-miterlimit="10" stroke-linejoin="miter" fill="none" stroke="#9999ff" d="M0 28.34549H4.0775"/>
<path transform="matrix(1.00006,0,0,-1.00002,21.074461,28.10683)" d="M1.70563 0 2.05464-.13252 .98071 0 2.05464 .13252Z" fill="#9999ff"/>
<path transform="matrix(1.00006,0,0,-1.00002,18.102044,56.45289)" stroke-width=".79701" stroke-linecap="butt" stroke-miterlimit="10" stroke-linejoin="miter" fill="none" stroke="#9999ff" d="M0 34.01477 3.44246 31.83356"/>
<path transform="matrix(.84472069,.5352107,.53523209,-.8446869,20.611094,24.02716)" d="M1.70563 0 2.05464-.13252 .98071 0 2.05464 .13252Z" fill="#9999ff"/>
<path transform="matrix(1.00006,0,0,-1.00002,18.102044,56.45289)" stroke-width=".79701" stroke-linecap="butt" stroke-miterlimit="10" stroke-linejoin="miter" fill="none" stroke="#9999ff" d="M0 39.68404 1.91364 36.08383"/>
<path transform="matrix(.46937815,.8830177,.88305297,-.4693594,19.497027,19.392376)" d="M1.70563 0 2.05464-.13252 .98071 0 2.05464 .13252Z" fill="#9999ff"/>
<path transform="matrix(1.00006,0,0,-1.00002,18.102044,56.45289)" stroke-width=".79701" stroke-linecap="butt" stroke-miterlimit="10" stroke-linejoin="miter" fill="none" stroke="#9999ff" d="M0 45.35332 .99059 41.39803"/>
<path transform="matrix(.24295457,.9700394,.9700782,-.24294487,18.824177,13.981899)" d="M1.70563 0 2.05464-.13252 .98071 0 2.05464 .13252Z" fill="#9999ff"/>
<path transform="matrix(1.00006,0,0,-1.00002,18.102044,56.45289)" stroke-width=".79701" stroke-linecap="butt" stroke-miterlimit="10" stroke-linejoin="miter" fill="none" stroke="#9999ff" d="M7.08669-45.35506 8.07681-41.39975"/>
<path transform="matrix(.24284455,-.9700694,-.97010818,-.24283485,25.910952,98.925647)" d="M1.70563 0 2.05464-.13252 .98071 0 2.05464 .13252Z" fill="#9999ff"/>
<path transform="matrix(1.00006,0,0,-1.00002,18.102044,56.45289)" stroke-width=".79701" stroke-linecap="butt" stroke-miterlimit="10" stroke-linejoin="miter" fill="none" stroke="#9999ff" d="M7.08669-39.68578 8.99724-36.08597"/>
<path transform="matrix(.4688081,-.8833077,-.883343,-.4687894,26.58168,93.51586)" d="M1.70563 0 2.05464-.13252 .98071 0 2.05464 .13252Z" fill="#9999ff"/>
<path transform="matrix(1.00006,0,0,-1.00002,18.102044,56.45289)" stroke-width=".79701" stroke-linecap="butt" stroke-miterlimit="10" stroke-linejoin="miter" fill="none" stroke="#9999ff" d="M7.08669-34.0165 10.52919-31.83794"/>
<path transform="matrix(.84502068,-.5347507,-.53477206,-.8449869,27.697899,88.88249)" d="M1.70563 0 2.05464-.13252 .98071 0 2.05464 .13252Z" fill="#9999ff"/>
<path transform="matrix(1.00006,0,0,-1.00002,18.102044,56.45289)" stroke-width=".79701" stroke-linecap="butt" stroke-miterlimit="10" stroke-linejoin="miter" fill="none" stroke="#9999ff" d="M7.08669-28.34723H11.16418"/>
<path transform="matrix(1.00006,0,0,-1.00002,28.161576,84.80069)" d="M1.70563 0 2.05464-.13252 .98071 0 2.05464 .13252Z" fill="#9999ff"/>
<path transform="matrix(1.00006,0,0,-1.00002,18.102044,56.45289)" stroke-width=".79701" stroke-linecap="butt" stroke-miterlimit="10" stroke-linejoin="miter" fill="none" stroke="#9999ff" d="M7.08669-22.67795 11.05933-23.593"/>
<path transform="matrix(.9745184,.2244645,.22447346,-.9744795,28.08496,79.79828)" d="M1.70563 0 2.05464-.13252 .98071 0 2.05464 .13252Z" fill="#9999ff"/>
<path transform="matrix(1.00006,0,0,-1.00002,18.102044,56.45289)" stroke-width=".79701" stroke-linecap="butt" stroke-miterlimit="10" stroke-linejoin="miter" fill="none" stroke="#9999ff" d="M7.08669-17.00868 11.05933-17.92374"/>
<path transform="matrix(.9745184,.2244645,.22447346,-.9744795,28.08496,74.12891)" d="M1.70563 0 2.05464-.13252 .98071 0 2.05464 .13252Z" fill="#9999ff"/>
<path transform="matrix(1.00006,0,0,-1.00002,18.102044,56.45289)" stroke-width=".79701" stroke-linecap="butt" stroke-miterlimit="10" stroke-linejoin="miter" fill="none" stroke="#9999ff" d="M7.08669-11.3394 11.12645-11.88246"/>
<path transform="matrix(.9910894,.13320267,.13320799,-.9910498,28.133755,68.188388)" d="M1.70563 0 2.05464-.13252 .98071 0 2.05464 .13252Z" fill="#9999ff"/>
<path transform="matrix(1.00006,0,0,-1.00002,18.102044,56.45289)" stroke-width=".79701" stroke-linecap="butt" stroke-miterlimit="10" stroke-linejoin="miter" fill="none" stroke="#9999ff" d="M7.08669-5.67014 11.15544-5.82611"/>
<path transform="matrix(.9992799,.038270769,.038272297,-.99924007,28.153706,62.236818)" d="M1.70563 0 2.05464-.13252 .98071 0 2.05464 .13252Z" fill="#9999ff"/>
<path transform="matrix(1.00006,0,0,-1.00002,18.102044,56.45289)" stroke-width=".79701" stroke-linecap="butt" stroke-miterlimit="10" stroke-linejoin="miter" fill="none" stroke="#9999ff" d="M7.08669-.00084H11.16418"/>
<path transform="matrix(1.00006,0,0,-1.00002,28.161576,56.453729)" d="M1.70563 0 2.05464-.13252 .98071 0 2.05464 .13252Z" fill="#9999ff"/>
<path transform="matrix(1.00006,0,0,-1.00002,18.102044,56.45289)" stroke-width=".79701" stroke-linecap="butt" stroke-miterlimit="10" stroke-linejoin="miter" fill="none" stroke="#9999ff" d="M7.08669 5.6684 11.15544 5.8226"/>
<path transform="matrix(.9992999,-.037830756,-.037832269,-.99926,28.153687,50.671976)" d="M1.70563 0 2.05464-.13252 .98071 0 2.05464 .13252Z" fill="#9999ff"/>
<path transform="matrix(1.00006,0,0,-1.00002,18.102044,56.45289)" stroke-width=".79701" stroke-linecap="butt" stroke-miterlimit="10" stroke-linejoin="miter" fill="none" stroke="#9999ff" d="M7.08669 11.33768 11.12645 11.8794"/>
<path transform="matrix(.9911294,-.13287267,-.13287798,-.9910898,28.133715,44.720117)" d="M1.70563 0 2.05464-.13252 .98071 0 2.05464 .13252Z" fill="#9999ff"/>
<path transform="matrix(1.00006,0,0,-1.00002,18.102044,56.45289)" stroke-width=".79701" stroke-linecap="butt" stroke-miterlimit="10" stroke-linejoin="miter" fill="none" stroke="#9999ff" d="M7.08669 17.00694 11.05936 17.91844"/>
<path transform="matrix(.9746784,-.22365448,-.2236634,-.9746395,28.084794,38.781274)" d="M1.70563 0 2.05464-.13252 .98071 0 2.05464 .13252Z" fill="#9999ff"/>
<path transform="matrix(1.00006,0,0,-1.00002,18.102044,56.45289)" stroke-width=".79701" stroke-linecap="butt" stroke-miterlimit="10" stroke-linejoin="miter" fill="none" stroke="#9999ff" d="M7.08669 22.67622 11.05934 23.59082"/>
<path transform="matrix(.9745484,-.22433448,-.22434345,-.9745095,28.084923,33.109544)" d="M1.70563 0 2.05464-.13252 .98071 0 2.05464 .13252Z" fill="#9999ff"/>
<path transform="matrix(1.00006,0,0,-1.00002,18.102044,56.45289)" stroke-width=".79701" stroke-linecap="butt" stroke-miterlimit="10" stroke-linejoin="miter" fill="none" stroke="#9999ff" d="M7.08669 28.34549H11.16418"/>
<path transform="matrix(1.00006,0,0,-1.00002,28.161576,28.10683)" d="M1.70563 0 2.05464-.13252 .98071 0 2.05464 .13252Z" fill="#9999ff"/>
<path transform="matrix(1.00006,0,0,-1.00002,18.102044,56.45289)" stroke-width=".79701" stroke-linecap="butt" stroke-miterlimit="10" stroke-linejoin="miter" fill="none" stroke="#9999ff" d="M7.08669 34.01477 10.52916 31.83356"/>
<path transform="matrix(.84472069,.5352107,.53523209,-.8446869,27.698199,24.02716)" d="M1.70563 0 2.05464-.13252 .98071 0 2.05464 .13252Z" fill="#9999ff"/>
<path transform="matrix(1.00006,0,0,-1.00002,18.102044,56.45289)" stroke-width=".79701" stroke-linecap="butt" stroke-miterlimit="10" stroke-linejoin="miter" fill="none" stroke="#9999ff" d="M7.08669 39.68404 9.00032 36.08383"/>
<path transform="matrix(.46937815,.8830177,.88305297,-.4693594,26.584132,19.392376)" d="M1.70563 0 2.05464-.13252 .98071 0 2.05464 .13252Z" fill="#9999ff"/>
<path transform="matrix(1.00006,0,0,-1.00002,18.102044,56.45289)" stroke-width=".79701" stroke-linecap="butt" stroke-miterlimit="10" stroke-linejoin="miter" fill="none" stroke="#9999ff" d="M7.08669 45.35332 8.07727 41.39803"/>
<path transform="matrix(.24295457,.9700394,.9700782,-.24294487,25.911292,13.981899)" d="M1.70563 0 2.05464-.13252 .98071 0 2.05464 .13252Z" fill="#9999ff"/>
<path transform="matrix(1.00006,0,0,-1.00002,18.102044,56.45289)" stroke-width=".79701" stroke-linecap="butt" stroke-miterlimit="10" stroke-linejoin="miter" fill="none" stroke="#9999ff" d="M14.17339-45.35506 15.16353-41.39975"/>
<path transform="matrix(.24284455,-.9700694,-.97010818,-.24283485,32.998079,98.925647)" d="M1.70563 0 2.05464-.13252 .98071 0 2.05464 .13252Z" fill="#9999ff"/>
<path transform="matrix(1.00006,0,0,-1.00002,18.102044,56.45289)" stroke-width=".79701" stroke-linecap="butt" stroke-miterlimit="10" stroke-linejoin="miter" fill="none" stroke="#9999ff" d="M14.17339-39.68578 16.08394-36.08597"/>
<path transform="matrix(.4688081,-.8833077,-.883343,-.4687894,33.668809,93.51586)" d="M1.70563 0 2.05464-.13252 .98071 0 2.05464 .13252Z" fill="#9999ff"/>
<path transform="matrix(1.00006,0,0,-1.00002,18.102044,56.45289)" stroke-width=".79701" stroke-linecap="butt" stroke-miterlimit="10" stroke-linejoin="miter" fill="none" stroke="#9999ff" d="M14.17339-34.0165 17.61589-31.83794"/>
<path transform="matrix(.84502068,-.5347507,-.53477206,-.8449869,34.785036,88.88249)" d="M1.70563 0 2.05464-.13252 .98071 0 2.05464 .13252Z" fill="#9999ff"/>
<path transform="matrix(1.00006,0,0,-1.00002,18.102044,56.45289)" stroke-width=".79701" stroke-linecap="butt" stroke-miterlimit="10" stroke-linejoin="miter" fill="none" stroke="#9999ff" d="M14.17339-28.34723H18.2509"/>
<path transform="matrix(1.00006,0,0,-1.00002,35.248704,84.80069)" d="M1.70563 0 2.05464-.13252 .98071 0 2.05464 .13252Z" fill="#9999ff"/>
<path transform="matrix(1.00006,0,0,-1.00002,18.102044,56.45289)" stroke-width=".79701" stroke-linecap="butt" stroke-miterlimit="10" stroke-linejoin="miter" fill="none" stroke="#9999ff" d="M14.17339-22.67795 18.14603-23.593"/>
<path transform="matrix(.9745184,.2244645,.22447346,-.9744795,35.17209,79.79828)" d="M1.70563 0 2.05464-.13252 .98071 0 2.05464 .13252Z" fill="#9999ff"/>
<path transform="matrix(1.00006,0,0,-1.00002,18.102044,56.45289)" stroke-width=".79701" stroke-linecap="butt" stroke-miterlimit="10" stroke-linejoin="miter" fill="none" stroke="#9999ff" d="M14.17339-17.00868 18.14603-17.92374"/>
<path transform="matrix(.9745184,.2244645,.22447346,-.9744795,35.17209,74.12891)" d="M1.70563 0 2.05464-.13252 .98071 0 2.05464 .13252Z" fill="#9999ff"/>
<path transform="matrix(1.00006,0,0,-1.00002,18.102044,56.45289)" stroke-width=".79701" stroke-linecap="butt" stroke-miterlimit="10" stroke-linejoin="miter" fill="none" stroke="#9999ff" d="M14.17339-11.3394 18.21315-11.88246"/>
<path transform="matrix(.9910894,.13320267,.13320799,-.9910498,35.22088,68.188388)" d="M1.70563 0 2.05464-.13252 .98071 0 2.05464 .13252Z" fill="#9999ff"/>
<path transform="matrix(1.00006,0,0,-1.00002,18.102044,56.45289)" stroke-width=".79701" stroke-linecap="butt" stroke-miterlimit="10" stroke-linejoin="miter" fill="none" stroke="#9999ff" d="M14.17339-5.67014 18.24216-5.82611"/>
<path transform="matrix(.9992799,.038270769,.038272297,-.99924007,35.24083,62.236818)" d="M1.70563 0 2.05464-.13252 .98071 0 2.05464 .13252Z" fill="#9999ff"/>
<path transform="matrix(1.00006,0,0,-1.00002,18.102044,56.45289)" stroke-width=".79701" stroke-linecap="butt" stroke-miterlimit="10" stroke-linejoin="miter" fill="none" stroke="#9999ff" d="M14.17339-.00084H18.2509"/>
<path transform="matrix(1.00006,0,0,-1.00002,35.248704,56.453729)" d="M1.70563 0 2.05464-.13252 .98071 0 2.05464 .13252Z" fill="#9999ff"/>
<path transform="matrix(1.00006,0,0,-1.00002,18.102044,56.45289)" stroke-width=".79701" stroke-linecap="butt" stroke-miterlimit="10" stroke-linejoin="miter" fill="none" stroke="#9999ff" d="M14.17339 5.6684 18.24216 5.8226"/>
<path transform="matrix(.9992999,-.037830756,-.037832269,-.99926,35.24081,50.671976)" d="M1.70563 0 2.05464-.13252 .98071 0 2.05464 .13252Z" fill="#9999ff"/>
<path transform="matrix(1.00006,0,0,-1.00002,18.102044,56.45289)" stroke-width=".79701" stroke-linecap="butt" stroke-miterlimit="10" stroke-linejoin="miter" fill="none" stroke="#9999ff" d="M14.17339 11.33768 18.21317 11.8794"/>
<path transform="matrix(.9911294,-.13287267,-.13287798,-.9910898,35.22084,44.720117)" d="M1.70563 0 2.05464-.13252 .98071 0 2.05464 .13252Z" fill="#9999ff"/>
<path transform="matrix(1.00006,0,0,-1.00002,18.102044,56.45289)" stroke-width=".79701" stroke-linecap="butt" stroke-miterlimit="10" stroke-linejoin="miter" fill="none" stroke="#9999ff" d="M14.17339 17.00694 18.14606 17.91844"/>
<path transform="matrix(.9746784,-.22365448,-.2236634,-.9746395,35.171918,38.781274)" d="M1.70563 0 2.05464-.13252 .98071 0 2.05464 .13252Z" fill="#9999ff"/>
<path transform="matrix(1.00006,0,0,-1.00002,18.102044,56.45289)" stroke-width=".79701" stroke-linecap="butt" stroke-miterlimit="10" stroke-linejoin="miter" fill="none" stroke="#9999ff" d="M14.17339 22.67622 18.14604 23.59082"/>
<path transform="matrix(.9745484,-.22433448,-.22434345,-.9745095,35.172048,33.109544)" d="M1.70563 0 2.05464-.13252 .98071 0 2.05464 .13252Z" fill="#9999ff"/>
<path transform="matrix(1.00006,0,0,-1.00002,18.102044,56.45289)" stroke-width=".79701" stroke-linecap="butt" stroke-miterlimit="10" stroke-linejoin="miter" fill="none" stroke="#9999ff" d="M14.17339 28.34549H18.2509"/>
<path transform="matrix(1.00006,0,0,-1.00002,35.248704,28.10683)" d="M1.70563 0 2.05464-.13252 .98071 0 2.05464 .13252Z" fill="#9999ff"/>
<path transform="matrix(1.00006,0,0,-1.00002,18.102044,56.45289)" stroke-width=".79701" stroke-linecap="butt" stroke-miterlimit="10" stroke-linejoin="miter" fill="none" stroke="#9999ff" d="M14.17339 34.01477 17.61586 31.83356"/>
<path transform="matrix(.84472069,.5352107,.53523209,-.8446869,34.785345,24.02716)" d="M1.70563 0 2.05464-.13252 .98071 0 2.05464 .13252Z" fill="#9999ff"/>
<path transform="matrix(1.00006,0,0,-1.00002,18.102044,56.45289)" stroke-width=".79701" stroke-linecap="butt" stroke-miterlimit="10" stroke-linejoin="miter" fill="none" stroke="#9999ff" d="M14.17339 39.68404 16.08704 36.08383"/>
<path transform="matrix(.46937815,.8830177,.88305297,-.4693594,33.671277,19.392376)" d="M1.70563 0 2.05464-.13252 .98071 0 2.05464 .13252Z" fill="#9999ff"/>
<path transform="matrix(1.00006,0,0,-1.00002,18.102044,56.45289)" stroke-width=".79701" stroke-linecap="butt" stroke-miterlimit="10" stroke-linejoin="miter" fill="none" stroke="#9999ff" d="M14.17339 45.35332 15.16399 41.39803"/>
<path transform="matrix(.24295457,.9700394,.9700782,-.24294487,32.998418,13.981899)" d="M1.70563 0 2.05464-.13252 .98071 0 2.05464 .13252Z" fill="#9999ff"/>
<path transform="matrix(1.00006,0,0,-1.00002,18.102044,56.45289)" stroke-width=".79701" stroke-linecap="butt" stroke-miterlimit="10" stroke-linejoin="miter" fill="none" stroke="#9999ff" d="M21.2601-45.35506 22.25023-41.39975"/>
<path transform="matrix(.24284455,-.9700694,-.97010818,-.24283485,40.08522,98.925647)" d="M1.70563 0 2.05464-.13252 .98071 0 2.05464 .13252Z" fill="#9999ff"/>
<path transform="matrix(1.00006,0,0,-1.00002,18.102044,56.45289)" stroke-width=".79701" stroke-linecap="butt" stroke-miterlimit="10" stroke-linejoin="miter" fill="none" stroke="#9999ff" d="M21.2601-39.68578 23.17065-36.08597"/>
<path transform="matrix(.4688081,-.8833077,-.883343,-.4687894,40.755945,93.51586)" d="M1.70563 0 2.05464-.13252 .98071 0 2.05464 .13252Z" fill="#9999ff"/>
<path transform="matrix(1.00006,0,0,-1.00002,18.102044,56.45289)" stroke-width=".79701" stroke-linecap="butt" stroke-miterlimit="10" stroke-linejoin="miter" fill="none" stroke="#9999ff" d="M21.2601-34.0165 24.7026-31.83794"/>
<path transform="matrix(.84502068,-.5347507,-.53477206,-.8449869,41.872159,88.88249)" d="M1.70563 0 2.05464-.13252 .98071 0 2.05464 .13252Z" fill="#9999ff"/>
<path transform="matrix(1.00006,0,0,-1.00002,18.102044,56.45289)" stroke-width=".79701" stroke-linecap="butt" stroke-miterlimit="10" stroke-linejoin="miter" fill="none" stroke="#9999ff" d="M21.2601-28.34723H25.3376"/>
<path transform="matrix(1.00006,0,0,-1.00002,42.335847,84.80069)" d="M1.70563 0 2.05464-.13252 .98071 0 2.05464 .13252Z" fill="#9999ff"/>
<path transform="matrix(1.00006,0,0,-1.00002,18.102044,56.45289)" stroke-width=".79701" stroke-linecap="butt" stroke-miterlimit="10" stroke-linejoin="miter" fill="none" stroke="#9999ff" d="M21.2601-22.67795 25.23274-23.593"/>
<path transform="matrix(.9745184,.2244645,.22447346,-.9744795,42.25921,79.79828)" d="M1.70563 0 2.05464-.13252 .98071 0 2.05464 .13252Z" fill="#9999ff"/>
<path transform="matrix(1.00006,0,0,-1.00002,18.102044,56.45289)" stroke-width=".79701" stroke-linecap="butt" stroke-miterlimit="10" stroke-linejoin="miter" fill="none" stroke="#9999ff" d="M21.2601-17.00868 25.23274-17.92374"/>
<path transform="matrix(.9745184,.2244645,.22447346,-.9744795,42.25921,74.12891)" d="M1.70563 0 2.05464-.13252 .98071 0 2.05464 .13252Z" fill="#9999ff"/>
<path transform="matrix(1.00006,0,0,-1.00002,18.102044,56.45289)" stroke-width=".79701" stroke-linecap="butt" stroke-miterlimit="10" stroke-linejoin="miter" fill="none" stroke="#9999ff" d="M21.2601-11.3394 25.29985-11.88246"/>
<path transform="matrix(.9910894,.13320267,.13320799,-.9910498,42.308027,68.188388)" d="M1.70563 0 2.05464-.13252 .98071 0 2.05464 .13252Z" fill="#9999ff"/>
<path transform="matrix(1.00006,0,0,-1.00002,18.102044,56.45289)" stroke-width=".79701" stroke-linecap="butt" stroke-miterlimit="10" stroke-linejoin="miter" fill="none" stroke="#9999ff" d="M21.2601-5.67014 25.32886-5.82611"/>
<path transform="matrix(.9992799,.038270769,.038272297,-.99924007,42.327966,62.236818)" d="M1.70563 0 2.05464-.13252 .98071 0 2.05464 .13252Z" fill="#9999ff"/>
<path transform="matrix(1.00006,0,0,-1.00002,18.102044,56.45289)" stroke-width=".79701" stroke-linecap="butt" stroke-miterlimit="10" stroke-linejoin="miter" fill="none" stroke="#9999ff" d="M21.2601-.00084H25.3376"/>
<path transform="matrix(1.00006,0,0,-1.00002,42.335847,56.453729)" d="M1.70563 0 2.05464-.13252 .98071 0 2.05464 .13252Z" fill="#9999ff"/>
<path transform="matrix(1.00006,0,0,-1.00002,18.102044,56.45289)" stroke-width=".79701" stroke-linecap="butt" stroke-miterlimit="10" stroke-linejoin="miter" fill="none" stroke="#9999ff" d="M21.2601 5.6684 25.32886 5.8226"/>
<path transform="matrix(.9992999,-.037830756,-.037832269,-.99926,42.327959,50.671976)" d="M1.70563 0 2.05464-.13252 .98071 0 2.05464 .13252Z" fill="#9999ff"/>
<path transform="matrix(1.00006,0,0,-1.00002,18.102044,56.45289)" stroke-width=".79701" stroke-linecap="butt" stroke-miterlimit="10" stroke-linejoin="miter" fill="none" stroke="#9999ff" d="M21.2601 11.33768 25.29987 11.8794"/>
<path transform="matrix(.9911294,-.13287267,-.13287798,-.9910898,42.307977,44.720117)" d="M1.70563 0 2.05464-.13252 .98071 0 2.05464 .13252Z" fill="#9999ff"/>
<path transform="matrix(1.00006,0,0,-1.00002,18.102044,56.45289)" stroke-width=".79701" stroke-linecap="butt" stroke-miterlimit="10" stroke-linejoin="miter" fill="none" stroke="#9999ff" d="M21.2601 17.00694 25.23277 17.91844"/>
<path transform="matrix(.9746784,-.22365448,-.2236634,-.9746395,42.25905,38.781274)" d="M1.70563 0 2.05464-.13252 .98071 0 2.05464 .13252Z" fill="#9999ff"/>
<path transform="matrix(1.00006,0,0,-1.00002,18.102044,56.45289)" stroke-width=".79701" stroke-linecap="butt" stroke-miterlimit="10" stroke-linejoin="miter" fill="none" stroke="#9999ff" d="M21.2601 22.67622 25.23276 23.59082"/>
<path transform="matrix(.9745484,-.22433448,-.22434345,-.9745095,42.25918,33.109544)" d="M1.70563 0 2.05464-.13252 .98071 0 2.05464 .13252Z" fill="#9999ff"/>
<path transform="matrix(1.00006,0,0,-1.00002,18.102044,56.45289)" stroke-width=".79701" stroke-linecap="butt" stroke-miterlimit="10" stroke-linejoin="miter" fill="none" stroke="#9999ff" d="M21.2601 28.34549H25.3376"/>
<path transform="matrix(1.00006,0,0,-1.00002,42.335847,28.10683)" d="M1.70563 0 2.05464-.13252 .98071 0 2.05464 .13252Z" fill="#9999ff"/>
<path transform="matrix(1.00006,0,0,-1.00002,18.102044,56.45289)" stroke-width=".79701" stroke-linecap="butt" stroke-miterlimit="10" stroke-linejoin="miter" fill="none" stroke="#9999ff" d="M21.2601 34.01477 24.70258 31.83356"/>
<path transform="matrix(.84472069,.5352107,.53523209,-.8446869,41.872468,24.02716)" d="M1.70563 0 2.05464-.13252 .98071 0 2.05464 .13252Z" fill="#9999ff"/>
<path transform="matrix(1.00006,0,0,-1.00002,18.102044,56.45289)" stroke-width=".79701" stroke-linecap="butt" stroke-miterlimit="10" stroke-linejoin="miter" fill="none" stroke="#9999ff" d="M21.2601 39.68404 23.17374 36.08383"/>
<path transform="matrix(.46937815,.8830177,.88305297,-.4693594,40.7584,19.392376)" d="M1.70563 0 2.05464-.13252 .98071 0 2.05464 .13252Z" fill="#9999ff"/>
<path transform="matrix(1.00006,0,0,-1.00002,18.102044,56.45289)" stroke-width=".79701" stroke-linecap="butt" stroke-miterlimit="10" stroke-linejoin="miter" fill="none" stroke="#9999ff" d="M21.2601 45.35332 22.25069 41.39803"/>
<path transform="matrix(.24295457,.9700394,.9700782,-.24294487,40.085565,13.981899)" d="M1.70563 0 2.05464-.13252 .98071 0 2.05464 .13252Z" fill="#9999ff"/>
<path transform="matrix(1.00006,0,0,-1.00002,18.102044,56.45289)" stroke-width=".79701" stroke-linecap="butt" stroke-miterlimit="10" stroke-linejoin="miter" fill="none" stroke="#9999ff" d="M28.3468-45.35506 29.33694-41.39975"/>
<path transform="matrix(.24284455,-.9700694,-.97010818,-.24283485,47.172349,98.925647)" d="M1.70563 0 2.05464-.13252 .98071 0 2.05464 .13252Z" fill="#9999ff"/>
<path transform="matrix(1.00006,0,0,-1.00002,18.102044,56.45289)" stroke-width=".79701" stroke-linecap="butt" stroke-miterlimit="10" stroke-linejoin="miter" fill="none" stroke="#9999ff" d="M28.3468-39.68578 30.25735-36.08597"/>
<path transform="matrix(.4688081,-.8833077,-.883343,-.4687894,47.843069,93.51586)" d="M1.70563 0 2.05464-.13252 .98071 0 2.05464 .13252Z" fill="#9999ff"/>
<path transform="matrix(1.00006,0,0,-1.00002,18.102044,56.45289)" stroke-width=".79701" stroke-linecap="butt" stroke-miterlimit="10" stroke-linejoin="miter" fill="none" stroke="#9999ff" d="M28.3468-34.0165 31.7893-31.83794"/>
<path transform="matrix(.84502068,-.5347507,-.53477206,-.8449869,48.959306,88.88249)" d="M1.70563 0 2.05464-.13252 .98071 0 2.05464 .13252Z" fill="#9999ff"/>
<path transform="matrix(1.00006,0,0,-1.00002,18.102044,56.45289)" stroke-width=".79701" stroke-linecap="butt" stroke-miterlimit="10" stroke-linejoin="miter" fill="none" stroke="#9999ff" d="M28.3468-28.34723H32.4243"/>
<path transform="matrix(1.00006,0,0,-1.00002,49.422975,84.80069)" d="M1.70563 0 2.05464-.13252 .98071 0 2.05464 .13252Z" fill="#9999ff"/>
<path transform="matrix(1.00006,0,0,-1.00002,18.102044,56.45289)" stroke-width=".79701" stroke-linecap="butt" stroke-miterlimit="10" stroke-linejoin="miter" fill="none" stroke="#9999ff" d="M28.3468-22.67795 32.31944-23.593"/>
<path transform="matrix(.9745184,.2244645,.22447346,-.9744795,49.346345,79.79828)" d="M1.70563 0 2.05464-.13252 .98071 0 2.05464 .13252Z" fill="#9999ff"/>
<path transform="matrix(1.00006,0,0,-1.00002,18.102044,56.45289)" stroke-width=".79701" stroke-linecap="butt" stroke-miterlimit="10" stroke-linejoin="miter" fill="none" stroke="#9999ff" d="M28.3468-17.00868 32.31944-17.92374"/>
<path transform="matrix(.9745184,.2244645,.22447346,-.9744795,49.346345,74.12891)" d="M1.70563 0 2.05464-.13252 .98071 0 2.05464 .13252Z" fill="#9999ff"/>
<path transform="matrix(1.00006,0,0,-1.00002,18.102044,56.45289)" stroke-width=".79701" stroke-linecap="butt" stroke-miterlimit="10" stroke-linejoin="miter" fill="none" stroke="#9999ff" d="M28.3468-11.3394 32.38657-11.88246"/>
<path transform="matrix(.9910894,.13320267,.13320799,-.9910498,49.39515,68.188388)" d="M1.70563 0 2.05464-.13252 .98071 0 2.05464 .13252Z" fill="#9999ff"/>
<path transform="matrix(1.00006,0,0,-1.00002,18.102044,56.45289)" stroke-width=".79701" stroke-linecap="butt" stroke-miterlimit="10" stroke-linejoin="miter" fill="none" stroke="#9999ff" d="M28.3468-5.67014 32.41557-5.82611"/>
<path transform="matrix(.9992799,.038270769,.038272297,-.99924007,49.415094,62.236818)" d="M1.70563 0 2.05464-.13252 .98071 0 2.05464 .13252Z" fill="#9999ff"/>
<path transform="matrix(1.00006,0,0,-1.00002,18.102044,56.45289)" stroke-width=".79701" stroke-linecap="butt" stroke-miterlimit="10" stroke-linejoin="miter" fill="none" stroke="#9999ff" d="M28.3468-.00084H32.4243"/>
<path transform="matrix(1.00006,0,0,-1.00002,49.422975,56.453729)" d="M1.70563 0 2.05464-.13252 .98071 0 2.05464 .13252Z" fill="#9999ff"/>
<path transform="matrix(1.00006,0,0,-1.00002,18.102044,56.45289)" stroke-width=".79701" stroke-linecap="butt" stroke-miterlimit="10" stroke-linejoin="miter" fill="none" stroke="#9999ff" d="M28.3468 5.6684 32.41557 5.8226"/>
<path transform="matrix(.9992999,-.037830756,-.037832269,-.99926,49.415079,50.671976)" d="M1.70563 0 2.05464-.13252 .98071 0 2.05464 .13252Z" fill="#9999ff"/>
<path transform="matrix(1.00006,0,0,-1.00002,18.102044,56.45289)" stroke-width=".79701" stroke-linecap="butt" stroke-miterlimit="10" stroke-linejoin="miter" fill="none" stroke="#9999ff" d="M28.3468 11.33768 32.38658 11.8794"/>
<path transform="matrix(.9911294,-.13287267,-.13287798,-.9910898,49.3951,44.720117)" d="M1.70563 0 2.05464-.13252 .98071 0 2.05464 .13252Z" fill="#9999ff"/>
<path transform="matrix(1.00006,0,0,-1.00002,18.102044,56.45289)" stroke-width=".79701" stroke-linecap="butt" stroke-miterlimit="10" stroke-linejoin="miter" fill="none" stroke="#9999ff" d="M28.3468 17.00694 32.31947 17.91844"/>
<path transform="matrix(.9746784,-.22365448,-.2236634,-.9746395,49.346178,38.781274)" d="M1.70563 0 2.05464-.13252 .98071 0 2.05464 .13252Z" fill="#9999ff"/>
<path transform="matrix(1.00006,0,0,-1.00002,18.102044,56.45289)" stroke-width=".79701" stroke-linecap="butt" stroke-miterlimit="10" stroke-linejoin="miter" fill="none" stroke="#9999ff" d="M28.3468 22.67622 32.31946 23.59082"/>
<path transform="matrix(.9745484,-.22433448,-.22434345,-.9745095,49.346315,33.109544)" d="M1.70563 0 2.05464-.13252 .98071 0 2.05464 .13252Z" fill="#9999ff"/>
<path transform="matrix(1.00006,0,0,-1.00002,18.102044,56.45289)" stroke-width=".79701" stroke-linecap="butt" stroke-miterlimit="10" stroke-linejoin="miter" fill="none" stroke="#9999ff" d="M28.3468 28.34549H32.4243"/>
<path transform="matrix(1.00006,0,0,-1.00002,49.422975,28.10683)" d="M1.70563 0 2.05464-.13252 .98071 0 2.05464 .13252Z" fill="#9999ff"/>
<path transform="matrix(1.00006,0,0,-1.00002,18.102044,56.45289)" stroke-width=".79701" stroke-linecap="butt" stroke-miterlimit="10" stroke-linejoin="miter" fill="none" stroke="#9999ff" d="M28.3468 34.01477 31.78928 31.83356"/>
<path transform="matrix(.84472069,.5352107,.53523209,-.8446869,48.959604,24.02716)" d="M1.70563 0 2.05464-.13252 .98071 0 2.05464 .13252Z" fill="#9999ff"/>
<path transform="matrix(1.00006,0,0,-1.00002,18.102044,56.45289)" stroke-width=".79701" stroke-linecap="butt" stroke-miterlimit="10" stroke-linejoin="miter" fill="none" stroke="#9999ff" d="M28.3468 39.68404 30.26044 36.08383"/>
<path transform="matrix(.46937815,.8830177,.88305297,-.4693594,47.845529,19.392376)" d="M1.70563 0 2.05464-.13252 .98071 0 2.05464 .13252Z" fill="#9999ff"/>
<path transform="matrix(1.00006,0,0,-1.00002,18.102044,56.45289)" stroke-width=".79701" stroke-linecap="butt" stroke-miterlimit="10" stroke-linejoin="miter" fill="none" stroke="#9999ff" d="M28.3468 45.35332 29.33739 41.39803"/>
<path transform="matrix(.24295457,.9700394,.9700782,-.24294487,47.172685,13.981899)" d="M1.70563 0 2.05464-.13252 .98071 0 2.05464 .13252Z" fill="#9999ff"/>
<path transform="matrix(1.00006,0,0,-1.00002,18.102044,56.45289)" stroke-width=".79701" stroke-linecap="butt" stroke-miterlimit="10" stroke-linejoin="miter" fill="none" stroke="#9999ff" d="M35.43349-45.35506 36.42363-41.39975"/>
<path transform="matrix(.24284455,-.9700694,-.97010818,-.24283485,54.259469,98.925647)" d="M1.70563 0 2.05464-.13252 .98071 0 2.05464 .13252Z" fill="#9999ff"/>
<path transform="matrix(1.00006,0,0,-1.00002,18.102044,56.45289)" stroke-width=".79701" stroke-linecap="butt" stroke-miterlimit="10" stroke-linejoin="miter" fill="none" stroke="#9999ff" d="M35.43349-39.68578 37.34404-36.08597"/>
<path transform="matrix(.4688081,-.8833077,-.883343,-.4687894,54.930185,93.51586)" d="M1.70563 0 2.05464-.13252 .98071 0 2.05464 .13252Z" fill="#9999ff"/>
<path transform="matrix(1.00006,0,0,-1.00002,18.102044,56.45289)" stroke-width=".79701" stroke-linecap="butt" stroke-miterlimit="10" stroke-linejoin="miter" fill="none" stroke="#9999ff" d="M35.43349-34.0165 38.87599-31.83794"/>
<path transform="matrix(.84502068,-.5347507,-.53477206,-.8449869,56.046419,88.88249)" d="M1.70563 0 2.05464-.13252 .98071 0 2.05464 .13252Z" fill="#9999ff"/>
<path transform="matrix(1.00006,0,0,-1.00002,18.102044,56.45289)" stroke-width=".79701" stroke-linecap="butt" stroke-miterlimit="10" stroke-linejoin="miter" fill="none" stroke="#9999ff" d="M35.43349-28.34723H39.511"/>
<path transform="matrix(1.00006,0,0,-1.00002,56.51008,84.80069)" d="M1.70563 0 2.05464-.13252 .98071 0 2.05464 .13252Z" fill="#9999ff"/>
<path transform="matrix(1.00006,0,0,-1.00002,18.102044,56.45289)" stroke-width=".79701" stroke-linecap="butt" stroke-miterlimit="10" stroke-linejoin="miter" fill="none" stroke="#9999ff" d="M35.43349-22.67795 39.40613-23.593"/>
<path transform="matrix(.9745184,.2244645,.22447346,-.9744795,56.43346,79.79828)" d="M1.70563 0 2.05464-.13252 .98071 0 2.05464 .13252Z" fill="#9999ff"/>
<path transform="matrix(1.00006,0,0,-1.00002,18.102044,56.45289)" stroke-width=".79701" stroke-linecap="butt" stroke-miterlimit="10" stroke-linejoin="miter" fill="none" stroke="#9999ff" d="M35.43349-17.00868 39.40613-17.92374"/>
<path transform="matrix(.9745184,.2244645,.22447346,-.9744795,56.43346,74.12891)" d="M1.70563 0 2.05464-.13252 .98071 0 2.05464 .13252Z" fill="#9999ff"/>
<path transform="matrix(1.00006,0,0,-1.00002,18.102044,56.45289)" stroke-width=".79701" stroke-linecap="butt" stroke-miterlimit="10" stroke-linejoin="miter" fill="none" stroke="#9999ff" d="M35.43349-11.3394 39.47325-11.88246"/>
<path transform="matrix(.9910894,.13320267,.13320799,-.9910498,56.482255,68.188388)" d="M1.70563 0 2.05464-.13252 .98071 0 2.05464 .13252Z" fill="#9999ff"/>
<path transform="matrix(1.00006,0,0,-1.00002,18.102044,56.45289)" stroke-width=".79701" stroke-linecap="butt" stroke-miterlimit="10" stroke-linejoin="miter" fill="none" stroke="#9999ff" d="M35.43349-5.67014 39.50226-5.82611"/>
<path transform="matrix(.9992799,.038270769,.038272297,-.99924007,56.50221,62.236818)" d="M1.70563 0 2.05464-.13252 .98071 0 2.05464 .13252Z" fill="#9999ff"/>
<path transform="matrix(1.00006,0,0,-1.00002,18.102044,56.45289)" stroke-width=".79701" stroke-linecap="butt" stroke-miterlimit="10" stroke-linejoin="miter" fill="none" stroke="#9999ff" d="M35.43349-.00084H39.511"/>
<path transform="matrix(1.00006,0,0,-1.00002,56.51008,56.453729)" d="M1.70563 0 2.05464-.13252 .98071 0 2.05464 .13252Z" fill="#9999ff"/>
<path transform="matrix(1.00006,0,0,-1.00002,18.102044,56.45289)" stroke-width=".79701" stroke-linecap="butt" stroke-miterlimit="10" stroke-linejoin="miter" fill="none" stroke="#9999ff" d="M35.43349 5.6684 39.50226 5.8226"/>
<path transform="matrix(.9992999,-.037830756,-.037832269,-.99926,56.502187,50.671976)" d="M1.70563 0 2.05464-.13252 .98071 0 2.05464 .13252Z" fill="#9999ff"/>
<path transform="matrix(1.00006,0,0,-1.00002,18.102044,56.45289)" stroke-width=".79701" stroke-linecap="butt" stroke-miterlimit="10" stroke-linejoin="miter" fill="none" stroke="#9999ff" d="M35.43349 11.33768 39.47327 11.8794"/>
<path transform="matrix(.9911294,-.13287267,-.13287798,-.9910898,56.482213,44.720117)" d="M1.70563 0 2.05464-.13252 .98071 0 2.05464 .13252Z" fill="#9999ff"/>
<path transform="matrix(1.00006,0,0,-1.00002,18.102044,56.45289)" stroke-width=".79701" stroke-linecap="butt" stroke-miterlimit="10" stroke-linejoin="miter" fill="none" stroke="#9999ff" d="M35.43349 17.00694 39.40616 17.91844"/>
<path transform="matrix(.9746784,-.22365448,-.2236634,-.9746395,56.43329,38.781274)" d="M1.70563 0 2.05464-.13252 .98071 0 2.05464 .13252Z" fill="#9999ff"/>
<path transform="matrix(1.00006,0,0,-1.00002,18.102044,56.45289)" stroke-width=".79701" stroke-linecap="butt" stroke-miterlimit="10" stroke-linejoin="miter" fill="none" stroke="#9999ff" d="M35.43349 22.67622 39.40614 23.59082"/>
<path transform="matrix(.9745484,-.22433448,-.22434345,-.9745095,56.43343,33.109544)" d="M1.70563 0 2.05464-.13252 .98071 0 2.05464 .13252Z" fill="#9999ff"/>
<path transform="matrix(1.00006,0,0,-1.00002,18.102044,56.45289)" stroke-width=".79701" stroke-linecap="butt" stroke-miterlimit="10" stroke-linejoin="miter" fill="none" stroke="#9999ff" d="M35.43349 28.34549H39.511"/>
<path transform="matrix(1.00006,0,0,-1.00002,56.51008,28.10683)" d="M1.70563 0 2.05464-.13252 .98071 0 2.05464 .13252Z" fill="#9999ff"/>
<path transform="matrix(1.00006,0,0,-1.00002,18.102044,56.45289)" stroke-width=".79701" stroke-linecap="butt" stroke-miterlimit="10" stroke-linejoin="miter" fill="none" stroke="#9999ff" d="M35.43349 34.01477 38.87596 31.83356"/>
<path transform="matrix(.84472069,.5352107,.53523209,-.8446869,56.04672,24.02716)" d="M1.70563 0 2.05464-.13252 .98071 0 2.05464 .13252Z" fill="#9999ff"/>
<path transform="matrix(1.00006,0,0,-1.00002,18.102044,56.45289)" stroke-width=".79701" stroke-linecap="butt" stroke-miterlimit="10" stroke-linejoin="miter" fill="none" stroke="#9999ff" d="M35.43349 39.68404 37.34714 36.08383"/>
<path transform="matrix(.46937815,.8830177,.88305297,-.4693594,54.93265,19.392376)" d="M1.70563 0 2.05464-.13252 .98071 0 2.05464 .13252Z" fill="#9999ff"/>
<path transform="matrix(1.00006,0,0,-1.00002,18.102044,56.45289)" stroke-width=".79701" stroke-linecap="butt" stroke-miterlimit="10" stroke-linejoin="miter" fill="none" stroke="#9999ff" d="M35.43349 45.35332 36.42409 41.39803"/>
<path transform="matrix(.24295457,.9700394,.9700782,-.24294487,54.25981,13.981899)" d="M1.70563 0 2.05464-.13252 .98071 0 2.05464 .13252Z" fill="#9999ff"/>
<path transform="matrix(1.00006,0,0,-1.00002,18.102044,56.45289)" stroke-width=".79701" stroke-linecap="butt" stroke-miterlimit="10" stroke-linejoin="miter" fill="none" stroke="#9999ff" d="M42.5202-45.35506 43.51033-41.39975"/>
<path transform="matrix(.24284455,-.9700694,-.97010818,-.24283485,61.346597,98.925647)" d="M1.70563 0 2.05464-.13252 .98071 0 2.05464 .13252Z" fill="#9999ff"/>
<path transform="matrix(1.00006,0,0,-1.00002,18.102044,56.45289)" stroke-width=".79701" stroke-linecap="butt" stroke-miterlimit="10" stroke-linejoin="miter" fill="none" stroke="#9999ff" d="M42.5202-39.68578 44.43076-36.08597"/>
<path transform="matrix(.4688081,-.8833077,-.883343,-.4687894,62.017316,93.51586)" d="M1.70563 0 2.05464-.13252 .98071 0 2.05464 .13252Z" fill="#9999ff"/>
<path transform="matrix(1.00006,0,0,-1.00002,18.102044,56.45289)" stroke-width=".79701" stroke-linecap="butt" stroke-miterlimit="10" stroke-linejoin="miter" fill="none" stroke="#9999ff" d="M42.5202-34.0165 45.9627-31.83794"/>
<path transform="matrix(.84502068,-.5347507,-.53477206,-.8449869,63.133546,88.88249)" d="M1.70563 0 2.05464-.13252 .98071 0 2.05464 .13252Z" fill="#9999ff"/>
<path transform="matrix(1.00006,0,0,-1.00002,18.102044,56.45289)" stroke-width=".79701" stroke-linecap="butt" stroke-miterlimit="10" stroke-linejoin="miter" fill="none" stroke="#9999ff" d="M42.5202-28.34723H46.5977"/>
<path transform="matrix(1.00006,0,0,-1.00002,63.59722,84.80069)" d="M1.70563 0 2.05464-.13252 .98071 0 2.05464 .13252Z" fill="#9999ff"/>
<path transform="matrix(1.00006,0,0,-1.00002,18.102044,56.45289)" stroke-width=".79701" stroke-linecap="butt" stroke-miterlimit="10" stroke-linejoin="miter" fill="none" stroke="#9999ff" d="M42.5202-22.67795 46.49284-23.593"/>
<path transform="matrix(.9745184,.2244645,.22447346,-.9744795,63.520597,79.79828)" d="M1.70563 0 2.05464-.13252 .98071 0 2.05464 .13252Z" fill="#9999ff"/>
<path transform="matrix(1.00006,0,0,-1.00002,18.102044,56.45289)" stroke-width=".79701" stroke-linecap="butt" stroke-miterlimit="10" stroke-linejoin="miter" fill="none" stroke="#9999ff" d="M42.5202-17.00868 46.49284-17.92374"/>
<path transform="matrix(.9745184,.2244645,.22447346,-.9744795,63.520597,74.12891)" d="M1.70563 0 2.05464-.13252 .98071 0 2.05464 .13252Z" fill="#9999ff"/>
<path transform="matrix(1.00006,0,0,-1.00002,18.102044,56.45289)" stroke-width=".79701" stroke-linecap="butt" stroke-miterlimit="10" stroke-linejoin="miter" fill="none" stroke="#9999ff" d="M42.5202-11.3394 46.55995-11.88246"/>
<path transform="matrix(.9910894,.13320267,.13320799,-.9910498,63.5694,68.188388)" d="M1.70563 0 2.05464-.13252 .98071 0 2.05464 .13252Z" fill="#9999ff"/>
<path transform="matrix(1.00006,0,0,-1.00002,18.102044,56.45289)" stroke-width=".79701" stroke-linecap="butt" stroke-miterlimit="10" stroke-linejoin="miter" fill="none" stroke="#9999ff" d="M42.5202-5.67014 46.58896-5.82611"/>
<path transform="matrix(.9992799,.038270769,.038272297,-.99924007,63.58934,62.236818)" d="M1.70563 0 2.05464-.13252 .98071 0 2.05464 .13252Z" fill="#9999ff"/>
<path transform="matrix(1.00006,0,0,-1.00002,18.102044,56.45289)" stroke-width=".79701" stroke-linecap="butt" stroke-miterlimit="10" stroke-linejoin="miter" fill="none" stroke="#9999ff" d="M42.5202-.00084H46.5977"/>
<path transform="matrix(1.00006,0,0,-1.00002,63.59722,56.453729)" d="M1.70563 0 2.05464-.13252 .98071 0 2.05464 .13252Z" fill="#9999ff"/>
<path transform="matrix(1.00006,0,0,-1.00002,18.102044,56.45289)" stroke-width=".79701" stroke-linecap="butt" stroke-miterlimit="10" stroke-linejoin="miter" fill="none" stroke="#9999ff" d="M42.5202 5.6684 46.58896 5.8226"/>
<path transform="matrix(.9992999,-.037830756,-.037832269,-.99926,63.58933,50.671976)" d="M1.70563 0 2.05464-.13252 .98071 0 2.05464 .13252Z" fill="#9999ff"/>
<path transform="matrix(1.00006,0,0,-1.00002,18.102044,56.45289)" stroke-width=".79701" stroke-linecap="butt" stroke-miterlimit="10" stroke-linejoin="miter" fill="none" stroke="#9999ff" d="M42.5202 11.33768 46.55997 11.8794"/>
<path transform="matrix(.9911294,-.13287267,-.13287798,-.9910898,63.56935,44.720117)" d="M1.70563 0 2.05464-.13252 .98071 0 2.05464 .13252Z" fill="#9999ff"/>
<path transform="matrix(1.00006,0,0,-1.00002,18.102044,56.45289)" stroke-width=".79701" stroke-linecap="butt" stroke-miterlimit="10" stroke-linejoin="miter" fill="none" stroke="#9999ff" d="M42.5202 17.00694 46.49287 17.91844"/>
<path transform="matrix(.9746784,-.22365448,-.2236634,-.9746395,63.520429,38.781274)" d="M1.70563 0 2.05464-.13252 .98071 0 2.05464 .13252Z" fill="#9999ff"/>
<path transform="matrix(1.00006,0,0,-1.00002,18.102044,56.45289)" stroke-width=".79701" stroke-linecap="butt" stroke-miterlimit="10" stroke-linejoin="miter" fill="none" stroke="#9999ff" d="M42.5202 22.67622 46.49286 23.59082"/>
<path transform="matrix(.9745484,-.22433448,-.22434345,-.9745095,63.520566,33.109544)" d="M1.70563 0 2.05464-.13252 .98071 0 2.05464 .13252Z" fill="#9999ff"/>
<path transform="matrix(1.00006,0,0,-1.00002,18.102044,56.45289)" stroke-width=".79701" stroke-linecap="butt" stroke-miterlimit="10" stroke-linejoin="miter" fill="none" stroke="#9999ff" d="M42.5202 28.34549H46.5977"/>
<path transform="matrix(1.00006,0,0,-1.00002,63.59722,28.10683)" d="M1.70563 0 2.05464-.13252 .98071 0 2.05464 .13252Z" fill="#9999ff"/>
<path transform="matrix(1.00006,0,0,-1.00002,18.102044,56.45289)" stroke-width=".79701" stroke-linecap="butt" stroke-miterlimit="10" stroke-linejoin="miter" fill="none" stroke="#9999ff" d="M42.5202 34.01477 45.96268 31.83356"/>
<path transform="matrix(.84472069,.5352107,.53523209,-.8446869,63.133844,24.02716)" d="M1.70563 0 2.05464-.13252 .98071 0 2.05464 .13252Z" fill="#9999ff"/>
<path transform="matrix(1.00006,0,0,-1.00002,18.102044,56.45289)" stroke-width=".79701" stroke-linecap="butt" stroke-miterlimit="10" stroke-linejoin="miter" fill="none" stroke="#9999ff" d="M42.5202 39.68404 44.43384 36.08383"/>
<path transform="matrix(.46937815,.8830177,.88305297,-.4693594,62.019777,19.392376)" d="M1.70563 0 2.05464-.13252 .98071 0 2.05464 .13252Z" fill="#9999ff"/>
<path transform="matrix(1.00006,0,0,-1.00002,18.102044,56.45289)" stroke-width=".79701" stroke-linecap="butt" stroke-miterlimit="10" stroke-linejoin="miter" fill="none" stroke="#9999ff" d="M42.5202 45.35332 43.51079 41.39803"/>
<path transform="matrix(.24295457,.9700394,.9700782,-.24294487,61.346937,13.981899)" d="M1.70563 0 2.05464-.13252 .98071 0 2.05464 .13252Z" fill="#9999ff"/>
<path transform="matrix(1.00006,0,0,-1.00002,18.102044,56.45289)" stroke-width=".79701" stroke-linecap="butt" stroke-miterlimit="10" stroke-linejoin="miter" fill="none" stroke="#9999ff" d="M49.6069-45.35506 50.59705-41.39975"/>
<path transform="matrix(.24284455,-.9700694,-.97010818,-.24283485,68.433719,98.925647)" d="M1.70563 0 2.05464-.13252 .98071 0 2.05464 .13252Z" fill="#9999ff"/>
<path transform="matrix(1.00006,0,0,-1.00002,18.102044,56.45289)" stroke-width=".79701" stroke-linecap="butt" stroke-miterlimit="10" stroke-linejoin="miter" fill="none" stroke="#9999ff" d="M49.6069-39.68578 51.51746-36.08597"/>
<path transform="matrix(.4688081,-.8833077,-.883343,-.4687894,69.10445,93.51586)" d="M1.70563 0 2.05464-.13252 .98071 0 2.05464 .13252Z" fill="#9999ff"/>
<path transform="matrix(1.00006,0,0,-1.00002,18.102044,56.45289)" stroke-width=".79701" stroke-linecap="butt" stroke-miterlimit="10" stroke-linejoin="miter" fill="none" stroke="#9999ff" d="M49.6069-34.0165 53.04941-31.83794"/>
<path transform="matrix(.84502068,-.5347507,-.53477206,-.8449869,70.22067,88.88249)" d="M1.70563 0 2.05464-.13252 .98071 0 2.05464 .13252Z" fill="#9999ff"/>
<path transform="matrix(1.00006,0,0,-1.00002,18.102044,56.45289)" stroke-width=".79701" stroke-linecap="butt" stroke-miterlimit="10" stroke-linejoin="miter" fill="none" stroke="#9999ff" d="M49.6069-28.34723H53.68442"/>
<path transform="matrix(1.00006,0,0,-1.00002,70.68434,84.80069)" d="M1.70563 0 2.05464-.13252 .98071 0 2.05464 .13252Z" fill="#9999ff"/>
<path transform="matrix(1.00006,0,0,-1.00002,18.102044,56.45289)" stroke-width=".79701" stroke-linecap="butt" stroke-miterlimit="10" stroke-linejoin="miter" fill="none" stroke="#9999ff" d="M49.6069-22.67795 53.57954-23.593"/>
<path transform="matrix(.9745184,.2244645,.22447346,-.9744795,70.60772,79.79828)" d="M1.70563 0 2.05464-.13252 .98071 0 2.05464 .13252Z" fill="#9999ff"/>
<path transform="matrix(1.00006,0,0,-1.00002,18.102044,56.45289)" stroke-width=".79701" stroke-linecap="butt" stroke-miterlimit="10" stroke-linejoin="miter" fill="none" stroke="#9999ff" d="M49.6069-17.00868 53.57954-17.92374"/>
<path transform="matrix(.9745184,.2244645,.22447346,-.9744795,70.60772,74.12891)" d="M1.70563 0 2.05464-.13252 .98071 0 2.05464 .13252Z" fill="#9999ff"/>
<path transform="matrix(1.00006,0,0,-1.00002,18.102044,56.45289)" stroke-width=".79701" stroke-linecap="butt" stroke-miterlimit="10" stroke-linejoin="miter" fill="none" stroke="#9999ff" d="M49.6069-11.3394 53.64667-11.88246"/>
<path transform="matrix(.9910894,.13320267,.13320799,-.9910498,70.656528,68.188388)" d="M1.70563 0 2.05464-.13252 .98071 0 2.05464 .13252Z" fill="#9999ff"/>
<path transform="matrix(1.00006,0,0,-1.00002,18.102044,56.45289)" stroke-width=".79701" stroke-linecap="butt" stroke-miterlimit="10" stroke-linejoin="miter" fill="none" stroke="#9999ff" d="M49.6069-5.67014 53.67567-5.82611"/>
<path transform="matrix(.9992799,.038270769,.038272297,-.99924007,70.67647,62.236818)" d="M1.70563 0 2.05464-.13252 .98071 0 2.05464 .13252Z" fill="#9999ff"/>
<path transform="matrix(1.00006,0,0,-1.00002,18.102044,56.45289)" stroke-width=".79701" stroke-linecap="butt" stroke-miterlimit="10" stroke-linejoin="miter" fill="none" stroke="#9999ff" d="M49.6069-.00084H53.68442"/>
<path transform="matrix(1.00006,0,0,-1.00002,70.68434,56.453729)" d="M1.70563 0 2.05464-.13252 .98071 0 2.05464 .13252Z" fill="#9999ff"/>
<path transform="matrix(1.00006,0,0,-1.00002,18.102044,56.45289)" stroke-width=".79701" stroke-linecap="butt" stroke-miterlimit="10" stroke-linejoin="miter" fill="none" stroke="#9999ff" d="M49.6069 5.6684 53.67567 5.8226"/>
<path transform="matrix(.9992999,-.037830756,-.037832269,-.99926,70.67645,50.671976)" d="M1.70563 0 2.05464-.13252 .98071 0 2.05464 .13252Z" fill="#9999ff"/>
<path transform="matrix(1.00006,0,0,-1.00002,18.102044,56.45289)" stroke-width=".79701" stroke-linecap="butt" stroke-miterlimit="10" stroke-linejoin="miter" fill="none" stroke="#9999ff" d="M49.6069 11.33768 53.64668 11.8794"/>
<path transform="matrix(.9911294,-.13287267,-.13287798,-.9910898,70.65648,44.720117)" d="M1.70563 0 2.05464-.13252 .98071 0 2.05464 .13252Z" fill="#9999ff"/>
<path transform="matrix(1.00006,0,0,-1.00002,18.102044,56.45289)" stroke-width=".79701" stroke-linecap="butt" stroke-miterlimit="10" stroke-linejoin="miter" fill="none" stroke="#9999ff" d="M49.6069 17.00694 53.57957 17.91844"/>
<path transform="matrix(.9746784,-.22365448,-.2236634,-.9746395,70.60756,38.781274)" d="M1.70563 0 2.05464-.13252 .98071 0 2.05464 .13252Z" fill="#9999ff"/>
<path transform="matrix(1.00006,0,0,-1.00002,18.102044,56.45289)" stroke-width=".79701" stroke-linecap="butt" stroke-miterlimit="10" stroke-linejoin="miter" fill="none" stroke="#9999ff" d="M49.6069 22.67622 53.57956 23.59082"/>
<path transform="matrix(.9745484,-.22433448,-.22434345,-.9745095,70.60769,33.109544)" d="M1.70563 0 2.05464-.13252 .98071 0 2.05464 .13252Z" fill="#9999ff"/>
<path transform="matrix(1.00006,0,0,-1.00002,18.102044,56.45289)" stroke-width=".79701" stroke-linecap="butt" stroke-miterlimit="10" stroke-linejoin="miter" fill="none" stroke="#9999ff" d="M49.6069 28.34549H53.68442"/>
<path transform="matrix(1.00006,0,0,-1.00002,70.68434,28.10683)" d="M1.70563 0 2.05464-.13252 .98071 0 2.05464 .13252Z" fill="#9999ff"/>
<path transform="matrix(1.00006,0,0,-1.00002,18.102044,56.45289)" stroke-width=".79701" stroke-linecap="butt" stroke-miterlimit="10" stroke-linejoin="miter" fill="none" stroke="#9999ff" d="M49.6069 34.01477 53.04938 31.83356"/>
<path transform="matrix(.84472069,.5352107,.53523209,-.8446869,70.22098,24.02716)" d="M1.70563 0 2.05464-.13252 .98071 0 2.05464 .13252Z" fill="#9999ff"/>
<path transform="matrix(1.00006,0,0,-1.00002,18.102044,56.45289)" stroke-width=".79701" stroke-linecap="butt" stroke-miterlimit="10" stroke-linejoin="miter" fill="none" stroke="#9999ff" d="M49.6069 39.68404 51.52055 36.08383"/>
<path transform="matrix(.46937815,.8830177,.88305297,-.4693594,69.10692,19.392376)" d="M1.70563 0 2.05464-.13252 .98071 0 2.05464 .13252Z" fill="#9999ff"/>
<path transform="matrix(1.00006,0,0,-1.00002,18.102044,56.45289)" stroke-width=".79701" stroke-linecap="butt" stroke-miterlimit="10" stroke-linejoin="miter" fill="none" stroke="#9999ff" d="M49.6069 45.35332 50.5975 41.39803"/>
<path transform="matrix(.24295457,.9700394,.9700782,-.24294487,68.43406,13.981899)" d="M1.70563 0 2.05464-.13252 .98071 0 2.05464 .13252Z" fill="#9999ff"/>
<path transform="matrix(1.00006,0,0,-1.00002,18.102044,56.45289)" stroke-width=".79701" stroke-linecap="butt" stroke-miterlimit="10" stroke-linejoin="miter" fill="none" stroke="#9999ff" d="M56.69362-45.35506 57.68375-41.39975"/>
<path transform="matrix(.24284455,-.9700694,-.97010818,-.24283485,75.52086,98.925647)" d="M1.70563 0 2.05464-.13252 .98071 0 2.05464 .13252Z" fill="#9999ff"/>
<path transform="matrix(1.00006,0,0,-1.00002,18.102044,56.45289)" stroke-width=".79701" stroke-linecap="butt" stroke-miterlimit="10" stroke-linejoin="miter" fill="none" stroke="#9999ff" d="M56.69362-39.68578 58.60417-36.08597"/>
<path transform="matrix(.4688081,-.8833077,-.883343,-.4687894,76.19159,93.51586)" d="M1.70563 0 2.05464-.13252 .98071 0 2.05464 .13252Z" fill="#9999ff"/>
<path transform="matrix(1.00006,0,0,-1.00002,18.102044,56.45289)" stroke-width=".79701" stroke-linecap="butt" stroke-miterlimit="10" stroke-linejoin="miter" fill="none" stroke="#9999ff" d="M56.69362-34.0165 60.13611-31.83794"/>
<path transform="matrix(.84502068,-.5347507,-.53477206,-.8449869,77.3078,88.88249)" d="M1.70563 0 2.05464-.13252 .98071 0 2.05464 .13252Z" fill="#9999ff"/>
<path transform="matrix(1.00006,0,0,-1.00002,18.102044,56.45289)" stroke-width=".79701" stroke-linecap="butt" stroke-miterlimit="10" stroke-linejoin="miter" fill="none" stroke="#9999ff" d="M56.69362-28.34723H60.77112"/>
<path transform="matrix(1.00006,0,0,-1.00002,77.771488,84.80069)" d="M1.70563 0 2.05464-.13252 .98071 0 2.05464 .13252Z" fill="#9999ff"/>
<path transform="matrix(1.00006,0,0,-1.00002,18.102044,56.45289)" stroke-width=".79701" stroke-linecap="butt" stroke-miterlimit="10" stroke-linejoin="miter" fill="none" stroke="#9999ff" d="M56.69362-22.67795 60.66626-23.593"/>
<path transform="matrix(.9745184,.2244645,.22447346,-.9744795,77.69485,79.79828)" d="M1.70563 0 2.05464-.13252 .98071 0 2.05464 .13252Z" fill="#9999ff"/>
<path transform="matrix(1.00006,0,0,-1.00002,18.102044,56.45289)" stroke-width=".79701" stroke-linecap="butt" stroke-miterlimit="10" stroke-linejoin="miter" fill="none" stroke="#9999ff" d="M56.69362-17.00868 60.66626-17.92374"/>
<path transform="matrix(.9745184,.2244645,.22447346,-.9744795,77.69485,74.12891)" d="M1.70563 0 2.05464-.13252 .98071 0 2.05464 .13252Z" fill="#9999ff"/>
<path transform="matrix(1.00006,0,0,-1.00002,18.102044,56.45289)" stroke-width=".79701" stroke-linecap="butt" stroke-miterlimit="10" stroke-linejoin="miter" fill="none" stroke="#9999ff" d="M56.69362-11.3394 60.73337-11.88246"/>
<path transform="matrix(.9910894,.13320267,.13320799,-.9910498,77.74365,68.188388)" d="M1.70563 0 2.05464-.13252 .98071 0 2.05464 .13252Z" fill="#9999ff"/>
<path transform="matrix(1.00006,0,0,-1.00002,18.102044,56.45289)" stroke-width=".79701" stroke-linecap="butt" stroke-miterlimit="10" stroke-linejoin="miter" fill="none" stroke="#9999ff" d="M56.69362-5.67014 60.76237-5.82611"/>
<path transform="matrix(.9992799,.038270769,.038272297,-.99924007,77.76361,62.236818)" d="M1.70563 0 2.05464-.13252 .98071 0 2.05464 .13252Z" fill="#9999ff"/>
<path transform="matrix(1.00006,0,0,-1.00002,18.102044,56.45289)" stroke-width=".79701" stroke-linecap="butt" stroke-miterlimit="10" stroke-linejoin="miter" fill="none" stroke="#9999ff" d="M56.69362-.00084H60.77112"/>
<path transform="matrix(1.00006,0,0,-1.00002,77.771488,56.453729)" d="M1.70563 0 2.05464-.13252 .98071 0 2.05464 .13252Z" fill="#9999ff"/>
<path transform="matrix(1.00006,0,0,-1.00002,18.102044,56.45289)" stroke-width=".79701" stroke-linecap="butt" stroke-miterlimit="10" stroke-linejoin="miter" fill="none" stroke="#9999ff" d="M56.69362 5.6684 60.76237 5.8226"/>
<path transform="matrix(.9992999,-.037830756,-.037832269,-.99926,77.763599,50.671976)" d="M1.70563 0 2.05464-.13252 .98071 0 2.05464 .13252Z" fill="#9999ff"/>
<path transform="matrix(1.00006,0,0,-1.00002,18.102044,56.45289)" stroke-width=".79701" stroke-linecap="butt" stroke-miterlimit="10" stroke-linejoin="miter" fill="none" stroke="#9999ff" d="M56.69362 11.33768 60.73338 11.8794"/>
<path transform="matrix(.9911294,-.13287267,-.13287798,-.9910898,77.74361,44.720117)" d="M1.70563 0 2.05464-.13252 .98071 0 2.05464 .13252Z" fill="#9999ff"/>
<path transform="matrix(1.00006,0,0,-1.00002,18.102044,56.45289)" stroke-width=".79701" stroke-linecap="butt" stroke-miterlimit="10" stroke-linejoin="miter" fill="none" stroke="#9999ff" d="M56.69362 17.00694 60.66629 17.91844"/>
<path transform="matrix(.9746784,-.22365448,-.2236634,-.9746395,77.69469,38.781274)" d="M1.70563 0 2.05464-.13252 .98071 0 2.05464 .13252Z" fill="#9999ff"/>
<path transform="matrix(1.00006,0,0,-1.00002,18.102044,56.45289)" stroke-width=".79701" stroke-linecap="butt" stroke-miterlimit="10" stroke-linejoin="miter" fill="none" stroke="#9999ff" d="M56.69362 22.67622 60.66628 23.59082"/>
<path transform="matrix(.9745484,-.22433448,-.22434345,-.9745095,77.69482,33.109544)" d="M1.70563 0 2.05464-.13252 .98071 0 2.05464 .13252Z" fill="#9999ff"/>
<path transform="matrix(1.00006,0,0,-1.00002,18.102044,56.45289)" stroke-width=".79701" stroke-linecap="butt" stroke-miterlimit="10" stroke-linejoin="miter" fill="none" stroke="#9999ff" d="M56.69362 28.34549H60.77112"/>
<path transform="matrix(1.00006,0,0,-1.00002,77.771488,28.10683)" d="M1.70563 0 2.05464-.13252 .98071 0 2.05464 .13252Z" fill="#9999ff"/>
<path transform="matrix(1.00006,0,0,-1.00002,18.102044,56.45289)" stroke-width=".79701" stroke-linecap="butt" stroke-miterlimit="10" stroke-linejoin="miter" fill="none" stroke="#9999ff" d="M56.69362 34.01477 60.13608 31.83356"/>
<path transform="matrix(.84472069,.5352107,.53523209,-.8446869,77.308109,24.02716)" d="M1.70563 0 2.05464-.13252 .98071 0 2.05464 .13252Z" fill="#9999ff"/>
<path transform="matrix(1.00006,0,0,-1.00002,18.102044,56.45289)" stroke-width=".79701" stroke-linecap="butt" stroke-miterlimit="10" stroke-linejoin="miter" fill="none" stroke="#9999ff" d="M56.69362 39.68404 58.60725 36.08383"/>
<path transform="matrix(.46937815,.8830177,.88305297,-.4693594,76.194049,19.392376)" d="M1.70563 0 2.05464-.13252 .98071 0 2.05464 .13252Z" fill="#9999ff"/>
<path transform="matrix(1.00006,0,0,-1.00002,18.102044,56.45289)" stroke-width=".79701" stroke-linecap="butt" stroke-miterlimit="10" stroke-linejoin="miter" fill="none" stroke="#9999ff" d="M56.69362 45.35332 57.6842 41.39803"/>
<path transform="matrix(.24295457,.9700394,.9700782,-.24294487,75.521198,13.981899)" d="M1.70563 0 2.05464-.13252 .98071 0 2.05464 .13252Z" fill="#9999ff"/>
<path transform="matrix(1.00006,0,0,-1.00002,18.102044,56.45289)" stroke-width=".79701" stroke-linecap="butt" stroke-miterlimit="10" stroke-linejoin="miter" fill="none" stroke="#9999ff" d="M63.7803-45.35506 64.77043-41.39975"/>
<path transform="matrix(.24284455,-.9700694,-.97010818,-.24283485,82.60797,98.925647)" d="M1.70563 0 2.05464-.13252 .98071 0 2.05464 .13252Z" fill="#9999ff"/>
<path transform="matrix(1.00006,0,0,-1.00002,18.102044,56.45289)" stroke-width=".79701" stroke-linecap="butt" stroke-miterlimit="10" stroke-linejoin="miter" fill="none" stroke="#9999ff" d="M63.7803-39.68578 65.69086-36.08597"/>
<path transform="matrix(.4688081,-.8833077,-.883343,-.4687894,83.27869,93.51586)" d="M1.70563 0 2.05464-.13252 .98071 0 2.05464 .13252Z" fill="#9999ff"/>
<path transform="matrix(1.00006,0,0,-1.00002,18.102044,56.45289)" stroke-width=".79701" stroke-linecap="butt" stroke-miterlimit="10" stroke-linejoin="miter" fill="none" stroke="#9999ff" d="M63.7803-34.0165 67.22281-31.83794"/>
<path transform="matrix(.84502068,-.5347507,-.53477206,-.8449869,84.39493,88.88249)" d="M1.70563 0 2.05464-.13252 .98071 0 2.05464 .13252Z" fill="#9999ff"/>
<path transform="matrix(1.00006,0,0,-1.00002,18.102044,56.45289)" stroke-width=".79701" stroke-linecap="butt" stroke-miterlimit="10" stroke-linejoin="miter" fill="none" stroke="#9999ff" d="M63.7803-28.34723H67.8578"/>
<path transform="matrix(1.00006,0,0,-1.00002,84.8586,84.80069)" d="M1.70563 0 2.05464-.13252 .98071 0 2.05464 .13252Z" fill="#9999ff"/>
<path transform="matrix(1.00006,0,0,-1.00002,18.102044,56.45289)" stroke-width=".79701" stroke-linecap="butt" stroke-miterlimit="10" stroke-linejoin="miter" fill="none" stroke="#9999ff" d="M63.7803-22.67795 67.75294-23.593"/>
<path transform="matrix(.9745184,.2244645,.22447346,-.9744795,84.78197,79.79828)" d="M1.70563 0 2.05464-.13252 .98071 0 2.05464 .13252Z" fill="#9999ff"/>
<path transform="matrix(1.00006,0,0,-1.00002,18.102044,56.45289)" stroke-width=".79701" stroke-linecap="butt" stroke-miterlimit="10" stroke-linejoin="miter" fill="none" stroke="#9999ff" d="M63.7803-17.00868 67.75294-17.92374"/>
<path transform="matrix(.9745184,.2244645,.22447346,-.9744795,84.78197,74.12891)" d="M1.70563 0 2.05464-.13252 .98071 0 2.05464 .13252Z" fill="#9999ff"/>
<path transform="matrix(1.00006,0,0,-1.00002,18.102044,56.45289)" stroke-width=".79701" stroke-linecap="butt" stroke-miterlimit="10" stroke-linejoin="miter" fill="none" stroke="#9999ff" d="M63.7803-11.3394 67.82007-11.88246"/>
<path transform="matrix(.9910894,.13320267,.13320799,-.9910498,84.83077,68.188388)" d="M1.70563 0 2.05464-.13252 .98071 0 2.05464 .13252Z" fill="#9999ff"/>
<path transform="matrix(1.00006,0,0,-1.00002,18.102044,56.45289)" stroke-width=".79701" stroke-linecap="butt" stroke-miterlimit="10" stroke-linejoin="miter" fill="none" stroke="#9999ff" d="M63.7803-5.67014 67.84906-5.82611"/>
<path transform="matrix(.9992799,.038270769,.038272297,-.99924007,84.850719,62.236818)" d="M1.70563 0 2.05464-.13252 .98071 0 2.05464 .13252Z" fill="#9999ff"/>
<path transform="matrix(1.00006,0,0,-1.00002,18.102044,56.45289)" stroke-width=".79701" stroke-linecap="butt" stroke-miterlimit="10" stroke-linejoin="miter" fill="none" stroke="#9999ff" d="M63.7803-.00084H67.8578"/>
<path transform="matrix(1.00006,0,0,-1.00002,84.8586,56.453729)" d="M1.70563 0 2.05464-.13252 .98071 0 2.05464 .13252Z" fill="#9999ff"/>
<path transform="matrix(1.00006,0,0,-1.00002,18.102044,56.45289)" stroke-width=".79701" stroke-linecap="butt" stroke-miterlimit="10" stroke-linejoin="miter" fill="none" stroke="#9999ff" d="M63.7803 5.6684 67.84906 5.8226"/>
<path transform="matrix(.9992999,-.037830756,-.037832269,-.99926,84.85071,50.671976)" d="M1.70563 0 2.05464-.13252 .98071 0 2.05464 .13252Z" fill="#9999ff"/>
<path transform="matrix(1.00006,0,0,-1.00002,18.102044,56.45289)" stroke-width=".79701" stroke-linecap="butt" stroke-miterlimit="10" stroke-linejoin="miter" fill="none" stroke="#9999ff" d="M63.7803 11.33768 67.82008 11.8794"/>
<path transform="matrix(.9911294,-.13287267,-.13287798,-.9910898,84.830738,44.720117)" d="M1.70563 0 2.05464-.13252 .98071 0 2.05464 .13252Z" fill="#9999ff"/>
<path transform="matrix(1.00006,0,0,-1.00002,18.102044,56.45289)" stroke-width=".79701" stroke-linecap="butt" stroke-miterlimit="10" stroke-linejoin="miter" fill="none" stroke="#9999ff" d="M63.7803 17.00694 67.75298 17.91844"/>
<path transform="matrix(.9746784,-.22365448,-.2236634,-.9746395,84.781818,38.781274)" d="M1.70563 0 2.05464-.13252 .98071 0 2.05464 .13252Z" fill="#9999ff"/>
<path transform="matrix(1.00006,0,0,-1.00002,18.102044,56.45289)" stroke-width=".79701" stroke-linecap="butt" stroke-miterlimit="10" stroke-linejoin="miter" fill="none" stroke="#9999ff" d="M63.7803 22.67622 67.75296 23.59082"/>
<path transform="matrix(.9745484,-.22433448,-.22434345,-.9745095,84.781948,33.109544)" d="M1.70563 0 2.05464-.13252 .98071 0 2.05464 .13252Z" fill="#9999ff"/>
<path transform="matrix(1.00006,0,0,-1.00002,18.102044,56.45289)" stroke-width=".79701" stroke-linecap="butt" stroke-miterlimit="10" stroke-linejoin="miter" fill="none" stroke="#9999ff" d="M63.7803 28.34549H67.8578"/>
<path transform="matrix(1.00006,0,0,-1.00002,84.8586,28.10683)" d="M1.70563 0 2.05464-.13252 .98071 0 2.05464 .13252Z" fill="#9999ff"/>
<path transform="matrix(1.00006,0,0,-1.00002,18.102044,56.45289)" stroke-width=".79701" stroke-linecap="butt" stroke-miterlimit="10" stroke-linejoin="miter" fill="none" stroke="#9999ff" d="M63.7803 34.01477 67.22278 31.83356"/>
<path transform="matrix(.84472069,.5352107,.53523209,-.8446869,84.39522,24.02716)" d="M1.70563 0 2.05464-.13252 .98071 0 2.05464 .13252Z" fill="#9999ff"/>
<path transform="matrix(1.00006,0,0,-1.00002,18.102044,56.45289)" stroke-width=".79701" stroke-linecap="butt" stroke-miterlimit="10" stroke-linejoin="miter" fill="none" stroke="#9999ff" d="M63.7803 39.68404 65.69394 36.08383"/>
<path transform="matrix(.46937815,.8830177,.88305297,-.4693594,83.28115,19.392376)" d="M1.70563 0 2.05464-.13252 .98071 0 2.05464 .13252Z" fill="#9999ff"/>
<path transform="matrix(1.00006,0,0,-1.00002,18.102044,56.45289)" stroke-width=".79701" stroke-linecap="butt" stroke-miterlimit="10" stroke-linejoin="miter" fill="none" stroke="#9999ff" d="M63.7803 45.35332 64.77089 41.39803"/>
<path transform="matrix(.24295457,.9700394,.9700782,-.24294487,82.608318,13.981899)" d="M1.70563 0 2.05464-.13252 .98071 0 2.05464 .13252Z" fill="#9999ff"/>
<path transform="matrix(1.00006,0,0,-1.00002,18.102044,56.45289)" stroke-width=".79701" stroke-linecap="butt" stroke-miterlimit="10" stroke-linejoin="miter" fill="none" stroke="#9999ff" d="M70.867-45.35506 71.85715-41.39975"/>
<path transform="matrix(.24284455,-.9700694,-.97010818,-.24283485,89.69512,98.925647)" d="M1.70563 0 2.05464-.13252 .98071 0 2.05464 .13252Z" fill="#9999ff"/>
<path transform="matrix(1.00006,0,0,-1.00002,18.102044,56.45289)" stroke-width=".79701" stroke-linecap="butt" stroke-miterlimit="10" stroke-linejoin="miter" fill="none" stroke="#9999ff" d="M70.867-39.68578 72.77756-36.08597"/>
<path transform="matrix(.4688081,-.8833077,-.883343,-.4687894,90.36583,93.51586)" d="M1.70563 0 2.05464-.13252 .98071 0 2.05464 .13252Z" fill="#9999ff"/>
<path transform="matrix(1.00006,0,0,-1.00002,18.102044,56.45289)" stroke-width=".79701" stroke-linecap="butt" stroke-miterlimit="10" stroke-linejoin="miter" fill="none" stroke="#9999ff" d="M70.867-34.0165 74.30951-31.83794"/>
<path transform="matrix(.84502068,-.5347507,-.53477206,-.8449869,91.482059,88.88249)" d="M1.70563 0 2.05464-.13252 .98071 0 2.05464 .13252Z" fill="#9999ff"/>
<path transform="matrix(1.00006,0,0,-1.00002,18.102044,56.45289)" stroke-width=".79701" stroke-linecap="butt" stroke-miterlimit="10" stroke-linejoin="miter" fill="none" stroke="#9999ff" d="M70.867-28.34723H74.94452"/>
<path transform="matrix(1.00006,0,0,-1.00002,91.94572,84.80069)" d="M1.70563 0 2.05464-.13252 .98071 0 2.05464 .13252Z" fill="#9999ff"/>
<path transform="matrix(1.00006,0,0,-1.00002,18.102044,56.45289)" stroke-width=".79701" stroke-linecap="butt" stroke-miterlimit="10" stroke-linejoin="miter" fill="none" stroke="#9999ff" d="M70.867-22.67795 74.83965-23.593"/>
<path transform="matrix(.9745184,.2244645,.22447346,-.9744795,91.869098,79.79828)" d="M1.70563 0 2.05464-.13252 .98071 0 2.05464 .13252Z" fill="#9999ff"/>
<path transform="matrix(1.00006,0,0,-1.00002,18.102044,56.45289)" stroke-width=".79701" stroke-linecap="butt" stroke-miterlimit="10" stroke-linejoin="miter" fill="none" stroke="#9999ff" d="M70.867-17.00868 74.83965-17.92374"/>
<path transform="matrix(.9745184,.2244645,.22447346,-.9744795,91.869098,74.12891)" d="M1.70563 0 2.05464-.13252 .98071 0 2.05464 .13252Z" fill="#9999ff"/>
<path transform="matrix(1.00006,0,0,-1.00002,18.102044,56.45289)" stroke-width=".79701" stroke-linecap="butt" stroke-miterlimit="10" stroke-linejoin="miter" fill="none" stroke="#9999ff" d="M70.867-11.3394 74.90677-11.88246"/>
<path transform="matrix(.9910894,.13320267,.13320799,-.9910498,91.9179,68.188388)" d="M1.70563 0 2.05464-.13252 .98071 0 2.05464 .13252Z" fill="#9999ff"/>
<path transform="matrix(1.00006,0,0,-1.00002,18.102044,56.45289)" stroke-width=".79701" stroke-linecap="butt" stroke-miterlimit="10" stroke-linejoin="miter" fill="none" stroke="#9999ff" d="M70.867-5.67014 74.93578-5.82611"/>
<path transform="matrix(.9992799,.038270769,.038272297,-.99924007,91.93785,62.236818)" d="M1.70563 0 2.05464-.13252 .98071 0 2.05464 .13252Z" fill="#9999ff"/>
<path transform="matrix(1.00006,0,0,-1.00002,18.102044,56.45289)" stroke-width=".79701" stroke-linecap="butt" stroke-miterlimit="10" stroke-linejoin="miter" fill="none" stroke="#9999ff" d="M70.867-.00084H74.94452"/>
<path transform="matrix(1.00006,0,0,-1.00002,91.94572,56.453729)" d="M1.70563 0 2.05464-.13252 .98071 0 2.05464 .13252Z" fill="#9999ff"/>
<path transform="matrix(1.00006,0,0,-1.00002,18.102044,56.45289)" stroke-width=".79701" stroke-linecap="butt" stroke-miterlimit="10" stroke-linejoin="miter" fill="none" stroke="#9999ff" d="M70.867 5.6684 74.93578 5.8226"/>
<path transform="matrix(.9992999,-.037830756,-.037832269,-.99926,91.93783,50.671976)" d="M1.70563 0 2.05464-.13252 .98071 0 2.05464 .13252Z" fill="#9999ff"/>
<path transform="matrix(1.00006,0,0,-1.00002,18.102044,56.45289)" stroke-width=".79701" stroke-linecap="butt" stroke-miterlimit="10" stroke-linejoin="miter" fill="none" stroke="#9999ff" d="M70.867 11.33768 74.90678 11.8794"/>
<path transform="matrix(.9911294,-.13287267,-.13287798,-.9910898,91.91786,44.720117)" d="M1.70563 0 2.05464-.13252 .98071 0 2.05464 .13252Z" fill="#9999ff"/>
<path transform="matrix(1.00006,0,0,-1.00002,18.102044,56.45289)" stroke-width=".79701" stroke-linecap="butt" stroke-miterlimit="10" stroke-linejoin="miter" fill="none" stroke="#9999ff" d="M70.867 17.00694 74.83968 17.91844"/>
<path transform="matrix(.9746784,-.22365448,-.2236634,-.9746395,91.868938,38.781274)" d="M1.70563 0 2.05464-.13252 .98071 0 2.05464 .13252Z" fill="#9999ff"/>
<path transform="matrix(1.00006,0,0,-1.00002,18.102044,56.45289)" stroke-width=".79701" stroke-linecap="butt" stroke-miterlimit="10" stroke-linejoin="miter" fill="none" stroke="#9999ff" d="M70.867 22.67622 74.83966 23.59082"/>
<path transform="matrix(.9745484,-.22433448,-.22434345,-.9745095,91.86907,33.109544)" d="M1.70563 0 2.05464-.13252 .98071 0 2.05464 .13252Z" fill="#9999ff"/>
<path transform="matrix(1.00006,0,0,-1.00002,18.102044,56.45289)" stroke-width=".79701" stroke-linecap="butt" stroke-miterlimit="10" stroke-linejoin="miter" fill="none" stroke="#9999ff" d="M70.867 28.34549H74.94452"/>
<path transform="matrix(1.00006,0,0,-1.00002,91.94572,28.10683)" d="M1.70563 0 2.05464-.13252 .98071 0 2.05464 .13252Z" fill="#9999ff"/>
<path transform="matrix(1.00006,0,0,-1.00002,18.102044,56.45289)" stroke-width=".79701" stroke-linecap="butt" stroke-miterlimit="10" stroke-linejoin="miter" fill="none" stroke="#9999ff" d="M70.867 34.01477 74.30948 31.83356"/>
<path transform="matrix(.84472069,.5352107,.53523209,-.8446869,91.48237,24.02716)" d="M1.70563 0 2.05464-.13252 .98071 0 2.05464 .13252Z" fill="#9999ff"/>
<path transform="matrix(1.00006,0,0,-1.00002,18.102044,56.45289)" stroke-width=".79701" stroke-linecap="butt" stroke-miterlimit="10" stroke-linejoin="miter" fill="none" stroke="#9999ff" d="M70.867 39.68404 72.78065 36.08383"/>
<path transform="matrix(.46937815,.8830177,.88305297,-.4693594,90.36829,19.392376)" d="M1.70563 0 2.05464-.13252 .98071 0 2.05464 .13252Z" fill="#9999ff"/>
<path transform="matrix(1.00006,0,0,-1.00002,18.102044,56.45289)" stroke-width=".79701" stroke-linecap="butt" stroke-miterlimit="10" stroke-linejoin="miter" fill="none" stroke="#9999ff" d="M70.867 45.35332 71.8576 41.39803"/>
<path transform="matrix(.24295457,.9700394,.9700782,-.24294487,89.69544,13.981899)" d="M1.70563 0 2.05464-.13252 .98071 0 2.05464 .13252Z" fill="#9999ff"/>
</svg>
