<svg xmlns="http://www.w3.org/2000/svg" xmlns:xlink="http://www.w3.org/1999/xlink" version="1.1" width="91" height="65" viewBox="0 0 91 65">
<defs>
<path id="font_1_1" d="M.6589966 .23046875C.6759949 .23046875 .69400027 .23046875 .69400027 .25045777 .69400027 .27046205 .6759949 .27046205 .6589966 .27046205H.117996219C.100997928 .27046205 .08299255 .27046205 .08299255 .25045777 .08299255 .23046875 .100997928 .23046875 .117996219 .23046875H.6589966Z"/>
<path id="font_2_2" d="M.2939911 .16503906V.07800293C.2939911 .041992189 .2919922 .0309906 .21798706 .0309906H.19699097V0C.23799134 .0029907227 .2899933 .0029907227 .33198548 .0029907227 .37399293 .0029907227 .4269867 .0029907227 .46798707 0V.0309906H.44699098C.37298585 .0309906 .37098695 .041992189 .37098695 .07800293V.16503906H.47099305V.19602967H.37098695V.65075686C.37098695 .67074587 .37098695 .6767578 .35499574 .6767578 .34599305 .6767578 .34298707 .6767578 .33499146 .66474917L.027999878 .19602967V.16503906H.2939911M.2999878 .19602967H.055999757L.2999878 .5688019V.19602967Z"/>
<path id="font_2_1" d="M.1269989 .07699585 .23298645 .18003845C.3889923 .31811524 .44898988 .3721466 .44898988 .47216798 .44898988 .5860901 .35899354 .6660156 .23699951 .6660156 .12399292 .6660156 .049987794 .57411196 .049987794 .48516847 .049987794 .4291687 .099990848 .4291687 .102996829 .4291687 .11999512 .4291687 .15499878 .44117738 .15499878 .48217774 .15499878 .5081787 .13699341 .5341797 .101989749 .5341797 .09399414 .5341797 .09199524 .5341797 .08898926 .5331726 .11199951 .59806826 .1659851 .63500979 .22399903 .63500979 .31498719 .63500979 .35798646 .5541382 .35798646 .47216798 .35798646 .39215089 .30799867 .31311036 .25299073 .25108338L.06098938 .036987306C.049987794 .025985718 .049987794 .023986817 .049987794 0H.42099L.44898988 .17404175H.42399598C.4189911 .14402771 .4119873 .1000061 .4019928 .084991458 .394989 .07699585 .32899476 .07699585 .30699159 .07699585H.1269989Z"/>
<path id="font_2_3" d="M.13198853 .327713V.35173036C.13198853 .6047821 .2559967 .64100649 .30699159 .64100649 .33099366 .64100649 .37298585 .634964 .394989 .6007538 .37998963 .6007538 .33999635 .6007538 .33999635 .5557556 .33999635 .524765 .3639984 .5097656 .38598634 .5097656 .4019928 .5097656 .43199159 .51875308 .43199159 .5577545 .43199159 .6178589 .3880005 .6660156 .30499269 .6660156 .1769867 .6660156 .041992189 .5367584 .041992189 .31570436 .041992189 .048553468 .1579895-.022460938 .25099183-.022460938 .3619995-.022460938 .45700074 .07156372 .45700074 .2036438 .45700074 .33070375 .36799623 .4267578 .25698854 .4267578 .18899536 .4267578 .1519928 .37573243 .13198853 .327713M.25099183 .0055389406C.18798828 .0055389406 .1579895 .06556702 .1519928 .080566409 .13398743 .127594 .13398743 .2076416 .13398743 .22564698 .13398743 .30369569 .1659851 .40374757 .2559967 .40374757 .27198792 .40374757 .31799317 .40374757 .34899903 .34172059 .36698915 .30470277 .36698915 .2536621 .36698915 .20463562 .36698915 .15661621 .36698915 .10658264 .34999085 .0705719 .31999208 .010528564 .27398683 .0055389406 .25099183 .0055389406Z"/>
<clipPath id="clip_3">
<path transform="matrix(1.00005,0,0,-1.00002,2.4006654,63.750036)" d="M0 0H87.63179V59.30367H0Z"/>
</clipPath>
<path id="font_4_1" d="M.18699646 .23144531C.21598816 .23144531 .2899933 .23344422 .33999635 .2544403 .4099884 .28442384 .4149933 .34339906 .4149933 .35740663 .4149933 .40138246 .3769989 .4423828 .30799867 .4423828 .19699097 .4423828 .04598999 .34539796 .04598999 .17037964 .04598999 .06829834 .10499573-.0107421879 .20298767-.0107421879 .34599305-.0107421879 .42999269 .095321658 .42999269 .10733032 .42999269 .113342288 .42399598 .12034607 .41799928 .12034607 .41299439 .12034607 .41099549 .11834717 .40499879 .1103363 .32598878 .011245728 .21699524 .011245728 .20498657 .011245728 .1269989 .011245728 .117996219 .095321658 .117996219 .12734986 .117996219 .13935852 .11898804 .17037964 .13398743 .23144531H.18699646M.13999939 .25343324C.1789856 .40538026 .28199769 .42037965 .30799867 .42037965 .35499574 .42037965 .38198854 .39138795 .38198854 .35740663 .38198854 .25343324 .22200012 .25343324 .18099976 .25343324H.13999939Z"/>
<path id="font_5_1" d="M.22099304 .3976593H.31900025C.33799745 .3976593 .34999085 .3976593 .34999085 .4166565 .34999085 .43066407 .33699037 .43066407 .31999208 .43066407H.22898865L.2649994 .57250979C.2689972 .58750918 .2689972 .5924988 .2689972 .5934906 .2689972 .6144867 .25299073 .6244812 .23599243 .6244812 .20199585 .6244812 .19499207 .5974884 .18399048 .552536L.15299988 .43066407H.056991579C.037994386 .43066407 .024993897 .43066407 .024993897 .4116516 .024993897 .3976593 .037994386 .3976593 .054992677 .3976593H.14498902L.084991458 .15802002C.07899475 .13305664 .069992069 .09811401 .069992069 .084121707 .069992069 .024215699 .11898804-.009765625 .17199707-.009765625 .2789917-.009765625 .33999635 .13105774 .33999635 .14303589 .33999635 .15402222 .33099366 .15602112 .32499696 .15602112 .31399537 .15602112 .31298829 .15202332 .30599977 .13705445 .28599549 .08912659 .23599243 .018234253 .1749878 .018234253 .1539917 .018234253 .14199829 .032211305 .14199829 .06515503 .14199829 .084121707 .14498902 .09510803 .147995 .10809326L.22099304 .3976593Z"/>
</defs>
<path transform="matrix(1.00005,0,0,-1.00002,2.4006654,63.750036)" stroke-width=".19925" stroke-linecap="butt" stroke-miterlimit="10" stroke-linejoin="miter" fill="none" stroke="#929292" d="M4.86842 17.64188V21.89388M24.34216 17.64188V21.89388M63.28963 17.64188V21.89388M82.76337 17.64188V21.89388"/>
<path transform="matrix(1.00005,0,0,-1.00002,2.4006654,63.750036)" stroke-width=".19925" stroke-linecap="butt" stroke-miterlimit="10" stroke-linejoin="miter" fill="none" stroke="#929292" d="M41.68991 6.5893H45.94186M41.68991 32.94649H45.94186M41.68991 46.12508H45.94186M41.68991 59.30367H45.94186"/>
<path transform="matrix(1.00005,0,0,-1.00002,2.4006654,63.750036)" stroke-width=".3985" stroke-linecap="butt" stroke-miterlimit="10" stroke-linejoin="miter" fill="none" stroke="#000000" d="M0 19.76788H85.63927"/>
<path transform="matrix(1.00005,0,0,-1.00002,88.04421,43.98176)" d="M1.99252 0-1.19551 1.59401 0 0-1.19551-1.59401"/>
<path transform="matrix(1.00005,0,0,-1.00002,2.4006654,63.750036)" stroke-width=".3985" stroke-linecap="butt" stroke-miterlimit="10" stroke-linejoin="miter" fill="none" stroke="#000000" d="M43.81589 0V57.31114"/>
<path transform="matrix(0,-1.00002,-1.00005,-0,46.218748,6.437748)" d="M1.99252 0-1.19551 1.59401 0 0-1.19551-1.59401"/>
<use data-text="&#x2212;" xlink:href="#font_1_1" transform="matrix(9.963098,0,0,-9.962799,.90358737,56.363889)"/>
<use data-text="4" xlink:href="#font_2_2" transform="matrix(9.963098,0,0,-9.962799,8.652977,56.363889)"/>
<use data-text="&#x2212;" xlink:href="#font_1_1" transform="matrix(9.963098,0,0,-9.962799,20.378563,56.363889)"/>
<use data-text="2" xlink:href="#font_2_1" transform="matrix(9.963098,0,0,-9.962799,28.127953,56.363889)"/>
<use data-text="2" xlink:href="#font_2_1" transform="matrix(9.963098,0,0,-9.962799,63.2027,56.363889)"/>
<use data-text="4" xlink:href="#font_2_2" transform="matrix(9.963098,0,0,-9.962799,82.67768,56.363889)"/>
<use data-text="&#x2212;" xlink:href="#font_1_1" transform="matrix(9.963098,0,0,-9.962799,27.52592,59.95596)"/>
<use data-text="2" xlink:href="#font_2_1" transform="matrix(9.963098,0,0,-9.962799,35.27531,59.95596)"/>
<use data-text="2" xlink:href="#font_2_1" transform="matrix(9.963098,0,0,-9.962799,35.275308,34.01344)"/>
<use data-text="4" xlink:href="#font_2_2" transform="matrix(9.963098,0,0,-9.962799,35.275308,20.834176)"/>
<use data-text="6" xlink:href="#font_2_3" transform="matrix(9.963098,0,0,-9.962799,35.275308,7.6559145)"/>
<g clip-path="url(#clip_3)">
<path transform="matrix(1.00005,0,0,-1.00002,2.4006654,63.750036)" stroke-width="1.19553" stroke-linecap="butt" stroke-miterlimit="10" stroke-linejoin="miter" fill="none" stroke="#ff0000" d="M0 19.84106 .88516 19.84804 1.77032 19.85568 2.65549 19.86403 3.54065 19.87317 4.42584 19.8832 5.311 19.89417 6.19617 19.90619 7.08133 19.91936 7.96649 19.93376 8.85168 19.94957 9.73685 19.96684 10.62201 19.9858 11.50717 20.00653 12.39233 20.02924 13.27753 20.05411 14.16269 20.08134 15.04785 20.11119 15.93301 20.14386 16.8182 20.17963 17.70337 20.21883 18.58853 20.26173 19.4737 20.30875 20.35886 20.36023 21.24405 20.41658 22.12921 20.47833 23.01437 20.54562 23.89954 20.62 24.7847 20.70113 25.66989 20.79015 26.55505 20.88693 27.44022 20.99374 28.32538 21.11038 29.21056 21.23822 30.09573 21.37798 30.9809 21.5315 31.86606 21.69966 32.75122 21.88284 33.63641 22.08455 34.52158 22.30536 35.40674 22.54652 36.2919 22.81082 37.17706 23.10081 38.06226 23.41782 38.94742 23.76521 39.83258 24.14548 40.71774 24.56206 41.6029 25.01883 42.4881 25.51843 43.37326 26.06541 44.25842 26.66357 45.14359 27.31961 46.02878 28.03838 46.91394 28.82533 47.7991 29.68741 48.68427 30.63164 49.56943 31.66504 50.45462 32.79729 51.33978 34.0372 52.22495 35.39545 53.1101 36.88278 53.99527 38.51173 54.88046 40.29526 55.76563 42.24884 56.65079 44.38866 57.53595 46.73148 58.42111 49.29848 59.3063 52.10776 60.19147 55.18568 61.07663 58.5563 61.96179 62.24782 62.84698 66.2905 63.73215 70.7187 64.61731 75.56789 65.50247 80.87813 66.38763 86.69537 67.27283 93.06525 68.15799 100.04002 69.04315 107.67702 69.92831 116.04543 70.81348 125.20718 71.69867 135.24268 72.58383 146.22968 73.469 158.26634 74.35416 171.44757 75.23933 185.8821 76.12451 201.69179 77.00967 219.00519 77.89484 237.96323 78.78 258.72944 79.66519 281.4737 80.55035 306.3773 81.43552 333.65238 82.32068 363.5322 83.20584 396.24476 84.09103 432.07737 84.9762 471.30937 85.86136 514.2861 86.74652 561.35678 87.6317 612.8837"/>
<use data-text="e" xlink:href="#font_4_1" transform="matrix(13.091574,0,0,-13.091183,72.24376,19.645756)"/>
<use data-text="t" xlink:href="#font_5_1" transform="matrix(9.564598,0,0,-9.564312,78.340068,14.894863)"/>
</g>
</svg>
