<svg xmlns="http://www.w3.org/2000/svg" xmlns:xlink="http://www.w3.org/1999/xlink" version="1.1" width="155" height="67" viewBox="0 0 155 67">
<defs>
<path id="font_1_1" d="M.6349945 .2529297V.31092835H.084991458V.2529297H.6349945Z"/>
<path id="font_2_2" d="M.4850006 .13195801 .45700074 .13696289C.43598939 .08299255 .41600038 .07598877 .37599183 .07598877H.11999512C.13598633 .1279602 .19499207 .19892884 .28799439 .2658844 .38398744 .33584596 .45799256 .38082887 .45799256 .49276734 .45799256 .63168337 .3659973 .6796875 .26098634 .6796875 .12399292 .6796875 .052993776 .5967102 .052993776 .54473879 .052993776 .51075747 .09098816 .49476625 .10798645 .49476625 .12599182 .49476625 .1329956 .50476077 .13699341 .5217438 .15299988 .5897064 .19198609 .64468386 .2539978 .64468386 .33099366 .64468386 .35299684 .5797119 .35299684 .50675967 .35299684 .3998108 .29899598 .33984376 .21199036 .26289369 .08898926 .15594483 .04598999 .08798218 .026992798 .009994507L.036987306 0H.45098878L.4850006 .13195801Z"/>
<path id="font_2_1" d="M.43699647 0V.0289917L.35299684 .035995485C.33198548 .037994386 .31999208 .04598999 .31999208 .08496094V.67367556L.31498719 .6796875 .10899353 .6446991V.6197052L.20199585 .6087036C.21899414 .6067047 .22599793 .5987091 .22599793 .56973269V.08496094C.22599793 .065979007 .22299195 .053985597 .21699524 .04698181 .21199036 .039993287 .20399475 .036987306 .19299317 .035995485L.10899353 .0289917V0H.43699647Z"/>
<path id="font_2_3" d="M.2999878 .17871094V.0769043C.2999878 .04296875 .2889862 .036987306 .2649994 .034988405L.20098877 .0289917V0H.46499635V.0289917L.41999818 .033981325C.39698792 .036987306 .3899994 .04296875 .3899994 .0769043V.17871094H.49299623V.22570801H.3899994V.66796877H.31698609C.22299195 .5298767 .11099243 .35577394 .018997193 .19970703L.027999878 .17871094H.2999878M.09098816 .22570801C.15098572 .33476258 .22099304 .4498291 .2979889 .5709076H.2999878V.22570801H.09098816Z"/>
<clipPath id="clip_3">
<path transform="matrix(1,0,0,-1.00005,1.0930023,63.23436)" d="M0 0H152.14139V61.43271H0Z"/>
</clipPath>
<path id="font_4_1" d="M.42799378 .45222474 .43899537 .49023438H.31199647L.34599305 .6092224 .33399964 .6162262 .23699951 .53923037 .22399903 .49023438H.14299011L.13198853 .45222474H.21499634L.125 .08627319C.10998535 .029266358 .12199402-.01171875 .17199707-.01171875 .2519989-.01171875 .31599427 .054275514 .35598756 .1292572L.33399964 .1462555C.31098939 .10726929 .2599945 .040267946 .22898865 .040267946 .20799256 .040267946 .20799256 .0632782 .21398926 .088272098L.30299378 .45222474H.42799378Z"/>
<path id="font_4_2" d="M.070999149 .45393373 .07398987 .42893983 .14199829 .43093873C.1639862 .43193055 .16899109 .41493226 .1769867 .36291505 .18798828 .28489686 .20999146 .09286499 .20999146 .0128479 .20999146-.017166138 .20799256-.058166505 .18598938-.11117554 .16799927-.15318299 .14199829-.18218994 .12199402-.18218994 .10699463-.18218994 .09599304-.17118836 .08099365-.15118408 .068984989-.13517761 .06098938-.127182 .04598999-.127182 .019989014-.12818909-.005004883-.15818787-.005004883-.18719483-.005004883-.21418762 .023986817-.2421875 .067993167-.2421875 .15299988-.2421875 .18998719-.17919922 .27799989-.027160645 .2979889 .0068511965 .35798646 .11286926 .41999818 .21488953 .47698976 .30891419 .5399933 .40592958 .5399933 .4459381 .5399933 .48094178 .5289917 .5019531 .5219879 .5019531 .5029907 .5019531 .46899415 .49394227 .44400025 .47694398 .44499208 .4419403 .44299317 .3809204 .43099977 .33891297 .4149933 .28289796 .35598756 .17488098 .2899933 .06085205H.2869873C.27999879 .21388245 .26098634 .42492677 .24699402 .49795533L.23899842 .5019531 .070999149 .45393373Z"/>
</defs>
<path transform="matrix(1,0,0,-1.00005,1.0930023,63.23436)" stroke-width=".19925" stroke-linecap="butt" stroke-miterlimit="10" stroke-linejoin="miter" fill="none" stroke="#929292" d="M30.42827 9.11389V11.94873M60.85655 9.11389V11.94873M91.28484 9.11389V11.94873M121.71312 9.11389V11.94873"/>
<path transform="matrix(1,0,0,-1.00005,1.0930023,63.23436)" stroke-width=".19925" stroke-linecap="butt" stroke-miterlimit="10" stroke-linejoin="miter" fill="none" stroke="#929292" d="M15.21413 8.4054V12.65723M45.64241 8.4054V12.65723M106.49898 8.4054V12.65723M136.92725 8.4054V12.65723"/>
<path transform="matrix(1,0,0,-1.00005,1.0930023,63.23436)" stroke-width=".19925" stroke-linecap="butt" stroke-miterlimit="10" stroke-linejoin="miter" fill="none" stroke="#929292" d="M74.65329 1.75522H77.48811M74.65329 19.30742H77.48811M74.65329 36.85962H77.48811M74.65329 54.41182H77.48811"/>
<path transform="matrix(1,0,0,-1.00005,1.0930023,63.23436)" stroke-width=".19925" stroke-linecap="butt" stroke-miterlimit="10" stroke-linejoin="miter" fill="none" stroke="#929292" d="M73.9448 28.08353H78.19658M73.9448 45.63573H78.19658"/>
<path transform="matrix(1,0,0,-1.00005,1.0930023,63.23436)" stroke-width=".3985" stroke-linecap="butt" stroke-miterlimit="10" stroke-linejoin="miter" fill="none" stroke="#000000" d="M0 10.53131H150.14887"/>
<path transform="matrix(1,0,0,-1.00005,151.24187,52.702524)" d="M1.99252 0-1.19551 1.59401 0 0-1.19551-1.59401"/>
<path transform="matrix(1,0,0,-1.00005,1.0930023,63.23436)" stroke-width=".3985" stroke-linecap="butt" stroke-miterlimit="10" stroke-linejoin="miter" fill="none" stroke="#000000" d="M76.0707 0V59.44019"/>
<path transform="matrix(0,-1.00005,-1,-0,77.163707,3.7912026)" d="M1.99252 0-1.19551 1.59401 0 0-1.19551-1.59401"/>
<use data-text="&#x2212;" xlink:href="#font_1_1" transform="matrix(10.9988,0,0,-10.99935,9.433002,65.592479)"/>
<use data-text="2" xlink:href="#font_2_2" transform="matrix(10.9988,0,0,-10.99935,17.347004,65.592479)"/>
<use data-text="&#x2212;" xlink:href="#font_1_1" transform="matrix(10.9988,0,0,-10.99935,39.861005,65.592479)"/>
<use data-text="1" xlink:href="#font_2_1" transform="matrix(10.9988,0,0,-10.99935,47.775007,65.592479)"/>
<use data-text="1" xlink:href="#font_2_1" transform="matrix(10.9988,0,0,-10.99935,104.675,65.592479)"/>
<use data-text="2" xlink:href="#font_2_2" transform="matrix(10.9988,0,0,-10.99935,135.103,65.592479)"/>
<use data-text="2" xlink:href="#font_2_2" transform="matrix(10.9988,0,0,-10.99935,65.805,38.83214)"/>
<use data-text="4" xlink:href="#font_2_3" transform="matrix(10.9988,0,0,-10.99935,65.805,21.279267)"/>
<g clip-path="url(#clip_3)">
<path transform="matrix(1,0,0,-1.00005,1.0930023,63.23436)" stroke-width=".79701" stroke-linecap="butt" stroke-dasharray="2.98883,2.98883" stroke-miterlimit="10" stroke-linejoin="miter" fill="none" stroke="#0000ff" d="M76.0707 19.30742 77.15738 19.62625 78.24406 19.95702 79.33073 20.29973 80.41742 20.65454 81.5041 21.02287 82.59079 21.40419 83.67747 21.79956 84.76418 22.20905 85.85086 22.63354 86.93753 23.07367 88.02422 23.5296 89.1109 24.00209 90.19759 24.49197 91.28427 24.99933 92.37096 25.52554 93.45766 26.07054 94.54433 26.63545 95.63101 27.22108 96.7177 27.82787 97.80438 28.45622 98.89107 29.10846 99.97775 29.78406 101.06445 30.48361 102.15112 31.20921 103.23781 31.96053 104.3245 32.74011 105.41118 33.54724 106.49786 34.38371 107.58455 35.25148 108.67125 36.15024 109.75792 37.0812 110.8446 38.04657 111.93129 39.04723 113.01797 40.08395 114.10466 41.15805 115.19135 42.27158 116.27805 43.42616 117.36472 44.62146 118.4514 45.86066 119.53809 47.14574 120.62477 48.47672 121.71146 49.85667 122.79814 51.28647 123.88484 52.76753 124.9715 54.30334 126.0582 55.89462 127.14488 57.54321 128.23157 59.25307 129.31826 61.0247"/>
</g>
<path transform="matrix(1,0,0,-1.00005,1.0930023,63.23436)" stroke-width=".3985" stroke-linecap="butt" stroke-miterlimit="10" stroke-linejoin="miter" fill="none" stroke="#000000" d="M78.06325 19.30742C78.06325 20.40788 77.17116 21.29997 76.0707 21.29997 74.97021 21.29997 74.07814 20.40788 74.07814 19.30742 74.07814 18.20694 74.97021 17.31487 76.0707 17.31487 77.17116 17.31487 78.06325 18.20694 78.06325 19.30742ZM76.0707 19.30742"/>
<path transform="matrix(1,0,0,-1.00005,1.0930023,63.23436)" stroke-width=".3985" stroke-linecap="butt" stroke-miterlimit="10" stroke-linejoin="miter" fill="none" stroke="#000000" d="M85.67032 21.50145C85.67032 22.60191 84.77823 23.494 83.67776 23.494 82.57729 23.494 81.68521 22.60191 81.68521 21.50145 81.68521 20.40097 82.57729 19.5089 83.67776 19.5089 84.77823 19.5089 85.67032 20.40097 85.67032 21.50145ZM83.67776 21.50145"/>
<path transform="matrix(1,0,0,-1.00005,1.0930023,63.23436)" stroke-width=".3985" stroke-linecap="butt" stroke-miterlimit="10" stroke-linejoin="miter" fill="none" stroke="#000000" d="M93.27739 24.24397C93.27739 25.34444 92.3853 26.23653 91.28484 26.23653 90.18436 26.23653 89.29228 25.34444 89.29228 24.24397 89.29228 23.1435 90.18436 22.25142 91.28484 22.25142 92.3853 22.25142 93.27739 23.1435 93.27739 24.24397ZM91.28484 24.24397"/>
<path transform="matrix(1,0,0,-1.00005,1.0930023,63.23436)" stroke-width=".3985" stroke-linecap="butt" stroke-miterlimit="10" stroke-linejoin="miter" fill="none" stroke="#000000" d="M100.88446 27.67213C100.88446 28.77261 99.99237 29.66469 98.8919 29.66469 97.79143 29.66469 96.89935 28.77261 96.89935 27.67213 96.89935 26.57167 97.79143 25.67958 98.8919 25.67958 99.99237 25.67958 100.88446 26.57167 100.88446 27.67213ZM98.8919 27.67213"/>
<path transform="matrix(1,0,0,-1.00005,1.0930023,63.23436)" stroke-width=".3985" stroke-linecap="butt" stroke-miterlimit="10" stroke-linejoin="miter" fill="none" stroke="#000000" d="M108.49153 31.95734C108.49153 33.0578 107.59944 33.94989 106.49898 33.94989 105.3985 33.94989 104.50642 33.0578 104.50642 31.95734 104.50642 30.85686 105.3985 29.96478 106.49898 29.96478 107.59944 29.96478 108.49153 30.85686 108.49153 31.95734ZM106.49898 31.95734"/>
<path transform="matrix(1,0,0,-1.00005,1.0930023,63.23436)" stroke-width=".3985" stroke-linecap="butt" stroke-miterlimit="10" stroke-linejoin="miter" fill="none" stroke="#000000" d="M116.0986 37.31384C116.0986 38.4143 115.20651 39.3064 114.10605 39.3064 113.00557 39.3064 112.1135 38.4143 112.1135 37.31384 112.1135 36.21336 113.00557 35.32129 114.10605 35.32129 115.20651 35.32129 116.0986 36.21336 116.0986 37.31384ZM114.10605 37.31384"/>
<path transform="matrix(1,0,0,-1.00005,1.0930023,63.23436)" stroke-width=".3985" stroke-linecap="butt" stroke-miterlimit="10" stroke-linejoin="miter" fill="none" stroke="#000000" d="M123.70567 44.00948C123.70567 45.10995 122.81358 46.00203 121.71312 46.00203 120.61264 46.00203 119.72057 45.10995 119.72057 44.00948 119.72057 42.90901 120.61264 42.01692 121.71312 42.01692 122.81358 42.01692 123.70567 42.90901 123.70567 44.00948ZM121.71312 44.00948"/>
<path transform="matrix(1,0,0,-1.00005,1.0930023,63.23436)" stroke-width=".3985" stroke-linecap="butt" stroke-miterlimit="10" stroke-linejoin="miter" fill="none" stroke="#000000" d="M131.31273 52.37901C131.31273 53.47949 130.42066 54.37157 129.32018 54.37157 128.21971 54.37157 127.32762 53.47949 127.32762 52.37901 127.32762 51.27855 128.21971 50.38646 129.32018 50.38646 130.42066 50.38646 131.31273 51.27855 131.31273 52.37901ZM129.32018 52.37901"/>
<path transform="matrix(1,0,0,-1.00005,1.0930023,63.23436)" stroke-width=".3985" stroke-linecap="butt" stroke-miterlimit="10" stroke-linejoin="miter" fill="none" stroke="#000000" d=""/>
<use data-text="t" xlink:href="#font_4_1" transform="matrix(10.9988,0,0,-10.99935,144.91,49.207658)"/>
<use data-text="y" xlink:href="#font_4_2" transform="matrix(10.9988,0,0,-10.99935,81.161,10.63773)"/>
</svg>
