<svg xmlns="http://www.w3.org/2000/svg" xmlns:xlink="http://www.w3.org/1999/xlink" version="1.1" width="237" height="85" viewBox="0 0 237 85">
<defs>
<path id="font_1_3" d="M.42799378 .45222474 .43899537 .49023438H.31199647L.34599305 .6092224 .33399964 .6162262 .23699951 .53923037 .22399903 .49023438H.14299011L.13198853 .45222474H.21499634L.125 .08627319C.10998535 .029266358 .12199402-.01171875 .17199707-.01171875 .2519989-.01171875 .31599427 .054275514 .35598756 .1292572L.33399964 .1462555C.31098939 .10726929 .2599945 .040267946 .22898865 .040267946 .20799256 .040267946 .20799256 .0632782 .21398926 .088272098L.30299378 .45222474H.42799378Z"/>
<path id="font_2_4" d="M.43699647 0V.0289917L.35299684 .035995485C.33198548 .037994386 .31999208 .04598999 .31999208 .08496094V.67367556L.31498719 .6796875 .10899353 .6446991V.6197052L.20199585 .6087036C.21899414 .6067047 .22599793 .5987091 .22599793 .56973269V.08496094C.22599793 .065979007 .22299195 .053985597 .21699524 .04698181 .21199036 .039993287 .20399475 .036987306 .19299317 .035995485L.10899353 .0289917V0H.43699647Z"/>
<path id="font_2_5" d="M.4850006 .13195801 .45700074 .13696289C.43598939 .08299255 .41600038 .07598877 .37599183 .07598877H.11999512C.13598633 .1279602 .19499207 .19892884 .28799439 .2658844 .38398744 .33584596 .45799256 .38082887 .45799256 .49276734 .45799256 .63168337 .3659973 .6796875 .26098634 .6796875 .12399292 .6796875 .052993776 .5967102 .052993776 .54473879 .052993776 .51075747 .09098816 .49476625 .10798645 .49476625 .12599182 .49476625 .1329956 .50476077 .13699341 .5217438 .15299988 .5897064 .19198609 .64468386 .2539978 .64468386 .33099366 .64468386 .35299684 .5797119 .35299684 .50675967 .35299684 .3998108 .29899598 .33984376 .21199036 .26289369 .08898926 .15594483 .04598999 .08798218 .026992798 .009994507L.036987306 0H.45098878L.4850006 .13195801Z"/>
<path id="font_2_6" d="M.12998963 .3657837C.12998963 .3487854 .1349945 .33779908 .147995 .33779908 .1599884 .33779908 .18699646 .34777833 .23498535 .34777833 .31999208 .34777833 .36799623 .27090455 .36799623 .18403626 .36799623 .065216068 .30899049 .023269654 .23799134 .023269654 .17199707 .023269654 .1289978 .07319641 .10998535 .12911988 .10398865 .14808655 .09399414 .15707398 .07998657 .15707398 .06199646 .15707398 .026992798 .13809204 .026992798 .10215759 .026992798 .05921936 .09599304-.01171875 .23699951-.01171875 .38198854-.01171875 .47299195 .06121826 .47299195 .18902588 .47299195 .32281495 .35798646 .3627777 .30299378 .3677826V.3717804C.35699464 .38078309 .44400025 .4207611 .44400025 .5197296 .44400025 .6306915 .35699464 .6796875 .25 .6796875 .117996219 .6796875 .052993776 .60369876 .052993776 .5607147 .052993776 .5297241 .08799744 .51272585 .101989749 .51272585 .114990238 .51272585 .12298584 .5197296 .1269989 .5327301 .14898682 .60069277 .18699646 .64468386 .24299622 .64468386 .32199098 .64468386 .34098817 .57470706 .34098817 .51872256 .34098817 .4587555 .31999208 .38378907 .23498535 .38378907 .18699646 .38378907 .1599884 .39378358 .147995 .39378358 .1349945 .39378358 .12998963 .38378907 .12998963 .3657837Z"/>
<path id="font_2_7" d="M.2999878 .17871094V.0769043C.2999878 .04296875 .2889862 .036987306 .2649994 .034988405L.20098877 .0289917V0H.46499635V.0289917L.41999818 .033981325C.39698792 .036987306 .3899994 .04296875 .3899994 .0769043V.17871094H.49299623V.22570801H.3899994V.66796877H.31698609C.22299195 .5298767 .11099243 .35577394 .018997193 .19970703L.027999878 .17871094H.2999878M.09098816 .22570801C.15098572 .33476258 .22099304 .4498291 .2979889 .5709076H.2999878V.22570801H.09098816Z"/>
<path id="font_2_8" d="M.42599488 .5919647 .44999696 .6599579 .44499208 .66796877H.11099243L.100997928 .65896609 .08099365 .32388307 .10499573 .31188966C.14698792 .35983277 .18798828 .3828125 .24198914 .3828125 .30599977 .3828125 .37599183 .3358612 .37599183 .20404053 .37599183 .10116577 .33399964 .023269654 .24699402 .023269654 .1769867 .023269654 .14099121 .07420349 .12098694 .13113404 .115997318 .14611817 .10699463 .15510559 .09298706 .15510559 .07299805 .15510559 .039993287 .13513184 .039993287 .10217285 .039993287 .056228639 .10998535-.01171875 .23999024-.01171875 .40499879-.01171875 .47999574 .0881958 .47999574 .21502686 .47999574 .35484315 .3919983 .4268036 .272995 .4268036 .21798706 .4268036 .15899658 .4028015 .1269989 .3738098L.125 .37580873 .147995 .56292727C.15098572 .58795168 .1579895 .5919647 .1769867 .5919647H.42599488Z"/>
<path id="font_2_9" d="M.27198792-.01171875C.41999818-.01171875 .49899293 .07821655 .49899293 .2140503 .49899293 .3488922 .4119873 .42385865 .30799867 .421875 .23199463 .42385865 .17199707 .36886598 .14498902 .33590699H.14299011C.14399719 .5557556 .20698548 .64468386 .29699708 .64468386 .34298707 .64468386 .375 .6057129 .3899994 .5487671 .3929901 .5367737 .40098573 .527771 .41600038 .527771 .43798829 .527771 .46899415 .5447693 .46899415 .57273867 .46899415 .6127014 .41999818 .6796875 .2999878 .6796875 .22099304 .6796875 .16499329 .64967349 .12298584 .6017151 .07798767 .5497589 .04399109 .45384217 .04399109 .3089447 .04399109 .093185428 .12199402-.01171875 .27198792-.01171875M.27398683 .37086488C.33699037 .37086488 .39898683 .31393434 .39898683 .19906616 .39898683 .094192508 .35798646 .023269654 .27398683 .023269654 .18699646 .023269654 .14498902 .11616516 .14498902 .23602295 .14498902 .2969513 .18998719 .37086488 .27398683 .37086488Z"/>
<path id="font_2_10" d="M.07199097 .66796877 .040985109 .5279999H.067993167L.07798767 .5489807C.09098816 .57696536 .10398865 .5919647 .14898682 .5919647H.4189911C.40899659 .5559845 .3909912 .4980011 .30999757 .38206483 .22399903 .25914 .16699219 .14718628 .16699219 .029251099 .16699219-.0037231446 .18998719-.01171875 .22099304-.01171875 .25-.01171875 .2709961-.0027313233 .269989 .026260376 .2649994 .15818787 .2919922 .26412965 .34498597 .35708619 .40899659 .46905519 .46199037 .5310211 .49699403 .65696719L.48799134 .66796877H.07199097Z"/>
<path id="font_2_11" d="M.2649994 .3380127C.34498597 .3380127 .3880005 .2700653 .3880005 .17915344 .3880005 .09121704 .34999085 .023269654 .2649994 .023269654 .18199158 .023269654 .14199829 .09121704 .14199829 .17915344 .14199829 .2700653 .18598938 .3380127 .2649994 .3380127M.2649994-.01171875C.4269867-.01171875 .48799134 .081222537 .48799134 .18214417 .48799134 .28405763 .42399598 .3420105 .35598756 .35801698V.36102296C.4169922 .37701417 .46598817 .427948 .46598817 .5098419 .46598817 .6187134 .3809967 .6796875 .2649994 .6796875 .15098572 .6796875 .06399536 .61772158 .06399536 .5098419 .06399536 .427948 .11399841 .37701417 .17399597 .36102296V.35801698C.10699463 .3420105 .041992189 .28405763 .041992189 .18214417 .041992189 .081222537 .101989749-.01171875 .2649994-.01171875M.2649994 .37402345C.19299317 .37402345 .16099549 .44392396 .16099549 .5118408 .16099549 .5887451 .19699097 .64468386 .2649994 .64468386 .33299256 .64468386 .36698915 .5887451 .36898805 .5118408 .36898805 .44392396 .33799745 .37402345 .2649994 .37402345Z"/>
<path id="font_2_12" d="M.22898865 .26757813C.29100038 .26757813 .34298707 .30256654 .3769989 .35157777H.3789978C.3789978 .28857423 .37399293 .20774842 .35598756 .13894654 .33799745 .073135379 .30299378 .023269654 .23899842 .023269654 .17098999 .023269654 .1459961 .0761261 .1309967 .12298584 .1269989 .13595581 .11999512 .1439209 .102996829 .1439209 .083999637 .1439209 .055999757 .12397766 .055999757 .09307861 .055999757 .049194337 .10899353-.01171875 .22999573-.01171875 .31098939-.01171875 .37298585 .01828003 .41099549 .071136478 .45199586 .12797547 .47698976 .2157135 .47698976 .36058045 .47698976 .48461915 .45199586 .56565859 .41299439 .6126709 .375 .6576843 .31999208 .6796875 .2559967 .6796875 .12799073 .6796875 .035995485 .5946655 .035995485 .45661927 .035995485 .3315735 .12599182 .26757813 .22898865 .26757813M.25898744 .3205719C.18099976 .3205719 .13598633 .38859559 .13598633 .48461915 .13598633 .57666018 .1769867 .64468386 .25498963 .64468386 .33499146 .64468386 .37399293 .5496521 .37399293 .45262147 .37399293 .4356079 .37298585 .41560365 .36698915 .39959718 .35099793 .35258485 .31199647 .3205719 .25898744 .3205719Z"/>
<path id="font_1_4" d="M.5329895 .48995973C.5039978 .388031 .48799134 .33506776 .46199037 .2741089 .41799928 .173172 .33099366 .040267946 .24798584 .040267946 .21598816 .040267946 .20799256 .070251468 .22299195 .12820435L.31900025 .4970703 .31399537 .50205996 .13198853 .47375489 .12599182 .4497528 .18798828 .44476319C.21199036 .44276429 .21099854 .42778016 .20298767 .39682008L.13398743 .13316345C.11299133 .053253175 .12098694-.01171875 .20098877-.01171875 .29699708-.01171875 .4019928 .09420776 .46199037 .21005249H.46398927L.43099977 .096206668C.4119873 .029266358 .42399598-.01171875 .47698976-.01171875 .548996-.01171875 .60899356 .057250978 .6439972 .13116455L.6199951 .14613343C.59999087 .11218262 .55599978 .040267946 .5279999 .040267946 .5069885 .040267946 .5069885 .06324768 .5149994 .09420776L.621994 .5019531 .5329895 .48995973Z"/>
<path id="font_1_1" d="M.42799378 .15419007C.3939972 .10821533 .33499146 .03727722 .2679901 .03727722 .19499207 .03727722 .17999268 .097229007 .17999268 .16816712 .17999268 .29808045 .25498963 .46694947 .34700013 .46694947 .3789978 .46694947 .40098573 .44696046 .40699769 .38700868 .40899659 .36901856 .41799928 .35702516 .43598939 .35702516 .45999146 .35702516 .5 .38002015 .5 .41299439 .5 .46394349 .44599916 .5019531 .37098695 .5019531 .19299317 .5019531 .08099365 .31207276 .08099365 .14819336 .08099365 .026275635 .1539917-.01171875 .22399903-.01171875 .2979889-.01171875 .3829956 .02027893 .45199586 .13519287L.42799378 .15419007Z"/>
<path id="font_2_1" d="M.1749878 .2822113C.1749878 .56832888 .2619934 .65437319 .32499696 .66737368V.6923828C.1499939 .685379 .10499573 .46829225 .10499573 .2822113 .10499573 .09614563 .1499939-.12094116 .32499696-.12792969V-.10293579C.2669983-.090927127 .1749878-.0059051516 .1749878 .2822113Z"/>
<path id="font_2_2" d="M.1749878 .2822113C.1749878-.0059051516 .08299255-.090927127 .024993897-.10293579V-.12792969C.19999695-.12094116 .24499512 .09614563 .24499512 .2822113 .24499512 .46829225 .19999695 .685379 .024993897 .6923828V.66737368C.08799744 .65437319 .1749878 .56832888 .1749878 .2822113Z"/>
<path id="font_2_18" d="M.32598878 .45022584V.49023438H.19699097V.6162262H.16799927L.10699463 .49023438H.0309906V.45022584H.102996829V.102264408C.102996829 .0002746582 .1789856-.01171875 .21398926-.01171875 .2649994-.01171875 .31298829 .014266968 .34199525 .03227234L.33399964 .053268434C.30999757 .043273927 .28799439 .040267946 .2630005 .040267946 .22898865 .040267946 .19699097 .06427002 .19699097 .14025879V.45022584H.32598878Z"/>
<path id="font_2_19" d="M.59098818 0V.0289917C.5219879 .033996583 .5159912 .035995485 .5159912 .08699036V.49609376L.5089874 .50209048 .35198976 .47709657V.45210267L.3899994 .44711305C.41600038 .44309999 .42199708 .43811036 .42199708 .40213014V.17721558C.42199708 .14923096 .4189911 .12724304 .4139862 .117248538 .3909912 .071258548 .34298707 .042266847 .29100038 .042266847 .23298645 .042266847 .18998719 .07826233 .18998719 .15621948V.49609376L.18299866 .50209048 .025985718 .47709657V.45210267L.06399536 .44711305C.08999634 .44309999 .09599304 .43811036 .09599304 .40213014V.13822937C.09599304 .023269654 .1639862-.01171875 .23799134-.01171875 .32299806-.01171875 .3919983 .04626465 .42099 .060272218L.43099977 0H.59098818Z"/>
<path id="font_2_16" d="M.18899536 .5019531 .036987306 .47694398V.45195008L.07499695 .4469452C.100997928 .4429474 .10699463 .4379425 .10699463 .40194703V.08699036C.10699463 .035995485 .101989749 .033996583 .03199768 .0289917V0H.29599V.0289917C.20698548 .033996583 .20098877 .035995485 .20098877 .08699036V.32095338C.20098877 .39794923 .23498535 .4239502 .2579956 .4239502 .27398683 .4239502 .29100038 .4179535 .31999208 .40194703 .32699586 .39794923 .33499146 .39694215 .33999635 .39694215 .3639984 .39694215 .38598634 .4219513 .38598634 .4529419 .38598634 .47494508 .37199403 .5019531 .33299256 .5019531 .29699708 .5019531 .2669983 .47994996 .20098877 .4219513L.18899536 .5019531Z"/>
<path id="font_2_15" d="M.5289917 .34295655C.5289917 .4439392 .47399903 .5019531 .38198854 .5019531 .30799867 .5019531 .2619934 .46594239 .19999695 .4259491L.18598938 .5019531 .036987306 .47694398V.45195008L.07499695 .4469452C.100997928 .4429474 .10699463 .4379425 .10699463 .40194703V.08699036C.10699463 .035995485 .10398865 .033996583 .03199768 .0289917V0H.27598573V.0289917C.20498657 .033996583 .20098877 .035995485 .20098877 .08699036V.32095338C.20098877 .34596253 .20298767 .35995484 .21099854 .37594605 .23199463 .4149475 .2769928 .44795228 .32998658 .44795228 .397995 .44795228 .43499757 .40994264 .43499757 .32295228V.08699036C.43499757 .035995485 .43199159 .033996583 .3600006 .0289917V0H.60398867V.0289917C.5329895 .033996583 .5289917 .035995485 .5289917 .08699036V.34295655Z"/>
<path id="font_2_17" d="M.36698915 .35102845V.46794129C.33399964 .49194337 .2829895 .5019531 .23799134 .5019531 .12998963 .5019531 .056991579 .45095826 .055999757 .35603334 .056991579 .27308656 .12399292 .2361145 .20698548 .21113587 .2519989 .19714356 .31498719 .17416382 .31498719 .10621643 .31498719 .055252077 .2749939 .023269654 .22200012 .023269654 .14099121 .023269654 .09599304 .082229617 .07598877 .16716004H.04699707L.056991579 .03627014C.09298706 .004272461 .1539917-.01171875 .21299744-.01171875 .33198548-.01171875 .3999939 .051254274 .3999939 .13618469 .3999939 .2241211 .34599305 .26409913 .24299622 .29606629 .20199585 .30906678 .13598633 .3300476 .13598633 .3860016 .13699341 .43795777 .17599488 .46694947 .22599793 .46694947 .29699708 .46694947 .33099366 .4119873 .33799745 .35102845H.36698915Z"/>
<path id="font_2_14" d="M.3809967 .6720276C.5589905 .6720276 .59999087 .4931183 .60198977 .3461914 .59999087 .19924927 .5589905 .020339966 .3809967 .020339966 .20298767 .020339966 .1619873 .19924927 .1599884 .3461914 .1619873 .4931183 .20298767 .6720276 .3809967 .6720276M.3809967 .70703127C.2709961 .70703127 .18899536 .6730194 .1329956 .61006167 .07899475 .55007937 .04798889 .4591217 .04798889 .3461914 .04798889 .23423767 .07899475 .14228821 .1329956 .08232117 .18899536 .019348145 .2709961-.0146484379 .3809967-.0146484379 .49198915-.0146484379 .57299807 .019348145 .6289978 .08232117 .6839905 .14228821 .71398928 .23423767 .71398928 .3461914 .71398928 .4591217 .6839905 .55007937 .6289978 .61006167 .57299807 .6730194 .49198915 .70703127 .3809967 .70703127Z"/>
<path id="font_2_13" d="M.033996583 .6923828V.66337588C.12199402 .6573639 .12399292 .655365 .12399292 .5993347V.20309448C.12399292 .15007019 .12199402 .11204529 .116989139 .07902527 .11099243 .037002565 .08699036 .032989503 .034988405 .0289917V0H.27198792V.0289917C.20698548 .033996583 .18299866 .037002565 .1769867 .07902527 .17199707 .11204529 .16999817 .15007019 .16999817 .20309448V.6023407H.17199707C.31498719 .4012146 .45700074 .20109558 .59799197 0H.6639862V.48927308C.6639862 .54229739 .66600039 .58032229 .67099 .6133423 .6769867 .655365 .70098879 .6593628 .7529907 .66337588V.6923828H.5159912V.66337588C.58099368 .658371 .6049957 .655365 .61099246 .6133423 .6159973 .58032229 .6179962 .54229739 .6179962 .48927308V.13806153L.6159973 .14006043C.4850006 .32417298 .35499574 .5082855 .22599793 .6923828H.033996583Z"/>
<path id="font_2_3" d="M.2649994 .64468386C.3600006 .64468386 .3869934 .49682618 .3869934 .33398438 .3869934 .17112732 .3600006 .023269654 .2649994 .023269654 .16999817 .023269654 .14299011 .17112732 .14299011 .33398438 .14299011 .49682618 .16999817 .64468386 .2649994 .64468386M.2649994 .6796875C.099990848 .6796875 .040985109 .53378298 .040985109 .33398438 .040985109 .13417053 .099990848-.01171875 .2649994-.01171875 .42999269-.01171875 .4889984 .13417053 .4889984 .33398438 .4889984 .53378298 .42999269 .6796875 .2649994 .6796875Z"/>
<path id="font_3_1" d="M.6349945 .2529297V.31092835H.084991458V.2529297H.6349945Z"/>
<path id="font_3_2" d="M.6349945 .14315796V.20117188H.084991458V.14315796H.6349945M.6349945 .36288453V.42089845H.084991458V.36288453H.6349945Z"/>
<path id="font_1_2" d="M.17098999 .112213138C.17098999 .22013855 .2579956 .46694947 .41799928 .46694947 .44898988 .46694947 .47499085 .45794679 .4869995 .44696046 .47200013 .37002564 .43899537 .27609254 .3880005 .19316101 .33999635 .115219119 .27398683 .040267946 .22099304 .040267946 .18899536 .040267946 .17098999 .06724548 .17098999 .112213138M.46398927 .71824648 .45799256 .6953125 .5179901 .68930056C.5419922 .6872864 .5439911 .6802826 .5359955 .6482239L.49798585 .48693849 .49598695 .48493959C.47698976 .49494935 .44599916 .5019531 .4119873 .5019531 .1789856 .5019531 .07199097 .24111939 .07199097 .12020874 .07199097 .055267335 .09098816-.01171875 .17199707-.01171875 .2869873-.01171875 .37599183 .11122131 .43499757 .21813965H.43699647L.4039917 .099227908C.38398744 .028274537 .39898683-.01272583 .44999696-.01171875 .522995-.01171875 .57899478 .056259157 .61299136 .13220215L.58898928 .14619446C.57099917 .11122131 .5269928 .040267946 .49899293 .040267946 .47898866 .040267946 .48098756 .06326294 .4889984 .0952301L.6469879 .7371979 .6419983 .7421875 .46398927 .71824648Z"/>
</defs>
<path transform="matrix(1.00005,0,0,-1.00008,12.546921,68.13517)" stroke-width=".19925" stroke-linecap="butt" stroke-dasharray="2.98883,2.98883" stroke-miterlimit="10" stroke-linejoin="miter" fill="none" stroke="#000000" d="M176.8838-15.47725V66.33142"/>
<path transform="matrix(1.00005,0,0,-1.00008,12.546921,68.13517)" stroke-width=".19925" stroke-linecap="butt" stroke-dasharray="2.98883,2.98883" stroke-miterlimit="10" stroke-linejoin="miter" fill="none" stroke="#000000" d="M88.4419-15.47725V66.33142"/>
<path transform="matrix(1.00005,0,0,-1.00008,12.546921,68.13517)" stroke-width=".3985" stroke-linecap="butt" stroke-miterlimit="10" stroke-linejoin="miter" fill="none" stroke="#000000" d="M-11.05522 0H216.22444"/>
<path transform="matrix(1.00005,0,0,-1.00008,228.78217,68.13517)" stroke-width=".31879" stroke-linecap="round" stroke-linejoin="round" fill="none" stroke="#000000" d="M-1.19551 1.59401C-1.09587 .99626 0 .09961 .29886 0 0-.09961-1.09587-.99626-1.19551-1.59401"/>
<path transform="matrix(1.00005,0,0,-1.00008,12.546921,68.13517)" stroke-width=".3985" stroke-linecap="butt" stroke-miterlimit="10" stroke-linejoin="miter" fill="none" stroke="#000000" d="M0-15.47725V65.87314"/>
<path transform="matrix(0,-1.00008,-1.00005,-0,12.546921,2.2567597)" stroke-width=".31879" stroke-linecap="round" stroke-linejoin="round" fill="none" stroke="#000000" d="M-1.19551 1.59401C-1.09587 .99626 0 .09961 .29886 0 0-.09961-1.09587-.99626-1.19551-1.59401"/>
<use data-text="t" xlink:href="#font_1_3" transform="matrix(10.036901,0,0,-10.037203,224.89054,77.71994)"/>
<path transform="matrix(1.00005,0,0,-1.00008,12.546921,68.13517)" stroke-width=".3985" stroke-linecap="butt" stroke-miterlimit="10" stroke-linejoin="miter" fill="none" stroke="#929292" d="M22.11046 2.21117V-2.21117"/>
<use data-text="1" xlink:href="#font_2_4" transform="matrix(10.036901,0,0,-10.037203,31.996891,80.024127)"/>
<path transform="matrix(1.00005,0,0,-1.00008,12.546921,68.13517)" stroke-width=".3985" stroke-linecap="butt" stroke-miterlimit="10" stroke-linejoin="miter" fill="none" stroke="#929292" d="M44.22093 2.21117V-2.21117"/>
<use data-text="2" xlink:href="#font_2_5" transform="matrix(10.036901,0,0,-10.037203,54.107995,80.024127)"/>
<path transform="matrix(1.00005,0,0,-1.00008,12.546921,68.13517)" stroke-width=".3985" stroke-linecap="butt" stroke-miterlimit="10" stroke-linejoin="miter" fill="none" stroke="#929292" d="M66.33142 2.21117V-2.21117"/>
<use data-text="3" xlink:href="#font_2_6" transform="matrix(10.036901,0,0,-10.037203,76.2201,80.024127)"/>
<path transform="matrix(1.00005,0,0,-1.00008,12.546921,68.13517)" stroke-width=".3985" stroke-linecap="butt" stroke-miterlimit="10" stroke-linejoin="miter" fill="none" stroke="#929292" d="M88.4419 2.21117V-2.21117"/>
<use data-text="4" xlink:href="#font_2_7" transform="matrix(10.036901,0,0,-10.037203,98.33121,80.024127)"/>
<path transform="matrix(1.00005,0,0,-1.00008,12.546921,68.13517)" stroke-width=".3985" stroke-linecap="butt" stroke-miterlimit="10" stroke-linejoin="miter" fill="none" stroke="#929292" d="M110.55237 2.21117V-2.21117"/>
<use data-text="5" xlink:href="#font_2_8" transform="matrix(10.036901,0,0,-10.037203,120.443309,80.024127)"/>
<path transform="matrix(1.00005,0,0,-1.00008,12.546921,68.13517)" stroke-width=".3985" stroke-linecap="butt" stroke-miterlimit="10" stroke-linejoin="miter" fill="none" stroke="#929292" d="M132.66286 2.21117V-2.21117"/>
<use data-text="6" xlink:href="#font_2_9" transform="matrix(10.036901,0,0,-10.037203,142.55443,80.024127)"/>
<path transform="matrix(1.00005,0,0,-1.00008,12.546921,68.13517)" stroke-width=".3985" stroke-linecap="butt" stroke-miterlimit="10" stroke-linejoin="miter" fill="none" stroke="#929292" d="M154.77333 2.21117V-2.21117"/>
<use data-text="7" xlink:href="#font_2_10" transform="matrix(10.036901,0,0,-10.037203,164.66551,80.024127)"/>
<path transform="matrix(1.00005,0,0,-1.00008,12.546921,68.13517)" stroke-width=".3985" stroke-linecap="butt" stroke-miterlimit="10" stroke-linejoin="miter" fill="none" stroke="#929292" d="M176.8838 2.21117V-2.21117"/>
<use data-text="8" xlink:href="#font_2_11" transform="matrix(10.036901,0,0,-10.037203,186.77762,80.024127)"/>
<path transform="matrix(1.00005,0,0,-1.00008,12.546921,68.13517)" stroke-width=".3985" stroke-linecap="butt" stroke-miterlimit="10" stroke-linejoin="miter" fill="none" stroke="#929292" d="M198.99428 2.21117V-2.21117"/>
<use data-text="9" xlink:href="#font_2_12" transform="matrix(10.036901,0,0,-10.037203,208.88874,80.024127)"/>
<path transform="matrix(1.00005,0,0,-1.00008,12.546921,68.13517)" stroke-width=".3985" stroke-linecap="butt" stroke-miterlimit="10" stroke-linejoin="miter" fill="none" stroke="#929292" d="M2.21117 22.11046H-2.21117"/>
<use data-text="1" xlink:href="#font_2_4" transform="matrix(10.036901,0,0,-10.037203,6.0355989,49.38367)"/>
<path transform="matrix(1.00005,0,0,-1.00008,12.546921,68.13517)" stroke-width=".79701" stroke-linecap="butt" stroke-dasharray="2.98883,2.98883" stroke-miterlimit="10" stroke-linejoin="miter" fill="none" stroke="#0000ff" d="M-11.05522 0H-10.06839-9.08154-8.09471-7.1079-6.12105-5.13422-4.14738-3.16054-2.17372-1.18687-.20006 .78674 1.77359 2.7604 3.74725 4.73407 5.72092 6.70775 7.69458 8.68141 9.66826 10.65509 11.6419 12.62877 13.61559 14.60242 15.58926 16.5761 17.56293 18.54974 19.5366 20.52342 21.51025 22.49709 23.48393 24.47076 25.4576 26.44443 27.43126 28.4181 29.40492 30.39177 31.3786 32.36543 33.35226 34.3391 35.32594 36.31276 37.29959 38.28644 39.27327 40.2601 41.24695 42.23378 43.2206 44.20744 45.19427 46.1811 47.16794 48.15477 49.1416 50.12843 51.11528 52.10211 53.08894 54.07578 55.0626 56.04944 57.03629 58.02312 59.00995 59.9968 60.98361 61.97044 62.95729 63.94412 64.93094 65.91777 66.90462 67.89145 68.87828 69.86513 70.85196 71.83878 72.82562 73.81245 74.79929 75.78613 76.77295 77.7598 78.74663 79.73346 80.72029 81.70712 82.69395 83.68079 84.66762 85.65446 86.6413"/>
<path transform="matrix(1.00005,0,0,-1.00008,12.546921,68.13517)" stroke-width=".79701" stroke-linecap="butt" stroke-dasharray="2.98883,2.98883" stroke-miterlimit="10" stroke-linejoin="miter" fill="none" stroke="#990000" d="M-11.05522 0H-10.06839-9.08154-8.09471-7.1079-6.12105-5.13422-4.14738-3.16054-2.17372-1.18687-.20006 .78674 1.77359 2.7604 3.74725 4.73407 5.72092 6.70775 7.69458 8.68141 9.66826 10.65509 11.6419 12.62877 13.61559 14.60242 15.58926 16.5761 17.56293 18.54974 19.5366 20.52342 21.51025 22.49709 23.48393 24.47076 25.4576 26.44443 27.43126 28.4181 29.40492 30.39177 31.3786 32.36543 33.35226 34.3391 35.32594 36.31276 37.29959 38.28644 39.27327 40.2601 41.24695 42.23378 43.2206 44.20744 45.19427 46.1811 47.16794 48.15477 49.1416 50.12843 51.11528 52.10211 53.08894 54.07578 55.0626 56.04944 57.03629 58.02312 59.00995 59.9968 60.98361 61.97044 62.95729 63.94412 64.93094 65.91777 66.90462 67.89145 68.87828 69.86513 70.85196 71.83878 72.82562 73.81245 74.79929 75.78613 76.77295 77.7598 78.74663 79.73346 80.72029 81.70712 82.69395 83.68079 84.66762 85.65446 86.6413"/>
<path transform="matrix(1.00005,0,0,-1.00008,12.546921,68.13517)" stroke-width="1.19553" stroke-linecap="butt" stroke-miterlimit="10" stroke-linejoin="miter" fill="none" stroke="#009900" d="M-10.0988 0H-10.06839-9.08154-8.09471-7.1079-6.12105-5.13422-4.14738-3.16054-2.17372-1.18687-.20006 .78674 1.77359 2.7604 3.74725 4.73407 5.72092 6.70775 7.69458 8.68141 9.66826 10.65509 11.6419 12.62877 13.61559 14.60242 15.58926 16.5761 17.56293 18.54974 19.5366 20.52342 21.51025 22.49709 23.48393 24.47076 25.4576 26.44443 27.43126 28.4181 29.40492 30.39177 31.3786 32.36543 33.35226 34.3391 35.32594 36.31276 37.29959 38.28644 39.27327 40.2601 41.24695 42.23378 43.2206 44.20744 45.19427 46.1811 47.16794 48.15477 49.1416 50.12843 51.11528 52.10211 53.08894 54.07578 55.0626 56.04944 57.03629 58.02312 59.00995 59.9968 60.98361 61.97044 62.95729 63.94412 64.93094 65.91777 66.90462 67.89145 68.87828 69.86513 70.85196 71.83878 72.82562 73.81245 74.79929 75.78613 76.77295 77.7598 78.74663 79.73346 80.72029 81.70712 82.69395 83.68079 84.66762 85.65446 86.6413"/>
<path transform="matrix(-1.00005,-0,0,1.00008,2.4476166,68.13517)" stroke-width=".9564" stroke-linecap="round" stroke-linejoin="round" fill="none" stroke="#009900" d="M-1.91284 2.55046C-1.75343 1.59402 0 .15938 .4782 0 0-.15938-1.75343-1.59402-1.91284-2.55046"/>
<path transform="matrix(1.00005,0,0,-1.00008,12.546921,68.13517)" stroke-width=".79701" stroke-linecap="butt" stroke-dasharray="2.98883,2.98883" stroke-miterlimit="10" stroke-linejoin="miter" fill="none" stroke="#0000ff" d="M90.21077 22.11046H91.06839 91.92601 92.78363 93.64125 94.49887 95.35648 96.2141 97.0717 97.92932 98.78694 99.64456 100.50218 101.3598 102.2174 103.07503 103.93265 104.79027 105.64789 106.50551 107.36313 108.22075 109.07835 109.93597 110.7936 111.65121 112.50883 113.36646 114.22408 115.0817 115.9393 116.79692 117.65454 118.51215 119.36977 120.22739 121.085 121.94263 122.80023 123.65785 124.51547 125.3731 126.23071 127.08833 127.94595 128.80358 129.66118 130.5188 131.37642 132.23404 133.09166 133.94928 134.8069 135.66452 136.52213 137.37975 138.23737 139.09497 139.95259 140.81021 141.66783 142.52545 143.38306 144.24068 145.0983 145.95592 146.81354 147.67116 148.52878 149.3864 150.244 151.10163 151.95925 152.81687 153.67449 154.5321 155.38973 156.24735 157.10495 157.96257 158.82019 159.67781 160.53542 161.39304 162.25066 163.10828 163.96588 164.8235 165.68112 166.53874 167.39636 168.25399 169.1116 169.96923 170.82683 171.68445 172.54207 173.39969 174.25731 175.11493"/>
<path transform="matrix(1.00005,0,0,-1.00008,12.546921,68.13517)" stroke-width=".79701" stroke-linecap="butt" stroke-dasharray="2.98883,2.98883" stroke-miterlimit="10" stroke-linejoin="miter" fill="none" stroke="#990000" d="M90.21077 0H91.06839 91.92601 92.78363 93.64125 94.49887 95.35648 96.2141 97.0717 97.92932 98.78694 99.64456 100.50218 101.3598 102.2174 103.07503 103.93265 104.79027 105.64789 106.50551 107.36313 108.22075 109.07835 109.93597 110.7936 111.65121 112.50883 113.36646 114.22408 115.0817 115.9393 116.79692 117.65454 118.51215 119.36977 120.22739 121.085 121.94263 122.80023 123.65785 124.51547 125.3731 126.23071 127.08833 127.94595 128.80358 129.66118 130.5188 131.37642 132.23404 133.09166 133.94928 134.8069 135.66452 136.52213 137.37975 138.23737 139.09497 139.95259 140.81021 141.66783 142.52545 143.38306 144.24068 145.0983 145.95592 146.81354 147.67116 148.52878 149.3864 150.244 151.10163 151.95925 152.81687 153.67449 154.5321 155.38973 156.24735 157.10495 157.96257 158.82019 159.67781 160.53542 161.39304 162.25066 163.10828 163.96588 164.8235 165.68112 166.53874 167.39636 168.25399 169.1116 169.96923 170.82683 171.68445 172.54207 173.39969 174.25731 175.11493"/>
<path transform="matrix(1.00005,0,0,-1.00008,12.546921,68.13517)" stroke-width="1.19553" stroke-linecap="butt" stroke-miterlimit="10" stroke-linejoin="miter" fill="none" stroke="#009900" d="M88.4419 22.11046H89.31705 90.1922 91.06737 91.94254 92.81769 93.69286 94.56802 95.44318 96.31834 97.19351 98.06865 98.94383 99.81898 100.69414 101.5693 102.44447 103.31963 104.1948 105.06996 105.94511 106.82028 107.69545 108.57059 109.44577 110.32092 111.19608 112.07124 112.94641 113.82156 114.69673 115.5719 116.44705 117.3222 118.19739 119.07253 119.94771 120.82286 121.69801 122.57318 123.44835 124.3235 125.19867 126.07384 126.94899 127.82414 128.69933 129.57447 130.44965 131.3248 132.19995 133.07512 133.95027 134.82544 135.7006 136.57575 137.45093 138.32608 139.20125 140.0764 140.95159 141.82672 142.70189 143.57706 144.45221 145.32738 146.20255 147.07769 147.95287 148.82802 149.70319 150.57834 151.45352 152.32866 153.20383 154.079 154.95415 155.82932 156.70449 157.57962 158.4548 159.32996 160.20513 161.08028 161.95546 162.8306 163.70577 164.58094 165.45609 166.33126 167.20642 168.08156 168.95674 169.8319 170.70706 171.58222 172.4574 173.33254 174.2077 175.08287"/>
<path transform="matrix(1.00005,0,0,-1.00008,12.546921,68.13517)" stroke-width=".79701" stroke-linecap="butt" stroke-dasharray="2.98883,2.98883" stroke-miterlimit="10" stroke-linejoin="miter" fill="none" stroke="#0000ff" d="M178.65267 22.11046H179.0366 179.42055 179.80449 180.18842 180.57236 180.9563 181.34024 181.72417 182.10811 182.49204 182.87599 183.25992 183.64386 184.0278 184.41175 184.79569 185.17961 185.56356 185.94748 186.33144 186.71537 187.0993 187.48323 187.86719 188.25112 188.63506 189.01898 189.40291 189.78685 190.17079 190.55474 190.93866 191.32262 191.70655 192.09049 192.47441 192.85836 193.2423 193.62624 194.01016 194.3941 194.77805 195.16199 195.54592 195.92986 196.3138 196.69774 197.08168 197.4656 197.84955 198.23349 198.61743 199.00136 199.3853 199.76923 200.15319 200.53711 200.92105 201.305 201.68892 202.07285 202.45679 202.84073 203.22466 203.60861 203.99254 204.37648 204.7604 205.14437 205.52829 205.91223 206.29616 206.6801 207.06404 207.44799 207.83193 208.21585 208.5998 208.98374 209.36768 209.7516 210.13555 210.51949 210.90343 211.28736 211.6713 212.05524 212.43918 212.8231 213.20705 213.59099 213.97493 214.35884 214.74279 215.12673 215.51067 215.8946 216.27854 216.66248"/>
<path transform="matrix(1.00005,0,0,-1.00008,12.546921,68.13517)" stroke-width=".79701" stroke-linecap="butt" stroke-dasharray="2.98883,2.98883" stroke-miterlimit="10" stroke-linejoin="miter" fill="none" stroke="#990000" d="M178.65267 22.11046H179.0366 179.42055 179.80449 180.18842 180.57236 180.9563 181.34024 181.72417 182.10811 182.49204 182.87599 183.25992 183.64386 184.0278 184.41175 184.79569 185.17961 185.56356 185.94748 186.33144 186.71537 187.0993 187.48323 187.86719 188.25112 188.63506 189.01898 189.40291 189.78685 190.17079 190.55474 190.93866 191.32262 191.70655 192.09049 192.47441 192.85836 193.2423 193.62624 194.01016 194.3941 194.77805 195.16199 195.54592 195.92986 196.3138 196.69774 197.08168 197.4656 197.84955 198.23349 198.61743 199.00136 199.3853 199.76923 200.15319 200.53711 200.92105 201.305 201.68892 202.07285 202.45679 202.84073 203.22466 203.60861 203.99254 204.37648 204.7604 205.14437 205.52829 205.91223 206.29616 206.6801 207.06404 207.44799 207.83193 208.21585 208.5998 208.98374 209.36768 209.7516 210.13555 210.51949 210.90343 211.28736 211.6713 212.05524 212.43918 212.8231 213.20705 213.59099 213.97493 214.35884 214.74279 215.12673 215.51067 215.8946 216.27854 216.66248"/>
<path transform="matrix(1.00005,0,0,-1.00008,12.546921,68.13517)" stroke-width="1.19553" stroke-linecap="butt" stroke-miterlimit="10" stroke-linejoin="miter" fill="none" stroke="#009900" d="M176.8838 0H177.28562 177.68744 178.08925 178.49108 178.8929 179.29471 179.69654 180.09835 180.50016 180.90198 181.3038 181.70563 182.10742 182.50926 182.91107 183.3129 183.71472 184.11652 184.51836 184.92017 185.32199 185.7238 186.12563 186.52745 186.92926 187.33107 187.73288 188.13472 188.53655 188.93834 189.34017 189.74198 190.14382 190.54564 190.94744 191.34926 191.75109 192.15291 192.55472 192.95653 193.35836 193.76018 194.16199 194.56381 194.96562 195.36746 195.76927 196.17108 196.57289 196.97472 197.37656 197.77835 198.18018 198.58199 198.98381 199.38564 199.78745 200.18927 200.59108 200.99292 201.39473 201.79654 202.19837 202.60018 203.002 203.40381 203.80564 204.20746 204.60927 205.0111 205.4129 205.81473 206.21656 206.61837 207.02019 207.422 207.82382 208.22565 208.62746 209.02928 209.43109 209.83292 210.23474 210.63655 211.03838 211.44019 211.84201 212.24382 212.64565 213.04747 213.44928 213.8511 214.25292 214.65474 215.05657 215.45836 215.8602 216.26201 215.70742"/>
<path transform="matrix(1.00005,0,0,-1.00008,228.2651,68.13517)" stroke-width=".9564" stroke-linecap="round" stroke-linejoin="round" fill="none" stroke="#009900" d="M-1.91284 2.55046C-1.75343 1.59402 0 .15938 .4782 0 0-.15938-1.75343-1.59402-1.91284-2.55046"/>
<path transform="matrix(1.00005,0,0,-1.00008,12.546921,68.13517)" stroke-width=".79701" stroke-linecap="butt" stroke-miterlimit="10" stroke-linejoin="miter" fill="none" stroke="#009900" d="M90.77318 0C90.77318 1.28754 89.72945 2.33128 88.4419 2.33128 87.15434 2.33128 86.11061 1.28754 86.11061 0 86.11061-1.28754 87.15434-2.33128 88.4419-2.33128 89.72945-2.33128 90.77318-1.28754 90.77318 0ZM88.4419 0"/>
<path transform="matrix(1.00005,0,0,-1.00008,12.546921,68.13517)" d="M90.77318 22.11046C90.77318 23.39801 89.72945 24.44174 88.4419 24.44174 87.15434 24.44174 86.11061 23.39801 86.11061 22.11046 86.11061 20.82292 87.15434 19.77917 88.4419 19.77917 89.72945 19.77917 90.77318 20.82292 90.77318 22.11046ZM88.4419 22.11046" fill="#009900"/>
<path transform="matrix(1.00005,0,0,-1.00008,12.546921,68.13517)" stroke-width=".79701" stroke-linecap="butt" stroke-miterlimit="10" stroke-linejoin="miter" fill="none" stroke="#009900" d="M179.21509 22.11046C179.21509 23.39801 178.17134 24.44174 176.8838 24.44174 175.59626 24.44174 174.55252 23.39801 174.55252 22.11046 174.55252 20.82292 175.59626 19.77917 176.8838 19.77917 178.17134 19.77917 179.21509 20.82292 179.21509 22.11046ZM176.8838 22.11046"/>
<path transform="matrix(1.00005,0,0,-1.00008,12.546921,68.13517)" d="M179.21509 0C179.21509 1.28754 178.17134 2.33128 176.8838 2.33128 175.59626 2.33128 174.55252 1.28754 174.55252 0 174.55252-1.28754 175.59626-2.33128 176.8838-2.33128 178.17134-2.33128 179.21509-1.28754 179.21509 0ZM176.8838 0" fill="#009900"/>
<use data-text="u" xlink:href="#font_1_4" transform="matrix(10.036901,0,0,-10.037203,23.359459,40.920995)"/>
<use data-text="c" xlink:href="#font_1_1" transform="matrix(7.60788,0,0,-7.6081087,29.894783,42.55713)"/>
<use data-text="(" xlink:href="#font_2_1" transform="matrix(10.036901,0,0,-10.037203,34.345,40.920995)"/>
<use data-text="t" xlink:href="#font_1_3" transform="matrix(10.036901,0,0,-10.037203,38.076196,40.920995)"/>
<use data-text=")" xlink:href="#font_2_2" transform="matrix(10.036901,0,0,-10.037203,42.57142,40.920995)"/>
<use data-text="t" xlink:href="#font_2_18" transform="matrix(10.036901,0,0,-10.037203,48.332605,40.920995)"/>
<use data-text="u" xlink:href="#font_2_19" transform="matrix(10.036901,0,0,-10.037203,51.785295,40.920995)"/>
<use data-text="r" xlink:href="#font_2_16" transform="matrix(10.036901,0,0,-10.037203,57.86766,40.920995)"/>
<use data-text="n" xlink:href="#font_2_15" transform="matrix(10.036901,0,0,-10.037203,61.85231,40.920995)"/>
<use data-text="s" xlink:href="#font_2_17" transform="matrix(10.036901,0,0,-10.037203,68.065158,40.920995)"/>
<use data-text="O" xlink:href="#font_2_14" transform="matrix(10.036901,0,0,-10.037203,74.69954,40.920995)"/>
<use data-text="N" xlink:href="#font_2_13" transform="matrix(10.036901,0,0,-10.037203,82.34766,40.920995)"/>
<path transform="matrix(1.00005,0,0,-1.00008,12.546921,68.13517)" stroke-width=".79701" stroke-linecap="butt" stroke-miterlimit="10" stroke-linejoin="miter" fill="none" stroke="#000000" d="M44.22093 11.05522H85.52335"/>
<path transform="matrix(1.00005,0,0,-1.00008,98.07455,57.079069)" stroke-width=".6376" stroke-linecap="round" stroke-linejoin="round" fill="none" stroke="#000000" d="M-1.55415 2.0722C-1.42464 1.29512 0 .1295 .38852 0 0-.1295-1.42464-1.29512-1.55415-2.0722"/>
<use data-text="0" xlink:href="#font_2_3" transform="matrix(10.036901,0,0,-10.037203,38.36221,11.918671)"/>
<use data-text="&#x2212;" xlink:href="#font_3_1" transform="matrix(10.036901,0,0,-10.037203,45.019544,11.918671)"/>
<use data-text="0" xlink:href="#font_2_3" transform="matrix(10.036901,0,0,-10.037203,53.57497,11.918671)"/>
<use data-text="=" xlink:href="#font_3_2" transform="matrix(10.036901,0,0,-10.037203,60.76533,11.918671)"/>
<use data-text="0" xlink:href="#font_2_3" transform="matrix(10.036901,0,0,-10.037203,69.85478,11.918671)"/>
<use data-text="u" xlink:href="#font_1_4" transform="matrix(10.036901,0,0,-10.037203,119.09225,28.822026)"/>
<use data-text="c" xlink:href="#font_1_1" transform="matrix(7.60788,0,0,-7.6081087,125.62757,30.45816)"/>
<use data-text="(" xlink:href="#font_2_1" transform="matrix(10.036901,0,0,-10.037203,130.07779,28.822026)"/>
<use data-text="t" xlink:href="#font_1_3" transform="matrix(10.036901,0,0,-10.037203,133.80899,28.822026)"/>
<use data-text=")" xlink:href="#font_2_2" transform="matrix(10.036901,0,0,-10.037203,138.3042,28.822026)"/>
<path transform="matrix(1.00005,0,0,-1.00008,12.546921,68.13517)" stroke-width=".79701" stroke-linecap="butt" stroke-miterlimit="10" stroke-linejoin="miter" fill="none" stroke="#000000" d="M110.55237 35.37688V25.029"/>
<path transform="matrix(0,1.00008,1.00005,0,123.10481,43.104169)" stroke-width=".6376" stroke-linecap="round" stroke-linejoin="round" fill="none" stroke="#000000" d="M-1.55415 2.0722C-1.42464 1.29512 0 .1295 .38852 0 0-.1295-1.42464-1.29512-1.55415-2.0722"/>
<use data-text="u" xlink:href="#font_1_4" transform="matrix(10.036901,0,0,-10.037203,148.6157,28.718018)"/>
<use data-text="d" xlink:href="#font_1_2" transform="matrix(7.60788,0,0,-7.6081087,155.15103,30.563168)"/>
<use data-text="(" xlink:href="#font_2_1" transform="matrix(10.036901,0,0,-10.037203,160.88333,28.718018)"/>
<use data-text="t" xlink:href="#font_1_3" transform="matrix(10.036901,0,0,-10.037203,164.6145,28.718018)"/>
<use data-text=")" xlink:href="#font_2_2" transform="matrix(10.036901,0,0,-10.037203,169.10874,28.718018)"/>
<path transform="matrix(1.00005,0,0,-1.00008,12.546921,68.13517)" stroke-width=".79701" stroke-linecap="butt" stroke-miterlimit="10" stroke-linejoin="miter" fill="none" stroke="#000000" d="M154.77333 35.37688V2.91853"/>
<path transform="matrix(0,1.00008,1.00005,0,167.32799,65.21641)" stroke-width=".6376" stroke-linecap="round" stroke-linejoin="round" fill="none" stroke="#000000" d="M-1.55415 2.0722C-1.42464 1.29512 0 .1295 .38852 0 0-.1295-1.42464-1.29512-1.55415-2.0722"/>
<use data-text="1" xlink:href="#font_2_4" transform="matrix(10.036901,0,0,-10.037203,126.807628,11.918671)"/>
<use data-text="&#x2212;" xlink:href="#font_3_1" transform="matrix(10.036901,0,0,-10.037203,133.46497,11.918671)"/>
<use data-text="0" xlink:href="#font_2_3" transform="matrix(10.036901,0,0,-10.037203,142.02039,11.918671)"/>
<use data-text="=" xlink:href="#font_3_2" transform="matrix(10.036901,0,0,-10.037203,149.21076,11.918671)"/>
<use data-text="1" xlink:href="#font_2_4" transform="matrix(10.036901,0,0,-10.037203,158.3002,11.918671)"/>
<use data-text="u" xlink:href="#font_1_4" transform="matrix(10.036901,0,0,-10.037203,183.21645,28.822026)"/>
<use data-text="c" xlink:href="#font_1_1" transform="matrix(7.60788,0,0,-7.6081087,189.75177,30.45816)"/>
<use data-text="(" xlink:href="#font_2_1" transform="matrix(10.036901,0,0,-10.037203,194.202,28.822026)"/>
<use data-text="t" xlink:href="#font_1_3" transform="matrix(10.036901,0,0,-10.037203,197.93318,28.822026)"/>
<use data-text=")" xlink:href="#font_2_2" transform="matrix(10.036901,0,0,-10.037203,202.4284,28.822026)"/>
<path transform="matrix(1.00005,0,0,-1.00008,12.546921,68.13517)" stroke-width=".79701" stroke-linecap="butt" stroke-miterlimit="10" stroke-linejoin="miter" fill="none" stroke="#000000" d="M186.83344 35.37688V25.029"/>
<path transform="matrix(0,1.00008,1.00005,0,199.3897,43.104169)" stroke-width=".6376" stroke-linecap="round" stroke-linejoin="round" fill="none" stroke="#000000" d="M-1.55415 2.0722C-1.42464 1.29512 0 .1295 .38852 0 0-.1295-1.42464-1.29512-1.55415-2.0722"/>
<use data-text="u" xlink:href="#font_1_4" transform="matrix(10.036901,0,0,-10.037203,212.73892,28.718018)"/>
<use data-text="d" xlink:href="#font_1_2" transform="matrix(7.60788,0,0,-7.6081087,219.27423,30.563168)"/>
<use data-text="(" xlink:href="#font_2_1" transform="matrix(10.036901,0,0,-10.037203,225.00653,28.718018)"/>
<use data-text="t" xlink:href="#font_1_3" transform="matrix(10.036901,0,0,-10.037203,228.73772,28.718018)"/>
<use data-text=")" xlink:href="#font_2_2" transform="matrix(10.036901,0,0,-10.037203,233.23194,28.718018)"/>
<path transform="matrix(1.00005,0,0,-1.00008,12.546921,68.13517)" stroke-width=".79701" stroke-linecap="butt" stroke-miterlimit="10" stroke-linejoin="miter" fill="none" stroke="#000000" d="M206.73273 35.37688V25.029"/>
<path transform="matrix(0,1.00008,1.00005,0,219.28998,43.104169)" stroke-width=".6376" stroke-linecap="round" stroke-linejoin="round" fill="none" stroke="#000000" d="M-1.55415 2.0722C-1.42464 1.29512 0 .1295 .38852 0 0-.1295-1.42464-1.29512-1.55415-2.0722"/>
<use data-text="1" xlink:href="#font_2_4" transform="matrix(10.036901,0,0,-10.037203,190.93184,11.918671)"/>
<use data-text="&#x2212;" xlink:href="#font_3_1" transform="matrix(10.036901,0,0,-10.037203,197.58917,11.918671)"/>
<use data-text="1" xlink:href="#font_2_4" transform="matrix(10.036901,0,0,-10.037203,206.14459,11.918671)"/>
<use data-text="=" xlink:href="#font_3_2" transform="matrix(10.036901,0,0,-10.037203,213.33496,11.918671)"/>
<use data-text="0" xlink:href="#font_2_3" transform="matrix(10.036901,0,0,-10.037203,222.42441,11.918671)"/>
</svg>
