<svg xmlns="http://www.w3.org/2000/svg" xmlns:xlink="http://www.w3.org/1999/xlink" version="1.1" width="119" height="74" viewBox="0 0 119 74">
<defs>
<path id="font_1_2" d="M.42799378 .45222474 .43899537 .49023438H.31199647L.34599305 .6092224 .33399964 .6162262 .23699951 .53923037 .22399903 .49023438H.14299011L.13198853 .45222474H.21499634L.125 .08627319C.10998535 .029266358 .12199402-.01171875 .17199707-.01171875 .2519989-.01171875 .31599427 .054275514 .35598756 .1292572L.33399964 .1462555C.31098939 .10726929 .2599945 .040267946 .22898865 .040267946 .20799256 .040267946 .20799256 .0632782 .21398926 .088272098L.30299378 .45222474H.42799378Z"/>
<path id="font_2_3" d="M.07398987 .2861328V.21612549H.31900025V.2861328H.07398987Z"/>
<path id="font_2_6" d="M.4850006 .13195801 .45700074 .13696289C.43598939 .08299255 .41600038 .07598877 .37599183 .07598877H.11999512C.13598633 .1279602 .19499207 .19892884 .28799439 .2658844 .38398744 .33584596 .45799256 .38082887 .45799256 .49276734 .45799256 .63168337 .3659973 .6796875 .26098634 .6796875 .12399292 .6796875 .052993776 .5967102 .052993776 .54473879 .052993776 .51075747 .09098816 .49476625 .10798645 .49476625 .12599182 .49476625 .1329956 .50476077 .13699341 .5217438 .15299988 .5897064 .19198609 .64468386 .2539978 .64468386 .33099366 .64468386 .35299684 .5797119 .35299684 .50675967 .35299684 .3998108 .29899598 .33984376 .21199036 .26289369 .08898926 .15594483 .04598999 .08798218 .026992798 .009994507L.036987306 0H.45098878L.4850006 .13195801Z"/>
<path id="font_2_5" d="M.43699647 0V.0289917L.35299684 .035995485C.33198548 .037994386 .31999208 .04598999 .31999208 .08496094V.67367556L.31498719 .6796875 .10899353 .6446991V.6197052L.20199585 .6087036C.21899414 .6067047 .22599793 .5987091 .22599793 .56973269V.08496094C.22599793 .065979007 .22299195 .053985597 .21699524 .04698181 .21199036 .039993287 .20399475 .036987306 .19299317 .035995485L.10899353 .0289917V0H.43699647Z"/>
<path id="font_2_4" d="M.2649994 .64468386C.3600006 .64468386 .3869934 .49682618 .3869934 .33398438 .3869934 .17112732 .3600006 .023269654 .2649994 .023269654 .16999817 .023269654 .14299011 .17112732 .14299011 .33398438 .14299011 .49682618 .16999817 .64468386 .2649994 .64468386M.2649994 .6796875C.099990848 .6796875 .040985109 .53378298 .040985109 .33398438 .040985109 .13417053 .099990848-.01171875 .2649994-.01171875 .42999269-.01171875 .4889984 .13417053 .4889984 .33398438 .4889984 .53378298 .42999269 .6796875 .2649994 .6796875Z"/>
<path id="font_3_3" d="M.6349945 .07472229 .17298889 .28173829 .6349945 .48875428V.5517578L.084991458 .31674195V.24673462L.6349945 .01171875V.07472229Z"/>
<path id="font_3_1" d="M.6349945-.0078125V.050186159H.084991458V-.0078125H.6349945M.084991458 .14318848 .6349945 .32221986V.39222718L.084991458 .5722656V.5092468L.5469971 .3572235 .084991458 .20620728V.14318848Z"/>
<path id="font_1_1" d="M.43199159 .49023438H.3019867L.32998658 .6031952C.34899903 .67918398 .36799623 .70718386 .3959961 .70718386 .4229889 .70718386 .44099427 .68518069 .46299745 .6371918 .46798707 .62719729 .47499085 .6201935 .48999024 .6201935 .5099945 .6201935 .5389862 .6391907 .5389862 .6641846 .5389862 .70718386 .4850006 .7421875 .4249878 .7421875 .3600006 .7421875 .31799317 .71517947 .2849884 .67318728 .2539978 .63420107 .23399353 .5802002 .21998596 .5272217L.20999146 .49023438H.12298584L.11199951 .45222474H.20098877L.084991458-.137146C.07299805-.19918823 .06298828-.2052002 .052993776-.2052002 .041992189-.2052002 .026992798-.19718933 0-.15615845-.007003784-.14616394-.014007568-.13415528-.027008057-.13415528-.04901123-.13415528-.072006229-.15916443-.072006229-.18418885-.071014408-.2171936-.028015137-.2421875 .018997193-.2421875 .11898804-.2421875 .16099549-.16116333 .20298767 .030960083L.29599 .45222474H.42199708L.43199159 .49023438Z"/>
<path id="font_2_1" d="M.1749878 .2822113C.1749878 .56832888 .2619934 .65437319 .32499696 .66737368V.6923828C.1499939 .685379 .10499573 .46829225 .10499573 .2822113 .10499573 .09614563 .1499939-.12094116 .32499696-.12792969V-.10293579C.2669983-.090927127 .1749878-.0059051516 .1749878 .2822113Z"/>
<path id="font_2_2" d="M.1749878 .2822113C.1749878-.0059051516 .08299255-.090927127 .024993897-.10293579V-.12792969C.19999695-.12094116 .24499512 .09614563 .24499512 .2822113 .24499512 .46829225 .19999695 .685379 .024993897 .6923828V.66737368C.08799744 .65437319 .1749878 .56832888 .1749878 .2822113Z"/>
<path id="font_3_2" d="M.6349945 .14315796V.20117188H.084991458V.14315796H.6349945M.6349945 .36288453V.42089845H.084991458V.36288453H.6349945Z"/>
</defs>
<path transform="matrix(1.00003,0,0,-1.00002,58.18573,47.154684)" d="M-56.69382-20.40962V45.35506H0V-20.40962ZM0 45.35506" fill="#d9d9ff"/>
<path transform="matrix(1.00003,0,0,-1.00002,58.18573,47.154684)" d="M0-20.40962V45.35506H56.69382V-20.40962ZM56.69382 45.35506" fill="#d9ffd9"/>
<path transform="matrix(1.00003,0,0,-1.00002,58.18573,47.154684)" stroke-width=".3985" stroke-linecap="butt" stroke-miterlimit="10" stroke-linejoin="miter" fill="none" stroke="#000000" d="M-56.69382 0H56.23553"/>
<path transform="matrix(1.00003,0,0,-1.00002,114.42295,47.154684)" stroke-width=".31879" stroke-linecap="round" stroke-linejoin="round" fill="none" stroke="#000000" d="M-1.19551 1.59401C-1.09587 .99626 0 .09961 .29886 0 0-.09961-1.09587-.99626-1.19551-1.59401"/>
<use data-text="t" xlink:href="#font_1_2" transform="matrix(10.036701,0,0,-10.036601,112.74237,56.738874)"/>
<path transform="matrix(1.00003,0,0,-1.00002,58.18573,47.154684)" stroke-width=".3985" stroke-linecap="butt" stroke-miterlimit="10" stroke-linejoin="miter" fill="none" stroke="#000000" d="M0-20.40962V44.89677"/>
<path transform="matrix(0,-1.00002,-1.00003,-0,58.18573,2.2570115)" stroke-width=".31879" stroke-linecap="round" stroke-linejoin="round" fill="none" stroke="#000000" d="M-1.19551 1.59401C-1.09587 .99626 0 .09961 .29886 0 0-.09961-1.09587-.99626-1.19551-1.59401"/>
<path transform="matrix(1.00003,0,0,-1.00002,58.18573,47.154684)" stroke-width=".3985" stroke-linecap="butt" stroke-miterlimit="10" stroke-linejoin="miter" fill="none" stroke="#b5b5b5" d="M-45.35506 2.26787V-2.26787"/>
<use data-text="-" xlink:href="#font_2_3" transform="matrix(7.3327205,0,0,-7.332647,9.446266,58.864919)"/>
<use data-text="2" xlink:href="#font_2_6" transform="matrix(7.3327205,0,0,-7.332647,12.320686,58.864919)"/>
<path transform="matrix(1.00003,0,0,-1.00002,58.18573,47.154684)" stroke-width=".3985" stroke-linecap="butt" stroke-miterlimit="10" stroke-linejoin="miter" fill="none" stroke="#b5b5b5" d="M-22.67752 2.26787V-2.26787"/>
<use data-text="-" xlink:href="#font_2_3" transform="matrix(7.3327205,0,0,-7.332647,32.123949,58.864919)"/>
<use data-text="1" xlink:href="#font_2_5" transform="matrix(7.3327205,0,0,-7.332647,34.998369,58.864919)"/>
<path transform="matrix(1.00003,0,0,-1.00002,58.18573,47.154684)" stroke-width=".3985" stroke-linecap="butt" stroke-miterlimit="10" stroke-linejoin="miter" fill="none" stroke="#b5b5b5" d="M0 2.26787V-2.26787"/>
<use data-text="0" xlink:href="#font_2_4" transform="matrix(7.3327205,0,0,-7.332647,56.24067,58.864919)"/>
<path transform="matrix(1.00003,0,0,-1.00002,58.18573,47.154684)" stroke-width=".3985" stroke-linecap="butt" stroke-miterlimit="10" stroke-linejoin="miter" fill="none" stroke="#b5b5b5" d="M22.67752 2.26787V-2.26787"/>
<use data-text="1" xlink:href="#font_2_5" transform="matrix(7.3327205,0,0,-7.332647,78.91936,58.864919)"/>
<path transform="matrix(1.00003,0,0,-1.00002,58.18573,47.154684)" stroke-width=".3985" stroke-linecap="butt" stroke-miterlimit="10" stroke-linejoin="miter" fill="none" stroke="#b5b5b5" d="M45.35506 2.26787V-2.26787"/>
<use data-text="2" xlink:href="#font_2_6" transform="matrix(7.3327205,0,0,-7.332647,101.59703,58.864919)"/>
<path transform="matrix(1.00003,0,0,-1.00002,58.18573,47.154684)" stroke-width=".3985" stroke-linecap="butt" stroke-miterlimit="10" stroke-linejoin="miter" fill="none" stroke="#b5b5b5" d="M2.26787-22.67752H-2.26787"/>
<use data-text="-" xlink:href="#font_2_3" transform="matrix(7.3327205,0,0,-7.332647,44.618326,72.287189)"/>
<use data-text="1" xlink:href="#font_2_5" transform="matrix(7.3327205,0,0,-7.332647,47.492746,72.287189)"/>
<path transform="matrix(1.00003,0,0,-1.00002,58.18573,47.154684)" stroke-width=".3985" stroke-linecap="butt" stroke-miterlimit="10" stroke-linejoin="miter" fill="none" stroke="#b5b5b5" d="M2.26787 0H-2.26787"/>
<use data-text="0" xlink:href="#font_2_4" transform="matrix(7.3327205,0,0,-7.332647,47.495409,49.58973)"/>
<path transform="matrix(1.00003,0,0,-1.00002,58.18573,47.154684)" stroke-width=".3985" stroke-linecap="butt" stroke-miterlimit="10" stroke-linejoin="miter" fill="none" stroke="#b5b5b5" d="M2.26787 22.67752H-2.26787"/>
<use data-text="1" xlink:href="#font_2_5" transform="matrix(7.3327205,0,0,-7.332647,47.495409,26.931279)"/>
<path transform="matrix(1.00003,0,0,-1.00002,58.18573,47.154684)" stroke-width="1.19553" stroke-linecap="butt" stroke-miterlimit="10" stroke-linejoin="miter" fill="none" stroke="#0000ff" d="M-56.69382 0H-56.41492-56.136-55.8571-55.5782-55.2993-55.0204-54.74152-54.4626-54.1837-53.9048-53.6259-53.34698-53.06808-52.7892-52.51028-52.23138-51.9525-51.67358-51.39468-51.1158-50.83688-50.55798-50.27908-50.00018-49.72127-49.44237-49.16347-48.88457-48.60567-48.32678-48.04787-47.76897-47.49007-47.21117-46.93225-46.65337-46.37445-46.09555-45.81664-45.53777-45.25885-44.97995-44.70105-44.42215-44.14323-43.86435-43.58543-43.30653-43.02763-42.74873-42.46983-42.19093-41.91203-41.63313-41.35422-41.07533-40.79643-40.51752-40.23863-39.95972-39.68082-39.40193-39.12303-38.84412-38.56522-38.28632-38.00742-37.7285-37.44962-37.1707-36.8918-36.6129-36.334-36.0551-35.7762-35.4973-35.2184-34.93948-34.6606-34.38168-34.10278-33.82388-33.54498-33.26607-32.9872-32.70828-32.42938-32.15047-31.87158-31.59267-31.31377-31.03487-30.75597-30.47707-30.19817-29.91927-29.64037-29.36147-29.08257-28.80367-28.52475-28.24586-27.96695-27.68805-27.40915-27.13025-26.85133-26.57246-26.29355-26.01465-25.73575-25.45685-25.17793-24.89903-24.62013-24.34123-24.06232-23.78343-23.50453-23.22563-22.94673-22.66783-22.38892-22.11002-21.83112-21.55222-21.2733-20.99442-20.7155-20.43661-20.15771-19.87881-19.5999-19.32101-19.0421-18.7632-18.4843-18.2054-17.9265-17.64758-17.3687-17.0898-16.8109-16.532-16.2531-15.97418-15.6953-15.41638-15.13748-14.85857-14.57968-14.30077-14.02188-13.74298-13.46408-13.18517-12.90628-12.62737-12.34846-12.06956-11.79066-11.51175-11.23285-10.95396-10.67506-10.39615-10.11726-9.83835-9.55945-9.28055-9.00165-8.72273-8.44385-8.16495-7.88605-7.60713-7.32825-7.04933-6.77043-6.49155-6.21263-5.93373-5.65483-5.37593-5.09702-4.81813-4.53923-4.26033-3.98141-3.70253-3.42361-3.14471-2.86581-2.58691-2.308-2.02911-1.7502-1.47131-1.1924"/>
<path transform="matrix(1.00003,0,0,-1.00002,58.18573,47.154684)" stroke-width="1.19553" stroke-linecap="butt" stroke-miterlimit="10" stroke-linejoin="miter" fill="none" stroke="#009900" d="M0 22.67752H.28476 .56955 .85432 1.13913 1.4239 1.70868 1.99347 2.27826 2.56303 2.84782 3.1326 3.4174 3.70216 3.98695 4.27174 4.55653 4.84131 5.12608 5.41087 5.69568 5.98044 6.26523 6.55 6.83481 7.11958 7.40436 7.68915 7.97395 8.25871 8.5435 8.82828 9.11308 9.39786 9.68263 9.96742 10.25221 10.53699 10.82178 11.10655 11.39136 11.67612 11.9609 12.2457 12.53049 12.81526 13.10004 13.38483 13.66963 13.95439 14.23918 14.52397 14.80876 15.09354 15.37831 15.6631 15.9479 16.23267 16.51746 16.80223 17.08704 17.37181 17.65659 17.94138 18.22617 18.51094 18.79573 19.0805 19.36531 19.65007 19.93486 20.21965 20.50444 20.78922 21.07399 21.35878 21.64359 21.92834 22.21313 22.49792 22.78271 23.06749 23.35226 23.63707 23.92186 24.20662 24.49141 24.7762 25.06099 25.34576 25.63054 25.91534 26.20012 26.4849 26.76968 27.05447 27.33926 27.62402 27.90881 28.19362 28.4784 28.76317 29.04796 29.33275 29.61754 29.9023 30.18709 30.4719 30.75667 31.04144 31.32622 31.61102 31.89581 32.18057 32.46536 32.75015 33.03494 33.31972 33.60449 33.8893 34.17407 34.45885 34.74364 35.02843 35.31322 35.59798 35.88277 36.16757 36.45235 36.73712 37.02191 37.3067 37.59149 37.87625 38.16104 38.44585 38.73062 39.0154 39.30017 39.58498 39.86977 40.15453 40.43932 40.7241 41.0089 41.29367 41.57845 41.86325 42.14803 42.4328 42.71759 43.00238 43.28717 43.57195 43.85672 44.14153 44.4263 44.71107 44.99586 45.28065 45.56544 45.8502 46.135 46.4198 46.70457 46.98935 47.27414 47.55893 47.84372 48.12848 48.41328 48.69806 48.98285 49.26762 49.55241 49.8372 50.12198 50.40675 50.69156 50.97633 51.26112 51.5459 51.83069 52.11548 52.40025 52.68503 52.96983 53.25461 53.5394 53.82416 54.10896 54.39375 54.67853 54.9633 55.2481 55.53288 55.81767 56.10243 56.38724 56.67201"/>
<path transform="matrix(1.00003,0,0,-1.00002,58.18573,47.154684)" stroke-width=".79701" stroke-linecap="butt" stroke-miterlimit="10" stroke-linejoin="miter" fill="none" stroke="#0000ff" d="M1.59404 0C1.59404 .88037 .88037 1.59404 0 1.59404-.88037 1.59404-1.59404 .88037-1.59404 0-1.59404-.88037-.88037-1.59404 0-1.59404 .88037-1.59404 1.59404-.88037 1.59404 0ZM0 0"/>
<path transform="matrix(1.00003,0,0,-1.00002,58.18573,47.154684)" d="M1.59404 22.67752C1.59404 23.55789 .88037 24.27156 0 24.27156-.88037 24.27156-1.59404 23.55789-1.59404 22.67752-1.59404 21.79713-.88037 21.08347 0 21.08347 .88037 21.08347 1.59404 21.79713 1.59404 22.67752ZM0 22.67752" fill="#009900"/>
<use data-text="t" xlink:href="#font_1_2" transform="matrix(7.3327205,0,0,-7.332647,22.329659,64.10202)" fill="#0000ff"/>
<use data-text="&#x003c;" xlink:href="#font_3_3" transform="matrix(7.3327205,0,0,-7.332647,26.976792,64.10202)" fill="#0000ff"/>
<use data-text="0" xlink:href="#font_2_4" transform="matrix(7.3327205,0,0,-7.332647,33.61699,64.10202)" fill="#0000ff"/>
<use data-text="t" xlink:href="#font_1_2" transform="matrix(7.3327205,0,0,-7.332647,79.02536,64.10202)" fill="#009900"/>
<use data-text="&#x2265;" xlink:href="#font_3_1" transform="matrix(7.3327205,0,0,-7.332647,83.6725,64.10202)" fill="#009900"/>
<use data-text="0" xlink:href="#font_2_4" transform="matrix(7.3327205,0,0,-7.332647,90.3127,64.10202)" fill="#009900"/>
<use data-text="f" xlink:href="#font_1_1" transform="matrix(9.165875,0,0,-9.165783,14.98143,12.046982)" fill="#0000ff"/>
<use data-text="(" xlink:href="#font_2_1" transform="matrix(9.165875,0,0,-9.165783,20.102585,12.046982)" fill="#0000ff"/>
<use data-text="t" xlink:href="#font_1_2" transform="matrix(9.165875,0,0,-9.165783,23.509675,12.046982)" fill="#0000ff"/>
<use data-text=")" xlink:href="#font_2_2" transform="matrix(9.165875,0,0,-9.165783,27.614792,12.046982)" fill="#0000ff"/>
<use data-text="=" xlink:href="#font_3_2" transform="matrix(9.165875,0,0,-9.165783,32.52794,12.046982)" fill="#0000ff"/>
<use data-text="0" xlink:href="#font_2_4" transform="matrix(9.165875,0,0,-9.165783,40.828187,12.046982)" fill="#0000ff"/>
<use data-text="f" xlink:href="#font_1_1" transform="matrix(9.165875,0,0,-9.165783,71.67714,12.046982)" fill="#009900"/>
<use data-text="(" xlink:href="#font_2_1" transform="matrix(9.165875,0,0,-9.165783,76.798297,12.046982)" fill="#009900"/>
<use data-text="t" xlink:href="#font_1_2" transform="matrix(9.165875,0,0,-9.165783,80.20538,12.046982)" fill="#009900"/>
<use data-text=")" xlink:href="#font_2_2" transform="matrix(9.165875,0,0,-9.165783,84.3105,12.046982)" fill="#009900"/>
<use data-text="=" xlink:href="#font_3_2" transform="matrix(9.165875,0,0,-9.165783,89.22365,12.046982)" fill="#009900"/>
<use data-text="1" xlink:href="#font_2_5" transform="matrix(9.165875,0,0,-9.165783,97.523899,12.046982)" fill="#009900"/>
</svg>
