<svg xmlns="http://www.w3.org/2000/svg" xmlns:xlink="http://www.w3.org/1999/xlink" version="1.1" width="155" height="186" viewBox="0 0 155 186">
<defs>
<path id="font_1_1" d="M.6349945 .2529297V.31092835H.084991458V.2529297H.6349945Z"/>
<path id="font_2_2" d="M.4850006 .13195801 .45700074 .13696289C.43598939 .08299255 .41600038 .07598877 .37599183 .07598877H.11999512C.13598633 .1279602 .19499207 .19892884 .28799439 .2658844 .38398744 .33584596 .45799256 .38082887 .45799256 .49276734 .45799256 .63168337 .3659973 .6796875 .26098634 .6796875 .12399292 .6796875 .052993776 .5967102 .052993776 .54473879 .052993776 .51075747 .09098816 .49476625 .10798645 .49476625 .12599182 .49476625 .1329956 .50476077 .13699341 .5217438 .15299988 .5897064 .19198609 .64468386 .2539978 .64468386 .33099366 .64468386 .35299684 .5797119 .35299684 .50675967 .35299684 .3998108 .29899598 .33984376 .21199036 .26289369 .08898926 .15594483 .04598999 .08798218 .026992798 .009994507L.036987306 0H.45098878L.4850006 .13195801Z"/>
<path id="font_2_1" d="M.43699647 0V.0289917L.35299684 .035995485C.33198548 .037994386 .31999208 .04598999 .31999208 .08496094V.67367556L.31498719 .6796875 .10899353 .6446991V.6197052L.20199585 .6087036C.21899414 .6067047 .22599793 .5987091 .22599793 .56973269V.08496094C.22599793 .065979007 .22299195 .053985597 .21699524 .04698181 .21199036 .039993287 .20399475 .036987306 .19299317 .035995485L.10899353 .0289917V0H.43699647Z"/>
<path id="font_2_3" d="M.12998963 .3657837C.12998963 .3487854 .1349945 .33779908 .147995 .33779908 .1599884 .33779908 .18699646 .34777833 .23498535 .34777833 .31999208 .34777833 .36799623 .27090455 .36799623 .18403626 .36799623 .065216068 .30899049 .023269654 .23799134 .023269654 .17199707 .023269654 .1289978 .07319641 .10998535 .12911988 .10398865 .14808655 .09399414 .15707398 .07998657 .15707398 .06199646 .15707398 .026992798 .13809204 .026992798 .10215759 .026992798 .05921936 .09599304-.01171875 .23699951-.01171875 .38198854-.01171875 .47299195 .06121826 .47299195 .18902588 .47299195 .32281495 .35798646 .3627777 .30299378 .3677826V.3717804C.35699464 .38078309 .44400025 .4207611 .44400025 .5197296 .44400025 .6306915 .35699464 .6796875 .25 .6796875 .117996219 .6796875 .052993776 .60369876 .052993776 .5607147 .052993776 .5297241 .08799744 .51272585 .101989749 .51272585 .114990238 .51272585 .12298584 .5197296 .1269989 .5327301 .14898682 .60069277 .18699646 .64468386 .24299622 .64468386 .32199098 .64468386 .34098817 .57470706 .34098817 .51872256 .34098817 .4587555 .31999208 .38378907 .23498535 .38378907 .18699646 .38378907 .1599884 .39378358 .147995 .39378358 .1349945 .39378358 .12998963 .38378907 .12998963 .3657837Z"/>
<path id="font_2_4" d="M.2999878 .17871094V.0769043C.2999878 .04296875 .2889862 .036987306 .2649994 .034988405L.20098877 .0289917V0H.46499635V.0289917L.41999818 .033981325C.39698792 .036987306 .3899994 .04296875 .3899994 .0769043V.17871094H.49299623V.22570801H.3899994V.66796877H.31698609C.22299195 .5298767 .11099243 .35577394 .018997193 .19970703L.027999878 .17871094H.2999878M.09098816 .22570801C.15098572 .33476258 .22099304 .4498291 .2979889 .5709076H.2999878V.22570801H.09098816Z"/>
<clipPath id="clip_3">
<path transform="matrix(1.00003,0,0,-1.00005,2.0930176,184.57842)" d="M0 0H151.61693V181.9403H0Z"/>
</clipPath>
<path id="font_4_1" d="M.42799378 .45222474 .43899537 .49023438H.31199647L.34599305 .6092224 .33399964 .6162262 .23699951 .53923037 .22399903 .49023438H.14299011L.13198853 .45222474H.21499634L.125 .08627319C.10998535 .029266358 .12199402-.01171875 .17199707-.01171875 .2519989-.01171875 .31599427 .054275514 .35598756 .1292572L.33399964 .1462555C.31098939 .10726929 .2599945 .040267946 .22898865 .040267946 .20799256 .040267946 .20799256 .0632782 .21398926 .088272098L.30299378 .45222474H.42799378Z"/>
<path id="font_4_2" d="M.070999149 .45393373 .07398987 .42893983 .14199829 .43093873C.1639862 .43193055 .16899109 .41493226 .1769867 .36291505 .18798828 .28489686 .20999146 .09286499 .20999146 .0128479 .20999146-.017166138 .20799256-.058166505 .18598938-.11117554 .16799927-.15318299 .14199829-.18218994 .12199402-.18218994 .10699463-.18218994 .09599304-.17118836 .08099365-.15118408 .068984989-.13517761 .06098938-.127182 .04598999-.127182 .019989014-.12818909-.005004883-.15818787-.005004883-.18719483-.005004883-.21418762 .023986817-.2421875 .067993167-.2421875 .15299988-.2421875 .18998719-.17919922 .27799989-.027160645 .2979889 .0068511965 .35798646 .11286926 .41999818 .21488953 .47698976 .30891419 .5399933 .40592958 .5399933 .4459381 .5399933 .48094178 .5289917 .5019531 .5219879 .5019531 .5029907 .5019531 .46899415 .49394227 .44400025 .47694398 .44499208 .4419403 .44299317 .3809204 .43099977 .33891297 .4149933 .28289796 .35598756 .17488098 .2899933 .06085205H.2869873C.27999879 .21388245 .26098634 .42492677 .24699402 .49795533L.23899842 .5019531 .070999149 .45393373Z"/>
</defs>
<path transform="matrix(1.00003,0,0,-1.00005,2.0930176,184.57842)" stroke-width=".19925" stroke-linecap="butt" stroke-miterlimit="10" stroke-linejoin="miter" fill="none" stroke="#929292" d="M0 34.97066V37.80545M30.32338 34.97066V37.80545M60.64676 34.97066V37.80545M90.97015 34.97066V37.80545M121.29353 34.97066V37.80545M151.61693 34.97066V37.80545"/>
<path transform="matrix(1.00003,0,0,-1.00005,2.0930176,184.57842)" stroke-width=".19925" stroke-linecap="butt" stroke-miterlimit="10" stroke-linejoin="miter" fill="none" stroke="#929292" d="M15.16168 34.26216V38.51393M45.48508 34.26216V38.51393M106.13185 34.26216V38.51393M136.45523 34.26216V38.51393"/>
<path transform="matrix(1.00003,0,0,-1.00005,2.0930176,184.57842)" stroke-width=".19925" stroke-linecap="butt" stroke-miterlimit="10" stroke-linejoin="miter" fill="none" stroke="#929292" d="M74.39105 21.22636H77.22586M74.39105 51.54974H77.22586M74.39105 81.87314H77.22586M74.39105 112.19652H77.22586M74.39105 142.51992H77.22586M74.39105 172.84329H77.22586"/>
<path transform="matrix(1.00003,0,0,-1.00005,2.0930176,184.57842)" stroke-width=".19925" stroke-linecap="butt" stroke-miterlimit="10" stroke-linejoin="miter" fill="none" stroke="#929292" d="M73.68257 6.06467H77.93433M73.68257 66.71144H77.93433M73.68257 97.03484H77.93433M73.68257 127.35822H77.93433M73.68257 157.6816H77.93433"/>
<path transform="matrix(1.00003,0,0,-1.00005,2.0930176,184.57842)" stroke-width=".3985" stroke-linecap="butt" stroke-miterlimit="10" stroke-linejoin="miter" fill="none" stroke="#000000" d="M0 36.38806H149.6244"/>
<path transform="matrix(1.00003,0,0,-1.00005,151.72193,148.18854)" d="M1.99252 0-1.19551 1.59401 0 0-1.19551-1.59401"/>
<path transform="matrix(1.00003,0,0,-1.00005,2.0930176,184.57842)" stroke-width=".3985" stroke-linecap="butt" stroke-miterlimit="10" stroke-linejoin="miter" fill="none" stroke="#000000" d="M75.80846 0V179.94779"/>
<path transform="matrix(0,-1.00005,-1.00003,-0,77.90375,4.621643)" d="M1.99252 0-1.19551 1.59401 0 0-1.19551-1.59401"/>
<use data-text="&#x2212;" xlink:href="#font_1_1" transform="matrix(15.8386759,0,0,-15.838991,7.3561747,164.3194)"/>
<use data-text="2" xlink:href="#font_2_2" transform="matrix(15.8386759,0,0,-15.838991,18.752522,164.3204)"/>
<use data-text="&#x2212;" xlink:href="#font_1_1" transform="matrix(15.8386759,0,0,-15.838991,37.680086,164.3194)"/>
<use data-text="1" xlink:href="#font_2_1" transform="matrix(15.8386759,0,0,-15.838991,49.07643,164.3204)"/>
<use data-text="1" xlink:href="#font_2_1" transform="matrix(15.8386759,0,0,-15.838991,104.02708,164.3194)"/>
<use data-text="2" xlink:href="#font_2_2" transform="matrix(15.8386759,0,0,-15.838991,134.35199,164.3194)"/>
<use data-text="&#x2212;" xlink:href="#font_1_1" transform="matrix(15.8386759,0,0,-15.838991,52.580537,183.81638)"/>
<use data-text="1" xlink:href="#font_2_1" transform="matrix(15.8386759,0,0,-15.838991,63.976884,183.81739)"/>
<use data-text="1" xlink:href="#font_2_1" transform="matrix(15.8386759,0,0,-15.838991,63.976877,123.16635)"/>
<use data-text="2" xlink:href="#font_2_2" transform="matrix(15.8386759,0,0,-15.838991,63.976877,92.84183)"/>
<use data-text="3" xlink:href="#font_2_3" transform="matrix(15.8386759,0,0,-15.838991,63.976877,62.47332)"/>
<use data-text="4" xlink:href="#font_2_4" transform="matrix(15.8386759,0,0,-15.838991,63.976877,32.191804)"/>
<g clip-path="url(#clip_3)">
<path transform="matrix(1.00003,0,0,-1.00005,2.0930176,184.57842)" stroke-width="1.59404" stroke-linecap="butt" stroke-miterlimit="10" stroke-linejoin="miter" fill="none" stroke="#0000ff" d="M76.65405 67.57051 76.79857 67.71727 77.78868 68.75735 78.77881 69.8314 79.76892 70.94093 80.75905 72.08777 81.74916 73.27281 82.73929 74.49666 83.7294 75.76146 84.71953 77.06898 85.70964 78.4193 86.69977 79.81355 87.68988 81.25392 88.68 82.74341 89.6701 84.28201 90.66023 85.87128 91.65036 87.51328 92.64047 89.21048 93.63058 90.96407 94.62071 92.77469 95.61082 94.64626 96.60095 96.57967 97.59106 98.57738 98.58119 100.64148 99.5713 102.77321 100.56143 104.97711 101.55154 107.2538 102.54167 109.6063 103.53178 112.03731 104.52191 114.54567 105.51201 117.13985 106.50214 119.82072 107.49225 122.59047 108.48238 125.45087 109.47249 128.40709 110.46262 131.45946 111.45273 134.6161 112.44286 137.8774 113.43297 141.24419 114.4231 144.72441 115.41321 148.31986 116.40334 152.03537 117.39345 155.87432 118.38356 159.83759 119.37367 163.9364 120.36382 168.16773 121.35391 172.5443 122.34404 177.06066 123.33417 181.72895 124.08199 185.37317"/>
<path transform="matrix(-.7014711,.71266558,.7126514,.70148506,78.749378,117.00451)" stroke-width="1.27522" stroke-linecap="round" stroke-linejoin="round" fill="none" stroke="#0000ff" d="M-2.27148 3.02866C-2.0822 1.8929 0 .18927 .56786 0 0-.18927-2.0822-1.8929-2.27148-3.02866"/>
<path transform="matrix(.20099604,-.9795889,-.97956946,-.20100005,126.17874,-.8040161)" stroke-width="1.27522" stroke-linecap="round" stroke-linejoin="round" fill="none" stroke="#0000ff" d="M-2.27148 3.02866C-2.0822 1.8929 0 .18927 .56786 0 0-.18927-2.0822-1.8929-2.27148-3.02866"/>
</g>
<path transform="matrix(1.00003,0,0,-1.00005,2.0930176,184.57842)" stroke-width=".3985" stroke-linecap="butt" stroke-miterlimit="10" stroke-linejoin="miter" fill="none" stroke="#000000" d="M77.80101 66.71144C77.80101 67.81192 76.90894 68.704 75.80846 68.704 74.708 68.704 73.8159 67.81192 73.8159 66.71144 73.8159 65.61098 74.708 64.71889 75.80846 64.71889 76.90894 64.71889 77.80101 65.61098 77.80101 66.71144ZM75.80846 66.71144"/>
<path transform="matrix(1.00003,0,0,-1.00005,2.0930176,184.57842)" stroke-width=".3985" stroke-linecap="butt" stroke-miterlimit="10" stroke-linejoin="miter" fill="none" stroke="#000000" d="M85.38185 74.29228C85.38185 75.39276 84.48978 76.28484 83.3893 76.28484 82.28883 76.28484 81.39674 75.39276 81.39674 74.29228 81.39674 73.19182 82.28883 72.29973 83.3893 72.29973 84.48978 72.29973 85.38185 73.19182 85.38185 74.29228ZM83.3893 74.29228"/>
<path transform="matrix(1.00003,0,0,-1.00005,2.0930176,184.57842)" stroke-width=".3985" stroke-linecap="butt" stroke-miterlimit="10" stroke-linejoin="miter" fill="none" stroke="#000000" d="M92.9627 83.76834C92.9627 84.8688 92.07062 85.7609 90.97015 85.7609 89.86967 85.7609 88.9776 84.8688 88.9776 83.76834 88.9776 82.66786 89.86967 81.77579 90.97015 81.77579 92.07062 81.77579 92.9627 82.66786 92.9627 83.76834ZM90.97015 83.76834"/>
<path transform="matrix(1.00003,0,0,-1.00005,2.0930176,184.57842)" stroke-width=".3985" stroke-linecap="butt" stroke-miterlimit="10" stroke-linejoin="miter" fill="none" stroke="#000000" d="M100.54355 95.61342C100.54355 96.71388 99.65147 97.60597 98.551 97.60597 97.45053 97.60597 96.55844 96.71388 96.55844 95.61342 96.55844 94.51294 97.45053 93.62086 98.551 93.62086 99.65147 93.62086 100.54355 94.51294 100.54355 95.61342ZM98.551 95.61342"/>
<path transform="matrix(1.00003,0,0,-1.00005,2.0930176,184.57842)" stroke-width=".3985" stroke-linecap="butt" stroke-miterlimit="10" stroke-linejoin="miter" fill="none" stroke="#000000" d="M108.1244 110.41975C108.1244 111.52023 107.23232 112.41231 106.13185 112.41231 105.03137 112.41231 104.1393 111.52023 104.1393 110.41975 104.1393 109.31929 105.03137 108.4272 106.13185 108.4272 107.23232 108.4272 108.1244 109.31929 108.1244 110.41975ZM106.13185 110.41975"/>
<path transform="matrix(1.00003,0,0,-1.00005,2.0930176,184.57842)" stroke-width=".3985" stroke-linecap="butt" stroke-miterlimit="10" stroke-linejoin="miter" fill="none" stroke="#000000" d="M115.70525 128.92769C115.70525 130.02816 114.81316 130.92024 113.71269 130.92024 112.61221 130.92024 111.72014 130.02816 111.72014 128.92769 111.72014 127.82721 112.61221 126.93513 113.71269 126.93513 114.81316 126.93513 115.70525 127.82721 115.70525 128.92769ZM113.71269 128.92769"/>
<path transform="matrix(1.00003,0,0,-1.00005,2.0930176,184.57842)" stroke-width=".3985" stroke-linecap="butt" stroke-miterlimit="10" stroke-linejoin="miter" fill="none" stroke="#000000" d="M123.28609 152.06259C123.28609 153.16306 122.39401 154.05515 121.29353 154.05515 120.19307 154.05515 119.30098 153.16306 119.30098 152.06259 119.30098 150.96212 120.19307 150.07004 121.29353 150.07004 122.39401 150.07004 123.28609 150.96212 123.28609 152.06259ZM121.29353 152.06259"/>
<path transform="matrix(1.00003,0,0,-1.00005,2.0930176,184.57842)" stroke-width=".3985" stroke-linecap="butt" stroke-miterlimit="10" stroke-linejoin="miter" fill="none" stroke="#000000" d="M130.86695 180.98122C130.86695 182.0817 129.97486 182.97377 128.87439 182.97377 127.77391 182.97377 126.88184 182.0817 126.88184 180.98122 126.88184 179.88076 127.77391 178.98867 128.87439 178.98867 129.97486 178.98867 130.86695 179.88076 130.86695 180.98122ZM128.87439 180.98122"/>
<path transform="matrix(1.00003,0,0,-1.00005,2.0930176,184.57842)" stroke-width=".3985" stroke-linecap="butt" stroke-miterlimit="10" stroke-linejoin="miter" fill="none" stroke="#000000" d=""/>
<use data-text="t" xlink:href="#font_4_1" transform="matrix(15.8386759,0,0,-15.838991,143.22226,144.65143)"/>
<use data-text="y" xlink:href="#font_4_2" transform="matrix(15.8386759,0,0,-15.838991,82.16342,13.861893)"/>
</svg>
