<svg xmlns="http://www.w3.org/2000/svg" xmlns:xlink="http://www.w3.org/1999/xlink" version="1.1" width="152" height="33" viewBox="0 0 152 33">
<defs>
<path id="font_1_3" d="M.42799378 .45222474 .43899537 .49023438H.31199647L.34599305 .6092224 .33399964 .6162262 .23699951 .53923037 .22399903 .49023438H.14299011L.13198853 .45222474H.21499634L.125 .08627319C.10998535 .029266358 .12199402-.01171875 .17199707-.01171875 .2519989-.01171875 .31599427 .054275514 .35598756 .1292572L.33399964 .1462555C.31098939 .10726929 .2599945 .040267946 .22898865 .040267946 .20799256 .040267946 .20799256 .0632782 .21398926 .088272098L.30299378 .45222474H.42799378Z"/>
<path id="font_1_1" d="M.43199159 .49023438H.3019867L.32998658 .6031952C.34899903 .67918398 .36799623 .70718386 .3959961 .70718386 .4229889 .70718386 .44099427 .68518069 .46299745 .6371918 .46798707 .62719729 .47499085 .6201935 .48999024 .6201935 .5099945 .6201935 .5389862 .6391907 .5389862 .6641846 .5389862 .70718386 .4850006 .7421875 .4249878 .7421875 .3600006 .7421875 .31799317 .71517947 .2849884 .67318728 .2539978 .63420107 .23399353 .5802002 .21998596 .5272217L.20999146 .49023438H.12298584L.11199951 .45222474H.20098877L.084991458-.137146C.07299805-.19918823 .06298828-.2052002 .052993776-.2052002 .041992189-.2052002 .026992798-.19718933 0-.15615845-.007003784-.14616394-.014007568-.13415528-.027008057-.13415528-.04901123-.13415528-.072006229-.15916443-.072006229-.18418885-.071014408-.2171936-.028015137-.2421875 .018997193-.2421875 .11898804-.2421875 .16099549-.16116333 .20298767 .030960083L.29599 .45222474H.42199708L.43199159 .49023438Z"/>
<path id="font_1_2" d="M.18598938 .0002746582C.21499634 .10221863 .23199463 .1561737 .2579956 .21812439 .29499818 .3040619 .3909912 .44995118 .47200013 .44995118 .5069885 .44995118 .5159912 .41796876 .5049896 .3789978L.4189911 .086242679C.40299989 .030273438 .41600038-.01171875 .46998597-.01171875 .54499819-.01171875 .6009979 .056259157 .6349945 .13220215L.61099246 .14619446C.59298709 .11122131 .548996 .040267946 .5209961 .040267946 .5009918 .040267946 .5019989 .06324768 .5109863 .0952301L.58898928 .35702516C.6119995 .43595887 .59999087 .5019531 .5179901 .5019531 .42199708 .5019531 .31799317 .39598084 .2579956 .27908326H.25498963L.31999208 .4970703 .31498719 .50205996 .13198853 .47375489 .12599182 .44995118 .18798828 .4449463C.21199036 .4429474 .21199036 .42895509 .20298767 .39698792L.09799194-.01171875 .18598938 .0002746582Z"/>
<path id="font_2_3" d="M.3809967 .6720276C.5589905 .6720276 .59999087 .4931183 .60198977 .3461914 .59999087 .19924927 .5589905 .020339966 .3809967 .020339966 .20298767 .020339966 .1619873 .19924927 .1599884 .3461914 .1619873 .4931183 .20298767 .6720276 .3809967 .6720276M.3809967 .70703127C.2709961 .70703127 .18899536 .6730194 .1329956 .61006167 .07899475 .55007937 .04798889 .4591217 .04798889 .3461914 .04798889 .23423767 .07899475 .14228821 .1329956 .08232117 .18899536 .019348145 .2709961-.0146484379 .3809967-.0146484379 .49198915-.0146484379 .57299807 .019348145 .6289978 .08232117 .6839905 .14228821 .71398928 .23423767 .71398928 .3461914 .71398928 .4591217 .6839905 .55007937 .6289978 .61006167 .57299807 .6730194 .49198915 .70703127 .3809967 .70703127Z"/>
<path id="font_2_2" d="M.033996583 .6923828V.66337588C.12199402 .6573639 .12399292 .655365 .12399292 .5993347V.20309448C.12399292 .15007019 .12199402 .11204529 .116989139 .07902527 .11099243 .037002565 .08699036 .032989503 .034988405 .0289917V0H.27198792V.0289917C.20698548 .033996583 .18299866 .037002565 .1769867 .07902527 .17199707 .11204529 .16999817 .15007019 .16999817 .20309448V.6023407H.17199707C.31498719 .4012146 .45700074 .20109558 .59799197 0H.6639862V.48927308C.6639862 .54229739 .66600039 .58032229 .67099 .6133423 .6769867 .655365 .70098879 .6593628 .7529907 .66337588V.6923828H.5159912V.66337588C.58099368 .658371 .6049957 .655365 .61099246 .6133423 .6159973 .58032229 .6179962 .54229739 .6179962 .48927308V.13806153L.6159973 .14006043C.4850006 .32417298 .35499574 .5082855 .22599793 .6923828H.033996583Z"/>
<path id="font_2_9" d="M.18899536 .5019531 .036987306 .47694398V.45195008L.07499695 .4469452C.100997928 .4429474 .10699463 .4379425 .10699463 .40194703V.08699036C.10699463 .035995485 .101989749 .033996583 .03199768 .0289917V0H.29599V.0289917C.20698548 .033996583 .20098877 .035995485 .20098877 .08699036V.32095338C.20098877 .39794923 .23498535 .4239502 .2579956 .4239502 .27398683 .4239502 .29100038 .4179535 .31999208 .40194703 .32699586 .39794923 .33499146 .39694215 .33999635 .39694215 .3639984 .39694215 .38598634 .4219513 .38598634 .4529419 .38598634 .47494508 .37199403 .5019531 .33299256 .5019531 .29699708 .5019531 .2669983 .47994996 .20098877 .4219513L.18899536 .5019531Z"/>
<path id="font_2_4" d="M.44099427 .2627716C.46199037 .2627716 .48098756 .2677765 .48098756 .30078126 .48098756 .35983277 .46199037 .5019531 .2789917 .5019531 .12298584 .5019531 .04899597 .39086915 .04899597 .24082947 .04899597 .08317566 .116989139-.01373291 .27999879-.01171875 .3909912-.010726929 .44799806 .050247194 .47499085 .1290741L.44499208 .14503479C.4169922 .08717346 .3789978 .039276124 .2999878 .039276124 .17599488 .039276124 .15098572 .15901184 .15299988 .2627716H.44099427M.1539917 .30078126C.1539917 .34181214 .16899109 .46694947 .272995 .46694947 .3659973 .46694947 .3769989 .37184144 .3769989 .33280946 .3769989 .31378175 .37098695 .30078126 .34298707 .30078126H.1539917Z"/>
<path id="font_2_5" d="M.2599945 .46694947C.30899049 .46694947 .3600006 .43093873 .3600006 .33392335 .3600006 .24989319 .31599427 .20588684 .2579956 .20588684 .20199585 .20588684 .15499878 .24989319 .15499878 .33392335 .15499878 .43293763 .20698548 .46694947 .2599945 .46694947M.2809906-.2071991C.19599915-.2071991 .13699341-.16319275 .13699341-.09118652 .13699341-.057174684 .14698792-.032180787 .16799927-.016174317 .18998719 .0008239746 .22299195 .0068359377 .2709961 .0068359377 .35899354 .0068359377 .42399598-.014175415 .42399598-.08918762 .42399598-.16918946 .35198976-.2071991 .2809906-.2071991M.3889923 .47094728C.36099244 .48994447 .30599977 .5019531 .2599945 .5019531 .10699463 .5019531 .052993776 .40792848 .052993776 .33392335 .052993776 .23989868 .114990238 .19688416 .16099549 .18489075V.18289185C.10699463 .1618805 .068984989 .13285828 .068984989 .09384155 .068984989 .05882263 .10899353 .020828248 .15699768 .015823365V.013824463C.11399841-.00016784668 .041992189-.024169922 .041992189-.09617615 .041992189-.19718933 .14199829-.2421875 .2579956-.2421875 .31799317-.2421875 .3809967-.23019409 .42900086-.20118714 .47499085-.17318726 .5079956-.12619019 .5079956-.06417847 .5079956 .043823244 .42199708 .081832889 .31498719 .081832889H.23498535C.16299439 .081832889 .1519928 .10585022 .1519928 .12486267 .1519928 .15388489 .18998719 .16989136 .20298767 .17388916 .22200012 .17189026 .24299622 .17089844 .2539978 .17089844 .34899903 .17089844 .45599366 .21289063 .45599366 .33392335 .45599366 .3759308 .44299317 .41093446 .42599488 .42793275L.5049896 .4399414 .5249939 .50294497 .5169983 .51194766 .3889923 .47094728Z"/>
<path id="font_2_6" d="M.036987306 .47694398V.45195008L.07499695 .4469452C.100997928 .4429474 .10699463 .43795777 .10699463 .40194703V.08699036C.10699463 .035995485 .10398865 .033996583 .03199768 .0289917V0H.27598573V.0289917C.20498657 .033996583 .20098877 .035995485 .20098877 .08699036V.49609376L.19400025 .5020752 .036987306 .47694398M.15299988 .71484377C.116989139 .71484377 .09199524 .6888428 .09199524 .65283206 .09199524 .61782839 .116989139 .5928345 .15299988 .5928345 .18998719 .5928345 .21299744 .61782839 .21398926 .65283206 .21398926 .6888428 .18998719 .71484377 .15299988 .71484377Z"/>
<path id="font_2_8" d="M.28799439 .5019531C.12799073 .5019531 .04899597 .40698243 .04899597 .24510193 .04899597 .083236698 .12799073-.01171875 .28799439-.01171875 .44999696-.01171875 .5279999 .083236698 .5279999 .24510193 .5279999 .40698243 .44999696 .5019531 .28799439 .5019531M.15299988 .24510193C.15299988 .38301087 .19699097 .46694947 .28799439 .46694947 .3809967 .46694947 .42399598 .38301087 .42399598 .24510193 .42399598 .10720825 .3809967 .023269654 .28799439 .023269654 .19699097 .023269654 .15299988 .10720825 .15299988 .24510193Z"/>
<path id="font_2_7" d="M.5289917 .34295655C.5289917 .4439392 .47399903 .5019531 .38198854 .5019531 .30799867 .5019531 .2619934 .46594239 .19999695 .4259491L.18598938 .5019531 .036987306 .47694398V.45195008L.07499695 .4469452C.100997928 .4429474 .10699463 .4379425 .10699463 .40194703V.08699036C.10699463 .035995485 .10398865 .033996583 .03199768 .0289917V0H.27598573V.0289917C.20498657 .033996583 .20098877 .035995485 .20098877 .08699036V.32095338C.20098877 .34596253 .20298767 .35995484 .21099854 .37594605 .23199463 .4149475 .2769928 .44795228 .32998658 .44795228 .397995 .44795228 .43499757 .40994264 .43499757 .32295228V.08699036C.43499757 .035995485 .43199159 .033996583 .3600006 .0289917V0H.60398867V.0289917C.5329895 .033996583 .5289917 .035995485 .5289917 .08699036V.34295655Z"/>
<path id="font_2_1" d="M.034988405 .6923828V.66337588C.12298584 .6573639 .125 .655365 .125 .5993347V.093048099C.125 .037002565 .12298584 .035003663 .034988405 .0289917V0H.32998658V.0289917C.22698975 .035003663 .22399903 .037002565 .22399903 .093048099V.32722474H.3639984C.44898988 .32722474 .45298768 .3032074 .46199037 .23916626H.49198915V.4532776H.46199037C.45298768 .38923646 .44898988 .36523438 .3639984 .36523438H.22399903V.62135317C.22399903 .65437319 .22799683 .65737918 .26098634 .65737918H.3600006C.47599793 .65737918 .49899293 .6343689 .5130005 .5323181H.54299929V.6923828H.034988405Z"/>
</defs>
<path transform="matrix(1.00008,0,0,-1.00009,1.4914017,18.708245)" d="M106.30052-12.75616V17.00813H148.82074V-12.75616ZM148.82074 17.00813" fill="#ecd9d9"/>
<path transform="matrix(1.00008,0,0,-1.00009,1.4914017,18.708245)" stroke-width=".3985" stroke-linecap="butt" stroke-miterlimit="10" stroke-linejoin="miter" fill="none" stroke="#000000" d="M0 0H148.36246"/>
<path transform="matrix(1.00008,0,0,-1.00009,149.86573,18.708245)" stroke-width=".31879" stroke-linecap="round" stroke-linejoin="round" fill="none" stroke="#000000" d="M-1.19551 1.59401C-1.09587 .99626 0 .09961 .29886 0 0-.09961-1.09587-.99626-1.19551-1.59401"/>
<use data-text="t" xlink:href="#font_1_3" transform="matrix(9.166333,0,0,-9.166425,146.245,27.757058)"/>
<path transform="matrix(1.00008,0,0,-1.00009,1.4914017,18.708245)" stroke-width=".19925" stroke-linecap="butt" stroke-dasharray="2.98883,2.98883" stroke-miterlimit="10" stroke-linejoin="miter" fill="none" stroke="#000000" d="M106.30052-12.75616V17.00813"/>
<path transform="matrix(1.00008,0,0,-1.00009,1.4914017,18.708245)" d="M108.54214 0C108.54214 1.238 107.53854 2.24162 106.30052 2.24162 105.0625 2.24162 104.0589 1.238 104.0589 0 104.0589-1.238 105.0625-2.24162 106.30052-2.24162 107.53854-2.24162 108.54214-1.238 108.54214 0ZM106.30052 0"/>
<path transform="matrix(1.00008,0,0,-1.00009,1.4914017,18.708245)" stroke-width="1.19553" stroke-linecap="butt" stroke-miterlimit="10" stroke-linejoin="miter" fill="none" stroke="#000000" d="M0 0H1.06079 2.12158 3.18237 4.24316 5.30397 6.36478 7.42558 8.48637 9.54718 10.60797 11.66878 12.72957 13.79037 14.85117 15.91197 16.97278 18.03358 19.09438 20.15517 21.21596 22.27676 23.33757 24.39836 25.45917 26.51996 27.58078 28.64157 29.70236 30.76315 31.82396 32.88477 33.94557 35.00636 36.06717 37.12796 38.18877 39.24956 40.31035 41.37115 42.43195 43.49277 44.55356 45.61436 46.67516 47.73595 48.79675 49.85756 50.91835 51.97916 53.03995 54.10077 55.16156 56.22235 57.28314 58.34393 59.40475 60.46555 61.52635 62.58714 63.64795 64.70876 65.76955 66.83034 67.89114 68.95193 70.01276 71.07355 72.13435 73.19514 74.25594 75.31674 76.37753 77.43834 78.49913 79.55994 80.62074 81.68155 82.74234 83.80313 84.86392 85.92474 86.98553 88.04634 89.10713 90.16794 91.22874 92.28954 93.35033 94.41112 95.47192 96.53271 97.59354 98.65433 99.71513 100.77592 101.83672 102.89752 103.95833 105.01912"/>
<use data-text="f" xlink:href="#font_1_1" transform="matrix(7.3330867,0,0,-7.33316,119.27982,12.0426449)" fill="#800000"/>
<use data-text="n" xlink:href="#font_1_2" transform="matrix(6.233099,0,0,-6.233161,121.990039,13.238752)" fill="#800000"/>
<use data-text="O" xlink:href="#font_2_3" transform="matrix(7.3330867,0,0,-7.33316,128.33155,12.0426449)" fill="#800000"/>
<use data-text="N" xlink:href="#font_2_2" transform="matrix(7.3330867,0,0,-7.33316,133.91936,12.0426449)" fill="#800000"/>
<use data-text="r" xlink:href="#font_2_9" transform="matrix(7.3330867,0,0,-7.33316,115.37251,28.90516)" fill="#800000"/>
<use data-text="e" xlink:href="#font_2_4" transform="matrix(7.3330867,0,0,-7.33316,118.08575,28.90516)" fill="#800000"/>
<use data-text="g" xlink:href="#font_2_5" transform="matrix(7.3330867,0,0,-7.33316,121.85496,28.90516)" fill="#800000"/>
<use data-text="i" xlink:href="#font_2_6" transform="matrix(7.3330867,0,0,-7.33316,125.66816,28.90516)" fill="#800000"/>
<use data-text="o" xlink:href="#font_2_8" transform="matrix(7.3330867,0,0,-7.33316,127.802089,28.90516)" fill="#800000"/>
<use data-text="n" xlink:href="#font_2_7" transform="matrix(7.3330867,0,0,-7.33316,132.03327,28.90516)" fill="#800000"/>
<use data-text="n" xlink:href="#font_2_7" transform="matrix(7.3330867,0,0,-7.33316,138.21506,28.90516)" fill="#800000"/>
<use data-text="f" xlink:href="#font_1_1" transform="matrix(7.3330867,0,0,-7.33316,43.46776,12.0426449)" fill="#800000"/>
<use data-text="n" xlink:href="#font_1_2" transform="matrix(6.233099,0,0,-6.233161,46.17797,13.238752)" fill="#800000"/>
<use data-text="O" xlink:href="#font_2_3" transform="matrix(7.3330867,0,0,-7.33316,52.519487,12.0426449)" fill="#800000"/>
<use data-text="F" xlink:href="#font_2_1" transform="matrix(7.3330867,0,0,-7.33316,58.107294,12.0426449)" fill="#800000"/>
<use data-text="F" xlink:href="#font_2_1" transform="matrix(7.3330867,0,0,-7.33316,62.36049,12.0426449)" fill="#800000"/>
</svg>
