<svg xmlns="http://www.w3.org/2000/svg" xmlns:xlink="http://www.w3.org/1999/xlink" version="1.1" width="8" height="48" viewBox="0 0 8 48">
<path transform="matrix(1,0,0,-1.00002,3.663002,23.874176)" stroke-width="1.19553" stroke-linecap="butt" stroke-miterlimit="10" stroke-linejoin="miter" fill="none" stroke="#000000" d="M0-22.6771V22.6771"/>
<path transform="matrix(1,0,0,-1.00002,3.663002,23.874176)" stroke-width="1.19553" stroke-linecap="butt" stroke-miterlimit="10" stroke-linejoin="miter" fill="none" stroke="#008080" d="M0 17.00781V19.06197"/>
<path transform="matrix(0,1.00002,1,0,3.663002,4.811825)" d="M3.18808 0-1.91284 2.55046 0 0-1.91284-2.55046" fill="#008080"/>
<path transform="matrix(1,0,0,-1.00002,3.663002,23.874176)" d="M1.19551 11.33855C1.19551 11.99881 .66026 12.53406 0 12.53406-.66026 12.53406-1.19551 11.99881-1.19551 11.33855-1.19551 10.67827-.66026 10.14302 0 10.14302 .66026 10.14302 1.19551 10.67827 1.19551 11.33855ZM0 11.33855"/>
<path transform="matrix(1,0,0,-1.00002,3.663002,23.874176)" stroke-width=".3985" stroke-linecap="butt" stroke-miterlimit="10" stroke-linejoin="miter" fill="none" stroke="#000000" d="M1.19551 11.33855C1.19551 11.99881 .66026 12.53406 0 12.53406-.66026 12.53406-1.19551 11.99881-1.19551 11.33855-1.19551 10.67827-.66026 10.14302 0 10.14302 .66026 10.14302 1.19551 10.67827 1.19551 11.33855ZM0 11.33855"/>
<path transform="matrix(1,0,0,-1.00002,3.663002,23.874176)" stroke-width="1.19553" stroke-linecap="butt" stroke-miterlimit="10" stroke-linejoin="miter" fill="none" stroke="#008080" d="M0 6.80318V4.74884"/>
<path transform="matrix(0,-1.00002,-1,-0,3.663002,19.12524)" d="M3.18808 0-1.91284 2.55046 0 0-1.91284-2.55046" fill="#008080"/>
<path transform="matrix(1,0,0,-1.00002,3.663002,23.874176)" d="M1.19551 0C1.19551 .66026 .66026 1.19551 0 1.19551-.66026 1.19551-1.19551 .66026-1.19551 0-1.19551-.66026-.66026-1.19551 0-1.19551 .66026-1.19551 1.19551-.66026 1.19551 0ZM0 0"/>
<path transform="matrix(1,0,0,-1.00002,3.663002,23.874176)" stroke-width=".3985" stroke-linecap="butt" stroke-miterlimit="10" stroke-linejoin="miter" fill="none" stroke="#000000" d="M1.19551 0C1.19551 .66026 .66026 1.19551 0 1.19551-.66026 1.19551-1.19551 .66026-1.19551 0-1.19551-.66026-.66026-1.19551 0-1.19551 .66026-1.19551 1.19551-.66026 1.19551 0ZM0 0"/>
<path transform="matrix(1,0,0,-1.00002,3.663002,23.874176)" stroke-width="1.19553" stroke-linecap="butt" stroke-miterlimit="10" stroke-linejoin="miter" fill="none" stroke="#008080" d="M0-6.80318V-4.74884"/>
<path transform="matrix(0,1.00002,1,0,3.663002,28.623112)" d="M3.18808 0-1.91284 2.55046 0 0-1.91284-2.55046" fill="#008080"/>
<path transform="matrix(1,0,0,-1.00002,3.663002,23.874176)" d="M1.19551-11.33855C1.19551-10.67827 .66026-10.14302 0-10.14302-.66026-10.14302-1.19551-10.67827-1.19551-11.33855-1.19551-11.99881-.66026-12.53406 0-12.53406 .66026-12.53406 1.19551-11.99881 1.19551-11.33855ZM0-11.33855"/>
<path transform="matrix(1,0,0,-1.00002,3.663002,23.874176)" stroke-width=".3985" stroke-linecap="butt" stroke-miterlimit="10" stroke-linejoin="miter" fill="none" stroke="#000000" d="M1.19551-11.33855C1.19551-10.67827 .66026-10.14302 0-10.14302-.66026-10.14302-1.19551-10.67827-1.19551-11.33855-1.19551-11.99881-.66026-12.53406 0-12.53406 .66026-12.53406 1.19551-11.99881 1.19551-11.33855ZM0-11.33855"/>
<path transform="matrix(1,0,0,-1.00002,3.663002,23.874176)" stroke-width="1.19553" stroke-linecap="butt" stroke-miterlimit="10" stroke-linejoin="miter" fill="none" stroke="#008080" d="M0-18.14172V-16.0874"/>
<path transform="matrix(0,1.00002,1,0,3.663002,39.9619)" d="M3.18808 0-1.91284 2.55046 0 0-1.91284-2.55046" fill="#008080"/>
</svg>
