<svg xmlns="http://www.w3.org/2000/svg" xmlns:xlink="http://www.w3.org/1999/xlink" version="1.1" width="262" height="172" viewBox="0 0 262 172">
<defs>
<path id="font_1_1" d="M.5069885 .1381836C.48298646 .0932312 .45599366 .040267946 .42799378 .040267946 .40899659 .040267946 .40098573 .06324768 .3789978 .1521759L.34700013 .2830658C.3829956 .34701539 .43399049 .42694093 .46299745 .42694093 .47200013 .42694093 .47999574 .42494203 .4909973 .4189453 .5009918 .4149475 .5109863 .4109497 .522995 .4109497 .54499819 .4109497 .56599429 .4319458 .56599429 .4589386 .56599429 .48994447 .54299929 .5019531 .5149994 .5019531 .46199037 .5019531 .4169922 .45394898 .38198854 .39796449L.33799745 .33003236H.33599855L.29599 .49794007 .2899933 .5019531 .125 .45195008 .12799073 .427948 .20298767 .43295289C.22099304 .4339447 .22799683 .42893983 .23899842 .38298036L.2749939 .2381134 .24699402 .19015503C.20399475 .11723328 .16699219 .0652771 .14299011 .0652771 .1329956 .0652771 .12298584 .0692749 .11399841 .07426453 .10398865 .07926941 .09098816 .089279178 .07398987 .089279178 .04798889 .089279178 .0309906 .0632782 .0309906 .039276124 .0309906 .010269165 .054992677-.01171875 .09498596-.01171875 .16299439-.01171875 .20199585 .056259157 .24299622 .12319946L.2829895 .18914795H.2849884L.30299378 .111206058C.32199098 .031280519 .34098817-.01171875 .3919983-.01171875 .46499635-.01171875 .5029907 .06324768 .5329895 .12420654L.5069885 .1381836Z"/>
<path id="font_1_2" d="M.070999149 .45393373 .07398987 .42893983 .14199829 .43093873C.1639862 .43193055 .16899109 .41493226 .1769867 .36291505 .18798828 .28489686 .20999146 .09286499 .20999146 .0128479 .20999146-.017166138 .20799256-.058166505 .18598938-.11117554 .16799927-.15318299 .14199829-.18218994 .12199402-.18218994 .10699463-.18218994 .09599304-.17118836 .08099365-.15118408 .068984989-.13517761 .06098938-.127182 .04598999-.127182 .019989014-.12818909-.005004883-.15818787-.005004883-.18719483-.005004883-.21418762 .023986817-.2421875 .067993167-.2421875 .15299988-.2421875 .18998719-.17919922 .27799989-.027160645 .2979889 .0068511965 .35798646 .11286926 .41999818 .21488953 .47698976 .30891419 .5399933 .40592958 .5399933 .4459381 .5399933 .48094178 .5289917 .5019531 .5219879 .5019531 .5029907 .5019531 .46899415 .49394227 .44400025 .47694398 .44499208 .4419403 .44299317 .3809204 .43099977 .33891297 .4149933 .28289796 .35598756 .17488098 .2899933 .06085205H.2869873C.27999879 .21388245 .26098634 .42492677 .24699402 .49795533L.23899842 .5019531 .070999149 .45393373Z"/>
<path id="font_2_1" d="M.6499939 0V.0289917C.59199526 .033981325 .58099368 .036972047 .5629883 .088897708L.35099793 .6923828H.2769928L.17199707 .39578248C.14099121 .308609 .09899902 .1887207 .06399536 .09786987 .042999269 .04396057 .033996583 .031982423-.029006958 .0289917V0H.19099427V.0289917L.13899231 .033981325C.10899353 .036972047 .10598755 .046966554 .11399841 .073913577 .1309967 .13381958 .1519928 .19570923 .1749878 .26660157H.39898683L.46598817 .075912479C.47599793 .046966554 .47099305 .035980226 .43899537 .032989503L.3939972 .0289917V0H.6499939M.3869934 .30459596H.18798828C.21998596 .40486146 .25498963 .50312808 .2849884 .5913696H.28799439L.3869934 .30459596Z"/>
<path id="font_2_12" d="M.18899536 .5019531 .036987306 .47694398V.45195008L.07499695 .4469452C.100997928 .4429474 .10699463 .4379425 .10699463 .40194703V.08699036C.10699463 .035995485 .101989749 .033996583 .03199768 .0289917V0H.29599V.0289917C.20698548 .033996583 .20098877 .035995485 .20098877 .08699036V.32095338C.20098877 .39794923 .23498535 .4239502 .2579956 .4239502 .27398683 .4239502 .29100038 .4179535 .31999208 .40194703 .32699586 .39794923 .33499146 .39694215 .33999635 .39694215 .3639984 .39694215 .38598634 .4219513 .38598634 .4529419 .38598634 .47494508 .37199403 .5019531 .33299256 .5019531 .29699708 .5019531 .2669983 .47994996 .20098877 .4219513L.18899536 .5019531Z"/>
<path id="font_2_11" d="M.28799439 .5019531C.12799073 .5019531 .04899597 .40698243 .04899597 .24510193 .04899597 .083236698 .12799073-.01171875 .28799439-.01171875 .44999696-.01171875 .5279999 .083236698 .5279999 .24510193 .5279999 .40698243 .44999696 .5019531 .28799439 .5019531M.15299988 .24510193C.15299988 .38301087 .19699097 .46694947 .28799439 .46694947 .3809967 .46694947 .42399598 .38301087 .42399598 .24510193 .42399598 .10720825 .3809967 .023269654 .28799439 .023269654 .19699097 .023269654 .15299988 .10720825 .15299988 .24510193Z"/>
<path id="font_2_15" d="M-.0020141602 .49023438V.46122743C.038986207 .45922853 .051986696 .45622254 .06399536 .41819764 .10598755 .2861328 .1499939 .15106201 .19198609 0H.2679901L.38598634 .38150025H.3889923C.43099977 .2543335 .47200013 .12716675 .5119934 0H.58799746C.6299896 .14703369 .68899539 .32513429 .71398928 .40318299 .73098757 .45422364 .74198916 .45822145 .7919922 .46122743V.49023438H.59498599V.46122743L.6519928 .45622254C.6689911 .45422364 .66999819 .4412079 .66600039 .4232025 .6529999 .36416627 .6069946 .20205689 .57598879 .08898926H.57398989C.5309906 .21922302 .48999024 .3484497 .44898988 .47851563H.37298585L.25698854 .08898926H.25498963C.21899414 .20410156 .18798828 .3201599 .1559906 .4282074 .1499939 .44721986 .1559906 .45622254 .17399597 .45822145L.20899964 .46122743V.49023438H-.0020141602Z"/>
<path id="font_2_13" d="M.36698915 .35102845V.46794129C.33399964 .49194337 .2829895 .5019531 .23799134 .5019531 .12998963 .5019531 .056991579 .45095826 .055999757 .35603334 .056991579 .27308656 .12399292 .2361145 .20698548 .21113587 .2519989 .19714356 .31498719 .17416382 .31498719 .10621643 .31498719 .055252077 .2749939 .023269654 .22200012 .023269654 .14099121 .023269654 .09599304 .082229617 .07598877 .16716004H.04699707L.056991579 .03627014C.09298706 .004272461 .1539917-.01171875 .21299744-.01171875 .33198548-.01171875 .3999939 .051254274 .3999939 .13618469 .3999939 .2241211 .34599305 .26409913 .24299622 .29606629 .20199585 .30906678 .13598633 .3300476 .13598633 .3860016 .13699341 .43795777 .17599488 .46694947 .22599793 .46694947 .29699708 .46694947 .33099366 .4119873 .33799745 .35102845H.36698915Z"/>
<path id="font_2_7" d="M.5169983 .34295655C.5169983 .4439392 .46199037 .5019531 .36898805 .5019531 .29599 .5019531 .25099183 .46794129 .18798828 .4259491V.73617556L.18099976 .7421875 .024993897 .7171478V.6921234L.06298828 .68711856C.08898926 .6831207 .09498596 .67811587 .09498596 .6420746V.08699036C.09599304 .037994386 .09098816 .033996583 .020996094 .0289917V0H.2639923V.0289917C.19499207 .033996583 .18899536 .037994386 .18899536 .08699036V.32095338C.18899536 .34596253 .18998719 .35995484 .19799805 .37495423 .21899414 .4149475 .2649994 .44795228 .31799317 .44795228 .38598634 .44795228 .4229889 .40994264 .4229889 .32295228V.08699036C.4229889 .037994386 .41799928 .033996583 .34799195 .0289917V0H.59199526V.0289917C.522995 .033996583 .5169983 .037994386 .5169983 .08699036V.34295655Z"/>
<path id="font_2_4" d="M.58299258 0V.0289917C.5119934 .033996583 .5079956 .035995485 .5079956 .08699036V.73617556L.5009918 .7421875 .34399415 .7171478V.6921234L.38198854 .6881256C.4079895 .6851196 .4139862 .68011477 .4139862 .6420746V.47795106C.38598634 .49295045 .34899903 .5019531 .30299378 .5019531 .22099304 .5019531 .1599884 .47595216 .117996219 .43295289 .07499695 .3879547 .04899597 .32196046 .04899597 .2349701 .04899597 .0872345 .12599182-.01171875 .2579956-.01171875 .31199647-.01171875 .35899354 .012268066 .41299439 .056259157V.0069885256L.42099 0H.58299258M.4139862 .16998291C.4139862 .14819336 .41299439 .13121033 .40699769 .114212039 .3869934 .06225586 .34298707 .042266847 .29100038 .042266847 .19898987 .042266847 .15299988 .13220215 .15299988 .24711609 .15299988 .37701417 .19999695 .46694947 .3019867 .46694947 .34899903 .46694947 .3869934 .44496156 .40499879 .4039917 .41299439 .38700868 .4139862 .37301637 .4139862 .34603883V.16998291Z"/>
<path id="font_2_5" d="M.44099427 .2627716C.46199037 .2627716 .48098756 .2677765 .48098756 .30078126 .48098756 .35983277 .46199037 .5019531 .2789917 .5019531 .12298584 .5019531 .04899597 .39086915 .04899597 .24082947 .04899597 .08317566 .116989139-.01373291 .27999879-.01171875 .3909912-.010726929 .44799806 .050247194 .47499085 .1290741L.44499208 .14503479C.4169922 .08717346 .3789978 .039276124 .2999878 .039276124 .17599488 .039276124 .15098572 .15901184 .15299988 .2627716H.44099427M.1539917 .30078126C.1539917 .34181214 .16899109 .46694947 .272995 .46694947 .3659973 .46694947 .3769989 .37184144 .3769989 .33280946 .3769989 .31378175 .37098695 .30078126 .34298707 .30078126H.1539917Z"/>
<path id="font_2_3" d="M.2999878 .040267946C.18099976 .040267946 .15299988 .16418457 .15299988 .25810243 .15299988 .40699769 .21199036 .46694947 .2809906 .46694947 .32699586 .46694947 .35598756 .43397523 .37599183 .38000489 .38198854 .36402894 .3880005 .35403443 .40699769 .35403443 .4269867 .35403443 .46598817 .36701966 .46598817 .40499879 .46598817 .45095826 .3999939 .5019531 .2919922 .5019531 .10998535 .5019531 .04899597 .37301637 .04899597 .2401123 .04899597 .07324219 .1309967-.01171875 .2809906-.01171875 .35099793-.01171875 .44499208 .025268555 .47299195 .13220215L.44400025 .14619446C.41299439 .07624817 .37298585 .040267946 .2999878 .040267946Z"/>
<path id="font_2_2" d="M.34298707 .14318848C.34298707 .06225586 .2809906 .041275026 .24198914 .041275026 .17999268 .041275026 .1499939 .085235599 .1499939 .14419556 .1499939 .19116211 .17199707 .21513367 .22799683 .23612976 .2679901 .2511139 .32099916 .27009584 .34298707 .28408814V.14318848M.43299867 .36901856C.43299867 .42697145 .41999818 .5019531 .2689972 .5019531 .1559906 .5019531 .066986087 .44296266 .066986087 .3880005 .066986087 .35603334 .10398865 .3410492 .12298584 .3410492 .14399719 .3410492 .1499939 .35203553 .15499878 .36901856 .1769867 .44296266 .21798706 .46694947 .2579956 .46694947 .29699708 .46694947 .34298707 .44696046 .34298707 .36701966V.32505799C.31799317 .29907228 .22099304 .27409364 .14199829 .24911499 .069992069 .22712708 .04899597 .1771698 .04899597 .13020325 .04899597 .055267335 .09899902-.01171875 .19299317-.01171875 .25498963-.009719849 .30999757 .027267456 .34199525 .04826355 .35598756 .011276245 .37199403-.01171875 .40699769-.01171875 .44400025-.01171875 .4869995-.0007324219 .5249939 .01828003L.5189972 .042266847C.5049896 .039276124 .48298646 .03727722 .46798707 .041275026 .44999696 .045272829 .43299867 .06425476 .43299867 .12721253V.36901856Z"/>
<path id="font_2_8" d="M.036987306 .47694398V.45195008L.07499695 .4469452C.100997928 .4429474 .10699463 .43795777 .10699463 .40194703V.08699036C.10699463 .035995485 .10398865 .033996583 .03199768 .0289917V0H.27598573V.0289917C.20498657 .033996583 .20098877 .035995485 .20098877 .08699036V.49609376L.19400025 .5020752 .036987306 .47694398M.15299988 .71484377C.116989139 .71484377 .09199524 .6888428 .09199524 .65283206 .09199524 .61782839 .116989139 .5928345 .15299988 .5928345 .18998719 .5928345 .21299744 .61782839 .21398926 .65283206 .21398926 .6888428 .18998719 .71484377 .15299988 .71484377Z"/>
<path id="font_2_10" d="M.5289917 .34295655C.5289917 .4439392 .47399903 .5019531 .38198854 .5019531 .30799867 .5019531 .2619934 .46594239 .19999695 .4259491L.18598938 .5019531 .036987306 .47694398V.45195008L.07499695 .4469452C.100997928 .4429474 .10699463 .4379425 .10699463 .40194703V.08699036C.10699463 .035995485 .10398865 .033996583 .03199768 .0289917V0H.27598573V.0289917C.20498657 .033996583 .20098877 .035995485 .20098877 .08699036V.32095338C.20098877 .34596253 .20298767 .35995484 .21099854 .37594605 .23199463 .4149475 .2769928 .44795228 .32998658 .44795228 .397995 .44795228 .43499757 .40994264 .43499757 .32295228V.08699036C.43499757 .035995485 .43199159 .033996583 .3600006 .0289917V0H.60398867V.0289917C.5329895 .033996583 .5289917 .035995485 .5289917 .08699036V.34295655Z"/>
<path id="font_2_6" d="M.2599945 .46694947C.30899049 .46694947 .3600006 .43093873 .3600006 .33392335 .3600006 .24989319 .31599427 .20588684 .2579956 .20588684 .20199585 .20588684 .15499878 .24989319 .15499878 .33392335 .15499878 .43293763 .20698548 .46694947 .2599945 .46694947M.2809906-.2071991C.19599915-.2071991 .13699341-.16319275 .13699341-.09118652 .13699341-.057174684 .14698792-.032180787 .16799927-.016174317 .18998719 .0008239746 .22299195 .0068359377 .2709961 .0068359377 .35899354 .0068359377 .42399598-.014175415 .42399598-.08918762 .42399598-.16918946 .35198976-.2071991 .2809906-.2071991M.3889923 .47094728C.36099244 .48994447 .30599977 .5019531 .2599945 .5019531 .10699463 .5019531 .052993776 .40792848 .052993776 .33392335 .052993776 .23989868 .114990238 .19688416 .16099549 .18489075V.18289185C.10699463 .1618805 .068984989 .13285828 .068984989 .09384155 .068984989 .05882263 .10899353 .020828248 .15699768 .015823365V.013824463C.11399841-.00016784668 .041992189-.024169922 .041992189-.09617615 .041992189-.19718933 .14199829-.2421875 .2579956-.2421875 .31799317-.2421875 .3809967-.23019409 .42900086-.20118714 .47499085-.17318726 .5079956-.12619019 .5079956-.06417847 .5079956 .043823244 .42199708 .081832889 .31498719 .081832889H.23498535C.16299439 .081832889 .1519928 .10585022 .1519928 .12486267 .1519928 .15388489 .18998719 .16989136 .20298767 .17388916 .22200012 .17189026 .24299622 .17089844 .2539978 .17089844 .34899903 .17089844 .45599366 .21289063 .45599366 .33392335 .45599366 .3759308 .44299317 .41093446 .42599488 .42793275L.5049896 .4399414 .5249939 .50294497 .5169983 .51194766 .3889923 .47094728Z"/>
<path id="font_2_14" d="M.32598878 .45022584V.49023438H.19699097V.6162262H.16799927L.10699463 .49023438H.0309906V.45022584H.102996829V.102264408C.102996829 .0002746582 .1789856-.01171875 .21398926-.01171875 .2649994-.01171875 .31298829 .014266968 .34199525 .03227234L.33399964 .053268434C.30999757 .043273927 .28799439 .040267946 .2630005 .040267946 .22898865 .040267946 .19699097 .06427002 .19699097 .14025879V.45022584H.32598878Z"/>
<path id="font_2_9" d="M.036987306 .47694398V.45195008L.07499695 .4469452C.100997928 .4429474 .10699463 .4379425 .10699463 .40194703V.08699036C.10699463 .035995485 .10398865 .033996583 .03199768 .0289917V0H.27598573V.0289917C.20498657 .033996583 .20098877 .035995485 .20098877 .08699036V.32095338C.20098877 .34596253 .20199585 .35995484 .20899964 .37394715 .22799683 .41394044 .27198792 .44795228 .32699586 .44795228 .41299439 .44795228 .4229889 .38494874 .4229889 .32295228V.08699036C.4229889 .035995485 .41999818 .033996583 .34799195 .0289917V0H.59199526V.0289917C.5209961 .033996583 .5169983 .035995485 .5169983 .08699036V.32095338C.5169983 .34596253 .5179901 .35995484 .5239868 .37594605 .5389862 .4159546 .58200076 .44795228 .6380005 .44795228 .70098879 .44995118 .7389984 .40994264 .7389984 .32295228V.08699036C.7389984 .035995485 .73599246 .033996583 .6639862 .0289917V0H.9079895V.0289917C.83699038 .033996583 .83299258 .035995485 .83299258 .08699036V.34295655C.83299258 .4439392 .7789917 .5019531 .6839905 .5019531 .60198977 .5019531 .54299929 .4469452 .5079956 .42494203 .48399354 .4719391 .44599916 .5019531 .37599183 .5019531 .29899598 .5019531 .23599243 .45195008 .20098877 .4259491L.19198609 .5019531 .036987306 .47694398Z"/>
</defs>
<path transform="matrix(1,0,0,-1.00003,80.463,91.000377)" stroke-width=".3985" stroke-linecap="butt" stroke-miterlimit="10" stroke-linejoin="miter" fill="none" stroke="#000000" d="M-79.37135 0H78.97284"/>
<path transform="matrix(1,0,0,-1.00003,159.63509,91.000377)" stroke-width=".3985" stroke-linecap="round" stroke-linejoin="round" fill="none" stroke="#000000" d="M-2.07224 2.39104C-1.69365 .95639-.84999 .27895 0 0-.84999-.27895-1.69365-.95639-2.07224-2.39104"/>
<use data-text="x" xlink:href="#font_1_1" transform="matrix(10.0364,0,0,-10.036701,163.45099,93.438449)"/>
<path transform="matrix(1,0,0,-1.00003,80.463,91.000377)" stroke-width=".3985" stroke-linecap="butt" stroke-miterlimit="10" stroke-linejoin="miter" fill="none" stroke="#000000" d="M0-79.37135V78.97284"/>
<path transform="matrix(0,-1.00003,-1,-0,80.463,11.825905)" stroke-width=".3985" stroke-linecap="round" stroke-linejoin="round" fill="none" stroke="#000000" d="M-2.07224 2.39104C-1.69365 .95639-.84999 .27895 0 0-.84999-.27895-1.69365-.95639-2.07224-2.39104"/>
<use data-text="y" xlink:href="#font_1_2" transform="matrix(10.0364,0,0,-10.036701,77.925998,5.7618105)"/>
<path transform="matrix(1,0,0,-1.00003,80.463,91.000377)" stroke-width=".79701" stroke-linecap="butt" stroke-miterlimit="10" stroke-linejoin="miter" fill="none" stroke="#0000b3" d="M0 22.67752V22.67752 5.6592"/>
<path transform="matrix(0,1.00003,1,0,80.463,85.341)" d="M2.59026 0-1.55415 2.0722 0 0-1.55415-2.0722" fill="#0000b3"/>
<path transform="matrix(1,0,0,-1.00003,80.463,91.000377)" d="M2.26787 22.67752C2.26787 23.93004 1.25252 24.94539 0 24.94539-1.25252 24.94539-2.26787 23.93004-2.26787 22.67752-2.26787 21.42499-1.25252 20.40964 0 20.40964 1.25252 20.40964 2.26787 21.42499 2.26787 22.67752ZM0 22.67752" fill="#ccccff"/>
<path transform="matrix(1,0,0,-1.00003,80.463,91.000377)" stroke-width=".3985" stroke-linecap="butt" stroke-miterlimit="10" stroke-linejoin="miter" fill="none" stroke="#0000b3" d="M2.26787 22.67752C2.26787 23.93004 1.25252 24.94539 0 24.94539-1.25252 24.94539-2.26787 23.93004-2.26787 22.67752-2.26787 21.42499-1.25252 20.40964 0 20.40964 1.25252 20.40964 2.26787 21.42499 2.26787 22.67752ZM0 22.67752"/>
<path transform="matrix(1,0,0,-1.00003,80.463,91.000377)" stroke-width=".79701" stroke-linecap="butt" stroke-miterlimit="10" stroke-linejoin="miter" fill="none" stroke="#0000b3" d="M4.53543 22.67752V22.67752L2.04292 5.6318"/>
<path transform="matrix(-.14467,.98945978,.98943,.14467435,82.50592,85.368389)" d="M2.59026 0-1.55415 2.0722 0 0-1.55415-2.0722" fill="#0000b3"/>
<path transform="matrix(1,0,0,-1.00003,80.463,91.000377)" d="M6.8033 18.57047C6.8033 19.823 5.78795 20.83835 4.53543 20.83835 3.2829 20.83835 2.26755 19.823 2.26755 18.57047 2.26755 17.31795 3.2829 16.3026 4.53543 16.3026 5.78795 16.3026 6.8033 17.31795 6.8033 18.57047ZM4.53543 18.57047" fill="#ccccff"/>
<path transform="matrix(1,0,0,-1.00003,80.463,91.000377)" stroke-width=".3985" stroke-linecap="butt" stroke-miterlimit="10" stroke-linejoin="miter" fill="none" stroke="#0000b3" d="M6.8033 18.57047C6.8033 19.823 5.78795 20.83835 4.53543 20.83835 3.2829 20.83835 2.26755 19.823 2.26755 18.57047 2.26755 17.31795 3.2829 16.3026 4.53543 16.3026 5.78795 16.3026 6.8033 17.31795 6.8033 18.57047ZM4.53543 18.57047"/>
<path transform="matrix(1,0,0,-1.00003,80.463,91.000377)" stroke-width=".79701" stroke-linecap="butt" stroke-miterlimit="10" stroke-linejoin="miter" fill="none" stroke="#0000b3" d="M9.07086 22.67752V22.67752L4.06369 5.55493"/>
<path transform="matrix(-.28064,.95977887,.95975,.28064845,84.526699,85.44526)" d="M2.59026 0-1.55415 2.0722 0 0-1.55415-2.0722" fill="#0000b3"/>
<path transform="matrix(1,0,0,-1.00003,80.463,91.000377)" d="M11.33875 15.20427C11.33875 16.45679 10.32338 17.47214 9.07086 17.47214 7.81834 17.47214 6.80298 16.45679 6.80298 15.20427 6.80298 13.95175 7.81834 12.93639 9.07086 12.93639 10.32338 12.93639 11.33875 13.95175 11.33875 15.20427ZM9.07086 15.20427" fill="#ccccff"/>
<path transform="matrix(1,0,0,-1.00003,80.463,91.000377)" stroke-width=".3985" stroke-linecap="butt" stroke-miterlimit="10" stroke-linejoin="miter" fill="none" stroke="#0000b3" d="M11.33875 15.20427C11.33875 16.45679 10.32338 17.47214 9.07086 17.47214 7.81834 17.47214 6.80298 16.45679 6.80298 15.20427 6.80298 13.95175 7.81834 12.93639 9.07086 12.93639 10.32338 12.93639 11.33875 13.95175 11.33875 15.20427ZM9.07086 15.20427"/>
<path transform="matrix(1,0,0,-1.00003,80.463,91.000377)" stroke-width=".79701" stroke-linecap="butt" stroke-miterlimit="10" stroke-linejoin="miter" fill="none" stroke="#0000b3" d="M13.6063 22.67752V22.67752L6.04572 5.44095"/>
<path transform="matrix(-.40166,.91576758,.91574,.40167208,86.50872,85.55926)" d="M2.59026 0-1.55415 2.0722 0 0-1.55415-2.0722" fill="#0000b3"/>
<path transform="matrix(1,0,0,-1.00003,80.463,91.000377)" d="M15.87418 12.44812C15.87418 13.70064 14.85881 14.71599 13.6063 14.71599 12.35378 14.71599 11.33842 13.70064 11.33842 12.44812 11.33842 11.1956 12.35378 10.18024 13.6063 10.18024 14.85881 10.18024 15.87418 11.1956 15.87418 12.44812ZM13.6063 12.44812" fill="#ccccff"/>
<path transform="matrix(1,0,0,-1.00003,80.463,91.000377)" stroke-width=".3985" stroke-linecap="butt" stroke-miterlimit="10" stroke-linejoin="miter" fill="none" stroke="#0000b3" d="M15.87418 12.44812C15.87418 13.70064 14.85881 14.71599 13.6063 14.71599 12.35378 14.71599 11.33842 13.70064 11.33842 12.44812 11.33842 11.1956 12.35378 10.18024 13.6063 10.18024 14.85881 10.18024 15.87418 11.1956 15.87418 12.44812ZM13.6063 12.44812"/>
<path transform="matrix(1,0,0,-1.00003,80.463,91.000377)" stroke-width=".79701" stroke-linecap="butt" stroke-miterlimit="10" stroke-linejoin="miter" fill="none" stroke="#0000b3" d="M18.14172 22.67752V22.67752L7.98116 5.30473"/>
<path transform="matrix(-.50482,.86318597,.86316,.5048351,88.44417,85.69549)" d="M2.59026 0-1.55415 2.0722 0 0-1.55415-2.0722" fill="#0000b3"/>
<path transform="matrix(1,0,0,-1.00003,80.463,91.000377)" d="M20.4096 10.19131C20.4096 11.44383 19.39426 12.45918 18.14172 12.45918 16.8892 12.45918 15.87386 11.44383 15.87386 10.19131 15.87386 8.93878 16.8892 7.92343 18.14172 7.92343 19.39426 7.92343 20.4096 8.93878 20.4096 10.19131ZM18.14172 10.19131" fill="#ccccff"/>
<path transform="matrix(1,0,0,-1.00003,80.463,91.000377)" stroke-width=".3985" stroke-linecap="butt" stroke-miterlimit="10" stroke-linejoin="miter" fill="none" stroke="#0000b3" d="M20.4096 10.19131C20.4096 11.44383 19.39426 12.45918 18.14172 12.45918 16.8892 12.45918 15.87386 11.44383 15.87386 10.19131 15.87386 8.93878 16.8892 7.92343 18.14172 7.92343 19.39426 7.92343 20.4096 8.93878 20.4096 10.19131ZM18.14172 10.19131"/>
<path transform="matrix(1,0,0,-1.00003,80.463,91.000377)" stroke-width=".79701" stroke-linecap="butt" stroke-miterlimit="10" stroke-linejoin="miter" fill="none" stroke="#0000b3" d="M22.67717 22.67752V22.67752L9.8707 5.15993"/>
<path transform="matrix(-.59013,.8072743,.80725,.5901477,90.33371,85.84029)" d="M2.59026 0-1.55415 2.0722 0 0-1.55415-2.0722" fill="#0000b3"/>
<path transform="matrix(1,0,0,-1.00003,80.463,91.000377)" d="M24.94504 8.34488C24.94504 9.5974 23.92969 10.61275 22.67717 10.61275 21.42464 10.61275 20.40929 9.5974 20.40929 8.34488 20.40929 7.09235 21.42464 6.077 22.67717 6.077 23.92969 6.077 24.94504 7.09235 24.94504 8.34488ZM22.67717 8.34488" fill="#ccccff"/>
<path transform="matrix(1,0,0,-1.00003,80.463,91.000377)" stroke-width=".3985" stroke-linecap="butt" stroke-miterlimit="10" stroke-linejoin="miter" fill="none" stroke="#0000b3" d="M24.94504 8.34488C24.94504 9.5974 23.92969 10.61275 22.67717 10.61275 21.42464 10.61275 20.40929 9.5974 20.40929 8.34488 20.40929 7.09235 21.42464 6.077 22.67717 6.077 23.92969 6.077 24.94504 7.09235 24.94504 8.34488ZM22.67717 8.34488"/>
<path transform="matrix(1,0,0,-1.00003,80.463,91.000377)" stroke-width=".79701" stroke-linecap="butt" stroke-miterlimit="10" stroke-linejoin="miter" fill="none" stroke="#0000b3" d="M27.2126 22.67752V22.67752L11.71878 5.01605"/>
<path transform="matrix(-.65944,.7517326,.75171,.65945979,92.18178,85.98418)" d="M2.59026 0-1.55415 2.0722 0 0-1.55415-2.0722" fill="#0000b3"/>
<path transform="matrix(1,0,0,-1.00003,80.463,91.000377)" d="M29.48047 6.83202C29.48047 8.08453 28.46512 9.0999 27.2126 9.0999 25.96008 9.0999 24.94472 8.08453 24.94472 6.83202 24.94472 5.5795 25.96008 4.56415 27.2126 4.56415 28.46512 4.56415 29.48047 5.5795 29.48047 6.83202ZM27.2126 6.83202" fill="#ccccff"/>
<path transform="matrix(1,0,0,-1.00003,80.463,91.000377)" stroke-width=".3985" stroke-linecap="butt" stroke-miterlimit="10" stroke-linejoin="miter" fill="none" stroke="#0000b3" d="M29.48047 6.83202C29.48047 8.08453 28.46512 9.0999 27.2126 9.0999 25.96008 9.0999 24.94472 8.08453 24.94472 6.83202 24.94472 5.5795 25.96008 4.56415 27.2126 4.56415 28.46512 4.56415 29.48047 5.5795 29.48047 6.83202ZM27.2126 6.83202"/>
<path transform="matrix(1,0,0,-1.00003,80.463,91.000377)" stroke-width=".79701" stroke-linecap="butt" stroke-miterlimit="10" stroke-linejoin="miter" fill="none" stroke="#0000b3" d="M31.74803 22.67752V22.67752L13.53185 4.87903"/>
<path transform="matrix(-.71523,.698821,.6988,.71525147,93.99485,86.121189)" d="M2.59026 0-1.55415 2.0722 0 0-1.55415-2.0722" fill="#0000b3"/>
<path transform="matrix(1,0,0,-1.00003,80.463,91.000377)" d="M34.01591 5.59358C34.01591 6.8461 33.00055 7.86145 31.74803 7.86145 30.49551 7.86145 29.48015 6.8461 29.48015 5.59358 29.48015 4.34105 30.49551 3.3257 31.74803 3.3257 33.00055 3.3257 34.01591 4.34105 34.01591 5.59358ZM31.74803 5.59358" fill="#ccccff"/>
<path transform="matrix(1,0,0,-1.00003,80.463,91.000377)" stroke-width=".3985" stroke-linecap="butt" stroke-miterlimit="10" stroke-linejoin="miter" fill="none" stroke="#0000b3" d="M34.01591 5.59358C34.01591 6.8461 33.00055 7.86145 31.74803 7.86145 30.49551 7.86145 29.48015 6.8461 29.48015 5.59358 29.48015 4.34105 30.49551 3.3257 31.74803 3.3257 33.00055 3.3257 34.01591 4.34105 34.01591 5.59358ZM31.74803 5.59358"/>
<path transform="matrix(1,0,0,-1.00003,80.463,91.000377)" stroke-width=".79701" stroke-linecap="butt" stroke-miterlimit="10" stroke-linejoin="miter" fill="none" stroke="#0000b3" d="M36.28348 22.67752V22.67752L15.31615 4.75204"/>
<path transform="matrix(-.76004,.64979949,.64978,.7600628,95.77916,86.24819)" d="M2.59026 0-1.55415 2.0722 0 0-1.55415-2.0722" fill="#0000b3"/>
<path transform="matrix(1,0,0,-1.00003,80.463,91.000377)" d="M38.55136 4.57936C38.55136 5.83188 37.536 6.84724 36.28348 6.84724 35.03096 6.84724 34.01561 5.83188 34.01561 4.57936 34.01561 3.32684 35.03096 2.31148 36.28348 2.31148 37.536 2.31148 38.55136 3.32684 38.55136 4.57936ZM36.28348 4.57936" fill="#ccccff"/>
<path transform="matrix(1,0,0,-1.00003,80.463,91.000377)" stroke-width=".3985" stroke-linecap="butt" stroke-miterlimit="10" stroke-linejoin="miter" fill="none" stroke="#0000b3" d="M38.55136 4.57936C38.55136 5.83188 37.536 6.84724 36.28348 6.84724 35.03096 6.84724 34.01561 5.83188 34.01561 4.57936 34.01561 3.32684 35.03096 2.31148 36.28348 2.31148 37.536 2.31148 38.55136 3.32684 38.55136 4.57936ZM36.28348 4.57936"/>
<path transform="matrix(1,0,0,-1.00003,80.463,91.000377)" stroke-width=".79701" stroke-linecap="butt" stroke-miterlimit="10" stroke-linejoin="miter" fill="none" stroke="#0000b3" d="M40.81891 22.67752V22.67752L17.07828 4.63611"/>
<path transform="matrix(-.79616,.6050482,.60503,.7961839,97.541278,86.36413)" d="M2.59026 0-1.55415 2.0722 0 0-1.55415-2.0722" fill="#0000b3"/>
<path transform="matrix(1,0,0,-1.00003,80.463,91.000377)" d="M43.08679 3.74922C43.08679 5.00175 42.07144 6.0171 40.81891 6.0171 39.56639 6.0171 38.55104 5.00175 38.55104 3.74922 38.55104 2.4967 39.56639 1.48135 40.81891 1.48135 42.07144 1.48135 43.08679 2.4967 43.08679 3.74922ZM40.81891 3.74922" fill="#ccccff"/>
<path transform="matrix(1,0,0,-1.00003,80.463,91.000377)" stroke-width=".3985" stroke-linecap="butt" stroke-miterlimit="10" stroke-linejoin="miter" fill="none" stroke="#0000b3" d="M43.08679 3.74922C43.08679 5.00175 42.07144 6.0171 40.81891 6.0171 39.56639 6.0171 38.55104 5.00175 38.55104 3.74922 38.55104 2.4967 39.56639 1.48135 40.81891 1.48135 42.07144 1.48135 43.08679 2.4967 43.08679 3.74922ZM40.81891 3.74922"/>
<path transform="matrix(1,0,0,-1.00003,80.463,91.000377)" stroke-width=".79701" stroke-linecap="butt" stroke-miterlimit="10" stroke-linejoin="miter" fill="none" stroke="#0000b3" d="M45.35437 22.67752V22.67752L18.8225 4.53113"/>
<path transform="matrix(-.82536,.56451699,.5645,.8253848,99.2855,86.4691)" d="M2.59026 0-1.55415 2.0722 0 0-1.55415-2.0722" fill="#0000b3"/>
<path transform="matrix(1,0,0,-1.00003,80.463,91.000377)" d="M47.62224 3.06894C47.62224 4.32146 46.60689 5.3368 45.35437 5.3368 44.10184 5.3368 43.08649 4.32146 43.08649 3.06894 43.08649 1.81642 44.10184 .80106 45.35437 .80106 46.60689 .80106 47.62224 1.81642 47.62224 3.06894ZM45.35437 3.06894" fill="#ccccff"/>
<path transform="matrix(1,0,0,-1.00003,80.463,91.000377)" stroke-width=".3985" stroke-linecap="butt" stroke-miterlimit="10" stroke-linejoin="miter" fill="none" stroke="#0000b3" d="M47.62224 3.06894C47.62224 4.32146 46.60689 5.3368 45.35437 5.3368 44.10184 5.3368 43.08649 4.32146 43.08649 3.06894 43.08649 1.81642 44.10184 .80106 45.35437 .80106 46.60689 .80106 47.62224 1.81642 47.62224 3.06894ZM45.35437 3.06894"/>
<path transform="matrix(1,0,0,-1.00003,80.463,91.000377)" stroke-width=".79701" stroke-linecap="butt" stroke-miterlimit="10" stroke-linejoin="miter" fill="none" stroke="#0000b3" d="M49.8898 22.67752V22.67752L20.55244 4.43663"/>
<path transform="matrix(-.8492,.5280359,.52802,.8492255,101.01546,86.563617)" d="M2.59026 0-1.55415 2.0722 0 0-1.55415-2.0722" fill="#0000b3"/>
<path transform="matrix(1,0,0,-1.00003,80.463,91.000377)" d="M52.15767 2.51321C52.15767 3.76573 51.14232 4.7811 49.8898 4.7811 48.63728 4.7811 47.62192 3.76573 47.62192 2.51321 47.62192 1.2607 48.63728 .24533 49.8898 .24533 51.14232 .24533 52.15767 1.2607 52.15767 2.51321ZM49.8898 2.51321" fill="#ccccff"/>
<path transform="matrix(1,0,0,-1.00003,80.463,91.000377)" stroke-width=".3985" stroke-linecap="butt" stroke-miterlimit="10" stroke-linejoin="miter" fill="none" stroke="#0000b3" d="M52.15767 2.51321C52.15767 3.76573 51.14232 4.7811 49.8898 4.7811 48.63728 4.7811 47.62192 3.76573 47.62192 2.51321 47.62192 1.2607 48.63728 .24533 49.8898 .24533 51.14232 .24533 52.15767 1.2607 52.15767 2.51321ZM49.8898 2.51321"/>
<path transform="matrix(1,0,0,-1.00003,80.463,91.000377)" stroke-width=".79701" stroke-linecap="butt" stroke-miterlimit="10" stroke-linejoin="miter" fill="none" stroke="#0000b3" d="M54.42523 22.67752V22.67752L22.27168 4.3515"/>
<path transform="matrix(-.86876,.49516488,.49515,.8687861,102.734699,86.64872)" d="M2.59026 0-1.55415 2.0722 0 0-1.55415-2.0722" fill="#0000b3"/>
<path transform="matrix(1,0,0,-1.00003,80.463,91.000377)" d="M56.69312 2.05714C56.69312 3.30966 55.67775 4.32501 54.42523 4.32501 53.17271 4.32501 52.15736 3.30966 52.15736 2.05714 52.15736 .80461 53.17271-.21072 54.42523-.21072 55.67775-.21072 56.69312 .80461 56.69312 2.05714ZM54.42523 2.05714" fill="#ccccff"/>
<path transform="matrix(1,0,0,-1.00003,80.463,91.000377)" stroke-width=".3985" stroke-linecap="butt" stroke-miterlimit="10" stroke-linejoin="miter" fill="none" stroke="#0000b3" d="M56.69312 2.05714C56.69312 3.30966 55.67775 4.32501 54.42523 4.32501 53.17271 4.32501 52.15736 3.30966 52.15736 2.05714 52.15736 .80461 53.17271-.21072 54.42523-.21072 55.67775-.21072 56.69312 .80461 56.69312 2.05714ZM54.42523 2.05714"/>
<path transform="matrix(1,0,0,-1.00003,80.463,91.000377)" stroke-width=".79701" stroke-linecap="butt" stroke-miterlimit="10" stroke-linejoin="miter" fill="none" stroke="#0000b3" d="M58.96066 22.67752V22.67752L23.98222 4.2749"/>
<path transform="matrix(-.88496,.46559397,.46558,.8849866,104.44522,86.72533)" d="M2.59026 0-1.55415 2.0722 0 0-1.55415-2.0722" fill="#0000b3"/>
<path transform="matrix(1,0,0,-1.00003,80.463,91.000377)" d="M61.22855 1.68272C61.22855 2.93526 60.2132 3.9506 58.96066 3.9506 57.70815 3.9506 56.6928 2.93526 56.6928 1.68272 56.6928 .4302 57.70815-.58513 58.96066-.58513 60.2132-.58513 61.22855 .4302 61.22855 1.68272ZM58.96066 1.68272" fill="#ccccff"/>
<path transform="matrix(1,0,0,-1.00003,80.463,91.000377)" stroke-width=".3985" stroke-linecap="butt" stroke-miterlimit="10" stroke-linejoin="miter" fill="none" stroke="#0000b3" d="M61.22855 1.68272C61.22855 2.93526 60.2132 3.9506 58.96066 3.9506 57.70815 3.9506 56.6928 2.93526 56.6928 1.68272 56.6928 .4302 57.70815-.58513 58.96066-.58513 60.2132-.58513 61.22855 .4302 61.22855 1.68272ZM58.96066 1.68272"/>
<path transform="matrix(1,0,0,-1.00003,80.463,91.000377)" stroke-width=".79701" stroke-linecap="butt" stroke-miterlimit="10" stroke-linejoin="miter" fill="none" stroke="#0000b3" d="M63.49611 22.67752V22.67752L25.6858 4.20589"/>
<path transform="matrix(-.89848,.43894319,.43893,.898507,106.14882,86.79436)" d="M2.59026 0-1.55415 2.0722 0 0-1.55415-2.0722" fill="#0000b3"/>
<path transform="matrix(1,0,0,-1.00003,80.463,91.000377)" d="M65.76398 1.37892C65.76398 2.63144 64.74863 3.64679 63.49611 3.64679 62.24358 3.64679 61.22823 2.63144 61.22823 1.37892 61.22823 .1264 62.24358-.88895 63.49611-.88895 64.74863-.88895 65.76398 .1264 65.76398 1.37892ZM63.49611 1.37892" fill="#ccccff"/>
<path transform="matrix(1,0,0,-1.00003,80.463,91.000377)" stroke-width=".3985" stroke-linecap="butt" stroke-miterlimit="10" stroke-linejoin="miter" fill="none" stroke="#0000b3" d="M65.76398 1.37892C65.76398 2.63144 64.74863 3.64679 63.49611 3.64679 62.24358 3.64679 61.22823 2.63144 61.22823 1.37892 61.22823 .1264 62.24358-.88895 63.49611-.88895 64.74863-.88895 65.76398 .1264 65.76398 1.37892ZM63.49611 1.37892"/>
<path transform="matrix(1,0,0,-1.00003,80.463,91.000377)" stroke-width=".79701" stroke-linecap="butt" stroke-miterlimit="10" stroke-linejoin="miter" fill="none" stroke="#0000b3" d="M68.03154 22.67752V22.67752L27.38339 4.14348"/>
<path transform="matrix(-.90982,.41485248,.41484,.9098474,107.84639,86.85675)" d="M2.59026 0-1.55415 2.0722 0 0-1.55415-2.0722" fill="#0000b3"/>
<path transform="matrix(1,0,0,-1.00003,80.463,91.000377)" d="M70.29941 1.127C70.29941 2.37953 69.28406 3.39488 68.03154 3.39488 66.77902 3.39488 65.76366 2.37953 65.76366 1.127 65.76366-.1255 66.77902-1.14085 68.03154-1.14085 69.28406-1.14085 70.29941-.1255 70.29941 1.127ZM68.03154 1.127" fill="#ccccff"/>
<path transform="matrix(1,0,0,-1.00003,80.463,91.000377)" stroke-width=".3985" stroke-linecap="butt" stroke-miterlimit="10" stroke-linejoin="miter" fill="none" stroke="#0000b3" d="M70.29941 1.127C70.29941 2.37953 69.28406 3.39488 68.03154 3.39488 66.77902 3.39488 65.76366 2.37953 65.76366 1.127 65.76366-.1255 66.77902-1.14085 68.03154-1.14085 69.28406-1.14085 70.29941-.1255 70.29941 1.127ZM68.03154 1.127"/>
<use data-text="A" xlink:href="#font_2_1" transform="matrix(9.1656,0,0,-9.165875,140.556,157.92938)"/>
<use data-text="r" xlink:href="#font_2_12" transform="matrix(9.1656,0,0,-9.165875,146.37616,157.92938)"/>
<use data-text="r" xlink:href="#font_2_12" transform="matrix(9.1656,0,0,-9.165875,149.94158,157.92938)"/>
<use data-text="o" xlink:href="#font_2_11" transform="matrix(9.1656,0,0,-9.165875,153.452,157.92938)"/>
<use data-text="w" xlink:href="#font_2_15" transform="matrix(9.1656,0,0,-9.165875,158.46559,157.92938)"/>
<use data-text="s" xlink:href="#font_2_13" transform="matrix(9.1656,0,0,-9.165875,165.50478,157.92938)"/>
<use data-text="s" xlink:href="#font_2_13" transform="matrix(9.1656,0,0,-9.165875,171.55408,157.92938)"/>
<use data-text="h" xlink:href="#font_2_7" transform="matrix(9.1656,0,0,-9.165875,175.55028,157.92938)"/>
<use data-text="o" xlink:href="#font_2_11" transform="matrix(9.1656,0,0,-9.165875,181.1138,157.92938)"/>
<use data-text="w" xlink:href="#font_2_15" transform="matrix(9.1656,0,0,-9.165875,186.1274,157.92938)"/>
<use data-text="d" xlink:href="#font_2_4" transform="matrix(9.1656,0,0,-9.165875,195.22884,157.92938)"/>
<use data-text="e" xlink:href="#font_2_5" transform="matrix(9.1656,0,0,-9.165875,200.70987,157.92938)"/>
<use data-text="c" xlink:href="#font_2_3" transform="matrix(9.1656,0,0,-9.165875,205.42099,157.92938)"/>
<use data-text="r" xlink:href="#font_2_12" transform="matrix(9.1656,0,0,-9.165875,209.96714,157.92938)"/>
<use data-text="e" xlink:href="#font_2_5" transform="matrix(9.1656,0,0,-9.165875,213.3584,157.92938)"/>
<use data-text="a" xlink:href="#font_2_2" transform="matrix(9.1656,0,0,-9.165875,218.06952,157.92938)"/>
<use data-text="s" xlink:href="#font_2_13" transform="matrix(9.1656,0,0,-9.165875,222.86313,157.92938)"/>
<use data-text="i" xlink:href="#font_2_8" transform="matrix(9.1656,0,0,-9.165875,226.85933,157.92938)"/>
<use data-text="n" xlink:href="#font_2_10" transform="matrix(9.1656,0,0,-9.165875,229.52652,157.92938)"/>
<use data-text="g" xlink:href="#font_2_6" transform="matrix(9.1656,0,0,-9.165875,235.19086,157.92938)"/>
<use data-text="t" xlink:href="#font_2_14" transform="matrix(9.1656,0,0,-9.165875,242.01007,157.92938)"/>
<use data-text="i" xlink:href="#font_2_8" transform="matrix(9.1656,0,0,-9.165875,245.16304,157.92938)"/>
<use data-text="m" xlink:href="#font_2_9" transform="matrix(9.1656,0,0,-9.165875,247.83023,157.92938)"/>
<use data-text="e" xlink:href="#font_2_5" transform="matrix(9.1656,0,0,-9.165875,256.29008,157.92938)"/>
</svg>
