<svg xmlns="http://www.w3.org/2000/svg" xmlns:xlink="http://www.w3.org/1999/xlink" version="1.1" width="194" height="57" viewBox="0 0 194 57">
<defs>
<path id="font_1_4" d="M.2649994 .64468386C.3600006 .64468386 .3869934 .49682618 .3869934 .33398438 .3869934 .17112732 .3600006 .023269654 .2649994 .023269654 .16999817 .023269654 .14299011 .17112732 .14299011 .33398438 .14299011 .49682618 .16999817 .64468386 .2649994 .64468386M.2649994 .6796875C.099990848 .6796875 .040985109 .53378298 .040985109 .33398438 .040985109 .13417053 .099990848-.01171875 .2649994-.01171875 .42999269-.01171875 .4889984 .13417053 .4889984 .33398438 .4889984 .53378298 .42999269 .6796875 .2649994 .6796875Z"/>
<path id="font_1_3" d="M.1329956-.01171875C.17199707-.01171875 .19499207 .015274048 .19599915 .05126953 .19599915 .088272098 .17199707 .11627197 .1329956 .11627197 .09498596 .11627197 .069992069 .088272098 .069992069 .05126953 .069992069 .015274048 .09498596-.01171875 .1329956-.01171875Z"/>
<path id="font_1_9" d="M.42599488 .5919647 .44999696 .6599579 .44499208 .66796877H.11099243L.100997928 .65896609 .08099365 .32388307 .10499573 .31188966C.14698792 .35983277 .18798828 .3828125 .24198914 .3828125 .30599977 .3828125 .37599183 .3358612 .37599183 .20404053 .37599183 .10116577 .33399964 .023269654 .24699402 .023269654 .1769867 .023269654 .14099121 .07420349 .12098694 .13113404 .115997318 .14611817 .10699463 .15510559 .09298706 .15510559 .07299805 .15510559 .039993287 .13513184 .039993287 .10217285 .039993287 .056228639 .10998535-.01171875 .23999024-.01171875 .40499879-.01171875 .47999574 .0881958 .47999574 .21502686 .47999574 .35484315 .3919983 .4268036 .272995 .4268036 .21798706 .4268036 .15899658 .4028015 .1269989 .3738098L.125 .37580873 .147995 .56292727C.15098572 .58795168 .1579895 .5919647 .1769867 .5919647H.42599488Z"/>
<path id="font_1_5" d="M.43699647 0V.0289917L.35299684 .035995485C.33198548 .037994386 .31999208 .04598999 .31999208 .08496094V.67367556L.31498719 .6796875 .10899353 .6446991V.6197052L.20199585 .6087036C.21899414 .6067047 .22599793 .5987091 .22599793 .56973269V.08496094C.22599793 .065979007 .22299195 .053985597 .21699524 .04698181 .21199036 .039993287 .20399475 .036987306 .19299317 .035995485L.10899353 .0289917V0H.43699647Z"/>
<path id="font_2_2" d="M.6349945 .2529297V.31092835H.084991458V.2529297H.6349945Z"/>
<path id="font_1_8" d="M.2999878 .17871094V.0769043C.2999878 .04296875 .2889862 .036987306 .2649994 .034988405L.20098877 .0289917V0H.46499635V.0289917L.41999818 .033981325C.39698792 .036987306 .3899994 .04296875 .3899994 .0769043V.17871094H.49299623V.22570801H.3899994V.66796877H.31698609C.22299195 .5298767 .11099243 .35577394 .018997193 .19970703L.027999878 .17871094H.2999878M.09098816 .22570801C.15098572 .33476258 .22099304 .4498291 .2979889 .5709076H.2999878V.22570801H.09098816Z"/>
<path id="font_1_6" d="M.4850006 .13195801 .45700074 .13696289C.43598939 .08299255 .41600038 .07598877 .37599183 .07598877H.11999512C.13598633 .1279602 .19499207 .19892884 .28799439 .2658844 .38398744 .33584596 .45799256 .38082887 .45799256 .49276734 .45799256 .63168337 .3659973 .6796875 .26098634 .6796875 .12399292 .6796875 .052993776 .5967102 .052993776 .54473879 .052993776 .51075747 .09098816 .49476625 .10798645 .49476625 .12599182 .49476625 .1329956 .50476077 .13699341 .5217438 .15299988 .5897064 .19198609 .64468386 .2539978 .64468386 .33099366 .64468386 .35299684 .5797119 .35299684 .50675967 .35299684 .3998108 .29899598 .33984376 .21199036 .26289369 .08898926 .15594483 .04598999 .08798218 .026992798 .009994507L.036987306 0H.45098878L.4850006 .13195801Z"/>
<clipPath id="clip_3">
<path transform="matrix(1.00008,0,0,-1.00006,1.3975525,55.67444)" d="M0 0H190.64801V54.57297H0Z"/>
</clipPath>
<path id="font_4_2" d="M.070999149 .45393373 .07398987 .42893983 .14199829 .43093873C.1639862 .43193055 .16899109 .41493226 .1769867 .36291505 .18798828 .28489686 .20999146 .09286499 .20999146 .0128479 .20999146-.017166138 .20799256-.058166505 .18598938-.11117554 .16799927-.15318299 .14199829-.18218994 .12199402-.18218994 .10699463-.18218994 .09599304-.17118836 .08099365-.15118408 .068984989-.13517761 .06098938-.127182 .04598999-.127182 .019989014-.12818909-.005004883-.15818787-.005004883-.18719483-.005004883-.21418762 .023986817-.2421875 .067993167-.2421875 .15299988-.2421875 .18998719-.17919922 .27799989-.027160645 .2979889 .0068511965 .35798646 .11286926 .41999818 .21488953 .47698976 .30891419 .5399933 .40592958 .5399933 .4459381 .5399933 .48094178 .5289917 .5019531 .5219879 .5019531 .5029907 .5019531 .46899415 .49394227 .44400025 .47694398 .44499208 .4419403 .44299317 .3809204 .43099977 .33891297 .4149933 .28289796 .35598756 .17488098 .2899933 .06085205H.2869873C.27999879 .21388245 .26098634 .42492677 .24699402 .49795533L.23899842 .5019531 .070999149 .45393373Z"/>
<path id="font_2_1" d="M.2769928 .50541689C.2829895 .5204315 .28399659 .5294342 .28399659 .53344729 .28399659 .5544586 .2539978 .56347659 .22299195 .56347659 .19299317 .56347659 .1619873 .5544586 .15899658 .53944399L.053985597 .05303955C.053985597 .046035768 .067993167 .040039064 .07998657 .040039064 .08799744 .040039064 .09599304 .043029787 .09799194 .048034669L.2769928 .50541689Z"/>
<path id="font_1_1" d="M.1749878 .2822113C.1749878 .56832888 .2619934 .65437319 .32499696 .66737368V.6923828C.1499939 .685379 .10499573 .46829225 .10499573 .2822113 .10499573 .09614563 .1499939-.12094116 .32499696-.12792969V-.10293579C.2669983-.090927127 .1749878-.0059051516 .1749878 .2822113Z"/>
<path id="font_1_2" d="M.1749878 .2822113C.1749878-.0059051516 .08299255-.090927127 .024993897-.10293579V-.12792969C.19999695-.12094116 .24499512 .09614563 .24499512 .2822113 .24499512 .46829225 .19999695 .685379 .024993897 .6923828V.66737368C.08799744 .65437319 .1749878 .56832888 .1749878 .2822113Z"/>
<path id="font_2_3" d="M.6349945 .14315796V.20117188H.084991458V.14315796H.6349945M.6349945 .36288453V.42089845H.084991458V.36288453H.6349945Z"/>
<path id="font_1_7" d="M.12998963 .3657837C.12998963 .3487854 .1349945 .33779908 .147995 .33779908 .1599884 .33779908 .18699646 .34777833 .23498535 .34777833 .31999208 .34777833 .36799623 .27090455 .36799623 .18403626 .36799623 .065216068 .30899049 .023269654 .23799134 .023269654 .17199707 .023269654 .1289978 .07319641 .10998535 .12911988 .10398865 .14808655 .09399414 .15707398 .07998657 .15707398 .06199646 .15707398 .026992798 .13809204 .026992798 .10215759 .026992798 .05921936 .09599304-.01171875 .23699951-.01171875 .38198854-.01171875 .47299195 .06121826 .47299195 .18902588 .47299195 .32281495 .35798646 .3627777 .30299378 .3677826V.3717804C.35699464 .38078309 .44400025 .4207611 .44400025 .5197296 .44400025 .6306915 .35699464 .6796875 .25 .6796875 .117996219 .6796875 .052993776 .60369876 .052993776 .5607147 .052993776 .5297241 .08799744 .51272585 .101989749 .51272585 .114990238 .51272585 .12298584 .5197296 .1269989 .5327301 .14898682 .60069277 .18699646 .64468386 .24299622 .64468386 .32199098 .64468386 .34098817 .57470706 .34098817 .51872256 .34098817 .4587555 .31999208 .38378907 .23498535 .38378907 .18699646 .38378907 .1599884 .39378358 .147995 .39378358 .1349945 .39378358 .12998963 .38378907 .12998963 .3657837Z"/>
<path id="font_4_1" d="M.42799378 .45222474 .43899537 .49023438H.31199647L.34599305 .6092224 .33399964 .6162262 .23699951 .53923037 .22399903 .49023438H.14299011L.13198853 .45222474H.21499634L.125 .08627319C.10998535 .029266358 .12199402-.01171875 .17199707-.01171875 .2519989-.01171875 .31599427 .054275514 .35598756 .1292572L.33399964 .1462555C.31098939 .10726929 .2599945 .040267946 .22898865 .040267946 .20799256 .040267946 .20799256 .0632782 .21398926 .088272098L.30299378 .45222474H.42799378Z"/>
</defs>
<path transform="matrix(1.00008,0,0,-1.00006,1.3975525,55.67444)" stroke-width=".3985" stroke-linecap="butt" stroke-miterlimit="10" stroke-linejoin="miter" fill="none" stroke="#cbcbcb" d="M66.72679 0V54.57297M114.3888 0V54.57297M162.0508 0V54.57297"/>
<path transform="matrix(1.00008,0,0,-1.00006,1.3975525,55.67444)" stroke-width=".3985" stroke-linecap="butt" stroke-miterlimit="10" stroke-linejoin="miter" fill="none" stroke="#cbcbcb" d="M0 15.4759H190.64801M0 31.76636H190.64801M0 48.0568H190.64801"/>
<path transform="matrix(1.00008,0,0,-1.00006,1.3975525,55.67444)" stroke-width=".3985" stroke-linecap="butt" stroke-miterlimit="10" stroke-linejoin="miter" fill="none" stroke="#cbcbcb" d="M0 7.33069H190.64801M0 23.62112H190.64801"/>
<path transform="matrix(1.00008,0,0,-1.00006,1.3975525,55.67444)" stroke-width=".19925" stroke-linecap="butt" stroke-miterlimit="10" stroke-linejoin="miter" fill="none" stroke="#929292" d="M66.72679 37.78572V42.0374M114.3888 37.78572V42.0374M162.0508 37.78572V42.0374"/>
<path transform="matrix(1.00008,0,0,-1.00006,1.3975525,55.67444)" stroke-width=".19925" stroke-linecap="butt" stroke-miterlimit="10" stroke-linejoin="miter" fill="none" stroke="#929292" d="M17.64743 15.4759H20.48215M17.64743 31.76636H20.48215M17.64743 48.0568H20.48215"/>
<path transform="matrix(1.00008,0,0,-1.00006,1.3975525,55.67444)" stroke-width=".19925" stroke-linecap="butt" stroke-miterlimit="10" stroke-linejoin="miter" fill="none" stroke="#929292" d="M16.93896 7.33069H21.19061M16.93896 23.62112H21.19061"/>
<path transform="matrix(1.00008,0,0,-1.00006,1.3975525,55.67444)" stroke-width=".99628" stroke-linecap="butt" stroke-miterlimit="10" stroke-linejoin="miter" fill="none" stroke="#000000" d="M0 39.91158H187.75879"/>
<path transform="matrix(1.00008,0,0,-1.00006,189.17136,15.760468)" d="M2.8892 0-1.73352 2.31136 0 0-1.73352-2.31136"/>
<path transform="matrix(1.00008,0,0,-1.00006,1.3975525,55.67444)" stroke-width=".99628" stroke-linecap="butt" stroke-miterlimit="10" stroke-linejoin="miter" fill="none" stroke="#000000" d="M19.06479 0V51.68376"/>
<path transform="matrix(0,-1.00006,-1.00008,-0,20.46387,3.9875794)" d="M2.8892 0-1.73352 2.31136 0 0-1.73352-2.31136"/>
<use data-text="0" xlink:href="#font_1_4" transform="matrix(9.166333,0,0,-9.166149,62.052408,13.320896)"/>
<use data-text="." xlink:href="#font_1_3" transform="matrix(9.166333,0,0,-9.166149,66.91056,13.320896)"/>
<use data-text="5" xlink:href="#font_1_9" transform="matrix(9.166333,0,0,-9.166149,69.33964,13.320896)"/>
<use data-text="1" xlink:href="#font_1_5" transform="matrix(9.166333,0,0,-9.166149,113.36451,13.320896)"/>
<use data-text="1" xlink:href="#font_1_5" transform="matrix(9.166333,0,0,-9.166149,157.38404,13.320896)"/>
<use data-text="." xlink:href="#font_1_3" transform="matrix(9.166333,0,0,-9.166149,162.24219,13.320896)"/>
<use data-text="5" xlink:href="#font_1_9" transform="matrix(9.166333,0,0,-9.166149,164.67127,13.320896)"/>
<use data-text="&#x2212;" xlink:href="#font_2_2" transform="matrix(10.037203,0,0,-10.037002,2.093605,51.7032)"/>
<use data-text="4" xlink:href="#font_1_8" transform="matrix(10.037203,0,0,-10.037002,9.316185,51.7032)"/>
<use data-text="&#x2212;" xlink:href="#font_2_2" transform="matrix(10.037203,0,0,-10.037002,2.093605,35.412225)"/>
<use data-text="2" xlink:href="#font_1_6" transform="matrix(10.037203,0,0,-10.037002,9.316185,35.412225)"/>
<g clip-path="url(#clip_3)">
<path transform="matrix(1.00008,0,0,-1.00006,1.3975525,55.67444)" stroke-width=".99628" stroke-linecap="butt" stroke-miterlimit="10" stroke-linejoin="miter" fill="none" stroke="#000000" d="M19.06479 23.62112V23.62112L42.07584 19.68863"/>
<path transform="matrix(.9857488,.1684401,.16844347,-.9857291,43.476739,35.98462)" stroke-width=".79701" stroke-linecap="round" stroke-linejoin="round" fill="none" stroke="#000000" d="M-1.73352 2.31136C-1.58905 1.4446 0 .14444 .43336 0 0-.14444-1.58905-1.4446-1.73352-2.31136"/>
<path transform="matrix(1.00008,0,0,-1.00006,1.3975525,55.67444)" stroke-width=".99628" stroke-linecap="butt" stroke-miterlimit="10" stroke-linejoin="miter" fill="none" stroke="#000000" d="M66.72679 15.4759V15.4759H89.7259"/>
<path transform="matrix(1.00008,0,0,-1.00006,91.13063,40.19761)" stroke-width=".79701" stroke-linecap="round" stroke-linejoin="round" fill="none" stroke="#000000" d="M-1.73352 2.31136C-1.58905 1.4446 0 .14444 .43336 0 0-.14444-1.58905-1.4446-1.73352-2.31136"/>
<path transform="matrix(1.00008,0,0,-1.00006,1.3975525,55.67444)" stroke-width=".99628" stroke-linecap="butt" stroke-miterlimit="10" stroke-linejoin="miter" fill="none" stroke="#000000" d="M114.3888 15.4759V15.4759L137.41399 21.3783"/>
<path transform="matrix(.9687175,-.24829489,-.24829987,-.9686981,138.82253,34.294878)" stroke-width=".79701" stroke-linecap="round" stroke-linejoin="round" fill="none" stroke="#000000" d="M-1.73352 2.31136C-1.58905 1.4446 0 .14444 .43336 0 0-.14444-1.58905-1.4446-1.73352-2.31136"/>
<use data-text="y" xlink:href="#font_4_2" transform="matrix(7.3330867,0,0,-7.3329398,23.413315,52.68726)"/>
<use data-text="&#x2032;" xlink:href="#font_2_1" transform="matrix(6.233099,0,0,-6.232974,27.518647,49.794084)"/>
<use data-text="(" xlink:href="#font_1_1" transform="matrix(7.3330867,0,0,-7.3329398,29.852837,52.68726)"/>
<use data-text="0" xlink:href="#font_1_4" transform="matrix(7.3330867,0,0,-7.3329398,32.41941,52.68726)"/>
<use data-text=")" xlink:href="#font_1_2" transform="matrix(7.3330867,0,0,-7.3329398,36.305948,52.68726)"/>
<use data-text="=" xlink:href="#font_2_3" transform="matrix(7.3330867,0,0,-7.3329398,40.238664,52.68726)"/>
<use data-text="&#x2212;" xlink:href="#font_2_2" transform="matrix(7.3330867,0,0,-7.3329398,46.875116,52.68726)"/>
<use data-text="2" xlink:href="#font_1_6" transform="matrix(7.3330867,0,0,-7.3329398,52.156618,52.68726)"/>
<use data-text="y" xlink:href="#font_4_2" transform="matrix(7.3330867,0,0,-7.3329398,70.8001,52.68726)"/>
<use data-text="&#x2032;" xlink:href="#font_2_1" transform="matrix(6.233099,0,0,-6.232974,74.90543,49.794084)"/>
<use data-text="(" xlink:href="#font_1_1" transform="matrix(7.3330867,0,0,-7.3329398,77.239627,52.68726)"/>
<use data-text="0" xlink:href="#font_1_4" transform="matrix(7.3330867,0,0,-7.3329398,79.8062,52.68726)"/>
<use data-text="." xlink:href="#font_1_3" transform="matrix(7.3330867,0,0,-7.3329398,83.69273,52.68726)"/>
<use data-text="5" xlink:href="#font_1_9" transform="matrix(7.3330867,0,0,-7.3329398,85.63601,52.68726)"/>
<use data-text=")" xlink:href="#font_1_2" transform="matrix(7.3330867,0,0,-7.3329398,89.52987,52.68726)"/>
<use data-text="=" xlink:href="#font_2_3" transform="matrix(7.3330867,0,0,-7.3329398,93.46092,52.68726)"/>
<use data-text="0" xlink:href="#font_1_4" transform="matrix(7.3330867,0,0,-7.3329398,100.10145,52.68726)"/>
<use data-text="y" xlink:href="#font_4_2" transform="matrix(7.3330867,0,0,-7.3329398,121.383159,52.68726)"/>
<use data-text="&#x2032;" xlink:href="#font_2_1" transform="matrix(6.233099,0,0,-6.232974,125.48849,49.794084)"/>
<use data-text="(" xlink:href="#font_1_1" transform="matrix(7.3330867,0,0,-7.3329398,127.82268,52.68726)"/>
<use data-text="1" xlink:href="#font_1_5" transform="matrix(7.3330867,0,0,-7.3329398,130.38925,52.68726)"/>
<use data-text=")" xlink:href="#font_1_2" transform="matrix(7.3330867,0,0,-7.3329398,134.27579,52.68726)"/>
<use data-text="=" xlink:href="#font_2_3" transform="matrix(7.3330867,0,0,-7.3329398,138.2085,52.68726)"/>
<use data-text="3" xlink:href="#font_1_7" transform="matrix(7.3330867,0,0,-7.3329398,144.84903,52.68726)"/>
</g>
<path transform="matrix(1.00008,0,0,-1.00006,1.3975525,55.67444)" d="M21.05734 23.62112C21.05734 24.7216 20.16527 25.61368 19.06479 25.61368 17.96432 25.61368 17.07224 24.7216 17.07224 23.62112 17.07224 22.52066 17.96432 21.62857 19.06479 21.62857 20.16527 21.62857 21.05734 22.52066 21.05734 23.62112ZM19.06479 23.62112" fill="#0000cc"/>
<path transform="matrix(1.00008,0,0,-1.00006,1.3975525,55.67444)" stroke-width=".99628" stroke-linecap="butt" stroke-miterlimit="10" stroke-linejoin="miter" fill="none" stroke="#0000ff" d="M21.05734 23.62112C21.05734 24.7216 20.16527 25.61368 19.06479 25.61368 17.96432 25.61368 17.07224 24.7216 17.07224 23.62112 17.07224 22.52066 17.96432 21.62857 19.06479 21.62857 20.16527 21.62857 21.05734 22.52066 21.05734 23.62112ZM19.06479 23.62112"/>
<path transform="matrix(1.00008,0,0,-1.00006,1.3975525,55.67444)" d="M68.71935 15.4759C68.71935 16.57639 67.82727 17.46846 66.72679 17.46846 65.62633 17.46846 64.73424 16.57639 64.73424 15.4759 64.73424 14.37544 65.62633 13.48335 66.72679 13.48335 67.82727 13.48335 68.71935 14.37544 68.71935 15.4759ZM66.72679 15.4759" fill="#0000cc"/>
<path transform="matrix(1.00008,0,0,-1.00006,1.3975525,55.67444)" stroke-width=".99628" stroke-linecap="butt" stroke-miterlimit="10" stroke-linejoin="miter" fill="none" stroke="#0000ff" d="M68.71935 15.4759C68.71935 16.57639 67.82727 17.46846 66.72679 17.46846 65.62633 17.46846 64.73424 16.57639 64.73424 15.4759 64.73424 14.37544 65.62633 13.48335 66.72679 13.48335 67.82727 13.48335 68.71935 14.37544 68.71935 15.4759ZM66.72679 15.4759"/>
<path transform="matrix(1.00008,0,0,-1.00006,1.3975525,55.67444)" d="M116.38135 15.4759C116.38135 16.57639 115.48927 17.46846 114.3888 17.46846 113.28833 17.46846 112.39624 16.57639 112.39624 15.4759 112.39624 14.37544 113.28833 13.48335 114.3888 13.48335 115.48927 13.48335 116.38135 14.37544 116.38135 15.4759ZM114.3888 15.4759" fill="#0000cc"/>
<path transform="matrix(1.00008,0,0,-1.00006,1.3975525,55.67444)" stroke-width=".99628" stroke-linecap="butt" stroke-miterlimit="10" stroke-linejoin="miter" fill="none" stroke="#0000ff" d="M116.38135 15.4759C116.38135 16.57639 115.48927 17.46846 114.3888 17.46846 113.28833 17.46846 112.39624 16.57639 112.39624 15.4759 112.39624 14.37544 113.28833 13.48335 114.3888 13.48335 115.48927 13.48335 116.38135 14.37544 116.38135 15.4759ZM114.3888 15.4759"/>
<path transform="matrix(1.00008,0,0,-1.00006,1.3975525,55.67444)" d="M164.04335 27.69374C164.04335 28.7942 163.15128 29.6863 162.0508 29.6863 160.95034 29.6863 160.05825 28.7942 160.05825 27.69374 160.05825 26.59326 160.95034 25.70119 162.0508 25.70119 163.15128 25.70119 164.04335 26.59326 164.04335 27.69374ZM162.0508 27.69374" fill="#0000cc"/>
<path transform="matrix(1.00008,0,0,-1.00006,1.3975525,55.67444)" stroke-width=".99628" stroke-linecap="butt" stroke-miterlimit="10" stroke-linejoin="miter" fill="none" stroke="#0000ff" d="M164.04335 27.69374C164.04335 28.7942 163.15128 29.6863 162.0508 29.6863 160.95034 29.6863 160.05825 28.7942 160.05825 27.69374 160.05825 26.59326 160.95034 25.70119 162.0508 25.70119 163.15128 25.70119 164.04335 26.59326 164.04335 27.69374ZM162.0508 27.69374"/>
<path transform="matrix(1.00008,0,0,-1.00006,1.3975525,55.67444)" stroke-width=".99628" stroke-linecap="butt" stroke-miterlimit="10" stroke-linejoin="miter" fill="none" stroke="#0000ff" d=""/>
<use data-text="t" xlink:href="#font_4_1" transform="matrix(10.037203,0,0,-10.037002,183.86814,11.974819)"/>
<use data-text="y" xlink:href="#font_4_2" transform="matrix(10.037203,0,0,-10.037002,24.70842,9.760685)"/>
</svg>
