<svg xmlns="http://www.w3.org/2000/svg" xmlns:xlink="http://www.w3.org/1999/xlink" version="1.1" width="128" height="100" viewBox="0 0 128 100">
<defs>
<path id="font_1_1" d="M.23098755 .35134889C.23599243 .37236024 .24598694 .41036988 .24598694 .41537477 .24598694 .43237306 .23399353 .4423828 .21699524 .4423828 .21398926 .4423828 .18598938 .44137574 .1769867 .40637208L.032989503-.17282105C.02999878-.18482971 .02999878-.18682862 .02999878-.18882752 .02999878-.2038269 .040985109-.21582031 .057998659-.21582031 .07899475-.21582031 .09098816-.1978302 .09298706-.19482422 .09700012-.18582154 .10998535-.13380432 .147995 .020248414 .17999268-.0067443849 .22499085-.0107421879 .24499512-.0107421879 .31498719-.0107421879 .35398866 .03425598 .37799073 .06227112 .3869934 .01725769 .42399598-.0107421879 .46798707-.0107421879 .5029907-.0107421879 .526001 .012252808 .5419922 .044265748 .5589905 .08027649 .57199099 .14129639 .57199099 .14329529 .57199099 .1532898 .5629883 .1532898 .55999758 .1532898 .5499878 .1532898 .548996 .14929199 .54599 .13528443 .5289917 .07026672 .5109863 .011245728 .46998597 .011245728 .44299317 .011245728 .43998719 .037261964 .43998719 .057266237 .43998719 .07926941 .45199586 .12628174 .45999146 .16130066L.48799134 .2693329C.4909973 .28433229 .5009918 .32234193 .5049896 .3373413 .5099945 .36035157 .519989 .3983612 .519989 .40437318 .519989 .42237855 .5059967 .43138124 .4909973 .43138124 .48599244 .43138124 .45999146 .43037416 .45199586 .3963623L.40499879 .20930481C.3929901 .15930176 .38198854 .11727905 .3789978 .107284549 .37799073 .10227966 .32998658 .011245728 .24899292 .011245728 .19898987 .011245728 .1749878 .044265748 .1749878 .09828186 .1749878 .12728882 .18199158 .1552887 .18899536 .18330384L.23098755 .35134889Z"/>
<path id="font_1_2" d="M.33399964 .30233766C.33999635 .32835389 .36299134 .42037965 .43299867 .42037965 .43798829 .42037965 .46199037 .42037965 .48298646 .40734864 .45498658 .402359 .43499757 .37734986 .43499757 .35334779 .43499757 .33735658 .44599916 .31835938 .47299195 .31835938 .49499513 .31835938 .5269928 .3363495 .5269928 .37635804 .5269928 .42837525 .46798707 .4423828 .43399049 .4423828 .37599183 .4423828 .34098817 .38935853 .32899476 .36634828 .3039856 .43237306 .25 .4423828 .22099304 .4423828 .116989139 .4423828 .05999756 .3133545 .05999756 .28834535 .05999756 .27833558 .069992069 .27833558 .07199097 .27833558 .07998657 .27833558 .08299255 .28033448 .084991458 .28933717 .11898804 .39535523 .18499756 .42037965 .21899414 .42037965 .23799134 .42037965 .272995 .4113617 .272995 .35334779 .272995 .32235719 .2559967 .25532533 .21899414 .11528015 .20298767 .053268434 .16799927 .011245728 .12399292 .011245728 .117996219 .011245728 .09498596 .011245728 .07398987 .024276734 .09899902 .029266358 .12098694 .05027771 .12098694 .07827759 .12098694 .105270389 .09899902 .11328125 .083999637 .11328125 .053985597 .11328125 .0289917 .08728027 .0289917 .055267335 .0289917 .009246826 .07899475-.0107421879 .12298584-.0107421879 .18899536-.0107421879 .22499085 .059280397 .22799683 .0652771 .23999024 .028274537 .27598573-.0107421879 .33599855-.0107421879 .43899537-.0107421879 .49598695 .118270877 .49598695 .14328003 .49598695 .1532898 .4869995 .1532898 .48399354 .1532898 .47499085 .1532898 .47299195 .14929199 .47099305 .14228821 .43798829 .03527832 .36999513 .011245728 .33799745 .011245728 .29899598 .011245728 .2829895 .043273927 .2829895 .07727051 .2829895 .09927368 .2889862 .121276859 .2999878 .16529846L.33399964 .30233766Z"/>
<path id="font_2_1" d="M.4889984 .31877137C.4889984 .42585755 .47799684 .49090577 .44499208 .55496218 .40098573 .6430359 .31999208 .66503909 .2649994 .66503909 .13899231 .66503909 .09298706 .5709839 .07899475 .5429535 .042999269 .4698944 .040985109 .3708191 .040985109 .31877137 .040985109 .25271607 .04399109 .15162659 .09199524 .07156372 .13798523-.0024871827 .21199036-.021484375 .2649994-.021484375 .31298829-.021484375 .39898683-.0064849855 .44898988 .09257507 .48599244 .16464234 .4889984 .2537079 .4889984 .31877137M.2649994 .006515503C.23098755 .006515503 .1619873 .022521973 .14099121 .12760926 .12998963 .18466187 .12998963 .2787323 .12998963 .33078004 .12998963 .3998413 .12998963 .4698944 .14099121 .5249481 .1619873 .6270294 .23999024 .6370239 .2649994 .6370239 .29899598 .6370239 .36799623 .62002566 .3880005 .5289459 .3999939 .4738922 .3999939 .39883424 .3999939 .33078004 .3999939 .27172853 .3999939 .18165589 .3880005 .12561035 .36698915 .020523072 .2979889 .006515503 .2649994 .006515503Z"/>
<path id="font_3_84" d="M.55400088 .21640015C.55400088 .34140016 .45298768 .44140626 .33198548 .44140626 .29299928 .44140626 .23498535 .43139649 .18399048 .37939454V.44140626L.034988405 .43045045V.39746095C.10598755 .39746095 .11099243 .39144898 .11099243 .34947206V-.1159668C.11099243-.16113281 .09899902-.16113281 .034988405-.16113281V-.19413758C.07798767-.19114685 .12199402-.19114685 .14898682-.19114685 .17799378-.19114685 .21998596-.19114685 .2630005-.19413758V-.16113281C.19898987-.16113281 .18699646-.16113281 .18699646-.1159668V.049545289C.23399353-.0017700195 .2849884-.009765625 .31698609-.009765625 .44400025-.009765625 .55400088 .088256839 .55400088 .2163086V.21640015M.46499635 .2163086C.46499635 .101257327 .3929901 .018234253 .31199647 .018234253 .2769928 .018234253 .23098755 .033233644 .19898987 .08325195 .18699646 .1002655 .18699646 .101257327 .18699646 .120269779V.33335877C.20999146 .37338258 .2599945 .4104004 .32299806 .4104004 .3999939 .4104004 .46499635 .32536317 .46499635 .2163086Z"/>
<path id="font_3_28" d="M.5139923 .09020996V.14530945H.48298646V.09020996C.48298646 .0491333 .46798707 .033111574 .44699098 .033111574 .4099884 .033111574 .4099884 .079193118 .4099884 .09020996V.29856874C.4099884 .39653016 .31498719 .44628907 .22399903 .44628907 .14099121 .44628907 .066986087 .4143219 .066986087 .34857179 .066986087 .318573 .08799744 .30056764 .11399841 .30056764 .14199829 .30056764 .16099549 .3205719 .16099549 .3475647 .16099549 .37156678 .1459961 .38856507 .12399292 .3935547 .16099549 .41827394 .21499634 .41827394 .22200012 .41827394 .27799989 .41827394 .33399964 .37957765 .33399964 .29756166V.26651C.27598573 .26350404 .20899964 .26049806 .13899231 .23144531 .050994874 .1933899 .033996583 .13528443 .033996583 .10223389 .033996583 .016220093 .1349945-.009765625 .20399475-.009765625 .2769928-.009765625 .32199098 .031219483 .34399415 .07122803 .34899903 .033111574 .375-.0048828127 .4189911-.0048828127 .42900086-.0048828127 .5139923-.00088500979 .5139923 .09010315V.09020996M.33399964 .14111328C.33399964 .04421997 .2519989 .018234253 .21199036 .018234253 .1599884 .018234253 .115997318 .053222658 .115997318 .10122681 .115997318 .16722107 .17799378 .23522949 .33399964 .24023438V.14111328Z"/>
<path id="font_3_96" d="M.38398744 .3784027C.38398744 .4133911 .35198976 .44140626 .30799867 .44140626 .24299622 .44140626 .19898987 .39239503 .17799378 .33639527H.1769867V.44140626L.034988405 .43045045V.39746095C.102996829 .39746095 .11099243 .3904419 .11099243 .3413849V.078048709C.11099243 .032989503 .09899902 .032989503 .034988405 .032989503V0C.07398987 .0029907227 .1289978 .0029907227 .15299988 .0029907227 .21199036 .0029907227 .21398926 .0029907227 .2789917 0V.032989503H.25898744C.18598938 .032989503 .18399048 .044006349 .18399048 .08004761V.22824097C.18399048 .30332948 .21499634 .41145326 .31098939 .41345216 .30499269 .40899659 .29499818 .40098573 .29499818 .37799073 .29499818 .34700013 .31900025 .33299256 .33898927 .33299256 .36299134 .33299256 .38398744 .34899903 .38398744 .37799073V.3784027Z"/>
<path id="font_3_75" d="M.8569946 0V.032989503C.79299929 .032989503 .7809906 .032989503 .7809906 .07803345V.3032837C.7809906 .3843689 .74598696 .44140626 .6369934 .44140626 .54499819 .44140626 .49899293 .37835694 .48298646 .34933473 .46499635 .42140199 .4079895 .44140626 .34298707 .44140626 .24598694 .44140626 .19999695 .37236024 .18699646 .34532167H.18598938V.44140626L.040985109 .43045045V.39746095C.10899353 .39746095 .116989139 .3904419 .116989139 .3413849V.078048709C.116989139 .032989503 .10499573 .032989503 .040985109 .032989503V0C.083999637 .0029907227 .12799073 .0029907227 .15499878 .0029907227 .18399048 .0029907227 .22599793 .0029907227 .2689972 0V.032989503C.20498657 .032989503 .19299317 .032989503 .19299317 .078048709V.25927735C.19299317 .36434938 .27198792 .4133911 .33499146 .4133911 .3999939 .4133911 .41099549 .36235047 .41099549 .3072815V.07803345C.41099549 .032989503 .39898683 .032989503 .33499146 .032989503V0C.37799073 .0029907227 .42199708 .0029907227 .44898988 .0029907227 .47799684 .0029907227 .519989 .0029907227 .5629883 0V.032989503C.49899293 .032989503 .4869995 .032989503 .4869995 .07803345V.25923158C.4869995 .36434938 .56599429 .4133911 .6289978 .4133911 .69400027 .4133911 .7049866 .36235047 .7049866 .3072815V.07803345C.7049866 .032989503 .69299319 .032989503 .6289978 .032989503V0C.6719971 .0029907227 .71598818 .0029907227 .7429962 .0029907227 .7719879 .0029907227 .81399539 .0029907227 .8569946 0Z"/>
<path id="font_3_50" d="M.44099427 .12036133C.44099427 .12435913 .43798829 .13438416 .4249878 .13438416 .4139862 .13438416 .4119873 .12736511 .4099884 .12136841 .37399293 .024230957 .28799439 .021224976 .269989 .021224976 .22499085 .021224976 .1789856 .042251588 .14898682 .08831787 .11898804 .13438416 .11898804 .19847107 .11898804 .22851563H.41299439C.43499757 .22851563 .44099427 .22851563 .44099427 .25151063 .44099427 .34039308 .3919983 .44628907 .25099183 .44628907 .1269989 .44628907 .02999878 .3433838 .02999878 .21949768 .02999878 .09031677 .13798523-.009765625 .2639923-.009765625 .3909912-.009765625 .44099427 .097335819 .44099427 .12036133M.37298585 .25450135H.11999512C.1289978 .39431764 .21398926 .41827394 .25099183 .41827394 .36799623 .41827394 .37199403 .27748109 .37298585 .25450135Z"/>
<path id="font_3_105" d="M.35299684 .1250763V.1809845H.32199098V.12705994C.32199098 .058166505 .29100038 .021224976 .25299073 .021224976 .18598938 .021224976 .18598938 .10710144 .18598938 .12307739V.3976593H.33499146V.43066407H.18598938V.6142578H.15499878C.1539917 .52345278 .11299133 .4286499 .019989014 .42565919V.3976593H.10998535V.1250763C.10998535 .008224487 .19999695-.009765625 .24598694-.009765625 .31298829-.010009766 .35299684 .049987794 .35299684 .125V.1250763Z"/>
<path id="font_4_1" d="M.24198914 .35336305C.24699402 .3723755 .25498963 .4053955 .25498963 .41038514 .25498963 .43139649 .23899842 .44140626 .22200012 .44140626 .18798828 .44140626 .17999268 .40838624 .17599488 .39437867L.036987306-.1608429C.032989503-.17684937 .032989503-.18183899 .032989503-.18385315 .032989503-.20884705 .052993776-.21484375 .06498718-.21484375 .069992069-.21484375 .09298706-.21385193 .10598755-.18785095 .10899353-.17984009 .13798523-.060791017 .1579895 .019226075 .1749878 .006225586 .20899964-.009765625 .2599945-.009765625 .34199525-.009765625 .3959961 .057235719 .39898683 .06124878 .4169922-.0077667238 .4850006-.009765625 .49699403-.009765625 .54299929-.009765625 .56599429 .02822876 .57398989 .04524231 .59399417 .08125305 .60798647 .13928223 .60798647 .14328003 .60798647 .14927674 .60398867 .15628052 .59199526 .15628052 .5799866 .15628052 .5779877 .15028382 .57199099 .12527466 .55799868 .070251468 .5389862 .018234253 .5 .018234253 .47698976 .018234253 .46798707 .037231447 .46798707 .06524658 .46798707 .08226013 .47898866 .12527466 .48599244 .15428162L.5119934 .2563324C.5179901 .28233338 .522995 .30334474 .5309906 .33335877 .5359955 .35536195 .54599 .39437867 .54599 .40039063 .54599 .42539979 .526001 .43139649 .5139923 .43139649 .47898866 .43139649 .47299195 .40638734 .46199037 .3613739L.44099427 .27833558 .4099884 .1532898 .3999939 .11326599C.397995 .10726929 .37098695 .069244388 .34799195 .050247194 .33099366 .037231447 .3019867 .018234253 .2649994 .018234253 .21798706 .018234253 .18598938 .04324341 .18598938 .105270389 .18598938 .13127136 .19400025 .1612854 .19999695 .18530274L.24198914 .35336305Z"/>
<path id="font_3_35" d="M.55400088 .21650696C.55400088 .3425293 .45098878 .44140626 .32899476 .44140626 .25 .44140626 .20098877 .39845277 .18399048 .38053895V.69433596L.034988405 .68333438V.6503296C.102996829 .6503296 .11099243 .6433258 .11099243 .5943451V.00048828127H.14199829L.17799378 .0625C.20199585 .02822876 .24899292-.009765625 .31698609-.009765625 .44400025-.009765625 .55400088 .08828735 .55400088 .21640015V.21650696M.46499635 .21740723C.46499635 .19438172 .46499635 .12332153 .42900086 .07627869 .3929901 .031234742 .34599305 .018234253 .31298829 .018234253 .2649994 .018234253 .22499085 .04324341 .19898987 .08229065 .18699646 .1013031 .18699646 .10231018 .18699646 .12132263V.3164978C.18699646 .33551026 .18699646 .3375244 .20199585 .3555298 .23098755 .39248658 .27799989 .4133911 .32299806 .4133911 .375 .4133911 .4139862 .38252259 .43399049 .35253907 .45098878 .3255005 .46499635 .29048158 .46499635 .21740723Z"/>
<path id="font_3_66" d="M.2599945 .0001373291V.03314209C.19499207 .03314209 .19099427 .038146974 .19099427 .07714844V.44140626L.04499817 .43045045V.39746095C.10899353 .39746095 .117996219 .39144898 .117996219 .34239198V.07814026C.117996219 .03314209 .10598755 .03314209 .041992189 .03314209V0C.08099365 .0029907227 .13699341 .0029907227 .1519928 .0029907227 .16499329 .0029907227 .22499085 .0029907227 .2599945 0V.0001373291M.20298767 .6021881C.20298767 .6351929 .1769867 .6582031 .147995 .6582031 .11898804 .6582031 .09298706 .6351929 .09298706 .6021881 .09298706 .5731964 .115997318 .54719546 .147995 .54719546 .1789856 .54719546 .20298767 .5731964 .20298767 .6021881Z"/>
<path id="font_3_55" d="M.3769989 .63201907C.3769989 .6750946 .33499146 .70410159 .28199769 .70410159 .20698548 .70410159 .117996219 .65005496 .117996219 .54286196V.43066407H.035995485V.3976593H.117996219V.07795715C.117996219 .032989503 .10598755 .032989503 .041992189 .032989503V0C.08099365 .0029907227 .13598633 .0029907227 .1599884 .0029907227 .21899414 .0029907227 .22099304 .0029907227 .28599549 0V.032989503H.2659912C.19299317 .032989503 .19099427 .04397583 .19099427 .079956058V.3976593H.31098939V.43066407H.18798828V.54385378C.18798828 .63108828 .23699951 .6760864 .2809906 .6760864 .29699708 .6760864 .30599977 .6720886 .30999757 .6710968 .2919922 .6620941 .2869873 .6450958 .2869873 .63209536 .2869873 .60609439 .30599977 .58709719 .33198548 .58709719 .35899354 .58709719 .3769989 .60609439 .3769989 .63209536V.63201907Z"/>
<path id="font_3_109" d="M.56199648 .00022888184V.033233644C.49398805 .033233644 .48599244 .040237428 .48599244 .08924866V.44140626L.33399964 .43040467V.3973999C.4019928 .3973999 .4099884 .39039613 .4099884 .34136964V.16726685C.4099884 .08125305 .35798646 .018234253 .2829895 .018234253 .19699097 .018234253 .19299317 .06123352 .19299317 .11126709V.44140626L.040985109 .43040467V.3973999C.116989139 .3973999 .116989139 .39439393 .116989139 .30534364V.15527344C.116989139 .08325195 .116989139-.009765625 .2769928-.009765625 .37098695-.009765625 .40699769 .0622406 .4119873 .071243289H.41299439V-.009765625L.56199648 .00022888184Z"/>
<path id="font_3_43" d="M.44099427 .12031555C.44099427 .13232422 .42799378 .13232422 .4249878 .13232422 .41799928 .13232422 .41299439 .13131714 .4099884 .12130737 .40299989 .10029602 .375 .021224976 .2749939 .021224976 .21299744 .021224976 .12399292 .0692749 .12399292 .21739197 .12399292 .3614807 .19799805 .4152832 .2709961 .4152832 .27999879 .4152832 .33299256 .4152832 .36799623 .39746095 .33999635 .3884735 .33599855 .36547853 .33599855 .35346986 .33599855 .32647706 .35499574 .30647279 .3829956 .30647279 .40899659 .30625917 .42999269 .32426454 .42999269 .35427857 .42999269 .41627503 .3619995 .44628907 .2679901 .44628907 .1289978 .44628907 .034988405 .3352661 .034988405 .21624756 .034988405 .0892334 .13899231-.009765625 .2649994-.009765625 .4059906-.009765625 .44099427 .10824585 .44099427 .12023926V.12031555Z"/>
<path id="font_3_81" d="M.5 .21325684C.5 .3382721 .39698792 .44628907 .2649994 .44628907 .1329956 .44628907 .02999878 .3382721 .02999878 .21325684 .02999878 .08824158 .13699341-.009765625 .2649994-.009765625 .3939972-.009765625 .5 .08824158 .5 .21325684M.41099549 .22225952C.41099549 .17625427 .40899659 .12124634 .3809967 .07923889 .35398866 .039230348 .30899049 .021224976 .2649994 .021224976 .21099854 .021224976 .16899109 .047225954 .14698792 .082229617 .12199402 .12324524 .11898804 .17224121 .11898804 .22225952 .11898804 .2602539 .11898804 .32026673 .1499939 .363266 .17599488 .3982849 .21798706 .41827394 .2649994 .41827394 .31698609 .41827394 .3600006 .39328004 .3829956 .35827638 .4099884 .31626893 .41099549 .2622528 .41099549 .22225952Z"/>
<path id="font_3_77" d="M.56199648 0V.032989503C.49798585 .032989503 .48599244 .032989503 .48599244 .07803345V.3032837C.48599244 .38737489 .44799806 .44140626 .34298707 .44140626 .24398804 .44140626 .19898987 .36935426 .18699646 .34532167H.18598938V.44140626L.040985109 .43045045V.39746095C.10899353 .39746095 .116989139 .3904419 .116989139 .3413849V.078048709C.116989139 .032989503 .10499573 .032989503 .040985109 .032989503V0C.083999637 .0029907227 .12799073 .0029907227 .15499878 .0029907227 .18399048 .0029907227 .22599793 .0029907227 .2689972 0V.032989503C.20498657 .032989503 .19299317 .032989503 .19299317 .078048709V.25927735C.19299317 .36434938 .272995 .4133911 .33399964 .4133911 .394989 .4133911 .4099884 .37036134 .4099884 .3072815V.07803345C.4099884 .032989503 .397995 .032989503 .33399964 .032989503V0C.3769989 .0029907227 .42099 .0029907227 .44799806 .0029907227 .47698976 .0029907227 .5189972 .0029907227 .56199648 0Z"/>
<path id="font_2_2" d="M.73098757 .3330078C.74598696 .3330078 .7659912 .3330078 .7659912 .3560028 .7659912 .3789978 .74198916 .3789978 .72698977 .3789978H.09799194C.08299255 .3789978 .05899048 .3789978 .05899048 .3560028 .05899048 .3330078 .07899475 .3330078 .09399414 .3330078H.73098757M.72698977 .12098694C.74198916 .12098694 .7659912 .12098694 .7659912 .14398194 .7659912 .16699219 .74598696 .16699219 .73098757 .16699219H.09399414C.07899475 .16699219 .05899048 .16699219 .05899048 .14398194 .05899048 .12098694 .08299255 .12098694 .09799194 .12098694H.72698977Z"/>
<path id="font_3_97" d="M.5299988 .18458557C.5299988 .2716217 .47299195 .36065675 .37098695 .38467408L.23298645 .416687C.16899109 .4316864 .12199402 .4827118 .12199402 .5437927 .12199402 .61094668 .17999268 .6740875 .2669983 .6740875 .43998719 .6740875 .46299745 .51171877 .46798707 .4737091 .46998597 .46270753 .47099305 .45570375 .48399354 .45570375 .5 .45570375 .5 .46270753 .5 .4817047V.6781006C.5 .6940918 .5 .70410159 .4869995 .70410159 .47898866 .70410159 .47698976 .7010956 .46998597 .690094L.43499757 .6340027C.3849945 .6890869 .32099916 .70410159 .2659912 .70410159 .14698792 .70410159 .05899048 .61395266 .05899048 .51171877 .05899048 .43569947 .101989749 .39367677 .12098694 .3746643 .15699768 .33865357 .18998719 .3306427 .2979889 .30563355 .38398744 .28562928 .39898683 .2826233 .43199159 .24760437 .44198609 .23660279 .46699525 .20259094 .46699525 .15356446 .46699525 .08453369 .4139862 .011505127 .31999208 .011505127 .20999146 .011505127 .09599304 .06452942 .08999634 .20359802 .08898926 .21960449 .08898926 .22660828 .07499695 .22660828 .05899048 .22660828 .05899048 .21859741 .05899048 .19958496V.004501343C.05899048-.011489868 .05899048-.021484375 .07199097-.021484375 .07998657-.021484375 .08099365-.019485474 .08799744-.009490967 .09199524-.0034942628 .09599304 .005508423 .12399292 .047531129 .18699646-.0084991459 .26098634-.021484375 .32099916-.021484375 .44599916-.021484375 .5299988 .07752991 .5299988 .18458557Z"/>
<path id="font_3_72" d="M.2669983 0V.032989503C.20298767 .032989503 .19099427 .032989503 .19099427 .07801819V.69433596L.041992189 .6826172V.6496124C.10998535 .6496124 .117996219 .64260867 .117996219 .5936432V.07795715C.117996219 .032989503 .10598755 .032989503 .041992189 .032989503V0C.08099365 .0029907227 .13699341 .0029907227 .1539917 .0029907227 .17399597 .0029907227 .22799683 .0029907227 .2669983 0Z"/>
<path id="font_3_108" d="M.7509918 .6496124V.6826172C.70599368 .6796112 .6609955 .6796112 .6339874 .6796112 .6049957 .6796112 .5609894 .6796112 .5159912 .6826172V.6496124C.61698916 .6496124 .61698916 .6016083 .61698916 .5756073V.23054505C.61698916 .0945282 .5149994 .011505127 .41299439 .011505127 .35899354 .011505127 .23699951 .042510988 .23699951 .22554016V.6016083C.23699951 .63861086 .23899842 .6496124 .31599427 .6496124H.33799745V.6826172L.19099427 .6796112 .04399109 .6826172V.6496124H.06599426C.14299011 .6496124 .14498902 .63861086 .14498902 .6016083V.22854615C.14498902 .08552551 .2689972-.021484375 .41099549-.021484375 .54499819-.021484375 .6499939 .09051514 .6499939 .22753906V.5756073C.6499939 .6016083 .6499939 .6496124 .7509918 .6496124Z"/>
<path id="font_3_98" d="M.3829956 .12924195C.3829956 .1772461 .35398866 .24725342 .23498535 .2692566 .22698975 .2712555 .17098999 .28126527 .16699219 .28126527 .13598633 .28826905 .08898926 .30926515 .08898926 .34927369 .08898926 .37927247 .11099243 .4212799 .20599365 .4212799 .31799317 .4212799 .32299806 .33926393 .32499696 .31126405 .32598878 .30326844 .33299256 .30026246 .33999635 .30026246 .35598756 .30026246 .35598756 .30726625 .35598756 .32626344V.4202881C.35598756 .4362793 .35598756 .44628907 .34298707 .44628907 .33799745 .44628907 .33499146 .44628907 .31900025 .4302826 .31698609 .4292755 .30799867 .4202881 .30499269 .4202881 .30499269 .4202881 .3019867 .4202881 .29599 .4242859 .27999879 .43528749 .25099183 .44628907 .20599365 .44628907 .06599426 .44628907 .034988405 .37026979 .034988405 .32226563 .034988405 .27226258 .07199097 .24325562 .07499695 .24024964 .114990238 .21025086 .13798523 .20625305 .20498657 .19424439 .2519989 .18525696 .32899476 .17124939 .32899476 .10324097 .32899476 .0642395 .30299378 .018234253 .21099854 .018234253 .10998535 .018234253 .08099365 .09623718 .067993167 .14924622 .06399536 .1622467 .06298828 .16725159 .050994874 .16725159 .034988405 .16725159 .034988405 .15924073 .034988405 .14024353V.016220093C.034988405 .00022888184 .034988405-.009765625 .04798889-.009765625 .053985597-.009765625 .054992677-.008773804 .07299805 .010223389 .07798767 .0152282719 .08898926 .02822876 .09399414 .033233644 .13899231-.0077667238 .18598938-.009765625 .21199036-.009765625 .33898927-.009765625 .3829956 .06323242 .3829956 .12924195Z"/>
</defs>
<path transform="matrix(1.00006,0,0,-1,35.485147,50.086)" stroke-width=".3985" stroke-linecap="butt" stroke-miterlimit="10" stroke-linejoin="miter" fill="none" stroke="#000000" d="M-34.01608 0H74.43677"/>
<path transform="matrix(1.00006,0,0,-1,110.12564,50.086)" stroke-width=".3985" stroke-linecap="round" stroke-linejoin="round" fill="none" stroke="#000000" d="M-2.07224 2.39104C-1.69365 .95639-.84999 .27895 0 0-.84999-.27895-1.69365-.95639-2.07224-2.39104"/>
<use data-text="&#x00b5;" xlink:href="#font_1_1" transform="matrix(10.909754,0,0,-10.9091,107.03844,58.617998)"/>
<path transform="matrix(1.00006,0,0,-1,35.485147,50.086)" stroke-width=".3985" stroke-linecap="butt" stroke-miterlimit="10" stroke-linejoin="miter" fill="none" stroke="#000000" d="M0-40.81917V40.42067"/>
<path transform="matrix(0,-1,-1.00006,-0,35.485147,9.46608)" stroke-width=".3985" stroke-linecap="round" stroke-linejoin="round" fill="none" stroke="#000000" d="M-2.07224 2.39104C-1.69365 .95639-.84999 .27895 0 0-.84999-.27895-1.69365-.95639-2.07224-2.39104"/>
<use data-text="x" xlink:href="#font_1_2" transform="matrix(10.909754,0,0,-10.9091,25.414544,11.614998)"/>
<use data-text="0" xlink:href="#font_2_1" transform="matrix(7.9705779,0,0,-7.9701,27.415665,59.058)"/>
<use data-text="p" xlink:href="#font_3_84" transform="matrix(7.9705779,0,0,-7.9701,80.74486,58.822999)"/>
<use data-text="a" xlink:href="#font_3_28" transform="matrix(7.9705779,0,0,-7.9701,85.4475,58.822999)"/>
<use data-text="r" xlink:href="#font_3_96" transform="matrix(7.9705779,0,0,-7.9701,89.679889,58.822999)"/>
<use data-text="a" xlink:href="#font_3_28" transform="matrix(7.9705779,0,0,-7.9701,92.979709,58.822999)"/>
<use data-text="m" xlink:href="#font_3_75" transform="matrix(7.9705779,0,0,-7.9701,97.21208,58.822999)"/>
<use data-text="e" xlink:href="#font_3_50" transform="matrix(7.9705779,0,0,-7.9701,104.26604,58.822999)"/>
<use data-text="t" xlink:href="#font_3_105" transform="matrix(7.9705779,0,0,-7.9701,108.02816,58.822999)"/>
<use data-text="e" xlink:href="#font_3_50" transform="matrix(7.9705779,0,0,-7.9701,111.320018,58.822999)"/>
<use data-text="r" xlink:href="#font_3_96" transform="matrix(7.9705779,0,0,-7.9701,115.08213,58.822999)"/>
<use data-text="&#x00b5;" xlink:href="#font_4_1" transform="matrix(7.9705779,0,0,-7.9701,121.203289,58.822999)"/>
<path transform="matrix(1.00006,0,0,-1,35.485147,50.086)" stroke-width=".79701" stroke-linecap="butt" stroke-miterlimit="10" stroke-linejoin="miter" fill="none" stroke="#000000" d="M0 0 .68666 4.83331 1.37335 6.83424 2.06006 8.37059 2.74675 9.66614 3.43346 10.80699 4.12013 11.83835 4.80684 12.78716 5.49353 13.67004 6.18024 14.49947 6.86693 15.28323 7.55363 16.02963 8.24031 16.74226 8.92702 17.42584 9.61371 18.08348 10.30042 18.71828 10.9871 19.33229 11.6738 19.92712 12.36049 20.50482 13.0472 21.06694 13.73389 21.61403 14.42058 22.14758 15.10728 22.66924 15.79396 23.17842 16.48067 23.67722 17.16736 24.16512 17.85406 24.64368 18.54076 25.11342 19.22745 25.57433 19.91414 26.02693 20.60085 26.47176 21.28754 26.90932 21.97424 27.34012 22.66093 27.76366 23.34763 28.18149 24.03432 28.5931 24.72102 28.99846 25.40771 29.39812 26.09442 29.79312 26.7811 30.1824 27.4678 30.567 28.1545 30.94643 28.8412 31.32169 29.5279 31.6923 30.2146 32.05875 30.90128 32.42104 31.58798 32.77917 32.27467 33.1337 32.96138 33.48456 33.64807 33.83128 34.33475 34.1749 35.02144 34.51486 35.70813 34.85172 36.39484 35.18494 37.08153 35.51556 37.76823 35.84258 38.45491 36.16699 39.14162 36.48878 39.82831 36.80748 40.51501 37.12357 41.2017 37.43657 41.88841 37.74747 42.57509 38.05527 43.2618 38.3615 43.94849 38.66411 44.6352 38.96513 45.32188 39.26411 46.00858 39.5605 46.69527 39.85428 47.38197 40.1465 48.06866 40.43611 48.75537 40.7242 49.44206 41.00967 50.12875 41.29356 50.81544 41.57541 51.50214 41.85518 52.18884 42.1339 52.87553 42.41005 53.56223 42.68463 54.24892 42.9571 54.93562 43.22806 55.62231 43.49796 56.30902 43.76526 56.99571 44.03156 57.6824 44.29573 58.3691 44.55888 59.0558 44.81996 59.7425 45.08 60.4292 45.3385 61.11588 45.5949 61.80258 45.85027 62.48927 46.1046 63.17598 46.35686 63.86267 46.6086 64.54938 46.85825 65.23605 47.10687 65.92276 47.35394 66.60945 47.59998 67.29616 47.84496 67.98283 48.08838"/>
<path transform="matrix(1.00006,0,0,-1,35.485147,50.086)" stroke-width=".79701" stroke-linecap="butt" stroke-dasharray="2.98883,2.98883" stroke-miterlimit="10" stroke-linejoin="miter" fill="none" stroke="#000000" d="M0 0 .68666-4.83331 1.37335-6.83424 2.06006-8.37059 2.74675-9.66614 3.43346-10.80699 4.12013-11.83835 4.80684-12.78716 5.49353-13.67004 6.18024-14.49947 6.86693-15.28323 7.55363-16.02963 8.24031-16.74226 8.92702-17.42584 9.61371-18.08348 10.30042-18.71828 10.9871-19.33229 11.6738-19.92712 12.36049-20.50482 13.0472-21.06694 13.73389-21.61403 14.42058-22.14758 15.10728-22.66924 15.79396-23.17842 16.48067-23.67722 17.16736-24.16512 17.85406-24.64368 18.54076-25.11342 19.22745-25.57433 19.91414-26.02693 20.60085-26.47176 21.28754-26.90932 21.97424-27.34012 22.66093-27.76366 23.34763-28.18149 24.03432-28.5931 24.72102-28.99846 25.40771-29.39812 26.09442-29.79312 26.7811-30.1824 27.4678-30.567 28.1545-30.94643 28.8412-31.32169 29.5279-31.6923 30.2146-32.05875 30.90128-32.42104 31.58798-32.77917 32.27467-33.1337 32.96138-33.48456 33.64807-33.83128 34.33475-34.1749 35.02144-34.51486 35.70813-34.85172 36.39484-35.18494 37.08153-35.51556 37.76823-35.84258 38.45491-36.16699 39.14162-36.48878 39.82831-36.80748 40.51501-37.12357 41.2017-37.43657 41.88841-37.74747 42.57509-38.05527 43.2618-38.3615 43.94849-38.66411 44.6352-38.96513 45.32188-39.26411 46.00858-39.5605 46.69527-39.85428 47.38197-40.1465 48.06866-40.43611 48.75537-40.7242 49.44206-41.00967 50.12875-41.29356 50.81544-41.57541 51.50214-41.85518 52.18884-42.1339 52.87553-42.41005 53.56223-42.68463 54.24892-42.9571 54.93562-43.22806 55.62231-43.49796 56.30902-43.76526 56.99571-44.03156 57.6824-44.29573 58.3691-44.55888 59.0558-44.81996 59.7425-45.08 60.4292-45.3385 61.11588-45.5949 61.80258-45.85027 62.48927-46.1046 63.17598-46.35686 63.86267-46.6086 64.54938-46.85825 65.23605-47.10687 65.92276-47.35394 66.60945-47.59998 67.29616-47.84496 67.98283-48.08838"/>
<path transform="matrix(1.00006,0,0,-1,35.485147,50.086)" stroke-width=".3985" stroke-linecap="butt" stroke-dasharray=".3985,1.99255" stroke-miterlimit="10" stroke-linejoin="miter" fill="none" stroke="#000000" d="M0-40.81917V40.81917"/>
<use data-text="b" xlink:href="#font_3_35" transform="matrix(7.9705779,0,0,-7.9701,41.021478,62.934)"/>
<use data-text="i" xlink:href="#font_3_66" transform="matrix(7.9705779,0,0,-7.9701,45.72412,62.934)"/>
<use data-text="f" xlink:href="#font_3_55" transform="matrix(7.9705779,0,0,-7.9701,48.075448,62.934)"/>
<use data-text="u" xlink:href="#font_3_109" transform="matrix(7.9705779,0,0,-7.9701,50.665887,62.934)"/>
<use data-text="r" xlink:href="#font_3_96" transform="matrix(7.9705779,0,0,-7.9701,55.36853,62.934)"/>
<use data-text="c" xlink:href="#font_3_43" transform="matrix(7.9705779,0,0,-7.9701,58.66835,62.934)"/>
<use data-text="a" xlink:href="#font_3_28" transform="matrix(7.9705779,0,0,-7.9701,62.430467,62.934)"/>
<use data-text="t" xlink:href="#font_3_105" transform="matrix(7.9705779,0,0,-7.9701,66.66283,62.934)"/>
<use data-text="i" xlink:href="#font_3_66" transform="matrix(7.9705779,0,0,-7.9701,69.95468,62.934)"/>
<use data-text="o" xlink:href="#font_3_81" transform="matrix(7.9705779,0,0,-7.9701,72.306018,62.934)"/>
<use data-text="n" xlink:href="#font_3_77" transform="matrix(7.9705779,0,0,-7.9701,76.538379,62.934)"/>
<use data-text="a" xlink:href="#font_3_28" transform="matrix(7.9705779,0,0,-7.9701,84.05464,62.934)"/>
<use data-text="t" xlink:href="#font_3_105" transform="matrix(7.9705779,0,0,-7.9701,88.287,62.934)"/>
<use data-text="&#x00b5;" xlink:href="#font_4_1" transform="matrix(7.9705779,0,0,-7.9701,94.40869,62.934)"/>
<use data-text="=" xlink:href="#font_2_2" transform="matrix(7.9705779,0,0,-7.9701,101.85513,62.934)"/>
<use data-text="0" xlink:href="#font_2_1" transform="matrix(7.9705779,0,0,-7.9701,110.790149,62.934)"/>
<path transform="matrix(1.00006,0,0,-1,35.485147,50.086)" stroke-width=".79701" stroke-linecap="butt" stroke-miterlimit="10" stroke-linejoin="miter" fill="none" stroke="#000000" d="M44.221 30.61424H54.42592"/>
<use data-text="S" xlink:href="#font_3_97" transform="matrix(7.9705779,0,0,-7.9701,93.948657,22.193999)"/>
<use data-text="t" xlink:href="#font_3_105" transform="matrix(7.9705779,0,0,-7.9701,98.65129,22.193999)"/>
<use data-text="a" xlink:href="#font_3_28" transform="matrix(7.9705779,0,0,-7.9701,101.943149,22.193999)"/>
<use data-text="b" xlink:href="#font_3_35" transform="matrix(7.9705779,0,0,-7.9701,106.17552,22.193999)"/>
<use data-text="l" xlink:href="#font_3_72" transform="matrix(7.9705779,0,0,-7.9701,110.87816,22.193999)"/>
<use data-text="e" xlink:href="#font_3_50" transform="matrix(7.9705779,0,0,-7.9701,113.22949,22.193999)"/>
<path transform="matrix(1.00006,0,0,-1,35.485147,50.086)" stroke-width=".79701" stroke-linecap="butt" stroke-dasharray="2.98883,2.98883" stroke-miterlimit="10" stroke-linejoin="miter" fill="none" stroke="#000000" d="M44.221 20.40984H54.42592"/>
<use data-text="U" xlink:href="#font_3_108" transform="matrix(7.9705779,0,0,-7.9701,93.948657,32.357999)"/>
<use data-text="n" xlink:href="#font_3_77" transform="matrix(7.9705779,0,0,-7.9701,100.29323,32.357999)"/>
<use data-text="s" xlink:href="#font_3_98" transform="matrix(7.9705779,0,0,-7.9701,104.99588,32.357999)"/>
<use data-text="t" xlink:href="#font_3_105" transform="matrix(7.9705779,0,0,-7.9701,108.335559,32.357999)"/>
<use data-text="a" xlink:href="#font_3_28" transform="matrix(7.9705779,0,0,-7.9701,111.627399,32.357999)"/>
<use data-text="b" xlink:href="#font_3_35" transform="matrix(7.9705779,0,0,-7.9701,115.85977,32.357999)"/>
<use data-text="l" xlink:href="#font_3_72" transform="matrix(7.9705779,0,0,-7.9701,120.56241,32.357999)"/>
<use data-text="e" xlink:href="#font_3_50" transform="matrix(7.9705779,0,0,-7.9701,122.91374,32.357999)"/>
</svg>
