<svg xmlns="http://www.w3.org/2000/svg" xmlns:xlink="http://www.w3.org/1999/xlink" version="1.1" width="143" height="79" viewBox="0 0 143 79">
<defs>
<path id="font_1_1" d="M.42799378 .15419007C.3939972 .10821533 .33499146 .03727722 .2679901 .03727722 .19499207 .03727722 .17999268 .097229007 .17999268 .16816712 .17999268 .29808045 .25498963 .46694947 .34700013 .46694947 .3789978 .46694947 .40098573 .44696046 .40699769 .38700868 .40899659 .36901856 .41799928 .35702516 .43598939 .35702516 .45999146 .35702516 .5 .38002015 .5 .41299439 .5 .46394349 .44599916 .5019531 .37098695 .5019531 .19299317 .5019531 .08099365 .31207276 .08099365 .14819336 .08099365 .026275635 .1539917-.01171875 .22399903-.01171875 .2979889-.01171875 .3829956 .02027893 .45199586 .13519287L.42799378 .15419007Z"/>
<path id="font_1_3" d="M.42799378 .45222474 .43899537 .49023438H.31199647L.34599305 .6092224 .33399964 .6162262 .23699951 .53923037 .22399903 .49023438H.14299011L.13198853 .45222474H.21499634L.125 .08627319C.10998535 .029266358 .12199402-.01171875 .17199707-.01171875 .2519989-.01171875 .31599427 .054275514 .35598756 .1292572L.33399964 .1462555C.31098939 .10726929 .2599945 .040267946 .22898865 .040267946 .20799256 .040267946 .20799256 .0632782 .21398926 .088272098L.30299378 .45222474H.42799378Z"/>
<path id="font_2_1" d="M.6349945 .2529297V.31092835H.084991458V.2529297H.6349945Z"/>
<path id="font_3_6" d="M.4850006 .13195801 .45700074 .13696289C.43598939 .08299255 .41600038 .07598877 .37599183 .07598877H.11999512C.13598633 .1279602 .19499207 .19892884 .28799439 .2658844 .38398744 .33584596 .45799256 .38082887 .45799256 .49276734 .45799256 .63168337 .3659973 .6796875 .26098634 .6796875 .12399292 .6796875 .052993776 .5967102 .052993776 .54473879 .052993776 .51075747 .09098816 .49476625 .10798645 .49476625 .12599182 .49476625 .1329956 .50476077 .13699341 .5217438 .15299988 .5897064 .19198609 .64468386 .2539978 .64468386 .33099366 .64468386 .35299684 .5797119 .35299684 .50675967 .35299684 .3998108 .29899598 .33984376 .21199036 .26289369 .08898926 .15594483 .04598999 .08798218 .026992798 .009994507L.036987306 0H.45098878L.4850006 .13195801Z"/>
<path id="font_3_5" d="M.43699647 0V.0289917L.35299684 .035995485C.33198548 .037994386 .31999208 .04598999 .31999208 .08496094V.67367556L.31498719 .6796875 .10899353 .6446991V.6197052L.20199585 .6087036C.21899414 .6067047 .22599793 .5987091 .22599793 .56973269V.08496094C.22599793 .065979007 .22299195 .053985597 .21699524 .04698181 .21199036 .039993287 .20399475 .036987306 .19299317 .035995485L.10899353 .0289917V0H.43699647Z"/>
<path id="font_1_4" d="M.5329895 .48995973C.5039978 .388031 .48799134 .33506776 .46199037 .2741089 .41799928 .173172 .33099366 .040267946 .24798584 .040267946 .21598816 .040267946 .20799256 .070251468 .22299195 .12820435L.31900025 .4970703 .31399537 .50205996 .13198853 .47375489 .12599182 .4497528 .18798828 .44476319C.21199036 .44276429 .21099854 .42778016 .20298767 .39682008L.13398743 .13316345C.11299133 .053253175 .12098694-.01171875 .20098877-.01171875 .29699708-.01171875 .4019928 .09420776 .46199037 .21005249H.46398927L.43099977 .096206668C.4119873 .029266358 .42399598-.01171875 .47698976-.01171875 .548996-.01171875 .60899356 .057250978 .6439972 .13116455L.6199951 .14613343C.59999087 .11218262 .55599978 .040267946 .5279999 .040267946 .5069885 .040267946 .5069885 .06324768 .5149994 .09420776L.621994 .5019531 .5329895 .48995973Z"/>
<path id="font_3_1" d="M.1749878 .2822113C.1749878 .56832888 .2619934 .65437319 .32499696 .66737368V.6923828C.1499939 .685379 .10499573 .46829225 .10499573 .2822113 .10499573 .09614563 .1499939-.12094116 .32499696-.12792969V-.10293579C.2669983-.090927127 .1749878-.0059051516 .1749878 .2822113Z"/>
<path id="font_3_2" d="M.1749878 .2822113C.1749878-.0059051516 .08299255-.090927127 .024993897-.10293579V-.12792969C.19999695-.12094116 .24499512 .09614563 .24499512 .2822113 .24499512 .46829225 .19999695 .685379 .024993897 .6923828V.66737368C.08799744 .65437319 .1749878 .56832888 .1749878 .2822113Z"/>
<path id="font_2_3" d="M.6349945 .14315796V.20117188H.084991458V.14315796H.6349945M.6349945 .36288453V.42089845H.084991458V.36288453H.6349945Z"/>
<path id="font_3_4" d="M.2649994 .64468386C.3600006 .64468386 .3869934 .49682618 .3869934 .33398438 .3869934 .17112732 .3600006 .023269654 .2649994 .023269654 .16999817 .023269654 .14299011 .17112732 .14299011 .33398438 .14299011 .49682618 .16999817 .64468386 .2649994 .64468386M.2649994 .6796875C.099990848 .6796875 .040985109 .53378298 .040985109 .33398438 .040985109 .13417053 .099990848-.01171875 .2649994-.01171875 .42999269-.01171875 .4889984 .13417053 .4889984 .33398438 .4889984 .53378298 .42999269 .6796875 .2649994 .6796875Z"/>
<path id="font_3_10" d="M.18998719 .7480469C.13999939 .7020416 .07199097 .6350403 .07199097 .56404116 .07199097 .5100403 .10398865 .47703553 .13699341 .4780426 .16699219 .4780426 .18499756 .4990387 .18499756 .5260315 .18499756 .56204226 .1519928 .58303835 .1519928 .6200409 .1519928 .6580353 .17599488 .6960449 .20698548 .7320404L.18998719 .7480469M.36999513 .7480469C.31999208 .7020416 .2519989 .6350403 .2519989 .56404116 .2519989 .5100403 .28399659 .47703553 .31698609 .4780426 .34700013 .4780426 .36499024 .4990387 .36499024 .5260315 .36499024 .56204226 .33198548 .58303835 .33198548 .6200409 .33198548 .6580353 .35598756 .6960449 .3869934 .7320404L.36999513 .7480469Z"/>
<path id="font_3_9" d="M.28799439 .5019531C.12799073 .5019531 .04899597 .40698243 .04899597 .24510193 .04899597 .083236698 .12799073-.01171875 .28799439-.01171875 .44999696-.01171875 .5279999 .083236698 .5279999 .24510193 .5279999 .40698243 .44999696 .5019531 .28799439 .5019531M.15299988 .24510193C.15299988 .38301087 .19699097 .46694947 .28799439 .46694947 .3809967 .46694947 .42399598 .38301087 .42399598 .24510193 .42399598 .10720825 .3809967 .023269654 .28799439 .023269654 .19699097 .023269654 .15299988 .10720825 .15299988 .24510193Z"/>
<path id="font_3_7" d="M.20098877 .45022584H.32299806V.49023438H.20098877L.19699097 .60220339C.19400025 .6971741 .22898865 .70718386 .24499512 .70718386 .2659912 .70718386 .28799439 .6971741 .31298829 .6391907 .31799317 .62919619 .32499696 .6221924 .33999635 .6221924 .3600006 .6221924 .3889923 .6391907 .3889923 .66918948 .3889923 .70217898 .34700013 .7421875 .2669983 .7421875 .21199036 .7421875 .16499329 .71717837 .13999939 .67918398 .116989139 .64419558 .10699463 .5912018 .10699463 .5252228V.49023438H.02999878V.45022584H.10699463V.087020877C.10699463 .035995485 .10398865 .033996583 .03199768 .0289917V0H.29599V.0289917C.20498657 .032989503 .20098877 .034988405 .20098877 .08602905V.45022584Z"/>
<path id="font_3_11" d="M.08898926 .47218324C.13899231 .5181732 .20698548 .58517459 .20698548 .6561737 .20698548 .71017459 .1749878 .7431793 .14199829 .7421875 .11199951 .7421875 .09399414 .72117617 .09399414 .69418337 .09399414 .6581726 .1269989 .6371765 .1269989 .60017397 .1269989 .56217959 .102996829 .5241852 .07199097 .48817445L.08898926 .47218324M.2689972 .47218324C.31900025 .5181732 .3869934 .58517459 .3869934 .6561737 .3869934 .71017459 .35499574 .7431793 .32199098 .7421875 .2919922 .7421875 .27398683 .72117617 .27398683 .69418337 .27398683 .6581726 .30699159 .6371765 .30699159 .60017397 .30699159 .56217959 .2829895 .5241852 .2519989 .48817445L.2689972 .47218324Z"/>
<path id="font_3_8" d="M.5289917 .34295655C.5289917 .4439392 .47399903 .5019531 .38198854 .5019531 .30799867 .5019531 .2619934 .46594239 .19999695 .4259491L.18598938 .5019531 .036987306 .47694398V.45195008L.07499695 .4469452C.100997928 .4429474 .10699463 .4379425 .10699463 .40194703V.08699036C.10699463 .035995485 .10398865 .033996583 .03199768 .0289917V0H.27598573V.0289917C.20498657 .033996583 .20098877 .035995485 .20098877 .08699036V.32095338C.20098877 .34596253 .20298767 .35995484 .21099854 .37594605 .23199463 .4149475 .2769928 .44795228 .32998658 .44795228 .397995 .44795228 .43499757 .40994264 .43499757 .32295228V.08699036C.43499757 .035995485 .43199159 .033996583 .3600006 .0289917V0H.60398867V.0289917C.5329895 .033996583 .5289917 .035995485 .5289917 .08699036V.34295655Z"/>
<path id="font_1_2" d="M.43499757 .15118408C.39898683 .10421753 .34498597 .03727722 .269989 .03727722 .19999695 .03727722 .1789856 .097229007 .1789856 .17616272 .1789856 .1811676 .1789856 .1851654 .17999268 .19215393 .34799195 .22613526 .42099 .26609803 .46398927 .30607606 .49899293 .3410492 .5059967 .37402345 .5059967 .4019928 .5059967 .45495606 .46398927 .5019531 .38198854 .5019531 .2919922 .5019531 .21798706 .45596314 .16299439 .3880005 .10998535 .32305909 .07998657 .23612976 .07998657 .15219116 .07998657 .012268066 .17098999-.01171875 .22898865-.01171875 .3019867-.01171875 .3899994 .02027893 .45799256 .13119507L.43499757 .15118408M.18199158 .22613526C.19898987 .3470459 .27398683 .46694947 .35398866 .46694947 .3889923 .46694947 .4119873 .44296266 .4119873 .4079895 .4119873 .3380432 .35099793 .26210023 .18199158 .22613526Z"/>
<path id="font_3_3" d="M.15899658-.0146484379 .36898805 .70703127H.3019867L.09199524-.0146484379H.15899658Z"/>
<path id="font_2_2" d="M.07998657 .28173829C.07998657 .24674988 .10798645 .21875 .14299011 .21875 .17799378 .21875 .20599365 .24674988 .20599365 .28173829 .20599365 .31674195 .17799378 .34474183 .14299011 .34474183 .10798645 .34474183 .07998657 .31674195 .07998657 .28173829Z"/>
</defs>
<path transform="matrix(1.00008,0,0,-1.00009,71.512,53.393365)" d="M-70.016-23.95287V51.59074H18.42523V-23.95287ZM18.42523 51.59074" fill="#d9d9ff"/>
<path transform="matrix(1.00008,0,0,-1.00009,71.512,53.393365)" d="M18.42523-23.95287V51.59074H70.016V-23.95287ZM70.016 51.59074" fill="#d9f0d9"/>
<use data-text="c" xlink:href="#font_1_1" transform="matrix(9.166333,0,0,-9.166425,87.55728,74.225238)"/>
<path transform="matrix(1.00008,0,0,-1.00009,71.512,53.393365)" stroke-width=".3985" stroke-linecap="butt" stroke-miterlimit="10" stroke-linejoin="miter" fill="none" stroke="#000000" d="M-70.016 0H69.55772"/>
<path transform="matrix(1.00008,0,0,-1.00009,141.07529,53.393365)" stroke-width=".31879" stroke-linecap="round" stroke-linejoin="round" fill="none" stroke="#000000" d="M-1.19551 1.59401C-1.09587 .99626 0 .09961 .29886 0 0-.09961-1.09587-.99626-1.19551-1.59401"/>
<path transform="matrix(1.00008,0,0,-1.00009,71.512,53.393365)" stroke-width=".3985" stroke-linecap="butt" stroke-miterlimit="10" stroke-linejoin="miter" fill="none" stroke="#000000" d="M0-23.95287V51.13248"/>
<path transform="matrix(0,-1.00009,-1.00008,-0,71.512,2.2562829)" stroke-width=".31879" stroke-linecap="round" stroke-linejoin="round" fill="none" stroke="#000000" d="M-1.19551 1.59401C-1.09587 .99626 0 .09961 .29886 0 0-.09961-1.09587-.99626-1.19551-1.59401"/>
<use data-text="t" xlink:href="#font_1_3" transform="matrix(7.3330867,0,0,-7.33316,138.12934,61.312078)"/>
<path transform="matrix(1.00008,0,0,-1.00009,71.512,53.393365)" stroke-width=".3985" stroke-linecap="butt" stroke-miterlimit="10" stroke-linejoin="miter" fill="none" stroke="#929292" d="M-36.85048 1.29514V-1.29514"/>
<use data-text="&#x2212;" xlink:href="#font_2_1" transform="matrix(7.3330867,0,0,-7.33316,30.075684,62.99823)"/>
<use data-text="2" xlink:href="#font_3_6" transform="matrix(7.3330867,0,0,-7.33316,35.352098,62.99823)"/>
<path transform="matrix(1.00008,0,0,-1.00009,71.512,53.393365)" stroke-width=".3985" stroke-linecap="butt" stroke-miterlimit="10" stroke-linejoin="miter" fill="none" stroke="#929292" d="M-18.42523 1.29514V-1.29514"/>
<use data-text="&#x2212;" xlink:href="#font_2_1" transform="matrix(7.3330867,0,0,-7.33316,48.50216,62.99823)"/>
<use data-text="1" xlink:href="#font_3_5" transform="matrix(7.3330867,0,0,-7.33316,53.778573,62.99823)"/>
<path transform="matrix(1.00008,0,0,-1.00009,71.512,53.393365)" stroke-width=".3985" stroke-linecap="butt" stroke-miterlimit="10" stroke-linejoin="miter" fill="none" stroke="#929292" d="M18.42523 1.29514V-1.29514"/>
<use data-text="1" xlink:href="#font_3_5" transform="matrix(7.3330867,0,0,-7.33316,87.99332,62.99823)"/>
<path transform="matrix(1.00008,0,0,-1.00009,71.512,53.393365)" stroke-width=".3985" stroke-linecap="butt" stroke-miterlimit="10" stroke-linejoin="miter" fill="none" stroke="#929292" d="M36.85048 1.29514V-1.29514"/>
<use data-text="2" xlink:href="#font_3_6" transform="matrix(7.3330867,0,0,-7.33316,106.42079,62.99823)"/>
<path transform="matrix(1.00008,0,0,-1.00009,71.512,53.393365)" stroke-width=".3985" stroke-linecap="butt" stroke-miterlimit="10" stroke-linejoin="miter" fill="none" stroke="#929292" d="M18.42523 1.29514V-1.29514"/>
<path transform="matrix(1.00008,0,0,-1.00009,71.512,53.393365)" stroke-width=".3985" stroke-linecap="butt" stroke-miterlimit="10" stroke-linejoin="miter" fill="none" stroke="#929292" d="M1.29514-18.42523H-1.29514"/>
<use data-text="&#x2212;" xlink:href="#font_2_1" transform="matrix(7.3330867,0,0,-7.33316,57.650896,74.27524)"/>
<use data-text="1" xlink:href="#font_3_5" transform="matrix(7.3330867,0,0,-7.33316,62.927309,74.27524)"/>
<path transform="matrix(1.00008,0,0,-1.00009,71.512,53.393365)" stroke-width=".3985" stroke-linecap="butt" stroke-miterlimit="10" stroke-linejoin="miter" fill="none" stroke="#929292" d="M1.29514 18.42523H-1.29514"/>
<use data-text="1" xlink:href="#font_3_5" transform="matrix(7.3330867,0,0,-7.33316,62.927316,37.42193)"/>
<path transform="matrix(1.00008,0,0,-1.00009,71.512,53.393365)" stroke-width=".3985" stroke-linecap="butt" stroke-miterlimit="10" stroke-linejoin="miter" fill="none" stroke="#929292" d="M1.29514 18.42523H-1.29514"/>
<path transform="matrix(1.00008,0,0,-1.00009,71.512,53.393365)" stroke-width=".3985" stroke-linecap="butt" stroke-dasharray="2.98883,2.98883" stroke-miterlimit="10" stroke-linejoin="miter" fill="none" stroke="#009900" d="M-70.016 18.42523H-69.5718-69.12758-68.68335-68.23915-67.79494-67.35072-66.90651-66.4623-66.01808-65.57388-65.12965-64.68544-64.24124-63.79703-63.35281-62.9086-62.46439-62.02017-61.57597-61.13176-60.68753-60.24332-59.79912-59.3549-58.91069-58.46648-58.02226-57.57805-57.13385-56.68964-56.2454-55.80121-55.357-54.91278-54.46857-54.02435-53.58014-53.13594-52.69173-52.2475-51.8033-51.35907-50.91487-50.47066-50.02643-49.58223-49.13802-48.6938-48.2496-47.80537-47.36116-46.91696-46.47275-46.02853-45.58432-45.1401-44.69589-44.2517-43.80748-43.36325-42.91904-42.47484-42.03062-41.5864-41.1422-40.69798-40.25377-39.80957-39.36534-38.92113-38.47693-38.03271-37.5885-37.14429-36.70007-36.25586-35.81166-35.36745-34.92322-34.47902-34.03479-33.59059-33.14638-32.70215-32.25795-31.81374-31.36952-30.92532-30.4811-30.03688-29.59268-29.14847-28.70424-28.26004-27.81583-27.37161-26.92741-26.48318-26.03897-25.59476-25.15056-24.70634-24.26212-23.81792-23.3737-22.92949-22.48529-22.04106-21.59685-21.15265-20.70844-20.26422-19.82-19.3758-18.93158-18.48738-18.04317-17.59894-17.15474-16.71051-16.26631-15.82208-15.37787-14.93367-14.48946-14.04524-13.60103-13.15681-12.7126-12.2684-11.82419-11.37996-10.93576-10.49155-10.04733-9.60313-9.1589-8.71469-8.27048-7.82628-7.38206-6.93784-6.49364-6.04942-5.60521-5.16101-4.71678-4.27257-3.82837-3.38416-2.93993-2.49573-2.05151-1.6073-1.16309-.71887-.27466 .16951 .61372 1.05792 1.50217 1.94637 2.39056 2.8348 3.27899 3.72322 4.16743 4.61163 5.05585 5.50006 5.94427 6.38849 6.8327 7.2769 7.72113 8.16534 8.60954 9.05376 9.49797 9.94218 10.3864 10.83061 11.27483 11.71902 12.16325 12.60747 13.05167 13.49588 13.9401 14.38431 14.82852 15.27274 15.71693 16.16115 16.60538 17.04958 17.49379 17.938 18.3822"/>
<path transform="matrix(1.00008,0,0,-1.00009,71.512,53.393365)" stroke-width="1.19553" stroke-linecap="butt" stroke-miterlimit="10" stroke-linejoin="miter" fill="none" stroke="#009900" d="M-70.016 .02641-69.5718 .02922-69.12758 .03203-68.68335 .03485-68.23915 .03821-67.79494 .04214-67.35072 .04608-66.90651 .05002-66.4623 .05452-66.01808 .05959-65.57388 .06522-65.12965 .07083-64.68544 .07758-64.24124 .08432-63.79703 .09163-63.35281 .0995-62.9086 .10794-62.46439 .11751-62.02017 .12761-61.57597 .1383-61.13176 .14955-60.68753 .16193-60.24332 .17542-59.79912 .19003-59.3549 .20522-58.91069 .22208-58.46648 .23952-58.02226 .25864-57.57805 .27888-57.13385 .30081-56.68964 .32385-56.2454 .3486-55.80121 .37221-55.357 .40146-54.91278 .4307-54.46857 .46388-54.02435 .49706-53.58014 .53416-53.13594 .57465-52.69173 .61513-52.2475 .65956-51.8033 .70735-51.35907 .75516-50.91487 .80687-50.47066 .86197-50.02643 .92102-49.58223 .984-49.13802 1.05034-48.6938 1.12007-48.2496 1.19373-47.80537 1.27133-47.36116 1.3523-46.91696 1.43721-46.47275 1.52942-46.02853 1.62502-45.58432 1.72453-45.1401 1.83138-44.69589 1.94214-44.2517 2.06023-43.80748 2.18169-43.36325 2.31102-42.91904 2.44371-42.47484 2.58372-42.03062 2.73105-41.5864 2.88567-41.1422 3.04425-40.69798 3.21405-40.25377 3.38724-39.80957 3.5711-39.36534 3.75949-38.92113 3.95853-38.47693 4.16095-38.03271 4.37462-37.5885 4.59955-37.14429 4.8284-36.70007 5.06793-36.25586 5.31479-35.81166 5.57289-35.36745 5.83829-34.92322 6.11493-34.47902 6.39832-34.03479 6.68959-33.59059 6.99548-33.14638 7.3053-32.70215 7.62975-32.25795 7.95757-31.81374 8.30057-31.36952 8.65088-30.92532 9.01187-30.4811 9.38017-30.03688 9.76028-29.59268 10.14714-29.14847 10.54524-28.70424 10.95067-28.26004 11.36732-27.81583 11.79073-27.37161 12.22594-26.92741 12.66847-26.48318 13.11775-26.03897 13.57883-25.59476 14.04327-25.15056 14.51842-24.70634 14.99805-24.26212 15.48781-23.81792 15.98206-23.3737 16.48308-22.92949 16.99194-22.48529 17.5042-22.04106 18.02039-21.59685 18.54388-21.15265 19.07076-20.70844 19.59761-20.26422 20.13237-19.82 20.66653-19.3758 21.20128-18.93158 21.73938-18.48738 22.28145-18.04317 22.81956-17.59894 23.35768-17.15474 23.8958-16.71051 24.42996-16.26631 24.96077-15.82208 25.49158-15.37787 26.01901-14.93367 26.53857-14.48946 27.05475-14.04524 27.56308-13.60103 28.06801-13.15681 28.56227-12.7126 29.05258-12.2684 29.53168-11.82419 29.9995-11.37996 30.45663-10.93576 30.90648-10.49155 31.34114-10.04733 31.76509-9.60313 32.17783-9.1589 32.57593-8.71469 32.95547-8.27048 33.32434-7.82628 33.67802-7.38206 34.01709-6.93784 34.33423-6.49364 34.63675-6.04942 34.92406-5.60521 35.18947-5.16101 35.44026-4.71678 35.66855-4.27257 35.88222-3.82837 36.07059-3.38416 36.23984-2.93993 36.3911-2.49573 36.51985-2.05151 36.63062-1.6073 36.71892-1.16309 36.78525-.71887 36.82968-.27466 36.85555H.16951L.61372 36.837 1.05792 36.79652 1.50217 36.73746 1.94637 36.65256 2.39056 36.54965 2.8348 36.42427 3.27899 36.28032 3.72322 36.11444 4.16743 35.92665 4.61163 35.72026 5.05585 35.49535 5.50006 35.25188 5.94427 34.99042 6.38849 34.70645 6.8327 34.40788 7.2769 34.09131 7.72113 33.75955 8.16534 33.40924 8.60954 33.04433 9.05376 32.66814 9.49797 32.27397 9.94218 31.86462 10.3864 31.44458 10.83061 31.00937 11.27483 30.56348 11.71902 30.11026 12.16325 29.64188 12.60747 29.16673 13.05167 28.67978 13.49588 28.1861 13.9401 27.68509 14.38431 27.17622 14.82852 26.66002 15.27274 26.14047 15.71693 25.61699 16.16115 25.0901 16.60538 24.55537 17.04958 24.02118 17.49379 23.48306 17.938 22.94832 18.3822 22.40685"/>
<path transform="matrix(1.00008,0,0,-1.00009,71.512,53.393365)" stroke-width=".3985" stroke-linecap="butt" stroke-dasharray="2.98883,2.98883" stroke-miterlimit="10" stroke-linejoin="miter" fill="none" stroke="#8080ff" d="M18.42523 22.3551 18.68445 22.04192 18.94366 21.72815 19.20288 21.41159 19.4621 21.09781 19.72133 20.78462 19.98055 20.47144 20.23976 20.1616 20.49898 19.84839 20.7582 19.53914 21.01741 19.22931 21.27663 18.92343 21.53584 18.6136 21.79506 18.30771 22.05428 18.00577 22.3135 17.70325 22.57271 17.4013 22.83194 17.10272 23.09114 16.80751 23.35037 16.50894 23.60957 16.21768 23.8688 15.9264 24.12802 15.63568 24.38724 15.34781 24.64645 15.06439 24.90567 14.78383 25.16489 14.5038 25.4241 14.22377 25.68332 13.95107 25.94255 13.67834 26.20175 13.409 26.46098 13.14023 26.72018 12.87819 26.97942 12.61674 27.23862 12.35864 27.49785 12.10056 27.75706 11.84976 28.01628 11.59955 28.2755 11.35213 28.53471 11.10922 28.79395 10.86967 29.05315 10.63016 29.31238 10.39792 29.5716 10.1657 29.83081 9.93684 30.09003 9.71193 30.34924 9.49094 30.60846 9.27333 30.86768 9.05629 31.12689 8.846 31.38612 8.6357 31.64532 8.43326 31.90456 8.23029 32.16376 8.03123 32.42299 7.8361 32.68219 7.64436 32.94142 7.45262 33.20064 7.26819 33.45985 7.08432 33.71907 6.90721 33.97829 6.73007 34.2375 6.5569 34.49672 6.38763 34.75594 6.21783 35.01517 6.0559 35.27437 5.89731 35.5336 5.73875 35.7928 5.58412 36.05203 5.43286 36.31123 5.28554 36.57047 5.14159 36.82968 4.99765 37.0889 4.85764 37.34813 4.72156 37.60733 4.58887 37.86656 4.45953 38.12576 4.33078 38.385 4.20538 38.64421 4.08392 38.90343 3.96584 39.16264 3.84776 39.42186 3.73361 39.68108 3.62285 39.94029 3.516 40.19951 3.40916 40.45874 3.30571 40.71794 3.20618 40.97717 3.10666 41.23637 3.01106 41.4956 2.91547 41.7548 2.82663 42.01404 2.73442 42.27324 2.65007 42.53247 2.56516 42.79169 2.48419 43.0509 2.40266 43.31012 2.32564 43.56934 2.24803 43.82855 2.17438 44.08777 2.10408 44.34698 2.03436 44.60622 1.96407 44.86542 1.89774 45.12465 1.83531 45.38385 1.77232 45.64308 1.71385 45.90228 1.6548 46.16151 1.59578 46.42075 1.5401 46.67995 1.485 46.93918 1.43326 47.19838 1.3821 47.45761 1.33374 47.71681 1.28595 47.97604 1.24208 48.23526 1.19373 48.49448 1.15324 48.7537 1.10939 49.01291 1.06834 49.27213 1.0318 49.53134 .9913 49.79056 .9542 50.04979 .91765 50.30899 .88448 50.56822 .85129 50.82742 .81812 51.08665 .78831 51.34586 .75516 51.60509 .7259 51.8643 .70004 52.12352 .67023 52.38274 .64494 52.64195 .61906 52.90117 .59657 53.16039 .57071 53.4196 .54878 53.67883 .52684 53.93803 .50493 54.19727 .48636 54.45647 .46388 54.7157 .44588 54.9749 .42732 55.23413 .40877 55.49336 .39415 55.75256 .3756 56.0118 .36267 56.271 .34747 56.53023 .33286 56.78943 .3188 57.04866 .30475 57.30788 .29181 57.5671 .27945 57.82631 .26707 58.08553 .25581 58.34474 .24458 58.60396 .23389 58.86317 .22379 59.1224 .21365 59.3816 .2041 59.64084 .1951 59.90004 .18666 60.15927 .17824 60.41847 .17036 60.6777 .16249 60.93692 .15517 61.19614 .14786 61.45535 .14111 61.71457 .13492 61.97379 .12819 62.233 .12256 62.49222 .11694 62.75143 .11131 63.01065 .10625 63.26988 .1012 63.52908 .09613 63.78831 .09163 64.04753 .08713 64.30675 .0832 64.56596 .07925 64.82518 .07533 65.08441 .07138 65.34361 .06802 65.60284 .06465 65.86205 .06183 66.12128 .05846 66.38048 .05565 66.63971 .05284 66.89893 .05002 67.15814 .04778 67.41736 .04552 67.67657 .04327 67.93579 .04103 68.195 .03877 68.45422 .03653 68.71346 .03485 68.97266 .03316 69.23189 .03146 69.49109 .02977 69.75032 .0281 70.00952 .02641"/>
<path transform="matrix(1.00008,0,0,-1.00009,71.512,53.393365)" stroke-width="1.19553" stroke-linecap="butt" stroke-miterlimit="10" stroke-linejoin="miter" fill="none" stroke="#0000ff" d="M19.5307 0H19.7843 20.03789 20.29149 20.54509 20.79869 21.05228 21.30586 21.55946 21.81305 22.06665 22.32025 22.57384 22.82744 23.08104 23.33463 23.58821 23.84181 24.0954 24.349 24.6026 24.8562 25.10979 25.36339 25.61699 25.87056 26.12416 26.37776 26.63135 26.88495 27.13855 27.39214 27.64574 27.89934 28.15292 28.40651 28.66011 28.91371 29.1673 29.4209 29.6745 29.92809 30.18169 30.43529 30.68886 30.94246 31.19606 31.44965 31.70325 31.95685 32.21043 32.46404 32.71764 32.97122 33.22481 33.47841 33.73201 33.9856 34.2392 34.4928 34.74638 34.99998 35.25357 35.50716 35.76076 36.01436 36.26794 36.52155 36.77515 37.02875 37.28233 37.53593 37.78952 38.0431 38.2967 38.55031 38.8039 39.0575 39.3111 39.56468 39.81828 40.07187 40.32545 40.57906 40.83266 41.08626 41.33984 41.59344 41.84705 42.10063 42.35422 42.60782 42.8614 43.115 43.3686 43.6222 43.8758 44.1294 44.38298 44.63657 44.89017 45.14377 45.39735 45.65096 45.90456 46.15814 46.41174 46.66534 46.91891 47.17252 47.42612 47.6797 47.9333 48.1869 48.44049 48.69409 48.9477 49.2013 49.45486 49.70847 49.96207 50.21565 50.46925 50.72285 50.97644 51.23004 51.48364 51.73721 51.99081 52.24442 52.498 52.7516 53.0052 53.2588 53.51239 53.76599 54.01958 54.27316 54.52676 54.78036 55.03395 55.28755 55.54115 55.79474 56.04834 56.30193 56.55551 56.80911 57.06271 57.31631 57.5699 57.8235 58.0771 58.33069 58.58429 58.83788 59.09146 59.34506 59.59866 59.85225 60.10585 60.35945 60.61304 60.86664 61.12022 61.37383 61.62741 61.88101 62.13461 62.3882 62.6418 62.8954 63.14899 63.40257 63.65617 63.90976 64.16336 64.41696 64.67055 64.92415 65.17775 65.43135 65.68492 65.93852 66.19212 66.44571 66.69931 66.95291 67.2065 67.46008 67.7137 67.96729 68.22087 68.47447 68.72806 68.98166 69.23526 69.48885 69.74245 69.99605"/>
<path transform="matrix(1.00008,0,0,-1.00009,71.512,53.393365)" stroke-width="1.19553" stroke-linecap="butt" stroke-miterlimit="10" stroke-linejoin="miter" fill="none" stroke="#0000ff" d="M20.36795 0C20.36795 1.07294 19.49817 1.94272 18.42523 1.94272 17.3523 1.94272 16.48251 1.07294 16.48251 0 16.48251-1.07294 17.3523-1.94272 18.42523-1.94272 19.49817-1.94272 20.36795-1.07294 20.36795 0ZM18.42523 0"/>
<path transform="matrix(1.00008,0,0,-1.00009,71.512,53.393365)" d="M20.36795 22.3551C20.36795 23.42805 19.49817 24.29784 18.42523 24.29784 17.3523 24.29784 16.48251 23.42805 16.48251 22.3551 16.48251 21.28217 17.3523 20.41238 18.42523 20.41238 19.49817 20.41238 20.36795 21.28217 20.36795 22.3551ZM18.42523 22.3551" fill="#009900"/>
<use data-text="1" xlink:href="#font_3_5" transform="matrix(7.3330867,0,0,-7.33316,9.028,30.638316)" fill="#009900"/>
<use data-text="&#x2212;" xlink:href="#font_2_1" transform="matrix(7.3330867,0,0,-7.33316,13.89238,30.638316)" fill="#009900"/>
<use data-text="u" xlink:href="#font_1_4" transform="matrix(7.3330867,0,0,-7.33316,20.142884,30.638316)" fill="#009900"/>
<use data-text="(" xlink:href="#font_3_1" transform="matrix(7.3330867,0,0,-7.33316,25.076279,30.638316)" fill="#009900"/>
<use data-text="t" xlink:href="#font_1_3" transform="matrix(7.3330867,0,0,-7.33316,27.80249,30.638316)" fill="#009900"/>
<use data-text=")" xlink:href="#font_3_2" transform="matrix(7.3330867,0,0,-7.33316,31.086747,30.638316)" fill="#009900"/>
<use data-text="=" xlink:href="#font_2_3" transform="matrix(7.3330867,0,0,-7.33316,35.01706,30.638316)" fill="#009900"/>
<use data-text="1" xlink:href="#font_3_5" transform="matrix(7.3330867,0,0,-7.33316,41.657594,30.638316)" fill="#009900"/>
<use data-text="1" xlink:href="#font_3_5" transform="matrix(7.3330867,0,0,-7.33316,97.476078,49.065977)" fill="#0000ff"/>
<use data-text="&#x2212;" xlink:href="#font_2_1" transform="matrix(7.3330867,0,0,-7.33316,102.340457,49.065977)" fill="#0000ff"/>
<use data-text="u" xlink:href="#font_1_4" transform="matrix(7.3330867,0,0,-7.33316,108.59096,49.065977)" fill="#0000ff"/>
<use data-text="(" xlink:href="#font_3_1" transform="matrix(7.3330867,0,0,-7.33316,113.52435,49.065977)" fill="#0000ff"/>
<use data-text="t" xlink:href="#font_1_3" transform="matrix(7.3330867,0,0,-7.33316,116.250568,49.065977)" fill="#0000ff"/>
<use data-text=")" xlink:href="#font_3_2" transform="matrix(7.3330867,0,0,-7.33316,119.53482,49.065977)" fill="#0000ff"/>
<use data-text="=" xlink:href="#font_2_3" transform="matrix(7.3330867,0,0,-7.33316,123.46513,49.065977)" fill="#0000ff"/>
<use data-text="0" xlink:href="#font_3_4" transform="matrix(7.3330867,0,0,-7.33316,130.10567,49.065977)" fill="#0000ff"/>
<use data-text="&#x201c;" xlink:href="#font_3_10" transform="matrix(7.3330867,0,0,-7.33316,37.963319,73.90921)" fill="#009900"/>
<use data-text="o" xlink:href="#font_3_9" transform="matrix(7.3330867,0,0,-7.33316,40.73523,73.90921)" fill="#009900"/>
<use data-text="f" xlink:href="#font_3_7" transform="matrix(7.3330867,0,0,-7.33316,44.96643,73.90921)" fill="#009900"/>
<use data-text="f" xlink:href="#font_3_7" transform="matrix(7.3330867,0,0,-7.33316,47.30568,73.90921)" fill="#009900"/>
<use data-text="&#x201d;" xlink:href="#font_3_11" transform="matrix(7.3330867,0,0,-7.33316,50.106904,73.90921)" fill="#009900"/>
<use data-text="&#x201c;" xlink:href="#font_3_10" transform="matrix(7.3330867,0,0,-7.33316,108.58597,73.90921)" fill="#0000ff"/>
<use data-text="o" xlink:href="#font_3_9" transform="matrix(7.3330867,0,0,-7.33316,111.35788,73.90921)" fill="#0000ff"/>
<use data-text="n" xlink:href="#font_3_8" transform="matrix(7.3330867,0,0,-7.33316,115.58908,73.90921)" fill="#0000ff"/>
<use data-text="&#x201d;" xlink:href="#font_3_11" transform="matrix(7.3330867,0,0,-7.33316,119.53427,73.90921)" fill="#0000ff"/>
<use data-text="2" xlink:href="#font_3_6" transform="matrix(9.166333,0,0,-9.166425,99.29322,31.487393)"/>
<use data-text="e" xlink:href="#font_1_2" transform="matrix(9.166333,0,0,-9.166425,104.1556,31.487393)"/>
<use data-text="&#x2212;" xlink:href="#font_2_1" transform="matrix(6.9664576,0,0,-6.966527,108.978008,27.871068)"/>
<use data-text="t" xlink:href="#font_1_3" transform="matrix(3.7426995,0,0,-3.7427369,114.072399,26.322926)"/>
<use data-text="2" xlink:href="#font_3_6" transform="matrix(2.8444274,0,0,-2.844456,115.74853,24.845795)"/>
<use data-text="/" xlink:href="#font_3_3" transform="matrix(6.9664576,0,0,-6.966527,117.38467,27.871068)"/>
<use data-text="2" xlink:href="#font_3_6" transform="matrix(3.7426995,0,0,-3.7427369,119.84788,27.871068)"/>
<use data-text="&#x00b7;" xlink:href="#font_2_2" transform="matrix(9.166333,0,0,-9.166425,123.548168,31.487393)"/>
<use data-text="0" xlink:href="#font_3_4" transform="matrix(9.166333,0,0,-9.166425,127.31646,31.487393)" fill="#0000ff"/>
<use data-text="2" xlink:href="#font_3_6" transform="matrix(9.166333,0,0,-9.166425,29.271622,13.743797)"/>
<use data-text="e" xlink:href="#font_1_2" transform="matrix(9.166333,0,0,-9.166425,34.134004,13.743797)"/>
<use data-text="&#x2212;" xlink:href="#font_2_1" transform="matrix(6.9664576,0,0,-6.966527,38.956407,10.127472)"/>
<use data-text="t" xlink:href="#font_1_3" transform="matrix(3.7426995,0,0,-3.7427369,44.050798,8.57933)"/>
<use data-text="2" xlink:href="#font_3_6" transform="matrix(2.8444274,0,0,-2.844456,45.72693,7.1021997)"/>
<use data-text="/" xlink:href="#font_3_3" transform="matrix(6.9664576,0,0,-6.966527,47.363069,10.127472)"/>
<use data-text="2" xlink:href="#font_3_6" transform="matrix(3.7426995,0,0,-3.7427369,49.82628,10.127472)"/>
<use data-text="&#x00b7;" xlink:href="#font_2_2" transform="matrix(9.166333,0,0,-9.166425,53.526567,13.743797)"/>
<use data-text="1" xlink:href="#font_3_5" transform="matrix(9.166333,0,0,-9.166425,57.29486,13.743797)" fill="#009900"/>
</svg>
