<svg xmlns="http://www.w3.org/2000/svg" xmlns:xlink="http://www.w3.org/1999/xlink" version="1.1" width="272" height="219" viewBox="0 0 272 219">
<defs>
<path id="font_1_4" d="M.2649994 .64468386C.3600006 .64468386 .3869934 .49682618 .3869934 .33398438 .3869934 .17112732 .3600006 .023269654 .2649994 .023269654 .16999817 .023269654 .14299011 .17112732 .14299011 .33398438 .14299011 .49682618 .16999817 .64468386 .2649994 .64468386M.2649994 .6796875C.099990848 .6796875 .040985109 .53378298 .040985109 .33398438 .040985109 .13417053 .099990848-.01171875 .2649994-.01171875 .42999269-.01171875 .4889984 .13417053 .4889984 .33398438 .4889984 .53378298 .42999269 .6796875 .2649994 .6796875Z"/>
<path id="font_1_3" d="M.1329956-.01171875C.17199707-.01171875 .19499207 .015274048 .19599915 .05126953 .19599915 .088272098 .17199707 .11627197 .1329956 .11627197 .09498596 .11627197 .069992069 .088272098 .069992069 .05126953 .069992069 .015274048 .09498596-.01171875 .1329956-.01171875Z"/>
<path id="font_1_9" d="M.42599488 .5919647 .44999696 .6599579 .44499208 .66796877H.11099243L.100997928 .65896609 .08099365 .32388307 .10499573 .31188966C.14698792 .35983277 .18798828 .3828125 .24198914 .3828125 .30599977 .3828125 .37599183 .3358612 .37599183 .20404053 .37599183 .10116577 .33399964 .023269654 .24699402 .023269654 .1769867 .023269654 .14099121 .07420349 .12098694 .13113404 .115997318 .14611817 .10699463 .15510559 .09298706 .15510559 .07299805 .15510559 .039993287 .13513184 .039993287 .10217285 .039993287 .056228639 .10998535-.01171875 .23999024-.01171875 .40499879-.01171875 .47999574 .0881958 .47999574 .21502686 .47999574 .35484315 .3919983 .4268036 .272995 .4268036 .21798706 .4268036 .15899658 .4028015 .1269989 .3738098L.125 .37580873 .147995 .56292727C.15098572 .58795168 .1579895 .5919647 .1769867 .5919647H.42599488Z"/>
<path id="font_1_5" d="M.43699647 0V.0289917L.35299684 .035995485C.33198548 .037994386 .31999208 .04598999 .31999208 .08496094V.67367556L.31498719 .6796875 .10899353 .6446991V.6197052L.20199585 .6087036C.21899414 .6067047 .22599793 .5987091 .22599793 .56973269V.08496094C.22599793 .065979007 .22299195 .053985597 .21699524 .04698181 .21199036 .039993287 .20399475 .036987306 .19299317 .035995485L.10899353 .0289917V0H.43699647Z"/>
<path id="font_1_6" d="M.4850006 .13195801 .45700074 .13696289C.43598939 .08299255 .41600038 .07598877 .37599183 .07598877H.11999512C.13598633 .1279602 .19499207 .19892884 .28799439 .2658844 .38398744 .33584596 .45799256 .38082887 .45799256 .49276734 .45799256 .63168337 .3659973 .6796875 .26098634 .6796875 .12399292 .6796875 .052993776 .5967102 .052993776 .54473879 .052993776 .51075747 .09098816 .49476625 .10798645 .49476625 .12599182 .49476625 .1329956 .50476077 .13699341 .5217438 .15299988 .5897064 .19198609 .64468386 .2539978 .64468386 .33099366 .64468386 .35299684 .5797119 .35299684 .50675967 .35299684 .3998108 .29899598 .33984376 .21199036 .26289369 .08898926 .15594483 .04598999 .08798218 .026992798 .009994507L.036987306 0H.45098878L.4850006 .13195801Z"/>
<path id="font_1_7" d="M.12998963 .3657837C.12998963 .3487854 .1349945 .33779908 .147995 .33779908 .1599884 .33779908 .18699646 .34777833 .23498535 .34777833 .31999208 .34777833 .36799623 .27090455 .36799623 .18403626 .36799623 .065216068 .30899049 .023269654 .23799134 .023269654 .17199707 .023269654 .1289978 .07319641 .10998535 .12911988 .10398865 .14808655 .09399414 .15707398 .07998657 .15707398 .06199646 .15707398 .026992798 .13809204 .026992798 .10215759 .026992798 .05921936 .09599304-.01171875 .23699951-.01171875 .38198854-.01171875 .47299195 .06121826 .47299195 .18902588 .47299195 .32281495 .35798646 .3627777 .30299378 .3677826V.3717804C.35699464 .38078309 .44400025 .4207611 .44400025 .5197296 .44400025 .6306915 .35699464 .6796875 .25 .6796875 .117996219 .6796875 .052993776 .60369876 .052993776 .5607147 .052993776 .5297241 .08799744 .51272585 .101989749 .51272585 .114990238 .51272585 .12298584 .5197296 .1269989 .5327301 .14898682 .60069277 .18699646 .64468386 .24299622 .64468386 .32199098 .64468386 .34098817 .57470706 .34098817 .51872256 .34098817 .4587555 .31999208 .38378907 .23498535 .38378907 .18699646 .38378907 .1599884 .39378358 .147995 .39378358 .1349945 .39378358 .12998963 .38378907 .12998963 .3657837Z"/>
<path id="font_1_8" d="M.2999878 .17871094V.0769043C.2999878 .04296875 .2889862 .036987306 .2649994 .034988405L.20098877 .0289917V0H.46499635V.0289917L.41999818 .033981325C.39698792 .036987306 .3899994 .04296875 .3899994 .0769043V.17871094H.49299623V.22570801H.3899994V.66796877H.31698609C.22299195 .5298767 .11099243 .35577394 .018997193 .19970703L.027999878 .17871094H.2999878M.09098816 .22570801C.15098572 .33476258 .22099304 .4498291 .2979889 .5709076H.2999878V.22570801H.09098816Z"/>
<clipPath id="clip_2">
<path transform="matrix(1.0001,0,0,-1.00002,72.56386,183.30542)" d="M0 0H194.27216V161.39775H0Z"/>
</clipPath>
<path id="font_3_2" d="M.42799378 .45222474 .43899537 .49023438H.31199647L.34599305 .6092224 .33399964 .6162262 .23699951 .53923037 .22399903 .49023438H.14299011L.13198853 .45222474H.21499634L.125 .08627319C.10998535 .029266358 .12199402-.01171875 .17199707-.01171875 .2519989-.01171875 .31599427 .054275514 .35598756 .1292572L.33399964 .1462555C.31098939 .10726929 .2599945 .040267946 .22898865 .040267946 .20799256 .040267946 .20799256 .0632782 .21398926 .088272098L.30299378 .45222474H.42799378Z"/>
<path id="font_3_4" d="M.070999149 .45393373 .07398987 .42893983 .14199829 .43093873C.1639862 .43193055 .16899109 .41493226 .1769867 .36291505 .18798828 .28489686 .20999146 .09286499 .20999146 .0128479 .20999146-.017166138 .20799256-.058166505 .18598938-.11117554 .16799927-.15318299 .14199829-.18218994 .12199402-.18218994 .10699463-.18218994 .09599304-.17118836 .08099365-.15118408 .068984989-.13517761 .06098938-.127182 .04598999-.127182 .019989014-.12818909-.005004883-.15818787-.005004883-.18719483-.005004883-.21418762 .023986817-.2421875 .067993167-.2421875 .15299988-.2421875 .18998719-.17919922 .27799989-.027160645 .2979889 .0068511965 .35798646 .11286926 .41999818 .21488953 .47698976 .30891419 .5399933 .40592958 .5399933 .4459381 .5399933 .48094178 .5289917 .5019531 .5219879 .5019531 .5029907 .5019531 .46899415 .49394227 .44400025 .47694398 .44499208 .4419403 .44299317 .3809204 .43099977 .33891297 .4149933 .28289796 .35598756 .17488098 .2899933 .06085205H.2869873C.27999879 .21388245 .26098634 .42492677 .24699402 .49795533L.23899842 .5019531 .070999149 .45393373Z"/>
<path id="font_1_13" d="M.05999756 .045333864C.10398865 .004348755 .18699646-.0146484379 .25698854-.0146484379 .43399049-.0146484379 .5039978 .08631897 .5039978 .18826294 .5039978 .30619813 .42399598 .36218263 .30699159 .40515138L.2749939 .41714479C.20799256 .44213868 .1519928 .48512269 .1519928 .5450897 .1519928 .61805728 .19599915 .6720276 .27999879 .6720276 .3659973 .6720276 .4139862 .6230469 .42999269 .5220947H.46099855V.6630249C.4269867 .6900177 .35899354 .70703127 .29100038 .70703127 .16899109 .70703127 .06098938 .64604189 .06098938 .5140991 .06098938 .40914918 .14498902 .354187 .25 .3171997L.2679901 .31019593C.31199647 .2932129 .40699769 .24723816 .40699769 .15827942 .40699769 .0723114 .35198976 .020339966 .2630005 .020339966 .16899109 .020339966 .10699463 .093307498 .08198547 .20524597H.049987794L.05999756 .045333864Z"/>
<path id="font_1_22" d="M.28799439 .5019531C.12799073 .5019531 .04899597 .40698243 .04899597 .24510193 .04899597 .083236698 .12799073-.01171875 .28799439-.01171875 .44999696-.01171875 .5279999 .083236698 .5279999 .24510193 .5279999 .40698243 .44999696 .5019531 .28799439 .5019531M.15299988 .24510193C.15299988 .38301087 .19699097 .46694947 .28799439 .46694947 .3809967 .46694947 .42399598 .38301087 .42399598 .24510193 .42399598 .10720825 .3809967 .023269654 .28799439 .023269654 .19699097 .023269654 .15299988 .10720825 .15299988 .24510193Z"/>
<path id="font_1_20" d="M.18899536 .7361908 .18199158 .7421875 .024993897 .71717837V.6921692L.06298828 .6881714C.08898926 .6851654 .09498596 .6801758 .09498596 .6421509V.087005618C.09498596 .035995485 .09199524 .033996583 .019989014 .0289917V0H.2639923V.0289917C.19299317 .033996583 .18899536 .035995485 .18899536 .087005618V.7361908Z"/>
<path id="font_1_26" d="M.59098818 0V.0289917C.5219879 .033996583 .5159912 .035995485 .5159912 .08699036V.49609376L.5089874 .50209048 .35198976 .47709657V.45210267L.3899994 .44711305C.41600038 .44309999 .42199708 .43811036 .42199708 .40213014V.17721558C.42199708 .14923096 .4189911 .12724304 .4139862 .117248538 .3909912 .071258548 .34298707 .042266847 .29100038 .042266847 .23298645 .042266847 .18998719 .07826233 .18998719 .15621948V.49609376L.18299866 .50209048 .025985718 .47709657V.45210267L.06399536 .44711305C.08999634 .44309999 .09599304 .43811036 .09599304 .40213014V.13822937C.09599304 .023269654 .1639862-.01171875 .23799134-.01171875 .32299806-.01171875 .3919983 .04626465 .42099 .060272218L.43099977 0H.59098818Z"/>
<path id="font_1_25" d="M.32598878 .45022584V.49023438H.19699097V.6162262H.16799927L.10699463 .49023438H.0309906V.45022584H.102996829V.102264408C.102996829 .0002746582 .1789856-.01171875 .21398926-.01171875 .2649994-.01171875 .31298829 .014266968 .34199525 .03227234L.33399964 .053268434C.30999757 .043273927 .28799439 .040267946 .2630005 .040267946 .22898865 .040267946 .19699097 .06427002 .19699097 .14025879V.45022584H.32598878Z"/>
<path id="font_1_19" d="M.036987306 .47694398V.45195008L.07499695 .4469452C.100997928 .4429474 .10699463 .43795777 .10699463 .40194703V.08699036C.10699463 .035995485 .10398865 .033996583 .03199768 .0289917V0H.27598573V.0289917C.20498657 .033996583 .20098877 .035995485 .20098877 .08699036V.49609376L.19400025 .5020752 .036987306 .47694398M.15299988 .71484377C.116989139 .71484377 .09199524 .6888428 .09199524 .65283206 .09199524 .61782839 .116989139 .5928345 .15299988 .5928345 .18998719 .5928345 .21299744 .61782839 .21398926 .65283206 .21398926 .6888428 .18998719 .71484377 .15299988 .71484377Z"/>
<path id="font_1_21" d="M.5289917 .34295655C.5289917 .4439392 .47399903 .5019531 .38198854 .5019531 .30799867 .5019531 .2619934 .46594239 .19999695 .4259491L.18598938 .5019531 .036987306 .47694398V.45195008L.07499695 .4469452C.100997928 .4429474 .10699463 .4379425 .10699463 .40194703V.08699036C.10699463 .035995485 .10398865 .033996583 .03199768 .0289917V0H.27598573V.0289917C.20498657 .033996583 .20098877 .035995485 .20098877 .08699036V.32095338C.20098877 .34596253 .20298767 .35995484 .21099854 .37594605 .23199463 .4149475 .2769928 .44795228 .32998658 .44795228 .397995 .44795228 .43499757 .40994264 .43499757 .32295228V.08699036C.43499757 .035995485 .43199159 .033996583 .3600006 .0289917V0H.60398867V.0289917C.5329895 .033996583 .5289917 .035995485 .5289917 .08699036V.34295655Z"/>
<path id="font_1_16" d="M.20098877 .45022584H.32299806V.49023438H.20098877L.19699097 .60220339C.19400025 .6971741 .22898865 .70718386 .24499512 .70718386 .2659912 .70718386 .28799439 .6971741 .31298829 .6391907 .31799317 .62919619 .32499696 .6221924 .33999635 .6221924 .3600006 .6221924 .3889923 .6391907 .3889923 .66918948 .3889923 .70217898 .34700013 .7421875 .2669983 .7421875 .21199036 .7421875 .16499329 .71717837 .13999939 .67918398 .116989139 .64419558 .10699463 .5912018 .10699463 .5252228V.49023438H.02999878V.45022584H.10699463V.087020877C.10699463 .035995485 .10398865 .033996583 .03199768 .0289917V0H.29599V.0289917C.20498657 .032989503 .20098877 .034988405 .20098877 .08602905V.45022584Z"/>
<path id="font_4_1" d="M.2769928 .50541689C.2829895 .5204315 .28399659 .5294342 .28399659 .53344729 .28399659 .5544586 .2539978 .56347659 .22299195 .56347659 .19299317 .56347659 .1619873 .5544586 .15899658 .53944399L.053985597 .05303955C.053985597 .046035768 .067993167 .040039064 .07998657 .040039064 .08799744 .040039064 .09599304 .043029787 .09799194 .048034669L.2769928 .50541689Z"/>
<path id="font_4_3" d="M.084991458 .31092835V.2529297H.33099366V.0068359377H.3889923V.2529297H.6349945V.31092835H.3889923V.5566406H.33099366V.31092835H.084991458Z"/>
<path id="font_3_3" d="M.5069885 .1381836C.48298646 .0932312 .45599366 .040267946 .42799378 .040267946 .40899659 .040267946 .40098573 .06324768 .3789978 .1521759L.34700013 .2830658C.3829956 .34701539 .43399049 .42694093 .46299745 .42694093 .47200013 .42694093 .47999574 .42494203 .4909973 .4189453 .5009918 .4149475 .5109863 .4109497 .522995 .4109497 .54499819 .4109497 .56599429 .4319458 .56599429 .4589386 .56599429 .48994447 .54299929 .5019531 .5149994 .5019531 .46199037 .5019531 .4169922 .45394898 .38198854 .39796449L.33799745 .33003236H.33599855L.29599 .49794007 .2899933 .5019531 .125 .45195008 .12799073 .427948 .20298767 .43295289C.22099304 .4339447 .22799683 .42893983 .23899842 .38298036L.2749939 .2381134 .24699402 .19015503C.20399475 .11723328 .16699219 .0652771 .14299011 .0652771 .1329956 .0652771 .12298584 .0692749 .11399841 .07426453 .10398865 .07926941 .09098816 .089279178 .07398987 .089279178 .04798889 .089279178 .0309906 .0632782 .0309906 .039276124 .0309906 .010269165 .054992677-.01171875 .09498596-.01171875 .16299439-.01171875 .20199585 .056259157 .24299622 .12319946L.2829895 .18914795H.2849884L.30299378 .111206058C.32199098 .031280519 .34098817-.01171875 .3919983-.01171875 .46499635-.01171875 .5029907 .06324768 .5329895 .12420654L.5069885 .1381836Z"/>
<path id="font_4_4" d="M.6349945 .14315796V.20117188H.084991458V.14315796H.6349945M.6349945 .36288453V.42089845H.084991458V.36288453H.6349945Z"/>
<path id="font_1_24" d="M.36698915 .35102845V.46794129C.33399964 .49194337 .2829895 .5019531 .23799134 .5019531 .12998963 .5019531 .056991579 .45095826 .055999757 .35603334 .056991579 .27308656 .12399292 .2361145 .20698548 .21113587 .2519989 .19714356 .31498719 .17416382 .31498719 .10621643 .31498719 .055252077 .2749939 .023269654 .22200012 .023269654 .14099121 .023269654 .09599304 .082229617 .07598877 .16716004H.04699707L.056991579 .03627014C.09298706 .004272461 .1539917-.01171875 .21299744-.01171875 .33198548-.01171875 .3999939 .051254274 .3999939 .13618469 .3999939 .2241211 .34599305 .26409913 .24299622 .29606629 .20199585 .30906678 .13598633 .3300476 .13598633 .3860016 .13699341 .43795777 .17599488 .46694947 .22599793 .46694947 .29699708 .46694947 .33099366 .4119873 .33799745 .35102845H.36698915Z"/>
<path id="font_1_17" d="M.2599945 .46694947C.30899049 .46694947 .3600006 .43093873 .3600006 .33392335 .3600006 .24989319 .31599427 .20588684 .2579956 .20588684 .20199585 .20588684 .15499878 .24989319 .15499878 .33392335 .15499878 .43293763 .20698548 .46694947 .2599945 .46694947M.2809906-.2071991C.19599915-.2071991 .13699341-.16319275 .13699341-.09118652 .13699341-.057174684 .14698792-.032180787 .16799927-.016174317 .18998719 .0008239746 .22299195 .0068359377 .2709961 .0068359377 .35899354 .0068359377 .42399598-.014175415 .42399598-.08918762 .42399598-.16918946 .35198976-.2071991 .2809906-.2071991M.3889923 .47094728C.36099244 .48994447 .30599977 .5019531 .2599945 .5019531 .10699463 .5019531 .052993776 .40792848 .052993776 .33392335 .052993776 .23989868 .114990238 .19688416 .16099549 .18489075V.18289185C.10699463 .1618805 .068984989 .13285828 .068984989 .09384155 .068984989 .05882263 .10899353 .020828248 .15699768 .015823365V.013824463C.11399841-.00016784668 .041992189-.024169922 .041992189-.09617615 .041992189-.19718933 .14199829-.2421875 .2579956-.2421875 .31799317-.2421875 .3809967-.23019409 .42900086-.20118714 .47499085-.17318726 .5079956-.12619019 .5079956-.06417847 .5079956 .043823244 .42199708 .081832889 .31498719 .081832889H.23498535C.16299439 .081832889 .1519928 .10585022 .1519928 .12486267 .1519928 .15388489 .18998719 .16989136 .20298767 .17388916 .22200012 .17189026 .24299622 .17089844 .2539978 .17089844 .34899903 .17089844 .45599366 .21289063 .45599366 .33392335 .45599366 .3759308 .44299317 .41093446 .42599488 .42793275L.5049896 .4399414 .5249939 .50294497 .5169983 .51194766 .3889923 .47094728Z"/>
<path id="font_1_11" d="M.034988405 .6923828V.66337588C.12298584 .6573639 .125 .655365 .125 .5992737V.0929718C.125 .036987306 .12298584 .034988405 .034988405 .0289917V0H.5649872L.57699587 .17294312H.5469971C.5239868 .050994874 .47898866 .034988405 .35299684 .034988405 .30599977 .034988405 .269989 .036987306 .24899292 .04498291 .22799683 .053985597 .22399903 .07098389 .22399903 .1199646V.3408966H.3639984C.44898988 .3408966 .45298768 .3169098 .46199037 .2539215H.49198915V.4650421H.46199037C.45298768 .40293885 .44898988 .37890626 .3639984 .37890626H.22399903V.6213074C.22399903 .6533661 .22898865 .65737918 .26098634 .65737918H.35899354C.47299195 .65737918 .49598695 .6323395 .5099945 .52815249H.5399933V.6923828H.034988405Z"/>
<path id="font_1_15" d="M.44099427 .2627716C.46199037 .2627716 .48098756 .2677765 .48098756 .30078126 .48098756 .35983277 .46199037 .5019531 .2789917 .5019531 .12298584 .5019531 .04899597 .39086915 .04899597 .24082947 .04899597 .08317566 .116989139-.01373291 .27999879-.01171875 .3909912-.010726929 .44799806 .050247194 .47499085 .1290741L.44499208 .14503479C.4169922 .08717346 .3789978 .039276124 .2999878 .039276124 .17599488 .039276124 .15098572 .15901184 .15299988 .2627716H.44099427M.1539917 .30078126C.1539917 .34181214 .16899109 .46694947 .272995 .46694947 .3659973 .46694947 .3769989 .37184144 .3769989 .33280946 .3769989 .31378175 .37098695 .30078126 .34298707 .30078126H.1539917Z"/>
<path id="font_1_23" d="M.18899536 .5019531 .036987306 .47694398V.45195008L.07499695 .4469452C.100997928 .4429474 .10699463 .4379425 .10699463 .40194703V.08699036C.10699463 .035995485 .101989749 .033996583 .03199768 .0289917V0H.29599V.0289917C.20698548 .033996583 .20098877 .035995485 .20098877 .08699036V.32095338C.20098877 .39794923 .23498535 .4239502 .2579956 .4239502 .27398683 .4239502 .29100038 .4179535 .31999208 .40194703 .32699586 .39794923 .33499146 .39694215 .33999635 .39694215 .3639984 .39694215 .38598634 .4219513 .38598634 .4529419 .38598634 .47494508 .37199403 .5019531 .33299256 .5019531 .29699708 .5019531 .2669983 .47994996 .20098877 .4219513L.18899536 .5019531Z"/>
<path id="font_1_1" d="M.08898926 .47218324C.13899231 .5181732 .20698548 .58517459 .20698548 .6561737 .20698548 .71017459 .1749878 .7431793 .14199829 .7421875 .11199951 .7421875 .09399414 .72117617 .09399414 .69418337 .09399414 .6581726 .1269989 .6371765 .1269989 .60017397 .1269989 .56217959 .102996829 .5241852 .07199097 .48817445L.08898926 .47218324Z"/>
<path id="font_1_12" d="M.2709961 0V.0289917C.20599365 .033996583 .18199158 .037002565 .17599488 .07902527 .17098999 .11204529 .16899109 .15007019 .16899109 .20309448V.60032656H.17098999L.42900086 .011993408H.45599366L.71699526 .60032656H.7200012V.09303284C.7200012 .037002565 .71798709 .034988405 .6299896 .0289917V0H.9089966V.0289917C.82199099 .034988405 .81900027 .037002565 .81900027 .09303284V.5993347C.81900027 .655365 .82199099 .6573639 .9089966 .66337588V.6923828H.70799258C.673996 .6033325 .6329956 .5152893 .59298709 .42723084L.47299195 .15907288H.47099305L.35299684 .42622376C.31399537 .5152893 .27198792 .6033325 .23599243 .6923828H.032989503V.66337588C.12098694 .6573639 .12298584 .655365 .12298584 .5993347V.20309448C.12298584 .15007019 .12098694 .11204529 .115997318 .07902527 .10998535 .037002565 .085998538 .032989503 .033996583 .0289917V0H.2709961Z"/>
<path id="font_1_18" d="M.5169983 .34295655C.5169983 .4439392 .46199037 .5019531 .36898805 .5019531 .29599 .5019531 .25099183 .46794129 .18798828 .4259491V.73617556L.18099976 .7421875 .024993897 .7171478V.6921234L.06298828 .68711856C.08898926 .6831207 .09498596 .67811587 .09498596 .6420746V.08699036C.09599304 .037994386 .09098816 .033996583 .020996094 .0289917V0H.2639923V.0289917C.19499207 .033996583 .18899536 .037994386 .18899536 .08699036V.32095338C.18899536 .34596253 .18998719 .35995484 .19799805 .37495423 .21899414 .4149475 .2649994 .44795228 .31799317 .44795228 .38598634 .44795228 .4229889 .40994264 .4229889 .32295228V.08699036C.4229889 .037994386 .41799928 .033996583 .34799195 .0289917V0H.59199526V.0289917C.522995 .033996583 .5169983 .037994386 .5169983 .08699036V.34295655Z"/>
<path id="font_1_14" d="M.58299258 0V.0289917C.5119934 .033996583 .5079956 .035995485 .5079956 .08699036V.73617556L.5009918 .7421875 .34399415 .7171478V.6921234L.38198854 .6881256C.4079895 .6851196 .4139862 .68011477 .4139862 .6420746V.47795106C.38598634 .49295045 .34899903 .5019531 .30299378 .5019531 .22099304 .5019531 .1599884 .47595216 .117996219 .43295289 .07499695 .3879547 .04899597 .32196046 .04899597 .2349701 .04899597 .0872345 .12599182-.01171875 .2579956-.01171875 .31199647-.01171875 .35899354 .012268066 .41299439 .056259157V.0069885256L.42099 0H.58299258M.4139862 .16998291C.4139862 .14819336 .41299439 .13121033 .40699769 .114212039 .3869934 .06225586 .34298707 .042266847 .29100038 .042266847 .19898987 .042266847 .15299988 .13220215 .15299988 .24711609 .15299988 .37701417 .19999695 .46694947 .3019867 .46694947 .34899903 .46694947 .3869934 .44496156 .40499879 .4039917 .41299439 .38700868 .4139862 .37301637 .4139862 .34603883V.16998291Z"/>
<path id="font_1_2" d="M.07398987 .2861328V.21612549H.31900025V.2861328H.07398987Z"/>
<path id="font_1_10" d="M.22898865 .26757813C.29100038 .26757813 .34298707 .30256654 .3769989 .35157777H.3789978C.3789978 .28857423 .37399293 .20774842 .35598756 .13894654 .33799745 .073135379 .30299378 .023269654 .23899842 .023269654 .17098999 .023269654 .1459961 .0761261 .1309967 .12298584 .1269989 .13595581 .11999512 .1439209 .102996829 .1439209 .083999637 .1439209 .055999757 .12397766 .055999757 .09307861 .055999757 .049194337 .10899353-.01171875 .22999573-.01171875 .31098939-.01171875 .37298585 .01828003 .41099549 .071136478 .45199586 .12797547 .47698976 .2157135 .47698976 .36058045 .47698976 .48461915 .45199586 .56565859 .41299439 .6126709 .375 .6576843 .31999208 .6796875 .2559967 .6796875 .12799073 .6796875 .035995485 .5946655 .035995485 .45661927 .035995485 .3315735 .12599182 .26757813 .22898865 .26757813M.25898744 .3205719C.18099976 .3205719 .13598633 .38859559 .13598633 .48461915 .13598633 .57666018 .1769867 .64468386 .25498963 .64468386 .33499146 .64468386 .37399293 .5496521 .37399293 .45262147 .37399293 .4356079 .37298585 .41560365 .36698915 .39959718 .35099793 .35258485 .31199647 .3205719 .25898744 .3205719Z"/>
<path id="font_4_2" d="M.5269928 .30897523C.6069946 .30897523 .6230011 .3840332 .6329956 .43621827L.6380005 .45822145 .61299136 .47122193C.59498599 .42321778 .56599429 .37597657 .5299988 .37597657 .45799256 .37597657 .28599549 .47721864 .18899536 .47721864 .13798523 .47721864 .09199524 .37799073 .085998538 .32696534L.11099243 .31497193C.13198853 .36297608 .16099549 .40722657 .19599915 .40722657 .2630005 .40722657 .42900086 .30897523 .5269928 .30897523M.5269928 .087890628C.6069946 .087890628 .6230011 .16287232 .6329956 .21485901L.6380005 .23684693 .61299136 .24984741C.59498599 .20185852 .56599429 .15487671 .5299988 .15487671 .45799256 .15487671 .28599549 .25585938 .18899536 .25585938 .13798523 .25585938 .09199524 .15687561 .085998538 .10588074L.11099243 .09388733C.13198853 .14187622 .16099549 .18585205 .19599915 .18585205 .2630005 .18585205 .42900086 .087890628 .5269928 .087890628Z"/>
<path id="font_3_1" d="M.43499757 .15118408C.39898683 .10421753 .34498597 .03727722 .269989 .03727722 .19999695 .03727722 .1789856 .097229007 .1789856 .17616272 .1789856 .1811676 .1789856 .1851654 .17999268 .19215393 .34799195 .22613526 .42099 .26609803 .46398927 .30607606 .49899293 .3410492 .5059967 .37402345 .5059967 .4019928 .5059967 .45495606 .46398927 .5019531 .38198854 .5019531 .2919922 .5019531 .21798706 .45596314 .16299439 .3880005 .10998535 .32305909 .07998657 .23612976 .07998657 .15219116 .07998657 .012268066 .17098999-.01171875 .22898865-.01171875 .3019867-.01171875 .3899994 .02027893 .45799256 .13119507L.43499757 .15118408M.18199158 .22613526C.19898987 .3470459 .27398683 .46694947 .35398866 .46694947 .3889923 .46694947 .4119873 .44296266 .4119873 .4079895 .4119873 .3380432 .35099793 .26210023 .18199158 .22613526Z"/>
</defs>
<path transform="matrix(1.0001,0,0,-1.00002,72.56386,183.30542)" stroke-width=".19925" stroke-linecap="butt" stroke-miterlimit="10" stroke-linejoin="miter" fill="none" stroke="#929292" d="M24.28401-1.41739V1.4174M72.85205-1.41739V1.4174M121.42009-1.41739V1.4174M169.98813-1.41739V1.4174"/>
<path transform="matrix(1.0001,0,0,-1.00002,72.56386,183.30542)" stroke-width=".19925" stroke-linecap="butt" stroke-miterlimit="10" stroke-linejoin="miter" fill="none" stroke="#929292" d="M48.56804-2.1259V2.1259M97.13608-2.1259V2.1259M145.70412-2.1259V2.1259M194.27216-2.1259V2.1259"/>
<path transform="matrix(1.0001,0,0,-1.00002,72.56386,183.30542)" stroke-width=".19925" stroke-linecap="butt" stroke-miterlimit="10" stroke-linejoin="miter" fill="none" stroke="#929292" d="M-1.41733 11.22598H1.41734M-1.41733 42.01H1.41734M-1.41733 72.79399H1.41734M-1.41733 103.578H1.41734M-1.41733 134.36202H1.41734"/>
<path transform="matrix(1.0001,0,0,-1.00002,72.56386,183.30542)" stroke-width=".19925" stroke-linecap="butt" stroke-miterlimit="10" stroke-linejoin="miter" fill="none" stroke="#929292" d="M-2.12581 26.61798H2.12581M-2.12581 57.402H2.12581M-2.12581 88.186H2.12581M-2.12581 118.97H2.12581M-2.12581 149.75402H2.12581"/>
<path transform="matrix(1.0001,0,0,-1.00002,72.56386,183.30542)" stroke-width=".3985" stroke-linecap="butt" stroke-miterlimit="10" stroke-linejoin="miter" fill="none" stroke="#000000" d="M0 0H192.27964"/>
<path transform="matrix(1.0001,0,0,-1.00002,264.86274,183.30542)" d="M1.99252 0-1.19551 1.59401 0 0-1.19551-1.59401"/>
<path transform="matrix(1.0001,0,0,-1.00002,72.56386,183.30542)" stroke-width=".3985" stroke-linecap="butt" stroke-miterlimit="10" stroke-linejoin="miter" fill="none" stroke="#000000" d="M0 0V159.40523"/>
<path transform="matrix(0,-1.00002,-1.0001,-0,72.56386,23.897004)" d="M1.99252 0-1.19551 1.59401 0 0-1.19551-1.59401"/>
<use data-text="0" xlink:href="#font_1_4" transform="matrix(10.037404,0,0,-10.036601,114.48105,195.55066)"/>
<use data-text="." xlink:href="#font_1_3" transform="matrix(10.037404,0,0,-10.036601,119.80087,195.55066)"/>
<use data-text="5" xlink:href="#font_1_9" transform="matrix(10.037404,0,0,-10.036601,122.4608,195.55066)"/>
<use data-text="1" xlink:href="#font_1_5" transform="matrix(10.037404,0,0,-10.036601,167.0473,195.55066)"/>
<use data-text="1" xlink:href="#font_1_5" transform="matrix(10.037404,0,0,-10.036601,211.62676,195.55066)"/>
<use data-text="." xlink:href="#font_1_3" transform="matrix(10.037404,0,0,-10.036601,216.94658,195.55066)"/>
<use data-text="5" xlink:href="#font_1_9" transform="matrix(10.037404,0,0,-10.036601,219.6065,195.55066)"/>
<use data-text="2" xlink:href="#font_1_6" transform="matrix(10.037404,0,0,-10.036601,264.19303,195.55066)"/>
<use data-text="1" xlink:href="#font_1_5" transform="matrix(10.037404,0,0,-10.036601,61.714776,160.04695)"/>
<use data-text="2" xlink:href="#font_1_6" transform="matrix(10.037404,0,0,-10.036601,61.714776,129.26233)"/>
<use data-text="3" xlink:href="#font_1_7" transform="matrix(10.037404,0,0,-10.036601,61.714776,98.45072)"/>
<use data-text="4" xlink:href="#font_1_8" transform="matrix(10.037404,0,0,-10.036601,61.714776,67.69311)"/>
<use data-text="5" xlink:href="#font_1_9" transform="matrix(10.037404,0,0,-10.036601,61.714776,36.881486)"/>
<g clip-path="url(#clip_2)">
<path transform="matrix(1.0001,0,0,-1.00002,72.56386,183.30542)" stroke-width=".3985" stroke-linecap="butt" stroke-miterlimit="10" stroke-linejoin="miter" fill="none" stroke="#000000" d="M0 26.61798 3.96469 25.3934 7.92938 24.21098 11.89409 23.07475 15.85881 21.98807 19.8235 20.94142 23.78821 19.93756 27.75291 18.97371 31.71764 18.0468 35.68233 17.15991 39.64703 16.3069 43.61174 15.48772 47.57645 14.70305 51.54115 13.94513 55.50586 13.22171 59.47055 12.5257 63.43527 11.85767 67.39998 11.21706 71.36469 10.60107 75.32938 10.01309 79.2941 9.4436 83.2588 8.9018 87.2235 8.37816 91.1882 7.87637 95.15292 7.39584 99.11763 6.9307 103.08232 6.48741 107.04703 6.0629 111.01175 5.65315 114.97644 5.25911 118.94115 4.88326 122.90587 4.5203 126.87056 4.17491 130.83527 3.83968 134.79998 3.51921 138.7647 3.21136 142.72939 2.91553 146.69409 2.63232 150.6588 2.36142 154.6235 2.09976 158.58821 1.8501 162.55292 1.61029 166.51761 1.3791 170.48233 1.15746 174.44704 .94229 178.41173 .7388 182.37644 .54147 186.34116 .3537 190.30587 .17236 194.27056 0"/>
</g>
<path transform="matrix(1.0001,0,0,-1.00002,72.56386,183.30542)" stroke-width=".3985" stroke-linecap="butt" stroke-miterlimit="10" stroke-linejoin="miter" fill="none" stroke="#000000" d="M1.99255 26.61798C1.99255 27.71846 1.10046 28.61053 0 28.61053-1.10046 28.61053-1.99255 27.71846-1.99255 26.61798-1.99255 25.51752-1.10046 24.62543 0 24.62543 1.10046 24.62543 1.99255 25.51752 1.99255 26.61798ZM0 26.61798"/>
<path transform="matrix(1.0001,0,0,-1.00002,72.56386,183.30542)" stroke-width=".3985" stroke-linecap="butt" stroke-miterlimit="10" stroke-linejoin="miter" fill="none" stroke="#000000" d="M40.84698 38.9316C40.84698 40.03206 39.9549 40.92415 38.85443 40.92415 37.75395 40.92415 36.86188 40.03206 36.86188 38.9316 36.86188 37.83112 37.75395 36.93904 38.85443 36.93904 39.9549 36.93904 40.84698 37.83112 40.84698 38.9316ZM38.85443 38.9316"/>
<path transform="matrix(1.0001,0,0,-1.00002,72.56386,183.30542)" stroke-width=".3985" stroke-linecap="butt" stroke-miterlimit="10" stroke-linejoin="miter" fill="none" stroke="#000000" d="M79.70142 56.17064C79.70142 57.2711 78.80933 58.1632 77.70886 58.1632 76.60838 58.1632 75.71631 57.2711 75.71631 56.17064 75.71631 55.07016 76.60838 54.17809 77.70886 54.17809 78.80933 54.17809 79.70142 55.07016 79.70142 56.17064ZM77.70886 56.17064"/>
<path transform="matrix(1.0001,0,0,-1.00002,72.56386,183.30542)" stroke-width=".3985" stroke-linecap="butt" stroke-miterlimit="10" stroke-linejoin="miter" fill="none" stroke="#000000" d="M118.55585 80.3053C118.55585 81.40576 117.66376 82.29785 116.5633 82.29785 115.46281 82.29785 114.57074 81.40576 114.57074 80.3053 114.57074 79.20482 115.46281 78.31274 116.5633 78.31274 117.66376 78.31274 118.55585 79.20482 118.55585 80.3053ZM116.5633 80.3053"/>
<path transform="matrix(1.0001,0,0,-1.00002,72.56386,183.30542)" stroke-width=".3985" stroke-linecap="butt" stroke-miterlimit="10" stroke-linejoin="miter" fill="none" stroke="#000000" d="M157.41028 114.09383C157.41028 115.19429 156.51819 116.08638 155.41773 116.08638 154.31725 116.08638 153.42517 115.19429 153.42517 114.09383 153.42517 112.99335 154.31725 112.10127 155.41773 112.10127 156.51819 112.10127 157.41028 112.99335 157.41028 114.09383ZM155.41773 114.09383"/>
<path transform="matrix(1.0001,0,0,-1.00002,72.56386,183.30542)" stroke-width=".3985" stroke-linecap="butt" stroke-miterlimit="10" stroke-linejoin="miter" fill="none" stroke="#000000" d="M196.26471 161.39775C196.26471 162.49823 195.37262 163.3903 194.27216 163.3903 193.17168 163.3903 192.2796 162.49823 192.2796 161.39775 192.2796 160.29729 193.17168 159.4052 194.27216 159.4052 195.37262 159.4052 196.26471 160.29729 196.26471 161.39775ZM194.27216 161.39775"/>
<path transform="matrix(1.0001,0,0,-1.00002,72.56386,183.30542)" stroke-width=".3985" stroke-linecap="butt" stroke-miterlimit="10" stroke-linejoin="miter" fill="none" stroke="#000000" d=""/>
<use data-text="t" xlink:href="#font_3_2" transform="matrix(10.037404,0,0,-10.036601,258.9615,179.81935)"/>
<use data-text="y" xlink:href="#font_3_4" transform="matrix(10.037404,0,0,-10.036601,76.50925,30.26735)"/>
<use data-text="S" xlink:href="#font_1_13" transform="matrix(10.037404,0,0,-10.036601,68.86149,10.056961)"/>
<use data-text="o" xlink:href="#font_1_22" transform="matrix(10.037404,0,0,-10.036601,74.18131,10.056961)"/>
<use data-text="l" xlink:href="#font_1_20" transform="matrix(10.037404,0,0,-10.036601,79.97289,10.056961)"/>
<use data-text="u" xlink:href="#font_1_26" transform="matrix(10.037404,0,0,-10.036601,82.77332,10.056961)"/>
<use data-text="t" xlink:href="#font_1_25" transform="matrix(10.037404,0,0,-10.036601,88.855998,10.056961)"/>
<use data-text="i" xlink:href="#font_1_19" transform="matrix(10.037404,0,0,-10.036601,92.30886,10.056961)"/>
<use data-text="o" xlink:href="#font_1_22" transform="matrix(10.037404,0,0,-10.036601,95.229747,10.056961)"/>
<use data-text="n" xlink:href="#font_1_21" transform="matrix(10.037404,0,0,-10.036601,101.021327,10.056961)"/>
<use data-text="o" xlink:href="#font_1_22" transform="matrix(10.037404,0,0,-10.036601,109.48286,10.056961)"/>
<use data-text="f" xlink:href="#font_1_16" transform="matrix(10.037404,0,0,-10.036601,115.28448,10.056961)"/>
<use data-text="y" xlink:href="#font_3_4" transform="matrix(10.037404,0,0,-10.036601,121.28474,10.056961)"/>
<use data-text="&#x2032;" xlink:href="#font_4_1" transform="matrix(7.608261,0,0,-7.6076529,126.904308,6.096878)"/>
<use data-text="+" xlink:href="#font_4_3" transform="matrix(10.037404,0,0,-10.036601,130.97672,10.056961)"/>
<use data-text="4" xlink:href="#font_1_8" transform="matrix(10.037404,0,0,-10.036601,139.53256,10.056961)"/>
<use data-text="x" xlink:href="#font_3_3" transform="matrix(10.037404,0,0,-10.036601,145.0751,10.056961)"/>
<use data-text="y" xlink:href="#font_3_4" transform="matrix(10.037404,0,0,-10.036601,151.6195,10.056961)"/>
<use data-text="=" xlink:href="#font_4_4" transform="matrix(10.037404,0,0,-10.036601,159.1065,10.056961)"/>
<use data-text="0" xlink:href="#font_1_4" transform="matrix(10.037404,0,0,-10.036601,168.19641,10.056961)"/>
<use data-text="u" xlink:href="#font_1_26" transform="matrix(10.037404,0,0,-10.036601,175.77463,10.056961)"/>
<use data-text="s" xlink:href="#font_1_24" transform="matrix(10.037404,0,0,-10.036601,181.8573,10.056961)"/>
<use data-text="i" xlink:href="#font_1_19" transform="matrix(10.037404,0,0,-10.036601,186.23365,10.056961)"/>
<use data-text="n" xlink:href="#font_1_21" transform="matrix(10.037404,0,0,-10.036601,189.16455,10.056961)"/>
<use data-text="g" xlink:href="#font_1_17" transform="matrix(10.037404,0,0,-10.036601,195.37772,10.056961)"/>
<use data-text="E" xlink:href="#font_1_11" transform="matrix(10.037404,0,0,-10.036601,202.84552,10.056961)"/>
<use data-text="u" xlink:href="#font_1_26" transform="matrix(10.037404,0,0,-10.036601,208.81778,10.056961)"/>
<use data-text="l" xlink:href="#font_1_20" transform="matrix(10.037404,0,0,-10.036601,214.90045,10.056961)"/>
<use data-text="e" xlink:href="#font_1_15" transform="matrix(10.037404,0,0,-10.036601,217.7009,10.056961)"/>
<use data-text="r" xlink:href="#font_1_23" transform="matrix(10.037404,0,0,-10.036601,222.86014,10.056961)"/>
<use data-text="&#x2019;" xlink:href="#font_1_1" transform="matrix(10.037404,0,0,-10.036601,226.58402,10.056961)"/>
<use data-text="s" xlink:href="#font_1_24" transform="matrix(10.037404,0,0,-10.036601,228.27033,10.056961)"/>
<use data-text="M" xlink:href="#font_1_12" transform="matrix(10.037404,0,0,-10.036601,234.89499,10.056961)"/>
<use data-text="e" xlink:href="#font_1_15" transform="matrix(10.037404,0,0,-10.036601,244.06919,10.056961)"/>
<use data-text="t" xlink:href="#font_1_25" transform="matrix(10.037404,0,0,-10.036601,249.22843,10.056961)"/>
<use data-text="h" xlink:href="#font_1_18" transform="matrix(10.037404,0,0,-10.036601,252.6813,10.056961)"/>
<use data-text="o" xlink:href="#font_1_22" transform="matrix(10.037404,0,0,-10.036601,258.76396,10.056961)"/>
<use data-text="d" xlink:href="#font_1_14" transform="matrix(10.037404,0,0,-10.036601,264.55555,10.056961)"/>
<path transform="matrix(1.0001,0,0,-1.00002,72.56386,183.30542)" stroke-width=".3985" stroke-linecap="butt" stroke-miterlimit="10" stroke-linejoin="miter" fill="none" stroke="#000000" d="M-70.867 0H70.40874"/>
<path transform="matrix(1.0001,0,0,-1.00002,142.97965,183.30542)" stroke-width=".31879" stroke-linecap="round" stroke-linejoin="round" fill="none" stroke="#000000" d="M-1.19551 1.59401C-1.09587 .99626 0 .09961 .29886 0 0-.09961-1.09587-.99626-1.19551-1.59401"/>
<path transform="matrix(1.0001,0,0,-1.00002,72.56386,183.30542)" stroke-width=".3985" stroke-linecap="butt" stroke-miterlimit="10" stroke-linejoin="miter" fill="none" stroke="#000000" d="M0-34.01608V135.60648"/>
<path transform="matrix(0,-1.00002,-1.0001,-0,72.56386,47.696229)" stroke-width=".31879" stroke-linecap="round" stroke-linejoin="round" fill="none" stroke="#000000" d="M-1.19551 1.59401C-1.09587 .99626 0 .09961 .29886 0 0-.09961-1.09587-.99626-1.19551-1.59401"/>
<use data-text="t" xlink:href="#font_3_2" transform="matrix(10.9999,0,0,-10.999021,138.26044,193.48363)"/>
<path transform="matrix(1.0001,0,0,-1.00002,72.56386,183.30542)" stroke-width=".79701" stroke-linecap="butt" stroke-miterlimit="10" stroke-linejoin="miter" fill="none" stroke="#929292" d="M-56.69362 4.25183V-4.25183"/>
<path transform="matrix(1.0001,0,0,-1.00002,72.56386,183.30542)" stroke-width=".79701" stroke-linecap="butt" stroke-miterlimit="10" stroke-linejoin="miter" fill="none" stroke="#929292" d="M-28.3468 4.25183V-4.25183"/>
<path transform="matrix(1.0001,0,0,-1.00002,72.56386,183.30542)" stroke-width=".79701" stroke-linecap="butt" stroke-miterlimit="10" stroke-linejoin="miter" fill="none" stroke="#929292" d="M28.3468 4.25183V-4.25183"/>
<path transform="matrix(1.0001,0,0,-1.00002,72.56386,183.30542)" stroke-width=".79701" stroke-linecap="butt" stroke-miterlimit="10" stroke-linejoin="miter" fill="none" stroke="#929292" d="M56.69362 4.25183V-4.25183"/>
<use data-text="-" xlink:href="#font_1_2" transform="matrix(10.037404,0,0,-10.036601,11.232727,193.42462)"/>
<use data-text="2" xlink:href="#font_1_6" transform="matrix(10.037404,0,0,-10.036601,15.167389,193.42462)"/>
<use data-text="2" xlink:href="#font_1_6" transform="matrix(10.037404,0,0,-10.036601,126.601268,193.42462)"/>
<path transform="matrix(1.0001,0,0,-1.00002,72.56386,183.30542)" stroke-width=".3985" stroke-linecap="butt" stroke-miterlimit="10" stroke-linejoin="miter" fill="none" stroke="#929292" d="M2.83484 56.69362H-2.83484"/>
<use data-text="2" xlink:href="#font_1_6" transform="matrix(10.037404,0,0,-10.036601,63.83999,129.97035)"/>
<path transform="matrix(1.0001,0,0,-1.00002,72.56386,183.30542)" stroke-width=".3985" stroke-linecap="butt" stroke-miterlimit="10" stroke-linejoin="miter" fill="none" stroke="#929292" d="M2.83484 113.38724H-2.83484"/>
<use data-text="4" xlink:href="#font_1_8" transform="matrix(10.037404,0,0,-10.036601,63.83999,73.276218)"/>
<path transform="matrix(1.0001,0,0,-1.00002,72.56386,183.30542)" stroke-width="1.59404" stroke-linecap="butt" stroke-miterlimit="10" stroke-linejoin="miter" fill="none" stroke="#0000ff" d="M-69.66586 2.42624-69.6931 2.42393-68.5192 2.52602-67.34529 2.6337-66.17137 2.74443-64.99747 2.8608-63.82356 2.98277-62.64966 3.11037-61.47574 3.24055-60.30183 3.3768-59.12793 3.52127-57.95403 3.66878-56.7801 3.8245-55.6062 3.98625-54.4323 4.15364-53.25839 4.32925-52.08447 4.51352-50.91057 4.70383-49.73666 4.90497-48.56276 5.11214-47.38884 5.32756-46.21494 5.55118-45.04103 5.78691-43.86713 6.03346-42.6932 6.28563-41.5193 6.5525-40.3454 6.8302-39.1715 7.11957-37.99757 7.41974-36.82367 7.73462-35.64977 8.06076-34.47586 8.40074-33.30194 8.75803-32.12804 9.12697-30.95413 9.51236-29.78023 9.91505-28.60631 10.33461-27.4324 10.77147-26.2585 11.22781-25.0846 11.70145-23.91068 12.19756-22.73677 12.71358-21.56287 13.2495-20.38896 13.81093-19.21506 14.39485-18.04114 15.00473-16.86725 15.63667-15.69333 16.29758-14.51942 16.98921-13.3455 17.70679-12.17162 18.4551-10.9977 19.23495-9.82379 20.04855-8.64987 20.89633-7.47598 21.78087-6.30206 22.69957-5.12816 23.66112-3.95424 24.662-2.78035 25.70226-1.60643 26.79138-.43253 27.92247 .74136 29.09724 1.91525 30.3274 3.08917 31.60944 4.26308 32.94554 5.43698 34.33875 6.61089 35.79034 7.7848 37.30379 8.95871 38.88126 10.13261 40.52448 11.30652 42.23775 12.48044 44.02327 13.65434 45.88492 14.82825 47.82442 16.00215 49.84782 17.17607 51.95515 18.34998 54.15201 19.52388 56.44014 20.69778 58.82645 21.8717 61.31311 23.04561 63.90617 24.21951 66.60823 25.39342 69.4245 26.56734 72.35927 27.74124 75.41904 28.91515 78.60684 30.08905 81.93176 31.26297 85.39552 32.43687 89.0055 33.61078 92.76987 34.78468 96.6904 35.9586 100.7796 37.1325 105.04054 38.30641 109.47925 39.48032 114.10957 40.65424 118.93365 41.82814 123.96236 43.00204 129.20342 44.17595 134.66809 45.10641 139.18013"/>
<path transform="matrix(-.99649968,.084091689,.08409841,.99641999,2.8910447,180.87914)" stroke-width="1.27522" stroke-linecap="round" stroke-linejoin="round" fill="none" stroke="#0000ff" d="M-2.27148 3.02866C-2.0822 1.8929 0 .18927 .56786 0 0-.18927-2.0822-1.8929-2.27148-3.02866"/>
<path transform="matrix(.20197019,-.9793696,-.9794479,-.20195404,117.67478,44.122514)" stroke-width="1.27522" stroke-linecap="round" stroke-linejoin="round" fill="none" stroke="#0000ff" d="M-2.27148 3.02866C-2.0822 1.8929 0 .18927 .56786 0 0-.18927-2.0822-1.8929-2.27148-3.02866"/>
<path transform="matrix(1.0001,0,0,-1.00002,72.56386,183.30542)" stroke-width=".3985" stroke-linecap="butt" stroke-dasharray="2.98883,2.98883" stroke-miterlimit="10" stroke-linejoin="miter" fill="none" stroke="#000000" d="M32.03201 87.74335V0"/>
<path transform="matrix(1.0001,0,0,-1.00002,72.56386,183.30542)" stroke-width=".3985" stroke-linecap="butt" stroke-dasharray="2.98883,2.98883" stroke-miterlimit="10" stroke-linejoin="miter" fill="none" stroke="#000000" d="M32.03201 87.74335H0"/>
<use data-text="1" xlink:href="#font_1_5" transform="matrix(10.037404,0,0,-10.036601,95.28213,193.42462)"/>
<use data-text="." xlink:href="#font_1_3" transform="matrix(10.037404,0,0,-10.036601,100.60195,193.42462)"/>
<use data-text="1" xlink:href="#font_1_5" transform="matrix(10.037404,0,0,-10.036601,103.26186,193.42462)"/>
<use data-text="3" xlink:href="#font_1_7" transform="matrix(10.037404,0,0,-10.036601,108.59173,193.42462)"/>
<use data-text="3" xlink:href="#font_1_7" transform="matrix(10.9999,0,0,-10.999021,15.1341099,100.443759)"/>
<use data-text="." xlink:href="#font_1_3" transform="matrix(10.9999,0,0,-10.999021,20.96405,100.443759)"/>
<use data-text="0" xlink:href="#font_1_4" transform="matrix(10.9999,0,0,-10.999021,23.879044,100.443759)"/>
<use data-text="9" xlink:href="#font_1_10" transform="matrix(10.9999,0,0,-10.999021,29.719986,100.443759)"/>
<use data-text="&#x2248;" xlink:href="#font_4_2" transform="matrix(10.9999,0,0,-10.999021,37.60135,100.443759)"/>
<use data-text="e" xlink:href="#font_3_1" transform="matrix(10.9999,0,0,-10.999021,47.562364,100.443759)"/>
<use data-text="1" xlink:href="#font_1_5" transform="matrix(8.249925,0,0,-8.249265,53.349946,96.10367)"/>
<use data-text="." xlink:href="#font_1_3" transform="matrix(8.249925,0,0,-8.249265,57.722398,96.10367)"/>
<use data-text="1" xlink:href="#font_1_5" transform="matrix(8.249925,0,0,-8.249265,59.90863,96.10367)"/>
<use data-text="3" xlink:href="#font_1_7" transform="matrix(8.249925,0,0,-8.249265,64.28934,96.10367)"/>
<use data-text="e" xlink:href="#font_3_1" transform="matrix(10.9999,0,0,-10.999021,121.34874,72.090198)" fill="#0000ff"/>
<use data-text="t" xlink:href="#font_3_2" transform="matrix(8.249925,0,0,-8.249265,127.31534,67.75011)" fill="#0000ff"/>
</svg>
