<svg xmlns="http://www.w3.org/2000/svg" xmlns:xlink="http://www.w3.org/1999/xlink" version="1.1" width="193" height="82" viewBox="0 0 193 82">
<defs>
<path id="font_1_1" d="M.6349945 .2529297V.31092835H.084991458V.2529297H.6349945Z"/>
<path id="font_2_2" d="M.4850006 .13195801 .45700074 .13696289C.43598939 .08299255 .41600038 .07598877 .37599183 .07598877H.11999512C.13598633 .1279602 .19499207 .19892884 .28799439 .2658844 .38398744 .33584596 .45799256 .38082887 .45799256 .49276734 .45799256 .63168337 .3659973 .6796875 .26098634 .6796875 .12399292 .6796875 .052993776 .5967102 .052993776 .54473879 .052993776 .51075747 .09098816 .49476625 .10798645 .49476625 .12599182 .49476625 .1329956 .50476077 .13699341 .5217438 .15299988 .5897064 .19198609 .64468386 .2539978 .64468386 .33099366 .64468386 .35299684 .5797119 .35299684 .50675967 .35299684 .3998108 .29899598 .33984376 .21199036 .26289369 .08898926 .15594483 .04598999 .08798218 .026992798 .009994507L.036987306 0H.45098878L.4850006 .13195801Z"/>
<path id="font_2_1" d="M.43699647 0V.0289917L.35299684 .035995485C.33198548 .037994386 .31999208 .04598999 .31999208 .08496094V.67367556L.31498719 .6796875 .10899353 .6446991V.6197052L.20199585 .6087036C.21899414 .6067047 .22599793 .5987091 .22599793 .56973269V.08496094C.22599793 .065979007 .22299195 .053985597 .21699524 .04698181 .21199036 .039993287 .20399475 .036987306 .19299317 .035995485L.10899353 .0289917V0H.43699647Z"/>
<path id="font_2_3" d="M.2999878 .17871094V.0769043C.2999878 .04296875 .2889862 .036987306 .2649994 .034988405L.20098877 .0289917V0H.46499635V.0289917L.41999818 .033981325C.39698792 .036987306 .3899994 .04296875 .3899994 .0769043V.17871094H.49299623V.22570801H.3899994V.66796877H.31698609C.22299195 .5298767 .11099243 .35577394 .018997193 .19970703L.027999878 .17871094H.2999878M.09098816 .22570801C.15098572 .33476258 .22099304 .4498291 .2979889 .5709076H.2999878V.22570801H.09098816Z"/>
<clipPath id="clip_3">
<path transform="matrix(1.00008,0,0,-1.00002,1.0933762,79.97928)" d="M0 0H190.18434V76.79126H0Z"/>
</clipPath>
<path id="font_4_1" d="M.42799378 .45222474 .43899537 .49023438H.31199647L.34599305 .6092224 .33399964 .6162262 .23699951 .53923037 .22399903 .49023438H.14299011L.13198853 .45222474H.21499634L.125 .08627319C.10998535 .029266358 .12199402-.01171875 .17199707-.01171875 .2519989-.01171875 .31599427 .054275514 .35598756 .1292572L.33399964 .1462555C.31098939 .10726929 .2599945 .040267946 .22898865 .040267946 .20799256 .040267946 .20799256 .0632782 .21398926 .088272098L.30299378 .45222474H.42799378Z"/>
<path id="font_4_2" d="M.070999149 .45393373 .07398987 .42893983 .14199829 .43093873C.1639862 .43193055 .16899109 .41493226 .1769867 .36291505 .18798828 .28489686 .20999146 .09286499 .20999146 .0128479 .20999146-.017166138 .20799256-.058166505 .18598938-.11117554 .16799927-.15318299 .14199829-.18218994 .12199402-.18218994 .10699463-.18218994 .09599304-.17118836 .08099365-.15118408 .068984989-.13517761 .06098938-.127182 .04598999-.127182 .019989014-.12818909-.005004883-.15818787-.005004883-.18719483-.005004883-.21418762 .023986817-.2421875 .067993167-.2421875 .15299988-.2421875 .18998719-.17919922 .27799989-.027160645 .2979889 .0068511965 .35798646 .11286926 .41999818 .21488953 .47698976 .30891419 .5399933 .40592958 .5399933 .4459381 .5399933 .48094178 .5289917 .5019531 .5219879 .5019531 .5029907 .5019531 .46899415 .49394227 .44400025 .47694398 .44499208 .4419403 .44299317 .3809204 .43099977 .33891297 .4149933 .28289796 .35598756 .17488098 .2899933 .06085205H.2869873C.27999879 .21388245 .26098634 .42492677 .24699402 .49795533L.23899842 .5019531 .070999149 .45393373Z"/>
</defs>
<path transform="matrix(1.00008,0,0,-1.00002,1.0933762,79.97928)" stroke-width=".19925" stroke-linecap="butt" stroke-miterlimit="10" stroke-linejoin="miter" fill="none" stroke="#929292" d="M38.03687 13.94075V16.77574M76.07373 13.94075V16.77574M114.1106 13.94075V16.77574M152.14748 13.94075V16.77574"/>
<path transform="matrix(1.00008,0,0,-1.00002,1.0933762,79.97928)" stroke-width=".19925" stroke-linecap="butt" stroke-miterlimit="10" stroke-linejoin="miter" fill="none" stroke="#929292" d="M19.01843 13.23222V17.48425M57.0553 13.23222V17.48425M133.12905 13.23222V17.48425M171.16591 13.23222V17.48425"/>
<path transform="matrix(1.00008,0,0,-1.00002,1.0933762,79.97928)" stroke-width=".19925" stroke-linecap="butt" stroke-miterlimit="10" stroke-linejoin="miter" fill="none" stroke="#929292" d="M93.67468 2.55971H96.50964M93.67468 28.1568H96.50964M93.67468 53.75389H96.50964"/>
<path transform="matrix(1.00008,0,0,-1.00002,1.0933762,79.97928)" stroke-width=".19925" stroke-linecap="butt" stroke-miterlimit="10" stroke-linejoin="miter" fill="none" stroke="#929292" d="M92.96616 40.95534H97.21817M92.96616 66.55243H97.21817"/>
<path transform="matrix(1.00008,0,0,-1.00002,1.0933762,79.97928)" stroke-width=".3985" stroke-linecap="butt" stroke-miterlimit="10" stroke-linejoin="miter" fill="none" stroke="#000000" d="M0 15.35825H188.19182"/>
<path transform="matrix(1.00008,0,0,-1.00002,189.30027,64.62072)" d="M1.99252 0-1.19551 1.59401 0 0-1.19551-1.59401"/>
<path transform="matrix(1.00008,0,0,-1.00002,1.0933762,79.97928)" stroke-width=".3985" stroke-linecap="butt" stroke-miterlimit="10" stroke-linejoin="miter" fill="none" stroke="#000000" d="M95.09216 0V74.79874"/>
<path transform="matrix(0,-1.00002,-1.00008,-0,96.193149,5.1790468)" d="M1.99252 0-1.19551 1.59401 0 0-1.19551-1.59401"/>
<use data-text="&#x2212;" xlink:href="#font_1_1" transform="matrix(15.839466,0,0,-15.838517,10.213104,80.7513)"/>
<use data-text="2" xlink:href="#font_2_2" transform="matrix(15.839466,0,0,-15.838517,21.610016,80.7513)"/>
<use data-text="&#x2212;" xlink:href="#font_1_1" transform="matrix(15.839466,0,0,-15.838517,48.253149,80.7513)"/>
<use data-text="1" xlink:href="#font_2_1" transform="matrix(15.839466,0,0,-15.838517,59.65006,80.7513)"/>
<use data-text="1" xlink:href="#font_2_1" transform="matrix(15.839466,0,0,-15.838517,130.03168,80.7513)"/>
<use data-text="2" xlink:href="#font_2_2" transform="matrix(15.839466,0,0,-15.838517,168.07172,80.7513)"/>
<use data-text="2" xlink:href="#font_2_2" transform="matrix(15.839466,0,0,-15.838517,82.26587,44.325567)"/>
<use data-text="4" xlink:href="#font_2_3" transform="matrix(15.839466,0,0,-15.838517,82.26587,18.72805)"/>
<g clip-path="url(#clip_3)">
<path transform="matrix(1.00008,0,0,-1.00002,1.0933762,79.97928)" stroke-width=".79701" stroke-linecap="butt" stroke-dasharray="2.98883,2.98883" stroke-miterlimit="10" stroke-linejoin="miter" fill="none" stroke="#0000ff" d="M95.09216 28.1568 96.45058 28.62177 97.80898 29.10414 99.16739 29.60391 100.52582 30.12135 101.88422 30.65852 103.24261 31.21461 104.60103 31.79118 105.95946 32.38837 107.31786 33.00745 108.67625 33.64928 110.03468 34.31418 111.39308 35.00325 112.7515 35.71765 114.10991 36.45755 115.46832 37.22495 116.82672 38.01973 118.18515 38.84357 119.54355 39.69762 120.90196 40.5825 122.26036 41.49889 123.61879 42.45007 124.97719 43.4353 126.3356 44.45547 127.69402 45.51367 129.05243 46.60934 130.41083 47.74625 131.76926 48.92332 133.12766 50.14316 134.48607 51.40868 135.84449 52.71938 137.2029 54.07703 138.5613 55.48488 139.91973 56.94417 141.27812 58.45607 142.63652 60.02248 143.99494 61.64636 145.35337 63.33012 146.71176 65.07329 148.07018 66.88045 149.42859 68.75455 150.787 70.69556 152.1454 72.70801 153.50383 74.79315 154.86223 76.95303 156.22063 79.19278 157.57906 81.51341 158.93747 83.91762 160.29587 86.41115 161.65427 88.99481"/>
</g>
<path transform="matrix(1.00008,0,0,-1.00002,1.0933762,79.97928)" stroke-width=".3985" stroke-linecap="butt" stroke-miterlimit="10" stroke-linejoin="miter" fill="none" stroke="#000000" d="M97.08472 28.1568C97.08472 29.25726 96.19264 30.14935 95.09216 30.14935 93.9917 30.14935 93.09961 29.25726 93.09961 28.1568 93.09961 27.05632 93.9917 26.16425 95.09216 26.16425 96.19264 26.16425 97.08472 27.05632 97.08472 28.1568ZM95.09216 28.1568"/>
<path transform="matrix(1.00008,0,0,-1.00002,1.0933762,79.97928)" stroke-width=".3985" stroke-linecap="butt" stroke-miterlimit="10" stroke-linejoin="miter" fill="none" stroke="#000000" d="M106.59393 31.35643C106.59393 32.4569 105.70186 33.34898 104.60138 33.34898 103.50092 33.34898 102.60883 32.4569 102.60883 31.35643 102.60883 30.25595 103.50092 29.36388 104.60138 29.36388 105.70186 29.36388 106.59393 30.25595 106.59393 31.35643ZM104.60138 31.35643"/>
<path transform="matrix(1.00008,0,0,-1.00002,1.0933762,79.97928)" stroke-width=".3985" stroke-linecap="butt" stroke-miterlimit="10" stroke-linejoin="miter" fill="none" stroke="#000000" d="M116.10315 35.35596C116.10315 36.45644 115.21107 37.34851 114.1106 37.34851 113.01013 37.34851 112.11804 36.45644 112.11804 35.35596 112.11804 34.2555 113.01013 33.3634 114.1106 33.3634 115.21107 33.3634 116.10315 34.2555 116.10315 35.35596ZM114.1106 35.35596"/>
<path transform="matrix(1.00008,0,0,-1.00002,1.0933762,79.97928)" stroke-width=".3985" stroke-linecap="butt" stroke-miterlimit="10" stroke-linejoin="miter" fill="none" stroke="#000000" d="M125.61238 40.3554C125.61238 41.45586 124.72029 42.34795 123.61983 42.34795 122.51935 42.34795 121.62727 41.45586 121.62727 40.3554 121.62727 39.25493 122.51935 38.36284 123.61983 38.36284 124.72029 38.36284 125.61238 39.25493 125.61238 40.3554ZM123.61983 40.3554"/>
<path transform="matrix(1.00008,0,0,-1.00002,1.0933762,79.97928)" stroke-width=".3985" stroke-linecap="butt" stroke-miterlimit="10" stroke-linejoin="miter" fill="none" stroke="#000000" d="M135.1216 46.60468C135.1216 47.70515 134.2295 48.59723 133.12905 48.59723 132.02857 48.59723 131.13649 47.70515 131.13649 46.60468 131.13649 45.50421 132.02857 44.61212 133.12905 44.61212 134.2295 44.61212 135.1216 45.50421 135.1216 46.60468ZM133.12905 46.60468"/>
<path transform="matrix(1.00008,0,0,-1.00002,1.0933762,79.97928)" stroke-width=".3985" stroke-linecap="butt" stroke-miterlimit="10" stroke-linejoin="miter" fill="none" stroke="#000000" d="M144.63082 54.41629C144.63082 55.51677 143.73873 56.40884 142.63826 56.40884 141.53778 56.40884 140.6457 55.51677 140.6457 54.41629 140.6457 53.31583 141.53778 52.42374 142.63826 52.42374 143.73873 52.42374 144.63082 53.31583 144.63082 54.41629ZM142.63826 54.41629"/>
<path transform="matrix(1.00008,0,0,-1.00002,1.0933762,79.97928)" stroke-width=".3985" stroke-linecap="butt" stroke-miterlimit="10" stroke-linejoin="miter" fill="none" stroke="#000000" d="M154.14003 64.18082C154.14003 65.28128 153.24794 66.17337 152.14748 66.17337 151.047 66.17337 150.15493 65.28128 150.15493 64.18082 150.15493 63.08034 151.047 62.18826 152.14748 62.18826 153.24794 62.18826 154.14003 63.08034 154.14003 64.18082ZM152.14748 64.18082"/>
<path transform="matrix(1.00008,0,0,-1.00002,1.0933762,79.97928)" stroke-width=".3985" stroke-linecap="butt" stroke-miterlimit="10" stroke-linejoin="miter" fill="none" stroke="#000000" d="M163.64925 76.38647C163.64925 77.48694 162.75716 78.37903 161.6567 78.37903 160.55622 78.37903 159.66414 77.48694 159.66414 76.38647 159.66414 75.286 160.55622 74.39392 161.6567 74.39392 162.75716 74.39392 163.64925 75.286 163.64925 76.38647ZM161.6567 76.38647"/>
<path transform="matrix(1.00008,0,0,-1.00002,1.0933762,79.97928)" stroke-width=".3985" stroke-linecap="butt" stroke-miterlimit="10" stroke-linejoin="miter" fill="none" stroke="#000000" d=""/>
<use data-text="t" xlink:href="#font_4_1" transform="matrix(15.839466,0,0,-15.838517,180.79975,61.0839)"/>
<use data-text="y" xlink:href="#font_4_2" transform="matrix(15.839466,0,0,-15.838517,100.45332,14.418968)"/>
</svg>
