<svg xmlns="http://www.w3.org/2000/svg" xmlns:xlink="http://www.w3.org/1999/xlink" version="1.1" width="126" height="82" viewBox="0 0 126 82">
<defs>
<path id="font_1_1" d="M.42799378 .45222474 .43899537 .49023438H.31199647L.34599305 .6092224 .33399964 .6162262 .23699951 .53923037 .22399903 .49023438H.14299011L.13198853 .45222474H.21499634L.125 .08627319C.10998535 .029266358 .12199402-.01171875 .17199707-.01171875 .2519989-.01171875 .31599427 .054275514 .35598756 .1292572L.33399964 .1462555C.31098939 .10726929 .2599945 .040267946 .22898865 .040267946 .20799256 .040267946 .20799256 .0632782 .21398926 .088272098L.30299378 .45222474H.42799378Z"/>
<path id="font_2_3" d="M.07398987 .2861328V.21612549H.31900025V.2861328H.07398987Z"/>
<path id="font_2_5" d="M.43699647 0V.0289917L.35299684 .035995485C.33198548 .037994386 .31999208 .04598999 .31999208 .08496094V.67367556L.31498719 .6796875 .10899353 .6446991V.6197052L.20199585 .6087036C.21899414 .6067047 .22599793 .5987091 .22599793 .56973269V.08496094C.22599793 .065979007 .22299195 .053985597 .21699524 .04698181 .21199036 .039993287 .20399475 .036987306 .19299317 .035995485L.10899353 .0289917V0H.43699647Z"/>
<path id="font_2_4" d="M.2649994 .64468386C.3600006 .64468386 .3869934 .49682618 .3869934 .33398438 .3869934 .17112732 .3600006 .023269654 .2649994 .023269654 .16999817 .023269654 .14299011 .17112732 .14299011 .33398438 .14299011 .49682618 .16999817 .64468386 .2649994 .64468386M.2649994 .6796875C.099990848 .6796875 .040985109 .53378298 .040985109 .33398438 .040985109 .13417053 .099990848-.01171875 .2649994-.01171875 .42999269-.01171875 .4889984 .13417053 .4889984 .33398438 .4889984 .53378298 .42999269 .6796875 .2649994 .6796875Z"/>
<path id="font_2_6" d="M.4850006 .13195801 .45700074 .13696289C.43598939 .08299255 .41600038 .07598877 .37599183 .07598877H.11999512C.13598633 .1279602 .19499207 .19892884 .28799439 .2658844 .38398744 .33584596 .45799256 .38082887 .45799256 .49276734 .45799256 .63168337 .3659973 .6796875 .26098634 .6796875 .12399292 .6796875 .052993776 .5967102 .052993776 .54473879 .052993776 .51075747 .09098816 .49476625 .10798645 .49476625 .12599182 .49476625 .1329956 .50476077 .13699341 .5217438 .15299988 .5897064 .19198609 .64468386 .2539978 .64468386 .33099366 .64468386 .35299684 .5797119 .35299684 .50675967 .35299684 .3998108 .29899598 .33984376 .21199036 .26289369 .08898926 .15594483 .04598999 .08798218 .026992798 .009994507L.036987306 0H.45098878L.4850006 .13195801Z"/>
<path id="font_2_7" d="M.12998963 .3657837C.12998963 .3487854 .1349945 .33779908 .147995 .33779908 .1599884 .33779908 .18699646 .34777833 .23498535 .34777833 .31999208 .34777833 .36799623 .27090455 .36799623 .18403626 .36799623 .065216068 .30899049 .023269654 .23799134 .023269654 .17199707 .023269654 .1289978 .07319641 .10998535 .12911988 .10398865 .14808655 .09399414 .15707398 .07998657 .15707398 .06199646 .15707398 .026992798 .13809204 .026992798 .10215759 .026992798 .05921936 .09599304-.01171875 .23699951-.01171875 .38198854-.01171875 .47299195 .06121826 .47299195 .18902588 .47299195 .32281495 .35798646 .3627777 .30299378 .3677826V.3717804C.35699464 .38078309 .44400025 .4207611 .44400025 .5197296 .44400025 .6306915 .35699464 .6796875 .25 .6796875 .117996219 .6796875 .052993776 .60369876 .052993776 .5607147 .052993776 .5297241 .08799744 .51272585 .101989749 .51272585 .114990238 .51272585 .12298584 .5197296 .1269989 .5327301 .14898682 .60069277 .18699646 .64468386 .24299622 .64468386 .32199098 .64468386 .34098817 .57470706 .34098817 .51872256 .34098817 .4587555 .31999208 .38378907 .23498535 .38378907 .18699646 .38378907 .1599884 .39378358 .147995 .39378358 .1349945 .39378358 .12998963 .38378907 .12998963 .3657837Z"/>
<path id="font_2_8" d="M.2999878 .17871094V.0769043C.2999878 .04296875 .2889862 .036987306 .2649994 .034988405L.20098877 .0289917V0H.46499635V.0289917L.41999818 .033981325C.39698792 .036987306 .3899994 .04296875 .3899994 .0769043V.17871094H.49299623V.22570801H.3899994V.66796877H.31698609C.22299195 .5298767 .11099243 .35577394 .018997193 .19970703L.027999878 .17871094H.2999878M.09098816 .22570801C.15098572 .33476258 .22099304 .4498291 .2979889 .5709076H.2999878V.22570801H.09098816Z"/>
<path id="font_2_9" d="M.42599488 .5919647 .44999696 .6599579 .44499208 .66796877H.11099243L.100997928 .65896609 .08099365 .32388307 .10499573 .31188966C.14698792 .35983277 .18798828 .3828125 .24198914 .3828125 .30599977 .3828125 .37599183 .3358612 .37599183 .20404053 .37599183 .10116577 .33399964 .023269654 .24699402 .023269654 .1769867 .023269654 .14099121 .07420349 .12098694 .13113404 .115997318 .14611817 .10699463 .15510559 .09298706 .15510559 .07299805 .15510559 .039993287 .13513184 .039993287 .10217285 .039993287 .056228639 .10998535-.01171875 .23999024-.01171875 .40499879-.01171875 .47999574 .0881958 .47999574 .21502686 .47999574 .35484315 .3919983 .4268036 .272995 .4268036 .21798706 .4268036 .15899658 .4028015 .1269989 .3738098L.125 .37580873 .147995 .56292727C.15098572 .58795168 .1579895 .5919647 .1769867 .5919647H.42599488Z"/>
<path id="font_1_2" d="M.5329895 .48995973C.5039978 .388031 .48799134 .33506776 .46199037 .2741089 .41799928 .173172 .33099366 .040267946 .24798584 .040267946 .21598816 .040267946 .20799256 .070251468 .22299195 .12820435L.31900025 .4970703 .31399537 .50205996 .13198853 .47375489 .12599182 .4497528 .18798828 .44476319C.21199036 .44276429 .21099854 .42778016 .20298767 .39682008L.13398743 .13316345C.11299133 .053253175 .12098694-.01171875 .20098877-.01171875 .29699708-.01171875 .4019928 .09420776 .46199037 .21005249H.46398927L.43099977 .096206668C.4119873 .029266358 .42399598-.01171875 .47698976-.01171875 .548996-.01171875 .60899356 .057250978 .6439972 .13116455L.6199951 .14613343C.59999087 .11218262 .55599978 .040267946 .5279999 .040267946 .5069885 .040267946 .5069885 .06324768 .5149994 .09420776L.621994 .5019531 .5329895 .48995973Z"/>
<path id="font_2_1" d="M.1749878 .2822113C.1749878 .56832888 .2619934 .65437319 .32499696 .66737368V.6923828C.1499939 .685379 .10499573 .46829225 .10499573 .2822113 .10499573 .09614563 .1499939-.12094116 .32499696-.12792969V-.10293579C.2669983-.090927127 .1749878-.0059051516 .1749878 .2822113Z"/>
<path id="font_2_2" d="M.1749878 .2822113C.1749878-.0059051516 .08299255-.090927127 .024993897-.10293579V-.12792969C.19999695-.12094116 .24499512 .09614563 .24499512 .2822113 .24499512 .46829225 .19999695 .685379 .024993897 .6923828V.66737368C.08799744 .65437319 .1749878 .56832888 .1749878 .2822113Z"/>
<path id="font_3_2" d="M.6349945 .14315796V.20117188H.084991458V.14315796H.6349945M.6349945 .36288453V.42089845H.084991458V.36288453H.6349945Z"/>
<path id="font_2_15" d="M.18998719 .7480469C.13999939 .7020416 .07199097 .6350403 .07199097 .56404116 .07199097 .5100403 .10398865 .47703553 .13699341 .4780426 .16699219 .4780426 .18499756 .4990387 .18499756 .5260315 .18499756 .56204226 .1519928 .58303835 .1519928 .6200409 .1519928 .6580353 .17599488 .6960449 .20698548 .7320404L.18998719 .7480469M.36999513 .7480469C.31999208 .7020416 .2519989 .6350403 .2519989 .56404116 .2519989 .5100403 .28399659 .47703553 .31698609 .4780426 .34700013 .4780426 .36499024 .4990387 .36499024 .5260315 .36499024 .56204226 .33198548 .58303835 .33198548 .6200409 .33198548 .6580353 .35598756 .6960449 .3869934 .7320404L.36999513 .7480469Z"/>
<path id="font_2_13" d="M.28799439 .5019531C.12799073 .5019531 .04899597 .40698243 .04899597 .24510193 .04899597 .083236698 .12799073-.01171875 .28799439-.01171875 .44999696-.01171875 .5279999 .083236698 .5279999 .24510193 .5279999 .40698243 .44999696 .5019531 .28799439 .5019531M.15299988 .24510193C.15299988 .38301087 .19699097 .46694947 .28799439 .46694947 .3809967 .46694947 .42399598 .38301087 .42399598 .24510193 .42399598 .10720825 .3809967 .023269654 .28799439 .023269654 .19699097 .023269654 .15299988 .10720825 .15299988 .24510193Z"/>
<path id="font_2_10" d="M.20098877 .45022584H.32299806V.49023438H.20098877L.19699097 .60220339C.19400025 .6971741 .22898865 .70718386 .24499512 .70718386 .2659912 .70718386 .28799439 .6971741 .31298829 .6391907 .31799317 .62919619 .32499696 .6221924 .33999635 .6221924 .3600006 .6221924 .3889923 .6391907 .3889923 .66918948 .3889923 .70217898 .34700013 .7421875 .2669983 .7421875 .21199036 .7421875 .16499329 .71717837 .13999939 .67918398 .116989139 .64419558 .10699463 .5912018 .10699463 .5252228V.49023438H.02999878V.45022584H.10699463V.087020877C.10699463 .035995485 .10398865 .033996583 .03199768 .0289917V0H.29599V.0289917C.20498657 .032989503 .20098877 .034988405 .20098877 .08602905V.45022584Z"/>
<path id="font_2_16" d="M.08898926 .47218324C.13899231 .5181732 .20698548 .58517459 .20698548 .6561737 .20698548 .71017459 .1749878 .7431793 .14199829 .7421875 .11199951 .7421875 .09399414 .72117617 .09399414 .69418337 .09399414 .6581726 .1269989 .6371765 .1269989 .60017397 .1269989 .56217959 .102996829 .5241852 .07199097 .48817445L.08898926 .47218324M.2689972 .47218324C.31900025 .5181732 .3869934 .58517459 .3869934 .6561737 .3869934 .71017459 .35499574 .7431793 .32199098 .7421875 .2919922 .7421875 .27398683 .72117617 .27398683 .69418337 .27398683 .6581726 .30699159 .6371765 .30699159 .60017397 .30699159 .56217959 .2829895 .5241852 .2519989 .48817445L.2689972 .47218324Z"/>
<path id="font_2_12" d="M.5289917 .34295655C.5289917 .4439392 .47399903 .5019531 .38198854 .5019531 .30799867 .5019531 .2619934 .46594239 .19999695 .4259491L.18598938 .5019531 .036987306 .47694398V.45195008L.07499695 .4469452C.100997928 .4429474 .10699463 .4379425 .10699463 .40194703V.08699036C.10699463 .035995485 .10398865 .033996583 .03199768 .0289917V0H.27598573V.0289917C.20498657 .033996583 .20098877 .035995485 .20098877 .08699036V.32095338C.20098877 .34596253 .20298767 .35995484 .21099854 .37594605 .23199463 .4149475 .2769928 .44795228 .32998658 .44795228 .397995 .44795228 .43499757 .40994264 .43499757 .32295228V.08699036C.43499757 .035995485 .43199159 .033996583 .3600006 .0289917V0H.60398867V.0289917C.5329895 .033996583 .5289917 .035995485 .5289917 .08699036V.34295655Z"/>
<path id="font_2_14" d="M.36698915 .35102845V.46794129C.33399964 .49194337 .2829895 .5019531 .23799134 .5019531 .12998963 .5019531 .056991579 .45095826 .055999757 .35603334 .056991579 .27308656 .12399292 .2361145 .20698548 .21113587 .2519989 .19714356 .31498719 .17416382 .31498719 .10621643 .31498719 .055252077 .2749939 .023269654 .22200012 .023269654 .14099121 .023269654 .09599304 .082229617 .07598877 .16716004H.04699707L.056991579 .03627014C.09298706 .004272461 .1539917-.01171875 .21299744-.01171875 .33198548-.01171875 .3999939 .051254274 .3999939 .13618469 .3999939 .2241211 .34599305 .26409913 .24299622 .29606629 .20199585 .30906678 .13598633 .3300476 .13598633 .3860016 .13699341 .43795777 .17599488 .46694947 .22599793 .46694947 .29699708 .46694947 .33099366 .4119873 .33799745 .35102845H.36698915Z"/>
<path id="font_2_11" d="M.036987306 .47694398V.45195008L.07499695 .4469452C.100997928 .4429474 .10699463 .43795777 .10699463 .40194703V.08699036C.10699463 .035995485 .10398865 .033996583 .03199768 .0289917V0H.27598573V.0289917C.20498657 .033996583 .20098877 .035995485 .20098877 .08699036V.49609376L.19400025 .5020752 .036987306 .47694398M.15299988 .71484377C.116989139 .71484377 .09199524 .6888428 .09199524 .65283206 .09199524 .61782839 .116989139 .5928345 .15299988 .5928345 .18998719 .5928345 .21299744 .61782839 .21398926 .65283206 .21398926 .6888428 .18998719 .71484377 .15299988 .71484377Z"/>
<path id="font_3_1" d="M.07998657 .28173829C.07998657 .24674988 .10798645 .21875 .14299011 .21875 .17799378 .21875 .20599365 .24674988 .20599365 .28173829 .20599365 .31674195 .17799378 .34474183 .14299011 .34474183 .10798645 .34474183 .07998657 .31674195 .07998657 .28173829Z"/>
</defs>
<path transform="matrix(1.00005,0,0,-1.00006,24.320664,41.064683)" d="M-19.84267-39.68535V39.68535H39.68535V-39.68535ZM39.68535 39.68535" fill="#d9d9ff"/>
<path transform="matrix(1.00005,0,0,-1.00006,24.320664,41.064683)" d="M39.68535-39.68535V39.68535H99.2134V-39.68535ZM99.2134 39.68535" fill="#d9f0d9"/>
<path transform="matrix(1.00005,0,0,-1.00006,24.320664,41.064683)" stroke-width=".3985" stroke-linecap="butt" stroke-miterlimit="10" stroke-linejoin="miter" fill="none" stroke="#000000" d="M-19.84267 0H98.75511"/>
<path transform="matrix(1.00005,0,0,-1.00006,123.08071,41.064683)" stroke-width=".31879" stroke-linecap="round" stroke-linejoin="round" fill="none" stroke="#000000" d="M-1.19551 1.59401C-1.09587 .99626 0 .09961 .29886 0 0-.09961-1.09587-.99626-1.19551-1.59401"/>
<path transform="matrix(1.00005,0,0,-1.00006,24.320664,41.064683)" stroke-width=".3985" stroke-linecap="butt" stroke-miterlimit="10" stroke-linejoin="miter" fill="none" stroke="#000000" d="M0-39.68535V39.22707"/>
<path transform="matrix(0,-1.00006,-1.00005,-0,24.320664,1.8352585)" stroke-width=".31879" stroke-linecap="round" stroke-linejoin="round" fill="none" stroke="#000000" d="M-1.19551 1.59401C-1.09587 .99626 0 .09961 .29886 0 0-.09961-1.09587-.99626-1.19551-1.59401"/>
<use data-text="t" xlink:href="#font_1_1" transform="matrix(7.332866,0,0,-7.3329398,119.99144,48.983156)"/>
<path transform="matrix(1.00005,0,0,-1.00006,24.320664,41.064683)" stroke-width=".3985" stroke-linecap="butt" stroke-miterlimit="10" stroke-linejoin="miter" fill="none" stroke="#929292" d="M-19.84267 1.98438V-1.98438"/>
<use data-text="-" xlink:href="#font_2_3" transform="matrix(7.332866,0,0,-7.3329398,1.0935059,50.961275)"/>
<use data-text="1" xlink:href="#font_2_5" transform="matrix(7.332866,0,0,-7.3329398,3.9679948,50.961275)"/>
<path transform="matrix(1.00005,0,0,-1.00006,24.320664,41.064683)" stroke-width=".3985" stroke-linecap="butt" stroke-miterlimit="10" stroke-linejoin="miter" fill="none" stroke="#929292" d="M0 1.98438V-1.98438"/>
<use data-text="0" xlink:href="#font_2_4" transform="matrix(7.332866,0,0,-7.3329398,22.375565,50.961275)"/>
<path transform="matrix(1.00005,0,0,-1.00006,24.320664,41.064683)" stroke-width=".3985" stroke-linecap="butt" stroke-miterlimit="10" stroke-linejoin="miter" fill="none" stroke="#929292" d="M19.84267 1.98438V-1.98438"/>
<use data-text="1" xlink:href="#font_2_5" transform="matrix(7.332866,0,0,-7.3329398,42.21956,50.961275)"/>
<path transform="matrix(1.00005,0,0,-1.00006,24.320664,41.064683)" stroke-width=".3985" stroke-linecap="butt" stroke-miterlimit="10" stroke-linejoin="miter" fill="none" stroke="#929292" d="M39.68535 1.98438V-1.98438"/>
<use data-text="2" xlink:href="#font_2_6" transform="matrix(7.332866,0,0,-7.3329398,62.06355,50.961275)"/>
<path transform="matrix(1.00005,0,0,-1.00006,24.320664,41.064683)" stroke-width=".3985" stroke-linecap="butt" stroke-miterlimit="10" stroke-linejoin="miter" fill="none" stroke="#929292" d="M59.52802 1.98438V-1.98438"/>
<use data-text="3" xlink:href="#font_2_7" transform="matrix(7.332866,0,0,-7.3329398,81.90654,50.961275)"/>
<path transform="matrix(1.00005,0,0,-1.00006,24.320664,41.064683)" stroke-width=".3985" stroke-linecap="butt" stroke-miterlimit="10" stroke-linejoin="miter" fill="none" stroke="#929292" d="M79.37071 1.98438V-1.98438"/>
<use data-text="4" xlink:href="#font_2_8" transform="matrix(7.332866,0,0,-7.3329398,101.750537,50.961275)"/>
<path transform="matrix(1.00005,0,0,-1.00006,24.320664,41.064683)" stroke-width=".3985" stroke-linecap="butt" stroke-miterlimit="10" stroke-linejoin="miter" fill="none" stroke="#929292" d="M99.2134 1.98438V-1.98438"/>
<use data-text="5" xlink:href="#font_2_9" transform="matrix(7.332866,0,0,-7.3329398,121.59452,50.961275)"/>
<path transform="matrix(1.00005,0,0,-1.00006,24.320664,41.064683)" stroke-width="1.19553" stroke-linecap="butt" stroke-miterlimit="10" stroke-linejoin="miter" fill="none" stroke="#0000ff" d="M-19.84267 0H-19.54868-19.25467-18.96068-18.66669-18.37268-18.07869-17.7847-17.4907-17.19672-16.90271-16.60872-16.31473-16.02074-15.72673-15.43274-15.13875-14.84476-14.55075-14.25676-13.96277-13.66878-13.37477-13.08078-12.78679-12.4928-12.1988-11.9048-11.61081-11.31682-11.02281-10.72882-10.43483-10.14082-9.84685-9.55284-9.25885-8.96486-8.67085-8.37686-8.08287-7.78886-7.49489-7.20088-6.90689-6.6129-6.3189-6.0249-5.73091-5.4369-5.14293-4.84892-4.55493-4.26094-3.96693-3.67294-3.37895-3.08496-2.79097-2.49696-2.20297-1.90898-1.61497-1.32098-1.027-.733-.43901-.145 .14894 .44295 .73692 1.03093 1.32492 1.61891 1.91292 2.20691 2.5009 2.7949 3.08888 3.38289 3.67688 3.97087 4.26488 4.55887 4.85286 5.14687 5.44084 5.73485 6.02884 6.32283 6.61684 6.91083 7.20482 7.49883 7.7928 8.0868 8.3808 8.67479 8.9688 9.26279 9.55678 9.85078 10.14476 10.43877 10.73276 11.02675 11.32076 11.61475 11.90874 12.20273 12.49673 12.79073 13.08472 13.37871 13.6727 13.9667 14.2607 14.55469 14.8487 15.14268 15.43668 15.73067 16.02466 16.31866 16.61266 16.90665 17.20065 17.49463 17.78864 18.08263 18.37662 18.67062 18.96461 19.2586 19.55261 19.84659 20.1406 20.43459 20.72858 21.02258 21.31657 21.61057 21.90457 22.19855 22.49255 22.78654 23.08054 23.37454 23.66853 23.96252 24.25653 24.5505 24.84451 25.1385 25.4325 25.7265 26.0205 26.31448 26.60849 26.90247 27.19647 27.49046 27.78445 28.07846 28.37245 28.66644 28.96043 29.25444 29.54843 29.84242 30.13641 30.4304 30.72441 31.0184 31.3124 31.6064 31.90039 32.19438 32.48837 32.78236 33.07637 33.37036 33.66435 33.95836 34.25233 34.54634 34.84033 35.13432 35.42833 35.72232 36.01631 36.31032 36.6043 36.8983 37.19229 37.48628 37.78029 38.07428 38.36827 38.66228"/>
<path transform="matrix(1.00005,0,0,-1.00006,24.320664,41.064683)" stroke-width=".79701" stroke-linecap="butt" stroke-dasharray="2.98883,2.98883" stroke-miterlimit="10" stroke-linejoin="miter" fill="none" stroke="#8080ff" d="M-19.84267-16.69621-19.54868-16.53545-19.25467-16.37103-18.96068-16.20331-18.66669-16.03224-18.37268-15.85722-18.07869-15.6786-17.7847-15.49663-17.4907-15.31102-17.19672-15.1227-16.90271-14.93074-16.60872-14.73575-16.31473-14.53712-16.02074-14.33517-15.72673-14.1302-15.43274-13.9225-15.13875-13.71176-14.84476-13.498-14.55075-13.28091-14.25676-13.06111-13.96277-12.83826-13.66878-12.6124-13.37477-12.38379-13.08078-12.15308-12.78679-11.91963-12.4928-11.68317-12.1988-11.44427-11.9048-11.20267-11.61081-10.95894-11.31682-10.71248-11.02281-10.4642-10.72882-10.2135-10.43483-9.96007-10.14082-9.70454-9.84685-9.44688-9.55284-9.1874-9.25885-8.92609-8.96486-8.66269-8.67085-8.39716-8.37686-8.12979-8.08287-7.86063-7.78886-7.58965-7.49489-7.31744-7.20088-7.04344-6.90689-6.76822-6.6129-6.49118-6.3189-6.21233-6.0249-5.93227-5.73091-5.65099-5.4369-5.36848-5.14293-5.08508-4.84892-4.80017-4.55493-4.51466-4.26094-4.22794-3.96693-3.94029-3.67294-3.65175-3.37895-3.36229-3.08496-3.07224-2.79097-2.78157-2.49696-2.49-2.20297-2.19812-1.90898-1.90565-1.61497-1.61285-1.32098-1.31978-1.027-1.02608-.733-.73239-.43901-.4387-.145-.145 .14894 .14894 .44295 .44263 .73692 .73633 1.03093 1.03001 1.32492 1.32372 1.61891 1.6168 1.91292 1.90959 2.20691 2.20206 2.5009 2.49394 2.7949 2.7855 3.08888 3.07587 3.38289 3.36623 3.67688 3.65538 3.97087 3.94423 4.26488 4.23157 4.55887 4.5183 4.85286 4.80411 5.14687 5.08902 5.44084 5.37242 5.73485 5.65492 6.02884 5.9359 6.32283 6.21596 6.61684 6.4945 6.91083 6.77185 7.20482 7.04707 7.49883 7.32108 7.7928 7.59329 8.0868 7.86426 8.3808 8.13344 8.67479 8.40077 8.9688 8.66602 9.26279 8.92973 9.55678 9.19104 9.85078 9.4505 10.14476 9.70816 10.43877 9.9637 10.73276 10.21712 11.02675 10.46722 11.32076 10.7158 11.61475 10.96227 11.90874 11.206 12.20273 11.44762 12.49673 11.6865 12.79073 11.92265 13.08472 12.1564 13.37871 12.38713 13.6727 12.61511 13.9667 12.84099 14.2607 13.06383 14.55469 13.28394 14.8487 13.50073 15.14268 13.71419 15.43668 13.92522 15.73067 14.13292 16.02466 14.33821 16.31866 14.53986 16.61266 14.73817 16.90665 14.93346 17.20065 15.1251 17.49463 15.31345 17.78864 15.49905 18.08263 15.68102 18.37662 15.85965 18.67062 16.03465 18.96461 16.20573 19.2586 16.37346 19.55261 16.53755 19.84659 16.69835 20.1406 16.85547 20.43459 17.00899 20.72858 17.15855 21.02258 17.3039 21.31657 17.44589 21.61057 17.58395 21.90457 17.7181 22.19855 17.84859 22.49255 17.97543 22.78654 18.09746 23.08054 18.21585 23.37454 18.3306 23.66853 18.44112 23.96252 18.54768 24.25653 18.65063 24.5505 18.74873 24.84451 18.84259 25.1385 18.93253 25.4325 19.0179 25.7265 19.09996 26.0205 19.17776 26.31448 19.25165 26.60849 19.32039 26.90247 19.38487 27.19647 19.44542 27.49046 19.50203 27.78445 19.55411 28.07846 19.60196 28.37245 19.64525 28.66644 19.68462 28.96043 19.71913 29.25444 19.74911 29.54843 19.77544 29.84242 19.79755 30.13641 19.8154 30.4304 19.82843 30.72441 19.8366 31.0184 19.84114H31.3124L31.6064 19.8369 31.90039 19.82843 32.19438 19.8157 32.48837 19.79785 32.78236 19.77605 33.07637 19.75 33.37036 19.71974 33.66435 19.68521 33.95836 19.64616 34.25233 19.60287 34.54634 19.55533 34.84033 19.50294 35.13432 19.44662 35.42833 19.38638 35.72232 19.32188 36.01631 19.25345 36.31032 19.17958 36.6043 19.10207 36.8983 19.02032 37.19229 18.93463 37.48628 18.84471 37.78029 18.75085 38.07428 18.65274 38.36827 18.55011 38.66228 18.44353"/>
<path transform="matrix(1.00005,0,0,-1.00006,24.320664,41.064683)" stroke-width="1.19553" stroke-linecap="butt" stroke-miterlimit="10" stroke-linejoin="miter" fill="none" stroke="#009900" d="M39.68535 18.04176 39.98418 17.9155 40.28302 17.785 40.58186 17.65088 40.88069 17.5125 41.17953 17.3702 41.47838 17.22334 41.77722 17.07288 42.07605 16.91876 42.37488 16.76071 42.67372 16.59903 42.97256 16.43372 43.27141 16.26447 43.57027 16.09128 43.8691 15.91446 44.16792 15.734 44.46677 15.55022 44.76561 15.3628 45.06445 15.17204 45.36328 14.97827 45.66212 14.77995 45.96097 14.57892 46.2598 14.37483 46.55864 14.16714 46.85748 13.95609 47.15631 13.74236 47.45515 13.52556 47.754 13.30515 48.05284 13.0817 48.35168 12.85551 48.65051 12.62631 48.94936 12.3944 49.2482 12.15973 49.54704 11.92265 49.84589 11.68225 50.14471 11.43913 50.44354 11.19357 50.74239 10.9459 51.04123 10.69553 51.34007 10.4427 51.63892 10.18745 51.93774 9.9301 52.23659 9.67001 52.53542 9.4075 52.83426 9.1435 53.1331 8.87735 53.43193 8.6091 53.73077 8.33902 54.02963 8.06712 54.32848 7.7928 54.6273 7.51698 54.92613 7.23994 55.22498 6.96078 55.52382 6.6804 55.82266 6.39792 56.1215 6.11453 56.42033 5.82962 56.71916 5.54318 57.018 5.25554 57.31685 4.9667 57.61569 4.67665 57.91454 4.38597 58.21336 4.09442 58.5122 3.80133 58.81105 3.50763 59.1099 3.21304 59.40874 2.91783 59.70757 2.62201 60.00641 2.32559 60.30525 2.02827 60.6041 1.73096 60.90292 1.43301 61.20175 1.13478 61.5006 .83624 61.79944 .53772 62.09828 .23917 62.39713-.05933 62.69597-.35817 62.99478-.65671 63.29362-.95525 63.59247-1.25377 63.89131-1.5517 64.19016-1.84964 64.489-2.14665 64.78784-2.44368 65.08667-2.73978 65.38551-3.03561 65.68436-3.33052 65.98318-3.6245 66.28203-3.9179 66.58087-4.21068 66.87971-4.50194 67.17854-4.79231 67.47737-5.08206 67.77621-5.3703 68.07506-5.65733 68.3739-5.94315 68.67274-6.22746 68.97159-6.51086 69.27042-6.79243 69.56926-7.0722 69.8681-7.35045 70.16695-7.6272 70.46579-7.90211 70.76462-8.1755 71.06346-8.44681 71.36229-8.71628 71.66113-8.98392 71.95998-9.24916 72.2588-9.51257 72.55765-9.77356 72.85649-10.03242 73.15533-10.28949 73.45416-10.54382 73.753-10.79573 74.05183-11.0449 74.35068-11.29199 74.64952-11.53632 74.94838-11.77824 75.24722-12.01712 75.54604-12.25359 75.84488-12.48764 76.14372-12.71835 76.44257-12.94604 76.74141-13.171 77.04024-13.39293 77.33908-13.61185 77.63791-13.82773 77.93675-14.04088 78.2356-14.2504 78.53442-14.45628 78.83327-14.65944 79.13211-14.85896 79.43095-15.05548 79.7298-15.24835 80.02864-15.43819 80.32747-15.62408 80.62631-15.80635 80.92516-15.98532 81.224-16.16031 81.52284-16.33168 81.82166-16.50002 82.1205-16.66412 82.41934-16.8246 82.71819-16.98083 83.01703-17.13312 83.31586-17.28209 83.6147-17.4268 83.91353-17.56792 84.21237-17.70476 84.51122-17.83798 84.81006-17.96666 85.10889-18.09142 85.40775-18.21161 85.70659-18.32848 86.00542-18.44081 86.30426-18.5489 86.60309-18.65367 86.90193-18.75328 87.20078-18.84865 87.49962-18.93948 87.79846-19.02638 88.09727-19.10873 88.39612-19.18745 88.69496-19.26193 88.9938-19.33127 89.29265-19.39607 89.59148-19.45692 89.89032-19.51323 90.18916-19.56502 90.488-19.61255 90.78685-19.65585 91.0857-19.69492 91.38452-19.72882 91.68336-19.75818 91.98221-19.783 92.28104-19.80359 92.57988-19.82025 92.87871-19.83206 93.17755-19.83965 93.4764-19.84236 93.77524-19.84024 94.07408-19.83357 94.3729-19.8227 94.67174-19.80724 94.97058-19.78786 95.26942-19.76363 95.56827-19.73517 95.86713-19.70186 96.16595-19.66373 96.46478-19.62134 96.76363-19.57469 97.06247-19.52414 97.36131-19.46872 97.66014-19.40909 97.95898-19.34428 98.25783-19.27586 98.55666-19.20259 98.8555-19.12479 99.15433-19.04333"/>
<path transform="matrix(1.00005,0,0,-1.00006,24.320664,41.064683)" stroke-width=".79701" stroke-linecap="butt" stroke-dasharray="2.98883,2.98883" stroke-miterlimit="10" stroke-linejoin="miter" fill="none" stroke="#80cc80" d="M39.68535 19.84267H39.98418 40.28302 40.58186 40.88069 41.17953 41.47838 41.77722 42.07605 42.37488 42.67372 42.97256 43.27141 43.57027 43.8691 44.16792 44.46677 44.76561 45.06445 45.36328 45.66212 45.96097 46.2598 46.55864 46.85748 47.15631 47.45515 47.754 48.05284 48.35168 48.65051 48.94936 49.2482 49.54704 49.84589 50.14471 50.44354 50.74239 51.04123 51.34007 51.63892 51.93774 52.23659 52.53542 52.83426 53.1331 53.43193 53.73077 54.02963 54.32848 54.6273 54.92613 55.22498 55.52382 55.82266 56.1215 56.42033 56.71916 57.018 57.31685 57.61569 57.91454 58.21336 58.5122 58.81105 59.1099 59.40874 59.70757 60.00641 60.30525 60.6041 60.90292 61.20175 61.5006 61.79944 62.09828 62.39713 62.69597 62.99478 63.29362 63.59247 63.89131 64.19016 64.489 64.78784 65.08667 65.38551 65.68436 65.98318 66.28203 66.58087 66.87971 67.17854 67.47737 67.77621 68.07506 68.3739 68.67274 68.97159 69.27042 69.56926 69.8681 70.16695 70.46579 70.76462 71.06346 71.36229 71.66113 71.95998 72.2588 72.55765 72.85649 73.15533 73.45416 73.753 74.05183 74.35068 74.64952 74.94838 75.24722 75.54604 75.84488 76.14372 76.44257 76.74141 77.04024 77.33908 77.63791 77.93675 78.2356 78.53442 78.83327 79.13211 79.43095 79.7298 80.02864 80.32747 80.62631 80.92516 81.224 81.52284 81.82166 82.1205 82.41934 82.71819 83.01703 83.31586 83.6147 83.91353 84.21237 84.51122 84.81006 85.10889 85.40775 85.70659 86.00542 86.30426 86.60309 86.90193 87.20078 87.49962 87.79846 88.09727 88.39612 88.69496 88.9938 89.29265 89.59148 89.89032 90.18916 90.488 90.78685 91.0857 91.38452 91.68336 91.98221 92.28104 92.57988 92.87871 93.17755 93.4764 93.77524 94.07408 94.3729 94.67174 94.97058 95.26942 95.56827 95.86713 96.16595 96.46478 96.76363 97.06247 97.36131 97.66014 97.95898 98.25783 98.55666 98.8555 99.15433"/>
<path transform="matrix(1.00005,0,0,-1.00006,24.320664,41.064683)" stroke-width=".79701" stroke-linecap="butt" stroke-miterlimit="10" stroke-linejoin="miter" fill="none" stroke="#0000ff" d="M41.77753 0C41.77753 1.15549 40.84084 2.09216 39.68535 2.09216 38.52986 2.09216 37.59317 1.15549 37.59317 0 37.59317-1.15549 38.52986-2.09216 39.68535-2.09216 40.84084-2.09216 41.77753-1.15549 41.77753 0ZM39.68535 0"/>
<path transform="matrix(1.00005,0,0,-1.00006,24.320664,41.064683)" d="M41.77753 18.04176C41.77753 19.19725 40.84084 20.13393 39.68535 20.13393 38.52986 20.13393 37.59317 19.19725 37.59317 18.04176 37.59317 16.88628 38.52986 15.94958 39.68535 15.94958 40.84084 15.94958 41.77753 16.88628 41.77753 18.04176ZM39.68535 18.04176" fill="#009900"/>
<use data-text="u" xlink:href="#font_1_2" transform="matrix(7.332866,0,0,-7.3329398,21.540528,6.988636)" fill="#0000ff"/>
<use data-text="(" xlink:href="#font_2_1" transform="matrix(7.332866,0,0,-7.3329398,26.47377,6.988636)" fill="#0000ff"/>
<use data-text="t" xlink:href="#font_1_1" transform="matrix(7.332866,0,0,-7.3329398,29.199906,6.988636)" fill="#0000ff"/>
<use data-text=")" xlink:href="#font_2_2" transform="matrix(7.332866,0,0,-7.3329398,32.48407,6.988636)" fill="#0000ff"/>
<use data-text="=" xlink:href="#font_3_2" transform="matrix(7.332866,0,0,-7.3329398,36.41426,6.988636)" fill="#0000ff"/>
<use data-text="0" xlink:href="#font_2_4" transform="matrix(7.332866,0,0,-7.3329398,43.054597,6.988636)" fill="#0000ff"/>
<use data-text="u" xlink:href="#font_1_2" transform="matrix(7.332866,0,0,-7.3329398,81.0715,6.988636)" fill="#009900"/>
<use data-text="(" xlink:href="#font_2_1" transform="matrix(7.332866,0,0,-7.3329398,86.004749,6.988636)" fill="#009900"/>
<use data-text="t" xlink:href="#font_1_1" transform="matrix(7.332866,0,0,-7.3329398,88.73088,6.988636)" fill="#009900"/>
<use data-text=")" xlink:href="#font_2_2" transform="matrix(7.332866,0,0,-7.3329398,92.015048,6.988636)" fill="#009900"/>
<use data-text="=" xlink:href="#font_3_2" transform="matrix(7.332866,0,0,-7.3329398,95.94524,6.988636)" fill="#009900"/>
<use data-text="1" xlink:href="#font_2_5" transform="matrix(7.332866,0,0,-7.3329398,102.58557,6.988636)" fill="#009900"/>
<use data-text="&#x201c;" xlink:href="#font_2_15" transform="matrix(7.332866,0,0,-7.3329398,26.490769,77.31386)" fill="#0000ff"/>
<use data-text="o" xlink:href="#font_2_13" transform="matrix(7.332866,0,0,-7.3329398,29.262589,77.31386)" fill="#0000ff"/>
<use data-text="f" xlink:href="#font_2_10" transform="matrix(7.332866,0,0,-7.3329398,33.493654,77.31386)" fill="#0000ff"/>
<use data-text="f" xlink:href="#font_2_10" transform="matrix(7.332866,0,0,-7.3329398,35.832834,77.31386)" fill="#0000ff"/>
<use data-text="&#x201d;" xlink:href="#font_2_16" transform="matrix(7.332866,0,0,-7.3329398,38.63398,77.31386)" fill="#0000ff"/>
<use data-text="&#x201c;" xlink:href="#font_2_15" transform="matrix(7.332866,0,0,-7.3329398,86.62378,77.31386)" fill="#009900"/>
<use data-text="o" xlink:href="#font_2_13" transform="matrix(7.332866,0,0,-7.3329398,89.3956,77.31386)" fill="#009900"/>
<use data-text="n" xlink:href="#font_2_12" transform="matrix(7.332866,0,0,-7.3329398,93.62666,77.31386)" fill="#009900"/>
<use data-text="&#x201d;" xlink:href="#font_2_16" transform="matrix(7.332866,0,0,-7.3329398,97.57175,77.31386)" fill="#009900"/>
<use data-text="(" xlink:href="#font_2_1" transform="matrix(7.332866,0,0,-7.3329398,44.47467,27.35286)"/>
<use data-text="s" xlink:href="#font_2_14" transform="matrix(7.332866,0,0,-7.3329398,47.040803,27.286856)"/>
<use data-text="i" xlink:href="#font_2_11" transform="matrix(7.332866,0,0,-7.3329398,50.23793,27.286856)"/>
<use data-text="n" xlink:href="#font_2_12" transform="matrix(7.332866,0,0,-7.3329398,52.371797,27.286856)"/>
<use data-text="t" xlink:href="#font_1_1" transform="matrix(7.332866,0,0,-7.3329398,57.847337,27.286856)"/>
<use data-text=")" xlink:href="#font_2_2" transform="matrix(7.332866,0,0,-7.3329398,61.1305,27.35286)"/>
<use data-text="(" xlink:href="#font_2_1" transform="matrix(7.332866,0,0,-7.3329398,84.16165,27.35286)"/>
<use data-text="s" xlink:href="#font_2_14" transform="matrix(7.332866,0,0,-7.3329398,86.72778,27.286856)"/>
<use data-text="i" xlink:href="#font_2_11" transform="matrix(7.332866,0,0,-7.3329398,89.92491,27.286856)"/>
<use data-text="n" xlink:href="#font_2_12" transform="matrix(7.332866,0,0,-7.3329398,92.05878,27.286856)"/>
<use data-text="t" xlink:href="#font_1_1" transform="matrix(7.332866,0,0,-7.3329398,97.53432,27.286856)"/>
<use data-text=")" xlink:href="#font_2_2" transform="matrix(7.332866,0,0,-7.3329398,100.81749,27.35286)"/>
<use data-text="&#x00b7;" xlink:href="#font_3_1" transform="matrix(7.332866,0,0,-7.3329398,31.277012,27.227852)" fill="#0000ff"/>
<use data-text="0" xlink:href="#font_2_4" transform="matrix(7.332866,0,0,-7.3329398,33.317113,27.227852)" fill="#0000ff"/>
<use data-text="&#x00b7;" xlink:href="#font_3_1" transform="matrix(7.332866,0,0,-7.3329398,110.65198,27.247853)" fill="#009900"/>
<use data-text="1" xlink:href="#font_2_5" transform="matrix(7.332866,0,0,-7.3329398,112.69208,27.247853)" fill="#009900"/>
<path transform="matrix(1.00005,0,0,-1.00006,24.320664,41.064683)" stroke-width=".3985" stroke-linecap="butt" stroke-miterlimit="10" stroke-linejoin="miter" fill="none" stroke="#000000" d="M9.92133 9.92133V1.45045"/>
<path transform="matrix(0,1.00006,1.00005,0,34.24249,39.614145)" stroke-width=".31879" stroke-linecap="round" stroke-linejoin="round" fill="none" stroke="#000000" d="M-1.19551 1.59401C-1.09587 .99626 0 .09961 .29886 0 0-.09961-1.09587-.99626-1.19551-1.59401"/>
<path transform="matrix(1.00005,0,0,-1.00006,24.320664,41.064683)" stroke-width=".3985" stroke-linecap="butt" stroke-miterlimit="10" stroke-linejoin="miter" fill="none" stroke="#000000" d="M89.29204 10.91353V-7.47865"/>
<path transform="matrix(0,1.00006,1.00005,0,113.617168,48.54378)" stroke-width=".31879" stroke-linecap="round" stroke-linejoin="round" fill="none" stroke="#000000" d="M-1.19551 1.59401C-1.09587 .99626 0 .09961 .29886 0 0-.09961-1.09587-.99626-1.19551-1.59401"/>
</svg>
