<svg xmlns="http://www.w3.org/2000/svg" xmlns:xlink="http://www.w3.org/1999/xlink" version="1.1" width="172" height="141" viewBox="0 0 172 141">
<defs>
<path id="font_1_2" d="M.2649994 .64468386C.3600006 .64468386 .3869934 .49682618 .3869934 .33398438 .3869934 .17112732 .3600006 .023269654 .2649994 .023269654 .16999817 .023269654 .14299011 .17112732 .14299011 .33398438 .14299011 .49682618 .16999817 .64468386 .2649994 .64468386M.2649994 .6796875C.099990848 .6796875 .040985109 .53378298 .040985109 .33398438 .040985109 .13417053 .099990848-.01171875 .2649994-.01171875 .42999269-.01171875 .4889984 .13417053 .4889984 .33398438 .4889984 .53378298 .42999269 .6796875 .2649994 .6796875Z"/>
<path id="font_1_1" d="M.1329956-.01171875C.17199707-.01171875 .19499207 .015274048 .19599915 .05126953 .19599915 .088272098 .17199707 .11627197 .1329956 .11627197 .09498596 .11627197 .069992069 .088272098 .069992069 .05126953 .069992069 .015274048 .09498596-.01171875 .1329956-.01171875Z"/>
<path id="font_1_4" d="M.4850006 .13195801 .45700074 .13696289C.43598939 .08299255 .41600038 .07598877 .37599183 .07598877H.11999512C.13598633 .1279602 .19499207 .19892884 .28799439 .2658844 .38398744 .33584596 .45799256 .38082887 .45799256 .49276734 .45799256 .63168337 .3659973 .6796875 .26098634 .6796875 .12399292 .6796875 .052993776 .5967102 .052993776 .54473879 .052993776 .51075747 .09098816 .49476625 .10798645 .49476625 .12599182 .49476625 .1329956 .50476077 .13699341 .5217438 .15299988 .5897064 .19198609 .64468386 .2539978 .64468386 .33099366 .64468386 .35299684 .5797119 .35299684 .50675967 .35299684 .3998108 .29899598 .33984376 .21199036 .26289369 .08898926 .15594483 .04598999 .08798218 .026992798 .009994507L.036987306 0H.45098878L.4850006 .13195801Z"/>
<path id="font_1_5" d="M.2999878 .17871094V.0769043C.2999878 .04296875 .2889862 .036987306 .2649994 .034988405L.20098877 .0289917V0H.46499635V.0289917L.41999818 .033981325C.39698792 .036987306 .3899994 .04296875 .3899994 .0769043V.17871094H.49299623V.22570801H.3899994V.66796877H.31698609C.22299195 .5298767 .11099243 .35577394 .018997193 .19970703L.027999878 .17871094H.2999878M.09098816 .22570801C.15098572 .33476258 .22099304 .4498291 .2979889 .5709076H.2999878V.22570801H.09098816Z"/>
<path id="font_1_6" d="M.27198792-.01171875C.41999818-.01171875 .49899293 .07821655 .49899293 .2140503 .49899293 .3488922 .4119873 .42385865 .30799867 .421875 .23199463 .42385865 .17199707 .36886598 .14498902 .33590699H.14299011C.14399719 .5557556 .20698548 .64468386 .29699708 .64468386 .34298707 .64468386 .375 .6057129 .3899994 .5487671 .3929901 .5367737 .40098573 .527771 .41600038 .527771 .43798829 .527771 .46899415 .5447693 .46899415 .57273867 .46899415 .6127014 .41999818 .6796875 .2999878 .6796875 .22099304 .6796875 .16499329 .64967349 .12298584 .6017151 .07798767 .5497589 .04399109 .45384217 .04399109 .3089447 .04399109 .093185428 .12199402-.01171875 .27198792-.01171875M.27398683 .37086488C.33699037 .37086488 .39898683 .31393434 .39898683 .19906616 .39898683 .094192508 .35798646 .023269654 .27398683 .023269654 .18699646 .023269654 .14498902 .11616516 .14498902 .23602295 .14498902 .2969513 .18998719 .37086488 .27398683 .37086488Z"/>
<path id="font_1_7" d="M.2649994 .3380127C.34498597 .3380127 .3880005 .2700653 .3880005 .17915344 .3880005 .09121704 .34999085 .023269654 .2649994 .023269654 .18199158 .023269654 .14199829 .09121704 .14199829 .17915344 .14199829 .2700653 .18598938 .3380127 .2649994 .3380127M.2649994-.01171875C.4269867-.01171875 .48799134 .081222537 .48799134 .18214417 .48799134 .28405763 .42399598 .3420105 .35598756 .35801698V.36102296C.4169922 .37701417 .46598817 .427948 .46598817 .5098419 .46598817 .6187134 .3809967 .6796875 .2649994 .6796875 .15098572 .6796875 .06399536 .61772158 .06399536 .5098419 .06399536 .427948 .11399841 .37701417 .17399597 .36102296V.35801698C.10699463 .3420105 .041992189 .28405763 .041992189 .18214417 .041992189 .081222537 .101989749-.01171875 .2649994-.01171875M.2649994 .37402345C.19299317 .37402345 .16099549 .44392396 .16099549 .5118408 .16099549 .5887451 .19699097 .64468386 .2649994 .64468386 .33299256 .64468386 .36698915 .5887451 .36898805 .5118408 .36898805 .44392396 .33799745 .37402345 .2649994 .37402345Z"/>
<path id="font_1_3" d="M.43699647 0V.0289917L.35299684 .035995485C.33198548 .037994386 .31999208 .04598999 .31999208 .08496094V.67367556L.31498719 .6796875 .10899353 .6446991V.6197052L.20199585 .6087036C.21899414 .6067047 .22599793 .5987091 .22599793 .56973269V.08496094C.22599793 .065979007 .22299195 .053985597 .21699524 .04698181 .21199036 .039993287 .20399475 .036987306 .19299317 .035995485L.10899353 .0289917V0H.43699647Z"/>
<clipPath id="clip_2">
<path transform="matrix(.800048,0,0,-.80002406,27.774147,120.11592)" d="M-16.19081-13.45001H178.0893V147.94217H-16.19081Z"/>
</clipPath>
</defs>
<path transform="matrix(.800048,0,0,-.80002406,27.774147,120.11592)" stroke-width=".19925" stroke-linecap="butt" stroke-miterlimit="10" stroke-linejoin="miter" fill="none" stroke="#929292" d="M0-13.45001V-9.19823M32.3802-13.45001V-9.19823M64.76042-13.45001V-9.19823M97.14064-13.45001V-9.19823M129.52085-13.45001V-9.19823M161.90106-13.45001V-9.19823M0 147.94217V143.69037M32.3802 147.94217V143.69037M64.76042 147.94217V143.69037M97.14064 147.94217V143.69037M129.52085 147.94217V143.69037M161.90106 147.94217V143.69037"/>
<path transform="matrix(.800048,0,0,-.80002406,27.774147,120.11592)" stroke-width=".19925" stroke-linecap="butt" stroke-miterlimit="10" stroke-linejoin="miter" fill="none" stroke="#929292" d="M-16.19081 6.81377H-11.93884M-16.19081 49.37321H-11.93884M-16.19081 91.93268H-11.93884M-16.19081 134.49214H-11.93884M178.0893 6.81377H173.83733M178.0893 49.37321H173.83733M178.0893 91.93268H173.83733M178.0893 134.49214H173.83733"/>
<path transform="matrix(.800048,0,0,-.80002406,27.774147,120.11592)" stroke-width=".3985" stroke-linecap="butt" stroke-miterlimit="10" stroke-linejoin="miter" fill="none" stroke="#000000" d="M-16.19081-13.45001V147.94217H178.0893V-13.45001H-16.19081Z"/>
<use data-text="0" xlink:href="#font_1_2" transform="matrix(8.029601,0,0,-8.029361,25.644417,138.97168)"/>
<use data-text="0" xlink:href="#font_1_2" transform="matrix(8.029601,0,0,-8.029361,48.356184,138.97168)"/>
<use data-text="." xlink:href="#font_1_1" transform="matrix(8.029601,0,0,-8.029361,52.611875,138.97168)"/>
<use data-text="2" xlink:href="#font_1_4" transform="matrix(8.029601,0,0,-8.029361,54.73971,138.97168)"/>
<use data-text="0" xlink:href="#font_1_2" transform="matrix(8.029601,0,0,-8.029361,74.261737,138.97168)"/>
<use data-text="." xlink:href="#font_1_1" transform="matrix(8.029601,0,0,-8.029361,78.517429,138.97168)"/>
<use data-text="4" xlink:href="#font_1_5" transform="matrix(8.029601,0,0,-8.029361,80.64526,138.97168)"/>
<use data-text="0" xlink:href="#font_1_2" transform="matrix(8.029601,0,0,-8.029361,100.16729,138.97168)"/>
<use data-text="." xlink:href="#font_1_1" transform="matrix(8.029601,0,0,-8.029361,104.42298,138.97168)"/>
<use data-text="6" xlink:href="#font_1_6" transform="matrix(8.029601,0,0,-8.029361,106.55082,138.97168)"/>
<use data-text="0" xlink:href="#font_1_2" transform="matrix(8.029601,0,0,-8.029361,126.072849,138.97168)"/>
<use data-text="." xlink:href="#font_1_1" transform="matrix(8.029601,0,0,-8.029361,130.32854,138.97168)"/>
<use data-text="8" xlink:href="#font_1_7" transform="matrix(8.029601,0,0,-8.029361,132.45638,138.97168)"/>
<use data-text="1" xlink:href="#font_1_3" transform="matrix(8.029601,0,0,-8.029361,155.17299,138.97168)"/>
<use data-text="0" xlink:href="#font_1_2" transform="matrix(8.029601,0,0,-8.029361,1.4533692,117.31824)"/>
<use data-text="." xlink:href="#font_1_1" transform="matrix(8.029601,0,0,-8.029361,5.7090609,117.31824)"/>
<use data-text="4" xlink:href="#font_1_5" transform="matrix(8.029601,0,0,-8.029361,7.836899,117.31824)"/>
<use data-text="0" xlink:href="#font_1_2" transform="matrix(8.029601,0,0,-8.029361,1.4533692,83.26921)"/>
<use data-text="." xlink:href="#font_1_1" transform="matrix(8.029601,0,0,-8.029361,5.7090609,83.26921)"/>
<use data-text="6" xlink:href="#font_1_6" transform="matrix(8.029601,0,0,-8.029361,7.836899,83.26921)"/>
<use data-text="0" xlink:href="#font_1_2" transform="matrix(8.029601,0,0,-8.029361,1.4533692,49.220994)"/>
<use data-text="." xlink:href="#font_1_1" transform="matrix(8.029601,0,0,-8.029361,5.7090609,49.220994)"/>
<use data-text="8" xlink:href="#font_1_7" transform="matrix(8.029601,0,0,-8.029361,7.836899,49.220994)"/>
<use data-text="1" xlink:href="#font_1_3" transform="matrix(8.029601,0,0,-8.029361,7.842552,15.207169)"/>
<g clip-path="url(#clip_2)">
<path transform="matrix(.800048,0,0,-.80002406,27.774147,120.11592)" stroke-width=".3985" stroke-linecap="butt" stroke-miterlimit="10" stroke-linejoin="miter" fill="none" stroke="#000000" d="M0 134.49214 6.74574 125.85895 13.49152 117.51303 20.23729 109.531 26.98306 101.8703 33.72884 94.50539 40.47461 87.45969 47.22038 80.69272 53.96616 74.19814 60.71191 67.9632 67.45769 62.00273 74.20345 56.27849 80.94922 50.78618 87.69499 45.5301 94.44077 40.46126 101.18654 35.60948 107.93231 30.9705 114.67807 26.49962 121.42384 22.22241 128.16962 18.13457 134.91539 14.19781 141.66115 10.4079 148.40692 6.79034 155.1527 3.32175 161.89847 0"/>
</g>
</svg>
