<svg xmlns="http://www.w3.org/2000/svg" xmlns:xlink="http://www.w3.org/1999/xlink" version="1.1" width="170" height="114" viewBox="0 0 170 114">
<defs>
<path id="font_1_1" d="M.42799378 .45222474 .43899537 .49023438H.31199647L.34599305 .6092224 .33399964 .6162262 .23699951 .53923037 .22399903 .49023438H.14299011L.13198853 .45222474H.21499634L.125 .08627319C.10998535 .029266358 .12199402-.01171875 .17199707-.01171875 .2519989-.01171875 .31599427 .054275514 .35598756 .1292572L.33399964 .1462555C.31098939 .10726929 .2599945 .040267946 .22898865 .040267946 .20799256 .040267946 .20799256 .0632782 .21398926 .088272098L.30299378 .45222474H.42799378Z"/>
<path id="font_2_2" d="M.6349945 .2529297V.31092835H.084991458V.2529297H.6349945Z"/>
<path id="font_3_4" d="M.43699647 0V.0289917L.35299684 .035995485C.33198548 .037994386 .31999208 .04598999 .31999208 .08496094V.67367556L.31498719 .6796875 .10899353 .6446991V.6197052L.20199585 .6087036C.21899414 .6067047 .22599793 .5987091 .22599793 .56973269V.08496094C.22599793 .065979007 .22299195 .053985597 .21699524 .04698181 .21199036 .039993287 .20399475 .036987306 .19299317 .035995485L.10899353 .0289917V0H.43699647Z"/>
<path id="font_3_5" d="M.4850006 .13195801 .45700074 .13696289C.43598939 .08299255 .41600038 .07598877 .37599183 .07598877H.11999512C.13598633 .1279602 .19499207 .19892884 .28799439 .2658844 .38398744 .33584596 .45799256 .38082887 .45799256 .49276734 .45799256 .63168337 .3659973 .6796875 .26098634 .6796875 .12399292 .6796875 .052993776 .5967102 .052993776 .54473879 .052993776 .51075747 .09098816 .49476625 .10798645 .49476625 .12599182 .49476625 .1329956 .50476077 .13699341 .5217438 .15299988 .5897064 .19198609 .64468386 .2539978 .64468386 .33099366 .64468386 .35299684 .5797119 .35299684 .50675967 .35299684 .3998108 .29899598 .33984376 .21199036 .26289369 .08898926 .15594483 .04598999 .08798218 .026992798 .009994507L.036987306 0H.45098878L.4850006 .13195801Z"/>
<path id="font_3_6" d="M.12998963 .3657837C.12998963 .3487854 .1349945 .33779908 .147995 .33779908 .1599884 .33779908 .18699646 .34777833 .23498535 .34777833 .31999208 .34777833 .36799623 .27090455 .36799623 .18403626 .36799623 .065216068 .30899049 .023269654 .23799134 .023269654 .17199707 .023269654 .1289978 .07319641 .10998535 .12911988 .10398865 .14808655 .09399414 .15707398 .07998657 .15707398 .06199646 .15707398 .026992798 .13809204 .026992798 .10215759 .026992798 .05921936 .09599304-.01171875 .23699951-.01171875 .38198854-.01171875 .47299195 .06121826 .47299195 .18902588 .47299195 .32281495 .35798646 .3627777 .30299378 .3677826V.3717804C.35699464 .38078309 .44400025 .4207611 .44400025 .5197296 .44400025 .6306915 .35699464 .6796875 .25 .6796875 .117996219 .6796875 .052993776 .60369876 .052993776 .5607147 .052993776 .5297241 .08799744 .51272585 .101989749 .51272585 .114990238 .51272585 .12298584 .5197296 .1269989 .5327301 .14898682 .60069277 .18699646 .64468386 .24299622 .64468386 .32199098 .64468386 .34098817 .57470706 .34098817 .51872256 .34098817 .4587555 .31999208 .38378907 .23498535 .38378907 .18699646 .38378907 .1599884 .39378358 .147995 .39378358 .1349945 .39378358 .12998963 .38378907 .12998963 .3657837Z"/>
<path id="font_3_7" d="M.2999878 .17871094V.0769043C.2999878 .04296875 .2889862 .036987306 .2649994 .034988405L.20098877 .0289917V0H.46499635V.0289917L.41999818 .033981325C.39698792 .036987306 .3899994 .04296875 .3899994 .0769043V.17871094H.49299623V.22570801H.3899994V.66796877H.31698609C.22299195 .5298767 .11099243 .35577394 .018997193 .19970703L.027999878 .17871094H.2999878M.09098816 .22570801C.15098572 .33476258 .22099304 .4498291 .2979889 .5709076H.2999878V.22570801H.09098816Z"/>
<path id="font_3_8" d="M.42599488 .5919647 .44999696 .6599579 .44499208 .66796877H.11099243L.100997928 .65896609 .08099365 .32388307 .10499573 .31188966C.14698792 .35983277 .18798828 .3828125 .24198914 .3828125 .30599977 .3828125 .37599183 .3358612 .37599183 .20404053 .37599183 .10116577 .33399964 .023269654 .24699402 .023269654 .1769867 .023269654 .14099121 .07420349 .12098694 .13113404 .115997318 .14611817 .10699463 .15510559 .09298706 .15510559 .07299805 .15510559 .039993287 .13513184 .039993287 .10217285 .039993287 .056228639 .10998535-.01171875 .23999024-.01171875 .40499879-.01171875 .47999574 .0881958 .47999574 .21502686 .47999574 .35484315 .3919983 .4268036 .272995 .4268036 .21798706 .4268036 .15899658 .4028015 .1269989 .3738098L.125 .37580873 .147995 .56292727C.15098572 .58795168 .1579895 .5919647 .1769867 .5919647H.42599488Z"/>
<path id="font_1_2" d="M.5329895 .48995973C.5039978 .388031 .48799134 .33506776 .46199037 .2741089 .41799928 .173172 .33099366 .040267946 .24798584 .040267946 .21598816 .040267946 .20799256 .070251468 .22299195 .12820435L.31900025 .4970703 .31399537 .50205996 .13198853 .47375489 .12599182 .4497528 .18798828 .44476319C.21199036 .44276429 .21099854 .42778016 .20298767 .39682008L.13398743 .13316345C.11299133 .053253175 .12098694-.01171875 .20098877-.01171875 .29699708-.01171875 .4019928 .09420776 .46199037 .21005249H.46398927L.43099977 .096206668C.4119873 .029266358 .42399598-.01171875 .47698976-.01171875 .548996-.01171875 .60899356 .057250978 .6439972 .13116455L.6199951 .14613343C.59999087 .11218262 .55599978 .040267946 .5279999 .040267946 .5069885 .040267946 .5069885 .06324768 .5149994 .09420776L.621994 .5019531 .5329895 .48995973Z"/>
<path id="font_3_1" d="M.1749878 .2822113C.1749878 .56832888 .2619934 .65437319 .32499696 .66737368V.6923828C.1499939 .685379 .10499573 .46829225 .10499573 .2822113 .10499573 .09614563 .1499939-.12094116 .32499696-.12792969V-.10293579C.2669983-.090927127 .1749878-.0059051516 .1749878 .2822113Z"/>
<path id="font_3_2" d="M.1749878 .2822113C.1749878-.0059051516 .08299255-.090927127 .024993897-.10293579V-.12792969C.19999695-.12094116 .24499512 .09614563 .24499512 .2822113 .24499512 .46829225 .19999695 .685379 .024993897 .6923828V.66737368C.08799744 .65437319 .1749878 .56832888 .1749878 .2822113Z"/>
<path id="font_2_4" d="M.6349945 .14315796V.20117188H.084991458V.14315796H.6349945M.6349945 .36288453V.42089845H.084991458V.36288453H.6349945Z"/>
<path id="font_3_3" d="M.2649994 .64468386C.3600006 .64468386 .3869934 .49682618 .3869934 .33398438 .3869934 .17112732 .3600006 .023269654 .2649994 .023269654 .16999817 .023269654 .14299011 .17112732 .14299011 .33398438 .14299011 .49682618 .16999817 .64468386 .2649994 .64468386M.2649994 .6796875C.099990848 .6796875 .040985109 .53378298 .040985109 .33398438 .040985109 .13417053 .099990848-.01171875 .2649994-.01171875 .42999269-.01171875 .4889984 .13417053 .4889984 .33398438 .4889984 .53378298 .42999269 .6796875 .2649994 .6796875Z"/>
<path id="font_3_12" d="M.18998719 .7480469C.13999939 .7020416 .07199097 .6350403 .07199097 .56404116 .07199097 .5100403 .10398865 .47703553 .13699341 .4780426 .16699219 .4780426 .18499756 .4990387 .18499756 .5260315 .18499756 .56204226 .1519928 .58303835 .1519928 .6200409 .1519928 .6580353 .17599488 .6960449 .20698548 .7320404L.18998719 .7480469M.36999513 .7480469C.31999208 .7020416 .2519989 .6350403 .2519989 .56404116 .2519989 .5100403 .28399659 .47703553 .31698609 .4780426 .34700013 .4780426 .36499024 .4990387 .36499024 .5260315 .36499024 .56204226 .33198548 .58303835 .33198548 .6200409 .33198548 .6580353 .35598756 .6960449 .3869934 .7320404L.36999513 .7480469Z"/>
<path id="font_3_11" d="M.28799439 .5019531C.12799073 .5019531 .04899597 .40698243 .04899597 .24510193 .04899597 .083236698 .12799073-.01171875 .28799439-.01171875 .44999696-.01171875 .5279999 .083236698 .5279999 .24510193 .5279999 .40698243 .44999696 .5019531 .28799439 .5019531M.15299988 .24510193C.15299988 .38301087 .19699097 .46694947 .28799439 .46694947 .3809967 .46694947 .42399598 .38301087 .42399598 .24510193 .42399598 .10720825 .3809967 .023269654 .28799439 .023269654 .19699097 .023269654 .15299988 .10720825 .15299988 .24510193Z"/>
<path id="font_3_9" d="M.20098877 .45022584H.32299806V.49023438H.20098877L.19699097 .60220339C.19400025 .6971741 .22898865 .70718386 .24499512 .70718386 .2659912 .70718386 .28799439 .6971741 .31298829 .6391907 .31799317 .62919619 .32499696 .6221924 .33999635 .6221924 .3600006 .6221924 .3889923 .6391907 .3889923 .66918948 .3889923 .70217898 .34700013 .7421875 .2669983 .7421875 .21199036 .7421875 .16499329 .71717837 .13999939 .67918398 .116989139 .64419558 .10699463 .5912018 .10699463 .5252228V.49023438H.02999878V.45022584H.10699463V.087020877C.10699463 .035995485 .10398865 .033996583 .03199768 .0289917V0H.29599V.0289917C.20498657 .032989503 .20098877 .034988405 .20098877 .08602905V.45022584Z"/>
<path id="font_3_13" d="M.08898926 .47218324C.13899231 .5181732 .20698548 .58517459 .20698548 .6561737 .20698548 .71017459 .1749878 .7431793 .14199829 .7421875 .11199951 .7421875 .09399414 .72117617 .09399414 .69418337 .09399414 .6581726 .1269989 .6371765 .1269989 .60017397 .1269989 .56217959 .102996829 .5241852 .07199097 .48817445L.08898926 .47218324M.2689972 .47218324C.31900025 .5181732 .3869934 .58517459 .3869934 .6561737 .3869934 .71017459 .35499574 .7431793 .32199098 .7421875 .2919922 .7421875 .27398683 .72117617 .27398683 .69418337 .27398683 .6581726 .30699159 .6371765 .30699159 .60017397 .30699159 .56217959 .2829895 .5241852 .2519989 .48817445L.2689972 .47218324Z"/>
<path id="font_3_10" d="M.5289917 .34295655C.5289917 .4439392 .47399903 .5019531 .38198854 .5019531 .30799867 .5019531 .2619934 .46594239 .19999695 .4259491L.18598938 .5019531 .036987306 .47694398V.45195008L.07499695 .4469452C.100997928 .4429474 .10699463 .4379425 .10699463 .40194703V.08699036C.10699463 .035995485 .10398865 .033996583 .03199768 .0289917V0H.27598573V.0289917C.20498657 .033996583 .20098877 .035995485 .20098877 .08699036V.32095338C.20098877 .34596253 .20298767 .35995484 .21099854 .37594605 .23199463 .4149475 .2769928 .44795228 .32998658 .44795228 .397995 .44795228 .43499757 .40994264 .43499757 .32295228V.08699036C.43499757 .035995485 .43199159 .033996583 .3600006 .0289917V0H.60398867V.0289917C.5329895 .033996583 .5289917 .035995485 .5289917 .08699036V.34295655Z"/>
<path id="font_2_1" d="M.397995-.82902529 .22499085-.43717958C.22099304-.42918397 .21899414-.42318727 .21199036-.42318727 .20899964-.42318727 .20799256-.42419435 .19799805-.43118287L.09700012-.50315859 .11099243-.52215579C.1269989-.51815798 .14299011-.51416018 .15299988-.51416018 .15499878-.51416018 .1559906-.51416018 .1559906-.515152L.35299684-.95996096H.38198854C.38198854-.95996096 .8470001 .0016326904 .84999087 .0026245118 .8549957 .013626099 .8529968 .014633179 .8529968 .019622803 .8529968 .03062439 .84999087 .057617189 .83799746 .057617189H.82899478L.397995-.82902529Z"/>
<path id="font_2_3" d="M.07998657 .28173829C.07998657 .24674988 .10798645 .21875 .14299011 .21875 .17799378 .21875 .20599365 .24674988 .20599365 .28173829 .20599365 .31674195 .17799378 .34474183 .14299011 .34474183 .10798645 .34474183 .07998657 .31674195 .07998657 .28173829Z"/>
</defs>
<path transform="matrix(1.00003,0,0,-1.00003,39.57126,77.202838)" d="M-29.764-35.71686V75.40222H19.84267V-35.71686ZM19.84267 75.40222" fill="#d9d9ff"/>
<path transform="matrix(1.00003,0,0,-1.00003,39.57126,77.202838)" d="M19.84267-35.71686V75.40222H128.9774V-35.71686ZM128.9774 75.40222" fill="#d9f0d9"/>
<path transform="matrix(1.00003,0,0,-1.00003,39.57126,77.202838)" stroke-width=".3985" stroke-linecap="butt" stroke-miterlimit="10" stroke-linejoin="miter" fill="none" stroke="#000000" d="M-29.764 0H128.51914"/>
<path transform="matrix(1.00003,0,0,-1.00003,168.09426,77.202838)" stroke-width=".31879" stroke-linecap="round" stroke-linejoin="round" fill="none" stroke="#000000" d="M-1.19551 1.59401C-1.09587 .99626 0 .09961 .29886 0 0-.09961-1.09587-.99626-1.19551-1.59401"/>
<path transform="matrix(1.00003,0,0,-1.00003,39.57126,77.202838)" stroke-width=".3985" stroke-linecap="butt" stroke-miterlimit="10" stroke-linejoin="miter" fill="none" stroke="#000000" d="M0-35.71686V74.94394"/>
<path transform="matrix(0,-1.00003,-1.00003,-0,39.57126,2.2566453)" stroke-width=".31879" stroke-linecap="round" stroke-linejoin="round" fill="none" stroke="#000000" d="M-1.19551 1.59401C-1.09587 .99626 0 .09961 .29886 0 0-.09961-1.09587-.99626-1.19551-1.59401"/>
<use data-text="t" xlink:href="#font_1_1" transform="matrix(7.3327205,0,0,-7.3327205,165.00504,85.12107)"/>
<path transform="matrix(1.00003,0,0,-1.00003,39.57126,77.202838)" stroke-width=".3985" stroke-linecap="butt" stroke-miterlimit="10" stroke-linejoin="miter" fill="none" stroke="#929292" d="M-19.84267 1.39478V-1.39478"/>
<use data-text="&#x2212;" xlink:href="#font_2_2" transform="matrix(7.3327205,0,0,-7.3327205,15.144524,86.90613)"/>
<use data-text="1" xlink:href="#font_3_4" transform="matrix(7.3327205,0,0,-7.3327205,20.420685,86.90613)"/>
<path transform="matrix(1.00003,0,0,-1.00003,39.57126,77.202838)" stroke-width=".3985" stroke-linecap="butt" stroke-miterlimit="10" stroke-linejoin="miter" fill="none" stroke="#929292" d="M19.84267 1.39478V-1.39478"/>
<use data-text="1" xlink:href="#font_3_4" transform="matrix(7.3327205,0,0,-7.3327205,57.469797,86.90613)"/>
<path transform="matrix(1.00003,0,0,-1.00003,39.57126,77.202838)" stroke-width=".3985" stroke-linecap="butt" stroke-miterlimit="10" stroke-linejoin="miter" fill="none" stroke="#929292" d="M39.68535 1.39478V-1.39478"/>
<use data-text="2" xlink:href="#font_3_5" transform="matrix(7.3327205,0,0,-7.3327205,77.31339,86.90613)"/>
<path transform="matrix(1.00003,0,0,-1.00003,39.57126,77.202838)" stroke-width=".3985" stroke-linecap="butt" stroke-miterlimit="10" stroke-linejoin="miter" fill="none" stroke="#929292" d="M59.52802 1.39478V-1.39478"/>
<use data-text="3" xlink:href="#font_3_6" transform="matrix(7.3327205,0,0,-7.3327205,97.15599,86.90613)"/>
<path transform="matrix(1.00003,0,0,-1.00003,39.57126,77.202838)" stroke-width=".3985" stroke-linecap="butt" stroke-miterlimit="10" stroke-linejoin="miter" fill="none" stroke="#929292" d="M79.37071 1.39478V-1.39478"/>
<use data-text="4" xlink:href="#font_3_7" transform="matrix(7.3327205,0,0,-7.3327205,116.99959,86.90613)"/>
<path transform="matrix(1.00003,0,0,-1.00003,39.57126,77.202838)" stroke-width=".3985" stroke-linecap="butt" stroke-miterlimit="10" stroke-linejoin="miter" fill="none" stroke="#929292" d="M99.2134 1.39478V-1.39478"/>
<use data-text="5" xlink:href="#font_3_8" transform="matrix(7.3327205,0,0,-7.3327205,136.84317,86.90613)"/>
<path transform="matrix(1.00003,0,0,-1.00003,39.57126,77.202838)" stroke-width=".3985" stroke-linecap="butt" stroke-miterlimit="10" stroke-linejoin="miter" fill="none" stroke="#929292" d="M19.84267 1.39478V-1.39478"/>
<path transform="matrix(1.00003,0,0,-1.00003,39.57126,77.202838)" stroke-width=".3985" stroke-linecap="butt" stroke-miterlimit="10" stroke-linejoin="miter" fill="none" stroke="#929292" d="M1.39478-19.84267H-1.39478"/>
<use data-text="&#x2212;" xlink:href="#font_2_2" transform="matrix(7.3327205,0,0,-7.3327205,25.61184,99.5005)"/>
<use data-text="1" xlink:href="#font_3_4" transform="matrix(7.3327205,0,0,-7.3327205,30.888,99.5005)"/>
<path transform="matrix(1.00003,0,0,-1.00003,39.57126,77.202838)" stroke-width=".3985" stroke-linecap="butt" stroke-miterlimit="10" stroke-linejoin="miter" fill="none" stroke="#929292" d="M1.39478 19.84267H-1.39478"/>
<use data-text="1" xlink:href="#font_3_4" transform="matrix(7.3327205,0,0,-7.3327205,30.888,59.814313)"/>
<path transform="matrix(1.00003,0,0,-1.00003,39.57126,77.202838)" stroke-width=".3985" stroke-linecap="butt" stroke-miterlimit="10" stroke-linejoin="miter" fill="none" stroke="#929292" d="M1.39478 39.68535H-1.39478"/>
<use data-text="2" xlink:href="#font_3_5" transform="matrix(7.3327205,0,0,-7.3327205,30.888,39.97072)"/>
<path transform="matrix(1.00003,0,0,-1.00003,39.57126,77.202838)" stroke-width=".3985" stroke-linecap="butt" stroke-miterlimit="10" stroke-linejoin="miter" fill="none" stroke="#929292" d="M1.39478 59.52802H-1.39478"/>
<use data-text="3" xlink:href="#font_3_6" transform="matrix(7.3327205,0,0,-7.3327205,30.888,20.10812)"/>
<path transform="matrix(1.00003,0,0,-1.00003,39.57126,77.202838)" stroke-width=".3985" stroke-linecap="butt" stroke-miterlimit="10" stroke-linejoin="miter" fill="none" stroke="#929292" d="M1.39478 19.84267H-1.39478"/>
<path transform="matrix(1.00003,0,0,-1.00003,39.57126,77.202838)" stroke-width="1.19553" stroke-linecap="butt" stroke-miterlimit="10" stroke-linejoin="miter" fill="none" stroke="#0000ff" d="M0 19.84267H.09444 .1889 .28337 .37785 .47232 .56677 .66124 .7557 .85017 .94464 1.03911 1.13358 1.22804 1.32251 1.41696 1.51143 1.6059 1.70036 1.79483 1.8893 1.98376 2.07823 2.17268 2.26717 2.36163 2.45609 2.55055 2.64503 2.7395 2.83395 2.9284 3.02289 3.11736 3.21182 3.30629 3.40076 3.49521 3.58968 3.68414 3.77861 3.87308 3.96754 4.06203 4.1565 4.25093 4.3454 4.43988 4.53435 4.62881 4.72328 4.81775 4.9122 5.00667 5.10114 5.1956 5.29007 5.38454 5.479 5.57347 5.66792 5.76239 5.85686 5.95134 6.0458 6.14026 6.23473 6.3292 6.42366 6.51813 6.6126 6.70706 6.80153 6.896 6.99045 7.08492 7.17938 7.27385 7.36832 7.46278 7.55725 7.65172 7.74617 7.84065 7.93512 8.02957 8.12405 8.21852 8.31299 8.40744 8.5019 8.59637 8.69084 8.78531 8.87978 8.97424 9.0687 9.16316 9.25764 9.3521 9.44656 9.54103 9.63551 9.72998 9.82442 9.91888 10.01337 10.10783 10.2023 10.29677 10.39124 10.48569 10.58015 10.67462 10.76909 10.86356 10.95802 11.05249 11.14696 11.24141 11.33588 11.43034 11.52483 11.6193 11.71375 11.80821 11.90268 11.99715 12.09161 12.18608 12.28055 12.37502 12.46948 12.56393 12.6584 12.75287 12.84734 12.94182 13.03627 13.13074 13.22519 13.31967 13.41414 13.5086 13.60306 13.69754 13.792 13.88647 13.98093 14.0754 14.16986 14.26433 14.3588 14.45326 14.54773 14.64218 14.73665 14.83113 14.92558 15.02005 15.11452 15.209 15.30345 15.3979 15.49237 15.58685 15.68132 15.77579 15.87025 15.96472 16.05917 16.15364 16.24811 16.34258 16.43704 16.53151 16.62599 16.72044 16.8149 16.90936 17.00385 17.09831 17.19278 17.28723 17.38171 17.47617 17.57063 17.6651 17.75957 17.85403 17.9485 18.04297 18.13742 18.23189 18.32635 18.42082 18.5153 18.60976 18.70422 18.79868"/>
<path transform="matrix(1.00003,0,0,-1.00003,39.57126,77.202838)" stroke-width=".79701" stroke-linecap="butt" stroke-dasharray="2.98883,2.98883" stroke-miterlimit="10" stroke-linejoin="miter" fill="none" stroke="#8080ff" d="M0 0 .09444 1.36882 .1889 1.93591 .28337 2.37102 .37785 2.73798 .47232 3.06105 .56677 3.35321 .66124 3.62238 .7557 3.87247 .85017 4.10744 .94464 4.32906 1.03911 4.5407 1.13358 4.74265 1.22804 4.93614 1.32251 5.12263 1.41696 5.30247 1.51143 5.47627 1.6059 5.64491 1.70036 5.80872 1.79483 5.96738 1.8893 6.1227 1.98376 6.2741 2.07823 6.42154 2.17268 6.56596 2.26717 6.70706 2.36163 6.84543 2.45609 6.98106 2.55055 7.11398 2.64503 7.24448 2.7395 7.37286 2.83395 7.49883 2.9284 7.62267 3.02289 7.74467 3.11736 7.86456 3.21182 7.98325 3.30629 8.09982 3.40076 8.21458 3.49521 8.32782 3.58968 8.43954 3.68414 8.55005 3.77861 8.65906 3.87308 8.76653 3.96754 8.87251 4.06203 8.97757 4.1565 9.08142 4.25093 9.18407 4.3454 9.2858 4.43988 9.38602 4.53435 9.48532 4.62881 9.58372 4.72328 9.68092 4.81775 9.77719 4.9122 9.87257 5.00667 9.96703 5.10114 10.0609 5.1956 10.15355 5.29007 10.24529 5.38454 10.33643 5.479 10.42665 5.57347 10.51628 5.66792 10.60498 5.76239 10.6928 5.85686 10.78029 5.95134 10.86688 6.0458 10.95287 6.14026 11.03795 6.23473 11.12273 6.3292 11.2066 6.42366 11.28986 6.51813 11.37251 6.6126 11.45457 6.70706 11.53601 6.80153 11.61716 6.896 11.6974 6.99045 11.77733 7.08492 11.85666 7.17938 11.93568 7.27385 12.0138 7.36832 12.09161 7.46278 12.16882 7.55725 12.2454 7.65172 12.32204 7.74617 12.39772 7.84065 12.47311 7.93512 12.5479 8.02957 12.62238 8.12405 12.69624 8.21852 12.76982 8.31299 12.8434 8.40744 12.91606 8.5019 12.98842 8.59637 13.0605 8.69084 13.13194 8.78531 13.2031 8.87978 13.27396 8.97424 13.3445 9.0687 13.41414 9.16316 13.48407 9.25764 13.5534 9.3521 13.62244 9.44656 13.69087 9.54103 13.759 9.63551 13.82742 9.72998 13.89494 9.82442 13.96216 9.91888 14.02907 10.01337 14.09567 10.10783 14.16199 10.2023 14.228 10.29677 14.294 10.39124 14.3591 10.48569 14.4242 10.58015 14.48898 10.67462 14.55348 10.76909 14.61797 10.86356 14.68185 10.95802 14.74574 11.05249 14.80904 11.14696 14.8723 11.24141 14.93527 11.33588 14.99765 11.43034 15.06001 11.52483 15.1221 11.6193 15.18385 11.71375 15.24562 11.80821 15.30708 11.90268 15.36795 11.99715 15.4288 12.09161 15.48965 12.18608 15.55022 12.28055 15.61017 12.37502 15.67012 12.46948 15.72975 12.56393 15.78911 12.6584 15.84845 12.75287 15.9075 12.84734 15.96623 12.94182 16.02498 13.03627 16.08339 13.13074 16.14153 13.22519 16.19937 13.31967 16.2572 13.41414 16.31473 13.5086 16.37195 13.60306 16.42917 13.69754 16.48608 13.792 16.54271 13.88647 16.59933 13.98093 16.65564 14.0754 16.71198 14.16986 16.76797 14.26433 16.82368 14.3588 16.8794 14.45326 16.9348 14.54773 16.9902 14.64218 17.04532 14.73665 17.10011 14.83113 17.15462 14.92558 17.20943 15.02005 17.26361 15.11452 17.31781 15.209 17.37172 15.30345 17.42592 15.3979 17.4795 15.49237 17.53308 15.58685 17.58638 15.68132 17.63966 15.77579 17.69266 15.87025 17.74564 15.96472 17.79832 16.05917 17.85071 16.15364 17.9034 16.24811 17.95576 16.34258 18.00754 16.43704 18.0596 16.53151 18.1114 16.62599 18.16316 16.72044 18.21465 16.8149 18.26611 16.90936 18.31728 17.00385 18.36845 17.09831 18.41931 17.19278 18.47018 17.28723 18.52104 17.38171 18.5713 17.47617 18.62187 17.57063 18.67212 17.6651 18.72209 17.75957 18.77205 17.85403 18.822 17.9485 18.87167 18.04297 18.92131 18.13742 18.97067 18.23189 19.02032 18.32635 19.06937 18.42082 19.11842 18.5153 19.16747 18.60976 19.21622 18.70422 19.26497 18.79868 19.3134"/>
<path transform="matrix(1.00003,0,0,-1.00003,39.57126,77.202838)" stroke-width="1.19553" stroke-linecap="butt" stroke-miterlimit="10" stroke-linejoin="miter" fill="none" stroke="#009900" d="M19.84267 19.84267 20.39099 20.11485 20.9393 20.38371 21.48764 20.64865 22.03596 20.91025 22.58429 21.16911 23.13261 21.42465 23.68095 21.67688 24.22926 21.92667 24.77759 22.17311 25.32593 22.41714 25.87425 22.65846 26.42258 22.89737 26.97089 23.13383 27.51923 23.36757 28.06754 23.5992 28.61588 23.829 29.1642 24.05609 29.71254 24.28104 30.26085 24.50418 30.80919 24.7252 31.35751 24.94412 31.90582 25.16121 32.45416 25.37648 33.00249 25.59024 33.55081 25.80188 34.09914 26.0117 34.64746 26.22002 35.19579 26.4268 35.74411 26.63179 36.29243 26.83525 36.84077 27.03722 37.38908 27.23796 37.93742 27.43657 38.48575 27.63428 39.03409 27.83047 39.5824 28.02516 40.13072 28.21863 40.67905 28.41089 41.22737 28.60165 41.7757 28.79118 42.32402 28.9795 42.87236 29.16663 43.42067 29.35254 43.96901 29.53752 44.51733 29.72101 45.06566 29.90358 45.61398 30.08493 46.16232 30.26509 46.71065 30.44432 47.25896 30.62238 47.80728 30.79948 48.35562 30.97571 48.90393 31.15071 49.45227 31.32512 50.0006 31.49829 50.5489 31.67058 51.09724 31.84164 51.64557 32.0121 52.19391 32.18166 52.74222 32.35031 53.29056 32.51804 53.83887 32.68489 54.38719 32.8508 54.93552 33.0161 55.48386 33.18051 56.03218 33.34401 56.5805 33.50659 57.12883 33.6686 57.67715 33.82997 58.22548 33.99045 58.7738 34.15001 59.32214 34.30896 59.87047 34.467 60.41878 34.62474 60.9671 34.78128 61.51544 34.93752 62.06375 35.09285 62.61209 35.24757 63.16042 35.40137 63.70874 35.55489 64.25706 35.70747 64.8054 35.85948 65.35373 36.01086 65.90204 36.16164 66.45038 36.31181 66.9987 36.4614 67.54701 36.61005 68.09534 36.7584 68.64368 36.90617 69.192 37.05331 69.74033 37.19986 70.28865 37.3458 70.83699 37.49112 71.3853 37.63585 71.93364 37.78029 72.48196 37.9238 73.03029 38.0673 73.57861 38.2099 74.12694 38.35193 74.67526 38.49362 75.22359 38.6344 75.77191 38.7752 76.32024 38.91539 76.86856 39.05466 77.41689 39.19394 77.96523 39.33232 78.51355 39.47037 79.06187 39.60783 79.6102 39.74498 80.15854 39.88184 80.70683 40.01779 81.25517 40.15373 81.8035 40.28877 82.35184 40.42381 82.90015 40.55792 83.44847 40.69208 83.99681 40.82529 84.54512 40.9585 85.09346 41.09114 85.64178 41.22313 86.19012 41.35484 86.73843 41.48624 87.28676 41.61734 87.83508 41.74785 88.3834 41.87773 88.93173 42.00761 89.48007 42.13692 90.02838 42.2656 90.57672 42.39427 91.12505 42.52234 91.67337 42.65012 92.2217 42.77728 92.77002 42.90445 93.31836 43.031 93.86667 43.15727 94.415 43.28322 94.96332 43.40857 95.51166 43.53392 96.05997 43.65866 96.6083 43.7831 97.15663 43.90694 97.70496 44.03078 98.25328 44.15431 98.8016 44.27722 99.34995 44.39984 99.89825 44.52248 100.4466 44.6445 100.99492 44.76591 101.54323 44.88763 102.09155 45.00842 102.6399 45.12924 103.1882 45.24974 103.73654 45.36964 104.28487 45.48924 104.8332 45.60883 105.38152 45.72783 105.92986 45.84682 106.47818 45.96521 107.02649 46.08328 107.57481 46.20137 108.12315 46.31885 108.67148 46.43633 109.21979 46.55319 109.76813 46.67006 110.31645 46.78633 110.86478 46.90259 111.4131 47.01825 111.96144 47.13391 112.50977 47.24928 113.05809 47.36403 113.60641 47.47908 114.15474 47.59322 114.70305 47.70767 115.25139 47.82152 115.79971 47.93506 116.34804 48.0483 116.89636 48.16153 117.44469 48.27417 117.99303 48.3871 118.54134 48.49911 119.08968 48.61115 119.638 48.72289 120.18633 48.83429 120.73465 48.94572 121.28297 49.05684 121.8313 49.16766 122.37962 49.27818 122.92795 49.38838 123.47629 49.49829 124.0246 49.6082 124.57292 49.7175 125.12126 49.8268 125.66959 49.93611 126.21791 50.0448 126.76624 50.15349 127.31458 50.26189 127.86287 50.36996 128.41121 50.47777 128.95954 50.58554"/>
<path transform="matrix(1.00003,0,0,-1.00003,39.57126,77.202838)" stroke-width=".79701" stroke-linecap="butt" stroke-dasharray="2.98883,2.98883" stroke-miterlimit="10" stroke-linejoin="miter" fill="none" stroke="#80cc80" d="M19.84267 0H20.39099 20.9393 21.48764 22.03596 22.58429 23.13261 23.68095 24.22926 24.77759 25.32593 25.87425 26.42258 26.97089 27.51923 28.06754 28.61588 29.1642 29.71254 30.26085 30.80919 31.35751 31.90582 32.45416 33.00249 33.55081 34.09914 34.64746 35.19579 35.74411 36.29243 36.84077 37.38908 37.93742 38.48575 39.03409 39.5824 40.13072 40.67905 41.22737 41.7757 42.32402 42.87236 43.42067 43.96901 44.51733 45.06566 45.61398 46.16232 46.71065 47.25896 47.80728 48.35562 48.90393 49.45227 50.0006 50.5489 51.09724 51.64557 52.19391 52.74222 53.29056 53.83887 54.38719 54.93552 55.48386 56.03218 56.5805 57.12883 57.67715 58.22548 58.7738 59.32214 59.87047 60.41878 60.9671 61.51544 62.06375 62.61209 63.16042 63.70874 64.25706 64.8054 65.35373 65.90204 66.45038 66.9987 67.54701 68.09534 68.64368 69.192 69.74033 70.28865 70.83699 71.3853 71.93364 72.48196 73.03029 73.57861 74.12694 74.67526 75.22359 75.77191 76.32024 76.86856 77.41689 77.96523 78.51355 79.06187 79.6102 80.15854 80.70683 81.25517 81.8035 82.35184 82.90015 83.44847 83.99681 84.54512 85.09346 85.64178 86.19012 86.73843 87.28676 87.83508 88.3834 88.93173 89.48007 90.02838 90.57672 91.12505 91.67337 92.2217 92.77002 93.31836 93.86667 94.415 94.96332 95.51166 96.05997 96.6083 97.15663 97.70496 98.25328 98.8016 99.34995 99.89825 100.4466 100.99492 101.54323 102.09155 102.6399 103.1882 103.73654 104.28487 104.8332 105.38152 105.92986 106.47818 107.02649 107.57481 108.12315 108.67148 109.21979 109.76813 110.31645 110.86478 111.4131 111.96144 112.50977 113.05809 113.60641 114.15474 114.70305 115.25139 115.79971 116.34804 116.89636 117.44469 117.99303 118.54134 119.08968 119.638 120.18633 120.73465 121.28297 121.8313 122.37962 122.92795 123.47629 124.0246 124.57292 125.12126 125.66959 126.21791 126.76624 127.31458 127.86287 128.41121 128.95954"/>
<path transform="matrix(1.00003,0,0,-1.00003,39.57126,77.202838)" stroke-width=".79701" stroke-linecap="butt" stroke-miterlimit="10" stroke-linejoin="miter" fill="none" stroke="#0000ff" d="M21.93483 19.84267C21.93483 20.99815 20.99815 21.93483 19.84267 21.93483 18.68718 21.93483 17.75049 20.99815 17.75049 19.84267 17.75049 18.68718 18.68718 17.75049 19.84267 17.75049 20.99815 17.75049 21.93483 18.68718 21.93483 19.84267ZM19.84267 19.84267"/>
<path transform="matrix(1.00003,0,0,-1.00003,39.57126,77.202838)" d="M21.93483 19.84267C21.93483 20.99815 20.99815 21.93483 19.84267 21.93483 18.68718 21.93483 17.75049 20.99815 17.75049 19.84267 17.75049 18.68718 18.68718 17.75049 19.84267 17.75049 20.99815 17.75049 21.93483 18.68718 21.93483 19.84267ZM19.84267 19.84267" fill="#009900"/>
<use data-text="1" xlink:href="#font_3_4" transform="matrix(7.3327205,0,0,-7.3327205,16.351563,53.03211)" fill="#0000ff"/>
<use data-text="&#x2212;" xlink:href="#font_2_2" transform="matrix(7.3327205,0,0,-7.3327205,21.214715,53.03211)" fill="#0000ff"/>
<use data-text="u" xlink:href="#font_1_2" transform="matrix(7.3327205,0,0,-7.3327205,27.464898,53.03211)" fill="#0000ff"/>
<use data-text="(" xlink:href="#font_3_1" transform="matrix(7.3327205,0,0,-7.3327205,32.399049,53.03211)" fill="#0000ff"/>
<use data-text="t" xlink:href="#font_1_1" transform="matrix(7.3327205,0,0,-7.3327205,35.125123,53.03211)" fill="#0000ff"/>
<use data-text=")" xlink:href="#font_3_2" transform="matrix(7.3327205,0,0,-7.3327205,38.40822,53.03211)" fill="#0000ff"/>
<use data-text="=" xlink:href="#font_2_4" transform="matrix(7.3327205,0,0,-7.3327205,42.338335,53.03211)" fill="#0000ff"/>
<use data-text="0" xlink:href="#font_3_3" transform="matrix(7.3327205,0,0,-7.3327205,48.97853,53.03211)" fill="#0000ff"/>
<use data-text="1" xlink:href="#font_3_4" transform="matrix(7.3327205,0,0,-7.3327205,95.724948,53.03211)" fill="#009900"/>
<use data-text="&#x2212;" xlink:href="#font_2_2" transform="matrix(7.3327205,0,0,-7.3327205,100.5881,53.03211)" fill="#009900"/>
<use data-text="u" xlink:href="#font_1_2" transform="matrix(7.3327205,0,0,-7.3327205,106.83828,53.03211)" fill="#009900"/>
<use data-text="(" xlink:href="#font_3_1" transform="matrix(7.3327205,0,0,-7.3327205,111.77243,53.03211)" fill="#009900"/>
<use data-text="t" xlink:href="#font_1_1" transform="matrix(7.3327205,0,0,-7.3327205,114.498508,53.03211)" fill="#009900"/>
<use data-text=")" xlink:href="#font_3_2" transform="matrix(7.3327205,0,0,-7.3327205,117.7816,53.03211)" fill="#009900"/>
<use data-text="=" xlink:href="#font_2_4" transform="matrix(7.3327205,0,0,-7.3327205,121.711719,53.03211)" fill="#009900"/>
<use data-text="1" xlink:href="#font_3_4" transform="matrix(7.3327205,0,0,-7.3327205,128.35192,53.03211)" fill="#009900"/>
<use data-text="&#x201c;" xlink:href="#font_3_12" transform="matrix(7.3327205,0,0,-7.3327205,26.85888,109.481807)" fill="#0000ff"/>
<use data-text="o" xlink:href="#font_3_11" transform="matrix(7.3327205,0,0,-7.3327205,29.630646,109.481807)" fill="#0000ff"/>
<use data-text="f" xlink:href="#font_3_9" transform="matrix(7.3327205,0,0,-7.3327205,33.861627,109.481807)" fill="#0000ff"/>
<use data-text="f" xlink:href="#font_3_9" transform="matrix(7.3327205,0,0,-7.3327205,36.20076,109.481807)" fill="#0000ff"/>
<use data-text="&#x201d;" xlink:href="#font_3_13" transform="matrix(7.3327205,0,0,-7.3327205,39.001855,109.481807)" fill="#0000ff"/>
<use data-text="&#x201c;" xlink:href="#font_3_12" transform="matrix(7.3327205,0,0,-7.3327205,106.83428,109.481807)" fill="#009900"/>
<use data-text="o" xlink:href="#font_3_11" transform="matrix(7.3327205,0,0,-7.3327205,109.60605,109.481807)" fill="#009900"/>
<use data-text="n" xlink:href="#font_3_10" transform="matrix(7.3327205,0,0,-7.3327205,113.83703,109.481807)" fill="#009900"/>
<use data-text="&#x201d;" xlink:href="#font_3_13" transform="matrix(7.3327205,0,0,-7.3327205,117.782039,109.481807)" fill="#009900"/>
<use data-text="&#xfffd;" xlink:href="#font_2_1" transform="matrix(7.3327205,0,0,-7.3327205,1.0931015,66.766529)"/>
<path transform="matrix(1.00003,0,0,-1.00003,-107.480159,11.572865)" stroke-width=".4224" stroke-linecap="butt" stroke-miterlimit="10" stroke-linejoin="miter" fill="none" stroke="#000000" d="M114.675-54.98H118.118"/>
<use data-text="t" xlink:href="#font_1_1" transform="matrix(7.3327205,0,0,-7.3327205,7.357292,72.7787)"/>
<use data-text="&#x00b7;" xlink:href="#font_2_3" transform="matrix(7.3327205,0,0,-7.3327205,11.615425,72.7787)"/>
<use data-text="0" xlink:href="#font_3_3" transform="matrix(7.3327205,0,0,-7.3327205,14.629517,72.7787)" fill="#0000ff"/>
<use data-text="&#xfffd;" xlink:href="#font_2_1" transform="matrix(7.3327205,0,0,-7.3327205,56.65377,66.766529)"/>
<path transform="matrix(1.00003,0,0,-1.00003,-51.919488,11.572865)" stroke-width=".4224" stroke-linecap="butt" stroke-miterlimit="10" stroke-linejoin="miter" fill="none" stroke="#000000" d="M114.675-54.98H118.118"/>
<use data-text="t" xlink:href="#font_1_1" transform="matrix(7.3327205,0,0,-7.3327205,62.91796,72.7787)"/>
<use data-text="&#x00b7;" xlink:href="#font_2_3" transform="matrix(7.3327205,0,0,-7.3327205,67.176097,72.7787)"/>
<use data-text="1" xlink:href="#font_3_4" transform="matrix(7.3327205,0,0,-7.3327205,70.190189,72.7787)" fill="#009900"/>
</svg>
