<svg xmlns="http://www.w3.org/2000/svg" xmlns:xlink="http://www.w3.org/1999/xlink" version="1.1" width="142" height="90" viewBox="0 0 142 90">
<defs>
<path id="font_1_2" d="M.4850006 .13195801 .45700074 .13696289C.43598939 .08299255 .41600038 .07598877 .37599183 .07598877H.11999512C.13598633 .1279602 .19499207 .19892884 .28799439 .2658844 .38398744 .33584596 .45799256 .38082887 .45799256 .49276734 .45799256 .63168337 .3659973 .6796875 .26098634 .6796875 .12399292 .6796875 .052993776 .5967102 .052993776 .54473879 .052993776 .51075747 .09098816 .49476625 .10798645 .49476625 .12599182 .49476625 .1329956 .50476077 .13699341 .5217438 .15299988 .5897064 .19198609 .64468386 .2539978 .64468386 .33099366 .64468386 .35299684 .5797119 .35299684 .50675967 .35299684 .3998108 .29899598 .33984376 .21199036 .26289369 .08898926 .15594483 .04598999 .08798218 .026992798 .009994507L.036987306 0H.45098878L.4850006 .13195801Z"/>
<path id="font_1_3" d="M.2999878 .17871094V.0769043C.2999878 .04296875 .2889862 .036987306 .2649994 .034988405L.20098877 .0289917V0H.46499635V.0289917L.41999818 .033981325C.39698792 .036987306 .3899994 .04296875 .3899994 .0769043V.17871094H.49299623V.22570801H.3899994V.66796877H.31698609C.22299195 .5298767 .11099243 .35577394 .018997193 .19970703L.027999878 .17871094H.2999878M.09098816 .22570801C.15098572 .33476258 .22099304 .4498291 .2979889 .5709076H.2999878V.22570801H.09098816Z"/>
<path id="font_2_3" d="M.070999149 .45393373 .07398987 .42893983 .14199829 .43093873C.1639862 .43193055 .16899109 .41493226 .1769867 .36291505 .18798828 .28489686 .20999146 .09286499 .20999146 .0128479 .20999146-.017166138 .20799256-.058166505 .18598938-.11117554 .16799927-.15318299 .14199829-.18218994 .12199402-.18218994 .10699463-.18218994 .09599304-.17118836 .08099365-.15118408 .068984989-.13517761 .06098938-.127182 .04598999-.127182 .019989014-.12818909-.005004883-.15818787-.005004883-.18719483-.005004883-.21418762 .023986817-.2421875 .067993167-.2421875 .15299988-.2421875 .18998719-.17919922 .27799989-.027160645 .2979889 .0068511965 .35798646 .11286926 .41999818 .21488953 .47698976 .30891419 .5399933 .40592958 .5399933 .4459381 .5399933 .48094178 .5289917 .5019531 .5219879 .5019531 .5029907 .5019531 .46899415 .49394227 .44400025 .47694398 .44499208 .4419403 .44299317 .3809204 .43099977 .33891297 .4149933 .28289796 .35598756 .17488098 .2899933 .06085205H.2869873C.27999879 .21388245 .26098634 .42492677 .24699402 .49795533L.23899842 .5019531 .070999149 .45393373Z"/>
<path id="font_2_1" d="M.18399048 .0002746582 .3600006 .7371979 .35499574 .7421875 .17599488 .71824648 .16999817 .6953125 .22698975 .68829348C.2519989 .6852875 .2559967 .67826846 .24699402 .63920596L.09199524-.01171875 .18399048 .0002746582M.5499878 .5019531C.5099945 .5019531 .46099855 .47094728 .4099884 .427948 .35398866 .378891 .3019867 .32374574 .25498963 .26660157 .27398683 .2027893 .2979889 .14396668 .32598878 .08314514 .35499574 .01927185 .38398744-.01171875 .43199159-.01171875 .49598695-.01171875 .5399933 .045272829 .56999209 .12901306L.54499819 .14196778C.5169983 .08215332 .49198915 .043273927 .46499635 .043273927 .44799806 .043273927 .43399049 .062210084 .40899659 .11405945 .37799073 .17686463 .35299684 .2416687 .33399964 .30870057 .3619995 .34075929 .43998719 .4259491 .47599793 .4259491 .4909973 .4259491 .5019989 .42092896 .5249939 .40690614 .5319977 .40293885 .5419922 .39894105 .5529938 .39894105 .58099368 .39894105 .60198977 .427948 .60198977 .4529419 .60198977 .47994996 .58898928 .5019531 .5499878 .5019531Z"/>
<path id="font_3_1" d="M.084991458 .31092835V.2529297H.33099366V.0068359377H.3889923V.2529297H.6349945V.31092835H.3889923V.5566406H.33099366V.31092835H.084991458Z"/>
<path id="font_1_1" d="M.43699647 0V.0289917L.35299684 .035995485C.33198548 .037994386 .31999208 .04598999 .31999208 .08496094V.67367556L.31498719 .6796875 .10899353 .6446991V.6197052L.20199585 .6087036C.21899414 .6067047 .22599793 .5987091 .22599793 .56973269V.08496094C.22599793 .065979007 .22299195 .053985597 .21699524 .04698181 .21199036 .039993287 .20399475 .036987306 .19299317 .035995485L.10899353 .0289917V0H.43699647Z"/>
<clipPath id="clip_4">
<path transform="matrix(1,0,0,-1.00003,12.871994,88.77222)" d="M0 0H127.34773V87.67284H0Z"/>
</clipPath>
<path id="font_2_2" d="M.42799378 .45222474 .43899537 .49023438H.31199647L.34599305 .6092224 .33399964 .6162262 .23699951 .53923037 .22399903 .49023438H.14299011L.13198853 .45222474H.21499634L.125 .08627319C.10998535 .029266358 .12199402-.01171875 .17199707-.01171875 .2519989-.01171875 .31599427 .054275514 .35598756 .1292572L.33399964 .1462555C.31098939 .10726929 .2599945 .040267946 .22898865 .040267946 .20799256 .040267946 .20799256 .0632782 .21398926 .088272098L.30299378 .45222474H.42799378Z"/>
</defs>
<path transform="matrix(1,0,0,-1.00003,12.871994,88.77222)" stroke-width=".3985" stroke-linecap="butt" stroke-miterlimit="10" stroke-linejoin="miter" fill="none" stroke="#cbcbcb" d="M57.88533 0V87.67284M104.19359 0V87.67284"/>
<path transform="matrix(1,0,0,-1.00003,12.871994,88.77222)" stroke-width=".3985" stroke-linecap="butt" stroke-miterlimit="10" stroke-linejoin="miter" fill="none" stroke="#cbcbcb" d="M0 38.9657H127.34773M0 63.31927H127.34773"/>
<path transform="matrix(1,0,0,-1.00003,12.871994,88.77222)" stroke-width=".19925" stroke-linecap="butt" stroke-miterlimit="10" stroke-linejoin="miter" fill="none" stroke="#929292" d="M57.88533 12.48624V16.738M104.19359 12.48624V16.738"/>
<path transform="matrix(1,0,0,-1.00003,12.871994,88.77222)" stroke-width=".19925" stroke-linecap="butt" stroke-miterlimit="10" stroke-linejoin="miter" fill="none" stroke="#929292" d="M9.45107 38.9657H13.70303M9.45107 63.31927H13.70303"/>
<path transform="matrix(1,0,0,-1.00003,12.871994,88.77222)" stroke-width=".99628" stroke-linecap="butt" stroke-miterlimit="10" stroke-linejoin="miter" fill="none" stroke="#000000" d="M0 14.61214H124.45851"/>
<path transform="matrix(1,0,0,-1.00003,137.3305,74.15964)" d="M2.8892 0-1.73352 2.31136 0 0-1.73352-2.31136"/>
<path transform="matrix(1,0,0,-1.00003,12.871994,88.77222)" stroke-width=".99628" stroke-linecap="butt" stroke-miterlimit="10" stroke-linejoin="miter" fill="none" stroke="#000000" d="M11.57706 0V84.78363"/>
<path transform="matrix(0,-1.00003,-1,-0,24.449055,3.9860383)" d="M2.8892 0-1.73352 2.31136 0 0-1.73352-2.31136"/>
<use data-text="2" xlink:href="#font_1_2" transform="matrix(10.0364,0,0,-10.036701,68.09499,86.704158)"/>
<use data-text="4" xlink:href="#font_1_3" transform="matrix(10.0364,0,0,-10.036701,114.40399,86.704158)"/>
<use data-text="y" xlink:href="#font_2_3" transform="matrix(10.0364,0,0,-10.036701,11.148003,51.054086)"/>
<use data-text="k" xlink:href="#font_2_1" transform="matrix(7.6075,0,0,-7.6077287,16.286004,52.89914)"/>
<use data-text="y" xlink:href="#font_2_3" transform="matrix(10.0364,0,0,-10.036701,1.6380005,26.700352)"/>
<use data-text="k" xlink:href="#font_2_1" transform="matrix(7.6075,0,0,-7.6077287,6.776001,28.545407)"/>
<use data-text="+" xlink:href="#font_3_1" transform="matrix(7.6075,0,0,-7.6077287,11.498001,28.545407)"/>
<use data-text="1" xlink:href="#font_1_1" transform="matrix(7.6075,0,0,-7.6077287,16.972,28.545407)"/>
<g clip-path="url(#clip_4)">
<path transform="matrix(1,0,0,-1.00003,12.871994,88.77222)" stroke-width=".99628" stroke-linecap="butt" stroke-miterlimit="10" stroke-linejoin="miter" fill="none" stroke="#000000" d="M57.88533 15.44403V36.91612"/>
<path transform="matrix(0,1.00003,1,0,70.757328,73.32772)" stroke-width=".79701" stroke-linecap="round" stroke-linejoin="round" fill="none" stroke="#000000" d="M-1.73352 2.31136C-1.58905 1.4446 0 .14444 .43336 0 0-.14444-1.58905-1.4446-1.73352-2.31136"/>
<path transform="matrix(0,-1.00003,-1,-0,70.757328,51.85499)" stroke-width=".79701" stroke-linecap="round" stroke-linejoin="round" fill="none" stroke="#000000" d="M-1.73352 2.31136C-1.58905 1.4446 0 .14444 .43336 0 0-.14444-1.58905-1.4446-1.73352-2.31136"/>
<use data-text="y" xlink:href="#font_2_3" transform="matrix(10.0364,0,0,-10.036701,56.702,63.84047)"/>
<use data-text="k" xlink:href="#font_2_1" transform="matrix(7.6075,0,0,-7.6077287,61.84,65.685527)"/>
</g>
<path transform="matrix(1,0,0,-1.00003,12.871994,88.77222)" d="M59.87788 38.9657C59.87788 40.06618 58.9858 40.95825 57.88533 40.95825 56.78485 40.95825 55.89278 40.06618 55.89278 38.9657 55.89278 37.86523 56.78485 36.97314 57.88533 36.97314 58.9858 36.97314 59.87788 37.86523 59.87788 38.9657ZM57.88533 38.9657" fill="#0000cc"/>
<path transform="matrix(1,0,0,-1.00003,12.871994,88.77222)" stroke-width=".99628" stroke-linecap="butt" stroke-miterlimit="10" stroke-linejoin="miter" fill="none" stroke="#0000ff" d="M59.87788 38.9657C59.87788 40.06618 58.9858 40.95825 57.88533 40.95825 56.78485 40.95825 55.89278 40.06618 55.89278 38.9657 55.89278 37.86523 56.78485 36.97314 57.88533 36.97314 58.9858 36.97314 59.87788 37.86523 59.87788 38.9657ZM57.88533 38.9657"/>
<path transform="matrix(1,0,0,-1.00003,12.871994,88.77222)" d="M106.18614 63.31927C106.18614 64.41974 105.29407 65.31183 104.19359 65.31183 103.09312 65.31183 102.20103 64.41974 102.20103 63.31927 102.20103 62.2188 103.09312 61.32672 104.19359 61.32672 105.29407 61.32672 106.18614 62.2188 106.18614 63.31927ZM104.19359 63.31927" fill="#0000cc"/>
<path transform="matrix(1,0,0,-1.00003,12.871994,88.77222)" stroke-width=".99628" stroke-linecap="butt" stroke-miterlimit="10" stroke-linejoin="miter" fill="none" stroke="#0000ff" d="M106.18614 63.31927C106.18614 64.41974 105.29407 65.31183 104.19359 65.31183 103.09312 65.31183 102.20103 64.41974 102.20103 63.31927 102.20103 62.2188 103.09312 61.32672 104.19359 61.32672 105.29407 61.32672 106.18614 62.2188 106.18614 63.31927ZM104.19359 63.31927"/>
<path transform="matrix(1,0,0,-1.00003,12.871994,88.77222)" stroke-width=".99628" stroke-linecap="butt" stroke-miterlimit="10" stroke-linejoin="miter" fill="none" stroke="#0000ff" d=""/>
<use data-text="t" xlink:href="#font_2_2" transform="matrix(10.0364,0,0,-10.036701,132.02799,70.374668)"/>
<use data-text="y" xlink:href="#font_2_3" transform="matrix(10.0364,0,0,-10.036701,28.693,9.758842)"/>
</svg>
