<svg xmlns="http://www.w3.org/2000/svg" xmlns:xlink="http://www.w3.org/1999/xlink" version="1.1" width="186" height="97" viewBox="0 0 186 97">
<defs>
<path id="font_1_3" d="M.42799378 .45222474 .43899537 .49023438H.31199647L.34599305 .6092224 .33399964 .6162262 .23699951 .53923037 .22399903 .49023438H.14299011L.13198853 .45222474H.21499634L.125 .08627319C.10998535 .029266358 .12199402-.01171875 .17199707-.01171875 .2519989-.01171875 .31599427 .054275514 .35598756 .1292572L.33399964 .1462555C.31098939 .10726929 .2599945 .040267946 .22898865 .040267946 .20799256 .040267946 .20799256 .0632782 .21398926 .088272098L.30299378 .45222474H.42799378Z"/>
<path id="font_1_2" d="M.18399048 .0002746582 .3600006 .7371979 .35499574 .7421875 .17599488 .71824648 .16999817 .6953125 .22698975 .68829348C.2519989 .6852875 .2559967 .67826846 .24699402 .63920596L.09199524-.01171875 .18399048 .0002746582M.5499878 .5019531C.5099945 .5019531 .46099855 .47094728 .4099884 .427948 .35398866 .378891 .3019867 .32374574 .25498963 .26660157 .27398683 .2027893 .2979889 .14396668 .32598878 .08314514 .35499574 .01927185 .38398744-.01171875 .43199159-.01171875 .49598695-.01171875 .5399933 .045272829 .56999209 .12901306L.54499819 .14196778C.5169983 .08215332 .49198915 .043273927 .46499635 .043273927 .44799806 .043273927 .43399049 .062210084 .40899659 .11405945 .37799073 .17686463 .35299684 .2416687 .33399964 .30870057 .3619995 .34075929 .43998719 .4259491 .47599793 .4259491 .4909973 .4259491 .5019989 .42092896 .5249939 .40690614 .5319977 .40293885 .5419922 .39894105 .5529938 .39894105 .58099368 .39894105 .60198977 .427948 .60198977 .4529419 .60198977 .47994996 .58898928 .5019531 .5499878 .5019531Z"/>
<path id="font_2_3" d="M.084991458 .31092835V.2529297H.33099366V.0068359377H.3889923V.2529297H.6349945V.31092835H.3889923V.5566406H.33099366V.31092835H.084991458Z"/>
<path id="font_3_4" d="M.43699647 0V.0289917L.35299684 .035995485C.33198548 .037994386 .31999208 .04598999 .31999208 .08496094V.67367556L.31498719 .6796875 .10899353 .6446991V.6197052L.20199585 .6087036C.21899414 .6067047 .22599793 .5987091 .22599793 .56973269V.08496094C.22599793 .065979007 .22299195 .053985597 .21699524 .04698181 .21199036 .039993287 .20399475 .036987306 .19299317 .035995485L.10899353 .0289917V0H.43699647Z"/>
<path id="font_1_4" d="M.070999149 .45393373 .07398987 .42893983 .14199829 .43093873C.1639862 .43193055 .16899109 .41493226 .1769867 .36291505 .18798828 .28489686 .20999146 .09286499 .20999146 .0128479 .20999146-.017166138 .20799256-.058166505 .18598938-.11117554 .16799927-.15318299 .14199829-.18218994 .12199402-.18218994 .10699463-.18218994 .09599304-.17118836 .08099365-.15118408 .068984989-.13517761 .06098938-.127182 .04598999-.127182 .019989014-.12818909-.005004883-.15818787-.005004883-.18719483-.005004883-.21418762 .023986817-.2421875 .067993167-.2421875 .15299988-.2421875 .18998719-.17919922 .27799989-.027160645 .2979889 .0068511965 .35798646 .11286926 .41999818 .21488953 .47698976 .30891419 .5399933 .40592958 .5399933 .4459381 .5399933 .48094178 .5289917 .5019531 .5219879 .5019531 .5029907 .5019531 .46899415 .49394227 .44400025 .47694398 .44499208 .4419403 .44299317 .3809204 .43099977 .33891297 .4149933 .28289796 .35598756 .17488098 .2899933 .06085205H.2869873C.27999879 .21388245 .26098634 .42492677 .24699402 .49795533L.23899842 .5019531 .070999149 .45393373Z"/>
<clipPath id="clip_4">
<path transform="matrix(1.00005,0,0,-1.00008,5.3147127,95.03841)" d="M0 0H178.97046V93.9347H0Z"/>
</clipPath>
<path id="font_1_1" d="M.35198976 .7371979 .34700013 .7421875 .16699219 .71824648 .16099549 .6953125 .21798706 .68829348C.24299622 .6852875 .24699402 .67826846 .23799134 .63920596L.09199524-.01171875 .1789856 .0002746582C.20599365 .10221863 .22099304 .15718079 .24598694 .22012329 .27598573 .2980652 .375 .44995118 .46199037 .44995118 .49398805 .44995118 .5059967 .42097474 .49398805 .38000489L.4119873 .096221927C.3929901 .030273438 .40699769-.01171875 .46398927-.01171875 .5329895-.01171875 .58898928 .056259157 .6230011 .13220215L.598999 .14619446C.58099368 .11122131 .5369873 .040267946 .5089874 .040267946 .4889984 .040267946 .4889984 .06324768 .49899293 .0952301L.5779877 .35702516C.60198977 .43595887 .58898928 .5019531 .5079956 .5019531 .41299439 .5019531 .30699159 .39898683 .24299622 .27908326H.23999024L.35198976 .7371979Z"/>
<path id="font_2_2" d="M.07998657 .28173829C.07998657 .24674988 .10798645 .21875 .14299011 .21875 .17799378 .21875 .20599365 .24674988 .20599365 .28173829 .20599365 .31674195 .17799378 .34474183 .14299011 .34474183 .10798645 .34474183 .07998657 .31674195 .07998657 .28173829Z"/>
<path id="font_2_1" d="M.2769928 .50541689C.2829895 .5204315 .28399659 .5294342 .28399659 .53344729 .28399659 .5544586 .2539978 .56347659 .22299195 .56347659 .19299317 .56347659 .1619873 .5544586 .15899658 .53944399L.053985597 .05303955C.053985597 .046035768 .067993167 .040039064 .07998657 .040039064 .08799744 .040039064 .09599304 .043029787 .09799194 .048034669L.2769928 .50541689Z"/>
<path id="font_3_7" d="M.18899536 .5019531 .036987306 .47694398V.45195008L.07499695 .4469452C.100997928 .4429474 .10699463 .4379425 .10699463 .40194703V.08699036C.10699463 .035995485 .101989749 .033996583 .03199768 .0289917V0H.29599V.0289917C.20698548 .033996583 .20098877 .035995485 .20098877 .08699036V.32095338C.20098877 .39794923 .23498535 .4239502 .2579956 .4239502 .27398683 .4239502 .29100038 .4179535 .31999208 .40194703 .32699586 .39794923 .33499146 .39694215 .33999635 .39694215 .3639984 .39694215 .38598634 .4219513 .38598634 .4529419 .38598634 .47494508 .37199403 .5019531 .33299256 .5019531 .29699708 .5019531 .2669983 .47994996 .20098877 .4219513L.18899536 .5019531Z"/>
<path id="font_3_6" d="M.036987306 .47694398V.45195008L.07499695 .4469452C.100997928 .4429474 .10699463 .43795777 .10699463 .40194703V.08699036C.10699463 .035995485 .10398865 .033996583 .03199768 .0289917V0H.27598573V.0289917C.20498657 .033996583 .20098877 .035995485 .20098877 .08699036V.49609376L.19400025 .5020752 .036987306 .47694398M.15299988 .71484377C.116989139 .71484377 .09199524 .6888428 .09199524 .65283206 .09199524 .61782839 .116989139 .5928345 .15299988 .5928345 .18998719 .5928345 .21299744 .61782839 .21398926 .65283206 .21398926 .6888428 .18998719 .71484377 .15299988 .71484377Z"/>
<path id="font_3_8" d="M.36698915 .35102845V.46794129C.33399964 .49194337 .2829895 .5019531 .23799134 .5019531 .12998963 .5019531 .056991579 .45095826 .055999757 .35603334 .056991579 .27308656 .12399292 .2361145 .20698548 .21113587 .2519989 .19714356 .31498719 .17416382 .31498719 .10621643 .31498719 .055252077 .2749939 .023269654 .22200012 .023269654 .14099121 .023269654 .09599304 .082229617 .07598877 .16716004H.04699707L.056991579 .03627014C.09298706 .004272461 .1539917-.01171875 .21299744-.01171875 .33198548-.01171875 .3999939 .051254274 .3999939 .13618469 .3999939 .2241211 .34599305 .26409913 .24299622 .29606629 .20199585 .30906678 .13598633 .3300476 .13598633 .3860016 .13699341 .43795777 .17599488 .46694947 .22599793 .46694947 .29699708 .46694947 .33099366 .4119873 .33799745 .35102845H.36698915Z"/>
<path id="font_3_5" d="M.44099427 .2627716C.46199037 .2627716 .48098756 .2677765 .48098756 .30078126 .48098756 .35983277 .46199037 .5019531 .2789917 .5019531 .12298584 .5019531 .04899597 .39086915 .04899597 .24082947 .04899597 .08317566 .116989139-.01373291 .27999879-.01171875 .3909912-.010726929 .44799806 .050247194 .47499085 .1290741L.44499208 .14503479C.4169922 .08717346 .3789978 .039276124 .2999878 .039276124 .17599488 .039276124 .15098572 .15901184 .15299988 .2627716H.44099427M.1539917 .30078126C.1539917 .34181214 .16899109 .46694947 .272995 .46694947 .3659973 .46694947 .3769989 .37184144 .3769989 .33280946 .3769989 .31378175 .37098695 .30078126 .34298707 .30078126H.1539917Z"/>
<path id="font_3_1" d="M.1749878 .2822113C.1749878 .56832888 .2619934 .65437319 .32499696 .66737368V.6923828C.1499939 .685379 .10499573 .46829225 .10499573 .2822113 .10499573 .09614563 .1499939-.12094116 .32499696-.12792969V-.10293579C.2669983-.090927127 .1749878-.0059051516 .1749878 .2822113Z"/>
<path id="font_3_3" d="M.069992069-.140625C.11999512-.09362793 .19299317-.027633667 .19299317 .051361085 .19299317 .10636902 .1599884 .1423645 .125 .14137268 .09399414 .14137268 .07598877 .117370609 .07598877 .09136963 .07598877 .055374147 .10899353 .037368776 .10899353-.005630493 .10899353-.04663086 .08299255-.086639408 .050994874-.12162781L.069992069-.140625Z"/>
<path id="font_3_2" d="M.1749878 .2822113C.1749878-.0059051516 .08299255-.090927127 .024993897-.10293579V-.12792969C.19999695-.12094116 .24499512 .09614563 .24499512 .2822113 .24499512 .46829225 .19999695 .685379 .024993897 .6923828V.66737368C.08799744 .65437319 .1749878 .56832888 .1749878 .2822113Z"/>
</defs>
<path transform="matrix(1.00005,0,0,-1.00008,5.3147127,95.03841)" stroke-width=".3985" stroke-linecap="butt" stroke-miterlimit="10" stroke-linejoin="miter" fill="none" stroke="#cbcbcb" d="M73.69371 0V93.9347M126.33208 0V93.9347"/>
<path transform="matrix(1.00005,0,0,-1.00008,5.3147127,95.03841)" stroke-width=".3985" stroke-linecap="butt" stroke-miterlimit="10" stroke-linejoin="miter" fill="none" stroke="#cbcbcb" d="M0 36.65744H178.97046M0 71.02379H178.97046"/>
<path transform="matrix(1.00005,0,0,-1.00008,5.3147127,95.03841)" stroke-width=".19925" stroke-linecap="butt" stroke-miterlimit="10" stroke-linejoin="miter" fill="none" stroke="#929292" d="M73.69371 11.62065V15.87239M126.33208 11.62065V15.87239"/>
<path transform="matrix(1.00005,0,0,-1.00008,5.3147127,95.03841)" stroke-width=".19925" stroke-linecap="butt" stroke-miterlimit="10" stroke-linejoin="miter" fill="none" stroke="#929292" d="M18.9294 36.65744H23.18126M18.9294 71.02379H23.18126"/>
<path transform="matrix(1.00005,0,0,-1.00008,5.3147127,95.03841)" stroke-width=".99628" stroke-linecap="butt" stroke-miterlimit="10" stroke-linejoin="miter" fill="none" stroke="#000000" d="M0 13.74654H176.08124"/>
<path transform="matrix(1.00005,0,0,-1.00008,181.40474,81.290767)" d="M2.8892 0-1.73352 2.31136 0 0-1.73352-2.31136"/>
<path transform="matrix(1.00005,0,0,-1.00008,5.3147127,95.03841)" stroke-width=".99628" stroke-linecap="butt" stroke-miterlimit="10" stroke-linejoin="miter" fill="none" stroke="#000000" d="M21.05534 0V91.04547"/>
<path transform="matrix(0,-1.00008,-1.00005,-0,26.371104,3.985649)" d="M2.8892 0-1.73352 2.31136 0 0-1.73352-2.31136"/>
<path transform="matrix(1.00005,0,0,-1.00008,5.3147127,95.03841)" d="M65.89867-3.37346H81.48874V11.12253H65.89867Z" fill="#ffffff"/>
<use data-text="t" xlink:href="#font_1_3" transform="matrix(10.036901,0,0,-10.037203,74.63418,93.30127)"/>
<use data-text="k" xlink:href="#font_1_2" transform="matrix(7.60788,0,0,-7.6081087,78.38736,95.146419)"/>
<path transform="matrix(1.00005,0,0,-1.00008,5.3147127,95.03841)" d="M113.78232-3.37346H138.88184V11.12253H113.78232Z" fill="#ffffff"/>
<use data-text="t" xlink:href="#font_1_3" transform="matrix(10.036901,0,0,-10.037203,122.52058,93.30127)"/>
<use data-text="k" xlink:href="#font_1_2" transform="matrix(7.60788,0,0,-7.6081087,126.27376,95.146419)"/>
<use data-text="+" xlink:href="#font_2_3" transform="matrix(7.60788,0,0,-7.6081087,130.995,95.146419)"/>
<use data-text="1" xlink:href="#font_3_4" transform="matrix(7.60788,0,0,-7.6081087,136.47028,95.146419)"/>
<path transform="matrix(1.00005,0,0,-1.00008,5.3147127,95.03841)" d="M2.0885 29.74318H19.39133V43.57168H2.0885Z" fill="#ffffff"/>
<use data-text="y" xlink:href="#font_1_4" transform="matrix(10.036901,0,0,-10.037203,11.148003,59.627576)"/>
<use data-text="k" xlink:href="#font_1_2" transform="matrix(7.60788,0,0,-7.6081087,16.287255,61.47272)"/>
<path transform="matrix(1.00005,0,0,-1.00008,5.3147127,95.03841)" d="M-7.42093 64.10953H19.391339V77.93803H-7.42093Z" fill="#ffffff"/>
<use data-text="y" xlink:href="#font_1_4" transform="matrix(10.036901,0,0,-10.037203,1.6385269,25.25782)"/>
<use data-text="k" xlink:href="#font_1_2" transform="matrix(7.60788,0,0,-7.6081087,6.7777788,27.102967)"/>
<use data-text="+" xlink:href="#font_2_3" transform="matrix(7.60788,0,0,-7.6081087,11.499016,27.102967)"/>
<use data-text="1" xlink:href="#font_3_4" transform="matrix(7.60788,0,0,-7.6081087,16.97329,27.102967)"/>
<g clip-path="url(#clip_4)">
<path transform="matrix(1.00005,0,0,-1.00008,5.3147127,95.03841)" stroke-width=".99628" stroke-linecap="butt" stroke-miterlimit="10" stroke-linejoin="miter" fill="none" stroke="#929292" d="M73.69371 36.65744V36.65744 70.1919"/>
<path transform="matrix(0,-1.00008,-1.00005,-0,79.0121,24.840889)" stroke-width=".79701" stroke-linecap="round" stroke-linejoin="round" fill="none" stroke="#929292" d="M-1.73352 2.31136C-1.58905 1.4446 0 .14444 .43336 0 0-.14444-1.58905-1.4446-1.73352-2.31136"/>
<path transform="matrix(1.00005,0,0,-1.00008,5.3147127,95.03841)" d="M58.9962 44.4512H88.39122V63.23001H58.9962Z" fill="#ffffff"/>
<use data-text="h" xlink:href="#font_1_1" transform="matrix(10.036901,0,0,-10.037203,67.51382,43.264265)" fill="#929292"/>
<use data-text="&#x00b7;" xlink:href="#font_2_2" transform="matrix(10.036901,0,0,-10.037203,75.48022,43.264265)" fill="#929292"/>
<use data-text="y" xlink:href="#font_1_4" transform="matrix(10.036901,0,0,-10.037203,80.15145,43.264265)" fill="#929292"/>
<use data-text="&#x2032;" xlink:href="#font_2_1" transform="matrix(7.60788,0,0,-7.6081087,85.77074,39.303945)" fill="#929292"/>
<use data-text="k" xlink:href="#font_1_2" transform="matrix(7.60788,0,0,-7.6081087,85.2907,47.317586)" fill="#929292"/>
<path transform="matrix(1.00005,0,0,-1.00008,5.3147127,95.03841)" d="M73.69371 71.02379V71.02379H122.86827" fill="#ffffff"/>
<path transform="matrix(1.00005,0,0,-1.00008,5.3147127,95.03841)" stroke-width=".99628" stroke-linecap="butt" stroke-miterlimit="10" stroke-linejoin="miter" fill="none" stroke="#929292" d="M73.69371 71.02379V71.02379H122.86827"/>
<path transform="matrix(1.00005,0,0,-1.00008,128.18912,24.008934)" stroke-width=".79701" stroke-linecap="round" stroke-linejoin="round" fill="none" stroke="#929292" d="M-1.73352 2.31136C-1.58905 1.4446 0 .14444 .43336 0 0-.14444-1.58905-1.4446-1.73352-2.31136"/>
<path transform="matrix(1.00005,0,0,-1.00008,5.3147127,95.03841)" d="M92.18085 64.03044H105.21302V78.01714H92.18085Z" fill="#ffffff"/>
<use data-text="h" xlink:href="#font_1_1" transform="matrix(10.036901,0,0,-10.037203,100.70047,27.716019)" fill="#929292"/>
<use data-text="r" xlink:href="#font_3_7" transform="matrix(0,-9.166333,-9.166058,-0,63.806634,48.70069)" fill="#929292"/>
<use data-text="i" xlink:href="#font_3_6" transform="matrix(0,-9.166333,-9.166058,-0,63.806634,45.070825)" fill="#929292"/>
<use data-text="s" xlink:href="#font_3_8" transform="matrix(0,-9.166333,-9.166058,-0,63.806634,42.394258)" fill="#929292"/>
<use data-text="e" xlink:href="#font_3_5" transform="matrix(0,-9.166333,-9.166058,-0,63.806634,38.397737)" fill="#929292"/>
<use data-text="(" xlink:href="#font_3_1" transform="matrix(9.166058,0,0,-9.166333,79.34741,68.56229)"/>
<use data-text="t" xlink:href="#font_1_3" transform="matrix(9.166058,0,0,-9.166333,82.75458,68.56229)"/>
<use data-text="k" xlink:href="#font_1_2" transform="matrix(6.966248,0,0,-6.9664576,86.181758,70.26042)"/>
<use data-text="," xlink:href="#font_3_3" transform="matrix(9.166058,0,0,-9.166333,91.00399,68.56229)"/>
<use data-text="y" xlink:href="#font_1_4" transform="matrix(9.166058,0,0,-9.166333,94.90719,68.56229)"/>
<use data-text="k" xlink:href="#font_1_2" transform="matrix(6.966248,0,0,-6.9664576,99.59943,70.26042)"/>
<use data-text=")" xlink:href="#font_3_2" transform="matrix(9.166058,0,0,-9.166333,104.42166,68.56229)"/>
<use data-text="(" xlink:href="#font_3_1" transform="matrix(9.166058,0,0,-9.166333,131.176,34.19354)"/>
<use data-text="t" xlink:href="#font_1_3" transform="matrix(9.166058,0,0,-9.166333,134.58316,34.19354)"/>
<use data-text="k" xlink:href="#font_1_2" transform="matrix(6.966248,0,0,-6.9664576,138.01035,35.891675)"/>
<use data-text="+" xlink:href="#font_2_3" transform="matrix(6.966248,0,0,-6.9664576,142.33457,35.891675)"/>
<use data-text="1" xlink:href="#font_3_4" transform="matrix(6.966248,0,0,-6.9664576,147.3468,35.891675)"/>
<use data-text="," xlink:href="#font_3_3" transform="matrix(9.166058,0,0,-9.166333,151.54001,34.19354)"/>
<use data-text="y" xlink:href="#font_1_4" transform="matrix(9.166058,0,0,-9.166333,155.4432,34.19354)"/>
<use data-text="k" xlink:href="#font_1_2" transform="matrix(6.966248,0,0,-6.9664576,160.13645,35.891675)"/>
<use data-text="+" xlink:href="#font_2_3" transform="matrix(6.966248,0,0,-6.9664576,164.45966,35.891675)"/>
<use data-text="1" xlink:href="#font_3_4" transform="matrix(6.966248,0,0,-6.9664576,169.47193,35.891675)"/>
<use data-text=")" xlink:href="#font_3_2" transform="matrix(9.166058,0,0,-9.166333,173.66613,34.19354)"/>
</g>
<path transform="matrix(1.00005,0,0,-1.00008,5.3147127,95.03841)" d="M75.68626 36.65744C75.68626 37.7579 74.79419 38.65 73.69371 38.65 72.59325 38.65 71.70116 37.7579 71.70116 36.65744 71.70116 35.55696 72.59325 34.66489 73.69371 34.66489 74.79419 34.66489 75.68626 35.55696 75.68626 36.65744ZM73.69371 36.65744" fill="#0000cc"/>
<path transform="matrix(1.00005,0,0,-1.00008,5.3147127,95.03841)" stroke-width=".99628" stroke-linecap="butt" stroke-miterlimit="10" stroke-linejoin="miter" fill="none" stroke="#0000ff" d="M75.68626 36.65744C75.68626 37.7579 74.79419 38.65 73.69371 38.65 72.59325 38.65 71.70116 37.7579 71.70116 36.65744 71.70116 35.55696 72.59325 34.66489 73.69371 34.66489 74.79419 34.66489 75.68626 35.55696 75.68626 36.65744ZM73.69371 36.65744"/>
<path transform="matrix(1.00005,0,0,-1.00008,5.3147127,95.03841)" d="M128.32463 71.02379C128.32463 72.12425 127.43256 73.01634 126.33208 73.01634 125.23161 73.01634 124.33952 72.12425 124.33952 71.02379 124.33952 69.92331 125.23161 69.03123 126.33208 69.03123 127.43256 69.03123 128.32463 69.92331 128.32463 71.02379ZM126.33208 71.02379" fill="#0000cc"/>
<path transform="matrix(1.00005,0,0,-1.00008,5.3147127,95.03841)" stroke-width=".99628" stroke-linecap="butt" stroke-miterlimit="10" stroke-linejoin="miter" fill="none" stroke="#0000ff" d="M128.32463 71.02379C128.32463 72.12425 127.43256 73.01634 126.33208 73.01634 125.23161 73.01634 124.33952 72.12425 124.33952 71.02379 124.33952 69.92331 125.23161 69.03123 126.33208 69.03123 127.43256 69.03123 128.32463 69.92331 128.32463 71.02379ZM126.33208 71.02379"/>
<path transform="matrix(1.00005,0,0,-1.00008,5.3147127,95.03841)" stroke-width=".99628" stroke-linecap="butt" stroke-miterlimit="10" stroke-linejoin="miter" fill="none" stroke="#0000ff" d=""/>
<use data-text="t" xlink:href="#font_1_3" transform="matrix(10.036901,0,0,-10.037203,176.10124,77.505008)"/>
<use data-text="y" xlink:href="#font_1_4" transform="matrix(10.036901,0,0,-10.037203,30.613976,9.758583)"/>
</svg>
