<svg xmlns="http://www.w3.org/2000/svg" xmlns:xlink="http://www.w3.org/1999/xlink" version="1.1" width="354" height="31" viewBox="0 0 354 31">
<defs>
<path id="font_1_3" d="M.42799378 .45222474 .43899537 .49023438H.31199647L.34599305 .6092224 .33399964 .6162262 .23699951 .53923037 .22399903 .49023438H.14299011L.13198853 .45222474H.21499634L.125 .08627319C.10998535 .029266358 .12199402-.01171875 .17199707-.01171875 .2519989-.01171875 .31599427 .054275514 .35598756 .1292572L.33399964 .1462555C.31098939 .10726929 .2599945 .040267946 .22898865 .040267946 .20799256 .040267946 .20799256 .0632782 .21398926 .088272098L.30299378 .45222474H.42799378Z"/>
<path id="font_2_2" d="M.2649994 .64468386C.3600006 .64468386 .3869934 .49682618 .3869934 .33398438 .3869934 .17112732 .3600006 .023269654 .2649994 .023269654 .16999817 .023269654 .14299011 .17112732 .14299011 .33398438 .14299011 .49682618 .16999817 .64468386 .2649994 .64468386M.2649994 .6796875C.099990848 .6796875 .040985109 .53378298 .040985109 .33398438 .040985109 .13417053 .099990848-.01171875 .2649994-.01171875 .42999269-.01171875 .4889984 .13417053 .4889984 .33398438 .4889984 .53378298 .42999269 .6796875 .2649994 .6796875Z"/>
<path id="font_2_3" d="M.43699647 0V.0289917L.35299684 .035995485C.33198548 .037994386 .31999208 .04598999 .31999208 .08496094V.67367556L.31498719 .6796875 .10899353 .6446991V.6197052L.20199585 .6087036C.21899414 .6067047 .22599793 .5987091 .22599793 .56973269V.08496094C.22599793 .065979007 .22299195 .053985597 .21699524 .04698181 .21199036 .039993287 .20399475 .036987306 .19299317 .035995485L.10899353 .0289917V0H.43699647Z"/>
<path id="font_1_2" d="M.35198976 .7371979 .34700013 .7421875 .16699219 .71824648 .16099549 .6953125 .21798706 .68829348C.24299622 .6852875 .24699402 .67826846 .23799134 .63920596L.09199524-.01171875 .1789856 .0002746582C.20599365 .10221863 .22099304 .15718079 .24598694 .22012329 .27598573 .2980652 .375 .44995118 .46199037 .44995118 .49398805 .44995118 .5059967 .42097474 .49398805 .38000489L.4119873 .096221927C.3929901 .030273438 .40699769-.01171875 .46398927-.01171875 .5329895-.01171875 .58898928 .056259157 .6230011 .13220215L.598999 .14619446C.58099368 .11122131 .5369873 .040267946 .5089874 .040267946 .4889984 .040267946 .4889984 .06324768 .49899293 .0952301L.5779877 .35702516C.60198977 .43595887 .58898928 .5019531 .5079956 .5019531 .41299439 .5019531 .30699159 .39898683 .24299622 .27908326H.23999024L.35198976 .7371979Z"/>
<path id="font_2_4" d="M.4850006 .13195801 .45700074 .13696289C.43598939 .08299255 .41600038 .07598877 .37599183 .07598877H.11999512C.13598633 .1279602 .19499207 .19892884 .28799439 .2658844 .38398744 .33584596 .45799256 .38082887 .45799256 .49276734 .45799256 .63168337 .3659973 .6796875 .26098634 .6796875 .12399292 .6796875 .052993776 .5967102 .052993776 .54473879 .052993776 .51075747 .09098816 .49476625 .10798645 .49476625 .12599182 .49476625 .1329956 .50476077 .13699341 .5217438 .15299988 .5897064 .19198609 .64468386 .2539978 .64468386 .33099366 .64468386 .35299684 .5797119 .35299684 .50675967 .35299684 .3998108 .29899598 .33984376 .21199036 .26289369 .08898926 .15594483 .04598999 .08798218 .026992798 .009994507L.036987306 0H.45098878L.4850006 .13195801Z"/>
<path id="font_2_5" d="M.12998963 .3657837C.12998963 .3487854 .1349945 .33779908 .147995 .33779908 .1599884 .33779908 .18699646 .34777833 .23498535 .34777833 .31999208 .34777833 .36799623 .27090455 .36799623 .18403626 .36799623 .065216068 .30899049 .023269654 .23799134 .023269654 .17199707 .023269654 .1289978 .07319641 .10998535 .12911988 .10398865 .14808655 .09399414 .15707398 .07998657 .15707398 .06199646 .15707398 .026992798 .13809204 .026992798 .10215759 .026992798 .05921936 .09599304-.01171875 .23699951-.01171875 .38198854-.01171875 .47299195 .06121826 .47299195 .18902588 .47299195 .32281495 .35798646 .3627777 .30299378 .3677826V.3717804C.35699464 .38078309 .44400025 .4207611 .44400025 .5197296 .44400025 .6306915 .35699464 .6796875 .25 .6796875 .117996219 .6796875 .052993776 .60369876 .052993776 .5607147 .052993776 .5297241 .08799744 .51272585 .101989749 .51272585 .114990238 .51272585 .12298584 .5197296 .1269989 .5327301 .14898682 .60069277 .18699646 .64468386 .24299622 .64468386 .32199098 .64468386 .34098817 .57470706 .34098817 .51872256 .34098817 .4587555 .31999208 .38378907 .23498535 .38378907 .18699646 .38378907 .1599884 .39378358 .147995 .39378358 .1349945 .39378358 .12998963 .38378907 .12998963 .3657837Z"/>
<path id="font_2_6" d="M.2999878 .17871094V.0769043C.2999878 .04296875 .2889862 .036987306 .2649994 .034988405L.20098877 .0289917V0H.46499635V.0289917L.41999818 .033981325C.39698792 .036987306 .3899994 .04296875 .3899994 .0769043V.17871094H.49299623V.22570801H.3899994V.66796877H.31698609C.22299195 .5298767 .11099243 .35577394 .018997193 .19970703L.027999878 .17871094H.2999878M.09098816 .22570801C.15098572 .33476258 .22099304 .4498291 .2979889 .5709076H.2999878V.22570801H.09098816Z"/>
<path id="font_2_1" d="M.1329956-.01171875C.17199707-.01171875 .19499207 .015274048 .19599915 .05126953 .19599915 .088272098 .17199707 .11627197 .1329956 .11627197 .09498596 .11627197 .069992069 .088272098 .069992069 .05126953 .069992069 .015274048 .09498596-.01171875 .1329956-.01171875Z"/>
<path id="font_1_1" d="M.18099976 .6923828 .17399597 .66337588 .23298645 .65737918C.2559967 .65538027 .2630005 .6423645 .25498963 .6093445L.16099549 .19909668C.14898682 .14605713 .13798523 .108047489 .12599182 .07501221 .11399841 .042999269 .09700012 .034988405 .066986087 .03199768L.035995485 .0289917 .0309906 0H.2669983L.27198792 .0289917 .23298645 .03199768C.20098877 .034988405 .18399048 .044006349 .18699646 .07501221 .18998719 .108047489 .19599915 .14605713 .20799256 .19909668L.3019867 .6093445H.30499269C.39898683 .40621949 .4909973 .20309448 .58299258 0H.647995L.7599945 .49327088C.7719879 .5463104 .7829895 .5843353 .79499819 .61735537 .8069916 .6493683 .82398989 .65737918 .85398867 .66038516L.8849945 .66337588 .8899994 .6923828H.6539917L.6489868 .66337588 .6879883 .65937808C.7200012 .65538027 .7369995 .65037539 .73399356 .61735537 .73098757 .5843353 .72499087 .5463104 .71299746 .49327088L.6309967 .13105774H.6269989C.54100039 .31817628 .45498658 .50527957 .37098695 .6923828H.18099976Z"/>
<path id="font_3_1" d="M.6349945 .2529297V.31092835H.084991458V.2529297H.6349945Z"/>
</defs>
<path transform="matrix(1.00002,0,0,-1.00002,23.769799,4.2667658)" stroke-width=".3985" stroke-linecap="butt" stroke-miterlimit="10" stroke-linejoin="miter" fill="none" stroke="#000000" d="M-22.6771 0H328.36399"/>
<path transform="matrix(1.00002,0,0,-1.00002,352.14036,4.2667658)" stroke-width=".31879" stroke-linecap="round" stroke-linejoin="round" fill="none" stroke="#000000" d="M-1.19551 1.59401C-1.09587 .99626 0 .09961 .29886 0 0-.09961-1.09587-.99626-1.19551-1.59401"/>
<use data-text="t" xlink:href="#font_1_3" transform="matrix(10.036601,0,0,-10.036601,339.12113,13.850956)"/>
<path transform="matrix(1.00002,0,0,-1.00002,23.769799,4.2667658)" stroke-width=".79701" stroke-linecap="butt" stroke-miterlimit="10" stroke-linejoin="miter" fill="none" stroke="#929292" d="M0 2.26819V-2.26819"/>
<use data-text="t" xlink:href="#font_1_3" transform="matrix(10.036601,0,0,-10.036601,19.736718,13.850956)"/>
<use data-text="0" xlink:href="#font_2_2" transform="matrix(7.6076529,0,0,-7.6076529,23.488793,15.486988)"/>
<path transform="matrix(1.00002,0,0,-1.00002,23.769799,4.2667658)" stroke-width=".3985" stroke-linecap="butt" stroke-miterlimit="10" stroke-linejoin="miter" fill="none" stroke="#000000" d="M0-24.94528V-13.60588"/>
<path transform="matrix(1.00002,0,0,-1.00002,23.769799,4.2667658)" stroke-width=".79701" stroke-linecap="butt" stroke-miterlimit="10" stroke-linejoin="miter" fill="none" stroke="#929292" d="M45.35419 2.26819V-2.26819"/>
<use data-text="t" xlink:href="#font_1_3" transform="matrix(10.036601,0,0,-10.036601,65.09163,13.850956)"/>
<use data-text="1" xlink:href="#font_2_3" transform="matrix(7.6076529,0,0,-7.6076529,68.843708,15.486988)"/>
<path transform="matrix(1.00002,0,0,-1.00002,23.769799,4.2667658)" stroke-width=".3985" stroke-linecap="butt" stroke-miterlimit="10" stroke-linejoin="miter" fill="none" stroke="#000000" d="M45.35419-24.94528V-13.60588"/>
<path transform="matrix(1.00002,0,0,-1.00002,23.769799,4.2667658)" stroke-width=".79701" stroke-linecap="butt" stroke-miterlimit="10" stroke-linejoin="miter" fill="none" stroke="#000000" d="M1.61394-19.27562H17.00735"/>
<path transform="matrix(-1.00002,-0,0,1.00002,25.38377,23.54277)" stroke-width=".6376" stroke-linecap="round" stroke-linejoin="round" fill="none" stroke="#000000" d="M-1.55415 2.0722C-1.42464 1.29512 0 .1295 .38852 0 0-.1295-1.42464-1.29512-1.55415-2.0722"/>
<use data-text="h" xlink:href="#font_1_2" transform="matrix(9.165783,0,0,-9.165783,43.41819,26.92722)"/>
<path transform="matrix(1.00002,0,0,-1.00002,23.769799,4.2667658)" stroke-width=".79701" stroke-linecap="butt" stroke-miterlimit="10" stroke-linejoin="miter" fill="none" stroke="#000000" d="M28.34676-19.27562H43.74017"/>
<path transform="matrix(1.00002,0,0,-1.00002,67.51085,23.54277)" stroke-width=".6376" stroke-linecap="round" stroke-linejoin="round" fill="none" stroke="#000000" d="M-1.55415 2.0722C-1.42464 1.29512 0 .1295 .38852 0 0-.1295-1.42464-1.29512-1.55415-2.0722"/>
<path transform="matrix(1.00002,0,0,-1.00002,23.769799,4.2667658)" stroke-width=".79701" stroke-linecap="butt" stroke-miterlimit="10" stroke-linejoin="miter" fill="none" stroke="#929292" d="M90.71008 2.26819V-2.26819"/>
<use data-text="t" xlink:href="#font_1_3" transform="matrix(10.036601,0,0,-10.036601,110.44853,13.850956)"/>
<use data-text="2" xlink:href="#font_2_4" transform="matrix(7.6076529,0,0,-7.6076529,114.20061,15.486988)"/>
<path transform="matrix(1.00002,0,0,-1.00002,23.769799,4.2667658)" stroke-width=".3985" stroke-linecap="butt" stroke-miterlimit="10" stroke-linejoin="miter" fill="none" stroke="#000000" d="M90.71008-24.94528V-13.60588"/>
<path transform="matrix(1.00002,0,0,-1.00002,23.769799,4.2667658)" stroke-width=".79701" stroke-linecap="butt" stroke-miterlimit="10" stroke-linejoin="miter" fill="none" stroke="#000000" d="M46.96983-19.27562H62.36331"/>
<path transform="matrix(-1.00002,-0,0,1.00002,70.74057,23.54277)" stroke-width=".6376" stroke-linecap="round" stroke-linejoin="round" fill="none" stroke="#000000" d="M-1.55415 2.0722C-1.42464 1.29512 0 .1295 .38852 0 0-.1295-1.42464-1.29512-1.55415-2.0722"/>
<use data-text="h" xlink:href="#font_1_2" transform="matrix(9.165783,0,0,-9.165783,88.7751,26.92722)"/>
<path transform="matrix(1.00002,0,0,-1.00002,23.769799,4.2667658)" stroke-width=".79701" stroke-linecap="butt" stroke-miterlimit="10" stroke-linejoin="miter" fill="none" stroke="#000000" d="M73.70271-19.27562H89.09613"/>
<path transform="matrix(1.00002,0,0,-1.00002,112.867717,23.54277)" stroke-width=".6376" stroke-linecap="round" stroke-linejoin="round" fill="none" stroke="#000000" d="M-1.55415 2.0722C-1.42464 1.29512 0 .1295 .38852 0 0-.1295-1.42464-1.29512-1.55415-2.0722"/>
<path transform="matrix(1.00002,0,0,-1.00002,23.769799,4.2667658)" stroke-width=".79701" stroke-linecap="butt" stroke-miterlimit="10" stroke-linejoin="miter" fill="none" stroke="#929292" d="M136.06433 2.26819V-2.26819"/>
<use data-text="t" xlink:href="#font_1_3" transform="matrix(10.036601,0,0,-10.036601,155.80344,13.850956)"/>
<use data-text="3" xlink:href="#font_2_5" transform="matrix(7.6076529,0,0,-7.6076529,159.55551,15.486988)"/>
<path transform="matrix(1.00002,0,0,-1.00002,23.769799,4.2667658)" stroke-width=".3985" stroke-linecap="butt" stroke-miterlimit="10" stroke-linejoin="miter" fill="none" stroke="#000000" d="M136.06433-24.94528V-13.60588"/>
<path transform="matrix(1.00002,0,0,-1.00002,23.769799,4.2667658)" stroke-width=".79701" stroke-linecap="butt" stroke-miterlimit="10" stroke-linejoin="miter" fill="none" stroke="#000000" d="M92.32408-19.27562H107.7175"/>
<path transform="matrix(-1.00002,-0,0,1.00002,116.095729,23.54277)" stroke-width=".6376" stroke-linecap="round" stroke-linejoin="round" fill="none" stroke="#000000" d="M-1.55415 2.0722C-1.42464 1.29512 0 .1295 .38852 0 0-.1295-1.42464-1.29512-1.55415-2.0722"/>
<use data-text="h" xlink:href="#font_1_2" transform="matrix(9.165783,0,0,-9.165783,134.13101,26.92722)"/>
<path transform="matrix(1.00002,0,0,-1.00002,23.769799,4.2667658)" stroke-width=".79701" stroke-linecap="butt" stroke-miterlimit="10" stroke-linejoin="miter" fill="none" stroke="#000000" d="M119.0569-19.27562H134.45032"/>
<path transform="matrix(1.00002,0,0,-1.00002,158.22281,23.54277)" stroke-width=".6376" stroke-linecap="round" stroke-linejoin="round" fill="none" stroke="#000000" d="M-1.55415 2.0722C-1.42464 1.29512 0 .1295 .38852 0 0-.1295-1.42464-1.29512-1.55415-2.0722"/>
<path transform="matrix(1.00002,0,0,-1.00002,23.769799,4.2667658)" stroke-width=".79701" stroke-linecap="butt" stroke-miterlimit="10" stroke-linejoin="miter" fill="none" stroke="#929292" d="M181.42023 2.26819V-2.26819"/>
<use data-text="t" xlink:href="#font_1_3" transform="matrix(10.036601,0,0,-10.036601,201.16036,13.850956)"/>
<use data-text="4" xlink:href="#font_2_6" transform="matrix(7.6076529,0,0,-7.6076529,204.91243,15.486988)"/>
<path transform="matrix(1.00002,0,0,-1.00002,23.769799,4.2667658)" stroke-width=".3985" stroke-linecap="butt" stroke-miterlimit="10" stroke-linejoin="miter" fill="none" stroke="#000000" d="M181.42023-24.94528V-13.60588"/>
<path transform="matrix(1.00002,0,0,-1.00002,23.769799,4.2667658)" stroke-width=".79701" stroke-linecap="butt" stroke-miterlimit="10" stroke-linejoin="miter" fill="none" stroke="#000000" d="M137.67998-19.27562H153.07346"/>
<path transform="matrix(-1.00002,-0,0,1.00002,161.45255,23.54277)" stroke-width=".6376" stroke-linecap="round" stroke-linejoin="round" fill="none" stroke="#000000" d="M-1.55415 2.0722C-1.42464 1.29512 0 .1295 .38852 0 0-.1295-1.42464-1.29512-1.55415-2.0722"/>
<use data-text="h" xlink:href="#font_1_2" transform="matrix(9.165783,0,0,-9.165783,179.48691,26.92722)"/>
<path transform="matrix(1.00002,0,0,-1.00002,23.769799,4.2667658)" stroke-width=".79701" stroke-linecap="butt" stroke-miterlimit="10" stroke-linejoin="miter" fill="none" stroke="#000000" d="M164.41286-19.27562H179.80628"/>
<path transform="matrix(1.00002,0,0,-1.00002,203.57968,23.54277)" stroke-width=".6376" stroke-linecap="round" stroke-linejoin="round" fill="none" stroke="#000000" d="M-1.55415 2.0722C-1.42464 1.29512 0 .1295 .38852 0 0-.1295-1.42464-1.29512-1.55415-2.0722"/>
<use data-text="." xlink:href="#font_2_1" transform="matrix(10.036601,0,0,-10.036601,234.15001,8.832857)"/>
<use data-text="." xlink:href="#font_2_1" transform="matrix(10.036601,0,0,-10.036601,237.87358,8.832857)"/>
<use data-text="." xlink:href="#font_2_1" transform="matrix(10.036601,0,0,-10.036601,241.60721,8.832857)"/>
<path transform="matrix(1.00002,0,0,-1.00002,23.769799,4.2667658)" stroke-width=".79701" stroke-linecap="butt" stroke-miterlimit="10" stroke-linejoin="miter" fill="none" stroke="#929292" d="M249.45157 2.26819V-2.26819"/>
<use data-text="t" xlink:href="#font_1_3" transform="matrix(10.036601,0,0,-10.036601,263.0366,13.850956)"/>
<use data-text="N" xlink:href="#font_1_1" transform="matrix(7.6076529,0,0,-7.6076529,266.95466,15.486988)"/>
<use data-text="&#x2212;" xlink:href="#font_3_1" transform="matrix(7.6076529,0,0,-7.6076529,273.6278,15.486988)"/>
<use data-text="1" xlink:href="#font_2_3" transform="matrix(7.6076529,0,0,-7.6076529,279.1019,15.486988)"/>
<path transform="matrix(1.00002,0,0,-1.00002,23.769799,4.2667658)" stroke-width=".3985" stroke-linecap="butt" stroke-miterlimit="10" stroke-linejoin="miter" fill="none" stroke="#000000" d="M249.45157-24.94528V-13.60588"/>
<path transform="matrix(1.00002,0,0,-1.00002,23.769799,4.2667658)" stroke-width=".79701" stroke-linecap="butt" stroke-miterlimit="10" stroke-linejoin="miter" fill="none" stroke="#929292" d="M294.80747 2.26819V-2.26819"/>
<use data-text="t" xlink:href="#font_1_3" transform="matrix(10.036601,0,0,-10.036601,313.1486,13.850956)"/>
<use data-text="N" xlink:href="#font_1_1" transform="matrix(7.6076529,0,0,-7.6076529,317.06666,15.486988)"/>
<path transform="matrix(1.00002,0,0,-1.00002,23.769799,4.2667658)" stroke-width=".3985" stroke-linecap="butt" stroke-miterlimit="10" stroke-linejoin="miter" fill="none" stroke="#000000" d="M294.80747-24.94528V-13.60588"/>
<path transform="matrix(1.00002,0,0,-1.00002,23.769799,4.2667658)" stroke-width=".79701" stroke-linecap="butt" stroke-miterlimit="10" stroke-linejoin="miter" fill="none" stroke="#000000" d="M251.06722-19.27562H266.4607"/>
<path transform="matrix(-1.00002,-0,0,1.00002,274.84205,23.54277)" stroke-width=".6376" stroke-linecap="round" stroke-linejoin="round" fill="none" stroke="#000000" d="M-1.55415 2.0722C-1.42464 1.29512 0 .1295 .38852 0 0-.1295-1.42464-1.29512-1.55415-2.0722"/>
<use data-text="h" xlink:href="#font_1_2" transform="matrix(9.165783,0,0,-9.165783,292.8772,26.92722)"/>
<path transform="matrix(1.00002,0,0,-1.00002,23.769799,4.2667658)" stroke-width=".79701" stroke-linecap="butt" stroke-miterlimit="10" stroke-linejoin="miter" fill="none" stroke="#000000" d="M277.8001-19.27562H293.1935"/>
<path transform="matrix(1.00002,0,0,-1.00002,316.96919,23.54277)" stroke-width=".6376" stroke-linecap="round" stroke-linejoin="round" fill="none" stroke="#000000" d="M-1.55415 2.0722C-1.42464 1.29512 0 .1295 .38852 0 0-.1295-1.42464-1.29512-1.55415-2.0722"/>
</svg>
