<svg xmlns="http://www.w3.org/2000/svg" xmlns:xlink="http://www.w3.org/1999/xlink" version="1.1" width="160" height="98" viewBox="0 0 160 98">
<defs>
<path id="font_1_2" d="M.42799378 .45222474 .43899537 .49023438H.31199647L.34599305 .6092224 .33399964 .6162262 .23699951 .53923037 .22399903 .49023438H.14299011L.13198853 .45222474H.21499634L.125 .08627319C.10998535 .029266358 .12199402-.01171875 .17199707-.01171875 .2519989-.01171875 .31599427 .054275514 .35598756 .1292572L.33399964 .1462555C.31098939 .10726929 .2599945 .040267946 .22898865 .040267946 .20799256 .040267946 .20799256 .0632782 .21398926 .088272098L.30299378 .45222474H.42799378Z"/>
<path id="font_1_3" d="M.070999149 .45393373 .07398987 .42893983 .14199829 .43093873C.1639862 .43193055 .16899109 .41493226 .1769867 .36291505 .18798828 .28489686 .20999146 .09286499 .20999146 .0128479 .20999146-.017166138 .20799256-.058166505 .18598938-.11117554 .16799927-.15318299 .14199829-.18218994 .12199402-.18218994 .10699463-.18218994 .09599304-.17118836 .08099365-.15118408 .068984989-.13517761 .06098938-.127182 .04598999-.127182 .019989014-.12818909-.005004883-.15818787-.005004883-.18719483-.005004883-.21418762 .023986817-.2421875 .067993167-.2421875 .15299988-.2421875 .18998719-.17919922 .27799989-.027160645 .2979889 .0068511965 .35798646 .11286926 .41999818 .21488953 .47698976 .30891419 .5399933 .40592958 .5399933 .4459381 .5399933 .48094178 .5289917 .5019531 .5219879 .5019531 .5029907 .5019531 .46899415 .49394227 .44400025 .47694398 .44499208 .4419403 .44299317 .3809204 .43099977 .33891297 .4149933 .28289796 .35598756 .17488098 .2899933 .06085205H.2869873C.27999879 .21388245 .26098634 .42492677 .24699402 .49795533L.23899842 .5019531 .070999149 .45393373Z"/>
<path id="font_2_1" d="M.1749878 .2822113C.1749878 .56832888 .2619934 .65437319 .32499696 .66737368V.6923828C.1499939 .685379 .10499573 .46829225 .10499573 .2822113 .10499573 .09614563 .1499939-.12094116 .32499696-.12792969V-.10293579C.2669983-.090927127 .1749878-.0059051516 .1749878 .2822113Z"/>
<path id="font_2_2" d="M.1749878 .2822113C.1749878-.0059051516 .08299255-.090927127 .024993897-.10293579V-.12792969C.19999695-.12094116 .24499512 .09614563 .24499512 .2822113 .24499512 .46829225 .19999695 .685379 .024993897 .6923828V.66737368C.08799744 .65437319 .1749878 .56832888 .1749878 .2822113Z"/>
<path id="font_2_3" d="M.069992069-.140625C.11999512-.09362793 .19299317-.027633667 .19299317 .051361085 .19299317 .10636902 .1599884 .1423645 .125 .14137268 .09399414 .14137268 .07598877 .117370609 .07598877 .09136963 .07598877 .055374147 .10899353 .037368776 .10899353-.005630493 .10899353-.04663086 .08299255-.086639408 .050994874-.12162781L.069992069-.140625Z"/>
<path id="font_3_4" d="M.084991458 .31092835V.2529297H.33099366V.0068359377H.3889923V.2529297H.6349945V.31092835H.3889923V.5566406H.33099366V.31092835H.084991458Z"/>
<path id="font_1_1" d="M.35198976 .7371979 .34700013 .7421875 .16699219 .71824648 .16099549 .6953125 .21798706 .68829348C.24299622 .6852875 .24699402 .67826846 .23799134 .63920596L.09199524-.01171875 .1789856 .0002746582C.20599365 .10221863 .22099304 .15718079 .24598694 .22012329 .27598573 .2980652 .375 .44995118 .46199037 .44995118 .49398805 .44995118 .5059967 .42097474 .49398805 .38000489L.4119873 .096221927C.3929901 .030273438 .40699769-.01171875 .46398927-.01171875 .5329895-.01171875 .58898928 .056259157 .6230011 .13220215L.598999 .14619446C.58099368 .11122131 .5369873 .040267946 .5089874 .040267946 .4889984 .040267946 .4889984 .06324768 .49899293 .0952301L.5779877 .35702516C.60198977 .43595887 .58898928 .5019531 .5079956 .5019531 .41299439 .5019531 .30699159 .39898683 .24299622 .27908326H.23999024L.35198976 .7371979Z"/>
<path id="font_2_4" d="M.05999756 .045333864C.10398865 .004348755 .18699646-.0146484379 .25698854-.0146484379 .43399049-.0146484379 .5039978 .08631897 .5039978 .18826294 .5039978 .30619813 .42399598 .36218263 .30699159 .40515138L.2749939 .41714479C.20799256 .44213868 .1519928 .48512269 .1519928 .5450897 .1519928 .61805728 .19599915 .6720276 .27999879 .6720276 .3659973 .6720276 .4139862 .6230469 .42999269 .5220947H.46099855V.6630249C.4269867 .6900177 .35899354 .70703127 .29100038 .70703127 .16899109 .70703127 .06098938 .64604189 .06098938 .5140991 .06098938 .40914918 .14498902 .354187 .25 .3171997L.2679901 .31019593C.31199647 .2932129 .40699769 .24723816 .40699769 .15827942 .40699769 .0723114 .35198976 .020339966 .2630005 .020339966 .16899109 .020339966 .10699463 .093307498 .08198547 .20524597H.049987794L.05999756 .045333864Z"/>
<path id="font_2_7" d="M.44099427 .2627716C.46199037 .2627716 .48098756 .2677765 .48098756 .30078126 .48098756 .35983277 .46199037 .5019531 .2789917 .5019531 .12298584 .5019531 .04899597 .39086915 .04899597 .24082947 .04899597 .08317566 .116989139-.01373291 .27999879-.01171875 .3909912-.010726929 .44799806 .050247194 .47499085 .1290741L.44499208 .14503479C.4169922 .08717346 .3789978 .039276124 .2999878 .039276124 .17599488 .039276124 .15098572 .15901184 .15299988 .2627716H.44099427M.1539917 .30078126C.1539917 .34181214 .16899109 .46694947 .272995 .46694947 .3659973 .46694947 .3769989 .37184144 .3769989 .33280946 .3769989 .31378175 .37098695 .30078126 .34298707 .30078126H.1539917Z"/>
<path id="font_2_6" d="M.2999878 .040267946C.18099976 .040267946 .15299988 .16418457 .15299988 .25810243 .15299988 .40699769 .21199036 .46694947 .2809906 .46694947 .32699586 .46694947 .35598756 .43397523 .37599183 .38000489 .38198854 .36402894 .3880005 .35403443 .40699769 .35403443 .4269867 .35403443 .46598817 .36701966 .46598817 .40499879 .46598817 .45095826 .3999939 .5019531 .2919922 .5019531 .10998535 .5019531 .04899597 .37301637 .04899597 .2401123 .04899597 .07324219 .1309967-.01171875 .2809906-.01171875 .35099793-.01171875 .44499208 .025268555 .47299195 .13220215L.44400025 .14619446C.41299439 .07624817 .37298585 .040267946 .2999878 .040267946Z"/>
<path id="font_2_5" d="M.34298707 .14318848C.34298707 .06225586 .2809906 .041275026 .24198914 .041275026 .17999268 .041275026 .1499939 .085235599 .1499939 .14419556 .1499939 .19116211 .17199707 .21513367 .22799683 .23612976 .2679901 .2511139 .32099916 .27009584 .34298707 .28408814V.14318848M.43299867 .36901856C.43299867 .42697145 .41999818 .5019531 .2689972 .5019531 .1559906 .5019531 .066986087 .44296266 .066986087 .3880005 .066986087 .35603334 .10398865 .3410492 .12298584 .3410492 .14399719 .3410492 .1499939 .35203553 .15499878 .36901856 .1769867 .44296266 .21798706 .46694947 .2579956 .46694947 .29699708 .46694947 .34298707 .44696046 .34298707 .36701966V.32505799C.31799317 .29907228 .22099304 .27409364 .14199829 .24911499 .069992069 .22712708 .04899597 .1771698 .04899597 .13020325 .04899597 .055267335 .09899902-.01171875 .19299317-.01171875 .25498963-.009719849 .30999757 .027267456 .34199525 .04826355 .35598756 .011276245 .37199403-.01171875 .40699769-.01171875 .44400025-.01171875 .4869995-.0007324219 .5249939 .01828003L.5189972 .042266847C.5049896 .039276124 .48298646 .03727722 .46798707 .041275026 .44999696 .045272829 .43299867 .06425476 .43299867 .12721253V.36901856Z"/>
<path id="font_2_8" d="M.5289917 .34295655C.5289917 .4439392 .47399903 .5019531 .38198854 .5019531 .30799867 .5019531 .2619934 .46594239 .19999695 .4259491L.18598938 .5019531 .036987306 .47694398V.45195008L.07499695 .4469452C.100997928 .4429474 .10699463 .4379425 .10699463 .40194703V.08699036C.10699463 .035995485 .10398865 .033996583 .03199768 .0289917V0H.27598573V.0289917C.20498657 .033996583 .20098877 .035995485 .20098877 .08699036V.32095338C.20098877 .34596253 .20298767 .35995484 .21099854 .37594605 .23199463 .4149475 .2769928 .44795228 .32998658 .44795228 .397995 .44795228 .43499757 .40994264 .43499757 .32295228V.08699036C.43499757 .035995485 .43199159 .033996583 .3600006 .0289917V0H.60398867V.0289917C.5329895 .033996583 .5289917 .035995485 .5289917 .08699036V.34295655Z"/>
<path id="font_2_9" d="M.32598878 .45022584V.49023438H.19699097V.6162262H.16799927L.10699463 .49023438H.0309906V.45022584H.102996829V.102264408C.102996829 .0002746582 .1789856-.01171875 .21398926-.01171875 .2649994-.01171875 .31298829 .014266968 .34199525 .03227234L.33399964 .053268434C.30999757 .043273927 .28799439 .040267946 .2630005 .040267946 .22898865 .040267946 .19699097 .06427002 .19699097 .14025879V.45022584H.32598878Z"/>
<path id="font_4_1" d="M.673996 0 .3899994 .6933594H.31599427L.04399109 0H.673996M.5469971 .053985597H.10499573L.31999208 .6013031 .5469971 .053985597Z"/>
<path id="font_3_1" d="M.2769928 .50541689C.2829895 .5204315 .28399659 .5294342 .28399659 .53344729 .28399659 .5544586 .2539978 .56347659 .22299195 .56347659 .19299317 .56347659 .1619873 .5544586 .15899658 .53944399L.053985597 .05303955C.053985597 .046035768 .067993167 .040039064 .07998657 .040039064 .08799744 .040039064 .09599304 .043029787 .09799194 .048034669L.2769928 .50541689Z"/>
<path id="font_3_3" d="M.5269928 .30897523C.6069946 .30897523 .6230011 .3840332 .6329956 .43621827L.6380005 .45822145 .61299136 .47122193C.59498599 .42321778 .56599429 .37597657 .5299988 .37597657 .45799256 .37597657 .28599549 .47721864 .18899536 .47721864 .13798523 .47721864 .09199524 .37799073 .085998538 .32696534L.11099243 .31497193C.13198853 .36297608 .16099549 .40722657 .19599915 .40722657 .2630005 .40722657 .42900086 .30897523 .5269928 .30897523M.5269928 .087890628C.6069946 .087890628 .6230011 .16287232 .6329956 .21485901L.6380005 .23684693 .61299136 .24984741C.59498599 .20185852 .56599429 .15487671 .5299988 .15487671 .45799256 .15487671 .28599549 .25585938 .18899536 .25585938 .13798523 .25585938 .09199524 .15687561 .085998538 .10588074L.11099243 .09388733C.13198853 .14187622 .16099549 .18585205 .19599915 .18585205 .2630005 .18585205 .42900086 .087890628 .5269928 .087890628Z"/>
<path id="font_3_2" d="M.6349945 .2529297V.31092835H.084991458V.2529297H.6349945Z"/>
</defs>
<path transform="matrix(1.00002,0,0,-1.00006,24.9459,78.829898)" stroke-width=".3985" stroke-linecap="butt" stroke-miterlimit="10" stroke-linejoin="miter" fill="none" stroke="#000000" d="M-5.66927 0H39.22707"/>
<path transform="matrix(1.00002,0,0,-1.00006,64.17375,78.829898)" stroke-width=".31879" stroke-linecap="round" stroke-linejoin="round" fill="none" stroke="#000000" d="M-1.19551 1.59401C-1.09587 .99626 0 .09961 .29886 0 0-.09961-1.09587-.99626-1.19551-1.59401"/>
<use data-text="t" xlink:href="#font_1_2" transform="matrix(10.036601,0,0,-10.037002,68.24877,81.879077)"/>
<path transform="matrix(1.00002,0,0,-1.00006,24.9459,78.829898)" stroke-width=".3985" stroke-linecap="butt" stroke-miterlimit="10" stroke-linejoin="miter" fill="none" stroke="#000000" d="M0-5.66927V64.73946"/>
<path transform="matrix(0,-1.00006,-1.00002,-0,24.9459,14.086548)" stroke-width=".31879" stroke-linecap="round" stroke-linejoin="round" fill="none" stroke="#000000" d="M-1.19551 1.59401C-1.09587 .99626 0 .09961 .29886 0 0-.09961-1.09587-.99626-1.19551-1.59401"/>
<use data-text="y" xlink:href="#font_1_3" transform="matrix(10.036601,0,0,-10.037002,22.409852,7.7636339)"/>
<path transform="matrix(1.00002,0,0,-1.00006,24.9459,78.829898)" stroke-width=".79701" stroke-linecap="butt" stroke-miterlimit="10" stroke-linejoin="miter" fill="none" stroke="#0000ff" d="M0 56.69362C0 56.69362 3.41324 56.34837 4.72415 55.92456 6.03508 55.50075 8.1374 54.45496 9.44833 53.63902 10.75928 52.82307 12.86159 51.18617 14.17252 50.04376 15.48346 48.90135 17.58577 46.78842 18.8967 45.40523 20.20764 44.02203 22.30995 41.60258 23.62088 40.07463 24.93182 38.54668 27.03413 35.9696 28.34506 34.3928 29.656 32.81601 31.75833 30.24756 33.06924 28.71013 34.38017 27.17271 36.4825 24.74086 37.79341 23.31206 39.10434 21.88326 41.20665 19.68456 42.5176 18.41226 43.82854 17.13998 45.93083 15.23112 47.24178 14.14224 48.55272 13.05336 50.65501 11.46196 51.96596 10.56429 53.2769 9.66661 55.3792 8.38602 56.69014 7.67233 58.00108 6.95866 60.10338 5.96823 61.41432 5.42055 62.72527 4.87286 64.82758 4.13177 66.1385 3.725 67.44943 3.31825 69.55174 2.78143 70.86267 2.48882 72.1736 2.1962 74.27591 1.81975 75.58685 1.61595 76.8978 1.41216 79.00009 1.15685 80.31104 1.01991 81.62198 .88297 83.72427 .7182 85.03522 .62889 86.34616 .5396 88.44846 .43317 89.7594 .37628 91.07034 .3194 93.17264 .25389 94.48358 .21886 95.79453 .1838 97.89682 .14468 99.20776 .12369 100.5187 .10269 102.62102 .07957 103.93195 .06746 105.24287 .05534 107.34518 .04315 108.65611 .03633 109.96704 .0295 113.3803 .01816 113.3803 .01816"/>
<use data-text="y" xlink:href="#font_1_3" transform="matrix(10.036601,0,0,-10.037002,142.47226,81.130039)" fill="#0000ff"/>
<use data-text="(" xlink:href="#font_2_1" transform="matrix(10.036601,0,0,-10.037002,148.09037,81.130039)" fill="#0000ff"/>
<use data-text="t" xlink:href="#font_1_2" transform="matrix(10.036601,0,0,-10.037002,151.82144,81.130039)" fill="#0000ff"/>
<use data-text=")" xlink:href="#font_2_2" transform="matrix(10.036601,0,0,-10.037002,156.31552,81.130039)" fill="#0000ff"/>
<path transform="matrix(1.00002,0,0,-1.00006,24.9459,78.829898)" d="M14.67152 45.71017C14.67152 45.98528 14.4485 46.20831 14.17339 46.20831 13.89828 46.20831 13.67525 45.98528 13.67525 45.71017 13.67525 45.43506 13.89828 45.21204 14.17339 45.21204 14.4485 45.21204 14.67152 45.43506 14.67152 45.71017ZM14.17339 45.71017"/>
<path transform="matrix(1.00002,0,0,-1.00006,24.9459,78.829898)" stroke-width=".3985" stroke-linecap="butt" stroke-miterlimit="10" stroke-linejoin="miter" fill="none" stroke="#000000" d="M14.67152 45.71017C14.67152 45.98528 14.4485 46.20831 14.17339 46.20831 13.89828 46.20831 13.67525 45.98528 13.67525 45.71017 13.67525 45.43506 13.89828 45.21204 14.17339 45.21204 14.4485 45.21204 14.67152 45.43506 14.67152 45.71017ZM14.17339 45.71017"/>
<use data-text="(" xlink:href="#font_2_1" transform="matrix(10.036601,0,0,-10.037002,.09339905,43.618787)"/>
<use data-text="t" xlink:href="#font_1_2" transform="matrix(10.036601,0,0,-10.037002,3.8244782,43.618787)"/>
<use data-text="," xlink:href="#font_2_3" transform="matrix(10.036601,0,0,-10.037002,8.319572,43.618787)"/>
<use data-text="y" xlink:href="#font_1_3" transform="matrix(10.036601,0,0,-10.037002,14.8517,43.618787)"/>
<use data-text="(" xlink:href="#font_2_1" transform="matrix(10.036601,0,0,-10.037002,20.46981,43.618787)"/>
<use data-text="t" xlink:href="#font_1_2" transform="matrix(10.036601,0,0,-10.037002,24.20089,43.618787)"/>
<use data-text=")" xlink:href="#font_2_2" transform="matrix(10.036601,0,0,-10.037002,28.694977,43.618787)"/>
<use data-text=")" xlink:href="#font_2_2" transform="matrix(10.036601,0,0,-10.037002,32.207796,43.618787)"/>
<path transform="matrix(1.00002,0,0,-1.00006,24.9459,78.829898)" d="M26.01007 49.90535C26.01007 50.18047 25.78705 50.40349 25.51193 50.40349 25.23683 50.40349 25.0138 50.18047 25.0138 49.90535 25.0138 49.63023 25.23683 49.40721 25.51193 49.40721 25.78705 49.40721 26.01007 49.63023 26.01007 49.90535ZM25.51193 49.90535"/>
<path transform="matrix(1.00002,0,0,-1.00006,24.9459,78.829898)" stroke-width=".3985" stroke-linecap="butt" stroke-miterlimit="10" stroke-linejoin="miter" fill="none" stroke="#000000" d="M26.01007 49.90535C26.01007 50.18047 25.78705 50.40349 25.51193 50.40349 25.23683 50.40349 25.0138 50.18047 25.0138 49.90535 25.0138 49.63023 25.23683 49.40721 25.51193 49.40721 25.78705 49.40721 26.01007 49.63023 26.01007 49.90535ZM25.51193 49.90535"/>
<use data-text="(" xlink:href="#font_2_1" transform="matrix(10.036601,0,0,-10.037002,53.85748,23.05655)"/>
<use data-text="t" xlink:href="#font_1_2" transform="matrix(10.036601,0,0,-10.037002,57.58856,23.05655)"/>
<use data-text="+" xlink:href="#font_3_4" transform="matrix(10.036601,0,0,-10.037002,63.416677,23.05655)"/>
<use data-text="h" xlink:href="#font_1_1" transform="matrix(10.036601,0,0,-10.037002,71.97185,23.05655)"/>
<use data-text="," xlink:href="#font_2_3" transform="matrix(10.036601,0,0,-10.037002,78.60498,23.05655)"/>
<use data-text="y" xlink:href="#font_1_3" transform="matrix(10.036601,0,0,-10.037002,85.137119,23.05655)"/>
<use data-text="(" xlink:href="#font_2_1" transform="matrix(10.036601,0,0,-10.037002,90.75523,23.05655)"/>
<use data-text="t" xlink:href="#font_1_2" transform="matrix(10.036601,0,0,-10.037002,94.48631,23.05655)"/>
<use data-text="+" xlink:href="#font_3_4" transform="matrix(10.036601,0,0,-10.037002,100.31444,23.05655)"/>
<use data-text="h" xlink:href="#font_1_1" transform="matrix(10.036601,0,0,-10.037002,108.86961,23.05655)"/>
<use data-text=")" xlink:href="#font_2_2" transform="matrix(10.036601,0,0,-10.037002,115.50275,23.05655)"/>
<use data-text=")" xlink:href="#font_2_2" transform="matrix(10.036601,0,0,-10.037002,119.01555,23.05655)"/>
<path transform="matrix(1.00002,0,0,-1.00006,24.9459,78.829898)" stroke-width=".79701" stroke-linecap="butt" stroke-dasharray="2.98883,2.98883" stroke-miterlimit="10" stroke-linejoin="miter" fill="none" stroke="#cc0000" d="M14.17339 45.71017 25.51193 49.90535"/>
<use data-text="S" xlink:href="#font_2_4" transform="matrix(9.165783,0,0,-9.166149,48.387369,41.103635)" fill="#cc0000"/>
<use data-text="e" xlink:href="#font_2_7" transform="matrix(9.165783,0,0,-9.166149,53.24523,41.103635)" fill="#cc0000"/>
<use data-text="c" xlink:href="#font_2_6" transform="matrix(9.165783,0,0,-9.166149,57.956445,41.103635)" fill="#cc0000"/>
<use data-text="a" xlink:href="#font_2_5" transform="matrix(9.165783,0,0,-9.166149,62.50267,41.103635)" fill="#cc0000"/>
<use data-text="n" xlink:href="#font_2_8" transform="matrix(9.165783,0,0,-9.166149,67.28722,41.103635)" fill="#cc0000"/>
<use data-text="t" xlink:href="#font_2_9" transform="matrix(9.165783,0,0,-9.166149,72.96084,41.103635)" fill="#cc0000"/>
<path transform="matrix(1.00002,0,0,-1.00006,24.9459,78.829898)" stroke-width=".3985" stroke-linecap="butt" stroke-dasharray="2.98883,2.98883" stroke-miterlimit="10" stroke-linejoin="miter" fill="none" stroke="#929292" d="M8.50412 70.58673 19.84267 77.52722"/>
<path transform="matrix(1.00002,0,0,-1.00006,24.9459,78.829898)" stroke-width=".79701" stroke-linecap="butt" stroke-miterlimit="10" stroke-linejoin="miter" fill="none" stroke="#000000" d="M14.17339 0C14.59856-1.19554 15.5907-1.99255 17.00803-1.99255 18.42535-1.99255 19.4175-2.78955 19.84267-3.9851 20.26784-2.78955 21.25998-1.99255 22.6773-1.99255 24.09462-1.99255 25.08676-1.19554 25.51193 0"/>
<use data-text="h" xlink:href="#font_1_1" transform="matrix(10.036601,0,0,-10.037002,41.47223,95.90692)"/>
<path transform="matrix(1.00002,0,0,-1.00006,24.9459,78.829898)" stroke-width=".79701" stroke-linecap="butt" stroke-miterlimit="10" stroke-linejoin="miter" fill="none" stroke="#000000" d="M25.51193 45.71017C24.31639 45.86748 23.51938 46.23456 23.51938 46.75896V46.75897C23.51938 47.28336 22.72238 47.65044 21.52682 47.80775 22.72238 47.96506 23.51938 48.33214 23.51938 48.85655 23.51938 49.38097 24.31639 49.74805 25.51193 49.90535"/>
<use data-text="&#x2206;" xlink:href="#font_4_1" transform="matrix(10.036601,0,0,-10.037002,60.034605,33.297166)"/>
<use data-text="y" xlink:href="#font_1_3" transform="matrix(10.036601,0,0,-10.037002,67.736759,33.297166)"/>
<use data-text="y" xlink:href="#font_1_3" transform="matrix(9.165783,0,0,-9.166149,8.317574,48.152055)"/>
<use data-text="&#x2032;" xlink:href="#font_3_1" transform="matrix(6.9660398,0,0,-6.9663178,13.448669,44.036806)"/>
<use data-text="(" xlink:href="#font_2_1" transform="matrix(9.165783,0,0,-9.166149,15.998726,48.152055)"/>
<use data-text="t" xlink:href="#font_1_2" transform="matrix(9.165783,0,0,-9.166149,19.405793,48.152055)"/>
<use data-text=")" xlink:href="#font_2_2" transform="matrix(9.165783,0,0,-9.166149,23.510872,48.152055)"/>
<use data-text="&#x2248;" xlink:href="#font_3_3" transform="matrix(9.165783,0,0,-9.166149,28.422974,48.152055)"/>
<use data-text="y" xlink:href="#font_1_3" transform="matrix(9.165783,0,0,-9.166149,38.417184,41.406648)"/>
<use data-text="(" xlink:href="#font_2_1" transform="matrix(9.165783,0,0,-9.166149,43.548288,41.406648)"/>
<use data-text="t" xlink:href="#font_1_2" transform="matrix(9.165783,0,0,-9.166149,46.955347,41.406648)"/>
<use data-text="+" xlink:href="#font_3_4" transform="matrix(9.165783,0,0,-9.166149,52.27746,41.406648)"/>
<use data-text="h" xlink:href="#font_1_1" transform="matrix(9.165783,0,0,-9.166149,60.090616,41.406648)"/>
<use data-text=")" xlink:href="#font_2_2" transform="matrix(9.165783,0,0,-9.166149,66.14774,41.406648)"/>
<use data-text="&#x2212;" xlink:href="#font_3_2" transform="matrix(9.165783,0,0,-9.166149,70.57383,41.406648)"/>
<use data-text="y" xlink:href="#font_1_3" transform="matrix(9.165783,0,0,-9.166149,78.885,41.406648)"/>
<use data-text="(" xlink:href="#font_2_1" transform="matrix(9.165783,0,0,-9.166149,84.016109,41.406648)"/>
<use data-text="t" xlink:href="#font_1_2" transform="matrix(9.165783,0,0,-9.166149,87.423168,41.406648)"/>
<use data-text=")" xlink:href="#font_2_2" transform="matrix(9.165783,0,0,-9.166149,91.52824,41.406648)"/>
<path transform="matrix(1.00002,0,0,-1.00006,-87.12734,-16.682837)" stroke-width=".5316" stroke-linecap="butt" stroke-miterlimit="10" stroke-linejoin="miter" fill="none" stroke="#000000" d="M125.044-62.25H181.859"/>
<use data-text="h" xlink:href="#font_1_1" transform="matrix(9.165783,0,0,-9.166149,63.298669,54.986459)"/>
</svg>
