<svg xmlns="http://www.w3.org/2000/svg" xmlns:xlink="http://www.w3.org/1999/xlink" version="1.1" width="138" height="48" viewBox="0 0 138 48">
<defs>
<path id="font_1_3" d="M.42799378 .45222474 .43899537 .49023438H.31199647L.34599305 .6092224 .33399964 .6162262 .23699951 .53923037 .22399903 .49023438H.14299011L.13198853 .45222474H.21499634L.125 .08627319C.10998535 .029266358 .12199402-.01171875 .17199707-.01171875 .2519989-.01171875 .31599427 .054275514 .35598756 .1292572L.33399964 .1462555C.31098939 .10726929 .2599945 .040267946 .22898865 .040267946 .20799256 .040267946 .20799256 .0632782 .21398926 .088272098L.30299378 .45222474H.42799378Z"/>
<path id="font_2_4" d="M.43699647 0V.0289917L.35299684 .035995485C.33198548 .037994386 .31999208 .04598999 .31999208 .08496094V.67367556L.31498719 .6796875 .10899353 .6446991V.6197052L.20199585 .6087036C.21899414 .6067047 .22599793 .5987091 .22599793 .56973269V.08496094C.22599793 .065979007 .22299195 .053985597 .21699524 .04698181 .21199036 .039993287 .20399475 .036987306 .19299317 .035995485L.10899353 .0289917V0H.43699647Z"/>
<path id="font_2_5" d="M.4850006 .13195801 .45700074 .13696289C.43598939 .08299255 .41600038 .07598877 .37599183 .07598877H.11999512C.13598633 .1279602 .19499207 .19892884 .28799439 .2658844 .38398744 .33584596 .45799256 .38082887 .45799256 .49276734 .45799256 .63168337 .3659973 .6796875 .26098634 .6796875 .12399292 .6796875 .052993776 .5967102 .052993776 .54473879 .052993776 .51075747 .09098816 .49476625 .10798645 .49476625 .12599182 .49476625 .1329956 .50476077 .13699341 .5217438 .15299988 .5897064 .19198609 .64468386 .2539978 .64468386 .33099366 .64468386 .35299684 .5797119 .35299684 .50675967 .35299684 .3998108 .29899598 .33984376 .21199036 .26289369 .08898926 .15594483 .04598999 .08798218 .026992798 .009994507L.036987306 0H.45098878L.4850006 .13195801Z"/>
<path id="font_2_6" d="M.12998963 .3657837C.12998963 .3487854 .1349945 .33779908 .147995 .33779908 .1599884 .33779908 .18699646 .34777833 .23498535 .34777833 .31999208 .34777833 .36799623 .27090455 .36799623 .18403626 .36799623 .065216068 .30899049 .023269654 .23799134 .023269654 .17199707 .023269654 .1289978 .07319641 .10998535 .12911988 .10398865 .14808655 .09399414 .15707398 .07998657 .15707398 .06199646 .15707398 .026992798 .13809204 .026992798 .10215759 .026992798 .05921936 .09599304-.01171875 .23699951-.01171875 .38198854-.01171875 .47299195 .06121826 .47299195 .18902588 .47299195 .32281495 .35798646 .3627777 .30299378 .3677826V.3717804C.35699464 .38078309 .44400025 .4207611 .44400025 .5197296 .44400025 .6306915 .35699464 .6796875 .25 .6796875 .117996219 .6796875 .052993776 .60369876 .052993776 .5607147 .052993776 .5297241 .08799744 .51272585 .101989749 .51272585 .114990238 .51272585 .12298584 .5197296 .1269989 .5327301 .14898682 .60069277 .18699646 .64468386 .24299622 .64468386 .32199098 .64468386 .34098817 .57470706 .34098817 .51872256 .34098817 .4587555 .31999208 .38378907 .23498535 .38378907 .18699646 .38378907 .1599884 .39378358 .147995 .39378358 .1349945 .39378358 .12998963 .38378907 .12998963 .3657837Z"/>
<path id="font_2_7" d="M.2999878 .17871094V.0769043C.2999878 .04296875 .2889862 .036987306 .2649994 .034988405L.20098877 .0289917V0H.46499635V.0289917L.41999818 .033981325C.39698792 .036987306 .3899994 .04296875 .3899994 .0769043V.17871094H.49299623V.22570801H.3899994V.66796877H.31698609C.22299195 .5298767 .11099243 .35577394 .018997193 .19970703L.027999878 .17871094H.2999878M.09098816 .22570801C.15098572 .33476258 .22099304 .4498291 .2979889 .5709076H.2999878V.22570801H.09098816Z"/>
<path id="font_2_8" d="M.42599488 .5919647 .44999696 .6599579 .44499208 .66796877H.11099243L.100997928 .65896609 .08099365 .32388307 .10499573 .31188966C.14698792 .35983277 .18798828 .3828125 .24198914 .3828125 .30599977 .3828125 .37599183 .3358612 .37599183 .20404053 .37599183 .10116577 .33399964 .023269654 .24699402 .023269654 .1769867 .023269654 .14099121 .07420349 .12098694 .13113404 .115997318 .14611817 .10699463 .15510559 .09298706 .15510559 .07299805 .15510559 .039993287 .13513184 .039993287 .10217285 .039993287 .056228639 .10998535-.01171875 .23999024-.01171875 .40499879-.01171875 .47999574 .0881958 .47999574 .21502686 .47999574 .35484315 .3919983 .4268036 .272995 .4268036 .21798706 .4268036 .15899658 .4028015 .1269989 .3738098L.125 .37580873 .147995 .56292727C.15098572 .58795168 .1579895 .5919647 .1769867 .5919647H.42599488Z"/>
<path id="font_2_9" d="M.27198792-.01171875C.41999818-.01171875 .49899293 .07821655 .49899293 .2140503 .49899293 .3488922 .4119873 .42385865 .30799867 .421875 .23199463 .42385865 .17199707 .36886598 .14498902 .33590699H.14299011C.14399719 .5557556 .20698548 .64468386 .29699708 .64468386 .34298707 .64468386 .375 .6057129 .3899994 .5487671 .3929901 .5367737 .40098573 .527771 .41600038 .527771 .43798829 .527771 .46899415 .5447693 .46899415 .57273867 .46899415 .6127014 .41999818 .6796875 .2999878 .6796875 .22099304 .6796875 .16499329 .64967349 .12298584 .6017151 .07798767 .5497589 .04399109 .45384217 .04399109 .3089447 .04399109 .093185428 .12199402-.01171875 .27198792-.01171875M.27398683 .37086488C.33699037 .37086488 .39898683 .31393434 .39898683 .19906616 .39898683 .094192508 .35798646 .023269654 .27398683 .023269654 .18699646 .023269654 .14498902 .11616516 .14498902 .23602295 .14498902 .2969513 .18998719 .37086488 .27398683 .37086488Z"/>
<path id="font_2_10" d="M.07199097 .66796877 .040985109 .5279999H.067993167L.07798767 .5489807C.09098816 .57696536 .10398865 .5919647 .14898682 .5919647H.4189911C.40899659 .5559845 .3909912 .4980011 .30999757 .38206483 .22399903 .25914 .16699219 .14718628 .16699219 .029251099 .16699219-.0037231446 .18998719-.01171875 .22099304-.01171875 .25-.01171875 .2709961-.0027313233 .269989 .026260376 .2649994 .15818787 .2919922 .26412965 .34498597 .35708619 .40899659 .46905519 .46199037 .5310211 .49699403 .65696719L.48799134 .66796877H.07199097Z"/>
<path id="font_2_11" d="M.2649994 .3380127C.34498597 .3380127 .3880005 .2700653 .3880005 .17915344 .3880005 .09121704 .34999085 .023269654 .2649994 .023269654 .18199158 .023269654 .14199829 .09121704 .14199829 .17915344 .14199829 .2700653 .18598938 .3380127 .2649994 .3380127M.2649994-.01171875C.4269867-.01171875 .48799134 .081222537 .48799134 .18214417 .48799134 .28405763 .42399598 .3420105 .35598756 .35801698V.36102296C.4169922 .37701417 .46598817 .427948 .46598817 .5098419 .46598817 .6187134 .3809967 .6796875 .2649994 .6796875 .15098572 .6796875 .06399536 .61772158 .06399536 .5098419 .06399536 .427948 .11399841 .37701417 .17399597 .36102296V.35801698C.10699463 .3420105 .041992189 .28405763 .041992189 .18214417 .041992189 .081222537 .101989749-.01171875 .2649994-.01171875M.2649994 .37402345C.19299317 .37402345 .16099549 .44392396 .16099549 .5118408 .16099549 .5887451 .19699097 .64468386 .2649994 .64468386 .33299256 .64468386 .36698915 .5887451 .36898805 .5118408 .36898805 .44392396 .33799745 .37402345 .2649994 .37402345Z"/>
<path id="font_1_4" d="M.5329895 .48995973C.5039978 .388031 .48799134 .33506776 .46199037 .2741089 .41799928 .173172 .33099366 .040267946 .24798584 .040267946 .21598816 .040267946 .20799256 .070251468 .22299195 .12820435L.31900025 .4970703 .31399537 .50205996 .13198853 .47375489 .12599182 .4497528 .18798828 .44476319C.21199036 .44276429 .21099854 .42778016 .20298767 .39682008L.13398743 .13316345C.11299133 .053253175 .12098694-.01171875 .20098877-.01171875 .29699708-.01171875 .4019928 .09420776 .46199037 .21005249H.46398927L.43099977 .096206668C.4119873 .029266358 .42399598-.01171875 .47698976-.01171875 .548996-.01171875 .60899356 .057250978 .6439972 .13116455L.6199951 .14613343C.59999087 .11218262 .55599978 .040267946 .5279999 .040267946 .5069885 .040267946 .5069885 .06324768 .5149994 .09420776L.621994 .5019531 .5329895 .48995973Z"/>
<path id="font_1_1" d="M.42799378 .15419007C.3939972 .10821533 .33499146 .03727722 .2679901 .03727722 .19499207 .03727722 .17999268 .097229007 .17999268 .16816712 .17999268 .29808045 .25498963 .46694947 .34700013 .46694947 .3789978 .46694947 .40098573 .44696046 .40699769 .38700868 .40899659 .36901856 .41799928 .35702516 .43598939 .35702516 .45999146 .35702516 .5 .38002015 .5 .41299439 .5 .46394349 .44599916 .5019531 .37098695 .5019531 .19299317 .5019531 .08099365 .31207276 .08099365 .14819336 .08099365 .026275635 .1539917-.01171875 .22399903-.01171875 .2979889-.01171875 .3829956 .02027893 .45199586 .13519287L.42799378 .15419007Z"/>
<path id="font_2_1" d="M.1749878 .2822113C.1749878 .56832888 .2619934 .65437319 .32499696 .66737368V.6923828C.1499939 .685379 .10499573 .46829225 .10499573 .2822113 .10499573 .09614563 .1499939-.12094116 .32499696-.12792969V-.10293579C.2669983-.090927127 .1749878-.0059051516 .1749878 .2822113Z"/>
<path id="font_2_2" d="M.1749878 .2822113C.1749878-.0059051516 .08299255-.090927127 .024993897-.10293579V-.12792969C.19999695-.12094116 .24499512 .09614563 .24499512 .2822113 .24499512 .46829225 .19999695 .685379 .024993897 .6923828V.66737368C.08799744 .65437319 .1749878 .56832888 .1749878 .2822113Z"/>
<path id="font_3_1" d="M.6349945 .2529297V.31092835H.084991458V.2529297H.6349945Z"/>
<path id="font_1_2" d="M.17098999 .112213138C.17098999 .22013855 .2579956 .46694947 .41799928 .46694947 .44898988 .46694947 .47499085 .45794679 .4869995 .44696046 .47200013 .37002564 .43899537 .27609254 .3880005 .19316101 .33999635 .115219119 .27398683 .040267946 .22099304 .040267946 .18899536 .040267946 .17098999 .06724548 .17098999 .112213138M.46398927 .71824648 .45799256 .6953125 .5179901 .68930056C.5419922 .6872864 .5439911 .6802826 .5359955 .6482239L.49798585 .48693849 .49598695 .48493959C.47698976 .49494935 .44599916 .5019531 .4119873 .5019531 .1789856 .5019531 .07199097 .24111939 .07199097 .12020874 .07199097 .055267335 .09098816-.01171875 .17199707-.01171875 .2869873-.01171875 .37599183 .11122131 .43499757 .21813965H.43699647L.4039917 .099227908C.38398744 .028274537 .39898683-.01272583 .44999696-.01171875 .522995-.01171875 .57899478 .056259157 .61299136 .13220215L.58898928 .14619446C.57099917 .11122131 .5269928 .040267946 .49899293 .040267946 .47898866 .040267946 .48098756 .06326294 .4889984 .0952301L.6469879 .7371979 .6419983 .7421875 .46398927 .71824648Z"/>
<path id="font_2_3" d="M.2649994 .64468386C.3600006 .64468386 .3869934 .49682618 .3869934 .33398438 .3869934 .17112732 .3600006 .023269654 .2649994 .023269654 .16999817 .023269654 .14299011 .17112732 .14299011 .33398438 .14299011 .49682618 .16999817 .64468386 .2649994 .64468386M.2649994 .6796875C.099990848 .6796875 .040985109 .53378298 .040985109 .33398438 .040985109 .13417053 .099990848-.01171875 .2649994-.01171875 .42999269-.01171875 .4889984 .13417053 .4889984 .33398438 .4889984 .53378298 .42999269 .6796875 .2649994 .6796875Z"/>
<path id="font_3_2" d="M.6349945 .14315796V.20117188H.084991458V.14315796H.6349945M.6349945 .36288453V.42089845H.084991458V.36288453H.6349945Z"/>
</defs>
<path transform="matrix(1.00008,0,0,-1.00002,6.9650728,32.62939)" stroke-width=".19925" stroke-linecap="butt" stroke-dasharray="2.98883,2.98883" stroke-miterlimit="10" stroke-linejoin="miter" fill="none" stroke="#000000" d="M85.04042-14.17339V25.51215"/>
<path transform="matrix(1.00008,0,0,-1.00002,6.9650728,32.62939)" stroke-width=".19925" stroke-linecap="butt" stroke-dasharray="2.98883,2.98883" stroke-miterlimit="10" stroke-linejoin="miter" fill="none" stroke="#000000" d="M42.5202-14.17339V25.51215"/>
<path transform="matrix(1.00008,0,0,-1.00002,6.9650728,32.62939)" stroke-width=".3985" stroke-linecap="butt" stroke-miterlimit="10" stroke-linejoin="miter" fill="none" stroke="#000000" d="M-4.25204 0H120.01564"/>
<path transform="matrix(1.00008,0,0,-1.00002,126.99031,32.62939)" stroke-width=".31879" stroke-linecap="round" stroke-linejoin="round" fill="none" stroke="#000000" d="M-1.19551 1.59401C-1.09587 .99626 0 .09961 .29886 0 0-.09961-1.09587-.99626-1.19551-1.59401"/>
<path transform="matrix(1.00008,0,0,-1.00002,6.9650728,32.62939)" stroke-width=".3985" stroke-linecap="butt" stroke-miterlimit="10" stroke-linejoin="miter" fill="none" stroke="#000000" d="M0-14.17339V25.05388"/>
<path transform="matrix(0,-1.00002,-1.00008,-0,6.9650728,7.5750086)" stroke-width=".31879" stroke-linecap="round" stroke-linejoin="round" fill="none" stroke="#000000" d="M-1.19551 1.59401C-1.09587 .99626 0 .09961 .29886 0 0-.09961-1.09587-.99626-1.19551-1.59401"/>
<use data-text="t" xlink:href="#font_1_3" transform="matrix(7.3330867,0,0,-7.332647,124.468479,40.54755)"/>
<path transform="matrix(1.00008,0,0,-1.00002,6.9650728,32.62939)" stroke-width=".3985" stroke-linecap="butt" stroke-miterlimit="10" stroke-linejoin="miter" fill="none" stroke="#929292" d="M14.17339 1.4174V-1.4174"/>
<use data-text="1" xlink:href="#font_2_4" transform="matrix(7.3330867,0,0,-7.332647,19.195054,42.07158)"/>
<path transform="matrix(1.00008,0,0,-1.00002,6.9650728,32.62939)" stroke-width=".3985" stroke-linecap="butt" stroke-miterlimit="10" stroke-linejoin="miter" fill="none" stroke="#929292" d="M28.3468 1.4174V-1.4174"/>
<use data-text="2" xlink:href="#font_2_5" transform="matrix(7.3330867,0,0,-7.332647,33.369188,42.07158)"/>
<path transform="matrix(1.00008,0,0,-1.00002,6.9650728,32.62939)" stroke-width=".3985" stroke-linecap="butt" stroke-miterlimit="10" stroke-linejoin="miter" fill="none" stroke="#929292" d="M42.5202 1.4174V-1.4174"/>
<use data-text="3" xlink:href="#font_2_6" transform="matrix(7.3330867,0,0,-7.332647,47.54332,42.07158)"/>
<path transform="matrix(1.00008,0,0,-1.00002,6.9650728,32.62939)" stroke-width=".3985" stroke-linecap="butt" stroke-miterlimit="10" stroke-linejoin="miter" fill="none" stroke="#929292" d="M56.69362 1.4174V-1.4174"/>
<use data-text="4" xlink:href="#font_2_7" transform="matrix(7.3330867,0,0,-7.332647,61.718454,42.07158)"/>
<path transform="matrix(1.00008,0,0,-1.00002,6.9650728,32.62939)" stroke-width=".3985" stroke-linecap="butt" stroke-miterlimit="10" stroke-linejoin="miter" fill="none" stroke="#929292" d="M70.867 1.4174V-1.4174"/>
<use data-text="5" xlink:href="#font_2_8" transform="matrix(7.3330867,0,0,-7.332647,75.892589,42.07158)"/>
<path transform="matrix(1.00008,0,0,-1.00002,6.9650728,32.62939)" stroke-width=".3985" stroke-linecap="butt" stroke-miterlimit="10" stroke-linejoin="miter" fill="none" stroke="#929292" d="M85.04042 1.4174V-1.4174"/>
<use data-text="6" xlink:href="#font_2_9" transform="matrix(7.3330867,0,0,-7.332647,90.06772,42.07158)"/>
<path transform="matrix(1.00008,0,0,-1.00002,6.9650728,32.62939)" stroke-width=".3985" stroke-linecap="butt" stroke-miterlimit="10" stroke-linejoin="miter" fill="none" stroke="#929292" d="M99.21382 1.4174V-1.4174"/>
<use data-text="7" xlink:href="#font_2_10" transform="matrix(7.3330867,0,0,-7.332647,104.24185,42.07158)"/>
<path transform="matrix(1.00008,0,0,-1.00002,6.9650728,32.62939)" stroke-width=".3985" stroke-linecap="butt" stroke-miterlimit="10" stroke-linejoin="miter" fill="none" stroke="#929292" d="M113.38724 1.4174V-1.4174"/>
<use data-text="8" xlink:href="#font_2_11" transform="matrix(7.3330867,0,0,-7.332647,118.415988,42.07158)"/>
<path transform="matrix(1.00008,0,0,-1.00002,6.9650728,32.62939)" stroke-width=".3985" stroke-linecap="butt" stroke-miterlimit="10" stroke-linejoin="miter" fill="none" stroke="#929292" d="M1.4174 14.17339H-1.4174"/>
<use data-text="1" xlink:href="#font_2_4" transform="matrix(7.3330867,0,0,-7.332647,1.093605,20.910157)"/>
<path transform="matrix(1.00008,0,0,-1.00002,6.9650728,32.62939)" stroke-width=".79701" stroke-linecap="butt" stroke-dasharray="2.98883,2.98883" stroke-miterlimit="10" stroke-linejoin="miter" fill="none" stroke="#0000ff" d="M-4.25204 0H-3.79118-3.3303-2.86945-2.40858-1.9477-1.48683-1.02596-.5651-.10423 .35661 .81747 1.27835 1.73923 2.20009 2.66096 3.12183 3.5827 4.04356 4.50443 4.9653 5.42618 5.88705 6.34792 6.80878 7.26965 7.73051 8.19139 8.65225 9.11313 9.574 10.03487 10.49574 10.9566 11.41747 11.87834 12.3392 12.8001 13.26096 13.72182 14.1827 14.64355 15.10443 15.56529 16.02617 16.48705 16.9479 17.40878 17.86964 18.3305 18.79138 19.25224 19.71313 20.174 20.63486 21.09573 21.5566 22.01747 22.47833 22.9392 23.40009 23.86095 24.32181 24.78268 25.24355 25.70442 26.16528 26.62614 27.08704 27.5479 28.00877 28.46964 28.9305 29.39137 29.85223 30.31311 30.77399 31.23485 31.69572 32.15659 32.61746 33.07832 33.53918 34.00006 34.46094 34.92181 35.38268 35.84354 36.30441 36.76527 37.22615 37.68703 38.14789 38.60876 39.06963 39.5305 39.99136 40.45222 40.9131 41.37398"/>
<path transform="matrix(1.00008,0,0,-1.00002,6.9650728,32.62939)" stroke-width=".79701" stroke-linecap="butt" stroke-dasharray="2.98883,2.98883" stroke-miterlimit="10" stroke-linejoin="miter" fill="none" stroke="#990000" d="M-4.25204 0H-3.79118-3.3303-2.86945-2.40858-1.9477-1.48683-1.02596-.5651-.10423 .35661 .81747 1.27835 1.73923 2.20009 2.66096 3.12183 3.5827 4.04356 4.50443 4.9653 5.42618 5.88705 6.34792 6.80878 7.26965 7.73051 8.19139 8.65225 9.11313 9.574 10.03487 10.49574 10.9566 11.41747 11.87834 12.3392 12.8001 13.26096 13.72182 14.1827 14.64355 15.10443 15.56529 16.02617 16.48705 16.9479 17.40878 17.86964 18.3305 18.79138 19.25224 19.71313 20.174 20.63486 21.09573 21.5566 22.01747 22.47833 22.9392 23.40009 23.86095 24.32181 24.78268 25.24355 25.70442 26.16528 26.62614 27.08704 27.5479 28.00877 28.46964 28.9305 29.39137 29.85223 30.31311 30.77399 31.23485 31.69572 32.15659 32.61746 33.07832 33.53918 34.00006 34.46094 34.92181 35.38268 35.84354 36.30441 36.76527 37.22615 37.68703 38.14789 38.60876 39.06963 39.5305 39.99136 40.45222 40.9131 41.37398"/>
<path transform="matrix(1.00008,0,0,-1.00002,6.9650728,32.62939)" stroke-width="1.19553" stroke-linecap="butt" stroke-miterlimit="10" stroke-linejoin="miter" fill="none" stroke="#009900" d="M-3.29562 0H-3.79118-3.3303-2.86945-2.40858-1.9477-1.48683-1.02596-.5651-.10423 .35661 .81747 1.27835 1.73923 2.20009 2.66096 3.12183 3.5827 4.04356 4.50443 4.9653 5.42618 5.88705 6.34792 6.80878 7.26965 7.73051 8.19139 8.65225 9.11313 9.574 10.03487 10.49574 10.9566 11.41747 11.87834 12.3392 12.8001 13.26096 13.72182 14.1827 14.64355 15.10443 15.56529 16.02617 16.48705 16.9479 17.40878 17.86964 18.3305 18.79138 19.25224 19.71313 20.174 20.63486 21.09573 21.5566 22.01747 22.47833 22.9392 23.40009 23.86095 24.32181 24.78268 25.24355 25.70442 26.16528 26.62614 27.08704 27.5479 28.00877 28.46964 28.9305 29.39137 29.85223 30.31311 30.77399 31.23485 31.69572 32.15659 32.61746 33.07832 33.53918 34.00006 34.46094 34.92181 35.38268 35.84354 36.30441 36.76527 37.22615 37.68703 38.14789 38.60876 39.06963 39.5305 39.99136 40.45222 40.9131 41.37398"/>
<path transform="matrix(-1.00008,-0,0,1.00002,3.669189,32.62939)" stroke-width=".9564" stroke-linecap="round" stroke-linejoin="round" fill="none" stroke="#009900" d="M-1.91284 2.55046C-1.75343 1.59402 0 .15938 .4782 0 0-.15938-1.75343-1.59402-1.91284-2.55046"/>
<path transform="matrix(1.00008,0,0,-1.00002,6.9650728,32.62939)" stroke-width=".79701" stroke-linecap="butt" stroke-dasharray="2.98883,2.98883" stroke-miterlimit="10" stroke-linejoin="miter" fill="none" stroke="#0000ff" d="M43.6541 14.17339H44.06068 44.46727 44.87386 45.28044 45.68703 46.09361 46.5002 46.90677 47.31337 47.71996 48.12654 48.53313 48.93971 49.3463 49.75288 50.15947 50.56606 50.97264 51.37923 51.78581 52.1924 52.59898 53.00557 53.41216 53.81874 54.22533 54.6319 55.0385 55.44508 55.85167 56.25826 56.66484 57.07143 57.47801 57.8846 58.29118 58.69777 59.10435 59.51094 59.91753 60.32411 60.7307 61.13728 61.54387 61.95045 62.35704 62.76363 63.17021 63.5768 63.98338 64.38997 64.79655 65.20314 65.60973 66.01631 66.4229 66.82948 67.23607 67.64265 68.04924 68.45583 68.86241 69.269 69.67558 70.08217 70.48875 70.89534 71.30193 71.70851 72.1151 72.52168 72.92827 73.33485 73.74144 74.14803 74.55461 74.9612 75.36778 75.77437 76.18095 76.58754 76.99413 77.40071 77.8073 78.21388 78.62047 79.02705 79.43364 79.84023 80.24681 80.65341 81.05998 81.46657 81.87315 82.27974 82.68633 83.09291 83.4995 83.90608"/>
<path transform="matrix(1.00008,0,0,-1.00002,6.9650728,32.62939)" stroke-width=".79701" stroke-linecap="butt" stroke-dasharray="2.98883,2.98883" stroke-miterlimit="10" stroke-linejoin="miter" fill="none" stroke="#990000" d="M43.6541 0H44.06068 44.46727 44.87386 45.28044 45.68703 46.09361 46.5002 46.90677 47.31337 47.71996 48.12654 48.53313 48.93971 49.3463 49.75288 50.15947 50.56606 50.97264 51.37923 51.78581 52.1924 52.59898 53.00557 53.41216 53.81874 54.22533 54.6319 55.0385 55.44508 55.85167 56.25826 56.66484 57.07143 57.47801 57.8846 58.29118 58.69777 59.10435 59.51094 59.91753 60.32411 60.7307 61.13728 61.54387 61.95045 62.35704 62.76363 63.17021 63.5768 63.98338 64.38997 64.79655 65.20314 65.60973 66.01631 66.4229 66.82948 67.23607 67.64265 68.04924 68.45583 68.86241 69.269 69.67558 70.08217 70.48875 70.89534 71.30193 71.70851 72.1151 72.52168 72.92827 73.33485 73.74144 74.14803 74.55461 74.9612 75.36778 75.77437 76.18095 76.58754 76.99413 77.40071 77.8073 78.21388 78.62047 79.02705 79.43364 79.84023 80.24681 80.65341 81.05998 81.46657 81.87315 82.27974 82.68633 83.09291 83.4995 83.90608"/>
<path transform="matrix(1.00008,0,0,-1.00002,6.9650728,32.62939)" stroke-width="1.19553" stroke-linecap="butt" stroke-miterlimit="10" stroke-linejoin="miter" fill="none" stroke="#009900" d="M42.5202 14.17339H42.93802 43.35587 43.7737 44.19151 44.60936 45.02719 45.445 45.86285 46.28069 46.69852 47.11635 47.53418 47.95201 48.36984 48.78767 49.2055 49.62334 50.04117 50.459 50.87683 51.29466 51.7125 52.13033 52.54816 52.96599 53.38382 53.80165 54.2195 54.63731 55.05516 55.47299 55.89081 56.30865 56.72649 57.1443 57.56215 57.97998 58.3978 58.81564 59.23347 59.65129 60.06914 60.48697 60.90479 61.32263 61.74046 62.15828 62.57613 62.99396 63.41179 63.82962 64.24745 64.66528 65.08311 65.50095 65.91878 66.33661 66.75444 67.17227 67.5901 68.00793 68.42577 68.8436 69.26143 69.67926 70.09709 70.51492 70.93275 71.35059 71.76843 72.18625 72.60408 73.02193 73.43974 73.85757 74.27542 74.69324 75.11107 75.52892 75.94673 76.36456 76.78241 77.20023 77.61806 78.0359 78.45372 78.87155 79.2894 79.70721 80.12506 80.5429 80.96071 81.37856 81.79639 82.2142 82.63205 83.04988 83.4677 83.88554"/>
<path transform="matrix(1.00008,0,0,-1.00002,6.9650728,32.62939)" stroke-width=".79701" stroke-linecap="butt" stroke-dasharray="2.98883,2.98883" stroke-miterlimit="10" stroke-linejoin="miter" fill="none" stroke="#0000ff" d="M86.1743 14.17339H86.52057 86.8668 87.21306 87.5593 87.90553 88.2518 88.59804 88.94429 89.29053 89.63678 89.98303 90.32927 90.67552 91.02176 91.36801 91.71426 92.06052 92.40675 92.75299 93.09924 93.4455 93.79175 94.13799 94.48422 94.83047 95.17673 95.52298 95.86922 96.21547 96.5617 96.90796 97.25421 97.60045 97.9467 98.29294 98.6392 98.98544 99.33168 99.67793 100.02417 100.37044 100.71667 101.06291 101.40916 101.7554 102.10167 102.4479 102.79416 103.1404 103.48663 103.8329 104.17914 104.52539 104.87163 105.21788 105.56413 105.91037 106.25662 106.60286 106.94911 107.29536 107.6416 107.98785 108.33409 108.68034 109.0266 109.37285 109.71909 110.06532 110.41158 110.75783 111.10408 111.45032 111.79657 112.1428 112.48906 112.83531 113.18155 113.5278 113.87404 114.22029 114.56654 114.91278 115.25903 115.60527 115.95154 116.29778 116.64401 116.99026 117.3365 117.68277 118.029 118.37526 118.7215 119.06773 119.414 119.76024 120.10649 120.45273"/>
<path transform="matrix(1.00008,0,0,-1.00002,6.9650728,32.62939)" stroke-width=".79701" stroke-linecap="butt" stroke-dasharray="2.98883,2.98883" stroke-miterlimit="10" stroke-linejoin="miter" fill="none" stroke="#990000" d="M86.1743 14.17339H86.52057 86.8668 87.21306 87.5593 87.90553 88.2518 88.59804 88.94429 89.29053 89.63678 89.98303 90.32927 90.67552 91.02176 91.36801 91.71426 92.06052 92.40675 92.75299 93.09924 93.4455 93.79175 94.13799 94.48422 94.83047 95.17673 95.52298 95.86922 96.21547 96.5617 96.90796 97.25421 97.60045 97.9467 98.29294 98.6392 98.98544 99.33168 99.67793 100.02417 100.37044 100.71667 101.06291 101.40916 101.7554 102.10167 102.4479 102.79416 103.1404 103.48663 103.8329 104.17914 104.52539 104.87163 105.21788 105.56413 105.91037 106.25662 106.60286 106.94911 107.29536 107.6416 107.98785 108.33409 108.68034 109.0266 109.37285 109.71909 110.06532 110.41158 110.75783 111.10408 111.45032 111.79657 112.1428 112.48906 112.83531 113.18155 113.5278 113.87404 114.22029 114.56654 114.91278 115.25903 115.60527 115.95154 116.29778 116.64401 116.99026 117.3365 117.68277 118.029 118.37526 118.7215 119.06773 119.414 119.76024 120.10649 120.45273"/>
<path transform="matrix(1.00008,0,0,-1.00002,6.9650728,32.62939)" stroke-width="1.19553" stroke-linecap="butt" stroke-miterlimit="10" stroke-linejoin="miter" fill="none" stroke="#009900" d="M85.04042 0H85.39812 85.75583 86.11354 86.47125 86.82896 87.18666 87.54437 87.90208 88.2598 88.61751 88.9752 89.33293 89.69063 90.04834 90.40605 90.76375 91.12148 91.47917 91.83688 92.1946 92.55229 92.91002 93.26772 93.62544 93.98314 94.34084 94.69856 95.05626 95.41397 95.77168 96.12938 96.4871 96.8448 97.20251 97.56023 97.91794 98.27565 98.63335 98.99106 99.34877 99.70648 100.0642 100.4219 100.7796 101.13731 101.49503 101.85274 102.21045 102.56815 102.92586 103.28357 103.64128 103.999 104.35669 104.71442 105.07211 105.42981 105.78754 106.14523 106.50296 106.86066 107.21835 107.57608 107.93378 108.2915 108.6492 109.00691 109.36462 109.72232 110.08005 110.43774 110.79546 111.15317 111.51086 111.86859 112.22629 112.584 112.94171 113.29942 113.65714 114.01483 114.37254 114.73026 115.08797 115.44566 115.80339 116.16109 116.5188 116.87651 117.2342 117.59193 117.94963 118.30734 118.66505 119.02275 119.38048 119.73817 120.0959 119.49718"/>
<path transform="matrix(1.00008,0,0,-1.00002,126.47181,32.62939)" stroke-width=".9564" stroke-linecap="round" stroke-linejoin="round" fill="none" stroke="#009900" d="M-1.91284 2.55046C-1.75343 1.59402 0 .15938 .4782 0 0-.15938-1.75343-1.59402-1.91284-2.55046"/>
<path transform="matrix(1.00008,0,0,-1.00002,6.9650728,32.62939)" stroke-width=".79701" stroke-linecap="butt" stroke-miterlimit="10" stroke-linejoin="miter" fill="none" stroke="#009900" d="M44.01462 0C44.01462 .82533 43.34555 1.49442 42.5202 1.49442 41.69485 1.49442 41.02579 .82533 41.02579 0 41.02579-.82533 41.69485-1.49442 42.5202-1.49442 43.34555-1.49442 44.01462-.82533 44.01462 0ZM42.5202 0"/>
<path transform="matrix(1.00008,0,0,-1.00002,6.9650728,32.62939)" d="M44.01462 14.17339C44.01462 14.99873 43.34555 15.6678 42.5202 15.6678 41.69485 15.6678 41.02579 14.99873 41.02579 14.17339 41.02579 13.34804 41.69485 12.67897 42.5202 12.67897 43.34555 12.67897 44.01462 13.34804 44.01462 14.17339ZM42.5202 14.17339" fill="#009900"/>
<path transform="matrix(1.00008,0,0,-1.00002,6.9650728,32.62939)" stroke-width=".79701" stroke-linecap="butt" stroke-miterlimit="10" stroke-linejoin="miter" fill="none" stroke="#009900" d="M86.53484 14.17339C86.53484 14.99873 85.86577 15.6678 85.04042 15.6678 84.21507 15.6678 83.546 14.99873 83.546 14.17339 83.546 13.34804 84.21507 12.67897 85.04042 12.67897 85.86577 12.67897 86.53484 13.34804 86.53484 14.17339ZM85.04042 14.17339"/>
<path transform="matrix(1.00008,0,0,-1.00002,6.9650728,32.62939)" d="M86.53484 0C86.53484 .82533 85.86577 1.49442 85.04042 1.49442 84.21507 1.49442 83.546 .82533 83.546 0 83.546-.82533 84.21507-1.49442 85.04042-1.49442 85.86577-1.49442 86.53484-.82533 86.53484 0ZM85.04042 0" fill="#009900"/>
<use data-text="u" xlink:href="#font_1_4" transform="matrix(7.3330867,0,0,-7.332647,4.8749086,6.987877)"/>
<use data-text="c" xlink:href="#font_1_1" transform="matrix(6.233099,0,0,-6.232725,9.649292,8.182901)"/>
<use data-text="(" xlink:href="#font_2_1" transform="matrix(7.3330867,0,0,-7.332647,13.385597,6.987877)"/>
<use data-text="t" xlink:href="#font_1_3" transform="matrix(7.3330867,0,0,-7.332647,16.111809,6.987877)"/>
<use data-text=")" xlink:href="#font_2_2" transform="matrix(7.3330867,0,0,-7.332647,19.396073,6.987877)"/>
<use data-text="&#x2212;" xlink:href="#font_3_1" transform="matrix(7.3330867,0,0,-7.332647,22.936356,6.987877)"/>
<use data-text="u" xlink:href="#font_1_4" transform="matrix(7.3330867,0,0,-7.332647,29.18785,6.987877)"/>
<use data-text="d" xlink:href="#font_1_2" transform="matrix(6.233099,0,0,-6.232725,33.962236,8.839914)"/>
<use data-text="(" xlink:href="#font_2_1" transform="matrix(7.3330867,0,0,-7.332647,38.748628,6.987877)"/>
<use data-text="t" xlink:href="#font_1_3" transform="matrix(7.3330867,0,0,-7.332647,41.47484,6.987877)"/>
<use data-text=")" xlink:href="#font_2_2" transform="matrix(7.3330867,0,0,-7.332647,44.7591,6.987877)"/>
<use data-text="0" xlink:href="#font_2_3" transform="matrix(6.233099,0,0,-6.232725,16.655854,14.289024)"/>
<use data-text="&#x2212;" xlink:href="#font_3_1" transform="matrix(6.233099,0,0,-6.232725,19.96212,14.289024)"/>
<use data-text="0" xlink:href="#font_2_3" transform="matrix(6.233099,0,0,-6.232725,24.44648,14.289024)"/>
<use data-text="=" xlink:href="#font_3_2" transform="matrix(6.233099,0,0,-6.232725,27.752739,14.289024)"/>
<use data-text="0" xlink:href="#font_2_3" transform="matrix(6.233099,0,0,-6.232725,32.2381,14.289024)"/>
<use data-text="0" xlink:href="#font_2_3" transform="matrix(7.3330867,0,0,-7.332647,12.651527,29.190323)"/>
<use data-text="&#x2212;" xlink:href="#font_3_1" transform="matrix(7.3330867,0,0,-7.332647,17.514916,29.190323)"/>
<use data-text="0" xlink:href="#font_2_3" transform="matrix(7.3330867,0,0,-7.332647,23.766419,29.190323)"/>
<use data-text="=" xlink:href="#font_3_2" transform="matrix(7.3330867,0,0,-7.332647,29.019837,29.190323)"/>
<use data-text="0" xlink:href="#font_2_3" transform="matrix(7.3330867,0,0,-7.332647,35.66037,29.190323)"/>
<use data-text="u" xlink:href="#font_1_4" transform="matrix(7.3330867,0,0,-7.332647,56.259019,13.807013)"/>
<use data-text="c" xlink:href="#font_1_1" transform="matrix(6.233099,0,0,-6.232725,61.0334,15.002037)"/>
<use data-text="(" xlink:href="#font_2_1" transform="matrix(7.3330867,0,0,-7.332647,64.76971,13.807013)"/>
<use data-text="t" xlink:href="#font_1_3" transform="matrix(7.3330867,0,0,-7.332647,67.49592,13.807013)"/>
<use data-text=")" xlink:href="#font_2_2" transform="matrix(7.3330867,0,0,-7.332647,70.78018,13.807013)"/>
<use data-text="=" xlink:href="#font_3_2" transform="matrix(7.3330867,0,0,-7.332647,74.710498,13.807013)"/>
<use data-text="1" xlink:href="#font_2_4" transform="matrix(7.3330867,0,0,-7.332647,81.35102,13.807013)"/>
<use data-text="u" xlink:href="#font_1_4" transform="matrix(7.3330867,0,0,-7.332647,55.733976,27.324284)"/>
<use data-text="d" xlink:href="#font_1_2" transform="matrix(6.233099,0,0,-6.232725,60.508359,29.176323)"/>
<use data-text="(" xlink:href="#font_2_1" transform="matrix(7.3330867,0,0,-7.332647,65.294757,27.324284)"/>
<use data-text="t" xlink:href="#font_1_3" transform="matrix(7.3330867,0,0,-7.332647,68.020969,27.324284)"/>
<use data-text=")" xlink:href="#font_2_2" transform="matrix(7.3330867,0,0,-7.332647,71.30522,27.324284)"/>
<use data-text="=" xlink:href="#font_3_2" transform="matrix(7.3330867,0,0,-7.332647,75.235538,27.324284)"/>
<use data-text="0" xlink:href="#font_2_3" transform="matrix(7.3330867,0,0,-7.332647,81.87607,27.324284)"/>
<use data-text="u" xlink:href="#font_1_4" transform="matrix(7.3330867,0,0,-7.332647,82.16808,27.324284)"/>
<use data-text="c" xlink:href="#font_1_1" transform="matrix(6.233099,0,0,-6.232725,86.94247,28.51931)"/>
<use data-text="(" xlink:href="#font_2_1" transform="matrix(7.3330867,0,0,-7.332647,90.67877,27.324284)"/>
<use data-text="t" xlink:href="#font_1_3" transform="matrix(7.3330867,0,0,-7.332647,93.40498,27.324284)"/>
<use data-text=")" xlink:href="#font_2_2" transform="matrix(7.3330867,0,0,-7.332647,96.68925,27.324284)"/>
<use data-text="=" xlink:href="#font_3_2" transform="matrix(7.3330867,0,0,-7.332647,100.61956,27.324284)"/>
<use data-text="u" xlink:href="#font_1_4" transform="matrix(7.3330867,0,0,-7.332647,107.260089,27.324284)"/>
<use data-text="d" xlink:href="#font_1_2" transform="matrix(6.233099,0,0,-6.232725,112.03448,29.176323)"/>
<use data-text="(" xlink:href="#font_2_1" transform="matrix(7.3330867,0,0,-7.332647,116.82086,27.324284)"/>
<use data-text="t" xlink:href="#font_1_3" transform="matrix(7.3330867,0,0,-7.332647,119.54707,27.324284)"/>
<use data-text=")" xlink:href="#font_2_2" transform="matrix(7.3330867,0,0,-7.332647,122.83134,27.324284)"/>
<use data-text="=" xlink:href="#font_3_2" transform="matrix(7.3330867,0,0,-7.332647,126.76165,27.324284)"/>
<use data-text="1" xlink:href="#font_2_4" transform="matrix(7.3330867,0,0,-7.332647,133.40219,27.324284)"/>
</svg>
