<svg xmlns="http://www.w3.org/2000/svg" xmlns:xlink="http://www.w3.org/1999/xlink" version="1.1" width="128" height="43" viewBox="0 0 128 43">
<defs>
<path id="font_1_1" d="M.42799378 .45222474 .43899537 .49023438H.31199647L.34599305 .6092224 .33399964 .6162262 .23699951 .53923037 .22399903 .49023438H.14299011L.13198853 .45222474H.21499634L.125 .08627319C.10998535 .029266358 .12199402-.01171875 .17199707-.01171875 .2519989-.01171875 .31599427 .054275514 .35598756 .1292572L.33399964 .1462555C.31098939 .10726929 .2599945 .040267946 .22898865 .040267946 .20799256 .040267946 .20799256 .0632782 .21398926 .088272098L.30299378 .45222474H.42799378Z"/>
<path id="font_2_1" d="M.07398987 .2861328V.21612549H.31900025V.2861328H.07398987Z"/>
<path id="font_2_2" d="M.43699647 0V.0289917L.35299684 .035995485C.33198548 .037994386 .31999208 .04598999 .31999208 .08496094V.67367556L.31498719 .6796875 .10899353 .6446991V.6197052L.20199585 .6087036C.21899414 .6067047 .22599793 .5987091 .22599793 .56973269V.08496094C.22599793 .065979007 .22299195 .053985597 .21699524 .04698181 .21199036 .039993287 .20399475 .036987306 .19299317 .035995485L.10899353 .0289917V0H.43699647Z"/>
<path id="font_2_3" d="M.4850006 .13195801 .45700074 .13696289C.43598939 .08299255 .41600038 .07598877 .37599183 .07598877H.11999512C.13598633 .1279602 .19499207 .19892884 .28799439 .2658844 .38398744 .33584596 .45799256 .38082887 .45799256 .49276734 .45799256 .63168337 .3659973 .6796875 .26098634 .6796875 .12399292 .6796875 .052993776 .5967102 .052993776 .54473879 .052993776 .51075747 .09098816 .49476625 .10798645 .49476625 .12599182 .49476625 .1329956 .50476077 .13699341 .5217438 .15299988 .5897064 .19198609 .64468386 .2539978 .64468386 .33099366 .64468386 .35299684 .5797119 .35299684 .50675967 .35299684 .3998108 .29899598 .33984376 .21199036 .26289369 .08898926 .15594483 .04598999 .08798218 .026992798 .009994507L.036987306 0H.45098878L.4850006 .13195801Z"/>
<path id="font_2_4" d="M.12998963 .3657837C.12998963 .3487854 .1349945 .33779908 .147995 .33779908 .1599884 .33779908 .18699646 .34777833 .23498535 .34777833 .31999208 .34777833 .36799623 .27090455 .36799623 .18403626 .36799623 .065216068 .30899049 .023269654 .23799134 .023269654 .17199707 .023269654 .1289978 .07319641 .10998535 .12911988 .10398865 .14808655 .09399414 .15707398 .07998657 .15707398 .06199646 .15707398 .026992798 .13809204 .026992798 .10215759 .026992798 .05921936 .09599304-.01171875 .23699951-.01171875 .38198854-.01171875 .47299195 .06121826 .47299195 .18902588 .47299195 .32281495 .35798646 .3627777 .30299378 .3677826V.3717804C.35699464 .38078309 .44400025 .4207611 .44400025 .5197296 .44400025 .6306915 .35699464 .6796875 .25 .6796875 .117996219 .6796875 .052993776 .60369876 .052993776 .5607147 .052993776 .5297241 .08799744 .51272585 .101989749 .51272585 .114990238 .51272585 .12298584 .5197296 .1269989 .5327301 .14898682 .60069277 .18699646 .64468386 .24299622 .64468386 .32199098 .64468386 .34098817 .57470706 .34098817 .51872256 .34098817 .4587555 .31999208 .38378907 .23498535 .38378907 .18699646 .38378907 .1599884 .39378358 .147995 .39378358 .1349945 .39378358 .12998963 .38378907 .12998963 .3657837Z"/>
<path id="font_2_5" d="M.2999878 .17871094V.0769043C.2999878 .04296875 .2889862 .036987306 .2649994 .034988405L.20098877 .0289917V0H.46499635V.0289917L.41999818 .033981325C.39698792 .036987306 .3899994 .04296875 .3899994 .0769043V.17871094H.49299623V.22570801H.3899994V.66796877H.31698609C.22299195 .5298767 .11099243 .35577394 .018997193 .19970703L.027999878 .17871094H.2999878M.09098816 .22570801C.15098572 .33476258 .22099304 .4498291 .2979889 .5709076H.2999878V.22570801H.09098816Z"/>
<path id="font_2_6" d="M.42599488 .5919647 .44999696 .6599579 .44499208 .66796877H.11099243L.100997928 .65896609 .08099365 .32388307 .10499573 .31188966C.14698792 .35983277 .18798828 .3828125 .24198914 .3828125 .30599977 .3828125 .37599183 .3358612 .37599183 .20404053 .37599183 .10116577 .33399964 .023269654 .24699402 .023269654 .1769867 .023269654 .14099121 .07420349 .12098694 .13113404 .115997318 .14611817 .10699463 .15510559 .09298706 .15510559 .07299805 .15510559 .039993287 .13513184 .039993287 .10217285 .039993287 .056228639 .10998535-.01171875 .23999024-.01171875 .40499879-.01171875 .47999574 .0881958 .47999574 .21502686 .47999574 .35484315 .3919983 .4268036 .272995 .4268036 .21798706 .4268036 .15899658 .4028015 .1269989 .3738098L.125 .37580873 .147995 .56292727C.15098572 .58795168 .1579895 .5919647 .1769867 .5919647H.42599488Z"/>
<path id="font_2_7" d="M.27198792-.01171875C.41999818-.01171875 .49899293 .07821655 .49899293 .2140503 .49899293 .3488922 .4119873 .42385865 .30799867 .421875 .23199463 .42385865 .17199707 .36886598 .14498902 .33590699H.14299011C.14399719 .5557556 .20698548 .64468386 .29699708 .64468386 .34298707 .64468386 .375 .6057129 .3899994 .5487671 .3929901 .5367737 .40098573 .527771 .41600038 .527771 .43798829 .527771 .46899415 .5447693 .46899415 .57273867 .46899415 .6127014 .41999818 .6796875 .2999878 .6796875 .22099304 .6796875 .16499329 .64967349 .12298584 .6017151 .07798767 .5497589 .04399109 .45384217 .04399109 .3089447 .04399109 .093185428 .12199402-.01171875 .27198792-.01171875M.27398683 .37086488C.33699037 .37086488 .39898683 .31393434 .39898683 .19906616 .39898683 .094192508 .35798646 .023269654 .27398683 .023269654 .18699646 .023269654 .14498902 .11616516 .14498902 .23602295 .14498902 .2969513 .18998719 .37086488 .27398683 .37086488Z"/>
<path id="font_2_8" d="M.07199097 .66796877 .040985109 .5279999H.067993167L.07798767 .5489807C.09098816 .57696536 .10398865 .5919647 .14898682 .5919647H.4189911C.40899659 .5559845 .3909912 .4980011 .30999757 .38206483 .22399903 .25914 .16699219 .14718628 .16699219 .029251099 .16699219-.0037231446 .18998719-.01171875 .22099304-.01171875 .25-.01171875 .2709961-.0027313233 .269989 .026260376 .2649994 .15818787 .2919922 .26412965 .34498597 .35708619 .40899659 .46905519 .46199037 .5310211 .49699403 .65696719L.48799134 .66796877H.07199097Z"/>
</defs>
<path transform="matrix(1.00002,0,0,-1.00008,19.649758,27.312905)" stroke-width=".19925" stroke-linecap="butt" stroke-dasharray="2.98883,2.98883" stroke-miterlimit="10" stroke-linejoin="miter" fill="none" stroke="#000000" d="M56.69362-14.17339V25.51215"/>
<path transform="matrix(1.00002,0,0,-1.00008,19.649758,27.312905)" stroke-width=".19925" stroke-linecap="butt" stroke-dasharray="2.98883,2.98883" stroke-miterlimit="10" stroke-linejoin="miter" fill="none" stroke="#000000" d="M14.17339-14.17339V25.51215"/>
<path transform="matrix(1.00002,0,0,-1.00008,19.649758,27.312905)" stroke-width=".3985" stroke-linecap="butt" stroke-miterlimit="10" stroke-linejoin="miter" fill="none" stroke="#000000" d="M-18.42546 0H105.84224"/>
<path transform="matrix(1.00002,0,0,-1.00008,125.49412,27.312905)" stroke-width=".31879" stroke-linecap="round" stroke-linejoin="round" fill="none" stroke="#000000" d="M-1.19551 1.59401C-1.09587 .99626 0 .09961 .29886 0 0-.09961-1.09587-.99626-1.19551-1.59401"/>
<path transform="matrix(1.00002,0,0,-1.00008,19.649758,27.312905)" stroke-width=".3985" stroke-linecap="butt" stroke-miterlimit="10" stroke-linejoin="miter" fill="none" stroke="#000000" d="M0-14.17339V25.05388"/>
<path transform="matrix(0,-1.00008,-1.00002,-0,19.649758,2.257019)" stroke-width=".31879" stroke-linecap="round" stroke-linejoin="round" fill="none" stroke="#000000" d="M-1.19551 1.59401C-1.09587 .99626 0 .09961 .29886 0 0-.09961-1.09587-.99626-1.19551-1.59401"/>
<use data-text="t" xlink:href="#font_1_1" transform="matrix(7.332647,0,0,-7.3330867,122.97382,35.231538)"/>
<path transform="matrix(1.00002,0,0,-1.00008,19.649758,27.312905)" stroke-width=".3985" stroke-linecap="butt" stroke-miterlimit="10" stroke-linejoin="miter" fill="none" stroke="#929292" d="M-14.17339 1.4174V-1.4174"/>
<use data-text="-" xlink:href="#font_2_1" transform="matrix(7.332647,0,0,-7.3330867,2.0924073,36.75566)"/>
<use data-text="1" xlink:href="#font_2_2" transform="matrix(7.332647,0,0,-7.3330867,4.966812,36.75566)"/>
<path transform="matrix(1.00002,0,0,-1.00008,19.649758,27.312905)" stroke-width=".3985" stroke-linecap="butt" stroke-miterlimit="10" stroke-linejoin="miter" fill="none" stroke="#929292" d="M14.17339 1.4174V-1.4174"/>
<use data-text="1" xlink:href="#font_2_2" transform="matrix(7.332647,0,0,-7.3330867,31.879002,36.75566)"/>
<path transform="matrix(1.00002,0,0,-1.00008,19.649758,27.312905)" stroke-width=".3985" stroke-linecap="butt" stroke-miterlimit="10" stroke-linejoin="miter" fill="none" stroke="#929292" d="M28.3468 1.4174V-1.4174"/>
<use data-text="2" xlink:href="#font_2_3" transform="matrix(7.332647,0,0,-7.3330867,46.052286,36.75566)"/>
<path transform="matrix(1.00002,0,0,-1.00008,19.649758,27.312905)" stroke-width=".3985" stroke-linecap="butt" stroke-miterlimit="10" stroke-linejoin="miter" fill="none" stroke="#929292" d="M42.5202 1.4174V-1.4174"/>
<use data-text="3" xlink:href="#font_2_4" transform="matrix(7.332647,0,0,-7.3330867,60.22557,36.75566)"/>
<path transform="matrix(1.00002,0,0,-1.00008,19.649758,27.312905)" stroke-width=".3985" stroke-linecap="butt" stroke-miterlimit="10" stroke-linejoin="miter" fill="none" stroke="#929292" d="M56.69362 1.4174V-1.4174"/>
<use data-text="4" xlink:href="#font_2_5" transform="matrix(7.332647,0,0,-7.3330867,74.39986,36.75566)"/>
<path transform="matrix(1.00002,0,0,-1.00008,19.649758,27.312905)" stroke-width=".3985" stroke-linecap="butt" stroke-miterlimit="10" stroke-linejoin="miter" fill="none" stroke="#929292" d="M70.867 1.4174V-1.4174"/>
<use data-text="5" xlink:href="#font_2_6" transform="matrix(7.332647,0,0,-7.3330867,88.573139,36.75566)"/>
<path transform="matrix(1.00002,0,0,-1.00008,19.649758,27.312905)" stroke-width=".3985" stroke-linecap="butt" stroke-miterlimit="10" stroke-linejoin="miter" fill="none" stroke="#929292" d="M85.04042 1.4174V-1.4174"/>
<use data-text="6" xlink:href="#font_2_7" transform="matrix(7.332647,0,0,-7.3330867,102.74742,36.75566)"/>
<path transform="matrix(1.00002,0,0,-1.00008,19.649758,27.312905)" stroke-width=".3985" stroke-linecap="butt" stroke-miterlimit="10" stroke-linejoin="miter" fill="none" stroke="#929292" d="M99.21382 1.4174V-1.4174"/>
<use data-text="7" xlink:href="#font_2_8" transform="matrix(7.332647,0,0,-7.3330867,116.9207,36.75566)"/>
<path transform="matrix(1.00002,0,0,-1.00008,19.649758,27.312905)" stroke-width=".3985" stroke-linecap="butt" stroke-miterlimit="10" stroke-linejoin="miter" fill="none" stroke="#929292" d="M1.4174 14.17339H-1.4174"/>
<use data-text="1" xlink:href="#font_2_2" transform="matrix(7.332647,0,0,-7.3330867,13.778641,15.592967)"/>
<path transform="matrix(1.00002,0,0,-1.00008,19.649758,27.312905)" stroke-width=".79701" stroke-linecap="butt" stroke-dasharray="2.98883,2.98883" stroke-miterlimit="10" stroke-linejoin="miter" fill="none" stroke="#0000ff" d="M-18.42546 0H-18.10776-17.79007-17.47235-17.15466-16.83696-16.51926-16.20157-15.88385-15.56616-15.24846-14.93077-14.61307-14.29536-13.97766-13.65997-13.34227-13.02458-12.70686-12.38916-12.07147-11.75377-11.43608-11.11836-10.80067-10.48297-10.16528-9.84758-9.52989-9.21217-8.89447-8.57678-8.25908-7.94139-7.62367-7.30598-6.98828-6.6706-6.35289-6.03519-5.71748-5.3998-5.08209-4.76439-4.44669-4.12898-3.8113-3.49359-3.1759-2.85818-2.5405-2.2228-1.9051-1.5874-1.26971-.952-.6343-.3166 .00107 .31876 .63647 .95416 1.27187 1.58955 1.90726 2.22496 2.54266 2.86035 3.17805 3.49576 3.81346 4.13116 4.44885 4.76656 5.08424 5.40195 5.71965 6.03735 6.35504 6.67274 6.99045 7.30815 7.62585 7.94354 8.26125 8.57893 8.89665 9.21434 9.53204 9.84973 10.16743 10.48514 10.80284 11.12054 11.43823 11.75594 12.07364 12.39134 12.70903 13.02673"/>
<path transform="matrix(1.00002,0,0,-1.00008,19.649758,27.312905)" stroke-width=".79701" stroke-linecap="butt" stroke-dasharray="2.98883,2.98883" stroke-miterlimit="10" stroke-linejoin="miter" fill="none" stroke="#990000" d="M-18.42546 0H-18.10776-17.79007-17.47235-17.15466-16.83696-16.51926-16.20157-15.88385-15.56616-15.24846-14.93077-14.61307-14.29536-13.97766-13.65997-13.34227-13.02458-12.70686-12.38916-12.07147-11.75377-11.43608-11.11836-10.80067-10.48297-10.16528-9.84758-9.52989-9.21217-8.89447-8.57678-8.25908-7.94139-7.62367-7.30598-6.98828-6.6706-6.35289-6.03519-5.71748-5.3998-5.08209-4.76439-4.44669-4.12898-3.8113-3.49359-3.1759-2.85818-2.5405-2.2228-1.9051-1.5874-1.26971-.952-.6343-.3166 .00107 .31876 .63647 .95416 1.27187 1.58955 1.90726 2.22496 2.54266 2.86035 3.17805 3.49576 3.81346 4.13116 4.44885 4.76656 5.08424 5.40195 5.71965 6.03735 6.35504 6.67274 6.99045 7.30815 7.62585 7.94354 8.26125 8.57893 8.89665 9.21434 9.53204 9.84973 10.16743 10.48514 10.80284 11.12054 11.43823 11.75594 12.07364 12.39134 12.70903 13.02673"/>
<path transform="matrix(1.00002,0,0,-1.00008,19.649758,27.312905)" stroke-width="1.19553" stroke-linecap="butt" stroke-miterlimit="10" stroke-linejoin="miter" fill="none" stroke="#009900" d="M-17.46904 0H-18.10776-17.79007-17.47235-17.15466-16.83696-16.51926-16.20157-15.88385-15.56616-15.24846-14.93077-14.61307-14.29536-13.97766-13.65997-13.34227-13.02458-12.70686-12.38916-12.07147-11.75377-11.43608-11.11836-10.80067-10.48297-10.16528-9.84758-9.52989-9.21217-8.89447-8.57678-8.25908-7.94139-7.62367-7.30598-6.98828-6.6706-6.35289-6.03519-5.71748-5.3998-5.08209-4.76439-4.44669-4.12898-3.8113-3.49359-3.1759-2.85818-2.5405-2.2228-1.9051-1.5874-1.26971-.952-.6343-.3166 .00107 .31876 .63647 .95416 1.27187 1.58955 1.90726 2.22496 2.54266 2.86035 3.17805 3.49576 3.81346 4.13116 4.44885 4.76656 5.08424 5.40195 5.71965 6.03735 6.35504 6.67274 6.99045 7.30815 7.62585 7.94354 8.26125 8.57893 8.89665 9.21434 9.53204 9.84973 10.16743 10.48514 10.80284 11.12054 11.43823 11.75594 12.07364 12.39134 12.70903 13.02673"/>
<path transform="matrix(-1.00002,-0,0,1.00008,2.1803685,27.312905)" stroke-width=".9564" stroke-linecap="round" stroke-linejoin="round" fill="none" stroke="#009900" d="M-1.91284 2.55046C-1.75343 1.59402 0 .15938 .4782 0 0-.15938-1.75343-1.59402-1.91284-2.55046"/>
<path transform="matrix(1.00002,0,0,-1.00008,19.649758,27.312905)" stroke-width=".79701" stroke-linecap="butt" stroke-dasharray="2.98883,2.98883" stroke-miterlimit="10" stroke-linejoin="miter" fill="none" stroke="#0000ff" d="M14.17339 14.17339H14.59122 15.00906 15.42688 15.84471 16.26256 16.68037 17.0982 17.51605 17.93387 18.35172 18.76955 19.18736 19.60521 20.02304 20.44086 20.8587 21.27654 21.69435 22.1122 22.53003 22.94785 23.36569 23.78352 24.20134 24.61919 25.03702 25.45483 25.87268 26.29051 26.70834 27.12617 27.544 27.96184 28.37967 28.7975 29.21533 29.63316 30.051 30.46883 30.88666 31.30449 31.72232 32.14015 32.55798 32.97581 33.39365 33.81148 34.22931 34.64714 35.06499 35.4828 35.90063 36.31848 36.7363 37.15413 37.57198 37.98979 38.40762 38.82547 39.24329 39.66112 40.07896 40.49678 40.91461 41.33246 41.75027 42.1681 42.58595 43.00377 43.42162 43.83945 44.25726 44.67511 45.09294 45.51076 45.9286 46.34644 46.76425 47.1821 47.59993 48.01775 48.4356 48.85342 49.27124 49.68909 50.10692 50.52473 50.94258 51.36041 51.77824 52.19608 52.6139 53.03174 53.44957 53.8674 54.28523 54.70306 55.1209 55.53873"/>
<path transform="matrix(1.00002,0,0,-1.00008,19.649758,27.312905)" stroke-width=".79701" stroke-linecap="butt" stroke-dasharray="2.98883,2.98883" stroke-miterlimit="10" stroke-linejoin="miter" fill="none" stroke="#990000" d="M14.17339 0H14.59122 15.00906 15.42688 15.84471 16.26256 16.68037 17.0982 17.51605 17.93387 18.35172 18.76955 19.18736 19.60521 20.02304 20.44086 20.8587 21.27654 21.69435 22.1122 22.53003 22.94785 23.36569 23.78352 24.20134 24.61919 25.03702 25.45483 25.87268 26.29051 26.70834 27.12617 27.544 27.96184 28.37967 28.7975 29.21533 29.63316 30.051 30.46883 30.88666 31.30449 31.72232 32.14015 32.55798 32.97581 33.39365 33.81148 34.22931 34.64714 35.06499 35.4828 35.90063 36.31848 36.7363 37.15413 37.57198 37.98979 38.40762 38.82547 39.24329 39.66112 40.07896 40.49678 40.91461 41.33246 41.75027 42.1681 42.58595 43.00377 43.42162 43.83945 44.25726 44.67511 45.09294 45.51076 45.9286 46.34644 46.76425 47.1821 47.59993 48.01775 48.4356 48.85342 49.27124 49.68909 50.10692 50.52473 50.94258 51.36041 51.77824 52.19608 52.6139 53.03174 53.44957 53.8674 54.28523 54.70306 55.1209 55.53873"/>
<path transform="matrix(1.00002,0,0,-1.00008,19.649758,27.312905)" stroke-width="1.19553" stroke-linecap="butt" stroke-miterlimit="10" stroke-linejoin="miter" fill="none" stroke="#009900" d="M14.17339 14.17339H14.59122 15.00906 15.42688 15.84471 16.26256 16.68037 17.0982 17.51605 17.93387 18.35172 18.76955 19.18736 19.60521 20.02304 20.44086 20.8587 21.27654 21.69435 22.1122 22.53003 22.94785 23.36569 23.78352 24.20134 24.61919 25.03702 25.45483 25.87268 26.29051 26.70834 27.12617 27.544 27.96184 28.37967 28.7975 29.21533 29.63316 30.051 30.46883 30.88666 31.30449 31.72232 32.14015 32.55798 32.97581 33.39365 33.81148 34.22931 34.64714 35.06499 35.4828 35.90063 36.31848 36.7363 37.15413 37.57198 37.98979 38.40762 38.82547 39.24329 39.66112 40.07896 40.49678 40.91461 41.33246 41.75027 42.1681 42.58595 43.00377 43.42162 43.83945 44.25726 44.67511 45.09294 45.51076 45.9286 46.34644 46.76425 47.1821 47.59993 48.01775 48.4356 48.85342 49.27124 49.68909 50.10692 50.52473 50.94258 51.36041 51.77824 52.19608 52.6139 53.03174 53.44957 53.8674 54.28523 54.70306 55.1209 55.53873"/>
<path transform="matrix(1.00002,0,0,-1.00008,19.649758,27.312905)" stroke-width=".79701" stroke-linecap="butt" stroke-dasharray="2.98883,2.98883" stroke-miterlimit="10" stroke-linejoin="miter" fill="none" stroke="#0000ff" d="M56.69362 14.17339H57.19449 57.69536 58.19624 58.69713 59.198 59.69888 60.19975 60.70064 61.20152 61.7024 62.20328 62.70416 63.20503 63.7059 64.20679 64.70767 65.20854 65.70941 66.21031 66.71118 67.21205 67.71295 68.21382 68.71469 69.21558 69.71646 70.21733 70.71822 71.2191 71.71997 72.22086 72.72173 73.22261 73.7235 74.22437 74.72523 75.22614 75.727 76.22787 76.72878 77.22964 77.73051 78.2314 78.73228 79.23315 79.73404 80.23492 80.7358 81.23668 81.73755 82.23843 82.73932 83.24019 83.74106 84.24196 84.74283 85.2437 85.7446 86.24547 86.74634 87.24722 87.74811 88.24898 88.74986 89.25075 89.75162 90.2525 90.75337 91.25426 91.75514 92.25601 92.75688 93.25778 93.75865 94.25952 94.76042 95.26129 95.76216 96.26305 96.76393 97.2648 97.76569 98.26656 98.76744 99.26833 99.7692 100.27008 100.77095 101.27184 101.7727 102.27359 102.77448 103.27534 103.77623 104.27711 104.77798 105.27885 105.77975 106.28062"/>
<path transform="matrix(1.00002,0,0,-1.00008,19.649758,27.312905)" stroke-width=".79701" stroke-linecap="butt" stroke-dasharray="2.98883,2.98883" stroke-miterlimit="10" stroke-linejoin="miter" fill="none" stroke="#990000" d="M56.69362 14.17339H57.19449 57.69536 58.19624 58.69713 59.198 59.69888 60.19975 60.70064 61.20152 61.7024 62.20328 62.70416 63.20503 63.7059 64.20679 64.70767 65.20854 65.70941 66.21031 66.71118 67.21205 67.71295 68.21382 68.71469 69.21558 69.71646 70.21733 70.71822 71.2191 71.71997 72.22086 72.72173 73.22261 73.7235 74.22437 74.72523 75.22614 75.727 76.22787 76.72878 77.22964 77.73051 78.2314 78.73228 79.23315 79.73404 80.23492 80.7358 81.23668 81.73755 82.23843 82.73932 83.24019 83.74106 84.24196 84.74283 85.2437 85.7446 86.24547 86.74634 87.24722 87.74811 88.24898 88.74986 89.25075 89.75162 90.2525 90.75337 91.25426 91.75514 92.25601 92.75688 93.25778 93.75865 94.25952 94.76042 95.26129 95.76216 96.26305 96.76393 97.2648 97.76569 98.26656 98.76744 99.26833 99.7692 100.27008 100.77095 101.27184 101.7727 102.27359 102.77448 103.27534 103.77623 104.27711 104.77798 105.27885 105.77975 106.28062"/>
<path transform="matrix(1.00002,0,0,-1.00008,19.649758,27.312905)" stroke-width="1.19553" stroke-linecap="butt" stroke-miterlimit="10" stroke-linejoin="miter" fill="none" stroke="#009900" d="M56.69362 0H57.19449 57.69536 58.19624 58.69713 59.198 59.69888 60.19975 60.70064 61.20152 61.7024 62.20328 62.70416 63.20503 63.7059 64.20679 64.70767 65.20854 65.70941 66.21031 66.71118 67.21205 67.71295 68.21382 68.71469 69.21558 69.71646 70.21733 70.71822 71.2191 71.71997 72.22086 72.72173 73.22261 73.7235 74.22437 74.72523 75.22614 75.727 76.22787 76.72878 77.22964 77.73051 78.2314 78.73228 79.23315 79.73404 80.23492 80.7358 81.23668 81.73755 82.23843 82.73932 83.24019 83.74106 84.24196 84.74283 85.2437 85.7446 86.24547 86.74634 87.24722 87.74811 88.24898 88.74986 89.25075 89.75162 90.2525 90.75337 91.25426 91.75514 92.25601 92.75688 93.25778 93.75865 94.25952 94.76042 95.26129 95.76216 96.26305 96.76393 97.2648 97.76569 98.26656 98.76744 99.26833 99.7692 100.27008 100.77095 101.27184 101.7727 102.27359 102.77448 103.27534 103.77623 104.27711 104.77798 105.27885 105.77975 105.3242"/>
<path transform="matrix(1.00002,0,0,-1.00008,124.97607,27.312905)" stroke-width=".9564" stroke-linecap="round" stroke-linejoin="round" fill="none" stroke="#009900" d="M-1.91284 2.55046C-1.75343 1.59402 0 .15938 .4782 0 0-.15938-1.75343-1.59402-1.91284-2.55046"/>
<path transform="matrix(1.00002,0,0,-1.00008,19.649758,27.312905)" stroke-width=".79701" stroke-linecap="butt" stroke-miterlimit="10" stroke-linejoin="miter" fill="none" stroke="#009900" d="M15.6678 0C15.6678 .82533 14.99873 1.49442 14.17339 1.49442 13.34804 1.49442 12.67897 .82533 12.67897 0 12.67897-.82533 13.34804-1.49442 14.17339-1.49442 14.99873-1.49442 15.6678-.82533 15.6678 0ZM14.17339 0"/>
<path transform="matrix(1.00002,0,0,-1.00008,19.649758,27.312905)" d="M15.6678 14.17339C15.6678 14.99873 14.99873 15.6678 14.17339 15.6678 13.34804 15.6678 12.67897 14.99873 12.67897 14.17339 12.67897 13.34804 13.34804 12.67897 14.17339 12.67897 14.99873 12.67897 15.6678 13.34804 15.6678 14.17339ZM14.17339 14.17339" fill="#009900"/>
<path transform="matrix(1.00002,0,0,-1.00008,19.649758,27.312905)" stroke-width=".79701" stroke-linecap="butt" stroke-miterlimit="10" stroke-linejoin="miter" fill="none" stroke="#009900" d="M58.18803 14.17339C58.18803 14.99873 57.51895 15.6678 56.69362 15.6678 55.86827 15.6678 55.1992 14.99873 55.1992 14.17339 55.1992 13.34804 55.86827 12.67897 56.69362 12.67897 57.51895 12.67897 58.18803 13.34804 58.18803 14.17339ZM56.69362 14.17339"/>
<path transform="matrix(1.00002,0,0,-1.00008,19.649758,27.312905)" d="M58.18803 0C58.18803 .82533 57.51895 1.49442 56.69362 1.49442 55.86827 1.49442 55.1992 .82533 55.1992 0 55.1992-.82533 55.86827-1.49442 56.69362-1.49442 57.51895-1.49442 58.18803-.82533 58.18803 0ZM56.69362 0" fill="#009900"/>
</svg>
