<svg xmlns="http://www.w3.org/2000/svg" xmlns:xlink="http://www.w3.org/1999/xlink" version="1.1" width="74" height="35" viewBox="0 0 74 35">
<defs>
<path id="font_1_1" d="M.42799378 .45222474 .43899537 .49023438H.31199647L.34599305 .6092224 .33399964 .6162262 .23699951 .53923037 .22399903 .49023438H.14299011L.13198853 .45222474H.21499634L.125 .08627319C.10998535 .029266358 .12199402-.01171875 .17199707-.01171875 .2519989-.01171875 .31599427 .054275514 .35598756 .1292572L.33399964 .1462555C.31098939 .10726929 .2599945 .040267946 .22898865 .040267946 .20799256 .040267946 .20799256 .0632782 .21398926 .088272098L.30299378 .45222474H.42799378Z"/>
<path id="font_2_1" d="M.07398987 .2861328V.21612549H.31900025V.2861328H.07398987Z"/>
<path id="font_2_5" d="M.2999878 .17871094V.0769043C.2999878 .04296875 .2889862 .036987306 .2649994 .034988405L.20098877 .0289917V0H.46499635V.0289917L.41999818 .033981325C.39698792 .036987306 .3899994 .04296875 .3899994 .0769043V.17871094H.49299623V.22570801H.3899994V.66796877H.31698609C.22299195 .5298767 .11099243 .35577394 .018997193 .19970703L.027999878 .17871094H.2999878M.09098816 .22570801C.15098572 .33476258 .22099304 .4498291 .2979889 .5709076H.2999878V.22570801H.09098816Z"/>
<path id="font_2_4" d="M.4850006 .13195801 .45700074 .13696289C.43598939 .08299255 .41600038 .07598877 .37599183 .07598877H.11999512C.13598633 .1279602 .19499207 .19892884 .28799439 .2658844 .38398744 .33584596 .45799256 .38082887 .45799256 .49276734 .45799256 .63168337 .3659973 .6796875 .26098634 .6796875 .12399292 .6796875 .052993776 .5967102 .052993776 .54473879 .052993776 .51075747 .09098816 .49476625 .10798645 .49476625 .12599182 .49476625 .1329956 .50476077 .13699341 .5217438 .15299988 .5897064 .19198609 .64468386 .2539978 .64468386 .33099366 .64468386 .35299684 .5797119 .35299684 .50675967 .35299684 .3998108 .29899598 .33984376 .21199036 .26289369 .08898926 .15594483 .04598999 .08798218 .026992798 .009994507L.036987306 0H.45098878L.4850006 .13195801Z"/>
<path id="font_2_3" d="M.43699647 0V.0289917L.35299684 .035995485C.33198548 .037994386 .31999208 .04598999 .31999208 .08496094V.67367556L.31498719 .6796875 .10899353 .6446991V.6197052L.20199585 .6087036C.21899414 .6067047 .22599793 .5987091 .22599793 .56973269V.08496094C.22599793 .065979007 .22299195 .053985597 .21699524 .04698181 .21199036 .039993287 .20399475 .036987306 .19299317 .035995485L.10899353 .0289917V0H.43699647Z"/>
<path id="font_2_2" d="M.1329956-.01171875C.17199707-.01171875 .19499207 .015274048 .19599915 .05126953 .19599915 .088272098 .17199707 .11627197 .1329956 .11627197 .09498596 .11627197 .069992069 .088272098 .069992069 .05126953 .069992069 .015274048 .09498596-.01171875 .1329956-.01171875Z"/>
<path id="font_2_6" d="M.42599488 .5919647 .44999696 .6599579 .44499208 .66796877H.11099243L.100997928 .65896609 .08099365 .32388307 .10499573 .31188966C.14698792 .35983277 .18798828 .3828125 .24198914 .3828125 .30599977 .3828125 .37599183 .3358612 .37599183 .20404053 .37599183 .10116577 .33399964 .023269654 .24699402 .023269654 .1769867 .023269654 .14099121 .07420349 .12098694 .13113404 .115997318 .14611817 .10699463 .15510559 .09298706 .15510559 .07299805 .15510559 .039993287 .13513184 .039993287 .10217285 .039993287 .056228639 .10998535-.01171875 .23999024-.01171875 .40499879-.01171875 .47999574 .0881958 .47999574 .21502686 .47999574 .35484315 .3919983 .4268036 .272995 .4268036 .21798706 .4268036 .15899658 .4028015 .1269989 .3738098L.125 .37580873 .147995 .56292727C.15098572 .58795168 .1579895 .5919647 .1769867 .5919647H.42599488Z"/>
<path id="font_2_8" d="M.3809967 .6720276C.5589905 .6720276 .59999087 .4931183 .60198977 .3461914 .59999087 .19924927 .5589905 .020339966 .3809967 .020339966 .20298767 .020339966 .1619873 .19924927 .1599884 .3461914 .1619873 .4931183 .20298767 .6720276 .3809967 .6720276M.3809967 .70703127C.2709961 .70703127 .18899536 .6730194 .1329956 .61006167 .07899475 .55007937 .04798889 .4591217 .04798889 .3461914 .04798889 .23423767 .07899475 .14228821 .1329956 .08232117 .18899536 .019348145 .2709961-.0146484379 .3809967-.0146484379 .49198915-.0146484379 .57299807 .019348145 .6289978 .08232117 .6839905 .14228821 .71398928 .23423767 .71398928 .3461914 .71398928 .4591217 .6839905 .55007937 .6289978 .61006167 .57299807 .6730194 .49198915 .70703127 .3809967 .70703127Z"/>
<path id="font_2_7" d="M.034988405 .6923828V.66337588C.12298584 .6573639 .125 .655365 .125 .5993347V.093048099C.125 .037002565 .12298584 .035003663 .034988405 .0289917V0H.32998658V.0289917C.22698975 .035003663 .22399903 .037002565 .22399903 .093048099V.32722474H.3639984C.44898988 .32722474 .45298768 .3032074 .46199037 .23916626H.49198915V.4532776H.46199037C.45298768 .38923646 .44898988 .36523438 .3639984 .36523438H.22399903V.62135317C.22399903 .65437319 .22799683 .65737918 .26098634 .65737918H.3600006C.47599793 .65737918 .49899293 .6343689 .5130005 .5323181H.54299929V.6923828H.034988405Z"/>
</defs>
<path transform="matrix(1,0,0,-1.00003,32.976999,23.059212)" d="M14.17339-10.63004V21.2601H38.97685V-10.63004ZM38.97685 21.2601" fill="#dfbfbf"/>
<path transform="matrix(1,0,0,-1.00003,32.976999,23.059212)" stroke-width=".3985" stroke-linecap="butt" stroke-miterlimit="10" stroke-linejoin="miter" fill="none" stroke="#000000" d="M-31.89014 0H38.51857"/>
<path transform="matrix(1,0,0,-1.00003,71.49557,23.059212)" stroke-width=".31879" stroke-linecap="round" stroke-linejoin="round" fill="none" stroke="#000000" d="M-1.19551 1.59401C-1.09587 .99626 0 .09961 .29886 0 0-.09961-1.09587-.99626-1.19551-1.59401"/>
<path transform="matrix(1,0,0,-1.00003,32.976999,23.059212)" stroke-width=".3985" stroke-linecap="butt" stroke-miterlimit="10" stroke-linejoin="miter" fill="none" stroke="#000000" d="M0-10.63004V20.80182"/>
<path transform="matrix(0,-1.00003,-1,-0,32.976999,2.2567654)" stroke-width=".31879" stroke-linecap="round" stroke-linejoin="round" fill="none" stroke="#000000" d="M-1.19551 1.59401C-1.09587 .99626 0 .09961 .29886 0 0-.09961-1.09587-.99626-1.19551-1.59401"/>
<use data-text="t" xlink:href="#font_1_1" transform="matrix(7.3325,0,0,-7.3327205,68.974,30.977452)"/>
<path transform="matrix(1,0,0,-1.00003,32.976999,23.059212)" stroke-width=".79701" stroke-linecap="butt" stroke-miterlimit="10" stroke-linejoin="miter" fill="none" stroke="#929292" d="M-28.3468 1.4173V-1.4173"/>
<use data-text="-" xlink:href="#font_2_1" transform="matrix(5.4994,0,0,-5.499565,2.0929948,30.140423)"/>
<use data-text="4" xlink:href="#font_2_5" transform="matrix(5.4994,0,0,-5.499565,4.2487566,30.140423)"/>
<path transform="matrix(1,0,0,-1.00003,32.976999,23.059212)" stroke-width=".79701" stroke-linecap="butt" stroke-miterlimit="10" stroke-linejoin="miter" fill="none" stroke="#929292" d="M-14.17339 1.4173V-1.4173"/>
<use data-text="-" xlink:href="#font_2_1" transform="matrix(5.4994,0,0,-5.499565,16.265999,30.140423)"/>
<use data-text="2" xlink:href="#font_2_4" transform="matrix(5.4994,0,0,-5.499565,18.42176,30.140423)"/>
<path transform="matrix(1,0,0,-1.00003,32.976999,23.059212)" stroke-width=".79701" stroke-linecap="butt" stroke-miterlimit="10" stroke-linejoin="miter" fill="none" stroke="#929292" d="M14.17339 1.4173V-1.4173"/>
<use data-text="2" xlink:href="#font_2_4" transform="matrix(5.4994,0,0,-5.499565,45.691999,30.140423)"/>
<path transform="matrix(1,0,0,-1.00003,32.976999,23.059212)" stroke-width=".79701" stroke-linecap="butt" stroke-miterlimit="10" stroke-linejoin="miter" fill="none" stroke="#929292" d="M28.3468 1.4173V-1.4173"/>
<use data-text="4" xlink:href="#font_2_5" transform="matrix(5.4994,0,0,-5.499565,59.864999,30.140423)"/>
<path transform="matrix(1,0,0,-1.00003,32.976999,23.059212)" stroke-width=".3985" stroke-linecap="butt" stroke-miterlimit="10" stroke-linejoin="miter" fill="none" stroke="#929292" d="M.7087-7.08669H-.7087"/>
<use data-text="-" xlink:href="#font_2_1" transform="matrix(5.4994,0,0,-5.499565,25.211998,31.98748)"/>
<use data-text="1" xlink:href="#font_2_3" transform="matrix(5.4994,0,0,-5.499565,27.36776,31.98748)"/>
<path transform="matrix(1,0,0,-1.00003,32.976999,23.059212)" stroke-width=".3985" stroke-linecap="butt" stroke-miterlimit="10" stroke-linejoin="miter" fill="none" stroke="#929292" d="M.7087 7.08669H-.7087"/>
<use data-text="1" xlink:href="#font_2_3" transform="matrix(5.4994,0,0,-5.499565,27.369996,17.813054)"/>
<path transform="matrix(1,0,0,-1.00003,32.976999,23.059212)" stroke-width=".3985" stroke-linecap="butt" stroke-miterlimit="10" stroke-linejoin="miter" fill="none" stroke="#929292" d="M.7087 14.17339H-.7087"/>
<use data-text="2" xlink:href="#font_2_4" transform="matrix(5.4994,0,0,-5.499565,27.369996,10.726842)"/>
<path transform="matrix(1,0,0,-1.00003,32.976999,23.059212)" stroke-width="1.19553" stroke-linecap="butt" stroke-miterlimit="10" stroke-linejoin="miter" fill="none" stroke="#000000" d="M-30.93372 0H-31.43068-30.97122-30.51176-30.05229-29.59283-29.13336-28.6739-28.21443-27.75497-27.29552-26.83604-26.37659-25.91711-25.45766-24.99818-24.53874-24.07927-23.61981-23.16034-22.70088-22.24141-21.78195-21.32248-20.86302-20.40355-19.94409-19.48462-19.02516-18.5657-18.10625-17.64679-17.18732-16.72786-16.26839-15.80893-15.34946-14.89-14.43053-13.97107-13.5116-13.05214-12.59267-12.13322-11.67375-11.2143-10.75484-10.29536-9.8359-9.37643-8.91698-8.4575-7.99805-7.53857-7.07912-6.61964-6.16019-5.70073-5.24127-4.7818-4.32234-3.86287-3.40341-2.94394-2.48448-2.02502-1.56555-1.1061-.64662-.18716 .27228 .73172 1.1912 1.65065 2.11012 2.56958 3.02905 3.48851 3.94798 4.40744 4.86691 5.32637 5.78583 6.2453 6.70474 7.16422 7.62367 8.08315 8.5426 9.00208 9.46153 9.921 10.38046 10.83994 11.2994 11.75887 12.21832 12.6778 13.13724 13.59671"/>
<path transform="matrix(-1,-0,0,1.00003,2.0432778,23.059212)" stroke-width=".9564" stroke-linecap="round" stroke-linejoin="round" fill="none" stroke="#000000" d="M-1.91284 2.55046C-1.75343 1.59402 0 .15938 .4782 0 0-.15938-1.75343-1.59402-1.91284-2.55046"/>
<path transform="matrix(1,0,0,-1.00003,32.976999,23.059212)" stroke-width="1.19553" stroke-linecap="butt" stroke-miterlimit="10" stroke-linejoin="miter" fill="none" stroke="#9f4040" d="M14.17339 10.63004H14.42383 14.67427 14.9247 15.17516 15.4256 15.67603 15.92647 16.17691 16.42734 16.67778 16.92824 17.17867 17.42911 17.67955 17.92998 18.18042 18.43086 18.68129 18.93175 19.18219 19.43262 19.68306 19.9335 20.18393 20.43437 20.68483 20.93526 21.1857 21.43614 21.68657 21.93701 22.18745 22.4379 22.68834 22.93878 23.18921 23.43965 23.6901 23.94052 24.19098 24.44142 24.69185 24.94229 25.19273 25.44316 25.6936 25.94405 26.19449 26.44493 26.69536 26.9458 27.19624 27.44667 27.69711 27.94757 28.198 28.44844 28.69888 28.94931 29.19975 29.4502 29.70064 29.95108 30.20152 30.45195 30.7024 30.95284 31.20326 31.45372 31.70416 31.95459 32.20503 32.45547 32.7059 32.95634 33.2068 33.45723 33.70767 33.95811 34.20854 34.45898 34.70943 34.95985 35.21031 35.46075 35.71118 35.96162 36.21207 36.4625 36.71294 36.9634 37.21382 37.46426 37.7147 37.96513 38.21558 38.46602 38.71646 38.01048"/>
<path transform="matrix(1,0,0,-1.00003,70.98747,12.428852)" stroke-width=".9564" stroke-linecap="round" stroke-linejoin="round" fill="none" stroke="#9f4040" d="M-1.91284 2.55046C-1.75343 1.59402 0 .15938 .4782 0 0-.15938-1.75343-1.59402-1.91284-2.55046"/>
<path transform="matrix(1,0,0,-1.00003,32.976999,23.059212)" d="M15.41873 10.63004C15.41873 11.31783 14.86118 11.87538 14.17339 11.87538 13.48561 11.87538 12.92804 11.31783 12.92804 10.63004 12.92804 9.94226 13.48561 9.38469 14.17339 9.38469 14.86118 9.38469 15.41873 9.94226 15.41873 10.63004ZM14.17339 10.63004" fill="#9f4040"/>
<path transform="matrix(1,0,0,-1.00003,32.976999,23.059212)" stroke-width=".79701" stroke-linecap="butt" stroke-miterlimit="10" stroke-linejoin="miter" fill="none" stroke="#000000" d="M15.16966 0C15.16966 .55023 14.72363 .99628 14.17339 .99628 13.62315 .99628 13.17711 .55023 13.17711 0 13.17711-.55023 13.62315-.99628 14.17339-.99628 14.72363-.99628 15.16966-.55023 15.16966 0ZM14.17339 0"/>
<use data-text="1" xlink:href="#font_2_3" transform="matrix(7.3325,0,0,-7.3327205,54.689996,11.308859)" fill="#800000"/>
<use data-text="." xlink:href="#font_2_2" transform="matrix(7.3325,0,0,-7.3327205,58.576219,11.308859)" fill="#800000"/>
<use data-text="5" xlink:href="#font_2_6" transform="matrix(7.3325,0,0,-7.3327205,60.519334,11.308859)" fill="#800000"/>
<use data-text="O" xlink:href="#font_2_8" transform="matrix(5.4994,0,0,-5.499565,11.744995,19.549107)"/>
<use data-text="F" xlink:href="#font_2_7" transform="matrix(5.4994,0,0,-5.499565,15.935539,19.549107)"/>
<use data-text="F" xlink:href="#font_2_7" transform="matrix(5.4994,0,0,-5.499565,19.12519,19.549107)"/>
</svg>
