<svg xmlns="http://www.w3.org/2000/svg" xmlns:xlink="http://www.w3.org/1999/xlink" version="1.1" width="162" height="63" viewBox="0 0 162 63">
<defs>
<path id="font_1_1" d="M.42799378 .45222474 .43899537 .49023438H.31199647L.34599305 .6092224 .33399964 .6162262 .23699951 .53923037 .22399903 .49023438H.14299011L.13198853 .45222474H.21499634L.125 .08627319C.10998535 .029266358 .12199402-.01171875 .17199707-.01171875 .2519989-.01171875 .31599427 .054275514 .35598756 .1292572L.33399964 .1462555C.31098939 .10726929 .2599945 .040267946 .22898865 .040267946 .20799256 .040267946 .20799256 .0632782 .21398926 .088272098L.30299378 .45222474H.42799378Z"/>
<path id="font_1_2" d="M.5329895 .48995973C.5039978 .388031 .48799134 .33506776 .46199037 .2741089 .41799928 .173172 .33099366 .040267946 .24798584 .040267946 .21598816 .040267946 .20799256 .070251468 .22299195 .12820435L.31900025 .4970703 .31399537 .50205996 .13198853 .47375489 .12599182 .4497528 .18798828 .44476319C.21199036 .44276429 .21099854 .42778016 .20298767 .39682008L.13398743 .13316345C.11299133 .053253175 .12098694-.01171875 .20098877-.01171875 .29699708-.01171875 .4019928 .09420776 .46199037 .21005249H.46398927L.43099977 .096206668C.4119873 .029266358 .42399598-.01171875 .47698976-.01171875 .548996-.01171875 .60899356 .057250978 .6439972 .13116455L.6199951 .14613343C.59999087 .11218262 .55599978 .040267946 .5279999 .040267946 .5069885 .040267946 .5069885 .06324768 .5149994 .09420776L.621994 .5019531 .5329895 .48995973Z"/>
<path id="font_2_3" d="M.4850006 .13195801 .45700074 .13696289C.43598939 .08299255 .41600038 .07598877 .37599183 .07598877H.11999512C.13598633 .1279602 .19499207 .19892884 .28799439 .2658844 .38398744 .33584596 .45799256 .38082887 .45799256 .49276734 .45799256 .63168337 .3659973 .6796875 .26098634 .6796875 .12399292 .6796875 .052993776 .5967102 .052993776 .54473879 .052993776 .51075747 .09098816 .49476625 .10798645 .49476625 .12599182 .49476625 .1329956 .50476077 .13699341 .5217438 .15299988 .5897064 .19198609 .64468386 .2539978 .64468386 .33099366 .64468386 .35299684 .5797119 .35299684 .50675967 .35299684 .3998108 .29899598 .33984376 .21199036 .26289369 .08898926 .15594483 .04598999 .08798218 .026992798 .009994507L.036987306 0H.45098878L.4850006 .13195801Z"/>
<path id="font_2_1" d="M.1749878 .2822113C.1749878 .56832888 .2619934 .65437319 .32499696 .66737368V.6923828C.1499939 .685379 .10499573 .46829225 .10499573 .2822113 .10499573 .09614563 .1499939-.12094116 .32499696-.12792969V-.10293579C.2669983-.090927127 .1749878-.0059051516 .1749878 .2822113Z"/>
<path id="font_2_2" d="M.1749878 .2822113C.1749878-.0059051516 .08299255-.090927127 .024993897-.10293579V-.12792969C.19999695-.12094116 .24499512 .09614563 .24499512 .2822113 .24499512 .46829225 .19999695 .685379 .024993897 .6923828V.66737368C.08799744 .65437319 .1749878 .56832888 .1749878 .2822113Z"/>
<path id="font_2_4" d="M.42599488 .5919647 .44999696 .6599579 .44499208 .66796877H.11099243L.100997928 .65896609 .08099365 .32388307 .10499573 .31188966C.14698792 .35983277 .18798828 .3828125 .24198914 .3828125 .30599977 .3828125 .37599183 .3358612 .37599183 .20404053 .37599183 .10116577 .33399964 .023269654 .24699402 .023269654 .1769867 .023269654 .14099121 .07420349 .12098694 .13113404 .115997318 .14611817 .10699463 .15510559 .09298706 .15510559 .07299805 .15510559 .039993287 .13513184 .039993287 .10217285 .039993287 .056228639 .10998535-.01171875 .23999024-.01171875 .40499879-.01171875 .47999574 .0881958 .47999574 .21502686 .47999574 .35484315 .3919983 .4268036 .272995 .4268036 .21798706 .4268036 .15899658 .4028015 .1269989 .3738098L.125 .37580873 .147995 .56292727C.15098572 .58795168 .1579895 .5919647 .1769867 .5919647H.42599488Z"/>
<path id="font_3_2" d="M.2809906 .63368228C.36299134 .63368228 .37199403 .44786073 .37199403 .33396913 .37199403 .22009278 .36299134 .03427124 .2809906 .03427124 .19799805 .03427124 .18899536 .22009278 .18899536 .33396913 .18899536 .44786073 .19799805 .63368228 .2809906 .63368228M.2809906 .6796875C.09098816 .6796875 .0309906 .51878359 .0309906 .33396913 .0309906 .15315247 .09199524-.01171875 .2809906-.01171875 .47099305-.01171875 .5299988 .15016175 .5299988 .33396913 .5299988 .5167999 .46798707 .6796875 .2809906 .6796875Z"/>
<path id="font_3_1" d="M.06498718 .29811097V.203125H.32798768V.29811097H.06498718Z"/>
<path id="font_3_3" d="M.45899964 0V.037994386L.3909912 .04399109C.36698915 .04598999 .35598756 .052993776 .35598756 .0849762V.671875L.34700013 .6798706 .10798645 .6408844V.60987856L.16999817 .5968933C.19599915 .5918884 .20498657 .58288577 .20498657 .54689028V.084991458C.20498657 .052993776 .19400025 .04598999 .16999817 .04399109L.101989749 .037994386V0H.45899964Z"/>
</defs>
<path transform="matrix(1.00006,0,0,-1.00003,10.381638,37.849687)" stroke-width=".79701" stroke-linecap="butt" stroke-miterlimit="10" stroke-linejoin="miter" fill="none" stroke="#000000" d="M-9.2126 0H146.69464"/>
<path transform="matrix(1.00006,0,0,-1.00003,157.08507,37.849687)" stroke-width=".6376" stroke-linecap="round" stroke-linejoin="round" fill="none" stroke="#000000" d="M-1.55415 2.0722C-1.42464 1.29512 0 .1295 .38852 0 0-.1295-1.42464-1.29512-1.55415-2.0722"/>
<use data-text="t" xlink:href="#font_1_1" transform="matrix(10.037002,0,0,-10.036701,155.65537,47.63398)"/>
<path transform="matrix(1.00006,0,0,-1.00003,10.381638,37.849687)" stroke-width=".79701" stroke-linecap="butt" stroke-miterlimit="10" stroke-linejoin="miter" fill="none" stroke="#000000" d="M0-23.95287V36.14313"/>
<path transform="matrix(0,-1.00003,-1.00006,-0,10.381638,1.7054672)" stroke-width=".6376" stroke-linecap="round" stroke-linejoin="round" fill="none" stroke="#000000" d="M-1.55415 2.0722C-1.42464 1.29512 0 .1295 .38852 0 0-.1295-1.42464-1.29512-1.55415-2.0722"/>
<path transform="matrix(1.00006,0,0,-1.00003,10.381638,37.849687)" stroke-width="1.98427" stroke-linecap="butt" stroke-miterlimit="10" stroke-linejoin="miter" fill="none" stroke="#ff8000" d="M-9.2126 0H36.85048"/>
<path transform="matrix(1.00006,0,0,-1.00003,10.381638,37.849687)" stroke-width=".79701" stroke-linecap="butt" stroke-dasharray=".79701,.99628" stroke-miterlimit="10" stroke-linejoin="miter" fill="none" stroke="#ff8000" d="M36.85048 0V18.42523"/>
<path transform="matrix(1.00006,0,0,-1.00003,10.381638,37.849687)" stroke-width="1.98427" stroke-linecap="butt" stroke-miterlimit="10" stroke-linejoin="miter" fill="none" stroke="#ff8000" d="M36.85048 18.42523H147.40201"/>
<path transform="matrix(1.00006,0,0,-1.00003,10.381638,37.849687)" stroke-width=".3985" stroke-linecap="butt" stroke-miterlimit="10" stroke-linejoin="miter" fill="none" stroke="#ff8000" d="M64.48837 18.42523"/>
<use data-text="u" xlink:href="#font_1_2" transform="matrix(10.037002,0,0,-10.036701,63.46982,14.3879799)" fill="#ff8000"/>
<use data-text="2" xlink:href="#font_2_3" transform="matrix(7.6079566,0,0,-7.6077287,70.00522,16.025029)" fill="#ff8000"/>
<use data-text="(" xlink:href="#font_2_1" transform="matrix(10.037002,0,0,-10.036701,74.53848,14.3879799)" fill="#ff8000"/>
<use data-text="t" xlink:href="#font_1_1" transform="matrix(10.037002,0,0,-10.036701,78.26971,14.3879799)" fill="#ff8000"/>
<use data-text=")" xlink:href="#font_2_2" transform="matrix(10.037002,0,0,-10.036701,82.764987,14.3879799)" fill="#ff8000"/>
<path transform="matrix(1.00006,0,0,-1.00003,10.381638,37.849687)" stroke-width="2.5512" stroke-linecap="butt" stroke-dasharray="2.5512,3.9851" stroke-miterlimit="10" stroke-linejoin="miter" fill="none" stroke="#0000ff" d="M-9.2126 0H92.12625"/>
<path transform="matrix(1.00006,0,0,-1.00003,10.381638,37.849687)" stroke-width=".79701" stroke-linecap="butt" stroke-dasharray=".79701,.99628" stroke-miterlimit="10" stroke-linejoin="miter" fill="none" stroke="#0000ff" d="M92.12625 0V18.42523"/>
<path transform="matrix(1.00006,0,0,-1.00003,10.381638,37.849687)" stroke-width="2.5512" stroke-linecap="butt" stroke-dasharray="2.5512,3.9851" stroke-miterlimit="10" stroke-linejoin="miter" fill="none" stroke="#0000ff" d="M92.12625 18.42523H147.40201"/>
<path transform="matrix(1.00006,0,0,-1.00003,10.381638,37.849687)" stroke-width=".3985" stroke-linecap="butt" stroke-miterlimit="10" stroke-linejoin="miter" fill="none" stroke="#0000ff" d="M119.76413 18.42523"/>
<use data-text="u" xlink:href="#font_1_2" transform="matrix(10.037002,0,0,-10.036701,118.74914,14.346979)" fill="#0000ff"/>
<use data-text="5" xlink:href="#font_2_4" transform="matrix(7.6079566,0,0,-7.6077287,125.28454,15.984028)" fill="#0000ff"/>
<use data-text="(" xlink:href="#font_2_1" transform="matrix(10.037002,0,0,-10.036701,129.81781,14.346979)" fill="#0000ff"/>
<use data-text="t" xlink:href="#font_1_1" transform="matrix(10.037002,0,0,-10.036701,133.54903,14.346979)" fill="#0000ff"/>
<use data-text=")" xlink:href="#font_2_2" transform="matrix(10.037002,0,0,-10.036701,138.04431,14.346979)" fill="#0000ff"/>
<path transform="matrix(1.00006,0,0,-1.00003,10.381638,37.849687)" d="M39.43 0C39.43 1.42462 38.2751 2.5795 36.85048 2.5795 35.42586 2.5795 34.27098 1.42462 34.27098 0 34.27098-1.42462 35.42586-2.5795 36.85048-2.5795 38.2751-2.5795 39.43-1.42462 39.43 0ZM36.85048 0" fill="#ffffff"/>
<path transform="matrix(1.00006,0,0,-1.00003,10.381638,37.849687)" stroke-width="1.13385" stroke-linecap="butt" stroke-miterlimit="10" stroke-linejoin="miter" fill="none" stroke="#ff8000" d="M39.43 0C39.43 1.42462 38.2751 2.5795 36.85048 2.5795 35.42586 2.5795 34.27098 1.42462 34.27098 0 34.27098-1.42462 35.42586-2.5795 36.85048-2.5795 38.2751-2.5795 39.43-1.42462 39.43 0ZM36.85048 0"/>
<use data-text="2" xlink:href="#font_2_3" transform="matrix(10.037002,0,0,-10.036701,44.572687,48.336999)"/>
<path transform="matrix(1.00006,0,0,-1.00003,10.381638,37.849687)" d="M39.43 18.42523C39.43 19.84985 38.2751 21.00473 36.85048 21.00473 35.42586 21.00473 34.27098 19.84985 34.27098 18.42523 34.27098 17.00061 35.42586 15.84573 36.85048 15.84573 38.2751 15.84573 39.43 17.00061 39.43 18.42523ZM36.85048 18.42523" fill="#ff8000"/>
<path transform="matrix(1.00006,0,0,-1.00003,10.381638,37.849687)" stroke-width="1.13385" stroke-linecap="butt" stroke-miterlimit="10" stroke-linejoin="miter" fill="none" stroke="#ff8000" d="M39.43 18.42523C39.43 19.84985 38.2751 21.00473 36.85048 21.00473 35.42586 21.00473 34.27098 19.84985 34.27098 18.42523 34.27098 17.00061 35.42586 15.84573 36.85048 15.84573 38.2751 15.84573 39.43 17.00061 39.43 18.42523ZM36.85048 18.42523"/>
<path transform="matrix(1.00006,0,0,-1.00003,10.381638,37.849687)" d="M94.70575 0C94.70575 1.42462 93.55087 2.5795 92.12625 2.5795 90.70163 2.5795 89.54674 1.42462 89.54674 0 89.54674-1.42462 90.70163-2.5795 92.12625-2.5795 93.55087-2.5795 94.70575-1.42462 94.70575 0ZM92.12625 0" fill="#ffffff"/>
<path transform="matrix(1.00006,0,0,-1.00003,10.381638,37.849687)" stroke-width="1.13385" stroke-linecap="butt" stroke-miterlimit="10" stroke-linejoin="miter" fill="none" stroke="#0000ff" d="M94.70575 0C94.70575 1.42462 93.55087 2.5795 92.12625 2.5795 90.70163 2.5795 89.54674 1.42462 89.54674 0 89.54674-1.42462 90.70163-2.5795 92.12625-2.5795 93.55087-2.5795 94.70575-1.42462 94.70575 0ZM92.12625 0"/>
<use data-text="5" xlink:href="#font_2_4" transform="matrix(10.037002,0,0,-10.036701,99.851,48.336999)"/>
<path transform="matrix(1.00006,0,0,-1.00003,10.381638,37.849687)" d="M94.70575 18.42523C94.70575 19.84985 93.55087 21.00473 92.12625 21.00473 90.70163 21.00473 89.54674 19.84985 89.54674 18.42523 89.54674 17.00061 90.70163 15.84573 92.12625 15.84573 93.55087 15.84573 94.70575 17.00061 94.70575 18.42523ZM92.12625 18.42523" fill="#0000ff"/>
<path transform="matrix(1.00006,0,0,-1.00003,10.381638,37.849687)" stroke-width="1.13385" stroke-linecap="butt" stroke-miterlimit="10" stroke-linejoin="miter" fill="none" stroke="#0000ff" d="M94.70575 18.42523C94.70575 19.84985 93.55087 21.00473 92.12625 21.00473 90.70163 21.00473 89.54674 19.84985 89.54674 18.42523 89.54674 17.00061 90.70163 15.84573 92.12625 15.84573 93.55087 15.84573 94.70575 17.00061 94.70575 18.42523ZM92.12625 18.42523"/>
<path transform="matrix(1.00006,0,0,-1.00003,10.381638,37.849687)" stroke-width=".3985" stroke-linecap="butt" stroke-miterlimit="10" stroke-linejoin="miter" fill="none" stroke="#ff8000" d="M6.44893-12.8976"/>
<use data-text="0" xlink:href="#font_3_2" transform="matrix(10.037002,0,0,-10.036701,14.021854,54.146177)" fill="#ff8000"/>
<path transform="matrix(1.00006,0,0,-1.00003,10.381638,37.849687)" stroke-width=".3985" stroke-linecap="butt" stroke-miterlimit="10" stroke-linejoin="miter" fill="none" stroke="#000000" d="M13.81892-11.05524"/>
<use data-text="-" xlink:href="#font_3_1" transform="matrix(10.037002,0,0,-10.036701,22.23235,50.386064)"/>
<path transform="matrix(1.00006,0,0,-1.00003,10.381638,37.849687)" stroke-width=".3985" stroke-linecap="butt" stroke-miterlimit="10" stroke-linejoin="miter" fill="none" stroke="#0000ff" d="M21.1889-12.8976"/>
<use data-text="0" xlink:href="#font_3_2" transform="matrix(10.037002,0,0,-10.036701,28.762742,54.146177)" fill="#0000ff"/>
<path transform="matrix(1.00006,0,0,-1.00003,10.381638,37.849687)" stroke-width=".3985" stroke-linecap="butt" stroke-miterlimit="10" stroke-linejoin="miter" fill="none" stroke="#ff8000" d="M57.1184-12.8976"/>
<use data-text="1" xlink:href="#font_3_3" transform="matrix(10.037002,0,0,-10.036701,64.69389,54.162179)" fill="#ff8000"/>
<path transform="matrix(1.00006,0,0,-1.00003,10.381638,37.849687)" stroke-width=".3985" stroke-linecap="butt" stroke-miterlimit="10" stroke-linejoin="miter" fill="none" stroke="#000000" d="M64.48837-12.8976"/>
<use data-text="-" xlink:href="#font_3_1" transform="matrix(10.037002,0,0,-10.036701,72.90439,52.22912)"/>
<path transform="matrix(1.00006,0,0,-1.00003,10.381638,37.849687)" stroke-width=".3985" stroke-linecap="butt" stroke-miterlimit="10" stroke-linejoin="miter" fill="none" stroke="#0000ff" d="M71.85837-12.8976"/>
<use data-text="0" xlink:href="#font_3_2" transform="matrix(10.037002,0,0,-10.036701,79.434787,54.146177)" fill="#0000ff"/>
<path transform="matrix(1.00006,0,0,-1.00003,10.381638,37.849687)" stroke-width=".3985" stroke-linecap="butt" stroke-miterlimit="10" stroke-linejoin="miter" fill="none" stroke="#ff8000" d="M112.39415-12.8976"/>
<use data-text="1" xlink:href="#font_3_3" transform="matrix(10.037002,0,0,-10.036701,119.973209,54.162179)" fill="#ff8000"/>
<path transform="matrix(1.00006,0,0,-1.00003,10.381638,37.849687)" stroke-width=".3985" stroke-linecap="butt" stroke-miterlimit="10" stroke-linejoin="miter" fill="none" stroke="#000000" d="M119.76413-14.74023"/>
<use data-text="-" xlink:href="#font_3_1" transform="matrix(10.037002,0,0,-10.036701,128.1837,54.071176)"/>
<path transform="matrix(1.00006,0,0,-1.00003,10.381638,37.849687)" stroke-width=".3985" stroke-linecap="butt" stroke-miterlimit="10" stroke-linejoin="miter" fill="none" stroke="#0000ff" d="M127.13411-12.8976"/>
<use data-text="1" xlink:href="#font_3_3" transform="matrix(10.037002,0,0,-10.036701,134.71408,54.162179)" fill="#0000ff"/>
</svg>
