<svg xmlns="http://www.w3.org/2000/svg" xmlns:xlink="http://www.w3.org/1999/xlink" version="1.1" width="63" height="75" viewBox="0 0 63 75">
<defs>
<path id="font_1_1" d="M.6349945 .2529297V.31092835H.084991458V.2529297H.6349945Z"/>
<path id="font_2_1" d="M.4850006 .13195801 .45700074 .13696289C.43598939 .08299255 .41600038 .07598877 .37599183 .07598877H.11999512C.13598633 .1279602 .19499207 .19892884 .28799439 .2658844 .38398744 .33584596 .45799256 .38082887 .45799256 .49276734 .45799256 .63168337 .3659973 .6796875 .26098634 .6796875 .12399292 .6796875 .052993776 .5967102 .052993776 .54473879 .052993776 .51075747 .09098816 .49476625 .10798645 .49476625 .12599182 .49476625 .1329956 .50476077 .13699341 .5217438 .15299988 .5897064 .19198609 .64468386 .2539978 .64468386 .33099366 .64468386 .35299684 .5797119 .35299684 .50675967 .35299684 .3998108 .29899598 .33984376 .21199036 .26289369 .08898926 .15594483 .04598999 .08798218 .026992798 .009994507L.036987306 0H.45098878L.4850006 .13195801Z"/>
<path id="font_2_2" d="M.2999878 .17871094V.0769043C.2999878 .04296875 .2889862 .036987306 .2649994 .034988405L.20098877 .0289917V0H.46499635V.0289917L.41999818 .033981325C.39698792 .036987306 .3899994 .04296875 .3899994 .0769043V.17871094H.49299623V.22570801H.3899994V.66796877H.31698609C.22299195 .5298767 .11099243 .35577394 .018997193 .19970703L.027999878 .17871094H.2999878M.09098816 .22570801C.15098572 .33476258 .22099304 .4498291 .2979889 .5709076H.2999878V.22570801H.09098816Z"/>
<clipPath id="clip_3">
<path transform="matrix(1.00006,0,0,-1.00002,4.279457,71.78612)" d="M0 0H57.12827V68.55484H0Z"/>
</clipPath>
<path id="font_4_1" d="M.42799378 .45222474 .43899537 .49023438H.31199647L.34599305 .6092224 .33399964 .6162262 .23699951 .53923037 .22399903 .49023438H.14299011L.13198853 .45222474H.21499634L.125 .08627319C.10998535 .029266358 .12199402-.01171875 .17199707-.01171875 .2519989-.01171875 .31599427 .054275514 .35598756 .1292572L.33399964 .1462555C.31098939 .10726929 .2599945 .040267946 .22898865 .040267946 .20799256 .040267946 .20799256 .0632782 .21398926 .088272098L.30299378 .45222474H.42799378Z"/>
<path id="font_4_2" d="M.070999149 .45393373 .07398987 .42893983 .14199829 .43093873C.1639862 .43193055 .16899109 .41493226 .1769867 .36291505 .18798828 .28489686 .20999146 .09286499 .20999146 .0128479 .20999146-.017166138 .20799256-.058166505 .18598938-.11117554 .16799927-.15318299 .14199829-.18218994 .12199402-.18218994 .10699463-.18218994 .09599304-.17118836 .08099365-.15118408 .068984989-.13517761 .06098938-.127182 .04598999-.127182 .019989014-.12818909-.005004883-.15818787-.005004883-.18719483-.005004883-.21418762 .023986817-.2421875 .067993167-.2421875 .15299988-.2421875 .18998719-.17919922 .27799989-.027160645 .2979889 .0068511965 .35798646 .11286926 .41999818 .21488953 .47698976 .30891419 .5399933 .40592958 .5399933 .4459381 .5399933 .48094178 .5289917 .5019531 .5219879 .5019531 .5029907 .5019531 .46899415 .49394227 .44400025 .47694398 .44499208 .4419403 .44299317 .3809204 .43099977 .33891297 .4149933 .28289796 .35598756 .17488098 .2899933 .06085205H.2869873C.27999879 .21388245 .26098634 .42492677 .24699402 .49795533L.23899842 .5019531 .070999149 .45393373Z"/>
</defs>
<path transform="matrix(1.00006,0,0,-1.00002,4.279457,71.78612)" stroke-width=".19925" stroke-linecap="butt" stroke-miterlimit="10" stroke-linejoin="miter" fill="none" stroke="#929292" d="M17.13847 12.29358V15.12834M39.98979 12.29358V15.12834"/>
<path transform="matrix(1.00006,0,0,-1.00002,4.279457,71.78612)" stroke-width=".19925" stroke-linecap="butt" stroke-miterlimit="10" stroke-linejoin="miter" fill="none" stroke="#929292" d="M5.71281 11.5851V15.8368M51.41544 11.5851V15.8368"/>
<path transform="matrix(1.00006,0,0,-1.00002,4.279457,71.78612)" stroke-width=".19925" stroke-linecap="butt" stroke-miterlimit="10" stroke-linejoin="miter" fill="none" stroke="#929292" d="M27.1465 2.28516H29.98177M27.1465 25.13676H29.98177M27.1465 47.98839H29.98177"/>
<path transform="matrix(1.00006,0,0,-1.00002,4.279457,71.78612)" stroke-width=".19925" stroke-linecap="butt" stroke-miterlimit="10" stroke-linejoin="miter" fill="none" stroke="#929292" d="M26.4379 36.56258H30.69035M26.4379 59.41418H30.69035"/>
<path transform="matrix(1.00006,0,0,-1.00002,4.279457,71.78612)" stroke-width=".3985" stroke-linecap="butt" stroke-miterlimit="10" stroke-linejoin="miter" fill="none" stroke="#000000" d="M0 13.71097H55.13574"/>
<path transform="matrix(1.00006,0,0,-1.00002,59.418504,58.074876)" d="M1.99252 0-1.19551 1.59401 0 0-1.19551-1.59401"/>
<path transform="matrix(1.00006,0,0,-1.00002,4.279457,71.78612)" stroke-width=".3985" stroke-linecap="butt" stroke-miterlimit="10" stroke-linejoin="miter" fill="none" stroke="#000000" d="M28.56413 0V66.56232"/>
<path transform="matrix(0,-1.00002,-1.00006,-0,32.8453,5.2224657)" d="M1.99252 0-1.19551 1.59401 0 0-1.19551-1.59401"/>
<use data-text="&#x2212;" xlink:href="#font_1_1" transform="matrix(15.839149,0,0,-15.838517,.09320831,74.20517)"/>
<use data-text="2" xlink:href="#font_2_1" transform="matrix(15.839149,0,0,-15.838517,11.489891,74.20517)"/>
<use data-text="2" xlink:href="#font_2_1" transform="matrix(15.839149,0,0,-15.838517,51.497289,74.20517)"/>
<use data-text="2" xlink:href="#font_2_1" transform="matrix(15.839149,0,0,-15.838517,18.918335,40.52549)"/>
<use data-text="4" xlink:href="#font_2_2" transform="matrix(15.839149,0,0,-15.838517,18.918335,17.673035)"/>
<g clip-path="url(#clip_3)">
<path transform="matrix(1.00006,0,0,-1.00002,4.279457,71.78612)" stroke-width="1.59404" stroke-linecap="butt" stroke-miterlimit="10" stroke-linejoin="miter" fill="none" stroke="#0000ff" d="M29.40979 25.9958 28.9372 25.51575 29.31027 25.90765 29.68333 26.31236 30.0564 26.73044 30.42947 27.16255 30.80255 27.60909 31.17561 28.07022 31.54868 28.5468 31.92174 29.03946 32.29482 29.54826 32.66791 30.07362 33.04097 30.61635 33.41405 31.17758 33.78711 31.75734 34.16017 32.35616 34.53325 32.97487 34.90633 33.61436 35.27939 34.27512 35.65245 34.95735 36.02551 35.66255 36.3986 36.39107 36.77168 37.1438 37.14474 37.92155 37.5178 38.72478 37.89088 39.55522 38.26395 40.41307 38.63702 41.29948 39.01009 42.21548 39.38315 43.16063 39.75623 44.1381 40.1293 45.14825 40.50238 46.1919 40.87546 47.2697 41.24852 48.38359 41.62158 49.5337 41.99466 50.72314 42.36772 51.952 42.7408 53.2206 43.11388 54.53194 43.48692 55.88669 43.86002 57.2867 44.23308 58.7332 44.60616 60.22655 44.97923 61.77098 45.35228 63.36534 45.72536 65.01443 46.09842 66.71619 46.4715 68.47519 46.6023 69.11243"/>
<path transform="matrix(-.7015421,.71261426,.7126427,.70151409,33.69102,45.78978)" stroke-width="1.27522" stroke-linecap="round" stroke-linejoin="round" fill="none" stroke="#0000ff" d="M-2.27148 3.02866C-2.0822 1.8929 0 .18927 .56786 0 0-.18927-2.0822-1.8929-2.27148-3.02866"/>
<path transform="matrix(.20100206,-.9795596,-.9795987,-.20099403,50.884553,2.6723099)" stroke-width="1.27522" stroke-linecap="round" stroke-linejoin="round" fill="none" stroke="#0000ff" d="M-2.27148 3.02866C-2.0822 1.8929 0 .18927 .56786 0 0-.18927-2.0822-1.8929-2.27148-3.02866"/>
</g>
<path transform="matrix(1.00006,0,0,-1.00002,4.279457,71.78612)" stroke-width=".3985" stroke-linecap="butt" stroke-miterlimit="10" stroke-linejoin="miter" fill="none" stroke="#000000" d="M30.55669 25.13676C30.55669 26.23724 29.6646 27.12932 28.56413 27.12932 27.46365 27.12932 26.57158 26.23724 26.57158 25.13676 26.57158 24.0363 27.46365 23.14421 28.56413 23.14421 29.6646 23.14421 30.55669 24.0363 30.55669 25.13676ZM28.56413 25.13676"/>
<path transform="matrix(1.00006,0,0,-1.00002,4.279457,71.78612)" stroke-width=".3985" stroke-linecap="butt" stroke-miterlimit="10" stroke-linejoin="miter" fill="none" stroke="#000000" d="M33.41309 27.99323C33.41309 29.09369 32.52101 29.98578 31.42053 29.98578 30.32007 29.98578 29.42798 29.09369 29.42798 27.99323 29.42798 26.89275 30.32007 26.00067 31.42053 26.00067 32.52101 26.00067 33.41309 26.89275 33.41309 27.99323ZM31.42053 27.99323"/>
<path transform="matrix(1.00006,0,0,-1.00002,4.279457,71.78612)" stroke-width=".3985" stroke-linecap="butt" stroke-miterlimit="10" stroke-linejoin="miter" fill="none" stroke="#000000" d="M36.26952 31.56378C36.26952 32.66426 35.37743 33.55634 34.27696 33.55634 33.17648 33.55634 32.28441 32.66426 32.28441 31.56378 32.28441 30.46332 33.17648 29.57123 34.27696 29.57123 35.37743 29.57123 36.26952 30.46332 36.26952 31.56378ZM34.27696 31.56378"/>
<path transform="matrix(1.00006,0,0,-1.00002,4.279457,71.78612)" stroke-width=".3985" stroke-linecap="butt" stroke-miterlimit="10" stroke-linejoin="miter" fill="none" stroke="#000000" d="M39.12592 36.02698C39.12592 37.12746 38.23384 38.01953 37.13336 38.01953 36.0329 38.01953 35.14081 37.12746 35.14081 36.02698 35.14081 34.92651 36.0329 34.03442 37.13336 34.03442 38.23384 34.03442 39.12592 34.92651 39.12592 36.02698ZM37.13336 36.02698"/>
<path transform="matrix(1.00006,0,0,-1.00002,4.279457,71.78612)" stroke-width=".3985" stroke-linecap="butt" stroke-miterlimit="10" stroke-linejoin="miter" fill="none" stroke="#000000" d="M41.98235 41.60599C41.98235 42.70645 41.09026 43.59854 39.98979 43.59854 38.88931 43.59854 37.99724 42.70645 37.99724 41.60599 37.99724 40.50551 38.88931 39.61343 39.98979 39.61343 41.09026 39.61343 41.98235 40.50551 41.98235 41.60599ZM39.98979 41.60599"/>
<path transform="matrix(1.00006,0,0,-1.00002,4.279457,71.78612)" stroke-width=".3985" stroke-linecap="butt" stroke-miterlimit="10" stroke-linejoin="miter" fill="none" stroke="#000000" d="M44.83875 48.57976C44.83875 49.68022 43.94666 50.57231 42.84619 50.57231 41.74571 50.57231 40.85364 49.68022 40.85364 48.57976 40.85364 47.47928 41.74571 46.5872 42.84619 46.5872 43.94666 46.5872 44.83875 47.47928 44.83875 48.57976ZM42.84619 48.57976"/>
<path transform="matrix(1.00006,0,0,-1.00002,4.279457,71.78612)" stroke-width=".3985" stroke-linecap="butt" stroke-miterlimit="10" stroke-linejoin="miter" fill="none" stroke="#000000" d="M47.69516 57.29695C47.69516 58.39742 46.80309 59.2895 45.7026 59.2895 44.60214 59.2895 43.71005 58.39742 43.71005 57.29695 43.71005 56.19647 44.60214 55.3044 45.7026 55.3044 46.80309 55.3044 47.69516 56.19647 47.69516 57.29695ZM45.7026 57.29695"/>
<path transform="matrix(1.00006,0,0,-1.00002,4.279457,71.78612)" stroke-width=".3985" stroke-linecap="butt" stroke-miterlimit="10" stroke-linejoin="miter" fill="none" stroke="#000000" d="M50.55157 68.19345C50.55157 69.29393 49.65948 70.186 48.55902 70.186 47.45854 70.186 46.56647 69.29393 46.56647 68.19345 46.56647 67.09299 47.45854 66.2009 48.55902 66.2009 49.65948 66.2009 50.55157 67.09299 50.55157 68.19345ZM48.55902 68.19345"/>
<path transform="matrix(1.00006,0,0,-1.00002,4.279457,71.78612)" stroke-width=".3985" stroke-linecap="butt" stroke-miterlimit="10" stroke-linejoin="miter" fill="none" stroke="#000000" d=""/>
<use data-text="t" xlink:href="#font_4_1" transform="matrix(15.839149,0,0,-15.838517,50.91826,54.537775)"/>
<use data-text="y" xlink:href="#font_4_2" transform="matrix(15.839149,0,0,-15.838517,37.105428,14.461967)"/>
</svg>
