<svg xmlns="http://www.w3.org/2000/svg" xmlns:xlink="http://www.w3.org/1999/xlink" version="1.1" width="161" height="118" viewBox="0 0 161 118">
<defs>
<path id="font_1_3" d="M.42799378 .45222474 .43899537 .49023438H.31199647L.34599305 .6092224 .33399964 .6162262 .23699951 .53923037 .22399903 .49023438H.14299011L.13198853 .45222474H.21499634L.125 .08627319C.10998535 .029266358 .12199402-.01171875 .17199707-.01171875 .2519989-.01171875 .31599427 .054275514 .35598756 .1292572L.33399964 .1462555C.31098939 .10726929 .2599945 .040267946 .22898865 .040267946 .20799256 .040267946 .20799256 .0632782 .21398926 .088272098L.30299378 .45222474H.42799378Z"/>
<path id="font_2_4" d="M.2649994 .64468386C.3600006 .64468386 .3869934 .49682618 .3869934 .33398438 .3869934 .17112732 .3600006 .023269654 .2649994 .023269654 .16999817 .023269654 .14299011 .17112732 .14299011 .33398438 .14299011 .49682618 .16999817 .64468386 .2649994 .64468386M.2649994 .6796875C.099990848 .6796875 .040985109 .53378298 .040985109 .33398438 .040985109 .13417053 .099990848-.01171875 .2649994-.01171875 .42999269-.01171875 .4889984 .13417053 .4889984 .33398438 .4889984 .53378298 .42999269 .6796875 .2649994 .6796875Z"/>
<path id="font_2_5" d="M.43699647 0V.0289917L.35299684 .035995485C.33198548 .037994386 .31999208 .04598999 .31999208 .08496094V.67367556L.31498719 .6796875 .10899353 .6446991V.6197052L.20199585 .6087036C.21899414 .6067047 .22599793 .5987091 .22599793 .56973269V.08496094C.22599793 .065979007 .22299195 .053985597 .21699524 .04698181 .21199036 .039993287 .20399475 .036987306 .19299317 .035995485L.10899353 .0289917V0H.43699647Z"/>
<path id="font_1_4" d="M.070999149 .45393373 .07398987 .42893983 .14199829 .43093873C.1639862 .43193055 .16899109 .41493226 .1769867 .36291505 .18798828 .28489686 .20999146 .09286499 .20999146 .0128479 .20999146-.017166138 .20799256-.058166505 .18598938-.11117554 .16799927-.15318299 .14199829-.18218994 .12199402-.18218994 .10699463-.18218994 .09599304-.17118836 .08099365-.15118408 .068984989-.13517761 .06098938-.127182 .04598999-.127182 .019989014-.12818909-.005004883-.15818787-.005004883-.18719483-.005004883-.21418762 .023986817-.2421875 .067993167-.2421875 .15299988-.2421875 .18998719-.17919922 .27799989-.027160645 .2979889 .0068511965 .35798646 .11286926 .41999818 .21488953 .47698976 .30891419 .5399933 .40592958 .5399933 .4459381 .5399933 .48094178 .5289917 .5019531 .5219879 .5019531 .5029907 .5019531 .46899415 .49394227 .44400025 .47694398 .44499208 .4419403 .44299317 .3809204 .43099977 .33891297 .4149933 .28289796 .35598756 .17488098 .2899933 .06085205H.2869873C.27999879 .21388245 .26098634 .42492677 .24699402 .49795533L.23899842 .5019531 .070999149 .45393373Z"/>
<path id="font_1_2" d="M.18499756 .0002746582C.21398926 .10221863 .22999573 .16017151 .25099183 .21313477 .2849884 .3000641 .3829956 .44995118 .46598817 .44995118 .49598695 .44995118 .5119934 .42796327 .49598695 .36601258L.42199708 .086242679 .3959961-.01171875 .48298646 .0002746582C.5119934 .10221863 .5279999 .16017151 .55400088 .22113037 .59098818 .3060608 .6819916 .44995118 .7659912 .44995118 .798996 .44995118 .8129883 .42297364 .7999878 .38000489L.71398928 .086242679C.69599917 .024276734 .71598818-.01171875 .7659912-.01171875 .83898928-.01171875 .894989 .056259157 .92900088 .13220215L.9049988 .14619446C.8869934 .11122131 .84298709 .040267946 .8149872 .040267946 .79499819 .040267946 .79599 .06324768 .8049927 .0952301L.8819885 .35702516C.9049988 .43595887 .8919983 .5019531 .8089905 .5019531 .71899417 .5019531 .6279907 .41897584 .55599978 .29006959H.5519867L.57199099 .35302735C.60198977 .4489441 .58200076 .5019531 .5119934 .5019531 .41999818 .5019531 .32699586 .41596986 .2579956 .29006959H.25498963L.31799317 .4970703 .31298829 .50205996 .13198853 .47375489 .12599182 .44995118 .18699646 .4449463C.21099854 .4429474 .20899964 .42895509 .20098877 .39698792L.09799194-.01171875 .18499756 .0002746582Z"/>
<path id="font_1_1" d="M.35198976 .7371979 .34700013 .7421875 .16699219 .71824648 .16099549 .6953125 .21798706 .68829348C.24299622 .6852875 .24699402 .67826846 .23799134 .63920596L.09199524-.01171875 .1789856 .0002746582C.20599365 .10221863 .22099304 .15718079 .24598694 .22012329 .27598573 .2980652 .375 .44995118 .46199037 .44995118 .49398805 .44995118 .5059967 .42097474 .49398805 .38000489L.4119873 .096221927C.3929901 .030273438 .40699769-.01171875 .46398927-.01171875 .5329895-.01171875 .58898928 .056259157 .6230011 .13220215L.598999 .14619446C.58099368 .11122131 .5369873 .040267946 .5089874 .040267946 .4889984 .040267946 .4889984 .06324768 .49899293 .0952301L.5779877 .35702516C.60198977 .43595887 .58898928 .5019531 .5079956 .5019531 .41299439 .5019531 .30699159 .39898683 .24299622 .27908326H.23999024L.35198976 .7371979Z"/>
<path id="font_2_1" d="M.1749878 .2822113C.1749878 .56832888 .2619934 .65437319 .32499696 .66737368V.6923828C.1499939 .685379 .10499573 .46829225 .10499573 .2822113 .10499573 .09614563 .1499939-.12094116 .32499696-.12792969V-.10293579C.2669983-.090927127 .1749878-.0059051516 .1749878 .2822113Z"/>
<path id="font_2_3" d="M.069992069-.140625C.11999512-.09362793 .19299317-.027633667 .19299317 .051361085 .19299317 .10636902 .1599884 .1423645 .125 .14137268 .09399414 .14137268 .07598877 .117370609 .07598877 .09136963 .07598877 .055374147 .10899353 .037368776 .10899353-.005630493 .10899353-.04663086 .08299255-.086639408 .050994874-.12162781L.069992069-.140625Z"/>
<path id="font_2_2" d="M.1749878 .2822113C.1749878-.0059051516 .08299255-.090927127 .024993897-.10293579V-.12792969C.19999695-.12094116 .24499512 .09614563 .24499512 .2822113 .24499512 .46829225 .19999695 .685379 .024993897 .6923828V.66737368C.08799744 .65437319 .1749878 .56832888 .1749878 .2822113Z"/>
<path id="font_3_1" d="M.084991458 .31092835V.2529297H.33099366V.0068359377H.3889923V.2529297H.6349945V.31092835H.3889923V.5566406H.33099366V.31092835H.084991458Z"/>
</defs>
<path transform="matrix(1.00005,0,0,-1.00002,19.423966,100.75976)" stroke-width=".3985" stroke-linecap="butt" stroke-miterlimit="10" stroke-linejoin="miter" fill="none" stroke="#cbcbcb" d="M19.84267-15.87419V95.2449"/>
<path transform="matrix(1.00005,0,0,-1.00002,19.423966,100.75976)" stroke-width=".3985" stroke-linecap="butt" stroke-miterlimit="10" stroke-linejoin="miter" fill="none" stroke="#cbcbcb" d="M79.37071-15.87419V95.2449"/>
<path transform="matrix(1.00005,0,0,-1.00002,19.423966,100.75976)" stroke-width=".3985" stroke-linecap="butt" stroke-miterlimit="10" stroke-linejoin="miter" fill="none" stroke="#000000" d="M19.84267-1.98438V1.98438"/>
<path transform="matrix(1.00005,0,0,-1.00002,19.423966,100.75976)" d="M14.59418-12.88988H25.09114V-3.03411H14.59418Z" fill="#ffffff"/>
<use data-text="t" xlink:href="#font_1_3" transform="matrix(10.036901,0,0,-10.036601,35.232759,110.97597)"/>
<use data-text="0" xlink:href="#font_2_4" transform="matrix(7.60788,0,0,-7.6076529,38.985948,112.612)"/>
<path transform="matrix(1.00005,0,0,-1.00002,19.423966,100.75976)" stroke-width=".3985" stroke-linecap="butt" stroke-miterlimit="10" stroke-linejoin="miter" fill="none" stroke="#000000" d="M79.37071-1.98438V1.98438"/>
<path transform="matrix(1.00005,0,0,-1.00002,19.423966,100.75976)" d="M74.12222-12.84856H84.61919V-3.03411H74.12222Z" fill="#ffffff"/>
<use data-text="t" xlink:href="#font_1_3" transform="matrix(10.036901,0,0,-10.036601,94.763729,110.97597)"/>
<use data-text="1" xlink:href="#font_2_5" transform="matrix(7.60788,0,0,-7.6076529,98.516918,112.612)"/>
<path transform="matrix(1.00005,0,0,-1.00002,19.423966,100.75976)" stroke-width=".3985" stroke-linecap="butt" stroke-miterlimit="10" stroke-linejoin="miter" fill="none" stroke="#000000" d="M-17.85828 0H136.45607"/>
<path transform="matrix(1.00005,0,0,-1.00002,155.88686,100.75976)" stroke-width=".31879" stroke-linecap="round" stroke-linejoin="round" fill="none" stroke="#000000" d="M-1.19551 1.59401C-1.09587 .99626 0 .09961 .29886 0 0-.09961-1.09587-.99626-1.19551-1.59401"/>
<use data-text="t" xlink:href="#font_1_3" transform="matrix(10.036901,0,0,-10.036601,154.2067,110.34395)"/>
<path transform="matrix(1.00005,0,0,-1.00002,19.423966,100.75976)" stroke-width=".3985" stroke-linecap="butt" stroke-miterlimit="10" stroke-linejoin="miter" fill="none" stroke="#cbcbcb" d="M-17.85828 19.84267H136.91436"/>
<path transform="matrix(1.00005,0,0,-1.00002,19.423966,100.75976)" stroke-width=".3985" stroke-linecap="butt" stroke-miterlimit="10" stroke-linejoin="miter" fill="none" stroke="#cbcbcb" d="M-17.85828 59.52802H136.91436"/>
<path transform="matrix(1.00005,0,0,-1.00002,19.423966,100.75976)" stroke-width=".3985" stroke-linecap="butt" stroke-miterlimit="10" stroke-linejoin="miter" fill="none" stroke="#000000" d="M-1.98438 19.84267H1.98438"/>
<path transform="matrix(1.00005,0,0,-1.00002,19.423966,100.75976)" d="M-15.2438 15.13182H-3.0341006V24.553509H-15.2438Z" fill="#ffffff"/>
<use data-text="y" xlink:href="#font_1_4" transform="matrix(10.036901,0,0,-10.036601,5.7202837,82.16539)"/>
<use data-text="0" xlink:href="#font_2_4" transform="matrix(7.60788,0,0,-7.6076529,10.858543,83.80142)"/>
<path transform="matrix(1.00005,0,0,-1.00002,19.423966,100.75976)" stroke-width=".3985" stroke-linecap="butt" stroke-miterlimit="10" stroke-linejoin="miter" fill="none" stroke="#000000" d="M-1.98438 59.52802H1.98438"/>
<path transform="matrix(1.00005,0,0,-1.00002,19.423966,100.75976)" d="M-15.2438 54.81717H-3.0341006V64.23886H-15.2438Z" fill="#ffffff"/>
<use data-text="y" xlink:href="#font_1_4" transform="matrix(10.036901,0,0,-10.036601,5.7202837,42.47959)"/>
<use data-text="1" xlink:href="#font_2_5" transform="matrix(7.60788,0,0,-7.6076529,10.858543,44.11563)"/>
<path transform="matrix(1.00005,0,0,-1.00002,19.423966,100.75976)" stroke-width=".3985" stroke-linecap="butt" stroke-miterlimit="10" stroke-linejoin="miter" fill="none" stroke="#000000" d="M0-15.87419V94.78662"/>
<path transform="matrix(0,-1.00002,-1.00005,-0,19.423966,5.971237)" stroke-width=".31879" stroke-linecap="round" stroke-linejoin="round" fill="none" stroke="#000000" d="M-1.19551 1.59401C-1.09587 .99626 0 .09961 .29886 0 0-.09961-1.09587-.99626-1.19551-1.59401"/>
<use data-text="y" xlink:href="#font_1_4" transform="matrix(10.036901,0,0,-10.036601,23.368165,6.7618715)"/>
<path transform="matrix(1.00005,0,0,-1.00002,19.423966,100.75976)" stroke-width="1.59404" stroke-linecap="butt" stroke-miterlimit="10" stroke-linejoin="miter" fill="none" stroke="#000000" d="M-16.85527-4.62901-11.40945-.99854-4.96065 3.30054 1.48813 7.59933 7.93694 11.89844 14.38574 16.19756 20.83456 20.49666 27.28336 24.79607 33.73218 29.09517 40.18098 33.39427 46.62979 37.69339 53.07861 41.99248 59.52742 46.2916 65.97623 50.5907 72.42505 54.8898 78.87384 59.18921 85.32266 63.48831 91.77148 67.78743 98.22028 72.08653 104.66908 76.38565 111.11789 80.68474 117.56671 84.98386 124.01552 89.28296 130.46433 93.58206 135.91019 97.2128"/>
<path transform="matrix(-.8320615,.5546711,.55468776,.8320367,2.567854,105.38885)" stroke-width="1.27522" stroke-linecap="round" stroke-linejoin="round" fill="none" stroke="#000000" d="M-2.27148 3.02866C-2.0822 1.8929 0 .18927 .56786 0 0-.18927-2.0822-1.8929-2.27148-3.02866"/>
<path transform="matrix(.83203157,-.5547011,-.5547177,-.8320067,155.34093,3.5450135)" stroke-width="1.27522" stroke-linecap="round" stroke-linejoin="round" fill="none" stroke="#000000" d="M-2.27148 3.02866C-2.0822 1.8929 0 .18927 .56786 0 0-.18927-2.0822-1.8929-2.27148-3.02866"/>
<path transform="matrix(1.00005,0,0,-1.00002,19.423966,100.75976)" stroke-width="1.19553" stroke-linecap="butt" stroke-miterlimit="10" stroke-linejoin="miter" fill="none" stroke="#0033cc" d="M19.84267 19.84267V58.57161"/>
<path transform="matrix(0,-1.00002,-1.00005,-0,39.267629,42.186975)" stroke-width=".9564" stroke-linecap="round" stroke-linejoin="round" fill="none" stroke="#0033cc" d="M-1.91284 2.55046C-1.75343 1.59402 0 .15938 .4782 0 0-.15938-1.75343-1.59402-1.91284-2.55046"/>
<path transform="matrix(1.00005,0,0,-1.00002,19.423966,100.75976)" d="M11.38927 35.22453H28.296051V44.14616H11.38927Z" fill="#ffffff"/>
<use data-text="m" xlink:href="#font_1_2" transform="matrix(9.166058,0,0,-9.165783,31.810585,64.45903)" fill="#0033cc"/>
<use data-text="h" xlink:href="#font_1_1" transform="matrix(9.166058,0,0,-9.165783,40.66501,64.45903)" fill="#0033cc"/>
<path transform="matrix(1.00005,0,0,-1.00002,19.423966,100.75976)" stroke-width="1.19553" stroke-linecap="butt" stroke-miterlimit="10" stroke-linejoin="miter" fill="none" stroke="#009966" d="M19.84267 59.52802H76.4299"/>
<path transform="matrix(1.00005,0,0,-1.00002,95.85768,41.230546)" stroke-width=".9564" stroke-linecap="round" stroke-linejoin="round" fill="none" stroke="#009966" d="M-1.91284 2.55046C-1.75343 1.59402 0 .15938 .4782 0 0-.15938-1.75343-1.59402-1.91284-2.55046"/>
<path transform="matrix(1.00005,0,0,-1.00002,19.423966,100.75976)" d="M45.5858 56.06348H51.64314V62.99256H45.5858Z" fill="#ffffff"/>
<use data-text="h" xlink:href="#font_1_1" transform="matrix(9.166058,0,0,-9.165783,65.01224,44.61563)" fill="#009966"/>
<path transform="matrix(1.00005,0,0,-1.00002,19.423966,100.75976)" d="M21.93483 19.84267C21.93483 20.99815 20.99815 21.93483 19.84267 21.93483 18.68718 21.93483 17.75049 20.99815 17.75049 19.84267 17.75049 18.68718 18.68718 17.75049 19.84267 17.75049 20.99815 17.75049 21.93483 18.68718 21.93483 19.84267ZM19.84267 19.84267" fill="#ffffff"/>
<path transform="matrix(1.00005,0,0,-1.00002,19.423966,100.75976)" stroke-width="1.19553" stroke-linecap="butt" stroke-miterlimit="10" stroke-linejoin="miter" fill="none" stroke="#000000" d="M21.93483 19.84267C21.93483 20.99815 20.99815 21.93483 19.84267 21.93483 18.68718 21.93483 17.75049 20.99815 17.75049 19.84267 17.75049 18.68718 18.68718 17.75049 19.84267 17.75049 20.99815 17.75049 21.93483 18.68718 21.93483 19.84267ZM19.84267 19.84267"/>
<path transform="matrix(1.00005,0,0,-1.00002,19.423966,100.75976)" stroke-width=".3985" stroke-linecap="butt" stroke-miterlimit="10" stroke-linejoin="miter" fill="none" stroke="#000000" d="M19.84267 19.84267"/>
<path transform="matrix(1.00005,0,0,-1.00002,19.423966,100.75976)" d="M20.92506 6.07867H49.941919V16.80856H20.92506Z" fill="#ffffff"/>
<use data-text="(" xlink:href="#font_2_1" transform="matrix(9.166058,0,0,-9.165783,41.34606,91.43257)"/>
<use data-text="t" xlink:href="#font_1_3" transform="matrix(9.166058,0,0,-9.165783,44.753229,91.43257)"/>
<use data-text="0" xlink:href="#font_2_4" transform="matrix(6.966248,0,0,-6.9660398,48.180406,92.926609)"/>
<use data-text="," xlink:href="#font_2_3" transform="matrix(9.166058,0,0,-9.165783,52.37361,91.43257)"/>
<use data-text="y" xlink:href="#font_1_4" transform="matrix(9.166058,0,0,-9.165783,56.27681,91.43257)"/>
<use data-text="0" xlink:href="#font_2_4" transform="matrix(6.966248,0,0,-6.9660398,60.97003,92.926609)"/>
<use data-text=")" xlink:href="#font_2_2" transform="matrix(9.166058,0,0,-9.165783,65.16324,91.43257)"/>
<path transform="matrix(1.00005,0,0,-1.00002,19.423966,100.75976)" stroke-width=".3985" stroke-linecap="butt" stroke-miterlimit="10" stroke-linejoin="miter" fill="none" stroke="#000000" d="M95.2449 59.52802"/>
<path transform="matrix(1.00005,0,0,-1.00002,19.423966,100.75976)" d="M73.6927 42.56598H141.7424V53.6595H73.6927Z" fill="#ffffff"/>
<use data-text="(" xlink:href="#font_2_1" transform="matrix(9.166058,0,0,-9.165783,94.1167,54.94484)"/>
<use data-text="t" xlink:href="#font_1_3" transform="matrix(9.166058,0,0,-9.165783,97.523868,54.94484)"/>
<use data-text="0" xlink:href="#font_2_4" transform="matrix(6.966248,0,0,-6.9660398,100.95104,56.438875)"/>
<use data-text="+" xlink:href="#font_3_1" transform="matrix(9.166058,0,0,-9.165783,106.36231,54.94484)"/>
<use data-text="h" xlink:href="#font_1_1" transform="matrix(9.166058,0,0,-9.165783,114.17571,54.94484)"/>
<use data-text="," xlink:href="#font_2_3" transform="matrix(9.166058,0,0,-9.165783,120.23301,54.94484)"/>
<use data-text="y" xlink:href="#font_1_4" transform="matrix(9.166058,0,0,-9.165783,124.13621,54.94484)"/>
<use data-text="0" xlink:href="#font_2_4" transform="matrix(6.966248,0,0,-6.9660398,128.82944,56.438875)"/>
<use data-text="+" xlink:href="#font_3_1" transform="matrix(9.166058,0,0,-9.165783,134.23972,54.94484)"/>
<use data-text="m" xlink:href="#font_1_2" transform="matrix(9.166058,0,0,-9.165783,142.0531,54.94484)"/>
<use data-text="h" xlink:href="#font_1_1" transform="matrix(9.166058,0,0,-9.165783,150.90753,54.94484)"/>
<use data-text=")" xlink:href="#font_2_2" transform="matrix(9.166058,0,0,-9.165783,156.96787,54.94484)"/>
<path transform="matrix(1.00005,0,0,-1.00002,19.423966,100.75976)" d="M81.46288 59.52802C81.46288 60.6835 80.5262 61.6202 79.37071 61.6202 78.21523 61.6202 77.27853 60.6835 77.27853 59.52802 77.27853 58.37253 78.21523 57.43585 79.37071 57.43585 80.5262 57.43585 81.46288 58.37253 81.46288 59.52802ZM79.37071 59.52802" fill="#ffffff"/>
<path transform="matrix(1.00005,0,0,-1.00002,19.423966,100.75976)" stroke-width="1.19553" stroke-linecap="butt" stroke-miterlimit="10" stroke-linejoin="miter" fill="none" stroke="#000000" d="M81.46288 59.52802C81.46288 60.6835 80.5262 61.6202 79.37071 61.6202 78.21523 61.6202 77.27853 60.6835 77.27853 59.52802 77.27853 58.37253 78.21523 57.43585 79.37071 57.43585 80.5262 57.43585 81.46288 58.37253 81.46288 59.52802ZM79.37071 59.52802"/>
</svg>
