<svg xmlns="http://www.w3.org/2000/svg" xmlns:xlink="http://www.w3.org/1999/xlink" version="1.1" width="170" height="114" viewBox="0 0 170 114">
<defs>
<path id="font_1_1" d="M.42799378 .45222474 .43899537 .49023438H.31199647L.34599305 .6092224 .33399964 .6162262 .23699951 .53923037 .22399903 .49023438H.14299011L.13198853 .45222474H.21499634L.125 .08627319C.10998535 .029266358 .12199402-.01171875 .17199707-.01171875 .2519989-.01171875 .31599427 .054275514 .35598756 .1292572L.33399964 .1462555C.31098939 .10726929 .2599945 .040267946 .22898865 .040267946 .20799256 .040267946 .20799256 .0632782 .21398926 .088272098L.30299378 .45222474H.42799378Z"/>
<path id="font_2_2" d="M.6349945 .2529297V.31092835H.084991458V.2529297H.6349945Z"/>
<path id="font_3_4" d="M.43699647 0V.0289917L.35299684 .035995485C.33198548 .037994386 .31999208 .04598999 .31999208 .08496094V.67367556L.31498719 .6796875 .10899353 .6446991V.6197052L.20199585 .6087036C.21899414 .6067047 .22599793 .5987091 .22599793 .56973269V.08496094C.22599793 .065979007 .22299195 .053985597 .21699524 .04698181 .21199036 .039993287 .20399475 .036987306 .19299317 .035995485L.10899353 .0289917V0H.43699647Z"/>
<path id="font_3_5" d="M.4850006 .13195801 .45700074 .13696289C.43598939 .08299255 .41600038 .07598877 .37599183 .07598877H.11999512C.13598633 .1279602 .19499207 .19892884 .28799439 .2658844 .38398744 .33584596 .45799256 .38082887 .45799256 .49276734 .45799256 .63168337 .3659973 .6796875 .26098634 .6796875 .12399292 .6796875 .052993776 .5967102 .052993776 .54473879 .052993776 .51075747 .09098816 .49476625 .10798645 .49476625 .12599182 .49476625 .1329956 .50476077 .13699341 .5217438 .15299988 .5897064 .19198609 .64468386 .2539978 .64468386 .33099366 .64468386 .35299684 .5797119 .35299684 .50675967 .35299684 .3998108 .29899598 .33984376 .21199036 .26289369 .08898926 .15594483 .04598999 .08798218 .026992798 .009994507L.036987306 0H.45098878L.4850006 .13195801Z"/>
<path id="font_3_6" d="M.12998963 .3657837C.12998963 .3487854 .1349945 .33779908 .147995 .33779908 .1599884 .33779908 .18699646 .34777833 .23498535 .34777833 .31999208 .34777833 .36799623 .27090455 .36799623 .18403626 .36799623 .065216068 .30899049 .023269654 .23799134 .023269654 .17199707 .023269654 .1289978 .07319641 .10998535 .12911988 .10398865 .14808655 .09399414 .15707398 .07998657 .15707398 .06199646 .15707398 .026992798 .13809204 .026992798 .10215759 .026992798 .05921936 .09599304-.01171875 .23699951-.01171875 .38198854-.01171875 .47299195 .06121826 .47299195 .18902588 .47299195 .32281495 .35798646 .3627777 .30299378 .3677826V.3717804C.35699464 .38078309 .44400025 .4207611 .44400025 .5197296 .44400025 .6306915 .35699464 .6796875 .25 .6796875 .117996219 .6796875 .052993776 .60369876 .052993776 .5607147 .052993776 .5297241 .08799744 .51272585 .101989749 .51272585 .114990238 .51272585 .12298584 .5197296 .1269989 .5327301 .14898682 .60069277 .18699646 .64468386 .24299622 .64468386 .32199098 .64468386 .34098817 .57470706 .34098817 .51872256 .34098817 .4587555 .31999208 .38378907 .23498535 .38378907 .18699646 .38378907 .1599884 .39378358 .147995 .39378358 .1349945 .39378358 .12998963 .38378907 .12998963 .3657837Z"/>
<path id="font_3_7" d="M.2999878 .17871094V.0769043C.2999878 .04296875 .2889862 .036987306 .2649994 .034988405L.20098877 .0289917V0H.46499635V.0289917L.41999818 .033981325C.39698792 .036987306 .3899994 .04296875 .3899994 .0769043V.17871094H.49299623V.22570801H.3899994V.66796877H.31698609C.22299195 .5298767 .11099243 .35577394 .018997193 .19970703L.027999878 .17871094H.2999878M.09098816 .22570801C.15098572 .33476258 .22099304 .4498291 .2979889 .5709076H.2999878V.22570801H.09098816Z"/>
<path id="font_3_8" d="M.42599488 .5919647 .44999696 .6599579 .44499208 .66796877H.11099243L.100997928 .65896609 .08099365 .32388307 .10499573 .31188966C.14698792 .35983277 .18798828 .3828125 .24198914 .3828125 .30599977 .3828125 .37599183 .3358612 .37599183 .20404053 .37599183 .10116577 .33399964 .023269654 .24699402 .023269654 .1769867 .023269654 .14099121 .07420349 .12098694 .13113404 .115997318 .14611817 .10699463 .15510559 .09298706 .15510559 .07299805 .15510559 .039993287 .13513184 .039993287 .10217285 .039993287 .056228639 .10998535-.01171875 .23999024-.01171875 .40499879-.01171875 .47999574 .0881958 .47999574 .21502686 .47999574 .35484315 .3919983 .4268036 .272995 .4268036 .21798706 .4268036 .15899658 .4028015 .1269989 .3738098L.125 .37580873 .147995 .56292727C.15098572 .58795168 .1579895 .5919647 .1769867 .5919647H.42599488Z"/>
<path id="font_1_2" d="M.5329895 .48995973C.5039978 .388031 .48799134 .33506776 .46199037 .2741089 .41799928 .173172 .33099366 .040267946 .24798584 .040267946 .21598816 .040267946 .20799256 .070251468 .22299195 .12820435L.31900025 .4970703 .31399537 .50205996 .13198853 .47375489 .12599182 .4497528 .18798828 .44476319C.21199036 .44276429 .21099854 .42778016 .20298767 .39682008L.13398743 .13316345C.11299133 .053253175 .12098694-.01171875 .20098877-.01171875 .29699708-.01171875 .4019928 .09420776 .46199037 .21005249H.46398927L.43099977 .096206668C.4119873 .029266358 .42399598-.01171875 .47698976-.01171875 .548996-.01171875 .60899356 .057250978 .6439972 .13116455L.6199951 .14613343C.59999087 .11218262 .55599978 .040267946 .5279999 .040267946 .5069885 .040267946 .5069885 .06324768 .5149994 .09420776L.621994 .5019531 .5329895 .48995973Z"/>
<path id="font_3_1" d="M.1749878 .2822113C.1749878 .56832888 .2619934 .65437319 .32499696 .66737368V.6923828C.1499939 .685379 .10499573 .46829225 .10499573 .2822113 .10499573 .09614563 .1499939-.12094116 .32499696-.12792969V-.10293579C.2669983-.090927127 .1749878-.0059051516 .1749878 .2822113Z"/>
<path id="font_3_2" d="M.1749878 .2822113C.1749878-.0059051516 .08299255-.090927127 .024993897-.10293579V-.12792969C.19999695-.12094116 .24499512 .09614563 .24499512 .2822113 .24499512 .46829225 .19999695 .685379 .024993897 .6923828V.66737368C.08799744 .65437319 .1749878 .56832888 .1749878 .2822113Z"/>
<path id="font_2_4" d="M.6349945 .14315796V.20117188H.084991458V.14315796H.6349945M.6349945 .36288453V.42089845H.084991458V.36288453H.6349945Z"/>
<path id="font_3_3" d="M.2649994 .64468386C.3600006 .64468386 .3869934 .49682618 .3869934 .33398438 .3869934 .17112732 .3600006 .023269654 .2649994 .023269654 .16999817 .023269654 .14299011 .17112732 .14299011 .33398438 .14299011 .49682618 .16999817 .64468386 .2649994 .64468386M.2649994 .6796875C.099990848 .6796875 .040985109 .53378298 .040985109 .33398438 .040985109 .13417053 .099990848-.01171875 .2649994-.01171875 .42999269-.01171875 .4889984 .13417053 .4889984 .33398438 .4889984 .53378298 .42999269 .6796875 .2649994 .6796875Z"/>
<path id="font_3_12" d="M.18998719 .7480469C.13999939 .7020416 .07199097 .6350403 .07199097 .56404116 .07199097 .5100403 .10398865 .47703553 .13699341 .4780426 .16699219 .4780426 .18499756 .4990387 .18499756 .5260315 .18499756 .56204226 .1519928 .58303835 .1519928 .6200409 .1519928 .6580353 .17599488 .6960449 .20698548 .7320404L.18998719 .7480469M.36999513 .7480469C.31999208 .7020416 .2519989 .6350403 .2519989 .56404116 .2519989 .5100403 .28399659 .47703553 .31698609 .4780426 .34700013 .4780426 .36499024 .4990387 .36499024 .5260315 .36499024 .56204226 .33198548 .58303835 .33198548 .6200409 .33198548 .6580353 .35598756 .6960449 .3869934 .7320404L.36999513 .7480469Z"/>
<path id="font_3_11" d="M.28799439 .5019531C.12799073 .5019531 .04899597 .40698243 .04899597 .24510193 .04899597 .083236698 .12799073-.01171875 .28799439-.01171875 .44999696-.01171875 .5279999 .083236698 .5279999 .24510193 .5279999 .40698243 .44999696 .5019531 .28799439 .5019531M.15299988 .24510193C.15299988 .38301087 .19699097 .46694947 .28799439 .46694947 .3809967 .46694947 .42399598 .38301087 .42399598 .24510193 .42399598 .10720825 .3809967 .023269654 .28799439 .023269654 .19699097 .023269654 .15299988 .10720825 .15299988 .24510193Z"/>
<path id="font_3_9" d="M.20098877 .45022584H.32299806V.49023438H.20098877L.19699097 .60220339C.19400025 .6971741 .22898865 .70718386 .24499512 .70718386 .2659912 .70718386 .28799439 .6971741 .31298829 .6391907 .31799317 .62919619 .32499696 .6221924 .33999635 .6221924 .3600006 .6221924 .3889923 .6391907 .3889923 .66918948 .3889923 .70217898 .34700013 .7421875 .2669983 .7421875 .21199036 .7421875 .16499329 .71717837 .13999939 .67918398 .116989139 .64419558 .10699463 .5912018 .10699463 .5252228V.49023438H.02999878V.45022584H.10699463V.087020877C.10699463 .035995485 .10398865 .033996583 .03199768 .0289917V0H.29599V.0289917C.20498657 .032989503 .20098877 .034988405 .20098877 .08602905V.45022584Z"/>
<path id="font_3_13" d="M.08898926 .47218324C.13899231 .5181732 .20698548 .58517459 .20698548 .6561737 .20698548 .71017459 .1749878 .7431793 .14199829 .7421875 .11199951 .7421875 .09399414 .72117617 .09399414 .69418337 .09399414 .6581726 .1269989 .6371765 .1269989 .60017397 .1269989 .56217959 .102996829 .5241852 .07199097 .48817445L.08898926 .47218324M.2689972 .47218324C.31900025 .5181732 .3869934 .58517459 .3869934 .6561737 .3869934 .71017459 .35499574 .7431793 .32199098 .7421875 .2919922 .7421875 .27398683 .72117617 .27398683 .69418337 .27398683 .6581726 .30699159 .6371765 .30699159 .60017397 .30699159 .56217959 .2829895 .5241852 .2519989 .48817445L.2689972 .47218324Z"/>
<path id="font_3_10" d="M.5289917 .34295655C.5289917 .4439392 .47399903 .5019531 .38198854 .5019531 .30799867 .5019531 .2619934 .46594239 .19999695 .4259491L.18598938 .5019531 .036987306 .47694398V.45195008L.07499695 .4469452C.100997928 .4429474 .10699463 .4379425 .10699463 .40194703V.08699036C.10699463 .035995485 .10398865 .033996583 .03199768 .0289917V0H.27598573V.0289917C.20498657 .033996583 .20098877 .035995485 .20098877 .08699036V.32095338C.20098877 .34596253 .20298767 .35995484 .21099854 .37594605 .23199463 .4149475 .2769928 .44795228 .32998658 .44795228 .397995 .44795228 .43499757 .40994264 .43499757 .32295228V.08699036C.43499757 .035995485 .43199159 .033996583 .3600006 .0289917V0H.60398867V.0289917C.5329895 .033996583 .5289917 .035995485 .5289917 .08699036V.34295655Z"/>
<path id="font_2_1" d="M.397995-.82902529 .22499085-.43717958C.22099304-.42918397 .21899414-.42318727 .21199036-.42318727 .20899964-.42318727 .20799256-.42419435 .19799805-.43118287L.09700012-.50315859 .11099243-.52215579C.1269989-.51815798 .14299011-.51416018 .15299988-.51416018 .15499878-.51416018 .1559906-.51416018 .1559906-.515152L.35299684-.95996096H.38198854C.38198854-.95996096 .8470001 .0016326904 .84999087 .0026245118 .8549957 .013626099 .8529968 .014633179 .8529968 .019622803 .8529968 .03062439 .84999087 .057617189 .83799746 .057617189H.82899478L.397995-.82902529Z"/>
<path id="font_2_3" d="M.07998657 .28173829C.07998657 .24674988 .10798645 .21875 .14299011 .21875 .17799378 .21875 .20599365 .24674988 .20599365 .28173829 .20599365 .31674195 .17799378 .34474183 .14299011 .34474183 .10798645 .34474183 .07998657 .31674195 .07998657 .28173829Z"/>
</defs>
<path transform="matrix(1.00003,0,0,-1.00003,39.57126,77.202838)" d="M-29.764-35.71686V75.40222H59.52802V-35.71686ZM59.52802 75.40222" fill="#d9d9ff"/>
<path transform="matrix(1.00003,0,0,-1.00003,39.57126,77.202838)" d="M59.52802-35.71686V75.40222H128.9774V-35.71686ZM128.9774 75.40222" fill="#d9f0d9"/>
<path transform="matrix(1.00003,0,0,-1.00003,39.57126,77.202838)" stroke-width=".3985" stroke-linecap="butt" stroke-miterlimit="10" stroke-linejoin="miter" fill="none" stroke="#000000" d="M-29.764 0H128.51914"/>
<path transform="matrix(1.00003,0,0,-1.00003,168.09426,77.202838)" stroke-width=".31879" stroke-linecap="round" stroke-linejoin="round" fill="none" stroke="#000000" d="M-1.19551 1.59401C-1.09587 .99626 0 .09961 .29886 0 0-.09961-1.09587-.99626-1.19551-1.59401"/>
<path transform="matrix(1.00003,0,0,-1.00003,39.57126,77.202838)" stroke-width=".3985" stroke-linecap="butt" stroke-miterlimit="10" stroke-linejoin="miter" fill="none" stroke="#000000" d="M0-35.71686V74.94394"/>
<path transform="matrix(0,-1.00003,-1.00003,-0,39.57126,2.2566453)" stroke-width=".31879" stroke-linecap="round" stroke-linejoin="round" fill="none" stroke="#000000" d="M-1.19551 1.59401C-1.09587 .99626 0 .09961 .29886 0 0-.09961-1.09587-.99626-1.19551-1.59401"/>
<use data-text="t" xlink:href="#font_1_1" transform="matrix(7.3327205,0,0,-7.3327205,165.00504,85.12107)"/>
<path transform="matrix(1.00003,0,0,-1.00003,39.57126,77.202838)" stroke-width=".3985" stroke-linecap="butt" stroke-miterlimit="10" stroke-linejoin="miter" fill="none" stroke="#929292" d="M-19.84267 1.39478V-1.39478"/>
<use data-text="&#x2212;" xlink:href="#font_2_2" transform="matrix(7.3327205,0,0,-7.3327205,15.144524,86.90613)"/>
<use data-text="1" xlink:href="#font_3_4" transform="matrix(7.3327205,0,0,-7.3327205,20.420685,86.90613)"/>
<path transform="matrix(1.00003,0,0,-1.00003,39.57126,77.202838)" stroke-width=".3985" stroke-linecap="butt" stroke-miterlimit="10" stroke-linejoin="miter" fill="none" stroke="#929292" d="M19.84267 1.39478V-1.39478"/>
<use data-text="1" xlink:href="#font_3_4" transform="matrix(7.3327205,0,0,-7.3327205,57.469797,86.90613)"/>
<path transform="matrix(1.00003,0,0,-1.00003,39.57126,77.202838)" stroke-width=".3985" stroke-linecap="butt" stroke-miterlimit="10" stroke-linejoin="miter" fill="none" stroke="#929292" d="M39.68535 1.39478V-1.39478"/>
<use data-text="2" xlink:href="#font_3_5" transform="matrix(7.3327205,0,0,-7.3327205,77.31339,86.90613)"/>
<path transform="matrix(1.00003,0,0,-1.00003,39.57126,77.202838)" stroke-width=".3985" stroke-linecap="butt" stroke-miterlimit="10" stroke-linejoin="miter" fill="none" stroke="#929292" d="M59.52802 1.39478V-1.39478"/>
<use data-text="3" xlink:href="#font_3_6" transform="matrix(7.3327205,0,0,-7.3327205,97.15599,86.90613)"/>
<path transform="matrix(1.00003,0,0,-1.00003,39.57126,77.202838)" stroke-width=".3985" stroke-linecap="butt" stroke-miterlimit="10" stroke-linejoin="miter" fill="none" stroke="#929292" d="M79.37071 1.39478V-1.39478"/>
<use data-text="4" xlink:href="#font_3_7" transform="matrix(7.3327205,0,0,-7.3327205,116.99959,86.90613)"/>
<path transform="matrix(1.00003,0,0,-1.00003,39.57126,77.202838)" stroke-width=".3985" stroke-linecap="butt" stroke-miterlimit="10" stroke-linejoin="miter" fill="none" stroke="#929292" d="M99.2134 1.39478V-1.39478"/>
<use data-text="5" xlink:href="#font_3_8" transform="matrix(7.3327205,0,0,-7.3327205,136.84317,86.90613)"/>
<path transform="matrix(1.00003,0,0,-1.00003,39.57126,77.202838)" stroke-width=".3985" stroke-linecap="butt" stroke-miterlimit="10" stroke-linejoin="miter" fill="none" stroke="#929292" d="M19.84267 1.39478V-1.39478"/>
<path transform="matrix(1.00003,0,0,-1.00003,39.57126,77.202838)" stroke-width=".3985" stroke-linecap="butt" stroke-miterlimit="10" stroke-linejoin="miter" fill="none" stroke="#929292" d="M1.39478-19.84267H-1.39478"/>
<use data-text="&#x2212;" xlink:href="#font_2_2" transform="matrix(7.3327205,0,0,-7.3327205,25.61184,99.5005)"/>
<use data-text="1" xlink:href="#font_3_4" transform="matrix(7.3327205,0,0,-7.3327205,30.888,99.5005)"/>
<path transform="matrix(1.00003,0,0,-1.00003,39.57126,77.202838)" stroke-width=".3985" stroke-linecap="butt" stroke-miterlimit="10" stroke-linejoin="miter" fill="none" stroke="#929292" d="M1.39478 19.84267H-1.39478"/>
<use data-text="1" xlink:href="#font_3_4" transform="matrix(7.3327205,0,0,-7.3327205,30.888,59.814313)"/>
<path transform="matrix(1.00003,0,0,-1.00003,39.57126,77.202838)" stroke-width=".3985" stroke-linecap="butt" stroke-miterlimit="10" stroke-linejoin="miter" fill="none" stroke="#929292" d="M1.39478 39.68535H-1.39478"/>
<use data-text="2" xlink:href="#font_3_5" transform="matrix(7.3327205,0,0,-7.3327205,30.888,39.97072)"/>
<path transform="matrix(1.00003,0,0,-1.00003,39.57126,77.202838)" stroke-width=".3985" stroke-linecap="butt" stroke-miterlimit="10" stroke-linejoin="miter" fill="none" stroke="#929292" d="M1.39478 59.52802H-1.39478"/>
<use data-text="3" xlink:href="#font_3_6" transform="matrix(7.3327205,0,0,-7.3327205,30.888,20.10812)"/>
<path transform="matrix(1.00003,0,0,-1.00003,39.57126,77.202838)" stroke-width=".3985" stroke-linecap="butt" stroke-miterlimit="10" stroke-linejoin="miter" fill="none" stroke="#929292" d="M1.39478 19.84267H-1.39478"/>
<path transform="matrix(1.00003,0,0,-1.00003,39.57126,77.202838)" stroke-width="1.19553" stroke-linecap="butt" stroke-miterlimit="10" stroke-linejoin="miter" fill="none" stroke="#0000ff" d="M0 19.84267H.29398 .58797 .88196 1.17595 1.46996 1.76393 2.05794 2.35193 2.64592 2.93993 3.23392 3.52791 3.8219 4.1159 4.4099 4.70389 4.99788 5.29189 5.58588 5.87987 6.17386 6.46786 6.76186 7.05585 7.34984 7.64383 7.93784 8.23183 8.52582 8.81982 9.11382 9.4078 9.7018 9.99579 10.2898 10.58379 10.87778 11.17178 11.46576 11.75977 12.05376 12.34775 12.64175 12.93575 13.22974 13.52374 13.81772 14.11172 14.40572 14.6997 14.99371 15.2877 15.5817 15.8757 16.16968 16.46368 16.75768 17.05167 17.34567 17.63966 17.93365 18.22766 18.52164 18.81564 19.10963 19.40363 19.69763 19.99162 20.28561 20.5796 20.87361 21.1676 21.4616 21.75558 22.04959 22.34358 22.63757 22.93156 23.22557 23.51956 23.81355 24.10754 24.40154 24.69554 24.98953 25.28352 25.57753 25.87152 26.16551 26.4595 26.7535 27.0475 27.34149 27.63548 27.92949 28.22346 28.51747 28.81146 29.10545 29.39946 29.69345 29.98744 30.28145 30.57542 30.86943 31.16342 31.45741 31.75142 32.04541 32.3394 32.6334 32.92738 33.22139 33.51538 33.80937 34.10338 34.39737 34.69136 34.98537 35.27934 35.57335 35.86734 36.16133 36.45534 36.74933 37.04332 37.33731 37.63132 37.92531 38.2193 38.51329 38.8073 39.10129 39.39528 39.68927 39.98328 40.27727 40.57126 40.86525 41.15924 41.45325 41.74724 42.04123 42.33524 42.62923 42.92322 43.21721 43.5112 43.8052 44.0992 44.39319 44.6872 44.98117 45.27518 45.56917 45.86316 46.15717 46.45116 46.74515 47.03915 47.33313 47.62714 47.92113 48.21512 48.50912 48.80312 49.0971 49.39111 49.68509 49.9791 50.27309 50.56708 50.86108 51.15508 51.44907 51.74307 52.03705 52.33105 52.62505 52.91904 53.21304 53.50703 53.80103 54.09502 54.38902 54.68301 54.977 55.271 55.565 55.859 56.15298 56.44698 56.74098 57.03497 57.32896 57.62296 57.91695 58.21095 58.50494"/>
<path transform="matrix(1.00003,0,0,-1.00003,39.57126,77.202838)" stroke-width=".79701" stroke-linecap="butt" stroke-dasharray="2.98883,2.98883" stroke-miterlimit="10" stroke-linejoin="miter" fill="none" stroke="#8080ff" d="M0 19.84267 .29398 19.84145 .58797 19.82935 .88196 19.80753 1.17595 19.77788 1.46996 19.73819 1.76393 19.69066 2.05794 19.63496 2.35193 19.56956 2.64592 19.49599 2.93993 19.41664 3.23392 19.32733 3.52791 19.23015 3.8219 19.12296 4.1159 19.01184 4.4099 18.89073 4.70389 18.76176 4.99788 18.62672 5.29189 18.48381 5.58588 18.33484 5.87987 18.1783 6.17386 18.01541 6.46786 17.84677 6.76186 17.66995 7.05585 17.48949 7.34984 17.30298 7.64383 17.11041 7.93784 16.9118 8.23183 16.70955 8.52582 16.50093 8.81982 16.28868 9.11382 16.07219 9.4078 15.85208 9.7018 15.62592 9.99579 15.39943 10.2898 15.1672 10.58379 14.93315 10.87778 14.69489 11.17178 14.45477 11.46576 14.21255 11.75977 13.9685 12.05376 13.72237 12.34775 13.47438 12.64175 13.2261 12.93575 12.9742 13.22974 12.7241 13.52374 12.4719 13.81772 12.21999 14.11172 11.96777 14.40572 11.71587 14.6997 11.46365 14.99371 11.21176 15.2877 10.96165 15.5817 10.71156 15.8757 10.46329 16.16968 10.21532 16.46368 9.96916 16.75768 9.72513 17.05167 9.4829 17.34567 9.2428 17.63966 9.00452 17.93365 8.76836 18.22766 8.5343 18.52164 8.3039 18.81564 8.07591 19.10963 7.84943 19.40363 7.6272 19.69763 7.40889 19.99162 7.1924 20.28561 6.97833 20.5796 6.76791 20.87361 6.56143 21.1676 6.35886 21.4616 6.16055 21.75558 5.96405 22.04959 5.77359 22.34358 5.58498 22.63757 5.40028 22.93156 5.21983 23.22557 5.043 23.51956 4.8683 23.81355 4.69965 24.10754 4.53496 24.40154 4.37416 24.69554 4.21552 24.98953 4.06262 25.28352 3.91365 25.57753 3.7668 25.87152 3.62389 26.16551 3.48703 26.4595 3.35202 26.7535 3.2212 27.0475 3.09404 27.34149 2.97112 27.63548 2.85182 27.92949 2.73677 28.22346 2.62354 28.51747 2.51454 28.81146 2.40915 29.10545 2.30803 29.39946 2.20872 29.69345 2.11365 29.98744 2.0204 30.28145 1.93289 30.57542 1.84569 30.86943 1.76425 31.16342 1.6828 31.45741 1.60742 31.75142 1.53201 32.04541 1.46057 32.3394 1.39305 32.6334 1.32553 32.92738 1.26224 33.22139 1.2026 33.51538 1.14296 33.80937 1.08755 34.10338 1.03395 34.39737 .98218 34.69136 .93253 34.98537 .885 35.27934 .83928 35.57335 .79567 35.86734 .756 36.16133 .71635 36.45534 .6785 36.74933 .64096 37.04332 .60704 37.33731 .57344 37.63132 .54376 37.92531 .5138 38.2193 .48412 38.51329 .45837 38.8073 .43234 39.10129 .40662 39.39528 .3848 39.68927 .363 39.98328 .34122 40.27727 .32123 40.57126 .30154 40.86525 .28368 41.15924 .26764 41.45325 .25189 41.74724 .23616 42.04123 .22221 42.33524 .20828 42.62923 .19617 42.92322 .18407 43.21721 .17256 43.5112 .16167 43.8052 .15166 44.0992 .14198 44.39319 .13289 44.6872 .12411 44.98117 .11624 45.27518 .10867 45.56917 .10141 45.86316 .09474 46.15717 .0884 46.45116 .08263 46.74515 .07689 47.03915 .07175 47.33313 .0669 47.62714 .06235 47.92113 .0581 48.21512 .05386 48.50912 .05025 48.80312 .0466 49.0971 .04327 49.39111 .04025 49.68509 .03722 49.9791 .0348 50.27309 .03207 50.56708 .02995 50.86108 .02754 51.15508 .02571 51.44907 .0236 51.74307 .02177 52.03705 .02028 52.33105 .01875 52.62505 .01723 52.91904 .01602 53.21304 .01482 53.50703 .0136 53.80103 .0127 54.09502 .01149 54.38902 .01057 54.68301 .00966 54.977 .00906 55.271 .00816 55.565 .00755 55.859 .00694 56.15298 .00633 56.44698 .00572 56.74098 .00543 57.03497 .00482 57.32896 .00452 57.62296 .00421 57.91695 .00392 58.21095 .00331 58.50494 .003"/>
<path transform="matrix(1.00003,0,0,-1.00003,39.57126,77.202838)" stroke-width="1.19553" stroke-linecap="butt" stroke-miterlimit="10" stroke-linejoin="miter" fill="none" stroke="#009900" d="M59.52802 .0024 59.87682 .00027H60.22563 60.5744 60.92322 61.272 61.6208 61.96959 62.3184 62.6672 63.01599 63.36479 63.71358 64.0624 64.41116 64.75998 65.10878 65.45757 65.80638 66.15517 66.50397 66.85275 67.20155 67.55035 67.89915 68.24796 68.59674 68.94554 69.29433 69.64314 69.99194 70.34073 70.68953 71.03831 71.38713 71.73593 72.08472 72.43352 72.7823 73.1311 73.4799 73.8287 74.1775 74.5263 74.87509 75.22389 75.5727 75.92148 76.27028 76.61908 76.96788 77.31668 77.66547 78.01427 78.36307 78.71185 79.06067 79.40945 79.75826 80.10706 80.45584 80.80464 81.15344 81.50224 81.85103 82.19984 82.54861 82.89743 83.24623 83.59502 83.94383 84.2926 84.64142 84.9902 85.339 85.68782 86.0366 86.3854 86.73419 87.083 87.43178 87.7806 88.12938 88.47818 88.82698 89.17577 89.52458 89.87337 90.22217 90.57097 90.91975 91.26857 91.61736 91.96616 92.31494 92.66374 93.01254 93.36134 93.71014 94.05893 94.40775 94.75653 95.10533 95.45413 95.80292 96.15172 96.5005 96.8493 97.19812 97.5469 97.8957 98.2445 98.59329 98.9421 99.2909 99.6397 99.9885 100.33728 100.68608 101.03488 101.38367 101.73247 102.08128 102.43005 102.77887 103.12766 103.47646 103.82526 104.17404 104.52286 104.87164 105.22044 105.56923 105.91805 106.26683 106.61563 106.96443 107.31322 107.66203 108.0108 108.35962 108.70842 109.0572 109.40602 109.7548 110.1036 110.4524 110.8012 111.15 111.4988 111.8476 112.19638 112.54518 112.89397 113.24278 113.59158 113.94037 114.28918 114.63795 114.98677 115.33556 115.68436 116.03316 116.38194 116.73074 117.07954 117.42834 117.77713 118.12595 118.47473 118.82353 119.17233 119.52112 119.86992 120.21872 120.56752 120.91632 121.2651 121.6139 121.9627 122.3115 122.66031 123.0091 123.3579 123.7067 124.05548 124.40428 124.75308 125.10188 125.45067 125.79948 126.14827 126.49707 126.84586 127.19466 127.54347 127.89224 128.24106 128.58985 128.93865"/>
<path transform="matrix(1.00003,0,0,-1.00003,39.57126,77.202838)" stroke-width=".79701" stroke-linecap="butt" stroke-dasharray="2.98883,2.98883" stroke-miterlimit="10" stroke-linejoin="miter" fill="none" stroke="#80cc80" d="M59.52802 0H59.87682 60.22563 60.5744 60.92322 61.272 61.6208 61.96959 62.3184 62.6672 63.01599 63.36479 63.71358 64.0624 64.41116 64.75998 65.10878 65.45757 65.80638 66.15517 66.50397 66.85275 67.20155 67.55035 67.89915 68.24796 68.59674 68.94554 69.29433 69.64314 69.99194 70.34073 70.68953 71.03831 71.38713 71.73593 72.08472 72.43352 72.7823 73.1311 73.4799 73.8287 74.1775 74.5263 74.87509 75.22389 75.5727 75.92148 76.27028 76.61908 76.96788 77.31668 77.66547 78.01427 78.36307 78.71185 79.06067 79.40945 79.75826 80.10706 80.45584 80.80464 81.15344 81.50224 81.85103 82.19984 82.54861 82.89743 83.24623 83.59502 83.94383 84.2926 84.64142 84.9902 85.339 85.68782 86.0366 86.3854 86.73419 87.083 87.43178 87.7806 88.12938 88.47818 88.82698 89.17577 89.52458 89.87337 90.22217 90.57097 90.91975 91.26857 91.61736 91.96616 92.31494 92.66374 93.01254 93.36134 93.71014 94.05893 94.40775 94.75653 95.10533 95.45413 95.80292 96.15172 96.5005 96.8493 97.19812 97.5469 97.8957 98.2445 98.59329 98.9421 99.2909 99.6397 99.9885 100.33728 100.68608 101.03488 101.38367 101.73247 102.08128 102.43005 102.77887 103.12766 103.47646 103.82526 104.17404 104.52286 104.87164 105.22044 105.56923 105.91805 106.26683 106.61563 106.96443 107.31322 107.66203 108.0108 108.35962 108.70842 109.0572 109.40602 109.7548 110.1036 110.4524 110.8012 111.15 111.4988 111.8476 112.19638 112.54518 112.89397 113.24278 113.59158 113.94037 114.28918 114.63795 114.98677 115.33556 115.68436 116.03316 116.38194 116.73074 117.07954 117.42834 117.77713 118.12595 118.47473 118.82353 119.17233 119.52112 119.86992 120.21872 120.56752 120.91632 121.2651 121.6139 121.9627 122.3115 122.66031 123.0091 123.3579 123.7067 124.05548 124.40428 124.75308 125.10188 125.45067 125.79948 126.14827 126.49707 126.84586 127.19466 127.54347 127.89224 128.24106 128.58985 128.93865"/>
<path transform="matrix(1.00003,0,0,-1.00003,39.57126,77.202838)" stroke-width=".79701" stroke-linecap="butt" stroke-miterlimit="10" stroke-linejoin="miter" fill="none" stroke="#0000ff" d="M61.6202 19.84267C61.6202 20.99815 60.6835 21.93483 59.52802 21.93483 58.37253 21.93483 57.43585 20.99815 57.43585 19.84267 57.43585 18.68718 58.37253 17.75049 59.52802 17.75049 60.6835 17.75049 61.6202 18.68718 61.6202 19.84267ZM59.52802 19.84267"/>
<path transform="matrix(1.00003,0,0,-1.00003,39.57126,77.202838)" d="M61.6202 .0024C61.6202 1.15788 60.6835 2.09457 59.52802 2.09457 58.37253 2.09457 57.43585 1.15788 57.43585 .0024 57.43585-1.15308 58.37253-2.08977 59.52802-2.08977 60.6835-2.08977 61.6202-1.15308 61.6202 .0024ZM59.52802 .0024" fill="#009900"/>
<use data-text="1" xlink:href="#font_3_4" transform="matrix(7.3327205,0,0,-7.3327205,36.19516,53.03211)" fill="#0000ff"/>
<use data-text="&#x2212;" xlink:href="#font_2_2" transform="matrix(7.3327205,0,0,-7.3327205,41.05831,53.03211)" fill="#0000ff"/>
<use data-text="u" xlink:href="#font_1_2" transform="matrix(7.3327205,0,0,-7.3327205,47.308496,53.03211)" fill="#0000ff"/>
<use data-text="(" xlink:href="#font_3_1" transform="matrix(7.3327205,0,0,-7.3327205,52.242647,53.03211)" fill="#0000ff"/>
<use data-text="t" xlink:href="#font_1_1" transform="matrix(7.3327205,0,0,-7.3327205,54.96872,53.03211)" fill="#0000ff"/>
<use data-text=")" xlink:href="#font_3_2" transform="matrix(7.3327205,0,0,-7.3327205,58.251817,53.03211)" fill="#0000ff"/>
<use data-text="=" xlink:href="#font_2_4" transform="matrix(7.3327205,0,0,-7.3327205,62.18193,53.03211)" fill="#0000ff"/>
<use data-text="0" xlink:href="#font_3_3" transform="matrix(7.3327205,0,0,-7.3327205,68.82213,53.03211)" fill="#0000ff"/>
<use data-text="1" xlink:href="#font_3_4" transform="matrix(7.3327205,0,0,-7.3327205,115.56754,53.03211)" fill="#009900"/>
<use data-text="&#x2212;" xlink:href="#font_2_2" transform="matrix(7.3327205,0,0,-7.3327205,120.430698,53.03211)" fill="#009900"/>
<use data-text="u" xlink:href="#font_1_2" transform="matrix(7.3327205,0,0,-7.3327205,126.68088,53.03211)" fill="#009900"/>
<use data-text="(" xlink:href="#font_3_1" transform="matrix(7.3327205,0,0,-7.3327205,131.61502,53.03211)" fill="#009900"/>
<use data-text="t" xlink:href="#font_1_1" transform="matrix(7.3327205,0,0,-7.3327205,134.3411,53.03211)" fill="#009900"/>
<use data-text=")" xlink:href="#font_3_2" transform="matrix(7.3327205,0,0,-7.3327205,137.6242,53.03211)" fill="#009900"/>
<use data-text="=" xlink:href="#font_2_4" transform="matrix(7.3327205,0,0,-7.3327205,141.55432,53.03211)" fill="#009900"/>
<use data-text="1" xlink:href="#font_3_4" transform="matrix(7.3327205,0,0,-7.3327205,148.19452,53.03211)" fill="#009900"/>
<use data-text="&#x201c;" xlink:href="#font_3_12" transform="matrix(7.3327205,0,0,-7.3327205,46.702474,109.481807)" fill="#0000ff"/>
<use data-text="o" xlink:href="#font_3_11" transform="matrix(7.3327205,0,0,-7.3327205,49.47424,109.481807)" fill="#0000ff"/>
<use data-text="f" xlink:href="#font_3_9" transform="matrix(7.3327205,0,0,-7.3327205,53.70522,109.481807)" fill="#0000ff"/>
<use data-text="f" xlink:href="#font_3_9" transform="matrix(7.3327205,0,0,-7.3327205,56.044355,109.481807)" fill="#0000ff"/>
<use data-text="&#x201d;" xlink:href="#font_3_13" transform="matrix(7.3327205,0,0,-7.3327205,58.845449,109.481807)" fill="#0000ff"/>
<use data-text="&#x201c;" xlink:href="#font_3_12" transform="matrix(7.3327205,0,0,-7.3327205,126.67687,109.481807)" fill="#009900"/>
<use data-text="o" xlink:href="#font_3_11" transform="matrix(7.3327205,0,0,-7.3327205,129.44864,109.481807)" fill="#009900"/>
<use data-text="n" xlink:href="#font_3_10" transform="matrix(7.3327205,0,0,-7.3327205,133.67963,109.481807)" fill="#009900"/>
<use data-text="&#x201d;" xlink:href="#font_3_13" transform="matrix(7.3327205,0,0,-7.3327205,137.62464,109.481807)" fill="#009900"/>
<use data-text="&#xfffd;" xlink:href="#font_2_1" transform="matrix(7.3327205,0,0,-7.3327205,1.0931015,66.766529)"/>
<path transform="matrix(1.00003,0,0,-1.00003,-107.480159,11.572865)" stroke-width=".4224" stroke-linecap="butt" stroke-miterlimit="10" stroke-linejoin="miter" fill="none" stroke="#000000" d="M114.675-54.98H118.118"/>
<use data-text="t" xlink:href="#font_1_1" transform="matrix(7.3327205,0,0,-7.3327205,7.357292,72.7787)"/>
<use data-text="&#x00b7;" xlink:href="#font_2_3" transform="matrix(7.3327205,0,0,-7.3327205,11.615425,72.7787)"/>
<use data-text="0" xlink:href="#font_3_3" transform="matrix(7.3327205,0,0,-7.3327205,14.629517,72.7787)" fill="#0000ff"/>
<use data-text="&#xfffd;" xlink:href="#font_2_1" transform="matrix(7.3327205,0,0,-7.3327205,56.65377,66.766529)"/>
<path transform="matrix(1.00003,0,0,-1.00003,-51.919488,11.572865)" stroke-width=".4224" stroke-linecap="butt" stroke-miterlimit="10" stroke-linejoin="miter" fill="none" stroke="#000000" d="M114.675-54.98H118.118"/>
<use data-text="t" xlink:href="#font_1_1" transform="matrix(7.3327205,0,0,-7.3327205,62.91796,72.7787)"/>
<use data-text="&#x00b7;" xlink:href="#font_2_3" transform="matrix(7.3327205,0,0,-7.3327205,67.176097,72.7787)"/>
<use data-text="1" xlink:href="#font_3_4" transform="matrix(7.3327205,0,0,-7.3327205,70.190189,72.7787)" fill="#009900"/>
</svg>
