<svg xmlns="http://www.w3.org/2000/svg" xmlns:xlink="http://www.w3.org/1999/xlink" version="1.1" width="91" height="142" viewBox="0 0 91 142">
<defs>
<path id="font_1_6" d="M.4850006 .13195801 .45700074 .13696289C.43598939 .08299255 .41600038 .07598877 .37599183 .07598877H.11999512C.13598633 .1279602 .19499207 .19892884 .28799439 .2658844 .38398744 .33584596 .45799256 .38082887 .45799256 .49276734 .45799256 .63168337 .3659973 .6796875 .26098634 .6796875 .12399292 .6796875 .052993776 .5967102 .052993776 .54473879 .052993776 .51075747 .09098816 .49476625 .10798645 .49476625 .12599182 .49476625 .1329956 .50476077 .13699341 .5217438 .15299988 .5897064 .19198609 .64468386 .2539978 .64468386 .33099366 .64468386 .35299684 .5797119 .35299684 .50675967 .35299684 .3998108 .29899598 .33984376 .21199036 .26289369 .08898926 .15594483 .04598999 .08798218 .026992798 .009994507L.036987306 0H.45098878L.4850006 .13195801Z"/>
<path id="font_1_8" d="M.2999878 .17871094V.0769043C.2999878 .04296875 .2889862 .036987306 .2649994 .034988405L.20098877 .0289917V0H.46499635V.0289917L.41999818 .033981325C.39698792 .036987306 .3899994 .04296875 .3899994 .0769043V.17871094H.49299623V.22570801H.3899994V.66796877H.31698609C.22299195 .5298767 .11099243 .35577394 .018997193 .19970703L.027999878 .17871094H.2999878M.09098816 .22570801C.15098572 .33476258 .22099304 .4498291 .2979889 .5709076H.2999878V.22570801H.09098816Z"/>
<path id="font_2_1" d="M.42799378 .45222474 .43899537 .49023438H.31199647L.34599305 .6092224 .33399964 .6162262 .23699951 .53923037 .22399903 .49023438H.14299011L.13198853 .45222474H.21499634L.125 .08627319C.10998535 .029266358 .12199402-.01171875 .17199707-.01171875 .2519989-.01171875 .31599427 .054275514 .35598756 .1292572L.33399964 .1462555C.31098939 .10726929 .2599945 .040267946 .22898865 .040267946 .20799256 .040267946 .20799256 .0632782 .21398926 .088272098L.30299378 .45222474H.42799378Z"/>
<path id="font_3_1" d="M.6349945 .2529297V.31092835H.084991458V.2529297H.6349945Z"/>
<path id="font_1_9" d="M.27198792-.01171875C.41999818-.01171875 .49899293 .07821655 .49899293 .2140503 .49899293 .3488922 .4119873 .42385865 .30799867 .421875 .23199463 .42385865 .17199707 .36886598 .14498902 .33590699H.14299011C.14399719 .5557556 .20698548 .64468386 .29699708 .64468386 .34298707 .64468386 .375 .6057129 .3899994 .5487671 .3929901 .5367737 .40098573 .527771 .41600038 .527771 .43798829 .527771 .46899415 .5447693 .46899415 .57273867 .46899415 .6127014 .41999818 .6796875 .2999878 .6796875 .22099304 .6796875 .16499329 .64967349 .12298584 .6017151 .07798767 .5497589 .04399109 .45384217 .04399109 .3089447 .04399109 .093185428 .12199402-.01171875 .27198792-.01171875M.27398683 .37086488C.33699037 .37086488 .39898683 .31393434 .39898683 .19906616 .39898683 .094192508 .35798646 .023269654 .27398683 .023269654 .18699646 .023269654 .14498902 .11616516 .14498902 .23602295 .14498902 .2969513 .18998719 .37086488 .27398683 .37086488Z"/>
<path id="font_2_2" d="M.070999149 .45393373 .07398987 .42893983 .14199829 .43093873C.1639862 .43193055 .16899109 .41493226 .1769867 .36291505 .18798828 .28489686 .20999146 .09286499 .20999146 .0128479 .20999146-.017166138 .20799256-.058166505 .18598938-.11117554 .16799927-.15318299 .14199829-.18218994 .12199402-.18218994 .10699463-.18218994 .09599304-.17118836 .08099365-.15118408 .068984989-.13517761 .06098938-.127182 .04598999-.127182 .019989014-.12818909-.005004883-.15818787-.005004883-.18719483-.005004883-.21418762 .023986817-.2421875 .067993167-.2421875 .15299988-.2421875 .18998719-.17919922 .27799989-.027160645 .2979889 .0068511965 .35798646 .11286926 .41999818 .21488953 .47698976 .30891419 .5399933 .40592958 .5399933 .4459381 .5399933 .48094178 .5289917 .5019531 .5219879 .5019531 .5029907 .5019531 .46899415 .49394227 .44400025 .47694398 .44499208 .4419403 .44299317 .3809204 .43099977 .33891297 .4149933 .28289796 .35598756 .17488098 .2899933 .06085205H.2869873C.27999879 .21388245 .26098634 .42492677 .24699402 .49795533L.23899842 .5019531 .070999149 .45393373Z"/>
<path id="font_1_1" d="M.1749878 .2822113C.1749878 .56832888 .2619934 .65437319 .32499696 .66737368V.6923828C.1499939 .685379 .10499573 .46829225 .10499573 .2822113 .10499573 .09614563 .1499939-.12094116 .32499696-.12792969V-.10293579C.2669983-.090927127 .1749878-.0059051516 .1749878 .2822113Z"/>
<path id="font_1_4" d="M.2649994 .64468386C.3600006 .64468386 .3869934 .49682618 .3869934 .33398438 .3869934 .17112732 .3600006 .023269654 .2649994 .023269654 .16999817 .023269654 .14299011 .17112732 .14299011 .33398438 .14299011 .49682618 .16999817 .64468386 .2649994 .64468386M.2649994 .6796875C.099990848 .6796875 .040985109 .53378298 .040985109 .33398438 .040985109 .13417053 .099990848-.01171875 .2649994-.01171875 .42999269-.01171875 .4889984 .13417053 .4889984 .33398438 .4889984 .53378298 .42999269 .6796875 .2649994 .6796875Z"/>
<path id="font_1_3" d="M.069992069-.140625C.11999512-.09362793 .19299317-.027633667 .19299317 .051361085 .19299317 .10636902 .1599884 .1423645 .125 .14137268 .09399414 .14137268 .07598877 .117370609 .07598877 .09136963 .07598877 .055374147 .10899353 .037368776 .10899353-.005630493 .10899353-.04663086 .08299255-.086639408 .050994874-.12162781L.069992069-.140625Z"/>
<path id="font_1_5" d="M.43699647 0V.0289917L.35299684 .035995485C.33198548 .037994386 .31999208 .04598999 .31999208 .08496094V.67367556L.31498719 .6796875 .10899353 .6446991V.6197052L.20199585 .6087036C.21899414 .6067047 .22599793 .5987091 .22599793 .56973269V.08496094C.22599793 .065979007 .22299195 .053985597 .21699524 .04698181 .21199036 .039993287 .20399475 .036987306 .19299317 .035995485L.10899353 .0289917V0H.43699647Z"/>
<path id="font_1_2" d="M.1749878 .2822113C.1749878-.0059051516 .08299255-.090927127 .024993897-.10293579V-.12792969C.19999695-.12094116 .24499512 .09614563 .24499512 .2822113 .24499512 .46829225 .19999695 .685379 .024993897 .6923828V.66737368C.08799744 .65437319 .1749878 .56832888 .1749878 .2822113Z"/>
<path id="font_1_7" d="M.12998963 .3657837C.12998963 .3487854 .1349945 .33779908 .147995 .33779908 .1599884 .33779908 .18699646 .34777833 .23498535 .34777833 .31999208 .34777833 .36799623 .27090455 .36799623 .18403626 .36799623 .065216068 .30899049 .023269654 .23799134 .023269654 .17199707 .023269654 .1289978 .07319641 .10998535 .12911988 .10398865 .14808655 .09399414 .15707398 .07998657 .15707398 .06199646 .15707398 .026992798 .13809204 .026992798 .10215759 .026992798 .05921936 .09599304-.01171875 .23699951-.01171875 .38198854-.01171875 .47299195 .06121826 .47299195 .18902588 .47299195 .32281495 .35798646 .3627777 .30299378 .3677826V.3717804C.35699464 .38078309 .44400025 .4207611 .44400025 .5197296 .44400025 .6306915 .35699464 .6796875 .25 .6796875 .117996219 .6796875 .052993776 .60369876 .052993776 .5607147 .052993776 .5297241 .08799744 .51272585 .101989749 .51272585 .114990238 .51272585 .12298584 .5197296 .1269989 .5327301 .14898682 .60069277 .18699646 .64468386 .24299622 .64468386 .32199098 .64468386 .34098817 .57470706 .34098817 .51872256 .34098817 .4587555 .31999208 .38378907 .23498535 .38378907 .18699646 .38378907 .1599884 .39378358 .147995 .39378358 .1349945 .39378358 .12998963 .38378907 .12998963 .3657837Z"/>
</defs>
<path transform="matrix(1,0,0,-1,19.311997,100.892)" stroke-width=".3985" stroke-linecap="butt" stroke-miterlimit="10" stroke-linejoin="miter" fill="none" stroke="#cbcbcb" d="M-14.17339-39.68556V96.37918"/>
<path transform="matrix(1,0,0,-1,19.311997,100.892)" stroke-width=".3985" stroke-linecap="butt" stroke-miterlimit="10" stroke-linejoin="miter" fill="none" stroke="#cbcbcb" d="M14.17339-39.68556V96.37918"/>
<path transform="matrix(1,0,0,-1,19.311997,100.892)" stroke-width=".3985" stroke-linecap="butt" stroke-miterlimit="10" stroke-linejoin="miter" fill="none" stroke="#cbcbcb" d="M28.3468-39.68556V96.37918"/>
<path transform="matrix(1,0,0,-1,19.311997,100.892)" stroke-width=".3985" stroke-linecap="butt" stroke-miterlimit="10" stroke-linejoin="miter" fill="none" stroke="#cbcbcb" d="M42.5202-39.68556V96.37918"/>
<path transform="matrix(1,0,0,-1,19.311997,100.892)" stroke-width=".3985" stroke-linecap="butt" stroke-miterlimit="10" stroke-linejoin="miter" fill="none" stroke="#cbcbcb" d="M56.69362-39.68556V96.37918"/>
<path transform="matrix(1,0,0,-1,19.311997,100.892)" stroke-width=".3985" stroke-linecap="butt" stroke-miterlimit="10" stroke-linejoin="miter" fill="none" stroke="#000000" d="M28.3468-.99222V.99222"/>
<use data-text="2" xlink:href="#font_1_6" transform="matrix(10.0364,0,0,-10.0364,44.996995,111.011)"/>
<path transform="matrix(1,0,0,-1,19.311997,100.892)" stroke-width=".3985" stroke-linecap="butt" stroke-miterlimit="10" stroke-linejoin="miter" fill="none" stroke="#000000" d="M56.69362-.99222V.99222"/>
<use data-text="4" xlink:href="#font_1_8" transform="matrix(10.0364,0,0,-10.0364,73.343997,111.011)"/>
<path transform="matrix(1,0,0,-1,19.311997,100.892)" stroke-width=".3985" stroke-linecap="butt" stroke-miterlimit="10" stroke-linejoin="miter" fill="none" stroke="#000000" d="M-17.00803 0H67.5741"/>
<path transform="matrix(1,0,0,-1,86.88609,100.892)" stroke-width=".31879" stroke-linecap="round" stroke-linejoin="round" fill="none" stroke="#000000" d="M-1.19551 1.59401C-1.09587 .99626 0 .09961 .29886 0 0-.09961-1.09587-.99626-1.19551-1.59401"/>
<use data-text="t" xlink:href="#font_2_1" transform="matrix(10.0364,0,0,-10.0364,85.207,110.476)"/>
<path transform="matrix(1,0,0,-1,19.311997,100.892)" stroke-width=".3985" stroke-linecap="butt" stroke-miterlimit="10" stroke-linejoin="miter" fill="none" stroke="#cbcbcb" d="M-17.00803-28.3468H68.03238"/>
<path transform="matrix(1,0,0,-1,19.311997,100.892)" stroke-width=".3985" stroke-linecap="butt" stroke-miterlimit="10" stroke-linejoin="miter" fill="none" stroke="#cbcbcb" d="M-17.00803-14.17339H68.03238"/>
<path transform="matrix(1,0,0,-1,19.311997,100.892)" stroke-width=".3985" stroke-linecap="butt" stroke-miterlimit="10" stroke-linejoin="miter" fill="none" stroke="#cbcbcb" d="M-17.00803 14.17339H68.03238"/>
<path transform="matrix(1,0,0,-1,19.311997,100.892)" stroke-width=".3985" stroke-linecap="butt" stroke-miterlimit="10" stroke-linejoin="miter" fill="none" stroke="#cbcbcb" d="M-17.00803 28.3468H68.03238"/>
<path transform="matrix(1,0,0,-1,19.311997,100.892)" stroke-width=".3985" stroke-linecap="butt" stroke-miterlimit="10" stroke-linejoin="miter" fill="none" stroke="#cbcbcb" d="M-17.00803 42.5202H68.03238"/>
<path transform="matrix(1,0,0,-1,19.311997,100.892)" stroke-width=".3985" stroke-linecap="butt" stroke-miterlimit="10" stroke-linejoin="miter" fill="none" stroke="#cbcbcb" d="M-17.00803 56.69362H68.03238"/>
<path transform="matrix(1,0,0,-1,19.311997,100.892)" stroke-width=".3985" stroke-linecap="butt" stroke-miterlimit="10" stroke-linejoin="miter" fill="none" stroke="#cbcbcb" d="M-17.00803 70.867H68.03238"/>
<path transform="matrix(1,0,0,-1,19.311997,100.892)" stroke-width=".3985" stroke-linecap="butt" stroke-miterlimit="10" stroke-linejoin="miter" fill="none" stroke="#cbcbcb" d="M-17.00803 85.04042H68.03238"/>
<path transform="matrix(1,0,0,-1,19.311997,100.892)" stroke-width=".3985" stroke-linecap="butt" stroke-miterlimit="10" stroke-linejoin="miter" fill="none" stroke="#000000" d="M-.99222-28.3468H.99222"/>
<use data-text="&#x2212;" xlink:href="#font_3_1" transform="matrix(7.3325,0,0,-7.3325,6.746994,131.694)"/>
<use data-text="2" xlink:href="#font_1_6" transform="matrix(7.3325,0,0,-7.3325,12.023994,131.694)"/>
<path transform="matrix(1,0,0,-1,19.311997,100.892)" stroke-width=".3985" stroke-linecap="butt" stroke-miterlimit="10" stroke-linejoin="miter" fill="none" stroke="#000000" d="M-.99222 28.3468H.99222"/>
<use data-text="2" xlink:href="#font_1_6" transform="matrix(7.3325,0,0,-7.3325,12.023994,75)"/>
<path transform="matrix(1,0,0,-1,19.311997,100.892)" stroke-width=".3985" stroke-linecap="butt" stroke-miterlimit="10" stroke-linejoin="miter" fill="none" stroke="#000000" d="M-.99222 56.69362H.99222"/>
<use data-text="4" xlink:href="#font_1_8" transform="matrix(7.3325,0,0,-7.3325,12.023994,46.653)"/>
<path transform="matrix(1,0,0,-1,19.311997,100.892)" stroke-width=".3985" stroke-linecap="butt" stroke-miterlimit="10" stroke-linejoin="miter" fill="none" stroke="#000000" d="M-.99222 85.04042H.99222"/>
<use data-text="6" xlink:href="#font_1_9" transform="matrix(7.3325,0,0,-7.3325,12.023994,18.285996)"/>
<path transform="matrix(1,0,0,-1,19.311997,100.892)" stroke-width=".3985" stroke-linecap="butt" stroke-miterlimit="10" stroke-linejoin="miter" fill="none" stroke="#000000" d="M0-39.68556V95.9209"/>
<path transform="matrix(0,-1,-1,-0,19.311997,4.9711)" stroke-width=".31879" stroke-linecap="round" stroke-linejoin="round" fill="none" stroke="#000000" d="M-1.19551 1.59401C-1.09587 .99626 0 .09961 .29886 0 0-.09961-1.09587-.99626-1.19551-1.59401"/>
<use data-text="y" xlink:href="#font_2_2" transform="matrix(10.0364,0,0,-10.0364,23.257004,5.762001)"/>
<path transform="matrix(1,0,0,-1,19.311997,100.892)" stroke-width="1.59404" stroke-linecap="butt" stroke-miterlimit="10" stroke-linejoin="miter" fill="none" stroke="#000000" d="M-16.33939-38.68236-13.46468-34.37032-9.92133-29.0553-6.37796-23.74026-2.83463-18.42523 .7087-13.11043 4.25204-7.7954 7.7954-2.48038 11.33876 2.83463 14.88211 8.14966 18.42546 13.46468 21.96881 18.7797 25.51215 24.09473 29.0555 29.40976 32.59886 34.72478 36.14221 40.03981 39.68556 45.35484 43.22891 50.66986 46.77226 55.9849 50.31563 61.29991 53.85896 66.61494 57.40231 71.92998 60.94566 77.245 64.48901 82.56003 67.36372 86.87207"/>
<path transform="matrix(-.55467,.83202,.83202,.55467,2.9726258,139.57436)" stroke-width="1.27522" stroke-linecap="round" stroke-linejoin="round" fill="none" stroke="#000000" d="M-2.27148 3.02866C-2.0822 1.8929 0 .18927 .56786 0 0-.18927-2.0822-1.8929-2.27148-3.02866"/>
<path transform="matrix(.55467,-.83202,-.83202,-.55467,86.675708,14.019928)" stroke-width="1.27522" stroke-linecap="round" stroke-linejoin="round" fill="none" stroke="#000000" d="M-2.27148 3.02866C-2.0822 1.8929 0 .18927 .56786 0 0-.18927-2.0822-1.8929-2.27148-3.02866"/>
<path transform="matrix(1,0,0,-1,19.311997,100.892)" stroke-width=".3985" stroke-linecap="butt" stroke-miterlimit="10" stroke-linejoin="miter" fill="none" stroke="#000000" d="M11.33876-14.17339"/>
<path transform="matrix(1,0,0,-1,19.311997,100.892)" d="M-2.72751-24.14609H25.40506V-14.372649H-2.72751Z" fill="#ffffff"/>
<use data-text="(" xlink:href="#font_1_1" transform="matrix(9.1656,0,0,-9.1656,17.580994,122.746997)"/>
<use data-text="0" xlink:href="#font_1_4" transform="matrix(9.1656,0,0,-9.1656,20.788956,122.746997)"/>
<use data-text="," xlink:href="#font_1_3" transform="matrix(9.1656,0,0,-9.1656,25.64672,122.746997)"/>
<use data-text="&#x2212;" xlink:href="#font_3_1" transform="matrix(9.1656,0,0,-9.1656,29.055993,122.746997)"/>
<use data-text="1" xlink:href="#font_1_5" transform="matrix(9.1656,0,0,-9.1656,35.650987,122.746997)"/>
<use data-text=")" xlink:href="#font_1_2" transform="matrix(9.1656,0,0,-9.1656,40.50876,122.746997)"/>
<path transform="matrix(1,0,0,-1,19.311997,100.892)" stroke-width="1.19553" stroke-linecap="butt" stroke-miterlimit="10" stroke-linejoin="miter" fill="none" stroke="#0033cc" d="M0-14.17339V27.39038"/>
<path transform="matrix(0,-1,-1,-0,19.311997,73.50162)" stroke-width=".9564" stroke-linecap="round" stroke-linejoin="round" fill="none" stroke="#0033cc" d="M-1.91284 2.55046C-1.75343 1.59402 0 .15938 .4782 0 0-.15938-1.75343-1.59402-1.91284-2.55046"/>
<path transform="matrix(1,0,0,-1,19.311997,100.892)" d="M-4.42345 2.00072H4.4234607V12.17266H-4.42345Z" fill="#ffffff"/>
<use data-text="3" xlink:href="#font_1_7" transform="matrix(9.1656,0,0,-9.1656,16.880997,96.849)" fill="#0033cc"/>
<path transform="matrix(1,0,0,-1,19.311997,100.892)" stroke-width="1.19553" stroke-linecap="butt" stroke-miterlimit="10" stroke-linejoin="miter" fill="none" stroke="#009966" d="M0 28.3468H25.97295"/>
<path transform="matrix(1,0,0,-1,45.284948,72.5452)" stroke-width=".9564" stroke-linecap="round" stroke-linejoin="round" fill="none" stroke="#009966" d="M-1.91284 2.55046C-1.75343 1.59402 0 .15938 .4782 0 0-.15938-1.75343-1.59402-1.91284-2.55046"/>
<path transform="matrix(1,0,0,-1,19.311997,100.892)" d="M10.03749 24.28201H16.89184V32.41159H10.03749Z" fill="#ffffff"/>
<use data-text="2" xlink:href="#font_1_6" transform="matrix(9.1656,0,0,-9.1656,30.345993,75.614)" fill="#009966"/>
<path transform="matrix(1,0,0,-1,19.311997,100.892)" d="M1.49442-14.17339C1.49442-13.34804 .82533-12.67897 0-12.67897-.82533-12.67897-1.49442-13.34804-1.49442-14.17339-1.49442-14.99873-.82533-15.6678 0-15.6678 .82533-15.6678 1.49442-14.99873 1.49442-14.17339ZM0-14.17339" fill="#ffffff"/>
<path transform="matrix(1,0,0,-1,19.311997,100.892)" stroke-width="1.19553" stroke-linecap="butt" stroke-miterlimit="10" stroke-linejoin="miter" fill="none" stroke="#000000" d="M1.49442-14.17339C1.49442-13.34804 .82533-12.67897 0-12.67897-.82533-12.67897-1.49442-13.34804-1.49442-14.17339-1.49442-14.99873-.82533-15.6678 0-15.6678 .82533-15.6678 1.49442-14.99873 1.49442-14.17339ZM0-14.17339"/>
<path transform="matrix(1,0,0,-1,19.311997,100.892)" stroke-width="1.19553" stroke-linecap="butt" stroke-miterlimit="10" stroke-linejoin="miter" fill="none" stroke="#0033cc" d="M28.3468 28.3468V69.9106"/>
<path transform="matrix(0,-1,-1,-0,47.6588,30.9814)" stroke-width=".9564" stroke-linecap="round" stroke-linejoin="round" fill="none" stroke="#0033cc" d="M-1.91284 2.55046C-1.75343 1.59402 0 .15938 .4782 0 0-.15938-1.75343-1.59402-1.91284-2.55046"/>
<path transform="matrix(1,0,0,-1,19.311997,100.892)" d="M23.92334 44.52094H32.77025V54.69288H23.92334Z" fill="#ffffff"/>
<use data-text="3" xlink:href="#font_1_7" transform="matrix(9.1656,0,0,-9.1656,45.227998,54.329)" fill="#0033cc"/>
<path transform="matrix(1,0,0,-1,19.311997,100.892)" stroke-width="1.19553" stroke-linecap="butt" stroke-miterlimit="10" stroke-linejoin="miter" fill="none" stroke="#009966" d="M28.3468 70.867H54.31976"/>
<path transform="matrix(1,0,0,-1,73.63176,30.025002)" stroke-width=".9564" stroke-linecap="round" stroke-linejoin="round" fill="none" stroke="#009966" d="M-1.91284 2.55046C-1.75343 1.59402 0 .15938 .4782 0 0-.15938-1.75343-1.59402-1.91284-2.55046"/>
<path transform="matrix(1,0,0,-1,19.311997,100.892)" d="M38.38431 66.80222H45.238664V74.9318H38.38431Z" fill="#ffffff"/>
<use data-text="2" xlink:href="#font_1_6" transform="matrix(9.1656,0,0,-9.1656,58.692998,33.092996)" fill="#009966"/>
<path transform="matrix(1,0,0,-1,19.311997,100.892)" d="M29.84122 28.3468C29.84122 29.17215 29.17215 29.84122 28.3468 29.84122 27.52145 29.84122 26.85239 29.17215 26.85239 28.3468 26.85239 27.52145 27.52145 26.85239 28.3468 26.85239 29.17215 26.85239 29.84122 27.52145 29.84122 28.3468ZM28.3468 28.3468" fill="#ffffff"/>
<path transform="matrix(1,0,0,-1,19.311997,100.892)" stroke-width="1.19553" stroke-linecap="butt" stroke-miterlimit="10" stroke-linejoin="miter" fill="none" stroke="#000000" d="M29.84122 28.3468C29.84122 29.17215 29.17215 29.84122 28.3468 29.84122 27.52145 29.84122 26.85239 29.17215 26.85239 28.3468 26.85239 27.52145 27.52145 26.85239 28.3468 26.85239 29.17215 26.85239 29.84122 27.52145 29.84122 28.3468ZM28.3468 28.3468"/>
<path transform="matrix(1,0,0,-1,19.311997,100.892)" d="M58.18803 70.867C58.18803 71.69235 57.51895 72.36142 56.69362 72.36142 55.86827 72.36142 55.1992 71.69235 55.1992 70.867 55.1992 70.04166 55.86827 69.37259 56.69362 69.37259 57.51895 69.37259 58.18803 70.04166 58.18803 70.867ZM56.69362 70.867" fill="#ffffff"/>
<path transform="matrix(1,0,0,-1,19.311997,100.892)" stroke-width="1.19553" stroke-linecap="butt" stroke-miterlimit="10" stroke-linejoin="miter" fill="none" stroke="#000000" d="M58.18803 70.867C58.18803 71.69235 57.51895 72.36142 56.69362 72.36142 55.86827 72.36142 55.1992 71.69235 55.1992 70.867 55.1992 70.04166 55.86827 69.37259 56.69362 69.37259 57.51895 69.37259 58.18803 70.04166 58.18803 70.867ZM56.69362 70.867"/>
</svg>
