<svg xmlns="http://www.w3.org/2000/svg" xmlns:xlink="http://www.w3.org/1999/xlink" version="1.1" width="93" height="126" viewBox="0 0 93 126">
<defs>
<path id="font_1_1" d="M.42799378 .45222474 .43899537 .49023438H.31199647L.34599305 .6092224 .33399964 .6162262 .23699951 .53923037 .22399903 .49023438H.14299011L.13198853 .45222474H.21499634L.125 .08627319C.10998535 .029266358 .12199402-.01171875 .17199707-.01171875 .2519989-.01171875 .31599427 .054275514 .35598756 .1292572L.33399964 .1462555C.31098939 .10726929 .2599945 .040267946 .22898865 .040267946 .20799256 .040267946 .20799256 .0632782 .21398926 .088272098L.30299378 .45222474H.42799378Z"/>
<path id="font_2_1" d="M.6349945 .2529297V.31092835H.084991458V.2529297H.6349945Z"/>
<path id="font_3_5" d="M.4850006 .13195801 .45700074 .13696289C.43598939 .08299255 .41600038 .07598877 .37599183 .07598877H.11999512C.13598633 .1279602 .19499207 .19892884 .28799439 .2658844 .38398744 .33584596 .45799256 .38082887 .45799256 .49276734 .45799256 .63168337 .3659973 .6796875 .26098634 .6796875 .12399292 .6796875 .052993776 .5967102 .052993776 .54473879 .052993776 .51075747 .09098816 .49476625 .10798645 .49476625 .12599182 .49476625 .1329956 .50476077 .13699341 .5217438 .15299988 .5897064 .19198609 .64468386 .2539978 .64468386 .33099366 .64468386 .35299684 .5797119 .35299684 .50675967 .35299684 .3998108 .29899598 .33984376 .21199036 .26289369 .08898926 .15594483 .04598999 .08798218 .026992798 .009994507L.036987306 0H.45098878L.4850006 .13195801Z"/>
<path id="font_3_4" d="M.43699647 0V.0289917L.35299684 .035995485C.33198548 .037994386 .31999208 .04598999 .31999208 .08496094V.67367556L.31498719 .6796875 .10899353 .6446991V.6197052L.20199585 .6087036C.21899414 .6067047 .22599793 .5987091 .22599793 .56973269V.08496094C.22599793 .065979007 .22299195 .053985597 .21699524 .04698181 .21199036 .039993287 .20399475 .036987306 .19299317 .035995485L.10899353 .0289917V0H.43699647Z"/>
<path id="font_3_3" d="M.2649994 .64468386C.3600006 .64468386 .3869934 .49682618 .3869934 .33398438 .3869934 .17112732 .3600006 .023269654 .2649994 .023269654 .16999817 .023269654 .14299011 .17112732 .14299011 .33398438 .14299011 .49682618 .16999817 .64468386 .2649994 .64468386M.2649994 .6796875C.099990848 .6796875 .040985109 .53378298 .040985109 .33398438 .040985109 .13417053 .099990848-.01171875 .2649994-.01171875 .42999269-.01171875 .4889984 .13417053 .4889984 .33398438 .4889984 .53378298 .42999269 .6796875 .2649994 .6796875Z"/>
<path id="font_3_6" d="M.12998963 .3657837C.12998963 .3487854 .1349945 .33779908 .147995 .33779908 .1599884 .33779908 .18699646 .34777833 .23498535 .34777833 .31999208 .34777833 .36799623 .27090455 .36799623 .18403626 .36799623 .065216068 .30899049 .023269654 .23799134 .023269654 .17199707 .023269654 .1289978 .07319641 .10998535 .12911988 .10398865 .14808655 .09399414 .15707398 .07998657 .15707398 .06199646 .15707398 .026992798 .13809204 .026992798 .10215759 .026992798 .05921936 .09599304-.01171875 .23699951-.01171875 .38198854-.01171875 .47299195 .06121826 .47299195 .18902588 .47299195 .32281495 .35798646 .3627777 .30299378 .3677826V.3717804C.35699464 .38078309 .44400025 .4207611 .44400025 .5197296 .44400025 .6306915 .35699464 .6796875 .25 .6796875 .117996219 .6796875 .052993776 .60369876 .052993776 .5607147 .052993776 .5297241 .08799744 .51272585 .101989749 .51272585 .114990238 .51272585 .12298584 .5197296 .1269989 .5327301 .14898682 .60069277 .18699646 .64468386 .24299622 .64468386 .32199098 .64468386 .34098817 .57470706 .34098817 .51872256 .34098817 .4587555 .31999208 .38378907 .23498535 .38378907 .18699646 .38378907 .1599884 .39378358 .147995 .39378358 .1349945 .39378358 .12998963 .38378907 .12998963 .3657837Z"/>
<path id="font_3_7" d="M.2999878 .17871094V.0769043C.2999878 .04296875 .2889862 .036987306 .2649994 .034988405L.20098877 .0289917V0H.46499635V.0289917L.41999818 .033981325C.39698792 .036987306 .3899994 .04296875 .3899994 .0769043V.17871094H.49299623V.22570801H.3899994V.66796877H.31698609C.22299195 .5298767 .11099243 .35577394 .018997193 .19970703L.027999878 .17871094H.2999878M.09098816 .22570801C.15098572 .33476258 .22099304 .4498291 .2979889 .5709076H.2999878V.22570801H.09098816Z"/>
<path id="font_1_2" d="M.5329895 .48995973C.5039978 .388031 .48799134 .33506776 .46199037 .2741089 .41799928 .173172 .33099366 .040267946 .24798584 .040267946 .21598816 .040267946 .20799256 .070251468 .22299195 .12820435L.31900025 .4970703 .31399537 .50205996 .13198853 .47375489 .12599182 .4497528 .18798828 .44476319C.21199036 .44276429 .21099854 .42778016 .20298767 .39682008L.13398743 .13316345C.11299133 .053253175 .12098694-.01171875 .20098877-.01171875 .29699708-.01171875 .4019928 .09420776 .46199037 .21005249H.46398927L.43099977 .096206668C.4119873 .029266358 .42399598-.01171875 .47698976-.01171875 .548996-.01171875 .60899356 .057250978 .6439972 .13116455L.6199951 .14613343C.59999087 .11218262 .55599978 .040267946 .5279999 .040267946 .5069885 .040267946 .5069885 .06324768 .5149994 .09420776L.621994 .5019531 .5329895 .48995973Z"/>
<path id="font_3_1" d="M.1749878 .2822113C.1749878 .56832888 .2619934 .65437319 .32499696 .66737368V.6923828C.1499939 .685379 .10499573 .46829225 .10499573 .2822113 .10499573 .09614563 .1499939-.12094116 .32499696-.12792969V-.10293579C.2669983-.090927127 .1749878-.0059051516 .1749878 .2822113Z"/>
<path id="font_3_2" d="M.1749878 .2822113C.1749878-.0059051516 .08299255-.090927127 .024993897-.10293579V-.12792969C.19999695-.12094116 .24499512 .09614563 .24499512 .2822113 .24499512 .46829225 .19999695 .685379 .024993897 .6923828V.66737368C.08799744 .65437319 .1749878 .56832888 .1749878 .2822113Z"/>
<path id="font_2_2" d="M.6349945 .14315796V.20117188H.084991458V.14315796H.6349945M.6349945 .36288453V.42089845H.084991458V.36288453H.6349945Z"/>
<path id="font_3_11" d="M.18998719 .7480469C.13999939 .7020416 .07199097 .6350403 .07199097 .56404116 .07199097 .5100403 .10398865 .47703553 .13699341 .4780426 .16699219 .4780426 .18499756 .4990387 .18499756 .5260315 .18499756 .56204226 .1519928 .58303835 .1519928 .6200409 .1519928 .6580353 .17599488 .6960449 .20698548 .7320404L.18998719 .7480469M.36999513 .7480469C.31999208 .7020416 .2519989 .6350403 .2519989 .56404116 .2519989 .5100403 .28399659 .47703553 .31698609 .4780426 .34700013 .4780426 .36499024 .4990387 .36499024 .5260315 .36499024 .56204226 .33198548 .58303835 .33198548 .6200409 .33198548 .6580353 .35598756 .6960449 .3869934 .7320404L.36999513 .7480469Z"/>
<path id="font_3_10" d="M.28799439 .5019531C.12799073 .5019531 .04899597 .40698243 .04899597 .24510193 .04899597 .083236698 .12799073-.01171875 .28799439-.01171875 .44999696-.01171875 .5279999 .083236698 .5279999 .24510193 .5279999 .40698243 .44999696 .5019531 .28799439 .5019531M.15299988 .24510193C.15299988 .38301087 .19699097 .46694947 .28799439 .46694947 .3809967 .46694947 .42399598 .38301087 .42399598 .24510193 .42399598 .10720825 .3809967 .023269654 .28799439 .023269654 .19699097 .023269654 .15299988 .10720825 .15299988 .24510193Z"/>
<path id="font_3_8" d="M.20098877 .45022584H.32299806V.49023438H.20098877L.19699097 .60220339C.19400025 .6971741 .22898865 .70718386 .24499512 .70718386 .2659912 .70718386 .28799439 .6971741 .31298829 .6391907 .31799317 .62919619 .32499696 .6221924 .33999635 .6221924 .3600006 .6221924 .3889923 .6391907 .3889923 .66918948 .3889923 .70217898 .34700013 .7421875 .2669983 .7421875 .21199036 .7421875 .16499329 .71717837 .13999939 .67918398 .116989139 .64419558 .10699463 .5912018 .10699463 .5252228V.49023438H.02999878V.45022584H.10699463V.087020877C.10699463 .035995485 .10398865 .033996583 .03199768 .0289917V0H.29599V.0289917C.20498657 .032989503 .20098877 .034988405 .20098877 .08602905V.45022584Z"/>
<path id="font_3_12" d="M.08898926 .47218324C.13899231 .5181732 .20698548 .58517459 .20698548 .6561737 .20698548 .71017459 .1749878 .7431793 .14199829 .7421875 .11199951 .7421875 .09399414 .72117617 .09399414 .69418337 .09399414 .6581726 .1269989 .6371765 .1269989 .60017397 .1269989 .56217959 .102996829 .5241852 .07199097 .48817445L.08898926 .47218324M.2689972 .47218324C.31900025 .5181732 .3869934 .58517459 .3869934 .6561737 .3869934 .71017459 .35499574 .7431793 .32199098 .7421875 .2919922 .7421875 .27398683 .72117617 .27398683 .69418337 .27398683 .6581726 .30699159 .6371765 .30699159 .60017397 .30699159 .56217959 .2829895 .5241852 .2519989 .48817445L.2689972 .47218324Z"/>
<path id="font_3_9" d="M.5289917 .34295655C.5289917 .4439392 .47399903 .5019531 .38198854 .5019531 .30799867 .5019531 .2619934 .46594239 .19999695 .4259491L.18598938 .5019531 .036987306 .47694398V.45195008L.07499695 .4469452C.100997928 .4429474 .10699463 .4379425 .10699463 .40194703V.08699036C.10699463 .035995485 .10398865 .033996583 .03199768 .0289917V0H.27598573V.0289917C.20498657 .033996583 .20098877 .035995485 .20098877 .08699036V.32095338C.20098877 .34596253 .20298767 .35995484 .21099854 .37594605 .23199463 .4149475 .2769928 .44795228 .32998658 .44795228 .397995 .44795228 .43499757 .40994264 .43499757 .32295228V.08699036C.43499757 .035995485 .43199159 .033996583 .3600006 .0289917V0H.60398867V.0289917C.5329895 .033996583 .5289917 .035995485 .5289917 .08699036V.34295655Z"/>
</defs>
<path transform="matrix(1,0,0,-1,50.107004,93.074)" d="M-41.66972-31.74838V91.27643H-19.84267V-31.74838ZM-19.84267 91.27643" fill="#d9d9ff"/>
<path transform="matrix(1,0,0,-1,50.107004,93.074)" d="M-19.84267-31.74838V91.27643H41.66972V-31.74838ZM41.66972 91.27643" fill="#d9f0d9"/>
<path transform="matrix(1,0,0,-1,50.107004,93.074)" stroke-width=".3985" stroke-linecap="butt" stroke-miterlimit="10" stroke-linejoin="miter" fill="none" stroke="#000000" d="M-41.66972 0H41.21144"/>
<path transform="matrix(1,0,0,-1,91.31844,93.074)" stroke-width=".31879" stroke-linecap="round" stroke-linejoin="round" fill="none" stroke="#000000" d="M-1.19551 1.59401C-1.09587 .99626 0 .09961 .29886 0 0-.09961-1.09587-.99626-1.19551-1.59401"/>
<path transform="matrix(1,0,0,-1,50.107004,93.074)" stroke-width=".3985" stroke-linecap="butt" stroke-miterlimit="10" stroke-linejoin="miter" fill="none" stroke="#000000" d="M0-31.74838V90.81815"/>
<path transform="matrix(0,-1,-1,-0,50.107004,2.255844)" stroke-width=".31879" stroke-linecap="round" stroke-linejoin="round" fill="none" stroke="#000000" d="M-1.19551 1.59401C-1.09587 .99626 0 .09961 .29886 0 0-.09961-1.09587-.99626-1.19551-1.59401"/>
<use data-text="t" xlink:href="#font_1_1" transform="matrix(7.3325,0,0,-7.3325,88.229999,100.992)"/>
<path transform="matrix(1,0,0,-1,50.107004,93.074)" stroke-width=".3985" stroke-linecap="butt" stroke-miterlimit="10" stroke-linejoin="miter" fill="none" stroke="#929292" d="M-39.68535 1.39478V-1.39478"/>
<use data-text="&#x2212;" xlink:href="#font_2_1" transform="matrix(7.3325,0,0,-7.3325,5.838997,102.77699)"/>
<use data-text="2" xlink:href="#font_3_5" transform="matrix(7.3325,0,0,-7.3325,11.114998,102.778)"/>
<path transform="matrix(1,0,0,-1,50.107004,93.074)" stroke-width=".3985" stroke-linecap="butt" stroke-miterlimit="10" stroke-linejoin="miter" fill="none" stroke="#929292" d="M-19.84267 1.39478V-1.39478"/>
<use data-text="&#x2212;" xlink:href="#font_2_1" transform="matrix(7.3325,0,0,-7.3325,25.681,102.77699)"/>
<use data-text="1" xlink:href="#font_3_4" transform="matrix(7.3325,0,0,-7.3325,30.957,102.778)"/>
<path transform="matrix(1,0,0,-1,50.107004,93.074)" stroke-width=".3985" stroke-linecap="butt" stroke-miterlimit="10" stroke-linejoin="miter" fill="none" stroke="#929292" d="M0 1.39478V-1.39478"/>
<use data-text="0" xlink:href="#font_3_3" transform="matrix(7.3325,0,0,-7.3325,48.162004,102.77699)"/>
<path transform="matrix(1,0,0,-1,50.107004,93.074)" stroke-width=".3985" stroke-linecap="butt" stroke-miterlimit="10" stroke-linejoin="miter" fill="none" stroke="#929292" d="M19.84267 1.39478V-1.39478"/>
<use data-text="1" xlink:href="#font_3_4" transform="matrix(7.3325,0,0,-7.3325,68.005008,102.77699)"/>
<path transform="matrix(1,0,0,-1,50.107004,93.074)" stroke-width=".3985" stroke-linecap="butt" stroke-miterlimit="10" stroke-linejoin="miter" fill="none" stroke="#929292" d="M39.68535 1.39478V-1.39478"/>
<use data-text="2" xlink:href="#font_3_5" transform="matrix(7.3325,0,0,-7.3325,87.84801,102.77699)"/>
<path transform="matrix(1,0,0,-1,50.107004,93.074)" stroke-width=".3985" stroke-linecap="butt" stroke-miterlimit="10" stroke-linejoin="miter" fill="none" stroke="#929292" d="M1.39478-19.84267H-1.39478"/>
<use data-text="&#x2212;" xlink:href="#font_2_1" transform="matrix(7.3325,0,0,-7.3325,36.148004,115.371)"/>
<use data-text="1" xlink:href="#font_3_4" transform="matrix(7.3325,0,0,-7.3325,41.424005,115.371997)"/>
<path transform="matrix(1,0,0,-1,50.107004,93.074)" stroke-width=".3985" stroke-linecap="butt" stroke-miterlimit="10" stroke-linejoin="miter" fill="none" stroke="#929292" d="M1.39478 19.84267H-1.39478"/>
<use data-text="1" xlink:href="#font_3_4" transform="matrix(7.3325,0,0,-7.3325,41.424005,75.686)"/>
<path transform="matrix(1,0,0,-1,50.107004,93.074)" stroke-width=".3985" stroke-linecap="butt" stroke-miterlimit="10" stroke-linejoin="miter" fill="none" stroke="#929292" d="M1.39478 39.68535H-1.39478"/>
<use data-text="2" xlink:href="#font_3_5" transform="matrix(7.3325,0,0,-7.3325,41.424005,55.843)"/>
<path transform="matrix(1,0,0,-1,50.107004,93.074)" stroke-width=".3985" stroke-linecap="butt" stroke-miterlimit="10" stroke-linejoin="miter" fill="none" stroke="#929292" d="M1.39478 59.52802H-1.39478"/>
<use data-text="3" xlink:href="#font_3_6" transform="matrix(7.3325,0,0,-7.3325,41.424005,35.981)"/>
<path transform="matrix(1,0,0,-1,50.107004,93.074)" stroke-width=".3985" stroke-linecap="butt" stroke-miterlimit="10" stroke-linejoin="miter" fill="none" stroke="#929292" d="M1.39478 79.37071H-1.39478"/>
<use data-text="4" xlink:href="#font_3_7" transform="matrix(7.3325,0,0,-7.3325,41.424005,16.157998)"/>
<path transform="matrix(1,0,0,-1,50.107004,93.074)" stroke-width=".3985" stroke-linecap="butt" stroke-miterlimit="10" stroke-linejoin="miter" fill="none" stroke="#929292" d="M1.39478 19.84267H-1.39478"/>
<path transform="matrix(1,0,0,-1,50.107004,93.074)" stroke-width="1.19553" stroke-linecap="butt" stroke-miterlimit="10" stroke-linejoin="miter" fill="none" stroke="#0000ff" d="M0 19.84267H-.10445-.2089-.31335-.4178-.52226-.62672-.73117-.83565-.9401-1.04456-1.14902-1.25348-1.35793-1.46237-1.56683-1.6713-1.77576-1.88022-1.98466-2.08913-2.19359-2.29805-2.4025-2.50696-2.61142-2.71587-2.82034-2.92479-3.02925-3.1337-3.23816-3.34262-3.44707-3.55153-3.65599-3.76047-3.86491-3.96936-4.07382-4.17827-4.28275-4.38719-4.49164-4.59612-4.70056-4.80504-4.90948-5.01395-5.1184-5.22284-5.32732-5.43176-5.53624-5.64069-5.74513-5.84961-5.95406-6.05852-6.16296-6.26743-6.37189-6.47633-6.58081-6.68526-6.78972-6.89417-6.99863-7.10309-7.20753-7.31201-7.41646-7.52094-7.62538-7.72983-7.83429-7.93874-8.04321-8.14766-8.2521-8.35658-8.46103-8.5655-8.66995-8.77441-8.87886-8.9833-9.08778-9.19223-9.2967-9.40115-9.5056-9.61008-9.71452-9.81898-9.92343-10.0279-10.13235-10.2368-10.34128-10.44572-10.55019-10.65465-10.7591-10.86356-10.968-11.07248-11.17693-11.2814-11.38585-11.4903-11.59476-11.69922-11.80368-11.90813-12.01257-12.11705-12.2215-12.32597-12.43042-12.53488-12.63933-12.74377-12.84825-12.9527-13.05717-13.16162-13.26607-13.37054-13.47499-13.57945-13.6839-13.78836-13.89282-13.99727-14.10175-14.20619-14.31065-14.41512-14.51956-14.62402-14.72847-14.83295-14.9374-15.04187-15.14632-15.25076-15.35522-15.45969-15.56415-15.6686-15.77304-15.87752-15.98198-16.08644-16.19089-16.29535-16.3998-16.50426-16.60872-16.71317-16.81764-16.92209-17.02655-17.13101-17.23546-17.33992-17.44437-17.54884-17.65329-17.75775-17.86221-17.96666-18.07112-18.17558-18.28004-18.38449-18.48894-18.59341-18.69786-18.80234-18.90678-19.01123-19.11569-19.22015-19.32462-19.42906-19.53352-19.63799-19.74245-19.84691-19.95135-20.05582-20.16026-20.26472-20.36919-20.47363-20.57811-20.68256-20.78703"/>
<path transform="matrix(1,0,0,-1,50.107004,93.074)" stroke-width=".79701" stroke-linecap="butt" stroke-dasharray="2.98883,2.98883" stroke-miterlimit="10" stroke-linejoin="miter" fill="none" stroke="#80cc80" d="M-19.84267 0H-19.53383-19.22499-18.91617-18.60733-18.29851-17.98969-17.68085-17.37201-17.06319-16.75435-16.44553-16.13669-15.82785-15.51903-15.2102-14.90137-14.59254-14.2837-13.97487-13.66606-13.35721-13.04839-12.73955-12.43071-12.1219-11.81306-11.50423-11.1954-10.88657-10.57774-10.26892-9.96007-9.65125-9.3424-9.03358-8.72476-8.41591-8.10709-7.79826-7.48943-7.1806-6.87178-6.56293-6.2541-5.94527-5.63644-5.32762-5.01877-4.70995-4.40114-4.09229-3.78346-3.47464-3.16579-2.85698-2.54813-2.2393-1.93048-1.62163-1.31282-1.004-.69514-.38632-.0775 .2313 .54013 .84897 1.15779 1.46663 1.77545 2.08429 2.39311 2.70195 3.01077 3.3196 3.62843 3.93727 4.24611 4.55493 4.86375 5.17259 5.48143 5.79025 6.09909 6.40791 6.71674 7.02557 7.33441 7.64325 7.95207 8.2609 8.56973 8.87857 9.1874 9.49622 9.80505 10.11388 10.42271 10.73155 11.04037 11.34921 11.65804 11.96687 12.27571 12.58452 12.89337 13.2022 13.51102 13.81985 14.12868 14.43752 14.74635 15.05518 15.36401 15.67284 15.98166 16.29051 16.59933 16.90816 17.217 17.52582 17.83466 18.1435 18.45232 18.76115 19.06998 19.3788 19.68765 19.99646 20.30528 20.61414 20.92296 21.2318 21.54062 21.84944 22.1583 22.46712 22.77594 23.08478 23.3936 23.70244 24.01128 24.3201 24.62894 24.93776 25.24658 25.55544 25.86426 26.17308 26.48192 26.79074 27.09958 27.40842 27.71722 28.02608 28.3349 28.64372 28.95258 29.26138 29.57022 29.87906 30.18788 30.49672 30.80554 31.11436 31.42322 31.73204 32.04086 32.3497 32.65852 32.96736 33.2762 33.58502 33.89384 34.20268 34.51152 34.82036 35.12918 35.438 35.74684 36.05566 36.3645 36.67334 36.98216 37.29099 37.59982 37.90866 38.2175 38.5263 38.83514 39.14398 39.4528 39.76164 40.07047 40.3793 40.68813 40.99696 41.3058 41.61462"/>
<path transform="matrix(1,0,0,-1,50.107004,93.074)" stroke-width=".79701" stroke-linecap="butt" stroke-miterlimit="10" stroke-linejoin="miter" fill="none" stroke="#0000ff" d="M-17.75049 19.84267C-17.75049 20.99815-18.68718 21.93483-19.84267 21.93483-20.99815 21.93483-21.93483 20.99815-21.93483 19.84267-21.93483 18.68718-20.99815 17.75049-19.84267 17.75049-18.68718 17.75049-17.75049 18.68718-17.75049 19.84267ZM-19.84267 19.84267"/>
<use data-text="1" xlink:href="#font_3_4" transform="matrix(7.3325,0,0,-7.3325,1.0930023,68.904)" fill="#0000ff"/>
<use data-text="&#x2212;" xlink:href="#font_2_1" transform="matrix(7.3325,0,0,-7.3325,5.9560015,68.905)" fill="#0000ff"/>
<use data-text="u" xlink:href="#font_1_2" transform="matrix(7.3325,0,0,-7.3325,12.207008,68.904)" fill="#0000ff"/>
<use data-text="(" xlink:href="#font_3_1" transform="matrix(7.3325,0,0,-7.3325,17.140007,68.905)" fill="#0000ff"/>
<use data-text="t" xlink:href="#font_1_1" transform="matrix(7.3325,0,0,-7.3325,19.866005,68.904)" fill="#0000ff"/>
<use data-text=")" xlink:href="#font_3_2" transform="matrix(7.3325,0,0,-7.3325,23.150002,68.905)" fill="#0000ff"/>
<use data-text="=" xlink:href="#font_2_2" transform="matrix(7.3325,0,0,-7.3325,27.079995,68.904)" fill="#0000ff"/>
<use data-text="0" xlink:href="#font_3_3" transform="matrix(7.3325,0,0,-7.3325,33.719995,68.905)" fill="#0000ff"/>
<use data-text="1" xlink:href="#font_3_4" transform="matrix(7.3325,0,0,-7.3325,42.762,68.904)" fill="#009900"/>
<use data-text="&#x2212;" xlink:href="#font_2_1" transform="matrix(7.3325,0,0,-7.3325,47.625,68.905)" fill="#009900"/>
<use data-text="u" xlink:href="#font_1_2" transform="matrix(7.3325,0,0,-7.3325,53.876008,68.904)" fill="#009900"/>
<use data-text="(" xlink:href="#font_3_1" transform="matrix(7.3325,0,0,-7.3325,58.809007,68.905)" fill="#009900"/>
<use data-text="t" xlink:href="#font_1_1" transform="matrix(7.3325,0,0,-7.3325,61.535005,68.904)" fill="#009900"/>
<use data-text=")" xlink:href="#font_3_2" transform="matrix(7.3325,0,0,-7.3325,64.819,68.905)" fill="#009900"/>
<use data-text="=" xlink:href="#font_2_2" transform="matrix(7.3325,0,0,-7.3325,68.74899,68.904)" fill="#009900"/>
<use data-text="1" xlink:href="#font_3_4" transform="matrix(7.3325,0,0,-7.3325,75.38899,68.905)" fill="#009900"/>
<use data-text="&#x201c;" xlink:href="#font_3_11" transform="matrix(7.3325,0,0,-7.3325,11.599998,121.383998)" fill="#0000ff"/>
<use data-text="o" xlink:href="#font_3_10" transform="matrix(7.3325,0,0,-7.3325,14.371681,121.383998)" fill="#0000ff"/>
<use data-text="f" xlink:href="#font_3_8" transform="matrix(7.3325,0,0,-7.3325,18.602532,121.383998)" fill="#0000ff"/>
<use data-text="f" xlink:href="#font_3_8" transform="matrix(7.3325,0,0,-7.3325,20.941605,121.383998)" fill="#0000ff"/>
<use data-text="&#x201d;" xlink:href="#font_3_12" transform="matrix(7.3325,0,0,-7.3325,23.742615,121.383998)" fill="#0000ff"/>
<use data-text="&#x201c;" xlink:href="#font_3_11" transform="matrix(7.3325,0,0,-7.3325,53.871004,121.383998)" fill="#009900"/>
<use data-text="o" xlink:href="#font_3_10" transform="matrix(7.3325,0,0,-7.3325,56.642686,121.383998)" fill="#009900"/>
<use data-text="n" xlink:href="#font_3_9" transform="matrix(7.3325,0,0,-7.3325,60.873537,121.383998)" fill="#009900"/>
<use data-text="&#x201d;" xlink:href="#font_3_12" transform="matrix(7.3325,0,0,-7.3325,64.81841,121.383998)" fill="#009900"/>
</svg>
