<svg xmlns="http://www.w3.org/2000/svg" xmlns:xlink="http://www.w3.org/1999/xlink" version="1.1" width="265" height="94" viewBox="0 0 265 94">
<defs>
<path id="font_1_1" d="M.6589966 .23046875C.6759949 .23046875 .69400027 .23046875 .69400027 .25045777 .69400027 .27046205 .6759949 .27046205 .6589966 .27046205H.117996219C.100997928 .27046205 .08299255 .27046205 .08299255 .25045777 .08299255 .23046875 .100997928 .23046875 .117996219 .23046875H.6589966Z"/>
<path id="font_2_2" d="M.2939911 .64004519C.2939911 .66400149 .2939911 .6660156 .2709961 .6660156 .20899964 .60227969 .12098694 .60227969 .08898926 .60227969V.57128909C.10899353 .57128909 .16799927 .57128909 .21998596 .5972748V.07902527C.21998596 .042999269 .21699524 .0309906 .1269989 .0309906H.09498596V0C.12998963 .0029907227 .21699524 .0029907227 .25698854 .0029907227 .29699708 .0029907227 .38398744 .0029907227 .4189911 0V.0309906H.3869934C.29699708 .0309906 .2939911 .041992189 .2939911 .07902527V.64004519Z"/>
<path id="font_2_3" d="M.1269989 .07699585 .23298645 .18003845C.3889923 .31811524 .44898988 .3721466 .44898988 .47216798 .44898988 .5860901 .35899354 .6660156 .23699951 .6660156 .12399292 .6660156 .049987794 .57411196 .049987794 .48516847 .049987794 .4291687 .099990848 .4291687 .102996829 .4291687 .11999512 .4291687 .15499878 .44117738 .15499878 .48217774 .15499878 .5081787 .13699341 .5341797 .101989749 .5341797 .09399414 .5341797 .09199524 .5341797 .08898926 .5331726 .11199951 .59806826 .1659851 .63500979 .22399903 .63500979 .31498719 .63500979 .35798646 .5541382 .35798646 .47216798 .35798646 .39215089 .30799867 .31311036 .25299073 .25108338L.06098938 .036987306C.049987794 .025985718 .049987794 .023986817 .049987794 0H.42099L.44898988 .17404175H.42399598C.4189911 .14402771 .4119873 .1000061 .4019928 .084991458 .394989 .07699585 .32899476 .07699585 .30699159 .07699585H.1269989Z"/>
<path id="font_2_1" d="M.45999146 .31976319C.45999146 .39982606 .45498658 .47988893 .41999818 .5539398 .37399293 .65000918 .2919922 .6660156 .25 .6660156 .18998719 .6660156 .116989139 .64001467 .07598877 .54693606 .04399109 .47789 .038986207 .39982606 .038986207 .31976319 .038986207 .24472046 .042999269 .15464783 .083999637 .07859802 .1269989-.0024719239 .19999695-.022460938 .24899292-.022460938 .30299378-.022460938 .3789978-.0014648438 .4229889 .09359741 .45498658 .16265869 .45999146 .2407074 .45999146 .31976319M.24899292-.00047302247C.20999146-.00047302247 .15098572 .024551392 .1329956 .12062073 .12199402 .18066406 .12199402 .2727356 .12199402 .3317871 .12199402 .39582826 .12199402 .46188355 .12998963 .5159149 .14898682 .63500979 .22399903 .64401248 .24899292 .64401248 .28199769 .64401248 .34799195 .6259918 .36698915 .52693179 .3769989 .47088624 .3769989 .39482118 .3769989 .3317871 .3769989 .25672914 .3769989 .18867493 .3659973 .12461853 .35099793 .029556275 .2939911-.00047302247 .24899292-.00047302247Z"/>
<path id="font_2_10" d="M.36698915 .31781007V.28579713C.36698915 .05178833 .2630005 .0055389406 .20498657 .0055389406 .18798828 .0055389406 .13398743 .007537842 .10699463 .041778566 .15098572 .041778566 .15899658 .07078552 .15899658 .08778381 .15899658 .118774417 .1349945 .13378906 .11299133 .13378906 .09700012 .13378906 .066986087 .12478638 .066986087 .08578491 .066986087 .018615723 .12098694-.022460938 .20599365-.022460938 .33499146-.022460938 .45700074 .11378479 .45700074 .32881166 .45700074 .5979767 .34199525 .6660156 .25299073 .6660156 .19799805 .6660156 .14898682 .64801028 .10598755 .60298159 .06498718 .5579529 .041992189 .5159302 .041992189 .44088746 .041992189 .31581117 .12998963 .21777344 .24198914 .21777344 .30299378 .21777344 .34399415 .25978089 .36698915 .31781007M.24299622 .24076844C.22698975 .24076844 .18099976 .24076844 .1499939 .3038025 .13198853 .3408203 .13198853 .39085389 .13198853 .43988038 .13198853 .49391175 .13198853 .54093936 .15299988 .5779724 .17999268 .6279907 .21798706 .64100649 .25299073 .64100649 .29899598 .64100649 .33198548 .60697939 .34899903 .5619507 .36099244 .52993777 .36499024 .4669037 .36499024 .42086793 .36499024 .3378296 .33099366 .24076844 .24299622 .24076844Z"/>
<path id="font_2_9" d="M.16299439 .4569702C.116989139 .486969 .11299133 .52098086 .11299133 .5379791 .11299133 .598999 .17799378 .64100649 .24899292 .64100649 .32199098 .64100649 .38598634 .58898928 .38598634 .51698306 .38598634 .45996095 .34700013 .4119568 .2869873 .37695313L.16299439 .4569702M.30899049 .36193849C.3809967 .3989563 .42999269 .45095826 .42999269 .51698306 .42999269 .6090088 .34098817 .6660156 .25 .6660156 .1499939 .6660156 .068984989 .59199526 .068984989 .49897767 .068984989 .4809723 .070999149 .43595887 .11299133 .38894654 .12399292 .37695313 .16099549 .35194398 .18598938 .33494569 .12799073 .30592347 .041992189 .24984741 .041992189 .15072632 .041992189 .04458618 .14399719-.022460938 .24899292-.022460938 .3619995-.022460938 .45700074 .06060791 .45700074 .16773987 .45700074 .20379639 .44599916 .24885559 .4079895 .2909088 .3889923 .31193543 .37298585 .3219452 .30899049 .36193849M.20899964 .3199463 .33198548 .24183655C.3600006 .2228241 .40699769 .19277954 .40699769 .13169861 .40699769 .05760193 .33198548 .0055389406 .25 .0055389406 .1639862 .0055389406 .09199524 .067611698 .09199524 .15072632 .09199524 .20880127 .12399292 .27288819 .20899964 .3199463Z"/>
<path id="font_2_8" d="M.47599793 .609375C.4850006 .6213684 .4850006 .62338259 .4850006 .64437869H.24198914C.11999512 .64437869 .117996219 .65737918 .11399841 .67637637H.08898926L.055999757 .4702301H.08099365C.083999637 .48625184 .09298706 .5493469 .10598755 .56137087 .11299133 .5673828 .19099427 .5673828 .20399475 .5673828H.41099549C.3999939 .5513611 .32099916 .4421997 .29899598 .40914918 .20899964 .27394105 .17599488 .1347351 .17599488 .032577516 .17599488 .022567749 .17599488-.022460938 .22200012-.022460938 .2679901-.022460938 .2679901 .022567749 .2679901 .032577516V.08366394C.2679901 .13873291 .2709961 .19381714 .2789917 .24790955 .2829895 .27093507 .29699708 .35707093 .34098817 .41915895L.47599793 .609375Z"/>
<path id="font_2_7" d="M.13198853 .327713V.35173036C.13198853 .6047821 .2559967 .64100649 .30699159 .64100649 .33099366 .64100649 .37298585 .634964 .394989 .6007538 .37998963 .6007538 .33999635 .6007538 .33999635 .5557556 .33999635 .524765 .3639984 .5097656 .38598634 .5097656 .4019928 .5097656 .43199159 .51875308 .43199159 .5577545 .43199159 .6178589 .3880005 .6660156 .30499269 .6660156 .1769867 .6660156 .041992189 .5367584 .041992189 .31570436 .041992189 .048553468 .1579895-.022460938 .25099183-.022460938 .3619995-.022460938 .45700074 .07156372 .45700074 .2036438 .45700074 .33070375 .36799623 .4267578 .25698854 .4267578 .18899536 .4267578 .1519928 .37573243 .13198853 .327713M.25099183 .0055389406C.18798828 .0055389406 .1579895 .06556702 .1519928 .080566409 .13398743 .127594 .13398743 .2076416 .13398743 .22564698 .13398743 .30369569 .1659851 .40374757 .2559967 .40374757 .27198792 .40374757 .31799317 .40374757 .34899903 .34172059 .36698915 .30470277 .36698915 .2536621 .36698915 .20463562 .36698915 .15661621 .36698915 .10658264 .34999085 .0705719 .31999208 .010528564 .27398683 .0055389406 .25099183 .0055389406Z"/>
<path id="font_2_6" d="M.44898988 .20022583C.44898988 .3193512 .36698915 .41944886 .25898744 .41944886 .21099854 .41944886 .16799927 .40345765 .13198853 .36842347V.5637665C.1519928 .5577698 .18499756 .55078127 .21699524 .55078127 .33999635 .55078127 .4099884 .6417694 .4099884 .6547699 .4099884 .6607666 .40699769 .6657715 .3999939 .6657715 .39898683 .6657715 .39698792 .6657715 .3919983 .66278079 .37199403 .6537781 .32299806 .6337738 .2559967 .6337738 .21598816 .6337738 .16999817 .6407776 .12298584 .6617737 .114990238 .66477969 .11299133 .66477969 .11099243 .66477969 .100997928 .66477969 .100997928 .6567688 .100997928 .6407776V.34439088C.100997928 .32637025 .100997928 .31835938 .114990238 .31835938 .12199402 .31835938 .12399292 .32136537 .12799073 .32736207 .13899231 .3433838 .17599488 .39746095 .25698854 .39746095 .30899049 .39746095 .33399964 .35139466 .34199525 .33337403 .35798646 .29632569 .3600006 .25727845 .3600006 .20722962 .3600006 .17222595 .3600006 .11222839 .33599855 .07035828 .31199647 .031463624 .2749939 .0055389406 .22898865 .0055389406 .1559906 .0055389406 .09899902 .058380128 .08198547 .11723328 .084991458 .1162262 .08799744 .115234378 .09899902 .115234378 .13198853 .115234378 .14898682 .14022827 .14898682 .16423035 .14898682 .18823242 .13198853 .21322632 .09899902 .21322632 .084991458 .21322632 .049987794 .20622254 .049987794 .16023255 .049987794 .07434082 .11898804-.022460938 .23098755-.022460938 .34700013-.022460938 .44898988 .073349 .44898988 .20022583Z"/>
<path id="font_2_5" d="M.2939911 .16503906V.07800293C.2939911 .041992189 .2919922 .0309906 .21798706 .0309906H.19699097V0C.23799134 .0029907227 .2899933 .0029907227 .33198548 .0029907227 .37399293 .0029907227 .4269867 .0029907227 .46798707 0V.0309906H.44699098C.37298585 .0309906 .37098695 .041992189 .37098695 .07800293V.16503906H.47099305V.19602967H.37098695V.65075686C.37098695 .67074587 .37098695 .6767578 .35499574 .6767578 .34599305 .6767578 .34298707 .6767578 .33499146 .66474917L.027999878 .19602967V.16503906H.2939911M.2999878 .19602967H.055999757L.2999878 .5688019V.19602967Z"/>
<path id="font_2_4" d="M.2899933 .35191346C.37199403 .37893678 .42999269 .4490509 .42999269 .52809146 .42999269 .6100464 .34199525 .6660156 .24598694 .6660156 .14498902 .6660156 .068984989 .60606387 .068984989 .53009036 .068984989 .49710084 .09098816 .47808839 .11999512 .47808839 .15098572 .47808839 .17098999 .50009158 .17098999 .5290985 .17098999 .57910159 .12399292 .57910159 .10899353 .57910159 .13999939 .62802127 .20599365 .64100649 .24198914 .64100649 .2829895 .64100649 .33799745 .6190338 .33799745 .5290985 .33799745 .51708987 .33599855 .45906068 .30999757 .4149933 .27999879 .36691285 .24598694 .36390687 .22099304 .36291505 .21299744 .36190797 .18899536 .35990907 .18199158 .35990907 .17399597 .35890199 .16699219 .35791017 .16699219 .3479004 .16699219 .33691407 .17399597 .33691407 .19099427 .33691407H.23498535C.31698609 .33691407 .35398866 .2686615 .35398866 .17037964 .35398866 .034469606 .2849884 .0055389406 .24099732 .0055389406 .19799805 .0055389406 .12298584 .022491456 .08799744 .08137512 .12298584 .07637024 .1539917 .09837341 .1539917 .1363678 .1539917 .17237854 .1269989 .19238281 .09799194 .19238281 .07398987 .19238281 .041992189 .17837525 .041992189 .1343689 .041992189 .043441774 .1349945-.022460938 .24398804-.022460938 .3659973-.022460938 .45700074 .06838989 .45700074 .17037964 .45700074 .252594 .3939972 .33088685 .2899933 .35191346Z"/>
<clipPath id="clip_3">
<path transform="matrix(1.00008,0,0,-1,51.70282,60.755006)" d="M-12.67923-5.11984H139.464V56.31525H-12.67923Z"/>
</clipPath>
<path id="font_4_1" d="M.20599365 .3996582H.2999878C.31999208 .3996582 .32998658 .3996582 .32998658 .41966249 .32998658 .43066407 .31999208 .43066407 .3019867 .43066407H.21398926C.25 .5724945 .25498963 .59246829 .25498963 .59846499 .25498963 .61546328 .24299622 .62545779 .22599793 .62545779 .22299195 .62545779 .19499207 .62446597 .18598938 .58947756L.14698792 .43066407H.052993776C.032989503 .43066407 .022994996 .43066407 .022994996 .4116516 .022994996 .3996582 .0309906 .3996582 .050994874 .3996582H.13899231C.066986087 .11608887 .06298828 .099121097 .06298828 .08114624 .06298828 .02722168 .100997928-.0107421879 .15499878-.0107421879 .25698854-.0107421879 .31399537 .13505554 .31399537 .14305115 .31399537 .1530304 .30599977 .1530304 .3019867 .1530304 .29299928 .1530304 .2919922 .15003968 .2869873 .13905335 .24398804 .035217287 .19099427 .011245728 .15699768 .011245728 .13598633 .011245728 .12599182 .024230957 .12599182 .057174684 .12599182 .08114624 .12799073 .088134769 .13198853 .10510254L.20599365 .3996582Z"/>
<path id="font_4_2" d="M.48599244 .38136292C.48999024 .39537049 .48999024 .39736939 .48999024 .40437318 .48999024 .42237855 .47599793 .43138124 .46099855 .43138124 .45098878 .43138124 .43499757 .42536927 .42599488 .41036988 .42399598 .405365 .41600038 .37435914 .4119873 .35635377 .40499879 .33035279 .397995 .30334474 .3919983 .27633668L.34700013 .09628296C.34298707 .08126831 .2999878 .011245728 .23399353 .011245728 .18299866 .011245728 .17199707 .055267335 .17199707 .0922699 .17199707 .1382904 .18899536 .20030213 .22299195 .28833009 .23899842 .3293457 .24299622 .3403473 .24299622 .36035157 .24299622 .405365 .21099854 .4423828 .16099549 .4423828 .06599426 .4423828 .0289917 .29733277 .0289917 .28833009 .0289917 .27833558 .038986207 .27833558 .040985109 .27833558 .050994874 .27833558 .051986696 .28033448 .056991579 .29634095 .083999637 .3903656 .12399292 .42037965 .1579895 .42037965 .1659851 .42037965 .18299866 .42037965 .18299866 .3883667 .18299866 .36335755 .17298889 .3373413 .1659851 .31834413 .12599182 .21231079 .10798645 .1552887 .10798645 .10827637 .10798645 .019256592 .17098999-.0107421879 .22999573-.0107421879 .2689972-.0107421879 .30299378 .0062561037 .33099366 .03425598 .31799317-.017745972 .30599977-.06674194 .2659912-.11973572 .23999024-.15385437 .20199585-.18309021 .1559906-.18309021 .14199829-.18309021 .09700012-.18005371 .07998657-.14074707 .09599304-.14074707 .10899353-.14074707 .12298584-.1287384 .1329956-.11973572 .14299011-.10673523 .14299011-.08773804 .14299011-.056747438 .115997318-.052734376 .10598755-.052734376 .08299255-.052734376 .049987794-.068740848 .049987794-.11773682 .049987794-.16796875 .09399414-.20507813 .1559906-.20507813 .25898744-.20507813 .3619995-.11373901 .3899994-.00074768069L.48599244 .38136292Z"/>
<path id="font_5_97" d="M.49899293 .18579102C.49899293 .2858429 .43299867 .36791993 .34899903 .38793946L.22099304 .4189453C.15899658 .43388368 .11999512 .48773194 .11999512 .5458069 .11999512 .61595156 .17399597 .677063 .2519989 .677063 .4189911 .677063 .44099427 .5127411 .44699098 .46777345 .44799806 .461792 .44799806 .45581056 .45899964 .45581056 .47200013 .45581056 .47200013 .46080018 .47200013 .47973634V.68107607C.47200013 .69807437 .47200013 .7050781 .46099855 .7050781 .45399476 .7050781 .45298768 .70407107 .44599916 .69207766L.41099549 .63497927C.3809967 .66404727 .33999635 .7050781 .25099183 .7050781 .13999939 .7050781 .055999757 .61694338 .055999757 .5107422 .055999757 .42790223 .10899353 .35490418 .18699646 .32788087 .19799805 .32388307 .24899292 .3118744 .31900025 .29486085 .34599305 .28785707 .37599183 .280838 .4039917 .24382019 .4249878 .2177887 .43499757 .18478394 .43499757 .1517334 .43499757 .0806427 .3849945 .008529663 .30099488 .008529663 .27198792 .008529663 .19599915 .013534546 .14299011 .06260681 .084991458 .11668396 .08198547 .18078614 .08099365 .21679688 .07998657 .22679138 .07199097 .22679138 .068984989 .22679138 .055999757 .22679138 .055999757 .2197876 .055999757 .20178223V.0015258789C.055999757-.015472412 .055999757-.022460938 .066986087-.022460938 .07398987-.022460938 .07499695-.020462037 .08198547-.009475708 .08198547-.009475708 .084991458-.0054626467 .117996219 .047592164 .14898682 .013534546 .21299744-.022460938 .3019867-.022460938 .4189911-.022460938 .49899293 .07562256 .49899293 .18579102Z"/>
<path id="font_5_50" d="M.4149933 .11933899C.4149933 .12934876 .40699769 .13134766 .4019928 .13134766 .3929901 .13134766 .3909912 .12535095 .3889923 .11734009 .35398866 .014251709 .2639923 .014251709 .2539978 .014251709 .20399475 .014251709 .1639862 .044281007 .14099121 .08131409 .11099243 .12934876 .11099243 .19540406 .11099243 .23144531H.3899994C.4119873 .23144531 .4149933 .23144531 .4149933 .2524414 .4149933 .35131837 .36099244 .4482422 .23599243 .4482422 .11999512 .4482422 .027999878 .34532167 .027999878 .22042847 .027999878 .08631897 .1329956-.0107421879 .24798584-.0107421879 .36999513-.0107421879 .4149933 .10032654 .4149933 .11933899M.34899903 .2524414H.11199951C.117996219 .40126039 .20199585 .426239 .23599243 .426239 .33898927 .426239 .34899903 .2913971 .34899903 .2524414Z"/>
<path id="font_5_96" d="M.3639984 .38137818C.3639984 .41337586 .33299256 .4423828 .2899933 .4423828 .21699524 .4423828 .18099976 .37538148 .16699219 .3323822V.4423828L.027999878 .43066407V.3996582C.09799194 .3996582 .10598755 .39266969 .10598755 .34370423V.07595825C.10598755 .0309906 .09498596 .0309906 .027999878 .0309906V0L.14199829 .0029907227C.18199158 .0029907227 .22898865 .0029907227 .2689972 0V.0309906H.24798584C.17399597 .0309906 .17199707 .04197693 .17199707 .07795715V.23181153C.17199707 .33137513 .21398926 .42037965 .2899933 .42037965 .29699708 .42037965 .29899598 .42037965 .30099488 .41937257 .2979889 .41838075 .27799989 .40637208 .27799989 .3803711 .27799989 .35237123 .29899598 .33737184 .32099916 .33737184 .33898927 .33737184 .3639984 .3493805 .3639984 .38137818Z"/>
<path id="font_5_66" d="M.24699402 0V.0309906C.18099976 .0309906 .1769867 .035995485 .1769867 .075042728V.4423828L.036987306 .43066407V.3996582C.101989749 .3996582 .11099243 .3936615 .11099243 .3447113V.07595825C.11099243 .0309906 .099990848 .0309906 .032989503 .0309906V0L.14299011 .0029907227C.17799378 .0029907227 .21299744 .0009918213 .24699402 0M.19198609 .603775C.19198609 .6307678 .16899109 .6567688 .13899231 .6567688 .10499573 .6567688 .084991458 .6287689 .084991458 .603775 .084991458 .57676699 .10798645 .55078127 .13798523 .55078127 .17199707 .55078127 .19198609 .5787811 .19198609 .603775Z"/>
<path id="font_5_98" d="M.3600006 .12823487C.3600006 .18122864 .32998658 .21122742 .31799317 .22323609 .2849884 .25523377 .24598694 .26322938 .20399475 .27124024 .147995 .28224183 .08099365 .29522706 .08099365 .35324098 .08099365 .38822938 .10699463 .42922975 .19299317 .42922975 .30299378 .42922975 .30799867 .3392334 .30999757 .30822755 .31098939 .2992401 .32199098 .2992401 .32199098 .2992401 .33499146 .2992401 .33499146 .30422975 .33499146 .32322694V.4242401C.33499146 .4412384 .33499146 .4482422 .32398988 .4482422 .31900025 .4482422 .31698609 .4482422 .3039856 .43623353 .30099488 .43223573 .29100038 .42323304 .2869873 .42022706 .24899292 .4482422 .20799256 .4482422 .19299317 .4482422 .070999149 .4482422 .032989503 .38124085 .032989503 .3252411 .032989503 .29023744 .04899597 .26223756 .07598877 .24023438 .10798645 .2142334 .13598633 .2082367 .20799256 .19422913 .22999573 .19021607 .31199647 .17422486 .31199647 .10221863 .31199647 .051223756 .2769928 .011245728 .19898987 .011245728 .114990238 .011245728 .07899475 .068222049 .05999756 .1532135 .056991579 .16621399 .055999757 .17021179 .04598999 .17021179 .032989503 .17021179 .032989503 .16322327 .032989503 .1452179V.013214111C.032989503-.003753662 .032989503-.0107421879 .04399109-.0107421879 .04899597-.0107421879 .049987794-.009750366 .068984989 .009246826 .070999149 .011245728 .070999149 .013214111 .08898926 .032226564 .1329956-.009750366 .17799378-.0107421879 .19898987-.0107421879 .31399537-.0107421879 .3600006 .05621338 .3600006 .1282196V.12823487Z"/>
<path id="font_5_27" d="M.71699526 0V.0309906H.69898989C.6389923 .0309906 .625 .037979127 .6139984 .07095337L.397995 .6958008C.3929901 .7088165 .3909912 .7158203 .375 .7158203 .35899354 .7158203 .35598756 .70980837 .35099793 .6958008L.14399719 .09791565C.12599182 .04698181 .085998538 .03199768 .03199768 .0309906V0L.13398743 .0029907227 .24899292 0V.0309906C.19898987 .0309906 .17399597 .05596924 .17399597 .0819397 .17399597 .08493042 .1749878 .09492493 .17599488 .09692383L.22200012 .2277832H.46899415L.5219879 .07495117C.522995 .07095337 .5249939 .064956668 .5249939 .060958864 .5249939 .0309906 .46899415 .0309906 .44198609 .0309906V0C.47799684 .0029907227 .5479889 .0029907227 .58599856 .0029907227L.71699526 0M.45799256 .25878907H.23298645L.34498597 .58380129 .45799256 .25878907Z"/>
</defs>
<path transform="matrix(1.00008,0,0,-1,51.70282,60.755006)" stroke-width=".79701" stroke-linecap="butt" stroke-miterlimit="10" stroke-linejoin="miter" fill="none" stroke="#929292" d="M-9.5093-5.11984V-2.28493M-3.16975-5.11984V-2.28493M3.16975-5.11984V-2.28493M9.5093-5.11984V-2.28493M15.84882-5.11984V-2.28493M22.18834-5.11984V-2.28493M28.52788-5.11984V-2.28493M34.8674-5.11984V-2.28493M41.20692-5.11984V-2.28493M47.54646-5.11984V-2.28493M53.88599-5.11984V-2.28493M60.22552-5.11984V-2.28493M66.56505-5.11984V-2.28493M72.90457-5.11984V-2.28493M79.24411-5.11984V-2.28493M85.58363-5.11984V-2.28493M91.92316-5.11984V-2.28493M98.2627-5.11984V-2.28493M104.60222-5.11984V-2.28493M110.94176-5.11984V-2.28493M117.28128-5.11984V-2.28493M123.6208-5.11984V-2.28493M129.96035-5.11984V-2.28493M136.29987-5.11984V-2.28493M-9.5093 56.31525V53.48035M-3.16975 56.31525V53.48035M3.16975 56.31525V53.48035M9.5093 56.31525V53.48035M15.84882 56.31525V53.48035M22.18834 56.31525V53.48035M28.52788 56.31525V53.48035M34.8674 56.31525V53.48035M41.20692 56.31525V53.48035M47.54646 56.31525V53.48035M53.88599 56.31525V53.48035M60.22552 56.31525V53.48035M66.56505 56.31525V53.48035M72.90457 56.31525V53.48035M79.24411 56.31525V53.48035M85.58363 56.31525V53.48035M91.92316 56.31525V53.48035M98.2627 56.31525V53.48035M104.60222 56.31525V53.48035M110.94176 56.31525V53.48035M117.28128 56.31525V53.48035M123.6208 56.31525V53.48035M129.96035 56.31525V53.48035M136.29987 56.31525V53.48035"/>
<path transform="matrix(1.00008,0,0,-1,51.70282,60.755006)" stroke-width=".79701" stroke-linecap="butt" stroke-miterlimit="10" stroke-linejoin="miter" fill="none" stroke="#929292" d="M-12.67905-5.11984V-.8679M-6.33952-5.11984V-.8679M0-5.11984V-.8679M6.33952-5.11984V-.8679M12.67905-5.11984V-.8679M19.01859-5.11984V-.8679M25.35811-5.11984V-.8679M31.69763-5.11984V-.8679M38.03717-5.11984V-.8679M44.3767-5.11984V-.8679M50.71622-5.11984V-.8679M57.05576-5.11984V-.8679M63.39528-5.11984V-.8679M69.73482-5.11984V-.8679M76.07434-5.11984V-.8679M82.41386-5.11984V-.8679M88.7534-5.11984V-.8679M95.09293-5.11984V-.8679M101.43245-5.11984V-.8679M107.77199-5.11984V-.8679M114.11151-5.11984V-.8679M120.45105-5.11984V-.8679M126.79057-5.11984V-.8679M133.1301-5.11984V-.8679M139.46964-5.11984V-.8679M-12.67905 56.31525V52.06332M-6.33952 56.31525V52.06332M0 56.31525V52.06332M6.33952 56.31525V52.06332M12.67905 56.31525V52.06332M19.01859 56.31525V52.06332M25.35811 56.31525V52.06332M31.69763 56.31525V52.06332M38.03717 56.31525V52.06332M44.3767 56.31525V52.06332M50.71622 56.31525V52.06332M57.05576 56.31525V52.06332M63.39528 56.31525V52.06332M69.73482 56.31525V52.06332M76.07434 56.31525V52.06332M82.41386 56.31525V52.06332M88.7534 56.31525V52.06332M95.09293 56.31525V52.06332M101.43245 56.31525V52.06332M107.77199 56.31525V52.06332M114.11151 56.31525V52.06332M120.45105 56.31525V52.06332M126.79057 56.31525V52.06332M133.1301 56.31525V52.06332M139.46964 56.31525V52.06332"/>
<path transform="matrix(1.00008,0,0,-1,51.70282,60.755006)" stroke-width=".79701" stroke-linecap="butt" stroke-miterlimit="10" stroke-linejoin="miter" fill="none" stroke="#929292" d="M-12.67923-5.0811H-9.84422M-12.67923-3.38858H-9.84422M-12.67923-1.69604H-9.84422M-12.67923-.00352H-9.84422M-12.67923 1.68898H-9.84422M-12.67923 3.3815H-9.84422M-12.67923 5.07404H-9.84422M-12.67923 6.76656H-9.84422M-12.67923 8.45909H-9.84422M-12.67923 10.15161H-9.84422M-12.67923 11.84415H-9.84422M-12.67923 13.53667H-9.84422M-12.67923 15.2292H-9.84422M-12.67923 16.92172H-9.84422M-12.67923 18.61426H-9.84422M-12.67923 20.30678H-9.84422M-12.67923 21.99931H-9.84422M-12.67923 23.69183H-9.84422M-12.67923 25.38437H-9.84422M-12.67923 27.07689H-9.84422M-12.67923 28.76942H-9.84422M-12.67923 30.46194H-9.84422M-12.67923 32.15446H-9.84422M-12.67923 33.847H-9.84422M-12.67923 35.53952H-9.84422M-12.67923 37.23206H-9.84422M-12.67923 38.92458H-9.84422M-12.67923 40.61711H-9.84422M-12.67923 42.30963H-9.84422M-12.67923 44.00217H-9.84422M-12.67923 45.69469H-9.84422M-12.67923 47.38722H-9.84422M-12.67923 49.07974H-9.84422M-12.67923 50.77228H-9.84422M-12.67923 52.4648H-9.84422M-12.67923 54.15733H-9.84422M-12.67923 55.84985H-9.84422M139.464-5.0811H136.62899M139.464-3.38858H136.62899M139.464-1.69604H136.62899M139.464-.00352H136.62899M139.464 1.68898H136.62899M139.464 3.3815H136.62899M139.464 5.07404H136.62899M139.464 6.76656H136.62899M139.464 8.45909H136.62899M139.464 10.15161H136.62899M139.464 11.84415H136.62899M139.464 13.53667H136.62899M139.464 15.2292H136.62899M139.464 16.92172H136.62899M139.464 18.61426H136.62899M139.464 20.30678H136.62899M139.464 21.99931H136.62899M139.464 23.69183H136.62899M139.464 25.38437H136.62899M139.464 27.07689H136.62899M139.464 28.76942H136.62899M139.464 30.46194H136.62899M139.464 32.15446H136.62899M139.464 33.847H136.62899M139.464 35.53952H136.62899M139.464 37.23206H136.62899M139.464 38.92458H136.62899M139.464 40.61711H136.62899M139.464 42.30963H136.62899M139.464 44.00217H136.62899M139.464 45.69469H136.62899M139.464 47.38722H136.62899M139.464 49.07974H136.62899M139.464 50.77228H136.62899M139.464 52.4648H136.62899M139.464 54.15733H136.62899M139.464 55.84985H136.62899"/>
<path transform="matrix(1.00008,0,0,-1,51.70282,60.755006)" stroke-width=".79701" stroke-linecap="butt" stroke-miterlimit="10" stroke-linejoin="miter" fill="none" stroke="#929292" d="M-12.67923-4.23483H-8.42714M-12.67923-2.54231H-8.42714M-12.67923-.84978H-8.42714M-12.67923 .84271H-8.42714M-12.67923 2.53525H-8.42714M-12.67923 4.22777H-8.42714M-12.67923 5.9203H-8.42714M-12.67923 7.61282H-8.42714M-12.67923 9.30536H-8.42714M-12.67923 10.99788H-8.42714M-12.67923 12.6904H-8.42714M-12.67923 14.38293H-8.42714M-12.67923 16.07545H-8.42714M-12.67923 17.76799H-8.42714M-12.67923 19.46051H-8.42714M-12.67923 21.15305H-8.42714M-12.67923 22.84557H-8.42714M-12.67923 24.5381H-8.42714M-12.67923 26.23062H-8.42714M-12.67923 27.92316H-8.42714M-12.67923 29.61568H-8.42714M-12.67923 31.30821H-8.42714M-12.67923 33.00073H-8.42714M-12.67923 34.69327H-8.42714M-12.67923 36.38579H-8.42714M-12.67923 38.07832H-8.42714M-12.67923 39.77084H-8.42714M-12.67923 41.46338H-8.42714M-12.67923 43.1559H-8.42714M-12.67923 44.84843H-8.42714M-12.67923 46.54095H-8.42714M-12.67923 48.23349H-8.42714M-12.67923 49.92601H-8.42714M-12.67923 51.61855H-8.42714M-12.67923 53.31107H-8.42714M-12.67923 55.00359H-8.42714M139.464-4.23483H135.21192M139.464-2.54231H135.21192M139.464-.84978H135.21192M139.464 .84271H135.21192M139.464 2.53525H135.21192M139.464 4.22777H135.21192M139.464 5.9203H135.21192M139.464 7.61282H135.21192M139.464 9.30536H135.21192M139.464 10.99788H135.21192M139.464 12.6904H135.21192M139.464 14.38293H135.21192M139.464 16.07545H135.21192M139.464 17.76799H135.21192M139.464 19.46051H135.21192M139.464 21.15305H135.21192M139.464 22.84557H135.21192M139.464 24.5381H135.21192M139.464 26.23062H135.21192M139.464 27.92316H135.21192M139.464 29.61568H135.21192M139.464 31.30821H135.21192M139.464 33.00073H135.21192M139.464 34.69327H135.21192M139.464 36.38579H135.21192M139.464 38.07832H135.21192M139.464 39.77084H135.21192M139.464 41.46338H135.21192M139.464 43.1559H135.21192M139.464 44.84843H135.21192M139.464 46.54095H135.21192M139.464 48.23349H135.21192M139.464 49.92601H135.21192M139.464 51.61855H135.21192M139.464 53.31107H135.21192M139.464 55.00359H135.21192"/>
<path transform="matrix(1.00008,0,0,-1,51.70282,60.755006)" stroke-width=".99628" stroke-linecap="butt" stroke-miterlimit="10" stroke-linejoin="miter" fill="none" stroke="#000000" d="M-12.67923-5.11984V56.31525H139.464V-5.11984H-12.67923Z"/>
<use data-text="&#x2212;" xlink:href="#font_1_1" transform="matrix(10.909972,0,0,-10.9091,29.325028,77.039)"/>
<use data-text="1" xlink:href="#font_2_2" transform="matrix(10.909972,0,0,-10.9091,37.810716,77.039)"/>
<use data-text="2" xlink:href="#font_2_3" transform="matrix(10.909972,0,0,-10.9091,43.265687,77.039)"/>
<use data-text="&#x2212;" xlink:href="#font_1_1" transform="matrix(10.909972,0,0,-10.9091,35.664537,77.039)"/>
<use data-text="1" xlink:href="#font_2_2" transform="matrix(10.909972,0,0,-10.9091,44.150224,77.039)"/>
<use data-text="1" xlink:href="#font_2_2" transform="matrix(10.909972,0,0,-10.9091,49.605195,77.039)"/>
<use data-text="&#x2212;" xlink:href="#font_1_1" transform="matrix(10.909972,0,0,-10.9091,42.005044,77.039)"/>
<use data-text="1" xlink:href="#font_2_2" transform="matrix(10.909972,0,0,-10.9091,50.49073,77.039)"/>
<use data-text="0" xlink:href="#font_2_1" transform="matrix(10.909972,0,0,-10.9091,55.9457,77.039)"/>
<use data-text="&#x2212;" xlink:href="#font_1_1" transform="matrix(10.909972,0,0,-10.9091,51.07277,77.039)"/>
<use data-text="9" xlink:href="#font_2_10" transform="matrix(10.909972,0,0,-10.9091,59.558458,77.039)"/>
<use data-text="&#x2212;" xlink:href="#font_1_1" transform="matrix(10.909972,0,0,-10.9091,57.412279,77.039)"/>
<use data-text="8" xlink:href="#font_2_9" transform="matrix(10.909972,0,0,-10.9091,65.897968,77.039)"/>
<use data-text="&#x2212;" xlink:href="#font_1_1" transform="matrix(10.909972,0,0,-10.9091,63.752786,77.039)"/>
<use data-text="7" xlink:href="#font_2_8" transform="matrix(10.909972,0,0,-10.9091,72.23847,77.039)"/>
<use data-text="&#x2212;" xlink:href="#font_1_1" transform="matrix(10.909972,0,0,-10.9091,70.09229,77.039)"/>
<use data-text="6" xlink:href="#font_2_7" transform="matrix(10.909972,0,0,-10.9091,78.57798,77.039)"/>
<use data-text="&#x2212;" xlink:href="#font_1_1" transform="matrix(10.909972,0,0,-10.9091,76.4328,77.039)"/>
<use data-text="5" xlink:href="#font_2_6" transform="matrix(10.909972,0,0,-10.9091,84.91849,77.039)"/>
<use data-text="&#x2212;" xlink:href="#font_1_1" transform="matrix(10.909972,0,0,-10.9091,82.77231,77.039)"/>
<use data-text="4" xlink:href="#font_2_5" transform="matrix(10.909972,0,0,-10.9091,91.257999,77.039)"/>
<use data-text="&#x2212;" xlink:href="#font_1_1" transform="matrix(10.909972,0,0,-10.9091,89.11281,77.039)"/>
<use data-text="3" xlink:href="#font_2_4" transform="matrix(10.909972,0,0,-10.9091,97.598499,77.039)"/>
<use data-text="&#x2212;" xlink:href="#font_1_1" transform="matrix(10.909972,0,0,-10.9091,95.45232,77.039)"/>
<use data-text="2" xlink:href="#font_2_3" transform="matrix(10.909972,0,0,-10.9091,103.938,77.039)"/>
<use data-text="&#x2212;" xlink:href="#font_1_1" transform="matrix(10.909972,0,0,-10.9091,101.79282,77.039)"/>
<use data-text="1" xlink:href="#font_2_2" transform="matrix(10.909972,0,0,-10.9091,110.27851,77.039)"/>
<use data-text="0" xlink:href="#font_2_1" transform="matrix(10.909972,0,0,-10.9091,112.37567,77.039)"/>
<use data-text="1" xlink:href="#font_2_2" transform="matrix(10.909972,0,0,-10.9091,118.71519,77.039)"/>
<use data-text="2" xlink:href="#font_2_3" transform="matrix(10.909972,0,0,-10.9091,125.05569,77.039)"/>
<use data-text="3" xlink:href="#font_2_4" transform="matrix(10.909972,0,0,-10.9091,131.39618,77.039)"/>
<use data-text="4" xlink:href="#font_2_5" transform="matrix(10.909972,0,0,-10.9091,137.7357,77.039)"/>
<use data-text="5" xlink:href="#font_2_6" transform="matrix(10.909972,0,0,-10.9091,144.0762,77.039)"/>
<use data-text="6" xlink:href="#font_2_7" transform="matrix(10.909972,0,0,-10.9091,150.41571,77.039)"/>
<use data-text="7" xlink:href="#font_2_8" transform="matrix(10.909972,0,0,-10.9091,156.75623,77.039)"/>
<use data-text="8" xlink:href="#font_2_9" transform="matrix(10.909972,0,0,-10.9091,163.09574,77.039)"/>
<use data-text="9" xlink:href="#font_2_10" transform="matrix(10.909972,0,0,-10.9091,169.43624,77.039)"/>
<use data-text="1" xlink:href="#font_2_2" transform="matrix(10.909972,0,0,-10.9091,173.04853,77.039)"/>
<use data-text="0" xlink:href="#font_2_1" transform="matrix(10.909972,0,0,-10.9091,178.50351,77.039)"/>
<use data-text="1" xlink:href="#font_2_2" transform="matrix(10.909972,0,0,-10.9091,179.38803,77.039)"/>
<use data-text="1" xlink:href="#font_2_2" transform="matrix(10.909972,0,0,-10.9091,184.84302,77.039)"/>
<use data-text="1" xlink:href="#font_2_2" transform="matrix(10.909972,0,0,-10.9091,185.72855,77.039)"/>
<use data-text="2" xlink:href="#font_2_3" transform="matrix(10.909972,0,0,-10.9091,191.18354,77.039)"/>
<use data-text="&#x2212;" xlink:href="#font_1_1" transform="matrix(10.909972,0,0,-10.9091,15.491928,68.05)"/>
<use data-text="1" xlink:href="#font_2_2" transform="matrix(10.909972,0,0,-10.9091,23.977616,68.05)"/>
<use data-text="2" xlink:href="#font_2_3" transform="matrix(10.909972,0,0,-10.9091,29.432587,68.05)"/>
<use data-text="&#x2212;" xlink:href="#font_1_1" transform="matrix(10.909972,0,0,-10.9091,20.947358,66.358)"/>
<use data-text="8" xlink:href="#font_2_9" transform="matrix(10.909972,0,0,-10.9091,29.433045,66.358)"/>
<use data-text="&#x2212;" xlink:href="#font_1_1" transform="matrix(10.909972,0,0,-10.9091,20.947358,64.665)"/>
<use data-text="4" xlink:href="#font_2_5" transform="matrix(10.909972,0,0,-10.9091,29.433045,64.665)"/>
<use data-text="0" xlink:href="#font_2_1" transform="matrix(10.909972,0,0,-10.9091,29.433045,63.427003)"/>
<use data-text="4" xlink:href="#font_2_5" transform="matrix(10.909972,0,0,-10.9091,29.433045,61.735)"/>
<use data-text="8" xlink:href="#font_2_9" transform="matrix(10.909972,0,0,-10.9091,29.433045,60.042)"/>
<use data-text="1" xlink:href="#font_2_2" transform="matrix(10.909972,0,0,-10.9091,23.9776,58.350008)"/>
<use data-text="2" xlink:href="#font_2_3" transform="matrix(10.909972,0,0,-10.9091,29.432587,58.350008)"/>
<use data-text="1" xlink:href="#font_2_2" transform="matrix(10.909972,0,0,-10.9091,23.9776,56.657007)"/>
<use data-text="6" xlink:href="#font_2_7" transform="matrix(10.909972,0,0,-10.9091,29.432587,56.657007)"/>
<use data-text="2" xlink:href="#font_2_3" transform="matrix(10.909972,0,0,-10.9091,23.9776,54.965005)"/>
<use data-text="0" xlink:href="#font_2_1" transform="matrix(10.909972,0,0,-10.9091,29.432587,54.965005)"/>
<use data-text="2" xlink:href="#font_2_3" transform="matrix(10.909972,0,0,-10.9091,23.9776,53.272005)"/>
<use data-text="4" xlink:href="#font_2_5" transform="matrix(10.909972,0,0,-10.9091,29.432587,53.272005)"/>
<use data-text="2" xlink:href="#font_2_3" transform="matrix(10.909972,0,0,-10.9091,23.9776,51.58)"/>
<use data-text="8" xlink:href="#font_2_9" transform="matrix(10.909972,0,0,-10.9091,29.432587,51.58)"/>
<use data-text="3" xlink:href="#font_2_4" transform="matrix(10.909972,0,0,-10.9091,23.9776,49.887)"/>
<use data-text="2" xlink:href="#font_2_3" transform="matrix(10.909972,0,0,-10.9091,29.432587,49.887)"/>
<use data-text="3" xlink:href="#font_2_4" transform="matrix(10.909972,0,0,-10.9091,23.9776,48.195)"/>
<use data-text="6" xlink:href="#font_2_7" transform="matrix(10.909972,0,0,-10.9091,29.432587,48.195)"/>
<use data-text="4" xlink:href="#font_2_5" transform="matrix(10.909972,0,0,-10.9091,23.9776,46.502004)"/>
<use data-text="0" xlink:href="#font_2_1" transform="matrix(10.909972,0,0,-10.9091,29.432587,46.502004)"/>
<use data-text="4" xlink:href="#font_2_5" transform="matrix(10.909972,0,0,-10.9091,23.9776,44.810007)"/>
<use data-text="4" xlink:href="#font_2_5" transform="matrix(10.909972,0,0,-10.9091,29.432587,44.810007)"/>
<use data-text="4" xlink:href="#font_2_5" transform="matrix(10.909972,0,0,-10.9091,23.9776,43.117006)"/>
<use data-text="8" xlink:href="#font_2_9" transform="matrix(10.909972,0,0,-10.9091,29.432587,43.117006)"/>
<use data-text="5" xlink:href="#font_2_6" transform="matrix(10.909972,0,0,-10.9091,23.9776,41.425004)"/>
<use data-text="2" xlink:href="#font_2_3" transform="matrix(10.909972,0,0,-10.9091,29.432587,41.425004)"/>
<use data-text="5" xlink:href="#font_2_6" transform="matrix(10.909972,0,0,-10.9091,23.9776,39.732004)"/>
<use data-text="6" xlink:href="#font_2_7" transform="matrix(10.909972,0,0,-10.9091,29.432587,39.732004)"/>
<use data-text="6" xlink:href="#font_2_7" transform="matrix(10.909972,0,0,-10.9091,23.9776,38.04)"/>
<use data-text="0" xlink:href="#font_2_1" transform="matrix(10.909972,0,0,-10.9091,29.432587,38.04)"/>
<use data-text="6" xlink:href="#font_2_7" transform="matrix(10.909972,0,0,-10.9091,23.9776,36.347)"/>
<use data-text="4" xlink:href="#font_2_5" transform="matrix(10.909972,0,0,-10.9091,29.432587,36.347)"/>
<use data-text="6" xlink:href="#font_2_7" transform="matrix(10.909972,0,0,-10.9091,23.9776,34.654005)"/>
<use data-text="8" xlink:href="#font_2_9" transform="matrix(10.909972,0,0,-10.9091,29.432587,34.654005)"/>
<use data-text="7" xlink:href="#font_2_8" transform="matrix(10.909972,0,0,-10.9091,23.9776,32.962007)"/>
<use data-text="2" xlink:href="#font_2_3" transform="matrix(10.909972,0,0,-10.9091,29.432587,32.962007)"/>
<use data-text="7" xlink:href="#font_2_8" transform="matrix(10.909972,0,0,-10.9091,23.9776,31.269003)"/>
<use data-text="6" xlink:href="#font_2_7" transform="matrix(10.909972,0,0,-10.9091,29.432587,31.269003)"/>
<use data-text="8" xlink:href="#font_2_9" transform="matrix(10.909972,0,0,-10.9091,23.9776,29.577004)"/>
<use data-text="0" xlink:href="#font_2_1" transform="matrix(10.909972,0,0,-10.9091,29.432587,29.577004)"/>
<use data-text="8" xlink:href="#font_2_9" transform="matrix(10.909972,0,0,-10.9091,23.9776,27.884005)"/>
<use data-text="4" xlink:href="#font_2_5" transform="matrix(10.909972,0,0,-10.9091,29.432587,27.884005)"/>
<use data-text="8" xlink:href="#font_2_9" transform="matrix(10.909972,0,0,-10.9091,23.9776,26.192004)"/>
<use data-text="8" xlink:href="#font_2_9" transform="matrix(10.909972,0,0,-10.9091,29.432587,26.192004)"/>
<use data-text="9" xlink:href="#font_2_10" transform="matrix(10.909972,0,0,-10.9091,23.9776,24.499003)"/>
<use data-text="2" xlink:href="#font_2_3" transform="matrix(10.909972,0,0,-10.9091,29.432587,24.499003)"/>
<use data-text="9" xlink:href="#font_2_10" transform="matrix(10.909972,0,0,-10.9091,23.9776,22.807002)"/>
<use data-text="6" xlink:href="#font_2_7" transform="matrix(10.909972,0,0,-10.9091,29.432587,22.807002)"/>
<use data-text="1" xlink:href="#font_2_2" transform="matrix(10.909972,0,0,-10.9091,18.523163,21.114005)"/>
<use data-text="0" xlink:href="#font_2_1" transform="matrix(10.909972,0,0,-10.9091,23.97815,21.114005)"/>
<use data-text="0" xlink:href="#font_2_1" transform="matrix(10.909972,0,0,-10.9091,29.43312,21.114005)"/>
<use data-text="1" xlink:href="#font_2_2" transform="matrix(10.909972,0,0,-10.9091,18.523163,19.422003)"/>
<use data-text="0" xlink:href="#font_2_1" transform="matrix(10.909972,0,0,-10.9091,23.97815,19.422003)"/>
<use data-text="4" xlink:href="#font_2_5" transform="matrix(10.909972,0,0,-10.9091,29.43312,19.422003)"/>
<use data-text="1" xlink:href="#font_2_2" transform="matrix(10.909972,0,0,-10.9091,18.523163,17.729002)"/>
<use data-text="0" xlink:href="#font_2_1" transform="matrix(10.909972,0,0,-10.9091,23.97815,17.729002)"/>
<use data-text="8" xlink:href="#font_2_9" transform="matrix(10.909972,0,0,-10.9091,29.43312,17.729002)"/>
<use data-text="1" xlink:href="#font_2_2" transform="matrix(10.909972,0,0,-10.9091,18.523163,16.037005)"/>
<use data-text="1" xlink:href="#font_2_2" transform="matrix(10.909972,0,0,-10.9091,23.97815,16.037005)"/>
<use data-text="2" xlink:href="#font_2_3" transform="matrix(10.909972,0,0,-10.9091,29.43312,16.037005)"/>
<use data-text="1" xlink:href="#font_2_2" transform="matrix(10.909972,0,0,-10.9091,18.523163,14.344004)"/>
<use data-text="1" xlink:href="#font_2_2" transform="matrix(10.909972,0,0,-10.9091,23.97815,14.344004)"/>
<use data-text="6" xlink:href="#font_2_7" transform="matrix(10.909972,0,0,-10.9091,29.43312,14.344004)"/>
<use data-text="1" xlink:href="#font_2_2" transform="matrix(10.909972,0,0,-10.9091,18.523163,12.652002)"/>
<use data-text="2" xlink:href="#font_2_3" transform="matrix(10.909972,0,0,-10.9091,23.97815,12.652002)"/>
<use data-text="0" xlink:href="#font_2_1" transform="matrix(10.909972,0,0,-10.9091,29.43312,12.652002)"/>
<use data-text="1" xlink:href="#font_2_2" transform="matrix(10.909972,0,0,-10.9091,18.523163,10.959002)"/>
<use data-text="2" xlink:href="#font_2_3" transform="matrix(10.909972,0,0,-10.9091,23.97815,10.959002)"/>
<use data-text="4" xlink:href="#font_2_5" transform="matrix(10.909972,0,0,-10.9091,29.43312,10.959002)"/>
<use data-text="1" xlink:href="#font_2_2" transform="matrix(10.909972,0,0,-10.9091,18.523163,9.267004)"/>
<use data-text="2" xlink:href="#font_2_3" transform="matrix(10.909972,0,0,-10.9091,23.97815,9.267004)"/>
<use data-text="8" xlink:href="#font_2_9" transform="matrix(10.909972,0,0,-10.9091,29.43312,9.267004)"/>
<g clip-path="url(#clip_3)">
<path transform="matrix(1.00008,0,0,-1,51.70282,60.755006)" stroke-width=".99628" stroke-linecap="butt" stroke-miterlimit="10" stroke-linejoin="miter" fill="none" stroke="#ff0000" d="M0 51.1954 1.28064 49.33217 2.56128 47.50348 3.84195 45.70932 5.1226 43.94969 6.40324 42.22458 7.68391 40.53403 8.96457 38.878 10.24521 37.25652 11.52588 35.66956 12.80653 34.11714 14.08717 32.59927 15.36783 31.1159 16.64848 29.6671 17.92914 28.2528 19.2098 26.87306 20.49045 25.52785 21.7711 24.21716 23.05176 22.94102 24.33241 21.69942 25.61308 20.49234 26.89372 19.31981 28.17436 18.18181 29.45503 17.07834 30.73569 16.00941 32.01633 14.975 33.297 13.97513 34.57765 13.0098 35.85829 12.07901 37.13896 11.18275 38.41962 10.32101 39.70026 9.49382 40.98091 8.70116 42.26157 7.94305 43.54222 7.21945 44.82288 6.5304 46.10353 5.87589 47.3842 5.2559 48.66486 4.67046 49.9455 4.11954 51.22617 3.60315 52.5068 3.1213 53.78746 2.67401 55.06812 2.26123 56.34877 1.88298 57.62943 1.53929 58.91008 1.2301 60.19073 .95546 61.47139 .71536 62.75204 .50981 64.0327 .33878 65.31335 .20227 66.59401 .10031 67.87466 .03287 69.15533 0 70.43597 .00162 71.71661 .0378 72.99728 .1085 74.27794 .21375 75.55858 .35353 76.83925 .52785 78.1199 .7367 79.40054 .98007 80.68121 1.258 81.96187 1.57045 83.24251 1.91743 84.52316 2.29895 85.80382 2.71501 87.08447 3.1656 88.36513 3.65073 89.64578 4.1704 90.92645 4.72458 92.20709 5.31331 93.48775 5.9366 94.76842 6.59438 96.04906 7.28673 97.32971 8.0136 98.61037 8.775 99.89102 9.57092 101.17168 10.4014 102.45233 11.26642 103.73299 12.16597 105.01364 13.10004 106.2943 14.06865 107.57495 15.0718 108.85559 16.10947 110.13626 17.18169 111.4169 18.28844 112.69757 19.42973 113.97823 20.60555 115.25887 21.8159 116.53954 23.0608 117.82019 24.34021 119.10083 25.65417 120.3815 27.00267 121.66214 28.3857 122.9428 29.80325 124.22345 31.25536 125.5041 32.74199 126.78476 34.26315"/>
</g>
<use data-text="t" xlink:href="#font_4_1" transform="matrix(10.909972,0,0,-10.9091,113.13074,92.429)"/>
<use data-text="y" xlink:href="#font_4_2" transform="matrix(0,-10.9091,-10.909972,-0,5.6011354,38.026994)"/>
<path transform="matrix(1.00008,0,0,-1,51.70282,60.755006)" d="M144.52625 38.3996H211.66855V55.81711H144.52625Z" fill="#ffffff"/>
<path transform="matrix(1.00008,0,0,-1,51.70282,60.755006)" stroke-width=".99628" stroke-linecap="butt" stroke-miterlimit="10" stroke-linejoin="miter" fill="none" stroke="#000000" d="M144.52625 38.3996H211.66855V55.81711H144.52625Z"/>
<path transform="matrix(1.00008,0,0,-1,199.72866,13.647001)" stroke-width=".99628" stroke-linecap="butt" stroke-miterlimit="10" stroke-linejoin="miter" fill="none" stroke="#ff0000" d="M0 0H8.50412 17.00826"/>
<use data-text="S" xlink:href="#font_5_97" transform="matrix(10.909972,0,0,-10.9091,219.22823,16.734002)"/>
<use data-text="e" xlink:href="#font_5_50" transform="matrix(10.909972,0,0,-10.9091,225.29416,16.734002)"/>
<use data-text="r" xlink:href="#font_5_96" transform="matrix(10.909972,0,0,-10.9091,230.1382,16.734002)"/>
<use data-text="i" xlink:href="#font_5_66" transform="matrix(10.909972,0,0,-10.9091,234.4149,16.734002)"/>
<use data-text="e" xlink:href="#font_5_50" transform="matrix(10.909972,0,0,-10.9091,237.44788,16.734002)"/>
<use data-text="s" xlink:href="#font_5_98" transform="matrix(10.909972,0,0,-10.9091,242.2919,16.734002)"/>
<use data-text="A" xlink:href="#font_5_27" transform="matrix(10.909972,0,0,-10.9091,250.22347,16.734002)"/>
</svg>
