<svg xmlns="http://www.w3.org/2000/svg" xmlns:xlink="http://www.w3.org/1999/xlink" version="1.1" width="206" height="174" viewBox="0 0 206 174">
<defs>
<path id="font_1_1" d="M.6349945 .2529297V.31092835H.084991458V.2529297H.6349945Z"/>
<path id="font_2_2" d="M.4850006 .13195801 .45700074 .13696289C.43598939 .08299255 .41600038 .07598877 .37599183 .07598877H.11999512C.13598633 .1279602 .19499207 .19892884 .28799439 .2658844 .38398744 .33584596 .45799256 .38082887 .45799256 .49276734 .45799256 .63168337 .3659973 .6796875 .26098634 .6796875 .12399292 .6796875 .052993776 .5967102 .052993776 .54473879 .052993776 .51075747 .09098816 .49476625 .10798645 .49476625 .12599182 .49476625 .1329956 .50476077 .13699341 .5217438 .15299988 .5897064 .19198609 .64468386 .2539978 .64468386 .33099366 .64468386 .35299684 .5797119 .35299684 .50675967 .35299684 .3998108 .29899598 .33984376 .21199036 .26289369 .08898926 .15594483 .04598999 .08798218 .026992798 .009994507L.036987306 0H.45098878L.4850006 .13195801Z"/>
<path id="font_2_1" d="M.43699647 0V.0289917L.35299684 .035995485C.33198548 .037994386 .31999208 .04598999 .31999208 .08496094V.67367556L.31498719 .6796875 .10899353 .6446991V.6197052L.20199585 .6087036C.21899414 .6067047 .22599793 .5987091 .22599793 .56973269V.08496094C.22599793 .065979007 .22299195 .053985597 .21699524 .04698181 .21199036 .039993287 .20399475 .036987306 .19299317 .035995485L.10899353 .0289917V0H.43699647Z"/>
<path id="font_2_3" d="M.12998963 .3657837C.12998963 .3487854 .1349945 .33779908 .147995 .33779908 .1599884 .33779908 .18699646 .34777833 .23498535 .34777833 .31999208 .34777833 .36799623 .27090455 .36799623 .18403626 .36799623 .065216068 .30899049 .023269654 .23799134 .023269654 .17199707 .023269654 .1289978 .07319641 .10998535 .12911988 .10398865 .14808655 .09399414 .15707398 .07998657 .15707398 .06199646 .15707398 .026992798 .13809204 .026992798 .10215759 .026992798 .05921936 .09599304-.01171875 .23699951-.01171875 .38198854-.01171875 .47299195 .06121826 .47299195 .18902588 .47299195 .32281495 .35798646 .3627777 .30299378 .3677826V.3717804C.35699464 .38078309 .44400025 .4207611 .44400025 .5197296 .44400025 .6306915 .35699464 .6796875 .25 .6796875 .117996219 .6796875 .052993776 .60369876 .052993776 .5607147 .052993776 .5297241 .08799744 .51272585 .101989749 .51272585 .114990238 .51272585 .12298584 .5197296 .1269989 .5327301 .14898682 .60069277 .18699646 .64468386 .24299622 .64468386 .32199098 .64468386 .34098817 .57470706 .34098817 .51872256 .34098817 .4587555 .31999208 .38378907 .23498535 .38378907 .18699646 .38378907 .1599884 .39378358 .147995 .39378358 .1349945 .39378358 .12998963 .38378907 .12998963 .3657837Z"/>
<clipPath id="clip_3">
<path transform="matrix(1.00003,0,0,-1.00005,-96.0459,435.2531)" d="M97.13684 262.21818H291.41053V423.60997H97.13684Z"/>
</clipPath>
<path id="font_4_1" d="M.5069885 .1381836C.48298646 .0932312 .45599366 .040267946 .42799378 .040267946 .40899659 .040267946 .40098573 .06324768 .3789978 .1521759L.34700013 .2830658C.3829956 .34701539 .43399049 .42694093 .46299745 .42694093 .47200013 .42694093 .47999574 .42494203 .4909973 .4189453 .5009918 .4149475 .5109863 .4109497 .522995 .4109497 .54499819 .4109497 .56599429 .4319458 .56599429 .4589386 .56599429 .48994447 .54299929 .5019531 .5149994 .5019531 .46199037 .5019531 .4169922 .45394898 .38198854 .39796449L.33799745 .33003236H.33599855L.29599 .49794007 .2899933 .5019531 .125 .45195008 .12799073 .427948 .20298767 .43295289C.22099304 .4339447 .22799683 .42893983 .23899842 .38298036L.2749939 .2381134 .24699402 .19015503C.20399475 .11723328 .16699219 .0652771 .14299011 .0652771 .1329956 .0652771 .12298584 .0692749 .11399841 .07426453 .10398865 .07926941 .09098816 .089279178 .07398987 .089279178 .04798889 .089279178 .0309906 .0632782 .0309906 .039276124 .0309906 .010269165 .054992677-.01171875 .09498596-.01171875 .16299439-.01171875 .20199585 .056259157 .24299622 .12319946L.2829895 .18914795H.2849884L.30299378 .111206058C.32199098 .031280519 .34098817-.01171875 .3919983-.01171875 .46499635-.01171875 .5029907 .06324768 .5329895 .12420654L.5069885 .1381836Z"/>
<path id="font_4_2" d="M.070999149 .45393373 .07398987 .42893983 .14199829 .43093873C.1639862 .43193055 .16899109 .41493226 .1769867 .36291505 .18798828 .28489686 .20999146 .09286499 .20999146 .0128479 .20999146-.017166138 .20799256-.058166505 .18598938-.11117554 .16799927-.15318299 .14199829-.18218994 .12199402-.18218994 .10699463-.18218994 .09599304-.17118836 .08099365-.15118408 .068984989-.13517761 .06098938-.127182 .04598999-.127182 .019989014-.12818909-.005004883-.15818787-.005004883-.18719483-.005004883-.21418762 .023986817-.2421875 .067993167-.2421875 .15299988-.2421875 .18998719-.17919922 .27799989-.027160645 .2979889 .0068511965 .35798646 .11286926 .41999818 .21488953 .47698976 .30891419 .5399933 .40592958 .5399933 .4459381 .5399933 .48094178 .5289917 .5019531 .5219879 .5019531 .5029907 .5019531 .46899415 .49394227 .44400025 .47694398 .44499208 .4419403 .44299317 .3809204 .43099977 .33891297 .4149933 .28289796 .35598756 .17488098 .2899933 .06085205H.2869873C.27999879 .21388245 .26098634 .42492677 .24699402 .49795533L.23899842 .5019531 .070999149 .45393373Z"/>
</defs>
<path transform="matrix(1.00003,0,0,-1.00005,-96.0459,435.2531)" stroke-width=".19925" stroke-linecap="butt" stroke-miterlimit="10" stroke-linejoin="miter" fill="none" stroke="#929292" d="M116.56421 308.50975V312.7617M155.41895 308.50975V312.7617M233.12842 308.50975V312.7617M271.98316 308.50975V312.7617"/>
<path transform="matrix(1.00003,0,0,-1.00005,-96.0459,435.2531)" stroke-width=".19925" stroke-linecap="butt" stroke-miterlimit="10" stroke-linejoin="miter" fill="none" stroke="#929292" d="M192.14765 278.35737H196.39969M192.14765 342.9141H196.39969M192.14765 375.19245H196.39969M192.14765 407.4708H196.39969"/>
<path transform="matrix(1.00003,0,0,-1.00005,-96.0459,435.2531)" stroke-width=".3985" stroke-linecap="butt" stroke-miterlimit="10" stroke-linejoin="miter" fill="none" stroke="#000000" d="M97.13684 310.6357H289.418"/>
<path transform="matrix(1.00003,0,0,-1.00005,193.3808,124.6019)" d="M1.99252 0-1.19551 1.59401 0 0-1.19551-1.59401"/>
<path transform="matrix(1.00003,0,0,-1.00005,-96.0459,435.2531)" stroke-width=".3985" stroke-linecap="butt" stroke-miterlimit="10" stroke-linejoin="miter" fill="none" stroke="#000000" d="M194.27368 262.21818V421.61747"/>
<path transform="matrix(0,-1.00005,-1.00003,-0,98.23361,13.6145939)" d="M1.99252 0-1.19551 1.59401 0 0-1.19551-1.59401"/>
<use data-text="&#x2212;" xlink:href="#font_1_1" transform="matrix(10.036701,0,0,-10.036901,14.248411,136.84723)"/>
<use data-text="2" xlink:href="#font_2_2" transform="matrix(10.036701,0,0,-10.036901,21.470629,136.84723)"/>
<use data-text="&#x2212;" xlink:href="#font_1_1" transform="matrix(10.036701,0,0,-10.036901,53.104585,136.84723)"/>
<use data-text="1" xlink:href="#font_2_1" transform="matrix(10.036701,0,0,-10.036901,60.326799,136.84723)"/>
<use data-text="1" xlink:href="#font_2_1" transform="matrix(10.036701,0,0,-10.036901,134.42803,136.84723)"/>
<use data-text="2" xlink:href="#font_2_2" transform="matrix(10.036701,0,0,-10.036901,173.2832,136.84723)"/>
<use data-text="&#x2212;" xlink:href="#font_1_1" transform="matrix(10.036701,0,0,-10.036901,80.1624,160.24237)"/>
<use data-text="1" xlink:href="#font_2_1" transform="matrix(10.036701,0,0,-10.036901,87.38461,160.24237)"/>
<use data-text="1" xlink:href="#font_2_1" transform="matrix(10.036701,0,0,-10.036901,87.38461,95.68216)"/>
<use data-text="2" xlink:href="#font_2_2" transform="matrix(10.036701,0,0,-10.036901,87.38461,63.402528)"/>
<use data-text="3" xlink:href="#font_2_3" transform="matrix(10.036701,0,0,-10.036901,87.38461,31.09494)"/>
<g clip-path="url(#clip_3)">
<path transform="matrix(1.00003,0,0,-1.00005,-96.0459,435.2531)" stroke-width=".79701" stroke-linecap="butt" stroke-dasharray="2.98883,2.98883" stroke-miterlimit="10" stroke-linejoin="miter" fill="none" stroke="#ff8000" d="M0 181.52228C0 181.52228 11.69676 191.23929 16.18921 194.97136 20.68164 198.70343 27.88597 204.68843 32.37842 208.4205 36.87085 212.15258 44.07518 218.13751 48.56763 221.86959 53.06006 225.60166 60.2644 231.5866 64.75685 235.31867 69.2493 239.05074 76.45361 245.03568 80.94606 248.76775 85.4385 252.49982 92.64282 258.48484 97.13527 262.2169 101.62772 265.94898 108.83205 271.9339 113.3245 275.666 117.81694 279.39808 125.02126 285.383 129.5137 289.11509 134.00615 292.84715 141.21047 298.83216 145.70291 302.5642 150.19536 306.2963 157.39969 312.28123 161.89214 316.01329 166.38459 319.74537 173.58892 325.7303 178.08135 329.46238 182.57379 333.19444 189.77812 339.17945 194.27056 342.9115 198.763 346.6436 205.96733 352.62855 210.45977 356.3606 214.95221 360.09269 222.15656 366.0776 226.64899 369.8097 231.14144 373.54176 238.34577 379.5267 242.83821 383.25877 247.33065 386.99085 254.53498 392.97587 259.0274 396.70793 263.51985 400.44 270.7242 406.42494 275.21665 410.157 279.70909 413.88908 286.9134 419.87403 291.40586 423.60609 295.8983 427.33815 303.10264 433.32319 307.59507 437.0552 312.08753 440.7873 319.29185 446.77226 323.7843 450.50434 328.27674 454.2364 335.48106 460.22135 339.9735 463.9534 344.46595 467.68547 351.67027 473.67048 356.1627 477.40254 360.65516 481.1346 367.85948 487.11955 372.3519 490.85163 376.84437 494.5837 388.54115 504.3007 388.54115 504.3007"/>
<path transform="matrix(1.00003,0,0,-1.00005,-96.0459,435.2531)" stroke-width=".79701" stroke-linecap="butt" stroke-miterlimit="10" stroke-linejoin="miter" fill="none" stroke="#0000ff" d="M0 685.87167C0 685.87167 11.69676 609.1994 16.18921 583.45059 20.68164 557.7017 27.88597 520.9385 32.37842 500.29209 36.87085 479.64567 44.07518 450.67539 48.56763 434.64543 53.06006 418.61549 60.2644 396.65876 64.75685 384.75926 69.2493 372.8598 76.45361 357.1372 80.94606 348.8823 85.4385 340.62739 92.64282 330.35984 97.13527 325.26359 101.62772 320.16734 108.83205 314.5756 113.3245 312.15208 117.81694 309.72856 125.02126 308.03324 129.5137 307.79649 134.00615 307.55976 141.21047 308.98164 145.70291 310.44578 150.19536 311.90986 157.39969 315.66978 161.89214 318.34883 166.38459 321.02787 173.58892 326.34638 178.08135 329.75444 182.57379 333.16246 189.77812 339.26045 194.27056 342.9115 198.763 346.5626 205.96733 352.6607 210.45977 356.0689 214.95221 359.47715 222.15656 364.79615 226.64899 367.47554 231.14144 370.15495 238.34577 373.91557 242.83821 375.38023 247.33065 376.8449 254.53498 378.26786 259.0274 378.03187 263.51985 377.79588 270.7242 376.10194 275.21665 373.67936 279.70909 371.25675 286.9134 365.66664 291.40586 360.57154 295.8983 355.4764 303.10264 345.2108 307.59507 336.9572 312.08753 328.7036 319.29185 312.98326 323.7843 301.08528 328.27674 289.18733 335.48106 267.2332 339.9735 251.20488 344.46595 235.17658 351.67027 206.20893 356.1627 185.56436 360.65516 164.91979 367.85948 128.15982 372.3519 102.4131 376.84437 76.6664 388.54115 0 388.54115 0"/>
</g>
<path transform="matrix(1.00003,0,0,-1.00005,-96.0459,435.2531)" d="M196.26624 342.9141C196.26624 344.01454 195.37415 344.90663 194.27368 344.90663 193.1732 344.90663 192.28113 344.01454 192.28113 342.9141 192.28113 341.8136 193.1732 340.9215 194.27368 340.9215 195.37415 340.9215 196.26624 341.8136 196.26624 342.9141ZM194.27368 342.9141"/>
<path transform="matrix(1.00003,0,0,-1.00005,-96.0459,435.2531)" stroke-width=".3985" stroke-linecap="butt" stroke-miterlimit="10" stroke-linejoin="miter" fill="none" stroke="#000000" d="M196.26624 342.9141C196.26624 344.01454 195.37415 344.90663 194.27368 344.90663 193.1732 344.90663 192.28113 344.01454 192.28113 342.9141 192.28113 341.8136 193.1732 340.9215 194.27368 340.9215 195.37415 340.9215 196.26624 341.8136 196.26624 342.9141ZM194.27368 342.9141"/>
<path transform="matrix(1.00003,0,0,-1.00005,-96.0459,435.2531)" d="M235.12097 371.15766C235.12097 372.25813 234.22888 373.1502 233.12842 373.1502 232.02794 373.1502 231.13587 372.25813 231.13587 371.15766 231.13587 370.05717 232.02794 369.1651 233.12842 369.1651 234.22888 369.1651 235.12097 370.05717 235.12097 371.15766ZM233.12842 371.15766"/>
<path transform="matrix(1.00003,0,0,-1.00005,-96.0459,435.2531)" stroke-width=".3985" stroke-linecap="butt" stroke-miterlimit="10" stroke-linejoin="miter" fill="none" stroke="#000000" d="M235.12097 371.15766C235.12097 372.25813 234.22888 373.1502 233.12842 373.1502 232.02794 373.1502 231.13587 372.25813 231.13587 371.15766 231.13587 370.05717 232.02794 369.1651 233.12842 369.1651 234.22888 369.1651 235.12097 370.05717 235.12097 371.15766ZM233.12842 371.15766"/>
<path transform="matrix(1.00003,0,0,-1.00005,-96.0459,435.2531)" d="M235.12097 375.19245C235.12097 376.2929 234.22888 377.18498 233.12842 377.18498 232.02794 377.18498 231.13587 376.2929 231.13587 375.19245 231.13587 374.09196 232.02794 373.19987 233.12842 373.19987 234.22888 373.19987 235.12097 374.09196 235.12097 375.19245ZM233.12842 375.19245"/>
<path transform="matrix(1.00003,0,0,-1.00005,-96.0459,435.2531)" stroke-width=".3985" stroke-linecap="butt" stroke-miterlimit="10" stroke-linejoin="miter" fill="none" stroke="#000000" d="M235.12097 375.19245C235.12097 376.2929 234.22888 377.18498 233.12842 377.18498 232.02794 377.18498 231.13587 376.2929 231.13587 375.19245 231.13587 374.09196 232.02794 373.19987 233.12842 373.19987 234.22888 373.19987 235.12097 374.09196 235.12097 375.19245ZM233.12842 375.19245"/>
<path transform="matrix(1.00003,0,0,-1.00005,-96.0459,435.2531)" stroke-width=".3985" stroke-linecap="butt" stroke-miterlimit="10" stroke-linejoin="miter" fill="none" stroke="#000000" d=""/>
<use data-text="x" xlink:href="#font_4_1" transform="matrix(10.036701,0,0,-10.036901,198.98995,132.965)"/>
<use data-text="y" xlink:href="#font_4_2" transform="matrix(10.036701,0,0,-10.036901,89.21667,5.75766)"/>
</svg>
