<svg xmlns="http://www.w3.org/2000/svg" xmlns:xlink="http://www.w3.org/1999/xlink" version="1.1" width="241" height="132" viewBox="0 0 241 132">
<defs>
<path id="font_1_1" d="M.42799378 .45222474 .43899537 .49023438H.31199647L.34599305 .6092224 .33399964 .6162262 .23699951 .53923037 .22399903 .49023438H.14299011L.13198853 .45222474H.21499634L.125 .08627319C.10998535 .029266358 .12199402-.01171875 .17199707-.01171875 .2519989-.01171875 .31599427 .054275514 .35598756 .1292572L.33399964 .1462555C.31098939 .10726929 .2599945 .040267946 .22898865 .040267946 .20799256 .040267946 .20799256 .0632782 .21398926 .088272098L.30299378 .45222474H.42799378Z"/>
<path id="font_2_3" d="M.2999878 .17871094V.0769043C.2999878 .04296875 .2889862 .036987306 .2649994 .034988405L.20098877 .0289917V0H.46499635V.0289917L.41999818 .033981325C.39698792 .036987306 .3899994 .04296875 .3899994 .0769043V.17871094H.49299623V.22570801H.3899994V.66796877H.31698609C.22299195 .5298767 .11099243 .35577394 .018997193 .19970703L.027999878 .17871094H.2999878M.09098816 .22570801C.15098572 .33476258 .22099304 .4498291 .2979889 .5709076H.2999878V.22570801H.09098816Z"/>
<path id="font_2_4" d="M.27198792-.01171875C.41999818-.01171875 .49899293 .07821655 .49899293 .2140503 .49899293 .3488922 .4119873 .42385865 .30799867 .421875 .23199463 .42385865 .17199707 .36886598 .14498902 .33590699H.14299011C.14399719 .5557556 .20698548 .64468386 .29699708 .64468386 .34298707 .64468386 .375 .6057129 .3899994 .5487671 .3929901 .5367737 .40098573 .527771 .41600038 .527771 .43798829 .527771 .46899415 .5447693 .46899415 .57273867 .46899415 .6127014 .41999818 .6796875 .2999878 .6796875 .22099304 .6796875 .16499329 .64967349 .12298584 .6017151 .07798767 .5497589 .04399109 .45384217 .04399109 .3089447 .04399109 .093185428 .12199402-.01171875 .27198792-.01171875M.27398683 .37086488C.33699037 .37086488 .39898683 .31393434 .39898683 .19906616 .39898683 .094192508 .35798646 .023269654 .27398683 .023269654 .18699646 .023269654 .14498902 .11616516 .14498902 .23602295 .14498902 .2969513 .18998719 .37086488 .27398683 .37086488Z"/>
<path id="font_1_2" d="M.070999149 .45393373 .07398987 .42893983 .14199829 .43093873C.1639862 .43193055 .16899109 .41493226 .1769867 .36291505 .18798828 .28489686 .20999146 .09286499 .20999146 .0128479 .20999146-.017166138 .20799256-.058166505 .18598938-.11117554 .16799927-.15318299 .14199829-.18218994 .12199402-.18218994 .10699463-.18218994 .09599304-.17118836 .08099365-.15118408 .068984989-.13517761 .06098938-.127182 .04598999-.127182 .019989014-.12818909-.005004883-.15818787-.005004883-.18719483-.005004883-.21418762 .023986817-.2421875 .067993167-.2421875 .15299988-.2421875 .18998719-.17919922 .27799989-.027160645 .2979889 .0068511965 .35798646 .11286926 .41999818 .21488953 .47698976 .30891419 .5399933 .40592958 .5399933 .4459381 .5399933 .48094178 .5289917 .5019531 .5219879 .5019531 .5029907 .5019531 .46899415 .49394227 .44400025 .47694398 .44499208 .4419403 .44299317 .3809204 .43099977 .33891297 .4149933 .28289796 .35598756 .17488098 .2899933 .06085205H.2869873C.27999879 .21388245 .26098634 .42492677 .24699402 .49795533L.23899842 .5019531 .070999149 .45393373Z"/>
<path id="font_3_1" d="M.6349945 .2529297V.31092835H.084991458V.2529297H.6349945Z"/>
<path id="font_2_1" d="M.43699647 0V.0289917L.35299684 .035995485C.33198548 .037994386 .31999208 .04598999 .31999208 .08496094V.67367556L.31498719 .6796875 .10899353 .6446991V.6197052L.20199585 .6087036C.21899414 .6067047 .22599793 .5987091 .22599793 .56973269V.08496094C.22599793 .065979007 .22299195 .053985597 .21699524 .04698181 .21199036 .039993287 .20399475 .036987306 .19299317 .035995485L.10899353 .0289917V0H.43699647Z"/>
<path id="font_2_2" d="M.4850006 .13195801 .45700074 .13696289C.43598939 .08299255 .41600038 .07598877 .37599183 .07598877H.11999512C.13598633 .1279602 .19499207 .19892884 .28799439 .2658844 .38398744 .33584596 .45799256 .38082887 .45799256 .49276734 .45799256 .63168337 .3659973 .6796875 .26098634 .6796875 .12399292 .6796875 .052993776 .5967102 .052993776 .54473879 .052993776 .51075747 .09098816 .49476625 .10798645 .49476625 .12599182 .49476625 .1329956 .50476077 .13699341 .5217438 .15299988 .5897064 .19198609 .64468386 .2539978 .64468386 .33099366 .64468386 .35299684 .5797119 .35299684 .50675967 .35299684 .3998108 .29899598 .33984376 .21199036 .26289369 .08898926 .15594483 .04598999 .08798218 .026992798 .009994507L.036987306 0H.45098878L.4850006 .13195801Z"/>
</defs>
<path transform="matrix(1.00006,0,0,-1.00009,52.617738,47.038156)" stroke-width=".3985" stroke-linecap="butt" stroke-miterlimit="10" stroke-linejoin="miter" fill="none" stroke="#000000" d="M-51.02432 0H183.79598"/>
<path transform="matrix(1.00006,0,0,-1.00009,236.42473,47.038156)" stroke-width=".31879" stroke-linecap="round" stroke-linejoin="round" fill="none" stroke="#000000" d="M-1.19551 1.59401C-1.09587 .99626 0 .09961 .29886 0 0-.09961-1.09587-.99626-1.19551-1.59401"/>
<use data-text="t" xlink:href="#font_1_1" transform="matrix(10.037002,0,0,-10.037303,234.74465,56.623018)"/>
<path transform="matrix(1.00006,0,0,-1.00009,52.617738,47.038156)" stroke-width=".3985" stroke-linecap="butt" stroke-miterlimit="10" stroke-linejoin="miter" fill="none" stroke="#000000" d="M113.38724-1.98447V1.98447"/>
<use data-text="4" xlink:href="#font_2_3" transform="matrix(10.037002,0,0,-10.037303,163.34937,57.158067)"/>
<path transform="matrix(1.00006,0,0,-1.00009,52.617738,47.038156)" stroke-width=".3985" stroke-linecap="butt" stroke-miterlimit="10" stroke-linejoin="miter" fill="none" stroke="#000000" d="M170.08086-1.98447V1.98447"/>
<use data-text="6" xlink:href="#font_2_4" transform="matrix(10.037002,0,0,-10.037303,220.04679,57.158067)"/>
<path transform="matrix(1.00006,0,0,-1.00009,52.617738,47.038156)" stroke-width=".3985" stroke-linecap="butt" stroke-miterlimit="10" stroke-linejoin="miter" fill="none" stroke="#cbcbcb" d="M-28.3468-79.37114V42.5202"/>
<path transform="matrix(1.00006,0,0,-1.00009,52.617738,47.038156)" stroke-width=".3985" stroke-linecap="butt" stroke-miterlimit="10" stroke-linejoin="miter" fill="none" stroke="#cbcbcb" d="M0-79.37114V42.5202"/>
<path transform="matrix(1.00006,0,0,-1.00009,52.617738,47.038156)" stroke-width=".3985" stroke-linecap="butt" stroke-miterlimit="10" stroke-linejoin="miter" fill="none" stroke="#cbcbcb" d="M28.3468-79.37114V42.5202"/>
<path transform="matrix(1.00006,0,0,-1.00009,52.617738,47.038156)" stroke-width=".3985" stroke-linecap="butt" stroke-miterlimit="10" stroke-linejoin="miter" fill="none" stroke="#cbcbcb" d="M56.69362-79.37114V42.5202"/>
<path transform="matrix(1.00006,0,0,-1.00009,52.617738,47.038156)" stroke-width=".3985" stroke-linecap="butt" stroke-miterlimit="10" stroke-linejoin="miter" fill="none" stroke="#cbcbcb" d="M85.04042-79.37114V42.5202"/>
<path transform="matrix(1.00006,0,0,-1.00009,52.617738,47.038156)" stroke-width=".3985" stroke-linecap="butt" stroke-miterlimit="10" stroke-linejoin="miter" fill="none" stroke="#cbcbcb" d="M113.38724-79.37114V42.5202"/>
<path transform="matrix(1.00006,0,0,-1.00009,52.617738,47.038156)" stroke-width=".3985" stroke-linecap="butt" stroke-miterlimit="10" stroke-linejoin="miter" fill="none" stroke="#cbcbcb" d="M141.73404-79.37114V42.5202"/>
<path transform="matrix(1.00006,0,0,-1.00009,52.617738,47.038156)" stroke-width=".3985" stroke-linecap="butt" stroke-miterlimit="10" stroke-linejoin="miter" fill="none" stroke="#cbcbcb" d="M170.08086-79.37114V42.5202"/>
<path transform="matrix(1.00006,0,0,-1.00009,52.617738,47.038156)" stroke-width=".3985" stroke-linecap="butt" stroke-miterlimit="10" stroke-linejoin="miter" fill="none" stroke="#000000" d="M0-79.37114V42.06192"/>
<path transform="matrix(0,-1.00009,-1.00006,-0,52.617738,4.9724504)" stroke-width=".31879" stroke-linecap="round" stroke-linejoin="round" fill="none" stroke="#000000" d="M-1.19551 1.59401C-1.09587 .99626 0 .09961 .29886 0 0-.09961-1.09587-.99626-1.19551-1.59401"/>
<use data-text="y" xlink:href="#font_1_2" transform="matrix(10.037002,0,0,-10.037303,43.59919,5.763439)"/>
<path transform="matrix(1.00006,0,0,-1.00009,52.617738,47.038156)" stroke-width=".3985" stroke-linecap="butt" stroke-miterlimit="10" stroke-linejoin="miter" fill="none" stroke="#000000" d="M-1.98447-28.3468H1.98447"/>
<use data-text="&#x2212;" xlink:href="#font_3_1" transform="matrix(10.037002,0,0,-10.037303,36.672784,78.74801)"/>
<use data-text="1" xlink:href="#font_2_1" transform="matrix(10.037002,0,0,-10.037303,43.895227,78.74801)"/>
<path transform="matrix(1.00006,0,0,-1.00009,52.617738,47.038156)" stroke-width=".3985" stroke-linecap="butt" stroke-miterlimit="10" stroke-linejoin="miter" fill="none" stroke="#000000" d="M-1.98447 28.3468H1.98447"/>
<use data-text="1" xlink:href="#font_2_1" transform="matrix(10.037002,0,0,-10.037303,43.89421,22.048907)"/>
<path transform="matrix(1.00006,0,0,-1.00009,52.617738,47.038156)" stroke-width=".3985" stroke-linecap="butt" stroke-miterlimit="10" stroke-linejoin="miter" fill="none" stroke="#cbcbcb" d="M-51.02432-56.69362H184.25424"/>
<path transform="matrix(1.00006,0,0,-1.00009,52.617738,47.038156)" stroke-width=".3985" stroke-linecap="butt" stroke-miterlimit="10" stroke-linejoin="miter" fill="none" stroke="#cbcbcb" d="M-51.02432-28.3468H184.25424"/>
<path transform="matrix(1.00006,0,0,-1.00009,52.617738,47.038156)" stroke-width=".3985" stroke-linecap="butt" stroke-miterlimit="10" stroke-linejoin="miter" fill="none" stroke="#cbcbcb" d="M-51.02432 0H184.25424"/>
<path transform="matrix(1.00006,0,0,-1.00009,52.617738,47.038156)" stroke-width=".3985" stroke-linecap="butt" stroke-miterlimit="10" stroke-linejoin="miter" fill="none" stroke="#cbcbcb" d="M-51.02432 28.3468H184.25424"/>
<path transform="matrix(1.00006,0,0,-1.00009,52.617738,47.038156)" stroke-width="1.19553" stroke-linecap="butt" stroke-miterlimit="10" stroke-linejoin="miter" fill="none" stroke="#000000" d="M-50.16896-81.77788-41.22128-77.30405-31.41824-72.40251-21.6152-67.501-11.81216-62.59947-2.00911-57.69797 7.79388-52.79688 17.59692-47.89534 27.39996-42.99384 37.203-38.0923 47.00604-33.1908 56.80908-28.28926 66.61212-23.38776 76.41518-18.48622 86.21822-13.5847 96.02126-8.68318 105.8243-3.78166 115.62733 1.11983 125.43037 6.02135 135.23342 10.92287 145.03646 15.82439 154.8395 20.7259 164.64255 25.62743 174.44559 30.52896 183.39325 35.00279"/>
<path transform="matrix(-.89441367,.44721023,.4471968,.8944405,2.445778,128.8234)" stroke-width=".9564" stroke-linecap="round" stroke-linejoin="round" fill="none" stroke="#000000" d="M-1.91284 2.55046C-1.75343 1.59402 0 .15938 .4782 0 0-.15938-1.75343-1.59402-1.91284-2.55046"/>
<path transform="matrix(.89441367,-.44721023,-.4471968,-.8944405,236.02198,12.032215)" stroke-width=".9564" stroke-linecap="round" stroke-linejoin="round" fill="none" stroke="#000000" d="M-1.91284 2.55046C-1.75343 1.59402 0 .15938 .4782 0 0-.15938-1.75343-1.59402-1.91284-2.55046"/>
<path transform="matrix(1.00006,0,0,-1.00009,52.617738,47.038156)" stroke-width=".79701" stroke-linecap="butt" stroke-miterlimit="10" stroke-linejoin="miter" fill="none" stroke="#000000" d="M0-56.69362V-29.05417"/>
<path transform="matrix(0,-1.00009,-1.00006,-0,52.617738,76.09494)" stroke-width=".6376" stroke-linecap="round" stroke-linejoin="round" fill="none" stroke="#000000" d="M-1.55415 2.0722C-1.42464 1.29512 0 .1295 .38852 0 0-.1295-1.42464-1.29512-1.55415-2.0722"/>
<path transform="matrix(1.00006,0,0,-1.00009,52.617738,47.038156)" d="M-5.86153-49.07993H5.8615205V-35.96051H-5.86153Z" fill="#ffffff"/>
<use data-text="1" xlink:href="#font_2_1" transform="matrix(10.037002,0,0,-10.037303,49.955575,92.92229)"/>
<path transform="matrix(1.00006,0,0,-1.00009,52.617738,47.038156)" stroke-width=".79701" stroke-linecap="butt" stroke-miterlimit="10" stroke-linejoin="miter" fill="none" stroke="#000000" d="M0-28.3468H53.15138"/>
<path transform="matrix(1.00006,0,0,-1.00009,105.7723,75.387508)" stroke-width=".6376" stroke-linecap="round" stroke-linejoin="round" fill="none" stroke="#000000" d="M-1.55415 2.0722C-1.42464 1.29512 0 .1295 .38852 0 0-.1295-1.42464-1.29512-1.55415-2.0722"/>
<path transform="matrix(1.00006,0,0,-1.00009,52.617738,47.038156)" d="M21.06784-34.90651H32.79089V-21.78709H21.06784Z" fill="#ffffff"/>
<use data-text="2" xlink:href="#font_2_2" transform="matrix(10.037002,0,0,-10.037303,76.88719,78.74801)"/>
<path transform="matrix(1.00006,0,0,-1.00009,52.617738,47.038156)" d="M2.98883-56.69362C2.98883-55.04291 1.6507-53.70479 0-53.70479-1.6507-53.70479-2.98883-55.04291-2.98883-56.69362-2.98883-58.34431-1.6507-59.68245 0-59.68245 1.6507-59.68245 2.98883-58.34431 2.98883-56.69362ZM0-56.69362" fill="#ccccff"/>
<path transform="matrix(1.00006,0,0,-1.00009,52.617738,47.038156)" stroke-width=".3985" stroke-linecap="butt" stroke-miterlimit="10" stroke-linejoin="miter" fill="none" stroke="#000000" d="M2.98883-56.69362C2.98883-55.04291 1.6507-53.70479 0-53.70479-1.6507-53.70479-2.98883-55.04291-2.98883-56.69362-2.98883-58.34431-1.6507-59.68245 0-59.68245 1.6507-59.68245 2.98883-58.34431 2.98883-56.69362ZM0-56.69362"/>
<path transform="matrix(1.00006,0,0,-1.00009,52.617738,47.038156)" stroke-width=".79701" stroke-linecap="butt" stroke-miterlimit="10" stroke-linejoin="miter" fill="none" stroke="#000000" d="M56.69362-28.3468V-.70735"/>
<path transform="matrix(0,-1.00009,-1.00006,-0,109.31476,47.745569)" stroke-width=".6376" stroke-linecap="round" stroke-linejoin="round" fill="none" stroke="#000000" d="M-1.55415 2.0722C-1.42464 1.29512 0 .1295 .38852 0 0-.1295-1.42464-1.29512-1.55415-2.0722"/>
<path transform="matrix(1.00006,0,0,-1.00009,52.617738,47.038156)" d="M50.83208-20.73312H62.55513V-7.6137H50.83208Z" fill="#ffffff"/>
<use data-text="1" xlink:href="#font_2_1" transform="matrix(10.037002,0,0,-10.037303,106.65298,64.57273)"/>
<path transform="matrix(1.00006,0,0,-1.00009,52.617738,47.038156)" stroke-width=".79701" stroke-linecap="butt" stroke-miterlimit="10" stroke-linejoin="miter" fill="none" stroke="#000000" d="M56.69362 0H109.845"/>
<path transform="matrix(1.00006,0,0,-1.00009,162.46933,47.038156)" stroke-width=".6376" stroke-linecap="round" stroke-linejoin="round" fill="none" stroke="#000000" d="M-1.55415 2.0722C-1.42464 1.29512 0 .1295 .38852 0 0-.1295-1.42464-1.29512-1.55415-2.0722"/>
<path transform="matrix(1.00006,0,0,-1.00009,52.617738,47.038156)" d="M77.76146-6.55971H89.48451V6.55971H77.76146Z" fill="#ffffff"/>
<use data-text="2" xlink:href="#font_2_2" transform="matrix(10.037002,0,0,-10.037303,133.58359,50.398458)"/>
<path transform="matrix(1.00006,0,0,-1.00009,52.617738,47.038156)" d="M59.68245-28.3468C59.68245-26.69609 58.34431-25.35797 56.69362-25.35797 55.04291-25.35797 53.70479-26.69609 53.70479-28.3468 53.70479-29.99751 55.04291-31.33563 56.69362-31.33563 58.34431-31.33563 59.68245-29.99751 59.68245-28.3468ZM56.69362-28.3468" fill="#ccccff"/>
<path transform="matrix(1.00006,0,0,-1.00009,52.617738,47.038156)" stroke-width=".3985" stroke-linecap="butt" stroke-miterlimit="10" stroke-linejoin="miter" fill="none" stroke="#000000" d="M59.68245-28.3468C59.68245-26.69609 58.34431-25.35797 56.69362-25.35797 55.04291-25.35797 53.70479-26.69609 53.70479-28.3468 53.70479-29.99751 55.04291-31.33563 56.69362-31.33563 58.34431-31.33563 59.68245-29.99751 59.68245-28.3468ZM56.69362-28.3468"/>
<path transform="matrix(1.00006,0,0,-1.00009,52.617738,47.038156)" stroke-width=".79701" stroke-linecap="butt" stroke-miterlimit="10" stroke-linejoin="miter" fill="none" stroke="#000000" d="M113.38724 0V27.63943"/>
<path transform="matrix(0,-1.00009,-1.00006,-0,166.01178,19.396239)" stroke-width=".6376" stroke-linecap="round" stroke-linejoin="round" fill="none" stroke="#000000" d="M-1.55415 2.0722C-1.42464 1.29512 0 .1295 .38852 0 0-.1295-1.42464-1.29512-1.55415-2.0722"/>
<path transform="matrix(1.00006,0,0,-1.00009,52.617738,47.038156)" d="M107.5257 7.61368H119.24876V20.7331H107.5257Z" fill="#ffffff"/>
<use data-text="1" xlink:href="#font_2_1" transform="matrix(10.037002,0,0,-10.037303,163.34937,36.224184)"/>
<path transform="matrix(1.00006,0,0,-1.00009,52.617738,47.038156)" stroke-width=".79701" stroke-linecap="butt" stroke-miterlimit="10" stroke-linejoin="miter" fill="none" stroke="#000000" d="M113.38724 28.3468H166.53862"/>
<path transform="matrix(1.00006,0,0,-1.00009,219.16634,18.688803)" stroke-width=".6376" stroke-linecap="round" stroke-linejoin="round" fill="none" stroke="#000000" d="M-1.55415 2.0722C-1.42464 1.29512 0 .1295 .38852 0 0-.1295-1.42464-1.29512-1.55415-2.0722"/>
<path transform="matrix(1.00006,0,0,-1.00009,52.617738,47.038156)" d="M134.45508 21.7871H146.17813V34.90652H134.45508Z" fill="#ffffff"/>
<use data-text="2" xlink:href="#font_2_2" transform="matrix(10.037002,0,0,-10.037303,190.28099,22.048907)"/>
<path transform="matrix(1.00006,0,0,-1.00009,52.617738,47.038156)" d="M116.37607 0C116.37607 1.6507 115.03793 2.98883 113.38724 2.98883 111.73653 2.98883 110.3984 1.6507 110.3984 0 110.3984-1.6507 111.73653-2.98883 113.38724-2.98883 115.03793-2.98883 116.37607-1.6507 116.37607 0ZM113.38724 0" fill="#ccccff"/>
<path transform="matrix(1.00006,0,0,-1.00009,52.617738,47.038156)" stroke-width=".3985" stroke-linecap="butt" stroke-miterlimit="10" stroke-linejoin="miter" fill="none" stroke="#000000" d="M116.37607 0C116.37607 1.6507 115.03793 2.98883 113.38724 2.98883 111.73653 2.98883 110.3984 1.6507 110.3984 0 110.3984-1.6507 111.73653-2.98883 113.38724-2.98883 115.03793-2.98883 116.37607-1.6507 116.37607 0ZM113.38724 0"/>
</svg>
