<svg xmlns="http://www.w3.org/2000/svg" xmlns:xlink="http://www.w3.org/1999/xlink" version="1.1" width="236" height="197" viewBox="0 0 236 197">
<defs>
<path id="font_1_2" d="M.42799378 .45222474 .43899537 .49023438H.31199647L.34599305 .6092224 .33399964 .6162262 .23699951 .53923037 .22399903 .49023438H.14299011L.13198853 .45222474H.21499634L.125 .08627319C.10998535 .029266358 .12199402-.01171875 .17199707-.01171875 .2519989-.01171875 .31599427 .054275514 .35598756 .1292572L.33399964 .1462555C.31098939 .10726929 .2599945 .040267946 .22898865 .040267946 .20799256 .040267946 .20799256 .0632782 .21398926 .088272098L.30299378 .45222474H.42799378Z"/>
<path id="font_1_1" d="M.43199159 .49023438H.3019867L.32998658 .6031952C.34899903 .67918398 .36799623 .70718386 .3959961 .70718386 .4229889 .70718386 .44099427 .68518069 .46299745 .6371918 .46798707 .62719729 .47499085 .6201935 .48999024 .6201935 .5099945 .6201935 .5389862 .6391907 .5389862 .6641846 .5389862 .70718386 .4850006 .7421875 .4249878 .7421875 .3600006 .7421875 .31799317 .71517947 .2849884 .67318728 .2539978 .63420107 .23399353 .5802002 .21998596 .5272217L.20999146 .49023438H.12298584L.11199951 .45222474H.20098877L.084991458-.137146C.07299805-.19918823 .06298828-.2052002 .052993776-.2052002 .041992189-.2052002 .026992798-.19718933 0-.15615845-.007003784-.14616394-.014007568-.13415528-.027008057-.13415528-.04901123-.13415528-.072006229-.15916443-.072006229-.18418885-.071014408-.2171936-.028015137-.2421875 .018997193-.2421875 .11898804-.2421875 .16099549-.16116333 .20298767 .030960083L.29599 .45222474H.42199708L.43199159 .49023438Z"/>
<path id="font_2_1" d="M.1749878 .2822113C.1749878 .56832888 .2619934 .65437319 .32499696 .66737368V.6923828C.1499939 .685379 .10499573 .46829225 .10499573 .2822113 .10499573 .09614563 .1499939-.12094116 .32499696-.12792969V-.10293579C.2669983-.090927127 .1749878-.0059051516 .1749878 .2822113Z"/>
<path id="font_2_2" d="M.1749878 .2822113C.1749878-.0059051516 .08299255-.090927127 .024993897-.10293579V-.12792969C.19999695-.12094116 .24499512 .09614563 .24499512 .2822113 .24499512 .46829225 .19999695 .685379 .024993897 .6923828V.66737368C.08799744 .65437319 .1749878 .56832888 .1749878 .2822113Z"/>
</defs>
<path transform="matrix(1.2,0,0,-1.2,20.559212,179.37021)" stroke-width=".19925" stroke-linecap="butt" stroke-miterlimit="10" stroke-linejoin="miter" fill="none" stroke="#929292" d=""/>
<path transform="matrix(1.2,0,0,-1.2,20.559212,179.37021)" stroke-width=".19925" stroke-linecap="butt" stroke-miterlimit="10" stroke-linejoin="miter" fill="none" stroke="#929292" d=""/>
<path transform="matrix(1.2,0,0,-1.2,20.559212,179.37021)" stroke-width=".3985" stroke-linecap="butt" stroke-miterlimit="10" stroke-linejoin="miter" fill="none" stroke="#000000" d="M-16.1897 67.24747H176.08457"/>
<path transform="matrix(1.2,0,0,-1.2,231.86069,98.67325)" d="M1.99252 0-1.19551 1.59401 0 0-1.19551-1.59401"/>
<path transform="matrix(1.2,0,0,-1.2,20.559212,179.37021)" stroke-width=".3985" stroke-linecap="butt" stroke-miterlimit="10" stroke-linejoin="miter" fill="none" stroke="#000000" d="M80.94368-13.45029V145.95272"/>
<path transform="matrix(0,-1.2,-1.2,-0,117.691638,4.226944)" d="M1.99252 0-1.19551 1.59401 0 0-1.19551-1.59401"/>
<path transform="matrix(1.2,0,0,-1.2,20.559212,179.37021)" d="M7.3585 67.24747H7.58037 7.80223 8.02408 8.24594 8.4678 8.68965 8.91151 9.13338 9.35522 9.5771 9.79897 10.02081 10.24268 10.46454 10.68639 10.90825 11.13011 11.35196 11.57382 11.7957 12.01755 12.23941 12.46127 12.68312 12.90498 13.12685 13.3487 13.57056 13.79242 14.01428 14.23615 14.45801 14.67986 14.90172 15.12358 15.34543 15.56729 15.78915 16.01102 16.23288 16.45474 16.67659 16.89845 17.12032 17.34216 17.56403 17.78589 18.00775 18.22961 18.45148 18.67332 18.89519 19.11705 19.3389 19.56076 19.78262 20.00447 20.22635 20.4482 20.67006 20.89192 21.11377 21.33563 21.5575 21.77934 22.0012 22.22308 22.44493 22.6668 22.88866 23.1105 23.33237 23.55423 23.77608 23.99794 24.2198 24.44167 24.66353 24.88539 25.10724 25.3291 25.55096 25.77281 25.99467 26.21654 26.43839 26.66026 26.88213 27.10397 27.32584 27.5477 27.76955 27.99141 28.21327 28.43512 28.657 28.87886 29.10071 29.32257 29.54443 29.7663 29.98814 30.21002 30.43184 30.65372 30.8756 31.09743 31.3193 31.54115 31.76302 31.9849 32.20674 32.4286 32.65044 32.87231 33.0942 33.31602 33.5379 33.75974 33.98161 34.20349 34.42532 34.6472 34.86903 35.0909 35.31279 35.53462 35.75648 35.97833 36.20021 36.42207 36.64392 36.8658 37.08762 37.30951 37.53139 37.7532 37.97508 38.19693 38.4188 38.64067 38.86252 39.08438 39.30623 39.5281 39.74997 39.9718 40.19368 40.41551 40.63739 40.85927 41.0811 41.30298 41.52483 41.74669 41.96857 42.1904 42.41226 42.63411 42.85599 43.07785 43.2997 43.52158 43.74341 43.96529 44.18716 44.40898 44.63087 44.8527 45.07457 45.29645 45.5183 45.74016 45.962 46.18388 46.40575 46.62758 46.84947 47.07129 47.29317 47.51505 47.73688 47.95876 48.18059 48.40247 48.62434 48.84618 49.06805 49.28989 49.51175 49.73363 49.95547 50.17734 50.39919 50.62106 50.84293 51.06477 51.28665 51.50847L51.50961 0H7.3585Z" fill="#f2f2ff"/>
<path transform="matrix(1.2,0,0,-1.2,20.559212,179.37021)" d="M51.50961 67.24747H51.73148 51.95334 52.17519 52.39705 52.61891 52.84076 53.06262 53.28447 53.50633 53.72821 53.95006 54.17192 54.39378 54.61563 54.8375 55.05936 55.2812 55.50307 55.72493 55.9468 56.16866 56.39052 56.61237 56.83423 57.05609 57.27794 57.4998 57.72166 57.94351 58.16539 58.38725 58.6091 58.83096 59.05283 59.27467 59.49654 59.7184 59.94025 60.16212 60.38399 60.60583 60.8277 61.04956 61.27141 61.49327 61.71513 61.93698 62.15886 62.38072 62.60257 62.82443 63.0463 63.26814 63.49 63.71187 63.93372 64.15558 64.37746 64.5993 64.82117 65.04303 65.26488 65.48674 65.7086 65.93045 66.15231 66.37419 66.59604 66.8179 67.03976 67.26161 67.48347 67.70534 67.92719 68.14905 68.37091 68.59277 68.81464 69.0365 69.25835 69.48021 69.70207 69.92392 70.14578 70.36765 70.5895 70.81137 71.03323 71.25508 71.47694 71.6988 71.92065 72.14252 72.36438 72.58623 72.8081 73.02997 73.25182 73.47368 73.69554 73.9174 74.13925 74.36113 74.58295 74.80482 75.0267 75.24854 75.47041 75.69226 75.91412 76.136 76.35785 76.57971 76.80154 77.02342 77.2453 77.46713 77.68901 77.91084 78.13272 78.3546 78.57643 78.79831 79.02014 79.242 79.4639 79.68573 79.9076 80.12944 80.35132 80.57318 80.79503 81.0169 81.23872 81.46062 81.68248 81.90431 82.12619 82.34802 82.5699 82.79178 83.01361 83.23549 83.45734 83.6792 83.90108 84.12291 84.34477 84.56662 84.7885 85.01036 85.23221 85.45409 85.67592 85.8978 86.11967 86.34149 86.56337 86.78522 87.00708 87.22896 87.4508 87.67267 87.89452 88.1164 88.33826 88.56009 88.78198 89.0038 89.22568 89.44756 89.66939 89.89127 90.11311 90.33498 90.55685 90.77869 91.00056 91.2224 91.44427 91.66614 91.88799 92.10986 92.3317 92.55357 92.77545 92.99728 93.21916 93.441 93.66286 93.88474 94.10658 94.32845 94.5503 94.77217 94.99403 95.21588 95.43776 95.65958L95.66072 0H51.50961Z" fill="#f2fff2"/>
<path transform="matrix(1.2,0,0,-1.2,20.559212,179.37021)" d="M95.66072 67.24747H95.80862 95.95653 96.10443 96.25233 96.40024 96.54816 96.69604 96.84396 96.99187 97.13979 97.28769 97.43558 97.5835 97.7314 97.87932 98.0272 98.17511 98.32303 98.47093 98.61885 98.76674 98.91464 99.06256 99.21046 99.35837 99.50627 99.65417 99.8021 99.95 100.0979 100.2458 100.3937 100.54163 100.68951 100.83743 100.98534 101.13324 101.28116 101.42905 101.57697 101.72487 101.87279 102.02068 102.16858 102.3165 102.4644 102.61232 102.76021 102.90811 103.05603 103.20393 103.35184 103.49974 103.64764 103.79556 103.94347 104.09137 104.23927 104.38719 104.5351 104.68298 104.8309 104.9788 105.12671 105.27461 105.42252 105.57043 105.71834 105.86626 106.01414 106.16205 106.30997 106.45787 106.60577 106.75368 106.90158 107.0495 107.1974 107.3453 107.49321 107.64111 107.78903 107.93692 108.08484 108.23274 108.38066 108.52856 108.67645 108.82437 108.97227 109.1202 109.26808 109.41599 109.5639 109.7118 109.85973 110.00761 110.15552 110.30344 110.45134 110.59924 110.74715 110.89507 111.04295 111.19087 111.33878 111.48668 111.6346 111.78249 111.93039 112.07831 112.22621 112.37413 112.52202 112.66992 112.81784 112.96574 113.11366 113.26154 113.40945 113.55737 113.70528 113.8532 114.00107 114.14899 114.2969 114.44481 114.59271 114.7406 114.88853 115.03644 115.18433 115.33224 115.48013 115.62805 115.77599 115.92386 116.07178 116.21968 116.3676 116.5155 116.66339 116.81131 116.95921 117.10713 117.25504 117.40292 117.55084 117.69875 117.84665 117.99457 118.14246 118.29037 118.43828 118.58618 118.7341 118.88199 119.0299 119.1778 119.32571 119.47363 119.62152 119.76944 119.91733 120.06525 120.21317 120.36105 120.50896 120.65686 120.80478 120.9527 121.10059 121.24849 121.3964 121.54431 121.69223 121.8401 121.98802 122.13593 122.28384 122.43176 122.57964 122.72755 122.87546 123.02338 123.17128 123.31917 123.46709 123.61499 123.7629 123.91081 124.0587 124.20663 124.35452 124.50243 124.65034 124.79823 124.94615 125.09404L125.09479 0H95.66072Z" fill="#fff2e6"/>
<path transform="matrix(1.2,0,0,-1.2,20.559212,179.37021)" d="M125.09479 67.24747H125.24269 125.3906 125.53851 125.6864 125.8343 125.98222 126.13013 126.27805 126.42593 126.57385 126.72176 126.86966 127.01756 127.16547 127.31339 127.46129 127.60918 127.7571 127.905 128.05292 128.20082 128.34871 128.49663 128.64453 128.79245 128.94034 129.08824 129.23616 129.38407 129.53199 129.67987 129.82778 129.9757 130.1236 130.2715 130.4194 130.5673 130.71523 130.86313 131.01103 131.15894 131.30686 131.45476 131.60265 131.75057 131.89847 132.04639 132.19429 132.34218 132.4901 132.638 132.78592 132.9338 133.08171 133.22963 133.37754 133.52545 133.67334 133.82126 133.96916 134.11707 134.26497 134.41287 134.56078 134.7087 134.8566 135.0045 135.1524 135.30033 135.44823 135.59612 135.74404 135.89194 136.03986 136.18776 136.33565 136.48357 136.63147 136.77939 136.92728 137.07518 137.2231 137.371 137.5189 137.66681 137.81473 137.96263 138.11054 138.25844 138.40634 138.55426 138.70217 138.85005 138.99797 139.14588 139.2938 139.4417 139.58959 139.7375 139.8854 140.03333 140.18122 140.32913 140.47702 140.62494 140.77286 140.92075 141.06867 141.21656 141.36447 141.51238 141.66028 141.8082 141.95609 142.104 142.2519 142.39981 142.54773 142.69562 142.84352 142.99144 143.13935 143.28726 143.43515 143.58306 143.73097 143.87888 144.0268 144.17467 144.3226 144.4705 144.61841 144.76633 144.9142 145.06212 145.21006 145.35794 145.50585 145.65375 145.80167 145.94959 146.09746 146.24538 146.39328 146.5412 146.68912 146.83699 146.98491 147.13282 147.28073 147.42864 147.57653 147.72444 147.87235 148.02027 148.16817 148.31606 148.46398 148.61188 148.75978 148.9077 149.05559 149.2035 149.35141 149.49932 149.64723 149.79512 149.94304 150.09093 150.23885 150.38677 150.53466 150.68257 150.83046 150.97838 151.1263 151.27419 151.42209 151.56999 151.71791 151.86583 152.01372 152.16162 152.30953 152.45745 152.60536 152.75324 152.90116 153.04906 153.19698 153.3449 153.49277 153.6407 153.78859 153.93651 154.08441 154.2323 154.38022 154.52812L154.52887 0H125.09479Z" fill="#fff2f2"/>
<path transform="matrix(1.2,0,0,-1.2,20.559212,179.37021)" stroke-width=".79701" stroke-linecap="butt" stroke-miterlimit="10" stroke-linejoin="miter" fill="none" stroke="#0000ff" d="M7.3585 67.24747H7.58037 7.80223 8.02408 8.24594 8.4678 8.68965 8.91151 9.13338 9.35522 9.5771 9.79897 10.02081 10.24268 10.46454 10.68639 10.90825 11.13011 11.35196 11.57382 11.7957 12.01755 12.23941 12.46127 12.68312 12.90498 13.12685 13.3487 13.57056 13.79242 14.01428 14.23615 14.45801 14.67986 14.90172 15.12358 15.34543 15.56729 15.78915 16.01102 16.23288 16.45474 16.67659 16.89845 17.12032 17.34216 17.56403 17.78589 18.00775 18.22961 18.45148 18.67332 18.89519 19.11705 19.3389 19.56076 19.78262 20.00447 20.22635 20.4482 20.67006 20.89192 21.11377 21.33563 21.5575 21.77934 22.0012 22.22308 22.44493 22.6668 22.88866 23.1105 23.33237 23.55423 23.77608 23.99794 24.2198 24.44167 24.66353 24.88539 25.10724 25.3291 25.55096 25.77281 25.99467 26.21654 26.43839 26.66026 26.88213 27.10397 27.32584 27.5477 27.76955 27.99141 28.21327 28.43512 28.657 28.87886 29.10071 29.32257 29.54443 29.7663 29.98814 30.21002 30.43184 30.65372 30.8756 31.09743 31.3193 31.54115 31.76302 31.9849 32.20674 32.4286 32.65044 32.87231 33.0942 33.31602 33.5379 33.75974 33.98161 34.20349 34.42532 34.6472 34.86903 35.0909 35.31279 35.53462 35.75648 35.97833 36.20021 36.42207 36.64392 36.8658 37.08762 37.30951 37.53139 37.7532 37.97508 38.19693 38.4188 38.64067 38.86252 39.08438 39.30623 39.5281 39.74997 39.9718 40.19368 40.41551 40.63739 40.85927 41.0811 41.30298 41.52483 41.74669 41.96857 42.1904 42.41226 42.63411 42.85599 43.07785 43.2997 43.52158 43.74341 43.96529 44.18716 44.40898 44.63087 44.8527 45.07457 45.29645 45.5183 45.74016 45.962 46.18388 46.40575 46.62758 46.84947 47.07129 47.29317 47.51505 47.73688 47.95876 48.18059 48.40247 48.62434 48.84618 49.06805 49.28989 49.51175 49.73363 49.95547 50.17734 50.39919 50.62106 50.84293 51.06477 51.28665 51.50847"/>
<path transform="matrix(1.2,0,0,-1.2,20.559212,179.37021)" stroke-width=".79701" stroke-linecap="butt" stroke-dasharray="2.98883,2.98883" stroke-miterlimit="10" stroke-linejoin="miter" fill="none" stroke="#009900" d="M51.50961 100.8712 51.73148 100.36626 51.95334 99.86508 52.17519 99.36772 52.39705 98.87425 52.61891 98.38454 52.84076 97.89871 53.06262 97.41664 53.28447 96.93845 53.50633 96.46402 53.72821 95.99342 53.95006 95.52669 54.17192 95.06372 54.39378 94.60463 54.61563 94.1493 54.8375 93.69786 55.05936 93.25017 55.2812 92.80637 55.50307 92.36633 55.72493 91.93016 55.9468 91.49777 56.16866 91.06918 56.39052 90.64447 56.61237 90.22354 56.83423 89.80647 57.05609 89.39317 57.27794 88.98373 57.4998 88.5781 57.72166 88.1763 57.94351 87.7783 58.16539 87.38414 58.38725 86.99379 58.6091 86.60722 58.83096 86.22455 59.05283 85.84564 59.27467 85.4706 59.49654 85.09933 59.7184 84.73192 59.94025 84.3683 60.16212 84.00853 60.38399 83.65256 60.60583 83.3004 60.8277 82.9521 61.04956 82.60757 61.27141 82.2669 61.49327 81.93004 61.71513 81.597 61.93698 81.26778 62.15886 80.9424 62.38072 80.6208 62.60257 80.30305 62.82443 79.9891 63.0463 79.67897 63.26814 79.3727 63.49 79.0702 63.71187 78.77156 63.93372 78.47673 64.15558 78.18571 64.37746 77.89851 64.5993 77.61516 64.82117 77.33559 65.04303 77.05988 65.26488 76.78795 65.48674 76.51984 65.7086 76.2556 65.93045 75.99512 66.15231 75.73851 66.37419 75.4857 66.59604 75.23671 66.8179 74.99155 67.03976 74.7502 67.26161 74.51266 67.48347 74.27898 67.70534 74.04909 67.92719 73.82301 68.14905 73.60077 68.37091 73.38234 68.59277 73.16776 68.81464 72.95695 69.0365 72.75 69.25835 72.54686 69.48021 72.34755 69.70207 72.15205 69.92392 71.96037 70.14578 71.7725 70.36765 71.58847 70.5895 71.40825 70.81137 71.23186 71.03323 71.05927 71.25508 70.89053 71.47694 70.72559 71.6988 70.56447 71.92065 70.40718 72.14252 70.25371 72.36438 70.10405 72.58623 69.95822 72.8081 69.81621 73.02997 69.67802 73.25182 69.54364 73.47368 69.4131 73.69554 69.28636 73.9174 69.16347 74.13925 69.04439 74.36113 68.92911 74.58295 68.81767 74.80482 68.71004 75.0267 68.60622 75.24854 68.50626 75.47041 68.41008 75.69226 68.31775 75.91412 68.2292 76.136 68.1445 76.35785 68.06363 76.57971 67.98657 76.80154 67.91333 77.02342 67.84392 77.2453 67.7783 77.46713 67.71654 77.68901 67.65857 77.91084 67.60443 78.13272 67.55412 78.3546 67.50761 78.57643 67.46495 78.79831 67.42609 79.02014 67.39105 79.242 67.35983 79.4639 67.33244 79.68573 67.30887 79.9076 67.28912 80.12944 67.27318 80.35132 67.26106 80.57318 67.25278 80.79503 67.24832 81.0169 67.24767 81.23872 67.25084 81.46062 67.25783 81.68248 67.26865 81.90431 67.28326 82.12619 67.30173 82.34802 67.32399 82.5699 67.3501 82.79178 67.38 83.01361 67.41374 83.23549 67.45131 83.45734 67.49268 83.6792 67.53789 83.90108 67.5869 84.12291 67.63974 84.34477 67.6964 84.56662 67.75687 84.7885 67.82117 85.01036 67.8893 85.23221 67.96123 85.45409 68.03699 85.67592 68.11658 85.8978 68.2 86.11967 68.28722 86.34149 68.37825 86.56337 68.47313 86.78522 68.5718 87.00708 68.6743 87.22896 68.78064 87.4508 68.89078 87.67267 69.00475 87.89452 69.12254 88.1164 69.24416 88.33826 69.36958 88.56009 69.49883 88.78198 69.63191 89.0038 69.76878 89.22568 69.90952 89.44756 70.05405 89.66939 70.2024 89.89127 70.35457 90.11311 70.51056 90.33498 70.67036 90.55685 70.83401 90.77869 71.00145 91.00056 71.17274 91.2224 71.34784 91.44427 71.52676 91.66614 71.7095 91.88799 71.89604 92.10986 72.08646 92.3317 72.28062 92.55357 72.47867 92.77545 72.68051 92.99728 72.88615 93.21916 73.09566 93.441 73.30893 93.66286 73.52608 93.88474 73.74704 94.10658 73.97177 94.32845 74.20038 94.5503 74.43275 94.77217 74.669 94.99403 74.90906 95.21588 75.15292 95.43776 75.40062 95.65958 75.6521"/>
<path transform="matrix(1.2,0,0,-1.2,20.559212,179.37021)" stroke-width=".79701" stroke-linecap="butt" stroke-miterlimit="10" stroke-linejoin="miter" fill="none" stroke="#cc6600" d="M95.66072 67.24747 95.80862 67.07849 95.95653 66.90955 96.10443 66.74059 96.25233 66.57161 96.40024 66.40266 96.54816 66.2337 96.69604 66.06474 96.84396 65.89578 96.99187 65.72682 97.13979 65.55788 97.28769 65.3889 97.43558 65.21994 97.5835 65.051 97.7314 64.88202 97.87932 64.71307 98.0272 64.54411 98.17511 64.37515 98.32303 64.20619 98.47093 64.03723 98.61885 63.86827 98.76674 63.69931 98.91464 63.53035 99.06256 63.3614 99.21046 63.19243 99.35837 63.02347 99.50627 62.85452 99.65417 62.68556 99.8021 62.51659 99.95 62.34764 100.0979 62.17868 100.2458 62.00972 100.3937 61.84076 100.54163 61.6718 100.68951 61.50284 100.83743 61.33388 100.98534 61.16492 101.13324 60.99597 101.28116 60.827 101.42905 60.65805 101.57697 60.48909 101.72487 60.32011 101.87279 60.15117 102.02068 59.98221 102.16858 59.81326 102.3165 59.64429 102.4644 59.47533 102.61232 59.30638 102.76021 59.1374 102.90811 58.96844 103.05603 58.7995 103.20393 58.63052 103.35184 58.46158 103.49974 58.29262 103.64764 58.12366 103.79556 57.9547 103.94347 57.78574 104.09137 57.61678 104.23927 57.44781 104.38719 57.27885 104.5351 57.10991 104.68298 56.94093 104.8309 56.77197 104.9788 56.60303 105.12671 56.43407 105.27461 56.2651 105.42252 56.09615 105.57043 55.92719 105.71834 55.75822 105.86626 55.58926 106.01414 55.4203 106.16205 55.25134 106.30997 55.08238 106.45787 54.91344 106.60577 54.74448 106.75368 54.5755 106.90158 54.40656 107.0495 54.2376 107.1974 54.06862 107.3453 53.89967 107.49321 53.73071 107.64111 53.56175 107.78903 53.39279 107.93692 53.22383 108.08484 53.05489 108.23274 52.88591 108.38066 52.71695 108.52856 52.548 108.67645 52.37903 108.82437 52.21008 108.97227 52.04112 109.1202 51.87215 109.26808 51.7032 109.41599 51.53424 109.5639 51.3653 109.7118 51.19632 109.85973 51.02736 110.00761 50.85841 110.15552 50.68944 110.30344 50.52048 110.45134 50.35153 110.59924 50.18256 110.74715 50.01361 110.89507 49.84464 111.04295 49.67569 111.19087 49.50673 111.33878 49.33775 111.48668 49.16881 111.6346 48.99985 111.78249 48.8309 111.93039 48.66194 112.07831 48.49297 112.22621 48.324 112.37413 48.15504 112.52202 47.9861 112.66992 47.81714 112.81784 47.64816 112.96574 47.47922 113.11366 47.31026 113.26154 47.14131 113.40945 46.97234 113.55737 46.80338 113.70528 46.63443 113.8532 46.46545 114.00107 46.29651 114.14899 46.12753 114.2969 45.95857 114.44481 45.78963 114.59271 45.62065 114.7406 45.45172 114.88853 45.28275 115.03644 45.11378 115.18433 44.94484 115.33224 44.77585 115.48013 44.60692 115.62805 44.43794 115.77599 44.26898 115.92386 44.10004 116.07178 43.93106 116.21968 43.76213 116.3676 43.59315 116.5155 43.42418 116.66339 43.25525 116.81131 43.08627 116.95921 42.91733 117.10713 42.74835 117.25504 42.57938 117.40292 42.41045 117.55084 42.24147 117.69875 42.07253 117.84665 41.90356 117.99457 41.73459 118.14246 41.56566 118.29037 41.39668 118.43828 41.22772 118.58618 41.05876 118.7341 40.88979 118.88199 40.72084 119.0299 40.55188 119.1778 40.38293 119.32571 40.21397 119.47363 40.045 119.62152 39.87605 119.76944 39.70709 119.91733 39.53813 120.06525 39.36917 120.21317 39.2002 120.36105 39.03125 120.50896 38.86229 120.65686 38.69334 120.80478 38.52437 120.9527 38.35541 121.10059 38.18646 121.24849 38.0175 121.3964 37.84854 121.54431 37.67957 121.69223 37.5106 121.8401 37.34166 121.98802 37.17268 122.13593 37.00375 122.28384 36.83478 122.43176 36.66582 122.57964 36.49687 122.72755 36.3279 122.87546 36.15895 123.02338 35.98997 123.17128 35.82101 123.31917 35.65207 123.46709 35.4831 123.61499 35.31416 123.7629 35.14519 123.91081 34.97621 124.0587 34.80728 124.20663 34.6383 124.35452 34.46936 124.50243 34.30038 124.65034 34.13141 124.79823 33.96248 124.94615 33.7935 125.09404 33.62456"/>
<path transform="matrix(1.2,0,0,-1.2,20.559212,179.37021)" stroke-width=".79701" stroke-linecap="butt" stroke-dasharray=".79701,1.99255" stroke-miterlimit="10" stroke-linejoin="miter" fill="none" stroke="#b30000" d="M125.09479 33.62373H125.24269 125.3906 125.53851 125.6864 125.8343 125.98222 126.13013 126.27805 126.42593 126.57385 126.72176 126.86966 127.01756 127.16547 127.31339 127.46129 127.60918 127.7571 127.905 128.05292 128.20082 128.34871 128.49663 128.64453 128.79245 128.94034 129.08824 129.23616 129.38407 129.53199 129.67987 129.82778 129.9757 130.1236 130.2715 130.4194 130.5673 130.71523 130.86313 131.01103 131.15894 131.30686 131.45476 131.60265 131.75057 131.89847 132.04639 132.19429 132.34218 132.4901 132.638 132.78592 132.9338 133.08171 133.22963 133.37754 133.52545 133.67334 133.82126 133.96916 134.11707 134.26497 134.41287 134.56078 134.7087 134.8566 135.0045 135.1524 135.30033 135.44823 135.59612 135.74404 135.89194 136.03986 136.18776 136.33565 136.48357 136.63147 136.77939 136.92728 137.07518 137.2231 137.371 137.5189 137.66681 137.81473 137.96263 138.11054 138.25844 138.40634 138.55426 138.70217 138.85005 138.99797 139.14588 139.2938 139.4417 139.58959 139.7375 139.8854 140.03333 140.18122 140.32913 140.47702 140.62494 140.77286 140.92075 141.06867 141.21656 141.36447 141.51238 141.66028 141.8082 141.95609 142.104 142.2519 142.39981 142.54773 142.69562 142.84352 142.99144 143.13935 143.28726 143.43515 143.58306 143.73097 143.87888 144.0268 144.17467 144.3226 144.4705 144.61841 144.76633 144.9142 145.06212 145.21006 145.35794 145.50585 145.65375 145.80167 145.94959 146.09746 146.24538 146.39328 146.5412 146.68912 146.83699 146.98491 147.13282 147.28073 147.42864 147.57653 147.72444 147.87235 148.02027 148.16817 148.31606 148.46398 148.61188 148.75978 148.9077 149.05559 149.2035 149.35141 149.49932 149.64723 149.79512 149.94304 150.09093 150.23885 150.38677 150.53466 150.68257 150.83046 150.97838 151.1263 151.27419 151.42209 151.56999 151.71791 151.86583 152.01372 152.16162 152.30953 152.45745 152.60536 152.75324 152.90116 153.04906 153.19698 153.3449 153.49277 153.6407 153.78859 153.93651 154.08441 154.2323 154.38022 154.52812"/>
<use data-text="t" xlink:href="#font_1_2" transform="matrix(12.04368,0,0,-12.04368,224.77881,94.4894)"/>
<use data-text="f" xlink:href="#font_1_1" transform="matrix(12.04368,0,0,-12.04368,123.08001,14.914993)"/>
<use data-text="(" xlink:href="#font_2_1" transform="matrix(12.04368,0,0,-12.04368,129.80841,14.914993)"/>
<use data-text="t" xlink:href="#font_1_2" transform="matrix(12.04368,0,0,-12.04368,134.28562,14.914993)"/>
<use data-text=")" xlink:href="#font_2_2" transform="matrix(12.04368,0,0,-12.04368,139.67963,14.914993)"/>
</svg>
