<svg xmlns="http://www.w3.org/2000/svg" xmlns:xlink="http://www.w3.org/1999/xlink" version="1.1" width="144" height="61" viewBox="0 0 144 61">
<defs>
<path id="font_1_3" d="M.42799378 .45222474 .43899537 .49023438H.31199647L.34599305 .6092224 .33399964 .6162262 .23699951 .53923037 .22399903 .49023438H.14299011L.13198853 .45222474H.21499634L.125 .08627319C.10998535 .029266358 .12199402-.01171875 .17199707-.01171875 .2519989-.01171875 .31599427 .054275514 .35598756 .1292572L.33399964 .1462555C.31098939 .10726929 .2599945 .040267946 .22898865 .040267946 .20799256 .040267946 .20799256 .0632782 .21398926 .088272098L.30299378 .45222474H.42799378Z"/>
<path id="font_2_3" d="M.07398987 .2861328V.21612549H.31900025V.2861328H.07398987Z"/>
<path id="font_2_6" d="M.4850006 .13195801 .45700074 .13696289C.43598939 .08299255 .41600038 .07598877 .37599183 .07598877H.11999512C.13598633 .1279602 .19499207 .19892884 .28799439 .2658844 .38398744 .33584596 .45799256 .38082887 .45799256 .49276734 .45799256 .63168337 .3659973 .6796875 .26098634 .6796875 .12399292 .6796875 .052993776 .5967102 .052993776 .54473879 .052993776 .51075747 .09098816 .49476625 .10798645 .49476625 .12599182 .49476625 .1329956 .50476077 .13699341 .5217438 .15299988 .5897064 .19198609 .64468386 .2539978 .64468386 .33099366 .64468386 .35299684 .5797119 .35299684 .50675967 .35299684 .3998108 .29899598 .33984376 .21199036 .26289369 .08898926 .15594483 .04598999 .08798218 .026992798 .009994507L.036987306 0H.45098878L.4850006 .13195801Z"/>
<path id="font_2_5" d="M.43699647 0V.0289917L.35299684 .035995485C.33198548 .037994386 .31999208 .04598999 .31999208 .08496094V.67367556L.31498719 .6796875 .10899353 .6446991V.6197052L.20199585 .6087036C.21899414 .6067047 .22599793 .5987091 .22599793 .56973269V.08496094C.22599793 .065979007 .22299195 .053985597 .21699524 .04698181 .21199036 .039993287 .20399475 .036987306 .19299317 .035995485L.10899353 .0289917V0H.43699647Z"/>
<path id="font_2_4" d="M.2649994 .64468386C.3600006 .64468386 .3869934 .49682618 .3869934 .33398438 .3869934 .17112732 .3600006 .023269654 .2649994 .023269654 .16999817 .023269654 .14299011 .17112732 .14299011 .33398438 .14299011 .49682618 .16999817 .64468386 .2649994 .64468386M.2649994 .6796875C.099990848 .6796875 .040985109 .53378298 .040985109 .33398438 .040985109 .13417053 .099990848-.01171875 .2649994-.01171875 .42999269-.01171875 .4889984 .13417053 .4889984 .33398438 .4889984 .53378298 .42999269 .6796875 .2649994 .6796875Z"/>
<path id="font_2_7" d="M.12998963 .3657837C.12998963 .3487854 .1349945 .33779908 .147995 .33779908 .1599884 .33779908 .18699646 .34777833 .23498535 .34777833 .31999208 .34777833 .36799623 .27090455 .36799623 .18403626 .36799623 .065216068 .30899049 .023269654 .23799134 .023269654 .17199707 .023269654 .1289978 .07319641 .10998535 .12911988 .10398865 .14808655 .09399414 .15707398 .07998657 .15707398 .06199646 .15707398 .026992798 .13809204 .026992798 .10215759 .026992798 .05921936 .09599304-.01171875 .23699951-.01171875 .38198854-.01171875 .47299195 .06121826 .47299195 .18902588 .47299195 .32281495 .35798646 .3627777 .30299378 .3677826V.3717804C.35699464 .38078309 .44400025 .4207611 .44400025 .5197296 .44400025 .6306915 .35699464 .6796875 .25 .6796875 .117996219 .6796875 .052993776 .60369876 .052993776 .5607147 .052993776 .5297241 .08799744 .51272585 .101989749 .51272585 .114990238 .51272585 .12298584 .5197296 .1269989 .5327301 .14898682 .60069277 .18699646 .64468386 .24299622 .64468386 .32199098 .64468386 .34098817 .57470706 .34098817 .51872256 .34098817 .4587555 .31999208 .38378907 .23498535 .38378907 .18699646 .38378907 .1599884 .39378358 .147995 .39378358 .1349945 .39378358 .12998963 .38378907 .12998963 .3657837Z"/>
<path id="font_2_8" d="M.2999878 .17871094V.0769043C.2999878 .04296875 .2889862 .036987306 .2649994 .034988405L.20098877 .0289917V0H.46499635V.0289917L.41999818 .033981325C.39698792 .036987306 .3899994 .04296875 .3899994 .0769043V.17871094H.49299623V.22570801H.3899994V.66796877H.31698609C.22299195 .5298767 .11099243 .35577394 .018997193 .19970703L.027999878 .17871094H.2999878M.09098816 .22570801C.15098572 .33476258 .22099304 .4498291 .2979889 .5709076H.2999878V.22570801H.09098816Z"/>
<path id="font_3_2" d="M.6349945 .07472229 .17298889 .28173829 .6349945 .48875428V.5517578L.084991458 .31674195V.24673462L.6349945 .01171875V.07472229Z"/>
<path id="font_1_2" d="M.42799378 .15419007C.3939972 .10821533 .33499146 .03727722 .2679901 .03727722 .19499207 .03727722 .17999268 .097229007 .17999268 .16816712 .17999268 .29808045 .25498963 .46694947 .34700013 .46694947 .3789978 .46694947 .40098573 .44696046 .40699769 .38700868 .40899659 .36901856 .41799928 .35702516 .43598939 .35702516 .45999146 .35702516 .5 .38002015 .5 .41299439 .5 .46394349 .44599916 .5019531 .37098695 .5019531 .19299317 .5019531 .08099365 .31207276 .08099365 .14819336 .08099365 .026275635 .1539917-.01171875 .22399903-.01171875 .2979889-.01171875 .3829956 .02027893 .45199586 .13519287L.42799378 .15419007Z"/>
<path id="font_3_1" d="M.6349945-.0078125V.050186159H.084991458V-.0078125H.6349945M.084991458 .14318848 .6349945 .32221986V.39222718L.084991458 .5722656V.5092468L.5469971 .3572235 .084991458 .20620728V.14318848Z"/>
<path id="font_1_1" d="M.18699646 .6923828 .17999268 .66337588 .23899842 .658371C.2619934 .6563721 .2689972 .64237979 .26098634 .609375L.1769867 .25634767C.12998963 .05734253 .23799134-.0146484379 .4099884-.0146484379 .54599-.0146484379 .67099 .014343262 .7259979 .24736023L.8109894 .609375C.81900027 .6433716 .8279877 .6563721 .8529968 .658371L.9079895 .66337588 .9149933 .6923828H.6409912L.6339874 .66337588 .69299319 .658371C.71598818 .6563721 .72299197 .64237979 .71499636 .609375L.6339874 .26036073C.6029968 .12734986 .55400088 .020339966 .4149933 .020339966 .3039856 .020339966 .23399353 .081344608 .27799989 .26934815L.35699464 .609375C.36499024 .6433716 .37399293 .65737918 .39898683 .65937808L.45399476 .66337588 .46099855 .6923828H.18699646Z"/>
<path id="font_2_1" d="M.1749878 .2822113C.1749878 .56832888 .2619934 .65437319 .32499696 .66737368V.6923828C.1499939 .685379 .10499573 .46829225 .10499573 .2822113 .10499573 .09614563 .1499939-.12094116 .32499696-.12792969V-.10293579C.2669983-.090927127 .1749878-.0059051516 .1749878 .2822113Z"/>
<path id="font_2_2" d="M.1749878 .2822113C.1749878-.0059051516 .08299255-.090927127 .024993897-.10293579V-.12792969C.19999695-.12094116 .24499512 .09614563 .24499512 .2822113 .24499512 .46829225 .19999695 .685379 .024993897 .6923828V.66737368C.08799744 .65437319 .1749878 .56832888 .1749878 .2822113Z"/>
<path id="font_2_12" d="M.18998719 .7480469C.13999939 .7020416 .07199097 .6350403 .07199097 .56404116 .07199097 .5100403 .10398865 .47703553 .13699341 .4780426 .16699219 .4780426 .18499756 .4990387 .18499756 .5260315 .18499756 .56204226 .1519928 .58303835 .1519928 .6200409 .1519928 .6580353 .17599488 .6960449 .20698548 .7320404L.18998719 .7480469M.36999513 .7480469C.31999208 .7020416 .2519989 .6350403 .2519989 .56404116 .2519989 .5100403 .28399659 .47703553 .31698609 .4780426 .34700013 .4780426 .36499024 .4990387 .36499024 .5260315 .36499024 .56204226 .33198548 .58303835 .33198548 .6200409 .33198548 .6580353 .35598756 .6960449 .3869934 .7320404L.36999513 .7480469Z"/>
<path id="font_2_11" d="M.28799439 .5019531C.12799073 .5019531 .04899597 .40698243 .04899597 .24510193 .04899597 .083236698 .12799073-.01171875 .28799439-.01171875 .44999696-.01171875 .5279999 .083236698 .5279999 .24510193 .5279999 .40698243 .44999696 .5019531 .28799439 .5019531M.15299988 .24510193C.15299988 .38301087 .19699097 .46694947 .28799439 .46694947 .3809967 .46694947 .42399598 .38301087 .42399598 .24510193 .42399598 .10720825 .3809967 .023269654 .28799439 .023269654 .19699097 .023269654 .15299988 .10720825 .15299988 .24510193Z"/>
<path id="font_2_9" d="M.20098877 .45022584H.32299806V.49023438H.20098877L.19699097 .60220339C.19400025 .6971741 .22898865 .70718386 .24499512 .70718386 .2659912 .70718386 .28799439 .6971741 .31298829 .6391907 .31799317 .62919619 .32499696 .6221924 .33999635 .6221924 .3600006 .6221924 .3889923 .6391907 .3889923 .66918948 .3889923 .70217898 .34700013 .7421875 .2669983 .7421875 .21199036 .7421875 .16499329 .71717837 .13999939 .67918398 .116989139 .64419558 .10699463 .5912018 .10699463 .5252228V.49023438H.02999878V.45022584H.10699463V.087020877C.10699463 .035995485 .10398865 .033996583 .03199768 .0289917V0H.29599V.0289917C.20498657 .032989503 .20098877 .034988405 .20098877 .08602905V.45022584Z"/>
<path id="font_2_13" d="M.08898926 .47218324C.13899231 .5181732 .20698548 .58517459 .20698548 .6561737 .20698548 .71017459 .1749878 .7431793 .14199829 .7421875 .11199951 .7421875 .09399414 .72117617 .09399414 .69418337 .09399414 .6581726 .1269989 .6371765 .1269989 .60017397 .1269989 .56217959 .102996829 .5241852 .07199097 .48817445L.08898926 .47218324M.2689972 .47218324C.31900025 .5181732 .3869934 .58517459 .3869934 .6561737 .3869934 .71017459 .35499574 .7431793 .32199098 .7421875 .2919922 .7421875 .27398683 .72117617 .27398683 .69418337 .27398683 .6581726 .30699159 .6371765 .30699159 .60017397 .30699159 .56217959 .2829895 .5241852 .2519989 .48817445L.2689972 .47218324Z"/>
<path id="font_2_10" d="M.5289917 .34295655C.5289917 .4439392 .47399903 .5019531 .38198854 .5019531 .30799867 .5019531 .2619934 .46594239 .19999695 .4259491L.18598938 .5019531 .036987306 .47694398V.45195008L.07499695 .4469452C.100997928 .4429474 .10699463 .4379425 .10699463 .40194703V.08699036C.10699463 .035995485 .10398865 .033996583 .03199768 .0289917V0H.27598573V.0289917C.20498657 .033996583 .20098877 .035995485 .20098877 .08699036V.32095338C.20098877 .34596253 .20298767 .35995484 .21099854 .37594605 .23199463 .4149475 .2769928 .44795228 .32998658 .44795228 .397995 .44795228 .43499757 .40994264 .43499757 .32295228V.08699036C.43499757 .035995485 .43199159 .033996583 .3600006 .0289917V0H.60398867V.0289917C.5329895 .033996583 .5289917 .035995485 .5289917 .08699036V.34295655Z"/>
</defs>
<path transform="matrix(1.00009,0,0,-1.00003,51.10154,37.517736)" d="M-49.60667-21.82706V35.71686H29.764V-21.82706ZM29.764 35.71686" fill="#d9d9ff"/>
<path transform="matrix(1.00009,0,0,-1.00003,51.10154,37.517736)" d="M29.764-21.82706V35.71686H89.29204V-21.82706ZM89.29204 35.71686" fill="#d9ffd9"/>
<path transform="matrix(1.00009,0,0,-1.00003,51.10154,37.517736)" stroke-width=".3985" stroke-linecap="butt" stroke-miterlimit="10" stroke-linejoin="miter" fill="none" stroke="#000000" d="M-49.60667 0H88.83376"/>
<path transform="matrix(1.00009,0,0,-1.00003,139.9433,37.517736)" stroke-width=".31879" stroke-linecap="round" stroke-linejoin="round" fill="none" stroke="#000000" d="M-1.19551 1.59401C-1.09587 .99626 0 .09961 .29886 0 0-.09961-1.09587-.99626-1.19551-1.59401"/>
<use data-text="t" xlink:href="#font_1_3" transform="matrix(9.166425,0,0,-9.165875,138.4484,46.56601)"/>
<path transform="matrix(1.00009,0,0,-1.00003,51.10154,37.517736)" stroke-width=".3985" stroke-linecap="butt" stroke-miterlimit="10" stroke-linejoin="miter" fill="none" stroke="#000000" d="M0-21.82706V35.25858"/>
<path transform="matrix(0,-1.00003,-1.00009,-0,51.10154,2.2580949)" stroke-width=".31879" stroke-linecap="round" stroke-linejoin="round" fill="none" stroke="#000000" d="M-1.19551 1.59401C-1.09587 .99626 0 .09961 .29886 0 0-.09961-1.09587-.99626-1.19551-1.59401"/>
<path transform="matrix(1.00009,0,0,-1.00003,51.10154,37.517736)" stroke-width=".3985" stroke-linecap="butt" stroke-miterlimit="10" stroke-linejoin="miter" fill="none" stroke="#b5b5b5" d="M-39.68535 1.98438V-1.98438"/>
<use data-text="-" xlink:href="#font_2_3" transform="matrix(9.166425,0,0,-9.165875,7.1825869,48.641069)"/>
<use data-text="2" xlink:href="#font_2_6" transform="matrix(9.166425,0,0,-9.165875,10.775833,48.641069)"/>
<path transform="matrix(1.00009,0,0,-1.00003,51.10154,37.517736)" stroke-width=".3985" stroke-linecap="butt" stroke-miterlimit="10" stroke-linejoin="miter" fill="none" stroke="#b5b5b5" d="M-19.84267 1.98438V-1.98438"/>
<use data-text="-" xlink:href="#font_2_3" transform="matrix(9.166425,0,0,-9.165875,27.027375,48.641069)"/>
<use data-text="1" xlink:href="#font_2_5" transform="matrix(9.166425,0,0,-9.165875,30.62062,48.641069)"/>
<path transform="matrix(1.00009,0,0,-1.00003,51.10154,37.517736)" stroke-width=".3985" stroke-linecap="butt" stroke-miterlimit="10" stroke-linejoin="miter" fill="none" stroke="#b5b5b5" d="M0 1.98438V-1.98438"/>
<use data-text="0" xlink:href="#font_2_4" transform="matrix(9.166425,0,0,-9.165875,48.67032,48.641069)"/>
<path transform="matrix(1.00009,0,0,-1.00003,51.10154,37.517736)" stroke-width=".3985" stroke-linecap="butt" stroke-miterlimit="10" stroke-linejoin="miter" fill="none" stroke="#b5b5b5" d="M19.84267 1.98438V-1.98438"/>
<use data-text="1" xlink:href="#font_2_5" transform="matrix(9.166425,0,0,-9.165875,68.51511,48.641069)"/>
<path transform="matrix(1.00009,0,0,-1.00003,51.10154,37.517736)" stroke-width=".3985" stroke-linecap="butt" stroke-miterlimit="10" stroke-linejoin="miter" fill="none" stroke="#b5b5b5" d="M39.68535 1.98438V-1.98438"/>
<use data-text="2" xlink:href="#font_2_6" transform="matrix(9.166425,0,0,-9.165875,88.358898,48.641069)"/>
<path transform="matrix(1.00009,0,0,-1.00003,51.10154,37.517736)" stroke-width=".3985" stroke-linecap="butt" stroke-miterlimit="10" stroke-linejoin="miter" fill="none" stroke="#b5b5b5" d="M59.52802 1.98438V-1.98438"/>
<use data-text="3" xlink:href="#font_2_7" transform="matrix(9.166425,0,0,-9.165875,108.203678,48.641069)"/>
<path transform="matrix(1.00009,0,0,-1.00003,51.10154,37.517736)" stroke-width=".3985" stroke-linecap="butt" stroke-miterlimit="10" stroke-linejoin="miter" fill="none" stroke="#b5b5b5" d="M79.37071 1.98438V-1.98438"/>
<use data-text="4" xlink:href="#font_2_8" transform="matrix(9.166425,0,0,-9.165875,128.04846,48.641069)"/>
<path transform="matrix(1.00009,0,0,-1.00003,51.10154,37.517736)" stroke-width=".3985" stroke-linecap="butt" stroke-miterlimit="10" stroke-linejoin="miter" fill="none" stroke="#b5b5b5" d="M1.98438 19.84267H-1.98438"/>
<use data-text="1" xlink:href="#font_2_5" transform="matrix(9.166425,0,0,-9.165875,41.84771,20.74323)"/>
<path transform="matrix(1.00009,0,0,-1.00003,51.10154,37.517736)" stroke-width="1.19553" stroke-linecap="butt" stroke-miterlimit="10" stroke-linejoin="miter" fill="none" stroke="#0000ff" d="M-49.60667 0H-49.21307-48.81946-48.42584-48.03226-47.63864-47.24504-46.85143-46.45781-46.06421-45.6706-45.27701-44.88338-44.48978-44.09618-43.70256-43.30896-42.91534-42.52173-42.12813-41.73453-41.34093-40.94731-40.5537-40.1601-39.76648-39.37288-38.97928-38.58565-38.19206-37.79845-37.40483-37.01123-36.61761-36.22401-35.8304-35.43681-35.04318-34.64957-34.25598-33.86237-33.46877-33.07515-32.68153-32.28793-31.89433-31.50073-31.1071-30.7135-30.3199-29.92628-29.53268-29.13908-28.74545-28.35185-27.95825-27.56464-27.17104-26.77742-26.38382-25.9902-25.5966-25.20299-24.80937-24.41579-24.02217-23.62857-23.23495-22.84134-22.44774-22.05412-21.66054-21.2669-20.8733-20.4797-20.08609-19.69249-19.29887-18.90526-18.51166-18.11806-17.72446-17.33084-16.93723-16.54362-16.15001-15.75641-15.3628-14.96918-14.57559-14.18198-13.78836-13.39476-13.00114-12.60754-12.21393-11.82034-11.42671-11.0331-10.63951-10.2459-9.8523-9.45868-9.06506-8.67146-8.27786-7.88426-7.49063-7.09703-6.70343-6.30981-5.91621-5.52261-5.12898-4.73538-4.34178-3.94817-3.55457-3.16095-2.76735-2.37373-1.98013-1.58652-1.1929-.79932-.4057-.0121 .38147 .7751 1.16869 1.5623 1.9559 2.34952 2.74312 3.13673 3.53033 3.92393 4.31755 4.71117 5.10477 5.49838 5.89198 6.28558 6.6792 7.07281 7.46642 7.86002 8.25363 8.64725 9.04085 9.43446 9.82806 10.22166 10.6153 11.00888 11.4025 11.7961 12.18971 12.58333 12.97693 13.37054 13.76413 14.15775 14.55136 14.94496 15.33858 15.73218 16.1258 16.5194 16.91301 17.30661 17.70023 18.09383 18.48744 18.88104 19.27466 19.66827 20.06186 20.45549 20.84908 21.24269 21.6363 22.0299 22.42352 22.81712 23.21074 23.60434 23.99794 24.39157 24.78516 25.17877 25.57239 25.96599 26.35959 26.7532 27.1468 27.54042 27.93402 28.32764 28.72124"/>
<path transform="matrix(1.00009,0,0,-1.00003,51.10154,37.517736)" stroke-width="1.19553" stroke-linecap="butt" stroke-miterlimit="10" stroke-linejoin="miter" fill="none" stroke="#009900" d="M29.764 19.84267H30.06285 30.3617 30.66052 30.95935 31.2582 31.55704 31.85588 32.15471 32.45355 32.7524 33.05122 33.35007 33.6489 33.94774 34.24658 34.54543 34.84427 35.14311 35.44194 35.74078 36.03963 36.33847 36.63731 36.93614 37.23497 37.53381 37.83266 38.1315 38.43033 38.72917 39.02802 39.32686 39.6257 39.92455 40.22337 40.52222 40.82106 41.1199 41.41873 41.71756 42.0164 42.31525 42.61409 42.91293 43.21176 43.51059 43.80943 44.10828 44.40712 44.70595 45.00479 45.30363 45.60248 45.90132 46.20016 46.499 46.79784 47.09668 47.39552 47.69435 47.99318 48.29202 48.59087 48.88971 49.18855 49.48738 49.78622 50.08507 50.38391 50.68275 50.9816 51.28043 51.57927 51.8781 52.17694 52.47578 52.77461 53.07346 53.3723 53.67114 53.96997 54.2688 54.56764 54.86649 55.16533 55.46417 55.763 56.06184 56.36069 56.65953 56.95837 57.25722 57.55605 57.85489 58.15372 58.45256 58.7514 59.05023 59.34908 59.64792 59.94676 60.2456 60.54443 60.84328 61.14212 61.44096 61.7398 62.03864 62.33748 62.6363 62.93515 63.234 63.53284 63.83167 64.13051 64.42935 64.72818 65.02702 65.32585 65.6247 65.92354 66.22238 66.52122 66.82005 67.1189 67.41774 67.71658 68.01543 68.31427 68.6131 68.91193 69.21077 69.50961 69.80846 70.10728 70.40613 70.70497 71.00381 71.30266 71.60149 71.90033 72.19917 72.49802 72.79686 73.09569 73.39452 73.69336 73.9922 74.29105 74.58989 74.88872 75.18755 75.48639 75.78523 76.08408 76.3829 76.68175 76.98059 77.27943 77.57828 77.8771 78.17595 78.4748 78.77364 79.07248 79.3713 79.67014 79.96898 80.26782 80.56667 80.86551 81.16434 81.46318 81.76202 82.06087 82.35971 82.65854 82.95738 83.25623 83.55505 83.8539 84.15273 84.45157 84.75041 85.04926 85.3481 85.64693 85.94576 86.2446 86.54344 86.84229 87.14113 87.43996 87.7388 88.03764 88.33649 88.63533 88.93416 89.233"/>
<path transform="matrix(1.00009,0,0,-1.00003,51.10154,37.517736)" stroke-width=".79701" stroke-linecap="butt" stroke-miterlimit="10" stroke-linejoin="miter" fill="none" stroke="#0000ff" d="M31.15878 0C31.15878 .77031 30.53432 1.39478 29.764 1.39478 28.9937 1.39478 28.36923 .77031 28.36923 0 28.36923-.77031 28.9937-1.39478 29.764-1.39478 30.53432-1.39478 31.15878-.77031 31.15878 0ZM29.764 0"/>
<path transform="matrix(1.00009,0,0,-1.00003,51.10154,37.517736)" d="M31.15878 19.84267C31.15878 20.61298 30.53432 21.23744 29.764 21.23744 28.9937 21.23744 28.36923 20.61298 28.36923 19.84267 28.36923 19.07234 28.9937 18.44788 29.764 18.44788 30.53432 18.44788 31.15878 19.07234 31.15878 19.84267ZM29.764 19.84267" fill="#009900"/>
<use data-text="t" xlink:href="#font_1_3" transform="matrix(7.33316,0,0,-7.3327205,33.708978,55.882287)" fill="#0000ff"/>
<use data-text="&#x003c;" xlink:href="#font_3_2" transform="matrix(7.33316,0,0,-7.3327205,38.3574,55.882287)" fill="#0000ff"/>
<use data-text="c" xlink:href="#font_1_2" transform="matrix(7.33316,0,0,-7.3327205,44.998,55.882287)" fill="#0000ff"/>
<use data-text="t" xlink:href="#font_1_3" transform="matrix(7.33316,0,0,-7.3327205,103.16522,55.882287)" fill="#009900"/>
<use data-text="&#x2265;" xlink:href="#font_3_1" transform="matrix(7.33316,0,0,-7.3327205,107.813648,55.882287)" fill="#009900"/>
<use data-text="c" xlink:href="#font_1_2" transform="matrix(7.33316,0,0,-7.3327205,114.454257,55.882287)" fill="#009900"/>
<use data-text="c" xlink:href="#font_1_2" transform="matrix(9.166425,0,0,-9.165875,78.487,45.449975)"/>
<use data-text="U" xlink:href="#font_1_1" transform="matrix(9.166425,0,0,-9.165875,31.38977,11.6849579)" fill="#009900"/>
<use data-text="(" xlink:href="#font_2_1" transform="matrix(9.166425,0,0,-9.165875,39.74952,11.6849579)" fill="#009900"/>
<use data-text="t" xlink:href="#font_1_3" transform="matrix(9.166425,0,0,-9.165875,43.15683,11.6849579)" fill="#009900"/>
<use data-text=")" xlink:href="#font_2_2" transform="matrix(9.166425,0,0,-9.165875,47.2612,11.6849579)" fill="#009900"/>
<use data-text="&#x201c;" xlink:href="#font_2_12" transform="matrix(7.33316,0,0,-7.3327205,33.427949,30.310519)" fill="#0000ff"/>
<use data-text="o" xlink:href="#font_2_11" transform="matrix(7.33316,0,0,-7.3327205,36.199884,30.310519)" fill="#0000ff"/>
<use data-text="f" xlink:href="#font_2_9" transform="matrix(7.33316,0,0,-7.3327205,40.431116,30.310519)" fill="#0000ff"/>
<use data-text="f" xlink:href="#font_2_9" transform="matrix(7.33316,0,0,-7.3327205,42.770395,30.310519)" fill="#0000ff"/>
<use data-text="&#x201d;" xlink:href="#font_2_13" transform="matrix(7.33316,0,0,-7.3327205,45.571649,30.310519)" fill="#0000ff"/>
<use data-text="&#x201c;" xlink:href="#font_2_12" transform="matrix(7.33316,0,0,-7.3327205,103.48526,30.310519)" fill="#009900"/>
<use data-text="o" xlink:href="#font_2_11" transform="matrix(7.33316,0,0,-7.3327205,106.25719,30.310519)" fill="#009900"/>
<use data-text="n" xlink:href="#font_2_10" transform="matrix(7.33316,0,0,-7.3327205,110.48842,30.310519)" fill="#009900"/>
<use data-text="&#x201d;" xlink:href="#font_2_13" transform="matrix(7.33316,0,0,-7.3327205,114.433658,30.310519)" fill="#009900"/>
</svg>
