<svg xmlns="http://www.w3.org/2000/svg" xmlns:xlink="http://www.w3.org/1999/xlink" version="1.1" width="160" height="88" viewBox="0 0 160 88">
<defs>
<path id="font_1_1" d="M.42799378 .45222474 .43899537 .49023438H.31199647L.34599305 .6092224 .33399964 .6162262 .23699951 .53923037 .22399903 .49023438H.14299011L.13198853 .45222474H.21499634L.125 .08627319C.10998535 .029266358 .12199402-.01171875 .17199707-.01171875 .2519989-.01171875 .31599427 .054275514 .35598756 .1292572L.33399964 .1462555C.31098939 .10726929 .2599945 .040267946 .22898865 .040267946 .20799256 .040267946 .20799256 .0632782 .21398926 .088272098L.30299378 .45222474H.42799378Z"/>
<path id="font_1_2" d="M.070999149 .45393373 .07398987 .42893983 .14199829 .43093873C.1639862 .43193055 .16899109 .41493226 .1769867 .36291505 .18798828 .28489686 .20999146 .09286499 .20999146 .0128479 .20999146-.017166138 .20799256-.058166505 .18598938-.11117554 .16799927-.15318299 .14199829-.18218994 .12199402-.18218994 .10699463-.18218994 .09599304-.17118836 .08099365-.15118408 .068984989-.13517761 .06098938-.127182 .04598999-.127182 .019989014-.12818909-.005004883-.15818787-.005004883-.18719483-.005004883-.21418762 .023986817-.2421875 .067993167-.2421875 .15299988-.2421875 .18998719-.17919922 .27799989-.027160645 .2979889 .0068511965 .35798646 .11286926 .41999818 .21488953 .47698976 .30891419 .5399933 .40592958 .5399933 .4459381 .5399933 .48094178 .5289917 .5019531 .5219879 .5019531 .5029907 .5019531 .46899415 .49394227 .44400025 .47694398 .44499208 .4419403 .44299317 .3809204 .43099977 .33891297 .4149933 .28289796 .35598756 .17488098 .2899933 .06085205H.2869873C.27999879 .21388245 .26098634 .42492677 .24699402 .49795533L.23899842 .5019531 .070999149 .45393373Z"/>
<path id="font_2_1" d="M.07398987 .2861328V.21612549H.31900025V.2861328H.07398987Z"/>
<path id="font_2_5" d="M.12998963 .3657837C.12998963 .3487854 .1349945 .33779908 .147995 .33779908 .1599884 .33779908 .18699646 .34777833 .23498535 .34777833 .31999208 .34777833 .36799623 .27090455 .36799623 .18403626 .36799623 .065216068 .30899049 .023269654 .23799134 .023269654 .17199707 .023269654 .1289978 .07319641 .10998535 .12911988 .10398865 .14808655 .09399414 .15707398 .07998657 .15707398 .06199646 .15707398 .026992798 .13809204 .026992798 .10215759 .026992798 .05921936 .09599304-.01171875 .23699951-.01171875 .38198854-.01171875 .47299195 .06121826 .47299195 .18902588 .47299195 .32281495 .35798646 .3627777 .30299378 .3677826V.3717804C.35699464 .38078309 .44400025 .4207611 .44400025 .5197296 .44400025 .6306915 .35699464 .6796875 .25 .6796875 .117996219 .6796875 .052993776 .60369876 .052993776 .5607147 .052993776 .5297241 .08799744 .51272585 .101989749 .51272585 .114990238 .51272585 .12298584 .5197296 .1269989 .5327301 .14898682 .60069277 .18699646 .64468386 .24299622 .64468386 .32199098 .64468386 .34098817 .57470706 .34098817 .51872256 .34098817 .4587555 .31999208 .38378907 .23498535 .38378907 .18699646 .38378907 .1599884 .39378358 .147995 .39378358 .1349945 .39378358 .12998963 .38378907 .12998963 .3657837Z"/>
<path id="font_2_4" d="M.4850006 .13195801 .45700074 .13696289C.43598939 .08299255 .41600038 .07598877 .37599183 .07598877H.11999512C.13598633 .1279602 .19499207 .19892884 .28799439 .2658844 .38398744 .33584596 .45799256 .38082887 .45799256 .49276734 .45799256 .63168337 .3659973 .6796875 .26098634 .6796875 .12399292 .6796875 .052993776 .5967102 .052993776 .54473879 .052993776 .51075747 .09098816 .49476625 .10798645 .49476625 .12599182 .49476625 .1329956 .50476077 .13699341 .5217438 .15299988 .5897064 .19198609 .64468386 .2539978 .64468386 .33099366 .64468386 .35299684 .5797119 .35299684 .50675967 .35299684 .3998108 .29899598 .33984376 .21199036 .26289369 .08898926 .15594483 .04598999 .08798218 .026992798 .009994507L.036987306 0H.45098878L.4850006 .13195801Z"/>
<path id="font_2_3" d="M.43699647 0V.0289917L.35299684 .035995485C.33198548 .037994386 .31999208 .04598999 .31999208 .08496094V.67367556L.31498719 .6796875 .10899353 .6446991V.6197052L.20199585 .6087036C.21899414 .6067047 .22599793 .5987091 .22599793 .56973269V.08496094C.22599793 .065979007 .22299195 .053985597 .21699524 .04698181 .21199036 .039993287 .20399475 .036987306 .19299317 .035995485L.10899353 .0289917V0H.43699647Z"/>
<path id="font_2_2" d="M.2649994 .64468386C.3600006 .64468386 .3869934 .49682618 .3869934 .33398438 .3869934 .17112732 .3600006 .023269654 .2649994 .023269654 .16999817 .023269654 .14299011 .17112732 .14299011 .33398438 .14299011 .49682618 .16999817 .64468386 .2649994 .64468386M.2649994 .6796875C.099990848 .6796875 .040985109 .53378298 .040985109 .33398438 .040985109 .13417053 .099990848-.01171875 .2649994-.01171875 .42999269-.01171875 .4889984 .13417053 .4889984 .33398438 .4889984 .53378298 .42999269 .6796875 .2649994 .6796875Z"/>
<path id="font_2_6" d="M.2999878 .17871094V.0769043C.2999878 .04296875 .2889862 .036987306 .2649994 .034988405L.20098877 .0289917V0H.46499635V.0289917L.41999818 .033981325C.39698792 .036987306 .3899994 .04296875 .3899994 .0769043V.17871094H.49299623V.22570801H.3899994V.66796877H.31698609C.22299195 .5298767 .11099243 .35577394 .018997193 .19970703L.027999878 .17871094H.2999878M.09098816 .22570801C.15098572 .33476258 .22099304 .4498291 .2979889 .5709076H.2999878V.22570801H.09098816Z"/>
<path id="font_2_7" d="M.42599488 .5919647 .44999696 .6599579 .44499208 .66796877H.11099243L.100997928 .65896609 .08099365 .32388307 .10499573 .31188966C.14698792 .35983277 .18798828 .3828125 .24198914 .3828125 .30599977 .3828125 .37599183 .3358612 .37599183 .20404053 .37599183 .10116577 .33399964 .023269654 .24699402 .023269654 .1769867 .023269654 .14099121 .07420349 .12098694 .13113404 .115997318 .14611817 .10699463 .15510559 .09298706 .15510559 .07299805 .15510559 .039993287 .13513184 .039993287 .10217285 .039993287 .056228639 .10998535-.01171875 .23999024-.01171875 .40499879-.01171875 .47999574 .0881958 .47999574 .21502686 .47999574 .35484315 .3919983 .4268036 .272995 .4268036 .21798706 .4268036 .15899658 .4028015 .1269989 .3738098L.125 .37580873 .147995 .56292727C.15098572 .58795168 .1579895 .5919647 .1769867 .5919647H.42599488Z"/>
</defs>
<path transform="matrix(1,0,0,-1.00005,64.841999,52.703989)" stroke-width=".3985" stroke-linecap="butt" stroke-miterlimit="10" stroke-linejoin="miter" fill="none" stroke="#cbcbcb" d="M-49.6069-28.3468V42.5202"/>
<path transform="matrix(1,0,0,-1.00005,64.841999,52.703989)" stroke-width=".3985" stroke-linecap="butt" stroke-miterlimit="10" stroke-linejoin="miter" fill="none" stroke="#cbcbcb" d="M-40.4955-28.3468V42.5202"/>
<path transform="matrix(1,0,0,-1.00005,64.841999,52.703989)" stroke-width=".3985" stroke-linecap="butt" stroke-miterlimit="10" stroke-linejoin="miter" fill="none" stroke="#cbcbcb" d="M-31.38408-28.3468V42.5202"/>
<path transform="matrix(1,0,0,-1.00005,64.841999,52.703989)" stroke-width=".3985" stroke-linecap="butt" stroke-miterlimit="10" stroke-linejoin="miter" fill="none" stroke="#cbcbcb" d="M-22.27267-28.3468V42.5202"/>
<path transform="matrix(1,0,0,-1.00005,64.841999,52.703989)" stroke-width=".3985" stroke-linecap="butt" stroke-miterlimit="10" stroke-linejoin="miter" fill="none" stroke="#cbcbcb" d="M-13.16125-28.3468V42.5202"/>
<path transform="matrix(1,0,0,-1.00005,64.841999,52.703989)" stroke-width=".3985" stroke-linecap="butt" stroke-miterlimit="10" stroke-linejoin="miter" fill="none" stroke="#cbcbcb" d="M-4.04985-28.3468V42.5202"/>
<path transform="matrix(1,0,0,-1.00005,64.841999,52.703989)" stroke-width=".3985" stroke-linecap="butt" stroke-miterlimit="10" stroke-linejoin="miter" fill="none" stroke="#cbcbcb" d="M5.06155-28.3468V42.5202"/>
<path transform="matrix(1,0,0,-1.00005,64.841999,52.703989)" stroke-width=".3985" stroke-linecap="butt" stroke-miterlimit="10" stroke-linejoin="miter" fill="none" stroke="#cbcbcb" d="M14.17296-28.3468V42.5202"/>
<path transform="matrix(1,0,0,-1.00005,64.841999,52.703989)" stroke-width=".3985" stroke-linecap="butt" stroke-miterlimit="10" stroke-linejoin="miter" fill="none" stroke="#cbcbcb" d="M23.28438-28.3468V42.5202"/>
<path transform="matrix(1,0,0,-1.00005,64.841999,52.703989)" stroke-width=".3985" stroke-linecap="butt" stroke-miterlimit="10" stroke-linejoin="miter" fill="none" stroke="#cbcbcb" d="M32.39578-28.3468V42.5202"/>
<path transform="matrix(1,0,0,-1.00005,64.841999,52.703989)" stroke-width=".3985" stroke-linecap="butt" stroke-miterlimit="10" stroke-linejoin="miter" fill="none" stroke="#cbcbcb" d="M41.5072-28.3468V42.5202"/>
<path transform="matrix(1,0,0,-1.00005,64.841999,52.703989)" stroke-width=".3985" stroke-linecap="butt" stroke-miterlimit="10" stroke-linejoin="miter" fill="none" stroke="#cbcbcb" d="M50.6186-28.3468V42.5202"/>
<path transform="matrix(1,0,0,-1.00005,64.841999,52.703989)" stroke-width=".3985" stroke-linecap="butt" stroke-miterlimit="10" stroke-linejoin="miter" fill="none" stroke="#cbcbcb" d="M59.73003-28.3468V42.5202"/>
<path transform="matrix(1,0,0,-1.00005,64.841999,52.703989)" stroke-width=".3985" stroke-linecap="butt" stroke-miterlimit="10" stroke-linejoin="miter" fill="none" stroke="#cbcbcb" d="M68.84143-28.3468V42.5202"/>
<path transform="matrix(1,0,0,-1.00005,64.841999,52.703989)" stroke-width=".3985" stroke-linecap="butt" stroke-miterlimit="10" stroke-linejoin="miter" fill="none" stroke="#cbcbcb" d="M77.95285-28.3468V42.5202"/>
<path transform="matrix(1,0,0,-1.00005,64.841999,52.703989)" stroke-width=".3985" stroke-linecap="butt" stroke-miterlimit="10" stroke-linejoin="miter" fill="none" stroke="#cbcbcb" d="M-56.69362-21.2601H85.04042"/>
<path transform="matrix(1,0,0,-1.00005,64.841999,52.703989)" stroke-width=".3985" stroke-linecap="butt" stroke-miterlimit="10" stroke-linejoin="miter" fill="none" stroke="#cbcbcb" d="M-56.69362-17.21066H85.04042"/>
<path transform="matrix(1,0,0,-1.00005,64.841999,52.703989)" stroke-width=".3985" stroke-linecap="butt" stroke-miterlimit="10" stroke-linejoin="miter" fill="none" stroke="#cbcbcb" d="M-56.69362-13.16125H85.04042"/>
<path transform="matrix(1,0,0,-1.00005,64.841999,52.703989)" stroke-width=".3985" stroke-linecap="butt" stroke-miterlimit="10" stroke-linejoin="miter" fill="none" stroke="#cbcbcb" d="M-56.69362-9.11183H85.04042"/>
<path transform="matrix(1,0,0,-1.00005,64.841999,52.703989)" stroke-width=".3985" stroke-linecap="butt" stroke-miterlimit="10" stroke-linejoin="miter" fill="none" stroke="#cbcbcb" d="M-56.69362-5.06241H85.04042"/>
<path transform="matrix(1,0,0,-1.00005,64.841999,52.703989)" stroke-width=".3985" stroke-linecap="butt" stroke-miterlimit="10" stroke-linejoin="miter" fill="none" stroke="#cbcbcb" d="M-56.69362-1.01299H85.04042"/>
<path transform="matrix(1,0,0,-1.00005,64.841999,52.703989)" stroke-width=".3985" stroke-linecap="butt" stroke-miterlimit="10" stroke-linejoin="miter" fill="none" stroke="#cbcbcb" d="M-56.69362 3.0364H85.04042"/>
<path transform="matrix(1,0,0,-1.00005,64.841999,52.703989)" stroke-width=".3985" stroke-linecap="butt" stroke-miterlimit="10" stroke-linejoin="miter" fill="none" stroke="#cbcbcb" d="M-56.69362 7.08582H85.04042"/>
<path transform="matrix(1,0,0,-1.00005,64.841999,52.703989)" stroke-width=".3985" stroke-linecap="butt" stroke-miterlimit="10" stroke-linejoin="miter" fill="none" stroke="#cbcbcb" d="M-56.69362 11.13524H85.04042"/>
<path transform="matrix(1,0,0,-1.00005,64.841999,52.703989)" stroke-width=".3985" stroke-linecap="butt" stroke-miterlimit="10" stroke-linejoin="miter" fill="none" stroke="#cbcbcb" d="M-56.69362 15.18468H85.04042"/>
<path transform="matrix(1,0,0,-1.00005,64.841999,52.703989)" stroke-width=".3985" stroke-linecap="butt" stroke-miterlimit="10" stroke-linejoin="miter" fill="none" stroke="#cbcbcb" d="M-56.69362 19.23409H85.04042"/>
<path transform="matrix(1,0,0,-1.00005,64.841999,52.703989)" stroke-width=".3985" stroke-linecap="butt" stroke-miterlimit="10" stroke-linejoin="miter" fill="none" stroke="#cbcbcb" d="M-56.69362 23.28351H85.04042"/>
<path transform="matrix(1,0,0,-1.00005,64.841999,52.703989)" stroke-width=".3985" stroke-linecap="butt" stroke-miterlimit="10" stroke-linejoin="miter" fill="none" stroke="#cbcbcb" d="M-56.69362 27.33292H85.04042"/>
<path transform="matrix(1,0,0,-1.00005,64.841999,52.703989)" stroke-width=".3985" stroke-linecap="butt" stroke-miterlimit="10" stroke-linejoin="miter" fill="none" stroke="#cbcbcb" d="M-56.69362 31.38235H85.04042"/>
<path transform="matrix(1,0,0,-1.00005,64.841999,52.703989)" stroke-width=".3985" stroke-linecap="butt" stroke-miterlimit="10" stroke-linejoin="miter" fill="none" stroke="#cbcbcb" d="M-56.69362 35.43176H85.04042"/>
<path transform="matrix(1,0,0,-1.00005,64.841999,52.703989)" stroke-width=".3985" stroke-linecap="butt" stroke-miterlimit="10" stroke-linejoin="miter" fill="none" stroke="#000000" d="M-56.69362 0H93.14604"/>
<path transform="matrix(1,0,0,-1.00005,158.18729,52.703989)" stroke-width=".3985" stroke-linecap="round" stroke-linejoin="round" fill="none" stroke="#000000" d="M-2.07224 2.39104C-1.69365 .95639-.84999 .27895 0 0-.84999-.27895-1.69365-.95639-2.07224-2.39104"/>
<use data-text="t" xlink:href="#font_1_1" transform="matrix(7.3325,0,0,-7.332866,153.98999,60.622385)"/>
<path transform="matrix(1,0,0,-1.00005,64.841999,52.703989)" stroke-width=".3985" stroke-linecap="butt" stroke-miterlimit="10" stroke-linejoin="miter" fill="none" stroke="#000000" d="M0-28.3468V50.62582"/>
<path transform="matrix(0,-1.00005,-1,-0,64.841999,1.8763809)" stroke-width=".3985" stroke-linecap="round" stroke-linejoin="round" fill="none" stroke="#000000" d="M-2.07224 2.39104C-1.69365 .95639-.84999 .27895 0 0-.84999-.27895-1.69365-.95639-2.07224-2.39104"/>
<use data-text="y" xlink:href="#font_1_2" transform="matrix(7.3325,0,0,-7.332866,57.338998,5.4246256)"/>
<path transform="matrix(1,0,0,-1.00005,64.841999,52.703989)" stroke-width=".3985" stroke-linecap="butt" stroke-miterlimit="10" stroke-linejoin="miter" fill="none" stroke="#cbcbcb" d="M-56.69362-28.3468V42.5202H85.04042V-28.3468ZM85.04042 42.5202"/>
<path transform="matrix(1,0,0,-1.00005,64.841999,52.703989)" stroke-width=".3985" stroke-linecap="butt" stroke-miterlimit="10" stroke-linejoin="miter" fill="none" stroke="#000000" d="M-42.5202-29.76422V-26.92937"/>
<use data-text="-" xlink:href="#font_2_1" transform="matrix(5.4994,0,0,-5.499675,16.94899,86.71669)"/>
<use data-text="3" xlink:href="#font_2_5" transform="matrix(5.4994,0,0,-5.499675,19.104752,86.71669)"/>
<path transform="matrix(1,0,0,-1.00005,64.841999,52.703989)" stroke-width=".3985" stroke-linecap="butt" stroke-miterlimit="10" stroke-linejoin="miter" fill="none" stroke="#000000" d="M-28.3468-29.76422V-26.92937"/>
<use data-text="-" xlink:href="#font_2_1" transform="matrix(5.4994,0,0,-5.499675,31.122994,86.71669)"/>
<use data-text="2" xlink:href="#font_2_4" transform="matrix(5.4994,0,0,-5.499675,33.278757,86.71669)"/>
<path transform="matrix(1,0,0,-1.00005,64.841999,52.703989)" stroke-width=".3985" stroke-linecap="butt" stroke-miterlimit="10" stroke-linejoin="miter" fill="none" stroke="#000000" d="M-14.17339-29.76422V-26.92937"/>
<use data-text="-" xlink:href="#font_2_1" transform="matrix(5.4994,0,0,-5.499675,45.295999,86.71669)"/>
<use data-text="1" xlink:href="#font_2_3" transform="matrix(5.4994,0,0,-5.499675,47.45176,86.71669)"/>
<path transform="matrix(1,0,0,-1.00005,64.841999,52.703989)" stroke-width=".3985" stroke-linecap="butt" stroke-miterlimit="10" stroke-linejoin="miter" fill="none" stroke="#000000" d="M0-29.76422V-26.92937"/>
<use data-text="0" xlink:href="#font_2_2" transform="matrix(5.4994,0,0,-5.499675,63.382997,86.71669)"/>
<path transform="matrix(1,0,0,-1.00005,64.841999,52.703989)" stroke-width=".3985" stroke-linecap="butt" stroke-miterlimit="10" stroke-linejoin="miter" fill="none" stroke="#000000" d="M14.17339-29.76422V-26.92937"/>
<use data-text="1" xlink:href="#font_2_3" transform="matrix(5.4994,0,0,-5.499675,77.55699,86.71669)"/>
<path transform="matrix(1,0,0,-1.00005,64.841999,52.703989)" stroke-width=".3985" stroke-linecap="butt" stroke-miterlimit="10" stroke-linejoin="miter" fill="none" stroke="#000000" d="M28.3468-29.76422V-26.92937"/>
<use data-text="2" xlink:href="#font_2_4" transform="matrix(5.4994,0,0,-5.499675,91.729999,86.71669)"/>
<path transform="matrix(1,0,0,-1.00005,64.841999,52.703989)" stroke-width=".3985" stroke-linecap="butt" stroke-miterlimit="10" stroke-linejoin="miter" fill="none" stroke="#000000" d="M42.5202-29.76422V-26.92937"/>
<use data-text="3" xlink:href="#font_2_5" transform="matrix(5.4994,0,0,-5.499675,105.90399,86.71669)"/>
<path transform="matrix(1,0,0,-1.00005,64.841999,52.703989)" stroke-width=".3985" stroke-linecap="butt" stroke-miterlimit="10" stroke-linejoin="miter" fill="none" stroke="#000000" d="M56.69362-29.76422V-26.92937"/>
<use data-text="4" xlink:href="#font_2_6" transform="matrix(5.4994,0,0,-5.499675,120.076999,86.71669)"/>
<path transform="matrix(1,0,0,-1.00005,64.841999,52.703989)" stroke-width=".3985" stroke-linecap="butt" stroke-miterlimit="10" stroke-linejoin="miter" fill="none" stroke="#000000" d="M70.867-29.76422V-26.92937"/>
<use data-text="5" xlink:href="#font_2_7" transform="matrix(5.4994,0,0,-5.499675,134.25,86.71669)"/>
<path transform="matrix(1,0,0,-1.00005,64.841999,52.703989)" stroke-width=".3985" stroke-linecap="butt" stroke-miterlimit="10" stroke-linejoin="miter" fill="none" stroke="#000000" d="M-58.11102-14.17339H-55.27618"/>
<use data-text="-" xlink:href="#font_2_1" transform="matrix(5.4994,0,0,-5.499675,1.0919952,68.71979)"/>
<use data-text="1" xlink:href="#font_2_3" transform="matrix(5.4994,0,0,-5.499675,3.247757,68.71979)"/>
<path transform="matrix(1,0,0,-1.00005,64.841999,52.703989)" stroke-width=".3985" stroke-linecap="butt" stroke-miterlimit="10" stroke-linejoin="miter" fill="none" stroke="#000000" d="M-58.11102 0H-55.27618"/>
<use data-text="0" xlink:href="#font_2_2" transform="matrix(5.4994,0,0,-5.499675,3.25,54.53008)"/>
<path transform="matrix(1,0,0,-1.00005,64.841999,52.703989)" stroke-width=".3985" stroke-linecap="butt" stroke-miterlimit="10" stroke-linejoin="miter" fill="none" stroke="#000000" d="M-58.11102 14.17339H-55.27618"/>
<use data-text="1" xlink:href="#font_2_3" transform="matrix(5.4994,0,0,-5.499675,3.25,40.371374)"/>
<path transform="matrix(1,0,0,-1.00005,64.841999,52.703989)" stroke-width=".3985" stroke-linecap="butt" stroke-miterlimit="10" stroke-linejoin="miter" fill="none" stroke="#000000" d="M-58.11102 28.3468H-55.27618"/>
<use data-text="2" xlink:href="#font_2_4" transform="matrix(5.4994,0,0,-5.499675,3.25,26.196663)"/>
<path transform="matrix(1,0,0,-1.00005,64.841999,52.703989)" stroke-width=".79701" stroke-linecap="butt" stroke-miterlimit="10" stroke-linejoin="miter" fill="none" stroke="#409f9f" d="M-49.8755-24.08197-49.3383-18.43823"/>
<path transform="matrix(1,0,0,-1.00005,64.841999,52.703989)" stroke-width=".79701" stroke-linecap="butt" stroke-miterlimit="10" stroke-linejoin="miter" fill="none" stroke="#409f9f" d="M-49.96698-20.02216-49.24683-14.39919"/>
<path transform="matrix(1,0,0,-1.00005,64.841999,52.703989)" stroke-width=".79701" stroke-linecap="butt" stroke-miterlimit="10" stroke-linejoin="miter" fill="none" stroke="#409f9f" d="M-50.11946-15.94917-49.09436-10.37334"/>
<path transform="matrix(1,0,0,-1.00005,64.841999,52.703989)" stroke-width=".79701" stroke-linecap="butt" stroke-miterlimit="10" stroke-linejoin="miter" fill="none" stroke="#409f9f" d="M-50.4073-11.83119-48.8065-6.39247"/>
<path transform="matrix(1,0,0,-1.00005,64.841999,52.703989)" stroke-width=".79701" stroke-linecap="butt" stroke-miterlimit="10" stroke-linejoin="miter" fill="none" stroke="#409f9f" d="M-51.05396-7.49867-48.15987-2.62613"/>
<path transform="matrix(1,0,0,-1.00005,64.841999,52.703989)" stroke-width=".79701" stroke-linecap="butt" stroke-miterlimit="10" stroke-linejoin="miter" fill="none" stroke="#409f9f" d="M-52.32388-1.81728-46.88994-.2087"/>
<path transform="matrix(1,0,0,-1.00005,64.841999,52.703989)" stroke-width=".79701" stroke-linecap="butt" stroke-miterlimit="10" stroke-linejoin="miter" fill="none" stroke="#409f9f" d="M-51.8576 4.75854-47.3562 1.31427"/>
<path transform="matrix(1,0,0,-1.00005,64.841999,52.703989)" stroke-width=".79701" stroke-linecap="butt" stroke-miterlimit="10" stroke-linejoin="miter" fill="none" stroke="#409f9f" d="M-51.17874 9.44421-48.03506 4.72742"/>
<path transform="matrix(1,0,0,-1.00005,64.841999,52.703989)" stroke-width=".79701" stroke-linecap="butt" stroke-miterlimit="10" stroke-linejoin="miter" fill="none" stroke="#409f9f" d="M-50.92203 13.64569-48.29178 8.6248"/>
<path transform="matrix(1,0,0,-1.00005,64.841999,52.703989)" stroke-width=".79701" stroke-linecap="butt" stroke-miterlimit="10" stroke-linejoin="miter" fill="none" stroke="#409f9f" d="M-50.87964 17.71739-48.33417 12.65195"/>
<path transform="matrix(1,0,0,-1.00005,64.841999,52.703989)" stroke-width=".79701" stroke-linecap="butt" stroke-miterlimit="10" stroke-linejoin="miter" fill="none" stroke="#409f9f" d="M-51.01567 21.69328-48.19814 16.77489"/>
<path transform="matrix(1,0,0,-1.00005,64.841999,52.703989)" stroke-width=".79701" stroke-linecap="butt" stroke-miterlimit="10" stroke-linejoin="miter" fill="none" stroke="#409f9f" d="M-51.44519 25.44122-47.76862 21.12581"/>
<path transform="matrix(1,0,0,-1.00005,64.841999,52.703989)" stroke-width=".79701" stroke-linecap="butt" stroke-miterlimit="10" stroke-linejoin="miter" fill="none" stroke="#409f9f" d="M-52.3388 28.08661-46.875 26.57924"/>
<path transform="matrix(1,0,0,-1.00005,64.841999,52.703989)" stroke-width=".79701" stroke-linecap="butt" stroke-miterlimit="10" stroke-linejoin="miter" fill="none" stroke="#409f9f" d="M-51.6634 29.43138-47.55042 33.33331"/>
<path transform="matrix(1,0,0,-1.00005,64.841999,52.703989)" stroke-width=".79701" stroke-linecap="butt" stroke-miterlimit="10" stroke-linejoin="miter" fill="none" stroke="#409f9f" d="M-50.65991 32.8002-48.5539 38.06331"/>
<path transform="matrix(1,0,0,-1.00005,64.841999,52.703989)" stroke-width=".79701" stroke-linecap="butt" stroke-miterlimit="10" stroke-linejoin="miter" fill="none" stroke="#409f9f" d="M-40.7641-24.08197-40.22688-18.43823"/>
<path transform="matrix(1,0,0,-1.00005,64.841999,52.703989)" stroke-width=".79701" stroke-linecap="butt" stroke-miterlimit="10" stroke-linejoin="miter" fill="none" stroke="#409f9f" d="M-40.85556-20.02216-40.13542-14.39919"/>
<path transform="matrix(1,0,0,-1.00005,64.841999,52.703989)" stroke-width=".79701" stroke-linecap="butt" stroke-miterlimit="10" stroke-linejoin="miter" fill="none" stroke="#409f9f" d="M-41.00804-15.94917-39.98294-10.37334"/>
<path transform="matrix(1,0,0,-1.00005,64.841999,52.703989)" stroke-width=".79701" stroke-linecap="butt" stroke-miterlimit="10" stroke-linejoin="miter" fill="none" stroke="#409f9f" d="M-41.2959-11.83119-39.6951-6.39247"/>
<path transform="matrix(1,0,0,-1.00005,64.841999,52.703989)" stroke-width=".79701" stroke-linecap="butt" stroke-miterlimit="10" stroke-linejoin="miter" fill="none" stroke="#409f9f" d="M-41.94254-7.49867-39.04845-2.62613"/>
<path transform="matrix(1,0,0,-1.00005,64.841999,52.703989)" stroke-width=".79701" stroke-linecap="butt" stroke-miterlimit="10" stroke-linejoin="miter" fill="none" stroke="#409f9f" d="M-43.21246-1.81728-37.77852-.2087"/>
<path transform="matrix(1,0,0,-1.00005,64.841999,52.703989)" stroke-width=".79701" stroke-linecap="butt" stroke-miterlimit="10" stroke-linejoin="miter" fill="none" stroke="#409f9f" d="M-42.74619 4.75854-38.2448 1.31427"/>
<path transform="matrix(1,0,0,-1.00005,64.841999,52.703989)" stroke-width=".79701" stroke-linecap="butt" stroke-miterlimit="10" stroke-linejoin="miter" fill="none" stroke="#409f9f" d="M-42.06734 9.44421-38.92366 4.72742"/>
<path transform="matrix(1,0,0,-1.00005,64.841999,52.703989)" stroke-width=".79701" stroke-linecap="butt" stroke-miterlimit="10" stroke-linejoin="miter" fill="none" stroke="#409f9f" d="M-41.81062 13.64569-39.18037 8.6248"/>
<path transform="matrix(1,0,0,-1.00005,64.841999,52.703989)" stroke-width=".79701" stroke-linecap="butt" stroke-miterlimit="10" stroke-linejoin="miter" fill="none" stroke="#409f9f" d="M-41.76823 17.71739-39.22275 12.65195"/>
<path transform="matrix(1,0,0,-1.00005,64.841999,52.703989)" stroke-width=".79701" stroke-linecap="butt" stroke-miterlimit="10" stroke-linejoin="miter" fill="none" stroke="#409f9f" d="M-41.90427 21.69328-39.08673 16.77489"/>
<path transform="matrix(1,0,0,-1.00005,64.841999,52.703989)" stroke-width=".79701" stroke-linecap="butt" stroke-miterlimit="10" stroke-linejoin="miter" fill="none" stroke="#409f9f" d="M-42.33377 25.44122-38.65721 21.12581"/>
<path transform="matrix(1,0,0,-1.00005,64.841999,52.703989)" stroke-width=".79701" stroke-linecap="butt" stroke-miterlimit="10" stroke-linejoin="miter" fill="none" stroke="#409f9f" d="M-43.2274 28.08661-37.7636 26.57924"/>
<path transform="matrix(1,0,0,-1.00005,64.841999,52.703989)" stroke-width=".79701" stroke-linecap="butt" stroke-miterlimit="10" stroke-linejoin="miter" fill="none" stroke="#409f9f" d="M-42.55199 29.43138-38.439 33.33331"/>
<path transform="matrix(1,0,0,-1.00005,64.841999,52.703989)" stroke-width=".79701" stroke-linecap="butt" stroke-miterlimit="10" stroke-linejoin="miter" fill="none" stroke="#409f9f" d="M-41.54851 32.8002-39.44249 38.06331"/>
<path transform="matrix(1,0,0,-1.00005,64.841999,52.703989)" stroke-width=".79701" stroke-linecap="butt" stroke-miterlimit="10" stroke-linejoin="miter" fill="none" stroke="#409f9f" d="M-31.65268-24.08197-31.11548-18.43823"/>
<path transform="matrix(1,0,0,-1.00005,64.841999,52.703989)" stroke-width=".79701" stroke-linecap="butt" stroke-miterlimit="10" stroke-linejoin="miter" fill="none" stroke="#409f9f" d="M-31.74416-20.02216-31.024-14.39919"/>
<path transform="matrix(1,0,0,-1.00005,64.841999,52.703989)" stroke-width=".79701" stroke-linecap="butt" stroke-miterlimit="10" stroke-linejoin="miter" fill="none" stroke="#409f9f" d="M-31.89664-15.94917-30.87154-10.37334"/>
<path transform="matrix(1,0,0,-1.00005,64.841999,52.703989)" stroke-width=".79701" stroke-linecap="butt" stroke-miterlimit="10" stroke-linejoin="miter" fill="none" stroke="#409f9f" d="M-32.18448-11.83119-30.58368-6.39247"/>
<path transform="matrix(1,0,0,-1.00005,64.841999,52.703989)" stroke-width=".79701" stroke-linecap="butt" stroke-miterlimit="10" stroke-linejoin="miter" fill="none" stroke="#409f9f" d="M-32.83113-7.49867-29.93704-2.62613"/>
<path transform="matrix(1,0,0,-1.00005,64.841999,52.703989)" stroke-width=".79701" stroke-linecap="butt" stroke-miterlimit="10" stroke-linejoin="miter" fill="none" stroke="#409f9f" d="M-34.10106-1.81728-28.66711-.2087"/>
<path transform="matrix(1,0,0,-1.00005,64.841999,52.703989)" stroke-width=".79701" stroke-linecap="butt" stroke-miterlimit="10" stroke-linejoin="miter" fill="none" stroke="#409f9f" d="M-33.63478 4.75854-29.13338 1.31427"/>
<path transform="matrix(1,0,0,-1.00005,64.841999,52.703989)" stroke-width=".79701" stroke-linecap="butt" stroke-miterlimit="10" stroke-linejoin="miter" fill="none" stroke="#409f9f" d="M-32.95592 9.44421-29.81224 4.72742"/>
<path transform="matrix(1,0,0,-1.00005,64.841999,52.703989)" stroke-width=".79701" stroke-linecap="butt" stroke-miterlimit="10" stroke-linejoin="miter" fill="none" stroke="#409f9f" d="M-32.6992 13.64569-30.06895 8.6248"/>
<path transform="matrix(1,0,0,-1.00005,64.841999,52.703989)" stroke-width=".79701" stroke-linecap="butt" stroke-miterlimit="10" stroke-linejoin="miter" fill="none" stroke="#409f9f" d="M-32.65681 17.71739-30.11134 12.65195"/>
<path transform="matrix(1,0,0,-1.00005,64.841999,52.703989)" stroke-width=".79701" stroke-linecap="butt" stroke-miterlimit="10" stroke-linejoin="miter" fill="none" stroke="#409f9f" d="M-32.79285 21.69328-29.97531 16.77489"/>
<path transform="matrix(1,0,0,-1.00005,64.841999,52.703989)" stroke-width=".79701" stroke-linecap="butt" stroke-miterlimit="10" stroke-linejoin="miter" fill="none" stroke="#409f9f" d="M-33.22237 25.44122-29.54579 21.12581"/>
<path transform="matrix(1,0,0,-1.00005,64.841999,52.703989)" stroke-width=".79701" stroke-linecap="butt" stroke-miterlimit="10" stroke-linejoin="miter" fill="none" stroke="#409f9f" d="M-34.11598 28.08661-28.65218 26.57924"/>
<path transform="matrix(1,0,0,-1.00005,64.841999,52.703989)" stroke-width=".79701" stroke-linecap="butt" stroke-miterlimit="10" stroke-linejoin="miter" fill="none" stroke="#409f9f" d="M-33.44058 29.43138-29.32759 33.33331"/>
<path transform="matrix(1,0,0,-1.00005,64.841999,52.703989)" stroke-width=".79701" stroke-linecap="butt" stroke-miterlimit="10" stroke-linejoin="miter" fill="none" stroke="#409f9f" d="M-32.43709 32.8002-30.33107 38.06331"/>
<path transform="matrix(1,0,0,-1.00005,64.841999,52.703989)" stroke-width=".79701" stroke-linecap="butt" stroke-miterlimit="10" stroke-linejoin="miter" fill="none" stroke="#409f9f" d="M-22.54128-24.08197-22.00406-18.43823"/>
<path transform="matrix(1,0,0,-1.00005,64.841999,52.703989)" stroke-width=".79701" stroke-linecap="butt" stroke-miterlimit="10" stroke-linejoin="miter" fill="none" stroke="#409f9f" d="M-22.63274-20.02216-21.9126-14.39919"/>
<path transform="matrix(1,0,0,-1.00005,64.841999,52.703989)" stroke-width=".79701" stroke-linecap="butt" stroke-miterlimit="10" stroke-linejoin="miter" fill="none" stroke="#409f9f" d="M-22.78522-15.94917-21.76012-10.37334"/>
<path transform="matrix(1,0,0,-1.00005,64.841999,52.703989)" stroke-width=".79701" stroke-linecap="butt" stroke-miterlimit="10" stroke-linejoin="miter" fill="none" stroke="#409f9f" d="M-23.07307-11.83119-21.47227-6.39247"/>
<path transform="matrix(1,0,0,-1.00005,64.841999,52.703989)" stroke-width=".79701" stroke-linecap="butt" stroke-miterlimit="10" stroke-linejoin="miter" fill="none" stroke="#409f9f" d="M-23.71971-7.49867-20.82562-2.62613"/>
<path transform="matrix(1,0,0,-1.00005,64.841999,52.703989)" stroke-width=".79701" stroke-linecap="butt" stroke-miterlimit="10" stroke-linejoin="miter" fill="none" stroke="#409f9f" d="M-24.98964-1.81728-19.5557-.2087"/>
<path transform="matrix(1,0,0,-1.00005,64.841999,52.703989)" stroke-width=".79701" stroke-linecap="butt" stroke-miterlimit="10" stroke-linejoin="miter" fill="none" stroke="#409f9f" d="M-24.52336 4.75854-20.02197 1.31427"/>
<path transform="matrix(1,0,0,-1.00005,64.841999,52.703989)" stroke-width=".79701" stroke-linecap="butt" stroke-miterlimit="10" stroke-linejoin="miter" fill="none" stroke="#409f9f" d="M-23.84451 9.44421-20.70084 4.72742"/>
<path transform="matrix(1,0,0,-1.00005,64.841999,52.703989)" stroke-width=".79701" stroke-linecap="butt" stroke-miterlimit="10" stroke-linejoin="miter" fill="none" stroke="#409f9f" d="M-23.5878 13.64569-20.95755 8.6248"/>
<path transform="matrix(1,0,0,-1.00005,64.841999,52.703989)" stroke-width=".79701" stroke-linecap="butt" stroke-miterlimit="10" stroke-linejoin="miter" fill="none" stroke="#409f9f" d="M-23.54541 17.71739-20.99992 12.65195"/>
<path transform="matrix(1,0,0,-1.00005,64.841999,52.703989)" stroke-width=".79701" stroke-linecap="butt" stroke-miterlimit="10" stroke-linejoin="miter" fill="none" stroke="#409f9f" d="M-23.68144 21.69328-20.8639 16.77489"/>
<path transform="matrix(1,0,0,-1.00005,64.841999,52.703989)" stroke-width=".79701" stroke-linecap="butt" stroke-miterlimit="10" stroke-linejoin="miter" fill="none" stroke="#409f9f" d="M-24.11095 25.44122-20.43439 21.12581"/>
<path transform="matrix(1,0,0,-1.00005,64.841999,52.703989)" stroke-width=".79701" stroke-linecap="butt" stroke-miterlimit="10" stroke-linejoin="miter" fill="none" stroke="#409f9f" d="M-25.00458 28.08661-19.54077 26.57924"/>
<path transform="matrix(1,0,0,-1.00005,64.841999,52.703989)" stroke-width=".79701" stroke-linecap="butt" stroke-miterlimit="10" stroke-linejoin="miter" fill="none" stroke="#409f9f" d="M-24.32916 29.43138-20.21617 33.33331"/>
<path transform="matrix(1,0,0,-1.00005,64.841999,52.703989)" stroke-width=".79701" stroke-linecap="butt" stroke-miterlimit="10" stroke-linejoin="miter" fill="none" stroke="#409f9f" d="M-23.32568 32.8002-21.21967 38.06331"/>
<path transform="matrix(1,0,0,-1.00005,64.841999,52.703989)" stroke-width=".79701" stroke-linecap="butt" stroke-miterlimit="10" stroke-linejoin="miter" fill="none" stroke="#409f9f" d="M-13.42986-24.08197-12.89265-18.43823"/>
<path transform="matrix(1,0,0,-1.00005,64.841999,52.703989)" stroke-width=".79701" stroke-linecap="butt" stroke-miterlimit="10" stroke-linejoin="miter" fill="none" stroke="#409f9f" d="M-13.52133-20.02216-12.80118-14.39919"/>
<path transform="matrix(1,0,0,-1.00005,64.841999,52.703989)" stroke-width=".79701" stroke-linecap="butt" stroke-miterlimit="10" stroke-linejoin="miter" fill="none" stroke="#409f9f" d="M-13.67381-15.94917-12.64871-10.37334"/>
<path transform="matrix(1,0,0,-1.00005,64.841999,52.703989)" stroke-width=".79701" stroke-linecap="butt" stroke-miterlimit="10" stroke-linejoin="miter" fill="none" stroke="#409f9f" d="M-13.96165-11.83119-12.36086-6.39247"/>
<path transform="matrix(1,0,0,-1.00005,64.841999,52.703989)" stroke-width=".79701" stroke-linecap="butt" stroke-miterlimit="10" stroke-linejoin="miter" fill="none" stroke="#409f9f" d="M-14.6083-7.49867-11.71422-2.62613"/>
<path transform="matrix(1,0,0,-1.00005,64.841999,52.703989)" stroke-width=".79701" stroke-linecap="butt" stroke-miterlimit="10" stroke-linejoin="miter" fill="none" stroke="#409f9f" d="M-15.87823-1.81728-10.44429-.2087"/>
<path transform="matrix(1,0,0,-1.00005,64.841999,52.703989)" stroke-width=".79701" stroke-linecap="butt" stroke-miterlimit="10" stroke-linejoin="miter" fill="none" stroke="#409f9f" d="M-15.41196 4.75854-10.91055 1.31427"/>
<path transform="matrix(1,0,0,-1.00005,64.841999,52.703989)" stroke-width=".79701" stroke-linecap="butt" stroke-miterlimit="10" stroke-linejoin="miter" fill="none" stroke="#409f9f" d="M-14.7331 9.44421-11.58942 4.72742"/>
<path transform="matrix(1,0,0,-1.00005,64.841999,52.703989)" stroke-width=".79701" stroke-linecap="butt" stroke-miterlimit="10" stroke-linejoin="miter" fill="none" stroke="#409f9f" d="M-14.47638 13.64569-11.84613 8.6248"/>
<path transform="matrix(1,0,0,-1.00005,64.841999,52.703989)" stroke-width=".79701" stroke-linecap="butt" stroke-miterlimit="10" stroke-linejoin="miter" fill="none" stroke="#409f9f" d="M-14.43399 17.71739-11.88852 12.65195"/>
<path transform="matrix(1,0,0,-1.00005,64.841999,52.703989)" stroke-width=".79701" stroke-linecap="butt" stroke-miterlimit="10" stroke-linejoin="miter" fill="none" stroke="#409f9f" d="M-14.57002 21.69328-11.75249 16.77489"/>
<path transform="matrix(1,0,0,-1.00005,64.841999,52.703989)" stroke-width=".79701" stroke-linecap="butt" stroke-miterlimit="10" stroke-linejoin="miter" fill="none" stroke="#409f9f" d="M-14.99954 25.44122-11.32297 21.12581"/>
<path transform="matrix(1,0,0,-1.00005,64.841999,52.703989)" stroke-width=".79701" stroke-linecap="butt" stroke-miterlimit="10" stroke-linejoin="miter" fill="none" stroke="#409f9f" d="M-15.89316 28.08661-10.42935 26.57924"/>
<path transform="matrix(1,0,0,-1.00005,64.841999,52.703989)" stroke-width=".79701" stroke-linecap="butt" stroke-miterlimit="10" stroke-linejoin="miter" fill="none" stroke="#409f9f" d="M-15.21774 29.43138-11.10477 33.33331"/>
<path transform="matrix(1,0,0,-1.00005,64.841999,52.703989)" stroke-width=".79701" stroke-linecap="butt" stroke-miterlimit="10" stroke-linejoin="miter" fill="none" stroke="#409f9f" d="M-14.21426 32.8002-12.10825 38.06331"/>
<path transform="matrix(1,0,0,-1.00005,64.841999,52.703989)" stroke-width=".79701" stroke-linecap="butt" stroke-miterlimit="10" stroke-linejoin="miter" fill="none" stroke="#409f9f" d="M-4.31845-24.08197-3.78123-18.43823"/>
<path transform="matrix(1,0,0,-1.00005,64.841999,52.703989)" stroke-width=".79701" stroke-linecap="butt" stroke-miterlimit="10" stroke-linejoin="miter" fill="none" stroke="#409f9f" d="M-4.40991-20.02216-3.68977-14.39919"/>
<path transform="matrix(1,0,0,-1.00005,64.841999,52.703989)" stroke-width=".79701" stroke-linecap="butt" stroke-miterlimit="10" stroke-linejoin="miter" fill="none" stroke="#409f9f" d="M-4.5624-15.94917-3.5373-10.37334"/>
<path transform="matrix(1,0,0,-1.00005,64.841999,52.703989)" stroke-width=".79701" stroke-linecap="butt" stroke-miterlimit="10" stroke-linejoin="miter" fill="none" stroke="#409f9f" d="M-4.85025-11.83119-3.24945-6.39247"/>
<path transform="matrix(1,0,0,-1.00005,64.841999,52.703989)" stroke-width=".79701" stroke-linecap="butt" stroke-miterlimit="10" stroke-linejoin="miter" fill="none" stroke="#409f9f" d="M-5.49689-7.49867-2.6028-2.62613"/>
<path transform="matrix(1,0,0,-1.00005,64.841999,52.703989)" stroke-width=".79701" stroke-linecap="butt" stroke-miterlimit="10" stroke-linejoin="miter" fill="none" stroke="#409f9f" d="M-6.76682-1.81728-1.33287-.2087"/>
<path transform="matrix(1,0,0,-1.00005,64.841999,52.703989)" stroke-width=".79701" stroke-linecap="butt" stroke-miterlimit="10" stroke-linejoin="miter" fill="none" stroke="#409f9f" d="M-6.30054 4.75854-1.79915 1.31427"/>
<path transform="matrix(1,0,0,-1.00005,64.841999,52.703989)" stroke-width=".79701" stroke-linecap="butt" stroke-miterlimit="10" stroke-linejoin="miter" fill="none" stroke="#409f9f" d="M-5.62169 9.44421-2.47801 4.72742"/>
<path transform="matrix(1,0,0,-1.00005,64.841999,52.703989)" stroke-width=".79701" stroke-linecap="butt" stroke-miterlimit="10" stroke-linejoin="miter" fill="none" stroke="#409f9f" d="M-5.36497 13.64569-2.73473 8.6248"/>
<path transform="matrix(1,0,0,-1.00005,64.841999,52.703989)" stroke-width=".79701" stroke-linecap="butt" stroke-miterlimit="10" stroke-linejoin="miter" fill="none" stroke="#409f9f" d="M-5.32259 17.71739-2.7771 12.65195"/>
<path transform="matrix(1,0,0,-1.00005,64.841999,52.703989)" stroke-width=".79701" stroke-linecap="butt" stroke-miterlimit="10" stroke-linejoin="miter" fill="none" stroke="#409f9f" d="M-5.45862 21.69328-2.64108 16.77489"/>
<path transform="matrix(1,0,0,-1.00005,64.841999,52.703989)" stroke-width=".79701" stroke-linecap="butt" stroke-miterlimit="10" stroke-linejoin="miter" fill="none" stroke="#409f9f" d="M-5.88812 25.44122-2.21156 21.12581"/>
<path transform="matrix(1,0,0,-1.00005,64.841999,52.703989)" stroke-width=".79701" stroke-linecap="butt" stroke-miterlimit="10" stroke-linejoin="miter" fill="none" stroke="#409f9f" d="M-6.78175 28.08661-1.31795 26.57924"/>
<path transform="matrix(1,0,0,-1.00005,64.841999,52.703989)" stroke-width=".79701" stroke-linecap="butt" stroke-miterlimit="10" stroke-linejoin="miter" fill="none" stroke="#409f9f" d="M-6.10634 29.43138-1.99335 33.33331"/>
<path transform="matrix(1,0,0,-1.00005,64.841999,52.703989)" stroke-width=".79701" stroke-linecap="butt" stroke-miterlimit="10" stroke-linejoin="miter" fill="none" stroke="#409f9f" d="M-5.10286 32.8002-2.99684 38.06331"/>
<path transform="matrix(1,0,0,-1.00005,64.841999,52.703989)" stroke-width=".79701" stroke-linecap="butt" stroke-miterlimit="10" stroke-linejoin="miter" fill="none" stroke="#409f9f" d="M4.79295-24.08197 5.33015-18.43823"/>
<path transform="matrix(1,0,0,-1.00005,64.841999,52.703989)" stroke-width=".79701" stroke-linecap="butt" stroke-miterlimit="10" stroke-linejoin="miter" fill="none" stroke="#409f9f" d="M4.70148-20.02216 5.42163-14.39919"/>
<path transform="matrix(1,0,0,-1.00005,64.841999,52.703989)" stroke-width=".79701" stroke-linecap="butt" stroke-miterlimit="10" stroke-linejoin="miter" fill="none" stroke="#409f9f" d="M4.549-15.94917 5.5741-10.37334"/>
<path transform="matrix(1,0,0,-1.00005,64.841999,52.703989)" stroke-width=".79701" stroke-linecap="butt" stroke-miterlimit="10" stroke-linejoin="miter" fill="none" stroke="#409f9f" d="M4.26115-11.83119 5.86195-6.39247"/>
<path transform="matrix(1,0,0,-1.00005,64.841999,52.703989)" stroke-width=".79701" stroke-linecap="butt" stroke-miterlimit="10" stroke-linejoin="miter" fill="none" stroke="#409f9f" d="M3.6145-7.49867 6.50859-2.62613"/>
<path transform="matrix(1,0,0,-1.00005,64.841999,52.703989)" stroke-width=".79701" stroke-linecap="butt" stroke-miterlimit="10" stroke-linejoin="miter" fill="none" stroke="#409f9f" d="M2.34457-1.81728 7.77852-.2087"/>
<path transform="matrix(1,0,0,-1.00005,64.841999,52.703989)" stroke-width=".79701" stroke-linecap="butt" stroke-miterlimit="10" stroke-linejoin="miter" fill="none" stroke="#409f9f" d="M2.81085 4.75854 7.31226 1.31427"/>
<path transform="matrix(1,0,0,-1.00005,64.841999,52.703989)" stroke-width=".79701" stroke-linecap="butt" stroke-miterlimit="10" stroke-linejoin="miter" fill="none" stroke="#409f9f" d="M3.48972 9.44421 6.63339 4.72742"/>
<path transform="matrix(1,0,0,-1.00005,64.841999,52.703989)" stroke-width=".79701" stroke-linecap="butt" stroke-miterlimit="10" stroke-linejoin="miter" fill="none" stroke="#409f9f" d="M3.74643 13.64569 6.37668 8.6248"/>
<path transform="matrix(1,0,0,-1.00005,64.841999,52.703989)" stroke-width=".79701" stroke-linecap="butt" stroke-miterlimit="10" stroke-linejoin="miter" fill="none" stroke="#409f9f" d="M3.78882 17.71739 6.33429 12.65195"/>
<path transform="matrix(1,0,0,-1.00005,64.841999,52.703989)" stroke-width=".79701" stroke-linecap="butt" stroke-miterlimit="10" stroke-linejoin="miter" fill="none" stroke="#409f9f" d="M3.65279 21.69328 6.47032 16.77489"/>
<path transform="matrix(1,0,0,-1.00005,64.841999,52.703989)" stroke-width=".79701" stroke-linecap="butt" stroke-miterlimit="10" stroke-linejoin="miter" fill="none" stroke="#409f9f" d="M3.22327 25.44122 6.89984 21.12581"/>
<path transform="matrix(1,0,0,-1.00005,64.841999,52.703989)" stroke-width=".79701" stroke-linecap="butt" stroke-miterlimit="10" stroke-linejoin="miter" fill="none" stroke="#409f9f" d="M2.32965 28.08661 7.79346 26.57924"/>
<path transform="matrix(1,0,0,-1.00005,64.841999,52.703989)" stroke-width=".79701" stroke-linecap="butt" stroke-miterlimit="10" stroke-linejoin="miter" fill="none" stroke="#409f9f" d="M3.00507 29.43138 7.11804 33.33331"/>
<path transform="matrix(1,0,0,-1.00005,64.841999,52.703989)" stroke-width=".79701" stroke-linecap="butt" stroke-miterlimit="10" stroke-linejoin="miter" fill="none" stroke="#409f9f" d="M4.00854 32.8002 6.11456 38.06331"/>
<path transform="matrix(1,0,0,-1.00005,64.841999,52.703989)" stroke-width=".79701" stroke-linecap="butt" stroke-miterlimit="10" stroke-linejoin="miter" fill="none" stroke="#409f9f" d="M13.90436-24.08197 14.44157-18.43823"/>
<path transform="matrix(1,0,0,-1.00005,64.841999,52.703989)" stroke-width=".79701" stroke-linecap="butt" stroke-miterlimit="10" stroke-linejoin="miter" fill="none" stroke="#409f9f" d="M13.8129-20.02216 14.53304-14.39919"/>
<path transform="matrix(1,0,0,-1.00005,64.841999,52.703989)" stroke-width=".79701" stroke-linecap="butt" stroke-miterlimit="10" stroke-linejoin="miter" fill="none" stroke="#409f9f" d="M13.66042-15.94917 14.68552-10.37334"/>
<path transform="matrix(1,0,0,-1.00005,64.841999,52.703989)" stroke-width=".79701" stroke-linecap="butt" stroke-miterlimit="10" stroke-linejoin="miter" fill="none" stroke="#409f9f" d="M13.37256-11.83119 14.97336-6.39247"/>
<path transform="matrix(1,0,0,-1.00005,64.841999,52.703989)" stroke-width=".79701" stroke-linecap="butt" stroke-miterlimit="10" stroke-linejoin="miter" fill="none" stroke="#409f9f" d="M12.72592-7.49867 15.62001-2.62613"/>
<path transform="matrix(1,0,0,-1.00005,64.841999,52.703989)" stroke-width=".79701" stroke-linecap="butt" stroke-miterlimit="10" stroke-linejoin="miter" fill="none" stroke="#409f9f" d="M11.456-1.81728 16.88994-.2087"/>
<path transform="matrix(1,0,0,-1.00005,64.841999,52.703989)" stroke-width=".79701" stroke-linecap="butt" stroke-miterlimit="10" stroke-linejoin="miter" fill="none" stroke="#409f9f" d="M11.92227 4.75854 16.42366 1.31427"/>
<path transform="matrix(1,0,0,-1.00005,64.841999,52.703989)" stroke-width=".79701" stroke-linecap="butt" stroke-miterlimit="10" stroke-linejoin="miter" fill="none" stroke="#409f9f" d="M12.60112 9.44421 15.7448 4.72742"/>
<path transform="matrix(1,0,0,-1.00005,64.841999,52.703989)" stroke-width=".79701" stroke-linecap="butt" stroke-miterlimit="10" stroke-linejoin="miter" fill="none" stroke="#409f9f" d="M12.85783 13.64569 15.48808 8.6248"/>
<path transform="matrix(1,0,0,-1.00005,64.841999,52.703989)" stroke-width=".79701" stroke-linecap="butt" stroke-miterlimit="10" stroke-linejoin="miter" fill="none" stroke="#409f9f" d="M12.90022 17.71739 15.44571 12.65195"/>
<path transform="matrix(1,0,0,-1.00005,64.841999,52.703989)" stroke-width=".79701" stroke-linecap="butt" stroke-miterlimit="10" stroke-linejoin="miter" fill="none" stroke="#409f9f" d="M12.76419 21.69328 15.58173 16.77489"/>
<path transform="matrix(1,0,0,-1.00005,64.841999,52.703989)" stroke-width=".79701" stroke-linecap="butt" stroke-miterlimit="10" stroke-linejoin="miter" fill="none" stroke="#409f9f" d="M12.33469 25.44122 16.01125 21.12581"/>
<path transform="matrix(1,0,0,-1.00005,64.841999,52.703989)" stroke-width=".79701" stroke-linecap="butt" stroke-miterlimit="10" stroke-linejoin="miter" fill="none" stroke="#409f9f" d="M11.44106 28.08661 16.90486 26.57924"/>
<path transform="matrix(1,0,0,-1.00005,64.841999,52.703989)" stroke-width=".79701" stroke-linecap="butt" stroke-miterlimit="10" stroke-linejoin="miter" fill="none" stroke="#409f9f" d="M12.11647 29.43138 16.22946 33.33331"/>
<path transform="matrix(1,0,0,-1.00005,64.841999,52.703989)" stroke-width=".79701" stroke-linecap="butt" stroke-miterlimit="10" stroke-linejoin="miter" fill="none" stroke="#409f9f" d="M13.11995 32.8002 15.22597 38.06331"/>
<path transform="matrix(1,0,0,-1.00005,64.841999,52.703989)" stroke-width=".79701" stroke-linecap="butt" stroke-miterlimit="10" stroke-linejoin="miter" fill="none" stroke="#409f9f" d="M23.01578-24.08197 23.55298-18.43823"/>
<path transform="matrix(1,0,0,-1.00005,64.841999,52.703989)" stroke-width=".79701" stroke-linecap="butt" stroke-miterlimit="10" stroke-linejoin="miter" fill="none" stroke="#409f9f" d="M22.9243-20.02216 23.64445-14.39919"/>
<path transform="matrix(1,0,0,-1.00005,64.841999,52.703989)" stroke-width=".79701" stroke-linecap="butt" stroke-miterlimit="10" stroke-linejoin="miter" fill="none" stroke="#409f9f" d="M22.77182-15.94917 23.79692-10.37334"/>
<path transform="matrix(1,0,0,-1.00005,64.841999,52.703989)" stroke-width=".79701" stroke-linecap="butt" stroke-miterlimit="10" stroke-linejoin="miter" fill="none" stroke="#409f9f" d="M22.48398-11.83119 24.08478-6.39247"/>
<path transform="matrix(1,0,0,-1.00005,64.841999,52.703989)" stroke-width=".79701" stroke-linecap="butt" stroke-miterlimit="10" stroke-linejoin="miter" fill="none" stroke="#409f9f" d="M21.83733-7.49867 24.73141-2.62613"/>
<path transform="matrix(1,0,0,-1.00005,64.841999,52.703989)" stroke-width=".79701" stroke-linecap="butt" stroke-miterlimit="10" stroke-linejoin="miter" fill="none" stroke="#409f9f" d="M20.5674-1.81728 26.00134-.2087"/>
<path transform="matrix(1,0,0,-1.00005,64.841999,52.703989)" stroke-width=".79701" stroke-linecap="butt" stroke-miterlimit="10" stroke-linejoin="miter" fill="none" stroke="#409f9f" d="M21.03368 4.75854 25.53508 1.31427"/>
<path transform="matrix(1,0,0,-1.00005,64.841999,52.703989)" stroke-width=".79701" stroke-linecap="butt" stroke-miterlimit="10" stroke-linejoin="miter" fill="none" stroke="#409f9f" d="M21.71254 9.44421 24.85622 4.72742"/>
<path transform="matrix(1,0,0,-1.00005,64.841999,52.703989)" stroke-width=".79701" stroke-linecap="butt" stroke-miterlimit="10" stroke-linejoin="miter" fill="none" stroke="#409f9f" d="M21.96925 13.64569 24.5995 8.6248"/>
<path transform="matrix(1,0,0,-1.00005,64.841999,52.703989)" stroke-width=".79701" stroke-linecap="butt" stroke-miterlimit="10" stroke-linejoin="miter" fill="none" stroke="#409f9f" d="M22.01164 17.71739 24.55711 12.65195"/>
<path transform="matrix(1,0,0,-1.00005,64.841999,52.703989)" stroke-width=".79701" stroke-linecap="butt" stroke-miterlimit="10" stroke-linejoin="miter" fill="none" stroke="#409f9f" d="M21.87561 21.69328 24.69315 16.77489"/>
<path transform="matrix(1,0,0,-1.00005,64.841999,52.703989)" stroke-width=".79701" stroke-linecap="butt" stroke-miterlimit="10" stroke-linejoin="miter" fill="none" stroke="#409f9f" d="M21.44609 25.44122 25.12267 21.12581"/>
<path transform="matrix(1,0,0,-1.00005,64.841999,52.703989)" stroke-width=".79701" stroke-linecap="butt" stroke-miterlimit="10" stroke-linejoin="miter" fill="none" stroke="#409f9f" d="M20.55247 28.08661 26.01628 26.57924"/>
<path transform="matrix(1,0,0,-1.00005,64.841999,52.703989)" stroke-width=".79701" stroke-linecap="butt" stroke-miterlimit="10" stroke-linejoin="miter" fill="none" stroke="#409f9f" d="M21.22789 29.43138 25.34087 33.33331"/>
<path transform="matrix(1,0,0,-1.00005,64.841999,52.703989)" stroke-width=".79701" stroke-linecap="butt" stroke-miterlimit="10" stroke-linejoin="miter" fill="none" stroke="#409f9f" d="M22.23137 32.8002 24.33739 38.06331"/>
<path transform="matrix(1,0,0,-1.00005,64.841999,52.703989)" stroke-width=".79701" stroke-linecap="butt" stroke-miterlimit="10" stroke-linejoin="miter" fill="none" stroke="#409f9f" d="M32.12718-24.08197 32.6644-18.43823"/>
<path transform="matrix(1,0,0,-1.00005,64.841999,52.703989)" stroke-width=".79701" stroke-linecap="butt" stroke-miterlimit="10" stroke-linejoin="miter" fill="none" stroke="#409f9f" d="M32.03572-20.02216 32.75586-14.39919"/>
<path transform="matrix(1,0,0,-1.00005,64.841999,52.703989)" stroke-width=".79701" stroke-linecap="butt" stroke-miterlimit="10" stroke-linejoin="miter" fill="none" stroke="#409f9f" d="M31.88324-15.94917 32.90834-10.37334"/>
<path transform="matrix(1,0,0,-1.00005,64.841999,52.703989)" stroke-width=".79701" stroke-linecap="butt" stroke-miterlimit="10" stroke-linejoin="miter" fill="none" stroke="#409f9f" d="M31.59538-11.83119 33.19618-6.39247"/>
<path transform="matrix(1,0,0,-1.00005,64.841999,52.703989)" stroke-width=".79701" stroke-linecap="butt" stroke-miterlimit="10" stroke-linejoin="miter" fill="none" stroke="#409f9f" d="M30.94875-7.49867 33.84283-2.62613"/>
<path transform="matrix(1,0,0,-1.00005,64.841999,52.703989)" stroke-width=".79701" stroke-linecap="butt" stroke-miterlimit="10" stroke-linejoin="miter" fill="none" stroke="#409f9f" d="M29.67882-1.81728 35.11276-.2087"/>
<path transform="matrix(1,0,0,-1.00005,64.841999,52.703989)" stroke-width=".79701" stroke-linecap="butt" stroke-miterlimit="10" stroke-linejoin="miter" fill="none" stroke="#409f9f" d="M30.1451 4.75854 34.64648 1.31427"/>
<path transform="matrix(1,0,0,-1.00005,64.841999,52.703989)" stroke-width=".79701" stroke-linecap="butt" stroke-miterlimit="10" stroke-linejoin="miter" fill="none" stroke="#409f9f" d="M30.82394 9.44421 33.96762 4.72742"/>
<path transform="matrix(1,0,0,-1.00005,64.841999,52.703989)" stroke-width=".79701" stroke-linecap="butt" stroke-miterlimit="10" stroke-linejoin="miter" fill="none" stroke="#409f9f" d="M31.08066 13.64569 33.7109 8.6248"/>
<path transform="matrix(1,0,0,-1.00005,64.841999,52.703989)" stroke-width=".79701" stroke-linecap="butt" stroke-miterlimit="10" stroke-linejoin="miter" fill="none" stroke="#409f9f" d="M31.12305 17.71739 33.66853 12.65195"/>
<path transform="matrix(1,0,0,-1.00005,64.841999,52.703989)" stroke-width=".79701" stroke-linecap="butt" stroke-miterlimit="10" stroke-linejoin="miter" fill="none" stroke="#409f9f" d="M30.98701 21.69328 33.80455 16.77489"/>
<path transform="matrix(1,0,0,-1.00005,64.841999,52.703989)" stroke-width=".79701" stroke-linecap="butt" stroke-miterlimit="10" stroke-linejoin="miter" fill="none" stroke="#409f9f" d="M30.55751 25.44122 34.23407 21.12581"/>
<path transform="matrix(1,0,0,-1.00005,64.841999,52.703989)" stroke-width=".79701" stroke-linecap="butt" stroke-miterlimit="10" stroke-linejoin="miter" fill="none" stroke="#409f9f" d="M29.66388 28.08661 35.12769 26.57924"/>
<path transform="matrix(1,0,0,-1.00005,64.841999,52.703989)" stroke-width=".79701" stroke-linecap="butt" stroke-miterlimit="10" stroke-linejoin="miter" fill="none" stroke="#409f9f" d="M30.3393 29.43138 34.45229 33.33331"/>
<path transform="matrix(1,0,0,-1.00005,64.841999,52.703989)" stroke-width=".79701" stroke-linecap="butt" stroke-miterlimit="10" stroke-linejoin="miter" fill="none" stroke="#409f9f" d="M31.34277 32.8002 33.44879 38.06331"/>
<path transform="matrix(1,0,0,-1.00005,64.841999,52.703989)" stroke-width=".79701" stroke-linecap="butt" stroke-miterlimit="10" stroke-linejoin="miter" fill="none" stroke="#409f9f" d="M41.2386-24.08197 41.7758-18.43823"/>
<path transform="matrix(1,0,0,-1.00005,64.841999,52.703989)" stroke-width=".79701" stroke-linecap="butt" stroke-miterlimit="10" stroke-linejoin="miter" fill="none" stroke="#409f9f" d="M41.14713-20.02216 41.86728-14.39919"/>
<path transform="matrix(1,0,0,-1.00005,64.841999,52.703989)" stroke-width=".79701" stroke-linecap="butt" stroke-miterlimit="10" stroke-linejoin="miter" fill="none" stroke="#409f9f" d="M40.99464-15.94917 42.01974-10.37334"/>
<path transform="matrix(1,0,0,-1.00005,64.841999,52.703989)" stroke-width=".79701" stroke-linecap="butt" stroke-miterlimit="10" stroke-linejoin="miter" fill="none" stroke="#409f9f" d="M40.7068-11.83119 42.3076-6.39247"/>
<path transform="matrix(1,0,0,-1.00005,64.841999,52.703989)" stroke-width=".79701" stroke-linecap="butt" stroke-miterlimit="10" stroke-linejoin="miter" fill="none" stroke="#409f9f" d="M40.06015-7.49867 42.95424-2.62613"/>
<path transform="matrix(1,0,0,-1.00005,64.841999,52.703989)" stroke-width=".79701" stroke-linecap="butt" stroke-miterlimit="10" stroke-linejoin="miter" fill="none" stroke="#409f9f" d="M38.79022-1.81728 44.22417-.2087"/>
<path transform="matrix(1,0,0,-1.00005,64.841999,52.703989)" stroke-width=".79701" stroke-linecap="butt" stroke-miterlimit="10" stroke-linejoin="miter" fill="none" stroke="#409f9f" d="M39.2565 4.75854 43.7579 1.31427"/>
<path transform="matrix(1,0,0,-1.00005,64.841999,52.703989)" stroke-width=".79701" stroke-linecap="butt" stroke-miterlimit="10" stroke-linejoin="miter" fill="none" stroke="#409f9f" d="M39.93536 9.44421 43.07904 4.72742"/>
<path transform="matrix(1,0,0,-1.00005,64.841999,52.703989)" stroke-width=".79701" stroke-linecap="butt" stroke-miterlimit="10" stroke-linejoin="miter" fill="none" stroke="#409f9f" d="M40.19208 13.64569 42.82233 8.6248"/>
<path transform="matrix(1,0,0,-1.00005,64.841999,52.703989)" stroke-width=".79701" stroke-linecap="butt" stroke-miterlimit="10" stroke-linejoin="miter" fill="none" stroke="#409f9f" d="M40.23447 17.71739 42.77994 12.65195"/>
<path transform="matrix(1,0,0,-1.00005,64.841999,52.703989)" stroke-width=".79701" stroke-linecap="butt" stroke-miterlimit="10" stroke-linejoin="miter" fill="none" stroke="#409f9f" d="M40.09843 21.69328 42.91597 16.77489"/>
<path transform="matrix(1,0,0,-1.00005,64.841999,52.703989)" stroke-width=".79701" stroke-linecap="butt" stroke-miterlimit="10" stroke-linejoin="miter" fill="none" stroke="#409f9f" d="M39.66891 25.44122 43.34549 21.12581"/>
<path transform="matrix(1,0,0,-1.00005,64.841999,52.703989)" stroke-width=".79701" stroke-linecap="butt" stroke-miterlimit="10" stroke-linejoin="miter" fill="none" stroke="#409f9f" d="M38.7753 28.08661 44.2391 26.57924"/>
<path transform="matrix(1,0,0,-1.00005,64.841999,52.703989)" stroke-width=".79701" stroke-linecap="butt" stroke-miterlimit="10" stroke-linejoin="miter" fill="none" stroke="#409f9f" d="M39.45071 29.43138 43.56369 33.33331"/>
<path transform="matrix(1,0,0,-1.00005,64.841999,52.703989)" stroke-width=".79701" stroke-linecap="butt" stroke-miterlimit="10" stroke-linejoin="miter" fill="none" stroke="#409f9f" d="M40.4542 32.8002 42.56021 38.06331"/>
<path transform="matrix(1,0,0,-1.00005,64.841999,52.703989)" stroke-width=".79701" stroke-linecap="butt" stroke-miterlimit="10" stroke-linejoin="miter" fill="none" stroke="#409f9f" d="M50.35-24.08197 50.88722-18.43823"/>
<path transform="matrix(1,0,0,-1.00005,64.841999,52.703989)" stroke-width=".79701" stroke-linecap="butt" stroke-miterlimit="10" stroke-linejoin="miter" fill="none" stroke="#409f9f" d="M50.25854-20.02216 50.97868-14.39919"/>
<path transform="matrix(1,0,0,-1.00005,64.841999,52.703989)" stroke-width=".79701" stroke-linecap="butt" stroke-miterlimit="10" stroke-linejoin="miter" fill="none" stroke="#409f9f" d="M50.10606-15.94917 51.13116-10.37334"/>
<path transform="matrix(1,0,0,-1.00005,64.841999,52.703989)" stroke-width=".79701" stroke-linecap="butt" stroke-miterlimit="10" stroke-linejoin="miter" fill="none" stroke="#409f9f" d="M49.8182-11.83119 51.419-6.39247"/>
<path transform="matrix(1,0,0,-1.00005,64.841999,52.703989)" stroke-width=".79701" stroke-linecap="butt" stroke-miterlimit="10" stroke-linejoin="miter" fill="none" stroke="#409f9f" d="M49.17157-7.49867 52.06566-2.62613"/>
<path transform="matrix(1,0,0,-1.00005,64.841999,52.703989)" stroke-width=".79701" stroke-linecap="butt" stroke-miterlimit="10" stroke-linejoin="miter" fill="none" stroke="#409f9f" d="M47.90164-1.81728 53.33559-.2087"/>
<path transform="matrix(1,0,0,-1.00005,64.841999,52.703989)" stroke-width=".79701" stroke-linecap="butt" stroke-miterlimit="10" stroke-linejoin="miter" fill="none" stroke="#409f9f" d="M48.36792 4.75854 52.86931 1.31427"/>
<path transform="matrix(1,0,0,-1.00005,64.841999,52.703989)" stroke-width=".79701" stroke-linecap="butt" stroke-miterlimit="10" stroke-linejoin="miter" fill="none" stroke="#409f9f" d="M49.04677 9.44421 52.19044 4.72742"/>
<path transform="matrix(1,0,0,-1.00005,64.841999,52.703989)" stroke-width=".79701" stroke-linecap="butt" stroke-miterlimit="10" stroke-linejoin="miter" fill="none" stroke="#409f9f" d="M49.30348 13.64569 51.93373 8.6248"/>
<path transform="matrix(1,0,0,-1.00005,64.841999,52.703989)" stroke-width=".79701" stroke-linecap="butt" stroke-miterlimit="10" stroke-linejoin="miter" fill="none" stroke="#409f9f" d="M49.34587 17.71739 51.89136 12.65195"/>
<path transform="matrix(1,0,0,-1.00005,64.841999,52.703989)" stroke-width=".79701" stroke-linecap="butt" stroke-miterlimit="10" stroke-linejoin="miter" fill="none" stroke="#409f9f" d="M49.20984 21.69328 52.02737 16.77489"/>
<path transform="matrix(1,0,0,-1.00005,64.841999,52.703989)" stroke-width=".79701" stroke-linecap="butt" stroke-miterlimit="10" stroke-linejoin="miter" fill="none" stroke="#409f9f" d="M48.78033 25.44122 52.4569 21.12581"/>
<path transform="matrix(1,0,0,-1.00005,64.841999,52.703989)" stroke-width=".79701" stroke-linecap="butt" stroke-miterlimit="10" stroke-linejoin="miter" fill="none" stroke="#409f9f" d="M47.8867 28.08661 53.35051 26.57924"/>
<path transform="matrix(1,0,0,-1.00005,64.841999,52.703989)" stroke-width=".79701" stroke-linecap="butt" stroke-miterlimit="10" stroke-linejoin="miter" fill="none" stroke="#409f9f" d="M48.56212 29.43138 52.67511 33.33331"/>
<path transform="matrix(1,0,0,-1.00005,64.841999,52.703989)" stroke-width=".79701" stroke-linecap="butt" stroke-miterlimit="10" stroke-linejoin="miter" fill="none" stroke="#409f9f" d="M49.5656 32.8002 51.67163 38.06331"/>
<path transform="matrix(1,0,0,-1.00005,64.841999,52.703989)" stroke-width=".79701" stroke-linecap="butt" stroke-miterlimit="10" stroke-linejoin="miter" fill="none" stroke="#409f9f" d="M59.46143-24.08197 59.99863-18.43823"/>
<path transform="matrix(1,0,0,-1.00005,64.841999,52.703989)" stroke-width=".79701" stroke-linecap="butt" stroke-miterlimit="10" stroke-linejoin="miter" fill="none" stroke="#409f9f" d="M59.36995-20.02216 60.0901-14.39919"/>
<path transform="matrix(1,0,0,-1.00005,64.841999,52.703989)" stroke-width=".79701" stroke-linecap="butt" stroke-miterlimit="10" stroke-linejoin="miter" fill="none" stroke="#409f9f" d="M59.21747-15.94917 60.24257-10.37334"/>
<path transform="matrix(1,0,0,-1.00005,64.841999,52.703989)" stroke-width=".79701" stroke-linecap="butt" stroke-miterlimit="10" stroke-linejoin="miter" fill="none" stroke="#409f9f" d="M58.92963-11.83119 60.53043-6.39247"/>
<path transform="matrix(1,0,0,-1.00005,64.841999,52.703989)" stroke-width=".79701" stroke-linecap="butt" stroke-miterlimit="10" stroke-linejoin="miter" fill="none" stroke="#409f9f" d="M58.28297-7.49867 61.17708-2.62613"/>
<path transform="matrix(1,0,0,-1.00005,64.841999,52.703989)" stroke-width=".79701" stroke-linecap="butt" stroke-miterlimit="10" stroke-linejoin="miter" fill="none" stroke="#409f9f" d="M57.01305-1.81728 62.44699-.2087"/>
<path transform="matrix(1,0,0,-1.00005,64.841999,52.703989)" stroke-width=".79701" stroke-linecap="butt" stroke-miterlimit="10" stroke-linejoin="miter" fill="none" stroke="#409f9f" d="M57.47932 4.75854 61.98073 1.31427"/>
<path transform="matrix(1,0,0,-1.00005,64.841999,52.703989)" stroke-width=".79701" stroke-linecap="butt" stroke-miterlimit="10" stroke-linejoin="miter" fill="none" stroke="#409f9f" d="M58.15819 9.44421 61.30186 4.72742"/>
<path transform="matrix(1,0,0,-1.00005,64.841999,52.703989)" stroke-width=".79701" stroke-linecap="butt" stroke-miterlimit="10" stroke-linejoin="miter" fill="none" stroke="#409f9f" d="M58.4149 13.64569 61.04515 8.6248"/>
<path transform="matrix(1,0,0,-1.00005,64.841999,52.703989)" stroke-width=".79701" stroke-linecap="butt" stroke-miterlimit="10" stroke-linejoin="miter" fill="none" stroke="#409f9f" d="M58.45729 17.71739 61.00276 12.65195"/>
<path transform="matrix(1,0,0,-1.00005,64.841999,52.703989)" stroke-width=".79701" stroke-linecap="butt" stroke-miterlimit="10" stroke-linejoin="miter" fill="none" stroke="#409f9f" d="M58.32126 21.69328 61.1388 16.77489"/>
<path transform="matrix(1,0,0,-1.00005,64.841999,52.703989)" stroke-width=".79701" stroke-linecap="butt" stroke-miterlimit="10" stroke-linejoin="miter" fill="none" stroke="#409f9f" d="M57.89174 25.44122 61.56831 21.12581"/>
<path transform="matrix(1,0,0,-1.00005,64.841999,52.703989)" stroke-width=".79701" stroke-linecap="butt" stroke-miterlimit="10" stroke-linejoin="miter" fill="none" stroke="#409f9f" d="M56.99812 28.08661 62.46193 26.57924"/>
<path transform="matrix(1,0,0,-1.00005,64.841999,52.703989)" stroke-width=".79701" stroke-linecap="butt" stroke-miterlimit="10" stroke-linejoin="miter" fill="none" stroke="#409f9f" d="M57.67354 29.43138 61.78651 33.33331"/>
<path transform="matrix(1,0,0,-1.00005,64.841999,52.703989)" stroke-width=".79701" stroke-linecap="butt" stroke-miterlimit="10" stroke-linejoin="miter" fill="none" stroke="#409f9f" d="M58.67702 32.8002 60.78304 38.06331"/>
<path transform="matrix(1,0,0,-1.00005,64.841999,52.703989)" stroke-width=".79701" stroke-linecap="butt" stroke-miterlimit="10" stroke-linejoin="miter" fill="none" stroke="#409f9f" d="M68.57283-24.08197 69.11005-18.43823"/>
<path transform="matrix(1,0,0,-1.00005,64.841999,52.703989)" stroke-width=".79701" stroke-linecap="butt" stroke-miterlimit="10" stroke-linejoin="miter" fill="none" stroke="#409f9f" d="M68.48137-20.02216 69.2015-14.39919"/>
<path transform="matrix(1,0,0,-1.00005,64.841999,52.703989)" stroke-width=".79701" stroke-linecap="butt" stroke-miterlimit="10" stroke-linejoin="miter" fill="none" stroke="#409f9f" d="M68.32889-15.94917 69.35399-10.37334"/>
<path transform="matrix(1,0,0,-1.00005,64.841999,52.703989)" stroke-width=".79701" stroke-linecap="butt" stroke-miterlimit="10" stroke-linejoin="miter" fill="none" stroke="#409f9f" d="M68.04103-11.83119 69.64183-6.39247"/>
<path transform="matrix(1,0,0,-1.00005,64.841999,52.703989)" stroke-width=".79701" stroke-linecap="butt" stroke-miterlimit="10" stroke-linejoin="miter" fill="none" stroke="#409f9f" d="M67.3944-7.49867 70.28848-2.62613"/>
<path transform="matrix(1,0,0,-1.00005,64.841999,52.703989)" stroke-width=".79701" stroke-linecap="butt" stroke-miterlimit="10" stroke-linejoin="miter" fill="none" stroke="#409f9f" d="M66.12447-1.81728 71.55841-.2087"/>
<path transform="matrix(1,0,0,-1.00005,64.841999,52.703989)" stroke-width=".79701" stroke-linecap="butt" stroke-miterlimit="10" stroke-linejoin="miter" fill="none" stroke="#409f9f" d="M66.59074 4.75854 71.09213 1.31427"/>
<path transform="matrix(1,0,0,-1.00005,64.841999,52.703989)" stroke-width=".79701" stroke-linecap="butt" stroke-miterlimit="10" stroke-linejoin="miter" fill="none" stroke="#409f9f" d="M67.26959 9.44421 70.41327 4.72742"/>
<path transform="matrix(1,0,0,-1.00005,64.841999,52.703989)" stroke-width=".79701" stroke-linecap="butt" stroke-miterlimit="10" stroke-linejoin="miter" fill="none" stroke="#409f9f" d="M67.52632 13.64569 70.15656 8.6248"/>
<path transform="matrix(1,0,0,-1.00005,64.841999,52.703989)" stroke-width=".79701" stroke-linecap="butt" stroke-miterlimit="10" stroke-linejoin="miter" fill="none" stroke="#409f9f" d="M67.5687 17.71739 70.11418 12.65195"/>
<path transform="matrix(1,0,0,-1.00005,64.841999,52.703989)" stroke-width=".79701" stroke-linecap="butt" stroke-miterlimit="10" stroke-linejoin="miter" fill="none" stroke="#409f9f" d="M67.43266 21.69328 70.2502 16.77489"/>
<path transform="matrix(1,0,0,-1.00005,64.841999,52.703989)" stroke-width=".79701" stroke-linecap="butt" stroke-miterlimit="10" stroke-linejoin="miter" fill="none" stroke="#409f9f" d="M67.00316 25.44122 70.67972 21.12581"/>
<path transform="matrix(1,0,0,-1.00005,64.841999,52.703989)" stroke-width=".79701" stroke-linecap="butt" stroke-miterlimit="10" stroke-linejoin="miter" fill="none" stroke="#409f9f" d="M66.10953 28.08661 71.57333 26.57924"/>
<path transform="matrix(1,0,0,-1.00005,64.841999,52.703989)" stroke-width=".79701" stroke-linecap="butt" stroke-miterlimit="10" stroke-linejoin="miter" fill="none" stroke="#409f9f" d="M66.78494 29.43138 70.89793 33.33331"/>
<path transform="matrix(1,0,0,-1.00005,64.841999,52.703989)" stroke-width=".79701" stroke-linecap="butt" stroke-miterlimit="10" stroke-linejoin="miter" fill="none" stroke="#409f9f" d="M67.78842 32.8002 69.89445 38.06331"/>
<path transform="matrix(1,0,0,-1.00005,64.841999,52.703989)" stroke-width=".79701" stroke-linecap="butt" stroke-miterlimit="10" stroke-linejoin="miter" fill="none" stroke="#409f9f" d="M77.68425-24.08197 78.22145-18.43823"/>
<path transform="matrix(1,0,0,-1.00005,64.841999,52.703989)" stroke-width=".79701" stroke-linecap="butt" stroke-miterlimit="10" stroke-linejoin="miter" fill="none" stroke="#409f9f" d="M77.59277-20.02216 78.31293-14.39919"/>
<path transform="matrix(1,0,0,-1.00005,64.841999,52.703989)" stroke-width=".79701" stroke-linecap="butt" stroke-miterlimit="10" stroke-linejoin="miter" fill="none" stroke="#409f9f" d="M77.44029-15.94917 78.4654-10.37334"/>
<path transform="matrix(1,0,0,-1.00005,64.841999,52.703989)" stroke-width=".79701" stroke-linecap="butt" stroke-miterlimit="10" stroke-linejoin="miter" fill="none" stroke="#409f9f" d="M77.15245-11.83119 78.75325-6.39247"/>
<path transform="matrix(1,0,0,-1.00005,64.841999,52.703989)" stroke-width=".79701" stroke-linecap="butt" stroke-miterlimit="10" stroke-linejoin="miter" fill="none" stroke="#409f9f" d="M76.5058-7.49867 79.3999-2.62613"/>
<path transform="matrix(1,0,0,-1.00005,64.841999,52.703989)" stroke-width=".79701" stroke-linecap="butt" stroke-miterlimit="10" stroke-linejoin="miter" fill="none" stroke="#409f9f" d="M75.23587-1.81728 80.66983-.2087"/>
<path transform="matrix(1,0,0,-1.00005,64.841999,52.703989)" stroke-width=".79701" stroke-linecap="butt" stroke-miterlimit="10" stroke-linejoin="miter" fill="none" stroke="#409f9f" d="M75.70215 4.75854 80.20355 1.31427"/>
<path transform="matrix(1,0,0,-1.00005,64.841999,52.703989)" stroke-width=".79701" stroke-linecap="butt" stroke-miterlimit="10" stroke-linejoin="miter" fill="none" stroke="#409f9f" d="M76.38101 9.44421 79.52469 4.72742"/>
<path transform="matrix(1,0,0,-1.00005,64.841999,52.703989)" stroke-width=".79701" stroke-linecap="butt" stroke-miterlimit="10" stroke-linejoin="miter" fill="none" stroke="#409f9f" d="M76.63773 13.64569 79.26797 8.6248"/>
<path transform="matrix(1,0,0,-1.00005,64.841999,52.703989)" stroke-width=".79701" stroke-linecap="butt" stroke-miterlimit="10" stroke-linejoin="miter" fill="none" stroke="#409f9f" d="M76.68011 17.71739 79.22559 12.65195"/>
<path transform="matrix(1,0,0,-1.00005,64.841999,52.703989)" stroke-width=".79701" stroke-linecap="butt" stroke-miterlimit="10" stroke-linejoin="miter" fill="none" stroke="#409f9f" d="M76.54408 21.69328 79.36162 16.77489"/>
<path transform="matrix(1,0,0,-1.00005,64.841999,52.703989)" stroke-width=".79701" stroke-linecap="butt" stroke-miterlimit="10" stroke-linejoin="miter" fill="none" stroke="#409f9f" d="M76.11456 25.44122 79.79114 21.12581"/>
<path transform="matrix(1,0,0,-1.00005,64.841999,52.703989)" stroke-width=".79701" stroke-linecap="butt" stroke-miterlimit="10" stroke-linejoin="miter" fill="none" stroke="#409f9f" d="M75.22095 28.08661 80.68475 26.57924"/>
<path transform="matrix(1,0,0,-1.00005,64.841999,52.703989)" stroke-width=".79701" stroke-linecap="butt" stroke-miterlimit="10" stroke-linejoin="miter" fill="none" stroke="#409f9f" d="M75.89636 29.43138 80.00934 33.33331"/>
<path transform="matrix(1,0,0,-1.00005,64.841999,52.703989)" stroke-width=".79701" stroke-linecap="butt" stroke-miterlimit="10" stroke-linejoin="miter" fill="none" stroke="#409f9f" d="M76.89984 32.8002 79.00586 38.06331"/>
</svg>
