<svg xmlns="http://www.w3.org/2000/svg" xmlns:xlink="http://www.w3.org/1999/xlink" version="1.1" width="126" height="82" viewBox="0 0 126 82">
<defs>
<path id="font_1_1" d="M.42799378 .45222474 .43899537 .49023438H.31199647L.34599305 .6092224 .33399964 .6162262 .23699951 .53923037 .22399903 .49023438H.14299011L.13198853 .45222474H.21499634L.125 .08627319C.10998535 .029266358 .12199402-.01171875 .17199707-.01171875 .2519989-.01171875 .31599427 .054275514 .35598756 .1292572L.33399964 .1462555C.31098939 .10726929 .2599945 .040267946 .22898865 .040267946 .20799256 .040267946 .20799256 .0632782 .21398926 .088272098L.30299378 .45222474H.42799378Z"/>
<path id="font_2_3" d="M.07398987 .2861328V.21612549H.31900025V.2861328H.07398987Z"/>
<path id="font_2_5" d="M.43699647 0V.0289917L.35299684 .035995485C.33198548 .037994386 .31999208 .04598999 .31999208 .08496094V.67367556L.31498719 .6796875 .10899353 .6446991V.6197052L.20199585 .6087036C.21899414 .6067047 .22599793 .5987091 .22599793 .56973269V.08496094C.22599793 .065979007 .22299195 .053985597 .21699524 .04698181 .21199036 .039993287 .20399475 .036987306 .19299317 .035995485L.10899353 .0289917V0H.43699647Z"/>
<path id="font_2_4" d="M.2649994 .64468386C.3600006 .64468386 .3869934 .49682618 .3869934 .33398438 .3869934 .17112732 .3600006 .023269654 .2649994 .023269654 .16999817 .023269654 .14299011 .17112732 .14299011 .33398438 .14299011 .49682618 .16999817 .64468386 .2649994 .64468386M.2649994 .6796875C.099990848 .6796875 .040985109 .53378298 .040985109 .33398438 .040985109 .13417053 .099990848-.01171875 .2649994-.01171875 .42999269-.01171875 .4889984 .13417053 .4889984 .33398438 .4889984 .53378298 .42999269 .6796875 .2649994 .6796875Z"/>
<path id="font_2_6" d="M.4850006 .13195801 .45700074 .13696289C.43598939 .08299255 .41600038 .07598877 .37599183 .07598877H.11999512C.13598633 .1279602 .19499207 .19892884 .28799439 .2658844 .38398744 .33584596 .45799256 .38082887 .45799256 .49276734 .45799256 .63168337 .3659973 .6796875 .26098634 .6796875 .12399292 .6796875 .052993776 .5967102 .052993776 .54473879 .052993776 .51075747 .09098816 .49476625 .10798645 .49476625 .12599182 .49476625 .1329956 .50476077 .13699341 .5217438 .15299988 .5897064 .19198609 .64468386 .2539978 .64468386 .33099366 .64468386 .35299684 .5797119 .35299684 .50675967 .35299684 .3998108 .29899598 .33984376 .21199036 .26289369 .08898926 .15594483 .04598999 .08798218 .026992798 .009994507L.036987306 0H.45098878L.4850006 .13195801Z"/>
<path id="font_2_7" d="M.12998963 .3657837C.12998963 .3487854 .1349945 .33779908 .147995 .33779908 .1599884 .33779908 .18699646 .34777833 .23498535 .34777833 .31999208 .34777833 .36799623 .27090455 .36799623 .18403626 .36799623 .065216068 .30899049 .023269654 .23799134 .023269654 .17199707 .023269654 .1289978 .07319641 .10998535 .12911988 .10398865 .14808655 .09399414 .15707398 .07998657 .15707398 .06199646 .15707398 .026992798 .13809204 .026992798 .10215759 .026992798 .05921936 .09599304-.01171875 .23699951-.01171875 .38198854-.01171875 .47299195 .06121826 .47299195 .18902588 .47299195 .32281495 .35798646 .3627777 .30299378 .3677826V.3717804C.35699464 .38078309 .44400025 .4207611 .44400025 .5197296 .44400025 .6306915 .35699464 .6796875 .25 .6796875 .117996219 .6796875 .052993776 .60369876 .052993776 .5607147 .052993776 .5297241 .08799744 .51272585 .101989749 .51272585 .114990238 .51272585 .12298584 .5197296 .1269989 .5327301 .14898682 .60069277 .18699646 .64468386 .24299622 .64468386 .32199098 .64468386 .34098817 .57470706 .34098817 .51872256 .34098817 .4587555 .31999208 .38378907 .23498535 .38378907 .18699646 .38378907 .1599884 .39378358 .147995 .39378358 .1349945 .39378358 .12998963 .38378907 .12998963 .3657837Z"/>
<path id="font_2_8" d="M.2999878 .17871094V.0769043C.2999878 .04296875 .2889862 .036987306 .2649994 .034988405L.20098877 .0289917V0H.46499635V.0289917L.41999818 .033981325C.39698792 .036987306 .3899994 .04296875 .3899994 .0769043V.17871094H.49299623V.22570801H.3899994V.66796877H.31698609C.22299195 .5298767 .11099243 .35577394 .018997193 .19970703L.027999878 .17871094H.2999878M.09098816 .22570801C.15098572 .33476258 .22099304 .4498291 .2979889 .5709076H.2999878V.22570801H.09098816Z"/>
<path id="font_2_9" d="M.42599488 .5919647 .44999696 .6599579 .44499208 .66796877H.11099243L.100997928 .65896609 .08099365 .32388307 .10499573 .31188966C.14698792 .35983277 .18798828 .3828125 .24198914 .3828125 .30599977 .3828125 .37599183 .3358612 .37599183 .20404053 .37599183 .10116577 .33399964 .023269654 .24699402 .023269654 .1769867 .023269654 .14099121 .07420349 .12098694 .13113404 .115997318 .14611817 .10699463 .15510559 .09298706 .15510559 .07299805 .15510559 .039993287 .13513184 .039993287 .10217285 .039993287 .056228639 .10998535-.01171875 .23999024-.01171875 .40499879-.01171875 .47999574 .0881958 .47999574 .21502686 .47999574 .35484315 .3919983 .4268036 .272995 .4268036 .21798706 .4268036 .15899658 .4028015 .1269989 .3738098L.125 .37580873 .147995 .56292727C.15098572 .58795168 .1579895 .5919647 .1769867 .5919647H.42599488Z"/>
<path id="font_1_2" d="M.5329895 .48995973C.5039978 .388031 .48799134 .33506776 .46199037 .2741089 .41799928 .173172 .33099366 .040267946 .24798584 .040267946 .21598816 .040267946 .20799256 .070251468 .22299195 .12820435L.31900025 .4970703 .31399537 .50205996 .13198853 .47375489 .12599182 .4497528 .18798828 .44476319C.21199036 .44276429 .21099854 .42778016 .20298767 .39682008L.13398743 .13316345C.11299133 .053253175 .12098694-.01171875 .20098877-.01171875 .29699708-.01171875 .4019928 .09420776 .46199037 .21005249H.46398927L.43099977 .096206668C.4119873 .029266358 .42399598-.01171875 .47698976-.01171875 .548996-.01171875 .60899356 .057250978 .6439972 .13116455L.6199951 .14613343C.59999087 .11218262 .55599978 .040267946 .5279999 .040267946 .5069885 .040267946 .5069885 .06324768 .5149994 .09420776L.621994 .5019531 .5329895 .48995973Z"/>
<path id="font_2_1" d="M.1749878 .2822113C.1749878 .56832888 .2619934 .65437319 .32499696 .66737368V.6923828C.1499939 .685379 .10499573 .46829225 .10499573 .2822113 .10499573 .09614563 .1499939-.12094116 .32499696-.12792969V-.10293579C.2669983-.090927127 .1749878-.0059051516 .1749878 .2822113Z"/>
<path id="font_2_2" d="M.1749878 .2822113C.1749878-.0059051516 .08299255-.090927127 .024993897-.10293579V-.12792969C.19999695-.12094116 .24499512 .09614563 .24499512 .2822113 .24499512 .46829225 .19999695 .685379 .024993897 .6923828V.66737368C.08799744 .65437319 .1749878 .56832888 .1749878 .2822113Z"/>
<path id="font_3_2" d="M.6349945 .14315796V.20117188H.084991458V.14315796H.6349945M.6349945 .36288453V.42089845H.084991458V.36288453H.6349945Z"/>
<path id="font_2_15" d="M.18998719 .7480469C.13999939 .7020416 .07199097 .6350403 .07199097 .56404116 .07199097 .5100403 .10398865 .47703553 .13699341 .4780426 .16699219 .4780426 .18499756 .4990387 .18499756 .5260315 .18499756 .56204226 .1519928 .58303835 .1519928 .6200409 .1519928 .6580353 .17599488 .6960449 .20698548 .7320404L.18998719 .7480469M.36999513 .7480469C.31999208 .7020416 .2519989 .6350403 .2519989 .56404116 .2519989 .5100403 .28399659 .47703553 .31698609 .4780426 .34700013 .4780426 .36499024 .4990387 .36499024 .5260315 .36499024 .56204226 .33198548 .58303835 .33198548 .6200409 .33198548 .6580353 .35598756 .6960449 .3869934 .7320404L.36999513 .7480469Z"/>
<path id="font_2_13" d="M.28799439 .5019531C.12799073 .5019531 .04899597 .40698243 .04899597 .24510193 .04899597 .083236698 .12799073-.01171875 .28799439-.01171875 .44999696-.01171875 .5279999 .083236698 .5279999 .24510193 .5279999 .40698243 .44999696 .5019531 .28799439 .5019531M.15299988 .24510193C.15299988 .38301087 .19699097 .46694947 .28799439 .46694947 .3809967 .46694947 .42399598 .38301087 .42399598 .24510193 .42399598 .10720825 .3809967 .023269654 .28799439 .023269654 .19699097 .023269654 .15299988 .10720825 .15299988 .24510193Z"/>
<path id="font_2_10" d="M.20098877 .45022584H.32299806V.49023438H.20098877L.19699097 .60220339C.19400025 .6971741 .22898865 .70718386 .24499512 .70718386 .2659912 .70718386 .28799439 .6971741 .31298829 .6391907 .31799317 .62919619 .32499696 .6221924 .33999635 .6221924 .3600006 .6221924 .3889923 .6391907 .3889923 .66918948 .3889923 .70217898 .34700013 .7421875 .2669983 .7421875 .21199036 .7421875 .16499329 .71717837 .13999939 .67918398 .116989139 .64419558 .10699463 .5912018 .10699463 .5252228V.49023438H.02999878V.45022584H.10699463V.087020877C.10699463 .035995485 .10398865 .033996583 .03199768 .0289917V0H.29599V.0289917C.20498657 .032989503 .20098877 .034988405 .20098877 .08602905V.45022584Z"/>
<path id="font_2_16" d="M.08898926 .47218324C.13899231 .5181732 .20698548 .58517459 .20698548 .6561737 .20698548 .71017459 .1749878 .7431793 .14199829 .7421875 .11199951 .7421875 .09399414 .72117617 .09399414 .69418337 .09399414 .6581726 .1269989 .6371765 .1269989 .60017397 .1269989 .56217959 .102996829 .5241852 .07199097 .48817445L.08898926 .47218324M.2689972 .47218324C.31900025 .5181732 .3869934 .58517459 .3869934 .6561737 .3869934 .71017459 .35499574 .7431793 .32199098 .7421875 .2919922 .7421875 .27398683 .72117617 .27398683 .69418337 .27398683 .6581726 .30699159 .6371765 .30699159 .60017397 .30699159 .56217959 .2829895 .5241852 .2519989 .48817445L.2689972 .47218324Z"/>
<path id="font_2_12" d="M.5289917 .34295655C.5289917 .4439392 .47399903 .5019531 .38198854 .5019531 .30799867 .5019531 .2619934 .46594239 .19999695 .4259491L.18598938 .5019531 .036987306 .47694398V.45195008L.07499695 .4469452C.100997928 .4429474 .10699463 .4379425 .10699463 .40194703V.08699036C.10699463 .035995485 .10398865 .033996583 .03199768 .0289917V0H.27598573V.0289917C.20498657 .033996583 .20098877 .035995485 .20098877 .08699036V.32095338C.20098877 .34596253 .20298767 .35995484 .21099854 .37594605 .23199463 .4149475 .2769928 .44795228 .32998658 .44795228 .397995 .44795228 .43499757 .40994264 .43499757 .32295228V.08699036C.43499757 .035995485 .43199159 .033996583 .3600006 .0289917V0H.60398867V.0289917C.5329895 .033996583 .5289917 .035995485 .5289917 .08699036V.34295655Z"/>
<path id="font_2_14" d="M.36698915 .35102845V.46794129C.33399964 .49194337 .2829895 .5019531 .23799134 .5019531 .12998963 .5019531 .056991579 .45095826 .055999757 .35603334 .056991579 .27308656 .12399292 .2361145 .20698548 .21113587 .2519989 .19714356 .31498719 .17416382 .31498719 .10621643 .31498719 .055252077 .2749939 .023269654 .22200012 .023269654 .14099121 .023269654 .09599304 .082229617 .07598877 .16716004H.04699707L.056991579 .03627014C.09298706 .004272461 .1539917-.01171875 .21299744-.01171875 .33198548-.01171875 .3999939 .051254274 .3999939 .13618469 .3999939 .2241211 .34599305 .26409913 .24299622 .29606629 .20199585 .30906678 .13598633 .3300476 .13598633 .3860016 .13699341 .43795777 .17599488 .46694947 .22599793 .46694947 .29699708 .46694947 .33099366 .4119873 .33799745 .35102845H.36698915Z"/>
<path id="font_2_11" d="M.036987306 .47694398V.45195008L.07499695 .4469452C.100997928 .4429474 .10699463 .43795777 .10699463 .40194703V.08699036C.10699463 .035995485 .10398865 .033996583 .03199768 .0289917V0H.27598573V.0289917C.20498657 .033996583 .20098877 .035995485 .20098877 .08699036V.49609376L.19400025 .5020752 .036987306 .47694398M.15299988 .71484377C.116989139 .71484377 .09199524 .6888428 .09199524 .65283206 .09199524 .61782839 .116989139 .5928345 .15299988 .5928345 .18998719 .5928345 .21299744 .61782839 .21398926 .65283206 .21398926 .6888428 .18998719 .71484377 .15299988 .71484377Z"/>
<path id="font_3_1" d="M.07998657 .28173829C.07998657 .24674988 .10798645 .21875 .14299011 .21875 .17799378 .21875 .20599365 .24674988 .20599365 .28173829 .20599365 .31674195 .17799378 .34474183 .14299011 .34474183 .10798645 .34474183 .07998657 .31674195 .07998657 .28173829Z"/>
</defs>
<path transform="matrix(1.00005,0,0,-1.00006,24.320664,41.064683)" d="M-19.84267-39.68535V39.68535H59.52802V-39.68535ZM59.52802 39.68535" fill="#d9d9ff"/>
<path transform="matrix(1.00005,0,0,-1.00006,24.320664,41.064683)" d="M59.52802-39.68535V39.68535H99.2134V-39.68535ZM99.2134 39.68535" fill="#d9f0d9"/>
<path transform="matrix(1.00005,0,0,-1.00006,24.320664,41.064683)" stroke-width=".3985" stroke-linecap="butt" stroke-miterlimit="10" stroke-linejoin="miter" fill="none" stroke="#000000" d="M-19.84267 0H98.75511"/>
<path transform="matrix(1.00005,0,0,-1.00006,123.08071,41.064683)" stroke-width=".31879" stroke-linecap="round" stroke-linejoin="round" fill="none" stroke="#000000" d="M-1.19551 1.59401C-1.09587 .99626 0 .09961 .29886 0 0-.09961-1.09587-.99626-1.19551-1.59401"/>
<path transform="matrix(1.00005,0,0,-1.00006,24.320664,41.064683)" stroke-width=".3985" stroke-linecap="butt" stroke-miterlimit="10" stroke-linejoin="miter" fill="none" stroke="#000000" d="M0-39.68535V39.22707"/>
<path transform="matrix(0,-1.00006,-1.00005,-0,24.320664,1.8352585)" stroke-width=".31879" stroke-linecap="round" stroke-linejoin="round" fill="none" stroke="#000000" d="M-1.19551 1.59401C-1.09587 .99626 0 .09961 .29886 0 0-.09961-1.09587-.99626-1.19551-1.59401"/>
<use data-text="t" xlink:href="#font_1_1" transform="matrix(7.332866,0,0,-7.3329398,119.99144,48.983156)"/>
<path transform="matrix(1.00005,0,0,-1.00006,24.320664,41.064683)" stroke-width=".3985" stroke-linecap="butt" stroke-miterlimit="10" stroke-linejoin="miter" fill="none" stroke="#929292" d="M-19.84267 1.98438V-1.98438"/>
<use data-text="-" xlink:href="#font_2_3" transform="matrix(7.332866,0,0,-7.3329398,1.0935059,50.961275)"/>
<use data-text="1" xlink:href="#font_2_5" transform="matrix(7.332866,0,0,-7.3329398,3.9679948,50.961275)"/>
<path transform="matrix(1.00005,0,0,-1.00006,24.320664,41.064683)" stroke-width=".3985" stroke-linecap="butt" stroke-miterlimit="10" stroke-linejoin="miter" fill="none" stroke="#929292" d="M0 1.98438V-1.98438"/>
<use data-text="0" xlink:href="#font_2_4" transform="matrix(7.332866,0,0,-7.3329398,22.375565,50.961275)"/>
<path transform="matrix(1.00005,0,0,-1.00006,24.320664,41.064683)" stroke-width=".3985" stroke-linecap="butt" stroke-miterlimit="10" stroke-linejoin="miter" fill="none" stroke="#929292" d="M19.84267 1.98438V-1.98438"/>
<use data-text="1" xlink:href="#font_2_5" transform="matrix(7.332866,0,0,-7.3329398,42.21956,50.961275)"/>
<path transform="matrix(1.00005,0,0,-1.00006,24.320664,41.064683)" stroke-width=".3985" stroke-linecap="butt" stroke-miterlimit="10" stroke-linejoin="miter" fill="none" stroke="#929292" d="M39.68535 1.98438V-1.98438"/>
<use data-text="2" xlink:href="#font_2_6" transform="matrix(7.332866,0,0,-7.3329398,62.06355,50.961275)"/>
<path transform="matrix(1.00005,0,0,-1.00006,24.320664,41.064683)" stroke-width=".3985" stroke-linecap="butt" stroke-miterlimit="10" stroke-linejoin="miter" fill="none" stroke="#929292" d="M59.52802 1.98438V-1.98438"/>
<use data-text="3" xlink:href="#font_2_7" transform="matrix(7.332866,0,0,-7.3329398,81.90654,50.961275)"/>
<path transform="matrix(1.00005,0,0,-1.00006,24.320664,41.064683)" stroke-width=".3985" stroke-linecap="butt" stroke-miterlimit="10" stroke-linejoin="miter" fill="none" stroke="#929292" d="M79.37071 1.98438V-1.98438"/>
<use data-text="4" xlink:href="#font_2_8" transform="matrix(7.332866,0,0,-7.3329398,101.750537,50.961275)"/>
<path transform="matrix(1.00005,0,0,-1.00006,24.320664,41.064683)" stroke-width=".3985" stroke-linecap="butt" stroke-miterlimit="10" stroke-linejoin="miter" fill="none" stroke="#929292" d="M99.2134 1.98438V-1.98438"/>
<use data-text="5" xlink:href="#font_2_9" transform="matrix(7.332866,0,0,-7.3329398,121.59452,50.961275)"/>
<path transform="matrix(1.00005,0,0,-1.00006,24.320664,41.064683)" stroke-width="1.19553" stroke-linecap="butt" stroke-miterlimit="10" stroke-linejoin="miter" fill="none" stroke="#0000ff" d="M-19.84267 0H-19.44905-19.05545-18.66183-18.26822-17.87463-17.481-17.08742-16.6938-16.30019-15.90659-15.51297-15.11937-14.72575-14.33215-13.93855-13.54492-13.15134-12.75772-12.3641-11.9705-11.57689-11.18329-10.78967-10.39607-10.00246-9.60886-9.21526-8.82164-8.42802-8.03444-7.64081-7.24721-6.8536-6.45999-6.06639-5.67278-5.27917-4.88556-4.49194-4.09836-3.70473-3.31114-2.91753-2.52391-2.13031-1.7367-1.3431-.94948-.55588-.16226 .2313 .62491 1.01852 1.41212 1.80573 2.19934 2.59294 2.98656 3.38017 3.77376 4.16737 4.56099 4.95459 5.3482 5.7418 6.13542 6.529 6.92264 7.31625 7.70984 8.10345 8.49706 8.89067 9.28429 9.67789 10.0715 10.46509 10.85872 11.25232 11.64592 12.03954 12.43314 12.82675 13.22037 13.61397 14.00757 14.40118 14.79478 15.1884 15.582 15.97562 16.36922 16.76283 17.15645 17.55003 17.94365 18.33725 18.73087 19.12448 19.51808 19.9117 20.30528 20.69891 21.09251 21.48611 21.87975 22.27333 22.66695 23.06056 23.45416 23.84776 24.24138 24.635 25.0286 25.4222 25.81581 26.20943 26.60303 26.99664 27.39023 27.78384 28.17747 28.57106 28.96468 29.35828 29.75189 30.1455 30.53911 30.93272 31.32631 31.71994 32.11354 32.50714 32.90076 33.29436 33.68797 34.08159 34.47519 34.86879 35.26239 35.656 36.04962 36.44322 36.83684 37.23044 37.62404 38.01767 38.41125 38.80487 39.19847 39.59209 39.9857 40.3793 40.77292 41.1665 41.56012 41.95374 42.34734 42.74095 43.13455 43.52817 43.92178 44.31538 44.70898 45.10258 45.49622 45.88982 46.28342 46.67703 47.07063 47.46423 47.85786 48.25146 48.64507 49.03867 49.43228 49.8259 50.2195 50.61311 51.0067 51.40031 51.79395 52.18753 52.58115 52.97475 53.36836 53.76196 54.15558 54.5492 54.94278 55.33641 55.73001 56.12361 56.51723 56.91083 57.30444 57.69806 58.09166 58.48526"/>
<path transform="matrix(1.00005,0,0,-1.00006,24.320664,41.064683)" stroke-width=".79701" stroke-linecap="butt" stroke-dasharray="2.98883,2.98883" stroke-miterlimit="10" stroke-linejoin="miter" fill="none" stroke="#8080ff" d="M-19.84267-16.69621-19.44905-16.48033-19.05545-16.2581-18.66183-16.02951-18.26822-15.79425-17.87463-15.55234-17.481-15.30496-17.08742-15.05154-16.6938-14.79237-16.30019-14.52745-15.90659-14.25645-15.51297-13.97972-15.11937-13.69724-14.72575-13.4099-14.33215-13.11711-13.93855-12.81949-13.54492-12.51671-13.15134-12.20909-12.75772-11.89632-12.3641-11.5787-11.9705-11.25687-11.57689-10.93076-11.18329-10.59984-10.78967-10.26526-10.39607-9.92647-10.00246-9.58372-9.60886-9.23705-9.21526-8.88704-8.82164-8.5331-8.42802-8.17642-8.03444-7.81612-7.64081-7.4531-7.24721-7.08673-6.8536-6.71796-6.45999-6.34615-6.06639-5.97191-5.67278-5.59557-5.27917-5.21649-4.88556-4.8356-4.49194-4.4532-4.09836-4.06898-3.70473-3.68295-3.31114-3.29538-2.91753-2.90663-2.52391-2.51665-2.13031-2.12576-1.7367-1.73428-1.3431-1.34189-.94948-.94858-.55588-.55528-.16226-.16226 .2313 .2313 .62491 .62431 1.01852 1.01761 1.41212 1.4109 1.80573 1.8027 2.19934 2.19449 2.59294 2.58507 2.98656 2.97475 3.38017 3.36351 3.77376 3.75076 4.16737 4.13649 4.56099 4.52042 4.95459 4.90283 5.3482 5.28311 5.7418 5.66158 6.13542 6.03793 6.529 6.41154 6.92264 6.78305 7.31625 7.15123 7.70984 7.51668 8.10345 7.87941 8.49706 8.2391 8.89067 8.59546 9.28429 8.9488 9.67789 9.29851 10.0715 9.64458 10.46509 9.98611 10.85872 10.324 11.25232 10.65828 11.64592 10.98799 12.03954 11.31378 12.43314 11.63472 12.82675 11.95143 13.22037 12.26329 13.61397 12.57 14.00757 12.87187 14.40118 13.16919 14.79478 13.46107 15.1884 13.7475 15.582 14.02907 15.97562 14.3046 16.36922 14.57376 16.76283 14.8378 17.15645 15.09666 17.55003 15.34886 17.94365 15.59532 18.33725 15.83603 18.73087 16.07008 19.12448 16.29745 19.51808 16.5188 19.9117 16.73315 20.30528 16.94145 20.69891 17.14342 21.09251 17.33809 21.48611 17.52643 21.87975 17.70718 22.27333 17.88097 22.66695 18.04811 23.06056 18.20798 23.45416 18.36119 23.84776 18.50682 24.24138 18.64548 24.635 18.77629 25.0286 18.89952 25.4222 19.01517 25.81581 19.12387 26.20943 19.2253 26.60303 19.31885 26.99664 19.40515 27.39023 19.48358 27.78384 19.55382 28.17747 19.61649 28.57106 19.6719 28.96468 19.71942 29.35828 19.7591 29.75189 19.79149 30.1455 19.81601 30.53911 19.83206 30.93272 19.84053 31.32631 19.84114 31.71994 19.83388 32.11354 19.81935 32.50714 19.79665 32.90076 19.76666 33.29436 19.72821 33.68797 19.68219 34.08159 19.6283 34.47519 19.56682 34.86879 19.4978 35.26239 19.42119 35.656 19.33702 36.04962 19.24498 36.44322 19.14507 36.83684 19.03758 37.23044 18.92282 37.62404 18.80112 38.01767 18.67152 38.41125 18.53497 38.80487 18.39085 39.19847 18.23917 39.59209 18.0805 39.9857 17.91489 40.3793 17.742 40.77292 17.56245 41.1665 17.37625 41.56012 17.18309 41.95374 16.98233 42.34734 16.77554 42.74095 16.56178 43.13455 16.34196 43.52817 16.1155 43.92178 15.88326 44.31538 15.64407 44.70898 15.39883 45.10258 15.14754 45.49622 14.89017 45.88982 14.62706 46.28342 14.3582 46.67703 14.08386 47.07063 13.80441 47.46423 13.51889 47.85786 13.22792 48.25146 12.93181 48.64507 12.63055 49.03867 12.32475 49.43228 12.0138 49.8259 11.6983 50.2195 11.37828 50.61311 11.0537 51.0067 10.72458 51.40031 10.39124 51.79395 10.05392 52.18753 9.7127 52.58115 9.36754 52.97475 9.01906 53.36836 8.66663 53.76196 8.31055 54.15558 7.95146 54.5492 7.58936 54.94278 7.2242 55.33641 6.85632 55.73001 6.48573 56.12361 6.1127 56.51723 5.73668 56.91083 5.3588 57.30444 4.9788 57.69806 4.59671 58.09166 4.2131 58.48526 3.82767"/>
<path transform="matrix(1.00005,0,0,-1.00006,24.320664,41.064683)" stroke-width="1.19553" stroke-linecap="butt" stroke-miterlimit="10" stroke-linejoin="miter" fill="none" stroke="#009900" d="M59.52802 2.80005 59.72725 2.60233 59.92647 2.40494 60.1257 2.20691 60.32492 2.00888 60.52414 1.81058 60.72339 1.61226 60.9226 1.41364 61.12183 1.21472 61.32106 1.0158 61.52028 .81657 61.71951 .61763 61.91873 .41872 62.11795 .2195 62.31718 .02028 62.5164-.17862 62.71564-.37785 62.91487-.57706 63.11409-.77599 63.31331-.97491 63.51256-1.17413 63.71178-1.37306 63.911-1.57138 64.11021-1.77 64.30943-1.96802 64.50868-2.16634 64.7079-2.36406 64.90712-2.56207 65.10635-2.75948 65.30557-2.95657 65.50482-3.15338 65.70404-3.34988 65.90326-3.54608 66.10248-3.74197 66.3017-3.93756 66.50095-4.13255 66.70016-4.32695 66.89938-4.52132 67.09862-4.7148 67.29784-4.90826 67.49707-5.10114 67.6963-5.2934 67.89552-5.48537 68.09474-5.6761 68.29396-5.86685 68.4932-6.057 68.69243-6.24625 68.89165-6.43515 69.09087-6.62318 69.29012-6.8109 69.48933-6.99742 69.68855-7.18362 69.88779-7.36893 70.08699-7.55331 70.28624-7.73741 70.48546-7.92029 70.68468-8.10254 70.88391-8.28423 71.08313-8.46466 71.28236-8.64421 71.4816-8.82317 71.68082-9.0015 71.88004-9.17801 72.07927-9.3545 72.27849-9.52953 72.47772-9.70422 72.67694-9.87741 72.87616-10.0494 73.0754-10.22105 73.27463-10.39093 73.47385-10.56017 73.67308-10.72852 73.8723-10.89534 74.07153-11.06126 74.27075-11.22598 74.46997-11.39008 74.6692-11.55206 74.86842-11.71375 75.06766-11.87392 75.26689-12.03317 75.46611-12.19093 75.66534-12.34715 75.86456-12.50308 76.0638-12.6569 76.26303-12.80978 76.46223-12.96118 76.66147-13.11105 76.86069-13.26033 77.05992-13.40747 77.25916-13.55402 77.45837-13.69844 77.6576-13.84195 77.85683-13.98396 78.05606-14.12474 78.25528-14.26433 78.4545-14.40147 78.65372-14.53804 78.85295-14.67247 79.05219-14.80598 79.2514-14.938 79.45064-15.06819 79.64986-15.19748 79.84909-15.32434 80.04832-15.45059 80.24754-15.57443 80.44676-15.69736 80.64598-15.81847 80.84521-15.93776 81.04445-16.05585 81.24367-16.17151 81.44289-16.28658 81.64212-16.3995 81.84135-16.51062 82.04057-16.62083 82.2398-16.72833 82.43903-16.83519 82.63824-16.93906 82.83748-17.04199 83.0367-17.14311 83.23593-17.24243 83.43515-17.34053 83.63437-17.4362 83.83362-17.53098 84.03284-17.62271 84.23206-17.71355 84.43129-17.80255 84.63051-17.88945 84.82974-17.97543 85.02896-18.05841 85.22818-18.14017 85.42741-18.21947 85.62665-18.29759 85.82587-18.3739 86.0251-18.44777 86.22432-18.52075 86.42355-18.59099 86.62279-18.66002 86.822-18.72664 87.02122-18.79172 87.22044-18.8547 87.41968-18.91556 87.61891-18.9752 87.81813-19.03181 88.01736-19.08754 88.21658-19.14084 88.4158-19.19229 88.61505-19.24255 88.81427-19.28947 89.01349-19.33551 89.2127-19.3791 89.41193-19.4209 89.61118-19.46086 89.8104-19.49841 90.00961-19.53505 90.20885-19.56834 90.40807-19.60074 90.6073-19.63011 90.80653-19.65857 91.00575-19.68462 91.20497-19.70854 91.4042-19.73093 91.60342-19.7503 91.80266-19.76909 92.00188-19.78453 92.2011-19.79877 92.40034-19.81088 92.59956-19.82086 92.79878-19.82964 92.99802-19.8351 93.19722-19.83992 93.39647-19.84145 93.59569-19.84175 93.7949-19.83992 93.99414-19.83571 94.19336-19.83025 94.3926-19.82176 94.59183-19.81238 94.79105-19.79997 94.99026-19.78604 95.1895-19.7706 95.38872-19.75214 95.58795-19.73306 95.78717-19.71095 95.98639-19.68733 96.18562-19.66129 96.38486-19.63313 96.58409-19.60376 96.78331-19.57167 96.98253-19.53897 97.18178-19.50235 97.38098-19.4651 97.58022-19.42513 97.77943-19.38335 97.97865-19.34035 98.1779-19.29434 98.37712-19.2474 98.57634-19.19775 98.77557-19.14627 98.9748-19.09299 99.17403-19.03789"/>
<path transform="matrix(1.00005,0,0,-1.00006,24.320664,41.064683)" stroke-width=".79701" stroke-linecap="butt" stroke-dasharray="2.98883,2.98883" stroke-miterlimit="10" stroke-linejoin="miter" fill="none" stroke="#80cc80" d="M59.52802 19.84267H59.72725 59.92647 60.1257 60.32492 60.52414 60.72339 60.9226 61.12183 61.32106 61.52028 61.71951 61.91873 62.11795 62.31718 62.5164 62.71564 62.91487 63.11409 63.31331 63.51256 63.71178 63.911 64.11021 64.30943 64.50868 64.7079 64.90712 65.10635 65.30557 65.50482 65.70404 65.90326 66.10248 66.3017 66.50095 66.70016 66.89938 67.09862 67.29784 67.49707 67.6963 67.89552 68.09474 68.29396 68.4932 68.69243 68.89165 69.09087 69.29012 69.48933 69.68855 69.88779 70.08699 70.28624 70.48546 70.68468 70.88391 71.08313 71.28236 71.4816 71.68082 71.88004 72.07927 72.27849 72.47772 72.67694 72.87616 73.0754 73.27463 73.47385 73.67308 73.8723 74.07153 74.27075 74.46997 74.6692 74.86842 75.06766 75.26689 75.46611 75.66534 75.86456 76.0638 76.26303 76.46223 76.66147 76.86069 77.05992 77.25916 77.45837 77.6576 77.85683 78.05606 78.25528 78.4545 78.65372 78.85295 79.05219 79.2514 79.45064 79.64986 79.84909 80.04832 80.24754 80.44676 80.64598 80.84521 81.04445 81.24367 81.44289 81.64212 81.84135 82.04057 82.2398 82.43903 82.63824 82.83748 83.0367 83.23593 83.43515 83.63437 83.83362 84.03284 84.23206 84.43129 84.63051 84.82974 85.02896 85.22818 85.42741 85.62665 85.82587 86.0251 86.22432 86.42355 86.62279 86.822 87.02122 87.22044 87.41968 87.61891 87.81813 88.01736 88.21658 88.4158 88.61505 88.81427 89.01349 89.2127 89.41193 89.61118 89.8104 90.00961 90.20885 90.40807 90.6073 90.80653 91.00575 91.20497 91.4042 91.60342 91.80266 92.00188 92.2011 92.40034 92.59956 92.79878 92.99802 93.19722 93.39647 93.59569 93.7949 93.99414 94.19336 94.3926 94.59183 94.79105 94.99026 95.1895 95.38872 95.58795 95.78717 95.98639 96.18562 96.38486 96.58409 96.78331 96.98253 97.18178 97.38098 97.58022 97.77943 97.97865 98.1779 98.37712 98.57634 98.77557 98.9748 99.17403"/>
<path transform="matrix(1.00005,0,0,-1.00006,24.320664,41.064683)" stroke-width=".79701" stroke-linecap="butt" stroke-miterlimit="10" stroke-linejoin="miter" fill="none" stroke="#0000ff" d="M61.6202 0C61.6202 1.15549 60.6835 2.09216 59.52802 2.09216 58.37253 2.09216 57.43585 1.15549 57.43585 0 57.43585-1.15549 58.37253-2.09216 59.52802-2.09216 60.6835-2.09216 61.6202-1.15549 61.6202 0ZM59.52802 0"/>
<path transform="matrix(1.00005,0,0,-1.00006,24.320664,41.064683)" d="M61.6202 2.80005C61.6202 3.95554 60.6835 4.89221 59.52802 4.89221 58.37253 4.89221 57.43585 3.95554 57.43585 2.80005 57.43585 1.64456 58.37253 .70787 59.52802 .70787 60.6835 .70787 61.6202 1.64456 61.6202 2.80005ZM59.52802 2.80005" fill="#009900"/>
<use data-text="u" xlink:href="#font_1_2" transform="matrix(7.332866,0,0,-7.3329398,31.46202,6.988636)" fill="#0000ff"/>
<use data-text="(" xlink:href="#font_2_1" transform="matrix(7.332866,0,0,-7.3329398,36.395265,6.988636)" fill="#0000ff"/>
<use data-text="t" xlink:href="#font_1_1" transform="matrix(7.332866,0,0,-7.3329398,39.1214,6.988636)" fill="#0000ff"/>
<use data-text=")" xlink:href="#font_2_2" transform="matrix(7.332866,0,0,-7.3329398,42.405565,6.988636)" fill="#0000ff"/>
<use data-text="=" xlink:href="#font_3_2" transform="matrix(7.332866,0,0,-7.3329398,46.335756,6.988636)" fill="#0000ff"/>
<use data-text="0" xlink:href="#font_2_4" transform="matrix(7.332866,0,0,-7.3329398,52.97609,6.988636)" fill="#0000ff"/>
<use data-text="u" xlink:href="#font_1_2" transform="matrix(7.332866,0,0,-7.3329398,90.99299,6.988636)" fill="#009900"/>
<use data-text="(" xlink:href="#font_2_1" transform="matrix(7.332866,0,0,-7.3329398,95.92623,6.988636)" fill="#009900"/>
<use data-text="t" xlink:href="#font_1_1" transform="matrix(7.332866,0,0,-7.3329398,98.65237,6.988636)" fill="#009900"/>
<use data-text=")" xlink:href="#font_2_2" transform="matrix(7.332866,0,0,-7.3329398,101.93653,6.988636)" fill="#009900"/>
<use data-text="=" xlink:href="#font_3_2" transform="matrix(7.332866,0,0,-7.3329398,105.86672,6.988636)" fill="#009900"/>
<use data-text="1" xlink:href="#font_2_5" transform="matrix(7.332866,0,0,-7.3329398,112.50706,6.988636)" fill="#009900"/>
<use data-text="&#x201c;" xlink:href="#font_2_15" transform="matrix(7.332866,0,0,-7.3329398,36.41327,77.31386)" fill="#0000ff"/>
<use data-text="o" xlink:href="#font_2_13" transform="matrix(7.332866,0,0,-7.3329398,39.18509,77.31386)" fill="#0000ff"/>
<use data-text="f" xlink:href="#font_2_10" transform="matrix(7.332866,0,0,-7.3329398,43.416154,77.31386)" fill="#0000ff"/>
<use data-text="f" xlink:href="#font_2_10" transform="matrix(7.332866,0,0,-7.3329398,45.755334,77.31386)" fill="#0000ff"/>
<use data-text="&#x201d;" xlink:href="#font_2_16" transform="matrix(7.332866,0,0,-7.3329398,48.55648,77.31386)" fill="#0000ff"/>
<use data-text="&#x201c;" xlink:href="#font_2_15" transform="matrix(7.332866,0,0,-7.3329398,96.54527,77.31386)" fill="#009900"/>
<use data-text="o" xlink:href="#font_2_13" transform="matrix(7.332866,0,0,-7.3329398,99.31709,77.31386)" fill="#009900"/>
<use data-text="n" xlink:href="#font_2_12" transform="matrix(7.332866,0,0,-7.3329398,103.54816,77.31386)" fill="#009900"/>
<use data-text="&#x201d;" xlink:href="#font_2_16" transform="matrix(7.332866,0,0,-7.3329398,107.49324,77.31386)" fill="#009900"/>
<use data-text="(" xlink:href="#font_2_1" transform="matrix(7.332866,0,0,-7.3329398,44.47467,27.35286)"/>
<use data-text="s" xlink:href="#font_2_14" transform="matrix(7.332866,0,0,-7.3329398,47.040803,27.286856)"/>
<use data-text="i" xlink:href="#font_2_11" transform="matrix(7.332866,0,0,-7.3329398,50.23793,27.286856)"/>
<use data-text="n" xlink:href="#font_2_12" transform="matrix(7.332866,0,0,-7.3329398,52.371797,27.286856)"/>
<use data-text="t" xlink:href="#font_1_1" transform="matrix(7.332866,0,0,-7.3329398,57.847337,27.286856)"/>
<use data-text=")" xlink:href="#font_2_2" transform="matrix(7.332866,0,0,-7.3329398,61.1305,27.35286)"/>
<use data-text="(" xlink:href="#font_2_1" transform="matrix(7.332866,0,0,-7.3329398,84.16165,27.35286)"/>
<use data-text="s" xlink:href="#font_2_14" transform="matrix(7.332866,0,0,-7.3329398,86.72778,27.286856)"/>
<use data-text="i" xlink:href="#font_2_11" transform="matrix(7.332866,0,0,-7.3329398,89.92491,27.286856)"/>
<use data-text="n" xlink:href="#font_2_12" transform="matrix(7.332866,0,0,-7.3329398,92.05878,27.286856)"/>
<use data-text="t" xlink:href="#font_1_1" transform="matrix(7.332866,0,0,-7.3329398,97.53432,27.286856)"/>
<use data-text=")" xlink:href="#font_2_2" transform="matrix(7.332866,0,0,-7.3329398,100.81749,27.35286)"/>
<use data-text="&#x00b7;" xlink:href="#font_3_1" transform="matrix(7.332866,0,0,-7.3329398,31.277012,27.227852)" fill="#0000ff"/>
<use data-text="0" xlink:href="#font_2_4" transform="matrix(7.332866,0,0,-7.3329398,33.317113,27.227852)" fill="#0000ff"/>
<use data-text="&#x00b7;" xlink:href="#font_3_1" transform="matrix(7.332866,0,0,-7.3329398,110.65198,27.247853)" fill="#009900"/>
<use data-text="1" xlink:href="#font_2_5" transform="matrix(7.332866,0,0,-7.3329398,112.69208,27.247853)" fill="#009900"/>
<path transform="matrix(1.00005,0,0,-1.00006,24.320664,41.064683)" stroke-width=".3985" stroke-linecap="butt" stroke-miterlimit="10" stroke-linejoin="miter" fill="none" stroke="#000000" d="M9.92133 9.92133V1.45045"/>
<path transform="matrix(0,1.00006,1.00005,0,34.24249,39.614145)" stroke-width=".31879" stroke-linecap="round" stroke-linejoin="round" fill="none" stroke="#000000" d="M-1.19551 1.59401C-1.09587 .99626 0 .09961 .29886 0 0-.09961-1.09587-.99626-1.19551-1.59401"/>
<path transform="matrix(1.00005,0,0,-1.00006,24.320664,41.064683)" stroke-width=".3985" stroke-linecap="butt" stroke-miterlimit="10" stroke-linejoin="miter" fill="none" stroke="#000000" d="M89.29204 10.91353V-7.47865"/>
<path transform="matrix(0,1.00006,1.00005,0,113.617168,48.54378)" stroke-width=".31879" stroke-linecap="round" stroke-linejoin="round" fill="none" stroke="#000000" d="M-1.19551 1.59401C-1.09587 .99626 0 .09961 .29886 0 0-.09961-1.09587-.99626-1.19551-1.59401"/>
</svg>
