<svg xmlns="http://www.w3.org/2000/svg" xmlns:xlink="http://www.w3.org/1999/xlink" version="1.1" width="156" height="106" viewBox="0 0 156 106">
<defs>
<path id="font_1_1" d="M.43199159 .49023438H.3019867L.32998658 .6031952C.34899903 .67918398 .36799623 .70718386 .3959961 .70718386 .4229889 .70718386 .44099427 .68518069 .46299745 .6371918 .46798707 .62719729 .47499085 .6201935 .48999024 .6201935 .5099945 .6201935 .5389862 .6391907 .5389862 .6641846 .5389862 .70718386 .4850006 .7421875 .4249878 .7421875 .3600006 .7421875 .31799317 .71517947 .2849884 .67318728 .2539978 .63420107 .23399353 .5802002 .21998596 .5272217L.20999146 .49023438H.12298584L.11199951 .45222474H.20098877L.084991458-.137146C.07299805-.19918823 .06298828-.2052002 .052993776-.2052002 .041992189-.2052002 .026992798-.19718933 0-.15615845-.007003784-.14616394-.014007568-.13415528-.027008057-.13415528-.04901123-.13415528-.072006229-.15916443-.072006229-.18418885-.071014408-.2171936-.028015137-.2421875 .018997193-.2421875 .11898804-.2421875 .16099549-.16116333 .20298767 .030960083L.29599 .45222474H.42199708L.43199159 .49023438Z"/>
<path id="font_2_1" d="M.1749878 .2822113C.1749878 .56832888 .2619934 .65437319 .32499696 .66737368V.6923828C.1499939 .685379 .10499573 .46829225 .10499573 .2822113 .10499573 .09614563 .1499939-.12094116 .32499696-.12792969V-.10293579C.2669983-.090927127 .1749878-.0059051516 .1749878 .2822113Z"/>
<path id="font_1_3" d="M.070999149 .45393373 .07398987 .42893983 .14199829 .43093873C.1639862 .43193055 .16899109 .41493226 .1769867 .36291505 .18798828 .28489686 .20999146 .09286499 .20999146 .0128479 .20999146-.017166138 .20799256-.058166505 .18598938-.11117554 .16799927-.15318299 .14199829-.18218994 .12199402-.18218994 .10699463-.18218994 .09599304-.17118836 .08099365-.15118408 .068984989-.13517761 .06098938-.127182 .04598999-.127182 .019989014-.12818909-.005004883-.15818787-.005004883-.18719483-.005004883-.21418762 .023986817-.2421875 .067993167-.2421875 .15299988-.2421875 .18998719-.17919922 .27799989-.027160645 .2979889 .0068511965 .35798646 .11286926 .41999818 .21488953 .47698976 .30891419 .5399933 .40592958 .5399933 .4459381 .5399933 .48094178 .5289917 .5019531 .5219879 .5019531 .5029907 .5019531 .46899415 .49394227 .44400025 .47694398 .44499208 .4419403 .44299317 .3809204 .43099977 .33891297 .4149933 .28289796 .35598756 .17488098 .2899933 .06085205H.2869873C.27999879 .21388245 .26098634 .42492677 .24699402 .49795533L.23899842 .5019531 .070999149 .45393373Z"/>
<path id="font_2_2" d="M.1749878 .2822113C.1749878-.0059051516 .08299255-.090927127 .024993897-.10293579V-.12792969C.19999695-.12094116 .24499512 .09614563 .24499512 .2822113 .24499512 .46829225 .19999695 .685379 .024993897 .6923828V.66737368C.08799744 .65437319 .1749878 .56832888 .1749878 .2822113Z"/>
<path id="font_2_12" d="M.036987306 .47694398V.45195008L.07499695 .4469452C.100997928 .4429474 .10699463 .43795777 .10699463 .40194703V.08699036C.10699463 .035995485 .10398865 .033996583 .03199768 .0289917V0H.27598573V.0289917C.20498657 .033996583 .20098877 .035995485 .20098877 .08699036V.49609376L.19400025 .5020752 .036987306 .47694398M.15299988 .71484377C.116989139 .71484377 .09199524 .6888428 .09199524 .65283206 .09199524 .61782839 .116989139 .5928345 .15299988 .5928345 .18998719 .5928345 .21299744 .61782839 .21398926 .65283206 .21398926 .6888428 .18998719 .71484377 .15299988 .71484377Z"/>
<path id="font_2_14" d="M.5289917 .34295655C.5289917 .4439392 .47399903 .5019531 .38198854 .5019531 .30799867 .5019531 .2619934 .46594239 .19999695 .4259491L.18598938 .5019531 .036987306 .47694398V.45195008L.07499695 .4469452C.100997928 .4429474 .10699463 .4379425 .10699463 .40194703V.08699036C.10699463 .035995485 .10398865 .033996583 .03199768 .0289917V0H.27598573V.0289917C.20498657 .033996583 .20098877 .035995485 .20098877 .08699036V.32095338C.20098877 .34596253 .20298767 .35995484 .21099854 .37594605 .23199463 .4149475 .2769928 .44795228 .32998658 .44795228 .397995 .44795228 .43499757 .40994264 .43499757 .32295228V.08699036C.43499757 .035995485 .43199159 .033996583 .3600006 .0289917V0H.60398867V.0289917C.5329895 .033996583 .5289917 .035995485 .5289917 .08699036V.34295655Z"/>
<path id="font_2_8" d="M.2999878 .040267946C.18099976 .040267946 .15299988 .16418457 .15299988 .25810243 .15299988 .40699769 .21199036 .46694947 .2809906 .46694947 .32699586 .46694947 .35598756 .43397523 .37599183 .38000489 .38198854 .36402894 .3880005 .35403443 .40699769 .35403443 .4269867 .35403443 .46598817 .36701966 .46598817 .40499879 .46598817 .45095826 .3999939 .5019531 .2919922 .5019531 .10998535 .5019531 .04899597 .37301637 .04899597 .2401123 .04899597 .07324219 .1309967-.01171875 .2809906-.01171875 .35099793-.01171875 .44499208 .025268555 .47299195 .13220215L.44400025 .14619446C.41299439 .07624817 .37298585 .040267946 .2999878 .040267946Z"/>
<path id="font_2_17" d="M.18899536 .5019531 .036987306 .47694398V.45195008L.07499695 .4469452C.100997928 .4429474 .10699463 .4379425 .10699463 .40194703V.08699036C.10699463 .035995485 .101989749 .033996583 .03199768 .0289917V0H.29599V.0289917C.20698548 .033996583 .20098877 .035995485 .20098877 .08699036V.32095338C.20098877 .39794923 .23498535 .4239502 .2579956 .4239502 .27398683 .4239502 .29100038 .4179535 .31999208 .40194703 .32699586 .39794923 .33499146 .39694215 .33999635 .39694215 .3639984 .39694215 .38598634 .4219513 .38598634 .4529419 .38598634 .47494508 .37199403 .5019531 .33299256 .5019531 .29699708 .5019531 .2669983 .47994996 .20098877 .4219513L.18899536 .5019531Z"/>
<path id="font_2_10" d="M.44099427 .2627716C.46199037 .2627716 .48098756 .2677765 .48098756 .30078126 .48098756 .35983277 .46199037 .5019531 .2789917 .5019531 .12298584 .5019531 .04899597 .39086915 .04899597 .24082947 .04899597 .08317566 .116989139-.01373291 .27999879-.01171875 .3909912-.010726929 .44799806 .050247194 .47499085 .1290741L.44499208 .14503479C.4169922 .08717346 .3789978 .039276124 .2999878 .039276124 .17599488 .039276124 .15098572 .15901184 .15299988 .2627716H.44099427M.1539917 .30078126C.1539917 .34181214 .16899109 .46694947 .272995 .46694947 .3659973 .46694947 .3769989 .37184144 .3769989 .33280946 .3769989 .31378175 .37098695 .30078126 .34298707 .30078126H.1539917Z"/>
<path id="font_2_7" d="M.34298707 .14318848C.34298707 .06225586 .2809906 .041275026 .24198914 .041275026 .17999268 .041275026 .1499939 .085235599 .1499939 .14419556 .1499939 .19116211 .17199707 .21513367 .22799683 .23612976 .2679901 .2511139 .32099916 .27009584 .34298707 .28408814V.14318848M.43299867 .36901856C.43299867 .42697145 .41999818 .5019531 .2689972 .5019531 .1559906 .5019531 .066986087 .44296266 .066986087 .3880005 .066986087 .35603334 .10398865 .3410492 .12298584 .3410492 .14399719 .3410492 .1499939 .35203553 .15499878 .36901856 .1769867 .44296266 .21798706 .46694947 .2579956 .46694947 .29699708 .46694947 .34298707 .44696046 .34298707 .36701966V.32505799C.31799317 .29907228 .22099304 .27409364 .14199829 .24911499 .069992069 .22712708 .04899597 .1771698 .04899597 .13020325 .04899597 .055267335 .09899902-.01171875 .19299317-.01171875 .25498963-.009719849 .30999757 .027267456 .34199525 .04826355 .35598756 .011276245 .37199403-.01171875 .40699769-.01171875 .44400025-.01171875 .4869995-.0007324219 .5249939 .01828003L.5189972 .042266847C.5049896 .039276124 .48298646 .03727722 .46798707 .041275026 .44999696 .045272829 .43299867 .06425476 .43299867 .12721253V.36901856Z"/>
<path id="font_2_18" d="M.36698915 .35102845V.46794129C.33399964 .49194337 .2829895 .5019531 .23799134 .5019531 .12998963 .5019531 .056991579 .45095826 .055999757 .35603334 .056991579 .27308656 .12399292 .2361145 .20698548 .21113587 .2519989 .19714356 .31498719 .17416382 .31498719 .10621643 .31498719 .055252077 .2749939 .023269654 .22200012 .023269654 .14099121 .023269654 .09599304 .082229617 .07598877 .16716004H.04699707L.056991579 .03627014C.09298706 .004272461 .1539917-.01171875 .21299744-.01171875 .33198548-.01171875 .3999939 .051254274 .3999939 .13618469 .3999939 .2241211 .34599305 .26409913 .24299622 .29606629 .20199585 .30906678 .13598633 .3300476 .13598633 .3860016 .13699341 .43795777 .17599488 .46694947 .22599793 .46694947 .29699708 .46694947 .33099366 .4119873 .33799745 .35102845H.36698915Z"/>
<path id="font_2_11" d="M.2599945 .46694947C.30899049 .46694947 .3600006 .43093873 .3600006 .33392335 .3600006 .24989319 .31599427 .20588684 .2579956 .20588684 .20199585 .20588684 .15499878 .24989319 .15499878 .33392335 .15499878 .43293763 .20698548 .46694947 .2599945 .46694947M.2809906-.2071991C.19599915-.2071991 .13699341-.16319275 .13699341-.09118652 .13699341-.057174684 .14698792-.032180787 .16799927-.016174317 .18998719 .0008239746 .22299195 .0068359377 .2709961 .0068359377 .35899354 .0068359377 .42399598-.014175415 .42399598-.08918762 .42399598-.16918946 .35198976-.2071991 .2809906-.2071991M.3889923 .47094728C.36099244 .48994447 .30599977 .5019531 .2599945 .5019531 .10699463 .5019531 .052993776 .40792848 .052993776 .33392335 .052993776 .23989868 .114990238 .19688416 .16099549 .18489075V.18289185C.10699463 .1618805 .068984989 .13285828 .068984989 .09384155 .068984989 .05882263 .10899353 .020828248 .15699768 .015823365V.013824463C.11399841-.00016784668 .041992189-.024169922 .041992189-.09617615 .041992189-.19718933 .14199829-.2421875 .2579956-.2421875 .31799317-.2421875 .3809967-.23019409 .42900086-.20118714 .47499085-.17318726 .5079956-.12619019 .5079956-.06417847 .5079956 .043823244 .42199708 .081832889 .31498719 .081832889H.23498535C.16299439 .081832889 .1519928 .10585022 .1519928 .12486267 .1519928 .15388489 .18998719 .16989136 .20298767 .17388916 .22200012 .17189026 .24299622 .17089844 .2539978 .17089844 .34899903 .17089844 .45599366 .21289063 .45599366 .33392335 .45599366 .3759308 .44299317 .41093446 .42599488 .42793275L.5049896 .4399414 .5249939 .50294497 .5169983 .51194766 .3889923 .47094728Z"/>
<path id="font_2_19" d="M.32598878 .45022584V.49023438H.19699097V.6162262H.16799927L.10699463 .49023438H.0309906V.45022584H.102996829V.102264408C.102996829 .0002746582 .1789856-.01171875 .21398926-.01171875 .2649994-.01171875 .31298829 .014266968 .34199525 .03227234L.33399964 .053268434C.30999757 .043273927 .28799439 .040267946 .2630005 .040267946 .22898865 .040267946 .19699097 .06427002 .19699097 .14025879V.45022584H.32598878Z"/>
<path id="font_2_20" d="M.33898927 .49023438V.46122743L.3880005 .45622254C.4039917 .45422364 .40699769 .44322206 .40299989 .42921449 .394989 .39718629 .37599183 .3391571 .35299684 .27511598L.28599549 .08999634H.28399659L.22299195 .25810243C.20298767 .31513978 .18299866 .37316896 .1639862 .42721559 .15699768 .44622804 .16099549 .45422364 .17999268 .45622254L.22499085 .46122743V.49023438H.0009918213V.46122743C.04798889 .4572296 .056991579 .4532318 .07199097 .41619874 .09899902 .3501587 .12199402 .28511048 .14698792 .21607971L.22399903 0H.29599L.3849945 .24209595C.4139862 .32014466 .44299317 .3861847 .45700074 .41819764 .47200013 .4532318 .48298646 .45922853 .5289917 .46122743V.49023438H.33898927Z"/>
<path id="font_2_13" d="M.18899536 .7361908 .18199158 .7421875 .024993897 .71717837V.6921692L.06298828 .6881714C.08898926 .6851654 .09498596 .6801758 .09498596 .6421509V.087005618C.09498596 .035995485 .09199524 .033996583 .019989014 .0289917V0H.2639923V.0289917C.19299317 .033996583 .18899536 .035995485 .18899536 .087005618V.7361908Z"/>
<path id="font_2_15" d="M.28799439 .5019531C.12799073 .5019531 .04899597 .40698243 .04899597 .24510193 .04899597 .083236698 .12799073-.01171875 .28799439-.01171875 .44999696-.01171875 .5279999 .083236698 .5279999 .24510193 .5279999 .40698243 .44999696 .5019531 .28799439 .5019531M.15299988 .24510193C.15299988 .38301087 .19699097 .46694947 .28799439 .46694947 .3809967 .46694947 .42399598 .38301087 .42399598 .24510193 .42399598 .10720825 .3809967 .023269654 .28799439 .023269654 .19699097 .023269654 .15299988 .10720825 .15299988 .24510193Z"/>
<path id="font_2_16" d="M.19400025 .32104493C.19400025 .34602357 .19799805 .36001588 .20698548 .37800599 .22999573 .42396546 .272995 .44795228 .32598878 .44795228 .3659973 .44795228 .45498658 .42196656 .45498658 .25009156 .45498658 .10321045 .40899659 .023269654 .30899049 .023269654 .25698854 .023269654 .21699524 .050247194 .20098877 .096221927 .19499207 .11419678 .19400025 .13418579 .19400025 .15716553V.32104493M.02999878 .47694398V.45195008L.067993167 .4469452C.09399414 .4429474 .099990848 .43795777 .099990848 .40197755V-.14324951C.099990848-.19444275 .09498596-.19645691 .024993897-.20147705V-.23046875H.28399659V-.20147705C.19999695-.19645691 .19400025-.19444275 .19400025-.14324951V.011276245C.21499634-.0007324219 .2619934-.01171875 .30799867-.01171875 .44299317-.01171875 .5589905 .050247194 .5589905 .25608827 .5589905 .32704164 .54599 .5019531 .3639984 .5019531 .29100038 .5019531 .23298645 .4529419 .19400025 .42796327L.18099976 .5019531 .02999878 .47694398Z"/>
<path id="font_2_9" d="M.58299258 0V.0289917C.5119934 .033996583 .5079956 .035995485 .5079956 .08699036V.73617556L.5009918 .7421875 .34399415 .7171478V.6921234L.38198854 .6881256C.4079895 .6851196 .4139862 .68011477 .4139862 .6420746V.47795106C.38598634 .49295045 .34899903 .5019531 .30299378 .5019531 .22099304 .5019531 .1599884 .47595216 .117996219 .43295289 .07499695 .3879547 .04899597 .32196046 .04899597 .2349701 .04899597 .0872345 .12599182-.01171875 .2579956-.01171875 .31199647-.01171875 .35899354 .012268066 .41299439 .056259157V.0069885256L.42099 0H.58299258M.4139862 .16998291C.4139862 .14819336 .41299439 .13121033 .40699769 .114212039 .3869934 .06225586 .34298707 .042266847 .29100038 .042266847 .19898987 .042266847 .15299988 .13220215 .15299988 .24711609 .15299988 .37701417 .19999695 .46694947 .3019867 .46694947 .34899903 .46694947 .3869934 .44496156 .40499879 .4039917 .41299439 .38700868 .4139862 .37301637 .4139862 .34603883V.16998291Z"/>
<path id="font_1_2" d="M.42799378 .45222474 .43899537 .49023438H.31199647L.34599305 .6092224 .33399964 .6162262 .23699951 .53923037 .22399903 .49023438H.14299011L.13198853 .45222474H.21499634L.125 .08627319C.10998535 .029266358 .12199402-.01171875 .17199707-.01171875 .2519989-.01171875 .31599427 .054275514 .35598756 .1292572L.33399964 .1462555C.31098939 .10726929 .2599945 .040267946 .22898865 .040267946 .20799256 .040267946 .20799256 .0632782 .21398926 .088272098L.30299378 .45222474H.42799378Z"/>
<path id="font_2_4" d="M.2649994 .64468386C.3600006 .64468386 .3869934 .49682618 .3869934 .33398438 .3869934 .17112732 .3600006 .023269654 .2649994 .023269654 .16999817 .023269654 .14299011 .17112732 .14299011 .33398438 .14299011 .49682618 .16999817 .64468386 .2649994 .64468386M.2649994 .6796875C.099990848 .6796875 .040985109 .53378298 .040985109 .33398438 .040985109 .13417053 .099990848-.01171875 .2649994-.01171875 .42999269-.01171875 .4889984 .13417053 .4889984 .33398438 .4889984 .53378298 .42999269 .6796875 .2649994 .6796875Z"/>
<path id="font_2_5" d="M.43699647 0V.0289917L.35299684 .035995485C.33198548 .037994386 .31999208 .04598999 .31999208 .08496094V.67367556L.31498719 .6796875 .10899353 .6446991V.6197052L.20199585 .6087036C.21899414 .6067047 .22599793 .5987091 .22599793 .56973269V.08496094C.22599793 .065979007 .22299195 .053985597 .21699524 .04698181 .21199036 .039993287 .20399475 .036987306 .19299317 .035995485L.10899353 .0289917V0H.43699647Z"/>
<path id="font_2_6" d="M.4850006 .13195801 .45700074 .13696289C.43598939 .08299255 .41600038 .07598877 .37599183 .07598877H.11999512C.13598633 .1279602 .19499207 .19892884 .28799439 .2658844 .38398744 .33584596 .45799256 .38082887 .45799256 .49276734 .45799256 .63168337 .3659973 .6796875 .26098634 .6796875 .12399292 .6796875 .052993776 .5967102 .052993776 .54473879 .052993776 .51075747 .09098816 .49476625 .10798645 .49476625 .12599182 .49476625 .1329956 .50476077 .13699341 .5217438 .15299988 .5897064 .19198609 .64468386 .2539978 .64468386 .33099366 .64468386 .35299684 .5797119 .35299684 .50675967 .35299684 .3998108 .29899598 .33984376 .21199036 .26289369 .08898926 .15594483 .04598999 .08798218 .026992798 .009994507L.036987306 0H.45098878L.4850006 .13195801Z"/>
<path id="font_2_3" d="M.07398987 .2861328V.21612549H.31900025V.2861328H.07398987Z"/>
</defs>
<path transform="matrix(1.00005,0,0,-1.00002,53.075998,51.577775)" stroke-width=".3985" stroke-linecap="butt" stroke-miterlimit="10" stroke-linejoin="miter" fill="none" stroke="#000000" d="M-49.88289-9.97636 56.2944 11.25867"/>
<path transform="matrix(.980599,-.19610393,-.19610979,-.9805696,109.5686,40.279809)" stroke-width=".3985" stroke-linecap="round" stroke-linejoin="round" fill="none" stroke="#000000" d="M-2.07224 2.39104C-1.69365 .95639-.84999 .27895 0 0-.84999-.27895-1.69365-.95639-2.07224-2.39104"/>
<path transform="matrix(1.00005,0,0,-1.00002,53.075998,51.577775)" stroke-width=".3985" stroke-linecap="butt" stroke-miterlimit="10" stroke-linejoin="miter" fill="none" stroke="#000000" d="M0-22.67406V49.48438"/>
<path transform="matrix(0,-1.00002,-1.00005,-0,53.075998,1.893158)" stroke-width=".3985" stroke-linecap="round" stroke-linejoin="round" fill="none" stroke="#000000" d="M-2.07224 2.39104C-1.69365 .95639-.84999 .27895 0 0-.84999-.27895-1.69365-.95639-2.07224-2.39104"/>
<use data-text="f" xlink:href="#font_1_1" transform="matrix(5.499675,0,0,-5.4995105,39.37731,5.90786)"/>
<use data-text="(" xlink:href="#font_2_1" transform="matrix(5.499675,0,0,-5.4995105,42.450464,5.90786)"/>
<use data-text="y" xlink:href="#font_1_3" transform="matrix(5.499675,0,0,-5.4995105,44.673578,5.90786)"/>
<use data-text=")" xlink:href="#font_2_2" transform="matrix(5.499675,0,0,-5.4995105,47.752717,5.90786)"/>
<path transform="matrix(1.00005,0,0,-1.00002,53.075998,51.577775)" stroke-width=".3985" stroke-linecap="butt" stroke-dasharray="2.98883,2.98883" stroke-miterlimit="10" stroke-linejoin="miter" fill="none" stroke="#000000" d="M-22.67406 18.13934V-4.53471"/>
<use data-text="i" xlink:href="#font_2_12" transform="matrix(5.499675,-1.099902,0,-5.4995105,15.085098,31.747776)"/>
<use data-text="n" xlink:href="#font_2_14" transform="matrix(5.499675,-1.099902,0,-5.4995105,16.685509,31.427704)"/>
<use data-text="c" xlink:href="#font_2_8" transform="matrix(5.499675,-1.099902,0,-5.4995105,20.089806,30.746865)"/>
<use data-text="r" xlink:href="#font_2_17" transform="matrix(5.499675,-1.099902,0,-5.4995105,22.817643,30.201315)"/>
<use data-text="e" xlink:href="#font_2_10" transform="matrix(5.499675,-1.099902,0,-5.4995105,24.852509,29.794354)"/>
<use data-text="a" xlink:href="#font_2_7" transform="matrix(5.499675,-1.099902,0,-5.4995105,27.679337,29.229004)"/>
<use data-text="s" xlink:href="#font_2_18" transform="matrix(5.499675,-1.099902,0,-5.4995105,30.55568,28.653754)"/>
<use data-text="i" xlink:href="#font_2_12" transform="matrix(5.499675,-1.099902,0,-5.4995105,32.948045,28.175295)"/>
<use data-text="n" xlink:href="#font_2_14" transform="matrix(5.499675,-1.099902,0,-5.4995105,34.548448,27.855225)"/>
<use data-text="g" xlink:href="#font_2_11" transform="matrix(5.499675,-1.099902,0,-5.4995105,37.952745,27.174386)"/>
<use data-text="f" xlink:href="#font_1_1" transform="matrix(5.499675,-1.099902,0,-5.4995105,42.64348,26.236266)"/>
<path transform="matrix(1.00005,0,0,-1.00002,53.075998,51.577775)" stroke-width=".3985" stroke-linecap="butt" stroke-miterlimit="10" stroke-linejoin="miter" fill="none" stroke="#000000" d="M-38.54584 .22704"/>
<use data-text="n" xlink:href="#font_2_14" transform="matrix(5.499675,-1.099902,0,-5.4995105,4.0155489,48.70011)"/>
<use data-text="e" xlink:href="#font_2_10" transform="matrix(5.499675,-1.099902,0,-5.4995105,7.4198458,48.01927)"/>
<use data-text="g" xlink:href="#font_2_11" transform="matrix(5.499675,-1.099902,0,-5.4995105,10.246681,47.453927)"/>
<use data-text="a" xlink:href="#font_2_7" transform="matrix(5.499675,-1.099902,0,-5.4995105,13.106522,46.881975)"/>
<use data-text="t" xlink:href="#font_2_19" transform="matrix(5.499675,-1.099902,0,-5.4995105,15.982849,46.306726)"/>
<use data-text="i" xlink:href="#font_2_12" transform="matrix(5.499675,-1.099902,0,-5.4995105,17.869248,45.929456)"/>
<use data-text="v" xlink:href="#font_2_20" transform="matrix(5.499675,-1.099902,0,-5.4995105,19.469666,45.609384)"/>
<use data-text="e" xlink:href="#font_2_10" transform="matrix(5.499675,-1.099902,0,-5.4995105,22.214005,45.06053)"/>
<path transform="matrix(1.00005,0,0,-1.00002,53.075998,51.577775)" stroke-width=".3985" stroke-linecap="butt" stroke-miterlimit="10" stroke-linejoin="miter" fill="none" stroke="#000000" d="M-38.54584-5.44147"/>
<use data-text="s" xlink:href="#font_2_18" transform="matrix(5.499675,-1.099902,0,-5.4995105,6.6906816,53.956224)"/>
<use data-text="l" xlink:href="#font_2_13" transform="matrix(5.499675,-1.099902,0,-5.4995105,9.088539,53.47666)"/>
<use data-text="o" xlink:href="#font_2_15" transform="matrix(5.499675,-1.099902,0,-5.4995105,10.622948,53.169794)"/>
<use data-text="p" xlink:href="#font_2_16" transform="matrix(5.499675,-1.099902,0,-5.4995105,13.796265,52.53515)"/>
<use data-text="e" xlink:href="#font_2_10" transform="matrix(5.499675,-1.099902,0,-5.4995105,17.140053,51.86641)"/>
<use data-text="s" xlink:href="#font_2_18" transform="matrix(5.499675,-1.099902,0,-5.4995105,19.966897,51.30106)"/>
<path transform="matrix(1.00005,0,0,-1.00002,53.075998,51.577775)" stroke-width=".3985" stroke-linecap="butt" stroke-miterlimit="10" stroke-linejoin="miter" fill="none" stroke="#000000" d="M0 7.93605"/>
<path transform="matrix(1.00005,0,0,-1.00002,53.075998,51.577775)" d="M10.78464 17.40758-10.78464 13.0938V5.97841L10.78464 10.2922ZM-10.78464 5.97841" fill="#ffffff"/>
<use data-text="p" xlink:href="#font_2_16" transform="matrix(5.499675,-1.099902,0,-5.4995105,43.287508,43.172006)"/>
<use data-text="o" xlink:href="#font_2_15" transform="matrix(5.499675,-1.099902,0,-5.4995105,46.63131,42.503267)"/>
<use data-text="s" xlink:href="#font_2_18" transform="matrix(5.499675,-1.099902,0,-5.4995105,49.804628,41.86862)"/>
<use data-text="i" xlink:href="#font_2_12" transform="matrix(5.499675,-1.099902,0,-5.4995105,52.202486,41.389066)"/>
<use data-text="t" xlink:href="#font_2_19" transform="matrix(5.499675,-1.099902,0,-5.4995105,53.802888,41.068994)"/>
<use data-text="i" xlink:href="#font_2_12" transform="matrix(5.499675,-1.099902,0,-5.4995105,55.694795,40.690626)"/>
<use data-text="v" xlink:href="#font_2_20" transform="matrix(5.499675,-1.099902,0,-5.4995105,57.295198,40.370553)"/>
<use data-text="e" xlink:href="#font_2_10" transform="matrix(5.499675,-1.099902,0,-5.4995105,60.039537,39.8217)"/>
<path transform="matrix(1.00005,0,0,-1.00002,53.075998,51.577775)" stroke-width=".3985" stroke-linecap="butt" stroke-miterlimit="10" stroke-linejoin="miter" fill="none" stroke="#000000" d="M0 2.26753"/>
<path transform="matrix(1.00005,0,0,-1.00002,53.075998,51.577775)" d="M8.83295 11.55797-8.83295 8.02484V.70023L8.83295 4.23335ZM-8.83295 .70023" fill="#ffffff"/>
<use data-text="s" xlink:href="#font_2_18" transform="matrix(5.499675,-1.099902,0,-5.4995105,45.2386,48.45111)"/>
<use data-text="l" xlink:href="#font_2_13" transform="matrix(5.499675,-1.099902,0,-5.4995105,47.63646,47.971559)"/>
<use data-text="o" xlink:href="#font_2_15" transform="matrix(5.499675,-1.099902,0,-5.4995105,49.170869,47.664686)"/>
<use data-text="p" xlink:href="#font_2_16" transform="matrix(5.499675,-1.099902,0,-5.4995105,52.344186,47.030038)"/>
<use data-text="e" xlink:href="#font_2_10" transform="matrix(5.499675,-1.099902,0,-5.4995105,55.687974,46.361299)"/>
<use data-text="s" xlink:href="#font_2_18" transform="matrix(5.499675,-1.099902,0,-5.4995105,58.514818,45.79595)"/>
<path transform="matrix(1.00005,0,0,-1.00002,53.075998,51.577775)" stroke-width=".3985" stroke-linecap="butt" stroke-dasharray="2.98883,2.98883" stroke-miterlimit="10" stroke-linejoin="miter" fill="none" stroke="#000000" d="M22.67406 27.20879V4.53471"/>
<use data-text="d" xlink:href="#font_2_9" transform="matrix(5.499675,-1.099902,0,-5.4995105,59.879339,22.789597)"/>
<use data-text="e" xlink:href="#font_2_10" transform="matrix(5.499675,-1.099902,0,-5.4995105,63.168149,22.131855)"/>
<use data-text="c" xlink:href="#font_2_8" transform="matrix(5.499675,-1.099902,0,-5.4995105,65.99498,21.566506)"/>
<use data-text="r" xlink:href="#font_2_17" transform="matrix(5.499675,-1.099902,0,-5.4995105,68.72281,21.020955)"/>
<use data-text="e" xlink:href="#font_2_10" transform="matrix(5.499675,-1.099902,0,-5.4995105,70.75769,20.61399)"/>
<use data-text="a" xlink:href="#font_2_7" transform="matrix(5.499675,-1.099902,0,-5.4995105,73.58452,20.048642)"/>
<use data-text="s" xlink:href="#font_2_18" transform="matrix(5.499675,-1.099902,0,-5.4995105,76.460849,19.473393)"/>
<use data-text="i" xlink:href="#font_2_12" transform="matrix(5.499675,-1.099902,0,-5.4995105,78.8587,18.993836)"/>
<use data-text="n" xlink:href="#font_2_14" transform="matrix(5.499675,-1.099902,0,-5.4995105,80.45911,18.673764)"/>
<use data-text="g" xlink:href="#font_2_11" transform="matrix(5.499675,-1.099902,0,-5.4995105,83.857929,17.994023)"/>
<use data-text="f" xlink:href="#font_1_1" transform="matrix(5.499675,-1.099902,0,-5.4995105,88.549777,17.055684)"/>
<path transform="matrix(1.00005,0,0,-1.00002,53.075998,51.577775)" stroke-width=".3985" stroke-linecap="butt" stroke-miterlimit="10" stroke-linejoin="miter" fill="none" stroke="#000000" d="M38.54584 15.64507"/>
<use data-text="n" xlink:href="#font_2_14" transform="matrix(5.499675,-1.099902,0,-5.4995105,81.1114,33.281808)"/>
<use data-text="e" xlink:href="#font_2_10" transform="matrix(5.499675,-1.099902,0,-5.4995105,84.51569,32.600969)"/>
<use data-text="g" xlink:href="#font_2_11" transform="matrix(5.499675,-1.099902,0,-5.4995105,87.34253,32.035619)"/>
<use data-text="a" xlink:href="#font_2_7" transform="matrix(5.499675,-1.099902,0,-5.4995105,90.20237,31.463667)"/>
<use data-text="t" xlink:href="#font_2_19" transform="matrix(5.499675,-1.099902,0,-5.4995105,93.0787,30.888419)"/>
<use data-text="i" xlink:href="#font_2_12" transform="matrix(5.499675,-1.099902,0,-5.4995105,94.965099,30.511149)"/>
<use data-text="v" xlink:href="#font_2_20" transform="matrix(5.499675,-1.099902,0,-5.4995105,96.56551,30.191079)"/>
<use data-text="e" xlink:href="#font_2_10" transform="matrix(5.499675,-1.099902,0,-5.4995105,99.30985,29.642226)"/>
<path transform="matrix(1.00005,0,0,-1.00002,53.075998,51.577775)" stroke-width=".3985" stroke-linecap="butt" stroke-miterlimit="10" stroke-linejoin="miter" fill="none" stroke="#000000" d="M38.54584 9.97655"/>
<use data-text="s" xlink:href="#font_2_18" transform="matrix(5.499675,-1.099902,0,-5.4995105,83.78653,38.53791)"/>
<use data-text="l" xlink:href="#font_2_13" transform="matrix(5.499675,-1.099902,0,-5.4995105,86.18439,38.058359)"/>
<use data-text="o" xlink:href="#font_2_15" transform="matrix(5.499675,-1.099902,0,-5.4995105,87.718799,37.751485)"/>
<use data-text="p" xlink:href="#font_2_16" transform="matrix(5.499675,-1.099902,0,-5.4995105,90.89211,37.116838)"/>
<use data-text="e" xlink:href="#font_2_10" transform="matrix(5.499675,-1.099902,0,-5.4995105,94.2359,36.448099)"/>
<use data-text="s" xlink:href="#font_2_18" transform="matrix(5.499675,-1.099902,0,-5.4995105,97.062747,35.88275)"/>
<path transform="matrix(1.00005,0,0,-1.00002,53.075998,51.577775)" stroke-width=".79701" stroke-linecap="butt" stroke-miterlimit="10" stroke-linejoin="miter" fill="none" stroke="#ec008c" d="M-34.0111-35.14464-33.32433-32.96774-32.63756-30.83238-31.95078-28.73886-31.26402-26.68652-30.57726-24.67638-29.89049-22.70741-29.2037-20.78032-28.51694-18.8944-27.83018-17.05034-27.14342-15.24812-26.45663-13.48709-25.76987-11.76793-25.0831-10.09027-24.39635-8.4545-23.70958-6.85986-23.0228-5.30713-22.33603-3.79628-21.64925-2.32655-20.96251-.8987-20.27573 .48761-19.58896 1.83243-18.90219 3.13574-18.21542 4.39717-17.52866 5.61745-16.84189 6.79584-16.15512 7.93239-15.46834 9.02774-14.78159 10.08124-14.09482 11.09325-13.40805 12.0637-12.72127 12.99231-12.03452 13.87938-11.34773 14.72496-10.66096 15.529-9.97421 16.29155-9.28745 17.0122-8.60066 17.69139-7.9139 18.32901-7.22713 18.9248-6.54036 19.4794-5.85359 19.99213-5.16682 20.463-4.48006 20.89272-3.79327 21.28055-3.10654 21.62686-2.41975 21.93166-1.73299 22.19496-1.04622 22.41637-.35945 22.59628 .32727 22.73466 1.01404 22.83118 1.7008 22.88652 2.38759 22.90002 3.07436 22.87201 3.76111 22.80212 4.44788 22.69106 5.13466 22.53813 5.82143 22.34369 6.5082 22.10738 7.19495 21.82954 7.88171 21.51054 8.5685 21.14935 9.25526 20.74698 9.94205 20.30272 10.62878 19.81732 11.31557 19.2897 12.00233 18.72092 12.6891 18.11026 13.37587 17.45844 14.06264 16.7644 14.7494 16.02919 15.43617 15.25246 16.12294 14.43387 16.80971 13.57376 17.49648 12.6718 18.18324 11.72865 18.87003 10.74364 19.55678 9.71713 20.24356 8.64873 20.93031 7.53918 21.61708 6.38777 22.30385 5.19482 22.99063 3.96075 23.6774 2.68443 24.36415 1.3666 25.05093 .00725 25.7377-1.39362 26.42447-2.83601 27.11124-4.32025 27.798-5.84604 28.48476-7.41368 29.17154-9.02248 29.8583-10.67314 30.54507-12.36531 31.23183-14.09901 31.91861-15.87459 32.60538-17.69133 33.29214-19.54991 33.97893-21.4504"/>
<path transform="matrix(1.00005,0,0,-1.00002,53.075998,51.577775)" stroke-width=".3985" stroke-linecap="butt" stroke-miterlimit="10" stroke-linejoin="miter" fill="none" stroke="#cbcbcb" d="M-45.34814-13.60504 54.41762 6.3496"/>
<path transform="matrix(1.00005,0,0,-1.00002,53.075998,51.577775)" stroke-width=".3985" stroke-linecap="butt" stroke-miterlimit="10" stroke-linejoin="miter" fill="none" stroke="#cbcbcb" d="M-40.8134-17.23277 58.95236 2.72188"/>
<path transform="matrix(1.00005,0,0,-1.00002,53.075998,51.577775)" stroke-width=".3985" stroke-linecap="butt" stroke-miterlimit="10" stroke-linejoin="miter" fill="none" stroke="#cbcbcb" d="M-36.27866-20.8605 63.4871-.90584"/>
<path transform="matrix(1.00005,0,0,-1.00002,53.075998,51.577775)" stroke-width=".3985" stroke-linecap="butt" stroke-miterlimit="10" stroke-linejoin="miter" fill="none" stroke="#cbcbcb" d="M-31.74391-24.48822 68.02185-4.53355"/>
<path transform="matrix(1.00005,0,0,-1.00002,53.075998,51.577775)" stroke-width=".3985" stroke-linecap="butt" stroke-miterlimit="10" stroke-linejoin="miter" fill="none" stroke="#cbcbcb" d="M-27.20917-28.11595 72.55661-8.16129"/>
<path transform="matrix(1.00005,0,0,-1.00002,53.075998,51.577775)" stroke-width=".3985" stroke-linecap="butt" stroke-miterlimit="10" stroke-linejoin="miter" fill="none" stroke="#cbcbcb" d="M-22.67442-31.74367 77.09134-11.789"/>
<path transform="matrix(1.00005,0,0,-1.00002,53.075998,51.577775)" stroke-width=".3985" stroke-linecap="butt" stroke-miterlimit="10" stroke-linejoin="miter" fill="none" stroke="#cbcbcb" d="M-18.13968-35.3714 81.62608-15.41673"/>
<path transform="matrix(1.00005,0,0,-1.00002,53.075998,51.577775)" stroke-width=".3985" stroke-linecap="butt" stroke-miterlimit="10" stroke-linejoin="miter" fill="none" stroke="#cbcbcb" d="M-13.60493-38.99913 86.16083-19.04446"/>
<path transform="matrix(1.00005,0,0,-1.00002,53.075998,51.577775)" stroke-width=".3985" stroke-linecap="butt" stroke-miterlimit="10" stroke-linejoin="miter" fill="none" stroke="#cbcbcb" d="M-9.07019-42.62686 90.69557-22.6722"/>
<path transform="matrix(1.00005,0,0,-1.00002,53.075998,51.577775)" stroke-width=".3985" stroke-linecap="butt" stroke-miterlimit="10" stroke-linejoin="miter" fill="none" stroke="#cbcbcb" d="M-4.53545-46.2546 95.23032-26.29993"/>
<path transform="matrix(1.00005,0,0,-1.00002,53.075998,51.577775)" stroke-width=".3985" stroke-linecap="butt" stroke-miterlimit="10" stroke-linejoin="miter" fill="none" stroke="#cbcbcb" d="M-45.34813-9.07031 4.53474-48.97586"/>
<path transform="matrix(1.00005,0,0,-1.00002,53.075998,51.577775)" stroke-width=".3985" stroke-linecap="butt" stroke-miterlimit="10" stroke-linejoin="miter" fill="none" stroke="#cbcbcb" d="M-40.81339-8.16328 9.06949-48.06883"/>
<path transform="matrix(1.00005,0,0,-1.00002,53.075998,51.577775)" stroke-width=".3985" stroke-linecap="butt" stroke-miterlimit="10" stroke-linejoin="miter" fill="none" stroke="#cbcbcb" d="M-36.27863-7.25626 13.60425-47.1618"/>
<path transform="matrix(1.00005,0,0,-1.00002,53.075998,51.577775)" stroke-width=".3985" stroke-linecap="butt" stroke-miterlimit="10" stroke-linejoin="miter" fill="none" stroke="#cbcbcb" d="M-31.74388-6.34924 18.13899-46.25479"/>
<path transform="matrix(1.00005,0,0,-1.00002,53.075998,51.577775)" stroke-width=".3985" stroke-linecap="butt" stroke-miterlimit="10" stroke-linejoin="miter" fill="none" stroke="#cbcbcb" d="M-27.20915-5.44223 22.67372-45.34776"/>
<path transform="matrix(1.00005,0,0,-1.00002,53.075998,51.577775)" stroke-width=".3985" stroke-linecap="butt" stroke-miterlimit="10" stroke-linejoin="miter" fill="none" stroke="#cbcbcb" d="M-22.6744-4.53522 27.20848-44.44075"/>
<path transform="matrix(1.00005,0,0,-1.00002,53.075998,51.577775)" stroke-width=".3985" stroke-linecap="butt" stroke-miterlimit="10" stroke-linejoin="miter" fill="none" stroke="#cbcbcb" d="M-18.13966-3.6282 31.74321-43.53375"/>
<path transform="matrix(1.00005,0,0,-1.00002,53.075998,51.577775)" stroke-width=".3985" stroke-linecap="butt" stroke-miterlimit="10" stroke-linejoin="miter" fill="none" stroke="#cbcbcb" d="M-13.6049-2.72118 36.27797-42.62672"/>
<path transform="matrix(1.00005,0,0,-1.00002,53.075998,51.577775)" stroke-width=".3985" stroke-linecap="butt" stroke-miterlimit="10" stroke-linejoin="miter" fill="none" stroke="#cbcbcb" d="M-9.07016-1.81416 40.81271-41.71971"/>
<path transform="matrix(1.00005,0,0,-1.00002,53.075998,51.577775)" stroke-width=".3985" stroke-linecap="butt" stroke-miterlimit="10" stroke-linejoin="miter" fill="none" stroke="#cbcbcb" d="M-4.53543-.90714 45.34744-40.81268"/>
<path transform="matrix(1.00005,0,0,-1.00002,53.075998,51.577775)" stroke-width=".3985" stroke-linecap="butt" stroke-miterlimit="10" stroke-linejoin="miter" fill="none" stroke="#cbcbcb" d="M-.00066-.0001 49.88222-39.90565"/>
<path transform="matrix(1.00005,0,0,-1.00002,53.075998,51.577775)" stroke-width=".3985" stroke-linecap="butt" stroke-miterlimit="10" stroke-linejoin="miter" fill="none" stroke="#cbcbcb" d="M4.53404 .90686 54.41693-38.99866"/>
<path transform="matrix(1.00005,0,0,-1.00002,53.075998,51.577775)" stroke-width=".3985" stroke-linecap="butt" stroke-miterlimit="10" stroke-linejoin="miter" fill="none" stroke="#cbcbcb" d="M9.06877 1.81387 58.95168-38.09164"/>
<path transform="matrix(1.00005,0,0,-1.00002,53.075998,51.577775)" stroke-width=".3985" stroke-linecap="butt" stroke-miterlimit="10" stroke-linejoin="miter" fill="none" stroke="#cbcbcb" d="M13.60353 2.7209 63.48642-37.18463"/>
<path transform="matrix(1.00005,0,0,-1.00002,53.075998,51.577775)" stroke-width=".3985" stroke-linecap="butt" stroke-miterlimit="10" stroke-linejoin="miter" fill="none" stroke="#cbcbcb" d="M18.13826 3.62791 68.02115-36.27762"/>
<path transform="matrix(1.00005,0,0,-1.00002,53.075998,51.577775)" stroke-width=".3985" stroke-linecap="butt" stroke-miterlimit="10" stroke-linejoin="miter" fill="none" stroke="#cbcbcb" d="M22.67302 4.53494 72.55591-35.37059"/>
<path transform="matrix(1.00005,0,0,-1.00002,53.075998,51.577775)" stroke-width=".3985" stroke-linecap="butt" stroke-miterlimit="10" stroke-linejoin="miter" fill="none" stroke="#cbcbcb" d="M27.20776 5.44196 77.09065-34.46358"/>
<path transform="matrix(1.00005,0,0,-1.00002,53.075998,51.577775)" stroke-width=".3985" stroke-linecap="butt" stroke-miterlimit="10" stroke-linejoin="miter" fill="none" stroke="#cbcbcb" d="M31.7425 6.34898 81.62538-33.55655"/>
<path transform="matrix(1.00005,0,0,-1.00002,53.075998,51.577775)" stroke-width=".3985" stroke-linecap="butt" stroke-miterlimit="10" stroke-linejoin="miter" fill="none" stroke="#cbcbcb" d="M36.27725 7.25598 86.16014-32.64954"/>
<path transform="matrix(1.00005,0,0,-1.00002,53.075998,51.577775)" stroke-width=".3985" stroke-linecap="butt" stroke-miterlimit="10" stroke-linejoin="miter" fill="none" stroke="#cbcbcb" d="M40.812 8.16301 90.69489-31.74251"/>
<path transform="matrix(1.00005,0,0,-1.00002,53.075998,51.577775)" stroke-width=".3985" stroke-linecap="butt" stroke-miterlimit="10" stroke-linejoin="miter" fill="none" stroke="#cbcbcb" d="M45.34676 9.07002 95.22964-30.83551"/>
<path transform="matrix(1.00005,0,0,-1.00002,53.075998,51.577775)" stroke-width=".3985" stroke-linecap="butt" stroke-miterlimit="10" stroke-linejoin="miter" fill="none" stroke="#000000" d="M0 0 56.37401-45.09834"/>
<path transform="matrix(.780859,.6246625,.6246812,-.7808356,109.60841,96.80148)" stroke-width=".3985" stroke-linecap="round" stroke-linejoin="round" fill="none" stroke="#000000" d="M-2.07224 2.39104C-1.69365 .95639-.84999 .27895 0 0-.84999-.27895-1.69365-.95639-2.07224-2.39104"/>
<use data-text="t" xlink:href="#font_1_2" transform="matrix(5.499675,0,0,-5.4995105,105.75763,103.71482)"/>
<path transform="matrix(1.00005,0,0,-1.00002,53.075998,51.577775)" stroke-width=".3985" stroke-linecap="butt" stroke-miterlimit="10" stroke-linejoin="miter" fill="none" stroke="#000000" d="M-49.88289-9.97733 56.29442 11.25975"/>
<path transform="matrix(.980579,-.19610393,-.19610979,-.98054966,109.5686,40.27874)" stroke-width=".3985" stroke-linecap="round" stroke-linejoin="round" fill="none" stroke="#000000" d="M-2.07224 2.39104C-1.69365 .95639-.84999 .27895 0 0-.84999-.27895-1.69365-.95639-2.07224-2.39104"/>
<use data-text="y" xlink:href="#font_1_3" transform="matrix(5.499675,0,0,-5.4995105,103.28651,43.758619)"/>
<path transform="matrix(1.00005,0,0,-1.00002,53.075998,51.577775)" stroke-width=".3985" stroke-linecap="butt" stroke-miterlimit="10" stroke-linejoin="miter" fill="none" stroke="#cbcbcb" d="M-49.88289-9.97733 49.88289 9.97733 99.76578-29.9282 0-49.88287ZM99.76578-29.9282"/>
<path transform="matrix(1.00005,0,0,-1.00002,53.075998,51.577775)" stroke-width=".3985" stroke-linecap="butt" stroke-miterlimit="10" stroke-linejoin="miter" fill="none" stroke="#000000" d="M-51.24326-10.24942-48.52248-9.70523"/>
<use data-text="0" xlink:href="#font_2_4" transform="matrix(5.499675,0,0,-5.4995105,3.0924988,68.364109)"/>
<path transform="matrix(1.00005,0,0,-1.00002,53.075998,51.577775)" stroke-width=".3985" stroke-linecap="butt" stroke-miterlimit="10" stroke-linejoin="miter" fill="none" stroke="#000000" d="M-28.5692-28.38834-25.8484-27.84413"/>
<use data-text="1" xlink:href="#font_2_5" transform="matrix(5.499675,0,0,-5.4995105,25.767632,86.50347)"/>
<path transform="matrix(1.00005,0,0,-1.00002,53.075998,51.577775)" stroke-width=".3985" stroke-linecap="butt" stroke-miterlimit="10" stroke-linejoin="miter" fill="none" stroke="#000000" d="M-5.89513-46.52724-3.17433-45.98305"/>
<use data-text="2" xlink:href="#font_2_6" transform="matrix(5.499675,0,0,-5.4995105,48.442766,104.64284)"/>
<path transform="matrix(1.00005,0,0,-1.00002,53.075998,51.577775)" stroke-width=".3985" stroke-linecap="butt" stroke-miterlimit="10" stroke-linejoin="miter" fill="none" stroke="#000000" d="M3.17433-47.88756 5.89513-50.06415"/>
<use data-text="-" xlink:href="#font_2_3" transform="matrix(5.499675,0,0,-5.4995105,60.95339,103.48381)"/>
<use data-text="2" xlink:href="#font_2_6" transform="matrix(5.499675,0,0,-5.4995105,63.109258,103.48381)"/>
<path transform="matrix(1.00005,0,0,-1.00002,53.075998,51.577775)" stroke-width=".3985" stroke-linecap="butt" stroke-miterlimit="10" stroke-linejoin="miter" fill="none" stroke="#000000" d="M25.8484-43.3524 28.5692-45.52899"/>
<use data-text="-" xlink:href="#font_2_3" transform="matrix(5.499675,0,0,-5.4995105,83.628528,98.94872)"/>
<use data-text="1" xlink:href="#font_2_5" transform="matrix(5.499675,0,0,-5.4995105,85.78439,98.94872)"/>
<path transform="matrix(1.00005,0,0,-1.00002,53.075998,51.577775)" stroke-width=".3985" stroke-linecap="butt" stroke-miterlimit="10" stroke-linejoin="miter" fill="none" stroke="#000000" d="M71.19655-34.28207 73.91733-36.45866"/>
<use data-text="1" xlink:href="#font_2_5" transform="matrix(5.499675,0,0,-5.4995105,128.97879,89.87854)"/>
<path transform="matrix(1.00005,0,0,-1.00002,53.075998,51.577775)" stroke-width=".3985" stroke-linecap="butt" stroke-miterlimit="10" stroke-linejoin="miter" fill="none" stroke="#000000" d="M93.8706-29.74692 96.5914-31.92351"/>
<use data-text="2" xlink:href="#font_2_6" transform="matrix(5.499675,0,0,-5.4995105,151.65392,85.343448)"/>
<path transform="matrix(1.00005,0,0,-1.00002,53.075998,51.577775)" stroke-width=".79701" stroke-linecap="butt" stroke-miterlimit="10" stroke-linejoin="miter" fill="none" stroke="#409f9f" d="M-39.59451-11.845-42.03227-13.55109"/>
<path transform="matrix(1.00005,0,0,-1.00002,53.075998,51.577775)" stroke-width=".79701" stroke-linecap="butt" stroke-miterlimit="10" stroke-linejoin="miter" fill="none" stroke="#409f9f" d="M-35.30403-10.81108-37.25327-12.77095"/>
<path transform="matrix(1.00005,0,0,-1.00002,53.075998,51.577775)" stroke-width=".79701" stroke-linecap="butt" stroke-miterlimit="10" stroke-linejoin="miter" fill="none" stroke="#409f9f" d="M-31.16127-9.72781-32.32652-12.04016"/>
<path transform="matrix(1.00005,0,0,-1.00002,53.075998,51.577775)" stroke-width=".79701" stroke-linecap="butt" stroke-miterlimit="10" stroke-linejoin="miter" fill="none" stroke="#409f9f" d="M-27.2645-8.59828-27.1538-11.35567"/>
<path transform="matrix(1.00005,0,0,-1.00002,53.075998,51.577775)" stroke-width=".79701" stroke-linecap="butt" stroke-miterlimit="10" stroke-linejoin="miter" fill="none" stroke="#409f9f" d="M-23.66115-7.50458-21.68768-10.63533"/>
<path transform="matrix(1.00005,0,0,-1.00002,53.075998,51.577775)" stroke-width=".79701" stroke-linecap="butt" stroke-miterlimit="10" stroke-linejoin="miter" fill="none" stroke="#409f9f" d="M-20.06674-6.6213-16.21259-9.70457"/>
<path transform="matrix(1.00005,0,0,-1.00002,53.075998,51.577775)" stroke-width=".79701" stroke-linecap="butt" stroke-miterlimit="10" stroke-linejoin="miter" fill="none" stroke="#409f9f" d="M-16.06825-5.9371-11.1416-8.57474"/>
<path transform="matrix(1.00005,0,0,-1.00002,53.075998,51.577775)" stroke-width=".79701" stroke-linecap="butt" stroke-miterlimit="10" stroke-linejoin="miter" fill="none" stroke="#409f9f" d="M-11.73073-5.25877-6.40964-7.43904"/>
<path transform="matrix(1.00005,0,0,-1.00002,53.075998,51.577775)" stroke-width=".79701" stroke-linecap="butt" stroke-miterlimit="10" stroke-linejoin="miter" fill="none" stroke="#409f9f" d="M-7.24821-4.50958-1.82263-6.37419"/>
<path transform="matrix(1.00005,0,0,-1.00002,53.075998,51.577775)" stroke-width=".79701" stroke-linecap="butt" stroke-miterlimit="10" stroke-linejoin="miter" fill="none" stroke="#409f9f" d="M-2.7249-3.68997 2.7235-5.37976"/>
<path transform="matrix(1.00005,0,0,-1.00002,53.075998,51.577775)" stroke-width=".79701" stroke-linecap="butt" stroke-miterlimit="10" stroke-linejoin="miter" fill="none" stroke="#409f9f" d="M1.80916-2.81041 7.25896-4.44527"/>
<path transform="matrix(1.00005,0,0,-1.00002,53.075998,51.577775)" stroke-width=".79701" stroke-linecap="butt" stroke-miterlimit="10" stroke-linejoin="miter" fill="none" stroke="#409f9f" d="M6.34457-1.87595 11.79298-3.56573"/>
<path transform="matrix(1.00005,0,0,-1.00002,53.075998,51.577775)" stroke-width=".79701" stroke-linecap="butt" stroke-miterlimit="10" stroke-linejoin="miter" fill="none" stroke="#409f9f" d="M10.89072-.88153 16.3163-2.74614"/>
<path transform="matrix(1.00005,0,0,-1.00002,53.075998,51.577775)" stroke-width=".79701" stroke-linecap="butt" stroke-miterlimit="10" stroke-linejoin="miter" fill="none" stroke="#409f9f" d="M15.47772 .18332 20.79881-1.99693"/>
<path transform="matrix(1.00005,0,0,-1.00002,53.075998,51.577775)" stroke-width=".79701" stroke-linecap="butt" stroke-miterlimit="10" stroke-linejoin="miter" fill="none" stroke="#409f9f" d="M20.20967 1.319 25.13632-1.31862"/>
<path transform="matrix(1.00005,0,0,-1.00002,53.075998,51.577775)" stroke-width=".79701" stroke-linecap="butt" stroke-miterlimit="10" stroke-linejoin="miter" fill="none" stroke="#409f9f" d="M25.28067 2.44885 29.13483-.6344"/>
<path transform="matrix(1.00005,0,0,-1.00002,53.075998,51.577775)" stroke-width=".79701" stroke-linecap="butt" stroke-miterlimit="10" stroke-linejoin="miter" fill="none" stroke="#409f9f" d="M30.75438 3.38037 32.7306 .2481"/>
<path transform="matrix(1.00005,0,0,-1.00002,53.075998,51.577775)" stroke-width=".79701" stroke-linecap="butt" stroke-miterlimit="10" stroke-linejoin="miter" fill="none" stroke="#409f9f" d="M36.22188 4.09995 36.33258 1.34256"/>
<path transform="matrix(1.00005,0,0,-1.00002,53.075998,51.577775)" stroke-width=".79701" stroke-linecap="butt" stroke-miterlimit="10" stroke-linejoin="miter" fill="none" stroke="#409f9f" d="M41.3946 4.78444 40.22935 2.47209"/>
<path transform="matrix(1.00005,0,0,-1.00002,53.075998,51.577775)" stroke-width=".79701" stroke-linecap="butt" stroke-miterlimit="10" stroke-linejoin="miter" fill="none" stroke="#409f9f" d="M46.32135 5.51523 44.37212 3.55536"/>
<path transform="matrix(1.00005,0,0,-1.00002,53.075998,51.577775)" stroke-width=".79701" stroke-linecap="butt" stroke-miterlimit="10" stroke-linejoin="miter" fill="none" stroke="#409f9f" d="M51.10036 6.29535 48.6626 4.58926"/>
<path transform="matrix(1.00005,0,0,-1.00002,53.075998,51.577775)" stroke-width=".79701" stroke-linecap="butt" stroke-miterlimit="10" stroke-linejoin="miter" fill="none" stroke="#409f9f" d="M-35.05977-15.47272-37.49753-17.1788"/>
<path transform="matrix(1.00005,0,0,-1.00002,53.075998,51.577775)" stroke-width=".79701" stroke-linecap="butt" stroke-miterlimit="10" stroke-linejoin="miter" fill="none" stroke="#409f9f" d="M-30.76929-14.4388-32.7185-16.39867"/>
<path transform="matrix(1.00005,0,0,-1.00002,53.075998,51.577775)" stroke-width=".79701" stroke-linecap="butt" stroke-miterlimit="10" stroke-linejoin="miter" fill="none" stroke="#409f9f" d="M-26.62651-13.35555-27.79178-15.66788"/>
<path transform="matrix(1.00005,0,0,-1.00002,53.075998,51.577775)" stroke-width=".79701" stroke-linecap="butt" stroke-miterlimit="10" stroke-linejoin="miter" fill="none" stroke="#409f9f" d="M-22.72975-12.226-22.61905-14.9834"/>
<path transform="matrix(1.00005,0,0,-1.00002,53.075998,51.577775)" stroke-width=".79701" stroke-linecap="butt" stroke-miterlimit="10" stroke-linejoin="miter" fill="none" stroke="#409f9f" d="M-19.12639-11.1323-17.15294-14.26305"/>
<path transform="matrix(1.00005,0,0,-1.00002,53.075998,51.577775)" stroke-width=".79701" stroke-linecap="butt" stroke-miterlimit="10" stroke-linejoin="miter" fill="none" stroke="#409f9f" d="M-15.532-10.24902-11.67783-13.33229"/>
<path transform="matrix(1.00005,0,0,-1.00002,53.075998,51.577775)" stroke-width=".79701" stroke-linecap="butt" stroke-miterlimit="10" stroke-linejoin="miter" fill="none" stroke="#409f9f" d="M-11.53351-9.56483-6.60684-12.20247"/>
<path transform="matrix(1.00005,0,0,-1.00002,53.075998,51.577775)" stroke-width=".79701" stroke-linecap="butt" stroke-miterlimit="10" stroke-linejoin="miter" fill="none" stroke="#409f9f" d="M-7.19597-8.88649-1.87488-11.06676"/>
<path transform="matrix(1.00005,0,0,-1.00002,53.075998,51.577775)" stroke-width=".79701" stroke-linecap="butt" stroke-miterlimit="10" stroke-linejoin="miter" fill="none" stroke="#409f9f" d="M-2.71347-8.13731 2.7121-10.00192"/>
<path transform="matrix(1.00005,0,0,-1.00002,53.075998,51.577775)" stroke-width=".79701" stroke-linecap="butt" stroke-miterlimit="10" stroke-linejoin="miter" fill="none" stroke="#409f9f" d="M1.80983-7.31769 7.25826-9.00748"/>
<path transform="matrix(1.00005,0,0,-1.00002,53.075998,51.577775)" stroke-width=".79701" stroke-linecap="butt" stroke-miterlimit="10" stroke-linejoin="miter" fill="none" stroke="#409f9f" d="M6.34392-6.43814 11.7937-8.07298"/>
<path transform="matrix(1.00005,0,0,-1.00002,53.075998,51.577775)" stroke-width=".79701" stroke-linecap="butt" stroke-miterlimit="10" stroke-linejoin="miter" fill="none" stroke="#409f9f" d="M10.87932-5.50368 16.32774-7.19347"/>
<path transform="matrix(1.00005,0,0,-1.00002,53.075998,51.577775)" stroke-width=".79701" stroke-linecap="butt" stroke-miterlimit="10" stroke-linejoin="miter" fill="none" stroke="#409f9f" d="M15.42548-4.50925 20.85106-6.37386"/>
<path transform="matrix(1.00005,0,0,-1.00002,53.075998,51.577775)" stroke-width=".79701" stroke-linecap="butt" stroke-miterlimit="10" stroke-linejoin="miter" fill="none" stroke="#409f9f" d="M20.01247-3.4444 25.33356-5.62466"/>
<path transform="matrix(1.00005,0,0,-1.00002,53.075998,51.577775)" stroke-width=".79701" stroke-linecap="butt" stroke-miterlimit="10" stroke-linejoin="miter" fill="none" stroke="#409f9f" d="M24.74442-2.3087 29.67108-4.94633"/>
<path transform="matrix(1.00005,0,0,-1.00002,53.075998,51.577775)" stroke-width=".79701" stroke-linecap="butt" stroke-miterlimit="10" stroke-linejoin="miter" fill="none" stroke="#409f9f" d="M29.81541-1.17886 33.66957-4.26213"/>
<path transform="matrix(1.00005,0,0,-1.00002,53.075998,51.577775)" stroke-width=".79701" stroke-linecap="butt" stroke-miterlimit="10" stroke-linejoin="miter" fill="none" stroke="#409f9f" d="M35.28914-.24734 37.26537-3.37962"/>
<path transform="matrix(1.00005,0,0,-1.00002,53.075998,51.577775)" stroke-width=".79701" stroke-linecap="butt" stroke-miterlimit="10" stroke-linejoin="miter" fill="none" stroke="#409f9f" d="M40.75664 .47223 40.86734-2.28516"/>
<path transform="matrix(1.00005,0,0,-1.00002,53.075998,51.577775)" stroke-width=".79701" stroke-linecap="butt" stroke-miterlimit="10" stroke-linejoin="miter" fill="none" stroke="#409f9f" d="M45.92937 1.15671 44.7641-1.15561"/>
<path transform="matrix(1.00005,0,0,-1.00002,53.075998,51.577775)" stroke-width=".79701" stroke-linecap="butt" stroke-miterlimit="10" stroke-linejoin="miter" fill="none" stroke="#409f9f" d="M50.8561 1.8875 48.90688-.07236"/>
<path transform="matrix(1.00005,0,0,-1.00002,53.075998,51.577775)" stroke-width=".79701" stroke-linecap="butt" stroke-miterlimit="10" stroke-linejoin="miter" fill="none" stroke="#409f9f" d="M55.63512 2.66762 53.19736 .96153"/>
<path transform="matrix(1.00005,0,0,-1.00002,53.075998,51.577775)" stroke-width=".79701" stroke-linecap="butt" stroke-miterlimit="10" stroke-linejoin="miter" fill="none" stroke="#409f9f" d="M-30.52504-19.10045-32.9628-20.80653"/>
<path transform="matrix(1.00005,0,0,-1.00002,53.075998,51.577775)" stroke-width=".79701" stroke-linecap="butt" stroke-miterlimit="10" stroke-linejoin="miter" fill="none" stroke="#409f9f" d="M-26.23454-18.06653-28.18378-20.0264"/>
<path transform="matrix(1.00005,0,0,-1.00002,53.075998,51.577775)" stroke-width=".79701" stroke-linecap="butt" stroke-miterlimit="10" stroke-linejoin="miter" fill="none" stroke="#409f9f" d="M-22.09178-16.98326-23.25705-19.29561"/>
<path transform="matrix(1.00005,0,0,-1.00002,53.075998,51.577775)" stroke-width=".79701" stroke-linecap="butt" stroke-miterlimit="10" stroke-linejoin="miter" fill="none" stroke="#409f9f" d="M-18.195-15.85373-18.0843-18.61111"/>
<path transform="matrix(1.00005,0,0,-1.00002,53.075998,51.577775)" stroke-width=".79701" stroke-linecap="butt" stroke-miterlimit="10" stroke-linejoin="miter" fill="none" stroke="#409f9f" d="M-14.59166-14.76003-12.6182-17.89078"/>
<path transform="matrix(1.00005,0,0,-1.00002,53.075998,51.577775)" stroke-width=".79701" stroke-linecap="butt" stroke-miterlimit="10" stroke-linejoin="miter" fill="none" stroke="#409f9f" d="M-10.99725-13.87675-7.1431-16.96002"/>
<path transform="matrix(1.00005,0,0,-1.00002,53.075998,51.577775)" stroke-width=".79701" stroke-linecap="butt" stroke-miterlimit="10" stroke-linejoin="miter" fill="none" stroke="#409f9f" d="M-6.99876-13.19255-2.07211-15.83018"/>
<path transform="matrix(1.00005,0,0,-1.00002,53.075998,51.577775)" stroke-width=".79701" stroke-linecap="butt" stroke-miterlimit="10" stroke-linejoin="miter" fill="none" stroke="#409f9f" d="M-2.66124-12.51422 2.65984-14.69449"/>
<path transform="matrix(1.00005,0,0,-1.00002,53.075998,51.577775)" stroke-width=".79701" stroke-linecap="butt" stroke-miterlimit="10" stroke-linejoin="miter" fill="none" stroke="#409f9f" d="M1.82124-11.76503 7.24684-13.62964"/>
<path transform="matrix(1.00005,0,0,-1.00002,53.075998,51.577775)" stroke-width=".79701" stroke-linecap="butt" stroke-miterlimit="10" stroke-linejoin="miter" fill="none" stroke="#409f9f" d="M6.34457-10.94542 11.79298-12.63521"/>
<path transform="matrix(1.00005,0,0,-1.00002,53.075998,51.577775)" stroke-width=".79701" stroke-linecap="butt" stroke-miterlimit="10" stroke-linejoin="miter" fill="none" stroke="#409f9f" d="M10.87865-10.06586 16.32843-11.70071"/>
<path transform="matrix(1.00005,0,0,-1.00002,53.075998,51.577775)" stroke-width=".79701" stroke-linecap="butt" stroke-miterlimit="10" stroke-linejoin="miter" fill="none" stroke="#409f9f" d="M15.41405-9.1314 20.86247-10.82118"/>
<path transform="matrix(1.00005,0,0,-1.00002,53.075998,51.577775)" stroke-width=".79701" stroke-linecap="butt" stroke-miterlimit="10" stroke-linejoin="miter" fill="none" stroke="#409f9f" d="M19.9602-8.13698 25.38579-10.00159"/>
<path transform="matrix(1.00005,0,0,-1.00002,53.075998,51.577775)" stroke-width=".79701" stroke-linecap="butt" stroke-miterlimit="10" stroke-linejoin="miter" fill="none" stroke="#409f9f" d="M24.54721-7.07211 29.86829-9.25238"/>
<path transform="matrix(1.00005,0,0,-1.00002,53.075998,51.577775)" stroke-width=".79701" stroke-linecap="butt" stroke-miterlimit="10" stroke-linejoin="miter" fill="none" stroke="#409f9f" d="M29.27916-5.93643 34.20581-8.57407"/>
<path transform="matrix(1.00005,0,0,-1.00002,53.075998,51.577775)" stroke-width=".79701" stroke-linecap="butt" stroke-miterlimit="10" stroke-linejoin="miter" fill="none" stroke="#409f9f" d="M34.35016-4.80658 38.20432-7.88985"/>
<path transform="matrix(1.00005,0,0,-1.00002,53.075998,51.577775)" stroke-width=".79701" stroke-linecap="butt" stroke-miterlimit="10" stroke-linejoin="miter" fill="none" stroke="#409f9f" d="M39.82387-3.87506 41.8001-7.00734"/>
<path transform="matrix(1.00005,0,0,-1.00002,53.075998,51.577775)" stroke-width=".79701" stroke-linecap="butt" stroke-miterlimit="10" stroke-linejoin="miter" fill="none" stroke="#409f9f" d="M45.29137-3.15549 45.40207-5.91287"/>
<path transform="matrix(1.00005,0,0,-1.00002,53.075998,51.577775)" stroke-width=".79701" stroke-linecap="butt" stroke-miterlimit="10" stroke-linejoin="miter" fill="none" stroke="#409f9f" d="M50.4641-2.471 49.29884-4.78334"/>
<path transform="matrix(1.00005,0,0,-1.00002,53.075998,51.577775)" stroke-width=".79701" stroke-linecap="butt" stroke-miterlimit="10" stroke-linejoin="miter" fill="none" stroke="#409f9f" d="M55.39084-1.7402 53.4416-3.70007"/>
<path transform="matrix(1.00005,0,0,-1.00002,53.075998,51.577775)" stroke-width=".79701" stroke-linecap="butt" stroke-miterlimit="10" stroke-linejoin="miter" fill="none" stroke="#409f9f" d="M60.16985-.96008 57.73209-2.66618"/>
<path transform="matrix(1.00005,0,0,-1.00002,53.075998,51.577775)" stroke-width=".79701" stroke-linecap="butt" stroke-miterlimit="10" stroke-linejoin="miter" fill="none" stroke="#409f9f" d="M-25.99028-22.72816-28.42804-24.43425"/>
<path transform="matrix(1.00005,0,0,-1.00002,53.075998,51.577775)" stroke-width=".79701" stroke-linecap="butt" stroke-miterlimit="10" stroke-linejoin="miter" fill="none" stroke="#409f9f" d="M-21.6998-21.69424-23.64903-23.65411"/>
<path transform="matrix(1.00005,0,0,-1.00002,53.075998,51.577775)" stroke-width=".79701" stroke-linecap="butt" stroke-miterlimit="10" stroke-linejoin="miter" fill="none" stroke="#409f9f" d="M-17.55704-20.611-18.72229-22.92332"/>
<path transform="matrix(1.00005,0,0,-1.00002,53.075998,51.577775)" stroke-width=".79701" stroke-linecap="butt" stroke-miterlimit="10" stroke-linejoin="miter" fill="none" stroke="#409f9f" d="M-13.66026-19.48145-13.54956-22.23885"/>
<path transform="matrix(1.00005,0,0,-1.00002,53.075998,51.577775)" stroke-width=".79701" stroke-linecap="butt" stroke-miterlimit="10" stroke-linejoin="miter" fill="none" stroke="#409f9f" d="M-10.0569-18.38774-8.08345-21.5185"/>
<path transform="matrix(1.00005,0,0,-1.00002,53.075998,51.577775)" stroke-width=".79701" stroke-linecap="butt" stroke-miterlimit="10" stroke-linejoin="miter" fill="none" stroke="#409f9f" d="M-6.46251-17.50447-2.60835-20.58774"/>
<path transform="matrix(1.00005,0,0,-1.00002,53.075998,51.577775)" stroke-width=".79701" stroke-linecap="butt" stroke-miterlimit="10" stroke-linejoin="miter" fill="none" stroke="#409f9f" d="M-2.46402-16.82028 2.46262-19.45792"/>
<path transform="matrix(1.00005,0,0,-1.00002,53.075998,51.577775)" stroke-width=".79701" stroke-linecap="butt" stroke-miterlimit="10" stroke-linejoin="miter" fill="none" stroke="#409f9f" d="M1.8735-16.14194 7.19458-18.3222"/>
<path transform="matrix(1.00005,0,0,-1.00002,53.075998,51.577775)" stroke-width=".79701" stroke-linecap="butt" stroke-miterlimit="10" stroke-linejoin="miter" fill="none" stroke="#409f9f" d="M6.356-15.39276 11.78159-17.25737"/>
<path transform="matrix(1.00005,0,0,-1.00002,53.075998,51.577775)" stroke-width=".79701" stroke-linecap="butt" stroke-miterlimit="10" stroke-linejoin="miter" fill="none" stroke="#409f9f" d="M10.87932-14.57314 16.32774-16.26294"/>
<path transform="matrix(1.00005,0,0,-1.00002,53.075998,51.577775)" stroke-width=".79701" stroke-linecap="butt" stroke-miterlimit="10" stroke-linejoin="miter" fill="none" stroke="#409f9f" d="M15.4134-13.69359 20.86319-15.32843"/>
<path transform="matrix(1.00005,0,0,-1.00002,53.075998,51.577775)" stroke-width=".79701" stroke-linecap="butt" stroke-miterlimit="10" stroke-linejoin="miter" fill="none" stroke="#409f9f" d="M19.9488-12.75912 25.39722-14.44891"/>
<path transform="matrix(1.00005,0,0,-1.00002,53.075998,51.577775)" stroke-width=".79701" stroke-linecap="butt" stroke-miterlimit="10" stroke-linejoin="miter" fill="none" stroke="#409f9f" d="M24.49495-11.7647 29.92055-13.62932"/>
<path transform="matrix(1.00005,0,0,-1.00002,53.075998,51.577775)" stroke-width=".79701" stroke-linecap="butt" stroke-miterlimit="10" stroke-linejoin="miter" fill="none" stroke="#409f9f" d="M29.08195-10.69984 34.40305-12.88011"/>
<path transform="matrix(1.00005,0,0,-1.00002,53.075998,51.577775)" stroke-width=".79701" stroke-linecap="butt" stroke-miterlimit="10" stroke-linejoin="miter" fill="none" stroke="#409f9f" d="M33.8139-9.56415 38.74055-12.20178"/>
<path transform="matrix(1.00005,0,0,-1.00002,53.075998,51.577775)" stroke-width=".79701" stroke-linecap="butt" stroke-miterlimit="10" stroke-linejoin="miter" fill="none" stroke="#409f9f" d="M38.8849-8.43431 42.73906-11.51758"/>
<path transform="matrix(1.00005,0,0,-1.00002,53.075998,51.577775)" stroke-width=".79701" stroke-linecap="butt" stroke-miterlimit="10" stroke-linejoin="miter" fill="none" stroke="#409f9f" d="M44.35863-7.50279 46.33485-10.63507"/>
<path transform="matrix(1.00005,0,0,-1.00002,53.075998,51.577775)" stroke-width=".79701" stroke-linecap="butt" stroke-miterlimit="10" stroke-linejoin="miter" fill="none" stroke="#409f9f" d="M49.82611-6.7832 49.93681-9.5406"/>
<path transform="matrix(1.00005,0,0,-1.00002,53.075998,51.577775)" stroke-width=".79701" stroke-linecap="butt" stroke-miterlimit="10" stroke-linejoin="miter" fill="none" stroke="#409f9f" d="M54.99886-6.09872 53.83359-8.41107"/>
<path transform="matrix(1.00005,0,0,-1.00002,53.075998,51.577775)" stroke-width=".79701" stroke-linecap="butt" stroke-miterlimit="10" stroke-linejoin="miter" fill="none" stroke="#409f9f" d="M59.92558-5.36794 57.97635-7.3278"/>
<path transform="matrix(1.00005,0,0,-1.00002,53.075998,51.577775)" stroke-width=".79701" stroke-linecap="butt" stroke-miterlimit="10" stroke-linejoin="miter" fill="none" stroke="#409f9f" d="M64.7046-4.58781 62.26685-6.2939"/>
<path transform="matrix(1.00005,0,0,-1.00002,53.075998,51.577775)" stroke-width=".79701" stroke-linecap="butt" stroke-miterlimit="10" stroke-linejoin="miter" fill="none" stroke="#409f9f" d="M-21.45554-26.3559-23.8933-28.06198"/>
<path transform="matrix(1.00005,0,0,-1.00002,53.075998,51.577775)" stroke-width=".79701" stroke-linecap="butt" stroke-miterlimit="10" stroke-linejoin="miter" fill="none" stroke="#409f9f" d="M-17.16505-25.32198-19.11427-27.28185"/>
<path transform="matrix(1.00005,0,0,-1.00002,53.075998,51.577775)" stroke-width=".79701" stroke-linecap="butt" stroke-miterlimit="10" stroke-linejoin="miter" fill="none" stroke="#409f9f" d="M-13.02228-24.23871-14.18755-26.55106"/>
<path transform="matrix(1.00005,0,0,-1.00002,53.075998,51.577775)" stroke-width=".79701" stroke-linecap="butt" stroke-miterlimit="10" stroke-linejoin="miter" fill="none" stroke="#409f9f" d="M-9.12552-23.10918-9.01482-25.86656"/>
<path transform="matrix(1.00005,0,0,-1.00002,53.075998,51.577775)" stroke-width=".79701" stroke-linecap="butt" stroke-miterlimit="10" stroke-linejoin="miter" fill="none" stroke="#409f9f" d="M-5.52216-22.01547-3.54869-25.14622"/>
<path transform="matrix(1.00005,0,0,-1.00002,53.075998,51.577775)" stroke-width=".79701" stroke-linecap="butt" stroke-miterlimit="10" stroke-linejoin="miter" fill="none" stroke="#409f9f" d="M-1.92775-21.1322 1.92639-24.21547"/>
<path transform="matrix(1.00005,0,0,-1.00002,53.075998,51.577775)" stroke-width=".79701" stroke-linecap="butt" stroke-miterlimit="10" stroke-linejoin="miter" fill="none" stroke="#409f9f" d="M2.07071-20.44801 6.99738-23.08565"/>
<path transform="matrix(1.00005,0,0,-1.00002,53.075998,51.577775)" stroke-width=".79701" stroke-linecap="butt" stroke-miterlimit="10" stroke-linejoin="miter" fill="none" stroke="#409f9f" d="M6.40825-19.76967 11.72934-21.94994"/>
<path transform="matrix(1.00005,0,0,-1.00002,53.075998,51.577775)" stroke-width=".79701" stroke-linecap="butt" stroke-miterlimit="10" stroke-linejoin="miter" fill="none" stroke="#409f9f" d="M10.89075-19.02048 16.31633-20.88509"/>
<path transform="matrix(1.00005,0,0,-1.00002,53.075998,51.577775)" stroke-width=".79701" stroke-linecap="butt" stroke-miterlimit="10" stroke-linejoin="miter" fill="none" stroke="#409f9f" d="M15.41406-18.20087 20.86249-19.89066"/>
<path transform="matrix(1.00005,0,0,-1.00002,53.075998,51.577775)" stroke-width=".79701" stroke-linecap="butt" stroke-miterlimit="10" stroke-linejoin="miter" fill="none" stroke="#409f9f" d="M19.94815-17.3213 25.39793-18.95616"/>
<path transform="matrix(1.00005,0,0,-1.00002,53.075998,51.577775)" stroke-width=".79701" stroke-linecap="butt" stroke-miterlimit="10" stroke-linejoin="miter" fill="none" stroke="#409f9f" d="M24.48355-16.38684 29.93198-18.07663"/>
<path transform="matrix(1.00005,0,0,-1.00002,53.075998,51.577775)" stroke-width=".79701" stroke-linecap="butt" stroke-miterlimit="10" stroke-linejoin="miter" fill="none" stroke="#409f9f" d="M29.02971-15.39243 34.45529-17.25703"/>
<path transform="matrix(1.00005,0,0,-1.00002,53.075998,51.577775)" stroke-width=".79701" stroke-linecap="butt" stroke-miterlimit="10" stroke-linejoin="miter" fill="none" stroke="#409f9f" d="M33.6167-14.32758 38.93779-16.50784"/>
<path transform="matrix(1.00005,0,0,-1.00002,53.075998,51.577775)" stroke-width=".79701" stroke-linecap="butt" stroke-miterlimit="10" stroke-linejoin="miter" fill="none" stroke="#409f9f" d="M38.34865-13.19188 43.27531-15.82951"/>
<path transform="matrix(1.00005,0,0,-1.00002,53.075998,51.577775)" stroke-width=".79701" stroke-linecap="butt" stroke-miterlimit="10" stroke-linejoin="miter" fill="none" stroke="#409f9f" d="M43.41966-12.06203 47.27382-15.1453"/>
<path transform="matrix(1.00005,0,0,-1.00002,53.075998,51.577775)" stroke-width=".79701" stroke-linecap="butt" stroke-miterlimit="10" stroke-linejoin="miter" fill="none" stroke="#409f9f" d="M48.89337-11.13052 50.8696-14.26279"/>
<path transform="matrix(1.00005,0,0,-1.00002,53.075998,51.577775)" stroke-width=".79701" stroke-linecap="butt" stroke-miterlimit="10" stroke-linejoin="miter" fill="none" stroke="#409f9f" d="M54.36087-10.41093 54.47157-13.16832"/>
<path transform="matrix(1.00005,0,0,-1.00002,53.075998,51.577775)" stroke-width=".79701" stroke-linecap="butt" stroke-miterlimit="10" stroke-linejoin="miter" fill="none" stroke="#409f9f" d="M59.5336-9.72644 58.36833-12.03879"/>
<path transform="matrix(1.00005,0,0,-1.00002,53.075998,51.577775)" stroke-width=".79701" stroke-linecap="butt" stroke-miterlimit="10" stroke-linejoin="miter" fill="none" stroke="#409f9f" d="M64.46033-8.99565 62.51111-10.95552"/>
<path transform="matrix(1.00005,0,0,-1.00002,53.075998,51.577775)" stroke-width=".79701" stroke-linecap="butt" stroke-miterlimit="10" stroke-linejoin="miter" fill="none" stroke="#409f9f" d="M69.23935-8.21553 66.80159-9.92163"/>
<path transform="matrix(1.00005,0,0,-1.00002,53.075998,51.577775)" stroke-width=".79701" stroke-linecap="butt" stroke-miterlimit="10" stroke-linejoin="miter" fill="none" stroke="#409f9f" d="M-16.92079-29.98361-19.35855-31.6897"/>
<path transform="matrix(1.00005,0,0,-1.00002,53.075998,51.577775)" stroke-width=".79701" stroke-linecap="butt" stroke-miterlimit="10" stroke-linejoin="miter" fill="none" stroke="#409f9f" d="M-12.63031-28.94969-14.57954-30.90956"/>
<path transform="matrix(1.00005,0,0,-1.00002,53.075998,51.577775)" stroke-width=".79701" stroke-linecap="butt" stroke-miterlimit="10" stroke-linejoin="miter" fill="none" stroke="#409f9f" d="M-8.48755-27.86644-9.6528-30.17877"/>
<path transform="matrix(1.00005,0,0,-1.00002,53.075998,51.577775)" stroke-width=".79701" stroke-linecap="butt" stroke-miterlimit="10" stroke-linejoin="miter" fill="none" stroke="#409f9f" d="M-4.59077-26.7369-4.48007-29.4943"/>
<path transform="matrix(1.00005,0,0,-1.00002,53.075998,51.577775)" stroke-width=".79701" stroke-linecap="butt" stroke-miterlimit="10" stroke-linejoin="miter" fill="none" stroke="#409f9f" d="M-.98743-25.64319 .98602-28.77394"/>
<path transform="matrix(1.00005,0,0,-1.00002,53.075998,51.577775)" stroke-width=".79701" stroke-linecap="butt" stroke-miterlimit="10" stroke-linejoin="miter" fill="none" stroke="#409f9f" d="M2.60696-24.75992 6.46112-27.84319"/>
<path transform="matrix(1.00005,0,0,-1.00002,53.075998,51.577775)" stroke-width=".79701" stroke-linecap="butt" stroke-miterlimit="10" stroke-linejoin="miter" fill="none" stroke="#409f9f" d="M6.60545-24.07573 11.5321-26.71336"/>
<path transform="matrix(1.00005,0,0,-1.00002,53.075998,51.577775)" stroke-width=".79701" stroke-linecap="butt" stroke-miterlimit="10" stroke-linejoin="miter" fill="none" stroke="#409f9f" d="M10.94298-23.39738 16.26407-25.57765"/>
<path transform="matrix(1.00005,0,0,-1.00002,53.075998,51.577775)" stroke-width=".79701" stroke-linecap="butt" stroke-miterlimit="10" stroke-linejoin="miter" fill="none" stroke="#409f9f" d="M15.42549-22.64821 20.85107-24.51282"/>
<path transform="matrix(1.00005,0,0,-1.00002,53.075998,51.577775)" stroke-width=".79701" stroke-linecap="butt" stroke-miterlimit="10" stroke-linejoin="miter" fill="none" stroke="#409f9f" d="M19.9488-21.82858 25.39722-23.51839"/>
<path transform="matrix(1.00005,0,0,-1.00002,53.075998,51.577775)" stroke-width=".79701" stroke-linecap="butt" stroke-miterlimit="10" stroke-linejoin="miter" fill="none" stroke="#409f9f" d="M24.48288-20.94904 29.93268-22.58388"/>
<path transform="matrix(1.00005,0,0,-1.00002,53.075998,51.577775)" stroke-width=".79701" stroke-linecap="butt" stroke-miterlimit="10" stroke-linejoin="miter" fill="none" stroke="#409f9f" d="M29.0183-20.01457 34.4667-21.70436"/>
<path transform="matrix(1.00005,0,0,-1.00002,53.075998,51.577775)" stroke-width=".79701" stroke-linecap="butt" stroke-miterlimit="10" stroke-linejoin="miter" fill="none" stroke="#409f9f" d="M33.56444-19.02014 38.99002-20.88477"/>
<path transform="matrix(1.00005,0,0,-1.00002,53.075998,51.577775)" stroke-width=".79701" stroke-linecap="butt" stroke-miterlimit="10" stroke-linejoin="miter" fill="none" stroke="#409f9f" d="M38.15144-17.95529 43.47253-20.13556"/>
<path transform="matrix(1.00005,0,0,-1.00002,53.075998,51.577775)" stroke-width=".79701" stroke-linecap="butt" stroke-miterlimit="10" stroke-linejoin="miter" fill="none" stroke="#409f9f" d="M42.88339-16.8196 47.81004-19.45723"/>
<path transform="matrix(1.00005,0,0,-1.00002,53.075998,51.577775)" stroke-width=".79701" stroke-linecap="butt" stroke-miterlimit="10" stroke-linejoin="miter" fill="none" stroke="#409f9f" d="M47.95439-15.68976 51.80855-18.77303"/>
<path transform="matrix(1.00005,0,0,-1.00002,53.075998,51.577775)" stroke-width=".79701" stroke-linecap="butt" stroke-miterlimit="10" stroke-linejoin="miter" fill="none" stroke="#409f9f" d="M53.4281-14.75824 55.40433-17.89052"/>
<path transform="matrix(1.00005,0,0,-1.00002,53.075998,51.577775)" stroke-width=".79701" stroke-linecap="butt" stroke-miterlimit="10" stroke-linejoin="miter" fill="none" stroke="#409f9f" d="M58.8956-14.03865 59.0063-16.79605"/>
<path transform="matrix(1.00005,0,0,-1.00002,53.075998,51.577775)" stroke-width=".79701" stroke-linecap="butt" stroke-miterlimit="10" stroke-linejoin="miter" fill="none" stroke="#409f9f" d="M64.06833-13.35417 62.90308-15.66652"/>
<path transform="matrix(1.00005,0,0,-1.00002,53.075998,51.577775)" stroke-width=".79701" stroke-linecap="butt" stroke-miterlimit="10" stroke-linejoin="miter" fill="none" stroke="#409f9f" d="M68.99507-12.62338 67.04584-14.58325"/>
<path transform="matrix(1.00005,0,0,-1.00002,53.075998,51.577775)" stroke-width=".79701" stroke-linecap="butt" stroke-miterlimit="10" stroke-linejoin="miter" fill="none" stroke="#409f9f" d="M73.77408-11.84326 71.33632-13.54935"/>
<path transform="matrix(1.00005,0,0,-1.00002,53.075998,51.577775)" stroke-width=".79701" stroke-linecap="butt" stroke-miterlimit="10" stroke-linejoin="miter" fill="none" stroke="#409f9f" d="M-12.38605-33.61134-14.8238-35.31743"/>
<path transform="matrix(1.00005,0,0,-1.00002,53.075998,51.577775)" stroke-width=".79701" stroke-linecap="butt" stroke-miterlimit="10" stroke-linejoin="miter" fill="none" stroke="#409f9f" d="M-8.09557-32.57742-10.04478-34.5373"/>
<path transform="matrix(1.00005,0,0,-1.00002,53.075998,51.577775)" stroke-width=".79701" stroke-linecap="butt" stroke-miterlimit="10" stroke-linejoin="miter" fill="none" stroke="#409f9f" d="M-3.95279-31.49416-5.11806-33.8065"/>
<path transform="matrix(1.00005,0,0,-1.00002,53.075998,51.577775)" stroke-width=".79701" stroke-linecap="butt" stroke-miterlimit="10" stroke-linejoin="miter" fill="none" stroke="#409f9f" d="M-.05603-30.36462 .05466-33.12202"/>
<path transform="matrix(1.00005,0,0,-1.00002,53.075998,51.577775)" stroke-width=".79701" stroke-linecap="butt" stroke-miterlimit="10" stroke-linejoin="miter" fill="none" stroke="#409f9f" d="M3.54732-29.27092 5.52077-32.40167"/>
<path transform="matrix(1.00005,0,0,-1.00002,53.075998,51.577775)" stroke-width=".79701" stroke-linecap="butt" stroke-miterlimit="10" stroke-linejoin="miter" fill="none" stroke="#409f9f" d="M7.14171-28.38765 10.99586-31.47092"/>
<path transform="matrix(1.00005,0,0,-1.00002,53.075998,51.577775)" stroke-width=".79701" stroke-linecap="butt" stroke-miterlimit="10" stroke-linejoin="miter" fill="none" stroke="#409f9f" d="M11.1402-27.70346 16.06686-30.3411"/>
<path transform="matrix(1.00005,0,0,-1.00002,53.075998,51.577775)" stroke-width=".79701" stroke-linecap="butt" stroke-miterlimit="10" stroke-linejoin="miter" fill="none" stroke="#409f9f" d="M15.47774-27.02512 20.79883-29.20538"/>
<path transform="matrix(1.00005,0,0,-1.00002,53.075998,51.577775)" stroke-width=".79701" stroke-linecap="butt" stroke-miterlimit="10" stroke-linejoin="miter" fill="none" stroke="#409f9f" d="M19.96024-26.27592 25.38582-28.14055"/>
<path transform="matrix(1.00005,0,0,-1.00002,53.075998,51.577775)" stroke-width=".79701" stroke-linecap="butt" stroke-miterlimit="10" stroke-linejoin="miter" fill="none" stroke="#409f9f" d="M24.48355-25.45631 29.93198-27.1461"/>
<path transform="matrix(1.00005,0,0,-1.00002,53.075998,51.577775)" stroke-width=".79701" stroke-linecap="butt" stroke-miterlimit="10" stroke-linejoin="miter" fill="none" stroke="#409f9f" d="M29.01764-24.57675 34.46742-26.21161"/>
<path transform="matrix(1.00005,0,0,-1.00002,53.075998,51.577775)" stroke-width=".79701" stroke-linecap="butt" stroke-miterlimit="10" stroke-linejoin="miter" fill="none" stroke="#409f9f" d="M33.55304-23.64229 39.00146-25.33208"/>
<path transform="matrix(1.00005,0,0,-1.00002,53.075998,51.577775)" stroke-width=".79701" stroke-linecap="butt" stroke-miterlimit="10" stroke-linejoin="miter" fill="none" stroke="#409f9f" d="M38.0992-22.64787 43.52478-24.51248"/>
<path transform="matrix(1.00005,0,0,-1.00002,53.075998,51.577775)" stroke-width=".79701" stroke-linecap="butt" stroke-miterlimit="10" stroke-linejoin="miter" fill="none" stroke="#409f9f" d="M42.68619-21.58302 48.00728-23.76329"/>
<path transform="matrix(1.00005,0,0,-1.00002,53.075998,51.577775)" stroke-width=".79701" stroke-linecap="butt" stroke-miterlimit="10" stroke-linejoin="miter" fill="none" stroke="#409f9f" d="M47.41814-20.44733 52.3448-23.08496"/>
<path transform="matrix(1.00005,0,0,-1.00002,53.075998,51.577775)" stroke-width=".79701" stroke-linecap="butt" stroke-miterlimit="10" stroke-linejoin="miter" fill="none" stroke="#409f9f" d="M52.48914-19.31747 56.34329-22.40074"/>
<path transform="matrix(1.00005,0,0,-1.00002,53.075998,51.577775)" stroke-width=".79701" stroke-linecap="butt" stroke-miterlimit="10" stroke-linejoin="miter" fill="none" stroke="#409f9f" d="M57.96286-18.38597 59.93909-21.51823"/>
<path transform="matrix(1.00005,0,0,-1.00002,53.075998,51.577775)" stroke-width=".79701" stroke-linecap="butt" stroke-miterlimit="10" stroke-linejoin="miter" fill="none" stroke="#409f9f" d="M63.43036-17.66638 63.54106-20.42377"/>
<path transform="matrix(1.00005,0,0,-1.00002,53.075998,51.577775)" stroke-width=".79701" stroke-linecap="butt" stroke-miterlimit="10" stroke-linejoin="miter" fill="none" stroke="#409f9f" d="M68.60309-16.98189 67.43782-19.29424"/>
<path transform="matrix(1.00005,0,0,-1.00002,53.075998,51.577775)" stroke-width=".79701" stroke-linecap="butt" stroke-miterlimit="10" stroke-linejoin="miter" fill="none" stroke="#409f9f" d="M73.52982-16.2511 71.5806-18.21097"/>
<path transform="matrix(1.00005,0,0,-1.00002,53.075998,51.577775)" stroke-width=".79701" stroke-linecap="butt" stroke-miterlimit="10" stroke-linejoin="miter" fill="none" stroke="#409f9f" d="M78.30884-15.47098 75.87108-17.17708"/>
<path transform="matrix(1.00005,0,0,-1.00002,53.075998,51.577775)" stroke-width=".79701" stroke-linecap="butt" stroke-miterlimit="10" stroke-linejoin="miter" fill="none" stroke="#409f9f" d="M-7.85132-37.23907-10.28908-38.94516"/>
<path transform="matrix(1.00005,0,0,-1.00002,53.075998,51.577775)" stroke-width=".79701" stroke-linecap="butt" stroke-miterlimit="10" stroke-linejoin="miter" fill="none" stroke="#409f9f" d="M-3.56082-36.20515-5.51006-38.16502"/>
<path transform="matrix(1.00005,0,0,-1.00002,53.075998,51.577775)" stroke-width=".79701" stroke-linecap="butt" stroke-miterlimit="10" stroke-linejoin="miter" fill="none" stroke="#409f9f" d="M.58192-35.1219-.58333-37.43423"/>
<path transform="matrix(1.00005,0,0,-1.00002,53.075998,51.577775)" stroke-width=".79701" stroke-linecap="butt" stroke-miterlimit="10" stroke-linejoin="miter" fill="none" stroke="#409f9f" d="M4.4787-33.99236 4.5894-36.74976"/>
<path transform="matrix(1.00005,0,0,-1.00002,53.075998,51.577775)" stroke-width=".79701" stroke-linecap="butt" stroke-miterlimit="10" stroke-linejoin="miter" fill="none" stroke="#409f9f" d="M8.08205-32.89865 10.05551-36.0294"/>
<path transform="matrix(1.00005,0,0,-1.00002,53.075998,51.577775)" stroke-width=".79701" stroke-linecap="butt" stroke-miterlimit="10" stroke-linejoin="miter" fill="none" stroke="#409f9f" d="M11.67645-32.0154 15.53061-35.09865"/>
<path transform="matrix(1.00005,0,0,-1.00002,53.075998,51.577775)" stroke-width=".79701" stroke-linecap="butt" stroke-miterlimit="10" stroke-linejoin="miter" fill="none" stroke="#409f9f" d="M15.67494-31.33119 20.6016-33.96883"/>
<path transform="matrix(1.00005,0,0,-1.00002,53.075998,51.577775)" stroke-width=".79701" stroke-linecap="butt" stroke-miterlimit="10" stroke-linejoin="miter" fill="none" stroke="#409f9f" d="M20.01247-30.65285 25.33356-32.83311"/>
<path transform="matrix(1.00005,0,0,-1.00002,53.075998,51.577775)" stroke-width=".79701" stroke-linecap="butt" stroke-miterlimit="10" stroke-linejoin="miter" fill="none" stroke="#409f9f" d="M24.49496-29.90367 29.92056-31.76828"/>
<path transform="matrix(1.00005,0,0,-1.00002,53.075998,51.577775)" stroke-width=".79701" stroke-linecap="butt" stroke-miterlimit="10" stroke-linejoin="miter" fill="none" stroke="#409f9f" d="M29.0183-29.08405 34.4667-30.77385"/>
<path transform="matrix(1.00005,0,0,-1.00002,53.075998,51.577775)" stroke-width=".79701" stroke-linecap="butt" stroke-miterlimit="10" stroke-linejoin="miter" fill="none" stroke="#409f9f" d="M33.55237-28.2045 39.00215-29.83934"/>
<path transform="matrix(1.00005,0,0,-1.00002,53.075998,51.577775)" stroke-width=".79701" stroke-linecap="butt" stroke-miterlimit="10" stroke-linejoin="miter" fill="none" stroke="#409f9f" d="M38.08777-27.27003 43.5362-28.95982"/>
<path transform="matrix(1.00005,0,0,-1.00002,53.075998,51.577775)" stroke-width=".79701" stroke-linecap="butt" stroke-miterlimit="10" stroke-linejoin="miter" fill="none" stroke="#409f9f" d="M42.63393-26.2756 48.05951-28.14023"/>
<path transform="matrix(1.00005,0,0,-1.00002,53.075998,51.577775)" stroke-width=".79701" stroke-linecap="butt" stroke-miterlimit="10" stroke-linejoin="miter" fill="none" stroke="#409f9f" d="M47.22093-25.21075 52.542-27.39102"/>
<path transform="matrix(1.00005,0,0,-1.00002,53.075998,51.577775)" stroke-width=".79701" stroke-linecap="butt" stroke-miterlimit="10" stroke-linejoin="miter" fill="none" stroke="#409f9f" d="M51.95288-24.07506 56.87953-26.71269"/>
<path transform="matrix(1.00005,0,0,-1.00002,53.075998,51.577775)" stroke-width=".79701" stroke-linecap="butt" stroke-miterlimit="10" stroke-linejoin="miter" fill="none" stroke="#409f9f" d="M57.02388-22.94522 60.87804-26.02849"/>
<path transform="matrix(1.00005,0,0,-1.00002,53.075998,51.577775)" stroke-width=".79701" stroke-linecap="butt" stroke-miterlimit="10" stroke-linejoin="miter" fill="none" stroke="#409f9f" d="M62.49759-22.0137 64.47382-25.14598"/>
<path transform="matrix(1.00005,0,0,-1.00002,53.075998,51.577775)" stroke-width=".79701" stroke-linecap="butt" stroke-miterlimit="10" stroke-linejoin="miter" fill="none" stroke="#409f9f" d="M67.96509-21.29411 68.07579-24.05151"/>
<path transform="matrix(1.00005,0,0,-1.00002,53.075998,51.577775)" stroke-width=".79701" stroke-linecap="butt" stroke-miterlimit="10" stroke-linejoin="miter" fill="none" stroke="#409f9f" d="M73.13782-20.60963 71.97256-22.92198"/>
<path transform="matrix(1.00005,0,0,-1.00002,53.075998,51.577775)" stroke-width=".79701" stroke-linecap="butt" stroke-miterlimit="10" stroke-linejoin="miter" fill="none" stroke="#409f9f" d="M78.06456-19.87885 76.11533-21.83871"/>
<path transform="matrix(1.00005,0,0,-1.00002,53.075998,51.577775)" stroke-width=".79701" stroke-linecap="butt" stroke-miterlimit="10" stroke-linejoin="miter" fill="none" stroke="#409f9f" d="M82.84357-19.09872 80.4058-20.80481"/>
<path transform="matrix(1.00005,0,0,-1.00002,53.075998,51.577775)" stroke-width=".79701" stroke-linecap="butt" stroke-miterlimit="10" stroke-linejoin="miter" fill="none" stroke="#409f9f" d="M-3.31656-40.8668-5.75432-42.57289"/>
<path transform="matrix(1.00005,0,0,-1.00002,53.075998,51.577775)" stroke-width=".79701" stroke-linecap="butt" stroke-miterlimit="10" stroke-linejoin="miter" fill="none" stroke="#409f9f" d="M.9739-39.83289-.97531-41.79276"/>
<path transform="matrix(1.00005,0,0,-1.00002,53.075998,51.577775)" stroke-width=".79701" stroke-linecap="butt" stroke-miterlimit="10" stroke-linejoin="miter" fill="none" stroke="#409f9f" d="M5.11667-38.74962 3.95142-41.06197"/>
<path transform="matrix(1.00005,0,0,-1.00002,53.075998,51.577775)" stroke-width=".79701" stroke-linecap="butt" stroke-miterlimit="10" stroke-linejoin="miter" fill="none" stroke="#409f9f" d="M9.01344-37.62009 9.12415-40.37749"/>
<path transform="matrix(1.00005,0,0,-1.00002,53.075998,51.577775)" stroke-width=".79701" stroke-linecap="butt" stroke-miterlimit="10" stroke-linejoin="miter" fill="none" stroke="#409f9f" d="M12.61679-36.52638 14.59026-39.65714"/>
<path transform="matrix(1.00005,0,0,-1.00002,53.075998,51.577775)" stroke-width=".79701" stroke-linecap="butt" stroke-miterlimit="10" stroke-linejoin="miter" fill="none" stroke="#409f9f" d="M16.2112-35.64311 20.06535-38.72638"/>
<path transform="matrix(1.00005,0,0,-1.00002,53.075998,51.577775)" stroke-width=".79701" stroke-linecap="butt" stroke-miterlimit="10" stroke-linejoin="miter" fill="none" stroke="#409f9f" d="M20.20969-34.95892 25.13634-37.59656"/>
<path transform="matrix(1.00005,0,0,-1.00002,53.075998,51.577775)" stroke-width=".79701" stroke-linecap="butt" stroke-miterlimit="10" stroke-linejoin="miter" fill="none" stroke="#409f9f" d="M24.54723-34.28058 29.8683-36.46085"/>
<path transform="matrix(1.00005,0,0,-1.00002,53.075998,51.577775)" stroke-width=".79701" stroke-linecap="butt" stroke-miterlimit="10" stroke-linejoin="miter" fill="none" stroke="#409f9f" d="M29.02972-33.53139 34.4553-35.39601"/>
<path transform="matrix(1.00005,0,0,-1.00002,53.075998,51.577775)" stroke-width=".79701" stroke-linecap="butt" stroke-miterlimit="10" stroke-linejoin="miter" fill="none" stroke="#409f9f" d="M33.55304-32.71178 39.00146-34.40157"/>
<path transform="matrix(1.00005,0,0,-1.00002,53.075998,51.577775)" stroke-width=".79701" stroke-linecap="butt" stroke-miterlimit="10" stroke-linejoin="miter" fill="none" stroke="#409f9f" d="M38.08713-31.83221 43.53691-33.46707"/>
<path transform="matrix(1.00005,0,0,-1.00002,53.075998,51.577775)" stroke-width=".79701" stroke-linecap="butt" stroke-miterlimit="10" stroke-linejoin="miter" fill="none" stroke="#409f9f" d="M42.62253-30.89775 48.07094-32.58754"/>
<path transform="matrix(1.00005,0,0,-1.00002,53.075998,51.577775)" stroke-width=".79701" stroke-linecap="butt" stroke-miterlimit="10" stroke-linejoin="miter" fill="none" stroke="#409f9f" d="M47.16867-29.90334 52.59427-31.76794"/>
<path transform="matrix(1.00005,0,0,-1.00002,53.075998,51.577775)" stroke-width=".79701" stroke-linecap="butt" stroke-miterlimit="10" stroke-linejoin="miter" fill="none" stroke="#409f9f" d="M51.75568-28.83849 57.07677-31.01875"/>
<path transform="matrix(1.00005,0,0,-1.00002,53.075998,51.577775)" stroke-width=".79701" stroke-linecap="butt" stroke-miterlimit="10" stroke-linejoin="miter" fill="none" stroke="#409f9f" d="M56.48763-27.70279 61.41428-30.34042"/>
<path transform="matrix(1.00005,0,0,-1.00002,53.075998,51.577775)" stroke-width=".79701" stroke-linecap="butt" stroke-miterlimit="10" stroke-linejoin="miter" fill="none" stroke="#409f9f" d="M61.55862-26.57294 65.41278-29.6562"/>
<path transform="matrix(1.00005,0,0,-1.00002,53.075998,51.577775)" stroke-width=".79701" stroke-linecap="butt" stroke-miterlimit="10" stroke-linejoin="miter" fill="none" stroke="#409f9f" d="M67.03233-25.64143 69.00856-28.7737"/>
<path transform="matrix(1.00005,0,0,-1.00002,53.075998,51.577775)" stroke-width=".79701" stroke-linecap="butt" stroke-miterlimit="10" stroke-linejoin="miter" fill="none" stroke="#409f9f" d="M72.49983-24.92184 72.61053-27.67924"/>
<path transform="matrix(1.00005,0,0,-1.00002,53.075998,51.577775)" stroke-width=".79701" stroke-linecap="butt" stroke-miterlimit="10" stroke-linejoin="miter" fill="none" stroke="#409f9f" d="M77.67258-24.23735 76.50731-26.5497"/>
<path transform="matrix(1.00005,0,0,-1.00002,53.075998,51.577775)" stroke-width=".79701" stroke-linecap="butt" stroke-miterlimit="10" stroke-linejoin="miter" fill="none" stroke="#409f9f" d="M82.5993-23.50656 80.65007-25.46643"/>
<path transform="matrix(1.00005,0,0,-1.00002,53.075998,51.577775)" stroke-width=".79701" stroke-linecap="butt" stroke-miterlimit="10" stroke-linejoin="miter" fill="none" stroke="#409f9f" d="M87.37833-22.72646 84.94057-24.43254"/>
<path transform="matrix(1.00005,0,0,-1.00002,53.075998,51.577775)" stroke-width=".79701" stroke-linecap="butt" stroke-miterlimit="10" stroke-linejoin="miter" fill="none" stroke="#409f9f" d="M1.21817-44.49454-1.21957-46.20062"/>
<path transform="matrix(1.00005,0,0,-1.00002,53.075998,51.577775)" stroke-width=".79701" stroke-linecap="butt" stroke-miterlimit="10" stroke-linejoin="miter" fill="none" stroke="#409f9f" d="M5.50865-43.46062 3.55943-45.42049"/>
<path transform="matrix(1.00005,0,0,-1.00002,53.075998,51.577775)" stroke-width=".79701" stroke-linecap="butt" stroke-miterlimit="10" stroke-linejoin="miter" fill="none" stroke="#409f9f" d="M9.65143-42.37737 8.48616-44.6897"/>
<path transform="matrix(1.00005,0,0,-1.00002,53.075998,51.577775)" stroke-width=".79701" stroke-linecap="butt" stroke-miterlimit="10" stroke-linejoin="miter" fill="none" stroke="#409f9f" d="M13.54819-41.24782 13.65889-44.00522"/>
<path transform="matrix(1.00005,0,0,-1.00002,53.075998,51.577775)" stroke-width=".79701" stroke-linecap="butt" stroke-miterlimit="10" stroke-linejoin="miter" fill="none" stroke="#409f9f" d="M17.15155-40.15411 19.12502-43.28488"/>
<path transform="matrix(1.00005,0,0,-1.00002,53.075998,51.577775)" stroke-width=".79701" stroke-linecap="butt" stroke-miterlimit="10" stroke-linejoin="miter" fill="none" stroke="#409f9f" d="M20.74596-39.27086 24.60011-42.35411"/>
<path transform="matrix(1.00005,0,0,-1.00002,53.075998,51.577775)" stroke-width=".79701" stroke-linecap="butt" stroke-miterlimit="10" stroke-linejoin="miter" fill="none" stroke="#409f9f" d="M24.74443-38.58665 29.6711-41.22429"/>
<path transform="matrix(1.00005,0,0,-1.00002,53.075998,51.577775)" stroke-width=".79701" stroke-linecap="butt" stroke-miterlimit="10" stroke-linejoin="miter" fill="none" stroke="#409f9f" d="M29.08197-37.90831 34.40306-40.08858"/>
<path transform="matrix(1.00005,0,0,-1.00002,53.075998,51.577775)" stroke-width=".79701" stroke-linecap="butt" stroke-miterlimit="10" stroke-linejoin="miter" fill="none" stroke="#409f9f" d="M33.56447-37.15913 38.99005-39.02374"/>
<path transform="matrix(1.00005,0,0,-1.00002,53.075998,51.577775)" stroke-width=".79701" stroke-linecap="butt" stroke-miterlimit="10" stroke-linejoin="miter" fill="none" stroke="#409f9f" d="M38.08778-36.33952 43.53621-38.02931"/>
<path transform="matrix(1.00005,0,0,-1.00002,53.075998,51.577775)" stroke-width=".79701" stroke-linecap="butt" stroke-miterlimit="10" stroke-linejoin="miter" fill="none" stroke="#409f9f" d="M42.62187-35.45996 48.07166-37.09482"/>
<path transform="matrix(1.00005,0,0,-1.00002,53.075998,51.577775)" stroke-width=".79701" stroke-linecap="butt" stroke-miterlimit="10" stroke-linejoin="miter" fill="none" stroke="#409f9f" d="M47.15727-34.5255 52.6057-36.21529"/>
<path transform="matrix(1.00005,0,0,-1.00002,53.075998,51.577775)" stroke-width=".79701" stroke-linecap="butt" stroke-miterlimit="10" stroke-linejoin="miter" fill="none" stroke="#409f9f" d="M51.70343-33.53107 57.12901-35.39569"/>
<path transform="matrix(1.00005,0,0,-1.00002,53.075998,51.577775)" stroke-width=".79701" stroke-linecap="butt" stroke-miterlimit="10" stroke-linejoin="miter" fill="none" stroke="#409f9f" d="M56.29042-32.46622 61.61151-34.64648"/>
<path transform="matrix(1.00005,0,0,-1.00002,53.075998,51.577775)" stroke-width=".79701" stroke-linecap="butt" stroke-miterlimit="10" stroke-linejoin="miter" fill="none" stroke="#409f9f" d="M61.02237-31.33052 65.94904-33.96815"/>
<path transform="matrix(1.00005,0,0,-1.00002,53.075998,51.577775)" stroke-width=".79701" stroke-linecap="butt" stroke-miterlimit="10" stroke-linejoin="miter" fill="none" stroke="#409f9f" d="M66.09337-30.20068 69.94754-33.28395"/>
<path transform="matrix(1.00005,0,0,-1.00002,53.075998,51.577775)" stroke-width=".79701" stroke-linecap="butt" stroke-miterlimit="10" stroke-linejoin="miter" fill="none" stroke="#409f9f" d="M71.5671-29.26917 73.54332-32.40144"/>
<path transform="matrix(1.00005,0,0,-1.00002,53.075998,51.577775)" stroke-width=".79701" stroke-linecap="butt" stroke-miterlimit="10" stroke-linejoin="miter" fill="none" stroke="#409f9f" d="M77.03459-28.54958 77.1453-31.30698"/>
<path transform="matrix(1.00005,0,0,-1.00002,53.075998,51.577775)" stroke-width=".79701" stroke-linecap="butt" stroke-miterlimit="10" stroke-linejoin="miter" fill="none" stroke="#409f9f" d="M82.20732-27.8651 81.04205-30.17744"/>
<path transform="matrix(1.00005,0,0,-1.00002,53.075998,51.577775)" stroke-width=".79701" stroke-linecap="butt" stroke-miterlimit="10" stroke-linejoin="miter" fill="none" stroke="#409f9f" d="M87.13405-27.13431 85.18483-29.09418"/>
<path transform="matrix(1.00005,0,0,-1.00002,53.075998,51.577775)" stroke-width=".79701" stroke-linecap="butt" stroke-miterlimit="10" stroke-linejoin="miter" fill="none" stroke="#409f9f" d="M91.91307-26.35419 89.47531-28.06027"/>
</svg>
