<svg xmlns="http://www.w3.org/2000/svg" xmlns:xlink="http://www.w3.org/1999/xlink" version="1.1" width="117" height="49" viewBox="0 0 117 49">
<defs>
<path id="font_1_1" d="M.42799378 .45222474 .43899537 .49023438H.31199647L.34599305 .6092224 .33399964 .6162262 .23699951 .53923037 .22399903 .49023438H.14299011L.13198853 .45222474H.21499634L.125 .08627319C.10998535 .029266358 .12199402-.01171875 .17199707-.01171875 .2519989-.01171875 .31599427 .054275514 .35598756 .1292572L.33399964 .1462555C.31098939 .10726929 .2599945 .040267946 .22898865 .040267946 .20799256 .040267946 .20799256 .0632782 .21398926 .088272098L.30299378 .45222474H.42799378Z"/>
<path id="font_2_1" d="M.07398987 .2861328V.21612549H.31900025V.2861328H.07398987Z"/>
<path id="font_2_5" d="M.2999878 .17871094V.0769043C.2999878 .04296875 .2889862 .036987306 .2649994 .034988405L.20098877 .0289917V0H.46499635V.0289917L.41999818 .033981325C.39698792 .036987306 .3899994 .04296875 .3899994 .0769043V.17871094H.49299623V.22570801H.3899994V.66796877H.31698609C.22299195 .5298767 .11099243 .35577394 .018997193 .19970703L.027999878 .17871094H.2999878M.09098816 .22570801C.15098572 .33476258 .22099304 .4498291 .2979889 .5709076H.2999878V.22570801H.09098816Z"/>
<path id="font_2_4" d="M.12998963 .3657837C.12998963 .3487854 .1349945 .33779908 .147995 .33779908 .1599884 .33779908 .18699646 .34777833 .23498535 .34777833 .31999208 .34777833 .36799623 .27090455 .36799623 .18403626 .36799623 .065216068 .30899049 .023269654 .23799134 .023269654 .17199707 .023269654 .1289978 .07319641 .10998535 .12911988 .10398865 .14808655 .09399414 .15707398 .07998657 .15707398 .06199646 .15707398 .026992798 .13809204 .026992798 .10215759 .026992798 .05921936 .09599304-.01171875 .23699951-.01171875 .38198854-.01171875 .47299195 .06121826 .47299195 .18902588 .47299195 .32281495 .35798646 .3627777 .30299378 .3677826V.3717804C.35699464 .38078309 .44400025 .4207611 .44400025 .5197296 .44400025 .6306915 .35699464 .6796875 .25 .6796875 .117996219 .6796875 .052993776 .60369876 .052993776 .5607147 .052993776 .5297241 .08799744 .51272585 .101989749 .51272585 .114990238 .51272585 .12298584 .5197296 .1269989 .5327301 .14898682 .60069277 .18699646 .64468386 .24299622 .64468386 .32199098 .64468386 .34098817 .57470706 .34098817 .51872256 .34098817 .4587555 .31999208 .38378907 .23498535 .38378907 .18699646 .38378907 .1599884 .39378358 .147995 .39378358 .1349945 .39378358 .12998963 .38378907 .12998963 .3657837Z"/>
<path id="font_2_3" d="M.4850006 .13195801 .45700074 .13696289C.43598939 .08299255 .41600038 .07598877 .37599183 .07598877H.11999512C.13598633 .1279602 .19499207 .19892884 .28799439 .2658844 .38398744 .33584596 .45799256 .38082887 .45799256 .49276734 .45799256 .63168337 .3659973 .6796875 .26098634 .6796875 .12399292 .6796875 .052993776 .5967102 .052993776 .54473879 .052993776 .51075747 .09098816 .49476625 .10798645 .49476625 .12599182 .49476625 .1329956 .50476077 .13699341 .5217438 .15299988 .5897064 .19198609 .64468386 .2539978 .64468386 .33099366 .64468386 .35299684 .5797119 .35299684 .50675967 .35299684 .3998108 .29899598 .33984376 .21199036 .26289369 .08898926 .15594483 .04598999 .08798218 .026992798 .009994507L.036987306 0H.45098878L.4850006 .13195801Z"/>
<path id="font_2_2" d="M.43699647 0V.0289917L.35299684 .035995485C.33198548 .037994386 .31999208 .04598999 .31999208 .08496094V.67367556L.31498719 .6796875 .10899353 .6446991V.6197052L.20199585 .6087036C.21899414 .6067047 .22599793 .5987091 .22599793 .56973269V.08496094C.22599793 .065979007 .22299195 .053985597 .21699524 .04698181 .21199036 .039993287 .20399475 .036987306 .19299317 .035995485L.10899353 .0289917V0H.43699647Z"/>
<path id="font_2_6" d="M.42599488 .5919647 .44999696 .6599579 .44499208 .66796877H.11099243L.100997928 .65896609 .08099365 .32388307 .10499573 .31188966C.14698792 .35983277 .18798828 .3828125 .24198914 .3828125 .30599977 .3828125 .37599183 .3358612 .37599183 .20404053 .37599183 .10116577 .33399964 .023269654 .24699402 .023269654 .1769867 .023269654 .14099121 .07420349 .12098694 .13113404 .115997318 .14611817 .10699463 .15510559 .09298706 .15510559 .07299805 .15510559 .039993287 .13513184 .039993287 .10217285 .039993287 .056228639 .10998535-.01171875 .23999024-.01171875 .40499879-.01171875 .47999574 .0881958 .47999574 .21502686 .47999574 .35484315 .3919983 .4268036 .272995 .4268036 .21798706 .4268036 .15899658 .4028015 .1269989 .3738098L.125 .37580873 .147995 .56292727C.15098572 .58795168 .1579895 .5919647 .1769867 .5919647H.42599488Z"/>
</defs>
<path transform="matrix(1.00003,0,0,-1.00003,52.831575,30.146426)" d="M-51.02345-17.00781V28.34636H0V-17.00781ZM0 28.34636" fill="#d9d9ec"/>
<path transform="matrix(1.00003,0,0,-1.00003,52.831575,30.146426)" d="M0-17.00781V28.34636H22.6771V-17.00781ZM22.6771 28.34636" fill="#bfdfbf"/>
<path transform="matrix(1.00003,0,0,-1.00003,52.831575,30.146426)" d="M22.6771-17.00781V28.34636H62.36201V-17.00781ZM62.36201 28.34636" fill="#dfbfbf"/>
<path transform="matrix(1.00003,0,0,-1.00003,52.831575,30.146426)" stroke-width=".3985" stroke-linecap="butt" stroke-miterlimit="10" stroke-linejoin="miter" fill="none" stroke="#000000" d="M-51.02345 0H61.90375"/>
<path transform="matrix(1.00003,0,0,-1.00003,114.73718,30.146426)" stroke-width=".31879" stroke-linecap="round" stroke-linejoin="round" fill="none" stroke="#000000" d="M-1.19551 1.59401C-1.09587 .99626 0 .09961 .29886 0 0-.09961-1.09587-.99626-1.19551-1.59401"/>
<path transform="matrix(1.00003,0,0,-1.00003,52.831575,30.146426)" stroke-width=".3985" stroke-linecap="butt" stroke-miterlimit="10" stroke-linejoin="miter" fill="none" stroke="#000000" d="M0-17.00781V27.88808"/>
<path transform="matrix(0,-1.00003,-1.00003,-0,52.831575,2.2575074)" stroke-width=".31879" stroke-linecap="round" stroke-linejoin="round" fill="none" stroke="#000000" d="M-1.19551 1.59401C-1.09587 .99626 0 .09961 .29886 0 0-.09961-1.09587-.99626-1.19551-1.59401"/>
<use data-text="t" xlink:href="#font_1_1" transform="matrix(7.3327205,0,0,-7.3327205,112.49937,38.064664)"/>
<path transform="matrix(1.00003,0,0,-1.00003,52.831575,30.146426)" stroke-width=".3985" stroke-linecap="butt" stroke-miterlimit="10" stroke-linejoin="miter" fill="none" stroke="#929292" d="M-45.35419 1.13391V-1.13391"/>
<use data-text="-" xlink:href="#font_2_1" transform="matrix(7.3327205,0,0,-7.3327205,4.0921099,39.3627)"/>
<use data-text="4" xlink:href="#font_2_5" transform="matrix(7.3327205,0,0,-7.3327205,6.9665377,39.3627)"/>
<path transform="matrix(1.00003,0,0,-1.00003,52.831575,30.146426)" stroke-width=".3985" stroke-linecap="butt" stroke-miterlimit="10" stroke-linejoin="miter" fill="none" stroke="#929292" d="M-34.01564 1.13391V-1.13391"/>
<use data-text="-" xlink:href="#font_2_1" transform="matrix(7.3327205,0,0,-7.3327205,15.43145,39.3627)"/>
<use data-text="3" xlink:href="#font_2_4" transform="matrix(7.3327205,0,0,-7.3327205,18.305878,39.3627)"/>
<path transform="matrix(1.00003,0,0,-1.00003,52.831575,30.146426)" stroke-width=".3985" stroke-linecap="butt" stroke-miterlimit="10" stroke-linejoin="miter" fill="none" stroke="#929292" d="M-22.6771 1.13391V-1.13391"/>
<use data-text="-" xlink:href="#font_2_1" transform="matrix(7.3327205,0,0,-7.3327205,26.77079,39.3627)"/>
<use data-text="2" xlink:href="#font_2_3" transform="matrix(7.3327205,0,0,-7.3327205,29.645218,39.3627)"/>
<path transform="matrix(1.00003,0,0,-1.00003,52.831575,30.146426)" stroke-width=".3985" stroke-linecap="butt" stroke-miterlimit="10" stroke-linejoin="miter" fill="none" stroke="#929292" d="M-11.33855 1.13391V-1.13391"/>
<use data-text="-" xlink:href="#font_2_1" transform="matrix(7.3327205,0,0,-7.3327205,38.10913,39.3627)"/>
<use data-text="1" xlink:href="#font_2_2" transform="matrix(7.3327205,0,0,-7.3327205,40.98356,39.3627)"/>
<path transform="matrix(1.00003,0,0,-1.00003,52.831575,30.146426)" stroke-width=".3985" stroke-linecap="butt" stroke-miterlimit="10" stroke-linejoin="miter" fill="none" stroke="#929292" d="M11.33855 1.13391V-1.13391"/>
<use data-text="1" xlink:href="#font_2_2" transform="matrix(7.3327205,0,0,-7.3327205,62.225858,39.3627)"/>
<path transform="matrix(1.00003,0,0,-1.00003,52.831575,30.146426)" stroke-width=".3985" stroke-linecap="butt" stroke-miterlimit="10" stroke-linejoin="miter" fill="none" stroke="#929292" d="M22.6771 1.13391V-1.13391"/>
<use data-text="2" xlink:href="#font_2_3" transform="matrix(7.3327205,0,0,-7.3327205,73.56419,39.3627)"/>
<path transform="matrix(1.00003,0,0,-1.00003,52.831575,30.146426)" stroke-width=".3985" stroke-linecap="butt" stroke-miterlimit="10" stroke-linejoin="miter" fill="none" stroke="#929292" d="M34.01564 1.13391V-1.13391"/>
<use data-text="3" xlink:href="#font_2_4" transform="matrix(7.3327205,0,0,-7.3327205,84.903537,39.3627)"/>
<path transform="matrix(1.00003,0,0,-1.00003,52.831575,30.146426)" stroke-width=".3985" stroke-linecap="butt" stroke-miterlimit="10" stroke-linejoin="miter" fill="none" stroke="#929292" d="M45.35419 1.13391V-1.13391"/>
<use data-text="4" xlink:href="#font_2_5" transform="matrix(7.3327205,0,0,-7.3327205,96.24188,39.3627)"/>
<path transform="matrix(1.00003,0,0,-1.00003,52.831575,30.146426)" stroke-width=".3985" stroke-linecap="butt" stroke-miterlimit="10" stroke-linejoin="miter" fill="none" stroke="#929292" d="M56.69275 1.13391V-1.13391"/>
<use data-text="5" xlink:href="#font_2_6" transform="matrix(7.3327205,0,0,-7.3327205,107.58122,39.3627)"/>
<path transform="matrix(1.00003,0,0,-1.00003,52.831575,30.146426)" stroke-width=".3985" stroke-linecap="butt" stroke-miterlimit="10" stroke-linejoin="miter" fill="none" stroke="#929292" d="M1.13391-11.33855H-1.13391"/>
<use data-text="-" xlink:href="#font_2_1" transform="matrix(7.3327205,0,0,-7.3327205,43.7993,43.93984)"/>
<use data-text="1" xlink:href="#font_2_2" transform="matrix(7.3327205,0,0,-7.3327205,46.67373,43.93984)"/>
<path transform="matrix(1.00003,0,0,-1.00003,52.831575,30.146426)" stroke-width=".3985" stroke-linecap="butt" stroke-miterlimit="10" stroke-linejoin="miter" fill="none" stroke="#929292" d="M1.13391 11.33855H-1.13391"/>
<use data-text="1" xlink:href="#font_2_2" transform="matrix(7.3327205,0,0,-7.3327205,46.67739,21.262158)"/>
<path transform="matrix(1.00003,0,0,-1.00003,52.831575,30.146426)" stroke-width=".3985" stroke-linecap="butt" stroke-miterlimit="10" stroke-linejoin="miter" fill="none" stroke="#929292" d="M1.13391 22.6771H-1.13391"/>
<use data-text="2" xlink:href="#font_2_3" transform="matrix(7.3327205,0,0,-7.3327205,46.67739,9.923819)"/>
<path transform="matrix(1.00003,0,0,-1.00003,52.831575,30.146426)" stroke-width="1.19553" stroke-linecap="butt" stroke-miterlimit="10" stroke-linejoin="miter" fill="none" stroke="#8080bf" d="M-51.02345 11.08351-50.5174 10.9657-50.01134 10.8259-49.50528 10.66516-48.99922 10.48247-48.49315 10.2797-47.98709 10.05565-47.48103 9.81221-46.97498 9.54872-46.46892 9.26671-45.96284 8.96585-45.45679 8.64732-44.95073 8.31151-44.44464 7.95908-43.93858 7.59108-43.43253 7.2075-42.92647 6.81029-42.42041 6.39867-41.91435 5.9748-41.4083 5.53899-40.90222 5.0919-40.39616 4.63498-39.8901 4.16855-39.38405 3.69415-38.87798 3.21196-38.37192 2.72354-37.86586 2.22993-37.3598 1.73166-36.85374 1.22992-36.34767 .72595-35.8416 .2204-35.33554-.28528-34.82948-.79083-34.32343-1.29463-33.81737-1.79585-33.3113-2.29361-32.80524-2.78651-32.29918-3.27443-31.79312-3.7554-31.28705-4.2291-30.78099-4.69398-30.27493-5.15004-29.76888-5.59555-29.26282-6.03-28.75674-6.4523-28.25069-6.862-27.74463-7.25769-27.23856-7.63919-26.7325-8.00545-26.22644-8.35545-25.72037-8.68936-25.21431-9.00563-24.70825-9.30391-24.20218-9.58383-23.69612-9.84456-23.19006-10.08574-22.684-10.30669-22.17795-10.50739-21.67189-10.68697-21.16582-10.84544-20.65976-10.98195-20.1537-11.09683-19.64764-11.18958-19.14157-11.26-18.6355-11.3079-18.12944-11.33351-17.62338-11.3368-17.11732-11.31673-16.61125-11.27486-16.1052-11.20981-15.59914-11.12312-15.09308-11.01396-14.58702-10.88281-14.08096-10.73022-13.57489-10.556-13.06883-10.36119-12.56277-10.1451-12.05672-9.90945-11.55066-9.65338-11.04459-9.37865-10.53851-9.08504-10.03246-8.77328-9.5264-8.44403-9.02032-8.098-8.51427-7.73624-8.00821-7.35837-7.50215-6.9665-6.9961-6.56027-6.49004-6.14105-5.98396-5.70975-5.4779-5.26701-4.97185-4.81389-4.46579-4.3509-3.95972-3.87961-3.45366-3.40038-2.9476-2.91438-2.44154-2.42232-1.93547-1.92578-1.4294-1.42543-.92334-.92215"/>
<path transform="matrix(1.00003,0,0,-1.00003,52.831575,30.146426)" stroke-width="1.19553" stroke-linecap="butt" stroke-miterlimit="10" stroke-linejoin="miter" fill="none" stroke="#409f40" d="M0 11.33855 .21988 11.12347 .43977 10.90912 .65968 10.70047 .87958 10.49405 1.09947 10.2932 1.31937 10.09474 1.53929 9.9008 1.75919 9.71152 1.97908 9.52432 2.19897 9.3418 2.41887 9.16255 2.63876 8.98677 2.85866 8.81323 3.07858 8.6442 3.29848 8.47864 3.51837 8.3153 3.73827 8.15544 3.95816 7.99886 4.17805 7.84576 4.39795 7.69507 4.61787 7.54749 4.83777 7.40233 5.05766 7.25941 5.27756 7.11996 5.49745 6.98381 5.71735 6.85007 5.93724 6.7184 6.15717 6.58917 6.37706 6.46217 6.59695 6.33847 6.81685 6.21597 7.03674 6.09694 7.25664 5.98016 7.47653 5.86441 7.69646 5.75214 7.91635 5.64227 8.13625 5.53326 8.35614 5.4279 8.57603 5.32358 8.79593 5.22029 9.01582 5.12045 9.23575 5.02185 9.45564 4.92548 9.67554 4.83134 9.89543 4.73828 10.11534 4.64761 10.33524 4.558 10.55513 4.47063 10.77504 4.38448 10.99493 4.30055 11.21483 4.21768 11.43472 4.13722 11.65463 4.05782 11.87453 3.97963 12.09442 3.90247 12.31433 3.82755 12.53423 3.75383 12.75412 3.68239 12.97401 3.61093 13.19392 3.54172 13.41382 3.47374 13.63371 3.40677 13.85362 3.34224 14.07352 3.27753 14.29341 3.21507 14.5133 3.15279 14.73322 3.09258 14.95311 3.03255 15.173 2.97476 15.39291 2.91801 15.61281 2.86127 15.8327 2.80693 16.0526 2.75243 16.2725 2.70018 16.4924 2.64812 16.7123 2.59706 16.9322 2.54707 17.1521 2.49846 17.372 2.44968 17.59189 2.40312 17.8118 2.35658 18.0317 2.31125 18.25159 2.26697 18.4715 2.22389 18.6914 2.1808 18.9113 2.13895 19.1312 2.09811 19.35109 2.05728 19.57098 2.01869 19.79088 1.9789 20.01079 1.94153 20.2307 1.90416 20.45059 1.86783 20.67049 1.8315 20.89038 1.79637 21.11028 1.76228 21.33017 1.72838 21.55008 1.6943 21.76999 1.66246"/>
<path transform="matrix(1.00003,0,0,-1.00003,52.831575,30.146426)" stroke-width="1.19553" stroke-linecap="butt" stroke-miterlimit="10" stroke-linejoin="miter" fill="none" stroke="#9f4040" d="M22.6771-11.33855 23.07777-11.13818 23.47847-10.93784 23.87917-10.73749 24.27988-10.53714 24.68057-10.33679 25.08127-10.13644 25.48196-9.9361 25.88268-9.73575 26.28336-9.5354 26.68405-9.33505 27.08475-9.13469 27.48544-8.93434 27.88615-8.734 28.28685-8.53366 28.68755-8.33331 29.08823-8.13297 29.48894-7.93262 29.88962-7.73227 30.29033-7.5319 30.69102-7.33156 31.09172-7.13121 31.49243-6.93086 31.89311-6.73051 32.29381-6.53017 32.6945-6.32982 33.0952-6.12947 33.4959-5.92912 33.8966-5.72878 34.2973-5.52843 34.698-5.32808 35.0987-5.12773 35.49939-4.92738 35.90009-4.72704 36.30078-4.52669 36.70148-4.32634 37.10217-4.12599 37.50288-3.92563 37.90356-3.72528 38.30426-3.52493 38.70497-3.32458 39.10567-3.12424 39.50636-2.92389 39.90706-2.72354 40.30775-2.52321 40.70845-2.32286 41.10915-2.12251 41.50984-1.92215 41.91054-1.7218 42.31125-1.52145 42.71194-1.3211 43.11264-1.12076 43.51334-.92041 43.91402-.72006 44.31471-.51971 44.71542-.31935 45.11612-.119 45.51682 .0813 45.91753 .28166 46.31822 .482 46.7189 .68234 47.1196 .88269 47.5203 1.08304 47.92099 1.28339 48.3217 1.48373 48.7224 1.68408 49.1231 1.88443 49.5238 2.08478 49.92448 2.28513 50.32518 2.48549 50.72588 2.68584 51.12657 2.88618 51.52727 3.08653 51.92798 3.28688 52.32867 3.48721 52.72935 3.68756 53.13007 3.88792 53.53076 4.08827 53.93146 4.28862 54.33215 4.48897 54.73285 4.68932 55.13354 4.88966 55.53426 5.09001 55.93494 5.29036 56.33563 5.4907 56.73634 5.69106 57.13704 5.8914 57.53773 6.09177 57.93843 6.2921 58.33913 6.49245 58.7398 6.6928 59.14052 6.89314 59.54121 7.09349 59.94191 7.29384 60.34262 7.4942 60.74332 7.69455 61.14401 7.8949 61.5447 8.09525 61.94539 8.2956 62.34608 8.49594"/>
<path transform="matrix(1.00003,0,0,-1.00003,52.831575,30.146426)" stroke-width=".79701" stroke-linecap="butt" stroke-miterlimit="10" stroke-linejoin="miter" fill="none" stroke="#8080bf" d="M1.19551 0C1.19551 .66026 .66026 1.19551 0 1.19551-.66026 1.19551-1.19551 .66026-1.19551 0-1.19551-.66026-.66026-1.19551 0-1.19551 .66026-1.19551 1.19551-.66026 1.19551 0ZM0 0"/>
<path transform="matrix(1.00003,0,0,-1.00003,52.831575,30.146426)" d="M1.59401 11.33855C1.59401 12.2189 .88036 12.93256 0 12.93256-.88036 12.93256-1.59401 12.2189-1.59401 11.33855-1.59401 10.45818-.88036 9.74452 0 9.74452 .88036 9.74452 1.59401 10.45818 1.59401 11.33855ZM0 11.33855" fill="#409f40"/>
<path transform="matrix(1.00003,0,0,-1.00003,52.831575,30.146426)" stroke-width=".79701" stroke-linecap="butt" stroke-miterlimit="10" stroke-linejoin="miter" fill="none" stroke="#409f40" d="M23.8726 1.53444C23.8726 2.1947 23.33736 2.72995 22.6771 2.72995 22.01682 2.72995 21.48157 2.1947 21.48157 1.53444 21.48157 .87416 22.01682 .33891 22.6771 .33891 23.33736 .33891 23.8726 .87416 23.8726 1.53444ZM22.6771 1.53444"/>
<path transform="matrix(1.00003,0,0,-1.00003,52.831575,30.146426)" d="M24.2711-11.33855C24.2711-10.45818 23.55745-9.74452 22.6771-9.74452 21.79672-9.74452 21.08307-10.45818 21.08307-11.33855 21.08307-12.2189 21.79672-12.93256 22.6771-12.93256 23.55745-12.93256 24.2711-12.2189 24.2711-11.33855ZM22.6771-11.33855" fill="#9f4040"/>
</svg>
