<svg xmlns="http://www.w3.org/2000/svg" xmlns:xlink="http://www.w3.org/1999/xlink" version="1.1" width="7" height="71" viewBox="0 0 7 71">
<path transform="matrix(1.00003,0,0,-1,3.0611039,36.014)" stroke-width=".79701" stroke-linecap="butt" stroke-miterlimit="10" stroke-linejoin="miter" fill="none" stroke="#000000" d="M0-34.01628V34.01628"/>
<path transform="matrix(1.00003,0,0,-1,3.0611039,36.014)" stroke-width=".79701" stroke-linecap="butt" stroke-miterlimit="10" stroke-linejoin="miter" fill="none" stroke="#005959" d="M0 29.48083V29.80322"/>
<path transform="matrix(0,1,1.00003,0,3.0611039,6.210779)" d="M2.59026 0-1.55415 2.0722 0 0-1.55415-2.0722" fill="#005959"/>
<path transform="matrix(1.00003,0,0,-1,3.0611039,36.014)" d="M1.59404 22.67752C1.59404 23.55789 .88037 24.27156 0 24.27156-.88037 24.27156-1.59404 23.55789-1.59404 22.67752-1.59404 21.79713-.88037 21.08347 0 21.08347 .88037 21.08347 1.59404 21.79713 1.59404 22.67752ZM0 22.67752"/>
<path transform="matrix(1.00003,0,0,-1,3.0611039,36.014)" stroke-width=".3985" stroke-linecap="butt" stroke-miterlimit="10" stroke-linejoin="miter" fill="none" stroke="#000000" d="M1.59404 22.67752C1.59404 23.55789 .88037 24.27156 0 24.27156-.88037 24.27156-1.59404 23.55789-1.59404 22.67752-1.59404 21.79713-.88037 21.08347 0 21.08347 .88037 21.08347 1.59404 21.79713 1.59404 22.67752ZM0 22.67752"/>
<path transform="matrix(1.00003,0,0,-1,3.0611039,36.014)" stroke-width=".79701" stroke-linecap="butt" stroke-miterlimit="10" stroke-linejoin="miter" fill="none" stroke="#005959" d="M0 9.07086V8.74849"/>
<path transform="matrix(0,-1,-1.00003,-0,3.0611039,27.26551)" d="M2.59026 0-1.55415 2.0722 0 0-1.55415-2.0722" fill="#005959"/>
<path transform="matrix(1.00003,0,0,-1,3.0611039,36.014)" d="M1.59404 0C1.59404 .88037 .88037 1.59404 0 1.59404-.88037 1.59404-1.59404 .88037-1.59404 0-1.59404-.88037-.88037-1.59404 0-1.59404 .88037-1.59404 1.59404-.88037 1.59404 0ZM0 0"/>
<path transform="matrix(1.00003,0,0,-1,3.0611039,36.014)" stroke-width=".3985" stroke-linecap="butt" stroke-miterlimit="10" stroke-linejoin="miter" fill="none" stroke="#000000" d="M1.59404 0C1.59404 .88037 .88037 1.59404 0 1.59404-.88037 1.59404-1.59404 .88037-1.59404 0-1.59404-.88037-.88037-1.59404 0-1.59404 .88037-1.59404 1.59404-.88037 1.59404 0ZM0 0"/>
<path transform="matrix(1.00003,0,0,-1,3.0611039,36.014)" stroke-width=".79701" stroke-linecap="butt" stroke-miterlimit="10" stroke-linejoin="miter" fill="none" stroke="#005959" d="M0-4.53543V-4.21304"/>
<path transform="matrix(0,1,1.00003,0,3.0611039,40.22704)" d="M2.59026 0-1.55415 2.0722 0 0-1.55415-2.0722" fill="#005959"/>
<path transform="matrix(1.00003,0,0,-1,3.0611039,36.014)" d="M1.59404-22.67752C1.59404-21.79713 .88037-21.08347 0-21.08347-.88037-21.08347-1.59404-21.79713-1.59404-22.67752-1.59404-23.55789-.88037-24.27156 0-24.27156 .88037-24.27156 1.59404-23.55789 1.59404-22.67752ZM0-22.67752"/>
<path transform="matrix(1.00003,0,0,-1,3.0611039,36.014)" stroke-width=".3985" stroke-linecap="butt" stroke-miterlimit="10" stroke-linejoin="miter" fill="none" stroke="#000000" d="M1.59404-22.67752C1.59404-21.79713 .88037-21.08347 0-21.08347-.88037-21.08347-1.59404-21.79713-1.59404-22.67752-1.59404-23.55789-.88037-24.27156 0-24.27156 .88037-24.27156 1.59404-23.55789 1.59404-22.67752ZM0-22.67752"/>
<path transform="matrix(1.00003,0,0,-1,3.0611039,36.014)" stroke-width=".79701" stroke-linecap="butt" stroke-miterlimit="10" stroke-linejoin="miter" fill="none" stroke="#005959" d="M0-22.67752V-22.35513"/>
<path transform="matrix(0,1,1.00003,0,3.0611039,58.36913)" d="M2.59026 0-1.55415 2.0722 0 0-1.55415-2.0722" fill="#005959"/>
</svg>
