<svg xmlns="http://www.w3.org/2000/svg" xmlns:xlink="http://www.w3.org/1999/xlink" version="1.1" width="204" height="173" viewBox="0 0 204 173">
<defs>
<path id="font_1_1" d="M.42799378 .45222474 .43899537 .49023438H.31199647L.34599305 .6092224 .33399964 .6162262 .23699951 .53923037 .22399903 .49023438H.14299011L.13198853 .45222474H.21499634L.125 .08627319C.10998535 .029266358 .12199402-.01171875 .17199707-.01171875 .2519989-.01171875 .31599427 .054275514 .35598756 .1292572L.33399964 .1462555C.31098939 .10726929 .2599945 .040267946 .22898865 .040267946 .20799256 .040267946 .20799256 .0632782 .21398926 .088272098L.30299378 .45222474H.42799378Z"/>
<path id="font_1_2" d="M.070999149 .45393373 .07398987 .42893983 .14199829 .43093873C.1639862 .43193055 .16899109 .41493226 .1769867 .36291505 .18798828 .28489686 .20999146 .09286499 .20999146 .0128479 .20999146-.017166138 .20799256-.058166505 .18598938-.11117554 .16799927-.15318299 .14199829-.18218994 .12199402-.18218994 .10699463-.18218994 .09599304-.17118836 .08099365-.15118408 .068984989-.13517761 .06098938-.127182 .04598999-.127182 .019989014-.12818909-.005004883-.15818787-.005004883-.18719483-.005004883-.21418762 .023986817-.2421875 .067993167-.2421875 .15299988-.2421875 .18998719-.17919922 .27799989-.027160645 .2979889 .0068511965 .35798646 .11286926 .41999818 .21488953 .47698976 .30891419 .5399933 .40592958 .5399933 .4459381 .5399933 .48094178 .5289917 .5019531 .5219879 .5019531 .5029907 .5019531 .46899415 .49394227 .44400025 .47694398 .44499208 .4419403 .44299317 .3809204 .43099977 .33891297 .4149933 .28289796 .35598756 .17488098 .2899933 .06085205H.2869873C.27999879 .21388245 .26098634 .42492677 .24699402 .49795533L.23899842 .5019531 .070999149 .45393373Z"/>
<path id="font_2_6" d="M.18899536 .5019531 .036987306 .47694398V.45195008L.07499695 .4469452C.100997928 .4429474 .10699463 .4379425 .10699463 .40194703V.08699036C.10699463 .035995485 .101989749 .033996583 .03199768 .0289917V0H.29599V.0289917C.20698548 .033996583 .20098877 .035995485 .20098877 .08699036V.32095338C.20098877 .39794923 .23498535 .4239502 .2579956 .4239502 .27398683 .4239502 .29100038 .4179535 .31999208 .40194703 .32699586 .39794923 .33499146 .39694215 .33999635 .39694215 .3639984 .39694215 .38598634 .4219513 .38598634 .4529419 .38598634 .47494508 .37199403 .5019531 .33299256 .5019531 .29699708 .5019531 .2669983 .47994996 .20098877 .4219513L.18899536 .5019531Z"/>
<path id="font_2_5" d="M.036987306 .47694398V.45195008L.07499695 .4469452C.100997928 .4429474 .10699463 .43795777 .10699463 .40194703V.08699036C.10699463 .035995485 .10398865 .033996583 .03199768 .0289917V0H.27598573V.0289917C.20498657 .033996583 .20098877 .035995485 .20098877 .08699036V.49609376L.19400025 .5020752 .036987306 .47694398M.15299988 .71484377C.116989139 .71484377 .09199524 .6888428 .09199524 .65283206 .09199524 .61782839 .116989139 .5928345 .15299988 .5928345 .18998719 .5928345 .21299744 .61782839 .21398926 .65283206 .21398926 .6888428 .18998719 .71484377 .15299988 .71484377Z"/>
<path id="font_2_7" d="M.36698915 .35102845V.46794129C.33399964 .49194337 .2829895 .5019531 .23799134 .5019531 .12998963 .5019531 .056991579 .45095826 .055999757 .35603334 .056991579 .27308656 .12399292 .2361145 .20698548 .21113587 .2519989 .19714356 .31498719 .17416382 .31498719 .10621643 .31498719 .055252077 .2749939 .023269654 .22200012 .023269654 .14099121 .023269654 .09599304 .082229617 .07598877 .16716004H.04699707L.056991579 .03627014C.09298706 .004272461 .1539917-.01171875 .21299744-.01171875 .33198548-.01171875 .3999939 .051254274 .3999939 .13618469 .3999939 .2241211 .34599305 .26409913 .24299622 .29606629 .20199585 .30906678 .13598633 .3300476 .13598633 .3860016 .13699341 .43795777 .17599488 .46694947 .22599793 .46694947 .29699708 .46694947 .33099366 .4119873 .33799745 .35102845H.36698915Z"/>
<path id="font_2_4" d="M.44099427 .2627716C.46199037 .2627716 .48098756 .2677765 .48098756 .30078126 .48098756 .35983277 .46199037 .5019531 .2789917 .5019531 .12298584 .5019531 .04899597 .39086915 .04899597 .24082947 .04899597 .08317566 .116989139-.01373291 .27999879-.01171875 .3909912-.010726929 .44799806 .050247194 .47499085 .1290741L.44499208 .14503479C.4169922 .08717346 .3789978 .039276124 .2999878 .039276124 .17599488 .039276124 .15098572 .15901184 .15299988 .2627716H.44099427M.1539917 .30078126C.1539917 .34181214 .16899109 .46694947 .272995 .46694947 .3659973 .46694947 .3769989 .37184144 .3769989 .33280946 .3769989 .31378175 .37098695 .30078126 .34298707 .30078126H.1539917Z"/>
<path id="font_2_1" d="M.2649994 .64468386C.3600006 .64468386 .3869934 .49682618 .3869934 .33398438 .3869934 .17112732 .3600006 .023269654 .2649994 .023269654 .16999817 .023269654 .14299011 .17112732 .14299011 .33398438 .14299011 .49682618 .16999817 .64468386 .2649994 .64468386M.2649994 .6796875C.099990848 .6796875 .040985109 .53378298 .040985109 .33398438 .040985109 .13417053 .099990848-.01171875 .2649994-.01171875 .42999269-.01171875 .4889984 .13417053 .4889984 .33398438 .4889984 .53378298 .42999269 .6796875 .2649994 .6796875Z"/>
<path id="font_3_1" d="M.6349945 .2529297V.31092835H.084991458V.2529297H.6349945Z"/>
<path id="font_2_3" d="M.4850006 .13195801 .45700074 .13696289C.43598939 .08299255 .41600038 .07598877 .37599183 .07598877H.11999512C.13598633 .1279602 .19499207 .19892884 .28799439 .2658844 .38398744 .33584596 .45799256 .38082887 .45799256 .49276734 .45799256 .63168337 .3659973 .6796875 .26098634 .6796875 .12399292 .6796875 .052993776 .5967102 .052993776 .54473879 .052993776 .51075747 .09098816 .49476625 .10798645 .49476625 .12599182 .49476625 .1329956 .50476077 .13699341 .5217438 .15299988 .5897064 .19198609 .64468386 .2539978 .64468386 .33099366 .64468386 .35299684 .5797119 .35299684 .50675967 .35299684 .3998108 .29899598 .33984376 .21199036 .26289369 .08898926 .15594483 .04598999 .08798218 .026992798 .009994507L.036987306 0H.45098878L.4850006 .13195801Z"/>
<path id="font_2_2" d="M.43699647 0V.0289917L.35299684 .035995485C.33198548 .037994386 .31999208 .04598999 .31999208 .08496094V.67367556L.31498719 .6796875 .10899353 .6446991V.6197052L.20199585 .6087036C.21899414 .6067047 .22599793 .5987091 .22599793 .56973269V.08496094C.22599793 .065979007 .22299195 .053985597 .21699524 .04698181 .21199036 .039993287 .20399475 .036987306 .19299317 .035995485L.10899353 .0289917V0H.43699647Z"/>
</defs>
<path transform="matrix(1,0,0,-1.00006,23.997002,103.7325)" stroke-width=".3985" stroke-linecap="butt" stroke-miterlimit="10" stroke-linejoin="miter" fill="none" stroke="#cbcbcb" d="M-22.67752 0H169.62258"/>
<path transform="matrix(1,0,0,-1.00006,193.61957,103.7325)" stroke-width=".31879" stroke-linecap="round" stroke-linejoin="round" fill="none" stroke="#cbcbcb" d="M-1.19551 1.59401C-1.09587 .99626 0 .09961 .29886 0 0-.09961-1.09587-.99626-1.19551-1.59401"/>
<use data-text="t" xlink:href="#font_1_1" transform="matrix(10.0364,0,0,-10.037002,191.939,113.31708)" fill="#cbcbcb"/>
<path transform="matrix(1,0,0,-1.00006,23.997002,103.7325)" stroke-width=".3985" stroke-linecap="butt" stroke-miterlimit="10" stroke-linejoin="miter" fill="none" stroke="#cbcbcb" d="M0-17.00824V98.75554"/>
<path transform="matrix(0,-1.00006,-1,-0,23.997002,4.971039)" stroke-width=".31879" stroke-linecap="round" stroke-linejoin="round" fill="none" stroke="#cbcbcb" d="M-1.19551 1.59401C-1.09587 .99626 0 .09961 .29886 0 0-.09961-1.09587-.99626-1.19551-1.59401"/>
<use data-text="y" xlink:href="#font_1_2" transform="matrix(10.0364,0,0,-10.037002,14.979996,5.761627)" fill="#cbcbcb"/>
<path transform="matrix(1,0,0,-1.00006,23.997002,103.7325)" stroke-width=".3985" stroke-linecap="butt" stroke-miterlimit="10" stroke-linejoin="miter" fill="none" stroke="#000000" d="M0-56.69362V-28.80508"/>
<path transform="matrix(0,-1.00006,-1,-0,23.997002,132.5393)" stroke-width=".31879" stroke-linecap="round" stroke-linejoin="round" fill="none" stroke="#000000" d="M-1.19551 1.59401C-1.09587 .99626 0 .09961 .29886 0 0-.09961-1.09587-.99626-1.19551-1.59401"/>
<use data-text="r" xlink:href="#font_2_6" transform="matrix(10.0364,0,0,-10.037002,4.157997,135.6044)"/>
<use data-text="i" xlink:href="#font_2_5" transform="matrix(10.0364,0,0,-10.037002,8.132408,135.6044)"/>
<use data-text="s" xlink:href="#font_2_7" transform="matrix(10.0364,0,0,-10.037002,11.063034,135.6044)"/>
<use data-text="e" xlink:href="#font_2_4" transform="matrix(10.0364,0,0,-10.037002,15.438904,135.6044)"/>
<path transform="matrix(1,0,0,-1.00006,23.997002,103.7325)" stroke-width=".3985" stroke-linecap="butt" stroke-miterlimit="10" stroke-linejoin="miter" fill="none" stroke="#000000" d="M0-28.3468H56.23534"/>
<path transform="matrix(1,0,0,-1.00006,80.232349,132.081)" stroke-width=".31879" stroke-linecap="round" stroke-linejoin="round" fill="none" stroke="#000000" d="M-1.19551 1.59401C-1.09587 .99626 0 .09961 .29886 0 0-.09961-1.09587-.99626-1.19551-1.59401"/>
<use data-text="r" xlink:href="#font_2_6" transform="matrix(10.0364,0,0,-10.037002,72.471,128.62699)"/>
<use data-text="i" xlink:href="#font_2_5" transform="matrix(10.0364,0,0,-10.037002,76.44541,128.62699)"/>
<use data-text="s" xlink:href="#font_2_7" transform="matrix(10.0364,0,0,-10.037002,79.37604,128.62699)"/>
<use data-text="e" xlink:href="#font_2_4" transform="matrix(10.0364,0,0,-10.037002,83.75191,128.62699)"/>
<path transform="matrix(1,0,0,-1.00006,23.997002,103.7325)" d="M1.99255-56.69362C1.99255-55.59314 1.10046-54.70107 0-54.70107-1.10046-54.70107-1.99255-55.59314-1.99255-56.69362-1.99255-57.79408-1.10046-58.68617 0-58.68617 1.10046-58.68617 1.99255-57.79408 1.99255-56.69362ZM0-56.69362" fill="#ccccff"/>
<path transform="matrix(1,0,0,-1.00006,23.997002,103.7325)" stroke-width=".3985" stroke-linecap="butt" stroke-miterlimit="10" stroke-linejoin="miter" fill="none" stroke="#000000" d="M1.99255-56.69362C1.99255-55.59314 1.10046-54.70107 0-54.70107-1.10046-54.70107-1.99255-55.59314-1.99255-56.69362-1.99255-57.79408-1.10046-58.68617 0-58.68617 1.10046-58.68617 1.99255-57.79408 1.99255-56.69362ZM0-56.69362"/>
<path transform="matrix(1,0,0,-1.00006,23.997002,103.7325)" stroke-width=".3985" stroke-linecap="butt" stroke-miterlimit="10" stroke-linejoin="miter" fill="none" stroke="#000000" d="M0 0"/>
<use data-text="0" xlink:href="#font_2_1" transform="matrix(10.0364,0,0,-10.037002,21.335,113.852108)"/>
<path transform="matrix(1,0,0,-1.00006,23.997002,103.7325)" stroke-width=".3985" stroke-linecap="butt" stroke-miterlimit="10" stroke-linejoin="miter" fill="none" stroke="#000000" d="M2.83484-56.69362H-2.83484"/>
<use data-text="&#x2212;" xlink:href="#font_3_1" transform="matrix(10.0364,0,0,-10.037002,5.2180025,163.7901)"/>
<use data-text="2" xlink:href="#font_2_3" transform="matrix(10.0364,0,0,-10.037002,12.440002,163.7901)"/>
<path transform="matrix(1,0,0,-1.00006,23.997002,103.7325)" stroke-width=".3985" stroke-linecap="butt" stroke-miterlimit="10" stroke-linejoin="miter" fill="none" stroke="#000000" d="M56.69362-28.3468V-.45827"/>
<path transform="matrix(0,-1.00006,-1,-0,80.69062,104.190799)" stroke-width=".31879" stroke-linecap="round" stroke-linejoin="round" fill="none" stroke="#000000" d="M-1.19551 1.59401C-1.09587 .99626 0 .09961 .29886 0 0-.09961-1.09587-.99626-1.19551-1.59401"/>
<use data-text="r" xlink:href="#font_2_6" transform="matrix(10.0364,0,0,-10.037002,60.852,107.25671)"/>
<use data-text="i" xlink:href="#font_2_5" transform="matrix(10.0364,0,0,-10.037002,64.826419,107.25671)"/>
<use data-text="s" xlink:href="#font_2_7" transform="matrix(10.0364,0,0,-10.037002,67.757038,107.25671)"/>
<use data-text="e" xlink:href="#font_2_4" transform="matrix(10.0364,0,0,-10.037002,72.132907,107.25671)"/>
<path transform="matrix(1,0,0,-1.00006,23.997002,103.7325)" stroke-width=".3985" stroke-linecap="butt" stroke-miterlimit="10" stroke-linejoin="miter" fill="none" stroke="#000000" d="M56.69362 0H112.92896"/>
<path transform="matrix(1,0,0,-1.00006,136.92597,103.7325)" stroke-width=".31879" stroke-linecap="round" stroke-linejoin="round" fill="none" stroke="#000000" d="M-1.19551 1.59401C-1.09587 .99626 0 .09961 .29886 0 0-.09961-1.09587-.99626-1.19551-1.59401"/>
<use data-text="r" xlink:href="#font_2_6" transform="matrix(10.0364,0,0,-10.037002,129.164,100.27929)"/>
<use data-text="i" xlink:href="#font_2_5" transform="matrix(10.0364,0,0,-10.037002,133.13842,100.27929)"/>
<use data-text="s" xlink:href="#font_2_7" transform="matrix(10.0364,0,0,-10.037002,136.06903,100.27929)"/>
<use data-text="e" xlink:href="#font_2_4" transform="matrix(10.0364,0,0,-10.037002,140.44492,100.27929)"/>
<path transform="matrix(1,0,0,-1.00006,23.997002,103.7325)" d="M58.68617-28.3468C58.68617-27.24634 57.79408-26.35425 56.69362-26.35425 55.59314-26.35425 54.70107-27.24634 54.70107-28.3468 54.70107-29.44728 55.59314-30.33936 56.69362-30.33936 57.79408-30.33936 58.68617-29.44728 58.68617-28.3468ZM56.69362-28.3468" fill="#ccccff"/>
<path transform="matrix(1,0,0,-1.00006,23.997002,103.7325)" stroke-width=".3985" stroke-linecap="butt" stroke-miterlimit="10" stroke-linejoin="miter" fill="none" stroke="#000000" d="M58.68617-28.3468C58.68617-27.24634 57.79408-26.35425 56.69362-26.35425 55.59314-26.35425 54.70107-27.24634 54.70107-28.3468 54.70107-29.44728 55.59314-30.33936 56.69362-30.33936 57.79408-30.33936 58.68617-29.44728 58.68617-28.3468ZM56.69362-28.3468"/>
<path transform="matrix(1,0,0,-1.00006,23.997002,103.7325)" stroke-width=".3985" stroke-linecap="butt" stroke-miterlimit="10" stroke-linejoin="miter" fill="none" stroke="#000000" d="M56.69362 0"/>
<use data-text="1" xlink:href="#font_2_2" transform="matrix(10.0364,0,0,-10.037002,78.02901,113.852108)"/>
<path transform="matrix(1,0,0,-1.00006,23.997002,103.7325)" stroke-width=".3985" stroke-linecap="butt" stroke-miterlimit="10" stroke-linejoin="miter" fill="none" stroke="#000000" d="M2.83484-28.3468H-2.83484"/>
<use data-text="&#x2212;" xlink:href="#font_3_1" transform="matrix(10.0364,0,0,-10.037002,5.2180025,135.4414)"/>
<use data-text="1" xlink:href="#font_2_2" transform="matrix(10.0364,0,0,-10.037002,12.440002,135.4414)"/>
<path transform="matrix(1,0,0,-1.00006,23.997002,103.7325)" stroke-width=".3985" stroke-linecap="butt" stroke-miterlimit="10" stroke-linejoin="miter" fill="none" stroke="#000000" d="M113.38724 0V27.88852"/>
<path transform="matrix(0,-1.00006,-1,-0,137.38425,75.84231)" stroke-width=".31879" stroke-linecap="round" stroke-linejoin="round" fill="none" stroke="#000000" d="M-1.19551 1.59401C-1.09587 .99626 0 .09961 .29886 0 0-.09961-1.09587-.99626-1.19551-1.59401"/>
<use data-text="r" xlink:href="#font_2_6" transform="matrix(10.0364,0,0,-10.037002,117.545,78.90801)"/>
<use data-text="i" xlink:href="#font_2_5" transform="matrix(10.0364,0,0,-10.037002,121.51941,78.90801)"/>
<use data-text="s" xlink:href="#font_2_7" transform="matrix(10.0364,0,0,-10.037002,124.450038,78.90801)"/>
<use data-text="e" xlink:href="#font_2_4" transform="matrix(10.0364,0,0,-10.037002,128.8259,78.90801)"/>
<path transform="matrix(1,0,0,-1.00006,23.997002,103.7325)" stroke-width=".3985" stroke-linecap="butt" stroke-miterlimit="10" stroke-linejoin="miter" fill="none" stroke="#000000" d="M113.38724 28.3468H169.62258"/>
<path transform="matrix(1,0,0,-1.00006,193.61957,75.384)" stroke-width=".31879" stroke-linecap="round" stroke-linejoin="round" fill="none" stroke="#000000" d="M-1.19551 1.59401C-1.09587 .99626 0 .09961 .29886 0 0-.09961-1.09587-.99626-1.19551-1.59401"/>
<use data-text="r" xlink:href="#font_2_6" transform="matrix(10.0364,0,0,-10.037002,185.858,71.93059)"/>
<use data-text="i" xlink:href="#font_2_5" transform="matrix(10.0364,0,0,-10.037002,189.8324,71.93059)"/>
<use data-text="s" xlink:href="#font_2_7" transform="matrix(10.0364,0,0,-10.037002,192.76303,71.93059)"/>
<use data-text="e" xlink:href="#font_2_4" transform="matrix(10.0364,0,0,-10.037002,197.1389,71.93059)"/>
<path transform="matrix(1,0,0,-1.00006,23.997002,103.7325)" d="M115.37979 0C115.37979 1.10046 114.4877 1.99255 113.38724 1.99255 112.28676 1.99255 111.39468 1.10046 111.39468 0 111.39468-1.10046 112.28676-1.99255 113.38724-1.99255 114.4877-1.99255 115.37979-1.10046 115.37979 0ZM113.38724 0" fill="#ccccff"/>
<path transform="matrix(1,0,0,-1.00006,23.997002,103.7325)" stroke-width=".3985" stroke-linecap="butt" stroke-miterlimit="10" stroke-linejoin="miter" fill="none" stroke="#000000" d="M115.37979 0C115.37979 1.10046 114.4877 1.99255 113.38724 1.99255 112.28676 1.99255 111.39468 1.10046 111.39468 0 111.39468-1.10046 112.28676-1.99255 113.38724-1.99255 114.4877-1.99255 115.37979-1.10046 115.37979 0ZM113.38724 0"/>
<path transform="matrix(1,0,0,-1.00006,23.997002,103.7325)" stroke-width=".3985" stroke-linecap="butt" stroke-miterlimit="10" stroke-linejoin="miter" fill="none" stroke="#000000" d="M113.38724 0"/>
<use data-text="2" xlink:href="#font_2_3" transform="matrix(10.0364,0,0,-10.037002,134.722,113.852108)"/>
<path transform="matrix(1,0,0,-1.00006,23.997002,103.7325)" stroke-width=".3985" stroke-linecap="butt" stroke-miterlimit="10" stroke-linejoin="miter" fill="none" stroke="#000000" d="M2.83484 0H-2.83484"/>
<use data-text="0" xlink:href="#font_2_1" transform="matrix(10.0364,0,0,-10.037002,12.440002,107.0657)"/>
<path transform="matrix(1,0,0,-1.00006,23.997002,103.7325)" stroke-width=".3985" stroke-linecap="butt" stroke-miterlimit="10" stroke-linejoin="miter" fill="none" stroke="#000000" d="M-22.67752-68.03217-14.64615-64.01646-6.61478-60.0008 1.41655-55.98553 9.44792-51.96985 17.47928-47.95418 25.51065-43.93849 33.542-39.9228 41.57338-35.90712 49.60474-31.89145 57.63611-27.87575 65.66748-23.86008 73.69884-19.84439 81.73021-15.82872 89.76157-11.81302 97.79294-7.79735 105.8243-3.78166 113.85567 .23398 121.88702 4.24968 129.9184 8.26535 137.94976 12.28104 145.98113 16.29672 154.0125 20.31241 162.04386 24.32808 170.07523 28.34377"/>
</svg>
