<svg xmlns="http://www.w3.org/2000/svg" xmlns:xlink="http://www.w3.org/1999/xlink" version="1.1" width="159" height="232" viewBox="0 0 159 232">
<defs>
<path id="font_1_6" d="M.4850006 .13195801 .45700074 .13696289C.43598939 .08299255 .41600038 .07598877 .37599183 .07598877H.11999512C.13598633 .1279602 .19499207 .19892884 .28799439 .2658844 .38398744 .33584596 .45799256 .38082887 .45799256 .49276734 .45799256 .63168337 .3659973 .6796875 .26098634 .6796875 .12399292 .6796875 .052993776 .5967102 .052993776 .54473879 .052993776 .51075747 .09098816 .49476625 .10798645 .49476625 .12599182 .49476625 .1329956 .50476077 .13699341 .5217438 .15299988 .5897064 .19198609 .64468386 .2539978 .64468386 .33099366 .64468386 .35299684 .5797119 .35299684 .50675967 .35299684 .3998108 .29899598 .33984376 .21199036 .26289369 .08898926 .15594483 .04598999 .08798218 .026992798 .009994507L.036987306 0H.45098878L.4850006 .13195801Z"/>
<path id="font_1_8" d="M.2999878 .17871094V.0769043C.2999878 .04296875 .2889862 .036987306 .2649994 .034988405L.20098877 .0289917V0H.46499635V.0289917L.41999818 .033981325C.39698792 .036987306 .3899994 .04296875 .3899994 .0769043V.17871094H.49299623V.22570801H.3899994V.66796877H.31698609C.22299195 .5298767 .11099243 .35577394 .018997193 .19970703L.027999878 .17871094H.2999878M.09098816 .22570801C.15098572 .33476258 .22099304 .4498291 .2979889 .5709076H.2999878V.22570801H.09098816Z"/>
<path id="font_2_1" d="M.42799378 .45222474 .43899537 .49023438H.31199647L.34599305 .6092224 .33399964 .6162262 .23699951 .53923037 .22399903 .49023438H.14299011L.13198853 .45222474H.21499634L.125 .08627319C.10998535 .029266358 .12199402-.01171875 .17199707-.01171875 .2519989-.01171875 .31599427 .054275514 .35598756 .1292572L.33399964 .1462555C.31098939 .10726929 .2599945 .040267946 .22898865 .040267946 .20799256 .040267946 .20799256 .0632782 .21398926 .088272098L.30299378 .45222474H.42799378Z"/>
<path id="font_3_1" d="M.6349945 .2529297V.31092835H.084991458V.2529297H.6349945Z"/>
<path id="font_2_2" d="M.070999149 .45393373 .07398987 .42893983 .14199829 .43093873C.1639862 .43193055 .16899109 .41493226 .1769867 .36291505 .18798828 .28489686 .20999146 .09286499 .20999146 .0128479 .20999146-.017166138 .20799256-.058166505 .18598938-.11117554 .16799927-.15318299 .14199829-.18218994 .12199402-.18218994 .10699463-.18218994 .09599304-.17118836 .08099365-.15118408 .068984989-.13517761 .06098938-.127182 .04598999-.127182 .019989014-.12818909-.005004883-.15818787-.005004883-.18719483-.005004883-.21418762 .023986817-.2421875 .067993167-.2421875 .15299988-.2421875 .18998719-.17919922 .27799989-.027160645 .2979889 .0068511965 .35798646 .11286926 .41999818 .21488953 .47698976 .30891419 .5399933 .40592958 .5399933 .4459381 .5399933 .48094178 .5289917 .5019531 .5219879 .5019531 .5029907 .5019531 .46899415 .49394227 .44400025 .47694398 .44499208 .4419403 .44299317 .3809204 .43099977 .33891297 .4149933 .28289796 .35598756 .17488098 .2899933 .06085205H.2869873C.27999879 .21388245 .26098634 .42492677 .24699402 .49795533L.23899842 .5019531 .070999149 .45393373Z"/>
<path id="font_1_1" d="M.1749878 .2822113C.1749878 .56832888 .2619934 .65437319 .32499696 .66737368V.6923828C.1499939 .685379 .10499573 .46829225 .10499573 .2822113 .10499573 .09614563 .1499939-.12094116 .32499696-.12792969V-.10293579C.2669983-.090927127 .1749878-.0059051516 .1749878 .2822113Z"/>
<path id="font_1_4" d="M.2649994 .64468386C.3600006 .64468386 .3869934 .49682618 .3869934 .33398438 .3869934 .17112732 .3600006 .023269654 .2649994 .023269654 .16999817 .023269654 .14299011 .17112732 .14299011 .33398438 .14299011 .49682618 .16999817 .64468386 .2649994 .64468386M.2649994 .6796875C.099990848 .6796875 .040985109 .53378298 .040985109 .33398438 .040985109 .13417053 .099990848-.01171875 .2649994-.01171875 .42999269-.01171875 .4889984 .13417053 .4889984 .33398438 .4889984 .53378298 .42999269 .6796875 .2649994 .6796875Z"/>
<path id="font_1_3" d="M.069992069-.140625C.11999512-.09362793 .19299317-.027633667 .19299317 .051361085 .19299317 .10636902 .1599884 .1423645 .125 .14137268 .09399414 .14137268 .07598877 .117370609 .07598877 .09136963 .07598877 .055374147 .10899353 .037368776 .10899353-.005630493 .10899353-.04663086 .08299255-.086639408 .050994874-.12162781L.069992069-.140625Z"/>
<path id="font_1_5" d="M.43699647 0V.0289917L.35299684 .035995485C.33198548 .037994386 .31999208 .04598999 .31999208 .08496094V.67367556L.31498719 .6796875 .10899353 .6446991V.6197052L.20199585 .6087036C.21899414 .6067047 .22599793 .5987091 .22599793 .56973269V.08496094C.22599793 .065979007 .22299195 .053985597 .21699524 .04698181 .21199036 .039993287 .20399475 .036987306 .19299317 .035995485L.10899353 .0289917V0H.43699647Z"/>
<path id="font_1_2" d="M.1749878 .2822113C.1749878-.0059051516 .08299255-.090927127 .024993897-.10293579V-.12792969C.19999695-.12094116 .24499512 .09614563 .24499512 .2822113 .24499512 .46829225 .19999695 .685379 .024993897 .6923828V.66737368C.08799744 .65437319 .1749878 .56832888 .1749878 .2822113Z"/>
<path id="font_1_7" d="M.12998963 .3657837C.12998963 .3487854 .1349945 .33779908 .147995 .33779908 .1599884 .33779908 .18699646 .34777833 .23498535 .34777833 .31999208 .34777833 .36799623 .27090455 .36799623 .18403626 .36799623 .065216068 .30899049 .023269654 .23799134 .023269654 .17199707 .023269654 .1289978 .07319641 .10998535 .12911988 .10398865 .14808655 .09399414 .15707398 .07998657 .15707398 .06199646 .15707398 .026992798 .13809204 .026992798 .10215759 .026992798 .05921936 .09599304-.01171875 .23699951-.01171875 .38198854-.01171875 .47299195 .06121826 .47299195 .18902588 .47299195 .32281495 .35798646 .3627777 .30299378 .3677826V.3717804C.35699464 .38078309 .44400025 .4207611 .44400025 .5197296 .44400025 .6306915 .35699464 .6796875 .25 .6796875 .117996219 .6796875 .052993776 .60369876 .052993776 .5607147 .052993776 .5297241 .08799744 .51272585 .101989749 .51272585 .114990238 .51272585 .12298584 .5197296 .1269989 .5327301 .14898682 .60069277 .18699646 .64468386 .24299622 .64468386 .32199098 .64468386 .34098817 .57470706 .34098817 .51872256 .34098817 .4587555 .31999208 .38378907 .23498535 .38378907 .18699646 .38378907 .1599884 .39378358 .147995 .39378358 .1349945 .39378358 .12998963 .38378907 .12998963 .3657837Z"/>
</defs>
<path transform="matrix(1.00002,0,0,-1,32.91961,159.569)" stroke-width=".3985" stroke-linecap="butt" stroke-miterlimit="10" stroke-linejoin="miter" fill="none" stroke="#cbcbcb" d="M-25.51193-56.12622V45.92157"/>
<path transform="matrix(1.00002,0,0,-1,32.91961,159.569)" stroke-width=".3985" stroke-linecap="butt" stroke-miterlimit="10" stroke-linejoin="miter" fill="none" stroke="#cbcbcb" d="M25.51193-56.12622V45.92157"/>
<path transform="matrix(1.00002,0,0,-1,32.91961,159.569)" stroke-width=".3985" stroke-linecap="butt" stroke-miterlimit="10" stroke-linejoin="miter" fill="none" stroke="#cbcbcb" d="M51.0239-56.12622V45.92157"/>
<path transform="matrix(1.00002,0,0,-1,32.91961,159.569)" stroke-width=".3985" stroke-linecap="butt" stroke-miterlimit="10" stroke-linejoin="miter" fill="none" stroke="#cbcbcb" d="M76.53586-56.12622V45.92157"/>
<path transform="matrix(1.00002,0,0,-1,32.91961,159.569)" stroke-width=".3985" stroke-linecap="butt" stroke-miterlimit="10" stroke-linejoin="miter" fill="none" stroke="#cbcbcb" d="M102.0478-56.12622V45.92157"/>
<path transform="matrix(1.00002,0,0,-1,32.91961,159.569)" stroke-width=".3985" stroke-linecap="butt" stroke-miterlimit="10" stroke-linejoin="miter" fill="none" stroke="#000000" d="M51.0239-1.78601V1.78601"/>
<use data-text="2" xlink:href="#font_1_6" transform="matrix(10.036601,0,0,-10.0364,81.28258,169.688)"/>
<path transform="matrix(1.00002,0,0,-1,32.91961,159.569)" stroke-width=".3985" stroke-linecap="butt" stroke-miterlimit="10" stroke-linejoin="miter" fill="none" stroke="#000000" d="M102.0478-1.78601V1.78601"/>
<use data-text="4" xlink:href="#font_1_8" transform="matrix(10.036601,0,0,-10.0364,132.3076,169.688)"/>
<path transform="matrix(1.00002,0,0,-1,32.91961,159.569)" stroke-width=".3985" stroke-linecap="butt" stroke-miterlimit="10" stroke-linejoin="miter" fill="none" stroke="#000000" d="M-30.61426 0H121.99915"/>
<path transform="matrix(1.00002,0,0,-1,154.9212,159.569)" stroke-width=".31879" stroke-linecap="round" stroke-linejoin="round" fill="none" stroke="#000000" d="M-1.19551 1.59401C-1.09587 .99626 0 .09961 .29886 0 0-.09961-1.09587-.99626-1.19551-1.59401"/>
<use data-text="t" xlink:href="#font_2_1" transform="matrix(10.036601,0,0,-10.0364,153.242,169.153)"/>
<path transform="matrix(1.00002,0,0,-1,32.91961,159.569)" stroke-width=".3985" stroke-linecap="butt" stroke-miterlimit="10" stroke-linejoin="miter" fill="none" stroke="#cbcbcb" d="M-30.61426-51.0239H122.45743"/>
<path transform="matrix(1.00002,0,0,-1,32.91961,159.569)" stroke-width=".3985" stroke-linecap="butt" stroke-miterlimit="10" stroke-linejoin="miter" fill="none" stroke="#cbcbcb" d="M-30.61426-25.51193H122.45743"/>
<path transform="matrix(1.00002,0,0,-1,32.91961,159.569)" stroke-width=".3985" stroke-linecap="butt" stroke-miterlimit="10" stroke-linejoin="miter" fill="none" stroke="#cbcbcb" d="M-30.61426 25.51193H122.45743"/>
<path transform="matrix(1.00002,0,0,-1,32.91961,159.569)" stroke-width=".3985" stroke-linecap="butt" stroke-miterlimit="10" stroke-linejoin="miter" fill="none" stroke="#000000" d="M-1.78601-51.0239H1.78601"/>
<use data-text="&#x2212;" xlink:href="#font_3_1" transform="matrix(7.332647,0,0,-7.3325,20.354355,213.048)"/>
<use data-text="2" xlink:href="#font_1_6" transform="matrix(7.332647,0,0,-7.3325,25.63144,213.048)"/>
<path transform="matrix(1.00002,0,0,-1,32.91961,159.569)" stroke-width=".3985" stroke-linecap="butt" stroke-miterlimit="10" stroke-linejoin="miter" fill="none" stroke="#000000" d="M0-56.12622V45.46329"/>
<path transform="matrix(0,-1,-1.00002,-0,32.91961,114.10571)" stroke-width=".31879" stroke-linecap="round" stroke-linejoin="round" fill="none" stroke="#000000" d="M-1.19551 1.59401C-1.09587 .99626 0 .09961 .29886 0 0-.09961-1.09587-.99626-1.19551-1.59401"/>
<use data-text="y" xlink:href="#font_2_2" transform="matrix(10.036601,0,0,-10.0364,36.864686,114.897)"/>
<path transform="matrix(1.00002,0,0,-1,32.91961,159.569)" stroke-width="1.59404" stroke-linecap="butt" stroke-miterlimit="10" stroke-linejoin="miter" fill="none" stroke="#000000" d="M-29.9456-70.43015-24.23627-61.86617-17.85828-52.29918-11.48027-42.7322-5.1023-33.1652 1.27565-23.59862 7.65364-14.03163 14.03163-4.46465 20.40962 5.1023 26.78761 14.66928 33.1656 24.23627 39.5436 33.80324 45.92157 43.37022 52.29956 52.93723 58.67757 62.50418 65.05556 72.07117 71.43353 81.63815 77.81152 91.20514 84.1895 100.77213 90.56749 110.3391 96.94548 119.9061 103.32347 129.47309 109.70146 139.04006 116.07945 148.60704 121.7888 157.17104"/>
<path transform="matrix(-.55468109,.83202,.8320367,.55467,2.973421,229.99915)" stroke-width="1.27522" stroke-linecap="round" stroke-linejoin="round" fill="none" stroke="#000000" d="M-2.27148 3.02866C-2.0822 1.8929 0 .18927 .56786 0 0-.18927-2.0822-1.8929-2.27148-3.02866"/>
<path transform="matrix(.5546711,-.83202,-.8320367,-.55466,154.71085,2.3979645)" stroke-width="1.27522" stroke-linecap="round" stroke-linejoin="round" fill="none" stroke="#000000" d="M-2.27148 3.02866C-2.0822 1.8929 0 .18927 .56786 0 0-.18927-2.0822-1.8929-2.27148-3.02866"/>
<path transform="matrix(1.00002,0,0,-1,32.91961,159.569)" stroke-width=".3985" stroke-linecap="butt" stroke-miterlimit="10" stroke-linejoin="miter" fill="none" stroke="#000000" d="M20.40962-25.51193"/>
<path transform="matrix(1.00002,0,0,-1,32.91961,159.569)" d="M6.34334-35.48463H34.47591V-25.71119H6.34334Z" fill="#ffffff"/>
<use data-text="(" xlink:href="#font_1_1" transform="matrix(9.165783,0,0,-9.1656,40.259759,192.762)"/>
<use data-text="0" xlink:href="#font_1_4" transform="matrix(9.165783,0,0,-9.1656,43.46778,192.762)"/>
<use data-text="," xlink:href="#font_1_3" transform="matrix(9.165783,0,0,-9.1656,48.325647,192.762)"/>
<use data-text="&#x2212;" xlink:href="#font_3_1" transform="matrix(9.165783,0,0,-9.1656,51.734994,192.762)"/>
<use data-text="1" xlink:href="#font_1_5" transform="matrix(9.165783,0,0,-9.1656,58.330118,192.762)"/>
<use data-text=")" xlink:href="#font_1_2" transform="matrix(9.165783,0,0,-9.1656,63.187997,192.762)"/>
<path transform="matrix(1.00002,0,0,-1,32.91961,159.569)" stroke-width="1.19553" stroke-linecap="butt" stroke-miterlimit="10" stroke-linejoin="miter" fill="none" stroke="#0033cc" d="M0-25.51193V50.06747"/>
<path transform="matrix(0,-1,-1.00002,-0,32.91961,109.501529)" stroke-width=".9564" stroke-linecap="round" stroke-linejoin="round" fill="none" stroke="#0033cc" d="M-1.91284 2.55046C-1.75343 1.59402 0 .15938 .4782 0 0-.15938-1.75343-1.59402-1.91284-2.55046"/>
<path transform="matrix(1.00002,0,0,-1,32.91961,159.569)" d="M-4.42345 7.66998H4.4234607V17.841919H-4.42345Z" fill="#ffffff"/>
<use data-text="3" xlink:href="#font_1_7" transform="matrix(9.165783,0,0,-9.1656,30.488564,149.857)" fill="#0033cc"/>
<path transform="matrix(1.00002,0,0,-1,32.91961,159.569)" stroke-width="1.19553" stroke-linecap="butt" stroke-miterlimit="10" stroke-linejoin="miter" fill="none" stroke="#009966" d="M0 51.0239H47.51611"/>
<path transform="matrix(1.00002,0,0,-1,80.43667,108.545108)" stroke-width=".9564" stroke-linecap="round" stroke-linejoin="round" fill="none" stroke="#009966" d="M-1.91284 2.55046C-1.75343 1.59402 0 .15938 .4782 0 0-.15938-1.75343-1.59402-1.91284-2.55046"/>
<path transform="matrix(1.00002,0,0,-1,32.91961,159.569)" d="M20.80908 46.9591H27.66343V55.088678H20.80908Z" fill="#ffffff"/>
<use data-text="2" xlink:href="#font_1_6" transform="matrix(9.165783,0,0,-9.1656,54.725046,111.614)" fill="#009966"/>
<path transform="matrix(1.00002,0,0,-1,32.91961,159.569)" d="M2.68993-25.51193C2.68993-24.02632 1.48561-22.822 0-22.822-1.48561-22.822-2.68993-24.02632-2.68993-25.51193-2.68993-26.99754-1.48561-28.20187 0-28.20187 1.48561-28.20187 2.68993-26.99754 2.68993-25.51193ZM0-25.51193" fill="#ffffff"/>
<path transform="matrix(1.00002,0,0,-1,32.91961,159.569)" stroke-width="1.19553" stroke-linecap="butt" stroke-miterlimit="10" stroke-linejoin="miter" fill="none" stroke="#000000" d="M2.68993-25.51193C2.68993-24.02632 1.48561-22.822 0-22.822-1.48561-22.822-2.68993-24.02632-2.68993-25.51193-2.68993-26.99754-1.48561-28.20187 0-28.20187 1.48561-28.20187 2.68993-26.99754 2.68993-25.51193ZM0-25.51193"/>
<path transform="matrix(1.00002,0,0,-1,32.91961,159.569)" stroke-width="1.19553" stroke-linecap="butt" stroke-miterlimit="10" stroke-linejoin="miter" fill="none" stroke="#0033cc" d="M51.0239 51.0239V126.60335"/>
<path transform="matrix(0,-1,-1.00002,-0,83.944538,32.965654)" stroke-width=".9564" stroke-linecap="round" stroke-linejoin="round" fill="none" stroke="#0033cc" d="M-1.91284 2.55046C-1.75343 1.59402 0 .15938 .4782 0 0-.15938-1.75343-1.59402-1.91284-2.55046"/>
<path transform="matrix(1.00002,0,0,-1,32.91961,159.569)" d="M46.60043 84.20584H55.447343V94.37778H46.60043Z" fill="#ffffff"/>
<use data-text="3" xlink:href="#font_1_7" transform="matrix(9.165783,0,0,-9.1656,81.51358,73.321)" fill="#0033cc"/>
<path transform="matrix(1.00002,0,0,-1,32.91961,159.569)" stroke-width="1.19553" stroke-linecap="butt" stroke-miterlimit="10" stroke-linejoin="miter" fill="none" stroke="#009966" d="M51.0239 127.55977H98.54004"/>
<path transform="matrix(1.00002,0,0,-1,131.46163,32.00923)" stroke-width=".9564" stroke-linecap="round" stroke-linejoin="round" fill="none" stroke="#009966" d="M-1.91284 2.55046C-1.75343 1.59402 0 .15938 .4782 0 0-.15938-1.75343-1.59402-1.91284-2.55046"/>
<path transform="matrix(1.00002,0,0,-1,32.91961,159.569)" d="M71.833 123.49496H78.68735V131.62454H71.833Z" fill="#ffffff"/>
<use data-text="2" xlink:href="#font_1_6" transform="matrix(9.165783,0,0,-9.1656,105.75007,35.078004)" fill="#009966"/>
<path transform="matrix(1.00002,0,0,-1,32.91961,159.569)" d="M53.71382 51.0239C53.71382 52.5095 52.5095 53.71382 51.0239 53.71382 49.53828 53.71382 48.33397 52.5095 48.33397 51.0239 48.33397 49.53828 49.53828 48.33397 51.0239 48.33397 52.5095 48.33397 53.71382 49.53828 53.71382 51.0239ZM51.0239 51.0239" fill="#ffffff"/>
<path transform="matrix(1.00002,0,0,-1,32.91961,159.569)" stroke-width="1.19553" stroke-linecap="butt" stroke-miterlimit="10" stroke-linejoin="miter" fill="none" stroke="#000000" d="M53.71382 51.0239C53.71382 52.5095 52.5095 53.71382 51.0239 53.71382 49.53828 53.71382 48.33397 52.5095 48.33397 51.0239 48.33397 49.53828 49.53828 48.33397 51.0239 48.33397 52.5095 48.33397 53.71382 49.53828 53.71382 51.0239ZM51.0239 51.0239"/>
<path transform="matrix(1.00002,0,0,-1,32.91961,159.569)" d="M104.73773 127.55977C104.73773 129.04538 103.53342 130.2497 102.0478 130.2497 100.5622 130.2497 99.35788 129.04538 99.35788 127.55977 99.35788 126.07414 100.5622 124.86983 102.0478 124.86983 103.53342 124.86983 104.73773 126.07414 104.73773 127.55977ZM102.0478 127.55977" fill="#ffffff"/>
<path transform="matrix(1.00002,0,0,-1,32.91961,159.569)" stroke-width="1.19553" stroke-linecap="butt" stroke-miterlimit="10" stroke-linejoin="miter" fill="none" stroke="#000000" d="M104.73773 127.55977C104.73773 129.04538 103.53342 130.2497 102.0478 130.2497 100.5622 130.2497 99.35788 129.04538 99.35788 127.55977 99.35788 126.07414 100.5622 124.86983 102.0478 124.86983 103.53342 124.86983 104.73773 126.07414 104.73773 127.55977ZM102.0478 127.55977"/>
</svg>
