<svg xmlns="http://www.w3.org/2000/svg" xmlns:xlink="http://www.w3.org/1999/xlink" version="1.1" width="158" height="136" viewBox="0 0 158 136">
<defs>
<path id="font_1_3" d="M.2939911 .64004519C.2939911 .66400149 .2939911 .6660156 .2709961 .6660156 .20899964 .60227969 .12098694 .60227969 .08898926 .60227969V.57128909C.10899353 .57128909 .16799927 .57128909 .21998596 .5972748V.07902527C.21998596 .042999269 .21699524 .0309906 .1269989 .0309906H.09498596V0C.12998963 .0029907227 .21699524 .0029907227 .25698854 .0029907227 .29699708 .0029907227 .38398744 .0029907227 .4189911 0V.0309906H.3869934C.29699708 .0309906 .2939911 .041992189 .2939911 .07902527V.64004519Z"/>
<path id="font_1_4" d="M.1269989 .07699585 .23298645 .18003845C.3889923 .31811524 .44898988 .3721466 .44898988 .47216798 .44898988 .5860901 .35899354 .6660156 .23699951 .6660156 .12399292 .6660156 .049987794 .57411196 .049987794 .48516847 .049987794 .4291687 .099990848 .4291687 .102996829 .4291687 .11999512 .4291687 .15499878 .44117738 .15499878 .48217774 .15499878 .5081787 .13699341 .5341797 .101989749 .5341797 .09399414 .5341797 .09199524 .5341797 .08898926 .5331726 .11199951 .59806826 .1659851 .63500979 .22399903 .63500979 .31498719 .63500979 .35798646 .5541382 .35798646 .47216798 .35798646 .39215089 .30799867 .31311036 .25299073 .25108338L.06098938 .036987306C.049987794 .025985718 .049987794 .023986817 .049987794 0H.42099L.44898988 .17404175H.42399598C.4189911 .14402771 .4119873 .1000061 .4019928 .084991458 .394989 .07699585 .32899476 .07699585 .30699159 .07699585H.1269989Z"/>
<clipPath id="clip_2">
<path transform="matrix(1.00002,0,0,-1,1.264389,130.707)" d="M0 0H155.41681V129.11222H0Z"/>
</clipPath>
<path id="font_3_2" d="M.20599365 .3996582H.2999878C.31999208 .3996582 .32998658 .3996582 .32998658 .41966249 .32998658 .43066407 .31999208 .43066407 .3019867 .43066407H.21398926C.25 .5724945 .25498963 .59246829 .25498963 .59846499 .25498963 .61546328 .24299622 .62545779 .22599793 .62545779 .22299195 .62545779 .19499207 .62446597 .18598938 .58947756L.14698792 .43066407H.052993776C.032989503 .43066407 .022994996 .43066407 .022994996 .4116516 .022994996 .3996582 .0309906 .3996582 .050994874 .3996582H.13899231C.066986087 .11608887 .06298828 .099121097 .06298828 .08114624 .06298828 .02722168 .100997928-.0107421879 .15499878-.0107421879 .25698854-.0107421879 .31399537 .13505554 .31399537 .14305115 .31399537 .1530304 .30599977 .1530304 .3019867 .1530304 .29299928 .1530304 .2919922 .15003968 .2869873 .13905335 .24398804 .035217287 .19099427 .011245728 .15699768 .011245728 .13598633 .011245728 .12599182 .024230957 .12599182 .057174684 .12599182 .08114624 .12799073 .088134769 .13198853 .10510254L.20599365 .3996582Z"/>
<path id="font_3_4" d="M.48599244 .38136292C.48999024 .39537049 .48999024 .39736939 .48999024 .40437318 .48999024 .42237855 .47599793 .43138124 .46099855 .43138124 .45098878 .43138124 .43499757 .42536927 .42599488 .41036988 .42399598 .405365 .41600038 .37435914 .4119873 .35635377 .40499879 .33035279 .397995 .30334474 .3919983 .27633668L.34700013 .09628296C.34298707 .08126831 .2999878 .011245728 .23399353 .011245728 .18299866 .011245728 .17199707 .055267335 .17199707 .0922699 .17199707 .1382904 .18899536 .20030213 .22299195 .28833009 .23899842 .3293457 .24299622 .3403473 .24299622 .36035157 .24299622 .405365 .21099854 .4423828 .16099549 .4423828 .06599426 .4423828 .0289917 .29733277 .0289917 .28833009 .0289917 .27833558 .038986207 .27833558 .040985109 .27833558 .050994874 .27833558 .051986696 .28033448 .056991579 .29634095 .083999637 .3903656 .12399292 .42037965 .1579895 .42037965 .1659851 .42037965 .18299866 .42037965 .18299866 .3883667 .18299866 .36335755 .17298889 .3373413 .1659851 .31834413 .12599182 .21231079 .10798645 .1552887 .10798645 .10827637 .10798645 .019256592 .17098999-.0107421879 .22999573-.0107421879 .2689972-.0107421879 .30299378 .0062561037 .33099366 .03425598 .31799317-.017745972 .30599977-.06674194 .2659912-.11973572 .23999024-.15385437 .20199585-.18309021 .1559906-.18309021 .14199829-.18309021 .09700012-.18005371 .07998657-.14074707 .09599304-.14074707 .10899353-.14074707 .12298584-.1287384 .1329956-.11973572 .14299011-.10673523 .14299011-.08773804 .14299011-.056747438 .115997318-.052734376 .10598755-.052734376 .08299255-.052734376 .049987794-.068740848 .049987794-.11773682 .049987794-.16796875 .09399414-.20507813 .1559906-.20507813 .25898744-.20507813 .3619995-.11373901 .3899994-.00074768069L.48599244 .38136292Z"/>
<path id="font_3_3" d="M.33399964 .30233766C.33999635 .32835389 .36299134 .42037965 .43299867 .42037965 .43798829 .42037965 .46199037 .42037965 .48298646 .40734864 .45498658 .402359 .43499757 .37734986 .43499757 .35334779 .43499757 .33735658 .44599916 .31835938 .47299195 .31835938 .49499513 .31835938 .5269928 .3363495 .5269928 .37635804 .5269928 .42837525 .46798707 .4423828 .43399049 .4423828 .37599183 .4423828 .34098817 .38935853 .32899476 .36634828 .3039856 .43237306 .25 .4423828 .22099304 .4423828 .116989139 .4423828 .05999756 .3133545 .05999756 .28834535 .05999756 .27833558 .069992069 .27833558 .07199097 .27833558 .07998657 .27833558 .08299255 .28033448 .084991458 .28933717 .11898804 .39535523 .18499756 .42037965 .21899414 .42037965 .23799134 .42037965 .272995 .4113617 .272995 .35334779 .272995 .32235719 .2559967 .25532533 .21899414 .11528015 .20298767 .053268434 .16799927 .011245728 .12399292 .011245728 .117996219 .011245728 .09498596 .011245728 .07398987 .024276734 .09899902 .029266358 .12098694 .05027771 .12098694 .07827759 .12098694 .105270389 .09899902 .11328125 .083999637 .11328125 .053985597 .11328125 .0289917 .08728027 .0289917 .055267335 .0289917 .009246826 .07899475-.0107421879 .12298584-.0107421879 .18899536-.0107421879 .22499085 .059280397 .22799683 .0652771 .23999024 .028274537 .27598573-.0107421879 .33599855-.0107421879 .43899537-.0107421879 .49598695 .118270877 .49598695 .14328003 .49598695 .1532898 .4869995 .1532898 .48399354 .1532898 .47499085 .1532898 .47299195 .14929199 .47099305 .14228821 .43798829 .03527832 .36999513 .011245728 .33799745 .011245728 .29899598 .011245728 .2829895 .043273927 .2829895 .07727051 .2829895 .09927368 .2889862 .121276859 .2999878 .16529846L.33399964 .30233766Z"/>
<path id="font_1_1" d="M.33099366-.2400055C.33099366-.23701477 .33099366-.23500061 .31399537-.21800232 .18899536-.0920105 .15699768 .09700012 .15699768 .25 .15699768 .42399598 .19499207 .59799197 .31799317 .72299197 .33099366 .73498538 .33099366 .7369995 .33099366 .73999026 .33099366 .746994 .32699586 .75 .32099916 .75 .31098939 .75 .22099304 .6819916 .1619873 .5549927 .11099243 .44499208 .09899902 .33399964 .09899902 .25 .09899902 .17199707 .10998535 .050994874 .16499329-.06201172 .22499085-.18501282 .31098939-.25 .32099916-.25 .32699586-.25 .33099366-.24700928 .33099366-.2400055Z"/>
<path id="font_1_2" d="M.2889862 .25C.2889862 .32798768 .27799989 .44898988 .22299195 .56199648 .16299439 .68499758 .07699585 .75 .066986087 .75 .06098938 .75 .056991579 .74598696 .056991579 .73999026 .056991579 .7369995 .056991579 .73498538 .07598877 .71699526 .17399597 .6179962 .23098755 .45899964 .23098755 .25 .23098755 .07899475 .19400025-.09700012 .069992069-.2230072 .056991579-.23500061 .056991579-.23701477 .056991579-.2400055 .056991579-.2460022 .06098938-.25 .066986087-.25 .07699585-.25 .16699219-.18200684 .22599793-.055007936 .2769928 .054992677 .2889862 .16600037 .2889862 .25Z"/>
<path id="font_1_5" d="M.68699648 .32714845C.70199587 .32714845 .72099307 .32714845 .72099307 .34713746 .72099307 .36714173 .70199587 .36714173 .6879883 .36714173H.08898926C.07499695 .36714173 .055999757 .36714173 .055999757 .34713746 .055999757 .32714845 .07499695 .32714845 .08999634 .32714845H.68699648M.6879883 .13284302C.70199587 .13284302 .72099307 .13284302 .72099307 .15284729 .72099307 .17285156 .70199587 .17285156 .68699648 .17285156H.08999634C.07499695 .17285156 .055999757 .17285156 .055999757 .15284729 .055999757 .13284302 .07499695 .13284302 .08898926 .13284302H.6879883Z"/>
<path id="font_4_1" d="M.4889984 .31877137C.4889984 .42585755 .47799684 .49090577 .44499208 .55496218 .40098573 .6430359 .31999208 .66503909 .2649994 .66503909 .13899231 .66503909 .09298706 .5709839 .07899475 .5429535 .042999269 .4698944 .040985109 .3708191 .040985109 .31877137 .040985109 .25271607 .04399109 .15162659 .09199524 .07156372 .13798523-.0024871827 .21199036-.021484375 .2649994-.021484375 .31298829-.021484375 .39898683-.0064849855 .44898988 .09257507 .48599244 .16464234 .4889984 .2537079 .4889984 .31877137M.2649994 .006515503C.23098755 .006515503 .1619873 .022521973 .14099121 .12760926 .12998963 .18466187 .12998963 .2787323 .12998963 .33078004 .12998963 .3998413 .12998963 .4698944 .14099121 .5249481 .1619873 .6270294 .23999024 .6370239 .2649994 .6370239 .29899598 .6370239 .36799623 .62002566 .3880005 .5289459 .3999939 .4738922 .3999939 .39883424 .3999939 .33078004 .3999939 .27172853 .3999939 .18165589 .3880005 .12561035 .36698915 .020523072 .2979889 .006515503 .2649994 .006515503Z"/>
<path id="font_3_1" d="M.18699646 .23144531C.21598816 .23144531 .2899933 .23344422 .33999635 .2544403 .4099884 .28442384 .4149933 .34339906 .4149933 .35740663 .4149933 .40138246 .3769989 .4423828 .30799867 .4423828 .19699097 .4423828 .04598999 .34539796 .04598999 .17037964 .04598999 .06829834 .10499573-.0107421879 .20298767-.0107421879 .34599305-.0107421879 .42999269 .095321658 .42999269 .10733032 .42999269 .113342288 .42399598 .12034607 .41799928 .12034607 .41299439 .12034607 .41099549 .11834717 .40499879 .1103363 .32598878 .011245728 .21699524 .011245728 .20498657 .011245728 .1269989 .011245728 .117996219 .095321658 .117996219 .12734986 .117996219 .13935852 .11898804 .17037964 .13398743 .23144531H.18699646M.13999939 .25343324C.1789856 .40538026 .28199769 .42037965 .30799867 .42037965 .35499574 .42037965 .38198854 .39138795 .38198854 .35740663 .38198854 .25343324 .22200012 .25343324 .18099976 .25343324H.13999939Z"/>
<path id="font_5_1" d="M.69898989 .22743225C.71499636 .22743225 .7369995 .22743225 .7369995 .25042726 .7369995 .2734375 .71499636 .2734375 .69898989 .2734375H.12599182C.10998535 .2734375 .08799744 .2734375 .08799744 .25042726 .08799744 .22743225 .10998535 .22743225 .12599182 .22743225H.69898989Z"/>
<path id="font_6_1" d="M.22099304 .3976593H.31900025C.33799745 .3976593 .34999085 .3976593 .34999085 .4166565 .34999085 .43066407 .33699037 .43066407 .31999208 .43066407H.22898865L.2649994 .57250979C.2689972 .58750918 .2689972 .5924988 .2689972 .5934906 .2689972 .6144867 .25299073 .6244812 .23599243 .6244812 .20199585 .6244812 .19499207 .5974884 .18399048 .552536L.15299988 .43066407H.056991579C.037994386 .43066407 .024993897 .43066407 .024993897 .4116516 .024993897 .3976593 .037994386 .3976593 .054992677 .3976593H.14498902L.084991458 .15802002C.07899475 .13305664 .069992069 .09811401 .069992069 .084121707 .069992069 .024215699 .11898804-.009765625 .17199707-.009765625 .2789917-.009765625 .33999635 .13105774 .33999635 .14303589 .33999635 .15402222 .33099366 .15602112 .32499696 .15602112 .31399537 .15602112 .31298829 .15202332 .30599977 .13705445 .28599549 .08912659 .23599243 .018234253 .1749878 .018234253 .1539917 .018234253 .14199829 .032211305 .14199829 .06515503 .14199829 .084121707 .14498902 .09510803 .147995 .10809326L.22099304 .3976593Z"/>
<path id="font_4_2" d="M.28199769 .20405579C.2979889 .21907044 .33999635 .2520752 .35598756 .26608277 .41799928 .32312013 .47698976 .3781433 .47698976 .46917726 .47698976 .588089 .3769989 .66503909 .2519989 .66503909 .13198853 .66503909 .052993776 .57411196 .052993776 .48516847 .052993776 .4361725 .09199524 .4291687 .10598755 .4291687 .1269989 .4291687 .1579895 .4441681 .1579895 .48217774 .1579895 .5341797 .10798645 .5341797 .09599304 .5341797 .125 .6070709 .19198609 .6320343 .24099732 .6320343 .33399964 .6320343 .38198854 .55314639 .38198854 .46917726 .38198854 .36514283 .30899049 .28910829 .19099427 .16804505L.06498718 .037994386C.052993776 .026992798 .052993776 .024993897 .052993776 0H.44799806L.47698976 .17904663H.44599916C.44299317 .1590271 .43499757 .10900879 .4229889 .08999634 .4169922 .08198547 .34098817 .08198547 .32499696 .08198547H.14698792L.28199769 .20405579Z"/>
</defs>
<path transform="matrix(1.00002,0,0,-1,1.264389,130.707)" stroke-width=".79701" stroke-linecap="butt" stroke-miterlimit="10" stroke-linejoin="miter" fill="none" stroke="#929292" d="M41.84299 8.14644V10.98128M101.61868 8.14644V10.98128"/>
<path transform="matrix(1.00002,0,0,-1,1.264389,130.707)" stroke-width=".79701" stroke-linecap="butt" stroke-miterlimit="10" stroke-linejoin="miter" fill="none" stroke="#929292" d="M71.73083 7.43796V11.68976M131.50653 7.43796V11.68976"/>
<path transform="matrix(1.00002,0,0,-1,1.264389,130.707)" stroke-width=".79701" stroke-linecap="butt" stroke-miterlimit="10" stroke-linejoin="miter" fill="none" stroke="#929292" d="M10.53767 105.20255H13.37259"/>
<path transform="matrix(1.00002,0,0,-1,1.264389,130.707)" stroke-width=".79701" stroke-linecap="butt" stroke-miterlimit="10" stroke-linejoin="miter" fill="none" stroke="#929292" d=""/>
<path transform="matrix(1.00002,0,0,-1,1.264389,130.707)" stroke-width="1.99255" stroke-linecap="butt" stroke-miterlimit="10" stroke-linejoin="miter" fill="none" stroke="#000000" d="M0 9.56386H151.03318"/>
<path transform="matrix(1.00002,0,0,-1,152.30059,121.14314)" d="M4.38364 0-2.63017 3.50691 0 0-2.63017-3.50691"/>
<path transform="matrix(1.00002,0,0,-1,1.264389,130.707)" stroke-width="1.99255" stroke-linecap="butt" stroke-miterlimit="10" stroke-linejoin="miter" fill="none" stroke="#000000" d="M11.95514 0V124.72858"/>
<path transform="matrix(0,-1,-1.00002,-0,13.219769,5.978424)" d="M4.38364 0-2.63017 3.50691 0 0-2.63017-3.50691"/>
<use data-text="1" xlink:href="#font_1_3" transform="matrix(10.909318,0,0,-10.9091,70.26977,134.932)"/>
<use data-text="2" xlink:href="#font_1_4" transform="matrix(10.909318,0,0,-10.9091,130.04598,134.932)"/>
<g clip-path="url(#clip_2)">
<path transform="matrix(1.00002,0,0,-1,1.264389,130.707)" stroke-width="1.99255" stroke-linecap="butt" stroke-miterlimit="10" stroke-linejoin="miter" fill="none" stroke="#ff0000" d="M0 44.60692 1.56982 43.6991 3.13965 42.81369 4.70947 41.9518 6.2793 41.1126 7.84912 40.29486 9.41896 39.4978 10.98878 38.72255 12.55862 37.97227 14.12843 37.23749 15.69827 36.5199 17.2681 35.82011 18.83794 35.13954 20.40776 34.47678 21.97758 33.83122 23.54741 33.20288 25.11725 32.58858 26.68709 31.9915 28.25691 31.41165 29.82674 30.84671 31.39656 30.29266 32.9664 29.75615 34.53622 29.23367 36.10606 28.72296 37.67587 28.22632 39.24571 27.74113 40.81554 27.2706 42.38538 26.81152 43.9552 26.36652 45.52502 25.9304 47.09485 25.50577 48.66469 25.0926 50.2345 24.69063 51.80435 24.29758 53.37418 23.91568 54.944 23.5427 56.51384 23.18117 58.08365 22.82828 59.65349 22.48369 61.22331 22.15085 62.79315 21.8235 64.36298 21.50531 65.9328 21.19542 67.50262 20.8936 69.07246 20.60123 70.64229 20.31403 72.21213 20.03543 73.78194 19.76602 75.35178 19.49919 76.9216 19.24355 78.49144 18.99104 80.06128 18.74718 81.63109 18.50903 83.20093 18.27663 84.77075 18.05284 86.34059 17.83162 87.91042 17.61615 89.48024 17.40698 91.05006 17.20616 92.6199 17.00818 94.18973 16.81308 95.75957 16.6263 97.32938 16.44266 98.89922 16.26477 100.46902 16.08977 102.03886 15.92018 103.6087 15.75693 105.17853 15.59598 106.74837 15.44133 108.31818 15.28581 109.88802 15.13979 111.45784 14.99345 113.02768 14.85287 114.5975 14.71802 116.16733 14.58289 117.73715 14.45377 119.30699 14.32494 120.87682 14.20155 122.44666 14.08363 124.01646 13.966 125.5863 13.85123 127.15613 13.73906 128.72597 13.63002 130.2958 13.52675 131.86562 13.42345 133.43546 13.3233 135.00528 13.22546 136.57512 13.13109 138.14495 13.03897 139.71477 12.94717 141.28459 12.86081 142.85443 12.77502 144.42426 12.6918 145.9941 12.61148 147.5639 12.53113 149.13375 12.45366 150.70357 12.3805 152.27339 12.30751 153.84322 12.23639 155.41306 12.16713"/>
<path transform="matrix(1.00002,0,0,-1,1.264389,130.707)" stroke-width="1.99255" stroke-linecap="butt" stroke-miterlimit="10" stroke-linejoin="miter" fill="none" stroke="#0000ff" d="M0 102.29811 1.56982 97.55244 3.13965 93.05293 4.70947 88.7803 6.2793 84.7271 7.84912 80.8816 9.41896 77.23247 10.98878 73.77116 12.55862 70.49937 14.12843 67.3787 15.69827 64.42459 17.2681 61.61473 18.83794 58.9528 20.40776 56.42891 21.97758 54.02872 23.54741 51.75348 25.11725 49.5951 26.68709 47.54364 28.25691 45.60286 29.82674 43.75655 31.39656 42.00847 32.9664 40.34865 34.53622 38.76904 36.10606 37.27707 37.67587 35.85909 39.24571 34.51694 40.81554 33.2351 42.38538 32.02289 43.9552 30.87903 45.52502 29.7843 47.09485 28.75238 48.66469 27.76953 50.2345 26.83707 51.80435 25.95432 53.37418 25.11447 54.944 24.31876 56.51384 23.56654 58.08365 22.84482 59.65349 22.1672 61.22331 21.52069 62.79315 20.91147 64.36298 20.3265 65.9328 19.78008 67.50262 19.25726 69.07246 18.75995 70.64229 18.28687 72.21213 17.83926 73.78194 17.41718 75.35178 17.01869 76.9216 16.63327 78.49144 16.27333 80.06128 15.93082 81.63109 15.60529 83.20093 15.29616 84.77075 15.00284 86.34059 14.72455 87.91042 14.46051 89.48024 14.20996 91.05006 13.97226 92.6199 13.74669 94.18973 13.53265 95.75957 13.3296 97.32938 13.13692 98.89922 12.95412 100.46902 12.78062 102.03886 12.61603 103.6087 12.45985 105.17853 12.31166 106.74837 12.17108 108.31818 12.03767 109.88802 11.91109 111.45784 11.791 113.02768 11.67706 114.5975 11.56892 116.16733 11.46632 117.73715 11.369 119.30699 11.27664 120.87682 11.18898 122.44666 11.10585 124.01646 11.02695 125.5863 10.95209 127.15613 10.88106 128.72597 10.81367 130.2958 10.74971 131.86562 10.68904 133.43546 10.63147 135.00528 10.57684 136.57512 10.52501 138.14495 10.47583 139.71477 10.42917 141.28459 10.3849 142.85443 10.34286 144.42426 10.30301 145.9941 10.26518 147.5639 10.22931 149.13375 10.19527 150.70357 10.16296 152.27339 10.13231 153.84322 10.10323 155.41306 10.07562"/>
</g>
<use data-text="t" xlink:href="#font_3_2" transform="matrix(10.909318,0,0,-10.9091,148.11234,116.511)"/>
<use data-text="y" xlink:href="#font_3_4" transform="matrix(10.909318,0,0,-10.9091,17.851723,10.924004)"/>
<path transform="matrix(1.00002,0,0,-1,1.264389,130.707)" d="M63.16203 94.93161H154.3732V128.11594H63.16203Z" fill="#ffffff"/>
<path transform="matrix(1.00002,0,0,-1,1.264389,130.707)" stroke-width="1.99255" stroke-linecap="butt" stroke-miterlimit="10" stroke-linejoin="miter" fill="none" stroke="#000000" d="M63.16203 94.93161H154.3732V128.11594H63.16203Z"/>
<path transform="matrix(1.00002,0,0,-1,68.41374,11.826004)" stroke-width="1.99255" stroke-linecap="butt" stroke-miterlimit="10" stroke-linejoin="miter" fill="none" stroke="#ff0000" d="M0 0H8.50412 17.00826"/>
<use data-text="x" xlink:href="#font_3_3" transform="matrix(10.909318,0,0,-10.9091,89.837169,15.438004)"/>
<use data-text="(" xlink:href="#font_1_1" transform="matrix(10.909318,0,0,-10.9091,96.072299,15.438004)"/>
<use data-text="t" xlink:href="#font_3_2" transform="matrix(10.909318,0,0,-10.9091,100.31438,15.438004)"/>
<use data-text=")" xlink:href="#font_1_2" transform="matrix(10.909318,0,0,-10.9091,104.25447,15.438004)"/>
<use data-text="=" xlink:href="#font_1_5" transform="matrix(10.909318,0,0,-10.9091,111.509159,15.438004)"/>
<use data-text="x" xlink:href="#font_3_3" transform="matrix(10.909318,0,0,-10.9091,123.04184,15.438004)"/>
<use data-text="0" xlink:href="#font_4_1" transform="matrix(7.9702599,0,0,-7.9701,129.27696,17.074006)"/>
<use data-text="e" xlink:href="#font_3_1" transform="matrix(10.909318,0,0,-10.9091,134.01007,15.438004)"/>
<use data-text="&#x2212;" xlink:href="#font_5_1" transform="matrix(7.9702599,0,0,-7.9701,139.08916,11.479004)"/>
<use data-text="t" xlink:href="#font_6_1" transform="matrix(7.9702599,0,0,-7.9701,145.6763,11.479004)"/>
<path transform="matrix(1.00002,0,0,-1,68.41374,26.425004)" stroke-width="1.99255" stroke-linecap="butt" stroke-miterlimit="10" stroke-linejoin="miter" fill="none" stroke="#0000ff" d="M0 0H8.50412 17.00826"/>
<use data-text="y" xlink:href="#font_3_4" transform="matrix(10.909318,0,0,-10.9091,88.41013,30.154)"/>
<use data-text="(" xlink:href="#font_1_1" transform="matrix(10.909318,0,0,-10.9091,94.15025,30.154)"/>
<use data-text="t" xlink:href="#font_3_2" transform="matrix(10.909318,0,0,-10.9091,98.39235,30.154)"/>
<use data-text=")" xlink:href="#font_1_2" transform="matrix(10.909318,0,0,-10.9091,102.33243,30.154)"/>
<use data-text="=" xlink:href="#font_1_5" transform="matrix(10.909318,0,0,-10.9091,109.58711,30.154)"/>
<use data-text="y" xlink:href="#font_3_4" transform="matrix(10.909318,0,0,-10.9091,121.11981,30.154)"/>
<use data-text="0" xlink:href="#font_4_1" transform="matrix(7.9702599,0,0,-7.9701,126.46892,31.791)"/>
<use data-text="e" xlink:href="#font_3_1" transform="matrix(10.909318,0,0,-10.9091,131.201,30.154)"/>
<use data-text="&#x2212;" xlink:href="#font_5_1" transform="matrix(7.9702599,0,0,-7.9701,136.2811,26.195)"/>
<use data-text="2" xlink:href="#font_4_2" transform="matrix(7.9702599,0,0,-7.9701,142.86724,26.195)"/>
<use data-text="t" xlink:href="#font_6_1" transform="matrix(7.9702599,0,0,-7.9701,147.10233,26.195)"/>
</svg>
