<svg xmlns="http://www.w3.org/2000/svg" xmlns:xlink="http://www.w3.org/1999/xlink" version="1.1" width="198" height="139" viewBox="0 0 198 139">
<defs>
<path id="font_1_1" d="M.42799378 .45222474 .43899537 .49023438H.31199647L.34599305 .6092224 .33399964 .6162262 .23699951 .53923037 .22399903 .49023438H.14299011L.13198853 .45222474H.21499634L.125 .08627319C.10998535 .029266358 .12199402-.01171875 .17199707-.01171875 .2519989-.01171875 .31599427 .054275514 .35598756 .1292572L.33399964 .1462555C.31098939 .10726929 .2599945 .040267946 .22898865 .040267946 .20799256 .040267946 .20799256 .0632782 .21398926 .088272098L.30299378 .45222474H.42799378Z"/>
<path id="font_2_1" d="M.07398987 .2861328V.21612549H.31900025V.2861328H.07398987Z"/>
<path id="font_2_3" d="M.43699647 0V.0289917L.35299684 .035995485C.33198548 .037994386 .31999208 .04598999 .31999208 .08496094V.67367556L.31498719 .6796875 .10899353 .6446991V.6197052L.20199585 .6087036C.21899414 .6067047 .22599793 .5987091 .22599793 .56973269V.08496094C.22599793 .065979007 .22299195 .053985597 .21699524 .04698181 .21199036 .039993287 .20399475 .036987306 .19299317 .035995485L.10899353 .0289917V0H.43699647Z"/>
<path id="font_2_2" d="M.2649994 .64468386C.3600006 .64468386 .3869934 .49682618 .3869934 .33398438 .3869934 .17112732 .3600006 .023269654 .2649994 .023269654 .16999817 .023269654 .14299011 .17112732 .14299011 .33398438 .14299011 .49682618 .16999817 .64468386 .2649994 .64468386M.2649994 .6796875C.099990848 .6796875 .040985109 .53378298 .040985109 .33398438 .040985109 .13417053 .099990848-.01171875 .2649994-.01171875 .42999269-.01171875 .4889984 .13417053 .4889984 .33398438 .4889984 .53378298 .42999269 .6796875 .2649994 .6796875Z"/>
<path id="font_2_4" d="M.4850006 .13195801 .45700074 .13696289C.43598939 .08299255 .41600038 .07598877 .37599183 .07598877H.11999512C.13598633 .1279602 .19499207 .19892884 .28799439 .2658844 .38398744 .33584596 .45799256 .38082887 .45799256 .49276734 .45799256 .63168337 .3659973 .6796875 .26098634 .6796875 .12399292 .6796875 .052993776 .5967102 .052993776 .54473879 .052993776 .51075747 .09098816 .49476625 .10798645 .49476625 .12599182 .49476625 .1329956 .50476077 .13699341 .5217438 .15299988 .5897064 .19198609 .64468386 .2539978 .64468386 .33099366 .64468386 .35299684 .5797119 .35299684 .50675967 .35299684 .3998108 .29899598 .33984376 .21199036 .26289369 .08898926 .15594483 .04598999 .08798218 .026992798 .009994507L.036987306 0H.45098878L.4850006 .13195801Z"/>
<path id="font_2_5" d="M.12998963 .3657837C.12998963 .3487854 .1349945 .33779908 .147995 .33779908 .1599884 .33779908 .18699646 .34777833 .23498535 .34777833 .31999208 .34777833 .36799623 .27090455 .36799623 .18403626 .36799623 .065216068 .30899049 .023269654 .23799134 .023269654 .17199707 .023269654 .1289978 .07319641 .10998535 .12911988 .10398865 .14808655 .09399414 .15707398 .07998657 .15707398 .06199646 .15707398 .026992798 .13809204 .026992798 .10215759 .026992798 .05921936 .09599304-.01171875 .23699951-.01171875 .38198854-.01171875 .47299195 .06121826 .47299195 .18902588 .47299195 .32281495 .35798646 .3627777 .30299378 .3677826V.3717804C.35699464 .38078309 .44400025 .4207611 .44400025 .5197296 .44400025 .6306915 .35699464 .6796875 .25 .6796875 .117996219 .6796875 .052993776 .60369876 .052993776 .5607147 .052993776 .5297241 .08799744 .51272585 .101989749 .51272585 .114990238 .51272585 .12298584 .5197296 .1269989 .5327301 .14898682 .60069277 .18699646 .64468386 .24299622 .64468386 .32199098 .64468386 .34098817 .57470706 .34098817 .51872256 .34098817 .4587555 .31999208 .38378907 .23498535 .38378907 .18699646 .38378907 .1599884 .39378358 .147995 .39378358 .1349945 .39378358 .12998963 .38378907 .12998963 .3657837Z"/>
<path id="font_2_6" d="M.2999878 .17871094V.0769043C.2999878 .04296875 .2889862 .036987306 .2649994 .034988405L.20098877 .0289917V0H.46499635V.0289917L.41999818 .033981325C.39698792 .036987306 .3899994 .04296875 .3899994 .0769043V.17871094H.49299623V.22570801H.3899994V.66796877H.31698609C.22299195 .5298767 .11099243 .35577394 .018997193 .19970703L.027999878 .17871094H.2999878M.09098816 .22570801C.15098572 .33476258 .22099304 .4498291 .2979889 .5709076H.2999878V.22570801H.09098816Z"/>
<path id="font_2_7" d="M.42599488 .5919647 .44999696 .6599579 .44499208 .66796877H.11099243L.100997928 .65896609 .08099365 .32388307 .10499573 .31188966C.14698792 .35983277 .18798828 .3828125 .24198914 .3828125 .30599977 .3828125 .37599183 .3358612 .37599183 .20404053 .37599183 .10116577 .33399964 .023269654 .24699402 .023269654 .1769867 .023269654 .14099121 .07420349 .12098694 .13113404 .115997318 .14611817 .10699463 .15510559 .09298706 .15510559 .07299805 .15510559 .039993287 .13513184 .039993287 .10217285 .039993287 .056228639 .10998535-.01171875 .23999024-.01171875 .40499879-.01171875 .47999574 .0881958 .47999574 .21502686 .47999574 .35484315 .3919983 .4268036 .272995 .4268036 .21798706 .4268036 .15899658 .4028015 .1269989 .3738098L.125 .37580873 .147995 .56292727C.15098572 .58795168 .1579895 .5919647 .1769867 .5919647H.42599488Z"/>
</defs>
<path transform="matrix(1.00003,0,0,-1,46.44838,69.831)" d="M0-68.0326V68.0326H45.35506V-68.0326ZM45.35506 68.0326" fill="#d9d9ff"/>
<path transform="matrix(1.00003,0,0,-1,46.44838,69.831)" d="M45.35506-68.0326V68.0326H147.40396V-68.0326ZM147.40396 68.0326" fill="#d9ffd9"/>
<path transform="matrix(1.00003,0,0,-1,46.44838,69.831)" stroke-width=".3985" stroke-linecap="butt" stroke-miterlimit="10" stroke-linejoin="miter" fill="none" stroke="#000000" d="M-45.35506 0H146.94568"/>
<path transform="matrix(1.00003,0,0,-1,193.39847,69.831)" stroke-width=".31879" stroke-linecap="round" stroke-linejoin="round" fill="none" stroke="#000000" d="M-1.19551 1.59401C-1.09587 .99626 0 .09961 .29886 0 0-.09961-1.09587-.99626-1.19551-1.59401"/>
<use data-text="t" xlink:href="#font_1_1" transform="matrix(10.036701,0,0,-10.0364,191.71875,79.415)"/>
<path transform="matrix(1.00003,0,0,-1,46.44838,69.831)" stroke-width=".3985" stroke-linecap="butt" stroke-miterlimit="10" stroke-linejoin="miter" fill="none" stroke="#000000" d="M0-68.0326V67.57431"/>
<path transform="matrix(0,-1,-1.00003,-0,46.44838,2.256691)" stroke-width=".31879" stroke-linecap="round" stroke-linejoin="round" fill="none" stroke="#000000" d="M-1.19551 1.59401C-1.09587 .99626 0 .09961 .29886 0 0-.09961-1.09587-.99626-1.19551-1.59401"/>
<path transform="matrix(1.00003,0,0,-1,46.44838,69.831)" stroke-width=".3985" stroke-linecap="butt" stroke-miterlimit="10" stroke-linejoin="miter" fill="none" stroke="#b5b5b5" d="M-22.67752 2.26787V-2.26787"/>
<use data-text="-" xlink:href="#font_2_1" transform="matrix(9.165875,0,0,-9.1656,19.540574,82.768009)"/>
<use data-text="1" xlink:href="#font_2_3" transform="matrix(9.165875,0,0,-9.1656,23.133599,82.768009)"/>
<path transform="matrix(1.00003,0,0,-1,46.44838,69.831)" stroke-width=".3985" stroke-linecap="butt" stroke-miterlimit="10" stroke-linejoin="miter" fill="none" stroke="#b5b5b5" d="M0 2.26787V-2.26787"/>
<use data-text="0" xlink:href="#font_2_2" transform="matrix(9.165875,0,0,-9.1656,44.017305,82.768009)"/>
<path transform="matrix(1.00003,0,0,-1,46.44838,69.831)" stroke-width=".3985" stroke-linecap="butt" stroke-miterlimit="10" stroke-linejoin="miter" fill="none" stroke="#b5b5b5" d="M22.67752 2.26787V-2.26787"/>
<use data-text="1" xlink:href="#font_2_3" transform="matrix(9.165875,0,0,-9.1656,66.695987,82.768009)"/>
<path transform="matrix(1.00003,0,0,-1,46.44838,69.831)" stroke-width=".3985" stroke-linecap="butt" stroke-miterlimit="10" stroke-linejoin="miter" fill="none" stroke="#b5b5b5" d="M45.35506 2.26787V-2.26787"/>
<use data-text="2" xlink:href="#font_2_4" transform="matrix(9.165875,0,0,-9.1656,89.37367,82.768009)"/>
<path transform="matrix(1.00003,0,0,-1,46.44838,69.831)" stroke-width=".3985" stroke-linecap="butt" stroke-miterlimit="10" stroke-linejoin="miter" fill="none" stroke="#b5b5b5" d="M68.0326 2.26787V-2.26787"/>
<use data-text="3" xlink:href="#font_2_5" transform="matrix(9.165875,0,0,-9.1656,112.052349,82.768009)"/>
<path transform="matrix(1.00003,0,0,-1,46.44838,69.831)" stroke-width=".3985" stroke-linecap="butt" stroke-miterlimit="10" stroke-linejoin="miter" fill="none" stroke="#b5b5b5" d="M90.71013 2.26787V-2.26787"/>
<use data-text="4" xlink:href="#font_2_6" transform="matrix(9.165875,0,0,-9.1656,134.73004,82.768009)"/>
<path transform="matrix(1.00003,0,0,-1,46.44838,69.831)" stroke-width=".3985" stroke-linecap="butt" stroke-miterlimit="10" stroke-linejoin="miter" fill="none" stroke="#b5b5b5" d="M113.38766 2.26787V-2.26787"/>
<use data-text="5" xlink:href="#font_2_7" transform="matrix(9.165875,0,0,-9.1656,157.40872,82.768009)"/>
<path transform="matrix(1.00003,0,0,-1,46.44838,69.831)" stroke-width=".3985" stroke-linecap="butt" stroke-miterlimit="10" stroke-linejoin="miter" fill="none" stroke="#b5b5b5" d="M2.26787-45.35506H-2.26787"/>
<use data-text="-" xlink:href="#font_2_1" transform="matrix(9.165875,0,0,-9.1656,31.18892,118.255008)"/>
<use data-text="2" xlink:href="#font_2_4" transform="matrix(9.165875,0,0,-9.1656,34.781946,118.255008)"/>
<path transform="matrix(1.00003,0,0,-1,46.44838,69.831)" stroke-width=".3985" stroke-linecap="butt" stroke-miterlimit="10" stroke-linejoin="miter" fill="none" stroke="#b5b5b5" d="M2.26787-22.67752H-2.26787"/>
<use data-text="-" xlink:href="#font_2_1" transform="matrix(9.165875,0,0,-9.1656,31.18892,95.577)"/>
<use data-text="1" xlink:href="#font_2_3" transform="matrix(9.165875,0,0,-9.1656,34.781946,95.577)"/>
<path transform="matrix(1.00003,0,0,-1,46.44838,69.831)" stroke-width=".3985" stroke-linecap="butt" stroke-miterlimit="10" stroke-linejoin="miter" fill="none" stroke="#b5b5b5" d="M2.26787 0H-2.26787"/>
<use data-text="0" xlink:href="#font_2_2" transform="matrix(9.165875,0,0,-9.1656,34.786027,72.875)"/>
<path transform="matrix(1.00003,0,0,-1,46.44838,69.831)" stroke-width=".3985" stroke-linecap="butt" stroke-miterlimit="10" stroke-linejoin="miter" fill="none" stroke="#b5b5b5" d="M2.26787 22.67752H-2.26787"/>
<use data-text="1" xlink:href="#font_2_3" transform="matrix(9.165875,0,0,-9.1656,34.786027,50.222)"/>
<path transform="matrix(1.00003,0,0,-1,46.44838,69.831)" stroke-width=".3985" stroke-linecap="butt" stroke-miterlimit="10" stroke-linejoin="miter" fill="none" stroke="#b5b5b5" d="M2.26787 45.35506H-2.26787"/>
<use data-text="2" xlink:href="#font_2_4" transform="matrix(9.165875,0,0,-9.1656,34.786027,27.544003)"/>
<path transform="matrix(1.00003,0,0,-1,46.44838,69.831)" stroke-width="1.19553" stroke-linecap="butt" stroke-miterlimit="10" stroke-linejoin="miter" fill="none" stroke="#0000ff" d="M0 0 .22559 .00032 .4512 .00206 .67682 .00482 .90242 .00862 1.12804 .01382 1.35365 .02007 1.57927 .02731 1.80487 .03563 2.03049 .0453 2.2561 .05605 2.48174 .0678 2.70732 .08061 2.93294 .09479 3.15855 .10968 3.38417 .12593 3.60979 .14357 3.83539 .16193 4.061 .18164 4.28662 .20241 4.51222 .22421 4.73784 .24739 4.96347 .27126 5.18907 .29654 5.41467 .32317 5.64029 .35051 5.8659 .37924 6.09154 .40898 6.31712 .43979 6.54274 .47162 6.76836 .50484 6.99397 .5391 7.21959 .57439 7.4452 .61073 7.6708 .64845 7.89642 .6872 8.12202 .72699 8.34764 .76817 8.57327 .81003 8.79889 .8533 9.02448 .8976 9.25009 .94292 9.47571 .98962 9.70134 1.03738 9.92694 1.08617 10.15254 1.136 10.37816 1.18723 10.60378 1.23946 10.82939 1.29276 11.05501 1.34709 11.28062 1.40279 11.50621 1.4592 11.73183 1.51698 11.95746 1.57614 12.18307 1.63602 12.40868 1.69727 12.63428 1.75957 12.8599 1.82288 13.08551 1.88757 13.31113 1.95299 13.53674 2.01976 13.76236 2.08792 13.98796 2.15678 14.21356 2.22704 14.4392 2.29832 14.66481 2.37064 14.89043 2.444 15.11601 2.51875 15.34163 2.59453 15.56726 2.67134 15.79288 2.74954 16.01848 2.82845 16.2441 2.90872 16.4697 2.99004 16.69531 3.07274 16.92093 3.15614 17.14655 3.24092 17.37216 3.32674 17.59778 3.41393 17.82336 3.50182 18.049 3.5911 18.27461 3.68141 18.50023 3.77277 18.72583 3.8655 18.95143 3.95927 19.17706 4.0541 19.40268 4.14993 19.62828 4.24716 19.8539 4.34544 20.07951 4.44476 20.30511 4.54509 20.53073 4.6465 20.75635 4.74925 20.98196 4.85307 21.20758 4.95792 21.43317 5.06415 21.6588 5.17143 21.88441 5.27972 22.11002 5.38908 22.33563 5.49947 22.56125 5.61122 22.78687 5.72404 23.01247 5.83789 23.23808 5.95311 23.4637 6.06903 23.68932 6.18633 23.91492 6.30466 24.14053 6.42441 24.36615 6.54483 24.59177 6.66663 24.81737 6.78947 25.04298 6.91368 25.2686 7.03862 25.49422 7.16492 25.71982 7.29227 25.94543 7.42097 26.17105 7.55038 26.39667 7.6812 26.62227 7.81303 26.84789 7.94624 27.0735 8.08018 27.29912 8.21547 27.52472 8.3518 27.75034 8.48917 27.97595 8.62793 28.20157 8.76773 28.42717 8.90857 28.65279 9.05045 28.8784 9.1937 29.10402 9.33765 29.32962 9.48297 29.55524 9.6297 29.78085 9.77711 30.00647 9.9259 30.23207 10.07573 30.45769 10.22661 30.6833 10.37852 30.90892 10.5318 31.13454 10.68613 31.36014 10.84149 31.58575 10.99826 31.81137 11.15569 32.03697 11.31451 32.26259 11.47438 32.4882 11.63564 32.7138 11.79793 32.93942 11.9609 33.16504 12.12563 33.39066 12.29102 33.61627 12.45781 33.84187 12.62527 34.06749 12.79451 34.2931 12.9644 34.5187 13.13568 34.74434 13.30766 34.96994 13.48103 35.19556 13.65578 35.42116 13.8312 35.64677 14.00803 35.8724 14.18588 36.09802 14.36514 36.32361 14.54507 36.54922 14.7264 36.77484 14.90875 37.00046 15.09215 37.22607 15.27693 37.45168 15.4624 37.67729 15.64961 37.90291 15.83751 38.12851 16.02643 38.35414 16.21675 38.57976 16.40811 38.80536 16.6005 39.03096 16.79428 39.25658 16.98875 39.48221 17.18462 39.70782 17.38184 39.93343 17.57977 40.15903 17.77908 40.38464 17.97945 40.61026 18.18083 40.83588 18.38326 41.0615 18.58707 41.2871 18.79193 41.51271 18.99782 41.73831 19.20474 41.96394 19.41304 42.18956 19.6224 42.41518 19.83278 42.64076 20.0442 42.86638 20.25702 43.09201 20.47087 43.31763 20.68576 43.54323 20.90167 43.76883 21.11897 43.99445 21.33699 44.22006 21.55672 44.44568 21.77713 44.6713 21.9986 44.89691 22.22144"/>
<path transform="matrix(1.00003,0,0,-1,46.44838,69.831)" stroke-width="1.19553" stroke-linecap="butt" stroke-miterlimit="10" stroke-linejoin="miter" fill="none" stroke="#009900" d="M45.35506-9.4366 45.86752-9.9003 46.37999-10.3588 46.89247-10.8114 47.40494-11.2595 47.91742-11.70139 48.42989-12.13739 48.94235-12.56682 49.45483-12.99069 49.9673-13.40698 50.47978-13.81668 50.99225-14.21982 51.50471-14.61566 52.0172-15.00322 52.52966-15.38351 53.04214-15.75653 53.55461-16.1209 54.0671-16.47662 54.57956-16.82474 55.09204-17.1642 55.6045-17.49396 56.11697-17.81612 56.62946-18.12894 57.14192-18.4317 57.6544-18.72548 58.16687-19.01027 58.67934-19.28398 59.19182-19.5487 59.70428-19.80371 60.21677-20.04837 60.72923-20.28194 61.24171-20.5065 61.75418-20.72037 62.26666-20.92279 62.77913-21.11517 63.2916-21.29684 63.80408-21.46744 64.31654-21.62662 64.82903-21.7754 65.3415-21.91313 65.85396-22.03908 66.36646-22.15396 66.8789-22.25847 67.3914-22.35017 67.90385-22.4308 68.41634-22.50069 68.9288-22.55882 69.44128-22.60449 69.95375-22.6398 70.46622-22.66367 70.9787-22.67508H71.49117L72.00365-22.66437 72.51611-22.64084 73.02858-22.60588 73.54106-22.56055 74.05353-22.50311 74.56601-22.43321 75.07848-22.35329 75.59094-22.26157 76.10342-22.15778 76.61589-22.04324 77.12837-21.91763 77.64084-21.78026 78.15332-21.6318 78.66579-21.47298 79.17827-21.30307 79.69073-21.12141 80.2032-20.92937 80.71568-20.72728 81.22815-20.51376 81.74063-20.2899 82.2531-20.05632 82.76556-19.81236 83.27805-19.55734 83.79051-19.29332 84.30301-19.0196 84.81546-18.73517 85.32796-18.44139 85.84041-18.13931 86.35289-17.82683 86.86536-17.50502 87.37784-17.17526 87.8903-16.8365 88.40279-16.48872 88.91525-16.13266 89.42773-15.76898 89.94019-15.39632 90.45268-15.01602 90.96513-14.62883 91.47763-14.2333 91.99008-13.83052 92.50258-13.42082 93.01503-13.00488 93.52751-12.58134 94.03998-12.15192 94.55244-11.71626 95.06493-11.27438 95.5774-10.82697 96.08987-10.37402 96.60234-9.91586 97.1148-9.4522 97.62729-8.984 98.13976-8.51167 98.65224-8.03415 99.1647-7.55316 99.67719-7.06801 100.18965-6.57909 100.70212-6.08704 101.2146-5.59186 101.72707-5.0939 102.23955-4.59355 102.75201-4.09042 103.2645-3.58556 103.77696-3.07828 104.28944-2.56996 104.80191-2.06026 105.31439-1.54951 105.82686-1.03772 106.33934-.5256 106.8518-.01347 107.36429 .49825 107.87674 1.01039 108.38924 1.52252 108.90169 2.03326 109.41418 2.54297 109.92664 3.05162 110.43912 3.55858 110.95158 4.06378 111.46407 4.56691 111.97653 5.06761 112.48901 5.56522 113.00148 6.06071 113.51396 6.55315 114.02643 7.04242 114.53891 7.52754 115.05136 8.00888 115.56386 8.4864 116.07631 8.95943 116.5888 9.42761 117.10126 9.8913 117.61374 10.3498 118.1262 10.80309 118.63867 11.25085 119.15115 11.69308 119.66362 12.12874 120.1761 12.55885 120.68857 12.9824 121.20105 13.39902 121.71352 13.80873 122.22598 14.2122 122.73846 14.60806 123.25095 14.99596 123.76341 15.37625 124.2759 15.74927 124.78835 16.11363 125.30084 16.47006 125.8133 16.81816 126.32579 17.15761 126.83824 17.48807 127.35072 17.80989 127.86319 18.12303 128.37567 18.42583 128.88814 18.71994 129.40062 19.00473 129.91309 19.27914 130.42557 19.5435 130.93804 19.79887 131.45052 20.04388 131.96297 20.27779 132.47547 20.50237 132.98792 20.71655 133.50041 20.91898 134.01287 21.11137 134.52535 21.29338 135.03781 21.46432 135.5503 21.62386 136.06276 21.77264 136.57524 21.9107 137.0877 22.03665 137.60019 22.15189 138.11266 22.25641 138.62514 22.34879 139.13759 22.42941 139.65009 22.4993 140.16254 22.55779 140.67504 22.60382 141.18749 22.6391 141.69997 22.66333 142.21244 22.67508H142.7249L143.2374 22.66437 143.74985 22.64151 144.26235 22.60658 144.7748 22.56125 145.28728 22.5045 145.79975 22.4346 146.31223 22.35501 146.82469 22.26366 147.33718 22.15984"/>
<path transform="matrix(1.00003,0,0,-1,46.44838,69.831)" stroke-width=".79701" stroke-linecap="butt" stroke-miterlimit="10" stroke-linejoin="miter" fill="none" stroke="#0000ff" d="M46.9491 22.67752C46.9491 23.55789 46.23543 24.27156 45.35506 24.27156 44.47467 24.27156 43.761 23.55789 43.761 22.67752 43.761 21.79713 44.47467 21.08347 45.35506 21.08347 46.23543 21.08347 46.9491 21.79713 46.9491 22.67752ZM45.35506 22.67752"/>
<path transform="matrix(1.00003,0,0,-1,46.44838,69.831)" d="M46.9491-9.4366C46.9491-8.55623 46.23543-7.84256 45.35506-7.84256 44.47467-7.84256 43.761-8.55623 43.761-9.4366 43.761-10.31699 44.47467-11.03065 45.35506-11.03065 46.23543-11.03065 46.9491-10.31699 46.9491-9.4366ZM45.35506-9.4366" fill="#009900"/>
</svg>
