<svg xmlns="http://www.w3.org/2000/svg" xmlns:xlink="http://www.w3.org/1999/xlink" version="1.1" width="133" height="91" viewBox="0 0 133 91">
<defs>
<path id="font_1_7" d="M.4850006 .13195801 .45700074 .13696289C.43598939 .08299255 .41600038 .07598877 .37599183 .07598877H.11999512C.13598633 .1279602 .19499207 .19892884 .28799439 .2658844 .38398744 .33584596 .45799256 .38082887 .45799256 .49276734 .45799256 .63168337 .3659973 .6796875 .26098634 .6796875 .12399292 .6796875 .052993776 .5967102 .052993776 .54473879 .052993776 .51075747 .09098816 .49476625 .10798645 .49476625 .12599182 .49476625 .1329956 .50476077 .13699341 .5217438 .15299988 .5897064 .19198609 .64468386 .2539978 .64468386 .33099366 .64468386 .35299684 .5797119 .35299684 .50675967 .35299684 .3998108 .29899598 .33984376 .21199036 .26289369 .08898926 .15594483 .04598999 .08798218 .026992798 .009994507L.036987306 0H.45098878L.4850006 .13195801Z"/>
<path id="font_1_8" d="M.2999878 .17871094V.0769043C.2999878 .04296875 .2889862 .036987306 .2649994 .034988405L.20098877 .0289917V0H.46499635V.0289917L.41999818 .033981325C.39698792 .036987306 .3899994 .04296875 .3899994 .0769043V.17871094H.49299623V.22570801H.3899994V.66796877H.31698609C.22299195 .5298767 .11099243 .35577394 .018997193 .19970703L.027999878 .17871094H.2999878M.09098816 .22570801C.15098572 .33476258 .22099304 .4498291 .2979889 .5709076H.2999878V.22570801H.09098816Z"/>
<path id="font_2_1" d="M.42799378 .45222474 .43899537 .49023438H.31199647L.34599305 .6092224 .33399964 .6162262 .23699951 .53923037 .22399903 .49023438H.14299011L.13198853 .45222474H.21499634L.125 .08627319C.10998535 .029266358 .12199402-.01171875 .17199707-.01171875 .2519989-.01171875 .31599427 .054275514 .35598756 .1292572L.33399964 .1462555C.31098939 .10726929 .2599945 .040267946 .22898865 .040267946 .20799256 .040267946 .20799256 .0632782 .21398926 .088272098L.30299378 .45222474H.42799378Z"/>
<path id="font_3_1" d="M.6349945 .2529297V.31092835H.084991458V.2529297H.6349945Z"/>
<path id="font_2_2" d="M.070999149 .45393373 .07398987 .42893983 .14199829 .43093873C.1639862 .43193055 .16899109 .41493226 .1769867 .36291505 .18798828 .28489686 .20999146 .09286499 .20999146 .0128479 .20999146-.017166138 .20799256-.058166505 .18598938-.11117554 .16799927-.15318299 .14199829-.18218994 .12199402-.18218994 .10699463-.18218994 .09599304-.17118836 .08099365-.15118408 .068984989-.13517761 .06098938-.127182 .04598999-.127182 .019989014-.12818909-.005004883-.15818787-.005004883-.18719483-.005004883-.21418762 .023986817-.2421875 .067993167-.2421875 .15299988-.2421875 .18998719-.17919922 .27799989-.027160645 .2979889 .0068511965 .35798646 .11286926 .41999818 .21488953 .47698976 .30891419 .5399933 .40592958 .5399933 .4459381 .5399933 .48094178 .5289917 .5019531 .5219879 .5019531 .5029907 .5019531 .46899415 .49394227 .44400025 .47694398 .44499208 .4419403 .44299317 .3809204 .43099977 .33891297 .4149933 .28289796 .35598756 .17488098 .2899933 .06085205H.2869873C.27999879 .21388245 .26098634 .42492677 .24699402 .49795533L.23899842 .5019531 .070999149 .45393373Z"/>
<path id="font_1_1" d="M.1749878 .2822113C.1749878 .56832888 .2619934 .65437319 .32499696 .66737368V.6923828C.1499939 .685379 .10499573 .46829225 .10499573 .2822113 .10499573 .09614563 .1499939-.12094116 .32499696-.12792969V-.10293579C.2669983-.090927127 .1749878-.0059051516 .1749878 .2822113Z"/>
<path id="font_1_5" d="M.2649994 .64468386C.3600006 .64468386 .3869934 .49682618 .3869934 .33398438 .3869934 .17112732 .3600006 .023269654 .2649994 .023269654 .16999817 .023269654 .14299011 .17112732 .14299011 .33398438 .14299011 .49682618 .16999817 .64468386 .2649994 .64468386M.2649994 .6796875C.099990848 .6796875 .040985109 .53378298 .040985109 .33398438 .040985109 .13417053 .099990848-.01171875 .2649994-.01171875 .42999269-.01171875 .4889984 .13417053 .4889984 .33398438 .4889984 .53378298 .42999269 .6796875 .2649994 .6796875Z"/>
<path id="font_1_3" d="M.069992069-.140625C.11999512-.09362793 .19299317-.027633667 .19299317 .051361085 .19299317 .10636902 .1599884 .1423645 .125 .14137268 .09399414 .14137268 .07598877 .117370609 .07598877 .09136963 .07598877 .055374147 .10899353 .037368776 .10899353-.005630493 .10899353-.04663086 .08299255-.086639408 .050994874-.12162781L.069992069-.140625Z"/>
<path id="font_1_6" d="M.43699647 0V.0289917L.35299684 .035995485C.33198548 .037994386 .31999208 .04598999 .31999208 .08496094V.67367556L.31498719 .6796875 .10899353 .6446991V.6197052L.20199585 .6087036C.21899414 .6067047 .22599793 .5987091 .22599793 .56973269V.08496094C.22599793 .065979007 .22299195 .053985597 .21699524 .04698181 .21199036 .039993287 .20399475 .036987306 .19299317 .035995485L.10899353 .0289917V0H.43699647Z"/>
<path id="font_1_2" d="M.1749878 .2822113C.1749878-.0059051516 .08299255-.090927127 .024993897-.10293579V-.12792969C.19999695-.12094116 .24499512 .09614563 .24499512 .2822113 .24499512 .46829225 .19999695 .685379 .024993897 .6923828V.66737368C.08799744 .65437319 .1749878 .56832888 .1749878 .2822113Z"/>
<path id="font_1_4" d="M.1329956-.01171875C.17199707-.01171875 .19499207 .015274048 .19599915 .05126953 .19599915 .088272098 .17199707 .11627197 .1329956 .11627197 .09498596 .11627197 .069992069 .088272098 .069992069 .05126953 .069992069 .015274048 .09498596-.01171875 .1329956-.01171875Z"/>
<path id="font_1_9" d="M.42599488 .5919647 .44999696 .6599579 .44499208 .66796877H.11099243L.100997928 .65896609 .08099365 .32388307 .10499573 .31188966C.14698792 .35983277 .18798828 .3828125 .24198914 .3828125 .30599977 .3828125 .37599183 .3358612 .37599183 .20404053 .37599183 .10116577 .33399964 .023269654 .24699402 .023269654 .1769867 .023269654 .14099121 .07420349 .12098694 .13113404 .115997318 .14611817 .10699463 .15510559 .09298706 .15510559 .07299805 .15510559 .039993287 .13513184 .039993287 .10217285 .039993287 .056228639 .10998535-.01171875 .23999024-.01171875 .40499879-.01171875 .47999574 .0881958 .47999574 .21502686 .47999574 .35484315 .3919983 .4268036 .272995 .4268036 .21798706 .4268036 .15899658 .4028015 .1269989 .3738098L.125 .37580873 .147995 .56292727C.15098572 .58795168 .1579895 .5919647 .1769867 .5919647H.42599488Z"/>
</defs>
<path transform="matrix(1.00003,0,0,-1.00003,26.817749,42.783926)" stroke-width=".3985" stroke-linecap="butt" stroke-miterlimit="10" stroke-linejoin="miter" fill="none" stroke="#cbcbcb" d="M-21.2601-46.77216V38.26823"/>
<path transform="matrix(1.00003,0,0,-1.00003,26.817749,42.783926)" stroke-width=".3985" stroke-linecap="butt" stroke-miterlimit="10" stroke-linejoin="miter" fill="none" stroke="#cbcbcb" d="M21.2601-46.77216V38.26823"/>
<path transform="matrix(1.00003,0,0,-1.00003,26.817749,42.783926)" stroke-width=".3985" stroke-linecap="butt" stroke-miterlimit="10" stroke-linejoin="miter" fill="none" stroke="#cbcbcb" d="M42.5202-46.77216V38.26823"/>
<path transform="matrix(1.00003,0,0,-1.00003,26.817749,42.783926)" stroke-width=".3985" stroke-linecap="butt" stroke-miterlimit="10" stroke-linejoin="miter" fill="none" stroke="#cbcbcb" d="M63.7803-46.77216V38.26823"/>
<path transform="matrix(1.00003,0,0,-1.00003,26.817749,42.783926)" stroke-width=".3985" stroke-linecap="butt" stroke-miterlimit="10" stroke-linejoin="miter" fill="none" stroke="#cbcbcb" d="M85.04042-46.77216V38.26823"/>
<path transform="matrix(1.00003,0,0,-1.00003,26.817749,42.783926)" stroke-width=".3985" stroke-linecap="butt" stroke-miterlimit="10" stroke-linejoin="miter" fill="none" stroke="#000000" d="M42.5202-1.48834V1.48834"/>
<use data-text="2" xlink:href="#font_1_7" transform="matrix(10.036701,0,0,-10.036701,66.67695,52.90323)"/>
<path transform="matrix(1.00003,0,0,-1.00003,26.817749,42.783926)" stroke-width=".3985" stroke-linecap="butt" stroke-miterlimit="10" stroke-linejoin="miter" fill="none" stroke="#000000" d="M85.04042-1.48834V1.48834"/>
<use data-text="4" xlink:href="#font_1_8" transform="matrix(10.036701,0,0,-10.036701,109.19922,52.90323)"/>
<path transform="matrix(1.00003,0,0,-1.00003,26.817749,42.783926)" stroke-width=".3985" stroke-linecap="butt" stroke-miterlimit="10" stroke-linejoin="miter" fill="none" stroke="#000000" d="M-25.51204 0H101.59029"/>
<path transform="matrix(1.00003,0,0,-1.00003,128.41109,42.783926)" stroke-width=".31879" stroke-linecap="round" stroke-linejoin="round" fill="none" stroke="#000000" d="M-1.19551 1.59401C-1.09587 .99626 0 .09961 .29886 0 0-.09961-1.09587-.99626-1.19551-1.59401"/>
<use data-text="t" xlink:href="#font_2_1" transform="matrix(10.036701,0,0,-10.036701,126.73176,52.36821)"/>
<path transform="matrix(1.00003,0,0,-1.00003,26.817749,42.783926)" stroke-width=".3985" stroke-linecap="butt" stroke-miterlimit="10" stroke-linejoin="miter" fill="none" stroke="#cbcbcb" d="M-25.51204-42.5202H102.04857"/>
<path transform="matrix(1.00003,0,0,-1.00003,26.817749,42.783926)" stroke-width=".3985" stroke-linecap="butt" stroke-miterlimit="10" stroke-linejoin="miter" fill="none" stroke="#cbcbcb" d="M-25.51204-21.2601H102.04857"/>
<path transform="matrix(1.00003,0,0,-1.00003,26.817749,42.783926)" stroke-width=".3985" stroke-linecap="butt" stroke-miterlimit="10" stroke-linejoin="miter" fill="none" stroke="#cbcbcb" d="M-25.51204 21.2601H102.04857"/>
<path transform="matrix(1.00003,0,0,-1.00003,26.817749,42.783926)" stroke-width=".3985" stroke-linecap="butt" stroke-miterlimit="10" stroke-linejoin="miter" fill="none" stroke="#000000" d="M-1.48834-42.5202H1.48834"/>
<use data-text="&#x2212;" xlink:href="#font_3_1" transform="matrix(7.3327205,0,0,-7.3327205,14.252373,87.76028)"/>
<use data-text="2" xlink:href="#font_1_7" transform="matrix(7.3327205,0,0,-7.3327205,19.529534,87.76028)"/>
<path transform="matrix(1.00003,0,0,-1.00003,26.817749,42.783926)" stroke-width=".3985" stroke-linecap="butt" stroke-miterlimit="10" stroke-linejoin="miter" fill="none" stroke="#000000" d="M0-46.77216V37.80995"/>
<path transform="matrix(0,-1.00003,-1.00003,-0,26.817749,4.9728357)" stroke-width=".31879" stroke-linecap="round" stroke-linejoin="round" fill="none" stroke="#000000" d="M-1.19551 1.59401C-1.09587 .99626 0 .09961 .29886 0 0-.09961-1.09587-.99626-1.19551-1.59401"/>
<use data-text="y" xlink:href="#font_2_2" transform="matrix(10.036701,0,0,-10.036701,17.800484,5.763809)"/>
<path transform="matrix(1.00003,0,0,-1.00003,26.817749,42.783926)" stroke-width="1.59404" stroke-linecap="butt" stroke-miterlimit="10" stroke-linejoin="miter" fill="none" stroke="#000000" d="M-24.43388-33.4769-20.19702-31.35844-14.88199-28.70093-9.56696-26.04341-4.25194-23.3859 1.06305-20.72871 6.37807-18.07121 11.69312-15.4137 17.00813-12.75616 22.32315-10.09865 27.6382-7.44115 32.95322-4.78365 38.26823-2.12613 43.58325 .53134 48.8983 3.18887 54.21332 5.84639 59.52834 8.5039 64.84338 11.1614 70.1584 13.81891 75.47343 16.47643 80.78844 19.13394 86.10349 21.79147 91.4185 24.44897 96.73354 27.10649 100.97041 29.22495"/>
<path transform="matrix(-.8943869,.44718344,.44718344,.8943869,2.3831349,76.261829)" stroke-width="1.27522" stroke-linecap="round" stroke-linejoin="round" fill="none" stroke="#000000" d="M-2.27148 3.02866C-2.0822 1.8929 0 .18927 .56786 0 0-.18927-2.0822-1.8929-2.27148-3.02866"/>
<path transform="matrix(.8943869,-.44718344,-.44718344,-.8943869,127.7912,13.558096)" stroke-width="1.27522" stroke-linecap="round" stroke-linejoin="round" fill="none" stroke="#000000" d="M-2.27148 3.02866C-2.0822 1.8929 0 .18927 .56786 0 0-.18927-2.0822-1.8929-2.27148-3.02866"/>
<path transform="matrix(1.00003,0,0,-1.00003,26.817749,42.783926)" stroke-width=".3985" stroke-linecap="butt" stroke-miterlimit="10" stroke-linejoin="miter" fill="none" stroke="#000000" d="M17.00813-21.2601"/>
<path transform="matrix(1.00003,0,0,-1.00003,26.817749,42.783926)" d="M2.94185-31.23279H31.07442V-21.45935H2.94185Z" fill="#ffffff"/>
<use data-text="(" xlink:href="#font_1_1" transform="matrix(9.165875,0,0,-9.165875,30.755867,71.72579)"/>
<use data-text="0" xlink:href="#font_1_5" transform="matrix(9.165875,0,0,-9.165875,33.96392,71.72579)"/>
<use data-text="," xlink:href="#font_1_3" transform="matrix(9.165875,0,0,-9.165875,38.821847,71.72579)"/>
<use data-text="&#x2212;" xlink:href="#font_3_1" transform="matrix(9.165875,0,0,-9.165875,42.23121,71.72579)"/>
<use data-text="1" xlink:href="#font_1_6" transform="matrix(9.165875,0,0,-9.165875,48.82641,71.72579)"/>
<use data-text=")" xlink:href="#font_1_2" transform="matrix(9.165875,0,0,-9.165875,53.684335,71.72579)"/>
<path transform="matrix(1.00003,0,0,-1.00003,26.817749,42.783926)" stroke-width="1.19553" stroke-linecap="butt" stroke-miterlimit="10" stroke-linejoin="miter" fill="none" stroke="#0033cc" d="M0-21.2601V-11.58646"/>
<path transform="matrix(0,-1.00003,-1.00003,-0,26.817749,54.37073)" stroke-width=".9564" stroke-linecap="round" stroke-linejoin="round" fill="none" stroke="#0033cc" d="M-1.91284 2.55046C-1.75343 1.59402 0 .15938 .4782 0 0-.15938-1.75343-1.59402-1.91284-2.55046"/>
<path transform="matrix(1.00003,0,0,-1.00003,26.817749,42.783926)" d="M-12.7523-19.05342H-.5977402V-12.836699H-12.7523Z" fill="#ffffff"/>
<use data-text="0" xlink:href="#font_1_5" transform="matrix(9.165875,0,0,-9.165875,14.065369,61.758497)" fill="#0033cc"/>
<use data-text="." xlink:href="#font_1_4" transform="matrix(9.165875,0,0,-9.165875,18.923279,61.758497)" fill="#0033cc"/>
<use data-text="5" xlink:href="#font_1_9" transform="matrix(9.165875,0,0,-9.165875,21.352234,61.758497)" fill="#0033cc"/>
<path transform="matrix(1.00003,0,0,-1.00003,26.817749,42.783926)" stroke-width="1.19553" stroke-linecap="butt" stroke-miterlimit="10" stroke-linejoin="miter" fill="none" stroke="#009966" d="M0-10.63004H18.17754"/>
<path transform="matrix(1.00003,0,0,-1.00003,44.995836,53.414285)" stroke-width=".9564" stroke-linecap="round" stroke-linejoin="round" fill="none" stroke="#009966" d="M-1.91284 2.55046C-1.75343 1.59402 0 .15938 .4782 0 0-.15938-1.75343-1.59402-1.91284-2.55046"/>
<path transform="matrix(1.00003,0,0,-1.00003,26.817749,42.783926)" d="M7.13606-13.69856H11.99786V-7.5615398H7.13606Z" fill="#ffffff"/>
<use data-text="1" xlink:href="#font_1_6" transform="matrix(9.165875,0,0,-9.165875,33.953966,56.483339)" fill="#009966"/>
<path transform="matrix(1.00003,0,0,-1.00003,26.817749,42.783926)" d="M2.24162-21.2601C2.24162-20.02208 1.238-19.01848 0-19.01848-1.238-19.01848-2.24162-20.02208-2.24162-21.2601-2.24162-22.49811-1.238-23.50172 0-23.50172 1.238-23.50172 2.24162-22.49811 2.24162-21.2601ZM0-21.2601" fill="#ffffff"/>
<path transform="matrix(1.00003,0,0,-1.00003,26.817749,42.783926)" stroke-width="1.19553" stroke-linecap="butt" stroke-miterlimit="10" stroke-linejoin="miter" fill="none" stroke="#000000" d="M2.24162-21.2601C2.24162-20.02208 1.238-19.01848 0-19.01848-1.238-19.01848-2.24162-20.02208-2.24162-21.2601-2.24162-22.49811-1.238-23.50172 0-23.50172 1.238-23.50172 2.24162-22.49811 2.24162-21.2601ZM0-21.2601"/>
<path transform="matrix(1.00003,0,0,-1.00003,26.817749,42.783926)" stroke-width="1.19553" stroke-linecap="butt" stroke-miterlimit="10" stroke-linejoin="miter" fill="none" stroke="#0033cc" d="M21.2601-10.63004V-.9564"/>
<path transform="matrix(0,-1.00003,-1.00003,-0,48.078489,43.740354)" stroke-width=".9564" stroke-linecap="round" stroke-linejoin="round" fill="none" stroke="#0033cc" d="M-1.91284 2.55046C-1.75343 1.59402 0 .15938 .4782 0 0-.15938-1.75343-1.59402-1.91284-2.55046"/>
<path transform="matrix(1.00003,0,0,-1.00003,26.817749,42.783926)" d="M8.50778-8.42339H20.66234V-2.2066704H8.50778Z" fill="#ffffff"/>
<use data-text="0" xlink:href="#font_1_5" transform="matrix(9.165875,0,0,-9.165875,35.326005,51.128175)" fill="#0033cc"/>
<use data-text="." xlink:href="#font_1_4" transform="matrix(9.165875,0,0,-9.165875,40.183916,51.128175)" fill="#0033cc"/>
<use data-text="5" xlink:href="#font_1_9" transform="matrix(9.165875,0,0,-9.165875,42.61287,51.128175)" fill="#0033cc"/>
<path transform="matrix(1.00003,0,0,-1.00003,26.817749,42.783926)" stroke-width="1.19553" stroke-linecap="butt" stroke-miterlimit="10" stroke-linejoin="miter" fill="none" stroke="#009966" d="M21.2601 0H39.43764"/>
<path transform="matrix(1.00003,0,0,-1.00003,66.25658,42.783926)" stroke-width=".9564" stroke-linecap="round" stroke-linejoin="round" fill="none" stroke="#009966" d="M-1.91284 2.55046C-1.75343 1.59402 0 .15938 .4782 0 0-.15938-1.75343-1.59402-1.91284-2.55046"/>
<path transform="matrix(1.00003,0,0,-1.00003,26.817749,42.783926)" d="M28.39616-3.06851H33.25796V3.06851H28.39616Z" fill="#ffffff"/>
<use data-text="1" xlink:href="#font_1_6" transform="matrix(9.165875,0,0,-9.165875,55.2146,45.853017)" fill="#009966"/>
<path transform="matrix(1.00003,0,0,-1.00003,26.817749,42.783926)" d="M23.50172-10.63004C23.50172-9.39201 22.49811-8.38841 21.2601-8.38841 20.02208-8.38841 19.01848-9.39201 19.01848-10.63004 19.01848-11.86806 20.02208-12.87166 21.2601-12.87166 22.49811-12.87166 23.50172-11.86806 23.50172-10.63004ZM21.2601-10.63004" fill="#ffffff"/>
<path transform="matrix(1.00003,0,0,-1.00003,26.817749,42.783926)" stroke-width="1.19553" stroke-linecap="butt" stroke-miterlimit="10" stroke-linejoin="miter" fill="none" stroke="#000000" d="M23.50172-10.63004C23.50172-9.39201 22.49811-8.38841 21.2601-8.38841 20.02208-8.38841 19.01848-9.39201 19.01848-10.63004 19.01848-11.86806 20.02208-12.87166 21.2601-12.87166 22.49811-12.87166 23.50172-11.86806 23.50172-10.63004ZM21.2601-10.63004"/>
<path transform="matrix(1.00003,0,0,-1.00003,26.817749,42.783926)" stroke-width="1.19553" stroke-linecap="butt" stroke-miterlimit="10" stroke-linejoin="miter" fill="none" stroke="#0033cc" d="M42.5202 0V9.67361"/>
<path transform="matrix(0,-1.00003,-1.00003,-0,69.339229,33.110025)" stroke-width=".9564" stroke-linecap="round" stroke-linejoin="round" fill="none" stroke="#0033cc" d="M-1.91284 2.55046C-1.75343 1.59402 0 .15938 .4782 0 0-.15938-1.75343-1.59402-1.91284-2.55046"/>
<path transform="matrix(1.00003,0,0,-1.00003,26.817749,42.783926)" d="M29.76788 2.20663H41.92244V8.42335H29.76788Z" fill="#ffffff"/>
<use data-text="0" xlink:href="#font_1_5" transform="matrix(9.165875,0,0,-9.165875,56.58664,40.497858)" fill="#0033cc"/>
<use data-text="." xlink:href="#font_1_4" transform="matrix(9.165875,0,0,-9.165875,61.44455,40.497858)" fill="#0033cc"/>
<use data-text="5" xlink:href="#font_1_9" transform="matrix(9.165875,0,0,-9.165875,63.873506,40.497858)" fill="#0033cc"/>
<path transform="matrix(1.00003,0,0,-1.00003,26.817749,42.783926)" stroke-width="1.19553" stroke-linecap="butt" stroke-miterlimit="10" stroke-linejoin="miter" fill="none" stroke="#009966" d="M42.5202 10.63004H60.69774"/>
<path transform="matrix(1.00003,0,0,-1.00003,87.51731,32.153566)" stroke-width=".9564" stroke-linecap="round" stroke-linejoin="round" fill="none" stroke="#009966" d="M-1.91284 2.55046C-1.75343 1.59402 0 .15938 .4782 0 0-.15938-1.75343-1.59402-1.91284-2.55046"/>
<path transform="matrix(1.00003,0,0,-1.00003,26.817749,42.783926)" d="M49.65627 7.56152H54.51807V13.69854H49.65627Z" fill="#ffffff"/>
<use data-text="1" xlink:href="#font_1_6" transform="matrix(9.165875,0,0,-9.165875,76.475238,35.2217)" fill="#009966"/>
<path transform="matrix(1.00003,0,0,-1.00003,26.817749,42.783926)" d="M44.76183 0C44.76183 1.238 43.75822 2.24162 42.5202 2.24162 41.28218 2.24162 40.27858 1.238 40.27858 0 40.27858-1.238 41.28218-2.24162 42.5202-2.24162 43.75822-2.24162 44.76183-1.238 44.76183 0ZM42.5202 0" fill="#ffffff"/>
<path transform="matrix(1.00003,0,0,-1.00003,26.817749,42.783926)" stroke-width="1.19553" stroke-linecap="butt" stroke-miterlimit="10" stroke-linejoin="miter" fill="none" stroke="#000000" d="M44.76183 0C44.76183 1.238 43.75822 2.24162 42.5202 2.24162 41.28218 2.24162 40.27858 1.238 40.27858 0 40.27858-1.238 41.28218-2.24162 42.5202-2.24162 43.75822-2.24162 44.76183-1.238 44.76183 0ZM42.5202 0"/>
<path transform="matrix(1.00003,0,0,-1.00003,26.817749,42.783926)" stroke-width="1.19553" stroke-linecap="butt" stroke-miterlimit="10" stroke-linejoin="miter" fill="none" stroke="#0033cc" d="M63.7803 10.63004V20.30368"/>
<path transform="matrix(0,-1.00003,-1.00003,-0,90.59996,22.479634)" stroke-width=".9564" stroke-linecap="round" stroke-linejoin="round" fill="none" stroke="#0033cc" d="M-1.91284 2.55046C-1.75343 1.59402 0 .15938 .4782 0 0-.15938-1.75343-1.59402-1.91284-2.55046"/>
<path transform="matrix(1.00003,0,0,-1.00003,26.817749,42.783926)" d="M51.02798 12.8367H63.18254V19.053421H51.02798Z" fill="#ffffff"/>
<use data-text="0" xlink:href="#font_1_5" transform="matrix(9.165875,0,0,-9.165875,77.84728,29.867535)" fill="#0033cc"/>
<use data-text="." xlink:href="#font_1_4" transform="matrix(9.165875,0,0,-9.165875,82.70519,29.867535)" fill="#0033cc"/>
<use data-text="5" xlink:href="#font_1_9" transform="matrix(9.165875,0,0,-9.165875,85.13415,29.867535)" fill="#0033cc"/>
<path transform="matrix(1.00003,0,0,-1.00003,26.817749,42.783926)" stroke-width="1.19553" stroke-linecap="butt" stroke-miterlimit="10" stroke-linejoin="miter" fill="none" stroke="#009966" d="M63.7803 21.2601H81.95786"/>
<path transform="matrix(1.00003,0,0,-1.00003,108.778079,21.523186)" stroke-width=".9564" stroke-linecap="round" stroke-linejoin="round" fill="none" stroke="#009966" d="M-1.91284 2.55046C-1.75343 1.59402 0 .15938 .4782 0 0-.15938-1.75343-1.59402-1.91284-2.55046"/>
<path transform="matrix(1.00003,0,0,-1.00003,26.817749,42.783926)" d="M70.91638 18.19157H75.77818V24.32859H70.91638Z" fill="#ffffff"/>
<use data-text="1" xlink:href="#font_1_6" transform="matrix(9.165875,0,0,-9.165875,97.73588,24.591378)" fill="#009966"/>
<path transform="matrix(1.00003,0,0,-1.00003,26.817749,42.783926)" d="M66.02193 10.63004C66.02193 11.86806 65.01833 12.87166 63.7803 12.87166 62.54228 12.87166 61.53868 11.86806 61.53868 10.63004 61.53868 9.39201 62.54228 8.38841 63.7803 8.38841 65.01833 8.38841 66.02193 9.39201 66.02193 10.63004ZM63.7803 10.63004" fill="#ffffff"/>
<path transform="matrix(1.00003,0,0,-1.00003,26.817749,42.783926)" stroke-width="1.19553" stroke-linecap="butt" stroke-miterlimit="10" stroke-linejoin="miter" fill="none" stroke="#000000" d="M66.02193 10.63004C66.02193 11.86806 65.01833 12.87166 63.7803 12.87166 62.54228 12.87166 61.53868 11.86806 61.53868 10.63004 61.53868 9.39201 62.54228 8.38841 63.7803 8.38841 65.01833 8.38841 66.02193 9.39201 66.02193 10.63004ZM63.7803 10.63004"/>
<path transform="matrix(1.00003,0,0,-1.00003,26.817749,42.783926)" d="M87.28204 21.2601C87.28204 22.49811 86.27844 23.50172 85.04042 23.50172 83.8024 23.50172 82.7988 22.49811 82.7988 21.2601 82.7988 20.02208 83.8024 19.01848 85.04042 19.01848 86.27844 19.01848 87.28204 20.02208 87.28204 21.2601ZM85.04042 21.2601" fill="#ffffff"/>
<path transform="matrix(1.00003,0,0,-1.00003,26.817749,42.783926)" stroke-width="1.19553" stroke-linecap="butt" stroke-miterlimit="10" stroke-linejoin="miter" fill="none" stroke="#000000" d="M87.28204 21.2601C87.28204 22.49811 86.27844 23.50172 85.04042 23.50172 83.8024 23.50172 82.7988 22.49811 82.7988 21.2601 82.7988 20.02208 83.8024 19.01848 85.04042 19.01848 86.27844 19.01848 87.28204 20.02208 87.28204 21.2601ZM85.04042 21.2601"/>
</svg>
