<svg xmlns="http://www.w3.org/2000/svg" xmlns:xlink="http://www.w3.org/1999/xlink" version="1.1" width="158" height="106" viewBox="0 0 158 106">
<defs>
<path id="font_1_2" d="M.42799378 .45222474 .43899537 .49023438H.31199647L.34599305 .6092224 .33399964 .6162262 .23699951 .53923037 .22399903 .49023438H.14299011L.13198853 .45222474H.21499634L.125 .08627319C.10998535 .029266358 .12199402-.01171875 .17199707-.01171875 .2519989-.01171875 .31599427 .054275514 .35598756 .1292572L.33399964 .1462555C.31098939 .10726929 .2599945 .040267946 .22898865 .040267946 .20799256 .040267946 .20799256 .0632782 .21398926 .088272098L.30299378 .45222474H.42799378Z"/>
<path id="font_1_3" d="M.070999149 .45393373 .07398987 .42893983 .14199829 .43093873C.1639862 .43193055 .16899109 .41493226 .1769867 .36291505 .18798828 .28489686 .20999146 .09286499 .20999146 .0128479 .20999146-.017166138 .20799256-.058166505 .18598938-.11117554 .16799927-.15318299 .14199829-.18218994 .12199402-.18218994 .10699463-.18218994 .09599304-.17118836 .08099365-.15118408 .068984989-.13517761 .06098938-.127182 .04598999-.127182 .019989014-.12818909-.005004883-.15818787-.005004883-.18719483-.005004883-.21418762 .023986817-.2421875 .067993167-.2421875 .15299988-.2421875 .18998719-.17919922 .27799989-.027160645 .2979889 .0068511965 .35798646 .11286926 .41999818 .21488953 .47698976 .30891419 .5399933 .40592958 .5399933 .4459381 .5399933 .48094178 .5289917 .5019531 .5219879 .5019531 .5029907 .5019531 .46899415 .49394227 .44400025 .47694398 .44499208 .4419403 .44299317 .3809204 .43099977 .33891297 .4149933 .28289796 .35598756 .17488098 .2899933 .06085205H.2869873C.27999879 .21388245 .26098634 .42492677 .24699402 .49795533L.23899842 .5019531 .070999149 .45393373Z"/>
<path id="font_2_4" d="M.2649994 .64468386C.3600006 .64468386 .3869934 .49682618 .3869934 .33398438 .3869934 .17112732 .3600006 .023269654 .2649994 .023269654 .16999817 .023269654 .14299011 .17112732 .14299011 .33398438 .14299011 .49682618 .16999817 .64468386 .2649994 .64468386M.2649994 .6796875C.099990848 .6796875 .040985109 .53378298 .040985109 .33398438 .040985109 .13417053 .099990848-.01171875 .2649994-.01171875 .42999269-.01171875 .4889984 .13417053 .4889984 .33398438 .4889984 .53378298 .42999269 .6796875 .2649994 .6796875Z"/>
<path id="font_2_5" d="M.43699647 0V.0289917L.35299684 .035995485C.33198548 .037994386 .31999208 .04598999 .31999208 .08496094V.67367556L.31498719 .6796875 .10899353 .6446991V.6197052L.20199585 .6087036C.21899414 .6067047 .22599793 .5987091 .22599793 .56973269V.08496094C.22599793 .065979007 .22299195 .053985597 .21699524 .04698181 .21199036 .039993287 .20399475 .036987306 .19299317 .035995485L.10899353 .0289917V0H.43699647Z"/>
<path id="font_2_6" d="M.4850006 .13195801 .45700074 .13696289C.43598939 .08299255 .41600038 .07598877 .37599183 .07598877H.11999512C.13598633 .1279602 .19499207 .19892884 .28799439 .2658844 .38398744 .33584596 .45799256 .38082887 .45799256 .49276734 .45799256 .63168337 .3659973 .6796875 .26098634 .6796875 .12399292 .6796875 .052993776 .5967102 .052993776 .54473879 .052993776 .51075747 .09098816 .49476625 .10798645 .49476625 .12599182 .49476625 .1329956 .50476077 .13699341 .5217438 .15299988 .5897064 .19198609 .64468386 .2539978 .64468386 .33099366 .64468386 .35299684 .5797119 .35299684 .50675967 .35299684 .3998108 .29899598 .33984376 .21199036 .26289369 .08898926 .15594483 .04598999 .08798218 .026992798 .009994507L.036987306 0H.45098878L.4850006 .13195801Z"/>
<path id="font_2_3" d="M.07398987 .2861328V.21612549H.31900025V.2861328H.07398987Z"/>
<path id="font_2_19" d="M.36698915 .35102845V.46794129C.33399964 .49194337 .2829895 .5019531 .23799134 .5019531 .12998963 .5019531 .056991579 .45095826 .055999757 .35603334 .056991579 .27308656 .12399292 .2361145 .20698548 .21113587 .2519989 .19714356 .31498719 .17416382 .31498719 .10621643 .31498719 .055252077 .2749939 .023269654 .22200012 .023269654 .14099121 .023269654 .09599304 .082229617 .07598877 .16716004H.04699707L.056991579 .03627014C.09298706 .004272461 .1539917-.01171875 .21299744-.01171875 .33198548-.01171875 .3999939 .051254274 .3999939 .13618469 .3999939 .2241211 .34599305 .26409913 .24299622 .29606629 .20199585 .30906678 .13598633 .3300476 .13598633 .3860016 .13699341 .43795777 .17599488 .46694947 .22599793 .46694947 .29699708 .46694947 .33099366 .4119873 .33799745 .35102845H.36698915Z"/>
<path id="font_2_16" d="M.28799439 .5019531C.12799073 .5019531 .04899597 .40698243 .04899597 .24510193 .04899597 .083236698 .12799073-.01171875 .28799439-.01171875 .44999696-.01171875 .5279999 .083236698 .5279999 .24510193 .5279999 .40698243 .44999696 .5019531 .28799439 .5019531M.15299988 .24510193C.15299988 .38301087 .19699097 .46694947 .28799439 .46694947 .3809967 .46694947 .42399598 .38301087 .42399598 .24510193 .42399598 .10720825 .3809967 .023269654 .28799439 .023269654 .19699097 .023269654 .15299988 .10720825 .15299988 .24510193Z"/>
<path id="font_2_21" d="M.59098818 0V.0289917C.5219879 .033996583 .5159912 .035995485 .5159912 .08699036V.49609376L.5089874 .50209048 .35198976 .47709657V.45210267L.3899994 .44711305C.41600038 .44309999 .42199708 .43811036 .42199708 .40213014V.17721558C.42199708 .14923096 .4189911 .12724304 .4139862 .117248538 .3909912 .071258548 .34298707 .042266847 .29100038 .042266847 .23298645 .042266847 .18998719 .07826233 .18998719 .15621948V.49609376L.18299866 .50209048 .025985718 .47709657V.45210267L.06399536 .44711305C.08999634 .44309999 .09599304 .43811036 .09599304 .40213014V.13822937C.09599304 .023269654 .1639862-.01171875 .23799134-.01171875 .32299806-.01171875 .3919983 .04626465 .42099 .060272218L.43099977 0H.59098818Z"/>
<path id="font_2_18" d="M.18899536 .5019531 .036987306 .47694398V.45195008L.07499695 .4469452C.100997928 .4429474 .10699463 .4379425 .10699463 .40194703V.08699036C.10699463 .035995485 .101989749 .033996583 .03199768 .0289917V0H.29599V.0289917C.20698548 .033996583 .20098877 .035995485 .20098877 .08699036V.32095338C.20098877 .39794923 .23498535 .4239502 .2579956 .4239502 .27398683 .4239502 .29100038 .4179535 .31999208 .40194703 .32699586 .39794923 .33499146 .39694215 .33999635 .39694215 .3639984 .39694215 .38598634 .4219513 .38598634 .4529419 .38598634 .47494508 .37199403 .5019531 .33299256 .5019531 .29699708 .5019531 .2669983 .47994996 .20098877 .4219513L.18899536 .5019531Z"/>
<path id="font_2_8" d="M.2999878 .040267946C.18099976 .040267946 .15299988 .16418457 .15299988 .25810243 .15299988 .40699769 .21199036 .46694947 .2809906 .46694947 .32699586 .46694947 .35598756 .43397523 .37599183 .38000489 .38198854 .36402894 .3880005 .35403443 .40699769 .35403443 .4269867 .35403443 .46598817 .36701966 .46598817 .40499879 .46598817 .45095826 .3999939 .5019531 .2919922 .5019531 .10998535 .5019531 .04899597 .37301637 .04899597 .2401123 .04899597 .07324219 .1309967-.01171875 .2809906-.01171875 .35099793-.01171875 .44499208 .025268555 .47299195 .13220215L.44400025 .14619446C.41299439 .07624817 .37298585 .040267946 .2999878 .040267946Z"/>
<path id="font_2_10" d="M.44099427 .2627716C.46199037 .2627716 .48098756 .2677765 .48098756 .30078126 .48098756 .35983277 .46199037 .5019531 .2789917 .5019531 .12298584 .5019531 .04899597 .39086915 .04899597 .24082947 .04899597 .08317566 .116989139-.01373291 .27999879-.01171875 .3909912-.010726929 .44799806 .050247194 .47499085 .1290741L.44499208 .14503479C.4169922 .08717346 .3789978 .039276124 .2999878 .039276124 .17599488 .039276124 .15098572 .15901184 .15299988 .2627716H.44099427M.1539917 .30078126C.1539917 .34181214 .16899109 .46694947 .272995 .46694947 .3659973 .46694947 .3769989 .37184144 .3769989 .33280946 .3769989 .31378175 .37098695 .30078126 .34298707 .30078126H.1539917Z"/>
<path id="font_2_12" d="M.036987306 .47694398V.45195008L.07499695 .4469452C.100997928 .4429474 .10699463 .43795777 .10699463 .40194703V.08699036C.10699463 .035995485 .10398865 .033996583 .03199768 .0289917V0H.27598573V.0289917C.20498657 .033996583 .20098877 .035995485 .20098877 .08699036V.49609376L.19400025 .5020752 .036987306 .47694398M.15299988 .71484377C.116989139 .71484377 .09199524 .6888428 .09199524 .65283206 .09199524 .61782839 .116989139 .5928345 .15299988 .5928345 .18998719 .5928345 .21299744 .61782839 .21398926 .65283206 .21398926 .6888428 .18998719 .71484377 .15299988 .71484377Z"/>
<path id="font_2_15" d="M.5289917 .34295655C.5289917 .4439392 .47399903 .5019531 .38198854 .5019531 .30799867 .5019531 .2619934 .46594239 .19999695 .4259491L.18598938 .5019531 .036987306 .47694398V.45195008L.07499695 .4469452C.100997928 .4429474 .10699463 .4379425 .10699463 .40194703V.08699036C.10699463 .035995485 .10398865 .033996583 .03199768 .0289917V0H.27598573V.0289917C.20498657 .033996583 .20098877 .035995485 .20098877 .08699036V.32095338C.20098877 .34596253 .20298767 .35995484 .21099854 .37594605 .23199463 .4149475 .2769928 .44795228 .32998658 .44795228 .397995 .44795228 .43499757 .40994264 .43499757 .32295228V.08699036C.43499757 .035995485 .43199159 .033996583 .3600006 .0289917V0H.60398867V.0289917C.5329895 .033996583 .5289917 .035995485 .5289917 .08699036V.34295655Z"/>
<path id="font_2_13" d="M.09498596 .0869751C.09498596 .035995485 .09199524 .033996583 .019989014 .0289917V0H.2639923V.0289917C.19299317 .033996583 .18899536 .035995485 .18899536 .0869751V.25390626H.19099427C.23199463 .18896485 .30299378 .10203552 .35499574 .049087526 .3919983 .0121154789 .43099977 .00010681152 .46299745-.0018920899L.5379944-.0048828127V.023117066C.5079956 .031097413 .48298646 .046081544 .45199586 .077056888 .3899994 .13800049 .31199647 .23292542 .27398683 .28692628 .2689972 .2939453 .2669983 .2989502 .2769928 .30996705 .32499696 .36506654 .35699464 .394104 .3909912 .41915895 .4249878 .4441986 .44999696 .45622254 .5079956 .46221925V.49023438H.40499879C.37098695 .49023438 .3619995 .4852295 .34199525 .46122743 .31298829 .42616273 .21398926 .30195619 .19099427 .26789857H.18899536V.73617556L.18199158 .7421875 .024993897 .71717837V.69218447L.06298828 .68818667C.08898926 .6851959 .09498596 .68019106 .09498596 .64219668V.0869751Z"/>
<path id="font_1_1" d="M.43199159 .49023438H.3019867L.32998658 .6031952C.34899903 .67918398 .36799623 .70718386 .3959961 .70718386 .4229889 .70718386 .44099427 .68518069 .46299745 .6371918 .46798707 .62719729 .47499085 .6201935 .48999024 .6201935 .5099945 .6201935 .5389862 .6391907 .5389862 .6641846 .5389862 .70718386 .4850006 .7421875 .4249878 .7421875 .3600006 .7421875 .31799317 .71517947 .2849884 .67318728 .2539978 .63420107 .23399353 .5802002 .21998596 .5272217L.20999146 .49023438H.12298584L.11199951 .45222474H.20098877L.084991458-.137146C.07299805-.19918823 .06298828-.2052002 .052993776-.2052002 .041992189-.2052002 .026992798-.19718933 0-.15615845-.007003784-.14616394-.014007568-.13415528-.027008057-.13415528-.04901123-.13415528-.072006229-.15916443-.072006229-.18418885-.071014408-.2171936-.028015137-.2421875 .018997193-.2421875 .11898804-.2421875 .16099549-.16116333 .20298767 .030960083L.29599 .45222474H.42199708L.43199159 .49023438Z"/>
<path id="font_2_1" d="M.1749878 .2822113C.1749878 .56832888 .2619934 .65437319 .32499696 .66737368V.6923828C.1499939 .685379 .10499573 .46829225 .10499573 .2822113 .10499573 .09614563 .1499939-.12094116 .32499696-.12792969V-.10293579C.2669983-.090927127 .1749878-.0059051516 .1749878 .2822113Z"/>
<path id="font_2_2" d="M.1749878 .2822113C.1749878-.0059051516 .08299255-.090927127 .024993897-.10293579V-.12792969C.19999695-.12094116 .24499512 .09614563 .24499512 .2822113 .24499512 .46829225 .19999695 .685379 .024993897 .6923828V.66737368C.08799744 .65437319 .1749878 .56832888 .1749878 .2822113Z"/>
<path id="font_2_7" d="M.34298707 .14318848C.34298707 .06225586 .2809906 .041275026 .24198914 .041275026 .17999268 .041275026 .1499939 .085235599 .1499939 .14419556 .1499939 .19116211 .17199707 .21513367 .22799683 .23612976 .2679901 .2511139 .32099916 .27009584 .34298707 .28408814V.14318848M.43299867 .36901856C.43299867 .42697145 .41999818 .5019531 .2689972 .5019531 .1559906 .5019531 .066986087 .44296266 .066986087 .3880005 .066986087 .35603334 .10398865 .3410492 .12298584 .3410492 .14399719 .3410492 .1499939 .35203553 .15499878 .36901856 .1769867 .44296266 .21798706 .46694947 .2579956 .46694947 .29699708 .46694947 .34298707 .44696046 .34298707 .36701966V.32505799C.31799317 .29907228 .22099304 .27409364 .14199829 .24911499 .069992069 .22712708 .04899597 .1771698 .04899597 .13020325 .04899597 .055267335 .09899902-.01171875 .19299317-.01171875 .25498963-.009719849 .30999757 .027267456 .34199525 .04826355 .35598756 .011276245 .37199403-.01171875 .40699769-.01171875 .44400025-.01171875 .4869995-.0007324219 .5249939 .01828003L.5189972 .042266847C.5049896 .039276124 .48298646 .03727722 .46798707 .041275026 .44999696 .045272829 .43299867 .06425476 .43299867 .12721253V.36901856Z"/>
<path id="font_2_11" d="M.2599945 .46694947C.30899049 .46694947 .3600006 .43093873 .3600006 .33392335 .3600006 .24989319 .31599427 .20588684 .2579956 .20588684 .20199585 .20588684 .15499878 .24989319 .15499878 .33392335 .15499878 .43293763 .20698548 .46694947 .2599945 .46694947M.2809906-.2071991C.19599915-.2071991 .13699341-.16319275 .13699341-.09118652 .13699341-.057174684 .14698792-.032180787 .16799927-.016174317 .18998719 .0008239746 .22299195 .0068359377 .2709961 .0068359377 .35899354 .0068359377 .42399598-.014175415 .42399598-.08918762 .42399598-.16918946 .35198976-.2071991 .2809906-.2071991M.3889923 .47094728C.36099244 .48994447 .30599977 .5019531 .2599945 .5019531 .10699463 .5019531 .052993776 .40792848 .052993776 .33392335 .052993776 .23989868 .114990238 .19688416 .16099549 .18489075V.18289185C.10699463 .1618805 .068984989 .13285828 .068984989 .09384155 .068984989 .05882263 .10899353 .020828248 .15699768 .015823365V.013824463C.11399841-.00016784668 .041992189-.024169922 .041992189-.09617615 .041992189-.19718933 .14199829-.2421875 .2579956-.2421875 .31799317-.2421875 .3809967-.23019409 .42900086-.20118714 .47499085-.17318726 .5079956-.12619019 .5079956-.06417847 .5079956 .043823244 .42199708 .081832889 .31498719 .081832889H.23498535C.16299439 .081832889 .1519928 .10585022 .1519928 .12486267 .1519928 .15388489 .18998719 .16989136 .20298767 .17388916 .22200012 .17189026 .24299622 .17089844 .2539978 .17089844 .34899903 .17089844 .45599366 .21289063 .45599366 .33392335 .45599366 .3759308 .44299317 .41093446 .42599488 .42793275L.5049896 .4399414 .5249939 .50294497 .5169983 .51194766 .3889923 .47094728Z"/>
<path id="font_2_20" d="M.32598878 .45022584V.49023438H.19699097V.6162262H.16799927L.10699463 .49023438H.0309906V.45022584H.102996829V.102264408C.102996829 .0002746582 .1789856-.01171875 .21398926-.01171875 .2649994-.01171875 .31298829 .014266968 .34199525 .03227234L.33399964 .053268434C.30999757 .043273927 .28799439 .040267946 .2630005 .040267946 .22898865 .040267946 .19699097 .06427002 .19699097 .14025879V.45022584H.32598878Z"/>
<path id="font_2_22" d="M.33898927 .49023438V.46122743L.3880005 .45622254C.4039917 .45422364 .40699769 .44322206 .40299989 .42921449 .394989 .39718629 .37599183 .3391571 .35299684 .27511598L.28599549 .08999634H.28399659L.22299195 .25810243C.20298767 .31513978 .18299866 .37316896 .1639862 .42721559 .15699768 .44622804 .16099549 .45422364 .17999268 .45622254L.22499085 .46122743V.49023438H.0009918213V.46122743C.04798889 .4572296 .056991579 .4532318 .07199097 .41619874 .09899902 .3501587 .12199402 .28511048 .14698792 .21607971L.22399903 0H.29599L.3849945 .24209595C.4139862 .32014466 .44299317 .3861847 .45700074 .41819764 .47200013 .4532318 .48298646 .45922853 .5289917 .46122743V.49023438H.33898927Z"/>
<path id="font_2_14" d="M.18899536 .7361908 .18199158 .7421875 .024993897 .71717837V.6921692L.06298828 .6881714C.08898926 .6851654 .09498596 .6801758 .09498596 .6421509V.087005618C.09498596 .035995485 .09199524 .033996583 .019989014 .0289917V0H.2639923V.0289917C.19299317 .033996583 .18899536 .035995485 .18899536 .087005618V.7361908Z"/>
<path id="font_2_17" d="M.19400025 .32104493C.19400025 .34602357 .19799805 .36001588 .20698548 .37800599 .22999573 .42396546 .272995 .44795228 .32598878 .44795228 .3659973 .44795228 .45498658 .42196656 .45498658 .25009156 .45498658 .10321045 .40899659 .023269654 .30899049 .023269654 .25698854 .023269654 .21699524 .050247194 .20098877 .096221927 .19499207 .11419678 .19400025 .13418579 .19400025 .15716553V.32104493M.02999878 .47694398V.45195008L.067993167 .4469452C.09399414 .4429474 .099990848 .43795777 .099990848 .40197755V-.14324951C.099990848-.19444275 .09498596-.19645691 .024993897-.20147705V-.23046875H.28399659V-.20147705C.19999695-.19645691 .19400025-.19444275 .19400025-.14324951V.011276245C.21499634-.0007324219 .2619934-.01171875 .30799867-.01171875 .44299317-.01171875 .5589905 .050247194 .5589905 .25608827 .5589905 .32704164 .54599 .5019531 .3639984 .5019531 .29100038 .5019531 .23298645 .4529419 .19400025 .42796327L.18099976 .5019531 .02999878 .47694398Z"/>
<path id="font_2_9" d="M.58299258 0V.0289917C.5119934 .033996583 .5079956 .035995485 .5079956 .08699036V.73617556L.5009918 .7421875 .34399415 .7171478V.6921234L.38198854 .6881256C.4079895 .6851196 .4139862 .68011477 .4139862 .6420746V.47795106C.38598634 .49295045 .34899903 .5019531 .30299378 .5019531 .22099304 .5019531 .1599884 .47595216 .117996219 .43295289 .07499695 .3879547 .04899597 .32196046 .04899597 .2349701 .04899597 .0872345 .12599182-.01171875 .2579956-.01171875 .31199647-.01171875 .35899354 .012268066 .41299439 .056259157V.0069885256L.42099 0H.58299258M.4139862 .16998291C.4139862 .14819336 .41299439 .13121033 .40699769 .114212039 .3869934 .06225586 .34298707 .042266847 .29100038 .042266847 .19898987 .042266847 .15299988 .13220215 .15299988 .24711609 .15299988 .37701417 .19999695 .46694947 .3019867 .46694947 .34899903 .46694947 .3869934 .44496156 .40499879 .4039917 .41299439 .38700868 .4139862 .37301637 .4139862 .34603883V.16998291Z"/>
</defs>
<path transform="matrix(1.00006,0,0,-1.00002,56.746538,52.207826)" d="M-49.88289-24.94191-22.67406-11.33723 27.20882-36.2782 0-49.88287ZM27.20882-36.2782" fill="#ffe6e6"/>
<path transform="matrix(1.00006,0,0,-1.00002,56.746538,52.207826)" stroke-width=".3985" stroke-linecap="butt" stroke-miterlimit="10" stroke-linejoin="miter" fill="none" stroke="#ffffff" d="M-49.88289-24.94191-22.67406-11.33723 27.20882-36.2782 0-49.88287ZM27.20882-36.2782"/>
<path transform="matrix(1.00006,0,0,-1.00002,56.746538,52.207826)" d="M-22.67406-11.33723 22.67406 11.33723 72.55695-13.60371 27.20882-36.2782ZM72.55695-13.60371" fill="#e6fae6"/>
<path transform="matrix(1.00006,0,0,-1.00002,56.746538,52.207826)" stroke-width=".3985" stroke-linecap="butt" stroke-miterlimit="10" stroke-linejoin="miter" fill="none" stroke="#ffffff" d="M-22.67406-11.33723 22.67406 11.33723 72.55695-13.60371 27.20882-36.2782ZM72.55695-13.60371"/>
<path transform="matrix(1.00006,0,0,-1.00002,56.746538,52.207826)" d="M22.67406 11.33723 49.88289 24.94191 99.76578 .00095 72.55695-13.60371ZM99.76578 .00095" fill="#ffe6e6"/>
<path transform="matrix(1.00006,0,0,-1.00002,56.746538,52.207826)" stroke-width=".3985" stroke-linecap="butt" stroke-miterlimit="10" stroke-linejoin="miter" fill="none" stroke="#ffffff" d="M22.67406 11.33723 49.88289 24.94191 99.76578 .00095 72.55695-13.60371ZM99.76578 .00095"/>
<path transform="matrix(1.00006,0,0,-1.00002,56.746538,52.207826)" stroke-width=".3985" stroke-linecap="butt" stroke-miterlimit="10" stroke-linejoin="miter" fill="none" stroke="#000000" d="M0 0 56.32875-28.16383"/>
<path transform="matrix(.8944336,.44717894,.4471968,-.8943979,113.25687,80.46132)" stroke-width=".3985" stroke-linecap="round" stroke-linejoin="round" fill="none" stroke="#000000" d="M-2.07224 2.39104C-1.69365 .95639-.84999 .27895 0 0-.84999-.27895-1.69365-.95639-2.07224-2.39104"/>
<use data-text="t" xlink:href="#font_1_2" transform="matrix(5.49973,0,0,-5.4995105,116.95315,82.22143)"/>
<path transform="matrix(1.00006,0,0,-1.00002,56.746538,52.207826)" stroke-width=".3985" stroke-linecap="butt" stroke-miterlimit="10" stroke-linejoin="miter" fill="none" stroke="#000000" d="M-49.88289-24.94191 56.32875 28.1649"/>
<path transform="matrix(.8944336,-.44720898,-.44722683,-.8943979,113.25687,23.953259)" stroke-width=".3985" stroke-linecap="round" stroke-linejoin="round" fill="none" stroke="#000000" d="M-2.07224 2.39104C-1.69365 .95639-.84999 .27895 0 0-.84999-.27895-1.69365-.95639-2.07224-2.39104"/>
<use data-text="y" xlink:href="#font_1_3" transform="matrix(5.49973,0,0,-5.4995105,116.29611,23.366248)"/>
<path transform="matrix(1.00006,0,0,-1.00002,56.746538,52.207826)" stroke-width=".3985" stroke-linecap="butt" stroke-miterlimit="10" stroke-linejoin="miter" fill="none" stroke="#cbcbcb" d="M-49.88289-24.94191 49.88289 24.94191 99.76578 .00095 0-49.88287ZM99.76578 .00095"/>
<path transform="matrix(1.00006,0,0,-1.00002,56.746538,52.207826)" stroke-width=".3985" stroke-linecap="butt" stroke-miterlimit="10" stroke-linejoin="miter" fill="none" stroke="#000000" d="M-51.24326-25.6221-48.52248-24.2617"/>
<use data-text="0" xlink:href="#font_2_4" transform="matrix(5.49973,0,0,-5.4995105,1.0932007,80.71639)"/>
<path transform="matrix(1.00006,0,0,-1.00002,56.746538,52.207826)" stroke-width=".3985" stroke-linecap="butt" stroke-miterlimit="10" stroke-linejoin="miter" fill="none" stroke="#000000" d="M-28.5692-36.95892-25.8484-35.59851"/>
<use data-text="1" xlink:href="#font_2_5" transform="matrix(5.49973,0,0,-5.4995105,23.768555,92.05362)"/>
<path transform="matrix(1.00006,0,0,-1.00002,56.746538,52.207826)" stroke-width=".3985" stroke-linecap="butt" stroke-miterlimit="10" stroke-linejoin="miter" fill="none" stroke="#000000" d="M-5.89513-48.29573-3.17433-46.93532"/>
<use data-text="2" xlink:href="#font_2_6" transform="matrix(5.49973,0,0,-5.4995105,46.443918,103.390857)"/>
<path transform="matrix(1.00006,0,0,-1.00002,56.746538,52.207826)" stroke-width=".3985" stroke-linecap="butt" stroke-miterlimit="10" stroke-linejoin="miter" fill="none" stroke="#000000" d="M3.17433-46.93526 5.89513-48.29562"/>
<use data-text="-" xlink:href="#font_2_3" transform="matrix(5.49973,0,0,-5.4995105,63.205926,105.180889)"/>
<use data-text="2" xlink:href="#font_2_6" transform="matrix(5.49973,0,0,-5.4995105,65.36182,105.180889)"/>
<path transform="matrix(1.00006,0,0,-1.00002,56.746538,52.207826)" stroke-width=".3985" stroke-linecap="butt" stroke-miterlimit="10" stroke-linejoin="miter" fill="none" stroke="#000000" d="M25.8484-35.598 28.5692-36.95837"/>
<use data-text="-" xlink:href="#font_2_3" transform="matrix(5.49973,0,0,-5.4995105,85.88129,93.84266)"/>
<use data-text="1" xlink:href="#font_2_5" transform="matrix(5.49973,0,0,-5.4995105,88.03717,93.84266)"/>
<path transform="matrix(1.00006,0,0,-1.00002,56.746538,52.207826)" stroke-width=".3985" stroke-linecap="butt" stroke-miterlimit="10" stroke-linejoin="miter" fill="none" stroke="#000000" d="M71.19655-12.92352 73.91733-14.28389"/>
<use data-text="1" xlink:href="#font_2_5" transform="matrix(5.49973,0,0,-5.4995105,131.232,71.168209)"/>
<path transform="matrix(1.00006,0,0,-1.00002,56.746538,52.207826)" stroke-width=".3985" stroke-linecap="butt" stroke-miterlimit="10" stroke-linejoin="miter" fill="none" stroke="#000000" d="M93.8706-1.58627 96.5914-2.94664"/>
<use data-text="2" xlink:href="#font_2_6" transform="matrix(5.49973,0,0,-5.4995105,153.90737,59.83098)"/>
<path transform="matrix(1.00006,0,0,-1.00002,56.746538,52.207826)" stroke-width=".79701" stroke-linecap="butt" stroke-miterlimit="10" stroke-linejoin="miter" fill="none" stroke="#409f9f" d="M-39.59451-23.7231-42.03227-26.16049"/>
<path transform="matrix(1.00006,0,0,-1.00002,56.746538,52.207826)" stroke-width=".79701" stroke-linecap="butt" stroke-miterlimit="10" stroke-linejoin="miter" fill="none" stroke="#409f9f" d="M-35.30403-21.40205-37.25327-23.94672"/>
<path transform="matrix(1.00006,0,0,-1.00002,56.746538,52.207826)" stroke-width=".79701" stroke-linecap="butt" stroke-miterlimit="10" stroke-linejoin="miter" fill="none" stroke="#409f9f" d="M-31.16127-19.07602-32.32652-21.73795"/>
<path transform="matrix(1.00006,0,0,-1.00002,56.746538,52.207826)" stroke-width=".79701" stroke-linecap="butt" stroke-miterlimit="10" stroke-linejoin="miter" fill="none" stroke="#409f9f" d="M-27.2645-16.77745-27.1538-19.50165"/>
<path transform="matrix(1.00006,0,0,-1.00002,56.746538,52.207826)" stroke-width=".79701" stroke-linecap="butt" stroke-miterlimit="10" stroke-linejoin="miter" fill="none" stroke="#409f9f" d="M-23.66115-14.60277-21.68768-17.1415"/>
<path transform="matrix(1.00006,0,0,-1.00002,56.746538,52.207826)" stroke-width=".79701" stroke-linecap="butt" stroke-miterlimit="10" stroke-linejoin="miter" fill="none" stroke="#409f9f" d="M-20.06674-12.64122-16.21259-14.56825"/>
<path transform="matrix(1.00006,0,0,-1.00002,56.746538,52.207826)" stroke-width=".79701" stroke-linecap="butt" stroke-miterlimit="10" stroke-linejoin="miter" fill="none" stroke="#409f9f" d="M-16.06825-10.75746-11.1416-11.91716"/>
<path transform="matrix(1.00006,0,0,-1.00002,56.746538,52.207826)" stroke-width=".79701" stroke-linecap="butt" stroke-miterlimit="10" stroke-linejoin="miter" fill="none" stroke="#409f9f" d="M-11.73073-8.77791-6.40964-9.36188"/>
<path transform="matrix(1.00006,0,0,-1.00002,56.746538,52.207826)" stroke-width=".79701" stroke-linecap="butt" stroke-miterlimit="10" stroke-linejoin="miter" fill="none" stroke="#409f9f" d="M-7.24821-6.684-1.82263-6.92096"/>
<path transform="matrix(1.00006,0,0,-1.00002,56.746538,52.207826)" stroke-width=".79701" stroke-linecap="butt" stroke-miterlimit="10" stroke-linejoin="miter" fill="none" stroke="#409f9f" d="M-2.7249-4.50743 2.7235-4.5627"/>
<path transform="matrix(1.00006,0,0,-1.00002,56.746538,52.207826)" stroke-width=".79701" stroke-linecap="butt" stroke-miterlimit="10" stroke-linejoin="miter" fill="none" stroke="#409f9f" d="M1.80916-2.26767 7.25896-2.26761"/>
<path transform="matrix(1.00006,0,0,-1.00002,56.746538,52.207826)" stroke-width=".79701" stroke-linecap="butt" stroke-miterlimit="10" stroke-linejoin="miter" fill="none" stroke="#409f9f" d="M6.34457 .02737 11.79298-.0279"/>
<path transform="matrix(1.00006,0,0,-1.00002,56.746538,52.207826)" stroke-width=".79701" stroke-linecap="butt" stroke-miterlimit="10" stroke-linejoin="miter" fill="none" stroke="#409f9f" d="M10.89072 2.38564 16.3163 2.14867"/>
<path transform="matrix(1.00006,0,0,-1.00002,56.746538,52.207826)" stroke-width=".79701" stroke-linecap="butt" stroke-miterlimit="10" stroke-linejoin="miter" fill="none" stroke="#409f9f" d="M15.47772 4.82655 20.79881 4.24258"/>
<path transform="matrix(1.00006,0,0,-1.00002,56.746538,52.207826)" stroke-width=".79701" stroke-linecap="butt" stroke-miterlimit="10" stroke-linejoin="miter" fill="none" stroke="#409f9f" d="M20.20967 7.38184 25.13632 6.22214"/>
<path transform="matrix(1.00006,0,0,-1.00002,56.746538,52.207826)" stroke-width=".79701" stroke-linecap="butt" stroke-miterlimit="10" stroke-linejoin="miter" fill="none" stroke="#409f9f" d="M25.28067 10.03291 29.13483 8.10588"/>
<path transform="matrix(1.00006,0,0,-1.00002,56.746538,52.207826)" stroke-width=".79701" stroke-linecap="butt" stroke-miterlimit="10" stroke-linejoin="miter" fill="none" stroke="#409f9f" d="M30.75438 12.60655 32.7306 10.0671"/>
<path transform="matrix(1.00006,0,0,-1.00002,56.746538,52.207826)" stroke-width=".79701" stroke-linecap="butt" stroke-miterlimit="10" stroke-linejoin="miter" fill="none" stroke="#409f9f" d="M36.22188 14.96632 36.33258 12.24213"/>
<path transform="matrix(1.00006,0,0,-1.00002,56.746538,52.207826)" stroke-width=".79701" stroke-linecap="butt" stroke-miterlimit="10" stroke-linejoin="miter" fill="none" stroke="#409f9f" d="M41.3946 17.2026 40.22935 14.54068"/>
<path transform="matrix(1.00006,0,0,-1.00002,56.746538,52.207826)" stroke-width=".79701" stroke-linecap="butt" stroke-miterlimit="10" stroke-linejoin="miter" fill="none" stroke="#409f9f" d="M46.32135 19.41139 44.37212 16.86674"/>
<path transform="matrix(1.00006,0,0,-1.00002,56.746538,52.207826)" stroke-width=".79701" stroke-linecap="butt" stroke-miterlimit="10" stroke-linejoin="miter" fill="none" stroke="#409f9f" d="M51.10036 21.62518 48.6626 19.18779"/>
<path transform="matrix(1.00006,0,0,-1.00002,56.746538,52.207826)" stroke-width=".79701" stroke-linecap="butt" stroke-miterlimit="10" stroke-linejoin="miter" fill="none" stroke="#409f9f" d="M-35.05977-25.99043-37.49753-28.42783"/>
<path transform="matrix(1.00006,0,0,-1.00002,56.746538,52.207826)" stroke-width=".79701" stroke-linecap="butt" stroke-miterlimit="10" stroke-linejoin="miter" fill="none" stroke="#409f9f" d="M-30.76929-23.66939-32.7185-26.21404"/>
<path transform="matrix(1.00006,0,0,-1.00002,56.746538,52.207826)" stroke-width=".79701" stroke-linecap="butt" stroke-miterlimit="10" stroke-linejoin="miter" fill="none" stroke="#409f9f" d="M-26.62651-21.34334-27.79178-24.00526"/>
<path transform="matrix(1.00006,0,0,-1.00002,56.746538,52.207826)" stroke-width=".79701" stroke-linecap="butt" stroke-miterlimit="10" stroke-linejoin="miter" fill="none" stroke="#409f9f" d="M-22.72975-19.04478-22.61905-21.76898"/>
<path transform="matrix(1.00006,0,0,-1.00002,56.746538,52.207826)" stroke-width=".79701" stroke-linecap="butt" stroke-miterlimit="10" stroke-linejoin="miter" fill="none" stroke="#409f9f" d="M-19.12639-16.8701-17.15294-19.40883"/>
<path transform="matrix(1.00006,0,0,-1.00002,56.746538,52.207826)" stroke-width=".79701" stroke-linecap="butt" stroke-miterlimit="10" stroke-linejoin="miter" fill="none" stroke="#409f9f" d="M-15.532-14.90854-11.67783-16.83557"/>
<path transform="matrix(1.00006,0,0,-1.00002,56.746538,52.207826)" stroke-width=".79701" stroke-linecap="butt" stroke-miterlimit="10" stroke-linejoin="miter" fill="none" stroke="#409f9f" d="M-11.53351-13.0248-6.60684-14.1845"/>
<path transform="matrix(1.00006,0,0,-1.00002,56.746538,52.207826)" stroke-width=".79701" stroke-linecap="butt" stroke-miterlimit="10" stroke-linejoin="miter" fill="none" stroke="#409f9f" d="M-7.19597-11.04523-1.87488-11.6292"/>
<path transform="matrix(1.00006,0,0,-1.00002,56.746538,52.207826)" stroke-width=".79701" stroke-linecap="butt" stroke-miterlimit="10" stroke-linejoin="miter" fill="none" stroke="#409f9f" d="M-2.71347-8.95132 2.7121-9.1883"/>
<path transform="matrix(1.00006,0,0,-1.00002,56.746538,52.207826)" stroke-width=".79701" stroke-linecap="butt" stroke-miterlimit="10" stroke-linejoin="miter" fill="none" stroke="#409f9f" d="M1.80983-6.77475 7.25826-6.83003"/>
<path transform="matrix(1.00006,0,0,-1.00002,56.746538,52.207826)" stroke-width=".79701" stroke-linecap="butt" stroke-miterlimit="10" stroke-linejoin="miter" fill="none" stroke="#409f9f" d="M6.34392-4.535 11.7937-4.53494"/>
<path transform="matrix(1.00006,0,0,-1.00002,56.746538,52.207826)" stroke-width=".79701" stroke-linecap="butt" stroke-miterlimit="10" stroke-linejoin="miter" fill="none" stroke="#409f9f" d="M10.87932-2.23994 16.32774-2.29521"/>
<path transform="matrix(1.00006,0,0,-1.00002,56.746538,52.207826)" stroke-width=".79701" stroke-linecap="butt" stroke-miterlimit="10" stroke-linejoin="miter" fill="none" stroke="#409f9f" d="M15.42548 .11832 20.85106-.11864"/>
<path transform="matrix(1.00006,0,0,-1.00002,56.746538,52.207826)" stroke-width=".79701" stroke-linecap="butt" stroke-miterlimit="10" stroke-linejoin="miter" fill="none" stroke="#409f9f" d="M20.01247 2.55923 25.33356 1.97527"/>
<path transform="matrix(1.00006,0,0,-1.00002,56.746538,52.207826)" stroke-width=".79701" stroke-linecap="butt" stroke-miterlimit="10" stroke-linejoin="miter" fill="none" stroke="#409f9f" d="M24.74442 5.1145 29.67108 3.9548"/>
<path transform="matrix(1.00006,0,0,-1.00002,56.746538,52.207826)" stroke-width=".79701" stroke-linecap="butt" stroke-miterlimit="10" stroke-linejoin="miter" fill="none" stroke="#409f9f" d="M29.81541 7.7656 33.66957 5.83856"/>
<path transform="matrix(1.00006,0,0,-1.00002,56.746538,52.207826)" stroke-width=".79701" stroke-linecap="butt" stroke-miterlimit="10" stroke-linejoin="miter" fill="none" stroke="#409f9f" d="M35.28914 10.33922 37.26537 7.79976"/>
<path transform="matrix(1.00006,0,0,-1.00002,56.746538,52.207826)" stroke-width=".79701" stroke-linecap="butt" stroke-miterlimit="10" stroke-linejoin="miter" fill="none" stroke="#409f9f" d="M40.75664 12.69899 40.86734 9.97481"/>
<path transform="matrix(1.00006,0,0,-1.00002,56.746538,52.207826)" stroke-width=".79701" stroke-linecap="butt" stroke-miterlimit="10" stroke-linejoin="miter" fill="none" stroke="#409f9f" d="M45.92937 14.93529 44.7641 12.27336"/>
<path transform="matrix(1.00006,0,0,-1.00002,56.746538,52.207826)" stroke-width=".79701" stroke-linecap="butt" stroke-miterlimit="10" stroke-linejoin="miter" fill="none" stroke="#409f9f" d="M50.8561 17.14407 48.90688 14.59941"/>
<path transform="matrix(1.00006,0,0,-1.00002,56.746538,52.207826)" stroke-width=".79701" stroke-linecap="butt" stroke-miterlimit="10" stroke-linejoin="miter" fill="none" stroke="#409f9f" d="M55.63512 19.35786 53.19736 16.92046"/>
<path transform="matrix(1.00006,0,0,-1.00002,56.746538,52.207826)" stroke-width=".79701" stroke-linecap="butt" stroke-miterlimit="10" stroke-linejoin="miter" fill="none" stroke="#409f9f" d="M-30.52504-28.25777-32.9628-30.69516"/>
<path transform="matrix(1.00006,0,0,-1.00002,56.746538,52.207826)" stroke-width=".79701" stroke-linecap="butt" stroke-miterlimit="10" stroke-linejoin="miter" fill="none" stroke="#409f9f" d="M-26.23454-25.9367-28.18378-28.48137"/>
<path transform="matrix(1.00006,0,0,-1.00002,56.746538,52.207826)" stroke-width=".79701" stroke-linecap="butt" stroke-miterlimit="10" stroke-linejoin="miter" fill="none" stroke="#409f9f" d="M-22.09178-23.61067-23.25705-26.2726"/>
<path transform="matrix(1.00006,0,0,-1.00002,56.746538,52.207826)" stroke-width=".79701" stroke-linecap="butt" stroke-miterlimit="10" stroke-linejoin="miter" fill="none" stroke="#409f9f" d="M-18.195-21.31212-18.0843-24.03632"/>
<path transform="matrix(1.00006,0,0,-1.00002,56.746538,52.207826)" stroke-width=".79701" stroke-linecap="butt" stroke-miterlimit="10" stroke-linejoin="miter" fill="none" stroke="#409f9f" d="M-14.59166-19.13744-12.6182-21.67616"/>
<path transform="matrix(1.00006,0,0,-1.00002,56.746538,52.207826)" stroke-width=".79701" stroke-linecap="butt" stroke-miterlimit="10" stroke-linejoin="miter" fill="none" stroke="#409f9f" d="M-10.99725-17.17587-7.1431-19.1029"/>
<path transform="matrix(1.00006,0,0,-1.00002,56.746538,52.207826)" stroke-width=".79701" stroke-linecap="butt" stroke-miterlimit="10" stroke-linejoin="miter" fill="none" stroke="#409f9f" d="M-6.99876-15.29211-2.07211-16.45181"/>
<path transform="matrix(1.00006,0,0,-1.00002,56.746538,52.207826)" stroke-width=".79701" stroke-linecap="butt" stroke-miterlimit="10" stroke-linejoin="miter" fill="none" stroke="#409f9f" d="M-2.66124-13.31256 2.65984-13.89653"/>
<path transform="matrix(1.00006,0,0,-1.00002,56.746538,52.207826)" stroke-width=".79701" stroke-linecap="butt" stroke-miterlimit="10" stroke-linejoin="miter" fill="none" stroke="#409f9f" d="M1.82124-11.21866 7.24684-11.45563"/>
<path transform="matrix(1.00006,0,0,-1.00002,56.746538,52.207826)" stroke-width=".79701" stroke-linecap="butt" stroke-miterlimit="10" stroke-linejoin="miter" fill="none" stroke="#409f9f" d="M6.34457-9.04208 11.79298-9.09735"/>
<path transform="matrix(1.00006,0,0,-1.00002,56.746538,52.207826)" stroke-width=".79701" stroke-linecap="butt" stroke-miterlimit="10" stroke-linejoin="miter" fill="none" stroke="#409f9f" d="M10.87865-6.80234 16.32843-6.80228"/>
<path transform="matrix(1.00006,0,0,-1.00002,56.746538,52.207826)" stroke-width=".79701" stroke-linecap="butt" stroke-miterlimit="10" stroke-linejoin="miter" fill="none" stroke="#409f9f" d="M15.41405-4.50728 20.86247-4.56255"/>
<path transform="matrix(1.00006,0,0,-1.00002,56.746538,52.207826)" stroke-width=".79701" stroke-linecap="butt" stroke-miterlimit="10" stroke-linejoin="miter" fill="none" stroke="#409f9f" d="M19.9602-2.149 25.38579-2.38597"/>
<path transform="matrix(1.00006,0,0,-1.00002,56.746538,52.207826)" stroke-width=".79701" stroke-linecap="butt" stroke-miterlimit="10" stroke-linejoin="miter" fill="none" stroke="#409f9f" d="M24.54721 .2919 29.86829-.29205"/>
<path transform="matrix(1.00006,0,0,-1.00002,56.746538,52.207826)" stroke-width=".79701" stroke-linecap="butt" stroke-miterlimit="10" stroke-linejoin="miter" fill="none" stroke="#409f9f" d="M29.27916 2.84717 34.20581 1.68747"/>
<path transform="matrix(1.00006,0,0,-1.00002,56.746538,52.207826)" stroke-width=".79701" stroke-linecap="butt" stroke-miterlimit="10" stroke-linejoin="miter" fill="none" stroke="#409f9f" d="M34.35016 5.49826 38.20432 3.57123"/>
<path transform="matrix(1.00006,0,0,-1.00002,56.746538,52.207826)" stroke-width=".79701" stroke-linecap="butt" stroke-miterlimit="10" stroke-linejoin="miter" fill="none" stroke="#409f9f" d="M39.82387 8.0719 41.8001 5.53244"/>
<path transform="matrix(1.00006,0,0,-1.00002,56.746538,52.207826)" stroke-width=".79701" stroke-linecap="butt" stroke-miterlimit="10" stroke-linejoin="miter" fill="none" stroke="#409f9f" d="M45.29137 10.43167 45.40207 7.70747"/>
<path transform="matrix(1.00006,0,0,-1.00002,56.746538,52.207826)" stroke-width=".79701" stroke-linecap="butt" stroke-miterlimit="10" stroke-linejoin="miter" fill="none" stroke="#409f9f" d="M50.4641 12.66795 49.29884 10.00603"/>
<path transform="matrix(1.00006,0,0,-1.00002,56.746538,52.207826)" stroke-width=".79701" stroke-linecap="butt" stroke-miterlimit="10" stroke-linejoin="miter" fill="none" stroke="#409f9f" d="M55.39084 14.87674 53.4416 12.33208"/>
<path transform="matrix(1.00006,0,0,-1.00002,56.746538,52.207826)" stroke-width=".79701" stroke-linecap="butt" stroke-miterlimit="10" stroke-linejoin="miter" fill="none" stroke="#409f9f" d="M60.16985 17.09053 57.73209 14.65314"/>
<path transform="matrix(1.00006,0,0,-1.00002,56.746538,52.207826)" stroke-width=".79701" stroke-linecap="butt" stroke-miterlimit="10" stroke-linejoin="miter" fill="none" stroke="#409f9f" d="M-25.99028-30.5251-28.42804-32.9625"/>
<path transform="matrix(1.00006,0,0,-1.00002,56.746538,52.207826)" stroke-width=".79701" stroke-linecap="butt" stroke-miterlimit="10" stroke-linejoin="miter" fill="none" stroke="#409f9f" d="M-21.6998-28.20404-23.64903-30.7487"/>
<path transform="matrix(1.00006,0,0,-1.00002,56.746538,52.207826)" stroke-width=".79701" stroke-linecap="butt" stroke-miterlimit="10" stroke-linejoin="miter" fill="none" stroke="#409f9f" d="M-17.55704-25.878-18.72229-28.53993"/>
<path transform="matrix(1.00006,0,0,-1.00002,56.746538,52.207826)" stroke-width=".79701" stroke-linecap="butt" stroke-miterlimit="10" stroke-linejoin="miter" fill="none" stroke="#409f9f" d="M-13.66026-23.57945-13.54956-26.30363"/>
<path transform="matrix(1.00006,0,0,-1.00002,56.746538,52.207826)" stroke-width=".79701" stroke-linecap="butt" stroke-miterlimit="10" stroke-linejoin="miter" fill="none" stroke="#409f9f" d="M-10.0569-21.40475-8.08345-23.94348"/>
<path transform="matrix(1.00006,0,0,-1.00002,56.746538,52.207826)" stroke-width=".79701" stroke-linecap="butt" stroke-miterlimit="10" stroke-linejoin="miter" fill="none" stroke="#409f9f" d="M-6.46251-19.4432-2.60835-21.37024"/>
<path transform="matrix(1.00006,0,0,-1.00002,56.746538,52.207826)" stroke-width=".79701" stroke-linecap="butt" stroke-miterlimit="10" stroke-linejoin="miter" fill="none" stroke="#409f9f" d="M-2.46402-17.55945 2.46262-18.71915"/>
<path transform="matrix(1.00006,0,0,-1.00002,56.746538,52.207826)" stroke-width=".79701" stroke-linecap="butt" stroke-miterlimit="10" stroke-linejoin="miter" fill="none" stroke="#409f9f" d="M1.8735-15.5799 7.19458-16.16386"/>
<path transform="matrix(1.00006,0,0,-1.00002,56.746538,52.207826)" stroke-width=".79701" stroke-linecap="butt" stroke-miterlimit="10" stroke-linejoin="miter" fill="none" stroke="#409f9f" d="M6.356-13.486 11.78159-13.72296"/>
<path transform="matrix(1.00006,0,0,-1.00002,56.746538,52.207826)" stroke-width=".79701" stroke-linecap="butt" stroke-miterlimit="10" stroke-linejoin="miter" fill="none" stroke="#409f9f" d="M10.87932-11.30942 16.32774-11.36469"/>
<path transform="matrix(1.00006,0,0,-1.00002,56.746538,52.207826)" stroke-width=".79701" stroke-linecap="butt" stroke-miterlimit="10" stroke-linejoin="miter" fill="none" stroke="#409f9f" d="M15.4134-9.06966 20.86319-9.0696"/>
<path transform="matrix(1.00006,0,0,-1.00002,56.746538,52.207826)" stroke-width=".79701" stroke-linecap="butt" stroke-miterlimit="10" stroke-linejoin="miter" fill="none" stroke="#409f9f" d="M19.9488-6.7746 25.39722-6.82988"/>
<path transform="matrix(1.00006,0,0,-1.00002,56.746538,52.207826)" stroke-width=".79701" stroke-linecap="butt" stroke-miterlimit="10" stroke-linejoin="miter" fill="none" stroke="#409f9f" d="M24.49495-4.41634 29.92055-4.6533"/>
<path transform="matrix(1.00006,0,0,-1.00002,56.746538,52.207826)" stroke-width=".79701" stroke-linecap="butt" stroke-miterlimit="10" stroke-linejoin="miter" fill="none" stroke="#409f9f" d="M29.08195-1.97542 34.40305-2.55939"/>
<path transform="matrix(1.00006,0,0,-1.00002,56.746538,52.207826)" stroke-width=".79701" stroke-linecap="butt" stroke-miterlimit="10" stroke-linejoin="miter" fill="none" stroke="#409f9f" d="M33.8139 .57983 38.74055-.57983"/>
<path transform="matrix(1.00006,0,0,-1.00002,56.746538,52.207826)" stroke-width=".79701" stroke-linecap="butt" stroke-miterlimit="10" stroke-linejoin="miter" fill="none" stroke="#409f9f" d="M38.8849 3.23093 42.73906 1.3039"/>
<path transform="matrix(1.00006,0,0,-1.00002,56.746538,52.207826)" stroke-width=".79701" stroke-linecap="butt" stroke-miterlimit="10" stroke-linejoin="miter" fill="none" stroke="#409f9f" d="M44.35863 5.80457 46.33485 3.2651"/>
<path transform="matrix(1.00006,0,0,-1.00002,56.746538,52.207826)" stroke-width=".79701" stroke-linecap="butt" stroke-miterlimit="10" stroke-linejoin="miter" fill="none" stroke="#409f9f" d="M49.82611 8.16434 49.93681 5.44014"/>
<path transform="matrix(1.00006,0,0,-1.00002,56.746538,52.207826)" stroke-width=".79701" stroke-linecap="butt" stroke-miterlimit="10" stroke-linejoin="miter" fill="none" stroke="#409f9f" d="M54.99886 10.40062 53.83359 7.7387"/>
<path transform="matrix(1.00006,0,0,-1.00002,56.746538,52.207826)" stroke-width=".79701" stroke-linecap="butt" stroke-miterlimit="10" stroke-linejoin="miter" fill="none" stroke="#409f9f" d="M59.92558 12.6094 57.97635 10.06476"/>
<path transform="matrix(1.00006,0,0,-1.00002,56.746538,52.207826)" stroke-width=".79701" stroke-linecap="butt" stroke-miterlimit="10" stroke-linejoin="miter" fill="none" stroke="#409f9f" d="M64.7046 14.8232 62.26685 12.3858"/>
<path transform="matrix(1.00006,0,0,-1.00002,56.746538,52.207826)" stroke-width=".79701" stroke-linecap="butt" stroke-miterlimit="10" stroke-linejoin="miter" fill="none" stroke="#409f9f" d="M-21.45554-32.79242-23.8933-35.22981"/>
<path transform="matrix(1.00006,0,0,-1.00002,56.746538,52.207826)" stroke-width=".79701" stroke-linecap="butt" stroke-miterlimit="10" stroke-linejoin="miter" fill="none" stroke="#409f9f" d="M-17.16505-30.47137-19.11427-33.01602"/>
<path transform="matrix(1.00006,0,0,-1.00002,56.746538,52.207826)" stroke-width=".79701" stroke-linecap="butt" stroke-miterlimit="10" stroke-linejoin="miter" fill="none" stroke="#409f9f" d="M-13.02228-28.14532-14.18755-30.80725"/>
<path transform="matrix(1.00006,0,0,-1.00002,56.746538,52.207826)" stroke-width=".79701" stroke-linecap="butt" stroke-miterlimit="10" stroke-linejoin="miter" fill="none" stroke="#409f9f" d="M-9.12552-25.84677-9.01482-28.57097"/>
<path transform="matrix(1.00006,0,0,-1.00002,56.746538,52.207826)" stroke-width=".79701" stroke-linecap="butt" stroke-miterlimit="10" stroke-linejoin="miter" fill="none" stroke="#409f9f" d="M-5.52216-23.67209-3.54869-26.21082"/>
<path transform="matrix(1.00006,0,0,-1.00002,56.746538,52.207826)" stroke-width=".79701" stroke-linecap="butt" stroke-miterlimit="10" stroke-linejoin="miter" fill="none" stroke="#409f9f" d="M-1.92775-21.71053 1.92639-23.63756"/>
<path transform="matrix(1.00006,0,0,-1.00002,56.746538,52.207826)" stroke-width=".79701" stroke-linecap="butt" stroke-miterlimit="10" stroke-linejoin="miter" fill="none" stroke="#409f9f" d="M2.07071-19.82678 6.99738-20.98648"/>
<path transform="matrix(1.00006,0,0,-1.00002,56.746538,52.207826)" stroke-width=".79701" stroke-linecap="butt" stroke-miterlimit="10" stroke-linejoin="miter" fill="none" stroke="#409f9f" d="M6.40825-17.84723 11.72934-18.43118"/>
<path transform="matrix(1.00006,0,0,-1.00002,56.746538,52.207826)" stroke-width=".79701" stroke-linecap="butt" stroke-miterlimit="10" stroke-linejoin="miter" fill="none" stroke="#409f9f" d="M10.89075-15.75331 16.31633-15.99028"/>
<path transform="matrix(1.00006,0,0,-1.00002,56.746538,52.207826)" stroke-width=".79701" stroke-linecap="butt" stroke-miterlimit="10" stroke-linejoin="miter" fill="none" stroke="#409f9f" d="M15.41406-13.57674 20.86249-13.63202"/>
<path transform="matrix(1.00006,0,0,-1.00002,56.746538,52.207826)" stroke-width=".79701" stroke-linecap="butt" stroke-miterlimit="10" stroke-linejoin="miter" fill="none" stroke="#409f9f" d="M19.94815-11.33699 25.39793-11.33693"/>
<path transform="matrix(1.00006,0,0,-1.00002,56.746538,52.207826)" stroke-width=".79701" stroke-linecap="butt" stroke-miterlimit="10" stroke-linejoin="miter" fill="none" stroke="#409f9f" d="M24.48355-9.04193 29.93198-9.0972"/>
<path transform="matrix(1.00006,0,0,-1.00002,56.746538,52.207826)" stroke-width=".79701" stroke-linecap="butt" stroke-miterlimit="10" stroke-linejoin="miter" fill="none" stroke="#409f9f" d="M29.02971-6.68367 34.45529-6.92064"/>
<path transform="matrix(1.00006,0,0,-1.00002,56.746538,52.207826)" stroke-width=".79701" stroke-linecap="butt" stroke-miterlimit="10" stroke-linejoin="miter" fill="none" stroke="#409f9f" d="M33.6167-4.24274 38.93779-4.8267"/>
<path transform="matrix(1.00006,0,0,-1.00002,56.746538,52.207826)" stroke-width=".79701" stroke-linecap="butt" stroke-miterlimit="10" stroke-linejoin="miter" fill="none" stroke="#409f9f" d="M38.34865-1.68747 43.27531-2.84717"/>
<path transform="matrix(1.00006,0,0,-1.00002,56.746538,52.207826)" stroke-width=".79701" stroke-linecap="butt" stroke-miterlimit="10" stroke-linejoin="miter" fill="none" stroke="#409f9f" d="M43.41966 .96361 47.27382-.96342"/>
<path transform="matrix(1.00006,0,0,-1.00002,56.746538,52.207826)" stroke-width=".79701" stroke-linecap="butt" stroke-miterlimit="10" stroke-linejoin="miter" fill="none" stroke="#409f9f" d="M48.89337 3.53723 50.8696 .99777"/>
<path transform="matrix(1.00006,0,0,-1.00002,56.746538,52.207826)" stroke-width=".79701" stroke-linecap="butt" stroke-miterlimit="10" stroke-linejoin="miter" fill="none" stroke="#409f9f" d="M54.36087 5.897 54.47157 3.1728"/>
<path transform="matrix(1.00006,0,0,-1.00002,56.746538,52.207826)" stroke-width=".79701" stroke-linecap="butt" stroke-miterlimit="10" stroke-linejoin="miter" fill="none" stroke="#409f9f" d="M59.5336 8.1333 58.36833 5.47136"/>
<path transform="matrix(1.00006,0,0,-1.00002,56.746538,52.207826)" stroke-width=".79701" stroke-linecap="butt" stroke-miterlimit="10" stroke-linejoin="miter" fill="none" stroke="#409f9f" d="M64.46033 10.34209 62.51111 7.79742"/>
<path transform="matrix(1.00006,0,0,-1.00002,56.746538,52.207826)" stroke-width=".79701" stroke-linecap="butt" stroke-miterlimit="10" stroke-linejoin="miter" fill="none" stroke="#409f9f" d="M69.23935 12.55586 66.80159 10.11847"/>
<path transform="matrix(1.00006,0,0,-1.00002,56.746538,52.207826)" stroke-width=".79701" stroke-linecap="butt" stroke-miterlimit="10" stroke-linejoin="miter" fill="none" stroke="#409f9f" d="M-16.92079-35.05975-19.35855-37.49715"/>
<path transform="matrix(1.00006,0,0,-1.00002,56.746538,52.207826)" stroke-width=".79701" stroke-linecap="butt" stroke-miterlimit="10" stroke-linejoin="miter" fill="none" stroke="#409f9f" d="M-12.63031-32.7387-14.57954-35.28336"/>
<path transform="matrix(1.00006,0,0,-1.00002,56.746538,52.207826)" stroke-width=".79701" stroke-linecap="butt" stroke-miterlimit="10" stroke-linejoin="miter" fill="none" stroke="#409f9f" d="M-8.48755-30.41266-9.6528-33.07458"/>
<path transform="matrix(1.00006,0,0,-1.00002,56.746538,52.207826)" stroke-width=".79701" stroke-linecap="butt" stroke-miterlimit="10" stroke-linejoin="miter" fill="none" stroke="#409f9f" d="M-4.59077-28.1141-4.48007-30.8383"/>
<path transform="matrix(1.00006,0,0,-1.00002,56.746538,52.207826)" stroke-width=".79701" stroke-linecap="butt" stroke-miterlimit="10" stroke-linejoin="miter" fill="none" stroke="#409f9f" d="M-.98743-25.93942 .98602-28.47815"/>
<path transform="matrix(1.00006,0,0,-1.00002,56.746538,52.207826)" stroke-width=".79701" stroke-linecap="butt" stroke-miterlimit="10" stroke-linejoin="miter" fill="none" stroke="#409f9f" d="M2.60696-23.97786 6.46112-25.90489"/>
<path transform="matrix(1.00006,0,0,-1.00002,56.746538,52.207826)" stroke-width=".79701" stroke-linecap="butt" stroke-miterlimit="10" stroke-linejoin="miter" fill="none" stroke="#409f9f" d="M6.60545-22.0941 11.5321-23.2538"/>
<path transform="matrix(1.00006,0,0,-1.00002,56.746538,52.207826)" stroke-width=".79701" stroke-linecap="butt" stroke-miterlimit="10" stroke-linejoin="miter" fill="none" stroke="#409f9f" d="M10.94298-20.11455 16.26407-20.69852"/>
<path transform="matrix(1.00006,0,0,-1.00002,56.746538,52.207826)" stroke-width=".79701" stroke-linecap="butt" stroke-miterlimit="10" stroke-linejoin="miter" fill="none" stroke="#409f9f" d="M15.42549-18.02065 20.85107-18.25761"/>
<path transform="matrix(1.00006,0,0,-1.00002,56.746538,52.207826)" stroke-width=".79701" stroke-linecap="butt" stroke-miterlimit="10" stroke-linejoin="miter" fill="none" stroke="#409f9f" d="M19.9488-15.84407 25.39722-15.89935"/>
<path transform="matrix(1.00006,0,0,-1.00002,56.746538,52.207826)" stroke-width=".79701" stroke-linecap="butt" stroke-miterlimit="10" stroke-linejoin="miter" fill="none" stroke="#409f9f" d="M24.48288-13.60432 29.93268-13.60426"/>
<path transform="matrix(1.00006,0,0,-1.00002,56.746538,52.207826)" stroke-width=".79701" stroke-linecap="butt" stroke-miterlimit="10" stroke-linejoin="miter" fill="none" stroke="#409f9f" d="M29.0183-11.30927 34.4667-11.36453"/>
<path transform="matrix(1.00006,0,0,-1.00002,56.746538,52.207826)" stroke-width=".79701" stroke-linecap="butt" stroke-miterlimit="10" stroke-linejoin="miter" fill="none" stroke="#409f9f" d="M33.56444-8.95099 38.99002-9.18796"/>
<path transform="matrix(1.00006,0,0,-1.00002,56.746538,52.207826)" stroke-width=".79701" stroke-linecap="butt" stroke-miterlimit="10" stroke-linejoin="miter" fill="none" stroke="#409f9f" d="M38.15144-6.51007 43.47253-7.09404"/>
<path transform="matrix(1.00006,0,0,-1.00002,56.746538,52.207826)" stroke-width=".79701" stroke-linecap="butt" stroke-miterlimit="10" stroke-linejoin="miter" fill="none" stroke="#409f9f" d="M42.88339-3.9548 47.81004-5.1145"/>
<path transform="matrix(1.00006,0,0,-1.00002,56.746538,52.207826)" stroke-width=".79701" stroke-linecap="butt" stroke-miterlimit="10" stroke-linejoin="miter" fill="none" stroke="#409f9f" d="M47.95439-1.30371 51.80855-3.23074"/>
<path transform="matrix(1.00006,0,0,-1.00002,56.746538,52.207826)" stroke-width=".79701" stroke-linecap="butt" stroke-miterlimit="10" stroke-linejoin="miter" fill="none" stroke="#409f9f" d="M53.4281 1.2699 55.40433-1.26955"/>
<path transform="matrix(1.00006,0,0,-1.00002,56.746538,52.207826)" stroke-width=".79701" stroke-linecap="butt" stroke-miterlimit="10" stroke-linejoin="miter" fill="none" stroke="#409f9f" d="M58.8956 3.62968 59.0063 .90549"/>
<path transform="matrix(1.00006,0,0,-1.00002,56.746538,52.207826)" stroke-width=".79701" stroke-linecap="butt" stroke-miterlimit="10" stroke-linejoin="miter" fill="none" stroke="#409f9f" d="M64.06833 5.86597 62.90308 3.20404"/>
<path transform="matrix(1.00006,0,0,-1.00002,56.746538,52.207826)" stroke-width=".79701" stroke-linecap="butt" stroke-miterlimit="10" stroke-linejoin="miter" fill="none" stroke="#409f9f" d="M68.99507 8.07475 67.04584 5.53009"/>
<path transform="matrix(1.00006,0,0,-1.00002,56.746538,52.207826)" stroke-width=".79701" stroke-linecap="butt" stroke-miterlimit="10" stroke-linejoin="miter" fill="none" stroke="#409f9f" d="M73.77408 10.28854 71.33632 7.85115"/>
<path transform="matrix(1.00006,0,0,-1.00002,56.746538,52.207826)" stroke-width=".79701" stroke-linecap="butt" stroke-miterlimit="10" stroke-linejoin="miter" fill="none" stroke="#409f9f" d="M-12.38605-37.32709-14.8238-39.76448"/>
<path transform="matrix(1.00006,0,0,-1.00002,56.746538,52.207826)" stroke-width=".79701" stroke-linecap="butt" stroke-miterlimit="10" stroke-linejoin="miter" fill="none" stroke="#409f9f" d="M-8.09557-35.00603-10.04478-37.55069"/>
<path transform="matrix(1.00006,0,0,-1.00002,56.746538,52.207826)" stroke-width=".79701" stroke-linecap="butt" stroke-miterlimit="10" stroke-linejoin="miter" fill="none" stroke="#409f9f" d="M-3.95279-32.68-5.11806-35.34192"/>
<path transform="matrix(1.00006,0,0,-1.00002,56.746538,52.207826)" stroke-width=".79701" stroke-linecap="butt" stroke-miterlimit="10" stroke-linejoin="miter" fill="none" stroke="#409f9f" d="M-.05603-30.38144 .05466-33.10564"/>
<path transform="matrix(1.00006,0,0,-1.00002,56.746538,52.207826)" stroke-width=".79701" stroke-linecap="butt" stroke-miterlimit="10" stroke-linejoin="miter" fill="none" stroke="#409f9f" d="M3.54732-28.20674 5.52077-30.74548"/>
<path transform="matrix(1.00006,0,0,-1.00002,56.746538,52.207826)" stroke-width=".79701" stroke-linecap="butt" stroke-miterlimit="10" stroke-linejoin="miter" fill="none" stroke="#409f9f" d="M7.14171-26.2452 10.99586-28.17223"/>
<path transform="matrix(1.00006,0,0,-1.00002,56.746538,52.207826)" stroke-width=".79701" stroke-linecap="butt" stroke-miterlimit="10" stroke-linejoin="miter" fill="none" stroke="#409f9f" d="M11.1402-24.36143 16.06686-25.52113"/>
<path transform="matrix(1.00006,0,0,-1.00002,56.746538,52.207826)" stroke-width=".79701" stroke-linecap="butt" stroke-miterlimit="10" stroke-linejoin="miter" fill="none" stroke="#409f9f" d="M15.47774-22.38188 20.79883-22.96585"/>
<path transform="matrix(1.00006,0,0,-1.00002,56.746538,52.207826)" stroke-width=".79701" stroke-linecap="butt" stroke-miterlimit="10" stroke-linejoin="miter" fill="none" stroke="#409f9f" d="M19.96024-20.28798 25.38582-20.52495"/>
<path transform="matrix(1.00006,0,0,-1.00002,56.746538,52.207826)" stroke-width=".79701" stroke-linecap="butt" stroke-miterlimit="10" stroke-linejoin="miter" fill="none" stroke="#409f9f" d="M24.48355-18.1114 29.93198-18.16667"/>
<path transform="matrix(1.00006,0,0,-1.00002,56.746538,52.207826)" stroke-width=".79701" stroke-linecap="butt" stroke-miterlimit="10" stroke-linejoin="miter" fill="none" stroke="#409f9f" d="M29.01764-15.87164 34.46742-15.87158"/>
<path transform="matrix(1.00006,0,0,-1.00002,56.746538,52.207826)" stroke-width=".79701" stroke-linecap="butt" stroke-miterlimit="10" stroke-linejoin="miter" fill="none" stroke="#409f9f" d="M33.55304-13.57658 39.00146-13.63187"/>
<path transform="matrix(1.00006,0,0,-1.00002,56.746538,52.207826)" stroke-width=".79701" stroke-linecap="butt" stroke-miterlimit="10" stroke-linejoin="miter" fill="none" stroke="#409f9f" d="M38.0992-11.21832 43.52478-11.45529"/>
<path transform="matrix(1.00006,0,0,-1.00002,56.746538,52.207826)" stroke-width=".79701" stroke-linecap="butt" stroke-miterlimit="10" stroke-linejoin="miter" fill="none" stroke="#409f9f" d="M42.68619-8.7774 48.00728-9.36137"/>
<path transform="matrix(1.00006,0,0,-1.00002,56.746538,52.207826)" stroke-width=".79701" stroke-linecap="butt" stroke-miterlimit="10" stroke-linejoin="miter" fill="none" stroke="#409f9f" d="M47.41814-6.22214 52.3448-7.38184"/>
<path transform="matrix(1.00006,0,0,-1.00002,56.746538,52.207826)" stroke-width=".79701" stroke-linecap="butt" stroke-miterlimit="10" stroke-linejoin="miter" fill="none" stroke="#409f9f" d="M52.48914-3.57104 56.34329-5.49808"/>
<path transform="matrix(1.00006,0,0,-1.00002,56.746538,52.207826)" stroke-width=".79701" stroke-linecap="butt" stroke-miterlimit="10" stroke-linejoin="miter" fill="none" stroke="#409f9f" d="M57.96286-.9974 59.93909-3.53687"/>
<path transform="matrix(1.00006,0,0,-1.00002,56.746538,52.207826)" stroke-width=".79701" stroke-linecap="butt" stroke-miterlimit="10" stroke-linejoin="miter" fill="none" stroke="#409f9f" d="M63.43036 1.36235 63.54106-1.36183"/>
<path transform="matrix(1.00006,0,0,-1.00002,56.746538,52.207826)" stroke-width=".79701" stroke-linecap="butt" stroke-miterlimit="10" stroke-linejoin="miter" fill="none" stroke="#409f9f" d="M68.60309 3.59863 67.43782 .9367"/>
<path transform="matrix(1.00006,0,0,-1.00002,56.746538,52.207826)" stroke-width=".79701" stroke-linecap="butt" stroke-miterlimit="10" stroke-linejoin="miter" fill="none" stroke="#409f9f" d="M73.52982 5.80742 71.5806 3.26276"/>
<path transform="matrix(1.00006,0,0,-1.00002,56.746538,52.207826)" stroke-width=".79701" stroke-linecap="butt" stroke-miterlimit="10" stroke-linejoin="miter" fill="none" stroke="#409f9f" d="M78.30884 8.02121 75.87108 5.58382"/>
<path transform="matrix(1.00006,0,0,-1.00002,56.746538,52.207826)" stroke-width=".79701" stroke-linecap="butt" stroke-miterlimit="10" stroke-linejoin="miter" fill="none" stroke="#409f9f" d="M-7.85132-39.5944-10.28908-42.0318"/>
<path transform="matrix(1.00006,0,0,-1.00002,56.746538,52.207826)" stroke-width=".79701" stroke-linecap="butt" stroke-miterlimit="10" stroke-linejoin="miter" fill="none" stroke="#409f9f" d="M-3.56082-37.27336-5.51006-39.81802"/>
<path transform="matrix(1.00006,0,0,-1.00002,56.746538,52.207826)" stroke-width=".79701" stroke-linecap="butt" stroke-miterlimit="10" stroke-linejoin="miter" fill="none" stroke="#409f9f" d="M.58192-34.94731-.58333-37.60925"/>
<path transform="matrix(1.00006,0,0,-1.00002,56.746538,52.207826)" stroke-width=".79701" stroke-linecap="butt" stroke-miterlimit="10" stroke-linejoin="miter" fill="none" stroke="#409f9f" d="M4.4787-32.64876 4.5894-35.37296"/>
<path transform="matrix(1.00006,0,0,-1.00002,56.746538,52.207826)" stroke-width=".79701" stroke-linecap="butt" stroke-miterlimit="10" stroke-linejoin="miter" fill="none" stroke="#409f9f" d="M8.08205-30.47408 10.05551-33.0128"/>
<path transform="matrix(1.00006,0,0,-1.00002,56.746538,52.207826)" stroke-width=".79701" stroke-linecap="butt" stroke-miterlimit="10" stroke-linejoin="miter" fill="none" stroke="#409f9f" d="M11.67645-28.51251 15.53061-30.43954"/>
<path transform="matrix(1.00006,0,0,-1.00002,56.746538,52.207826)" stroke-width=".79701" stroke-linecap="butt" stroke-miterlimit="10" stroke-linejoin="miter" fill="none" stroke="#409f9f" d="M15.67494-26.62877 20.6016-27.78847"/>
<path transform="matrix(1.00006,0,0,-1.00002,56.746538,52.207826)" stroke-width=".79701" stroke-linecap="butt" stroke-miterlimit="10" stroke-linejoin="miter" fill="none" stroke="#409f9f" d="M20.01247-24.64922 25.33356-25.23318"/>
<path transform="matrix(1.00006,0,0,-1.00002,56.746538,52.207826)" stroke-width=".79701" stroke-linecap="butt" stroke-miterlimit="10" stroke-linejoin="miter" fill="none" stroke="#409f9f" d="M24.49496-22.5553 29.92056-22.79227"/>
<path transform="matrix(1.00006,0,0,-1.00002,56.746538,52.207826)" stroke-width=".79701" stroke-linecap="butt" stroke-miterlimit="10" stroke-linejoin="miter" fill="none" stroke="#409f9f" d="M29.0183-20.37874 34.4667-20.434"/>
<path transform="matrix(1.00006,0,0,-1.00002,56.746538,52.207826)" stroke-width=".79701" stroke-linecap="butt" stroke-miterlimit="10" stroke-linejoin="miter" fill="none" stroke="#409f9f" d="M33.55237-18.13898 39.00215-18.13892"/>
<path transform="matrix(1.00006,0,0,-1.00002,56.746538,52.207826)" stroke-width=".79701" stroke-linecap="butt" stroke-miterlimit="10" stroke-linejoin="miter" fill="none" stroke="#409f9f" d="M38.08777-15.84392 43.5362-15.8992"/>
<path transform="matrix(1.00006,0,0,-1.00002,56.746538,52.207826)" stroke-width=".79701" stroke-linecap="butt" stroke-miterlimit="10" stroke-linejoin="miter" fill="none" stroke="#409f9f" d="M42.63393-13.48566 48.05951-13.72263"/>
<path transform="matrix(1.00006,0,0,-1.00002,56.746538,52.207826)" stroke-width=".79701" stroke-linecap="butt" stroke-miterlimit="10" stroke-linejoin="miter" fill="none" stroke="#409f9f" d="M47.22093-11.04474 52.542-11.6287"/>
<path transform="matrix(1.00006,0,0,-1.00002,56.746538,52.207826)" stroke-width=".79701" stroke-linecap="butt" stroke-miterlimit="10" stroke-linejoin="miter" fill="none" stroke="#409f9f" d="M51.95288-8.48946 56.87953-9.64915"/>
<path transform="matrix(1.00006,0,0,-1.00002,56.746538,52.207826)" stroke-width=".79701" stroke-linecap="butt" stroke-miterlimit="10" stroke-linejoin="miter" fill="none" stroke="#409f9f" d="M57.02388-5.83838 60.87804-7.76541"/>
<path transform="matrix(1.00006,0,0,-1.00002,56.746538,52.207826)" stroke-width=".79701" stroke-linecap="butt" stroke-miterlimit="10" stroke-linejoin="miter" fill="none" stroke="#409f9f" d="M62.49759-3.26474 64.47382-5.8042"/>
<path transform="matrix(1.00006,0,0,-1.00002,56.746538,52.207826)" stroke-width=".79701" stroke-linecap="butt" stroke-miterlimit="10" stroke-linejoin="miter" fill="none" stroke="#409f9f" d="M67.96509-.90497 68.07579-3.62917"/>
<path transform="matrix(1.00006,0,0,-1.00002,56.746538,52.207826)" stroke-width=".79701" stroke-linecap="butt" stroke-miterlimit="10" stroke-linejoin="miter" fill="none" stroke="#409f9f" d="M73.13782 1.3313 71.97256-1.33061"/>
<path transform="matrix(1.00006,0,0,-1.00002,56.746538,52.207826)" stroke-width=".79701" stroke-linecap="butt" stroke-miterlimit="10" stroke-linejoin="miter" fill="none" stroke="#409f9f" d="M78.06456 3.54008 76.11533 .99544"/>
<path transform="matrix(1.00006,0,0,-1.00002,56.746538,52.207826)" stroke-width=".79701" stroke-linecap="butt" stroke-miterlimit="10" stroke-linejoin="miter" fill="none" stroke="#409f9f" d="M82.84357 5.75388 80.4058 3.31648"/>
<path transform="matrix(1.00006,0,0,-1.00002,56.746538,52.207826)" stroke-width=".79701" stroke-linecap="butt" stroke-miterlimit="10" stroke-linejoin="miter" fill="none" stroke="#409f9f" d="M-3.31656-41.86174-5.75432-44.29913"/>
<path transform="matrix(1.00006,0,0,-1.00002,56.746538,52.207826)" stroke-width=".79701" stroke-linecap="butt" stroke-miterlimit="10" stroke-linejoin="miter" fill="none" stroke="#409f9f" d="M.9739-39.5407-.97531-42.08534"/>
<path transform="matrix(1.00006,0,0,-1.00002,56.746538,52.207826)" stroke-width=".79701" stroke-linecap="butt" stroke-miterlimit="10" stroke-linejoin="miter" fill="none" stroke="#409f9f" d="M5.11667-37.21465 3.95142-39.87657"/>
<path transform="matrix(1.00006,0,0,-1.00002,56.746538,52.207826)" stroke-width=".79701" stroke-linecap="butt" stroke-miterlimit="10" stroke-linejoin="miter" fill="none" stroke="#409f9f" d="M9.01344-34.91609 9.12415-37.64029"/>
<path transform="matrix(1.00006,0,0,-1.00002,56.746538,52.207826)" stroke-width=".79701" stroke-linecap="butt" stroke-miterlimit="10" stroke-linejoin="miter" fill="none" stroke="#409f9f" d="M12.61679-32.74141 14.59026-35.28014"/>
<path transform="matrix(1.00006,0,0,-1.00002,56.746538,52.207826)" stroke-width=".79701" stroke-linecap="butt" stroke-miterlimit="10" stroke-linejoin="miter" fill="none" stroke="#409f9f" d="M16.2112-30.77985 20.06535-32.70688"/>
<path transform="matrix(1.00006,0,0,-1.00002,56.746538,52.207826)" stroke-width=".79701" stroke-linecap="butt" stroke-miterlimit="10" stroke-linejoin="miter" fill="none" stroke="#409f9f" d="M20.20969-28.8961 25.13634-30.05579"/>
<path transform="matrix(1.00006,0,0,-1.00002,56.746538,52.207826)" stroke-width=".79701" stroke-linecap="butt" stroke-miterlimit="10" stroke-linejoin="miter" fill="none" stroke="#409f9f" d="M24.54723-26.91653 29.8683-27.5005"/>
<path transform="matrix(1.00006,0,0,-1.00002,56.746538,52.207826)" stroke-width=".79701" stroke-linecap="butt" stroke-miterlimit="10" stroke-linejoin="miter" fill="none" stroke="#409f9f" d="M29.02972-24.82263 34.4553-25.0596"/>
<path transform="matrix(1.00006,0,0,-1.00002,56.746538,52.207826)" stroke-width=".79701" stroke-linecap="butt" stroke-miterlimit="10" stroke-linejoin="miter" fill="none" stroke="#409f9f" d="M33.55304-22.64606 39.00146-22.70134"/>
<path transform="matrix(1.00006,0,0,-1.00002,56.746538,52.207826)" stroke-width=".79701" stroke-linecap="butt" stroke-miterlimit="10" stroke-linejoin="miter" fill="none" stroke="#409f9f" d="M38.08713-20.40631 43.53691-20.40625"/>
<path transform="matrix(1.00006,0,0,-1.00002,56.746538,52.207826)" stroke-width=".79701" stroke-linecap="butt" stroke-miterlimit="10" stroke-linejoin="miter" fill="none" stroke="#409f9f" d="M42.62253-18.11125 48.07094-18.16652"/>
<path transform="matrix(1.00006,0,0,-1.00002,56.746538,52.207826)" stroke-width=".79701" stroke-linecap="butt" stroke-miterlimit="10" stroke-linejoin="miter" fill="none" stroke="#409f9f" d="M47.16867-15.75298 52.59427-15.98994"/>
<path transform="matrix(1.00006,0,0,-1.00002,56.746538,52.207826)" stroke-width=".79701" stroke-linecap="butt" stroke-miterlimit="10" stroke-linejoin="miter" fill="none" stroke="#409f9f" d="M51.75568-13.31206 57.07677-13.89603"/>
<path transform="matrix(1.00006,0,0,-1.00002,56.746538,52.207826)" stroke-width=".79701" stroke-linecap="butt" stroke-miterlimit="10" stroke-linejoin="miter" fill="none" stroke="#409f9f" d="M56.48763-10.75679 61.41428-11.91649"/>
<path transform="matrix(1.00006,0,0,-1.00002,56.746538,52.207826)" stroke-width=".79701" stroke-linecap="butt" stroke-miterlimit="10" stroke-linejoin="miter" fill="none" stroke="#409f9f" d="M61.55862-8.1057 65.41278-10.03273"/>
<path transform="matrix(1.00006,0,0,-1.00002,56.746538,52.207826)" stroke-width=".79701" stroke-linecap="butt" stroke-miterlimit="10" stroke-linejoin="miter" fill="none" stroke="#409f9f" d="M67.03233-5.53207 69.00856-8.07153"/>
<path transform="matrix(1.00006,0,0,-1.00002,56.746538,52.207826)" stroke-width=".79701" stroke-linecap="butt" stroke-miterlimit="10" stroke-linejoin="miter" fill="none" stroke="#409f9f" d="M72.49983-3.1723 72.61053-5.89648"/>
<path transform="matrix(1.00006,0,0,-1.00002,56.746538,52.207826)" stroke-width=".79701" stroke-linecap="butt" stroke-miterlimit="10" stroke-linejoin="miter" fill="none" stroke="#409f9f" d="M77.67258-.936 76.50731-3.59793"/>
<path transform="matrix(1.00006,0,0,-1.00002,56.746538,52.207826)" stroke-width=".79701" stroke-linecap="butt" stroke-miterlimit="10" stroke-linejoin="miter" fill="none" stroke="#409f9f" d="M82.5993 1.27277 80.65007-1.27188"/>
<path transform="matrix(1.00006,0,0,-1.00002,56.746538,52.207826)" stroke-width=".79701" stroke-linecap="butt" stroke-miterlimit="10" stroke-linejoin="miter" fill="none" stroke="#409f9f" d="M87.37833 3.48656 84.94057 1.04916"/>
<path transform="matrix(1.00006,0,0,-1.00002,56.746538,52.207826)" stroke-width=".79701" stroke-linecap="butt" stroke-miterlimit="10" stroke-linejoin="miter" fill="none" stroke="#409f9f" d="M1.21817-44.12909-1.21957-46.56648"/>
<path transform="matrix(1.00006,0,0,-1.00002,56.746538,52.207826)" stroke-width=".79701" stroke-linecap="butt" stroke-miterlimit="10" stroke-linejoin="miter" fill="none" stroke="#409f9f" d="M5.50865-41.80803 3.55943-44.35269"/>
<path transform="matrix(1.00006,0,0,-1.00002,56.746538,52.207826)" stroke-width=".79701" stroke-linecap="butt" stroke-miterlimit="10" stroke-linejoin="miter" fill="none" stroke="#409f9f" d="M9.65143-39.482 8.48616-42.14392"/>
<path transform="matrix(1.00006,0,0,-1.00002,56.746538,52.207826)" stroke-width=".79701" stroke-linecap="butt" stroke-miterlimit="10" stroke-linejoin="miter" fill="none" stroke="#409f9f" d="M13.54819-37.18344 13.65889-39.90764"/>
<path transform="matrix(1.00006,0,0,-1.00002,56.746538,52.207826)" stroke-width=".79701" stroke-linecap="butt" stroke-miterlimit="10" stroke-linejoin="miter" fill="none" stroke="#409f9f" d="M17.15155-35.00874 19.12502-37.54749"/>
<path transform="matrix(1.00006,0,0,-1.00002,56.746538,52.207826)" stroke-width=".79701" stroke-linecap="butt" stroke-miterlimit="10" stroke-linejoin="miter" fill="none" stroke="#409f9f" d="M20.74596-33.0472 24.60011-34.97423"/>
<path transform="matrix(1.00006,0,0,-1.00002,56.746538,52.207826)" stroke-width=".79701" stroke-linecap="butt" stroke-miterlimit="10" stroke-linejoin="miter" fill="none" stroke="#409f9f" d="M24.74443-31.16344 29.6711-32.32314"/>
<path transform="matrix(1.00006,0,0,-1.00002,56.746538,52.207826)" stroke-width=".79701" stroke-linecap="butt" stroke-miterlimit="10" stroke-linejoin="miter" fill="none" stroke="#409f9f" d="M29.08197-29.18388 34.40306-29.76785"/>
<path transform="matrix(1.00006,0,0,-1.00002,56.746538,52.207826)" stroke-width=".79701" stroke-linecap="butt" stroke-miterlimit="10" stroke-linejoin="miter" fill="none" stroke="#409f9f" d="M33.56447-27.08998 38.99005-27.32695"/>
<path transform="matrix(1.00006,0,0,-1.00002,56.746538,52.207826)" stroke-width=".79701" stroke-linecap="butt" stroke-miterlimit="10" stroke-linejoin="miter" fill="none" stroke="#409f9f" d="M38.08778-24.9134 43.53621-24.96867"/>
<path transform="matrix(1.00006,0,0,-1.00002,56.746538,52.207826)" stroke-width=".79701" stroke-linecap="butt" stroke-miterlimit="10" stroke-linejoin="miter" fill="none" stroke="#409f9f" d="M42.62187-22.67365 48.07166-22.67358"/>
<path transform="matrix(1.00006,0,0,-1.00002,56.746538,52.207826)" stroke-width=".79701" stroke-linecap="butt" stroke-miterlimit="10" stroke-linejoin="miter" fill="none" stroke="#409f9f" d="M47.15727-20.3786 52.6057-20.43387"/>
<path transform="matrix(1.00006,0,0,-1.00002,56.746538,52.207826)" stroke-width=".79701" stroke-linecap="butt" stroke-miterlimit="10" stroke-linejoin="miter" fill="none" stroke="#409f9f" d="M51.70343-18.02032 57.12901-18.2573"/>
<path transform="matrix(1.00006,0,0,-1.00002,56.746538,52.207826)" stroke-width=".79701" stroke-linecap="butt" stroke-miterlimit="10" stroke-linejoin="miter" fill="none" stroke="#409f9f" d="M56.29042-15.5794 61.61151-16.16338"/>
<path transform="matrix(1.00006,0,0,-1.00002,56.746538,52.207826)" stroke-width=".79701" stroke-linecap="butt" stroke-miterlimit="10" stroke-linejoin="miter" fill="none" stroke="#409f9f" d="M61.02237-13.02414 65.94904-14.18384"/>
<path transform="matrix(1.00006,0,0,-1.00002,56.746538,52.207826)" stroke-width=".79701" stroke-linecap="butt" stroke-miterlimit="10" stroke-linejoin="miter" fill="none" stroke="#409f9f" d="M66.09337-10.37305 69.94754-12.30008"/>
<path transform="matrix(1.00006,0,0,-1.00002,56.746538,52.207826)" stroke-width=".79701" stroke-linecap="butt" stroke-miterlimit="10" stroke-linejoin="miter" fill="none" stroke="#409f9f" d="M71.5671-7.79941 73.54332-10.33887"/>
<path transform="matrix(1.00006,0,0,-1.00002,56.746538,52.207826)" stroke-width=".79701" stroke-linecap="butt" stroke-miterlimit="10" stroke-linejoin="miter" fill="none" stroke="#409f9f" d="M77.03459-5.43964 77.1453-8.16383"/>
<path transform="matrix(1.00006,0,0,-1.00002,56.746538,52.207826)" stroke-width=".79701" stroke-linecap="butt" stroke-miterlimit="10" stroke-linejoin="miter" fill="none" stroke="#409f9f" d="M82.20732-3.20335 81.04205-5.86528"/>
<path transform="matrix(1.00006,0,0,-1.00002,56.746538,52.207826)" stroke-width=".79701" stroke-linecap="butt" stroke-miterlimit="10" stroke-linejoin="miter" fill="none" stroke="#409f9f" d="M87.13405-.99457 85.18483-3.53923"/>
<path transform="matrix(1.00006,0,0,-1.00002,56.746538,52.207826)" stroke-width=".79701" stroke-linecap="butt" stroke-miterlimit="10" stroke-linejoin="miter" fill="none" stroke="#409f9f" d="M91.91307 1.21921 89.47531-1.21817"/>
<path transform="matrix(1.00006,0,0,-1.00002,56.746538,52.207826)" stroke-width=".3985" stroke-linecap="butt" stroke-miterlimit="10" stroke-linejoin="miter" fill="none" stroke="#000000" d="M36.67715-39.67926 43.08061-39.67918"/>
<path transform="matrix(-1.00006,-0,0,1.00002,93.22662,91.88788)" stroke-width=".3985" stroke-linecap="round" stroke-linejoin="round" fill="none" stroke="#000000" d="M-2.07224 2.39104C-1.69365 .95639-.84999 .27895 0 0-.84999-.27895-1.69365-.95639-2.07224-2.39104"/>
<use data-text="s" xlink:href="#font_2_19" transform="matrix(5.49973,0,0,-5.4995105,103.229328,93.25064)"/>
<use data-text="o" xlink:href="#font_2_16" transform="matrix(5.49973,0,0,-5.4995105,105.62721,93.25064)"/>
<use data-text="u" xlink:href="#font_2_21" transform="matrix(5.49973,0,0,-5.4995105,108.80055,93.25064)"/>
<use data-text="r" xlink:href="#font_2_18" transform="matrix(5.49973,0,0,-5.4995105,112.13339,93.25064)"/>
<use data-text="c" xlink:href="#font_2_8" transform="matrix(5.49973,0,0,-5.4995105,114.1738,93.25064)"/>
<use data-text="e" xlink:href="#font_2_10" transform="matrix(5.49973,0,0,-5.4995105,116.89618,93.25064)"/>
<path transform="matrix(1.00006,0,0,-1.00002,56.746538,52.207826)" stroke-width=".3985" stroke-linecap="butt" stroke-miterlimit="10" stroke-linejoin="miter" fill="none" stroke="#000000" d="M83.67259-28.67334 70.28941-48.7486"/>
<path transform="matrix(.5546933,-.8320367,-.8320699,-.5546711,140.53466,80.715969)" stroke-width=".3985" stroke-linecap="round" stroke-linejoin="round" fill="none" stroke="#000000" d="M-2.07224 2.39104C-1.69365 .95639-.84999 .27895 0 0-.84999-.27895-1.69365-.95639-2.07224-2.39104"/>
<use data-text="s" xlink:href="#font_2_19" transform="matrix(5.49973,0,0,-5.4995105,130.43897,102.99284)"/>
<use data-text="i" xlink:href="#font_2_12" transform="matrix(5.49973,0,0,-5.4995105,132.83686,102.99284)"/>
<use data-text="n" xlink:href="#font_2_15" transform="matrix(5.49973,0,0,-5.4995105,134.43726,102.99284)"/>
<use data-text="k" xlink:href="#font_2_13" transform="matrix(5.49973,0,0,-5.4995105,137.84159,102.99284)"/>
<path transform="matrix(1.00006,0,0,-1.00002,56.746538,52.207826)" d="M-49.88289-24.94095V-2.26688L-22.67406 11.33725V-11.3368ZM-22.67406 11.33725" fill="#ffe6e6"/>
<path transform="matrix(1.00006,0,0,-1.00002,56.746538,52.207826)" stroke-width=".3985" stroke-linecap="butt" stroke-miterlimit="10" stroke-linejoin="miter" fill="none" stroke="#ffffff" d="M-49.88289-24.94095V-2.26688L-22.67406 11.33725V-11.3368ZM-22.67406 11.33725"/>
<path transform="matrix(1.00006,0,0,-1.00002,56.746538,52.207826)" d="M-22.67406-11.3368V11.33725L22.67406 34.01088V11.3368ZM22.67406 34.01088" fill="#e6fae6"/>
<path transform="matrix(1.00006,0,0,-1.00002,56.746538,52.207826)" stroke-width=".3985" stroke-linecap="butt" stroke-miterlimit="10" stroke-linejoin="miter" fill="none" stroke="#ffffff" d="M-22.67406-11.3368V11.33725L22.67406 34.01088V11.3368ZM22.67406 34.01088"/>
<path transform="matrix(1.00006,0,0,-1.00002,56.746538,52.207826)" d="M22.67406 11.3368V34.01088L49.88289 47.61502V24.94095ZM49.88289 47.61502" fill="#ffe6e6"/>
<path transform="matrix(1.00006,0,0,-1.00002,56.746538,52.207826)" stroke-width=".3985" stroke-linecap="butt" stroke-miterlimit="10" stroke-linejoin="miter" fill="none" stroke="#ffffff" d="M22.67406 11.3368V34.01088L49.88289 47.61502V24.94095ZM49.88289 47.61502"/>
<path transform="matrix(1.00006,0,0,-1.00002,56.746538,52.207826)" stroke-width=".3985" stroke-linecap="butt" stroke-miterlimit="10" stroke-linejoin="miter" fill="none" stroke="#000000" d="M-49.88289-24.94095 56.32875 28.16383"/>
<path transform="matrix(.8944336,-.44717894,-.4471968,-.8943979,113.25687,23.954329)" stroke-width=".3985" stroke-linecap="round" stroke-linejoin="round" fill="none" stroke="#000000" d="M-2.07224 2.39104C-1.69365 .95639-.84999 .27895 0 0-.84999-.27895-1.69365-.95639-2.07224-2.39104"/>
<path transform="matrix(1.00006,0,0,-1.00002,56.746538,52.207826)" stroke-width=".3985" stroke-linecap="butt" stroke-miterlimit="10" stroke-linejoin="miter" fill="none" stroke="#000000" d="M0-22.67406V42.68242"/>
<path transform="matrix(0,-1.00002,-1.00006,-0,56.746538,9.3252949)" stroke-width=".3985" stroke-linecap="round" stroke-linejoin="round" fill="none" stroke="#000000" d="M-2.07224 2.39104C-1.69365 .95639-.84999 .27895 0 0-.84999-.27895-1.69365-.95639-2.07224-2.39104"/>
<use data-text="f" xlink:href="#font_1_1" transform="matrix(5.49973,0,0,-5.4995105,43.046716,13.340046)"/>
<use data-text="(" xlink:href="#font_2_1" transform="matrix(5.49973,0,0,-5.4995105,46.119905,13.340046)"/>
<use data-text="y" xlink:href="#font_1_3" transform="matrix(5.49973,0,0,-5.4995105,48.343034,13.340046)"/>
<use data-text=")" xlink:href="#font_2_2" transform="matrix(5.49973,0,0,-5.4995105,51.42221,13.340046)"/>
<path transform="matrix(1.00006,0,0,-1.00002,56.746538,52.207826)" stroke-width=".3985" stroke-linecap="butt" stroke-miterlimit="10" stroke-linejoin="miter" fill="none" stroke="#ffffff" d="M-22.67406 11.33725V-11.3368"/>
<use data-text="i" xlink:href="#font_2_12" transform="matrix(5.49973,-2.7497552,0,-5.4995105,18.755265,43.77516)"/>
<use data-text="n" xlink:href="#font_2_15" transform="matrix(5.49973,-2.7497552,0,-5.4995105,20.35569,42.974985)"/>
<use data-text="c" xlink:href="#font_2_8" transform="matrix(5.49973,-2.7497552,0,-5.4995105,23.760025,41.27288)"/>
<use data-text="r" xlink:href="#font_2_18" transform="matrix(5.49973,-2.7497552,0,-5.4995105,26.4879,39.909006)"/>
<use data-text="e" xlink:href="#font_2_10" transform="matrix(5.49973,-2.7497552,0,-5.4995105,28.517289,38.89434)"/>
<use data-text="a" xlink:href="#font_2_7" transform="matrix(5.49973,-2.7497552,0,-5.4995105,31.344162,37.480966)"/>
<use data-text="s" xlink:href="#font_2_19" transform="matrix(5.49973,-2.7497552,0,-5.4995105,34.22052,36.042848)"/>
<use data-text="i" xlink:href="#font_2_12" transform="matrix(5.49973,-2.7497552,0,-5.4995105,36.618394,34.843957)"/>
<use data-text="n" xlink:href="#font_2_15" transform="matrix(5.49973,-2.7497552,0,-5.4995105,38.218828,34.04377)"/>
<use data-text="g" xlink:href="#font_2_11" transform="matrix(5.49973,-2.7497552,0,-5.4995105,41.623155,32.341676)"/>
<use data-text="f" xlink:href="#font_1_1" transform="matrix(5.49973,-2.7497552,0,-5.4995105,46.312913,29.996888)"/>
<path transform="matrix(1.00006,0,0,-1.00002,56.746538,52.207826)" stroke-width=".3985" stroke-linecap="butt" stroke-miterlimit="10" stroke-linejoin="miter" fill="none" stroke="#000000" d="M-36.27863-10.20291"/>
<use data-text="n" xlink:href="#font_2_15" transform="matrix(5.49973,-2.7497552,0,-5.4995105,9.953735,62.913545)"/>
<use data-text="e" xlink:href="#font_2_10" transform="matrix(5.49973,-2.7497552,0,-5.4995105,13.358078,61.21144)"/>
<use data-text="g" xlink:href="#font_2_11" transform="matrix(5.49973,-2.7497552,0,-5.4995105,16.184937,59.798074)"/>
<use data-text="a" xlink:href="#font_2_7" transform="matrix(5.49973,-2.7497552,0,-5.4995105,19.0448,58.368196)"/>
<use data-text="t" xlink:href="#font_2_20" transform="matrix(5.49973,-2.7497552,0,-5.4995105,21.915665,56.932817)"/>
<use data-text="i" xlink:href="#font_2_12" transform="matrix(5.49973,-2.7497552,0,-5.4995105,23.807587,55.9869)"/>
<use data-text="v" xlink:href="#font_2_22" transform="matrix(5.49973,-2.7497552,0,-5.4995105,25.408005,55.18672)"/>
<use data-text="e" xlink:href="#font_2_10" transform="matrix(5.49973,-2.7497552,0,-5.4995105,28.152375,53.81459)"/>
<path transform="matrix(1.00006,0,0,-1.00002,56.746538,52.207826)" stroke-width=".3985" stroke-linecap="butt" stroke-miterlimit="10" stroke-linejoin="miter" fill="none" stroke="#000000" d="M-36.27863-15.87141"/>
<use data-text="s" xlink:href="#font_2_19" transform="matrix(5.49973,-2.7497552,0,-5.4995105,12.628891,67.36763)"/>
<use data-text="l" xlink:href="#font_2_14" transform="matrix(5.49973,-2.7497552,0,-5.4995105,15.026779,66.16874)"/>
<use data-text="o" xlink:href="#font_2_16" transform="matrix(5.49973,-2.7497552,0,-5.4995105,16.561203,65.40156)"/>
<use data-text="p" xlink:href="#font_2_17" transform="matrix(5.49973,-2.7497552,0,-5.4995105,19.734543,63.81495)"/>
<use data-text="e" xlink:href="#font_2_10" transform="matrix(5.49973,-2.7497552,0,-5.4995105,23.078385,62.14309)"/>
<use data-text="s" xlink:href="#font_2_19" transform="matrix(5.49973,-2.7497552,0,-5.4995105,25.905243,60.72972)"/>
<path transform="matrix(1.00006,0,0,-1.00002,56.746538,52.207826)" stroke-width=".3985" stroke-linecap="butt" stroke-miterlimit="10" stroke-linejoin="miter" fill="none" stroke="#000000" d="M0 7.93605"/>
<path transform="matrix(1.00006,0,0,-1.00002,56.746538,52.207826)" d="M10.78464 20.643-10.78464 9.85835V2.74298L10.78464 13.52762ZM-10.78464 2.74298" fill="#e6fae6"/>
<use data-text="p" xlink:href="#font_2_17" transform="matrix(5.49973,-2.7497552,0,-5.4995105,46.957948,46.73822)"/>
<use data-text="o" xlink:href="#font_2_16" transform="matrix(5.49973,-2.7497552,0,-5.4995105,50.30179,45.06637)"/>
<use data-text="s" xlink:href="#font_2_19" transform="matrix(5.49973,-2.7497552,0,-5.4995105,53.475145,43.47975)"/>
<use data-text="i" xlink:href="#font_2_12" transform="matrix(5.49973,-2.7497552,0,-5.4995105,55.873018,42.28086)"/>
<use data-text="t" xlink:href="#font_2_20" transform="matrix(5.49973,-2.7497552,0,-5.4995105,57.473436,41.480684)"/>
<use data-text="i" xlink:href="#font_2_12" transform="matrix(5.49973,-2.7497552,0,-5.4995105,59.365358,40.534769)"/>
<use data-text="v" xlink:href="#font_2_22" transform="matrix(5.49973,-2.7497552,0,-5.4995105,60.965776,39.73459)"/>
<use data-text="e" xlink:href="#font_2_10" transform="matrix(5.49973,-2.7497552,0,-5.4995105,63.710145,38.362459)"/>
<path transform="matrix(1.00006,0,0,-1.00002,56.746538,52.207826)" stroke-width=".3985" stroke-linecap="butt" stroke-miterlimit="10" stroke-linejoin="miter" fill="none" stroke="#000000" d="M0 2.26753"/>
<path transform="matrix(1.00006,0,0,-1.00002,56.746538,52.207826)" d="M8.83295 14.20789-8.83295 5.37492V-1.94968L8.83295 6.88327ZM-8.83295-1.94968" fill="#e6fae6"/>
<use data-text="s" xlink:href="#font_2_19" transform="matrix(5.49973,-2.7497552,0,-5.4995105,48.909067,51.431314)"/>
<use data-text="l" xlink:href="#font_2_14" transform="matrix(5.49973,-2.7497552,0,-5.4995105,51.306955,50.23242)"/>
<use data-text="o" xlink:href="#font_2_16" transform="matrix(5.49973,-2.7497552,0,-5.4995105,52.841379,49.46524)"/>
<use data-text="p" xlink:href="#font_2_17" transform="matrix(5.49973,-2.7497552,0,-5.4995105,56.014719,47.87863)"/>
<use data-text="e" xlink:href="#font_2_10" transform="matrix(5.49973,-2.7497552,0,-5.4995105,59.35856,46.20677)"/>
<use data-text="s" xlink:href="#font_2_19" transform="matrix(5.49973,-2.7497552,0,-5.4995105,62.185419,44.793405)"/>
<path transform="matrix(1.00006,0,0,-1.00002,56.746538,52.207826)" stroke-width=".3985" stroke-linecap="butt" stroke-miterlimit="10" stroke-linejoin="miter" fill="none" stroke="#ffffff" d="M22.67406 34.01088V11.3368"/>
<use data-text="d" xlink:href="#font_2_9" transform="matrix(5.49973,-2.7497552,0,-5.4995105,63.549943,21.378708)"/>
<use data-text="e" xlink:href="#font_2_10" transform="matrix(5.49973,-2.7497552,0,-5.4995105,66.838779,19.73436)"/>
<use data-text="c" xlink:href="#font_2_8" transform="matrix(5.49973,-2.7497552,0,-5.4995105,69.665637,18.320984)"/>
<use data-text="r" xlink:href="#font_2_18" transform="matrix(5.49973,-2.7497552,0,-5.4995105,72.39351,16.9571)"/>
<use data-text="e" xlink:href="#font_2_10" transform="matrix(5.49973,-2.7497552,0,-5.4995105,74.428409,15.939697)"/>
<use data-text="a" xlink:href="#font_2_7" transform="matrix(5.49973,-2.7497552,0,-5.4995105,77.255268,14.526321)"/>
<use data-text="s" xlink:href="#font_2_19" transform="matrix(5.49973,-2.7497552,0,-5.4995105,80.13162,13.088196)"/>
<use data-text="i" xlink:href="#font_2_12" transform="matrix(5.49973,-2.7497552,0,-5.4995105,82.52402,11.892052)"/>
<use data-text="n" xlink:href="#font_2_15" transform="matrix(5.49973,-2.7497552,0,-5.4995105,84.124439,11.091873)"/>
<use data-text="g" xlink:href="#font_2_11" transform="matrix(5.49973,-2.7497552,0,-5.4995105,87.52876,9.3897709)"/>
<use data-text="f" xlink:href="#font_1_1" transform="matrix(5.49973,-2.7497552,0,-5.4995105,92.219669,7.0444185)"/>
<path transform="matrix(1.00006,0,0,-1.00002,56.746538,52.207826)" stroke-width=".3985" stroke-linecap="butt" stroke-miterlimit="10" stroke-linejoin="miter" fill="none" stroke="#000000" d="M36.27863 26.07501"/>
<use data-text="n" xlink:href="#font_2_15" transform="matrix(5.49973,-2.7497552,0,-5.4995105,82.51508,26.634816)"/>
<use data-text="e" xlink:href="#font_2_10" transform="matrix(5.49973,-2.7497552,0,-5.4995105,85.919429,24.932713)"/>
<use data-text="g" xlink:href="#font_2_11" transform="matrix(5.49973,-2.7497552,0,-5.4995105,88.746288,23.519345)"/>
<use data-text="a" xlink:href="#font_2_7" transform="matrix(5.49973,-2.7497552,0,-5.4995105,91.60615,22.089467)"/>
<use data-text="t" xlink:href="#font_2_20" transform="matrix(5.49973,-2.7497552,0,-5.4995105,94.47701,20.654088)"/>
<use data-text="i" xlink:href="#font_2_12" transform="matrix(5.49973,-2.7497552,0,-5.4995105,96.368938,19.708172)"/>
<use data-text="v" xlink:href="#font_2_22" transform="matrix(5.49973,-2.7497552,0,-5.4995105,97.96935,18.907994)"/>
<use data-text="e" xlink:href="#font_2_10" transform="matrix(5.49973,-2.7497552,0,-5.4995105,100.71372,17.535862)"/>
<path transform="matrix(1.00006,0,0,-1.00002,56.746538,52.207826)" stroke-width=".3985" stroke-linecap="butt" stroke-miterlimit="10" stroke-linejoin="miter" fill="none" stroke="#000000" d="M36.27863 20.40651"/>
<use data-text="s" xlink:href="#font_2_19" transform="matrix(5.49973,-2.7497552,0,-5.4995105,85.19024,31.088902)"/>
<use data-text="l" xlink:href="#font_2_14" transform="matrix(5.49973,-2.7497552,0,-5.4995105,87.58813,29.89001)"/>
<use data-text="o" xlink:href="#font_2_16" transform="matrix(5.49973,-2.7497552,0,-5.4995105,89.12255,29.12283)"/>
<use data-text="p" xlink:href="#font_2_17" transform="matrix(5.49973,-2.7497552,0,-5.4995105,92.29589,27.53622)"/>
<use data-text="e" xlink:href="#font_2_10" transform="matrix(5.49973,-2.7497552,0,-5.4995105,95.63973,25.86436)"/>
<use data-text="s" xlink:href="#font_2_19" transform="matrix(5.49973,-2.7497552,0,-5.4995105,98.46659,24.450993)"/>
<path transform="matrix(1.00006,0,0,-1.00002,56.746538,52.207826)" stroke-width=".79701" stroke-linecap="butt" stroke-miterlimit="10" stroke-linejoin="miter" fill="none" stroke="#000000" d="M-22.67406-11.3368-22.21632-10.20184-21.7586-9.08519-21.30087-7.98724-20.84314-6.90761-20.3854-5.84634-19.92767-4.80373-19.46994-3.77945-19.0122-2.77388-18.55447-1.78664-18.09676-.8177-17.63902 .13249-17.1813 1.06439-16.72357 1.97758-16.26584 2.87247-15.8081 3.74864-15.35037 4.60649-14.89264 5.44603-14.4349 6.26685-13.97717 7.06934-13.51944 7.85315-13.06172 8.61862-12.604 9.36577-12.14627 10.09422-11.68854 10.80432-11.2308 11.49577-10.77307 12.16887-10.31534 12.82327-9.8576 13.4597-9.39987 14.0771-8.94214 14.67615-8.48442 15.25688-8.02669 15.81926-7.56895 16.36296-7.11122 16.88799-6.6535 17.39465-6.19577 17.88301-5.73804 18.35268-5.2803 18.804-4.82257 19.23697-4.36484 19.65129-3.90712 20.04726-3.44939 20.42455-2.99165 20.7835-2.53392 21.12376-2.07619 21.44568-1.61845 21.74928-1.16074 22.0342-.703 22.30042-.24527 22.54865 .2124 22.77818 .67014 22.98904 1.12785 23.18158 1.58559 23.35577 2.04332 23.51129 2.50105 23.64847 2.95879 23.7673 3.41652 23.86746 3.87425 23.94893 4.33199 24.01207 4.7897 24.05688 5.24744 24.08298 5.70517 24.09077 6.1629 24.08022 6.62062 24.05096 7.07835 24.0034 7.53609 23.93715 7.99382 23.85254 8.45155 23.74927 8.90929 23.62766 9.367 23.48769 9.82474 23.32906 10.28247 23.15208 10.7402 22.95642 11.19794 22.74245 11.65567 22.51012 12.1134 22.2591 12.57112 21.98941 13.02885 21.70172 13.48657 21.395 13.9443 21.0703 14.40204 20.72691 14.85977 20.36519 15.3175 19.98477 15.77524 19.58604 16.23297 19.1686 16.6907 18.73285 17.14844 18.2784 17.60617 17.80595 18.06387 17.31448 18.5216 16.80504 18.97934 16.27655 19.43707 15.73006 19.8948 15.16489 20.35254 14.58105 20.81027 13.97923 21.268 13.35837 21.72574 12.7195 22.18347 12.06195 22.64117 11.38573"/>
<path transform="matrix(1.00006,0,0,-1.00002,56.746538,52.207826)" stroke-width=".79701" stroke-linecap="butt" stroke-dasharray="2.98883,2.98883" stroke-miterlimit="10" stroke-linejoin="miter" fill="none" stroke="#000000" d="M-30.61012-33.9544-30.5302-33.69888-30.45027-33.44408-30.37035-33.1896-30.29044-32.93582-30.21053-32.68275-30.13058-32.43001-30.05067-32.17798-29.97075-31.92627-29.89082-31.67561-29.8109-31.42496-29.73099-31.17532-29.65108-30.92606-29.57114-30.67711-29.49123-30.42921-29.4113-30.18169-29.33138-29.93446-29.25145-29.68797-29.17154-29.44215-29.09161-29.19702-29.01169-28.95226-28.93178-28.70782-28.85185-28.46442-28.77193-28.22102-28.692-27.97865-28.61209-27.73665-28.53217-27.49535-28.45224-27.2547-28.37233-27.01442-28.2924-26.77448-28.21248-26.5356-28.13257-26.29704-28.05264-26.05882-27.97272-25.82132-27.89279-25.58449-27.81288-25.34837-27.73296-25.11258-27.65303-24.8775-27.57312-24.64275-27.4932-24.40869-27.41327-24.17534-27.33336-23.9423-27.25343-23.71-27.1735-23.478-27.0936-23.24673-27.01367-23.01614-26.93375-22.78622-26.85382-22.55667-26.77391-22.32745-26.69398-22.09895-26.61404-21.87112-26.53415-21.64398-26.45422-21.41719-26.3743-21.1911-26.29439-20.96536-26.21445-20.74028-26.13454-20.51591-26.0546-20.2919-25.9747-20.06856-25.89478-19.84595-25.81485-19.62364-25.73494-19.40205-25.655-19.1808-25.57509-18.96022-25.49516-18.74037-25.41525-18.52084-25.33533-18.302-25.2554-18.08388-25.17549-17.86607-25.09555-17.64899-25.01564-17.43222-24.93571-17.2165-24.8558-17.0008-24.77588-16.7861-24.69595-16.57178-24.61604-16.35777-24.5361-16.14449-24.45619-15.9319-24.37627-15.71997-24.29634-15.5084-24.21643-15.29753-24.1365-15.087-24.0566-14.87718-23.97665-14.66801-23.89674-14.45924-23.81682-14.25111-23.7369-14.0437-23.65698-13.83665-23.57706-13.62991-23.49715-13.42426-23.4172-13.2189-23.3373-13.01425-23.25737-12.80997-23.17744-12.60634-23.09753-12.4031-23.01761-12.20085-22.93768-11.99864-22.85776-11.79745-22.77785-11.5966-22.69794-11.39647"/>
<path transform="matrix(1.00006,0,0,-1.00002,56.746538,52.207826)" stroke-width=".79701" stroke-linecap="butt" stroke-dasharray="2.98883,2.98883" stroke-miterlimit="10" stroke-linejoin="miter" fill="none" stroke="#000000" d="M22.67406 11.3368 22.78822 11.1652 22.90239 10.99222 23.01657 10.81819 23.13075 10.64278 23.24493 10.46634 23.3591 10.28885 23.47327 10.10995 23.58745 9.93007 23.70161 9.74911 23.8158 9.56677 23.92996 9.3834 24.04413 9.199 24.15831 9.01357 24.27248 8.82672 24.38666 8.63885 24.50082 8.4496 24.61499 8.25932 24.72917 8.068 24.84334 7.87563 24.95752 7.68188 25.07169 7.48708 25.18585 7.29091 25.30003 7.0937 25.4142 6.89546 25.52838 6.69618 25.64255 6.49551 25.75671 6.2938 25.8709 6.09105 25.98506 5.88693 26.09924 5.68176 26.21342 5.47556 26.32759 5.26796 26.44177 5.05934 26.55594 4.84969 26.67012 4.63861 26.78429 4.42653 26.89845 4.21341 27.01263 3.99892 27.1268 3.78337 27.24098 3.56679 27.35515 3.3488 27.46933 3.12979 27.5835 2.90976 27.69766 2.68832 27.81184 2.46622 27.92601 2.24236 28.04019 2.01782 28.15436 1.7919 28.26852 1.56493 28.3827 1.33658 28.49687 1.1072 28.61105 .87679 28.72522 .64532 28.83939 .41246 28.95357 .17859 29.06773-.05667 29.18192-.29263 29.2961-.52997 29.41026-.76869 29.52444-1.00845 29.63861-1.24925 29.75279-1.49109 29.86696-1.73431 29.98112-1.97859 30.0953-2.22388 30.20947-2.47057 30.32365-2.71829 30.43782-2.96704 30.55199-3.2172 30.66617-3.46837 30.78033-3.72058 30.89452-3.9742 31.00868-4.22885 31.12285-4.48453 31.23703-4.74123 31.3512-4.99933 31.46538-5.25882 31.57954-5.51901 31.69373-5.78056 31.80789-6.04315 31.92206-6.30716 32.03624-6.57216 32.1504-6.83821 32.2646-7.10532 32.37877-7.37381 32.49294-7.64333 32.60712-7.91422 32.72128-8.18617 32.83546-8.45914 32.94963-8.73315 33.0638-9.00854 33.17798-9.28497 33.29214-9.56247 33.40633-9.84132 33.5205-10.12125 33.63466-10.40253 33.74884-10.68448 33.863-10.96783 33.97719-11.25258"/>
</svg>
