<svg xmlns="http://www.w3.org/2000/svg" xmlns:xlink="http://www.w3.org/1999/xlink" version="1.1" width="102" height="43" viewBox="0 0 102 43">
<defs>
<path id="font_1_1" d="M.42799378 .45222474 .43899537 .49023438H.31199647L.34599305 .6092224 .33399964 .6162262 .23699951 .53923037 .22399903 .49023438H.14299011L.13198853 .45222474H.21499634L.125 .08627319C.10998535 .029266358 .12199402-.01171875 .17199707-.01171875 .2519989-.01171875 .31599427 .054275514 .35598756 .1292572L.33399964 .1462555C.31098939 .10726929 .2599945 .040267946 .22898865 .040267946 .20799256 .040267946 .20799256 .0632782 .21398926 .088272098L.30299378 .45222474H.42799378Z"/>
<path id="font_2_3" d="M.07398987 .2861328V.21612549H.31900025V.2861328H.07398987Z"/>
<path id="font_2_7" d="M.12998963 .3657837C.12998963 .3487854 .1349945 .33779908 .147995 .33779908 .1599884 .33779908 .18699646 .34777833 .23498535 .34777833 .31999208 .34777833 .36799623 .27090455 .36799623 .18403626 .36799623 .065216068 .30899049 .023269654 .23799134 .023269654 .17199707 .023269654 .1289978 .07319641 .10998535 .12911988 .10398865 .14808655 .09399414 .15707398 .07998657 .15707398 .06199646 .15707398 .026992798 .13809204 .026992798 .10215759 .026992798 .05921936 .09599304-.01171875 .23699951-.01171875 .38198854-.01171875 .47299195 .06121826 .47299195 .18902588 .47299195 .32281495 .35798646 .3627777 .30299378 .3677826V.3717804C.35699464 .38078309 .44400025 .4207611 .44400025 .5197296 .44400025 .6306915 .35699464 .6796875 .25 .6796875 .117996219 .6796875 .052993776 .60369876 .052993776 .5607147 .052993776 .5297241 .08799744 .51272585 .101989749 .51272585 .114990238 .51272585 .12298584 .5197296 .1269989 .5327301 .14898682 .60069277 .18699646 .64468386 .24299622 .64468386 .32199098 .64468386 .34098817 .57470706 .34098817 .51872256 .34098817 .4587555 .31999208 .38378907 .23498535 .38378907 .18699646 .38378907 .1599884 .39378358 .147995 .39378358 .1349945 .39378358 .12998963 .38378907 .12998963 .3657837Z"/>
<path id="font_2_6" d="M.4850006 .13195801 .45700074 .13696289C.43598939 .08299255 .41600038 .07598877 .37599183 .07598877H.11999512C.13598633 .1279602 .19499207 .19892884 .28799439 .2658844 .38398744 .33584596 .45799256 .38082887 .45799256 .49276734 .45799256 .63168337 .3659973 .6796875 .26098634 .6796875 .12399292 .6796875 .052993776 .5967102 .052993776 .54473879 .052993776 .51075747 .09098816 .49476625 .10798645 .49476625 .12599182 .49476625 .1329956 .50476077 .13699341 .5217438 .15299988 .5897064 .19198609 .64468386 .2539978 .64468386 .33099366 .64468386 .35299684 .5797119 .35299684 .50675967 .35299684 .3998108 .29899598 .33984376 .21199036 .26289369 .08898926 .15594483 .04598999 .08798218 .026992798 .009994507L.036987306 0H.45098878L.4850006 .13195801Z"/>
<path id="font_2_5" d="M.43699647 0V.0289917L.35299684 .035995485C.33198548 .037994386 .31999208 .04598999 .31999208 .08496094V.67367556L.31498719 .6796875 .10899353 .6446991V.6197052L.20199585 .6087036C.21899414 .6067047 .22599793 .5987091 .22599793 .56973269V.08496094C.22599793 .065979007 .22299195 .053985597 .21699524 .04698181 .21199036 .039993287 .20399475 .036987306 .19299317 .035995485L.10899353 .0289917V0H.43699647Z"/>
<path id="font_1_2" d="M.5329895 .48995973C.5039978 .388031 .48799134 .33506776 .46199037 .2741089 .41799928 .173172 .33099366 .040267946 .24798584 .040267946 .21598816 .040267946 .20799256 .070251468 .22299195 .12820435L.31900025 .4970703 .31399537 .50205996 .13198853 .47375489 .12599182 .4497528 .18798828 .44476319C.21199036 .44276429 .21099854 .42778016 .20298767 .39682008L.13398743 .13316345C.11299133 .053253175 .12098694-.01171875 .20098877-.01171875 .29699708-.01171875 .4019928 .09420776 .46199037 .21005249H.46398927L.43099977 .096206668C.4119873 .029266358 .42399598-.01171875 .47698976-.01171875 .548996-.01171875 .60899356 .057250978 .6439972 .13116455L.6199951 .14613343C.59999087 .11218262 .55599978 .040267946 .5279999 .040267946 .5069885 .040267946 .5069885 .06324768 .5149994 .09420776L.621994 .5019531 .5329895 .48995973Z"/>
<path id="font_2_1" d="M.1749878 .2822113C.1749878 .56832888 .2619934 .65437319 .32499696 .66737368V.6923828C.1499939 .685379 .10499573 .46829225 .10499573 .2822113 .10499573 .09614563 .1499939-.12094116 .32499696-.12792969V-.10293579C.2669983-.090927127 .1749878-.0059051516 .1749878 .2822113Z"/>
<path id="font_2_2" d="M.1749878 .2822113C.1749878-.0059051516 .08299255-.090927127 .024993897-.10293579V-.12792969C.19999695-.12094116 .24499512 .09614563 .24499512 .2822113 .24499512 .46829225 .19999695 .685379 .024993897 .6923828V.66737368C.08799744 .65437319 .1749878 .56832888 .1749878 .2822113Z"/>
<path id="font_3_1" d="M.6349945 .14315796V.20117188H.084991458V.14315796H.6349945M.6349945 .36288453V.42089845H.084991458V.36288453H.6349945Z"/>
<path id="font_2_4" d="M.2649994 .64468386C.3600006 .64468386 .3869934 .49682618 .3869934 .33398438 .3869934 .17112732 .3600006 .023269654 .2649994 .023269654 .16999817 .023269654 .14299011 .17112732 .14299011 .33398438 .14299011 .49682618 .16999817 .64468386 .2649994 .64468386M.2649994 .6796875C.099990848 .6796875 .040985109 .53378298 .040985109 .33398438 .040985109 .13417053 .099990848-.01171875 .2649994-.01171875 .42999269-.01171875 .4889984 .13417053 .4889984 .33398438 .4889984 .53378298 .42999269 .6796875 .2649994 .6796875Z"/>
<path id="font_2_10" d="M.3809967 .6720276C.5589905 .6720276 .59999087 .4931183 .60198977 .3461914 .59999087 .19924927 .5589905 .020339966 .3809967 .020339966 .20298767 .020339966 .1619873 .19924927 .1599884 .3461914 .1619873 .4931183 .20298767 .6720276 .3809967 .6720276M.3809967 .70703127C.2709961 .70703127 .18899536 .6730194 .1329956 .61006167 .07899475 .55007937 .04798889 .4591217 .04798889 .3461914 .04798889 .23423767 .07899475 .14228821 .1329956 .08232117 .18899536 .019348145 .2709961-.0146484379 .3809967-.0146484379 .49198915-.0146484379 .57299807 .019348145 .6289978 .08232117 .6839905 .14228821 .71398928 .23423767 .71398928 .3461914 .71398928 .4591217 .6839905 .55007937 .6289978 .61006167 .57299807 .6730194 .49198915 .70703127 .3809967 .70703127Z"/>
<path id="font_2_8" d="M.034988405 .6923828V.66337588C.12298584 .6573639 .125 .655365 .125 .5993347V.093048099C.125 .037002565 .12298584 .035003663 .034988405 .0289917V0H.32998658V.0289917C.22698975 .035003663 .22399903 .037002565 .22399903 .093048099V.32722474H.3639984C.44898988 .32722474 .45298768 .3032074 .46199037 .23916626H.49198915V.4532776H.46199037C.45298768 .38923646 .44898988 .36523438 .3639984 .36523438H.22399903V.62135317C.22399903 .65437319 .22799683 .65737918 .26098634 .65737918H.3600006C.47599793 .65737918 .49899293 .6343689 .5130005 .5323181H.54299929V.6923828H.034988405Z"/>
<path id="font_2_9" d="M.033996583 .6923828V.66337588C.12199402 .6573639 .12399292 .655365 .12399292 .5993347V.20309448C.12399292 .15007019 .12199402 .11204529 .116989139 .07902527 .11099243 .037002565 .08699036 .032989503 .034988405 .0289917V0H.27198792V.0289917C.20698548 .033996583 .18299866 .037002565 .1769867 .07902527 .17199707 .11204529 .16999817 .15007019 .16999817 .20309448V.6023407H.17199707C.31498719 .4012146 .45700074 .20109558 .59799197 0H.6639862V.48927308C.6639862 .54229739 .66600039 .58032229 .67099 .6133423 .6769867 .655365 .70098879 .6593628 .7529907 .66337588V.6923828H.5159912V.66337588C.58099368 .658371 .6049957 .655365 .61099246 .6133423 .6159973 .58032229 .6179962 .54229739 .6179962 .48927308V.13806153L.6159973 .14006043C.4850006 .32417298 .35499574 .5082855 .22599793 .6923828H.033996583Z"/>
</defs>
<path transform="matrix(1.00006,0,0,-1.00008,51.10002,27.312905)" d="M-49.6069-14.17339V25.51215H0V-14.17339ZM0 25.51215" fill="#d9d9ff"/>
<path transform="matrix(1.00006,0,0,-1.00008,51.10002,27.312905)" d="M0-14.17339V25.51215H49.6069V-14.17339ZM49.6069 25.51215" fill="#d9f0d9"/>
<path transform="matrix(1.00006,0,0,-1.00008,51.10002,27.312905)" stroke-width=".3985" stroke-linecap="butt" stroke-miterlimit="10" stroke-linejoin="miter" fill="none" stroke="#000000" d="M-49.6069 0H49.2084"/>
<path transform="matrix(1.00006,0,0,-1.00008,100.510639,27.312905)" stroke-width=".3985" stroke-linecap="round" stroke-linejoin="round" fill="none" stroke="#000000" d="M-2.07224 2.39104C-1.69365 .95639-.84999 .27895 0 0-.84999-.27895-1.69365-.95639-2.07224-2.39104"/>
<path transform="matrix(1.00006,0,0,-1.00008,51.10002,27.312905)" stroke-width=".3985" stroke-linecap="butt" stroke-miterlimit="10" stroke-linejoin="miter" fill="none" stroke="#000000" d="M0-14.17339V25.11365"/>
<path transform="matrix(0,-1.00008,-1.00006,-0,51.10002,1.9979782)" stroke-width=".3985" stroke-linecap="round" stroke-linejoin="round" fill="none" stroke="#000000" d="M-2.07224 2.39104C-1.69365 .95639-.84999 .27895 0 0-.84999-.27895-1.69365-.95639-2.07224-2.39104"/>
<use data-text="t" xlink:href="#font_1_1" transform="matrix(7.3329398,0,0,-7.3330867,97.73082,35.231538)"/>
<path transform="matrix(1.00006,0,0,-1.00008,51.10002,27.312905)" stroke-width=".3985" stroke-linecap="butt" stroke-miterlimit="10" stroke-linejoin="miter" fill="none" stroke="#929292" d="M-42.5202 1.4174V-1.4174"/>
<use data-text="-" xlink:href="#font_2_3" transform="matrix(7.3329398,0,0,-7.3330867,5.193268,35.622568)"/>
<use data-text="3" xlink:href="#font_2_7" transform="matrix(7.3329398,0,0,-7.3330867,8.067787,35.622568)"/>
<path transform="matrix(1.00006,0,0,-1.00008,51.10002,27.312905)" stroke-width=".3985" stroke-linecap="butt" stroke-miterlimit="10" stroke-linejoin="miter" fill="none" stroke="#929292" d="M-28.3468 1.4174V-1.4174"/>
<use data-text="-" xlink:href="#font_2_3" transform="matrix(7.3329398,0,0,-7.3330867,19.368119,35.622568)"/>
<use data-text="2" xlink:href="#font_2_6" transform="matrix(7.3329398,0,0,-7.3330867,22.242638,35.622568)"/>
<path transform="matrix(1.00006,0,0,-1.00008,51.10002,27.312905)" stroke-width=".3985" stroke-linecap="butt" stroke-miterlimit="10" stroke-linejoin="miter" fill="none" stroke="#929292" d="M-14.17339 1.4174V-1.4174"/>
<use data-text="-" xlink:href="#font_2_3" transform="matrix(7.3329398,0,0,-7.3330867,33.54197,35.622568)"/>
<use data-text="1" xlink:href="#font_2_5" transform="matrix(7.3329398,0,0,-7.3330867,36.41649,35.622568)"/>
<path transform="matrix(1.00006,0,0,-1.00008,51.10002,27.312905)" stroke-width=".3985" stroke-linecap="butt" stroke-miterlimit="10" stroke-linejoin="miter" fill="none" stroke="#929292" d="M14.17339 1.4174V-1.4174"/>
<use data-text="1" xlink:href="#font_2_5" transform="matrix(7.3329398,0,0,-7.3330867,63.329755,35.622568)"/>
<path transform="matrix(1.00006,0,0,-1.00008,51.10002,27.312905)" stroke-width=".3985" stroke-linecap="butt" stroke-miterlimit="10" stroke-linejoin="miter" fill="none" stroke="#929292" d="M28.3468 1.4174V-1.4174"/>
<use data-text="2" xlink:href="#font_2_6" transform="matrix(7.3329398,0,0,-7.3330867,77.5036,35.622568)"/>
<path transform="matrix(1.00006,0,0,-1.00008,51.10002,27.312905)" stroke-width=".3985" stroke-linecap="butt" stroke-miterlimit="10" stroke-linejoin="miter" fill="none" stroke="#929292" d="M42.5202 1.4174V-1.4174"/>
<use data-text="3" xlink:href="#font_2_7" transform="matrix(7.3329398,0,0,-7.3330867,91.67746,35.622568)"/>
<path transform="matrix(1.00006,0,0,-1.00008,51.10002,27.312905)" stroke-width=".3985" stroke-linecap="butt" stroke-miterlimit="10" stroke-linejoin="miter" fill="none" stroke="#929292" d="M1.4174 14.17339H-1.4174"/>
<use data-text="1" xlink:href="#font_2_5" transform="matrix(7.3329398,0,0,-7.3330867,45.22867,15.592967)"/>
<path transform="matrix(1.00006,0,0,-1.00008,51.10002,27.312905)" stroke-width="1.19553" stroke-linecap="butt" stroke-miterlimit="10" stroke-linejoin="miter" fill="none" stroke="#0000ff" d="M-48.41139 0H-49.11446-48.62201-48.12956-47.63713-47.14468-46.65224-46.15979-45.66734-45.17491-44.68245-44.19002-43.69756-43.20512-42.71268-42.22023-41.7278-41.23534-40.7429-40.25046-39.75801-39.26556-38.77313-38.28067-37.78824-37.29579-36.80334-36.31091-35.81845-35.32602-34.83356-34.34113-33.84868-33.35623-32.8638-32.37134-31.8789-31.38646-30.89401-30.40157-29.90912-29.41667-28.92424-28.43178-27.93935-27.4469-26.95445-26.46202-25.96956-25.47713-24.98466-24.49223-23.99979-23.50734-23.01491-22.52245-22.03001-21.53757-21.04512-20.55267-20.06024-19.56778-19.07535-18.58289-18.09045-17.59802-17.10556-16.61313-16.12067-15.62823-15.13579-14.64334-14.1509-13.65845-13.16602-12.67357-12.18112-11.68867-11.19623-10.70378-10.21135-9.71889-9.22646-8.73401-8.24156-7.74913-7.25667-6.76424-6.27177-5.77934-5.2869-4.79445-4.302-3.80956-3.31712-2.82468-2.33223-1.83978-1.34735-.85489"/>
<path transform="matrix(-1.00006,-0,0,1.00008,2.087925,27.312905)" stroke-width="1.19553" stroke-linecap="round" stroke-linejoin="round" fill="none" stroke="#0000ff" d="M-3.02867 3.83081C-2.47534 1.53229-1.24231 .44691 0 0-1.24231-.44691-2.47534-1.53229-3.02867-3.83081"/>
<path transform="matrix(1.00006,0,0,-1.00008,51.10002,27.312905)" stroke-width="1.19553" stroke-linecap="butt" stroke-miterlimit="10" stroke-linejoin="miter" fill="none" stroke="#009900" d="M0 14.17339H.50087 1.00174 1.50261 2.00351 2.50438 3.00525 3.50613 4.00702 4.50789 5.00877 5.50966 6.01053 6.51141 7.01228 7.51317 8.01405 8.51492 9.0158 9.5167 10.01756 10.51843 11.01933 11.5202 12.02107 12.52196 13.02284 13.52371 14.0246 14.52548 15.02635 15.52724 16.0281 16.52899 17.02988 17.53075 18.03162 18.53252 19.03339 19.53426 20.03516 20.53603 21.0369 21.53778 22.03867 22.53954 23.04042 23.5413 24.04218 24.54306 25.04393 25.54482 26.0457 26.54657 27.04744 27.54834 28.04921 28.55008 29.05098 29.55185 30.05272 30.5536 31.05449 31.55536 32.05624 32.55713 33.058 33.55888 34.05975 34.56064 35.06152 35.5624 36.06326 36.56416 37.06503 37.5659 38.06679 38.56767 39.06854 39.56941 40.07031 40.57118 41.07205 41.57294 42.07382 42.57469 43.07558 43.57646 44.07733 44.57822 45.07909 45.57997 46.08086 46.58173 47.08261 47.5835 48.08437 48.58524 49.08614 48.3915"/>
<path transform="matrix(1.00006,0,0,-1.00008,100.09219,13.13838)" stroke-width="1.19553" stroke-linecap="round" stroke-linejoin="round" fill="none" stroke="#009900" d="M-3.02867 3.83081C-2.47534 1.53229-1.24231 .44691 0 0-1.24231-.44691-2.47534-1.53229-3.02867-3.83081"/>
<path transform="matrix(1.00006,0,0,-1.00008,51.10002,27.312905)" stroke-width=".79701" stroke-linecap="butt" stroke-miterlimit="10" stroke-linejoin="miter" fill="none" stroke="#0000ff" d="M1.49442 0C1.49442 .82533 .82533 1.49442 0 1.49442-.82533 1.49442-1.49442 .82533-1.49442 0-1.49442-.82533-.82533-1.49442 0-1.49442 .82533-1.49442 1.49442-.82533 1.49442 0ZM0 0"/>
<path transform="matrix(1.00006,0,0,-1.00008,51.10002,27.312905)" d="M1.49442 14.17339C1.49442 14.99873 .82533 15.6678 0 15.6678-.82533 15.6678-1.49442 14.99873-1.49442 14.17339-1.49442 13.34804-.82533 12.67897 0 12.67897 .82533 12.67897 1.49442 13.34804 1.49442 14.17339ZM0 14.17339" fill="#009900"/>
<use data-text="u" xlink:href="#font_1_2" transform="matrix(7.3329398,0,0,-7.3330867,13.592773,22.985558)" fill="#0000ff"/>
<use data-text="(" xlink:href="#font_2_1" transform="matrix(7.3329398,0,0,-7.3330867,18.52707,22.985558)" fill="#0000ff"/>
<use data-text="t" xlink:href="#font_1_1" transform="matrix(7.3329398,0,0,-7.3330867,21.253235,22.985558)" fill="#0000ff"/>
<use data-text=")" xlink:href="#font_2_2" transform="matrix(7.3329398,0,0,-7.3330867,24.536423,22.985558)" fill="#0000ff"/>
<use data-text="=" xlink:href="#font_3_1" transform="matrix(7.3329398,0,0,-7.3330867,28.46666,22.985558)" fill="#0000ff"/>
<use data-text="0" xlink:href="#font_2_4" transform="matrix(7.3329398,0,0,-7.3330867,35.107057,22.985558)" fill="#0000ff"/>
<use data-text="u" xlink:href="#font_1_2" transform="matrix(7.3329398,0,0,-7.3330867,63.202749,10.386551)" fill="#009900"/>
<use data-text="(" xlink:href="#font_2_1" transform="matrix(7.3329398,0,0,-7.3330867,68.13704,10.386551)" fill="#009900"/>
<use data-text="t" xlink:href="#font_1_1" transform="matrix(7.3329398,0,0,-7.3330867,70.863208,10.386551)" fill="#009900"/>
<use data-text=")" xlink:href="#font_2_2" transform="matrix(7.3329398,0,0,-7.3330867,74.14639,10.386551)" fill="#009900"/>
<use data-text="=" xlink:href="#font_3_1" transform="matrix(7.3329398,0,0,-7.3330867,78.07663,10.386551)" fill="#009900"/>
<use data-text="1" xlink:href="#font_2_5" transform="matrix(7.3329398,0,0,-7.3330867,84.717029,10.386551)" fill="#009900"/>
<use data-text="O" xlink:href="#font_2_10" transform="matrix(7.3329398,0,0,-7.3330867,19.24511,10.386551)" fill="#0000ff"/>
<use data-text="F" xlink:href="#font_2_8" transform="matrix(7.3329398,0,0,-7.3330867,24.83281,10.386551)" fill="#0000ff"/>
<use data-text="F" xlink:href="#font_2_8" transform="matrix(7.3329398,0,0,-7.3330867,29.085923,10.386551)" fill="#0000ff"/>
<use data-text="O" xlink:href="#font_2_10" transform="matrix(7.3329398,0,0,-7.3330867,70.25017,23.76662)" fill="#009900"/>
<use data-text="N" xlink:href="#font_2_9" transform="matrix(7.3329398,0,0,-7.3330867,75.83787,23.76662)" fill="#009900"/>
</svg>
