<svg xmlns="http://www.w3.org/2000/svg" xmlns:xlink="http://www.w3.org/1999/xlink" version="1.1" width="173" height="93" viewBox="0 0 173 93">
<defs>
<path id="font_1_1" d="M.42799378 .45222474 .43899537 .49023438H.31199647L.34599305 .6092224 .33399964 .6162262 .23699951 .53923037 .22399903 .49023438H.14299011L.13198853 .45222474H.21499634L.125 .08627319C.10998535 .029266358 .12199402-.01171875 .17199707-.01171875 .2519989-.01171875 .31599427 .054275514 .35598756 .1292572L.33399964 .1462555C.31098939 .10726929 .2599945 .040267946 .22898865 .040267946 .20799256 .040267946 .20799256 .0632782 .21398926 .088272098L.30299378 .45222474H.42799378Z"/>
<path id="font_1_2" d="M.070999149 .45393373 .07398987 .42893983 .14199829 .43093873C.1639862 .43193055 .16899109 .41493226 .1769867 .36291505 .18798828 .28489686 .20999146 .09286499 .20999146 .0128479 .20999146-.017166138 .20799256-.058166505 .18598938-.11117554 .16799927-.15318299 .14199829-.18218994 .12199402-.18218994 .10699463-.18218994 .09599304-.17118836 .08099365-.15118408 .068984989-.13517761 .06098938-.127182 .04598999-.127182 .019989014-.12818909-.005004883-.15818787-.005004883-.18719483-.005004883-.21418762 .023986817-.2421875 .067993167-.2421875 .15299988-.2421875 .18998719-.17919922 .27799989-.027160645 .2979889 .0068511965 .35798646 .11286926 .41999818 .21488953 .47698976 .30891419 .5399933 .40592958 .5399933 .4459381 .5399933 .48094178 .5289917 .5019531 .5219879 .5019531 .5029907 .5019531 .46899415 .49394227 .44400025 .47694398 .44499208 .4419403 .44299317 .3809204 .43099977 .33891297 .4149933 .28289796 .35598756 .17488098 .2899933 .06085205H.2869873C.27999879 .21388245 .26098634 .42492677 .24699402 .49795533L.23899842 .5019531 .070999149 .45393373Z"/>
</defs>
<path transform="matrix(1.00002,0,0,-1.00003,3.9575043,89.4733)" stroke-width=".3985" stroke-linecap="butt" stroke-miterlimit="10" stroke-linejoin="miter" fill="none" stroke="#cbcbcb" d="M33.40846 0V87.67284M66.81694 0V87.67284M100.22542 0V87.67284M133.6339 0V87.67284M167.04238 0V87.67284"/>
<path transform="matrix(1.00002,0,0,-1.00003,3.9575043,89.4733)" stroke-width=".3985" stroke-linecap="butt" stroke-miterlimit="10" stroke-linejoin="miter" fill="none" stroke="#cbcbcb" d="M0 17.53456H167.04238M0 35.06914H167.04238M0 52.6037H167.04238M0 70.13828H167.04238M0 87.67284H167.04238"/>
<path transform="matrix(1.00002,0,0,-1.00003,3.9575043,89.4733)" stroke-width=".19925" stroke-linecap="butt" stroke-miterlimit="10" stroke-linejoin="miter" fill="none" stroke="#929292" d="M33.40846-2.12582V2.12582M66.81694-2.12582V2.12582M100.22542-2.12582V2.12582M133.6339-2.12582V2.12582M167.04238-2.12582V2.12582"/>
<path transform="matrix(1.00002,0,0,-1.00003,3.9575043,89.4733)" stroke-width=".19925" stroke-linecap="butt" stroke-miterlimit="10" stroke-linejoin="miter" fill="none" stroke="#929292" d="M-2.12633 17.53456H2.12633M-2.12633 35.06914H2.12633M-2.12633 52.6037H2.12633M-2.12633 70.13828H2.12633M-2.12633 87.67284H2.12633"/>
<path transform="matrix(1.00002,0,0,-1.00003,3.9575043,89.4733)" stroke-width=".99628" stroke-linecap="butt" stroke-miterlimit="10" stroke-linejoin="miter" fill="none" stroke="#000000" d="M0 0H164.15316"/>
<path transform="matrix(1.00002,0,0,-1.00003,168.11394,89.4733)" d="M2.8892 0-1.73352 2.31136 0 0-1.73352-2.31136"/>
<path transform="matrix(1.00002,0,0,-1.00003,3.9575043,89.4733)" stroke-width=".99628" stroke-linecap="butt" stroke-miterlimit="10" stroke-linejoin="miter" fill="none" stroke="#000000" d="M0 0V84.78363"/>
<path transform="matrix(0,-1.00003,-1.00002,-0,3.9575043,4.6871187)" d="M2.8892 0-1.73352 2.31136 0 0-1.73352-2.31136"/>
<path transform="matrix(1.00002,0,0,-1.00003,3.9575043,89.4733)" d="M30.20879-9.02333H36.60814V-2.6239796H30.20879Z" fill="#ffffff"/>
<path transform="matrix(1.00002,0,0,-1.00003,3.9575043,89.4733)" d="M63.61726-9.02333H70.01661V-2.6239796H63.61726Z" fill="#ffffff"/>
<path transform="matrix(1.00002,0,0,-1.00003,3.9575043,89.4733)" d="M97.02574-9.02333H103.425098V-2.6239796H97.02574Z" fill="#ffffff"/>
<path transform="matrix(1.00002,0,0,-1.00003,3.9575043,89.4733)" d="M130.43422-9.02333H136.83358V-2.6239796H130.43422Z" fill="#ffffff"/>
<path transform="matrix(1.00002,0,0,-1.00003,3.9575043,89.4733)" d="M163.84268-9.02333H170.24204V-2.6239796H163.84268Z" fill="#ffffff"/>
<path transform="matrix(1.00002,0,0,-1.00003,3.9575043,89.4733)" d="M-8.06377 14.33488H-1.6644201V20.73423H-8.06377Z" fill="#ffffff"/>
<path transform="matrix(1.00002,0,0,-1.00003,3.9575043,89.4733)" d="M-8.06377 31.86945H-1.6644201V38.2688H-8.06377Z" fill="#ffffff"/>
<path transform="matrix(1.00002,0,0,-1.00003,3.9575043,89.4733)" d="M-8.06377 49.40402H-1.6644201V55.803369H-8.06377Z" fill="#ffffff"/>
<path transform="matrix(1.00002,0,0,-1.00003,3.9575043,89.4733)" d="M-8.06377 66.93858H-1.6644201V73.33794H-8.06377Z" fill="#ffffff"/>
<path transform="matrix(1.00002,0,0,-1.00003,3.9575043,89.4733)" d="M-8.06377 84.47316H-1.6644201V90.87251H-8.06377Z" fill="#ffffff"/>
<use data-text="t" xlink:href="#font_1_1" transform="matrix(10.036601,0,0,-10.036701,162.81069,85.68819)"/>
<use data-text="y" xlink:href="#font_1_2" transform="matrix(10.036601,0,0,-10.036701,8.200584,10.459923)"/>
</svg>
