<svg xmlns="http://www.w3.org/2000/svg" xmlns:xlink="http://www.w3.org/1999/xlink" version="1.1" width="97" height="59" viewBox="0 0 97 59">
<defs>
<path id="font_1_1" d="M.42799378 .45222474 .43899537 .49023438H.31199647L.34599305 .6092224 .33399964 .6162262 .23699951 .53923037 .22399903 .49023438H.14299011L.13198853 .45222474H.21499634L.125 .08627319C.10998535 .029266358 .12199402-.01171875 .17199707-.01171875 .2519989-.01171875 .31599427 .054275514 .35598756 .1292572L.33399964 .1462555C.31098939 .10726929 .2599945 .040267946 .22898865 .040267946 .20799256 .040267946 .20799256 .0632782 .21398926 .088272098L.30299378 .45222474H.42799378Z"/>
<path id="font_2_3" d="M.07398987 .2861328V.21612549H.31900025V.2861328H.07398987Z"/>
<path id="font_2_6" d="M.4850006 .13195801 .45700074 .13696289C.43598939 .08299255 .41600038 .07598877 .37599183 .07598877H.11999512C.13598633 .1279602 .19499207 .19892884 .28799439 .2658844 .38398744 .33584596 .45799256 .38082887 .45799256 .49276734 .45799256 .63168337 .3659973 .6796875 .26098634 .6796875 .12399292 .6796875 .052993776 .5967102 .052993776 .54473879 .052993776 .51075747 .09098816 .49476625 .10798645 .49476625 .12599182 .49476625 .1329956 .50476077 .13699341 .5217438 .15299988 .5897064 .19198609 .64468386 .2539978 .64468386 .33099366 .64468386 .35299684 .5797119 .35299684 .50675967 .35299684 .3998108 .29899598 .33984376 .21199036 .26289369 .08898926 .15594483 .04598999 .08798218 .026992798 .009994507L.036987306 0H.45098878L.4850006 .13195801Z"/>
<path id="font_2_5" d="M.43699647 0V.0289917L.35299684 .035995485C.33198548 .037994386 .31999208 .04598999 .31999208 .08496094V.67367556L.31498719 .6796875 .10899353 .6446991V.6197052L.20199585 .6087036C.21899414 .6067047 .22599793 .5987091 .22599793 .56973269V.08496094C.22599793 .065979007 .22299195 .053985597 .21699524 .04698181 .21199036 .039993287 .20399475 .036987306 .19299317 .035995485L.10899353 .0289917V0H.43699647Z"/>
<path id="font_1_2" d="M.5329895 .48995973C.5039978 .388031 .48799134 .33506776 .46199037 .2741089 .41799928 .173172 .33099366 .040267946 .24798584 .040267946 .21598816 .040267946 .20799256 .070251468 .22299195 .12820435L.31900025 .4970703 .31399537 .50205996 .13198853 .47375489 .12599182 .4497528 .18798828 .44476319C.21199036 .44276429 .21099854 .42778016 .20298767 .39682008L.13398743 .13316345C.11299133 .053253175 .12098694-.01171875 .20098877-.01171875 .29699708-.01171875 .4019928 .09420776 .46199037 .21005249H.46398927L.43099977 .096206668C.4119873 .029266358 .42399598-.01171875 .47698976-.01171875 .548996-.01171875 .60899356 .057250978 .6439972 .13116455L.6199951 .14613343C.59999087 .11218262 .55599978 .040267946 .5279999 .040267946 .5069885 .040267946 .5069885 .06324768 .5149994 .09420776L.621994 .5019531 .5329895 .48995973Z"/>
<path id="font_2_1" d="M.1749878 .2822113C.1749878 .56832888 .2619934 .65437319 .32499696 .66737368V.6923828C.1499939 .685379 .10499573 .46829225 .10499573 .2822113 .10499573 .09614563 .1499939-.12094116 .32499696-.12792969V-.10293579C.2669983-.090927127 .1749878-.0059051516 .1749878 .2822113Z"/>
<path id="font_2_2" d="M.1749878 .2822113C.1749878-.0059051516 .08299255-.090927127 .024993897-.10293579V-.12792969C.19999695-.12094116 .24499512 .09614563 .24499512 .2822113 .24499512 .46829225 .19999695 .685379 .024993897 .6923828V.66737368C.08799744 .65437319 .1749878 .56832888 .1749878 .2822113Z"/>
<path id="font_3_1" d="M.6349945 .14315796V.20117188H.084991458V.14315796H.6349945M.6349945 .36288453V.42089845H.084991458V.36288453H.6349945Z"/>
<path id="font_2_4" d="M.2649994 .64468386C.3600006 .64468386 .3869934 .49682618 .3869934 .33398438 .3869934 .17112732 .3600006 .023269654 .2649994 .023269654 .16999817 .023269654 .14299011 .17112732 .14299011 .33398438 .14299011 .49682618 .16999817 .64468386 .2649994 .64468386M.2649994 .6796875C.099990848 .6796875 .040985109 .53378298 .040985109 .33398438 .040985109 .13417053 .099990848-.01171875 .2649994-.01171875 .42999269-.01171875 .4889984 .13417053 .4889984 .33398438 .4889984 .53378298 .42999269 .6796875 .2649994 .6796875Z"/>
<path id="font_2_10" d="M.18998719 .7480469C.13999939 .7020416 .07199097 .6350403 .07199097 .56404116 .07199097 .5100403 .10398865 .47703553 .13699341 .4780426 .16699219 .4780426 .18499756 .4990387 .18499756 .5260315 .18499756 .56204226 .1519928 .58303835 .1519928 .6200409 .1519928 .6580353 .17599488 .6960449 .20698548 .7320404L.18998719 .7480469M.36999513 .7480469C.31999208 .7020416 .2519989 .6350403 .2519989 .56404116 .2519989 .5100403 .28399659 .47703553 .31698609 .4780426 .34700013 .4780426 .36499024 .4990387 .36499024 .5260315 .36499024 .56204226 .33198548 .58303835 .33198548 .6200409 .33198548 .6580353 .35598756 .6960449 .3869934 .7320404L.36999513 .7480469Z"/>
<path id="font_2_9" d="M.28799439 .5019531C.12799073 .5019531 .04899597 .40698243 .04899597 .24510193 .04899597 .083236698 .12799073-.01171875 .28799439-.01171875 .44999696-.01171875 .5279999 .083236698 .5279999 .24510193 .5279999 .40698243 .44999696 .5019531 .28799439 .5019531M.15299988 .24510193C.15299988 .38301087 .19699097 .46694947 .28799439 .46694947 .3809967 .46694947 .42399598 .38301087 .42399598 .24510193 .42399598 .10720825 .3809967 .023269654 .28799439 .023269654 .19699097 .023269654 .15299988 .10720825 .15299988 .24510193Z"/>
<path id="font_2_7" d="M.20098877 .45022584H.32299806V.49023438H.20098877L.19699097 .60220339C.19400025 .6971741 .22898865 .70718386 .24499512 .70718386 .2659912 .70718386 .28799439 .6971741 .31298829 .6391907 .31799317 .62919619 .32499696 .6221924 .33999635 .6221924 .3600006 .6221924 .3889923 .6391907 .3889923 .66918948 .3889923 .70217898 .34700013 .7421875 .2669983 .7421875 .21199036 .7421875 .16499329 .71717837 .13999939 .67918398 .116989139 .64419558 .10699463 .5912018 .10699463 .5252228V.49023438H.02999878V.45022584H.10699463V.087020877C.10699463 .035995485 .10398865 .033996583 .03199768 .0289917V0H.29599V.0289917C.20498657 .032989503 .20098877 .034988405 .20098877 .08602905V.45022584Z"/>
<path id="font_2_11" d="M.08898926 .47218324C.13899231 .5181732 .20698548 .58517459 .20698548 .6561737 .20698548 .71017459 .1749878 .7431793 .14199829 .7421875 .11199951 .7421875 .09399414 .72117617 .09399414 .69418337 .09399414 .6581726 .1269989 .6371765 .1269989 .60017397 .1269989 .56217959 .102996829 .5241852 .07199097 .48817445L.08898926 .47218324M.2689972 .47218324C.31900025 .5181732 .3869934 .58517459 .3869934 .6561737 .3869934 .71017459 .35499574 .7431793 .32199098 .7421875 .2919922 .7421875 .27398683 .72117617 .27398683 .69418337 .27398683 .6581726 .30699159 .6371765 .30699159 .60017397 .30699159 .56217959 .2829895 .5241852 .2519989 .48817445L.2689972 .47218324Z"/>
<path id="font_2_8" d="M.5289917 .34295655C.5289917 .4439392 .47399903 .5019531 .38198854 .5019531 .30799867 .5019531 .2619934 .46594239 .19999695 .4259491L.18598938 .5019531 .036987306 .47694398V.45195008L.07499695 .4469452C.100997928 .4429474 .10699463 .4379425 .10699463 .40194703V.08699036C.10699463 .035995485 .10398865 .033996583 .03199768 .0289917V0H.27598573V.0289917C.20498657 .033996583 .20098877 .035995485 .20098877 .08699036V.32095338C.20098877 .34596253 .20298767 .35995484 .21099854 .37594605 .23199463 .4149475 .2769928 .44795228 .32998658 .44795228 .397995 .44795228 .43499757 .40994264 .43499757 .32295228V.08699036C.43499757 .035995485 .43199159 .033996583 .3600006 .0289917V0H.60398867V.0289917C.5329895 .033996583 .5289917 .035995485 .5289917 .08699036V.34295655Z"/>
</defs>
<path transform="matrix(1.00005,0,0,-1.00005,47.55667,34.966096)" d="M-46.06311-22.11023V33.1655H0V-22.11023ZM0 33.1655" fill="#d9d9ff"/>
<path transform="matrix(1.00005,0,0,-1.00005,47.55667,34.966096)" d="M0-22.11023V33.1655H46.06311V-22.11023ZM46.06311 33.1655" fill="#d9f0d9"/>
<path transform="matrix(1.00005,0,0,-1.00005,47.55667,34.966096)" stroke-width=".3985" stroke-linecap="butt" stroke-miterlimit="10" stroke-linejoin="miter" fill="none" stroke="#000000" d="M-46.06311 0H45.60483"/>
<path transform="matrix(1.00005,0,0,-1.00005,93.16378,34.966096)" stroke-width=".31879" stroke-linecap="round" stroke-linejoin="round" fill="none" stroke="#000000" d="M-1.19551 1.59401C-1.09587 .99626 0 .09961 .29886 0 0-.09961-1.09587-.99626-1.19551-1.59401"/>
<use data-text="t" xlink:href="#font_1_1" transform="matrix(9.166058,0,0,-9.166058,91.66888,44.01455)"/>
<path transform="matrix(1.00005,0,0,-1.00005,47.55667,34.966096)" stroke-width=".3985" stroke-linecap="butt" stroke-miterlimit="10" stroke-linejoin="miter" fill="none" stroke="#000000" d="M0-22.11023V32.70721"/>
<path transform="matrix(0,-1.00005,-1.00005,-0,47.55667,2.2572518)" stroke-width=".31879" stroke-linecap="round" stroke-linejoin="round" fill="none" stroke="#000000" d="M-1.19551 1.59401C-1.09587 .99626 0 .09961 .29886 0 0-.09961-1.09587-.99626-1.19551-1.59401"/>
<path transform="matrix(1.00005,0,0,-1.00005,47.55667,34.966096)" stroke-width=".3985" stroke-linecap="butt" stroke-miterlimit="10" stroke-linejoin="miter" fill="none" stroke="#929292" d="M-36.85048 1.84262V-1.84262"/>
<use data-text="-" xlink:href="#font_2_3" transform="matrix(9.166058,0,0,-9.166058,6.474617,45.976648)"/>
<use data-text="2" xlink:href="#font_2_6" transform="matrix(9.166058,0,0,-9.166058,10.0677189,45.976648)"/>
<path transform="matrix(1.00005,0,0,-1.00005,47.55667,34.966096)" stroke-width=".3985" stroke-linecap="butt" stroke-miterlimit="10" stroke-linejoin="miter" fill="none" stroke="#929292" d="M-18.42523 1.84262V-1.84262"/>
<use data-text="-" xlink:href="#font_2_3" transform="matrix(9.166058,0,0,-9.166058,24.901543,45.976648)"/>
<use data-text="1" xlink:href="#font_2_5" transform="matrix(9.166058,0,0,-9.166058,28.494645,45.976648)"/>
<path transform="matrix(1.00005,0,0,-1.00005,47.55667,34.966096)" stroke-width=".3985" stroke-linecap="butt" stroke-miterlimit="10" stroke-linejoin="miter" fill="none" stroke="#929292" d="M18.42523 1.84262V-1.84262"/>
<use data-text="1" xlink:href="#font_2_5" transform="matrix(9.166058,0,0,-9.166058,63.55147,45.976648)"/>
<path transform="matrix(1.00005,0,0,-1.00005,47.55667,34.966096)" stroke-width=".3985" stroke-linecap="butt" stroke-miterlimit="10" stroke-linejoin="miter" fill="none" stroke="#929292" d="M36.85048 1.84262V-1.84262"/>
<use data-text="2" xlink:href="#font_2_6" transform="matrix(9.166058,0,0,-9.166058,81.97839,45.976648)"/>
<path transform="matrix(1.00005,0,0,-1.00005,47.55667,34.966096)" stroke-width=".3985" stroke-linecap="butt" stroke-miterlimit="10" stroke-linejoin="miter" fill="none" stroke="#929292" d="M1.84262 18.42523H-1.84262"/>
<use data-text="1" xlink:href="#font_2_5" transform="matrix(9.166058,0,0,-9.166058,41.13835,19.608328)"/>
<path transform="matrix(1.00005,0,0,-1.00005,47.55667,34.966096)" stroke-width="1.19553" stroke-linecap="butt" stroke-miterlimit="10" stroke-linejoin="miter" fill="none" stroke="#0000ff" d="M-46.06311 0H-45.60738-45.15163-44.69589-44.24016-43.78442-43.32869-42.87294-42.4172-41.96147-41.50572-41.04999-40.59424-40.1385-39.68275-39.22702-38.77129-38.31555-37.8598-37.40407-36.94832-36.49258-36.03685-35.5811-35.12537-34.66963-34.2139-33.75816-33.30241-32.84668-32.39093-31.93518-31.47945-31.0237-30.56796-30.11224-29.6565-29.20076-28.74503-28.28928-27.83354-27.37779-26.92206-26.46632-26.01059-25.55486-25.09909-24.64336-24.18762-23.73187-23.27614-22.8204-22.36465-21.90892-21.45319-20.99745-20.54172-20.08597-19.63023-19.17448-18.71875-18.26302-17.80727-17.35153-16.8958-16.44005-15.98431-15.52856-15.07283-14.6171-14.16135-13.70561-13.24986-12.79413-12.33841-11.88266-11.42693-10.97119-10.51544-10.05971-9.60396-9.14822-8.69249-8.23674-7.781-7.32526-6.86952-6.41379-5.95804-5.5023-5.04657-4.59082-4.13509-3.67935-3.22362-2.76788-2.31213-1.8564-1.40065-.94492"/>
<path transform="matrix(1.00005,0,0,-1.00005,47.55667,34.966096)" stroke-width="1.19553" stroke-linecap="butt" stroke-miterlimit="10" stroke-linejoin="miter" fill="none" stroke="#009900" d="M0 18.42523H.465 .93002 1.39503 1.86005 2.32507 2.79008 3.2551 3.72011 4.18513 4.65016 5.11517 5.5802 6.0452 6.51022 6.97523 7.44025 7.90527 8.3703 8.83531 9.30032 9.76535 10.23036 10.69537 11.1604 11.6254 12.09042 12.55545 13.02046 13.48549 13.9505 14.41551 14.88052 15.34555 15.81056 16.27557 16.74062 17.20561 17.67064 18.13565 18.60066 19.06569 19.5307 19.99573 20.46072 20.92577 21.39078 21.85579 22.32082 22.78583 23.25084 23.71585 24.18088 24.64589 25.11092 25.57594 26.04094 26.50597 26.97098 27.43599 27.90102 28.36603 28.83104 29.29607 29.7611 30.2261 30.69112 31.15614 31.62114 32.08617 32.55118 33.01619 33.48123 33.94624 34.41125 34.87627 35.3413 35.8063 36.27132 36.73634 37.20135 37.66638 38.1314 38.59642 39.06143 39.52644 39.99147 40.45647 40.9215 41.3865 41.85153 42.31656 42.78157 43.24658 43.7116 44.17662 44.64163 45.10664 45.57167 46.03668"/>
<path transform="matrix(1.00005,0,0,-1.00005,47.55667,34.966096)" stroke-width=".79701" stroke-linecap="butt" stroke-miterlimit="10" stroke-linejoin="miter" fill="none" stroke="#0000ff" d="M1.29514 0C1.29514 .71529 .71529 1.29514 0 1.29514-.71529 1.29514-1.29514 .71529-1.29514 0-1.29514-.71529-.71529-1.29514 0-1.29514 .71529-1.29514 1.29514-.71529 1.29514 0ZM0 0"/>
<path transform="matrix(1.00005,0,0,-1.00005,47.55667,34.966096)" d="M1.29514 18.42523C1.29514 19.14053 .71529 19.72038 0 19.72038-.71529 19.72038-1.29514 19.14053-1.29514 18.42523-1.29514 17.70993-.71529 17.13008 0 17.13008 .71529 17.13008 1.29514 17.70993 1.29514 18.42523ZM0 18.42523" fill="#009900"/>
<use data-text="u" xlink:href="#font_1_2" transform="matrix(9.166058,0,0,-9.166058,8.6467289,8.920794)" fill="#0000ff"/>
<use data-text="(" xlink:href="#font_2_1" transform="matrix(9.166058,0,0,-9.166058,14.813042,8.920794)" fill="#0000ff"/>
<use data-text="t" xlink:href="#font_1_1" transform="matrix(9.166058,0,0,-9.166058,18.221207,8.920794)" fill="#0000ff"/>
<use data-text=")" xlink:href="#font_2_2" transform="matrix(9.166058,0,0,-9.166058,22.325409,8.920794)" fill="#0000ff"/>
<use data-text="=" xlink:href="#font_3_1" transform="matrix(9.166058,0,0,-9.166058,27.238656,8.920794)" fill="#0000ff"/>
<use data-text="0" xlink:href="#font_2_4" transform="matrix(9.166058,0,0,-9.166058,35.53907,8.920794)" fill="#0000ff"/>
<use data-text="u" xlink:href="#font_1_2" transform="matrix(9.166058,0,0,-9.166058,54.71203,8.920794)" fill="#009900"/>
<use data-text="(" xlink:href="#font_2_1" transform="matrix(9.166058,0,0,-9.166058,60.87834,8.920794)" fill="#009900"/>
<use data-text="t" xlink:href="#font_1_1" transform="matrix(9.166058,0,0,-9.166058,64.28651,8.920794)" fill="#009900"/>
<use data-text=")" xlink:href="#font_2_2" transform="matrix(9.166058,0,0,-9.166058,68.39071,8.920794)" fill="#009900"/>
<use data-text="=" xlink:href="#font_3_1" transform="matrix(9.166058,0,0,-9.166058,73.303958,8.920794)" fill="#009900"/>
<use data-text="1" xlink:href="#font_2_5" transform="matrix(9.166058,0,0,-9.166058,81.60437,8.920794)" fill="#009900"/>
<use data-text="&#x201c;" xlink:href="#font_2_10" transform="matrix(9.166058,0,0,-9.166058,14.835037,53.62903)" fill="#0000ff"/>
<use data-text="o" xlink:href="#font_2_9" transform="matrix(9.166058,0,0,-9.166058,18.299813,53.62903)" fill="#0000ff"/>
<use data-text="f" xlink:href="#font_2_7" transform="matrix(9.166058,0,0,-9.166058,23.58863,53.62903)" fill="#0000ff"/>
<use data-text="f" xlink:href="#font_2_7" transform="matrix(9.166058,0,0,-9.166058,26.512604,53.62903)" fill="#0000ff"/>
<use data-text="&#x201d;" xlink:href="#font_2_11" transform="matrix(9.166058,0,0,-9.166058,30.01403,53.62903)" fill="#0000ff"/>
<use data-text="&#x201c;" xlink:href="#font_2_10" transform="matrix(9.166058,0,0,-9.166058,61.652376,53.62903)" fill="#009900"/>
<use data-text="o" xlink:href="#font_2_9" transform="matrix(9.166058,0,0,-9.166058,65.11715,53.62903)" fill="#009900"/>
<use data-text="n" xlink:href="#font_2_8" transform="matrix(9.166058,0,0,-9.166058,70.40597,53.62903)" fill="#009900"/>
<use data-text="&#x201d;" xlink:href="#font_2_11" transform="matrix(9.166058,0,0,-9.166058,75.3373,53.62903)" fill="#009900"/>
</svg>
