<svg xmlns="http://www.w3.org/2000/svg" xmlns:xlink="http://www.w3.org/1999/xlink" version="1.1" width="297" height="102" viewBox="0 0 297 102">
<defs>
<path id="font_1_1" d="M.42799378 .45222474 .43899537 .49023438H.31199647L.34599305 .6092224 .33399964 .6162262 .23699951 .53923037 .22399903 .49023438H.14299011L.13198853 .45222474H.21499634L.125 .08627319C.10998535 .029266358 .12199402-.01171875 .17199707-.01171875 .2519989-.01171875 .31599427 .054275514 .35598756 .1292572L.33399964 .1462555C.31098939 .10726929 .2599945 .040267946 .22898865 .040267946 .20799256 .040267946 .20799256 .0632782 .21398926 .088272098L.30299378 .45222474H.42799378Z"/>
<path id="font_2_4" d="M.43699647 0V.0289917L.35299684 .035995485C.33198548 .037994386 .31999208 .04598999 .31999208 .08496094V.67367556L.31498719 .6796875 .10899353 .6446991V.6197052L.20199585 .6087036C.21899414 .6067047 .22599793 .5987091 .22599793 .56973269V.08496094C.22599793 .065979007 .22299195 .053985597 .21699524 .04698181 .21199036 .039993287 .20399475 .036987306 .19299317 .035995485L.10899353 .0289917V0H.43699647Z"/>
<path id="font_2_5" d="M.4850006 .13195801 .45700074 .13696289C.43598939 .08299255 .41600038 .07598877 .37599183 .07598877H.11999512C.13598633 .1279602 .19499207 .19892884 .28799439 .2658844 .38398744 .33584596 .45799256 .38082887 .45799256 .49276734 .45799256 .63168337 .3659973 .6796875 .26098634 .6796875 .12399292 .6796875 .052993776 .5967102 .052993776 .54473879 .052993776 .51075747 .09098816 .49476625 .10798645 .49476625 .12599182 .49476625 .1329956 .50476077 .13699341 .5217438 .15299988 .5897064 .19198609 .64468386 .2539978 .64468386 .33099366 .64468386 .35299684 .5797119 .35299684 .50675967 .35299684 .3998108 .29899598 .33984376 .21199036 .26289369 .08898926 .15594483 .04598999 .08798218 .026992798 .009994507L.036987306 0H.45098878L.4850006 .13195801Z"/>
<path id="font_2_6" d="M.12998963 .3657837C.12998963 .3487854 .1349945 .33779908 .147995 .33779908 .1599884 .33779908 .18699646 .34777833 .23498535 .34777833 .31999208 .34777833 .36799623 .27090455 .36799623 .18403626 .36799623 .065216068 .30899049 .023269654 .23799134 .023269654 .17199707 .023269654 .1289978 .07319641 .10998535 .12911988 .10398865 .14808655 .09399414 .15707398 .07998657 .15707398 .06199646 .15707398 .026992798 .13809204 .026992798 .10215759 .026992798 .05921936 .09599304-.01171875 .23699951-.01171875 .38198854-.01171875 .47299195 .06121826 .47299195 .18902588 .47299195 .32281495 .35798646 .3627777 .30299378 .3677826V.3717804C.35699464 .38078309 .44400025 .4207611 .44400025 .5197296 .44400025 .6306915 .35699464 .6796875 .25 .6796875 .117996219 .6796875 .052993776 .60369876 .052993776 .5607147 .052993776 .5297241 .08799744 .51272585 .101989749 .51272585 .114990238 .51272585 .12298584 .5197296 .1269989 .5327301 .14898682 .60069277 .18699646 .64468386 .24299622 .64468386 .32199098 .64468386 .34098817 .57470706 .34098817 .51872256 .34098817 .4587555 .31999208 .38378907 .23498535 .38378907 .18699646 .38378907 .1599884 .39378358 .147995 .39378358 .1349945 .39378358 .12998963 .38378907 .12998963 .3657837Z"/>
<path id="font_2_7" d="M.2999878 .17871094V.0769043C.2999878 .04296875 .2889862 .036987306 .2649994 .034988405L.20098877 .0289917V0H.46499635V.0289917L.41999818 .033981325C.39698792 .036987306 .3899994 .04296875 .3899994 .0769043V.17871094H.49299623V.22570801H.3899994V.66796877H.31698609C.22299195 .5298767 .11099243 .35577394 .018997193 .19970703L.027999878 .17871094H.2999878M.09098816 .22570801C.15098572 .33476258 .22099304 .4498291 .2979889 .5709076H.2999878V.22570801H.09098816Z"/>
<path id="font_2_8" d="M.42599488 .5919647 .44999696 .6599579 .44499208 .66796877H.11099243L.100997928 .65896609 .08099365 .32388307 .10499573 .31188966C.14698792 .35983277 .18798828 .3828125 .24198914 .3828125 .30599977 .3828125 .37599183 .3358612 .37599183 .20404053 .37599183 .10116577 .33399964 .023269654 .24699402 .023269654 .1769867 .023269654 .14099121 .07420349 .12098694 .13113404 .115997318 .14611817 .10699463 .15510559 .09298706 .15510559 .07299805 .15510559 .039993287 .13513184 .039993287 .10217285 .039993287 .056228639 .10998535-.01171875 .23999024-.01171875 .40499879-.01171875 .47999574 .0881958 .47999574 .21502686 .47999574 .35484315 .3919983 .4268036 .272995 .4268036 .21798706 .4268036 .15899658 .4028015 .1269989 .3738098L.125 .37580873 .147995 .56292727C.15098572 .58795168 .1579895 .5919647 .1769867 .5919647H.42599488Z"/>
<path id="font_2_9" d="M.27198792-.01171875C.41999818-.01171875 .49899293 .07821655 .49899293 .2140503 .49899293 .3488922 .4119873 .42385865 .30799867 .421875 .23199463 .42385865 .17199707 .36886598 .14498902 .33590699H.14299011C.14399719 .5557556 .20698548 .64468386 .29699708 .64468386 .34298707 .64468386 .375 .6057129 .3899994 .5487671 .3929901 .5367737 .40098573 .527771 .41600038 .527771 .43798829 .527771 .46899415 .5447693 .46899415 .57273867 .46899415 .6127014 .41999818 .6796875 .2999878 .6796875 .22099304 .6796875 .16499329 .64967349 .12298584 .6017151 .07798767 .5497589 .04399109 .45384217 .04399109 .3089447 .04399109 .093185428 .12199402-.01171875 .27198792-.01171875M.27398683 .37086488C.33699037 .37086488 .39898683 .31393434 .39898683 .19906616 .39898683 .094192508 .35798646 .023269654 .27398683 .023269654 .18699646 .023269654 .14498902 .11616516 .14498902 .23602295 .14498902 .2969513 .18998719 .37086488 .27398683 .37086488Z"/>
<path id="font_2_10" d="M.07199097 .66796877 .040985109 .5279999H.067993167L.07798767 .5489807C.09098816 .57696536 .10398865 .5919647 .14898682 .5919647H.4189911C.40899659 .5559845 .3909912 .4980011 .30999757 .38206483 .22399903 .25914 .16699219 .14718628 .16699219 .029251099 .16699219-.0037231446 .18998719-.01171875 .22099304-.01171875 .25-.01171875 .2709961-.0027313233 .269989 .026260376 .2649994 .15818787 .2919922 .26412965 .34498597 .35708619 .40899659 .46905519 .46199037 .5310211 .49699403 .65696719L.48799134 .66796877H.07199097Z"/>
<path id="font_2_11" d="M.2649994 .3380127C.34498597 .3380127 .3880005 .2700653 .3880005 .17915344 .3880005 .09121704 .34999085 .023269654 .2649994 .023269654 .18199158 .023269654 .14199829 .09121704 .14199829 .17915344 .14199829 .2700653 .18598938 .3380127 .2649994 .3380127M.2649994-.01171875C.4269867-.01171875 .48799134 .081222537 .48799134 .18214417 .48799134 .28405763 .42399598 .3420105 .35598756 .35801698V.36102296C.4169922 .37701417 .46598817 .427948 .46598817 .5098419 .46598817 .6187134 .3809967 .6796875 .2649994 .6796875 .15098572 .6796875 .06399536 .61772158 .06399536 .5098419 .06399536 .427948 .11399841 .37701417 .17399597 .36102296V.35801698C.10699463 .3420105 .041992189 .28405763 .041992189 .18214417 .041992189 .081222537 .101989749-.01171875 .2649994-.01171875M.2649994 .37402345C.19299317 .37402345 .16099549 .44392396 .16099549 .5118408 .16099549 .5887451 .19699097 .64468386 .2649994 .64468386 .33299256 .64468386 .36698915 .5887451 .36898805 .5118408 .36898805 .44392396 .33799745 .37402345 .2649994 .37402345Z"/>
<path id="font_2_12" d="M.22898865 .26757813C.29100038 .26757813 .34298707 .30256654 .3769989 .35157777H.3789978C.3789978 .28857423 .37399293 .20774842 .35598756 .13894654 .33799745 .073135379 .30299378 .023269654 .23899842 .023269654 .17098999 .023269654 .1459961 .0761261 .1309967 .12298584 .1269989 .13595581 .11999512 .1439209 .102996829 .1439209 .083999637 .1439209 .055999757 .12397766 .055999757 .09307861 .055999757 .049194337 .10899353-.01171875 .22999573-.01171875 .31098939-.01171875 .37298585 .01828003 .41099549 .071136478 .45199586 .12797547 .47698976 .2157135 .47698976 .36058045 .47698976 .48461915 .45199586 .56565859 .41299439 .6126709 .375 .6576843 .31999208 .6796875 .2559967 .6796875 .12799073 .6796875 .035995485 .5946655 .035995485 .45661927 .035995485 .3315735 .12599182 .26757813 .22898865 .26757813M.25898744 .3205719C.18099976 .3205719 .13598633 .38859559 .13598633 .48461915 .13598633 .57666018 .1769867 .64468386 .25498963 .64468386 .33499146 .64468386 .37399293 .5496521 .37399293 .45262147 .37399293 .4356079 .37298585 .41560365 .36698915 .39959718 .35099793 .35258485 .31199647 .3205719 .25898744 .3205719Z"/>
<path id="font_2_3" d="M.2649994 .64468386C.3600006 .64468386 .3869934 .49682618 .3869934 .33398438 .3869934 .17112732 .3600006 .023269654 .2649994 .023269654 .16999817 .023269654 .14299011 .17112732 .14299011 .33398438 .14299011 .49682618 .16999817 .64468386 .2649994 .64468386M.2649994 .6796875C.099990848 .6796875 .040985109 .53378298 .040985109 .33398438 .040985109 .13417053 .099990848-.01171875 .2649994-.01171875 .42999269-.01171875 .4889984 .13417053 .4889984 .33398438 .4889984 .53378298 .42999269 .6796875 .2649994 .6796875Z"/>
<path id="font_1_2" d="M.5329895 .48995973C.5039978 .388031 .48799134 .33506776 .46199037 .2741089 .41799928 .173172 .33099366 .040267946 .24798584 .040267946 .21598816 .040267946 .20799256 .070251468 .22299195 .12820435L.31900025 .4970703 .31399537 .50205996 .13198853 .47375489 .12599182 .4497528 .18798828 .44476319C.21199036 .44276429 .21099854 .42778016 .20298767 .39682008L.13398743 .13316345C.11299133 .053253175 .12098694-.01171875 .20098877-.01171875 .29699708-.01171875 .4019928 .09420776 .46199037 .21005249H.46398927L.43099977 .096206668C.4119873 .029266358 .42399598-.01171875 .47698976-.01171875 .548996-.01171875 .60899356 .057250978 .6439972 .13116455L.6199951 .14613343C.59999087 .11218262 .55599978 .040267946 .5279999 .040267946 .5069885 .040267946 .5069885 .06324768 .5149994 .09420776L.621994 .5019531 .5329895 .48995973Z"/>
<path id="font_2_1" d="M.1749878 .2822113C.1749878 .56832888 .2619934 .65437319 .32499696 .66737368V.6923828C.1499939 .685379 .10499573 .46829225 .10499573 .2822113 .10499573 .09614563 .1499939-.12094116 .32499696-.12792969V-.10293579C.2669983-.090927127 .1749878-.0059051516 .1749878 .2822113Z"/>
<path id="font_2_2" d="M.1749878 .2822113C.1749878-.0059051516 .08299255-.090927127 .024993897-.10293579V-.12792969C.19999695-.12094116 .24499512 .09614563 .24499512 .2822113 .24499512 .46829225 .19999695 .685379 .024993897 .6923828V.66737368C.08799744 .65437319 .1749878 .56832888 .1749878 .2822113Z"/>
<path id="font_2_20" d="M.32598878 .45022584V.49023438H.19699097V.6162262H.16799927L.10699463 .49023438H.0309906V.45022584H.102996829V.102264408C.102996829 .0002746582 .1789856-.01171875 .21398926-.01171875 .2649994-.01171875 .31298829 .014266968 .34199525 .03227234L.33399964 .053268434C.30999757 .043273927 .28799439 .040267946 .2630005 .040267946 .22898865 .040267946 .19699097 .06427002 .19699097 .14025879V.45022584H.32598878Z"/>
<path id="font_2_21" d="M.59098818 0V.0289917C.5219879 .033996583 .5159912 .035995485 .5159912 .08699036V.49609376L.5089874 .50209048 .35198976 .47709657V.45210267L.3899994 .44711305C.41600038 .44309999 .42199708 .43811036 .42199708 .40213014V.17721558C.42199708 .14923096 .4189911 .12724304 .4139862 .117248538 .3909912 .071258548 .34298707 .042266847 .29100038 .042266847 .23298645 .042266847 .18998719 .07826233 .18998719 .15621948V.49609376L.18299866 .50209048 .025985718 .47709657V.45210267L.06399536 .44711305C.08999634 .44309999 .09599304 .43811036 .09599304 .40213014V.13822937C.09599304 .023269654 .1639862-.01171875 .23799134-.01171875 .32299806-.01171875 .3919983 .04626465 .42099 .060272218L.43099977 0H.59098818Z"/>
<path id="font_2_18" d="M.18899536 .5019531 .036987306 .47694398V.45195008L.07499695 .4469452C.100997928 .4429474 .10699463 .4379425 .10699463 .40194703V.08699036C.10699463 .035995485 .101989749 .033996583 .03199768 .0289917V0H.29599V.0289917C.20698548 .033996583 .20098877 .035995485 .20098877 .08699036V.32095338C.20098877 .39794923 .23498535 .4239502 .2579956 .4239502 .27398683 .4239502 .29100038 .4179535 .31999208 .40194703 .32699586 .39794923 .33499146 .39694215 .33999635 .39694215 .3639984 .39694215 .38598634 .4219513 .38598634 .4529419 .38598634 .47494508 .37199403 .5019531 .33299256 .5019531 .29699708 .5019531 .2669983 .47994996 .20098877 .4219513L.18899536 .5019531Z"/>
<path id="font_2_17" d="M.5289917 .34295655C.5289917 .4439392 .47399903 .5019531 .38198854 .5019531 .30799867 .5019531 .2619934 .46594239 .19999695 .4259491L.18598938 .5019531 .036987306 .47694398V.45195008L.07499695 .4469452C.100997928 .4429474 .10699463 .4379425 .10699463 .40194703V.08699036C.10699463 .035995485 .10398865 .033996583 .03199768 .0289917V0H.27598573V.0289917C.20498657 .033996583 .20098877 .035995485 .20098877 .08699036V.32095338C.20098877 .34596253 .20298767 .35995484 .21099854 .37594605 .23199463 .4149475 .2769928 .44795228 .32998658 .44795228 .397995 .44795228 .43499757 .40994264 .43499757 .32295228V.08699036C.43499757 .035995485 .43199159 .033996583 .3600006 .0289917V0H.60398867V.0289917C.5329895 .033996583 .5289917 .035995485 .5289917 .08699036V.34295655Z"/>
<path id="font_2_19" d="M.36698915 .35102845V.46794129C.33399964 .49194337 .2829895 .5019531 .23799134 .5019531 .12998963 .5019531 .056991579 .45095826 .055999757 .35603334 .056991579 .27308656 .12399292 .2361145 .20698548 .21113587 .2519989 .19714356 .31498719 .17416382 .31498719 .10621643 .31498719 .055252077 .2749939 .023269654 .22200012 .023269654 .14099121 .023269654 .09599304 .082229617 .07598877 .16716004H.04699707L.056991579 .03627014C.09298706 .004272461 .1539917-.01171875 .21299744-.01171875 .33198548-.01171875 .3999939 .051254274 .3999939 .13618469 .3999939 .2241211 .34599305 .26409913 .24299622 .29606629 .20199585 .30906678 .13598633 .3300476 .13598633 .3860016 .13699341 .43795777 .17599488 .46694947 .22599793 .46694947 .29699708 .46694947 .33099366 .4119873 .33799745 .35102845H.36698915Z"/>
<path id="font_2_16" d="M.3809967 .6720276C.5589905 .6720276 .59999087 .4931183 .60198977 .3461914 .59999087 .19924927 .5589905 .020339966 .3809967 .020339966 .20298767 .020339966 .1619873 .19924927 .1599884 .3461914 .1619873 .4931183 .20298767 .6720276 .3809967 .6720276M.3809967 .70703127C.2709961 .70703127 .18899536 .6730194 .1329956 .61006167 .07899475 .55007937 .04798889 .4591217 .04798889 .3461914 .04798889 .23423767 .07899475 .14228821 .1329956 .08232117 .18899536 .019348145 .2709961-.0146484379 .3809967-.0146484379 .49198915-.0146484379 .57299807 .019348145 .6289978 .08232117 .6839905 .14228821 .71398928 .23423767 .71398928 .3461914 .71398928 .4591217 .6839905 .55007937 .6289978 .61006167 .57299807 .6730194 .49198915 .70703127 .3809967 .70703127Z"/>
<path id="font_2_15" d="M.033996583 .6923828V.66337588C.12199402 .6573639 .12399292 .655365 .12399292 .5993347V.20309448C.12399292 .15007019 .12199402 .11204529 .116989139 .07902527 .11099243 .037002565 .08699036 .032989503 .034988405 .0289917V0H.27198792V.0289917C.20698548 .033996583 .18299866 .037002565 .1769867 .07902527 .17199707 .11204529 .16999817 .15007019 .16999817 .20309448V.6023407H.17199707C.31498719 .4012146 .45700074 .20109558 .59799197 0H.6639862V.48927308C.6639862 .54229739 .66600039 .58032229 .67099 .6133423 .6769867 .655365 .70098879 .6593628 .7529907 .66337588V.6923828H.5159912V.66337588C.58099368 .658371 .6049957 .655365 .61099246 .6133423 .6159973 .58032229 .6179962 .54229739 .6179962 .48927308V.13806153L.6159973 .14006043C.4850006 .32417298 .35499574 .5082855 .22599793 .6923828H.033996583Z"/>
<path id="font_3_2" d="M.6349945 .14315796V.20117188H.084991458V.14315796H.6349945M.6349945 .36288453V.42089845H.084991458V.36288453H.6349945Z"/>
<path id="font_3_1" d="M.6349945 .2529297V.31092835H.084991458V.2529297H.6349945Z"/>
<path id="font_2_13" d="M.1329956-.01171875C.17199707-.01171875 .19499207 .015274048 .19599915 .05126953 .19599915 .088272098 .17199707 .11627197 .1329956 .11627197 .09498596 .11627197 .069992069 .088272098 .069992069 .05126953 .069992069 .015274048 .09498596-.01171875 .1329956-.01171875M.1329956 .3622284C.17199707 .3622284 .19499207 .3892212 .19599915 .42622376 .19599915 .46221925 .17199707 .49023438 .1329956 .49023438 .09498596 .49023438 .069992069 .46221925 .069992069 .42622376 .069992069 .3892212 .09498596 .3622284 .1329956 .3622284Z"/>
<path id="font_2_14" d="M.034988405 .6923828V.66337588C.12298584 .6573639 .125 .655365 .125 .5993347V.093048099C.125 .037002565 .12298584 .035003663 .034988405 .0289917V0H.32998658V.0289917C.22698975 .035003663 .22399903 .037002565 .22399903 .093048099V.32722474H.3639984C.44898988 .32722474 .45298768 .3032074 .46199037 .23916626H.49198915V.4532776H.46199037C.45298768 .38923646 .44898988 .36523438 .3639984 .36523438H.22399903V.62135317C.22399903 .65437319 .22799683 .65737918 .26098634 .65737918H.3600006C.47599793 .65737918 .49899293 .6343689 .5130005 .5323181H.54299929V.6923828H.034988405Z"/>
</defs>
<path transform="matrix(1.00006,0,0,-1.00002,13.538773,68.987079)" stroke-width=".19925" stroke-linecap="butt" stroke-dasharray="2.98883,2.98883" stroke-miterlimit="10" stroke-linejoin="miter" fill="none" stroke="#000000" d="M192.75968-31.3235V67.46593"/>
<path transform="matrix(1.00006,0,0,-1.00002,13.538773,68.987079)" stroke-width=".19925" stroke-linecap="butt" stroke-dasharray="2.98883,2.98883" stroke-miterlimit="10" stroke-linejoin="miter" fill="none" stroke="#000000" d="M96.37984-31.3235V67.46593"/>
<path transform="matrix(1.00006,0,0,-1.00002,13.538773,68.987079)" stroke-width=".3985" stroke-linecap="butt" stroke-miterlimit="10" stroke-linejoin="miter" fill="none" stroke="#000000" d="M-12.04745 0H281.45268"/>
<path transform="matrix(1.00006,0,0,-1.00002,295.0083,68.987079)" stroke-width=".31879" stroke-linecap="round" stroke-linejoin="round" fill="none" stroke="#000000" d="M-1.19551 1.59401C-1.09587 .99626 0 .09961 .29886 0 0-.09961-1.09587-.99626-1.19551-1.59401"/>
<path transform="matrix(1.00006,0,0,-1.00002,13.538773,68.987079)" stroke-width=".3985" stroke-linecap="butt" stroke-miterlimit="10" stroke-linejoin="miter" fill="none" stroke="#000000" d="M0-31.3235V67.00766"/>
<path transform="matrix(0,-1.00002,-1.00006,-0,13.538773,1.9780731)" stroke-width=".31879" stroke-linecap="round" stroke-linejoin="round" fill="none" stroke="#000000" d="M-1.19551 1.59401C-1.09587 .99626 0 .09961 .29886 0 0-.09961-1.09587-.99626-1.19551-1.59401"/>
<use data-text="t" xlink:href="#font_1_1" transform="matrix(10.037002,0,0,-10.036601,290.9194,78.571269)"/>
<path transform="matrix(1.00006,0,0,-1.00002,13.538773,68.987079)" stroke-width=".3985" stroke-linecap="butt" stroke-miterlimit="10" stroke-linejoin="miter" fill="none" stroke="#929292" d="M24.09494 2.40962V-2.40962"/>
<use data-text="1" xlink:href="#font_2_4" transform="matrix(10.037002,0,0,-10.036601,34.97306,81.03432)"/>
<path transform="matrix(1.00006,0,0,-1.00002,13.538773,68.987079)" stroke-width=".3985" stroke-linecap="butt" stroke-miterlimit="10" stroke-linejoin="miter" fill="none" stroke="#929292" d="M48.18991 2.40962V-2.40962"/>
<use data-text="2" xlink:href="#font_2_5" transform="matrix(10.037002,0,0,-10.036601,59.069505,81.03432)"/>
<path transform="matrix(1.00006,0,0,-1.00002,13.538773,68.987079)" stroke-width=".3985" stroke-linecap="butt" stroke-miterlimit="10" stroke-linejoin="miter" fill="none" stroke="#929292" d="M72.28487 2.40962V-2.40962"/>
<use data-text="3" xlink:href="#font_2_6" transform="matrix(10.037002,0,0,-10.036601,83.16595,81.03432)"/>
<path transform="matrix(1.00006,0,0,-1.00002,13.538773,68.987079)" stroke-width=".3985" stroke-linecap="butt" stroke-miterlimit="10" stroke-linejoin="miter" fill="none" stroke="#929292" d="M96.37984 2.40962V-2.40962"/>
<use data-text="4" xlink:href="#font_2_7" transform="matrix(10.037002,0,0,-10.036601,107.2624,81.03432)"/>
<path transform="matrix(1.00006,0,0,-1.00002,13.538773,68.987079)" stroke-width=".3985" stroke-linecap="butt" stroke-miterlimit="10" stroke-linejoin="miter" fill="none" stroke="#929292" d="M120.4748 2.40962V-2.40962"/>
<use data-text="5" xlink:href="#font_2_8" transform="matrix(10.037002,0,0,-10.036601,131.35884,81.03432)"/>
<path transform="matrix(1.00006,0,0,-1.00002,13.538773,68.987079)" stroke-width=".3985" stroke-linecap="butt" stroke-miterlimit="10" stroke-linejoin="miter" fill="none" stroke="#929292" d="M144.56977 2.40962V-2.40962"/>
<use data-text="6" xlink:href="#font_2_9" transform="matrix(10.037002,0,0,-10.036601,155.45529,81.03432)"/>
<path transform="matrix(1.00006,0,0,-1.00002,13.538773,68.987079)" stroke-width=".3985" stroke-linecap="butt" stroke-miterlimit="10" stroke-linejoin="miter" fill="none" stroke="#929292" d="M168.66472 2.40962V-2.40962"/>
<use data-text="7" xlink:href="#font_2_10" transform="matrix(10.037002,0,0,-10.036601,179.55173,81.03432)"/>
<path transform="matrix(1.00006,0,0,-1.00002,13.538773,68.987079)" stroke-width=".3985" stroke-linecap="butt" stroke-miterlimit="10" stroke-linejoin="miter" fill="none" stroke="#929292" d="M192.75968 2.40962V-2.40962"/>
<use data-text="8" xlink:href="#font_2_11" transform="matrix(10.037002,0,0,-10.036601,203.64818,81.03432)"/>
<path transform="matrix(1.00006,0,0,-1.00002,13.538773,68.987079)" stroke-width=".3985" stroke-linecap="butt" stroke-miterlimit="10" stroke-linejoin="miter" fill="none" stroke="#929292" d="M216.85463 2.40962V-2.40962"/>
<use data-text="9" xlink:href="#font_2_12" transform="matrix(10.037002,0,0,-10.036601,227.74462,81.03432)"/>
<path transform="matrix(1.00006,0,0,-1.00002,13.538773,68.987079)" stroke-width=".3985" stroke-linecap="butt" stroke-miterlimit="10" stroke-linejoin="miter" fill="none" stroke="#929292" d="M240.9496 2.40962V-2.40962"/>
<use data-text="1" xlink:href="#font_2_4" transform="matrix(10.037002,0,0,-10.036601,249.17891,81.03432)"/>
<use data-text="0" xlink:href="#font_2_3" transform="matrix(10.037002,0,0,-10.036601,254.49852,81.03432)"/>
<path transform="matrix(1.00006,0,0,-1.00002,13.538773,68.987079)" stroke-width=".3985" stroke-linecap="butt" stroke-miterlimit="10" stroke-linejoin="miter" fill="none" stroke="#929292" d="M265.04457 2.40962V-2.40962"/>
<use data-text="1" xlink:href="#font_2_4" transform="matrix(10.037002,0,0,-10.036601,273.27534,81.03432)"/>
<use data-text="1" xlink:href="#font_2_4" transform="matrix(10.037002,0,0,-10.036601,278.59498,81.03432)"/>
<path transform="matrix(1.00006,0,0,-1.00002,13.538773,68.987079)" stroke-width=".3985" stroke-linecap="butt" stroke-miterlimit="10" stroke-linejoin="miter" fill="none" stroke="#929292" d="M2.40962 24.09494H-2.40962"/>
<use data-text="1" xlink:href="#font_2_4" transform="matrix(10.037002,0,0,-10.036601,4.8152468,48.25166)"/>
<path transform="matrix(1.00006,0,0,-1.00002,13.538773,68.987079)" stroke-width=".79701" stroke-linecap="butt" stroke-dasharray="2.98883,2.98883" stroke-miterlimit="10" stroke-linejoin="miter" fill="none" stroke="#0000ff" d="M-12.04745 0H-10.97205-9.89665-8.82124-7.74583-6.67044-5.59502-4.51962-3.44421-2.3688-1.29341-.218 .85736 1.93277 3.00818 4.08357 5.15898 6.23439 7.30978 8.3852 9.46059 10.53601 11.61142 12.68681 13.76224 14.83763 15.91302 16.98843 18.06384 19.13925 20.21466 21.29007 22.36548 23.44087 24.51627 25.59169 26.66708 27.7425 28.8179 29.89331 30.9687 32.04411 33.11952 34.19493 35.27032 36.34573 37.42116 38.49655 39.57195 40.64734 41.72276 42.79817 43.87357 44.94899 46.0244 47.09978 48.17519 49.2506 50.326 51.40141 52.4768 53.55223 54.62764 55.70302 56.77844 57.85384 58.92924 60.00465 61.08006 62.15547 63.23088 64.30627 65.38168 66.45708 67.53249 68.60791 69.6833 70.75871 71.83409 72.90952 73.98492 75.06032 76.13574 77.21115 78.28654 79.36195 80.43735 81.51276 82.58817 83.66356 84.73898 85.81439 86.88979 87.9652 89.04059 90.116 91.1914 92.26682 93.34222 94.41763"/>
<path transform="matrix(1.00006,0,0,-1.00002,13.538773,68.987079)" stroke-width=".79701" stroke-linecap="butt" stroke-dasharray="2.98883,2.98883" stroke-miterlimit="10" stroke-linejoin="miter" fill="none" stroke="#990000" d="M-12.04745 0H-10.97205-9.89665-8.82124-7.74583-6.67044-5.59502-4.51962-3.44421-2.3688-1.29341-.218 .85736 1.93277 3.00818 4.08357 5.15898 6.23439 7.30978 8.3852 9.46059 10.53601 11.61142 12.68681 13.76224 14.83763 15.91302 16.98843 18.06384 19.13925 20.21466 21.29007 22.36548 23.44087 24.51627 25.59169 26.66708 27.7425 28.8179 29.89331 30.9687 32.04411 33.11952 34.19493 35.27032 36.34573 37.42116 38.49655 39.57195 40.64734 41.72276 42.79817 43.87357 44.94899 46.0244 47.09978 48.17519 49.2506 50.326 51.40141 52.4768 53.55223 54.62764 55.70302 56.77844 57.85384 58.92924 60.00465 61.08006 62.15547 63.23088 64.30627 65.38168 66.45708 67.53249 68.60791 69.6833 70.75871 71.83409 72.90952 73.98492 75.06032 76.13574 77.21115 78.28654 79.36195 80.43735 81.51276 82.58817 83.66356 84.73898 85.81439 86.88979 87.9652 89.04059 90.116 91.1914 92.26682 93.34222 94.41763"/>
<path transform="matrix(1.00006,0,0,-1.00002,13.538773,68.987079)" stroke-width="1.19553" stroke-linecap="butt" stroke-miterlimit="10" stroke-linejoin="miter" fill="none" stroke="#009900" d="M-11.09103 0H-10.97205-9.89665-8.82124-7.74583-6.67044-5.59502-4.51962-3.44421-2.3688-1.29341-.218 .85736 1.93277 3.00818 4.08357 5.15898 6.23439 7.30978 8.3852 9.46059 10.53601 11.61142 12.68681 13.76224 14.83763 15.91302 16.98843 18.06384 19.13925 20.21466 21.29007 22.36548 23.44087 24.51627 25.59169 26.66708 27.7425 28.8179 29.89331 30.9687 32.04411 33.11952 34.19493 35.27032 36.34573 37.42116 38.49655 39.57195 40.64734 41.72276 42.79817 43.87357 44.94899 46.0244 47.09978 48.17519 49.2506 50.326 51.40141 52.4768 53.55223 54.62764 55.70302 56.77844 57.85384 58.92924 60.00465 61.08006 62.15547 63.23088 64.30627 65.38168 66.45708 67.53249 68.60791 69.6833 70.75871 71.83409 72.90952 73.98492 75.06032 76.13574 77.21115 78.28654 79.36195 80.43735 81.51276 82.58817 83.66356 84.73898 85.81439 86.88979 87.9652 89.04059 90.116 91.1914 92.26682 93.34222 94.41763"/>
<path transform="matrix(-1.00006,-0,0,1.00002,2.4470778,68.987079)" stroke-width=".9564" stroke-linecap="round" stroke-linejoin="round" fill="none" stroke="#009900" d="M-1.91284 2.55046C-1.75343 1.59402 0 .15938 .4782 0 0-.15938-1.75343-1.59402-1.91284-2.55046"/>
<path transform="matrix(1.00006,0,0,-1.00002,13.538773,68.987079)" stroke-width=".79701" stroke-linecap="butt" stroke-dasharray="2.98883,2.98883" stroke-miterlimit="10" stroke-linejoin="miter" fill="none" stroke="#0000ff" d="M98.30746 24.09494H99.24205 100.17665 101.11124 102.04584 102.98042 103.915 104.84961 105.7842 106.7188 107.65338 108.58797 109.52257 110.45715 111.39174 112.32632 113.26094 114.19553 115.13011 116.06471 116.9993 117.9339 118.86847 119.80305 120.73766 121.67226 122.60686 123.54144 124.47603 125.41063 126.3452 127.2798 128.21439 129.14899 130.08358 131.01818 131.95278 132.88736 133.82195 134.75653 135.69112 136.62572 137.5603 138.4949 139.4295 140.36409 141.29868 142.23326 143.16786 144.10245 145.03704 145.97164 146.90622 147.84084 148.7754 149.71 150.64459 151.57918 152.51378 153.44837 154.38297 155.31755 156.25214 157.18674 158.12133 159.05593 159.99051 160.9251 161.8597 162.79428 163.72887 164.66345 165.59807 166.53266 167.46724 168.40184 169.33643 170.27101 171.2056 172.14019 173.07479 174.00939 174.94399 175.87857 176.81316 177.74776 178.68233 179.61693 180.55152 181.4861 182.42072 183.3553 184.2899 185.22449 186.15908 187.09366 188.02825 188.96285 189.89743 190.83203"/>
<path transform="matrix(1.00006,0,0,-1.00002,13.538773,68.987079)" stroke-width=".79701" stroke-linecap="butt" stroke-dasharray="2.98883,2.98883" stroke-miterlimit="10" stroke-linejoin="miter" fill="none" stroke="#990000" d="M98.30746 0H99.24205 100.17665 101.11124 102.04584 102.98042 103.915 104.84961 105.7842 106.7188 107.65338 108.58797 109.52257 110.45715 111.39174 112.32632 113.26094 114.19553 115.13011 116.06471 116.9993 117.9339 118.86847 119.80305 120.73766 121.67226 122.60686 123.54144 124.47603 125.41063 126.3452 127.2798 128.21439 129.14899 130.08358 131.01818 131.95278 132.88736 133.82195 134.75653 135.69112 136.62572 137.5603 138.4949 139.4295 140.36409 141.29868 142.23326 143.16786 144.10245 145.03704 145.97164 146.90622 147.84084 148.7754 149.71 150.64459 151.57918 152.51378 153.44837 154.38297 155.31755 156.25214 157.18674 158.12133 159.05593 159.99051 160.9251 161.8597 162.79428 163.72887 164.66345 165.59807 166.53266 167.46724 168.40184 169.33643 170.27101 171.2056 172.14019 173.07479 174.00939 174.94399 175.87857 176.81316 177.74776 178.68233 179.61693 180.55152 181.4861 182.42072 183.3553 184.2899 185.22449 186.15908 187.09366 188.02825 188.96285 189.89743 190.83203"/>
<path transform="matrix(1.00006,0,0,-1.00002,13.538773,68.987079)" stroke-width="1.19553" stroke-linecap="butt" stroke-miterlimit="10" stroke-linejoin="miter" fill="none" stroke="#009900" d="M96.37984 24.09494H97.33353 98.28725 99.24095 100.19467 101.14838 102.10208 103.05579 104.0095 104.96321 105.91693 106.87064 107.82434 108.77805 109.73177 110.68547 111.63919 112.5929 113.5466 114.5003 115.45401 116.40773 117.36143 118.31516 119.26886 120.22258 121.17627 122.12999 123.0837 124.03741 124.99112 125.94482 126.89854 127.85225 128.80596 129.75968 130.71338 131.6671 132.62079 133.57453 134.52822 135.48194 136.43564 137.38935 138.34307 139.29677 140.25048 141.2042 142.1579 143.11162 144.0653 145.01905 145.97274 146.92644 147.88016 148.83386 149.78759 150.74129 151.695 152.64871 153.60242 154.55612 155.50983 156.46355 157.41725 158.37097 159.32468 160.27837 161.2321 162.18579 163.13953 164.09322 165.04695 166.00064 166.95435 167.90807 168.86177 169.81549 170.7692 171.7229 172.67662 173.63031 174.58405 175.53774 176.49147 177.44516 178.39888 179.35259 180.30629 181.26001 182.21372 183.16742 184.12114 185.07483 186.02857 186.98226 187.93598 188.88968 189.8434 190.7971"/>
<path transform="matrix(1.00006,0,0,-1.00002,13.538773,68.987079)" stroke-width=".79701" stroke-linecap="butt" stroke-dasharray="2.98883,2.98883" stroke-miterlimit="10" stroke-linejoin="miter" fill="none" stroke="#0000ff" d="M194.6873 24.09494H195.56824 196.44915 197.33007 198.21096 199.09189 199.9728 200.85372 201.7346 202.61554 203.49645 204.37737 205.25827 206.13919 207.0201 207.90102 208.78192 209.66284 210.54375 211.42467 212.30558 213.1865 214.0674 214.94832 215.82923 216.71016 217.59105 218.47197 219.35288 220.23381 221.1147 221.99562 222.87653 223.75746 224.63837 225.51927 226.40018 227.28112 228.16202 229.04293 229.92383 230.80477 231.68567 232.56658 233.44748 234.32842 235.20932 236.09024 236.97113 237.85207 238.73297 239.61389 240.49478 241.37572 242.25662 243.13755 244.01845 244.89937 245.78028 246.6612 247.54212 248.42302 249.30393 250.18485 251.06577 251.94669 252.82758 253.7085 254.58942 255.47034 256.35124 257.23216 258.11308 258.994 259.87489 260.7558 261.63673 262.51765 263.39854 264.27946 265.16038 266.0413 266.9222 267.8031 268.68403 269.56495 270.44587 271.32679 272.20768 273.0886 273.9695 274.85044 275.73133 276.61225 277.49317 278.37409 279.25498 280.1359 281.0168 281.8977"/>
<path transform="matrix(1.00006,0,0,-1.00002,13.538773,68.987079)" stroke-width=".79701" stroke-linecap="butt" stroke-dasharray="2.98883,2.98883" stroke-miterlimit="10" stroke-linejoin="miter" fill="none" stroke="#990000" d="M194.6873 24.09494H195.56824 196.44915 197.33007 198.21096 199.09189 199.9728 200.85372 201.7346 202.61554 203.49645 204.37737 205.25827 206.13919 207.0201 207.90102 208.78192 209.66284 210.54375 211.42467 212.30558 213.1865 214.0674 214.94832 215.82923 216.71016 217.59105 218.47197 219.35288 220.23381 221.1147 221.99562 222.87653 223.75746 224.63837 225.51927 226.40018 227.28112 228.16202 229.04293 229.92383 230.80477 231.68567 232.56658 233.44748 234.32842 235.20932 236.09024 236.97113 237.85207 238.73297 239.61389 240.49478 241.37572 242.25662 243.13755 244.01845 244.89937 245.78028 246.6612 247.54212 248.42302 249.30393 250.18485 251.06577 251.94669 252.82758 253.7085 254.58942 255.47034 256.35124 257.23216 258.11308 258.994 259.87489 260.7558 261.63673 262.51765 263.39854 264.27946 265.16038 266.0413 266.9222 267.8031 268.68403 269.56495 270.44587 271.32679 272.20768 273.0886 273.9695 274.85044 275.73133 276.61225 277.49317 278.37409 279.25498 280.1359 281.0168 281.8977"/>
<path transform="matrix(1.00006,0,0,-1.00002,13.538773,68.987079)" stroke-width="1.19553" stroke-linecap="butt" stroke-miterlimit="10" stroke-linejoin="miter" fill="none" stroke="#009900" d="M192.75968 0H193.66007 194.56046 195.46088 196.36127 197.26166 198.16207 199.06247 199.96286 200.86327 201.76366 202.66407 203.56447 204.46486 205.36525 206.26566 207.16606 208.06647 208.96685 209.86727 210.76766 211.66805 212.56845 213.46884 214.36925 215.26966 216.17005 217.07044 217.97086 218.87125 219.77165 220.67203 221.57245 222.47284 223.37325 224.27364 225.17404 226.07444 226.97486 227.87523 228.77564 229.67604 230.57645 231.47684 232.37725 233.27764 234.17804 235.07843 235.97882 236.87923 237.77962 238.68004 239.58042 240.48082 241.38123 242.28163 243.18202 244.08243 244.98282 245.88323 246.78362 247.68402 248.58441 249.48482 250.38523 251.28562 252.186 253.08643 253.98682 254.88722 255.78762 256.68803 257.5884 258.48884 259.3892 260.2896 261.19 262.09043 262.9908 263.8912 264.7916 265.692 266.5924 267.4928 268.3932 269.2936 270.194 271.0944 271.9948 272.8952 273.79563 274.69599 275.5964 276.4968 277.3972 278.29759 279.198 280.0984 280.9988 280.94276"/>
<path transform="matrix(1.00006,0,0,-1.00002,294.49836,68.987079)" stroke-width=".9564" stroke-linecap="round" stroke-linejoin="round" fill="none" stroke="#009900" d="M-1.91284 2.55046C-1.75343 1.59402 0 .15938 .4782 0 0-.15938-1.75343-1.59402-1.91284-2.55046"/>
<path transform="matrix(1.00006,0,0,-1.00002,13.538773,68.987079)" stroke-width=".79701" stroke-linecap="butt" stroke-miterlimit="10" stroke-linejoin="miter" fill="none" stroke="#009900" d="M98.92036 0C98.92036 1.40309 97.78293 2.54051 96.37984 2.54051 94.97675 2.54051 93.83931 1.40309 93.83931 0 93.83931-1.40309 94.97675-2.54051 96.37984-2.54051 97.78293-2.54051 98.92036-1.40309 98.92036 0ZM96.37984 0"/>
<path transform="matrix(1.00006,0,0,-1.00002,13.538773,68.987079)" d="M98.92036 24.09494C98.92036 25.49805 97.78293 26.63547 96.37984 26.63547 94.97675 26.63547 93.83931 25.49805 93.83931 24.09494 93.83931 22.69185 94.97675 21.55443 96.37984 21.55443 97.78293 21.55443 98.92036 22.69185 98.92036 24.09494ZM96.37984 24.09494" fill="#009900"/>
<path transform="matrix(1.00006,0,0,-1.00002,13.538773,68.987079)" stroke-width=".79701" stroke-linecap="butt" stroke-miterlimit="10" stroke-linejoin="miter" fill="none" stroke="#009900" d="M195.3002 24.09494C195.3002 25.49805 194.16278 26.63547 192.75968 26.63547 191.35659 26.63547 190.21916 25.49805 190.21916 24.09494 190.21916 22.69185 191.35659 21.55443 192.75968 21.55443 194.16278 21.55443 195.3002 22.69185 195.3002 24.09494ZM192.75968 24.09494"/>
<path transform="matrix(1.00006,0,0,-1.00002,13.538773,68.987079)" d="M195.3002 0C195.3002 1.40309 194.16278 2.54051 192.75968 2.54051 191.35659 2.54051 190.21916 1.40309 190.21916 0 190.21916-1.40309 191.35659-2.54051 192.75968-2.54051 194.16278-2.54051 195.3002-1.40309 195.3002 0ZM192.75968 0" fill="#009900"/>
<use data-text="u" xlink:href="#font_1_2" transform="matrix(10.037002,0,0,-10.036601,21.757267,93.40556)"/>
<use data-text="4" xlink:href="#font_2_7" transform="matrix(7.6079566,0,0,-7.6076529,28.292653,95.041599)"/>
<use data-text="(" xlink:href="#font_2_1" transform="matrix(10.037002,0,0,-10.036601,32.825925,93.40556)"/>
<use data-text="t" xlink:href="#font_1_1" transform="matrix(10.037002,0,0,-10.036601,36.557149,93.40556)"/>
<use data-text=")" xlink:href="#font_2_2" transform="matrix(10.037002,0,0,-10.036601,41.052427,93.40556)"/>
<use data-text="t" xlink:href="#font_2_20" transform="matrix(10.037002,0,0,-10.036601,46.813665,93.40556)"/>
<use data-text="u" xlink:href="#font_2_21" transform="matrix(10.037002,0,0,-10.036601,50.26639,93.40556)"/>
<use data-text="r" xlink:href="#font_2_18" transform="matrix(10.037002,0,0,-10.036601,56.34882,93.40556)"/>
<use data-text="n" xlink:href="#font_2_17" transform="matrix(10.037002,0,0,-10.036601,60.333509,93.40556)"/>
<use data-text="s" xlink:href="#font_2_19" transform="matrix(10.037002,0,0,-10.036601,66.54642,93.40556)"/>
<use data-text="O" xlink:href="#font_2_16" transform="matrix(10.037002,0,0,-10.036601,73.18088,93.40556)"/>
<use data-text="N" xlink:href="#font_2_15" transform="matrix(10.037002,0,0,-10.036601,80.82907,93.40556)"/>
<use data-text="u" xlink:href="#font_1_2" transform="matrix(10.037002,0,0,-10.036601,18.091046,10.941914)"/>
<use data-text="4" xlink:href="#font_2_7" transform="matrix(7.6079566,0,0,-7.6076529,24.62643,12.57795)"/>
<use data-text="(" xlink:href="#font_2_1" transform="matrix(10.037002,0,0,-10.036601,29.159703,10.941914)"/>
<use data-text="t" xlink:href="#font_1_1" transform="matrix(10.037002,0,0,-10.036601,32.890928,10.941914)"/>
<use data-text=")" xlink:href="#font_2_2" transform="matrix(10.037002,0,0,-10.036601,37.386205,10.941914)"/>
<use data-text="=" xlink:href="#font_3_2" transform="matrix(10.037002,0,0,-10.036601,42.765523,10.941914)"/>
<use data-text="0" xlink:href="#font_2_3" transform="matrix(10.037002,0,0,-10.036601,51.85506,10.941914)"/>
<use data-text="u" xlink:href="#font_1_2" transform="matrix(10.037002,0,0,-10.036601,66.283939,10.900913)"/>
<use data-text="8" xlink:href="#font_2_11" transform="matrix(7.6079566,0,0,-7.6076529,72.81932,12.536949)"/>
<use data-text="(" xlink:href="#font_2_1" transform="matrix(10.037002,0,0,-10.036601,77.35259,10.900913)"/>
<use data-text="t" xlink:href="#font_1_1" transform="matrix(10.037002,0,0,-10.036601,81.08382,10.900913)"/>
<use data-text=")" xlink:href="#font_2_2" transform="matrix(10.037002,0,0,-10.036601,85.579097,10.900913)"/>
<use data-text="=" xlink:href="#font_3_2" transform="matrix(10.037002,0,0,-10.036601,90.95841,10.900913)"/>
<use data-text="0" xlink:href="#font_2_3" transform="matrix(10.037002,0,0,-10.036601,100.04795,10.900913)"/>
<use data-text="0" xlink:href="#font_2_3" transform="matrix(10.037002,0,0,-10.036601,28.217652,62.976957)"/>
<use data-text="&#x2212;" xlink:href="#font_3_1" transform="matrix(10.037002,0,0,-10.036601,34.875047,62.976957)"/>
<use data-text="0" xlink:href="#font_2_3" transform="matrix(10.037002,0,0,-10.036601,43.430566,62.976957)"/>
<use data-text="=" xlink:href="#font_3_2" transform="matrix(10.037002,0,0,-10.036601,50.621995,62.976957)"/>
<use data-text="0" xlink:href="#font_2_3" transform="matrix(10.037002,0,0,-10.036601,59.71054,62.976957)"/>
<use data-text=":" xlink:href="#font_2_13" transform="matrix(10.037002,0,0,-10.036601,66.897029,62.976957)"/>
<use data-text="O" xlink:href="#font_2_16" transform="matrix(10.037002,0,0,-10.036601,75.94036,62.976957)"/>
<use data-text="F" xlink:href="#font_2_14" transform="matrix(10.037002,0,0,-10.036601,83.58856,62.976957)"/>
<use data-text="F" xlink:href="#font_2_14" transform="matrix(10.037002,0,0,-10.036601,89.42006,62.976957)"/>
<path transform="matrix(1.00006,0,0,-1.00002,13.538773,68.987079)" stroke-width=".79701" stroke-linecap="butt" stroke-miterlimit="10" stroke-linejoin="miter" fill="none" stroke="#000000" d="M79.51343-21.6853H94.46764"/>
<path transform="matrix(1.00006,0,0,-1.00002,108.01208,90.67281)" stroke-width=".6376" stroke-linecap="round" stroke-linejoin="round" fill="none" stroke="#000000" d="M-1.55415 2.0722C-1.42464 1.29512 0 .1295 .38852 0 0-.1295-1.42464-1.29512-1.55415-2.0722"/>
<use data-text="u" xlink:href="#font_1_2" transform="matrix(10.037002,0,0,-10.036601,120.55219,93.38457)"/>
<use data-text="8" xlink:href="#font_2_11" transform="matrix(7.6079566,0,0,-7.6076529,127.08758,95.0206)"/>
<use data-text="(" xlink:href="#font_2_1" transform="matrix(10.037002,0,0,-10.036601,131.62085,93.38457)"/>
<use data-text="t" xlink:href="#font_1_1" transform="matrix(10.037002,0,0,-10.036601,135.35208,93.38457)"/>
<use data-text=")" xlink:href="#font_2_2" transform="matrix(10.037002,0,0,-10.036601,139.84735,93.38457)"/>
<use data-text="t" xlink:href="#font_2_20" transform="matrix(10.037002,0,0,-10.036601,145.60858,93.38457)"/>
<use data-text="u" xlink:href="#font_2_21" transform="matrix(10.037002,0,0,-10.036601,149.06131,93.38457)"/>
<use data-text="r" xlink:href="#font_2_18" transform="matrix(10.037002,0,0,-10.036601,155.14374,93.38457)"/>
<use data-text="n" xlink:href="#font_2_17" transform="matrix(10.037002,0,0,-10.036601,159.12844,93.38457)"/>
<use data-text="s" xlink:href="#font_2_19" transform="matrix(10.037002,0,0,-10.036601,165.34134,93.38457)"/>
<use data-text="O" xlink:href="#font_2_16" transform="matrix(10.037002,0,0,-10.036601,171.9758,93.38457)"/>
<use data-text="N" xlink:href="#font_2_15" transform="matrix(10.037002,0,0,-10.036601,179.624,93.38457)"/>
<use data-text="u" xlink:href="#font_1_2" transform="matrix(10.037002,0,0,-10.036601,114.47682,10.941914)"/>
<use data-text="4" xlink:href="#font_2_7" transform="matrix(7.6079566,0,0,-7.6076529,121.01221,12.57795)"/>
<use data-text="(" xlink:href="#font_2_1" transform="matrix(10.037002,0,0,-10.036601,125.54548,10.941914)"/>
<use data-text="t" xlink:href="#font_1_1" transform="matrix(10.037002,0,0,-10.036601,129.2767,10.941914)"/>
<use data-text=")" xlink:href="#font_2_2" transform="matrix(10.037002,0,0,-10.036601,133.77198,10.941914)"/>
<use data-text="=" xlink:href="#font_3_2" transform="matrix(10.037002,0,0,-10.036601,139.1513,10.941914)"/>
<use data-text="1" xlink:href="#font_2_4" transform="matrix(10.037002,0,0,-10.036601,148.24085,10.941914)"/>
<use data-text="u" xlink:href="#font_1_2" transform="matrix(10.037002,0,0,-10.036601,162.66971,10.900913)"/>
<use data-text="8" xlink:href="#font_2_11" transform="matrix(7.6079566,0,0,-7.6076529,169.2051,12.536949)"/>
<use data-text="(" xlink:href="#font_2_1" transform="matrix(10.037002,0,0,-10.036601,173.73838,10.900913)"/>
<use data-text="t" xlink:href="#font_1_1" transform="matrix(10.037002,0,0,-10.036601,177.46959,10.900913)"/>
<use data-text=")" xlink:href="#font_2_2" transform="matrix(10.037002,0,0,-10.036601,181.96488,10.900913)"/>
<use data-text="=" xlink:href="#font_3_2" transform="matrix(10.037002,0,0,-10.036601,187.34418,10.900913)"/>
<use data-text="0" xlink:href="#font_2_3" transform="matrix(10.037002,0,0,-10.036601,196.43372,10.900913)"/>
<use data-text="1" xlink:href="#font_2_4" transform="matrix(10.037002,0,0,-10.036601,139.70835,24.571187)"/>
<use data-text="&#x2212;" xlink:href="#font_3_1" transform="matrix(10.037002,0,0,-10.036601,146.36574,24.571187)"/>
<use data-text="0" xlink:href="#font_2_3" transform="matrix(10.037002,0,0,-10.036601,154.92127,24.571187)"/>
<use data-text="=" xlink:href="#font_3_2" transform="matrix(10.037002,0,0,-10.036601,162.11269,24.571187)"/>
<use data-text="1" xlink:href="#font_2_4" transform="matrix(10.037002,0,0,-10.036601,171.20124,24.571187)"/>
<use data-text="O" xlink:href="#font_2_16" transform="matrix(10.037002,0,0,-10.036601,150.37699,38.881475)"/>
<use data-text="N" xlink:href="#font_2_15" transform="matrix(10.037002,0,0,-10.036601,158.02518,38.881475)"/>
<path transform="matrix(1.00006,0,0,-1.00002,13.538773,68.987079)" stroke-width=".79701" stroke-linecap="butt" stroke-miterlimit="10" stroke-linejoin="miter" fill="none" stroke="#000000" d="M175.89327-21.6853H190.84749"/>
<path transform="matrix(1.00006,0,0,-1.00002,204.3977,90.67281)" stroke-width=".6376" stroke-linecap="round" stroke-linejoin="round" fill="none" stroke="#000000" d="M-1.55415 2.0722C-1.42464 1.29512 0 .1295 .38852 0 0-.1295-1.42464-1.29512-1.55415-2.0722"/>
<use data-text="u" xlink:href="#font_1_2" transform="matrix(10.037002,0,0,-10.036601,209.0555,10.941914)"/>
<use data-text="4" xlink:href="#font_2_7" transform="matrix(7.6079566,0,0,-7.6076529,215.59088,12.57795)"/>
<use data-text="(" xlink:href="#font_2_1" transform="matrix(10.037002,0,0,-10.036601,220.12415,10.941914)"/>
<use data-text="t" xlink:href="#font_1_1" transform="matrix(10.037002,0,0,-10.036601,223.85538,10.941914)"/>
<use data-text=")" xlink:href="#font_2_2" transform="matrix(10.037002,0,0,-10.036601,228.35065,10.941914)"/>
<use data-text="=" xlink:href="#font_3_2" transform="matrix(10.037002,0,0,-10.036601,233.72998,10.941914)"/>
<use data-text="1" xlink:href="#font_2_4" transform="matrix(10.037002,0,0,-10.036601,242.81952,10.941914)"/>
<use data-text="u" xlink:href="#font_1_2" transform="matrix(10.037002,0,0,-10.036601,253.63317,10.900913)"/>
<use data-text="8" xlink:href="#font_2_11" transform="matrix(7.6079566,0,0,-7.6076529,260.16856,12.536949)"/>
<use data-text="(" xlink:href="#font_2_1" transform="matrix(10.037002,0,0,-10.036601,264.7018,10.900913)"/>
<use data-text="t" xlink:href="#font_1_1" transform="matrix(10.037002,0,0,-10.036601,268.43305,10.900913)"/>
<use data-text=")" xlink:href="#font_2_2" transform="matrix(10.037002,0,0,-10.036601,272.9283,10.900913)"/>
<use data-text="=" xlink:href="#font_3_2" transform="matrix(10.037002,0,0,-10.036601,278.30766,10.900913)"/>
<use data-text="0" xlink:href="#font_2_3" transform="matrix(10.037002,0,0,-10.036601,287.3972,10.900913)"/>
<use data-text="1" xlink:href="#font_2_4" transform="matrix(10.037002,0,0,-10.036601,232.47989,24.571187)"/>
<use data-text="&#x2212;" xlink:href="#font_3_1" transform="matrix(10.037002,0,0,-10.036601,239.13729,24.571187)"/>
<use data-text="1" xlink:href="#font_2_4" transform="matrix(10.037002,0,0,-10.036601,247.69281,24.571187)"/>
<use data-text="=" xlink:href="#font_3_2" transform="matrix(10.037002,0,0,-10.036601,254.88423,24.571187)"/>
<use data-text="0" xlink:href="#font_2_3" transform="matrix(10.037002,0,0,-10.036601,263.97279,24.571187)"/>
<use data-text="O" xlink:href="#font_2_16" transform="matrix(10.037002,0,0,-10.036601,241.23844,62.976957)"/>
<use data-text="F" xlink:href="#font_2_14" transform="matrix(10.037002,0,0,-10.036601,248.88663,62.976957)"/>
<use data-text="F" xlink:href="#font_2_14" transform="matrix(10.037002,0,0,-10.036601,254.7081,62.976957)"/>
</svg>
