<svg xmlns="http://www.w3.org/2000/svg" xmlns:xlink="http://www.w3.org/1999/xlink" version="1.1" width="80" height="115" viewBox="0 0 80 115">
<defs>
<path id="font_1_1" d="M.42799378 .45222474 .43899537 .49023438H.31199647L.34599305 .6092224 .33399964 .6162262 .23699951 .53923037 .22399903 .49023438H.14299011L.13198853 .45222474H.21499634L.125 .08627319C.10998535 .029266358 .12199402-.01171875 .17199707-.01171875 .2519989-.01171875 .31599427 .054275514 .35598756 .1292572L.33399964 .1462555C.31098939 .10726929 .2599945 .040267946 .22898865 .040267946 .20799256 .040267946 .20799256 .0632782 .21398926 .088272098L.30299378 .45222474H.42799378Z"/>
<path id="font_1_2" d="M.5069885 .1381836C.48298646 .0932312 .45599366 .040267946 .42799378 .040267946 .40899659 .040267946 .40098573 .06324768 .3789978 .1521759L.34700013 .2830658C.3829956 .34701539 .43399049 .42694093 .46299745 .42694093 .47200013 .42694093 .47999574 .42494203 .4909973 .4189453 .5009918 .4149475 .5109863 .4109497 .522995 .4109497 .54499819 .4109497 .56599429 .4319458 .56599429 .4589386 .56599429 .48994447 .54299929 .5019531 .5149994 .5019531 .46199037 .5019531 .4169922 .45394898 .38198854 .39796449L.33799745 .33003236H.33599855L.29599 .49794007 .2899933 .5019531 .125 .45195008 .12799073 .427948 .20298767 .43295289C.22099304 .4339447 .22799683 .42893983 .23899842 .38298036L.2749939 .2381134 .24699402 .19015503C.20399475 .11723328 .16699219 .0652771 .14299011 .0652771 .1329956 .0652771 .12298584 .0692749 .11399841 .07426453 .10398865 .07926941 .09098816 .089279178 .07398987 .089279178 .04798889 .089279178 .0309906 .0632782 .0309906 .039276124 .0309906 .010269165 .054992677-.01171875 .09498596-.01171875 .16299439-.01171875 .20199585 .056259157 .24299622 .12319946L.2829895 .18914795H.2849884L.30299378 .111206058C.32199098 .031280519 .34098817-.01171875 .3919983-.01171875 .46499635-.01171875 .5029907 .06324768 .5329895 .12420654L.5069885 .1381836Z"/>
<path id="font_2_1" d="M.1749878 .2822113C.1749878 .56832888 .2619934 .65437319 .32499696 .66737368V.6923828C.1499939 .685379 .10499573 .46829225 .10499573 .2822113 .10499573 .09614563 .1499939-.12094116 .32499696-.12792969V-.10293579C.2669983-.090927127 .1749878-.0059051516 .1749878 .2822113Z"/>
<path id="font_2_2" d="M.1749878 .2822113C.1749878-.0059051516 .08299255-.090927127 .024993897-.10293579V-.12792969C.19999695-.12094116 .24499512 .09614563 .24499512 .2822113 .24499512 .46829225 .19999695 .685379 .024993897 .6923828V.66737368C.08799744 .65437319 .1749878 .56832888 .1749878 .2822113Z"/>
<path id="font_2_3" d="M.069992069-.140625C.11999512-.09362793 .19299317-.027633667 .19299317 .051361085 .19299317 .10636902 .1599884 .1423645 .125 .14137268 .09399414 .14137268 .07598877 .117370609 .07598877 .09136963 .07598877 .055374147 .10899353 .037368776 .10899353-.005630493 .10899353-.04663086 .08299255-.086639408 .050994874-.12162781L.069992069-.140625Z"/>
<path id="font_1_3" d="M.070999149 .45393373 .07398987 .42893983 .14199829 .43093873C.1639862 .43193055 .16899109 .41493226 .1769867 .36291505 .18798828 .28489686 .20999146 .09286499 .20999146 .0128479 .20999146-.017166138 .20799256-.058166505 .18598938-.11117554 .16799927-.15318299 .14199829-.18218994 .12199402-.18218994 .10699463-.18218994 .09599304-.17118836 .08099365-.15118408 .068984989-.13517761 .06098938-.127182 .04598999-.127182 .019989014-.12818909-.005004883-.15818787-.005004883-.18719483-.005004883-.21418762 .023986817-.2421875 .067993167-.2421875 .15299988-.2421875 .18998719-.17919922 .27799989-.027160645 .2979889 .0068511965 .35798646 .11286926 .41999818 .21488953 .47698976 .30891419 .5399933 .40592958 .5399933 .4459381 .5399933 .48094178 .5289917 .5019531 .5219879 .5019531 .5029907 .5019531 .46899415 .49394227 .44400025 .47694398 .44499208 .4419403 .44299317 .3809204 .43099977 .33891297 .4149933 .28289796 .35598756 .17488098 .2899933 .06085205H.2869873C.27999879 .21388245 .26098634 .42492677 .24699402 .49795533L.23899842 .5019531 .070999149 .45393373Z"/>
</defs>
<path transform="matrix(1.00005,0,0,-1.00002,20.827485,63.656038)" stroke-width=".3985" stroke-linecap="butt" stroke-miterlimit="10" stroke-linejoin="miter" fill="none" stroke="#000000" d="M0 0H49.49197"/>
<path transform="matrix(1.00005,0,0,-1.00002,70.52121,63.656038)" stroke-width=".3985" stroke-linecap="round" stroke-linejoin="round" fill="none" stroke="#000000" d="M-2.07224 2.39104C-1.69365 .95639-.84999 .27895 0 0-.84999-.27895-1.69365-.95639-2.07224-2.39104"/>
<use data-text="t" xlink:href="#font_1_1" transform="matrix(10.036901,0,0,-10.036601,74.337169,66.70509)"/>
<path transform="matrix(1.00005,0,0,-1.00002,20.827485,63.656038)" stroke-width=".3985" stroke-linecap="butt" stroke-miterlimit="10" stroke-linejoin="miter" fill="none" stroke="#000000" d="M0-49.89049V49.49197"/>
<path transform="matrix(0,-1.00002,-1.00005,-0,20.827485,13.963802)" stroke-width=".3985" stroke-linecap="round" stroke-linejoin="round" fill="none" stroke="#000000" d="M-2.07224 2.39104C-1.69365 .95639-.84999 .27895 0 0-.84999-.27895-1.69365-.95639-2.07224-2.39104"/>
<use data-text="x" xlink:href="#font_1_2" transform="matrix(10.036901,0,0,-10.036601,1.3115158,7.8999178)"/>
<use data-text="(" xlink:href="#font_2_1" transform="matrix(10.036901,0,0,-10.036601,7.191803,7.8999178)"/>
<use data-text="t" xlink:href="#font_1_1" transform="matrix(10.036901,0,0,-10.036601,10.922989,7.8999178)"/>
<use data-text=")" xlink:href="#font_2_2" transform="matrix(10.036901,0,0,-10.036601,15.4182209,7.8999178)"/>
<use data-text="," xlink:href="#font_2_3" transform="matrix(10.036901,0,0,-10.036601,18.931138,7.8999178)"/>
<use data-text="y" xlink:href="#font_1_3" transform="matrix(10.036901,0,0,-10.036601,23.204613,7.8999178)"/>
<use data-text="(" xlink:href="#font_2_1" transform="matrix(10.036901,0,0,-10.036601,28.823899,7.8999178)"/>
<use data-text="t" xlink:href="#font_1_1" transform="matrix(10.036901,0,0,-10.036601,32.554086,7.8999178)"/>
<use data-text=")" xlink:href="#font_2_2" transform="matrix(10.036901,0,0,-10.036601,37.04931,7.8999178)"/>
<path transform="matrix(1.00005,0,0,-1.00002,20.827485,63.656038)" stroke-width=".79701" stroke-linecap="butt" stroke-miterlimit="10" stroke-linejoin="miter" fill="none" stroke="#000000" d="M0 22.67752 .2287 22.45363 .45743 22.22905 .68614 22.00691 .91489 21.78474 1.14362 21.56676 1.37233 21.34909 1.60106 21.13594 1.82979 20.92487 2.05852 20.71413 2.28725 20.50513 2.51596 20.30098 2.7447 20.09714 2.97342 19.89507 3.20215 19.69542 3.43088 19.49817 3.6596 19.30093 3.88834 19.10785 4.11707 18.91512 4.3458 18.72687 4.57452 18.53862 4.80324 18.35281 5.03197 18.16907 5.2607 17.98532 5.48943 17.80609 5.71815 17.62683 5.94687 17.45001 6.17561 17.27527 6.40434 17.10052 6.63306 16.93027 6.86179 16.76038 7.09052 16.59254 7.31924 16.42471 7.54797 16.2614 7.77669 16.09807 8.00543 15.93474 8.23415 15.77592 8.46288 15.6171 8.6916 15.46068 8.92033 15.30635 9.14906 15.15202 9.37778 15.0001 9.60652 14.8482 9.83525 14.70079 10.06396 14.55338 10.2927 14.40596 10.52142 14.26305 10.75015 14.12015 10.97888 13.97723 11.2076 13.83641 11.43634 13.698 11.66505 13.55959 11.89378 13.42358 12.12251 13.28969 12.35124 13.1561 12.57997 13.02426 12.80869 12.89278 13.03741 12.7637 13.26614 12.63637 13.49486 12.50938 13.72359 12.38237 13.95232 12.25989 14.18105 12.13739 14.40977 12.0149 14.63849 11.89482 14.86723 11.7744 15.09595 11.65675 15.32468 11.53876 15.5534 11.42284 15.78214 11.3097 16.01086 11.19617 16.2396 11.08267 16.4683 10.9716 16.69705 10.86261 16.92577 10.75395 17.1545 10.64494 17.38322 10.53839 17.61195 10.4318 17.84068 10.3273 18.0694 10.22314 18.29814 10.12106 18.52687 10.01898 18.75558 9.91898 18.98431 9.81932 19.21304 9.72174 19.44177 9.62416 19.6705 9.52657 19.89922 9.43141 20.12796 9.33626 20.35667 9.24318 20.5854 9.1501 20.81413 9.05945 21.04286 8.96635 21.27159 8.87776 21.5003 8.7871 21.72905 8.70096 21.95778 8.6127 22.1865 8.5262 22.41522 8.44003 22.64395 8.35631"/>
</svg>
