<svg xmlns="http://www.w3.org/2000/svg" xmlns:xlink="http://www.w3.org/1999/xlink" version="1.1" width="240" height="132" viewBox="0 0 240 132">
<defs>
<path id="font_1_1" d="M.42799378 .45222474 .43899537 .49023438H.31199647L.34599305 .6092224 .33399964 .6162262 .23699951 .53923037 .22399903 .49023438H.14299011L.13198853 .45222474H.21499634L.125 .08627319C.10998535 .029266358 .12199402-.01171875 .17199707-.01171875 .2519989-.01171875 .31599427 .054275514 .35598756 .1292572L.33399964 .1462555C.31098939 .10726929 .2599945 .040267946 .22898865 .040267946 .20799256 .040267946 .20799256 .0632782 .21398926 .088272098L.30299378 .45222474H.42799378Z"/>
<path id="font_2_1" d="M.6349945 .2529297V.31092835H.084991458V.2529297H.6349945Z"/>
<path id="font_3_2" d="M.43699647 0V.0289917L.35299684 .035995485C.33198548 .037994386 .31999208 .04598999 .31999208 .08496094V.67367556L.31498719 .6796875 .10899353 .6446991V.6197052L.20199585 .6087036C.21899414 .6067047 .22599793 .5987091 .22599793 .56973269V.08496094C.22599793 .065979007 .22299195 .053985597 .21699524 .04698181 .21199036 .039993287 .20399475 .036987306 .19299317 .035995485L.10899353 .0289917V0H.43699647Z"/>
<path id="font_3_3" d="M.4850006 .13195801 .45700074 .13696289C.43598939 .08299255 .41600038 .07598877 .37599183 .07598877H.11999512C.13598633 .1279602 .19499207 .19892884 .28799439 .2658844 .38398744 .33584596 .45799256 .38082887 .45799256 .49276734 .45799256 .63168337 .3659973 .6796875 .26098634 .6796875 .12399292 .6796875 .052993776 .5967102 .052993776 .54473879 .052993776 .51075747 .09098816 .49476625 .10798645 .49476625 .12599182 .49476625 .1329956 .50476077 .13699341 .5217438 .15299988 .5897064 .19198609 .64468386 .2539978 .64468386 .33099366 .64468386 .35299684 .5797119 .35299684 .50675967 .35299684 .3998108 .29899598 .33984376 .21199036 .26289369 .08898926 .15594483 .04598999 .08798218 .026992798 .009994507L.036987306 0H.45098878L.4850006 .13195801Z"/>
<path id="font_3_4" d="M.12998963 .3657837C.12998963 .3487854 .1349945 .33779908 .147995 .33779908 .1599884 .33779908 .18699646 .34777833 .23498535 .34777833 .31999208 .34777833 .36799623 .27090455 .36799623 .18403626 .36799623 .065216068 .30899049 .023269654 .23799134 .023269654 .17199707 .023269654 .1289978 .07319641 .10998535 .12911988 .10398865 .14808655 .09399414 .15707398 .07998657 .15707398 .06199646 .15707398 .026992798 .13809204 .026992798 .10215759 .026992798 .05921936 .09599304-.01171875 .23699951-.01171875 .38198854-.01171875 .47299195 .06121826 .47299195 .18902588 .47299195 .32281495 .35798646 .3627777 .30299378 .3677826V.3717804C.35699464 .38078309 .44400025 .4207611 .44400025 .5197296 .44400025 .6306915 .35699464 .6796875 .25 .6796875 .117996219 .6796875 .052993776 .60369876 .052993776 .5607147 .052993776 .5297241 .08799744 .51272585 .101989749 .51272585 .114990238 .51272585 .12298584 .5197296 .1269989 .5327301 .14898682 .60069277 .18699646 .64468386 .24299622 .64468386 .32199098 .64468386 .34098817 .57470706 .34098817 .51872256 .34098817 .4587555 .31999208 .38378907 .23498535 .38378907 .18699646 .38378907 .1599884 .39378358 .147995 .39378358 .1349945 .39378358 .12998963 .38378907 .12998963 .3657837Z"/>
<path id="font_3_5" d="M.2999878 .17871094V.0769043C.2999878 .04296875 .2889862 .036987306 .2649994 .034988405L.20098877 .0289917V0H.46499635V.0289917L.41999818 .033981325C.39698792 .036987306 .3899994 .04296875 .3899994 .0769043V.17871094H.49299623V.22570801H.3899994V.66796877H.31698609C.22299195 .5298767 .11099243 .35577394 .018997193 .19970703L.027999878 .17871094H.2999878M.09098816 .22570801C.15098572 .33476258 .22099304 .4498291 .2979889 .5709076H.2999878V.22570801H.09098816Z"/>
<path id="font_3_6" d="M.42599488 .5919647 .44999696 .6599579 .44499208 .66796877H.11099243L.100997928 .65896609 .08099365 .32388307 .10499573 .31188966C.14698792 .35983277 .18798828 .3828125 .24198914 .3828125 .30599977 .3828125 .37599183 .3358612 .37599183 .20404053 .37599183 .10116577 .33399964 .023269654 .24699402 .023269654 .1769867 .023269654 .14099121 .07420349 .12098694 .13113404 .115997318 .14611817 .10699463 .15510559 .09298706 .15510559 .07299805 .15510559 .039993287 .13513184 .039993287 .10217285 .039993287 .056228639 .10998535-.01171875 .23999024-.01171875 .40499879-.01171875 .47999574 .0881958 .47999574 .21502686 .47999574 .35484315 .3919983 .4268036 .272995 .4268036 .21798706 .4268036 .15899658 .4028015 .1269989 .3738098L.125 .37580873 .147995 .56292727C.15098572 .58795168 .1579895 .5919647 .1769867 .5919647H.42599488Z"/>
<path id="font_3_7" d="M.27198792-.01171875C.41999818-.01171875 .49899293 .07821655 .49899293 .2140503 .49899293 .3488922 .4119873 .42385865 .30799867 .421875 .23199463 .42385865 .17199707 .36886598 .14498902 .33590699H.14299011C.14399719 .5557556 .20698548 .64468386 .29699708 .64468386 .34298707 .64468386 .375 .6057129 .3899994 .5487671 .3929901 .5367737 .40098573 .527771 .41600038 .527771 .43798829 .527771 .46899415 .5447693 .46899415 .57273867 .46899415 .6127014 .41999818 .6796875 .2999878 .6796875 .22099304 .6796875 .16499329 .64967349 .12298584 .6017151 .07798767 .5497589 .04399109 .45384217 .04399109 .3089447 .04399109 .093185428 .12199402-.01171875 .27198792-.01171875M.27398683 .37086488C.33699037 .37086488 .39898683 .31393434 .39898683 .19906616 .39898683 .094192508 .35798646 .023269654 .27398683 .023269654 .18699646 .023269654 .14498902 .11616516 .14498902 .23602295 .14498902 .2969513 .18998719 .37086488 .27398683 .37086488Z"/>
<path id="font_1_2" d="M.070999149 .45393373 .07398987 .42893983 .14199829 .43093873C.1639862 .43193055 .16899109 .41493226 .1769867 .36291505 .18798828 .28489686 .20999146 .09286499 .20999146 .0128479 .20999146-.017166138 .20799256-.058166505 .18598938-.11117554 .16799927-.15318299 .14199829-.18218994 .12199402-.18218994 .10699463-.18218994 .09599304-.17118836 .08099365-.15118408 .068984989-.13517761 .06098938-.127182 .04598999-.127182 .019989014-.12818909-.005004883-.15818787-.005004883-.18719483-.005004883-.21418762 .023986817-.2421875 .067993167-.2421875 .15299988-.2421875 .18998719-.17919922 .27799989-.027160645 .2979889 .0068511965 .35798646 .11286926 .41999818 .21488953 .47698976 .30891419 .5399933 .40592958 .5399933 .4459381 .5399933 .48094178 .5289917 .5019531 .5219879 .5019531 .5029907 .5019531 .46899415 .49394227 .44400025 .47694398 .44499208 .4419403 .44299317 .3809204 .43099977 .33891297 .4149933 .28289796 .35598756 .17488098 .2899933 .06085205H.2869873C.27999879 .21388245 .26098634 .42492677 .24699402 .49795533L.23899842 .5019531 .070999149 .45393373Z"/>
<path id="font_3_10" d="M.18899536 .5019531 .036987306 .47694398V.45195008L.07499695 .4469452C.100997928 .4429474 .10699463 .4379425 .10699463 .40194703V.08699036C.10699463 .035995485 .101989749 .033996583 .03199768 .0289917V0H.29599V.0289917C.20698548 .033996583 .20098877 .035995485 .20098877 .08699036V.32095338C.20098877 .39794923 .23498535 .4239502 .2579956 .4239502 .27398683 .4239502 .29100038 .4179535 .31999208 .40194703 .32699586 .39794923 .33499146 .39694215 .33999635 .39694215 .3639984 .39694215 .38598634 .4219513 .38598634 .4529419 .38598634 .47494508 .37199403 .5019531 .33299256 .5019531 .29699708 .5019531 .2669983 .47994996 .20098877 .4219513L.18899536 .5019531Z"/>
<path id="font_3_9" d="M.036987306 .47694398V.45195008L.07499695 .4469452C.100997928 .4429474 .10699463 .43795777 .10699463 .40194703V.08699036C.10699463 .035995485 .10398865 .033996583 .03199768 .0289917V0H.27598573V.0289917C.20498657 .033996583 .20098877 .035995485 .20098877 .08699036V.49609376L.19400025 .5020752 .036987306 .47694398M.15299988 .71484377C.116989139 .71484377 .09199524 .6888428 .09199524 .65283206 .09199524 .61782839 .116989139 .5928345 .15299988 .5928345 .18998719 .5928345 .21299744 .61782839 .21398926 .65283206 .21398926 .6888428 .18998719 .71484377 .15299988 .71484377Z"/>
<path id="font_3_11" d="M.36698915 .35102845V.46794129C.33399964 .49194337 .2829895 .5019531 .23799134 .5019531 .12998963 .5019531 .056991579 .45095826 .055999757 .35603334 .056991579 .27308656 .12399292 .2361145 .20698548 .21113587 .2519989 .19714356 .31498719 .17416382 .31498719 .10621643 .31498719 .055252077 .2749939 .023269654 .22200012 .023269654 .14099121 .023269654 .09599304 .082229617 .07598877 .16716004H.04699707L.056991579 .03627014C.09298706 .004272461 .1539917-.01171875 .21299744-.01171875 .33198548-.01171875 .3999939 .051254274 .3999939 .13618469 .3999939 .2241211 .34599305 .26409913 .24299622 .29606629 .20199585 .30906678 .13598633 .3300476 .13598633 .3860016 .13699341 .43795777 .17599488 .46694947 .22599793 .46694947 .29699708 .46694947 .33099366 .4119873 .33799745 .35102845H.36698915Z"/>
<path id="font_3_8" d="M.44099427 .2627716C.46199037 .2627716 .48098756 .2677765 .48098756 .30078126 .48098756 .35983277 .46199037 .5019531 .2789917 .5019531 .12298584 .5019531 .04899597 .39086915 .04899597 .24082947 .04899597 .08317566 .116989139-.01373291 .27999879-.01171875 .3909912-.010726929 .44799806 .050247194 .47499085 .1290741L.44499208 .14503479C.4169922 .08717346 .3789978 .039276124 .2999878 .039276124 .17599488 .039276124 .15098572 .15901184 .15299988 .2627716H.44099427M.1539917 .30078126C.1539917 .34181214 .16899109 .46694947 .272995 .46694947 .3659973 .46694947 .3769989 .37184144 .3769989 .33280946 .3769989 .31378175 .37098695 .30078126 .34298707 .30078126H.1539917Z"/>
<path id="font_3_1" d="M.2649994 .64468386C.3600006 .64468386 .3869934 .49682618 .3869934 .33398438 .3869934 .17112732 .3600006 .023269654 .2649994 .023269654 .16999817 .023269654 .14299011 .17112732 .14299011 .33398438 .14299011 .49682618 .16999817 .64468386 .2649994 .64468386M.2649994 .6796875C.099990848 .6796875 .040985109 .53378298 .040985109 .33398438 .040985109 .13417053 .099990848-.01171875 .2649994-.01171875 .42999269-.01171875 .4889984 .13417053 .4889984 .33398438 .4889984 .53378298 .42999269 .6796875 .2649994 .6796875Z"/>
</defs>
<path transform="matrix(1.00006,0,0,-1.00009,52.10045,47.038156)" stroke-width=".3985" stroke-linecap="butt" stroke-miterlimit="10" stroke-linejoin="miter" fill="none" stroke="#cbcbcb" d="M-51.02432 0H183.79598"/>
<path transform="matrix(1.00006,0,0,-1.00009,235.90744,47.038156)" stroke-width=".31879" stroke-linecap="round" stroke-linejoin="round" fill="none" stroke="#cbcbcb" d="M-1.19551 1.59401C-1.09587 .99626 0 .09961 .29886 0 0-.09961-1.09587-.99626-1.19551-1.59401"/>
<use data-text="t" xlink:href="#font_1_1" transform="matrix(10.037002,0,0,-10.037303,234.22838,56.623018)" fill="#cbcbcb"/>
<path transform="matrix(1.00006,0,0,-1.00009,52.10045,47.038156)" stroke-width=".3985" stroke-linecap="butt" stroke-miterlimit="10" stroke-linejoin="miter" fill="none" stroke="#000000" d="M-28.3468-2.83484V2.83484"/>
<use data-text="&#x2212;" xlink:href="#font_2_1" transform="matrix(10.037002,0,0,-10.037303,17.478379,57.158067)"/>
<use data-text="1" xlink:href="#font_3_2" transform="matrix(10.037002,0,0,-10.037303,24.70082,57.158067)"/>
<path transform="matrix(1.00006,0,0,-1.00009,52.10045,47.038156)" stroke-width=".3985" stroke-linecap="butt" stroke-miterlimit="10" stroke-linejoin="miter" fill="none" stroke="#000000" d="M28.3468-2.83484V2.83484"/>
<use data-text="1" xlink:href="#font_3_2" transform="matrix(10.037002,0,0,-10.037303,77.78699,57.158067)"/>
<path transform="matrix(1.00006,0,0,-1.00009,52.10045,47.038156)" stroke-width=".3985" stroke-linecap="butt" stroke-miterlimit="10" stroke-linejoin="miter" fill="none" stroke="#000000" d="M56.69362-2.83484V2.83484"/>
<use data-text="2" xlink:href="#font_3_3" transform="matrix(10.037002,0,0,-10.037303,106.13569,57.158067)"/>
<path transform="matrix(1.00006,0,0,-1.00009,52.10045,47.038156)" stroke-width=".3985" stroke-linecap="butt" stroke-miterlimit="10" stroke-linejoin="miter" fill="none" stroke="#000000" d="M85.04042-2.83484V2.83484"/>
<use data-text="3" xlink:href="#font_3_4" transform="matrix(10.037002,0,0,-10.037303,134.48438,57.158067)"/>
<path transform="matrix(1.00006,0,0,-1.00009,52.10045,47.038156)" stroke-width=".3985" stroke-linecap="butt" stroke-miterlimit="10" stroke-linejoin="miter" fill="none" stroke="#000000" d="M113.38724-2.83484V2.83484"/>
<use data-text="4" xlink:href="#font_3_5" transform="matrix(10.037002,0,0,-10.037303,162.83209,57.158067)"/>
<path transform="matrix(1.00006,0,0,-1.00009,52.10045,47.038156)" stroke-width=".3985" stroke-linecap="butt" stroke-miterlimit="10" stroke-linejoin="miter" fill="none" stroke="#000000" d="M141.73404-2.83484V2.83484"/>
<use data-text="5" xlink:href="#font_3_6" transform="matrix(10.037002,0,0,-10.037303,191.1808,57.158067)"/>
<path transform="matrix(1.00006,0,0,-1.00009,52.10045,47.038156)" stroke-width=".3985" stroke-linecap="butt" stroke-miterlimit="10" stroke-linejoin="miter" fill="none" stroke="#000000" d="M170.08086-2.83484V2.83484"/>
<use data-text="6" xlink:href="#font_3_7" transform="matrix(10.037002,0,0,-10.037303,219.5295,57.158067)"/>
<path transform="matrix(1.00006,0,0,-1.00009,52.10045,47.038156)" stroke-width=".3985" stroke-linecap="butt" stroke-miterlimit="10" stroke-linejoin="miter" fill="none" stroke="#cbcbcb" d="M0-79.37114V42.06192"/>
<path transform="matrix(0,-1.00009,-1.00006,-0,52.10045,4.9724504)" stroke-width=".31879" stroke-linecap="round" stroke-linejoin="round" fill="none" stroke="#cbcbcb" d="M-1.19551 1.59401C-1.09587 .99626 0 .09961 .29886 0 0-.09961-1.09587-.99626-1.19551-1.59401"/>
<use data-text="y" xlink:href="#font_1_2" transform="matrix(10.037002,0,0,-10.037303,43.082925,5.763439)" fill="#cbcbcb"/>
<path transform="matrix(1.00006,0,0,-1.00009,52.10045,47.038156)" stroke-width=".3985" stroke-linecap="butt" stroke-miterlimit="10" stroke-linejoin="miter" fill="none" stroke="#000000" d="M-2.83484-56.69362H2.83484"/>
<use data-text="&#x2212;" xlink:href="#font_2_1" transform="matrix(10.037002,0,0,-10.037303,38.989664,107.09756)"/>
<use data-text="2" xlink:href="#font_3_3" transform="matrix(10.037002,0,0,-10.037303,46.212106,107.09756)"/>
<path transform="matrix(1.00006,0,0,-1.00009,52.10045,47.038156)" stroke-width=".3985" stroke-linecap="butt" stroke-miterlimit="10" stroke-linejoin="miter" fill="none" stroke="#000000" d="M-2.83484-28.3468H2.83484"/>
<use data-text="&#x2212;" xlink:href="#font_2_1" transform="matrix(10.037002,0,0,-10.037303,38.989664,78.74801)"/>
<use data-text="1" xlink:href="#font_3_2" transform="matrix(10.037002,0,0,-10.037303,46.212106,78.74801)"/>
<path transform="matrix(1.00006,0,0,-1.00009,52.10045,47.038156)" stroke-width=".3985" stroke-linecap="butt" stroke-miterlimit="10" stroke-linejoin="miter" fill="none" stroke="#000000" d="M-2.83484 28.3468H2.83484"/>
<use data-text="1" xlink:href="#font_3_2" transform="matrix(10.037002,0,0,-10.037303,46.212099,22.048907)"/>
<path transform="matrix(1.00006,0,0,-1.00009,52.10045,47.038156)" stroke-width="1.19553" stroke-linecap="butt" stroke-miterlimit="10" stroke-linejoin="miter" fill="none" stroke="#000000" d="M-50.16896-81.77788-41.22128-77.30405-31.41824-72.40251-21.6152-67.501-11.81216-62.59947-2.00911-57.69797 7.79388-52.79688 17.59692-47.89534 27.39996-42.99384 37.203-38.0923 47.00604-33.1908 56.80908-28.28926 66.61212-23.38776 76.41518-18.48622 86.21822-13.5847 96.02126-8.68318 105.8243-3.78166 115.62733 1.11983 125.43037 6.02135 135.23342 10.92287 145.03646 15.82439 154.8395 20.7259 164.64255 25.62743 174.44559 30.52896 183.39325 35.00279"/>
<path transform="matrix(-.89441367,.44721023,.4471968,.8944405,1.9284897,128.8234)" stroke-width=".9564" stroke-linecap="round" stroke-linejoin="round" fill="none" stroke="#000000" d="M-1.91284 2.55046C-1.75343 1.59402 0 .15938 .4782 0 0-.15938-1.75343-1.59402-1.91284-2.55046"/>
<path transform="matrix(.89441367,-.44721023,-.4471968,-.8944405,235.50469,12.032215)" stroke-width=".9564" stroke-linecap="round" stroke-linejoin="round" fill="none" stroke="#000000" d="M-1.91284 2.55046C-1.75343 1.59402 0 .15938 .4782 0 0-.15938-1.75343-1.59402-1.91284-2.55046"/>
<path transform="matrix(1.00006,0,0,-1.00009,52.10045,47.038156)" stroke-width=".3985" stroke-linecap="butt" stroke-miterlimit="10" stroke-linejoin="miter" fill="none" stroke="#000000" d="M0-56.69362V-28.80508"/>
<path transform="matrix(0,-1.00009,-1.00006,-0,52.10045,75.845829)" stroke-width=".31879" stroke-linecap="round" stroke-linejoin="round" fill="none" stroke="#000000" d="M-1.19551 1.59401C-1.09587 .99626 0 .09961 .29886 0 0-.09961-1.09587-.99626-1.19551-1.59401"/>
<use data-text="r" xlink:href="#font_3_10" transform="matrix(10.037002,0,0,-10.037303,32.260255,78.911029)"/>
<use data-text="i" xlink:href="#font_3_9" transform="matrix(10.037002,0,0,-10.037303,36.23491,78.911029)"/>
<use data-text="s" xlink:href="#font_3_11" transform="matrix(10.037002,0,0,-10.037303,39.165727,78.911029)"/>
<use data-text="e" xlink:href="#font_3_8" transform="matrix(10.037002,0,0,-10.037303,43.541856,78.911029)"/>
<path transform="matrix(1.00006,0,0,-1.00009,52.10045,47.038156)" stroke-width=".3985" stroke-linecap="butt" stroke-miterlimit="10" stroke-linejoin="miter" fill="none" stroke="#000000" d="M0-28.3468H56.23534"/>
<path transform="matrix(1.00006,0,0,-1.00009,108.33916,75.387508)" stroke-width=".31879" stroke-linecap="round" stroke-linejoin="round" fill="none" stroke="#000000" d="M-1.19551 1.59401C-1.09587 .99626 0 .09961 .29886 0 0-.09961-1.09587-.99626-1.19551-1.59401"/>
<use data-text="r" xlink:href="#font_3_10" transform="matrix(10.037002,0,0,-10.037303,100.577358,71.933399)"/>
<use data-text="i" xlink:href="#font_3_9" transform="matrix(10.037002,0,0,-10.037303,104.55201,71.933399)"/>
<use data-text="s" xlink:href="#font_3_11" transform="matrix(10.037002,0,0,-10.037303,107.48283,71.933399)"/>
<use data-text="e" xlink:href="#font_3_8" transform="matrix(10.037002,0,0,-10.037303,111.858959,71.933399)"/>
<path transform="matrix(1.00006,0,0,-1.00009,52.10045,47.038156)" d="M1.99255-56.69362C1.99255-55.59314 1.10046-54.70107 0-54.70107-1.10046-54.70107-1.99255-55.59314-1.99255-56.69362-1.99255-57.79408-1.10046-58.68617 0-58.68617 1.10046-58.68617 1.99255-57.79408 1.99255-56.69362ZM0-56.69362" fill="#ccccff"/>
<path transform="matrix(1.00006,0,0,-1.00009,52.10045,47.038156)" stroke-width=".3985" stroke-linecap="butt" stroke-miterlimit="10" stroke-linejoin="miter" fill="none" stroke="#000000" d="M1.99255-56.69362C1.99255-55.59314 1.10046-54.70107 0-54.70107-1.10046-54.70107-1.99255-55.59314-1.99255-56.69362-1.99255-57.79408-1.10046-58.68617 0-58.68617 1.10046-58.68617 1.99255-57.79408 1.99255-56.69362ZM0-56.69362"/>
<path transform="matrix(1.00006,0,0,-1.00009,52.10045,47.038156)" stroke-width=".3985" stroke-linecap="butt" stroke-miterlimit="10" stroke-linejoin="miter" fill="none" stroke="#000000" d="M0 0"/>
<use data-text="0" xlink:href="#font_3_1" transform="matrix(10.037002,0,0,-10.037303,49.438287,57.158067)"/>
<path transform="matrix(1.00006,0,0,-1.00009,52.10045,47.038156)" stroke-width=".3985" stroke-linecap="butt" stroke-miterlimit="10" stroke-linejoin="miter" fill="none" stroke="#000000" d="M56.69362-28.3468V-.45827"/>
<path transform="matrix(0,-1.00009,-1.00006,-0,108.79747,47.496469)" stroke-width=".31879" stroke-linecap="round" stroke-linejoin="round" fill="none" stroke="#000000" d="M-1.19551 1.59401C-1.09587 .99626 0 .09961 .29886 0 0-.09961-1.09587-.99626-1.19551-1.59401"/>
<use data-text="r" xlink:href="#font_3_10" transform="matrix(10.037002,0,0,-10.037303,88.95766,50.56247)"/>
<use data-text="i" xlink:href="#font_3_9" transform="matrix(10.037002,0,0,-10.037303,92.93231,50.56247)"/>
<use data-text="s" xlink:href="#font_3_11" transform="matrix(10.037002,0,0,-10.037303,95.86313,50.56247)"/>
<use data-text="e" xlink:href="#font_3_8" transform="matrix(10.037002,0,0,-10.037303,100.23926,50.56247)"/>
<path transform="matrix(1.00006,0,0,-1.00009,52.10045,47.038156)" stroke-width=".3985" stroke-linecap="butt" stroke-miterlimit="10" stroke-linejoin="miter" fill="none" stroke="#000000" d="M56.69362 0H112.92896"/>
<path transform="matrix(1.00006,0,0,-1.00009,165.0362,47.038156)" stroke-width=".31879" stroke-linecap="round" stroke-linejoin="round" fill="none" stroke="#000000" d="M-1.19551 1.59401C-1.09587 .99626 0 .09961 .29886 0 0-.09961-1.09587-.99626-1.19551-1.59401"/>
<use data-text="r" xlink:href="#font_3_10" transform="matrix(10.037002,0,0,-10.037303,157.27376,43.584844)"/>
<use data-text="i" xlink:href="#font_3_9" transform="matrix(10.037002,0,0,-10.037303,161.24842,43.584844)"/>
<use data-text="s" xlink:href="#font_3_11" transform="matrix(10.037002,0,0,-10.037303,164.17923,43.584844)"/>
<use data-text="e" xlink:href="#font_3_8" transform="matrix(10.037002,0,0,-10.037303,168.55536,43.584844)"/>
<path transform="matrix(1.00006,0,0,-1.00009,52.10045,47.038156)" d="M58.68617-28.3468C58.68617-27.24634 57.79408-26.35425 56.69362-26.35425 55.59314-26.35425 54.70107-27.24634 54.70107-28.3468 54.70107-29.44728 55.59314-30.33936 56.69362-30.33936 57.79408-30.33936 58.68617-29.44728 58.68617-28.3468ZM56.69362-28.3468" fill="#ccccff"/>
<path transform="matrix(1.00006,0,0,-1.00009,52.10045,47.038156)" stroke-width=".3985" stroke-linecap="butt" stroke-miterlimit="10" stroke-linejoin="miter" fill="none" stroke="#000000" d="M58.68617-28.3468C58.68617-27.24634 57.79408-26.35425 56.69362-26.35425 55.59314-26.35425 54.70107-27.24634 54.70107-28.3468 54.70107-29.44728 55.59314-30.33936 56.69362-30.33936 57.79408-30.33936 58.68617-29.44728 58.68617-28.3468ZM56.69362-28.3468"/>
<path transform="matrix(1.00006,0,0,-1.00009,52.10045,47.038156)" stroke-width=".3985" stroke-linecap="butt" stroke-miterlimit="10" stroke-linejoin="miter" fill="none" stroke="#000000" d="M56.69362 0"/>
<use data-text="1" xlink:href="#font_3_2" transform="matrix(10.037002,0,0,-10.037303,106.13569,57.158067)"/>
<path transform="matrix(1.00006,0,0,-1.00009,52.10045,47.038156)" stroke-width=".3985" stroke-linecap="butt" stroke-miterlimit="10" stroke-linejoin="miter" fill="none" stroke="#000000" d="M113.38724 0V27.88852"/>
<path transform="matrix(0,-1.00009,-1.00006,-0,165.49448,19.147126)" stroke-width=".31879" stroke-linecap="round" stroke-linejoin="round" fill="none" stroke="#000000" d="M-1.19551 1.59401C-1.09587 .99626 0 .09961 .29886 0 0-.09961-1.09587-.99626-1.19551-1.59401"/>
<use data-text="r" xlink:href="#font_3_10" transform="matrix(10.037002,0,0,-10.037303,145.65406,22.212922)"/>
<use data-text="i" xlink:href="#font_3_9" transform="matrix(10.037002,0,0,-10.037303,149.62871,22.212922)"/>
<use data-text="s" xlink:href="#font_3_11" transform="matrix(10.037002,0,0,-10.037303,152.55953,22.212922)"/>
<use data-text="e" xlink:href="#font_3_8" transform="matrix(10.037002,0,0,-10.037303,156.93566,22.212922)"/>
<path transform="matrix(1.00006,0,0,-1.00009,52.10045,47.038156)" stroke-width=".3985" stroke-linecap="butt" stroke-miterlimit="10" stroke-linejoin="miter" fill="none" stroke="#000000" d="M113.38724 28.3468H169.62258"/>
<path transform="matrix(1.00006,0,0,-1.00009,221.7332,18.688803)" stroke-width=".31879" stroke-linecap="round" stroke-linejoin="round" fill="none" stroke="#000000" d="M-1.19551 1.59401C-1.09587 .99626 0 .09961 .29886 0 0-.09961-1.09587-.99626-1.19551-1.59401"/>
<use data-text="r" xlink:href="#font_3_10" transform="matrix(10.037002,0,0,-10.037303,213.97115,15.235292)"/>
<use data-text="i" xlink:href="#font_3_9" transform="matrix(10.037002,0,0,-10.037303,217.9458,15.235292)"/>
<use data-text="s" xlink:href="#font_3_11" transform="matrix(10.037002,0,0,-10.037303,220.87662,15.235292)"/>
<use data-text="e" xlink:href="#font_3_8" transform="matrix(10.037002,0,0,-10.037303,225.25275,15.235292)"/>
<path transform="matrix(1.00006,0,0,-1.00009,52.10045,47.038156)" d="M115.37979 0C115.37979 1.10046 114.4877 1.99255 113.38724 1.99255 112.28676 1.99255 111.39468 1.10046 111.39468 0 111.39468-1.10046 112.28676-1.99255 113.38724-1.99255 114.4877-1.99255 115.37979-1.10046 115.37979 0ZM113.38724 0" fill="#ccccff"/>
<path transform="matrix(1.00006,0,0,-1.00009,52.10045,47.038156)" stroke-width=".3985" stroke-linecap="butt" stroke-miterlimit="10" stroke-linejoin="miter" fill="none" stroke="#000000" d="M115.37979 0C115.37979 1.10046 114.4877 1.99255 113.38724 1.99255 112.28676 1.99255 111.39468 1.10046 111.39468 0 111.39468-1.10046 112.28676-1.99255 113.38724-1.99255 114.4877-1.99255 115.37979-1.10046 115.37979 0ZM113.38724 0"/>
<path transform="matrix(1.00006,0,0,-1.00009,52.10045,47.038156)" stroke-width=".3985" stroke-linecap="butt" stroke-miterlimit="10" stroke-linejoin="miter" fill="none" stroke="#000000" d="M113.38724 0"/>
<use data-text="2" xlink:href="#font_3_3" transform="matrix(10.037002,0,0,-10.037303,162.83209,57.158067)"/>
</svg>
