<svg xmlns="http://www.w3.org/2000/svg" xmlns:xlink="http://www.w3.org/1999/xlink" version="1.1" width="117" height="51" viewBox="0 0 117 51">
<defs>
<path id="font_1_1" d="M.42799378 .15419007C.3939972 .10821533 .33499146 .03727722 .2679901 .03727722 .19499207 .03727722 .17999268 .097229007 .17999268 .16816712 .17999268 .29808045 .25498963 .46694947 .34700013 .46694947 .3789978 .46694947 .40098573 .44696046 .40699769 .38700868 .40899659 .36901856 .41799928 .35702516 .43598939 .35702516 .45999146 .35702516 .5 .38002015 .5 .41299439 .5 .46394349 .44599916 .5019531 .37098695 .5019531 .19299317 .5019531 .08099365 .31207276 .08099365 .14819336 .08099365 .026275635 .1539917-.01171875 .22399903-.01171875 .2979889-.01171875 .3829956 .02027893 .45199586 .13519287L.42799378 .15419007Z"/>
<path id="font_1_2" d="M.17098999 .112213138C.17098999 .22013855 .2579956 .46694947 .41799928 .46694947 .44898988 .46694947 .47499085 .45794679 .4869995 .44696046 .47200013 .37002564 .43899537 .27609254 .3880005 .19316101 .33999635 .115219119 .27398683 .040267946 .22099304 .040267946 .18899536 .040267946 .17098999 .06724548 .17098999 .112213138M.46398927 .71824648 .45799256 .6953125 .5179901 .68930056C.5419922 .6872864 .5439911 .6802826 .5359955 .6482239L.49798585 .48693849 .49598695 .48493959C.47698976 .49494935 .44599916 .5019531 .4119873 .5019531 .1789856 .5019531 .07199097 .24111939 .07199097 .12020874 .07199097 .055267335 .09098816-.01171875 .17199707-.01171875 .2869873-.01171875 .37599183 .11122131 .43499757 .21813965H.43699647L.4039917 .099227908C.38398744 .028274537 .39898683-.01272583 .44999696-.01171875 .522995-.01171875 .57899478 .056259157 .61299136 .13220215L.58898928 .14619446C.57099917 .11122131 .5269928 .040267946 .49899293 .040267946 .47898866 .040267946 .48098756 .06326294 .4889984 .0952301L.6469879 .7371979 .6419983 .7421875 .46398927 .71824648Z"/>
<path id="font_1_3" d="M.42799378 .45222474 .43899537 .49023438H.31199647L.34599305 .6092224 .33399964 .6162262 .23699951 .53923037 .22399903 .49023438H.14299011L.13198853 .45222474H.21499634L.125 .08627319C.10998535 .029266358 .12199402-.01171875 .17199707-.01171875 .2519989-.01171875 .31599427 .054275514 .35598756 .1292572L.33399964 .1462555C.31098939 .10726929 .2599945 .040267946 .22898865 .040267946 .20799256 .040267946 .20799256 .0632782 .21398926 .088272098L.30299378 .45222474H.42799378Z"/>
<path id="font_2_1" d="M.43699647 0V.0289917L.35299684 .035995485C.33198548 .037994386 .31999208 .04598999 .31999208 .08496094V.67367556L.31498719 .6796875 .10899353 .6446991V.6197052L.20199585 .6087036C.21899414 .6067047 .22599793 .5987091 .22599793 .56973269V.08496094C.22599793 .065979007 .22299195 .053985597 .21699524 .04698181 .21199036 .039993287 .20399475 .036987306 .19299317 .035995485L.10899353 .0289917V0H.43699647Z"/>
<path id="font_2_4" d="M.3809967 .6720276C.5589905 .6720276 .59999087 .4931183 .60198977 .3461914 .59999087 .19924927 .5589905 .020339966 .3809967 .020339966 .20298767 .020339966 .1619873 .19924927 .1599884 .3461914 .1619873 .4931183 .20298767 .6720276 .3809967 .6720276M.3809967 .70703127C.2709961 .70703127 .18899536 .6730194 .1329956 .61006167 .07899475 .55007937 .04798889 .4591217 .04798889 .3461914 .04798889 .23423767 .07899475 .14228821 .1329956 .08232117 .18899536 .019348145 .2709961-.0146484379 .3809967-.0146484379 .49198915-.0146484379 .57299807 .019348145 .6289978 .08232117 .6839905 .14228821 .71398928 .23423767 .71398928 .3461914 .71398928 .4591217 .6839905 .55007937 .6289978 .61006167 .57299807 .6730194 .49198915 .70703127 .3809967 .70703127Z"/>
<path id="font_2_2" d="M.034988405 .6923828V.66337588C.12298584 .6573639 .125 .655365 .125 .5993347V.093048099C.125 .037002565 .12298584 .035003663 .034988405 .0289917V0H.32998658V.0289917C.22698975 .035003663 .22399903 .037002565 .22399903 .093048099V.32722474H.3639984C.44898988 .32722474 .45298768 .3032074 .46199037 .23916626H.49198915V.4532776H.46199037C.45298768 .38923646 .44898988 .36523438 .3639984 .36523438H.22399903V.62135317C.22399903 .65437319 .22799683 .65737918 .26098634 .65737918H.3600006C.47599793 .65737918 .49899293 .6343689 .5130005 .5323181H.54299929V.6923828H.034988405Z"/>
<path id="font_2_3" d="M.033996583 .6923828V.66337588C.12199402 .6573639 .12399292 .655365 .12399292 .5993347V.20309448C.12399292 .15007019 .12199402 .11204529 .116989139 .07902527 .11099243 .037002565 .08699036 .032989503 .034988405 .0289917V0H.27198792V.0289917C.20698548 .033996583 .18299866 .037002565 .1769867 .07902527 .17199707 .11204529 .16999817 .15007019 .16999817 .20309448V.6023407H.17199707C.31498719 .4012146 .45700074 .20109558 .59799197 0H.6639862V.48927308C.6639862 .54229739 .66600039 .58032229 .67099 .6133423 .6769867 .655365 .70098879 .6593628 .7529907 .66337588V.6923828H.5159912V.66337588C.58099368 .658371 .6049957 .655365 .61099246 .6133423 .6159973 .58032229 .6179962 .54229739 .6179962 .48927308V.13806153L.6159973 .14006043C.4850006 .32417298 .35499574 .5082855 .22599793 .6923828H.033996583Z"/>
</defs>
<path transform="matrix(1,0,0,-1,8.935997,30.146)" d="M-7.08669-19.84267V28.3468H28.3468V-19.84267ZM28.3468 28.3468" fill="#d9d9ff"/>
<path transform="matrix(1,0,0,-1,8.935997,30.146)" d="M28.3468-19.84267V28.3468H70.867V-19.84267ZM70.867 28.3468" fill="#d9f0d9"/>
<path transform="matrix(1,0,0,-1,8.935997,30.146)" d="M70.867-19.84267V28.3468H106.30052V-19.84267ZM106.30052 28.3468" fill="#d9d9ff"/>
<use data-text="c" xlink:href="#font_1_1" transform="matrix(9.1656,0,0,-9.1656,34.901998,42.33)"/>
<use data-text="d" xlink:href="#font_1_2" transform="matrix(9.1656,0,0,-9.1656,76.649997,41.812)"/>
<path transform="matrix(1,0,0,-1,8.935997,30.146)" stroke-width=".3985" stroke-linecap="butt" stroke-miterlimit="10" stroke-linejoin="miter" fill="none" stroke="#000000" d="M-7.08669 0H105.84224"/>
<path transform="matrix(1,0,0,-1,114.77824,30.146)" stroke-width=".31879" stroke-linecap="round" stroke-linejoin="round" fill="none" stroke="#000000" d="M-1.19551 1.59401C-1.09587 .99626 0 .09961 .29886 0 0-.09961-1.09587-.99626-1.19551-1.59401"/>
<path transform="matrix(1,0,0,-1,8.935997,30.146)" stroke-width=".3985" stroke-linecap="butt" stroke-miterlimit="10" stroke-linejoin="miter" fill="none" stroke="#000000" d="M0-19.84267V27.88852"/>
<path transform="matrix(0,-1,-1,-0,8.935997,2.2574807)" stroke-width=".31879" stroke-linecap="round" stroke-linejoin="round" fill="none" stroke="#000000" d="M-1.19551 1.59401C-1.09587 .99626 0 .09961 .29886 0 0-.09961-1.09587-.99626-1.19551-1.59401"/>
<use data-text="t" xlink:href="#font_1_3" transform="matrix(9.1656,0,0,-9.1656,111.866008,39.194)"/>
<path transform="matrix(1,0,0,-1,8.935997,30.146)" stroke-width=".3985" stroke-linecap="butt" stroke-miterlimit="10" stroke-linejoin="miter" fill="none" stroke="#929292" d="M28.3468 1.4174V-1.4174"/>
<path transform="matrix(1,0,0,-1,8.935997,30.146)" stroke-width=".3985" stroke-linecap="butt" stroke-miterlimit="10" stroke-linejoin="miter" fill="none" stroke="#929292" d="M70.867 1.4174V-1.4174"/>
<path transform="matrix(1,0,0,-1,8.935997,30.146)" stroke-width=".3985" stroke-linecap="butt" stroke-miterlimit="10" stroke-linejoin="miter" fill="none" stroke="#929292" d="M1.4174 14.17339H-1.4174"/>
<use data-text="1" xlink:href="#font_2_1" transform="matrix(9.1656,0,0,-9.1656,2.0929948,19.041)"/>
<path transform="matrix(1,0,0,-1,8.935997,30.146)" stroke-width="1.59404" stroke-linecap="butt" stroke-miterlimit="10" stroke-linejoin="miter" fill="none" stroke="#000000" d="M-7.08669 0H-6.75038-6.4141-6.07779-5.74149-5.4052-5.0689-4.73259-4.3963-4.06-3.72371-3.3874-3.0511-2.71481-2.37851-2.0422-1.70592-1.36961-1.03331-.69702-.36072-.02443 .31184 .64815 .98444 1.32074 1.65704 1.99333 2.32964 2.66594 3.00223 3.33853 3.67482 4.01112 4.34743 4.68372 5.02002 5.35632 5.69261 6.02892 6.36522 6.7015 7.03781 7.3741 7.7104 8.0467 8.383 8.7193 9.0556 9.39189 9.7282 10.0645 10.40079 10.73709 11.07338 11.40968 11.74599 12.08228 12.41858 12.75488 13.09117 13.42747 13.76378 14.10007 14.43637 14.77266 15.10896 15.44527 15.78156 16.11786 16.45416 16.79045 17.12675 17.46306 17.79935 18.13565 18.47194 18.80824 19.14455 19.48083 19.81714 20.15344 20.48973 20.82603 21.16234 21.49863 21.83493 22.17123 22.50752 22.84383 23.18011 23.51642 23.85272 24.18903 24.52533 24.86163 25.19792 25.53423 25.87053 26.20682"/>
<path transform="matrix(1,0,0,-1,8.935997,30.146)" stroke-width="1.59404" stroke-linecap="butt" stroke-miterlimit="10" stroke-linejoin="miter" fill="none" stroke="#000000" d="M28.3468 14.17339H28.75467 29.16255 29.57043 29.97832 30.38622 30.7941 31.20198 31.60986 32.01775 32.42563 32.83351 33.2414 33.64928 34.05716 34.46506 34.87292 35.2808 35.68869 36.09657 36.50446 36.91234 37.32022 37.7281 38.136 38.54388 38.95177 39.35965 39.76753 40.17542 40.5833 40.99118 41.39905 41.80693 42.21483 42.62271 43.0306 43.43848 43.84636 44.25424 44.66212 45.07 45.47789 45.88579 46.29367 46.70155 47.10944 47.51732 47.92519 48.33307 48.74095 49.14883 49.55672 49.96461 50.3725 50.78038 51.18826 51.59615 52.00403 52.41191 52.8198 53.22768 53.63557 54.04346 54.45132 54.8592 55.26709 55.67497 56.08286 56.49074 56.89862 57.3065 57.7144 58.12228 58.53017 58.93805 59.34593 59.75381 60.1617 60.56958 60.97745 61.38535 61.79323 62.20111 62.609 63.01688 63.42476 63.83264 64.24052 64.6484 65.05629 65.46419 65.87207 66.27995 66.68784 67.09572 67.50359 67.91147 68.31935 68.72723"/>
<path transform="matrix(1,0,0,-1,8.935997,30.146)" stroke-width="1.59404" stroke-linecap="butt" stroke-miterlimit="10" stroke-linejoin="miter" fill="none" stroke="#000000" d="M70.867 0H71.22472 71.58243 71.94014 72.29785 72.65555 73.01328 73.37097 73.72867 74.0864 74.44409 74.80182 75.15952 75.51721 75.87494 76.23264 76.59036 76.94806 77.30577 77.66348 78.02118 78.3789 78.7366 79.09431 79.45203 79.80972 80.16745 80.52515 80.88286 81.24057 81.59828 81.956 82.31369 82.6714 83.02911 83.38683 83.74452 84.10223 84.45995 84.81766 85.17537 85.53307 85.8908 86.24849 86.6062 86.96391 87.32161 87.67934 88.03703 88.39476 88.75246 89.11015 89.46788 89.82558 90.1833 90.541 90.8987 91.25642 91.61412 91.97185 92.32954 92.68726 93.04497 93.40266 93.76038 94.11809 94.4758 94.83351 95.19121 95.54892 95.90663 96.26434 96.62206 96.97977 97.33746 97.69518 98.05289 98.4106 98.76831 99.126 99.48373 99.84143 100.19914 100.55685 100.91455 101.27228 101.62997 101.98769 102.3454 102.7031 103.06082 103.41852 103.77623 104.13394 104.49164 104.84937 105.20706 105.56477 105.92249 106.28018"/>
<path transform="matrix(1,0,0,-1,8.935997,30.146)" stroke-width="1.19553" stroke-linecap="butt" stroke-miterlimit="10" stroke-linejoin="miter" fill="none" stroke="#000000" d="M30.8375 0C30.8375 1.37558 29.72238 2.49069 28.3468 2.49069 26.97122 2.49069 25.85611 1.37558 25.85611 0 25.85611-1.37558 26.97122-2.49069 28.3468-2.49069 29.72238-2.49069 30.8375-1.37558 30.8375 0ZM28.3468 0"/>
<path transform="matrix(1,0,0,-1,8.935997,30.146)" d="M30.8375 14.17339C30.8375 15.54897 29.72238 16.66408 28.3468 16.66408 26.97122 16.66408 25.85611 15.54897 25.85611 14.17339 25.85611 12.7978 26.97122 11.6827 28.3468 11.6827 29.72238 11.6827 30.8375 12.7978 30.8375 14.17339ZM28.3468 14.17339"/>
<path transform="matrix(1,0,0,-1,8.935997,30.146)" stroke-width="1.19553" stroke-linecap="butt" stroke-miterlimit="10" stroke-linejoin="miter" fill="none" stroke="#000000" d="M73.3577 14.17339C73.3577 15.54897 72.24258 16.66408 70.867 16.66408 69.49142 16.66408 68.37631 15.54897 68.37631 14.17339 68.37631 12.7978 69.49142 11.6827 70.867 11.6827 72.24258 11.6827 73.3577 12.7978 73.3577 14.17339ZM70.867 14.17339"/>
<path transform="matrix(1,0,0,-1,8.935997,30.146)" d="M73.3577 0C73.3577 1.37558 72.24258 2.49069 70.867 2.49069 69.49142 2.49069 68.37631 1.37558 68.37631 0 68.37631-1.37558 69.49142-2.49069 70.867-2.49069 72.24258-2.49069 73.3577-1.37558 73.3577 0ZM70.867 0"/>
<use data-text="O" xlink:href="#font_2_4" transform="matrix(9.1656,0,0,-9.1656,10.753998,40.031)" fill="#0000ff"/>
<use data-text="F" xlink:href="#font_2_2" transform="matrix(9.1656,0,0,-9.1656,17.738183,40.031)" fill="#0000ff"/>
<use data-text="F" xlink:href="#font_2_2" transform="matrix(9.1656,0,0,-9.1656,23.05423,40.031)" fill="#0000ff"/>
<use data-text="O" xlink:href="#font_2_4" transform="matrix(9.1656,0,0,-9.1656,51.473997,40.031)" fill="#009900"/>
<use data-text="N" xlink:href="#font_2_3" transform="matrix(9.1656,0,0,-9.1656,58.45818,40.031)" fill="#009900"/>
<use data-text="O" xlink:href="#font_2_4" transform="matrix(9.1656,0,0,-9.1656,88.708,40.031)" fill="#0000ff"/>
<use data-text="F" xlink:href="#font_2_2" transform="matrix(9.1656,0,0,-9.1656,95.692188,40.031)" fill="#0000ff"/>
<use data-text="F" xlink:href="#font_2_2" transform="matrix(9.1656,0,0,-9.1656,101.00823,40.031)" fill="#0000ff"/>
</svg>
