<svg xmlns="http://www.w3.org/2000/svg" xmlns:xlink="http://www.w3.org/1999/xlink" version="1.1" width="260" height="221" viewBox="0 0 260 221">
<defs>
<path id="font_1_2" d="M.42799378 .45222474 .43899537 .49023438H.31199647L.34599305 .6092224 .33399964 .6162262 .23699951 .53923037 .22399903 .49023438H.14299011L.13198853 .45222474H.21499634L.125 .08627319C.10998535 .029266358 .12199402-.01171875 .17199707-.01171875 .2519989-.01171875 .31599427 .054275514 .35598756 .1292572L.33399964 .1462555C.31098939 .10726929 .2599945 .040267946 .22898865 .040267946 .20799256 .040267946 .20799256 .0632782 .21398926 .088272098L.30299378 .45222474H.42799378Z"/>
<path id="font_1_1" d="M.43199159 .49023438H.3019867L.32998658 .6031952C.34899903 .67918398 .36799623 .70718386 .3959961 .70718386 .4229889 .70718386 .44099427 .68518069 .46299745 .6371918 .46798707 .62719729 .47499085 .6201935 .48999024 .6201935 .5099945 .6201935 .5389862 .6391907 .5389862 .6641846 .5389862 .70718386 .4850006 .7421875 .4249878 .7421875 .3600006 .7421875 .31799317 .71517947 .2849884 .67318728 .2539978 .63420107 .23399353 .5802002 .21998596 .5272217L.20999146 .49023438H.12298584L.11199951 .45222474H.20098877L.084991458-.137146C.07299805-.19918823 .06298828-.2052002 .052993776-.2052002 .041992189-.2052002 .026992798-.19718933 0-.15615845-.007003784-.14616394-.014007568-.13415528-.027008057-.13415528-.04901123-.13415528-.072006229-.15916443-.072006229-.18418885-.071014408-.2171936-.028015137-.2421875 .018997193-.2421875 .11898804-.2421875 .16099549-.16116333 .20298767 .030960083L.29599 .45222474H.42199708L.43199159 .49023438Z"/>
<path id="font_2_1" d="M.1749878 .2822113C.1749878 .56832888 .2619934 .65437319 .32499696 .66737368V.6923828C.1499939 .685379 .10499573 .46829225 .10499573 .2822113 .10499573 .09614563 .1499939-.12094116 .32499696-.12792969V-.10293579C.2669983-.090927127 .1749878-.0059051516 .1749878 .2822113Z"/>
<path id="font_2_2" d="M.1749878 .2822113C.1749878-.0059051516 .08299255-.090927127 .024993897-.10293579V-.12792969C.19999695-.12094116 .24499512 .09614563 .24499512 .2822113 .24499512 .46829225 .19999695 .685379 .024993897 .6923828V.66737368C.08799744 .65437319 .1749878 .56832888 .1749878 .2822113Z"/>
</defs>
<path transform="matrix(1.00003,0,0,-1.00003,126.02077,117.41514)" d="M-113.38766-90.71013V90.71013H-45.35506V-90.71013ZM-45.35506 90.71013" fill="#f2f2ff"/>
<path transform="matrix(1.00003,0,0,-1.00003,126.02077,117.41514)" d="M-45.35506-90.71013V90.71013H22.67752V-90.71013ZM22.67752 90.71013" fill="#f2fff2"/>
<path transform="matrix(1.00003,0,0,-1.00003,126.02077,117.41514)" d="M22.67752-90.71013V90.71013H68.0326V-90.71013ZM68.0326 90.71013" fill="#fff2e6"/>
<path transform="matrix(1.00003,0,0,-1.00003,126.02077,117.41514)" d="M68.0326-90.71013V90.71013H113.38766V-90.71013ZM113.38766 90.71013" fill="#fff2f2"/>
<path transform="matrix(1.00003,0,0,-1.00003,126.02077,117.41514)" stroke-width=".79701" stroke-linecap="butt" stroke-miterlimit="10" stroke-linejoin="miter" fill="none" stroke="#000000" d="M-124.72643 0H124.01906"/>
<path transform="matrix(1.00003,0,0,-1.00003,250.04355,117.41514)" stroke-width=".6376" stroke-linecap="round" stroke-linejoin="round" fill="none" stroke="#000000" d="M-1.55415 2.0722C-1.42464 1.29512 0 .1295 .38852 0 0-.1295-1.42464-1.29512-1.55415-2.0722"/>
<use data-text="t" xlink:href="#font_1_2" transform="matrix(10.036701,0,0,-10.036701,254.56763,120.46423)"/>
<path transform="matrix(1.00003,0,0,-1.00003,126.02077,117.41514)" stroke-width=".79701" stroke-linecap="butt" stroke-miterlimit="10" stroke-linejoin="miter" fill="none" stroke="#000000" d="M0-102.04889V101.34152"/>
<path transform="matrix(0,-1.00003,-1.00003,-0,126.02077,16.070572)" stroke-width=".6376" stroke-linecap="round" stroke-linejoin="round" fill="none" stroke="#000000" d="M-1.55415 2.0722C-1.42464 1.29512 0 .1295 .38852 0 0-.1295-1.42464-1.29512-1.55415-2.0722"/>
<use data-text="f" xlink:href="#font_1_1" transform="matrix(10.036701,0,0,-10.036701,117.893527,9.298889)"/>
<use data-text="(" xlink:href="#font_2_1" transform="matrix(10.036701,0,0,-10.036701,123.50069,9.298889)"/>
<use data-text="t" xlink:href="#font_1_2" transform="matrix(10.036701,0,0,-10.036701,127.23181,9.298889)"/>
<use data-text=")" xlink:href="#font_2_2" transform="matrix(10.036701,0,0,-10.036701,131.72594,9.298889)"/>
<path transform="matrix(1.00003,0,0,-1.00003,126.02077,117.41514)" stroke-width=".79701" stroke-linecap="butt" stroke-miterlimit="10" stroke-linejoin="miter" fill="none" stroke="#0000ff" d="M-113.38766 0H-113.04611-112.70459-112.36304-112.02151-111.68-111.33844-110.99692-110.6554-110.31384-109.97232-109.63078-109.28925-108.94771-108.60619-108.26465-107.92313-107.58157-107.24005-106.89851-106.55698-106.21544-105.87393-105.53238-105.19086-104.84932-104.50778-104.16624-103.82472-103.48318-103.14166-102.80013-102.45859-102.11705-101.77551-101.43398-101.09245-100.75092-100.40938-100.06786-99.72632-99.38478-99.04326-98.70172-98.36018-98.01866-97.67711-97.33559-96.99405-96.65251-96.31099-95.96945-95.62791-95.28639-94.94484-94.60332-94.26178-93.92026-93.57872-93.2372-92.89565-92.55412-92.21259-91.87105-91.52953-91.18799-90.84645-90.50493-90.16338-89.82185-89.48032-89.13878-88.79726-88.45572-88.11418-87.77266-87.43112-87.08958-86.74806-86.40652-86.06499-85.72345-85.38191-85.04037-84.69885-84.35732-84.0158-83.67426-83.33272-82.99118-82.64966-82.3081-81.9666-81.62506-81.28352-80.94199-80.60045-80.25891-79.91739-79.57585-79.23433-78.89279-78.55125-78.20972-77.8682-77.52664-77.18512-76.8436-76.50204-76.16052-75.819-75.47745-75.13593-74.79439-74.45285-74.11133-73.76978-73.42825-73.08672-72.74518-72.40366-72.06213-71.72058-71.37906-71.03752-70.69598-70.35445-70.01294-69.67139-69.32986-68.98831-68.64679-68.30525-67.96371-67.6222-67.28067-66.93912-66.5976-66.25606-65.91452-65.57298-65.23146-64.88992-64.54839-64.20685-63.86533-63.52379-63.18225-62.84073-62.49919-62.15765-61.81612-61.4746-61.13304-60.79152-60.45-60.10846-59.76692-59.4254-59.08385-58.74232-58.40077-58.05927-57.71773-57.37619-57.03465-56.69313-56.35158-56.01006-55.66853-55.327-54.98546-54.64394-54.30238-53.96086-53.61931-53.27779-52.93626-52.59471-52.25319-51.91167-51.57011-51.22859-50.88707-50.54552-50.204-49.86246-49.52092-49.17938-48.83786-48.49632-48.1548-47.81325-47.47173-47.13019-46.78865-46.44711-46.1056-45.76405-45.42253"/>
<path transform="matrix(1.00003,0,0,-1.00003,126.02077,117.41514)" stroke-width=".79701" stroke-linecap="butt" stroke-dasharray="2.98883,2.98883" stroke-miterlimit="10" stroke-linejoin="miter" fill="none" stroke="#009900" d="M-45.35506-45.35506-45.01352-44.67441-44.67198-43.99895-44.33044-43.32869-43.9889-42.66362-43.64738-42.00372-43.30583-41.34904-42.96431-40.69954-42.62279-40.05489-42.28125-39.41576-41.93971-38.78148-41.59819-38.1524-41.25664-37.52849-40.91512-36.9098-40.57358-36.29594-40.23206-35.6876-39.89052-35.08414-39.54898-34.48586-39.20744-33.8931-38.86592-33.30519-38.52437-32.72212-38.18285-32.14459-37.84132-31.57225-37.49979-31.00476-37.15825-30.44283-36.81673-29.8857-36.47517-29.33377-36.13365-28.78705-35.79211-28.24516-35.45058-27.7088-35.10905-27.17764-34.76752-26.65134-34.42598-26.13022-34.08444-25.61429-33.7429-25.10355-33.40137-24.59798-33.05986-24.09764-32.7183-23.60211-32.37679-23.11212-32.03525-22.62698-31.69371-22.14703-31.35217-21.67229-31.01065-21.20273-30.66911-20.73834-30.32759-20.27882-29.98605-19.82483-29.64452-19.37567-29.30298-18.93173-28.96144-18.4933-28.6199-18.05937-28.2784-17.63098-27.93684-17.2078-27.59532-16.78944-27.25378-16.37662-26.91225-15.96866-26.57071-15.56587-26.22919-15.16829-25.88765-14.77588-25.54613-14.38867-25.20459-14.0063-24.86305-13.62947-24.52151-13.25749-24.18-12.8907-23.83844-12.52908-23.49692-12.17268-23.15538-11.82146-22.81384-11.47543-22.47232-11.13425-22.13077-10.79858-21.78925-10.46779-21.44771-10.14217-21.10619-9.82175-20.76465-9.5065-20.42313-9.19612-20.08157-8.89127-19.74005-8.59125-19.39851-8.29678-19.05698-8.00714-18.71545-7.72272-18.37393-7.44347-18.03238-7.16907-17.69086-6.9002-17.3493-6.63617-17.00778-6.3777-16.66624-6.12405-16.32472-5.8756-15.98318-5.63234-15.64166-5.39426-15.30011-5.16103-14.95859-4.93335-14.61705-4.71051-14.27551-4.4932-13.93399-4.28073-13.59247-4.07347-13.25092-3.87102-12.9094-3.67415-12.56784-3.48245-12.22632-3.29558-11.88478-3.11392-11.54324-2.93779-11.20172-2.7665-10.86018-2.60042-10.51865-2.43916-10.17711-2.28343-9.83559-2.13257-9.49403-1.98724-9.15253-1.84676-8.81099-1.71146-8.46945-1.58134-8.12791-1.45642-7.78639-1.33669-7.44484-1.22182-7.10332-1.11247-6.76178-1.00797-6.42026-.90866-6.07872-.81453-5.73718-.72562-5.39565-.64186-5.05412-.56297-4.71257-.48962-4.37106-.42108-4.02953-.35779-3.68799-.29965-3.34645-.24669-3.00493-.19896-2.66338-.15604-2.32185-.11867-1.98032-.08614-1.6388-.05916-1.29726-.037-.95572-.02007-.61418-.00827-.27266-.00136 .06885 0 .41037 .00345 .75189 .01244 1.09344 .02628 1.43497 .0453 1.7765 .06953 2.11804 .0986 2.45958 .13321 2.80109 .17264 3.14264 .21762 3.48416 .26746 3.82571 .32248 4.16724 .38269 4.50877 .44809 4.85031 .51834 5.19183 .59412 5.53336 .67473 5.87491 .7609 6.21643 .85191 6.55797 .9481 6.8995 1.04948 7.24104 1.15572 7.58257 1.26749 7.9241 1.38411 8.26564 1.50626 8.60718 1.63324 8.94872 1.76543 9.29024 1.9028 9.63179 2.04538 9.9733 2.19278 10.31483 2.34573 10.65637 2.50351 10.99791 2.66649 11.33943 2.83502 11.68098 3.00803 12.0225 3.18658 12.36403 3.37033 12.70557 3.55927 13.0471 3.75304 13.38863 3.95201 13.73018 4.15617 14.0717 4.36551 14.41325 4.58006 14.75476 4.79979 15.0963 5.0247 15.43784 5.25447 15.77937 5.48943 16.1209 5.7299 16.46245 5.97525 16.80397 6.22578 17.1455 6.48114 17.48703 6.74207 17.82857 7.00816 18.17009 7.2791 18.51164 7.55524 18.85316 7.83656 19.1947 8.12308 19.53624 8.41478 19.87776 8.71167 20.21931 9.01376 20.56084 9.3207 20.90237 9.63281 21.24391 9.95012 21.58545 10.27263 21.92696 10.60031 22.26851 10.9332 22.61003 11.27127"/>
<path transform="matrix(1.00003,0,0,-1.00003,126.02077,117.41514)" stroke-width=".79701" stroke-linecap="butt" stroke-dasharray=".79701,1.99255" stroke-miterlimit="10" stroke-linejoin="miter" fill="none" stroke="#b30000" d="M68.0326-45.35506H68.26027 68.48796 68.71564 68.94333 69.17104 69.39871 69.6264 69.8541 70.08179 70.30948 70.53716 70.76483 70.99254 71.22023 71.4479 71.6756 71.9033 72.13098 72.35867 72.58636 72.81404 73.04173 73.26942 73.49712 73.7248 73.9525 74.18019 74.40787 74.63556 74.86325 75.09094 75.31862 75.54631 75.774 76.0017 76.22939 76.45706 76.68475 76.91246 77.14014 77.36783 77.59552 77.8232 78.05089 78.27858 78.50626 78.73396 78.96165 79.18933 79.41702 79.64473 79.8724 80.10008 80.32777 80.55548 80.78316 81.01085 81.23853 81.46622 81.69392 81.9216 82.14929 82.37698 82.60468 82.83235 83.06004 83.28773 83.51543 83.74312 83.97081 84.19849 84.4262 84.65388 84.88155 85.10924 85.33693 85.56462 85.79231 86.02 86.24768 86.47539 86.70308 86.93076 87.15845 87.38614 87.61382 87.8415 88.0692 88.29689 88.52458 88.75227 88.97995 89.20764 89.43535 89.66302 89.8907 90.1184 90.3461 90.57378 90.80147 91.02916 91.25685 91.48454 91.71223 91.93991 92.1676 92.3953 92.62297 92.85066 93.07837 93.30605 93.53374 93.76143 93.9891 94.21681 94.4445 94.67216 94.89986 95.12756 95.35524 95.58293 95.81062 96.03831 96.266 96.4937 96.72137 96.94907 97.17676 97.40445 97.63213 97.85982 98.08752 98.3152 98.5429 98.77057 98.99828 99.22597 99.45364 99.68132 99.90903 100.13672 100.3644 100.59209 100.8198 101.04747 101.27516 101.50285 101.73051 101.95822 102.18591 102.41359 102.64128 102.86899 103.09666 103.32436 103.55205 103.77974 104.00743 104.2351 104.4628 104.69049 104.91818 105.14586 105.37355 105.60126 105.82893 106.05663 106.28432 106.512 106.73969 106.96738 107.19507 107.42274 107.65045 107.87814 108.10582 108.33351 108.56122 108.7889 109.01657 109.24426 109.47195 109.69965 109.92734 110.15501 110.3827 110.61041 110.83809 111.06578 111.29346 111.52115 111.74884 111.97653 112.20421 112.43192 112.6596 112.88728 113.11497 113.34268"/>
</svg>
