<svg xmlns="http://www.w3.org/2000/svg" xmlns:xlink="http://www.w3.org/1999/xlink" version="1.1" width="140" height="27" viewBox="0 0 140 27">
<defs>
<path id="font_1_3" d="M.43699647 0V.0289917L.35299684 .035995485C.33198548 .037994386 .31999208 .04598999 .31999208 .08496094V.67367556L.31498719 .6796875 .10899353 .6446991V.6197052L.20199585 .6087036C.21899414 .6067047 .22599793 .5987091 .22599793 .56973269V.08496094C.22599793 .065979007 .22299195 .053985597 .21699524 .04698181 .21199036 .039993287 .20399475 .036987306 .19299317 .035995485L.10899353 .0289917V0H.43699647Z"/>
<path id="font_1_4" d="M.4850006 .13195801 .45700074 .13696289C.43598939 .08299255 .41600038 .07598877 .37599183 .07598877H.11999512C.13598633 .1279602 .19499207 .19892884 .28799439 .2658844 .38398744 .33584596 .45799256 .38082887 .45799256 .49276734 .45799256 .63168337 .3659973 .6796875 .26098634 .6796875 .12399292 .6796875 .052993776 .5967102 .052993776 .54473879 .052993776 .51075747 .09098816 .49476625 .10798645 .49476625 .12599182 .49476625 .1329956 .50476077 .13699341 .5217438 .15299988 .5897064 .19198609 .64468386 .2539978 .64468386 .33099366 .64468386 .35299684 .5797119 .35299684 .50675967 .35299684 .3998108 .29899598 .33984376 .21199036 .26289369 .08898926 .15594483 .04598999 .08798218 .026992798 .009994507L.036987306 0H.45098878L.4850006 .13195801Z"/>
<path id="font_1_6" d="M.2999878 .17871094V.0769043C.2999878 .04296875 .2889862 .036987306 .2649994 .034988405L.20098877 .0289917V0H.46499635V.0289917L.41999818 .033981325C.39698792 .036987306 .3899994 .04296875 .3899994 .0769043V.17871094H.49299623V.22570801H.3899994V.66796877H.31698609C.22299195 .5298767 .11099243 .35577394 .018997193 .19970703L.027999878 .17871094H.2999878M.09098816 .22570801C.15098572 .33476258 .22099304 .4498291 .2979889 .5709076H.2999878V.22570801H.09098816Z"/>
<clipPath id="clip_2">
<path transform="matrix(1.2,0,0,-.45002247,1.490799,22.553578)" d="M0 0H114.1071V46.06519H0Z"/>
</clipPath>
<path id="font_1_1" d="M.1329956-.01171875C.17199707-.01171875 .19499207 .015274048 .19599915 .05126953 .19599915 .088272098 .17199707 .11627197 .1329956 .11627197 .09498596 .11627197 .069992069 .088272098 .069992069 .05126953 .069992069 .015274048 .09498596-.01171875 .1329956-.01171875Z"/>
<path id="font_1_5" d="M.12998963 .3657837C.12998963 .3487854 .1349945 .33779908 .147995 .33779908 .1599884 .33779908 .18699646 .34777833 .23498535 .34777833 .31999208 .34777833 .36799623 .27090455 .36799623 .18403626 .36799623 .065216068 .30899049 .023269654 .23799134 .023269654 .17199707 .023269654 .1289978 .07319641 .10998535 .12911988 .10398865 .14808655 .09399414 .15707398 .07998657 .15707398 .06199646 .15707398 .026992798 .13809204 .026992798 .10215759 .026992798 .05921936 .09599304-.01171875 .23699951-.01171875 .38198854-.01171875 .47299195 .06121826 .47299195 .18902588 .47299195 .32281495 .35798646 .3627777 .30299378 .3677826V.3717804C.35699464 .38078309 .44400025 .4207611 .44400025 .5197296 .44400025 .6306915 .35699464 .6796875 .25 .6796875 .117996219 .6796875 .052993776 .60369876 .052993776 .5607147 .052993776 .5297241 .08799744 .51272585 .101989749 .51272585 .114990238 .51272585 .12298584 .5197296 .1269989 .5327301 .14898682 .60069277 .18699646 .64468386 .24299622 .64468386 .32199098 .64468386 .34098817 .57470706 .34098817 .51872256 .34098817 .4587555 .31999208 .38378907 .23498535 .38378907 .18699646 .38378907 .1599884 .39378358 .147995 .39378358 .1349945 .39378358 .12998963 .38378907 .12998963 .3657837Z"/>
<path id="font_1_2" d="M.2649994 .64468386C.3600006 .64468386 .3869934 .49682618 .3869934 .33398438 .3869934 .17112732 .3600006 .023269654 .2649994 .023269654 .16999817 .023269654 .14299011 .17112732 .14299011 .33398438 .14299011 .49682618 .16999817 .64468386 .2649994 .64468386M.2649994 .6796875C.099990848 .6796875 .040985109 .53378298 .040985109 .33398438 .040985109 .13417053 .099990848-.01171875 .2649994-.01171875 .42999269-.01171875 .4889984 .13417053 .4889984 .33398438 .4889984 .53378298 .42999269 .6796875 .2649994 .6796875Z"/>
<path id="font_1_7" d="M.22898865 .26757813C.29100038 .26757813 .34298707 .30256654 .3769989 .35157777H.3789978C.3789978 .28857423 .37399293 .20774842 .35598756 .13894654 .33799745 .073135379 .30299378 .023269654 .23899842 .023269654 .17098999 .023269654 .1459961 .0761261 .1309967 .12298584 .1269989 .13595581 .11999512 .1439209 .102996829 .1439209 .083999637 .1439209 .055999757 .12397766 .055999757 .09307861 .055999757 .049194337 .10899353-.01171875 .22999573-.01171875 .31098939-.01171875 .37298585 .01828003 .41099549 .071136478 .45199586 .12797547 .47698976 .2157135 .47698976 .36058045 .47698976 .48461915 .45199586 .56565859 .41299439 .6126709 .375 .6576843 .31999208 .6796875 .2559967 .6796875 .12799073 .6796875 .035995485 .5946655 .035995485 .45661927 .035995485 .3315735 .12599182 .26757813 .22898865 .26757813M.25898744 .3205719C.18099976 .3205719 .13598633 .38859559 .13598633 .48461915 .13598633 .57666018 .1769867 .64468386 .25498963 .64468386 .33499146 .64468386 .37399293 .5496521 .37399293 .45262147 .37399293 .4356079 .37298585 .41560365 .36698915 .39959718 .35099793 .35258485 .31199647 .3205719 .25898744 .3205719Z"/>
<path id="font_3_1" d="M.5269928 .30897523C.6069946 .30897523 .6230011 .3840332 .6329956 .43621827L.6380005 .45822145 .61299136 .47122193C.59498599 .42321778 .56599429 .37597657 .5299988 .37597657 .45799256 .37597657 .28599549 .47721864 .18899536 .47721864 .13798523 .47721864 .09199524 .37799073 .085998538 .32696534L.11099243 .31497193C.13198853 .36297608 .16099549 .40722657 .19599915 .40722657 .2630005 .40722657 .42900086 .30897523 .5269928 .30897523M.5269928 .087890628C.6069946 .087890628 .6230011 .16287232 .6329956 .21485901L.6380005 .23684693 .61299136 .24984741C.59498599 .20185852 .56599429 .15487671 .5299988 .15487671 .45799256 .15487671 .28599549 .25585938 .18899536 .25585938 .13798523 .25585938 .09199524 .15687561 .085998538 .10588074L.11099243 .09388733C.13198853 .14187622 .16099549 .18585205 .19599915 .18585205 .2630005 .18585205 .42900086 .087890628 .5269928 .087890628Z"/>
<path id="font_4_1" d="M.43499757 .15118408C.39898683 .10421753 .34498597 .03727722 .269989 .03727722 .19999695 .03727722 .1789856 .097229007 .1789856 .17616272 .1789856 .1811676 .1789856 .1851654 .17999268 .19215393 .34799195 .22613526 .42099 .26609803 .46398927 .30607606 .49899293 .3410492 .5059967 .37402345 .5059967 .4019928 .5059967 .45495606 .46398927 .5019531 .38198854 .5019531 .2919922 .5019531 .21798706 .45596314 .16299439 .3880005 .10998535 .32305909 .07998657 .23612976 .07998657 .15219116 .07998657 .012268066 .17098999-.01171875 .22898865-.01171875 .3019867-.01171875 .3899994 .02027893 .45799256 .13119507L.43499757 .15118408M.18199158 .22613526C.19898987 .3470459 .27398683 .46694947 .35398866 .46694947 .3889923 .46694947 .4119873 .44296266 .4119873 .4079895 .4119873 .3380432 .35099793 .26210023 .18199158 .22613526Z"/>
<path id="font_4_2" d="M.42799378 .45222474 .43899537 .49023438H.31199647L.34599305 .6092224 .33399964 .6162262 .23699951 .53923037 .22399903 .49023438H.14299011L.13198853 .45222474H.21499634L.125 .08627319C.10998535 .029266358 .12199402-.01171875 .17199707-.01171875 .2519989-.01171875 .31599427 .054275514 .35598756 .1292572L.33399964 .1462555C.31098939 .10726929 .2599945 .040267946 .22898865 .040267946 .20799256 .040267946 .20799256 .0632782 .21398926 .088272098L.30299378 .45222474H.42799378Z"/>
<path id="font_4_3" d="M.070999149 .45393373 .07398987 .42893983 .14199829 .43093873C.1639862 .43193055 .16899109 .41493226 .1769867 .36291505 .18798828 .28489686 .20999146 .09286499 .20999146 .0128479 .20999146-.017166138 .20799256-.058166505 .18598938-.11117554 .16799927-.15318299 .14199829-.18218994 .12199402-.18218994 .10699463-.18218994 .09599304-.17118836 .08099365-.15118408 .068984989-.13517761 .06098938-.127182 .04598999-.127182 .019989014-.12818909-.005004883-.15818787-.005004883-.18719483-.005004883-.21418762 .023986817-.2421875 .067993167-.2421875 .15299988-.2421875 .18998719-.17919922 .27799989-.027160645 .2979889 .0068511965 .35798646 .11286926 .41999818 .21488953 .47698976 .30891419 .5399933 .40592958 .5399933 .4459381 .5399933 .48094178 .5289917 .5019531 .5219879 .5019531 .5029907 .5019531 .46899415 .49394227 .44400025 .47694398 .44499208 .4419403 .44299317 .3809204 .43099977 .33891297 .4149933 .28289796 .35598756 .17488098 .2899933 .06085205H.2869873C.27999879 .21388245 .26098634 .42492677 .24699402 .49795533L.23899842 .5019531 .070999149 .45393373Z"/>
</defs>
<path transform="matrix(1.2,0,0,-.45002247,1.490799,22.553578)" stroke-width=".79701" stroke-linecap="butt" stroke-miterlimit="10" stroke-linejoin="miter" fill="none" stroke="#929292" d="M37.37991 4.93646V7.77115M76.72719 4.93646V7.77115"/>
<path transform="matrix(1.2,0,0,-.45002247,1.490799,22.553578)" stroke-width=".79701" stroke-linecap="butt" stroke-miterlimit="10" stroke-linejoin="miter" fill="none" stroke="#929292" d="M57.05354 4.22801V8.4796M96.40083 4.22801V8.4796"/>
<path transform="matrix(1.2,0,0,-.45002247,1.490799,22.553578)" stroke-width=".79701" stroke-linecap="butt" stroke-miterlimit="10" stroke-linejoin="miter" fill="none" stroke="#929292" d="M16.28879 16.94351H19.12375M16.28879 38.12291H19.12375"/>
<path transform="matrix(1.2,0,0,-.45002247,1.490799,22.553578)" stroke-width=".79701" stroke-linecap="butt" stroke-miterlimit="10" stroke-linejoin="miter" fill="none" stroke="#929292" d="M15.58026 27.5332H19.83226"/>
<path transform="matrix(1.2,0,0,-.45002247,1.490799,22.553578)" stroke-width=".99628" stroke-linecap="butt" stroke-miterlimit="10" stroke-linejoin="miter" fill="none" stroke="#000000" d="M0 6.3538H111.2179"/>
<path transform="matrix(1.2,0,0,-.45002247,134.95229,19.694226)" d="M2.8892 0-1.73352 2.31136 0 0-1.73352-2.31136"/>
<path transform="matrix(1.2,0,0,-.45002247,1.490799,22.553578)" stroke-width=".99628" stroke-linecap="butt" stroke-miterlimit="10" stroke-linejoin="miter" fill="none" stroke="#000000" d="M17.70627 0V43.17596"/>
<path transform="matrix(0,-.45002247,-1.2,-0,22.738324,3.1234265)" d="M2.8892 0-1.73352 2.31136 0 0-1.73352-2.31136"/>
<use data-text="1" xlink:href="#font_1_3" transform="matrix(12.04368,0,0,-4.5166056,66.7612,25.339217)"/>
<use data-text="2" xlink:href="#font_1_4" transform="matrix(12.04368,0,0,-4.5166056,113.9776,25.339217)"/>
<use data-text="4" xlink:href="#font_1_6" transform="matrix(12.04368,0,0,-4.5166056,9.361603,11.675184)"/>
<g clip-path="url(#clip_2)">
<path transform="matrix(1.2,0,0,-.45002247,1.490799,22.553578)" stroke-width=".79701" stroke-linecap="butt" stroke-miterlimit="10" stroke-linejoin="miter" fill="none" stroke="#0000ff" d="M17.70627 11.64867 18.50111 11.75667 19.29597 11.86685 20.09082 11.97932 20.88567 12.09407 21.68054 12.21129 22.47539 12.3308 23.27023 12.45273 24.0651 12.57721 24.85995 12.70407 25.6548 12.83374 26.44966 12.96591 27.24452 13.10092 28.03937 13.23848 28.83423 13.37901 29.62907 13.52234 30.42393 13.66853 31.2188 13.8178 32.01364 13.97018 32.8085 14.12569 33.60336 14.28421 34.39821 14.44601 35.19305 14.61118 35.98792 14.7796 36.78278 14.95158 37.57762 15.12706 38.37248 15.30591 39.16733 15.48863 39.96219 15.67511 40.75705 15.86531 41.5519 16.05936 42.34674 16.2575 43.14162 16.45944 43.93646 16.66557 44.73131 16.8761 45.52617 17.09087 46.32103 17.30995 47.11588 17.53351 47.91074 17.76155 48.7056 17.99431 49.50044 18.23189 50.2953 18.47429 51.09016 18.72162 51.88501 18.97398 52.67987 19.23145 53.47472 19.49425 54.26956 19.76225 55.06444 20.03595 55.85928 20.31505 56.65413 20.60017 57.44899 20.89066 58.24385 21.18747 59.0387 21.49002 59.83356 21.79883 60.6284 22.11418 61.42326 22.43549 62.21812 22.76392 63.01297 23.09886 63.80782 23.44023 64.60269 23.78911 65.39754 24.14491 66.19238 24.50766 66.98726 24.87794 67.7821 25.25621 68.57695 25.64209 69.37181 26.03539 70.16667 26.43706 70.96152 26.8466 71.75638 27.26497 72.55122 27.69194 73.34608 28.12712 74.14095 28.57195 74.93579 29.02528 75.73064 29.48743 76.5255 29.9593 77.32036 30.44113 78.1152 30.93286 78.91005 31.43445 79.70493 31.94594 80.49977 32.46828 81.29462 33.00119 82.08948 33.54518 82.88434 34.09998 83.67918 34.66626 84.47404 35.24356 85.26889 35.83315 86.06375 36.43459 86.85861 37.04826 87.65346 37.67494 88.44832 38.31404 89.24318 38.96616 90.03802 39.63187 90.83287 40.31116 91.62775 41.00372 92.42259 41.71106 93.21744 42.4329 94.0123 43.16805 94.80716 43.91965 95.602 44.68602 96.39687 45.46812"/>
<path transform="matrix(1.2,0,0,-.45002247,1.490799,22.553578)" stroke-width=".99628" stroke-linecap="butt" stroke-dasharray="2.98883,2.98883" stroke-miterlimit="10" stroke-linejoin="miter" fill="none" stroke="#000000" d="M62.1687 22.74321V6.3538"/>
<path transform="matrix(1.2,0,0,-.45002247,1.490799,22.553578)" stroke-width=".99628" stroke-linecap="butt" stroke-dasharray="2.98883,2.98883" stroke-miterlimit="10" stroke-linejoin="miter" fill="none" stroke="#000000" d="M62.1687 22.74321H17.70627"/>
<use data-text="1" xlink:href="#font_1_3" transform="matrix(12.04368,0,0,-4.5166056,64.91321,24.38247)"/>
<use data-text="." xlink:href="#font_1_1" transform="matrix(12.04368,0,0,-4.5166056,71.29636,24.38247)"/>
<use data-text="1" xlink:href="#font_1_3" transform="matrix(12.04368,0,0,-4.5166056,74.48793,24.38247)"/>
<use data-text="3" xlink:href="#font_1_5" transform="matrix(12.04368,0,0,-4.5166056,80.88312,24.38247)"/>
<use data-text="3" xlink:href="#font_1_5" transform="matrix(13.198561,0,0,-4.949707,-46.528406,14.516626)"/>
<use data-text="." xlink:href="#font_1_1" transform="matrix(13.198561,0,0,-4.949707,-39.533174,14.516626)"/>
<use data-text="0" xlink:href="#font_1_2" transform="matrix(13.198561,0,0,-4.949707,-36.035554,14.516626)"/>
<use data-text="9" xlink:href="#font_1_7" transform="matrix(13.198561,0,0,-4.949707,-29.027115,14.516626)"/>
<use data-text="&#x2248;" xlink:href="#font_3_1" transform="matrix(13.198561,0,0,-4.949707,-19.570405,14.516626)"/>
<use data-text="e" xlink:href="#font_4_1" transform="matrix(13.198561,0,0,-4.949707,-7.618408,14.516626)"/>
<use data-text="1" xlink:href="#font_1_3" transform="matrix(9.89892,0,0,-3.71228,-.6752014,12.563529)"/>
<use data-text="." xlink:href="#font_1_1" transform="matrix(9.89892,0,0,-3.71228,4.571228,12.563529)"/>
<use data-text="1" xlink:href="#font_1_3" transform="matrix(9.89892,0,0,-3.71228,7.1944429,12.563529)"/>
<use data-text="3" xlink:href="#font_1_5" transform="matrix(9.89892,0,0,-3.71228,12.450775,12.563529)"/>
<use data-text="e" xlink:href="#font_4_1" transform="matrix(13.198561,0,0,-4.949707,106.3552,2.4987779)" fill="#0000ff"/>
<use data-text="t" xlink:href="#font_4_2" transform="matrix(9.89892,0,0,-3.71228,113.514408,.5456803)" fill="#0000ff"/>
</g>
<use data-text="t" xlink:href="#font_4_2" transform="matrix(12.04368,0,0,-4.5166056,128.5888,17.990799)"/>
<use data-text="y" xlink:href="#font_4_3" transform="matrix(12.04368,0,0,-4.5166056,27.830803,5.720938)"/>
</svg>
