<svg xmlns="http://www.w3.org/2000/svg" xmlns:xlink="http://www.w3.org/1999/xlink" version="1.1" width="246" height="72" viewBox="0 0 246 72">
<defs>
<path id="font_1_3" d="M.2939911 .64004519C.2939911 .66400149 .2939911 .6660156 .2709961 .6660156 .20899964 .60227969 .12098694 .60227969 .08898926 .60227969V.57128909C.10899353 .57128909 .16799927 .57128909 .21998596 .5972748V.07902527C.21998596 .042999269 .21699524 .0309906 .1269989 .0309906H.09498596V0C.12998963 .0029907227 .21699524 .0029907227 .25698854 .0029907227 .29699708 .0029907227 .38398744 .0029907227 .4189911 0V.0309906H.3869934C.29699708 .0309906 .2939911 .041992189 .2939911 .07902527V.64004519Z"/>
<path id="font_1_4" d="M.1269989 .07699585 .23298645 .18003845C.3889923 .31811524 .44898988 .3721466 .44898988 .47216798 .44898988 .5860901 .35899354 .6660156 .23699951 .6660156 .12399292 .6660156 .049987794 .57411196 .049987794 .48516847 .049987794 .4291687 .099990848 .4291687 .102996829 .4291687 .11999512 .4291687 .15499878 .44117738 .15499878 .48217774 .15499878 .5081787 .13699341 .5341797 .101989749 .5341797 .09399414 .5341797 .09199524 .5341797 .08898926 .5331726 .11199951 .59806826 .1659851 .63500979 .22399903 .63500979 .31498719 .63500979 .35798646 .5541382 .35798646 .47216798 .35798646 .39215089 .30799867 .31311036 .25299073 .25108338L.06098938 .036987306C.049987794 .025985718 .049987794 .023986817 .049987794 0H.42099L.44898988 .17404175H.42399598C.4189911 .14402771 .4119873 .1000061 .4019928 .084991458 .394989 .07699585 .32899476 .07699585 .30699159 .07699585H.1269989Z"/>
<clipPath id="clip_2">
<path transform="matrix(1,0,0,-1.00008,92.477008,62.5348)" d="M0 0H152.14139V61.43256H0Z"/>
</clipPath>
<path id="font_3_2" d="M.20599365 .3996582H.2999878C.31999208 .3996582 .32998658 .3996582 .32998658 .41966249 .32998658 .43066407 .31999208 .43066407 .3019867 .43066407H.21398926C.25 .5724945 .25498963 .59246829 .25498963 .59846499 .25498963 .61546328 .24299622 .62545779 .22599793 .62545779 .22299195 .62545779 .19499207 .62446597 .18598938 .58947756L.14698792 .43066407H.052993776C.032989503 .43066407 .022994996 .43066407 .022994996 .4116516 .022994996 .3996582 .0309906 .3996582 .050994874 .3996582H.13899231C.066986087 .11608887 .06298828 .099121097 .06298828 .08114624 .06298828 .02722168 .100997928-.0107421879 .15499878-.0107421879 .25698854-.0107421879 .31399537 .13505554 .31399537 .14305115 .31399537 .1530304 .30599977 .1530304 .3019867 .1530304 .29299928 .1530304 .2919922 .15003968 .2869873 .13905335 .24398804 .035217287 .19099427 .011245728 .15699768 .011245728 .13598633 .011245728 .12599182 .024230957 .12599182 .057174684 .12599182 .08114624 .12799073 .088134769 .13198853 .10510254L.20599365 .3996582Z"/>
<path id="font_3_4" d="M.48599244 .38136292C.48999024 .39537049 .48999024 .39736939 .48999024 .40437318 .48999024 .42237855 .47599793 .43138124 .46099855 .43138124 .45098878 .43138124 .43499757 .42536927 .42599488 .41036988 .42399598 .405365 .41600038 .37435914 .4119873 .35635377 .40499879 .33035279 .397995 .30334474 .3919983 .27633668L.34700013 .09628296C.34298707 .08126831 .2999878 .011245728 .23399353 .011245728 .18299866 .011245728 .17199707 .055267335 .17199707 .0922699 .17199707 .1382904 .18899536 .20030213 .22299195 .28833009 .23899842 .3293457 .24299622 .3403473 .24299622 .36035157 .24299622 .405365 .21099854 .4423828 .16099549 .4423828 .06599426 .4423828 .0289917 .29733277 .0289917 .28833009 .0289917 .27833558 .038986207 .27833558 .040985109 .27833558 .050994874 .27833558 .051986696 .28033448 .056991579 .29634095 .083999637 .3903656 .12399292 .42037965 .1579895 .42037965 .1659851 .42037965 .18299866 .42037965 .18299866 .3883667 .18299866 .36335755 .17298889 .3373413 .1659851 .31834413 .12599182 .21231079 .10798645 .1552887 .10798645 .10827637 .10798645 .019256592 .17098999-.0107421879 .22999573-.0107421879 .2689972-.0107421879 .30299378 .0062561037 .33099366 .03425598 .31799317-.017745972 .30599977-.06674194 .2659912-.11973572 .23999024-.15385437 .20199585-.18309021 .1559906-.18309021 .14199829-.18309021 .09700012-.18005371 .07998657-.14074707 .09599304-.14074707 .10899353-.14074707 .12298584-.1287384 .1329956-.11973572 .14299011-.10673523 .14299011-.08773804 .14299011-.056747438 .115997318-.052734376 .10598755-.052734376 .08299255-.052734376 .049987794-.068740848 .049987794-.11773682 .049987794-.16796875 .09399414-.20507813 .1559906-.20507813 .25898744-.20507813 .3619995-.11373901 .3899994-.00074768069L.48599244 .38136292Z"/>
<path id="font_3_3" d="M.33399964 .30233766C.33999635 .32835389 .36299134 .42037965 .43299867 .42037965 .43798829 .42037965 .46199037 .42037965 .48298646 .40734864 .45498658 .402359 .43499757 .37734986 .43499757 .35334779 .43499757 .33735658 .44599916 .31835938 .47299195 .31835938 .49499513 .31835938 .5269928 .3363495 .5269928 .37635804 .5269928 .42837525 .46798707 .4423828 .43399049 .4423828 .37599183 .4423828 .34098817 .38935853 .32899476 .36634828 .3039856 .43237306 .25 .4423828 .22099304 .4423828 .116989139 .4423828 .05999756 .3133545 .05999756 .28834535 .05999756 .27833558 .069992069 .27833558 .07199097 .27833558 .07998657 .27833558 .08299255 .28033448 .084991458 .28933717 .11898804 .39535523 .18499756 .42037965 .21899414 .42037965 .23799134 .42037965 .272995 .4113617 .272995 .35334779 .272995 .32235719 .2559967 .25532533 .21899414 .11528015 .20298767 .053268434 .16799927 .011245728 .12399292 .011245728 .117996219 .011245728 .09498596 .011245728 .07398987 .024276734 .09899902 .029266358 .12098694 .05027771 .12098694 .07827759 .12098694 .105270389 .09899902 .11328125 .083999637 .11328125 .053985597 .11328125 .0289917 .08728027 .0289917 .055267335 .0289917 .009246826 .07899475-.0107421879 .12298584-.0107421879 .18899536-.0107421879 .22499085 .059280397 .22799683 .0652771 .23999024 .028274537 .27598573-.0107421879 .33599855-.0107421879 .43899537-.0107421879 .49598695 .118270877 .49598695 .14328003 .49598695 .1532898 .4869995 .1532898 .48399354 .1532898 .47499085 .1532898 .47299195 .14929199 .47099305 .14228821 .43798829 .03527832 .36999513 .011245728 .33799745 .011245728 .29899598 .011245728 .2829895 .043273927 .2829895 .07727051 .2829895 .09927368 .2889862 .121276859 .2999878 .16529846L.33399964 .30233766Z"/>
<path id="font_1_1" d="M.33099366-.2400055C.33099366-.23701477 .33099366-.23500061 .31399537-.21800232 .18899536-.0920105 .15699768 .09700012 .15699768 .25 .15699768 .42399598 .19499207 .59799197 .31799317 .72299197 .33099366 .73498538 .33099366 .7369995 .33099366 .73999026 .33099366 .746994 .32699586 .75 .32099916 .75 .31098939 .75 .22099304 .6819916 .1619873 .5549927 .11099243 .44499208 .09899902 .33399964 .09899902 .25 .09899902 .17199707 .10998535 .050994874 .16499329-.06201172 .22499085-.18501282 .31098939-.25 .32099916-.25 .32699586-.25 .33099366-.24700928 .33099366-.2400055Z"/>
<path id="font_1_2" d="M.2889862 .25C.2889862 .32798768 .27799989 .44898988 .22299195 .56199648 .16299439 .68499758 .07699585 .75 .066986087 .75 .06098938 .75 .056991579 .74598696 .056991579 .73999026 .056991579 .7369995 .056991579 .73498538 .07598877 .71699526 .17399597 .6179962 .23098755 .45899964 .23098755 .25 .23098755 .07899475 .19400025-.09700012 .069992069-.2230072 .056991579-.23500061 .056991579-.23701477 .056991579-.2400055 .056991579-.2460022 .06098938-.25 .066986087-.25 .07699585-.25 .16699219-.18200684 .22599793-.055007936 .2769928 .054992677 .2889862 .16600037 .2889862 .25Z"/>
<path id="font_1_5" d="M.68699648 .32714845C.70199587 .32714845 .72099307 .32714845 .72099307 .34713746 .72099307 .36714173 .70199587 .36714173 .6879883 .36714173H.08898926C.07499695 .36714173 .055999757 .36714173 .055999757 .34713746 .055999757 .32714845 .07499695 .32714845 .08999634 .32714845H.68699648M.6879883 .13284302C.70199587 .13284302 .72099307 .13284302 .72099307 .15284729 .72099307 .17285156 .70199587 .17285156 .68699648 .17285156H.08999634C.07499695 .17285156 .055999757 .17285156 .055999757 .15284729 .055999757 .13284302 .07499695 .13284302 .08898926 .13284302H.6879883Z"/>
<path id="font_4_1" d="M.4889984 .31877137C.4889984 .42585755 .47799684 .49090577 .44499208 .55496218 .40098573 .6430359 .31999208 .66503909 .2649994 .66503909 .13899231 .66503909 .09298706 .5709839 .07899475 .5429535 .042999269 .4698944 .040985109 .3708191 .040985109 .31877137 .040985109 .25271607 .04399109 .15162659 .09199524 .07156372 .13798523-.0024871827 .21199036-.021484375 .2649994-.021484375 .31298829-.021484375 .39898683-.0064849855 .44898988 .09257507 .48599244 .16464234 .4889984 .2537079 .4889984 .31877137M.2649994 .006515503C.23098755 .006515503 .1619873 .022521973 .14099121 .12760926 .12998963 .18466187 .12998963 .2787323 .12998963 .33078004 .12998963 .3998413 .12998963 .4698944 .14099121 .5249481 .1619873 .6270294 .23999024 .6370239 .2649994 .6370239 .29899598 .6370239 .36799623 .62002566 .3880005 .5289459 .3999939 .4738922 .3999939 .39883424 .3999939 .33078004 .3999939 .27172853 .3999939 .18165589 .3880005 .12561035 .36698915 .020523072 .2979889 .006515503 .2649994 .006515503Z"/>
<path id="font_3_1" d="M.18699646 .23144531C.21598816 .23144531 .2899933 .23344422 .33999635 .2544403 .4099884 .28442384 .4149933 .34339906 .4149933 .35740663 .4149933 .40138246 .3769989 .4423828 .30799867 .4423828 .19699097 .4423828 .04598999 .34539796 .04598999 .17037964 .04598999 .06829834 .10499573-.0107421879 .20298767-.0107421879 .34599305-.0107421879 .42999269 .095321658 .42999269 .10733032 .42999269 .113342288 .42399598 .12034607 .41799928 .12034607 .41299439 .12034607 .41099549 .11834717 .40499879 .1103363 .32598878 .011245728 .21699524 .011245728 .20498657 .011245728 .1269989 .011245728 .117996219 .095321658 .117996219 .12734986 .117996219 .13935852 .11898804 .17037964 .13398743 .23144531H.18699646M.13999939 .25343324C.1789856 .40538026 .28199769 .42037965 .30799867 .42037965 .35499574 .42037965 .38198854 .39138795 .38198854 .35740663 .38198854 .25343324 .22200012 .25343324 .18099976 .25343324H.13999939Z"/>
<path id="font_5_1" d="M.69898989 .22743225C.71499636 .22743225 .7369995 .22743225 .7369995 .25042726 .7369995 .2734375 .71499636 .2734375 .69898989 .2734375H.12599182C.10998535 .2734375 .08799744 .2734375 .08799744 .25042726 .08799744 .22743225 .10998535 .22743225 .12599182 .22743225H.69898989Z"/>
<path id="font_6_1" d="M.22099304 .3976593H.31900025C.33799745 .3976593 .34999085 .3976593 .34999085 .4166565 .34999085 .43066407 .33699037 .43066407 .31999208 .43066407H.22898865L.2649994 .57250979C.2689972 .58750918 .2689972 .5924988 .2689972 .5934906 .2689972 .6144867 .25299073 .6244812 .23599243 .6244812 .20199585 .6244812 .19499207 .5974884 .18399048 .552536L.15299988 .43066407H.056991579C.037994386 .43066407 .024993897 .43066407 .024993897 .4116516 .024993897 .3976593 .037994386 .3976593 .054992677 .3976593H.14498902L.084991458 .15802002C.07899475 .13305664 .069992069 .09811401 .069992069 .084121707 .069992069 .024215699 .11898804-.009765625 .17199707-.009765625 .2789917-.009765625 .33999635 .13105774 .33999635 .14303589 .33999635 .15402222 .33099366 .15602112 .32499696 .15602112 .31399537 .15602112 .31298829 .15202332 .30599977 .13705445 .28599549 .08912659 .23599243 .018234253 .1749878 .018234253 .1539917 .018234253 .14199829 .032211305 .14199829 .06515503 .14199829 .084121707 .14498902 .09510803 .147995 .10809326L.22099304 .3976593Z"/>
<path id="font_4_2" d="M.28199769 .20405579C.2979889 .21907044 .33999635 .2520752 .35598756 .26608277 .41799928 .32312013 .47698976 .3781433 .47698976 .46917726 .47698976 .588089 .3769989 .66503909 .2519989 .66503909 .13198853 .66503909 .052993776 .57411196 .052993776 .48516847 .052993776 .4361725 .09199524 .4291687 .10598755 .4291687 .1269989 .4291687 .1579895 .4441681 .1579895 .48217774 .1579895 .5341797 .10798645 .5341797 .09599304 .5341797 .125 .6070709 .19198609 .6320343 .24099732 .6320343 .33399964 .6320343 .38198854 .55314639 .38198854 .46917726 .38198854 .36514283 .30899049 .28910829 .19099427 .16804505L.06498718 .037994386C.052993776 .026992798 .052993776 .024993897 .052993776 0H.44799806L.47698976 .17904663H.44599916C.44299317 .1590271 .43499757 .10900879 .4229889 .08999634 .4169922 .08198547 .34098817 .08198547 .32499696 .08198547H.14698792L.28199769 .20405579Z"/>
</defs>
<path transform="matrix(1,0,0,-1.00008,92.477008,62.5348)" stroke-width=".79701" stroke-linecap="butt" stroke-miterlimit="10" stroke-linejoin="miter" fill="none" stroke="#929292" d="M44.37457 3.13313V5.96797M107.76682 3.13313V5.96797"/>
<path transform="matrix(1,0,0,-1.00008,92.477008,62.5348)" stroke-width=".79701" stroke-linecap="butt" stroke-miterlimit="10" stroke-linejoin="miter" fill="none" stroke="#929292" d="M76.0707 2.42464V6.67645M139.46294 2.42464V6.67645"/>
<path transform="matrix(1,0,0,-1.00008,92.477008,62.5348)" stroke-width=".79701" stroke-linecap="butt" stroke-miterlimit="10" stroke-linejoin="miter" fill="none" stroke="#929292" d="M11.26093 50.05615H14.09598"/>
<path transform="matrix(1,0,0,-1.00008,92.477008,62.5348)" stroke-width=".79701" stroke-linecap="butt" stroke-miterlimit="10" stroke-linejoin="miter" fill="none" stroke="#929292" d=""/>
<path transform="matrix(1,0,0,-1.00008,92.477008,62.5348)" stroke-width=".99628" stroke-linecap="butt" stroke-miterlimit="10" stroke-linejoin="miter" fill="none" stroke="#000000" d="M0 4.55055H149.25218"/>
<path transform="matrix(1,0,0,-1.00008,241.72919,57.983888)" d="M2.8892 0-1.73352 2.31136 0 0-1.73352-2.31136"/>
<path transform="matrix(1,0,0,-1.00008,92.477008,62.5348)" stroke-width=".99628" stroke-linecap="butt" stroke-miterlimit="10" stroke-linejoin="miter" fill="none" stroke="#000000" d="M12.67844 0V58.54335"/>
<path transform="matrix(0,-1.00008,-1,-0,105.15544,3.9867669)" d="M2.8892 0-1.73352 2.31136 0 0-1.73352-2.31136"/>
<use data-text="1" xlink:href="#font_1_3" transform="matrix(10.9091,0,0,-10.909972,165.82,71.2755)"/>
<use data-text="2" xlink:href="#font_1_4" transform="matrix(10.9091,0,0,-10.909972,229.213,71.2755)"/>
<g clip-path="url(#clip_2)">
<path transform="matrix(1,0,0,-1.00008,92.477008,62.5348)" stroke-width=".99628" stroke-linecap="butt" stroke-miterlimit="10" stroke-linejoin="miter" fill="none" stroke="#ff0000" d="M0 21.22429 1.53673 20.82498 3.0735 20.4351 4.61024 20.05475 6.147 19.6833 7.68376 19.321 9.2205 18.9674 10.75726 18.62216 12.29402 18.28508 13.83078 17.95827 15.36752 17.63731 16.90427 17.32457 18.44104 17.01875 19.9778 16.71965 21.51454 16.42888 23.0513 16.14355 24.58806 15.86629 26.1248 15.59462 27.66156 15.33115 29.1983 15.07298 30.73506 14.8203 32.27182 14.57457 33.80858 14.33417 35.34534 14.10057 36.8821 13.87123 38.41884 13.64885 39.9556 13.43028 41.49236 13.21716 43.0291 13.00967 44.56586 12.80763 46.1026 12.60954 47.63936 12.41705 49.17613 12.22853 50.71288 12.04424 52.24963 11.86551 53.78639 11.68929 55.32314 11.51863 56.8599 11.35194 58.39664 11.1895 59.9334 11.02977 61.47015 10.87537 63.0069 10.72246 64.54367 10.57504 66.08043 10.4317 67.61717 10.2897 69.15392 10.15306 70.69069 10.01804 72.22743 9.88821 73.76419 9.75989 75.30093 9.63553 76.83769 9.51266 78.37445 9.39389 79.91121 9.27785 81.44797 9.1644 82.98471 9.05519 84.52145 8.9461 86.05823 8.84085 87.59497 8.73833 89.13173 8.63882 90.66849 8.54053 92.20523 8.44482 93.74199 8.35199 95.27876 8.26051 96.8155 8.17178 98.35225 8.08429 99.889 7.99977 101.42577 7.91786 102.96252 7.83719 104.49927 7.758 106.03603 7.68155 107.57278 7.60648 109.10953 7.53262 110.6463 7.46162 112.18304 7.39214 113.71979 7.32375 115.25656 7.25685 116.7933 7.19269 118.33006 7.12975 119.86682 7.06711 121.40356 7.00688 122.94032 6.9482 124.47708 6.89085 126.01384 6.83488 127.55058 6.78027 129.08733 6.7269 130.6241 6.67502 132.16086 6.62314 133.6976 6.57399 135.23436 6.52484 136.77112 6.47844 138.30786 6.43216 139.84462 6.38696 141.38138 6.34328 142.91812 6.29974 144.45488 6.25865 145.99164 6.2177 147.5284 6.17688 149.06516 6.1385 150.6019 6.10042 152.13866 6.06342"/>
<path transform="matrix(1,0,0,-1.00008,92.477008,62.5348)" stroke-width=".99628" stroke-linecap="butt" stroke-miterlimit="10" stroke-linejoin="miter" fill="none" stroke="#0000ff" d="M0 48.67421 1.53673 46.5865 3.0735 44.59708 4.61024 42.70137 6.147 40.89648 7.68376 39.17651 9.2205 37.53752 10.75726 35.97694 12.29402 34.48976 13.83078 33.07974 15.36752 31.72769 16.90427 30.44397 18.44104 29.21617 19.9778 28.05019 21.51454 26.93803 23.0513 25.8788 24.58806 24.87018 26.1248 23.9083 27.66156 22.99106 29.1983 22.11818 30.73506 21.28702 32.27182 20.49402 33.80858 19.73978 35.34534 19.0207 36.8821 18.33743 38.41884 17.68347 39.9556 17.06201 41.49236 16.47015 43.0291 15.9052 44.56586 15.36687 46.1026 14.85486 47.63936 14.36977 49.17613 13.90213 50.71288 13.46172 52.24963 13.03842 53.78639 12.63617 55.32314 12.2543 56.8599 11.89049 58.39664 11.54117 59.9334 11.21312 61.47015 10.89635 63.0069 10.59494 64.54367 10.3104 66.08043 10.03827 67.61717 9.77827 69.15392 9.52953 70.69069 9.2926 72.22743 9.07104 73.76419 8.85483 75.30093 8.65103 76.83769 8.45877 78.37445 8.27214 79.91121 8.09761 81.44797 7.92873 82.98471 7.76959 84.52145 7.61548 86.05823 7.47188 87.59497 7.33363 89.13173 7.20193 90.66849 7.07643 92.20523 6.95691 93.74199 6.84305 95.27876 6.73451 96.8155 6.63116 98.35225 6.53271 99.889 6.43889 101.42577 6.34952 102.96252 6.26439 104.49927 6.18329 106.03603 6.106 107.57278 6.0324 109.10953 5.96227 110.6463 5.89545 112.18304 5.8318 113.71979 5.77116 115.25656 5.71341 116.7933 5.65837 118.33006 5.60596 119.86682 5.556 121.40356 5.50839 122.94032 5.4631 124.47708 5.41989 126.01384 5.37875 127.55058 5.33955 129.08733 5.30222 130.6241 5.26666 132.16086 5.23276 133.6976 5.20047 135.23436 5.16971 136.77112 5.14041 138.30786 5.11249 139.84462 5.08589 141.38138 5.06056 142.91812 5.03642 144.45488 5.01344 145.99164 4.99152 147.5284 4.97066 149.06516 4.95078 150.6019 4.93184 152.13866 4.91379"/>
</g>
<use data-text="t" xlink:href="#font_3_2" transform="matrix(10.9091,0,0,-10.909972,236.545,53.849107)"/>
<use data-text="y" xlink:href="#font_3_4" transform="matrix(10.9091,0,0,-10.909972,109.29001,9.929592)"/>
<path transform="matrix(1,0,0,-1.00008,92.477008,62.5348)" d="M-90.71303 27.75008H-.49813844V60.93441H-90.71303Z" fill="#ffffff"/>
<path transform="matrix(1,0,0,-1.00008,92.477008,62.5348)" stroke-width=".99628" stroke-linecap="butt" stroke-miterlimit="10" stroke-linejoin="miter" fill="none" stroke="#000000" d="M-90.71303 27.75008H-.49813844V60.93441H-90.71303Z"/>
<path transform="matrix(1,0,0,-1.00008,5.251007,10.829664)" stroke-width=".99628" stroke-linecap="butt" stroke-miterlimit="10" stroke-linejoin="miter" fill="none" stroke="#ff0000" d="M0 0H8.50412 17.00826"/>
<use data-text="x" xlink:href="#font_3_3" transform="matrix(10.9091,0,0,-10.909972,26.176026,14.441954)"/>
<use data-text="(" xlink:href="#font_1_1" transform="matrix(10.9091,0,0,-10.909972,32.41101,14.441954)"/>
<use data-text="t" xlink:href="#font_3_2" transform="matrix(10.9091,0,0,-10.909972,36.653017,14.441954)"/>
<use data-text=")" xlink:href="#font_1_2" transform="matrix(10.9091,0,0,-10.909972,40.593019,14.441954)"/>
<use data-text="=" xlink:href="#font_1_5" transform="matrix(10.9091,0,0,-10.909972,47.847566,14.441954)"/>
<use data-text="x" xlink:href="#font_3_3" transform="matrix(10.9091,0,0,-10.909972,59.381013,14.441954)"/>
<use data-text="0" xlink:href="#font_4_1" transform="matrix(7.9701,0,0,-7.9707376,65.61502,16.079085)"/>
<use data-text="e" xlink:href="#font_3_1" transform="matrix(10.9091,0,0,-10.909972,70.34802,14.441954)"/>
<use data-text="&#x2212;" xlink:href="#font_5_1" transform="matrix(7.9701,0,0,-7.9707376,75.42703,10.483637)"/>
<use data-text="t" xlink:href="#font_6_1" transform="matrix(7.9701,0,0,-7.9707376,82.01404,10.483637)"/>
<path transform="matrix(1,0,0,-1.00008,5.251007,25.430832)" stroke-width=".99628" stroke-linecap="butt" stroke-miterlimit="10" stroke-linejoin="miter" fill="none" stroke="#0000ff" d="M0 0H8.50412 17.00826"/>
<use data-text="y" xlink:href="#font_3_4" transform="matrix(10.9091,0,0,-10.909972,24.749024,29.16013)"/>
<use data-text="(" xlink:href="#font_1_1" transform="matrix(10.9091,0,0,-10.909972,30.489014,29.16013)"/>
<use data-text="t" xlink:href="#font_3_2" transform="matrix(10.9091,0,0,-10.909972,34.731019,29.16013)"/>
<use data-text=")" xlink:href="#font_1_2" transform="matrix(10.9091,0,0,-10.909972,38.67102,29.16013)"/>
<use data-text="=" xlink:href="#font_1_5" transform="matrix(10.9091,0,0,-10.909972,45.925569,29.16013)"/>
<use data-text="y" xlink:href="#font_3_4" transform="matrix(10.9091,0,0,-10.909972,57.459016,29.16013)"/>
<use data-text="0" xlink:href="#font_4_1" transform="matrix(7.9701,0,0,-7.9707376,62.807008,30.796265)"/>
<use data-text="e" xlink:href="#font_3_1" transform="matrix(10.9091,0,0,-10.909972,67.54001,29.16013)"/>
<use data-text="&#x2212;" xlink:href="#font_5_1" transform="matrix(7.9701,0,0,-7.9707376,72.61902,25.200814)"/>
<use data-text="2" xlink:href="#font_4_2" transform="matrix(7.9701,0,0,-7.9707376,79.206027,25.200814)"/>
<use data-text="t" xlink:href="#font_6_1" transform="matrix(7.9701,0,0,-7.9707376,83.44003,25.200814)"/>
</svg>
