<svg xmlns="http://www.w3.org/2000/svg" xmlns:xlink="http://www.w3.org/1999/xlink" version="1.1" width="114" height="75" viewBox="0 0 114 75">
<defs>
<path id="font_1_1" d="M.42799378 .45222474 .43899537 .49023438H.31199647L.34599305 .6092224 .33399964 .6162262 .23699951 .53923037 .22399903 .49023438H.14299011L.13198853 .45222474H.21499634L.125 .08627319C.10998535 .029266358 .12199402-.01171875 .17199707-.01171875 .2519989-.01171875 .31599427 .054275514 .35598756 .1292572L.33399964 .1462555C.31098939 .10726929 .2599945 .040267946 .22898865 .040267946 .20799256 .040267946 .20799256 .0632782 .21398926 .088272098L.30299378 .45222474H.42799378Z"/>
<path id="font_2_2" d="M.6349945 .2529297V.31092835H.084991458V.2529297H.6349945Z"/>
<path id="font_3_5" d="M.4850006 .13195801 .45700074 .13696289C.43598939 .08299255 .41600038 .07598877 .37599183 .07598877H.11999512C.13598633 .1279602 .19499207 .19892884 .28799439 .2658844 .38398744 .33584596 .45799256 .38082887 .45799256 .49276734 .45799256 .63168337 .3659973 .6796875 .26098634 .6796875 .12399292 .6796875 .052993776 .5967102 .052993776 .54473879 .052993776 .51075747 .09098816 .49476625 .10798645 .49476625 .12599182 .49476625 .1329956 .50476077 .13699341 .5217438 .15299988 .5897064 .19198609 .64468386 .2539978 .64468386 .33099366 .64468386 .35299684 .5797119 .35299684 .50675967 .35299684 .3998108 .29899598 .33984376 .21199036 .26289369 .08898926 .15594483 .04598999 .08798218 .026992798 .009994507L.036987306 0H.45098878L.4850006 .13195801Z"/>
<path id="font_3_4" d="M.43699647 0V.0289917L.35299684 .035995485C.33198548 .037994386 .31999208 .04598999 .31999208 .08496094V.67367556L.31498719 .6796875 .10899353 .6446991V.6197052L.20199585 .6087036C.21899414 .6067047 .22599793 .5987091 .22599793 .56973269V.08496094C.22599793 .065979007 .22299195 .053985597 .21699524 .04698181 .21199036 .039993287 .20399475 .036987306 .19299317 .035995485L.10899353 .0289917V0H.43699647Z"/>
<path id="font_1_2" d="M.5329895 .48995973C.5039978 .388031 .48799134 .33506776 .46199037 .2741089 .41799928 .173172 .33099366 .040267946 .24798584 .040267946 .21598816 .040267946 .20799256 .070251468 .22299195 .12820435L.31900025 .4970703 .31399537 .50205996 .13198853 .47375489 .12599182 .4497528 .18798828 .44476319C.21199036 .44276429 .21099854 .42778016 .20298767 .39682008L.13398743 .13316345C.11299133 .053253175 .12098694-.01171875 .20098877-.01171875 .29699708-.01171875 .4019928 .09420776 .46199037 .21005249H.46398927L.43099977 .096206668C.4119873 .029266358 .42399598-.01171875 .47698976-.01171875 .548996-.01171875 .60899356 .057250978 .6439972 .13116455L.6199951 .14613343C.59999087 .11218262 .55599978 .040267946 .5279999 .040267946 .5069885 .040267946 .5069885 .06324768 .5149994 .09420776L.621994 .5019531 .5329895 .48995973Z"/>
<path id="font_3_1" d="M.1749878 .2822113C.1749878 .56832888 .2619934 .65437319 .32499696 .66737368V.6923828C.1499939 .685379 .10499573 .46829225 .10499573 .2822113 .10499573 .09614563 .1499939-.12094116 .32499696-.12792969V-.10293579C.2669983-.090927127 .1749878-.0059051516 .1749878 .2822113Z"/>
<path id="font_3_2" d="M.1749878 .2822113C.1749878-.0059051516 .08299255-.090927127 .024993897-.10293579V-.12792969C.19999695-.12094116 .24499512 .09614563 .24499512 .2822113 .24499512 .46829225 .19999695 .685379 .024993897 .6923828V.66737368C.08799744 .65437319 .1749878 .56832888 .1749878 .2822113Z"/>
<path id="font_2_4" d="M.6349945 .14315796V.20117188H.084991458V.14315796H.6349945M.6349945 .36288453V.42089845H.084991458V.36288453H.6349945Z"/>
<path id="font_3_3" d="M.2649994 .64468386C.3600006 .64468386 .3869934 .49682618 .3869934 .33398438 .3869934 .17112732 .3600006 .023269654 .2649994 .023269654 .16999817 .023269654 .14299011 .17112732 .14299011 .33398438 .14299011 .49682618 .16999817 .64468386 .2649994 .64468386M.2649994 .6796875C.099990848 .6796875 .040985109 .53378298 .040985109 .33398438 .040985109 .13417053 .099990848-.01171875 .2649994-.01171875 .42999269-.01171875 .4889984 .13417053 .4889984 .33398438 .4889984 .53378298 .42999269 .6796875 .2649994 .6796875Z"/>
<path id="font_3_9" d="M.18998719 .7480469C.13999939 .7020416 .07199097 .6350403 .07199097 .56404116 .07199097 .5100403 .10398865 .47703553 .13699341 .4780426 .16699219 .4780426 .18499756 .4990387 .18499756 .5260315 .18499756 .56204226 .1519928 .58303835 .1519928 .6200409 .1519928 .6580353 .17599488 .6960449 .20698548 .7320404L.18998719 .7480469M.36999513 .7480469C.31999208 .7020416 .2519989 .6350403 .2519989 .56404116 .2519989 .5100403 .28399659 .47703553 .31698609 .4780426 .34700013 .4780426 .36499024 .4990387 .36499024 .5260315 .36499024 .56204226 .33198548 .58303835 .33198548 .6200409 .33198548 .6580353 .35598756 .6960449 .3869934 .7320404L.36999513 .7480469Z"/>
<path id="font_3_8" d="M.28799439 .5019531C.12799073 .5019531 .04899597 .40698243 .04899597 .24510193 .04899597 .083236698 .12799073-.01171875 .28799439-.01171875 .44999696-.01171875 .5279999 .083236698 .5279999 .24510193 .5279999 .40698243 .44999696 .5019531 .28799439 .5019531M.15299988 .24510193C.15299988 .38301087 .19699097 .46694947 .28799439 .46694947 .3809967 .46694947 .42399598 .38301087 .42399598 .24510193 .42399598 .10720825 .3809967 .023269654 .28799439 .023269654 .19699097 .023269654 .15299988 .10720825 .15299988 .24510193Z"/>
<path id="font_3_6" d="M.20098877 .45022584H.32299806V.49023438H.20098877L.19699097 .60220339C.19400025 .6971741 .22898865 .70718386 .24499512 .70718386 .2659912 .70718386 .28799439 .6971741 .31298829 .6391907 .31799317 .62919619 .32499696 .6221924 .33999635 .6221924 .3600006 .6221924 .3889923 .6391907 .3889923 .66918948 .3889923 .70217898 .34700013 .7421875 .2669983 .7421875 .21199036 .7421875 .16499329 .71717837 .13999939 .67918398 .116989139 .64419558 .10699463 .5912018 .10699463 .5252228V.49023438H.02999878V.45022584H.10699463V.087020877C.10699463 .035995485 .10398865 .033996583 .03199768 .0289917V0H.29599V.0289917C.20498657 .032989503 .20098877 .034988405 .20098877 .08602905V.45022584Z"/>
<path id="font_3_10" d="M.08898926 .47218324C.13899231 .5181732 .20698548 .58517459 .20698548 .6561737 .20698548 .71017459 .1749878 .7431793 .14199829 .7421875 .11199951 .7421875 .09399414 .72117617 .09399414 .69418337 .09399414 .6581726 .1269989 .6371765 .1269989 .60017397 .1269989 .56217959 .102996829 .5241852 .07199097 .48817445L.08898926 .47218324M.2689972 .47218324C.31900025 .5181732 .3869934 .58517459 .3869934 .6561737 .3869934 .71017459 .35499574 .7431793 .32199098 .7421875 .2919922 .7421875 .27398683 .72117617 .27398683 .69418337 .27398683 .6581726 .30699159 .6371765 .30699159 .60017397 .30699159 .56217959 .2829895 .5241852 .2519989 .48817445L.2689972 .47218324Z"/>
<path id="font_3_7" d="M.5289917 .34295655C.5289917 .4439392 .47399903 .5019531 .38198854 .5019531 .30799867 .5019531 .2619934 .46594239 .19999695 .4259491L.18598938 .5019531 .036987306 .47694398V.45195008L.07499695 .4469452C.100997928 .4429474 .10699463 .4379425 .10699463 .40194703V.08699036C.10699463 .035995485 .10398865 .033996583 .03199768 .0289917V0H.27598573V.0289917C.20498657 .033996583 .20098877 .035995485 .20098877 .08699036V.32095338C.20098877 .34596253 .20298767 .35995484 .21099854 .37594605 .23199463 .4149475 .2769928 .44795228 .32998658 .44795228 .397995 .44795228 .43499757 .40994264 .43499757 .32295228V.08699036C.43499757 .035995485 .43199159 .033996583 .3600006 .0289917V0H.60398867V.0289917C.5329895 .033996583 .5289917 .035995485 .5289917 .08699036V.34295655Z"/>
<path id="font_2_1" d="M.397995-.82902529 .22499085-.43717958C.22099304-.42918397 .21899414-.42318727 .21199036-.42318727 .20899964-.42318727 .20799256-.42419435 .19799805-.43118287L.09700012-.50315859 .11099243-.52215579C.1269989-.51815798 .14299011-.51416018 .15299988-.51416018 .15499878-.51416018 .1559906-.51416018 .1559906-.515152L.35299684-.95996096H.38198854C.38198854-.95996096 .8470001 .0016326904 .84999087 .0026245118 .8549957 .013626099 .8529968 .014633179 .8529968 .019622803 .8529968 .03062439 .84999087 .057617189 .83799746 .057617189H.82899478L.397995-.82902529Z"/>
<path id="font_2_3" d="M.07998657 .28173829C.07998657 .24674988 .10798645 .21875 .14299011 .21875 .17799378 .21875 .20599365 .24674988 .20599365 .28173829 .20599365 .31674195 .17799378 .34474183 .14299011 .34474183 .10798645 .34474183 .07998657 .31674195 .07998657 .28173829Z"/>
</defs>
<path transform="matrix(1.00003,0,0,-1.00009,56.652688,37.518938)" d="M-55.55954-35.71686V35.71686H19.84267V-35.71686ZM19.84267 35.71686" fill="#d9d9ff"/>
<path transform="matrix(1.00003,0,0,-1.00009,56.652688,37.518938)" d="M19.84267-35.71686V35.71686H55.55954V-35.71686ZM55.55954 35.71686" fill="#d9f0d9"/>
<path transform="matrix(1.00003,0,0,-1.00009,56.652688,37.518938)" stroke-width=".3985" stroke-linecap="butt" stroke-miterlimit="10" stroke-linejoin="miter" fill="none" stroke="#000000" d="M-55.55954 0H55.10127"/>
<path transform="matrix(1.00003,0,0,-1.00009,111.755619,37.518938)" stroke-width=".31879" stroke-linecap="round" stroke-linejoin="round" fill="none" stroke="#000000" d="M-1.19551 1.59401C-1.09587 .99626 0 .09961 .29886 0 0-.09961-1.09587-.99626-1.19551-1.59401"/>
<path transform="matrix(1.00003,0,0,-1.00009,56.652688,37.518938)" stroke-width=".3985" stroke-linecap="butt" stroke-miterlimit="10" stroke-linejoin="miter" fill="none" stroke="#000000" d="M0-35.71686V35.25858"/>
<path transform="matrix(0,-1.00009,-1.00003,-0,56.652688,2.257183)" stroke-width=".31879" stroke-linecap="round" stroke-linejoin="round" fill="none" stroke="#000000" d="M-1.19551 1.59401C-1.09587 .99626 0 .09961 .29886 0 0-.09961-1.09587-.99626-1.19551-1.59401"/>
<use data-text="t" xlink:href="#font_1_1" transform="matrix(7.3327205,0,0,-7.33316,108.66824,45.43765)"/>
<path transform="matrix(1.00003,0,0,-1.00009,56.652688,37.518938)" stroke-width=".3985" stroke-linecap="butt" stroke-miterlimit="10" stroke-linejoin="miter" fill="none" stroke="#929292" d="M-39.68535 1.39478V-1.39478"/>
<use data-text="&#x2212;" xlink:href="#font_2_2" transform="matrix(7.3327205,0,0,-7.33316,12.383354,47.22281)"/>
<use data-text="2" xlink:href="#font_3_5" transform="matrix(7.3327205,0,0,-7.33316,17.660515,47.22281)"/>
<path transform="matrix(1.00003,0,0,-1.00009,56.652688,37.518938)" stroke-width=".3985" stroke-linecap="butt" stroke-miterlimit="10" stroke-linejoin="miter" fill="none" stroke="#929292" d="M-19.84267 1.39478V-1.39478"/>
<use data-text="&#x2212;" xlink:href="#font_2_2" transform="matrix(7.3327205,0,0,-7.33316,32.225954,47.22281)"/>
<use data-text="1" xlink:href="#font_3_4" transform="matrix(7.3327205,0,0,-7.33316,37.503114,47.22281)"/>
<path transform="matrix(1.00003,0,0,-1.00009,56.652688,37.518938)" stroke-width=".3985" stroke-linecap="butt" stroke-miterlimit="10" stroke-linejoin="miter" fill="none" stroke="#929292" d="M19.84267 1.39478V-1.39478"/>
<use data-text="1" xlink:href="#font_3_4" transform="matrix(7.3327205,0,0,-7.33316,74.55122,47.22281)"/>
<path transform="matrix(1.00003,0,0,-1.00009,56.652688,37.518938)" stroke-width=".3985" stroke-linecap="butt" stroke-miterlimit="10" stroke-linejoin="miter" fill="none" stroke="#929292" d="M39.68535 1.39478V-1.39478"/>
<use data-text="2" xlink:href="#font_3_5" transform="matrix(7.3327205,0,0,-7.33316,94.39482,47.22281)"/>
<path transform="matrix(1.00003,0,0,-1.00009,56.652688,37.518938)" stroke-width=".3985" stroke-linecap="butt" stroke-miterlimit="10" stroke-linejoin="miter" fill="none" stroke="#929292" d="M19.84267 1.39478V-1.39478"/>
<path transform="matrix(1.00003,0,0,-1.00009,56.652688,37.518938)" stroke-width=".3985" stroke-linecap="butt" stroke-miterlimit="10" stroke-linejoin="miter" fill="none" stroke="#929292" d="M1.39478-19.84267H-1.39478"/>
<use data-text="&#x2212;" xlink:href="#font_2_2" transform="matrix(7.3327205,0,0,-7.33316,42.693269,59.817945)"/>
<use data-text="1" xlink:href="#font_3_4" transform="matrix(7.3327205,0,0,-7.33316,47.97043,59.817945)"/>
<path transform="matrix(1.00003,0,0,-1.00009,56.652688,37.518938)" stroke-width=".3985" stroke-linecap="butt" stroke-miterlimit="10" stroke-linejoin="miter" fill="none" stroke="#929292" d="M1.39478 19.84267H-1.39478"/>
<use data-text="1" xlink:href="#font_3_4" transform="matrix(7.3327205,0,0,-7.33316,47.96943,20.129372)"/>
<path transform="matrix(1.00003,0,0,-1.00009,56.652688,37.518938)" stroke-width=".3985" stroke-linecap="butt" stroke-miterlimit="10" stroke-linejoin="miter" fill="none" stroke="#929292" d="M1.39478 19.84267H-1.39478"/>
<path transform="matrix(1.00003,0,0,-1.00009,56.652688,37.518938)" stroke-width="1.19553" stroke-linecap="butt" stroke-miterlimit="10" stroke-linejoin="miter" fill="none" stroke="#0000ff" d="M0 19.84267H.09444 .1889 .28337 .37785 .47232 .56677 .66124 .7557 .85017 .94464 1.03911 1.13358 1.22804 1.32251 1.41696 1.51143 1.6059 1.70036 1.79483 1.8893 1.98376 2.07823 2.17268 2.26717 2.36163 2.45609 2.55055 2.64503 2.7395 2.83395 2.9284 3.02289 3.11736 3.21182 3.30629 3.40076 3.49521 3.58968 3.68414 3.77861 3.87308 3.96754 4.06203 4.1565 4.25093 4.3454 4.43988 4.53435 4.62881 4.72328 4.81775 4.9122 5.00667 5.10114 5.1956 5.29007 5.38454 5.479 5.57347 5.66792 5.76239 5.85686 5.95134 6.0458 6.14026 6.23473 6.3292 6.42366 6.51813 6.6126 6.70706 6.80153 6.896 6.99045 7.08492 7.17938 7.27385 7.36832 7.46278 7.55725 7.65172 7.74617 7.84065 7.93512 8.02957 8.12405 8.21852 8.31299 8.40744 8.5019 8.59637 8.69084 8.78531 8.87978 8.97424 9.0687 9.16316 9.25764 9.3521 9.44656 9.54103 9.63551 9.72998 9.82442 9.91888 10.01337 10.10783 10.2023 10.29677 10.39124 10.48569 10.58015 10.67462 10.76909 10.86356 10.95802 11.05249 11.14696 11.24141 11.33588 11.43034 11.52483 11.6193 11.71375 11.80821 11.90268 11.99715 12.09161 12.18608 12.28055 12.37502 12.46948 12.56393 12.6584 12.75287 12.84734 12.94182 13.03627 13.13074 13.22519 13.31967 13.41414 13.5086 13.60306 13.69754 13.792 13.88647 13.98093 14.0754 14.16986 14.26433 14.3588 14.45326 14.54773 14.64218 14.73665 14.83113 14.92558 15.02005 15.11452 15.209 15.30345 15.3979 15.49237 15.58685 15.68132 15.77579 15.87025 15.96472 16.05917 16.15364 16.24811 16.34258 16.43704 16.53151 16.62599 16.72044 16.8149 16.90936 17.00385 17.09831 17.19278 17.28723 17.38171 17.47617 17.57063 17.6651 17.75957 17.85403 17.9485 18.04297 18.13742 18.23189 18.32635 18.42082 18.5153 18.60976 18.70422 18.79868"/>
<path transform="matrix(1.00003,0,0,-1.00009,56.652688,37.518938)" stroke-width=".79701" stroke-linecap="butt" stroke-dasharray="2.98883,2.98883" stroke-miterlimit="10" stroke-linejoin="miter" fill="none" stroke="#8080ff" d="M0 19.84267 .09444 19.84538H.1889L.28337 19.84326 .37785 19.83934 .47232 19.8354 .56677 19.82935 .66124 19.82541 .7557 19.81754 .85017 19.80966 .94464 19.80179 1.03911 19.79178 1.13358 19.7818 1.22804 19.77 1.32251 19.75789 1.41696 19.74606 1.51143 19.73215 1.6059 19.71642 1.70036 19.70247 1.79483 19.68462 1.8893 19.66675 1.98376 19.64888 2.07823 19.63103 2.17268 19.61104 2.26717 19.58925 2.36163 19.56743 2.45609 19.54564 2.55055 19.52171 2.64503 19.4981 2.7395 19.47237 2.83395 19.44633 2.9284 19.41878 3.02289 19.39091 3.11736 19.36305 3.21182 19.3334 3.30629 19.30342 3.40076 19.27164 3.49521 19.24014 3.58968 19.20834 3.68414 19.17442 3.77861 19.14084 3.87308 19.1051 3.96754 19.06937 4.06203 19.03152 4.1565 18.99399 4.25093 18.95613 4.3454 18.91647 4.43988 18.8768 4.53435 18.83714 4.62881 18.79535 4.72328 18.75388 4.81775 18.70998 4.9122 18.66638 5.00667 18.62279 5.10114 18.57706 5.1956 18.53134 5.29007 18.48593 5.38454 18.43808 5.479 18.39055 5.57347 18.3409 5.66792 18.29124 5.76239 18.24158 5.85686 18.19011 5.95134 18.13834 6.0458 18.08687 6.14026 18.03539 6.23473 17.98181 6.3292 17.92609 6.42366 17.8725 6.51813 17.81679 6.6126 17.76138 6.70706 17.70386 6.80153 17.64633 6.896 17.5888 6.99045 17.53127 7.08492 17.47162 7.17938 17.41199 7.27385 17.35051 7.36832 17.29088 7.46278 17.22942 7.55725 17.16582 7.65172 17.10435 7.74617 17.04079 7.84065 16.97751 7.93512 16.91391 8.02957 16.8482 8.12405 16.7828 8.21852 16.7174 8.31299 16.65201 8.40744 16.5845 8.5019 16.5188 8.59637 16.44946 8.69084 16.38194 8.78531 16.31442 8.87978 16.24509 8.97424 16.17545 9.0687 16.10611 9.16316 16.03465 9.25764 15.96532 9.3521 15.89388 9.44656 15.8221 9.54103 15.75066 9.63551 15.67738 9.72998 15.60591 9.82442 15.53235 9.91888 15.45908 10.01337 15.3855 10.10783 15.31012 10.2023 15.23685 10.29677 15.16145 10.39124 15.08606 10.48569 15.01036 10.58015 14.93498 10.67462 14.85957 10.76909 14.78238 10.86356 14.7067 10.95802 14.62949 11.05249 14.55197 11.14696 14.47475 11.24141 14.39725 11.33588 14.31973 11.43034 14.24252 11.52483 14.1629 11.6193 14.0857 11.71375 14.00636 11.80821 13.92886 11.90268 13.84953 11.99715 13.7699 12.09161 13.69057 12.18608 13.61125 12.28055 13.5319 12.37502 13.45045 12.46948 13.37115 12.56393 13.29181 12.6584 13.21219 12.75287 13.13106 12.84734 13.04959 12.94182 12.97026 13.03627 12.88882 13.13074 12.8095 13.22519 12.72804 13.31967 12.64659 13.41414 12.56728 13.5086 12.48584 13.60306 12.40468 13.69754 12.32323 13.792 12.24179 13.88647 12.16246 13.98093 12.08101 14.0754 11.99957 14.16986 11.91814 14.26433 11.83698 14.3588 11.75552 14.45326 11.67621 14.54773 11.59476 14.64218 11.51332 14.73665 11.43187 14.83113 11.35254 14.92558 11.27109 15.02005 11.18994 15.11452 11.1085 15.209 11.02917 15.30345 10.94772 15.3979 10.86841 15.49237 10.78696 15.58685 10.70763 15.68132 10.62831 15.77579 10.54868 15.87025 10.46753 15.96472 10.3879 16.05917 10.30858 16.15364 10.22923 16.24811 10.14992 16.34258 10.07059 16.43704 9.99307 16.53151 9.91376 16.62599 9.83412 16.72044 9.75691 16.8149 9.67758 16.90936 9.60007 17.00385 9.52257 17.09831 9.44534 17.19278 9.36784 17.28723 9.29033 17.38171 9.21312 17.47617 9.13774 17.57063 9.06023 17.6651 8.98483 17.75957 8.90733 17.85403 8.83192 17.9485 8.75655 18.04297 8.68115 18.13742 8.60576 18.23189 8.5322 18.32635 8.45679 18.42082 8.38353 18.5153 8.30783 18.60976 8.23456 18.70422 8.161 18.79868 8.0877"/>
<path transform="matrix(1.00003,0,0,-1.00009,56.652688,37.518938)" stroke-width="1.19553" stroke-linecap="butt" stroke-miterlimit="10" stroke-linejoin="miter" fill="none" stroke="#009900" d="M19.84267 7.29959 20.02191 7.1688 20.20116 7.0398 20.38039 6.91083 20.55963 6.78366 20.73888 6.6568 20.91812 6.53175 21.09737 6.40852 21.27661 6.28558 21.45586 6.16449 21.6351 6.04337 21.81433 5.9262 21.99358 5.80904 22.17282 5.69397 22.35207 5.57892 22.5313 5.46599 22.71054 5.35455 22.8898 5.24556 23.06905 5.13626 23.24828 5.02908 23.42752 4.92401 23.60677 4.81865 23.78601 4.71571 23.96524 4.61426 24.14449 4.51527 24.32373 4.41595 24.50298 4.31877 24.68222 4.22339 24.86147 4.128 25.04071 4.03688 25.21996 3.94543 25.39919 3.85431 25.57843 3.7668 25.75768 3.67961 25.93692 3.59422 26.11615 3.50883 26.2954 3.4274 26.47466 3.34595 26.6539 3.2648 26.83313 3.1873 27.01237 3.10979 27.19162 3.0344 27.37086 2.959 27.55011 2.88574 27.72935 2.81427 27.90858 2.74464 28.08783 2.6753 28.26709 2.60779 28.44633 2.54025 28.62556 2.47485 28.80481 2.41129 28.98405 2.34982 29.1633 2.28835 29.34253 2.2266 29.52177 2.16905 29.70102 2.11153 29.88026 2.054 30.05951 1.9986 30.23875 1.945 30.418 1.89142 30.59724 1.83965 30.77647 1.78998 30.95572 1.74033 31.13496 1.69067 31.31421 1.64314 31.49344 1.59741 31.67268 1.552 31.85194 1.5081 32.03119 1.46451 32.21042 1.42271 32.38966 1.38124 32.56891 1.34158 32.74815 1.30191 32.92738 1.26224 33.10663 1.22653 33.28587 1.18867 33.46512 1.15295 33.64436 1.11932 33.82361 1.08543 34.00285 1.05182 34.1821 1.02003 34.36133 .98824 34.54057 .95857 34.71983 .92859 34.89906 .89891 35.07831 .87106 35.25757 .8432 35.43681 .81566 35.61604 .78961 35.79529 .766 35.97453 .74025 36.15378 .71635 36.33301 .69243 36.51225 .67062 36.6915 .64883 36.87074 .62703 37.04999 .60704 37.22923 .58525 37.40848 .56738 37.58772 .5477 37.76695 .52985 37.9462 .51196 38.12544 .4941 38.30469 .47626 38.48392 .4602 38.66316 .44446 38.84242 .4284 39.02167 .41447 39.2009 .39874 39.38014 .3848 39.55939 .37088 39.73863 .35907 39.91786 .34515 40.0971 .33334 40.27635 .32123 40.4556 .30942 40.63484 .29762 40.81409 .28761 40.99333 .27763 41.17258 .26581 41.3518 .25583 41.53105 .24796 41.7103 .23796 41.88954 .23009 42.06877 .22011 42.24803 .21223 42.42729 .20435 42.60652 .19617 42.78577 .18951 42.96501 .18225 43.14426 .1753 43.32349 .16862 43.50273 .16197 43.68198 .1556 43.86122 .14955 44.04045 .1438 44.21971 .13805 44.39896 .1326 44.5782 .12744 44.75743 .1223 44.93668 .11746 45.11592 .11261 45.29517 .10806 45.4744 .10384 45.65364 .09958 45.83289 .09535 46.01215 .09142 46.19138 .08778 46.37062 .08415 46.54987 .08052 46.7291 .0772 46.90834 .07414 47.08759 .07082 47.26683 .06781 47.44606 .06508 47.6253 .06235 47.80457 .05963 47.98381 .05719 48.16304 .05478 48.34229 .05237 48.52153 .04993 48.70078 .04782 48.88 .0457 49.05925 .04388 49.2385 .04176 49.41776 .03995 49.597 .03813 49.77625 .03662 49.95549 .0348 50.13472 .03328 50.31396 .03177 50.49321 .03026 50.67245 .02904 50.85168 .02783 51.03093 .02632 51.21019 .0251 51.38943 .02422 51.56866 .023 51.74791 .02177 51.92715 .02087 52.1064 .01996 52.28563 .01906 52.46487 .01814 52.64412 .01723 52.82336 .01633 53.00261 .01573 53.18185 .01482 53.3611 .0142 53.54034 .0136 53.71957 .0127 53.89882 .0121 54.07806 .01149 54.25731 .01118 54.43654 .01057 54.61578 .00996 54.79504 .00937 54.97429 .00906 55.15352 .00845 55.33276 .00816 55.51201 .00786"/>
<path transform="matrix(1.00003,0,0,-1.00009,56.652688,37.518938)" stroke-width=".79701" stroke-linecap="butt" stroke-dasharray="2.98883,2.98883" stroke-miterlimit="10" stroke-linejoin="miter" fill="none" stroke="#80cc80" d="M19.84267 0H20.02191 20.20116 20.38039 20.55963 20.73888 20.91812 21.09737 21.27661 21.45586 21.6351 21.81433 21.99358 22.17282 22.35207 22.5313 22.71054 22.8898 23.06905 23.24828 23.42752 23.60677 23.78601 23.96524 24.14449 24.32373 24.50298 24.68222 24.86147 25.04071 25.21996 25.39919 25.57843 25.75768 25.93692 26.11615 26.2954 26.47466 26.6539 26.83313 27.01237 27.19162 27.37086 27.55011 27.72935 27.90858 28.08783 28.26709 28.44633 28.62556 28.80481 28.98405 29.1633 29.34253 29.52177 29.70102 29.88026 30.05951 30.23875 30.418 30.59724 30.77647 30.95572 31.13496 31.31421 31.49344 31.67268 31.85194 32.03119 32.21042 32.38966 32.56891 32.74815 32.92738 33.10663 33.28587 33.46512 33.64436 33.82361 34.00285 34.1821 34.36133 34.54057 34.71983 34.89906 35.07831 35.25757 35.43681 35.61604 35.79529 35.97453 36.15378 36.33301 36.51225 36.6915 36.87074 37.04999 37.22923 37.40848 37.58772 37.76695 37.9462 38.12544 38.30469 38.48392 38.66316 38.84242 39.02167 39.2009 39.38014 39.55939 39.73863 39.91786 40.0971 40.27635 40.4556 40.63484 40.81409 40.99333 41.17258 41.3518 41.53105 41.7103 41.88954 42.06877 42.24803 42.42729 42.60652 42.78577 42.96501 43.14426 43.32349 43.50273 43.68198 43.86122 44.04045 44.21971 44.39896 44.5782 44.75743 44.93668 45.11592 45.29517 45.4744 45.65364 45.83289 46.01215 46.19138 46.37062 46.54987 46.7291 46.90834 47.08759 47.26683 47.44606 47.6253 47.80457 47.98381 48.16304 48.34229 48.52153 48.70078 48.88 49.05925 49.2385 49.41776 49.597 49.77625 49.95549 50.13472 50.31396 50.49321 50.67245 50.85168 51.03093 51.21019 51.38943 51.56866 51.74791 51.92715 52.1064 52.28563 52.46487 52.64412 52.82336 53.00261 53.18185 53.3611 53.54034 53.71957 53.89882 54.07806 54.25731 54.43654 54.61578 54.79504 54.97429 55.15352 55.33276 55.51201"/>
<path transform="matrix(1.00003,0,0,-1.00009,56.652688,37.518938)" stroke-width=".79701" stroke-linecap="butt" stroke-miterlimit="10" stroke-linejoin="miter" fill="none" stroke="#0000ff" d="M21.93483 19.84267C21.93483 20.99815 20.99815 21.93483 19.84267 21.93483 18.68718 21.93483 17.75049 20.99815 17.75049 19.84267 17.75049 18.68718 18.68718 17.75049 19.84267 17.75049 20.99815 17.75049 21.93483 18.68718 21.93483 19.84267ZM19.84267 19.84267"/>
<path transform="matrix(1.00003,0,0,-1.00009,56.652688,37.518938)" d="M21.93483 7.29959C21.93483 8.45508 20.99815 9.39175 19.84267 9.39175 18.68718 9.39175 17.75049 8.45508 17.75049 7.29959 17.75049 6.1441 18.68718 5.20741 19.84267 5.20741 20.99815 5.20741 21.93483 6.1441 21.93483 7.29959ZM19.84267 7.29959" fill="#009900"/>
<use data-text="1" xlink:href="#font_3_4" transform="matrix(7.3327205,0,0,-7.33316,20.5346,13.34676)" fill="#0000ff"/>
<use data-text="&#x2212;" xlink:href="#font_2_2" transform="matrix(7.3327205,0,0,-7.33316,25.398743,13.34676)" fill="#0000ff"/>
<use data-text="u" xlink:href="#font_1_2" transform="matrix(7.3327205,0,0,-7.33316,31.648926,13.34676)" fill="#0000ff"/>
<use data-text="(" xlink:href="#font_3_1" transform="matrix(7.3327205,0,0,-7.33316,36.583086,13.34676)" fill="#0000ff"/>
<use data-text="t" xlink:href="#font_1_1" transform="matrix(7.3327205,0,0,-7.33316,39.308168,13.34676)" fill="#0000ff"/>
<use data-text=")" xlink:href="#font_3_2" transform="matrix(7.3327205,0,0,-7.33316,42.59227,13.34676)" fill="#0000ff"/>
<use data-text="=" xlink:href="#font_2_4" transform="matrix(7.3327205,0,0,-7.33316,46.522386,13.34676)" fill="#0000ff"/>
<use data-text="0" xlink:href="#font_3_3" transform="matrix(7.3327205,0,0,-7.33316,53.162584,13.34676)" fill="#0000ff"/>
<use data-text="1" xlink:href="#font_3_4" transform="matrix(7.3327205,0,0,-7.33316,76.09627,13.34676)" fill="#009900"/>
<use data-text="&#x2212;" xlink:href="#font_2_2" transform="matrix(7.3327205,0,0,-7.33316,80.96042,13.34676)" fill="#009900"/>
<use data-text="u" xlink:href="#font_1_2" transform="matrix(7.3327205,0,0,-7.33316,87.2106,13.34676)" fill="#009900"/>
<use data-text="(" xlink:href="#font_3_1" transform="matrix(7.3327205,0,0,-7.33316,92.14476,13.34676)" fill="#009900"/>
<use data-text="t" xlink:href="#font_1_1" transform="matrix(7.3327205,0,0,-7.33316,94.86984,13.34676)" fill="#009900"/>
<use data-text=")" xlink:href="#font_3_2" transform="matrix(7.3327205,0,0,-7.33316,98.153949,13.34676)" fill="#009900"/>
<use data-text="=" xlink:href="#font_2_4" transform="matrix(7.3327205,0,0,-7.33316,102.08406,13.34676)" fill="#009900"/>
<use data-text="1" xlink:href="#font_3_4" transform="matrix(7.3327205,0,0,-7.33316,108.72426,13.34676)" fill="#009900"/>
<use data-text="&#x201c;" xlink:href="#font_3_9" transform="matrix(7.3327205,0,0,-7.33316,31.042916,69.79984)" fill="#0000ff"/>
<use data-text="o" xlink:href="#font_3_8" transform="matrix(7.3327205,0,0,-7.33316,33.814683,69.79984)" fill="#0000ff"/>
<use data-text="f" xlink:href="#font_3_6" transform="matrix(7.3327205,0,0,-7.33316,38.045656,69.79984)" fill="#0000ff"/>
<use data-text="f" xlink:href="#font_3_6" transform="matrix(7.3327205,0,0,-7.33316,40.384798,69.79984)" fill="#0000ff"/>
<use data-text="&#x201d;" xlink:href="#font_3_10" transform="matrix(7.3327205,0,0,-7.33316,43.185884,69.79984)" fill="#0000ff"/>
<use data-text="&#x201c;" xlink:href="#font_3_9" transform="matrix(7.3327205,0,0,-7.33316,87.205608,69.79984)" fill="#009900"/>
<use data-text="o" xlink:href="#font_3_8" transform="matrix(7.3327205,0,0,-7.33316,89.97737,69.79984)" fill="#009900"/>
<use data-text="n" xlink:href="#font_3_7" transform="matrix(7.3327205,0,0,-7.33316,94.20834,69.79984)" fill="#009900"/>
<use data-text="&#x201d;" xlink:href="#font_3_10" transform="matrix(7.3327205,0,0,-7.33316,98.15335,69.79984)" fill="#009900"/>
<use data-text="&#xfffd;" xlink:href="#font_2_1" transform="matrix(7.3327205,0,0,-7.33316,18.17453,27.081997)"/>
<path transform="matrix(1.00003,0,0,-1.00009,-104.480159,11.5706009)" stroke-width=".4224" stroke-linecap="butt" stroke-miterlimit="10" stroke-linejoin="miter" fill="none" stroke="#000000" d="M128.756-15.299H132.2"/>
<use data-text="t" xlink:href="#font_1_1" transform="matrix(7.3327205,0,0,-7.33316,24.43972,33.094537)"/>
<use data-text="&#x00b7;" xlink:href="#font_2_3" transform="matrix(7.3327205,0,0,-7.33316,28.697838,33.094537)"/>
<use data-text="0" xlink:href="#font_3_3" transform="matrix(7.3327205,0,0,-7.33316,31.711937,33.094537)" fill="#0000ff"/>
<use data-text="&#xfffd;" xlink:href="#font_2_1" transform="matrix(7.3327205,0,0,-7.33316,73.7352,27.081997)"/>
<path transform="matrix(1.00003,0,0,-1.00009,-48.919488,11.5706009)" stroke-width=".4224" stroke-linecap="butt" stroke-miterlimit="10" stroke-linejoin="miter" fill="none" stroke="#000000" d="M128.756-15.299H132.2"/>
<use data-text="t" xlink:href="#font_1_1" transform="matrix(7.3327205,0,0,-7.33316,80.00039,33.094537)"/>
<use data-text="&#x00b7;" xlink:href="#font_2_3" transform="matrix(7.3327205,0,0,-7.33316,84.25851,33.094537)"/>
<use data-text="1" xlink:href="#font_3_4" transform="matrix(7.3327205,0,0,-7.33316,87.272609,33.094537)" fill="#009900"/>
</svg>
