<svg xmlns="http://www.w3.org/2000/svg" xmlns:xlink="http://www.w3.org/1999/xlink" version="1.1" width="114" height="75" viewBox="0 0 114 75">
<defs>
<path id="font_1_1" d="M.42799378 .45222474 .43899537 .49023438H.31199647L.34599305 .6092224 .33399964 .6162262 .23699951 .53923037 .22399903 .49023438H.14299011L.13198853 .45222474H.21499634L.125 .08627319C.10998535 .029266358 .12199402-.01171875 .17199707-.01171875 .2519989-.01171875 .31599427 .054275514 .35598756 .1292572L.33399964 .1462555C.31098939 .10726929 .2599945 .040267946 .22898865 .040267946 .20799256 .040267946 .20799256 .0632782 .21398926 .088272098L.30299378 .45222474H.42799378Z"/>
<path id="font_2_2" d="M.6349945 .2529297V.31092835H.084991458V.2529297H.6349945Z"/>
<path id="font_3_5" d="M.4850006 .13195801 .45700074 .13696289C.43598939 .08299255 .41600038 .07598877 .37599183 .07598877H.11999512C.13598633 .1279602 .19499207 .19892884 .28799439 .2658844 .38398744 .33584596 .45799256 .38082887 .45799256 .49276734 .45799256 .63168337 .3659973 .6796875 .26098634 .6796875 .12399292 .6796875 .052993776 .5967102 .052993776 .54473879 .052993776 .51075747 .09098816 .49476625 .10798645 .49476625 .12599182 .49476625 .1329956 .50476077 .13699341 .5217438 .15299988 .5897064 .19198609 .64468386 .2539978 .64468386 .33099366 .64468386 .35299684 .5797119 .35299684 .50675967 .35299684 .3998108 .29899598 .33984376 .21199036 .26289369 .08898926 .15594483 .04598999 .08798218 .026992798 .009994507L.036987306 0H.45098878L.4850006 .13195801Z"/>
<path id="font_3_4" d="M.43699647 0V.0289917L.35299684 .035995485C.33198548 .037994386 .31999208 .04598999 .31999208 .08496094V.67367556L.31498719 .6796875 .10899353 .6446991V.6197052L.20199585 .6087036C.21899414 .6067047 .22599793 .5987091 .22599793 .56973269V.08496094C.22599793 .065979007 .22299195 .053985597 .21699524 .04698181 .21199036 .039993287 .20399475 .036987306 .19299317 .035995485L.10899353 .0289917V0H.43699647Z"/>
<path id="font_1_2" d="M.5329895 .48995973C.5039978 .388031 .48799134 .33506776 .46199037 .2741089 .41799928 .173172 .33099366 .040267946 .24798584 .040267946 .21598816 .040267946 .20799256 .070251468 .22299195 .12820435L.31900025 .4970703 .31399537 .50205996 .13198853 .47375489 .12599182 .4497528 .18798828 .44476319C.21199036 .44276429 .21099854 .42778016 .20298767 .39682008L.13398743 .13316345C.11299133 .053253175 .12098694-.01171875 .20098877-.01171875 .29699708-.01171875 .4019928 .09420776 .46199037 .21005249H.46398927L.43099977 .096206668C.4119873 .029266358 .42399598-.01171875 .47698976-.01171875 .548996-.01171875 .60899356 .057250978 .6439972 .13116455L.6199951 .14613343C.59999087 .11218262 .55599978 .040267946 .5279999 .040267946 .5069885 .040267946 .5069885 .06324768 .5149994 .09420776L.621994 .5019531 .5329895 .48995973Z"/>
<path id="font_3_1" d="M.1749878 .2822113C.1749878 .56832888 .2619934 .65437319 .32499696 .66737368V.6923828C.1499939 .685379 .10499573 .46829225 .10499573 .2822113 .10499573 .09614563 .1499939-.12094116 .32499696-.12792969V-.10293579C.2669983-.090927127 .1749878-.0059051516 .1749878 .2822113Z"/>
<path id="font_3_2" d="M.1749878 .2822113C.1749878-.0059051516 .08299255-.090927127 .024993897-.10293579V-.12792969C.19999695-.12094116 .24499512 .09614563 .24499512 .2822113 .24499512 .46829225 .19999695 .685379 .024993897 .6923828V.66737368C.08799744 .65437319 .1749878 .56832888 .1749878 .2822113Z"/>
<path id="font_2_4" d="M.6349945 .14315796V.20117188H.084991458V.14315796H.6349945M.6349945 .36288453V.42089845H.084991458V.36288453H.6349945Z"/>
<path id="font_3_3" d="M.2649994 .64468386C.3600006 .64468386 .3869934 .49682618 .3869934 .33398438 .3869934 .17112732 .3600006 .023269654 .2649994 .023269654 .16999817 .023269654 .14299011 .17112732 .14299011 .33398438 .14299011 .49682618 .16999817 .64468386 .2649994 .64468386M.2649994 .6796875C.099990848 .6796875 .040985109 .53378298 .040985109 .33398438 .040985109 .13417053 .099990848-.01171875 .2649994-.01171875 .42999269-.01171875 .4889984 .13417053 .4889984 .33398438 .4889984 .53378298 .42999269 .6796875 .2649994 .6796875Z"/>
<path id="font_3_9" d="M.18998719 .7480469C.13999939 .7020416 .07199097 .6350403 .07199097 .56404116 .07199097 .5100403 .10398865 .47703553 .13699341 .4780426 .16699219 .4780426 .18499756 .4990387 .18499756 .5260315 .18499756 .56204226 .1519928 .58303835 .1519928 .6200409 .1519928 .6580353 .17599488 .6960449 .20698548 .7320404L.18998719 .7480469M.36999513 .7480469C.31999208 .7020416 .2519989 .6350403 .2519989 .56404116 .2519989 .5100403 .28399659 .47703553 .31698609 .4780426 .34700013 .4780426 .36499024 .4990387 .36499024 .5260315 .36499024 .56204226 .33198548 .58303835 .33198548 .6200409 .33198548 .6580353 .35598756 .6960449 .3869934 .7320404L.36999513 .7480469Z"/>
<path id="font_3_8" d="M.28799439 .5019531C.12799073 .5019531 .04899597 .40698243 .04899597 .24510193 .04899597 .083236698 .12799073-.01171875 .28799439-.01171875 .44999696-.01171875 .5279999 .083236698 .5279999 .24510193 .5279999 .40698243 .44999696 .5019531 .28799439 .5019531M.15299988 .24510193C.15299988 .38301087 .19699097 .46694947 .28799439 .46694947 .3809967 .46694947 .42399598 .38301087 .42399598 .24510193 .42399598 .10720825 .3809967 .023269654 .28799439 .023269654 .19699097 .023269654 .15299988 .10720825 .15299988 .24510193Z"/>
<path id="font_3_6" d="M.20098877 .45022584H.32299806V.49023438H.20098877L.19699097 .60220339C.19400025 .6971741 .22898865 .70718386 .24499512 .70718386 .2659912 .70718386 .28799439 .6971741 .31298829 .6391907 .31799317 .62919619 .32499696 .6221924 .33999635 .6221924 .3600006 .6221924 .3889923 .6391907 .3889923 .66918948 .3889923 .70217898 .34700013 .7421875 .2669983 .7421875 .21199036 .7421875 .16499329 .71717837 .13999939 .67918398 .116989139 .64419558 .10699463 .5912018 .10699463 .5252228V.49023438H.02999878V.45022584H.10699463V.087020877C.10699463 .035995485 .10398865 .033996583 .03199768 .0289917V0H.29599V.0289917C.20498657 .032989503 .20098877 .034988405 .20098877 .08602905V.45022584Z"/>
<path id="font_3_10" d="M.08898926 .47218324C.13899231 .5181732 .20698548 .58517459 .20698548 .6561737 .20698548 .71017459 .1749878 .7431793 .14199829 .7421875 .11199951 .7421875 .09399414 .72117617 .09399414 .69418337 .09399414 .6581726 .1269989 .6371765 .1269989 .60017397 .1269989 .56217959 .102996829 .5241852 .07199097 .48817445L.08898926 .47218324M.2689972 .47218324C.31900025 .5181732 .3869934 .58517459 .3869934 .6561737 .3869934 .71017459 .35499574 .7431793 .32199098 .7421875 .2919922 .7421875 .27398683 .72117617 .27398683 .69418337 .27398683 .6581726 .30699159 .6371765 .30699159 .60017397 .30699159 .56217959 .2829895 .5241852 .2519989 .48817445L.2689972 .47218324Z"/>
<path id="font_3_7" d="M.5289917 .34295655C.5289917 .4439392 .47399903 .5019531 .38198854 .5019531 .30799867 .5019531 .2619934 .46594239 .19999695 .4259491L.18598938 .5019531 .036987306 .47694398V.45195008L.07499695 .4469452C.100997928 .4429474 .10699463 .4379425 .10699463 .40194703V.08699036C.10699463 .035995485 .10398865 .033996583 .03199768 .0289917V0H.27598573V.0289917C.20498657 .033996583 .20098877 .035995485 .20098877 .08699036V.32095338C.20098877 .34596253 .20298767 .35995484 .21099854 .37594605 .23199463 .4149475 .2769928 .44795228 .32998658 .44795228 .397995 .44795228 .43499757 .40994264 .43499757 .32295228V.08699036C.43499757 .035995485 .43199159 .033996583 .3600006 .0289917V0H.60398867V.0289917C.5329895 .033996583 .5289917 .035995485 .5289917 .08699036V.34295655Z"/>
<path id="font_2_1" d="M.397995-.82902529 .22499085-.43717958C.22099304-.42918397 .21899414-.42318727 .21199036-.42318727 .20899964-.42318727 .20799256-.42419435 .19799805-.43118287L.09700012-.50315859 .11099243-.52215579C.1269989-.51815798 .14299011-.51416018 .15299988-.51416018 .15499878-.51416018 .1559906-.51416018 .1559906-.515152L.35299684-.95996096H.38198854C.38198854-.95996096 .8470001 .0016326904 .84999087 .0026245118 .8549957 .013626099 .8529968 .014633179 .8529968 .019622803 .8529968 .03062439 .84999087 .057617189 .83799746 .057617189H.82899478L.397995-.82902529Z"/>
<path id="font_2_3" d="M.07998657 .28173829C.07998657 .24674988 .10798645 .21875 .14299011 .21875 .17799378 .21875 .20599365 .24674988 .20599365 .28173829 .20599365 .31674195 .17799378 .34474183 .14299011 .34474183 .10798645 .34474183 .07998657 .31674195 .07998657 .28173829Z"/>
</defs>
<path transform="matrix(1.00005,0,0,-1.00009,57.053155,37.518938)" d="M-55.55954-35.71686V35.71686H19.84267V-35.71686ZM19.84267 35.71686" fill="#d9d9ff"/>
<path transform="matrix(1.00005,0,0,-1.00009,57.053155,37.518938)" d="M19.84267-35.71686V35.71686H55.55954V-35.71686ZM55.55954 35.71686" fill="#d9f0d9"/>
<path transform="matrix(1.00005,0,0,-1.00009,57.053155,37.518938)" stroke-width=".3985" stroke-linecap="butt" stroke-miterlimit="10" stroke-linejoin="miter" fill="none" stroke="#000000" d="M-55.55954 0H55.10127"/>
<path transform="matrix(1.00005,0,0,-1.00009,112.15717,37.518938)" stroke-width=".31879" stroke-linecap="round" stroke-linejoin="round" fill="none" stroke="#000000" d="M-1.19551 1.59401C-1.09587 .99626 0 .09961 .29886 0 0-.09961-1.09587-.99626-1.19551-1.59401"/>
<path transform="matrix(1.00005,0,0,-1.00009,57.053155,37.518938)" stroke-width=".3985" stroke-linecap="butt" stroke-miterlimit="10" stroke-linejoin="miter" fill="none" stroke="#000000" d="M0-35.71686V35.25858"/>
<path transform="matrix(0,-1.00009,-1.00005,-0,57.053155,2.257183)" stroke-width=".31879" stroke-linecap="round" stroke-linejoin="round" fill="none" stroke="#000000" d="M-1.19551 1.59401C-1.09587 .99626 0 .09961 .29886 0 0-.09961-1.09587-.99626-1.19551-1.59401"/>
<use data-text="t" xlink:href="#font_1_1" transform="matrix(7.332866,0,0,-7.33316,109.06875,45.43765)"/>
<path transform="matrix(1.00005,0,0,-1.00009,57.053155,37.518938)" stroke-width=".3985" stroke-linecap="butt" stroke-miterlimit="10" stroke-linejoin="miter" fill="none" stroke="#929292" d="M-39.68535 1.39478V-1.39478"/>
<use data-text="&#x2212;" xlink:href="#font_2_2" transform="matrix(7.332866,0,0,-7.33316,12.782944,47.22281)"/>
<use data-text="2" xlink:href="#font_3_5" transform="matrix(7.332866,0,0,-7.33316,18.059205,47.22281)"/>
<path transform="matrix(1.00005,0,0,-1.00009,57.053155,37.518938)" stroke-width=".3985" stroke-linecap="butt" stroke-miterlimit="10" stroke-linejoin="miter" fill="none" stroke="#929292" d="M-19.84267 1.39478V-1.39478"/>
<use data-text="&#x2212;" xlink:href="#font_2_2" transform="matrix(7.332866,0,0,-7.33316,32.62593,47.22281)"/>
<use data-text="1" xlink:href="#font_3_4" transform="matrix(7.332866,0,0,-7.33316,37.90219,47.22281)"/>
<path transform="matrix(1.00005,0,0,-1.00009,57.053155,37.518938)" stroke-width=".3985" stroke-linecap="butt" stroke-miterlimit="10" stroke-linejoin="miter" fill="none" stroke="#929292" d="M19.84267 1.39478V-1.39478"/>
<use data-text="1" xlink:href="#font_3_4" transform="matrix(7.332866,0,0,-7.33316,74.95205,47.22281)"/>
<path transform="matrix(1.00005,0,0,-1.00009,57.053155,37.518938)" stroke-width=".3985" stroke-linecap="butt" stroke-miterlimit="10" stroke-linejoin="miter" fill="none" stroke="#929292" d="M39.68535 1.39478V-1.39478"/>
<use data-text="2" xlink:href="#font_3_5" transform="matrix(7.332866,0,0,-7.33316,94.796039,47.22281)"/>
<path transform="matrix(1.00005,0,0,-1.00009,57.053155,37.518938)" stroke-width=".3985" stroke-linecap="butt" stroke-miterlimit="10" stroke-linejoin="miter" fill="none" stroke="#929292" d="M19.84267 1.39478V-1.39478"/>
<path transform="matrix(1.00005,0,0,-1.00009,57.053155,37.518938)" stroke-width=".3985" stroke-linecap="butt" stroke-miterlimit="10" stroke-linejoin="miter" fill="none" stroke="#929292" d="M1.39478-19.84267H-1.39478"/>
<use data-text="&#x2212;" xlink:href="#font_2_2" transform="matrix(7.332866,0,0,-7.33316,43.09346,59.817945)"/>
<use data-text="1" xlink:href="#font_3_4" transform="matrix(7.332866,0,0,-7.33316,48.36972,59.817945)"/>
<path transform="matrix(1.00005,0,0,-1.00009,57.053155,37.518938)" stroke-width=".3985" stroke-linecap="butt" stroke-miterlimit="10" stroke-linejoin="miter" fill="none" stroke="#929292" d="M1.39478 19.84267H-1.39478"/>
<use data-text="1" xlink:href="#font_3_4" transform="matrix(7.332866,0,0,-7.33316,48.36972,20.129372)"/>
<path transform="matrix(1.00005,0,0,-1.00009,57.053155,37.518938)" stroke-width=".3985" stroke-linecap="butt" stroke-miterlimit="10" stroke-linejoin="miter" fill="none" stroke="#929292" d="M1.39478 19.84267H-1.39478"/>
<path transform="matrix(1.00005,0,0,-1.00009,57.053155,37.518938)" stroke-width="1.19553" stroke-linecap="butt" stroke-miterlimit="10" stroke-linejoin="miter" fill="none" stroke="#0000ff" d="M-55.55954 19.84267H-55.18593-54.81229-54.43867-54.06505-53.69142-53.3178-52.94418-52.57054-52.19693-51.8233-51.44968-51.07603-50.70242-50.3288-49.95517-49.58154-49.20793-48.83429-48.46068-48.08705-47.71342-47.3398-46.96619-46.59254-46.21893-45.8453-45.47168-45.09804-44.72444-44.3508-43.97717-43.60355-43.22993-42.8563-42.48268-42.10905-41.73543-41.36182-40.98819-40.61456-40.24094-39.86732-39.49368-39.12006-38.74644-38.37282-37.99918-37.62556-37.25194-36.87831-36.50468-36.13107-35.75743-35.38382-35.0102-34.63657-34.26294-33.88933-33.51569-33.14206-32.76845-32.39482-32.02118-31.64758-31.27394-30.90031-30.52669-30.15308-29.77943-29.40582-29.0322-28.65857-28.28494-27.91133-27.53769-27.16408-26.79045-26.41682-26.04318-25.66959-25.29594-24.92232-24.54869-24.17508-23.80144-23.42783-23.0542-22.68057-22.30695-21.93333-21.5597-21.18608-20.81245-20.43883-20.06519-19.69159-19.31795-18.94432-18.5707-18.19708-17.82344-17.44983-17.0762-16.70258-16.32895-15.95534-15.5817-15.20808-14.83446-14.46083-14.08719-13.7136-13.33995-12.96632-12.5927-12.21909-11.84544-11.47183-11.0982-10.72458-10.35095-9.97734-9.6037-9.23009-8.85646-8.48283-8.10919-7.7356-7.36195-6.98833-6.61472-6.24109-5.86745-5.49384-5.12021-4.74658-4.37297-3.99934-3.62572-3.25209-2.87848-2.50484-2.13121-1.7576-1.38397-1.01033-.63673-.26309 .11049 .48412 .85773 1.23137 1.60498 1.97862 2.35223 2.72588 3.09949 3.47311 3.84674 4.22037 4.59398 4.96762 5.34123 5.71486 6.08849 6.46211 6.83572 7.20937 7.58298 7.95662 8.33023 8.70387 9.07748 9.45111 9.82474 10.19836 10.57198 10.94562 11.31923 11.69286 12.06648 12.44011 12.81372 13.18736 13.56097 13.93462 14.30823 14.68185 15.05548 15.42911 15.80273 16.17636 16.54997 16.92361 17.29723 17.67085 18.04448 18.4181 18.79172"/>
<path transform="matrix(1.00005,0,0,-1.00009,57.053155,37.518938)" stroke-width=".79701" stroke-linecap="butt" stroke-dasharray="2.98883,2.98883" stroke-miterlimit="10" stroke-linejoin="miter" fill="none" stroke="#8080ff" d="M-55.55954 .39267-55.18593 .41447-54.81229 .43658-54.43867 .4602-54.06505 .48412-53.69142 .50986-53.3178 .53558-52.94418 .56345-52.57054 .59311-52.19693 .6231-51.8233 .65488-51.44968 .68666-51.07603 .72241-50.70242 .75813-50.3288 .79385-49.95517 .83351-49.58154 .87318-49.20793 .91466-48.83429 .95857-48.46068 1.004-48.08705 1.05182-47.71342 1.10149-47.3398 1.15083-46.96619 1.20444-46.59254 1.25801-46.21893 1.31584-45.8453 1.3752-45.47168 1.43483-45.09804 1.49841-44.72444 1.56383-44.3508 1.63133-43.97717 1.70067-43.60355 1.77425-43.22993 1.84752-42.8563 1.92502-42.48268 2.00436-42.10905 2.08792-41.73543 2.17119-41.36182 2.25838-40.98819 2.34982-40.61456 2.44307-40.24094 2.53845-39.86732 2.63564-39.49368 2.73677-39.12006 2.84183-38.74644 2.949-38.37282 3.0583-37.99918 3.17155-37.62556 3.2866-37.25194 3.4056-36.87831 3.52882-36.50468 3.65387-36.13107 3.78075-35.75743 3.91183-35.38382 4.04688-35.0102 4.18373-34.63657 4.32451-34.26294 4.46956-33.88933 4.6164-33.51569 4.76505-33.14206 4.91795-32.76845 5.0748-32.39482 5.23376-32.02118 5.39635-31.64758 5.56317-31.27394 5.73181-30.90031 5.90259-30.52669 6.07698-30.15308 6.2538-29.77943 6.43427-29.40582 6.61894-29.0322 6.80547-28.65857 6.9941-28.28494 7.18454-27.91133 7.37921-27.53769 7.57573-27.16408 7.77615-26.79045 7.9766-26.41682 8.18097-26.04318 8.38745-25.66959 8.59576-25.29594 8.80621-24.92232 9.01845-24.54869 9.2328-24.17508 9.44717-23.80144 9.66547-23.42783 9.88377-23.0542 10.10631-22.68057 10.32643-22.30695 10.55078-21.93333 10.77303-21.5597 10.99738-21.18608 11.22356-20.81245 11.44972-20.43883 11.67621-20.06519 11.90237-19.69159 12.12856-19.31795 12.35684-18.94432 12.58119-18.5707 12.80739-18.19708 13.03354-17.82344 13.25789-17.44983 13.48227-17.0762 13.7045-16.70258 13.92674-16.32895 14.14503-15.95534 14.36545-15.5817 14.58194-15.20808 14.796-14.83446 15.00856-14.46083 15.21898-14.08719 15.42517-13.7136 15.62985-13.33995 15.83209-12.96632 16.03072-12.5927 16.22722-12.21909 16.41978-11.84544 16.60811-11.47183 16.7928-11.0982 16.97356-10.72458 17.15007-10.35095 17.32266-9.97734 17.48949-9.6037 17.6542-9.23009 17.81104-8.85646 17.96574-8.48283 18.11261-8.10919 18.25763-7.7356 18.39449-7.36195 18.5274-6.98833 18.65245-6.61472 18.77357-6.24109 18.88861-5.86745 18.99792-5.49384 19.10117-5.12021 19.19623-4.74658 19.28767-4.37297 19.37093-3.99934 19.44844-3.62572 19.51778-3.25209 19.58138-2.87848 19.6389-2.50484 19.68855-2.13121 19.73215-1.7576 19.76788-1.38397 19.79785-1.01033 19.82147-.63673 19.83751-.26309 19.84538H.11049L.48412 19.84145 .85773 19.82753 1.23137 19.80753 1.60498 19.7818 1.97862 19.7482 2.35223 19.70854 2.72588 19.66068 3.09949 19.60529 3.47311 19.54564 3.84674 19.47812 4.22037 19.40274 4.59398 19.32127 4.96762 19.23409 5.34123 19.14084 5.71486 19.04152 6.08849 18.93433 6.46211 18.82109 6.83572 18.70422 7.20937 18.57918 7.58298 18.4502 7.95662 18.31303 8.33023 18.17226 8.70387 18.02722 9.07748 17.87463 9.45111 17.7196 9.82474 17.55702 10.19836 17.3923 10.57198 17.22154 10.94562 17.04501 11.31923 16.86609 11.69286 16.68352 12.06648 16.497 12.44011 16.30655 12.81372 16.11215 13.18736 15.91354 13.56097 15.7131 13.93462 15.51056 14.30823 15.30435 14.68185 15.09393 15.05548 14.8835 15.42911 14.66913 15.80273 14.45265 16.17636 14.23648 16.54997 14.01605 16.92361 13.79594 17.29723 13.5734 17.67085 13.34933 18.04448 13.12498 18.4181 12.90063 18.79172 12.67445"/>
<path transform="matrix(1.00005,0,0,-1.00009,57.053155,37.518938)" stroke-width="1.19553" stroke-linecap="butt" stroke-miterlimit="10" stroke-linejoin="miter" fill="none" stroke="#009900" d="M19.84267 12.03741 20.02191 11.92812 20.20116 11.82094 20.38039 11.71193 20.55963 11.60263 20.73888 11.49364 20.91812 11.38646 21.09737 11.27715 21.27661 11.16997 21.45586 11.06097 21.6351 10.95378 21.81433 10.84448 21.99358 10.7373 22.17282 10.63011 22.35207 10.52293 22.5313 10.41576 22.71054 10.30858 22.8898 10.2035 23.06905 10.09633 23.24828 9.99097 23.42752 9.8859 23.60677 9.78052 23.78601 9.67546 23.96524 9.5704 24.14449 9.46503 24.32373 9.36179 24.50298 9.25854 24.68222 9.1556 24.86147 9.05235 25.04071 8.95093 25.21996 8.84769 25.39919 8.74654 25.57843 8.64542 25.75768 8.54611 25.93692 8.44681 26.11615 8.34569 26.2954 8.24849 26.47466 8.14919 26.6539 8.05199 26.83313 7.95268 27.01237 7.8573 27.19162 7.7601 27.37086 7.66504 27.55011 7.56967 27.72935 7.47429 27.90858 7.38103 28.08783 7.28778 28.26709 7.19452 28.44633 7.10126 28.62556 7.00983 28.80481 6.9187 28.98405 6.82939 29.1633 6.73793 29.34253 6.65074 29.52177 6.56143 29.70102 6.47423 29.88026 6.38672 30.05951 6.29953 30.23875 6.21416 30.418 6.12875 30.59724 6.04337 30.77647 5.96011 30.95572 5.87654 31.13496 5.7954 31.31421 5.71185 31.49344 5.6325 31.67268 5.55106 31.85194 5.47173 32.03119 5.39241 32.21042 5.3149 32.38966 5.2377 32.56891 5.16019 32.74815 5.08267 32.92738 5.00728 33.10663 4.934 33.28587 4.85863 33.46512 4.78505 33.64436 4.7136 33.82361 4.64214 34.00285 4.57068 34.1821 4.49922 34.36133 4.4299 34.54057 4.36237 34.71983 4.29272 34.89906 4.22522 35.07831 4.15982 35.25757 4.09229 35.43681 4.02689 35.61604 3.96332 35.79529 3.89972 35.97453 3.83644 36.15378 3.77286 36.33301 3.71141 36.51225 3.64964 36.6915 3.59029 36.87074 3.53064 37.04999 3.471 37.22923 3.41347 37.40848 3.35596 37.58772 3.29842 37.76695 3.243 37.9462 3.1873 38.12544 3.13188 38.30469 3.07831 38.48392 3.0247 38.66316 2.97293 38.84242 2.92146 39.02167 2.86969 39.2009 2.8182 39.38014 2.76854 39.55939 2.7189 39.73863 2.67136 39.91786 2.6217 40.0971 2.57599 40.27635 2.52844 40.4556 2.48273 40.63484 2.43703 40.81409 2.3913 40.99333 2.3477 41.17258 2.3041 41.3518 2.2623 41.53105 2.21872 41.7103 2.17723 41.88954 2.13727 42.06877 2.09578 42.24803 2.05612 42.42729 2.01646 42.60652 1.97862 42.78577 1.94077 42.96501 1.90321 43.14426 1.86539 43.32349 1.82964 43.50273 1.79391 43.68198 1.7582 43.86122 1.72247 44.04045 1.68886 44.21971 1.65494 44.39896 1.62346 44.5782 1.58954 44.75743 1.55775 44.93668 1.52597 45.11592 1.49629 45.29517 1.46451 45.4744 1.43483 45.65364 1.40485 45.83289 1.3773 46.01215 1.34734 46.19138 1.31978 46.37062 1.29192 46.54987 1.26617 46.7291 1.23833 46.90834 1.2126 47.08759 1.18655 47.26683 1.16081 47.44606 1.1372 47.6253 1.11328 47.80457 1.08937 47.98381 1.06573 48.16304 1.04182 48.34229 1.02003 48.52153 .99612 48.70078 .9743 48.88 .95433 49.05925 .93253 49.2385 .91286 49.41776 .89104 49.597 .87106 49.77625 .85321 49.95549 .83351 50.13472 .81354 50.31396 .79567 50.49321 .77782 50.67245 .75993 50.85168 .74208 51.03093 .72635 51.21019 .70848 51.38943 .69243 51.56866 .67668 51.74791 .66063 51.92715 .6449 52.1064 .63097 52.28563 .61522 52.46487 .60129 52.64412 .58737 52.82336 .57344 53.00261 .5595 53.18185 .54558 53.3611 .53165 53.54034 .51984 53.71957 .50803 53.89882 .4941 54.07806 .482 54.25731 .47018 54.43654 .4602 54.61578 .4484 54.79504 .43658 54.97429 .42659 55.15352 .41658 55.33276 .40479 55.51201 .3948"/>
<path transform="matrix(1.00005,0,0,-1.00009,57.053155,37.518938)" stroke-width=".79701" stroke-linecap="butt" stroke-dasharray="2.98883,2.98883" stroke-miterlimit="10" stroke-linejoin="miter" fill="none" stroke="#80cc80" d="M19.84267 0H20.02191 20.20116 20.38039 20.55963 20.73888 20.91812 21.09737 21.27661 21.45586 21.6351 21.81433 21.99358 22.17282 22.35207 22.5313 22.71054 22.8898 23.06905 23.24828 23.42752 23.60677 23.78601 23.96524 24.14449 24.32373 24.50298 24.68222 24.86147 25.04071 25.21996 25.39919 25.57843 25.75768 25.93692 26.11615 26.2954 26.47466 26.6539 26.83313 27.01237 27.19162 27.37086 27.55011 27.72935 27.90858 28.08783 28.26709 28.44633 28.62556 28.80481 28.98405 29.1633 29.34253 29.52177 29.70102 29.88026 30.05951 30.23875 30.418 30.59724 30.77647 30.95572 31.13496 31.31421 31.49344 31.67268 31.85194 32.03119 32.21042 32.38966 32.56891 32.74815 32.92738 33.10663 33.28587 33.46512 33.64436 33.82361 34.00285 34.1821 34.36133 34.54057 34.71983 34.89906 35.07831 35.25757 35.43681 35.61604 35.79529 35.97453 36.15378 36.33301 36.51225 36.6915 36.87074 37.04999 37.22923 37.40848 37.58772 37.76695 37.9462 38.12544 38.30469 38.48392 38.66316 38.84242 39.02167 39.2009 39.38014 39.55939 39.73863 39.91786 40.0971 40.27635 40.4556 40.63484 40.81409 40.99333 41.17258 41.3518 41.53105 41.7103 41.88954 42.06877 42.24803 42.42729 42.60652 42.78577 42.96501 43.14426 43.32349 43.50273 43.68198 43.86122 44.04045 44.21971 44.39896 44.5782 44.75743 44.93668 45.11592 45.29517 45.4744 45.65364 45.83289 46.01215 46.19138 46.37062 46.54987 46.7291 46.90834 47.08759 47.26683 47.44606 47.6253 47.80457 47.98381 48.16304 48.34229 48.52153 48.70078 48.88 49.05925 49.2385 49.41776 49.597 49.77625 49.95549 50.13472 50.31396 50.49321 50.67245 50.85168 51.03093 51.21019 51.38943 51.56866 51.74791 51.92715 52.1064 52.28563 52.46487 52.64412 52.82336 53.00261 53.18185 53.3611 53.54034 53.71957 53.89882 54.07806 54.25731 54.43654 54.61578 54.79504 54.97429 55.15352 55.33276 55.51201"/>
<path transform="matrix(1.00005,0,0,-1.00009,57.053155,37.518938)" stroke-width=".79701" stroke-linecap="butt" stroke-miterlimit="10" stroke-linejoin="miter" fill="none" stroke="#0000ff" d="M21.93483 19.84267C21.93483 20.99815 20.99815 21.93483 19.84267 21.93483 18.68718 21.93483 17.75049 20.99815 17.75049 19.84267 17.75049 18.68718 18.68718 17.75049 19.84267 17.75049 20.99815 17.75049 21.93483 18.68718 21.93483 19.84267ZM19.84267 19.84267"/>
<path transform="matrix(1.00005,0,0,-1.00009,57.053155,37.518938)" d="M21.93483 12.03741C21.93483 13.1929 20.99815 14.1296 19.84267 14.1296 18.68718 14.1296 17.75049 13.1929 17.75049 12.03741 17.75049 10.88193 18.68718 9.94525 19.84267 9.94525 20.99815 9.94525 21.93483 10.88193 21.93483 12.03741ZM19.84267 12.03741" fill="#009900"/>
<use data-text="1" xlink:href="#font_3_4" transform="matrix(7.332866,0,0,-7.33316,20.93435,13.34676)" fill="#0000ff"/>
<use data-text="&#x2212;" xlink:href="#font_2_2" transform="matrix(7.332866,0,0,-7.33316,25.797585,13.34676)" fill="#0000ff"/>
<use data-text="u" xlink:href="#font_1_2" transform="matrix(7.332866,0,0,-7.33316,32.048898,13.34676)" fill="#0000ff"/>
<use data-text="(" xlink:href="#font_3_1" transform="matrix(7.332866,0,0,-7.33316,36.98214,13.34676)" fill="#0000ff"/>
<use data-text="t" xlink:href="#font_1_1" transform="matrix(7.332866,0,0,-7.33316,39.708276,13.34676)" fill="#0000ff"/>
<use data-text=")" xlink:href="#font_3_2" transform="matrix(7.332866,0,0,-7.33316,42.99244,13.34676)" fill="#0000ff"/>
<use data-text="=" xlink:href="#font_2_4" transform="matrix(7.332866,0,0,-7.33316,46.92263,13.34676)" fill="#0000ff"/>
<use data-text="0" xlink:href="#font_3_3" transform="matrix(7.332866,0,0,-7.33316,53.562967,13.34676)" fill="#0000ff"/>
<use data-text="1" xlink:href="#font_3_4" transform="matrix(7.332866,0,0,-7.33316,76.49712,13.34676)" fill="#009900"/>
<use data-text="&#x2212;" xlink:href="#font_2_2" transform="matrix(7.332866,0,0,-7.33316,81.36036,13.34676)" fill="#009900"/>
<use data-text="u" xlink:href="#font_1_2" transform="matrix(7.332866,0,0,-7.33316,87.61167,13.34676)" fill="#009900"/>
<use data-text="(" xlink:href="#font_3_1" transform="matrix(7.332866,0,0,-7.33316,92.544918,13.34676)" fill="#009900"/>
<use data-text="t" xlink:href="#font_1_1" transform="matrix(7.332866,0,0,-7.33316,95.27105,13.34676)" fill="#009900"/>
<use data-text=")" xlink:href="#font_3_2" transform="matrix(7.332866,0,0,-7.33316,98.555217,13.34676)" fill="#009900"/>
<use data-text="=" xlink:href="#font_2_4" transform="matrix(7.332866,0,0,-7.33316,102.485408,13.34676)" fill="#009900"/>
<use data-text="1" xlink:href="#font_3_4" transform="matrix(7.332866,0,0,-7.33316,109.12574,13.34676)" fill="#009900"/>
<use data-text="&#x201c;" xlink:href="#font_3_9" transform="matrix(7.332866,0,0,-7.33316,31.442872,69.79984)" fill="#0000ff"/>
<use data-text="o" xlink:href="#font_3_8" transform="matrix(7.332866,0,0,-7.33316,34.21469,69.79984)" fill="#0000ff"/>
<use data-text="f" xlink:href="#font_3_6" transform="matrix(7.332866,0,0,-7.33316,38.445756,69.79984)" fill="#0000ff"/>
<use data-text="f" xlink:href="#font_3_6" transform="matrix(7.332866,0,0,-7.33316,40.784929,69.79984)" fill="#0000ff"/>
<use data-text="&#x201d;" xlink:href="#font_3_10" transform="matrix(7.332866,0,0,-7.33316,43.58609,69.79984)" fill="#0000ff"/>
<use data-text="&#x201c;" xlink:href="#font_3_9" transform="matrix(7.332866,0,0,-7.33316,87.60668,69.79984)" fill="#009900"/>
<use data-text="o" xlink:href="#font_3_8" transform="matrix(7.332866,0,0,-7.33316,90.3785,69.79984)" fill="#009900"/>
<use data-text="n" xlink:href="#font_3_7" transform="matrix(7.332866,0,0,-7.33316,94.609569,69.79984)" fill="#009900"/>
<use data-text="&#x201d;" xlink:href="#font_3_10" transform="matrix(7.332866,0,0,-7.33316,98.55465,69.79984)" fill="#009900"/>
<use data-text="&#xfffd;" xlink:href="#font_2_1" transform="matrix(7.332866,0,0,-7.33316,18.574234,27.081997)"/>
<path transform="matrix(1.00005,0,0,-1.00009,-104.48192,11.5706009)" stroke-width=".4224" stroke-linecap="butt" stroke-miterlimit="10" stroke-linejoin="miter" fill="none" stroke="#000000" d="M129.155-15.299H132.598"/>
<use data-text="t" xlink:href="#font_1_1" transform="matrix(7.332866,0,0,-7.33316,24.838532,33.094537)"/>
<use data-text="&#x00b7;" xlink:href="#font_2_3" transform="matrix(7.332866,0,0,-7.33316,29.09674,33.094537)"/>
<use data-text="0" xlink:href="#font_3_3" transform="matrix(7.332866,0,0,-7.33316,32.111909,33.094537)" fill="#0000ff"/>
<use data-text="&#xfffd;" xlink:href="#font_2_1" transform="matrix(7.332866,0,0,-7.33316,74.13601,27.081997)"/>
<path transform="matrix(1.00005,0,0,-1.00009,-48.920145,11.5706009)" stroke-width=".4224" stroke-linecap="butt" stroke-miterlimit="10" stroke-linejoin="miter" fill="none" stroke="#000000" d="M129.155-15.299H132.598"/>
<use data-text="t" xlink:href="#font_1_1" transform="matrix(7.332866,0,0,-7.33316,80.40031,33.094537)"/>
<use data-text="&#x00b7;" xlink:href="#font_2_3" transform="matrix(7.332866,0,0,-7.33316,84.658519,33.094537)"/>
<use data-text="1" xlink:href="#font_3_4" transform="matrix(7.332866,0,0,-7.33316,87.67368,33.094537)" fill="#009900"/>
</svg>
