<svg xmlns="http://www.w3.org/2000/svg" xmlns:xlink="http://www.w3.org/1999/xlink" version="1.1" width="90" height="104" viewBox="0 0 90 104">
<defs>
<path id="font_1_4" d="M.43699647 0V.0289917L.35299684 .035995485C.33198548 .037994386 .31999208 .04598999 .31999208 .08496094V.67367556L.31498719 .6796875 .10899353 .6446991V.6197052L.20199585 .6087036C.21899414 .6067047 .22599793 .5987091 .22599793 .56973269V.08496094C.22599793 .065979007 .22299195 .053985597 .21699524 .04698181 .21199036 .039993287 .20399475 .036987306 .19299317 .035995485L.10899353 .0289917V0H.43699647Z"/>
<path id="font_1_6" d="M.12998963 .3657837C.12998963 .3487854 .1349945 .33779908 .147995 .33779908 .1599884 .33779908 .18699646 .34777833 .23498535 .34777833 .31999208 .34777833 .36799623 .27090455 .36799623 .18403626 .36799623 .065216068 .30899049 .023269654 .23799134 .023269654 .17199707 .023269654 .1289978 .07319641 .10998535 .12911988 .10398865 .14808655 .09399414 .15707398 .07998657 .15707398 .06199646 .15707398 .026992798 .13809204 .026992798 .10215759 .026992798 .05921936 .09599304-.01171875 .23699951-.01171875 .38198854-.01171875 .47299195 .06121826 .47299195 .18902588 .47299195 .32281495 .35798646 .3627777 .30299378 .3677826V.3717804C.35699464 .38078309 .44400025 .4207611 .44400025 .5197296 .44400025 .6306915 .35699464 .6796875 .25 .6796875 .117996219 .6796875 .052993776 .60369876 .052993776 .5607147 .052993776 .5297241 .08799744 .51272585 .101989749 .51272585 .114990238 .51272585 .12298584 .5197296 .1269989 .5327301 .14898682 .60069277 .18699646 .64468386 .24299622 .64468386 .32199098 .64468386 .34098817 .57470706 .34098817 .51872256 .34098817 .4587555 .31999208 .38378907 .23498535 .38378907 .18699646 .38378907 .1599884 .39378358 .147995 .39378358 .1349945 .39378358 .12998963 .38378907 .12998963 .3657837Z"/>
<path id="font_2_1" d="M.42799378 .45222474 .43899537 .49023438H.31199647L.34599305 .6092224 .33399964 .6162262 .23699951 .53923037 .22399903 .49023438H.14299011L.13198853 .45222474H.21499634L.125 .08627319C.10998535 .029266358 .12199402-.01171875 .17199707-.01171875 .2519989-.01171875 .31599427 .054275514 .35598756 .1292572L.33399964 .1462555C.31098939 .10726929 .2599945 .040267946 .22898865 .040267946 .20799256 .040267946 .20799256 .0632782 .21398926 .088272098L.30299378 .45222474H.42799378Z"/>
<path id="font_1_7" d="M.2999878 .17871094V.0769043C.2999878 .04296875 .2889862 .036987306 .2649994 .034988405L.20098877 .0289917V0H.46499635V.0289917L.41999818 .033981325C.39698792 .036987306 .3899994 .04296875 .3899994 .0769043V.17871094H.49299623V.22570801H.3899994V.66796877H.31698609C.22299195 .5298767 .11099243 .35577394 .018997193 .19970703L.027999878 .17871094H.2999878M.09098816 .22570801C.15098572 .33476258 .22099304 .4498291 .2979889 .5709076H.2999878V.22570801H.09098816Z"/>
<path id="font_2_2" d="M.070999149 .45393373 .07398987 .42893983 .14199829 .43093873C.1639862 .43193055 .16899109 .41493226 .1769867 .36291505 .18798828 .28489686 .20999146 .09286499 .20999146 .0128479 .20999146-.017166138 .20799256-.058166505 .18598938-.11117554 .16799927-.15318299 .14199829-.18218994 .12199402-.18218994 .10699463-.18218994 .09599304-.17118836 .08099365-.15118408 .068984989-.13517761 .06098938-.127182 .04598999-.127182 .019989014-.12818909-.005004883-.15818787-.005004883-.18719483-.005004883-.21418762 .023986817-.2421875 .067993167-.2421875 .15299988-.2421875 .18998719-.17919922 .27799989-.027160645 .2979889 .0068511965 .35798646 .11286926 .41999818 .21488953 .47698976 .30891419 .5399933 .40592958 .5399933 .4459381 .5399933 .48094178 .5289917 .5019531 .5219879 .5019531 .5029907 .5019531 .46899415 .49394227 .44400025 .47694398 .44499208 .4419403 .44299317 .3809204 .43099977 .33891297 .4149933 .28289796 .35598756 .17488098 .2899933 .06085205H.2869873C.27999879 .21388245 .26098634 .42492677 .24699402 .49795533L.23899842 .5019531 .070999149 .45393373Z"/>
<path id="font_1_5" d="M.4850006 .13195801 .45700074 .13696289C.43598939 .08299255 .41600038 .07598877 .37599183 .07598877H.11999512C.13598633 .1279602 .19499207 .19892884 .28799439 .2658844 .38398744 .33584596 .45799256 .38082887 .45799256 .49276734 .45799256 .63168337 .3659973 .6796875 .26098634 .6796875 .12399292 .6796875 .052993776 .5967102 .052993776 .54473879 .052993776 .51075747 .09098816 .49476625 .10798645 .49476625 .12599182 .49476625 .1329956 .50476077 .13699341 .5217438 .15299988 .5897064 .19198609 .64468386 .2539978 .64468386 .33099366 .64468386 .35299684 .5797119 .35299684 .50675967 .35299684 .3998108 .29899598 .33984376 .21199036 .26289369 .08898926 .15594483 .04598999 .08798218 .026992798 .009994507L.036987306 0H.45098878L.4850006 .13195801Z"/>
<path id="font_1_1" d="M.1749878 .2822113C.1749878 .56832888 .2619934 .65437319 .32499696 .66737368V.6923828C.1499939 .685379 .10499573 .46829225 .10499573 .2822113 .10499573 .09614563 .1499939-.12094116 .32499696-.12792969V-.10293579C.2669983-.090927127 .1749878-.0059051516 .1749878 .2822113Z"/>
<path id="font_1_3" d="M.069992069-.140625C.11999512-.09362793 .19299317-.027633667 .19299317 .051361085 .19299317 .10636902 .1599884 .1423645 .125 .14137268 .09399414 .14137268 .07598877 .117370609 .07598877 .09136963 .07598877 .055374147 .10899353 .037368776 .10899353-.005630493 .10899353-.04663086 .08299255-.086639408 .050994874-.12162781L.069992069-.140625Z"/>
<path id="font_1_2" d="M.1749878 .2822113C.1749878-.0059051516 .08299255-.090927127 .024993897-.10293579V-.12792969C.19999695-.12094116 .24499512 .09614563 .24499512 .2822113 .24499512 .46829225 .19999695 .685379 .024993897 .6923828V.66737368C.08799744 .65437319 .1749878 .56832888 .1749878 .2822113Z"/>
</defs>
<path transform="matrix(1,0,0,-1.00003,15.570999,86.15523)" stroke-width=".3985" stroke-linecap="butt" stroke-miterlimit="10" stroke-linejoin="miter" fill="none" stroke="#cbcbcb" d="M17.00824-13.60663V81.63968"/>
<path transform="matrix(1,0,0,-1.00003,15.570999,86.15523)" stroke-width=".3985" stroke-linecap="butt" stroke-miterlimit="10" stroke-linejoin="miter" fill="none" stroke="#cbcbcb" d="M34.0165-13.60663V81.63968"/>
<path transform="matrix(1,0,0,-1.00003,15.570999,86.15523)" stroke-width=".3985" stroke-linecap="butt" stroke-miterlimit="10" stroke-linejoin="miter" fill="none" stroke="#cbcbcb" d="M51.02477-13.60663V81.63968"/>
<path transform="matrix(1,0,0,-1.00003,15.570999,86.15523)" stroke-width=".3985" stroke-linecap="butt" stroke-miterlimit="10" stroke-linejoin="miter" fill="none" stroke="#000000" d="M17.00824-1.70091V1.70091"/>
<path transform="matrix(1,0,0,-1.00003,15.570999,86.15523)" d="M13.58105-11.16368H20.4354V-3.0341006H13.58105Z" fill="#ffffff"/>
<use data-text="1" xlink:href="#font_1_4" transform="matrix(9.1656,0,0,-9.165875,30.147995,96.32253)"/>
<path transform="matrix(1,0,0,-1.00003,15.570999,86.15523)" stroke-width=".3985" stroke-linecap="butt" stroke-miterlimit="10" stroke-linejoin="miter" fill="none" stroke="#000000" d="M51.02477-1.70091V1.70091"/>
<path transform="matrix(1,0,0,-1.00003,15.570999,86.15523)" d="M47.59758-11.21349H54.45193V-3.034109H47.59758Z" fill="#ffffff"/>
<use data-text="3" xlink:href="#font_1_6" transform="matrix(9.1656,0,0,-9.165875,64.165,96.32253)"/>
<path transform="matrix(1,0,0,-1.00003,15.570999,86.15523)" stroke-width=".3985" stroke-linecap="butt" stroke-miterlimit="10" stroke-linejoin="miter" fill="none" stroke="#000000" d="M-13.60663 0H65.8738"/>
<path transform="matrix(1,0,0,-1.00003,81.4448,86.15523)" stroke-width=".31879" stroke-linecap="round" stroke-linejoin="round" fill="none" stroke="#000000" d="M-1.19551 1.59401C-1.09587 .99626 0 .09961 .29886 0 0-.09961-1.09587-.99626-1.19551-1.59401"/>
<use data-text="t" xlink:href="#font_2_1" transform="matrix(10.0364,0,0,-10.036701,79.76601,95.73952)"/>
<path transform="matrix(1,0,0,-1.00003,15.570999,86.15523)" stroke-width=".3985" stroke-linecap="butt" stroke-miterlimit="10" stroke-linejoin="miter" fill="none" stroke="#cbcbcb" d="M-13.60663 17.00824H66.33208"/>
<path transform="matrix(1,0,0,-1.00003,15.570999,86.15523)" stroke-width=".3985" stroke-linecap="butt" stroke-miterlimit="10" stroke-linejoin="miter" fill="none" stroke="#cbcbcb" d="M-13.60663 34.0165H66.33208"/>
<path transform="matrix(1,0,0,-1.00003,15.570999,86.15523)" stroke-width=".3985" stroke-linecap="butt" stroke-miterlimit="10" stroke-linejoin="miter" fill="none" stroke="#cbcbcb" d="M-13.60663 51.02477H66.33208"/>
<path transform="matrix(1,0,0,-1.00003,15.570999,86.15523)" stroke-width=".3985" stroke-linecap="butt" stroke-miterlimit="10" stroke-linejoin="miter" fill="none" stroke="#cbcbcb" d="M-13.60663 68.03302H66.33208"/>
<path transform="matrix(1,0,0,-1.00003,15.570999,86.15523)" stroke-width=".3985" stroke-linecap="butt" stroke-miterlimit="10" stroke-linejoin="miter" fill="none" stroke="#000000" d="M-1.70091 17.00824H1.70091"/>
<use data-text="1" xlink:href="#font_1_4" transform="matrix(9.1656,0,0,-9.165875,7.3099977,72.21481)"/>
<path transform="matrix(1,0,0,-1.00003,15.570999,86.15523)" stroke-width=".3985" stroke-linecap="butt" stroke-miterlimit="10" stroke-linejoin="miter" fill="none" stroke="#000000" d="M-1.70091 68.03302H1.70091"/>
<use data-text="4" xlink:href="#font_1_7" transform="matrix(9.1656,0,0,-9.165875,7.3099977,21.188279)"/>
<path transform="matrix(1,0,0,-1.00003,15.570999,86.15523)" stroke-width=".3985" stroke-linecap="butt" stroke-miterlimit="10" stroke-linejoin="miter" fill="none" stroke="#000000" d="M0-13.60663V81.1814"/>
<path transform="matrix(0,-1.00003,-1,-0,15.570999,4.97139)" stroke-width=".31879" stroke-linecap="round" stroke-linejoin="round" fill="none" stroke="#000000" d="M-1.19551 1.59401C-1.09587 .99626 0 .09961 .29886 0 0-.09961-1.09587-.99626-1.19551-1.59401"/>
<use data-text="y" xlink:href="#font_2_2" transform="matrix(10.0364,0,0,-10.036701,19.515999,5.7618105)"/>
<path transform="matrix(1,0,0,-1.00003,15.570999,86.15523)" stroke-width="1.59404" stroke-linecap="butt" stroke-miterlimit="10" stroke-linejoin="miter" fill="none" stroke="#000000" d="M-4.43388-15.15479-2.48053-12.22491 .14142-8.29208 2.76341-4.35898 5.38539-.42612 8.00737 3.50694 10.62936 7.43979 13.25136 11.37291 15.87334 15.30576 18.49533 19.23886 21.11731 23.1717 23.73929 27.10481 26.36127 31.03766 28.98326 34.97078 31.60524 38.90363 34.22723 42.83672 36.84923 46.76958 39.4712 50.7027 42.09319 54.63554 44.71516 58.56863 47.33716 62.5015 49.95915 66.4346 52.58113 70.36745 55.20313 74.30055 57.15648 77.23041"/>
<path transform="matrix(-.55466,.83204498,.83202,.5546767,11.137129,101.31047)" stroke-width="1.27522" stroke-linecap="round" stroke-linejoin="round" fill="none" stroke="#000000" d="M-2.27148 3.02866C-2.0822 1.8929 0 .18927 .56786 0 0-.18927-2.0822-1.8929-2.27148-3.02866"/>
<path transform="matrix(.55466,-.83204498,-.83202,-.5546767,72.72746,8.922501)" stroke-width="1.27522" stroke-linecap="round" stroke-linejoin="round" fill="none" stroke="#000000" d="M-2.27148 3.02866C-2.0822 1.8929 0 .18927 .56786 0 0-.18927-2.0822-1.8929-2.27148-3.02866"/>
<path transform="matrix(1,0,0,-1.00003,15.570999,86.15523)" stroke-width="1.19553" stroke-linecap="butt" stroke-miterlimit="10" stroke-linejoin="miter" fill="none" stroke="#0033cc" d="M17.00824 17.00824V67.07661"/>
<path transform="matrix(0,-1.00003,-1,-0,32.57924,19.076607)" stroke-width=".9564" stroke-linecap="round" stroke-linejoin="round" fill="none" stroke="#0033cc" d="M-1.91284 2.55046C-1.75343 1.59402 0 .15938 .4782 0 0-.15938-1.75343-1.59402-1.91284-2.55046"/>
<path transform="matrix(1,0,0,-1.00003,15.570999,86.15523)" d="M13.58105 38.43092H20.4354V46.6103H13.58105Z" fill="#ffffff"/>
<use data-text="3" xlink:href="#font_1_6" transform="matrix(9.1656,0,0,-9.165875,30.147995,46.67704)" fill="#0033cc"/>
<path transform="matrix(1,0,0,-1.00003,15.570999,86.15523)" stroke-width="1.19553" stroke-linecap="butt" stroke-miterlimit="10" stroke-linejoin="miter" fill="none" stroke="#009966" d="M17.00824 68.03302H48.36742"/>
<path transform="matrix(1,0,0,-1.00003,63.93842,18.120163)" stroke-width=".9564" stroke-linecap="round" stroke-linejoin="round" fill="none" stroke="#009966" d="M-1.91284 2.55046C-1.75343 1.59402 0 .15938 .4782 0 0-.15938-1.75343-1.59402-1.91284-2.55046"/>
<path transform="matrix(1,0,0,-1.00003,15.570999,86.15523)" d="M30.73512 64.96451H35.59692V71.10153H30.73512Z" fill="#ffffff"/>
<use data-text="2" xlink:href="#font_1_5" transform="matrix(9.1656,0,0,-9.165875,46.306,21.188279)" fill="#009966"/>
<path transform="matrix(1,0,0,-1.00003,15.570999,86.15523)" d="M18.80156 17.00824C18.80156 17.99866 17.99866 18.80156 17.00824 18.80156 16.01782 18.80156 15.21492 17.99866 15.21492 17.00824 15.21492 16.01782 16.01782 15.21492 17.00824 15.21492 17.99866 15.21492 18.80156 16.01782 18.80156 17.00824ZM17.00824 17.00824" fill="#ffffff"/>
<path transform="matrix(1,0,0,-1.00003,15.570999,86.15523)" stroke-width="1.19553" stroke-linecap="butt" stroke-miterlimit="10" stroke-linejoin="miter" fill="none" stroke="#000000" d="M18.80156 17.00824C18.80156 17.99866 17.99866 18.80156 17.00824 18.80156 16.01782 18.80156 15.21492 17.99866 15.21492 17.00824 15.21492 16.01782 16.01782 15.21492 17.00824 15.21492 17.99866 15.21492 18.80156 16.01782 18.80156 17.00824ZM17.00824 17.00824"/>
<path transform="matrix(1,0,0,-1.00003,15.570999,86.15523)" stroke-width=".3985" stroke-linecap="butt" stroke-miterlimit="10" stroke-linejoin="miter" fill="none" stroke="#000000" d="M30.6149 17.00824"/>
<path transform="matrix(1,0,0,-1.00003,15.570999,86.15523)" d="M19.84628 7.03554H41.3835V16.80898H19.84628Z" fill="#ffffff"/>
<use data-text="(" xlink:href="#font_1_1" transform="matrix(9.1656,0,0,-9.165875,36.414,76.82795)"/>
<use data-text="1" xlink:href="#font_1_4" transform="matrix(9.1656,0,0,-9.165875,39.621965,76.82795)"/>
<use data-text="," xlink:href="#font_1_3" transform="matrix(9.1656,0,0,-9.165875,44.47973,76.82795)"/>
<use data-text="1" xlink:href="#font_1_4" transform="matrix(9.1656,0,0,-9.165875,47.880167,76.82795)"/>
<use data-text=")" xlink:href="#font_1_2" transform="matrix(9.1656,0,0,-9.165875,52.7471,76.82795)"/>
<path transform="matrix(1,0,0,-1.00003,15.570999,86.15523)" stroke-width=".3985" stroke-linecap="butt" stroke-miterlimit="10" stroke-linejoin="miter" fill="none" stroke="#000000" d="M64.63141 68.03302"/>
<path transform="matrix(1,0,0,-1.00003,15.570999,86.15523)" d="M53.86281 58.06033H75.400028V67.83377H53.86281Z" fill="#ffffff"/>
<use data-text="(" xlink:href="#font_1_1" transform="matrix(9.1656,0,0,-9.165875,70.43,25.801415)"/>
<use data-text="3" xlink:href="#font_1_6" transform="matrix(9.1656,0,0,-9.165875,73.63796,25.801415)"/>
<use data-text="," xlink:href="#font_1_3" transform="matrix(9.1656,0,0,-9.165875,78.49573,25.801415)"/>
<use data-text="4" xlink:href="#font_1_7" transform="matrix(9.1656,0,0,-9.165875,81.896167,25.801415)"/>
<use data-text=")" xlink:href="#font_1_2" transform="matrix(9.1656,0,0,-9.165875,86.7631,25.801415)"/>
<path transform="matrix(1,0,0,-1.00003,15.570999,86.15523)" d="M52.81808 68.03302C52.81808 69.02345 52.01518 69.82634 51.02477 69.82634 50.03433 69.82634 49.23145 69.02345 49.23145 68.03302 49.23145 67.0426 50.03433 66.23972 51.02477 66.23972 52.01518 66.23972 52.81808 67.0426 52.81808 68.03302ZM51.02477 68.03302" fill="#ffffff"/>
<path transform="matrix(1,0,0,-1.00003,15.570999,86.15523)" stroke-width="1.19553" stroke-linecap="butt" stroke-miterlimit="10" stroke-linejoin="miter" fill="none" stroke="#000000" d="M52.81808 68.03302C52.81808 69.02345 52.01518 69.82634 51.02477 69.82634 50.03433 69.82634 49.23145 69.02345 49.23145 68.03302 49.23145 67.0426 50.03433 66.23972 51.02477 66.23972 52.01518 66.23972 52.81808 67.0426 52.81808 68.03302ZM51.02477 68.03302"/>
</svg>
