<svg xmlns="http://www.w3.org/2000/svg" xmlns:xlink="http://www.w3.org/1999/xlink" version="1.1" width="198" height="166" viewBox="0 0 198 166">
<defs>
<path id="font_1_1" d="M.6349945 .2529297V.31092835H.084991458V.2529297H.6349945Z"/>
<path id="font_2_2" d="M.4850006 .13195801 .45700074 .13696289C.43598939 .08299255 .41600038 .07598877 .37599183 .07598877H.11999512C.13598633 .1279602 .19499207 .19892884 .28799439 .2658844 .38398744 .33584596 .45799256 .38082887 .45799256 .49276734 .45799256 .63168337 .3659973 .6796875 .26098634 .6796875 .12399292 .6796875 .052993776 .5967102 .052993776 .54473879 .052993776 .51075747 .09098816 .49476625 .10798645 .49476625 .12599182 .49476625 .1329956 .50476077 .13699341 .5217438 .15299988 .5897064 .19198609 .64468386 .2539978 .64468386 .33099366 .64468386 .35299684 .5797119 .35299684 .50675967 .35299684 .3998108 .29899598 .33984376 .21199036 .26289369 .08898926 .15594483 .04598999 .08798218 .026992798 .009994507L.036987306 0H.45098878L.4850006 .13195801Z"/>
<path id="font_2_1" d="M.43699647 0V.0289917L.35299684 .035995485C.33198548 .037994386 .31999208 .04598999 .31999208 .08496094V.67367556L.31498719 .6796875 .10899353 .6446991V.6197052L.20199585 .6087036C.21899414 .6067047 .22599793 .5987091 .22599793 .56973269V.08496094C.22599793 .065979007 .22299195 .053985597 .21699524 .04698181 .21199036 .039993287 .20399475 .036987306 .19299317 .035995485L.10899353 .0289917V0H.43699647Z"/>
<path id="font_2_3" d="M.2999878 .17871094V.0769043C.2999878 .04296875 .2889862 .036987306 .2649994 .034988405L.20098877 .0289917V0H.46499635V.0289917L.41999818 .033981325C.39698792 .036987306 .3899994 .04296875 .3899994 .0769043V.17871094H.49299623V.22570801H.3899994V.66796877H.31698609C.22299195 .5298767 .11099243 .35577394 .018997193 .19970703L.027999878 .17871094H.2999878M.09098816 .22570801C.15098572 .33476258 .22099304 .4498291 .2979889 .5709076H.2999878V.22570801H.09098816Z"/>
<clipPath id="clip_3">
<path transform="matrix(1.00005,0,0,-1.00006,2.0933533,164.13986)" d="M0 0H194.27368V161.39028H0Z"/>
</clipPath>
<path id="font_4_1" d="M.42799378 .45222474 .43899537 .49023438H.31199647L.34599305 .6092224 .33399964 .6162262 .23699951 .53923037 .22399903 .49023438H.14299011L.13198853 .45222474H.21499634L.125 .08627319C.10998535 .029266358 .12199402-.01171875 .17199707-.01171875 .2519989-.01171875 .31599427 .054275514 .35598756 .1292572L.33399964 .1462555C.31098939 .10726929 .2599945 .040267946 .22898865 .040267946 .20799256 .040267946 .20799256 .0632782 .21398926 .088272098L.30299378 .45222474H.42799378Z"/>
<path id="font_4_2" d="M.070999149 .45393373 .07398987 .42893983 .14199829 .43093873C.1639862 .43193055 .16899109 .41493226 .1769867 .36291505 .18798828 .28489686 .20999146 .09286499 .20999146 .0128479 .20999146-.017166138 .20799256-.058166505 .18598938-.11117554 .16799927-.15318299 .14199829-.18218994 .12199402-.18218994 .10699463-.18218994 .09599304-.17118836 .08099365-.15118408 .068984989-.13517761 .06098938-.127182 .04598999-.127182 .019989014-.12818909-.005004883-.15818787-.005004883-.18719483-.005004883-.21418762 .023986817-.2421875 .067993167-.2421875 .15299988-.2421875 .18998719-.17919922 .27799989-.027160645 .2979889 .0068511965 .35798646 .11286926 .41999818 .21488953 .47698976 .30891419 .5399933 .40592958 .5399933 .4459381 .5399933 .48094178 .5289917 .5019531 .5219879 .5019531 .5029907 .5019531 .46899415 .49394227 .44400025 .47694398 .44499208 .4419403 .44299317 .3809204 .43099977 .33891297 .4149933 .28289796 .35598756 .17488098 .2899933 .06085205H.2869873C.27999879 .21388245 .26098634 .42492677 .24699402 .49795533L.23899842 .5019531 .070999149 .45393373Z"/>
</defs>
<path transform="matrix(1.00005,0,0,-1.00006,2.0933533,164.13986)" stroke-width=".19925" stroke-linecap="butt" stroke-miterlimit="10" stroke-linejoin="miter" fill="none" stroke="#929292" d="M0 30.86058V33.69551M38.85474 30.86058V33.69551M77.70947 30.86058V33.69551M116.56421 30.86058V33.69551M155.41895 30.86058V33.69551M194.27368 30.86058V33.69551"/>
<path transform="matrix(1.00005,0,0,-1.00006,2.0933533,164.13986)" stroke-width=".19925" stroke-linecap="butt" stroke-miterlimit="10" stroke-linejoin="miter" fill="none" stroke="#929292" d="M19.42737 30.15207V34.40402M58.2821 30.15207V34.40402M135.99158 30.15207V34.40402M174.84632 30.15207V34.40402"/>
<path transform="matrix(1.00005,0,0,-1.00006,2.0933533,164.13986)" stroke-width=".19925" stroke-linecap="butt" stroke-miterlimit="10" stroke-linejoin="miter" fill="none" stroke="#929292" d="M95.71935 5.37967H98.55432M95.71935 59.17642H98.55432M95.71935 112.97319H98.55432"/>
<path transform="matrix(1.00005,0,0,-1.00006,2.0933533,164.13986)" stroke-width=".19925" stroke-linecap="butt" stroke-miterlimit="10" stroke-linejoin="miter" fill="none" stroke="#929292" d="M95.0108 86.07481H99.26285M95.0108 139.87157H99.26285"/>
<path transform="matrix(1.00005,0,0,-1.00006,2.0933533,164.13986)" stroke-width=".3985" stroke-linecap="butt" stroke-miterlimit="10" stroke-linejoin="miter" fill="none" stroke="#000000" d="M0 32.27805H192.28116"/>
<path transform="matrix(1.00005,0,0,-1.00006,194.38411,131.85988)" d="M1.99252 0-1.19551 1.59401 0 0-1.19551-1.59401"/>
<path transform="matrix(1.00005,0,0,-1.00006,2.0933533,164.13986)" stroke-width=".3985" stroke-linecap="butt" stroke-miterlimit="10" stroke-linejoin="miter" fill="none" stroke="#000000" d="M97.13684 0V159.39775"/>
<path transform="matrix(0,-1.00006,-1.00005,-0,99.23505,4.732559)" d="M1.99252 0-1.19551 1.59401 0 0-1.19551-1.59401"/>
<use data-text="&#x2212;" xlink:href="#font_1_1" transform="matrix(10.036901,0,0,-10.037002,15.249008,144.10565)"/>
<use data-text="2" xlink:href="#font_2_2" transform="matrix(10.036901,0,0,-10.037002,22.471367,144.10565)"/>
<use data-text="&#x2212;" xlink:href="#font_1_1" transform="matrix(10.036901,0,0,-10.037002,54.10495,144.10565)"/>
<use data-text="1" xlink:href="#font_2_1" transform="matrix(10.036901,0,0,-10.037002,61.32731,144.10565)"/>
<use data-text="1" xlink:href="#font_2_1" transform="matrix(10.036901,0,0,-10.037002,135.43001,144.10565)"/>
<use data-text="2" xlink:href="#font_2_2" transform="matrix(10.036901,0,0,-10.037002,174.28597,144.10565)"/>
<use data-text="2" xlink:href="#font_2_2" transform="matrix(10.036901,0,0,-10.037002,88.385669,81.41991)"/>
<use data-text="4" xlink:href="#font_2_3" transform="matrix(10.036901,0,0,-10.037002,88.385669,27.61969)"/>
<g clip-path="url(#clip_3)">
<path transform="matrix(1.00005,0,0,-1.00006,2.0933533,164.13986)" stroke-width="1.59404" stroke-linecap="butt" stroke-miterlimit="10" stroke-linejoin="miter" fill="none" stroke="#0000ff" d="M98.12285 59.8699 98.40552 60.06865 99.6742 60.99126 100.94287 61.944 102.21156 62.9282 103.48026 63.9455 104.74893 64.99669 106.01762 66.0823 107.2863 67.20424 108.555 68.36409 109.82367 69.56189 111.09236 70.79868 112.36104 72.07634 113.62971 73.3976 114.89842 74.76242 116.1671 76.17216 117.43578 77.62871 118.70445 79.13422 119.97316 80.68976 121.24184 82.29585 122.51051 83.95602 123.7792 85.67107 125.04788 87.44313 126.31657 89.2741 127.58525 91.16505 128.85395 93.12003 130.12264 95.13956 131.39131 97.22633 132.65999 99.38277 133.92868 101.60782 135.19736 103.90897 136.46605 106.28706 137.73474 108.74396 139.00342 111.28127 140.2721 113.9036 141.54079 116.61119 142.80948 119.4113 144.07816 122.30423 145.34683 125.29076 146.61553 128.37789 147.88422 131.56723 149.1529 134.86309 150.42157 138.26842 151.69026 141.78404 152.95894 145.41989 154.22763 149.1733 155.49633 153.05553 156.765 157.06179 158.03369 161.20279 158.9598 164.32715"/>
<path transform="matrix(-.8179708,.5752945,.5752887,.81797906,100.2211,104.26636)" stroke-width="1.27522" stroke-linecap="round" stroke-linejoin="round" fill="none" stroke="#0000ff" d="M-2.27148 3.02866C-2.0822 1.8929 0 .18927 .56786 0 0-.18927-2.0822-1.8929-2.27148-3.02866"/>
<path transform="matrix(.28419418,-.9587675,-.9587579,-.28419704,161.06108,-.1971283)" stroke-width="1.27522" stroke-linecap="round" stroke-linejoin="round" fill="none" stroke="#0000ff" d="M-2.27148 3.02866C-2.0822 1.8929 0 .18927 .56786 0 0-.18927-2.0822-1.8929-2.27148-3.02866"/>
</g>
<path transform="matrix(1.00005,0,0,-1.00006,2.0933533,164.13986)" stroke-width=".3985" stroke-linecap="butt" stroke-miterlimit="10" stroke-linejoin="miter" fill="none" stroke="#000000" d="M99.1294 59.17642C99.1294 60.2769 98.2373 61.16898 97.13684 61.16898 96.03636 61.16898 95.14429 60.2769 95.14429 59.17642 95.14429 58.07596 96.03636 57.18387 97.13684 57.18387 98.2373 57.18387 99.1294 58.07596 99.1294 59.17642ZM97.13684 59.17642"/>
<path transform="matrix(1.00005,0,0,-1.00006,2.0933533,164.13986)" stroke-width=".3985" stroke-linecap="butt" stroke-miterlimit="10" stroke-linejoin="miter" fill="none" stroke="#000000" d="M108.84308 65.90103C108.84308 67.0015 107.95099 67.89359 106.85052 67.89359 105.75005 67.89359 104.85797 67.0015 104.85797 65.90103 104.85797 64.80055 105.75005 63.90848 106.85052 63.90848 107.95099 63.90848 108.84308 64.80055 108.84308 65.90103ZM106.85052 65.90103"/>
<path transform="matrix(1.00005,0,0,-1.00006,2.0933533,164.13986)" stroke-width=".3985" stroke-linecap="butt" stroke-miterlimit="10" stroke-linejoin="miter" fill="none" stroke="#000000" d="M118.55676 74.30676C118.55676 75.40723 117.66467 76.29932 116.56421 76.29932 115.46373 76.29932 114.57166 75.40723 114.57166 74.30676 114.57166 73.20628 115.46373 72.31421 116.56421 72.31421 117.66467 72.31421 118.55676 73.20628 118.55676 74.30676ZM116.56421 74.30676"/>
<path transform="matrix(1.00005,0,0,-1.00006,2.0933533,164.13986)" stroke-width=".3985" stroke-linecap="butt" stroke-miterlimit="10" stroke-linejoin="miter" fill="none" stroke="#000000" d="M128.27045 84.81395C128.27045 85.91441 127.37836 86.8065 126.2779 86.8065 125.17741 86.8065 124.28534 85.91441 124.28534 84.81395 124.28534 83.71347 125.17741 82.8214 126.2779 82.8214 127.37836 82.8214 128.27045 83.71347 128.27045 84.81395ZM126.2779 84.81395"/>
<path transform="matrix(1.00005,0,0,-1.00006,2.0933533,164.13986)" stroke-width=".3985" stroke-linecap="butt" stroke-miterlimit="10" stroke-linejoin="miter" fill="none" stroke="#000000" d="M137.98413 97.94792C137.98413 99.04839 137.09204 99.94048 135.99158 99.94048 134.8911 99.94048 133.99903 99.04839 133.99903 97.94792 133.99903 96.84744 134.8911 95.95537 135.99158 95.95537 137.09204 95.95537 137.98413 96.84744 137.98413 97.94792ZM135.99158 97.94792"/>
<path transform="matrix(1.00005,0,0,-1.00006,2.0933533,164.13986)" stroke-width=".3985" stroke-linecap="butt" stroke-miterlimit="10" stroke-linejoin="miter" fill="none" stroke="#000000" d="M147.69782 114.36539C147.69782 115.46587 146.80573 116.35794 145.70526 116.35794 144.60478 116.35794 143.7127 115.46587 143.7127 114.36539 143.7127 113.26492 144.60478 112.37283 145.70526 112.37283 146.80573 112.37283 147.69782 113.26492 147.69782 114.36539ZM145.70526 114.36539"/>
<path transform="matrix(1.00005,0,0,-1.00006,2.0933533,164.13986)" stroke-width=".3985" stroke-linecap="butt" stroke-miterlimit="10" stroke-linejoin="miter" fill="none" stroke="#000000" d="M157.4115 134.88722C157.4115 135.9877 156.51941 136.87978 155.41895 136.87978 154.31847 136.87978 153.42639 135.9877 153.42639 134.88722 153.42639 133.78676 154.31847 132.89467 155.41895 132.89467 156.51941 132.89467 157.4115 133.78676 157.4115 134.88722ZM155.41895 134.88722"/>
<path transform="matrix(1.00005,0,0,-1.00006,2.0933533,164.13986)" stroke-width=".3985" stroke-linecap="butt" stroke-miterlimit="10" stroke-linejoin="miter" fill="none" stroke="#000000" d="M167.12519 160.5395C167.12519 161.63999 166.2331 162.53206 165.13263 162.53206 164.03215 162.53206 163.14008 161.63999 163.14008 160.5395 163.14008 159.43904 164.03215 158.54695 165.13263 158.54695 166.2331 158.54695 167.12519 159.43904 167.12519 160.5395ZM165.13263 160.5395"/>
<path transform="matrix(1.00005,0,0,-1.00006,2.0933533,164.13986)" stroke-width=".3985" stroke-linecap="butt" stroke-miterlimit="10" stroke-linejoin="miter" fill="none" stroke="#000000" d=""/>
<use data-text="t" xlink:href="#font_4_1" transform="matrix(10.036901,0,0,-10.037002,188.48267,128.37372)"/>
<use data-text="y" xlink:href="#font_4_2" transform="matrix(10.036901,0,0,-10.037002,103.1794,11.102692)"/>
</svg>
