<svg xmlns="http://www.w3.org/2000/svg" xmlns:xlink="http://www.w3.org/1999/xlink" version="1.1" width="7" height="93" viewBox="0 0 7 93">
<path transform="matrix(1.00005,0,0,-1.00006,3.460518,46.554895)" stroke-width="1.19553" stroke-linecap="butt" stroke-miterlimit="10" stroke-linejoin="miter" fill="none" stroke="#000000" d="M0-45.35506V45.35506"/>
<path transform="matrix(1.00005,0,0,-1.00006,3.460518,46.554895)" stroke-width="1.19553" stroke-linecap="butt" stroke-miterlimit="10" stroke-linejoin="miter" fill="none" stroke="#005959" d="M0 39.68535V38.62158"/>
<path transform="matrix(0,1.00006,1.00005,0,3.460518,7.9309999)" d="M3.18808 0-1.91284 2.55046 0 0-1.91284-2.55046" fill="#005959"/>
<path transform="matrix(1.00005,0,0,-1.00006,3.460518,46.554895)" d="M1.99255 28.3468C1.99255 29.44728 1.10046 30.33936 0 30.33936-1.10046 30.33936-1.99255 29.44728-1.99255 28.3468-1.99255 27.24634-1.10046 26.35425 0 26.35425 1.10046 26.35425 1.99255 27.24634 1.99255 28.3468ZM0 28.3468"/>
<path transform="matrix(1.00005,0,0,-1.00006,3.460518,46.554895)" stroke-width=".3985" stroke-linecap="butt" stroke-miterlimit="10" stroke-linejoin="miter" fill="none" stroke="#000000" d="M1.99255 28.3468C1.99255 29.44728 1.10046 30.33936 0 30.33936-1.10046 30.33936-1.99255 29.44728-1.99255 28.3468-1.99255 27.24634-1.10046 26.35425 0 26.35425 1.10046 26.35425 1.99255 27.24634 1.99255 28.3468ZM0 28.3468"/>
<path transform="matrix(1.00005,0,0,-1.00006,3.460518,46.554895)" stroke-width="1.19553" stroke-linecap="butt" stroke-miterlimit="10" stroke-linejoin="miter" fill="none" stroke="#005959" d="M0 14.17339V15.23715"/>
<path transform="matrix(0,-1.00006,-1.00005,-0,3.460518,31.31683)" d="M3.18808 0-1.91284 2.55046 0 0-1.91284-2.55046" fill="#005959"/>
<path transform="matrix(1.00005,0,0,-1.00006,3.460518,46.554895)" d="M1.99255 0C1.99255 1.10046 1.10046 1.99255 0 1.99255-1.10046 1.99255-1.99255 1.10046-1.99255 0-1.99255-1.10046-1.10046-1.99255 0-1.99255 1.10046-1.99255 1.99255-1.10046 1.99255 0ZM0 0"/>
<path transform="matrix(1.00005,0,0,-1.00006,3.460518,46.554895)" stroke-width=".3985" stroke-linecap="butt" stroke-miterlimit="10" stroke-linejoin="miter" fill="none" stroke="#000000" d="M1.99255 0C1.99255 1.10046 1.10046 1.99255 0 1.99255-1.10046 1.99255-1.99255 1.10046-1.99255 0-1.99255-1.10046-1.10046-1.99255 0-1.99255 1.10046-1.99255 1.99255-1.10046 1.99255 0ZM0 0"/>
<path transform="matrix(1.00005,0,0,-1.00006,3.460518,46.554895)" stroke-width="1.19553" stroke-linecap="butt" stroke-miterlimit="10" stroke-linejoin="miter" fill="none" stroke="#005959" d="M0-14.17339V-15.23715"/>
<path transform="matrix(0,1.00006,1.00005,0,3.460518,61.792959)" d="M3.18808 0-1.91284 2.55046 0 0-1.91284-2.55046" fill="#005959"/>
<path transform="matrix(1.00005,0,0,-1.00006,3.460518,46.554895)" d="M1.99255-28.3468C1.99255-27.24634 1.10046-26.35425 0-26.35425-1.10046-26.35425-1.99255-27.24634-1.99255-28.3468-1.99255-29.44728-1.10046-30.33936 0-30.33936 1.10046-30.33936 1.99255-29.44728 1.99255-28.3468ZM0-28.3468"/>
<path transform="matrix(1.00005,0,0,-1.00006,3.460518,46.554895)" stroke-width=".3985" stroke-linecap="butt" stroke-miterlimit="10" stroke-linejoin="miter" fill="none" stroke="#000000" d="M1.99255-28.3468C1.99255-27.24634 1.10046-26.35425 0-26.35425-1.10046-26.35425-1.99255-27.24634-1.99255-28.3468-1.99255-29.44728-1.10046-30.33936 0-30.33936 1.10046-30.33936 1.99255-29.44728 1.99255-28.3468ZM0-28.3468"/>
<path transform="matrix(1.00005,0,0,-1.00006,3.460518,46.554895)" stroke-width="1.19553" stroke-linecap="butt" stroke-miterlimit="10" stroke-linejoin="miter" fill="none" stroke="#005959" d="M0-36.85092V-37.91469"/>
<path transform="matrix(0,1.00006,1.00005,0,3.460518,84.471858)" d="M3.18808 0-1.91284 2.55046 0 0-1.91284-2.55046" fill="#005959"/>
</svg>
