<svg xmlns="http://www.w3.org/2000/svg" xmlns:xlink="http://www.w3.org/1999/xlink" version="1.1" width="117" height="48" viewBox="0 0 117 48">
<defs>
<path id="font_1_1" d="M.42799378 .45222474 .43899537 .49023438H.31199647L.34599305 .6092224 .33399964 .6162262 .23699951 .53923037 .22399903 .49023438H.14299011L.13198853 .45222474H.21499634L.125 .08627319C.10998535 .029266358 .12199402-.01171875 .17199707-.01171875 .2519989-.01171875 .31599427 .054275514 .35598756 .1292572L.33399964 .1462555C.31098939 .10726929 .2599945 .040267946 .22898865 .040267946 .20799256 .040267946 .20799256 .0632782 .21398926 .088272098L.30299378 .45222474H.42799378Z"/>
<path id="font_2_3" d="M.07398987 .2861328V.21612549H.31900025V.2861328H.07398987Z"/>
<path id="font_2_7" d="M.12998963 .3657837C.12998963 .3487854 .1349945 .33779908 .147995 .33779908 .1599884 .33779908 .18699646 .34777833 .23498535 .34777833 .31999208 .34777833 .36799623 .27090455 .36799623 .18403626 .36799623 .065216068 .30899049 .023269654 .23799134 .023269654 .17199707 .023269654 .1289978 .07319641 .10998535 .12911988 .10398865 .14808655 .09399414 .15707398 .07998657 .15707398 .06199646 .15707398 .026992798 .13809204 .026992798 .10215759 .026992798 .05921936 .09599304-.01171875 .23699951-.01171875 .38198854-.01171875 .47299195 .06121826 .47299195 .18902588 .47299195 .32281495 .35798646 .3627777 .30299378 .3677826V.3717804C.35699464 .38078309 .44400025 .4207611 .44400025 .5197296 .44400025 .6306915 .35699464 .6796875 .25 .6796875 .117996219 .6796875 .052993776 .60369876 .052993776 .5607147 .052993776 .5297241 .08799744 .51272585 .101989749 .51272585 .114990238 .51272585 .12298584 .5197296 .1269989 .5327301 .14898682 .60069277 .18699646 .64468386 .24299622 .64468386 .32199098 .64468386 .34098817 .57470706 .34098817 .51872256 .34098817 .4587555 .31999208 .38378907 .23498535 .38378907 .18699646 .38378907 .1599884 .39378358 .147995 .39378358 .1349945 .39378358 .12998963 .38378907 .12998963 .3657837Z"/>
<path id="font_2_6" d="M.4850006 .13195801 .45700074 .13696289C.43598939 .08299255 .41600038 .07598877 .37599183 .07598877H.11999512C.13598633 .1279602 .19499207 .19892884 .28799439 .2658844 .38398744 .33584596 .45799256 .38082887 .45799256 .49276734 .45799256 .63168337 .3659973 .6796875 .26098634 .6796875 .12399292 .6796875 .052993776 .5967102 .052993776 .54473879 .052993776 .51075747 .09098816 .49476625 .10798645 .49476625 .12599182 .49476625 .1329956 .50476077 .13699341 .5217438 .15299988 .5897064 .19198609 .64468386 .2539978 .64468386 .33099366 .64468386 .35299684 .5797119 .35299684 .50675967 .35299684 .3998108 .29899598 .33984376 .21199036 .26289369 .08898926 .15594483 .04598999 .08798218 .026992798 .009994507L.036987306 0H.45098878L.4850006 .13195801Z"/>
<path id="font_2_5" d="M.43699647 0V.0289917L.35299684 .035995485C.33198548 .037994386 .31999208 .04598999 .31999208 .08496094V.67367556L.31498719 .6796875 .10899353 .6446991V.6197052L.20199585 .6087036C.21899414 .6067047 .22599793 .5987091 .22599793 .56973269V.08496094C.22599793 .065979007 .22299195 .053985597 .21699524 .04698181 .21199036 .039993287 .20399475 .036987306 .19299317 .035995485L.10899353 .0289917V0H.43699647Z"/>
<path id="font_1_2" d="M.5329895 .48995973C.5039978 .388031 .48799134 .33506776 .46199037 .2741089 .41799928 .173172 .33099366 .040267946 .24798584 .040267946 .21598816 .040267946 .20799256 .070251468 .22299195 .12820435L.31900025 .4970703 .31399537 .50205996 .13198853 .47375489 .12599182 .4497528 .18798828 .44476319C.21199036 .44276429 .21099854 .42778016 .20298767 .39682008L.13398743 .13316345C.11299133 .053253175 .12098694-.01171875 .20098877-.01171875 .29699708-.01171875 .4019928 .09420776 .46199037 .21005249H.46398927L.43099977 .096206668C.4119873 .029266358 .42399598-.01171875 .47698976-.01171875 .548996-.01171875 .60899356 .057250978 .6439972 .13116455L.6199951 .14613343C.59999087 .11218262 .55599978 .040267946 .5279999 .040267946 .5069885 .040267946 .5069885 .06324768 .5149994 .09420776L.621994 .5019531 .5329895 .48995973Z"/>
<path id="font_2_1" d="M.1749878 .2822113C.1749878 .56832888 .2619934 .65437319 .32499696 .66737368V.6923828C.1499939 .685379 .10499573 .46829225 .10499573 .2822113 .10499573 .09614563 .1499939-.12094116 .32499696-.12792969V-.10293579C.2669983-.090927127 .1749878-.0059051516 .1749878 .2822113Z"/>
<path id="font_2_2" d="M.1749878 .2822113C.1749878-.0059051516 .08299255-.090927127 .024993897-.10293579V-.12792969C.19999695-.12094116 .24499512 .09614563 .24499512 .2822113 .24499512 .46829225 .19999695 .685379 .024993897 .6923828V.66737368C.08799744 .65437319 .1749878 .56832888 .1749878 .2822113Z"/>
<path id="font_3_3" d="M.6349945 .14315796V.20117188H.084991458V.14315796H.6349945M.6349945 .36288453V.42089845H.084991458V.36288453H.6349945Z"/>
<path id="font_2_4" d="M.2649994 .64468386C.3600006 .64468386 .3869934 .49682618 .3869934 .33398438 .3869934 .17112732 .3600006 .023269654 .2649994 .023269654 .16999817 .023269654 .14299011 .17112732 .14299011 .33398438 .14299011 .49682618 .16999817 .64468386 .2649994 .64468386M.2649994 .6796875C.099990848 .6796875 .040985109 .53378298 .040985109 .33398438 .040985109 .13417053 .099990848-.01171875 .2649994-.01171875 .42999269-.01171875 .4889984 .13417053 .4889984 .33398438 .4889984 .53378298 .42999269 .6796875 .2649994 .6796875Z"/>
<path id="font_2_12" d="M.18998719 .7480469C.13999939 .7020416 .07199097 .6350403 .07199097 .56404116 .07199097 .5100403 .10398865 .47703553 .13699341 .4780426 .16699219 .4780426 .18499756 .4990387 .18499756 .5260315 .18499756 .56204226 .1519928 .58303835 .1519928 .6200409 .1519928 .6580353 .17599488 .6960449 .20698548 .7320404L.18998719 .7480469M.36999513 .7480469C.31999208 .7020416 .2519989 .6350403 .2519989 .56404116 .2519989 .5100403 .28399659 .47703553 .31698609 .4780426 .34700013 .4780426 .36499024 .4990387 .36499024 .5260315 .36499024 .56204226 .33198548 .58303835 .33198548 .6200409 .33198548 .6580353 .35598756 .6960449 .3869934 .7320404L.36999513 .7480469Z"/>
<path id="font_2_11" d="M.28799439 .5019531C.12799073 .5019531 .04899597 .40698243 .04899597 .24510193 .04899597 .083236698 .12799073-.01171875 .28799439-.01171875 .44999696-.01171875 .5279999 .083236698 .5279999 .24510193 .5279999 .40698243 .44999696 .5019531 .28799439 .5019531M.15299988 .24510193C.15299988 .38301087 .19699097 .46694947 .28799439 .46694947 .3809967 .46694947 .42399598 .38301087 .42399598 .24510193 .42399598 .10720825 .3809967 .023269654 .28799439 .023269654 .19699097 .023269654 .15299988 .10720825 .15299988 .24510193Z"/>
<path id="font_2_9" d="M.20098877 .45022584H.32299806V.49023438H.20098877L.19699097 .60220339C.19400025 .6971741 .22898865 .70718386 .24499512 .70718386 .2659912 .70718386 .28799439 .6971741 .31298829 .6391907 .31799317 .62919619 .32499696 .6221924 .33999635 .6221924 .3600006 .6221924 .3889923 .6391907 .3889923 .66918948 .3889923 .70217898 .34700013 .7421875 .2669983 .7421875 .21199036 .7421875 .16499329 .71717837 .13999939 .67918398 .116989139 .64419558 .10699463 .5912018 .10699463 .5252228V.49023438H.02999878V.45022584H.10699463V.087020877C.10699463 .035995485 .10398865 .033996583 .03199768 .0289917V0H.29599V.0289917C.20498657 .032989503 .20098877 .034988405 .20098877 .08602905V.45022584Z"/>
<path id="font_2_13" d="M.08898926 .47218324C.13899231 .5181732 .20698548 .58517459 .20698548 .6561737 .20698548 .71017459 .1749878 .7431793 .14199829 .7421875 .11199951 .7421875 .09399414 .72117617 .09399414 .69418337 .09399414 .6581726 .1269989 .6371765 .1269989 .60017397 .1269989 .56217959 .102996829 .5241852 .07199097 .48817445L.08898926 .47218324M.2689972 .47218324C.31900025 .5181732 .3869934 .58517459 .3869934 .6561737 .3869934 .71017459 .35499574 .7431793 .32199098 .7421875 .2919922 .7421875 .27398683 .72117617 .27398683 .69418337 .27398683 .6581726 .30699159 .6371765 .30699159 .60017397 .30699159 .56217959 .2829895 .5241852 .2519989 .48817445L.2689972 .47218324Z"/>
<path id="font_2_10" d="M.5289917 .34295655C.5289917 .4439392 .47399903 .5019531 .38198854 .5019531 .30799867 .5019531 .2619934 .46594239 .19999695 .4259491L.18598938 .5019531 .036987306 .47694398V.45195008L.07499695 .4469452C.100997928 .4429474 .10699463 .4379425 .10699463 .40194703V.08699036C.10699463 .035995485 .10398865 .033996583 .03199768 .0289917V0H.27598573V.0289917C.20498657 .033996583 .20098877 .035995485 .20098877 .08699036V.32095338C.20098877 .34596253 .20298767 .35995484 .21099854 .37594605 .23199463 .4149475 .2769928 .44795228 .32998658 .44795228 .397995 .44795228 .43499757 .40994264 .43499757 .32295228V.08699036C.43499757 .035995485 .43199159 .033996583 .3600006 .0289917V0H.60398867V.0289917C.5329895 .033996583 .5289917 .035995485 .5289917 .08699036V.34295655Z"/>
<path id="font_4_1" d="M.37399293-1.7297821C.22898865-1.6407929 .20199585-1.2828217 .20199585-.8598633 .20199585-.4459076 .22599793-.079940799 .37399293 .010040283V.040039064C.16699219-.019958497 .117996219-.34892274 .117996219-.8598633 .117996219-1.3598175 .15899658-1.704773 .37399293-1.7597656V-1.7297821Z"/>
<path id="font_2_8" d="M.42599488 .5919647 .44999696 .6599579 .44499208 .66796877H.11099243L.100997928 .65896609 .08099365 .32388307 .10499573 .31188966C.14698792 .35983277 .18798828 .3828125 .24198914 .3828125 .30599977 .3828125 .37599183 .3358612 .37599183 .20404053 .37599183 .10116577 .33399964 .023269654 .24699402 .023269654 .1769867 .023269654 .14099121 .07420349 .12098694 .13113404 .115997318 .14611817 .10699463 .15510559 .09298706 .15510559 .07299805 .15510559 .039993287 .13513184 .039993287 .10217285 .039993287 .056228639 .10998535-.01171875 .23999024-.01171875 .40499879-.01171875 .47999574 .0881958 .47999574 .21502686 .47999574 .35484315 .3919983 .4268036 .272995 .4268036 .21798706 .4268036 .15899658 .4028015 .1269989 .3738098L.125 .37580873 .147995 .56292727C.15098572 .58795168 .1579895 .5919647 .1769867 .5919647H.42599488Z"/>
<path id="font_1_3" d="M.5069885 .1381836C.48298646 .0932312 .45599366 .040267946 .42799378 .040267946 .40899659 .040267946 .40098573 .06324768 .3789978 .1521759L.34700013 .2830658C.3829956 .34701539 .43399049 .42694093 .46299745 .42694093 .47200013 .42694093 .47999574 .42494203 .4909973 .4189453 .5009918 .4149475 .5109863 .4109497 .522995 .4109497 .54499819 .4109497 .56599429 .4319458 .56599429 .4589386 .56599429 .48994447 .54299929 .5019531 .5149994 .5019531 .46199037 .5019531 .4169922 .45394898 .38198854 .39796449L.33799745 .33003236H.33599855L.29599 .49794007 .2899933 .5019531 .125 .45195008 .12799073 .427948 .20298767 .43295289C.22099304 .4339447 .22799683 .42893983 .23899842 .38298036L.2749939 .2381134 .24699402 .19015503C.20399475 .11723328 .16699219 .0652771 .14299011 .0652771 .1329956 .0652771 .12298584 .0692749 .11399841 .07426453 .10398865 .07926941 .09098816 .089279178 .07398987 .089279178 .04798889 .089279178 .0309906 .0632782 .0309906 .039276124 .0309906 .010269165 .054992677-.01171875 .09498596-.01171875 .16299439-.01171875 .20199585 .056259157 .24299622 .12319946L.2829895 .18914795H.2849884L.30299378 .111206058C.32199098 .031280519 .34098817-.01171875 .3919983-.01171875 .46499635-.01171875 .5029907 .06324768 .5329895 .12420654L.5069885 .1381836Z"/>
<path id="font_3_1" d="M.6349945 .2529297V.31092835H.084991458V.2529297H.6349945Z"/>
<path id="font_4_2" d="M.037994386-1.7597656C.25299073-1.704773 .2939911-1.3598175 .2939911-.8598633 .2939911-.34892274 .24499512-.019958497 .037994386 .040039064V.010040283C.18598938-.079940799 .20999146-.4459076 .20999146-.8598633 .20999146-1.2828217 .18299866-1.6407929 .037994386-1.7297821V-1.7597656Z"/>
<path id="font_3_2" d="M.07998657 .28173829C.07998657 .24674988 .10798645 .21875 .14299011 .21875 .17799378 .21875 .20599365 .24674988 .20599365 .28173829 .20599365 .31674195 .17799378 .34474183 .14299011 .34474183 .10798645 .34474183 .07998657 .31674195 .07998657 .28173829Z"/>
</defs>
<path transform="matrix(1,0,0,-1,58.183,23.778)" d="M-56.69275-22.6771V22.6771H0V-22.6771ZM0 22.6771" fill="#d9d9ec"/>
<path transform="matrix(1,0,0,-1,58.183,23.778)" d="M0-22.6771V22.6771H34.01564V-22.6771ZM34.01564 22.6771" fill="#d9ecd9"/>
<path transform="matrix(1,0,0,-1,58.183,23.778)" d="M34.01564-22.6771V22.6771H56.69275V-22.6771ZM56.69275 22.6771" fill="#ecd9d9"/>
<path transform="matrix(1,0,0,-1,58.183,23.778)" stroke-width=".3985" stroke-linecap="butt" stroke-miterlimit="10" stroke-linejoin="miter" fill="none" stroke="#000000" d="M-56.69275 0H56.23447"/>
<path transform="matrix(1,0,0,-1,114.417469,23.778)" stroke-width=".31879" stroke-linecap="round" stroke-linejoin="round" fill="none" stroke="#000000" d="M-1.19551 1.59401C-1.09587 .99626 0 .09961 .29886 0 0-.09961-1.09587-.99626-1.19551-1.59401"/>
<path transform="matrix(1,0,0,-1,58.183,23.778)" stroke-width=".3985" stroke-linecap="butt" stroke-miterlimit="10" stroke-linejoin="miter" fill="none" stroke="#000000" d="M0-22.6771V22.21881"/>
<path transform="matrix(0,-1,-1,-0,58.183,1.5591908)" stroke-width=".31879" stroke-linecap="round" stroke-linejoin="round" fill="none" stroke="#000000" d="M-1.19551 1.59401C-1.09587 .99626 0 .09961 .29886 0 0-.09961-1.09587-.99626-1.19551-1.59401"/>
<use data-text="t" xlink:href="#font_1_1" transform="matrix(7.3325,0,0,-7.3325,112.179,31.696)"/>
<path transform="matrix(1,0,0,-1,58.183,23.778)" stroke-width=".3985" stroke-linecap="butt" stroke-miterlimit="10" stroke-linejoin="miter" fill="none" stroke="#929292" d="M-34.01564 1.13391V-1.13391"/>
<use data-text="-" xlink:href="#font_2_3" transform="matrix(7.3325,0,0,-7.3325,20.783997,32.994)"/>
<use data-text="3" xlink:href="#font_2_7" transform="matrix(7.3325,0,0,-7.3325,23.65834,32.994)"/>
<path transform="matrix(1,0,0,-1,58.183,23.778)" stroke-width=".3985" stroke-linecap="butt" stroke-miterlimit="10" stroke-linejoin="miter" fill="none" stroke="#929292" d="M-22.6771 1.13391V-1.13391"/>
<use data-text="-" xlink:href="#font_2_3" transform="matrix(7.3325,0,0,-7.3325,32.123,32.994)"/>
<use data-text="2" xlink:href="#font_2_6" transform="matrix(7.3325,0,0,-7.3325,34.997346,32.994)"/>
<path transform="matrix(1,0,0,-1,58.183,23.778)" stroke-width=".3985" stroke-linecap="butt" stroke-miterlimit="10" stroke-linejoin="miter" fill="none" stroke="#929292" d="M-11.33855 1.13391V-1.13391"/>
<use data-text="-" xlink:href="#font_2_3" transform="matrix(7.3325,0,0,-7.3325,43.461,32.994)"/>
<use data-text="1" xlink:href="#font_2_5" transform="matrix(7.3325,0,0,-7.3325,46.335344,32.994)"/>
<path transform="matrix(1,0,0,-1,58.183,23.778)" stroke-width=".3985" stroke-linecap="butt" stroke-miterlimit="10" stroke-linejoin="miter" fill="none" stroke="#929292" d="M11.33855 1.13391V-1.13391"/>
<use data-text="1" xlink:href="#font_2_5" transform="matrix(7.3325,0,0,-7.3325,67.576999,32.994)"/>
<path transform="matrix(1,0,0,-1,58.183,23.778)" stroke-width=".3985" stroke-linecap="butt" stroke-miterlimit="10" stroke-linejoin="miter" fill="none" stroke="#929292" d="M22.6771 1.13391V-1.13391"/>
<use data-text="2" xlink:href="#font_2_6" transform="matrix(7.3325,0,0,-7.3325,78.915,32.994)"/>
<path transform="matrix(1,0,0,-1,58.183,23.778)" stroke-width=".3985" stroke-linecap="butt" stroke-miterlimit="10" stroke-linejoin="miter" fill="none" stroke="#929292" d="M34.01564 1.13391V-1.13391"/>
<use data-text="3" xlink:href="#font_2_7" transform="matrix(7.3325,0,0,-7.3325,90.254,32.994)"/>
<path transform="matrix(1,0,0,-1,58.183,23.778)" stroke-width="1.19553" stroke-linecap="butt" stroke-miterlimit="10" stroke-linejoin="miter" fill="none" stroke="#000080" d="M-56.69275 0H-56.12698-55.56123-54.99547-54.42973-53.86398-53.29823-52.73248-52.16673-51.60098-51.03522-50.46947-49.90372-49.33797-48.77223-48.20647-47.64072-47.07497-46.50922-45.94347-45.37772-44.81198-44.24622-43.68047-43.1147-42.54897-41.9832-41.41747-40.8517-40.28595-39.72021-39.15445-38.5887-38.02295-37.4572-36.89145-36.3257-35.75993-35.1942-34.62845-34.0627-33.49695-32.93118-32.36545-31.79968-31.23393-30.66818-30.10243-29.5367-28.97093-28.40518-27.83943-27.27368-26.70793-26.14218-25.57643-25.01068-24.44493-23.87917-23.31343-22.74767-22.18193-21.61617-21.05042-20.48468-19.91891-19.35316-18.78741-18.22166-17.65591-17.09016-16.5244-15.95866-15.39291-14.82716-14.26141-13.69565-13.12991-12.56415-11.9984-11.43266-10.8669-10.30116-9.7354-9.16965-8.60388-8.03815-7.47238-6.90665-6.3409-5.77515-5.2094-4.64363-4.0779-3.51213-2.9464-2.38063-1.81488-1.24913-.68338"/>
<path transform="matrix(1,0,0,-1,58.183,23.778)" stroke-width=".79701" stroke-linecap="butt" stroke-dasharray="2.98883,2.98883" stroke-miterlimit="10" stroke-linejoin="miter" fill="none" stroke="#8080bf" d="M-56.69275 .07628-56.12698 .08026-55.56123 .08424-54.99547 .08856-54.42973 .09325-53.86398 .09792-53.29823 .10292-52.73248 .10829-52.16673 .11331-51.60098 .119-51.03522 .12473-50.46947 .13147-49.90372 .13823-49.33797 .14514-48.77223 .15292-48.20647 .16089-47.64072 .16884-47.07497 .17801-46.50922 .18701-45.94347 .196-45.37772 .2062-44.81198 .21762-44.24622 .22784-43.68047 .2403-43.1147 .25276-42.54897 .26521-41.9832 .27887-41.41747 .2936-40.8517 .30829-40.28595 .3242-39.72021 .34134-39.15445 .35829-38.5887 .37645-38.02295 .39568-37.4572 .41608-36.89145 .4377-36.3257 .46037-35.75993 .48303-35.1942 .50795-34.62845 .53407-34.0627 .56123-33.49695 .59082-32.93118 .62024-32.36545 .65207-31.79968 .68597-31.23393 .72127-30.66818 .75743-30.10243 .79723-29.5367 .83806-28.97093 .87993-28.40518 .92543-27.83943 .973-27.27368 1.02283-26.70793 1.07507-26.14218 1.13063-25.57643 1.1884-25.01068 1.24861-24.44493 1.31316-23.87917 1.3801-23.31343 1.45052-22.74767 1.52527-22.18193 1.60242-21.61617 1.68512-21.05042 1.77147-20.48468 1.8621-19.91891 1.95744-19.35316 2.05728-18.78741 2.16264-18.22166 2.2739-17.65591 2.38945-17.09016 2.51195-16.5244 2.64015-15.95866 2.77512-15.39291 2.91801-14.82716 3.06662-14.26141 3.22424-13.69565 3.38861-13.12991 3.56213-12.56415 3.74483-11.9984 3.93654-11.43266 4.13722-10.8669 4.34933-10.30116 4.57149-9.7354 4.80524-9.16965 5.05125-8.60388 5.3099-8.03815 5.58205-7.47238 5.86667-6.90665 6.16736-6.3409 6.48259-5.77515 6.81494-5.2094 7.16304-4.64363 7.52931-4.0779 7.91496-3.51213 8.31981-2.9464 8.74525-2.38063 9.19318-1.81488 9.66377-1.24913 10.15825-.68338 10.6778"/>
<path transform="matrix(1,0,0,-1,58.183,23.778)" stroke-width=".79701" stroke-linecap="butt" stroke-dasharray="2.98883,2.98883" stroke-miterlimit="10" stroke-linejoin="miter" fill="none" stroke="#8080bf" d="M0 11.33855H.57248 1.14497 1.71748 2.28998 2.86247 3.43497 4.00746 4.57997 5.15248 5.72496 6.29747 6.86996 7.44246 8.01497 8.58745 9.15996 9.73247 10.30496 10.87744 11.44995 12.02245 12.59496 13.16745 13.73994 14.31244 14.88495 15.45744 16.02995 16.60243 17.17493 17.74744 18.31995 18.89244 19.46494 20.03743 20.60992 21.18243 21.75491 22.32742 22.89993 23.47243 24.04492 24.61742 25.18991 25.76242 26.33492 26.90742 27.4799 28.05241 28.62491 29.19742 29.7699 30.34239 30.9149 31.48741 32.0599 32.6324 33.2049 33.77739 34.3499 34.9224 35.49489 36.06738 36.6399 37.21239 37.7849 38.35738 38.92989 39.50238 40.07487 40.64737 41.21988 41.79237 42.36488 42.93738 43.50986 44.08237 44.65488 45.22737 45.79988 46.37236 46.94485 47.51736 48.08986 48.66237 49.23485 49.80736 50.37985 50.95236 51.52484 52.09735 52.66985 53.24234 53.81485 54.38734 54.95984 55.53235 56.10484 56.67734"/>
<path transform="matrix(1,0,0,-1,58.183,23.778)" d="M1.19551 11.33855C1.19551 11.99881 .66026 12.53406 0 12.53406-.66026 12.53406-1.19551 11.99881-1.19551 11.33855-1.19551 10.67827-.66026 10.14302 0 10.14302 .66026 10.14302 1.19551 10.67827 1.19551 11.33855ZM0 11.33855" fill="#008000"/>
<path transform="matrix(1,0,0,-1,58.183,23.778)" stroke-width=".79701" stroke-linecap="butt" stroke-miterlimit="10" stroke-linejoin="miter" fill="none" stroke="#000080" d="M1.19551 0C1.19551 .66026 .66026 1.19551 0 1.19551-.66026 1.19551-1.19551 .66026-1.19551 0-1.19551-.66026-.66026-1.19551 0-1.19551 .66026-1.19551 1.19551-.66026 1.19551 0ZM0 0"/>
<use data-text="u" xlink:href="#font_1_2" transform="matrix(7.3325,0,0,-7.3325,17.134995,7.988)" fill="#000080"/>
<use data-text="(" xlink:href="#font_2_1" transform="matrix(7.3325,0,0,-7.3325,22.069,7.988)" fill="#000080"/>
<use data-text="t" xlink:href="#font_1_1" transform="matrix(7.3325,0,0,-7.3325,24.794007,7.988)" fill="#000080"/>
<use data-text=")" xlink:href="#font_2_2" transform="matrix(7.3325,0,0,-7.3325,28.078003,7.988)" fill="#000080"/>
<use data-text="=" xlink:href="#font_3_3" transform="matrix(7.3325,0,0,-7.3325,32.007997,7.988)" fill="#000080"/>
<use data-text="0" xlink:href="#font_2_4" transform="matrix(7.3325,0,0,-7.3325,38.647996,7.988)" fill="#000080"/>
<use data-text="u" xlink:href="#font_1_2" transform="matrix(7.3325,0,0,-7.3325,73.828,7.988)" fill="#008000"/>
<use data-text="(" xlink:href="#font_2_1" transform="matrix(7.3325,0,0,-7.3325,78.76201,7.988)" fill="#008000"/>
<use data-text="t" xlink:href="#font_1_1" transform="matrix(7.3325,0,0,-7.3325,81.487018,7.988)" fill="#008000"/>
<use data-text=")" xlink:href="#font_2_2" transform="matrix(7.3325,0,0,-7.3325,84.77101,7.988)" fill="#008000"/>
<use data-text="=" xlink:href="#font_3_3" transform="matrix(7.3325,0,0,-7.3325,88.701007,7.988)" fill="#008000"/>
<use data-text="1" xlink:href="#font_2_5" transform="matrix(7.3325,0,0,-7.3325,95.341,7.988)" fill="#008000"/>
<use data-text="&#x201c;" xlink:href="#font_2_12" transform="matrix(7.3325,0,0,-7.3325,22.085999,43.016)" fill="#000080"/>
<use data-text="o" xlink:href="#font_2_11" transform="matrix(7.3325,0,0,-7.3325,24.857682,43.016)" fill="#000080"/>
<use data-text="f" xlink:href="#font_2_9" transform="matrix(7.3325,0,0,-7.3325,29.088532,43.016)" fill="#000080"/>
<use data-text="f" xlink:href="#font_2_9" transform="matrix(7.3325,0,0,-7.3325,31.427597,43.016)" fill="#000080"/>
<use data-text="&#x201d;" xlink:href="#font_2_13" transform="matrix(7.3325,0,0,-7.3325,34.228609,43.016)" fill="#000080"/>
<use data-text="&#x201c;" xlink:href="#font_2_12" transform="matrix(7.3325,0,0,-7.3325,79.38,43.016)" fill="#008000"/>
<use data-text="o" xlink:href="#font_2_11" transform="matrix(7.3325,0,0,-7.3325,82.15168,43.016)" fill="#008000"/>
<use data-text="n" xlink:href="#font_2_10" transform="matrix(7.3325,0,0,-7.3325,86.38253,43.016)" fill="#008000"/>
<use data-text="&#x201d;" xlink:href="#font_2_13" transform="matrix(7.3325,0,0,-7.3325,90.327419,43.016)" fill="#008000"/>
<use data-text="(" xlink:href="#font_4_1" transform="matrix(7.3325,0,0,-7.3325,23.350998,8.401)"/>
<use data-text="1" xlink:href="#font_2_5" transform="matrix(6.2326,0,0,-6.2326,27.567994,13.6310009)"/>
<path transform="matrix(1,0,0,-1,-100.832,6.993)" stroke-width=".4253" stroke-linecap="butt" stroke-miterlimit="10" stroke-linejoin="miter" fill="none" stroke="#000000" d="M128.4-7.714H131.706"/>
<use data-text="5" xlink:href="#font_2_8" transform="matrix(6.2326,0,0,-6.2326,27.567994,19.521)"/>
<use data-text="x" xlink:href="#font_1_3" transform="matrix(7.3325,0,0,-7.3325,32.227998,16.771)"/>
<use data-text="2" xlink:href="#font_2_6" transform="matrix(6.2326,0,0,-6.2326,36.524003,13.878)"/>
<use data-text="&#x2212;" xlink:href="#font_3_1" transform="matrix(7.3325,0,0,-7.3325,41.30301,16.771)"/>
<use data-text="1" xlink:href="#font_2_5" transform="matrix(7.3325,0,0,-7.3325,47.55301,16.771)"/>
<use data-text=")" xlink:href="#font_4_2" transform="matrix(7.3325,0,0,-7.3325,51.442018,8.401)"/>
<use data-text="(" xlink:href="#font_4_1" transform="matrix(7.3325,0,0,-7.3325,57.366998,8.401)"/>
<use data-text="1" xlink:href="#font_2_5" transform="matrix(6.2326,0,0,-6.2326,61.583993,13.6310009)"/>
<path transform="matrix(1,0,0,-1,-66.816,6.993)" stroke-width=".4253" stroke-linecap="butt" stroke-miterlimit="10" stroke-linejoin="miter" fill="none" stroke="#000000" d="M128.4-7.714H131.706"/>
<use data-text="5" xlink:href="#font_2_8" transform="matrix(6.2326,0,0,-6.2326,61.583993,19.521)"/>
<use data-text="x" xlink:href="#font_1_3" transform="matrix(7.3325,0,0,-7.3325,66.243999,16.771)"/>
<use data-text="2" xlink:href="#font_2_6" transform="matrix(6.2326,0,0,-6.2326,70.54,13.878)"/>
<use data-text="&#x2212;" xlink:href="#font_3_1" transform="matrix(7.3325,0,0,-7.3325,75.31901,16.771)"/>
<use data-text="1" xlink:href="#font_2_5" transform="matrix(7.3325,0,0,-7.3325,81.56901,16.771)"/>
<use data-text=")" xlink:href="#font_4_2" transform="matrix(7.3325,0,0,-7.3325,85.458019,8.401)"/>
<use data-text="&#x00b7;" xlink:href="#font_3_2" transform="matrix(7.3325,0,0,-7.3325,47.281,16.915)" fill="#000080"/>
<use data-text="0" xlink:href="#font_2_4" transform="matrix(7.3325,0,0,-7.3325,49.321,16.915)" fill="#000080"/>
<use data-text="&#x00b7;" xlink:href="#font_3_2" transform="matrix(7.3325,0,0,-7.3325,81.297,16.935)" fill="#008000"/>
<use data-text="1" xlink:href="#font_2_5" transform="matrix(7.3325,0,0,-7.3325,83.337,16.935)" fill="#008000"/>
<path transform="matrix(1,0,0,-1,58.183,23.778)" stroke-width=".3985" stroke-linecap="butt" stroke-miterlimit="10" stroke-linejoin="miter" fill="none" stroke="#000000" d="M-17.00781 5.66925V1.02522"/>
<path transform="matrix(0,1,1,0,41.175188,22.752779)" stroke-width=".31879" stroke-linecap="round" stroke-linejoin="round" fill="none" stroke="#000000" d="M-1.19551 1.59401C-1.09587 .99626 0 .09961 .29886 0 0-.09961-1.09587-.99626-1.19551-1.59401"/>
<path transform="matrix(1,0,0,-1,58.183,23.778)" stroke-width=".3985" stroke-linecap="butt" stroke-miterlimit="10" stroke-linejoin="miter" fill="none" stroke="#000000" d="M15.87389 6.23622 18.5919-4.09216"/>
<path transform="matrix(.25447,.96704,.96704,-.25447,76.7749,27.87016)" stroke-width=".31879" stroke-linecap="round" stroke-linejoin="round" fill="none" stroke="#000000" d="M-1.19551 1.59401C-1.09587 .99626 0 .09961 .29886 0 0-.09961-1.09587-.99626-1.19551-1.59401"/>
</svg>
