<svg xmlns="http://www.w3.org/2000/svg" xmlns:xlink="http://www.w3.org/1999/xlink" version="1.1" width="286" height="35" viewBox="0 0 286 35">
<defs>
<path id="font_1_2" d="M.42799378 .45222474 .43899537 .49023438H.31199647L.34599305 .6092224 .33399964 .6162262 .23699951 .53923037 .22399903 .49023438H.14299011L.13198853 .45222474H.21499634L.125 .08627319C.10998535 .029266358 .12199402-.01171875 .17199707-.01171875 .2519989-.01171875 .31599427 .054275514 .35598756 .1292572L.33399964 .1462555C.31098939 .10726929 .2599945 .040267946 .22898865 .040267946 .20799256 .040267946 .20799256 .0632782 .21398926 .088272098L.30299378 .45222474H.42799378Z"/>
<path id="font_2_2" d="M.2649994 .64468386C.3600006 .64468386 .3869934 .49682618 .3869934 .33398438 .3869934 .17112732 .3600006 .023269654 .2649994 .023269654 .16999817 .023269654 .14299011 .17112732 .14299011 .33398438 .14299011 .49682618 .16999817 .64468386 .2649994 .64468386M.2649994 .6796875C.099990848 .6796875 .040985109 .53378298 .040985109 .33398438 .040985109 .13417053 .099990848-.01171875 .2649994-.01171875 .42999269-.01171875 .4889984 .13417053 .4889984 .33398438 .4889984 .53378298 .42999269 .6796875 .2649994 .6796875Z"/>
<path id="font_1_1" d="M.35198976 .7371979 .34700013 .7421875 .16699219 .71824648 .16099549 .6953125 .21798706 .68829348C.24299622 .6852875 .24699402 .67826846 .23799134 .63920596L.09199524-.01171875 .1789856 .0002746582C.20599365 .10221863 .22099304 .15718079 .24598694 .22012329 .27598573 .2980652 .375 .44995118 .46199037 .44995118 .49398805 .44995118 .5059967 .42097474 .49398805 .38000489L.4119873 .096221927C.3929901 .030273438 .40699769-.01171875 .46398927-.01171875 .5329895-.01171875 .58898928 .056259157 .6230011 .13220215L.598999 .14619446C.58099368 .11122131 .5369873 .040267946 .5089874 .040267946 .4889984 .040267946 .4889984 .06324768 .49899293 .0952301L.5779877 .35702516C.60198977 .43595887 .58898928 .5019531 .5079956 .5019531 .41299439 .5019531 .30699159 .39898683 .24299622 .27908326H.23999024L.35198976 .7371979Z"/>
<path id="font_2_1" d="M.1329956-.01171875C.17199707-.01171875 .19499207 .015274048 .19599915 .05126953 .19599915 .088272098 .17199707 .11627197 .1329956 .11627197 .09498596 .11627197 .069992069 .088272098 .069992069 .05126953 .069992069 .015274048 .09498596-.01171875 .1329956-.01171875Z"/>
<path id="font_2_7" d="M.42599488 .5919647 .44999696 .6599579 .44499208 .66796877H.11099243L.100997928 .65896609 .08099365 .32388307 .10499573 .31188966C.14698792 .35983277 .18798828 .3828125 .24198914 .3828125 .30599977 .3828125 .37599183 .3358612 .37599183 .20404053 .37599183 .10116577 .33399964 .023269654 .24699402 .023269654 .1769867 .023269654 .14099121 .07420349 .12098694 .13113404 .115997318 .14611817 .10699463 .15510559 .09298706 .15510559 .07299805 .15510559 .039993287 .13513184 .039993287 .10217285 .039993287 .056228639 .10998535-.01171875 .23999024-.01171875 .40499879-.01171875 .47999574 .0881958 .47999574 .21502686 .47999574 .35484315 .3919983 .4268036 .272995 .4268036 .21798706 .4268036 .15899658 .4028015 .1269989 .3738098L.125 .37580873 .147995 .56292727C.15098572 .58795168 .1579895 .5919647 .1769867 .5919647H.42599488Z"/>
<path id="font_2_3" d="M.43699647 0V.0289917L.35299684 .035995485C.33198548 .037994386 .31999208 .04598999 .31999208 .08496094V.67367556L.31498719 .6796875 .10899353 .6446991V.6197052L.20199585 .6087036C.21899414 .6067047 .22599793 .5987091 .22599793 .56973269V.08496094C.22599793 .065979007 .22299195 .053985597 .21699524 .04698181 .21199036 .039993287 .20399475 .036987306 .19299317 .035995485L.10899353 .0289917V0H.43699647Z"/>
<path id="font_2_4" d="M.4850006 .13195801 .45700074 .13696289C.43598939 .08299255 .41600038 .07598877 .37599183 .07598877H.11999512C.13598633 .1279602 .19499207 .19892884 .28799439 .2658844 .38398744 .33584596 .45799256 .38082887 .45799256 .49276734 .45799256 .63168337 .3659973 .6796875 .26098634 .6796875 .12399292 .6796875 .052993776 .5967102 .052993776 .54473879 .052993776 .51075747 .09098816 .49476625 .10798645 .49476625 .12599182 .49476625 .1329956 .50476077 .13699341 .5217438 .15299988 .5897064 .19198609 .64468386 .2539978 .64468386 .33099366 .64468386 .35299684 .5797119 .35299684 .50675967 .35299684 .3998108 .29899598 .33984376 .21199036 .26289369 .08898926 .15594483 .04598999 .08798218 .026992798 .009994507L.036987306 0H.45098878L.4850006 .13195801Z"/>
<path id="font_2_5" d="M.12998963 .3657837C.12998963 .3487854 .1349945 .33779908 .147995 .33779908 .1599884 .33779908 .18699646 .34777833 .23498535 .34777833 .31999208 .34777833 .36799623 .27090455 .36799623 .18403626 .36799623 .065216068 .30899049 .023269654 .23799134 .023269654 .17199707 .023269654 .1289978 .07319641 .10998535 .12911988 .10398865 .14808655 .09399414 .15707398 .07998657 .15707398 .06199646 .15707398 .026992798 .13809204 .026992798 .10215759 .026992798 .05921936 .09599304-.01171875 .23699951-.01171875 .38198854-.01171875 .47299195 .06121826 .47299195 .18902588 .47299195 .32281495 .35798646 .3627777 .30299378 .3677826V.3717804C.35699464 .38078309 .44400025 .4207611 .44400025 .5197296 .44400025 .6306915 .35699464 .6796875 .25 .6796875 .117996219 .6796875 .052993776 .60369876 .052993776 .5607147 .052993776 .5297241 .08799744 .51272585 .101989749 .51272585 .114990238 .51272585 .12298584 .5197296 .1269989 .5327301 .14898682 .60069277 .18699646 .64468386 .24299622 .64468386 .32199098 .64468386 .34098817 .57470706 .34098817 .51872256 .34098817 .4587555 .31999208 .38378907 .23498535 .38378907 .18699646 .38378907 .1599884 .39378358 .147995 .39378358 .1349945 .39378358 .12998963 .38378907 .12998963 .3657837Z"/>
<path id="font_2_6" d="M.2999878 .17871094V.0769043C.2999878 .04296875 .2889862 .036987306 .2649994 .034988405L.20098877 .0289917V0H.46499635V.0289917L.41999818 .033981325C.39698792 .036987306 .3899994 .04296875 .3899994 .0769043V.17871094H.49299623V.22570801H.3899994V.66796877H.31698609C.22299195 .5298767 .11099243 .35577394 .018997193 .19970703L.027999878 .17871094H.2999878M.09098816 .22570801C.15098572 .33476258 .22099304 .4498291 .2979889 .5709076H.2999878V.22570801H.09098816Z"/>
</defs>
<path transform="matrix(1.00002,0,0,-1.00005,23.769799,13.062003)" stroke-width=".3985" stroke-linecap="butt" stroke-miterlimit="10" stroke-linejoin="miter" fill="none" stroke="#000000" d="M-22.6771 0H260.3327"/>
<path transform="matrix(1.00002,0,0,-1.00005,284.10774,13.062003)" stroke-width=".31879" stroke-linecap="round" stroke-linejoin="round" fill="none" stroke="#000000" d="M-1.19551 1.59401C-1.09587 .99626 0 .09961 .29886 0 0-.09961-1.09587-.99626-1.19551-1.59401"/>
<use data-text="t" xlink:href="#font_1_2" transform="matrix(10.036601,0,0,-10.036901,271.08876,22.64648)"/>
<path transform="matrix(1.00002,0,0,-1.00005,23.769799,13.062003)" stroke-width=".79701" stroke-linecap="butt" stroke-miterlimit="10" stroke-linejoin="miter" fill="none" stroke="#929292" d="M0 2.26819V-2.26819"/>
<use data-text="0" xlink:href="#font_2_2" transform="matrix(9.165783,0,0,-9.166058,21.338753,22.59848)"/>
<use data-text="t" xlink:href="#font_1_2" transform="matrix(10.036601,0,0,-10.036901,19.736718,7.984749)"/>
<use data-text="0" xlink:href="#font_2_2" transform="matrix(7.6076529,0,0,-7.60788,23.488793,9.621831)"/>
<path transform="matrix(1.00002,0,0,-1.00005,23.769799,13.062003)" stroke-width=".3985" stroke-linecap="butt" stroke-miterlimit="10" stroke-linejoin="miter" fill="none" stroke="#000000" d="M0-11.33939V-20.40883"/>
<path transform="matrix(1.00002,0,0,-1.00005,23.769799,13.062003)" stroke-width=".79701" stroke-linecap="butt" stroke-miterlimit="10" stroke-linejoin="miter" fill="none" stroke="#000000" d="M.70735-15.87408H22.6771"/>
<path transform="matrix(-1.00002,-0,0,1.00005,24.477164,28.936875)" stroke-width=".6376" stroke-linecap="round" stroke-linejoin="round" fill="none" stroke="#000000" d="M-1.55415 2.0722C-1.42464 1.29512 0 .1295 .38852 0 0-.1295-1.42464-1.29512-1.55415-2.0722"/>
<use data-text="h" xlink:href="#font_1_1" transform="matrix(9.165783,0,0,-9.166058,49.088308,32.321966)"/>
<path transform="matrix(1.00002,0,0,-1.00005,23.769799,13.062003)" stroke-width=".79701" stroke-linecap="butt" stroke-miterlimit="10" stroke-linejoin="miter" fill="none" stroke="#000000" d="M34.01648-15.87408H55.98622"/>
<path transform="matrix(1.00002,0,0,-1.00005,79.75714,28.936875)" stroke-width=".6376" stroke-linecap="round" stroke-linejoin="round" fill="none" stroke="#000000" d="M-1.55415 2.0722C-1.42464 1.29512 0 .1295 .38852 0 0-.1295-1.42464-1.29512-1.55415-2.0722"/>
<path transform="matrix(1.00002,0,0,-1.00005,23.769799,13.062003)" stroke-width=".79701" stroke-linecap="butt" stroke-miterlimit="10" stroke-linejoin="miter" fill="none" stroke="#929292" d="M56.69359 2.26819V-2.26819"/>
<use data-text="0" xlink:href="#font_2_2" transform="matrix(9.165783,0,0,-9.166058,74.38681,22.59848)"/>
<use data-text="." xlink:href="#font_2_1" transform="matrix(9.165783,0,0,-9.166058,79.244678,22.59848)"/>
<use data-text="5" xlink:href="#font_2_7" transform="matrix(9.165783,0,0,-9.166058,81.673618,22.59848)"/>
<use data-text="t" xlink:href="#font_1_2" transform="matrix(10.036601,0,0,-10.036901,76.43085,8.0267519)"/>
<use data-text="1" xlink:href="#font_2_3" transform="matrix(7.6076529,0,0,-7.60788,80.18292,9.663834)"/>
<path transform="matrix(1.00002,0,0,-1.00005,23.769799,13.062003)" stroke-width=".3985" stroke-linecap="butt" stroke-miterlimit="10" stroke-linejoin="miter" fill="none" stroke="#000000" d="M56.69359-11.33939V-20.40883"/>
<path transform="matrix(1.00002,0,0,-1.00005,23.769799,13.062003)" stroke-width=".79701" stroke-linecap="butt" stroke-miterlimit="10" stroke-linejoin="miter" fill="none" stroke="#000000" d="M57.40094-15.87408H79.37068"/>
<path transform="matrix(-1.00002,-0,0,1.00005,81.17189,28.936875)" stroke-width=".6376" stroke-linecap="round" stroke-linejoin="round" fill="none" stroke="#000000" d="M-1.55415 2.0722C-1.42464 1.29512 0 .1295 .38852 0 0-.1295-1.42464-1.29512-1.55415-2.0722"/>
<use data-text="h" xlink:href="#font_1_1" transform="matrix(9.165783,0,0,-9.166058,105.78344,32.321966)"/>
<path transform="matrix(1.00002,0,0,-1.00005,23.769799,13.062003)" stroke-width=".79701" stroke-linecap="butt" stroke-miterlimit="10" stroke-linejoin="miter" fill="none" stroke="#000000" d="M90.71008-15.87408H112.67987"/>
<path transform="matrix(1.00002,0,0,-1.00005,136.45194,28.936875)" stroke-width=".6376" stroke-linecap="round" stroke-linejoin="round" fill="none" stroke="#000000" d="M-1.55415 2.0722C-1.42464 1.29512 0 .1295 .38852 0 0-.1295-1.42464-1.29512-1.55415-2.0722"/>
<path transform="matrix(1.00002,0,0,-1.00005,23.769799,13.062003)" stroke-width=".79701" stroke-linecap="butt" stroke-miterlimit="10" stroke-linejoin="miter" fill="none" stroke="#929292" d="M113.38724 2.26819V-2.26819"/>
<use data-text="1" xlink:href="#font_2_3" transform="matrix(9.165783,0,0,-9.166058,134.72803,22.59848)"/>
<use data-text="t" xlink:href="#font_1_2" transform="matrix(10.036601,0,0,-10.036901,133.12598,8.0267519)"/>
<use data-text="2" xlink:href="#font_2_4" transform="matrix(7.6076529,0,0,-7.60788,136.87805,9.663834)"/>
<path transform="matrix(1.00002,0,0,-1.00005,23.769799,13.062003)" stroke-width=".3985" stroke-linecap="butt" stroke-miterlimit="10" stroke-linejoin="miter" fill="none" stroke="#000000" d="M113.38724-11.33939V-20.40883"/>
<path transform="matrix(1.00002,0,0,-1.00005,23.769799,13.062003)" stroke-width=".79701" stroke-linecap="butt" stroke-miterlimit="10" stroke-linejoin="miter" fill="none" stroke="#000000" d="M114.09459-15.87408H136.06433"/>
<path transform="matrix(-1.00002,-0,0,1.00005,137.86667,28.936875)" stroke-width=".6376" stroke-linecap="round" stroke-linejoin="round" fill="none" stroke="#000000" d="M-1.55415 2.0722C-1.42464 1.29512 0 .1295 .38852 0 0-.1295-1.42464-1.29512-1.55415-2.0722"/>
<use data-text="h" xlink:href="#font_1_1" transform="matrix(9.165783,0,0,-9.166058,162.47757,32.321966)"/>
<path transform="matrix(1.00002,0,0,-1.00005,23.769799,13.062003)" stroke-width=".79701" stroke-linecap="butt" stroke-miterlimit="10" stroke-linejoin="miter" fill="none" stroke="#000000" d="M147.40373-15.87408H169.37346"/>
<path transform="matrix(1.00002,0,0,-1.00005,193.14664,28.936875)" stroke-width=".6376" stroke-linecap="round" stroke-linejoin="round" fill="none" stroke="#000000" d="M-1.55415 2.0722C-1.42464 1.29512 0 .1295 .38852 0 0-.1295-1.42464-1.29512-1.55415-2.0722"/>
<path transform="matrix(1.00002,0,0,-1.00005,23.769799,13.062003)" stroke-width=".79701" stroke-linecap="butt" stroke-miterlimit="10" stroke-linejoin="miter" fill="none" stroke="#929292" d="M170.08083 2.26819V-2.26819"/>
<use data-text="1" xlink:href="#font_2_3" transform="matrix(9.165783,0,0,-9.166058,187.77707,22.59848)"/>
<use data-text="." xlink:href="#font_2_1" transform="matrix(9.165783,0,0,-9.166058,192.63494,22.59848)"/>
<use data-text="5" xlink:href="#font_2_7" transform="matrix(9.165783,0,0,-9.166058,195.06388,22.59848)"/>
<use data-text="t" xlink:href="#font_1_2" transform="matrix(10.036601,0,0,-10.036901,189.82112,7.984749)"/>
<use data-text="3" xlink:href="#font_2_5" transform="matrix(7.6076529,0,0,-7.60788,193.5732,9.621831)"/>
<path transform="matrix(1.00002,0,0,-1.00005,23.769799,13.062003)" stroke-width=".3985" stroke-linecap="butt" stroke-miterlimit="10" stroke-linejoin="miter" fill="none" stroke="#000000" d="M170.08083-11.33939V-20.40883"/>
<path transform="matrix(1.00002,0,0,-1.00005,23.769799,13.062003)" stroke-width=".79701" stroke-linecap="butt" stroke-miterlimit="10" stroke-linejoin="miter" fill="none" stroke="#000000" d="M170.78818-15.87408H192.75792"/>
<path transform="matrix(-1.00002,-0,0,1.00005,194.5614,28.936875)" stroke-width=".6376" stroke-linecap="round" stroke-linejoin="round" fill="none" stroke="#000000" d="M-1.55415 2.0722C-1.42464 1.29512 0 .1295 .38852 0 0-.1295-1.42464-1.29512-1.55415-2.0722"/>
<use data-text="h" xlink:href="#font_1_1" transform="matrix(9.165783,0,0,-9.166058,219.17272,32.321966)"/>
<path transform="matrix(1.00002,0,0,-1.00005,23.769799,13.062003)" stroke-width=".79701" stroke-linecap="butt" stroke-miterlimit="10" stroke-linejoin="miter" fill="none" stroke="#000000" d="M204.09732-15.87408H226.06711"/>
<path transform="matrix(1.00002,0,0,-1.00005,249.84143,28.936875)" stroke-width=".6376" stroke-linecap="round" stroke-linejoin="round" fill="none" stroke="#000000" d="M-1.55415 2.0722C-1.42464 1.29512 0 .1295 .38852 0 0-.1295-1.42464-1.29512-1.55415-2.0722"/>
<path transform="matrix(1.00002,0,0,-1.00005,23.769799,13.062003)" stroke-width=".79701" stroke-linecap="butt" stroke-miterlimit="10" stroke-linejoin="miter" fill="none" stroke="#929292" d="M226.77448 2.26819V-2.26819"/>
<use data-text="2" xlink:href="#font_2_4" transform="matrix(9.165783,0,0,-9.166058,248.11827,22.59848)"/>
<use data-text="t" xlink:href="#font_1_2" transform="matrix(10.036601,0,0,-10.036901,246.51526,8.0267519)"/>
<use data-text="4" xlink:href="#font_2_6" transform="matrix(7.6076529,0,0,-7.60788,250.26734,9.663834)"/>
</svg>
