<svg xmlns="http://www.w3.org/2000/svg" xmlns:xlink="http://www.w3.org/1999/xlink" version="1.1" width="203" height="118" viewBox="0 0 203 118">
<defs>
<path id="font_1_1" d="M.42799378 .45222474 .43899537 .49023438H.31199647L.34599305 .6092224 .33399964 .6162262 .23699951 .53923037 .22399903 .49023438H.14299011L.13198853 .45222474H.21499634L.125 .08627319C.10998535 .029266358 .12199402-.01171875 .17199707-.01171875 .2519989-.01171875 .31599427 .054275514 .35598756 .1292572L.33399964 .1462555C.31098939 .10726929 .2599945 .040267946 .22898865 .040267946 .20799256 .040267946 .20799256 .0632782 .21398926 .088272098L.30299378 .45222474H.42799378Z"/>
<path id="font_1_2" d="M.070999149 .45393373 .07398987 .42893983 .14199829 .43093873C.1639862 .43193055 .16899109 .41493226 .1769867 .36291505 .18798828 .28489686 .20999146 .09286499 .20999146 .0128479 .20999146-.017166138 .20799256-.058166505 .18598938-.11117554 .16799927-.15318299 .14199829-.18218994 .12199402-.18218994 .10699463-.18218994 .09599304-.17118836 .08099365-.15118408 .068984989-.13517761 .06098938-.127182 .04598999-.127182 .019989014-.12818909-.005004883-.15818787-.005004883-.18719483-.005004883-.21418762 .023986817-.2421875 .067993167-.2421875 .15299988-.2421875 .18998719-.17919922 .27799989-.027160645 .2979889 .0068511965 .35798646 .11286926 .41999818 .21488953 .47698976 .30891419 .5399933 .40592958 .5399933 .4459381 .5399933 .48094178 .5289917 .5019531 .5219879 .5019531 .5029907 .5019531 .46899415 .49394227 .44400025 .47694398 .44499208 .4419403 .44299317 .3809204 .43099977 .33891297 .4149933 .28289796 .35598756 .17488098 .2899933 .06085205H.2869873C.27999879 .21388245 .26098634 .42492677 .24699402 .49795533L.23899842 .5019531 .070999149 .45393373Z"/>
<path id="font_2_2" d="M.43699647 0V.0289917L.35299684 .035995485C.33198548 .037994386 .31999208 .04598999 .31999208 .08496094V.67367556L.31498719 .6796875 .10899353 .6446991V.6197052L.20199585 .6087036C.21899414 .6067047 .22599793 .5987091 .22599793 .56973269V.08496094C.22599793 .065979007 .22299195 .053985597 .21699524 .04698181 .21199036 .039993287 .20399475 .036987306 .19299317 .035995485L.10899353 .0289917V0H.43699647Z"/>
<path id="font_2_3" d="M.4850006 .13195801 .45700074 .13696289C.43598939 .08299255 .41600038 .07598877 .37599183 .07598877H.11999512C.13598633 .1279602 .19499207 .19892884 .28799439 .2658844 .38398744 .33584596 .45799256 .38082887 .45799256 .49276734 .45799256 .63168337 .3659973 .6796875 .26098634 .6796875 .12399292 .6796875 .052993776 .5967102 .052993776 .54473879 .052993776 .51075747 .09098816 .49476625 .10798645 .49476625 .12599182 .49476625 .1329956 .50476077 .13699341 .5217438 .15299988 .5897064 .19198609 .64468386 .2539978 .64468386 .33099366 .64468386 .35299684 .5797119 .35299684 .50675967 .35299684 .3998108 .29899598 .33984376 .21199036 .26289369 .08898926 .15594483 .04598999 .08798218 .026992798 .009994507L.036987306 0H.45098878L.4850006 .13195801Z"/>
<path id="font_2_4" d="M.12998963 .3657837C.12998963 .3487854 .1349945 .33779908 .147995 .33779908 .1599884 .33779908 .18699646 .34777833 .23498535 .34777833 .31999208 .34777833 .36799623 .27090455 .36799623 .18403626 .36799623 .065216068 .30899049 .023269654 .23799134 .023269654 .17199707 .023269654 .1289978 .07319641 .10998535 .12911988 .10398865 .14808655 .09399414 .15707398 .07998657 .15707398 .06199646 .15707398 .026992798 .13809204 .026992798 .10215759 .026992798 .05921936 .09599304-.01171875 .23699951-.01171875 .38198854-.01171875 .47299195 .06121826 .47299195 .18902588 .47299195 .32281495 .35798646 .3627777 .30299378 .3677826V.3717804C.35699464 .38078309 .44400025 .4207611 .44400025 .5197296 .44400025 .6306915 .35699464 .6796875 .25 .6796875 .117996219 .6796875 .052993776 .60369876 .052993776 .5607147 .052993776 .5297241 .08799744 .51272585 .101989749 .51272585 .114990238 .51272585 .12298584 .5197296 .1269989 .5327301 .14898682 .60069277 .18699646 .64468386 .24299622 .64468386 .32199098 .64468386 .34098817 .57470706 .34098817 .51872256 .34098817 .4587555 .31999208 .38378907 .23498535 .38378907 .18699646 .38378907 .1599884 .39378358 .147995 .39378358 .1349945 .39378358 .12998963 .38378907 .12998963 .3657837Z"/>
<path id="font_2_7" d="M.18899536 .5019531 .036987306 .47694398V.45195008L.07499695 .4469452C.100997928 .4429474 .10699463 .4379425 .10699463 .40194703V.08699036C.10699463 .035995485 .101989749 .033996583 .03199768 .0289917V0H.29599V.0289917C.20698548 .033996583 .20098877 .035995485 .20098877 .08699036V.32095338C.20098877 .39794923 .23498535 .4239502 .2579956 .4239502 .27398683 .4239502 .29100038 .4179535 .31999208 .40194703 .32699586 .39794923 .33499146 .39694215 .33999635 .39694215 .3639984 .39694215 .38598634 .4219513 .38598634 .4529419 .38598634 .47494508 .37199403 .5019531 .33299256 .5019531 .29699708 .5019531 .2669983 .47994996 .20098877 .4219513L.18899536 .5019531Z"/>
<path id="font_2_6" d="M.036987306 .47694398V.45195008L.07499695 .4469452C.100997928 .4429474 .10699463 .43795777 .10699463 .40194703V.08699036C.10699463 .035995485 .10398865 .033996583 .03199768 .0289917V0H.27598573V.0289917C.20498657 .033996583 .20098877 .035995485 .20098877 .08699036V.49609376L.19400025 .5020752 .036987306 .47694398M.15299988 .71484377C.116989139 .71484377 .09199524 .6888428 .09199524 .65283206 .09199524 .61782839 .116989139 .5928345 .15299988 .5928345 .18998719 .5928345 .21299744 .61782839 .21398926 .65283206 .21398926 .6888428 .18998719 .71484377 .15299988 .71484377Z"/>
<path id="font_2_8" d="M.36698915 .35102845V.46794129C.33399964 .49194337 .2829895 .5019531 .23799134 .5019531 .12998963 .5019531 .056991579 .45095826 .055999757 .35603334 .056991579 .27308656 .12399292 .2361145 .20698548 .21113587 .2519989 .19714356 .31498719 .17416382 .31498719 .10621643 .31498719 .055252077 .2749939 .023269654 .22200012 .023269654 .14099121 .023269654 .09599304 .082229617 .07598877 .16716004H.04699707L.056991579 .03627014C.09298706 .004272461 .1539917-.01171875 .21299744-.01171875 .33198548-.01171875 .3999939 .051254274 .3999939 .13618469 .3999939 .2241211 .34599305 .26409913 .24299622 .29606629 .20199585 .30906678 .13598633 .3300476 .13598633 .3860016 .13699341 .43795777 .17599488 .46694947 .22599793 .46694947 .29699708 .46694947 .33099366 .4119873 .33799745 .35102845H.36698915Z"/>
<path id="font_2_5" d="M.44099427 .2627716C.46199037 .2627716 .48098756 .2677765 .48098756 .30078126 .48098756 .35983277 .46199037 .5019531 .2789917 .5019531 .12298584 .5019531 .04899597 .39086915 .04899597 .24082947 .04899597 .08317566 .116989139-.01373291 .27999879-.01171875 .3909912-.010726929 .44799806 .050247194 .47499085 .1290741L.44499208 .14503479C.4169922 .08717346 .3789978 .039276124 .2999878 .039276124 .17599488 .039276124 .15098572 .15901184 .15299988 .2627716H.44099427M.1539917 .30078126C.1539917 .34181214 .16899109 .46694947 .272995 .46694947 .3659973 .46694947 .3769989 .37184144 .3769989 .33280946 .3769989 .31378175 .37098695 .30078126 .34298707 .30078126H.1539917Z"/>
<path id="font_2_1" d="M.2649994 .64468386C.3600006 .64468386 .3869934 .49682618 .3869934 .33398438 .3869934 .17112732 .3600006 .023269654 .2649994 .023269654 .16999817 .023269654 .14299011 .17112732 .14299011 .33398438 .14299011 .49682618 .16999817 .64468386 .2649994 .64468386M.2649994 .6796875C.099990848 .6796875 .040985109 .53378298 .040985109 .33398438 .040985109 .13417053 .099990848-.01171875 .2649994-.01171875 .42999269-.01171875 .4889984 .13417053 .4889984 .33398438 .4889984 .53378298 .42999269 .6796875 .2649994 .6796875Z"/>
<path id="font_3_1" d="M.6349945 .2529297V.31092835H.084991458V.2529297H.6349945Z"/>
</defs>
<path transform="matrix(1.00002,0,0,-1.00005,23.751259,47.03575)" stroke-width=".3985" stroke-linecap="butt" stroke-miterlimit="10" stroke-linejoin="miter" fill="none" stroke="#cbcbcb" d="M-22.67752 0H169.62258"/>
<path transform="matrix(1.00002,0,0,-1.00005,193.37723,47.03575)" stroke-width=".31879" stroke-linecap="round" stroke-linejoin="round" fill="none" stroke="#cbcbcb" d="M-1.19551 1.59401C-1.09587 .99626 0 .09961 .29886 0 0-.09961-1.09587-.99626-1.19551-1.59401"/>
<use data-text="t" xlink:href="#font_1_1" transform="matrix(10.036601,0,0,-10.036901,191.69663,56.62023)" fill="#cbcbcb"/>
<path transform="matrix(1.00002,0,0,-1.00005,23.751259,47.03575)" stroke-width=".3985" stroke-linecap="butt" stroke-miterlimit="10" stroke-linejoin="miter" fill="none" stroke="#cbcbcb" d="M0-17.00824V42.06192"/>
<path transform="matrix(0,-1.00005,-1.00002,-0,23.751259,4.9717295)" stroke-width=".31879" stroke-linecap="round" stroke-linejoin="round" fill="none" stroke="#cbcbcb" d="M-1.19551 1.59401C-1.09587 .99626 0 .09961 .29886 0 0-.09961-1.09587-.99626-1.19551-1.59401"/>
<use data-text="y" xlink:href="#font_1_2" transform="matrix(10.036601,0,0,-10.036901,14.73307,5.7626917)" fill="#cbcbcb"/>
<path transform="matrix(1.00002,0,0,-1.00005,23.751259,47.03575)" stroke-width=".3985" stroke-linecap="butt" stroke-miterlimit="10" stroke-linejoin="miter" fill="none" stroke="#000000" d="M28.3468 0"/>
<use data-text="1" xlink:href="#font_2_2" transform="matrix(10.036601,0,0,-10.036901,49.436777,57.15526)"/>
<path transform="matrix(1.00002,0,0,-1.00005,23.751259,47.03575)" stroke-width=".3985" stroke-linecap="butt" stroke-miterlimit="10" stroke-linejoin="miter" fill="none" stroke="#000000" d="M56.69362 0"/>
<use data-text="2" xlink:href="#font_2_3" transform="matrix(10.036601,0,0,-10.036901,77.78435,57.15526)"/>
<path transform="matrix(1.00002,0,0,-1.00005,23.751259,47.03575)" stroke-width=".3985" stroke-linecap="butt" stroke-miterlimit="10" stroke-linejoin="miter" fill="none" stroke="#000000" d="M85.04042 0"/>
<use data-text="3" xlink:href="#font_2_4" transform="matrix(10.036601,0,0,-10.036901,106.131908,57.15526)"/>
<path transform="matrix(1.00002,0,0,-1.00005,23.751259,47.03575)" stroke-width=".3985" stroke-linecap="butt" stroke-miterlimit="10" stroke-linejoin="miter" fill="none" stroke="#000000" d="M0-56.69362V-28.80508"/>
<path transform="matrix(0,-1.00005,-1.00002,-0,23.751259,75.84227)" stroke-width=".31879" stroke-linecap="round" stroke-linejoin="round" fill="none" stroke="#000000" d="M-1.19551 1.59401C-1.09587 .99626 0 .09961 .29886 0 0-.09961-1.09587-.99626-1.19551-1.59401"/>
<use data-text="r" xlink:href="#font_2_7" transform="matrix(10.036601,0,0,-10.036901,3.9118653,78.90735)"/>
<use data-text="i" xlink:href="#font_2_6" transform="matrix(10.036601,0,0,-10.036901,7.8863527,78.90735)"/>
<use data-text="s" xlink:href="#font_2_8" transform="matrix(10.036601,0,0,-10.036901,10.8170399,78.90735)"/>
<use data-text="e" xlink:href="#font_2_5" transform="matrix(10.036601,0,0,-10.036901,15.193001,78.90735)"/>
<path transform="matrix(1.00002,0,0,-1.00005,23.751259,47.03575)" stroke-width=".3985" stroke-linecap="butt" stroke-miterlimit="10" stroke-linejoin="miter" fill="none" stroke="#000000" d="M0-28.3468H56.23534"/>
<path transform="matrix(1.00002,0,0,-1.00005,79.987728,75.383968)" stroke-width=".31879" stroke-linecap="round" stroke-linejoin="round" fill="none" stroke="#000000" d="M-1.19551 1.59401C-1.09587 .99626 0 .09961 .29886 0 0-.09961-1.09587-.99626-1.19551-1.59401"/>
<use data-text="r" xlink:href="#font_2_7" transform="matrix(10.036601,0,0,-10.036901,72.22623,71.92999)"/>
<use data-text="i" xlink:href="#font_2_6" transform="matrix(10.036601,0,0,-10.036901,76.200717,71.92999)"/>
<use data-text="s" xlink:href="#font_2_8" transform="matrix(10.036601,0,0,-10.036901,79.1314,71.92999)"/>
<use data-text="e" xlink:href="#font_2_5" transform="matrix(10.036601,0,0,-10.036901,83.50736,71.92999)"/>
<path transform="matrix(1.00002,0,0,-1.00005,23.751259,47.03575)" d="M1.99255-56.69362C1.99255-55.59314 1.10046-54.70107 0-54.70107-1.10046-54.70107-1.99255-55.59314-1.99255-56.69362-1.99255-57.79408-1.10046-58.68617 0-58.68617 1.10046-58.68617 1.99255-57.79408 1.99255-56.69362ZM0-56.69362" fill="#ccccff"/>
<path transform="matrix(1.00002,0,0,-1.00005,23.751259,47.03575)" stroke-width=".3985" stroke-linecap="butt" stroke-miterlimit="10" stroke-linejoin="miter" fill="none" stroke="#000000" d="M1.99255-56.69362C1.99255-55.59314 1.10046-54.70107 0-54.70107-1.10046-54.70107-1.99255-55.59314-1.99255-56.69362-1.99255-57.79408-1.10046-58.68617 0-58.68617 1.10046-58.68617 1.99255-57.79408 1.99255-56.69362ZM0-56.69362"/>
<path transform="matrix(1.00002,0,0,-1.00005,23.751259,47.03575)" stroke-width=".3985" stroke-linecap="butt" stroke-miterlimit="10" stroke-linejoin="miter" fill="none" stroke="#000000" d="M0 0"/>
<use data-text="0" xlink:href="#font_2_1" transform="matrix(10.036601,0,0,-10.036901,21.089203,57.15526)"/>
<path transform="matrix(1.00002,0,0,-1.00005,23.751259,47.03575)" stroke-width=".3985" stroke-linecap="butt" stroke-miterlimit="10" stroke-linejoin="miter" fill="none" stroke="#000000" d="M2.83484-56.69362H-2.83484"/>
<use data-text="&#x2212;" xlink:href="#font_3_1" transform="matrix(10.036601,0,0,-10.036901,4.9718859,107.09276)"/>
<use data-text="2" xlink:href="#font_2_3" transform="matrix(10.036601,0,0,-10.036901,12.194031,107.09276)"/>
<path transform="matrix(1.00002,0,0,-1.00005,23.751259,47.03575)" stroke-width=".3985" stroke-linecap="butt" stroke-miterlimit="10" stroke-linejoin="miter" fill="none" stroke="#000000" d="M56.69362-28.3468V-.45827"/>
<path transform="matrix(0,-1.00005,-1.00002,-0,80.446018,47.494047)" stroke-width=".31879" stroke-linecap="round" stroke-linejoin="round" fill="none" stroke="#000000" d="M-1.19551 1.59401C-1.09587 .99626 0 .09961 .29886 0 0-.09961-1.09587-.99626-1.19551-1.59401"/>
<use data-text="r" xlink:href="#font_2_7" transform="matrix(10.036601,0,0,-10.036901,60.606996,50.55993)"/>
<use data-text="i" xlink:href="#font_2_6" transform="matrix(10.036601,0,0,-10.036901,64.58148,50.55993)"/>
<use data-text="s" xlink:href="#font_2_8" transform="matrix(10.036601,0,0,-10.036901,67.51217,50.55993)"/>
<use data-text="e" xlink:href="#font_2_5" transform="matrix(10.036601,0,0,-10.036901,71.88813,50.55993)"/>
<path transform="matrix(1.00002,0,0,-1.00005,23.751259,47.03575)" stroke-width=".3985" stroke-linecap="butt" stroke-miterlimit="10" stroke-linejoin="miter" fill="none" stroke="#000000" d="M56.69362 0H112.92896"/>
<path transform="matrix(1.00002,0,0,-1.00005,136.68248,47.03575)" stroke-width=".31879" stroke-linecap="round" stroke-linejoin="round" fill="none" stroke="#000000" d="M-1.19551 1.59401C-1.09587 .99626 0 .09961 .29886 0 0-.09961-1.09587-.99626-1.19551-1.59401"/>
<use data-text="r" xlink:href="#font_2_7" transform="matrix(10.036601,0,0,-10.036901,128.92037,43.58258)"/>
<use data-text="i" xlink:href="#font_2_6" transform="matrix(10.036601,0,0,-10.036901,132.89485,43.58258)"/>
<use data-text="s" xlink:href="#font_2_8" transform="matrix(10.036601,0,0,-10.036901,135.82553,43.58258)"/>
<use data-text="e" xlink:href="#font_2_5" transform="matrix(10.036601,0,0,-10.036901,140.2015,43.58258)"/>
<path transform="matrix(1.00002,0,0,-1.00005,23.751259,47.03575)" d="M58.68617-28.3468C58.68617-27.24634 57.79408-26.35425 56.69362-26.35425 55.59314-26.35425 54.70107-27.24634 54.70107-28.3468 54.70107-29.44728 55.59314-30.33936 56.69362-30.33936 57.79408-30.33936 58.68617-29.44728 58.68617-28.3468ZM56.69362-28.3468" fill="#ccccff"/>
<path transform="matrix(1.00002,0,0,-1.00005,23.751259,47.03575)" stroke-width=".3985" stroke-linecap="butt" stroke-miterlimit="10" stroke-linejoin="miter" fill="none" stroke="#000000" d="M58.68617-28.3468C58.68617-27.24634 57.79408-26.35425 56.69362-26.35425 55.59314-26.35425 54.70107-27.24634 54.70107-28.3468 54.70107-29.44728 55.59314-30.33936 56.69362-30.33936 57.79408-30.33936 58.68617-29.44728 58.68617-28.3468ZM56.69362-28.3468"/>
<path transform="matrix(1.00002,0,0,-1.00005,23.751259,47.03575)" stroke-width=".3985" stroke-linecap="butt" stroke-miterlimit="10" stroke-linejoin="miter" fill="none" stroke="#000000" d="M56.69362 0"/>
<use data-text="1" xlink:href="#font_2_2" transform="matrix(10.036601,0,0,-10.036901,77.78435,57.15526)"/>
<path transform="matrix(1.00002,0,0,-1.00005,23.751259,47.03575)" stroke-width=".3985" stroke-linecap="butt" stroke-miterlimit="10" stroke-linejoin="miter" fill="none" stroke="#000000" d="M2.83484-28.3468H-2.83484"/>
<use data-text="&#x2212;" xlink:href="#font_3_1" transform="matrix(10.036601,0,0,-10.036901,4.9718859,78.74434)"/>
<use data-text="1" xlink:href="#font_2_2" transform="matrix(10.036601,0,0,-10.036901,12.194031,78.74434)"/>
<path transform="matrix(1.00002,0,0,-1.00005,23.751259,47.03575)" stroke-width=".3985" stroke-linecap="butt" stroke-miterlimit="10" stroke-linejoin="miter" fill="none" stroke="#000000" d="M113.38724 0V27.88852"/>
<path transform="matrix(0,-1.00005,-1.00002,-0,137.14078,19.14584)" stroke-width=".31879" stroke-linecap="round" stroke-linejoin="round" fill="none" stroke="#000000" d="M-1.19551 1.59401C-1.09587 .99626 0 .09961 .29886 0 0-.09961-1.09587-.99626-1.19551-1.59401"/>
<use data-text="r" xlink:href="#font_2_7" transform="matrix(10.036601,0,0,-10.036901,117.30113,22.211512)"/>
<use data-text="i" xlink:href="#font_2_6" transform="matrix(10.036601,0,0,-10.036901,121.27562,22.211512)"/>
<use data-text="s" xlink:href="#font_2_8" transform="matrix(10.036601,0,0,-10.036901,124.20631,22.211512)"/>
<use data-text="e" xlink:href="#font_2_5" transform="matrix(10.036601,0,0,-10.036901,128.58228,22.211512)"/>
<path transform="matrix(1.00002,0,0,-1.00005,23.751259,47.03575)" stroke-width=".3985" stroke-linecap="butt" stroke-miterlimit="10" stroke-linejoin="miter" fill="none" stroke="#000000" d="M113.38724 28.3468H169.62258"/>
<path transform="matrix(1.00002,0,0,-1.00005,193.37723,18.687537)" stroke-width=".31879" stroke-linecap="round" stroke-linejoin="round" fill="none" stroke="#000000" d="M-1.19551 1.59401C-1.09587 .99626 0 .09961 .29886 0 0-.09961-1.09587-.99626-1.19551-1.59401"/>
<use data-text="r" xlink:href="#font_2_7" transform="matrix(10.036601,0,0,-10.036901,185.61548,15.234163)"/>
<use data-text="i" xlink:href="#font_2_6" transform="matrix(10.036601,0,0,-10.036901,189.58997,15.234163)"/>
<use data-text="s" xlink:href="#font_2_8" transform="matrix(10.036601,0,0,-10.036901,192.52066,15.234163)"/>
<use data-text="e" xlink:href="#font_2_5" transform="matrix(10.036601,0,0,-10.036901,196.89662,15.234163)"/>
<path transform="matrix(1.00002,0,0,-1.00005,23.751259,47.03575)" d="M115.37979 0C115.37979 1.10046 114.4877 1.99255 113.38724 1.99255 112.28676 1.99255 111.39468 1.10046 111.39468 0 111.39468-1.10046 112.28676-1.99255 113.38724-1.99255 114.4877-1.99255 115.37979-1.10046 115.37979 0ZM113.38724 0" fill="#ccccff"/>
<path transform="matrix(1.00002,0,0,-1.00005,23.751259,47.03575)" stroke-width=".3985" stroke-linecap="butt" stroke-miterlimit="10" stroke-linejoin="miter" fill="none" stroke="#000000" d="M115.37979 0C115.37979 1.10046 114.4877 1.99255 113.38724 1.99255 112.28676 1.99255 111.39468 1.10046 111.39468 0 111.39468-1.10046 112.28676-1.99255 113.38724-1.99255 114.4877-1.99255 115.37979-1.10046 115.37979 0ZM113.38724 0"/>
<path transform="matrix(1.00002,0,0,-1.00005,23.751259,47.03575)" stroke-width=".3985" stroke-linecap="butt" stroke-miterlimit="10" stroke-linejoin="miter" fill="none" stroke="#000000" d="M113.38724 0"/>
<use data-text="2" xlink:href="#font_2_3" transform="matrix(10.036601,0,0,-10.036901,134.47849,57.15526)"/>
<path transform="matrix(1.00002,0,0,-1.00005,23.751259,47.03575)" stroke-width=".3985" stroke-linecap="butt" stroke-miterlimit="10" stroke-linejoin="miter" fill="none" stroke="#000000" d="M2.83484 0H-2.83484"/>
<use data-text="0" xlink:href="#font_2_1" transform="matrix(10.036601,0,0,-10.036901,12.194031,50.36892)"/>
<path transform="matrix(1.00002,0,0,-1.00005,23.751259,47.03575)" stroke-width="1.19553" stroke-linecap="butt" stroke-miterlimit="10" stroke-linejoin="miter" fill="none" stroke="#000000" d="M-21.82214-67.60448-14.64615-64.01646-6.61478-60.0008 1.41655-55.98553 9.44792-51.96985 17.47928-47.95418 25.51065-43.93849 33.542-39.9228 41.57338-35.90712 49.60474-31.89145 57.63611-27.87575 65.66748-23.86008 73.69884-19.84439 81.73021-15.82872 89.76157-11.81302 97.79294-7.79735 105.8243-3.78166 113.85567 .23398 121.88702 4.24968 129.9184 8.26535 137.94976 12.28104 145.98113 16.29672 154.0125 20.31241 162.04386 24.32808 169.21987 27.91609"/>
<path transform="matrix(-.89437797,.4471923,.44717894,.89440467,1.9286919,114.64361)" stroke-width=".9564" stroke-linecap="round" stroke-linejoin="round" fill="none" stroke="#000000" d="M-1.91284 2.55046C-1.75343 1.59402 0 .15938 .4782 0 0-.15938-1.75343-1.59402-1.91284-2.55046"/>
<path transform="matrix(.89437797,-.4471923,-.44717894,-.89440467,192.97449,19.118268)" stroke-width=".9564" stroke-linecap="round" stroke-linejoin="round" fill="none" stroke="#000000" d="M-1.91284 2.55046C-1.75343 1.59402 0 .15938 .4782 0 0-.15938-1.75343-1.59402-1.91284-2.55046"/>
</svg>
