<svg xmlns="http://www.w3.org/2000/svg" xmlns:xlink="http://www.w3.org/1999/xlink" version="1.1" width="147" height="53" viewBox="0 0 147 53">
<defs>
<path id="font_1_3" d="M.42799378 .45222474 .43899537 .49023438H.31199647L.34599305 .6092224 .33399964 .6162262 .23699951 .53923037 .22399903 .49023438H.14299011L.13198853 .45222474H.21499634L.125 .08627319C.10998535 .029266358 .12199402-.01171875 .17199707-.01171875 .2519989-.01171875 .31599427 .054275514 .35598756 .1292572L.33399964 .1462555C.31098939 .10726929 .2599945 .040267946 .22898865 .040267946 .20799256 .040267946 .20799256 .0632782 .21398926 .088272098L.30299378 .45222474H.42799378Z"/>
<path id="font_2_4" d="M.43699647 0V.0289917L.35299684 .035995485C.33198548 .037994386 .31999208 .04598999 .31999208 .08496094V.67367556L.31498719 .6796875 .10899353 .6446991V.6197052L.20199585 .6087036C.21899414 .6067047 .22599793 .5987091 .22599793 .56973269V.08496094C.22599793 .065979007 .22299195 .053985597 .21699524 .04698181 .21199036 .039993287 .20399475 .036987306 .19299317 .035995485L.10899353 .0289917V0H.43699647Z"/>
<path id="font_2_5" d="M.4850006 .13195801 .45700074 .13696289C.43598939 .08299255 .41600038 .07598877 .37599183 .07598877H.11999512C.13598633 .1279602 .19499207 .19892884 .28799439 .2658844 .38398744 .33584596 .45799256 .38082887 .45799256 .49276734 .45799256 .63168337 .3659973 .6796875 .26098634 .6796875 .12399292 .6796875 .052993776 .5967102 .052993776 .54473879 .052993776 .51075747 .09098816 .49476625 .10798645 .49476625 .12599182 .49476625 .1329956 .50476077 .13699341 .5217438 .15299988 .5897064 .19198609 .64468386 .2539978 .64468386 .33099366 .64468386 .35299684 .5797119 .35299684 .50675967 .35299684 .3998108 .29899598 .33984376 .21199036 .26289369 .08898926 .15594483 .04598999 .08798218 .026992798 .009994507L.036987306 0H.45098878L.4850006 .13195801Z"/>
<path id="font_2_6" d="M.12998963 .3657837C.12998963 .3487854 .1349945 .33779908 .147995 .33779908 .1599884 .33779908 .18699646 .34777833 .23498535 .34777833 .31999208 .34777833 .36799623 .27090455 .36799623 .18403626 .36799623 .065216068 .30899049 .023269654 .23799134 .023269654 .17199707 .023269654 .1289978 .07319641 .10998535 .12911988 .10398865 .14808655 .09399414 .15707398 .07998657 .15707398 .06199646 .15707398 .026992798 .13809204 .026992798 .10215759 .026992798 .05921936 .09599304-.01171875 .23699951-.01171875 .38198854-.01171875 .47299195 .06121826 .47299195 .18902588 .47299195 .32281495 .35798646 .3627777 .30299378 .3677826V.3717804C.35699464 .38078309 .44400025 .4207611 .44400025 .5197296 .44400025 .6306915 .35699464 .6796875 .25 .6796875 .117996219 .6796875 .052993776 .60369876 .052993776 .5607147 .052993776 .5297241 .08799744 .51272585 .101989749 .51272585 .114990238 .51272585 .12298584 .5197296 .1269989 .5327301 .14898682 .60069277 .18699646 .64468386 .24299622 .64468386 .32199098 .64468386 .34098817 .57470706 .34098817 .51872256 .34098817 .4587555 .31999208 .38378907 .23498535 .38378907 .18699646 .38378907 .1599884 .39378358 .147995 .39378358 .1349945 .39378358 .12998963 .38378907 .12998963 .3657837Z"/>
<path id="font_2_7" d="M.2999878 .17871094V.0769043C.2999878 .04296875 .2889862 .036987306 .2649994 .034988405L.20098877 .0289917V0H.46499635V.0289917L.41999818 .033981325C.39698792 .036987306 .3899994 .04296875 .3899994 .0769043V.17871094H.49299623V.22570801H.3899994V.66796877H.31698609C.22299195 .5298767 .11099243 .35577394 .018997193 .19970703L.027999878 .17871094H.2999878M.09098816 .22570801C.15098572 .33476258 .22099304 .4498291 .2979889 .5709076H.2999878V.22570801H.09098816Z"/>
<path id="font_2_8" d="M.42599488 .5919647 .44999696 .6599579 .44499208 .66796877H.11099243L.100997928 .65896609 .08099365 .32388307 .10499573 .31188966C.14698792 .35983277 .18798828 .3828125 .24198914 .3828125 .30599977 .3828125 .37599183 .3358612 .37599183 .20404053 .37599183 .10116577 .33399964 .023269654 .24699402 .023269654 .1769867 .023269654 .14099121 .07420349 .12098694 .13113404 .115997318 .14611817 .10699463 .15510559 .09298706 .15510559 .07299805 .15510559 .039993287 .13513184 .039993287 .10217285 .039993287 .056228639 .10998535-.01171875 .23999024-.01171875 .40499879-.01171875 .47999574 .0881958 .47999574 .21502686 .47999574 .35484315 .3919983 .4268036 .272995 .4268036 .21798706 .4268036 .15899658 .4028015 .1269989 .3738098L.125 .37580873 .147995 .56292727C.15098572 .58795168 .1579895 .5919647 .1769867 .5919647H.42599488Z"/>
<path id="font_2_9" d="M.27198792-.01171875C.41999818-.01171875 .49899293 .07821655 .49899293 .2140503 .49899293 .3488922 .4119873 .42385865 .30799867 .421875 .23199463 .42385865 .17199707 .36886598 .14498902 .33590699H.14299011C.14399719 .5557556 .20698548 .64468386 .29699708 .64468386 .34298707 .64468386 .375 .6057129 .3899994 .5487671 .3929901 .5367737 .40098573 .527771 .41600038 .527771 .43798829 .527771 .46899415 .5447693 .46899415 .57273867 .46899415 .6127014 .41999818 .6796875 .2999878 .6796875 .22099304 .6796875 .16499329 .64967349 .12298584 .6017151 .07798767 .5497589 .04399109 .45384217 .04399109 .3089447 .04399109 .093185428 .12199402-.01171875 .27198792-.01171875M.27398683 .37086488C.33699037 .37086488 .39898683 .31393434 .39898683 .19906616 .39898683 .094192508 .35798646 .023269654 .27398683 .023269654 .18699646 .023269654 .14498902 .11616516 .14498902 .23602295 .14498902 .2969513 .18998719 .37086488 .27398683 .37086488Z"/>
<path id="font_2_10" d="M.07199097 .66796877 .040985109 .5279999H.067993167L.07798767 .5489807C.09098816 .57696536 .10398865 .5919647 .14898682 .5919647H.4189911C.40899659 .5559845 .3909912 .4980011 .30999757 .38206483 .22399903 .25914 .16699219 .14718628 .16699219 .029251099 .16699219-.0037231446 .18998719-.01171875 .22099304-.01171875 .25-.01171875 .2709961-.0027313233 .269989 .026260376 .2649994 .15818787 .2919922 .26412965 .34498597 .35708619 .40899659 .46905519 .46199037 .5310211 .49699403 .65696719L.48799134 .66796877H.07199097Z"/>
<path id="font_2_11" d="M.2649994 .3380127C.34498597 .3380127 .3880005 .2700653 .3880005 .17915344 .3880005 .09121704 .34999085 .023269654 .2649994 .023269654 .18199158 .023269654 .14199829 .09121704 .14199829 .17915344 .14199829 .2700653 .18598938 .3380127 .2649994 .3380127M.2649994-.01171875C.4269867-.01171875 .48799134 .081222537 .48799134 .18214417 .48799134 .28405763 .42399598 .3420105 .35598756 .35801698V.36102296C.4169922 .37701417 .46598817 .427948 .46598817 .5098419 .46598817 .6187134 .3809967 .6796875 .2649994 .6796875 .15098572 .6796875 .06399536 .61772158 .06399536 .5098419 .06399536 .427948 .11399841 .37701417 .17399597 .36102296V.35801698C.10699463 .3420105 .041992189 .28405763 .041992189 .18214417 .041992189 .081222537 .101989749-.01171875 .2649994-.01171875M.2649994 .37402345C.19299317 .37402345 .16099549 .44392396 .16099549 .5118408 .16099549 .5887451 .19699097 .64468386 .2649994 .64468386 .33299256 .64468386 .36698915 .5887451 .36898805 .5118408 .36898805 .44392396 .33799745 .37402345 .2649994 .37402345Z"/>
<path id="font_2_12" d="M.22898865 .26757813C.29100038 .26757813 .34298707 .30256654 .3769989 .35157777H.3789978C.3789978 .28857423 .37399293 .20774842 .35598756 .13894654 .33799745 .073135379 .30299378 .023269654 .23899842 .023269654 .17098999 .023269654 .1459961 .0761261 .1309967 .12298584 .1269989 .13595581 .11999512 .1439209 .102996829 .1439209 .083999637 .1439209 .055999757 .12397766 .055999757 .09307861 .055999757 .049194337 .10899353-.01171875 .22999573-.01171875 .31098939-.01171875 .37298585 .01828003 .41099549 .071136478 .45199586 .12797547 .47698976 .2157135 .47698976 .36058045 .47698976 .48461915 .45199586 .56565859 .41299439 .6126709 .375 .6576843 .31999208 .6796875 .2559967 .6796875 .12799073 .6796875 .035995485 .5946655 .035995485 .45661927 .035995485 .3315735 .12599182 .26757813 .22898865 .26757813M.25898744 .3205719C.18099976 .3205719 .13598633 .38859559 .13598633 .48461915 .13598633 .57666018 .1769867 .64468386 .25498963 .64468386 .33499146 .64468386 .37399293 .5496521 .37399293 .45262147 .37399293 .4356079 .37298585 .41560365 .36698915 .39959718 .35099793 .35258485 .31199647 .3205719 .25898744 .3205719Z"/>
<path id="font_1_4" d="M.5329895 .48995973C.5039978 .388031 .48799134 .33506776 .46199037 .2741089 .41799928 .173172 .33099366 .040267946 .24798584 .040267946 .21598816 .040267946 .20799256 .070251468 .22299195 .12820435L.31900025 .4970703 .31399537 .50205996 .13198853 .47375489 .12599182 .4497528 .18798828 .44476319C.21199036 .44276429 .21099854 .42778016 .20298767 .39682008L.13398743 .13316345C.11299133 .053253175 .12098694-.01171875 .20098877-.01171875 .29699708-.01171875 .4019928 .09420776 .46199037 .21005249H.46398927L.43099977 .096206668C.4119873 .029266358 .42399598-.01171875 .47698976-.01171875 .548996-.01171875 .60899356 .057250978 .6439972 .13116455L.6199951 .14613343C.59999087 .11218262 .55599978 .040267946 .5279999 .040267946 .5069885 .040267946 .5069885 .06324768 .5149994 .09420776L.621994 .5019531 .5329895 .48995973Z"/>
<path id="font_1_1" d="M.42799378 .15419007C.3939972 .10821533 .33499146 .03727722 .2679901 .03727722 .19499207 .03727722 .17999268 .097229007 .17999268 .16816712 .17999268 .29808045 .25498963 .46694947 .34700013 .46694947 .3789978 .46694947 .40098573 .44696046 .40699769 .38700868 .40899659 .36901856 .41799928 .35702516 .43598939 .35702516 .45999146 .35702516 .5 .38002015 .5 .41299439 .5 .46394349 .44599916 .5019531 .37098695 .5019531 .19299317 .5019531 .08099365 .31207276 .08099365 .14819336 .08099365 .026275635 .1539917-.01171875 .22399903-.01171875 .2979889-.01171875 .3829956 .02027893 .45199586 .13519287L.42799378 .15419007Z"/>
<path id="font_2_1" d="M.1749878 .2822113C.1749878 .56832888 .2619934 .65437319 .32499696 .66737368V.6923828C.1499939 .685379 .10499573 .46829225 .10499573 .2822113 .10499573 .09614563 .1499939-.12094116 .32499696-.12792969V-.10293579C.2669983-.090927127 .1749878-.0059051516 .1749878 .2822113Z"/>
<path id="font_2_2" d="M.1749878 .2822113C.1749878-.0059051516 .08299255-.090927127 .024993897-.10293579V-.12792969C.19999695-.12094116 .24499512 .09614563 .24499512 .2822113 .24499512 .46829225 .19999695 .685379 .024993897 .6923828V.66737368C.08799744 .65437319 .1749878 .56832888 .1749878 .2822113Z"/>
<path id="font_3_1" d="M.6349945 .2529297V.31092835H.084991458V.2529297H.6349945Z"/>
<path id="font_1_2" d="M.17098999 .112213138C.17098999 .22013855 .2579956 .46694947 .41799928 .46694947 .44898988 .46694947 .47499085 .45794679 .4869995 .44696046 .47200013 .37002564 .43899537 .27609254 .3880005 .19316101 .33999635 .115219119 .27398683 .040267946 .22099304 .040267946 .18899536 .040267946 .17098999 .06724548 .17098999 .112213138M.46398927 .71824648 .45799256 .6953125 .5179901 .68930056C.5419922 .6872864 .5439911 .6802826 .5359955 .6482239L.49798585 .48693849 .49598695 .48493959C.47698976 .49494935 .44599916 .5019531 .4119873 .5019531 .1789856 .5019531 .07199097 .24111939 .07199097 .12020874 .07199097 .055267335 .09098816-.01171875 .17199707-.01171875 .2869873-.01171875 .37599183 .11122131 .43499757 .21813965H.43699647L.4039917 .099227908C.38398744 .028274537 .39898683-.01272583 .44999696-.01171875 .522995-.01171875 .57899478 .056259157 .61299136 .13220215L.58898928 .14619446C.57099917 .11122131 .5269928 .040267946 .49899293 .040267946 .47898866 .040267946 .48098756 .06326294 .4889984 .0952301L.6469879 .7371979 .6419983 .7421875 .46398927 .71824648Z"/>
<path id="font_4_3" d="M.48199464 .11999512H.3999939C.23098755 .11999512 .037994386 .21897888 .015991211 .33398438H-.010009766V.29197694C-.010009766 .09599304 .23699951 0 .3999939 0H.48199464V.11999512Z"/>
<path id="font_4_2" d="M-.03201294 0H.049987794C.21899414 0 .4119873-.09895325 .43399049-.21386719H.45999146V-.17190552C.45999146 .023986817 .21299744 .11999512 .049987794 .11999512H-.03201294V0Z"/>
<path id="font_4_1" d="M.48199464 .11999512H.3999939C.23699951 .11999512-.010009766 .023986817-.010009766-.17190552V-.21386719H.015991211C.037994386-.09895325 .23098755 0 .3999939 0H.48199464V.11999512Z"/>
<path id="font_4_4" d="M-.03201294 0H.049987794C.21299744 0 .45999146 .09599304 .45999146 .29197694V.33398438H.43399049C.4119873 .21897888 .21899414 .11999512 .049987794 .11999512H-.03201294V0Z"/>
<path id="font_2_3" d="M.2649994 .64468386C.3600006 .64468386 .3869934 .49682618 .3869934 .33398438 .3869934 .17112732 .3600006 .023269654 .2649994 .023269654 .16999817 .023269654 .14299011 .17112732 .14299011 .33398438 .14299011 .49682618 .16999817 .64468386 .2649994 .64468386M.2649994 .6796875C.099990848 .6796875 .040985109 .53378298 .040985109 .33398438 .040985109 .13417053 .099990848-.01171875 .2649994-.01171875 .42999269-.01171875 .4889984 .13417053 .4889984 .33398438 .4889984 .53378298 .42999269 .6796875 .2649994 .6796875Z"/>
<path id="font_3_2" d="M.6349945 .14315796V.20117188H.084991458V.14315796H.6349945M.6349945 .36288453V.42089845H.084991458V.36288453H.6349945Z"/>
</defs>
<path transform="matrix(1,0,0,-1.00003,8.963997,37.718744)" stroke-width=".19925" stroke-linecap="butt" stroke-dasharray="2.98883,2.98883" stroke-miterlimit="10" stroke-linejoin="miter" fill="none" stroke="#000000" d="M85.04042-14.17339V25.51215"/>
<path transform="matrix(1,0,0,-1.00003,8.963997,37.718744)" stroke-width=".19925" stroke-linecap="butt" stroke-dasharray="2.98883,2.98883" stroke-miterlimit="10" stroke-linejoin="miter" fill="none" stroke="#000000" d="M42.5202-14.17339V25.51215"/>
<path transform="matrix(1,0,0,-1.00003,8.963997,37.718744)" stroke-width=".3985" stroke-linecap="butt" stroke-miterlimit="10" stroke-linejoin="miter" fill="none" stroke="#000000" d="M-7.08669 0H134.18906"/>
<path transform="matrix(1,0,0,-1.00003,143.15305,37.718744)" stroke-width=".31879" stroke-linecap="round" stroke-linejoin="round" fill="none" stroke="#000000" d="M-1.19551 1.59401C-1.09587 .99626 0 .09961 .29886 0 0-.09961-1.09587-.99626-1.19551-1.59401"/>
<path transform="matrix(1,0,0,-1.00003,8.963997,37.718744)" stroke-width=".3985" stroke-linecap="butt" stroke-miterlimit="10" stroke-linejoin="miter" fill="none" stroke="#000000" d="M0-14.17339V25.05388"/>
<path transform="matrix(0,-1.00003,-1,-0,8.963997,12.664108)" stroke-width=".31879" stroke-linecap="round" stroke-linejoin="round" fill="none" stroke="#000000" d="M-1.19551 1.59401C-1.09587 .99626 0 .09961 .29886 0 0-.09961-1.09587-.99626-1.19551-1.59401"/>
<use data-text="t" xlink:href="#font_1_3" transform="matrix(7.3325,0,0,-7.3327205,140.631,45.63698)"/>
<path transform="matrix(1,0,0,-1.00003,8.963997,37.718744)" stroke-width=".3985" stroke-linecap="butt" stroke-miterlimit="10" stroke-linejoin="miter" fill="none" stroke="#929292" d="M14.17339 1.4174V-1.4174"/>
<use data-text="1" xlink:href="#font_2_4" transform="matrix(7.3325,0,0,-7.3327205,21.192997,47.161027)"/>
<path transform="matrix(1,0,0,-1.00003,8.963997,37.718744)" stroke-width=".3985" stroke-linecap="butt" stroke-miterlimit="10" stroke-linejoin="miter" fill="none" stroke="#929292" d="M28.3468 1.4174V-1.4174"/>
<use data-text="2" xlink:href="#font_2_5" transform="matrix(7.3325,0,0,-7.3327205,35.365999,47.161027)"/>
<path transform="matrix(1,0,0,-1.00003,8.963997,37.718744)" stroke-width=".3985" stroke-linecap="butt" stroke-miterlimit="10" stroke-linejoin="miter" fill="none" stroke="#929292" d="M42.5202 1.4174V-1.4174"/>
<use data-text="3" xlink:href="#font_2_6" transform="matrix(7.3325,0,0,-7.3327205,49.538999,47.161027)"/>
<path transform="matrix(1,0,0,-1.00003,8.963997,37.718744)" stroke-width=".3985" stroke-linecap="butt" stroke-miterlimit="10" stroke-linejoin="miter" fill="none" stroke="#929292" d="M56.69362 1.4174V-1.4174"/>
<use data-text="4" xlink:href="#font_2_7" transform="matrix(7.3325,0,0,-7.3327205,63.712999,47.161027)"/>
<path transform="matrix(1,0,0,-1.00003,8.963997,37.718744)" stroke-width=".3985" stroke-linecap="butt" stroke-miterlimit="10" stroke-linejoin="miter" fill="none" stroke="#929292" d="M70.867 1.4174V-1.4174"/>
<use data-text="5" xlink:href="#font_2_8" transform="matrix(7.3325,0,0,-7.3327205,77.885997,47.161027)"/>
<path transform="matrix(1,0,0,-1.00003,8.963997,37.718744)" stroke-width=".3985" stroke-linecap="butt" stroke-miterlimit="10" stroke-linejoin="miter" fill="none" stroke="#929292" d="M85.04042 1.4174V-1.4174"/>
<use data-text="6" xlink:href="#font_2_9" transform="matrix(7.3325,0,0,-7.3327205,92.06,47.161027)"/>
<path transform="matrix(1,0,0,-1.00003,8.963997,37.718744)" stroke-width=".3985" stroke-linecap="butt" stroke-miterlimit="10" stroke-linejoin="miter" fill="none" stroke="#929292" d="M99.21382 1.4174V-1.4174"/>
<use data-text="7" xlink:href="#font_2_10" transform="matrix(7.3325,0,0,-7.3327205,106.232997,47.161027)"/>
<path transform="matrix(1,0,0,-1.00003,8.963997,37.718744)" stroke-width=".3985" stroke-linecap="butt" stroke-miterlimit="10" stroke-linejoin="miter" fill="none" stroke="#929292" d="M113.38724 1.4174V-1.4174"/>
<use data-text="8" xlink:href="#font_2_11" transform="matrix(7.3325,0,0,-7.3327205,120.406,47.161027)"/>
<path transform="matrix(1,0,0,-1.00003,8.963997,37.718744)" stroke-width=".3985" stroke-linecap="butt" stroke-miterlimit="10" stroke-linejoin="miter" fill="none" stroke="#929292" d="M127.56062 1.4174V-1.4174"/>
<use data-text="9" xlink:href="#font_2_12" transform="matrix(7.3325,0,0,-7.3327205,134.57999,47.161027)"/>
<path transform="matrix(1,0,0,-1.00003,8.963997,37.718744)" stroke-width=".3985" stroke-linecap="butt" stroke-miterlimit="10" stroke-linejoin="miter" fill="none" stroke="#929292" d="M1.4174 14.17339H-1.4174"/>
<use data-text="1" xlink:href="#font_2_4" transform="matrix(7.3325,0,0,-7.3327205,3.0929948,25.99939)"/>
<path transform="matrix(1,0,0,-1.00003,8.963997,37.718744)" stroke-width=".79701" stroke-linecap="butt" stroke-dasharray="2.98883,2.98883" stroke-miterlimit="10" stroke-linejoin="miter" fill="none" stroke="#0000ff" d="M-7.08669 0H-6.59727-6.10786-5.61842-5.12901-4.6396-4.15019-3.66077-3.17136-2.68195-2.19252-1.7031-1.21368-.72427-.23485 .25453 .74394 1.23335 1.7228 2.2122 2.70161 3.19104 3.68045 4.16986 4.65927 5.14871 5.63812 6.12753 6.61696 7.10637 7.59578 8.08519 8.57462 9.06404 9.55345 10.04288 10.53229 11.0217 11.51111 12.00053 12.48996 12.97937 13.46878 13.9582 14.44762 14.93703 15.42645 15.91588 16.40529 16.8947 17.38412 17.87354 18.36295 18.85237 19.34178 19.8312 20.32062 20.81004 21.29945 21.78886 22.27829 22.7677 23.25713 23.74654 24.23596 24.72537 25.21478 25.7042 26.19362 26.68304 27.17245 27.66188 28.15129 28.6407 29.13011 29.61954 30.10895 30.59837 31.0878 31.57721 32.06662 32.55603 33.04546 33.53487 34.02429 34.5137 35.00313 35.49254 35.98195 36.47137 36.96078 37.4502 37.93962 38.42905 38.91846 39.40787 39.8973 40.3867 40.87611 41.36554"/>
<path transform="matrix(1,0,0,-1.00003,8.963997,37.718744)" stroke-width=".79701" stroke-linecap="butt" stroke-dasharray="2.98883,2.98883" stroke-miterlimit="10" stroke-linejoin="miter" fill="none" stroke="#990000" d="M-7.08669 0H-6.59727-6.10786-5.61842-5.12901-4.6396-4.15019-3.66077-3.17136-2.68195-2.19252-1.7031-1.21368-.72427-.23485 .25453 .74394 1.23335 1.7228 2.2122 2.70161 3.19104 3.68045 4.16986 4.65927 5.14871 5.63812 6.12753 6.61696 7.10637 7.59578 8.08519 8.57462 9.06404 9.55345 10.04288 10.53229 11.0217 11.51111 12.00053 12.48996 12.97937 13.46878 13.9582 14.44762 14.93703 15.42645 15.91588 16.40529 16.8947 17.38412 17.87354 18.36295 18.85237 19.34178 19.8312 20.32062 20.81004 21.29945 21.78886 22.27829 22.7677 23.25713 23.74654 24.23596 24.72537 25.21478 25.7042 26.19362 26.68304 27.17245 27.66188 28.15129 28.6407 29.13011 29.61954 30.10895 30.59837 31.0878 31.57721 32.06662 32.55603 33.04546 33.53487 34.02429 34.5137 35.00313 35.49254 35.98195 36.47137 36.96078 37.4502 37.93962 38.42905 38.91846 39.40787 39.8973 40.3867 40.87611 41.36554"/>
<path transform="matrix(1,0,0,-1.00003,8.963997,37.718744)" stroke-width="1.19553" stroke-linecap="butt" stroke-miterlimit="10" stroke-linejoin="miter" fill="none" stroke="#009900" d="M-6.13026 0H-6.59727-6.10786-5.61842-5.12901-4.6396-4.15019-3.66077-3.17136-2.68195-2.19252-1.7031-1.21368-.72427-.23485 .25453 .74394 1.23335 1.7228 2.2122 2.70161 3.19104 3.68045 4.16986 4.65927 5.14871 5.63812 6.12753 6.61696 7.10637 7.59578 8.08519 8.57462 9.06404 9.55345 10.04288 10.53229 11.0217 11.51111 12.00053 12.48996 12.97937 13.46878 13.9582 14.44762 14.93703 15.42645 15.91588 16.40529 16.8947 17.38412 17.87354 18.36295 18.85237 19.34178 19.8312 20.32062 20.81004 21.29945 21.78886 22.27829 22.7677 23.25713 23.74654 24.23596 24.72537 25.21478 25.7042 26.19362 26.68304 27.17245 27.66188 28.15129 28.6407 29.13011 29.61954 30.10895 30.59837 31.0878 31.57721 32.06662 32.55603 33.04546 33.53487 34.02429 34.5137 35.00313 35.49254 35.98195 36.47137 36.96078 37.4502 37.93962 38.42905 38.91846 39.40787 39.8973 40.3867 40.87611 41.36554"/>
<path transform="matrix(-1,-0,0,1.00003,2.833737,37.718744)" stroke-width=".9564" stroke-linecap="round" stroke-linejoin="round" fill="none" stroke="#009900" d="M-1.91284 2.55046C-1.75343 1.59402 0 .15938 .4782 0 0-.15938-1.75343-1.59402-1.91284-2.55046"/>
<path transform="matrix(1,0,0,-1.00003,8.963997,37.718744)" stroke-width=".79701" stroke-linecap="butt" stroke-dasharray="2.98883,2.98883" stroke-miterlimit="10" stroke-linejoin="miter" fill="none" stroke="#0000ff" d="M43.6541 14.17339H44.06068 44.46727 44.87386 45.28044 45.68703 46.09361 46.5002 46.90677 47.31337 47.71996 48.12654 48.53313 48.93971 49.3463 49.75288 50.15947 50.56606 50.97264 51.37923 51.78581 52.1924 52.59898 53.00557 53.41216 53.81874 54.22533 54.6319 55.0385 55.44508 55.85167 56.25826 56.66484 57.07143 57.47801 57.8846 58.29118 58.69777 59.10435 59.51094 59.91753 60.32411 60.7307 61.13728 61.54387 61.95045 62.35704 62.76363 63.17021 63.5768 63.98338 64.38997 64.79655 65.20314 65.60973 66.01631 66.4229 66.82948 67.23607 67.64265 68.04924 68.45583 68.86241 69.269 69.67558 70.08217 70.48875 70.89534 71.30193 71.70851 72.1151 72.52168 72.92827 73.33485 73.74144 74.14803 74.55461 74.9612 75.36778 75.77437 76.18095 76.58754 76.99413 77.40071 77.8073 78.21388 78.62047 79.02705 79.43364 79.84023 80.24681 80.65341 81.05998 81.46657 81.87315 82.27974 82.68633 83.09291 83.4995 83.90608"/>
<path transform="matrix(1,0,0,-1.00003,8.963997,37.718744)" stroke-width=".79701" stroke-linecap="butt" stroke-dasharray="2.98883,2.98883" stroke-miterlimit="10" stroke-linejoin="miter" fill="none" stroke="#990000" d="M43.6541 0H44.06068 44.46727 44.87386 45.28044 45.68703 46.09361 46.5002 46.90677 47.31337 47.71996 48.12654 48.53313 48.93971 49.3463 49.75288 50.15947 50.56606 50.97264 51.37923 51.78581 52.1924 52.59898 53.00557 53.41216 53.81874 54.22533 54.6319 55.0385 55.44508 55.85167 56.25826 56.66484 57.07143 57.47801 57.8846 58.29118 58.69777 59.10435 59.51094 59.91753 60.32411 60.7307 61.13728 61.54387 61.95045 62.35704 62.76363 63.17021 63.5768 63.98338 64.38997 64.79655 65.20314 65.60973 66.01631 66.4229 66.82948 67.23607 67.64265 68.04924 68.45583 68.86241 69.269 69.67558 70.08217 70.48875 70.89534 71.30193 71.70851 72.1151 72.52168 72.92827 73.33485 73.74144 74.14803 74.55461 74.9612 75.36778 75.77437 76.18095 76.58754 76.99413 77.40071 77.8073 78.21388 78.62047 79.02705 79.43364 79.84023 80.24681 80.65341 81.05998 81.46657 81.87315 82.27974 82.68633 83.09291 83.4995 83.90608"/>
<path transform="matrix(1,0,0,-1.00003,8.963997,37.718744)" stroke-width="1.19553" stroke-linecap="butt" stroke-miterlimit="10" stroke-linejoin="miter" fill="none" stroke="#009900" d="M42.5202 14.17339H42.93802 43.35587 43.7737 44.19151 44.60936 45.02719 45.445 45.86285 46.28069 46.69852 47.11635 47.53418 47.95201 48.36984 48.78767 49.2055 49.62334 50.04117 50.459 50.87683 51.29466 51.7125 52.13033 52.54816 52.96599 53.38382 53.80165 54.2195 54.63731 55.05516 55.47299 55.89081 56.30865 56.72649 57.1443 57.56215 57.97998 58.3978 58.81564 59.23347 59.65129 60.06914 60.48697 60.90479 61.32263 61.74046 62.15828 62.57613 62.99396 63.41179 63.82962 64.24745 64.66528 65.08311 65.50095 65.91878 66.33661 66.75444 67.17227 67.5901 68.00793 68.42577 68.8436 69.26143 69.67926 70.09709 70.51492 70.93275 71.35059 71.76843 72.18625 72.60408 73.02193 73.43974 73.85757 74.27542 74.69324 75.11107 75.52892 75.94673 76.36456 76.78241 77.20023 77.61806 78.0359 78.45372 78.87155 79.2894 79.70721 80.12506 80.5429 80.96071 81.37856 81.79639 82.2142 82.63205 83.04988 83.4677 83.88554"/>
<path transform="matrix(1,0,0,-1.00003,8.963997,37.718744)" stroke-width=".79701" stroke-linecap="butt" stroke-dasharray="2.98883,2.98883" stroke-miterlimit="10" stroke-linejoin="miter" fill="none" stroke="#0000ff" d="M86.1743 14.17339H86.66374 87.15315 87.64256 88.13197 88.6214 89.11081 89.60022 90.08965 90.57907 91.06848 91.55789 92.04732 92.53673 93.02614 93.51556 94.00499 94.4944 94.98381 95.47324 95.96265 96.45206 96.94148 97.43091 97.92032 98.40973 98.89915 99.38857 99.87798 100.36739 100.85681 101.34624 101.83565 102.32507 102.81448 103.3039 103.7933 104.28273 104.77216 105.26157 105.75099 106.2404 106.72981 107.21922 107.70865 108.19807 108.68748 109.1769 109.66632 110.15573 110.64514 111.13457 111.62398 112.1134 112.60281 113.09224 113.58165 114.07106 114.56049 115.0499 115.53932 116.02873 116.51816 117.00757 117.49698 117.9864 118.47581 118.96524 119.45465 119.94408 120.43349 120.9229 121.41231 121.90173 122.39114 122.88057 123.37 123.8594 124.34882 124.83823 125.32765 125.81706 126.30649 126.79591 127.28532 127.77473 128.26415 128.75357 129.24298 129.73239 130.22183 130.71125 131.20066 131.69007 132.17949 132.6689 133.15831 133.64774 134.13716 134.62657"/>
<path transform="matrix(1,0,0,-1.00003,8.963997,37.718744)" stroke-width=".79701" stroke-linecap="butt" stroke-dasharray="2.98883,2.98883" stroke-miterlimit="10" stroke-linejoin="miter" fill="none" stroke="#990000" d="M86.1743 14.17339H86.66374 87.15315 87.64256 88.13197 88.6214 89.11081 89.60022 90.08965 90.57907 91.06848 91.55789 92.04732 92.53673 93.02614 93.51556 94.00499 94.4944 94.98381 95.47324 95.96265 96.45206 96.94148 97.43091 97.92032 98.40973 98.89915 99.38857 99.87798 100.36739 100.85681 101.34624 101.83565 102.32507 102.81448 103.3039 103.7933 104.28273 104.77216 105.26157 105.75099 106.2404 106.72981 107.21922 107.70865 108.19807 108.68748 109.1769 109.66632 110.15573 110.64514 111.13457 111.62398 112.1134 112.60281 113.09224 113.58165 114.07106 114.56049 115.0499 115.53932 116.02873 116.51816 117.00757 117.49698 117.9864 118.47581 118.96524 119.45465 119.94408 120.43349 120.9229 121.41231 121.90173 122.39114 122.88057 123.37 123.8594 124.34882 124.83823 125.32765 125.81706 126.30649 126.79591 127.28532 127.77473 128.26415 128.75357 129.24298 129.73239 130.22183 130.71125 131.20066 131.69007 132.17949 132.6689 133.15831 133.64774 134.13716 134.62657"/>
<path transform="matrix(1,0,0,-1.00003,8.963997,37.718744)" stroke-width="1.19553" stroke-linecap="butt" stroke-miterlimit="10" stroke-linejoin="miter" fill="none" stroke="#009900" d="M85.04042 0H85.54129 86.04218 86.54305 87.04393 87.54482 88.04568 88.54655 89.04745 89.54832 90.0492 90.5501 91.05096 91.55183 92.05272 92.5536 93.05447 93.55536 94.05623 94.55711 95.058 95.55887 96.05975 96.56064 97.06151 97.56238 98.06328 98.56415 99.06502 99.56592 100.06679 100.56766 101.06854 101.56943 102.0703 102.57118 103.07205 103.57294 104.07382 104.57469 105.07558 105.57646 106.07733 106.5782 107.0791 107.57997 108.08084 108.58174 109.08261 109.58348 110.08437 110.58525 111.08612 111.587 112.08788 112.58876 113.08965 113.59052 114.0914 114.59227 115.09315 115.59402 116.09491 116.5958 117.09666 117.59755 118.09843 118.5993 119.10017 119.60107 120.10194 120.60281 121.1037 121.60458 122.10545 122.60634 123.10722 123.6081 124.10898 124.60985 125.11073 125.61162 126.11249 126.61336 127.11426 127.61513 128.116 128.6169 129.11777 129.61864 130.11952 130.6204 131.12128 131.62216 132.12305 132.62392 133.1248 133.62567 134.12656 133.67102"/>
<path transform="matrix(1,0,0,-1.00003,142.63501,37.718744)" stroke-width=".9564" stroke-linecap="round" stroke-linejoin="round" fill="none" stroke="#009900" d="M-1.91284 2.55046C-1.75343 1.59402 0 .15938 .4782 0 0-.15938-1.75343-1.59402-1.91284-2.55046"/>
<path transform="matrix(1,0,0,-1.00003,8.963997,37.718744)" stroke-width=".79701" stroke-linecap="butt" stroke-miterlimit="10" stroke-linejoin="miter" fill="none" stroke="#009900" d="M44.01462 0C44.01462 .82533 43.34555 1.49442 42.5202 1.49442 41.69485 1.49442 41.02579 .82533 41.02579 0 41.02579-.82533 41.69485-1.49442 42.5202-1.49442 43.34555-1.49442 44.01462-.82533 44.01462 0ZM42.5202 0"/>
<path transform="matrix(1,0,0,-1.00003,8.963997,37.718744)" d="M44.01462 14.17339C44.01462 14.99873 43.34555 15.6678 42.5202 15.6678 41.69485 15.6678 41.02579 14.99873 41.02579 14.17339 41.02579 13.34804 41.69485 12.67897 42.5202 12.67897 43.34555 12.67897 44.01462 13.34804 44.01462 14.17339ZM42.5202 14.17339" fill="#009900"/>
<path transform="matrix(1,0,0,-1.00003,8.963997,37.718744)" stroke-width=".79701" stroke-linecap="butt" stroke-miterlimit="10" stroke-linejoin="miter" fill="none" stroke="#009900" d="M86.53484 14.17339C86.53484 14.99873 85.86577 15.6678 85.04042 15.6678 84.21507 15.6678 83.546 14.99873 83.546 14.17339 83.546 13.34804 84.21507 12.67897 85.04042 12.67897 85.86577 12.67897 86.53484 13.34804 86.53484 14.17339ZM85.04042 14.17339"/>
<path transform="matrix(1,0,0,-1.00003,8.963997,37.718744)" d="M86.53484 0C86.53484 .82533 85.86577 1.49442 85.04042 1.49442 84.21507 1.49442 83.546 .82533 83.546 0 83.546-.82533 84.21507-1.49442 85.04042-1.49442 85.86577-1.49442 86.53484-.82533 86.53484 0ZM85.04042 0" fill="#009900"/>
<use data-text="u" xlink:href="#font_1_4" transform="matrix(7.3325,0,0,-7.3327205,5.456993,6.988819)"/>
<use data-text="c" xlink:href="#font_1_1" transform="matrix(6.2326,0,0,-6.2327878,10.230995,8.183855)"/>
<use data-text="(" xlink:href="#font_2_1" transform="matrix(7.3325,0,0,-7.3327205,13.966995,6.988819)"/>
<use data-text="t" xlink:href="#font_1_3" transform="matrix(7.3325,0,0,-7.3327205,16.692994,6.988819)"/>
<use data-text=")" xlink:href="#font_2_2" transform="matrix(7.3325,0,0,-7.3327205,19.97699,6.988819)"/>
<use data-text="&#x2212;" xlink:href="#font_3_1" transform="matrix(7.3325,0,0,-7.3327205,23.51699,6.988819)"/>
<use data-text="u" xlink:href="#font_1_4" transform="matrix(7.3325,0,0,-7.3327205,29.76799,6.988819)"/>
<use data-text="d" xlink:href="#font_1_2" transform="matrix(6.2326,0,0,-6.2327878,34.541994,8.840874)"/>
<use data-text="(" xlink:href="#font_2_1" transform="matrix(7.3325,0,0,-7.3327205,39.327997,6.988819)"/>
<use data-text="t" xlink:href="#font_1_3" transform="matrix(7.3325,0,0,-7.3327205,42.053995,6.988819)"/>
<use data-text=")" xlink:href="#font_2_2" transform="matrix(7.3325,0,0,-7.3327205,45.33799,6.988819)"/>
<use data-text="&#xfffd;" xlink:href="#font_4_3" transform="matrix(7.3325,0,0,-7.3327205,5.4569857,12.228977)"/>
<path transform="matrix(1,0,0,-1.00003,-70.507,-17.730923)" stroke-width=".8799" stroke-linecap="butt" stroke-miterlimit="10" stroke-linejoin="miter" fill="none" stroke="#000000" d="M79.263-29.519H93.888"/>
<use data-text="&#xfffd;" xlink:href="#font_4_2" transform="matrix(7.3325,0,0,-7.3327205,23.380997,12.228977)"/>
<use data-text="&#xfffd;" xlink:href="#font_4_1" transform="matrix(7.3325,0,0,-7.3327205,26.680619,12.228977)"/>
<path transform="matrix(1,0,0,-1.00003,-70.507,-17.730923)" stroke-width=".8799" stroke-linecap="butt" stroke-miterlimit="10" stroke-linejoin="miter" fill="none" stroke="#000000" d="M100.487-29.519H115.111"/>
<use data-text="&#xfffd;" xlink:href="#font_4_4" transform="matrix(7.3325,0,0,-7.3327205,44.603998,12.228977)"/>
<use data-text="0" xlink:href="#font_2_3" transform="matrix(6.2326,0,0,-6.2327878,17.237,19.378193)"/>
<use data-text="&#x2212;" xlink:href="#font_3_1" transform="matrix(6.2326,0,0,-6.2327878,20.543,19.378193)"/>
<use data-text="0" xlink:href="#font_2_3" transform="matrix(6.2326,0,0,-6.2327878,25.027,19.378193)"/>
<use data-text="=" xlink:href="#font_3_2" transform="matrix(6.2326,0,0,-6.2327878,28.333,19.378193)"/>
<use data-text="0" xlink:href="#font_2_3" transform="matrix(6.2326,0,0,-6.2327878,32.818,19.378193)"/>
<use data-text="0" xlink:href="#font_2_3" transform="matrix(7.3325,0,0,-7.3327205,13.231998,34.27964)"/>
<use data-text="&#x2212;" xlink:href="#font_3_1" transform="matrix(7.3325,0,0,-7.3327205,18.094998,34.27964)"/>
<use data-text="0" xlink:href="#font_2_3" transform="matrix(7.3325,0,0,-7.3327205,24.345997,34.27964)"/>
<use data-text="=" xlink:href="#font_3_2" transform="matrix(7.3325,0,0,-7.3327205,29.598996,34.27964)"/>
<use data-text="0" xlink:href="#font_2_3" transform="matrix(7.3325,0,0,-7.3327205,36.238996,34.27964)"/>
<use data-text="u" xlink:href="#font_1_4" transform="matrix(7.3325,0,0,-7.3327205,58.253999,18.896178)"/>
<use data-text="c" xlink:href="#font_1_1" transform="matrix(6.2326,0,0,-6.2327878,63.028,20.091214)"/>
<use data-text="(" xlink:href="#font_2_1" transform="matrix(7.3325,0,0,-7.3327205,66.764,18.896178)"/>
<use data-text="t" xlink:href="#font_1_3" transform="matrix(7.3325,0,0,-7.3327205,69.49,18.896178)"/>
<use data-text=")" xlink:href="#font_2_2" transform="matrix(7.3325,0,0,-7.3327205,72.773998,18.896178)"/>
<use data-text="=" xlink:href="#font_3_2" transform="matrix(7.3325,0,0,-7.3327205,76.703998,18.896178)"/>
<use data-text="1" xlink:href="#font_2_4" transform="matrix(7.3325,0,0,-7.3327205,83.343997,18.896178)"/>
<use data-text="u" xlink:href="#font_1_4" transform="matrix(7.3325,0,0,-7.3327205,57.728998,32.41358)"/>
<use data-text="d" xlink:href="#font_1_2" transform="matrix(6.2326,0,0,-6.2327878,62.503,34.265638)"/>
<use data-text="(" xlink:href="#font_2_1" transform="matrix(7.3325,0,0,-7.3327205,67.289,32.41358)"/>
<use data-text="t" xlink:href="#font_1_3" transform="matrix(7.3325,0,0,-7.3327205,70.015,32.41358)"/>
<use data-text=")" xlink:href="#font_2_2" transform="matrix(7.3325,0,0,-7.3327205,73.298999,32.41358)"/>
<use data-text="=" xlink:href="#font_3_2" transform="matrix(7.3325,0,0,-7.3327205,77.229,32.41358)"/>
<use data-text="0" xlink:href="#font_2_3" transform="matrix(7.3325,0,0,-7.3327205,83.868999,32.41358)"/>
<use data-text="u" xlink:href="#font_1_4" transform="matrix(7.3325,0,0,-7.3327205,91.24799,32.41358)"/>
<use data-text="c" xlink:href="#font_1_1" transform="matrix(6.2326,0,0,-6.2327878,96.021999,33.60862)"/>
<use data-text="(" xlink:href="#font_2_1" transform="matrix(7.3325,0,0,-7.3327205,99.757999,32.41358)"/>
<use data-text="t" xlink:href="#font_1_3" transform="matrix(7.3325,0,0,-7.3327205,102.48399,32.41358)"/>
<use data-text=")" xlink:href="#font_2_2" transform="matrix(7.3325,0,0,-7.3327205,105.76799,32.41358)"/>
<use data-text="=" xlink:href="#font_3_2" transform="matrix(7.3325,0,0,-7.3327205,109.69799,32.41358)"/>
<use data-text="u" xlink:href="#font_1_4" transform="matrix(7.3325,0,0,-7.3327205,116.33799,32.41358)"/>
<use data-text="d" xlink:href="#font_1_2" transform="matrix(6.2326,0,0,-6.2327878,121.11199,34.265638)"/>
<use data-text="(" xlink:href="#font_2_1" transform="matrix(7.3325,0,0,-7.3327205,125.897998,32.41358)"/>
<use data-text="t" xlink:href="#font_1_3" transform="matrix(7.3325,0,0,-7.3327205,128.624,32.41358)"/>
<use data-text=")" xlink:href="#font_2_2" transform="matrix(7.3325,0,0,-7.3327205,131.90799,32.41358)"/>
<use data-text="=" xlink:href="#font_3_2" transform="matrix(7.3325,0,0,-7.3327205,135.83798,32.41358)"/>
<use data-text="1" xlink:href="#font_2_4" transform="matrix(7.3325,0,0,-7.3327205,142.478,32.41358)"/>
</svg>
