<svg xmlns="http://www.w3.org/2000/svg" xmlns:xlink="http://www.w3.org/1999/xlink" version="1.1" width="198" height="139" viewBox="0 0 198 139">
<defs>
<path id="font_1_1" d="M.42799378 .45222474 .43899537 .49023438H.31199647L.34599305 .6092224 .33399964 .6162262 .23699951 .53923037 .22399903 .49023438H.14299011L.13198853 .45222474H.21499634L.125 .08627319C.10998535 .029266358 .12199402-.01171875 .17199707-.01171875 .2519989-.01171875 .31599427 .054275514 .35598756 .1292572L.33399964 .1462555C.31098939 .10726929 .2599945 .040267946 .22898865 .040267946 .20799256 .040267946 .20799256 .0632782 .21398926 .088272098L.30299378 .45222474H.42799378Z"/>
<path id="font_2_1" d="M.07398987 .2861328V.21612549H.31900025V.2861328H.07398987Z"/>
<path id="font_2_3" d="M.43699647 0V.0289917L.35299684 .035995485C.33198548 .037994386 .31999208 .04598999 .31999208 .08496094V.67367556L.31498719 .6796875 .10899353 .6446991V.6197052L.20199585 .6087036C.21899414 .6067047 .22599793 .5987091 .22599793 .56973269V.08496094C.22599793 .065979007 .22299195 .053985597 .21699524 .04698181 .21199036 .039993287 .20399475 .036987306 .19299317 .035995485L.10899353 .0289917V0H.43699647Z"/>
<path id="font_2_2" d="M.2649994 .64468386C.3600006 .64468386 .3869934 .49682618 .3869934 .33398438 .3869934 .17112732 .3600006 .023269654 .2649994 .023269654 .16999817 .023269654 .14299011 .17112732 .14299011 .33398438 .14299011 .49682618 .16999817 .64468386 .2649994 .64468386M.2649994 .6796875C.099990848 .6796875 .040985109 .53378298 .040985109 .33398438 .040985109 .13417053 .099990848-.01171875 .2649994-.01171875 .42999269-.01171875 .4889984 .13417053 .4889984 .33398438 .4889984 .53378298 .42999269 .6796875 .2649994 .6796875Z"/>
<path id="font_2_4" d="M.4850006 .13195801 .45700074 .13696289C.43598939 .08299255 .41600038 .07598877 .37599183 .07598877H.11999512C.13598633 .1279602 .19499207 .19892884 .28799439 .2658844 .38398744 .33584596 .45799256 .38082887 .45799256 .49276734 .45799256 .63168337 .3659973 .6796875 .26098634 .6796875 .12399292 .6796875 .052993776 .5967102 .052993776 .54473879 .052993776 .51075747 .09098816 .49476625 .10798645 .49476625 .12599182 .49476625 .1329956 .50476077 .13699341 .5217438 .15299988 .5897064 .19198609 .64468386 .2539978 .64468386 .33099366 .64468386 .35299684 .5797119 .35299684 .50675967 .35299684 .3998108 .29899598 .33984376 .21199036 .26289369 .08898926 .15594483 .04598999 .08798218 .026992798 .009994507L.036987306 0H.45098878L.4850006 .13195801Z"/>
<path id="font_2_5" d="M.12998963 .3657837C.12998963 .3487854 .1349945 .33779908 .147995 .33779908 .1599884 .33779908 .18699646 .34777833 .23498535 .34777833 .31999208 .34777833 .36799623 .27090455 .36799623 .18403626 .36799623 .065216068 .30899049 .023269654 .23799134 .023269654 .17199707 .023269654 .1289978 .07319641 .10998535 .12911988 .10398865 .14808655 .09399414 .15707398 .07998657 .15707398 .06199646 .15707398 .026992798 .13809204 .026992798 .10215759 .026992798 .05921936 .09599304-.01171875 .23699951-.01171875 .38198854-.01171875 .47299195 .06121826 .47299195 .18902588 .47299195 .32281495 .35798646 .3627777 .30299378 .3677826V.3717804C.35699464 .38078309 .44400025 .4207611 .44400025 .5197296 .44400025 .6306915 .35699464 .6796875 .25 .6796875 .117996219 .6796875 .052993776 .60369876 .052993776 .5607147 .052993776 .5297241 .08799744 .51272585 .101989749 .51272585 .114990238 .51272585 .12298584 .5197296 .1269989 .5327301 .14898682 .60069277 .18699646 .64468386 .24299622 .64468386 .32199098 .64468386 .34098817 .57470706 .34098817 .51872256 .34098817 .4587555 .31999208 .38378907 .23498535 .38378907 .18699646 .38378907 .1599884 .39378358 .147995 .39378358 .1349945 .39378358 .12998963 .38378907 .12998963 .3657837Z"/>
<path id="font_2_6" d="M.2999878 .17871094V.0769043C.2999878 .04296875 .2889862 .036987306 .2649994 .034988405L.20098877 .0289917V0H.46499635V.0289917L.41999818 .033981325C.39698792 .036987306 .3899994 .04296875 .3899994 .0769043V.17871094H.49299623V.22570801H.3899994V.66796877H.31698609C.22299195 .5298767 .11099243 .35577394 .018997193 .19970703L.027999878 .17871094H.2999878M.09098816 .22570801C.15098572 .33476258 .22099304 .4498291 .2979889 .5709076H.2999878V.22570801H.09098816Z"/>
<path id="font_2_7" d="M.42599488 .5919647 .44999696 .6599579 .44499208 .66796877H.11099243L.100997928 .65896609 .08099365 .32388307 .10499573 .31188966C.14698792 .35983277 .18798828 .3828125 .24198914 .3828125 .30599977 .3828125 .37599183 .3358612 .37599183 .20404053 .37599183 .10116577 .33399964 .023269654 .24699402 .023269654 .1769867 .023269654 .14099121 .07420349 .12098694 .13113404 .115997318 .14611817 .10699463 .15510559 .09298706 .15510559 .07299805 .15510559 .039993287 .13513184 .039993287 .10217285 .039993287 .056228639 .10998535-.01171875 .23999024-.01171875 .40499879-.01171875 .47999574 .0881958 .47999574 .21502686 .47999574 .35484315 .3919983 .4268036 .272995 .4268036 .21798706 .4268036 .15899658 .4028015 .1269989 .3738098L.125 .37580873 .147995 .56292727C.15098572 .58795168 .1579895 .5919647 .1769867 .5919647H.42599488Z"/>
</defs>
<path transform="matrix(1.00003,0,0,-1,46.44838,69.831)" d="M0-68.0326V68.0326H68.0326V-68.0326ZM68.0326 68.0326" fill="#d9d9ff"/>
<path transform="matrix(1.00003,0,0,-1,46.44838,69.831)" d="M68.0326-68.0326V68.0326H147.40396V-68.0326ZM147.40396 68.0326" fill="#d9ffd9"/>
<path transform="matrix(1.00003,0,0,-1,46.44838,69.831)" stroke-width=".3985" stroke-linecap="butt" stroke-miterlimit="10" stroke-linejoin="miter" fill="none" stroke="#000000" d="M-45.35506 0H146.94568"/>
<path transform="matrix(1.00003,0,0,-1,193.39847,69.831)" stroke-width=".31879" stroke-linecap="round" stroke-linejoin="round" fill="none" stroke="#000000" d="M-1.19551 1.59401C-1.09587 .99626 0 .09961 .29886 0 0-.09961-1.09587-.99626-1.19551-1.59401"/>
<use data-text="t" xlink:href="#font_1_1" transform="matrix(10.036701,0,0,-10.0364,191.71875,79.415)"/>
<path transform="matrix(1.00003,0,0,-1,46.44838,69.831)" stroke-width=".3985" stroke-linecap="butt" stroke-miterlimit="10" stroke-linejoin="miter" fill="none" stroke="#000000" d="M0-68.0326V67.57431"/>
<path transform="matrix(0,-1,-1.00003,-0,46.44838,2.256691)" stroke-width=".31879" stroke-linecap="round" stroke-linejoin="round" fill="none" stroke="#000000" d="M-1.19551 1.59401C-1.09587 .99626 0 .09961 .29886 0 0-.09961-1.09587-.99626-1.19551-1.59401"/>
<path transform="matrix(1.00003,0,0,-1,46.44838,69.831)" stroke-width=".3985" stroke-linecap="butt" stroke-miterlimit="10" stroke-linejoin="miter" fill="none" stroke="#b5b5b5" d="M-22.67752 2.26787V-2.26787"/>
<use data-text="-" xlink:href="#font_2_1" transform="matrix(9.165875,0,0,-9.1656,19.540574,82.768009)"/>
<use data-text="1" xlink:href="#font_2_3" transform="matrix(9.165875,0,0,-9.1656,23.133599,82.768009)"/>
<path transform="matrix(1.00003,0,0,-1,46.44838,69.831)" stroke-width=".3985" stroke-linecap="butt" stroke-miterlimit="10" stroke-linejoin="miter" fill="none" stroke="#b5b5b5" d="M0 2.26787V-2.26787"/>
<use data-text="0" xlink:href="#font_2_2" transform="matrix(9.165875,0,0,-9.1656,44.017305,82.768009)"/>
<path transform="matrix(1.00003,0,0,-1,46.44838,69.831)" stroke-width=".3985" stroke-linecap="butt" stroke-miterlimit="10" stroke-linejoin="miter" fill="none" stroke="#b5b5b5" d="M22.67752 2.26787V-2.26787"/>
<use data-text="1" xlink:href="#font_2_3" transform="matrix(9.165875,0,0,-9.1656,66.695987,82.768009)"/>
<path transform="matrix(1.00003,0,0,-1,46.44838,69.831)" stroke-width=".3985" stroke-linecap="butt" stroke-miterlimit="10" stroke-linejoin="miter" fill="none" stroke="#b5b5b5" d="M45.35506 2.26787V-2.26787"/>
<use data-text="2" xlink:href="#font_2_4" transform="matrix(9.165875,0,0,-9.1656,89.37367,82.768009)"/>
<path transform="matrix(1.00003,0,0,-1,46.44838,69.831)" stroke-width=".3985" stroke-linecap="butt" stroke-miterlimit="10" stroke-linejoin="miter" fill="none" stroke="#b5b5b5" d="M68.0326 2.26787V-2.26787"/>
<use data-text="3" xlink:href="#font_2_5" transform="matrix(9.165875,0,0,-9.1656,112.052349,82.768009)"/>
<path transform="matrix(1.00003,0,0,-1,46.44838,69.831)" stroke-width=".3985" stroke-linecap="butt" stroke-miterlimit="10" stroke-linejoin="miter" fill="none" stroke="#b5b5b5" d="M90.71013 2.26787V-2.26787"/>
<use data-text="4" xlink:href="#font_2_6" transform="matrix(9.165875,0,0,-9.1656,134.73004,82.768009)"/>
<path transform="matrix(1.00003,0,0,-1,46.44838,69.831)" stroke-width=".3985" stroke-linecap="butt" stroke-miterlimit="10" stroke-linejoin="miter" fill="none" stroke="#b5b5b5" d="M113.38766 2.26787V-2.26787"/>
<use data-text="5" xlink:href="#font_2_7" transform="matrix(9.165875,0,0,-9.1656,157.40872,82.768009)"/>
<path transform="matrix(1.00003,0,0,-1,46.44838,69.831)" stroke-width=".3985" stroke-linecap="butt" stroke-miterlimit="10" stroke-linejoin="miter" fill="none" stroke="#b5b5b5" d="M2.26787-45.35506H-2.26787"/>
<use data-text="-" xlink:href="#font_2_1" transform="matrix(9.165875,0,0,-9.1656,31.18892,118.255008)"/>
<use data-text="2" xlink:href="#font_2_4" transform="matrix(9.165875,0,0,-9.1656,34.781946,118.255008)"/>
<path transform="matrix(1.00003,0,0,-1,46.44838,69.831)" stroke-width=".3985" stroke-linecap="butt" stroke-miterlimit="10" stroke-linejoin="miter" fill="none" stroke="#b5b5b5" d="M2.26787-22.67752H-2.26787"/>
<use data-text="-" xlink:href="#font_2_1" transform="matrix(9.165875,0,0,-9.1656,31.18892,95.577)"/>
<use data-text="1" xlink:href="#font_2_3" transform="matrix(9.165875,0,0,-9.1656,34.781946,95.577)"/>
<path transform="matrix(1.00003,0,0,-1,46.44838,69.831)" stroke-width=".3985" stroke-linecap="butt" stroke-miterlimit="10" stroke-linejoin="miter" fill="none" stroke="#b5b5b5" d="M2.26787 0H-2.26787"/>
<use data-text="0" xlink:href="#font_2_2" transform="matrix(9.165875,0,0,-9.1656,34.786027,72.875)"/>
<path transform="matrix(1.00003,0,0,-1,46.44838,69.831)" stroke-width=".3985" stroke-linecap="butt" stroke-miterlimit="10" stroke-linejoin="miter" fill="none" stroke="#b5b5b5" d="M2.26787 22.67752H-2.26787"/>
<use data-text="1" xlink:href="#font_2_3" transform="matrix(9.165875,0,0,-9.1656,34.786027,50.222)"/>
<path transform="matrix(1.00003,0,0,-1,46.44838,69.831)" stroke-width=".3985" stroke-linecap="butt" stroke-miterlimit="10" stroke-linejoin="miter" fill="none" stroke="#b5b5b5" d="M2.26787 45.35506H-2.26787"/>
<use data-text="2" xlink:href="#font_2_4" transform="matrix(9.165875,0,0,-9.1656,34.786027,27.544003)"/>
<path transform="matrix(1.00003,0,0,-1,46.44838,69.831)" stroke-width="1.19553" stroke-linecap="butt" stroke-miterlimit="10" stroke-linejoin="miter" fill="none" stroke="#0000ff" d="M0 0 .33943 .00102 .6789 .00482 1.01836 .0114 1.3578 .02007 1.69727 .03148 2.03673 .04565 2.37617 .06192 2.71564 .08095 3.05508 .10275 3.39455 .12697 3.73401 .15363 4.07347 .1827 4.41292 .21452 4.75238 .24878 5.09183 .2858 5.43129 .3249 5.77075 .36678 6.1102 .41142 6.44966 .45847 6.78912 .50795 7.12857 .55984 7.46803 .61453 7.8075 .67198 8.14694 .73149 8.4864 .79378 8.82587 .85849 9.16531 .92596 9.50478 .99586 9.84425 1.06818 10.18369 1.14326 10.52315 1.22043 10.86261 1.3007 11.20206 1.38307 11.54152 1.46819 11.88098 1.55608 12.22044 1.64604 12.55989 1.7388 12.89935 1.83429 13.2388 1.93187 13.57826 2.03223 13.91772 2.13535 14.25717 2.24054 14.59665 2.34848 14.93608 2.45923 15.27554 2.57237 15.615 2.68794 15.95447 2.80595 16.29391 2.92673 16.63338 3.04991 16.97284 3.1755 17.3123 3.30388 17.65175 3.43468 17.9912 3.56827 18.33066 3.7039 18.67012 3.84265 19.00957 3.98349 19.34904 4.1271 19.6885 4.27312 20.02794 4.42192 20.3674 4.57312 20.70686 4.72678 21.04631 4.88284 21.38577 5.04167 21.72525 5.20291 22.0647 5.36693 22.40414 5.53336 22.7436 5.70224 23.08305 5.87387 23.42252 6.04793 23.76198 6.2244 24.10144 6.40364 24.4409 6.58531 24.78035 6.76941 25.1198 6.95625 25.45926 7.14552 25.79872 7.33723 26.13817 7.53171 26.47765 7.7286 26.8171 7.9279 27.15656 8.12999 27.496 8.33449 27.83545 8.54143 28.17491 8.75111 28.51437 8.96324 28.85384 9.17778 29.1933 9.3951 29.53276 9.61482 29.8722 9.83731 30.21165 10.06187 30.55112 10.28957 30.89056 10.51935 31.23004 10.75188 31.5695 10.98685 31.90895 11.22421 32.2484 11.46436 32.58786 11.70726 32.9273 11.95226 33.26677 12.20003 33.60623 12.4502 33.9457 12.70314 34.28516 12.95853 34.62462 13.21632 34.96405 13.47653 35.30351 13.73952 35.64297 14.00526 35.98242 14.27309 36.3219 14.5437 36.66135 14.81673 37.00081 15.09248 37.34026 15.3707 37.67972 15.65134 38.01917 15.93474 38.35863 16.22057 38.69809 16.50879 39.03755 16.79982 39.37701 17.09325 39.71645 17.38911 40.05591 17.68774 40.39537 17.98878 40.73483 18.29259 41.0743 18.59851 41.41376 18.90715 41.7532 19.21858 42.09267 19.53244 42.43211 19.8487 42.77156 20.16739 43.11102 20.48888 43.4505 20.81274 43.78995 21.1394 44.12941 21.46814 44.46887 21.79997 44.8083 22.1339 45.14777 22.47058 45.48723 22.8097 45.82669 23.15158 46.16615 23.49553 46.50562 23.8426 46.84506 24.19176 47.18451 24.54366 47.52397 24.89801 47.86342 25.2551 48.2029 25.61462 48.54234 25.9766 48.8818 26.3413 49.22127 26.70844 49.56071 27.078 49.90016 27.45033 50.23962 27.82509 50.57909 28.20226 50.91855 28.58218 51.25801 28.96457 51.59746 29.34935 51.93692 29.73691 52.27637 30.12688 52.61583 30.51929 52.95529 30.91446 53.29475 31.31204 53.6342 31.71205 53.97366 32.11484 54.31313 32.52003 54.65256 32.92767 54.99202 33.33807 55.3315 33.75089 55.67094 34.16646 56.0104 34.58446 56.34987 35.00488 56.68932 35.42775 57.02876 35.85338 57.36823 36.28142 57.70769 36.7122 58.04715 37.14545 58.38661 37.58109 58.72606 38.01917 59.06552 38.46002 59.40498 38.90329 59.74442 39.34932 60.0839 39.79778 60.42334 40.24866 60.7628 40.7023 61.10226 41.15837 61.44173 41.61687 61.78117 42.07813 62.12062 42.54147 62.46008 43.00792 62.79955 43.47646 63.139 43.94774 63.47845 44.4218 63.81792 44.89793 64.15738 45.37685 64.49681 45.85852 64.83629 46.34229 65.17575 46.82913 65.5152 47.31808 65.85466 47.80978 66.19412 48.30392 66.53357 48.80049 66.87303 49.2998 67.21248 49.80156 67.55194 50.30573"/>
<path transform="matrix(1.00003,0,0,-1,46.44838,69.831)" stroke-width="1.19553" stroke-linecap="butt" stroke-miterlimit="10" stroke-linejoin="miter" fill="none" stroke="#009900" d="M68.0326 3.20007 68.43121 2.80492 68.82983 2.4087 69.22847 2.01181 69.6271 1.6149 70.02571 1.21696 70.42436 .8187 70.82297 .42043 71.2216 .02177 71.62024-.37645 72.01886-.77475 72.41751-1.17302 72.81612-1.5713 73.21475-1.96855 73.61339-2.3651 74.01201-2.76096 74.41063-3.15614 74.80927-3.55061 75.2079-3.9437 75.60652-4.33575 76.00516-4.72643 76.40378-5.11502 76.80241-5.50258 77.20103-5.8891 77.59966-6.27284 77.9983-6.65488 78.39693-7.0348 78.79556-7.41267 79.19418-7.78847 79.5928-8.16113 79.99144-8.53209 80.39006-8.89992 80.78868-9.26532 81.18733-9.62762 81.58595-9.98715 81.98459-10.34355 82.38321-10.69617 82.78183-11.04634 83.18048-11.39273 83.57909-11.736 83.97772-12.07475 84.37634-12.4104 84.77498-12.74191 85.1736-13.06961 85.57224-13.39348 85.97087-13.71323 86.36949-14.0281 86.76813-14.33954 87.16675-14.6461 87.56538-14.94821 87.96402-15.24544 88.36263-15.53818 88.76128-15.82574 89.15988-16.10915 89.55853-16.387 89.95715-16.66002 90.35577-16.9275 90.75441-17.19048 91.15303-17.44759 91.55167-17.69951 91.9503-17.94588 92.34892-18.18706 92.74756-18.42203 93.14618-18.65176 93.5448-18.87567 93.94344-19.09366 94.34206-19.30544 94.74069-19.51167 95.13933-19.71167 95.53795-19.90579 95.93657-20.09369 96.3352-20.27538 96.73384-20.45045 97.13246-20.61966 97.5311-20.7823 97.92972-20.93835 98.32835-21.08855 98.72697-21.23145 99.1256-21.36847 99.52425-21.49858 99.92285-21.62177 100.3215-21.73872 100.72012-21.84875 101.11874-21.95224 101.5174-22.04843 101.916-22.1384 102.31464-22.22144 102.71326-22.29723 103.1119-22.36679 103.51053-22.42839 103.90915-22.48373 104.30779-22.53218 104.7064-22.57335 105.10504-22.60796 105.50366-22.6353 105.9023-22.65605 106.30092-22.66922 106.69955-22.67578 107.09818-22.67545 107.4968-22.66748 107.89545-22.65295 108.29407-22.63115 108.69269-22.60242 109.09132-22.56714 109.48994-22.52457 109.88857-22.47508 110.28722-22.41869 110.68582-22.35535 111.08447-22.28511 111.4831-22.20761 111.88171-22.12386 112.28035-22.03319 112.67897-21.93527 113.0776-21.83112 113.47623-21.7197 113.87486-21.6017 114.2735-21.47746 114.67212-21.34634 115.07076-21.20825 115.46938-21.06396 115.86801-20.9131 116.26662-20.75531 116.66527-20.59198 117.06389-20.42174 117.46252-20.24525 117.86116-20.06291 118.25977-19.87361 118.65842-19.67914 119.05704-19.47742 119.45566-19.27083 119.8543-19.05733 120.25291-18.83864 120.65155-18.61371 121.05017-18.38326 121.4488-18.14726 121.84744-17.90503 122.24606-17.65797 122.64468-17.40503 123.04332-17.14688 123.44194-16.88321 123.84058-16.61469 124.23921-16.34097 124.63783-16.06209 125.03647-15.77798 125.43509-15.48975 125.83371-15.19597 126.23235-14.89803 126.63098-14.5949 127.02959-14.28761 127.42824-13.97586 127.82686-13.65993 128.2255-13.3395 128.62413-13.01527 129.02274-12.68652 129.42139-12.35469 129.81999-12.01836 130.21863-11.67854 130.61727-11.33493 131.01589-10.9882 131.41454-10.63768 131.81314-10.28404 132.21178-9.92657 132.61042-9.56706 133.00904-9.20407 133.40766-8.83832 133.80629-8.46979 134.20493-8.09885 134.60353-7.72546 135.00218-7.34935 135.4008-6.97113 135.79944-6.59084 136.19806-6.20848 136.59668-5.82404 136.99532-5.43787 137.39395-5.04997 137.79257-4.66069 138.19121-4.26967 138.58983-3.87761 138.98847-3.48453 139.38709-3.09004 139.7857-2.69453 140.18436-2.29832 140.58298-1.90178 140.9816-1.50383 141.38024-1.10625 141.77886-.70761 142.1775-.3097 142.57611 .08891 142.97475 .48718 143.37337 .88583 143.772 1.28375 144.17063 1.6817 144.56926 2.07858 144.9679 2.47548 145.36652 2.87134 145.76515 3.26617 146.16378 3.65996 146.56241 4.0527 146.96103 4.44441 147.35965 4.83473"/>
</svg>
