<svg xmlns="http://www.w3.org/2000/svg" xmlns:xlink="http://www.w3.org/1999/xlink" version="1.1" width="116" height="49" viewBox="0 0 116 49">
<path transform="matrix(1.00006,0,0,-1.00003,57.78843,24.476254)" d="M-56.69275-22.6771V22.6771H0V-22.6771ZM0 22.6771" fill="#d9d9ec"/>
<path transform="matrix(1.00006,0,0,-1.00003,57.78843,24.476254)" d="M0-22.6771V22.6771H34.01564V-22.6771ZM34.01564 22.6771" fill="#d9ecd9"/>
<path transform="matrix(1.00006,0,0,-1.00003,57.78843,24.476254)" d="M34.01564-22.6771V22.6771H56.69275V-22.6771ZM56.69275 22.6771" fill="#ecd9d9"/>
<path transform="matrix(1.00006,0,0,-1.00003,57.78843,24.476254)" stroke-width=".3985" stroke-linecap="butt" stroke-miterlimit="10" stroke-linejoin="miter" fill="none" stroke="#000000" d="M-56.69275 0H56.23447"/>
<path transform="matrix(1.00006,0,0,-1.00003,114.026279,24.476254)" stroke-width=".31879" stroke-linecap="round" stroke-linejoin="round" fill="none" stroke="#000000" d="M-1.19551 1.59401C-1.09587 .99626 0 .09961 .29886 0 0-.09961-1.09587-.99626-1.19551-1.59401"/>
<path transform="matrix(1.00006,0,0,-1.00003,57.78843,24.476254)" stroke-width=".3985" stroke-linecap="butt" stroke-miterlimit="10" stroke-linejoin="miter" fill="none" stroke="#000000" d="M0-22.6771V22.21881"/>
<path transform="matrix(0,-1.00003,-1.00006,-0,57.78843,2.2567769)" stroke-width=".31879" stroke-linecap="round" stroke-linejoin="round" fill="none" stroke="#000000" d="M-1.19551 1.59401C-1.09587 .99626 0 .09961 .29886 0 0-.09961-1.09587-.99626-1.19551-1.59401"/>
<path transform="matrix(1.00006,0,0,-1.00003,57.78843,24.476254)" stroke-width=".3985" stroke-linecap="butt" stroke-miterlimit="10" stroke-linejoin="miter" fill="none" stroke="#929292" d="M-34.01564 1.13391V-1.13391"/>
<path transform="matrix(1.00006,0,0,-1.00003,57.78843,24.476254)" stroke-width=".3985" stroke-linecap="butt" stroke-miterlimit="10" stroke-linejoin="miter" fill="none" stroke="#929292" d="M-22.6771 1.13391V-1.13391"/>
<path transform="matrix(1.00006,0,0,-1.00003,57.78843,24.476254)" stroke-width=".3985" stroke-linecap="butt" stroke-miterlimit="10" stroke-linejoin="miter" fill="none" stroke="#929292" d="M-11.33855 1.13391V-1.13391"/>
<path transform="matrix(1.00006,0,0,-1.00003,57.78843,24.476254)" stroke-width=".3985" stroke-linecap="butt" stroke-miterlimit="10" stroke-linejoin="miter" fill="none" stroke="#929292" d="M11.33855 1.13391V-1.13391"/>
<path transform="matrix(1.00006,0,0,-1.00003,57.78843,24.476254)" stroke-width=".3985" stroke-linecap="butt" stroke-miterlimit="10" stroke-linejoin="miter" fill="none" stroke="#929292" d="M22.6771 1.13391V-1.13391"/>
<path transform="matrix(1.00006,0,0,-1.00003,57.78843,24.476254)" stroke-width=".3985" stroke-linecap="butt" stroke-miterlimit="10" stroke-linejoin="miter" fill="none" stroke="#929292" d="M34.01564 1.13391V-1.13391"/>
<path transform="matrix(1.00006,0,0,-1.00003,57.78843,24.476254)" stroke-width=".3985" stroke-linecap="butt" stroke-miterlimit="10" stroke-linejoin="miter" fill="none" stroke="#000000" d="M-17.00781 5.66925V1.02522"/>
<path transform="matrix(0,1.00003,1.00006,0,40.7796,23.451003)" stroke-width=".31879" stroke-linecap="round" stroke-linejoin="round" fill="none" stroke="#000000" d="M-1.19551 1.59401C-1.09587 .99626 0 .09961 .29886 0 0-.09961-1.09587-.99626-1.19551-1.59401"/>
<path transform="matrix(1.00006,0,0,-1.00003,57.78843,24.476254)" stroke-width=".3985" stroke-linecap="butt" stroke-miterlimit="10" stroke-linejoin="miter" fill="none" stroke="#000000" d="M15.87389 6.23622 18.5919-4.09216"/>
<path transform="matrix(.25448526,.96706905,.967098,-.25447766,76.38144,28.568537)" stroke-width=".31879" stroke-linecap="round" stroke-linejoin="round" fill="none" stroke="#000000" d="M-1.19551 1.59401C-1.09587 .99626 0 .09961 .29886 0 0-.09961-1.09587-.99626-1.19551-1.59401"/>
</svg>
