<svg xmlns="http://www.w3.org/2000/svg" xmlns:xlink="http://www.w3.org/1999/xlink" version="1.1" width="95" height="106" viewBox="0 0 95 106">
<defs>
<path id="font_1_1" d="M.42799378 .45222474 .43899537 .49023438H.31199647L.34599305 .6092224 .33399964 .6162262 .23699951 .53923037 .22399903 .49023438H.14299011L.13198853 .45222474H.21499634L.125 .08627319C.10998535 .029266358 .12199402-.01171875 .17199707-.01171875 .2519989-.01171875 .31599427 .054275514 .35598756 .1292572L.33399964 .1462555C.31098939 .10726929 .2599945 .040267946 .22898865 .040267946 .20799256 .040267946 .20799256 .0632782 .21398926 .088272098L.30299378 .45222474H.42799378Z"/>
<path id="font_1_2" d="M.070999149 .45393373 .07398987 .42893983 .14199829 .43093873C.1639862 .43193055 .16899109 .41493226 .1769867 .36291505 .18798828 .28489686 .20999146 .09286499 .20999146 .0128479 .20999146-.017166138 .20799256-.058166505 .18598938-.11117554 .16799927-.15318299 .14199829-.18218994 .12199402-.18218994 .10699463-.18218994 .09599304-.17118836 .08099365-.15118408 .068984989-.13517761 .06098938-.127182 .04598999-.127182 .019989014-.12818909-.005004883-.15818787-.005004883-.18719483-.005004883-.21418762 .023986817-.2421875 .067993167-.2421875 .15299988-.2421875 .18998719-.17919922 .27799989-.027160645 .2979889 .0068511965 .35798646 .11286926 .41999818 .21488953 .47698976 .30891419 .5399933 .40592958 .5399933 .4459381 .5399933 .48094178 .5289917 .5019531 .5219879 .5019531 .5029907 .5019531 .46899415 .49394227 .44400025 .47694398 .44499208 .4419403 .44299317 .3809204 .43099977 .33891297 .4149933 .28289796 .35598756 .17488098 .2899933 .06085205H.2869873C.27999879 .21388245 .26098634 .42492677 .24699402 .49795533L.23899842 .5019531 .070999149 .45393373Z"/>
<path id="font_2_2" d="M.2649994 .64468386C.3600006 .64468386 .3869934 .49682618 .3869934 .33398438 .3869934 .17112732 .3600006 .023269654 .2649994 .023269654 .16999817 .023269654 .14299011 .17112732 .14299011 .33398438 .14299011 .49682618 .16999817 .64468386 .2649994 .64468386M.2649994 .6796875C.099990848 .6796875 .040985109 .53378298 .040985109 .33398438 .040985109 .13417053 .099990848-.01171875 .2649994-.01171875 .42999269-.01171875 .4889984 .13417053 .4889984 .33398438 .4889984 .53378298 .42999269 .6796875 .2649994 .6796875Z"/>
<path id="font_2_3" d="M.43699647 0V.0289917L.35299684 .035995485C.33198548 .037994386 .31999208 .04598999 .31999208 .08496094V.67367556L.31498719 .6796875 .10899353 .6446991V.6197052L.20199585 .6087036C.21899414 .6067047 .22599793 .5987091 .22599793 .56973269V.08496094C.22599793 .065979007 .22299195 .053985597 .21699524 .04698181 .21199036 .039993287 .20399475 .036987306 .19299317 .035995485L.10899353 .0289917V0H.43699647Z"/>
<path id="font_2_4" d="M.4850006 .13195801 .45700074 .13696289C.43598939 .08299255 .41600038 .07598877 .37599183 .07598877H.11999512C.13598633 .1279602 .19499207 .19892884 .28799439 .2658844 .38398744 .33584596 .45799256 .38082887 .45799256 .49276734 .45799256 .63168337 .3659973 .6796875 .26098634 .6796875 .12399292 .6796875 .052993776 .5967102 .052993776 .54473879 .052993776 .51075747 .09098816 .49476625 .10798645 .49476625 .12599182 .49476625 .1329956 .50476077 .13699341 .5217438 .15299988 .5897064 .19198609 .64468386 .2539978 .64468386 .33099366 .64468386 .35299684 .5797119 .35299684 .50675967 .35299684 .3998108 .29899598 .33984376 .21199036 .26289369 .08898926 .15594483 .04598999 .08798218 .026992798 .009994507L.036987306 0H.45098878L.4850006 .13195801Z"/>
<path id="font_2_1" d="M.07398987 .2861328V.21612549H.31900025V.2861328H.07398987Z"/>
</defs>
<path transform="matrix(1.00006,0,0,-1.00003,18.63926,64.49855)" stroke-width=".3985" stroke-linecap="butt" stroke-miterlimit="10" stroke-linejoin="miter" fill="none" stroke="#cbcbcb" d="M-5.66936-34.01628V56.69382"/>
<path transform="matrix(1.00006,0,0,-1.00003,18.63926,64.49855)" stroke-width=".3985" stroke-linecap="butt" stroke-miterlimit="10" stroke-linejoin="miter" fill="none" stroke="#cbcbcb" d="M0-34.01628V56.69382"/>
<path transform="matrix(1.00006,0,0,-1.00003,18.63926,64.49855)" stroke-width=".3985" stroke-linecap="butt" stroke-miterlimit="10" stroke-linejoin="miter" fill="none" stroke="#cbcbcb" d="M5.66936-34.01628V56.69382"/>
<path transform="matrix(1.00006,0,0,-1.00003,18.63926,64.49855)" stroke-width=".3985" stroke-linecap="butt" stroke-miterlimit="10" stroke-linejoin="miter" fill="none" stroke="#cbcbcb" d="M11.33876-34.01628V56.69382"/>
<path transform="matrix(1.00006,0,0,-1.00003,18.63926,64.49855)" stroke-width=".3985" stroke-linecap="butt" stroke-miterlimit="10" stroke-linejoin="miter" fill="none" stroke="#cbcbcb" d="M17.00813-34.01628V56.69382"/>
<path transform="matrix(1.00006,0,0,-1.00003,18.63926,64.49855)" stroke-width=".3985" stroke-linecap="butt" stroke-miterlimit="10" stroke-linejoin="miter" fill="none" stroke="#cbcbcb" d="M22.67752-34.01628V56.69382"/>
<path transform="matrix(1.00006,0,0,-1.00003,18.63926,64.49855)" stroke-width=".3985" stroke-linecap="butt" stroke-miterlimit="10" stroke-linejoin="miter" fill="none" stroke="#cbcbcb" d="M28.3469-34.01628V56.69382"/>
<path transform="matrix(1.00006,0,0,-1.00003,18.63926,64.49855)" stroke-width=".3985" stroke-linecap="butt" stroke-miterlimit="10" stroke-linejoin="miter" fill="none" stroke="#cbcbcb" d="M34.01628-34.01628V56.69382"/>
<path transform="matrix(1.00006,0,0,-1.00003,18.63926,64.49855)" stroke-width=".3985" stroke-linecap="butt" stroke-miterlimit="10" stroke-linejoin="miter" fill="none" stroke="#cbcbcb" d="M39.68567-34.01628V56.69382"/>
<path transform="matrix(1.00006,0,0,-1.00003,18.63926,64.49855)" stroke-width=".3985" stroke-linecap="butt" stroke-miterlimit="10" stroke-linejoin="miter" fill="none" stroke="#cbcbcb" d="M45.35506-34.01628V56.69382"/>
<path transform="matrix(1.00006,0,0,-1.00003,18.63926,64.49855)" stroke-width=".3985" stroke-linecap="butt" stroke-miterlimit="10" stroke-linejoin="miter" fill="none" stroke="#cbcbcb" d="M51.02443-34.01628V56.69382"/>
<path transform="matrix(1.00006,0,0,-1.00003,18.63926,64.49855)" stroke-width=".3985" stroke-linecap="butt" stroke-miterlimit="10" stroke-linejoin="miter" fill="none" stroke="#cbcbcb" d="M56.69382-34.01628V56.69382"/>
<path transform="matrix(1.00006,0,0,-1.00003,18.63926,64.49855)" stroke-width=".3985" stroke-linecap="butt" stroke-miterlimit="10" stroke-linejoin="miter" fill="none" stroke="#cbcbcb" d="M62.3632-34.01628V56.69382"/>
<path transform="matrix(1.00006,0,0,-1.00003,18.63926,64.49855)" stroke-width=".3985" stroke-linecap="butt" stroke-miterlimit="10" stroke-linejoin="miter" fill="none" stroke="#cbcbcb" d="M-11.33876-28.3469H68.0326"/>
<path transform="matrix(1.00006,0,0,-1.00003,18.63926,64.49855)" stroke-width=".3985" stroke-linecap="butt" stroke-miterlimit="10" stroke-linejoin="miter" fill="none" stroke="#cbcbcb" d="M-11.33876-22.67752H68.0326"/>
<path transform="matrix(1.00006,0,0,-1.00003,18.63926,64.49855)" stroke-width=".3985" stroke-linecap="butt" stroke-miterlimit="10" stroke-linejoin="miter" fill="none" stroke="#cbcbcb" d="M-11.33876-17.00813H68.0326"/>
<path transform="matrix(1.00006,0,0,-1.00003,18.63926,64.49855)" stroke-width=".3985" stroke-linecap="butt" stroke-miterlimit="10" stroke-linejoin="miter" fill="none" stroke="#cbcbcb" d="M-11.33876-11.33876H68.0326"/>
<path transform="matrix(1.00006,0,0,-1.00003,18.63926,64.49855)" stroke-width=".3985" stroke-linecap="butt" stroke-miterlimit="10" stroke-linejoin="miter" fill="none" stroke="#cbcbcb" d="M-11.33876-5.66936H68.0326"/>
<path transform="matrix(1.00006,0,0,-1.00003,18.63926,64.49855)" stroke-width=".3985" stroke-linecap="butt" stroke-miterlimit="10" stroke-linejoin="miter" fill="none" stroke="#cbcbcb" d="M-11.33876 0H68.0326"/>
<path transform="matrix(1.00006,0,0,-1.00003,18.63926,64.49855)" stroke-width=".3985" stroke-linecap="butt" stroke-miterlimit="10" stroke-linejoin="miter" fill="none" stroke="#cbcbcb" d="M-11.33876 5.66936H68.0326"/>
<path transform="matrix(1.00006,0,0,-1.00003,18.63926,64.49855)" stroke-width=".3985" stroke-linecap="butt" stroke-miterlimit="10" stroke-linejoin="miter" fill="none" stroke="#cbcbcb" d="M-11.33876 11.33876H68.0326"/>
<path transform="matrix(1.00006,0,0,-1.00003,18.63926,64.49855)" stroke-width=".3985" stroke-linecap="butt" stroke-miterlimit="10" stroke-linejoin="miter" fill="none" stroke="#cbcbcb" d="M-11.33876 17.00813H68.0326"/>
<path transform="matrix(1.00006,0,0,-1.00003,18.63926,64.49855)" stroke-width=".3985" stroke-linecap="butt" stroke-miterlimit="10" stroke-linejoin="miter" fill="none" stroke="#cbcbcb" d="M-11.33876 22.67752H68.0326"/>
<path transform="matrix(1.00006,0,0,-1.00003,18.63926,64.49855)" stroke-width=".3985" stroke-linecap="butt" stroke-miterlimit="10" stroke-linejoin="miter" fill="none" stroke="#cbcbcb" d="M-11.33876 28.3469H68.0326"/>
<path transform="matrix(1.00006,0,0,-1.00003,18.63926,64.49855)" stroke-width=".3985" stroke-linecap="butt" stroke-miterlimit="10" stroke-linejoin="miter" fill="none" stroke="#cbcbcb" d="M-11.33876 34.01628H68.0326"/>
<path transform="matrix(1.00006,0,0,-1.00003,18.63926,64.49855)" stroke-width=".3985" stroke-linecap="butt" stroke-miterlimit="10" stroke-linejoin="miter" fill="none" stroke="#cbcbcb" d="M-11.33876 39.68567H68.0326"/>
<path transform="matrix(1.00006,0,0,-1.00003,18.63926,64.49855)" stroke-width=".3985" stroke-linecap="butt" stroke-miterlimit="10" stroke-linejoin="miter" fill="none" stroke="#cbcbcb" d="M-11.33876 45.35506H68.0326"/>
<path transform="matrix(1.00006,0,0,-1.00003,18.63926,64.49855)" stroke-width=".3985" stroke-linecap="butt" stroke-miterlimit="10" stroke-linejoin="miter" fill="none" stroke="#cbcbcb" d="M-11.33876 51.02443H68.0326"/>
<path transform="matrix(1.00006,0,0,-1.00003,18.63926,64.49855)" stroke-width=".3985" stroke-linecap="butt" stroke-miterlimit="10" stroke-linejoin="miter" fill="none" stroke="#000000" d="M-11.33876 0H74.43741"/>
<path transform="matrix(1.00006,0,0,-1.00003,93.280399,64.49855)" stroke-width=".3985" stroke-linecap="round" stroke-linejoin="round" fill="none" stroke="#000000" d="M-2.07224 2.39104C-1.69365 .95639-.84999 .27895 0 0-.84999-.27895-1.69365-.95639-2.07224-2.39104"/>
<use data-text="t" xlink:href="#font_1_1" transform="matrix(5.49973,0,0,-5.499565,89.47251,71.28676)"/>
<path transform="matrix(1.00006,0,0,-1.00003,18.63926,64.49855)" stroke-width=".3985" stroke-linecap="butt" stroke-miterlimit="10" stroke-linejoin="miter" fill="none" stroke="#000000" d="M0-34.01628V63.09863"/>
<path transform="matrix(0,-1.00003,-1.00006,-0,18.63926,1.1987724)" stroke-width=".3985" stroke-linecap="round" stroke-linejoin="round" fill="none" stroke="#000000" d="M-2.07224 2.39104C-1.69365 .95639-.84999 .27895 0 0-.84999-.27895-1.69365-.95639-2.07224-2.39104"/>
<use data-text="y" xlink:href="#font_1_2" transform="matrix(5.49973,0,0,-5.499565,12.160866,4.518749)"/>
<path transform="matrix(1.00006,0,0,-1.00003,18.63926,64.49855)" stroke-width=".3985" stroke-linecap="butt" stroke-miterlimit="10" stroke-linejoin="miter" fill="none" stroke="#cbcbcb" d="M-11.33876-34.01628V56.69382H68.0326V-34.01628ZM68.0326 56.69382"/>
<path transform="matrix(1.00006,0,0,-1.00003,18.63926,64.49855)" stroke-width=".3985" stroke-linecap="butt" stroke-miterlimit="10" stroke-linejoin="miter" fill="none" stroke="#000000" d="M0-35.37688V-32.65569"/>
<use data-text="0" xlink:href="#font_2_2" transform="matrix(5.49973,0,0,-5.499565,17.180169,104.23674)"/>
<path transform="matrix(1.00006,0,0,-1.00003,18.63926,64.49855)" stroke-width=".3985" stroke-linecap="butt" stroke-miterlimit="10" stroke-linejoin="miter" fill="none" stroke="#000000" d="M22.67752-35.37688V-32.65569"/>
<use data-text="1" xlink:href="#font_2_3" transform="matrix(5.49973,0,0,-5.499565,39.85953,104.23674)"/>
<path transform="matrix(1.00006,0,0,-1.00003,18.63926,64.49855)" stroke-width=".3985" stroke-linecap="butt" stroke-miterlimit="10" stroke-linejoin="miter" fill="none" stroke="#000000" d="M45.35506-35.37688V-32.65569"/>
<use data-text="2" xlink:href="#font_2_4" transform="matrix(5.49973,0,0,-5.499565,62.53889,104.23674)"/>
<path transform="matrix(1.00006,0,0,-1.00003,18.63926,64.49855)" stroke-width=".3985" stroke-linecap="butt" stroke-miterlimit="10" stroke-linejoin="miter" fill="none" stroke="#000000" d="M-12.69934-22.67752H-9.07086"/>
<use data-text="-" xlink:href="#font_2_1" transform="matrix(5.49973,0,0,-5.499565,1.0932083,89.01829)"/>
<use data-text="1" xlink:href="#font_2_3" transform="matrix(5.49973,0,0,-5.499565,3.2490998,89.01829)"/>
<path transform="matrix(1.00006,0,0,-1.00003,18.63926,64.49855)" stroke-width=".3985" stroke-linecap="butt" stroke-miterlimit="10" stroke-linejoin="miter" fill="none" stroke="#000000" d="M-12.69934 0H-9.07086"/>
<use data-text="0" xlink:href="#font_2_2" transform="matrix(5.49973,0,0,-5.499565,3.2513352,66.32461)"/>
<path transform="matrix(1.00006,0,0,-1.00003,18.63926,64.49855)" stroke-width=".3985" stroke-linecap="butt" stroke-miterlimit="10" stroke-linejoin="miter" fill="none" stroke="#000000" d="M-12.69934 22.67752H-9.07086"/>
<use data-text="1" xlink:href="#font_2_3" transform="matrix(5.49973,0,0,-5.499565,3.2513352,43.661928)"/>
<path transform="matrix(1.00006,0,0,-1.00003,18.63926,64.49855)" stroke-width=".3985" stroke-linecap="butt" stroke-miterlimit="10" stroke-linejoin="miter" fill="none" stroke="#000000" d="M-12.69934 45.35506H-9.07086"/>
<use data-text="2" xlink:href="#font_2_4" transform="matrix(5.49973,0,0,-5.499565,3.2513352,20.983242)"/>
<path transform="matrix(1.00006,0,0,-1.00003,18.63926,64.49855)" stroke-width=".79701" stroke-linecap="butt" stroke-miterlimit="10" stroke-linejoin="miter" fill="none" stroke="#409f9f" d="M-7.64552-29.458-3.69319-27.2358"/>
<path transform="matrix(1.00006,0,0,-1.00003,18.63926,64.49855)" stroke-width=".79701" stroke-linecap="butt" stroke-miterlimit="10" stroke-linejoin="miter" fill="none" stroke="#409f9f" d="M-7.93689-22.67752H-3.40182"/>
<path transform="matrix(1.00006,0,0,-1.00003,18.63926,64.49855)" stroke-width=".79701" stroke-linecap="butt" stroke-miterlimit="10" stroke-linejoin="miter" fill="none" stroke="#409f9f" d="M-7.74762-16.09947-3.5911-17.9168"/>
<path transform="matrix(1.00006,0,0,-1.00003,18.63926,64.49855)" stroke-width=".79701" stroke-linecap="butt" stroke-miterlimit="10" stroke-linejoin="miter" fill="none" stroke="#409f9f" d="M-7.4836-9.97816-3.85512-12.69934"/>
<path transform="matrix(1.00006,0,0,-1.00003,18.63926,64.49855)" stroke-width=".79701" stroke-linecap="butt" stroke-miterlimit="10" stroke-linejoin="miter" fill="none" stroke="#409f9f" d="M-7.32373-4.1188-4.01498-7.21991"/>
<path transform="matrix(1.00006,0,0,-1.00003,18.63926,64.49855)" stroke-width=".79701" stroke-linecap="butt" stroke-miterlimit="10" stroke-linejoin="miter" fill="none" stroke="#409f9f" d="M-7.2725 1.6035-4.06621-1.6035"/>
<path transform="matrix(1.00006,0,0,-1.00003,18.63926,64.49855)" stroke-width=".79701" stroke-linecap="butt" stroke-miterlimit="10" stroke-linejoin="miter" fill="none" stroke="#409f9f" d="M-7.32373 7.21991-4.01498 4.1188"/>
<path transform="matrix(1.00006,0,0,-1.00003,18.63926,64.49855)" stroke-width=".79701" stroke-linecap="butt" stroke-miterlimit="10" stroke-linejoin="miter" fill="none" stroke="#409f9f" d="M-7.4836 12.69934-3.85512 9.97816"/>
<path transform="matrix(1.00006,0,0,-1.00003,18.63926,64.49855)" stroke-width=".79701" stroke-linecap="butt" stroke-miterlimit="10" stroke-linejoin="miter" fill="none" stroke="#409f9f" d="M-7.74762 17.9168-3.5911 16.09947"/>
<path transform="matrix(1.00006,0,0,-1.00003,18.63926,64.49855)" stroke-width=".79701" stroke-linecap="butt" stroke-miterlimit="10" stroke-linejoin="miter" fill="none" stroke="#409f9f" d="M-7.93689 22.67752H-3.40182"/>
<path transform="matrix(1.00006,0,0,-1.00003,18.63926,64.49855)" stroke-width=".79701" stroke-linecap="butt" stroke-miterlimit="10" stroke-linejoin="miter" fill="none" stroke="#409f9f" d="M-7.64552 27.2358-3.69319 29.458"/>
<path transform="matrix(1.00006,0,0,-1.00003,18.63926,64.49855)" stroke-width=".79701" stroke-linecap="butt" stroke-miterlimit="10" stroke-linejoin="miter" fill="none" stroke="#409f9f" d="M-7.0853 32.24634-4.25342 35.78621"/>
<path transform="matrix(1.00006,0,0,-1.00003,18.63926,64.49855)" stroke-width=".79701" stroke-linecap="butt" stroke-miterlimit="10" stroke-linejoin="miter" fill="none" stroke="#409f9f" d="M-6.65866 37.64514-4.68005 41.7262"/>
<path transform="matrix(1.00006,0,0,-1.00003,18.63926,64.49855)" stroke-width=".79701" stroke-linecap="butt" stroke-miterlimit="10" stroke-linejoin="miter" fill="none" stroke="#409f9f" d="M-6.38666 43.20378-4.95206 47.50632"/>
<path transform="matrix(1.00006,0,0,-1.00003,18.63926,64.49855)" stroke-width=".79701" stroke-linecap="butt" stroke-miterlimit="10" stroke-linejoin="miter" fill="none" stroke="#409f9f" d="M-6.21121 48.82265-5.1275 53.22621"/>
<path transform="matrix(1.00006,0,0,-1.00003,18.63926,64.49855)" stroke-width=".79701" stroke-linecap="butt" stroke-miterlimit="10" stroke-linejoin="miter" fill="none" stroke="#409f9f" d="M-1.97617-29.458 1.97617-27.2358"/>
<path transform="matrix(1.00006,0,0,-1.00003,18.63926,64.49855)" stroke-width=".79701" stroke-linecap="butt" stroke-miterlimit="10" stroke-linejoin="miter" fill="none" stroke="#409f9f" d="M-2.26752-22.67752H2.26752"/>
<path transform="matrix(1.00006,0,0,-1.00003,18.63926,64.49855)" stroke-width=".79701" stroke-linecap="butt" stroke-miterlimit="10" stroke-linejoin="miter" fill="none" stroke="#409f9f" d="M-2.07826-16.09947 2.07826-17.9168"/>
<path transform="matrix(1.00006,0,0,-1.00003,18.63926,64.49855)" stroke-width=".79701" stroke-linecap="butt" stroke-miterlimit="10" stroke-linejoin="miter" fill="none" stroke="#409f9f" d="M-1.81422-9.97816 1.81422-12.69934"/>
<path transform="matrix(1.00006,0,0,-1.00003,18.63926,64.49855)" stroke-width=".79701" stroke-linecap="butt" stroke-miterlimit="10" stroke-linejoin="miter" fill="none" stroke="#409f9f" d="M-1.65436-4.1188 1.65436-7.21991"/>
<path transform="matrix(1.00006,0,0,-1.00003,18.63926,64.49855)" stroke-width=".79701" stroke-linecap="butt" stroke-miterlimit="10" stroke-linejoin="miter" fill="none" stroke="#409f9f" d="M-1.60315 1.6035 1.60315-1.6035"/>
<path transform="matrix(1.00006,0,0,-1.00003,18.63926,64.49855)" stroke-width=".79701" stroke-linecap="butt" stroke-miterlimit="10" stroke-linejoin="miter" fill="none" stroke="#409f9f" d="M-1.65436 7.21991 1.65436 4.1188"/>
<path transform="matrix(1.00006,0,0,-1.00003,18.63926,64.49855)" stroke-width=".79701" stroke-linecap="butt" stroke-miterlimit="10" stroke-linejoin="miter" fill="none" stroke="#409f9f" d="M-1.81422 12.69934 1.81422 9.97816"/>
<path transform="matrix(1.00006,0,0,-1.00003,18.63926,64.49855)" stroke-width=".79701" stroke-linecap="butt" stroke-miterlimit="10" stroke-linejoin="miter" fill="none" stroke="#409f9f" d="M-2.07826 17.9168 2.07826 16.09947"/>
<path transform="matrix(1.00006,0,0,-1.00003,18.63926,64.49855)" stroke-width=".79701" stroke-linecap="butt" stroke-miterlimit="10" stroke-linejoin="miter" fill="none" stroke="#409f9f" d="M-2.26752 22.67752H2.26752"/>
<path transform="matrix(1.00006,0,0,-1.00003,18.63926,64.49855)" stroke-width=".79701" stroke-linecap="butt" stroke-miterlimit="10" stroke-linejoin="miter" fill="none" stroke="#409f9f" d="M-1.97617 27.2358 1.97617 29.458"/>
<path transform="matrix(1.00006,0,0,-1.00003,18.63926,64.49855)" stroke-width=".79701" stroke-linecap="butt" stroke-miterlimit="10" stroke-linejoin="miter" fill="none" stroke="#409f9f" d="M-1.41594 32.24634 1.41594 35.78621"/>
<path transform="matrix(1.00006,0,0,-1.00003,18.63926,64.49855)" stroke-width=".79701" stroke-linecap="butt" stroke-miterlimit="10" stroke-linejoin="miter" fill="none" stroke="#409f9f" d="M-.98929 37.64514 .98929 41.7262"/>
<path transform="matrix(1.00006,0,0,-1.00003,18.63926,64.49855)" stroke-width=".79701" stroke-linecap="butt" stroke-miterlimit="10" stroke-linejoin="miter" fill="none" stroke="#409f9f" d="M-.7173 43.20378 .7173 47.50632"/>
<path transform="matrix(1.00006,0,0,-1.00003,18.63926,64.49855)" stroke-width=".79701" stroke-linecap="butt" stroke-miterlimit="10" stroke-linejoin="miter" fill="none" stroke="#409f9f" d="M-.54185 48.82265 .54185 53.22621"/>
<path transform="matrix(1.00006,0,0,-1.00003,18.63926,64.49855)" stroke-width=".79701" stroke-linecap="butt" stroke-miterlimit="10" stroke-linejoin="miter" fill="none" stroke="#409f9f" d="M3.69319-29.458 7.64552-27.2358"/>
<path transform="matrix(1.00006,0,0,-1.00003,18.63926,64.49855)" stroke-width=".79701" stroke-linecap="butt" stroke-miterlimit="10" stroke-linejoin="miter" fill="none" stroke="#409f9f" d="M3.40182-22.67752H7.93689"/>
<path transform="matrix(1.00006,0,0,-1.00003,18.63926,64.49855)" stroke-width=".79701" stroke-linecap="butt" stroke-miterlimit="10" stroke-linejoin="miter" fill="none" stroke="#409f9f" d="M3.5911-16.09947 7.74762-17.9168"/>
<path transform="matrix(1.00006,0,0,-1.00003,18.63926,64.49855)" stroke-width=".79701" stroke-linecap="butt" stroke-miterlimit="10" stroke-linejoin="miter" fill="none" stroke="#409f9f" d="M3.85512-9.97816 7.4836-12.69934"/>
<path transform="matrix(1.00006,0,0,-1.00003,18.63926,64.49855)" stroke-width=".79701" stroke-linecap="butt" stroke-miterlimit="10" stroke-linejoin="miter" fill="none" stroke="#409f9f" d="M4.01498-4.1188 7.32373-7.21991"/>
<path transform="matrix(1.00006,0,0,-1.00003,18.63926,64.49855)" stroke-width=".79701" stroke-linecap="butt" stroke-miterlimit="10" stroke-linejoin="miter" fill="none" stroke="#409f9f" d="M4.06621 1.6035 7.2725-1.6035"/>
<path transform="matrix(1.00006,0,0,-1.00003,18.63926,64.49855)" stroke-width=".79701" stroke-linecap="butt" stroke-miterlimit="10" stroke-linejoin="miter" fill="none" stroke="#409f9f" d="M4.01498 7.21991 7.32373 4.1188"/>
<path transform="matrix(1.00006,0,0,-1.00003,18.63926,64.49855)" stroke-width=".79701" stroke-linecap="butt" stroke-miterlimit="10" stroke-linejoin="miter" fill="none" stroke="#409f9f" d="M3.85512 12.69934 7.4836 9.97816"/>
<path transform="matrix(1.00006,0,0,-1.00003,18.63926,64.49855)" stroke-width=".79701" stroke-linecap="butt" stroke-miterlimit="10" stroke-linejoin="miter" fill="none" stroke="#409f9f" d="M3.5911 17.9168 7.74762 16.09947"/>
<path transform="matrix(1.00006,0,0,-1.00003,18.63926,64.49855)" stroke-width=".79701" stroke-linecap="butt" stroke-miterlimit="10" stroke-linejoin="miter" fill="none" stroke="#409f9f" d="M3.40182 22.67752H7.93689"/>
<path transform="matrix(1.00006,0,0,-1.00003,18.63926,64.49855)" stroke-width=".79701" stroke-linecap="butt" stroke-miterlimit="10" stroke-linejoin="miter" fill="none" stroke="#409f9f" d="M3.69319 27.2358 7.64552 29.458"/>
<path transform="matrix(1.00006,0,0,-1.00003,18.63926,64.49855)" stroke-width=".79701" stroke-linecap="butt" stroke-miterlimit="10" stroke-linejoin="miter" fill="none" stroke="#409f9f" d="M4.25342 32.24634 7.0853 35.78621"/>
<path transform="matrix(1.00006,0,0,-1.00003,18.63926,64.49855)" stroke-width=".79701" stroke-linecap="butt" stroke-miterlimit="10" stroke-linejoin="miter" fill="none" stroke="#409f9f" d="M4.68005 37.64514 6.65866 41.7262"/>
<path transform="matrix(1.00006,0,0,-1.00003,18.63926,64.49855)" stroke-width=".79701" stroke-linecap="butt" stroke-miterlimit="10" stroke-linejoin="miter" fill="none" stroke="#409f9f" d="M4.95206 43.20378 6.38666 47.50632"/>
<path transform="matrix(1.00006,0,0,-1.00003,18.63926,64.49855)" stroke-width=".79701" stroke-linecap="butt" stroke-miterlimit="10" stroke-linejoin="miter" fill="none" stroke="#409f9f" d="M5.1275 48.82265 6.21121 53.22621"/>
<path transform="matrix(1.00006,0,0,-1.00003,18.63926,64.49855)" stroke-width=".79701" stroke-linecap="butt" stroke-miterlimit="10" stroke-linejoin="miter" fill="none" stroke="#409f9f" d="M9.36258-29.458 13.31493-27.2358"/>
<path transform="matrix(1.00006,0,0,-1.00003,18.63926,64.49855)" stroke-width=".79701" stroke-linecap="butt" stroke-miterlimit="10" stroke-linejoin="miter" fill="none" stroke="#409f9f" d="M9.07123-22.67752H13.60628"/>
<path transform="matrix(1.00006,0,0,-1.00003,18.63926,64.49855)" stroke-width=".79701" stroke-linecap="butt" stroke-miterlimit="10" stroke-linejoin="miter" fill="none" stroke="#409f9f" d="M9.26048-16.09947 13.41702-17.9168"/>
<path transform="matrix(1.00006,0,0,-1.00003,18.63926,64.49855)" stroke-width=".79701" stroke-linecap="butt" stroke-miterlimit="10" stroke-linejoin="miter" fill="none" stroke="#409f9f" d="M9.52452-9.97816 13.15298-12.69934"/>
<path transform="matrix(1.00006,0,0,-1.00003,18.63926,64.49855)" stroke-width=".79701" stroke-linecap="butt" stroke-miterlimit="10" stroke-linejoin="miter" fill="none" stroke="#409f9f" d="M9.68439-4.1188 12.99312-7.21991"/>
<path transform="matrix(1.00006,0,0,-1.00003,18.63926,64.49855)" stroke-width=".79701" stroke-linecap="butt" stroke-miterlimit="10" stroke-linejoin="miter" fill="none" stroke="#409f9f" d="M9.7356 1.6035 12.94191-1.6035"/>
<path transform="matrix(1.00006,0,0,-1.00003,18.63926,64.49855)" stroke-width=".79701" stroke-linecap="butt" stroke-miterlimit="10" stroke-linejoin="miter" fill="none" stroke="#409f9f" d="M9.68439 7.21991 12.99312 4.1188"/>
<path transform="matrix(1.00006,0,0,-1.00003,18.63926,64.49855)" stroke-width=".79701" stroke-linecap="butt" stroke-miterlimit="10" stroke-linejoin="miter" fill="none" stroke="#409f9f" d="M9.52452 12.69934 13.15298 9.97816"/>
<path transform="matrix(1.00006,0,0,-1.00003,18.63926,64.49855)" stroke-width=".79701" stroke-linecap="butt" stroke-miterlimit="10" stroke-linejoin="miter" fill="none" stroke="#409f9f" d="M9.26048 17.9168 13.41702 16.09947"/>
<path transform="matrix(1.00006,0,0,-1.00003,18.63926,64.49855)" stroke-width=".79701" stroke-linecap="butt" stroke-miterlimit="10" stroke-linejoin="miter" fill="none" stroke="#409f9f" d="M9.07123 22.67752H13.60628"/>
<path transform="matrix(1.00006,0,0,-1.00003,18.63926,64.49855)" stroke-width=".79701" stroke-linecap="butt" stroke-miterlimit="10" stroke-linejoin="miter" fill="none" stroke="#409f9f" d="M9.36258 27.2358 13.31493 29.458"/>
<path transform="matrix(1.00006,0,0,-1.00003,18.63926,64.49855)" stroke-width=".79701" stroke-linecap="butt" stroke-miterlimit="10" stroke-linejoin="miter" fill="none" stroke="#409f9f" d="M9.9228 32.24634 12.7547 35.78621"/>
<path transform="matrix(1.00006,0,0,-1.00003,18.63926,64.49855)" stroke-width=".79701" stroke-linecap="butt" stroke-miterlimit="10" stroke-linejoin="miter" fill="none" stroke="#409f9f" d="M10.34946 37.64514 12.32805 41.7262"/>
<path transform="matrix(1.00006,0,0,-1.00003,18.63926,64.49855)" stroke-width=".79701" stroke-linecap="butt" stroke-miterlimit="10" stroke-linejoin="miter" fill="none" stroke="#409f9f" d="M10.62144 43.20378 12.05606 47.50632"/>
<path transform="matrix(1.00006,0,0,-1.00003,18.63926,64.49855)" stroke-width=".79701" stroke-linecap="butt" stroke-miterlimit="10" stroke-linejoin="miter" fill="none" stroke="#409f9f" d="M10.79689 48.82265 11.88062 53.22621"/>
<path transform="matrix(1.00006,0,0,-1.00003,18.63926,64.49855)" stroke-width=".79701" stroke-linecap="butt" stroke-miterlimit="10" stroke-linejoin="miter" fill="none" stroke="#409f9f" d="M15.03197-29.458 18.9843-27.2358"/>
<path transform="matrix(1.00006,0,0,-1.00003,18.63926,64.49855)" stroke-width=".79701" stroke-linecap="butt" stroke-miterlimit="10" stroke-linejoin="miter" fill="none" stroke="#409f9f" d="M14.7406-22.67752H19.27567"/>
<path transform="matrix(1.00006,0,0,-1.00003,18.63926,64.49855)" stroke-width=".79701" stroke-linecap="butt" stroke-miterlimit="10" stroke-linejoin="miter" fill="none" stroke="#409f9f" d="M14.92987-16.09947 19.0864-17.9168"/>
<path transform="matrix(1.00006,0,0,-1.00003,18.63926,64.49855)" stroke-width=".79701" stroke-linecap="butt" stroke-miterlimit="10" stroke-linejoin="miter" fill="none" stroke="#409f9f" d="M15.1939-9.97816 18.82237-12.69934"/>
<path transform="matrix(1.00006,0,0,-1.00003,18.63926,64.49855)" stroke-width=".79701" stroke-linecap="butt" stroke-miterlimit="10" stroke-linejoin="miter" fill="none" stroke="#409f9f" d="M15.35376-4.1188 18.6625-7.21991"/>
<path transform="matrix(1.00006,0,0,-1.00003,18.63926,64.49855)" stroke-width=".79701" stroke-linecap="butt" stroke-miterlimit="10" stroke-linejoin="miter" fill="none" stroke="#409f9f" d="M15.40498 1.6035 18.61128-1.6035"/>
<path transform="matrix(1.00006,0,0,-1.00003,18.63926,64.49855)" stroke-width=".79701" stroke-linecap="butt" stroke-miterlimit="10" stroke-linejoin="miter" fill="none" stroke="#409f9f" d="M15.35376 7.21991 18.6625 4.1188"/>
<path transform="matrix(1.00006,0,0,-1.00003,18.63926,64.49855)" stroke-width=".79701" stroke-linecap="butt" stroke-miterlimit="10" stroke-linejoin="miter" fill="none" stroke="#409f9f" d="M15.1939 12.69934 18.82237 9.97816"/>
<path transform="matrix(1.00006,0,0,-1.00003,18.63926,64.49855)" stroke-width=".79701" stroke-linecap="butt" stroke-miterlimit="10" stroke-linejoin="miter" fill="none" stroke="#409f9f" d="M14.92987 17.9168 19.0864 16.09947"/>
<path transform="matrix(1.00006,0,0,-1.00003,18.63926,64.49855)" stroke-width=".79701" stroke-linecap="butt" stroke-miterlimit="10" stroke-linejoin="miter" fill="none" stroke="#409f9f" d="M14.7406 22.67752H19.27567"/>
<path transform="matrix(1.00006,0,0,-1.00003,18.63926,64.49855)" stroke-width=".79701" stroke-linecap="butt" stroke-miterlimit="10" stroke-linejoin="miter" fill="none" stroke="#409f9f" d="M15.03197 27.2358 18.9843 29.458"/>
<path transform="matrix(1.00006,0,0,-1.00003,18.63926,64.49855)" stroke-width=".79701" stroke-linecap="butt" stroke-miterlimit="10" stroke-linejoin="miter" fill="none" stroke="#409f9f" d="M15.5922 32.24634 18.42407 35.78621"/>
<path transform="matrix(1.00006,0,0,-1.00003,18.63926,64.49855)" stroke-width=".79701" stroke-linecap="butt" stroke-miterlimit="10" stroke-linejoin="miter" fill="none" stroke="#409f9f" d="M16.01883 37.64514 17.99744 41.7262"/>
<path transform="matrix(1.00006,0,0,-1.00003,18.63926,64.49855)" stroke-width=".79701" stroke-linecap="butt" stroke-miterlimit="10" stroke-linejoin="miter" fill="none" stroke="#409f9f" d="M16.29083 43.20378 17.72543 47.50632"/>
<path transform="matrix(1.00006,0,0,-1.00003,18.63926,64.49855)" stroke-width=".79701" stroke-linecap="butt" stroke-miterlimit="10" stroke-linejoin="miter" fill="none" stroke="#409f9f" d="M16.46628 48.82265 17.54999 53.22621"/>
<path transform="matrix(1.00006,0,0,-1.00003,18.63926,64.49855)" stroke-width=".79701" stroke-linecap="butt" stroke-miterlimit="10" stroke-linejoin="miter" fill="none" stroke="#409f9f" d="M20.70134-29.458 24.65369-27.2358"/>
<path transform="matrix(1.00006,0,0,-1.00003,18.63926,64.49855)" stroke-width=".79701" stroke-linecap="butt" stroke-miterlimit="10" stroke-linejoin="miter" fill="none" stroke="#409f9f" d="M20.40999-22.67752H24.94504"/>
<path transform="matrix(1.00006,0,0,-1.00003,18.63926,64.49855)" stroke-width=".79701" stroke-linecap="butt" stroke-miterlimit="10" stroke-linejoin="miter" fill="none" stroke="#409f9f" d="M20.59924-16.09947 24.75578-17.9168"/>
<path transform="matrix(1.00006,0,0,-1.00003,18.63926,64.49855)" stroke-width=".79701" stroke-linecap="butt" stroke-miterlimit="10" stroke-linejoin="miter" fill="none" stroke="#409f9f" d="M20.86328-9.97816 24.49174-12.69934"/>
<path transform="matrix(1.00006,0,0,-1.00003,18.63926,64.49855)" stroke-width=".79701" stroke-linecap="butt" stroke-miterlimit="10" stroke-linejoin="miter" fill="none" stroke="#409f9f" d="M21.02315-4.1188 24.33188-7.21991"/>
<path transform="matrix(1.00006,0,0,-1.00003,18.63926,64.49855)" stroke-width=".79701" stroke-linecap="butt" stroke-miterlimit="10" stroke-linejoin="miter" fill="none" stroke="#409f9f" d="M21.07436 1.6035 24.28067-1.6035"/>
<path transform="matrix(1.00006,0,0,-1.00003,18.63926,64.49855)" stroke-width=".79701" stroke-linecap="butt" stroke-miterlimit="10" stroke-linejoin="miter" fill="none" stroke="#409f9f" d="M21.02315 7.21991 24.33188 4.1188"/>
<path transform="matrix(1.00006,0,0,-1.00003,18.63926,64.49855)" stroke-width=".79701" stroke-linecap="butt" stroke-miterlimit="10" stroke-linejoin="miter" fill="none" stroke="#409f9f" d="M20.86328 12.69934 24.49174 9.97816"/>
<path transform="matrix(1.00006,0,0,-1.00003,18.63926,64.49855)" stroke-width=".79701" stroke-linecap="butt" stroke-miterlimit="10" stroke-linejoin="miter" fill="none" stroke="#409f9f" d="M20.59924 17.9168 24.75578 16.09947"/>
<path transform="matrix(1.00006,0,0,-1.00003,18.63926,64.49855)" stroke-width=".79701" stroke-linecap="butt" stroke-miterlimit="10" stroke-linejoin="miter" fill="none" stroke="#409f9f" d="M20.40999 22.67752H24.94504"/>
<path transform="matrix(1.00006,0,0,-1.00003,18.63926,64.49855)" stroke-width=".79701" stroke-linecap="butt" stroke-miterlimit="10" stroke-linejoin="miter" fill="none" stroke="#409f9f" d="M20.70134 27.2358 24.65369 29.458"/>
<path transform="matrix(1.00006,0,0,-1.00003,18.63926,64.49855)" stroke-width=".79701" stroke-linecap="butt" stroke-miterlimit="10" stroke-linejoin="miter" fill="none" stroke="#409f9f" d="M21.26157 32.24634 24.09346 35.78621"/>
<path transform="matrix(1.00006,0,0,-1.00003,18.63926,64.49855)" stroke-width=".79701" stroke-linecap="butt" stroke-miterlimit="10" stroke-linejoin="miter" fill="none" stroke="#409f9f" d="M21.68822 37.64514 23.66681 41.7262"/>
<path transform="matrix(1.00006,0,0,-1.00003,18.63926,64.49855)" stroke-width=".79701" stroke-linecap="butt" stroke-miterlimit="10" stroke-linejoin="miter" fill="none" stroke="#409f9f" d="M21.9602 43.20378 23.39482 47.50632"/>
<path transform="matrix(1.00006,0,0,-1.00003,18.63926,64.49855)" stroke-width=".79701" stroke-linecap="butt" stroke-miterlimit="10" stroke-linejoin="miter" fill="none" stroke="#409f9f" d="M22.13565 48.82265 23.21938 53.22621"/>
<path transform="matrix(1.00006,0,0,-1.00003,18.63926,64.49855)" stroke-width=".79701" stroke-linecap="butt" stroke-miterlimit="10" stroke-linejoin="miter" fill="none" stroke="#409f9f" d="M26.37073-29.458 30.32306-27.2358"/>
<path transform="matrix(1.00006,0,0,-1.00003,18.63926,64.49855)" stroke-width=".79701" stroke-linecap="butt" stroke-miterlimit="10" stroke-linejoin="miter" fill="none" stroke="#409f9f" d="M26.07936-22.67752H30.61443"/>
<path transform="matrix(1.00006,0,0,-1.00003,18.63926,64.49855)" stroke-width=".79701" stroke-linecap="butt" stroke-miterlimit="10" stroke-linejoin="miter" fill="none" stroke="#409f9f" d="M26.26863-16.09947 30.42516-17.9168"/>
<path transform="matrix(1.00006,0,0,-1.00003,18.63926,64.49855)" stroke-width=".79701" stroke-linecap="butt" stroke-miterlimit="10" stroke-linejoin="miter" fill="none" stroke="#409f9f" d="M26.53265-9.97816 30.16113-12.69934"/>
<path transform="matrix(1.00006,0,0,-1.00003,18.63926,64.49855)" stroke-width=".79701" stroke-linecap="butt" stroke-miterlimit="10" stroke-linejoin="miter" fill="none" stroke="#409f9f" d="M26.69252-4.1188 30.00127-7.21991"/>
<path transform="matrix(1.00006,0,0,-1.00003,18.63926,64.49855)" stroke-width=".79701" stroke-linecap="butt" stroke-miterlimit="10" stroke-linejoin="miter" fill="none" stroke="#409f9f" d="M26.74374 1.6035 29.95004-1.6035"/>
<path transform="matrix(1.00006,0,0,-1.00003,18.63926,64.49855)" stroke-width=".79701" stroke-linecap="butt" stroke-miterlimit="10" stroke-linejoin="miter" fill="none" stroke="#409f9f" d="M26.69252 7.21991 30.00127 4.1188"/>
<path transform="matrix(1.00006,0,0,-1.00003,18.63926,64.49855)" stroke-width=".79701" stroke-linecap="butt" stroke-miterlimit="10" stroke-linejoin="miter" fill="none" stroke="#409f9f" d="M26.53265 12.69934 30.16113 9.97816"/>
<path transform="matrix(1.00006,0,0,-1.00003,18.63926,64.49855)" stroke-width=".79701" stroke-linecap="butt" stroke-miterlimit="10" stroke-linejoin="miter" fill="none" stroke="#409f9f" d="M26.26863 17.9168 30.42516 16.09947"/>
<path transform="matrix(1.00006,0,0,-1.00003,18.63926,64.49855)" stroke-width=".79701" stroke-linecap="butt" stroke-miterlimit="10" stroke-linejoin="miter" fill="none" stroke="#409f9f" d="M26.07936 22.67752H30.61443"/>
<path transform="matrix(1.00006,0,0,-1.00003,18.63926,64.49855)" stroke-width=".79701" stroke-linecap="butt" stroke-miterlimit="10" stroke-linejoin="miter" fill="none" stroke="#409f9f" d="M26.37073 27.2358 30.32306 29.458"/>
<path transform="matrix(1.00006,0,0,-1.00003,18.63926,64.49855)" stroke-width=".79701" stroke-linecap="butt" stroke-miterlimit="10" stroke-linejoin="miter" fill="none" stroke="#409f9f" d="M26.93095 32.24634 29.76283 35.78621"/>
<path transform="matrix(1.00006,0,0,-1.00003,18.63926,64.49855)" stroke-width=".79701" stroke-linecap="butt" stroke-miterlimit="10" stroke-linejoin="miter" fill="none" stroke="#409f9f" d="M27.35759 37.64514 29.3362 41.7262"/>
<path transform="matrix(1.00006,0,0,-1.00003,18.63926,64.49855)" stroke-width=".79701" stroke-linecap="butt" stroke-miterlimit="10" stroke-linejoin="miter" fill="none" stroke="#409f9f" d="M27.6296 43.20378 29.0642 47.50632"/>
<path transform="matrix(1.00006,0,0,-1.00003,18.63926,64.49855)" stroke-width=".79701" stroke-linecap="butt" stroke-miterlimit="10" stroke-linejoin="miter" fill="none" stroke="#409f9f" d="M27.80504 48.82265 28.88875 53.22621"/>
<path transform="matrix(1.00006,0,0,-1.00003,18.63926,64.49855)" stroke-width=".79701" stroke-linecap="butt" stroke-miterlimit="10" stroke-linejoin="miter" fill="none" stroke="#409f9f" d="M32.0401-29.458 35.99245-27.2358"/>
<path transform="matrix(1.00006,0,0,-1.00003,18.63926,64.49855)" stroke-width=".79701" stroke-linecap="butt" stroke-miterlimit="10" stroke-linejoin="miter" fill="none" stroke="#409f9f" d="M31.74875-22.67752H36.2838"/>
<path transform="matrix(1.00006,0,0,-1.00003,18.63926,64.49855)" stroke-width=".79701" stroke-linecap="butt" stroke-miterlimit="10" stroke-linejoin="miter" fill="none" stroke="#409f9f" d="M31.93802-16.09947 36.09454-17.9168"/>
<path transform="matrix(1.00006,0,0,-1.00003,18.63926,64.49855)" stroke-width=".79701" stroke-linecap="butt" stroke-miterlimit="10" stroke-linejoin="miter" fill="none" stroke="#409f9f" d="M32.20204-9.97816 35.8305-12.69934"/>
<path transform="matrix(1.00006,0,0,-1.00003,18.63926,64.49855)" stroke-width=".79701" stroke-linecap="butt" stroke-miterlimit="10" stroke-linejoin="miter" fill="none" stroke="#409f9f" d="M32.36191-4.1188 35.67064-7.21991"/>
<path transform="matrix(1.00006,0,0,-1.00003,18.63926,64.49855)" stroke-width=".79701" stroke-linecap="butt" stroke-miterlimit="10" stroke-linejoin="miter" fill="none" stroke="#409f9f" d="M32.41312 1.6035 35.61943-1.6035"/>
<path transform="matrix(1.00006,0,0,-1.00003,18.63926,64.49855)" stroke-width=".79701" stroke-linecap="butt" stroke-miterlimit="10" stroke-linejoin="miter" fill="none" stroke="#409f9f" d="M32.36191 7.21991 35.67064 4.1188"/>
<path transform="matrix(1.00006,0,0,-1.00003,18.63926,64.49855)" stroke-width=".79701" stroke-linecap="butt" stroke-miterlimit="10" stroke-linejoin="miter" fill="none" stroke="#409f9f" d="M32.20204 12.69934 35.8305 9.97816"/>
<path transform="matrix(1.00006,0,0,-1.00003,18.63926,64.49855)" stroke-width=".79701" stroke-linecap="butt" stroke-miterlimit="10" stroke-linejoin="miter" fill="none" stroke="#409f9f" d="M31.93802 17.9168 36.09454 16.09947"/>
<path transform="matrix(1.00006,0,0,-1.00003,18.63926,64.49855)" stroke-width=".79701" stroke-linecap="butt" stroke-miterlimit="10" stroke-linejoin="miter" fill="none" stroke="#409f9f" d="M31.74875 22.67752H36.2838"/>
<path transform="matrix(1.00006,0,0,-1.00003,18.63926,64.49855)" stroke-width=".79701" stroke-linecap="butt" stroke-miterlimit="10" stroke-linejoin="miter" fill="none" stroke="#409f9f" d="M32.0401 27.2358 35.99245 29.458"/>
<path transform="matrix(1.00006,0,0,-1.00003,18.63926,64.49855)" stroke-width=".79701" stroke-linecap="butt" stroke-miterlimit="10" stroke-linejoin="miter" fill="none" stroke="#409f9f" d="M32.60033 32.24634 35.43222 35.78621"/>
<path transform="matrix(1.00006,0,0,-1.00003,18.63926,64.49855)" stroke-width=".79701" stroke-linecap="butt" stroke-miterlimit="10" stroke-linejoin="miter" fill="none" stroke="#409f9f" d="M33.02698 37.64514 35.00557 41.7262"/>
<path transform="matrix(1.00006,0,0,-1.00003,18.63926,64.49855)" stroke-width=".79701" stroke-linecap="butt" stroke-miterlimit="10" stroke-linejoin="miter" fill="none" stroke="#409f9f" d="M33.29897 43.20378 34.73358 47.50632"/>
<path transform="matrix(1.00006,0,0,-1.00003,18.63926,64.49855)" stroke-width=".79701" stroke-linecap="butt" stroke-miterlimit="10" stroke-linejoin="miter" fill="none" stroke="#409f9f" d="M33.47441 48.82265 34.55814 53.22621"/>
<path transform="matrix(1.00006,0,0,-1.00003,18.63926,64.49855)" stroke-width=".79701" stroke-linecap="butt" stroke-miterlimit="10" stroke-linejoin="miter" fill="none" stroke="#409f9f" d="M37.7095-29.458 41.66183-27.2358"/>
<path transform="matrix(1.00006,0,0,-1.00003,18.63926,64.49855)" stroke-width=".79701" stroke-linecap="butt" stroke-miterlimit="10" stroke-linejoin="miter" fill="none" stroke="#409f9f" d="M37.41814-22.67752H41.9532"/>
<path transform="matrix(1.00006,0,0,-1.00003,18.63926,64.49855)" stroke-width=".79701" stroke-linecap="butt" stroke-miterlimit="10" stroke-linejoin="miter" fill="none" stroke="#409f9f" d="M37.6074-16.09947 41.76393-17.9168"/>
<path transform="matrix(1.00006,0,0,-1.00003,18.63926,64.49855)" stroke-width=".79701" stroke-linecap="butt" stroke-miterlimit="10" stroke-linejoin="miter" fill="none" stroke="#409f9f" d="M37.87143-9.97816 41.49991-12.69934"/>
<path transform="matrix(1.00006,0,0,-1.00003,18.63926,64.49855)" stroke-width=".79701" stroke-linecap="butt" stroke-miterlimit="10" stroke-linejoin="miter" fill="none" stroke="#409f9f" d="M38.0313-4.1188 41.34004-7.21991"/>
<path transform="matrix(1.00006,0,0,-1.00003,18.63926,64.49855)" stroke-width=".79701" stroke-linecap="butt" stroke-miterlimit="10" stroke-linejoin="miter" fill="none" stroke="#409f9f" d="M38.08252 1.6035 41.28882-1.6035"/>
<path transform="matrix(1.00006,0,0,-1.00003,18.63926,64.49855)" stroke-width=".79701" stroke-linecap="butt" stroke-miterlimit="10" stroke-linejoin="miter" fill="none" stroke="#409f9f" d="M38.0313 7.21991 41.34004 4.1188"/>
<path transform="matrix(1.00006,0,0,-1.00003,18.63926,64.49855)" stroke-width=".79701" stroke-linecap="butt" stroke-miterlimit="10" stroke-linejoin="miter" fill="none" stroke="#409f9f" d="M37.87143 12.69934 41.49991 9.97816"/>
<path transform="matrix(1.00006,0,0,-1.00003,18.63926,64.49855)" stroke-width=".79701" stroke-linecap="butt" stroke-miterlimit="10" stroke-linejoin="miter" fill="none" stroke="#409f9f" d="M37.6074 17.9168 41.76393 16.09947"/>
<path transform="matrix(1.00006,0,0,-1.00003,18.63926,64.49855)" stroke-width=".79701" stroke-linecap="butt" stroke-miterlimit="10" stroke-linejoin="miter" fill="none" stroke="#409f9f" d="M37.41814 22.67752H41.9532"/>
<path transform="matrix(1.00006,0,0,-1.00003,18.63926,64.49855)" stroke-width=".79701" stroke-linecap="butt" stroke-miterlimit="10" stroke-linejoin="miter" fill="none" stroke="#409f9f" d="M37.7095 27.2358 41.66183 29.458"/>
<path transform="matrix(1.00006,0,0,-1.00003,18.63926,64.49855)" stroke-width=".79701" stroke-linecap="butt" stroke-miterlimit="10" stroke-linejoin="miter" fill="none" stroke="#409f9f" d="M38.26973 32.24634 41.10161 35.78621"/>
<path transform="matrix(1.00006,0,0,-1.00003,18.63926,64.49855)" stroke-width=".79701" stroke-linecap="butt" stroke-miterlimit="10" stroke-linejoin="miter" fill="none" stroke="#409f9f" d="M38.69637 37.64514 40.67497 41.7262"/>
<path transform="matrix(1.00006,0,0,-1.00003,18.63926,64.49855)" stroke-width=".79701" stroke-linecap="butt" stroke-miterlimit="10" stroke-linejoin="miter" fill="none" stroke="#409f9f" d="M38.96837 43.20378 40.40297 47.50632"/>
<path transform="matrix(1.00006,0,0,-1.00003,18.63926,64.49855)" stroke-width=".79701" stroke-linecap="butt" stroke-miterlimit="10" stroke-linejoin="miter" fill="none" stroke="#409f9f" d="M39.14381 48.82265 40.22752 53.22621"/>
<path transform="matrix(1.00006,0,0,-1.00003,18.63926,64.49855)" stroke-width=".79701" stroke-linecap="butt" stroke-miterlimit="10" stroke-linejoin="miter" fill="none" stroke="#409f9f" d="M43.37888-29.458 47.33122-27.2358"/>
<path transform="matrix(1.00006,0,0,-1.00003,18.63926,64.49855)" stroke-width=".79701" stroke-linecap="butt" stroke-miterlimit="10" stroke-linejoin="miter" fill="none" stroke="#409f9f" d="M43.08752-22.67752H47.62257"/>
<path transform="matrix(1.00006,0,0,-1.00003,18.63926,64.49855)" stroke-width=".79701" stroke-linecap="butt" stroke-miterlimit="10" stroke-linejoin="miter" fill="none" stroke="#409f9f" d="M43.2768-16.09947 47.43332-17.9168"/>
<path transform="matrix(1.00006,0,0,-1.00003,18.63926,64.49855)" stroke-width=".79701" stroke-linecap="butt" stroke-miterlimit="10" stroke-linejoin="miter" fill="none" stroke="#409f9f" d="M43.54082-9.97816 47.16928-12.69934"/>
<path transform="matrix(1.00006,0,0,-1.00003,18.63926,64.49855)" stroke-width=".79701" stroke-linecap="butt" stroke-miterlimit="10" stroke-linejoin="miter" fill="none" stroke="#409f9f" d="M43.70068-4.1188 47.00941-7.21991"/>
<path transform="matrix(1.00006,0,0,-1.00003,18.63926,64.49855)" stroke-width=".79701" stroke-linecap="butt" stroke-miterlimit="10" stroke-linejoin="miter" fill="none" stroke="#409f9f" d="M43.75189 1.6035 46.9582-1.6035"/>
<path transform="matrix(1.00006,0,0,-1.00003,18.63926,64.49855)" stroke-width=".79701" stroke-linecap="butt" stroke-miterlimit="10" stroke-linejoin="miter" fill="none" stroke="#409f9f" d="M43.70068 7.21991 47.00941 4.1188"/>
<path transform="matrix(1.00006,0,0,-1.00003,18.63926,64.49855)" stroke-width=".79701" stroke-linecap="butt" stroke-miterlimit="10" stroke-linejoin="miter" fill="none" stroke="#409f9f" d="M43.54082 12.69934 47.16928 9.97816"/>
<path transform="matrix(1.00006,0,0,-1.00003,18.63926,64.49855)" stroke-width=".79701" stroke-linecap="butt" stroke-miterlimit="10" stroke-linejoin="miter" fill="none" stroke="#409f9f" d="M43.2768 17.9168 47.43332 16.09947"/>
<path transform="matrix(1.00006,0,0,-1.00003,18.63926,64.49855)" stroke-width=".79701" stroke-linecap="butt" stroke-miterlimit="10" stroke-linejoin="miter" fill="none" stroke="#409f9f" d="M43.08752 22.67752H47.62257"/>
<path transform="matrix(1.00006,0,0,-1.00003,18.63926,64.49855)" stroke-width=".79701" stroke-linecap="butt" stroke-miterlimit="10" stroke-linejoin="miter" fill="none" stroke="#409f9f" d="M43.37888 27.2358 47.33122 29.458"/>
<path transform="matrix(1.00006,0,0,-1.00003,18.63926,64.49855)" stroke-width=".79701" stroke-linecap="butt" stroke-miterlimit="10" stroke-linejoin="miter" fill="none" stroke="#409f9f" d="M43.9391 32.24634 46.771 35.78621"/>
<path transform="matrix(1.00006,0,0,-1.00003,18.63926,64.49855)" stroke-width=".79701" stroke-linecap="butt" stroke-miterlimit="10" stroke-linejoin="miter" fill="none" stroke="#409f9f" d="M44.36575 37.64514 46.34435 41.7262"/>
<path transform="matrix(1.00006,0,0,-1.00003,18.63926,64.49855)" stroke-width=".79701" stroke-linecap="butt" stroke-miterlimit="10" stroke-linejoin="miter" fill="none" stroke="#409f9f" d="M44.63774 43.20378 46.07236 47.50632"/>
<path transform="matrix(1.00006,0,0,-1.00003,18.63926,64.49855)" stroke-width=".79701" stroke-linecap="butt" stroke-miterlimit="10" stroke-linejoin="miter" fill="none" stroke="#409f9f" d="M44.81319 48.82265 45.89691 53.22621"/>
<path transform="matrix(1.00006,0,0,-1.00003,18.63926,64.49855)" stroke-width=".79701" stroke-linecap="butt" stroke-miterlimit="10" stroke-linejoin="miter" fill="none" stroke="#409f9f" d="M49.04826-29.458 53.0006-27.2358"/>
<path transform="matrix(1.00006,0,0,-1.00003,18.63926,64.49855)" stroke-width=".79701" stroke-linecap="butt" stroke-miterlimit="10" stroke-linejoin="miter" fill="none" stroke="#409f9f" d="M48.7569-22.67752H53.29196"/>
<path transform="matrix(1.00006,0,0,-1.00003,18.63926,64.49855)" stroke-width=".79701" stroke-linecap="butt" stroke-miterlimit="10" stroke-linejoin="miter" fill="none" stroke="#409f9f" d="M48.94617-16.09947 53.10269-17.9168"/>
<path transform="matrix(1.00006,0,0,-1.00003,18.63926,64.49855)" stroke-width=".79701" stroke-linecap="butt" stroke-miterlimit="10" stroke-linejoin="miter" fill="none" stroke="#409f9f" d="M49.21019-9.97816 52.83867-12.69934"/>
<path transform="matrix(1.00006,0,0,-1.00003,18.63926,64.49855)" stroke-width=".79701" stroke-linecap="butt" stroke-miterlimit="10" stroke-linejoin="miter" fill="none" stroke="#409f9f" d="M49.37006-4.1188 52.6788-7.21991"/>
<path transform="matrix(1.00006,0,0,-1.00003,18.63926,64.49855)" stroke-width=".79701" stroke-linecap="butt" stroke-miterlimit="10" stroke-linejoin="miter" fill="none" stroke="#409f9f" d="M49.42128 1.6035 52.62758-1.6035"/>
<path transform="matrix(1.00006,0,0,-1.00003,18.63926,64.49855)" stroke-width=".79701" stroke-linecap="butt" stroke-miterlimit="10" stroke-linejoin="miter" fill="none" stroke="#409f9f" d="M49.37006 7.21991 52.6788 4.1188"/>
<path transform="matrix(1.00006,0,0,-1.00003,18.63926,64.49855)" stroke-width=".79701" stroke-linecap="butt" stroke-miterlimit="10" stroke-linejoin="miter" fill="none" stroke="#409f9f" d="M49.21019 12.69934 52.83867 9.97816"/>
<path transform="matrix(1.00006,0,0,-1.00003,18.63926,64.49855)" stroke-width=".79701" stroke-linecap="butt" stroke-miterlimit="10" stroke-linejoin="miter" fill="none" stroke="#409f9f" d="M48.94617 17.9168 53.10269 16.09947"/>
<path transform="matrix(1.00006,0,0,-1.00003,18.63926,64.49855)" stroke-width=".79701" stroke-linecap="butt" stroke-miterlimit="10" stroke-linejoin="miter" fill="none" stroke="#409f9f" d="M48.7569 22.67752H53.29196"/>
<path transform="matrix(1.00006,0,0,-1.00003,18.63926,64.49855)" stroke-width=".79701" stroke-linecap="butt" stroke-miterlimit="10" stroke-linejoin="miter" fill="none" stroke="#409f9f" d="M49.04826 27.2358 53.0006 29.458"/>
<path transform="matrix(1.00006,0,0,-1.00003,18.63926,64.49855)" stroke-width=".79701" stroke-linecap="butt" stroke-miterlimit="10" stroke-linejoin="miter" fill="none" stroke="#409f9f" d="M49.60849 32.24634 52.44037 35.78621"/>
<path transform="matrix(1.00006,0,0,-1.00003,18.63926,64.49855)" stroke-width=".79701" stroke-linecap="butt" stroke-miterlimit="10" stroke-linejoin="miter" fill="none" stroke="#409f9f" d="M50.03513 37.64514 52.01373 41.7262"/>
<path transform="matrix(1.00006,0,0,-1.00003,18.63926,64.49855)" stroke-width=".79701" stroke-linecap="butt" stroke-miterlimit="10" stroke-linejoin="miter" fill="none" stroke="#409f9f" d="M50.30713 43.20378 51.74173 47.50632"/>
<path transform="matrix(1.00006,0,0,-1.00003,18.63926,64.49855)" stroke-width=".79701" stroke-linecap="butt" stroke-miterlimit="10" stroke-linejoin="miter" fill="none" stroke="#409f9f" d="M50.48257 48.82265 51.56628 53.22621"/>
<path transform="matrix(1.00006,0,0,-1.00003,18.63926,64.49855)" stroke-width=".79701" stroke-linecap="butt" stroke-miterlimit="10" stroke-linejoin="miter" fill="none" stroke="#409f9f" d="M54.71764-29.458 58.66998-27.2358"/>
<path transform="matrix(1.00006,0,0,-1.00003,18.63926,64.49855)" stroke-width=".79701" stroke-linecap="butt" stroke-miterlimit="10" stroke-linejoin="miter" fill="none" stroke="#409f9f" d="M54.42628-22.67752H58.96133"/>
<path transform="matrix(1.00006,0,0,-1.00003,18.63926,64.49855)" stroke-width=".79701" stroke-linecap="butt" stroke-miterlimit="10" stroke-linejoin="miter" fill="none" stroke="#409f9f" d="M54.61555-16.09947 58.77208-17.9168"/>
<path transform="matrix(1.00006,0,0,-1.00003,18.63926,64.49855)" stroke-width=".79701" stroke-linecap="butt" stroke-miterlimit="10" stroke-linejoin="miter" fill="none" stroke="#409f9f" d="M54.87958-9.97816 58.50804-12.69934"/>
<path transform="matrix(1.00006,0,0,-1.00003,18.63926,64.49855)" stroke-width=".79701" stroke-linecap="butt" stroke-miterlimit="10" stroke-linejoin="miter" fill="none" stroke="#409f9f" d="M55.03944-4.1188 58.34818-7.21991"/>
<path transform="matrix(1.00006,0,0,-1.00003,18.63926,64.49855)" stroke-width=".79701" stroke-linecap="butt" stroke-miterlimit="10" stroke-linejoin="miter" fill="none" stroke="#409f9f" d="M55.09065 1.6035 58.29697-1.6035"/>
<path transform="matrix(1.00006,0,0,-1.00003,18.63926,64.49855)" stroke-width=".79701" stroke-linecap="butt" stroke-miterlimit="10" stroke-linejoin="miter" fill="none" stroke="#409f9f" d="M55.03944 7.21991 58.34818 4.1188"/>
<path transform="matrix(1.00006,0,0,-1.00003,18.63926,64.49855)" stroke-width=".79701" stroke-linecap="butt" stroke-miterlimit="10" stroke-linejoin="miter" fill="none" stroke="#409f9f" d="M54.87958 12.69934 58.50804 9.97816"/>
<path transform="matrix(1.00006,0,0,-1.00003,18.63926,64.49855)" stroke-width=".79701" stroke-linecap="butt" stroke-miterlimit="10" stroke-linejoin="miter" fill="none" stroke="#409f9f" d="M54.61555 17.9168 58.77208 16.09947"/>
<path transform="matrix(1.00006,0,0,-1.00003,18.63926,64.49855)" stroke-width=".79701" stroke-linecap="butt" stroke-miterlimit="10" stroke-linejoin="miter" fill="none" stroke="#409f9f" d="M54.42628 22.67752H58.96133"/>
<path transform="matrix(1.00006,0,0,-1.00003,18.63926,64.49855)" stroke-width=".79701" stroke-linecap="butt" stroke-miterlimit="10" stroke-linejoin="miter" fill="none" stroke="#409f9f" d="M54.71764 27.2358 58.66998 29.458"/>
<path transform="matrix(1.00006,0,0,-1.00003,18.63926,64.49855)" stroke-width=".79701" stroke-linecap="butt" stroke-miterlimit="10" stroke-linejoin="miter" fill="none" stroke="#409f9f" d="M55.27786 32.24634 58.10976 35.78621"/>
<path transform="matrix(1.00006,0,0,-1.00003,18.63926,64.49855)" stroke-width=".79701" stroke-linecap="butt" stroke-miterlimit="10" stroke-linejoin="miter" fill="none" stroke="#409f9f" d="M55.70451 37.64514 57.6831 41.7262"/>
<path transform="matrix(1.00006,0,0,-1.00003,18.63926,64.49855)" stroke-width=".79701" stroke-linecap="butt" stroke-miterlimit="10" stroke-linejoin="miter" fill="none" stroke="#409f9f" d="M55.9765 43.20378 57.41112 47.50632"/>
<path transform="matrix(1.00006,0,0,-1.00003,18.63926,64.49855)" stroke-width=".79701" stroke-linecap="butt" stroke-miterlimit="10" stroke-linejoin="miter" fill="none" stroke="#409f9f" d="M56.15195 48.82265 57.23567 53.22621"/>
<path transform="matrix(1.00006,0,0,-1.00003,18.63926,64.49855)" stroke-width=".79701" stroke-linecap="butt" stroke-miterlimit="10" stroke-linejoin="miter" fill="none" stroke="#409f9f" d="M60.38704-29.458 64.33937-27.2358"/>
<path transform="matrix(1.00006,0,0,-1.00003,18.63926,64.49855)" stroke-width=".79701" stroke-linecap="butt" stroke-miterlimit="10" stroke-linejoin="miter" fill="none" stroke="#409f9f" d="M60.09567-22.67752H64.63074"/>
<path transform="matrix(1.00006,0,0,-1.00003,18.63926,64.49855)" stroke-width=".79701" stroke-linecap="butt" stroke-miterlimit="10" stroke-linejoin="miter" fill="none" stroke="#409f9f" d="M60.28494-16.09947 64.44147-17.9168"/>
<path transform="matrix(1.00006,0,0,-1.00003,18.63926,64.49855)" stroke-width=".79701" stroke-linecap="butt" stroke-miterlimit="10" stroke-linejoin="miter" fill="none" stroke="#409f9f" d="M60.54897-9.97816 64.17744-12.69934"/>
<path transform="matrix(1.00006,0,0,-1.00003,18.63926,64.49855)" stroke-width=".79701" stroke-linecap="butt" stroke-miterlimit="10" stroke-linejoin="miter" fill="none" stroke="#409f9f" d="M60.70883-4.1188 64.01758-7.21991"/>
<path transform="matrix(1.00006,0,0,-1.00003,18.63926,64.49855)" stroke-width=".79701" stroke-linecap="butt" stroke-miterlimit="10" stroke-linejoin="miter" fill="none" stroke="#409f9f" d="M60.76006 1.6035 63.96635-1.6035"/>
<path transform="matrix(1.00006,0,0,-1.00003,18.63926,64.49855)" stroke-width=".79701" stroke-linecap="butt" stroke-miterlimit="10" stroke-linejoin="miter" fill="none" stroke="#409f9f" d="M60.70883 7.21991 64.01758 4.1188"/>
<path transform="matrix(1.00006,0,0,-1.00003,18.63926,64.49855)" stroke-width=".79701" stroke-linecap="butt" stroke-miterlimit="10" stroke-linejoin="miter" fill="none" stroke="#409f9f" d="M60.54897 12.69934 64.17744 9.97816"/>
<path transform="matrix(1.00006,0,0,-1.00003,18.63926,64.49855)" stroke-width=".79701" stroke-linecap="butt" stroke-miterlimit="10" stroke-linejoin="miter" fill="none" stroke="#409f9f" d="M60.28494 17.9168 64.44147 16.09947"/>
<path transform="matrix(1.00006,0,0,-1.00003,18.63926,64.49855)" stroke-width=".79701" stroke-linecap="butt" stroke-miterlimit="10" stroke-linejoin="miter" fill="none" stroke="#409f9f" d="M60.09567 22.67752H64.63074"/>
<path transform="matrix(1.00006,0,0,-1.00003,18.63926,64.49855)" stroke-width=".79701" stroke-linecap="butt" stroke-miterlimit="10" stroke-linejoin="miter" fill="none" stroke="#409f9f" d="M60.38704 27.2358 64.33937 29.458"/>
<path transform="matrix(1.00006,0,0,-1.00003,18.63926,64.49855)" stroke-width=".79701" stroke-linecap="butt" stroke-miterlimit="10" stroke-linejoin="miter" fill="none" stroke="#409f9f" d="M60.94727 32.24634 63.77914 35.78621"/>
<path transform="matrix(1.00006,0,0,-1.00003,18.63926,64.49855)" stroke-width=".79701" stroke-linecap="butt" stroke-miterlimit="10" stroke-linejoin="miter" fill="none" stroke="#409f9f" d="M61.3739 37.64514 63.35251 41.7262"/>
<path transform="matrix(1.00006,0,0,-1.00003,18.63926,64.49855)" stroke-width=".79701" stroke-linecap="butt" stroke-miterlimit="10" stroke-linejoin="miter" fill="none" stroke="#409f9f" d="M61.6459 43.20378 63.0805 47.50632"/>
<path transform="matrix(1.00006,0,0,-1.00003,18.63926,64.49855)" stroke-width=".79701" stroke-linecap="butt" stroke-miterlimit="10" stroke-linejoin="miter" fill="none" stroke="#409f9f" d="M61.82135 48.82265 62.90506 53.22621"/>
<path transform="matrix(1.00006,0,0,-1.00003,18.63926,64.49855)" stroke-width=".79701" stroke-linecap="butt" stroke-miterlimit="10" stroke-linejoin="miter" fill="none" stroke="#ec008c" d="M-11.33876 10.4792-10.53734 9.83766-9.73593 9.17743-8.93451 8.49713-8.13312 7.79883-7.3317 7.08429-6.53029 6.3521-5.72887 5.60811-4.92747 4.84857-4.12607 4.07968-3.32465 3.29938-2.52325 2.50801-1.72183 1.71457-.92043 .91626-.119 .11555 .68234-.68028 1.48376-1.48099 2.28517-2.27687 3.0866-3.06651 3.88799-3.84924 4.68939-4.62225 5.49081-5.38528 6.2922-6.13477 7.09363-6.87044 7.89503-7.59053 8.69646-8.2933 9.49785-8.97812 10.29927-9.64491 11.10068-10.29095 11.90208-10.91797 12.70349-11.52249 13.5049-12.10591 14.30632-12.66785 15.10771-13.20871 15.90913-13.72775 16.71054-14.2243 17.51196-14.69907 18.31335-15.1534 19.11476-15.58733 19.91618-15.99979 20.71759-16.3922 21.519-16.76488 22.3204-17.11887 23.12183-17.45451 23.92322-17.77252 24.72464-18.07321 25.52605-18.35764 26.32747-18.62582 27.12886-18.87914 27.93027-19.11823 28.73169-19.34315 29.53308-19.55492 30.3345-19.75423 31.13591-19.94179 31.93733-20.11792 32.73872-20.28333 33.54015-20.43869 34.34155-20.58437 35.14296-20.72105 35.94437-20.84943 36.74577-20.96915 37.5472-21.08195 38.34859-21.18716 39.15001-21.28577 39.95142-21.37782 40.75284-21.46432 41.55423-21.54495 42.35564-21.62038 43.15706-21.69098 43.95847-21.75706 44.75987-21.81866 45.56128-21.87611 46.3627-21.9301 47.1641-21.98026 47.96552-22.02698 48.76692-22.07092 49.56833-22.11174 50.36974-22.14981 51.17114-22.18546 51.97256-22.21867 52.77397-22.24982 53.57538-22.27853 54.37679-22.30554 55.1782-22.33078 55.9796-22.35432 56.781-22.37611 57.58243-22.39653 58.38383-22.41592 59.18524-22.43355 59.98665-22.45016 60.78807-22.4654 61.58948-22.47993 62.39088-22.49344 63.19229-22.50589 63.9937-22.51765 64.7951-22.52837 65.59651-22.5384 66.39793-22.5481 67.19934-22.55675 68.00075-22.56505"/>
<path transform="matrix(1.00006,0,0,-1.00003,18.63926,64.49855)" d="M1.19553 0C1.19553 .66026 .66026 1.19553 0 1.19553-.66026 1.19553-1.19553 .66026-1.19553 0-1.19553-.66026-.66026-1.19553 0-1.19553 .66026-1.19553 1.19553-.66026 1.19553 0ZM0 0" fill="#ffffff"/>
<path transform="matrix(1.00006,0,0,-1.00003,18.63926,64.49855)" stroke-width=".3985" stroke-linecap="butt" stroke-miterlimit="10" stroke-linejoin="miter" fill="none" stroke="#000000" d="M1.19553 0C1.19553 .66026 .66026 1.19553 0 1.19553-.66026 1.19553-1.19553 .66026-1.19553 0-1.19553-.66026-.66026-1.19553 0-1.19553 .66026-1.19553 1.19553-.66026 1.19553 0ZM0 0"/>
<path transform="matrix(1.00006,0,0,-1.00003,18.63926,64.49855)" stroke-width=".79701" stroke-linecap="butt" stroke-miterlimit="10" stroke-linejoin="miter" fill="none" stroke="#ec008c" d="M-11.33876 20.52657-10.53734 20.37674-9.73593 20.21722-8.93451 20.04733-8.13312 19.86703-7.3317 19.67397-6.53029 19.4698-5.72887 19.25354-4.92747 19.02203-4.12607 18.77774-3.32465 18.51855-2.52325 18.24277-1.72183 17.9521-.92043 17.64447-.119 17.31956 .68234 16.97768 1.48376 16.61607 2.28517 16.23544 3.0866 15.83472 3.88799 15.41364 4.68939 14.97243 5.49081 14.50943 6.2922 14.02568 7.09363 13.51978 7.89503 12.99243 8.69646 12.44328 9.49785 11.87233 10.29927 11.27992 11.10068 10.66606 11.90208 10.03178 12.70349 9.37709 13.5049 8.70302 14.30632 8.01062 15.10771 7.3009 15.90913 6.57458 16.71054 5.83304 17.51196 5.078 18.31335 4.31119 19.11476 3.53366 19.91618 2.74783 20.71759 1.95506 21.519 1.15779 22.3204 .35709 23.12183-.44394 23.92322-1.24396 24.72464-2.04123 25.52605-2.8333 26.32747-3.61877 27.12886-4.39493 27.93027-5.1607 28.73169-5.914 29.53308-6.65382 30.3345-7.3784 31.13591-8.08675 31.93733-8.77707 32.73872-9.44907 33.54015-10.10135 34.34155-10.73354 35.14296-11.34497 35.94437-11.9353 36.74577-12.50383 37.5472-13.0509 38.34859-13.57585 39.15001-14.07932 39.95142-14.56099 40.75284-15.02122 41.55423-15.46068 42.35564-15.87936 43.15706-16.27766 43.95847-16.65656 44.75987-17.01608 45.56128-17.35693 46.3627-17.68011 47.1641-17.98567 47.96552-18.27495 48.76692-18.54797 49.56833-18.80577 50.36974-19.04868 51.17114-19.27774 51.97256-19.49367 52.77397-19.69646 53.57538-19.88747 54.37679-20.06705 55.1782-20.23557 55.9796-20.3937 56.781-20.54214 57.58243-20.6816 58.38383-20.81206 59.18524-20.93454 59.98665-21.04909 60.78807-21.15671 61.58948-21.25705 62.39088-21.35117 63.19229-21.43942 63.9937-21.52142 64.7951-21.59859 65.59651-21.67056 66.39793-21.73804 67.19934-21.80066 68.00075-21.8595"/>
<path transform="matrix(1.00006,0,0,-1.00003,18.63926,64.49855)" d="M23.87305 0C23.87305 .66026 23.33778 1.19553 22.67752 1.19553 22.01724 1.19553 21.48198 .66026 21.48198 0 21.48198-.66026 22.01724-1.19553 22.67752-1.19553 23.33778-1.19553 23.87305-.66026 23.87305 0ZM22.67752 0" fill="#ffffff"/>
<path transform="matrix(1.00006,0,0,-1.00003,18.63926,64.49855)" stroke-width=".3985" stroke-linecap="butt" stroke-miterlimit="10" stroke-linejoin="miter" fill="none" stroke="#000000" d="M23.87305 0C23.87305 .66026 23.33778 1.19553 22.67752 1.19553 22.01724 1.19553 21.48198 .66026 21.48198 0 21.48198-.66026 22.01724-1.19553 22.67752-1.19553 23.33778-1.19553 23.87305-.66026 23.87305 0ZM22.67752 0"/>
<path transform="matrix(1.00006,0,0,-1.00003,18.63926,64.49855)" stroke-width=".79701" stroke-linecap="butt" stroke-miterlimit="10" stroke-linejoin="miter" fill="none" stroke="#ec008c" d="M-11.33876 22.37404-10.53734 22.35188-9.73593 22.32802-8.93451 22.30275-8.13312 22.27577-7.3317 22.24635-6.53029 22.21523-5.72887 22.18166-4.92747 22.14601-4.12607 22.10724-3.32465 22.06607-2.52325 22.02179-1.72183 21.97473-.92043 21.92421-.119 21.86987 .68234 21.81207 1.48376 21.75015 2.28517 21.68372 3.0866 21.61243 3.88799 21.53665 4.68939 21.45499 5.49081 21.36812 6.2922 21.27539 7.09363 21.17607 7.89503 21.06984 8.69646 20.9567 9.49785 20.83594 10.29927 20.70686 11.10068 20.56914 11.90208 20.42242 12.70349 20.266 13.5049 20.09958 14.30632 19.92241 15.10771 19.73349 15.90913 19.53278 16.71054 19.31963 17.51196 19.09297 18.31335 18.85281 19.11476 18.59781 19.91618 18.32755 20.71759 18.04173 21.519 17.73929 22.3204 17.41922 23.12183 17.08183 23.92322 16.72575 24.72464 16.35068 25.52605 15.95586 26.32747 15.5413 27.12886 15.10565 27.93027 14.64923 28.73169 14.17172 29.53308 13.67238 30.3345 13.15161 31.13591 12.60867 31.93733 12.04396 32.73872 11.45811 33.54015 10.8505 34.34155 10.22244 35.14296 9.57365 35.94437 8.90544 36.74577 8.21823 37.5472 7.51337 38.34859 6.79189 39.15001 6.05486 39.95142 5.30362 40.75284 4.54027 41.55423 3.76584 42.35564 2.98207 43.15706 2.19106 43.95847 1.39484 44.75987 .59515 45.56128-.2062 46.3627-1.00693 47.1641-1.80522 47.96552-2.59903 48.76692-3.38625 49.56833-4.16551 50.36974-4.9344 51.17114-5.69185 51.97256-6.43582 52.77397-7.16492 53.57538-7.87808 54.37679-8.57396 55.1782-9.25148 55.9796-9.90997 56.781-10.54805 57.58243-11.16574 58.38383-11.76228 59.18524-12.3374 59.98665-12.8907 60.78807-13.4222 61.58948-13.9319 62.39088-14.42017 63.19229-14.88696 63.9937-15.33229 64.7951-15.75722 65.59651-16.16173 66.39793-16.54617 67.19934-16.91124 68.00075-17.25761"/>
<path transform="matrix(1.00006,0,0,-1.00003,18.63926,64.49855)" d="M46.55058 0C46.55058 .66026 46.01532 1.19553 45.35506 1.19553 44.69478 1.19553 44.15952 .66026 44.15952 0 44.15952-.66026 44.69478-1.19553 45.35506-1.19553 46.01532-1.19553 46.55058-.66026 46.55058 0ZM45.35506 0" fill="#ffffff"/>
<path transform="matrix(1.00006,0,0,-1.00003,18.63926,64.49855)" stroke-width=".3985" stroke-linecap="butt" stroke-miterlimit="10" stroke-linejoin="miter" fill="none" stroke="#000000" d="M46.55058 0C46.55058 .66026 46.01532 1.19553 45.35506 1.19553 44.69478 1.19553 44.15952 .66026 44.15952 0 44.15952-.66026 44.69478-1.19553 45.35506-1.19553 46.01532-1.19553 46.55058-.66026 46.55058 0ZM45.35506 0"/>
<path transform="matrix(1.00006,0,0,-1.00003,18.63926,64.49855)" stroke-width=".79701" stroke-linecap="butt" stroke-miterlimit="10" stroke-linejoin="miter" fill="none" stroke="#ec008c" d="M-11.33876 22.63635-10.53734 22.63322-9.73593 22.62976-8.93451 22.6263-8.13312 22.62285-7.3317 22.6187-6.53029 22.61453-5.72887 22.6097-4.92747 22.60484-4.12607 22.59967-3.32465 22.59378-2.52325 22.58755-1.72183 22.58096-.92043 22.57405-.119 22.56644 .68234 22.55849 1.48376 22.54982 2.28517 22.54048 3.0866 22.53046 3.88799 22.51971 4.68939 22.5083 5.49081 22.49585 6.2922 22.4827 7.09363 22.46817 7.89503 22.45296 8.69646 22.43666 9.49785 22.41939 10.29927 22.40034 11.10068 22.38028 11.90208 22.35847 12.70349 22.33528 13.5049 22.31071 14.30632 22.28407 15.10771 22.25536 15.90913 22.2249 16.71054 22.19202 17.51196 22.15674 18.31335 22.11902 19.11476 22.07887 19.91618 22.03563 20.71759 21.98926 21.519 21.93977 22.3204 21.88649 23.12183 21.82973 23.92322 21.76884 24.72464 21.70378 25.52605 21.63422 26.32747 21.55948 27.12886 21.4799 27.93027 21.39478 28.73169 21.30377 29.53308 21.20618 30.3345 21.10237 31.13591 20.99129 31.93733 20.87262 32.73872 20.74597 33.54015 20.61102 34.34155 20.46706 35.14296 20.31343 35.94437 20.1501 36.74577 19.97604 37.5472 19.79057 38.34859 19.59369 39.15001 19.38434 39.95142 19.16185 40.75284 18.92548 41.55423 18.67497 42.35564 18.40956 43.15706 18.12823 43.95847 17.83066 44.75987 17.5161 45.56128 17.18391 46.3627 16.83339 47.1641 16.46416 47.96552 16.07523 48.76692 15.66656 49.56833 15.23715 50.36974 14.7873 51.17114 14.31564 51.97256 13.8229 52.77397 13.30835 53.57538 12.772 54.37679 12.21385 55.1782 11.63426 55.9796 11.03319 56.781 10.41104 57.58243 9.76845 58.38383 9.10579 59.18524 8.42412 59.98665 7.72444 60.78807 7.0078 61.58948 6.27527 62.39088 5.5282 63.19229 4.7683 63.9937 3.99666 64.7951 3.21565 65.59651 2.4267 66.39793 1.63187 67.19934 .83322 68.00075 .03181"/>
<path transform="matrix(1.00006,0,0,-1.00003,18.63926,64.49855)" d="M69.22812 0C69.22812 .66026 68.69286 1.19553 68.0326 1.19553 67.37231 1.19553 66.83705 .66026 66.83705 0 66.83705-.66026 67.37231-1.19553 68.0326-1.19553 68.69286-1.19553 69.22812-.66026 69.22812 0ZM68.0326 0" fill="#ffffff"/>
<path transform="matrix(1.00006,0,0,-1.00003,18.63926,64.49855)" stroke-width=".3985" stroke-linecap="butt" stroke-miterlimit="10" stroke-linejoin="miter" fill="none" stroke="#000000" d="M69.22812 0C69.22812 .66026 68.69286 1.19553 68.0326 1.19553 67.37231 1.19553 66.83705 .66026 66.83705 0 66.83705-.66026 67.37231-1.19553 68.0326-1.19553 68.69286-1.19553 69.22812-.66026 69.22812 0ZM68.0326 0"/>
<path transform="matrix(1.00006,0,0,-1.00003,18.63926,64.49855)" d="M1.19553 34.01628C1.19553 34.67654 .66026 35.2118 0 35.2118-.66026 35.2118-1.19553 34.67654-1.19553 34.01628-1.19553 33.356-.66026 32.82074 0 32.82074 .66026 32.82074 1.19553 33.356 1.19553 34.01628ZM0 34.01628" fill="#ffffff"/>
<path transform="matrix(1.00006,0,0,-1.00003,18.63926,64.49855)" stroke-width=".3985" stroke-linecap="butt" stroke-miterlimit="10" stroke-linejoin="miter" fill="none" stroke="#000000" d="M1.19553 34.01628C1.19553 34.67654 .66026 35.2118 0 35.2118-.66026 35.2118-1.19553 34.67654-1.19553 34.01628-1.19553 33.356-.66026 32.82074 0 32.82074 .66026 32.82074 1.19553 33.356 1.19553 34.01628ZM0 34.01628"/>
<path transform="matrix(1.00006,0,0,-1.00003,18.63926,64.49855)" stroke-width=".79701" stroke-linecap="butt" stroke-miterlimit="10" stroke-linejoin="miter" fill="none" stroke="#ec008c" d="M-11.33876 26.27934-11.13356 26.35168-10.92834 26.42366-10.72316 26.49875-10.51796 26.57382-10.31277 26.65134-10.10756 26.72989-9.90237 26.81087-9.69717 26.8939-9.49197 26.97798-9.28677 27.06346-9.08157 27.15205-8.87639 27.24203-8.67119 27.33336-8.46599 27.42679-8.26079 27.5237-8.0556 27.62161-7.8504 27.72266-7.6452 27.82542-7.44 27.92993-7.23482 28.0372-7.02962 28.14655-6.82442 28.259-6.61922 28.37422-6.41403 28.49086-6.20883 28.61057-6.00363 28.7341-5.79843 28.85869-5.59325 28.9881-5.38803 29.11925-5.18285 29.25455-4.97763 29.3933-4.77246 29.53308-4.56725 29.67773-4.36206 29.82584-4.15685 29.97705-3.95166 30.13312-3.74646 30.29161-3.54126 30.45457-3.33606 30.62206-3.13087 30.7923-2.92567 30.96878-2.72047 31.14838-2.51527 31.33142-2.31009 31.5207-2.10489 31.71446-1.89969 31.9131-1.69449 32.11761-1.4893 32.32626-1.2841 32.5408-1.0789 32.76053-.87372 32.98685-.66852 33.21834-.46332 33.4564-.25812 33.70207-.05293 33.95331 .15224 34.208 .35742 34.47339 .56264 34.74606 .7678 35.02704 .97302 35.31493 1.17822 35.61185 1.38342 35.91737 1.58861 36.23123 1.79381 36.55443 1.99901 36.88765 2.2042 37.22987 2.4094 37.58249 2.6146 37.9465 2.8198 38.32195 3.025 38.70847 3.23018 39.10641 3.43538 39.51819 3.64058 39.94347 3.84578 40.38153 4.05096 40.83484 4.25616 41.30232 4.46136 41.78574 4.66656 42.28438 4.87177 42.80168 5.07695 43.33665 5.28217 43.89064 5.48735 44.46437 5.69255 45.05849 5.89774 45.67442 6.10295 46.31287 6.30814 46.97517 6.51332 47.66342 6.71854 48.37762 6.92372 49.12125 7.12894 49.89395 7.3341 50.69778 7.53932 51.53517 7.7445 52.4065 7.94972 53.3169 8.1549 54.26674 8.3601 55.25813 8.5653 56.29312 8.7705 57.37688 8.9757 58.51291"/>
<path transform="matrix(1.00006,0,0,-1.00003,18.63926,64.49855)" d="M23.87305 34.01628C23.87305 34.67654 23.33778 35.2118 22.67752 35.2118 22.01724 35.2118 21.48198 34.67654 21.48198 34.01628 21.48198 33.356 22.01724 32.82074 22.67752 32.82074 23.33778 32.82074 23.87305 33.356 23.87305 34.01628ZM22.67752 34.01628" fill="#ffffff"/>
<path transform="matrix(1.00006,0,0,-1.00003,18.63926,64.49855)" stroke-width=".3985" stroke-linecap="butt" stroke-miterlimit="10" stroke-linejoin="miter" fill="none" stroke="#000000" d="M23.87305 34.01628C23.87305 34.67654 23.33778 35.2118 22.67752 35.2118 22.01724 35.2118 21.48198 34.67654 21.48198 34.01628 21.48198 33.356 22.01724 32.82074 22.67752 32.82074 23.33778 32.82074 23.87305 33.356 23.87305 34.01628ZM22.67752 34.01628"/>
<path transform="matrix(1.00006,0,0,-1.00003,18.63926,64.49855)" stroke-width=".79701" stroke-linecap="butt" stroke-miterlimit="10" stroke-linejoin="miter" fill="none" stroke="#ec008c" d="M-11.33876 23.13359-10.90448 23.15192-10.47021 23.17062-10.03593 23.18999-9.60167 23.21005-9.16739 23.23117-8.73314 23.25296-8.29886 23.2758-7.86458 23.29933-7.43031 23.32425-6.99605 23.34985-6.56177 23.3765-6.12752 23.40419-5.69324 23.4329-5.25897 23.463-4.8247 23.49448-4.39043 23.52669-3.95616 23.56058-3.5219 23.59589-3.08762 23.63257-2.65335 23.67062-2.21909 23.71007-1.7848 23.75125-1.35056 23.79451-.91626 23.83914-.482 23.88551-.04773 23.93431 .38649 23.98448 .82076 24.03673 1.25504 24.09138 1.68932 24.14885 2.12357 24.20802 2.55785 24.26994 2.99211 24.33432 3.42639 24.40144 3.86066 24.47134 4.29494 24.54434 4.72919 24.62013 5.16347 24.69937 5.59775 24.78207 6.032 24.86824 6.46628 24.95822 6.90053 25.05164 7.33481 25.14957 7.76907 25.2513 8.20335 25.35786 8.63762 25.46895 9.0719 25.58522 9.50615 25.706 9.94043 25.83264 10.37471 25.96446 10.80898 26.10254 11.24324 26.24683 11.67752 26.39769 12.11177 26.5555 12.54605 26.7202 12.98032 26.89287 13.41458 27.07315 13.84886 27.26244 14.28311 27.46002 14.7174 27.66728 15.15167 27.88458 15.58594 28.11227 16.0202 28.35106 16.45448 28.60123 16.88875 28.86421 17.32303 29.14035 17.7573 29.42998 18.19156 29.73483 18.62582 30.05525 19.06009 30.39194 19.49437 30.74696 19.92865 31.12068 20.3629 31.51447 20.79718 31.93004 21.23145 32.36813 21.66571 32.83112 22.09999 33.32076 22.53426 33.83841 22.96852 34.38722 23.40279 34.96786 23.83708 35.58415 24.27133 36.23885 24.70561 36.93471 25.13986 37.67557 25.57414 38.46486 26.00842 39.3071 26.44269 40.20747 26.87695 41.17117 27.31123 42.20409 27.74548 43.31313 28.17976 44.50656 28.61404 45.79312 29.0483 47.18314 29.48257 48.68872 29.91684 50.32338 30.35112 52.10301 30.78539 54.04633 31.21965 56.1758 31.65392 58.51671"/>
<path transform="matrix(1.00006,0,0,-1.00003,18.63926,64.49855)" d="M46.55058 34.01628C46.55058 34.67654 46.01532 35.2118 45.35506 35.2118 44.69478 35.2118 44.15952 34.67654 44.15952 34.01628 44.15952 33.356 44.69478 32.82074 45.35506 32.82074 46.01532 32.82074 46.55058 33.356 46.55058 34.01628ZM45.35506 34.01628" fill="#ffffff"/>
<path transform="matrix(1.00006,0,0,-1.00003,18.63926,64.49855)" stroke-width=".3985" stroke-linecap="butt" stroke-miterlimit="10" stroke-linejoin="miter" fill="none" stroke="#000000" d="M46.55058 34.01628C46.55058 34.67654 46.01532 35.2118 45.35506 35.2118 44.69478 35.2118 44.15952 34.67654 44.15952 34.01628 44.15952 33.356 44.69478 32.82074 45.35506 32.82074 46.01532 32.82074 46.55058 33.356 46.55058 34.01628ZM45.35506 34.01628"/>
<path transform="matrix(1.00006,0,0,-1.00003,18.63926,64.49855)" stroke-width=".79701" stroke-linecap="butt" stroke-miterlimit="10" stroke-linejoin="miter" fill="none" stroke="#ec008c" d="M-11.33876 22.73877-10.6754 22.74258-10.01205 22.74638-9.34871 22.75053-8.68536 22.75504-8.02203 22.75952-7.35869 22.76436-6.69536 22.7699-6.032 22.77545-5.36867 22.78131-4.70532 22.78755-4.04198 22.79413-3.37863 22.80104-2.71529 22.80865-2.05194 22.81662-1.3886 22.8249-.72525 22.83391-.06192 22.84326 .60138 22.85329 1.26472 22.86403 1.92805 22.87544 2.59142 22.8872 3.25475 22.90001 3.91809 22.91351 4.58144 22.92769 5.24478 22.94293 5.90814 22.95885 6.57147 22.97614 7.23482 22.99414 7.89815 23.0135 8.5615 23.03392 9.22484 23.05537 9.88818 23.07855 10.55151 23.10278 11.21487 23.12874 11.8782 23.15608 12.54155 23.18515 13.2049 23.2163 13.86824 23.24916 14.53159 23.2841 15.19492 23.32114 15.85826 23.36023 16.5216 23.40211 17.18495 23.44675 17.8483 23.49382 18.51164 23.54398 19.17497 23.59726 19.83833 23.65367 20.50166 23.71388 21.16501 23.7779 21.82834 23.8457 22.49168 23.91805 23.15504 23.99521 23.81837 24.07722 24.48172 24.16405 25.14507 24.2568 25.80841 24.35542 26.47176 24.46027 27.1351 24.57237 27.79843 24.6914 28.46179 24.81876 29.1251 24.95406 29.78847 25.0987 30.4518 25.25269 31.11514 25.41737 31.7785 25.59283 32.44183 25.78072 33.10518 25.98108 33.76852 26.19562 34.43187 26.42505 35.09521 26.67073 35.75856 26.93405 36.42188 27.21606 37.08524 27.5185 37.74857 27.84341 38.41193 28.19257 39.07527 28.56802 39.7386 28.97217 40.40196 29.40782 41.06529 29.87773 41.72864 30.38503 42.39198 30.93382 43.05533 31.52832 43.71866 32.17332 44.382 32.87402 45.04533 33.63667 45.7087 34.46889 46.37202 35.37827 47.03539 36.37448 47.69873 37.46864 48.36206 38.67421 49.02542 40.0061 49.68875 41.48296 50.3521 43.12694 51.01543 44.96437 51.67877 47.02812 52.34212 49.35794 53.00546 52.00475 53.6688 55.0325 54.33215 58.52191"/>
</svg>
