<svg xmlns="http://www.w3.org/2000/svg" xmlns:xlink="http://www.w3.org/1999/xlink" version="1.1" width="118" height="45" viewBox="0 0 118 45">
<defs>
<path id="font_1_1" d="M.42799378 .45222474 .43899537 .49023438H.31199647L.34599305 .6092224 .33399964 .6162262 .23699951 .53923037 .22399903 .49023438H.14299011L.13198853 .45222474H.21499634L.125 .08627319C.10998535 .029266358 .12199402-.01171875 .17199707-.01171875 .2519989-.01171875 .31599427 .054275514 .35598756 .1292572L.33399964 .1462555C.31098939 .10726929 .2599945 .040267946 .22898865 .040267946 .20799256 .040267946 .20799256 .0632782 .21398926 .088272098L.30299378 .45222474H.42799378Z"/>
<path id="font_1_2" d="M.5329895 .48995973C.5039978 .388031 .48799134 .33506776 .46199037 .2741089 .41799928 .173172 .33099366 .040267946 .24798584 .040267946 .21598816 .040267946 .20799256 .070251468 .22299195 .12820435L.31900025 .4970703 .31399537 .50205996 .13198853 .47375489 .12599182 .4497528 .18798828 .44476319C.21199036 .44276429 .21099854 .42778016 .20298767 .39682008L.13398743 .13316345C.11299133 .053253175 .12098694-.01171875 .20098877-.01171875 .29699708-.01171875 .4019928 .09420776 .46199037 .21005249H.46398927L.43099977 .096206668C.4119873 .029266358 .42399598-.01171875 .47698976-.01171875 .548996-.01171875 .60899356 .057250978 .6439972 .13116455L.6199951 .14613343C.59999087 .11218262 .55599978 .040267946 .5279999 .040267946 .5069885 .040267946 .5069885 .06324768 .5149994 .09420776L.621994 .5019531 .5329895 .48995973Z"/>
<path id="font_2_3" d="M.43699647 0V.0289917L.35299684 .035995485C.33198548 .037994386 .31999208 .04598999 .31999208 .08496094V.67367556L.31498719 .6796875 .10899353 .6446991V.6197052L.20199585 .6087036C.21899414 .6067047 .22599793 .5987091 .22599793 .56973269V.08496094C.22599793 .065979007 .22299195 .053985597 .21699524 .04698181 .21199036 .039993287 .20399475 .036987306 .19299317 .035995485L.10899353 .0289917V0H.43699647Z"/>
<path id="font_2_1" d="M.1749878 .2822113C.1749878 .56832888 .2619934 .65437319 .32499696 .66737368V.6923828C.1499939 .685379 .10499573 .46829225 .10499573 .2822113 .10499573 .09614563 .1499939-.12094116 .32499696-.12792969V-.10293579C.2669983-.090927127 .1749878-.0059051516 .1749878 .2822113Z"/>
<path id="font_2_2" d="M.1749878 .2822113C.1749878-.0059051516 .08299255-.090927127 .024993897-.10293579V-.12792969C.19999695-.12094116 .24499512 .09614563 .24499512 .2822113 .24499512 .46829225 .19999695 .685379 .024993897 .6923828V.66737368C.08799744 .65437319 .1749878 .56832888 .1749878 .2822113Z"/>
<path id="font_2_4" d="M.2999878 .17871094V.0769043C.2999878 .04296875 .2889862 .036987306 .2649994 .034988405L.20098877 .0289917V0H.46499635V.0289917L.41999818 .033981325C.39698792 .036987306 .3899994 .04296875 .3899994 .0769043V.17871094H.49299623V.22570801H.3899994V.66796877H.31698609C.22299195 .5298767 .11099243 .35577394 .018997193 .19970703L.027999878 .17871094H.2999878M.09098816 .22570801C.15098572 .33476258 .22099304 .4498291 .2979889 .5709076H.2999878V.22570801H.09098816Z"/>
</defs>
<path transform="matrix(1.00003,0,0,-1.00003,15.342476,29.35243)" stroke-width=".79701" stroke-linecap="butt" stroke-miterlimit="10" stroke-linejoin="miter" fill="none" stroke="#000000" d="M-14.17339 0H98.50645"/>
<path transform="matrix(1.00003,0,0,-1.00003,113.85188,29.35243)" stroke-width=".6376" stroke-linecap="round" stroke-linejoin="round" fill="none" stroke="#000000" d="M-1.55415 2.0722C-1.42464 1.29512 0 .1295 .38852 0 0-.1295-1.42464-1.29512-1.55415-2.0722"/>
<use data-text="t" xlink:href="#font_1_1" transform="matrix(10.036701,0,0,-10.036701,112.42039,39.136728)"/>
<path transform="matrix(1.00003,0,0,-1.00003,15.342476,29.35243)" stroke-width=".79701" stroke-linecap="butt" stroke-miterlimit="10" stroke-linejoin="miter" fill="none" stroke="#000000" d="M0-14.17339V27.63943"/>
<path transform="matrix(0,-1.00003,-1.00003,-0,15.342476,1.7121716)" stroke-width=".6376" stroke-linecap="round" stroke-linejoin="round" fill="none" stroke="#000000" d="M-1.55415 2.0722C-1.42464 1.29512 0 .1295 .38852 0 0-.1295-1.42464-1.29512-1.55415-2.0722"/>
<path transform="matrix(1.00003,0,0,-1.00003,15.342476,29.35243)" stroke-width="1.7008" stroke-linecap="butt" stroke-miterlimit="10" stroke-linejoin="miter" fill="none" stroke="#ff8000" d="M-14.17339 0H14.17339"/>
<path transform="matrix(1.00003,0,0,-1.00003,15.342476,29.35243)" stroke-width=".79701" stroke-linecap="butt" stroke-dasharray="2.98883,2.98883" stroke-miterlimit="10" stroke-linejoin="miter" fill="none" stroke="#ff8000" d="M14.17339 0V14.17339"/>
<path transform="matrix(1.00003,0,0,-1.00003,15.342476,29.35243)" stroke-width="1.7008" stroke-linecap="butt" stroke-miterlimit="10" stroke-linejoin="miter" fill="none" stroke="#ff8000" d="M14.17339 14.17339H99.21382"/>
<path transform="matrix(1.00003,0,0,-1.00003,15.342476,29.35243)" stroke-width=".3985" stroke-linecap="butt" stroke-miterlimit="10" stroke-linejoin="miter" fill="none" stroke="#ff8000" d="M35.43349 14.17339"/>
<use data-text="u" xlink:href="#font_1_2" transform="matrix(9.165875,0,0,-9.165875,40.336229,10.284859)" fill="#ff8000"/>
<use data-text="1" xlink:href="#font_2_3" transform="matrix(6.9661095,0,0,-6.9661095,46.304414,11.778904)" fill="#ff8000"/>
<use data-text="(" xlink:href="#font_2_1" transform="matrix(9.165875,0,0,-9.165875,50.497537,10.28486)" fill="#ff8000"/>
<use data-text="t" xlink:href="#font_1_1" transform="matrix(9.165875,0,0,-9.165875,53.90464,10.28486)" fill="#ff8000"/>
<use data-text=")" xlink:href="#font_2_2" transform="matrix(9.165875,0,0,-9.165875,58.009767,10.28486)" fill="#ff8000"/>
<path transform="matrix(1.00003,0,0,-1.00003,15.342476,29.35243)" stroke-width="2.5512" stroke-linecap="butt" stroke-dasharray="2.5512,3.9851" stroke-miterlimit="10" stroke-linejoin="miter" fill="none" stroke="#0000ff" d="M-14.17339 0H56.69362"/>
<path transform="matrix(1.00003,0,0,-1.00003,15.342476,29.35243)" stroke-width=".3985" stroke-linecap="butt" stroke-dasharray="2.98883,2.98883" stroke-miterlimit="10" stroke-linejoin="miter" fill="none" stroke="#0000ff" d="M56.69362 0V14.17339"/>
<path transform="matrix(1.00003,0,0,-1.00003,15.342476,29.35243)" stroke-width="2.5512" stroke-linecap="butt" stroke-dasharray="2.5512,3.9851" stroke-miterlimit="10" stroke-linejoin="miter" fill="none" stroke="#0000ff" d="M56.69362 14.17339H99.21382"/>
<path transform="matrix(1.00003,0,0,-1.00003,15.342476,29.35243)" stroke-width=".3985" stroke-linecap="butt" stroke-miterlimit="10" stroke-linejoin="miter" fill="none" stroke="#0000ff" d="M77.95372 14.17339"/>
<use data-text="u" xlink:href="#font_1_2" transform="matrix(9.165875,0,0,-9.165875,82.857509,25.063302)" fill="#0000ff"/>
<use data-text="4" xlink:href="#font_2_4" transform="matrix(6.9661095,0,0,-6.9661095,88.82569,26.557347)" fill="#0000ff"/>
<use data-text="(" xlink:href="#font_2_1" transform="matrix(9.165875,0,0,-9.165875,93.018817,25.063303)" fill="#0000ff"/>
<use data-text="t" xlink:href="#font_1_1" transform="matrix(9.165875,0,0,-9.165875,96.42592,25.063303)" fill="#0000ff"/>
<use data-text=")" xlink:href="#font_2_2" transform="matrix(9.165875,0,0,-9.165875,100.531047,25.063303)" fill="#0000ff"/>
<path transform="matrix(1.00003,0,0,-1.00003,15.342476,29.35243)" d="M16.15764 0C16.15764 1.09587 15.26927 1.98425 14.17339 1.98425 13.07751 1.98425 12.18913 1.09587 12.18913 0 12.18913-1.09587 13.07751-1.98425 14.17339-1.98425 15.26927-1.98425 16.15764-1.09587 16.15764 0ZM14.17339 0" fill="#ffffff"/>
<path transform="matrix(1.00003,0,0,-1.00003,15.342476,29.35243)" stroke-width="1.13385" stroke-linecap="butt" stroke-miterlimit="10" stroke-linejoin="miter" fill="none" stroke="#ff8000" d="M16.15764 0C16.15764 1.09587 15.26927 1.98425 14.17339 1.98425 13.07751 1.98425 12.18913 1.09587 12.18913 0 12.18913-1.09587 13.07751-1.98425 14.17339-1.98425 15.26927-1.98425 16.15764-1.09587 16.15764 0ZM14.17339 0"/>
<use data-text="1" xlink:href="#font_2_3" transform="matrix(10.036701,0,0,-10.036701,26.85482,39.839746)"/>
<path transform="matrix(1.00003,0,0,-1.00003,15.342476,29.35243)" d="M16.15764 14.17339C16.15764 15.26927 15.26927 16.15764 14.17339 16.15764 13.07751 16.15764 12.18913 15.26927 12.18913 14.17339 12.18913 13.07751 13.07751 12.18913 14.17339 12.18913 15.26927 12.18913 16.15764 13.07751 16.15764 14.17339ZM14.17339 14.17339" fill="#ff8000"/>
<path transform="matrix(1.00003,0,0,-1.00003,15.342476,29.35243)" stroke-width="1.13385" stroke-linecap="butt" stroke-miterlimit="10" stroke-linejoin="miter" fill="none" stroke="#ff8000" d="M16.15764 14.17339C16.15764 15.26927 15.26927 16.15764 14.17339 16.15764 13.07751 16.15764 12.18913 15.26927 12.18913 14.17339 12.18913 13.07751 13.07751 12.18913 14.17339 12.18913 15.26927 12.18913 16.15764 13.07751 16.15764 14.17339ZM14.17339 14.17339"/>
<path transform="matrix(1.00003,0,0,-1.00003,15.342476,29.35243)" d="M58.67787 0C58.67787 1.09587 57.78949 1.98425 56.69362 1.98425 55.59773 1.98425 54.70937 1.09587 54.70937 0 54.70937-1.09587 55.59773-1.98425 56.69362-1.98425 57.78949-1.98425 58.67787-1.09587 58.67787 0ZM56.69362 0" fill="#ffffff"/>
<path transform="matrix(1.00003,0,0,-1.00003,15.342476,29.35243)" stroke-width="1.13385" stroke-linecap="butt" stroke-miterlimit="10" stroke-linejoin="miter" fill="none" stroke="#0000ff" d="M58.67787 0C58.67787 1.09587 57.78949 1.98425 56.69362 1.98425 55.59773 1.98425 54.70937 1.09587 54.70937 0 54.70937-1.09587 55.59773-1.98425 56.69362-1.98425 57.78949-1.98425 58.67787-1.09587 58.67787 0ZM56.69362 0"/>
<use data-text="4" xlink:href="#font_2_4" transform="matrix(10.036701,0,0,-10.036701,69.3761,39.839746)"/>
<path transform="matrix(1.00003,0,0,-1.00003,15.342476,29.35243)" d="M58.67787 14.17339C58.67787 15.26927 57.78949 16.15764 56.69362 16.15764 55.59773 16.15764 54.70937 15.26927 54.70937 14.17339 54.70937 13.07751 55.59773 12.18913 56.69362 12.18913 57.78949 12.18913 58.67787 13.07751 58.67787 14.17339ZM56.69362 14.17339" fill="#0000ff"/>
<path transform="matrix(1.00003,0,0,-1.00003,15.342476,29.35243)" stroke-width="1.13385" stroke-linecap="butt" stroke-miterlimit="10" stroke-linejoin="miter" fill="none" stroke="#0000ff" d="M58.67787 14.17339C58.67787 15.26927 57.78949 16.15764 56.69362 16.15764 55.59773 16.15764 54.70937 15.26927 54.70937 14.17339 54.70937 13.07751 55.59773 12.18913 56.69362 12.18913 57.78949 12.18913 58.67787 13.07751 58.67787 14.17339ZM56.69362 14.17339"/>
</svg>
