<svg xmlns="http://www.w3.org/2000/svg" xmlns:xlink="http://www.w3.org/1999/xlink" version="1.1" width="82" height="51" viewBox="0 0 82 51">
<defs>
<path id="font_1_1" d="M.42799378 .45222474 .43899537 .49023438H.31199647L.34599305 .6092224 .33399964 .6162262 .23699951 .53923037 .22399903 .49023438H.14299011L.13198853 .45222474H.21499634L.125 .08627319C.10998535 .029266358 .12199402-.01171875 .17199707-.01171875 .2519989-.01171875 .31599427 .054275514 .35598756 .1292572L.33399964 .1462555C.31098939 .10726929 .2599945 .040267946 .22898865 .040267946 .20799256 .040267946 .20799256 .0632782 .21398926 .088272098L.30299378 .45222474H.42799378Z"/>
<path id="font_2_3" d="M.4850006 .13195801 .45700074 .13696289C.43598939 .08299255 .41600038 .07598877 .37599183 .07598877H.11999512C.13598633 .1279602 .19499207 .19892884 .28799439 .2658844 .38398744 .33584596 .45799256 .38082887 .45799256 .49276734 .45799256 .63168337 .3659973 .6796875 .26098634 .6796875 .12399292 .6796875 .052993776 .5967102 .052993776 .54473879 .052993776 .51075747 .09098816 .49476625 .10798645 .49476625 .12599182 .49476625 .1329956 .50476077 .13699341 .5217438 .15299988 .5897064 .19198609 .64468386 .2539978 .64468386 .33099366 .64468386 .35299684 .5797119 .35299684 .50675967 .35299684 .3998108 .29899598 .33984376 .21199036 .26289369 .08898926 .15594483 .04598999 .08798218 .026992798 .009994507L.036987306 0H.45098878L.4850006 .13195801Z"/>
<path id="font_2_4" d="M.2999878 .17871094V.0769043C.2999878 .04296875 .2889862 .036987306 .2649994 .034988405L.20098877 .0289917V0H.46499635V.0289917L.41999818 .033981325C.39698792 .036987306 .3899994 .04296875 .3899994 .0769043V.17871094H.49299623V.22570801H.3899994V.66796877H.31698609C.22299195 .5298767 .11099243 .35577394 .018997193 .19970703L.027999878 .17871094H.2999878M.09098816 .22570801C.15098572 .33476258 .22099304 .4498291 .2979889 .5709076H.2999878V.22570801H.09098816Z"/>
<path id="font_2_1" d="M.07398987 .2861328V.21612549H.31900025V.2861328H.07398987Z"/>
<path id="font_2_2" d="M.43699647 0V.0289917L.35299684 .035995485C.33198548 .037994386 .31999208 .04598999 .31999208 .08496094V.67367556L.31498719 .6796875 .10899353 .6446991V.6197052L.20199585 .6087036C.21899414 .6067047 .22599793 .5987091 .22599793 .56973269V.08496094C.22599793 .065979007 .22299195 .053985597 .21699524 .04698181 .21199036 .039993287 .20399475 .036987306 .19299317 .035995485L.10899353 .0289917V0H.43699647Z"/>
<path id="font_1_2" d="M.5329895 .48995973C.5039978 .388031 .48799134 .33506776 .46199037 .2741089 .41799928 .173172 .33099366 .040267946 .24798584 .040267946 .21598816 .040267946 .20799256 .070251468 .22299195 .12820435L.31900025 .4970703 .31399537 .50205996 .13198853 .47375489 .12599182 .4497528 .18798828 .44476319C.21199036 .44276429 .21099854 .42778016 .20298767 .39682008L.13398743 .13316345C.11299133 .053253175 .12098694-.01171875 .20098877-.01171875 .29699708-.01171875 .4019928 .09420776 .46199037 .21005249H.46398927L.43099977 .096206668C.4119873 .029266358 .42399598-.01171875 .47698976-.01171875 .548996-.01171875 .60899356 .057250978 .6439972 .13116455L.6199951 .14613343C.59999087 .11218262 .55599978 .040267946 .5279999 .040267946 .5069885 .040267946 .5069885 .06324768 .5149994 .09420776L.621994 .5019531 .5329895 .48995973Z"/>
</defs>
<path transform="matrix(1.00003,0,0,-1,18.499543,32.413003)" d="M22.6771-17.00781V30.61404H62.36201V-17.00781ZM62.36201 30.61404" fill="#dfbfbf"/>
<path transform="matrix(1.00003,0,0,-1,18.499543,32.413003)" stroke-width=".3985" stroke-linecap="butt" stroke-miterlimit="10" stroke-linejoin="miter" fill="none" stroke="#000000" d="M-17.00781 0H61.90375"/>
<path transform="matrix(1.00003,0,0,-1,80.40515,32.413003)" stroke-width=".31879" stroke-linecap="round" stroke-linejoin="round" fill="none" stroke="#000000" d="M-1.19551 1.59401C-1.09587 .99626 0 .09961 .29886 0 0-.09961-1.09587-.99626-1.19551-1.59401"/>
<path transform="matrix(1.00003,0,0,-1,18.499543,32.413003)" stroke-width=".3985" stroke-linecap="butt" stroke-miterlimit="10" stroke-linejoin="miter" fill="none" stroke="#000000" d="M0-17.00781V30.15576"/>
<path transform="matrix(0,-1,-1.00003,-0,18.499543,2.2572423)" stroke-width=".31879" stroke-linecap="round" stroke-linejoin="round" fill="none" stroke="#000000" d="M-1.19551 1.59401C-1.09587 .99626 0 .09961 .29886 0 0-.09961-1.09587-.99626-1.19551-1.59401"/>
<use data-text="t" xlink:href="#font_1_1" transform="matrix(9.165875,0,0,-9.1656,76.64228,41.461004)"/>
<path transform="matrix(1.00003,0,0,-1,18.499543,32.413003)" stroke-width=".79701" stroke-linecap="butt" stroke-miterlimit="10" stroke-linejoin="miter" fill="none" stroke="#929292" d="M22.6771 2.26765V-2.26765"/>
<use data-text="2" xlink:href="#font_2_3" transform="matrix(9.165875,0,0,-9.1656,38.74615,41.949007)"/>
<path transform="matrix(1.00003,0,0,-1,18.499543,32.413003)" stroke-width=".79701" stroke-linecap="butt" stroke-miterlimit="10" stroke-linejoin="miter" fill="none" stroke="#929292" d="M45.35419 2.26765V-2.26765"/>
<use data-text="4" xlink:href="#font_2_4" transform="matrix(9.165875,0,0,-9.1656,61.423833,41.949007)"/>
<path transform="matrix(1.00003,0,0,-1,18.499543,32.413003)" stroke-width=".3985" stroke-linecap="butt" stroke-miterlimit="10" stroke-linejoin="miter" fill="none" stroke="#929292" d="M1.13391-11.33855H-1.13391"/>
<use data-text="-" xlink:href="#font_2_1" transform="matrix(7.3327205,0,0,-7.3325,9.46727,46.206)"/>
<use data-text="1" xlink:href="#font_2_2" transform="matrix(7.3327205,0,0,-7.3325,12.34169,46.206)"/>
<path transform="matrix(1.00003,0,0,-1,18.499543,32.413003)" stroke-width=".3985" stroke-linecap="butt" stroke-miterlimit="10" stroke-linejoin="miter" fill="none" stroke="#929292" d="M1.13391 11.33855H-1.13391"/>
<use data-text="1" xlink:href="#font_2_2" transform="matrix(7.3327205,0,0,-7.3325,12.34536,23.529004)"/>
<path transform="matrix(1.00003,0,0,-1,18.499543,32.413003)" stroke-width=".3985" stroke-linecap="butt" stroke-miterlimit="10" stroke-linejoin="miter" fill="none" stroke="#929292" d="M1.13391 22.6771H-1.13391"/>
<use data-text="2" xlink:href="#font_2_3" transform="matrix(7.3327205,0,0,-7.3325,12.34536,12.191002)"/>
<path transform="matrix(1.00003,0,0,-1,18.499543,32.413003)" stroke-width="1.19553" stroke-linecap="butt" stroke-miterlimit="10" stroke-linejoin="miter" fill="none" stroke="#000000" d="M-16.05139 0H-16.61627-16.22476-15.83322-15.44171-15.05017-14.65865-14.2671-13.8756-13.48405-13.09253-12.701-12.30948-11.91795-11.52643-11.13489-10.74336-10.35184-9.96031-9.56879-9.17726-8.78574-8.39421-8.00269-7.61115-7.21962-6.8281-6.43657-6.04504-5.65352-5.262-4.87047-4.47894-4.0874-3.69588-3.30434-2.91283-2.52129-2.12978-1.73824-1.34673-.95518-.56366-.17212 .21936 .61089 1.00241 1.39394 1.78548 2.17699 2.56853 2.96005 3.3516 3.74312 4.13464 4.52617 4.9177 5.30922 5.70074 6.09227 6.48381 6.87534 7.26686 7.65839 8.04991 8.44144 8.83296 9.22449 9.61601 10.00755 10.39908 10.7906 11.18213 11.57365 11.96518 12.3567 12.74823 13.13976 13.53131 13.92282 14.31436 14.70587 15.09741 15.48892 15.88046 16.27197 16.66351 17.05505 17.44658 17.8381 18.22963 18.62115 19.01268 19.4042 19.79573 20.18726 20.5788 20.97032 21.36185 21.75337"/>
<path transform="matrix(-1.00003,-0,0,1,2.44767,32.413003)" stroke-width=".9564" stroke-linecap="round" stroke-linejoin="round" fill="none" stroke="#000000" d="M-1.91284 2.55046C-1.75343 1.59402 0 .15938 .4782 0 0-.15938-1.75343-1.59402-1.91284-2.55046"/>
<path transform="matrix(1.00003,0,0,-1,18.499543,32.413003)" stroke-width="1.19553" stroke-linecap="butt" stroke-miterlimit="10" stroke-linejoin="miter" fill="none" stroke="#000000" d="M22.6771 11.33855H23.07777 23.47847 23.87917 24.27988 24.68057 25.08127 25.48196 25.88268 26.28336 26.68405 27.08475 27.48544 27.88615 28.28685 28.68755 29.08823 29.48894 29.88962 30.29033 30.69102 31.09172 31.49243 31.89311 32.29381 32.6945 33.0952 33.4959 33.8966 34.2973 34.698 35.0987 35.49939 35.90009 36.30078 36.70148 37.10217 37.50288 37.90356 38.30426 38.70497 39.10567 39.50636 39.90706 40.30775 40.70845 41.10915 41.50984 41.91054 42.31125 42.71194 43.11264 43.51334 43.91402 44.31471 44.71542 45.11612 45.51682 45.91753 46.31822 46.7189 47.1196 47.5203 47.92099 48.3217 48.7224 49.1231 49.5238 49.92448 50.32518 50.72588 51.12657 51.52727 51.92798 52.32867 52.72935 53.13007 53.53076 53.93146 54.33215 54.73285 55.13354 55.53426 55.93494 56.33563 56.73634 57.13704 57.53773 57.93843 58.33913 58.7398 59.14052 59.54121 59.94191 60.34262 60.74332 61.14401 61.5447 61.94539 61.38966"/>
<path transform="matrix(1.00003,0,0,-1,79.891048,21.074452)" stroke-width=".9564" stroke-linecap="round" stroke-linejoin="round" fill="none" stroke="#000000" d="M-1.91284 2.55046C-1.75343 1.59402 0 .15938 .4782 0 0-.15938-1.75343-1.59402-1.91284-2.55046"/>
<path transform="matrix(1.00003,0,0,-1,18.499543,32.413003)" d="M24.66962 11.33855C24.66962 12.43898 23.77753 13.33107 22.6771 13.33107 21.57664 13.33107 20.68457 12.43898 20.68457 11.33855 20.68457 10.2381 21.57664 9.34602 22.6771 9.34602 23.77753 9.34602 24.66962 10.2381 24.66962 11.33855ZM22.6771 11.33855"/>
<path transform="matrix(1.00003,0,0,-1,18.499543,32.413003)" stroke-width=".79701" stroke-linecap="butt" stroke-miterlimit="10" stroke-linejoin="miter" fill="none" stroke="#000000" d="M24.2711 0C24.2711 .88036 23.55745 1.59401 22.6771 1.59401 21.79672 1.59401 21.08307 .88036 21.08307 0 21.08307-.88036 21.79672-1.59401 22.6771-1.59401 23.55745-1.59401 24.2711-.88036 24.2711 0ZM22.6771 0"/>
<use data-text="u" xlink:href="#font_1_2" transform="matrix(9.165875,0,0,-9.1656,4.9151308,11.255001)"/>
<use data-text="2" xlink:href="#font_2_3" transform="matrix(6.9661095,0,0,-6.9659,10.882309,12.749001)"/>
</svg>
