<svg xmlns="http://www.w3.org/2000/svg" xmlns:xlink="http://www.w3.org/1999/xlink" version="1.1" width="139" height="53" viewBox="0 0 139 53">
<defs>
<path id="font_1_1" d="M.42799378 .45222474 .43899537 .49023438H.31199647L.34599305 .6092224 .33399964 .6162262 .23699951 .53923037 .22399903 .49023438H.14299011L.13198853 .45222474H.21499634L.125 .08627319C.10998535 .029266358 .12199402-.01171875 .17199707-.01171875 .2519989-.01171875 .31599427 .054275514 .35598756 .1292572L.33399964 .1462555C.31098939 .10726929 .2599945 .040267946 .22898865 .040267946 .20799256 .040267946 .20799256 .0632782 .21398926 .088272098L.30299378 .45222474H.42799378Z"/>
</defs>
<path transform="matrix(1.00006,0,0,-1.00006,1.4910431,33.450048)" d="M29.48083-18.14206V31.7484H72.56802V-18.14206ZM72.56802 31.7484" fill="#bfdfbf"/>
<path transform="matrix(1.00006,0,0,-1.00006,1.4910431,33.450048)" stroke-width=".3985" stroke-linecap="butt" stroke-miterlimit="10" stroke-linejoin="miter" fill="none" stroke="#000000" d="M0 0H135.60692"/>
<path transform="matrix(1.00006,0,0,-1.00006,137.1061,33.450048)" stroke-width=".31879" stroke-linecap="round" stroke-linejoin="round" fill="none" stroke="#000000" d="M-1.19551 1.59401C-1.09587 .99626 0 .09961 .29886 0 0-.09961-1.09587-.99626-1.19551-1.59401"/>
<use data-text="t" xlink:href="#font_1_1" transform="matrix(9.166149,0,0,-9.166149,131.07582,29.970837)"/>
<path transform="matrix(1.00006,0,0,-1.00006,1.4910431,33.450048)" stroke-width=".19925" stroke-linecap="butt" stroke-dasharray="2.98883,2.98883" stroke-miterlimit="10" stroke-linejoin="miter" fill="none" stroke="#000000" d="M29.48083-18.14206V31.7484"/>
<path transform="matrix(1.00006,0,0,-1.00006,1.4910431,33.450048)" stroke-width=".19925" stroke-linecap="butt" stroke-dasharray="2.98883,2.98883" stroke-miterlimit="10" stroke-linejoin="miter" fill="none" stroke="#000000" d="M72.56802-18.14206V31.7484"/>
<path transform="matrix(1.00006,0,0,-1.00006,1.4910431,33.450048)" stroke-width="1.19553" stroke-linecap="butt" stroke-miterlimit="10" stroke-linejoin="miter" fill="none" stroke="#000000" d="M.9564 0H.29758 .59515 .89275 1.19032 1.48792 1.7855 2.08308 2.38066 2.67827 2.97586 3.27344 3.57103 3.8686 4.1662 4.46379 4.76137 5.05896 5.35655 5.65414 5.95174 6.24931 6.54689 6.84448 7.14206 7.43965 7.73726 8.03484 8.33243 8.63 8.9276 9.22519 9.52277 9.82034 10.11794 10.41554 10.71312 11.01071 11.30829 11.60588 11.90347 12.20105 12.49864 12.79623 13.09383 13.39142 13.689 13.98657 14.28416 14.58176 14.87933 15.17693 15.47452 15.77211 16.0697 16.36728 16.66487 16.96245 17.26003 17.55763 17.85522 18.1528 18.4504 18.74797 19.04556 19.34315 19.64073 19.93832 20.2359 20.53351 20.8311 21.12868 21.42625 21.72385 22.02144 22.31902 22.61661 22.9142 23.21179 23.50938 23.80696 24.10455 24.40213 24.6997 24.99731 25.29489 25.59248 25.89008 26.18765 26.48524 26.78284 27.08041 27.378 27.67558 27.97319 28.27078 28.56836 28.86594 29.16353 29.46112"/>
<path transform="matrix(-1.00006,-0,0,1.00006,2.4475005,33.450048)" stroke-width=".9564" stroke-linecap="round" stroke-linejoin="round" fill="none" stroke="#000000" d="M-1.91284 2.55046C-1.75343 1.59402 0 .15938 .4782 0 0-.15938-1.75343-1.59402-1.91284-2.55046"/>
<path transform="matrix(1.00006,0,0,-1.00006,1.4910431,33.450048)" stroke-width="1.19553" stroke-linecap="butt" stroke-miterlimit="10" stroke-linejoin="miter" fill="none" stroke="#000000" d="M72.56802 0H73.20923 73.85042 74.49161 75.13281 75.774 76.4152 77.05638 77.69759 78.33879 78.97998 79.62119 80.26237 80.90358 81.54477 82.18597 82.82716 83.46835 84.10956 84.75075 85.39195 86.03314 86.67435 87.31555 87.95674 88.59795 89.23914 89.88034 90.52153 91.16273 91.80394 92.44513 93.08632 93.72751 94.3687 95.0099 95.6511 96.2923 96.93349 97.57469 98.21588 98.85709 99.49828 100.13948 100.78069 101.42188 102.06308 102.70425 103.34546 103.98666 104.62785 105.26906 105.91025 106.55145 107.19264 107.83385 108.47505 109.11624 109.75745 110.39864 111.03984 111.68102 112.32222 112.96341 113.6046 114.2458 114.887 115.5282 116.16939 116.8106 117.4518 118.09299 118.73419 119.37538 120.01659 120.65778 121.29898 121.94017 122.58136 123.22256 123.86375 124.50496 125.14616 125.78735 126.42856 127.06975 127.71095 128.35214 128.99335 129.63452 130.27573 130.91693 131.55812 132.19931 132.8405 133.4817 134.12291 134.7641 135.4053 135.09008"/>
<path transform="matrix(1.00006,0,0,-1.00006,136.58922,33.450048)" stroke-width=".9564" stroke-linecap="round" stroke-linejoin="round" fill="none" stroke="#000000" d="M-1.91284 2.55046C-1.75343 1.59402 0 .15938 .4782 0 0-.15938-1.75343-1.59402-1.91284-2.55046"/>
</svg>
