<svg xmlns="http://www.w3.org/2000/svg" xmlns:xlink="http://www.w3.org/1999/xlink" version="1.1" width="104" height="106" viewBox="0 0 104 106">
<defs>
<path id="font_1_1" d="M.42799378 .45222474 .43899537 .49023438H.31199647L.34599305 .6092224 .33399964 .6162262 .23699951 .53923037 .22399903 .49023438H.14299011L.13198853 .45222474H.21499634L.125 .08627319C.10998535 .029266358 .12199402-.01171875 .17199707-.01171875 .2519989-.01171875 .31599427 .054275514 .35598756 .1292572L.33399964 .1462555C.31098939 .10726929 .2599945 .040267946 .22898865 .040267946 .20799256 .040267946 .20799256 .0632782 .21398926 .088272098L.30299378 .45222474H.42799378Z"/>
<path id="font_1_2" d="M.070999149 .45393373 .07398987 .42893983 .14199829 .43093873C.1639862 .43193055 .16899109 .41493226 .1769867 .36291505 .18798828 .28489686 .20999146 .09286499 .20999146 .0128479 .20999146-.017166138 .20799256-.058166505 .18598938-.11117554 .16799927-.15318299 .14199829-.18218994 .12199402-.18218994 .10699463-.18218994 .09599304-.17118836 .08099365-.15118408 .068984989-.13517761 .06098938-.127182 .04598999-.127182 .019989014-.12818909-.005004883-.15818787-.005004883-.18719483-.005004883-.21418762 .023986817-.2421875 .067993167-.2421875 .15299988-.2421875 .18998719-.17919922 .27799989-.027160645 .2979889 .0068511965 .35798646 .11286926 .41999818 .21488953 .47698976 .30891419 .5399933 .40592958 .5399933 .4459381 .5399933 .48094178 .5289917 .5019531 .5219879 .5019531 .5029907 .5019531 .46899415 .49394227 .44400025 .47694398 .44499208 .4419403 .44299317 .3809204 .43099977 .33891297 .4149933 .28289796 .35598756 .17488098 .2899933 .06085205H.2869873C.27999879 .21388245 .26098634 .42492677 .24699402 .49795533L.23899842 .5019531 .070999149 .45393373Z"/>
<path id="font_2_2" d="M.2649994 .64468386C.3600006 .64468386 .3869934 .49682618 .3869934 .33398438 .3869934 .17112732 .3600006 .023269654 .2649994 .023269654 .16999817 .023269654 .14299011 .17112732 .14299011 .33398438 .14299011 .49682618 .16999817 .64468386 .2649994 .64468386M.2649994 .6796875C.099990848 .6796875 .040985109 .53378298 .040985109 .33398438 .040985109 .13417053 .099990848-.01171875 .2649994-.01171875 .42999269-.01171875 .4889984 .13417053 .4889984 .33398438 .4889984 .53378298 .42999269 .6796875 .2649994 .6796875Z"/>
<path id="font_2_3" d="M.43699647 0V.0289917L.35299684 .035995485C.33198548 .037994386 .31999208 .04598999 .31999208 .08496094V.67367556L.31498719 .6796875 .10899353 .6446991V.6197052L.20199585 .6087036C.21899414 .6067047 .22599793 .5987091 .22599793 .56973269V.08496094C.22599793 .065979007 .22299195 .053985597 .21699524 .04698181 .21199036 .039993287 .20399475 .036987306 .19299317 .035995485L.10899353 .0289917V0H.43699647Z"/>
<path id="font_2_4" d="M.4850006 .13195801 .45700074 .13696289C.43598939 .08299255 .41600038 .07598877 .37599183 .07598877H.11999512C.13598633 .1279602 .19499207 .19892884 .28799439 .2658844 .38398744 .33584596 .45799256 .38082887 .45799256 .49276734 .45799256 .63168337 .3659973 .6796875 .26098634 .6796875 .12399292 .6796875 .052993776 .5967102 .052993776 .54473879 .052993776 .51075747 .09098816 .49476625 .10798645 .49476625 .12599182 .49476625 .1329956 .50476077 .13699341 .5217438 .15299988 .5897064 .19198609 .64468386 .2539978 .64468386 .33099366 .64468386 .35299684 .5797119 .35299684 .50675967 .35299684 .3998108 .29899598 .33984376 .21199036 .26289369 .08898926 .15594483 .04598999 .08798218 .026992798 .009994507L.036987306 0H.45098878L.4850006 .13195801Z"/>
<path id="font_2_1" d="M.07398987 .2861328V.21612549H.31900025V.2861328H.07398987Z"/>
</defs>
<path transform="matrix(1,0,0,-1.00003,18.638,64.49855)" stroke-width=".3985" stroke-linecap="butt" stroke-miterlimit="10" stroke-linejoin="miter" fill="none" stroke="#cbcbcb" d="M-5.66936-34.01628V56.69382"/>
<path transform="matrix(1,0,0,-1.00003,18.638,64.49855)" stroke-width=".3985" stroke-linecap="butt" stroke-miterlimit="10" stroke-linejoin="miter" fill="none" stroke="#cbcbcb" d="M0-34.01628V56.69382"/>
<path transform="matrix(1,0,0,-1.00003,18.638,64.49855)" stroke-width=".3985" stroke-linecap="butt" stroke-miterlimit="10" stroke-linejoin="miter" fill="none" stroke="#cbcbcb" d="M5.66936-34.01628V56.69382"/>
<path transform="matrix(1,0,0,-1.00003,18.638,64.49855)" stroke-width=".3985" stroke-linecap="butt" stroke-miterlimit="10" stroke-linejoin="miter" fill="none" stroke="#cbcbcb" d="M11.33876-34.01628V56.69382"/>
<path transform="matrix(1,0,0,-1.00003,18.638,64.49855)" stroke-width=".3985" stroke-linecap="butt" stroke-miterlimit="10" stroke-linejoin="miter" fill="none" stroke="#cbcbcb" d="M17.00813-34.01628V56.69382"/>
<path transform="matrix(1,0,0,-1.00003,18.638,64.49855)" stroke-width=".3985" stroke-linecap="butt" stroke-miterlimit="10" stroke-linejoin="miter" fill="none" stroke="#cbcbcb" d="M22.67752-34.01628V56.69382"/>
<path transform="matrix(1,0,0,-1.00003,18.638,64.49855)" stroke-width=".3985" stroke-linecap="butt" stroke-miterlimit="10" stroke-linejoin="miter" fill="none" stroke="#cbcbcb" d="M28.3469-34.01628V56.69382"/>
<path transform="matrix(1,0,0,-1.00003,18.638,64.49855)" stroke-width=".3985" stroke-linecap="butt" stroke-miterlimit="10" stroke-linejoin="miter" fill="none" stroke="#cbcbcb" d="M34.01628-34.01628V56.69382"/>
<path transform="matrix(1,0,0,-1.00003,18.638,64.49855)" stroke-width=".3985" stroke-linecap="butt" stroke-miterlimit="10" stroke-linejoin="miter" fill="none" stroke="#cbcbcb" d="M39.68567-34.01628V56.69382"/>
<path transform="matrix(1,0,0,-1.00003,18.638,64.49855)" stroke-width=".3985" stroke-linecap="butt" stroke-miterlimit="10" stroke-linejoin="miter" fill="none" stroke="#cbcbcb" d="M45.35506-34.01628V56.69382"/>
<path transform="matrix(1,0,0,-1.00003,18.638,64.49855)" stroke-width=".3985" stroke-linecap="butt" stroke-miterlimit="10" stroke-linejoin="miter" fill="none" stroke="#cbcbcb" d="M51.02443-34.01628V56.69382"/>
<path transform="matrix(1,0,0,-1.00003,18.638,64.49855)" stroke-width=".3985" stroke-linecap="butt" stroke-miterlimit="10" stroke-linejoin="miter" fill="none" stroke="#cbcbcb" d="M56.69382-34.01628V56.69382"/>
<path transform="matrix(1,0,0,-1.00003,18.638,64.49855)" stroke-width=".3985" stroke-linecap="butt" stroke-miterlimit="10" stroke-linejoin="miter" fill="none" stroke="#cbcbcb" d="M62.3632-34.01628V56.69382"/>
<path transform="matrix(1,0,0,-1.00003,18.638,64.49855)" stroke-width=".3985" stroke-linecap="butt" stroke-miterlimit="10" stroke-linejoin="miter" fill="none" stroke="#cbcbcb" d="M-11.33876-28.3469H68.0326"/>
<path transform="matrix(1,0,0,-1.00003,18.638,64.49855)" stroke-width=".3985" stroke-linecap="butt" stroke-miterlimit="10" stroke-linejoin="miter" fill="none" stroke="#cbcbcb" d="M-11.33876-22.67752H68.0326"/>
<path transform="matrix(1,0,0,-1.00003,18.638,64.49855)" stroke-width=".3985" stroke-linecap="butt" stroke-miterlimit="10" stroke-linejoin="miter" fill="none" stroke="#cbcbcb" d="M-11.33876-17.00813H68.0326"/>
<path transform="matrix(1,0,0,-1.00003,18.638,64.49855)" stroke-width=".3985" stroke-linecap="butt" stroke-miterlimit="10" stroke-linejoin="miter" fill="none" stroke="#cbcbcb" d="M-11.33876-11.33876H68.0326"/>
<path transform="matrix(1,0,0,-1.00003,18.638,64.49855)" stroke-width=".3985" stroke-linecap="butt" stroke-miterlimit="10" stroke-linejoin="miter" fill="none" stroke="#cbcbcb" d="M-11.33876-5.66936H68.0326"/>
<path transform="matrix(1,0,0,-1.00003,18.638,64.49855)" stroke-width=".3985" stroke-linecap="butt" stroke-miterlimit="10" stroke-linejoin="miter" fill="none" stroke="#cbcbcb" d="M-11.33876 0H68.0326"/>
<path transform="matrix(1,0,0,-1.00003,18.638,64.49855)" stroke-width=".3985" stroke-linecap="butt" stroke-miterlimit="10" stroke-linejoin="miter" fill="none" stroke="#cbcbcb" d="M-11.33876 5.66936H68.0326"/>
<path transform="matrix(1,0,0,-1.00003,18.638,64.49855)" stroke-width=".3985" stroke-linecap="butt" stroke-miterlimit="10" stroke-linejoin="miter" fill="none" stroke="#cbcbcb" d="M-11.33876 11.33876H68.0326"/>
<path transform="matrix(1,0,0,-1.00003,18.638,64.49855)" stroke-width=".3985" stroke-linecap="butt" stroke-miterlimit="10" stroke-linejoin="miter" fill="none" stroke="#cbcbcb" d="M-11.33876 17.00813H68.0326"/>
<path transform="matrix(1,0,0,-1.00003,18.638,64.49855)" stroke-width=".3985" stroke-linecap="butt" stroke-miterlimit="10" stroke-linejoin="miter" fill="none" stroke="#cbcbcb" d="M-11.33876 22.67752H68.0326"/>
<path transform="matrix(1,0,0,-1.00003,18.638,64.49855)" stroke-width=".3985" stroke-linecap="butt" stroke-miterlimit="10" stroke-linejoin="miter" fill="none" stroke="#cbcbcb" d="M-11.33876 28.3469H68.0326"/>
<path transform="matrix(1,0,0,-1.00003,18.638,64.49855)" stroke-width=".3985" stroke-linecap="butt" stroke-miterlimit="10" stroke-linejoin="miter" fill="none" stroke="#cbcbcb" d="M-11.33876 34.01628H68.0326"/>
<path transform="matrix(1,0,0,-1.00003,18.638,64.49855)" stroke-width=".3985" stroke-linecap="butt" stroke-miterlimit="10" stroke-linejoin="miter" fill="none" stroke="#cbcbcb" d="M-11.33876 39.68567H68.0326"/>
<path transform="matrix(1,0,0,-1.00003,18.638,64.49855)" stroke-width=".3985" stroke-linecap="butt" stroke-miterlimit="10" stroke-linejoin="miter" fill="none" stroke="#cbcbcb" d="M-11.33876 45.35506H68.0326"/>
<path transform="matrix(1,0,0,-1.00003,18.638,64.49855)" stroke-width=".3985" stroke-linecap="butt" stroke-miterlimit="10" stroke-linejoin="miter" fill="none" stroke="#cbcbcb" d="M-11.33876 51.02443H68.0326"/>
<path transform="matrix(1,0,0,-1.00003,18.638,64.49855)" stroke-width=".3985" stroke-linecap="butt" stroke-miterlimit="10" stroke-linejoin="miter" fill="none" stroke="#000000" d="M-11.33876 0H74.43741"/>
<path transform="matrix(1,0,0,-1.00003,93.27466,64.49855)" stroke-width=".3985" stroke-linecap="round" stroke-linejoin="round" fill="none" stroke="#000000" d="M-2.07224 2.39104C-1.69365 .95639-.84999 .27895 0 0-.84999-.27895-1.69365-.95639-2.07224-2.39104"/>
<use data-text="t" xlink:href="#font_1_1" transform="matrix(5.4994,0,0,-5.499565,89.467,71.28676)"/>
<path transform="matrix(1,0,0,-1.00003,18.638,64.49855)" stroke-width=".3985" stroke-linecap="butt" stroke-miterlimit="10" stroke-linejoin="miter" fill="none" stroke="#000000" d="M0-34.01628V63.09863"/>
<path transform="matrix(0,-1.00003,-1,-0,18.638,1.1987724)" stroke-width=".3985" stroke-linecap="round" stroke-linejoin="round" fill="none" stroke="#000000" d="M-2.07224 2.39104C-1.69365 .95639-.84999 .27895 0 0-.84999-.27895-1.69365-.95639-2.07224-2.39104"/>
<use data-text="y" xlink:href="#font_1_2" transform="matrix(5.4994,0,0,-5.499565,12.159996,4.518749)"/>
<path transform="matrix(1,0,0,-1.00003,18.638,64.49855)" stroke-width=".3985" stroke-linecap="butt" stroke-miterlimit="10" stroke-linejoin="miter" fill="none" stroke="#cbcbcb" d="M-11.33876-34.01628V56.69382H68.0326V-34.01628ZM68.0326 56.69382"/>
<path transform="matrix(1,0,0,-1.00003,18.638,64.49855)" stroke-width=".3985" stroke-linecap="butt" stroke-miterlimit="10" stroke-linejoin="miter" fill="none" stroke="#000000" d="M0-35.37688V-32.65569"/>
<use data-text="0" xlink:href="#font_2_2" transform="matrix(5.4994,0,0,-5.499565,17.179,104.23674)"/>
<path transform="matrix(1,0,0,-1.00003,18.638,64.49855)" stroke-width=".3985" stroke-linecap="butt" stroke-miterlimit="10" stroke-linejoin="miter" fill="none" stroke="#000000" d="M22.67752-35.37688V-32.65569"/>
<use data-text="1" xlink:href="#font_2_3" transform="matrix(5.4994,0,0,-5.499565,39.857004,104.23674)"/>
<path transform="matrix(1,0,0,-1.00003,18.638,64.49855)" stroke-width=".3985" stroke-linecap="butt" stroke-miterlimit="10" stroke-linejoin="miter" fill="none" stroke="#000000" d="M45.35506-35.37688V-32.65569"/>
<use data-text="2" xlink:href="#font_2_4" transform="matrix(5.4994,0,0,-5.499565,62.535,104.23674)"/>
<path transform="matrix(1,0,0,-1.00003,18.638,64.49855)" stroke-width=".3985" stroke-linecap="butt" stroke-miterlimit="10" stroke-linejoin="miter" fill="none" stroke="#000000" d="M-12.69934-22.67752H-9.07086"/>
<use data-text="-" xlink:href="#font_2_1" transform="matrix(5.4994,0,0,-5.499565,1.0930023,89.01829)"/>
<use data-text="1" xlink:href="#font_2_3" transform="matrix(5.4994,0,0,-5.499565,3.248764,89.01829)"/>
<path transform="matrix(1,0,0,-1.00003,18.638,64.49855)" stroke-width=".3985" stroke-linecap="butt" stroke-miterlimit="10" stroke-linejoin="miter" fill="none" stroke="#000000" d="M-12.69934 0H-9.07086"/>
<use data-text="0" xlink:href="#font_2_2" transform="matrix(5.4994,0,0,-5.499565,3.2509995,66.32461)"/>
<path transform="matrix(1,0,0,-1.00003,18.638,64.49855)" stroke-width=".3985" stroke-linecap="butt" stroke-miterlimit="10" stroke-linejoin="miter" fill="none" stroke="#000000" d="M-12.69934 22.67752H-9.07086"/>
<use data-text="1" xlink:href="#font_2_3" transform="matrix(5.4994,0,0,-5.499565,3.2509995,43.661928)"/>
<path transform="matrix(1,0,0,-1.00003,18.638,64.49855)" stroke-width=".3985" stroke-linecap="butt" stroke-miterlimit="10" stroke-linejoin="miter" fill="none" stroke="#000000" d="M-12.69934 45.35506H-9.07086"/>
<use data-text="2" xlink:href="#font_2_4" transform="matrix(5.4994,0,0,-5.499565,3.2509995,20.983242)"/>
<path transform="matrix(1,0,0,-1.00003,18.638,64.49855)" stroke-width=".79701" stroke-linecap="butt" stroke-miterlimit="10" stroke-linejoin="miter" fill="none" stroke="#409f9f" d="M-7.64552-29.458-3.69319-27.2358"/>
<path transform="matrix(1,0,0,-1.00003,18.638,64.49855)" stroke-width=".79701" stroke-linecap="butt" stroke-miterlimit="10" stroke-linejoin="miter" fill="none" stroke="#409f9f" d="M-7.93689-22.67752H-3.40182"/>
<path transform="matrix(1,0,0,-1.00003,18.638,64.49855)" stroke-width=".79701" stroke-linecap="butt" stroke-miterlimit="10" stroke-linejoin="miter" fill="none" stroke="#409f9f" d="M-7.74762-16.09947-3.5911-17.9168"/>
<path transform="matrix(1,0,0,-1.00003,18.638,64.49855)" stroke-width=".79701" stroke-linecap="butt" stroke-miterlimit="10" stroke-linejoin="miter" fill="none" stroke="#409f9f" d="M-7.4836-9.97816-3.85512-12.69934"/>
<path transform="matrix(1,0,0,-1.00003,18.638,64.49855)" stroke-width=".79701" stroke-linecap="butt" stroke-miterlimit="10" stroke-linejoin="miter" fill="none" stroke="#409f9f" d="M-7.32373-4.1188-4.01498-7.21991"/>
<path transform="matrix(1,0,0,-1.00003,18.638,64.49855)" stroke-width=".79701" stroke-linecap="butt" stroke-miterlimit="10" stroke-linejoin="miter" fill="none" stroke="#409f9f" d="M-7.2725 1.6035-4.06621-1.6035"/>
<path transform="matrix(1,0,0,-1.00003,18.638,64.49855)" stroke-width=".79701" stroke-linecap="butt" stroke-miterlimit="10" stroke-linejoin="miter" fill="none" stroke="#409f9f" d="M-7.32373 7.21991-4.01498 4.1188"/>
<path transform="matrix(1,0,0,-1.00003,18.638,64.49855)" stroke-width=".79701" stroke-linecap="butt" stroke-miterlimit="10" stroke-linejoin="miter" fill="none" stroke="#409f9f" d="M-7.4836 12.69934-3.85512 9.97816"/>
<path transform="matrix(1,0,0,-1.00003,18.638,64.49855)" stroke-width=".79701" stroke-linecap="butt" stroke-miterlimit="10" stroke-linejoin="miter" fill="none" stroke="#409f9f" d="M-7.74762 17.9168-3.5911 16.09947"/>
<path transform="matrix(1,0,0,-1.00003,18.638,64.49855)" stroke-width=".79701" stroke-linecap="butt" stroke-miterlimit="10" stroke-linejoin="miter" fill="none" stroke="#409f9f" d="M-7.93689 22.67752H-3.40182"/>
<path transform="matrix(1,0,0,-1.00003,18.638,64.49855)" stroke-width=".79701" stroke-linecap="butt" stroke-miterlimit="10" stroke-linejoin="miter" fill="none" stroke="#409f9f" d="M-7.64552 27.2358-3.69319 29.458"/>
<path transform="matrix(1,0,0,-1.00003,18.638,64.49855)" stroke-width=".79701" stroke-linecap="butt" stroke-miterlimit="10" stroke-linejoin="miter" fill="none" stroke="#409f9f" d="M-7.0853 32.24634-4.25342 35.78621"/>
<path transform="matrix(1,0,0,-1.00003,18.638,64.49855)" stroke-width=".79701" stroke-linecap="butt" stroke-miterlimit="10" stroke-linejoin="miter" fill="none" stroke="#409f9f" d="M-6.65866 37.64514-4.68005 41.7262"/>
<path transform="matrix(1,0,0,-1.00003,18.638,64.49855)" stroke-width=".79701" stroke-linecap="butt" stroke-miterlimit="10" stroke-linejoin="miter" fill="none" stroke="#409f9f" d="M-6.38666 43.20378-4.95206 47.50632"/>
<path transform="matrix(1,0,0,-1.00003,18.638,64.49855)" stroke-width=".79701" stroke-linecap="butt" stroke-miterlimit="10" stroke-linejoin="miter" fill="none" stroke="#409f9f" d="M-6.21121 48.82265-5.1275 53.22621"/>
<path transform="matrix(1,0,0,-1.00003,18.638,64.49855)" stroke-width=".79701" stroke-linecap="butt" stroke-miterlimit="10" stroke-linejoin="miter" fill="none" stroke="#409f9f" d="M-1.97617-29.458 1.97617-27.2358"/>
<path transform="matrix(1,0,0,-1.00003,18.638,64.49855)" stroke-width=".79701" stroke-linecap="butt" stroke-miterlimit="10" stroke-linejoin="miter" fill="none" stroke="#409f9f" d="M-2.26752-22.67752H2.26752"/>
<path transform="matrix(1,0,0,-1.00003,18.638,64.49855)" stroke-width=".79701" stroke-linecap="butt" stroke-miterlimit="10" stroke-linejoin="miter" fill="none" stroke="#409f9f" d="M-2.07826-16.09947 2.07826-17.9168"/>
<path transform="matrix(1,0,0,-1.00003,18.638,64.49855)" stroke-width=".79701" stroke-linecap="butt" stroke-miterlimit="10" stroke-linejoin="miter" fill="none" stroke="#409f9f" d="M-1.81422-9.97816 1.81422-12.69934"/>
<path transform="matrix(1,0,0,-1.00003,18.638,64.49855)" stroke-width=".79701" stroke-linecap="butt" stroke-miterlimit="10" stroke-linejoin="miter" fill="none" stroke="#409f9f" d="M-1.65436-4.1188 1.65436-7.21991"/>
<path transform="matrix(1,0,0,-1.00003,18.638,64.49855)" stroke-width=".79701" stroke-linecap="butt" stroke-miterlimit="10" stroke-linejoin="miter" fill="none" stroke="#409f9f" d="M-1.60315 1.6035 1.60315-1.6035"/>
<path transform="matrix(1,0,0,-1.00003,18.638,64.49855)" stroke-width=".79701" stroke-linecap="butt" stroke-miterlimit="10" stroke-linejoin="miter" fill="none" stroke="#409f9f" d="M-1.65436 7.21991 1.65436 4.1188"/>
<path transform="matrix(1,0,0,-1.00003,18.638,64.49855)" stroke-width=".79701" stroke-linecap="butt" stroke-miterlimit="10" stroke-linejoin="miter" fill="none" stroke="#409f9f" d="M-1.81422 12.69934 1.81422 9.97816"/>
<path transform="matrix(1,0,0,-1.00003,18.638,64.49855)" stroke-width=".79701" stroke-linecap="butt" stroke-miterlimit="10" stroke-linejoin="miter" fill="none" stroke="#409f9f" d="M-2.07826 17.9168 2.07826 16.09947"/>
<path transform="matrix(1,0,0,-1.00003,18.638,64.49855)" stroke-width=".79701" stroke-linecap="butt" stroke-miterlimit="10" stroke-linejoin="miter" fill="none" stroke="#409f9f" d="M-2.26752 22.67752H2.26752"/>
<path transform="matrix(1,0,0,-1.00003,18.638,64.49855)" stroke-width=".79701" stroke-linecap="butt" stroke-miterlimit="10" stroke-linejoin="miter" fill="none" stroke="#409f9f" d="M-1.97617 27.2358 1.97617 29.458"/>
<path transform="matrix(1,0,0,-1.00003,18.638,64.49855)" stroke-width=".79701" stroke-linecap="butt" stroke-miterlimit="10" stroke-linejoin="miter" fill="none" stroke="#409f9f" d="M-1.41594 32.24634 1.41594 35.78621"/>
<path transform="matrix(1,0,0,-1.00003,18.638,64.49855)" stroke-width=".79701" stroke-linecap="butt" stroke-miterlimit="10" stroke-linejoin="miter" fill="none" stroke="#409f9f" d="M-.98929 37.64514 .98929 41.7262"/>
<path transform="matrix(1,0,0,-1.00003,18.638,64.49855)" stroke-width=".79701" stroke-linecap="butt" stroke-miterlimit="10" stroke-linejoin="miter" fill="none" stroke="#409f9f" d="M-.7173 43.20378 .7173 47.50632"/>
<path transform="matrix(1,0,0,-1.00003,18.638,64.49855)" stroke-width=".79701" stroke-linecap="butt" stroke-miterlimit="10" stroke-linejoin="miter" fill="none" stroke="#409f9f" d="M-.54185 48.82265 .54185 53.22621"/>
<path transform="matrix(1,0,0,-1.00003,18.638,64.49855)" stroke-width=".79701" stroke-linecap="butt" stroke-miterlimit="10" stroke-linejoin="miter" fill="none" stroke="#409f9f" d="M3.69319-29.458 7.64552-27.2358"/>
<path transform="matrix(1,0,0,-1.00003,18.638,64.49855)" stroke-width=".79701" stroke-linecap="butt" stroke-miterlimit="10" stroke-linejoin="miter" fill="none" stroke="#409f9f" d="M3.40182-22.67752H7.93689"/>
<path transform="matrix(1,0,0,-1.00003,18.638,64.49855)" stroke-width=".79701" stroke-linecap="butt" stroke-miterlimit="10" stroke-linejoin="miter" fill="none" stroke="#409f9f" d="M3.5911-16.09947 7.74762-17.9168"/>
<path transform="matrix(1,0,0,-1.00003,18.638,64.49855)" stroke-width=".79701" stroke-linecap="butt" stroke-miterlimit="10" stroke-linejoin="miter" fill="none" stroke="#409f9f" d="M3.85512-9.97816 7.4836-12.69934"/>
<path transform="matrix(1,0,0,-1.00003,18.638,64.49855)" stroke-width=".79701" stroke-linecap="butt" stroke-miterlimit="10" stroke-linejoin="miter" fill="none" stroke="#409f9f" d="M4.01498-4.1188 7.32373-7.21991"/>
<path transform="matrix(1,0,0,-1.00003,18.638,64.49855)" stroke-width=".79701" stroke-linecap="butt" stroke-miterlimit="10" stroke-linejoin="miter" fill="none" stroke="#409f9f" d="M4.06621 1.6035 7.2725-1.6035"/>
<path transform="matrix(1,0,0,-1.00003,18.638,64.49855)" stroke-width=".79701" stroke-linecap="butt" stroke-miterlimit="10" stroke-linejoin="miter" fill="none" stroke="#409f9f" d="M4.01498 7.21991 7.32373 4.1188"/>
<path transform="matrix(1,0,0,-1.00003,18.638,64.49855)" stroke-width=".79701" stroke-linecap="butt" stroke-miterlimit="10" stroke-linejoin="miter" fill="none" stroke="#409f9f" d="M3.85512 12.69934 7.4836 9.97816"/>
<path transform="matrix(1,0,0,-1.00003,18.638,64.49855)" stroke-width=".79701" stroke-linecap="butt" stroke-miterlimit="10" stroke-linejoin="miter" fill="none" stroke="#409f9f" d="M3.5911 17.9168 7.74762 16.09947"/>
<path transform="matrix(1,0,0,-1.00003,18.638,64.49855)" stroke-width=".79701" stroke-linecap="butt" stroke-miterlimit="10" stroke-linejoin="miter" fill="none" stroke="#409f9f" d="M3.40182 22.67752H7.93689"/>
<path transform="matrix(1,0,0,-1.00003,18.638,64.49855)" stroke-width=".79701" stroke-linecap="butt" stroke-miterlimit="10" stroke-linejoin="miter" fill="none" stroke="#409f9f" d="M3.69319 27.2358 7.64552 29.458"/>
<path transform="matrix(1,0,0,-1.00003,18.638,64.49855)" stroke-width=".79701" stroke-linecap="butt" stroke-miterlimit="10" stroke-linejoin="miter" fill="none" stroke="#409f9f" d="M4.25342 32.24634 7.0853 35.78621"/>
<path transform="matrix(1,0,0,-1.00003,18.638,64.49855)" stroke-width=".79701" stroke-linecap="butt" stroke-miterlimit="10" stroke-linejoin="miter" fill="none" stroke="#409f9f" d="M4.68005 37.64514 6.65866 41.7262"/>
<path transform="matrix(1,0,0,-1.00003,18.638,64.49855)" stroke-width=".79701" stroke-linecap="butt" stroke-miterlimit="10" stroke-linejoin="miter" fill="none" stroke="#409f9f" d="M4.95206 43.20378 6.38666 47.50632"/>
<path transform="matrix(1,0,0,-1.00003,18.638,64.49855)" stroke-width=".79701" stroke-linecap="butt" stroke-miterlimit="10" stroke-linejoin="miter" fill="none" stroke="#409f9f" d="M5.1275 48.82265 6.21121 53.22621"/>
<path transform="matrix(1,0,0,-1.00003,18.638,64.49855)" stroke-width=".79701" stroke-linecap="butt" stroke-miterlimit="10" stroke-linejoin="miter" fill="none" stroke="#409f9f" d="M9.36258-29.458 13.31493-27.2358"/>
<path transform="matrix(1,0,0,-1.00003,18.638,64.49855)" stroke-width=".79701" stroke-linecap="butt" stroke-miterlimit="10" stroke-linejoin="miter" fill="none" stroke="#409f9f" d="M9.07123-22.67752H13.60628"/>
<path transform="matrix(1,0,0,-1.00003,18.638,64.49855)" stroke-width=".79701" stroke-linecap="butt" stroke-miterlimit="10" stroke-linejoin="miter" fill="none" stroke="#409f9f" d="M9.26048-16.09947 13.41702-17.9168"/>
<path transform="matrix(1,0,0,-1.00003,18.638,64.49855)" stroke-width=".79701" stroke-linecap="butt" stroke-miterlimit="10" stroke-linejoin="miter" fill="none" stroke="#409f9f" d="M9.52452-9.97816 13.15298-12.69934"/>
<path transform="matrix(1,0,0,-1.00003,18.638,64.49855)" stroke-width=".79701" stroke-linecap="butt" stroke-miterlimit="10" stroke-linejoin="miter" fill="none" stroke="#409f9f" d="M9.68439-4.1188 12.99312-7.21991"/>
<path transform="matrix(1,0,0,-1.00003,18.638,64.49855)" stroke-width=".79701" stroke-linecap="butt" stroke-miterlimit="10" stroke-linejoin="miter" fill="none" stroke="#409f9f" d="M9.7356 1.6035 12.94191-1.6035"/>
<path transform="matrix(1,0,0,-1.00003,18.638,64.49855)" stroke-width=".79701" stroke-linecap="butt" stroke-miterlimit="10" stroke-linejoin="miter" fill="none" stroke="#409f9f" d="M9.68439 7.21991 12.99312 4.1188"/>
<path transform="matrix(1,0,0,-1.00003,18.638,64.49855)" stroke-width=".79701" stroke-linecap="butt" stroke-miterlimit="10" stroke-linejoin="miter" fill="none" stroke="#409f9f" d="M9.52452 12.69934 13.15298 9.97816"/>
<path transform="matrix(1,0,0,-1.00003,18.638,64.49855)" stroke-width=".79701" stroke-linecap="butt" stroke-miterlimit="10" stroke-linejoin="miter" fill="none" stroke="#409f9f" d="M9.26048 17.9168 13.41702 16.09947"/>
<path transform="matrix(1,0,0,-1.00003,18.638,64.49855)" stroke-width=".79701" stroke-linecap="butt" stroke-miterlimit="10" stroke-linejoin="miter" fill="none" stroke="#409f9f" d="M9.07123 22.67752H13.60628"/>
<path transform="matrix(1,0,0,-1.00003,18.638,64.49855)" stroke-width=".79701" stroke-linecap="butt" stroke-miterlimit="10" stroke-linejoin="miter" fill="none" stroke="#409f9f" d="M9.36258 27.2358 13.31493 29.458"/>
<path transform="matrix(1,0,0,-1.00003,18.638,64.49855)" stroke-width=".79701" stroke-linecap="butt" stroke-miterlimit="10" stroke-linejoin="miter" fill="none" stroke="#409f9f" d="M9.9228 32.24634 12.7547 35.78621"/>
<path transform="matrix(1,0,0,-1.00003,18.638,64.49855)" stroke-width=".79701" stroke-linecap="butt" stroke-miterlimit="10" stroke-linejoin="miter" fill="none" stroke="#409f9f" d="M10.34946 37.64514 12.32805 41.7262"/>
<path transform="matrix(1,0,0,-1.00003,18.638,64.49855)" stroke-width=".79701" stroke-linecap="butt" stroke-miterlimit="10" stroke-linejoin="miter" fill="none" stroke="#409f9f" d="M10.62144 43.20378 12.05606 47.50632"/>
<path transform="matrix(1,0,0,-1.00003,18.638,64.49855)" stroke-width=".79701" stroke-linecap="butt" stroke-miterlimit="10" stroke-linejoin="miter" fill="none" stroke="#409f9f" d="M10.79689 48.82265 11.88062 53.22621"/>
<path transform="matrix(1,0,0,-1.00003,18.638,64.49855)" stroke-width=".79701" stroke-linecap="butt" stroke-miterlimit="10" stroke-linejoin="miter" fill="none" stroke="#409f9f" d="M15.03197-29.458 18.9843-27.2358"/>
<path transform="matrix(1,0,0,-1.00003,18.638,64.49855)" stroke-width=".79701" stroke-linecap="butt" stroke-miterlimit="10" stroke-linejoin="miter" fill="none" stroke="#409f9f" d="M14.7406-22.67752H19.27567"/>
<path transform="matrix(1,0,0,-1.00003,18.638,64.49855)" stroke-width=".79701" stroke-linecap="butt" stroke-miterlimit="10" stroke-linejoin="miter" fill="none" stroke="#409f9f" d="M14.92987-16.09947 19.0864-17.9168"/>
<path transform="matrix(1,0,0,-1.00003,18.638,64.49855)" stroke-width=".79701" stroke-linecap="butt" stroke-miterlimit="10" stroke-linejoin="miter" fill="none" stroke="#409f9f" d="M15.1939-9.97816 18.82237-12.69934"/>
<path transform="matrix(1,0,0,-1.00003,18.638,64.49855)" stroke-width=".79701" stroke-linecap="butt" stroke-miterlimit="10" stroke-linejoin="miter" fill="none" stroke="#409f9f" d="M15.35376-4.1188 18.6625-7.21991"/>
<path transform="matrix(1,0,0,-1.00003,18.638,64.49855)" stroke-width=".79701" stroke-linecap="butt" stroke-miterlimit="10" stroke-linejoin="miter" fill="none" stroke="#409f9f" d="M15.40498 1.6035 18.61128-1.6035"/>
<path transform="matrix(1,0,0,-1.00003,18.638,64.49855)" stroke-width=".79701" stroke-linecap="butt" stroke-miterlimit="10" stroke-linejoin="miter" fill="none" stroke="#409f9f" d="M15.35376 7.21991 18.6625 4.1188"/>
<path transform="matrix(1,0,0,-1.00003,18.638,64.49855)" stroke-width=".79701" stroke-linecap="butt" stroke-miterlimit="10" stroke-linejoin="miter" fill="none" stroke="#409f9f" d="M15.1939 12.69934 18.82237 9.97816"/>
<path transform="matrix(1,0,0,-1.00003,18.638,64.49855)" stroke-width=".79701" stroke-linecap="butt" stroke-miterlimit="10" stroke-linejoin="miter" fill="none" stroke="#409f9f" d="M14.92987 17.9168 19.0864 16.09947"/>
<path transform="matrix(1,0,0,-1.00003,18.638,64.49855)" stroke-width=".79701" stroke-linecap="butt" stroke-miterlimit="10" stroke-linejoin="miter" fill="none" stroke="#409f9f" d="M14.7406 22.67752H19.27567"/>
<path transform="matrix(1,0,0,-1.00003,18.638,64.49855)" stroke-width=".79701" stroke-linecap="butt" stroke-miterlimit="10" stroke-linejoin="miter" fill="none" stroke="#409f9f" d="M15.03197 27.2358 18.9843 29.458"/>
<path transform="matrix(1,0,0,-1.00003,18.638,64.49855)" stroke-width=".79701" stroke-linecap="butt" stroke-miterlimit="10" stroke-linejoin="miter" fill="none" stroke="#409f9f" d="M15.5922 32.24634 18.42407 35.78621"/>
<path transform="matrix(1,0,0,-1.00003,18.638,64.49855)" stroke-width=".79701" stroke-linecap="butt" stroke-miterlimit="10" stroke-linejoin="miter" fill="none" stroke="#409f9f" d="M16.01883 37.64514 17.99744 41.7262"/>
<path transform="matrix(1,0,0,-1.00003,18.638,64.49855)" stroke-width=".79701" stroke-linecap="butt" stroke-miterlimit="10" stroke-linejoin="miter" fill="none" stroke="#409f9f" d="M16.29083 43.20378 17.72543 47.50632"/>
<path transform="matrix(1,0,0,-1.00003,18.638,64.49855)" stroke-width=".79701" stroke-linecap="butt" stroke-miterlimit="10" stroke-linejoin="miter" fill="none" stroke="#409f9f" d="M16.46628 48.82265 17.54999 53.22621"/>
<path transform="matrix(1,0,0,-1.00003,18.638,64.49855)" stroke-width=".79701" stroke-linecap="butt" stroke-miterlimit="10" stroke-linejoin="miter" fill="none" stroke="#409f9f" d="M20.70134-29.458 24.65369-27.2358"/>
<path transform="matrix(1,0,0,-1.00003,18.638,64.49855)" stroke-width=".79701" stroke-linecap="butt" stroke-miterlimit="10" stroke-linejoin="miter" fill="none" stroke="#409f9f" d="M20.40999-22.67752H24.94504"/>
<path transform="matrix(1,0,0,-1.00003,18.638,64.49855)" stroke-width=".79701" stroke-linecap="butt" stroke-miterlimit="10" stroke-linejoin="miter" fill="none" stroke="#409f9f" d="M20.59924-16.09947 24.75578-17.9168"/>
<path transform="matrix(1,0,0,-1.00003,18.638,64.49855)" stroke-width=".79701" stroke-linecap="butt" stroke-miterlimit="10" stroke-linejoin="miter" fill="none" stroke="#409f9f" d="M20.86328-9.97816 24.49174-12.69934"/>
<path transform="matrix(1,0,0,-1.00003,18.638,64.49855)" stroke-width=".79701" stroke-linecap="butt" stroke-miterlimit="10" stroke-linejoin="miter" fill="none" stroke="#409f9f" d="M21.02315-4.1188 24.33188-7.21991"/>
<path transform="matrix(1,0,0,-1.00003,18.638,64.49855)" stroke-width=".79701" stroke-linecap="butt" stroke-miterlimit="10" stroke-linejoin="miter" fill="none" stroke="#409f9f" d="M21.07436 1.6035 24.28067-1.6035"/>
<path transform="matrix(1,0,0,-1.00003,18.638,64.49855)" stroke-width=".79701" stroke-linecap="butt" stroke-miterlimit="10" stroke-linejoin="miter" fill="none" stroke="#409f9f" d="M21.02315 7.21991 24.33188 4.1188"/>
<path transform="matrix(1,0,0,-1.00003,18.638,64.49855)" stroke-width=".79701" stroke-linecap="butt" stroke-miterlimit="10" stroke-linejoin="miter" fill="none" stroke="#409f9f" d="M20.86328 12.69934 24.49174 9.97816"/>
<path transform="matrix(1,0,0,-1.00003,18.638,64.49855)" stroke-width=".79701" stroke-linecap="butt" stroke-miterlimit="10" stroke-linejoin="miter" fill="none" stroke="#409f9f" d="M20.59924 17.9168 24.75578 16.09947"/>
<path transform="matrix(1,0,0,-1.00003,18.638,64.49855)" stroke-width=".79701" stroke-linecap="butt" stroke-miterlimit="10" stroke-linejoin="miter" fill="none" stroke="#409f9f" d="M20.40999 22.67752H24.94504"/>
<path transform="matrix(1,0,0,-1.00003,18.638,64.49855)" stroke-width=".79701" stroke-linecap="butt" stroke-miterlimit="10" stroke-linejoin="miter" fill="none" stroke="#409f9f" d="M20.70134 27.2358 24.65369 29.458"/>
<path transform="matrix(1,0,0,-1.00003,18.638,64.49855)" stroke-width=".79701" stroke-linecap="butt" stroke-miterlimit="10" stroke-linejoin="miter" fill="none" stroke="#409f9f" d="M21.26157 32.24634 24.09346 35.78621"/>
<path transform="matrix(1,0,0,-1.00003,18.638,64.49855)" stroke-width=".79701" stroke-linecap="butt" stroke-miterlimit="10" stroke-linejoin="miter" fill="none" stroke="#409f9f" d="M21.68822 37.64514 23.66681 41.7262"/>
<path transform="matrix(1,0,0,-1.00003,18.638,64.49855)" stroke-width=".79701" stroke-linecap="butt" stroke-miterlimit="10" stroke-linejoin="miter" fill="none" stroke="#409f9f" d="M21.9602 43.20378 23.39482 47.50632"/>
<path transform="matrix(1,0,0,-1.00003,18.638,64.49855)" stroke-width=".79701" stroke-linecap="butt" stroke-miterlimit="10" stroke-linejoin="miter" fill="none" stroke="#409f9f" d="M22.13565 48.82265 23.21938 53.22621"/>
<path transform="matrix(1,0,0,-1.00003,18.638,64.49855)" stroke-width=".79701" stroke-linecap="butt" stroke-miterlimit="10" stroke-linejoin="miter" fill="none" stroke="#409f9f" d="M26.37073-29.458 30.32306-27.2358"/>
<path transform="matrix(1,0,0,-1.00003,18.638,64.49855)" stroke-width=".79701" stroke-linecap="butt" stroke-miterlimit="10" stroke-linejoin="miter" fill="none" stroke="#409f9f" d="M26.07936-22.67752H30.61443"/>
<path transform="matrix(1,0,0,-1.00003,18.638,64.49855)" stroke-width=".79701" stroke-linecap="butt" stroke-miterlimit="10" stroke-linejoin="miter" fill="none" stroke="#409f9f" d="M26.26863-16.09947 30.42516-17.9168"/>
<path transform="matrix(1,0,0,-1.00003,18.638,64.49855)" stroke-width=".79701" stroke-linecap="butt" stroke-miterlimit="10" stroke-linejoin="miter" fill="none" stroke="#409f9f" d="M26.53265-9.97816 30.16113-12.69934"/>
<path transform="matrix(1,0,0,-1.00003,18.638,64.49855)" stroke-width=".79701" stroke-linecap="butt" stroke-miterlimit="10" stroke-linejoin="miter" fill="none" stroke="#409f9f" d="M26.69252-4.1188 30.00127-7.21991"/>
<path transform="matrix(1,0,0,-1.00003,18.638,64.49855)" stroke-width=".79701" stroke-linecap="butt" stroke-miterlimit="10" stroke-linejoin="miter" fill="none" stroke="#409f9f" d="M26.74374 1.6035 29.95004-1.6035"/>
<path transform="matrix(1,0,0,-1.00003,18.638,64.49855)" stroke-width=".79701" stroke-linecap="butt" stroke-miterlimit="10" stroke-linejoin="miter" fill="none" stroke="#409f9f" d="M26.69252 7.21991 30.00127 4.1188"/>
<path transform="matrix(1,0,0,-1.00003,18.638,64.49855)" stroke-width=".79701" stroke-linecap="butt" stroke-miterlimit="10" stroke-linejoin="miter" fill="none" stroke="#409f9f" d="M26.53265 12.69934 30.16113 9.97816"/>
<path transform="matrix(1,0,0,-1.00003,18.638,64.49855)" stroke-width=".79701" stroke-linecap="butt" stroke-miterlimit="10" stroke-linejoin="miter" fill="none" stroke="#409f9f" d="M26.26863 17.9168 30.42516 16.09947"/>
<path transform="matrix(1,0,0,-1.00003,18.638,64.49855)" stroke-width=".79701" stroke-linecap="butt" stroke-miterlimit="10" stroke-linejoin="miter" fill="none" stroke="#409f9f" d="M26.07936 22.67752H30.61443"/>
<path transform="matrix(1,0,0,-1.00003,18.638,64.49855)" stroke-width=".79701" stroke-linecap="butt" stroke-miterlimit="10" stroke-linejoin="miter" fill="none" stroke="#409f9f" d="M26.37073 27.2358 30.32306 29.458"/>
<path transform="matrix(1,0,0,-1.00003,18.638,64.49855)" stroke-width=".79701" stroke-linecap="butt" stroke-miterlimit="10" stroke-linejoin="miter" fill="none" stroke="#409f9f" d="M26.93095 32.24634 29.76283 35.78621"/>
<path transform="matrix(1,0,0,-1.00003,18.638,64.49855)" stroke-width=".79701" stroke-linecap="butt" stroke-miterlimit="10" stroke-linejoin="miter" fill="none" stroke="#409f9f" d="M27.35759 37.64514 29.3362 41.7262"/>
<path transform="matrix(1,0,0,-1.00003,18.638,64.49855)" stroke-width=".79701" stroke-linecap="butt" stroke-miterlimit="10" stroke-linejoin="miter" fill="none" stroke="#409f9f" d="M27.6296 43.20378 29.0642 47.50632"/>
<path transform="matrix(1,0,0,-1.00003,18.638,64.49855)" stroke-width=".79701" stroke-linecap="butt" stroke-miterlimit="10" stroke-linejoin="miter" fill="none" stroke="#409f9f" d="M27.80504 48.82265 28.88875 53.22621"/>
<path transform="matrix(1,0,0,-1.00003,18.638,64.49855)" stroke-width=".79701" stroke-linecap="butt" stroke-miterlimit="10" stroke-linejoin="miter" fill="none" stroke="#409f9f" d="M32.0401-29.458 35.99245-27.2358"/>
<path transform="matrix(1,0,0,-1.00003,18.638,64.49855)" stroke-width=".79701" stroke-linecap="butt" stroke-miterlimit="10" stroke-linejoin="miter" fill="none" stroke="#409f9f" d="M31.74875-22.67752H36.2838"/>
<path transform="matrix(1,0,0,-1.00003,18.638,64.49855)" stroke-width=".79701" stroke-linecap="butt" stroke-miterlimit="10" stroke-linejoin="miter" fill="none" stroke="#409f9f" d="M31.93802-16.09947 36.09454-17.9168"/>
<path transform="matrix(1,0,0,-1.00003,18.638,64.49855)" stroke-width=".79701" stroke-linecap="butt" stroke-miterlimit="10" stroke-linejoin="miter" fill="none" stroke="#409f9f" d="M32.20204-9.97816 35.8305-12.69934"/>
<path transform="matrix(1,0,0,-1.00003,18.638,64.49855)" stroke-width=".79701" stroke-linecap="butt" stroke-miterlimit="10" stroke-linejoin="miter" fill="none" stroke="#409f9f" d="M32.36191-4.1188 35.67064-7.21991"/>
<path transform="matrix(1,0,0,-1.00003,18.638,64.49855)" stroke-width=".79701" stroke-linecap="butt" stroke-miterlimit="10" stroke-linejoin="miter" fill="none" stroke="#409f9f" d="M32.41312 1.6035 35.61943-1.6035"/>
<path transform="matrix(1,0,0,-1.00003,18.638,64.49855)" stroke-width=".79701" stroke-linecap="butt" stroke-miterlimit="10" stroke-linejoin="miter" fill="none" stroke="#409f9f" d="M32.36191 7.21991 35.67064 4.1188"/>
<path transform="matrix(1,0,0,-1.00003,18.638,64.49855)" stroke-width=".79701" stroke-linecap="butt" stroke-miterlimit="10" stroke-linejoin="miter" fill="none" stroke="#409f9f" d="M32.20204 12.69934 35.8305 9.97816"/>
<path transform="matrix(1,0,0,-1.00003,18.638,64.49855)" stroke-width=".79701" stroke-linecap="butt" stroke-miterlimit="10" stroke-linejoin="miter" fill="none" stroke="#409f9f" d="M31.93802 17.9168 36.09454 16.09947"/>
<path transform="matrix(1,0,0,-1.00003,18.638,64.49855)" stroke-width=".79701" stroke-linecap="butt" stroke-miterlimit="10" stroke-linejoin="miter" fill="none" stroke="#409f9f" d="M31.74875 22.67752H36.2838"/>
<path transform="matrix(1,0,0,-1.00003,18.638,64.49855)" stroke-width=".79701" stroke-linecap="butt" stroke-miterlimit="10" stroke-linejoin="miter" fill="none" stroke="#409f9f" d="M32.0401 27.2358 35.99245 29.458"/>
<path transform="matrix(1,0,0,-1.00003,18.638,64.49855)" stroke-width=".79701" stroke-linecap="butt" stroke-miterlimit="10" stroke-linejoin="miter" fill="none" stroke="#409f9f" d="M32.60033 32.24634 35.43222 35.78621"/>
<path transform="matrix(1,0,0,-1.00003,18.638,64.49855)" stroke-width=".79701" stroke-linecap="butt" stroke-miterlimit="10" stroke-linejoin="miter" fill="none" stroke="#409f9f" d="M33.02698 37.64514 35.00557 41.7262"/>
<path transform="matrix(1,0,0,-1.00003,18.638,64.49855)" stroke-width=".79701" stroke-linecap="butt" stroke-miterlimit="10" stroke-linejoin="miter" fill="none" stroke="#409f9f" d="M33.29897 43.20378 34.73358 47.50632"/>
<path transform="matrix(1,0,0,-1.00003,18.638,64.49855)" stroke-width=".79701" stroke-linecap="butt" stroke-miterlimit="10" stroke-linejoin="miter" fill="none" stroke="#409f9f" d="M33.47441 48.82265 34.55814 53.22621"/>
<path transform="matrix(1,0,0,-1.00003,18.638,64.49855)" stroke-width=".79701" stroke-linecap="butt" stroke-miterlimit="10" stroke-linejoin="miter" fill="none" stroke="#409f9f" d="M37.7095-29.458 41.66183-27.2358"/>
<path transform="matrix(1,0,0,-1.00003,18.638,64.49855)" stroke-width=".79701" stroke-linecap="butt" stroke-miterlimit="10" stroke-linejoin="miter" fill="none" stroke="#409f9f" d="M37.41814-22.67752H41.9532"/>
<path transform="matrix(1,0,0,-1.00003,18.638,64.49855)" stroke-width=".79701" stroke-linecap="butt" stroke-miterlimit="10" stroke-linejoin="miter" fill="none" stroke="#409f9f" d="M37.6074-16.09947 41.76393-17.9168"/>
<path transform="matrix(1,0,0,-1.00003,18.638,64.49855)" stroke-width=".79701" stroke-linecap="butt" stroke-miterlimit="10" stroke-linejoin="miter" fill="none" stroke="#409f9f" d="M37.87143-9.97816 41.49991-12.69934"/>
<path transform="matrix(1,0,0,-1.00003,18.638,64.49855)" stroke-width=".79701" stroke-linecap="butt" stroke-miterlimit="10" stroke-linejoin="miter" fill="none" stroke="#409f9f" d="M38.0313-4.1188 41.34004-7.21991"/>
<path transform="matrix(1,0,0,-1.00003,18.638,64.49855)" stroke-width=".79701" stroke-linecap="butt" stroke-miterlimit="10" stroke-linejoin="miter" fill="none" stroke="#409f9f" d="M38.08252 1.6035 41.28882-1.6035"/>
<path transform="matrix(1,0,0,-1.00003,18.638,64.49855)" stroke-width=".79701" stroke-linecap="butt" stroke-miterlimit="10" stroke-linejoin="miter" fill="none" stroke="#409f9f" d="M38.0313 7.21991 41.34004 4.1188"/>
<path transform="matrix(1,0,0,-1.00003,18.638,64.49855)" stroke-width=".79701" stroke-linecap="butt" stroke-miterlimit="10" stroke-linejoin="miter" fill="none" stroke="#409f9f" d="M37.87143 12.69934 41.49991 9.97816"/>
<path transform="matrix(1,0,0,-1.00003,18.638,64.49855)" stroke-width=".79701" stroke-linecap="butt" stroke-miterlimit="10" stroke-linejoin="miter" fill="none" stroke="#409f9f" d="M37.6074 17.9168 41.76393 16.09947"/>
<path transform="matrix(1,0,0,-1.00003,18.638,64.49855)" stroke-width=".79701" stroke-linecap="butt" stroke-miterlimit="10" stroke-linejoin="miter" fill="none" stroke="#409f9f" d="M37.41814 22.67752H41.9532"/>
<path transform="matrix(1,0,0,-1.00003,18.638,64.49855)" stroke-width=".79701" stroke-linecap="butt" stroke-miterlimit="10" stroke-linejoin="miter" fill="none" stroke="#409f9f" d="M37.7095 27.2358 41.66183 29.458"/>
<path transform="matrix(1,0,0,-1.00003,18.638,64.49855)" stroke-width=".79701" stroke-linecap="butt" stroke-miterlimit="10" stroke-linejoin="miter" fill="none" stroke="#409f9f" d="M38.26973 32.24634 41.10161 35.78621"/>
<path transform="matrix(1,0,0,-1.00003,18.638,64.49855)" stroke-width=".79701" stroke-linecap="butt" stroke-miterlimit="10" stroke-linejoin="miter" fill="none" stroke="#409f9f" d="M38.69637 37.64514 40.67497 41.7262"/>
<path transform="matrix(1,0,0,-1.00003,18.638,64.49855)" stroke-width=".79701" stroke-linecap="butt" stroke-miterlimit="10" stroke-linejoin="miter" fill="none" stroke="#409f9f" d="M38.96837 43.20378 40.40297 47.50632"/>
<path transform="matrix(1,0,0,-1.00003,18.638,64.49855)" stroke-width=".79701" stroke-linecap="butt" stroke-miterlimit="10" stroke-linejoin="miter" fill="none" stroke="#409f9f" d="M39.14381 48.82265 40.22752 53.22621"/>
<path transform="matrix(1,0,0,-1.00003,18.638,64.49855)" stroke-width=".79701" stroke-linecap="butt" stroke-miterlimit="10" stroke-linejoin="miter" fill="none" stroke="#409f9f" d="M43.37888-29.458 47.33122-27.2358"/>
<path transform="matrix(1,0,0,-1.00003,18.638,64.49855)" stroke-width=".79701" stroke-linecap="butt" stroke-miterlimit="10" stroke-linejoin="miter" fill="none" stroke="#409f9f" d="M43.08752-22.67752H47.62257"/>
<path transform="matrix(1,0,0,-1.00003,18.638,64.49855)" stroke-width=".79701" stroke-linecap="butt" stroke-miterlimit="10" stroke-linejoin="miter" fill="none" stroke="#409f9f" d="M43.2768-16.09947 47.43332-17.9168"/>
<path transform="matrix(1,0,0,-1.00003,18.638,64.49855)" stroke-width=".79701" stroke-linecap="butt" stroke-miterlimit="10" stroke-linejoin="miter" fill="none" stroke="#409f9f" d="M43.54082-9.97816 47.16928-12.69934"/>
<path transform="matrix(1,0,0,-1.00003,18.638,64.49855)" stroke-width=".79701" stroke-linecap="butt" stroke-miterlimit="10" stroke-linejoin="miter" fill="none" stroke="#409f9f" d="M43.70068-4.1188 47.00941-7.21991"/>
<path transform="matrix(1,0,0,-1.00003,18.638,64.49855)" stroke-width=".79701" stroke-linecap="butt" stroke-miterlimit="10" stroke-linejoin="miter" fill="none" stroke="#409f9f" d="M43.75189 1.6035 46.9582-1.6035"/>
<path transform="matrix(1,0,0,-1.00003,18.638,64.49855)" stroke-width=".79701" stroke-linecap="butt" stroke-miterlimit="10" stroke-linejoin="miter" fill="none" stroke="#409f9f" d="M43.70068 7.21991 47.00941 4.1188"/>
<path transform="matrix(1,0,0,-1.00003,18.638,64.49855)" stroke-width=".79701" stroke-linecap="butt" stroke-miterlimit="10" stroke-linejoin="miter" fill="none" stroke="#409f9f" d="M43.54082 12.69934 47.16928 9.97816"/>
<path transform="matrix(1,0,0,-1.00003,18.638,64.49855)" stroke-width=".79701" stroke-linecap="butt" stroke-miterlimit="10" stroke-linejoin="miter" fill="none" stroke="#409f9f" d="M43.2768 17.9168 47.43332 16.09947"/>
<path transform="matrix(1,0,0,-1.00003,18.638,64.49855)" stroke-width=".79701" stroke-linecap="butt" stroke-miterlimit="10" stroke-linejoin="miter" fill="none" stroke="#409f9f" d="M43.08752 22.67752H47.62257"/>
<path transform="matrix(1,0,0,-1.00003,18.638,64.49855)" stroke-width=".79701" stroke-linecap="butt" stroke-miterlimit="10" stroke-linejoin="miter" fill="none" stroke="#409f9f" d="M43.37888 27.2358 47.33122 29.458"/>
<path transform="matrix(1,0,0,-1.00003,18.638,64.49855)" stroke-width=".79701" stroke-linecap="butt" stroke-miterlimit="10" stroke-linejoin="miter" fill="none" stroke="#409f9f" d="M43.9391 32.24634 46.771 35.78621"/>
<path transform="matrix(1,0,0,-1.00003,18.638,64.49855)" stroke-width=".79701" stroke-linecap="butt" stroke-miterlimit="10" stroke-linejoin="miter" fill="none" stroke="#409f9f" d="M44.36575 37.64514 46.34435 41.7262"/>
<path transform="matrix(1,0,0,-1.00003,18.638,64.49855)" stroke-width=".79701" stroke-linecap="butt" stroke-miterlimit="10" stroke-linejoin="miter" fill="none" stroke="#409f9f" d="M44.63774 43.20378 46.07236 47.50632"/>
<path transform="matrix(1,0,0,-1.00003,18.638,64.49855)" stroke-width=".79701" stroke-linecap="butt" stroke-miterlimit="10" stroke-linejoin="miter" fill="none" stroke="#409f9f" d="M44.81319 48.82265 45.89691 53.22621"/>
<path transform="matrix(1,0,0,-1.00003,18.638,64.49855)" stroke-width=".79701" stroke-linecap="butt" stroke-miterlimit="10" stroke-linejoin="miter" fill="none" stroke="#409f9f" d="M49.04826-29.458 53.0006-27.2358"/>
<path transform="matrix(1,0,0,-1.00003,18.638,64.49855)" stroke-width=".79701" stroke-linecap="butt" stroke-miterlimit="10" stroke-linejoin="miter" fill="none" stroke="#409f9f" d="M48.7569-22.67752H53.29196"/>
<path transform="matrix(1,0,0,-1.00003,18.638,64.49855)" stroke-width=".79701" stroke-linecap="butt" stroke-miterlimit="10" stroke-linejoin="miter" fill="none" stroke="#409f9f" d="M48.94617-16.09947 53.10269-17.9168"/>
<path transform="matrix(1,0,0,-1.00003,18.638,64.49855)" stroke-width=".79701" stroke-linecap="butt" stroke-miterlimit="10" stroke-linejoin="miter" fill="none" stroke="#409f9f" d="M49.21019-9.97816 52.83867-12.69934"/>
<path transform="matrix(1,0,0,-1.00003,18.638,64.49855)" stroke-width=".79701" stroke-linecap="butt" stroke-miterlimit="10" stroke-linejoin="miter" fill="none" stroke="#409f9f" d="M49.37006-4.1188 52.6788-7.21991"/>
<path transform="matrix(1,0,0,-1.00003,18.638,64.49855)" stroke-width=".79701" stroke-linecap="butt" stroke-miterlimit="10" stroke-linejoin="miter" fill="none" stroke="#409f9f" d="M49.42128 1.6035 52.62758-1.6035"/>
<path transform="matrix(1,0,0,-1.00003,18.638,64.49855)" stroke-width=".79701" stroke-linecap="butt" stroke-miterlimit="10" stroke-linejoin="miter" fill="none" stroke="#409f9f" d="M49.37006 7.21991 52.6788 4.1188"/>
<path transform="matrix(1,0,0,-1.00003,18.638,64.49855)" stroke-width=".79701" stroke-linecap="butt" stroke-miterlimit="10" stroke-linejoin="miter" fill="none" stroke="#409f9f" d="M49.21019 12.69934 52.83867 9.97816"/>
<path transform="matrix(1,0,0,-1.00003,18.638,64.49855)" stroke-width=".79701" stroke-linecap="butt" stroke-miterlimit="10" stroke-linejoin="miter" fill="none" stroke="#409f9f" d="M48.94617 17.9168 53.10269 16.09947"/>
<path transform="matrix(1,0,0,-1.00003,18.638,64.49855)" stroke-width=".79701" stroke-linecap="butt" stroke-miterlimit="10" stroke-linejoin="miter" fill="none" stroke="#409f9f" d="M48.7569 22.67752H53.29196"/>
<path transform="matrix(1,0,0,-1.00003,18.638,64.49855)" stroke-width=".79701" stroke-linecap="butt" stroke-miterlimit="10" stroke-linejoin="miter" fill="none" stroke="#409f9f" d="M49.04826 27.2358 53.0006 29.458"/>
<path transform="matrix(1,0,0,-1.00003,18.638,64.49855)" stroke-width=".79701" stroke-linecap="butt" stroke-miterlimit="10" stroke-linejoin="miter" fill="none" stroke="#409f9f" d="M49.60849 32.24634 52.44037 35.78621"/>
<path transform="matrix(1,0,0,-1.00003,18.638,64.49855)" stroke-width=".79701" stroke-linecap="butt" stroke-miterlimit="10" stroke-linejoin="miter" fill="none" stroke="#409f9f" d="M50.03513 37.64514 52.01373 41.7262"/>
<path transform="matrix(1,0,0,-1.00003,18.638,64.49855)" stroke-width=".79701" stroke-linecap="butt" stroke-miterlimit="10" stroke-linejoin="miter" fill="none" stroke="#409f9f" d="M50.30713 43.20378 51.74173 47.50632"/>
<path transform="matrix(1,0,0,-1.00003,18.638,64.49855)" stroke-width=".79701" stroke-linecap="butt" stroke-miterlimit="10" stroke-linejoin="miter" fill="none" stroke="#409f9f" d="M50.48257 48.82265 51.56628 53.22621"/>
<path transform="matrix(1,0,0,-1.00003,18.638,64.49855)" stroke-width=".79701" stroke-linecap="butt" stroke-miterlimit="10" stroke-linejoin="miter" fill="none" stroke="#409f9f" d="M54.71764-29.458 58.66998-27.2358"/>
<path transform="matrix(1,0,0,-1.00003,18.638,64.49855)" stroke-width=".79701" stroke-linecap="butt" stroke-miterlimit="10" stroke-linejoin="miter" fill="none" stroke="#409f9f" d="M54.42628-22.67752H58.96133"/>
<path transform="matrix(1,0,0,-1.00003,18.638,64.49855)" stroke-width=".79701" stroke-linecap="butt" stroke-miterlimit="10" stroke-linejoin="miter" fill="none" stroke="#409f9f" d="M54.61555-16.09947 58.77208-17.9168"/>
<path transform="matrix(1,0,0,-1.00003,18.638,64.49855)" stroke-width=".79701" stroke-linecap="butt" stroke-miterlimit="10" stroke-linejoin="miter" fill="none" stroke="#409f9f" d="M54.87958-9.97816 58.50804-12.69934"/>
<path transform="matrix(1,0,0,-1.00003,18.638,64.49855)" stroke-width=".79701" stroke-linecap="butt" stroke-miterlimit="10" stroke-linejoin="miter" fill="none" stroke="#409f9f" d="M55.03944-4.1188 58.34818-7.21991"/>
<path transform="matrix(1,0,0,-1.00003,18.638,64.49855)" stroke-width=".79701" stroke-linecap="butt" stroke-miterlimit="10" stroke-linejoin="miter" fill="none" stroke="#409f9f" d="M55.09065 1.6035 58.29697-1.6035"/>
<path transform="matrix(1,0,0,-1.00003,18.638,64.49855)" stroke-width=".79701" stroke-linecap="butt" stroke-miterlimit="10" stroke-linejoin="miter" fill="none" stroke="#409f9f" d="M55.03944 7.21991 58.34818 4.1188"/>
<path transform="matrix(1,0,0,-1.00003,18.638,64.49855)" stroke-width=".79701" stroke-linecap="butt" stroke-miterlimit="10" stroke-linejoin="miter" fill="none" stroke="#409f9f" d="M54.87958 12.69934 58.50804 9.97816"/>
<path transform="matrix(1,0,0,-1.00003,18.638,64.49855)" stroke-width=".79701" stroke-linecap="butt" stroke-miterlimit="10" stroke-linejoin="miter" fill="none" stroke="#409f9f" d="M54.61555 17.9168 58.77208 16.09947"/>
<path transform="matrix(1,0,0,-1.00003,18.638,64.49855)" stroke-width=".79701" stroke-linecap="butt" stroke-miterlimit="10" stroke-linejoin="miter" fill="none" stroke="#409f9f" d="M54.42628 22.67752H58.96133"/>
<path transform="matrix(1,0,0,-1.00003,18.638,64.49855)" stroke-width=".79701" stroke-linecap="butt" stroke-miterlimit="10" stroke-linejoin="miter" fill="none" stroke="#409f9f" d="M54.71764 27.2358 58.66998 29.458"/>
<path transform="matrix(1,0,0,-1.00003,18.638,64.49855)" stroke-width=".79701" stroke-linecap="butt" stroke-miterlimit="10" stroke-linejoin="miter" fill="none" stroke="#409f9f" d="M55.27786 32.24634 58.10976 35.78621"/>
<path transform="matrix(1,0,0,-1.00003,18.638,64.49855)" stroke-width=".79701" stroke-linecap="butt" stroke-miterlimit="10" stroke-linejoin="miter" fill="none" stroke="#409f9f" d="M55.70451 37.64514 57.6831 41.7262"/>
<path transform="matrix(1,0,0,-1.00003,18.638,64.49855)" stroke-width=".79701" stroke-linecap="butt" stroke-miterlimit="10" stroke-linejoin="miter" fill="none" stroke="#409f9f" d="M55.9765 43.20378 57.41112 47.50632"/>
<path transform="matrix(1,0,0,-1.00003,18.638,64.49855)" stroke-width=".79701" stroke-linecap="butt" stroke-miterlimit="10" stroke-linejoin="miter" fill="none" stroke="#409f9f" d="M56.15195 48.82265 57.23567 53.22621"/>
<path transform="matrix(1,0,0,-1.00003,18.638,64.49855)" stroke-width=".79701" stroke-linecap="butt" stroke-miterlimit="10" stroke-linejoin="miter" fill="none" stroke="#409f9f" d="M60.38704-29.458 64.33937-27.2358"/>
<path transform="matrix(1,0,0,-1.00003,18.638,64.49855)" stroke-width=".79701" stroke-linecap="butt" stroke-miterlimit="10" stroke-linejoin="miter" fill="none" stroke="#409f9f" d="M60.09567-22.67752H64.63074"/>
<path transform="matrix(1,0,0,-1.00003,18.638,64.49855)" stroke-width=".79701" stroke-linecap="butt" stroke-miterlimit="10" stroke-linejoin="miter" fill="none" stroke="#409f9f" d="M60.28494-16.09947 64.44147-17.9168"/>
<path transform="matrix(1,0,0,-1.00003,18.638,64.49855)" stroke-width=".79701" stroke-linecap="butt" stroke-miterlimit="10" stroke-linejoin="miter" fill="none" stroke="#409f9f" d="M60.54897-9.97816 64.17744-12.69934"/>
<path transform="matrix(1,0,0,-1.00003,18.638,64.49855)" stroke-width=".79701" stroke-linecap="butt" stroke-miterlimit="10" stroke-linejoin="miter" fill="none" stroke="#409f9f" d="M60.70883-4.1188 64.01758-7.21991"/>
<path transform="matrix(1,0,0,-1.00003,18.638,64.49855)" stroke-width=".79701" stroke-linecap="butt" stroke-miterlimit="10" stroke-linejoin="miter" fill="none" stroke="#409f9f" d="M60.76006 1.6035 63.96635-1.6035"/>
<path transform="matrix(1,0,0,-1.00003,18.638,64.49855)" stroke-width=".79701" stroke-linecap="butt" stroke-miterlimit="10" stroke-linejoin="miter" fill="none" stroke="#409f9f" d="M60.70883 7.21991 64.01758 4.1188"/>
<path transform="matrix(1,0,0,-1.00003,18.638,64.49855)" stroke-width=".79701" stroke-linecap="butt" stroke-miterlimit="10" stroke-linejoin="miter" fill="none" stroke="#409f9f" d="M60.54897 12.69934 64.17744 9.97816"/>
<path transform="matrix(1,0,0,-1.00003,18.638,64.49855)" stroke-width=".79701" stroke-linecap="butt" stroke-miterlimit="10" stroke-linejoin="miter" fill="none" stroke="#409f9f" d="M60.28494 17.9168 64.44147 16.09947"/>
<path transform="matrix(1,0,0,-1.00003,18.638,64.49855)" stroke-width=".79701" stroke-linecap="butt" stroke-miterlimit="10" stroke-linejoin="miter" fill="none" stroke="#409f9f" d="M60.09567 22.67752H64.63074"/>
<path transform="matrix(1,0,0,-1.00003,18.638,64.49855)" stroke-width=".79701" stroke-linecap="butt" stroke-miterlimit="10" stroke-linejoin="miter" fill="none" stroke="#409f9f" d="M60.38704 27.2358 64.33937 29.458"/>
<path transform="matrix(1,0,0,-1.00003,18.638,64.49855)" stroke-width=".79701" stroke-linecap="butt" stroke-miterlimit="10" stroke-linejoin="miter" fill="none" stroke="#409f9f" d="M60.94727 32.24634 63.77914 35.78621"/>
<path transform="matrix(1,0,0,-1.00003,18.638,64.49855)" stroke-width=".79701" stroke-linecap="butt" stroke-miterlimit="10" stroke-linejoin="miter" fill="none" stroke="#409f9f" d="M61.3739 37.64514 63.35251 41.7262"/>
<path transform="matrix(1,0,0,-1.00003,18.638,64.49855)" stroke-width=".79701" stroke-linecap="butt" stroke-miterlimit="10" stroke-linejoin="miter" fill="none" stroke="#409f9f" d="M61.6459 43.20378 63.0805 47.50632"/>
<path transform="matrix(1,0,0,-1.00003,18.638,64.49855)" stroke-width=".79701" stroke-linecap="butt" stroke-miterlimit="10" stroke-linejoin="miter" fill="none" stroke="#409f9f" d="M61.82135 48.82265 62.90506 53.22621"/>
<path transform="matrix(1,0,0,-1.00003,18.638,64.49855)" stroke-width=".79701" stroke-linecap="butt" stroke-miterlimit="10" stroke-linejoin="miter" fill="none" stroke="#ec008c" d="M-11.33876 10.4792-10.53734 9.83766-9.73593 9.17743-8.93451 8.49713-8.13312 7.79883-7.3317 7.08429-6.53029 6.3521-5.72887 5.60811-4.92747 4.84857-4.12607 4.07968-3.32465 3.29938-2.52325 2.50801-1.72183 1.71457-.92043 .91626-.119 .11555 .68234-.68028 1.48376-1.48099 2.28517-2.27687 3.0866-3.06651 3.88799-3.84924 4.68939-4.62225 5.49081-5.38528 6.2922-6.13477 7.09363-6.87044 7.89503-7.59053 8.69646-8.2933 9.49785-8.97812 10.29927-9.64491 11.10068-10.29095 11.90208-10.91797 12.70349-11.52249 13.5049-12.10591 14.30632-12.66785 15.10771-13.20871 15.90913-13.72775 16.71054-14.2243 17.51196-14.69907 18.31335-15.1534 19.11476-15.58733 19.91618-15.99979 20.71759-16.3922 21.519-16.76488 22.3204-17.11887 23.12183-17.45451 23.92322-17.77252 24.72464-18.07321 25.52605-18.35764 26.32747-18.62582 27.12886-18.87914 27.93027-19.11823 28.73169-19.34315 29.53308-19.55492 30.3345-19.75423 31.13591-19.94179 31.93733-20.11792 32.73872-20.28333 33.54015-20.43869 34.34155-20.58437 35.14296-20.72105 35.94437-20.84943 36.74577-20.96915 37.5472-21.08195 38.34859-21.18716 39.15001-21.28577 39.95142-21.37782 40.75284-21.46432 41.55423-21.54495 42.35564-21.62038 43.15706-21.69098 43.95847-21.75706 44.75987-21.81866 45.56128-21.87611 46.3627-21.9301 47.1641-21.98026 47.96552-22.02698 48.76692-22.07092 49.56833-22.11174 50.36974-22.14981 51.17114-22.18546 51.97256-22.21867 52.77397-22.24982 53.57538-22.27853 54.37679-22.30554 55.1782-22.33078 55.9796-22.35432 56.781-22.37611 57.58243-22.39653 58.38383-22.41592 59.18524-22.43355 59.98665-22.45016 60.78807-22.4654 61.58948-22.47993 62.39088-22.49344 63.19229-22.50589 63.9937-22.51765 64.7951-22.52837 65.59651-22.5384 66.39793-22.5481 67.19934-22.55675 68.00075-22.56505"/>
<path transform="matrix(1,0,0,-1.00003,18.638,64.49855)" stroke-width=".79701" stroke-linecap="butt" stroke-miterlimit="10" stroke-linejoin="miter" fill="none" stroke="#ec008c" d="M-11.33876 20.52657-10.53734 20.37674-9.73593 20.21722-8.93451 20.04733-8.13312 19.86703-7.3317 19.67397-6.53029 19.4698-5.72887 19.25354-4.92747 19.02203-4.12607 18.77774-3.32465 18.51855-2.52325 18.24277-1.72183 17.9521-.92043 17.64447-.119 17.31956 .68234 16.97768 1.48376 16.61607 2.28517 16.23544 3.0866 15.83472 3.88799 15.41364 4.68939 14.97243 5.49081 14.50943 6.2922 14.02568 7.09363 13.51978 7.89503 12.99243 8.69646 12.44328 9.49785 11.87233 10.29927 11.27992 11.10068 10.66606 11.90208 10.03178 12.70349 9.37709 13.5049 8.70302 14.30632 8.01062 15.10771 7.3009 15.90913 6.57458 16.71054 5.83304 17.51196 5.078 18.31335 4.31119 19.11476 3.53366 19.91618 2.74783 20.71759 1.95506 21.519 1.15779 22.3204 .35709 23.12183-.44394 23.92322-1.24396 24.72464-2.04123 25.52605-2.8333 26.32747-3.61877 27.12886-4.39493 27.93027-5.1607 28.73169-5.914 29.53308-6.65382 30.3345-7.3784 31.13591-8.08675 31.93733-8.77707 32.73872-9.44907 33.54015-10.10135 34.34155-10.73354 35.14296-11.34497 35.94437-11.9353 36.74577-12.50383 37.5472-13.0509 38.34859-13.57585 39.15001-14.07932 39.95142-14.56099 40.75284-15.02122 41.55423-15.46068 42.35564-15.87936 43.15706-16.27766 43.95847-16.65656 44.75987-17.01608 45.56128-17.35693 46.3627-17.68011 47.1641-17.98567 47.96552-18.27495 48.76692-18.54797 49.56833-18.80577 50.36974-19.04868 51.17114-19.27774 51.97256-19.49367 52.77397-19.69646 53.57538-19.88747 54.37679-20.06705 55.1782-20.23557 55.9796-20.3937 56.781-20.54214 57.58243-20.6816 58.38383-20.81206 59.18524-20.93454 59.98665-21.04909 60.78807-21.15671 61.58948-21.25705 62.39088-21.35117 63.19229-21.43942 63.9937-21.52142 64.7951-21.59859 65.59651-21.67056 66.39793-21.73804 67.19934-21.80066 68.00075-21.8595"/>
<path transform="matrix(1,0,0,-1.00003,18.638,64.49855)" stroke-width=".79701" stroke-linecap="butt" stroke-miterlimit="10" stroke-linejoin="miter" fill="none" stroke="#ec008c" d="M-11.33876 22.37404-10.53734 22.35188-9.73593 22.32802-8.93451 22.30275-8.13312 22.27577-7.3317 22.24635-6.53029 22.21523-5.72887 22.18166-4.92747 22.14601-4.12607 22.10724-3.32465 22.06607-2.52325 22.02179-1.72183 21.97473-.92043 21.92421-.119 21.86987 .68234 21.81207 1.48376 21.75015 2.28517 21.68372 3.0866 21.61243 3.88799 21.53665 4.68939 21.45499 5.49081 21.36812 6.2922 21.27539 7.09363 21.17607 7.89503 21.06984 8.69646 20.9567 9.49785 20.83594 10.29927 20.70686 11.10068 20.56914 11.90208 20.42242 12.70349 20.266 13.5049 20.09958 14.30632 19.92241 15.10771 19.73349 15.90913 19.53278 16.71054 19.31963 17.51196 19.09297 18.31335 18.85281 19.11476 18.59781 19.91618 18.32755 20.71759 18.04173 21.519 17.73929 22.3204 17.41922 23.12183 17.08183 23.92322 16.72575 24.72464 16.35068 25.52605 15.95586 26.32747 15.5413 27.12886 15.10565 27.93027 14.64923 28.73169 14.17172 29.53308 13.67238 30.3345 13.15161 31.13591 12.60867 31.93733 12.04396 32.73872 11.45811 33.54015 10.8505 34.34155 10.22244 35.14296 9.57365 35.94437 8.90544 36.74577 8.21823 37.5472 7.51337 38.34859 6.79189 39.15001 6.05486 39.95142 5.30362 40.75284 4.54027 41.55423 3.76584 42.35564 2.98207 43.15706 2.19106 43.95847 1.39484 44.75987 .59515 45.56128-.2062 46.3627-1.00693 47.1641-1.80522 47.96552-2.59903 48.76692-3.38625 49.56833-4.16551 50.36974-4.9344 51.17114-5.69185 51.97256-6.43582 52.77397-7.16492 53.57538-7.87808 54.37679-8.57396 55.1782-9.25148 55.9796-9.90997 56.781-10.54805 57.58243-11.16574 58.38383-11.76228 59.18524-12.3374 59.98665-12.8907 60.78807-13.4222 61.58948-13.9319 62.39088-14.42017 63.19229-14.88696 63.9937-15.33229 64.7951-15.75722 65.59651-16.16173 66.39793-16.54617 67.19934-16.91124 68.00075-17.25761"/>
<path transform="matrix(1,0,0,-1.00003,18.638,64.49855)" stroke-width=".79701" stroke-linecap="butt" stroke-miterlimit="10" stroke-linejoin="miter" fill="none" stroke="#ec008c" d="M-11.33876 22.63635-10.53734 22.63322-9.73593 22.62976-8.93451 22.6263-8.13312 22.62285-7.3317 22.6187-6.53029 22.61453-5.72887 22.6097-4.92747 22.60484-4.12607 22.59967-3.32465 22.59378-2.52325 22.58755-1.72183 22.58096-.92043 22.57405-.119 22.56644 .68234 22.55849 1.48376 22.54982 2.28517 22.54048 3.0866 22.53046 3.88799 22.51971 4.68939 22.5083 5.49081 22.49585 6.2922 22.4827 7.09363 22.46817 7.89503 22.45296 8.69646 22.43666 9.49785 22.41939 10.29927 22.40034 11.10068 22.38028 11.90208 22.35847 12.70349 22.33528 13.5049 22.31071 14.30632 22.28407 15.10771 22.25536 15.90913 22.2249 16.71054 22.19202 17.51196 22.15674 18.31335 22.11902 19.11476 22.07887 19.91618 22.03563 20.71759 21.98926 21.519 21.93977 22.3204 21.88649 23.12183 21.82973 23.92322 21.76884 24.72464 21.70378 25.52605 21.63422 26.32747 21.55948 27.12886 21.4799 27.93027 21.39478 28.73169 21.30377 29.53308 21.20618 30.3345 21.10237 31.13591 20.99129 31.93733 20.87262 32.73872 20.74597 33.54015 20.61102 34.34155 20.46706 35.14296 20.31343 35.94437 20.1501 36.74577 19.97604 37.5472 19.79057 38.34859 19.59369 39.15001 19.38434 39.95142 19.16185 40.75284 18.92548 41.55423 18.67497 42.35564 18.40956 43.15706 18.12823 43.95847 17.83066 44.75987 17.5161 45.56128 17.18391 46.3627 16.83339 47.1641 16.46416 47.96552 16.07523 48.76692 15.66656 49.56833 15.23715 50.36974 14.7873 51.17114 14.31564 51.97256 13.8229 52.77397 13.30835 53.57538 12.772 54.37679 12.21385 55.1782 11.63426 55.9796 11.03319 56.781 10.41104 57.58243 9.76845 58.38383 9.10579 59.18524 8.42412 59.98665 7.72444 60.78807 7.0078 61.58948 6.27527 62.39088 5.5282 63.19229 4.7683 63.9937 3.99666 64.7951 3.21565 65.59651 2.4267 66.39793 1.63187 67.19934 .83322 68.00075 .03181"/>
<path transform="matrix(1,0,0,-1.00003,18.638,64.49855)" stroke-width=".79701" stroke-linecap="butt" stroke-miterlimit="10" stroke-linejoin="miter" fill="none" stroke="#ec008c" d="M-11.33876 24.61044-11.0685 24.65923-10.79825 24.70908-10.52798 24.76028-10.25774 24.81288-9.98749 24.86685-9.71724 24.92258-9.44699 24.97932-9.17674 25.03746-8.9065 25.098-8.63623 25.1596-8.36598 25.22256-8.09575 25.28763-7.82549 25.35442-7.55524 25.42293-7.28497 25.49352-7.01474 25.56479-6.74449 25.63954-6.47423 25.71567-6.20398 25.79422-5.93373 25.8745-5.66348 25.9572-5.39323 26.04231-5.12297 26.12952-4.85274 26.21915-4.58247 26.3112-4.31223 26.40634-4.04198 26.50427-3.77173 26.60463-3.50148 26.7074-3.23122 26.81398-2.96097 26.92264-2.69073 27.03508-2.42047 27.15033-2.15022 27.26935-1.87996 27.3922-1.60973 27.51746-1.33946 27.64653-1.06921 27.78079-.79897 27.91747-.52872 28.059-.25847 28.20433 .01175 28.3538 .28198 28.50781 .55225 28.66698 .8225 28.831 1.09274 29.0002 1.363 29.17496 1.63324 29.35454 1.90349 29.54001 2.17375 29.73102 2.444 29.92827 2.71426 30.13173 2.9845 30.34212 3.25475 30.55908 3.52501 30.7833 3.79526 31.0148 4.0655 31.25356 4.33575 31.50064 4.606 31.75635 4.87627 32.02037 5.1465 32.29338 5.41676 32.5761 5.68701 32.8685 5.95726 33.17126 6.22751 33.48479 6.49776 33.809 6.76802 34.14569 7.03827 34.49414 7.30852 34.85574 7.57875 35.23085 7.84901 35.6198 8.11928 36.02396 8.38951 36.44334 8.65977 36.87968 8.93001 37.33264 9.20027 37.805 9.47052 38.29463 9.74077 38.80605 10.01103 39.3379 10.28127 39.89189 10.55151 40.47047 10.82178 41.0729 11.09203 41.70407 11.36229 42.36188 11.63252 43.04909 11.90277 43.7692 12.17303 44.52318 12.44328 45.31284 12.71353 46.14088 12.98378 47.0108 13.25403 47.92433 13.52428 48.88562 13.79453 49.89742 14.06479 50.96318 14.33504 52.0871 14.60529 53.27573 14.87552 54.53217 15.14578 55.8623 15.41605 57.27307"/>
<path transform="matrix(1,0,0,-1.00003,18.638,64.49855)" stroke-width=".79701" stroke-linecap="butt" stroke-miterlimit="10" stroke-linejoin="miter" fill="none" stroke="#ec008c" d="M-11.33876 22.92978-10.83943 22.94118-10.34009 22.9533-9.84077 22.96576-9.34146 22.97891-8.84212 22.99239-8.3428 23.00659-7.84349 23.0218-7.34416 23.03737-6.84483 23.05365-6.3455 23.0706-5.84619 23.0886-5.34686 23.10728-4.84753 23.12666-4.34822 23.14742-3.84889 23.16853-3.34956 23.19102-2.85023 23.21422-2.35092 23.23878-1.8516 23.26439-1.35226 23.29102-.85297 23.31905-.35362 23.34846 .14566 23.37892 .64499 23.4111 1.1443 23.44467 1.64363 23.47995 2.14296 23.51663 2.64227 23.55505 3.1416 23.59555 3.64093 23.63774 4.14026 23.6817 4.63957 23.72806 5.1389 23.7765 5.63823 23.82738 6.13754 23.88031 6.63687 23.93639 7.13618 23.99452 7.63551 24.0554 8.13484 24.11942 8.63416 24.18655 9.1335 24.2568 9.63281 24.3305 10.13213 24.40767 10.63147 24.48865 11.13077 24.57378 11.6301 24.66304 12.12944 24.75647 12.62875 24.8544 13.12807 24.95752 13.6274 25.06549 14.12672 25.17897 14.62604 25.29802 15.12537 25.42328 15.6247 25.55443 16.12402 25.69284 16.62334 25.83783 17.12267 25.99042 17.622 26.15099 18.1213 26.32019 18.62064 26.49805 19.11996 26.6849 19.6193 26.88216 20.1186 27.08975 20.61794 27.30879 21.11726 27.53995 21.61658 27.78322 22.1159 28.04031 22.61523 28.3116 23.11455 28.59845 23.61388 28.90193 24.1132 29.22237 24.61252 29.56181 25.11185 29.92133 25.61118 30.30232 26.11049 30.70613 26.6098 31.13521 27.10915 31.5906 27.60846 32.07504 28.10779 32.59064 28.60712 33.14014 29.10643 33.72597 29.60576 34.35123 30.10509 35.01978 30.6044 35.73535 31.10373 36.50252 31.60307 37.32607 32.10237 38.21123 32.6017 39.16489 33.10103 40.194 33.60034 41.30612 34.09967 42.5117 34.599 43.82108 35.09833 45.24673 35.59764 46.80319 36.09697 48.50842 36.5963 50.3815 37.09561 52.44733 37.59494 54.73526 38.09427 57.2793"/>
<path transform="matrix(1,0,0,-1.00003,18.638,64.49855)" stroke-width=".79701" stroke-linecap="butt" stroke-miterlimit="10" stroke-linejoin="miter" fill="none" stroke="#ec008c" d="M-11.33876 22.71143-10.61035 22.71385-9.88194 22.71626-9.15356 22.71867-8.42516 22.72147-7.69676 22.72458-6.96837 22.72734-6.23996 22.73079-5.51158 22.73462-4.78317 22.73808-4.05478 22.74222-3.32639 22.74638-2.59799 22.7512-1.8696 22.75606-1.14119 22.76125-.4128 22.76678 .31555 22.77267 1.04396 22.7789 1.77234 22.78581 2.50075 22.79274 3.22916 22.8007 3.95755 22.80865 4.68594 22.8173 5.41434 22.82666 6.14273 22.8367 6.87114 22.84741 7.59953 22.85847 8.32793 22.87059 9.05632 22.88374 9.78471 22.89725 10.51312 22.91211 11.24152 22.92769 11.96991 22.9443 12.69832 22.9623 13.4267 22.98099 14.1551 23.00174 14.88348 23.02321 15.6119 23.04637 16.3403 23.07094 17.06868 23.09726 17.79709 23.12563 18.52547 23.15538 19.25388 23.18758 19.98228 23.22182 20.71066 23.25815 21.43907 23.29726 22.16745 23.33911 22.89586 23.38377 23.62425 23.43118 24.35265 23.48203 25.08105 23.53636 25.80943 23.5945 26.53784 23.65678 27.26624 23.72322 27.99463 23.79451 28.72304 23.87027 29.45142 23.95195 30.17982 24.0388 30.90822 24.13223 31.63661 24.23189 32.36502 24.33882 33.09343 24.45335 33.82181 24.57619 34.55022 24.70767 35.27861 24.84886 36.007 25.00043 36.73541 25.16307 37.46379 25.33746 38.1922 25.52501 38.92058 25.72675 39.64899 25.94371 40.3774 26.17693 41.10577 26.4285 41.83418 26.69943 42.56256 26.99149 43.29097 27.30708 44.01938 27.64792 44.74776 28.01643 45.47617 28.4154 46.20454 28.84795 46.93295 29.31717 47.66135 29.82721 48.38974 30.38226 49.11815 30.98712 49.84653 31.64735 50.57494 32.36987 51.30333 33.16159 52.03172 34.03116 52.76013 34.98897 53.48853 36.0468 54.21692 37.21776 54.94531 38.51955 55.6737 39.9715 56.4021 41.59784 57.13051 43.4273 57.8589 45.49658 58.5873 47.85097 59.31569 50.54726 60.04408 53.65947 60.77249 57.28345"/>
<path transform="matrix(1,0,0,-1.00003,18.638,64.49855)" stroke-width=".79701" stroke-linecap="butt" stroke-miterlimit="10" stroke-linejoin="miter" fill="none" stroke="#ec008c" d="M-11.33876 22.682-10.38127 22.68236-9.4238 22.68304-8.46634 22.6834-7.50887 22.68408-6.55139 22.68478-5.59393 22.68512-4.63646 22.6858-3.67899 22.68651-2.72151 22.6872-1.76405 22.68825-.80658 22.68929 .15086 22.6903 1.10832 22.69136 2.0658 22.6924 3.02325 22.69379 3.98073 22.69516 4.9382 22.69724 5.89568 22.69897 6.85313 22.70035 7.81061 22.70277 8.76808 22.70451 9.72556 22.70692 10.68301 22.7097 11.64049 22.71246 12.59796 22.71558 13.55544 22.71867 14.5129 22.72249 15.47037 22.7263 16.42783 22.73079 17.3853 22.73529 18.34277 22.7405 19.30025 22.74603 20.2577 22.75224 21.21518 22.75883 22.17265 22.7661 23.13013 22.77371 24.08759 22.78271 25.04506 22.79135 26.00253 22.80174 26.96 22.81245 27.91747 22.82457 28.87494 22.83737 29.83241 22.85156 30.78989 22.86714 31.74734 22.88374 32.70482 22.90208 33.6623 22.92216 34.61977 22.9436 35.57722 22.96715 36.5347 22.99309 37.49217 23.02112 38.44965 23.05157 39.4071 23.0848 40.36458 23.12112 41.32205 23.16058 42.27953 23.20349 43.23698 23.25053 44.19446 23.30176 45.15193 23.35782 46.10939 23.41872 47.06686 23.48482 48.02434 23.55711 48.98181 23.63637 49.93927 23.72287 50.89674 23.81734 51.85422 23.92046 52.81169 24.03325 53.76915 24.1568 54.72662 24.29175 55.6841 24.43915 56.64157 24.60109 57.59903 24.77863 58.5565 24.97308 59.51398 25.18694 60.47144 25.42085 61.42891 25.67863 62.38638 25.96239 63.34386 26.27452 64.30132 26.6188 65.25879 26.99945 66.21626 27.41988 67.17374 27.88599 68.1312 28.40295 69.08867 28.97704 70.04613 29.61717 71.00362 30.33174 71.96107 31.13211 72.91855 32.03041 73.876 33.0429 74.8335 34.18791 75.79095 35.48865 76.74843 36.97311 77.70589 38.67699 78.66338 40.6452 79.62082 42.9356 80.57831 45.62358 81.53577 48.81017 82.49326 52.63383 83.4507 57.28725"/>
</svg>
