<svg xmlns="http://www.w3.org/2000/svg" xmlns:xlink="http://www.w3.org/1999/xlink" version="1.1" width="131" height="49" viewBox="0 0 131 49">
<defs>
<path id="font_1_2" d="M.2649994 .64468386C.3600006 .64468386 .3869934 .49682618 .3869934 .33398438 .3869934 .17112732 .3600006 .023269654 .2649994 .023269654 .16999817 .023269654 .14299011 .17112732 .14299011 .33398438 .14299011 .49682618 .16999817 .64468386 .2649994 .64468386M.2649994 .6796875C.099990848 .6796875 .040985109 .53378298 .040985109 .33398438 .040985109 .13417053 .099990848-.01171875 .2649994-.01171875 .42999269-.01171875 .4889984 .13417053 .4889984 .33398438 .4889984 .53378298 .42999269 .6796875 .2649994 .6796875Z"/>
<path id="font_1_1" d="M.1329956-.01171875C.17199707-.01171875 .19499207 .015274048 .19599915 .05126953 .19599915 .088272098 .17199707 .11627197 .1329956 .11627197 .09498596 .11627197 .069992069 .088272098 .069992069 .05126953 .069992069 .015274048 .09498596-.01171875 .1329956-.01171875Z"/>
<path id="font_1_6" d="M.42599488 .5919647 .44999696 .6599579 .44499208 .66796877H.11099243L.100997928 .65896609 .08099365 .32388307 .10499573 .31188966C.14698792 .35983277 .18798828 .3828125 .24198914 .3828125 .30599977 .3828125 .37599183 .3358612 .37599183 .20404053 .37599183 .10116577 .33399964 .023269654 .24699402 .023269654 .1769867 .023269654 .14099121 .07420349 .12098694 .13113404 .115997318 .14611817 .10699463 .15510559 .09298706 .15510559 .07299805 .15510559 .039993287 .13513184 .039993287 .10217285 .039993287 .056228639 .10998535-.01171875 .23999024-.01171875 .40499879-.01171875 .47999574 .0881958 .47999574 .21502686 .47999574 .35484315 .3919983 .4268036 .272995 .4268036 .21798706 .4268036 .15899658 .4028015 .1269989 .3738098L.125 .37580873 .147995 .56292727C.15098572 .58795168 .1579895 .5919647 .1769867 .5919647H.42599488Z"/>
<path id="font_1_3" d="M.43699647 0V.0289917L.35299684 .035995485C.33198548 .037994386 .31999208 .04598999 .31999208 .08496094V.67367556L.31498719 .6796875 .10899353 .6446991V.6197052L.20199585 .6087036C.21899414 .6067047 .22599793 .5987091 .22599793 .56973269V.08496094C.22599793 .065979007 .22299195 .053985597 .21699524 .04698181 .21199036 .039993287 .20399475 .036987306 .19299317 .035995485L.10899353 .0289917V0H.43699647Z"/>
<path id="font_2_1" d="M.6349945 .2529297V.31092835H.084991458V.2529297H.6349945Z"/>
<path id="font_1_5" d="M.2999878 .17871094V.0769043C.2999878 .04296875 .2889862 .036987306 .2649994 .034988405L.20098877 .0289917V0H.46499635V.0289917L.41999818 .033981325C.39698792 .036987306 .3899994 .04296875 .3899994 .0769043V.17871094H.49299623V.22570801H.3899994V.66796877H.31698609C.22299195 .5298767 .11099243 .35577394 .018997193 .19970703L.027999878 .17871094H.2999878M.09098816 .22570801C.15098572 .33476258 .22099304 .4498291 .2979889 .5709076H.2999878V.22570801H.09098816Z"/>
<path id="font_1_4" d="M.4850006 .13195801 .45700074 .13696289C.43598939 .08299255 .41600038 .07598877 .37599183 .07598877H.11999512C.13598633 .1279602 .19499207 .19892884 .28799439 .2658844 .38398744 .33584596 .45799256 .38082887 .45799256 .49276734 .45799256 .63168337 .3659973 .6796875 .26098634 .6796875 .12399292 .6796875 .052993776 .5967102 .052993776 .54473879 .052993776 .51075747 .09098816 .49476625 .10798645 .49476625 .12599182 .49476625 .1329956 .50476077 .13699341 .5217438 .15299988 .5897064 .19198609 .64468386 .2539978 .64468386 .33099366 .64468386 .35299684 .5797119 .35299684 .50675967 .35299684 .3998108 .29899598 .33984376 .21199036 .26289369 .08898926 .15594483 .04598999 .08798218 .026992798 .009994507L.036987306 0H.45098878L.4850006 .13195801Z"/>
<clipPath id="clip_3">
<path transform="matrix(1.00006,0,0,-1,7.201576,47.167)" d="M0 0H122.61307V46.06929H0Z"/>
</clipPath>
<path id="font_4_1" d="M.42799378 .45222474 .43899537 .49023438H.31199647L.34599305 .6092224 .33399964 .6162262 .23699951 .53923037 .22399903 .49023438H.14299011L.13198853 .45222474H.21499634L.125 .08627319C.10998535 .029266358 .12199402-.01171875 .17199707-.01171875 .2519989-.01171875 .31599427 .054275514 .35598756 .1292572L.33399964 .1462555C.31098939 .10726929 .2599945 .040267946 .22898865 .040267946 .20799256 .040267946 .20799256 .0632782 .21398926 .088272098L.30299378 .45222474H.42799378Z"/>
<path id="font_4_2" d="M.070999149 .45393373 .07398987 .42893983 .14199829 .43093873C.1639862 .43193055 .16899109 .41493226 .1769867 .36291505 .18798828 .28489686 .20999146 .09286499 .20999146 .0128479 .20999146-.017166138 .20799256-.058166505 .18598938-.11117554 .16799927-.15318299 .14199829-.18218994 .12199402-.18218994 .10699463-.18218994 .09599304-.17118836 .08099365-.15118408 .068984989-.13517761 .06098938-.127182 .04598999-.127182 .019989014-.12818909-.005004883-.15818787-.005004883-.18719483-.005004883-.21418762 .023986817-.2421875 .067993167-.2421875 .15299988-.2421875 .18998719-.17919922 .27799989-.027160645 .2979889 .0068511965 .35798646 .11286926 .41999818 .21488953 .47698976 .30891419 .5399933 .40592958 .5399933 .4459381 .5399933 .48094178 .5289917 .5019531 .5219879 .5019531 .5029907 .5019531 .46899415 .49394227 .44400025 .47694398 .44499208 .4419403 .44299317 .3809204 .43099977 .33891297 .4149933 .28289796 .35598756 .17488098 .2899933 .06085205H.2869873C.27999879 .21388245 .26098634 .42492677 .24699402 .49795533L.23899842 .5019531 .070999149 .45393373Z"/>
</defs>
<path transform="matrix(1.00006,0,0,-1,7.201576,47.167)" stroke-width=".3985" stroke-linecap="butt" stroke-miterlimit="10" stroke-linejoin="miter" fill="none" stroke="#cbcbcb" d="M42.91457 0V46.06929M73.56784 0V46.06929M104.22112 0V46.06929"/>
<path transform="matrix(1.00006,0,0,-1,7.201576,47.167)" stroke-width=".3985" stroke-linecap="butt" stroke-miterlimit="10" stroke-linejoin="miter" fill="none" stroke="#cbcbcb" d="M0 9.81804H122.61307M0 24.92273H122.61307M0 40.0274H122.61307"/>
<path transform="matrix(1.00006,0,0,-1,7.201576,47.167)" stroke-width=".3985" stroke-linecap="butt" stroke-miterlimit="10" stroke-linejoin="miter" fill="none" stroke="#cbcbcb" d="M0 2.2657H122.61307M0 17.37038H122.61307"/>
<path transform="matrix(1.00006,0,0,-1,7.201576,47.167)" stroke-width=".19925" stroke-linecap="butt" stroke-miterlimit="10" stroke-linejoin="miter" fill="none" stroke="#929292" d="M42.91457 30.34898V34.60114M73.56784 30.34898V34.60114M104.22112 30.34898V34.60114"/>
<path transform="matrix(1.00006,0,0,-1,7.201576,47.167)" stroke-width=".19925" stroke-linecap="butt" stroke-miterlimit="10" stroke-linejoin="miter" fill="none" stroke="#929292" d="M10.84381 9.81804H13.67879M10.84381 24.92273H13.67879M10.84381 40.0274H13.67879"/>
<path transform="matrix(1.00006,0,0,-1,7.201576,47.167)" stroke-width=".19925" stroke-linecap="butt" stroke-miterlimit="10" stroke-linejoin="miter" fill="none" stroke="#929292" d="M10.13527 2.2657H14.38731M10.13527 17.37038H14.38731"/>
<path transform="matrix(1.00006,0,0,-1,7.201576,47.167)" stroke-width=".99628" stroke-linecap="butt" stroke-miterlimit="10" stroke-linejoin="miter" fill="none" stroke="#000000" d="M0 32.47507H119.72386"/>
<path transform="matrix(1.00006,0,0,-1,126.93262,14.691929)" d="M2.8892 0-1.73352 2.31136 0 0-1.73352-2.31136"/>
<path transform="matrix(1.00006,0,0,-1,7.201576,47.167)" stroke-width=".99628" stroke-linecap="butt" stroke-miterlimit="10" stroke-linejoin="miter" fill="none" stroke="#000000" d="M12.2613 0V43.18007"/>
<path transform="matrix(0,-1,-1.00006,-0,19.463612,3.9869309)" d="M2.8892 0-1.73352 2.31136 0 0-1.73352-2.31136"/>
<use data-text="0" xlink:href="#font_1_2" transform="matrix(9.166149,0,0,-9.1656,44.040788,10.333)"/>
<use data-text="." xlink:href="#font_1_1" transform="matrix(9.166149,0,0,-9.1656,48.89884,10.333)"/>
<use data-text="5" xlink:href="#font_1_6" transform="matrix(9.166149,0,0,-9.1656,51.327875,10.333)"/>
<use data-text="1" xlink:href="#font_1_3" transform="matrix(9.166149,0,0,-9.1656,78.34284,10.333)"/>
<use data-text="1" xlink:href="#font_1_3" transform="matrix(9.166149,0,0,-9.1656,105.351459,10.333)"/>
<use data-text="." xlink:href="#font_1_1" transform="matrix(9.166149,0,0,-9.1656,110.20951,10.333)"/>
<use data-text="5" xlink:href="#font_1_6" transform="matrix(9.166149,0,0,-9.1656,112.63854,10.333)"/>
<use data-text="&#x2212;" xlink:href="#font_2_1" transform="matrix(10.037002,0,0,-10.0364,1.0932083,48.261)"/>
<use data-text="4" xlink:href="#font_1_5" transform="matrix(10.037002,0,0,-10.0364,8.314644,48.261)"/>
<use data-text="&#x2212;" xlink:href="#font_2_1" transform="matrix(10.037002,0,0,-10.0364,1.0932083,33.156999)"/>
<use data-text="2" xlink:href="#font_1_4" transform="matrix(10.037002,0,0,-10.0364,8.314644,33.156999)"/>
<g clip-path="url(#clip_3)">
<path transform="matrix(1.00006,0,0,-1,7.201576,47.167)" stroke-width=".99628" stroke-linecap="butt" stroke-miterlimit="10" stroke-linejoin="miter" fill="none" stroke="#000000" d="M12.2613 17.37038V17.37038L26.78023 13.79318"/>
<path transform="matrix(.9709882,.2392,.23921435,-.97093,33.983415,33.373804)" stroke-width=".79701" stroke-linecap="round" stroke-linejoin="round" fill="none" stroke="#000000" d="M-1.73352 2.31136C-1.58905 1.4446 0 .14444 .43336 0 0-.14444-1.58905-1.4446-1.73352-2.31136"/>
<path transform="matrix(1.00006,0,0,-1,7.201576,47.167)" stroke-width=".99628" stroke-linecap="butt" stroke-miterlimit="10" stroke-linejoin="miter" fill="none" stroke="#000000" d="M42.91457 9.81804V9.81804H57.4093"/>
<path transform="matrix(1.00006,0,0,-1,64.61432,37.34896)" stroke-width=".79701" stroke-linecap="round" stroke-linejoin="round" fill="none" stroke="#000000" d="M-1.73352 2.31136C-1.58905 1.4446 0 .14444 .43336 0 0-.14444-1.58905-1.4446-1.73352-2.31136"/>
<path transform="matrix(1.00006,0,0,-1,7.201576,47.167)" stroke-width=".99628" stroke-linecap="butt" stroke-miterlimit="10" stroke-linejoin="miter" fill="none" stroke="#000000" d="M73.56784 9.81804V9.81804L88.1142 15.19394"/>
<path transform="matrix(.9380163,-.34663,-.34665079,-.93796,95.321048,31.97308)" stroke-width=".79701" stroke-linecap="round" stroke-linejoin="round" fill="none" stroke="#000000" d="M-1.73352 2.31136C-1.58905 1.4446 0 .14444 .43336 0 0-.14444-1.58905-1.4446-1.73352-2.31136"/>
</g>
<path transform="matrix(1.00006,0,0,-1,7.201576,47.167)" d="M14.25386 17.37038C14.25386 18.47086 13.36177 19.36293 12.2613 19.36293 11.16083 19.36293 10.26875 18.47086 10.26875 17.37038 10.26875 16.26991 11.16083 15.37782 12.2613 15.37782 13.36177 15.37782 14.25386 16.26991 14.25386 17.37038ZM12.2613 17.37038" fill="#0000cc"/>
<path transform="matrix(1.00006,0,0,-1,7.201576,47.167)" stroke-width=".99628" stroke-linecap="butt" stroke-miterlimit="10" stroke-linejoin="miter" fill="none" stroke="#0000ff" d="M14.25386 17.37038C14.25386 18.47086 13.36177 19.36293 12.2613 19.36293 11.16083 19.36293 10.26875 18.47086 10.26875 17.37038 10.26875 16.26991 11.16083 15.37782 12.2613 15.37782 13.36177 15.37782 14.25386 16.26991 14.25386 17.37038ZM12.2613 17.37038"/>
<path transform="matrix(1.00006,0,0,-1,7.201576,47.167)" d="M44.90712 9.81804C44.90712 10.9185 44.01505 11.8106 42.91457 11.8106 41.8141 11.8106 40.92201 10.9185 40.92201 9.81804 40.92201 8.71756 41.8141 7.82549 42.91457 7.82549 44.01505 7.82549 44.90712 8.71756 44.90712 9.81804ZM42.91457 9.81804" fill="#0000cc"/>
<path transform="matrix(1.00006,0,0,-1,7.201576,47.167)" stroke-width=".99628" stroke-linecap="butt" stroke-miterlimit="10" stroke-linejoin="miter" fill="none" stroke="#0000ff" d="M44.90712 9.81804C44.90712 10.9185 44.01505 11.8106 42.91457 11.8106 41.8141 11.8106 40.92201 10.9185 40.92201 9.81804 40.92201 8.71756 41.8141 7.82549 42.91457 7.82549 44.01505 7.82549 44.90712 8.71756 44.90712 9.81804ZM42.91457 9.81804"/>
<path transform="matrix(1.00006,0,0,-1,7.201576,47.167)" d="M75.5604 9.81804C75.5604 10.9185 74.6683 11.8106 73.56784 11.8106 72.46736 11.8106 71.57529 10.9185 71.57529 9.81804 71.57529 8.71756 72.46736 7.82549 73.56784 7.82549 74.6683 7.82549 75.5604 8.71756 75.5604 9.81804ZM73.56784 9.81804" fill="#0000cc"/>
<path transform="matrix(1.00006,0,0,-1,7.201576,47.167)" stroke-width=".99628" stroke-linecap="butt" stroke-miterlimit="10" stroke-linejoin="miter" fill="none" stroke="#0000ff" d="M75.5604 9.81804C75.5604 10.9185 74.6683 11.8106 73.56784 11.8106 72.46736 11.8106 71.57529 10.9185 71.57529 9.81804 71.57529 8.71756 72.46736 7.82549 73.56784 7.82549 74.6683 7.82549 75.5604 8.71756 75.5604 9.81804ZM73.56784 9.81804"/>
<path transform="matrix(1.00006,0,0,-1,7.201576,47.167)" d="M106.21367 21.14655C106.21367 22.24702 105.32158 23.1391 104.22112 23.1391 103.12064 23.1391 102.22856 22.24702 102.22856 21.14655 102.22856 20.04608 103.12064 19.15399 104.22112 19.15399 105.32158 19.15399 106.21367 20.04608 106.21367 21.14655ZM104.22112 21.14655" fill="#0000cc"/>
<path transform="matrix(1.00006,0,0,-1,7.201576,47.167)" stroke-width=".99628" stroke-linecap="butt" stroke-miterlimit="10" stroke-linejoin="miter" fill="none" stroke="#0000ff" d="M106.21367 21.14655C106.21367 22.24702 105.32158 23.1391 104.22112 23.1391 103.12064 23.1391 102.22856 22.24702 102.22856 21.14655 102.22856 20.04608 103.12064 19.15399 104.22112 19.15399 105.32158 19.15399 106.21367 20.04608 106.21367 21.14655ZM104.22112 21.14655"/>
<path transform="matrix(1.00006,0,0,-1,7.201576,47.167)" stroke-width=".99628" stroke-linecap="butt" stroke-miterlimit="10" stroke-linejoin="miter" fill="none" stroke="#0000ff" d=""/>
<use data-text="t" xlink:href="#font_4_1" transform="matrix(10.037002,0,0,-10.0364,121.62844,10.9070019)"/>
<use data-text="y" xlink:href="#font_4_2" transform="matrix(10.037002,0,0,-10.0364,23.706562,9.758999)"/>
</svg>
