<svg xmlns="http://www.w3.org/2000/svg" xmlns:xlink="http://www.w3.org/1999/xlink" version="1.1" width="144" height="61" viewBox="0 0 144 61">
<defs>
<path id="font_1_2" d="M.42799378 .45222474 .43899537 .49023438H.31199647L.34599305 .6092224 .33399964 .6162262 .23699951 .53923037 .22399903 .49023438H.14299011L.13198853 .45222474H.21499634L.125 .08627319C.10998535 .029266358 .12199402-.01171875 .17199707-.01171875 .2519989-.01171875 .31599427 .054275514 .35598756 .1292572L.33399964 .1462555C.31098939 .10726929 .2599945 .040267946 .22898865 .040267946 .20799256 .040267946 .20799256 .0632782 .21398926 .088272098L.30299378 .45222474H.42799378Z"/>
<path id="font_2_3" d="M.07398987 .2861328V.21612549H.31900025V.2861328H.07398987Z"/>
<path id="font_2_8" d="M.12998963 .3657837C.12998963 .3487854 .1349945 .33779908 .147995 .33779908 .1599884 .33779908 .18699646 .34777833 .23498535 .34777833 .31999208 .34777833 .36799623 .27090455 .36799623 .18403626 .36799623 .065216068 .30899049 .023269654 .23799134 .023269654 .17199707 .023269654 .1289978 .07319641 .10998535 .12911988 .10398865 .14808655 .09399414 .15707398 .07998657 .15707398 .06199646 .15707398 .026992798 .13809204 .026992798 .10215759 .026992798 .05921936 .09599304-.01171875 .23699951-.01171875 .38198854-.01171875 .47299195 .06121826 .47299195 .18902588 .47299195 .32281495 .35798646 .3627777 .30299378 .3677826V.3717804C.35699464 .38078309 .44400025 .4207611 .44400025 .5197296 .44400025 .6306915 .35699464 .6796875 .25 .6796875 .117996219 .6796875 .052993776 .60369876 .052993776 .5607147 .052993776 .5297241 .08799744 .51272585 .101989749 .51272585 .114990238 .51272585 .12298584 .5197296 .1269989 .5327301 .14898682 .60069277 .18699646 .64468386 .24299622 .64468386 .32199098 .64468386 .34098817 .57470706 .34098817 .51872256 .34098817 .4587555 .31999208 .38378907 .23498535 .38378907 .18699646 .38378907 .1599884 .39378358 .147995 .39378358 .1349945 .39378358 .12998963 .38378907 .12998963 .3657837Z"/>
<path id="font_2_7" d="M.4850006 .13195801 .45700074 .13696289C.43598939 .08299255 .41600038 .07598877 .37599183 .07598877H.11999512C.13598633 .1279602 .19499207 .19892884 .28799439 .2658844 .38398744 .33584596 .45799256 .38082887 .45799256 .49276734 .45799256 .63168337 .3659973 .6796875 .26098634 .6796875 .12399292 .6796875 .052993776 .5967102 .052993776 .54473879 .052993776 .51075747 .09098816 .49476625 .10798645 .49476625 .12599182 .49476625 .1329956 .50476077 .13699341 .5217438 .15299988 .5897064 .19198609 .64468386 .2539978 .64468386 .33099366 .64468386 .35299684 .5797119 .35299684 .50675967 .35299684 .3998108 .29899598 .33984376 .21199036 .26289369 .08898926 .15594483 .04598999 .08798218 .026992798 .009994507L.036987306 0H.45098878L.4850006 .13195801Z"/>
<path id="font_2_6" d="M.43699647 0V.0289917L.35299684 .035995485C.33198548 .037994386 .31999208 .04598999 .31999208 .08496094V.67367556L.31498719 .6796875 .10899353 .6446991V.6197052L.20199585 .6087036C.21899414 .6067047 .22599793 .5987091 .22599793 .56973269V.08496094C.22599793 .065979007 .22299195 .053985597 .21699524 .04698181 .21199036 .039993287 .20399475 .036987306 .19299317 .035995485L.10899353 .0289917V0H.43699647Z"/>
<path id="font_2_5" d="M.2649994 .64468386C.3600006 .64468386 .3869934 .49682618 .3869934 .33398438 .3869934 .17112732 .3600006 .023269654 .2649994 .023269654 .16999817 .023269654 .14299011 .17112732 .14299011 .33398438 .14299011 .49682618 .16999817 .64468386 .2649994 .64468386M.2649994 .6796875C.099990848 .6796875 .040985109 .53378298 .040985109 .33398438 .040985109 .13417053 .099990848-.01171875 .2649994-.01171875 .42999269-.01171875 .4889984 .13417053 .4889984 .33398438 .4889984 .53378298 .42999269 .6796875 .2649994 .6796875Z"/>
<path id="font_3_2" d="M.6349945 .07472229 .17298889 .28173829 .6349945 .48875428V.5517578L.084991458 .31674195V.24673462L.6349945 .01171875V.07472229Z"/>
<path id="font_2_4" d="M.1329956-.01171875C.17199707-.01171875 .19499207 .015274048 .19599915 .05126953 .19599915 .088272098 .17199707 .11627197 .1329956 .11627197 .09498596 .11627197 .069992069 .088272098 .069992069 .05126953 .069992069 .015274048 .09498596-.01171875 .1329956-.01171875Z"/>
<path id="font_2_9" d="M.42599488 .5919647 .44999696 .6599579 .44499208 .66796877H.11099243L.100997928 .65896609 .08099365 .32388307 .10499573 .31188966C.14698792 .35983277 .18798828 .3828125 .24198914 .3828125 .30599977 .3828125 .37599183 .3358612 .37599183 .20404053 .37599183 .10116577 .33399964 .023269654 .24699402 .023269654 .1769867 .023269654 .14099121 .07420349 .12098694 .13113404 .115997318 .14611817 .10699463 .15510559 .09298706 .15510559 .07299805 .15510559 .039993287 .13513184 .039993287 .10217285 .039993287 .056228639 .10998535-.01171875 .23999024-.01171875 .40499879-.01171875 .47999574 .0881958 .47999574 .21502686 .47999574 .35484315 .3919983 .4268036 .272995 .4268036 .21798706 .4268036 .15899658 .4028015 .1269989 .3738098L.125 .37580873 .147995 .56292727C.15098572 .58795168 .1579895 .5919647 .1769867 .5919647H.42599488Z"/>
<path id="font_3_1" d="M.6349945-.0078125V.050186159H.084991458V-.0078125H.6349945M.084991458 .14318848 .6349945 .32221986V.39222718L.084991458 .5722656V.5092468L.5469971 .3572235 .084991458 .20620728V.14318848Z"/>
<path id="font_1_1" d="M.18699646 .6923828 .17999268 .66337588 .23899842 .658371C.2619934 .6563721 .2689972 .64237979 .26098634 .609375L.1769867 .25634767C.12998963 .05734253 .23799134-.0146484379 .4099884-.0146484379 .54599-.0146484379 .67099 .014343262 .7259979 .24736023L.8109894 .609375C.81900027 .6433716 .8279877 .6563721 .8529968 .658371L.9079895 .66337588 .9149933 .6923828H.6409912L.6339874 .66337588 .69299319 .658371C.71598818 .6563721 .72299197 .64237979 .71499636 .609375L.6339874 .26036073C.6029968 .12734986 .55400088 .020339966 .4149933 .020339966 .3039856 .020339966 .23399353 .081344608 .27799989 .26934815L.35699464 .609375C.36499024 .6433716 .37399293 .65737918 .39898683 .65937808L.45399476 .66337588 .46099855 .6923828H.18699646Z"/>
<path id="font_2_1" d="M.1749878 .2822113C.1749878 .56832888 .2619934 .65437319 .32499696 .66737368V.6923828C.1499939 .685379 .10499573 .46829225 .10499573 .2822113 .10499573 .09614563 .1499939-.12094116 .32499696-.12792969V-.10293579C.2669983-.090927127 .1749878-.0059051516 .1749878 .2822113Z"/>
<path id="font_2_2" d="M.1749878 .2822113C.1749878-.0059051516 .08299255-.090927127 .024993897-.10293579V-.12792969C.19999695-.12094116 .24499512 .09614563 .24499512 .2822113 .24499512 .46829225 .19999695 .685379 .024993897 .6923828V.66737368C.08799744 .65437319 .1749878 .56832888 .1749878 .2822113Z"/>
<path id="font_2_13" d="M.18998719 .7480469C.13999939 .7020416 .07199097 .6350403 .07199097 .56404116 .07199097 .5100403 .10398865 .47703553 .13699341 .4780426 .16699219 .4780426 .18499756 .4990387 .18499756 .5260315 .18499756 .56204226 .1519928 .58303835 .1519928 .6200409 .1519928 .6580353 .17599488 .6960449 .20698548 .7320404L.18998719 .7480469M.36999513 .7480469C.31999208 .7020416 .2519989 .6350403 .2519989 .56404116 .2519989 .5100403 .28399659 .47703553 .31698609 .4780426 .34700013 .4780426 .36499024 .4990387 .36499024 .5260315 .36499024 .56204226 .33198548 .58303835 .33198548 .6200409 .33198548 .6580353 .35598756 .6960449 .3869934 .7320404L.36999513 .7480469Z"/>
<path id="font_2_12" d="M.28799439 .5019531C.12799073 .5019531 .04899597 .40698243 .04899597 .24510193 .04899597 .083236698 .12799073-.01171875 .28799439-.01171875 .44999696-.01171875 .5279999 .083236698 .5279999 .24510193 .5279999 .40698243 .44999696 .5019531 .28799439 .5019531M.15299988 .24510193C.15299988 .38301087 .19699097 .46694947 .28799439 .46694947 .3809967 .46694947 .42399598 .38301087 .42399598 .24510193 .42399598 .10720825 .3809967 .023269654 .28799439 .023269654 .19699097 .023269654 .15299988 .10720825 .15299988 .24510193Z"/>
<path id="font_2_10" d="M.20098877 .45022584H.32299806V.49023438H.20098877L.19699097 .60220339C.19400025 .6971741 .22898865 .70718386 .24499512 .70718386 .2659912 .70718386 .28799439 .6971741 .31298829 .6391907 .31799317 .62919619 .32499696 .6221924 .33999635 .6221924 .3600006 .6221924 .3889923 .6391907 .3889923 .66918948 .3889923 .70217898 .34700013 .7421875 .2669983 .7421875 .21199036 .7421875 .16499329 .71717837 .13999939 .67918398 .116989139 .64419558 .10699463 .5912018 .10699463 .5252228V.49023438H.02999878V.45022584H.10699463V.087020877C.10699463 .035995485 .10398865 .033996583 .03199768 .0289917V0H.29599V.0289917C.20498657 .032989503 .20098877 .034988405 .20098877 .08602905V.45022584Z"/>
<path id="font_2_14" d="M.08898926 .47218324C.13899231 .5181732 .20698548 .58517459 .20698548 .6561737 .20698548 .71017459 .1749878 .7431793 .14199829 .7421875 .11199951 .7421875 .09399414 .72117617 .09399414 .69418337 .09399414 .6581726 .1269989 .6371765 .1269989 .60017397 .1269989 .56217959 .102996829 .5241852 .07199097 .48817445L.08898926 .47218324M.2689972 .47218324C.31900025 .5181732 .3869934 .58517459 .3869934 .6561737 .3869934 .71017459 .35499574 .7431793 .32199098 .7421875 .2919922 .7421875 .27398683 .72117617 .27398683 .69418337 .27398683 .6581726 .30699159 .6371765 .30699159 .60017397 .30699159 .56217959 .2829895 .5241852 .2519989 .48817445L.2689972 .47218324Z"/>
<path id="font_2_11" d="M.5289917 .34295655C.5289917 .4439392 .47399903 .5019531 .38198854 .5019531 .30799867 .5019531 .2619934 .46594239 .19999695 .4259491L.18598938 .5019531 .036987306 .47694398V.45195008L.07499695 .4469452C.100997928 .4429474 .10699463 .4379425 .10699463 .40194703V.08699036C.10699463 .035995485 .10398865 .033996583 .03199768 .0289917V0H.27598573V.0289917C.20498657 .033996583 .20098877 .035995485 .20098877 .08699036V.32095338C.20098877 .34596253 .20298767 .35995484 .21099854 .37594605 .23199463 .4149475 .2769928 .44795228 .32998658 .44795228 .397995 .44795228 .43499757 .40994264 .43499757 .32295228V.08699036C.43499757 .035995485 .43199159 .033996583 .3600006 .0289917V0H.60398867V.0289917C.5329895 .033996583 .5289917 .035995485 .5289917 .08699036V.34295655Z"/>
</defs>
<path transform="matrix(1.00009,0,0,-1.00003,70.946338,37.517736)" d="M-69.44937-21.82706V35.71686H29.764V-21.82706ZM29.764 35.71686" fill="#d9d9ff"/>
<path transform="matrix(1.00009,0,0,-1.00003,70.946338,37.517736)" d="M29.764-21.82706V35.71686H69.44937V-21.82706ZM69.44937 35.71686" fill="#d9ffd9"/>
<path transform="matrix(1.00009,0,0,-1.00003,70.946338,37.517736)" stroke-width=".3985" stroke-linecap="butt" stroke-miterlimit="10" stroke-linejoin="miter" fill="none" stroke="#000000" d="M-69.44937 0H68.99109"/>
<path transform="matrix(1.00009,0,0,-1.00003,139.94364,37.517736)" stroke-width=".31879" stroke-linecap="round" stroke-linejoin="round" fill="none" stroke="#000000" d="M-1.19551 1.59401C-1.09587 .99626 0 .09961 .29886 0 0-.09961-1.09587-.99626-1.19551-1.59401"/>
<use data-text="t" xlink:href="#font_1_2" transform="matrix(9.166425,0,0,-9.165875,138.44841,46.56601)"/>
<path transform="matrix(1.00009,0,0,-1.00003,70.946338,37.517736)" stroke-width=".3985" stroke-linecap="butt" stroke-miterlimit="10" stroke-linejoin="miter" fill="none" stroke="#000000" d="M0-21.82706V35.25858"/>
<path transform="matrix(0,-1.00003,-1.00009,-0,70.946338,2.2580949)" stroke-width=".31879" stroke-linecap="round" stroke-linejoin="round" fill="none" stroke="#000000" d="M-1.19551 1.59401C-1.09587 .99626 0 .09961 .29886 0 0-.09961-1.09587-.99626-1.19551-1.59401"/>
<path transform="matrix(1.00009,0,0,-1.00003,70.946338,37.517736)" stroke-width=".3985" stroke-linecap="butt" stroke-miterlimit="10" stroke-linejoin="miter" fill="none" stroke="#b5b5b5" d="M-59.52802 1.98438V-1.98438"/>
<use data-text="-" xlink:href="#font_2_3" transform="matrix(9.166425,0,0,-9.165875,7.1835939,48.641069)"/>
<use data-text="3" xlink:href="#font_2_8" transform="matrix(9.166425,0,0,-9.165875,10.776825,48.641069)"/>
<path transform="matrix(1.00009,0,0,-1.00003,70.946338,37.517736)" stroke-width=".3985" stroke-linecap="butt" stroke-miterlimit="10" stroke-linejoin="miter" fill="none" stroke="#b5b5b5" d="M-39.68535 1.98438V-1.98438"/>
<use data-text="-" xlink:href="#font_2_3" transform="matrix(9.166425,0,0,-9.165875,27.027382,48.641069)"/>
<use data-text="2" xlink:href="#font_2_7" transform="matrix(9.166425,0,0,-9.165875,30.620614,48.641069)"/>
<path transform="matrix(1.00009,0,0,-1.00003,70.946338,37.517736)" stroke-width=".3985" stroke-linecap="butt" stroke-miterlimit="10" stroke-linejoin="miter" fill="none" stroke="#b5b5b5" d="M-19.84267 1.98438V-1.98438"/>
<use data-text="-" xlink:href="#font_2_3" transform="matrix(9.166425,0,0,-9.165875,46.87217,48.641069)"/>
<use data-text="1" xlink:href="#font_2_6" transform="matrix(9.166425,0,0,-9.165875,50.4654,48.641069)"/>
<path transform="matrix(1.00009,0,0,-1.00003,70.946338,37.517736)" stroke-width=".3985" stroke-linecap="butt" stroke-miterlimit="10" stroke-linejoin="miter" fill="none" stroke="#b5b5b5" d="M0 1.98438V-1.98438"/>
<use data-text="0" xlink:href="#font_2_5" transform="matrix(9.166425,0,0,-9.165875,68.515117,48.641069)"/>
<path transform="matrix(1.00009,0,0,-1.00003,70.946338,37.517736)" stroke-width=".3985" stroke-linecap="butt" stroke-miterlimit="10" stroke-linejoin="miter" fill="none" stroke="#b5b5b5" d="M19.84267 1.98438V-1.98438"/>
<use data-text="1" xlink:href="#font_2_6" transform="matrix(9.166425,0,0,-9.165875,88.3599,48.641069)"/>
<path transform="matrix(1.00009,0,0,-1.00003,70.946338,37.517736)" stroke-width=".3985" stroke-linecap="butt" stroke-miterlimit="10" stroke-linejoin="miter" fill="none" stroke="#b5b5b5" d="M39.68535 1.98438V-1.98438"/>
<use data-text="2" xlink:href="#font_2_7" transform="matrix(9.166425,0,0,-9.165875,108.20369,48.641069)"/>
<path transform="matrix(1.00009,0,0,-1.00003,70.946338,37.517736)" stroke-width=".3985" stroke-linecap="butt" stroke-miterlimit="10" stroke-linejoin="miter" fill="none" stroke="#b5b5b5" d="M59.52802 1.98438V-1.98438"/>
<use data-text="3" xlink:href="#font_2_8" transform="matrix(9.166425,0,0,-9.165875,128.04848,48.641069)"/>
<path transform="matrix(1.00009,0,0,-1.00003,70.946338,37.517736)" stroke-width=".3985" stroke-linecap="butt" stroke-miterlimit="10" stroke-linejoin="miter" fill="none" stroke="#b5b5b5" d="M1.98438 19.84267H-1.98438"/>
<use data-text="1" xlink:href="#font_2_6" transform="matrix(9.166425,0,0,-9.165875,61.692506,20.74323)"/>
<path transform="matrix(1.00009,0,0,-1.00003,70.946338,37.517736)" stroke-width="1.19553" stroke-linecap="butt" stroke-miterlimit="10" stroke-linejoin="miter" fill="none" stroke="#0000ff" d="M-69.44937 0H-68.95583-68.46231-67.96878-67.47527-66.98174-66.48822-65.9947-65.50116-65.00764-64.51411-64.0206-63.52707-63.03355-62.54002-62.04651-61.55296-61.05945-60.56593-60.07242-59.57889-59.08537-58.59184-58.09833-57.60478-57.11127-56.61775-56.12422-55.6307-55.13718-54.64366-54.15012-53.6566-53.16307-52.66956-52.17603-51.68251-51.189-50.69547-50.20193-49.7084-49.21489-48.72136-48.22784-47.73431-47.2408-46.74727-46.25374-45.76021-45.2667-44.77318-44.27965-43.78613-43.2926-42.79907-42.30556-41.81204-41.31851-40.825-40.33147-39.83795-39.34442-38.85089-38.35736-37.86385-37.37032-36.8768-36.38327-35.88976-35.39624-34.9027-34.40918-33.91565-33.42213-32.9286-32.43509-31.94156-31.44804-30.9545-30.46098-29.96747-29.47394-28.98042-28.4869-27.99338-27.49983-27.00632-26.51279-26.01927-25.52574-25.03224-24.53871-24.0452-23.55165-23.05814-22.5646-22.07109-21.57756-21.08405-20.59052-20.097-19.60347-19.10994-18.61642-18.1229-17.62938-17.13585-16.64233-16.14879-15.65527-15.16174-14.66823-14.17471-13.68118-13.18767-12.69414-12.2006-11.70708-11.21356-10.72003-10.22652-9.73299-9.23947-8.74594-8.25241-7.7589-7.26538-6.77185-6.27834-5.7848-5.29129-4.79776-4.30423-3.81071-3.31718-2.82367-2.33014-1.83662-1.3431-.84956-.35603 .13744 .63097 1.12448 1.61801 2.11153 2.60506 3.09859 3.59212 4.08563 4.57915 5.07268 5.5662 6.05972 6.55325 7.04678 7.5403 8.03383 8.52734 9.02087 9.51439 10.0079 10.50143 10.99496 11.48848 11.98201 12.47552 12.96906 13.46257 13.95609 14.44963 14.94315 15.43668 15.93019 16.42372 16.91724 17.41077 17.9043 18.39783 18.89134 19.38487 19.87839 20.3719 20.86543 21.35895 21.8525 22.34601 22.83954 23.33305 23.82658 24.3201 24.81363 25.30714 25.80069 26.2942 26.78772 27.28125 27.77477 28.26828 28.76181"/>
<path transform="matrix(1.00009,0,0,-1.00003,70.946338,37.517736)" stroke-width="1.19553" stroke-linecap="butt" stroke-miterlimit="10" stroke-linejoin="miter" fill="none" stroke="#009900" d="M29.764 19.84267H29.96323 30.16245 30.3617 30.56091 30.76013 30.95935 31.15857 31.35782 31.55704 31.75626 31.95549 32.15471 32.35394 32.55318 32.7524 32.95161 33.15083 33.35007 33.5493 33.74852 33.94774 34.14697 34.3462 34.54543 34.74466 34.94388 35.14311 35.34233 35.54155 35.74078 35.94 36.13924 36.33847 36.53769 36.73691 36.93614 37.13536 37.3346 37.53381 37.73303 37.93227 38.1315 38.33073 38.52995 38.72917 38.9284 39.12764 39.32686 39.52608 39.7253 39.92455 40.12376 40.32298 40.52222 40.72144 40.92067 41.1199 41.31912 41.51834 41.71756 41.9168 42.11603 42.31525 42.51447 42.7137 42.91293 43.11215 43.31139 43.51059 43.70982 43.90906 44.10828 44.30751 44.50673 44.70595 44.9052 45.10442 45.30363 45.50287 45.70209 45.90132 46.10054 46.29976 46.499 46.69823 46.89745 47.09668 47.2959 47.49512 47.69435 47.89357 48.0928 48.29202 48.49124 48.69049 48.88971 49.08894 49.28816 49.48738 49.68663 49.88583 50.08507 50.28429 50.4835 50.68275 50.88197 51.08119 51.28043 51.47966 51.67888 51.8781 52.07732 52.27655 52.47578 52.675 52.87424 53.07346 53.27267 53.47192 53.67114 53.87036 54.06958 54.2688 54.46805 54.66727 54.86649 55.06572 55.26494 55.46417 55.6634 55.86263 56.06184 56.26106 56.4603 56.65953 56.85875 57.05797 57.25722 57.45644 57.65565 57.85489 58.05411 58.25334 58.45256 58.65178 58.85101 59.05023 59.24948 59.4487 59.64792 59.84715 60.04637 60.2456 60.44482 60.64404 60.84328 61.0425 61.24173 61.44096 61.64018 61.8394 62.03864 62.23787 62.43709 62.6363 62.83553 63.03477 63.234 63.43321 63.63245 63.83167 64.0309 64.23013 64.42935 64.62857 64.82779 65.02702 65.22626 65.42548 65.6247 65.82393 66.02316 66.22238 66.42162 66.62082 66.82005 67.01929 67.2185 67.41774 67.61696 67.8162 68.01543 68.21465 68.41386 68.6131 68.81232 69.01155 69.21077 69.40999"/>
<path transform="matrix(1.00009,0,0,-1.00003,70.946338,37.517736)" stroke-width=".79701" stroke-linecap="butt" stroke-miterlimit="10" stroke-linejoin="miter" fill="none" stroke="#0000ff" d="M31.15878 0C31.15878 .77031 30.53432 1.39478 29.764 1.39478 28.9937 1.39478 28.36923 .77031 28.36923 0 28.36923-.77031 28.9937-1.39478 29.764-1.39478 30.53432-1.39478 31.15878-.77031 31.15878 0ZM29.764 0"/>
<path transform="matrix(1.00009,0,0,-1.00003,70.946338,37.517736)" d="M31.15878 19.84267C31.15878 20.61298 30.53432 21.23744 29.764 21.23744 28.9937 21.23744 28.36923 20.61298 28.36923 19.84267 28.36923 19.07234 28.9937 18.44788 29.764 18.44788 30.53432 18.44788 31.15878 19.07234 31.15878 19.84267ZM29.764 19.84267" fill="#009900"/>
<use data-text="t" xlink:href="#font_1_2" transform="matrix(7.33316,0,0,-7.3327205,40.674608,55.882287)" fill="#0000ff"/>
<use data-text="&#x003c;" xlink:href="#font_3_2" transform="matrix(7.33316,0,0,-7.3327205,45.32202,55.882287)" fill="#0000ff"/>
<use data-text="1" xlink:href="#font_2_6" transform="matrix(7.33316,0,0,-7.3327205,51.962617,55.882287)" fill="#0000ff"/>
<use data-text="." xlink:href="#font_2_4" transform="matrix(7.33316,0,0,-7.3327205,55.849199,55.882287)" fill="#0000ff"/>
<use data-text="5" xlink:href="#font_2_9" transform="matrix(7.33316,0,0,-7.3327205,57.792497,55.882287)" fill="#0000ff"/>
<use data-text="t" xlink:href="#font_1_2" transform="matrix(7.33316,0,0,-7.3327205,110.12986,55.882287)" fill="#009900"/>
<use data-text="&#x2265;" xlink:href="#font_3_1" transform="matrix(7.33316,0,0,-7.3327205,114.777278,55.882287)" fill="#009900"/>
<use data-text="1" xlink:href="#font_2_6" transform="matrix(7.33316,0,0,-7.3327205,121.41787,55.882287)" fill="#009900"/>
<use data-text="." xlink:href="#font_2_4" transform="matrix(7.33316,0,0,-7.3327205,125.30445,55.882287)" fill="#009900"/>
<use data-text="5" xlink:href="#font_2_9" transform="matrix(7.33316,0,0,-7.3327205,127.24775,55.882287)" fill="#009900"/>
<use data-text="U" xlink:href="#font_1_1" transform="matrix(9.166425,0,0,-9.165875,96.87666,11.6849579)" fill="#009900"/>
<use data-text="(" xlink:href="#font_2_1" transform="matrix(9.166425,0,0,-9.165875,105.236408,11.6849579)" fill="#009900"/>
<use data-text="t" xlink:href="#font_1_2" transform="matrix(9.166425,0,0,-9.165875,108.64371,11.6849579)" fill="#009900"/>
<use data-text=")" xlink:href="#font_2_2" transform="matrix(9.166425,0,0,-9.165875,112.74907,11.6849579)" fill="#009900"/>
<use data-text="&#x201c;" xlink:href="#font_2_13" transform="matrix(7.33316,0,0,-7.3327205,43.349855,30.310519)" fill="#0000ff"/>
<use data-text="o" xlink:href="#font_2_12" transform="matrix(7.33316,0,0,-7.3327205,46.121797,30.310519)" fill="#0000ff"/>
<use data-text="f" xlink:href="#font_2_10" transform="matrix(7.33316,0,0,-7.3327205,50.353029,30.310519)" fill="#0000ff"/>
<use data-text="f" xlink:href="#font_2_10" transform="matrix(7.33316,0,0,-7.3327205,52.692308,30.310519)" fill="#0000ff"/>
<use data-text="&#x201d;" xlink:href="#font_2_14" transform="matrix(7.33316,0,0,-7.3327205,55.49356,30.310519)" fill="#0000ff"/>
<use data-text="&#x201c;" xlink:href="#font_2_13" transform="matrix(7.33316,0,0,-7.3327205,113.40716,30.310519)" fill="#009900"/>
<use data-text="o" xlink:href="#font_2_12" transform="matrix(7.33316,0,0,-7.3327205,116.1791,30.310519)" fill="#009900"/>
<use data-text="n" xlink:href="#font_2_11" transform="matrix(7.33316,0,0,-7.3327205,120.41033,30.310519)" fill="#009900"/>
<use data-text="&#x201d;" xlink:href="#font_2_14" transform="matrix(7.33316,0,0,-7.3327205,124.35557,30.310519)" fill="#009900"/>
</svg>
