<svg xmlns="http://www.w3.org/2000/svg" xmlns:xlink="http://www.w3.org/1999/xlink" version="1.1" width="185" height="25" viewBox="0 0 185 25">
<defs>
<path id="font_1_1" d="M.43699647 0V.0289917L.35299684 .035995485C.33198548 .037994386 .31999208 .04598999 .31999208 .08496094V.67367556L.31498719 .6796875 .10899353 .6446991V.6197052L.20199585 .6087036C.21899414 .6067047 .22599793 .5987091 .22599793 .56973269V.08496094C.22599793 .065979007 .22299195 .053985597 .21699524 .04698181 .21199036 .039993287 .20399475 .036987306 .19299317 .035995485L.10899353 .0289917V0H.43699647Z"/>
<path id="font_1_2" d="M.4850006 .13195801 .45700074 .13696289C.43598939 .08299255 .41600038 .07598877 .37599183 .07598877H.11999512C.13598633 .1279602 .19499207 .19892884 .28799439 .2658844 .38398744 .33584596 .45799256 .38082887 .45799256 .49276734 .45799256 .63168337 .3659973 .6796875 .26098634 .6796875 .12399292 .6796875 .052993776 .5967102 .052993776 .54473879 .052993776 .51075747 .09098816 .49476625 .10798645 .49476625 .12599182 .49476625 .1329956 .50476077 .13699341 .5217438 .15299988 .5897064 .19198609 .64468386 .2539978 .64468386 .33099366 .64468386 .35299684 .5797119 .35299684 .50675967 .35299684 .3998108 .29899598 .33984376 .21199036 .26289369 .08898926 .15594483 .04598999 .08798218 .026992798 .009994507L.036987306 0H.45098878L.4850006 .13195801Z"/>
<path id="font_2_1" d="M.6349945 .2529297V.31092835H.084991458V.2529297H.6349945Z"/>
<clipPath id="clip_3">
<path transform="matrix(1.00006,0,0,-1.00002,1.3920441,17.700097)" d="M0 0H181.94214V11.85905H0Z"/>
</clipPath>
<path id="font_4_1" d="M.42799378 .45222474 .43899537 .49023438H.31199647L.34599305 .6092224 .33399964 .6162262 .23699951 .53923037 .22399903 .49023438H.14299011L.13198853 .45222474H.21499634L.125 .08627319C.10998535 .029266358 .12199402-.01171875 .17199707-.01171875 .2519989-.01171875 .31599427 .054275514 .35598756 .1292572L.33399964 .1462555C.31098939 .10726929 .2599945 .040267946 .22898865 .040267946 .20799256 .040267946 .20799256 .0632782 .21398926 .088272098L.30299378 .45222474H.42799378Z"/>
</defs>
<path transform="matrix(1.00006,0,0,-1.00002,1.3920441,17.700097)" stroke-width=".79701" stroke-linecap="butt" stroke-miterlimit="10" stroke-linejoin="miter" fill="none" stroke="#929292" d="M90.97107 3.80327V8.05577M155.9504 3.80327V8.05577"/>
<path transform="matrix(1.00006,0,0,-1.00002,1.3920441,17.700097)" stroke-width=".79701" stroke-linecap="butt" stroke-miterlimit="10" stroke-linejoin="miter" fill="none" stroke="#929292" d="M23.86568 1.8402H28.11777M23.86568 3.88486H28.11777M23.86568 7.9742H28.11777M23.86568 10.01886H28.11777"/>
<path transform="matrix(1.00006,0,0,-1.00002,1.3920441,17.700097)" stroke-width=".99628" stroke-linecap="butt" stroke-miterlimit="10" stroke-linejoin="miter" fill="none" stroke="#000000" d="M0 5.92952H179.05292"/>
<path transform="matrix(1.00006,0,0,-1.00002,180.4557,11.770457)" d="M2.8892 0-1.73352 2.31136 0 0-1.73352-2.31136"/>
<path transform="matrix(1.00006,0,0,-1.00002,1.3920441,17.700097)" stroke-width=".99628" stroke-linecap="butt" stroke-miterlimit="10" stroke-linejoin="miter" fill="none" stroke="#000000" d="M25.99173 0V8.96985"/>
<path transform="matrix(0,-1.00002,-1.00006,-0,27.385333,8.730067)" d="M2.8892 0-1.73352 2.31136 0 0-1.73352-2.31136"/>
<use data-text="1" xlink:href="#font_1_1" transform="matrix(10.037002,0,0,-10.036601,89.70634,24.315228)"/>
<use data-text="2" xlink:href="#font_1_2" transform="matrix(10.037002,0,0,-10.036601,154.69023,24.315228)"/>
<use data-text="&#x2212;" xlink:href="#font_2_1" transform="matrix(10.037002,0,0,-10.036601,9.0145,19.220128)"/>
<use data-text="2" xlink:href="#font_1_2" transform="matrix(10.037002,0,0,-10.036601,16.235928,19.220128)"/>
<use data-text="&#x2212;" xlink:href="#font_2_1" transform="matrix(10.037002,0,0,-10.036601,9.0145,17.175084)"/>
<use data-text="1" xlink:href="#font_1_1" transform="matrix(10.037002,0,0,-10.036601,16.235928,17.175084)"/>
<use data-text="1" xlink:href="#font_1_1" transform="matrix(10.037002,0,0,-10.036601,16.236935,13.086003)"/>
<use data-text="2" xlink:href="#font_1_2" transform="matrix(10.037002,0,0,-10.036601,16.236935,11.040961)"/>
<g clip-path="url(#clip_3)">
<path transform="matrix(1.00006,0,0,-1.00002,1.3920441,17.700097)" stroke-width=".99628" stroke-linecap="butt" stroke-miterlimit="10" stroke-linejoin="miter" fill="none" stroke="#000000" d="M26.82362 7.9742H51.98346"/>
<path transform="matrix(-1.00006,-0,0,1.00002,28.217272,9.725737)" stroke-width=".79701" stroke-linecap="round" stroke-linejoin="round" fill="none" stroke="#000000" d="M-1.73352 2.31136C-1.58905 1.4446 0 .14444 .43336 0 0-.14444-1.58905-1.4446-1.73352-2.31136"/>
<path transform="matrix(1.00006,0,0,-1.00002,1.3920441,17.700097)" stroke-width=".99628" stroke-linecap="butt" stroke-miterlimit="10" stroke-linejoin="miter" fill="none" stroke="#000000" d="M58.4814 5.92952"/>
<use data-text="1" xlink:href="#font_1_1" transform="matrix(10.037002,0,0,-10.036601,57.21539,8.072903)"/>
<path transform="matrix(1.00006,0,0,-1.00002,1.3920441,17.700097)" stroke-width=".99628" stroke-linecap="butt" stroke-miterlimit="10" stroke-linejoin="miter" fill="none" stroke="#000000" d="M64.97932 7.9742H90.13916"/>
<path transform="matrix(1.00006,0,0,-1.00002,91.536609,9.725737)" stroke-width=".79701" stroke-linecap="round" stroke-linejoin="round" fill="none" stroke="#000000" d="M-1.73352 2.31136C-1.58905 1.4446 0 .14444 .43336 0 0-.14444-1.58905-1.4446-1.73352-2.31136"/>
<path transform="matrix(1.00006,0,0,-1.00002,1.3920441,17.700097)" stroke-width=".99628" stroke-linecap="butt" stroke-miterlimit="10" stroke-linejoin="miter" fill="none" stroke="#000000" d="M91.80296 6.74739H116.9628"/>
<path transform="matrix(-1.00006,-0,0,1.00002,93.200519,10.952572)" stroke-width=".79701" stroke-linecap="round" stroke-linejoin="round" fill="none" stroke="#000000" d="M-1.73352 2.31136C-1.58905 1.4446 0 .14444 .43336 0 0-.14444-1.58905-1.4446-1.73352-2.31136"/>
<path transform="matrix(1.00006,0,0,-1.00002,1.3920441,17.700097)" stroke-width=".99628" stroke-linecap="butt" stroke-miterlimit="10" stroke-linejoin="miter" fill="none" stroke="#000000" d="M123.46074 6.33846"/>
<use data-text="1" xlink:href="#font_1_1" transform="matrix(10.037002,0,0,-10.036601,122.19829,7.6638939)"/>
<path transform="matrix(1.00006,0,0,-1.00002,1.3920441,17.700097)" stroke-width=".99628" stroke-linecap="butt" stroke-miterlimit="10" stroke-linejoin="miter" fill="none" stroke="#000000" d="M129.95867 6.74739H155.1185"/>
<path transform="matrix(1.00006,0,0,-1.00002,156.51985,10.952572)" stroke-width=".79701" stroke-linecap="round" stroke-linejoin="round" fill="none" stroke="#000000" d="M-1.73352 2.31136C-1.58905 1.4446 0 .14444 .43336 0 0-.14444-1.58905-1.4446-1.73352-2.31136"/>
</g>
<use data-text="t" xlink:href="#font_4_1" transform="matrix(10.037002,0,0,-10.036601,175.15247,7.9849007)"/>
</svg>
