<svg xmlns="http://www.w3.org/2000/svg" xmlns:xlink="http://www.w3.org/1999/xlink" version="1.1" width="130" height="73" viewBox="0 0 130 73">
<defs>
<path id="font_1_1" d="M.42799378 .45222474 .43899537 .49023438H.31199647L.34599305 .6092224 .33399964 .6162262 .23699951 .53923037 .22399903 .49023438H.14299011L.13198853 .45222474H.21499634L.125 .08627319C.10998535 .029266358 .12199402-.01171875 .17199707-.01171875 .2519989-.01171875 .31599427 .054275514 .35598756 .1292572L.33399964 .1462555C.31098939 .10726929 .2599945 .040267946 .22898865 .040267946 .20799256 .040267946 .20799256 .0632782 .21398926 .088272098L.30299378 .45222474H.42799378Z"/>
<path id="font_1_2" d="M.070999149 .45393373 .07398987 .42893983 .14199829 .43093873C.1639862 .43193055 .16899109 .41493226 .1769867 .36291505 .18798828 .28489686 .20999146 .09286499 .20999146 .0128479 .20999146-.017166138 .20799256-.058166505 .18598938-.11117554 .16799927-.15318299 .14199829-.18218994 .12199402-.18218994 .10699463-.18218994 .09599304-.17118836 .08099365-.15118408 .068984989-.13517761 .06098938-.127182 .04598999-.127182 .019989014-.12818909-.005004883-.15818787-.005004883-.18719483-.005004883-.21418762 .023986817-.2421875 .067993167-.2421875 .15299988-.2421875 .18998719-.17919922 .27799989-.027160645 .2979889 .0068511965 .35798646 .11286926 .41999818 .21488953 .47698976 .30891419 .5399933 .40592958 .5399933 .4459381 .5399933 .48094178 .5289917 .5019531 .5219879 .5019531 .5029907 .5019531 .46899415 .49394227 .44400025 .47694398 .44499208 .4419403 .44299317 .3809204 .43099977 .33891297 .4149933 .28289796 .35598756 .17488098 .2899933 .06085205H.2869873C.27999879 .21388245 .26098634 .42492677 .24699402 .49795533L.23899842 .5019531 .070999149 .45393373Z"/>
<path id="font_2_1" d="M.07398987 .2861328V.21612549H.31900025V.2861328H.07398987Z"/>
<path id="font_2_5" d="M.12998963 .3657837C.12998963 .3487854 .1349945 .33779908 .147995 .33779908 .1599884 .33779908 .18699646 .34777833 .23498535 .34777833 .31999208 .34777833 .36799623 .27090455 .36799623 .18403626 .36799623 .065216068 .30899049 .023269654 .23799134 .023269654 .17199707 .023269654 .1289978 .07319641 .10998535 .12911988 .10398865 .14808655 .09399414 .15707398 .07998657 .15707398 .06199646 .15707398 .026992798 .13809204 .026992798 .10215759 .026992798 .05921936 .09599304-.01171875 .23699951-.01171875 .38198854-.01171875 .47299195 .06121826 .47299195 .18902588 .47299195 .32281495 .35798646 .3627777 .30299378 .3677826V.3717804C.35699464 .38078309 .44400025 .4207611 .44400025 .5197296 .44400025 .6306915 .35699464 .6796875 .25 .6796875 .117996219 .6796875 .052993776 .60369876 .052993776 .5607147 .052993776 .5297241 .08799744 .51272585 .101989749 .51272585 .114990238 .51272585 .12298584 .5197296 .1269989 .5327301 .14898682 .60069277 .18699646 .64468386 .24299622 .64468386 .32199098 .64468386 .34098817 .57470706 .34098817 .51872256 .34098817 .4587555 .31999208 .38378907 .23498535 .38378907 .18699646 .38378907 .1599884 .39378358 .147995 .39378358 .1349945 .39378358 .12998963 .38378907 .12998963 .3657837Z"/>
<path id="font_2_4" d="M.4850006 .13195801 .45700074 .13696289C.43598939 .08299255 .41600038 .07598877 .37599183 .07598877H.11999512C.13598633 .1279602 .19499207 .19892884 .28799439 .2658844 .38398744 .33584596 .45799256 .38082887 .45799256 .49276734 .45799256 .63168337 .3659973 .6796875 .26098634 .6796875 .12399292 .6796875 .052993776 .5967102 .052993776 .54473879 .052993776 .51075747 .09098816 .49476625 .10798645 .49476625 .12599182 .49476625 .1329956 .50476077 .13699341 .5217438 .15299988 .5897064 .19198609 .64468386 .2539978 .64468386 .33099366 .64468386 .35299684 .5797119 .35299684 .50675967 .35299684 .3998108 .29899598 .33984376 .21199036 .26289369 .08898926 .15594483 .04598999 .08798218 .026992798 .009994507L.036987306 0H.45098878L.4850006 .13195801Z"/>
<path id="font_2_3" d="M.43699647 0V.0289917L.35299684 .035995485C.33198548 .037994386 .31999208 .04598999 .31999208 .08496094V.67367556L.31498719 .6796875 .10899353 .6446991V.6197052L.20199585 .6087036C.21899414 .6067047 .22599793 .5987091 .22599793 .56973269V.08496094C.22599793 .065979007 .22299195 .053985597 .21699524 .04698181 .21199036 .039993287 .20399475 .036987306 .19299317 .035995485L.10899353 .0289917V0H.43699647Z"/>
<path id="font_2_2" d="M.2649994 .64468386C.3600006 .64468386 .3869934 .49682618 .3869934 .33398438 .3869934 .17112732 .3600006 .023269654 .2649994 .023269654 .16999817 .023269654 .14299011 .17112732 .14299011 .33398438 .14299011 .49682618 .16999817 .64468386 .2649994 .64468386M.2649994 .6796875C.099990848 .6796875 .040985109 .53378298 .040985109 .33398438 .040985109 .13417053 .099990848-.01171875 .2649994-.01171875 .42999269-.01171875 .4889984 .13417053 .4889984 .33398438 .4889984 .53378298 .42999269 .6796875 .2649994 .6796875Z"/>
<path id="font_2_6" d="M.2999878 .17871094V.0769043C.2999878 .04296875 .2889862 .036987306 .2649994 .034988405L.20098877 .0289917V0H.46499635V.0289917L.41999818 .033981325C.39698792 .036987306 .3899994 .04296875 .3899994 .0769043V.17871094H.49299623V.22570801H.3899994V.66796877H.31698609C.22299195 .5298767 .11099243 .35577394 .018997193 .19970703L.027999878 .17871094H.2999878M.09098816 .22570801C.15098572 .33476258 .22099304 .4498291 .2979889 .5709076H.2999878V.22570801H.09098816Z"/>
<path id="font_2_7" d="M.42599488 .5919647 .44999696 .6599579 .44499208 .66796877H.11099243L.100997928 .65896609 .08099365 .32388307 .10499573 .31188966C.14698792 .35983277 .18798828 .3828125 .24198914 .3828125 .30599977 .3828125 .37599183 .3358612 .37599183 .20404053 .37599183 .10116577 .33399964 .023269654 .24699402 .023269654 .1769867 .023269654 .14099121 .07420349 .12098694 .13113404 .115997318 .14611817 .10699463 .15510559 .09298706 .15510559 .07299805 .15510559 .039993287 .13513184 .039993287 .10217285 .039993287 .056228639 .10998535-.01171875 .23999024-.01171875 .40499879-.01171875 .47999574 .0881958 .47999574 .21502686 .47999574 .35484315 .3919983 .4268036 .272995 .4268036 .21798706 .4268036 .15899658 .4028015 .1269989 .3738098L.125 .37580873 .147995 .56292727C.15098572 .58795168 .1579895 .5919647 .1769867 .5919647H.42599488Z"/>
</defs>
<path transform="matrix(1.0001,0,0,-1.00003,53.79229,42.497888)" stroke-width=".3985" stroke-linecap="butt" stroke-miterlimit="10" stroke-linejoin="miter" fill="none" stroke="#cbcbcb" d="M-39.6849-22.6771V34.01564"/>
<path transform="matrix(1.0001,0,0,-1.00003,53.79229,42.497888)" stroke-width=".3985" stroke-linecap="butt" stroke-miterlimit="10" stroke-linejoin="miter" fill="none" stroke="#cbcbcb" d="M-32.39589-22.6771V34.01564"/>
<path transform="matrix(1.0001,0,0,-1.00003,53.79229,42.497888)" stroke-width=".3985" stroke-linecap="butt" stroke-miterlimit="10" stroke-linejoin="miter" fill="none" stroke="#cbcbcb" d="M-25.10687-22.6771V34.01564"/>
<path transform="matrix(1.0001,0,0,-1.00003,53.79229,42.497888)" stroke-width=".3985" stroke-linecap="butt" stroke-miterlimit="10" stroke-linejoin="miter" fill="none" stroke="#cbcbcb" d="M-17.81786-22.6771V34.01564"/>
<path transform="matrix(1.0001,0,0,-1.00003,53.79229,42.497888)" stroke-width=".3985" stroke-linecap="butt" stroke-miterlimit="10" stroke-linejoin="miter" fill="none" stroke="#cbcbcb" d="M-10.52884-22.6771V34.01564"/>
<path transform="matrix(1.0001,0,0,-1.00003,53.79229,42.497888)" stroke-width=".3985" stroke-linecap="butt" stroke-miterlimit="10" stroke-linejoin="miter" fill="none" stroke="#cbcbcb" d="M-3.23982-22.6771V34.01564"/>
<path transform="matrix(1.0001,0,0,-1.00003,53.79229,42.497888)" stroke-width=".3985" stroke-linecap="butt" stroke-miterlimit="10" stroke-linejoin="miter" fill="none" stroke="#cbcbcb" d="M4.04918-22.6771V34.01564"/>
<path transform="matrix(1.0001,0,0,-1.00003,53.79229,42.497888)" stroke-width=".3985" stroke-linecap="butt" stroke-miterlimit="10" stroke-linejoin="miter" fill="none" stroke="#cbcbcb" d="M11.3382-22.6771V34.01564"/>
<path transform="matrix(1.0001,0,0,-1.00003,53.79229,42.497888)" stroke-width=".3985" stroke-linecap="butt" stroke-miterlimit="10" stroke-linejoin="miter" fill="none" stroke="#cbcbcb" d="M18.6272-22.6771V34.01564"/>
<path transform="matrix(1.0001,0,0,-1.00003,53.79229,42.497888)" stroke-width=".3985" stroke-linecap="butt" stroke-miterlimit="10" stroke-linejoin="miter" fill="none" stroke="#cbcbcb" d="M25.91621-22.6771V34.01564"/>
<path transform="matrix(1.0001,0,0,-1.00003,53.79229,42.497888)" stroke-width=".3985" stroke-linecap="butt" stroke-miterlimit="10" stroke-linejoin="miter" fill="none" stroke="#cbcbcb" d="M33.20525-22.6771V34.01564"/>
<path transform="matrix(1.0001,0,0,-1.00003,53.79229,42.497888)" stroke-width=".3985" stroke-linecap="butt" stroke-miterlimit="10" stroke-linejoin="miter" fill="none" stroke="#cbcbcb" d="M40.49426-22.6771V34.01564"/>
<path transform="matrix(1.0001,0,0,-1.00003,53.79229,42.497888)" stroke-width=".3985" stroke-linecap="butt" stroke-miterlimit="10" stroke-linejoin="miter" fill="none" stroke="#cbcbcb" d="M47.78328-22.6771V34.01564"/>
<path transform="matrix(1.0001,0,0,-1.00003,53.79229,42.497888)" stroke-width=".3985" stroke-linecap="butt" stroke-miterlimit="10" stroke-linejoin="miter" fill="none" stroke="#cbcbcb" d="M55.07231-22.6771V34.01564"/>
<path transform="matrix(1.0001,0,0,-1.00003,53.79229,42.497888)" stroke-width=".3985" stroke-linecap="butt" stroke-miterlimit="10" stroke-linejoin="miter" fill="none" stroke="#cbcbcb" d="M62.36131-22.6771V34.01564"/>
<path transform="matrix(1.0001,0,0,-1.00003,53.79229,42.497888)" stroke-width=".3985" stroke-linecap="butt" stroke-miterlimit="10" stroke-linejoin="miter" fill="none" stroke="#cbcbcb" d="M-45.35419-17.00781H68.0313"/>
<path transform="matrix(1.0001,0,0,-1.00003,53.79229,42.497888)" stroke-width=".3985" stroke-linecap="butt" stroke-miterlimit="10" stroke-linejoin="miter" fill="none" stroke="#cbcbcb" d="M-45.35419-13.76831H68.0313"/>
<path transform="matrix(1.0001,0,0,-1.00003,53.79229,42.497888)" stroke-width=".3985" stroke-linecap="butt" stroke-miterlimit="10" stroke-linejoin="miter" fill="none" stroke="#cbcbcb" d="M-45.35419-10.52884H68.0313"/>
<path transform="matrix(1.0001,0,0,-1.00003,53.79229,42.497888)" stroke-width=".3985" stroke-linecap="butt" stroke-miterlimit="10" stroke-linejoin="miter" fill="none" stroke="#cbcbcb" d="M-45.35419-7.28934H68.0313"/>
<path transform="matrix(1.0001,0,0,-1.00003,53.79229,42.497888)" stroke-width=".3985" stroke-linecap="butt" stroke-miterlimit="10" stroke-linejoin="miter" fill="none" stroke="#cbcbcb" d="M-45.35419-4.04987H68.0313"/>
<path transform="matrix(1.0001,0,0,-1.00003,53.79229,42.497888)" stroke-width=".3985" stroke-linecap="butt" stroke-miterlimit="10" stroke-linejoin="miter" fill="none" stroke="#cbcbcb" d="M-45.35419-.81036H68.0313"/>
<path transform="matrix(1.0001,0,0,-1.00003,53.79229,42.497888)" stroke-width=".3985" stroke-linecap="butt" stroke-miterlimit="10" stroke-linejoin="miter" fill="none" stroke="#cbcbcb" d="M-45.35419 2.42908H68.0313"/>
<path transform="matrix(1.0001,0,0,-1.00003,53.79229,42.497888)" stroke-width=".3985" stroke-linecap="butt" stroke-miterlimit="10" stroke-linejoin="miter" fill="none" stroke="#cbcbcb" d="M-45.35419 5.66856H68.0313"/>
<path transform="matrix(1.0001,0,0,-1.00003,53.79229,42.497888)" stroke-width=".3985" stroke-linecap="butt" stroke-miterlimit="10" stroke-linejoin="miter" fill="none" stroke="#cbcbcb" d="M-45.35419 8.90805H68.0313"/>
<path transform="matrix(1.0001,0,0,-1.00003,53.79229,42.497888)" stroke-width=".3985" stroke-linecap="butt" stroke-miterlimit="10" stroke-linejoin="miter" fill="none" stroke="#cbcbcb" d="M-45.35419 12.14754H68.0313"/>
<path transform="matrix(1.0001,0,0,-1.00003,53.79229,42.497888)" stroke-width=".3985" stroke-linecap="butt" stroke-miterlimit="10" stroke-linejoin="miter" fill="none" stroke="#cbcbcb" d="M-45.35419 15.38702H68.0313"/>
<path transform="matrix(1.0001,0,0,-1.00003,53.79229,42.497888)" stroke-width=".3985" stroke-linecap="butt" stroke-miterlimit="10" stroke-linejoin="miter" fill="none" stroke="#cbcbcb" d="M-45.35419 18.62653H68.0313"/>
<path transform="matrix(1.0001,0,0,-1.00003,53.79229,42.497888)" stroke-width=".3985" stroke-linecap="butt" stroke-miterlimit="10" stroke-linejoin="miter" fill="none" stroke="#cbcbcb" d="M-45.35419 21.866H68.0313"/>
<path transform="matrix(1.0001,0,0,-1.00003,53.79229,42.497888)" stroke-width=".3985" stroke-linecap="butt" stroke-miterlimit="10" stroke-linejoin="miter" fill="none" stroke="#cbcbcb" d="M-45.35419 25.10548H68.0313"/>
<path transform="matrix(1.0001,0,0,-1.00003,53.79229,42.497888)" stroke-width=".3985" stroke-linecap="butt" stroke-miterlimit="10" stroke-linejoin="miter" fill="none" stroke="#cbcbcb" d="M-45.35419 28.34497H68.0313"/>
<path transform="matrix(1.0001,0,0,-1.00003,53.79229,42.497888)" stroke-width=".3985" stroke-linecap="butt" stroke-miterlimit="10" stroke-linejoin="miter" fill="none" stroke="#000000" d="M-45.35419 0H74.43597"/>
<path transform="matrix(1.0001,0,0,-1.00003,128.43497,42.497888)" stroke-width=".3985" stroke-linecap="round" stroke-linejoin="round" fill="none" stroke="#000000" d="M-2.07224 2.39104C-1.69365 .95639-.84999 .27895 0 0-.84999-.27895-1.69365-.95639-2.07224-2.39104"/>
<use data-text="t" xlink:href="#font_1_1" transform="matrix(7.3332335,0,0,-7.3327205,124.23733,50.416124)"/>
<path transform="matrix(1.0001,0,0,-1.00003,53.79229,42.497888)" stroke-width=".3985" stroke-linecap="butt" stroke-miterlimit="10" stroke-linejoin="miter" fill="none" stroke="#000000" d="M0-22.6771V40.42033"/>
<path transform="matrix(0,-1.00003,-1.0001,-0,53.79229,1.8770866)" stroke-width=".3985" stroke-linecap="round" stroke-linejoin="round" fill="none" stroke="#000000" d="M-2.07224 2.39104C-1.69365 .95639-.84999 .27895 0 0-.84999-.27895-1.69365-.95639-2.07224-2.39104"/>
<use data-text="y" xlink:href="#font_1_2" transform="matrix(7.3332335,0,0,-7.3327205,46.288537,5.4257738)"/>
<path transform="matrix(1.0001,0,0,-1.00003,53.79229,42.497888)" stroke-width=".3985" stroke-linecap="butt" stroke-miterlimit="10" stroke-linejoin="miter" fill="none" stroke="#cbcbcb" d="M-45.35419-22.6771V34.01564H68.0313V-22.6771ZM68.0313 34.01564"/>
<path transform="matrix(1.0001,0,0,-1.00003,53.79229,42.497888)" stroke-width=".3985" stroke-linecap="butt" stroke-miterlimit="10" stroke-linejoin="miter" fill="none" stroke="#000000" d="M-34.01564-23.811V-21.54315"/>
<use data-text="-" xlink:href="#font_2_1" transform="matrix(5.49995,0,0,-5.499565,14.4003529,71.12275)"/>
<use data-text="3" xlink:href="#font_2_5" transform="matrix(5.49995,0,0,-5.499565,16.556328,71.12275)"/>
<path transform="matrix(1.0001,0,0,-1.00003,53.79229,42.497888)" stroke-width=".3985" stroke-linecap="butt" stroke-miterlimit="10" stroke-linejoin="miter" fill="none" stroke="#000000" d="M-22.6771-23.811V-21.54315"/>
<use data-text="-" xlink:href="#font_2_1" transform="matrix(5.49995,0,0,-5.499565,25.740487,71.12275)"/>
<use data-text="2" xlink:href="#font_2_4" transform="matrix(5.49995,0,0,-5.499565,27.896462,71.12275)"/>
<path transform="matrix(1.0001,0,0,-1.00003,53.79229,42.497888)" stroke-width=".3985" stroke-linecap="butt" stroke-miterlimit="10" stroke-linejoin="miter" fill="none" stroke="#000000" d="M-11.33855-23.811V-21.54315"/>
<use data-text="-" xlink:href="#font_2_1" transform="matrix(5.49995,0,0,-5.499565,37.07962,71.12275)"/>
<use data-text="1" xlink:href="#font_2_3" transform="matrix(5.49995,0,0,-5.499565,39.235597,71.12275)"/>
<path transform="matrix(1.0001,0,0,-1.00003,53.79229,42.497888)" stroke-width=".3985" stroke-linecap="butt" stroke-miterlimit="10" stroke-linejoin="miter" fill="none" stroke="#000000" d="M0-23.811V-21.54315"/>
<use data-text="0" xlink:href="#font_2_2" transform="matrix(5.49995,0,0,-5.499565,52.333147,71.12275)"/>
<path transform="matrix(1.0001,0,0,-1.00003,53.79229,42.497888)" stroke-width=".3985" stroke-linecap="butt" stroke-miterlimit="10" stroke-linejoin="miter" fill="none" stroke="#000000" d="M11.33855-23.811V-21.54315"/>
<use data-text="1" xlink:href="#font_2_3" transform="matrix(5.49995,0,0,-5.499565,63.67328,71.12275)"/>
<path transform="matrix(1.0001,0,0,-1.00003,53.79229,42.497888)" stroke-width=".3985" stroke-linecap="butt" stroke-miterlimit="10" stroke-linejoin="miter" fill="none" stroke="#000000" d="M22.6771-23.811V-21.54315"/>
<use data-text="2" xlink:href="#font_2_4" transform="matrix(5.49995,0,0,-5.499565,75.01341,71.12275)"/>
<path transform="matrix(1.0001,0,0,-1.00003,53.79229,42.497888)" stroke-width=".3985" stroke-linecap="butt" stroke-miterlimit="10" stroke-linejoin="miter" fill="none" stroke="#000000" d="M34.01564-23.811V-21.54315"/>
<use data-text="3" xlink:href="#font_2_5" transform="matrix(5.49995,0,0,-5.499565,86.35255,71.12275)"/>
<path transform="matrix(1.0001,0,0,-1.00003,53.79229,42.497888)" stroke-width=".3985" stroke-linecap="butt" stroke-miterlimit="10" stroke-linejoin="miter" fill="none" stroke="#000000" d="M45.35419-23.811V-21.54315"/>
<use data-text="4" xlink:href="#font_2_6" transform="matrix(5.49995,0,0,-5.499565,97.69268,71.12275)"/>
<path transform="matrix(1.0001,0,0,-1.00003,53.79229,42.497888)" stroke-width=".3985" stroke-linecap="butt" stroke-miterlimit="10" stroke-linejoin="miter" fill="none" stroke="#000000" d="M56.69275-23.811V-21.54315"/>
<use data-text="5" xlink:href="#font_2_7" transform="matrix(5.49995,0,0,-5.499565,109.031818,71.12275)"/>
<path transform="matrix(1.0001,0,0,-1.00003,53.79229,42.497888)" stroke-width=".3985" stroke-linecap="butt" stroke-miterlimit="10" stroke-linejoin="miter" fill="none" stroke="#000000" d="M-46.48811-11.33855H-44.22026"/>
<use data-text="-" xlink:href="#font_2_1" transform="matrix(5.49995,0,0,-5.499565,1.0930176,55.678285)"/>
<use data-text="1" xlink:href="#font_2_3" transform="matrix(5.49995,0,0,-5.499565,3.248993,55.678285)"/>
<path transform="matrix(1.0001,0,0,-1.00003,53.79229,42.497888)" stroke-width=".3985" stroke-linecap="butt" stroke-miterlimit="10" stroke-linejoin="miter" fill="none" stroke="#000000" d="M-46.48811 0H-44.22026"/>
<use data-text="0" xlink:href="#font_2_2" transform="matrix(5.49995,0,0,-5.499565,3.251236,44.32394)"/>
<path transform="matrix(1.0001,0,0,-1.00003,53.79229,42.497888)" stroke-width=".3985" stroke-linecap="butt" stroke-miterlimit="10" stroke-linejoin="miter" fill="none" stroke="#000000" d="M-46.48811 11.33855H-44.22026"/>
<use data-text="1" xlink:href="#font_2_3" transform="matrix(5.49995,0,0,-5.499565,3.251236,33.000604)"/>
<path transform="matrix(1.0001,0,0,-1.00003,53.79229,42.497888)" stroke-width=".3985" stroke-linecap="butt" stroke-miterlimit="10" stroke-linejoin="miter" fill="none" stroke="#000000" d="M-46.48811 22.6771H-44.22026"/>
<use data-text="2" xlink:href="#font_2_4" transform="matrix(5.49995,0,0,-5.499565,3.251236,21.66126)"/>
<path transform="matrix(1.0001,0,0,-1.00003,53.79229,42.497888)" stroke-width=".79701" stroke-linecap="butt" stroke-miterlimit="10" stroke-linejoin="miter" fill="none" stroke="#409f9f" d="M-39.89978-19.26527-39.47005-14.75035"/>
<path transform="matrix(1.0001,0,0,-1.00003,53.79229,42.497888)" stroke-width=".79701" stroke-linecap="butt" stroke-miterlimit="10" stroke-linejoin="miter" fill="none" stroke="#409f9f" d="M-39.97296-16.01747-39.39687-11.51917"/>
<path transform="matrix(1.0001,0,0,-1.00003,53.79229,42.497888)" stroke-width=".79701" stroke-linecap="butt" stroke-miterlimit="10" stroke-linejoin="miter" fill="none" stroke="#409f9f" d="M-40.09494-12.75914-39.27489-8.29854"/>
<path transform="matrix(1.0001,0,0,-1.00003,53.79229,42.497888)" stroke-width=".79701" stroke-linecap="butt" stroke-miterlimit="10" stroke-linejoin="miter" fill="none" stroke="#409f9f" d="M-40.32521-9.46478-39.0446-5.11389"/>
<path transform="matrix(1.0001,0,0,-1.00003,53.79229,42.497888)" stroke-width=".79701" stroke-linecap="butt" stroke-miterlimit="10" stroke-linejoin="miter" fill="none" stroke="#409f9f" d="M-40.84253-5.99884-38.5273-2.10088"/>
<path transform="matrix(1.0001,0,0,-1.00003,53.79229,42.497888)" stroke-width=".79701" stroke-linecap="butt" stroke-miterlimit="10" stroke-linejoin="miter" fill="none" stroke="#409f9f" d="M-41.85846-1.45378-37.51137-.16695"/>
<path transform="matrix(1.0001,0,0,-1.00003,53.79229,42.497888)" stroke-width=".79701" stroke-linecap="butt" stroke-miterlimit="10" stroke-linejoin="miter" fill="none" stroke="#409f9f" d="M-41.48543 3.80676-37.88438 1.05138"/>
<path transform="matrix(1.0001,0,0,-1.00003,53.79229,42.497888)" stroke-width=".79701" stroke-linecap="butt" stroke-miterlimit="10" stroke-linejoin="miter" fill="none" stroke="#409f9f" d="M-40.94235 7.55525-38.42746 3.78188"/>
<path transform="matrix(1.0001,0,0,-1.00003,53.79229,42.497888)" stroke-width=".79701" stroke-linecap="butt" stroke-miterlimit="10" stroke-linejoin="miter" fill="none" stroke="#409f9f" d="M-40.737 10.91637-38.63283 6.89973"/>
<path transform="matrix(1.0001,0,0,-1.00003,53.79229,42.497888)" stroke-width=".79701" stroke-linecap="butt" stroke-miterlimit="10" stroke-linejoin="miter" fill="none" stroke="#409f9f" d="M-40.70308 14.17368-38.66675 10.12141"/>
<path transform="matrix(1.0001,0,0,-1.00003,53.79229,42.497888)" stroke-width=".79701" stroke-linecap="butt" stroke-miterlimit="10" stroke-linejoin="miter" fill="none" stroke="#409f9f" d="M-40.8119 17.35434-38.5579 13.41971"/>
<path transform="matrix(1.0001,0,0,-1.00003,53.79229,42.497888)" stroke-width=".79701" stroke-linecap="butt" stroke-miterlimit="10" stroke-linejoin="miter" fill="none" stroke="#409f9f" d="M-41.1555 20.35266-38.21431 16.90038"/>
<path transform="matrix(1.0001,0,0,-1.00003,53.79229,42.497888)" stroke-width=".79701" stroke-linecap="butt" stroke-miterlimit="10" stroke-linejoin="miter" fill="none" stroke="#409f9f" d="M-41.87039 22.46895-37.49942 21.26306"/>
<path transform="matrix(1.0001,0,0,-1.00003,53.79229,42.497888)" stroke-width=".79701" stroke-linecap="butt" stroke-miterlimit="10" stroke-linejoin="miter" fill="none" stroke="#409f9f" d="M-41.33008 23.54474-38.03973 26.66623"/>
<path transform="matrix(1.0001,0,0,-1.00003,53.79229,42.497888)" stroke-width=".79701" stroke-linecap="butt" stroke-miterlimit="10" stroke-linejoin="miter" fill="none" stroke="#409f9f" d="M-40.5273 26.23978-38.84253 30.45018"/>
<path transform="matrix(1.0001,0,0,-1.00003,53.79229,42.497888)" stroke-width=".79701" stroke-linecap="butt" stroke-miterlimit="10" stroke-linejoin="miter" fill="none" stroke="#409f9f" d="M-32.61076-19.26527-32.18103-14.75035"/>
<path transform="matrix(1.0001,0,0,-1.00003,53.79229,42.497888)" stroke-width=".79701" stroke-linecap="butt" stroke-miterlimit="10" stroke-linejoin="miter" fill="none" stroke="#409f9f" d="M-32.68394-16.01747-32.10785-11.51917"/>
<path transform="matrix(1.0001,0,0,-1.00003,53.79229,42.497888)" stroke-width=".79701" stroke-linecap="butt" stroke-miterlimit="10" stroke-linejoin="miter" fill="none" stroke="#409f9f" d="M-32.80592-12.75914-31.98587-8.29854"/>
<path transform="matrix(1.0001,0,0,-1.00003,53.79229,42.497888)" stroke-width=".79701" stroke-linecap="butt" stroke-miterlimit="10" stroke-linejoin="miter" fill="none" stroke="#409f9f" d="M-33.03621-9.46478-31.75558-5.11389"/>
<path transform="matrix(1.0001,0,0,-1.00003,53.79229,42.497888)" stroke-width=".79701" stroke-linecap="butt" stroke-miterlimit="10" stroke-linejoin="miter" fill="none" stroke="#409f9f" d="M-33.55351-5.99884-31.23828-2.10088"/>
<path transform="matrix(1.0001,0,0,-1.00003,53.79229,42.497888)" stroke-width=".79701" stroke-linecap="butt" stroke-miterlimit="10" stroke-linejoin="miter" fill="none" stroke="#409f9f" d="M-34.56944-1.45378-30.22235-.16695"/>
<path transform="matrix(1.0001,0,0,-1.00003,53.79229,42.497888)" stroke-width=".79701" stroke-linecap="butt" stroke-miterlimit="10" stroke-linejoin="miter" fill="none" stroke="#409f9f" d="M-34.19641 3.80676-30.59537 1.05138"/>
<path transform="matrix(1.0001,0,0,-1.00003,53.79229,42.497888)" stroke-width=".79701" stroke-linecap="butt" stroke-miterlimit="10" stroke-linejoin="miter" fill="none" stroke="#409f9f" d="M-33.65334 7.55525-31.13844 3.78188"/>
<path transform="matrix(1.0001,0,0,-1.00003,53.79229,42.497888)" stroke-width=".79701" stroke-linecap="butt" stroke-miterlimit="10" stroke-linejoin="miter" fill="none" stroke="#409f9f" d="M-33.44798 10.91637-31.34381 6.89973"/>
<path transform="matrix(1.0001,0,0,-1.00003,53.79229,42.497888)" stroke-width=".79701" stroke-linecap="butt" stroke-miterlimit="10" stroke-linejoin="miter" fill="none" stroke="#409f9f" d="M-33.41406 14.17368-31.37773 10.12141"/>
<path transform="matrix(1.0001,0,0,-1.00003,53.79229,42.497888)" stroke-width=".79701" stroke-linecap="butt" stroke-miterlimit="10" stroke-linejoin="miter" fill="none" stroke="#409f9f" d="M-33.52289 17.35434-31.26889 13.41971"/>
<path transform="matrix(1.0001,0,0,-1.00003,53.79229,42.497888)" stroke-width=".79701" stroke-linecap="butt" stroke-miterlimit="10" stroke-linejoin="miter" fill="none" stroke="#409f9f" d="M-33.86649 20.35266-30.92531 16.90038"/>
<path transform="matrix(1.0001,0,0,-1.00003,53.79229,42.497888)" stroke-width=".79701" stroke-linecap="butt" stroke-miterlimit="10" stroke-linejoin="miter" fill="none" stroke="#409f9f" d="M-34.58138 22.46895-30.21042 21.26306"/>
<path transform="matrix(1.0001,0,0,-1.00003,53.79229,42.497888)" stroke-width=".79701" stroke-linecap="butt" stroke-miterlimit="10" stroke-linejoin="miter" fill="none" stroke="#409f9f" d="M-34.04106 23.54474-30.75072 26.66623"/>
<path transform="matrix(1.0001,0,0,-1.00003,53.79229,42.497888)" stroke-width=".79701" stroke-linecap="butt" stroke-miterlimit="10" stroke-linejoin="miter" fill="none" stroke="#409f9f" d="M-33.23828 26.23978-31.55351 30.45018"/>
<path transform="matrix(1.0001,0,0,-1.00003,53.79229,42.497888)" stroke-width=".79701" stroke-linecap="butt" stroke-miterlimit="10" stroke-linejoin="miter" fill="none" stroke="#409f9f" d="M-25.32173-19.26527-24.892-14.75035"/>
<path transform="matrix(1.0001,0,0,-1.00003,53.79229,42.497888)" stroke-width=".79701" stroke-linecap="butt" stroke-miterlimit="10" stroke-linejoin="miter" fill="none" stroke="#409f9f" d="M-25.39491-16.01747-24.81882-11.51917"/>
<path transform="matrix(1.0001,0,0,-1.00003,53.79229,42.497888)" stroke-width=".79701" stroke-linecap="butt" stroke-miterlimit="10" stroke-linejoin="miter" fill="none" stroke="#409f9f" d="M-25.51689-12.75914-24.69684-8.29854"/>
<path transform="matrix(1.0001,0,0,-1.00003,53.79229,42.497888)" stroke-width=".79701" stroke-linecap="butt" stroke-miterlimit="10" stroke-linejoin="miter" fill="none" stroke="#409f9f" d="M-25.74718-9.46478-24.46655-5.11389"/>
<path transform="matrix(1.0001,0,0,-1.00003,53.79229,42.497888)" stroke-width=".79701" stroke-linecap="butt" stroke-miterlimit="10" stroke-linejoin="miter" fill="none" stroke="#409f9f" d="M-26.26448-5.99884-23.94925-2.10088"/>
<path transform="matrix(1.0001,0,0,-1.00003,53.79229,42.497888)" stroke-width=".79701" stroke-linecap="butt" stroke-miterlimit="10" stroke-linejoin="miter" fill="none" stroke="#409f9f" d="M-27.28041-1.45378-22.93332-.16695"/>
<path transform="matrix(1.0001,0,0,-1.00003,53.79229,42.497888)" stroke-width=".79701" stroke-linecap="butt" stroke-miterlimit="10" stroke-linejoin="miter" fill="none" stroke="#409f9f" d="M-26.9074 3.80676-23.30634 1.05138"/>
<path transform="matrix(1.0001,0,0,-1.00003,53.79229,42.497888)" stroke-width=".79701" stroke-linecap="butt" stroke-miterlimit="10" stroke-linejoin="miter" fill="none" stroke="#409f9f" d="M-26.36432 7.55525-23.84941 3.78188"/>
<path transform="matrix(1.0001,0,0,-1.00003,53.79229,42.497888)" stroke-width=".79701" stroke-linecap="butt" stroke-miterlimit="10" stroke-linejoin="miter" fill="none" stroke="#409f9f" d="M-26.15895 10.91637-24.05478 6.89973"/>
<path transform="matrix(1.0001,0,0,-1.00003,53.79229,42.497888)" stroke-width=".79701" stroke-linecap="butt" stroke-miterlimit="10" stroke-linejoin="miter" fill="none" stroke="#409f9f" d="M-26.12503 14.17368-24.0887 10.12141"/>
<path transform="matrix(1.0001,0,0,-1.00003,53.79229,42.497888)" stroke-width=".79701" stroke-linecap="butt" stroke-miterlimit="10" stroke-linejoin="miter" fill="none" stroke="#409f9f" d="M-26.23387 17.35434-23.97987 13.41971"/>
<path transform="matrix(1.0001,0,0,-1.00003,53.79229,42.497888)" stroke-width=".79701" stroke-linecap="butt" stroke-miterlimit="10" stroke-linejoin="miter" fill="none" stroke="#409f9f" d="M-26.57745 20.35266-23.63628 16.90038"/>
<path transform="matrix(1.0001,0,0,-1.00003,53.79229,42.497888)" stroke-width=".79701" stroke-linecap="butt" stroke-miterlimit="10" stroke-linejoin="miter" fill="none" stroke="#409f9f" d="M-27.29234 22.46895-22.92139 21.26306"/>
<path transform="matrix(1.0001,0,0,-1.00003,53.79229,42.497888)" stroke-width=".79701" stroke-linecap="butt" stroke-miterlimit="10" stroke-linejoin="miter" fill="none" stroke="#409f9f" d="M-26.75204 23.54474-23.46169 26.66623"/>
<path transform="matrix(1.0001,0,0,-1.00003,53.79229,42.497888)" stroke-width=".79701" stroke-linecap="butt" stroke-miterlimit="10" stroke-linejoin="miter" fill="none" stroke="#409f9f" d="M-25.94925 26.23978-24.26448 30.45018"/>
<path transform="matrix(1.0001,0,0,-1.00003,53.79229,42.497888)" stroke-width=".79701" stroke-linecap="butt" stroke-miterlimit="10" stroke-linejoin="miter" fill="none" stroke="#409f9f" d="M-18.03271-19.26527-17.60298-14.75035"/>
<path transform="matrix(1.0001,0,0,-1.00003,53.79229,42.497888)" stroke-width=".79701" stroke-linecap="butt" stroke-miterlimit="10" stroke-linejoin="miter" fill="none" stroke="#409f9f" d="M-18.1059-16.01747-17.5298-11.51917"/>
<path transform="matrix(1.0001,0,0,-1.00003,53.79229,42.497888)" stroke-width=".79701" stroke-linecap="butt" stroke-miterlimit="10" stroke-linejoin="miter" fill="none" stroke="#409f9f" d="M-18.22787-12.75914-17.40782-8.29854"/>
<path transform="matrix(1.0001,0,0,-1.00003,53.79229,42.497888)" stroke-width=".79701" stroke-linecap="butt" stroke-miterlimit="10" stroke-linejoin="miter" fill="none" stroke="#409f9f" d="M-18.45816-9.46478-17.17755-5.11389"/>
<path transform="matrix(1.0001,0,0,-1.00003,53.79229,42.497888)" stroke-width=".79701" stroke-linecap="butt" stroke-miterlimit="10" stroke-linejoin="miter" fill="none" stroke="#409f9f" d="M-18.97546-5.99884-16.66023-2.10088"/>
<path transform="matrix(1.0001,0,0,-1.00003,53.79229,42.497888)" stroke-width=".79701" stroke-linecap="butt" stroke-miterlimit="10" stroke-linejoin="miter" fill="none" stroke="#409f9f" d="M-19.9914-1.45378-15.6443-.16695"/>
<path transform="matrix(1.0001,0,0,-1.00003,53.79229,42.497888)" stroke-width=".79701" stroke-linecap="butt" stroke-miterlimit="10" stroke-linejoin="miter" fill="none" stroke="#409f9f" d="M-19.61838 3.80676-16.01733 1.05138"/>
<path transform="matrix(1.0001,0,0,-1.00003,53.79229,42.497888)" stroke-width=".79701" stroke-linecap="butt" stroke-miterlimit="10" stroke-linejoin="miter" fill="none" stroke="#409f9f" d="M-19.0753 7.55525-16.56041 3.78188"/>
<path transform="matrix(1.0001,0,0,-1.00003,53.79229,42.497888)" stroke-width=".79701" stroke-linecap="butt" stroke-miterlimit="10" stroke-linejoin="miter" fill="none" stroke="#409f9f" d="M-18.86993 10.91637-16.76576 6.89973"/>
<path transform="matrix(1.0001,0,0,-1.00003,53.79229,42.497888)" stroke-width=".79701" stroke-linecap="butt" stroke-miterlimit="10" stroke-linejoin="miter" fill="none" stroke="#409f9f" d="M-18.83601 14.17368-16.79968 10.12141"/>
<path transform="matrix(1.0001,0,0,-1.00003,53.79229,42.497888)" stroke-width=".79701" stroke-linecap="butt" stroke-miterlimit="10" stroke-linejoin="miter" fill="none" stroke="#409f9f" d="M-18.94485 17.35434-16.69086 13.41971"/>
<path transform="matrix(1.0001,0,0,-1.00003,53.79229,42.497888)" stroke-width=".79701" stroke-linecap="butt" stroke-miterlimit="10" stroke-linejoin="miter" fill="none" stroke="#409f9f" d="M-19.28845 20.35266-16.34726 16.90038"/>
<path transform="matrix(1.0001,0,0,-1.00003,53.79229,42.497888)" stroke-width=".79701" stroke-linecap="butt" stroke-miterlimit="10" stroke-linejoin="miter" fill="none" stroke="#409f9f" d="M-20.00333 22.46895-15.63237 21.26306"/>
<path transform="matrix(1.0001,0,0,-1.00003,53.79229,42.497888)" stroke-width=".79701" stroke-linecap="butt" stroke-miterlimit="10" stroke-linejoin="miter" fill="none" stroke="#409f9f" d="M-19.46303 23.54474-16.17268 26.66623"/>
<path transform="matrix(1.0001,0,0,-1.00003,53.79229,42.497888)" stroke-width=".79701" stroke-linecap="butt" stroke-miterlimit="10" stroke-linejoin="miter" fill="none" stroke="#409f9f" d="M-18.66023 26.23978-16.97546 30.45018"/>
<path transform="matrix(1.0001,0,0,-1.00003,53.79229,42.497888)" stroke-width=".79701" stroke-linecap="butt" stroke-miterlimit="10" stroke-linejoin="miter" fill="none" stroke="#409f9f" d="M-10.7437-19.26527-10.31396-14.75035"/>
<path transform="matrix(1.0001,0,0,-1.00003,53.79229,42.497888)" stroke-width=".79701" stroke-linecap="butt" stroke-miterlimit="10" stroke-linejoin="miter" fill="none" stroke="#409f9f" d="M-10.81688-16.01747-10.24078-11.51917"/>
<path transform="matrix(1.0001,0,0,-1.00003,53.79229,42.497888)" stroke-width=".79701" stroke-linecap="butt" stroke-miterlimit="10" stroke-linejoin="miter" fill="none" stroke="#409f9f" d="M-10.93886-12.75914-10.1188-8.29854"/>
<path transform="matrix(1.0001,0,0,-1.00003,53.79229,42.497888)" stroke-width=".79701" stroke-linecap="butt" stroke-miterlimit="10" stroke-linejoin="miter" fill="none" stroke="#409f9f" d="M-11.16914-9.46478-9.88853-5.11389"/>
<path transform="matrix(1.0001,0,0,-1.00003,53.79229,42.497888)" stroke-width=".79701" stroke-linecap="butt" stroke-miterlimit="10" stroke-linejoin="miter" fill="none" stroke="#409f9f" d="M-11.68645-5.99884-9.37122-2.10088"/>
<path transform="matrix(1.0001,0,0,-1.00003,53.79229,42.497888)" stroke-width=".79701" stroke-linecap="butt" stroke-miterlimit="10" stroke-linejoin="miter" fill="none" stroke="#409f9f" d="M-12.7024-1.45378-8.35529-.16695"/>
<path transform="matrix(1.0001,0,0,-1.00003,53.79229,42.497888)" stroke-width=".79701" stroke-linecap="butt" stroke-miterlimit="10" stroke-linejoin="miter" fill="none" stroke="#409f9f" d="M-12.32936 3.80676-8.72832 1.05138"/>
<path transform="matrix(1.0001,0,0,-1.00003,53.79229,42.497888)" stroke-width=".79701" stroke-linecap="butt" stroke-miterlimit="10" stroke-linejoin="miter" fill="none" stroke="#409f9f" d="M-11.78629 7.55525-9.2714 3.78188"/>
<path transform="matrix(1.0001,0,0,-1.00003,53.79229,42.497888)" stroke-width=".79701" stroke-linecap="butt" stroke-miterlimit="10" stroke-linejoin="miter" fill="none" stroke="#409f9f" d="M-11.58092 10.91637-9.47676 6.89973"/>
<path transform="matrix(1.0001,0,0,-1.00003,53.79229,42.497888)" stroke-width=".79701" stroke-linecap="butt" stroke-miterlimit="10" stroke-linejoin="miter" fill="none" stroke="#409f9f" d="M-11.547 14.17368-9.51067 10.12141"/>
<path transform="matrix(1.0001,0,0,-1.00003,53.79229,42.497888)" stroke-width=".79701" stroke-linecap="butt" stroke-miterlimit="10" stroke-linejoin="miter" fill="none" stroke="#409f9f" d="M-11.65584 17.35434-9.40184 13.41971"/>
<path transform="matrix(1.0001,0,0,-1.00003,53.79229,42.497888)" stroke-width=".79701" stroke-linecap="butt" stroke-miterlimit="10" stroke-linejoin="miter" fill="none" stroke="#409f9f" d="M-11.99944 20.35266-9.05824 16.90038"/>
<path transform="matrix(1.0001,0,0,-1.00003,53.79229,42.497888)" stroke-width=".79701" stroke-linecap="butt" stroke-miterlimit="10" stroke-linejoin="miter" fill="none" stroke="#409f9f" d="M-12.71432 22.46895-8.34335 21.26306"/>
<path transform="matrix(1.0001,0,0,-1.00003,53.79229,42.497888)" stroke-width=".79701" stroke-linecap="butt" stroke-miterlimit="10" stroke-linejoin="miter" fill="none" stroke="#409f9f" d="M-12.17401 23.54474-8.88367 26.66623"/>
<path transform="matrix(1.0001,0,0,-1.00003,53.79229,42.497888)" stroke-width=".79701" stroke-linecap="butt" stroke-miterlimit="10" stroke-linejoin="miter" fill="none" stroke="#409f9f" d="M-11.37123 26.23978-9.68645 30.45018"/>
<path transform="matrix(1.0001,0,0,-1.00003,53.79229,42.497888)" stroke-width=".79701" stroke-linecap="butt" stroke-miterlimit="10" stroke-linejoin="miter" fill="none" stroke="#409f9f" d="M-3.45468-19.26527-3.02496-14.75035"/>
<path transform="matrix(1.0001,0,0,-1.00003,53.79229,42.497888)" stroke-width=".79701" stroke-linecap="butt" stroke-miterlimit="10" stroke-linejoin="miter" fill="none" stroke="#409f9f" d="M-3.52786-16.01747-2.95178-11.51917"/>
<path transform="matrix(1.0001,0,0,-1.00003,53.79229,42.497888)" stroke-width=".79701" stroke-linecap="butt" stroke-miterlimit="10" stroke-linejoin="miter" fill="none" stroke="#409f9f" d="M-3.64986-12.75914-2.82979-8.29854"/>
<path transform="matrix(1.0001,0,0,-1.00003,53.79229,42.497888)" stroke-width=".79701" stroke-linecap="butt" stroke-miterlimit="10" stroke-linejoin="miter" fill="none" stroke="#409f9f" d="M-3.88013-9.46478-2.59952-5.11389"/>
<path transform="matrix(1.0001,0,0,-1.00003,53.79229,42.497888)" stroke-width=".79701" stroke-linecap="butt" stroke-miterlimit="10" stroke-linejoin="miter" fill="none" stroke="#409f9f" d="M-4.39745-5.99884-2.08221-2.10088"/>
<path transform="matrix(1.0001,0,0,-1.00003,53.79229,42.497888)" stroke-width=".79701" stroke-linecap="butt" stroke-miterlimit="10" stroke-linejoin="miter" fill="none" stroke="#409f9f" d="M-5.41338-1.45378-1.06627-.16695"/>
<path transform="matrix(1.0001,0,0,-1.00003,53.79229,42.497888)" stroke-width=".79701" stroke-linecap="butt" stroke-miterlimit="10" stroke-linejoin="miter" fill="none" stroke="#409f9f" d="M-5.04034 3.80676-1.4393 1.05138"/>
<path transform="matrix(1.0001,0,0,-1.00003,53.79229,42.497888)" stroke-width=".79701" stroke-linecap="butt" stroke-miterlimit="10" stroke-linejoin="miter" fill="none" stroke="#409f9f" d="M-4.49727 7.55525-1.98238 3.78188"/>
<path transform="matrix(1.0001,0,0,-1.00003,53.79229,42.497888)" stroke-width=".79701" stroke-linecap="butt" stroke-miterlimit="10" stroke-linejoin="miter" fill="none" stroke="#409f9f" d="M-4.2919 10.91637-2.18774 6.89973"/>
<path transform="matrix(1.0001,0,0,-1.00003,53.79229,42.497888)" stroke-width=".79701" stroke-linecap="butt" stroke-miterlimit="10" stroke-linejoin="miter" fill="none" stroke="#409f9f" d="M-4.258 14.17368-2.22165 10.12141"/>
<path transform="matrix(1.0001,0,0,-1.00003,53.79229,42.497888)" stroke-width=".79701" stroke-linecap="butt" stroke-miterlimit="10" stroke-linejoin="miter" fill="none" stroke="#409f9f" d="M-4.36682 17.35434-2.11282 13.41971"/>
<path transform="matrix(1.0001,0,0,-1.00003,53.79229,42.497888)" stroke-width=".79701" stroke-linecap="butt" stroke-miterlimit="10" stroke-linejoin="miter" fill="none" stroke="#409f9f" d="M-4.71042 20.35266-1.76923 16.90038"/>
<path transform="matrix(1.0001,0,0,-1.00003,53.79229,42.497888)" stroke-width=".79701" stroke-linecap="butt" stroke-miterlimit="10" stroke-linejoin="miter" fill="none" stroke="#409f9f" d="M-5.42531 22.46895-1.05434 21.26306"/>
<path transform="matrix(1.0001,0,0,-1.00003,53.79229,42.497888)" stroke-width=".79701" stroke-linecap="butt" stroke-miterlimit="10" stroke-linejoin="miter" fill="none" stroke="#409f9f" d="M-4.885 23.54474-1.59465 26.66623"/>
<path transform="matrix(1.0001,0,0,-1.00003,53.79229,42.497888)" stroke-width=".79701" stroke-linecap="butt" stroke-miterlimit="10" stroke-linejoin="miter" fill="none" stroke="#409f9f" d="M-4.08221 26.23978-2.39743 30.45018"/>
<path transform="matrix(1.0001,0,0,-1.00003,53.79229,42.497888)" stroke-width=".79701" stroke-linecap="butt" stroke-miterlimit="10" stroke-linejoin="miter" fill="none" stroke="#409f9f" d="M3.8343-19.26527 4.26404-14.75035"/>
<path transform="matrix(1.0001,0,0,-1.00003,53.79229,42.497888)" stroke-width=".79701" stroke-linecap="butt" stroke-miterlimit="10" stroke-linejoin="miter" fill="none" stroke="#409f9f" d="M3.76112-16.01747 4.33722-11.51917"/>
<path transform="matrix(1.0001,0,0,-1.00003,53.79229,42.497888)" stroke-width=".79701" stroke-linecap="butt" stroke-miterlimit="10" stroke-linejoin="miter" fill="none" stroke="#409f9f" d="M3.63914-12.75914 4.4592-8.29854"/>
<path transform="matrix(1.0001,0,0,-1.00003,53.79229,42.497888)" stroke-width=".79701" stroke-linecap="butt" stroke-miterlimit="10" stroke-linejoin="miter" fill="none" stroke="#409f9f" d="M3.40887-9.46478 4.68948-5.11389"/>
<path transform="matrix(1.0001,0,0,-1.00003,53.79229,42.497888)" stroke-width=".79701" stroke-linecap="butt" stroke-miterlimit="10" stroke-linejoin="miter" fill="none" stroke="#409f9f" d="M2.89156-5.99884 5.20679-2.10088"/>
<path transform="matrix(1.0001,0,0,-1.00003,53.79229,42.497888)" stroke-width=".79701" stroke-linecap="butt" stroke-miterlimit="10" stroke-linejoin="miter" fill="none" stroke="#409f9f" d="M1.87563-1.45378 6.22272-.16695"/>
<path transform="matrix(1.0001,0,0,-1.00003,53.79229,42.497888)" stroke-width=".79701" stroke-linecap="butt" stroke-miterlimit="10" stroke-linejoin="miter" fill="none" stroke="#409f9f" d="M2.24866 3.80676 5.8497 1.05138"/>
<path transform="matrix(1.0001,0,0,-1.00003,53.79229,42.497888)" stroke-width=".79701" stroke-linecap="butt" stroke-miterlimit="10" stroke-linejoin="miter" fill="none" stroke="#409f9f" d="M2.79173 7.55525 5.30663 3.78188"/>
<path transform="matrix(1.0001,0,0,-1.00003,53.79229,42.497888)" stroke-width=".79701" stroke-linecap="butt" stroke-miterlimit="10" stroke-linejoin="miter" fill="none" stroke="#409f9f" d="M2.99709 10.91637 5.10126 6.89973"/>
<path transform="matrix(1.0001,0,0,-1.00003,53.79229,42.497888)" stroke-width=".79701" stroke-linecap="butt" stroke-miterlimit="10" stroke-linejoin="miter" fill="none" stroke="#409f9f" d="M3.031 14.17368 5.06734 10.12141"/>
<path transform="matrix(1.0001,0,0,-1.00003,53.79229,42.497888)" stroke-width=".79701" stroke-linecap="butt" stroke-miterlimit="10" stroke-linejoin="miter" fill="none" stroke="#409f9f" d="M2.92218 17.35434 5.17618 13.41971"/>
<path transform="matrix(1.0001,0,0,-1.00003,53.79229,42.497888)" stroke-width=".79701" stroke-linecap="butt" stroke-miterlimit="10" stroke-linejoin="miter" fill="none" stroke="#409f9f" d="M2.57858 20.35266 5.51978 16.90038"/>
<path transform="matrix(1.0001,0,0,-1.00003,53.79229,42.497888)" stroke-width=".79701" stroke-linecap="butt" stroke-miterlimit="10" stroke-linejoin="miter" fill="none" stroke="#409f9f" d="M1.8637 22.46895 6.23466 21.26306"/>
<path transform="matrix(1.0001,0,0,-1.00003,53.79229,42.497888)" stroke-width=".79701" stroke-linecap="butt" stroke-miterlimit="10" stroke-linejoin="miter" fill="none" stroke="#409f9f" d="M2.404 23.54474 5.69435 26.66623"/>
<path transform="matrix(1.0001,0,0,-1.00003,53.79229,42.497888)" stroke-width=".79701" stroke-linecap="butt" stroke-miterlimit="10" stroke-linejoin="miter" fill="none" stroke="#409f9f" d="M3.20679 26.23978 4.89156 30.45018"/>
<path transform="matrix(1.0001,0,0,-1.00003,53.79229,42.497888)" stroke-width=".79701" stroke-linecap="butt" stroke-miterlimit="10" stroke-linejoin="miter" fill="none" stroke="#409f9f" d="M11.12332-19.26527 11.55305-14.75035"/>
<path transform="matrix(1.0001,0,0,-1.00003,53.79229,42.497888)" stroke-width=".79701" stroke-linecap="butt" stroke-miterlimit="10" stroke-linejoin="miter" fill="none" stroke="#409f9f" d="M11.05014-16.01747 11.62624-11.51917"/>
<path transform="matrix(1.0001,0,0,-1.00003,53.79229,42.497888)" stroke-width=".79701" stroke-linecap="butt" stroke-miterlimit="10" stroke-linejoin="miter" fill="none" stroke="#409f9f" d="M10.92816-12.75914 11.74821-8.29854"/>
<path transform="matrix(1.0001,0,0,-1.00003,53.79229,42.497888)" stroke-width=".79701" stroke-linecap="butt" stroke-miterlimit="10" stroke-linejoin="miter" fill="none" stroke="#409f9f" d="M10.69788-9.46478 11.9785-5.11389"/>
<path transform="matrix(1.0001,0,0,-1.00003,53.79229,42.497888)" stroke-width=".79701" stroke-linecap="butt" stroke-miterlimit="10" stroke-linejoin="miter" fill="none" stroke="#409f9f" d="M10.18057-5.99884 12.4958-2.10088"/>
<path transform="matrix(1.0001,0,0,-1.00003,53.79229,42.497888)" stroke-width=".79701" stroke-linecap="butt" stroke-miterlimit="10" stroke-linejoin="miter" fill="none" stroke="#409f9f" d="M9.16464-1.45378 13.51173-.16695"/>
<path transform="matrix(1.0001,0,0,-1.00003,53.79229,42.497888)" stroke-width=".79701" stroke-linecap="butt" stroke-miterlimit="10" stroke-linejoin="miter" fill="none" stroke="#409f9f" d="M9.53767 3.80676 13.13872 1.05138"/>
<path transform="matrix(1.0001,0,0,-1.00003,53.79229,42.497888)" stroke-width=".79701" stroke-linecap="butt" stroke-miterlimit="10" stroke-linejoin="miter" fill="none" stroke="#409f9f" d="M10.08075 7.55525 12.59564 3.78188"/>
<path transform="matrix(1.0001,0,0,-1.00003,53.79229,42.497888)" stroke-width=".79701" stroke-linecap="butt" stroke-miterlimit="10" stroke-linejoin="miter" fill="none" stroke="#409f9f" d="M10.2861 10.91637 12.39027 6.89973"/>
<path transform="matrix(1.0001,0,0,-1.00003,53.79229,42.497888)" stroke-width=".79701" stroke-linecap="butt" stroke-miterlimit="10" stroke-linejoin="miter" fill="none" stroke="#409f9f" d="M10.32002 14.17368 12.35635 10.12141"/>
<path transform="matrix(1.0001,0,0,-1.00003,53.79229,42.497888)" stroke-width=".79701" stroke-linecap="butt" stroke-miterlimit="10" stroke-linejoin="miter" fill="none" stroke="#409f9f" d="M10.2112 17.35434 12.4652 13.41971"/>
<path transform="matrix(1.0001,0,0,-1.00003,53.79229,42.497888)" stroke-width=".79701" stroke-linecap="butt" stroke-miterlimit="10" stroke-linejoin="miter" fill="none" stroke="#409f9f" d="M9.8676 20.35266 12.80878 16.90038"/>
<path transform="matrix(1.0001,0,0,-1.00003,53.79229,42.497888)" stroke-width=".79701" stroke-linecap="butt" stroke-miterlimit="10" stroke-linejoin="miter" fill="none" stroke="#409f9f" d="M9.15271 22.46895 13.52367 21.26306"/>
<path transform="matrix(1.0001,0,0,-1.00003,53.79229,42.497888)" stroke-width=".79701" stroke-linecap="butt" stroke-miterlimit="10" stroke-linejoin="miter" fill="none" stroke="#409f9f" d="M9.69302 23.54474 12.98337 26.66623"/>
<path transform="matrix(1.0001,0,0,-1.00003,53.79229,42.497888)" stroke-width=".79701" stroke-linecap="butt" stroke-miterlimit="10" stroke-linejoin="miter" fill="none" stroke="#409f9f" d="M10.4958 26.23978 12.18057 30.45018"/>
<path transform="matrix(1.0001,0,0,-1.00003,53.79229,42.497888)" stroke-width=".79701" stroke-linecap="butt" stroke-miterlimit="10" stroke-linejoin="miter" fill="none" stroke="#409f9f" d="M18.41234-19.26527 18.84207-14.75035"/>
<path transform="matrix(1.0001,0,0,-1.00003,53.79229,42.497888)" stroke-width=".79701" stroke-linecap="butt" stroke-miterlimit="10" stroke-linejoin="miter" fill="none" stroke="#409f9f" d="M18.33916-16.01747 18.91525-11.51917"/>
<path transform="matrix(1.0001,0,0,-1.00003,53.79229,42.497888)" stroke-width=".79701" stroke-linecap="butt" stroke-miterlimit="10" stroke-linejoin="miter" fill="none" stroke="#409f9f" d="M18.21718-12.75914 19.03723-8.29854"/>
<path transform="matrix(1.0001,0,0,-1.00003,53.79229,42.497888)" stroke-width=".79701" stroke-linecap="butt" stroke-miterlimit="10" stroke-linejoin="miter" fill="none" stroke="#409f9f" d="M17.9869-9.46478 19.26752-5.11389"/>
<path transform="matrix(1.0001,0,0,-1.00003,53.79229,42.497888)" stroke-width=".79701" stroke-linecap="butt" stroke-miterlimit="10" stroke-linejoin="miter" fill="none" stroke="#409f9f" d="M17.46959-5.99884 19.78482-2.10088"/>
<path transform="matrix(1.0001,0,0,-1.00003,53.79229,42.497888)" stroke-width=".79701" stroke-linecap="butt" stroke-miterlimit="10" stroke-linejoin="miter" fill="none" stroke="#409f9f" d="M16.45366-1.45378 20.80075-.16695"/>
<path transform="matrix(1.0001,0,0,-1.00003,53.79229,42.497888)" stroke-width=".79701" stroke-linecap="butt" stroke-miterlimit="10" stroke-linejoin="miter" fill="none" stroke="#409f9f" d="M16.82668 3.80676 20.42773 1.05138"/>
<path transform="matrix(1.0001,0,0,-1.00003,53.79229,42.497888)" stroke-width=".79701" stroke-linecap="butt" stroke-miterlimit="10" stroke-linejoin="miter" fill="none" stroke="#409f9f" d="M17.36975 7.55525 19.88466 3.78188"/>
<path transform="matrix(1.0001,0,0,-1.00003,53.79229,42.497888)" stroke-width=".79701" stroke-linecap="butt" stroke-miterlimit="10" stroke-linejoin="miter" fill="none" stroke="#409f9f" d="M17.57512 10.91637 19.67929 6.89973"/>
<path transform="matrix(1.0001,0,0,-1.00003,53.79229,42.497888)" stroke-width=".79701" stroke-linecap="butt" stroke-miterlimit="10" stroke-linejoin="miter" fill="none" stroke="#409f9f" d="M17.60904 14.17368 19.64537 10.12141"/>
<path transform="matrix(1.0001,0,0,-1.00003,53.79229,42.497888)" stroke-width=".79701" stroke-linecap="butt" stroke-miterlimit="10" stroke-linejoin="miter" fill="none" stroke="#409f9f" d="M17.5002 17.35434 19.7542 13.41971"/>
<path transform="matrix(1.0001,0,0,-1.00003,53.79229,42.497888)" stroke-width=".79701" stroke-linecap="butt" stroke-miterlimit="10" stroke-linejoin="miter" fill="none" stroke="#409f9f" d="M17.15662 20.35266 20.0978 16.90038"/>
<path transform="matrix(1.0001,0,0,-1.00003,53.79229,42.497888)" stroke-width=".79701" stroke-linecap="butt" stroke-miterlimit="10" stroke-linejoin="miter" fill="none" stroke="#409f9f" d="M16.44173 22.46895 20.81268 21.26306"/>
<path transform="matrix(1.0001,0,0,-1.00003,53.79229,42.497888)" stroke-width=".79701" stroke-linecap="butt" stroke-miterlimit="10" stroke-linejoin="miter" fill="none" stroke="#409f9f" d="M16.98203 23.54474 20.27238 26.66623"/>
<path transform="matrix(1.0001,0,0,-1.00003,53.79229,42.497888)" stroke-width=".79701" stroke-linecap="butt" stroke-miterlimit="10" stroke-linejoin="miter" fill="none" stroke="#409f9f" d="M17.78482 26.23978 19.46959 30.45018"/>
<path transform="matrix(1.0001,0,0,-1.00003,53.79229,42.497888)" stroke-width=".79701" stroke-linecap="butt" stroke-miterlimit="10" stroke-linejoin="miter" fill="none" stroke="#409f9f" d="M25.70135-19.26527 26.13109-14.75035"/>
<path transform="matrix(1.0001,0,0,-1.00003,53.79229,42.497888)" stroke-width=".79701" stroke-linecap="butt" stroke-miterlimit="10" stroke-linejoin="miter" fill="none" stroke="#409f9f" d="M25.62817-16.01747 26.20427-11.51917"/>
<path transform="matrix(1.0001,0,0,-1.00003,53.79229,42.497888)" stroke-width=".79701" stroke-linecap="butt" stroke-miterlimit="10" stroke-linejoin="miter" fill="none" stroke="#409f9f" d="M25.5062-12.75914 26.32625-8.29854"/>
<path transform="matrix(1.0001,0,0,-1.00003,53.79229,42.497888)" stroke-width=".79701" stroke-linecap="butt" stroke-miterlimit="10" stroke-linejoin="miter" fill="none" stroke="#409f9f" d="M25.27591-9.46478 26.55652-5.11389"/>
<path transform="matrix(1.0001,0,0,-1.00003,53.79229,42.497888)" stroke-width=".79701" stroke-linecap="butt" stroke-miterlimit="10" stroke-linejoin="miter" fill="none" stroke="#409f9f" d="M24.7586-5.99884 27.07384-2.10088"/>
<path transform="matrix(1.0001,0,0,-1.00003,53.79229,42.497888)" stroke-width=".79701" stroke-linecap="butt" stroke-miterlimit="10" stroke-linejoin="miter" fill="none" stroke="#409f9f" d="M23.74268-1.45378 28.08977-.16695"/>
<path transform="matrix(1.0001,0,0,-1.00003,53.79229,42.497888)" stroke-width=".79701" stroke-linecap="butt" stroke-miterlimit="10" stroke-linejoin="miter" fill="none" stroke="#409f9f" d="M24.11569 3.80676 27.71674 1.05138"/>
<path transform="matrix(1.0001,0,0,-1.00003,53.79229,42.497888)" stroke-width=".79701" stroke-linecap="butt" stroke-miterlimit="10" stroke-linejoin="miter" fill="none" stroke="#409f9f" d="M24.65877 7.55525 27.17366 3.78188"/>
<path transform="matrix(1.0001,0,0,-1.00003,53.79229,42.497888)" stroke-width=".79701" stroke-linecap="butt" stroke-miterlimit="10" stroke-linejoin="miter" fill="none" stroke="#409f9f" d="M24.86414 10.91637 26.9683 6.89973"/>
<path transform="matrix(1.0001,0,0,-1.00003,53.79229,42.497888)" stroke-width=".79701" stroke-linecap="butt" stroke-miterlimit="10" stroke-linejoin="miter" fill="none" stroke="#409f9f" d="M24.89806 14.17368 26.93439 10.12141"/>
<path transform="matrix(1.0001,0,0,-1.00003,53.79229,42.497888)" stroke-width=".79701" stroke-linecap="butt" stroke-miterlimit="10" stroke-linejoin="miter" fill="none" stroke="#409f9f" d="M24.78922 17.35434 27.04321 13.41971"/>
<path transform="matrix(1.0001,0,0,-1.00003,53.79229,42.497888)" stroke-width=".79701" stroke-linecap="butt" stroke-miterlimit="10" stroke-linejoin="miter" fill="none" stroke="#409f9f" d="M24.44562 20.35266 27.38681 16.90038"/>
<path transform="matrix(1.0001,0,0,-1.00003,53.79229,42.497888)" stroke-width=".79701" stroke-linecap="butt" stroke-miterlimit="10" stroke-linejoin="miter" fill="none" stroke="#409f9f" d="M23.73074 22.46895 28.1017 21.26306"/>
<path transform="matrix(1.0001,0,0,-1.00003,53.79229,42.497888)" stroke-width=".79701" stroke-linecap="butt" stroke-miterlimit="10" stroke-linejoin="miter" fill="none" stroke="#409f9f" d="M24.27104 23.54474 27.56139 26.66623"/>
<path transform="matrix(1.0001,0,0,-1.00003,53.79229,42.497888)" stroke-width=".79701" stroke-linecap="butt" stroke-miterlimit="10" stroke-linejoin="miter" fill="none" stroke="#409f9f" d="M25.07384 26.23978 26.7586 30.45018"/>
<path transform="matrix(1.0001,0,0,-1.00003,53.79229,42.497888)" stroke-width=".79701" stroke-linecap="butt" stroke-miterlimit="10" stroke-linejoin="miter" fill="none" stroke="#409f9f" d="M32.99039-19.26527 33.42012-14.75035"/>
<path transform="matrix(1.0001,0,0,-1.00003,53.79229,42.497888)" stroke-width=".79701" stroke-linecap="butt" stroke-miterlimit="10" stroke-linejoin="miter" fill="none" stroke="#409f9f" d="M32.9172-16.01747 33.4933-11.51917"/>
<path transform="matrix(1.0001,0,0,-1.00003,53.79229,42.497888)" stroke-width=".79701" stroke-linecap="butt" stroke-miterlimit="10" stroke-linejoin="miter" fill="none" stroke="#409f9f" d="M32.79523-12.75914 33.61528-8.29854"/>
<path transform="matrix(1.0001,0,0,-1.00003,53.79229,42.497888)" stroke-width=".79701" stroke-linecap="butt" stroke-miterlimit="10" stroke-linejoin="miter" fill="none" stroke="#409f9f" d="M32.56494-9.46478 33.84555-5.11389"/>
<path transform="matrix(1.0001,0,0,-1.00003,53.79229,42.497888)" stroke-width=".79701" stroke-linecap="butt" stroke-miterlimit="10" stroke-linejoin="miter" fill="none" stroke="#409f9f" d="M32.04764-5.99884 34.36287-2.10088"/>
<path transform="matrix(1.0001,0,0,-1.00003,53.79229,42.497888)" stroke-width=".79701" stroke-linecap="butt" stroke-miterlimit="10" stroke-linejoin="miter" fill="none" stroke="#409f9f" d="M31.0317-1.45378 35.3788-.16695"/>
<path transform="matrix(1.0001,0,0,-1.00003,53.79229,42.497888)" stroke-width=".79701" stroke-linecap="butt" stroke-miterlimit="10" stroke-linejoin="miter" fill="none" stroke="#409f9f" d="M31.40472 3.80676 35.00577 1.05138"/>
<path transform="matrix(1.0001,0,0,-1.00003,53.79229,42.497888)" stroke-width=".79701" stroke-linecap="butt" stroke-miterlimit="10" stroke-linejoin="miter" fill="none" stroke="#409f9f" d="M31.9478 7.55525 34.46269 3.78188"/>
<path transform="matrix(1.0001,0,0,-1.00003,53.79229,42.497888)" stroke-width=".79701" stroke-linecap="butt" stroke-miterlimit="10" stroke-linejoin="miter" fill="none" stroke="#409f9f" d="M32.15317 10.91637 34.25732 6.89973"/>
<path transform="matrix(1.0001,0,0,-1.00003,53.79229,42.497888)" stroke-width=".79701" stroke-linecap="butt" stroke-miterlimit="10" stroke-linejoin="miter" fill="none" stroke="#409f9f" d="M32.18709 14.17368 34.22342 10.12141"/>
<path transform="matrix(1.0001,0,0,-1.00003,53.79229,42.497888)" stroke-width=".79701" stroke-linecap="butt" stroke-miterlimit="10" stroke-linejoin="miter" fill="none" stroke="#409f9f" d="M32.07825 17.35434 34.33224 13.41971"/>
<path transform="matrix(1.0001,0,0,-1.00003,53.79229,42.497888)" stroke-width=".79701" stroke-linecap="butt" stroke-miterlimit="10" stroke-linejoin="miter" fill="none" stroke="#409f9f" d="M31.73465 20.35266 34.67584 16.90038"/>
<path transform="matrix(1.0001,0,0,-1.00003,53.79229,42.497888)" stroke-width=".79701" stroke-linecap="butt" stroke-miterlimit="10" stroke-linejoin="miter" fill="none" stroke="#409f9f" d="M31.01976 22.46895 35.39073 21.26306"/>
<path transform="matrix(1.0001,0,0,-1.00003,53.79229,42.497888)" stroke-width=".79701" stroke-linecap="butt" stroke-miterlimit="10" stroke-linejoin="miter" fill="none" stroke="#409f9f" d="M31.56007 23.54474 34.85042 26.66623"/>
<path transform="matrix(1.0001,0,0,-1.00003,53.79229,42.497888)" stroke-width=".79701" stroke-linecap="butt" stroke-miterlimit="10" stroke-linejoin="miter" fill="none" stroke="#409f9f" d="M32.36285 26.23978 34.04764 30.45018"/>
<path transform="matrix(1.0001,0,0,-1.00003,53.79229,42.497888)" stroke-width=".79701" stroke-linecap="butt" stroke-miterlimit="10" stroke-linejoin="miter" fill="none" stroke="#409f9f" d="M40.2794-19.26527 40.70912-14.75035"/>
<path transform="matrix(1.0001,0,0,-1.00003,53.79229,42.497888)" stroke-width=".79701" stroke-linecap="butt" stroke-miterlimit="10" stroke-linejoin="miter" fill="none" stroke="#409f9f" d="M40.20622-16.01747 40.7823-11.51917"/>
<path transform="matrix(1.0001,0,0,-1.00003,53.79229,42.497888)" stroke-width=".79701" stroke-linecap="butt" stroke-miterlimit="10" stroke-linejoin="miter" fill="none" stroke="#409f9f" d="M40.08423-12.75914 40.9043-8.29854"/>
<path transform="matrix(1.0001,0,0,-1.00003,53.79229,42.497888)" stroke-width=".79701" stroke-linecap="butt" stroke-miterlimit="10" stroke-linejoin="miter" fill="none" stroke="#409f9f" d="M39.85396-9.46478 41.13457-5.11389"/>
<path transform="matrix(1.0001,0,0,-1.00003,53.79229,42.497888)" stroke-width=".79701" stroke-linecap="butt" stroke-miterlimit="10" stroke-linejoin="miter" fill="none" stroke="#409f9f" d="M39.33664-5.99884 41.65187-2.10088"/>
<path transform="matrix(1.0001,0,0,-1.00003,53.79229,42.497888)" stroke-width=".79701" stroke-linecap="butt" stroke-miterlimit="10" stroke-linejoin="miter" fill="none" stroke="#409f9f" d="M38.32071-1.45378 42.66782-.16695"/>
<path transform="matrix(1.0001,0,0,-1.00003,53.79229,42.497888)" stroke-width=".79701" stroke-linecap="butt" stroke-miterlimit="10" stroke-linejoin="miter" fill="none" stroke="#409f9f" d="M38.69374 3.80676 42.29478 1.05138"/>
<path transform="matrix(1.0001,0,0,-1.00003,53.79229,42.497888)" stroke-width=".79701" stroke-linecap="butt" stroke-miterlimit="10" stroke-linejoin="miter" fill="none" stroke="#409f9f" d="M39.23682 7.55525 41.75171 3.78188"/>
<path transform="matrix(1.0001,0,0,-1.00003,53.79229,42.497888)" stroke-width=".79701" stroke-linecap="butt" stroke-miterlimit="10" stroke-linejoin="miter" fill="none" stroke="#409f9f" d="M39.44218 10.91637 41.54634 6.89973"/>
<path transform="matrix(1.0001,0,0,-1.00003,53.79229,42.497888)" stroke-width=".79701" stroke-linecap="butt" stroke-miterlimit="10" stroke-linejoin="miter" fill="none" stroke="#409f9f" d="M39.47609 14.17368 41.51244 10.12141"/>
<path transform="matrix(1.0001,0,0,-1.00003,53.79229,42.497888)" stroke-width=".79701" stroke-linecap="butt" stroke-miterlimit="10" stroke-linejoin="miter" fill="none" stroke="#409f9f" d="M39.36726 17.35434 41.62126 13.41971"/>
<path transform="matrix(1.0001,0,0,-1.00003,53.79229,42.497888)" stroke-width=".79701" stroke-linecap="butt" stroke-miterlimit="10" stroke-linejoin="miter" fill="none" stroke="#409f9f" d="M39.02367 20.35266 41.96486 16.90038"/>
<path transform="matrix(1.0001,0,0,-1.00003,53.79229,42.497888)" stroke-width=".79701" stroke-linecap="butt" stroke-miterlimit="10" stroke-linejoin="miter" fill="none" stroke="#409f9f" d="M38.30878 22.46895 42.67975 21.26306"/>
<path transform="matrix(1.0001,0,0,-1.00003,53.79229,42.497888)" stroke-width=".79701" stroke-linecap="butt" stroke-miterlimit="10" stroke-linejoin="miter" fill="none" stroke="#409f9f" d="M38.84909 23.54474 42.13943 26.66623"/>
<path transform="matrix(1.0001,0,0,-1.00003,53.79229,42.497888)" stroke-width=".79701" stroke-linecap="butt" stroke-miterlimit="10" stroke-linejoin="miter" fill="none" stroke="#409f9f" d="M39.65187 26.23978 41.33665 30.45018"/>
<path transform="matrix(1.0001,0,0,-1.00003,53.79229,42.497888)" stroke-width=".79701" stroke-linecap="butt" stroke-miterlimit="10" stroke-linejoin="miter" fill="none" stroke="#409f9f" d="M47.5684-19.26527 47.99814-14.75035"/>
<path transform="matrix(1.0001,0,0,-1.00003,53.79229,42.497888)" stroke-width=".79701" stroke-linecap="butt" stroke-miterlimit="10" stroke-linejoin="miter" fill="none" stroke="#409f9f" d="M47.49522-16.01747 48.07132-11.51917"/>
<path transform="matrix(1.0001,0,0,-1.00003,53.79229,42.497888)" stroke-width=".79701" stroke-linecap="butt" stroke-miterlimit="10" stroke-linejoin="miter" fill="none" stroke="#409f9f" d="M47.37325-12.75914 48.1933-8.29854"/>
<path transform="matrix(1.0001,0,0,-1.00003,53.79229,42.497888)" stroke-width=".79701" stroke-linecap="butt" stroke-miterlimit="10" stroke-linejoin="miter" fill="none" stroke="#409f9f" d="M47.14297-9.46478 48.42358-5.11389"/>
<path transform="matrix(1.0001,0,0,-1.00003,53.79229,42.497888)" stroke-width=".79701" stroke-linecap="butt" stroke-miterlimit="10" stroke-linejoin="miter" fill="none" stroke="#409f9f" d="M46.62566-5.99884 48.94089-2.10088"/>
<path transform="matrix(1.0001,0,0,-1.00003,53.79229,42.497888)" stroke-width=".79701" stroke-linecap="butt" stroke-miterlimit="10" stroke-linejoin="miter" fill="none" stroke="#409f9f" d="M45.60973-1.45378 49.95682-.16695"/>
<path transform="matrix(1.0001,0,0,-1.00003,53.79229,42.497888)" stroke-width=".79701" stroke-linecap="butt" stroke-miterlimit="10" stroke-linejoin="miter" fill="none" stroke="#409f9f" d="M45.98276 3.80676 49.5838 1.05138"/>
<path transform="matrix(1.0001,0,0,-1.00003,53.79229,42.497888)" stroke-width=".79701" stroke-linecap="butt" stroke-miterlimit="10" stroke-linejoin="miter" fill="none" stroke="#409f9f" d="M46.52583 7.55525 49.04073 3.78188"/>
<path transform="matrix(1.0001,0,0,-1.00003,53.79229,42.497888)" stroke-width=".79701" stroke-linecap="butt" stroke-miterlimit="10" stroke-linejoin="miter" fill="none" stroke="#409f9f" d="M46.73119 10.91637 48.83536 6.89973"/>
<path transform="matrix(1.0001,0,0,-1.00003,53.79229,42.497888)" stroke-width=".79701" stroke-linecap="butt" stroke-miterlimit="10" stroke-linejoin="miter" fill="none" stroke="#409f9f" d="M46.7651 14.17368 48.80144 10.12141"/>
<path transform="matrix(1.0001,0,0,-1.00003,53.79229,42.497888)" stroke-width=".79701" stroke-linecap="butt" stroke-miterlimit="10" stroke-linejoin="miter" fill="none" stroke="#409f9f" d="M46.65628 17.35434 48.91028 13.41971"/>
<path transform="matrix(1.0001,0,0,-1.00003,53.79229,42.497888)" stroke-width=".79701" stroke-linecap="butt" stroke-miterlimit="10" stroke-linejoin="miter" fill="none" stroke="#409f9f" d="M46.31268 20.35266 49.25388 16.90038"/>
<path transform="matrix(1.0001,0,0,-1.00003,53.79229,42.497888)" stroke-width=".79701" stroke-linecap="butt" stroke-miterlimit="10" stroke-linejoin="miter" fill="none" stroke="#409f9f" d="M45.5978 22.46895 49.96877 21.26306"/>
<path transform="matrix(1.0001,0,0,-1.00003,53.79229,42.497888)" stroke-width=".79701" stroke-linecap="butt" stroke-miterlimit="10" stroke-linejoin="miter" fill="none" stroke="#409f9f" d="M46.1381 23.54474 49.42845 26.66623"/>
<path transform="matrix(1.0001,0,0,-1.00003,53.79229,42.497888)" stroke-width=".79701" stroke-linecap="butt" stroke-miterlimit="10" stroke-linejoin="miter" fill="none" stroke="#409f9f" d="M46.94089 26.23978 48.62566 30.45018"/>
<path transform="matrix(1.0001,0,0,-1.00003,53.79229,42.497888)" stroke-width=".79701" stroke-linecap="butt" stroke-miterlimit="10" stroke-linejoin="miter" fill="none" stroke="#409f9f" d="M54.85744-19.26527 55.28717-14.75035"/>
<path transform="matrix(1.0001,0,0,-1.00003,53.79229,42.497888)" stroke-width=".79701" stroke-linecap="butt" stroke-miterlimit="10" stroke-linejoin="miter" fill="none" stroke="#409f9f" d="M54.78426-16.01747 55.36035-11.51917"/>
<path transform="matrix(1.0001,0,0,-1.00003,53.79229,42.497888)" stroke-width=".79701" stroke-linecap="butt" stroke-miterlimit="10" stroke-linejoin="miter" fill="none" stroke="#409f9f" d="M54.66228-12.75914 55.48233-8.29854"/>
<path transform="matrix(1.0001,0,0,-1.00003,53.79229,42.497888)" stroke-width=".79701" stroke-linecap="butt" stroke-miterlimit="10" stroke-linejoin="miter" fill="none" stroke="#409f9f" d="M54.43199-9.46478 55.71262-5.11389"/>
<path transform="matrix(1.0001,0,0,-1.00003,53.79229,42.497888)" stroke-width=".79701" stroke-linecap="butt" stroke-miterlimit="10" stroke-linejoin="miter" fill="none" stroke="#409f9f" d="M53.91469-5.99884 56.22992-2.10088"/>
<path transform="matrix(1.0001,0,0,-1.00003,53.79229,42.497888)" stroke-width=".79701" stroke-linecap="butt" stroke-miterlimit="10" stroke-linejoin="miter" fill="none" stroke="#409f9f" d="M52.89876-1.45378 57.24585-.16695"/>
<path transform="matrix(1.0001,0,0,-1.00003,53.79229,42.497888)" stroke-width=".79701" stroke-linecap="butt" stroke-miterlimit="10" stroke-linejoin="miter" fill="none" stroke="#409f9f" d="M53.27179 3.80676 56.87283 1.05138"/>
<path transform="matrix(1.0001,0,0,-1.00003,53.79229,42.497888)" stroke-width=".79701" stroke-linecap="butt" stroke-miterlimit="10" stroke-linejoin="miter" fill="none" stroke="#409f9f" d="M53.81487 7.55525 56.32976 3.78188"/>
<path transform="matrix(1.0001,0,0,-1.00003,53.79229,42.497888)" stroke-width=".79701" stroke-linecap="butt" stroke-miterlimit="10" stroke-linejoin="miter" fill="none" stroke="#409f9f" d="M54.02022 10.91637 56.12439 6.89973"/>
<path transform="matrix(1.0001,0,0,-1.00003,53.79229,42.497888)" stroke-width=".79701" stroke-linecap="butt" stroke-miterlimit="10" stroke-linejoin="miter" fill="none" stroke="#409f9f" d="M54.05414 14.17368 56.09047 10.12141"/>
<path transform="matrix(1.0001,0,0,-1.00003,53.79229,42.497888)" stroke-width=".79701" stroke-linecap="butt" stroke-miterlimit="10" stroke-linejoin="miter" fill="none" stroke="#409f9f" d="M53.94531 17.35434 56.19931 13.41971"/>
<path transform="matrix(1.0001,0,0,-1.00003,53.79229,42.497888)" stroke-width=".79701" stroke-linecap="butt" stroke-miterlimit="10" stroke-linejoin="miter" fill="none" stroke="#409f9f" d="M53.60172 20.35266 56.5429 16.90038"/>
<path transform="matrix(1.0001,0,0,-1.00003,53.79229,42.497888)" stroke-width=".79701" stroke-linecap="butt" stroke-miterlimit="10" stroke-linejoin="miter" fill="none" stroke="#409f9f" d="M52.88683 22.46895 57.25778 21.26306"/>
<path transform="matrix(1.0001,0,0,-1.00003,53.79229,42.497888)" stroke-width=".79701" stroke-linecap="butt" stroke-miterlimit="10" stroke-linejoin="miter" fill="none" stroke="#409f9f" d="M53.42714 23.54474 56.71748 26.66623"/>
<path transform="matrix(1.0001,0,0,-1.00003,53.79229,42.497888)" stroke-width=".79701" stroke-linecap="butt" stroke-miterlimit="10" stroke-linejoin="miter" fill="none" stroke="#409f9f" d="M54.22992 26.23978 55.91469 30.45018"/>
<path transform="matrix(1.0001,0,0,-1.00003,53.79229,42.497888)" stroke-width=".79701" stroke-linecap="butt" stroke-miterlimit="10" stroke-linejoin="miter" fill="none" stroke="#409f9f" d="M62.14645-19.26527 62.57619-14.75035"/>
<path transform="matrix(1.0001,0,0,-1.00003,53.79229,42.497888)" stroke-width=".79701" stroke-linecap="butt" stroke-miterlimit="10" stroke-linejoin="miter" fill="none" stroke="#409f9f" d="M62.07327-16.01747 62.64937-11.51917"/>
<path transform="matrix(1.0001,0,0,-1.00003,53.79229,42.497888)" stroke-width=".79701" stroke-linecap="butt" stroke-miterlimit="10" stroke-linejoin="miter" fill="none" stroke="#409f9f" d="M61.9513-12.75914 62.77135-8.29854"/>
<path transform="matrix(1.0001,0,0,-1.00003,53.79229,42.497888)" stroke-width=".79701" stroke-linecap="butt" stroke-miterlimit="10" stroke-linejoin="miter" fill="none" stroke="#409f9f" d="M61.72101-9.46478 63.00163-5.11389"/>
<path transform="matrix(1.0001,0,0,-1.00003,53.79229,42.497888)" stroke-width=".79701" stroke-linecap="butt" stroke-miterlimit="10" stroke-linejoin="miter" fill="none" stroke="#409f9f" d="M61.2037-5.99884 63.51894-2.10088"/>
<path transform="matrix(1.0001,0,0,-1.00003,53.79229,42.497888)" stroke-width=".79701" stroke-linecap="butt" stroke-miterlimit="10" stroke-linejoin="miter" fill="none" stroke="#409f9f" d="M60.18777-1.45378 64.53487-.16695"/>
<path transform="matrix(1.0001,0,0,-1.00003,53.79229,42.497888)" stroke-width=".79701" stroke-linecap="butt" stroke-miterlimit="10" stroke-linejoin="miter" fill="none" stroke="#409f9f" d="M60.56079 3.80676 64.16185 1.05138"/>
<path transform="matrix(1.0001,0,0,-1.00003,53.79229,42.497888)" stroke-width=".79701" stroke-linecap="butt" stroke-miterlimit="10" stroke-linejoin="miter" fill="none" stroke="#409f9f" d="M61.10387 7.55525 63.61877 3.78188"/>
<path transform="matrix(1.0001,0,0,-1.00003,53.79229,42.497888)" stroke-width=".79701" stroke-linecap="butt" stroke-miterlimit="10" stroke-linejoin="miter" fill="none" stroke="#409f9f" d="M61.30923 10.91637 63.4134 6.89973"/>
<path transform="matrix(1.0001,0,0,-1.00003,53.79229,42.497888)" stroke-width=".79701" stroke-linecap="butt" stroke-miterlimit="10" stroke-linejoin="miter" fill="none" stroke="#409f9f" d="M61.34315 14.17368 63.37949 10.12141"/>
<path transform="matrix(1.0001,0,0,-1.00003,53.79229,42.497888)" stroke-width=".79701" stroke-linecap="butt" stroke-miterlimit="10" stroke-linejoin="miter" fill="none" stroke="#409f9f" d="M61.23431 17.35434 63.48831 13.41971"/>
<path transform="matrix(1.0001,0,0,-1.00003,53.79229,42.497888)" stroke-width=".79701" stroke-linecap="butt" stroke-miterlimit="10" stroke-linejoin="miter" fill="none" stroke="#409f9f" d="M60.89073 20.35266 63.83191 16.90038"/>
<path transform="matrix(1.0001,0,0,-1.00003,53.79229,42.497888)" stroke-width=".79701" stroke-linecap="butt" stroke-miterlimit="10" stroke-linejoin="miter" fill="none" stroke="#409f9f" d="M60.17584 22.46895 64.5468 21.26306"/>
<path transform="matrix(1.0001,0,0,-1.00003,53.79229,42.497888)" stroke-width=".79701" stroke-linecap="butt" stroke-miterlimit="10" stroke-linejoin="miter" fill="none" stroke="#409f9f" d="M60.71614 23.54474 64.0065 26.66623"/>
<path transform="matrix(1.0001,0,0,-1.00003,53.79229,42.497888)" stroke-width=".79701" stroke-linecap="butt" stroke-miterlimit="10" stroke-linejoin="miter" fill="none" stroke="#409f9f" d="M61.51894 26.23978 63.2037 30.45018"/>
</svg>
