<svg xmlns="http://www.w3.org/2000/svg" xmlns:xlink="http://www.w3.org/1999/xlink" version="1.1" width="117" height="49" viewBox="0 0 117 49">
<defs>
<path id="font_1_1" d="M.42799378 .45222474 .43899537 .49023438H.31199647L.34599305 .6092224 .33399964 .6162262 .23699951 .53923037 .22399903 .49023438H.14299011L.13198853 .45222474H.21499634L.125 .08627319C.10998535 .029266358 .12199402-.01171875 .17199707-.01171875 .2519989-.01171875 .31599427 .054275514 .35598756 .1292572L.33399964 .1462555C.31098939 .10726929 .2599945 .040267946 .22898865 .040267946 .20799256 .040267946 .20799256 .0632782 .21398926 .088272098L.30299378 .45222474H.42799378Z"/>
<path id="font_2_1" d="M.07398987 .2861328V.21612549H.31900025V.2861328H.07398987Z"/>
<path id="font_2_4" d="M.12998963 .3657837C.12998963 .3487854 .1349945 .33779908 .147995 .33779908 .1599884 .33779908 .18699646 .34777833 .23498535 .34777833 .31999208 .34777833 .36799623 .27090455 .36799623 .18403626 .36799623 .065216068 .30899049 .023269654 .23799134 .023269654 .17199707 .023269654 .1289978 .07319641 .10998535 .12911988 .10398865 .14808655 .09399414 .15707398 .07998657 .15707398 .06199646 .15707398 .026992798 .13809204 .026992798 .10215759 .026992798 .05921936 .09599304-.01171875 .23699951-.01171875 .38198854-.01171875 .47299195 .06121826 .47299195 .18902588 .47299195 .32281495 .35798646 .3627777 .30299378 .3677826V.3717804C.35699464 .38078309 .44400025 .4207611 .44400025 .5197296 .44400025 .6306915 .35699464 .6796875 .25 .6796875 .117996219 .6796875 .052993776 .60369876 .052993776 .5607147 .052993776 .5297241 .08799744 .51272585 .101989749 .51272585 .114990238 .51272585 .12298584 .5197296 .1269989 .5327301 .14898682 .60069277 .18699646 .64468386 .24299622 .64468386 .32199098 .64468386 .34098817 .57470706 .34098817 .51872256 .34098817 .4587555 .31999208 .38378907 .23498535 .38378907 .18699646 .38378907 .1599884 .39378358 .147995 .39378358 .1349945 .39378358 .12998963 .38378907 .12998963 .3657837Z"/>
<path id="font_2_3" d="M.4850006 .13195801 .45700074 .13696289C.43598939 .08299255 .41600038 .07598877 .37599183 .07598877H.11999512C.13598633 .1279602 .19499207 .19892884 .28799439 .2658844 .38398744 .33584596 .45799256 .38082887 .45799256 .49276734 .45799256 .63168337 .3659973 .6796875 .26098634 .6796875 .12399292 .6796875 .052993776 .5967102 .052993776 .54473879 .052993776 .51075747 .09098816 .49476625 .10798645 .49476625 .12599182 .49476625 .1329956 .50476077 .13699341 .5217438 .15299988 .5897064 .19198609 .64468386 .2539978 .64468386 .33099366 .64468386 .35299684 .5797119 .35299684 .50675967 .35299684 .3998108 .29899598 .33984376 .21199036 .26289369 .08898926 .15594483 .04598999 .08798218 .026992798 .009994507L.036987306 0H.45098878L.4850006 .13195801Z"/>
<path id="font_2_2" d="M.43699647 0V.0289917L.35299684 .035995485C.33198548 .037994386 .31999208 .04598999 .31999208 .08496094V.67367556L.31498719 .6796875 .10899353 .6446991V.6197052L.20199585 .6087036C.21899414 .6067047 .22599793 .5987091 .22599793 .56973269V.08496094C.22599793 .065979007 .22299195 .053985597 .21699524 .04698181 .21199036 .039993287 .20399475 .036987306 .19299317 .035995485L.10899353 .0289917V0H.43699647Z"/>
</defs>
<path transform="matrix(1.00003,0,0,-1.00003,57.985727,24.476254)" d="M-56.69275-22.6771V22.6771H0V-22.6771ZM0 22.6771" fill="#d9d9ec"/>
<path transform="matrix(1.00003,0,0,-1.00003,57.985727,24.476254)" d="M0-22.6771V22.6771H22.6771V-22.6771ZM22.6771 22.6771" fill="#d9ecd9"/>
<path transform="matrix(1.00003,0,0,-1.00003,57.985727,24.476254)" d="M22.6771-22.6771V22.6771H56.69275V-22.6771ZM56.69275 22.6771" fill="#ecd9d9"/>
<path transform="matrix(1.00003,0,0,-1.00003,57.985727,24.476254)" stroke-width=".3985" stroke-linecap="butt" stroke-miterlimit="10" stroke-linejoin="miter" fill="none" stroke="#000000" d="M-56.69275 0H56.23447"/>
<path transform="matrix(1.00003,0,0,-1.00003,114.221889,24.476254)" stroke-width=".31879" stroke-linecap="round" stroke-linejoin="round" fill="none" stroke="#000000" d="M-1.19551 1.59401C-1.09587 .99626 0 .09961 .29886 0 0-.09961-1.09587-.99626-1.19551-1.59401"/>
<path transform="matrix(1.00003,0,0,-1.00003,57.985727,24.476254)" stroke-width=".3985" stroke-linecap="butt" stroke-miterlimit="10" stroke-linejoin="miter" fill="none" stroke="#000000" d="M0-22.6771V22.21881"/>
<path transform="matrix(0,-1.00003,-1.00003,-0,57.985727,2.2567769)" stroke-width=".31879" stroke-linecap="round" stroke-linejoin="round" fill="none" stroke="#000000" d="M-1.19551 1.59401C-1.09587 .99626 0 .09961 .29886 0 0-.09961-1.09587-.99626-1.19551-1.59401"/>
<use data-text="t" xlink:href="#font_1_1" transform="matrix(7.3327205,0,0,-7.3327205,111.98335,32.394495)"/>
<path transform="matrix(1.00003,0,0,-1.00003,57.985727,24.476254)" stroke-width=".3985" stroke-linecap="butt" stroke-miterlimit="10" stroke-linejoin="miter" fill="none" stroke="#929292" d="M-34.01564 1.13391V-1.13391"/>
<use data-text="-" xlink:href="#font_2_1" transform="matrix(7.3327205,0,0,-7.3327205,20.585602,33.692529)"/>
<use data-text="3" xlink:href="#font_2_4" transform="matrix(7.3327205,0,0,-7.3327205,23.46003,33.692529)"/>
<path transform="matrix(1.00003,0,0,-1.00003,57.985727,24.476254)" stroke-width=".3985" stroke-linecap="butt" stroke-miterlimit="10" stroke-linejoin="miter" fill="none" stroke="#929292" d="M-22.6771 1.13391V-1.13391"/>
<use data-text="-" xlink:href="#font_2_1" transform="matrix(7.3327205,0,0,-7.3327205,31.924942,33.692529)"/>
<use data-text="2" xlink:href="#font_2_3" transform="matrix(7.3327205,0,0,-7.3327205,34.79937,33.692529)"/>
<path transform="matrix(1.00003,0,0,-1.00003,57.985727,24.476254)" stroke-width=".3985" stroke-linecap="butt" stroke-miterlimit="10" stroke-linejoin="miter" fill="none" stroke="#929292" d="M-11.33855 1.13391V-1.13391"/>
<use data-text="-" xlink:href="#font_2_1" transform="matrix(7.3327205,0,0,-7.3327205,43.263284,33.692529)"/>
<use data-text="1" xlink:href="#font_2_2" transform="matrix(7.3327205,0,0,-7.3327205,46.13771,33.692529)"/>
<path transform="matrix(1.00003,0,0,-1.00003,57.985727,24.476254)" stroke-width=".3985" stroke-linecap="butt" stroke-miterlimit="10" stroke-linejoin="miter" fill="none" stroke="#929292" d="M11.33855 1.13391V-1.13391"/>
<use data-text="1" xlink:href="#font_2_2" transform="matrix(7.3327205,0,0,-7.3327205,67.380008,33.692529)"/>
<path transform="matrix(1.00003,0,0,-1.00003,57.985727,24.476254)" stroke-width=".3985" stroke-linecap="butt" stroke-miterlimit="10" stroke-linejoin="miter" fill="none" stroke="#929292" d="M22.6771 1.13391V-1.13391"/>
<use data-text="2" xlink:href="#font_2_3" transform="matrix(7.3327205,0,0,-7.3327205,78.71835,33.692529)"/>
<path transform="matrix(1.00003,0,0,-1.00003,57.985727,24.476254)" stroke-width=".3985" stroke-linecap="butt" stroke-miterlimit="10" stroke-linejoin="miter" fill="none" stroke="#929292" d="M34.01564 1.13391V-1.13391"/>
<use data-text="3" xlink:href="#font_2_4" transform="matrix(7.3327205,0,0,-7.3327205,90.05769,33.692529)"/>
<path transform="matrix(1.00003,0,0,-1.00003,57.985727,24.476254)" stroke-width=".79701" stroke-linecap="butt" stroke-dasharray="2.98883,2.98883" stroke-miterlimit="10" stroke-linejoin="miter" fill="none" stroke="#8080bf" d="M-56.69275 3.21594-56.12698 2.66957-55.56123 2.11679-54.99547 1.55865-54.42973 .99652-53.86398 .43199-53.29823-.13338-52.73248-.69861-52.16673-1.26193-51.60098-1.8225-51.03522-2.37856-50.46947-2.92839-49.90372-3.47095-49.33797-4.00505-48.77223-4.52893-48.20647-5.04175-47.64072-5.54227-47.07497-6.0286-46.50922-6.50024-45.94347-6.95526-45.37772-7.39333-44.81198-7.81271-44.24622-8.2127-43.68047-8.59248-43.1147-8.95078-42.54897-9.28696-41.9832-9.59975-41.41747-9.88852-40.8517-10.15271-40.28595-10.3918-39.72021-10.60495-39.15445-10.79198-38.5887-10.9522-38.02295-11.08473-37.4572-11.18974-36.89145-11.2669-36.3257-11.31604-35.75993-11.33716-35.1942-11.33006-34.62845-11.29492-34.0627-11.2311-33.49695-11.13974-32.93118-11.02036-32.36545-10.87381-31.79968-10.70012-31.23393-10.49977-30.66818-10.27364-30.10243-10.02156-29.5367-9.7444-28.97093-9.44319-28.40518-9.11844-27.83943-8.77103-27.27368-8.40164-26.70793-8.01184-26.14218-7.60146-25.57643-7.1724-25.01068-6.7255-24.44493-6.26183-23.87917-5.78275-23.31343-5.28897-22.74767-4.7824-22.18193-4.2637-21.61617-3.73447-21.05042-3.1957-20.48468-2.64897-19.91891-2.09602-19.35316-1.53755-18.78741-.97562-18.22166-.4107-17.65591 .1545-17.09016 .71971-16.5244 1.28304-15.95866 1.84343-15.39291 2.39897-14.82716 2.9488-14.26141 3.4912-13.69565 4.02495-13.12991 4.5485-12.56415 5.06094-11.9984 5.56061-11.43266 6.04643-10.8669 6.51736-10.30116 6.97221-9.7354 7.40924-9.16965 7.82793-8.60388 8.22725-8.03815 8.60614-7.47238 8.9636-6.90665 9.29889-6.3409 9.61118-5.77515 9.8989-5.2094 10.16222-4.64363 10.4001-4.0779 10.61256-3.51213 10.79855-2.9464 10.95757-2.38063 11.08923-1.81488 11.19319-1.24913 11.26933-.68338 11.31726"/>
<path transform="matrix(1.00003,0,0,-1.00003,57.985727,24.476254)" stroke-width="1.19553" stroke-linecap="butt" stroke-miterlimit="10" stroke-linejoin="miter" fill="none" stroke="#008000" d="M0 11.33855 .22212 11.12123 .44427 10.90567 .66641 10.69356 .88858 10.4861 1.11072 10.28297 1.33287 10.0835 1.55502 9.8873 1.77716 9.6956 1.99931 9.50737 2.22145 9.32362 2.4436 9.14214 2.66576 8.96515 2.88791 8.79059 3.11006 8.6205 3.3322 8.4525 3.55435 8.28918 3.7765 8.1283 3.99864 7.97049 4.2208 7.81635 4.44293 7.66443 4.66508 7.51582 4.88725 7.36946 5.10939 7.22655 5.33154 7.0871 5.55368 6.94868 5.77583 6.81374 5.99799 6.68225 6.22012 6.55284 6.44228 6.4248 6.66441 6.30006 6.88658 6.1786 7.10872 6.05836 7.33087 5.94055 7.55302 5.826 7.77516 5.71251 7.99731 5.60246 8.21945 5.49365 8.4416 5.38707 8.66376 5.28154 8.8859 5.17946 9.10806 5.0786 9.3302 4.98102 9.55235 4.88342 9.7745 4.78932 9.99664 4.6964 10.2188 4.60454 10.44093 4.51595 10.66309 4.42755 10.88524 4.34242 11.10739 4.25748 11.32954 4.17581 11.55168 4.09415 11.77383 4.01472 11.99599 3.93654 12.21812 3.86041 12.44028 3.78566 12.66241 3.71196 12.88457 3.64052 13.10674 3.56905 13.32887 3.49985 13.55103 3.43185 13.77316 3.36594 13.99532 3.3002 14.21745 3.2367 14.4396 3.1732 14.66176 3.11195 14.8839 3.05174 15.10605 2.99292 15.3282 2.93393 15.55035 2.87718 15.7725 2.82164 15.99464 2.76715 16.2168 2.71265 16.43893 2.66057 16.66109 2.60832 16.88324 2.5585 17.10538 2.50867 17.32755 2.45987 17.54968 2.41212 17.77184 2.36575 17.99399 2.31921 18.21613 2.2739 18.43828 2.23064 18.66042 2.18651 18.88257 2.14447 19.10472 2.10262 19.32687 2.06178 19.54903 2.02197 19.77116 1.98236 19.99332 1.94499 20.21545 1.90642 20.4376 1.87007 20.65976 1.83374 20.8819 1.79741 21.10405 1.76228 21.32619 1.72838 21.54836 1.69533 21.77051 1.66246 21.99265 1.62958"/>
<path transform="matrix(1.00003,0,0,-1.00003,57.985727,24.476254)" stroke-width=".79701" stroke-linecap="butt" stroke-dasharray="2.98883,2.98883" stroke-miterlimit="10" stroke-linejoin="miter" fill="none" stroke="#bf8080" d="M22.6771 11.33855 23.02052 10.9951 23.36394 10.65167 23.70737 10.30824 24.0508 9.96481 24.39423 9.62138 24.73767 9.27795 25.0811 8.93452 25.42453 8.59108 25.76796 8.24767 26.11139 7.90424 26.4548 7.5608 26.79823 7.21738 27.14168 6.87395 27.4851 6.53052 27.82854 6.18707 28.17197 5.84364 28.5154 5.50021 28.85883 5.1568 29.20226 4.81337 29.54567 4.46994 29.8891 4.12651 30.23254 3.78308 30.57597 3.43964 30.9194 3.0962 31.26283 2.75278 31.60626 2.40935 31.94969 2.06593 32.29312 1.7225 32.63655 1.37907 32.97998 1.03564 33.32341 .6922 33.66684 .34877 34.01027 .00534 34.3537-.33806 34.69713-.68149 35.04057-1.0249 35.384-1.36833 35.72742-1.71176 36.07085-2.05519 36.41428-2.39862 36.7577-2.74207 37.10114-3.0855 37.44456-3.42892 37.78801-3.77235 38.13144-4.11577 38.47487-4.4592 38.81828-4.80263 39.16171-5.14607 39.50514-5.4895 39.84857-5.83293 40.19202-6.17636 40.53545-6.51979 40.87888-6.86322 41.2223-7.20665 41.56573-7.55008 41.90915-7.8935 42.25258-8.23694 42.59602-8.58037 42.93945-8.9238 43.28288-9.26723 43.62631-9.61066 43.96974-9.9541 44.31317-10.29752 44.6566-10.64095 45.00003-10.98438 45.34344-11.3278 45.68689-11.67123 46.03032-12.01466 46.37375-12.3581 46.71718-12.70152 47.06061-13.04497 47.40405-13.3884 47.74747-13.73181 48.0909-14.07524 48.43433-14.41867 48.77776-14.7621 49.12119-15.10553 49.46461-15.44897 49.80804-15.79239 50.15147-16.13583 50.49492-16.47926 50.83835-16.82268 51.18176-17.1661 51.52519-17.50954 51.86862-17.85298 52.21205-18.1964 52.55548-18.53984 52.89893-18.88327 53.24234-19.2267 53.58578-19.57013 53.92921-19.91354 54.27263-20.25699 54.61606-20.6004 54.95949-20.94385 55.30293-21.28728 55.64635-21.6307 55.98979-21.97414 56.33322-22.31757 56.67665-22.661"/>
<path transform="matrix(1.00003,0,0,-1.00003,57.985727,24.476254)" d="M1.19551 11.33855C1.19551 11.99881 .66026 12.53406 0 12.53406-.66026 12.53406-1.19551 11.99881-1.19551 11.33855-1.19551 10.67827-.66026 10.14302 0 10.14302 .66026 10.14302 1.19551 10.67827 1.19551 11.33855ZM0 11.33855" fill="#008000"/>
<path transform="matrix(1.00003,0,0,-1.00003,57.985727,24.476254)" stroke-width=".79701" stroke-linecap="butt" stroke-miterlimit="10" stroke-linejoin="miter" fill="none" stroke="#000080" d="M1.19551 11.33855C1.19551 11.99881 .66026 12.53406 0 12.53406-.66026 12.53406-1.19551 11.99881-1.19551 11.33855-1.19551 10.67827-.66026 10.14302 0 10.14302 .66026 10.14302 1.19551 10.67827 1.19551 11.33855ZM0 11.33855"/>
</svg>
