<svg xmlns="http://www.w3.org/2000/svg" xmlns:xlink="http://www.w3.org/1999/xlink" version="1.1" width="79" height="92" viewBox="0 0 79 92">
<defs>
<path id="font_1_6" d="M.43699647 0V.0289917L.35299684 .035995485C.33198548 .037994386 .31999208 .04598999 .31999208 .08496094V.67367556L.31498719 .6796875 .10899353 .6446991V.6197052L.20199585 .6087036C.21899414 .6067047 .22599793 .5987091 .22599793 .56973269V.08496094C.22599793 .065979007 .22299195 .053985597 .21699524 .04698181 .21199036 .039993287 .20399475 .036987306 .19299317 .035995485L.10899353 .0289917V0H.43699647Z"/>
<path id="font_1_7" d="M.4850006 .13195801 .45700074 .13696289C.43598939 .08299255 .41600038 .07598877 .37599183 .07598877H.11999512C.13598633 .1279602 .19499207 .19892884 .28799439 .2658844 .38398744 .33584596 .45799256 .38082887 .45799256 .49276734 .45799256 .63168337 .3659973 .6796875 .26098634 .6796875 .12399292 .6796875 .052993776 .5967102 .052993776 .54473879 .052993776 .51075747 .09098816 .49476625 .10798645 .49476625 .12599182 .49476625 .1329956 .50476077 .13699341 .5217438 .15299988 .5897064 .19198609 .64468386 .2539978 .64468386 .33099366 .64468386 .35299684 .5797119 .35299684 .50675967 .35299684 .3998108 .29899598 .33984376 .21199036 .26289369 .08898926 .15594483 .04598999 .08798218 .026992798 .009994507L.036987306 0H.45098878L.4850006 .13195801Z"/>
<path id="font_1_8" d="M.12998963 .3657837C.12998963 .3487854 .1349945 .33779908 .147995 .33779908 .1599884 .33779908 .18699646 .34777833 .23498535 .34777833 .31999208 .34777833 .36799623 .27090455 .36799623 .18403626 .36799623 .065216068 .30899049 .023269654 .23799134 .023269654 .17199707 .023269654 .1289978 .07319641 .10998535 .12911988 .10398865 .14808655 .09399414 .15707398 .07998657 .15707398 .06199646 .15707398 .026992798 .13809204 .026992798 .10215759 .026992798 .05921936 .09599304-.01171875 .23699951-.01171875 .38198854-.01171875 .47299195 .06121826 .47299195 .18902588 .47299195 .32281495 .35798646 .3627777 .30299378 .3677826V.3717804C.35699464 .38078309 .44400025 .4207611 .44400025 .5197296 .44400025 .6306915 .35699464 .6796875 .25 .6796875 .117996219 .6796875 .052993776 .60369876 .052993776 .5607147 .052993776 .5297241 .08799744 .51272585 .101989749 .51272585 .114990238 .51272585 .12298584 .5197296 .1269989 .5327301 .14898682 .60069277 .18699646 .64468386 .24299622 .64468386 .32199098 .64468386 .34098817 .57470706 .34098817 .51872256 .34098817 .4587555 .31999208 .38378907 .23498535 .38378907 .18699646 .38378907 .1599884 .39378358 .147995 .39378358 .1349945 .39378358 .12998963 .38378907 .12998963 .3657837Z"/>
<path id="font_2_1" d="M.42799378 .45222474 .43899537 .49023438H.31199647L.34599305 .6092224 .33399964 .6162262 .23699951 .53923037 .22399903 .49023438H.14299011L.13198853 .45222474H.21499634L.125 .08627319C.10998535 .029266358 .12199402-.01171875 .17199707-.01171875 .2519989-.01171875 .31599427 .054275514 .35598756 .1292572L.33399964 .1462555C.31098939 .10726929 .2599945 .040267946 .22898865 .040267946 .20799256 .040267946 .20799256 .0632782 .21398926 .088272098L.30299378 .45222474H.42799378Z"/>
<path id="font_1_4" d="M.1329956-.01171875C.17199707-.01171875 .19499207 .015274048 .19599915 .05126953 .19599915 .088272098 .17199707 .11627197 .1329956 .11627197 .09498596 .11627197 .069992069 .088272098 .069992069 .05126953 .069992069 .015274048 .09498596-.01171875 .1329956-.01171875Z"/>
<path id="font_1_9" d="M.42599488 .5919647 .44999696 .6599579 .44499208 .66796877H.11099243L.100997928 .65896609 .08099365 .32388307 .10499573 .31188966C.14698792 .35983277 .18798828 .3828125 .24198914 .3828125 .30599977 .3828125 .37599183 .3358612 .37599183 .20404053 .37599183 .10116577 .33399964 .023269654 .24699402 .023269654 .1769867 .023269654 .14099121 .07420349 .12098694 .13113404 .115997318 .14611817 .10699463 .15510559 .09298706 .15510559 .07299805 .15510559 .039993287 .13513184 .039993287 .10217285 .039993287 .056228639 .10998535-.01171875 .23999024-.01171875 .40499879-.01171875 .47999574 .0881958 .47999574 .21502686 .47999574 .35484315 .3919983 .4268036 .272995 .4268036 .21798706 .4268036 .15899658 .4028015 .1269989 .3738098L.125 .37580873 .147995 .56292727C.15098572 .58795168 .1579895 .5919647 .1769867 .5919647H.42599488Z"/>
<path id="font_2_2" d="M.070999149 .45393373 .07398987 .42893983 .14199829 .43093873C.1639862 .43193055 .16899109 .41493226 .1769867 .36291505 .18798828 .28489686 .20999146 .09286499 .20999146 .0128479 .20999146-.017166138 .20799256-.058166505 .18598938-.11117554 .16799927-.15318299 .14199829-.18218994 .12199402-.18218994 .10699463-.18218994 .09599304-.17118836 .08099365-.15118408 .068984989-.13517761 .06098938-.127182 .04598999-.127182 .019989014-.12818909-.005004883-.15818787-.005004883-.18719483-.005004883-.21418762 .023986817-.2421875 .067993167-.2421875 .15299988-.2421875 .18998719-.17919922 .27799989-.027160645 .2979889 .0068511965 .35798646 .11286926 .41999818 .21488953 .47698976 .30891419 .5399933 .40592958 .5399933 .4459381 .5399933 .48094178 .5289917 .5019531 .5219879 .5019531 .5029907 .5019531 .46899415 .49394227 .44400025 .47694398 .44499208 .4419403 .44299317 .3809204 .43099977 .33891297 .4149933 .28289796 .35598756 .17488098 .2899933 .06085205H.2869873C.27999879 .21388245 .26098634 .42492677 .24699402 .49795533L.23899842 .5019531 .070999149 .45393373Z"/>
<path id="font_1_5" d="M.15899658-.0146484379 .36898805 .70703127H.3019867L.09199524-.0146484379H.15899658Z"/>
<path id="font_1_1" d="M.1749878 .2822113C.1749878 .56832888 .2619934 .65437319 .32499696 .66737368V.6923828C.1499939 .685379 .10499573 .46829225 .10499573 .2822113 .10499573 .09614563 .1499939-.12094116 .32499696-.12792969V-.10293579C.2669983-.090927127 .1749878-.0059051516 .1749878 .2822113Z"/>
<path id="font_1_3" d="M.069992069-.140625C.11999512-.09362793 .19299317-.027633667 .19299317 .051361085 .19299317 .10636902 .1599884 .1423645 .125 .14137268 .09399414 .14137268 .07598877 .117370609 .07598877 .09136963 .07598877 .055374147 .10899353 .037368776 .10899353-.005630493 .10899353-.04663086 .08299255-.086639408 .050994874-.12162781L.069992069-.140625Z"/>
<path id="font_1_2" d="M.1749878 .2822113C.1749878-.0059051516 .08299255-.090927127 .024993897-.10293579V-.12792969C.19999695-.12094116 .24499512 .09614563 .24499512 .2822113 .24499512 .46829225 .19999695 .685379 .024993897 .6923828V.66737368C.08799744 .65437319 .1749878 .56832888 .1749878 .2822113Z"/>
</defs>
<path transform="matrix(1.00006,0,0,-1.00005,16.950074,74.530979)" stroke-width=".3985" stroke-linecap="butt" stroke-miterlimit="10" stroke-linejoin="miter" fill="none" stroke="#cbcbcb" d="M17.00824-13.60663V64.63141"/>
<path transform="matrix(1.00006,0,0,-1.00005,16.950074,74.530979)" stroke-width=".3985" stroke-linecap="butt" stroke-miterlimit="10" stroke-linejoin="miter" fill="none" stroke="#cbcbcb" d="M34.0165-13.60663V64.63141"/>
<path transform="matrix(1.00006,0,0,-1.00005,16.950074,74.530979)" stroke-width=".3985" stroke-linecap="butt" stroke-miterlimit="10" stroke-linejoin="miter" fill="none" stroke="#cbcbcb" d="M51.02477-13.60663V64.63141"/>
<path transform="matrix(1.00006,0,0,-1.00005,16.950074,74.530979)" stroke-width=".3985" stroke-linecap="butt" stroke-miterlimit="10" stroke-linejoin="miter" fill="none" stroke="#000000" d="M17.00824-1.70091V1.70091"/>
<path transform="matrix(1.00006,0,0,-1.00005,16.950074,74.530979)" d="M13.58105-11.16368H20.4354V-3.0341006H13.58105Z" fill="#ffffff"/>
<use data-text="1" xlink:href="#font_1_6" transform="matrix(9.166149,0,0,-9.166058,31.527947,84.69849)"/>
<path transform="matrix(1.00006,0,0,-1.00005,16.950074,74.530979)" stroke-width=".3985" stroke-linecap="butt" stroke-miterlimit="10" stroke-linejoin="miter" fill="none" stroke="#000000" d="M34.0165-1.70091V1.70091"/>
<path transform="matrix(1.00006,0,0,-1.00005,16.950074,74.530979)" d="M30.58932-11.16368H37.44367V-3.0341006H30.58932Z" fill="#ffffff"/>
<use data-text="2" xlink:href="#font_1_7" transform="matrix(9.166149,0,0,-9.166058,48.537965,84.69849)"/>
<path transform="matrix(1.00006,0,0,-1.00005,16.950074,74.530979)" stroke-width=".3985" stroke-linecap="butt" stroke-miterlimit="10" stroke-linejoin="miter" fill="none" stroke="#000000" d="M51.02477-1.70091V1.70091"/>
<path transform="matrix(1.00006,0,0,-1.00005,16.950074,74.530979)" d="M47.59758-11.21349H54.45193V-3.034109H47.59758Z" fill="#ffffff"/>
<use data-text="3" xlink:href="#font_1_8" transform="matrix(9.166149,0,0,-9.166058,65.54699,84.69849)"/>
<path transform="matrix(1.00006,0,0,-1.00005,16.950074,74.530979)" stroke-width=".3985" stroke-linecap="butt" stroke-miterlimit="10" stroke-linejoin="miter" fill="none" stroke="#000000" d="M-13.60663 0H57.36967"/>
<path transform="matrix(1.00006,0,0,-1.00005,74.32318,74.530979)" stroke-width=".31879" stroke-linecap="round" stroke-linejoin="round" fill="none" stroke="#000000" d="M-1.19551 1.59401C-1.09587 .99626 0 .09961 .29886 0 0-.09961-1.09587-.99626-1.19551-1.59401"/>
<use data-text="t" xlink:href="#font_2_1" transform="matrix(10.037002,0,0,-10.036901,72.64342,84.115459)"/>
<path transform="matrix(1.00006,0,0,-1.00005,16.950074,74.530979)" stroke-width=".3985" stroke-linecap="butt" stroke-miterlimit="10" stroke-linejoin="miter" fill="none" stroke="#cbcbcb" d="M-13.60663 17.00824H57.82796"/>
<path transform="matrix(1.00006,0,0,-1.00005,16.950074,74.530979)" stroke-width=".3985" stroke-linecap="butt" stroke-miterlimit="10" stroke-linejoin="miter" fill="none" stroke="#cbcbcb" d="M-13.60663 34.0165H57.82796"/>
<path transform="matrix(1.00006,0,0,-1.00005,16.950074,74.530979)" stroke-width=".3985" stroke-linecap="butt" stroke-miterlimit="10" stroke-linejoin="miter" fill="none" stroke="#cbcbcb" d="M-13.60663 51.02477H57.82796"/>
<path transform="matrix(1.00006,0,0,-1.00005,16.950074,74.530979)" stroke-width=".3985" stroke-linecap="butt" stroke-miterlimit="10" stroke-linejoin="miter" fill="none" stroke="#000000" d="M-1.70091 17.00824H1.70091"/>
<path transform="matrix(1.00006,0,0,-1.00005,16.950074,74.530979)" d="M-9.88846 12.94344H-3.03411V21.07302H-9.88846Z" fill="#ffffff"/>
<use data-text="1" xlink:href="#font_1_6" transform="matrix(9.166149,0,0,-9.166058,8.057541,60.59028)"/>
<path transform="matrix(1.00006,0,0,-1.00005,16.950074,74.530979)" stroke-width=".3985" stroke-linecap="butt" stroke-miterlimit="10" stroke-linejoin="miter" fill="none" stroke="#000000" d="M-1.70091 42.52063H1.70091"/>
<path transform="matrix(1.00006,0,0,-1.00005,16.950074,74.530979)" d="M-17.18121 38.41599H-3.0340996V46.62526H-17.18121Z" fill="#ffffff"/>
<use data-text="2" xlink:href="#font_1_7" transform="matrix(9.166149,0,0,-9.166058,.7640991,35.037004)"/>
<use data-text="." xlink:href="#font_1_4" transform="matrix(9.166149,0,0,-9.166058,5.622154,35.037004)"/>
<use data-text="5" xlink:href="#font_1_9" transform="matrix(9.166149,0,0,-9.166058,8.051186,35.037004)"/>
<path transform="matrix(1.00006,0,0,-1.00005,16.950074,74.530979)" stroke-width=".3985" stroke-linecap="butt" stroke-miterlimit="10" stroke-linejoin="miter" fill="none" stroke="#000000" d="M0-13.60663V64.17314"/>
<path transform="matrix(0,-1.00005,-1.00006,-0,16.950074,10.3546299)" stroke-width=".31879" stroke-linecap="round" stroke-linejoin="round" fill="none" stroke="#000000" d="M-1.19551 1.59401C-1.09587 .99626 0 .09961 .29886 0 0-.09961-1.09587-.99626-1.19551-1.59401"/>
<use data-text="y" xlink:href="#font_2_2" transform="matrix(10.037002,0,0,-10.036901,20.894303,11.145809)"/>
<path transform="matrix(1.00006,0,0,-1.00005,16.950074,74.530979)" stroke-width="1.59404" stroke-linecap="butt" stroke-miterlimit="10" stroke-linejoin="miter" fill="none" stroke="#000000" d="M-4.43384-15.15483-2.62222-12.43747-.14194-8.71692 2.3383-4.99663 4.81859-1.27632 7.29887 2.44418 9.77914 6.16449 12.25945 9.88506 14.73973 13.60533 17.22002 17.3259 19.7003 21.0462 22.18059 24.76675 24.66087 28.48705 27.14114 32.2076 29.62143 35.9279 32.10172 39.64845 34.582 43.36876 37.0623 47.08931 39.54257 50.80962 42.02287 54.53017 44.50314 58.25046 46.98343 61.97102 49.4637 65.69131 51.944 69.41188 53.7556 72.12921"/>
<path transform="matrix(-.55472329,.83203157,.8320399,.5547177,12.515967,89.686557)" stroke-width="1.27522" stroke-linecap="round" stroke-linejoin="round" fill="none" stroke="#000000" d="M-2.27148 3.02866C-2.0822 1.8929 0 .18927 .56786 0 0-.18927-2.0822-1.8929-2.27148-3.02866"/>
<path transform="matrix(.55472329,-.83203157,-.8320399,-.5547177,70.70889,2.3981705)" stroke-width="1.27522" stroke-linecap="round" stroke-linejoin="round" fill="none" stroke="#000000" d="M-2.27148 3.02866C-2.0822 1.8929 0 .18927 .56786 0 0-.18927-2.0822-1.8929-2.27148-3.02866"/>
<path transform="matrix(1.00006,0,0,-1.00005,16.950074,74.530979)" stroke-width="1.19553" stroke-linecap="butt" stroke-miterlimit="10" stroke-linejoin="miter" fill="none" stroke="#0033cc" d="M17.00824 17.00824V41.56421"/>
<path transform="matrix(0,-1.00005,-1.00006,-0,33.959337,32.96469)" stroke-width=".9564" stroke-linecap="round" stroke-linejoin="round" fill="none" stroke="#0033cc" d="M-1.91284 2.55046C-1.75343 1.59402 0 .15938 .4782 0 0-.15938-1.75343-1.59402-1.91284-2.55046"/>
<path transform="matrix(1.00006,0,0,-1.00005,16.950074,74.530979)" d="M9.18857 25.2135H19.15821V34.31534H9.18857Z" fill="#ffffff"/>
<use data-text="3" xlink:href="#font_1_8" transform="matrix(4.924495,0,0,-4.924446,27.135682,44.69548)" fill="#0033cc"/>
<use data-text="/" xlink:href="#font_1_5" transform="matrix(9.166149,0,0,-9.166058,29.26081,47.696634)" fill="#0033cc"/>
<use data-text="2" xlink:href="#font_1_7" transform="matrix(4.924495,0,0,-4.924446,32.501,47.696634)" fill="#0033cc"/>
<path transform="matrix(1.00006,0,0,-1.00005,16.950074,74.530979)" stroke-width="1.19553" stroke-linecap="butt" stroke-miterlimit="10" stroke-linejoin="miter" fill="none" stroke="#009966" d="M17.00824 42.52063H31.35915"/>
<path transform="matrix(1.00006,0,0,-1.00005,48.311105,32.00822)" stroke-width=".9564" stroke-linecap="round" stroke-linejoin="round" fill="none" stroke="#009966" d="M-1.91284 2.55046C-1.75343 1.59402 0 .15938 .4782 0 0-.15938-1.75343-1.59402-1.91284-2.55046"/>
<path transform="matrix(1.00006,0,0,-1.00005,16.950074,74.530979)" d="M22.231 39.4521H27.0928V45.58912H22.231Z" fill="#ffffff"/>
<use data-text="1" xlink:href="#font_1_6" transform="matrix(9.166149,0,0,-9.166058,39.182405,35.077005)" fill="#009966"/>
<path transform="matrix(1.00006,0,0,-1.00005,16.950074,74.530979)" d="M18.80156 17.00824C18.80156 17.99866 17.99866 18.80156 17.00824 18.80156 16.01782 18.80156 15.21492 17.99866 15.21492 17.00824 15.21492 16.01782 16.01782 15.21492 17.00824 15.21492 17.99866 15.21492 18.80156 16.01782 18.80156 17.00824ZM17.00824 17.00824" fill="#ffffff"/>
<path transform="matrix(1.00006,0,0,-1.00005,16.950074,74.530979)" stroke-width="1.19553" stroke-linecap="butt" stroke-miterlimit="10" stroke-linejoin="miter" fill="none" stroke="#000000" d="M18.80156 17.00824C18.80156 17.99866 17.99866 18.80156 17.00824 18.80156 16.01782 18.80156 15.21492 17.99866 15.21492 17.00824 15.21492 16.01782 16.01782 15.21492 17.00824 15.21492 17.99866 15.21492 18.80156 16.01782 18.80156 17.00824ZM17.00824 17.00824"/>
<path transform="matrix(1.00006,0,0,-1.00005,16.950074,74.530979)" stroke-width=".3985" stroke-linecap="butt" stroke-miterlimit="10" stroke-linejoin="miter" fill="none" stroke="#000000" d="M30.6149 17.00824"/>
<path transform="matrix(1.00006,0,0,-1.00005,16.950074,74.530979)" d="M18.14554 5.33481H39.682764V15.10825H18.14554Z" fill="#ffffff"/>
<use data-text="(" xlink:href="#font_1_1" transform="matrix(9.166149,0,0,-9.166058,36.093225,66.904598)"/>
<use data-text="1" xlink:href="#font_1_6" transform="matrix(9.166149,0,0,-9.166058,39.301378,66.904598)"/>
<use data-text="," xlink:href="#font_1_3" transform="matrix(9.166149,0,0,-9.166058,44.15943,66.904598)"/>
<use data-text="1" xlink:href="#font_1_6" transform="matrix(9.166149,0,0,-9.166058,47.56008,66.904598)"/>
<use data-text=")" xlink:href="#font_1_2" transform="matrix(9.166149,0,0,-9.166058,52.427316,66.904598)"/>
<path transform="matrix(1.00006,0,0,-1.00005,16.950074,74.530979)" stroke-width=".3985" stroke-linecap="butt" stroke-miterlimit="10" stroke-linejoin="miter" fill="none" stroke="#000000" d="M47.62315 42.52063"/>
<path transform="matrix(1.00006,0,0,-1.00005,16.950074,74.530979)" d="M33.69133 26.03441H56.45276V40.05358H33.69133Z" fill="#ffffff"/>
<use data-text="(" xlink:href="#font_1_1" transform="matrix(9.166149,0,0,-9.166058,51.640153,44.061456)"/>
<use data-text="2" xlink:href="#font_1_7" transform="matrix(9.166149,0,0,-9.166058,54.848306,44.061456)"/>
<use data-text="," xlink:href="#font_1_3" transform="matrix(9.166149,0,0,-9.166058,59.70636,44.061456)"/>
<use data-text="5" xlink:href="#font_1_9" transform="matrix(6.9663178,0,0,-6.966248,64.31091,40.13626)"/>
<path transform="matrix(1.00006,0,0,-1.00005,-66.31392,-15.47352)" stroke-width=".5316" stroke-linecap="butt" stroke-miterlimit="10" stroke-linejoin="miter" fill="none" stroke="#000000" d="M130.617-56.952H134.312"/>
<use data-text="2" xlink:href="#font_1_7" transform="matrix(6.9663178,0,0,-6.966248,64.31091,47.498628)"/>
<use data-text=")" xlink:href="#font_1_2" transform="matrix(9.166149,0,0,-9.166058,69.20122,44.061456)"/>
<path transform="matrix(1.00006,0,0,-1.00005,16.950074,74.530979)" d="M35.80981 42.52063C35.80981 43.51105 35.00693 44.31393 34.0165 44.31393 33.02608 44.31393 32.22319 43.51105 32.22319 42.52063 32.22319 41.5302 33.02608 40.72731 34.0165 40.72731 35.00693 40.72731 35.80981 41.5302 35.80981 42.52063ZM34.0165 42.52063" fill="#ffffff"/>
<path transform="matrix(1.00006,0,0,-1.00005,16.950074,74.530979)" stroke-width="1.19553" stroke-linecap="butt" stroke-miterlimit="10" stroke-linejoin="miter" fill="none" stroke="#000000" d="M35.80981 42.52063C35.80981 43.51105 35.00693 44.31393 34.0165 44.31393 33.02608 44.31393 32.22319 43.51105 32.22319 42.52063 32.22319 41.5302 33.02608 40.72731 34.0165 40.72731 35.00693 40.72731 35.80981 41.5302 35.80981 42.52063ZM34.0165 42.52063"/>
</svg>
