<svg xmlns="http://www.w3.org/2000/svg" xmlns:xlink="http://www.w3.org/1999/xlink" version="1.1" width="147" height="82" viewBox="0 0 147 82">
<defs>
<path id="font_1_1" d="M.42799378 .45222474 .43899537 .49023438H.31199647L.34599305 .6092224 .33399964 .6162262 .23699951 .53923037 .22399903 .49023438H.14299011L.13198853 .45222474H.21499634L.125 .08627319C.10998535 .029266358 .12199402-.01171875 .17199707-.01171875 .2519989-.01171875 .31599427 .054275514 .35598756 .1292572L.33399964 .1462555C.31098939 .10726929 .2599945 .040267946 .22898865 .040267946 .20799256 .040267946 .20799256 .0632782 .21398926 .088272098L.30299378 .45222474H.42799378Z"/>
<path id="font_2_3" d="M.2999878 .17871094V.0769043C.2999878 .04296875 .2889862 .036987306 .2649994 .034988405L.20098877 .0289917V0H.46499635V.0289917L.41999818 .033981325C.39698792 .036987306 .3899994 .04296875 .3899994 .0769043V.17871094H.49299623V.22570801H.3899994V.66796877H.31698609C.22299195 .5298767 .11099243 .35577394 .018997193 .19970703L.027999878 .17871094H.2999878M.09098816 .22570801C.15098572 .33476258 .22099304 .4498291 .2979889 .5709076H.2999878V.22570801H.09098816Z"/>
<path id="font_2_4" d="M.27198792-.01171875C.41999818-.01171875 .49899293 .07821655 .49899293 .2140503 .49899293 .3488922 .4119873 .42385865 .30799867 .421875 .23199463 .42385865 .17199707 .36886598 .14498902 .33590699H.14299011C.14399719 .5557556 .20698548 .64468386 .29699708 .64468386 .34298707 .64468386 .375 .6057129 .3899994 .5487671 .3929901 .5367737 .40098573 .527771 .41600038 .527771 .43798829 .527771 .46899415 .5447693 .46899415 .57273867 .46899415 .6127014 .41999818 .6796875 .2999878 .6796875 .22099304 .6796875 .16499329 .64967349 .12298584 .6017151 .07798767 .5497589 .04399109 .45384217 .04399109 .3089447 .04399109 .093185428 .12199402-.01171875 .27198792-.01171875M.27398683 .37086488C.33699037 .37086488 .39898683 .31393434 .39898683 .19906616 .39898683 .094192508 .35798646 .023269654 .27398683 .023269654 .18699646 .023269654 .14498902 .11616516 .14498902 .23602295 .14498902 .2969513 .18998719 .37086488 .27398683 .37086488Z"/>
<path id="font_1_2" d="M.070999149 .45393373 .07398987 .42893983 .14199829 .43093873C.1639862 .43193055 .16899109 .41493226 .1769867 .36291505 .18798828 .28489686 .20999146 .09286499 .20999146 .0128479 .20999146-.017166138 .20799256-.058166505 .18598938-.11117554 .16799927-.15318299 .14199829-.18218994 .12199402-.18218994 .10699463-.18218994 .09599304-.17118836 .08099365-.15118408 .068984989-.13517761 .06098938-.127182 .04598999-.127182 .019989014-.12818909-.005004883-.15818787-.005004883-.18719483-.005004883-.21418762 .023986817-.2421875 .067993167-.2421875 .15299988-.2421875 .18998719-.17919922 .27799989-.027160645 .2979889 .0068511965 .35798646 .11286926 .41999818 .21488953 .47698976 .30891419 .5399933 .40592958 .5399933 .4459381 .5399933 .48094178 .5289917 .5019531 .5219879 .5019531 .5029907 .5019531 .46899415 .49394227 .44400025 .47694398 .44499208 .4419403 .44299317 .3809204 .43099977 .33891297 .4149933 .28289796 .35598756 .17488098 .2899933 .06085205H.2869873C.27999879 .21388245 .26098634 .42492677 .24699402 .49795533L.23899842 .5019531 .070999149 .45393373Z"/>
<path id="font_3_1" d="M.6349945 .2529297V.31092835H.084991458V.2529297H.6349945Z"/>
<path id="font_2_1" d="M.43699647 0V.0289917L.35299684 .035995485C.33198548 .037994386 .31999208 .04598999 .31999208 .08496094V.67367556L.31498719 .6796875 .10899353 .6446991V.6197052L.20199585 .6087036C.21899414 .6067047 .22599793 .5987091 .22599793 .56973269V.08496094C.22599793 .065979007 .22299195 .053985597 .21699524 .04698181 .21199036 .039993287 .20399475 .036987306 .19299317 .035995485L.10899353 .0289917V0H.43699647Z"/>
<path id="font_2_2" d="M.4850006 .13195801 .45700074 .13696289C.43598939 .08299255 .41600038 .07598877 .37599183 .07598877H.11999512C.13598633 .1279602 .19499207 .19892884 .28799439 .2658844 .38398744 .33584596 .45799256 .38082887 .45799256 .49276734 .45799256 .63168337 .3659973 .6796875 .26098634 .6796875 .12399292 .6796875 .052993776 .5967102 .052993776 .54473879 .052993776 .51075747 .09098816 .49476625 .10798645 .49476625 .12599182 .49476625 .1329956 .50476077 .13699341 .5217438 .15299988 .5897064 .19198609 .64468386 .2539978 .64468386 .33099366 .64468386 .35299684 .5797119 .35299684 .50675967 .35299684 .3998108 .29899598 .33984376 .21199036 .26289369 .08898926 .15594483 .04598999 .08798218 .026992798 .009994507L.036987306 0H.45098878L.4850006 .13195801Z"/>
</defs>
<path transform="matrix(1.00006,0,0,-1.00008,32.20751,30.028443)" stroke-width=".3985" stroke-linecap="butt" stroke-miterlimit="10" stroke-linejoin="miter" fill="none" stroke="#000000" d="M-30.6149 0H110.09538"/>
<path transform="matrix(1.00006,0,0,-1.00008,142.3095,30.028443)" stroke-width=".31879" stroke-linecap="round" stroke-linejoin="round" fill="none" stroke="#000000" d="M-1.19551 1.59401C-1.09587 .99626 0 .09961 .29886 0 0-.09961-1.09587-.99626-1.19551-1.59401"/>
<use data-text="t" xlink:href="#font_1_1" transform="matrix(10.037002,0,0,-10.037203,140.629,39.61321)"/>
<path transform="matrix(1.00006,0,0,-1.00008,32.20751,30.028443)" stroke-width=".3985" stroke-linecap="butt" stroke-miterlimit="10" stroke-linejoin="miter" fill="none" stroke="#000000" d="M68.03302-1.19069V1.19069"/>
<use data-text="4" xlink:href="#font_2_3" transform="matrix(10.037002,0,0,-10.037203,97.582439,40.148256)"/>
<path transform="matrix(1.00006,0,0,-1.00008,32.20751,30.028443)" stroke-width=".3985" stroke-linecap="butt" stroke-miterlimit="10" stroke-linejoin="miter" fill="none" stroke="#000000" d="M102.04953-1.19069V1.19069"/>
<use data-text="6" xlink:href="#font_2_4" transform="matrix(10.037002,0,0,-10.037203,131.60147,40.148256)"/>
<path transform="matrix(1.00006,0,0,-1.00008,32.20751,30.028443)" stroke-width=".3985" stroke-linecap="butt" stroke-miterlimit="10" stroke-linejoin="miter" fill="none" stroke="#cbcbcb" d="M-17.00824-47.62315V25.51236"/>
<path transform="matrix(1.00006,0,0,-1.00008,32.20751,30.028443)" stroke-width=".3985" stroke-linecap="butt" stroke-miterlimit="10" stroke-linejoin="miter" fill="none" stroke="#cbcbcb" d="M0-47.62315V25.51236"/>
<path transform="matrix(1.00006,0,0,-1.00008,32.20751,30.028443)" stroke-width=".3985" stroke-linecap="butt" stroke-miterlimit="10" stroke-linejoin="miter" fill="none" stroke="#cbcbcb" d="M17.00824-47.62315V25.51236"/>
<path transform="matrix(1.00006,0,0,-1.00008,32.20751,30.028443)" stroke-width=".3985" stroke-linecap="butt" stroke-miterlimit="10" stroke-linejoin="miter" fill="none" stroke="#cbcbcb" d="M34.0165-47.62315V25.51236"/>
<path transform="matrix(1.00006,0,0,-1.00008,32.20751,30.028443)" stroke-width=".3985" stroke-linecap="butt" stroke-miterlimit="10" stroke-linejoin="miter" fill="none" stroke="#cbcbcb" d="M51.02477-47.62315V25.51236"/>
<path transform="matrix(1.00006,0,0,-1.00008,32.20751,30.028443)" stroke-width=".3985" stroke-linecap="butt" stroke-miterlimit="10" stroke-linejoin="miter" fill="none" stroke="#cbcbcb" d="M68.03302-47.62315V25.51236"/>
<path transform="matrix(1.00006,0,0,-1.00008,32.20751,30.028443)" stroke-width=".3985" stroke-linecap="butt" stroke-miterlimit="10" stroke-linejoin="miter" fill="none" stroke="#cbcbcb" d="M85.04128-47.62315V25.51236"/>
<path transform="matrix(1.00006,0,0,-1.00008,32.20751,30.028443)" stroke-width=".3985" stroke-linecap="butt" stroke-miterlimit="10" stroke-linejoin="miter" fill="none" stroke="#cbcbcb" d="M102.04953-47.62315V25.51236"/>
<path transform="matrix(1.00006,0,0,-1.00008,32.20751,30.028443)" stroke-width=".3985" stroke-linecap="butt" stroke-miterlimit="10" stroke-linejoin="miter" fill="none" stroke="#000000" d="M0-47.62315V25.05408"/>
<path transform="matrix(0,-1.00008,-1.00006,-0,32.20751,4.9723589)" stroke-width=".31879" stroke-linecap="round" stroke-linejoin="round" fill="none" stroke="#000000" d="M-1.19551 1.59401C-1.09587 .99626 0 .09961 .29886 0 0-.09961-1.09587-.99626-1.19551-1.59401"/>
<use data-text="y" xlink:href="#font_1_2" transform="matrix(10.037002,0,0,-10.037203,23.188965,5.7635)"/>
<path transform="matrix(1.00006,0,0,-1.00008,32.20751,30.028443)" stroke-width=".3985" stroke-linecap="butt" stroke-miterlimit="10" stroke-linejoin="miter" fill="none" stroke="#000000" d="M-1.19069-17.00824H1.19069"/>
<use data-text="&#x2212;" xlink:href="#font_3_1" transform="matrix(10.037002,0,0,-10.037203,16.262558,50.39807)"/>
<use data-text="1" xlink:href="#font_2_1" transform="matrix(10.037002,0,0,-10.037203,23.483986,50.39807)"/>
<path transform="matrix(1.00006,0,0,-1.00008,32.20751,30.028443)" stroke-width=".3985" stroke-linecap="butt" stroke-miterlimit="10" stroke-linejoin="miter" fill="none" stroke="#000000" d="M-1.19069 17.00824H1.19069"/>
<use data-text="1" xlink:href="#font_2_1" transform="matrix(10.037002,0,0,-10.037203,23.483986,16.37935)"/>
<path transform="matrix(1.00006,0,0,-1.00008,32.20751,30.028443)" stroke-width=".3985" stroke-linecap="butt" stroke-miterlimit="10" stroke-linejoin="miter" fill="none" stroke="#cbcbcb" d="M-30.6149-34.0165H110.55367"/>
<path transform="matrix(1.00006,0,0,-1.00008,32.20751,30.028443)" stroke-width=".3985" stroke-linecap="butt" stroke-miterlimit="10" stroke-linejoin="miter" fill="none" stroke="#cbcbcb" d="M-30.6149-17.00824H110.55367"/>
<path transform="matrix(1.00006,0,0,-1.00008,32.20751,30.028443)" stroke-width=".3985" stroke-linecap="butt" stroke-miterlimit="10" stroke-linejoin="miter" fill="none" stroke="#cbcbcb" d="M-30.6149 0H110.55367"/>
<path transform="matrix(1.00006,0,0,-1.00008,32.20751,30.028443)" stroke-width=".3985" stroke-linecap="butt" stroke-miterlimit="10" stroke-linejoin="miter" fill="none" stroke="#cbcbcb" d="M-30.6149 17.00824H110.55367"/>
<path transform="matrix(1.00006,0,0,-1.00008,32.20751,30.028443)" stroke-width="1.19553" stroke-linecap="butt" stroke-miterlimit="10" stroke-linejoin="miter" fill="none" stroke="#000000" d="M-29.75952-48.89615-24.733-46.38289-18.85114-43.44194-12.96924-40.50099-7.08736-37.56006-1.20547-34.61913 4.67636-31.67844 10.55826-28.73749 16.44014-25.79655 22.32202-22.8556 28.2039-19.91466 34.08578-16.97371 39.96767-14.03279 45.84955-11.09184 51.73145-8.1509 57.61333-5.20996 63.49521-2.26901 69.37709 .67189 75.25899 3.61284 81.14087 6.55377 87.02275 9.49472 92.90463 12.43567 98.78653 15.3766 104.66841 18.31755 109.69492 20.83081"/>
<path transform="matrix(-.89441367,.44720576,.4471968,.89443156,2.4462262,78.9285)" stroke-width=".9564" stroke-linecap="round" stroke-linejoin="round" fill="none" stroke="#000000" d="M-1.91284 2.55046C-1.75343 1.59402 0 .15938 .4782 0 0-.15938-1.75343-1.59402-1.91284-2.55046"/>
<path transform="matrix(.89441367,-.44720576,-.4471968,-.89443156,141.909,9.195965)" stroke-width=".9564" stroke-linecap="round" stroke-linejoin="round" fill="none" stroke="#000000" d="M-1.91284 2.55046C-1.75343 1.59402 0 .15938 .4782 0 0-.15938-1.75343-1.59402-1.91284-2.55046"/>
<path transform="matrix(1.00006,0,0,-1.00008,32.20751,30.028443)" stroke-width=".79701" stroke-linecap="butt" stroke-miterlimit="10" stroke-linejoin="miter" fill="none" stroke="#000000" d="M0-34.0165V-17.7156"/>
<path transform="matrix(0,-1.00008,-1.00006,-0,32.20751,47.74546)" stroke-width=".6376" stroke-linecap="round" stroke-linejoin="round" fill="none" stroke="#000000" d="M-1.55415 2.0722C-1.42464 1.29512 0 .1295 .38852 0 0-.1295-1.42464-1.29512-1.55415-2.0722"/>
<path transform="matrix(1.00006,0,0,-1.00008,32.20751,30.028443)" d="M-5.14441-31.16687H5.14441V-19.85788H-5.14441Z" fill="#ffffff"/>
<use data-text="1" xlink:href="#font_2_1" transform="matrix(7.3329398,0,0,-7.3330867,30.262398,57.99768)"/>
<path transform="matrix(1.00006,0,0,-1.00008,32.20751,30.028443)" stroke-width=".79701" stroke-linecap="butt" stroke-miterlimit="10" stroke-linejoin="miter" fill="none" stroke="#000000" d="M0-17.00824H31.6082"/>
<path transform="matrix(1.00006,0,0,-1.00008,63.817609,47.03804)" stroke-width=".6376" stroke-linecap="round" stroke-linejoin="round" fill="none" stroke="#000000" d="M-1.55415 2.0722C-1.42464 1.29512 0 .1295 .38852 0 0-.1295-1.42464-1.29512-1.55415-2.0722"/>
<path transform="matrix(1.00006,0,0,-1.00008,32.20751,30.028443)" d="M10.29625-23.56795H22.0193V-10.448529H10.29625Z" fill="#ffffff"/>
<use data-text="2" xlink:href="#font_2_2" transform="matrix(10.037002,0,0,-10.037203,45.704324,50.39807)"/>
<path transform="matrix(1.00006,0,0,-1.00008,32.20751,30.028443)" d="M1.7933-34.0165C1.7933-33.02608 .99042-32.22319 0-32.22319-.99042-32.22319-1.7933-33.02608-1.7933-34.0165-1.7933-35.00693-.99042-35.80981 0-35.80981 .99042-35.80981 1.7933-35.00693 1.7933-34.0165ZM0-34.0165" fill="#ccccff"/>
<path transform="matrix(1.00006,0,0,-1.00008,32.20751,30.028443)" stroke-width=".3985" stroke-linecap="butt" stroke-miterlimit="10" stroke-linejoin="miter" fill="none" stroke="#000000" d="M1.7933-34.0165C1.7933-33.02608 .99042-32.22319 0-32.22319-.99042-32.22319-1.7933-33.02608-1.7933-34.0165-1.7933-35.00693-.99042-35.80981 0-35.80981 .99042-35.80981 1.7933-35.00693 1.7933-34.0165ZM0-34.0165"/>
<path transform="matrix(1.00006,0,0,-1.00008,32.20751,30.028443)" stroke-width=".79701" stroke-linecap="butt" stroke-miterlimit="10" stroke-linejoin="miter" fill="none" stroke="#000000" d="M34.0165-17.00824V-.70735"/>
<path transform="matrix(0,-1.00008,-1.00006,-0,66.22605,30.73585)" stroke-width=".6376" stroke-linecap="round" stroke-linejoin="round" fill="none" stroke="#000000" d="M-1.55415 2.0722C-1.42464 1.29512 0 .1295 .38852 0 0-.1295-1.42464-1.29512-1.55415-2.0722"/>
<path transform="matrix(1.00006,0,0,-1.00008,32.20751,30.028443)" d="M28.87209-14.15862H39.16091V-2.8496304H28.87209Z" fill="#ffffff"/>
<use data-text="1" xlink:href="#font_2_1" transform="matrix(7.3329398,0,0,-7.3330867,64.28143,40.98832)"/>
<path transform="matrix(1.00006,0,0,-1.00008,32.20751,30.028443)" stroke-width=".79701" stroke-linecap="butt" stroke-miterlimit="10" stroke-linejoin="miter" fill="none" stroke="#000000" d="M34.0165 0H65.62471"/>
<path transform="matrix(1.00006,0,0,-1.00008,97.83616,30.028443)" stroke-width=".6376" stroke-linecap="round" stroke-linejoin="round" fill="none" stroke="#000000" d="M-1.55415 2.0722C-1.42464 1.29512 0 .1295 .38852 0 0-.1295-1.42464-1.29512-1.55415-2.0722"/>
<path transform="matrix(1.00006,0,0,-1.00008,32.20751,30.028443)" d="M44.31276-6.55971H56.03581V6.55971H44.31276Z" fill="#ffffff"/>
<use data-text="2" xlink:href="#font_2_2" transform="matrix(10.037002,0,0,-10.037203,79.72237,33.38871)"/>
<path transform="matrix(1.00006,0,0,-1.00008,32.20751,30.028443)" d="M35.80981-17.00824C35.80981-16.01782 35.00693-15.21492 34.0165-15.21492 33.02608-15.21492 32.22319-16.01782 32.22319-17.00824 32.22319-17.99866 33.02608-18.80156 34.0165-18.80156 35.00693-18.80156 35.80981-17.99866 35.80981-17.00824ZM34.0165-17.00824" fill="#ccccff"/>
<path transform="matrix(1.00006,0,0,-1.00008,32.20751,30.028443)" stroke-width=".3985" stroke-linecap="butt" stroke-miterlimit="10" stroke-linejoin="miter" fill="none" stroke="#000000" d="M35.80981-17.00824C35.80981-16.01782 35.00693-15.21492 34.0165-15.21492 33.02608-15.21492 32.22319-16.01782 32.22319-17.00824 32.22319-17.99866 33.02608-18.80156 34.0165-18.80156 35.00693-18.80156 35.80981-17.99866 35.80981-17.00824ZM34.0165-17.00824"/>
<path transform="matrix(1.00006,0,0,-1.00008,32.20751,30.028443)" stroke-width=".79701" stroke-linecap="butt" stroke-miterlimit="10" stroke-linejoin="miter" fill="none" stroke="#000000" d="M68.03302 0V16.30087"/>
<path transform="matrix(0,-1.00008,-1.00006,-0,100.24461,13.726267)" stroke-width=".6376" stroke-linecap="round" stroke-linejoin="round" fill="none" stroke="#000000" d="M-1.55415 2.0722C-1.42464 1.29512 0 .1295 .38852 0 0-.1295-1.42464-1.29512-1.55415-2.0722"/>
<path transform="matrix(1.00006,0,0,-1.00008,32.20751,30.028443)" d="M62.88861 2.84962H73.17743V14.158609H62.88861Z" fill="#ffffff"/>
<use data-text="1" xlink:href="#font_2_1" transform="matrix(7.3329398,0,0,-7.3330867,98.29947,23.978959)"/>
<path transform="matrix(1.00006,0,0,-1.00008,32.20751,30.028443)" stroke-width=".79701" stroke-linecap="butt" stroke-miterlimit="10" stroke-linejoin="miter" fill="none" stroke="#000000" d="M68.03302 17.00824H99.64124"/>
<path transform="matrix(1.00006,0,0,-1.00008,131.85474,13.018843)" stroke-width=".6376" stroke-linecap="round" stroke-linejoin="round" fill="none" stroke="#000000" d="M-1.55415 2.0722C-1.42464 1.29512 0 .1295 .38852 0 0-.1295-1.42464-1.29512-1.55415-2.0722"/>
<path transform="matrix(1.00006,0,0,-1.00008,32.20751,30.028443)" d="M78.32928 10.44853H90.05233V23.567952H78.32928Z" fill="#ffffff"/>
<use data-text="2" xlink:href="#font_2_2" transform="matrix(10.037002,0,0,-10.037203,113.7414,16.37935)"/>
<path transform="matrix(1.00006,0,0,-1.00008,32.20751,30.028443)" d="M69.82634 0C69.82634 .99042 69.02345 1.7933 68.03302 1.7933 67.0426 1.7933 66.23972 .99042 66.23972 0 66.23972-.99042 67.0426-1.7933 68.03302-1.7933 69.02345-1.7933 69.82634-.99042 69.82634 0ZM68.03302 0" fill="#ccccff"/>
<path transform="matrix(1.00006,0,0,-1.00008,32.20751,30.028443)" stroke-width=".3985" stroke-linecap="butt" stroke-miterlimit="10" stroke-linejoin="miter" fill="none" stroke="#000000" d="M69.82634 0C69.82634 .99042 69.02345 1.7933 68.03302 1.7933 67.0426 1.7933 66.23972 .99042 66.23972 0 66.23972-.99042 67.0426-1.7933 68.03302-1.7933 69.02345-1.7933 69.82634-.99042 69.82634 0ZM68.03302 0"/>
</svg>
