<svg xmlns="http://www.w3.org/2000/svg" xmlns:xlink="http://www.w3.org/1999/xlink" version="1.1" width="106" height="26" viewBox="0 0 106 26">
<defs>
<path id="font_1_1" d="M.42799378 .45222474 .43899537 .49023438H.31199647L.34599305 .6092224 .33399964 .6162262 .23699951 .53923037 .22399903 .49023438H.14299011L.13198853 .45222474H.21499634L.125 .08627319C.10998535 .029266358 .12199402-.01171875 .17199707-.01171875 .2519989-.01171875 .31599427 .054275514 .35598756 .1292572L.33399964 .1462555C.31098939 .10726929 .2599945 .040267946 .22898865 .040267946 .20799256 .040267946 .20799256 .0632782 .21398926 .088272098L.30299378 .45222474H.42799378Z"/>
<path id="font_2_4" d="M.22399903 .2841797H.2809906C.32699586 .2841797 .37199403 .2881775 .40899659 .29716493 .48599244 .3171692 .57398989 .37120057 .57398989 .49627687 .57398989 .57232668 .54100039 .62435916 .49598695 .65237429 .44799806 .68237307 .38398744 .6923828 .31399537 .6923828H.034988405V.66337588C.12298584 .6573639 .125 .655365 .125 .5993347V.09303284C.125 .037002565 .12298584 .035003663 .034988405 .0289917V0H.32998658V.0289917C.22698975 .035003663 .22399903 .037002565 .22399903 .09303284V.2841797M.22399903 .62034609C.22399903 .64837649 .23498535 .65737918 .2999878 .65737918 .40299989 .65737918 .46598817 .5983429 .46598817 .48927308 .46598817 .36419679 .38398744 .3191681 .2979889 .3191681 .23899842 .3191681 .22399903 .321167 .22399903 .35820008V.62034609Z"/>
<path id="font_2_9" d="M.036987306 .47694398V.45195008L.07499695 .4469452C.100997928 .4429474 .10699463 .43795777 .10699463 .40194703V.08699036C.10699463 .035995485 .10398865 .033996583 .03199768 .0289917V0H.27598573V.0289917C.20498657 .033996583 .20098877 .035995485 .20098877 .08699036V.49609376L.19400025 .5020752 .036987306 .47694398M.15299988 .71484377C.116989139 .71484377 .09199524 .6888428 .09199524 .65283206 .09199524 .61782839 .116989139 .5928345 .15299988 .5928345 .18998719 .5928345 .21299744 .61782839 .21398926 .65283206 .21398926 .6888428 .18998719 .71484377 .15299988 .71484377Z"/>
<path id="font_2_7" d="M.44099427 .2627716C.46199037 .2627716 .48098756 .2677765 .48098756 .30078126 .48098756 .35983277 .46199037 .5019531 .2789917 .5019531 .12298584 .5019531 .04899597 .39086915 .04899597 .24082947 .04899597 .08317566 .116989139-.01373291 .27999879-.01171875 .3909912-.010726929 .44799806 .050247194 .47499085 .1290741L.44499208 .14503479C.4169922 .08717346 .3789978 .039276124 .2999878 .039276124 .17599488 .039276124 .15098572 .15901184 .15299988 .2627716H.44099427M.1539917 .30078126C.1539917 .34181214 .16899109 .46694947 .272995 .46694947 .3659973 .46694947 .3769989 .37184144 .3769989 .33280946 .3769989 .31378175 .37098695 .30078126 .34298707 .30078126H.1539917Z"/>
<path id="font_2_6" d="M.2999878 .040267946C.18099976 .040267946 .15299988 .16418457 .15299988 .25810243 .15299988 .40699769 .21199036 .46694947 .2809906 .46694947 .32699586 .46694947 .35598756 .43397523 .37599183 .38000489 .38198854 .36402894 .3880005 .35403443 .40699769 .35403443 .4269867 .35403443 .46598817 .36701966 .46598817 .40499879 .46598817 .45095826 .3999939 .5019531 .2919922 .5019531 .10998535 .5019531 .04899597 .37301637 .04899597 .2401123 .04899597 .07324219 .1309967-.01171875 .2809906-.01171875 .35099793-.01171875 .44499208 .025268555 .47299195 .13220215L.44400025 .14619446C.41299439 .07624817 .37298585 .040267946 .2999878 .040267946Z"/>
<path id="font_2_1" d="M.43699647 0V.0289917L.35299684 .035995485C.33198548 .037994386 .31999208 .04598999 .31999208 .08496094V.67367556L.31498719 .6796875 .10899353 .6446991V.6197052L.20199585 .6087036C.21899414 .6067047 .22599793 .5987091 .22599793 .56973269V.08496094C.22599793 .065979007 .22299195 .053985597 .21699524 .04698181 .21199036 .039993287 .20399475 .036987306 .19299317 .035995485L.10899353 .0289917V0H.43699647Z"/>
<path id="font_2_5" d="M.29299928 .32617188C.35299684 .32617188 .39898683 .30715943 .41600038 .23912049 .4229889 .21110535 .43399049 .13204956 .44499208 .08602905 .45999146 .021987915 .49798585 0 .5569916 0H.6380005V.0289917C.55999758 .037002565 .5439911 .09303284 .5349884 .16107178 .522995 .25012208 .5049896 .31715394 .39898683 .34317018V.34516908C.49299623 .36315919 .56199648 .4262085 .56199648 .521286 .56199648 .61735537 .5019989 .6923828 .32699586 .6923828H.034988405V.66337588C.12298584 .65737918 .125 .655365 .125 .5993347V.09303284C.125 .037002565 .12298584 .034988405 .034988405 .0289917V0H.31399537V.0289917C.22698975 .034988405 .22399903 .037002565 .22399903 .09303284V.32617188H.29299928M.22399903 .36116029V.6073456C.22399903 .6493683 .23098755 .65737918 .29699708 .65737918 .37098695 .65737918 .45498658 .63035586 .45498658 .51226809 .45498658 .40719605 .3999939 .36116029 .30299378 .36116029H.22399903Z"/>
<path id="font_2_8" d="M.2599945 .46694947C.30899049 .46694947 .3600006 .43093873 .3600006 .33392335 .3600006 .24989319 .31599427 .20588684 .2579956 .20588684 .20199585 .20588684 .15499878 .24989319 .15499878 .33392335 .15499878 .43293763 .20698548 .46694947 .2599945 .46694947M.2809906-.2071991C.19599915-.2071991 .13699341-.16319275 .13699341-.09118652 .13699341-.057174684 .14698792-.032180787 .16799927-.016174317 .18998719 .0008239746 .22299195 .0068359377 .2709961 .0068359377 .35899354 .0068359377 .42399598-.014175415 .42399598-.08918762 .42399598-.16918946 .35198976-.2071991 .2809906-.2071991M.3889923 .47094728C.36099244 .48994447 .30599977 .5019531 .2599945 .5019531 .10699463 .5019531 .052993776 .40792848 .052993776 .33392335 .052993776 .23989868 .114990238 .19688416 .16099549 .18489075V.18289185C.10699463 .1618805 .068984989 .13285828 .068984989 .09384155 .068984989 .05882263 .10899353 .020828248 .15699768 .015823365V.013824463C.11399841-.00016784668 .041992189-.024169922 .041992189-.09617615 .041992189-.19718933 .14199829-.2421875 .2579956-.2421875 .31799317-.2421875 .3809967-.23019409 .42900086-.20118714 .47499085-.17318726 .5079956-.12619019 .5079956-.06417847 .5079956 .043823244 .42199708 .081832889 .31498719 .081832889H.23498535C.16299439 .081832889 .1519928 .10585022 .1519928 .12486267 .1519928 .15388489 .18998719 .16989136 .20298767 .17388916 .22200012 .17189026 .24299622 .17089844 .2539978 .17089844 .34899903 .17089844 .45599366 .21289063 .45599366 .33392335 .45599366 .3759308 .44299317 .41093446 .42599488 .42793275L.5049896 .4399414 .5249939 .50294497 .5169983 .51194766 .3889923 .47094728Z"/>
<path id="font_2_11" d="M.28799439 .5019531C.12799073 .5019531 .04899597 .40698243 .04899597 .24510193 .04899597 .083236698 .12799073-.01171875 .28799439-.01171875 .44999696-.01171875 .5279999 .083236698 .5279999 .24510193 .5279999 .40698243 .44999696 .5019531 .28799439 .5019531M.15299988 .24510193C.15299988 .38301087 .19699097 .46694947 .28799439 .46694947 .3809967 .46694947 .42399598 .38301087 .42399598 .24510193 .42399598 .10720825 .3809967 .023269654 .28799439 .023269654 .19699097 .023269654 .15299988 .10720825 .15299988 .24510193Z"/>
<path id="font_2_10" d="M.5289917 .34295655C.5289917 .4439392 .47399903 .5019531 .38198854 .5019531 .30799867 .5019531 .2619934 .46594239 .19999695 .4259491L.18598938 .5019531 .036987306 .47694398V.45195008L.07499695 .4469452C.100997928 .4429474 .10699463 .4379425 .10699463 .40194703V.08699036C.10699463 .035995485 .10398865 .033996583 .03199768 .0289917V0H.27598573V.0289917C.20498657 .033996583 .20098877 .035995485 .20098877 .08699036V.32095338C.20098877 .34596253 .20298767 .35995484 .21099854 .37594605 .23199463 .4149475 .2769928 .44795228 .32998658 .44795228 .397995 .44795228 .43499757 .40994264 .43499757 .32295228V.08699036C.43499757 .035995485 .43199159 .033996583 .3600006 .0289917V0H.60398867V.0289917C.5329895 .033996583 .5289917 .035995485 .5289917 .08699036V.34295655Z"/>
<path id="font_2_2" d="M.4850006 .13195801 .45700074 .13696289C.43598939 .08299255 .41600038 .07598877 .37599183 .07598877H.11999512C.13598633 .1279602 .19499207 .19892884 .28799439 .2658844 .38398744 .33584596 .45799256 .38082887 .45799256 .49276734 .45799256 .63168337 .3659973 .6796875 .26098634 .6796875 .12399292 .6796875 .052993776 .5967102 .052993776 .54473879 .052993776 .51075747 .09098816 .49476625 .10798645 .49476625 .12599182 .49476625 .1329956 .50476077 .13699341 .5217438 .15299988 .5897064 .19198609 .64468386 .2539978 .64468386 .33099366 .64468386 .35299684 .5797119 .35299684 .50675967 .35299684 .3998108 .29899598 .33984376 .21199036 .26289369 .08898926 .15594483 .04598999 .08798218 .026992798 .009994507L.036987306 0H.45098878L.4850006 .13195801Z"/>
<path id="font_2_3" d="M.12998963 .3657837C.12998963 .3487854 .1349945 .33779908 .147995 .33779908 .1599884 .33779908 .18699646 .34777833 .23498535 .34777833 .31999208 .34777833 .36799623 .27090455 .36799623 .18403626 .36799623 .065216068 .30899049 .023269654 .23799134 .023269654 .17199707 .023269654 .1289978 .07319641 .10998535 .12911988 .10398865 .14808655 .09399414 .15707398 .07998657 .15707398 .06199646 .15707398 .026992798 .13809204 .026992798 .10215759 .026992798 .05921936 .09599304-.01171875 .23699951-.01171875 .38198854-.01171875 .47299195 .06121826 .47299195 .18902588 .47299195 .32281495 .35798646 .3627777 .30299378 .3677826V.3717804C.35699464 .38078309 .44400025 .4207611 .44400025 .5197296 .44400025 .6306915 .35699464 .6796875 .25 .6796875 .117996219 .6796875 .052993776 .60369876 .052993776 .5607147 .052993776 .5297241 .08799744 .51272585 .101989749 .51272585 .114990238 .51272585 .12298584 .5197296 .1269989 .5327301 .14898682 .60069277 .18699646 .64468386 .24299622 .64468386 .32199098 .64468386 .34098817 .57470706 .34098817 .51872256 .34098817 .4587555 .31999208 .38378907 .23498535 .38378907 .18699646 .38378907 .1599884 .39378358 .147995 .39378358 .1349945 .39378358 .12998963 .38378907 .12998963 .3657837Z"/>
</defs>
<path transform="matrix(1.00005,0,0,-1.00002,1.3843689,13.082941)" d="M0-11.33855V11.33855H34.01564V-11.33855ZM34.01564 11.33855" fill="#d9d9ec"/>
<path transform="matrix(1.00005,0,0,-1.00002,1.3843689,13.082941)" d="M34.01564-11.33855V11.33855H68.0313V-11.33855ZM68.0313 11.33855" fill="#d9ecd9"/>
<path transform="matrix(1.00005,0,0,-1.00002,1.3843689,13.082941)" d="M68.0313-11.33855V11.33855H102.04694V-11.33855ZM102.04694 11.33855" fill="#ecd9d9"/>
<path transform="matrix(1.00005,0,0,-1.00002,1.3843689,13.082941)" stroke-width=".3985" stroke-linecap="butt" stroke-miterlimit="10" stroke-linejoin="miter" fill="none" stroke="#000000" d="M0 0H101.58865"/>
<path transform="matrix(1.00005,0,0,-1.00002,102.978099,13.082941)" stroke-width=".31879" stroke-linecap="round" stroke-linejoin="round" fill="none" stroke="#000000" d="M-1.19551 1.59401C-1.09587 .99626 0 .09961 .29886 0 0-.09961-1.09587-.99626-1.19551-1.59401"/>
<use data-text="t" xlink:href="#font_1_1" transform="matrix(9.166058,0,0,-9.165783,100.34931,22.131123)"/>
<path transform="matrix(1.00005,0,0,-1.00002,1.3843689,13.082941)" stroke-width=".19925" stroke-linecap="butt" stroke-dasharray="2.98883,2.98883" stroke-miterlimit="10" stroke-linejoin="miter" fill="none" stroke="#000000" d="M34.01564-11.33855V11.33855"/>
<path transform="matrix(1.00005,0,0,-1.00002,1.3843689,13.082941)" stroke-width=".19925" stroke-linecap="butt" stroke-dasharray="2.98883,2.98883" stroke-miterlimit="10" stroke-linejoin="miter" fill="none" stroke="#000000" d="M68.0313-11.33855V11.33855"/>
<use data-text="P" xlink:href="#font_2_4" transform="matrix(7.332866,0,0,-7.332647,6.767639,9.987879)" fill="#000080"/>
<use data-text="i" xlink:href="#font_2_9" transform="matrix(7.332866,0,0,-7.332647,11.167358,9.987879)" fill="#000080"/>
<use data-text="e" xlink:href="#font_2_7" transform="matrix(7.332866,0,0,-7.332647,13.301224,9.987879)" fill="#000080"/>
<use data-text="c" xlink:href="#font_2_6" transform="matrix(7.332866,0,0,-7.332647,17.07032,9.987879)" fill="#000080"/>
<use data-text="e" xlink:href="#font_2_7" transform="matrix(7.332866,0,0,-7.332647,20.707413,9.987879)" fill="#000080"/>
<use data-text="1" xlink:href="#font_2_1" transform="matrix(7.332866,0,0,-7.332647,26.126404,9.987879)" fill="#000080"/>
<use data-text="R" xlink:href="#font_2_5" transform="matrix(7.332866,0,0,-7.332647,4.093506,20.444088)" fill="#000080"/>
<use data-text="e" xlink:href="#font_2_7" transform="matrix(7.332866,0,0,-7.332647,8.669212,20.444088)" fill="#000080"/>
<use data-text="g" xlink:href="#font_2_8" transform="matrix(7.332866,0,0,-7.332647,12.438309,20.444088)" fill="#000080"/>
<use data-text="i" xlink:href="#font_2_9" transform="matrix(7.332866,0,0,-7.332647,16.251397,20.444088)" fill="#000080"/>
<use data-text="o" xlink:href="#font_2_11" transform="matrix(7.332866,0,0,-7.332647,18.385262,20.444088)" fill="#000080"/>
<use data-text="n" xlink:href="#font_2_10" transform="matrix(7.332866,0,0,-7.332647,22.616318,20.444088)" fill="#000080"/>
<use data-text="1" xlink:href="#font_2_1" transform="matrix(7.332866,0,0,-7.332647,28.797928,20.444088)" fill="#000080"/>
<use data-text="P" xlink:href="#font_2_4" transform="matrix(7.332866,0,0,-7.332647,40.785337,9.987879)" fill="#008000"/>
<use data-text="i" xlink:href="#font_2_9" transform="matrix(7.332866,0,0,-7.332647,45.185056,9.987879)" fill="#008000"/>
<use data-text="e" xlink:href="#font_2_7" transform="matrix(7.332866,0,0,-7.332647,47.31892,9.987879)" fill="#008000"/>
<use data-text="c" xlink:href="#font_2_6" transform="matrix(7.332866,0,0,-7.332647,51.088018,9.987879)" fill="#008000"/>
<use data-text="e" xlink:href="#font_2_7" transform="matrix(7.332866,0,0,-7.332647,54.72511,9.987879)" fill="#008000"/>
<use data-text="2" xlink:href="#font_2_2" transform="matrix(7.332866,0,0,-7.332647,60.1441,9.987879)" fill="#008000"/>
<use data-text="R" xlink:href="#font_2_5" transform="matrix(7.332866,0,0,-7.332647,38.111204,20.444088)" fill="#008000"/>
<use data-text="e" xlink:href="#font_2_7" transform="matrix(7.332866,0,0,-7.332647,42.68691,20.444088)" fill="#008000"/>
<use data-text="g" xlink:href="#font_2_8" transform="matrix(7.332866,0,0,-7.332647,46.456007,20.444088)" fill="#008000"/>
<use data-text="i" xlink:href="#font_2_9" transform="matrix(7.332866,0,0,-7.332647,50.269094,20.444088)" fill="#008000"/>
<use data-text="o" xlink:href="#font_2_11" transform="matrix(7.332866,0,0,-7.332647,52.402959,20.444088)" fill="#008000"/>
<use data-text="n" xlink:href="#font_2_10" transform="matrix(7.332866,0,0,-7.332647,56.634016,20.444088)" fill="#008000"/>
<use data-text="2" xlink:href="#font_2_2" transform="matrix(7.332866,0,0,-7.332647,62.815626,20.444088)" fill="#008000"/>
<use data-text="P" xlink:href="#font_2_4" transform="matrix(7.332866,0,0,-7.332647,74.80304,9.987879)" fill="#800000"/>
<use data-text="i" xlink:href="#font_2_9" transform="matrix(7.332866,0,0,-7.332647,79.20276,9.987879)" fill="#800000"/>
<use data-text="e" xlink:href="#font_2_7" transform="matrix(7.332866,0,0,-7.332647,81.336627,9.987879)" fill="#800000"/>
<use data-text="c" xlink:href="#font_2_6" transform="matrix(7.332866,0,0,-7.332647,85.10572,9.987879)" fill="#800000"/>
<use data-text="e" xlink:href="#font_2_7" transform="matrix(7.332866,0,0,-7.332647,88.74281,9.987879)" fill="#800000"/>
<use data-text="3" xlink:href="#font_2_3" transform="matrix(7.332866,0,0,-7.332647,94.161808,9.987879)" fill="#800000"/>
<use data-text="R" xlink:href="#font_2_5" transform="matrix(7.332866,0,0,-7.332647,72.1289,20.444088)" fill="#800000"/>
<use data-text="e" xlink:href="#font_2_7" transform="matrix(7.332866,0,0,-7.332647,76.704608,20.444088)" fill="#800000"/>
<use data-text="g" xlink:href="#font_2_8" transform="matrix(7.332866,0,0,-7.332647,80.4737,20.444088)" fill="#800000"/>
<use data-text="i" xlink:href="#font_2_9" transform="matrix(7.332866,0,0,-7.332647,84.28679,20.444088)" fill="#800000"/>
<use data-text="o" xlink:href="#font_2_11" transform="matrix(7.332866,0,0,-7.332647,86.420658,20.444088)" fill="#800000"/>
<use data-text="n" xlink:href="#font_2_10" transform="matrix(7.332866,0,0,-7.332647,90.65171,20.444088)" fill="#800000"/>
<use data-text="3" xlink:href="#font_2_3" transform="matrix(7.332866,0,0,-7.332647,96.83332,20.444088)" fill="#800000"/>
</svg>
