<svg xmlns="http://www.w3.org/2000/svg" xmlns:xlink="http://www.w3.org/1999/xlink" version="1.1" width="21" height="102" viewBox="0 0 21 102">
<defs>
<path id="font_1_1" d="M.59599307 .38438417C.59799197 .39138795 .598999 .395401 .598999 .39839173 .598999 .4104004 .58999636 .43139649 .5629883 .43139649 .54599 .43139649 .5289917 .4203949 .5219879 .4064026 .5179901 .3993988 .5109863 .3683777 .5059967 .3493805L.4850006 .26634217 .45399476 .14128113C.44699098 .11326599 .44299317 .09725952 .40299989 .059249879 .3919983 .049240114 .3600006 .023223877 .31698609 .023223877 .24299622 .023223877 .24299622 .088256839 .24299622 .10626221 .24299622 .15028382 .25498963 .19529724 .29899598 .3053589 .30899049 .32936097 .31199647 .33636476 .31199647 .35437013 .31199647 .4104004 .2619934 .44140626 .21199036 .44140626 .10998535 .44140626 .06098938 .3093567 .06098938 .28733827 .06098938 .28234864 .06498718 .27334596 .07899475 .27334596 .09298706 .27334596 .09599304 .27934266 .09899902 .28834535 .1269989 .38539125 .17999268 .4084015 .20799256 .4084015 .22799683 .4084015 .23498535 .395401 .23498535 .37239076 .23498535 .3513794 .22200012 .3173523 .21099854 .29034425 .17599488 .20230103 .1639862 .15628052 .1639862 .120269779 .1639862 .025222779 .23498535-.009765625 .31298829-.009765625 .32699586-.009765625 .37399293-.009765625 .4269867 .036239625 .4139862-.01878357 .40499879-.05781555 .35699464-.109817508 .33898927-.12980652 .2939911-.1710968 .23399353-.1710968 .22499085-.1710968 .18199158-.17008972 .15899658-.14382935 .20298767-.13581848 .20899964-.09681702 .20899964-.08781433 .20899964-.060806276 .18699646-.049804689 .16799927-.049804689 .14299011-.049804689 .10998535-.06980896 .10998535-.11581421 .10998535-.16403198 .15699768-.20410156 .23498535-.20410156 .34098817-.20410156 .46899415-.12580872 .5-.00077819827L.59599307 .38438417Z"/>
<path id="font_2_64" d="M.33699037 .17996216V.25097657H.026992798V.17996216H.33699037Z"/>
<path id="font_2_82" d="M.5049896 0V.038986207H.46199037C.35899354 .038986207 .35899354 .051986696 .35899354 .08496094V.63482668C.35899354 .66503909 .35499574 .66503909 .32499696 .66503909 .25898744 .60058596 .15699768 .60058596 .12098694 .60058596V.5615845C.14698792 .5615845 .21299744 .5615845 .272995 .58958438V.08496094C.272995 .051986696 .272995 .038986207 .16999817 .038986207H.1269989V0C.18199158 .0039978029 .2599945 .0039978029 .31599427 .0039978029 .37199403 .0039978029 .44999696 .0039978029 .5049896 0Z"/>
</defs>
<path transform="matrix(1,0,0,-1.00006,10.884003,50.87827)" d="M-8.33386 19.84267V43.65382H8.33386V19.84267ZM8.33386 43.65382" fill="#ffe6e6"/>
<path transform="matrix(1,0,0,-1.00006,10.884003,50.87827)" stroke-width=".3985" stroke-linecap="butt" stroke-miterlimit="10" stroke-linejoin="miter" fill="none" stroke="#ffffff" d="M-8.33386 19.84267V43.65382H8.33386V19.84267ZM8.33386 43.65382"/>
<path transform="matrix(1,0,0,-1.00006,10.884003,50.87827)" d="M-8.33386-19.84267V19.84267H8.33386V-19.84267ZM8.33386 19.84267" fill="#e6fae6"/>
<path transform="matrix(1,0,0,-1.00006,10.884003,50.87827)" stroke-width=".3985" stroke-linecap="butt" stroke-miterlimit="10" stroke-linejoin="miter" fill="none" stroke="#ffffff" d="M-8.33386-19.84267V19.84267H8.33386V-19.84267ZM8.33386 19.84267"/>
<path transform="matrix(1,0,0,-1.00006,10.884003,50.87827)" d="M-8.33386-43.65382V-19.84267H8.33386V-43.65382ZM8.33386-19.84267" fill="#ffe6e6"/>
<path transform="matrix(1,0,0,-1.00006,10.884003,50.87827)" stroke-width=".3985" stroke-linecap="butt" stroke-miterlimit="10" stroke-linejoin="miter" fill="none" stroke="#ffffff" d="M-8.33386-43.65382V-19.84267H8.33386V-43.65382ZM8.33386-19.84267"/>
<path transform="matrix(1,0,0,-1.00006,10.884003,50.87827)" stroke-width=".79701" stroke-linecap="butt" stroke-miterlimit="10" stroke-linejoin="miter" fill="none" stroke="#000000" d="M0-49.60667V48.80966"/>
<path transform="matrix(0,-1.00006,-1,-0,10.884003,1.667141)" stroke-width=".79701" stroke-linecap="round" stroke-linejoin="round" fill="none" stroke="#000000" d="M-2.55046 3.11095C-2.0845 1.24435-1.04614 .36295 0 0-1.04614-.36295-2.0845-1.24435-2.55046-3.11095"/>
<use data-text="y" xlink:href="#font_1_1" transform="matrix(5.9776,0,0,-5.9779589,16.336007,4.8095057)"/>
<path transform="matrix(1,0,0,-1.00006,10.884003,50.87827)" d="M1.39478-19.84267C1.39478-19.07234 .77031-18.44788 0-18.44788-.77031-18.44788-1.39478-19.07234-1.39478-19.84267-1.39478-20.61298-.77031-21.23744 0-21.23744 .77031-21.23744 1.39478-20.61298 1.39478-19.84267ZM0-19.84267"/>
<path transform="matrix(1,0,0,-1.00006,10.884003,50.87827)" stroke-width=".3985" stroke-linecap="butt" stroke-miterlimit="10" stroke-linejoin="miter" fill="none" stroke="#000000" d="M1.39478-19.84267C1.39478-19.07234 .77031-18.44788 0-18.44788-.77031-18.44788-1.39478-19.07234-1.39478-19.84267-1.39478-20.61298-.77031-21.23744 0-21.23744 .77031-21.23744 1.39478-20.61298 1.39478-19.84267ZM0-19.84267"/>
<path transform="matrix(1,0,0,-1.00006,10.884003,50.87827)" stroke-width=".3985" stroke-linecap="butt" stroke-miterlimit="10" stroke-linejoin="miter" fill="none" stroke="#000000" d="M0-19.84267"/>
<use data-text="-" xlink:href="#font_2_64" transform="matrix(5.9776,0,0,-5.9779589,.90400698,72.70958)"/>
<use data-text="1" xlink:href="#font_2_82" transform="matrix(5.9776,0,0,-5.9779589,3.3966675,72.70958)"/>
<path transform="matrix(1,0,0,-1.00006,10.884003,50.87827)" d="M1.39478 19.84267C1.39478 20.61298 .77031 21.23744 0 21.23744-.77031 21.23744-1.39478 20.61298-1.39478 19.84267-1.39478 19.07234-.77031 18.44788 0 18.44788 .77031 18.44788 1.39478 19.07234 1.39478 19.84267ZM0 19.84267"/>
<path transform="matrix(1,0,0,-1.00006,10.884003,50.87827)" stroke-width=".3985" stroke-linecap="butt" stroke-miterlimit="10" stroke-linejoin="miter" fill="none" stroke="#000000" d="M1.39478 19.84267C1.39478 20.61298 .77031 21.23744 0 21.23744-.77031 21.23744-1.39478 20.61298-1.39478 19.84267-1.39478 19.07234-.77031 18.44788 0 18.44788 .77031 18.44788 1.39478 19.07234 1.39478 19.84267ZM0 19.84267"/>
<path transform="matrix(1,0,0,-1.00006,10.884003,50.87827)" stroke-width=".3985" stroke-linecap="butt" stroke-miterlimit="10" stroke-linejoin="miter" fill="none" stroke="#000000" d="M0 19.84267"/>
<use data-text="1" xlink:href="#font_2_82" transform="matrix(5.9776,0,0,-5.9779589,3.3960038,33.0222)"/>
<path transform="matrix(1,0,0,-1.00006,10.884003,50.87827)" d="M0-35.71686V-31.4814" fill="#ffffff"/>
<path transform="matrix(1,0,0,-1.00006,10.884003,50.87827)" stroke-width=".79701" stroke-linecap="butt" stroke-miterlimit="10" stroke-linejoin="miter" fill="none" stroke="#409f9f" d="M0-35.71686V-31.4814"/>
<path transform="matrix(0,1.00006,1,0,10.884003,80.06712)" d="M5.83896 0 1.11029 1.78986 2.49355 0 1.11029-1.78986Z" fill="#409f9f"/>
<path transform="matrix(0,1.00006,1,0,10.884003,80.06712)" stroke-width=".79701" stroke-linecap="butt" stroke-miterlimit="10" stroke-linejoin="miter" fill="none" stroke="#409f9f" d="M5.83896 0 1.11029 1.78986 2.49355 0 1.11029-1.78986Z"/>
<path transform="matrix(1,0,0,-1.00006,10.884003,50.87827)" d="M0 3.96846V-.52103" fill="#ffffff"/>
<path transform="matrix(1,0,0,-1.00006,10.884003,50.87827)" stroke-width=".79701" stroke-linecap="butt" stroke-miterlimit="10" stroke-linejoin="miter" fill="none" stroke="#409f9f" d="M0 3.96846V-.52103"/>
<path transform="matrix(0,-1.00006,-1,-0,10.884003,53.693758)" d="M5.83896 0 1.11029 1.78986 2.49355 0 1.11029-1.78986Z" fill="#409f9f"/>
<path transform="matrix(0,-1.00006,-1,-0,10.884003,53.693758)" stroke-width=".79701" stroke-linecap="butt" stroke-miterlimit="10" stroke-linejoin="miter" fill="none" stroke="#409f9f" d="M5.83896 0 1.11029 1.78986 2.49355 0 1.11029-1.78986Z"/>
<path transform="matrix(1,0,0,-1.00006,10.884003,50.87827)" d="M0 31.74838V36.1189" fill="#ffffff"/>
<path transform="matrix(1,0,0,-1.00006,10.884003,50.87827)" stroke-width=".79701" stroke-linecap="butt" stroke-miterlimit="10" stroke-linejoin="miter" fill="none" stroke="#409f9f" d="M0 31.74838V36.1189"/>
<path transform="matrix(0,1.00006,1,0,10.884003,12.462765)" d="M5.83896 0 1.11029 1.78986 2.49355 0 1.11029-1.78986Z" fill="#409f9f"/>
<path transform="matrix(0,1.00006,1,0,10.884003,12.462765)" stroke-width=".79701" stroke-linecap="butt" stroke-miterlimit="10" stroke-linejoin="miter" fill="none" stroke="#409f9f" d="M5.83896 0 1.11029 1.78986 2.49355 0 1.11029-1.78986Z"/>
</svg>
