<svg xmlns="http://www.w3.org/2000/svg" xmlns:xlink="http://www.w3.org/1999/xlink" version="1.1" width="117" height="110" viewBox="0 0 117 110">
<defs>
<path id="font_1_1" d="M.43199159 .49023438H.3019867L.32998658 .6031952C.34899903 .67918398 .36799623 .70718386 .3959961 .70718386 .4229889 .70718386 .44099427 .68518069 .46299745 .6371918 .46798707 .62719729 .47499085 .6201935 .48999024 .6201935 .5099945 .6201935 .5389862 .6391907 .5389862 .6641846 .5389862 .70718386 .4850006 .7421875 .4249878 .7421875 .3600006 .7421875 .31799317 .71517947 .2849884 .67318728 .2539978 .63420107 .23399353 .5802002 .21998596 .5272217L.20999146 .49023438H.12298584L.11199951 .45222474H.20098877L.084991458-.137146C.07299805-.19918823 .06298828-.2052002 .052993776-.2052002 .041992189-.2052002 .026992798-.19718933 0-.15615845-.007003784-.14616394-.014007568-.13415528-.027008057-.13415528-.04901123-.13415528-.072006229-.15916443-.072006229-.18418885-.071014408-.2171936-.028015137-.2421875 .018997193-.2421875 .11898804-.2421875 .16099549-.16116333 .20298767 .030960083L.29599 .45222474H.42199708L.43199159 .49023438Z"/>
<path id="font_2_1" d="M.1749878 .2822113C.1749878 .56832888 .2619934 .65437319 .32499696 .66737368V.6923828C.1499939 .685379 .10499573 .46829225 .10499573 .2822113 .10499573 .09614563 .1499939-.12094116 .32499696-.12792969V-.10293579C.2669983-.090927127 .1749878-.0059051516 .1749878 .2822113Z"/>
<path id="font_1_3" d="M.070999149 .45393373 .07398987 .42893983 .14199829 .43093873C.1639862 .43193055 .16899109 .41493226 .1769867 .36291505 .18798828 .28489686 .20999146 .09286499 .20999146 .0128479 .20999146-.017166138 .20799256-.058166505 .18598938-.11117554 .16799927-.15318299 .14199829-.18218994 .12199402-.18218994 .10699463-.18218994 .09599304-.17118836 .08099365-.15118408 .068984989-.13517761 .06098938-.127182 .04598999-.127182 .019989014-.12818909-.005004883-.15818787-.005004883-.18719483-.005004883-.21418762 .023986817-.2421875 .067993167-.2421875 .15299988-.2421875 .18998719-.17919922 .27799989-.027160645 .2979889 .0068511965 .35798646 .11286926 .41999818 .21488953 .47698976 .30891419 .5399933 .40592958 .5399933 .4459381 .5399933 .48094178 .5289917 .5019531 .5219879 .5019531 .5029907 .5019531 .46899415 .49394227 .44400025 .47694398 .44499208 .4419403 .44299317 .3809204 .43099977 .33891297 .4149933 .28289796 .35598756 .17488098 .2899933 .06085205H.2869873C.27999879 .21388245 .26098634 .42492677 .24699402 .49795533L.23899842 .5019531 .070999149 .45393373Z"/>
<path id="font_2_2" d="M.1749878 .2822113C.1749878-.0059051516 .08299255-.090927127 .024993897-.10293579V-.12792969C.19999695-.12094116 .24499512 .09614563 .24499512 .2822113 .24499512 .46829225 .19999695 .685379 .024993897 .6923828V.66737368C.08799744 .65437319 .1749878 .56832888 .1749878 .2822113Z"/>
<path id="font_1_2" d="M.42799378 .45222474 .43899537 .49023438H.31199647L.34599305 .6092224 .33399964 .6162262 .23699951 .53923037 .22399903 .49023438H.14299011L.13198853 .45222474H.21499634L.125 .08627319C.10998535 .029266358 .12199402-.01171875 .17199707-.01171875 .2519989-.01171875 .31599427 .054275514 .35598756 .1292572L.33399964 .1462555C.31098939 .10726929 .2599945 .040267946 .22898865 .040267946 .20799256 .040267946 .20799256 .0632782 .21398926 .088272098L.30299378 .45222474H.42799378Z"/>
<path id="font_2_3" d="M.2649994 .64468386C.3600006 .64468386 .3869934 .49682618 .3869934 .33398438 .3869934 .17112732 .3600006 .023269654 .2649994 .023269654 .16999817 .023269654 .14299011 .17112732 .14299011 .33398438 .14299011 .49682618 .16999817 .64468386 .2649994 .64468386M.2649994 .6796875C.099990848 .6796875 .040985109 .53378298 .040985109 .33398438 .040985109 .13417053 .099990848-.01171875 .2649994-.01171875 .42999269-.01171875 .4889984 .13417053 .4889984 .33398438 .4889984 .53378298 .42999269 .6796875 .2649994 .6796875Z"/>
<path id="font_2_4" d="M.43699647 0V.0289917L.35299684 .035995485C.33198548 .037994386 .31999208 .04598999 .31999208 .08496094V.67367556L.31498719 .6796875 .10899353 .6446991V.6197052L.20199585 .6087036C.21899414 .6067047 .22599793 .5987091 .22599793 .56973269V.08496094C.22599793 .065979007 .22299195 .053985597 .21699524 .04698181 .21199036 .039993287 .20399475 .036987306 .19299317 .035995485L.10899353 .0289917V0H.43699647Z"/>
<path id="font_2_5" d="M.4850006 .13195801 .45700074 .13696289C.43598939 .08299255 .41600038 .07598877 .37599183 .07598877H.11999512C.13598633 .1279602 .19499207 .19892884 .28799439 .2658844 .38398744 .33584596 .45799256 .38082887 .45799256 .49276734 .45799256 .63168337 .3659973 .6796875 .26098634 .6796875 .12399292 .6796875 .052993776 .5967102 .052993776 .54473879 .052993776 .51075747 .09098816 .49476625 .10798645 .49476625 .12599182 .49476625 .1329956 .50476077 .13699341 .5217438 .15299988 .5897064 .19198609 .64468386 .2539978 .64468386 .33099366 .64468386 .35299684 .5797119 .35299684 .50675967 .35299684 .3998108 .29899598 .33984376 .21199036 .26289369 .08898926 .15594483 .04598999 .08798218 .026992798 .009994507L.036987306 0H.45098878L.4850006 .13195801Z"/>
</defs>
<path transform="matrix(1.00002,0,0,-1.00006,15.389694,58.38272)" stroke-width=".3985" stroke-linecap="butt" stroke-miterlimit="10" stroke-linejoin="miter" fill="none" stroke="#000000" d="M0 0 56.32875 28.16383"/>
<path transform="matrix(.8943979,-.4471968,-.44717894,-.8944336,71.897769,30.128098)" stroke-width=".3985" stroke-linecap="round" stroke-linejoin="round" fill="none" stroke="#000000" d="M-2.07224 2.39104C-1.69365 .95639-.84999 .27895 0 0-.84999-.27895-1.69365-.95639-2.07224-2.39104"/>
<path transform="matrix(1.00002,0,0,-1.00006,15.389694,58.38272)" stroke-width=".3985" stroke-linecap="butt" stroke-miterlimit="10" stroke-linejoin="miter" fill="none" stroke="#000000" d="M0-49.88289V56.28665"/>
<path transform="matrix(0,-1.00006,-1.00002,-0,15.389694,1.8934326)" stroke-width=".3985" stroke-linecap="round" stroke-linejoin="round" fill="none" stroke="#000000" d="M-2.07224 2.39104C-1.69365 .95639-.84999 .27895 0 0-.84999-.27895-1.69365-.95639-2.07224-2.39104"/>
<use data-text="f" xlink:href="#font_1_1" transform="matrix(5.4995105,0,0,-5.49973,1.6914139,5.908573)"/>
<use data-text="(" xlink:href="#font_2_1" transform="matrix(5.4995105,0,0,-5.49973,4.7634737,5.908573)"/>
<use data-text="y" xlink:href="#font_1_3" transform="matrix(5.4995105,0,0,-5.49973,6.9875185,5.908573)"/>
<use data-text=")" xlink:href="#font_2_2" transform="matrix(5.4995105,0,0,-5.49973,10.065582,5.908573)"/>
<path transform="matrix(1.00002,0,0,-1.00006,15.389694,58.38272)" stroke-width=".79701" stroke-linecap="butt" stroke-miterlimit="10" stroke-linejoin="miter" fill="none" stroke="#ec008c" d="M0 22.67406 .22867 22.78596 .45735 22.8934 .68605 22.99597 .91475 23.09439 1.14343 23.18799 1.37212 23.27672 1.60081 23.36131 1.82951 23.44107 2.0582 23.51596 2.2869 23.58673 2.51558 23.65262 2.74428 23.71368 2.97298 23.7706 3.20166 23.82266 3.43034 23.86987 3.65904 23.91296 3.88774 23.95119 4.11642 23.98456 4.34512 24.01381 4.57382 24.0382 4.8025 24.05774 5.03119 24.07312 5.2599 24.08368 5.48859 24.0894 5.71727 24.09093 5.94597 24.08765 6.17467 24.07953 6.40335 24.06723 6.63205 24.05011 6.86073 24.02814 7.08943 24.00201 7.31812 23.97105 7.54681 23.93523 7.7755 23.89526 8.0042 23.85046 8.2329 23.8008 8.46158 23.74701 8.69028 23.68837 8.91898 23.62486 9.14766 23.5569 9.37634 23.48442 9.60504 23.40742 9.83374 23.3256 10.06242 23.23927 10.29112 23.14845 10.51982 23.0528 10.7485 22.95262 10.97719 22.84796 11.20589 22.73846 11.43459 22.62447 11.66327 22.50595 11.89197 22.38261 12.12065 22.25478 12.34935 22.12244 12.57805 21.98526 12.80673 21.84358 13.03543 21.6974 13.26411 21.54639 13.49281 21.39085 13.7215 21.23083 13.9502 21.06598 14.1789 20.89662 14.40758 20.72275 14.63626 20.54405 14.86497 20.36087 15.09366 20.17317 15.32234 19.98062 15.55104 19.78358 15.77974 19.58173 16.00842 19.37566 16.23712 19.16481 16.4658 18.94908 16.6945 18.72919 16.92319 18.5045 17.15189 18.27493 17.38058 18.04121 17.60927 17.80266 17.83797 17.55925 18.06665 17.31137 18.29535 17.05898 18.52405 16.80208 18.75273 16.54034 18.98141 16.27411 19.21011 16.00339 19.43881 15.72781 19.6675 15.44774 19.8962 15.16316 20.1249 14.87376 20.35358 14.57986 20.58226 14.28143 20.81096 13.97818 21.03966 13.67044 21.26834 13.35818 21.49704 13.0411 21.72574 12.7195 21.95442 12.39307 22.18312 12.06248 22.4118 11.72705 22.6405 11.3868"/>
<path transform="matrix(1.00002,0,0,-1.00006,15.389694,58.38272)" stroke-width=".3985" stroke-linecap="butt" stroke-miterlimit="10" stroke-linejoin="miter" fill="none" stroke="#cbcbcb" d="M4.53473-2.2673 54.41762 22.67459"/>
<path transform="matrix(1.00002,0,0,-1.00006,15.389694,58.38272)" stroke-width=".3985" stroke-linecap="butt" stroke-miterlimit="10" stroke-linejoin="miter" fill="none" stroke="#cbcbcb" d="M9.06947-4.53464 58.95236 20.40727"/>
<path transform="matrix(1.00002,0,0,-1.00006,15.389694,58.38272)" stroke-width=".3985" stroke-linecap="butt" stroke-miterlimit="10" stroke-linejoin="miter" fill="none" stroke="#cbcbcb" d="M13.60422-6.80197 63.4871 18.13994"/>
<path transform="matrix(1.00002,0,0,-1.00006,15.389694,58.38272)" stroke-width=".3985" stroke-linecap="butt" stroke-miterlimit="10" stroke-linejoin="miter" fill="none" stroke="#cbcbcb" d="M18.13896-9.06929 68.02185 15.8726"/>
<path transform="matrix(1.00002,0,0,-1.00006,15.389694,58.38272)" stroke-width=".3985" stroke-linecap="butt" stroke-miterlimit="10" stroke-linejoin="miter" fill="none" stroke="#cbcbcb" d="M22.6737-11.33662 72.55661 13.60527"/>
<path transform="matrix(1.00002,0,0,-1.00006,15.389694,58.38272)" stroke-width=".3985" stroke-linecap="butt" stroke-miterlimit="10" stroke-linejoin="miter" fill="none" stroke="#cbcbcb" d="M27.20845-13.60396 77.09134 11.33795"/>
<path transform="matrix(1.00002,0,0,-1.00006,15.389694,58.38272)" stroke-width=".3985" stroke-linecap="butt" stroke-miterlimit="10" stroke-linejoin="miter" fill="none" stroke="#cbcbcb" d="M31.7432-15.87128 81.62608 9.07062"/>
<path transform="matrix(1.00002,0,0,-1.00006,15.389694,58.38272)" stroke-width=".3985" stroke-linecap="butt" stroke-miterlimit="10" stroke-linejoin="miter" fill="none" stroke="#cbcbcb" d="M36.27794-18.13861 86.16083 6.80328"/>
<path transform="matrix(1.00002,0,0,-1.00006,15.389694,58.38272)" stroke-width=".3985" stroke-linecap="butt" stroke-miterlimit="10" stroke-linejoin="miter" fill="none" stroke="#cbcbcb" d="M40.81268-20.40594 90.69557 4.53596"/>
<path transform="matrix(1.00002,0,0,-1.00006,15.389694,58.38272)" stroke-width=".3985" stroke-linecap="butt" stroke-miterlimit="10" stroke-linejoin="miter" fill="none" stroke="#cbcbcb" d="M45.34743-22.6733 95.23032 2.26862"/>
<path transform="matrix(1.00002,0,0,-1.00006,15.389694,58.38272)" stroke-width=".3985" stroke-linecap="butt" stroke-miterlimit="10" stroke-linejoin="miter" fill="none" stroke="#cbcbcb" d="M4.53473 2.2674 54.41762-22.67354"/>
<path transform="matrix(1.00002,0,0,-1.00006,15.389694,58.38272)" stroke-width=".3985" stroke-linecap="butt" stroke-miterlimit="10" stroke-linejoin="miter" fill="none" stroke="#cbcbcb" d="M9.06947 4.53482 58.95236-20.40613"/>
<path transform="matrix(1.00002,0,0,-1.00006,15.389694,58.38272)" stroke-width=".3985" stroke-linecap="butt" stroke-miterlimit="10" stroke-linejoin="miter" fill="none" stroke="#cbcbcb" d="M13.60422 6.80223 63.4871-18.13872"/>
<path transform="matrix(1.00002,0,0,-1.00006,15.389694,58.38272)" stroke-width=".3985" stroke-linecap="butt" stroke-miterlimit="10" stroke-linejoin="miter" fill="none" stroke="#cbcbcb" d="M18.13896 9.06964 68.02185-15.87129"/>
<path transform="matrix(1.00002,0,0,-1.00006,15.389694,58.38272)" stroke-width=".3985" stroke-linecap="butt" stroke-miterlimit="10" stroke-linejoin="miter" fill="none" stroke="#cbcbcb" d="M22.6737 11.33707 72.55661-13.60388"/>
<path transform="matrix(1.00002,0,0,-1.00006,15.389694,58.38272)" stroke-width=".3985" stroke-linecap="butt" stroke-miterlimit="10" stroke-linejoin="miter" fill="none" stroke="#cbcbcb" d="M27.20845 13.60448 77.09134-11.33647"/>
<path transform="matrix(1.00002,0,0,-1.00006,15.389694,58.38272)" stroke-width=".3985" stroke-linecap="butt" stroke-miterlimit="10" stroke-linejoin="miter" fill="none" stroke="#cbcbcb" d="M31.7432 15.87189 81.62608-9.06905"/>
<path transform="matrix(1.00002,0,0,-1.00006,15.389694,58.38272)" stroke-width=".3985" stroke-linecap="butt" stroke-miterlimit="10" stroke-linejoin="miter" fill="none" stroke="#cbcbcb" d="M36.27794 18.13931 86.16083-6.80164"/>
<path transform="matrix(1.00002,0,0,-1.00006,15.389694,58.38272)" stroke-width=".3985" stroke-linecap="butt" stroke-miterlimit="10" stroke-linejoin="miter" fill="none" stroke="#cbcbcb" d="M40.81268 20.40672 90.69557-4.53423"/>
<path transform="matrix(1.00002,0,0,-1.00006,15.389694,58.38272)" stroke-width=".3985" stroke-linecap="butt" stroke-miterlimit="10" stroke-linejoin="miter" fill="none" stroke="#cbcbcb" d="M45.34743 22.67413 95.23032-2.2668"/>
<path transform="matrix(1.00002,0,0,-1.00006,15.389694,58.38272)" stroke-width=".3985" stroke-linecap="butt" stroke-miterlimit="10" stroke-linejoin="miter" fill="none" stroke="#000000" d="M0 0 56.32875-28.16383"/>
<path transform="matrix(.8943979,.4471968,.44717894,-.8944336,71.897769,86.637348)" stroke-width=".3985" stroke-linecap="round" stroke-linejoin="round" fill="none" stroke="#000000" d="M-2.07224 2.39104C-1.69365 .95639-.84999 .27895 0 0-.84999-.27895-1.69365-.95639-2.07224-2.39104"/>
<use data-text="t" xlink:href="#font_1_2" transform="matrix(5.4995105,0,0,-5.49973,68.06875,93.51483)"/>
<path transform="matrix(1.00002,0,0,-1.00006,15.389694,58.38272)" stroke-width=".3985" stroke-linecap="butt" stroke-miterlimit="10" stroke-linejoin="miter" fill="none" stroke="#000000" d="M0 0 56.32875 28.1649"/>
<path transform="matrix(.8943979,-.44722683,-.44720898,-.8944336,71.897769,30.127028)" stroke-width=".3985" stroke-linecap="round" stroke-linejoin="round" fill="none" stroke="#000000" d="M-2.07224 2.39104C-1.69365 .95639-.84999 .27895 0 0-.84999-.27895-1.69365-.95639-2.07224-2.39104"/>
<use data-text="y" xlink:href="#font_1_3" transform="matrix(5.4995105,0,0,-5.49973,65.598697,33.557237)"/>
<path transform="matrix(1.00002,0,0,-1.00006,15.389694,58.38272)" stroke-width=".3985" stroke-linecap="butt" stroke-miterlimit="10" stroke-linejoin="miter" fill="none" stroke="#cbcbcb" d="M0 0 49.88289 24.94191 99.76578 .00095 49.88289-24.94095ZM99.76578 .00095"/>
<path transform="matrix(1.00002,0,0,-1.00006,15.389694,58.38272)" stroke-width=".3985" stroke-linecap="butt" stroke-miterlimit="10" stroke-linejoin="miter" fill="none" stroke="#000000" d="M-1.36037-.68019 1.36037 .68019"/>
<use data-text="0" xlink:href="#font_2_3" transform="matrix(5.4995105,0,0,-5.49973,15.291695,64.7841)"/>
<path transform="matrix(1.00002,0,0,-1.00006,15.389694,58.38272)" stroke-width=".3985" stroke-linecap="butt" stroke-miterlimit="10" stroke-linejoin="miter" fill="none" stroke="#000000" d="M21.31369-12.017 24.03444-10.65662"/>
<use data-text="1" xlink:href="#font_2_4" transform="matrix(5.4995105,0,0,-5.49973,37.96615,76.12179)"/>
<path transform="matrix(1.00002,0,0,-1.00006,15.389694,58.38272)" stroke-width=".3985" stroke-linecap="butt" stroke-miterlimit="10" stroke-linejoin="miter" fill="none" stroke="#000000" d="M43.98775-23.35382 46.70851-21.99342"/>
<use data-text="2" xlink:href="#font_2_5" transform="matrix(5.4995105,0,0,-5.49973,60.640604,87.459468)"/>
<path transform="matrix(1.00002,0,0,-1.00006,15.389694,58.38272)" stroke-width=".3985" stroke-linecap="butt" stroke-miterlimit="10" stroke-linejoin="miter" fill="none" stroke="#000000" d="M-1.36037 .68016 2.26753-1.13374"/>
<use data-text="0" xlink:href="#font_2_3" transform="matrix(5.4995105,0,0,-5.49973,11.341614,61.3429)"/>
<path transform="matrix(1.00002,0,0,-1.00006,15.389694,58.38272)" stroke-width=".3985" stroke-linecap="butt" stroke-miterlimit="10" stroke-linejoin="miter" fill="none" stroke="#000000" d="M21.31369 12.0174 24.9416 10.20349"/>
<use data-text="1" xlink:href="#font_2_4" transform="matrix(5.4995105,0,0,-5.49973,34.016069,50.020219)"/>
<path transform="matrix(1.00002,0,0,-1.00006,15.389694,58.38272)" stroke-width=".3985" stroke-linecap="butt" stroke-miterlimit="10" stroke-linejoin="miter" fill="none" stroke="#000000" d="M43.98775 23.35466 47.61568 21.54074"/>
<use data-text="2" xlink:href="#font_2_5" transform="matrix(5.4995105,0,0,-5.49973,56.69052,38.68154)"/>
<path transform="matrix(1.00002,0,0,-1.00006,15.389694,58.38272)" stroke-width=".79701" stroke-linecap="butt" stroke-miterlimit="10" stroke-linejoin="miter" fill="none" stroke="#409f9f" d="M6.34525 .02773 11.79367-.02754"/>
<path transform="matrix(1.00002,0,0,-1.00006,15.389694,58.38272)" stroke-width=".79701" stroke-linecap="butt" stroke-miterlimit="10" stroke-linejoin="miter" fill="none" stroke="#409f9f" d="M10.89142 2.38599 16.317 2.14902"/>
<path transform="matrix(1.00002,0,0,-1.00006,15.389694,58.38272)" stroke-width=".79701" stroke-linecap="butt" stroke-miterlimit="10" stroke-linejoin="miter" fill="none" stroke="#409f9f" d="M15.47841 4.82689 20.79948 4.24292"/>
<path transform="matrix(1.00002,0,0,-1.00006,15.389694,58.38272)" stroke-width=".79701" stroke-linecap="butt" stroke-miterlimit="10" stroke-linejoin="miter" fill="none" stroke="#409f9f" d="M20.21037 7.38219 25.13702 6.22249"/>
<path transform="matrix(1.00002,0,0,-1.00006,15.389694,58.38272)" stroke-width=".79701" stroke-linecap="butt" stroke-miterlimit="10" stroke-linejoin="miter" fill="none" stroke="#409f9f" d="M25.28137 10.03326 29.13553 8.10623"/>
<path transform="matrix(1.00002,0,0,-1.00006,15.389694,58.38272)" stroke-width=".79701" stroke-linecap="butt" stroke-miterlimit="10" stroke-linejoin="miter" fill="none" stroke="#409f9f" d="M30.75612 12.60635 32.73024 10.06796"/>
<path transform="matrix(1.00002,0,0,-1.00006,15.389694,58.38272)" stroke-width=".79701" stroke-linecap="butt" stroke-miterlimit="10" stroke-linejoin="miter" fill="none" stroke="#409f9f" d="M36.22258 14.96667 36.33328 12.24248"/>
<path transform="matrix(1.00002,0,0,-1.00006,15.389694,58.38272)" stroke-width=".79701" stroke-linecap="butt" stroke-miterlimit="10" stroke-linejoin="miter" fill="none" stroke="#409f9f" d="M41.3953 17.20296 40.23004 14.54103"/>
<path transform="matrix(1.00002,0,0,-1.00006,15.389694,58.38272)" stroke-width=".79701" stroke-linecap="butt" stroke-miterlimit="10" stroke-linejoin="miter" fill="none" stroke="#409f9f" d="M46.32204 19.41173 44.3728 16.86708"/>
<path transform="matrix(1.00002,0,0,-1.00006,15.389694,58.38272)" stroke-width=".79701" stroke-linecap="butt" stroke-miterlimit="10" stroke-linejoin="miter" fill="none" stroke="#409f9f" d="M51.10104 21.62552 48.66328 19.18813"/>
<path transform="matrix(1.00002,0,0,-1.00006,15.389694,58.38272)" stroke-width=".79701" stroke-linecap="butt" stroke-miterlimit="10" stroke-linejoin="miter" fill="none" stroke="#409f9f" d="M10.88-2.2396 16.32841-2.29486"/>
<path transform="matrix(1.00002,0,0,-1.00006,15.389694,58.38272)" stroke-width=".79701" stroke-linecap="butt" stroke-miterlimit="10" stroke-linejoin="miter" fill="none" stroke="#409f9f" d="M15.42616 .11865 20.85176-.1183"/>
<path transform="matrix(1.00002,0,0,-1.00006,15.389694,58.38272)" stroke-width=".79701" stroke-linecap="butt" stroke-miterlimit="10" stroke-linejoin="miter" fill="none" stroke="#409f9f" d="M20.01315 2.55957 25.33424 1.9756"/>
<path transform="matrix(1.00002,0,0,-1.00006,15.389694,58.38272)" stroke-width=".79701" stroke-linecap="butt" stroke-miterlimit="10" stroke-linejoin="miter" fill="none" stroke="#409f9f" d="M24.74512 5.11485 29.67178 3.95515"/>
<path transform="matrix(1.00002,0,0,-1.00006,15.389694,58.38272)" stroke-width=".79701" stroke-linecap="butt" stroke-miterlimit="10" stroke-linejoin="miter" fill="none" stroke="#409f9f" d="M29.81612 7.76595 33.67027 5.8389"/>
<path transform="matrix(1.00002,0,0,-1.00006,15.389694,58.38272)" stroke-width=".79701" stroke-linecap="butt" stroke-miterlimit="10" stroke-linejoin="miter" fill="none" stroke="#409f9f" d="M35.29086 10.33902 37.265 7.80063"/>
<path transform="matrix(1.00002,0,0,-1.00006,15.389694,58.38272)" stroke-width=".79701" stroke-linecap="butt" stroke-miterlimit="10" stroke-linejoin="miter" fill="none" stroke="#409f9f" d="M40.75734 12.69934 40.86803 9.97514"/>
<path transform="matrix(1.00002,0,0,-1.00006,15.389694,58.38272)" stroke-width=".79701" stroke-linecap="butt" stroke-miterlimit="10" stroke-linejoin="miter" fill="none" stroke="#409f9f" d="M45.93005 14.93564 44.76479 12.27371"/>
<path transform="matrix(1.00002,0,0,-1.00006,15.389694,58.38272)" stroke-width=".79701" stroke-linecap="butt" stroke-miterlimit="10" stroke-linejoin="miter" fill="none" stroke="#409f9f" d="M50.85678 17.14441 48.90755 14.59975"/>
<path transform="matrix(1.00002,0,0,-1.00006,15.389694,58.38272)" stroke-width=".79701" stroke-linecap="butt" stroke-miterlimit="10" stroke-linejoin="miter" fill="none" stroke="#409f9f" d="M55.6358 19.35818 53.19804 16.92079"/>
<path transform="matrix(1.00002,0,0,-1.00006,15.389694,58.38272)" stroke-width=".79701" stroke-linecap="butt" stroke-miterlimit="10" stroke-linejoin="miter" fill="none" stroke="#409f9f" d="M15.41473-4.50693 20.86316-4.5622"/>
<path transform="matrix(1.00002,0,0,-1.00006,15.389694,58.38272)" stroke-width=".79701" stroke-linecap="butt" stroke-miterlimit="10" stroke-linejoin="miter" fill="none" stroke="#409f9f" d="M19.9609-2.14865 25.38649-2.38562"/>
<path transform="matrix(1.00002,0,0,-1.00006,15.389694,58.38272)" stroke-width=".79701" stroke-linecap="butt" stroke-miterlimit="10" stroke-linejoin="miter" fill="none" stroke="#409f9f" d="M24.54788 .29224 29.86897-.29172"/>
<path transform="matrix(1.00002,0,0,-1.00006,15.389694,58.38272)" stroke-width=".79701" stroke-linecap="butt" stroke-miterlimit="10" stroke-linejoin="miter" fill="none" stroke="#409f9f" d="M29.27986 2.84752 34.20651 1.68782"/>
<path transform="matrix(1.00002,0,0,-1.00006,15.389694,58.38272)" stroke-width=".79701" stroke-linecap="butt" stroke-miterlimit="10" stroke-linejoin="miter" fill="none" stroke="#409f9f" d="M34.35086 5.49861 38.20502 3.57158"/>
<path transform="matrix(1.00002,0,0,-1.00006,15.389694,58.38272)" stroke-width=".79701" stroke-linecap="butt" stroke-miterlimit="10" stroke-linejoin="miter" fill="none" stroke="#409f9f" d="M39.8256 8.0717 41.79973 5.5333"/>
<path transform="matrix(1.00002,0,0,-1.00006,15.389694,58.38272)" stroke-width=".79701" stroke-linecap="butt" stroke-miterlimit="10" stroke-linejoin="miter" fill="none" stroke="#409f9f" d="M45.29207 10.43202 45.40277 7.70782"/>
<path transform="matrix(1.00002,0,0,-1.00006,15.389694,58.38272)" stroke-width=".79701" stroke-linecap="butt" stroke-miterlimit="10" stroke-linejoin="miter" fill="none" stroke="#409f9f" d="M50.46478 12.6683 49.29951 10.00638"/>
<path transform="matrix(1.00002,0,0,-1.00006,15.389694,58.38272)" stroke-width=".79701" stroke-linecap="butt" stroke-miterlimit="10" stroke-linejoin="miter" fill="none" stroke="#409f9f" d="M55.39151 14.87708 53.44229 12.33241"/>
<path transform="matrix(1.00002,0,0,-1.00006,15.389694,58.38272)" stroke-width=".79701" stroke-linecap="butt" stroke-miterlimit="10" stroke-linejoin="miter" fill="none" stroke="#409f9f" d="M60.17053 17.09087 57.73277 14.65347"/>
<path transform="matrix(1.00002,0,0,-1.00006,15.389694,58.38272)" stroke-width=".79701" stroke-linecap="butt" stroke-miterlimit="10" stroke-linejoin="miter" fill="none" stroke="#409f9f" d="M19.9495-6.77425 25.3979-6.82953"/>
<path transform="matrix(1.00002,0,0,-1.00006,15.389694,58.38272)" stroke-width=".79701" stroke-linecap="butt" stroke-miterlimit="10" stroke-linejoin="miter" fill="none" stroke="#409f9f" d="M24.49565-4.41599 29.92123-4.65295"/>
<path transform="matrix(1.00002,0,0,-1.00006,15.389694,58.38272)" stroke-width=".79701" stroke-linecap="butt" stroke-miterlimit="10" stroke-linejoin="miter" fill="none" stroke="#409f9f" d="M29.08264-1.97508 34.40373-2.55905"/>
<path transform="matrix(1.00002,0,0,-1.00006,15.389694,58.38272)" stroke-width=".79701" stroke-linecap="butt" stroke-miterlimit="10" stroke-linejoin="miter" fill="none" stroke="#409f9f" d="M33.8146 .58018 38.74126-.5795"/>
<path transform="matrix(1.00002,0,0,-1.00006,15.389694,58.38272)" stroke-width=".79701" stroke-linecap="butt" stroke-miterlimit="10" stroke-linejoin="miter" fill="none" stroke="#409f9f" d="M38.8856 3.23128 42.73976 1.30424"/>
<path transform="matrix(1.00002,0,0,-1.00006,15.389694,58.38272)" stroke-width=".79701" stroke-linecap="butt" stroke-miterlimit="10" stroke-linejoin="miter" fill="none" stroke="#409f9f" d="M44.36035 5.80437 46.33449 3.26598"/>
<path transform="matrix(1.00002,0,0,-1.00006,15.389694,58.38272)" stroke-width=".79701" stroke-linecap="butt" stroke-miterlimit="10" stroke-linejoin="miter" fill="none" stroke="#409f9f" d="M49.82681 8.16469 49.93752 5.44049"/>
<path transform="matrix(1.00002,0,0,-1.00006,15.389694,58.38272)" stroke-width=".79701" stroke-linecap="butt" stroke-miterlimit="10" stroke-linejoin="miter" fill="none" stroke="#409f9f" d="M54.99953 10.40097 53.83427 7.73904"/>
<path transform="matrix(1.00002,0,0,-1.00006,15.389694,58.38272)" stroke-width=".79701" stroke-linecap="butt" stroke-miterlimit="10" stroke-linejoin="miter" fill="none" stroke="#409f9f" d="M59.92627 12.60974 57.97704 10.06508"/>
<path transform="matrix(1.00002,0,0,-1.00006,15.389694,58.38272)" stroke-width=".79701" stroke-linecap="butt" stroke-miterlimit="10" stroke-linejoin="miter" fill="none" stroke="#409f9f" d="M64.70528 14.82353 62.26752 12.38614"/>
<path transform="matrix(1.00002,0,0,-1.00006,15.389694,58.38272)" stroke-width=".79701" stroke-linecap="butt" stroke-miterlimit="10" stroke-linejoin="miter" fill="none" stroke="#409f9f" d="M24.48424-9.04158 29.93266-9.09686"/>
<path transform="matrix(1.00002,0,0,-1.00006,15.389694,58.38272)" stroke-width=".79701" stroke-linecap="butt" stroke-miterlimit="10" stroke-linejoin="miter" fill="none" stroke="#409f9f" d="M29.03041-6.68332 34.456-6.92029"/>
<path transform="matrix(1.00002,0,0,-1.00006,15.389694,58.38272)" stroke-width=".79701" stroke-linecap="butt" stroke-miterlimit="10" stroke-linejoin="miter" fill="none" stroke="#409f9f" d="M33.61739-4.2424 38.93848-4.82637"/>
<path transform="matrix(1.00002,0,0,-1.00006,15.389694,58.38272)" stroke-width=".79701" stroke-linecap="butt" stroke-miterlimit="10" stroke-linejoin="miter" fill="none" stroke="#409f9f" d="M38.34935-1.68712 43.27602-2.84682"/>
<path transform="matrix(1.00002,0,0,-1.00006,15.389694,58.38272)" stroke-width=".79701" stroke-linecap="butt" stroke-miterlimit="10" stroke-linejoin="miter" fill="none" stroke="#409f9f" d="M43.42035 .96394 47.2745-.96307"/>
<path transform="matrix(1.00002,0,0,-1.00006,15.389694,58.38272)" stroke-width=".79701" stroke-linecap="butt" stroke-miterlimit="10" stroke-linejoin="miter" fill="none" stroke="#409f9f" d="M48.89511 3.53703 50.86923 .99864"/>
<path transform="matrix(1.00002,0,0,-1.00006,15.389694,58.38272)" stroke-width=".79701" stroke-linecap="butt" stroke-miterlimit="10" stroke-linejoin="miter" fill="none" stroke="#409f9f" d="M54.36157 5.89735 54.47227 3.17316"/>
<path transform="matrix(1.00002,0,0,-1.00006,15.389694,58.38272)" stroke-width=".79701" stroke-linecap="butt" stroke-miterlimit="10" stroke-linejoin="miter" fill="none" stroke="#409f9f" d="M59.53429 8.13364 58.36902 5.47171"/>
<path transform="matrix(1.00002,0,0,-1.00006,15.389694,58.38272)" stroke-width=".79701" stroke-linecap="butt" stroke-miterlimit="10" stroke-linejoin="miter" fill="none" stroke="#409f9f" d="M64.46101 10.34242 62.5118 7.79776"/>
<path transform="matrix(1.00002,0,0,-1.00006,15.389694,58.38272)" stroke-width=".79701" stroke-linecap="butt" stroke-miterlimit="10" stroke-linejoin="miter" fill="none" stroke="#409f9f" d="M69.24004 12.5562 66.80228 10.1188"/>
<path transform="matrix(1.00002,0,0,-1.00006,15.389694,58.38272)" stroke-width=".79701" stroke-linecap="butt" stroke-miterlimit="10" stroke-linejoin="miter" fill="none" stroke="#409f9f" d="M29.01897-11.30891 34.46739-11.36418"/>
<path transform="matrix(1.00002,0,0,-1.00006,15.389694,58.38272)" stroke-width=".79701" stroke-linecap="butt" stroke-miterlimit="10" stroke-linejoin="miter" fill="none" stroke="#409f9f" d="M33.56514-8.95064 38.99072-9.1876"/>
<path transform="matrix(1.00002,0,0,-1.00006,15.389694,58.38272)" stroke-width=".79701" stroke-linecap="butt" stroke-miterlimit="10" stroke-linejoin="miter" fill="none" stroke="#409f9f" d="M38.15213-6.50974 43.4732-7.0937"/>
<path transform="matrix(1.00002,0,0,-1.00006,15.389694,58.38272)" stroke-width=".79701" stroke-linecap="butt" stroke-miterlimit="10" stroke-linejoin="miter" fill="none" stroke="#409f9f" d="M42.8841-3.95445 47.81075-5.11415"/>
<path transform="matrix(1.00002,0,0,-1.00006,15.389694,58.38272)" stroke-width=".79701" stroke-linecap="butt" stroke-miterlimit="10" stroke-linejoin="miter" fill="none" stroke="#409f9f" d="M47.9551-1.30336 51.80925-3.2304"/>
<path transform="matrix(1.00002,0,0,-1.00006,15.389694,58.38272)" stroke-width=".79701" stroke-linecap="butt" stroke-miterlimit="10" stroke-linejoin="miter" fill="none" stroke="#409f9f" d="M53.42984 1.26971 55.40396-1.26868"/>
<path transform="matrix(1.00002,0,0,-1.00006,15.389694,58.38272)" stroke-width=".79701" stroke-linecap="butt" stroke-miterlimit="10" stroke-linejoin="miter" fill="none" stroke="#409f9f" d="M58.8963 3.63002 59.007 .90584"/>
<path transform="matrix(1.00002,0,0,-1.00006,15.389694,58.38272)" stroke-width=".79701" stroke-linecap="butt" stroke-miterlimit="10" stroke-linejoin="miter" fill="none" stroke="#409f9f" d="M64.06902 5.86632 62.90376 3.20439"/>
<path transform="matrix(1.00002,0,0,-1.00006,15.389694,58.38272)" stroke-width=".79701" stroke-linecap="butt" stroke-miterlimit="10" stroke-linejoin="miter" fill="none" stroke="#409f9f" d="M68.99576 8.07509 67.04652 5.53043"/>
<path transform="matrix(1.00002,0,0,-1.00006,15.389694,58.38272)" stroke-width=".79701" stroke-linecap="butt" stroke-miterlimit="10" stroke-linejoin="miter" fill="none" stroke="#409f9f" d="M73.77477 10.28888 71.337 7.85149"/>
<path transform="matrix(1.00002,0,0,-1.00006,15.389694,58.38272)" stroke-width=".79701" stroke-linecap="butt" stroke-miterlimit="10" stroke-linejoin="miter" fill="none" stroke="#409f9f" d="M33.55373-13.57625 39.00214-13.63152"/>
<path transform="matrix(1.00002,0,0,-1.00006,15.389694,58.38272)" stroke-width=".79701" stroke-linecap="butt" stroke-miterlimit="10" stroke-linejoin="miter" fill="none" stroke="#409f9f" d="M38.09988-11.21797 43.52548-11.45494"/>
<path transform="matrix(1.00002,0,0,-1.00006,15.389694,58.38272)" stroke-width=".79701" stroke-linecap="butt" stroke-miterlimit="10" stroke-linejoin="miter" fill="none" stroke="#409f9f" d="M42.68687-8.77707 48.00797-9.36104"/>
<path transform="matrix(1.00002,0,0,-1.00006,15.389694,58.38272)" stroke-width=".79701" stroke-linecap="butt" stroke-miterlimit="10" stroke-linejoin="miter" fill="none" stroke="#409f9f" d="M47.41884-6.22179 52.34549-7.38148"/>
<path transform="matrix(1.00002,0,0,-1.00006,15.389694,58.38272)" stroke-width=".79701" stroke-linecap="butt" stroke-miterlimit="10" stroke-linejoin="miter" fill="none" stroke="#409f9f" d="M52.48984-3.5707 56.344-5.49773"/>
<path transform="matrix(1.00002,0,0,-1.00006,15.389694,58.38272)" stroke-width=".79701" stroke-linecap="butt" stroke-miterlimit="10" stroke-linejoin="miter" fill="none" stroke="#409f9f" d="M57.96458-.9976 59.93872-3.536"/>
<path transform="matrix(1.00002,0,0,-1.00006,15.389694,58.38272)" stroke-width=".79701" stroke-linecap="butt" stroke-miterlimit="10" stroke-linejoin="miter" fill="none" stroke="#409f9f" d="M63.43105 1.3627 63.54175-1.36148"/>
<path transform="matrix(1.00002,0,0,-1.00006,15.389694,58.38272)" stroke-width=".79701" stroke-linecap="butt" stroke-miterlimit="10" stroke-linejoin="miter" fill="none" stroke="#409f9f" d="M68.60378 3.59898 67.4385 .93706"/>
<path transform="matrix(1.00002,0,0,-1.00006,15.389694,58.38272)" stroke-width=".79701" stroke-linecap="butt" stroke-miterlimit="10" stroke-linejoin="miter" fill="none" stroke="#409f9f" d="M73.5305 5.80775 71.58127 3.26309"/>
<path transform="matrix(1.00002,0,0,-1.00006,15.389694,58.38272)" stroke-width=".79701" stroke-linecap="butt" stroke-miterlimit="10" stroke-linejoin="miter" fill="none" stroke="#409f9f" d="M78.30952 8.02155 75.87177 5.58415"/>
<path transform="matrix(1.00002,0,0,-1.00006,15.389694,58.38272)" stroke-width=".79701" stroke-linecap="butt" stroke-miterlimit="10" stroke-linejoin="miter" fill="none" stroke="#409f9f" d="M38.08846-15.84357 43.53688-15.89885"/>
<path transform="matrix(1.00002,0,0,-1.00006,15.389694,58.38272)" stroke-width=".79701" stroke-linecap="butt" stroke-miterlimit="10" stroke-linejoin="miter" fill="none" stroke="#409f9f" d="M42.63463-13.4853 48.06021-13.72227"/>
<path transform="matrix(1.00002,0,0,-1.00006,15.389694,58.38272)" stroke-width=".79701" stroke-linecap="butt" stroke-miterlimit="10" stroke-linejoin="miter" fill="none" stroke="#409f9f" d="M47.2216-11.0444 52.5427-11.62837"/>
<path transform="matrix(1.00002,0,0,-1.00006,15.389694,58.38272)" stroke-width=".79701" stroke-linecap="butt" stroke-miterlimit="10" stroke-linejoin="miter" fill="none" stroke="#409f9f" d="M51.95357-8.4891 56.88023-9.6488"/>
<path transform="matrix(1.00002,0,0,-1.00006,15.389694,58.38272)" stroke-width=".79701" stroke-linecap="butt" stroke-miterlimit="10" stroke-linejoin="miter" fill="none" stroke="#409f9f" d="M57.02458-5.83803 60.87874-7.76506"/>
<path transform="matrix(1.00002,0,0,-1.00006,15.389694,58.38272)" stroke-width=".79701" stroke-linecap="butt" stroke-miterlimit="10" stroke-linejoin="miter" fill="none" stroke="#409f9f" d="M62.49933-3.26494 64.47345-5.80333"/>
<path transform="matrix(1.00002,0,0,-1.00006,15.389694,58.38272)" stroke-width=".79701" stroke-linecap="butt" stroke-miterlimit="10" stroke-linejoin="miter" fill="none" stroke="#409f9f" d="M67.96579-.90462 68.07649-3.62881"/>
<path transform="matrix(1.00002,0,0,-1.00006,15.389694,58.38272)" stroke-width=".79701" stroke-linecap="butt" stroke-miterlimit="10" stroke-linejoin="miter" fill="none" stroke="#409f9f" d="M73.1385 1.33165 71.97324-1.33026"/>
<path transform="matrix(1.00002,0,0,-1.00006,15.389694,58.38272)" stroke-width=".79701" stroke-linecap="butt" stroke-miterlimit="10" stroke-linejoin="miter" fill="none" stroke="#409f9f" d="M78.06523 3.54042 76.11601 .99577"/>
<path transform="matrix(1.00002,0,0,-1.00006,15.389694,58.38272)" stroke-width=".79701" stroke-linecap="butt" stroke-miterlimit="10" stroke-linejoin="miter" fill="none" stroke="#409f9f" d="M82.84425 5.75421 80.4065 3.31682"/>
<path transform="matrix(1.00002,0,0,-1.00006,15.389694,58.38272)" stroke-width=".79701" stroke-linecap="butt" stroke-miterlimit="10" stroke-linejoin="miter" fill="none" stroke="#409f9f" d="M42.62321-18.1109 48.07162-18.16617"/>
<path transform="matrix(1.00002,0,0,-1.00006,15.389694,58.38272)" stroke-width=".79701" stroke-linecap="butt" stroke-miterlimit="10" stroke-linejoin="miter" fill="none" stroke="#409f9f" d="M47.16937-15.75262 52.59496-15.9896"/>
<path transform="matrix(1.00002,0,0,-1.00006,15.389694,58.38272)" stroke-width=".79701" stroke-linecap="butt" stroke-miterlimit="10" stroke-linejoin="miter" fill="none" stroke="#409f9f" d="M51.75636-13.31172 57.07745-13.89569"/>
<path transform="matrix(1.00002,0,0,-1.00006,15.389694,58.38272)" stroke-width=".79701" stroke-linecap="butt" stroke-miterlimit="10" stroke-linejoin="miter" fill="none" stroke="#409f9f" d="M56.48833-10.75644 61.41498-11.91614"/>
<path transform="matrix(1.00002,0,0,-1.00006,15.389694,58.38272)" stroke-width=".79701" stroke-linecap="butt" stroke-miterlimit="10" stroke-linejoin="miter" fill="none" stroke="#409f9f" d="M61.55933-8.10535 65.41348-10.03238"/>
<path transform="matrix(1.00002,0,0,-1.00006,15.389694,58.38272)" stroke-width=".79701" stroke-linecap="butt" stroke-miterlimit="10" stroke-linejoin="miter" fill="none" stroke="#409f9f" d="M67.03407-5.53227 69.00821-8.07066"/>
<path transform="matrix(1.00002,0,0,-1.00006,15.389694,58.38272)" stroke-width=".79701" stroke-linecap="butt" stroke-miterlimit="10" stroke-linejoin="miter" fill="none" stroke="#409f9f" d="M72.50053-3.17195 72.61124-5.89613"/>
<path transform="matrix(1.00002,0,0,-1.00006,15.389694,58.38272)" stroke-width=".79701" stroke-linecap="butt" stroke-miterlimit="10" stroke-linejoin="miter" fill="none" stroke="#409f9f" d="M77.67325-.93565 76.508-3.59758"/>
<path transform="matrix(1.00002,0,0,-1.00006,15.389694,58.38272)" stroke-width=".79701" stroke-linecap="butt" stroke-miterlimit="10" stroke-linejoin="miter" fill="none" stroke="#409f9f" d="M82.59999 1.2731 80.65076-1.27155"/>
<path transform="matrix(1.00002,0,0,-1.00006,15.389694,58.38272)" stroke-width=".79701" stroke-linecap="butt" stroke-miterlimit="10" stroke-linejoin="miter" fill="none" stroke="#409f9f" d="M87.379 3.4869 84.94124 1.04948"/>
<path transform="matrix(1.00002,0,0,-1.00006,15.389694,58.38272)" stroke-width=".79701" stroke-linecap="butt" stroke-miterlimit="10" stroke-linejoin="miter" fill="none" stroke="#409f9f" d="M47.15796-20.37825 52.60638-20.43352"/>
<path transform="matrix(1.00002,0,0,-1.00006,15.389694,58.38272)" stroke-width=".79701" stroke-linecap="butt" stroke-miterlimit="10" stroke-linejoin="miter" fill="none" stroke="#409f9f" d="M51.70413-18.01997 57.12971-18.25694"/>
<path transform="matrix(1.00002,0,0,-1.00006,15.389694,58.38272)" stroke-width=".79701" stroke-linecap="butt" stroke-miterlimit="10" stroke-linejoin="miter" fill="none" stroke="#409f9f" d="M56.2911-15.57907 61.6122-16.16304"/>
<path transform="matrix(1.00002,0,0,-1.00006,15.389694,58.38272)" stroke-width=".79701" stroke-linecap="butt" stroke-miterlimit="10" stroke-linejoin="miter" fill="none" stroke="#409f9f" d="M61.02307-13.02379 65.94974-14.18349"/>
<path transform="matrix(1.00002,0,0,-1.00006,15.389694,58.38272)" stroke-width=".79701" stroke-linecap="butt" stroke-miterlimit="10" stroke-linejoin="miter" fill="none" stroke="#409f9f" d="M66.09407-10.3727 69.94823-12.29973"/>
<path transform="matrix(1.00002,0,0,-1.00006,15.389694,58.38272)" stroke-width=".79701" stroke-linecap="butt" stroke-miterlimit="10" stroke-linejoin="miter" fill="none" stroke="#409f9f" d="M71.56882-7.7996 73.54295-10.33801"/>
<path transform="matrix(1.00002,0,0,-1.00006,15.389694,58.38272)" stroke-width=".79701" stroke-linecap="butt" stroke-miterlimit="10" stroke-linejoin="miter" fill="none" stroke="#409f9f" d="M77.0353-5.43929 77.146-8.16348"/>
<path transform="matrix(1.00002,0,0,-1.00006,15.389694,58.38272)" stroke-width=".79701" stroke-linecap="butt" stroke-miterlimit="10" stroke-linejoin="miter" fill="none" stroke="#409f9f" d="M82.20801-3.203 81.04274-5.86493"/>
<path transform="matrix(1.00002,0,0,-1.00006,15.389694,58.38272)" stroke-width=".79701" stroke-linecap="butt" stroke-miterlimit="10" stroke-linejoin="miter" fill="none" stroke="#409f9f" d="M87.13474-.99423 85.18552-3.5389"/>
<path transform="matrix(1.00002,0,0,-1.00006,15.389694,58.38272)" stroke-width=".79701" stroke-linecap="butt" stroke-miterlimit="10" stroke-linejoin="miter" fill="none" stroke="#409f9f" d="M91.91376 1.21954 89.476-1.21783"/>
</svg>
