<svg xmlns="http://www.w3.org/2000/svg" xmlns:xlink="http://www.w3.org/1999/xlink" version="1.1" width="156" height="85" viewBox="0 0 156 85">
<defs>
<path id="font_1_2" d="M.42799378 .45222474 .43899537 .49023438H.31199647L.34599305 .6092224 .33399964 .6162262 .23699951 .53923037 .22399903 .49023438H.14299011L.13198853 .45222474H.21499634L.125 .08627319C.10998535 .029266358 .12199402-.01171875 .17199707-.01171875 .2519989-.01171875 .31599427 .054275514 .35598756 .1292572L.33399964 .1462555C.31098939 .10726929 .2599945 .040267946 .22898865 .040267946 .20799256 .040267946 .20799256 .0632782 .21398926 .088272098L.30299378 .45222474H.42799378Z"/>
<path id="font_2_3" d="M.07398987 .2861328V.21612549H.31900025V.2861328H.07398987Z"/>
<path id="font_2_5" d="M.43699647 0V.0289917L.35299684 .035995485C.33198548 .037994386 .31999208 .04598999 .31999208 .08496094V.67367556L.31498719 .6796875 .10899353 .6446991V.6197052L.20199585 .6087036C.21899414 .6067047 .22599793 .5987091 .22599793 .56973269V.08496094C.22599793 .065979007 .22299195 .053985597 .21699524 .04698181 .21199036 .039993287 .20399475 .036987306 .19299317 .035995485L.10899353 .0289917V0H.43699647Z"/>
<path id="font_2_6" d="M.4850006 .13195801 .45700074 .13696289C.43598939 .08299255 .41600038 .07598877 .37599183 .07598877H.11999512C.13598633 .1279602 .19499207 .19892884 .28799439 .2658844 .38398744 .33584596 .45799256 .38082887 .45799256 .49276734 .45799256 .63168337 .3659973 .6796875 .26098634 .6796875 .12399292 .6796875 .052993776 .5967102 .052993776 .54473879 .052993776 .51075747 .09098816 .49476625 .10798645 .49476625 .12599182 .49476625 .1329956 .50476077 .13699341 .5217438 .15299988 .5897064 .19198609 .64468386 .2539978 .64468386 .33099366 .64468386 .35299684 .5797119 .35299684 .50675967 .35299684 .3998108 .29899598 .33984376 .21199036 .26289369 .08898926 .15594483 .04598999 .08798218 .026992798 .009994507L.036987306 0H.45098878L.4850006 .13195801Z"/>
<path id="font_2_7" d="M.12998963 .3657837C.12998963 .3487854 .1349945 .33779908 .147995 .33779908 .1599884 .33779908 .18699646 .34777833 .23498535 .34777833 .31999208 .34777833 .36799623 .27090455 .36799623 .18403626 .36799623 .065216068 .30899049 .023269654 .23799134 .023269654 .17199707 .023269654 .1289978 .07319641 .10998535 .12911988 .10398865 .14808655 .09399414 .15707398 .07998657 .15707398 .06199646 .15707398 .026992798 .13809204 .026992798 .10215759 .026992798 .05921936 .09599304-.01171875 .23699951-.01171875 .38198854-.01171875 .47299195 .06121826 .47299195 .18902588 .47299195 .32281495 .35798646 .3627777 .30299378 .3677826V.3717804C.35699464 .38078309 .44400025 .4207611 .44400025 .5197296 .44400025 .6306915 .35699464 .6796875 .25 .6796875 .117996219 .6796875 .052993776 .60369876 .052993776 .5607147 .052993776 .5297241 .08799744 .51272585 .101989749 .51272585 .114990238 .51272585 .12298584 .5197296 .1269989 .5327301 .14898682 .60069277 .18699646 .64468386 .24299622 .64468386 .32199098 .64468386 .34098817 .57470706 .34098817 .51872256 .34098817 .4587555 .31999208 .38378907 .23498535 .38378907 .18699646 .38378907 .1599884 .39378358 .147995 .39378358 .1349945 .39378358 .12998963 .38378907 .12998963 .3657837Z"/>
<path id="font_2_8" d="M.2999878 .17871094V.0769043C.2999878 .04296875 .2889862 .036987306 .2649994 .034988405L.20098877 .0289917V0H.46499635V.0289917L.41999818 .033981325C.39698792 .036987306 .3899994 .04296875 .3899994 .0769043V.17871094H.49299623V.22570801H.3899994V.66796877H.31698609C.22299195 .5298767 .11099243 .35577394 .018997193 .19970703L.027999878 .17871094H.2999878M.09098816 .22570801C.15098572 .33476258 .22099304 .4498291 .2979889 .5709076H.2999878V.22570801H.09098816Z"/>
<path id="font_2_9" d="M.42599488 .5919647 .44999696 .6599579 .44499208 .66796877H.11099243L.100997928 .65896609 .08099365 .32388307 .10499573 .31188966C.14698792 .35983277 .18798828 .3828125 .24198914 .3828125 .30599977 .3828125 .37599183 .3358612 .37599183 .20404053 .37599183 .10116577 .33399964 .023269654 .24699402 .023269654 .1769867 .023269654 .14099121 .07420349 .12098694 .13113404 .115997318 .14611817 .10699463 .15510559 .09298706 .15510559 .07299805 .15510559 .039993287 .13513184 .039993287 .10217285 .039993287 .056228639 .10998535-.01171875 .23999024-.01171875 .40499879-.01171875 .47999574 .0881958 .47999574 .21502686 .47999574 .35484315 .3919983 .4268036 .272995 .4268036 .21798706 .4268036 .15899658 .4028015 .1269989 .3738098L.125 .37580873 .147995 .56292727C.15098572 .58795168 .1579895 .5919647 .1769867 .5919647H.42599488Z"/>
<path id="font_2_10" d="M.27198792-.01171875C.41999818-.01171875 .49899293 .07821655 .49899293 .2140503 .49899293 .3488922 .4119873 .42385865 .30799867 .421875 .23199463 .42385865 .17199707 .36886598 .14498902 .33590699H.14299011C.14399719 .5557556 .20698548 .64468386 .29699708 .64468386 .34298707 .64468386 .375 .6057129 .3899994 .5487671 .3929901 .5367737 .40098573 .527771 .41600038 .527771 .43798829 .527771 .46899415 .5447693 .46899415 .57273867 .46899415 .6127014 .41999818 .6796875 .2999878 .6796875 .22099304 .6796875 .16499329 .64967349 .12298584 .6017151 .07798767 .5497589 .04399109 .45384217 .04399109 .3089447 .04399109 .093185428 .12199402-.01171875 .27198792-.01171875M.27398683 .37086488C.33699037 .37086488 .39898683 .31393434 .39898683 .19906616 .39898683 .094192508 .35798646 .023269654 .27398683 .023269654 .18699646 .023269654 .14498902 .11616516 .14498902 .23602295 .14498902 .2969513 .18998719 .37086488 .27398683 .37086488Z"/>
<path id="font_1_1" d="M.33999635 .46694947C.36999513 .46694947 .41999818 .4519348 .41999818 .38290406 .41999818 .28987123 .37199403 .21484375 .29699708 .21484375 .24398804 .21484375 .21398926 .2508545 .21398926 .3008728 .21398926 .36390687 .24499512 .46694947 .33999635 .46694947M.45700074 .4719391C.43099977 .48895265 .38198854 .5019531 .33299256 .5019531 .16899109 .5019531 .11999512 .38891603 .11999512 .31788636 .11999512 .24385071 .17399597 .20584107 .20399475 .19483948V.19284058C.17298889 .17984009 .11299133 .15783692 .11299133 .11782837 .11299133 .08482361 .14299011 .061828615 .18399048 .04283142V.04081726C.115997318 .028823853 .02999878-.013183594 .02999878-.096191409 .02999878-.18519593 .12298584-.2421875 .25-.2421875 .3849945-.2421875 .49398805-.18519593 .49398805-.07518005 .49398805-.00018310547 .43699647 .05381775 .31900025 .081832889 .23498535 .1018219 .19799805 .11582947 .19799805 .14382935 .19799805 .16282654 .21798706 .1768341 .24198914 .18283081 .2619934 .17984009 .2809906 .17984009 .29599 .17984009 .43499757 .17984009 .5119934 .25585938 .5119934 .35890199 .5119934 .38591004 .5039978 .4109192 .4909973 .42793275L.57499697 .4399414 .60798647 .50294497 .60198977 .51194766 .45700074 .4719391M.27198792-.2071991C.18499756-.2071991 .12199402-.15919495 .12199402-.08718872 .12199402-.015182495 .18699646 .018829346 .22799683 .02482605 .29100038 .015823365 .40899659-.010177612 .40899659-.094192508 .40899659-.17019654 .34700013-.2071991 .27198792-.2071991Z"/>
<path id="font_2_1" d="M.1749878 .2822113C.1749878 .56832888 .2619934 .65437319 .32499696 .66737368V.6923828C.1499939 .685379 .10499573 .46829225 .10499573 .2822113 .10499573 .09614563 .1499939-.12094116 .32499696-.12792969V-.10293579C.2669983-.090927127 .1749878-.0059051516 .1749878 .2822113Z"/>
<path id="font_2_2" d="M.1749878 .2822113C.1749878-.0059051516 .08299255-.090927127 .024993897-.10293579V-.12792969C.19999695-.12094116 .24499512 .09614563 .24499512 .2822113 .24499512 .46829225 .19999695 .685379 .024993897 .6923828V.66737368C.08799744 .65437319 .1749878 .56832888 .1749878 .2822113Z"/>
<path id="font_3_4" d="M.6349945 .14315796V.20117188H.084991458V.14315796H.6349945M.6349945 .36288453V.42089845H.084991458V.36288453H.6349945Z"/>
<path id="font_2_4" d="M.2649994 .64468386C.3600006 .64468386 .3869934 .49682618 .3869934 .33398438 .3869934 .17112732 .3600006 .023269654 .2649994 .023269654 .16999817 .023269654 .14299011 .17112732 .14299011 .33398438 .14299011 .49682618 .16999817 .64468386 .2649994 .64468386M.2649994 .6796875C.099990848 .6796875 .040985109 .53378298 .040985109 .33398438 .040985109 .13417053 .099990848-.01171875 .2649994-.01171875 .42999269-.01171875 .4889984 .13417053 .4889984 .33398438 .4889984 .53378298 .42999269 .6796875 .2649994 .6796875Z"/>
<path id="font_3_1" d="M.6349945 .2529297V.31092835H.084991458V.2529297H.6349945Z"/>
<path id="font_3_5" d="M.6349945 .07472229 .17298889 .28173829 .6349945 .48875428V.5517578L.084991458 .31674195V.24673462L.6349945 .01171875V.07472229Z"/>
<path id="font_3_2" d="M.6349945 .20620728 .17298889 .3572235 .6349945 .5092468V.5722656L.084991458 .39222718V.32221986L.6349945 .14318848V.20620728M.6349945-.0078125V.050186159H.084991458V-.0078125H.6349945Z"/>
<path id="font_3_3" d="M.6349945-.0078125V.050186159H.084991458V-.0078125H.6349945M.084991458 .14318848 .6349945 .32221986V.39222718L.084991458 .5722656V.5092468L.5469971 .3572235 .084991458 .20620728V.14318848Z"/>
</defs>
<path transform="matrix(1,0,0,-1.00003,44.21,48.95305)" d="M-42.52063-34.0165V47.62315H17.00824V-34.0165ZM17.00824 47.62315" fill="#d9d9ff"/>
<path transform="matrix(1,0,0,-1.00003,44.21,48.95305)" d="M17.00824-34.0165V47.62315H68.03302V-34.0165ZM68.03302 47.62315" fill="#d9f0d9"/>
<path transform="matrix(1,0,0,-1.00003,44.21,48.95305)" d="M68.03302-34.0165V47.62315H110.55367V-34.0165ZM110.55367 47.62315" fill="#d9d9ff"/>
<path transform="matrix(1,0,0,-1.00003,44.21,48.95305)" stroke-width=".19925" stroke-linecap="butt" stroke-dasharray="2.98883,2.98883" stroke-miterlimit="10" stroke-linejoin="miter" fill="none" stroke="#000000" d="M68.03302-34.0165V47.62315"/>
<path transform="matrix(1,0,0,-1.00003,44.21,48.95305)" stroke-width=".19925" stroke-linecap="butt" stroke-dasharray="2.98883,2.98883" stroke-miterlimit="10" stroke-linejoin="miter" fill="none" stroke="#000000" d="M17.00824-34.0165V47.62315"/>
<path transform="matrix(1,0,0,-1.00003,44.21,48.95305)" stroke-width=".3985" stroke-linecap="butt" stroke-miterlimit="10" stroke-linejoin="miter" fill="none" stroke="#000000" d="M-42.52063 0H110.09538"/>
<path transform="matrix(1,0,0,-1.00003,154.30539,48.95305)" stroke-width=".31879" stroke-linecap="round" stroke-linejoin="round" fill="none" stroke="#000000" d="M-1.19551 1.59401C-1.09587 .99626 0 .09961 .29886 0 0-.09961-1.09587-.99626-1.19551-1.59401"/>
<path transform="matrix(1,0,0,-1.00003,44.21,48.95305)" stroke-width=".3985" stroke-linecap="butt" stroke-miterlimit="10" stroke-linejoin="miter" fill="none" stroke="#000000" d="M0-34.0165V47.16487"/>
<path transform="matrix(0,-1.00003,-1,-0,44.21,1.7867622)" stroke-width=".31879" stroke-linecap="round" stroke-linejoin="round" fill="none" stroke="#000000" d="M-1.19551 1.59401C-1.09587 .99626 0 .09961 .29886 0 0-.09961-1.09587-.99626-1.19551-1.59401"/>
<use data-text="t" xlink:href="#font_1_2" transform="matrix(9.1656,0,0,-9.165875,151.111,58.00132)"/>
<path transform="matrix(1,0,0,-1.00003,44.21,48.95305)" stroke-width=".3985" stroke-linecap="butt" stroke-miterlimit="10" stroke-linejoin="miter" fill="none" stroke="#929292" d="M-17.00824 1.70091V-1.70091"/>
<use data-text="-" xlink:href="#font_2_3" transform="matrix(9.1656,0,0,-9.165875,22.973,59.850378)"/>
<use data-text="1" xlink:href="#font_2_5" transform="matrix(9.1656,0,0,-9.165875,26.565918,59.850378)"/>
<path transform="matrix(1,0,0,-1.00003,44.21,48.95305)" stroke-width=".3985" stroke-linecap="butt" stroke-miterlimit="10" stroke-linejoin="miter" fill="none" stroke="#929292" d="M17.00824 1.70091V-1.70091"/>
<use data-text="1" xlink:href="#font_2_5" transform="matrix(9.1656,0,0,-9.165875,58.787,59.850378)"/>
<path transform="matrix(1,0,0,-1.00003,44.21,48.95305)" stroke-width=".3985" stroke-linecap="butt" stroke-miterlimit="10" stroke-linejoin="miter" fill="none" stroke="#929292" d="M34.0165 1.70091V-1.70091"/>
<use data-text="2" xlink:href="#font_2_6" transform="matrix(9.1656,0,0,-9.165875,75.796,59.850378)"/>
<path transform="matrix(1,0,0,-1.00003,44.21,48.95305)" stroke-width=".3985" stroke-linecap="butt" stroke-miterlimit="10" stroke-linejoin="miter" fill="none" stroke="#929292" d="M51.02477 1.70091V-1.70091"/>
<use data-text="3" xlink:href="#font_2_7" transform="matrix(9.1656,0,0,-9.165875,92.804,59.850378)"/>
<path transform="matrix(1,0,0,-1.00003,44.21,48.95305)" stroke-width=".3985" stroke-linecap="butt" stroke-miterlimit="10" stroke-linejoin="miter" fill="none" stroke="#929292" d="M68.03302 1.70091V-1.70091"/>
<use data-text="4" xlink:href="#font_2_8" transform="matrix(9.1656,0,0,-9.165875,109.812,59.850378)"/>
<path transform="matrix(1,0,0,-1.00003,44.21,48.95305)" stroke-width=".3985" stroke-linecap="butt" stroke-miterlimit="10" stroke-linejoin="miter" fill="none" stroke="#929292" d="M85.04128 1.70091V-1.70091"/>
<use data-text="5" xlink:href="#font_2_9" transform="matrix(9.1656,0,0,-9.165875,126.82,59.850378)"/>
<path transform="matrix(1,0,0,-1.00003,44.21,48.95305)" stroke-width=".3985" stroke-linecap="butt" stroke-miterlimit="10" stroke-linejoin="miter" fill="none" stroke="#929292" d="M102.04953 1.70091V-1.70091"/>
<use data-text="6" xlink:href="#font_2_10" transform="matrix(9.1656,0,0,-9.165875,143.82901,59.850378)"/>
<path transform="matrix(1,0,0,-1.00003,44.21,48.95305)" stroke-width=".3985" stroke-linecap="butt" stroke-miterlimit="10" stroke-linejoin="miter" fill="none" stroke="#929292" d="M1.70091-17.00824H-1.70091"/>
<use data-text="-" xlink:href="#font_2_3" transform="matrix(9.1656,0,0,-9.165875,34.054,69.030658)"/>
<use data-text="1" xlink:href="#font_2_5" transform="matrix(9.1656,0,0,-9.165875,37.64692,69.030658)"/>
<path transform="matrix(1,0,0,-1.00003,44.21,48.95305)" stroke-width=".3985" stroke-linecap="butt" stroke-miterlimit="10" stroke-linejoin="miter" fill="none" stroke="#929292" d="M1.70091 17.00824H-1.70091"/>
<use data-text="1" xlink:href="#font_2_5" transform="matrix(9.1656,0,0,-9.165875,37.65,35.01263)"/>
<path transform="matrix(1,0,0,-1.00003,44.21,48.95305)" stroke-width=".3985" stroke-linecap="butt" stroke-miterlimit="10" stroke-linejoin="miter" fill="none" stroke="#929292" d="M1.70091 34.0165H-1.70091"/>
<use data-text="2" xlink:href="#font_2_6" transform="matrix(9.1656,0,0,-9.165875,37.65,18.00412)"/>
<path transform="matrix(1,0,0,-1.00003,44.21,48.95305)" stroke-width="1.59404" stroke-linecap="butt" stroke-miterlimit="10" stroke-linejoin="miter" fill="none" stroke="#990000" d="M-42.52063 0H-42.23438-41.94812-41.66187-41.3756-41.08934-40.80309-40.51682-40.23058-39.94432-39.65807-39.37181-39.08554-38.79929-38.51303-38.22678-37.94052-37.65428-37.36801-37.08176-36.7955-36.50925-36.22299-35.93672-35.65047-35.36421-35.07794-34.7917-34.50545-34.2192-33.93294-33.64667-33.36041-33.07416-32.7879-32.50165-32.2154-31.92914-31.64288-31.35661-31.07036-30.7841-30.49785-30.2116-29.92532-29.63908-29.35283-29.06657-28.78032-28.49406-28.2078-27.92154-27.63528-27.34903-27.06279-26.77652-26.49026-26.20401-25.91774-25.63148-25.34523-25.05898-24.77272-24.48645-24.20021-23.91396-23.6277-23.34145-23.05518-22.76892-22.48267-22.19641-21.91016-21.62392-21.33765-21.05139-20.76512-20.47887-20.19261-19.90636-19.6201-19.33385-19.04759-18.76134-18.47508-18.18883-17.90257-17.6163-17.33005-17.0438-16.75754-16.47128-16.18503-15.89877-15.61252-15.32625-15.04-14.75374-14.46748-14.18123-13.89496-13.60872-13.32246-13.03621-12.74995-12.4637-12.17743-11.89117-11.6049-11.31865-11.03241-10.74615-10.4599-10.17363-9.88737-9.60112-9.31487-9.02861-8.74236-8.4561-8.16985-7.88359-7.59734-7.31108-7.02481-6.73856-6.4523-6.16603-5.87978-5.59354-5.30728-5.02103-4.73476-4.4485-4.16225-3.87599-3.58974-3.30347-3.01723-2.73097-2.44472-2.15846-1.87221-1.58594-1.29968-1.01341-.72716-.44092-.15466 .13156 .41782 .70407 .99033 1.2766 1.56285 1.8491 2.13536 2.4216 2.70786 2.99413 3.28038 3.56664 3.85289 4.13914 4.42542 4.71167 4.99791 5.28418 5.57043 5.85669 6.14294 6.4292 6.71547 7.00172 7.28798 7.57422 7.86047 8.14674 8.433 8.71925 9.00552 9.29178 9.57803 9.86429 10.15054 10.4368 10.72305 11.00931 11.29556 11.58182 11.86807 12.15434 12.4406 12.72685 13.01309 13.29935 13.58562 13.87187 14.15813 14.4444"/>
<path transform="matrix(1,0,0,-1.00003,44.21,48.95305)" stroke-width=".79701" stroke-linecap="butt" stroke-dasharray="2.98883,2.98883" stroke-miterlimit="10" stroke-linejoin="miter" fill="none" stroke="#009900" d="M17.00824 17.00824H17.25609 17.50394 17.75179 17.99962 18.24747 18.49533 18.74316 18.991 19.23886 19.48671 19.73456 19.9824 20.23024 20.47809 20.72594 20.97379 21.22163 21.46947 21.71733 21.96518 22.21301 22.46088 22.70871 22.95656 23.2044 23.45226 23.7001 23.94795 24.1958 24.44365 24.69148 24.93935 25.1872 25.43503 25.68286 25.93073 26.17857 26.42642 26.67427 26.9221 27.16995 27.41782 27.66565 27.9135 28.16133 28.4092 28.65704 28.90488 29.15274 29.40057 29.64842 29.89629 30.14412 30.39195 30.6398 30.88766 31.13551 31.38335 31.6312 31.87904 32.12689 32.37474 32.62259 32.87042 33.11827 33.36613 33.61397 33.86182 34.10968 34.35751 34.60536 34.85321 35.10106 35.3489 35.59674 35.8446 36.09244 36.34029 36.58815 36.83598 37.08382 37.33168 37.57953 37.82738 38.07521 38.32306 38.5709 38.81876 39.0666 39.31445 39.56229 39.81015 40.058 40.30583 40.55368 40.80153 41.04938 41.29723 41.54507 41.79292 42.04076 42.28862 42.53647 42.7843 43.03214 43.28 43.52785 43.77568 44.02354 44.2714 44.51923 44.76709 45.01492 45.26277 45.51062 45.75847 46.00632 46.25415 46.50201 46.74986 46.9977 47.24556 47.4934 47.74124 47.98909 48.23694 48.48477 48.73262 48.98048 49.22833 49.47617 49.72401 49.97186 50.21971 50.46754 50.71541 50.96324 51.21109 51.45895 51.70679 51.95464 52.20247 52.45033 52.69818 52.94601 53.19388 53.44171 53.68956 53.93742 54.18526 54.4331 54.68094 54.9288 55.17664 55.42448 55.67235 55.9202 56.16803 56.41588 56.66373 56.91158 57.15941 57.40727 57.6551 57.90295 58.15082 58.39865 58.6465 58.89435 59.1422 59.39005 59.63788 59.88574 60.13358 60.38142 60.62929 60.87712 61.12495 61.37282 61.62067 61.8685 62.11635 62.3642 62.61205 62.8599 63.10774 63.35559 63.60342 63.85129 64.09914 64.34697 64.59482 64.84267 65.09052 65.33836 65.58621 65.83406 66.08191 66.32976"/>
<path transform="matrix(1,0,0,-1.00003,44.21,48.95305)" stroke-width="1.59404" stroke-linecap="butt" stroke-miterlimit="10" stroke-linejoin="miter" fill="none" stroke="#990000" d="M17.00824 18.37852 17.25609 17.95966 17.50394 17.53714 17.75179 17.10997 17.99962 16.67967 18.24747 16.24576 18.49533 15.8082 18.74316 15.36804 18.991 14.92424 19.23886 14.47734 19.48671 14.02681 19.73456 13.5742 19.9824 13.11848 20.23024 12.65962 20.47809 12.19872 20.72594 11.73418 20.97379 11.26753 21.22163 10.79884 21.46947 10.32753 21.71733 9.85416 21.96518 9.37872 22.21301 8.90118 22.46088 8.4221 22.70871 7.94043 22.95656 7.4577 23.2044 6.97394 23.45226 6.48811 23.7001 6.00073 23.94795 5.5118 24.1958 5.02231 24.44365 4.5313 24.69148 4.03975 24.93935 3.54718 25.1872 3.05356 25.43503 2.56046 25.68286 2.06528 25.93073 1.57063 26.17857 1.07494 26.42642 .57977 26.67427 .08406 26.9221-.41107 27.16995-.90625 27.41782-1.40141 27.66565-1.89659 27.9135-2.39177 28.16133-2.88539 28.4092-3.37952 28.65704-3.87158 28.90488-4.36417 29.15274-4.85518 29.40057-5.34515 29.64842-5.83412 29.89629-6.32202 30.14412-6.80836 30.39195-7.29315 30.6398-7.77641 30.88766-8.25809 31.13551-8.73871 31.38335-9.21571 31.6312-9.69275 31.87904-10.16664 32.12689-10.63844 32.37474-11.10872 32.62259-11.57585 32.87042-12.0404 33.11827-12.50237 33.36613-12.96223 33.61397-13.419 33.86182-13.87369 34.10968-14.32474 34.35751-14.77217 34.60536-15.217 34.85321-15.65869 35.10106-16.09677 35.3489-16.53278 35.59674-16.96361 35.8446-17.3913 36.09244-17.81537 36.34029-18.2358 36.58815-18.65259 36.83598-19.06523 37.08382-19.4732 37.33168-19.87755 37.57953-20.27774 37.82738-20.67377 38.07521-21.06464 38.32306-21.45236 38.5709-21.83438 38.81876-22.21223 39.0666-22.58492 39.31445-22.95345 39.56229-23.31679 39.81015-23.67545 40.058-24.02893 40.30583-24.37668 40.55368-24.71977 40.80153-25.05716 41.04938-25.38986 41.29723-25.71793 41.54507-26.0392 41.79292-26.35532 42.04076-26.66518 42.28862-26.97038 42.53647-27.26988 42.7843-27.56366 43.03214-27.85121 43.28-28.13255 43.52785-28.40764 43.77568-28.67702 44.02354-28.94121 44.2714-29.19867 44.51923-29.45041 44.76709-29.69489 45.01492-29.93314 45.26277-30.16515 45.51062-30.39093 45.75847-30.61049 46.00632-30.82434 46.25415-31.02988 46.50201-31.22919 46.74986-31.42229 46.9977-31.60915 47.24556-31.78925 47.4934-31.9626 47.74124-32.12819 47.98909-32.28702 48.23694-32.43964 48.48477-32.58496 48.73262-32.72458 48.98048-32.85693 49.22833-32.9815 49.47617-33.0983 49.72401-33.20937 49.97186-33.31319 50.21971-33.41025 50.46754-33.50056 50.71541-33.58154 50.96324-33.6568 51.21109-33.7248 51.45895-33.78604 51.70679-33.84003 51.95464-33.88673 52.20247-33.9262 52.45033-33.95784 52.69818-33.98329 52.94601-34.00092 53.19388-34.01183 53.44171-34.01599 53.68956-34.01183 53.93742-33.9999 54.18526-33.9812 54.4331-33.95576 54.68094-33.92358 54.9288-33.88414 55.17664-33.8369 55.42448-33.78241 55.67235-33.72064 55.9202-33.65161 56.16803-33.57634 56.41588-33.49434 56.66373-33.4035 56.91158-33.30591 57.15941-33.20158 57.40727-33.0905 57.6551-32.97269 57.90295-32.8476 58.15082-32.71523 58.39865-32.57509 58.6465-32.42924 58.89435-32.27664 59.1422-32.11678 59.39005-31.95067 59.63788-31.7768 59.88574-31.59616 60.13358-31.40878 60.38142-31.21568 60.62929-31.01534 60.87712-30.80928 61.12495-30.59595 61.37282-30.37535 61.62067-30.14906 61.8685-29.916 62.11635-29.67723 62.3642-29.43224 62.61205-29.18103 62.8599-28.92253 63.10774-28.65886 63.35559-28.38843 63.60342-28.11229 63.85129-27.83096 64.09914-27.54341 64.34697-27.24911 64.59482-26.9491 64.84267-26.6439 65.09052-26.333 65.33836-26.01689 65.58621-25.69507 65.83406-25.36703 66.08191-25.0338 66.32976-24.69537"/>
<path transform="matrix(1,0,0,-1.00003,44.21,48.95305)" stroke-width="1.59404" stroke-linecap="butt" stroke-miterlimit="10" stroke-linejoin="miter" fill="none" stroke="#990000" d="M68.03302 0H68.2466 68.4602 68.67377 68.88737 69.10097 69.31456 69.52814 69.74173 69.95532 70.16891 70.38249 70.5961 70.80966 71.02327 71.23686 71.45044 71.66403 71.87762 72.09122 72.30481 72.51839 72.732 72.94557 73.15916 73.37276 73.58633 73.79993 74.01353 74.2271 74.4407 74.65428 74.86787 75.08147 75.29506 75.50865 75.72223 75.93582 76.14943 76.36299 76.5766 76.79018 77.00377 77.21736 77.43095 77.64453 77.85812 78.07172 78.28531 78.49889 78.7125 78.92609 79.13966 79.35326 79.56685 79.78043 79.99403 80.20761 80.4212 80.63478 80.84839 81.06197 81.27556 81.48915 81.70274 81.91632 82.12993 82.3435 82.5571 82.77068 82.98428 83.19786 83.41145 83.62505 83.83862 84.05222 84.26582 84.47939 84.693 84.90659 85.12018 85.33376 85.54735 85.76094 85.97453 86.18811 86.40172 86.61528 86.82889 87.04248 87.25606 87.46965 87.68324 87.89684 88.11043 88.324 88.53761 88.75117 88.96478 89.17838 89.39195 89.60555 89.81915 90.03271 90.24632 90.4599 90.6735 90.88708 91.10068 91.31427 91.52785 91.74144 91.95505 92.16861 92.38222 92.5958 92.80939 93.02298 93.23657 93.45015 93.66374 93.87733 94.09094 94.3045 94.51811 94.73169 94.94528 95.15887 95.37247 95.58604 95.79965 96.01323 96.22682 96.4404 96.654 96.86758 97.08118 97.29477 97.50836 97.72194 97.93555 98.14912 98.36272 98.5763 98.7899 99.00348 99.21707 99.43066 99.64424 99.85783 100.07144 100.28502 100.49861 100.7122 100.9258 101.13937 101.35297 101.56656 101.78015 101.99373 102.20734 102.4209 102.6345 102.8481 103.06168 103.27527 103.48886 103.70245 103.91605 104.12962 104.34323 104.5568 104.7704 104.984 105.19757 105.41116 105.62476 105.83833 106.05194 106.26552 106.47913 106.6927 106.9063 107.11989 107.33347 107.54706 107.76067 107.97423 108.18784 108.40141 108.615 108.8286 109.04219 109.25577 109.46936 109.68295 109.89656 110.11012 110.32373 110.53731"/>
<path transform="matrix(1,0,0,-1.00003,44.21,48.95305)" d="M18.80156 17.00824C18.80156 17.99866 17.99866 18.80156 17.00824 18.80156 16.01782 18.80156 15.21492 17.99866 15.21492 17.00824 15.21492 16.01782 16.01782 15.21492 17.00824 15.21492 17.99866 15.21492 18.80156 16.01782 18.80156 17.00824ZM17.00824 17.00824" fill="#009900"/>
<path transform="matrix(1,0,0,-1.00003,44.21,48.95305)" stroke-width="1.19553" stroke-linecap="butt" stroke-miterlimit="10" stroke-linejoin="miter" fill="none" stroke="#990000" d="M19.9971 0C19.9971 1.65071 18.65897 2.98885 17.00824 2.98885 15.35751 2.98885 14.01938 1.65071 14.01938 0 14.01938-1.65071 15.35751-2.98885 17.00824-2.98885 18.65897-2.98885 19.9971-1.65071 19.9971 0ZM17.00824 0"/>
<path transform="matrix(1,0,0,-1.00003,44.21,48.95305)" d="M19.9971 18.37852C19.9971 20.02925 18.65897 21.36739 17.00824 21.36739 15.35751 21.36739 14.01938 20.02925 14.01938 18.37852 14.01938 16.72781 15.35751 15.38966 17.00824 15.38966 18.65897 15.38966 19.9971 16.72781 19.9971 18.37852ZM17.00824 18.37852" fill="#990000"/>
<path transform="matrix(1,0,0,-1.00003,44.21,48.95305)" stroke-width=".79701" stroke-linecap="butt" stroke-miterlimit="10" stroke-linejoin="miter" fill="none" stroke="#009900" d="M69.82634 17.00824C69.82634 17.99866 69.02345 18.80156 68.03302 18.80156 67.0426 18.80156 66.23972 17.99866 66.23972 17.00824 66.23972 16.01782 67.0426 15.21492 68.03302 15.21492 69.02345 15.21492 69.82634 16.01782 69.82634 17.00824ZM68.03302 17.00824"/>
<path transform="matrix(1,0,0,-1.00003,44.21,48.95305)" d="M71.02188 0C71.02188 1.65071 69.68375 2.98885 68.03302 2.98885 66.38231 2.98885 65.04416 1.65071 65.04416 0 65.04416-1.65071 66.38231-2.98885 68.03302-2.98885 69.68375-2.98885 71.02188-1.65071 71.02188 0ZM68.03302 0" fill="#990000"/>
<path transform="matrix(1,0,0,-1.00003,44.21,48.95305)" stroke-width="1.19553" stroke-linecap="butt" stroke-miterlimit="10" stroke-linejoin="miter" fill="none" stroke="#990000" d="M71.02188-22.23404C71.02188-20.58331 69.68375-19.24518 68.03302-19.24518 66.38231-19.24518 65.04416-20.58331 65.04416-22.23404 65.04416-23.88477 66.38231-25.2229 68.03302-25.2229 69.68375-25.2229 71.02188-23.88477 71.02188-22.23404ZM68.03302-22.23404"/>
<use data-text="g" xlink:href="#font_1_1" transform="matrix(9.1656,0,0,-9.165875,15.887001,43.30188)" fill="#0000ff"/>
<use data-text="(" xlink:href="#font_2_1" transform="matrix(9.1656,0,0,-9.165875,21.635003,43.30188)" fill="#0000ff"/>
<use data-text="t" xlink:href="#font_1_2" transform="matrix(9.1656,0,0,-9.165875,25.042,43.30188)" fill="#0000ff"/>
<use data-text=")" xlink:href="#font_2_2" transform="matrix(9.1656,0,0,-9.165875,29.147004,43.30188)" fill="#0000ff"/>
<use data-text="=" xlink:href="#font_3_4" transform="matrix(9.1656,0,0,-9.165875,34.060007,43.30188)" fill="#0000ff"/>
<use data-text="0" xlink:href="#font_2_4" transform="matrix(9.1656,0,0,-9.165875,42.359,43.30188)" fill="#0000ff"/>
<use data-text="g" xlink:href="#font_1_1" transform="matrix(9.1656,0,0,-9.165875,64.496,9.284859)" fill="#009900"/>
<use data-text="(" xlink:href="#font_2_1" transform="matrix(9.1656,0,0,-9.165875,70.244,9.284859)" fill="#009900"/>
<use data-text="t" xlink:href="#font_1_2" transform="matrix(9.1656,0,0,-9.165875,73.651,9.284859)" fill="#009900"/>
<use data-text=")" xlink:href="#font_2_2" transform="matrix(9.1656,0,0,-9.165875,77.756008,9.284859)" fill="#009900"/>
<use data-text="=" xlink:href="#font_3_4" transform="matrix(9.1656,0,0,-9.165875,82.66901,9.284859)" fill="#009900"/>
<use data-text="t" xlink:href="#font_1_2" transform="matrix(9.1656,0,0,-9.165875,91.168,9.284859)" fill="#009900"/>
<use data-text="&#x2212;" xlink:href="#font_3_1" transform="matrix(9.1656,0,0,-9.165875,96.490009,9.284859)" fill="#009900"/>
<use data-text="2" xlink:href="#font_2_6" transform="matrix(9.1656,0,0,-9.165875,104.30301,9.284859)" fill="#009900"/>
<use data-text="g" xlink:href="#font_1_1" transform="matrix(9.1656,0,0,-9.165875,117.936008,43.30188)" fill="#0000ff"/>
<use data-text="(" xlink:href="#font_2_1" transform="matrix(9.1656,0,0,-9.165875,123.684009,43.30188)" fill="#0000ff"/>
<use data-text="t" xlink:href="#font_1_2" transform="matrix(9.1656,0,0,-9.165875,127.091,43.30188)" fill="#0000ff"/>
<use data-text=")" xlink:href="#font_2_2" transform="matrix(9.1656,0,0,-9.165875,131.19602,43.30188)" fill="#0000ff"/>
<use data-text="=" xlink:href="#font_3_4" transform="matrix(9.1656,0,0,-9.165875,136.10901,43.30188)" fill="#0000ff"/>
<use data-text="0" xlink:href="#font_2_4" transform="matrix(9.1656,0,0,-9.165875,144.408,43.30188)" fill="#0000ff"/>
<use data-text="t" xlink:href="#font_1_2" transform="matrix(9.1656,0,0,-9.165875,22.069,79.49197)" fill="#0000ff"/>
<use data-text="&#x003c;" xlink:href="#font_3_5" transform="matrix(9.1656,0,0,-9.165875,27.877999,79.49197)" fill="#0000ff"/>
<use data-text="1" xlink:href="#font_2_5" transform="matrix(9.1656,0,0,-9.165875,36.178,79.49197)" fill="#0000ff"/>
<use data-text="1" xlink:href="#font_2_5" transform="matrix(9.1656,0,0,-9.165875,69.712,79.49197)" fill="#009900"/>
<use data-text="&#x2264;" xlink:href="#font_3_2" transform="matrix(9.1656,0,0,-9.165875,76.279,79.49197)" fill="#009900"/>
<use data-text="t" xlink:href="#font_1_2" transform="matrix(9.1656,0,0,-9.165875,84.778,79.49197)" fill="#009900"/>
<use data-text="&#x003c;" xlink:href="#font_3_5" transform="matrix(9.1656,0,0,-9.165875,90.587009,79.49197)" fill="#009900"/>
<use data-text="4" xlink:href="#font_2_8" transform="matrix(9.1656,0,0,-9.165875,98.88701,79.49197)" fill="#009900"/>
<use data-text="t" xlink:href="#font_1_2" transform="matrix(9.1656,0,0,-9.165875,124.118007,79.49197)" fill="#0000ff"/>
<use data-text="&#x2265;" xlink:href="#font_3_3" transform="matrix(9.1656,0,0,-9.165875,129.927,79.49197)" fill="#0000ff"/>
<use data-text="4" xlink:href="#font_2_8" transform="matrix(9.1656,0,0,-9.165875,138.227,79.49197)" fill="#0000ff"/>
</svg>
