<svg xmlns="http://www.w3.org/2000/svg" xmlns:xlink="http://www.w3.org/1999/xlink" version="1.1" width="98" height="106" viewBox="0 0 98 106">
<defs>
<path id="font_1_1" d="M.42799378 .45222474 .43899537 .49023438H.31199647L.34599305 .6092224 .33399964 .6162262 .23699951 .53923037 .22399903 .49023438H.14299011L.13198853 .45222474H.21499634L.125 .08627319C.10998535 .029266358 .12199402-.01171875 .17199707-.01171875 .2519989-.01171875 .31599427 .054275514 .35598756 .1292572L.33399964 .1462555C.31098939 .10726929 .2599945 .040267946 .22898865 .040267946 .20799256 .040267946 .20799256 .0632782 .21398926 .088272098L.30299378 .45222474H.42799378Z"/>
<path id="font_1_2" d="M.070999149 .45393373 .07398987 .42893983 .14199829 .43093873C.1639862 .43193055 .16899109 .41493226 .1769867 .36291505 .18798828 .28489686 .20999146 .09286499 .20999146 .0128479 .20999146-.017166138 .20799256-.058166505 .18598938-.11117554 .16799927-.15318299 .14199829-.18218994 .12199402-.18218994 .10699463-.18218994 .09599304-.17118836 .08099365-.15118408 .068984989-.13517761 .06098938-.127182 .04598999-.127182 .019989014-.12818909-.005004883-.15818787-.005004883-.18719483-.005004883-.21418762 .023986817-.2421875 .067993167-.2421875 .15299988-.2421875 .18998719-.17919922 .27799989-.027160645 .2979889 .0068511965 .35798646 .11286926 .41999818 .21488953 .47698976 .30891419 .5399933 .40592958 .5399933 .4459381 .5399933 .48094178 .5289917 .5019531 .5219879 .5019531 .5029907 .5019531 .46899415 .49394227 .44400025 .47694398 .44499208 .4419403 .44299317 .3809204 .43099977 .33891297 .4149933 .28289796 .35598756 .17488098 .2899933 .06085205H.2869873C.27999879 .21388245 .26098634 .42492677 .24699402 .49795533L.23899842 .5019531 .070999149 .45393373Z"/>
</defs>
<path transform="matrix(1.00006,0,0,-1.00002,10.655777,56.45289)" stroke-width=".3985" stroke-linecap="butt" stroke-miterlimit="10" stroke-linejoin="miter" fill="none" stroke="#000000" d="M-8.50412 0H84.64192"/>
<path transform="matrix(1.00006,0,0,-1.00002,95.50204,56.45289)" stroke-width=".3985" stroke-linecap="round" stroke-linejoin="round" fill="none" stroke="#000000" d="M-2.07224 2.39104C-1.69365 .95639-.84999 .27895 0 0-.84999-.27895-1.69365-.95639-2.07224-2.39104"/>
<use data-text="t" xlink:href="#font_1_1" transform="matrix(10.037002,0,0,-10.036601,91.64364,66.03708)"/>
<path transform="matrix(1.00006,0,0,-1.00002,10.655777,56.45289)" stroke-width=".3985" stroke-linecap="butt" stroke-miterlimit="10" stroke-linejoin="miter" fill="none" stroke="#000000" d="M0-48.18991V53.46068"/>
<path transform="matrix(0,-1.00002,-1.00006,-0,10.655777,2.791874)" stroke-width=".3985" stroke-linecap="round" stroke-linejoin="round" fill="none" stroke="#000000" d="M-2.07224 2.39104C-1.69365 .95639-.84999 .27895 0 0-.84999-.27895-1.69365-.95639-2.07224-2.39104"/>
<use data-text="y" xlink:href="#font_1_2" transform="matrix(10.037002,0,0,-10.036601,1.6382294,5.761875)"/>
<path transform="matrix(1.00006,0,0,-1.00002,10.655777,56.45289)" stroke-width=".3985" stroke-linecap="butt" stroke-miterlimit="10" stroke-linejoin="miter" fill="none" stroke="#8080ff" d="M-5.66927-45.35506-4.43005-40.40553"/>
<path transform="matrix(1.00006,0,0,-1.00002,10.655777,56.45289)" stroke-width=".3985" stroke-linecap="butt" stroke-miterlimit="10" stroke-linejoin="miter" fill="none" stroke="#8080ff" d="M-5.66927-41.2321-3.67915-36.53432"/>
<path transform="matrix(1.00006,0,0,-1.00002,10.655777,56.45289)" stroke-width=".3985" stroke-linecap="butt" stroke-miterlimit="10" stroke-linejoin="miter" fill="none" stroke="#8080ff" d="M-5.66927-37.10915-2.44038-33.1605"/>
<path transform="matrix(1.00006,0,0,-1.00002,10.655777,56.45289)" stroke-width=".3985" stroke-linecap="butt" stroke-miterlimit="10" stroke-linejoin="miter" fill="none" stroke="#8080ff" d="M-5.66927-32.9862-1.0714-30.7807"/>
<path transform="matrix(1.00006,0,0,-1.00002,10.655777,56.45289)" stroke-width=".3985" stroke-linecap="butt" stroke-miterlimit="10" stroke-linejoin="miter" fill="none" stroke="#8080ff" d="M-5.66927-28.86325-.57529-28.67337"/>
<path transform="matrix(1.00006,0,0,-1.00002,10.655777,56.45289)" stroke-width=".3985" stroke-linecap="butt" stroke-miterlimit="10" stroke-linejoin="miter" fill="none" stroke="#8080ff" d="M-5.66927-24.7403-.65184-25.65079"/>
<path transform="matrix(1.00006,0,0,-1.00002,10.655777,56.45289)" stroke-width=".3985" stroke-linecap="butt" stroke-miterlimit="10" stroke-linejoin="miter" fill="none" stroke="#8080ff" d="M-5.66927-20.61734-.71974-21.8505"/>
<path transform="matrix(1.00006,0,0,-1.00002,10.655777,56.45289)" stroke-width=".3985" stroke-linecap="butt" stroke-miterlimit="10" stroke-linejoin="miter" fill="none" stroke="#8080ff" d="M-5.66927-16.49438-.69421-17.60902"/>
<path transform="matrix(1.00006,0,0,-1.00002,10.655777,56.45289)" stroke-width=".3985" stroke-linecap="butt" stroke-miterlimit="10" stroke-linejoin="miter" fill="none" stroke="#8080ff" d="M-5.66927-12.37144-.62933-13.14827"/>
<path transform="matrix(1.00006,0,0,-1.00002,10.655777,56.45289)" stroke-width=".3985" stroke-linecap="butt" stroke-miterlimit="10" stroke-linejoin="miter" fill="none" stroke="#8080ff" d="M-5.66927-8.24847-.58392-8.64207"/>
<path transform="matrix(1.00006,0,0,-1.00002,10.655777,56.45289)" stroke-width=".3985" stroke-linecap="butt" stroke-miterlimit="10" stroke-linejoin="miter" fill="none" stroke="#8080ff" d="M-5.66927-4.12553-.56706-4.23106"/>
<path transform="matrix(1.00006,0,0,-1.00002,10.655777,56.45289)" stroke-width=".3985" stroke-linecap="butt" stroke-miterlimit="10" stroke-linejoin="miter" fill="none" stroke="#8080ff" d="M-5.66927-.00258H-.56706"/>
<path transform="matrix(1.00006,0,0,-1.00002,10.655777,56.45289)" stroke-width=".3985" stroke-linecap="butt" stroke-miterlimit="10" stroke-linejoin="miter" fill="none" stroke="#8080ff" d="M-5.66927 4.12033-.56706 4.2224"/>
<path transform="matrix(1.00006,0,0,-1.00002,10.655777,56.45289)" stroke-width=".3985" stroke-linecap="butt" stroke-miterlimit="10" stroke-linejoin="miter" fill="none" stroke="#8080ff" d="M-5.66927 8.2433-.58392 8.63431"/>
<path transform="matrix(1.00006,0,0,-1.00002,10.655777,56.45289)" stroke-width=".3985" stroke-linecap="butt" stroke-miterlimit="10" stroke-linejoin="miter" fill="none" stroke="#8080ff" d="M-5.66927 12.36624-.62933 13.14308"/>
<path transform="matrix(1.00006,0,0,-1.00002,10.655777,56.45289)" stroke-width=".3985" stroke-linecap="butt" stroke-miterlimit="10" stroke-linejoin="miter" fill="none" stroke="#8080ff" d="M-5.66927 16.4892-.69421 17.60341"/>
<path transform="matrix(1.00006,0,0,-1.00002,10.655777,56.45289)" stroke-width=".3985" stroke-linecap="butt" stroke-miterlimit="10" stroke-linejoin="miter" fill="none" stroke="#8080ff" d="M-5.66927 20.61215-.71974 21.8453"/>
<path transform="matrix(1.00006,0,0,-1.00002,10.655777,56.45289)" stroke-width=".3985" stroke-linecap="butt" stroke-miterlimit="10" stroke-linejoin="miter" fill="none" stroke="#8080ff" d="M-5.66927 24.7351-.65184 25.64516"/>
<path transform="matrix(1.00006,0,0,-1.00002,10.655777,56.45289)" stroke-width=".3985" stroke-linecap="butt" stroke-miterlimit="10" stroke-linejoin="miter" fill="none" stroke="#8080ff" d="M-5.66927 28.85806-.57529 28.66689"/>
<path transform="matrix(1.00006,0,0,-1.00002,10.655777,56.45289)" stroke-width=".3985" stroke-linecap="butt" stroke-miterlimit="10" stroke-linejoin="miter" fill="none" stroke="#8080ff" d="M-5.66927 32.981-1.0688 30.7781"/>
<path transform="matrix(1.00006,0,0,-1.00002,10.655777,56.45289)" stroke-width=".3985" stroke-linecap="butt" stroke-miterlimit="10" stroke-linejoin="miter" fill="none" stroke="#8080ff" d="M-5.66927 37.10396-2.43736 33.15619"/>
<path transform="matrix(1.00006,0,0,-1.00002,10.655777,56.45289)" stroke-width=".3985" stroke-linecap="butt" stroke-miterlimit="10" stroke-linejoin="miter" fill="none" stroke="#8080ff" d="M-5.66927 41.22691-3.67831 36.52956"/>
<path transform="matrix(1.00006,0,0,-1.00002,10.655777,56.45289)" stroke-width=".3985" stroke-linecap="butt" stroke-miterlimit="10" stroke-linejoin="miter" fill="none" stroke="#8080ff" d="M-5.66927 45.34987-4.42963 40.40121"/>
<path transform="matrix(1.00006,0,0,-1.00002,10.655777,56.45289)" stroke-width=".3985" stroke-linecap="butt" stroke-miterlimit="10" stroke-linejoin="miter" fill="none" stroke="#8080ff" d="M3.89758-45.35506 5.1368-40.40553"/>
<path transform="matrix(1.00006,0,0,-1.00002,10.655777,56.45289)" stroke-width=".3985" stroke-linecap="butt" stroke-miterlimit="10" stroke-linejoin="miter" fill="none" stroke="#8080ff" d="M3.89758-41.2321 5.8877-36.53432"/>
<path transform="matrix(1.00006,0,0,-1.00002,10.655777,56.45289)" stroke-width=".3985" stroke-linecap="butt" stroke-miterlimit="10" stroke-linejoin="miter" fill="none" stroke="#8080ff" d="M3.89758-37.10915 7.12646-33.1605"/>
<path transform="matrix(1.00006,0,0,-1.00002,10.655777,56.45289)" stroke-width=".3985" stroke-linecap="butt" stroke-miterlimit="10" stroke-linejoin="miter" fill="none" stroke="#8080ff" d="M3.89758-32.9862 8.49545-30.7807"/>
<path transform="matrix(1.00006,0,0,-1.00002,10.655777,56.45289)" stroke-width=".3985" stroke-linecap="butt" stroke-miterlimit="10" stroke-linejoin="miter" fill="none" stroke="#8080ff" d="M3.89758-28.86325 8.99156-28.67337"/>
<path transform="matrix(1.00006,0,0,-1.00002,10.655777,56.45289)" stroke-width=".3985" stroke-linecap="butt" stroke-miterlimit="10" stroke-linejoin="miter" fill="none" stroke="#8080ff" d="M3.89758-24.7403 8.91501-25.65079"/>
<path transform="matrix(1.00006,0,0,-1.00002,10.655777,56.45289)" stroke-width=".3985" stroke-linecap="butt" stroke-miterlimit="10" stroke-linejoin="miter" fill="none" stroke="#8080ff" d="M3.89758-20.61734 8.8471-21.8505"/>
<path transform="matrix(1.00006,0,0,-1.00002,10.655777,56.45289)" stroke-width=".3985" stroke-linecap="butt" stroke-miterlimit="10" stroke-linejoin="miter" fill="none" stroke="#8080ff" d="M3.89758-16.49438 8.87262-17.60902"/>
<path transform="matrix(1.00006,0,0,-1.00002,10.655777,56.45289)" stroke-width=".3985" stroke-linecap="butt" stroke-miterlimit="10" stroke-linejoin="miter" fill="none" stroke="#8080ff" d="M3.89758-12.37144 8.93752-13.14827"/>
<path transform="matrix(1.00006,0,0,-1.00002,10.655777,56.45289)" stroke-width=".3985" stroke-linecap="butt" stroke-miterlimit="10" stroke-linejoin="miter" fill="none" stroke="#8080ff" d="M3.89758-8.24847 8.98291-8.64207"/>
<path transform="matrix(1.00006,0,0,-1.00002,10.655777,56.45289)" stroke-width=".3985" stroke-linecap="butt" stroke-miterlimit="10" stroke-linejoin="miter" fill="none" stroke="#8080ff" d="M3.89758-4.12553 8.99979-4.23106"/>
<path transform="matrix(1.00006,0,0,-1.00002,10.655777,56.45289)" stroke-width=".3985" stroke-linecap="butt" stroke-miterlimit="10" stroke-linejoin="miter" fill="none" stroke="#8080ff" d="M3.89758-.00258H8.99979"/>
<path transform="matrix(1.00006,0,0,-1.00002,10.655777,56.45289)" stroke-width=".3985" stroke-linecap="butt" stroke-miterlimit="10" stroke-linejoin="miter" fill="none" stroke="#8080ff" d="M3.89758 4.12033 8.99979 4.2224"/>
<path transform="matrix(1.00006,0,0,-1.00002,10.655777,56.45289)" stroke-width=".3985" stroke-linecap="butt" stroke-miterlimit="10" stroke-linejoin="miter" fill="none" stroke="#8080ff" d="M3.89758 8.2433 8.98291 8.63431"/>
<path transform="matrix(1.00006,0,0,-1.00002,10.655777,56.45289)" stroke-width=".3985" stroke-linecap="butt" stroke-miterlimit="10" stroke-linejoin="miter" fill="none" stroke="#8080ff" d="M3.89758 12.36624 8.93752 13.14308"/>
<path transform="matrix(1.00006,0,0,-1.00002,10.655777,56.45289)" stroke-width=".3985" stroke-linecap="butt" stroke-miterlimit="10" stroke-linejoin="miter" fill="none" stroke="#8080ff" d="M3.89758 16.4892 8.87262 17.60341"/>
<path transform="matrix(1.00006,0,0,-1.00002,10.655777,56.45289)" stroke-width=".3985" stroke-linecap="butt" stroke-miterlimit="10" stroke-linejoin="miter" fill="none" stroke="#8080ff" d="M3.89758 20.61215 8.8471 21.8453"/>
<path transform="matrix(1.00006,0,0,-1.00002,10.655777,56.45289)" stroke-width=".3985" stroke-linecap="butt" stroke-miterlimit="10" stroke-linejoin="miter" fill="none" stroke="#8080ff" d="M3.89758 24.7351 8.91501 25.64516"/>
<path transform="matrix(1.00006,0,0,-1.00002,10.655777,56.45289)" stroke-width=".3985" stroke-linecap="butt" stroke-miterlimit="10" stroke-linejoin="miter" fill="none" stroke="#8080ff" d="M3.89758 28.85806 8.99156 28.66689"/>
<path transform="matrix(1.00006,0,0,-1.00002,10.655777,56.45289)" stroke-width=".3985" stroke-linecap="butt" stroke-miterlimit="10" stroke-linejoin="miter" fill="none" stroke="#8080ff" d="M3.89758 32.981 8.49805 30.7781"/>
<path transform="matrix(1.00006,0,0,-1.00002,10.655777,56.45289)" stroke-width=".3985" stroke-linecap="butt" stroke-miterlimit="10" stroke-linejoin="miter" fill="none" stroke="#8080ff" d="M3.89758 37.10396 7.12949 33.15619"/>
<path transform="matrix(1.00006,0,0,-1.00002,10.655777,56.45289)" stroke-width=".3985" stroke-linecap="butt" stroke-miterlimit="10" stroke-linejoin="miter" fill="none" stroke="#8080ff" d="M3.89758 41.22691 5.88853 36.52956"/>
<path transform="matrix(1.00006,0,0,-1.00002,10.655777,56.45289)" stroke-width=".3985" stroke-linecap="butt" stroke-miterlimit="10" stroke-linejoin="miter" fill="none" stroke="#8080ff" d="M3.89758 45.34987 5.13722 40.40121"/>
<path transform="matrix(1.00006,0,0,-1.00002,10.655777,56.45289)" stroke-width=".3985" stroke-linecap="butt" stroke-miterlimit="10" stroke-linejoin="miter" fill="none" stroke="#8080ff" d="M13.46446-45.35506 14.70367-40.40553"/>
<path transform="matrix(1.00006,0,0,-1.00002,10.655777,56.45289)" stroke-width=".3985" stroke-linecap="butt" stroke-miterlimit="10" stroke-linejoin="miter" fill="none" stroke="#8080ff" d="M13.46446-41.2321 15.45456-36.53432"/>
<path transform="matrix(1.00006,0,0,-1.00002,10.655777,56.45289)" stroke-width=".3985" stroke-linecap="butt" stroke-miterlimit="10" stroke-linejoin="miter" fill="none" stroke="#8080ff" d="M13.46446-37.10915 16.69334-33.1605"/>
<path transform="matrix(1.00006,0,0,-1.00002,10.655777,56.45289)" stroke-width=".3985" stroke-linecap="butt" stroke-miterlimit="10" stroke-linejoin="miter" fill="none" stroke="#8080ff" d="M13.46446-32.9862 18.06233-30.7807"/>
<path transform="matrix(1.00006,0,0,-1.00002,10.655777,56.45289)" stroke-width=".3985" stroke-linecap="butt" stroke-miterlimit="10" stroke-linejoin="miter" fill="none" stroke="#8080ff" d="M13.46446-28.86325 18.55844-28.67337"/>
<path transform="matrix(1.00006,0,0,-1.00002,10.655777,56.45289)" stroke-width=".3985" stroke-linecap="butt" stroke-miterlimit="10" stroke-linejoin="miter" fill="none" stroke="#8080ff" d="M13.46446-24.7403 18.48189-25.65079"/>
<path transform="matrix(1.00006,0,0,-1.00002,10.655777,56.45289)" stroke-width=".3985" stroke-linecap="butt" stroke-miterlimit="10" stroke-linejoin="miter" fill="none" stroke="#8080ff" d="M13.46446-20.61734 18.41399-21.8505"/>
<path transform="matrix(1.00006,0,0,-1.00002,10.655777,56.45289)" stroke-width=".3985" stroke-linecap="butt" stroke-miterlimit="10" stroke-linejoin="miter" fill="none" stroke="#8080ff" d="M13.46446-16.49438 18.4395-17.60902"/>
<path transform="matrix(1.00006,0,0,-1.00002,10.655777,56.45289)" stroke-width=".3985" stroke-linecap="butt" stroke-miterlimit="10" stroke-linejoin="miter" fill="none" stroke="#8080ff" d="M13.46446-12.37144 18.5044-13.14827"/>
<path transform="matrix(1.00006,0,0,-1.00002,10.655777,56.45289)" stroke-width=".3985" stroke-linecap="butt" stroke-miterlimit="10" stroke-linejoin="miter" fill="none" stroke="#8080ff" d="M13.46446-8.24847 18.54979-8.64207"/>
<path transform="matrix(1.00006,0,0,-1.00002,10.655777,56.45289)" stroke-width=".3985" stroke-linecap="butt" stroke-miterlimit="10" stroke-linejoin="miter" fill="none" stroke="#8080ff" d="M13.46446-4.12553 18.56667-4.23106"/>
<path transform="matrix(1.00006,0,0,-1.00002,10.655777,56.45289)" stroke-width=".3985" stroke-linecap="butt" stroke-miterlimit="10" stroke-linejoin="miter" fill="none" stroke="#8080ff" d="M13.46446-.00258H18.56667"/>
<path transform="matrix(1.00006,0,0,-1.00002,10.655777,56.45289)" stroke-width=".3985" stroke-linecap="butt" stroke-miterlimit="10" stroke-linejoin="miter" fill="none" stroke="#8080ff" d="M13.46446 4.12033 18.56667 4.2224"/>
<path transform="matrix(1.00006,0,0,-1.00002,10.655777,56.45289)" stroke-width=".3985" stroke-linecap="butt" stroke-miterlimit="10" stroke-linejoin="miter" fill="none" stroke="#8080ff" d="M13.46446 8.2433 18.54979 8.63431"/>
<path transform="matrix(1.00006,0,0,-1.00002,10.655777,56.45289)" stroke-width=".3985" stroke-linecap="butt" stroke-miterlimit="10" stroke-linejoin="miter" fill="none" stroke="#8080ff" d="M13.46446 12.36624 18.5044 13.14308"/>
<path transform="matrix(1.00006,0,0,-1.00002,10.655777,56.45289)" stroke-width=".3985" stroke-linecap="butt" stroke-miterlimit="10" stroke-linejoin="miter" fill="none" stroke="#8080ff" d="M13.46446 16.4892 18.4395 17.60341"/>
<path transform="matrix(1.00006,0,0,-1.00002,10.655777,56.45289)" stroke-width=".3985" stroke-linecap="butt" stroke-miterlimit="10" stroke-linejoin="miter" fill="none" stroke="#8080ff" d="M13.46446 20.61215 18.41399 21.8453"/>
<path transform="matrix(1.00006,0,0,-1.00002,10.655777,56.45289)" stroke-width=".3985" stroke-linecap="butt" stroke-miterlimit="10" stroke-linejoin="miter" fill="none" stroke="#8080ff" d="M13.46446 24.7351 18.48189 25.64516"/>
<path transform="matrix(1.00006,0,0,-1.00002,10.655777,56.45289)" stroke-width=".3985" stroke-linecap="butt" stroke-miterlimit="10" stroke-linejoin="miter" fill="none" stroke="#8080ff" d="M13.46446 28.85806 18.55844 28.66689"/>
<path transform="matrix(1.00006,0,0,-1.00002,10.655777,56.45289)" stroke-width=".3985" stroke-linecap="butt" stroke-miterlimit="10" stroke-linejoin="miter" fill="none" stroke="#8080ff" d="M13.46446 32.981 18.06493 30.7781"/>
<path transform="matrix(1.00006,0,0,-1.00002,10.655777,56.45289)" stroke-width=".3985" stroke-linecap="butt" stroke-miterlimit="10" stroke-linejoin="miter" fill="none" stroke="#8080ff" d="M13.46446 37.10396 16.69637 33.15619"/>
<path transform="matrix(1.00006,0,0,-1.00002,10.655777,56.45289)" stroke-width=".3985" stroke-linecap="butt" stroke-miterlimit="10" stroke-linejoin="miter" fill="none" stroke="#8080ff" d="M13.46446 41.22691 15.45541 36.52956"/>
<path transform="matrix(1.00006,0,0,-1.00002,10.655777,56.45289)" stroke-width=".3985" stroke-linecap="butt" stroke-miterlimit="10" stroke-linejoin="miter" fill="none" stroke="#8080ff" d="M13.46446 45.34987 14.7041 40.40121"/>
<path transform="matrix(1.00006,0,0,-1.00002,10.655777,56.45289)" stroke-width=".3985" stroke-linecap="butt" stroke-miterlimit="10" stroke-linejoin="miter" fill="none" stroke="#8080ff" d="M23.03134-45.35506 24.27055-40.40553"/>
<path transform="matrix(1.00006,0,0,-1.00002,10.655777,56.45289)" stroke-width=".3985" stroke-linecap="butt" stroke-miterlimit="10" stroke-linejoin="miter" fill="none" stroke="#8080ff" d="M23.03134-41.2321 25.02144-36.53432"/>
<path transform="matrix(1.00006,0,0,-1.00002,10.655777,56.45289)" stroke-width=".3985" stroke-linecap="butt" stroke-miterlimit="10" stroke-linejoin="miter" fill="none" stroke="#8080ff" d="M23.03134-37.10915 26.26022-33.1605"/>
<path transform="matrix(1.00006,0,0,-1.00002,10.655777,56.45289)" stroke-width=".3985" stroke-linecap="butt" stroke-miterlimit="10" stroke-linejoin="miter" fill="none" stroke="#8080ff" d="M23.03134-32.9862 27.62921-30.7807"/>
<path transform="matrix(1.00006,0,0,-1.00002,10.655777,56.45289)" stroke-width=".3985" stroke-linecap="butt" stroke-miterlimit="10" stroke-linejoin="miter" fill="none" stroke="#8080ff" d="M23.03134-28.86325 28.12532-28.67337"/>
<path transform="matrix(1.00006,0,0,-1.00002,10.655777,56.45289)" stroke-width=".3985" stroke-linecap="butt" stroke-miterlimit="10" stroke-linejoin="miter" fill="none" stroke="#8080ff" d="M23.03134-24.7403 28.04877-25.65079"/>
<path transform="matrix(1.00006,0,0,-1.00002,10.655777,56.45289)" stroke-width=".3985" stroke-linecap="butt" stroke-miterlimit="10" stroke-linejoin="miter" fill="none" stroke="#8080ff" d="M23.03134-20.61734 27.98087-21.8505"/>
<path transform="matrix(1.00006,0,0,-1.00002,10.655777,56.45289)" stroke-width=".3985" stroke-linecap="butt" stroke-miterlimit="10" stroke-linejoin="miter" fill="none" stroke="#8080ff" d="M23.03134-16.49438 28.00638-17.60902"/>
<path transform="matrix(1.00006,0,0,-1.00002,10.655777,56.45289)" stroke-width=".3985" stroke-linecap="butt" stroke-miterlimit="10" stroke-linejoin="miter" fill="none" stroke="#8080ff" d="M23.03134-12.37144 28.07127-13.14827"/>
<path transform="matrix(1.00006,0,0,-1.00002,10.655777,56.45289)" stroke-width=".3985" stroke-linecap="butt" stroke-miterlimit="10" stroke-linejoin="miter" fill="none" stroke="#8080ff" d="M23.03134-8.24847 28.11667-8.64207"/>
<path transform="matrix(1.00006,0,0,-1.00002,10.655777,56.45289)" stroke-width=".3985" stroke-linecap="butt" stroke-miterlimit="10" stroke-linejoin="miter" fill="none" stroke="#8080ff" d="M23.03134-4.12553 28.13354-4.23106"/>
<path transform="matrix(1.00006,0,0,-1.00002,10.655777,56.45289)" stroke-width=".3985" stroke-linecap="butt" stroke-miterlimit="10" stroke-linejoin="miter" fill="none" stroke="#8080ff" d="M23.03134-.00258H28.13354"/>
<path transform="matrix(1.00006,0,0,-1.00002,10.655777,56.45289)" stroke-width=".3985" stroke-linecap="butt" stroke-miterlimit="10" stroke-linejoin="miter" fill="none" stroke="#8080ff" d="M23.03134 4.12033 28.13354 4.2224"/>
<path transform="matrix(1.00006,0,0,-1.00002,10.655777,56.45289)" stroke-width=".3985" stroke-linecap="butt" stroke-miterlimit="10" stroke-linejoin="miter" fill="none" stroke="#8080ff" d="M23.03134 8.2433 28.11667 8.63431"/>
<path transform="matrix(1.00006,0,0,-1.00002,10.655777,56.45289)" stroke-width=".3985" stroke-linecap="butt" stroke-miterlimit="10" stroke-linejoin="miter" fill="none" stroke="#8080ff" d="M23.03134 12.36624 28.07127 13.14308"/>
<path transform="matrix(1.00006,0,0,-1.00002,10.655777,56.45289)" stroke-width=".3985" stroke-linecap="butt" stroke-miterlimit="10" stroke-linejoin="miter" fill="none" stroke="#8080ff" d="M23.03134 16.4892 28.00638 17.60341"/>
<path transform="matrix(1.00006,0,0,-1.00002,10.655777,56.45289)" stroke-width=".3985" stroke-linecap="butt" stroke-miterlimit="10" stroke-linejoin="miter" fill="none" stroke="#8080ff" d="M23.03134 20.61215 27.98087 21.8453"/>
<path transform="matrix(1.00006,0,0,-1.00002,10.655777,56.45289)" stroke-width=".3985" stroke-linecap="butt" stroke-miterlimit="10" stroke-linejoin="miter" fill="none" stroke="#8080ff" d="M23.03134 24.7351 28.04877 25.64516"/>
<path transform="matrix(1.00006,0,0,-1.00002,10.655777,56.45289)" stroke-width=".3985" stroke-linecap="butt" stroke-miterlimit="10" stroke-linejoin="miter" fill="none" stroke="#8080ff" d="M23.03134 28.85806 28.12532 28.66689"/>
<path transform="matrix(1.00006,0,0,-1.00002,10.655777,56.45289)" stroke-width=".3985" stroke-linecap="butt" stroke-miterlimit="10" stroke-linejoin="miter" fill="none" stroke="#8080ff" d="M23.03134 32.981 27.6318 30.7781"/>
<path transform="matrix(1.00006,0,0,-1.00002,10.655777,56.45289)" stroke-width=".3985" stroke-linecap="butt" stroke-miterlimit="10" stroke-linejoin="miter" fill="none" stroke="#8080ff" d="M23.03134 37.10396 26.26324 33.15619"/>
<path transform="matrix(1.00006,0,0,-1.00002,10.655777,56.45289)" stroke-width=".3985" stroke-linecap="butt" stroke-miterlimit="10" stroke-linejoin="miter" fill="none" stroke="#8080ff" d="M23.03134 41.22691 25.0223 36.52956"/>
<path transform="matrix(1.00006,0,0,-1.00002,10.655777,56.45289)" stroke-width=".3985" stroke-linecap="butt" stroke-miterlimit="10" stroke-linejoin="miter" fill="none" stroke="#8080ff" d="M23.03134 45.34987 24.27098 40.40121"/>
<path transform="matrix(1.00006,0,0,-1.00002,10.655777,56.45289)" stroke-width=".3985" stroke-linecap="butt" stroke-miterlimit="10" stroke-linejoin="miter" fill="none" stroke="#8080ff" d="M32.59822-45.35506 33.83743-40.40553"/>
<path transform="matrix(1.00006,0,0,-1.00002,10.655777,56.45289)" stroke-width=".3985" stroke-linecap="butt" stroke-miterlimit="10" stroke-linejoin="miter" fill="none" stroke="#8080ff" d="M32.59822-41.2321 34.58832-36.53432"/>
<path transform="matrix(1.00006,0,0,-1.00002,10.655777,56.45289)" stroke-width=".3985" stroke-linecap="butt" stroke-miterlimit="10" stroke-linejoin="miter" fill="none" stroke="#8080ff" d="M32.59822-37.10915 35.8271-33.1605"/>
<path transform="matrix(1.00006,0,0,-1.00002,10.655777,56.45289)" stroke-width=".3985" stroke-linecap="butt" stroke-miterlimit="10" stroke-linejoin="miter" fill="none" stroke="#8080ff" d="M32.59822-32.9862 37.19609-30.7807"/>
<path transform="matrix(1.00006,0,0,-1.00002,10.655777,56.45289)" stroke-width=".3985" stroke-linecap="butt" stroke-miterlimit="10" stroke-linejoin="miter" fill="none" stroke="#8080ff" d="M32.59822-28.86325 37.6922-28.67337"/>
<path transform="matrix(1.00006,0,0,-1.00002,10.655777,56.45289)" stroke-width=".3985" stroke-linecap="butt" stroke-miterlimit="10" stroke-linejoin="miter" fill="none" stroke="#8080ff" d="M32.59822-24.7403 37.61565-25.65079"/>
<path transform="matrix(1.00006,0,0,-1.00002,10.655777,56.45289)" stroke-width=".3985" stroke-linecap="butt" stroke-miterlimit="10" stroke-linejoin="miter" fill="none" stroke="#8080ff" d="M32.59822-20.61734 37.54774-21.8505"/>
<path transform="matrix(1.00006,0,0,-1.00002,10.655777,56.45289)" stroke-width=".3985" stroke-linecap="butt" stroke-miterlimit="10" stroke-linejoin="miter" fill="none" stroke="#8080ff" d="M32.59822-16.49438 37.57326-17.60902"/>
<path transform="matrix(1.00006,0,0,-1.00002,10.655777,56.45289)" stroke-width=".3985" stroke-linecap="butt" stroke-miterlimit="10" stroke-linejoin="miter" fill="none" stroke="#8080ff" d="M32.59822-12.37144 37.63814-13.14827"/>
<path transform="matrix(1.00006,0,0,-1.00002,10.655777,56.45289)" stroke-width=".3985" stroke-linecap="butt" stroke-miterlimit="10" stroke-linejoin="miter" fill="none" stroke="#8080ff" d="M32.59822-8.24847 37.68355-8.64207"/>
<path transform="matrix(1.00006,0,0,-1.00002,10.655777,56.45289)" stroke-width=".3985" stroke-linecap="butt" stroke-miterlimit="10" stroke-linejoin="miter" fill="none" stroke="#8080ff" d="M32.59822-4.12553 37.70042-4.23106"/>
<path transform="matrix(1.00006,0,0,-1.00002,10.655777,56.45289)" stroke-width=".3985" stroke-linecap="butt" stroke-miterlimit="10" stroke-linejoin="miter" fill="none" stroke="#8080ff" d="M32.59822-.00258H37.70042"/>
<path transform="matrix(1.00006,0,0,-1.00002,10.655777,56.45289)" stroke-width=".3985" stroke-linecap="butt" stroke-miterlimit="10" stroke-linejoin="miter" fill="none" stroke="#8080ff" d="M32.59822 4.12033 37.70042 4.2224"/>
<path transform="matrix(1.00006,0,0,-1.00002,10.655777,56.45289)" stroke-width=".3985" stroke-linecap="butt" stroke-miterlimit="10" stroke-linejoin="miter" fill="none" stroke="#8080ff" d="M32.59822 8.2433 37.68355 8.63431"/>
<path transform="matrix(1.00006,0,0,-1.00002,10.655777,56.45289)" stroke-width=".3985" stroke-linecap="butt" stroke-miterlimit="10" stroke-linejoin="miter" fill="none" stroke="#8080ff" d="M32.59822 12.36624 37.63814 13.14308"/>
<path transform="matrix(1.00006,0,0,-1.00002,10.655777,56.45289)" stroke-width=".3985" stroke-linecap="butt" stroke-miterlimit="10" stroke-linejoin="miter" fill="none" stroke="#8080ff" d="M32.59822 16.4892 37.57326 17.60341"/>
<path transform="matrix(1.00006,0,0,-1.00002,10.655777,56.45289)" stroke-width=".3985" stroke-linecap="butt" stroke-miterlimit="10" stroke-linejoin="miter" fill="none" stroke="#8080ff" d="M32.59822 20.61215 37.54774 21.8453"/>
<path transform="matrix(1.00006,0,0,-1.00002,10.655777,56.45289)" stroke-width=".3985" stroke-linecap="butt" stroke-miterlimit="10" stroke-linejoin="miter" fill="none" stroke="#8080ff" d="M32.59822 24.7351 37.61565 25.64516"/>
<path transform="matrix(1.00006,0,0,-1.00002,10.655777,56.45289)" stroke-width=".3985" stroke-linecap="butt" stroke-miterlimit="10" stroke-linejoin="miter" fill="none" stroke="#8080ff" d="M32.59822 28.85806 37.6922 28.66689"/>
<path transform="matrix(1.00006,0,0,-1.00002,10.655777,56.45289)" stroke-width=".3985" stroke-linecap="butt" stroke-miterlimit="10" stroke-linejoin="miter" fill="none" stroke="#8080ff" d="M32.59822 32.981 37.19868 30.7781"/>
<path transform="matrix(1.00006,0,0,-1.00002,10.655777,56.45289)" stroke-width=".3985" stroke-linecap="butt" stroke-miterlimit="10" stroke-linejoin="miter" fill="none" stroke="#8080ff" d="M32.59822 37.10396 35.83012 33.15619"/>
<path transform="matrix(1.00006,0,0,-1.00002,10.655777,56.45289)" stroke-width=".3985" stroke-linecap="butt" stroke-miterlimit="10" stroke-linejoin="miter" fill="none" stroke="#8080ff" d="M32.59822 41.22691 34.58917 36.52956"/>
<path transform="matrix(1.00006,0,0,-1.00002,10.655777,56.45289)" stroke-width=".3985" stroke-linecap="butt" stroke-miterlimit="10" stroke-linejoin="miter" fill="none" stroke="#8080ff" d="M32.59822 45.34987 33.83786 40.40121"/>
<path transform="matrix(1.00006,0,0,-1.00002,10.655777,56.45289)" stroke-width=".3985" stroke-linecap="butt" stroke-miterlimit="10" stroke-linejoin="miter" fill="none" stroke="#8080ff" d="M42.16508-45.35506 43.4043-40.40553"/>
<path transform="matrix(1.00006,0,0,-1.00002,10.655777,56.45289)" stroke-width=".3985" stroke-linecap="butt" stroke-miterlimit="10" stroke-linejoin="miter" fill="none" stroke="#8080ff" d="M42.16508-41.2321 44.15518-36.53432"/>
<path transform="matrix(1.00006,0,0,-1.00002,10.655777,56.45289)" stroke-width=".3985" stroke-linecap="butt" stroke-miterlimit="10" stroke-linejoin="miter" fill="none" stroke="#8080ff" d="M42.16508-37.10915 45.39397-33.1605"/>
<path transform="matrix(1.00006,0,0,-1.00002,10.655777,56.45289)" stroke-width=".3985" stroke-linecap="butt" stroke-miterlimit="10" stroke-linejoin="miter" fill="none" stroke="#8080ff" d="M42.16508-32.9862 46.76295-30.7807"/>
<path transform="matrix(1.00006,0,0,-1.00002,10.655777,56.45289)" stroke-width=".3985" stroke-linecap="butt" stroke-miterlimit="10" stroke-linejoin="miter" fill="none" stroke="#8080ff" d="M42.16508-28.86325 47.25906-28.67337"/>
<path transform="matrix(1.00006,0,0,-1.00002,10.655777,56.45289)" stroke-width=".3985" stroke-linecap="butt" stroke-miterlimit="10" stroke-linejoin="miter" fill="none" stroke="#8080ff" d="M42.16508-24.7403 47.18251-25.65079"/>
<path transform="matrix(1.00006,0,0,-1.00002,10.655777,56.45289)" stroke-width=".3985" stroke-linecap="butt" stroke-miterlimit="10" stroke-linejoin="miter" fill="none" stroke="#8080ff" d="M42.16508-20.61734 47.11461-21.8505"/>
<path transform="matrix(1.00006,0,0,-1.00002,10.655777,56.45289)" stroke-width=".3985" stroke-linecap="butt" stroke-miterlimit="10" stroke-linejoin="miter" fill="none" stroke="#8080ff" d="M42.16508-16.49438 47.14012-17.60902"/>
<path transform="matrix(1.00006,0,0,-1.00002,10.655777,56.45289)" stroke-width=".3985" stroke-linecap="butt" stroke-miterlimit="10" stroke-linejoin="miter" fill="none" stroke="#8080ff" d="M42.16508-12.37144 47.205-13.14827"/>
<path transform="matrix(1.00006,0,0,-1.00002,10.655777,56.45289)" stroke-width=".3985" stroke-linecap="butt" stroke-miterlimit="10" stroke-linejoin="miter" fill="none" stroke="#8080ff" d="M42.16508-8.24847 47.25041-8.64207"/>
<path transform="matrix(1.00006,0,0,-1.00002,10.655777,56.45289)" stroke-width=".3985" stroke-linecap="butt" stroke-miterlimit="10" stroke-linejoin="miter" fill="none" stroke="#8080ff" d="M42.16508-4.12553 47.26729-4.23106"/>
<path transform="matrix(1.00006,0,0,-1.00002,10.655777,56.45289)" stroke-width=".3985" stroke-linecap="butt" stroke-miterlimit="10" stroke-linejoin="miter" fill="none" stroke="#8080ff" d="M42.16508-.00258H47.26729"/>
<path transform="matrix(1.00006,0,0,-1.00002,10.655777,56.45289)" stroke-width=".3985" stroke-linecap="butt" stroke-miterlimit="10" stroke-linejoin="miter" fill="none" stroke="#8080ff" d="M42.16508 4.12033 47.26729 4.2224"/>
<path transform="matrix(1.00006,0,0,-1.00002,10.655777,56.45289)" stroke-width=".3985" stroke-linecap="butt" stroke-miterlimit="10" stroke-linejoin="miter" fill="none" stroke="#8080ff" d="M42.16508 8.2433 47.25041 8.63431"/>
<path transform="matrix(1.00006,0,0,-1.00002,10.655777,56.45289)" stroke-width=".3985" stroke-linecap="butt" stroke-miterlimit="10" stroke-linejoin="miter" fill="none" stroke="#8080ff" d="M42.16508 12.36624 47.205 13.14308"/>
<path transform="matrix(1.00006,0,0,-1.00002,10.655777,56.45289)" stroke-width=".3985" stroke-linecap="butt" stroke-miterlimit="10" stroke-linejoin="miter" fill="none" stroke="#8080ff" d="M42.16508 16.4892 47.14012 17.60341"/>
<path transform="matrix(1.00006,0,0,-1.00002,10.655777,56.45289)" stroke-width=".3985" stroke-linecap="butt" stroke-miterlimit="10" stroke-linejoin="miter" fill="none" stroke="#8080ff" d="M42.16508 20.61215 47.11461 21.8453"/>
<path transform="matrix(1.00006,0,0,-1.00002,10.655777,56.45289)" stroke-width=".3985" stroke-linecap="butt" stroke-miterlimit="10" stroke-linejoin="miter" fill="none" stroke="#8080ff" d="M42.16508 24.7351 47.18251 25.64516"/>
<path transform="matrix(1.00006,0,0,-1.00002,10.655777,56.45289)" stroke-width=".3985" stroke-linecap="butt" stroke-miterlimit="10" stroke-linejoin="miter" fill="none" stroke="#8080ff" d="M42.16508 28.85806 47.25906 28.66689"/>
<path transform="matrix(1.00006,0,0,-1.00002,10.655777,56.45289)" stroke-width=".3985" stroke-linecap="butt" stroke-miterlimit="10" stroke-linejoin="miter" fill="none" stroke="#8080ff" d="M42.16508 32.981 46.76555 30.7781"/>
<path transform="matrix(1.00006,0,0,-1.00002,10.655777,56.45289)" stroke-width=".3985" stroke-linecap="butt" stroke-miterlimit="10" stroke-linejoin="miter" fill="none" stroke="#8080ff" d="M42.16508 37.10396 45.39699 33.15619"/>
<path transform="matrix(1.00006,0,0,-1.00002,10.655777,56.45289)" stroke-width=".3985" stroke-linecap="butt" stroke-miterlimit="10" stroke-linejoin="miter" fill="none" stroke="#8080ff" d="M42.16508 41.22691 44.15604 36.52956"/>
<path transform="matrix(1.00006,0,0,-1.00002,10.655777,56.45289)" stroke-width=".3985" stroke-linecap="butt" stroke-miterlimit="10" stroke-linejoin="miter" fill="none" stroke="#8080ff" d="M42.16508 45.34987 43.40472 40.40121"/>
<path transform="matrix(1.00006,0,0,-1.00002,10.655777,56.45289)" stroke-width=".3985" stroke-linecap="butt" stroke-miterlimit="10" stroke-linejoin="miter" fill="none" stroke="#8080ff" d="M51.73196-45.35506 52.97118-40.40553"/>
<path transform="matrix(1.00006,0,0,-1.00002,10.655777,56.45289)" stroke-width=".3985" stroke-linecap="butt" stroke-miterlimit="10" stroke-linejoin="miter" fill="none" stroke="#8080ff" d="M51.73196-41.2321 53.72206-36.53432"/>
<path transform="matrix(1.00006,0,0,-1.00002,10.655777,56.45289)" stroke-width=".3985" stroke-linecap="butt" stroke-miterlimit="10" stroke-linejoin="miter" fill="none" stroke="#8080ff" d="M51.73196-37.10915 54.96085-33.1605"/>
<path transform="matrix(1.00006,0,0,-1.00002,10.655777,56.45289)" stroke-width=".3985" stroke-linecap="butt" stroke-miterlimit="10" stroke-linejoin="miter" fill="none" stroke="#8080ff" d="M51.73196-32.9862 56.32983-30.7807"/>
<path transform="matrix(1.00006,0,0,-1.00002,10.655777,56.45289)" stroke-width=".3985" stroke-linecap="butt" stroke-miterlimit="10" stroke-linejoin="miter" fill="none" stroke="#8080ff" d="M51.73196-28.86325 56.82594-28.67337"/>
<path transform="matrix(1.00006,0,0,-1.00002,10.655777,56.45289)" stroke-width=".3985" stroke-linecap="butt" stroke-miterlimit="10" stroke-linejoin="miter" fill="none" stroke="#8080ff" d="M51.73196-24.7403 56.74939-25.65079"/>
<path transform="matrix(1.00006,0,0,-1.00002,10.655777,56.45289)" stroke-width=".3985" stroke-linecap="butt" stroke-miterlimit="10" stroke-linejoin="miter" fill="none" stroke="#8080ff" d="M51.73196-20.61734 56.68149-21.8505"/>
<path transform="matrix(1.00006,0,0,-1.00002,10.655777,56.45289)" stroke-width=".3985" stroke-linecap="butt" stroke-miterlimit="10" stroke-linejoin="miter" fill="none" stroke="#8080ff" d="M51.73196-16.49438 56.707-17.60902"/>
<path transform="matrix(1.00006,0,0,-1.00002,10.655777,56.45289)" stroke-width=".3985" stroke-linecap="butt" stroke-miterlimit="10" stroke-linejoin="miter" fill="none" stroke="#8080ff" d="M51.73196-12.37144 56.77188-13.14827"/>
<path transform="matrix(1.00006,0,0,-1.00002,10.655777,56.45289)" stroke-width=".3985" stroke-linecap="butt" stroke-miterlimit="10" stroke-linejoin="miter" fill="none" stroke="#8080ff" d="M51.73196-8.24847 56.81729-8.64207"/>
<path transform="matrix(1.00006,0,0,-1.00002,10.655777,56.45289)" stroke-width=".3985" stroke-linecap="butt" stroke-miterlimit="10" stroke-linejoin="miter" fill="none" stroke="#8080ff" d="M51.73196-4.12553 56.83417-4.23106"/>
<path transform="matrix(1.00006,0,0,-1.00002,10.655777,56.45289)" stroke-width=".3985" stroke-linecap="butt" stroke-miterlimit="10" stroke-linejoin="miter" fill="none" stroke="#8080ff" d="M51.73196-.00258H56.83417"/>
<path transform="matrix(1.00006,0,0,-1.00002,10.655777,56.45289)" stroke-width=".3985" stroke-linecap="butt" stroke-miterlimit="10" stroke-linejoin="miter" fill="none" stroke="#8080ff" d="M51.73196 4.12033 56.83417 4.2224"/>
<path transform="matrix(1.00006,0,0,-1.00002,10.655777,56.45289)" stroke-width=".3985" stroke-linecap="butt" stroke-miterlimit="10" stroke-linejoin="miter" fill="none" stroke="#8080ff" d="M51.73196 8.2433 56.81729 8.63431"/>
<path transform="matrix(1.00006,0,0,-1.00002,10.655777,56.45289)" stroke-width=".3985" stroke-linecap="butt" stroke-miterlimit="10" stroke-linejoin="miter" fill="none" stroke="#8080ff" d="M51.73196 12.36624 56.77188 13.14308"/>
<path transform="matrix(1.00006,0,0,-1.00002,10.655777,56.45289)" stroke-width=".3985" stroke-linecap="butt" stroke-miterlimit="10" stroke-linejoin="miter" fill="none" stroke="#8080ff" d="M51.73196 16.4892 56.707 17.60341"/>
<path transform="matrix(1.00006,0,0,-1.00002,10.655777,56.45289)" stroke-width=".3985" stroke-linecap="butt" stroke-miterlimit="10" stroke-linejoin="miter" fill="none" stroke="#8080ff" d="M51.73196 20.61215 56.68149 21.8453"/>
<path transform="matrix(1.00006,0,0,-1.00002,10.655777,56.45289)" stroke-width=".3985" stroke-linecap="butt" stroke-miterlimit="10" stroke-linejoin="miter" fill="none" stroke="#8080ff" d="M51.73196 24.7351 56.74939 25.64516"/>
<path transform="matrix(1.00006,0,0,-1.00002,10.655777,56.45289)" stroke-width=".3985" stroke-linecap="butt" stroke-miterlimit="10" stroke-linejoin="miter" fill="none" stroke="#8080ff" d="M51.73196 28.85806 56.82594 28.66689"/>
<path transform="matrix(1.00006,0,0,-1.00002,10.655777,56.45289)" stroke-width=".3985" stroke-linecap="butt" stroke-miterlimit="10" stroke-linejoin="miter" fill="none" stroke="#8080ff" d="M51.73196 32.981 56.33243 30.7781"/>
<path transform="matrix(1.00006,0,0,-1.00002,10.655777,56.45289)" stroke-width=".3985" stroke-linecap="butt" stroke-miterlimit="10" stroke-linejoin="miter" fill="none" stroke="#8080ff" d="M51.73196 37.10396 54.96387 33.15619"/>
<path transform="matrix(1.00006,0,0,-1.00002,10.655777,56.45289)" stroke-width=".3985" stroke-linecap="butt" stroke-miterlimit="10" stroke-linejoin="miter" fill="none" stroke="#8080ff" d="M51.73196 41.22691 53.72292 36.52956"/>
<path transform="matrix(1.00006,0,0,-1.00002,10.655777,56.45289)" stroke-width=".3985" stroke-linecap="butt" stroke-miterlimit="10" stroke-linejoin="miter" fill="none" stroke="#8080ff" d="M51.73196 45.34987 52.9716 40.40121"/>
<path transform="matrix(1.00006,0,0,-1.00002,10.655777,56.45289)" stroke-width=".3985" stroke-linecap="butt" stroke-miterlimit="10" stroke-linejoin="miter" fill="none" stroke="#8080ff" d="M61.29884-45.35506 62.53806-40.40553"/>
<path transform="matrix(1.00006,0,0,-1.00002,10.655777,56.45289)" stroke-width=".3985" stroke-linecap="butt" stroke-miterlimit="10" stroke-linejoin="miter" fill="none" stroke="#8080ff" d="M61.29884-41.2321 63.28894-36.53432"/>
<path transform="matrix(1.00006,0,0,-1.00002,10.655777,56.45289)" stroke-width=".3985" stroke-linecap="butt" stroke-miterlimit="10" stroke-linejoin="miter" fill="none" stroke="#8080ff" d="M61.29884-37.10915 64.52773-33.1605"/>
<path transform="matrix(1.00006,0,0,-1.00002,10.655777,56.45289)" stroke-width=".3985" stroke-linecap="butt" stroke-miterlimit="10" stroke-linejoin="miter" fill="none" stroke="#8080ff" d="M61.29884-32.9862 65.89671-30.7807"/>
<path transform="matrix(1.00006,0,0,-1.00002,10.655777,56.45289)" stroke-width=".3985" stroke-linecap="butt" stroke-miterlimit="10" stroke-linejoin="miter" fill="none" stroke="#8080ff" d="M61.29884-28.86325 66.39282-28.67337"/>
<path transform="matrix(1.00006,0,0,-1.00002,10.655777,56.45289)" stroke-width=".3985" stroke-linecap="butt" stroke-miterlimit="10" stroke-linejoin="miter" fill="none" stroke="#8080ff" d="M61.29884-24.7403 66.31627-25.65079"/>
<path transform="matrix(1.00006,0,0,-1.00002,10.655777,56.45289)" stroke-width=".3985" stroke-linecap="butt" stroke-miterlimit="10" stroke-linejoin="miter" fill="none" stroke="#8080ff" d="M61.29884-20.61734 66.24835-21.8505"/>
<path transform="matrix(1.00006,0,0,-1.00002,10.655777,56.45289)" stroke-width=".3985" stroke-linecap="butt" stroke-miterlimit="10" stroke-linejoin="miter" fill="none" stroke="#8080ff" d="M61.29884-16.49438 66.27388-17.60902"/>
<path transform="matrix(1.00006,0,0,-1.00002,10.655777,56.45289)" stroke-width=".3985" stroke-linecap="butt" stroke-miterlimit="10" stroke-linejoin="miter" fill="none" stroke="#8080ff" d="M61.29884-12.37144 66.33876-13.14827"/>
<path transform="matrix(1.00006,0,0,-1.00002,10.655777,56.45289)" stroke-width=".3985" stroke-linecap="butt" stroke-miterlimit="10" stroke-linejoin="miter" fill="none" stroke="#8080ff" d="M61.29884-8.24847 66.38417-8.64207"/>
<path transform="matrix(1.00006,0,0,-1.00002,10.655777,56.45289)" stroke-width=".3985" stroke-linecap="butt" stroke-miterlimit="10" stroke-linejoin="miter" fill="none" stroke="#8080ff" d="M61.29884-4.12553 66.40105-4.23106"/>
<path transform="matrix(1.00006,0,0,-1.00002,10.655777,56.45289)" stroke-width=".3985" stroke-linecap="butt" stroke-miterlimit="10" stroke-linejoin="miter" fill="none" stroke="#8080ff" d="M61.29884-.00258H66.40105"/>
<path transform="matrix(1.00006,0,0,-1.00002,10.655777,56.45289)" stroke-width=".3985" stroke-linecap="butt" stroke-miterlimit="10" stroke-linejoin="miter" fill="none" stroke="#8080ff" d="M61.29884 4.12033 66.40105 4.2224"/>
<path transform="matrix(1.00006,0,0,-1.00002,10.655777,56.45289)" stroke-width=".3985" stroke-linecap="butt" stroke-miterlimit="10" stroke-linejoin="miter" fill="none" stroke="#8080ff" d="M61.29884 8.2433 66.38417 8.63431"/>
<path transform="matrix(1.00006,0,0,-1.00002,10.655777,56.45289)" stroke-width=".3985" stroke-linecap="butt" stroke-miterlimit="10" stroke-linejoin="miter" fill="none" stroke="#8080ff" d="M61.29884 12.36624 66.33876 13.14308"/>
<path transform="matrix(1.00006,0,0,-1.00002,10.655777,56.45289)" stroke-width=".3985" stroke-linecap="butt" stroke-miterlimit="10" stroke-linejoin="miter" fill="none" stroke="#8080ff" d="M61.29884 16.4892 66.27388 17.60341"/>
<path transform="matrix(1.00006,0,0,-1.00002,10.655777,56.45289)" stroke-width=".3985" stroke-linecap="butt" stroke-miterlimit="10" stroke-linejoin="miter" fill="none" stroke="#8080ff" d="M61.29884 20.61215 66.24835 21.8453"/>
<path transform="matrix(1.00006,0,0,-1.00002,10.655777,56.45289)" stroke-width=".3985" stroke-linecap="butt" stroke-miterlimit="10" stroke-linejoin="miter" fill="none" stroke="#8080ff" d="M61.29884 24.7351 66.31627 25.64516"/>
<path transform="matrix(1.00006,0,0,-1.00002,10.655777,56.45289)" stroke-width=".3985" stroke-linecap="butt" stroke-miterlimit="10" stroke-linejoin="miter" fill="none" stroke="#8080ff" d="M61.29884 28.85806 66.39282 28.66689"/>
<path transform="matrix(1.00006,0,0,-1.00002,10.655777,56.45289)" stroke-width=".3985" stroke-linecap="butt" stroke-miterlimit="10" stroke-linejoin="miter" fill="none" stroke="#8080ff" d="M61.29884 32.981 65.8993 30.7781"/>
<path transform="matrix(1.00006,0,0,-1.00002,10.655777,56.45289)" stroke-width=".3985" stroke-linecap="butt" stroke-miterlimit="10" stroke-linejoin="miter" fill="none" stroke="#8080ff" d="M61.29884 37.10396 64.53075 33.15619"/>
<path transform="matrix(1.00006,0,0,-1.00002,10.655777,56.45289)" stroke-width=".3985" stroke-linecap="butt" stroke-miterlimit="10" stroke-linejoin="miter" fill="none" stroke="#8080ff" d="M61.29884 41.22691 63.2898 36.52956"/>
<path transform="matrix(1.00006,0,0,-1.00002,10.655777,56.45289)" stroke-width=".3985" stroke-linecap="butt" stroke-miterlimit="10" stroke-linejoin="miter" fill="none" stroke="#8080ff" d="M61.29884 45.34987 62.53848 40.40121"/>
<path transform="matrix(1.00006,0,0,-1.00002,10.655777,56.45289)" stroke-width=".3985" stroke-linecap="butt" stroke-miterlimit="10" stroke-linejoin="miter" fill="none" stroke="#8080ff" d="M70.86572-45.35506 72.10493-40.40553"/>
<path transform="matrix(1.00006,0,0,-1.00002,10.655777,56.45289)" stroke-width=".3985" stroke-linecap="butt" stroke-miterlimit="10" stroke-linejoin="miter" fill="none" stroke="#8080ff" d="M70.86572-41.2321 72.85582-36.53432"/>
<path transform="matrix(1.00006,0,0,-1.00002,10.655777,56.45289)" stroke-width=".3985" stroke-linecap="butt" stroke-miterlimit="10" stroke-linejoin="miter" fill="none" stroke="#8080ff" d="M70.86572-37.10915 74.0946-33.1605"/>
<path transform="matrix(1.00006,0,0,-1.00002,10.655777,56.45289)" stroke-width=".3985" stroke-linecap="butt" stroke-miterlimit="10" stroke-linejoin="miter" fill="none" stroke="#8080ff" d="M70.86572-32.9862 75.4636-30.7807"/>
<path transform="matrix(1.00006,0,0,-1.00002,10.655777,56.45289)" stroke-width=".3985" stroke-linecap="butt" stroke-miterlimit="10" stroke-linejoin="miter" fill="none" stroke="#8080ff" d="M70.86572-28.86325 75.9597-28.67337"/>
<path transform="matrix(1.00006,0,0,-1.00002,10.655777,56.45289)" stroke-width=".3985" stroke-linecap="butt" stroke-miterlimit="10" stroke-linejoin="miter" fill="none" stroke="#8080ff" d="M70.86572-24.7403 75.88315-25.65079"/>
<path transform="matrix(1.00006,0,0,-1.00002,10.655777,56.45289)" stroke-width=".3985" stroke-linecap="butt" stroke-miterlimit="10" stroke-linejoin="miter" fill="none" stroke="#8080ff" d="M70.86572-20.61734 75.81523-21.8505"/>
<path transform="matrix(1.00006,0,0,-1.00002,10.655777,56.45289)" stroke-width=".3985" stroke-linecap="butt" stroke-miterlimit="10" stroke-linejoin="miter" fill="none" stroke="#8080ff" d="M70.86572-16.49438 75.84076-17.60902"/>
<path transform="matrix(1.00006,0,0,-1.00002,10.655777,56.45289)" stroke-width=".3985" stroke-linecap="butt" stroke-miterlimit="10" stroke-linejoin="miter" fill="none" stroke="#8080ff" d="M70.86572-12.37144 75.90564-13.14827"/>
<path transform="matrix(1.00006,0,0,-1.00002,10.655777,56.45289)" stroke-width=".3985" stroke-linecap="butt" stroke-miterlimit="10" stroke-linejoin="miter" fill="none" stroke="#8080ff" d="M70.86572-8.24847 75.95105-8.64207"/>
<path transform="matrix(1.00006,0,0,-1.00002,10.655777,56.45289)" stroke-width=".3985" stroke-linecap="butt" stroke-miterlimit="10" stroke-linejoin="miter" fill="none" stroke="#8080ff" d="M70.86572-4.12553 75.96793-4.23106"/>
<path transform="matrix(1.00006,0,0,-1.00002,10.655777,56.45289)" stroke-width=".3985" stroke-linecap="butt" stroke-miterlimit="10" stroke-linejoin="miter" fill="none" stroke="#8080ff" d="M70.86572-.00258H75.96793"/>
<path transform="matrix(1.00006,0,0,-1.00002,10.655777,56.45289)" stroke-width=".3985" stroke-linecap="butt" stroke-miterlimit="10" stroke-linejoin="miter" fill="none" stroke="#8080ff" d="M70.86572 4.12033 75.96793 4.2224"/>
<path transform="matrix(1.00006,0,0,-1.00002,10.655777,56.45289)" stroke-width=".3985" stroke-linecap="butt" stroke-miterlimit="10" stroke-linejoin="miter" fill="none" stroke="#8080ff" d="M70.86572 8.2433 75.95105 8.63431"/>
<path transform="matrix(1.00006,0,0,-1.00002,10.655777,56.45289)" stroke-width=".3985" stroke-linecap="butt" stroke-miterlimit="10" stroke-linejoin="miter" fill="none" stroke="#8080ff" d="M70.86572 12.36624 75.90564 13.14308"/>
<path transform="matrix(1.00006,0,0,-1.00002,10.655777,56.45289)" stroke-width=".3985" stroke-linecap="butt" stroke-miterlimit="10" stroke-linejoin="miter" fill="none" stroke="#8080ff" d="M70.86572 16.4892 75.84076 17.60341"/>
<path transform="matrix(1.00006,0,0,-1.00002,10.655777,56.45289)" stroke-width=".3985" stroke-linecap="butt" stroke-miterlimit="10" stroke-linejoin="miter" fill="none" stroke="#8080ff" d="M70.86572 20.61215 75.81523 21.8453"/>
<path transform="matrix(1.00006,0,0,-1.00002,10.655777,56.45289)" stroke-width=".3985" stroke-linecap="butt" stroke-miterlimit="10" stroke-linejoin="miter" fill="none" stroke="#8080ff" d="M70.86572 24.7351 75.88315 25.64516"/>
<path transform="matrix(1.00006,0,0,-1.00002,10.655777,56.45289)" stroke-width=".3985" stroke-linecap="butt" stroke-miterlimit="10" stroke-linejoin="miter" fill="none" stroke="#8080ff" d="M70.86572 28.85806 75.9597 28.66689"/>
<path transform="matrix(1.00006,0,0,-1.00002,10.655777,56.45289)" stroke-width=".3985" stroke-linecap="butt" stroke-miterlimit="10" stroke-linejoin="miter" fill="none" stroke="#8080ff" d="M70.86572 32.981 75.46619 30.7781"/>
<path transform="matrix(1.00006,0,0,-1.00002,10.655777,56.45289)" stroke-width=".3985" stroke-linecap="butt" stroke-miterlimit="10" stroke-linejoin="miter" fill="none" stroke="#8080ff" d="M70.86572 37.10396 74.09763 33.15619"/>
<path transform="matrix(1.00006,0,0,-1.00002,10.655777,56.45289)" stroke-width=".3985" stroke-linecap="butt" stroke-miterlimit="10" stroke-linejoin="miter" fill="none" stroke="#8080ff" d="M70.86572 41.22691 72.85667 36.52956"/>
<path transform="matrix(1.00006,0,0,-1.00002,10.655777,56.45289)" stroke-width=".3985" stroke-linecap="butt" stroke-miterlimit="10" stroke-linejoin="miter" fill="none" stroke="#8080ff" d="M70.86572 45.34987 72.10536 40.40121"/>
</svg>
