<svg xmlns="http://www.w3.org/2000/svg" xmlns:xlink="http://www.w3.org/1999/xlink" version="1.1" width="198" height="146" viewBox="0 0 198 146">
<defs>
<path id="font_1_1" d="M.42799378 .45222474 .43899537 .49023438H.31199647L.34599305 .6092224 .33399964 .6162262 .23699951 .53923037 .22399903 .49023438H.14299011L.13198853 .45222474H.21499634L.125 .08627319C.10998535 .029266358 .12199402-.01171875 .17199707-.01171875 .2519989-.01171875 .31599427 .054275514 .35598756 .1292572L.33399964 .1462555C.31098939 .10726929 .2599945 .040267946 .22898865 .040267946 .20799256 .040267946 .20799256 .0632782 .21398926 .088272098L.30299378 .45222474H.42799378Z"/>
<path id="font_2_1" d="M.07398987 .2861328V.21612549H.31900025V.2861328H.07398987Z"/>
<path id="font_2_3" d="M.43699647 0V.0289917L.35299684 .035995485C.33198548 .037994386 .31999208 .04598999 .31999208 .08496094V.67367556L.31498719 .6796875 .10899353 .6446991V.6197052L.20199585 .6087036C.21899414 .6067047 .22599793 .5987091 .22599793 .56973269V.08496094C.22599793 .065979007 .22299195 .053985597 .21699524 .04698181 .21199036 .039993287 .20399475 .036987306 .19299317 .035995485L.10899353 .0289917V0H.43699647Z"/>
<path id="font_2_2" d="M.2649994 .64468386C.3600006 .64468386 .3869934 .49682618 .3869934 .33398438 .3869934 .17112732 .3600006 .023269654 .2649994 .023269654 .16999817 .023269654 .14299011 .17112732 .14299011 .33398438 .14299011 .49682618 .16999817 .64468386 .2649994 .64468386M.2649994 .6796875C.099990848 .6796875 .040985109 .53378298 .040985109 .33398438 .040985109 .13417053 .099990848-.01171875 .2649994-.01171875 .42999269-.01171875 .4889984 .13417053 .4889984 .33398438 .4889984 .53378298 .42999269 .6796875 .2649994 .6796875Z"/>
<path id="font_2_4" d="M.4850006 .13195801 .45700074 .13696289C.43598939 .08299255 .41600038 .07598877 .37599183 .07598877H.11999512C.13598633 .1279602 .19499207 .19892884 .28799439 .2658844 .38398744 .33584596 .45799256 .38082887 .45799256 .49276734 .45799256 .63168337 .3659973 .6796875 .26098634 .6796875 .12399292 .6796875 .052993776 .5967102 .052993776 .54473879 .052993776 .51075747 .09098816 .49476625 .10798645 .49476625 .12599182 .49476625 .1329956 .50476077 .13699341 .5217438 .15299988 .5897064 .19198609 .64468386 .2539978 .64468386 .33099366 .64468386 .35299684 .5797119 .35299684 .50675967 .35299684 .3998108 .29899598 .33984376 .21199036 .26289369 .08898926 .15594483 .04598999 .08798218 .026992798 .009994507L.036987306 0H.45098878L.4850006 .13195801Z"/>
<path id="font_2_5" d="M.12998963 .3657837C.12998963 .3487854 .1349945 .33779908 .147995 .33779908 .1599884 .33779908 .18699646 .34777833 .23498535 .34777833 .31999208 .34777833 .36799623 .27090455 .36799623 .18403626 .36799623 .065216068 .30899049 .023269654 .23799134 .023269654 .17199707 .023269654 .1289978 .07319641 .10998535 .12911988 .10398865 .14808655 .09399414 .15707398 .07998657 .15707398 .06199646 .15707398 .026992798 .13809204 .026992798 .10215759 .026992798 .05921936 .09599304-.01171875 .23699951-.01171875 .38198854-.01171875 .47299195 .06121826 .47299195 .18902588 .47299195 .32281495 .35798646 .3627777 .30299378 .3677826V.3717804C.35699464 .38078309 .44400025 .4207611 .44400025 .5197296 .44400025 .6306915 .35699464 .6796875 .25 .6796875 .117996219 .6796875 .052993776 .60369876 .052993776 .5607147 .052993776 .5297241 .08799744 .51272585 .101989749 .51272585 .114990238 .51272585 .12298584 .5197296 .1269989 .5327301 .14898682 .60069277 .18699646 .64468386 .24299622 .64468386 .32199098 .64468386 .34098817 .57470706 .34098817 .51872256 .34098817 .4587555 .31999208 .38378907 .23498535 .38378907 .18699646 .38378907 .1599884 .39378358 .147995 .39378358 .1349945 .39378358 .12998963 .38378907 .12998963 .3657837Z"/>
<path id="font_2_6" d="M.2999878 .17871094V.0769043C.2999878 .04296875 .2889862 .036987306 .2649994 .034988405L.20098877 .0289917V0H.46499635V.0289917L.41999818 .033981325C.39698792 .036987306 .3899994 .04296875 .3899994 .0769043V.17871094H.49299623V.22570801H.3899994V.66796877H.31698609C.22299195 .5298767 .11099243 .35577394 .018997193 .19970703L.027999878 .17871094H.2999878M.09098816 .22570801C.15098572 .33476258 .22099304 .4498291 .2979889 .5709076H.2999878V.22570801H.09098816Z"/>
<path id="font_2_7" d="M.42599488 .5919647 .44999696 .6599579 .44499208 .66796877H.11099243L.100997928 .65896609 .08099365 .32388307 .10499573 .31188966C.14698792 .35983277 .18798828 .3828125 .24198914 .3828125 .30599977 .3828125 .37599183 .3358612 .37599183 .20404053 .37599183 .10116577 .33399964 .023269654 .24699402 .023269654 .1769867 .023269654 .14099121 .07420349 .12098694 .13113404 .115997318 .14611817 .10699463 .15510559 .09298706 .15510559 .07299805 .15510559 .039993287 .13513184 .039993287 .10217285 .039993287 .056228639 .10998535-.01171875 .23999024-.01171875 .40499879-.01171875 .47999574 .0881958 .47999574 .21502686 .47999574 .35484315 .3919983 .4268036 .272995 .4268036 .21798706 .4268036 .15899658 .4028015 .1269989 .3738098L.125 .37580873 .147995 .56292727C.15098572 .58795168 .1579895 .5919647 .1769867 .5919647H.42599488Z"/>
</defs>
<path transform="matrix(1.00003,0,0,-1.00002,46.44838,72.9252)" d="M0-68.0326V68.0326H45.35506V-68.0326ZM45.35506 68.0326" fill="#d9d9ff"/>
<path transform="matrix(1.00003,0,0,-1.00002,46.44838,72.9252)" d="M45.35506-68.0326V68.0326H147.40396V-68.0326ZM147.40396 68.0326" fill="#d9ffd9"/>
<path transform="matrix(1.00003,0,0,-1.00002,46.44838,72.9252)" stroke-width=".3985" stroke-linecap="butt" stroke-miterlimit="10" stroke-linejoin="miter" fill="none" stroke="#000000" d="M-45.35506 0H146.94568"/>
<path transform="matrix(1.00003,0,0,-1.00002,193.39847,72.9252)" stroke-width=".31879" stroke-linecap="round" stroke-linejoin="round" fill="none" stroke="#000000" d="M-1.19551 1.59401C-1.09587 .99626 0 .09961 .29886 0 0-.09961-1.09587-.99626-1.19551-1.59401"/>
<use data-text="t" xlink:href="#font_1_1" transform="matrix(10.036701,0,0,-10.036601,191.71875,82.50939)"/>
<path transform="matrix(1.00003,0,0,-1.00002,46.44838,72.9252)" stroke-width=".3985" stroke-linecap="butt" stroke-miterlimit="10" stroke-linejoin="miter" fill="none" stroke="#000000" d="M0-68.0326V67.57431"/>
<path transform="matrix(0,-1.00002,-1.00003,-0,46.44838,5.3495409)" stroke-width=".31879" stroke-linecap="round" stroke-linejoin="round" fill="none" stroke="#000000" d="M-1.19551 1.59401C-1.09587 .99626 0 .09961 .29886 0 0-.09961-1.09587-.99626-1.19551-1.59401"/>
<path transform="matrix(1.00003,0,0,-1.00002,46.44838,72.9252)" stroke-width=".3985" stroke-linecap="butt" stroke-miterlimit="10" stroke-linejoin="miter" fill="none" stroke="#b5b5b5" d="M-22.67752 2.26787V-2.26787"/>
<use data-text="-" xlink:href="#font_2_1" transform="matrix(9.165875,0,0,-9.165783,19.540574,85.86246)"/>
<use data-text="1" xlink:href="#font_2_3" transform="matrix(9.165875,0,0,-9.165783,23.133599,85.86246)"/>
<path transform="matrix(1.00003,0,0,-1.00002,46.44838,72.9252)" stroke-width=".3985" stroke-linecap="butt" stroke-miterlimit="10" stroke-linejoin="miter" fill="none" stroke="#b5b5b5" d="M0 2.26787V-2.26787"/>
<use data-text="0" xlink:href="#font_2_2" transform="matrix(9.165875,0,0,-9.165783,44.017305,85.86246)"/>
<path transform="matrix(1.00003,0,0,-1.00002,46.44838,72.9252)" stroke-width=".3985" stroke-linecap="butt" stroke-miterlimit="10" stroke-linejoin="miter" fill="none" stroke="#b5b5b5" d="M22.67752 2.26787V-2.26787"/>
<use data-text="1" xlink:href="#font_2_3" transform="matrix(9.165875,0,0,-9.165783,66.695987,85.86246)"/>
<path transform="matrix(1.00003,0,0,-1.00002,46.44838,72.9252)" stroke-width=".3985" stroke-linecap="butt" stroke-miterlimit="10" stroke-linejoin="miter" fill="none" stroke="#b5b5b5" d="M45.35506 2.26787V-2.26787"/>
<use data-text="2" xlink:href="#font_2_4" transform="matrix(9.165875,0,0,-9.165783,89.37367,85.86246)"/>
<path transform="matrix(1.00003,0,0,-1.00002,46.44838,72.9252)" stroke-width=".3985" stroke-linecap="butt" stroke-miterlimit="10" stroke-linejoin="miter" fill="none" stroke="#b5b5b5" d="M68.0326 2.26787V-2.26787"/>
<use data-text="3" xlink:href="#font_2_5" transform="matrix(9.165875,0,0,-9.165783,112.052349,85.86246)"/>
<path transform="matrix(1.00003,0,0,-1.00002,46.44838,72.9252)" stroke-width=".3985" stroke-linecap="butt" stroke-miterlimit="10" stroke-linejoin="miter" fill="none" stroke="#b5b5b5" d="M90.71013 2.26787V-2.26787"/>
<use data-text="4" xlink:href="#font_2_6" transform="matrix(9.165875,0,0,-9.165783,134.73004,85.86246)"/>
<path transform="matrix(1.00003,0,0,-1.00002,46.44838,72.9252)" stroke-width=".3985" stroke-linecap="butt" stroke-miterlimit="10" stroke-linejoin="miter" fill="none" stroke="#b5b5b5" d="M113.38766 2.26787V-2.26787"/>
<use data-text="5" xlink:href="#font_2_7" transform="matrix(9.165875,0,0,-9.165783,157.40872,85.86246)"/>
<path transform="matrix(1.00003,0,0,-1.00002,46.44838,72.9252)" stroke-width=".3985" stroke-linecap="butt" stroke-miterlimit="10" stroke-linejoin="miter" fill="none" stroke="#b5b5b5" d="M2.26787-68.0326H-2.26787"/>
<use data-text="-" xlink:href="#font_2_1" transform="matrix(9.165875,0,0,-9.165783,31.18892,144.00263)"/>
<use data-text="3" xlink:href="#font_2_5" transform="matrix(9.165875,0,0,-9.165783,34.781946,144.00263)"/>
<path transform="matrix(1.00003,0,0,-1.00002,46.44838,72.9252)" stroke-width=".3985" stroke-linecap="butt" stroke-miterlimit="10" stroke-linejoin="miter" fill="none" stroke="#b5b5b5" d="M2.26787-45.35506H-2.26787"/>
<use data-text="-" xlink:href="#font_2_1" transform="matrix(9.165875,0,0,-9.165783,31.18892,121.350177)"/>
<use data-text="2" xlink:href="#font_2_4" transform="matrix(9.165875,0,0,-9.165783,34.781946,121.350177)"/>
<path transform="matrix(1.00003,0,0,-1.00002,46.44838,72.9252)" stroke-width=".3985" stroke-linecap="butt" stroke-miterlimit="10" stroke-linejoin="miter" fill="none" stroke="#b5b5b5" d="M2.26787-22.67752H-2.26787"/>
<use data-text="-" xlink:href="#font_2_1" transform="matrix(9.165875,0,0,-9.165783,31.18892,98.671718)"/>
<use data-text="1" xlink:href="#font_2_3" transform="matrix(9.165875,0,0,-9.165783,34.781946,98.671718)"/>
<path transform="matrix(1.00003,0,0,-1.00002,46.44838,72.9252)" stroke-width=".3985" stroke-linecap="butt" stroke-miterlimit="10" stroke-linejoin="miter" fill="none" stroke="#b5b5b5" d="M2.26787 0H-2.26787"/>
<use data-text="0" xlink:href="#font_2_2" transform="matrix(9.165875,0,0,-9.165783,34.786027,75.96926)"/>
<path transform="matrix(1.00003,0,0,-1.00002,46.44838,72.9252)" stroke-width=".3985" stroke-linecap="butt" stroke-miterlimit="10" stroke-linejoin="miter" fill="none" stroke="#b5b5b5" d="M2.26787 22.67752H-2.26787"/>
<use data-text="1" xlink:href="#font_2_3" transform="matrix(9.165875,0,0,-9.165783,34.786027,53.31581)"/>
<path transform="matrix(1.00003,0,0,-1.00002,46.44838,72.9252)" stroke-width=".3985" stroke-linecap="butt" stroke-miterlimit="10" stroke-linejoin="miter" fill="none" stroke="#b5b5b5" d="M2.26787 45.35506H-2.26787"/>
<use data-text="2" xlink:href="#font_2_4" transform="matrix(9.165875,0,0,-9.165783,34.786027,30.637356)"/>
<path transform="matrix(1.00003,0,0,-1.00002,46.44838,72.9252)" stroke-width=".3985" stroke-linecap="butt" stroke-miterlimit="10" stroke-linejoin="miter" fill="none" stroke="#b5b5b5" d="M2.26787 68.0326H-2.26787"/>
<use data-text="3" xlink:href="#font_2_5" transform="matrix(9.165875,0,0,-9.165783,34.786027,7.9348986)"/>
<path transform="matrix(1.00003,0,0,-1.00002,46.44838,72.9252)" stroke-width="1.19553" stroke-linecap="butt" stroke-miterlimit="10" stroke-linejoin="miter" fill="none" stroke="#0000ff" d="M0 0 .22559 .00032 .4512 .00206 .67682 .00482 .90242 .00862 1.12804 .01382 1.35365 .02007 1.57927 .02731 1.80487 .03563 2.03049 .0453 2.2561 .05605 2.48174 .0678 2.70732 .08061 2.93294 .09479 3.15855 .10968 3.38417 .12593 3.60979 .14357 3.83539 .16193 4.061 .18164 4.28662 .20241 4.51222 .22421 4.73784 .24739 4.96347 .27126 5.18907 .29654 5.41467 .32317 5.64029 .35051 5.8659 .37924 6.09154 .40898 6.31712 .43979 6.54274 .47162 6.76836 .50484 6.99397 .5391 7.21959 .57439 7.4452 .61073 7.6708 .64845 7.89642 .6872 8.12202 .72699 8.34764 .76817 8.57327 .81003 8.79889 .8533 9.02448 .8976 9.25009 .94292 9.47571 .98962 9.70134 1.03738 9.92694 1.08617 10.15254 1.136 10.37816 1.18723 10.60378 1.23946 10.82939 1.29276 11.05501 1.34709 11.28062 1.40279 11.50621 1.4592 11.73183 1.51698 11.95746 1.57614 12.18307 1.63602 12.40868 1.69727 12.63428 1.75957 12.8599 1.82288 13.08551 1.88757 13.31113 1.95299 13.53674 2.01976 13.76236 2.08792 13.98796 2.15678 14.21356 2.22704 14.4392 2.29832 14.66481 2.37064 14.89043 2.444 15.11601 2.51875 15.34163 2.59453 15.56726 2.67134 15.79288 2.74954 16.01848 2.82845 16.2441 2.90872 16.4697 2.99004 16.69531 3.07274 16.92093 3.15614 17.14655 3.24092 17.37216 3.32674 17.59778 3.41393 17.82336 3.50182 18.049 3.5911 18.27461 3.68141 18.50023 3.77277 18.72583 3.8655 18.95143 3.95927 19.17706 4.0541 19.40268 4.14993 19.62828 4.24716 19.8539 4.34544 20.07951 4.44476 20.30511 4.54509 20.53073 4.6465 20.75635 4.74925 20.98196 4.85307 21.20758 4.95792 21.43317 5.06415 21.6588 5.17143 21.88441 5.27972 22.11002 5.38908 22.33563 5.49947 22.56125 5.61122 22.78687 5.72404 23.01247 5.83789 23.23808 5.95311 23.4637 6.06903 23.68932 6.18633 23.91492 6.30466 24.14053 6.42441 24.36615 6.54483 24.59177 6.66663 24.81737 6.78947 25.04298 6.91368 25.2686 7.03862 25.49422 7.16492 25.71982 7.29227 25.94543 7.42097 26.17105 7.55038 26.39667 7.6812 26.62227 7.81303 26.84789 7.94624 27.0735 8.08018 27.29912 8.21547 27.52472 8.3518 27.75034 8.48917 27.97595 8.62793 28.20157 8.76773 28.42717 8.90857 28.65279 9.05045 28.8784 9.1937 29.10402 9.33765 29.32962 9.48297 29.55524 9.6297 29.78085 9.77711 30.00647 9.9259 30.23207 10.07573 30.45769 10.22661 30.6833 10.37852 30.90892 10.5318 31.13454 10.68613 31.36014 10.84149 31.58575 10.99826 31.81137 11.15569 32.03697 11.31451 32.26259 11.47438 32.4882 11.63564 32.7138 11.79793 32.93942 11.9609 33.16504 12.12563 33.39066 12.29102 33.61627 12.45781 33.84187 12.62527 34.06749 12.79451 34.2931 12.9644 34.5187 13.13568 34.74434 13.30766 34.96994 13.48103 35.19556 13.65578 35.42116 13.8312 35.64677 14.00803 35.8724 14.18588 36.09802 14.36514 36.32361 14.54507 36.54922 14.7264 36.77484 14.90875 37.00046 15.09215 37.22607 15.27693 37.45168 15.4624 37.67729 15.64961 37.90291 15.83751 38.12851 16.02643 38.35414 16.21675 38.57976 16.40811 38.80536 16.6005 39.03096 16.79428 39.25658 16.98875 39.48221 17.18462 39.70782 17.38184 39.93343 17.57977 40.15903 17.77908 40.38464 17.97945 40.61026 18.18083 40.83588 18.38326 41.0615 18.58707 41.2871 18.79193 41.51271 18.99782 41.73831 19.20474 41.96394 19.41304 42.18956 19.6224 42.41518 19.83278 42.64076 20.0442 42.86638 20.25702 43.09201 20.47087 43.31763 20.68576 43.54323 20.90167 43.76883 21.11897 43.99445 21.33699 44.22006 21.55672 44.44568 21.77713 44.6713 21.9986 44.89691 22.22144"/>
</svg>
