<svg xmlns="http://www.w3.org/2000/svg" xmlns:xlink="http://www.w3.org/1999/xlink" version="1.1" width="139" height="53" viewBox="0 0 139 53">
<defs>
<path id="font_1_4" d="M.42799378 .45222474 .43899537 .49023438H.31199647L.34599305 .6092224 .33399964 .6162262 .23699951 .53923037 .22399903 .49023438H.14299011L.13198853 .45222474H.21499634L.125 .08627319C.10998535 .029266358 .12199402-.01171875 .17199707-.01171875 .2519989-.01171875 .31599427 .054275514 .35598756 .1292572L.33399964 .1462555C.31098939 .10726929 .2599945 .040267946 .22898865 .040267946 .20799256 .040267946 .20799256 .0632782 .21398926 .088272098L.30299378 .45222474H.42799378Z"/>
<path id="font_1_2" d="M.33999635 .46694947C.36999513 .46694947 .41999818 .4519348 .41999818 .38290406 .41999818 .28987123 .37199403 .21484375 .29699708 .21484375 .24398804 .21484375 .21398926 .2508545 .21398926 .3008728 .21398926 .36390687 .24499512 .46694947 .33999635 .46694947M.45700074 .4719391C.43099977 .48895265 .38198854 .5019531 .33299256 .5019531 .16899109 .5019531 .11999512 .38891603 .11999512 .31788636 .11999512 .24385071 .17399597 .20584107 .20399475 .19483948V.19284058C.17298889 .17984009 .11299133 .15783692 .11299133 .11782837 .11299133 .08482361 .14299011 .061828615 .18399048 .04283142V.04081726C.115997318 .028823853 .02999878-.013183594 .02999878-.096191409 .02999878-.18519593 .12298584-.2421875 .25-.2421875 .3849945-.2421875 .49398805-.18519593 .49398805-.07518005 .49398805-.00018310547 .43699647 .05381775 .31900025 .081832889 .23498535 .1018219 .19799805 .11582947 .19799805 .14382935 .19799805 .16282654 .21798706 .1768341 .24198914 .18283081 .2619934 .17984009 .2809906 .17984009 .29599 .17984009 .43499757 .17984009 .5119934 .25585938 .5119934 .35890199 .5119934 .38591004 .5039978 .4109192 .4909973 .42793275L.57499697 .4399414 .60798647 .50294497 .60198977 .51194766 .45700074 .4719391M.27198792-.2071991C.18499756-.2071991 .12199402-.15919495 .12199402-.08718872 .12199402-.015182495 .18699646 .018829346 .22799683 .02482605 .29100038 .015823365 .40899659-.010177612 .40899659-.094192508 .40899659-.17019654 .34700013-.2071991 .27198792-.2071991Z"/>
<path id="font_2_1" d="M.1749878 .2822113C.1749878 .56832888 .2619934 .65437319 .32499696 .66737368V.6923828C.1499939 .685379 .10499573 .46829225 .10499573 .2822113 .10499573 .09614563 .1499939-.12094116 .32499696-.12792969V-.10293579C.2669983-.090927127 .1749878-.0059051516 .1749878 .2822113Z"/>
<path id="font_2_2" d="M.1749878 .2822113C.1749878-.0059051516 .08299255-.090927127 .024993897-.10293579V-.12792969C.19999695-.12094116 .24499512 .09614563 .24499512 .2822113 .24499512 .46829225 .19999695 .685379 .024993897 .6923828V.66737368C.08799744 .65437319 .1749878 .56832888 .1749878 .2822113Z"/>
<path id="font_3_1" d="M.6349945 .14315796V.20117188H.084991458V.14315796H.6349945M.6349945 .36288453V.42089845H.084991458V.36288453H.6349945Z"/>
<path id="font_2_3" d="M.43699647 0V.0289917L.35299684 .035995485C.33198548 .037994386 .31999208 .04598999 .31999208 .08496094V.67367556L.31498719 .6796875 .10899353 .6446991V.6197052L.20199585 .6087036C.21899414 .6067047 .22599793 .5987091 .22599793 .56973269V.08496094C.22599793 .065979007 .22299195 .053985597 .21699524 .04698181 .21199036 .039993287 .20399475 .036987306 .19299317 .035995485L.10899353 .0289917V0H.43699647Z"/>
<path id="font_1_1" d="M.31399537 0 .31999208 .0289917 .26098634 .032989503C.23699951 .034988405 .23199463 .052001954 .23899842 .08302307L.35899354 .6093445C.3659973 .6403656 .37599183 .6563721 .40098573 .658371L.45599366 .66337588 .46299745 .6923828H.18899536L.18199158 .66337588 .24099732 .65937808C.2639923 .65737918 .269989 .6393585 .2630005 .6093445L.14299011 .08302307C.13598633 .05101013 .125 .037002565 .100997928 .034988405L.04598999 .0289917 .039993287 0H.31399537Z"/>
<path id="font_2_4" d="M.4850006 .13195801 .45700074 .13696289C.43598939 .08299255 .41600038 .07598877 .37599183 .07598877H.11999512C.13598633 .1279602 .19499207 .19892884 .28799439 .2658844 .38398744 .33584596 .45799256 .38082887 .45799256 .49276734 .45799256 .63168337 .3659973 .6796875 .26098634 .6796875 .12399292 .6796875 .052993776 .5967102 .052993776 .54473879 .052993776 .51075747 .09098816 .49476625 .10798645 .49476625 .12599182 .49476625 .1329956 .50476077 .13699341 .5217438 .15299988 .5897064 .19198609 .64468386 .2539978 .64468386 .33099366 .64468386 .35299684 .5797119 .35299684 .50675967 .35299684 .3998108 .29899598 .33984376 .21199036 .26289369 .08898926 .15594483 .04598999 .08798218 .026992798 .009994507L.036987306 0H.45098878L.4850006 .13195801Z"/>
<path id="font_2_7" d="M.2599945 .46694947C.30899049 .46694947 .3600006 .43093873 .3600006 .33392335 .3600006 .24989319 .31599427 .20588684 .2579956 .20588684 .20199585 .20588684 .15499878 .24989319 .15499878 .33392335 .15499878 .43293763 .20698548 .46694947 .2599945 .46694947M.2809906-.2071991C.19599915-.2071991 .13699341-.16319275 .13699341-.09118652 .13699341-.057174684 .14698792-.032180787 .16799927-.016174317 .18998719 .0008239746 .22299195 .0068359377 .2709961 .0068359377 .35899354 .0068359377 .42399598-.014175415 .42399598-.08918762 .42399598-.16918946 .35198976-.2071991 .2809906-.2071991M.3889923 .47094728C.36099244 .48994447 .30599977 .5019531 .2599945 .5019531 .10699463 .5019531 .052993776 .40792848 .052993776 .33392335 .052993776 .23989868 .114990238 .19688416 .16099549 .18489075V.18289185C.10699463 .1618805 .068984989 .13285828 .068984989 .09384155 .068984989 .05882263 .10899353 .020828248 .15699768 .015823365V.013824463C.11399841-.00016784668 .041992189-.024169922 .041992189-.09617615 .041992189-.19718933 .14199829-.2421875 .2579956-.2421875 .31799317-.2421875 .3809967-.23019409 .42900086-.20118714 .47499085-.17318726 .5079956-.12619019 .5079956-.06417847 .5079956 .043823244 .42199708 .081832889 .31498719 .081832889H.23498535C.16299439 .081832889 .1519928 .10585022 .1519928 .12486267 .1519928 .15388489 .18998719 .16989136 .20298767 .17388916 .22200012 .17189026 .24299622 .17089844 .2539978 .17089844 .34899903 .17089844 .45599366 .21289063 .45599366 .33392335 .45599366 .3759308 .44299317 .41093446 .42599488 .42793275L.5049896 .4399414 .5249939 .50294497 .5169983 .51194766 .3889923 .47094728Z"/>
<path id="font_2_13" d="M.18899536 .5019531 .036987306 .47694398V.45195008L.07499695 .4469452C.100997928 .4429474 .10699463 .4379425 .10699463 .40194703V.08699036C.10699463 .035995485 .101989749 .033996583 .03199768 .0289917V0H.29599V.0289917C.20698548 .033996583 .20098877 .035995485 .20098877 .08699036V.32095338C.20098877 .39794923 .23498535 .4239502 .2579956 .4239502 .27398683 .4239502 .29100038 .4179535 .31999208 .40194703 .32699586 .39794923 .33499146 .39694215 .33999635 .39694215 .3639984 .39694215 .38598634 .4219513 .38598634 .4529419 .38598634 .47494508 .37199403 .5019531 .33299256 .5019531 .29699708 .5019531 .2669983 .47994996 .20098877 .4219513L.18899536 .5019531Z"/>
<path id="font_2_5" d="M.34298707 .14318848C.34298707 .06225586 .2809906 .041275026 .24198914 .041275026 .17999268 .041275026 .1499939 .085235599 .1499939 .14419556 .1499939 .19116211 .17199707 .21513367 .22799683 .23612976 .2679901 .2511139 .32099916 .27009584 .34298707 .28408814V.14318848M.43299867 .36901856C.43299867 .42697145 .41999818 .5019531 .2689972 .5019531 .1559906 .5019531 .066986087 .44296266 .066986087 .3880005 .066986087 .35603334 .10398865 .3410492 .12298584 .3410492 .14399719 .3410492 .1499939 .35203553 .15499878 .36901856 .1769867 .44296266 .21798706 .46694947 .2579956 .46694947 .29699708 .46694947 .34298707 .44696046 .34298707 .36701966V.32505799C.31799317 .29907228 .22099304 .27409364 .14199829 .24911499 .069992069 .22712708 .04899597 .1771698 .04899597 .13020325 .04899597 .055267335 .09899902-.01171875 .19299317-.01171875 .25498963-.009719849 .30999757 .027267456 .34199525 .04826355 .35598756 .011276245 .37199403-.01171875 .40699769-.01171875 .44400025-.01171875 .4869995-.0007324219 .5249939 .01828003L.5189972 .042266847C.5049896 .039276124 .48298646 .03727722 .46798707 .041275026 .44999696 .045272829 .43299867 .06425476 .43299867 .12721253V.36901856Z"/>
<path id="font_2_12" d="M.19400025 .32104493C.19400025 .34602357 .19799805 .36001588 .20698548 .37800599 .22999573 .42396546 .272995 .44795228 .32598878 .44795228 .3659973 .44795228 .45498658 .42196656 .45498658 .25009156 .45498658 .10321045 .40899659 .023269654 .30899049 .023269654 .25698854 .023269654 .21699524 .050247194 .20098877 .096221927 .19499207 .11419678 .19400025 .13418579 .19400025 .15716553V.32104493M.02999878 .47694398V.45195008L.067993167 .4469452C.09399414 .4429474 .099990848 .43795777 .099990848 .40197755V-.14324951C.099990848-.19444275 .09498596-.19645691 .024993897-.20147705V-.23046875H.28399659V-.20147705C.19999695-.19645691 .19400025-.19444275 .19400025-.14324951V.011276245C.21499634-.0007324219 .2619934-.01171875 .30799867-.01171875 .44299317-.01171875 .5589905 .050247194 .5589905 .25608827 .5589905 .32704164 .54599 .5019531 .3639984 .5019531 .29100038 .5019531 .23298645 .4529419 .19400025 .42796327L.18099976 .5019531 .02999878 .47694398Z"/>
<path id="font_2_8" d="M.5169983 .34295655C.5169983 .4439392 .46199037 .5019531 .36898805 .5019531 .29599 .5019531 .25099183 .46794129 .18798828 .4259491V.73617556L.18099976 .7421875 .024993897 .7171478V.6921234L.06298828 .68711856C.08898926 .6831207 .09498596 .67811587 .09498596 .6420746V.08699036C.09599304 .037994386 .09098816 .033996583 .020996094 .0289917V0H.2639923V.0289917C.19499207 .033996583 .18899536 .037994386 .18899536 .08699036V.32095338C.18899536 .34596253 .18998719 .35995484 .19799805 .37495423 .21899414 .4149475 .2649994 .44795228 .31799317 .44795228 .38598634 .44795228 .4229889 .40994264 .4229889 .32295228V.08699036C.4229889 .037994386 .41799928 .033996583 .34799195 .0289917V0H.59199526V.0289917C.522995 .033996583 .5169983 .037994386 .5169983 .08699036V.34295655Z"/>
<path id="font_2_9" d="M.036987306 .47694398V.45195008L.07499695 .4469452C.100997928 .4429474 .10699463 .43795777 .10699463 .40194703V.08699036C.10699463 .035995485 .10398865 .033996583 .03199768 .0289917V0H.27598573V.0289917C.20498657 .033996583 .20098877 .035995485 .20098877 .08699036V.49609376L.19400025 .5020752 .036987306 .47694398M.15299988 .71484377C.116989139 .71484377 .09199524 .6888428 .09199524 .65283206 .09199524 .61782839 .116989139 .5928345 .15299988 .5928345 .18998719 .5928345 .21299744 .61782839 .21398926 .65283206 .21398926 .6888428 .18998719 .71484377 .15299988 .71484377Z"/>
<path id="font_2_11" d="M.5289917 .34295655C.5289917 .4439392 .47399903 .5019531 .38198854 .5019531 .30799867 .5019531 .2619934 .46594239 .19999695 .4259491L.18598938 .5019531 .036987306 .47694398V.45195008L.07499695 .4469452C.100997928 .4429474 .10699463 .4379425 .10699463 .40194703V.08699036C.10699463 .035995485 .10398865 .033996583 .03199768 .0289917V0H.27598573V.0289917C.20498657 .033996583 .20098877 .035995485 .20098877 .08699036V.32095338C.20098877 .34596253 .20298767 .35995484 .21099854 .37594605 .23199463 .4149475 .2769928 .44795228 .32998658 .44795228 .397995 .44795228 .43499757 .40994264 .43499757 .32295228V.08699036C.43499757 .035995485 .43199159 .033996583 .3600006 .0289917V0H.60398867V.0289917C.5329895 .033996583 .5289917 .035995485 .5289917 .08699036V.34295655Z"/>
<path id="font_2_14" d="M.32598878 .45022584V.49023438H.19699097V.6162262H.16799927L.10699463 .49023438H.0309906V.45022584H.102996829V.102264408C.102996829 .0002746582 .1789856-.01171875 .21398926-.01171875 .2649994-.01171875 .31298829 .014266968 .34199525 .03227234L.33399964 .053268434C.30999757 .043273927 .28799439 .040267946 .2630005 .040267946 .22898865 .040267946 .19699097 .06427002 .19699097 .14025879V.45022584H.32598878Z"/>
<path id="font_2_6" d="M.44099427 .2627716C.46199037 .2627716 .48098756 .2677765 .48098756 .30078126 .48098756 .35983277 .46199037 .5019531 .2789917 .5019531 .12298584 .5019531 .04899597 .39086915 .04899597 .24082947 .04899597 .08317566 .116989139-.01373291 .27999879-.01171875 .3909912-.010726929 .44799806 .050247194 .47499085 .1290741L.44499208 .14503479C.4169922 .08717346 .3789978 .039276124 .2999878 .039276124 .17599488 .039276124 .15098572 .15901184 .15299988 .2627716H.44099427M.1539917 .30078126C.1539917 .34181214 .16899109 .46694947 .272995 .46694947 .3659973 .46694947 .3769989 .37184144 .3769989 .33280946 .3769989 .31378175 .37098695 .30078126 .34298707 .30078126H.1539917Z"/>
<path id="font_2_15" d="M.33898927 .49023438V.46122743L.3880005 .45622254C.4039917 .45422364 .40699769 .44322206 .40299989 .42921449 .394989 .39718629 .37599183 .3391571 .35299684 .27511598L.28599549 .08999634H.28399659L.22299195 .25810243C.20298767 .31513978 .18299866 .37316896 .1639862 .42721559 .15699768 .44622804 .16099549 .45422364 .17999268 .45622254L.22499085 .46122743V.49023438H.0009918213V.46122743C.04798889 .4572296 .056991579 .4532318 .07199097 .41619874 .09899902 .3501587 .12199402 .28511048 .14698792 .21607971L.22399903 0H.29599L.3849945 .24209595C.4139862 .32014466 .44299317 .3861847 .45700074 .41819764 .47200013 .4532318 .48298646 .45922853 .5289917 .46122743V.49023438H.33898927Z"/>
<path id="font_2_10" d="M.18899536 .7361908 .18199158 .7421875 .024993897 .71717837V.6921692L.06298828 .6881714C.08898926 .6851654 .09498596 .6801758 .09498596 .6421509V.087005618C.09498596 .035995485 .09199524 .033996583 .019989014 .0289917V0H.2639923V.0289917C.19299317 .033996583 .18899536 .035995485 .18899536 .087005618V.7361908Z"/>
<path id="font_1_3" d="M.18598938 .0002746582C.21499634 .10221863 .23199463 .1561737 .2579956 .21812439 .29499818 .3040619 .3909912 .44995118 .47200013 .44995118 .5069885 .44995118 .5159912 .41796876 .5049896 .3789978L.4189911 .086242679C.40299989 .030273438 .41600038-.01171875 .46998597-.01171875 .54499819-.01171875 .6009979 .056259157 .6349945 .13220215L.61099246 .14619446C.59298709 .11122131 .548996 .040267946 .5209961 .040267946 .5009918 .040267946 .5019989 .06324768 .5109863 .0952301L.58898928 .35702516C.6119995 .43595887 .59999087 .5019531 .5179901 .5019531 .42199708 .5019531 .31799317 .39598084 .2579956 .27908326H.25498963L.31999208 .4970703 .31498719 .50205996 .13198853 .47375489 .12599182 .44995118 .18798828 .4449463C.21199036 .4429474 .21199036 .42895509 .20298767 .39698792L.09799194-.01171875 .18598938 .0002746582Z"/>
</defs>
<path transform="matrix(1,0,0,-1.00006,1.0930023,33.450048)" d="M0-18.14206V31.7484H45.35506V-18.14206ZM45.35506 31.7484" fill="#d9d9ec"/>
<path transform="matrix(1,0,0,-1.00006,1.0930023,33.450048)" d="M45.35506-18.14206V31.7484H90.71013V-18.14206ZM90.71013 31.7484" fill="#d9ecd9"/>
<path transform="matrix(1,0,0,-1.00006,1.0930023,33.450048)" d="M90.71013-18.14206V31.7484H136.0652V-18.14206ZM136.0652 31.7484" fill="#ecd9d9"/>
<path transform="matrix(1,0,0,-1.00006,1.0930023,33.450048)" stroke-width=".3985" stroke-linecap="butt" stroke-miterlimit="10" stroke-linejoin="miter" fill="none" stroke="#000000" d="M0 0H135.60692"/>
<path transform="matrix(1,0,0,-1.00006,136.69992,33.450048)" stroke-width=".31879" stroke-linecap="round" stroke-linejoin="round" fill="none" stroke="#000000" d="M-1.19551 1.59401C-1.09587 .99626 0 .09961 .29886 0 0-.09961-1.09587-.99626-1.19551-1.59401"/>
<use data-text="t" xlink:href="#font_1_4" transform="matrix(7.3325,0,0,-7.3329398,133.328,29.98684)"/>
<path transform="matrix(1,0,0,-1.00006,1.0930023,33.450048)" stroke-width=".19925" stroke-linecap="butt" stroke-dasharray="2.98883,2.98883" stroke-miterlimit="10" stroke-linejoin="miter" fill="none" stroke="#000000" d="M45.35506-18.14206V31.7484"/>
<path transform="matrix(1,0,0,-1.00006,1.0930023,33.450048)" stroke-width=".19925" stroke-linecap="butt" stroke-dasharray="2.98883,2.98883" stroke-miterlimit="10" stroke-linejoin="miter" fill="none" stroke="#000000" d="M90.71013-18.14206V31.7484"/>
<use data-text="g" xlink:href="#font_1_2" transform="matrix(7.3325,0,0,-7.3329398,4.9230005,12.464788)" fill="#000080"/>
<use data-text="(" xlink:href="#font_2_1" transform="matrix(7.3325,0,0,-7.3329398,9.521999,12.464788)" fill="#000080"/>
<use data-text="t" xlink:href="#font_1_4" transform="matrix(7.3325,0,0,-7.3329398,12.246998,12.464788)" fill="#000080"/>
<use data-text=")" xlink:href="#font_2_2" transform="matrix(7.3325,0,0,-7.3329398,15.530994,12.464788)" fill="#000080"/>
<use data-text="=" xlink:href="#font_3_1" transform="matrix(7.3325,0,0,-7.3329398,19.460995,12.464788)" fill="#000080"/>
<use data-text="g" xlink:href="#font_1_2" transform="matrix(7.3325,0,0,-7.3329398,26.260998,12.464788)" fill="#000080"/>
<use data-text="1" xlink:href="#font_2_3" transform="matrix(6.2326,0,0,-6.232974,30.397,13.831871)" fill="#000080"/>
<use data-text="(" xlink:href="#font_2_1" transform="matrix(7.3325,0,0,-7.3329398,34.201,12.464788)" fill="#000080"/>
<use data-text="t" xlink:href="#font_1_4" transform="matrix(7.3325,0,0,-7.3329398,36.927,12.464788)" fill="#000080"/>
<use data-text=")" xlink:href="#font_2_2" transform="matrix(7.3325,0,0,-7.3329398,40.210996,12.464788)" fill="#000080"/>
<path transform="matrix(1,0,0,-1.00006,1.0930023,33.450048)" stroke-width=".3985" stroke-linecap="butt" stroke-miterlimit="10" stroke-linejoin="miter" fill="none" stroke="#000000" d="M.45827-6.8033H18.14206"/>
<path transform="matrix(-1,-0,0,1.00006,1.5512724,40.253755)" stroke-width=".31879" stroke-linecap="round" stroke-linejoin="round" fill="none" stroke="#000000" d="M-1.19551 1.59401C-1.09587 .99626 0 .09961 .29886 0 0-.09961-1.09587-.99626-1.19551-1.59401"/>
<use data-text="I" xlink:href="#font_1_1" transform="matrix(7.3325,0,0,-7.3329398,20.525002,42.134569)" fill="#000080"/>
<use data-text="1" xlink:href="#font_2_3" transform="matrix(6.2326,0,0,-6.232974,23.450005,43.501649)" fill="#000080"/>
<path transform="matrix(1,0,0,-1.00006,1.0930023,33.450048)" stroke-width=".3985" stroke-linecap="butt" stroke-miterlimit="10" stroke-linejoin="miter" fill="none" stroke="#000000" d="M27.21297-6.8033H44.89677"/>
<path transform="matrix(1,0,0,-1.00006,45.989774,40.253755)" stroke-width=".31879" stroke-linecap="round" stroke-linejoin="round" fill="none" stroke="#000000" d="M-1.19551 1.59401C-1.09587 .99626 0 .09961 .29886 0 0-.09961-1.09587-.99626-1.19551-1.59401"/>
<use data-text="g" xlink:href="#font_1_2" transform="matrix(7.3325,0,0,-7.3329398,60.947,12.464788)" fill="#008000"/>
<use data-text="2" xlink:href="#font_2_4" transform="matrix(6.2326,0,0,-6.232974,65.083,13.831871)" fill="#008000"/>
<use data-text="(" xlink:href="#font_2_1" transform="matrix(7.3325,0,0,-7.3329398,68.888,12.464788)" fill="#008000"/>
<use data-text="t" xlink:href="#font_1_4" transform="matrix(7.3325,0,0,-7.3329398,71.613,12.464788)" fill="#008000"/>
<use data-text=")" xlink:href="#font_2_2" transform="matrix(7.3325,0,0,-7.3329398,74.896999,12.464788)" fill="#008000"/>
<use data-text="g" xlink:href="#font_2_7" transform="matrix(7.3325,0,0,-7.3329398,59.462,21.674342)" fill="#008000"/>
<use data-text="r" xlink:href="#font_2_13" transform="matrix(7.3325,0,0,-7.3329398,63.2749,21.674342)" fill="#008000"/>
<use data-text="a" xlink:href="#font_2_5" transform="matrix(7.3325,0,0,-7.3329398,66.05391,21.674342)" fill="#008000"/>
<use data-text="p" xlink:href="#font_2_12" transform="matrix(7.3325,0,0,-7.3329398,69.88881,21.674342)" fill="#008000"/>
<use data-text="h" xlink:href="#font_2_8" transform="matrix(7.3325,0,0,-7.3329398,74.34697,21.674342)" fill="#008000"/>
<use data-text="i" xlink:href="#font_2_9" transform="matrix(7.3325,0,0,-7.3329398,53.616,45.235757)" fill="#008000"/>
<use data-text="n" xlink:href="#font_2_11" transform="matrix(7.3325,0,0,-7.3329398,55.74976,45.235757)" fill="#008000"/>
<use data-text="t" xlink:href="#font_2_14" transform="matrix(7.3325,0,0,-7.3329398,60.288579,45.235757)" fill="#008000"/>
<use data-text="e" xlink:href="#font_2_6" transform="matrix(7.3325,0,0,-7.3329398,62.810956,45.235757)" fill="#008000"/>
<use data-text="r" xlink:href="#font_2_13" transform="matrix(7.3325,0,0,-7.3329398,66.579868,45.235757)" fill="#008000"/>
<use data-text="v" xlink:href="#font_2_15" transform="matrix(7.3325,0,0,-7.3329398,69.556858,45.235757)" fill="#008000"/>
<use data-text="a" xlink:href="#font_2_5" transform="matrix(7.3325,0,0,-7.3329398,73.215778,45.235757)" fill="#008000"/>
<use data-text="l" xlink:href="#font_2_10" transform="matrix(7.3325,0,0,-7.3329398,77.050678,45.235757)" fill="#008000"/>
<use data-text="2" xlink:href="#font_2_4" transform="matrix(7.3325,0,0,-7.3329398,80.73892,45.235757)" fill="#008000"/>
<use data-text="g" xlink:href="#font_1_2" transform="matrix(7.3325,0,0,-7.3329398,105.858,12.464788)" fill="#800000"/>
<use data-text="n" xlink:href="#font_1_3" transform="matrix(6.2326,0,0,-6.232974,109.994,13.659859)" fill="#800000"/>
<use data-text="(" xlink:href="#font_2_1" transform="matrix(7.3325,0,0,-7.3329398,114.686008,12.464788)" fill="#800000"/>
<use data-text="t" xlink:href="#font_1_4" transform="matrix(7.3325,0,0,-7.3329398,117.412,12.464788)" fill="#800000"/>
<use data-text=")" xlink:href="#font_2_2" transform="matrix(7.3325,0,0,-7.3329398,120.695,12.464788)" fill="#800000"/>
<use data-text="g" xlink:href="#font_2_7" transform="matrix(7.3325,0,0,-7.3329398,104.817,21.674342)" fill="#800000"/>
<use data-text="r" xlink:href="#font_2_13" transform="matrix(7.3325,0,0,-7.3329398,108.6299,21.674342)" fill="#800000"/>
<use data-text="a" xlink:href="#font_2_5" transform="matrix(7.3325,0,0,-7.3329398,111.40891,21.674342)" fill="#800000"/>
<use data-text="p" xlink:href="#font_2_12" transform="matrix(7.3325,0,0,-7.3329398,115.24381,21.674342)" fill="#800000"/>
<use data-text="h" xlink:href="#font_2_8" transform="matrix(7.3325,0,0,-7.3329398,119.70197,21.674342)" fill="#800000"/>
<use data-text="i" xlink:href="#font_2_9" transform="matrix(7.3325,0,0,-7.3329398,98.648,45.235757)" fill="#800000"/>
<use data-text="n" xlink:href="#font_2_11" transform="matrix(7.3325,0,0,-7.3329398,100.78176,45.235757)" fill="#800000"/>
<use data-text="t" xlink:href="#font_2_14" transform="matrix(7.3325,0,0,-7.3329398,105.32058,45.235757)" fill="#800000"/>
<use data-text="e" xlink:href="#font_2_6" transform="matrix(7.3325,0,0,-7.3329398,107.84296,45.235757)" fill="#800000"/>
<use data-text="r" xlink:href="#font_2_13" transform="matrix(7.3325,0,0,-7.3329398,111.61186,45.235757)" fill="#800000"/>
<use data-text="v" xlink:href="#font_2_15" transform="matrix(7.3325,0,0,-7.3329398,114.58885,45.235757)" fill="#800000"/>
<use data-text="a" xlink:href="#font_2_5" transform="matrix(7.3325,0,0,-7.3329398,118.24777,45.235757)" fill="#800000"/>
<use data-text="l" xlink:href="#font_2_10" transform="matrix(7.3325,0,0,-7.3329398,122.08267,45.235757)" fill="#800000"/>
<use data-text="n" xlink:href="#font_2_11" transform="matrix(7.3325,0,0,-7.3329398,125.77092,45.235757)" fill="#800000"/>
</svg>
