<svg xmlns="http://www.w3.org/2000/svg" xmlns:xlink="http://www.w3.org/1999/xlink" version="1.1" width="127" height="69" viewBox="0 0 127 69">
<defs>
<path id="font_1_1" d="M.42799378 .45222474 .43899537 .49023438H.31199647L.34599305 .6092224 .33399964 .6162262 .23699951 .53923037 .22399903 .49023438H.14299011L.13198853 .45222474H.21499634L.125 .08627319C.10998535 .029266358 .12199402-.01171875 .17199707-.01171875 .2519989-.01171875 .31599427 .054275514 .35598756 .1292572L.33399964 .1462555C.31098939 .10726929 .2599945 .040267946 .22898865 .040267946 .20799256 .040267946 .20799256 .0632782 .21398926 .088272098L.30299378 .45222474H.42799378Z"/>
<path id="font_1_2" d="M.070999149 .45393373 .07398987 .42893983 .14199829 .43093873C.1639862 .43193055 .16899109 .41493226 .1769867 .36291505 .18798828 .28489686 .20999146 .09286499 .20999146 .0128479 .20999146-.017166138 .20799256-.058166505 .18598938-.11117554 .16799927-.15318299 .14199829-.18218994 .12199402-.18218994 .10699463-.18218994 .09599304-.17118836 .08099365-.15118408 .068984989-.13517761 .06098938-.127182 .04598999-.127182 .019989014-.12818909-.005004883-.15818787-.005004883-.18719483-.005004883-.21418762 .023986817-.2421875 .067993167-.2421875 .15299988-.2421875 .18998719-.17919922 .27799989-.027160645 .2979889 .0068511965 .35798646 .11286926 .41999818 .21488953 .47698976 .30891419 .5399933 .40592958 .5399933 .4459381 .5399933 .48094178 .5289917 .5019531 .5219879 .5019531 .5029907 .5019531 .46899415 .49394227 .44400025 .47694398 .44499208 .4419403 .44299317 .3809204 .43099977 .33891297 .4149933 .28289796 .35598756 .17488098 .2899933 .06085205H.2869873C.27999879 .21388245 .26098634 .42492677 .24699402 .49795533L.23899842 .5019531 .070999149 .45393373Z"/>
<path id="font_2_1" d="M.07398987 .2861328V.21612549H.31900025V.2861328H.07398987Z"/>
<path id="font_2_6" d="M.2999878 .17871094V.0769043C.2999878 .04296875 .2889862 .036987306 .2649994 .034988405L.20098877 .0289917V0H.46499635V.0289917L.41999818 .033981325C.39698792 .036987306 .3899994 .04296875 .3899994 .0769043V.17871094H.49299623V.22570801H.3899994V.66796877H.31698609C.22299195 .5298767 .11099243 .35577394 .018997193 .19970703L.027999878 .17871094H.2999878M.09098816 .22570801C.15098572 .33476258 .22099304 .4498291 .2979889 .5709076H.2999878V.22570801H.09098816Z"/>
<path id="font_2_5" d="M.12998963 .3657837C.12998963 .3487854 .1349945 .33779908 .147995 .33779908 .1599884 .33779908 .18699646 .34777833 .23498535 .34777833 .31999208 .34777833 .36799623 .27090455 .36799623 .18403626 .36799623 .065216068 .30899049 .023269654 .23799134 .023269654 .17199707 .023269654 .1289978 .07319641 .10998535 .12911988 .10398865 .14808655 .09399414 .15707398 .07998657 .15707398 .06199646 .15707398 .026992798 .13809204 .026992798 .10215759 .026992798 .05921936 .09599304-.01171875 .23699951-.01171875 .38198854-.01171875 .47299195 .06121826 .47299195 .18902588 .47299195 .32281495 .35798646 .3627777 .30299378 .3677826V.3717804C.35699464 .38078309 .44400025 .4207611 .44400025 .5197296 .44400025 .6306915 .35699464 .6796875 .25 .6796875 .117996219 .6796875 .052993776 .60369876 .052993776 .5607147 .052993776 .5297241 .08799744 .51272585 .101989749 .51272585 .114990238 .51272585 .12298584 .5197296 .1269989 .5327301 .14898682 .60069277 .18699646 .64468386 .24299622 .64468386 .32199098 .64468386 .34098817 .57470706 .34098817 .51872256 .34098817 .4587555 .31999208 .38378907 .23498535 .38378907 .18699646 .38378907 .1599884 .39378358 .147995 .39378358 .1349945 .39378358 .12998963 .38378907 .12998963 .3657837Z"/>
<path id="font_2_4" d="M.4850006 .13195801 .45700074 .13696289C.43598939 .08299255 .41600038 .07598877 .37599183 .07598877H.11999512C.13598633 .1279602 .19499207 .19892884 .28799439 .2658844 .38398744 .33584596 .45799256 .38082887 .45799256 .49276734 .45799256 .63168337 .3659973 .6796875 .26098634 .6796875 .12399292 .6796875 .052993776 .5967102 .052993776 .54473879 .052993776 .51075747 .09098816 .49476625 .10798645 .49476625 .12599182 .49476625 .1329956 .50476077 .13699341 .5217438 .15299988 .5897064 .19198609 .64468386 .2539978 .64468386 .33099366 .64468386 .35299684 .5797119 .35299684 .50675967 .35299684 .3998108 .29899598 .33984376 .21199036 .26289369 .08898926 .15594483 .04598999 .08798218 .026992798 .009994507L.036987306 0H.45098878L.4850006 .13195801Z"/>
<path id="font_2_3" d="M.43699647 0V.0289917L.35299684 .035995485C.33198548 .037994386 .31999208 .04598999 .31999208 .08496094V.67367556L.31498719 .6796875 .10899353 .6446991V.6197052L.20199585 .6087036C.21899414 .6067047 .22599793 .5987091 .22599793 .56973269V.08496094C.22599793 .065979007 .22299195 .053985597 .21699524 .04698181 .21199036 .039993287 .20399475 .036987306 .19299317 .035995485L.10899353 .0289917V0H.43699647Z"/>
<path id="font_2_2" d="M.2649994 .64468386C.3600006 .64468386 .3869934 .49682618 .3869934 .33398438 .3869934 .17112732 .3600006 .023269654 .2649994 .023269654 .16999817 .023269654 .14299011 .17112732 .14299011 .33398438 .14299011 .49682618 .16999817 .64468386 .2649994 .64468386M.2649994 .6796875C.099990848 .6796875 .040985109 .53378298 .040985109 .33398438 .040985109 .13417053 .099990848-.01171875 .2649994-.01171875 .42999269-.01171875 .4889984 .13417053 .4889984 .33398438 .4889984 .53378298 .42999269 .6796875 .2649994 .6796875Z"/>
</defs>
<path transform="matrix(1.00009,0,0,-1.00005,65.13107,32.748987)" stroke-width=".3985" stroke-linecap="butt" stroke-miterlimit="10" stroke-linejoin="miter" fill="none" stroke="#cbcbcb" d="M-51.02345-28.34636V28.34636"/>
<path transform="matrix(1.00009,0,0,-1.00005,65.13107,32.748987)" stroke-width=".3985" stroke-linecap="butt" stroke-miterlimit="10" stroke-linejoin="miter" fill="none" stroke="#cbcbcb" d="M-45.35419-28.34636V28.34636"/>
<path transform="matrix(1.00009,0,0,-1.00005,65.13107,32.748987)" stroke-width=".3985" stroke-linecap="butt" stroke-miterlimit="10" stroke-linejoin="miter" fill="none" stroke="#cbcbcb" d="M-39.6849-28.34636V28.34636"/>
<path transform="matrix(1.00009,0,0,-1.00005,65.13107,32.748987)" stroke-width=".3985" stroke-linecap="butt" stroke-miterlimit="10" stroke-linejoin="miter" fill="none" stroke="#cbcbcb" d="M-34.01564-28.34636V28.34636"/>
<path transform="matrix(1.00009,0,0,-1.00005,65.13107,32.748987)" stroke-width=".3985" stroke-linecap="butt" stroke-miterlimit="10" stroke-linejoin="miter" fill="none" stroke="#cbcbcb" d="M-28.34636-28.34636V28.34636"/>
<path transform="matrix(1.00009,0,0,-1.00005,65.13107,32.748987)" stroke-width=".3985" stroke-linecap="butt" stroke-miterlimit="10" stroke-linejoin="miter" fill="none" stroke="#cbcbcb" d="M-22.6771-28.34636V28.34636"/>
<path transform="matrix(1.00009,0,0,-1.00005,65.13107,32.748987)" stroke-width=".3985" stroke-linecap="butt" stroke-miterlimit="10" stroke-linejoin="miter" fill="none" stroke="#cbcbcb" d="M-17.00781-28.34636V28.34636"/>
<path transform="matrix(1.00009,0,0,-1.00005,65.13107,32.748987)" stroke-width=".3985" stroke-linecap="butt" stroke-miterlimit="10" stroke-linejoin="miter" fill="none" stroke="#cbcbcb" d="M-11.33855-28.34636V28.34636"/>
<path transform="matrix(1.00009,0,0,-1.00005,65.13107,32.748987)" stroke-width=".3985" stroke-linecap="butt" stroke-miterlimit="10" stroke-linejoin="miter" fill="none" stroke="#cbcbcb" d="M-5.66925-28.34636V28.34636"/>
<path transform="matrix(1.00009,0,0,-1.00005,65.13107,32.748987)" stroke-width=".3985" stroke-linecap="butt" stroke-miterlimit="10" stroke-linejoin="miter" fill="none" stroke="#cbcbcb" d="M0-28.34636V28.34636"/>
<path transform="matrix(1.00009,0,0,-1.00005,65.13107,32.748987)" stroke-width=".3985" stroke-linecap="butt" stroke-miterlimit="10" stroke-linejoin="miter" fill="none" stroke="#cbcbcb" d="M5.66925-28.34636V28.34636"/>
<path transform="matrix(1.00009,0,0,-1.00005,65.13107,32.748987)" stroke-width=".3985" stroke-linecap="butt" stroke-miterlimit="10" stroke-linejoin="miter" fill="none" stroke="#cbcbcb" d="M11.33855-28.34636V28.34636"/>
<path transform="matrix(1.00009,0,0,-1.00005,65.13107,32.748987)" stroke-width=".3985" stroke-linecap="butt" stroke-miterlimit="10" stroke-linejoin="miter" fill="none" stroke="#cbcbcb" d="M17.00781-28.34636V28.34636"/>
<path transform="matrix(1.00009,0,0,-1.00005,65.13107,32.748987)" stroke-width=".3985" stroke-linecap="butt" stroke-miterlimit="10" stroke-linejoin="miter" fill="none" stroke="#cbcbcb" d="M22.6771-28.34636V28.34636"/>
<path transform="matrix(1.00009,0,0,-1.00005,65.13107,32.748987)" stroke-width=".3985" stroke-linecap="butt" stroke-miterlimit="10" stroke-linejoin="miter" fill="none" stroke="#cbcbcb" d="M28.34636-28.34636V28.34636"/>
<path transform="matrix(1.00009,0,0,-1.00005,65.13107,32.748987)" stroke-width=".3985" stroke-linecap="butt" stroke-miterlimit="10" stroke-linejoin="miter" fill="none" stroke="#cbcbcb" d="M34.01564-28.34636V28.34636"/>
<path transform="matrix(1.00009,0,0,-1.00005,65.13107,32.748987)" stroke-width=".3985" stroke-linecap="butt" stroke-miterlimit="10" stroke-linejoin="miter" fill="none" stroke="#cbcbcb" d="M39.6849-28.34636V28.34636"/>
<path transform="matrix(1.00009,0,0,-1.00005,65.13107,32.748987)" stroke-width=".3985" stroke-linecap="butt" stroke-miterlimit="10" stroke-linejoin="miter" fill="none" stroke="#cbcbcb" d="M45.35419-28.34636V28.34636"/>
<path transform="matrix(1.00009,0,0,-1.00005,65.13107,32.748987)" stroke-width=".3985" stroke-linecap="butt" stroke-miterlimit="10" stroke-linejoin="miter" fill="none" stroke="#cbcbcb" d="M51.02345-28.34636V28.34636"/>
<path transform="matrix(1.00009,0,0,-1.00005,65.13107,32.748987)" stroke-width=".3985" stroke-linecap="butt" stroke-miterlimit="10" stroke-linejoin="miter" fill="none" stroke="#cbcbcb" d="M-56.69275-22.6771H56.69275"/>
<path transform="matrix(1.00009,0,0,-1.00005,65.13107,32.748987)" stroke-width=".3985" stroke-linecap="butt" stroke-miterlimit="10" stroke-linejoin="miter" fill="none" stroke="#cbcbcb" d="M-56.69275-17.00781H56.69275"/>
<path transform="matrix(1.00009,0,0,-1.00005,65.13107,32.748987)" stroke-width=".3985" stroke-linecap="butt" stroke-miterlimit="10" stroke-linejoin="miter" fill="none" stroke="#cbcbcb" d="M-56.69275-11.33855H56.69275"/>
<path transform="matrix(1.00009,0,0,-1.00005,65.13107,32.748987)" stroke-width=".3985" stroke-linecap="butt" stroke-miterlimit="10" stroke-linejoin="miter" fill="none" stroke="#cbcbcb" d="M-56.69275-5.66925H56.69275"/>
<path transform="matrix(1.00009,0,0,-1.00005,65.13107,32.748987)" stroke-width=".3985" stroke-linecap="butt" stroke-miterlimit="10" stroke-linejoin="miter" fill="none" stroke="#cbcbcb" d="M-56.69275 0H56.69275"/>
<path transform="matrix(1.00009,0,0,-1.00005,65.13107,32.748987)" stroke-width=".3985" stroke-linecap="butt" stroke-miterlimit="10" stroke-linejoin="miter" fill="none" stroke="#cbcbcb" d="M-56.69275 5.66925H56.69275"/>
<path transform="matrix(1.00009,0,0,-1.00005,65.13107,32.748987)" stroke-width=".3985" stroke-linecap="butt" stroke-miterlimit="10" stroke-linejoin="miter" fill="none" stroke="#cbcbcb" d="M-56.69275 11.33855H56.69275"/>
<path transform="matrix(1.00009,0,0,-1.00005,65.13107,32.748987)" stroke-width=".3985" stroke-linecap="butt" stroke-miterlimit="10" stroke-linejoin="miter" fill="none" stroke="#cbcbcb" d="M-56.69275 17.00781H56.69275"/>
<path transform="matrix(1.00009,0,0,-1.00005,65.13107,32.748987)" stroke-width=".3985" stroke-linecap="butt" stroke-miterlimit="10" stroke-linejoin="miter" fill="none" stroke="#cbcbcb" d="M-56.69275 22.6771H56.69275"/>
<path transform="matrix(1.00009,0,0,-1.00005,65.13107,32.748987)" stroke-width=".3985" stroke-linecap="butt" stroke-miterlimit="10" stroke-linejoin="miter" fill="none" stroke="#000000" d="M-56.69275 0H59.69583"/>
<path transform="matrix(1.00009,0,0,-1.00005,125.03154,32.748987)" stroke-width=".3985" stroke-linecap="round" stroke-linejoin="round" fill="none" stroke="#000000" d="M-2.07224 2.39104C-1.69365 .95639-.84999 .27895 0 0-.84999-.27895-1.69365-.95639-2.07224-2.39104"/>
<use data-text="t" xlink:href="#font_1_1" transform="matrix(5.499895,0,0,-5.499675,121.22313,39.537324)"/>
<path transform="matrix(1.00009,0,0,-1.00005,65.13107,32.748987)" stroke-width=".3985" stroke-linecap="butt" stroke-miterlimit="10" stroke-linejoin="miter" fill="none" stroke="#000000" d="M0-28.34636V31.34946"/>
<path transform="matrix(0,-1.00005,-1.00009,-0,65.13107,1.1987095)" stroke-width=".3985" stroke-linecap="round" stroke-linejoin="round" fill="none" stroke="#000000" d="M-2.07224 2.39104C-1.69365 .95639-.84999 .27895 0 0-.84999-.27895-1.69365-.95639-2.07224-2.39104"/>
<use data-text="y" xlink:href="#font_1_2" transform="matrix(5.499895,0,0,-5.499675,58.65349,4.5185759)"/>
<path transform="matrix(1.00009,0,0,-1.00005,65.13107,32.748987)" stroke-width=".3985" stroke-linecap="butt" stroke-miterlimit="10" stroke-linejoin="miter" fill="none" stroke="#cbcbcb" d="M-56.69275-28.34636V28.34636H56.69275V-28.34636ZM56.69275 28.34636"/>
<path transform="matrix(1.00009,0,0,-1.00005,65.13107,32.748987)" stroke-width=".3985" stroke-linecap="butt" stroke-miterlimit="10" stroke-linejoin="miter" fill="none" stroke="#000000" d="M-45.35419-29.02666V-27.66608"/>
<use data-text="-" xlink:href="#font_2_1" transform="matrix(5.499895,0,0,-5.499675,16.951737,67.49772)"/>
<use data-text="4" xlink:href="#font_2_6" transform="matrix(5.499895,0,0,-5.499675,19.107697,67.49772)"/>
<path transform="matrix(1.00009,0,0,-1.00005,65.13107,32.748987)" stroke-width=".3985" stroke-linecap="butt" stroke-miterlimit="10" stroke-linejoin="miter" fill="none" stroke="#000000" d="M-34.01564-29.02666V-27.66608"/>
<use data-text="-" xlink:href="#font_2_1" transform="matrix(5.499895,0,0,-5.499675,28.291764,67.49772)"/>
<use data-text="3" xlink:href="#font_2_5" transform="matrix(5.499895,0,0,-5.499675,30.447724,67.49772)"/>
<path transform="matrix(1.00009,0,0,-1.00005,65.13107,32.748987)" stroke-width=".3985" stroke-linecap="butt" stroke-miterlimit="10" stroke-linejoin="miter" fill="none" stroke="#000000" d="M-22.6771-29.02666V-27.66608"/>
<use data-text="-" xlink:href="#font_2_1" transform="matrix(5.499895,0,0,-5.499675,39.630784,67.49772)"/>
<use data-text="2" xlink:href="#font_2_4" transform="matrix(5.499895,0,0,-5.499675,41.786745,67.49772)"/>
<path transform="matrix(1.00009,0,0,-1.00005,65.13107,32.748987)" stroke-width=".3985" stroke-linecap="butt" stroke-miterlimit="10" stroke-linejoin="miter" fill="none" stroke="#000000" d="M-11.33855-29.02666V-27.66608"/>
<use data-text="-" xlink:href="#font_2_1" transform="matrix(5.499895,0,0,-5.499675,50.970796,67.49772)"/>
<use data-text="1" xlink:href="#font_2_3" transform="matrix(5.499895,0,0,-5.499675,53.126756,67.49772)"/>
<path transform="matrix(1.00009,0,0,-1.00005,65.13107,32.748987)" stroke-width=".3985" stroke-linecap="butt" stroke-miterlimit="10" stroke-linejoin="miter" fill="none" stroke="#000000" d="M0-29.02666V-27.66608"/>
<use data-text="0" xlink:href="#font_2_2" transform="matrix(5.499895,0,0,-5.499675,63.671945,67.49772)"/>
<path transform="matrix(1.00009,0,0,-1.00005,65.13107,32.748987)" stroke-width=".3985" stroke-linecap="butt" stroke-miterlimit="10" stroke-linejoin="miter" fill="none" stroke="#000000" d="M11.33855-29.02666V-27.66608"/>
<use data-text="1" xlink:href="#font_2_3" transform="matrix(5.499895,0,0,-5.499675,75.01196,67.49772)"/>
<path transform="matrix(1.00009,0,0,-1.00005,65.13107,32.748987)" stroke-width=".3985" stroke-linecap="butt" stroke-miterlimit="10" stroke-linejoin="miter" fill="none" stroke="#000000" d="M22.6771-29.02666V-27.66608"/>
<use data-text="2" xlink:href="#font_2_4" transform="matrix(5.499895,0,0,-5.499675,86.35198,67.49772)"/>
<path transform="matrix(1.00009,0,0,-1.00005,65.13107,32.748987)" stroke-width=".3985" stroke-linecap="butt" stroke-miterlimit="10" stroke-linejoin="miter" fill="none" stroke="#000000" d="M34.01564-29.02666V-27.66608"/>
<use data-text="3" xlink:href="#font_2_5" transform="matrix(5.499895,0,0,-5.499675,97.691,67.49772)"/>
<path transform="matrix(1.00009,0,0,-1.00005,65.13107,32.748987)" stroke-width=".3985" stroke-linecap="butt" stroke-miterlimit="10" stroke-linejoin="miter" fill="none" stroke="#000000" d="M45.35419-29.02666V-27.66608"/>
<use data-text="4" xlink:href="#font_2_6" transform="matrix(5.499895,0,0,-5.499675,109.03102,67.49772)"/>
<path transform="matrix(1.00009,0,0,-1.00005,65.13107,32.748987)" stroke-width=".3985" stroke-linecap="butt" stroke-miterlimit="10" stroke-linejoin="miter" fill="none" stroke="#000000" d="M-57.37302-22.6771H-55.5588"/>
<use data-text="-" xlink:href="#font_2_1" transform="matrix(5.499895,0,0,-5.499675,1.0923157,57.26821)"/>
<use data-text="2" xlink:href="#font_2_4" transform="matrix(5.499895,0,0,-5.499675,3.2482758,57.26821)"/>
<path transform="matrix(1.00009,0,0,-1.00005,65.13107,32.748987)" stroke-width=".3985" stroke-linecap="butt" stroke-miterlimit="10" stroke-linejoin="miter" fill="none" stroke="#000000" d="M-57.37302-11.33855H-55.5588"/>
<use data-text="-" xlink:href="#font_2_1" transform="matrix(5.499895,0,0,-5.499675,1.0923157,45.92964)"/>
<use data-text="1" xlink:href="#font_2_3" transform="matrix(5.499895,0,0,-5.499675,3.2482758,45.92964)"/>
<path transform="matrix(1.00009,0,0,-1.00005,65.13107,32.748987)" stroke-width=".3985" stroke-linecap="butt" stroke-miterlimit="10" stroke-linejoin="miter" fill="none" stroke="#000000" d="M-57.37302 0H-55.5588"/>
<use data-text="0" xlink:href="#font_2_2" transform="matrix(5.499895,0,0,-5.499675,3.2505036,34.575078)"/>
<path transform="matrix(1.00009,0,0,-1.00005,65.13107,32.748987)" stroke-width=".3985" stroke-linecap="butt" stroke-miterlimit="10" stroke-linejoin="miter" fill="none" stroke="#000000" d="M-57.37302 11.33855H-55.5588"/>
<use data-text="1" xlink:href="#font_2_3" transform="matrix(5.499895,0,0,-5.499675,3.2505036,23.25151)"/>
<path transform="matrix(1.00009,0,0,-1.00005,65.13107,32.748987)" stroke-width=".3985" stroke-linecap="butt" stroke-miterlimit="10" stroke-linejoin="miter" fill="none" stroke="#000000" d="M-57.37302 22.6771H-55.5588"/>
<use data-text="2" xlink:href="#font_2_4" transform="matrix(5.499895,0,0,-5.499675,3.2505036,11.911943)"/>
<path transform="matrix(1.00009,0,0,-1.00005,65.13107,32.748987)" stroke-width=".59776" stroke-linecap="butt" stroke-miterlimit="10" stroke-linejoin="miter" fill="none" stroke="#409f9f" d="M-51.56136-21.06358-50.48557-24.29059"/>
<path transform="matrix(1.00009,0,0,-1.00005,65.13107,32.748987)" stroke-width=".59776" stroke-linecap="butt" stroke-miterlimit="10" stroke-linejoin="miter" fill="none" stroke="#409f9f" d="M-52.08574-15.67978-49.96117-18.33585"/>
<path transform="matrix(1.00009,0,0,-1.00005,65.13107,32.748987)" stroke-width=".59776" stroke-linecap="butt" stroke-miterlimit="10" stroke-linejoin="miter" fill="none" stroke="#409f9f" d="M-52.72417-11.33855H-49.32275"/>
<path transform="matrix(1.00009,0,0,-1.00005,65.13107,32.748987)" stroke-width=".59776" stroke-linecap="butt" stroke-miterlimit="10" stroke-linejoin="miter" fill="none" stroke="#409f9f" d="M-52.38402-6.68967-49.66289-4.64883"/>
<path transform="matrix(1.00009,0,0,-1.00005,65.13107,32.748987)" stroke-width=".59776" stroke-linecap="butt" stroke-miterlimit="10" stroke-linejoin="miter" fill="none" stroke="#409f9f" d="M-52.22589-1.20242-49.82103 1.20242"/>
<path transform="matrix(1.00009,0,0,-1.00005,65.13107,32.748987)" stroke-width=".59776" stroke-linecap="butt" stroke-miterlimit="10" stroke-linejoin="miter" fill="none" stroke="#409f9f" d="M-52.38402 4.64883-49.66289 6.68967"/>
<path transform="matrix(1.00009,0,0,-1.00005,65.13107,32.748987)" stroke-width=".59776" stroke-linecap="butt" stroke-miterlimit="10" stroke-linejoin="miter" fill="none" stroke="#409f9f" d="M-52.72417 11.33855H-49.32275"/>
<path transform="matrix(1.00009,0,0,-1.00005,65.13107,32.748987)" stroke-width=".59776" stroke-linecap="butt" stroke-miterlimit="10" stroke-linejoin="miter" fill="none" stroke="#409f9f" d="M-52.08574 18.33585-49.96117 15.67978"/>
<path transform="matrix(1.00009,0,0,-1.00005,65.13107,32.748987)" stroke-width=".59776" stroke-linecap="butt" stroke-miterlimit="10" stroke-linejoin="miter" fill="none" stroke="#409f9f" d="M-51.56136 24.29059-50.48557 21.06358"/>
<path transform="matrix(1.00009,0,0,-1.00005,65.13107,32.748987)" stroke-width=".59776" stroke-linecap="butt" stroke-miterlimit="10" stroke-linejoin="miter" fill="none" stroke="#409f9f" d="M-45.89207-21.06358-44.81628-24.29059"/>
<path transform="matrix(1.00009,0,0,-1.00005,65.13107,32.748987)" stroke-width=".59776" stroke-linecap="butt" stroke-miterlimit="10" stroke-linejoin="miter" fill="none" stroke="#409f9f" d="M-46.41647-15.67978-44.2919-18.33585"/>
<path transform="matrix(1.00009,0,0,-1.00005,65.13107,32.748987)" stroke-width=".59776" stroke-linecap="butt" stroke-miterlimit="10" stroke-linejoin="miter" fill="none" stroke="#409f9f" d="M-47.05489-11.33855H-43.65347"/>
<path transform="matrix(1.00009,0,0,-1.00005,65.13107,32.748987)" stroke-width=".59776" stroke-linecap="butt" stroke-miterlimit="10" stroke-linejoin="miter" fill="none" stroke="#409f9f" d="M-46.71475-6.68967-43.99362-4.64883"/>
<path transform="matrix(1.00009,0,0,-1.00005,65.13107,32.748987)" stroke-width=".59776" stroke-linecap="butt" stroke-miterlimit="10" stroke-linejoin="miter" fill="none" stroke="#409f9f" d="M-46.55661-1.20242-44.15175 1.20242"/>
<path transform="matrix(1.00009,0,0,-1.00005,65.13107,32.748987)" stroke-width=".59776" stroke-linecap="butt" stroke-miterlimit="10" stroke-linejoin="miter" fill="none" stroke="#409f9f" d="M-46.71475 4.64883-43.99362 6.68967"/>
<path transform="matrix(1.00009,0,0,-1.00005,65.13107,32.748987)" stroke-width=".59776" stroke-linecap="butt" stroke-miterlimit="10" stroke-linejoin="miter" fill="none" stroke="#409f9f" d="M-47.05489 11.33855H-43.65347"/>
<path transform="matrix(1.00009,0,0,-1.00005,65.13107,32.748987)" stroke-width=".59776" stroke-linecap="butt" stroke-miterlimit="10" stroke-linejoin="miter" fill="none" stroke="#409f9f" d="M-46.41647 18.33585-44.2919 15.67978"/>
<path transform="matrix(1.00009,0,0,-1.00005,65.13107,32.748987)" stroke-width=".59776" stroke-linecap="butt" stroke-miterlimit="10" stroke-linejoin="miter" fill="none" stroke="#409f9f" d="M-45.89207 24.29059-44.81628 21.06358"/>
<path transform="matrix(1.00009,0,0,-1.00005,65.13107,32.748987)" stroke-width=".59776" stroke-linecap="butt" stroke-miterlimit="10" stroke-linejoin="miter" fill="none" stroke="#409f9f" d="M-40.2228-21.06358-39.14702-24.29059"/>
<path transform="matrix(1.00009,0,0,-1.00005,65.13107,32.748987)" stroke-width=".59776" stroke-linecap="butt" stroke-miterlimit="10" stroke-linejoin="miter" fill="none" stroke="#409f9f" d="M-40.7472-15.67978-38.62262-18.33585"/>
<path transform="matrix(1.00009,0,0,-1.00005,65.13107,32.748987)" stroke-width=".59776" stroke-linecap="butt" stroke-miterlimit="10" stroke-linejoin="miter" fill="none" stroke="#409f9f" d="M-41.38562-11.33855H-37.9842"/>
<path transform="matrix(1.00009,0,0,-1.00005,65.13107,32.748987)" stroke-width=".59776" stroke-linecap="butt" stroke-miterlimit="10" stroke-linejoin="miter" fill="none" stroke="#409f9f" d="M-41.04547-6.68967-38.32434-4.64883"/>
<path transform="matrix(1.00009,0,0,-1.00005,65.13107,32.748987)" stroke-width=".59776" stroke-linecap="butt" stroke-miterlimit="10" stroke-linejoin="miter" fill="none" stroke="#409f9f" d="M-40.88734-1.20242-38.48248 1.20242"/>
<path transform="matrix(1.00009,0,0,-1.00005,65.13107,32.748987)" stroke-width=".59776" stroke-linecap="butt" stroke-miterlimit="10" stroke-linejoin="miter" fill="none" stroke="#409f9f" d="M-41.04547 4.64883-38.32434 6.68967"/>
<path transform="matrix(1.00009,0,0,-1.00005,65.13107,32.748987)" stroke-width=".59776" stroke-linecap="butt" stroke-miterlimit="10" stroke-linejoin="miter" fill="none" stroke="#409f9f" d="M-41.38562 11.33855H-37.9842"/>
<path transform="matrix(1.00009,0,0,-1.00005,65.13107,32.748987)" stroke-width=".59776" stroke-linecap="butt" stroke-miterlimit="10" stroke-linejoin="miter" fill="none" stroke="#409f9f" d="M-40.7472 18.33585-38.62262 15.67978"/>
<path transform="matrix(1.00009,0,0,-1.00005,65.13107,32.748987)" stroke-width=".59776" stroke-linecap="butt" stroke-miterlimit="10" stroke-linejoin="miter" fill="none" stroke="#409f9f" d="M-40.2228 24.29059-39.14702 21.06358"/>
<path transform="matrix(1.00009,0,0,-1.00005,65.13107,32.748987)" stroke-width=".59776" stroke-linecap="butt" stroke-miterlimit="10" stroke-linejoin="miter" fill="none" stroke="#409f9f" d="M-34.55353-21.06358-33.47774-24.29059"/>
<path transform="matrix(1.00009,0,0,-1.00005,65.13107,32.748987)" stroke-width=".59776" stroke-linecap="butt" stroke-miterlimit="10" stroke-linejoin="miter" fill="none" stroke="#409f9f" d="M-35.07793-15.67978-32.95335-18.33585"/>
<path transform="matrix(1.00009,0,0,-1.00005,65.13107,32.748987)" stroke-width=".59776" stroke-linecap="butt" stroke-miterlimit="10" stroke-linejoin="miter" fill="none" stroke="#409f9f" d="M-35.71634-11.33855H-32.31493"/>
<path transform="matrix(1.00009,0,0,-1.00005,65.13107,32.748987)" stroke-width=".59776" stroke-linecap="butt" stroke-miterlimit="10" stroke-linejoin="miter" fill="none" stroke="#409f9f" d="M-35.37619-6.68967-32.65508-4.64883"/>
<path transform="matrix(1.00009,0,0,-1.00005,65.13107,32.748987)" stroke-width=".59776" stroke-linecap="butt" stroke-miterlimit="10" stroke-linejoin="miter" fill="none" stroke="#409f9f" d="M-35.21806-1.20242-32.8132 1.20242"/>
<path transform="matrix(1.00009,0,0,-1.00005,65.13107,32.748987)" stroke-width=".59776" stroke-linecap="butt" stroke-miterlimit="10" stroke-linejoin="miter" fill="none" stroke="#409f9f" d="M-35.37619 4.64883-32.65508 6.68967"/>
<path transform="matrix(1.00009,0,0,-1.00005,65.13107,32.748987)" stroke-width=".59776" stroke-linecap="butt" stroke-miterlimit="10" stroke-linejoin="miter" fill="none" stroke="#409f9f" d="M-35.71634 11.33855H-32.31493"/>
<path transform="matrix(1.00009,0,0,-1.00005,65.13107,32.748987)" stroke-width=".59776" stroke-linecap="butt" stroke-miterlimit="10" stroke-linejoin="miter" fill="none" stroke="#409f9f" d="M-35.07793 18.33585-32.95335 15.67978"/>
<path transform="matrix(1.00009,0,0,-1.00005,65.13107,32.748987)" stroke-width=".59776" stroke-linecap="butt" stroke-miterlimit="10" stroke-linejoin="miter" fill="none" stroke="#409f9f" d="M-34.55353 24.29059-33.47774 21.06358"/>
<path transform="matrix(1.00009,0,0,-1.00005,65.13107,32.748987)" stroke-width=".59776" stroke-linecap="butt" stroke-miterlimit="10" stroke-linejoin="miter" fill="none" stroke="#409f9f" d="M-28.88425-21.06358-27.80847-24.29059"/>
<path transform="matrix(1.00009,0,0,-1.00005,65.13107,32.748987)" stroke-width=".59776" stroke-linecap="butt" stroke-miterlimit="10" stroke-linejoin="miter" fill="none" stroke="#409f9f" d="M-29.40865-15.67978-27.28407-18.33585"/>
<path transform="matrix(1.00009,0,0,-1.00005,65.13107,32.748987)" stroke-width=".59776" stroke-linecap="butt" stroke-miterlimit="10" stroke-linejoin="miter" fill="none" stroke="#409f9f" d="M-30.04707-11.33855H-26.64566"/>
<path transform="matrix(1.00009,0,0,-1.00005,65.13107,32.748987)" stroke-width=".59776" stroke-linecap="butt" stroke-miterlimit="10" stroke-linejoin="miter" fill="none" stroke="#409f9f" d="M-29.70692-6.68967-26.9858-4.64883"/>
<path transform="matrix(1.00009,0,0,-1.00005,65.13107,32.748987)" stroke-width=".59776" stroke-linecap="butt" stroke-miterlimit="10" stroke-linejoin="miter" fill="none" stroke="#409f9f" d="M-29.5488-1.20242-27.14394 1.20242"/>
<path transform="matrix(1.00009,0,0,-1.00005,65.13107,32.748987)" stroke-width=".59776" stroke-linecap="butt" stroke-miterlimit="10" stroke-linejoin="miter" fill="none" stroke="#409f9f" d="M-29.70692 4.64883-26.9858 6.68967"/>
<path transform="matrix(1.00009,0,0,-1.00005,65.13107,32.748987)" stroke-width=".59776" stroke-linecap="butt" stroke-miterlimit="10" stroke-linejoin="miter" fill="none" stroke="#409f9f" d="M-30.04707 11.33855H-26.64566"/>
<path transform="matrix(1.00009,0,0,-1.00005,65.13107,32.748987)" stroke-width=".59776" stroke-linecap="butt" stroke-miterlimit="10" stroke-linejoin="miter" fill="none" stroke="#409f9f" d="M-29.40865 18.33585-27.28407 15.67978"/>
<path transform="matrix(1.00009,0,0,-1.00005,65.13107,32.748987)" stroke-width=".59776" stroke-linecap="butt" stroke-miterlimit="10" stroke-linejoin="miter" fill="none" stroke="#409f9f" d="M-28.88425 24.29059-27.80847 21.06358"/>
<path transform="matrix(1.00009,0,0,-1.00005,65.13107,32.748987)" stroke-width=".59776" stroke-linecap="butt" stroke-miterlimit="10" stroke-linejoin="miter" fill="none" stroke="#409f9f" d="M-23.21498-21.06358-22.13919-24.29059"/>
<path transform="matrix(1.00009,0,0,-1.00005,65.13107,32.748987)" stroke-width=".59776" stroke-linecap="butt" stroke-miterlimit="10" stroke-linejoin="miter" fill="none" stroke="#409f9f" d="M-23.73936-15.67978-21.6148-18.33585"/>
<path transform="matrix(1.00009,0,0,-1.00005,65.13107,32.748987)" stroke-width=".59776" stroke-linecap="butt" stroke-miterlimit="10" stroke-linejoin="miter" fill="none" stroke="#409f9f" d="M-24.37779-11.33855H-20.97638"/>
<path transform="matrix(1.00009,0,0,-1.00005,65.13107,32.748987)" stroke-width=".59776" stroke-linecap="butt" stroke-miterlimit="10" stroke-linejoin="miter" fill="none" stroke="#409f9f" d="M-24.03764-6.68967-21.31653-4.64883"/>
<path transform="matrix(1.00009,0,0,-1.00005,65.13107,32.748987)" stroke-width=".59776" stroke-linecap="butt" stroke-miterlimit="10" stroke-linejoin="miter" fill="none" stroke="#409f9f" d="M-23.87952-1.20242-21.47466 1.20242"/>
<path transform="matrix(1.00009,0,0,-1.00005,65.13107,32.748987)" stroke-width=".59776" stroke-linecap="butt" stroke-miterlimit="10" stroke-linejoin="miter" fill="none" stroke="#409f9f" d="M-24.03764 4.64883-21.31653 6.68967"/>
<path transform="matrix(1.00009,0,0,-1.00005,65.13107,32.748987)" stroke-width=".59776" stroke-linecap="butt" stroke-miterlimit="10" stroke-linejoin="miter" fill="none" stroke="#409f9f" d="M-24.37779 11.33855H-20.97638"/>
<path transform="matrix(1.00009,0,0,-1.00005,65.13107,32.748987)" stroke-width=".59776" stroke-linecap="butt" stroke-miterlimit="10" stroke-linejoin="miter" fill="none" stroke="#409f9f" d="M-23.73936 18.33585-21.6148 15.67978"/>
<path transform="matrix(1.00009,0,0,-1.00005,65.13107,32.748987)" stroke-width=".59776" stroke-linecap="butt" stroke-miterlimit="10" stroke-linejoin="miter" fill="none" stroke="#409f9f" d="M-23.21498 24.29059-22.13919 21.06358"/>
<path transform="matrix(1.00009,0,0,-1.00005,65.13107,32.748987)" stroke-width=".59776" stroke-linecap="butt" stroke-miterlimit="10" stroke-linejoin="miter" fill="none" stroke="#409f9f" d="M-17.5457-21.06358-16.46992-24.29059"/>
<path transform="matrix(1.00009,0,0,-1.00005,65.13107,32.748987)" stroke-width=".59776" stroke-linecap="butt" stroke-miterlimit="10" stroke-linejoin="miter" fill="none" stroke="#409f9f" d="M-18.0701-15.67978-15.94553-18.33585"/>
<path transform="matrix(1.00009,0,0,-1.00005,65.13107,32.748987)" stroke-width=".59776" stroke-linecap="butt" stroke-miterlimit="10" stroke-linejoin="miter" fill="none" stroke="#409f9f" d="M-18.70853-11.33855H-15.30711"/>
<path transform="matrix(1.00009,0,0,-1.00005,65.13107,32.748987)" stroke-width=".59776" stroke-linecap="butt" stroke-miterlimit="10" stroke-linejoin="miter" fill="none" stroke="#409f9f" d="M-18.36838-6.68967-15.64725-4.64883"/>
<path transform="matrix(1.00009,0,0,-1.00005,65.13107,32.748987)" stroke-width=".59776" stroke-linecap="butt" stroke-miterlimit="10" stroke-linejoin="miter" fill="none" stroke="#409f9f" d="M-18.21025-1.20242-15.80539 1.20242"/>
<path transform="matrix(1.00009,0,0,-1.00005,65.13107,32.748987)" stroke-width=".59776" stroke-linecap="butt" stroke-miterlimit="10" stroke-linejoin="miter" fill="none" stroke="#409f9f" d="M-18.36838 4.64883-15.64725 6.68967"/>
<path transform="matrix(1.00009,0,0,-1.00005,65.13107,32.748987)" stroke-width=".59776" stroke-linecap="butt" stroke-miterlimit="10" stroke-linejoin="miter" fill="none" stroke="#409f9f" d="M-18.70853 11.33855H-15.30711"/>
<path transform="matrix(1.00009,0,0,-1.00005,65.13107,32.748987)" stroke-width=".59776" stroke-linecap="butt" stroke-miterlimit="10" stroke-linejoin="miter" fill="none" stroke="#409f9f" d="M-18.0701 18.33585-15.94553 15.67978"/>
<path transform="matrix(1.00009,0,0,-1.00005,65.13107,32.748987)" stroke-width=".59776" stroke-linecap="butt" stroke-miterlimit="10" stroke-linejoin="miter" fill="none" stroke="#409f9f" d="M-17.5457 24.29059-16.46992 21.06358"/>
<path transform="matrix(1.00009,0,0,-1.00005,65.13107,32.748987)" stroke-width=".59776" stroke-linecap="butt" stroke-miterlimit="10" stroke-linejoin="miter" fill="none" stroke="#409f9f" d="M-11.87643-21.06358-10.80064-24.29059"/>
<path transform="matrix(1.00009,0,0,-1.00005,65.13107,32.748987)" stroke-width=".59776" stroke-linecap="butt" stroke-miterlimit="10" stroke-linejoin="miter" fill="none" stroke="#409f9f" d="M-12.40082-15.67978-10.27626-18.33585"/>
<path transform="matrix(1.00009,0,0,-1.00005,65.13107,32.748987)" stroke-width=".59776" stroke-linecap="butt" stroke-miterlimit="10" stroke-linejoin="miter" fill="none" stroke="#409f9f" d="M-13.03925-11.33855H-9.63783"/>
<path transform="matrix(1.00009,0,0,-1.00005,65.13107,32.748987)" stroke-width=".59776" stroke-linecap="butt" stroke-miterlimit="10" stroke-linejoin="miter" fill="none" stroke="#409f9f" d="M-12.6991-6.68967-9.97798-4.64883"/>
<path transform="matrix(1.00009,0,0,-1.00005,65.13107,32.748987)" stroke-width=".59776" stroke-linecap="butt" stroke-miterlimit="10" stroke-linejoin="miter" fill="none" stroke="#409f9f" d="M-12.54097-1.20242-10.13611 1.20242"/>
<path transform="matrix(1.00009,0,0,-1.00005,65.13107,32.748987)" stroke-width=".59776" stroke-linecap="butt" stroke-miterlimit="10" stroke-linejoin="miter" fill="none" stroke="#409f9f" d="M-12.6991 4.64883-9.97798 6.68967"/>
<path transform="matrix(1.00009,0,0,-1.00005,65.13107,32.748987)" stroke-width=".59776" stroke-linecap="butt" stroke-miterlimit="10" stroke-linejoin="miter" fill="none" stroke="#409f9f" d="M-13.03925 11.33855H-9.63783"/>
<path transform="matrix(1.00009,0,0,-1.00005,65.13107,32.748987)" stroke-width=".59776" stroke-linecap="butt" stroke-miterlimit="10" stroke-linejoin="miter" fill="none" stroke="#409f9f" d="M-12.40082 18.33585-10.27626 15.67978"/>
<path transform="matrix(1.00009,0,0,-1.00005,65.13107,32.748987)" stroke-width=".59776" stroke-linecap="butt" stroke-miterlimit="10" stroke-linejoin="miter" fill="none" stroke="#409f9f" d="M-11.87643 24.29059-10.80064 21.06358"/>
<path transform="matrix(1.00009,0,0,-1.00005,65.13107,32.748987)" stroke-width=".59776" stroke-linecap="butt" stroke-miterlimit="10" stroke-linejoin="miter" fill="none" stroke="#409f9f" d="M-6.20714-21.06358-5.13136-24.29059"/>
<path transform="matrix(1.00009,0,0,-1.00005,65.13107,32.748987)" stroke-width=".59776" stroke-linecap="butt" stroke-miterlimit="10" stroke-linejoin="miter" fill="none" stroke="#409f9f" d="M-6.73154-15.67978-4.60696-18.33585"/>
<path transform="matrix(1.00009,0,0,-1.00005,65.13107,32.748987)" stroke-width=".59776" stroke-linecap="butt" stroke-miterlimit="10" stroke-linejoin="miter" fill="none" stroke="#409f9f" d="M-7.36996-11.33855H-3.96855"/>
<path transform="matrix(1.00009,0,0,-1.00005,65.13107,32.748987)" stroke-width=".59776" stroke-linecap="butt" stroke-miterlimit="10" stroke-linejoin="miter" fill="none" stroke="#409f9f" d="M-7.02982-6.68967-4.30869-4.64883"/>
<path transform="matrix(1.00009,0,0,-1.00005,65.13107,32.748987)" stroke-width=".59776" stroke-linecap="butt" stroke-miterlimit="10" stroke-linejoin="miter" fill="none" stroke="#409f9f" d="M-6.87169-1.20242-4.46683 1.20242"/>
<path transform="matrix(1.00009,0,0,-1.00005,65.13107,32.748987)" stroke-width=".59776" stroke-linecap="butt" stroke-miterlimit="10" stroke-linejoin="miter" fill="none" stroke="#409f9f" d="M-7.02982 4.64883-4.30869 6.68967"/>
<path transform="matrix(1.00009,0,0,-1.00005,65.13107,32.748987)" stroke-width=".59776" stroke-linecap="butt" stroke-miterlimit="10" stroke-linejoin="miter" fill="none" stroke="#409f9f" d="M-7.36996 11.33855H-3.96855"/>
<path transform="matrix(1.00009,0,0,-1.00005,65.13107,32.748987)" stroke-width=".59776" stroke-linecap="butt" stroke-miterlimit="10" stroke-linejoin="miter" fill="none" stroke="#409f9f" d="M-6.73154 18.33585-4.60696 15.67978"/>
<path transform="matrix(1.00009,0,0,-1.00005,65.13107,32.748987)" stroke-width=".59776" stroke-linecap="butt" stroke-miterlimit="10" stroke-linejoin="miter" fill="none" stroke="#409f9f" d="M-6.20714 24.29059-5.13136 21.06358"/>
<path transform="matrix(1.00009,0,0,-1.00005,65.13107,32.748987)" stroke-width=".59776" stroke-linecap="butt" stroke-miterlimit="10" stroke-linejoin="miter" fill="none" stroke="#409f9f" d="M-.53789-21.06358 .53789-24.29059"/>
<path transform="matrix(1.00009,0,0,-1.00005,65.13107,32.748987)" stroke-width=".59776" stroke-linecap="butt" stroke-miterlimit="10" stroke-linejoin="miter" fill="none" stroke="#409f9f" d="M-1.06227-15.67978 1.06227-18.33585"/>
<path transform="matrix(1.00009,0,0,-1.00005,65.13107,32.748987)" stroke-width=".59776" stroke-linecap="butt" stroke-miterlimit="10" stroke-linejoin="miter" fill="none" stroke="#409f9f" d="M-1.7007-11.33855H1.7007"/>
<path transform="matrix(1.00009,0,0,-1.00005,65.13107,32.748987)" stroke-width=".59776" stroke-linecap="butt" stroke-miterlimit="10" stroke-linejoin="miter" fill="none" stroke="#409f9f" d="M-1.36055-6.68967 1.36055-4.64883"/>
<path transform="matrix(1.00009,0,0,-1.00005,65.13107,32.748987)" stroke-width=".59776" stroke-linecap="butt" stroke-miterlimit="10" stroke-linejoin="miter" fill="none" stroke="#409f9f" d="M-1.20242-1.20242 1.20242 1.20242"/>
<path transform="matrix(1.00009,0,0,-1.00005,65.13107,32.748987)" stroke-width=".59776" stroke-linecap="butt" stroke-miterlimit="10" stroke-linejoin="miter" fill="none" stroke="#409f9f" d="M-1.36055 4.64883 1.36055 6.68967"/>
<path transform="matrix(1.00009,0,0,-1.00005,65.13107,32.748987)" stroke-width=".59776" stroke-linecap="butt" stroke-miterlimit="10" stroke-linejoin="miter" fill="none" stroke="#409f9f" d="M-1.7007 11.33855H1.7007"/>
<path transform="matrix(1.00009,0,0,-1.00005,65.13107,32.748987)" stroke-width=".59776" stroke-linecap="butt" stroke-miterlimit="10" stroke-linejoin="miter" fill="none" stroke="#409f9f" d="M-1.06227 18.33585 1.06227 15.67978"/>
<path transform="matrix(1.00009,0,0,-1.00005,65.13107,32.748987)" stroke-width=".59776" stroke-linecap="butt" stroke-miterlimit="10" stroke-linejoin="miter" fill="none" stroke="#409f9f" d="M-.53789 24.29059 .53789 21.06358"/>
<path transform="matrix(1.00009,0,0,-1.00005,65.13107,32.748987)" stroke-width=".59776" stroke-linecap="butt" stroke-miterlimit="10" stroke-linejoin="miter" fill="none" stroke="#409f9f" d="M5.13136-21.06358 6.20714-24.29059"/>
<path transform="matrix(1.00009,0,0,-1.00005,65.13107,32.748987)" stroke-width=".59776" stroke-linecap="butt" stroke-miterlimit="10" stroke-linejoin="miter" fill="none" stroke="#409f9f" d="M4.60696-15.67978 6.73154-18.33585"/>
<path transform="matrix(1.00009,0,0,-1.00005,65.13107,32.748987)" stroke-width=".59776" stroke-linecap="butt" stroke-miterlimit="10" stroke-linejoin="miter" fill="none" stroke="#409f9f" d="M3.96855-11.33855H7.36996"/>
<path transform="matrix(1.00009,0,0,-1.00005,65.13107,32.748987)" stroke-width=".59776" stroke-linecap="butt" stroke-miterlimit="10" stroke-linejoin="miter" fill="none" stroke="#409f9f" d="M4.30869-6.68967 7.02982-4.64883"/>
<path transform="matrix(1.00009,0,0,-1.00005,65.13107,32.748987)" stroke-width=".59776" stroke-linecap="butt" stroke-miterlimit="10" stroke-linejoin="miter" fill="none" stroke="#409f9f" d="M4.46683-1.20242 6.87169 1.20242"/>
<path transform="matrix(1.00009,0,0,-1.00005,65.13107,32.748987)" stroke-width=".59776" stroke-linecap="butt" stroke-miterlimit="10" stroke-linejoin="miter" fill="none" stroke="#409f9f" d="M4.30869 4.64883 7.02982 6.68967"/>
<path transform="matrix(1.00009,0,0,-1.00005,65.13107,32.748987)" stroke-width=".59776" stroke-linecap="butt" stroke-miterlimit="10" stroke-linejoin="miter" fill="none" stroke="#409f9f" d="M3.96855 11.33855H7.36996"/>
<path transform="matrix(1.00009,0,0,-1.00005,65.13107,32.748987)" stroke-width=".59776" stroke-linecap="butt" stroke-miterlimit="10" stroke-linejoin="miter" fill="none" stroke="#409f9f" d="M4.60696 18.33585 6.73154 15.67978"/>
<path transform="matrix(1.00009,0,0,-1.00005,65.13107,32.748987)" stroke-width=".59776" stroke-linecap="butt" stroke-miterlimit="10" stroke-linejoin="miter" fill="none" stroke="#409f9f" d="M5.13136 24.29059 6.20714 21.06358"/>
<path transform="matrix(1.00009,0,0,-1.00005,65.13107,32.748987)" stroke-width=".59776" stroke-linecap="butt" stroke-miterlimit="10" stroke-linejoin="miter" fill="none" stroke="#409f9f" d="M10.80064-21.06358 11.87643-24.29059"/>
<path transform="matrix(1.00009,0,0,-1.00005,65.13107,32.748987)" stroke-width=".59776" stroke-linecap="butt" stroke-miterlimit="10" stroke-linejoin="miter" fill="none" stroke="#409f9f" d="M10.27626-15.67978 12.40082-18.33585"/>
<path transform="matrix(1.00009,0,0,-1.00005,65.13107,32.748987)" stroke-width=".59776" stroke-linecap="butt" stroke-miterlimit="10" stroke-linejoin="miter" fill="none" stroke="#409f9f" d="M9.63783-11.33855H13.03925"/>
<path transform="matrix(1.00009,0,0,-1.00005,65.13107,32.748987)" stroke-width=".59776" stroke-linecap="butt" stroke-miterlimit="10" stroke-linejoin="miter" fill="none" stroke="#409f9f" d="M9.97798-6.68967 12.6991-4.64883"/>
<path transform="matrix(1.00009,0,0,-1.00005,65.13107,32.748987)" stroke-width=".59776" stroke-linecap="butt" stroke-miterlimit="10" stroke-linejoin="miter" fill="none" stroke="#409f9f" d="M10.13611-1.20242 12.54097 1.20242"/>
<path transform="matrix(1.00009,0,0,-1.00005,65.13107,32.748987)" stroke-width=".59776" stroke-linecap="butt" stroke-miterlimit="10" stroke-linejoin="miter" fill="none" stroke="#409f9f" d="M9.97798 4.64883 12.6991 6.68967"/>
<path transform="matrix(1.00009,0,0,-1.00005,65.13107,32.748987)" stroke-width=".59776" stroke-linecap="butt" stroke-miterlimit="10" stroke-linejoin="miter" fill="none" stroke="#409f9f" d="M9.63783 11.33855H13.03925"/>
<path transform="matrix(1.00009,0,0,-1.00005,65.13107,32.748987)" stroke-width=".59776" stroke-linecap="butt" stroke-miterlimit="10" stroke-linejoin="miter" fill="none" stroke="#409f9f" d="M10.27626 18.33585 12.40082 15.67978"/>
<path transform="matrix(1.00009,0,0,-1.00005,65.13107,32.748987)" stroke-width=".59776" stroke-linecap="butt" stroke-miterlimit="10" stroke-linejoin="miter" fill="none" stroke="#409f9f" d="M10.80064 24.29059 11.87643 21.06358"/>
<path transform="matrix(1.00009,0,0,-1.00005,65.13107,32.748987)" stroke-width=".59776" stroke-linecap="butt" stroke-miterlimit="10" stroke-linejoin="miter" fill="none" stroke="#409f9f" d="M16.46992-21.06358 17.5457-24.29059"/>
<path transform="matrix(1.00009,0,0,-1.00005,65.13107,32.748987)" stroke-width=".59776" stroke-linecap="butt" stroke-miterlimit="10" stroke-linejoin="miter" fill="none" stroke="#409f9f" d="M15.94553-15.67978 18.0701-18.33585"/>
<path transform="matrix(1.00009,0,0,-1.00005,65.13107,32.748987)" stroke-width=".59776" stroke-linecap="butt" stroke-miterlimit="10" stroke-linejoin="miter" fill="none" stroke="#409f9f" d="M15.30711-11.33855H18.70853"/>
<path transform="matrix(1.00009,0,0,-1.00005,65.13107,32.748987)" stroke-width=".59776" stroke-linecap="butt" stroke-miterlimit="10" stroke-linejoin="miter" fill="none" stroke="#409f9f" d="M15.64725-6.68967 18.36838-4.64883"/>
<path transform="matrix(1.00009,0,0,-1.00005,65.13107,32.748987)" stroke-width=".59776" stroke-linecap="butt" stroke-miterlimit="10" stroke-linejoin="miter" fill="none" stroke="#409f9f" d="M15.80539-1.20242 18.21025 1.20242"/>
<path transform="matrix(1.00009,0,0,-1.00005,65.13107,32.748987)" stroke-width=".59776" stroke-linecap="butt" stroke-miterlimit="10" stroke-linejoin="miter" fill="none" stroke="#409f9f" d="M15.64725 4.64883 18.36838 6.68967"/>
<path transform="matrix(1.00009,0,0,-1.00005,65.13107,32.748987)" stroke-width=".59776" stroke-linecap="butt" stroke-miterlimit="10" stroke-linejoin="miter" fill="none" stroke="#409f9f" d="M15.30711 11.33855H18.70853"/>
<path transform="matrix(1.00009,0,0,-1.00005,65.13107,32.748987)" stroke-width=".59776" stroke-linecap="butt" stroke-miterlimit="10" stroke-linejoin="miter" fill="none" stroke="#409f9f" d="M15.94553 18.33585 18.0701 15.67978"/>
<path transform="matrix(1.00009,0,0,-1.00005,65.13107,32.748987)" stroke-width=".59776" stroke-linecap="butt" stroke-miterlimit="10" stroke-linejoin="miter" fill="none" stroke="#409f9f" d="M16.46992 24.29059 17.5457 21.06358"/>
<path transform="matrix(1.00009,0,0,-1.00005,65.13107,32.748987)" stroke-width=".59776" stroke-linecap="butt" stroke-miterlimit="10" stroke-linejoin="miter" fill="none" stroke="#409f9f" d="M22.13919-21.06358 23.21498-24.29059"/>
<path transform="matrix(1.00009,0,0,-1.00005,65.13107,32.748987)" stroke-width=".59776" stroke-linecap="butt" stroke-miterlimit="10" stroke-linejoin="miter" fill="none" stroke="#409f9f" d="M21.6148-15.67978 23.73936-18.33585"/>
<path transform="matrix(1.00009,0,0,-1.00005,65.13107,32.748987)" stroke-width=".59776" stroke-linecap="butt" stroke-miterlimit="10" stroke-linejoin="miter" fill="none" stroke="#409f9f" d="M20.97638-11.33855H24.37779"/>
<path transform="matrix(1.00009,0,0,-1.00005,65.13107,32.748987)" stroke-width=".59776" stroke-linecap="butt" stroke-miterlimit="10" stroke-linejoin="miter" fill="none" stroke="#409f9f" d="M21.31653-6.68967 24.03764-4.64883"/>
<path transform="matrix(1.00009,0,0,-1.00005,65.13107,32.748987)" stroke-width=".59776" stroke-linecap="butt" stroke-miterlimit="10" stroke-linejoin="miter" fill="none" stroke="#409f9f" d="M21.47466-1.20242 23.87952 1.20242"/>
<path transform="matrix(1.00009,0,0,-1.00005,65.13107,32.748987)" stroke-width=".59776" stroke-linecap="butt" stroke-miterlimit="10" stroke-linejoin="miter" fill="none" stroke="#409f9f" d="M21.31653 4.64883 24.03764 6.68967"/>
<path transform="matrix(1.00009,0,0,-1.00005,65.13107,32.748987)" stroke-width=".59776" stroke-linecap="butt" stroke-miterlimit="10" stroke-linejoin="miter" fill="none" stroke="#409f9f" d="M20.97638 11.33855H24.37779"/>
<path transform="matrix(1.00009,0,0,-1.00005,65.13107,32.748987)" stroke-width=".59776" stroke-linecap="butt" stroke-miterlimit="10" stroke-linejoin="miter" fill="none" stroke="#409f9f" d="M21.6148 18.33585 23.73936 15.67978"/>
<path transform="matrix(1.00009,0,0,-1.00005,65.13107,32.748987)" stroke-width=".59776" stroke-linecap="butt" stroke-miterlimit="10" stroke-linejoin="miter" fill="none" stroke="#409f9f" d="M22.13919 24.29059 23.21498 21.06358"/>
<path transform="matrix(1.00009,0,0,-1.00005,65.13107,32.748987)" stroke-width=".59776" stroke-linecap="butt" stroke-miterlimit="10" stroke-linejoin="miter" fill="none" stroke="#409f9f" d="M27.80847-21.06358 28.88425-24.29059"/>
<path transform="matrix(1.00009,0,0,-1.00005,65.13107,32.748987)" stroke-width=".59776" stroke-linecap="butt" stroke-miterlimit="10" stroke-linejoin="miter" fill="none" stroke="#409f9f" d="M27.28407-15.67978 29.40865-18.33585"/>
<path transform="matrix(1.00009,0,0,-1.00005,65.13107,32.748987)" stroke-width=".59776" stroke-linecap="butt" stroke-miterlimit="10" stroke-linejoin="miter" fill="none" stroke="#409f9f" d="M26.64566-11.33855H30.04707"/>
<path transform="matrix(1.00009,0,0,-1.00005,65.13107,32.748987)" stroke-width=".59776" stroke-linecap="butt" stroke-miterlimit="10" stroke-linejoin="miter" fill="none" stroke="#409f9f" d="M26.9858-6.68967 29.70692-4.64883"/>
<path transform="matrix(1.00009,0,0,-1.00005,65.13107,32.748987)" stroke-width=".59776" stroke-linecap="butt" stroke-miterlimit="10" stroke-linejoin="miter" fill="none" stroke="#409f9f" d="M27.14394-1.20242 29.5488 1.20242"/>
<path transform="matrix(1.00009,0,0,-1.00005,65.13107,32.748987)" stroke-width=".59776" stroke-linecap="butt" stroke-miterlimit="10" stroke-linejoin="miter" fill="none" stroke="#409f9f" d="M26.9858 4.64883 29.70692 6.68967"/>
<path transform="matrix(1.00009,0,0,-1.00005,65.13107,32.748987)" stroke-width=".59776" stroke-linecap="butt" stroke-miterlimit="10" stroke-linejoin="miter" fill="none" stroke="#409f9f" d="M26.64566 11.33855H30.04707"/>
<path transform="matrix(1.00009,0,0,-1.00005,65.13107,32.748987)" stroke-width=".59776" stroke-linecap="butt" stroke-miterlimit="10" stroke-linejoin="miter" fill="none" stroke="#409f9f" d="M27.28407 18.33585 29.40865 15.67978"/>
<path transform="matrix(1.00009,0,0,-1.00005,65.13107,32.748987)" stroke-width=".59776" stroke-linecap="butt" stroke-miterlimit="10" stroke-linejoin="miter" fill="none" stroke="#409f9f" d="M27.80847 24.29059 28.88425 21.06358"/>
<path transform="matrix(1.00009,0,0,-1.00005,65.13107,32.748987)" stroke-width=".59776" stroke-linecap="butt" stroke-miterlimit="10" stroke-linejoin="miter" fill="none" stroke="#409f9f" d="M33.47774-21.06358 34.55353-24.29059"/>
<path transform="matrix(1.00009,0,0,-1.00005,65.13107,32.748987)" stroke-width=".59776" stroke-linecap="butt" stroke-miterlimit="10" stroke-linejoin="miter" fill="none" stroke="#409f9f" d="M32.95335-15.67978 35.07793-18.33585"/>
<path transform="matrix(1.00009,0,0,-1.00005,65.13107,32.748987)" stroke-width=".59776" stroke-linecap="butt" stroke-miterlimit="10" stroke-linejoin="miter" fill="none" stroke="#409f9f" d="M32.31493-11.33855H35.71634"/>
<path transform="matrix(1.00009,0,0,-1.00005,65.13107,32.748987)" stroke-width=".59776" stroke-linecap="butt" stroke-miterlimit="10" stroke-linejoin="miter" fill="none" stroke="#409f9f" d="M32.65508-6.68967 35.37619-4.64883"/>
<path transform="matrix(1.00009,0,0,-1.00005,65.13107,32.748987)" stroke-width=".59776" stroke-linecap="butt" stroke-miterlimit="10" stroke-linejoin="miter" fill="none" stroke="#409f9f" d="M32.8132-1.20242 35.21806 1.20242"/>
<path transform="matrix(1.00009,0,0,-1.00005,65.13107,32.748987)" stroke-width=".59776" stroke-linecap="butt" stroke-miterlimit="10" stroke-linejoin="miter" fill="none" stroke="#409f9f" d="M32.65508 4.64883 35.37619 6.68967"/>
<path transform="matrix(1.00009,0,0,-1.00005,65.13107,32.748987)" stroke-width=".59776" stroke-linecap="butt" stroke-miterlimit="10" stroke-linejoin="miter" fill="none" stroke="#409f9f" d="M32.31493 11.33855H35.71634"/>
<path transform="matrix(1.00009,0,0,-1.00005,65.13107,32.748987)" stroke-width=".59776" stroke-linecap="butt" stroke-miterlimit="10" stroke-linejoin="miter" fill="none" stroke="#409f9f" d="M32.95335 18.33585 35.07793 15.67978"/>
<path transform="matrix(1.00009,0,0,-1.00005,65.13107,32.748987)" stroke-width=".59776" stroke-linecap="butt" stroke-miterlimit="10" stroke-linejoin="miter" fill="none" stroke="#409f9f" d="M33.47774 24.29059 34.55353 21.06358"/>
<path transform="matrix(1.00009,0,0,-1.00005,65.13107,32.748987)" stroke-width=".59776" stroke-linecap="butt" stroke-miterlimit="10" stroke-linejoin="miter" fill="none" stroke="#409f9f" d="M39.14702-21.06358 40.2228-24.29059"/>
<path transform="matrix(1.00009,0,0,-1.00005,65.13107,32.748987)" stroke-width=".59776" stroke-linecap="butt" stroke-miterlimit="10" stroke-linejoin="miter" fill="none" stroke="#409f9f" d="M38.62262-15.67978 40.7472-18.33585"/>
<path transform="matrix(1.00009,0,0,-1.00005,65.13107,32.748987)" stroke-width=".59776" stroke-linecap="butt" stroke-miterlimit="10" stroke-linejoin="miter" fill="none" stroke="#409f9f" d="M37.9842-11.33855H41.38562"/>
<path transform="matrix(1.00009,0,0,-1.00005,65.13107,32.748987)" stroke-width=".59776" stroke-linecap="butt" stroke-miterlimit="10" stroke-linejoin="miter" fill="none" stroke="#409f9f" d="M38.32434-6.68967 41.04547-4.64883"/>
<path transform="matrix(1.00009,0,0,-1.00005,65.13107,32.748987)" stroke-width=".59776" stroke-linecap="butt" stroke-miterlimit="10" stroke-linejoin="miter" fill="none" stroke="#409f9f" d="M38.48248-1.20242 40.88734 1.20242"/>
<path transform="matrix(1.00009,0,0,-1.00005,65.13107,32.748987)" stroke-width=".59776" stroke-linecap="butt" stroke-miterlimit="10" stroke-linejoin="miter" fill="none" stroke="#409f9f" d="M38.32434 4.64883 41.04547 6.68967"/>
<path transform="matrix(1.00009,0,0,-1.00005,65.13107,32.748987)" stroke-width=".59776" stroke-linecap="butt" stroke-miterlimit="10" stroke-linejoin="miter" fill="none" stroke="#409f9f" d="M37.9842 11.33855H41.38562"/>
<path transform="matrix(1.00009,0,0,-1.00005,65.13107,32.748987)" stroke-width=".59776" stroke-linecap="butt" stroke-miterlimit="10" stroke-linejoin="miter" fill="none" stroke="#409f9f" d="M38.62262 18.33585 40.7472 15.67978"/>
<path transform="matrix(1.00009,0,0,-1.00005,65.13107,32.748987)" stroke-width=".59776" stroke-linecap="butt" stroke-miterlimit="10" stroke-linejoin="miter" fill="none" stroke="#409f9f" d="M39.14702 24.29059 40.2228 21.06358"/>
<path transform="matrix(1.00009,0,0,-1.00005,65.13107,32.748987)" stroke-width=".59776" stroke-linecap="butt" stroke-miterlimit="10" stroke-linejoin="miter" fill="none" stroke="#409f9f" d="M44.81628-21.06358 45.89207-24.29059"/>
<path transform="matrix(1.00009,0,0,-1.00005,65.13107,32.748987)" stroke-width=".59776" stroke-linecap="butt" stroke-miterlimit="10" stroke-linejoin="miter" fill="none" stroke="#409f9f" d="M44.2919-15.67978 46.41647-18.33585"/>
<path transform="matrix(1.00009,0,0,-1.00005,65.13107,32.748987)" stroke-width=".59776" stroke-linecap="butt" stroke-miterlimit="10" stroke-linejoin="miter" fill="none" stroke="#409f9f" d="M43.65347-11.33855H47.05489"/>
<path transform="matrix(1.00009,0,0,-1.00005,65.13107,32.748987)" stroke-width=".59776" stroke-linecap="butt" stroke-miterlimit="10" stroke-linejoin="miter" fill="none" stroke="#409f9f" d="M43.99362-6.68967 46.71475-4.64883"/>
<path transform="matrix(1.00009,0,0,-1.00005,65.13107,32.748987)" stroke-width=".59776" stroke-linecap="butt" stroke-miterlimit="10" stroke-linejoin="miter" fill="none" stroke="#409f9f" d="M44.15175-1.20242 46.55661 1.20242"/>
<path transform="matrix(1.00009,0,0,-1.00005,65.13107,32.748987)" stroke-width=".59776" stroke-linecap="butt" stroke-miterlimit="10" stroke-linejoin="miter" fill="none" stroke="#409f9f" d="M43.99362 4.64883 46.71475 6.68967"/>
<path transform="matrix(1.00009,0,0,-1.00005,65.13107,32.748987)" stroke-width=".59776" stroke-linecap="butt" stroke-miterlimit="10" stroke-linejoin="miter" fill="none" stroke="#409f9f" d="M43.65347 11.33855H47.05489"/>
<path transform="matrix(1.00009,0,0,-1.00005,65.13107,32.748987)" stroke-width=".59776" stroke-linecap="butt" stroke-miterlimit="10" stroke-linejoin="miter" fill="none" stroke="#409f9f" d="M44.2919 18.33585 46.41647 15.67978"/>
<path transform="matrix(1.00009,0,0,-1.00005,65.13107,32.748987)" stroke-width=".59776" stroke-linecap="butt" stroke-miterlimit="10" stroke-linejoin="miter" fill="none" stroke="#409f9f" d="M44.81628 24.29059 45.89207 21.06358"/>
<path transform="matrix(1.00009,0,0,-1.00005,65.13107,32.748987)" stroke-width=".59776" stroke-linecap="butt" stroke-miterlimit="10" stroke-linejoin="miter" fill="none" stroke="#409f9f" d="M50.48557-21.06358 51.56136-24.29059"/>
<path transform="matrix(1.00009,0,0,-1.00005,65.13107,32.748987)" stroke-width=".59776" stroke-linecap="butt" stroke-miterlimit="10" stroke-linejoin="miter" fill="none" stroke="#409f9f" d="M49.96117-15.67978 52.08574-18.33585"/>
<path transform="matrix(1.00009,0,0,-1.00005,65.13107,32.748987)" stroke-width=".59776" stroke-linecap="butt" stroke-miterlimit="10" stroke-linejoin="miter" fill="none" stroke="#409f9f" d="M49.32275-11.33855H52.72417"/>
<path transform="matrix(1.00009,0,0,-1.00005,65.13107,32.748987)" stroke-width=".59776" stroke-linecap="butt" stroke-miterlimit="10" stroke-linejoin="miter" fill="none" stroke="#409f9f" d="M49.66289-6.68967 52.38402-4.64883"/>
<path transform="matrix(1.00009,0,0,-1.00005,65.13107,32.748987)" stroke-width=".59776" stroke-linecap="butt" stroke-miterlimit="10" stroke-linejoin="miter" fill="none" stroke="#409f9f" d="M49.82103-1.20242 52.22589 1.20242"/>
<path transform="matrix(1.00009,0,0,-1.00005,65.13107,32.748987)" stroke-width=".59776" stroke-linecap="butt" stroke-miterlimit="10" stroke-linejoin="miter" fill="none" stroke="#409f9f" d="M49.66289 4.64883 52.38402 6.68967"/>
<path transform="matrix(1.00009,0,0,-1.00005,65.13107,32.748987)" stroke-width=".59776" stroke-linecap="butt" stroke-miterlimit="10" stroke-linejoin="miter" fill="none" stroke="#409f9f" d="M49.32275 11.33855H52.72417"/>
<path transform="matrix(1.00009,0,0,-1.00005,65.13107,32.748987)" stroke-width=".59776" stroke-linecap="butt" stroke-miterlimit="10" stroke-linejoin="miter" fill="none" stroke="#409f9f" d="M49.96117 18.33585 52.08574 15.67978"/>
<path transform="matrix(1.00009,0,0,-1.00005,65.13107,32.748987)" stroke-width=".59776" stroke-linecap="butt" stroke-miterlimit="10" stroke-linejoin="miter" fill="none" stroke="#409f9f" d="M50.48557 24.29059 51.56136 21.06358"/>
</svg>
