<svg xmlns="http://www.w3.org/2000/svg" xmlns:xlink="http://www.w3.org/1999/xlink" version="1.1" width="87" height="72" viewBox="0 0 87 72">
<defs>
<path id="font_1_1" d="M.6589966 .23046875C.6759949 .23046875 .69400027 .23046875 .69400027 .25045777 .69400027 .27046205 .6759949 .27046205 .6589966 .27046205H.117996219C.100997928 .27046205 .08299255 .27046205 .08299255 .25045777 .08299255 .23046875 .100997928 .23046875 .117996219 .23046875H.6589966Z"/>
<path id="font_2_4" d="M.36099244 .6508026C.36099244 .6697998 .36099244 .6748047 .34700013 .6748047 .33898927 .6748047 .33599855 .6748047 .32798768 .662796L.026992798 .19598389V.16699219H.2899933V.07598877C.2899933 .038986207 .28799439 .0289917 .21499634 .0289917H.19499207V0C.21798706 .0019989014 .29699708 .0019989014 .32499696 .0019989014 .35299684 .0019989014 .43299867 .0019989014 .45599366 0V.0289917H.43598939C.3639984 .0289917 .36099244 .038986207 .36099244 .07598877V.16699219H.46199037V.19598389H.36099244V.6508026M.29499818 .5728302V.19598389H.051986696L.29499818 .5728302Z"/>
<path id="font_2_3" d="M.43998719 .16790772H.41799928C.4149933 .15092469 .40699769 .09597778 .39698792 .07998657 .3899994 .070999149 .33299256 .070999149 .30299378 .070999149H.117996219C.14498902 .09397888 .20599365 .15792847 .23199463 .18190003 .38398744 .3217926 .43998719 .37374879 .43998719 .47270204 .43998719 .5878906 .34899903 .66503909 .23298645 .66503909 .116989139 .66503909 .04899597 .5658264 .04899597 .4797058 .04899597 .42871095 .09298706 .42871095 .09599304 .42871095 .116989139 .42871095 .14299011 .44371034 .14299011 .475708 .14299011 .5037079 .12399292 .5227051 .09599304 .5227051 .08699036 .5227051 .084991458 .5227051 .08198547 .521698 .100997928 .5899048 .15499878 .6360321 .21998596 .6360321 .30499269 .6360321 .35699464 .56481936 .35699464 .47270204 .35699464 .3877411 .30799867 .313797 .25099183 .24984741L.04899597 .023986817V0H.4139862L.43998719 .16790772Z"/>
<path id="font_2_5" d="M.12799073 .5727997C.17098999 .5588074 .20599365 .5578003 .21699524 .5578003 .32998658 .5578003 .4019928 .6409912 .4019928 .6550598 .4019928 .6590576 .3999939 .6640625 .3939972 .6640625 .3919983 .6640625 .3899994 .6640625 .3809967 .66004946 .32499696 .6358795 .2769928 .6328125 .25099183 .6328125 .18499756 .6328125 .13798523 .6530609 .11898804 .6610565 .11199951 .6640625 .10998535 .6640625 .10899353 .6640625 .100997928 .6640625 .100997928 .65805056 .100997928 .64201357V.34495545C.100997928 .32695008 .100997928 .32095338 .11299133 .32095338 .117996219 .32095338 .11898804 .32196046 .1289978 .33395387 .15699768 .37493897 .20399475 .39894105 .2539978 .39894105 .30699159 .39894105 .33299256 .34994508 .34098817 .33294679 .35798646 .29396058 .35899354 .2449646 .35899354 .20697022 .35899354 .16897583 .35899354 .11193848 .33099366 .0667572 .30899049 .03060913 .269989 .005508423 .22599793 .005508423 .1599884 .005508423 .09498596 .050689699 .07699585 .12397766 .08198547 .12197876 .08799744 .12097168 .09298706 .12097168 .10998535 .12097168 .13699341 .13098145 .13699341 .16497803 .13699341 .1929779 .117996219 .20898438 .09298706 .20898438 .07499695 .20898438 .04899597 .19998169 .04899597 .16098023 .04899597 .075790408 .116989139-.021484375 .22799683-.021484375 .34098817-.021484375 .43998719 .073791507 .43998719 .20097351 .43998719 .3199463 .3600006 .4189453 .25498963 .4189453 .19799805 .4189453 .1539917 .39393617 .12799073 .36595155V.5727997Z"/>
<path id="font_2_2" d="M.28799439 .64105227C.28799439 .664032 .28799439 .66503909 .2679901 .66503909 .24398804 .6380615 .19400025 .6012573 .09098816 .6012573V.5722656C.11399841 .5722656 .1639862 .5722656 .21899414 .59825137V.07701111C.21899414 .041000368 .21598816 .0289917 .12799073 .0289917H.09700012V0C.12399292 .0019989014 .22099304 .0019989014 .2539978 .0019989014 .2869873 .0019989014 .3829956 .0019989014 .4099884 0V.0289917H.3789978C.29100038 .0289917 .28799439 .041000368 .28799439 .07701111V.64105227Z"/>
<path id="font_2_1" d="M.44799806 .31976319C.44799806 .40283204 .44299317 .48390199 .40699769 .55996707 .3659973 .64302065 .2939911 .66503909 .24499512 .66503909 .18699646 .66503909 .115997318 .63601687 .07899475 .552948 .050994874 .48989869 .040985109 .42785646 .040985109 .31976319 .040985109 .22268677 .04798889 .14962769 .083999637 .078567508 .12298584 .0025177003 .19198609-.021484375 .24398804-.021484375 .33099366-.021484375 .3809967 .030532837 .4099884 .08857727 .44599916 .16363526 .44799806 .26171876 .44799806 .31976319M.24398804-.0014953613C.21199036-.0014953613 .14698792 .016525269 .12799073 .12561035 .116989139 .18565369 .116989139 .26171876 .116989139 .33177186 .116989139 .41384889 .116989139 .48789979 .1329956 .5469513 .1499939 .6139984 .20098877 .6450348 .24398804 .6450348 .28199769 .6450348 .33999635 .6220093 .35899354 .53593447 .37199403 .4788971 .37199403 .39982606 .37199403 .33177186 .37199403 .26472474 .37199403 .18865967 .36099244 .12760926 .34199525 .01751709 .2789917-.0014953613 .24398804-.0014953613Z"/>
<clipPath id="clip_3">
<path transform="matrix(1.00006,0,0,-1.00008,2.9074937,67.11641)" d="M0 0H82.2959V65.12527H0Z"/>
</clipPath>
<path id="font_4_1" d="M.45999146 .31976319C.45999146 .39982606 .45498658 .47988893 .41999818 .5539398 .37399293 .65000918 .2919922 .6660156 .25 .6660156 .18998719 .6660156 .116989139 .64001467 .07598877 .54693606 .04399109 .47789 .038986207 .39982606 .038986207 .31976319 .038986207 .24472046 .042999269 .15464783 .083999637 .07859802 .1269989-.0024719239 .19999695-.022460938 .24899292-.022460938 .30299378-.022460938 .3789978-.0014648438 .4229889 .09359741 .45498658 .16265869 .45999146 .2407074 .45999146 .31976319M.24899292-.00047302247C.20999146-.00047302247 .15098572 .024551392 .1329956 .12062073 .12199402 .18066406 .12199402 .2727356 .12199402 .3317871 .12199402 .39582826 .12199402 .46188355 .12998963 .5159149 .14898682 .63500979 .22399903 .64401248 .24899292 .64401248 .28199769 .64401248 .34799195 .6259918 .36698915 .52693179 .3769989 .47088624 .3769989 .39482118 .3769989 .3317871 .3769989 .25672914 .3769989 .18867493 .3659973 .12461853 .35099793 .029556275 .2939911-.00047302247 .24899292-.00047302247Z"/>
<path id="font_1_2" d="M.9079895 .23046875C.9259949 .23046875 .94400027 .23046875 .94400027 .25045777 .94400027 .27046205 .9259949 .27046205 .9079895 .27046205H.16499329C.21998596 .31245423 .24699402 .3534546 .25498963 .36645509 .2999878 .43545533 .30799867 .49845887 .30799867 .49946595 .30799867 .51145938 .29599 .51145938 .28799439 .51145938 .2709961 .51145938 .269989 .50946047 .2659912 .49145509 .24299622 .39346314 .18399048 .31045533 .070999149 .26345826 .05999756 .25946046 .055999757 .25746156 .055999757 .25045777 .055999757 .24345398 .06098938 .24145508 .070999149 .23745728 .1749878 .19445801 .24198914 .11645508 .2669983 .0044555666 .269989-.007537842 .2709961-.010543823 .28799439-.010543823 .29599-.010543823 .30799867-.010543823 .30799867 .0014648438 .30799867 .0034637452 .29899598 .066467288 .25698854 .13345337 .23699951 .1634674 .20799256 .19845581 .16499329 .23046875H.9079895Z"/>
<path id="font_5_1" d="M.18699646 .23144531C.21598816 .23144531 .2899933 .23344422 .33999635 .2544403 .4099884 .28442384 .4149933 .34339906 .4149933 .35740663 .4149933 .40138246 .3769989 .4423828 .30799867 .4423828 .19699097 .4423828 .04598999 .34539796 .04598999 .17037964 .04598999 .06829834 .10499573-.0107421879 .20298767-.0107421879 .34599305-.0107421879 .42999269 .095321658 .42999269 .10733032 .42999269 .113342288 .42399598 .12034607 .41799928 .12034607 .41299439 .12034607 .41099549 .11834717 .40499879 .1103363 .32598878 .011245728 .21699524 .011245728 .20498657 .011245728 .1269989 .011245728 .117996219 .095321658 .117996219 .12734986 .117996219 .13935852 .11898804 .17037964 .13398743 .23144531H.18699646M.13999939 .25343324C.1789856 .40538026 .28199769 .42037965 .30799867 .42037965 .35499574 .42037965 .38198854 .39138795 .38198854 .35740663 .38198854 .25343324 .22200012 .25343324 .18099976 .25343324H.13999939Z"/>
<path id="font_6_84" d="M.55400088 .21640015C.55400088 .34140016 .45298768 .44140626 .33198548 .44140626 .29299928 .44140626 .23498535 .43139649 .18399048 .37939454V.44140626L.034988405 .43045045V.39746095C.10598755 .39746095 .11099243 .39144898 .11099243 .34947206V-.1159668C.11099243-.16113281 .09899902-.16113281 .034988405-.16113281V-.19413758C.07798767-.19114685 .12199402-.19114685 .14898682-.19114685 .17799378-.19114685 .21998596-.19114685 .2630005-.19413758V-.16113281C.19898987-.16113281 .18699646-.16113281 .18699646-.1159668V.049545289C.23399353-.0017700195 .2849884-.009765625 .31698609-.009765625 .44400025-.009765625 .55400088 .088256839 .55400088 .2163086V.21640015M.46499635 .2163086C.46499635 .101257327 .3929901 .018234253 .31199647 .018234253 .2769928 .018234253 .23098755 .033233644 .19898987 .08325195 .18699646 .1002655 .18699646 .101257327 .18699646 .120269779V.33335877C.20999146 .37338258 .2599945 .4104004 .32299806 .4104004 .3999939 .4104004 .46499635 .32536317 .46499635 .2163086Z"/>
<path id="font_6_81" d="M.5 .21325684C.5 .3382721 .39698792 .44628907 .2649994 .44628907 .1329956 .44628907 .02999878 .3382721 .02999878 .21325684 .02999878 .08824158 .13699341-.009765625 .2649994-.009765625 .3939972-.009765625 .5 .08824158 .5 .21325684M.41099549 .22225952C.41099549 .17625427 .40899659 .12124634 .3809967 .07923889 .35398866 .039230348 .30899049 .021224976 .2649994 .021224976 .21099854 .021224976 .16899109 .047225954 .14698792 .082229617 .12199402 .12324524 .11898804 .17224121 .11898804 .22225952 .11898804 .2602539 .11898804 .32026673 .1499939 .363266 .17599488 .3982849 .21798706 .41827394 .2649994 .41827394 .31698609 .41827394 .3600006 .39328004 .3829956 .35827638 .4099884 .31626893 .41099549 .2622528 .41099549 .22225952Z"/>
<path id="font_6_114" d="M.7449951 .3976593V.43066407C.71199038 .42765809 .70999148 .42765809 .6669922 .42765809 .6349945 .42765809 .60798647 .42765809 .57598879 .43066407V.3976593C.6199951 .3956604 .6309967 .36968995 .6309967 .3517151 .6309967 .33973695 .6279907 .33374024 .6259918 .3267517L.5309906 .07810974 .42799378 .35072328C.4229889 .3637085 .4229889 .36669923 .4229889 .37069703 .4229889 .39665223 .45498658 .3976593 .47898866 .3976593V.43066407C.43998719 .42765809 .3869934 .42765809 .3769989 .42765809 .35499574 .42765809 .31399537 .42765809 .28399659 .43066407V.3976593C.34498597 .3976593 .34700013 .39266969 .3659973 .33973695L.27398683 .09307861 .1749878 .3517151C.17399597 .3557129 .16999817 .36669923 .16999817 .37069703 .16999817 .3976593 .20799256 .3976593 .22599793 .3976593V.43066407C.18299866 .42765809 .13798523 .42765809 .11898804 .42765809 .100997928 .42765809 .049987794 .42765809 .020996094 .43066407V.3976593C.070999149 .3976593 .08099365 .3936615 .09199524 .3657074L.22599793 .014190674C.23199463-.00079345706 .23498535-.009765625 .25099183-.009765625 .2679901-.009765625 .27198792 .0012054443 .2769928 .014190674L.3829956 .2947998 .4889984 .014190674C.49398805 .0012054443 .49798585-.009765625 .5149994-.009765625 .5309906-.009765625 .5349884 .00021362305 .5389862 .011199951L.6599884 .3297577C.6689911 .35272218 .6859894 .39665223 .7449951 .3976593Z"/>
<path id="font_6_50" d="M.44099427 .12036133C.44099427 .12435913 .43798829 .13438416 .4249878 .13438416 .4139862 .13438416 .4119873 .12736511 .4099884 .12136841 .37399293 .024230957 .28799439 .021224976 .269989 .021224976 .22499085 .021224976 .1789856 .042251588 .14898682 .08831787 .11898804 .13438416 .11898804 .19847107 .11898804 .22851563H.41299439C.43499757 .22851563 .44099427 .22851563 .44099427 .25151063 .44099427 .34039308 .3919983 .44628907 .25099183 .44628907 .1269989 .44628907 .02999878 .3433838 .02999878 .21949768 .02999878 .09031677 .13798523-.009765625 .2639923-.009765625 .3909912-.009765625 .44099427 .097335819 .44099427 .12036133M.37298585 .25450135H.11999512C.1289978 .39431764 .21398926 .41827394 .25099183 .41827394 .36799623 .41827394 .37199403 .27748109 .37298585 .25450135Z"/>
<path id="font_6_96" d="M.38398744 .3784027C.38398744 .4133911 .35198976 .44140626 .30799867 .44140626 .24299622 .44140626 .19898987 .39239503 .17799378 .33639527H.1769867V.44140626L.034988405 .43045045V.39746095C.102996829 .39746095 .11099243 .3904419 .11099243 .3413849V.078048709C.11099243 .032989503 .09899902 .032989503 .034988405 .032989503V0C.07398987 .0029907227 .1289978 .0029907227 .15299988 .0029907227 .21199036 .0029907227 .21398926 .0029907227 .2789917 0V.032989503H.25898744C.18598938 .032989503 .18399048 .044006349 .18399048 .08004761V.22824097C.18399048 .30332948 .21499634 .41145326 .31098939 .41345216 .30499269 .40899659 .29499818 .40098573 .29499818 .37799073 .29499818 .34700013 .31900025 .33299256 .33898927 .33299256 .36299134 .33299256 .38398744 .34899903 .38398744 .37799073V.3784027Z"/>
<path id="font_1_4" d="M.269989 .55532839C.2939911 .5173187 .32199098 .4893036 .34700013 .4703064 .4079895 .4242859 .46899415 .41429139 .47099305 .41429139 .48298646 .41429139 .48298646 .42529298 .48298646 .43328858 .48298646 .44929505 .48199464 .45030213 .45999146 .4573059 .3919983 .4763031 .35299684 .51231387 .32998658 .537323 .2789917 .59233096 .2669983 .652359 .26098634 .6843567 .2599945 .6893463 .2559967 .6933594 .25 .6933594 .24099732 .6933594 .23999024 .6873474 .23799134 .675354 .21499634 .56433108 .14399719 .48631288 .033996583 .455307 .018997193 .45030213 .016998291 .45030213 .016998291 .43328858 .016998291 .42529298 .016998291 .41429139 .0289917 .41429139 .03199768 .41429139 .09098816 .42529298 .147995 .4663086 .18099976 .49131776 .20799256 .5213165 .22999573 .55532839V-.15785218C.22999573-.17585755 .22999573-.19386292 .25-.19386292 .269989-.19386292 .269989-.17585755 .269989-.15785218V.55532839Z"/>
<path id="font_1_5" d="M.5079956 .2711792C.45399476 .33917237 .44198609 .3541565 .41099549 .3791504 .35499574 .42414857 .29899598 .44215394 .24798584 .44215394 .1309967 .44215394 .054992677 .33216859 .054992677 .2151947 .054992677 .100234989 .1289978-.0107421879 .24398804-.0107421879 .35899354-.0107421879 .44198609 .08023071 .4909973 .16021729 .54499819 .09222412 .5569916 .07723999 .58799746 .052246095 .6439972 .007247925 .69999697-.0107421879 .7509918-.0107421879 .8679962-.0107421879 .94400027 .099227908 .94400027 .21620178 .94400027 .3311615 .8699951 .44215394 .7549896 .44215394 .6399994 .44215394 .5569916 .35116578 .5079956 .2711792M.5339966 .23719788C.57499697 .30917359 .6489868 .41015626 .7619934 .41015626 .8679962 .41015626 .9219971 .3061676 .9219971 .21620178 .9219971 .1182251 .8549957 .037246705 .7669983 .037246705 .70899966 .037246705 .6639862 .07923889 .6429901 .100234989 .6179962 .12722779 .59498599 .15821839 .5339966 .23719788M.46499635 .19419861C.42399598 .1222229 .34999085 .021255494 .23699951 .021255494 .1309967 .021255494 .07699585 .12522888 .07699585 .2151947 .07699585 .3131714 .14399719 .39414979 .23199463 .39414979 .2899933 .39414979 .33499146 .3521576 .35598756 .3311615 .3809967 .3041687 .4039917 .2731781 .46499635 .19419861Z"/>
<path id="font_7_84" d="M.5209961 .21636963C.5209961 .34336854 .42399598 .4423828 .31199647 .4423828 .23399353 .4423828 .19198609 .39837647 .17199707 .3763733V.4423828L.027999878 .43066407V.3996582C.09899902 .3996582 .10598755 .3936615 .10598755 .34973146V-.117996219C.10598755-.16308594 .09498596-.16308594 .027999878-.16308594V-.1940918L.13999939-.19110108 .25299073-.1940918V-.16308594C.18598938-.16308594 .1749878-.16308594 .1749878-.117996219V.050186159 .059173585C.17999268 .04319763 .22200012-.0107421879 .2979889-.0107421879 .4169922-.0107421879 .5209961 .087127689 .5209961 .21594239V.21636963M.43798829 .21594239C.43798829 .09512329 .36799623 .011245728 .2939911 .011245728 .2539978 .011245728 .21598816 .031219483 .18899536 .07215881 .1749878 .09312439 .1749878 .09411621 .1749878 .114089969V.33674623C.20399475 .38838197 .25299073 .41737367 .3039856 .41737367 .3769989 .41737367 .43798829 .32937623 .43798829 .21636963V.21594239Z"/>
<path id="font_7_81" d="M.47099305 .21424866C.47099305 .34223939 .37098695 .4482422 .25 .4482422 .125 .4482422 .027999878 .3392334 .027999878 .21424866 .027999878 .085250858 .13198853-.0107421879 .24899292-.0107421879 .36999513-.0107421879 .47099305 .087249759 .47099305 .21424866M.3880005 .22224427C.3880005 .18624878 .3880005 .13224793 .3659973 .08824158 .34399415 .04324341 .2999878 .014251709 .25 .014251709 .20698548 .014251709 .16299439 .035247804 .13598633 .08125305 .11099243 .12524414 .11099243 .18624878 .11099243 .22224427 .11099243 .26124574 .11099243 .31523133 .1349945 .35923768 .1619873 .40522767 .20899964 .426239 .24899292 .426239 .29299928 .426239 .33599855 .40423585 .3619995 .36123658 .3880005 .3182373 .3880005 .26023866 .3880005 .22224427Z"/>
<path id="font_7_114" d="M.7029877 .3996582V.43066407C.68099978 .4286499 .6519928 .42765809 .6299896 .42765809L.5369873 .43066407V.3996582C.57299807 .39866639 .59498599 .38075257 .59498599 .35176087 .59498599 .34576417 .59498599 .34376527 .58999636 .33078004L.49899293 .07513428 .3999939 .35375978C.3959961 .36575318 .394989 .36775209 .394989 .37275697 .394989 .3996582 .43399049 .3996582 .45399476 .3996582V.43066407L.34999085 .42765809C.31999208 .42765809 .29100038 .4286499 .26098634 .43066407V.3996582C.2979889 .3996582 .31399537 .39767457 .32398988 .38476563 .32899476 .37875367 .33999635 .34877015 .34700013 .3297882L.26098634 .08811951 .1659851 .3547516C.16099549 .36676026 .16099549 .36875917 .16099549 .37275697 .16099549 .3996582 .19999695 .3996582 .21998596 .3996582V.43066407L.11099243 .42765809 .017990113 .43066407V.3996582C.067993167 .3996582 .07998657 .39668275 .09199524 .36476136L.21798706 .01121521C.22299195-.0027618409 .22599793-.0107421879 .23899842-.0107421879 .2519989-.0107421879 .2539978-.004760742 .25898744 .009216309L.3600006 .2918396 .46199037 .008224487C.46598817-.0027618409 .46899415-.0107421879 .48199464-.0107421879 .49499513-.0107421879 .49798585-.0017547608 .5019989 .008224487L.61898806 .3357849C.6369934 .38575746 .66799929 .39866639 .7029877 .3996582Z"/>
<path id="font_7_50" d="M.4149933 .11933899C.4149933 .12934876 .40699769 .13134766 .4019928 .13134766 .3929901 .13134766 .3909912 .12535095 .3889923 .11734009 .35398866 .014251709 .2639923 .014251709 .2539978 .014251709 .20399475 .014251709 .1639862 .044281007 .14099121 .08131409 .11099243 .12934876 .11099243 .19540406 .11099243 .23144531H.3899994C.4119873 .23144531 .4149933 .23144531 .4149933 .2524414 .4149933 .35131837 .36099244 .4482422 .23599243 .4482422 .11999512 .4482422 .027999878 .34532167 .027999878 .22042847 .027999878 .08631897 .1329956-.0107421879 .24798584-.0107421879 .36999513-.0107421879 .4149933 .10032654 .4149933 .11933899M.34899903 .2524414H.11199951C.117996219 .40126039 .20199585 .426239 .23599243 .426239 .33898927 .426239 .34899903 .2913971 .34899903 .2524414Z"/>
<path id="font_7_96" d="M.3639984 .38137818C.3639984 .41337586 .33299256 .4423828 .2899933 .4423828 .21699524 .4423828 .18099976 .37538148 .16699219 .3323822V.4423828L.027999878 .43066407V.3996582C.09799194 .3996582 .10598755 .39266969 .10598755 .34370423V.07595825C.10598755 .0309906 .09498596 .0309906 .027999878 .0309906V0L.14199829 .0029907227C.18199158 .0029907227 .22898865 .0029907227 .2689972 0V.0309906H.24798584C.17399597 .0309906 .17199707 .04197693 .17199707 .07795715V.23181153C.17199707 .33137513 .21398926 .42037965 .2899933 .42037965 .29699708 .42037965 .29899598 .42037965 .30099488 .41937257 .2979889 .41838075 .27799989 .40637208 .27799989 .3803711 .27799989 .35237123 .29899598 .33737184 .32099916 .33737184 .33898927 .33737184 .3639984 .3493805 .3639984 .38137818Z"/>
<path id="font_1_3" d="M.83399966 .23046875C.7789917 .1884613 .7519989 .14746094 .74398806 .13446045 .69898989 .065460208 .69099429 .002456665 .69099429 .0014648438 .69099429-.010543823 .7029877-.010543823 .71099856-.010543823 .7279968-.010543823 .72898867-.008544922 .73298647 .009460449 .7559967 .10746765 .8149872 .19146729 .9279938 .23745728 .9399872 .24145508 .94299319 .24345398 .94299319 .25045777 .94299319 .25746156 .93699648 .26046754 .93499758 .26145936 .8909912 .27845765 .769989 .3284607 .7319946 .49645997 .72898867 .5084686 .7279968 .51145938 .71099856 .51145938 .7029877 .51145938 .69099429 .51145938 .69099429 .49946595 .69099429 .49746705 .69999697 .4344635 .74198916 .36746217 .7619934 .33746339 .79100039 .30245973 .83399966 .27046205H.09098816C.07299805 .27046205 .054992677 .27046205 .054992677 .25045777 .054992677 .23046875 .07299805 .23046875 .09098816 .23046875H.83399966Z"/>
</defs>
<path transform="matrix(1.00006,0,0,-1.00008,2.9074937,67.11641)" stroke-width=".19925" stroke-linecap="butt" stroke-miterlimit="10" stroke-linejoin="miter" fill="none" stroke="#929292" d="M4.57199 13.3801V17.63191M22.85997 13.3801V17.63191M59.43593 13.3801V17.63191M77.7239 13.3801V17.63191"/>
<path transform="matrix(1.00006,0,0,-1.00008,2.9074937,67.11641)" stroke-width=".19925" stroke-linecap="butt" stroke-miterlimit="10" stroke-linejoin="miter" fill="none" stroke="#929292" d="M39.02196 0H43.27393M39.02196 31.01202H43.27393M39.02196 46.51805H43.27393M39.02196 62.02406H43.27393"/>
<path transform="matrix(1.00006,0,0,-1.00008,2.9074937,67.11641)" stroke-width=".3985" stroke-linecap="butt" stroke-miterlimit="10" stroke-linejoin="miter" fill="none" stroke="#000000" d="M0 15.50601H80.30338"/>
<path transform="matrix(1.00006,0,0,-1.00008,83.21569,51.609159)" d="M1.99252 0-1.19551 1.59401 0 0-1.19551-1.59401"/>
<path transform="matrix(1.00006,0,0,-1.00008,2.9074937,67.11641)" stroke-width=".3985" stroke-linecap="butt" stroke-miterlimit="10" stroke-linejoin="miter" fill="none" stroke="#000000" d="M41.14795 0V63.13275"/>
<path transform="matrix(0,-1.00008,-1.00006,-0,44.05791,3.9786072)" d="M1.99252 0-1.19551 1.59401 0 0-1.19551-1.59401"/>
<use data-text="&#x2212;" xlink:href="#font_1_1" transform="matrix(11.955917,0,0,-11.956157,-.09668732,65.27626)"/>
<use data-text="4" xlink:href="#font_2_4" transform="matrix(11.955917,0,0,-11.956157,9.202866,65.27626)"/>
<use data-text="&#x2212;" xlink:href="#font_1_1" transform="matrix(11.955917,0,0,-11.956157,18.19241,65.27626)"/>
<use data-text="2" xlink:href="#font_2_3" transform="matrix(11.955917,0,0,-11.956157,27.491963,65.27626)"/>
<use data-text="2" xlink:href="#font_2_3" transform="matrix(11.955917,0,0,-11.956157,59.41988,65.27626)"/>
<use data-text="4" xlink:href="#font_2_4" transform="matrix(11.955917,0,0,-11.956157,77.70898,65.27626)"/>
<use data-text="&#x2212;" xlink:href="#font_1_1" transform="matrix(11.955917,0,0,-11.956157,22.943696,70.47068)"/>
<use data-text="5" xlink:href="#font_2_5" transform="matrix(11.955917,0,0,-11.956157,32.243249,70.47068)"/>
<use data-text="5" xlink:href="#font_2_5" transform="matrix(11.955917,0,0,-11.956157,32.24325,39.95424)"/>
<use data-text="1" xlink:href="#font_2_2" transform="matrix(11.955917,0,0,-11.956157,26.3899,24.446995)"/>
<use data-text="0" xlink:href="#font_2_1" transform="matrix(11.955917,0,0,-11.956157,32.236345,24.446995)"/>
<use data-text="1" xlink:href="#font_2_2" transform="matrix(11.955917,0,0,-11.956157,26.3899,8.9397549)"/>
<use data-text="5" xlink:href="#font_2_5" transform="matrix(11.955917,0,0,-11.956157,32.236345,8.9397549)"/>
<g clip-path="url(#clip_3)">
<path transform="matrix(1.00006,0,0,-1.00008,2.9074937,67.11641)" stroke-width="1.19553" stroke-linecap="butt" stroke-miterlimit="10" stroke-linejoin="miter" fill="none" stroke="#ff0000" d="M0 15.54045 .83125 15.54373 1.66252 15.54733 2.4938 15.55125 3.32506 15.55557 4.15634 15.56029 4.98761 15.56543 5.81888 15.5711 6.65016 15.57729 7.48141 15.58408 8.3127 15.5915 9.14397 15.59964 9.97523 15.60857 10.8065 15.61832 11.63777 15.62901 12.46906 15.64072 13.30032 15.65353 14.13159 15.66757 14.96286 15.68297 15.79413 15.69978 16.62541 15.71823 17.45667 15.73843 18.28795 15.76056 19.11922 15.78479 19.95049 15.81131 20.78177 15.84038 21.61302 15.87204 22.4443 15.90706 23.27557 15.94522 24.10684 15.98712 24.93811 16.03268 25.76938 16.08296 26.60066 16.13783 27.43193 16.198 28.2632 16.26378 29.09447 16.33604 29.92574 16.41518 30.75702 16.50139 31.58827 16.59633 32.41956 16.70024 33.25082 16.81375 34.08209 16.93814 34.91336 17.07463 35.74463 17.22382 36.57591 17.38731 37.40718 17.56628 38.23845 17.76234 39.06972 17.97733 39.90099 18.21245 40.73227 18.46988 41.56354 18.7514 42.3948 19.06017 43.22607 19.39845 44.05734 19.76883 44.88863 20.17456 45.71988 20.61896 46.55116 21.10533 47.38243 21.6382 48.2137 22.22176 49.04497 22.86101 49.87624 23.561 50.70752 24.32765 51.53879 25.16707 52.37006 26.0865 53.20132 27.0936 54.0326 28.19623 54.86388 29.40436 55.69513 30.72652 56.52641 32.17513 57.35768 33.76149 58.18895 35.49887 59.02023 37.40152 59.85149 39.48563 60.68277 41.76787 61.51404 44.26709 62.3453 47.00493 63.17657 50.00285 64.00784 53.28548 64.83913 56.87978 65.6704 60.8183 66.50165 65.13022 67.33293 69.85336 68.1642 75.02429 68.99548 80.68927 69.82674 86.89291 70.65802 93.68642 71.48929 101.12712 72.32056 109.27556 73.15184 118.19801 73.9831 127.97147 74.81438 138.67589 75.64565 150.39658 76.47691 163.23339 77.30818 177.29611 78.13945 192.69203 78.97073 209.55638 79.802 228.02063 80.63326 248.2473 81.46454 270.40074 82.2958 294.65156"/>
<use data-text="0" xlink:href="#font_4_1" transform="matrix(13.091705,0,0,-13.091967,-35.669404,51.46536)"/>
<use data-text="&#x2190;" xlink:href="#font_1_2" transform="matrix(13.091705,0,0,-13.091967,-25.486794,51.46536)"/>
<use data-text="e" xlink:href="#font_5_1" transform="matrix(13.091705,0,0,-13.091967,-8.75779,51.46536)"/>
<use data-text="p" xlink:href="#font_6_84" transform="matrix(9.564694,0,0,-9.564885,.72398379,46.71418)"/>
<use data-text="o" xlink:href="#font_6_81" transform="matrix(9.564694,0,0,-9.564885,6.6445314,46.71418)"/>
<use data-text="w" xlink:href="#font_6_114" transform="matrix(9.564694,0,0,-9.564885,11.446014,46.71418)"/>
<use data-text="e" xlink:href="#font_6_50" transform="matrix(9.564694,0,0,-9.564885,18.495194,46.71418)"/>
<use data-text="r" xlink:href="#font_6_96" transform="matrix(9.564694,0,0,-9.564885,23.009736,46.71418)"/>
<use data-text="e" xlink:href="#font_5_1" transform="matrix(13.091705,0,0,-13.091967,70.606967,23.552128)"/>
<use data-text="p" xlink:href="#font_6_84" transform="matrix(9.564694,0,0,-9.564885,80.08873,18.80095)"/>
<use data-text="o" xlink:href="#font_6_81" transform="matrix(9.564694,0,0,-9.564885,86.01885,18.80095)"/>
<use data-text="w" xlink:href="#font_6_114" transform="matrix(9.564694,0,0,-9.564885,90.82033,18.80095)"/>
<use data-text="e" xlink:href="#font_6_50" transform="matrix(9.564694,0,0,-9.564885,97.86951,18.80095)"/>
<use data-text="r" xlink:href="#font_6_96" transform="matrix(9.564694,0,0,-9.564885,102.38403,18.80095)"/>
<use data-text="&#x2191;" xlink:href="#font_1_4" transform="matrix(12.302056,4.477671,4.477581,-12.302303,73.78226,15.939697)"/>
<use data-text="&#x221e;" xlink:href="#font_1_5" transform="matrix(13.091705,0,0,-13.091967,76.09429,9.457001)"/>
<use data-text="p" xlink:href="#font_7_84" transform="matrix(12.000729,0,0,-12.00097,60.164628,65.53938)"/>
<use data-text="o" xlink:href="#font_7_81" transform="matrix(12.000729,0,0,-12.00097,67.17306,65.53938)"/>
<use data-text="w" xlink:href="#font_7_114" transform="matrix(12.000729,0,0,-12.00097,72.849399,65.53938)"/>
<use data-text="e" xlink:href="#font_7_50" transform="matrix(12.000729,0,0,-12.00097,81.1779,65.53938)"/>
<use data-text="r" xlink:href="#font_7_96" transform="matrix(12.000729,0,0,-12.00097,86.50623,65.53938)"/>
<use data-text="&#x2192;" xlink:href="#font_1_3" transform="matrix(12.000729,0,0,-12.00097,98.52832,65.53938)"/>
<use data-text="&#x221e;" xlink:href="#font_1_5" transform="matrix(12.000729,0,0,-12.00097,113.85326,65.53938)"/>
<use data-text="&#x2212;" xlink:href="#font_1_1" transform="matrix(12.000729,0,0,-12.00097,-44.339647,66.35145)"/>
<use data-text="&#x221e;" xlink:href="#font_1_5" transform="matrix(12.000729,0,0,-12.00097,-35.015085,66.35145)"/>
<use data-text="&#x2190;" xlink:href="#font_1_2" transform="matrix(12.000729,0,0,-12.00097,-19.690155,66.35145)"/>
<use data-text="p" xlink:href="#font_7_84" transform="matrix(12.000729,0,0,-12.00097,-.3403015,66.35145)"/>
<use data-text="o" xlink:href="#font_7_81" transform="matrix(12.000729,0,0,-12.00097,6.6561129,66.35145)"/>
<use data-text="w" xlink:href="#font_7_114" transform="matrix(12.000729,0,0,-12.00097,12.3324589,66.35145)"/>
<use data-text="e" xlink:href="#font_7_50" transform="matrix(12.000729,0,0,-12.00097,20.66098,66.35145)"/>
<use data-text="r" xlink:href="#font_7_96" transform="matrix(12.000729,0,0,-12.00097,25.989304,66.35145)"/>
</g>
</svg>
