<svg xmlns="http://www.w3.org/2000/svg" xmlns:xlink="http://www.w3.org/1999/xlink" version="1.1" width="334" height="270" viewBox="0 0 334 270">
<defs>
<path id="font_1_11" d="M.2649994 .3380127C.34498597 .3380127 .3880005 .2700653 .3880005 .17915344 .3880005 .09121704 .34999085 .023269654 .2649994 .023269654 .18199158 .023269654 .14199829 .09121704 .14199829 .17915344 .14199829 .2700653 .18598938 .3380127 .2649994 .3380127M.2649994-.01171875C.4269867-.01171875 .48799134 .081222537 .48799134 .18214417 .48799134 .28405763 .42399598 .3420105 .35598756 .35801698V.36102296C.4169922 .37701417 .46598817 .427948 .46598817 .5098419 .46598817 .6187134 .3809967 .6796875 .2649994 .6796875 .15098572 .6796875 .06399536 .61772158 .06399536 .5098419 .06399536 .427948 .11399841 .37701417 .17399597 .36102296V.35801698C.10699463 .3420105 .041992189 .28405763 .041992189 .18214417 .041992189 .081222537 .101989749-.01171875 .2649994-.01171875M.2649994 .37402345C.19299317 .37402345 .16099549 .44392396 .16099549 .5118408 .16099549 .5887451 .19699097 .64468386 .2649994 .64468386 .33299256 .64468386 .36698915 .5887451 .36898805 .5118408 .36898805 .44392396 .33799745 .37402345 .2649994 .37402345Z"/>
<path id="font_1_12" d="M.22898865 .26757813C.29100038 .26757813 .34298707 .30256654 .3769989 .35157777H.3789978C.3789978 .28857423 .37399293 .20774842 .35598756 .13894654 .33799745 .073135379 .30299378 .023269654 .23899842 .023269654 .17098999 .023269654 .1459961 .0761261 .1309967 .12298584 .1269989 .13595581 .11999512 .1439209 .102996829 .1439209 .083999637 .1439209 .055999757 .12397766 .055999757 .09307861 .055999757 .049194337 .10899353-.01171875 .22999573-.01171875 .31098939-.01171875 .37298585 .01828003 .41099549 .071136478 .45199586 .12797547 .47698976 .2157135 .47698976 .36058045 .47698976 .48461915 .45199586 .56565859 .41299439 .6126709 .375 .6576843 .31999208 .6796875 .2559967 .6796875 .12799073 .6796875 .035995485 .5946655 .035995485 .45661927 .035995485 .3315735 .12599182 .26757813 .22898865 .26757813M.25898744 .3205719C.18099976 .3205719 .13598633 .38859559 .13598633 .48461915 .13598633 .57666018 .1769867 .64468386 .25498963 .64468386 .33499146 .64468386 .37399293 .5496521 .37399293 .45262147 .37399293 .4356079 .37298585 .41560365 .36698915 .39959718 .35099793 .35258485 .31199647 .3205719 .25898744 .3205719Z"/>
<path id="font_1_4" d="M.2649994 .64468386C.3600006 .64468386 .3869934 .49682618 .3869934 .33398438 .3869934 .17112732 .3600006 .023269654 .2649994 .023269654 .16999817 .023269654 .14299011 .17112732 .14299011 .33398438 .14299011 .49682618 .16999817 .64468386 .2649994 .64468386M.2649994 .6796875C.099990848 .6796875 .040985109 .53378298 .040985109 .33398438 .040985109 .13417053 .099990848-.01171875 .2649994-.01171875 .42999269-.01171875 .4889984 .13417053 .4889984 .33398438 .4889984 .53378298 .42999269 .6796875 .2649994 .6796875Z"/>
<path id="font_1_6" d="M.4850006 .13195801 .45700074 .13696289C.43598939 .08299255 .41600038 .07598877 .37599183 .07598877H.11999512C.13598633 .1279602 .19499207 .19892884 .28799439 .2658844 .38398744 .33584596 .45799256 .38082887 .45799256 .49276734 .45799256 .63168337 .3659973 .6796875 .26098634 .6796875 .12399292 .6796875 .052993776 .5967102 .052993776 .54473879 .052993776 .51075747 .09098816 .49476625 .10798645 .49476625 .12599182 .49476625 .1329956 .50476077 .13699341 .5217438 .15299988 .5897064 .19198609 .64468386 .2539978 .64468386 .33099366 .64468386 .35299684 .5797119 .35299684 .50675967 .35299684 .3998108 .29899598 .33984376 .21199036 .26289369 .08898926 .15594483 .04598999 .08798218 .026992798 .009994507L.036987306 0H.45098878L.4850006 .13195801Z"/>
<path id="font_1_8" d="M.2999878 .17871094V.0769043C.2999878 .04296875 .2889862 .036987306 .2649994 .034988405L.20098877 .0289917V0H.46499635V.0289917L.41999818 .033981325C.39698792 .036987306 .3899994 .04296875 .3899994 .0769043V.17871094H.49299623V.22570801H.3899994V.66796877H.31698609C.22299195 .5298767 .11099243 .35577394 .018997193 .19970703L.027999878 .17871094H.2999878M.09098816 .22570801C.15098572 .33476258 .22099304 .4498291 .2979889 .5709076H.2999878V.22570801H.09098816Z"/>
<path id="font_1_9" d="M.27198792-.01171875C.41999818-.01171875 .49899293 .07821655 .49899293 .2140503 .49899293 .3488922 .4119873 .42385865 .30799867 .421875 .23199463 .42385865 .17199707 .36886598 .14498902 .33590699H.14299011C.14399719 .5557556 .20698548 .64468386 .29699708 .64468386 .34298707 .64468386 .375 .6057129 .3899994 .5487671 .3929901 .5367737 .40098573 .527771 .41600038 .527771 .43798829 .527771 .46899415 .5447693 .46899415 .57273867 .46899415 .6127014 .41999818 .6796875 .2999878 .6796875 .22099304 .6796875 .16499329 .64967349 .12298584 .6017151 .07798767 .5497589 .04399109 .45384217 .04399109 .3089447 .04399109 .093185428 .12199402-.01171875 .27198792-.01171875M.27398683 .37086488C.33699037 .37086488 .39898683 .31393434 .39898683 .19906616 .39898683 .094192508 .35798646 .023269654 .27398683 .023269654 .18699646 .023269654 .14498902 .11616516 .14498902 .23602295 .14498902 .2969513 .18998719 .37086488 .27398683 .37086488Z"/>
<path id="font_1_5" d="M.43699647 0V.0289917L.35299684 .035995485C.33198548 .037994386 .31999208 .04598999 .31999208 .08496094V.67367556L.31498719 .6796875 .10899353 .6446991V.6197052L.20199585 .6087036C.21899414 .6067047 .22599793 .5987091 .22599793 .56973269V.08496094C.22599793 .065979007 .22299195 .053985597 .21699524 .04698181 .21199036 .039993287 .20399475 .036987306 .19299317 .035995485L.10899353 .0289917V0H.43699647Z"/>
<clipPath id="clip_2">
<path transform="matrix(.799928,-.39993,0,-.79988,7.2400057,215.37665)" d="M28.01633 21.29807H224.13066V146.54628H28.01633Z"/>
</clipPath>
<path id="font_1_17" d="M.3600006 .65737918H.4189911C.5359955 .65737918 .5569916 .6353607 .56900027 .5262909H.598999V.6923828H.021987915V.5262909H.051986696C.06399536 .6353607 .084991458 .65737918 .20199585 .65737918H.26098634V.09303284C.26098634 .037002565 .2579956 .035003663 .15098572 .0289917V0H.46998597V.0289917C.36299134 .035003663 .3600006 .037002565 .3600006 .09303284V.65737918Z"/>
<path id="font_1_1" d="M.1749878 .2822113C.1749878 .56832888 .2619934 .65437319 .32499696 .66737368V.6923828C.1499939 .685379 .10499573 .46829225 .10499573 .2822113 .10499573 .09614563 .1499939-.12094116 .32499696-.12792969V-.10293579C.2669983-.090927127 .1749878-.0059051516 .1749878 .2822113Z"/>
<path id="font_1_16" d="M.05999756 .045333864C.10398865 .004348755 .18699646-.0146484379 .25698854-.0146484379 .43399049-.0146484379 .5039978 .08631897 .5039978 .18826294 .5039978 .30619813 .42399598 .36218263 .30699159 .40515138L.2749939 .41714479C.20799256 .44213868 .1519928 .48512269 .1519928 .5450897 .1519928 .61805728 .19599915 .6720276 .27999879 .6720276 .3659973 .6720276 .4139862 .6230469 .42999269 .5220947H.46099855V.6630249C.4269867 .6900177 .35899354 .70703127 .29100038 .70703127 .16899109 .70703127 .06098938 .64604189 .06098938 .5140991 .06098938 .40914918 .14498902 .354187 .25 .3171997L.2679901 .31019593C.31199647 .2932129 .40699769 .24723816 .40699769 .15827942 .40699769 .0723114 .35198976 .020339966 .2630005 .020339966 .16899109 .020339966 .10699463 .093307498 .08198547 .20524597H.049987794L.05999756 .045333864Z"/>
<path id="font_1_2" d="M.1749878 .2822113C.1749878-.0059051516 .08299255-.090927127 .024993897-.10293579V-.12792969C.19999695-.12094116 .24499512 .09614563 .24499512 .2822113 .24499512 .46829225 .19999695 .685379 .024993897 .6923828V.66737368C.08799744 .65437319 .1749878 .56832888 .1749878 .2822113Z"/>
<path id="font_1_14" d="M.6539917 .22418213C.6539917 .2741394 .6589966 .27912904 .72499087 .2861328V.3151245H.44898988V.2861328C.5499878 .27912904 .5549927 .27313233 .5549927 .22418213V.08929443C.5549927 .05432129 .5419922 .043319704 .5209961 .035339357 .49499513 .025344849 .46699525 .020339966 .43299867 .020339966 .20298767 .020339966 .1599884 .22418213 .1599884 .3491211 .1599884 .5070648 .22299195 .6720276 .41999818 .6720276 .5299988 .6720276 .59399417 .6220398 .61499026 .5090637H.644989V.6660309C.59599307 .6900177 .5099945 .70703127 .42999269 .70703127 .27999879 .70703127 .17999268 .6580353 .12298584 .5840454 .07199097 .5170746 .04798889 .437088 .04798889 .33311463 .04798889 .20419312 .09899902 .10127258 .17199707 .049316408 .24798584-.0036621094 .33599855-.0146484379 .42399598-.0146484379 .49398805-.0146484379 .59098818 .0073394777 .6539917 .02734375V.22418213Z"/>
<path id="font_1_27" d="M.18899536 .5019531 .036987306 .47694398V.45195008L.07499695 .4469452C.100997928 .4429474 .10699463 .4379425 .10699463 .40194703V.08699036C.10699463 .035995485 .101989749 .033996583 .03199768 .0289917V0H.29599V.0289917C.20698548 .033996583 .20098877 .035995485 .20098877 .08699036V.32095338C.20098877 .39794923 .23498535 .4239502 .2579956 .4239502 .27398683 .4239502 .29100038 .4179535 .31999208 .40194703 .32699586 .39794923 .33499146 .39694215 .33999635 .39694215 .3639984 .39694215 .38598634 .4219513 .38598634 .4529419 .38598634 .47494508 .37199403 .5019531 .33299256 .5019531 .29699708 .5019531 .2669983 .47994996 .20098877 .4219513L.18899536 .5019531Z"/>
<path id="font_1_20" d="M.44099427 .2627716C.46199037 .2627716 .48098756 .2677765 .48098756 .30078126 .48098756 .35983277 .46199037 .5019531 .2789917 .5019531 .12298584 .5019531 .04899597 .39086915 .04899597 .24082947 .04899597 .08317566 .116989139-.01373291 .27999879-.01171875 .3909912-.010726929 .44799806 .050247194 .47499085 .1290741L.44499208 .14503479C.4169922 .08717346 .3789978 .039276124 .2999878 .039276124 .17599488 .039276124 .15098572 .15901184 .15299988 .2627716H.44099427M.1539917 .30078126C.1539917 .34181214 .16899109 .46694947 .272995 .46694947 .3659973 .46694947 .3769989 .37184144 .3769989 .33280946 .3769989 .31378175 .37098695 .30078126 .34298707 .30078126H.1539917Z"/>
<path id="font_1_24" d="M.5289917 .34295655C.5289917 .4439392 .47399903 .5019531 .38198854 .5019531 .30799867 .5019531 .2619934 .46594239 .19999695 .4259491L.18598938 .5019531 .036987306 .47694398V.45195008L.07499695 .4469452C.100997928 .4429474 .10699463 .4379425 .10699463 .40194703V.08699036C.10699463 .035995485 .10398865 .033996583 .03199768 .0289917V0H.27598573V.0289917C.20498657 .033996583 .20098877 .035995485 .20098877 .08699036V.32095338C.20098877 .34596253 .20298767 .35995484 .21099854 .37594605 .23199463 .4149475 .2769928 .44795228 .32998658 .44795228 .397995 .44795228 .43499757 .40994264 .43499757 .32295228V.08699036C.43499757 .035995485 .43199159 .033996583 .3600006 .0289917V0H.60398867V.0289917C.5329895 .033996583 .5289917 .035995485 .5289917 .08699036V.34295655Z"/>
<path id="font_1_21" d="M.5169983 .34295655C.5169983 .4439392 .46199037 .5019531 .36898805 .5019531 .29599 .5019531 .25099183 .46794129 .18798828 .4259491V.73617556L.18099976 .7421875 .024993897 .7171478V.6921234L.06298828 .68711856C.08898926 .6831207 .09498596 .67811587 .09498596 .6420746V.08699036C.09599304 .037994386 .09098816 .033996583 .020996094 .0289917V0H.2639923V.0289917C.19499207 .033996583 .18899536 .037994386 .18899536 .08699036V.32095338C.18899536 .34596253 .18998719 .35995484 .19799805 .37495423 .21899414 .4149475 .2649994 .44795228 .31799317 .44795228 .38598634 .44795228 .4229889 .40994264 .4229889 .32295228V.08699036C.4229889 .037994386 .41799928 .033996583 .34799195 .0289917V0H.59199526V.0289917C.522995 .033996583 .5169983 .037994386 .5169983 .08699036V.34295655Z"/>
<path id="font_1_25" d="M.28799439 .5019531C.12799073 .5019531 .04899597 .40698243 .04899597 .24510193 .04899597 .083236698 .12799073-.01171875 .28799439-.01171875 .44999696-.01171875 .5279999 .083236698 .5279999 .24510193 .5279999 .40698243 .44999696 .5019531 .28799439 .5019531M.15299988 .24510193C.15299988 .38301087 .19699097 .46694947 .28799439 .46694947 .3809967 .46694947 .42399598 .38301087 .42399598 .24510193 .42399598 .10720825 .3809967 .023269654 .28799439 .023269654 .19699097 .023269654 .15299988 .10720825 .15299988 .24510193Z"/>
<path id="font_1_30" d="M.59098818 0V.0289917C.5219879 .033996583 .5159912 .035995485 .5159912 .08699036V.49609376L.5089874 .50209048 .35198976 .47709657V.45210267L.3899994 .44711305C.41600038 .44309999 .42199708 .43811036 .42199708 .40213014V.17721558C.42199708 .14923096 .4189911 .12724304 .4139862 .117248538 .3909912 .071258548 .34298707 .042266847 .29100038 .042266847 .23298645 .042266847 .18998719 .07826233 .18998719 .15621948V.49609376L.18299866 .50209048 .025985718 .47709657V.45210267L.06399536 .44711305C.08999634 .44309999 .09599304 .43811036 .09599304 .40213014V.13822937C.09599304 .023269654 .1639862-.01171875 .23799134-.01171875 .32299806-.01171875 .3919983 .04626465 .42099 .060272218L.43099977 0H.59098818Z"/>
<path id="font_1_28" d="M.36698915 .35102845V.46794129C.33399964 .49194337 .2829895 .5019531 .23799134 .5019531 .12998963 .5019531 .056991579 .45095826 .055999757 .35603334 .056991579 .27308656 .12399292 .2361145 .20698548 .21113587 .2519989 .19714356 .31498719 .17416382 .31498719 .10621643 .31498719 .055252077 .2749939 .023269654 .22200012 .023269654 .14099121 .023269654 .09599304 .082229617 .07598877 .16716004H.04699707L.056991579 .03627014C.09298706 .004272461 .1539917-.01171875 .21299744-.01171875 .33198548-.01171875 .3999939 .051254274 .3999939 .13618469 .3999939 .2241211 .34599305 .26409913 .24299622 .29606629 .20199585 .30906678 .13598633 .3300476 .13598633 .3860016 .13699341 .43795777 .17599488 .46694947 .22599793 .46694947 .29699708 .46694947 .33099366 .4119873 .33799745 .35102845H.36698915Z"/>
<path id="font_1_23" d="M.036987306 .47694398V.45195008L.07499695 .4469452C.100997928 .4429474 .10699463 .4379425 .10699463 .40194703V.08699036C.10699463 .035995485 .10398865 .033996583 .03199768 .0289917V0H.27598573V.0289917C.20498657 .033996583 .20098877 .035995485 .20098877 .08699036V.32095338C.20098877 .34596253 .20199585 .35995484 .20899964 .37394715 .22799683 .41394044 .27198792 .44795228 .32699586 .44795228 .41299439 .44795228 .4229889 .38494874 .4229889 .32295228V.08699036C.4229889 .035995485 .41999818 .033996583 .34799195 .0289917V0H.59199526V.0289917C.5209961 .033996583 .5169983 .035995485 .5169983 .08699036V.32095338C.5169983 .34596253 .5179901 .35995484 .5239868 .37594605 .5389862 .4159546 .58200076 .44795228 .6380005 .44795228 .70098879 .44995118 .7389984 .40994264 .7389984 .32295228V.08699036C.7389984 .035995485 .73599246 .033996583 .6639862 .0289917V0H.9079895V.0289917C.83699038 .033996583 .83299258 .035995485 .83299258 .08699036V.34295655C.83299258 .4439392 .7789917 .5019531 .6839905 .5019531 .60198977 .5019531 .54299929 .4469452 .5079956 .42494203 .48399354 .4719391 .44599916 .5019531 .37599183 .5019531 .29899598 .5019531 .23599243 .45195008 .20098877 .4259491L.19198609 .5019531 .036987306 .47694398Z"/>
<path id="font_1_26" d="M.19400025 .32104493C.19400025 .34602357 .19799805 .36001588 .20698548 .37800599 .22999573 .42396546 .272995 .44795228 .32598878 .44795228 .3659973 .44795228 .45498658 .42196656 .45498658 .25009156 .45498658 .10321045 .40899659 .023269654 .30899049 .023269654 .25698854 .023269654 .21699524 .050247194 .20098877 .096221927 .19499207 .11419678 .19400025 .13418579 .19400025 .15716553V.32104493M.02999878 .47694398V.45195008L.067993167 .4469452C.09399414 .4429474 .099990848 .43795777 .099990848 .40197755V-.14324951C.099990848-.19444275 .09498596-.19645691 .024993897-.20147705V-.23046875H.28399659V-.20147705C.19999695-.19645691 .19400025-.19444275 .19400025-.14324951V.011276245C.21499634-.0007324219 .2619934-.01171875 .30799867-.01171875 .44299317-.01171875 .5589905 .050247194 .5589905 .25608827 .5589905 .32704164 .54599 .5019531 .3639984 .5019531 .29100038 .5019531 .23298645 .4529419 .19400025 .42796327L.18099976 .5019531 .02999878 .47694398Z"/>
<path id="font_1_18" d="M.34298707 .14318848C.34298707 .06225586 .2809906 .041275026 .24198914 .041275026 .17999268 .041275026 .1499939 .085235599 .1499939 .14419556 .1499939 .19116211 .17199707 .21513367 .22799683 .23612976 .2679901 .2511139 .32099916 .27009584 .34298707 .28408814V.14318848M.43299867 .36901856C.43299867 .42697145 .41999818 .5019531 .2689972 .5019531 .1559906 .5019531 .066986087 .44296266 .066986087 .3880005 .066986087 .35603334 .10398865 .3410492 .12298584 .3410492 .14399719 .3410492 .1499939 .35203553 .15499878 .36901856 .1769867 .44296266 .21798706 .46694947 .2579956 .46694947 .29699708 .46694947 .34298707 .44696046 .34298707 .36701966V.32505799C.31799317 .29907228 .22099304 .27409364 .14199829 .24911499 .069992069 .22712708 .04899597 .1771698 .04899597 .13020325 .04899597 .055267335 .09899902-.01171875 .19299317-.01171875 .25498963-.009719849 .30999757 .027267456 .34199525 .04826355 .35598756 .011276245 .37199403-.01171875 .40699769-.01171875 .44400025-.01171875 .4869995-.0007324219 .5249939 .01828003L.5189972 .042266847C.5049896 .039276124 .48298646 .03727722 .46798707 .041275026 .44999696 .045272829 .43299867 .06425476 .43299867 .12721253V.36901856Z"/>
<path id="font_1_29" d="M.32598878 .45022584V.49023438H.19699097V.6162262H.16799927L.10699463 .49023438H.0309906V.45022584H.102996829V.102264408C.102996829 .0002746582 .1789856-.01171875 .21398926-.01171875 .2649994-.01171875 .31298829 .014266968 .34199525 .03227234L.33399964 .053268434C.30999757 .043273927 .28799439 .040267946 .2630005 .040267946 .22898865 .040267946 .19699097 .06427002 .19699097 .14025879V.45022584H.32598878Z"/>
<path id="font_3_1" d="M.11299133 .2819214C.11299133 .35694886 .17399597 .41796876 .24899292 .41796876 .32398988 .41796876 .3849945 .35694886 .3849945 .2819214 .3849945 .20689392 .32398988 .14588928 .24899292 .14588928 .17399597 .14588928 .11299133 .20689392 .11299133 .2819214M.054992677 .2819214C.054992677 .17489624 .14199829 .087890628 .24899292 .087890628 .35598756 .087890628 .44299317 .17489624 .44299317 .2819214 .44299317 .38894654 .35598756 .4759674 .24899292 .4759674 .14199829 .4759674 .054992677 .38894654 .054992677 .2819214Z"/>
<path id="font_1_13" d="M.034988405 .6923828V.66337588C.12298584 .6573639 .125 .655365 .125 .5993347V.093048099C.125 .037002565 .12298584 .035003663 .034988405 .0289917V0H.32998658V.0289917C.22698975 .035003663 .22399903 .037002565 .22399903 .093048099V.32722474H.3639984C.44898988 .32722474 .45298768 .3032074 .46199037 .23916626H.49198915V.4532776H.46199037C.45298768 .38923646 .44898988 .36523438 .3639984 .36523438H.22399903V.62135317C.22399903 .65437319 .22799683 .65737918 .26098634 .65737918H.3600006C.47599793 .65737918 .49899293 .6343689 .5130005 .5323181H.54299929V.6923828H.034988405Z"/>
<path id="font_1_31" d="M.33898927 .49023438V.46122743L.3880005 .45622254C.4039917 .45422364 .40699769 .44322206 .40299989 .42921449 .394989 .39718629 .37599183 .3391571 .35299684 .27511598L.28599549 .08999634H.28399659L.22299195 .25810243C.20298767 .31513978 .18299866 .37316896 .1639862 .42721559 .15699768 .44622804 .16099549 .45422364 .17999268 .45622254L.22499085 .46122743V.49023438H.0009918213V.46122743C.04798889 .4572296 .056991579 .4532318 .07199097 .41619874 .09899902 .3501587 .12199402 .28511048 .14698792 .21607971L.22399903 0H.29599L.3849945 .24209595C.4139862 .32014466 .44299317 .3861847 .45700074 .41819764 .47200013 .4532318 .48298646 .45922853 .5289917 .46122743V.49023438H.33898927Z"/>
<path id="font_1_3" d="M.1329956-.01171875C.17199707-.01171875 .19499207 .015274048 .19599915 .05126953 .19599915 .088272098 .17199707 .11627197 .1329956 .11627197 .09498596 .11627197 .069992069 .088272098 .069992069 .05126953 .069992069 .015274048 .09498596-.01171875 .1329956-.01171875Z"/>
<path id="font_1_15" d="M.3809967 .6720276C.5589905 .6720276 .59999087 .4931183 .60198977 .3461914 .59999087 .19924927 .5589905 .020339966 .3809967 .020339966 .20298767 .020339966 .1619873 .19924927 .1599884 .3461914 .1619873 .4931183 .20298767 .6720276 .3809967 .6720276M.3809967 .70703127C.2709961 .70703127 .18899536 .6730194 .1329956 .61006167 .07899475 .55007937 .04798889 .4591217 .04798889 .3461914 .04798889 .23423767 .07899475 .14228821 .1329956 .08232117 .18899536 .019348145 .2709961-.0146484379 .3809967-.0146484379 .49198915-.0146484379 .57299807 .019348145 .6289978 .08232117 .6839905 .14228821 .71398928 .23423767 .71398928 .3461914 .71398928 .4591217 .6839905 .55007937 .6289978 .61006167 .57299807 .6730194 .49198915 .70703127 .3809967 .70703127Z"/>
<path id="font_1_22" d="M.036987306 .47694398V.45195008L.07499695 .4469452C.100997928 .4429474 .10699463 .43795777 .10699463 .40194703V.08699036C.10699463 .035995485 .10398865 .033996583 .03199768 .0289917V0H.27598573V.0289917C.20498657 .033996583 .20098877 .035995485 .20098877 .08699036V.49609376L.19400025 .5020752 .036987306 .47694398M.15299988 .71484377C.116989139 .71484377 .09199524 .6888428 .09199524 .65283206 .09199524 .61782839 .116989139 .5928345 .15299988 .5928345 .18998719 .5928345 .21299744 .61782839 .21398926 .65283206 .21398926 .6888428 .18998719 .71484377 .15299988 .71484377Z"/>
<path id="font_1_19" d="M.58299258 0V.0289917C.5119934 .033996583 .5079956 .035995485 .5079956 .08699036V.73617556L.5009918 .7421875 .34399415 .7171478V.6921234L.38198854 .6881256C.4079895 .6851196 .4139862 .68011477 .4139862 .6420746V.47795106C.38598634 .49295045 .34899903 .5019531 .30299378 .5019531 .22099304 .5019531 .1599884 .47595216 .117996219 .43295289 .07499695 .3879547 .04899597 .32196046 .04899597 .2349701 .04899597 .0872345 .12599182-.01171875 .2579956-.01171875 .31199647-.01171875 .35899354 .012268066 .41299439 .056259157V.0069885256L.42099 0H.58299258M.4139862 .16998291C.4139862 .14819336 .41299439 .13121033 .40699769 .114212039 .3869934 .06225586 .34298707 .042266847 .29100038 .042266847 .19898987 .042266847 .15299988 .13220215 .15299988 .24711609 .15299988 .37701417 .19999695 .46694947 .3019867 .46694947 .34899903 .46694947 .3869934 .44496156 .40499879 .4039917 .41299439 .38700868 .4139862 .37301637 .4139862 .34603883V.16998291Z"/>
<path id="font_1_10" d="M.07199097 .66796877 .040985109 .5279999H.067993167L.07798767 .5489807C.09098816 .57696536 .10398865 .5919647 .14898682 .5919647H.4189911C.40899659 .5559845 .3909912 .4980011 .30999757 .38206483 .22399903 .25914 .16699219 .14718628 .16699219 .029251099 .16699219-.0037231446 .18998719-.01171875 .22099304-.01171875 .25-.01171875 .2709961-.0027313233 .269989 .026260376 .2649994 .15818787 .2919922 .26412965 .34498597 .35708619 .40899659 .46905519 .46199037 .5310211 .49699403 .65696719L.48799134 .66796877H.07199097Z"/>
<path id="font_1_7" d="M.12998963 .3657837C.12998963 .3487854 .1349945 .33779908 .147995 .33779908 .1599884 .33779908 .18699646 .34777833 .23498535 .34777833 .31999208 .34777833 .36799623 .27090455 .36799623 .18403626 .36799623 .065216068 .30899049 .023269654 .23799134 .023269654 .17199707 .023269654 .1289978 .07319641 .10998535 .12911988 .10398865 .14808655 .09399414 .15707398 .07998657 .15707398 .06199646 .15707398 .026992798 .13809204 .026992798 .10215759 .026992798 .05921936 .09599304-.01171875 .23699951-.01171875 .38198854-.01171875 .47299195 .06121826 .47299195 .18902588 .47299195 .32281495 .35798646 .3627777 .30299378 .3677826V.3717804C.35699464 .38078309 .44400025 .4207611 .44400025 .5197296 .44400025 .6306915 .35699464 .6796875 .25 .6796875 .117996219 .6796875 .052993776 .60369876 .052993776 .5607147 .052993776 .5297241 .08799744 .51272585 .101989749 .51272585 .114990238 .51272585 .12298584 .5197296 .1269989 .5327301 .14898682 .60069277 .18699646 .64468386 .24299622 .64468386 .32199098 .64468386 .34098817 .57470706 .34098817 .51872256 .34098817 .4587555 .31999208 .38378907 .23498535 .38378907 .18699646 .38378907 .1599884 .39378358 .147995 .39378358 .1349945 .39378358 .12998963 .38378907 .12998963 .3657837Z"/>
<clipPath id="clip_4">
<path transform="matrix(.799928,.39993,.799928,-.39995,29.65078,187.13657)" d="M0 0H181.93727V196.11434H0Z"/>
</clipPath>
</defs>
<path transform="matrix(.799928,-.39993,0,-.79988,7.2400057,215.37665)" stroke-width=".3985" stroke-linecap="butt" stroke-dasharray=".3985,1.99255" stroke-miterlimit="10" stroke-linejoin="miter" fill="none" stroke="#cbcbcb" d="M28.01633 21.29807V146.54628M56.03265 21.29807V146.54628M84.049 21.29807V146.54628M112.06532 21.29807V146.54628M140.08167 21.29807V146.54628M168.09799 21.29807V146.54628M196.11434 21.29807V146.54628"/>
<path transform="matrix(.799928,-.39993,0,-.79988,7.2400057,215.37665)" stroke-width=".3985" stroke-linecap="butt" stroke-miterlimit="10" stroke-linejoin="miter" fill="none" stroke="#cbcbcb" d="M42.02449 21.29807V146.54628M70.04083 21.29807V146.54628M98.05716 21.29807V146.54628M126.0735 21.29807V146.54628M154.08983 21.29807V146.54628M182.10617 21.29807V146.54628M210.1225 21.29807V146.54628"/>
<path transform="matrix(.799928,-.39993,0,-.79988,7.2400057,215.37665)" stroke-width=".3985" stroke-linecap="butt" stroke-dasharray=".3985,1.99255" stroke-miterlimit="10" stroke-linejoin="miter" fill="none" stroke="#cbcbcb" d="M28.01633 21.29807H224.13066M28.01633 28.9214H224.13066M28.01633 36.54474H224.13066M28.01633 44.16808H224.13066M28.01633 51.79141H224.13066M28.01633 59.41475H224.13066M28.01633 67.03809H224.13066M28.01633 74.66142H224.13066M28.01633 82.28476H224.13066M28.01633 89.9081H224.13066M28.01633 97.53143H224.13066M28.01633 105.15477H224.13066M28.01633 112.7781H224.13066M28.01633 120.40144H224.13066M28.01633 128.02478H224.13066M28.01633 135.64812H224.13066M28.01633 143.27146H224.13066"/>
<path transform="matrix(.799928,-.39993,0,-.79988,7.2400057,215.37665)" stroke-width=".3985" stroke-linecap="butt" stroke-miterlimit="10" stroke-linejoin="miter" fill="none" stroke="#cbcbcb" d="M28.01633 44.16808H224.13066M28.01633 59.41475H224.13066M28.01633 74.66142H224.13066M28.01633 89.9081H224.13066M28.01633 105.15477H224.13066M28.01633 120.40144H224.13066M28.01633 135.64812H224.13066"/>
<path transform="matrix(.799928,-.39993,0,-.79988,7.2400057,215.37665)" stroke-width=".19925" stroke-linecap="butt" stroke-miterlimit="10" stroke-linejoin="miter" fill="none" stroke="#929292" d="M28.01633 21.29807V24.13289M56.03265 21.29807V24.13289M84.049 21.29807V24.13289M112.06532 21.29807V24.13289M140.08167 21.29807V24.13289M168.09799 21.29807V24.13289M196.11434 21.29807V24.13289M28.01633 146.54628V143.71144M56.03265 146.54628V143.71144M84.049 146.54628V143.71144M112.06532 146.54628V143.71144M140.08167 146.54628V143.71144M168.09799 146.54628V143.71144M196.11434 146.54628V143.71144"/>
<path transform="matrix(.799928,-.39993,0,-.79988,7.2400057,215.37665)" stroke-width=".19925" stroke-linecap="butt" stroke-miterlimit="10" stroke-linejoin="miter" fill="none" stroke="#929292" d="M42.02449 21.29807V25.54988M70.04083 21.29807V25.54988M98.05716 21.29807V25.54988M126.0735 21.29807V25.54988M154.08983 21.29807V25.54988M182.10617 21.29807V25.54988M210.1225 21.29807V25.54988M42.02449 146.54628V142.29447M70.04083 146.54628V142.29447M98.05716 146.54628V142.29447M126.0735 146.54628V142.29447M154.08983 146.54628V142.29447M182.10617 146.54628V142.29447M210.1225 146.54628V142.29447"/>
<path transform="matrix(.799928,-.39993,0,-.79988,7.2400057,215.37665)" stroke-width=".19925" stroke-linecap="butt" stroke-miterlimit="10" stroke-linejoin="miter" fill="none" stroke="#929292" d="M28.01633 21.29807H30.85178M28.01633 28.9214H30.85178M28.01633 36.54474H30.85178M28.01633 44.16808H30.85178M28.01633 51.79141H30.85178M28.01633 59.41475H30.85178M28.01633 67.03809H30.85178M28.01633 74.66142H30.85178M28.01633 82.28476H30.85178M28.01633 89.9081H30.85178M28.01633 97.53143H30.85178M28.01633 105.15477H30.85178M28.01633 112.7781H30.85178M28.01633 120.40144H30.85178M28.01633 128.02478H30.85178M28.01633 135.64812H30.85178M28.01633 143.27146H30.85178M224.13066 21.29807H221.29521M224.13066 28.9214H221.29521M224.13066 36.54474H221.29521M224.13066 44.16808H221.29521M224.13066 51.79141H221.29521M224.13066 59.41475H221.29521M224.13066 67.03809H221.29521M224.13066 74.66142H221.29521M224.13066 82.28476H221.29521M224.13066 89.9081H221.29521M224.13066 97.53143H221.29521M224.13066 105.15477H221.29521M224.13066 112.7781H221.29521M224.13066 120.40144H221.29521M224.13066 128.02478H221.29521M224.13066 135.64812H221.29521M224.13066 143.27146H221.29521"/>
<path transform="matrix(.799928,-.39993,0,-.79988,7.2400057,215.37665)" stroke-width=".19925" stroke-linecap="butt" stroke-miterlimit="10" stroke-linejoin="miter" fill="none" stroke="#929292" d="M28.01633 44.16808H32.26906M28.01633 59.41475H32.26906M28.01633 74.66142H32.26906M28.01633 89.9081H32.26906M28.01633 105.15477H32.26906M28.01633 120.40144H32.26906M28.01633 135.64812H32.26906M224.13066 44.16808H219.87792M224.13066 59.41475H219.87792M224.13066 74.66142H219.87792M224.13066 89.9081H219.87792M224.13066 105.15477H219.87792M224.13066 120.40144H219.87792M224.13066 135.64812H219.87792"/>
<path transform="matrix(.799928,-.39993,0,-.79988,7.2400057,215.37665)" stroke-width=".3985" stroke-linecap="butt" stroke-miterlimit="10" stroke-linejoin="miter" fill="none" stroke="#000000" d="M28.01633 21.29807V146.54628H224.13066V21.29807H28.01633Z"/>
<use data-text="8" xlink:href="#font_1_11" transform="matrix(8.028398,-4.0138576,0,-8.027916,18.415,177.12653)"/>
<use data-text="8" xlink:href="#font_1_11" transform="matrix(8.028398,-4.0138576,0,-8.027916,22.670052,174.99918)"/>
<use data-text="9" xlink:href="#font_1_12" transform="matrix(8.028398,-4.0138576,0,-8.027916,18.415,164.93076)"/>
<use data-text="0" xlink:href="#font_1_4" transform="matrix(8.028398,-4.0138576,0,-8.027916,22.670052,162.8034)"/>
<use data-text="9" xlink:href="#font_1_12" transform="matrix(8.028398,-4.0138576,0,-8.027916,18.415,152.73499)"/>
<use data-text="2" xlink:href="#font_1_6" transform="matrix(8.028398,-4.0138576,0,-8.027916,22.670052,150.60764)"/>
<use data-text="9" xlink:href="#font_1_12" transform="matrix(8.028398,-4.0138576,0,-8.027916,18.415,140.54001)"/>
<use data-text="4" xlink:href="#font_1_8" transform="matrix(8.028398,-4.0138576,0,-8.027916,22.670052,138.41266)"/>
<use data-text="9" xlink:href="#font_1_12" transform="matrix(8.028398,-4.0138576,0,-8.027916,18.415,128.34424)"/>
<use data-text="6" xlink:href="#font_1_9" transform="matrix(8.028398,-4.0138576,0,-8.027916,22.670052,126.216899)"/>
<use data-text="9" xlink:href="#font_1_12" transform="matrix(8.028398,-4.0138576,0,-8.027916,18.415,116.148479)"/>
<use data-text="8" xlink:href="#font_1_11" transform="matrix(8.028398,-4.0138576,0,-8.027916,22.670052,114.021129)"/>
<use data-text="1" xlink:href="#font_1_5" transform="matrix(8.028398,-4.0138576,0,-8.027916,14.156181,106.082729)"/>
<use data-text="0" xlink:href="#font_1_4" transform="matrix(8.028398,-4.0138576,0,-8.027916,18.411232,103.955379)"/>
<use data-text="0" xlink:href="#font_1_4" transform="matrix(8.028398,-4.0138576,0,-8.027916,22.666283,101.82803)"/>
<g clip-path="url(#clip_2)">
<path transform="matrix(.799928,-.39993,0,-.79988,7.2400057,215.37665)" stroke-width=".3985" stroke-linecap="butt" stroke-miterlimit="10" stroke-linejoin="miter" fill="none" stroke="#000000" d="M196.11434 112.7781"/>
<use data-text="T" xlink:href="#font_1_17" transform="matrix(8.028398,-4.0138576,0,-8.027916,156.64336,52.804109)"/>
<use data-text="(" xlink:href="#font_1_1" transform="matrix(8.028398,-4.0138576,0,-8.027916,161.629,50.3115)"/>
<use data-text="S" xlink:href="#font_1_16" transform="matrix(8.028398,-4.0138576,0,-8.027916,164.43894,48.906648)"/>
<use data-text=")" xlink:href="#font_1_2" transform="matrix(8.028398,-4.0138576,0,-8.027916,168.78229,46.735155)"/>
<path transform="matrix(.799928,-.39993,0,-.79988,7.2400057,215.37665)" stroke-width=".79701" stroke-linecap="butt" stroke-miterlimit="10" stroke-linejoin="miter" fill="none" stroke="#ff0000" d="M0 0C0 0 1.53331 1.48717 2.12222 2.05981 2.71114 2.63246 3.65555 3.55333 4.24446 4.12726 4.83337 4.70117 5.77777 5.62117 6.36668 6.19624 6.9556 6.77132 7.90002 7.69603 8.48892 8.27206 9.07784 8.84808 10.02226 9.77155 10.61118 10.3479 11.20007 10.92426 12.14449 11.85074 12.7334 12.42603 13.32231 13.00131 14.26672 13.91968 14.85564 14.49423 15.44455 15.06877 16.38898 15.99046 16.97787 16.56703 17.56679 17.1436 18.5112 18.07338 19.10011 18.64972 19.68901 19.22606 20.63344 20.14632 21.22235 20.72098 21.81126 21.29562 22.75568 22.2164 23.34459 22.79149 23.9335 23.36656 24.87791 24.2925 25.46681 24.86578 26.05573 25.43906 27.00015 26.35236 27.58907 26.92332 28.17796 27.49428 29.12239 28.41171 29.7113 28.98087 30.30022 29.55 31.24461 30.45755 31.83353 31.02544 32.42244 31.59332 33.36687 32.50807 33.95576 33.07384 34.54468 33.63962 35.4891 34.54077 36.07802 35.10315 36.66692 35.66554 37.61133 36.56754 38.20024 37.12717 38.78915 37.6868 39.73357 38.58011 40.32248 39.13666 40.91139 39.69322 41.8558 40.58441 42.4447 41.13855 43.03362 41.69269 43.97804 42.57979 44.56696 43.13054 45.15585 43.68129 46.10028 44.56163 46.6892 45.10803 47.2781 45.65443 48.2225 46.52551 48.81142 47.06876 49.40033 47.612 50.34474 48.48427 50.93365 49.02338 51.52257 49.56248 52.467 50.42053 53.0559 50.95436 53.6448 51.48819 54.58922 52.34076 55.17813 52.87088 55.76703 53.401 56.71146 54.24928 57.30037 54.77518 57.88928 55.30109 58.8337 56.14252 59.4226 56.6612 60.01152 57.17989 60.95593 57.9994 61.54483 58.51366 62.13374 59.02791 63.07817 59.85635 63.66708 60.36766 64.25598 60.87897 65.20041 61.69458 65.78932 62.19878 66.37823 62.70299 67.32263 63.50204 67.91154 64.00171 68.50046 64.50136 69.44489 65.30515 70.03378 65.80005 70.6227 66.29495 71.56712 67.08086 72.15604 67.56866 72.74493 68.05649 73.68935 68.83437 74.27826 69.31593 74.86717 69.7975 75.81158 70.56508 76.4005 71.03957 76.98941 71.51405 77.93384 72.26657 78.52274 72.73576 79.11165 73.20496 80.05606 73.95535 80.64497 74.42128 81.23387 74.8872 82.1783 75.63649 82.76721 76.09384 83.35612 76.5512 84.30052 77.26714 84.88943 77.71762 85.47835 78.16809 86.42278 78.89522 87.01167 79.34062 87.60059 79.78603 88.54501 80.49013 89.13393 80.9278 89.72282 81.36548 90.66724 82.06361 91.25615 82.49515 91.84506 82.9267 92.78947 83.61336 93.37839 84.03813 93.9673 84.4629 94.91171 85.13678 95.50063 85.5567 96.08954 85.97661 97.03395 86.65228 97.62286 87.06458 98.21176 87.47687 99.15619 88.12317 99.7451 88.52827 100.33401 88.93338 101.27843 89.58527 101.86734 89.98433 102.45625 90.3834 103.40065 91.01225 103.98956 91.40454 104.57848 91.79684 105.5229 92.42586 106.1118 92.81183 106.70071 93.19778 107.64514 93.80766 108.23405 94.18631 108.82295 94.56496 109.76736 95.16972 110.35628 95.54097 110.94519 95.91222 111.8896 96.49857 112.47852 96.86209 113.06743 97.22562 114.01186 97.80318 114.60075 98.16112 115.18967 98.51904 116.13408 99.08983 116.72299 99.44183 117.31189 99.79384 118.25632 100.35272 118.84523 100.69817 119.43414 101.04362 120.37854 101.5923 120.96745 101.93161 121.55637 102.27092 122.5008 102.8135 123.08969 103.14372 123.6786 103.47395 124.62303 103.98848 125.21194 104.31161 125.80084 104.63475 126.74525 105.15186 127.33417 105.47266 127.92308 105.79346 128.8675 106.3106 129.4564 106.62378 130.04532 106.93697 130.98975 107.42404 131.57865 107.72992 132.16756 108.0358 133.11197 108.52806 133.70088 108.82845 134.28978 109.12885 135.2342 109.60313 135.82312 109.89496 136.41204 110.18677 137.35645 110.64563 137.94536 110.93173 138.53427 111.21783 139.47869 111.67657 140.06758 111.95706 140.6565 112.23755 141.60092 112.67874 142.18984 112.95343 142.77873 113.22812 143.72316 113.66565 144.31208 113.93684 144.90099 114.20804 145.84539 114.64354 146.4343 114.90807 147.02321 115.17259 147.96762 115.58598 148.55654 115.84343 149.14545 116.10088 150.08988 116.5129 150.67877 116.76358 151.26769 117.01425 152.2121 117.40616 152.80101 117.65018 153.38991 117.89418 154.33434 118.28229 154.92325 118.52228 155.51216 118.76227 156.45658 119.14374 157.04549 119.37991 157.6344 119.61609 158.57881 119.99591 159.16771 120.22458 159.75662 120.45325 160.70105 120.80438 161.28997 121.02808 161.87886 121.25179 162.82328 121.61754 163.41219 121.8369 164.0011 122.05626 164.94551 122.3974 165.53443 122.60915 166.12334 122.82089 167.06777 123.15399 167.65666 123.36308 168.24558 123.57219 169.18999 123.91205 169.7789 124.11629 170.3678 124.32053 171.31223 124.63853 171.90114 124.83516 172.49005 125.03178 173.43447 125.34074 174.02338 125.53346 174.61229 125.72618 175.5567 126.03513 176.1456 126.22414 176.73451 126.41313 177.67894 126.71172 178.26786 126.89575 178.85675 127.07979 179.80118 127.371 180.39009 127.5506 180.979 127.7302 181.9234 128.01514 182.51232 128.19019 183.10123 128.36524 184.04566 128.64157 184.63455 128.81227 185.22347 128.98297 186.1679 129.2538 186.7568 129.4206 187.3457 129.58739 188.29012 129.8522 188.87903 130.01445 189.46794 130.17671 190.41236 130.4322 191.00127 130.59001 191.59018 130.74784 192.53459 130.99799 193.1235 131.15187 193.71242 131.30576 194.65683 131.54904 195.24575 131.69922 195.83464 131.8494 196.77907 132.0881 197.36798 132.23438 197.9569 132.38065 198.90129 132.61116 199.4902 132.75354 200.07912 132.8959 201.02353 133.1217 201.61244 133.26047 202.20136 133.39923 203.14579 133.61864 203.73468 133.75371 204.3236 133.88878 205.268 134.10262 205.85692 134.23398 206.44582 134.36534 207.39025 134.57213 207.97916 134.70053 208.56807 134.82892 210.1014 135.15944 210.1014 135.15944"/>
</g>
<use data-text="G" xlink:href="#font_1_14" transform="matrix(0,-8.027916,-8.028398,4.0138576,7.0808107,202.35346)"/>
<use data-text="r" xlink:href="#font_1_27" transform="matrix(0,-8.027916,-8.028398,4.0138576,7.0808107,196.5011)"/>
<use data-text="e" xlink:href="#font_1_20" transform="matrix(0,-8.027916,-8.028398,4.0138576,7.0808107,193.53879)"/>
<use data-text="e" xlink:href="#font_1_20" transform="matrix(0,-8.027916,-8.028398,4.0138576,7.0808107,189.41245)"/>
<use data-text="n" xlink:href="#font_1_24" transform="matrix(0,-8.027916,-8.028398,4.0138576,7.0808107,185.2861)"/>
<use data-text="h" xlink:href="#font_1_21" transform="matrix(0,-8.027916,-8.028398,4.0138576,7.0808107,180.31684)"/>
<use data-text="o" xlink:href="#font_1_25" transform="matrix(0,-8.027916,-8.028398,4.0138576,7.0808107,175.44388)"/>
<use data-text="u" xlink:href="#font_1_30" transform="matrix(0,-8.027916,-8.028398,4.0138576,7.0808107,170.81179)"/>
<use data-text="s" xlink:href="#font_1_28" transform="matrix(0,-8.027916,-8.028398,4.0138576,7.0808107,165.94686)"/>
<use data-text="e" xlink:href="#font_1_20" transform="matrix(0,-8.027916,-8.028398,4.0138576,7.0808107,162.44669)"/>
<use data-text="T" xlink:href="#font_1_17" transform="matrix(0,-8.027916,-8.028398,4.0138576,7.0808107,156.52208)"/>
<use data-text="e" xlink:href="#font_1_20" transform="matrix(0,-8.027916,-8.028398,4.0138576,7.0808107,152.33152)"/>
<use data-text="m" xlink:href="#font_1_23" transform="matrix(0,-8.027916,-8.028398,4.0138576,7.0808107,148.20517)"/>
<use data-text="p" xlink:href="#font_1_26" transform="matrix(0,-8.027916,-8.028398,4.0138576,7.0808107,140.79541)"/>
<use data-text="e" xlink:href="#font_1_20" transform="matrix(0,-8.027916,-8.028398,4.0138576,7.0808107,135.91443)"/>
<use data-text="r" xlink:href="#font_1_27" transform="matrix(0,-8.027916,-8.028398,4.0138576,7.0808107,131.78809)"/>
<use data-text="a" xlink:href="#font_1_18" transform="matrix(0,-8.027916,-8.028398,4.0138576,7.0808107,128.7455)"/>
<use data-text="t" xlink:href="#font_1_29" transform="matrix(0,-8.027916,-8.028398,4.0138576,7.0808107,124.546909)"/>
<use data-text="u" xlink:href="#font_1_30" transform="matrix(0,-8.027916,-8.028398,4.0138576,7.0808107,121.793338)"/>
<use data-text="r" xlink:href="#font_1_27" transform="matrix(0,-8.027916,-8.028398,4.0138576,7.0808107,116.928409)"/>
<use data-text="e" xlink:href="#font_1_20" transform="matrix(0,-8.027916,-8.028398,4.0138576,7.0808107,113.95807)"/>
<use data-text="(" xlink:href="#font_1_1" transform="matrix(0,-8.027916,-8.028398,4.0138576,7.0808107,108.02545)"/>
<use data-text="&#x25e6;" xlink:href="#font_3_1" transform="matrix(0,-6.0850875,-6.0854527,3.0424677,3.9131013,106.79974)"/>
<use data-text="F" xlink:href="#font_1_13" transform="matrix(0,-8.027916,-8.028398,4.0138576,7.0808107,101.77493)"/>
<use data-text=")" xlink:href="#font_1_2" transform="matrix(0,-8.027916,-8.028398,4.0138576,7.0808107,97.118747)"/>
<use data-text="G" xlink:href="#font_1_14" transform="matrix(8.028398,-4.0138576,0,-8.027916,40.812189,72.07497)"/>
<use data-text="r" xlink:href="#font_1_27" transform="matrix(8.028398,-4.0138576,0,-8.027916,46.664888,69.148868)"/>
<use data-text="e" xlink:href="#font_1_20" transform="matrix(8.028398,-4.0138576,0,-8.027916,49.627367,67.667758)"/>
<use data-text="e" xlink:href="#font_1_20" transform="matrix(8.028398,-4.0138576,0,-8.027916,53.75396,65.60463)"/>
<use data-text="n" xlink:href="#font_1_24" transform="matrix(8.028398,-4.0138576,0,-8.027916,57.880556,63.541505)"/>
<use data-text="h" xlink:href="#font_1_21" transform="matrix(8.028398,-4.0138576,0,-8.027916,62.85012,61.05693)"/>
<use data-text="o" xlink:href="#font_1_25" transform="matrix(8.028398,-4.0138576,0,-8.027916,67.72337,58.62052)"/>
<use data-text="u" xlink:href="#font_1_30" transform="matrix(8.028398,-4.0138576,0,-8.027916,72.35574,56.304529)"/>
<use data-text="s" xlink:href="#font_1_28" transform="matrix(8.028398,-4.0138576,0,-8.027916,77.22096,53.872125)"/>
<use data-text="e" xlink:href="#font_1_20" transform="matrix(8.028398,-4.0138576,0,-8.027916,80.721347,52.122087)"/>
<use data-text="v" xlink:href="#font_1_31" transform="matrix(8.028398,-4.0138576,0,-8.027916,86.6463,49.15986)"/>
<use data-text="s" xlink:href="#font_1_28" transform="matrix(8.028398,-4.0138576,0,-8.027916,90.70064,47.13286)"/>
<use data-text="." xlink:href="#font_1_3" transform="matrix(8.028398,-4.0138576,0,-8.027916,94.04849,45.459077)"/>
<use data-text="O" xlink:href="#font_1_15" transform="matrix(8.028398,-4.0138576,0,-8.027916,98.41594,43.275537)"/>
<use data-text="u" xlink:href="#font_1_30" transform="matrix(8.028398,-4.0138576,0,-8.027916,104.48541,40.24106)"/>
<use data-text="t" xlink:href="#font_1_29" transform="matrix(8.028398,-4.0138576,0,-8.027916,109.35063,37.808656)"/>
<use data-text="s" xlink:href="#font_1_28" transform="matrix(8.028398,-4.0138576,0,-8.027916,112.1124,36.427896)"/>
<use data-text="i" xlink:href="#font_1_22" transform="matrix(8.028398,-4.0138576,0,-8.027916,115.61278,34.677858)"/>
<use data-text="d" xlink:href="#font_1_19" transform="matrix(8.028398,-4.0138576,0,-8.027916,117.949039,33.50982)"/>
<use data-text="e" xlink:href="#font_1_20" transform="matrix(8.028398,-4.0138576,0,-8.027916,122.750019,31.109536)"/>
<use data-text="T" xlink:href="#font_1_17" transform="matrix(8.028398,-4.0138576,0,-8.027916,128.67498,28.147309)"/>
<use data-text="e" xlink:href="#font_1_20" transform="matrix(8.028398,-4.0138576,0,-8.027916,132.8658,26.05207)"/>
<use data-text="m" xlink:href="#font_1_23" transform="matrix(8.028398,-4.0138576,0,-8.027916,136.99239,23.988953)"/>
<use data-text="p" xlink:href="#font_1_26" transform="matrix(8.028398,-4.0138576,0,-8.027916,144.4026,20.284165)"/>
<use data-text="e" xlink:href="#font_1_20" transform="matrix(8.028398,-4.0138576,0,-8.027916,149.27585,17.847748)"/>
<use data-text="r" xlink:href="#font_1_27" transform="matrix(8.028398,-4.0138576,0,-8.027916,153.40245,15.784622)"/>
<use data-text="a" xlink:href="#font_1_18" transform="matrix(8.028398,-4.0138576,0,-8.027916,156.45325,14.259354)"/>
<use data-text="t" xlink:href="#font_1_29" transform="matrix(8.028398,-4.0138576,0,-8.027916,160.65209,12.16011)"/>
<use data-text="u" xlink:href="#font_1_30" transform="matrix(8.028398,-4.0138576,0,-8.027916,163.40583,10.783356)"/>
<use data-text="r" xlink:href="#font_1_27" transform="matrix(8.028398,-4.0138576,0,-8.027916,168.27103,8.35096)"/>
<use data-text="e" xlink:href="#font_1_20" transform="matrix(8.028398,-4.0138576,0,-8.027916,171.24155,6.8658297)"/>
<path transform="matrix(.799928,.39993,.799928,-.39995,29.65078,187.13657)" stroke-width=".3985" stroke-linecap="butt" stroke-miterlimit="10" stroke-linejoin="miter" fill="none" stroke="#cbcbcb" d="M0 0V196.11434M22.74216 0V196.11434M45.48431 0V196.11434M68.22647 0V196.11434M90.96863 0V196.11434M113.71078 0V196.11434M136.45296 0V196.11434M159.19512 0V196.11434M181.93727 0V196.11434"/>
<path transform="matrix(.799928,.39993,.799928,-.39995,29.65078,187.13657)" stroke-width=".3985" stroke-linecap="butt" stroke-dasharray=".3985,1.99255" stroke-miterlimit="10" stroke-linejoin="miter" fill="none" stroke="#cbcbcb" d="M0 0H181.93727M0 28.01633H181.93727M0 56.03265H181.93727M0 84.049H181.93727M0 112.06532H181.93727M0 140.08167H181.93727M0 168.09799H181.93727"/>
<path transform="matrix(.799928,.39993,.799928,-.39995,29.65078,187.13657)" stroke-width=".3985" stroke-linecap="butt" stroke-miterlimit="10" stroke-linejoin="miter" fill="none" stroke="#cbcbcb" d="M0 14.00816H181.93727M0 42.02449H181.93727M0 70.04083H181.93727M0 98.05716H181.93727M0 126.0735H181.93727M0 154.08983H181.93727M0 182.10617H181.93727"/>
<path transform="matrix(.799928,.39993,.799928,-.39995,29.65078,187.13657)" stroke-width=".19925" stroke-linecap="butt" stroke-miterlimit="10" stroke-linejoin="miter" fill="none" stroke="#929292" d="M0 0V4.25273M22.74216 0V4.25273M45.48431 0V4.25273M68.22647 0V4.25273M90.96863 0V4.25273M113.71078 0V4.25273M136.45296 0V4.25273M159.19512 0V4.25273M181.93727 0V4.25273M0 196.11434V191.86157M22.74216 196.11434V191.86157M45.48431 196.11434V191.86157M68.22647 196.11434V191.86157M90.96863 196.11434V191.86157M113.71078 196.11434V191.86157M136.45296 196.11434V191.86157M159.19512 196.11434V191.86157M181.93727 196.11434V191.86157"/>
<path transform="matrix(.799928,.39993,.799928,-.39995,29.65078,187.13657)" stroke-width=".19925" stroke-linecap="butt" stroke-miterlimit="10" stroke-linejoin="miter" fill="none" stroke="#929292" d="M0 0H2.83485M0 28.01633H2.83485M0 56.03265H2.83485M0 84.049H2.83485M0 112.06532H2.83485M0 140.08167H2.83485M0 168.09799H2.83485M181.93727 0H179.10239M181.93727 28.01633H179.10239M181.93727 56.03265H179.10239M181.93727 84.049H179.10239M181.93727 112.06532H179.10239M181.93727 140.08167H179.10239M181.93727 168.09799H179.10239"/>
<path transform="matrix(.799928,.39993,.799928,-.39995,29.65078,187.13657)" stroke-width=".19925" stroke-linecap="butt" stroke-miterlimit="10" stroke-linejoin="miter" fill="none" stroke="#929292" d="M0 14.00816H4.25186M0 42.02449H4.25186M0 70.04083H4.25186M0 98.05716H4.25186M0 126.0735H4.25186M0 154.08983H4.25186M0 182.10617H4.25186M181.93727 14.00816H177.68538M181.93727 42.02449H177.68538M181.93727 70.04083H177.68538M181.93727 98.05716H177.68538M181.93727 126.0735H177.68538M181.93727 154.08983H177.68538M181.93727 182.10617H177.68538"/>
<path transform="matrix(.799928,.39993,.799928,-.39995,29.65078,187.13657)" stroke-width=".3985" stroke-linecap="butt" stroke-miterlimit="10" stroke-linejoin="miter" fill="none" stroke="#000000" d="M0 0V196.11434H181.93727V0H0Z"/>
<use data-text="7" xlink:href="#font_1_10" transform="matrix(8.028398,4.0138576,8.028398,-4.014058,13.624222,187.21796)"/>
<use data-text="a" xlink:href="#font_1_18" transform="matrix(8.028398,4.0138576,8.028398,-4.014058,17.879265,189.3453)"/>
<use data-text="m" xlink:href="#font_1_23" transform="matrix(8.028398,4.0138576,8.028398,-4.014058,22.078125,191.44455)"/>
<use data-text="9" xlink:href="#font_1_12" transform="matrix(8.028398,4.0138576,8.028398,-4.014058,50.00815,205.40837)"/>
<use data-text="a" xlink:href="#font_1_18" transform="matrix(8.028398,4.0138576,8.028398,-4.014058,54.26319,207.5357)"/>
<use data-text="m" xlink:href="#font_1_23" transform="matrix(8.028398,4.0138576,8.028398,-4.014058,58.46205,209.63495)"/>
<use data-text="1" xlink:href="#font_1_5" transform="matrix(8.028398,4.0138576,8.028398,-4.014058,84.262668,222.53418)"/>
<use data-text="1" xlink:href="#font_1_5" transform="matrix(8.028398,4.0138576,8.028398,-4.014058,88.51771,224.66152)"/>
<use data-text="a" xlink:href="#font_1_18" transform="matrix(8.028398,4.0138576,8.028398,-4.014058,92.772769,226.78887)"/>
<use data-text="m" xlink:href="#font_1_23" transform="matrix(8.028398,4.0138576,8.028398,-4.014058,96.97162,228.8881)"/>
<use data-text="1" xlink:href="#font_1_5" transform="matrix(8.028398,4.0138576,8.028398,-4.014058,122.43603,241.61923)"/>
<use data-text="p" xlink:href="#font_1_26" transform="matrix(8.028398,4.0138576,8.028398,-4.014058,126.69107,243.74658)"/>
<use data-text="m" xlink:href="#font_1_23" transform="matrix(8.028398,4.0138576,8.028398,-4.014058,131.57233,246.18701)"/>
<use data-text="3" xlink:href="#font_1_7" transform="matrix(8.028398,4.0138576,8.028398,-4.014058,158.81995,259.80967)"/>
<use data-text="p" xlink:href="#font_1_26" transform="matrix(8.028398,4.0138576,8.028398,-4.014058,163.07498,261.937)"/>
<use data-text="m" xlink:href="#font_1_23" transform="matrix(8.028398,4.0138576,8.028398,-4.014058,167.95626,264.37745)"/>
<use data-text="6" xlink:href="#font_1_9" transform="matrix(8.028398,4.0138576,8.028398,-4.014058,26.954224,177.24968)"/>
<use data-text="4" xlink:href="#font_1_8" transform="matrix(8.028398,4.0138576,8.028398,-4.014058,31.209267,179.37703)"/>
<use data-text="6" xlink:href="#font_1_9" transform="matrix(8.028398,4.0138576,8.028398,-4.014058,49.365808,166.04428)"/>
<use data-text="6" xlink:href="#font_1_9" transform="matrix(8.028398,4.0138576,8.028398,-4.014058,53.62085,168.17163)"/>
<use data-text="6" xlink:href="#font_1_9" transform="matrix(8.028398,4.0138576,8.028398,-4.014058,71.77659,154.8393)"/>
<use data-text="8" xlink:href="#font_1_11" transform="matrix(8.028398,4.0138576,8.028398,-4.014058,76.03163,156.96663)"/>
<use data-text="7" xlink:href="#font_1_10" transform="matrix(8.028398,4.0138576,8.028398,-4.014058,94.18737,143.63428)"/>
<use data-text="0" xlink:href="#font_1_4" transform="matrix(8.028398,4.0138576,8.028398,-4.014058,98.44241,145.76163)"/>
<use data-text="7" xlink:href="#font_1_10" transform="matrix(8.028398,4.0138576,8.028398,-4.014058,116.59895,132.4289)"/>
<use data-text="2" xlink:href="#font_1_6" transform="matrix(8.028398,4.0138576,8.028398,-4.014058,120.854,134.55623)"/>
<use data-text="7" xlink:href="#font_1_10" transform="matrix(8.028398,4.0138576,8.028398,-4.014058,139.00974,121.223888)"/>
<use data-text="4" xlink:href="#font_1_8" transform="matrix(8.028398,4.0138576,8.028398,-4.014058,143.26477,123.35123)"/>
<use data-text="7" xlink:href="#font_1_10" transform="matrix(8.028398,4.0138576,8.028398,-4.014058,161.4205,110.01889)"/>
<use data-text="6" xlink:href="#font_1_9" transform="matrix(8.028398,4.0138576,8.028398,-4.014058,165.67554,112.14623)"/>
<g clip-path="url(#clip_4)">
<path transform="matrix(.799928,.39993,.799928,-.39995,29.65078,187.13657)" stroke-width=".3985" stroke-linecap="butt" stroke-miterlimit="10" stroke-linejoin="miter" fill="none" stroke="#000000" d="M136.45296 140.08167"/>
<use data-text="S" xlink:href="#font_1_16" transform="matrix(8.028398,4.0138576,8.028398,-4.014058,242.16446,183.66803)"/>
<use data-text="(" xlink:href="#font_1_1" transform="matrix(8.028398,4.0138576,8.028398,-4.014058,246.50782,185.83953)"/>
<use data-text="t" xlink:href="#font_1_29" transform="matrix(8.028398,4.0138576,8.028398,-4.014058,249.31775,187.24439)"/>
<use data-text=")" xlink:href="#font_1_2" transform="matrix(8.028398,4.0138576,8.028398,-4.014058,252.07952,188.62516)"/>
<path transform="matrix(.799928,.39993,.799928,-.39995,29.65078,187.13657)" stroke-width=".79701" stroke-linecap="butt" stroke-miterlimit="10" stroke-linejoin="miter" fill="none" stroke="#0000ff" d="M0 70.02682C0 70.02682 1.32776 72.83226 1.8377 73.90707 2.34767 74.98189 3.16548 76.69852 3.67543 77.77333 4.18538 78.84814 5.0032 80.58267 5.51315 81.6536 6.0231 82.7245 6.84093 84.42868 7.35088 85.49184 7.86082 86.55498 8.67865 88.25679 9.1886 89.31606 9.69855 90.37532 10.51637 92.07478 11.02632 93.12628 11.53627 94.17776 12.3541 95.85658 12.86404 96.89447 13.374 97.93236 14.19182 99.58044 14.70177 100.60666 15.21172 101.63286 16.02954 103.27623 16.53949 104.29077 17.04944 105.30533 17.86728 106.91989 18.37723 107.9189 18.88718 108.91791 19.705 110.50946 20.21495 111.49098 20.7249 112.4725 21.54271 114.02899 22.05267 114.99301 22.56262 115.95703 23.38043 117.4964 23.89038 118.43904 24.40034 119.3817 25.21815 120.8638 25.7281 121.78699 26.23805 122.71019 27.05588 124.18721 27.56583 125.09293 28.07578 125.99864 28.89362 127.4363 29.40356 128.3148 29.91351 129.19332 30.73134 130.57138 31.24129 131.42462 31.75124 132.27787 32.56906 133.63643 33.07901 134.4644 33.58896 135.29236 34.40678 136.59133 34.91673 137.39209 35.42668 138.19284 36.2445 139.4622 36.75446 140.23575 37.2644 141.00931 38.08223 142.22293 38.59218 142.96733 39.10213 143.71173 39.91995 144.88564 40.4299 145.60088 40.93985 146.31612 41.75768 147.44016 42.26762 148.12236 42.77757 148.80455 43.59538 149.86858 44.10535 150.51773 44.6153 151.16689 45.4331 152.18495 45.94305 152.80107 46.45302 153.41719 47.27084 154.37914 47.78079 154.95832 48.29076 155.5375 49.10857 156.42935 49.61852 156.9755 50.12846 157.52165 50.94629 158.38539 51.45624 158.8946 51.96619 159.40384 52.78401 160.17334 53.29396 160.64563 53.80391 161.11794 54.62173 161.86132 55.13168 162.29862 55.64163 162.73592 56.45946 163.401 56.9694 163.79749 57.47935 164.19396 58.29718 164.79865 58.80713 165.15627 59.31708 165.51387 60.1349 166.0582 60.64485 166.37499 61.1548 166.69179 61.97264 167.16168 62.48259 167.4396 62.99254 167.71752 63.81036 168.13716 64.32031 168.37816 64.83026 168.61916 65.64809 168.98032 66.15804 169.17662 66.66798 169.37293 67.4858 169.63556 67.99576 169.79299 68.5057 169.95043 69.32352 170.19272 69.83347 170.31128 70.34343 170.42984 71.16124 170.57364 71.67119 170.64749 72.18114 170.72135 72.99896 170.81056 73.50891 170.8436 74.01886 170.87664 74.83669 170.8934 75.34663 170.88564 75.85658 170.87786 76.67442 170.83809 77.18437 170.78757 77.69432 170.73703 78.51215 170.61467 79.0221 170.5214 79.53204 170.42812 80.34987 170.24732 80.85982 170.11516 81.36977 169.98302 82.18759 169.74376 82.69754 169.56885 83.20749 169.39394 84.02531 169.0682 84.53526 168.85442 85.04521 168.64063 85.86304 168.28061 86.37299 168.02794 86.88293 167.77529 87.70076 167.32685 88.21071 167.03337 88.72066 166.7399 89.53848 166.24701 90.04845 165.91272 90.5584 165.57842 91.3762 164.99907 91.88615 164.62397 92.39612 164.24886 93.21393 163.62117 93.72388 163.20914 94.23384 162.7971 95.05165 162.1032 95.5616 161.65422 96.07155 161.20526 96.88937 160.46303 97.39932 159.97325 97.90927 159.48348 98.7271 158.64894 99.23705 158.12418 99.747 157.59941 100.56482 156.7508 101.07477 156.19104 101.58472 155.6313 102.40254 154.68651 102.91249 154.08983 103.42244 153.49315 104.24028 152.52025 104.75023 151.89054 105.26018 151.2608 106.078 150.21393 106.58795 149.55118 107.0979 148.88842 107.91573 147.80568 108.42567 147.11377 108.93562 146.42185 109.75345 145.28922 110.2634 144.56427 110.77335 143.83933 111.59117 142.64672 112.10112 141.8887 112.61107 141.1307 113.42888 139.88825 113.93884 139.10109 114.44879 138.31394 115.2666 137.02783 115.77655 136.21541 116.28651 135.40299 117.10432 134.0853 117.61427 133.24567 118.12422 132.40604 118.94205 131.02878 119.452 130.16388 119.96194 129.29898 120.77979 127.89832 121.28973 127.01204 121.79968 126.12576 122.61751 124.68768 123.12746 123.77614 123.6374 122.86461 124.45523 121.37706 124.96518 120.4422 125.47513 119.50734 126.29295 117.99059 126.8029 117.03822 127.31285 116.08588 128.13068 114.55 128.64063 113.5782 129.15058 112.6064 129.9684 111.02344 130.47835 110.03415 130.9883 109.04486 131.80612 107.45094 132.31607 106.44806 132.82602 105.44518 133.64385 103.82437 134.1538 102.80592 134.66374 101.78749 135.48155 100.13982 135.99152 99.10777 136.50147 98.07573 137.31929 96.41129 137.82924 95.36758 138.3392 94.32387 139.15702 92.63689 139.66696 91.58539 140.17693 90.5339 140.99474 88.84842 141.50469 87.78917 142.01464 86.7299 142.83246 85.0199 143.3424 83.95093 143.85236 82.88196 144.67018 81.15753 145.18013 80.08467 145.69008 79.01181 146.5079 77.29129 147.01786 76.21843 147.5278 75.14555 148.34563 73.42891 148.85558 72.35216 149.36553 71.27539 150.18335 69.53464 150.6933 68.45789 151.20325 67.38115 152.02109 65.66841 152.53104 64.59164 153.04099 63.5149 153.85881 61.77023 154.36876 60.69737 154.87871 59.62451 155.69654 57.92616 156.20648 56.85913 156.71643 55.7921 157.53424 54.07004 158.0442 53.00688 158.55416 51.94374 159.37197 50.25009 159.88193 49.19667 160.39188 48.14325 161.20969 46.45816 161.71964 45.41446 162.2296 44.37076 163.04741 42.70828 163.55736 41.67429 164.0673 40.64029 164.88515 38.98447 165.3951 37.96213 165.90505 36.9398 166.72287 35.31277 167.23282 34.306 167.74277 33.29921 168.5606 31.69711 169.07054 30.70589 169.58049 29.71466 170.39832 28.1375 170.90827 27.16182 171.41822 26.18614 172.23604 24.63197 172.74599 23.67378 173.25594 22.71558 174.07376 21.19261 174.58371 20.25581 175.09366 19.319 175.91149 17.83728 176.42144 16.92184 176.93138 16.00641 177.7492 14.55006 178.25916 13.65796 178.7691 12.76584 179.58695 11.36089 180.0969 10.49211 180.60684 9.62334 181.93462 7.3963 181.93462 7.3963"/>
</g>
<use data-text="T" xlink:href="#font_1_17" transform="matrix(8.028398,4.0138576,8.028398,-4.014058,57.75705,222.34455)"/>
<use data-text="i" xlink:href="#font_1_22" transform="matrix(8.028398,4.0138576,8.028398,-4.014058,62.46972,224.70067)"/>
<use data-text="m" xlink:href="#font_1_23" transform="matrix(8.028398,4.0138576,8.028398,-4.014058,64.805988,225.8687)"/>
<use data-text="e" xlink:href="#font_1_20" transform="matrix(8.028398,4.0138576,8.028398,-4.014058,72.2162,229.5735)"/>
<use data-text="(" xlink:href="#font_1_1" transform="matrix(8.028398,4.0138576,8.028398,-4.014058,78.149188,232.53974)"/>
<use data-text="h" xlink:href="#font_1_21" transform="matrix(8.028398,4.0138576,8.028398,-4.014058,80.95912,233.94458)"/>
<use data-text="o" xlink:href="#font_1_25" transform="matrix(8.028398,4.0138576,8.028398,-4.014058,85.83237,236.381)"/>
<use data-text="u" xlink:href="#font_1_30" transform="matrix(8.028398,4.0138576,8.028398,-4.014058,90.46475,238.69699)"/>
<use data-text="r" xlink:href="#font_1_27" transform="matrix(8.028398,4.0138576,8.028398,-4.014058,95.329959,241.1294)"/>
<use data-text="s" xlink:href="#font_1_28" transform="matrix(8.028398,4.0138576,8.028398,-4.014058,98.453,242.69078)"/>
<use data-text=")" xlink:href="#font_1_2" transform="matrix(8.028398,4.0138576,8.028398,-4.014058,101.953388,244.44083)"/>
<use data-text="T" xlink:href="#font_1_17" transform="matrix(8.028398,-4.014058,-8.028398,-4.0138576,73.01648,147.14362)"/>
<use data-text="e" xlink:href="#font_1_20" transform="matrix(8.028398,-4.014058,-8.028398,-4.0138576,77.199268,145.05229)"/>
<use data-text="m" xlink:href="#font_1_23" transform="matrix(8.028398,-4.014058,-8.028398,-4.0138576,81.32587,142.98908)"/>
<use data-text="p" xlink:href="#font_1_26" transform="matrix(8.028398,-4.014058,-8.028398,-4.0138576,88.73605,139.28409)"/>
<use data-text="e" xlink:href="#font_1_20" transform="matrix(8.028398,-4.014058,-8.028398,-4.0138576,93.61734,136.84355)"/>
<use data-text="r" xlink:href="#font_1_27" transform="matrix(8.028398,-4.014058,-8.028398,-4.0138576,97.74393,134.78034)"/>
<use data-text="a" xlink:href="#font_1_18" transform="matrix(8.028398,-4.014058,-8.028398,-4.0138576,100.78671,133.259)"/>
<use data-text="t" xlink:href="#font_1_29" transform="matrix(8.028398,-4.014058,-8.028398,-4.0138576,104.985569,131.15964)"/>
<use data-text="u" xlink:href="#font_1_30" transform="matrix(8.028398,-4.014058,-8.028398,-4.0138576,107.73929,129.78282)"/>
<use data-text="r" xlink:href="#font_1_27" transform="matrix(8.028398,-4.014058,-8.028398,-4.0138576,112.60449,127.3503)"/>
<use data-text="e" xlink:href="#font_1_20" transform="matrix(8.028398,-4.014058,-8.028398,-4.0138576,115.58304,125.861087)"/>
<use data-text="O" xlink:href="#font_1_15" transform="matrix(8.028398,-4.014058,-8.028398,-4.0138576,121.507968,122.89871)"/>
<use data-text="u" xlink:href="#font_1_30" transform="matrix(8.028398,-4.014058,-8.028398,-4.0138576,127.57745,119.86408)"/>
<use data-text="t" xlink:href="#font_1_29" transform="matrix(8.028398,-4.014058,-8.028398,-4.0138576,132.44266,117.43156)"/>
<use data-text="s" xlink:href="#font_1_28" transform="matrix(8.028398,-4.014058,-8.028398,-4.0138576,135.20444,116.05073)"/>
<use data-text="i" xlink:href="#font_1_22" transform="matrix(8.028398,-4.014058,-8.028398,-4.0138576,138.7048,114.3006)"/>
<use data-text="d" xlink:href="#font_1_19" transform="matrix(8.028398,-4.014058,-8.028398,-4.0138576,141.04108,113.13251)"/>
<use data-text="e" xlink:href="#font_1_20" transform="matrix(8.028398,-4.014058,-8.028398,-4.0138576,145.84207,110.7321)"/>
<use data-text="(" xlink:href="#font_1_1" transform="matrix(8.028398,-4.014058,-8.028398,-4.0138576,151.767,107.76972)"/>
<use data-text="&#x25e6;" xlink:href="#font_3_1" transform="matrix(6.0854527,-3.0426198,-6.0854527,-3.0424677,151.41501,104.77819)"/>
<use data-text="F" xlink:href="#font_1_13" transform="matrix(8.028398,-4.014058,-8.028398,-4.0138576,158.02402,104.641338)"/>
<use data-text=")" xlink:href="#font_1_2" transform="matrix(8.028398,-4.014058,-8.028398,-4.0138576,162.68051,102.31318)"/>
<use data-text="O" xlink:href="#font_1_15" transform="matrix(8.028398,4.0138576,8.028398,-4.014058,214.04059,113.15816)"/>
<use data-text="u" xlink:href="#font_1_30" transform="matrix(8.028398,4.0138576,8.028398,-4.014058,220.11006,116.192638)"/>
<use data-text="t" xlink:href="#font_1_29" transform="matrix(8.028398,4.0138576,8.028398,-4.014058,224.97527,118.62504)"/>
<use data-text="s" xlink:href="#font_1_28" transform="matrix(8.028398,4.0138576,8.028398,-4.014058,227.73703,120.005809)"/>
<use data-text="i" xlink:href="#font_1_22" transform="matrix(8.028398,4.0138576,8.028398,-4.014058,231.23741,121.75584)"/>
<use data-text="d" xlink:href="#font_1_19" transform="matrix(8.028398,4.0138576,8.028398,-4.014058,233.57369,122.92387)"/>
<use data-text="e" xlink:href="#font_1_20" transform="matrix(8.028398,4.0138576,8.028398,-4.014058,238.37467,125.324169)"/>
<use data-text="T" xlink:href="#font_1_17" transform="matrix(8.028398,4.0138576,8.028398,-4.014058,244.29962,128.28638)"/>
<use data-text="e" xlink:href="#font_1_20" transform="matrix(8.028398,4.0138576,8.028398,-4.014058,248.49044,130.38162)"/>
<use data-text="m" xlink:href="#font_1_23" transform="matrix(8.028398,4.0138576,8.028398,-4.014058,252.61704,132.44474)"/>
<use data-text="p" xlink:href="#font_1_26" transform="matrix(8.028398,4.0138576,8.028398,-4.014058,260.02723,136.14954)"/>
<use data-text="e" xlink:href="#font_1_20" transform="matrix(8.028398,4.0138576,8.028398,-4.014058,264.90046,138.58594)"/>
<use data-text="r" xlink:href="#font_1_27" transform="matrix(8.028398,4.0138576,8.028398,-4.014058,269.02708,140.64905)"/>
<use data-text="a" xlink:href="#font_1_18" transform="matrix(8.028398,4.0138576,8.028398,-4.014058,272.07786,142.17432)"/>
<use data-text="t" xlink:href="#font_1_29" transform="matrix(8.028398,4.0138576,8.028398,-4.014058,276.2767,144.27356)"/>
<use data-text="u" xlink:href="#font_1_30" transform="matrix(8.028398,4.0138576,8.028398,-4.014058,279.03047,145.65033)"/>
<use data-text="r" xlink:href="#font_1_27" transform="matrix(8.028398,4.0138576,8.028398,-4.014058,283.89564,148.08274)"/>
<use data-text="e" xlink:href="#font_1_20" transform="matrix(8.028398,4.0138576,8.028398,-4.014058,286.86616,149.56784)"/>
<use data-text="v" xlink:href="#font_1_31" transform="matrix(8.028398,4.0138576,8.028398,-4.014058,292.79115,152.53006)"/>
<use data-text="s" xlink:href="#font_1_28" transform="matrix(8.028398,4.0138576,8.028398,-4.014058,296.84547,154.55707)"/>
<use data-text="." xlink:href="#font_1_3" transform="matrix(8.028398,4.0138576,8.028398,-4.014058,300.1933,156.23084)"/>
<use data-text="T" xlink:href="#font_1_17" transform="matrix(8.028398,4.0138576,8.028398,-4.014058,304.55274,158.41037)"/>
<use data-text="i" xlink:href="#font_1_22" transform="matrix(8.028398,4.0138576,8.028398,-4.014058,309.2734,160.77051)"/>
<use data-text="m" xlink:href="#font_1_23" transform="matrix(8.028398,4.0138576,8.028398,-4.014058,311.60969,161.93857)"/>
<use data-text="e" xlink:href="#font_1_20" transform="matrix(8.028398,4.0138576,8.028398,-4.014058,319.0199,165.64334)"/>
</svg>
