<svg xmlns="http://www.w3.org/2000/svg" xmlns:xlink="http://www.w3.org/1999/xlink" version="1.1" width="201" height="171" viewBox="0 0 201 171">
<defs>
<path id="font_1_3" d="M.6349945 .2529297V.31092835H.084991458V.2529297H.6349945Z"/>
<path id="font_2_4" d="M.2999878 .17871094V.0769043C.2999878 .04296875 .2889862 .036987306 .2649994 .034988405L.20098877 .0289917V0H.46499635V.0289917L.41999818 .033981325C.39698792 .036987306 .3899994 .04296875 .3899994 .0769043V.17871094H.49299623V.22570801H.3899994V.66796877H.31698609C.22299195 .5298767 .11099243 .35577394 .018997193 .19970703L.027999878 .17871094H.2999878M.09098816 .22570801C.15098572 .33476258 .22099304 .4498291 .2979889 .5709076H.2999878V.22570801H.09098816Z"/>
<path id="font_2_2" d="M.4850006 .13195801 .45700074 .13696289C.43598939 .08299255 .41600038 .07598877 .37599183 .07598877H.11999512C.13598633 .1279602 .19499207 .19892884 .28799439 .2658844 .38398744 .33584596 .45799256 .38082887 .45799256 .49276734 .45799256 .63168337 .3659973 .6796875 .26098634 .6796875 .12399292 .6796875 .052993776 .5967102 .052993776 .54473879 .052993776 .51075747 .09098816 .49476625 .10798645 .49476625 .12599182 .49476625 .1329956 .50476077 .13699341 .5217438 .15299988 .5897064 .19198609 .64468386 .2539978 .64468386 .33099366 .64468386 .35299684 .5797119 .35299684 .50675967 .35299684 .3998108 .29899598 .33984376 .21199036 .26289369 .08898926 .15594483 .04598999 .08798218 .026992798 .009994507L.036987306 0H.45098878L.4850006 .13195801Z"/>
<path id="font_2_1" d="M.43699647 0V.0289917L.35299684 .035995485C.33198548 .037994386 .31999208 .04598999 .31999208 .08496094V.67367556L.31498719 .6796875 .10899353 .6446991V.6197052L.20199585 .6087036C.21899414 .6067047 .22599793 .5987091 .22599793 .56973269V.08496094C.22599793 .065979007 .22299195 .053985597 .21699524 .04698181 .21199036 .039993287 .20399475 .036987306 .19299317 .035995485L.10899353 .0289917V0H.43699647Z"/>
<path id="font_2_3" d="M.12998963 .3657837C.12998963 .3487854 .1349945 .33779908 .147995 .33779908 .1599884 .33779908 .18699646 .34777833 .23498535 .34777833 .31999208 .34777833 .36799623 .27090455 .36799623 .18403626 .36799623 .065216068 .30899049 .023269654 .23799134 .023269654 .17199707 .023269654 .1289978 .07319641 .10998535 .12911988 .10398865 .14808655 .09399414 .15707398 .07998657 .15707398 .06199646 .15707398 .026992798 .13809204 .026992798 .10215759 .026992798 .05921936 .09599304-.01171875 .23699951-.01171875 .38198854-.01171875 .47299195 .06121826 .47299195 .18902588 .47299195 .32281495 .35798646 .3627777 .30299378 .3677826V.3717804C.35699464 .38078309 .44400025 .4207611 .44400025 .5197296 .44400025 .6306915 .35699464 .6796875 .25 .6796875 .117996219 .6796875 .052993776 .60369876 .052993776 .5607147 .052993776 .5297241 .08799744 .51272585 .101989749 .51272585 .114990238 .51272585 .12298584 .5197296 .1269989 .5327301 .14898682 .60069277 .18699646 .64468386 .24299622 .64468386 .32199098 .64468386 .34098817 .57470706 .34098817 .51872256 .34098817 .4587555 .31999208 .38378907 .23498535 .38378907 .18699646 .38378907 .1599884 .39378358 .147995 .39378358 .1349945 .39378358 .12998963 .38378907 .12998963 .3657837Z"/>
<clipPath id="clip_3">
<path transform="matrix(1,0,0,-1,4.9970018,162.535)" d="M0 0H194.26425V161.39344H0Z"/>
</clipPath>
<path id="font_2_5" d="M.34298707 .14318848C.34298707 .06225586 .2809906 .041275026 .24198914 .041275026 .17999268 .041275026 .1499939 .085235599 .1499939 .14419556 .1499939 .19116211 .17199707 .21513367 .22799683 .23612976 .2679901 .2511139 .32099916 .27009584 .34298707 .28408814V.14318848M.43299867 .36901856C.43299867 .42697145 .41999818 .5019531 .2689972 .5019531 .1559906 .5019531 .066986087 .44296266 .066986087 .3880005 .066986087 .35603334 .10398865 .3410492 .12298584 .3410492 .14399719 .3410492 .1499939 .35203553 .15499878 .36901856 .1769867 .44296266 .21798706 .46694947 .2579956 .46694947 .29699708 .46694947 .34298707 .44696046 .34298707 .36701966V.32505799C.31799317 .29907228 .22099304 .27409364 .14199829 .24911499 .069992069 .22712708 .04899597 .1771698 .04899597 .13020325 .04899597 .055267335 .09899902-.01171875 .19299317-.01171875 .25498963-.009719849 .30999757 .027267456 .34199525 .04826355 .35598756 .011276245 .37199403-.01171875 .40699769-.01171875 .44400025-.01171875 .4869995-.0007324219 .5249939 .01828003L.5189972 .042266847C.5049896 .039276124 .48298646 .03727722 .46798707 .041275026 .44999696 .045272829 .43299867 .06425476 .43299867 .12721253V.36901856Z"/>
<path id="font_2_6" d="M.36698915 .35102845V.46794129C.33399964 .49194337 .2829895 .5019531 .23799134 .5019531 .12998963 .5019531 .056991579 .45095826 .055999757 .35603334 .056991579 .27308656 .12399292 .2361145 .20698548 .21113587 .2519989 .19714356 .31498719 .17416382 .31498719 .10621643 .31498719 .055252077 .2749939 .023269654 .22200012 .023269654 .14099121 .023269654 .09599304 .082229617 .07598877 .16716004H.04699707L.056991579 .03627014C.09298706 .004272461 .1539917-.01171875 .21299744-.01171875 .33198548-.01171875 .3999939 .051254274 .3999939 .13618469 .3999939 .2241211 .34599305 .26409913 .24299622 .29606629 .20199585 .30906678 .13598633 .3300476 .13598633 .3860016 .13699341 .43795777 .17599488 .46694947 .22599793 .46694947 .29699708 .46694947 .33099366 .4119873 .33799745 .35102845H.36698915Z"/>
<path id="font_4_3" d="M.5069885 .1381836C.48298646 .0932312 .45599366 .040267946 .42799378 .040267946 .40899659 .040267946 .40098573 .06324768 .3789978 .1521759L.34700013 .2830658C.3829956 .34701539 .43399049 .42694093 .46299745 .42694093 .47200013 .42694093 .47999574 .42494203 .4909973 .4189453 .5009918 .4149475 .5109863 .4109497 .522995 .4109497 .54499819 .4109497 .56599429 .4319458 .56599429 .4589386 .56599429 .48994447 .54299929 .5019531 .5149994 .5019531 .46199037 .5019531 .4169922 .45394898 .38198854 .39796449L.33799745 .33003236H.33599855L.29599 .49794007 .2899933 .5019531 .125 .45195008 .12799073 .427948 .20298767 .43295289C.22099304 .4339447 .22799683 .42893983 .23899842 .38298036L.2749939 .2381134 .24699402 .19015503C.20399475 .11723328 .16699219 .0652771 .14299011 .0652771 .1329956 .0652771 .12298584 .0692749 .11399841 .07426453 .10398865 .07926941 .09098816 .089279178 .07398987 .089279178 .04798889 .089279178 .0309906 .0632782 .0309906 .039276124 .0309906 .010269165 .054992677-.01171875 .09498596-.01171875 .16299439-.01171875 .20199585 .056259157 .24299622 .12319946L.2829895 .18914795H.2849884L.30299378 .111206058C.32199098 .031280519 .34098817-.01171875 .3919983-.01171875 .46499635-.01171875 .5029907 .06324768 .5329895 .12420654L.5069885 .1381836Z"/>
<path id="font_1_1" d="M.91799929 .29692079C.8549957 .3169403 .7669983 .3780365 .72698977 .41210938L.70799258 .38505555C.7350006 .36201478 .7589874 .32795716 .7689972 .31092835H.07199097V.2529297H.7689972C.7599945 .23799134 .7350006 .20411682 .70799258 .17922974L.72698977 .15234375C.7669983 .186203 .85598757 .24694824 .91799929 .266922V.29692079Z"/>
<path id="font_1_2" d="M.4909973 .1572113C.5249939 .10424805 .6179962-.01171875 .7609863-.01171875 .94599917-.01171875 1.0009918 .12922669 1.0009918 .24716187 1.0009918 .36608888 .8899994 .4600525 .7789917 .4600525 .6380005 .4600525 .5479889 .33309938 .5319977 .30612184H.5309906C.49198915 .37008668 .4039917 .4580536 .2659912 .4580536 .083999637 .4580536 .015991211 .33010865 .015991211 .21217346 .015991211 .09320068 .13398743-.0107421879 .24499512-.0107421879 .3849945-.0107421879 .47299195 .12918091 .48999024 .15716553L.4909973 .1572113M.55999758 .26213075C.59799197 .33009339 .66999819 .4140625 .7829895 .4140625 .8549957 .4140625 .94299319 .34109498 .94299319 .25112916 .94299319 .150177 .8880005 .057266237 .79100039 .057266237 .6879883 .057266237 .6069946 .17315674 .55999758 .2620697V.26213075M.46398927 .2071228C.42599488 .13917542 .35398866 .03527832 .24099732 .03527832 .16899109 .03527832 .07899475 .11819458 .07899475 .20811463 .07899475 .30802918 .14898682 .38694764 .23298645 .38694764 .33299256 .38694764 .4169922 .28204347 .46398927 .2071228Z"/>
<path id="font_4_2" d="M.43499757 .15118408C.39898683 .10421753 .34498597 .03727722 .269989 .03727722 .19999695 .03727722 .1789856 .097229007 .1789856 .17616272 .1789856 .1811676 .1789856 .1851654 .17999268 .19215393 .34799195 .22613526 .42099 .26609803 .46398927 .30607606 .49899293 .3410492 .5059967 .37402345 .5059967 .4019928 .5059967 .45495606 .46398927 .5019531 .38198854 .5019531 .2919922 .5019531 .21798706 .45596314 .16299439 .3880005 .10998535 .32305909 .07998657 .23612976 .07998657 .15219116 .07998657 .012268066 .17098999-.01171875 .22898865-.01171875 .3019867-.01171875 .3899994 .02027893 .45799256 .13119507L.43499757 .15118408M.18199158 .22613526C.19898987 .3470459 .27398683 .46694947 .35398866 .46694947 .3889923 .46694947 .4119873 .44296266 .4119873 .4079895 .4119873 .3380432 .35099793 .26210023 .18199158 .22613526Z"/>
<path id="font_4_1" d="M.49398805 .3670044C.49398805 .2950592 .43399049 .023269654 .2869873 .023269654 .23599243 .023269654 .20498657 .059249879 .20498657 .10920715 .20498657 .15716553 .22599793 .22612 .2579956 .28407289 .30299378 .36401368 .37799073 .44995118 .43998719 .44995118 .47698976 .44995118 .49398805 .42396546 .49398805 .3670044M.34199525 .7371979 .33699037 .7421875 .1579895 .71824648 .1519928 .6953125 .20899964 .68829348C.23399353 .6852875 .23799134 .67826846 .22898865 .63920596L.08198547 0H.117996219L.14898682 .058242799C.16699219 .016281128 .21798706-.01171875 .2749939-.01171875 .3919983-.01171875 .47698976 .0662384 .526001 .1541748 .57598879 .2421112 .59199526 .33103944 .59199526 .37600709 .59199526 .44995118 .5589905 .5019531 .4850006 .5019531 .40899659 .5019531 .30999757 .43295289 .23298645 .29606629H.23098755L.34199525 .7371979Z"/>
<path id="font_4_4" d="M.070999149 .45393373 .07398987 .42893983 .14199829 .43093873C.1639862 .43193055 .16899109 .41493226 .1769867 .36291505 .18798828 .28489686 .20999146 .09286499 .20999146 .0128479 .20999146-.017166138 .20799256-.058166505 .18598938-.11117554 .16799927-.15318299 .14199829-.18218994 .12199402-.18218994 .10699463-.18218994 .09599304-.17118836 .08099365-.15118408 .068984989-.13517761 .06098938-.127182 .04598999-.127182 .019989014-.12818909-.005004883-.15818787-.005004883-.18719483-.005004883-.21418762 .023986817-.2421875 .067993167-.2421875 .15299988-.2421875 .18998719-.17919922 .27799989-.027160645 .2979889 .0068511965 .35798646 .11286926 .41999818 .21488953 .47698976 .30891419 .5399933 .40592958 .5399933 .4459381 .5399933 .48094178 .5289917 .5019531 .5219879 .5019531 .5029907 .5019531 .46899415 .49394227 .44400025 .47694398 .44499208 .4419403 .44299317 .3809204 .43099977 .33891297 .4149933 .28289796 .35598756 .17488098 .2899933 .06085205H.2869873C.27999879 .21388245 .26098634 .42492677 .24699402 .49795533L.23899842 .5019531 .070999149 .45393373Z"/>
</defs>
<path transform="matrix(1,0,0,-1,4.9970018,162.535)" stroke-width=".19925" stroke-linecap="butt" stroke-miterlimit="10" stroke-linejoin="miter" fill="none" stroke="#929292" d="M2.36906 2.91756V7.16951M49.7506 2.91756V7.16951M144.51364 2.91756V7.16951M191.89517 2.91756V7.16951"/>
<path transform="matrix(1,0,0,-1,4.9970018,162.535)" stroke-width=".19925" stroke-linecap="butt" stroke-miterlimit="10" stroke-linejoin="miter" fill="none" stroke="#929292" d="M95.00624 55.47899H99.25798M95.00624 105.91444H99.25798M95.00624 156.3499H99.25798"/>
<path transform="matrix(1,0,0,-1,4.9970018,162.535)" stroke-width=".3985" stroke-linecap="butt" stroke-miterlimit="10" stroke-linejoin="miter" fill="none" stroke="#000000" d="M0 5.04353H192.27173"/>
<path transform="matrix(1,0,0,-1,197.26874,157.49147)" d="M1.99252 0-1.19551 1.59401 0 0-1.19551-1.59401"/>
<path transform="matrix(1,0,0,-1,4.9970018,162.535)" stroke-width=".3985" stroke-linecap="butt" stroke-miterlimit="10" stroke-linejoin="miter" fill="none" stroke="#000000" d="M97.13213 0V159.40091"/>
<path transform="matrix(0,-1,-1,-0,102.129138,3.1340943)" d="M1.99252 0-1.19551 1.59401 0 0-1.19551-1.59401"/>
<use data-text="&#x2212;" xlink:href="#font_1_3" transform="matrix(10.0364,0,0,-10.0364,1.0930023,169.73601)"/>
<use data-text="4" xlink:href="#font_2_4" transform="matrix(10.0364,0,0,-10.0364,8.315002,169.73601)"/>
<use data-text="&#x2212;" xlink:href="#font_1_3" transform="matrix(10.0364,0,0,-10.0364,48.475004,169.73601)"/>
<use data-text="2" xlink:href="#font_2_2" transform="matrix(10.0364,0,0,-10.0364,55.697004,169.73601)"/>
<use data-text="2" xlink:href="#font_2_2" transform="matrix(10.0364,0,0,-10.0364,146.849,169.73601)"/>
<use data-text="4" xlink:href="#font_2_4" transform="matrix(10.0364,0,0,-10.0364,194.23001,169.73601)"/>
<use data-text="1" xlink:href="#font_2_1" transform="matrix(10.0364,0,0,-10.0364,91.281,110.416)"/>
<use data-text="2" xlink:href="#font_2_2" transform="matrix(10.0364,0,0,-10.0364,91.281,59.981004)"/>
<use data-text="3" xlink:href="#font_2_3" transform="matrix(10.0364,0,0,-10.0364,91.281,9.518005)"/>
<g clip-path="url(#clip_3)">
<path transform="matrix(1,0,0,-1,4.9970018,162.535)" stroke-width="1.19553" stroke-linecap="butt" stroke-miterlimit="10" stroke-linejoin="miter" fill="none" stroke="#ff0000" d="M2.36906 5.96725 4.28343 6.04498 6.19781 6.12926 8.1122 6.22069 10.02657 6.31973 11.94095 6.42715 13.85532 6.54361 15.7697 6.66982 17.68407 6.80672 19.59846 6.9551 21.51283 7.11603 23.42722 7.2904 25.34158 7.47949 27.25597 7.68451 29.17033 7.90677 31.0847 8.14772 32.9991 8.409 34.91348 8.69229 36.82785 8.99942 38.74223 9.33228 40.6566 9.6932 42.57097 10.08453 44.48537 10.50673 46.39973 10.96564 48.31412 11.46495 50.22849 12.00511 52.14287 12.59523 54.05724 13.23122 55.97162 13.9166 57.886 14.66309 59.80038 15.47609 61.71475 16.35318 63.62914 17.30693 65.5435 18.33578 67.45787 19.45645 69.37225 20.67148 71.28665 21.9883 73.20102 23.41112 75.1154 24.95952 77.02977 26.63498 78.94414 28.45111 80.85852 30.42363 82.77289 32.55708 84.68729 34.87814 86.60165 37.38528 88.51604 40.10977 90.4304 43.06029 92.34479 46.25836 94.25916 49.72934 96.17354 53.48831 98.08792 57.5544 100.0023 61.97357 101.91667 66.76492 103.83104 71.95824 105.74542 77.5909 107.65979 83.69662 109.57417 90.31573 111.48857 97.49219 113.40294 105.27237 115.3173 113.70824 117.23169 122.85367 119.14606 132.7653 121.06044 143.51609 122.97482 155.17018 124.8892 167.80429 126.80357 181.50458 128.71796 196.35425 130.63233 212.45632 132.5467 229.91504 134.46108 248.83841 136.37548 269.35505 138.28984 291.6011 140.20423 315.7224 142.11859 341.8681 144.03296 370.21333 145.94734 400.9482 147.86173 434.2734 149.77611 470.39375 151.69048 509.5746 153.60486 552.02609 155.51923 598.0636 157.43361 647.97958 159.34798 702.06149 161.26236 760.7381 163.17675 824.3372 165.09113 893.2976 167.0055 968.0379 168.91988 1049.0775 170.83425 1136.9663 172.74863 1232.2239 174.663 1335.4905 176.5774 1447.4672 178.49176 1568.8602 180.40613 1700.512 182.32051 1843.1889 184.23488 1997.8591 186.14926 2165.5875 188.06363 2347.4425 189.97803 2544.5694 191.8924 2758.315"/>
<use data-text="a" xlink:href="#font_2_5" transform="matrix(13.047319,0,0,-13.047319,144.453,90.09421)"/>
<use data-text="s" xlink:href="#font_2_6" transform="matrix(13.047319,0,0,-13.047319,151.27675,90.09421)"/>
<use data-text="x" xlink:href="#font_4_3" transform="matrix(13.047319,0,0,-13.047319,160.18039,90.09421)"/>
<use data-text="&#x2192;" xlink:href="#font_1_1" transform="matrix(13.047319,0,0,-13.047319,170.2515,90.09421)"/>
<use data-text="&#x221e;" xlink:href="#font_1_2" transform="matrix(13.047319,0,0,-13.047319,185.71259,90.09421)"/>
<use data-text="e" xlink:href="#font_4_2" transform="matrix(15.0546,0,0,-15.0546,128.549,27.451004)"/>
<use data-text="x" xlink:href="#font_4_3" transform="matrix(11.41125,0,0,-11.41125,136.7165,20.692017)"/>
<use data-text="&#x2192;" xlink:href="#font_1_1" transform="matrix(15.0546,0,0,-15.0546,146.9495,27.451004)"/>
<use data-text="&#x221e;" xlink:href="#font_1_2" transform="matrix(15.0546,0,0,-15.0546,164.7892,27.451004)"/>
<path transform="matrix(1,0,0,-1,4.9970018,162.535)" stroke-width=".3985" stroke-linecap="butt" stroke-dasharray="2.98883,2.98883" stroke-miterlimit="10" stroke-linejoin="miter" fill="none" stroke="#000000" d="M144.51364 5.04353H97.13213"/>
</g>
<use data-text="b" xlink:href="#font_4_1" transform="matrix(10.0364,0,0,-10.0364,189.70999,154.005)"/>
<use data-text="y" xlink:href="#font_4_4" transform="matrix(10.0364,0,0,-10.0364,106.073,9.503998)"/>
</svg>
