<svg xmlns="http://www.w3.org/2000/svg" xmlns:xlink="http://www.w3.org/1999/xlink" version="1.1" width="175" height="98" viewBox="0 0 175 98">
<defs>
<path id="font_1_2" d="M.42799378 .45222474 .43899537 .49023438H.31199647L.34599305 .6092224 .33399964 .6162262 .23699951 .53923037 .22399903 .49023438H.14299011L.13198853 .45222474H.21499634L.125 .08627319C.10998535 .029266358 .12199402-.01171875 .17199707-.01171875 .2519989-.01171875 .31599427 .054275514 .35598756 .1292572L.33399964 .1462555C.31098939 .10726929 .2599945 .040267946 .22898865 .040267946 .20799256 .040267946 .20799256 .0632782 .21398926 .088272098L.30299378 .45222474H.42799378Z"/>
<path id="font_1_1" d="M.18399048 .0002746582 .3600006 .7371979 .35499574 .7421875 .17599488 .71824648 .16999817 .6953125 .22698975 .68829348C.2519989 .6852875 .2559967 .67826846 .24699402 .63920596L.09199524-.01171875 .18399048 .0002746582M.5499878 .5019531C.5099945 .5019531 .46099855 .47094728 .4099884 .427948 .35398866 .378891 .3019867 .32374574 .25498963 .26660157 .27398683 .2027893 .2979889 .14396668 .32598878 .08314514 .35499574 .01927185 .38398744-.01171875 .43199159-.01171875 .49598695-.01171875 .5399933 .045272829 .56999209 .12901306L.54499819 .14196778C.5169983 .08215332 .49198915 .043273927 .46499635 .043273927 .44799806 .043273927 .43399049 .062210084 .40899659 .11405945 .37799073 .17686463 .35299684 .2416687 .33399964 .30870057 .3619995 .34075929 .43998719 .4259491 .47599793 .4259491 .4909973 .4259491 .5019989 .42092896 .5249939 .40690614 .5319977 .40293885 .5419922 .39894105 .5529938 .39894105 .58099368 .39894105 .60198977 .427948 .60198977 .4529419 .60198977 .47994996 .58898928 .5019531 .5499878 .5019531Z"/>
<path id="font_2_1" d="M.084991458 .31092835V.2529297H.33099366V.0068359377H.3889923V.2529297H.6349945V.31092835H.3889923V.5566406H.33099366V.31092835H.084991458Z"/>
<path id="font_3_1" d="M.43699647 0V.0289917L.35299684 .035995485C.33198548 .037994386 .31999208 .04598999 .31999208 .08496094V.67367556L.31498719 .6796875 .10899353 .6446991V.6197052L.20199585 .6087036C.21899414 .6067047 .22599793 .5987091 .22599793 .56973269V.08496094C.22599793 .065979007 .22299195 .053985597 .21699524 .04698181 .21199036 .039993287 .20399475 .036987306 .19299317 .035995485L.10899353 .0289917V0H.43699647Z"/>
<path id="font_1_3" d="M.070999149 .45393373 .07398987 .42893983 .14199829 .43093873C.1639862 .43193055 .16899109 .41493226 .1769867 .36291505 .18798828 .28489686 .20999146 .09286499 .20999146 .0128479 .20999146-.017166138 .20799256-.058166505 .18598938-.11117554 .16799927-.15318299 .14199829-.18218994 .12199402-.18218994 .10699463-.18218994 .09599304-.17118836 .08099365-.15118408 .068984989-.13517761 .06098938-.127182 .04598999-.127182 .019989014-.12818909-.005004883-.15818787-.005004883-.18719483-.005004883-.21418762 .023986817-.2421875 .067993167-.2421875 .15299988-.2421875 .18998719-.17919922 .27799989-.027160645 .2979889 .0068511965 .35798646 .11286926 .41999818 .21488953 .47698976 .30891419 .5399933 .40592958 .5399933 .4459381 .5399933 .48094178 .5289917 .5019531 .5219879 .5019531 .5029907 .5019531 .46899415 .49394227 .44400025 .47694398 .44499208 .4419403 .44299317 .3809204 .43099977 .33891297 .4149933 .28289796 .35598756 .17488098 .2899933 .06085205H.2869873C.27999879 .21388245 .26098634 .42492677 .24699402 .49795533L.23899842 .5019531 .070999149 .45393373Z"/>
<path id="font_3_4" d="M.18899536 .5019531 .036987306 .47694398V.45195008L.07499695 .4469452C.100997928 .4429474 .10699463 .4379425 .10699463 .40194703V.08699036C.10699463 .035995485 .101989749 .033996583 .03199768 .0289917V0H.29599V.0289917C.20698548 .033996583 .20098877 .035995485 .20098877 .08699036V.32095338C.20098877 .39794923 .23498535 .4239502 .2579956 .4239502 .27398683 .4239502 .29100038 .4179535 .31999208 .40194703 .32699586 .39794923 .33499146 .39694215 .33999635 .39694215 .3639984 .39694215 .38598634 .4219513 .38598634 .4529419 .38598634 .47494508 .37199403 .5019531 .33299256 .5019531 .29699708 .5019531 .2669983 .47994996 .20098877 .4219513L.18899536 .5019531Z"/>
<path id="font_3_3" d="M.036987306 .47694398V.45195008L.07499695 .4469452C.100997928 .4429474 .10699463 .43795777 .10699463 .40194703V.08699036C.10699463 .035995485 .10398865 .033996583 .03199768 .0289917V0H.27598573V.0289917C.20498657 .033996583 .20098877 .035995485 .20098877 .08699036V.49609376L.19400025 .5020752 .036987306 .47694398M.15299988 .71484377C.116989139 .71484377 .09199524 .6888428 .09199524 .65283206 .09199524 .61782839 .116989139 .5928345 .15299988 .5928345 .18998719 .5928345 .21299744 .61782839 .21398926 .65283206 .21398926 .6888428 .18998719 .71484377 .15299988 .71484377Z"/>
<path id="font_3_5" d="M.36698915 .35102845V.46794129C.33399964 .49194337 .2829895 .5019531 .23799134 .5019531 .12998963 .5019531 .056991579 .45095826 .055999757 .35603334 .056991579 .27308656 .12399292 .2361145 .20698548 .21113587 .2519989 .19714356 .31498719 .17416382 .31498719 .10621643 .31498719 .055252077 .2749939 .023269654 .22200012 .023269654 .14099121 .023269654 .09599304 .082229617 .07598877 .16716004H.04699707L.056991579 .03627014C.09298706 .004272461 .1539917-.01171875 .21299744-.01171875 .33198548-.01171875 .3999939 .051254274 .3999939 .13618469 .3999939 .2241211 .34599305 .26409913 .24299622 .29606629 .20199585 .30906678 .13598633 .3300476 .13598633 .3860016 .13699341 .43795777 .17599488 .46694947 .22599793 .46694947 .29699708 .46694947 .33099366 .4119873 .33799745 .35102845H.36698915Z"/>
<path id="font_3_2" d="M.44099427 .2627716C.46199037 .2627716 .48098756 .2677765 .48098756 .30078126 .48098756 .35983277 .46199037 .5019531 .2789917 .5019531 .12298584 .5019531 .04899597 .39086915 .04899597 .24082947 .04899597 .08317566 .116989139-.01373291 .27999879-.01171875 .3909912-.010726929 .44799806 .050247194 .47499085 .1290741L.44499208 .14503479C.4169922 .08717346 .3789978 .039276124 .2999878 .039276124 .17599488 .039276124 .15098572 .15901184 .15299988 .2627716H.44099427M.1539917 .30078126C.1539917 .34181214 .16899109 .46694947 .272995 .46694947 .3659973 .46694947 .3769989 .37184144 .3769989 .33280946 .3769989 .31378175 .37098695 .30078126 .34298707 .30078126H.1539917Z"/>
</defs>
<path transform="matrix(1.00003,0,0,-1.00006,3.8850709,48.35218)" stroke-width=".3985" stroke-linecap="butt" stroke-miterlimit="10" stroke-linejoin="miter" fill="none" stroke="#cbcbcb" d="M116.92754-43.8349V43.8349M150.3354-43.8349V43.8349"/>
<path transform="matrix(1.00003,0,0,-1.00006,3.8850709,48.35218)" stroke-width=".3985" stroke-linecap="butt" stroke-miterlimit="10" stroke-linejoin="miter" fill="none" stroke="#cbcbcb" d="M0 43.8349H167.03754"/>
<path transform="matrix(1.00003,0,0,-1.00006,3.8850709,48.35218)" stroke-width=".19925" stroke-linecap="butt" stroke-miterlimit="10" stroke-linejoin="miter" fill="none" stroke="#929292" d="M116.92754-2.12587V2.12587M150.3354-2.12587V2.12587"/>
<path transform="matrix(1.00003,0,0,-1.00006,3.8850709,48.35218)" stroke-width=".19925" stroke-linecap="butt" stroke-miterlimit="10" stroke-linejoin="miter" fill="none" stroke="#929292" d="M81.39362 43.8349H85.64569"/>
<path transform="matrix(1.00003,0,0,-1.00006,3.8850709,48.35218)" stroke-width=".99628" stroke-linecap="butt" stroke-miterlimit="10" stroke-linejoin="miter" fill="none" stroke="#000000" d="M0 0H164.14833"/>
<path transform="matrix(1.00003,0,0,-1.00006,168.03833,48.35218)" d="M2.8892 0-1.73352 2.31136 0 0-1.73352-2.31136"/>
<path transform="matrix(1.00003,0,0,-1.00006,3.8850709,48.35218)" stroke-width=".99628" stroke-linecap="butt" stroke-miterlimit="10" stroke-linejoin="miter" fill="none" stroke="#000000" d="M83.51967-43.8349V40.94568"/>
<path transform="matrix(0,-1.00006,-1.00003,-0,87.40725,7.404045)" d="M2.8892 0-1.73352 2.31136 0 0-1.73352-2.31136"/>
<path transform="matrix(1.00003,0,0,-1.00006,3.8850709,48.35218)" d="M109.13249-17.12001H124.722568V-2.6240206H109.13249Z" fill="#ffffff"/>
<use data-text="t" xlink:href="#font_1_2" transform="matrix(10.036701,0,0,-10.037002,116.43945,60.3619)"/>
<use data-text="k" xlink:href="#font_1_1" transform="matrix(7.6077287,0,0,-7.6079566,120.19157,62.20701)"/>
<path transform="matrix(1.00003,0,0,-1.00006,3.8850709,48.35218)" d="M137.78563-17.12001H162.88515V-2.6240206H137.78563Z" fill="#ffffff"/>
<use data-text="t" xlink:href="#font_1_2" transform="matrix(10.036701,0,0,-10.037002,145.09333,60.3619)"/>
<use data-text="k" xlink:href="#font_1_1" transform="matrix(7.6077287,0,0,-7.6079566,148.84543,62.20701)"/>
<use data-text="+" xlink:href="#font_2_1" transform="matrix(7.6077287,0,0,-7.6079566,153.56757,62.20701)"/>
<use data-text="1" xlink:href="#font_3_1" transform="matrix(7.6077287,0,0,-7.6079566,159.04175,62.20701)"/>
<path transform="matrix(1.00003,0,0,-1.00006,3.8850709,48.35218)" d="M64.55272 36.92064H81.855548V50.749139H64.55272Z" fill="#ffffff"/>
<use data-text="y" xlink:href="#font_1_3" transform="matrix(10.036701,0,0,-10.037002,72.18513,5.76363)"/>
<use data-text="k" xlink:href="#font_1_1" transform="matrix(7.6077287,0,0,-7.6079566,77.32328,7.60874)"/>
<path transform="matrix(1.00003,0,0,-1.00006,3.8850709,48.35218)" stroke-width=".79701" stroke-linecap="butt" stroke-miterlimit="10" stroke-linejoin="miter" fill="none" stroke="#0000ff" d="M0 0H18.55971 37.11945 55.67917 74.2389 92.79863 111.35837 129.91808 148.47782 167.03754L84.14595-43.50618"/>
<path transform="matrix(-.8854266,.46472789,.46471397,.8854531,88.03357,91.86097)" stroke-width=".6376" stroke-linecap="round" stroke-linejoin="round" fill="none" stroke="#0000ff" d="M-1.55415 2.0722C-1.42464 1.29512 0 .1295 .38852 0 0-.1295-1.42464-1.29512-1.55415-2.0722"/>
<use data-text="r" xlink:href="#font_3_4" transform="matrix(10.036701,0,0,-10.037002,67.36798,95.71402)" fill="#0000ff"/>
<use data-text="i" xlink:href="#font_3_3" transform="matrix(10.036701,0,0,-10.037002,71.342517,95.71402)" fill="#0000ff"/>
<use data-text="s" xlink:href="#font_3_5" transform="matrix(10.036701,0,0,-10.037002,74.273227,95.71402)" fill="#0000ff"/>
<use data-text="e" xlink:href="#font_3_2" transform="matrix(10.036701,0,0,-10.037002,78.64923,95.71402)" fill="#0000ff"/>
<path transform="matrix(1.00003,0,0,-1.00006,3.8850709,48.35218)" d="M1.99255 0C1.99255 1.10046 1.10046 1.99255 0 1.99255-1.10046 1.99255-1.99255 1.10046-1.99255 0-1.99255-1.10046-1.10046-1.99255 0-1.99255 1.10046-1.99255 1.99255-1.10046 1.99255 0ZM0 0" fill="#0000cc"/>
<path transform="matrix(1.00003,0,0,-1.00006,3.8850709,48.35218)" stroke-width=".79701" stroke-linecap="butt" stroke-miterlimit="10" stroke-linejoin="miter" fill="none" stroke="#0000ff" d="M1.99255 0C1.99255 1.10046 1.10046 1.99255 0 1.99255-1.10046 1.99255-1.99255 1.10046-1.99255 0-1.99255-1.10046-1.10046-1.99255 0-1.99255 1.10046-1.99255 1.99255-1.10046 1.99255 0ZM0 0"/>
<path transform="matrix(1.00003,0,0,-1.00006,3.8850709,48.35218)" d="M20.55226 0C20.55226 1.10046 19.66017 1.99255 18.55971 1.99255 17.45924 1.99255 16.56715 1.10046 16.56715 0 16.56715-1.10046 17.45924-1.99255 18.55971-1.99255 19.66017-1.99255 20.55226-1.10046 20.55226 0ZM18.55971 0" fill="#0000cc"/>
<path transform="matrix(1.00003,0,0,-1.00006,3.8850709,48.35218)" stroke-width=".79701" stroke-linecap="butt" stroke-miterlimit="10" stroke-linejoin="miter" fill="none" stroke="#0000ff" d="M20.55226 0C20.55226 1.10046 19.66017 1.99255 18.55971 1.99255 17.45924 1.99255 16.56715 1.10046 16.56715 0 16.56715-1.10046 17.45924-1.99255 18.55971-1.99255 19.66017-1.99255 20.55226-1.10046 20.55226 0ZM18.55971 0"/>
<path transform="matrix(1.00003,0,0,-1.00006,3.8850709,48.35218)" d="M39.112 0C39.112 1.10046 38.21991 1.99255 37.11945 1.99255 36.01897 1.99255 35.12689 1.10046 35.12689 0 35.12689-1.10046 36.01897-1.99255 37.11945-1.99255 38.21991-1.99255 39.112-1.10046 39.112 0ZM37.11945 0" fill="#0000cc"/>
<path transform="matrix(1.00003,0,0,-1.00006,3.8850709,48.35218)" stroke-width=".79701" stroke-linecap="butt" stroke-miterlimit="10" stroke-linejoin="miter" fill="none" stroke="#0000ff" d="M39.112 0C39.112 1.10046 38.21991 1.99255 37.11945 1.99255 36.01897 1.99255 35.12689 1.10046 35.12689 0 35.12689-1.10046 36.01897-1.99255 37.11945-1.99255 38.21991-1.99255 39.112-1.10046 39.112 0ZM37.11945 0"/>
<path transform="matrix(1.00003,0,0,-1.00006,3.8850709,48.35218)" d="M57.67172 0C57.67172 1.10046 56.77963 1.99255 55.67917 1.99255 54.5787 1.99255 53.68661 1.10046 53.68661 0 53.68661-1.10046 54.5787-1.99255 55.67917-1.99255 56.77963-1.99255 57.67172-1.10046 57.67172 0ZM55.67917 0" fill="#0000cc"/>
<path transform="matrix(1.00003,0,0,-1.00006,3.8850709,48.35218)" stroke-width=".79701" stroke-linecap="butt" stroke-miterlimit="10" stroke-linejoin="miter" fill="none" stroke="#0000ff" d="M57.67172 0C57.67172 1.10046 56.77963 1.99255 55.67917 1.99255 54.5787 1.99255 53.68661 1.10046 53.68661 0 53.68661-1.10046 54.5787-1.99255 55.67917-1.99255 56.77963-1.99255 57.67172-1.10046 57.67172 0ZM55.67917 0"/>
<path transform="matrix(1.00003,0,0,-1.00006,3.8850709,48.35218)" d="M76.23146 0C76.23146 1.10046 75.33937 1.99255 74.2389 1.99255 73.13843 1.99255 72.24635 1.10046 72.24635 0 72.24635-1.10046 73.13843-1.99255 74.2389-1.99255 75.33937-1.99255 76.23146-1.10046 76.23146 0ZM74.2389 0" fill="#0000cc"/>
<path transform="matrix(1.00003,0,0,-1.00006,3.8850709,48.35218)" stroke-width=".79701" stroke-linecap="butt" stroke-miterlimit="10" stroke-linejoin="miter" fill="none" stroke="#0000ff" d="M76.23146 0C76.23146 1.10046 75.33937 1.99255 74.2389 1.99255 73.13843 1.99255 72.24635 1.10046 72.24635 0 72.24635-1.10046 73.13843-1.99255 74.2389-1.99255 75.33937-1.99255 76.23146-1.10046 76.23146 0ZM74.2389 0"/>
<path transform="matrix(1.00003,0,0,-1.00006,3.8850709,48.35218)" d="M94.79118 0C94.79118 1.10046 93.8991 1.99255 92.79863 1.99255 91.69817 1.99255 90.80608 1.10046 90.80608 0 90.80608-1.10046 91.69817-1.99255 92.79863-1.99255 93.8991-1.99255 94.79118-1.10046 94.79118 0ZM92.79863 0" fill="#0000cc"/>
<path transform="matrix(1.00003,0,0,-1.00006,3.8850709,48.35218)" stroke-width=".79701" stroke-linecap="butt" stroke-miterlimit="10" stroke-linejoin="miter" fill="none" stroke="#0000ff" d="M94.79118 0C94.79118 1.10046 93.8991 1.99255 92.79863 1.99255 91.69817 1.99255 90.80608 1.10046 90.80608 0 90.80608-1.10046 91.69817-1.99255 92.79863-1.99255 93.8991-1.99255 94.79118-1.10046 94.79118 0ZM92.79863 0"/>
<path transform="matrix(1.00003,0,0,-1.00006,3.8850709,48.35218)" d="M113.35092 0C113.35092 1.10046 112.45883 1.99255 111.35837 1.99255 110.25789 1.99255 109.36581 1.10046 109.36581 0 109.36581-1.10046 110.25789-1.99255 111.35837-1.99255 112.45883-1.99255 113.35092-1.10046 113.35092 0ZM111.35837 0" fill="#0000cc"/>
<path transform="matrix(1.00003,0,0,-1.00006,3.8850709,48.35218)" stroke-width=".79701" stroke-linecap="butt" stroke-miterlimit="10" stroke-linejoin="miter" fill="none" stroke="#0000ff" d="M113.35092 0C113.35092 1.10046 112.45883 1.99255 111.35837 1.99255 110.25789 1.99255 109.36581 1.10046 109.36581 0 109.36581-1.10046 110.25789-1.99255 111.35837-1.99255 112.45883-1.99255 113.35092-1.10046 113.35092 0ZM111.35837 0"/>
<path transform="matrix(1.00003,0,0,-1.00006,3.8850709,48.35218)" d="M131.91063 0C131.91063 1.10046 131.01856 1.99255 129.91808 1.99255 128.81761 1.99255 127.92552 1.10046 127.92552 0 127.92552-1.10046 128.81761-1.99255 129.91808-1.99255 131.01856-1.99255 131.91063-1.10046 131.91063 0ZM129.91808 0" fill="#0000cc"/>
<path transform="matrix(1.00003,0,0,-1.00006,3.8850709,48.35218)" stroke-width=".79701" stroke-linecap="butt" stroke-miterlimit="10" stroke-linejoin="miter" fill="none" stroke="#0000ff" d="M131.91063 0C131.91063 1.10046 131.01856 1.99255 129.91808 1.99255 128.81761 1.99255 127.92552 1.10046 127.92552 0 127.92552-1.10046 128.81761-1.99255 129.91808-1.99255 131.01856-1.99255 131.91063-1.10046 131.91063 0ZM129.91808 0"/>
<path transform="matrix(1.00003,0,0,-1.00006,3.8850709,48.35218)" d="M150.47037 0C150.47037 1.10046 149.57828 1.99255 148.47782 1.99255 147.37734 1.99255 146.48526 1.10046 146.48526 0 146.48526-1.10046 147.37734-1.99255 148.47782-1.99255 149.57828-1.99255 150.47037-1.10046 150.47037 0ZM148.47782 0" fill="#0000cc"/>
<path transform="matrix(1.00003,0,0,-1.00006,3.8850709,48.35218)" stroke-width=".79701" stroke-linecap="butt" stroke-miterlimit="10" stroke-linejoin="miter" fill="none" stroke="#0000ff" d="M150.47037 0C150.47037 1.10046 149.57828 1.99255 148.47782 1.99255 147.37734 1.99255 146.48526 1.10046 146.48526 0 146.48526-1.10046 147.37734-1.99255 148.47782-1.99255 149.57828-1.99255 150.47037-1.10046 150.47037 0ZM148.47782 0"/>
<path transform="matrix(1.00003,0,0,-1.00006,3.8850709,48.35218)" d="M169.03009 0C169.03009 1.10046 168.13802 1.99255 167.03754 1.99255 165.93708 1.99255 165.04499 1.10046 165.04499 0 165.04499-1.10046 165.93708-1.99255 167.03754-1.99255 168.13802-1.99255 169.03009-1.10046 169.03009 0ZM167.03754 0" fill="#0000cc"/>
<path transform="matrix(1.00003,0,0,-1.00006,3.8850709,48.35218)" stroke-width=".79701" stroke-linecap="butt" stroke-miterlimit="10" stroke-linejoin="miter" fill="none" stroke="#0000ff" d="M169.03009 0C169.03009 1.10046 168.13802 1.99255 167.03754 1.99255 165.93708 1.99255 165.04499 1.10046 165.04499 0 165.04499-1.10046 165.93708-1.99255 167.03754-1.99255 168.13802-1.99255 169.03009-1.10046 169.03009 0ZM167.03754 0"/>
<path transform="matrix(1.00003,0,0,-1.00006,3.8850709,48.35218)" stroke-width=".79701" stroke-linecap="butt" stroke-miterlimit="10" stroke-linejoin="miter" fill="none" stroke="#0000ff" d=""/>
<use data-text="t" xlink:href="#font_1_2" transform="matrix(10.036701,0,0,-10.037002,162.73584,44.566957)"/>
<use data-text="y" xlink:href="#font_1_3" transform="matrix(10.036701,0,0,-10.037002,91.65071,13.177071)"/>
</svg>
