<svg xmlns="http://www.w3.org/2000/svg" xmlns:xlink="http://www.w3.org/1999/xlink" version="1.1" width="133" height="64" viewBox="0 0 133 64">
<defs>
<path id="font_1_1" d="M.42799378 .45222474 .43899537 .49023438H.31199647L.34599305 .6092224 .33399964 .6162262 .23699951 .53923037 .22399903 .49023438H.14299011L.13198853 .45222474H.21499634L.125 .08627319C.10998535 .029266358 .12199402-.01171875 .17199707-.01171875 .2519989-.01171875 .31599427 .054275514 .35598756 .1292572L.33399964 .1462555C.31098939 .10726929 .2599945 .040267946 .22898865 .040267946 .20799256 .040267946 .20799256 .0632782 .21398926 .088272098L.30299378 .45222474H.42799378Z"/>
<path id="font_2_1" d="M.07398987 .2861328V.21612549H.31900025V.2861328H.07398987Z"/>
<path id="font_2_5" d="M.12998963 .3657837C.12998963 .3487854 .1349945 .33779908 .147995 .33779908 .1599884 .33779908 .18699646 .34777833 .23498535 .34777833 .31999208 .34777833 .36799623 .27090455 .36799623 .18403626 .36799623 .065216068 .30899049 .023269654 .23799134 .023269654 .17199707 .023269654 .1289978 .07319641 .10998535 .12911988 .10398865 .14808655 .09399414 .15707398 .07998657 .15707398 .06199646 .15707398 .026992798 .13809204 .026992798 .10215759 .026992798 .05921936 .09599304-.01171875 .23699951-.01171875 .38198854-.01171875 .47299195 .06121826 .47299195 .18902588 .47299195 .32281495 .35798646 .3627777 .30299378 .3677826V.3717804C.35699464 .38078309 .44400025 .4207611 .44400025 .5197296 .44400025 .6306915 .35699464 .6796875 .25 .6796875 .117996219 .6796875 .052993776 .60369876 .052993776 .5607147 .052993776 .5297241 .08799744 .51272585 .101989749 .51272585 .114990238 .51272585 .12298584 .5197296 .1269989 .5327301 .14898682 .60069277 .18699646 .64468386 .24299622 .64468386 .32199098 .64468386 .34098817 .57470706 .34098817 .51872256 .34098817 .4587555 .31999208 .38378907 .23498535 .38378907 .18699646 .38378907 .1599884 .39378358 .147995 .39378358 .1349945 .39378358 .12998963 .38378907 .12998963 .3657837Z"/>
<path id="font_2_4" d="M.4850006 .13195801 .45700074 .13696289C.43598939 .08299255 .41600038 .07598877 .37599183 .07598877H.11999512C.13598633 .1279602 .19499207 .19892884 .28799439 .2658844 .38398744 .33584596 .45799256 .38082887 .45799256 .49276734 .45799256 .63168337 .3659973 .6796875 .26098634 .6796875 .12399292 .6796875 .052993776 .5967102 .052993776 .54473879 .052993776 .51075747 .09098816 .49476625 .10798645 .49476625 .12599182 .49476625 .1329956 .50476077 .13699341 .5217438 .15299988 .5897064 .19198609 .64468386 .2539978 .64468386 .33099366 .64468386 .35299684 .5797119 .35299684 .50675967 .35299684 .3998108 .29899598 .33984376 .21199036 .26289369 .08898926 .15594483 .04598999 .08798218 .026992798 .009994507L.036987306 0H.45098878L.4850006 .13195801Z"/>
<path id="font_2_3" d="M.43699647 0V.0289917L.35299684 .035995485C.33198548 .037994386 .31999208 .04598999 .31999208 .08496094V.67367556L.31498719 .6796875 .10899353 .6446991V.6197052L.20199585 .6087036C.21899414 .6067047 .22599793 .5987091 .22599793 .56973269V.08496094C.22599793 .065979007 .22299195 .053985597 .21699524 .04698181 .21199036 .039993287 .20399475 .036987306 .19299317 .035995485L.10899353 .0289917V0H.43699647Z"/>
<path id="font_2_9" d="M.3809967 .6720276C.5589905 .6720276 .59999087 .4931183 .60198977 .3461914 .59999087 .19924927 .5589905 .020339966 .3809967 .020339966 .20298767 .020339966 .1619873 .19924927 .1599884 .3461914 .1619873 .4931183 .20298767 .6720276 .3809967 .6720276M.3809967 .70703127C.2709961 .70703127 .18899536 .6730194 .1329956 .61006167 .07899475 .55007937 .04798889 .4591217 .04798889 .3461914 .04798889 .23423767 .07899475 .14228821 .1329956 .08232117 .18899536 .019348145 .2709961-.0146484379 .3809967-.0146484379 .49198915-.0146484379 .57299807 .019348145 .6289978 .08232117 .6839905 .14228821 .71398928 .23423767 .71398928 .3461914 .71398928 .4591217 .6839905 .55007937 .6289978 .61006167 .57299807 .6730194 .49198915 .70703127 .3809967 .70703127Z"/>
<path id="font_2_7" d="M.034988405 .6923828V.66337588C.12298584 .6573639 .125 .655365 .125 .5993347V.093048099C.125 .037002565 .12298584 .035003663 .034988405 .0289917V0H.32998658V.0289917C.22698975 .035003663 .22399903 .037002565 .22399903 .093048099V.32722474H.3639984C.44898988 .32722474 .45298768 .3032074 .46199037 .23916626H.49198915V.4532776H.46199037C.45298768 .38923646 .44898988 .36523438 .3639984 .36523438H.22399903V.62135317C.22399903 .65437319 .22799683 .65737918 .26098634 .65737918H.3600006C.47599793 .65737918 .49899293 .6343689 .5130005 .5323181H.54299929V.6923828H.034988405Z"/>
<path id="font_2_8" d="M.033996583 .6923828V.66337588C.12199402 .6573639 .12399292 .655365 .12399292 .5993347V.20309448C.12399292 .15007019 .12199402 .11204529 .116989139 .07902527 .11099243 .037002565 .08699036 .032989503 .034988405 .0289917V0H.27198792V.0289917C.20698548 .033996583 .18299866 .037002565 .1769867 .07902527 .17199707 .11204529 .16999817 .15007019 .16999817 .20309448V.6023407H.17199707C.31498719 .4012146 .45700074 .20109558 .59799197 0H.6639862V.48927308C.6639862 .54229739 .66600039 .58032229 .67099 .6133423 .6769867 .655365 .70098879 .6593628 .7529907 .66337588V.6923828H.5159912V.66337588C.58099368 .658371 .6049957 .655365 .61099246 .6133423 .6159973 .58032229 .6179962 .54229739 .6179962 .48927308V.13806153L.6159973 .14006043C.4850006 .32417298 .35499574 .5082855 .22599793 .6923828H.033996583Z"/>
<path id="font_3_1" d="M.35598756-1.1331635C.21798706-1.0741425 .19198609-.8421173 .19198609-.5600586 .19198609-.28401185 .21499634-.04698181 .35598756 .013031006V.040039064C.15899658 .000030517579 .11199951-.2190094 .11199951-.5600586 .11199951-.8931122 .15098572-1.1231537 .35598756-1.1601563V-1.1331635Z"/>
<path id="font_2_6" d="M.42599488 .5919647 .44999696 .6599579 .44499208 .66796877H.11099243L.100997928 .65896609 .08099365 .32388307 .10499573 .31188966C.14698792 .35983277 .18798828 .3828125 .24198914 .3828125 .30599977 .3828125 .37599183 .3358612 .37599183 .20404053 .37599183 .10116577 .33399964 .023269654 .24699402 .023269654 .1769867 .023269654 .14099121 .07420349 .12098694 .13113404 .115997318 .14611817 .10699463 .15510559 .09298706 .15510559 .07299805 .15510559 .039993287 .13513184 .039993287 .10217285 .039993287 .056228639 .10998535-.01171875 .23999024-.01171875 .40499879-.01171875 .47999574 .0881958 .47999574 .21502686 .47999574 .35484315 .3919983 .4268036 .272995 .4268036 .21798706 .4268036 .15899658 .4028015 .1269989 .3738098L.125 .37580873 .147995 .56292727C.15098572 .58795168 .1579895 .5919647 .1769867 .5919647H.42599488Z"/>
<path id="font_1_2" d="M.5069885 .1381836C.48298646 .0932312 .45599366 .040267946 .42799378 .040267946 .40899659 .040267946 .40098573 .06324768 .3789978 .1521759L.34700013 .2830658C.3829956 .34701539 .43399049 .42694093 .46299745 .42694093 .47200013 .42694093 .47999574 .42494203 .4909973 .4189453 .5009918 .4149475 .5109863 .4109497 .522995 .4109497 .54499819 .4109497 .56599429 .4319458 .56599429 .4589386 .56599429 .48994447 .54299929 .5019531 .5149994 .5019531 .46199037 .5019531 .4169922 .45394898 .38198854 .39796449L.33799745 .33003236H.33599855L.29599 .49794007 .2899933 .5019531 .125 .45195008 .12799073 .427948 .20298767 .43295289C.22099304 .4339447 .22799683 .42893983 .23899842 .38298036L.2749939 .2381134 .24699402 .19015503C.20399475 .11723328 .16699219 .0652771 .14299011 .0652771 .1329956 .0652771 .12298584 .0692749 .11399841 .07426453 .10398865 .07926941 .09098816 .089279178 .07398987 .089279178 .04798889 .089279178 .0309906 .0632782 .0309906 .039276124 .0309906 .010269165 .054992677-.01171875 .09498596-.01171875 .16299439-.01171875 .20199585 .056259157 .24299622 .12319946L.2829895 .18914795H.2849884L.30299378 .111206058C.32199098 .031280519 .34098817-.01171875 .3919983-.01171875 .46499635-.01171875 .5029907 .06324768 .5329895 .12420654L.5069885 .1381836Z"/>
<path id="font_4_1" d="M.6349945 .2529297V.31092835H.084991458V.2529297H.6349945Z"/>
<path id="font_3_2" d="M.03199768-1.1601563C.22399903-1.1261597 .27598573-.8931122 .27598573-.5600586 .27598573-.2190094 .22399903 .003036499 .03199768 .040039064V.013031006C.17298889-.04698181 .19599915-.28401185 .19599915-.5600586 .19599915-.8421173 .16999817-1.0741425 .03199768-1.1331635V-1.1601563Z"/>
<path id="font_4_2" d="M.07998657 .28173829C.07998657 .24674988 .10798645 .21875 .14299011 .21875 .17799378 .21875 .20599365 .24674988 .20599365 .28173829 .20599365 .31674195 .17799378 .34474183 .14299011 .34474183 .10798645 .34474183 .07998657 .31674195 .07998657 .28173829Z"/>
<path id="font_2_2" d="M.2649994 .64468386C.3600006 .64468386 .3869934 .49682618 .3869934 .33398438 .3869934 .17112732 .3600006 .023269654 .2649994 .023269654 .16999817 .023269654 .14299011 .17112732 .14299011 .33398438 .14299011 .49682618 .16999817 .64468386 .2649994 .64468386M.2649994 .6796875C.099990848 .6796875 .040985109 .53378298 .040985109 .33398438 .040985109 .13417053 .099990848-.01171875 .2649994-.01171875 .42999269-.01171875 .4889984 .13417053 .4889984 .33398438 .4889984 .53378298 .42999269 .6796875 .2649994 .6796875Z"/>
</defs>
<path transform="matrix(1,0,0,-1,66.17799,34.964)" d="M-64.48837-27.63786V33.1655H0V-27.63786ZM0 33.1655" fill="#d9d9ff"/>
<path transform="matrix(1,0,0,-1,66.17799,34.964)" d="M0-27.63786V33.1655H64.48837V-27.63786ZM64.48837 33.1655" fill="#d9f0d9"/>
<path transform="matrix(1,0,0,-1,66.17799,34.964)" stroke-width=".3985" stroke-linecap="butt" stroke-miterlimit="10" stroke-linejoin="miter" fill="none" stroke="#000000" d="M-64.48837 0H64.03009"/>
<path transform="matrix(1,0,0,-1,130.20809,34.964)" stroke-width=".31879" stroke-linecap="round" stroke-linejoin="round" fill="none" stroke="#000000" d="M-1.19551 1.59401C-1.09587 .99626 0 .09961 .29886 0 0-.09961-1.09587-.99626-1.19551-1.59401"/>
<path transform="matrix(1,0,0,-1,66.17799,34.964)" stroke-width=".3985" stroke-linecap="butt" stroke-miterlimit="10" stroke-linejoin="miter" fill="none" stroke="#000000" d="M0-27.63786V32.70721"/>
<path transform="matrix(0,-1,-1,-0,66.17799,2.2567902)" stroke-width=".31879" stroke-linecap="round" stroke-linejoin="round" fill="none" stroke="#000000" d="M-1.19551 1.59401C-1.09587 .99626 0 .09961 .29886 0 0-.09961-1.09587-.99626-1.19551-1.59401"/>
<use data-text="t" xlink:href="#font_1_1" transform="matrix(9.1656,0,0,-9.1656,126.871,31.485)"/>
<path transform="matrix(1,0,0,-1,66.17799,34.964)" stroke-width=".3985" stroke-linecap="butt" stroke-miterlimit="10" stroke-linejoin="miter" fill="none" stroke="#929292" d="M-55.27574 1.84262V-1.84262"/>
<use data-text="-" xlink:href="#font_2_1" transform="matrix(9.1656,0,0,-9.1656,6.672989,45.974)"/>
<use data-text="3" xlink:href="#font_2_5" transform="matrix(9.1656,0,0,-9.1656,10.2659,45.974)"/>
<path transform="matrix(1,0,0,-1,66.17799,34.964)" stroke-width=".3985" stroke-linecap="butt" stroke-miterlimit="10" stroke-linejoin="miter" fill="none" stroke="#929292" d="M-36.85048 1.84262V-1.84262"/>
<use data-text="-" xlink:href="#font_2_1" transform="matrix(9.1656,0,0,-9.1656,25.097992,45.974)"/>
<use data-text="2" xlink:href="#font_2_4" transform="matrix(9.1656,0,0,-9.1656,28.690903,45.974)"/>
<path transform="matrix(1,0,0,-1,66.17799,34.964)" stroke-width=".3985" stroke-linecap="butt" stroke-miterlimit="10" stroke-linejoin="miter" fill="none" stroke="#929292" d="M-18.42523 1.84262V-1.84262"/>
<use data-text="-" xlink:href="#font_2_1" transform="matrix(9.1656,0,0,-9.1656,43.523996,45.974)"/>
<use data-text="1" xlink:href="#font_2_3" transform="matrix(9.1656,0,0,-9.1656,47.116907,45.974)"/>
<path transform="matrix(1,0,0,-1,66.17799,34.964)" stroke-width=".3985" stroke-linecap="butt" stroke-miterlimit="10" stroke-linejoin="miter" fill="none" stroke="#929292" d="M18.42523 1.84262V-1.84262"/>
<use data-text="1" xlink:href="#font_2_3" transform="matrix(9.1656,0,0,-9.1656,82.172,45.974)"/>
<path transform="matrix(1,0,0,-1,66.17799,34.964)" stroke-width=".3985" stroke-linecap="butt" stroke-miterlimit="10" stroke-linejoin="miter" fill="none" stroke="#929292" d="M36.85048 1.84262V-1.84262"/>
<use data-text="2" xlink:href="#font_2_4" transform="matrix(9.1656,0,0,-9.1656,100.59799,45.974)"/>
<path transform="matrix(1,0,0,-1,66.17799,34.964)" stroke-width=".3985" stroke-linecap="butt" stroke-miterlimit="10" stroke-linejoin="miter" fill="none" stroke="#929292" d="M55.27574 1.84262V-1.84262"/>
<use data-text="3" xlink:href="#font_2_5" transform="matrix(9.1656,0,0,-9.1656,119.022998,45.974)"/>
<path transform="matrix(1,0,0,-1,66.17799,34.964)" stroke-width=".3985" stroke-linecap="butt" stroke-miterlimit="10" stroke-linejoin="miter" fill="none" stroke="#929292" d="M1.84262-18.42523H-1.84262"/>
<use data-text="-" xlink:href="#font_2_1" transform="matrix(9.1656,0,0,-9.1656,56.162996,56.458)"/>
<use data-text="1" xlink:href="#font_2_3" transform="matrix(9.1656,0,0,-9.1656,59.755907,56.458)"/>
<path transform="matrix(1,0,0,-1,66.17799,34.964)" stroke-width=".3985" stroke-linecap="butt" stroke-miterlimit="10" stroke-linejoin="miter" fill="none" stroke="#929292" d="M1.84262 18.42523H-1.84262"/>
<use data-text="1" xlink:href="#font_2_3" transform="matrix(9.1656,0,0,-9.1656,59.759996,19.607)"/>
<path transform="matrix(1,0,0,-1,66.17799,34.964)" stroke-width="1.59404" stroke-linecap="butt" stroke-miterlimit="10" stroke-linejoin="miter" fill="none" stroke="#6666ff" d="M-63.28287 0H-64.17377-63.85916-63.54456-63.22997-62.91536-62.60074-62.28615-61.97154-61.65694-61.34233-61.02773-60.71312-60.39851-60.08391-59.76932-59.4547-59.14009-58.8255-58.5109-58.1963-57.8817-57.5671-57.25249-56.93788-56.62328-56.30869-55.99406-55.67947-55.36487-55.05026-54.73566-54.42105-54.10645-53.79184-53.47723-53.16264-52.84802-52.53342-52.21883-51.90424-51.58963-51.27502-50.96042-50.64581-50.3312-50.0166-49.702-49.38739-49.0728-48.7582-48.44357-48.12898-47.81438-47.49977-47.18517-46.87056-46.55595-46.24135-45.92674-45.61217-45.29756-44.98296-44.66835-44.35374-44.03914-43.72453-43.40993-43.09532-42.78072-42.46613-42.15152-41.8369-41.52231-41.2077-40.8931-40.57849-40.26389-39.94928-39.63467-39.32008-39.0055-38.69087-38.37628-38.06168-37.74707-37.43246-37.11786-36.80325-36.48865-36.17404-35.85945-35.54483-35.23022-34.91563-34.60103-34.28642-33.97182-33.65721-33.3426-33.02802-32.71341-32.39882-32.0842-31.7696-31.455-31.1404-30.82579-30.51118-30.19658-29.88197-29.56737-29.25278-28.93816-28.62355-28.30896-27.99435-27.67973-27.36514-27.05054-26.73595-26.42134-26.10674-25.79213-25.47752-25.16292-24.84833-24.5337-24.21912-23.90451-23.5899-23.2753-22.9607-22.6461-22.33148-22.01688-21.70229-21.38768-21.07306-20.75848-20.44388-20.12927-19.81467-19.50006-19.18546-18.87085-18.55624-18.24165-17.92703-17.61244-17.29784-16.98323-16.66862-16.35402-16.03941-15.72481-15.4102-15.09561-14.78099-14.4664-14.15181-13.8372-13.5226-13.208-12.89339-12.57878-12.26418-11.94957-11.63498-11.32036-11.00577-10.69116-10.37656-10.06195-9.74734-9.43274-9.11813-8.80353-8.48894-8.17433-7.85973-7.54514-7.23053-6.91592-6.60132-6.28671-5.9721-5.6575-5.3429-5.02829-4.71368-4.3991-4.08449-3.76987-3.45528-3.14067-2.82607-2.51146-2.19685-1.88226"/>
<path transform="matrix(-1,-0,0,1,2.8951226,34.964)" stroke-width="1.27522" stroke-linecap="round" stroke-linejoin="round" fill="none" stroke="#6666ff" d="M-2.27148 3.02866C-2.0822 1.8929 0 .18927 .56786 0 0-.18927-2.0822-1.8929-2.27148-3.02866"/>
<path transform="matrix(1,0,0,-1,66.17799,34.964)" stroke-width="1.59404" stroke-linecap="butt" stroke-miterlimit="10" stroke-linejoin="miter" fill="none" stroke="#6666ff" d="M0-18.42523 .32385-18.4241 .64775-18.42073 .97163-18.4151 1.2955-18.40724 1.61938-18.39684 1.94328-18.38448 2.26714-18.36957 2.59103-18.35242 2.91492-18.33328 3.23878-18.31166 3.56268-18.28775 3.88657-18.26132 4.21043-18.23293 4.53432-18.20229 4.8582-18.1694 5.18207-18.13396 5.50597-18.0963 5.82985-18.05637 6.15372-18.01448 6.47762-17.97006 6.80148-17.92339 7.12537-17.87447 7.44925-17.82301 7.77313-17.7696 8.09702-17.71393 8.4209-17.65573 8.74478-17.59529 9.06865-17.5326 9.39255-17.46793 9.71642-17.40074 10.04031-17.3313 10.36418-17.25958 10.68806-17.18538 11.01196-17.10918 11.33583-17.03073 11.65971-16.94977 11.9836-16.86684 12.30746-16.7811 12.63135-16.69365 12.95525-16.60368 13.27911-16.51147 13.603-16.417 13.9269-16.32 14.25075-16.22104 14.57465-16.11983 14.89853-16.01608 15.2224-15.91039 15.54628-15.80185 15.87018-15.69164 16.19405-15.5789 16.51793-15.46391 16.84183-15.34668 17.16568-15.2269 17.48958-15.10516 17.81346-14.98117 18.13733-14.85466 18.46121-14.72618 18.78511-14.59544 19.10898-14.46191 19.43286-14.32668 19.75674-14.18863 20.08063-14.04863 20.40451-13.90637 20.7284-13.76157 21.05228-13.6148 21.37614-13.46553 21.70003-13.31427 22.02393-13.16075 22.3478-13.00444 22.67168-12.84644 22.99556-12.68562 23.31944-12.52284 23.64333-12.35808 23.96721-12.19023 24.29109-12.02098 24.61496-11.84865 24.93886-11.6746 25.26273-11.49832 25.58661-11.31923 25.91049-11.13847 26.23438-10.95488 26.55824-10.76932 26.88214-10.5818 27.20601-10.39146 27.52989-10.19916 27.85379-10.00403 28.17766-9.80724 28.50154-9.60817 28.82542-9.40633 29.14929-9.20277 29.47319-8.9964 29.79707-8.78836 30.12096-8.57779 30.44482-8.36467 30.76872-8.1496 31.0926-7.9317 31.41647-7.71213 31.74036-7.4903 32.06424-7.26567 32.38812-7.03934 32.712-6.81021 33.03589-6.57939 33.35976-6.34602 33.68365-6.11015 34.00752-5.8723 34.3314-5.63162 34.65529-5.38959 34.97917-5.14497 35.30305-4.89755 35.62694-4.64818 35.95082-4.39629 36.27469-4.14268 36.59857-3.88657 36.92245-3.6279 37.24634-3.36728 37.57022-3.10469 37.8941-2.83899 38.21799-2.57164 38.54187-2.30145 38.86575-2.02957 39.18962-1.75519 39.5135-1.47824 39.83739-1.19963 40.16129-.91794 40.48515-.63452 40.80904-.34917 41.13293-.06071 41.45679 .22939 41.78069 .52235 42.10457 .81699 42.42844 1.11389 42.75232 1.41386 43.07622 1.71526 43.40009 2.01974 43.72397 2.32564 44.04785 2.63403 44.37172 2.94527 44.69562 3.2582 45.0195 3.57391 45.34337 3.89133 45.66727 4.211 45.99115 4.53375 46.31502 4.85793 46.6389 5.18518 46.96278 5.51384 47.28665 5.84503 47.61055 6.17903 47.93443 6.51471 48.2583 6.85323 48.5822 7.1934 48.90607 7.53584 49.22995 7.88136 49.55383 8.2283 49.87772 8.57835 50.2016 8.92976 50.52548 9.28346 50.84937 9.6405 51.17325 9.9987 51.49712 10.36024 51.821 10.7232 52.1449 11.08842 52.46877 11.45644 52.79265 11.82643 53.11653 12.19923 53.44041 12.57344 53.7643 12.94989 54.08818 13.32973 54.41205 13.71068 54.73593 14.095 55.05983 14.48074 55.3837 14.86844 55.70758 15.25952 56.03146 15.652 56.35533 16.04672 56.67923 16.44482 57.00311 16.84406 57.32698 17.24638 57.65086 17.6504 57.97476 18.05664 58.29861 18.46571 58.62251 18.87646 58.9464 19.29033 59.27028 19.70557 59.59416 20.12308 59.91805 20.54367 60.24193 20.96596 60.5658 21.39105 60.8897 21.81784 61.21356 22.24658 61.53745 22.6787 61.86133 23.11223 62.18521 23.54886 62.5091 23.9869 62.83298 24.42717 63.15686 24.87053 63.48073 25.31529 63.80461 25.76346 64.1285 26.21301 63.74977 25.68506"/>
<path transform="matrix(.58284,-.81252,-.81252,-.58284,129.92777,9.278961)" stroke-width="1.27522" stroke-linecap="round" stroke-linejoin="round" fill="none" stroke="#6666ff" d="M-2.27148 3.02866C-2.0822 1.8929 0 .18927 .56786 0 0-.18927-2.0822-1.8929-2.27148-3.02866"/>
<path transform="matrix(1,0,0,-1,66.17799,34.964)" d="M2.59029-18.42523C2.59029-16.99463 1.43059-15.83493 0-15.83493-1.43059-15.83493-2.59029-16.99463-2.59029-18.42523-2.59029-19.85583-1.43059-21.01553 0-21.01553 1.43059-21.01553 2.59029-19.85583 2.59029-18.42523ZM0-18.42523" fill="#6666ff"/>
<path transform="matrix(1,0,0,-1,66.17799,34.964)" stroke-width="1.19553" stroke-linecap="butt" stroke-miterlimit="10" stroke-linejoin="miter" fill="none" stroke="#6666ff" d="M2.59029 0C2.59029 1.43059 1.43059 2.59029 0 2.59029-1.43059 2.59029-2.59029 1.43059-2.59029 0-2.59029-1.43059-1.43059-2.59029 0-2.59029 1.43059-2.59029 2.59029-1.43059 2.59029 0ZM0 0"/>
<use data-text="O" xlink:href="#font_2_9" transform="matrix(9.1656,0,0,-9.1656,25.121994,59.019)" fill="#0000ff"/>
<use data-text="F" xlink:href="#font_2_7" transform="matrix(9.1656,0,0,-9.1656,32.106187,59.019)" fill="#0000ff"/>
<use data-text="F" xlink:href="#font_2_7" transform="matrix(9.1656,0,0,-9.1656,37.42224,59.019)" fill="#0000ff"/>
<use data-text="O" xlink:href="#font_2_9" transform="matrix(9.1656,0,0,-9.1656,91.354,59.019)" fill="#009900"/>
<use data-text="N" xlink:href="#font_2_8" transform="matrix(9.1656,0,0,-9.1656,98.33819,59.019)" fill="#009900"/>
<use data-text="(" xlink:href="#font_3_1" transform="matrix(9.1656,0,0,-9.1656,5.3729937,5.8550007)"/>
<use data-text="1" xlink:href="#font_2_3" transform="matrix(6.9659,0,0,-6.9659,10.124992,9.643001)"/>
<path transform="matrix(1,0,0,-1,-126.805,-5.396)" stroke-width=".5316" stroke-linecap="butt" stroke-miterlimit="10" stroke-linejoin="miter" fill="none" stroke="#000000" d="M136.93-16.384H140.625"/>
<use data-text="5" xlink:href="#font_2_6" transform="matrix(6.9659,0,0,-6.9659,10.124992,17.005)"/>
<use data-text="x" xlink:href="#font_1_2" transform="matrix(9.1656,0,0,-9.1656,15.213997,13.567999)"/>
<use data-text="2" xlink:href="#font_2_4" transform="matrix(6.9659,0,0,-6.9659,20.583992,9.951999)"/>
<use data-text="&#x2212;" xlink:href="#font_4_1" transform="matrix(9.1656,0,0,-9.1656,25.994988,13.567999)"/>
<use data-text="1" xlink:href="#font_2_3" transform="matrix(9.1656,0,0,-9.1656,33.80799,13.567999)"/>
<use data-text=")" xlink:href="#font_3_2" transform="matrix(9.1656,0,0,-9.1656,38.66999,5.8549997)"/>
<use data-text="&#x00b7;" xlink:href="#font_4_2" transform="matrix(9.1656,0,0,-9.1656,42.203996,13.686001)" fill="#0000ff"/>
<use data-text="0" xlink:href="#font_2_2" transform="matrix(9.1656,0,0,-9.1656,44.753999,13.686001)" fill="#0000ff"/>
<use data-text="(" xlink:href="#font_3_1" transform="matrix(9.1656,0,0,-9.1656,75.38899,9.54)"/>
<use data-text="1" xlink:href="#font_2_3" transform="matrix(6.9659,0,0,-6.9659,80.14099,13.328)"/>
<path transform="matrix(1,0,0,-1,-56.789,-1.7110005)" stroke-width=".5316" stroke-linecap="butt" stroke-miterlimit="10" stroke-linejoin="miter" fill="none" stroke="#000000" d="M136.93-16.384H140.625"/>
<use data-text="5" xlink:href="#font_2_6" transform="matrix(6.9659,0,0,-6.9659,80.14099,20.689999)"/>
<use data-text="x" xlink:href="#font_1_2" transform="matrix(9.1656,0,0,-9.1656,85.229999,17.252999)"/>
<use data-text="2" xlink:href="#font_2_4" transform="matrix(6.9659,0,0,-6.9659,90.59999,13.636998)"/>
<use data-text="&#x2212;" xlink:href="#font_4_1" transform="matrix(9.1656,0,0,-9.1656,96.01099,17.252999)"/>
<use data-text="1" xlink:href="#font_2_3" transform="matrix(9.1656,0,0,-9.1656,103.82399,17.252999)"/>
<use data-text=")" xlink:href="#font_3_2" transform="matrix(9.1656,0,0,-9.1656,108.68599,9.539999)"/>
<use data-text="&#x00b7;" xlink:href="#font_4_2" transform="matrix(9.1656,0,0,-9.1656,112.21999,17.396)" fill="#009900"/>
<use data-text="1" xlink:href="#font_2_3" transform="matrix(9.1656,0,0,-9.1656,114.77,17.396)" fill="#009900"/>
<path transform="matrix(1,0,0,-1,66.17799,34.964)" stroke-width=".79701" stroke-linecap="butt" stroke-miterlimit="10" stroke-linejoin="miter" fill="none" stroke="#000000" d="M-42.37813 16.5826V1.62866"/>
<path transform="matrix(0,1,1,0,23.799862,33.335344)" stroke-width=".6376" stroke-linecap="round" stroke-linejoin="round" fill="none" stroke="#000000" d="M-1.55415 2.0722C-1.42464 1.29512 0 .1295 .38852 0 0-.1295-1.42464-1.29512-1.55415-2.0722"/>
<path transform="matrix(1,0,0,-1,66.17799,34.964)" stroke-width=".79701" stroke-linecap="butt" stroke-miterlimit="10" stroke-linejoin="miter" fill="none" stroke="#000000" d="M29.48048 16.5826 41.87794 4.18517"/>
<path transform="matrix(.7071,.7071,.7071,-.7071,108.05592,30.778832)" stroke-width=".6376" stroke-linecap="round" stroke-linejoin="round" fill="none" stroke="#000000" d="M-1.55415 2.0722C-1.42464 1.29512 0 .1295 .38852 0 0-.1295-1.42464-1.29512-1.55415-2.0722"/>
</svg>
