<svg xmlns="http://www.w3.org/2000/svg" xmlns:xlink="http://www.w3.org/1999/xlink" version="1.1" width="79" height="37" viewBox="0 0 79 37">
<defs>
<path id="font_1_2" d="M.2999878 .17871094V.0769043C.2999878 .04296875 .2889862 .036987306 .2649994 .034988405L.20098877 .0289917V0H.46499635V.0289917L.41999818 .033981325C.39698792 .036987306 .3899994 .04296875 .3899994 .0769043V.17871094H.49299623V.22570801H.3899994V.66796877H.31698609C.22299195 .5298767 .11099243 .35577394 .018997193 .19970703L.027999878 .17871094H.2999878M.09098816 .22570801C.15098572 .33476258 .22099304 .4498291 .2979889 .5709076H.2999878V.22570801H.09098816Z"/>
<path id="font_1_3" d="M.2649994 .3380127C.34498597 .3380127 .3880005 .2700653 .3880005 .17915344 .3880005 .09121704 .34999085 .023269654 .2649994 .023269654 .18199158 .023269654 .14199829 .09121704 .14199829 .17915344 .14199829 .2700653 .18598938 .3380127 .2649994 .3380127M.2649994-.01171875C.4269867-.01171875 .48799134 .081222537 .48799134 .18214417 .48799134 .28405763 .42399598 .3420105 .35598756 .35801698V.36102296C.4169922 .37701417 .46598817 .427948 .46598817 .5098419 .46598817 .6187134 .3809967 .6796875 .2649994 .6796875 .15098572 .6796875 .06399536 .61772158 .06399536 .5098419 .06399536 .427948 .11399841 .37701417 .17399597 .36102296V.35801698C.10699463 .3420105 .041992189 .28405763 .041992189 .18214417 .041992189 .081222537 .101989749-.01171875 .2649994-.01171875M.2649994 .37402345C.19299317 .37402345 .16099549 .44392396 .16099549 .5118408 .16099549 .5887451 .19699097 .64468386 .2649994 .64468386 .33299256 .64468386 .36698915 .5887451 .36898805 .5118408 .36898805 .44392396 .33799745 .37402345 .2649994 .37402345Z"/>
<path id="font_2_1" d="M.42799378 .45222474 .43899537 .49023438H.31199647L.34599305 .6092224 .33399964 .6162262 .23699951 .53923037 .22399903 .49023438H.14299011L.13198853 .45222474H.21499634L.125 .08627319C.10998535 .029266358 .12199402-.01171875 .17199707-.01171875 .2519989-.01171875 .31599427 .054275514 .35598756 .1292572L.33399964 .1462555C.31098939 .10726929 .2599945 .040267946 .22898865 .040267946 .20799256 .040267946 .20799256 .0632782 .21398926 .088272098L.30299378 .45222474H.42799378Z"/>
<path id="font_1_1" d="M.43699647 0V.0289917L.35299684 .035995485C.33198548 .037994386 .31999208 .04598999 .31999208 .08496094V.67367556L.31498719 .6796875 .10899353 .6446991V.6197052L.20199585 .6087036C.21899414 .6067047 .22599793 .5987091 .22599793 .56973269V.08496094C.22599793 .065979007 .22299195 .053985597 .21699524 .04698181 .21199036 .039993287 .20399475 .036987306 .19299317 .035995485L.10899353 .0289917V0H.43699647Z"/>
<path id="font_1_6" d="M.3809967 .6720276C.5589905 .6720276 .59999087 .4931183 .60198977 .3461914 .59999087 .19924927 .5589905 .020339966 .3809967 .020339966 .20298767 .020339966 .1619873 .19924927 .1599884 .3461914 .1619873 .4931183 .20298767 .6720276 .3809967 .6720276M.3809967 .70703127C.2709961 .70703127 .18899536 .6730194 .1329956 .61006167 .07899475 .55007937 .04798889 .4591217 .04798889 .3461914 .04798889 .23423767 .07899475 .14228821 .1329956 .08232117 .18899536 .019348145 .2709961-.0146484379 .3809967-.0146484379 .49198915-.0146484379 .57299807 .019348145 .6289978 .08232117 .6839905 .14228821 .71398928 .23423767 .71398928 .3461914 .71398928 .4591217 .6839905 .55007937 .6289978 .61006167 .57299807 .6730194 .49198915 .70703127 .3809967 .70703127Z"/>
<path id="font_1_4" d="M.034988405 .6923828V.66337588C.12298584 .6573639 .125 .655365 .125 .5993347V.093048099C.125 .037002565 .12298584 .035003663 .034988405 .0289917V0H.32998658V.0289917C.22698975 .035003663 .22399903 .037002565 .22399903 .093048099V.32722474H.3639984C.44898988 .32722474 .45298768 .3032074 .46199037 .23916626H.49198915V.4532776H.46199037C.45298768 .38923646 .44898988 .36523438 .3639984 .36523438H.22399903V.62135317C.22399903 .65437319 .22799683 .65737918 .26098634 .65737918H.3600006C.47599793 .65737918 .49899293 .6343689 .5130005 .5323181H.54299929V.6923828H.034988405Z"/>
<path id="font_1_5" d="M.033996583 .6923828V.66337588C.12199402 .6573639 .12399292 .655365 .12399292 .5993347V.20309448C.12399292 .15007019 .12199402 .11204529 .116989139 .07902527 .11099243 .037002565 .08699036 .032989503 .034988405 .0289917V0H.27198792V.0289917C.20698548 .033996583 .18299866 .037002565 .1769867 .07902527 .17199707 .11204529 .16999817 .15007019 .16999817 .20309448V.6023407H.17199707C.31498719 .4012146 .45700074 .20109558 .59799197 0H.6639862V.48927308C.6639862 .54229739 .66600039 .58032229 .67099 .6133423 .6769867 .655365 .70098879 .6593628 .7529907 .66337588V.6923828H.5159912V.66337588C.58099368 .658371 .6049957 .655365 .61099246 .6133423 .6159973 .58032229 .6179962 .54229739 .6179962 .48927308V.13806153L.6159973 .14006043C.4850006 .32417298 .35499574 .5082855 .22599793 .6923828H.033996583Z"/>
</defs>
<path transform="matrix(1.00002,0,0,-1.00008,8.220551,24.676695)" d="M-6.80318-11.33855V22.6771H45.35419V-11.33855ZM45.35419 22.6771" fill="#d9d9ff"/>
<path transform="matrix(1.00002,0,0,-1.00008,8.220551,24.676695)" d="M45.35419-11.33855V22.6771H68.0313V-11.33855ZM68.0313 22.6771" fill="#d9f0d9"/>
<use data-text="4" xlink:href="#font_1_2" transform="matrix(9.165783,0,0,-9.166333,28.466958,34.21346)"/>
<use data-text="8" xlink:href="#font_1_3" transform="matrix(9.165783,0,0,-9.166333,51.14441,34.21346)"/>
<path transform="matrix(1.00002,0,0,-1.00008,8.220551,24.676695)" stroke-width=".3985" stroke-linecap="butt" stroke-miterlimit="10" stroke-linejoin="miter" fill="none" stroke="#000000" d="M-6.80318 0H67.57301"/>
<path transform="matrix(1.00002,0,0,-1.00008,75.794918,24.676695)" stroke-width=".31879" stroke-linecap="round" stroke-linejoin="round" fill="none" stroke="#000000" d="M-1.19551 1.59401C-1.09587 .99626 0 .09961 .29886 0 0-.09961-1.09587-.99626-1.19551-1.59401"/>
<path transform="matrix(1.00002,0,0,-1.00008,8.220551,24.676695)" stroke-width=".3985" stroke-linecap="butt" stroke-miterlimit="10" stroke-linejoin="miter" fill="none" stroke="#000000" d="M0-11.33855V22.21881"/>
<path transform="matrix(0,-1.00008,-1.00002,-0,8.220551,2.456108)" stroke-width=".31879" stroke-linecap="round" stroke-linejoin="round" fill="none" stroke="#000000" d="M-1.19551 1.59401C-1.09587 .99626 0 .09961 .29886 0 0-.09961-1.09587-.99626-1.19551-1.59401"/>
<use data-text="t" xlink:href="#font_2_1" transform="matrix(9.165783,0,0,-9.166333,73.16585,33.725419)"/>
<path transform="matrix(1.00002,0,0,-1.00008,8.220551,24.676695)" stroke-width=".3985" stroke-linecap="butt" stroke-miterlimit="10" stroke-linejoin="miter" fill="none" stroke="#929292" d="M22.6771 1.13391V-1.13391"/>
<path transform="matrix(1.00002,0,0,-1.00008,8.220551,24.676695)" stroke-width=".79701" stroke-linecap="butt" stroke-dasharray="2.98883,2.98883" stroke-miterlimit="10" stroke-linejoin="miter" fill="none" stroke="#000000" d="M22.6771 0V22.6771"/>
<path transform="matrix(1.00002,0,0,-1.00008,8.220551,24.676695)" stroke-width=".3985" stroke-linecap="butt" stroke-miterlimit="10" stroke-linejoin="miter" fill="none" stroke="#929292" d="M45.35419 1.13391V-1.13391"/>
<path transform="matrix(1.00002,0,0,-1.00008,8.220551,24.676695)" stroke-width=".79701" stroke-linecap="butt" stroke-dasharray="2.98883,2.98883" stroke-miterlimit="10" stroke-linejoin="miter" fill="none" stroke="#000000" d="M45.35419 0V22.6771"/>
<path transform="matrix(1.00002,0,0,-1.00008,8.220551,24.676695)" stroke-width=".3985" stroke-linecap="butt" stroke-miterlimit="10" stroke-linejoin="miter" fill="none" stroke="#929292" d="M1.13391 11.33855H-1.13391"/>
<use data-text="1" xlink:href="#font_1_1" transform="matrix(9.165783,0,0,-9.166333,1.0934067,16.406033)"/>
<path transform="matrix(1.00002,0,0,-1.00008,8.220551,24.676695)" stroke-width="1.59404" stroke-linecap="butt" stroke-miterlimit="10" stroke-linejoin="miter" fill="none" stroke="#000000" d="M-6.80318 0H-6.28552-5.76788-5.25023-4.73256-4.2149-3.69727-3.17961-2.66196-2.1443-1.62665-1.109-.59134-.07367 .44394 .9616 1.47923 1.99689 2.51456 3.0322 3.54985 4.0675 4.58516 5.10281 5.62047 6.13812 6.65578 7.17343 7.69109 8.20872 8.72638 9.24405 9.7617 10.27936 10.797 11.31465 11.83232 12.34996 12.86761 13.38527 13.90294 14.42058 14.93823 15.45589 15.97353 16.4912 17.00885 17.5265 18.04414 18.5618 19.07947 19.59712 20.11476 20.63242 21.15009 21.66772 22.18538 22.70303 23.22069 23.73834 24.256 24.77365 25.29129 25.80896 26.32661 26.84427 27.36191 27.87956 28.39723 28.91489 29.43253 29.95018 30.46785 30.98549 31.50314 32.0208 32.53845 33.05612 33.57376 34.09142 34.60905 35.12672 35.64438 36.16203 36.67967 37.19733 37.715 38.23265 38.75029 39.26794 39.78561 40.30325 40.8209 41.33856 41.85622 42.37389 42.89153 43.40918 43.92682 44.44449"/>
<path transform="matrix(1.00002,0,0,-1.00008,8.220551,24.676695)" stroke-width="1.59404" stroke-linecap="butt" stroke-miterlimit="10" stroke-linejoin="miter" fill="none" stroke="#000000" d="M45.35419 11.33855H45.58308 45.81198 46.04088 46.26976 46.49866 46.72755 46.95645 47.18535 47.41425 47.64314 47.87204 48.10094 48.32983 48.55873 48.78763 49.01651 49.2454 49.4743 49.7032 49.9321 50.16098 50.38988 50.61877 50.84767 51.07657 51.30547 51.53436 51.76326 51.99216 52.22105 52.44995 52.67885 52.90775 53.13664 53.36554 53.59444 53.82333 54.05222 54.28111 54.51001 54.7389 54.9678 55.1967 55.4256 55.6545 55.88339 56.11229 56.34119 56.57008 56.79897 57.02786 57.25676 57.48566 57.71455 57.94344 58.17233 58.40123 58.63013 58.85902 59.08792 59.31682 59.54572 59.77461 60.00351 60.2324 60.4613 60.6902 60.9191 61.148 61.37688 61.60577 61.83466 62.06355 62.29245 62.52135 62.75024 62.97914 63.20804 63.43694 63.66583 63.89473 64.12363 64.35252 64.58142 64.81032 65.03922 65.26811 65.49701 65.72589 65.95479 66.18369 66.41258 66.64148 66.87038 67.09927 67.32817 67.55707 67.78596 68.01485"/>
<path transform="matrix(1.00002,0,0,-1.00008,8.220551,24.676695)" stroke-width="1.19553" stroke-linecap="butt" stroke-miterlimit="10" stroke-linejoin="miter" fill="none" stroke="#000000" d="M47.34671 0C47.34671 1.10043 46.45462 1.99252 45.35419 1.99252 44.25374 1.99252 43.36166 1.10043 43.36166 0 43.36166-1.10043 44.25374-1.99252 45.35419-1.99252 46.45462-1.99252 47.34671-1.10043 47.34671 0ZM45.35419 0"/>
<path transform="matrix(1.00002,0,0,-1.00008,8.220551,24.676695)" d="M47.34671 11.33855C47.34671 12.43898 46.45462 13.33107 45.35419 13.33107 44.25374 13.33107 43.36166 12.43898 43.36166 11.33855 43.36166 10.2381 44.25374 9.34602 45.35419 9.34602 46.45462 9.34602 47.34671 10.2381 47.34671 11.33855ZM45.35419 11.33855"/>
<use data-text="O" xlink:href="#font_1_6" transform="matrix(7.332647,0,0,-7.3330867,11.942627,10.924595)" fill="#0000ff"/>
<use data-text="F" xlink:href="#font_1_4" transform="matrix(7.332647,0,0,-7.3330867,17.530098,10.924595)" fill="#0000ff"/>
<use data-text="F" xlink:href="#font_1_4" transform="matrix(7.332647,0,0,-7.3330867,21.783043,10.924595)" fill="#0000ff"/>
<use data-text="O" xlink:href="#font_1_6" transform="matrix(7.332647,0,0,-7.3330867,35.187089,10.924595)" fill="#0000ff"/>
<use data-text="F" xlink:href="#font_1_4" transform="matrix(7.332647,0,0,-7.3330867,40.77456,10.924595)" fill="#0000ff"/>
<use data-text="F" xlink:href="#font_1_4" transform="matrix(7.332647,0,0,-7.3330867,45.027505,10.924595)" fill="#0000ff"/>
<use data-text="O" xlink:href="#font_1_6" transform="matrix(7.332647,0,0,-7.3330867,59.25957,10.924595)" fill="#009900"/>
<use data-text="N" xlink:href="#font_1_5" transform="matrix(7.332647,0,0,-7.3330867,64.847049,10.924595)" fill="#009900"/>
</svg>
