<svg xmlns="http://www.w3.org/2000/svg" xmlns:xlink="http://www.w3.org/1999/xlink" version="1.1" width="202" height="77" viewBox="0 0 202 77">
<defs>
<path id="font_1_4" d="M.42799378 .45222474 .43899537 .49023438H.31199647L.34599305 .6092224 .33399964 .6162262 .23699951 .53923037 .22399903 .49023438H.14299011L.13198853 .45222474H.21499634L.125 .08627319C.10998535 .029266358 .12199402-.01171875 .17199707-.01171875 .2519989-.01171875 .31599427 .054275514 .35598756 .1292572L.33399964 .1462555C.31098939 .10726929 .2599945 .040267946 .22898865 .040267946 .20799256 .040267946 .20799256 .0632782 .21398926 .088272098L.30299378 .45222474H.42799378Z"/>
<path id="font_2_1" d="M.6349945 .2529297V.31092835H.084991458V.2529297H.6349945Z"/>
<path id="font_3_1" d="M.5239868 .14224243C.49798585 .09126282 .45799256 .039260866 .43598939 .039260866 .42399598 .039260866 .42099 .05126953 .42099 .06925964 .42099 .08026123 .42199708 .09326172 .42399598 .10624695L.49198915 .42520143H.57899478L.61898806 .5019531C.58999636 .49520875 .548996 .49121095 .5019989 .49121095H.21798706C.16699219 .49121095 .09700012 .46620179 .05899048 .4052124L.07499695 .38720704C.114990238 .41819764 .16699219 .42520143 .21998596 .42520143 .1769867 .24923706 .147995 .09225464 .09199524 .08226013 .066986087 .07826233 .034988405 .06225586 .034988405 .024261475 .034988405 .0012664795 .06599426-.01171875 .08099365-.01171875 .13398743-.01171875 .17098999 .054260255 .18899536 .09925842 .21199036 .15724182 .24699402 .28222657 .2769928 .42520143H.4019928L.33699037 .12324524C.33399964 .102249149 .33198548 .08325195 .33198548 .06726074 .33198548 .01626587 .34799195-.01171875 .38398744-.01171875 .45700074-.01171875 .5130005 .044265748 .5479889 .12825012L.5239868 .14224243Z"/>
<path id="font_4_6" d="M.4850006 .13195801 .45700074 .13696289C.43598939 .08299255 .41600038 .07598877 .37599183 .07598877H.11999512C.13598633 .1279602 .19499207 .19892884 .28799439 .2658844 .38398744 .33584596 .45799256 .38082887 .45799256 .49276734 .45799256 .63168337 .3659973 .6796875 .26098634 .6796875 .12399292 .6796875 .052993776 .5967102 .052993776 .54473879 .052993776 .51075747 .09098816 .49476625 .10798645 .49476625 .12599182 .49476625 .1329956 .50476077 .13699341 .5217438 .15299988 .5897064 .19198609 .64468386 .2539978 .64468386 .33099366 .64468386 .35299684 .5797119 .35299684 .50675967 .35299684 .3998108 .29899598 .33984376 .21199036 .26289369 .08898926 .15594483 .04598999 .08798218 .026992798 .009994507L.036987306 0H.45098878L.4850006 .13195801Z"/>
<path id="font_4_7" d="M.12998963 .3657837C.12998963 .3487854 .1349945 .33779908 .147995 .33779908 .1599884 .33779908 .18699646 .34777833 .23498535 .34777833 .31999208 .34777833 .36799623 .27090455 .36799623 .18403626 .36799623 .065216068 .30899049 .023269654 .23799134 .023269654 .17199707 .023269654 .1289978 .07319641 .10998535 .12911988 .10398865 .14808655 .09399414 .15707398 .07998657 .15707398 .06199646 .15707398 .026992798 .13809204 .026992798 .10215759 .026992798 .05921936 .09599304-.01171875 .23699951-.01171875 .38198854-.01171875 .47299195 .06121826 .47299195 .18902588 .47299195 .32281495 .35798646 .3627777 .30299378 .3677826V.3717804C.35699464 .38078309 .44400025 .4207611 .44400025 .5197296 .44400025 .6306915 .35699464 .6796875 .25 .6796875 .117996219 .6796875 .052993776 .60369876 .052993776 .5607147 .052993776 .5297241 .08799744 .51272585 .101989749 .51272585 .114990238 .51272585 .12298584 .5197296 .1269989 .5327301 .14898682 .60069277 .18699646 .64468386 .24299622 .64468386 .32199098 .64468386 .34098817 .57470706 .34098817 .51872256 .34098817 .4587555 .31999208 .38378907 .23498535 .38378907 .18699646 .38378907 .1599884 .39378358 .147995 .39378358 .1349945 .39378358 .12998963 .38378907 .12998963 .3657837Z"/>
<path id="font_4_5" d="M.43699647 0V.0289917L.35299684 .035995485C.33198548 .037994386 .31999208 .04598999 .31999208 .08496094V.67367556L.31498719 .6796875 .10899353 .6446991V.6197052L.20199585 .6087036C.21899414 .6067047 .22599793 .5987091 .22599793 .56973269V.08496094C.22599793 .065979007 .22299195 .053985597 .21699524 .04698181 .21199036 .039993287 .20399475 .036987306 .19299317 .035995485L.10899353 .0289917V0H.43699647Z"/>
<path id="font_1_1" d="M.33999635 .46694947C.36999513 .46694947 .41999818 .4519348 .41999818 .38290406 .41999818 .28987123 .37199403 .21484375 .29699708 .21484375 .24398804 .21484375 .21398926 .2508545 .21398926 .3008728 .21398926 .36390687 .24499512 .46694947 .33999635 .46694947M.45700074 .4719391C.43099977 .48895265 .38198854 .5019531 .33299256 .5019531 .16899109 .5019531 .11999512 .38891603 .11999512 .31788636 .11999512 .24385071 .17399597 .20584107 .20399475 .19483948V.19284058C.17298889 .17984009 .11299133 .15783692 .11299133 .11782837 .11299133 .08482361 .14299011 .061828615 .18399048 .04283142V.04081726C.115997318 .028823853 .02999878-.013183594 .02999878-.096191409 .02999878-.18519593 .12298584-.2421875 .25-.2421875 .3849945-.2421875 .49398805-.18519593 .49398805-.07518005 .49398805-.00018310547 .43699647 .05381775 .31900025 .081832889 .23498535 .1018219 .19799805 .11582947 .19799805 .14382935 .19799805 .16282654 .21798706 .1768341 .24198914 .18283081 .2619934 .17984009 .2809906 .17984009 .29599 .17984009 .43499757 .17984009 .5119934 .25585938 .5119934 .35890199 .5119934 .38591004 .5039978 .4109192 .4909973 .42793275L.57499697 .4399414 .60798647 .50294497 .60198977 .51194766 .45700074 .4719391M.27198792-.2071991C.18499756-.2071991 .12199402-.15919495 .12199402-.08718872 .12199402-.015182495 .18699646 .018829346 .22799683 .02482605 .29100038 .015823365 .40899659-.010177612 .40899659-.094192508 .40899659-.17019654 .34700013-.2071991 .27198792-.2071991Z"/>
<path id="font_4_1" d="M.1749878 .2822113C.1749878 .56832888 .2619934 .65437319 .32499696 .66737368V.6923828C.1499939 .685379 .10499573 .46829225 .10499573 .2822113 .10499573 .09614563 .1499939-.12094116 .32499696-.12792969V-.10293579C.2669983-.090927127 .1749878-.0059051516 .1749878 .2822113Z"/>
<path id="font_4_2" d="M.1749878 .2822113C.1749878-.0059051516 .08299255-.090927127 .024993897-.10293579V-.12792969C.19999695-.12094116 .24499512 .09614563 .24499512 .2822113 .24499512 .46829225 .19999695 .685379 .024993897 .6923828V.66737368C.08799744 .65437319 .1749878 .56832888 .1749878 .2822113Z"/>
<path id="font_2_5" d="M.6349945 .14315796V.20117188H.084991458V.14315796H.6349945M.6349945 .36288453V.42089845H.084991458V.36288453H.6349945Z"/>
<path id="font_4_4" d="M.2649994 .64468386C.3600006 .64468386 .3869934 .49682618 .3869934 .33398438 .3869934 .17112732 .3600006 .023269654 .2649994 .023269654 .16999817 .023269654 .14299011 .17112732 .14299011 .33398438 .14299011 .49682618 .16999817 .64468386 .2649994 .64468386M.2649994 .6796875C.099990848 .6796875 .040985109 .53378298 .040985109 .33398438 .040985109 .13417053 .099990848-.01171875 .2649994-.01171875 .42999269-.01171875 .4889984 .13417053 .4889984 .33398438 .4889984 .53378298 .42999269 .6796875 .2649994 .6796875Z"/>
<path id="font_2_6" d="M.6349945 .07472229 .17298889 .28173829 .6349945 .48875428V.5517578L.084991458 .31674195V.24673462L.6349945 .01171875V.07472229Z"/>
<path id="font_1_3" d="M.29899598 .023269654C.2599945 .023269654 .23298645 .03427124 .21099854 .053253175 .22399903 .11720276 .2519989 .21911621 .2899933 .28607179 .33799745 .37001039 .41099549 .44995118 .46798707 .44995118 .5039978 .44995118 .5219879 .41996766 .5219879 .3670044 .5219879 .28807069 .46299745 .023269654 .29899598 .023269654M.1459961-.23016358 .20098877 .010269165C.22200012-.0027313233 .25698854-.01171875 .30899049-.01171875 .55400088-.01171875 .62098696 .29206849 .62098696 .36801148 .62098696 .4549408 .58399966 .5019531 .5099945 .5019531 .43299867 .5019531 .33399964 .42895509 .2579956 .28607179H.25498963L.31199647 .4970703 .30699159 .50205996 .12599182 .47375489 .11999512 .44995118 .18199158 .4449463C.20599365 .4429474 .20399475 .42695619 .19699097 .39698792L.056991579-.2421875 .1459961-.23016358Z"/>
<path id="font_1_2" d="M.13198853 .47375489 .12599182 .4497528 .18299866 .44476319C.20999146 .44276429 .21299744 .43377687 .20399475 .39881898L.11999512 .08621216C.10499573 .029266358 .117996219-.01171875 .17199707-.01171875 .24398804-.01171875 .2999878 .056259157 .33399964 .13215637L.30999757 .14613343C.2919922 .111190799 .24798584 .040267946 .21998596 .040267946 .19999695 .040267946 .20098877 .06324768 .20999146 .095199588L.31900025 .4970703 .31399537 .5020447 .13198853 .47375489M.30899049 .71484377C.2659912 .71484377 .24398804 .6808319 .24398804 .6488342 .24398804 .61183169 .2689972 .5928345 .29899598 .5928345 .33799745 .5928345 .36299134 .6198425 .36299134 .6598358 .36299134 .6988373 .33699037 .71484377 .30899049 .71484377Z"/>
<path id="font_2_2" d="M.14898682 .33818055C.18199158 .3171997 .2630005 .29719544 .27598573 .2902069 .27799989 .288208 .2809906 .28720094 .2809906 .2822113 .2809906 .2782135 .27799989 .2762146 .27598573 .27520753 .2630005 .268219 .18199158 .24821472 .147995 .22721863 .13198853 .21922302 .125 .2122345 .125 .20223999 .125 .19624329 .12799073 .18823242 .13398743 .1772461 .14299011 .16125489 .1499939 .1542511 .1599884 .1542511 .16699219 .1542511 .17399597 .1582489 .18499756 .1642456 .21998596 .1832428 .2769928 .2432251 .2899933 .25021363 .2919922 .2512207 .2939911 .25221253 .29499818 .25221253 .29599 .25221253 .2979889 .25221253 .29899598 .2512207 .3019867 .2492218 .3019867 .24621582 .3019867 .24421692 .3019867 .22822571 .27999879 .14924622 .27999879 .10826111 .27999879 .07728577 .2869873 .07128906 .31698609 .07128906 .34298707 .07128906 .35299684 .07627869 .35299684 .09927368V.11227417C.35299684 .15325928 .33099366 .22822571 .33099366 .2432251 .33099366 .24621582 .33099366 .2492218 .33499146 .2512207 .33599855 .25221253 .33699037 .25221253 .33799745 .25221253 .33999635 .25221253 .34199525 .2512207 .34298707 .25021363 .35598756 .2432251 .4139862 .1832428 .44898988 .1622467 .45799256 .15625 .46699525 .1542511 .47299195 .1542511 .48199464 .1542511 .4909973 .16125489 .49899293 .1772461 .5049896 .18823242 .5089874 .19624329 .5089874 .20223999 .5089874 .2122345 .5019989 .21922302 .48599244 .22721863 .45098878 .24821472 .37098695 .268219 .35798646 .27520753 .35499574 .2762146 .35299684 .2782135 .35299684 .2822113 .35299684 .28720094 .35499574 .288208 .35798646 .2902069 .37098695 .29719544 .45098878 .3171997 .48599244 .33818055 .5019989 .34718324 .5089874 .354187 .5089874 .36418153 .5089874 .37017823 .5049896 .37716676 .49899293 .38816834 .4909973 .40415956 .48399354 .41215516 .47399903 .41215516 .46798707 .41215516 .45999146 .40815736 .44898988 .40116883 .4139862 .38217164 .35598756 .32218934 .34298707 .3152008 .34199525 .31419374 .34098817 .31219483 .33799745 .31219483 .33699037 .31219483 .33599855 .31219483 .33499146 .31419374 .33099366 .31619264 .33099366 .31819154 .33099366 .32218934 .33099366 .33618165 .35398866 .41716004 .35398866 .45614625 .35398866 .48612977 .34700013 .49414063 .31698609 .49414063 .2869873 .49414063 .27999879 .48612977 .27999879 .45614625 .27999879 .41716004 .3019867 .33618165 .3019867 .32218934 .3019867 .31819154 .3019867 .31619264 .29899598 .31419374 .2979889 .31219483 .29599 .31219483 .29499818 .31219483 .2939911 .31219483 .2919922 .31219483 .2899933 .31419374 .2769928 .32218934 .21998596 .38116456 .18499756 .40116883 .17399597 .40716554 .1659851 .41116334 .1599884 .41116334 .1499939 .41116334 .14299011 .40415956 .13398743 .38816834 .12799073 .37716676 .125 .37017823 .125 .36317445 .125 .35317994 .13198853 .34617616 .14898682 .33818055Z"/>
<path id="font_4_3" d="M.1329956-.01171875C.17199707-.01171875 .19499207 .015274048 .19599915 .05126953 .19599915 .088272098 .17199707 .11627197 .1329956 .11627197 .09498596 .11627197 .069992069 .088272098 .069992069 .05126953 .069992069 .015274048 .09498596-.01171875 .1329956-.01171875Z"/>
<path id="font_4_8" d="M.42599488 .5919647 .44999696 .6599579 .44499208 .66796877H.11099243L.100997928 .65896609 .08099365 .32388307 .10499573 .31188966C.14698792 .35983277 .18798828 .3828125 .24198914 .3828125 .30599977 .3828125 .37599183 .3358612 .37599183 .20404053 .37599183 .10116577 .33399964 .023269654 .24699402 .023269654 .1769867 .023269654 .14099121 .07420349 .12098694 .13113404 .115997318 .14611817 .10699463 .15510559 .09298706 .15510559 .07299805 .15510559 .039993287 .13513184 .039993287 .10217285 .039993287 .056228639 .10998535-.01171875 .23999024-.01171875 .40499879-.01171875 .47999574 .0881958 .47999574 .21502686 .47999574 .35484315 .3919983 .4268036 .272995 .4268036 .21798706 .4268036 .15899658 .4028015 .1269989 .3738098L.125 .37580873 .147995 .56292727C.15098572 .58795168 .1579895 .5919647 .1769867 .5919647H.42599488Z"/>
<path id="font_2_3" d="M.6349945 .20620728 .17298889 .3572235 .6349945 .5092468V.5722656L.084991458 .39222718V.32221986L.6349945 .14318848V.20620728M.6349945-.0078125V.050186159H.084991458V-.0078125H.6349945Z"/>
<path id="font_2_4" d="M.6349945-.0078125V.050186159H.084991458V-.0078125H.6349945M.084991458 .14318848 .6349945 .32221986V.39222718L.084991458 .5722656V.5092468L.5469971 .3572235 .084991458 .20620728V.14318848Z"/>
</defs>
<path transform="matrix(1.00006,0,0,-1.00006,69.726139,47.954095)" d="M-68.03302-27.2133V27.2133H26.7163V-27.2133ZM26.7163 27.2133" fill="#d9d9ff"/>
<path transform="matrix(1.00006,0,0,-1.00006,69.726139,47.954095)" d="M26.7163-27.2133V27.2133H106.86581V-27.2133ZM106.86581 27.2133" fill="#d9f0d9"/>
<path transform="matrix(1.00006,0,0,-1.00006,69.726139,47.954095)" d="M106.86581-27.2133V27.2133H119.0578V-27.2133ZM119.0578 27.2133" fill="#d9d9ff"/>
<path transform="matrix(1.00006,0,0,-1.00006,69.726139,47.954095)" stroke-width=".19925" stroke-linecap="butt" stroke-dasharray="2.98883,2.98883" stroke-miterlimit="10" stroke-linejoin="miter" fill="none" stroke="#000000" d="M106.86581-27.2133V27.2133"/>
<path transform="matrix(1.00006,0,0,-1.00006,69.726139,47.954095)" stroke-width=".19925" stroke-linecap="butt" stroke-dasharray="2.98883,2.98883" stroke-miterlimit="10" stroke-linejoin="miter" fill="none" stroke="#000000" d="M26.7163-27.2133V27.2133"/>
<path transform="matrix(1.00006,0,0,-1.00006,69.726139,47.954095)" stroke-width=".3985" stroke-linecap="butt" stroke-miterlimit="10" stroke-linejoin="miter" fill="none" stroke="#000000" d="M-68.03302 0H118.59952"/>
<path transform="matrix(1.00006,0,0,-1.00006,188.33277,47.954095)" stroke-width=".31879" stroke-linecap="round" stroke-linejoin="round" fill="none" stroke="#000000" d="M-1.19551 1.59401C-1.09587 .99626 0 .09961 .29886 0 0-.09961-1.09587-.99626-1.19551-1.59401"/>
<path transform="matrix(1.00006,0,0,-1.00006,69.726139,47.954095)" stroke-width=".3985" stroke-linecap="butt" stroke-miterlimit="10" stroke-linejoin="miter" fill="none" stroke="#000000" d="M0-27.2133V26.75502"/>
<path transform="matrix(0,-1.00006,-1.00006,-0,69.726139,21.19747)" stroke-width=".31879" stroke-linecap="round" stroke-linejoin="round" fill="none" stroke="#000000" d="M-1.19551 1.59401C-1.09587 .99626 0 .09961 .29886 0 0-.09961-1.09587-.99626-1.19551-1.59401"/>
<use data-text="t" xlink:href="#font_1_4" transform="matrix(9.166149,0,0,-9.166149,185.13806,57.002637)"/>
<path transform="matrix(1.00006,0,0,-1.00006,69.726139,47.954095)" stroke-width=".3985" stroke-linecap="butt" stroke-miterlimit="10" stroke-linejoin="miter" fill="none" stroke="#929292" d="M-53.43289 1.19554V-1.19554"/>
<use data-text="&#x2212;" xlink:href="#font_2_1" transform="matrix(7.3329398,0,0,-7.3329398,11.260628,56.175588)"/>
<use data-text="&#x03c0;" xlink:href="#font_3_1" transform="matrix(7.3329398,0,0,-7.3329398,16.537941,56.176588)"/>
<path transform="matrix(1.00006,0,0,-1.00006,69.726139,47.954095)" stroke-width=".3985" stroke-linecap="butt" stroke-miterlimit="10" stroke-linejoin="miter" fill="none" stroke="#929292" d="M-26.7163 1.19554V-1.19554"/>
<use data-text="&#x2212;" xlink:href="#font_2_1" transform="matrix(7.3329398,0,0,-7.3329398,37.14218,58.771745)"/>
<use data-text="&#x03c0;" xlink:href="#font_3_1" transform="matrix(6.232974,0,0,-6.232974,43.61458,55.631559)"/>
<path transform="matrix(1.00006,0,0,-1.00006,-98.58795,23.813649)" stroke-width=".4253" stroke-linecap="butt" stroke-miterlimit="10" stroke-linejoin="miter" fill="none" stroke="#000000" d="M142.194-32.892H146.259"/>
<use data-text="2" xlink:href="#font_4_6" transform="matrix(6.232974,0,0,-6.232974,43.9946,61.52191)"/>
<path transform="matrix(1.00006,0,0,-1.00006,69.726139,47.954095)" stroke-width=".3985" stroke-linecap="butt" stroke-miterlimit="10" stroke-linejoin="miter" fill="none" stroke="#929292" d="M26.7163 1.19554V-1.19554"/>
<use data-text="&#x03c0;" xlink:href="#font_3_1" transform="matrix(6.232974,0,0,-6.232974,94.41162,55.631555)"/>
<path transform="matrix(1.00006,0,0,-1.00006,-42.514589,23.813649)" stroke-width=".4253" stroke-linecap="butt" stroke-miterlimit="10" stroke-linejoin="miter" fill="none" stroke="#000000" d="M136.918-32.892H140.983"/>
<use data-text="2" xlink:href="#font_4_6" transform="matrix(6.232974,0,0,-6.232974,94.79065,61.52191)"/>
<path transform="matrix(1.00006,0,0,-1.00006,69.726139,47.954095)" stroke-width=".3985" stroke-linecap="butt" stroke-miterlimit="10" stroke-linejoin="miter" fill="none" stroke="#929292" d="M53.43289 1.19554V-1.19554"/>
<use data-text="&#x03c0;" xlink:href="#font_3_1" transform="matrix(7.3329398,0,0,-7.3329398,120.771198,56.175588)"/>
<path transform="matrix(1.00006,0,0,-1.00006,69.726139,47.954095)" stroke-width=".3985" stroke-linecap="butt" stroke-miterlimit="10" stroke-linejoin="miter" fill="none" stroke="#929292" d="M80.14922 1.19554V-1.19554"/>
<use data-text="3" xlink:href="#font_4_7" transform="matrix(6.232974,0,0,-6.232974,146.19474,56.72262)"/>
<use data-text="&#x03c0;" xlink:href="#font_3_1" transform="matrix(6.232974,0,0,-6.232974,149.50092,56.72262)"/>
<path transform="matrix(1.00006,0,0,-1.00006,9.268517,24.904713)" stroke-width=".4253" stroke-linecap="butt" stroke-miterlimit="10" stroke-linejoin="miter" fill="none" stroke="#000000" d="M136.918-32.892H144.289"/>
<use data-text="2" xlink:href="#font_4_6" transform="matrix(6.232974,0,0,-6.232974,148.22684,62.612977)"/>
<path transform="matrix(1.00006,0,0,-1.00006,69.726139,47.954095)" stroke-width=".3985" stroke-linecap="butt" stroke-miterlimit="10" stroke-linejoin="miter" fill="none" stroke="#929292" d="M106.86581 1.19554V-1.19554"/>
<use data-text="2" xlink:href="#font_4_6" transform="matrix(7.3329398,0,0,-7.3329398,172.26229,57.458665)"/>
<use data-text="&#x03c0;" xlink:href="#font_3_1" transform="matrix(7.3329398,0,0,-7.3329398,176.15253,57.459665)"/>
<path transform="matrix(1.00006,0,0,-1.00006,69.726139,47.954095)" stroke-width=".3985" stroke-linecap="butt" stroke-miterlimit="10" stroke-linejoin="miter" fill="none" stroke="#929292" d="M1.19554-17.00824H-1.19554"/>
<use data-text="&#x2212;" xlink:href="#font_2_1" transform="matrix(7.3329398,0,0,-7.3329398,55.96531,67.41826)"/>
<use data-text="1" xlink:href="#font_4_5" transform="matrix(7.3329398,0,0,-7.3329398,61.242624,67.419269)"/>
<path transform="matrix(1.00006,0,0,-1.00006,69.726139,47.954095)" stroke-width=".3985" stroke-linecap="butt" stroke-miterlimit="10" stroke-linejoin="miter" fill="none" stroke="#929292" d="M1.19554 17.00824H-1.19554"/>
<use data-text="1" xlink:href="#font_4_5" transform="matrix(7.3329398,0,0,-7.3329398,61.241624,33.400224)"/>
<path transform="matrix(1.00006,0,0,-1.00006,69.726139,47.954095)" stroke-width=".3985" stroke-linecap="butt" stroke-miterlimit="10" stroke-linejoin="miter" fill="none" stroke="#929292" d="M1.19554 17.00824H-1.19554"/>
<path transform="matrix(1.00006,0,0,-1.00006,69.726139,47.954095)" stroke-width="1.59404" stroke-linecap="butt" stroke-miterlimit="10" stroke-linejoin="miter" fill="none" stroke="#990000" d="M-68.03302 0H-67.56976-67.1065-66.64326-66.18001-65.71675-65.2535-64.79025-64.327-63.86374-63.40048-62.93723-62.47398-62.01073-61.54747-61.08421-60.62097-60.15771-59.69447-59.23122-58.76797-58.3047-57.84145-57.3782-56.91495-56.45169-55.98843-55.52519-55.06194-54.59868-54.13542-53.67218-53.20892-52.74567-52.28241-51.81915-51.35591-50.89265-50.42941-49.96616-49.50291-49.03964-48.5764-48.11314-47.64989-47.18663-46.72337-46.26013-45.79688-45.33362-44.87036-44.40712-43.94386-43.48062-43.01736-42.5541-42.09085-41.6276-41.16435-40.7011-40.23785-39.7746-39.31134-38.84808-38.38484-37.92157-37.45833-36.99507-36.53181-36.06856-35.6053-35.14206-34.6788-34.21556-33.7523-33.28905-32.82579-32.36255-31.89929-31.43604-30.9728-30.50954-30.04628-29.58302-29.11978-28.65651-28.19327-27.73001-27.26677-26.8035-26.34024-25.877-25.41374-24.9505-24.48724-24.024-23.56073-23.09749-22.63423-22.17099-21.70773-21.24448-20.78122-20.31796-19.85472-19.39145-18.9282-18.46495-18.00171-17.53844-17.0752-16.61194-16.14868-15.68544-15.22218-14.75894-14.29567-13.83243-13.36917-12.90593-12.44267-11.97943-11.51616-11.05292-10.58966-10.12639-9.66315-9.19989-8.73665-8.27339-7.81013-7.34688-6.88364-6.42038-5.95714-5.49388-5.03061-4.56737-4.10411-3.64087-3.17761-2.71437-2.2511-1.78786-1.3246-.86134-.39809 .06512 .52837 .99162 1.45488 1.91814 2.38138 2.84464 3.30789 3.77115 4.23439 4.69765 5.16092 5.62416 6.08742 6.55066 7.01392 7.47716 7.94043 8.40367 8.86693 9.33017 9.79343 10.25668 10.71994 11.1832 11.64644 12.1097 12.57295 13.03621 13.49945 13.9627 14.42596 14.88922 15.35246 15.81572 16.27898 16.74222 17.20549 17.66873 18.13199 18.59523 19.05849 19.52173 19.98499 20.44824 20.9115 21.37476 21.83801 22.30127 22.76451 23.22777 23.69102 24.15428"/>
<path transform="matrix(1.00006,0,0,-1.00006,69.726139,47.954095)" stroke-width=".79701" stroke-linecap="butt" stroke-dasharray="2.98883,2.98883" stroke-miterlimit="10" stroke-linejoin="miter" fill="none" stroke="#009900" d="M26.7163 17.00824H27.11028 27.50423 27.8982 28.29213 28.68611 29.08006 29.47403 29.86797 30.26195 30.65591 31.04987 31.44383 31.83778 32.23175 32.6257 33.01967 33.41362 33.80759 34.20154 34.5955 34.98946 35.38342 35.77737 36.17134 36.56529 36.95926 37.35321 37.74718 38.14113 38.5351 38.92905 39.32301 39.71696 40.11093 40.5049 40.89885 41.2928 41.68677 42.08073 42.4747 42.86864 43.2626 43.65657 44.05054 44.44449 44.83844 45.23242 45.62637 46.02032 46.41429 46.80826 47.20221 47.59618 47.99013 48.3841 48.77805 49.17201 49.56596 49.95993 50.35388 50.74785 51.1418 51.53577 51.92972 52.32368 52.71764 53.1116 53.50555 53.89952 54.29347 54.68744 55.08139 55.47536 55.86931 56.26328 56.65723 57.0512 57.44516 57.83911 58.23308 58.62704 59.021 59.41495 59.80893 60.20288 60.59683 60.99078 61.38477 61.77872 62.17268 62.56662 62.9606 63.35455 63.74852 64.14246 64.53644 64.93039 65.32436 65.71829 66.11227 66.50623 66.90019 67.29414 67.68811 68.08206 68.47603 68.86998 69.26395 69.6579 70.05186 70.44582 70.83978 71.23375 71.6277 72.02167 72.41562 72.80959 73.20354 73.5975 73.99146 74.38542 74.77939 75.17334 75.56729 75.96126 76.35522 76.74918 77.14313 77.5371 77.93106 78.32503 78.71896 79.11293 79.5069 79.90086 80.2948 80.68878 81.08273 81.4767 81.87064 82.26462 82.65857 83.05254 83.44649 83.84045 84.2344 84.62837 85.02234 85.41629 85.81026 86.20421 86.59818 86.99213 87.3861 87.78004 88.17401 88.56796 88.96193 89.35588 89.74985 90.1438 90.53777 90.93172 91.32568 91.71964 92.1136 92.50755 92.90152 93.29547 93.68944 94.0834 94.47737 94.8713 95.26527 95.65924 96.0532 96.44714 96.84111 97.23508 97.62904 98.023 98.41695 98.81093 99.20488 99.59885 99.9928 100.38676 100.78072 101.17468 101.56863 101.9626 102.35655 102.75052 103.14447 103.53844 103.93239 104.32635 104.7203 105.11427"/>
<path transform="matrix(1.00006,0,0,-1.00006,69.726139,47.954095)" stroke-width="1.59404" stroke-linecap="butt" stroke-miterlimit="10" stroke-linejoin="miter" fill="none" stroke="#990000" d="M26.7163 17.00798 27.11028 17.00278 27.50423 16.98929 27.8982 16.96698 28.29213 16.93427 28.68611 16.89352 29.08006 16.84396 29.47403 16.78453 29.86797 16.71626 30.26195 16.63971 30.65591 16.55328 31.04987 16.45857 31.44383 16.35501 31.83778 16.24213 32.23175 16.12117 32.6257 15.99168 33.01967 15.85283 33.41362 15.70595 33.80759 15.55075 34.20154 15.38698 34.5955 15.21492 34.98946 15.03506 35.38342 14.84665 35.77737 14.65044 36.17134 14.44698 36.56529 14.23494 36.95926 14.01538 37.35321 13.78882 37.74718 13.55447 38.14113 13.31259 38.5351 13.06398 38.92905 12.80861 39.32301 12.54544 39.71696 12.27658 40.11093 12.00043 40.5049 11.71808 40.89885 11.42947 41.2928 11.13518 41.68677 10.83386 42.08073 10.52737 42.4747 10.21542 42.86864 9.89749 43.2626 9.5744 43.65657 9.24687 44.05054 8.91313 44.44449 8.57549 44.83844 8.23315 45.23242 7.88618 45.62637 7.53477 46.02032 7.17975 46.41429 6.82057 46.80826 6.45802 47.20221 6.09207 47.59618 5.72252 47.99013 5.3501 48.3841 4.97482 48.77805 4.59644 49.17201 4.21597 49.56596 3.83344 49.95993 3.44882 50.35388 3.06187 50.74785 2.67361 51.1418 2.28406 51.53577 1.8927 51.92972 1.50108 52.32368 1.10841 52.71764 .7147 53.1116 .32127 53.50555-.07239 53.89952-.46634 54.29347-.85979 54.68744-1.25298 55.08139-1.64539 55.47536-2.03726 55.86931-2.42758 56.26328-2.81662 56.65723-3.2046 57.0512-3.59052 57.44516-3.97435 57.83911-4.35638 58.23308-4.73607 58.62704-5.1134 59.021-5.48766 59.41495-5.85928 59.80893-6.22704 60.20288-6.5922 60.59683-6.95346 60.99078-7.3108 61.38477-7.6648 61.77872-8.01439 62.17268-8.3598 62.56662-8.70058 62.9606-9.03665 63.35455-9.36781 63.74852-9.69403 64.14246-10.01534 64.53644-10.3309 64.93039-10.64104 65.32436-10.94572 65.71829-11.24393 66.11227-11.53667 66.50623-11.82318 66.90019-12.10294 67.29414-12.37622 67.68811-12.64328 68.08206-12.90332 68.47603-13.1561 68.86998-13.40291 69.26395-13.64168 69.6579-13.87291 70.05186-14.09767 70.44582-14.31358 70.83978-14.5225 71.23375-14.72415 71.6277-14.91698 72.02167-15.10202 72.41562-15.27927 72.80959-15.44797 73.20354-15.60863 73.5975-15.76122 73.99146-15.90472 74.38542-16.03995 74.77939-16.16711 75.17334-16.28442 75.56729-16.39368 75.96126-16.4949 76.35522-16.58598 76.74918-16.66852 77.14313-16.74274 77.5371-16.80736 77.93106-16.86292 78.32503-16.90988 78.71896-16.94751 79.11293-16.9758 79.5069-16.99551 79.90086-17.0059 80.2948-17.00693 80.68878-16.99916 81.08273-16.98203 81.4767-16.95557 81.87064-16.9205 82.26462-16.87666 82.65857-16.82268 83.05254-16.76039 83.44649-16.68929 83.84045-16.6083 84.2344-16.51956 84.62837-16.42146 85.02234-16.31401 85.41629-16.19852 85.81026-16.07474 86.20421-15.94107 86.59818-15.79962 86.99213-15.64989 87.3861-15.4908 87.78004-15.32417 88.17401-15.14977 88.56796-14.9663 88.96193-14.77528 89.35588-14.57649 89.74985-14.36938 90.1438-14.15477 90.53777-13.93312 90.93172-13.70291 91.32568-13.46573 91.71964-13.22176 92.1136-12.97028 92.50755-12.71179 92.90152-12.44734 93.29547-12.17537 93.68944-11.8969 94.0834-11.61244 94.47737-11.32126 94.8713-11.02411 95.26527-10.7215 95.65924-10.41264 96.0532-10.09837 96.44714-9.77914 96.84111-9.45396 97.23508-9.12386 97.62904-8.78934 98.023-8.44962 98.41695-8.10521 98.81093-7.75694 99.20488-7.40424 99.59885-7.04764 99.9928-6.68744 100.38676-6.32332 100.78072-5.95584 101.17468-5.5855 101.56863-5.21176 101.9626-4.8352 102.35655-4.45654 102.75052-4.07504 103.14447-3.69173 103.53844-3.30608 103.93239-2.91861 104.32635-2.52983 104.7203-2.13976 105.11427-1.7484"/>
<path transform="matrix(1.00006,0,0,-1.00006,69.726139,47.954095)" stroke-width="1.59404" stroke-linecap="butt" stroke-miterlimit="10" stroke-linejoin="miter" fill="none" stroke="#990000" d="M106.86581 0H106.92705 106.9883 107.04956 107.11081 107.17206 107.2333 107.29454 107.35579 107.41704 107.47829 107.53954 107.60078 107.66203 107.72328 107.78453 107.84578 107.90703 107.96828 108.02953 108.09076 108.15201 108.21327 108.27452 108.33577 108.39702 108.45827 108.5195 108.58075 108.642 108.70325 108.7645 108.82574 108.887 108.94824 109.00949 109.07074 109.13199 109.19324 109.25449 109.31572 109.37697 109.43823 109.49948 109.56073 109.62198 109.68321 109.74446 109.80571 109.86696 109.9282 109.98946 110.0507 110.11195 110.1732 110.23445 110.2957 110.35695 110.4182 110.47945 110.54068 110.60194 110.6632 110.72444 110.78569 110.84694 110.90817 110.96942 111.03067 111.09192 111.15317 111.21442 111.27567 111.33691 111.39816 111.45941 111.52066 111.58191 111.64316 111.70439 111.76564 111.8269 111.88815 111.9494 112.01065 112.0719 112.13313 112.19438 112.25563 112.31688 112.37813 112.43938 112.50063 112.56187 112.62312 112.68437 112.74562 112.80687 112.86812 112.92935 112.99062 113.05186 113.11311 113.17436 113.23561 113.29684 113.3581 113.41934 113.48059 113.54184 113.60309 113.66434 113.72559 113.78683 113.84808 113.90933 113.97058 114.03183 114.09308 114.15431 114.21558 114.27682 114.33807 114.39932 114.46057 114.5218 114.58305 114.6443 114.70555 114.7668 114.82805 114.8893 114.95055 115.0118 115.07304 115.1343 115.19554 115.25679 115.31802 115.37929 115.44054 115.50179 115.56303 115.62428 115.68553 115.74677 115.80801 115.86926 115.93051 115.99176 116.05301 116.11426 116.1755 116.23676 116.298 116.35925 116.4205 116.48175 116.54298 116.60425 116.6655 116.72675 116.788 116.84924 116.91049 116.97173 117.03297 117.09422 117.15547 117.21672 117.27797 117.33922 117.40047 117.46172 117.52296 117.58421 117.64546 117.70671 117.76796 117.82921 117.89046 117.9517 118.01295 118.0742 118.13544 118.19669 118.25793 118.31918 118.38043 118.44168 118.50293 118.56418 118.62543 118.68668 118.74792 118.80917 118.87042 118.93166 118.99292 119.05417"/>
<path transform="matrix(1.00006,0,0,-1.00006,69.726139,47.954095)" d="M28.50961 17.00824C28.50961 17.99866 27.70673 18.80156 26.7163 18.80156 25.72588 18.80156 24.92299 17.99866 24.92299 17.00824 24.92299 16.01782 25.72588 15.21492 26.7163 15.21492 27.70673 15.21492 28.50961 16.01782 28.50961 17.00824ZM26.7163 17.00824" fill="#009900"/>
<path transform="matrix(1.00006,0,0,-1.00006,69.726139,47.954095)" stroke-width="1.19553" stroke-linecap="butt" stroke-miterlimit="10" stroke-linejoin="miter" fill="none" stroke="#990000" d="M29.70515 0C29.70515 1.65071 28.36702 2.98885 26.7163 2.98885 25.06558 2.98885 23.72743 1.65071 23.72743 0 23.72743-1.65071 25.06558-2.98885 26.7163-2.98885 28.36702-2.98885 29.70515-1.65071 29.70515 0ZM26.7163 0"/>
<path transform="matrix(1.00006,0,0,-1.00006,69.726139,47.954095)" d="M29.70515 17.00798C29.70515 18.6587 28.36702 19.99684 26.7163 19.99684 25.06558 19.99684 23.72743 18.6587 23.72743 17.00798 23.72743 15.35725 25.06558 14.01912 26.7163 14.01912 28.36702 14.01912 29.70515 15.35725 29.70515 17.00798ZM26.7163 17.00798" fill="#990000"/>
<path transform="matrix(1.00006,0,0,-1.00006,69.726139,47.954095)" stroke-width=".79701" stroke-linecap="butt" stroke-miterlimit="10" stroke-linejoin="miter" fill="none" stroke="#009900" d="M108.65913 17.00824C108.65913 17.99866 107.85623 18.80156 106.86581 18.80156 105.87538 18.80156 105.0725 17.99866 105.0725 17.00824 105.0725 16.01782 105.87538 15.21492 106.86581 15.21492 107.85623 15.21492 108.65913 16.01782 108.65913 17.00824ZM106.86581 17.00824"/>
<path transform="matrix(1.00006,0,0,-1.00006,69.726139,47.954095)" d="M109.85468 0C109.85468 1.65071 108.51654 2.98885 106.86581 2.98885 105.21509 2.98885 103.87695 1.65071 103.87695 0 103.87695-1.65071 105.21509-2.98885 106.86581-2.98885 108.51654-2.98885 109.85468-1.65071 109.85468 0ZM106.86581 0" fill="#990000"/>
<path transform="matrix(1.00006,0,0,-1.00006,69.726139,47.954095)" stroke-width="1.19553" stroke-linecap="butt" stroke-miterlimit="10" stroke-linejoin="miter" fill="none" stroke="#990000" d="M109.85468 0C109.85468 1.65071 108.51654 2.98885 106.86581 2.98885 105.21509 2.98885 103.87695 1.65071 103.87695 0 103.87695-1.65071 105.21509-2.98885 106.86581-2.98885 108.51654-2.98885 109.85468-1.65071 109.85468 0ZM106.86581 0"/>
<use data-text="g" xlink:href="#font_1_1" transform="matrix(9.166149,0,0,-9.166149,33.498964,42.302755)" fill="#0000ff"/>
<use data-text="(" xlink:href="#font_4_1" transform="matrix(9.166149,0,0,-9.166149,39.247316,42.303754)" fill="#0000ff"/>
<use data-text="t" xlink:href="#font_1_4" transform="matrix(9.166149,0,0,-9.166149,42.65451,42.302755)" fill="#0000ff"/>
<use data-text=")" xlink:href="#font_4_2" transform="matrix(9.166149,0,0,-9.166149,46.75975,42.303754)" fill="#0000ff"/>
<use data-text="=" xlink:href="#font_2_5" transform="matrix(9.166149,0,0,-9.166149,51.67305,42.302755)" fill="#0000ff"/>
<use data-text="0" xlink:href="#font_4_4" transform="matrix(9.166149,0,0,-9.166149,59.97354,42.303754)" fill="#0000ff"/>
<use data-text="g" xlink:href="#font_1_1" transform="matrix(9.166149,0,0,-9.166149,114.285808,8.284714)" fill="#009900"/>
<use data-text="(" xlink:href="#font_4_1" transform="matrix(9.166149,0,0,-9.166149,120.03416,8.285713)" fill="#009900"/>
<use data-text="t" xlink:href="#font_1_4" transform="matrix(9.166149,0,0,-9.166149,123.44135,8.284714)" fill="#009900"/>
<use data-text=")" xlink:href="#font_4_2" transform="matrix(9.166149,0,0,-9.166149,127.54659,8.285713)" fill="#009900"/>
<use data-text="=" xlink:href="#font_2_5" transform="matrix(9.166149,0,0,-9.166149,132.4599,8.284714)" fill="#009900"/>
<use data-text="t" xlink:href="#font_1_4" transform="matrix(9.166149,0,0,-9.166149,140.95938,8.285713)" fill="#009900"/>
<use data-text="&#x2212;" xlink:href="#font_2_1" transform="matrix(9.166149,0,0,-9.166149,146.28171,8.284714)" fill="#009900"/>
<use data-text="2" xlink:href="#font_4_6" transform="matrix(9.166149,0,0,-9.166149,154.09519,8.285713)" fill="#009900"/>
<use data-text="g" xlink:href="#font_1_1" transform="matrix(9.166149,0,0,-9.166149,167.12699,42.302755)" fill="#0000ff"/>
<use data-text="(" xlink:href="#font_4_1" transform="matrix(9.166149,0,0,-9.166149,172.87534,42.303754)" fill="#0000ff"/>
<use data-text="t" xlink:href="#font_1_4" transform="matrix(9.166149,0,0,-9.166149,176.28253,42.302755)" fill="#0000ff"/>
<use data-text=")" xlink:href="#font_4_2" transform="matrix(9.166149,0,0,-9.166149,180.38776,42.303754)" fill="#0000ff"/>
<use data-text="=" xlink:href="#font_2_5" transform="matrix(9.166149,0,0,-9.166149,185.30106,42.302755)" fill="#0000ff"/>
<use data-text="0" xlink:href="#font_4_4" transform="matrix(9.166149,0,0,-9.166149,193.60157,42.303754)" fill="#0000ff"/>
<use data-text="t" xlink:href="#font_1_4" transform="matrix(9.166149,0,0,-9.166149,26.751557,69.51839)" fill="#0000ff"/>
<use data-text="&#x003c;" xlink:href="#font_2_6" transform="matrix(9.166149,0,0,-9.166149,32.560914,69.51939)" fill="#0000ff"/>
<use data-text="p" xlink:href="#font_1_3" transform="matrix(9.166149,0,0,-9.166149,41.06041,69.51839)" fill="#0000ff"/>
<use data-text="i" xlink:href="#font_1_2" transform="matrix(9.166149,0,0,-9.166149,47.165056,69.51839)" fill="#0000ff"/>
<use data-text="&#x2217;" xlink:href="#font_2_2" transform="matrix(9.166149,0,0,-9.166149,52.391099,69.51939)" fill="#0000ff"/>
<use data-text="0" xlink:href="#font_4_4" transform="matrix(9.166149,0,0,-9.166149,59.42752,69.51839)" fill="#0000ff"/>
<use data-text="." xlink:href="#font_4_3" transform="matrix(9.166149,0,0,-9.166149,64.28558,69.51839)" fill="#0000ff"/>
<use data-text="5" xlink:href="#font_4_8" transform="matrix(9.166149,0,0,-9.166149,66.7146,69.51839)" fill="#0000ff"/>
<use data-text="p" xlink:href="#font_1_3" transform="matrix(9.166149,0,0,-9.166149,97.4888,69.51839)" fill="#009900"/>
<use data-text="i" xlink:href="#font_1_2" transform="matrix(9.166149,0,0,-9.166149,103.593448,69.51839)" fill="#009900"/>
<use data-text="&#x2217;" xlink:href="#font_2_2" transform="matrix(9.166149,0,0,-9.166149,108.81848,69.51939)" fill="#009900"/>
<use data-text="0" xlink:href="#font_4_4" transform="matrix(9.166149,0,0,-9.166149,115.85489,69.51839)" fill="#009900"/>
<use data-text="." xlink:href="#font_4_3" transform="matrix(9.166149,0,0,-9.166149,120.71295,69.51839)" fill="#009900"/>
<use data-text="5" xlink:href="#font_4_8" transform="matrix(9.166149,0,0,-9.166149,123.14198,69.51839)" fill="#009900"/>
<use data-text="&#x2264;" xlink:href="#font_2_3" transform="matrix(9.166149,0,0,-9.166149,129.71472,69.51939)" fill="#009900"/>
<use data-text="t" xlink:href="#font_1_4" transform="matrix(9.166149,0,0,-9.166149,138.21523,69.51839)" fill="#009900"/>
<use data-text="&#x003c;" xlink:href="#font_2_6" transform="matrix(9.166149,0,0,-9.166149,144.02458,69.51939)" fill="#009900"/>
<use data-text="2" xlink:href="#font_4_6" transform="matrix(9.166149,0,0,-9.166149,152.32509,69.51839)" fill="#009900"/>
<use data-text="&#x2217;" xlink:href="#font_2_2" transform="matrix(9.166149,0,0,-9.166149,158.40444,69.51939)" fill="#009900"/>
<use data-text="p" xlink:href="#font_1_3" transform="matrix(9.166149,0,0,-9.166149,165.63988,69.51839)" fill="#009900"/>
<use data-text="i" xlink:href="#font_1_2" transform="matrix(9.166149,0,0,-9.166149,171.74452,69.51839)" fill="#009900"/>
<use data-text="t" xlink:href="#font_1_4" transform="matrix(9.166149,0,0,-9.166149,164.02579,69.51839)" fill="#0000ff"/>
<use data-text="&#x2265;" xlink:href="#font_2_4" transform="matrix(9.166149,0,0,-9.166149,169.83515,69.51939)" fill="#0000ff"/>
<use data-text="2" xlink:href="#font_4_6" transform="matrix(9.166149,0,0,-9.166149,178.13565,69.51839)" fill="#0000ff"/>
<use data-text="&#x2217;" xlink:href="#font_2_2" transform="matrix(9.166149,0,0,-9.166149,184.215,69.51939)" fill="#0000ff"/>
<use data-text="p" xlink:href="#font_1_3" transform="matrix(9.166149,0,0,-9.166149,191.45044,69.51839)" fill="#0000ff"/>
<use data-text="i" xlink:href="#font_1_2" transform="matrix(9.166149,0,0,-9.166149,197.55509,69.51839)" fill="#0000ff"/>
</svg>
