<svg xmlns="http://www.w3.org/2000/svg" xmlns:xlink="http://www.w3.org/1999/xlink" version="1.1" width="132" height="50" viewBox="0 0 132 50">
<defs>
<path id="font_1_1" d="M.42799378 .15419007C.3939972 .10821533 .33499146 .03727722 .2679901 .03727722 .19499207 .03727722 .17999268 .097229007 .17999268 .16816712 .17999268 .29808045 .25498963 .46694947 .34700013 .46694947 .3789978 .46694947 .40098573 .44696046 .40699769 .38700868 .40899659 .36901856 .41799928 .35702516 .43598939 .35702516 .45999146 .35702516 .5 .38002015 .5 .41299439 .5 .46394349 .44599916 .5019531 .37098695 .5019531 .19299317 .5019531 .08099365 .31207276 .08099365 .14819336 .08099365 .026275635 .1539917-.01171875 .22399903-.01171875 .2979889-.01171875 .3829956 .02027893 .45199586 .13519287L.42799378 .15419007Z"/>
<path id="font_1_2" d="M.42799378 .45222474 .43899537 .49023438H.31199647L.34599305 .6092224 .33399964 .6162262 .23699951 .53923037 .22399903 .49023438H.14299011L.13198853 .45222474H.21499634L.125 .08627319C.10998535 .029266358 .12199402-.01171875 .17199707-.01171875 .2519989-.01171875 .31599427 .054275514 .35598756 .1292572L.33399964 .1462555C.31098939 .10726929 .2599945 .040267946 .22898865 .040267946 .20799256 .040267946 .20799256 .0632782 .21398926 .088272098L.30299378 .45222474H.42799378Z"/>
<path id="font_2_3" d="M.07398987 .2861328V.21612549H.31900025V.2861328H.07398987Z"/>
<path id="font_2_7" d="M.12998963 .3657837C.12998963 .3487854 .1349945 .33779908 .147995 .33779908 .1599884 .33779908 .18699646 .34777833 .23498535 .34777833 .31999208 .34777833 .36799623 .27090455 .36799623 .18403626 .36799623 .065216068 .30899049 .023269654 .23799134 .023269654 .17199707 .023269654 .1289978 .07319641 .10998535 .12911988 .10398865 .14808655 .09399414 .15707398 .07998657 .15707398 .06199646 .15707398 .026992798 .13809204 .026992798 .10215759 .026992798 .05921936 .09599304-.01171875 .23699951-.01171875 .38198854-.01171875 .47299195 .06121826 .47299195 .18902588 .47299195 .32281495 .35798646 .3627777 .30299378 .3677826V.3717804C.35699464 .38078309 .44400025 .4207611 .44400025 .5197296 .44400025 .6306915 .35699464 .6796875 .25 .6796875 .117996219 .6796875 .052993776 .60369876 .052993776 .5607147 .052993776 .5297241 .08799744 .51272585 .101989749 .51272585 .114990238 .51272585 .12298584 .5197296 .1269989 .5327301 .14898682 .60069277 .18699646 .64468386 .24299622 .64468386 .32199098 .64468386 .34098817 .57470706 .34098817 .51872256 .34098817 .4587555 .31999208 .38378907 .23498535 .38378907 .18699646 .38378907 .1599884 .39378358 .147995 .39378358 .1349945 .39378358 .12998963 .38378907 .12998963 .3657837Z"/>
<path id="font_2_6" d="M.4850006 .13195801 .45700074 .13696289C.43598939 .08299255 .41600038 .07598877 .37599183 .07598877H.11999512C.13598633 .1279602 .19499207 .19892884 .28799439 .2658844 .38398744 .33584596 .45799256 .38082887 .45799256 .49276734 .45799256 .63168337 .3659973 .6796875 .26098634 .6796875 .12399292 .6796875 .052993776 .5967102 .052993776 .54473879 .052993776 .51075747 .09098816 .49476625 .10798645 .49476625 .12599182 .49476625 .1329956 .50476077 .13699341 .5217438 .15299988 .5897064 .19198609 .64468386 .2539978 .64468386 .33099366 .64468386 .35299684 .5797119 .35299684 .50675967 .35299684 .3998108 .29899598 .33984376 .21199036 .26289369 .08898926 .15594483 .04598999 .08798218 .026992798 .009994507L.036987306 0H.45098878L.4850006 .13195801Z"/>
<path id="font_2_5" d="M.43699647 0V.0289917L.35299684 .035995485C.33198548 .037994386 .31999208 .04598999 .31999208 .08496094V.67367556L.31498719 .6796875 .10899353 .6446991V.6197052L.20199585 .6087036C.21899414 .6067047 .22599793 .5987091 .22599793 .56973269V.08496094C.22599793 .065979007 .22299195 .053985597 .21699524 .04698181 .21199036 .039993287 .20399475 .036987306 .19299317 .035995485L.10899353 .0289917V0H.43699647Z"/>
<path id="font_2_8" d="M.2999878 .17871094V.0769043C.2999878 .04296875 .2889862 .036987306 .2649994 .034988405L.20098877 .0289917V0H.46499635V.0289917L.41999818 .033981325C.39698792 .036987306 .3899994 .04296875 .3899994 .0769043V.17871094H.49299623V.22570801H.3899994V.66796877H.31698609C.22299195 .5298767 .11099243 .35577394 .018997193 .19970703L.027999878 .17871094H.2999878M.09098816 .22570801C.15098572 .33476258 .22099304 .4498291 .2979889 .5709076H.2999878V.22570801H.09098816Z"/>
<path id="font_3_1" d="M.6349945 .2529297V.31092835H.084991458V.2529297H.6349945Z"/>
<path id="font_1_3" d="M.5329895 .48995973C.5039978 .388031 .48799134 .33506776 .46199037 .2741089 .41799928 .173172 .33099366 .040267946 .24798584 .040267946 .21598816 .040267946 .20799256 .070251468 .22299195 .12820435L.31900025 .4970703 .31399537 .50205996 .13198853 .47375489 .12599182 .4497528 .18798828 .44476319C.21199036 .44276429 .21099854 .42778016 .20298767 .39682008L.13398743 .13316345C.11299133 .053253175 .12098694-.01171875 .20098877-.01171875 .29699708-.01171875 .4019928 .09420776 .46199037 .21005249H.46398927L.43099977 .096206668C.4119873 .029266358 .42399598-.01171875 .47698976-.01171875 .548996-.01171875 .60899356 .057250978 .6439972 .13116455L.6199951 .14613343C.59999087 .11218262 .55599978 .040267946 .5279999 .040267946 .5069885 .040267946 .5069885 .06324768 .5149994 .09420776L.621994 .5019531 .5329895 .48995973Z"/>
<path id="font_2_1" d="M.1749878 .2822113C.1749878 .56832888 .2619934 .65437319 .32499696 .66737368V.6923828C.1499939 .685379 .10499573 .46829225 .10499573 .2822113 .10499573 .09614563 .1499939-.12094116 .32499696-.12792969V-.10293579C.2669983-.090927127 .1749878-.0059051516 .1749878 .2822113Z"/>
<path id="font_2_2" d="M.1749878 .2822113C.1749878-.0059051516 .08299255-.090927127 .024993897-.10293579V-.12792969C.19999695-.12094116 .24499512 .09614563 .24499512 .2822113 .24499512 .46829225 .19999695 .685379 .024993897 .6923828V.66737368C.08799744 .65437319 .1749878 .56832888 .1749878 .2822113Z"/>
<path id="font_3_2" d="M.6349945 .14315796V.20117188H.084991458V.14315796H.6349945M.6349945 .36288453V.42089845H.084991458V.36288453H.6349945Z"/>
<path id="font_2_4" d="M.2649994 .64468386C.3600006 .64468386 .3869934 .49682618 .3869934 .33398438 .3869934 .17112732 .3600006 .023269654 .2649994 .023269654 .16999817 .023269654 .14299011 .17112732 .14299011 .33398438 .14299011 .49682618 .16999817 .64468386 .2649994 .64468386M.2649994 .6796875C.099990848 .6796875 .040985109 .53378298 .040985109 .33398438 .040985109 .13417053 .099990848-.01171875 .2649994-.01171875 .42999269-.01171875 .4889984 .13417053 .4889984 .33398438 .4889984 .53378298 .42999269 .6796875 .2649994 .6796875Z"/>
<path id="font_2_12" d="M.18998719 .7480469C.13999939 .7020416 .07199097 .6350403 .07199097 .56404116 .07199097 .5100403 .10398865 .47703553 .13699341 .4780426 .16699219 .4780426 .18499756 .4990387 .18499756 .5260315 .18499756 .56204226 .1519928 .58303835 .1519928 .6200409 .1519928 .6580353 .17599488 .6960449 .20698548 .7320404L.18998719 .7480469M.36999513 .7480469C.31999208 .7020416 .2519989 .6350403 .2519989 .56404116 .2519989 .5100403 .28399659 .47703553 .31698609 .4780426 .34700013 .4780426 .36499024 .4990387 .36499024 .5260315 .36499024 .56204226 .33198548 .58303835 .33198548 .6200409 .33198548 .6580353 .35598756 .6960449 .3869934 .7320404L.36999513 .7480469Z"/>
<path id="font_2_11" d="M.28799439 .5019531C.12799073 .5019531 .04899597 .40698243 .04899597 .24510193 .04899597 .083236698 .12799073-.01171875 .28799439-.01171875 .44999696-.01171875 .5279999 .083236698 .5279999 .24510193 .5279999 .40698243 .44999696 .5019531 .28799439 .5019531M.15299988 .24510193C.15299988 .38301087 .19699097 .46694947 .28799439 .46694947 .3809967 .46694947 .42399598 .38301087 .42399598 .24510193 .42399598 .10720825 .3809967 .023269654 .28799439 .023269654 .19699097 .023269654 .15299988 .10720825 .15299988 .24510193Z"/>
<path id="font_2_10" d="M.5289917 .34295655C.5289917 .4439392 .47399903 .5019531 .38198854 .5019531 .30799867 .5019531 .2619934 .46594239 .19999695 .4259491L.18598938 .5019531 .036987306 .47694398V.45195008L.07499695 .4469452C.100997928 .4429474 .10699463 .4379425 .10699463 .40194703V.08699036C.10699463 .035995485 .10398865 .033996583 .03199768 .0289917V0H.27598573V.0289917C.20498657 .033996583 .20098877 .035995485 .20098877 .08699036V.32095338C.20098877 .34596253 .20298767 .35995484 .21099854 .37594605 .23199463 .4149475 .2769928 .44795228 .32998658 .44795228 .397995 .44795228 .43499757 .40994264 .43499757 .32295228V.08699036C.43499757 .035995485 .43199159 .033996583 .3600006 .0289917V0H.60398867V.0289917C.5329895 .033996583 .5289917 .035995485 .5289917 .08699036V.34295655Z"/>
<path id="font_2_13" d="M.08898926 .47218324C.13899231 .5181732 .20698548 .58517459 .20698548 .6561737 .20698548 .71017459 .1749878 .7431793 .14199829 .7421875 .11199951 .7421875 .09399414 .72117617 .09399414 .69418337 .09399414 .6581726 .1269989 .6371765 .1269989 .60017397 .1269989 .56217959 .102996829 .5241852 .07199097 .48817445L.08898926 .47218324M.2689972 .47218324C.31900025 .5181732 .3869934 .58517459 .3869934 .6561737 .3869934 .71017459 .35499574 .7431793 .32199098 .7421875 .2919922 .7421875 .27398683 .72117617 .27398683 .69418337 .27398683 .6581726 .30699159 .6371765 .30699159 .60017397 .30699159 .56217959 .2829895 .5241852 .2519989 .48817445L.2689972 .47218324Z"/>
<path id="font_2_9" d="M.20098877 .45022584H.32299806V.49023438H.20098877L.19699097 .60220339C.19400025 .6971741 .22898865 .70718386 .24499512 .70718386 .2659912 .70718386 .28799439 .6971741 .31298829 .6391907 .31799317 .62919619 .32499696 .6221924 .33999635 .6221924 .3600006 .6221924 .3889923 .6391907 .3889923 .66918948 .3889923 .70217898 .34700013 .7421875 .2669983 .7421875 .21199036 .7421875 .16499329 .71717837 .13999939 .67918398 .116989139 .64419558 .10699463 .5912018 .10699463 .5252228V.49023438H.02999878V.45022584H.10699463V.087020877C.10699463 .035995485 .10398865 .033996583 .03199768 .0289917V0H.29599V.0289917C.20498657 .032989503 .20098877 .034988405 .20098877 .08602905V.45022584Z"/>
</defs>
<path transform="matrix(1.0001,0,0,-1,56.106218,31.421)" d="M-54.56789-17.15V29.62247H21.82706V-17.15ZM21.82706 29.62247" fill="#d9d9ff"/>
<path transform="matrix(1.0001,0,0,-1,56.106218,31.421)" d="M21.82706-17.15V29.62247H74.83601V-17.15ZM74.83601 29.62247" fill="#d9f0d9"/>
<path transform="matrix(1.0001,0,0,-1,56.106218,31.421)" stroke-width=".19925" stroke-linecap="butt" stroke-dasharray="2.98883,2.98883" stroke-miterlimit="10" stroke-linejoin="miter" fill="none" stroke="#000000" d="M21.82706-17.15V29.62247"/>
<use data-text="c" xlink:href="#font_1_1" transform="matrix(9.166516,0,0,-9.1656,75.55416,40.912004)"/>
<path transform="matrix(1.0001,0,0,-1,56.106218,31.421)" stroke-width=".3985" stroke-linecap="butt" stroke-miterlimit="10" stroke-linejoin="miter" fill="none" stroke="#000000" d="M-54.56789 0H74.37775"/>
<path transform="matrix(1.0001,0,0,-1,130.4914,31.421)" stroke-width=".31879" stroke-linecap="round" stroke-linejoin="round" fill="none" stroke="#000000" d="M-1.19551 1.59401C-1.09587 .99626 0 .09961 .29886 0 0-.09961-1.09587-.99626-1.19551-1.59401"/>
<path transform="matrix(1.0001,0,0,-1,56.106218,31.421)" stroke-width=".3985" stroke-linecap="butt" stroke-miterlimit="10" stroke-linejoin="miter" fill="none" stroke="#000000" d="M0-17.15V29.16418"/>
<path transform="matrix(0,-1,-1.0001,-0,56.106218,2.2568188)" stroke-width=".31879" stroke-linecap="round" stroke-linejoin="round" fill="none" stroke="#000000" d="M-1.19551 1.59401C-1.09587 .99626 0 .09961 .29886 0 0-.09961-1.09587-.99626-1.19551-1.59401"/>
<use data-text="t" xlink:href="#font_1_2" transform="matrix(7.3332335,0,0,-7.3325,127.82839,39.338998)"/>
<path transform="matrix(1.0001,0,0,-1,56.106218,31.421)" stroke-width=".3985" stroke-linecap="butt" stroke-miterlimit="10" stroke-linejoin="miter" fill="none" stroke="#929292" d="M-46.77248 1.55917V-1.55917"/>
<use data-text="-" xlink:href="#font_2_3" transform="matrix(7.3332335,0,0,-7.3325,5.9452059,40.976999)"/>
<use data-text="3" xlink:href="#font_2_7" transform="matrix(7.3332335,0,0,-7.3325,8.819824,40.976999)"/>
<path transform="matrix(1.0001,0,0,-1,56.106218,31.421)" stroke-width=".3985" stroke-linecap="butt" stroke-miterlimit="10" stroke-linejoin="miter" fill="none" stroke="#929292" d="M-31.18166 1.55917V-1.55917"/>
<use data-text="-" xlink:href="#font_2_3" transform="matrix(7.3332335,0,0,-7.3325,21.537766,40.976999)"/>
<use data-text="2" xlink:href="#font_2_6" transform="matrix(7.3332335,0,0,-7.3325,24.412384,40.976999)"/>
<path transform="matrix(1.0001,0,0,-1,56.106218,31.421)" stroke-width=".3985" stroke-linecap="butt" stroke-miterlimit="10" stroke-linejoin="miter" fill="none" stroke="#929292" d="M-15.59082 1.55917V-1.55917"/>
<use data-text="-" xlink:href="#font_2_3" transform="matrix(7.3332335,0,0,-7.3325,37.130319,40.976999)"/>
<use data-text="1" xlink:href="#font_2_5" transform="matrix(7.3332335,0,0,-7.3325,40.004938,40.976999)"/>
<path transform="matrix(1.0001,0,0,-1,56.106218,31.421)" stroke-width=".3985" stroke-linecap="butt" stroke-miterlimit="10" stroke-linejoin="miter" fill="none" stroke="#929292" d="M15.59082 1.55917V-1.55917"/>
<use data-text="1" xlink:href="#font_2_5" transform="matrix(7.3332335,0,0,-7.3325,69.753589,40.976999)"/>
<path transform="matrix(1.0001,0,0,-1,56.106218,31.421)" stroke-width=".3985" stroke-linecap="butt" stroke-miterlimit="10" stroke-linejoin="miter" fill="none" stroke="#929292" d="M31.18166 1.55917V-1.55917"/>
<use data-text="2" xlink:href="#font_2_6" transform="matrix(7.3332335,0,0,-7.3325,85.34614,40.976999)"/>
<path transform="matrix(1.0001,0,0,-1,56.106218,31.421)" stroke-width=".3985" stroke-linecap="butt" stroke-miterlimit="10" stroke-linejoin="miter" fill="none" stroke="#929292" d="M46.77248 1.55917V-1.55917"/>
<use data-text="3" xlink:href="#font_2_7" transform="matrix(7.3332335,0,0,-7.3325,100.9387,40.976999)"/>
<path transform="matrix(1.0001,0,0,-1,56.106218,31.421)" stroke-width=".3985" stroke-linecap="butt" stroke-miterlimit="10" stroke-linejoin="miter" fill="none" stroke="#929292" d="M62.36331 1.55917V-1.55917"/>
<use data-text="4" xlink:href="#font_2_8" transform="matrix(7.3332335,0,0,-7.3325,116.53126,40.976999)"/>
<path transform="matrix(1.0001,0,0,-1,56.106218,31.421)" stroke-width=".3985" stroke-linecap="butt" stroke-miterlimit="10" stroke-linejoin="miter" fill="none" stroke="#929292" d="M1.55917 15.59082H-1.55917"/>
<use data-text="1" xlink:href="#font_2_5" transform="matrix(7.3332335,0,0,-7.3325,50.37664,18.285)"/>
<path transform="matrix(1.0001,0,0,-1,56.106218,31.421)" stroke-width="1.19553" stroke-linecap="butt" stroke-miterlimit="10" stroke-linejoin="miter" fill="none" stroke="#009900" d="M-54.56789 15.59082H-53.80591-53.04391-52.28194-51.51996-50.75797-49.99599-49.23401-48.47202-47.71004-46.94804-46.18605-45.42407-44.66208-43.9001-43.1381-42.37613-41.61415-40.85217-40.09018-39.3282-38.56621-37.80423-37.04224-36.28026-35.51828-34.75629-33.99431-33.23233-32.47034-31.70836-30.94637-30.18439-29.4224-28.6604-27.89842-27.13643-26.37445-25.61247-24.85048-24.0885-23.32652-22.56453-21.80255-21.04056-20.27858-19.5166-18.75461-17.99261-17.23064-16.46864-15.70667-14.94469-14.18271-13.42073-12.65872-11.89674-11.13475-10.37277-9.6108-8.8488-8.08682-7.32484-6.56285-5.80087-5.03888-4.2769-3.51492-2.75293-1.99095-1.22896-.46696 .29497 1.05696 1.81894 2.58092 3.34291 4.1049 4.8669 5.62888 6.39085 7.15285 7.91481 8.67679 9.4388 10.20078 10.96277 11.72475 12.48672 13.24872 14.0107 14.77267 15.53467 16.29665 17.05864 17.82062 18.5826 19.34459 20.10657 20.86858"/>
<path transform="matrix(1.0001,0,0,-1,56.106218,31.421)" stroke-width="1.19553" stroke-linecap="butt" stroke-miterlimit="10" stroke-linejoin="miter" fill="none" stroke="#0000ff" d="M21.82706 0H22.36232 22.8976 23.43286 23.96811 24.50339 25.03867 25.57393 26.10919 26.64447 27.17973 27.71501 28.25027 28.78555 29.3208 29.85608 30.39134 30.92662 31.46188 31.99716 32.53242 33.0677 33.60297 34.13823 34.67351 35.20877 35.74403 36.2793 36.81458 37.34984 37.88512 38.42038 38.95566 39.49092 40.0262 40.56146 41.09673 41.63199 42.16725 42.70253 43.23781 43.77307 44.30833 44.84361 45.37888 45.91415 46.4494 46.98466 47.51994 48.05522 48.59048 49.12575 49.66103 50.19629 50.73157 51.26685 51.80211 52.33736 52.87263 53.4079 53.94318 54.47844 55.0137 55.54898 56.08426 56.61952 57.15479 57.69006 58.22531 58.76059 59.29585 59.83113 60.3664 60.90167 61.43694 61.97221 62.50748 63.04276 63.578 64.11328 64.64854 65.1838 65.71909 66.25436 66.78963 67.32489 67.86017 68.39543 68.93071 69.46596 70.00122 70.5365 71.07178 71.60704 72.14232 72.67758 73.21284 73.74812 74.2834 74.81866"/>
<path transform="matrix(1.0001,0,0,-1,56.106218,31.421)" stroke-width="1.19553" stroke-linecap="butt" stroke-miterlimit="10" stroke-linejoin="miter" fill="none" stroke="#009900" d="M23.47092 15.59082C23.47092 16.49872 22.73494 17.2347 21.82706 17.2347 20.91916 17.2347 20.18318 16.49872 20.18318 15.59082 20.18318 14.68292 20.91916 13.94696 21.82706 13.94696 22.73494 13.94696 23.47092 14.68292 23.47092 15.59082ZM21.82706 15.59082"/>
<path transform="matrix(1.0001,0,0,-1,56.106218,31.421)" d="M23.47092 0C23.47092 .90788 22.73494 1.64386 21.82706 1.64386 20.91916 1.64386 20.18318 .90788 20.18318 0 20.18318-.90788 20.91916-1.64386 21.82706-1.64386 22.73494-1.64386 23.47092-.90788 23.47092 0ZM21.82706 0" fill="#0000ff"/>
<use data-text="1" xlink:href="#font_2_5" transform="matrix(7.3332335,0,0,-7.3325,4.0930178,11.181999)" fill="#009900"/>
<use data-text="&#x2212;" xlink:href="#font_3_1" transform="matrix(7.3332335,0,0,-7.3325,8.957497,11.181999)" fill="#009900"/>
<use data-text="u" xlink:href="#font_1_3" transform="matrix(7.3332335,0,0,-7.3325,15.208115,11.181999)" fill="#009900"/>
<use data-text="c" xlink:href="#font_1_1" transform="matrix(6.2332236,0,0,-6.2326,19.98259,12.377998)" fill="#009900"/>
<use data-text="(" xlink:href="#font_2_1" transform="matrix(7.3332335,0,0,-7.3325,23.71997,11.181998)" fill="#009900"/>
<use data-text="t" xlink:href="#font_1_2" transform="matrix(7.3332335,0,0,-7.3325,26.445252,11.181998)" fill="#009900"/>
<use data-text=")" xlink:href="#font_2_2" transform="matrix(7.3332335,0,0,-7.3325,29.729569,11.181998)" fill="#009900"/>
<use data-text="=" xlink:href="#font_3_2" transform="matrix(7.3332335,0,0,-7.3325,33.659959,11.181998)" fill="#009900"/>
<use data-text="1" xlink:href="#font_2_5" transform="matrix(7.3332335,0,0,-7.3325,40.30063,11.181998)" fill="#009900"/>
<use data-text="1" xlink:href="#font_2_5" transform="matrix(7.3332335,0,0,-7.3325,84.39404,26.772)" fill="#0000ff"/>
<use data-text="&#x2212;" xlink:href="#font_3_1" transform="matrix(7.3332335,0,0,-7.3325,89.25852,26.772)" fill="#0000ff"/>
<use data-text="u" xlink:href="#font_1_3" transform="matrix(7.3332335,0,0,-7.3325,95.50914,26.772)" fill="#0000ff"/>
<use data-text="c" xlink:href="#font_1_1" transform="matrix(6.2332236,0,0,-6.2326,100.283618,27.967999)" fill="#0000ff"/>
<use data-text="(" xlink:href="#font_2_1" transform="matrix(7.3332335,0,0,-7.3325,104.020999,26.772)" fill="#0000ff"/>
<use data-text="t" xlink:href="#font_1_2" transform="matrix(7.3332335,0,0,-7.3325,106.74628,26.772)" fill="#0000ff"/>
<use data-text=")" xlink:href="#font_2_2" transform="matrix(7.3332335,0,0,-7.3325,110.030597,26.772)" fill="#0000ff"/>
<use data-text="=" xlink:href="#font_3_2" transform="matrix(7.3332335,0,0,-7.3325,113.96098,26.772)" fill="#0000ff"/>
<use data-text="0" xlink:href="#font_2_4" transform="matrix(7.3332335,0,0,-7.3325,120.601657,26.772)" fill="#0000ff"/>
<use data-text="&#x201c;" xlink:href="#font_2_12" transform="matrix(7.3332335,0,0,-7.3325,32.583864,46.691)" fill="#009900"/>
<use data-text="o" xlink:href="#font_2_11" transform="matrix(7.3332335,0,0,-7.3325,35.35582,46.691)" fill="#009900"/>
<use data-text="n" xlink:href="#font_2_10" transform="matrix(7.3332335,0,0,-7.3325,39.587099,46.691)" fill="#009900"/>
<use data-text="&#x201d;" xlink:href="#font_2_13" transform="matrix(7.3332335,0,0,-7.3325,43.53238,46.691)" fill="#009900"/>
<use data-text="&#x201c;" xlink:href="#font_2_12" transform="matrix(7.3332335,0,0,-7.3325,96.69028,46.691)" fill="#0000ff"/>
<use data-text="o" xlink:href="#font_2_11" transform="matrix(7.3332335,0,0,-7.3325,99.462238,46.691)" fill="#0000ff"/>
<use data-text="f" xlink:href="#font_2_9" transform="matrix(7.3332335,0,0,-7.3325,103.69351,46.691)" fill="#0000ff"/>
<use data-text="f" xlink:href="#font_2_9" transform="matrix(7.3332335,0,0,-7.3325,106.03282,46.691)" fill="#0000ff"/>
<use data-text="&#x201d;" xlink:href="#font_2_13" transform="matrix(7.3332335,0,0,-7.3325,108.83411,46.691)" fill="#0000ff"/>
</svg>
