<svg xmlns="http://www.w3.org/2000/svg" xmlns:xlink="http://www.w3.org/1999/xlink" version="1.1" width="211" height="229" viewBox="0 0 211 229">
<defs>
<path id="font_1_1" d="M.5069885 .1381836C.48298646 .0932312 .45599366 .040267946 .42799378 .040267946 .40899659 .040267946 .40098573 .06324768 .3789978 .1521759L.34700013 .2830658C.3829956 .34701539 .43399049 .42694093 .46299745 .42694093 .47200013 .42694093 .47999574 .42494203 .4909973 .4189453 .5009918 .4149475 .5109863 .4109497 .522995 .4109497 .54499819 .4109497 .56599429 .4319458 .56599429 .4589386 .56599429 .48994447 .54299929 .5019531 .5149994 .5019531 .46199037 .5019531 .4169922 .45394898 .38198854 .39796449L.33799745 .33003236H.33599855L.29599 .49794007 .2899933 .5019531 .125 .45195008 .12799073 .427948 .20298767 .43295289C.22099304 .4339447 .22799683 .42893983 .23899842 .38298036L.2749939 .2381134 .24699402 .19015503C.20399475 .11723328 .16699219 .0652771 .14299011 .0652771 .1329956 .0652771 .12298584 .0692749 .11399841 .07426453 .10398865 .07926941 .09098816 .089279178 .07398987 .089279178 .04798889 .089279178 .0309906 .0632782 .0309906 .039276124 .0309906 .010269165 .054992677-.01171875 .09498596-.01171875 .16299439-.01171875 .20199585 .056259157 .24299622 .12319946L.2829895 .18914795H.2849884L.30299378 .111206058C.32199098 .031280519 .34098817-.01171875 .3919983-.01171875 .46499635-.01171875 .5029907 .06324768 .5329895 .12420654L.5069885 .1381836Z"/>
<path id="font_1_2" d="M.070999149 .45393373 .07398987 .42893983 .14199829 .43093873C.1639862 .43193055 .16899109 .41493226 .1769867 .36291505 .18798828 .28489686 .20999146 .09286499 .20999146 .0128479 .20999146-.017166138 .20799256-.058166505 .18598938-.11117554 .16799927-.15318299 .14199829-.18218994 .12199402-.18218994 .10699463-.18218994 .09599304-.17118836 .08099365-.15118408 .068984989-.13517761 .06098938-.127182 .04598999-.127182 .019989014-.12818909-.005004883-.15818787-.005004883-.18719483-.005004883-.21418762 .023986817-.2421875 .067993167-.2421875 .15299988-.2421875 .18998719-.17919922 .27799989-.027160645 .2979889 .0068511965 .35798646 .11286926 .41999818 .21488953 .47698976 .30891419 .5399933 .40592958 .5399933 .4459381 .5399933 .48094178 .5289917 .5019531 .5219879 .5019531 .5029907 .5019531 .46899415 .49394227 .44400025 .47694398 .44499208 .4419403 .44299317 .3809204 .43099977 .33891297 .4149933 .28289796 .35598756 .17488098 .2899933 .06085205H.2869873C.27999879 .21388245 .26098634 .42492677 .24699402 .49795533L.23899842 .5019531 .070999149 .45393373Z"/>
<path id="font_2_2" d="M.4869995 .499115V.6630249C.43499757 .6950226 .36099244 .70703127 .2999878 .70703127 .13198853 .70703127 .050994874 .6200409 .050994874 .5021057 .050994874 .37817384 .1619873 .3242035 .25 .2872162 .34098817 .24923706 .3829956 .20425415 .3829956 .1402893 .38198854 .066329959 .33399964 .031341554 .2689972 .031341554 .19299317 .031341554 .116989139 .1013031 .07899475 .22624207H.041992189L.056991579 .047332765C.10798645 .00035095216 .20698548-.0146484379 .272995-.0146484379 .47299195-.012649536 .5329895 .0953064 .5329895 .19926453 .5329895 .33119203 .43499757 .38217164 .34399415 .42015077 .27799989 .4471283 .19499207 .48310853 .19499207 .55908206 .19499207 .621048 .23899842 .661026 .29899598 .661026 .36299134 .661026 .4229889 .6160431 .45098878 .499115H.4869995Z"/>
<path id="font_2_6" d="M.23498535 .73617556 .22799683 .7421875 .024993897 .71517947V.6791687L.05999756 .67315676C.07598877 .670166 .083999637 .66116335 .083999637 .6211548V.087005618C.083999637 .04499817 .07598877 .041000368 .018997193 .037994386V0H.2999878V.037994386C.24299622 .041000368 .23498535 .04499817 .23498535 .087005618V.73617556Z"/>
<path id="font_2_7" d="M.29299928 .5019531C.11099243 .5019531 .033996583 .40498353 .033996583 .24511719 .033996583 .085235599 .11099243-.01171875 .29299928-.01171875 .47399903-.01171875 .5509949 .085235599 .5509949 .24511719 .5509949 .40498353 .47399903 .5019531 .29299928 .5019531M.19299317 .24511719C.19299317 .37901307 .22200012 .45594789 .29299928 .45594789 .36299134 .45594789 .3919983 .37901307 .3919983 .24511719 .3919983 .11122131 .36299134 .03427124 .29299928 .03427124 .22200012 .03427124 .19299317 .11122131 .19299317 .24511719Z"/>
<path id="font_2_8" d="M.23498535 .0002746582C.2519989-.006729126 .2869873-.01171875 .31399537-.01171875 .46199037-.01171875 .58099368 .040267946 .58099368 .25907899 .58099368 .42494203 .49398805 .5019531 .3999939 .5019531 .32998658 .5019531 .28399659 .4699402 .23498535 .43295289L.21699524 .5019531 .024993897 .47294618V.43695069L.05999756 .4319458C.07598877 .4299469 .083999637 .4209442 .083999637 .38098146V-.14328003C.083999637-.18544007 .07598877-.18946839 .018997193-.19247437V-.23046875H.31799317V-.19247437C.24499512-.18946839 .23498535-.18544007 .23498535-.14328003V.0002746582M.23498535 .31004334C.23498535 .33102418 .23699951 .35101319 .24198914 .3650055 .25498963 .40196229 .27999879 .42494203 .32199098 .42494203 .36898805 .42494203 .42199708 .39897157 .42199708 .23710633 .42199708 .113204959 .394989 .03427124 .31799317 .03427124 .27398683 .03427124 .24798584 .057250978 .23899842 .10121155 .23599243 .11621094 .23498535 .13319397 .23498535 .1521759V.31004334Z"/>
<path id="font_2_4" d="M.46099855 .15411377C.43099977 .097213748 .3880005 .0652771 .32699586 .0652771 .22698975 .0652771 .19299317 .14712525 .19299317 .25195313H.45098878C.4869995 .25195313 .5049896 .26194764 .5049896 .2939453 .5049896 .37594605 .47399903 .5019531 .2809906 .5019531 .100997928 .5019531 .033996583 .38494874 .033996583 .2449646 .033996583 .109191898 .09298706-.01272583 .2789917-.01171875 .397995-.01171875 .46299745 .046279909 .49699403 .13415528L.46099855 .15411377M.19299317 .29994203C.19299317 .37194825 .21199036 .45594789 .2769928 .45594789 .33799745 .45594789 .34799195 .37994386 .34799195 .33294679 .34799195 .30593873 .33999635 .29994203 .31698609 .29994203H.19299317Z"/>
<path id="font_2_1" d="M.09199524 .44023133V.087020877C.09199524 .04499817 .083999637 .041000368 .026992798 .037994386V0H.29599V.037994386L.2749939 .039993287C.2539978 .041992189 .24299622 .04699707 .24299622 .08001709V.44023133H.375C.4059906 .44023133 .4139862 .43322755 .4139862 .38919068V.08001709C.4139862 .04699707 .40299989 .041992189 .38198854 .039993287L.36099244 .037994386V0H.6299896V.037994386C.57299807 .041000368 .5649872 .04499817 .5649872 .087020877V.49609376L.55799868 .50209048C.5089874 .49822999 .43598939 .49023438 .34298707 .49023438H.24299622V.5372162C.24299622 .6701813 .29499818 .69618228 .33198548 .69618228 .36499024 .69618228 .3939972 .6741791 .41799928 .6062012 .42599488 .5832062 .43399049 .5602112 .47599793 .5602112 .5169983 .5602112 .5569916 .58421328 .5569916 .62519839 .5569916 .67518618 .49398805 .7421875 .34199525 .7421875 .1639862 .7421875 .09199524 .65219119 .09199524 .5152283V.49023438H.0289917V.44023133H.09199524Z"/>
<path id="font_2_3" d="M.5309906 .73617556 .5239868 .7421875 .32099916 .7151489V.6791229L.35598756 .67311099C.37199403 .670105 .37998963 .6611023 .37998963 .62106326V.4892578C.35798646 .49794007 .32998658 .5019531 .29599 .5019531 .22099304 .5019531 .15499878 .47994996 .10899353 .43696595 .06199646 .39300538 .033996583 .3260498 .033996583 .23612976 .033996583 .09025574 .10798645-.01171875 .23498535-.01171875 .27198792-.01171875 .32598878 .0072784426 .37998963 .05027771V0H.59599307V.037994386C.5389862 .040985109 .5309906 .04499817 .5309906 .08699036V.73617556M.37998963 .15197754C.37998963 .11198425 .3659973 .06498718 .3019867 .06498718 .23699951 .06498718 .19299317 .12799073 .19299317 .2559662 .19299317 .4029541 .24798584 .45594789 .3039856 .45594789 .34199525 .45594789 .3619995 .43695069 .37199403 .4169464 .37998963 .40194703 .37998963 .37895204 .37998963 .35795594V.15197754Z"/>
<path id="font_2_5" d="M.34599305 .44023133V.49023438H.24299622C.24299622 .53822329 .22099304 .6221924 .22099304 .65919497 .22099304 .68518069 .23298645 .69618228 .24499512 .69618228 .26098634 .69618228 .272995 .67718508 .30299378 .62120059 .31298829 .6031952 .32398988 .5912018 .34799195 .5912018 .37998963 .5912018 .42099 .61520388 .42099 .6491852 .42099 .68618777 .3829956 .7421875 .272995 .7421875 .1619873 .7421875 .09199524 .6701813 .09199524 .5332184V.49023438H.0289917V.44023133H.09199524V.087020877C.09199524 .04499817 .083999637 .041000368 .026992798 .037994386V0H.32199098V.037994386C.25099183 .041000368 .24299622 .04499817 .24299622 .087020877V.44023133H.34599305Z"/>
<path id="font_2_9" d="M.24198914 .31095887C.24198914 .36294557 .2519989 .38594056 .27598573 .38594056 .2919922 .38594056 .30699159 .37794496 .32899476 .36494447 .34199525 .35694886 .35598756 .348938 .375 .348938 .394989 .348938 .4149933 .35993959 .42599488 .37493897 .43699647 .38993836 .44198609 .40994264 .44198609 .4319458 .44198609 .47494508 .4139862 .5019531 .37199403 .5019531 .32998658 .5019531 .29699708 .47494508 .23899842 .41394044L.22698975 .5019531 .03199768 .47294618V.43695069L.066986087 .4319458C.08299255 .4299469 .09098816 .4209442 .09098816 .38095094V.08699036C.09098816 .04499817 .08299255 .040985109 .025985718 .037994386V0H.32798768V.037994386C.25099183 .041992189 .24198914 .04499817 .24198914 .08699036V.31095887Z"/>
<path id="font_3_1" d="M.2769928 .50541689C.2829895 .5204315 .28399659 .5294342 .28399659 .53344729 .28399659 .5544586 .2539978 .56347659 .22299195 .56347659 .19299317 .56347659 .1619873 .5544586 .15899658 .53944399L.053985597 .05303955C.053985597 .046035768 .067993167 .040039064 .07998657 .040039064 .08799744 .040039064 .09599304 .043029787 .09799194 .048034669L.2769928 .50541689Z"/>
<path id="font_3_3" d="M.6349945 .14315796V.20117188H.084991458V.14315796H.6349945M.6349945 .36288453V.42089845H.084991458V.36288453H.6349945Z"/>
<path id="font_3_2" d="M.084991458 .31092835V.2529297H.33099366V.0068359377H.3889923V.2529297H.6349945V.31092835H.3889923V.5566406H.33099366V.31092835H.084991458Z"/>
</defs>
<path transform="matrix(1.00006,0,0,-1,100.50998,128.443)" stroke-width=".19925" stroke-linecap="butt" stroke-miterlimit="10" stroke-linejoin="miter" fill="none" stroke="#cbcbcb" d="M-85.04042-85.04042V85.04042"/>
<path transform="matrix(1.00006,0,0,-1,100.50998,128.443)" stroke-width=".19925" stroke-linecap="butt" stroke-miterlimit="10" stroke-linejoin="miter" fill="none" stroke="#cbcbcb" d="M-68.0326-85.04042V85.04042"/>
<path transform="matrix(1.00006,0,0,-1,100.50998,128.443)" stroke-width=".19925" stroke-linecap="butt" stroke-miterlimit="10" stroke-linejoin="miter" fill="none" stroke="#cbcbcb" d="M-51.02477-85.04042V85.04042"/>
<path transform="matrix(1.00006,0,0,-1,100.50998,128.443)" stroke-width=".19925" stroke-linecap="butt" stroke-miterlimit="10" stroke-linejoin="miter" fill="none" stroke="#cbcbcb" d="M-34.01694-85.04042V85.04042"/>
<path transform="matrix(1.00006,0,0,-1,100.50998,128.443)" stroke-width=".19925" stroke-linecap="butt" stroke-miterlimit="10" stroke-linejoin="miter" fill="none" stroke="#cbcbcb" d="M-17.00911-85.04042V85.04042"/>
<path transform="matrix(1.00006,0,0,-1,100.50998,128.443)" stroke-width=".19925" stroke-linecap="butt" stroke-miterlimit="10" stroke-linejoin="miter" fill="none" stroke="#cbcbcb" d="M-.00128-85.04042V85.04042"/>
<path transform="matrix(1.00006,0,0,-1,100.50998,128.443)" stroke-width=".19925" stroke-linecap="butt" stroke-miterlimit="10" stroke-linejoin="miter" fill="none" stroke="#cbcbcb" d="M17.0065-85.04042V85.04042"/>
<path transform="matrix(1.00006,0,0,-1,100.50998,128.443)" stroke-width=".19925" stroke-linecap="butt" stroke-miterlimit="10" stroke-linejoin="miter" fill="none" stroke="#cbcbcb" d="M34.01434-85.04042V85.04042"/>
<path transform="matrix(1.00006,0,0,-1,100.50998,128.443)" stroke-width=".19925" stroke-linecap="butt" stroke-miterlimit="10" stroke-linejoin="miter" fill="none" stroke="#cbcbcb" d="M51.02217-85.04042V85.04042"/>
<path transform="matrix(1.00006,0,0,-1,100.50998,128.443)" stroke-width=".19925" stroke-linecap="butt" stroke-miterlimit="10" stroke-linejoin="miter" fill="none" stroke="#cbcbcb" d="M68.02998-85.04042V85.04042"/>
<path transform="matrix(1.00006,0,0,-1,100.50998,128.443)" stroke-width=".19925" stroke-linecap="butt" stroke-miterlimit="10" stroke-linejoin="miter" fill="none" stroke="#cbcbcb" d="M85.03783-85.04042V85.04042"/>
<path transform="matrix(1.00006,0,0,-1,100.50998,128.443)" stroke-width=".19925" stroke-linecap="butt" stroke-miterlimit="10" stroke-linejoin="miter" fill="none" stroke="#cbcbcb" d="M-85.04042-85.04042H85.04042"/>
<path transform="matrix(1.00006,0,0,-1,100.50998,128.443)" stroke-width=".19925" stroke-linecap="butt" stroke-miterlimit="10" stroke-linejoin="miter" fill="none" stroke="#cbcbcb" d="M-85.04042-68.0326H85.04042"/>
<path transform="matrix(1.00006,0,0,-1,100.50998,128.443)" stroke-width=".19925" stroke-linecap="butt" stroke-miterlimit="10" stroke-linejoin="miter" fill="none" stroke="#cbcbcb" d="M-85.04042-51.02477H85.04042"/>
<path transform="matrix(1.00006,0,0,-1,100.50998,128.443)" stroke-width=".19925" stroke-linecap="butt" stroke-miterlimit="10" stroke-linejoin="miter" fill="none" stroke="#cbcbcb" d="M-85.04042-34.01694H85.04042"/>
<path transform="matrix(1.00006,0,0,-1,100.50998,128.443)" stroke-width=".19925" stroke-linecap="butt" stroke-miterlimit="10" stroke-linejoin="miter" fill="none" stroke="#cbcbcb" d="M-85.04042-17.00911H85.04042"/>
<path transform="matrix(1.00006,0,0,-1,100.50998,128.443)" stroke-width=".19925" stroke-linecap="butt" stroke-miterlimit="10" stroke-linejoin="miter" fill="none" stroke="#cbcbcb" d="M-85.04042-.00128H85.04042"/>
<path transform="matrix(1.00006,0,0,-1,100.50998,128.443)" stroke-width=".19925" stroke-linecap="butt" stroke-miterlimit="10" stroke-linejoin="miter" fill="none" stroke="#cbcbcb" d="M-85.04042 17.0065H85.04042"/>
<path transform="matrix(1.00006,0,0,-1,100.50998,128.443)" stroke-width=".19925" stroke-linecap="butt" stroke-miterlimit="10" stroke-linejoin="miter" fill="none" stroke="#cbcbcb" d="M-85.04042 34.01434H85.04042"/>
<path transform="matrix(1.00006,0,0,-1,100.50998,128.443)" stroke-width=".19925" stroke-linecap="butt" stroke-miterlimit="10" stroke-linejoin="miter" fill="none" stroke="#cbcbcb" d="M-85.04042 51.02217H85.04042"/>
<path transform="matrix(1.00006,0,0,-1,100.50998,128.443)" stroke-width=".19925" stroke-linecap="butt" stroke-miterlimit="10" stroke-linejoin="miter" fill="none" stroke="#cbcbcb" d="M-85.04042 68.02998H85.04042"/>
<path transform="matrix(1.00006,0,0,-1,100.50998,128.443)" stroke-width=".19925" stroke-linecap="butt" stroke-miterlimit="10" stroke-linejoin="miter" fill="none" stroke="#cbcbcb" d="M-85.04042 85.03783H85.04042"/>
<path transform="matrix(1.00006,0,0,-1,100.50998,128.443)" stroke-width=".79701" stroke-linecap="butt" stroke-miterlimit="10" stroke-linejoin="miter" fill="none" stroke="#1a8c8c" d="M-85.04042-85.04042-83.60234-93.66966"/>
<path transform="matrix(.16435986,.98634,.9863991,-.16435,16.902626,222.11266)" d="M2.59026 0-1.55415 2.0722 0 0-1.55415-2.0722" fill="#1a8c8c"/>
<path transform="matrix(1.00006,0,0,-1,100.50998,128.443)" stroke-width=".79701" stroke-linecap="butt" stroke-miterlimit="10" stroke-linejoin="miter" fill="none" stroke="#1a8c8c" d="M-85.04042-68.0326-83.44753-76.63443"/>
<path transform="matrix(.18208093,.98323,.98328897,-.18207,17.057435,205.0774)" d="M2.59026 0-1.55415 2.0722 0 0-1.55415-2.0722" fill="#1a8c8c"/>
<path transform="matrix(1.00006,0,0,-1,100.50998,128.443)" stroke-width=".79701" stroke-linecap="butt" stroke-miterlimit="10" stroke-linejoin="miter" fill="none" stroke="#1a8c8c" d="M-85.04042-51.02477-83.25592-59.58925"/>
<path transform="matrix(.20396224,.97894,.9789987,-.20395,17.249047,188.03224)" d="M2.59026 0-1.55415 2.0722 0 0-1.55415-2.0722" fill="#1a8c8c"/>
<path transform="matrix(1.00006,0,0,-1,100.50998,128.443)" stroke-width=".79701" stroke-linecap="butt" stroke-miterlimit="10" stroke-linejoin="miter" fill="none" stroke="#1a8c8c" d="M-85.04042-34.01694-83.01434-42.52698"/>
<path transform="matrix(.23159389,.97275,.97280839,-.23158,17.490662,170.96996)" d="M2.59026 0-1.55415 2.0722 0 0-1.55415-2.0722" fill="#1a8c8c"/>
<path transform="matrix(1.00006,0,0,-1,100.50998,128.443)" stroke-width=".79701" stroke-linecap="butt" stroke-miterlimit="10" stroke-linejoin="miter" fill="none" stroke="#1a8c8c" d="M-85.04042-17.00911-82.699-25.4381"/>
<path transform="matrix(.26765604,.96346,.9635178,-.26764,17.806023,153.88108)" d="M2.59026 0-1.55415 2.0722 0 0-1.55415-2.0722" fill="#1a8c8c"/>
<path transform="matrix(1.00006,0,0,-1,100.50998,128.443)" stroke-width=".79701" stroke-linecap="butt" stroke-miterlimit="10" stroke-linejoin="miter" fill="none" stroke="#1a8c8c" d="M-85.04042-.00128-82.27415-8.30042"/>
<path transform="matrix(.31621895,.94864,.94869688,-.3162,18.230896,136.74341)" d="M2.59026 0-1.55415 2.0722 0 0-1.55415-2.0722" fill="#1a8c8c"/>
<path transform="matrix(1.00006,0,0,-1,100.50998,128.443)" stroke-width=".79701" stroke-linecap="butt" stroke-miterlimit="10" stroke-linejoin="miter" fill="none" stroke="#1a8c8c" d="M-85.04042 17.0065-81.67575 8.93127"/>
<path transform="matrix(.38460306,.92303,.9230854,-.38458,18.82933,119.5117)" d="M2.59026 0-1.55415 2.0722 0 0-1.55415-2.0722" fill="#1a8c8c"/>
<path transform="matrix(1.00006,0,0,-1,100.50998,128.443)" stroke-width=".79701" stroke-linecap="butt" stroke-miterlimit="10" stroke-linejoin="miter" fill="none" stroke="#1a8c8c" d="M-85.04042 34.01434-80.79324 26.36795"/>
<path transform="matrix(.48559914,.87418,.8742324,-.48557,19.711892,102.07503)" d="M2.59026 0-1.55415 2.0722 0 0-1.55415-2.0722" fill="#1a8c8c"/>
<path transform="matrix(1.00006,0,0,-1,100.50998,128.443)" stroke-width=".79701" stroke-linecap="butt" stroke-miterlimit="10" stroke-linejoin="miter" fill="none" stroke="#1a8c8c" d="M-85.04042 51.02217-79.44165 44.30212"/>
<path transform="matrix(.6400984,.76825,.76829609,-.64006,21.063546,84.14087)" d="M2.59026 0-1.55415 2.0722 0 0-1.55415-2.0722" fill="#1a8c8c"/>
<path transform="matrix(1.00006,0,0,-1,100.50998,128.443)" stroke-width=".79701" stroke-linecap="butt" stroke-miterlimit="10" stroke-linejoin="miter" fill="none" stroke="#1a8c8c" d="M-85.04042 68.02998-77.53854 63.52934"/>
<path transform="matrix(.85755148,.51445,.5144809,-.8575,22.96679,64.91365)" d="M2.59026 0-1.55415 2.0722 0 0-1.55415-2.0722" fill="#1a8c8c"/>
<path transform="matrix(1.00006,0,0,-1,100.50998,128.443)" stroke-width=".79701" stroke-linecap="butt" stroke-miterlimit="10" stroke-linejoin="miter" fill="none" stroke="#1a8c8c" d="M-85.04042 85.03783-76.29214 85.03697"/>
<path transform="matrix(1.00006,0,0,-1,24.213265,43.40602)" d="M2.59026 0-1.55415 2.0722 0 0-1.55415-2.0722" fill="#1a8c8c"/>
<path transform="matrix(1.00006,0,0,-1,100.50998,128.443)" stroke-width=".79701" stroke-linecap="butt" stroke-miterlimit="10" stroke-linejoin="miter" fill="none" stroke="#1a8c8c" d="M-68.0326-85.04042-66.4397-93.64226"/>
<path transform="matrix(.18208093,.98323,.98328897,-.18207,34.066286,222.08524)" d="M2.59026 0-1.55415 2.0722 0 0-1.55415-2.0722" fill="#1a8c8c"/>
<path transform="matrix(1.00006,0,0,-1,100.50998,128.443)" stroke-width=".79701" stroke-linecap="butt" stroke-miterlimit="10" stroke-linejoin="miter" fill="none" stroke="#1a8c8c" d="M-68.0326-68.0326-66.2481-76.59708"/>
<path transform="matrix(.20396224,.97894,.9789987,-.20395,34.257898,205.04007)" d="M2.59026 0-1.55415 2.0722 0 0-1.55415-2.0722" fill="#1a8c8c"/>
<path transform="matrix(1.00006,0,0,-1,100.50998,128.443)" stroke-width=".79701" stroke-linecap="butt" stroke-miterlimit="10" stroke-linejoin="miter" fill="none" stroke="#1a8c8c" d="M-68.0326-51.02477-66.00652-59.5348"/>
<path transform="matrix(.23159389,.97275,.97280839,-.23158,34.499498,187.97779)" d="M2.59026 0-1.55415 2.0722 0 0-1.55415-2.0722" fill="#1a8c8c"/>
<path transform="matrix(1.00006,0,0,-1,100.50998,128.443)" stroke-width=".79701" stroke-linecap="butt" stroke-miterlimit="10" stroke-linejoin="miter" fill="none" stroke="#1a8c8c" d="M-68.0326-34.01694-65.69116-42.44594"/>
<path transform="matrix(.26765604,.96346,.9635178,-.26764,34.81488,170.88892)" d="M2.59026 0-1.55415 2.0722 0 0-1.55415-2.0722" fill="#1a8c8c"/>
<path transform="matrix(1.00006,0,0,-1,100.50998,128.443)" stroke-width=".79701" stroke-linecap="butt" stroke-miterlimit="10" stroke-linejoin="miter" fill="none" stroke="#1a8c8c" d="M-68.0326-17.00911-65.26631-25.30823"/>
<path transform="matrix(.31621895,.94864,.94869688,-.3162,35.239755,153.75122)" d="M2.59026 0-1.55415 2.0722 0 0-1.55415-2.0722" fill="#1a8c8c"/>
<path transform="matrix(1.00006,0,0,-1,100.50998,128.443)" stroke-width=".79701" stroke-linecap="butt" stroke-miterlimit="10" stroke-linejoin="miter" fill="none" stroke="#1a8c8c" d="M-68.0326-.00128-64.66792-8.0765"/>
<path transform="matrix(.38460306,.92303,.9230854,-.38458,35.83818,136.51949)" d="M2.59026 0-1.55415 2.0722 0 0-1.55415-2.0722" fill="#1a8c8c"/>
<path transform="matrix(1.00006,0,0,-1,100.50998,128.443)" stroke-width=".79701" stroke-linecap="butt" stroke-miterlimit="10" stroke-linejoin="miter" fill="none" stroke="#1a8c8c" d="M-68.0326 17.0065-63.78542 9.3601"/>
<path transform="matrix(.48559914,.87418,.8742324,-.48557,36.720735,119.08287)" d="M2.59026 0-1.55415 2.0722 0 0-1.55415-2.0722" fill="#1a8c8c"/>
<path transform="matrix(1.00006,0,0,-1,100.50998,128.443)" stroke-width=".79701" stroke-linecap="butt" stroke-miterlimit="10" stroke-linejoin="miter" fill="none" stroke="#1a8c8c" d="M-68.0326 34.01434-62.43382 27.29431"/>
<path transform="matrix(.6400984,.76825,.76829609,-.64006,38.072397,101.14868)" d="M2.59026 0-1.55415 2.0722 0 0-1.55415-2.0722" fill="#1a8c8c"/>
<path transform="matrix(1.00006,0,0,-1,100.50998,128.443)" stroke-width=".79701" stroke-linecap="butt" stroke-miterlimit="10" stroke-linejoin="miter" fill="none" stroke="#1a8c8c" d="M-68.0326 51.02217-60.53072 46.52153"/>
<path transform="matrix(.85755148,.51445,.5144809,-.8575,39.97563,81.92146)" d="M2.59026 0-1.55415 2.0722 0 0-1.55415-2.0722" fill="#1a8c8c"/>
<path transform="matrix(1.00006,0,0,-1,100.50998,128.443)" stroke-width=".79701" stroke-linecap="butt" stroke-miterlimit="10" stroke-linejoin="miter" fill="none" stroke="#1a8c8c" d="M-68.0326 68.02998-59.2843 68.02913"/>
<path transform="matrix(1.00006,0,0,-1,41.222124,60.413866)" d="M2.59026 0-1.55415 2.0722 0 0-1.55415-2.0722" fill="#1a8c8c"/>
<path transform="matrix(1.00006,0,0,-1,100.50998,128.443)" stroke-width=".79701" stroke-linecap="butt" stroke-miterlimit="10" stroke-linejoin="miter" fill="none" stroke="#1a8c8c" d="M-68.0326 85.03783-60.53091 89.5367"/>
<path transform="matrix(.85762146,-.5143,-.5143308,-.85757,39.97544,38.906297)" d="M2.59026 0-1.55415 2.0722 0 0-1.55415-2.0722" fill="#1a8c8c"/>
<path transform="matrix(1.00006,0,0,-1,100.50998,128.443)" stroke-width=".79701" stroke-linecap="butt" stroke-miterlimit="10" stroke-linejoin="miter" fill="none" stroke="#1a8c8c" d="M-51.02477-85.04042-49.24026-93.60492"/>
<path transform="matrix(.20396224,.97894,.9789987,-.20395,51.266748,222.04792)" d="M2.59026 0-1.55415 2.0722 0 0-1.55415-2.0722" fill="#1a8c8c"/>
<path transform="matrix(1.00006,0,0,-1,100.50998,128.443)" stroke-width=".79701" stroke-linecap="butt" stroke-miterlimit="10" stroke-linejoin="miter" fill="none" stroke="#1a8c8c" d="M-51.02477-68.0326-48.99869-76.54262"/>
<path transform="matrix(.23159389,.97275,.97280839,-.23158,51.50835,204.9856)" d="M2.59026 0-1.55415 2.0722 0 0-1.55415-2.0722" fill="#1a8c8c"/>
<path transform="matrix(1.00006,0,0,-1,100.50998,128.443)" stroke-width=".79701" stroke-linecap="butt" stroke-miterlimit="10" stroke-linejoin="miter" fill="none" stroke="#1a8c8c" d="M-51.02477-51.02477-48.68333-59.45377"/>
<path transform="matrix(.26765604,.96346,.9635178,-.26764,51.82373,187.89675)" d="M2.59026 0-1.55415 2.0722 0 0-1.55415-2.0722" fill="#1a8c8c"/>
<path transform="matrix(1.00006,0,0,-1,100.50998,128.443)" stroke-width=".79701" stroke-linecap="butt" stroke-miterlimit="10" stroke-linejoin="miter" fill="none" stroke="#1a8c8c" d="M-51.02477-34.01694-48.25848-42.31607"/>
<path transform="matrix(.31621895,.94864,.94869688,-.3162,52.248605,170.75907)" d="M2.59026 0-1.55415 2.0722 0 0-1.55415-2.0722" fill="#1a8c8c"/>
<path transform="matrix(1.00006,0,0,-1,100.50998,128.443)" stroke-width=".79701" stroke-linecap="butt" stroke-miterlimit="10" stroke-linejoin="miter" fill="none" stroke="#1a8c8c" d="M-51.02477-17.00911-47.6601-25.08434"/>
<path transform="matrix(.38460306,.92303,.9230854,-.38458,52.847024,153.52732)" d="M2.59026 0-1.55415 2.0722 0 0-1.55415-2.0722" fill="#1a8c8c"/>
<path transform="matrix(1.00006,0,0,-1,100.50998,128.443)" stroke-width=".79701" stroke-linecap="butt" stroke-miterlimit="10" stroke-linejoin="miter" fill="none" stroke="#1a8c8c" d="M-51.02477-.00128-46.77759-7.64767"/>
<path transform="matrix(.48559914,.87418,.8742324,-.48557,53.729585,136.09066)" d="M2.59026 0-1.55415 2.0722 0 0-1.55415-2.0722" fill="#1a8c8c"/>
<path transform="matrix(1.00006,0,0,-1,100.50998,128.443)" stroke-width=".79701" stroke-linecap="butt" stroke-miterlimit="10" stroke-linejoin="miter" fill="none" stroke="#1a8c8c" d="M-51.02477 17.0065-45.426 10.28647"/>
<path transform="matrix(.6400984,.76825,.76829609,-.64006,55.081247,118.156528)" d="M2.59026 0-1.55415 2.0722 0 0-1.55415-2.0722" fill="#1a8c8c"/>
<path transform="matrix(1.00006,0,0,-1,100.50998,128.443)" stroke-width=".79701" stroke-linecap="butt" stroke-miterlimit="10" stroke-linejoin="miter" fill="none" stroke="#1a8c8c" d="M-51.02477 34.01434-43.52289 29.5137"/>
<path transform="matrix(.85755148,.51445,.5144809,-.8575,56.98448,98.92929)" d="M2.59026 0-1.55415 2.0722 0 0-1.55415-2.0722" fill="#1a8c8c"/>
<path transform="matrix(1.00006,0,0,-1,100.50998,128.443)" stroke-width=".79701" stroke-linecap="butt" stroke-miterlimit="10" stroke-linejoin="miter" fill="none" stroke="#1a8c8c" d="M-51.02477 51.02217-42.27647 51.02132"/>
<path transform="matrix(1.00006,0,0,-1,58.230974,77.42168)" d="M2.59026 0-1.55415 2.0722 0 0-1.55415-2.0722" fill="#1a8c8c"/>
<path transform="matrix(1.00006,0,0,-1,100.50998,128.443)" stroke-width=".79701" stroke-linecap="butt" stroke-miterlimit="10" stroke-linejoin="miter" fill="none" stroke="#1a8c8c" d="M-51.02477 68.02998-43.52309 72.52885"/>
<path transform="matrix(.85762146,-.5143,-.5143308,-.85757,56.98428,55.914148)" d="M2.59026 0-1.55415 2.0722 0 0-1.55415-2.0722" fill="#1a8c8c"/>
<path transform="matrix(1.00006,0,0,-1,100.50998,128.443)" stroke-width=".79701" stroke-linecap="butt" stroke-miterlimit="10" stroke-linejoin="miter" fill="none" stroke="#1a8c8c" d="M-51.02477 85.03783-45.4262 91.7563"/>
<path transform="matrix(.6401784,-.76819,-.7682361,-.64014,55.081048,36.686708)" d="M2.59026 0-1.55415 2.0722 0 0-1.55415-2.0722" fill="#1a8c8c"/>
<path transform="matrix(1.00006,0,0,-1,100.50998,128.443)" stroke-width=".79701" stroke-linecap="butt" stroke-miterlimit="10" stroke-linejoin="miter" fill="none" stroke="#1a8c8c" d="M-34.01694-85.04042-31.99088-93.55046"/>
<path transform="matrix(.23159389,.97275,.97280839,-.23158,68.51718,221.99344)" d="M2.59026 0-1.55415 2.0722 0 0-1.55415-2.0722" fill="#1a8c8c"/>
<path transform="matrix(1.00006,0,0,-1,100.50998,128.443)" stroke-width=".79701" stroke-linecap="butt" stroke-miterlimit="10" stroke-linejoin="miter" fill="none" stroke="#1a8c8c" d="M-34.01694-68.0326-31.67552-76.46158"/>
<path transform="matrix(.26765604,.96346,.9635178,-.26764,68.83256,204.90456)" d="M2.59026 0-1.55415 2.0722 0 0-1.55415-2.0722" fill="#1a8c8c"/>
<path transform="matrix(1.00006,0,0,-1,100.50998,128.443)" stroke-width=".79701" stroke-linecap="butt" stroke-miterlimit="10" stroke-linejoin="miter" fill="none" stroke="#1a8c8c" d="M-34.01694-51.02477-31.25067-59.32388"/>
<path transform="matrix(.31621895,.94864,.94869688,-.3162,69.25744,187.76688)" d="M2.59026 0-1.55415 2.0722 0 0-1.55415-2.0722" fill="#1a8c8c"/>
<path transform="matrix(1.00006,0,0,-1,100.50998,128.443)" stroke-width=".79701" stroke-linecap="butt" stroke-miterlimit="10" stroke-linejoin="miter" fill="none" stroke="#1a8c8c" d="M-34.01694-34.01694-30.65227-42.09218"/>
<path transform="matrix(.38460306,.92303,.9230854,-.38458,69.85587,170.53516)" d="M2.59026 0-1.55415 2.0722 0 0-1.55415-2.0722" fill="#1a8c8c"/>
<path transform="matrix(1.00006,0,0,-1,100.50998,128.443)" stroke-width=".79701" stroke-linecap="butt" stroke-miterlimit="10" stroke-linejoin="miter" fill="none" stroke="#1a8c8c" d="M-34.01694-17.00911-29.76978-24.6555"/>
<path transform="matrix(.48559914,.87418,.8742324,-.48557,70.73842,153.09848)" d="M2.59026 0-1.55415 2.0722 0 0-1.55415-2.0722" fill="#1a8c8c"/>
<path transform="matrix(1.00006,0,0,-1,100.50998,128.443)" stroke-width=".79701" stroke-linecap="butt" stroke-miterlimit="10" stroke-linejoin="miter" fill="none" stroke="#1a8c8c" d="M-34.01694-.00128-28.41818-6.72131"/>
<path transform="matrix(.6400984,.76825,.76829609,-.64006,72.09007,135.1643)" d="M2.59026 0-1.55415 2.0722 0 0-1.55415-2.0722" fill="#1a8c8c"/>
<path transform="matrix(1.00006,0,0,-1,100.50998,128.443)" stroke-width=".79701" stroke-linecap="butt" stroke-miterlimit="10" stroke-linejoin="miter" fill="none" stroke="#1a8c8c" d="M-34.01694 17.0065-26.51508 12.50587"/>
<path transform="matrix(.85755148,.51445,.5144809,-.8575,73.99331,115.937129)" d="M2.59026 0-1.55415 2.0722 0 0-1.55415-2.0722" fill="#1a8c8c"/>
<path transform="matrix(1.00006,0,0,-1,100.50998,128.443)" stroke-width=".79701" stroke-linecap="butt" stroke-miterlimit="10" stroke-linejoin="miter" fill="none" stroke="#1a8c8c" d="M-34.01694 34.01434-25.26866 34.01349"/>
<path transform="matrix(1.00006,0,0,-1,75.23981,94.429508)" d="M2.59026 0-1.55415 2.0722 0 0-1.55415-2.0722" fill="#1a8c8c"/>
<path transform="matrix(1.00006,0,0,-1,100.50998,128.443)" stroke-width=".79701" stroke-linecap="butt" stroke-miterlimit="10" stroke-linejoin="miter" fill="none" stroke="#1a8c8c" d="M-34.01694 51.02217-26.51527 55.52104"/>
<path transform="matrix(.85762146,-.5143,-.5143308,-.85757,73.99312,72.92195)" d="M2.59026 0-1.55415 2.0722 0 0-1.55415-2.0722" fill="#1a8c8c"/>
<path transform="matrix(1.00006,0,0,-1,100.50998,128.443)" stroke-width=".79701" stroke-linecap="butt" stroke-miterlimit="10" stroke-linejoin="miter" fill="none" stroke="#1a8c8c" d="M-34.01694 68.02998-28.41838 74.74847"/>
<path transform="matrix(.6401784,-.76819,-.7682361,-.64014,72.0899,53.694536)" d="M2.59026 0-1.55415 2.0722 0 0-1.55415-2.0722" fill="#1a8c8c"/>
<path transform="matrix(1.00006,0,0,-1,100.50998,128.443)" stroke-width=".79701" stroke-linecap="butt" stroke-miterlimit="10" stroke-linejoin="miter" fill="none" stroke="#1a8c8c" d="M-34.01694 85.03783-29.76985 92.68338"/>
<path transform="matrix(.4856291,-.87416,-.8742124,-.4856,70.73833,35.759637)" d="M2.59026 0-1.55415 2.0722 0 0-1.55415-2.0722" fill="#1a8c8c"/>
<path transform="matrix(1.00006,0,0,-1,100.50998,128.443)" stroke-width=".79701" stroke-linecap="butt" stroke-miterlimit="10" stroke-linejoin="miter" fill="none" stroke="#1a8c8c" d="M-17.00911-85.04042-14.66768-93.46942"/>
<path transform="matrix(.26765604,.96346,.9635178,-.26764,85.84142,221.91239)" d="M2.59026 0-1.55415 2.0722 0 0-1.55415-2.0722" fill="#1a8c8c"/>
<path transform="matrix(1.00006,0,0,-1,100.50998,128.443)" stroke-width=".79701" stroke-linecap="butt" stroke-miterlimit="10" stroke-linejoin="miter" fill="none" stroke="#1a8c8c" d="M-17.00911-68.0326-14.24283-76.33171"/>
<path transform="matrix(.31621895,.94864,.94869688,-.3162,86.2663,204.7747)" d="M2.59026 0-1.55415 2.0722 0 0-1.55415-2.0722" fill="#1a8c8c"/>
<path transform="matrix(1.00006,0,0,-1,100.50998,128.443)" stroke-width=".79701" stroke-linecap="butt" stroke-miterlimit="10" stroke-linejoin="miter" fill="none" stroke="#1a8c8c" d="M-17.00911-51.02477-13.64444-59.09999"/>
<path transform="matrix(.38460306,.92303,.9230854,-.38458,86.86472,187.54297)" d="M2.59026 0-1.55415 2.0722 0 0-1.55415-2.0722" fill="#1a8c8c"/>
<path transform="matrix(1.00006,0,0,-1,100.50998,128.443)" stroke-width=".79701" stroke-linecap="butt" stroke-miterlimit="10" stroke-linejoin="miter" fill="none" stroke="#1a8c8c" d="M-17.00911-34.01694-12.76193-41.66335"/>
<path transform="matrix(.48559914,.87418,.8742324,-.48557,87.747287,170.10633)" d="M2.59026 0-1.55415 2.0722 0 0-1.55415-2.0722" fill="#1a8c8c"/>
<path transform="matrix(1.00006,0,0,-1,100.50998,128.443)" stroke-width=".79701" stroke-linecap="butt" stroke-miterlimit="10" stroke-linejoin="miter" fill="none" stroke="#1a8c8c" d="M-17.00911-17.00911-11.41034-23.72914"/>
<path transform="matrix(.6400984,.76825,.76829609,-.64006,89.098949,152.17214)" d="M2.59026 0-1.55415 2.0722 0 0-1.55415-2.0722" fill="#1a8c8c"/>
<path transform="matrix(1.00006,0,0,-1,100.50998,128.443)" stroke-width=".79701" stroke-linecap="butt" stroke-miterlimit="10" stroke-linejoin="miter" fill="none" stroke="#1a8c8c" d="M-17.00911-.00128-9.50723-4.50192"/>
<path transform="matrix(.85755148,.51445,.5144809,-.8575,91.00218,132.94492)" d="M2.59026 0-1.55415 2.0722 0 0-1.55415-2.0722" fill="#1a8c8c"/>
<path transform="matrix(1.00006,0,0,-1,100.50998,128.443)" stroke-width=".79701" stroke-linecap="butt" stroke-miterlimit="10" stroke-linejoin="miter" fill="none" stroke="#1a8c8c" d="M-17.00911 17.0065-8.26082 17.00566"/>
<path transform="matrix(1.00006,0,0,-1,92.248668,111.43733)" d="M2.59026 0-1.55415 2.0722 0 0-1.55415-2.0722" fill="#1a8c8c"/>
<path transform="matrix(1.00006,0,0,-1,100.50998,128.443)" stroke-width=".79701" stroke-linecap="butt" stroke-miterlimit="10" stroke-linejoin="miter" fill="none" stroke="#1a8c8c" d="M-17.00911 34.01434-9.50743 38.51321"/>
<path transform="matrix(.85762146,-.5143,-.5143308,-.85757,91.001979,89.92978)" d="M2.59026 0-1.55415 2.0722 0 0-1.55415-2.0722" fill="#1a8c8c"/>
<path transform="matrix(1.00006,0,0,-1,100.50998,128.443)" stroke-width=".79701" stroke-linecap="butt" stroke-miterlimit="10" stroke-linejoin="miter" fill="none" stroke="#1a8c8c" d="M-17.00911 51.02217-11.41054 57.74065"/>
<path transform="matrix(.6401784,-.76819,-.7682361,-.64014,89.09875,70.70236)" d="M2.59026 0-1.55415 2.0722 0 0-1.55415-2.0722" fill="#1a8c8c"/>
<path transform="matrix(1.00006,0,0,-1,100.50998,128.443)" stroke-width=".79701" stroke-linecap="butt" stroke-miterlimit="10" stroke-linejoin="miter" fill="none" stroke="#1a8c8c" d="M-17.00911 68.02998-12.76201 75.67555"/>
<path transform="matrix(.4856291,-.87416,-.8742124,-.4856,87.74719,52.767457)" d="M2.59026 0-1.55415 2.0722 0 0-1.55415-2.0722" fill="#1a8c8c"/>
<path transform="matrix(1.00006,0,0,-1,100.50998,128.443)" stroke-width=".79701" stroke-linecap="butt" stroke-miterlimit="10" stroke-linejoin="miter" fill="none" stroke="#1a8c8c" d="M-17.00911 85.03783-13.64444 93.11305"/>
<path transform="matrix(.38460306,-.92303,-.9230854,-.38458,86.86472,35.329957)" d="M2.59026 0-1.55415 2.0722 0 0-1.55415-2.0722" fill="#1a8c8c"/>
<path transform="matrix(1.00006,0,0,-1,100.50998,128.443)" stroke-width=".79701" stroke-linecap="butt" stroke-miterlimit="10" stroke-linejoin="miter" fill="none" stroke="#1a8c8c" d="M-.00128-85.04042 2.76497-93.33955"/>
<path transform="matrix(.31621895,.94864,.94869688,-.3162,103.275119,221.78253)" d="M2.59026 0-1.55415 2.0722 0 0-1.55415-2.0722" fill="#1a8c8c"/>
<path transform="matrix(1.00006,0,0,-1,100.50998,128.443)" stroke-width=".79701" stroke-linecap="butt" stroke-miterlimit="10" stroke-linejoin="miter" fill="none" stroke="#1a8c8c" d="M-.00128-68.0326 3.36337-76.10782"/>
<path transform="matrix(.38460306,.92303,.9230854,-.38458,103.87355,204.5508)" d="M2.59026 0-1.55415 2.0722 0 0-1.55415-2.0722" fill="#1a8c8c"/>
<path transform="matrix(1.00006,0,0,-1,100.50998,128.443)" stroke-width=".79701" stroke-linecap="butt" stroke-miterlimit="10" stroke-linejoin="miter" fill="none" stroke="#1a8c8c" d="M-.00128-51.02477 4.24588-58.67116"/>
<path transform="matrix(.48559914,.87418,.8742324,-.48557,104.75611,187.11414)" d="M2.59026 0-1.55415 2.0722 0 0-1.55415-2.0722" fill="#1a8c8c"/>
<path transform="matrix(1.00006,0,0,-1,100.50998,128.443)" stroke-width=".79701" stroke-linecap="butt" stroke-miterlimit="10" stroke-linejoin="miter" fill="none" stroke="#1a8c8c" d="M-.00128-34.01694 5.59747-40.73698"/>
<path transform="matrix(.6400984,.76825,.76829609,-.64006,106.10777,169.17998)" d="M2.59026 0-1.55415 2.0722 0 0-1.55415-2.0722" fill="#1a8c8c"/>
<path transform="matrix(1.00006,0,0,-1,100.50998,128.443)" stroke-width=".79701" stroke-linecap="butt" stroke-miterlimit="10" stroke-linejoin="miter" fill="none" stroke="#1a8c8c" d="M-.00128-17.00911 7.50058-21.50975"/>
<path transform="matrix(.85755148,.51445,.5144809,-.8575,108.01101,149.95275)" d="M2.59026 0-1.55415 2.0722 0 0-1.55415-2.0722" fill="#1a8c8c"/>
<path transform="matrix(1.00006,0,0,-1,100.50998,128.443)" stroke-width=".79701" stroke-linecap="butt" stroke-miterlimit="10" stroke-linejoin="miter" fill="none" stroke="#1a8c8c" d="M-.00128-.00128 8.74698-.00214"/>
<path transform="matrix(1.00006,0,0,-1,109.257488,128.44513)" d="M2.59026 0-1.55415 2.0722 0 0-1.55415-2.0722" fill="#1a8c8c"/>
<path transform="matrix(1.00006,0,0,-1,100.50998,128.443)" stroke-width=".79701" stroke-linecap="butt" stroke-miterlimit="10" stroke-linejoin="miter" fill="none" stroke="#1a8c8c" d="M-.00128 17.0065 7.50038 21.50539"/>
<path transform="matrix(.85762146,-.5143,-.5143308,-.85757,108.01081,106.93761)" d="M2.59026 0-1.55415 2.0722 0 0-1.55415-2.0722" fill="#1a8c8c"/>
<path transform="matrix(1.00006,0,0,-1,100.50998,128.443)" stroke-width=".79701" stroke-linecap="butt" stroke-miterlimit="10" stroke-linejoin="miter" fill="none" stroke="#1a8c8c" d="M-.00128 34.01434 5.59727 40.73283"/>
<path transform="matrix(.6401784,-.76819,-.7682361,-.64014,106.107578,87.710178)" d="M2.59026 0-1.55415 2.0722 0 0-1.55415-2.0722" fill="#1a8c8c"/>
<path transform="matrix(1.00006,0,0,-1,100.50998,128.443)" stroke-width=".79701" stroke-linecap="butt" stroke-miterlimit="10" stroke-linejoin="miter" fill="none" stroke="#1a8c8c" d="M-.00128 51.02217 4.2458 58.66772"/>
<path transform="matrix(.4856291,-.87416,-.8742124,-.4856,104.75603,69.77528)" d="M2.59026 0-1.55415 2.0722 0 0-1.55415-2.0722" fill="#1a8c8c"/>
<path transform="matrix(1.00006,0,0,-1,100.50998,128.443)" stroke-width=".79701" stroke-linecap="butt" stroke-miterlimit="10" stroke-linejoin="miter" fill="none" stroke="#1a8c8c" d="M-.00128 68.02998 3.36337 76.10521"/>
<path transform="matrix(.38460306,-.92303,-.9230854,-.38458,103.87355,52.33779)" d="M2.59026 0-1.55415 2.0722 0 0-1.55415-2.0722" fill="#1a8c8c"/>
<path transform="matrix(1.00006,0,0,-1,100.50998,128.443)" stroke-width=".79701" stroke-linecap="butt" stroke-miterlimit="10" stroke-linejoin="miter" fill="none" stroke="#1a8c8c" d="M-.00128 85.03783 2.76538 93.33781"/>
<path transform="matrix(.31622897,-.94864,-.94869688,-.31621,103.27553,35.105188)" d="M2.59026 0-1.55415 2.0722 0 0-1.55415-2.0722" fill="#1a8c8c"/>
<path transform="matrix(1.00006,0,0,-1,100.50998,128.443)" stroke-width=".79701" stroke-linecap="butt" stroke-miterlimit="10" stroke-linejoin="miter" fill="none" stroke="#1a8c8c" d="M17.0065-85.04042 20.37117-93.11565"/>
<path transform="matrix(.38460306,.92303,.9230854,-.38458,120.88237,221.55863)" d="M2.59026 0-1.55415 2.0722 0 0-1.55415-2.0722" fill="#1a8c8c"/>
<path transform="matrix(1.00006,0,0,-1,100.50998,128.443)" stroke-width=".79701" stroke-linecap="butt" stroke-miterlimit="10" stroke-linejoin="miter" fill="none" stroke="#1a8c8c" d="M17.0065-68.0326 21.25368-75.67899"/>
<path transform="matrix(.48559914,.87418,.8742324,-.48557,121.76493,204.12197)" d="M2.59026 0-1.55415 2.0722 0 0-1.55415-2.0722" fill="#1a8c8c"/>
<path transform="matrix(1.00006,0,0,-1,100.50998,128.443)" stroke-width=".79701" stroke-linecap="butt" stroke-miterlimit="10" stroke-linejoin="miter" fill="none" stroke="#1a8c8c" d="M17.0065-51.02477 22.60527-57.7448"/>
<path transform="matrix(.6400984,.76825,.76829609,-.64006,123.11659,186.18779)" d="M2.59026 0-1.55415 2.0722 0 0-1.55415-2.0722" fill="#1a8c8c"/>
<path transform="matrix(1.00006,0,0,-1,100.50998,128.443)" stroke-width=".79701" stroke-linecap="butt" stroke-miterlimit="10" stroke-linejoin="miter" fill="none" stroke="#1a8c8c" d="M17.0065-34.01694 24.50838-38.51758"/>
<path transform="matrix(.85755148,.51445,.5144809,-.8575,125.01983,166.96057)" d="M2.59026 0-1.55415 2.0722 0 0-1.55415-2.0722" fill="#1a8c8c"/>
<path transform="matrix(1.00006,0,0,-1,100.50998,128.443)" stroke-width=".79701" stroke-linecap="butt" stroke-miterlimit="10" stroke-linejoin="miter" fill="none" stroke="#1a8c8c" d="M17.0065-17.00911 25.75479-17.00996"/>
<path transform="matrix(1.00006,0,0,-1,126.26631,145.45296)" d="M2.59026 0-1.55415 2.0722 0 0-1.55415-2.0722" fill="#1a8c8c"/>
<path transform="matrix(1.00006,0,0,-1,100.50998,128.443)" stroke-width=".79701" stroke-linecap="butt" stroke-miterlimit="10" stroke-linejoin="miter" fill="none" stroke="#1a8c8c" d="M17.0065-.00128 24.50818 4.49757"/>
<path transform="matrix(.85762146,-.5143,-.5143308,-.85757,125.01963,123.94542)" d="M2.59026 0-1.55415 2.0722 0 0-1.55415-2.0722" fill="#1a8c8c"/>
<path transform="matrix(1.00006,0,0,-1,100.50998,128.443)" stroke-width=".79701" stroke-linecap="butt" stroke-miterlimit="10" stroke-linejoin="miter" fill="none" stroke="#1a8c8c" d="M17.0065 17.0065 22.60507 23.72499"/>
<path transform="matrix(.6401784,-.76819,-.7682361,-.64014,123.116397,104.71802)" d="M2.59026 0-1.55415 2.0722 0 0-1.55415-2.0722" fill="#1a8c8c"/>
<path transform="matrix(1.00006,0,0,-1,100.50998,128.443)" stroke-width=".79701" stroke-linecap="butt" stroke-miterlimit="10" stroke-linejoin="miter" fill="none" stroke="#1a8c8c" d="M17.0065 34.01434 21.2536 41.6599"/>
<path transform="matrix(.4856291,-.87416,-.8742124,-.4856,121.76485,86.78311)" d="M2.59026 0-1.55415 2.0722 0 0-1.55415-2.0722" fill="#1a8c8c"/>
<path transform="matrix(1.00006,0,0,-1,100.50998,128.443)" stroke-width=".79701" stroke-linecap="butt" stroke-miterlimit="10" stroke-linejoin="miter" fill="none" stroke="#1a8c8c" d="M17.0065 51.02217 20.37117 59.0974"/>
<path transform="matrix(.38460306,-.92303,-.9230854,-.38458,120.88237,69.34561)" d="M2.59026 0-1.55415 2.0722 0 0-1.55415-2.0722" fill="#1a8c8c"/>
<path transform="matrix(1.00006,0,0,-1,100.50998,128.443)" stroke-width=".79701" stroke-linecap="butt" stroke-miterlimit="10" stroke-linejoin="miter" fill="none" stroke="#1a8c8c" d="M17.0065 68.02998 19.7732 76.32997"/>
<path transform="matrix(.31622897,-.94864,-.94869688,-.31621,120.28436,52.11302)" d="M2.59026 0-1.55415 2.0722 0 0-1.55415-2.0722" fill="#1a8c8c"/>
<path transform="matrix(1.00006,0,0,-1,100.50998,128.443)" stroke-width=".79701" stroke-linecap="butt" stroke-miterlimit="10" stroke-linejoin="miter" fill="none" stroke="#1a8c8c" d="M17.0065 85.03783 19.34836 93.46725"/>
<path transform="matrix(.26765604,-.96346,-.9635178,-.26764,119.8595,34.975755)" d="M2.59026 0-1.55415 2.0722 0 0-1.55415-2.0722" fill="#1a8c8c"/>
<path transform="matrix(1.00006,0,0,-1,100.50998,128.443)" stroke-width=".79701" stroke-linecap="butt" stroke-miterlimit="10" stroke-linejoin="miter" fill="none" stroke="#1a8c8c" d="M34.01434-85.04042 38.26152-92.68681"/>
<path transform="matrix(.48559914,.87418,.8742324,-.48557,138.77379,221.12979)" d="M2.59026 0-1.55415 2.0722 0 0-1.55415-2.0722" fill="#1a8c8c"/>
<path transform="matrix(1.00006,0,0,-1,100.50998,128.443)" stroke-width=".79701" stroke-linecap="butt" stroke-miterlimit="10" stroke-linejoin="miter" fill="none" stroke="#1a8c8c" d="M34.01434-68.0326 39.61311-74.75262"/>
<path transform="matrix(.6400984,.76825,.76829609,-.64006,140.12546,203.19562)" d="M2.59026 0-1.55415 2.0722 0 0-1.55415-2.0722" fill="#1a8c8c"/>
<path transform="matrix(1.00006,0,0,-1,100.50998,128.443)" stroke-width=".79701" stroke-linecap="butt" stroke-miterlimit="10" stroke-linejoin="miter" fill="none" stroke="#1a8c8c" d="M34.01434-51.02477 41.51622-55.5254"/>
<path transform="matrix(.85755148,.51445,.5144809,-.8575,142.02869,183.96839)" d="M2.59026 0-1.55415 2.0722 0 0-1.55415-2.0722" fill="#1a8c8c"/>
<path transform="matrix(1.00006,0,0,-1,100.50998,128.443)" stroke-width=".79701" stroke-linecap="butt" stroke-miterlimit="10" stroke-linejoin="miter" fill="none" stroke="#1a8c8c" d="M34.01434-34.01694 42.76262-34.01779"/>
<path transform="matrix(1.00006,0,0,-1,143.27516,162.46079)" d="M2.59026 0-1.55415 2.0722 0 0-1.55415-2.0722" fill="#1a8c8c"/>
<path transform="matrix(1.00006,0,0,-1,100.50998,128.443)" stroke-width=".79701" stroke-linecap="butt" stroke-miterlimit="10" stroke-linejoin="miter" fill="none" stroke="#1a8c8c" d="M34.01434-17.00911 41.51602-12.51024"/>
<path transform="matrix(.85762146,-.5143,-.5143308,-.85757,142.02849,140.95323)" d="M2.59026 0-1.55415 2.0722 0 0-1.55415-2.0722" fill="#1a8c8c"/>
<path transform="matrix(1.00006,0,0,-1,100.50998,128.443)" stroke-width=".79701" stroke-linecap="butt" stroke-miterlimit="10" stroke-linejoin="miter" fill="none" stroke="#1a8c8c" d="M34.01434-.00128 39.61292 6.71718"/>
<path transform="matrix(.6401784,-.76819,-.7682361,-.64014,140.12526,121.72583)" d="M2.59026 0-1.55415 2.0722 0 0-1.55415-2.0722" fill="#1a8c8c"/>
<path transform="matrix(1.00006,0,0,-1,100.50998,128.443)" stroke-width=".79701" stroke-linecap="butt" stroke-miterlimit="10" stroke-linejoin="miter" fill="none" stroke="#1a8c8c" d="M34.01434 17.0065 38.26144 24.65207"/>
<path transform="matrix(.4856291,-.87416,-.8742124,-.4856,138.7737,103.79094)" d="M2.59026 0-1.55415 2.0722 0 0-1.55415-2.0722" fill="#1a8c8c"/>
<path transform="matrix(1.00006,0,0,-1,100.50998,128.443)" stroke-width=".79701" stroke-linecap="butt" stroke-miterlimit="10" stroke-linejoin="miter" fill="none" stroke="#1a8c8c" d="M34.01434 34.01434 37.37901 42.08957"/>
<path transform="matrix(.38460306,-.92303,-.9230854,-.38458,137.89124,86.35344)" d="M2.59026 0-1.55415 2.0722 0 0-1.55415-2.0722" fill="#1a8c8c"/>
<path transform="matrix(1.00006,0,0,-1,100.50998,128.443)" stroke-width=".79701" stroke-linecap="butt" stroke-miterlimit="10" stroke-linejoin="miter" fill="none" stroke="#1a8c8c" d="M34.01434 51.02217 36.78102 59.32216"/>
<path transform="matrix(.31622897,-.94864,-.94869688,-.31621,137.29322,69.120838)" d="M2.59026 0-1.55415 2.0722 0 0-1.55415-2.0722" fill="#1a8c8c"/>
<path transform="matrix(1.00006,0,0,-1,100.50998,128.443)" stroke-width=".79701" stroke-linecap="butt" stroke-miterlimit="10" stroke-linejoin="miter" fill="none" stroke="#1a8c8c" d="M34.01434 68.02998 36.35619 76.45943"/>
<path transform="matrix(.26765604,-.96346,-.9635178,-.26764,136.86835,51.98358)" d="M2.59026 0-1.55415 2.0722 0 0-1.55415-2.0722" fill="#1a8c8c"/>
<path transform="matrix(1.00006,0,0,-1,100.50998,128.443)" stroke-width=".79701" stroke-linecap="butt" stroke-miterlimit="10" stroke-linejoin="miter" fill="none" stroke="#1a8c8c" d="M34.01434 85.03783 36.04117 93.5483"/>
<path transform="matrix(.23164389,-.97275,-.97280839,-.23163,136.55332,34.894716)" d="M2.59026 0-1.55415 2.0722 0 0-1.55415-2.0722" fill="#1a8c8c"/>
<path transform="matrix(1.00006,0,0,-1,100.50998,128.443)" stroke-width=".79701" stroke-linecap="butt" stroke-miterlimit="10" stroke-linejoin="miter" fill="none" stroke="#1a8c8c" d="M51.02217-85.04042 56.62093-91.76045"/>
<path transform="matrix(.6400984,.76825,.76829609,-.64006,157.13428,220.20345)" d="M2.59026 0-1.55415 2.0722 0 0-1.55415-2.0722" fill="#1a8c8c"/>
<path transform="matrix(1.00006,0,0,-1,100.50998,128.443)" stroke-width=".79701" stroke-linecap="butt" stroke-miterlimit="10" stroke-linejoin="miter" fill="none" stroke="#1a8c8c" d="M51.02217-68.0326 58.52403-72.53322"/>
<path transform="matrix(.85755148,.51445,.5144809,-.8575,159.03752,200.97621)" d="M2.59026 0-1.55415 2.0722 0 0-1.55415-2.0722" fill="#1a8c8c"/>
<path transform="matrix(1.00006,0,0,-1,100.50998,128.443)" stroke-width=".79701" stroke-linecap="butt" stroke-miterlimit="10" stroke-linejoin="miter" fill="none" stroke="#1a8c8c" d="M51.02217-51.02477 59.77045-51.02562"/>
<path transform="matrix(1.00006,0,0,-1,160.28401,179.46862)" d="M2.59026 0-1.55415 2.0722 0 0-1.55415-2.0722" fill="#1a8c8c"/>
<path transform="matrix(1.00006,0,0,-1,100.50998,128.443)" stroke-width=".79701" stroke-linecap="butt" stroke-miterlimit="10" stroke-linejoin="miter" fill="none" stroke="#1a8c8c" d="M51.02217-34.01694 58.52383-29.51807"/>
<path transform="matrix(.85762146,-.5143,-.5143308,-.85757,159.03733,157.96106)" d="M2.59026 0-1.55415 2.0722 0 0-1.55415-2.0722" fill="#1a8c8c"/>
<path transform="matrix(1.00006,0,0,-1,100.50998,128.443)" stroke-width=".79701" stroke-linecap="butt" stroke-miterlimit="10" stroke-linejoin="miter" fill="none" stroke="#1a8c8c" d="M51.02217-17.00911 56.62073-10.29062"/>
<path transform="matrix(.6401784,-.76819,-.7682361,-.64014,157.13408,138.73363)" d="M2.59026 0-1.55415 2.0722 0 0-1.55415-2.0722" fill="#1a8c8c"/>
<path transform="matrix(1.00006,0,0,-1,100.50998,128.443)" stroke-width=".79701" stroke-linecap="butt" stroke-miterlimit="10" stroke-linejoin="miter" fill="none" stroke="#1a8c8c" d="M51.02217-.00128 55.26926 7.64426"/>
<path transform="matrix(.4856291,-.87416,-.8742124,-.4856,155.78253,120.79875)" d="M2.59026 0-1.55415 2.0722 0 0-1.55415-2.0722" fill="#1a8c8c"/>
<path transform="matrix(1.00006,0,0,-1,100.50998,128.443)" stroke-width=".79701" stroke-linecap="butt" stroke-miterlimit="10" stroke-linejoin="miter" fill="none" stroke="#1a8c8c" d="M51.02217 17.0065 54.38684 25.08174"/>
<path transform="matrix(.38460306,-.92303,-.9230854,-.38458,154.90009,103.36127)" d="M2.59026 0-1.55415 2.0722 0 0-1.55415-2.0722" fill="#1a8c8c"/>
<path transform="matrix(1.00006,0,0,-1,100.50998,128.443)" stroke-width=".79701" stroke-linecap="butt" stroke-miterlimit="10" stroke-linejoin="miter" fill="none" stroke="#1a8c8c" d="M51.02217 34.01434 53.78885 42.31433"/>
<path transform="matrix(.31622897,-.94864,-.94869688,-.31621,154.30205,86.12866)" d="M2.59026 0-1.55415 2.0722 0 0-1.55415-2.0722" fill="#1a8c8c"/>
<path transform="matrix(1.00006,0,0,-1,100.50998,128.443)" stroke-width=".79701" stroke-linecap="butt" stroke-miterlimit="10" stroke-linejoin="miter" fill="none" stroke="#1a8c8c" d="M51.02217 51.02217 53.36401 59.4516"/>
<path transform="matrix(.26765604,-.96346,-.9635178,-.26764,153.8772,68.99141)" d="M2.59026 0-1.55415 2.0722 0 0-1.55415-2.0722" fill="#1a8c8c"/>
<path transform="matrix(1.00006,0,0,-1,100.50998,128.443)" stroke-width=".79701" stroke-linecap="butt" stroke-miterlimit="10" stroke-linejoin="miter" fill="none" stroke="#1a8c8c" d="M51.02217 68.02998 53.04898 76.54047"/>
<path transform="matrix(.23164389,-.97275,-.97280839,-.23163,153.56214,51.902544)" d="M2.59026 0-1.55415 2.0722 0 0-1.55415-2.0722" fill="#1a8c8c"/>
<path transform="matrix(1.00006,0,0,-1,100.50998,128.443)" stroke-width=".79701" stroke-linecap="butt" stroke-miterlimit="10" stroke-linejoin="miter" fill="none" stroke="#1a8c8c" d="M51.02217 85.03783 52.80667 93.60231"/>
<path transform="matrix(.20396224,-.97894,-.9789987,-.20395,153.31981,34.840684)" d="M2.59026 0-1.55415 2.0722 0 0-1.55415-2.0722" fill="#1a8c8c"/>
<path transform="matrix(1.00006,0,0,-1,100.50998,128.443)" stroke-width=".79701" stroke-linecap="butt" stroke-miterlimit="10" stroke-linejoin="miter" fill="none" stroke="#1a8c8c" d="M68.02998-85.04042 75.53186-89.54106"/>
<path transform="matrix(.85755148,.51445,.5144809,-.8575,176.04637,217.98406)" d="M2.59026 0-1.55415 2.0722 0 0-1.55415-2.0722" fill="#1a8c8c"/>
<path transform="matrix(1.00006,0,0,-1,100.50998,128.443)" stroke-width=".79701" stroke-linecap="butt" stroke-miterlimit="10" stroke-linejoin="miter" fill="none" stroke="#1a8c8c" d="M68.02998-68.0326 76.77827-68.03343"/>
<path transform="matrix(1.00006,0,0,-1,177.29285,196.47643)" d="M2.59026 0-1.55415 2.0722 0 0-1.55415-2.0722" fill="#1a8c8c"/>
<path transform="matrix(1.00006,0,0,-1,100.50998,128.443)" stroke-width=".79701" stroke-linecap="butt" stroke-miterlimit="10" stroke-linejoin="miter" fill="none" stroke="#1a8c8c" d="M68.02998-51.02477 75.53166-46.5259"/>
<path transform="matrix(.85762146,-.5143,-.5143308,-.85757,176.04618,174.9689)" d="M2.59026 0-1.55415 2.0722 0 0-1.55415-2.0722" fill="#1a8c8c"/>
<path transform="matrix(1.00006,0,0,-1,100.50998,128.443)" stroke-width=".79701" stroke-linecap="butt" stroke-miterlimit="10" stroke-linejoin="miter" fill="none" stroke="#1a8c8c" d="M68.02998-34.01694 73.62856-27.29846"/>
<path transform="matrix(.6401784,-.76819,-.7682361,-.64014,174.14295,155.74147)" d="M2.59026 0-1.55415 2.0722 0 0-1.55415-2.0722" fill="#1a8c8c"/>
<path transform="matrix(1.00006,0,0,-1,100.50998,128.443)" stroke-width=".79701" stroke-linecap="butt" stroke-miterlimit="10" stroke-linejoin="miter" fill="none" stroke="#1a8c8c" d="M68.02998-17.00911 72.27708-9.36354"/>
<path transform="matrix(.4856291,-.87416,-.8742124,-.4856,172.79138,137.80655)" d="M2.59026 0-1.55415 2.0722 0 0-1.55415-2.0722" fill="#1a8c8c"/>
<path transform="matrix(1.00006,0,0,-1,100.50998,128.443)" stroke-width=".79701" stroke-linecap="butt" stroke-miterlimit="10" stroke-linejoin="miter" fill="none" stroke="#1a8c8c" d="M68.02998-.00128 71.39465 8.07393"/>
<path transform="matrix(.38460306,-.92303,-.9230854,-.38458,171.9089,120.36908)" d="M2.59026 0-1.55415 2.0722 0 0-1.55415-2.0722" fill="#1a8c8c"/>
<path transform="matrix(1.00006,0,0,-1,100.50998,128.443)" stroke-width=".79701" stroke-linecap="butt" stroke-miterlimit="10" stroke-linejoin="miter" fill="none" stroke="#1a8c8c" d="M68.02998 17.0065 70.79668 25.3065"/>
<path transform="matrix(.31622897,-.94864,-.94869688,-.31621,171.3109,103.13649)" d="M2.59026 0-1.55415 2.0722 0 0-1.55415-2.0722" fill="#1a8c8c"/>
<path transform="matrix(1.00006,0,0,-1,100.50998,128.443)" stroke-width=".79701" stroke-linecap="butt" stroke-miterlimit="10" stroke-linejoin="miter" fill="none" stroke="#1a8c8c" d="M68.02998 34.01434 70.37184 42.44379"/>
<path transform="matrix(.26765604,-.96346,-.9635178,-.26764,170.88605,85.99922)" d="M2.59026 0-1.55415 2.0722 0 0-1.55415-2.0722" fill="#1a8c8c"/>
<path transform="matrix(1.00006,0,0,-1,100.50998,128.443)" stroke-width=".79701" stroke-linecap="butt" stroke-miterlimit="10" stroke-linejoin="miter" fill="none" stroke="#1a8c8c" d="M68.02998 51.02217 70.05681 59.53264"/>
<path transform="matrix(.23164389,-.97275,-.97280839,-.23163,170.57099,68.91037)" d="M2.59026 0-1.55415 2.0722 0 0-1.55415-2.0722" fill="#1a8c8c"/>
<path transform="matrix(1.00006,0,0,-1,100.50998,128.443)" stroke-width=".79701" stroke-linecap="butt" stroke-miterlimit="10" stroke-linejoin="miter" fill="none" stroke="#1a8c8c" d="M68.02998 68.02998 69.81448 76.59448"/>
<path transform="matrix(.20396224,-.97894,-.9789987,-.20395,170.32865,51.84851)" d="M2.59026 0-1.55415 2.0722 0 0-1.55415-2.0722" fill="#1a8c8c"/>
<path transform="matrix(1.00006,0,0,-1,100.50998,128.443)" stroke-width=".79701" stroke-linecap="butt" stroke-miterlimit="10" stroke-linejoin="miter" fill="none" stroke="#1a8c8c" d="M68.02998 85.03783 69.62288 93.63966"/>
<path transform="matrix(.18208093,-.98323,-.98328897,-.18207,170.13703,34.803346)" d="M2.59026 0-1.55415 2.0722 0 0-1.55415-2.0722" fill="#1a8c8c"/>
<path transform="matrix(1.00006,0,0,-1,100.50998,128.443)" stroke-width=".79701" stroke-linecap="butt" stroke-miterlimit="10" stroke-linejoin="miter" fill="none" stroke="#1a8c8c" d="M85.03783-85.04042 93.7861-85.04128"/>
<path transform="matrix(1.00006,0,0,-1,194.3017,213.48429)" d="M2.59026 0-1.55415 2.0722 0 0-1.55415-2.0722" fill="#1a8c8c"/>
<path transform="matrix(1.00006,0,0,-1,100.50998,128.443)" stroke-width=".79701" stroke-linecap="butt" stroke-miterlimit="10" stroke-linejoin="miter" fill="none" stroke="#1a8c8c" d="M85.03783-68.0326 92.53949-63.5337"/>
<path transform="matrix(.85762146,-.5143,-.5143308,-.85757,193.05503,191.97669)" d="M2.59026 0-1.55415 2.0722 0 0-1.55415-2.0722" fill="#1a8c8c"/>
<path transform="matrix(1.00006,0,0,-1,100.50998,128.443)" stroke-width=".79701" stroke-linecap="butt" stroke-miterlimit="10" stroke-linejoin="miter" fill="none" stroke="#1a8c8c" d="M85.03783-51.02477 90.6364-44.30627"/>
<path transform="matrix(.6401784,-.76819,-.7682361,-.64014,191.1518,172.74929)" d="M2.59026 0-1.55415 2.0722 0 0-1.55415-2.0722" fill="#1a8c8c"/>
<path transform="matrix(1.00006,0,0,-1,100.50998,128.443)" stroke-width=".79701" stroke-linecap="butt" stroke-miterlimit="10" stroke-linejoin="miter" fill="none" stroke="#1a8c8c" d="M85.03783-34.01694 89.28493-26.37138"/>
<path transform="matrix(.4856291,-.87416,-.8742124,-.4856,189.80025,154.81439)" d="M2.59026 0-1.55415 2.0722 0 0-1.55415-2.0722" fill="#1a8c8c"/>
<path transform="matrix(1.00006,0,0,-1,100.50998,128.443)" stroke-width=".79701" stroke-linecap="butt" stroke-miterlimit="10" stroke-linejoin="miter" fill="none" stroke="#1a8c8c" d="M85.03783-17.00911 88.4025-8.93387"/>
<path transform="matrix(.38460306,-.92303,-.9230854,-.38458,188.91779,137.37688)" d="M2.59026 0-1.55415 2.0722 0 0-1.55415-2.0722" fill="#1a8c8c"/>
<path transform="matrix(1.00006,0,0,-1,100.50998,128.443)" stroke-width=".79701" stroke-linecap="butt" stroke-miterlimit="10" stroke-linejoin="miter" fill="none" stroke="#1a8c8c" d="M85.03783-.00128 87.8045 8.29869"/>
<path transform="matrix(.31622897,-.94864,-.94869688,-.31621,188.31974,120.1443)" d="M2.59026 0-1.55415 2.0722 0 0-1.55415-2.0722" fill="#1a8c8c"/>
<path transform="matrix(1.00006,0,0,-1,100.50998,128.443)" stroke-width=".79701" stroke-linecap="butt" stroke-miterlimit="10" stroke-linejoin="miter" fill="none" stroke="#1a8c8c" d="M85.03783 17.0065 87.37967 25.43594"/>
<path transform="matrix(.26765604,-.96346,-.9635178,-.26764,187.8949,103.007068)" d="M2.59026 0-1.55415 2.0722 0 0-1.55415-2.0722" fill="#1a8c8c"/>
<path transform="matrix(1.00006,0,0,-1,100.50998,128.443)" stroke-width=".79701" stroke-linecap="butt" stroke-miterlimit="10" stroke-linejoin="miter" fill="none" stroke="#1a8c8c" d="M85.03783 34.01434 87.06464 42.52483"/>
<path transform="matrix(.23164389,-.97275,-.97280839,-.23163,187.57984,85.91818)" d="M2.59026 0-1.55415 2.0722 0 0-1.55415-2.0722" fill="#1a8c8c"/>
<path transform="matrix(1.00006,0,0,-1,100.50998,128.443)" stroke-width=".79701" stroke-linecap="butt" stroke-miterlimit="10" stroke-linejoin="miter" fill="none" stroke="#1a8c8c" d="M85.03783 51.02217 86.82233 59.58665"/>
<path transform="matrix(.20396224,-.97894,-.9789987,-.20395,187.3375,68.85634)" d="M2.59026 0-1.55415 2.0722 0 0-1.55415-2.0722" fill="#1a8c8c"/>
<path transform="matrix(1.00006,0,0,-1,100.50998,128.443)" stroke-width=".79701" stroke-linecap="butt" stroke-miterlimit="10" stroke-linejoin="miter" fill="none" stroke="#1a8c8c" d="M85.03783 68.02998 86.63072 76.63182"/>
<path transform="matrix(.18208093,-.98323,-.98328897,-.18207,187.14588,51.811197)" d="M2.59026 0-1.55415 2.0722 0 0-1.55415-2.0722" fill="#1a8c8c"/>
<path transform="matrix(1.00006,0,0,-1,100.50998,128.443)" stroke-width=".79701" stroke-linecap="butt" stroke-miterlimit="10" stroke-linejoin="miter" fill="none" stroke="#1a8c8c" d="M85.03783 85.03783 86.4759 93.66705"/>
<path transform="matrix(.16435986,-.98634,-.9863991,-.16435,186.99106,34.77594)" d="M2.59026 0-1.55415 2.0722 0 0-1.55415-2.0722" fill="#1a8c8c"/>
<path transform="matrix(1.00006,0,0,-1,100.50998,128.443)" stroke-width=".79701" stroke-linecap="butt" stroke-miterlimit="10" stroke-linejoin="miter" fill="none" stroke="#ec008c" d="M-85.04042 59.51117-83.8955 58.48561-82.75056 57.46007-81.60562 56.44489-80.46071 55.43059-79.31577 54.42235-78.17085 53.41843-77.02592 52.42143-75.88098 51.42963-74.73607 50.44905-73.59113 49.46849-72.44621 48.49916-71.30128 47.5359-70.15634 46.57784-69.01143 45.63188-67.86649 44.6911-66.72157 43.76158-65.57663 42.83725-64.4317 41.92503-63.28679 41.01886-62.14185 40.12308-60.99693 39.2394-59.85199 38.3661-58.70706 37.50491-57.56215 36.65498-56.4172 35.8163-55.2723 34.98885-54.12735 34.17871-52.98242 33.3798-51.83751 32.59735-50.69257 31.827-49.54765 31.07307-48.40271 30.33647-47.2578 29.6111-46.11285 28.90823-44.96793 28.22266-43.82301 27.56044-42.67807 26.9138-41.53316 26.28532-40.38821 25.67932-39.24329 25.09584-38.09837 24.54002-36.95343 24.00238-35.80852 23.49242-34.66357 23.011-33.51865 22.55208-32.37373 22.12172-31.22879 21.72507-30.08388 21.35698-28.93893 21.01744-27.794 20.71768-26.64908 20.45169-25.50415 20.2194-24.35924 20.02174-23.2143 19.86905-22.06937 19.75096-20.92444 19.68306-19.77951 19.65582-18.6346 19.67267-17.48965 19.73627-16.34473 19.85608-15.1998 20.02087-14.05487 20.24277-12.90996 20.52089-11.76501 20.86128-10.6201 21.25879-9.47516 21.71945-8.33023 22.2467-7.1853 22.84837-6.04037 23.51839-4.89546 24.2619-3.75052 25.07896-2.60559 25.98686-1.46066 26.9683-.31573 28.04662 .82915 29.2002 1.97409 30.46017 3.11902 31.8205 4.26395 33.28465 5.40887 34.85432 6.55379 36.53734 7.69873 38.33626 8.84366 40.25803 9.98859 42.30437 11.13351 44.48306 12.27844 46.7993 13.42337 49.25655 14.5683 51.86519 15.71323 54.62694 16.85815 57.54959 18.00308 60.63835 19.14801 63.90358 20.29294 67.35048 21.43787 70.98682 22.5828 74.81953 23.72772 78.85728 24.87265 83.10956 26.01756 87.58244 27.1625 92.28802 28.30743 97.2341"/>
<path transform="matrix(1.00006,0,0,-1,100.50998,128.443)" stroke-width=".79701" stroke-linecap="butt" stroke-miterlimit="10" stroke-linejoin="miter" fill="none" stroke="#000000" d="M-99.21382 0H98.50645"/>
<path transform="matrix(1.00006,0,0,-1,199.02234,128.443)" stroke-width=".6376" stroke-linecap="round" stroke-linejoin="round" fill="none" stroke="#000000" d="M-1.55415 2.0722C-1.42464 1.29512 0 .1295 .38852 0 0-.1295-1.42464-1.29512-1.55415-2.0722"/>
<use data-text="x" xlink:href="#font_1_1" transform="matrix(10.037002,0,0,-10.0364,203.54717,130.881)"/>
<path transform="matrix(1.00006,0,0,-1,100.50998,128.443)" stroke-width=".79701" stroke-linecap="butt" stroke-miterlimit="10" stroke-linejoin="miter" fill="none" stroke="#000000" d="M0-99.21382V98.50645"/>
<path transform="matrix(0,-1,-1.00006,-0,100.50998,29.936547)" stroke-width=".6376" stroke-linecap="round" stroke-linejoin="round" fill="none" stroke="#000000" d="M-1.55415 2.0722C-1.42464 1.29512 0 .1295 .38852 0 0-.1295-1.42464-1.29512-1.55415-2.0722"/>
<use data-text="y" xlink:href="#font_1_2" transform="matrix(10.037002,0,0,-10.0364,97.97383,23.165993)"/>
<use data-text="S" xlink:href="#font_2_2" transform="matrix(9.166149,0,0,-9.1656,52.745119,9.35199)"/>
<use data-text="l" xlink:href="#font_2_6" transform="matrix(9.166149,0,0,-9.1656,57.72235,9.35199)"/>
<use data-text="o" xlink:href="#font_2_7" transform="matrix(9.166149,0,0,-9.1656,60.554689,9.35199)"/>
<use data-text="p" xlink:href="#font_2_8" transform="matrix(9.166149,0,0,-9.1656,65.907718,9.35199)"/>
<use data-text="e" xlink:href="#font_2_4" transform="matrix(9.166149,0,0,-9.1656,71.54489,9.35199)"/>
<use data-text="&#xfb01;" xlink:href="#font_2_1" transform="matrix(9.166149,0,0,-9.1656,78.217838,9.35199)"/>
<use data-text="e" xlink:href="#font_2_4" transform="matrix(9.166149,0,0,-9.1656,84.075,9.35199)"/>
<use data-text="l" xlink:href="#font_2_6" transform="matrix(9.166149,0,0,-9.1656,88.83223,9.35199)"/>
<use data-text="d" xlink:href="#font_2_3" transform="matrix(9.166149,0,0,-9.1656,91.664569,9.35199)"/>
<use data-text="f" xlink:href="#font_2_5" transform="matrix(9.166149,0,0,-9.1656,99.12581,9.35199)"/>
<use data-text="o" xlink:href="#font_2_7" transform="matrix(9.166149,0,0,-9.1656,102.26979,9.35199)"/>
<use data-text="r" xlink:href="#font_2_9" transform="matrix(9.166149,0,0,-9.1656,107.63199,9.35199)"/>
<use data-text="y" xlink:href="#font_1_2" transform="matrix(9.166149,0,0,-9.1656,122.85632,9.35199)"/>
<use data-text="&#x2032;" xlink:href="#font_3_1" transform="matrix(6.9663178,0,0,-6.9659,127.987628,5.7359926)"/>
<use data-text="=" xlink:href="#font_3_3" transform="matrix(9.166149,0,0,-9.1656,132.24289,9.35199)"/>
<use data-text="x" xlink:href="#font_1_1" transform="matrix(9.166149,0,0,-9.1656,140.74239,9.35199)"/>
<use data-text="+" xlink:href="#font_3_2" transform="matrix(9.166149,0,0,-9.1656,147.33078,9.35199)"/>
<use data-text="y" xlink:href="#font_1_2" transform="matrix(9.166149,0,0,-9.1656,155.64228,9.35199)"/>
</svg>
