<svg xmlns="http://www.w3.org/2000/svg" xmlns:xlink="http://www.w3.org/1999/xlink" version="1.1" width="124" height="45" viewBox="0 0 124 45">
<defs>
<path id="font_1_1" d="M.42799378 .15419007C.3939972 .10821533 .33499146 .03727722 .2679901 .03727722 .19499207 .03727722 .17999268 .097229007 .17999268 .16816712 .17999268 .29808045 .25498963 .46694947 .34700013 .46694947 .3789978 .46694947 .40098573 .44696046 .40699769 .38700868 .40899659 .36901856 .41799928 .35702516 .43598939 .35702516 .45999146 .35702516 .5 .38002015 .5 .41299439 .5 .46394349 .44599916 .5019531 .37098695 .5019531 .19299317 .5019531 .08099365 .31207276 .08099365 .14819336 .08099365 .026275635 .1539917-.01171875 .22399903-.01171875 .2979889-.01171875 .3829956 .02027893 .45199586 .13519287L.42799378 .15419007Z"/>
<path id="font_1_2" d="M.42799378 .45222474 .43899537 .49023438H.31199647L.34599305 .6092224 .33399964 .6162262 .23699951 .53923037 .22399903 .49023438H.14299011L.13198853 .45222474H.21499634L.125 .08627319C.10998535 .029266358 .12199402-.01171875 .17199707-.01171875 .2519989-.01171875 .31599427 .054275514 .35598756 .1292572L.33399964 .1462555C.31098939 .10726929 .2599945 .040267946 .22898865 .040267946 .20799256 .040267946 .20799256 .0632782 .21398926 .088272098L.30299378 .45222474H.42799378Z"/>
<path id="font_2_3" d="M.07398987 .2861328V.21612549H.31900025V.2861328H.07398987Z"/>
<path id="font_2_7" d="M.12998963 .3657837C.12998963 .3487854 .1349945 .33779908 .147995 .33779908 .1599884 .33779908 .18699646 .34777833 .23498535 .34777833 .31999208 .34777833 .36799623 .27090455 .36799623 .18403626 .36799623 .065216068 .30899049 .023269654 .23799134 .023269654 .17199707 .023269654 .1289978 .07319641 .10998535 .12911988 .10398865 .14808655 .09399414 .15707398 .07998657 .15707398 .06199646 .15707398 .026992798 .13809204 .026992798 .10215759 .026992798 .05921936 .09599304-.01171875 .23699951-.01171875 .38198854-.01171875 .47299195 .06121826 .47299195 .18902588 .47299195 .32281495 .35798646 .3627777 .30299378 .3677826V.3717804C.35699464 .38078309 .44400025 .4207611 .44400025 .5197296 .44400025 .6306915 .35699464 .6796875 .25 .6796875 .117996219 .6796875 .052993776 .60369876 .052993776 .5607147 .052993776 .5297241 .08799744 .51272585 .101989749 .51272585 .114990238 .51272585 .12298584 .5197296 .1269989 .5327301 .14898682 .60069277 .18699646 .64468386 .24299622 .64468386 .32199098 .64468386 .34098817 .57470706 .34098817 .51872256 .34098817 .4587555 .31999208 .38378907 .23498535 .38378907 .18699646 .38378907 .1599884 .39378358 .147995 .39378358 .1349945 .39378358 .12998963 .38378907 .12998963 .3657837Z"/>
<path id="font_2_6" d="M.4850006 .13195801 .45700074 .13696289C.43598939 .08299255 .41600038 .07598877 .37599183 .07598877H.11999512C.13598633 .1279602 .19499207 .19892884 .28799439 .2658844 .38398744 .33584596 .45799256 .38082887 .45799256 .49276734 .45799256 .63168337 .3659973 .6796875 .26098634 .6796875 .12399292 .6796875 .052993776 .5967102 .052993776 .54473879 .052993776 .51075747 .09098816 .49476625 .10798645 .49476625 .12599182 .49476625 .1329956 .50476077 .13699341 .5217438 .15299988 .5897064 .19198609 .64468386 .2539978 .64468386 .33099366 .64468386 .35299684 .5797119 .35299684 .50675967 .35299684 .3998108 .29899598 .33984376 .21199036 .26289369 .08898926 .15594483 .04598999 .08798218 .026992798 .009994507L.036987306 0H.45098878L.4850006 .13195801Z"/>
<path id="font_2_5" d="M.43699647 0V.0289917L.35299684 .035995485C.33198548 .037994386 .31999208 .04598999 .31999208 .08496094V.67367556L.31498719 .6796875 .10899353 .6446991V.6197052L.20199585 .6087036C.21899414 .6067047 .22599793 .5987091 .22599793 .56973269V.08496094C.22599793 .065979007 .22299195 .053985597 .21699524 .04698181 .21199036 .039993287 .20399475 .036987306 .19299317 .035995485L.10899353 .0289917V0H.43699647Z"/>
<path id="font_2_8" d="M.2999878 .17871094V.0769043C.2999878 .04296875 .2889862 .036987306 .2649994 .034988405L.20098877 .0289917V0H.46499635V.0289917L.41999818 .033981325C.39698792 .036987306 .3899994 .04296875 .3899994 .0769043V.17871094H.49299623V.22570801H.3899994V.66796877H.31698609C.22299195 .5298767 .11099243 .35577394 .018997193 .19970703L.027999878 .17871094H.2999878M.09098816 .22570801C.15098572 .33476258 .22099304 .4498291 .2979889 .5709076H.2999878V.22570801H.09098816Z"/>
<path id="font_3_1" d="M.6349945 .2529297V.31092835H.084991458V.2529297H.6349945Z"/>
<path id="font_1_3" d="M.5329895 .48995973C.5039978 .388031 .48799134 .33506776 .46199037 .2741089 .41799928 .173172 .33099366 .040267946 .24798584 .040267946 .21598816 .040267946 .20799256 .070251468 .22299195 .12820435L.31900025 .4970703 .31399537 .50205996 .13198853 .47375489 .12599182 .4497528 .18798828 .44476319C.21199036 .44276429 .21099854 .42778016 .20298767 .39682008L.13398743 .13316345C.11299133 .053253175 .12098694-.01171875 .20098877-.01171875 .29699708-.01171875 .4019928 .09420776 .46199037 .21005249H.46398927L.43099977 .096206668C.4119873 .029266358 .42399598-.01171875 .47698976-.01171875 .548996-.01171875 .60899356 .057250978 .6439972 .13116455L.6199951 .14613343C.59999087 .11218262 .55599978 .040267946 .5279999 .040267946 .5069885 .040267946 .5069885 .06324768 .5149994 .09420776L.621994 .5019531 .5329895 .48995973Z"/>
<path id="font_2_1" d="M.1749878 .2822113C.1749878 .56832888 .2619934 .65437319 .32499696 .66737368V.6923828C.1499939 .685379 .10499573 .46829225 .10499573 .2822113 .10499573 .09614563 .1499939-.12094116 .32499696-.12792969V-.10293579C.2669983-.090927127 .1749878-.0059051516 .1749878 .2822113Z"/>
<path id="font_2_2" d="M.1749878 .2822113C.1749878-.0059051516 .08299255-.090927127 .024993897-.10293579V-.12792969C.19999695-.12094116 .24499512 .09614563 .24499512 .2822113 .24499512 .46829225 .19999695 .685379 .024993897 .6923828V.66737368C.08799744 .65437319 .1749878 .56832888 .1749878 .2822113Z"/>
<path id="font_3_2" d="M.6349945 .14315796V.20117188H.084991458V.14315796H.6349945M.6349945 .36288453V.42089845H.084991458V.36288453H.6349945Z"/>
<path id="font_2_4" d="M.2649994 .64468386C.3600006 .64468386 .3869934 .49682618 .3869934 .33398438 .3869934 .17112732 .3600006 .023269654 .2649994 .023269654 .16999817 .023269654 .14299011 .17112732 .14299011 .33398438 .14299011 .49682618 .16999817 .64468386 .2649994 .64468386M.2649994 .6796875C.099990848 .6796875 .040985109 .53378298 .040985109 .33398438 .040985109 .13417053 .099990848-.01171875 .2649994-.01171875 .42999269-.01171875 .4889984 .13417053 .4889984 .33398438 .4889984 .53378298 .42999269 .6796875 .2649994 .6796875Z"/>
<path id="font_2_12" d="M.18998719 .7480469C.13999939 .7020416 .07199097 .6350403 .07199097 .56404116 .07199097 .5100403 .10398865 .47703553 .13699341 .4780426 .16699219 .4780426 .18499756 .4990387 .18499756 .5260315 .18499756 .56204226 .1519928 .58303835 .1519928 .6200409 .1519928 .6580353 .17599488 .6960449 .20698548 .7320404L.18998719 .7480469M.36999513 .7480469C.31999208 .7020416 .2519989 .6350403 .2519989 .56404116 .2519989 .5100403 .28399659 .47703553 .31698609 .4780426 .34700013 .4780426 .36499024 .4990387 .36499024 .5260315 .36499024 .56204226 .33198548 .58303835 .33198548 .6200409 .33198548 .6580353 .35598756 .6960449 .3869934 .7320404L.36999513 .7480469Z"/>
<path id="font_2_11" d="M.28799439 .5019531C.12799073 .5019531 .04899597 .40698243 .04899597 .24510193 .04899597 .083236698 .12799073-.01171875 .28799439-.01171875 .44999696-.01171875 .5279999 .083236698 .5279999 .24510193 .5279999 .40698243 .44999696 .5019531 .28799439 .5019531M.15299988 .24510193C.15299988 .38301087 .19699097 .46694947 .28799439 .46694947 .3809967 .46694947 .42399598 .38301087 .42399598 .24510193 .42399598 .10720825 .3809967 .023269654 .28799439 .023269654 .19699097 .023269654 .15299988 .10720825 .15299988 .24510193Z"/>
<path id="font_2_10" d="M.5289917 .34295655C.5289917 .4439392 .47399903 .5019531 .38198854 .5019531 .30799867 .5019531 .2619934 .46594239 .19999695 .4259491L.18598938 .5019531 .036987306 .47694398V.45195008L.07499695 .4469452C.100997928 .4429474 .10699463 .4379425 .10699463 .40194703V.08699036C.10699463 .035995485 .10398865 .033996583 .03199768 .0289917V0H.27598573V.0289917C.20498657 .033996583 .20098877 .035995485 .20098877 .08699036V.32095338C.20098877 .34596253 .20298767 .35995484 .21099854 .37594605 .23199463 .4149475 .2769928 .44795228 .32998658 .44795228 .397995 .44795228 .43499757 .40994264 .43499757 .32295228V.08699036C.43499757 .035995485 .43199159 .033996583 .3600006 .0289917V0H.60398867V.0289917C.5329895 .033996583 .5289917 .035995485 .5289917 .08699036V.34295655Z"/>
<path id="font_2_13" d="M.08898926 .47218324C.13899231 .5181732 .20698548 .58517459 .20698548 .6561737 .20698548 .71017459 .1749878 .7431793 .14199829 .7421875 .11199951 .7421875 .09399414 .72117617 .09399414 .69418337 .09399414 .6581726 .1269989 .6371765 .1269989 .60017397 .1269989 .56217959 .102996829 .5241852 .07199097 .48817445L.08898926 .47218324M.2689972 .47218324C.31900025 .5181732 .3869934 .58517459 .3869934 .6561737 .3869934 .71017459 .35499574 .7431793 .32199098 .7421875 .2919922 .7421875 .27398683 .72117617 .27398683 .69418337 .27398683 .6581726 .30699159 .6371765 .30699159 .60017397 .30699159 .56217959 .2829895 .5241852 .2519989 .48817445L.2689972 .47218324Z"/>
<path id="font_2_9" d="M.20098877 .45022584H.32299806V.49023438H.20098877L.19699097 .60220339C.19400025 .6971741 .22898865 .70718386 .24499512 .70718386 .2659912 .70718386 .28799439 .6971741 .31298829 .6391907 .31799317 .62919619 .32499696 .6221924 .33999635 .6221924 .3600006 .6221924 .3889923 .6391907 .3889923 .66918948 .3889923 .70217898 .34700013 .7421875 .2669983 .7421875 .21199036 .7421875 .16499329 .71717837 .13999939 .67918398 .116989139 .64419558 .10699463 .5912018 .10699463 .5252228V.49023438H.02999878V.45022584H.10699463V.087020877C.10699463 .035995485 .10398865 .033996583 .03199768 .0289917V0H.29599V.0289917C.20498657 .032989503 .20098877 .034988405 .20098877 .08602905V.45022584Z"/>
</defs>
<path transform="matrix(1,0,0,-1.00006,53.93,28.413865)" d="M-49.6069-15.59082V26.92937H19.84267V-15.59082ZM19.84267 26.92937" fill="#d9d9ff"/>
<path transform="matrix(1,0,0,-1.00006,53.93,28.413865)" d="M19.84267-15.59082V26.92937H68.03238V-15.59082ZM68.03238 26.92937" fill="#d9f0d9"/>
<path transform="matrix(1,0,0,-1.00006,53.93,28.413865)" stroke-width=".19925" stroke-linecap="butt" stroke-dasharray="2.98883,2.98883" stroke-miterlimit="10" stroke-linejoin="miter" fill="none" stroke="#000000" d="M19.84267-15.59082V26.92937"/>
<use data-text="c" xlink:href="#font_1_1" transform="matrix(9.1656,0,0,-9.166149,71.392,37.763425)"/>
<path transform="matrix(1,0,0,-1.00006,53.93,28.413865)" stroke-width=".3985" stroke-linecap="butt" stroke-miterlimit="10" stroke-linejoin="miter" fill="none" stroke="#000000" d="M-49.6069 0H67.5741"/>
<path transform="matrix(1,0,0,-1.00006,121.5041,28.413865)" stroke-width=".31879" stroke-linecap="round" stroke-linejoin="round" fill="none" stroke="#000000" d="M-1.19551 1.59401C-1.09587 .99626 0 .09961 .29886 0 0-.09961-1.09587-.99626-1.19551-1.59401"/>
<path transform="matrix(1,0,0,-1.00006,53.93,28.413865)" stroke-width=".3985" stroke-linecap="butt" stroke-miterlimit="10" stroke-linejoin="miter" fill="none" stroke="#000000" d="M0-15.59082V26.47108"/>
<path transform="matrix(0,-1.00006,-1,-0,53.93,1.9411965)" stroke-width=".31879" stroke-linecap="round" stroke-linejoin="round" fill="none" stroke="#000000" d="M-1.19551 1.59401C-1.09587 .99626 0 .09961 .29886 0 0-.09961-1.09587-.99626-1.19551-1.59401"/>
<use data-text="t" xlink:href="#font_1_2" transform="matrix(7.3325,0,0,-7.3329398,118.981998,36.33234)"/>
<path transform="matrix(1,0,0,-1.00006,53.93,28.413865)" stroke-width=".3985" stroke-linecap="butt" stroke-miterlimit="10" stroke-linejoin="miter" fill="none" stroke="#929292" d="M-42.5202 1.4174V-1.4174"/>
<use data-text="-" xlink:href="#font_2_3" transform="matrix(7.3325,0,0,-7.3329398,8.026001,37.85643)"/>
<use data-text="3" xlink:href="#font_2_7" transform="matrix(7.3325,0,0,-7.3329398,10.900337,37.85643)"/>
<path transform="matrix(1,0,0,-1.00006,53.93,28.413865)" stroke-width=".3985" stroke-linecap="butt" stroke-miterlimit="10" stroke-linejoin="miter" fill="none" stroke="#929292" d="M-28.3468 1.4174V-1.4174"/>
<use data-text="-" xlink:href="#font_2_3" transform="matrix(7.3325,0,0,-7.3329398,22.200005,37.85643)"/>
<use data-text="2" xlink:href="#font_2_6" transform="matrix(7.3325,0,0,-7.3329398,25.07434,37.85643)"/>
<path transform="matrix(1,0,0,-1.00006,53.93,28.413865)" stroke-width=".3985" stroke-linecap="butt" stroke-miterlimit="10" stroke-linejoin="miter" fill="none" stroke="#929292" d="M-14.17339 1.4174V-1.4174"/>
<use data-text="-" xlink:href="#font_2_3" transform="matrix(7.3325,0,0,-7.3329398,36.373,37.85643)"/>
<use data-text="1" xlink:href="#font_2_5" transform="matrix(7.3325,0,0,-7.3329398,39.247339,37.85643)"/>
<path transform="matrix(1,0,0,-1.00006,53.93,28.413865)" stroke-width=".3985" stroke-linecap="butt" stroke-miterlimit="10" stroke-linejoin="miter" fill="none" stroke="#929292" d="M14.17339 1.4174V-1.4174"/>
<use data-text="1" xlink:href="#font_2_5" transform="matrix(7.3325,0,0,-7.3329398,66.159,37.85643)"/>
<path transform="matrix(1,0,0,-1.00006,53.93,28.413865)" stroke-width=".3985" stroke-linecap="butt" stroke-miterlimit="10" stroke-linejoin="miter" fill="none" stroke="#929292" d="M28.3468 1.4174V-1.4174"/>
<use data-text="2" xlink:href="#font_2_6" transform="matrix(7.3325,0,0,-7.3329398,80.332,37.85643)"/>
<path transform="matrix(1,0,0,-1.00006,53.93,28.413865)" stroke-width=".3985" stroke-linecap="butt" stroke-miterlimit="10" stroke-linejoin="miter" fill="none" stroke="#929292" d="M42.5202 1.4174V-1.4174"/>
<use data-text="3" xlink:href="#font_2_7" transform="matrix(7.3325,0,0,-7.3329398,94.505008,37.85643)"/>
<path transform="matrix(1,0,0,-1.00006,53.93,28.413865)" stroke-width=".3985" stroke-linecap="butt" stroke-miterlimit="10" stroke-linejoin="miter" fill="none" stroke="#929292" d="M56.69362 1.4174V-1.4174"/>
<use data-text="4" xlink:href="#font_2_8" transform="matrix(7.3325,0,0,-7.3329398,108.679,37.85643)"/>
<path transform="matrix(1,0,0,-1.00006,53.93,28.413865)" stroke-width=".3985" stroke-linecap="butt" stroke-miterlimit="10" stroke-linejoin="miter" fill="none" stroke="#929292" d="M1.4174 14.17339H-1.4174"/>
<use data-text="1" xlink:href="#font_2_5" transform="matrix(7.3325,0,0,-7.3329398,48.059,16.69416)"/>
<path transform="matrix(1,0,0,-1.00006,53.93,28.413865)" stroke-width="1.19553" stroke-linecap="butt" stroke-miterlimit="10" stroke-linejoin="miter" fill="none" stroke="#009900" d="M-49.6069 14.17339H-48.9142-48.22148-47.52878-46.83606-46.14334-45.45064-44.75793-44.06522-43.37251-42.67981-41.98709-41.29439-40.60168-39.90897-39.21626-38.52356-37.83084-37.13814-36.44542-35.7527-35.06-34.3673-33.67458-32.98187-32.28917-31.59645-30.90375-30.21103-29.51833-28.82562-28.1329-27.4402-26.74748-26.05476-25.36206-24.66936-23.97664-23.28394-22.59123-21.89851-21.20581-20.5131-19.82039-19.12769-18.43498-17.74226-17.04956-16.35684-15.66412-14.97142-14.2787-13.586-12.8933-12.20058-11.50787-10.81517-10.12245-9.42975-8.73705-8.04433-7.35162-6.6589-5.96619-5.27348-4.58078-3.88806-3.19536-2.50266-1.80994-1.11723-.42453 .26816 .96086 1.65358 2.34628 3.03899 3.73172 4.42442 5.11713 5.80984 6.50255 7.19525 7.88797 8.58067 9.27338 9.9661 10.6588 11.3515 12.04422 12.73692 13.42964 14.12236 14.81506 15.50777 16.20049 16.89319 17.5859 18.27861 18.97131"/>
<path transform="matrix(1,0,0,-1.00006,53.93,28.413865)" stroke-width="1.19553" stroke-linecap="butt" stroke-miterlimit="10" stroke-linejoin="miter" fill="none" stroke="#0000ff" d="M19.84267 0H20.32927 20.81587 21.30247 21.78908 22.2757 22.7623 23.2489 23.7355 24.2221 24.70871 25.19533 25.68193 26.16853 26.65514 27.14174 27.62834 28.11496 28.60156 29.08817 29.57477 30.06137 30.54799 31.03459 31.5212 32.0078 32.4944 32.981 33.46762 33.95422 34.44083 34.92743 35.41403 35.90063 36.38725 36.87386 37.36044 37.84706 38.33366 38.82027 39.30688 39.79349 40.28008 40.7667 41.2533 41.7399 42.22652 42.71312 43.1997 43.68633 44.17293 44.65953 45.14615 45.63274 46.11934 46.60596 47.09256 47.57916 48.06578 48.55237 49.03897 49.52559 50.01219 50.4988 50.98541 51.472 51.9586 52.44522 52.93182 53.41843 53.90504 54.39163 54.87823 55.36485 55.85146 56.33806 56.82466 57.31126 57.79787 58.28448 58.77109 59.25769 59.7443 60.2309 60.7175 61.20412 61.69072 62.17732 62.66393 63.15053 63.63713 64.12375 64.61035 65.09694 65.58356 66.07016 66.55676 67.04338 67.52998 68.01657"/>
<path transform="matrix(1,0,0,-1.00006,53.93,28.413865)" stroke-width="1.19553" stroke-linecap="butt" stroke-miterlimit="10" stroke-linejoin="miter" fill="none" stroke="#009900" d="M21.33708 14.17339C21.33708 14.99873 20.66801 15.6678 19.84267 15.6678 19.01732 15.6678 18.34825 14.99873 18.34825 14.17339 18.34825 13.34804 19.01732 12.67897 19.84267 12.67897 20.66801 12.67897 21.33708 13.34804 21.33708 14.17339ZM19.84267 14.17339"/>
<path transform="matrix(1,0,0,-1.00006,53.93,28.413865)" d="M21.33708 0C21.33708 .82533 20.66801 1.49442 19.84267 1.49442 19.01732 1.49442 18.34825 .82533 18.34825 0 18.34825-.82533 19.01732-1.49442 19.84267-1.49442 20.66801-1.49442 21.33708-.82533 21.33708 0ZM19.84267 0" fill="#0000ff"/>
<use data-text="1" xlink:href="#font_2_5" transform="matrix(9.1656,0,0,-9.166149,.09299469,9.285717)" fill="#009900"/>
<use data-text="&#x2212;" xlink:href="#font_3_1" transform="matrix(9.1656,0,0,-9.166149,6.171997,9.285717)" fill="#009900"/>
<use data-text="u" xlink:href="#font_1_3" transform="matrix(9.1656,0,0,-9.166149,13.985001,9.285717)" fill="#009900"/>
<use data-text="c" xlink:href="#font_1_1" transform="matrix(6.9659,0,0,-6.9663178,19.953003,10.780807)" fill="#009900"/>
<use data-text="(" xlink:href="#font_2_1" transform="matrix(9.1656,0,0,-9.166149,24.070008,9.285717)" fill="#009900"/>
<use data-text="t" xlink:href="#font_1_2" transform="matrix(9.1656,0,0,-9.166149,27.477005,9.285717)" fill="#009900"/>
<use data-text=")" xlink:href="#font_2_2" transform="matrix(9.1656,0,0,-9.166149,31.582,9.285717)" fill="#009900"/>
<use data-text="=" xlink:href="#font_3_2" transform="matrix(9.1656,0,0,-9.166149,36.494005,9.285717)" fill="#009900"/>
<use data-text="1" xlink:href="#font_2_5" transform="matrix(9.1656,0,0,-9.166149,44.794008,9.285717)" fill="#009900"/>
<use data-text="1" xlink:href="#font_2_5" transform="matrix(9.1656,0,0,-9.166149,73.085,23.459568)" fill="#0000ff"/>
<use data-text="&#x2212;" xlink:href="#font_3_1" transform="matrix(9.1656,0,0,-9.166149,79.164,23.459568)" fill="#0000ff"/>
<use data-text="u" xlink:href="#font_1_3" transform="matrix(9.1656,0,0,-9.166149,86.977008,23.459568)" fill="#0000ff"/>
<use data-text="c" xlink:href="#font_1_1" transform="matrix(6.9659,0,0,-6.9663178,92.94501,24.954657)" fill="#0000ff"/>
<use data-text="(" xlink:href="#font_2_1" transform="matrix(9.1656,0,0,-9.166149,97.06201,23.459568)" fill="#0000ff"/>
<use data-text="t" xlink:href="#font_1_2" transform="matrix(9.1656,0,0,-9.166149,100.46901,23.459568)" fill="#0000ff"/>
<use data-text=")" xlink:href="#font_2_2" transform="matrix(9.1656,0,0,-9.166149,104.574008,23.459568)" fill="#0000ff"/>
<use data-text="=" xlink:href="#font_3_2" transform="matrix(9.1656,0,0,-9.166149,109.48601,23.459568)" fill="#0000ff"/>
<use data-text="0" xlink:href="#font_2_4" transform="matrix(9.1656,0,0,-9.166149,117.78601,23.459568)" fill="#0000ff"/>
<use data-text="&#x201c;" xlink:href="#font_2_12" transform="matrix(7.3325,0,0,-7.3329398,31.899003,41.983678)" fill="#009900"/>
<use data-text="o" xlink:href="#font_2_11" transform="matrix(7.3325,0,0,-7.3329398,34.670686,41.983678)" fill="#009900"/>
<use data-text="n" xlink:href="#font_2_10" transform="matrix(7.3325,0,0,-7.3329398,38.901544,41.983678)" fill="#009900"/>
<use data-text="&#x201d;" xlink:href="#font_2_13" transform="matrix(7.3325,0,0,-7.3329398,42.846429,41.983678)" fill="#009900"/>
<use data-text="&#x201c;" xlink:href="#font_2_12" transform="matrix(7.3325,0,0,-7.3329398,90.116,41.983678)" fill="#0000ff"/>
<use data-text="o" xlink:href="#font_2_11" transform="matrix(7.3325,0,0,-7.3329398,92.88768,41.983678)" fill="#0000ff"/>
<use data-text="f" xlink:href="#font_2_9" transform="matrix(7.3325,0,0,-7.3329398,97.118549,41.983678)" fill="#0000ff"/>
<use data-text="f" xlink:href="#font_2_9" transform="matrix(7.3325,0,0,-7.3329398,99.45761,41.983678)" fill="#0000ff"/>
<use data-text="&#x201d;" xlink:href="#font_2_13" transform="matrix(7.3325,0,0,-7.3329398,102.25862,41.983678)" fill="#0000ff"/>
</svg>
