<svg xmlns="http://www.w3.org/2000/svg" xmlns:xlink="http://www.w3.org/1999/xlink" version="1.1" width="79" height="37" viewBox="0 0 79 37">
<defs>
<path id="font_1_2" d="M.2999878 .17871094V.0769043C.2999878 .04296875 .2889862 .036987306 .2649994 .034988405L.20098877 .0289917V0H.46499635V.0289917L.41999818 .033981325C.39698792 .036987306 .3899994 .04296875 .3899994 .0769043V.17871094H.49299623V.22570801H.3899994V.66796877H.31698609C.22299195 .5298767 .11099243 .35577394 .018997193 .19970703L.027999878 .17871094H.2999878M.09098816 .22570801C.15098572 .33476258 .22099304 .4498291 .2979889 .5709076H.2999878V.22570801H.09098816Z"/>
<path id="font_1_3" d="M.2649994 .3380127C.34498597 .3380127 .3880005 .2700653 .3880005 .17915344 .3880005 .09121704 .34999085 .023269654 .2649994 .023269654 .18199158 .023269654 .14199829 .09121704 .14199829 .17915344 .14199829 .2700653 .18598938 .3380127 .2649994 .3380127M.2649994-.01171875C.4269867-.01171875 .48799134 .081222537 .48799134 .18214417 .48799134 .28405763 .42399598 .3420105 .35598756 .35801698V.36102296C.4169922 .37701417 .46598817 .427948 .46598817 .5098419 .46598817 .6187134 .3809967 .6796875 .2649994 .6796875 .15098572 .6796875 .06399536 .61772158 .06399536 .5098419 .06399536 .427948 .11399841 .37701417 .17399597 .36102296V.35801698C.10699463 .3420105 .041992189 .28405763 .041992189 .18214417 .041992189 .081222537 .101989749-.01171875 .2649994-.01171875M.2649994 .37402345C.19299317 .37402345 .16099549 .44392396 .16099549 .5118408 .16099549 .5887451 .19699097 .64468386 .2649994 .64468386 .33299256 .64468386 .36698915 .5887451 .36898805 .5118408 .36898805 .44392396 .33799745 .37402345 .2649994 .37402345Z"/>
<path id="font_2_1" d="M.42799378 .45222474 .43899537 .49023438H.31199647L.34599305 .6092224 .33399964 .6162262 .23699951 .53923037 .22399903 .49023438H.14299011L.13198853 .45222474H.21499634L.125 .08627319C.10998535 .029266358 .12199402-.01171875 .17199707-.01171875 .2519989-.01171875 .31599427 .054275514 .35598756 .1292572L.33399964 .1462555C.31098939 .10726929 .2599945 .040267946 .22898865 .040267946 .20799256 .040267946 .20799256 .0632782 .21398926 .088272098L.30299378 .45222474H.42799378Z"/>
<path id="font_1_1" d="M.43699647 0V.0289917L.35299684 .035995485C.33198548 .037994386 .31999208 .04598999 .31999208 .08496094V.67367556L.31498719 .6796875 .10899353 .6446991V.6197052L.20199585 .6087036C.21899414 .6067047 .22599793 .5987091 .22599793 .56973269V.08496094C.22599793 .065979007 .22299195 .053985597 .21699524 .04698181 .21199036 .039993287 .20399475 .036987306 .19299317 .035995485L.10899353 .0289917V0H.43699647Z"/>
<path id="font_1_6" d="M.3809967 .6720276C.5589905 .6720276 .59999087 .4931183 .60198977 .3461914 .59999087 .19924927 .5589905 .020339966 .3809967 .020339966 .20298767 .020339966 .1619873 .19924927 .1599884 .3461914 .1619873 .4931183 .20298767 .6720276 .3809967 .6720276M.3809967 .70703127C.2709961 .70703127 .18899536 .6730194 .1329956 .61006167 .07899475 .55007937 .04798889 .4591217 .04798889 .3461914 .04798889 .23423767 .07899475 .14228821 .1329956 .08232117 .18899536 .019348145 .2709961-.0146484379 .3809967-.0146484379 .49198915-.0146484379 .57299807 .019348145 .6289978 .08232117 .6839905 .14228821 .71398928 .23423767 .71398928 .3461914 .71398928 .4591217 .6839905 .55007937 .6289978 .61006167 .57299807 .6730194 .49198915 .70703127 .3809967 .70703127Z"/>
<path id="font_1_4" d="M.034988405 .6923828V.66337588C.12298584 .6573639 .125 .655365 .125 .5993347V.093048099C.125 .037002565 .12298584 .035003663 .034988405 .0289917V0H.32998658V.0289917C.22698975 .035003663 .22399903 .037002565 .22399903 .093048099V.32722474H.3639984C.44898988 .32722474 .45298768 .3032074 .46199037 .23916626H.49198915V.4532776H.46199037C.45298768 .38923646 .44898988 .36523438 .3639984 .36523438H.22399903V.62135317C.22399903 .65437319 .22799683 .65737918 .26098634 .65737918H.3600006C.47599793 .65737918 .49899293 .6343689 .5130005 .5323181H.54299929V.6923828H.034988405Z"/>
<path id="font_1_5" d="M.033996583 .6923828V.66337588C.12199402 .6573639 .12399292 .655365 .12399292 .5993347V.20309448C.12399292 .15007019 .12199402 .11204529 .116989139 .07902527 .11099243 .037002565 .08699036 .032989503 .034988405 .0289917V0H.27198792V.0289917C.20698548 .033996583 .18299866 .037002565 .1769867 .07902527 .17199707 .11204529 .16999817 .15007019 .16999817 .20309448V.6023407H.17199707C.31498719 .4012146 .45700074 .20109558 .59799197 0H.6639862V.48927308C.6639862 .54229739 .66600039 .58032229 .67099 .6133423 .6769867 .655365 .70098879 .6593628 .7529907 .66337588V.6923828H.5159912V.66337588C.58099368 .658371 .6049957 .655365 .61099246 .6133423 .6159973 .58032229 .6179962 .54229739 .6179962 .48927308V.13806153L.6159973 .14006043C.4850006 .32417298 .35499574 .5082855 .22599793 .6923828H.033996583Z"/>
</defs>
<path transform="matrix(1.00002,0,0,-1.00005,8.220551,24.477423)" d="M-6.80318-11.33855V22.6771H22.6771V-11.33855ZM22.6771 22.6771" fill="#d9d9ff"/>
<path transform="matrix(1.00002,0,0,-1.00005,8.220551,24.477423)" d="M22.6771-11.33855V22.6771H68.0313V-11.33855ZM68.0313 22.6771" fill="#d9f0d9"/>
<use data-text="4" xlink:href="#font_1_2" transform="matrix(9.165783,0,0,-9.166058,28.466958,34.0139)"/>
<use data-text="8" xlink:href="#font_1_3" transform="matrix(9.165783,0,0,-9.166058,51.14441,34.0139)"/>
<path transform="matrix(1.00002,0,0,-1.00005,8.220551,24.477423)" stroke-width=".3985" stroke-linecap="butt" stroke-miterlimit="10" stroke-linejoin="miter" fill="none" stroke="#000000" d="M-6.80318 0H67.57301"/>
<path transform="matrix(1.00002,0,0,-1.00005,75.794918,24.477423)" stroke-width=".31879" stroke-linecap="round" stroke-linejoin="round" fill="none" stroke="#000000" d="M-1.19551 1.59401C-1.09587 .99626 0 .09961 .29886 0 0-.09961-1.09587-.99626-1.19551-1.59401"/>
<path transform="matrix(1.00002,0,0,-1.00005,8.220551,24.477423)" stroke-width=".3985" stroke-linecap="butt" stroke-miterlimit="10" stroke-linejoin="miter" fill="none" stroke="#000000" d="M0-11.33855V22.21881"/>
<path transform="matrix(0,-1.00005,-1.00002,-0,8.220551,2.2575036)" stroke-width=".31879" stroke-linecap="round" stroke-linejoin="round" fill="none" stroke="#000000" d="M-1.19551 1.59401C-1.09587 .99626 0 .09961 .29886 0 0-.09961-1.09587-.99626-1.19551-1.59401"/>
<use data-text="t" xlink:href="#font_2_1" transform="matrix(9.165783,0,0,-9.166058,73.16585,33.525876)"/>
<path transform="matrix(1.00002,0,0,-1.00005,8.220551,24.477423)" stroke-width=".3985" stroke-linecap="butt" stroke-miterlimit="10" stroke-linejoin="miter" fill="none" stroke="#929292" d="M22.6771 1.13391V-1.13391"/>
<path transform="matrix(1.00002,0,0,-1.00005,8.220551,24.477423)" stroke-width=".3985" stroke-linecap="butt" stroke-miterlimit="10" stroke-linejoin="miter" fill="none" stroke="#929292" d="M45.35419 1.13391V-1.13391"/>
<path transform="matrix(1.00002,0,0,-1.00005,8.220551,24.477423)" stroke-width=".3985" stroke-linecap="butt" stroke-miterlimit="10" stroke-linejoin="miter" fill="none" stroke="#929292" d="M1.13391 11.33855H-1.13391"/>
<use data-text="1" xlink:href="#font_1_1" transform="matrix(9.165783,0,0,-9.166058,1.0934067,16.207009)"/>
<path transform="matrix(1.00002,0,0,-1.00005,8.220551,24.477423)" stroke-width="1.59404" stroke-linecap="butt" stroke-miterlimit="10" stroke-linejoin="miter" fill="none" stroke="#000000" d="M-6.80318 0H-6.5146-6.22601-5.93742-5.64885-5.36026-5.07167-4.78308-4.4945-4.20592-3.91733-3.62875-3.34015-3.05157-2.763-2.4744-2.18582-1.89723-1.60866-1.32007-1.03148-.7429-.4543-.16573 .12282 .4114 .69998 .98857 1.27716 1.56575 1.85432 2.14291 2.4315 2.72008 3.00868 3.29726 3.58583 3.87444 4.16301 4.4516 4.74019 5.02876 5.31735 5.60594 5.89452 6.1831 6.4717 6.76028 7.04886 7.33743 7.62604 7.91461 8.20319 8.49179 8.78036 9.06894 9.35754 9.64612 9.93471 10.2233 10.51187 10.80046 11.08905 11.37764 11.66621 11.9548 12.2434 12.53197 12.82057 13.10915 13.39772 13.68633 13.9749 14.26349 14.55208 14.84065 15.12924 15.41782 15.7064 15.995 16.28357 16.57216 16.86075 17.14932 17.43793 17.7265 18.01508 18.30368 18.59225 18.88083 19.16943 19.45801 19.7466 20.03519 20.32376 20.61235 20.90094 21.18953 21.4781 21.7667"/>
<path transform="matrix(1.00002,0,0,-1.00005,8.220551,24.477423)" stroke-width="1.59404" stroke-linecap="butt" stroke-miterlimit="10" stroke-linejoin="miter" fill="none" stroke="#000000" d="M22.6771 11.33855H23.13504 23.593 24.05098 24.50894 24.9669 25.42488 25.88283 26.34079 26.79875 27.25673 27.71469 28.17265 28.63063 29.08858 29.54654 30.00452 30.46248 30.92044 31.3784 31.83636 32.29433 32.7523 33.21027 33.66823 34.12619 34.58415 35.04211 35.50008 35.95804 36.41602 36.87398 37.33194 37.7899 38.24786 38.70583 39.1638 39.62177 40.07973 40.53769 40.99565 41.45361 41.91159 42.36955 42.82751 43.28546 43.74344 44.2014 44.65936 45.11734 45.5753 46.03325 46.49123 46.94919 47.40715 47.86511 48.32309 48.78104 49.239 49.69698 50.15494 50.6129 51.07088 51.52882 51.98679 52.44475 52.90273 53.36069 53.81866 54.27663 54.73457 55.19255 55.65051 56.10847 56.56644 57.0244 57.48236 57.94032 58.3983 58.85626 59.31422 59.7722 60.23015 60.68811 61.14607 61.60405 62.06201 62.51997 62.97794 63.4359 63.89386 64.35184 64.8098 65.26776 65.72571 66.18369 66.64165 67.09961 67.55759 68.01555"/>
<path transform="matrix(1.00002,0,0,-1.00005,8.220551,24.477423)" stroke-width="1.19553" stroke-linecap="butt" stroke-miterlimit="10" stroke-linejoin="miter" fill="none" stroke="#000000" d="M24.66962 0C24.66962 1.10043 23.77753 1.99252 22.6771 1.99252 21.57664 1.99252 20.68457 1.10043 20.68457 0 20.68457-1.10043 21.57664-1.99252 22.6771-1.99252 23.77753-1.99252 24.66962-1.10043 24.66962 0ZM22.6771 0"/>
<path transform="matrix(1.00002,0,0,-1.00005,8.220551,24.477423)" d="M24.66962 11.33855C24.66962 12.43898 23.77753 13.33107 22.6771 13.33107 21.57664 13.33107 20.68457 12.43898 20.68457 11.33855 20.68457 10.2381 21.57664 9.34602 22.6771 9.34602 23.77753 9.34602 24.66962 10.2381 24.66962 11.33855ZM22.6771 11.33855"/>
<use data-text="O" xlink:href="#font_1_6" transform="matrix(7.332647,0,0,-7.332866,11.942627,10.725736)" fill="#0000ff"/>
<use data-text="F" xlink:href="#font_1_4" transform="matrix(7.332647,0,0,-7.332866,17.530098,10.725736)" fill="#0000ff"/>
<use data-text="F" xlink:href="#font_1_4" transform="matrix(7.332647,0,0,-7.332866,21.783043,10.725736)" fill="#0000ff"/>
<use data-text="O" xlink:href="#font_1_6" transform="matrix(7.332647,0,0,-7.332866,47.920347,10.725736)" fill="#009900"/>
<use data-text="N" xlink:href="#font_1_5" transform="matrix(7.332647,0,0,-7.332866,53.507818,10.725736)" fill="#009900"/>
</svg>
