<svg xmlns="http://www.w3.org/2000/svg" xmlns:xlink="http://www.w3.org/1999/xlink" version="1.1" width="124" height="127" viewBox="0 0 124 127">
<defs>
<path id="font_1_1" d="M.42799378 .45222474 .43899537 .49023438H.31199647L.34599305 .6092224 .33399964 .6162262 .23699951 .53923037 .22399903 .49023438H.14299011L.13198853 .45222474H.21499634L.125 .08627319C.10998535 .029266358 .12199402-.01171875 .17199707-.01171875 .2519989-.01171875 .31599427 .054275514 .35598756 .1292572L.33399964 .1462555C.31098939 .10726929 .2599945 .040267946 .22898865 .040267946 .20799256 .040267946 .20799256 .0632782 .21398926 .088272098L.30299378 .45222474H.42799378Z"/>
<path id="font_1_2" d="M.070999149 .45393373 .07398987 .42893983 .14199829 .43093873C.1639862 .43193055 .16899109 .41493226 .1769867 .36291505 .18798828 .28489686 .20999146 .09286499 .20999146 .0128479 .20999146-.017166138 .20799256-.058166505 .18598938-.11117554 .16799927-.15318299 .14199829-.18218994 .12199402-.18218994 .10699463-.18218994 .09599304-.17118836 .08099365-.15118408 .068984989-.13517761 .06098938-.127182 .04598999-.127182 .019989014-.12818909-.005004883-.15818787-.005004883-.18719483-.005004883-.21418762 .023986817-.2421875 .067993167-.2421875 .15299988-.2421875 .18998719-.17919922 .27799989-.027160645 .2979889 .0068511965 .35798646 .11286926 .41999818 .21488953 .47698976 .30891419 .5399933 .40592958 .5399933 .4459381 .5399933 .48094178 .5289917 .5019531 .5219879 .5019531 .5029907 .5019531 .46899415 .49394227 .44400025 .47694398 .44499208 .4419403 .44299317 .3809204 .43099977 .33891297 .4149933 .28289796 .35598756 .17488098 .2899933 .06085205H.2869873C.27999879 .21388245 .26098634 .42492677 .24699402 .49795533L.23899842 .5019531 .070999149 .45393373Z"/>
</defs>
<path transform="matrix(1,0,0,-1.00005,57.985,68.52283)" stroke-width=".3985" stroke-linecap="butt" stroke-miterlimit="10" stroke-linejoin="miter" fill="none" stroke="#cbcbcb" d="M-45.35506-45.35506V45.35506"/>
<path transform="matrix(1,0,0,-1.00005,57.985,68.52283)" stroke-width=".3985" stroke-linecap="butt" stroke-miterlimit="10" stroke-linejoin="miter" fill="none" stroke="#cbcbcb" d="M-22.67752-45.35506V45.35506"/>
<path transform="matrix(1,0,0,-1.00005,57.985,68.52283)" stroke-width=".3985" stroke-linecap="butt" stroke-miterlimit="10" stroke-linejoin="miter" fill="none" stroke="#cbcbcb" d="M0-45.35506V45.35506"/>
<path transform="matrix(1,0,0,-1.00005,57.985,68.52283)" stroke-width=".3985" stroke-linecap="butt" stroke-miterlimit="10" stroke-linejoin="miter" fill="none" stroke="#cbcbcb" d="M22.67752-45.35506V45.35506"/>
<path transform="matrix(1,0,0,-1.00005,57.985,68.52283)" stroke-width=".3985" stroke-linecap="butt" stroke-miterlimit="10" stroke-linejoin="miter" fill="none" stroke="#cbcbcb" d="M45.35506-45.35506V45.35506"/>
<path transform="matrix(1,0,0,-1.00005,57.985,68.52283)" stroke-width=".3985" stroke-linecap="butt" stroke-miterlimit="10" stroke-linejoin="miter" fill="none" stroke="#cbcbcb" d="M-45.35506-45.35506H45.35506"/>
<path transform="matrix(1,0,0,-1.00005,57.985,68.52283)" stroke-width=".3985" stroke-linecap="butt" stroke-miterlimit="10" stroke-linejoin="miter" fill="none" stroke="#cbcbcb" d="M-45.35506-30.23692H45.35506"/>
<path transform="matrix(1,0,0,-1.00005,57.985,68.52283)" stroke-width=".3985" stroke-linecap="butt" stroke-miterlimit="10" stroke-linejoin="miter" fill="none" stroke="#cbcbcb" d="M-45.35506-15.1188H45.35506"/>
<path transform="matrix(1,0,0,-1.00005,57.985,68.52283)" stroke-width=".3985" stroke-linecap="butt" stroke-miterlimit="10" stroke-linejoin="miter" fill="none" stroke="#cbcbcb" d="M-45.35506-.00066H45.35506"/>
<path transform="matrix(1,0,0,-1.00005,57.985,68.52283)" stroke-width=".3985" stroke-linecap="butt" stroke-miterlimit="10" stroke-linejoin="miter" fill="none" stroke="#cbcbcb" d="M-45.35506 15.11742H45.35506"/>
<path transform="matrix(1,0,0,-1.00005,57.985,68.52283)" stroke-width=".3985" stroke-linecap="butt" stroke-miterlimit="10" stroke-linejoin="miter" fill="none" stroke="#cbcbcb" d="M-45.35506 30.23552H45.35506"/>
<path transform="matrix(1,0,0,-1.00005,57.985,68.52283)" stroke-width=".3985" stroke-linecap="butt" stroke-miterlimit="10" stroke-linejoin="miter" fill="none" stroke="#cbcbcb" d="M-45.35506 45.35367H45.35506"/>
<path transform="matrix(1,0,0,-1.00005,57.985,68.52283)" stroke-width="1.0959" stroke-linecap="butt" stroke-miterlimit="10" stroke-linejoin="miter" fill="none" stroke="#1a8c8c" d="M-45.35506-45.35506-44.85422-39.34364"/>
<path transform="matrix(.08298,-.9965398,-.99649,-.08298414,13.130772,107.86843)" d="M3.03864 0-1.82318 2.43091 0 0-1.82318-2.43091" fill="#1a8c8c"/>
<path transform="matrix(1,0,0,-1.00005,57.985,68.52283)" stroke-width="1.0959" stroke-linecap="butt" stroke-miterlimit="10" stroke-linejoin="miter" fill="none" stroke="#1a8c8c" d="M-45.35506-30.23692-41.81999-25.34935"/>
<path transform="matrix(.58601,-.8103105,-.81027,-.58603927,16.165013,93.87346)" d="M3.03864 0-1.82318 2.43091 0 0-1.82318-2.43091" fill="#1a8c8c"/>
<path transform="matrix(1,0,0,-1.00005,57.985,68.52283)" stroke-width="1.0959" stroke-linecap="butt" stroke-miterlimit="10" stroke-linejoin="miter" fill="none" stroke="#1a8c8c" d="M-45.35506-15.1188-39.5017-16.56378"/>
<path transform="matrix(.97084,.23962197,.23961,-.9708885,18.483292,85.08743)" d="M3.03864 0-1.82318 2.43091 0 0-1.82318-2.43091" fill="#1a8c8c"/>
<path transform="matrix(1,0,0,-1.00005,57.985,68.52283)" stroke-width="1.0959" stroke-linecap="butt" stroke-miterlimit="10" stroke-linejoin="miter" fill="none" stroke="#1a8c8c" d="M-45.35506-.00066H-39.32283"/>
<path transform="matrix(1,0,0,-1.00005,18.66217,68.52349)" d="M3.03864 0-1.82318 2.43091 0 0-1.82318-2.43091" fill="#1a8c8c"/>
<path transform="matrix(1,0,0,-1.00005,57.985,68.52283)" stroke-width="1.0959" stroke-linecap="butt" stroke-miterlimit="10" stroke-linejoin="miter" fill="none" stroke="#1a8c8c" d="M-45.35506 15.11742-39.50174 16.5619"/>
<path transform="matrix(.97086,-.23956196,-.23955,-.9709085,18.48325,51.96011)" d="M3.03864 0-1.82318 2.43091 0 0-1.82318-2.43091" fill="#1a8c8c"/>
<path transform="matrix(1,0,0,-1.00005,57.985,68.52283)" stroke-width="1.0959" stroke-linecap="butt" stroke-miterlimit="10" stroke-linejoin="miter" fill="none" stroke="#1a8c8c" d="M-45.35506 30.23552-41.82013 25.3485"/>
<path transform="matrix(.58606,.8102705,.81023,-.58608928,16.16486,43.17306)" d="M3.03864 0-1.82318 2.43091 0 0-1.82318-2.43091" fill="#1a8c8c"/>
<path transform="matrix(1,0,0,-1.00005,57.985,68.52283)" stroke-width="1.0959" stroke-linecap="butt" stroke-miterlimit="10" stroke-linejoin="miter" fill="none" stroke="#1a8c8c" d="M-45.35506 45.35367-44.85403 39.3423"/>
<path transform="matrix(.08302,.9965498,.9965,-.08302415,13.13097,29.178544)" d="M3.03864 0-1.82318 2.43091 0 0-1.82318-2.43091" fill="#1a8c8c"/>
<path transform="matrix(1,0,0,-1.00005,57.985,68.52283)" stroke-width="1.0959" stroke-linecap="butt" stroke-miterlimit="10" stroke-linejoin="miter" fill="none" stroke="#1a8c8c" d="M-22.67752-45.35506-22.17668-39.34364"/>
<path transform="matrix(.08298,-.9965398,-.99649,-.08298414,35.8083,107.86843)" d="M3.03864 0-1.82318 2.43091 0 0-1.82318-2.43091" fill="#1a8c8c"/>
<path transform="matrix(1,0,0,-1.00005,57.985,68.52283)" stroke-width="1.0959" stroke-linecap="butt" stroke-miterlimit="10" stroke-linejoin="miter" fill="none" stroke="#1a8c8c" d="M-22.67752-30.23692-19.14246-25.34935"/>
<path transform="matrix(.58601,-.8103105,-.81027,-.58603927,38.84254,93.87346)" d="M3.03864 0-1.82318 2.43091 0 0-1.82318-2.43091" fill="#1a8c8c"/>
<path transform="matrix(1,0,0,-1.00005,57.985,68.52283)" stroke-width="1.0959" stroke-linecap="butt" stroke-miterlimit="10" stroke-linejoin="miter" fill="none" stroke="#1a8c8c" d="M-22.67752-15.1188-16.82416-16.56378"/>
<path transform="matrix(.97084,.23962197,.23961,-.9708885,41.16083,85.08743)" d="M3.03864 0-1.82318 2.43091 0 0-1.82318-2.43091" fill="#1a8c8c"/>
<path transform="matrix(1,0,0,-1.00005,57.985,68.52283)" stroke-width="1.0959" stroke-linecap="butt" stroke-miterlimit="10" stroke-linejoin="miter" fill="none" stroke="#1a8c8c" d="M-22.67752-.00066H-16.6453"/>
<path transform="matrix(1,0,0,-1.00005,41.3397,68.52349)" d="M3.03864 0-1.82318 2.43091 0 0-1.82318-2.43091" fill="#1a8c8c"/>
<path transform="matrix(1,0,0,-1.00005,57.985,68.52283)" stroke-width="1.0959" stroke-linecap="butt" stroke-miterlimit="10" stroke-linejoin="miter" fill="none" stroke="#1a8c8c" d="M-22.67752 15.11742-16.8242 16.5619"/>
<path transform="matrix(.97086,-.23956196,-.23955,-.9709085,41.16078,51.96011)" d="M3.03864 0-1.82318 2.43091 0 0-1.82318-2.43091" fill="#1a8c8c"/>
<path transform="matrix(1,0,0,-1.00005,57.985,68.52283)" stroke-width="1.0959" stroke-linecap="butt" stroke-miterlimit="10" stroke-linejoin="miter" fill="none" stroke="#1a8c8c" d="M-22.67752 30.23552-19.1426 25.3485"/>
<path transform="matrix(.58606,.8102705,.81023,-.58608928,38.842393,43.17306)" d="M3.03864 0-1.82318 2.43091 0 0-1.82318-2.43091" fill="#1a8c8c"/>
<path transform="matrix(1,0,0,-1.00005,57.985,68.52283)" stroke-width="1.0959" stroke-linecap="butt" stroke-miterlimit="10" stroke-linejoin="miter" fill="none" stroke="#1a8c8c" d="M-22.67752 45.35367-22.1765 39.3423"/>
<path transform="matrix(.08302,.9965498,.9965,-.08302415,35.808504,29.178544)" d="M3.03864 0-1.82318 2.43091 0 0-1.82318-2.43091" fill="#1a8c8c"/>
<path transform="matrix(1,0,0,-1.00005,57.985,68.52283)" stroke-width="1.0959" stroke-linecap="butt" stroke-miterlimit="10" stroke-linejoin="miter" fill="none" stroke="#1a8c8c" d="M0-45.35506 .50082-39.34364"/>
<path transform="matrix(.08298,-.9965398,-.99649,-.08298414,58.48581,107.86843)" d="M3.03864 0-1.82318 2.43091 0 0-1.82318-2.43091" fill="#1a8c8c"/>
<path transform="matrix(1,0,0,-1.00005,57.985,68.52283)" stroke-width="1.0959" stroke-linecap="butt" stroke-miterlimit="10" stroke-linejoin="miter" fill="none" stroke="#1a8c8c" d="M0-30.23692 3.53505-25.34935"/>
<path transform="matrix(.58601,-.8103105,-.81027,-.58603927,61.52005,93.87346)" d="M3.03864 0-1.82318 2.43091 0 0-1.82318-2.43091" fill="#1a8c8c"/>
<path transform="matrix(1,0,0,-1.00005,57.985,68.52283)" stroke-width="1.0959" stroke-linecap="butt" stroke-miterlimit="10" stroke-linejoin="miter" fill="none" stroke="#1a8c8c" d="M0-15.1188 5.85335-16.56378"/>
<path transform="matrix(.97084,.23962197,.23961,-.9708885,63.83833,85.08743)" d="M3.03864 0-1.82318 2.43091 0 0-1.82318-2.43091" fill="#1a8c8c"/>
<path transform="matrix(1,0,0,-1.00005,57.985,68.52283)" stroke-width="1.0959" stroke-linecap="butt" stroke-miterlimit="10" stroke-linejoin="miter" fill="none" stroke="#1a8c8c" d="M0-.00066H6.03221"/>
<path transform="matrix(1,0,0,-1.00005,64.01721,68.52349)" d="M3.03864 0-1.82318 2.43091 0 0-1.82318-2.43091" fill="#1a8c8c"/>
<path transform="matrix(1,0,0,-1.00005,57.985,68.52283)" stroke-width="1.0959" stroke-linecap="butt" stroke-miterlimit="10" stroke-linejoin="miter" fill="none" stroke="#1a8c8c" d="M0 15.11742 5.8533 16.5619"/>
<path transform="matrix(.97086,-.23956196,-.23955,-.9709085,63.83829,51.96011)" d="M3.03864 0-1.82318 2.43091 0 0-1.82318-2.43091" fill="#1a8c8c"/>
<path transform="matrix(1,0,0,-1.00005,57.985,68.52283)" stroke-width="1.0959" stroke-linecap="butt" stroke-miterlimit="10" stroke-linejoin="miter" fill="none" stroke="#1a8c8c" d="M0 30.23552 3.53491 25.3485"/>
<path transform="matrix(.58606,.8102705,.81023,-.58608928,61.5199,43.17306)" d="M3.03864 0-1.82318 2.43091 0 0-1.82318-2.43091" fill="#1a8c8c"/>
<path transform="matrix(1,0,0,-1.00005,57.985,68.52283)" stroke-width="1.0959" stroke-linecap="butt" stroke-miterlimit="10" stroke-linejoin="miter" fill="none" stroke="#1a8c8c" d="M0 45.35367 .501 39.3423"/>
<path transform="matrix(.08302,.9965498,.9965,-.08302415,58.486,29.178544)" d="M3.03864 0-1.82318 2.43091 0 0-1.82318-2.43091" fill="#1a8c8c"/>
<path transform="matrix(1,0,0,-1.00005,57.985,68.52283)" stroke-width="1.0959" stroke-linecap="butt" stroke-miterlimit="10" stroke-linejoin="miter" fill="none" stroke="#1a8c8c" d="M22.67752-45.35506 23.17834-39.34364"/>
<path transform="matrix(.08298,-.9965398,-.99649,-.08298414,81.16333,107.86843)" d="M3.03864 0-1.82318 2.43091 0 0-1.82318-2.43091" fill="#1a8c8c"/>
<path transform="matrix(1,0,0,-1.00005,57.985,68.52283)" stroke-width="1.0959" stroke-linecap="butt" stroke-miterlimit="10" stroke-linejoin="miter" fill="none" stroke="#1a8c8c" d="M22.67752-30.23692 26.21257-25.34935"/>
<path transform="matrix(.58601,-.8103105,-.81027,-.58603927,84.19757,93.87346)" d="M3.03864 0-1.82318 2.43091 0 0-1.82318-2.43091" fill="#1a8c8c"/>
<path transform="matrix(1,0,0,-1.00005,57.985,68.52283)" stroke-width="1.0959" stroke-linecap="butt" stroke-miterlimit="10" stroke-linejoin="miter" fill="none" stroke="#1a8c8c" d="M22.67752-15.1188 28.53087-16.56378"/>
<path transform="matrix(.97084,.23962197,.23961,-.9708885,86.515857,85.08743)" d="M3.03864 0-1.82318 2.43091 0 0-1.82318-2.43091" fill="#1a8c8c"/>
<path transform="matrix(1,0,0,-1.00005,57.985,68.52283)" stroke-width="1.0959" stroke-linecap="butt" stroke-miterlimit="10" stroke-linejoin="miter" fill="none" stroke="#1a8c8c" d="M22.67752-.00066H28.70973"/>
<path transform="matrix(1,0,0,-1.00005,86.69473,68.52349)" d="M3.03864 0-1.82318 2.43091 0 0-1.82318-2.43091" fill="#1a8c8c"/>
<path transform="matrix(1,0,0,-1.00005,57.985,68.52283)" stroke-width="1.0959" stroke-linecap="butt" stroke-miterlimit="10" stroke-linejoin="miter" fill="none" stroke="#1a8c8c" d="M22.67752 15.11742 28.53082 16.5619"/>
<path transform="matrix(.97086,-.23956196,-.23955,-.9709085,86.5158,51.96011)" d="M3.03864 0-1.82318 2.43091 0 0-1.82318-2.43091" fill="#1a8c8c"/>
<path transform="matrix(1,0,0,-1.00005,57.985,68.52283)" stroke-width="1.0959" stroke-linecap="butt" stroke-miterlimit="10" stroke-linejoin="miter" fill="none" stroke="#1a8c8c" d="M22.67752 30.23552 26.21243 25.3485"/>
<path transform="matrix(.58606,.8102705,.81023,-.58608928,84.19742,43.17306)" d="M3.03864 0-1.82318 2.43091 0 0-1.82318-2.43091" fill="#1a8c8c"/>
<path transform="matrix(1,0,0,-1.00005,57.985,68.52283)" stroke-width="1.0959" stroke-linecap="butt" stroke-miterlimit="10" stroke-linejoin="miter" fill="none" stroke="#1a8c8c" d="M22.67752 45.35367 23.17853 39.3423"/>
<path transform="matrix(.08302,.9965498,.9965,-.08302415,81.16353,29.178544)" d="M3.03864 0-1.82318 2.43091 0 0-1.82318-2.43091" fill="#1a8c8c"/>
<path transform="matrix(1,0,0,-1.00005,57.985,68.52283)" stroke-width="1.0959" stroke-linecap="butt" stroke-miterlimit="10" stroke-linejoin="miter" fill="none" stroke="#1a8c8c" d="M45.35506-45.35506 45.85588-39.34364"/>
<path transform="matrix(.08298,-.9965398,-.99649,-.08298414,103.840869,107.86843)" d="M3.03864 0-1.82318 2.43091 0 0-1.82318-2.43091" fill="#1a8c8c"/>
<path transform="matrix(1,0,0,-1.00005,57.985,68.52283)" stroke-width="1.0959" stroke-linecap="butt" stroke-miterlimit="10" stroke-linejoin="miter" fill="none" stroke="#1a8c8c" d="M45.35506-30.23692 48.8901-25.34935"/>
<path transform="matrix(.58601,-.8103105,-.81027,-.58603927,106.8751,93.87346)" d="M3.03864 0-1.82318 2.43091 0 0-1.82318-2.43091" fill="#1a8c8c"/>
<path transform="matrix(1,0,0,-1.00005,57.985,68.52283)" stroke-width="1.0959" stroke-linecap="butt" stroke-miterlimit="10" stroke-linejoin="miter" fill="none" stroke="#1a8c8c" d="M45.35506-15.1188 51.2084-16.56378"/>
<path transform="matrix(.97084,.23962197,.23961,-.9708885,109.19339,85.08743)" d="M3.03864 0-1.82318 2.43091 0 0-1.82318-2.43091" fill="#1a8c8c"/>
<path transform="matrix(1,0,0,-1.00005,57.985,68.52283)" stroke-width="1.0959" stroke-linecap="butt" stroke-miterlimit="10" stroke-linejoin="miter" fill="none" stroke="#1a8c8c" d="M45.35506-.00066H51.38727"/>
<path transform="matrix(1,0,0,-1.00005,109.37227,68.52349)" d="M3.03864 0-1.82318 2.43091 0 0-1.82318-2.43091" fill="#1a8c8c"/>
<path transform="matrix(1,0,0,-1.00005,57.985,68.52283)" stroke-width="1.0959" stroke-linecap="butt" stroke-miterlimit="10" stroke-linejoin="miter" fill="none" stroke="#1a8c8c" d="M45.35506 15.11742 51.20836 16.5619"/>
<path transform="matrix(.97086,-.23956196,-.23955,-.9709085,109.193347,51.96011)" d="M3.03864 0-1.82318 2.43091 0 0-1.82318-2.43091" fill="#1a8c8c"/>
<path transform="matrix(1,0,0,-1.00005,57.985,68.52283)" stroke-width="1.0959" stroke-linecap="butt" stroke-miterlimit="10" stroke-linejoin="miter" fill="none" stroke="#1a8c8c" d="M45.35506 30.23552 48.88997 25.3485"/>
<path transform="matrix(.58606,.8102705,.81023,-.58608928,106.874958,43.17306)" d="M3.03864 0-1.82318 2.43091 0 0-1.82318-2.43091" fill="#1a8c8c"/>
<path transform="matrix(1,0,0,-1.00005,57.985,68.52283)" stroke-width="1.0959" stroke-linecap="butt" stroke-miterlimit="10" stroke-linejoin="miter" fill="none" stroke="#1a8c8c" d="M45.35506 45.35367 45.85606 39.3423"/>
<path transform="matrix(.08302,.9965498,.9965,-.08302415,103.841068,29.178544)" d="M3.03864 0-1.82318 2.43091 0 0-1.82318-2.43091" fill="#1a8c8c"/>
<path transform="matrix(1,0,0,-1.00005,57.985,68.52283)" stroke-width=".79701" stroke-linecap="butt" stroke-miterlimit="10" stroke-linejoin="miter" fill="none" stroke="#000000" d="M-56.69382 0H55.98645"/>
<path transform="matrix(1,0,0,-1.00005,113.97145,68.52283)" stroke-width=".6376" stroke-linecap="round" stroke-linejoin="round" fill="none" stroke="#000000" d="M-1.55415 2.0722C-1.42464 1.29512 0 .1295 .38852 0 0-.1295-1.42464-1.29512-1.55415-2.0722"/>
<use data-text="t" xlink:href="#font_1_1" transform="matrix(10.0364,0,0,-10.036901,118.495,71.571979)"/>
<path transform="matrix(1,0,0,-1.00005,57.985,68.52283)" stroke-width=".79701" stroke-linecap="butt" stroke-miterlimit="10" stroke-linejoin="miter" fill="none" stroke="#000000" d="M0-56.69382V55.98645"/>
<path transform="matrix(0,-1.00005,-1,-0,57.985,12.533581)" stroke-width=".6376" stroke-linecap="round" stroke-linejoin="round" fill="none" stroke="#000000" d="M-1.55415 2.0722C-1.42464 1.29512 0 .1295 .38852 0 0-.1295-1.42464-1.29512-1.55415-2.0722"/>
<use data-text="y" xlink:href="#font_1_2" transform="matrix(10.0364,0,0,-10.036901,55.447999,5.7626917)"/>
</svg>
