<svg xmlns="http://www.w3.org/2000/svg" xmlns:xlink="http://www.w3.org/1999/xlink" version="1.1" width="198" height="169" viewBox="0 0 198 169">
<defs>
<path id="font_1_3" d="M.6349945 .2529297V.31092835H.084991458V.2529297H.6349945Z"/>
<path id="font_2_4" d="M.12998963 .3657837C.12998963 .3487854 .1349945 .33779908 .147995 .33779908 .1599884 .33779908 .18699646 .34777833 .23498535 .34777833 .31999208 .34777833 .36799623 .27090455 .36799623 .18403626 .36799623 .065216068 .30899049 .023269654 .23799134 .023269654 .17199707 .023269654 .1289978 .07319641 .10998535 .12911988 .10398865 .14808655 .09399414 .15707398 .07998657 .15707398 .06199646 .15707398 .026992798 .13809204 .026992798 .10215759 .026992798 .05921936 .09599304-.01171875 .23699951-.01171875 .38198854-.01171875 .47299195 .06121826 .47299195 .18902588 .47299195 .32281495 .35798646 .3627777 .30299378 .3677826V.3717804C.35699464 .38078309 .44400025 .4207611 .44400025 .5197296 .44400025 .6306915 .35699464 .6796875 .25 .6796875 .117996219 .6796875 .052993776 .60369876 .052993776 .5607147 .052993776 .5297241 .08799744 .51272585 .101989749 .51272585 .114990238 .51272585 .12298584 .5197296 .1269989 .5327301 .14898682 .60069277 .18699646 .64468386 .24299622 .64468386 .32199098 .64468386 .34098817 .57470706 .34098817 .51872256 .34098817 .4587555 .31999208 .38378907 .23498535 .38378907 .18699646 .38378907 .1599884 .39378358 .147995 .39378358 .1349945 .39378358 .12998963 .38378907 .12998963 .3657837Z"/>
<path id="font_2_3" d="M.4850006 .13195801 .45700074 .13696289C.43598939 .08299255 .41600038 .07598877 .37599183 .07598877H.11999512C.13598633 .1279602 .19499207 .19892884 .28799439 .2658844 .38398744 .33584596 .45799256 .38082887 .45799256 .49276734 .45799256 .63168337 .3659973 .6796875 .26098634 .6796875 .12399292 .6796875 .052993776 .5967102 .052993776 .54473879 .052993776 .51075747 .09098816 .49476625 .10798645 .49476625 .12599182 .49476625 .1329956 .50476077 .13699341 .5217438 .15299988 .5897064 .19198609 .64468386 .2539978 .64468386 .33099366 .64468386 .35299684 .5797119 .35299684 .50675967 .35299684 .3998108 .29899598 .33984376 .21199036 .26289369 .08898926 .15594483 .04598999 .08798218 .026992798 .009994507L.036987306 0H.45098878L.4850006 .13195801Z"/>
<path id="font_2_2" d="M.43699647 0V.0289917L.35299684 .035995485C.33198548 .037994386 .31999208 .04598999 .31999208 .08496094V.67367556L.31498719 .6796875 .10899353 .6446991V.6197052L.20199585 .6087036C.21899414 .6067047 .22599793 .5987091 .22599793 .56973269V.08496094C.22599793 .065979007 .22299195 .053985597 .21699524 .04698181 .21199036 .039993287 .20399475 .036987306 .19299317 .035995485L.10899353 .0289917V0H.43699647Z"/>
<path id="font_2_5" d="M.42599488 .5919647 .44999696 .6599579 .44499208 .66796877H.11099243L.100997928 .65896609 .08099365 .32388307 .10499573 .31188966C.14698792 .35983277 .18798828 .3828125 .24198914 .3828125 .30599977 .3828125 .37599183 .3358612 .37599183 .20404053 .37599183 .10116577 .33399964 .023269654 .24699402 .023269654 .1769867 .023269654 .14099121 .07420349 .12098694 .13113404 .115997318 .14611817 .10699463 .15510559 .09298706 .15510559 .07299805 .15510559 .039993287 .13513184 .039993287 .10217285 .039993287 .056228639 .10998535-.01171875 .23999024-.01171875 .40499879-.01171875 .47999574 .0881958 .47999574 .21502686 .47999574 .35484315 .3919983 .4268036 .272995 .4268036 .21798706 .4268036 .15899658 .4028015 .1269989 .3738098L.125 .37580873 .147995 .56292727C.15098572 .58795168 .1579895 .5919647 .1769867 .5919647H.42599488Z"/>
<path id="font_2_1" d="M.2649994 .64468386C.3600006 .64468386 .3869934 .49682618 .3869934 .33398438 .3869934 .17112732 .3600006 .023269654 .2649994 .023269654 .16999817 .023269654 .14299011 .17112732 .14299011 .33398438 .14299011 .49682618 .16999817 .64468386 .2649994 .64468386M.2649994 .6796875C.099990848 .6796875 .040985109 .53378298 .040985109 .33398438 .040985109 .13417053 .099990848-.01171875 .2649994-.01171875 .42999269-.01171875 .4889984 .13417053 .4889984 .33398438 .4889984 .53378298 .42999269 .6796875 .2649994 .6796875Z"/>
<clipPath id="clip_3">
<path transform="matrix(1,0,0,-1.00006,-7.209999,163.20282)" d="M9.10658 0H203.38057V161.39575H9.10658Z"/>
</clipPath>
<path id="font_2_8" d="M.19400025 .32104493C.19400025 .34602357 .19799805 .36001588 .20698548 .37800599 .22999573 .42396546 .272995 .44795228 .32598878 .44795228 .3659973 .44795228 .45498658 .42196656 .45498658 .25009156 .45498658 .10321045 .40899659 .023269654 .30899049 .023269654 .25698854 .023269654 .21699524 .050247194 .20098877 .096221927 .19499207 .11419678 .19400025 .13418579 .19400025 .15716553V.32104493M.02999878 .47694398V.45195008L.067993167 .4469452C.09399414 .4429474 .099990848 .43795777 .099990848 .40197755V-.14324951C.099990848-.19444275 .09498596-.19645691 .024993897-.20147705V-.23046875H.28399659V-.20147705C.19999695-.19645691 .19400025-.19444275 .19400025-.14324951V.011276245C.21499634-.0007324219 .2619934-.01171875 .30799867-.01171875 .44299317-.01171875 .5589905 .050247194 .5589905 .25608827 .5589905 .32704164 .54599 .5019531 .3639984 .5019531 .29100038 .5019531 .23298645 .4529419 .19400025 .42796327L.18099976 .5019531 .02999878 .47694398Z"/>
<path id="font_2_7" d="M.28799439 .5019531C.12799073 .5019531 .04899597 .40698243 .04899597 .24510193 .04899597 .083236698 .12799073-.01171875 .28799439-.01171875 .44999696-.01171875 .5279999 .083236698 .5279999 .24510193 .5279999 .40698243 .44999696 .5019531 .28799439 .5019531M.15299988 .24510193C.15299988 .38301087 .19699097 .46694947 .28799439 .46694947 .3809967 .46694947 .42399598 .38301087 .42399598 .24510193 .42399598 .10720825 .3809967 .023269654 .28799439 .023269654 .19699097 .023269654 .15299988 .10720825 .15299988 .24510193Z"/>
<path id="font_2_10" d="M-.0020141602 .49023438V.46122743C.038986207 .45922853 .051986696 .45622254 .06399536 .41819764 .10598755 .2861328 .1499939 .15106201 .19198609 0H.2679901L.38598634 .38150025H.3889923C.43099977 .2543335 .47200013 .12716675 .5119934 0H.58799746C.6299896 .14703369 .68899539 .32513429 .71398928 .40318299 .73098757 .45422364 .74198916 .45822145 .7919922 .46122743V.49023438H.59498599V.46122743L.6519928 .45622254C.6689911 .45422364 .66999819 .4412079 .66600039 .4232025 .6529999 .36416627 .6069946 .20205689 .57598879 .08898926H.57398989C.5309906 .21922302 .48999024 .3484497 .44898988 .47851563H.37298585L.25698854 .08898926H.25498963C.21899414 .20410156 .18798828 .3201599 .1559906 .4282074 .1499939 .44721986 .1559906 .45622254 .17399597 .45822145L.20899964 .46122743V.49023438H-.0020141602Z"/>
<path id="font_2_6" d="M.44099427 .2627716C.46199037 .2627716 .48098756 .2677765 .48098756 .30078126 .48098756 .35983277 .46199037 .5019531 .2789917 .5019531 .12298584 .5019531 .04899597 .39086915 .04899597 .24082947 .04899597 .08317566 .116989139-.01373291 .27999879-.01171875 .3909912-.010726929 .44799806 .050247194 .47499085 .1290741L.44499208 .14503479C.4169922 .08717346 .3789978 .039276124 .2999878 .039276124 .17599488 .039276124 .15098572 .15901184 .15299988 .2627716H.44099427M.1539917 .30078126C.1539917 .34181214 .16899109 .46694947 .272995 .46694947 .3659973 .46694947 .3769989 .37184144 .3769989 .33280946 .3769989 .31378175 .37098695 .30078126 .34298707 .30078126H.1539917Z"/>
<path id="font_2_9" d="M.18899536 .5019531 .036987306 .47694398V.45195008L.07499695 .4469452C.100997928 .4429474 .10699463 .4379425 .10699463 .40194703V.08699036C.10699463 .035995485 .101989749 .033996583 .03199768 .0289917V0H.29599V.0289917C.20698548 .033996583 .20098877 .035995485 .20098877 .08699036V.32095338C.20098877 .39794923 .23498535 .4239502 .2579956 .4239502 .27398683 .4239502 .29100038 .4179535 .31999208 .40194703 .32699586 .39794923 .33499146 .39694215 .33999635 .39694215 .3639984 .39694215 .38598634 .4219513 .38598634 .4529419 .38598634 .47494508 .37199403 .5019531 .33299256 .5019531 .29699708 .5019531 .2669983 .47994996 .20098877 .4219513L.18899536 .5019531Z"/>
<path id="font_1_1" d="M.91799929 .29692079C.8549957 .3169403 .7669983 .3780365 .72698977 .41210938L.70799258 .38505555C.7350006 .36201478 .7589874 .32795716 .7689972 .31092835H.07199097V.2529297H.7689972C.7599945 .23799134 .7350006 .20411682 .70799258 .17922974L.72698977 .15234375C.7669983 .186203 .85598757 .24694824 .91799929 .266922V.29692079Z"/>
<path id="font_1_2" d="M.4909973 .1572113C.5249939 .10424805 .6179962-.01171875 .7609863-.01171875 .94599917-.01171875 1.0009918 .12922669 1.0009918 .24716187 1.0009918 .36608888 .8899994 .4600525 .7789917 .4600525 .6380005 .4600525 .5479889 .33309938 .5319977 .30612184H.5309906C.49198915 .37008668 .4039917 .4580536 .2659912 .4580536 .083999637 .4580536 .015991211 .33010865 .015991211 .21217346 .015991211 .09320068 .13398743-.0107421879 .24499512-.0107421879 .3849945-.0107421879 .47299195 .12918091 .48999024 .15716553L.4909973 .1572113M.55999758 .26213075C.59799197 .33009339 .66999819 .4140625 .7829895 .4140625 .8549957 .4140625 .94299319 .34109498 .94299319 .25112916 .94299319 .150177 .8880005 .057266237 .79100039 .057266237 .6879883 .057266237 .6069946 .17315674 .55999758 .2620697V.26213075M.46398927 .2071228C.42599488 .13917542 .35398866 .03527832 .24099732 .03527832 .16899109 .03527832 .07899475 .11819458 .07899475 .20811463 .07899475 .30802918 .14898682 .38694764 .23298645 .38694764 .33299256 .38694764 .4169922 .28204347 .46398927 .2071228Z"/>
<path id="font_1_4" d="M.08198547 .266922C.14399719 .24694824 .23298645 .186203 .272995 .15234375L.2919922 .17922974C.2649994 .20411682 .23999024 .23799134 .23098755 .2529297H.9279938V.31092835H.23098755C.24099732 .32795716 .2649994 .36201478 .2919922 .38505555L.272995 .41210938C.23298645 .3780365 .14498902 .3169403 .08198547 .29692079V.266922Z"/>
<path id="font_4_1" d="M.43499757 .15118408C.39898683 .10421753 .34498597 .03727722 .269989 .03727722 .19999695 .03727722 .1789856 .097229007 .1789856 .17616272 .1789856 .1811676 .1789856 .1851654 .17999268 .19215393 .34799195 .22613526 .42099 .26609803 .46398927 .30607606 .49899293 .3410492 .5059967 .37402345 .5059967 .4019928 .5059967 .45495606 .46398927 .5019531 .38198854 .5019531 .2919922 .5019531 .21798706 .45596314 .16299439 .3880005 .10998535 .32305909 .07998657 .23612976 .07998657 .15219116 .07998657 .012268066 .17098999-.01171875 .22898865-.01171875 .3019867-.01171875 .3899994 .02027893 .45799256 .13119507L.43499757 .15118408M.18199158 .22613526C.19898987 .3470459 .27398683 .46694947 .35398866 .46694947 .3889923 .46694947 .4119873 .44296266 .4119873 .4079895 .4119873 .3380432 .35099793 .26210023 .18199158 .22613526Z"/>
</defs>
<path transform="matrix(1,0,0,-1.00006,-7.209999,163.20282)" stroke-width=".19925" stroke-linecap="butt" stroke-miterlimit="10" stroke-linejoin="miter" fill="none" stroke="#929292" d="M15.17764 36.30156V40.55353M45.53296 36.30156V40.55353M75.88828 36.30156V40.55353M136.59889 36.30156V40.55353M166.9542 36.30156V40.55353M197.30951 36.30156V40.55353"/>
<path transform="matrix(1,0,0,-1.00006,-7.209999,163.20282)" stroke-width=".19925" stroke-linecap="butt" stroke-miterlimit="10" stroke-linejoin="miter" fill="none" stroke="#929292" d="M104.11765 0H108.3695M104.11765 76.85512H108.3695M104.11765 115.28267H108.3695M104.11765 153.71024H108.3695"/>
<path transform="matrix(1,0,0,-1.00006,-7.209999,163.20282)" stroke-width=".3985" stroke-linecap="butt" stroke-miterlimit="10" stroke-linejoin="miter" fill="none" stroke="#000000" d="M9.10658 38.42755H201.38805"/>
<path transform="matrix(1,0,0,-1.00006,194.17804,124.772968)" d="M1.99252 0-1.19551 1.59401 0 0-1.19551-1.59401"/>
<path transform="matrix(1,0,0,-1.00006,-7.209999,163.20282)" stroke-width=".3985" stroke-linecap="butt" stroke-miterlimit="10" stroke-linejoin="miter" fill="none" stroke="#000000" d="M106.24358 0V159.40323"/>
<path transform="matrix(0,-1.00006,-1,-0,99.033588,3.790039)" d="M1.99252 0-1.19551 1.59401 0 0-1.19551-1.59401"/>
<use data-text="&#x2212;" xlink:href="#font_1_3" transform="matrix(10.9988,0,0,-10.99946,1.0930023,137.66329)"/>
<use data-text="3" xlink:href="#font_2_4" transform="matrix(10.9988,0,0,-10.99946,9.007004,137.66329)"/>
<use data-text="&#x2212;" xlink:href="#font_1_3" transform="matrix(10.9988,0,0,-10.99946,31.449002,137.66329)"/>
<use data-text="2" xlink:href="#font_2_3" transform="matrix(10.9988,0,0,-10.99946,39.363004,137.66329)"/>
<use data-text="&#x2212;" xlink:href="#font_1_3" transform="matrix(10.9988,0,0,-10.99946,61.804,137.66329)"/>
<use data-text="1" xlink:href="#font_2_2" transform="matrix(10.9988,0,0,-10.99946,69.718,137.66329)"/>
<use data-text="1" xlink:href="#font_2_2" transform="matrix(10.9988,0,0,-10.99946,126.47201,137.66329)"/>
<use data-text="2" xlink:href="#font_2_3" transform="matrix(10.9988,0,0,-10.99946,156.827,137.66329)"/>
<use data-text="3" xlink:href="#font_2_4" transform="matrix(10.9988,0,0,-10.99946,187.182,137.66329)"/>
<use data-text="&#x2212;" xlink:href="#font_1_3" transform="matrix(10.9988,0,0,-10.99946,79.76,166.85504)"/>
<use data-text="5" xlink:href="#font_2_5" transform="matrix(10.9988,0,0,-10.99946,87.674,166.85504)"/>
<use data-text="5" xlink:href="#font_2_5" transform="matrix(10.9988,0,0,-10.99946,87.675,89.99543)"/>
<use data-text="1" xlink:href="#font_2_2" transform="matrix(10.9988,0,0,-10.99946,81.840007,51.56613)"/>
<use data-text="0" xlink:href="#font_2_1" transform="matrix(10.9988,0,0,-10.99946,87.669368,51.56613)"/>
<use data-text="1" xlink:href="#font_2_2" transform="matrix(10.9988,0,0,-10.99946,81.840007,13.1358189)"/>
<use data-text="5" xlink:href="#font_2_5" transform="matrix(10.9988,0,0,-10.99946,87.669368,13.1358189)"/>
<g clip-path="url(#clip_3)">
<path transform="matrix(1,0,0,-1.00006,-7.209999,163.20282)" stroke-width="1.19553" stroke-linecap="butt" stroke-miterlimit="10" stroke-linejoin="miter" fill="none" stroke="#ff0000" d="M0 38.6596 2.14629 38.67662 4.29257 38.69489 6.43889 38.71445 8.58517 38.73549 10.73148 38.75804 12.87779 38.78226 15.02408 38.80824 17.17038 38.83614 19.31668 38.86607 21.46298 38.89821 23.60927 38.9327 25.75558 38.96968 27.90187 39.00941 30.04817 39.05203 32.19449 39.0978 34.34077 39.14691 36.48708 39.19933 38.63338 39.2562 40.77968 39.31691 42.92596 39.38223 45.07228 39.45226 47.21857 39.52673 49.36487 39.6075 51.51118 39.69435 53.65747 39.78656 55.80377 39.88649 57.95007 39.9934 60.09637 40.10791 62.24268 40.23094 64.38898 40.36313 66.53526 40.5054 68.68158 40.65758 70.82788 40.82127 72.97417 40.99658 75.12048 41.18495 77.26677 41.3863 79.41307 41.6032 81.55937 41.83606 83.70567 42.08592 85.85196 42.35414 87.99828 42.64166 90.14456 42.9507 92.29086 43.28209 94.43718 43.63724 96.58347 44.0193 98.72977 44.42902 100.87607 44.86871 103.02237 45.34065 105.16866 45.8473 107.31497 46.38896 109.46126 46.97229 111.60756 47.59843 113.75388 48.27016 115.90016 48.99127 118.04646 49.76521 120.19276 50.59586 122.33905 51.48723 124.48537 52.44421 126.63167 53.47118 128.77796 54.57327 130.92427 55.75615 133.07056 57.02571 135.21686 58.38814 137.36316 59.85106 139.50946 61.42036 141.65575 63.10512 143.80207 64.9126 145.94837 66.85333 148.09465 68.93564 150.24097 71.17145 152.38726 73.57031 154.53356 76.14513 156.67986 78.90845 158.82616 81.8749 160.97245 85.05786 163.11876 88.47345 165.26505 92.1399 167.41135 96.07541 169.55767 100.29945 171.70395 104.83345 173.85027 109.69714 175.99655 114.9199 178.14286 120.52573 180.28916 126.53963 182.43546 132.99393 184.58174 139.92243 186.72806 147.35968 188.87436 155.34033 191.02065 163.90584 193.16696 173.09616 195.31325 182.96514 197.45955 193.55423 199.60585 204.91803 201.75215 217.11879 203.89844 230.21027 206.04476 244.25786 208.19104 259.33915 210.33734 275.52867 212.48366 292.89485"/>
<use data-text="p" xlink:href="#font_2_8" transform="matrix(11.04004,0,0,-11.040702,133.12729,157.04654)"/>
<use data-text="o" xlink:href="#font_2_7" transform="matrix(11.04004,0,0,-11.040702,139.83965,157.04654)"/>
<use data-text="w" xlink:href="#font_2_10" transform="matrix(11.04004,0,0,-11.040702,145.87854,157.04654)"/>
<use data-text="e" xlink:href="#font_2_6" transform="matrix(11.04004,0,0,-11.040702,154.29105,157.04654)"/>
<use data-text="r" xlink:href="#font_2_9" transform="matrix(11.04004,0,0,-11.040702,159.96564,157.04654)"/>
<use data-text="&#x2192;" xlink:href="#font_1_1" transform="matrix(11.04004,0,0,-11.040702,168.7915,157.04654)"/>
<use data-text="&#x221e;" xlink:href="#font_1_2" transform="matrix(11.04004,0,0,-11.040702,181.88498,157.04654)"/>
<use data-text="&#x2212;" xlink:href="#font_1_3" transform="matrix(11.04004,0,0,-11.040702,-3.0326997,157.04654)"/>
<use data-text="&#x221e;" xlink:href="#font_1_2" transform="matrix(11.04004,0,0,-11.040702,4.9161379,157.04654)"/>
<use data-text="&#x2190;" xlink:href="#font_1_4" transform="matrix(11.04004,0,0,-11.040702,18.230423,157.04654)"/>
<use data-text="p" xlink:href="#font_2_8" transform="matrix(11.04004,0,0,-11.040702,33.8096,157.04654)"/>
<use data-text="o" xlink:href="#font_2_7" transform="matrix(11.04004,0,0,-11.040702,40.52195,157.04654)"/>
<use data-text="w" xlink:href="#font_2_10" transform="matrix(11.04004,0,0,-11.040702,46.560846,157.04654)"/>
<use data-text="e" xlink:href="#font_2_6" transform="matrix(11.04004,0,0,-11.040702,54.97336,157.04654)"/>
<use data-text="r" xlink:href="#font_2_9" transform="matrix(11.04004,0,0,-11.040702,60.647935,157.04654)"/>
<use data-text="e" xlink:href="#font_4_1" transform="matrix(12.04368,0,0,-12.044403,160.7876,72.50761)"/>
<use data-text="p" xlink:href="#font_2_8" transform="matrix(9.129001,0,0,-9.129548,169.1768,67.7553)"/>
<use data-text="o" xlink:href="#font_2_7" transform="matrix(9.129001,0,0,-9.129548,174.72724,67.7553)"/>
<use data-text="w" xlink:href="#font_2_10" transform="matrix(9.129001,0,0,-9.129548,179.7208,67.7553)"/>
<use data-text="e" xlink:href="#font_2_6" transform="matrix(9.129001,0,0,-9.129548,186.6771,67.7553)"/>
<use data-text="r" xlink:href="#font_2_9" transform="matrix(9.129001,0,0,-9.129548,191.3694,67.7553)"/>
<use data-text="&#x2192;" xlink:href="#font_1_1" transform="matrix(3.7216976,-11.454929,-11.454243,-3.7219208,169.61426,52.54532)"/>
<use data-text="&#x221e;" xlink:href="#font_1_2" transform="matrix(3.7216976,-11.454929,-11.454243,-3.7219208,174.02448,38.971223)"/>
<use data-text="0" xlink:href="#font_2_1" transform="matrix(12.036253,-.42024929,-.42022408,-12.036974,7.1898958,120.91092)"/>
<use data-text="&#x2190;" xlink:href="#font_1_4" transform="matrix(12.036253,-.42024929,-.42022408,-12.036974,15.812584,120.60985)"/>
<use data-text="e" xlink:href="#font_4_1" transform="matrix(12.036253,-.42024929,-.42022408,-12.036974,30.087372,120.111438)"/>
<use data-text="p" xlink:href="#font_2_8" transform="matrix(9.12337,-.31854514,-.31852604,-9.123918,38.305589,115.06935)"/>
<use data-text="o" xlink:href="#font_2_7" transform="matrix(9.12337,-.31854514,-.31852604,-9.123918,43.852594,114.87567)"/>
<use data-text="w" xlink:href="#font_2_10" transform="matrix(9.12337,-.31854514,-.31852604,-9.123918,48.84308,114.70143)"/>
<use data-text="e" xlink:href="#font_2_6" transform="matrix(9.12337,-.31854514,-.31852604,-9.123918,55.795083,114.458698)"/>
<use data-text="r" xlink:href="#font_2_9" transform="matrix(9.12337,-.31854514,-.31852604,-9.123918,60.48449,114.29497)"/>
</g>
</svg>
