<svg xmlns="http://www.w3.org/2000/svg" xmlns:xlink="http://www.w3.org/1999/xlink" version="1.1" width="175" height="92" viewBox="0 0 175 92">
<defs>
<path id="font_1_2" d="M.42799378 .45222474 .43899537 .49023438H.31199647L.34599305 .6092224 .33399964 .6162262 .23699951 .53923037 .22399903 .49023438H.14299011L.13198853 .45222474H.21499634L.125 .08627319C.10998535 .029266358 .12199402-.01171875 .17199707-.01171875 .2519989-.01171875 .31599427 .054275514 .35598756 .1292572L.33399964 .1462555C.31098939 .10726929 .2599945 .040267946 .22898865 .040267946 .20799256 .040267946 .20799256 .0632782 .21398926 .088272098L.30299378 .45222474H.42799378Z"/>
<path id="font_1_1" d="M.18399048 .0002746582 .3600006 .7371979 .35499574 .7421875 .17599488 .71824648 .16999817 .6953125 .22698975 .68829348C.2519989 .6852875 .2559967 .67826846 .24699402 .63920596L.09199524-.01171875 .18399048 .0002746582M.5499878 .5019531C.5099945 .5019531 .46099855 .47094728 .4099884 .427948 .35398866 .378891 .3019867 .32374574 .25498963 .26660157 .27398683 .2027893 .2979889 .14396668 .32598878 .08314514 .35499574 .01927185 .38398744-.01171875 .43199159-.01171875 .49598695-.01171875 .5399933 .045272829 .56999209 .12901306L.54499819 .14196778C.5169983 .08215332 .49198915 .043273927 .46499635 .043273927 .44799806 .043273927 .43399049 .062210084 .40899659 .11405945 .37799073 .17686463 .35299684 .2416687 .33399964 .30870057 .3619995 .34075929 .43998719 .4259491 .47599793 .4259491 .4909973 .4259491 .5019989 .42092896 .5249939 .40690614 .5319977 .40293885 .5419922 .39894105 .5529938 .39894105 .58099368 .39894105 .60198977 .427948 .60198977 .4529419 .60198977 .47994996 .58898928 .5019531 .5499878 .5019531Z"/>
<path id="font_2_1" d="M.084991458 .31092835V.2529297H.33099366V.0068359377H.3889923V.2529297H.6349945V.31092835H.3889923V.5566406H.33099366V.31092835H.084991458Z"/>
<path id="font_3_1" d="M.43699647 0V.0289917L.35299684 .035995485C.33198548 .037994386 .31999208 .04598999 .31999208 .08496094V.67367556L.31498719 .6796875 .10899353 .6446991V.6197052L.20199585 .6087036C.21899414 .6067047 .22599793 .5987091 .22599793 .56973269V.08496094C.22599793 .065979007 .22299195 .053985597 .21699524 .04698181 .21199036 .039993287 .20399475 .036987306 .19299317 .035995485L.10899353 .0289917V0H.43699647Z"/>
<path id="font_1_3" d="M.070999149 .45393373 .07398987 .42893983 .14199829 .43093873C.1639862 .43193055 .16899109 .41493226 .1769867 .36291505 .18798828 .28489686 .20999146 .09286499 .20999146 .0128479 .20999146-.017166138 .20799256-.058166505 .18598938-.11117554 .16799927-.15318299 .14199829-.18218994 .12199402-.18218994 .10699463-.18218994 .09599304-.17118836 .08099365-.15118408 .068984989-.13517761 .06098938-.127182 .04598999-.127182 .019989014-.12818909-.005004883-.15818787-.005004883-.18719483-.005004883-.21418762 .023986817-.2421875 .067993167-.2421875 .15299988-.2421875 .18998719-.17919922 .27799989-.027160645 .2979889 .0068511965 .35798646 .11286926 .41999818 .21488953 .47698976 .30891419 .5399933 .40592958 .5399933 .4459381 .5399933 .48094178 .5289917 .5019531 .5219879 .5019531 .5029907 .5019531 .46899415 .49394227 .44400025 .47694398 .44499208 .4419403 .44299317 .3809204 .43099977 .33891297 .4149933 .28289796 .35598756 .17488098 .2899933 .06085205H.2869873C.27999879 .21388245 .26098634 .42492677 .24699402 .49795533L.23899842 .5019531 .070999149 .45393373Z"/>
<clipPath id="clip_4">
<path transform="matrix(1.00008,0,0,-1.00008,6.719055,88.77491)" d="M0 0H167.03083V87.67072H0Z"/>
</clipPath>
</defs>
<path transform="matrix(1.00008,0,0,-1.00008,6.719055,88.77491)" stroke-width=".3985" stroke-linecap="butt" stroke-miterlimit="10" stroke-linejoin="miter" fill="none" stroke="#cbcbcb" d="M68.77739 0V87.67072M117.9041 0V87.67072"/>
<path transform="matrix(1.00008,0,0,-1.00008,6.719055,88.77491)" stroke-width=".3985" stroke-linecap="butt" stroke-miterlimit="10" stroke-linejoin="miter" fill="none" stroke="#cbcbcb" d="M0 34.21295H167.03083M0 66.28761H167.03083"/>
<path transform="matrix(1.00008,0,0,-1.00008,6.719055,88.77491)" stroke-width=".19925" stroke-linecap="butt" stroke-miterlimit="10" stroke-linejoin="miter" fill="none" stroke="#929292" d="M68.77739 10.70389V14.95581M117.9041 10.70389V14.95581"/>
<path transform="matrix(1.00008,0,0,-1.00008,6.719055,88.77491)" stroke-width=".19925" stroke-linecap="butt" stroke-miterlimit="10" stroke-linejoin="miter" fill="none" stroke="#929292" d="M17.52477 34.21295H21.77657M17.52477 66.28761H21.77657"/>
<path transform="matrix(1.00008,0,0,-1.00008,6.719055,88.77491)" stroke-width=".99628" stroke-linecap="butt" stroke-miterlimit="10" stroke-linejoin="miter" fill="none" stroke="#000000" d="M0 12.82985H164.1416"/>
<path transform="matrix(1.00008,0,0,-1.00008,170.87378,75.94403)" d="M2.8892 0-1.73352 2.31136 0 0-1.73352-2.31136"/>
<path transform="matrix(1.00008,0,0,-1.00008,6.719055,88.77491)" stroke-width=".99628" stroke-linecap="butt" stroke-miterlimit="10" stroke-linejoin="miter" fill="none" stroke="#000000" d="M19.65068 0V84.78151"/>
<path transform="matrix(0,-1.00008,-1.00008,-0,26.371308,3.986618)" d="M2.8892 0-1.73352 2.31136 0 0-1.73352-2.31136"/>
<path transform="matrix(1.00008,0,0,-1.00008,6.719055,88.77491)" d="M60.98235-4.29024H76.57242V10.2057499H60.98235Z" fill="#ffffff"/>
<use data-text="t" xlink:href="#font_1_2" transform="matrix(10.037203,0,0,-10.037203,71.124217,87.95384)"/>
<use data-text="k" xlink:href="#font_1_1" transform="matrix(7.6081087,0,0,-7.6081087,74.87751,89.79899)"/>
<path transform="matrix(1.00008,0,0,-1.00008,6.719055,88.77491)" d="M105.35434-4.29024H130.45386V10.2057499H105.35434Z" fill="#ffffff"/>
<use data-text="t" xlink:href="#font_1_2" transform="matrix(10.037203,0,0,-10.037203,115.49976,87.95384)"/>
<use data-text="k" xlink:href="#font_1_1" transform="matrix(7.6081087,0,0,-7.6081087,119.25306,89.79899)"/>
<use data-text="+" xlink:href="#font_2_1" transform="matrix(7.6081087,0,0,-7.6081087,123.97544,89.79899)"/>
<use data-text="1" xlink:href="#font_3_1" transform="matrix(7.6081087,0,0,-7.6081087,129.44988,89.79899)"/>
<path transform="matrix(1.00008,0,0,-1.00008,6.719055,88.77491)" d="M.68387 27.2987H17.9867V41.1272H.68387Z" fill="#ffffff"/>
<use data-text="y" xlink:href="#font_1_3" transform="matrix(10.037203,0,0,-10.037203,11.149406,55.808275)"/>
<use data-text="k" xlink:href="#font_1_1" transform="matrix(7.6081087,0,0,-7.6081087,16.287819,57.65342)"/>
<path transform="matrix(1.00008,0,0,-1.00008,6.719055,88.77491)" d="M-8.82556 59.37335H17.98671V73.20185H-8.82556Z" fill="#ffffff"/>
<use data-text="y" xlink:href="#font_1_3" transform="matrix(10.037203,0,0,-10.037203,1.638649,23.731705)"/>
<use data-text="k" xlink:href="#font_1_1" transform="matrix(7.6081087,0,0,-7.6081087,6.7770617,25.57685)"/>
<use data-text="+" xlink:href="#font_2_1" transform="matrix(7.6081087,0,0,-7.6081087,11.498436,25.57685)"/>
<use data-text="1" xlink:href="#font_3_1" transform="matrix(7.6081087,0,0,-7.6081087,16.972878,25.57685)"/>
<g clip-path="url(#clip_4)">
<path transform="matrix(1.00008,0,0,-1.00008,6.719055,88.77491)" stroke-width=".99628" stroke-linecap="butt" stroke-miterlimit="10" stroke-linejoin="miter" fill="none" stroke="#ff0000" d="M19.65068 12.82985V12.82985"/>
<path transform="matrix(1.00008,0,0,-1.00008,6.719055,88.77491)" stroke-width=".99628" stroke-linecap="butt" stroke-miterlimit="10" stroke-linejoin="miter" fill="none" stroke="#ff0000" d="M68.77739 34.21295V34.21295"/>
<path transform="matrix(1.00008,0,0,-1.00008,6.719055,88.77491)" stroke-width=".99628" stroke-linecap="butt" stroke-miterlimit="10" stroke-linejoin="miter" fill="none" stroke="#ff0000" d="M117.9041 55.59605V55.59605"/>
</g>
<use data-text="t" xlink:href="#font_1_2" transform="matrix(10.037203,0,0,-10.037203,165.56977,72.158588)"/>
<use data-text="y" xlink:href="#font_1_3" transform="matrix(10.037203,0,0,-10.037203,30.615967,9.75959)"/>
</svg>
