<svg xmlns="http://www.w3.org/2000/svg" xmlns:xlink="http://www.w3.org/1999/xlink" version="1.1" width="67" height="67" viewBox="0 0 67 67">
<defs>
<path id="font_1_1" d="M.42799378 .45222474 .43899537 .49023438H.31199647L.34599305 .6092224 .33399964 .6162262 .23699951 .53923037 .22399903 .49023438H.14299011L.13198853 .45222474H.21499634L.125 .08627319C.10998535 .029266358 .12199402-.01171875 .17199707-.01171875 .2519989-.01171875 .31599427 .054275514 .35598756 .1292572L.33399964 .1462555C.31098939 .10726929 .2599945 .040267946 .22898865 .040267946 .20799256 .040267946 .20799256 .0632782 .21398926 .088272098L.30299378 .45222474H.42799378Z"/>
<path id="font_1_2" d="M.070999149 .45393373 .07398987 .42893983 .14199829 .43093873C.1639862 .43193055 .16899109 .41493226 .1769867 .36291505 .18798828 .28489686 .20999146 .09286499 .20999146 .0128479 .20999146-.017166138 .20799256-.058166505 .18598938-.11117554 .16799927-.15318299 .14199829-.18218994 .12199402-.18218994 .10699463-.18218994 .09599304-.17118836 .08099365-.15118408 .068984989-.13517761 .06098938-.127182 .04598999-.127182 .019989014-.12818909-.005004883-.15818787-.005004883-.18719483-.005004883-.21418762 .023986817-.2421875 .067993167-.2421875 .15299988-.2421875 .18998719-.17919922 .27799989-.027160645 .2979889 .0068511965 .35798646 .11286926 .41999818 .21488953 .47698976 .30891419 .5399933 .40592958 .5399933 .4459381 .5399933 .48094178 .5289917 .5019531 .5219879 .5019531 .5029907 .5019531 .46899415 .49394227 .44400025 .47694398 .44499208 .4419403 .44299317 .3809204 .43099977 .33891297 .4149933 .28289796 .35598756 .17488098 .2899933 .06085205H.2869873C.27999879 .21388245 .26098634 .42492677 .24699402 .49795533L.23899842 .5019531 .070999149 .45393373Z"/>
<path id="font_2_1" d="M.07398987 .2861328V.21612549H.31900025V.2861328H.07398987Z"/>
<path id="font_2_3" d="M.43699647 0V.0289917L.35299684 .035995485C.33198548 .037994386 .31999208 .04598999 .31999208 .08496094V.67367556L.31498719 .6796875 .10899353 .6446991V.6197052L.20199585 .6087036C.21899414 .6067047 .22599793 .5987091 .22599793 .56973269V.08496094C.22599793 .065979007 .22299195 .053985597 .21699524 .04698181 .21199036 .039993287 .20399475 .036987306 .19299317 .035995485L.10899353 .0289917V0H.43699647Z"/>
<path id="font_2_2" d="M.2649994 .64468386C.3600006 .64468386 .3869934 .49682618 .3869934 .33398438 .3869934 .17112732 .3600006 .023269654 .2649994 .023269654 .16999817 .023269654 .14299011 .17112732 .14299011 .33398438 .14299011 .49682618 .16999817 .64468386 .2649994 .64468386M.2649994 .6796875C.099990848 .6796875 .040985109 .53378298 .040985109 .33398438 .040985109 .13417053 .099990848-.01171875 .2649994-.01171875 .42999269-.01171875 .4889984 .13417053 .4889984 .33398438 .4889984 .53378298 .42999269 .6796875 .2649994 .6796875Z"/>
</defs>
<path transform="matrix(1,0,0,-1.00003,31.677002,35.695684)" stroke-width=".3985" stroke-linecap="butt" stroke-miterlimit="10" stroke-linejoin="miter" fill="none" stroke="#cbcbcb" d="M-20.40985-23.81145V23.81145"/>
<path transform="matrix(1,0,0,-1.00003,31.677002,35.695684)" stroke-width=".3985" stroke-linecap="butt" stroke-miterlimit="10" stroke-linejoin="miter" fill="none" stroke="#cbcbcb" d="M-17.00824-23.81145V23.81145"/>
<path transform="matrix(1,0,0,-1.00003,31.677002,35.695684)" stroke-width=".3985" stroke-linecap="butt" stroke-miterlimit="10" stroke-linejoin="miter" fill="none" stroke="#cbcbcb" d="M-13.60663-23.81145V23.81145"/>
<path transform="matrix(1,0,0,-1.00003,31.677002,35.695684)" stroke-width=".3985" stroke-linecap="butt" stroke-miterlimit="10" stroke-linejoin="miter" fill="none" stroke="#cbcbcb" d="M-10.20503-23.81145V23.81145"/>
<path transform="matrix(1,0,0,-1.00003,31.677002,35.695684)" stroke-width=".3985" stroke-linecap="butt" stroke-miterlimit="10" stroke-linejoin="miter" fill="none" stroke="#cbcbcb" d="M-6.80344-23.81145V23.81145"/>
<path transform="matrix(1,0,0,-1.00003,31.677002,35.695684)" stroke-width=".3985" stroke-linecap="butt" stroke-miterlimit="10" stroke-linejoin="miter" fill="none" stroke="#cbcbcb" d="M-3.40184-23.81145V23.81145"/>
<path transform="matrix(1,0,0,-1.00003,31.677002,35.695684)" stroke-width=".3985" stroke-linecap="butt" stroke-miterlimit="10" stroke-linejoin="miter" fill="none" stroke="#cbcbcb" d="M-.00023-23.81145V23.81145"/>
<path transform="matrix(1,0,0,-1.00003,31.677002,35.695684)" stroke-width=".3985" stroke-linecap="butt" stroke-miterlimit="10" stroke-linejoin="miter" fill="none" stroke="#cbcbcb" d="M3.4013-23.81145V23.81145"/>
<path transform="matrix(1,0,0,-1.00003,31.677002,35.695684)" stroke-width=".3985" stroke-linecap="butt" stroke-miterlimit="10" stroke-linejoin="miter" fill="none" stroke="#cbcbcb" d="M6.80292-23.81145V23.81145"/>
<path transform="matrix(1,0,0,-1.00003,31.677002,35.695684)" stroke-width=".3985" stroke-linecap="butt" stroke-miterlimit="10" stroke-linejoin="miter" fill="none" stroke="#cbcbcb" d="M10.20451-23.81145V23.81145"/>
<path transform="matrix(1,0,0,-1.00003,31.677002,35.695684)" stroke-width=".3985" stroke-linecap="butt" stroke-miterlimit="10" stroke-linejoin="miter" fill="none" stroke="#cbcbcb" d="M13.60611-23.81145V23.81145"/>
<path transform="matrix(1,0,0,-1.00003,31.677002,35.695684)" stroke-width=".3985" stroke-linecap="butt" stroke-miterlimit="10" stroke-linejoin="miter" fill="none" stroke="#cbcbcb" d="M17.00772-23.81145V23.81145"/>
<path transform="matrix(1,0,0,-1.00003,31.677002,35.695684)" stroke-width=".3985" stroke-linecap="butt" stroke-miterlimit="10" stroke-linejoin="miter" fill="none" stroke="#cbcbcb" d="M-23.81145-20.40985H23.81145"/>
<path transform="matrix(1,0,0,-1.00003,31.677002,35.695684)" stroke-width=".3985" stroke-linecap="butt" stroke-miterlimit="10" stroke-linejoin="miter" fill="none" stroke="#cbcbcb" d="M-23.81145-17.00824H23.81145"/>
<path transform="matrix(1,0,0,-1.00003,31.677002,35.695684)" stroke-width=".3985" stroke-linecap="butt" stroke-miterlimit="10" stroke-linejoin="miter" fill="none" stroke="#cbcbcb" d="M-23.81145-13.60663H23.81145"/>
<path transform="matrix(1,0,0,-1.00003,31.677002,35.695684)" stroke-width=".3985" stroke-linecap="butt" stroke-miterlimit="10" stroke-linejoin="miter" fill="none" stroke="#cbcbcb" d="M-23.81145-10.20503H23.81145"/>
<path transform="matrix(1,0,0,-1.00003,31.677002,35.695684)" stroke-width=".3985" stroke-linecap="butt" stroke-miterlimit="10" stroke-linejoin="miter" fill="none" stroke="#cbcbcb" d="M-23.81145-6.80344H23.81145"/>
<path transform="matrix(1,0,0,-1.00003,31.677002,35.695684)" stroke-width=".3985" stroke-linecap="butt" stroke-miterlimit="10" stroke-linejoin="miter" fill="none" stroke="#cbcbcb" d="M-23.81145-3.40184H23.81145"/>
<path transform="matrix(1,0,0,-1.00003,31.677002,35.695684)" stroke-width=".3985" stroke-linecap="butt" stroke-miterlimit="10" stroke-linejoin="miter" fill="none" stroke="#cbcbcb" d="M-23.81145-.00023H23.81145"/>
<path transform="matrix(1,0,0,-1.00003,31.677002,35.695684)" stroke-width=".3985" stroke-linecap="butt" stroke-miterlimit="10" stroke-linejoin="miter" fill="none" stroke="#cbcbcb" d="M-23.81145 3.4013H23.81145"/>
<path transform="matrix(1,0,0,-1.00003,31.677002,35.695684)" stroke-width=".3985" stroke-linecap="butt" stroke-miterlimit="10" stroke-linejoin="miter" fill="none" stroke="#cbcbcb" d="M-23.81145 6.80292H23.81145"/>
<path transform="matrix(1,0,0,-1.00003,31.677002,35.695684)" stroke-width=".3985" stroke-linecap="butt" stroke-miterlimit="10" stroke-linejoin="miter" fill="none" stroke="#cbcbcb" d="M-23.81145 10.20451H23.81145"/>
<path transform="matrix(1,0,0,-1.00003,31.677002,35.695684)" stroke-width=".3985" stroke-linecap="butt" stroke-miterlimit="10" stroke-linejoin="miter" fill="none" stroke="#cbcbcb" d="M-23.81145 13.60611H23.81145"/>
<path transform="matrix(1,0,0,-1.00003,31.677002,35.695684)" stroke-width=".3985" stroke-linecap="butt" stroke-miterlimit="10" stroke-linejoin="miter" fill="none" stroke="#cbcbcb" d="M-23.81145 17.00772H23.81145"/>
<path transform="matrix(1,0,0,-1.00003,31.677002,35.695684)" stroke-width=".3985" stroke-linecap="butt" stroke-miterlimit="10" stroke-linejoin="miter" fill="none" stroke="#000000" d="M-23.81145 0H33.618"/>
<path transform="matrix(1,0,0,-1.00003,65.49425,35.695684)" stroke-width=".3985" stroke-linecap="round" stroke-linejoin="round" fill="none" stroke="#000000" d="M-2.07224 2.39104C-1.69365 .95639-.84999 .27895 0 0-.84999-.27895-1.69365-.95639-2.07224-2.39104"/>
<use data-text="t" xlink:href="#font_1_1" transform="matrix(7.3325,0,0,-7.3327205,61.295999,43.613924)"/>
<path transform="matrix(1,0,0,-1.00003,31.677002,35.695684)" stroke-width=".3985" stroke-linecap="butt" stroke-miterlimit="10" stroke-linejoin="miter" fill="none" stroke="#000000" d="M0-23.81145V33.618"/>
<path transform="matrix(0,-1.00003,-1,-0,31.677002,1.8774185)" stroke-width=".3985" stroke-linecap="round" stroke-linejoin="round" fill="none" stroke="#000000" d="M-2.07224 2.39104C-1.69365 .95639-.84999 .27895 0 0-.84999-.27895-1.69365-.95639-2.07224-2.39104"/>
<use data-text="y" xlink:href="#font_1_2" transform="matrix(7.3325,0,0,-7.3327205,24.173996,5.4257738)"/>
<path transform="matrix(1,0,0,-1.00003,31.677002,35.695684)" stroke-width=".3985" stroke-linecap="butt" stroke-miterlimit="10" stroke-linejoin="miter" fill="none" stroke="#cbcbcb" d="M-23.81145-23.81145V23.81145H23.81145V-23.81145ZM23.81145 23.81145"/>
<path transform="matrix(1,0,0,-1.00003,31.677002,35.695684)" stroke-width=".3985" stroke-linecap="butt" stroke-miterlimit="10" stroke-linejoin="miter" fill="none" stroke="#000000" d="M-17.00824-25.51236V-22.1105"/>
<use data-text="-" xlink:href="#font_2_1" transform="matrix(5.4994,0,0,-5.499565,11.848,64.888568)"/>
<use data-text="1" xlink:href="#font_2_3" transform="matrix(5.4994,0,0,-5.499565,14.003761,64.888568)"/>
<path transform="matrix(1,0,0,-1.00003,31.677002,35.695684)" stroke-width=".3985" stroke-linecap="butt" stroke-miterlimit="10" stroke-linejoin="miter" fill="none" stroke="#000000" d="M0-25.51236V-22.1105"/>
<use data-text="0" xlink:href="#font_2_2" transform="matrix(5.4994,0,0,-5.499565,30.218003,64.888568)"/>
<path transform="matrix(1,0,0,-1.00003,31.677002,35.695684)" stroke-width=".3985" stroke-linecap="butt" stroke-miterlimit="10" stroke-linejoin="miter" fill="none" stroke="#000000" d="M17.00824-25.51236V-22.1105"/>
<use data-text="1" xlink:href="#font_2_3" transform="matrix(5.4994,0,0,-5.499565,47.227,64.888568)"/>
<path transform="matrix(1,0,0,-1.00003,31.677002,35.695684)" stroke-width=".3985" stroke-linecap="butt" stroke-miterlimit="10" stroke-linejoin="miter" fill="none" stroke="#000000" d="M-25.51236-17.00824H-22.1105"/>
<use data-text="-" xlink:href="#font_2_1" transform="matrix(5.4994,0,0,-5.499565,1.0930023,54.54525)"/>
<use data-text="1" xlink:href="#font_2_3" transform="matrix(5.4994,0,0,-5.499565,3.248764,54.54525)"/>
<path transform="matrix(1,0,0,-1.00003,31.677002,35.695684)" stroke-width=".3985" stroke-linecap="butt" stroke-miterlimit="10" stroke-linejoin="miter" fill="none" stroke="#000000" d="M-25.51236 0H-22.1105"/>
<use data-text="0" xlink:href="#font_2_2" transform="matrix(5.4994,0,0,-5.499565,3.25,37.521738)"/>
<path transform="matrix(1,0,0,-1.00003,31.677002,35.695684)" stroke-width=".3985" stroke-linecap="butt" stroke-miterlimit="10" stroke-linejoin="miter" fill="none" stroke="#000000" d="M-25.51236 17.00824H-22.1105"/>
<use data-text="1" xlink:href="#font_2_3" transform="matrix(5.4994,0,0,-5.499565,3.25,20.528227)"/>
<path transform="matrix(1,0,0,-1.00003,31.677002,35.695684)" stroke-width=".49814" stroke-linecap="butt" stroke-miterlimit="10" stroke-linejoin="miter" fill="none" stroke="#409f9f" d="M-21.50348-21.71083-19.31622-19.10887"/>
<path transform="matrix(1,0,0,-1.00003,31.677002,35.695684)" stroke-width=".49814" stroke-linecap="butt" stroke-miterlimit="10" stroke-linejoin="miter" fill="none" stroke="#409f9f" d="M-21.77054-18.02869-19.04916-15.9878"/>
<path transform="matrix(1,0,0,-1.00003,31.677002,35.695684)" stroke-width=".49814" stroke-linecap="butt" stroke-miterlimit="10" stroke-linejoin="miter" fill="none" stroke="#409f9f" d="M-21.99503-14.22481-18.82468-12.98845"/>
<path transform="matrix(1,0,0,-1.00003,31.677002,35.695684)" stroke-width=".49814" stroke-linecap="butt" stroke-miterlimit="10" stroke-linejoin="miter" fill="none" stroke="#409f9f" d="M-22.09961-10.39034-18.7201-10.01974"/>
<path transform="matrix(1,0,0,-1.00003,31.677002,35.695684)" stroke-width=".49814" stroke-linecap="butt" stroke-miterlimit="10" stroke-linejoin="miter" fill="none" stroke="#409f9f" d="M-22.10298-6.65137-18.71672-6.9555"/>
<path transform="matrix(1,0,0,-1.00003,31.677002,35.695684)" stroke-width=".49814" stroke-linecap="butt" stroke-miterlimit="10" stroke-linejoin="miter" fill="none" stroke="#409f9f" d="M-22.07314-3.05254-18.74657-3.75116"/>
<path transform="matrix(1,0,0,-1.00003,31.677002,35.695684)" stroke-width=".49814" stroke-linecap="butt" stroke-miterlimit="10" stroke-linejoin="miter" fill="none" stroke="#409f9f" d="M-22.05965 .41212-18.76006-.4126"/>
<path transform="matrix(1,0,0,-1.00003,31.677002,35.695684)" stroke-width=".49814" stroke-linecap="butt" stroke-miterlimit="10" stroke-linejoin="miter" fill="none" stroke="#409f9f" d="M-22.07314 3.75063-18.74657 3.052"/>
<path transform="matrix(1,0,0,-1.00003,31.677002,35.695684)" stroke-width=".49814" stroke-linecap="butt" stroke-miterlimit="10" stroke-linejoin="miter" fill="none" stroke="#409f9f" d="M-22.10298 6.95525-18.71672 6.6506"/>
<path transform="matrix(1,0,0,-1.00003,31.677002,35.695684)" stroke-width=".49814" stroke-linecap="butt" stroke-miterlimit="10" stroke-linejoin="miter" fill="none" stroke="#409f9f" d="M-22.09961 10.01923-18.7201 10.38982"/>
<path transform="matrix(1,0,0,-1.00003,31.677002,35.695684)" stroke-width=".49814" stroke-linecap="butt" stroke-miterlimit="10" stroke-linejoin="miter" fill="none" stroke="#409f9f" d="M-21.99503 12.98795-18.82468 14.22429"/>
<path transform="matrix(1,0,0,-1.00003,31.677002,35.695684)" stroke-width=".49814" stroke-linecap="butt" stroke-miterlimit="10" stroke-linejoin="miter" fill="none" stroke="#409f9f" d="M-21.77054 15.98727-19.04916 18.02817"/>
<path transform="matrix(1,0,0,-1.00003,31.677002,35.695684)" stroke-width=".49814" stroke-linecap="butt" stroke-miterlimit="10" stroke-linejoin="miter" fill="none" stroke="#409f9f" d="M-18.10187-21.71083-15.91461-19.10887"/>
<path transform="matrix(1,0,0,-1.00003,31.677002,35.695684)" stroke-width=".49814" stroke-linecap="butt" stroke-miterlimit="10" stroke-linejoin="miter" fill="none" stroke="#409f9f" d="M-18.36893-18.02869-15.64755-15.9878"/>
<path transform="matrix(1,0,0,-1.00003,31.677002,35.695684)" stroke-width=".49814" stroke-linecap="butt" stroke-miterlimit="10" stroke-linejoin="miter" fill="none" stroke="#409f9f" d="M-18.59341-14.22481-15.42307-12.98845"/>
<path transform="matrix(1,0,0,-1.00003,31.677002,35.695684)" stroke-width=".49814" stroke-linecap="butt" stroke-miterlimit="10" stroke-linejoin="miter" fill="none" stroke="#409f9f" d="M-18.698-10.39034-15.31848-10.01974"/>
<path transform="matrix(1,0,0,-1.00003,31.677002,35.695684)" stroke-width=".49814" stroke-linecap="butt" stroke-miterlimit="10" stroke-linejoin="miter" fill="none" stroke="#409f9f" d="M-18.70137-6.65137-15.31511-6.9555"/>
<path transform="matrix(1,0,0,-1.00003,31.677002,35.695684)" stroke-width=".49814" stroke-linecap="butt" stroke-miterlimit="10" stroke-linejoin="miter" fill="none" stroke="#409f9f" d="M-18.67152-3.05254-15.34496-3.75116"/>
<path transform="matrix(1,0,0,-1.00003,31.677002,35.695684)" stroke-width=".49814" stroke-linecap="butt" stroke-miterlimit="10" stroke-linejoin="miter" fill="none" stroke="#409f9f" d="M-18.65804 .41212-15.35844-.4126"/>
<path transform="matrix(1,0,0,-1.00003,31.677002,35.695684)" stroke-width=".49814" stroke-linecap="butt" stroke-miterlimit="10" stroke-linejoin="miter" fill="none" stroke="#409f9f" d="M-18.67152 3.75063-15.34496 3.052"/>
<path transform="matrix(1,0,0,-1.00003,31.677002,35.695684)" stroke-width=".49814" stroke-linecap="butt" stroke-miterlimit="10" stroke-linejoin="miter" fill="none" stroke="#409f9f" d="M-18.70137 6.95525-15.31511 6.6506"/>
<path transform="matrix(1,0,0,-1.00003,31.677002,35.695684)" stroke-width=".49814" stroke-linecap="butt" stroke-miterlimit="10" stroke-linejoin="miter" fill="none" stroke="#409f9f" d="M-18.698 10.01923-15.31848 10.38982"/>
<path transform="matrix(1,0,0,-1.00003,31.677002,35.695684)" stroke-width=".49814" stroke-linecap="butt" stroke-miterlimit="10" stroke-linejoin="miter" fill="none" stroke="#409f9f" d="M-18.59341 12.98795-15.42307 14.22429"/>
<path transform="matrix(1,0,0,-1.00003,31.677002,35.695684)" stroke-width=".49814" stroke-linecap="butt" stroke-miterlimit="10" stroke-linejoin="miter" fill="none" stroke="#409f9f" d="M-18.36893 15.98727-15.64755 18.02817"/>
<path transform="matrix(1,0,0,-1.00003,31.677002,35.695684)" stroke-width=".49814" stroke-linecap="butt" stroke-miterlimit="10" stroke-linejoin="miter" fill="none" stroke="#409f9f" d="M-14.70026-21.71083-12.513-19.10887"/>
<path transform="matrix(1,0,0,-1.00003,31.677002,35.695684)" stroke-width=".49814" stroke-linecap="butt" stroke-miterlimit="10" stroke-linejoin="miter" fill="none" stroke="#409f9f" d="M-14.96732-18.02869-12.24594-15.9878"/>
<path transform="matrix(1,0,0,-1.00003,31.677002,35.695684)" stroke-width=".49814" stroke-linecap="butt" stroke-miterlimit="10" stroke-linejoin="miter" fill="none" stroke="#409f9f" d="M-15.1918-14.22481-12.02145-12.98845"/>
<path transform="matrix(1,0,0,-1.00003,31.677002,35.695684)" stroke-width=".49814" stroke-linecap="butt" stroke-miterlimit="10" stroke-linejoin="miter" fill="none" stroke="#409f9f" d="M-15.29639-10.39034-11.91687-10.01974"/>
<path transform="matrix(1,0,0,-1.00003,31.677002,35.695684)" stroke-width=".49814" stroke-linecap="butt" stroke-miterlimit="10" stroke-linejoin="miter" fill="none" stroke="#409f9f" d="M-15.29976-6.65137-11.9135-6.9555"/>
<path transform="matrix(1,0,0,-1.00003,31.677002,35.695684)" stroke-width=".49814" stroke-linecap="butt" stroke-miterlimit="10" stroke-linejoin="miter" fill="none" stroke="#409f9f" d="M-15.26991-3.05254-11.94334-3.75116"/>
<path transform="matrix(1,0,0,-1.00003,31.677002,35.695684)" stroke-width=".49814" stroke-linecap="butt" stroke-miterlimit="10" stroke-linejoin="miter" fill="none" stroke="#409f9f" d="M-15.25642 .41212-11.95683-.4126"/>
<path transform="matrix(1,0,0,-1.00003,31.677002,35.695684)" stroke-width=".49814" stroke-linecap="butt" stroke-miterlimit="10" stroke-linejoin="miter" fill="none" stroke="#409f9f" d="M-15.26991 3.75063-11.94334 3.052"/>
<path transform="matrix(1,0,0,-1.00003,31.677002,35.695684)" stroke-width=".49814" stroke-linecap="butt" stroke-miterlimit="10" stroke-linejoin="miter" fill="none" stroke="#409f9f" d="M-15.29976 6.95525-11.9135 6.6506"/>
<path transform="matrix(1,0,0,-1.00003,31.677002,35.695684)" stroke-width=".49814" stroke-linecap="butt" stroke-miterlimit="10" stroke-linejoin="miter" fill="none" stroke="#409f9f" d="M-15.29639 10.01923-11.91687 10.38982"/>
<path transform="matrix(1,0,0,-1.00003,31.677002,35.695684)" stroke-width=".49814" stroke-linecap="butt" stroke-miterlimit="10" stroke-linejoin="miter" fill="none" stroke="#409f9f" d="M-15.1918 12.98795-12.02145 14.22429"/>
<path transform="matrix(1,0,0,-1.00003,31.677002,35.695684)" stroke-width=".49814" stroke-linecap="butt" stroke-miterlimit="10" stroke-linejoin="miter" fill="none" stroke="#409f9f" d="M-14.96732 15.98727-12.24594 18.02817"/>
<path transform="matrix(1,0,0,-1.00003,31.677002,35.695684)" stroke-width=".49814" stroke-linecap="butt" stroke-miterlimit="10" stroke-linejoin="miter" fill="none" stroke="#409f9f" d="M-11.29866-21.71083-9.1114-19.10887"/>
<path transform="matrix(1,0,0,-1.00003,31.677002,35.695684)" stroke-width=".49814" stroke-linecap="butt" stroke-miterlimit="10" stroke-linejoin="miter" fill="none" stroke="#409f9f" d="M-11.56572-18.02869-8.84435-15.9878"/>
<path transform="matrix(1,0,0,-1.00003,31.677002,35.695684)" stroke-width=".49814" stroke-linecap="butt" stroke-miterlimit="10" stroke-linejoin="miter" fill="none" stroke="#409f9f" d="M-11.7902-14.22481-8.61986-12.98845"/>
<path transform="matrix(1,0,0,-1.00003,31.677002,35.695684)" stroke-width=".49814" stroke-linecap="butt" stroke-miterlimit="10" stroke-linejoin="miter" fill="none" stroke="#409f9f" d="M-11.89479-10.39034-8.51527-10.01974"/>
<path transform="matrix(1,0,0,-1.00003,31.677002,35.695684)" stroke-width=".49814" stroke-linecap="butt" stroke-miterlimit="10" stroke-linejoin="miter" fill="none" stroke="#409f9f" d="M-11.89816-6.65137-8.5119-6.9555"/>
<path transform="matrix(1,0,0,-1.00003,31.677002,35.695684)" stroke-width=".49814" stroke-linecap="butt" stroke-miterlimit="10" stroke-linejoin="miter" fill="none" stroke="#409f9f" d="M-11.86832-3.05254-8.54176-3.75116"/>
<path transform="matrix(1,0,0,-1.00003,31.677002,35.695684)" stroke-width=".49814" stroke-linecap="butt" stroke-miterlimit="10" stroke-linejoin="miter" fill="none" stroke="#409f9f" d="M-11.85483 .41212-8.55524-.4126"/>
<path transform="matrix(1,0,0,-1.00003,31.677002,35.695684)" stroke-width=".49814" stroke-linecap="butt" stroke-miterlimit="10" stroke-linejoin="miter" fill="none" stroke="#409f9f" d="M-11.86832 3.75063-8.54176 3.052"/>
<path transform="matrix(1,0,0,-1.00003,31.677002,35.695684)" stroke-width=".49814" stroke-linecap="butt" stroke-miterlimit="10" stroke-linejoin="miter" fill="none" stroke="#409f9f" d="M-11.89816 6.95525-8.5119 6.6506"/>
<path transform="matrix(1,0,0,-1.00003,31.677002,35.695684)" stroke-width=".49814" stroke-linecap="butt" stroke-miterlimit="10" stroke-linejoin="miter" fill="none" stroke="#409f9f" d="M-11.89479 10.01923-8.51527 10.38982"/>
<path transform="matrix(1,0,0,-1.00003,31.677002,35.695684)" stroke-width=".49814" stroke-linecap="butt" stroke-miterlimit="10" stroke-linejoin="miter" fill="none" stroke="#409f9f" d="M-11.7902 12.98795-8.61986 14.22429"/>
<path transform="matrix(1,0,0,-1.00003,31.677002,35.695684)" stroke-width=".49814" stroke-linecap="butt" stroke-miterlimit="10" stroke-linejoin="miter" fill="none" stroke="#409f9f" d="M-11.56572 15.98727-8.84435 18.02817"/>
<path transform="matrix(1,0,0,-1.00003,31.677002,35.695684)" stroke-width=".49814" stroke-linecap="butt" stroke-miterlimit="10" stroke-linejoin="miter" fill="none" stroke="#409f9f" d="M-7.89706-21.71083-5.70981-19.10887"/>
<path transform="matrix(1,0,0,-1.00003,31.677002,35.695684)" stroke-width=".49814" stroke-linecap="butt" stroke-miterlimit="10" stroke-linejoin="miter" fill="none" stroke="#409f9f" d="M-8.16412-18.02869-5.44276-15.9878"/>
<path transform="matrix(1,0,0,-1.00003,31.677002,35.695684)" stroke-width=".49814" stroke-linecap="butt" stroke-miterlimit="10" stroke-linejoin="miter" fill="none" stroke="#409f9f" d="M-8.38861-14.22481-5.21826-12.98845"/>
<path transform="matrix(1,0,0,-1.00003,31.677002,35.695684)" stroke-width=".49814" stroke-linecap="butt" stroke-miterlimit="10" stroke-linejoin="miter" fill="none" stroke="#409f9f" d="M-8.4932-10.39034-5.11368-10.01974"/>
<path transform="matrix(1,0,0,-1.00003,31.677002,35.695684)" stroke-width=".49814" stroke-linecap="butt" stroke-miterlimit="10" stroke-linejoin="miter" fill="none" stroke="#409f9f" d="M-8.49658-6.65137-5.1103-6.9555"/>
<path transform="matrix(1,0,0,-1.00003,31.677002,35.695684)" stroke-width=".49814" stroke-linecap="butt" stroke-miterlimit="10" stroke-linejoin="miter" fill="none" stroke="#409f9f" d="M-8.46672-3.05254-5.14017-3.75116"/>
<path transform="matrix(1,0,0,-1.00003,31.677002,35.695684)" stroke-width=".49814" stroke-linecap="butt" stroke-miterlimit="10" stroke-linejoin="miter" fill="none" stroke="#409f9f" d="M-8.45323 .41212-5.15364-.4126"/>
<path transform="matrix(1,0,0,-1.00003,31.677002,35.695684)" stroke-width=".49814" stroke-linecap="butt" stroke-miterlimit="10" stroke-linejoin="miter" fill="none" stroke="#409f9f" d="M-8.46672 3.75063-5.14017 3.052"/>
<path transform="matrix(1,0,0,-1.00003,31.677002,35.695684)" stroke-width=".49814" stroke-linecap="butt" stroke-miterlimit="10" stroke-linejoin="miter" fill="none" stroke="#409f9f" d="M-8.49658 6.95525-5.1103 6.6506"/>
<path transform="matrix(1,0,0,-1.00003,31.677002,35.695684)" stroke-width=".49814" stroke-linecap="butt" stroke-miterlimit="10" stroke-linejoin="miter" fill="none" stroke="#409f9f" d="M-8.4932 10.01923-5.11368 10.38982"/>
<path transform="matrix(1,0,0,-1.00003,31.677002,35.695684)" stroke-width=".49814" stroke-linecap="butt" stroke-miterlimit="10" stroke-linejoin="miter" fill="none" stroke="#409f9f" d="M-8.38861 12.98795-5.21826 14.22429"/>
<path transform="matrix(1,0,0,-1.00003,31.677002,35.695684)" stroke-width=".49814" stroke-linecap="butt" stroke-miterlimit="10" stroke-linejoin="miter" fill="none" stroke="#409f9f" d="M-8.16412 15.98727-5.44276 18.02817"/>
<path transform="matrix(1,0,0,-1.00003,31.677002,35.695684)" stroke-width=".49814" stroke-linecap="butt" stroke-miterlimit="10" stroke-linejoin="miter" fill="none" stroke="#409f9f" d="M-4.49548-21.71083-2.30821-19.10887"/>
<path transform="matrix(1,0,0,-1.00003,31.677002,35.695684)" stroke-width=".49814" stroke-linecap="butt" stroke-miterlimit="10" stroke-linejoin="miter" fill="none" stroke="#409f9f" d="M-4.76253-18.02869-2.04117-15.9878"/>
<path transform="matrix(1,0,0,-1.00003,31.677002,35.695684)" stroke-width=".49814" stroke-linecap="butt" stroke-miterlimit="10" stroke-linejoin="miter" fill="none" stroke="#409f9f" d="M-4.98701-14.22481-1.81668-12.98845"/>
<path transform="matrix(1,0,0,-1.00003,31.677002,35.695684)" stroke-width=".49814" stroke-linecap="butt" stroke-miterlimit="10" stroke-linejoin="miter" fill="none" stroke="#409f9f" d="M-5.09161-10.39034-1.71208-10.01974"/>
<path transform="matrix(1,0,0,-1.00003,31.677002,35.695684)" stroke-width=".49814" stroke-linecap="butt" stroke-miterlimit="10" stroke-linejoin="miter" fill="none" stroke="#409f9f" d="M-5.09499-6.65137-1.70871-6.9555"/>
<path transform="matrix(1,0,0,-1.00003,31.677002,35.695684)" stroke-width=".49814" stroke-linecap="butt" stroke-miterlimit="10" stroke-linejoin="miter" fill="none" stroke="#409f9f" d="M-5.06512-3.05254-1.73857-3.75116"/>
<path transform="matrix(1,0,0,-1.00003,31.677002,35.695684)" stroke-width=".49814" stroke-linecap="butt" stroke-miterlimit="10" stroke-linejoin="miter" fill="none" stroke="#409f9f" d="M-5.05164 .41212-1.75204-.4126"/>
<path transform="matrix(1,0,0,-1.00003,31.677002,35.695684)" stroke-width=".49814" stroke-linecap="butt" stroke-miterlimit="10" stroke-linejoin="miter" fill="none" stroke="#409f9f" d="M-5.06512 3.75063-1.73857 3.052"/>
<path transform="matrix(1,0,0,-1.00003,31.677002,35.695684)" stroke-width=".49814" stroke-linecap="butt" stroke-miterlimit="10" stroke-linejoin="miter" fill="none" stroke="#409f9f" d="M-5.09499 6.95525-1.70871 6.6506"/>
<path transform="matrix(1,0,0,-1.00003,31.677002,35.695684)" stroke-width=".49814" stroke-linecap="butt" stroke-miterlimit="10" stroke-linejoin="miter" fill="none" stroke="#409f9f" d="M-5.09161 10.01923-1.71208 10.38982"/>
<path transform="matrix(1,0,0,-1.00003,31.677002,35.695684)" stroke-width=".49814" stroke-linecap="butt" stroke-miterlimit="10" stroke-linejoin="miter" fill="none" stroke="#409f9f" d="M-4.98701 12.98795-1.81668 14.22429"/>
<path transform="matrix(1,0,0,-1.00003,31.677002,35.695684)" stroke-width=".49814" stroke-linecap="butt" stroke-miterlimit="10" stroke-linejoin="miter" fill="none" stroke="#409f9f" d="M-4.76253 15.98727-2.04117 18.02817"/>
<path transform="matrix(1,0,0,-1.00003,31.677002,35.695684)" stroke-width=".49814" stroke-linecap="butt" stroke-miterlimit="10" stroke-linejoin="miter" fill="none" stroke="#409f9f" d="M-1.09387-21.71083 1.09338-19.10887"/>
<path transform="matrix(1,0,0,-1.00003,31.677002,35.695684)" stroke-width=".49814" stroke-linecap="butt" stroke-miterlimit="10" stroke-linejoin="miter" fill="none" stroke="#409f9f" d="M-1.36092-18.02869 1.36043-15.9878"/>
<path transform="matrix(1,0,0,-1.00003,31.677002,35.695684)" stroke-width=".49814" stroke-linecap="butt" stroke-miterlimit="10" stroke-linejoin="miter" fill="none" stroke="#409f9f" d="M-1.5854-14.22481 1.58492-12.98845"/>
<path transform="matrix(1,0,0,-1.00003,31.677002,35.695684)" stroke-width=".49814" stroke-linecap="butt" stroke-miterlimit="10" stroke-linejoin="miter" fill="none" stroke="#409f9f" d="M-1.69-10.39034 1.68951-10.01974"/>
<path transform="matrix(1,0,0,-1.00003,31.677002,35.695684)" stroke-width=".49814" stroke-linecap="butt" stroke-miterlimit="10" stroke-linejoin="miter" fill="none" stroke="#409f9f" d="M-1.69337-6.65137 1.69289-6.9555"/>
<path transform="matrix(1,0,0,-1.00003,31.677002,35.695684)" stroke-width=".49814" stroke-linecap="butt" stroke-miterlimit="10" stroke-linejoin="miter" fill="none" stroke="#409f9f" d="M-1.66351-3.05254 1.66302-3.75116"/>
<path transform="matrix(1,0,0,-1.00003,31.677002,35.695684)" stroke-width=".49814" stroke-linecap="butt" stroke-miterlimit="10" stroke-linejoin="miter" fill="none" stroke="#409f9f" d="M-1.65002 .41212 1.64955-.4126"/>
<path transform="matrix(1,0,0,-1.00003,31.677002,35.695684)" stroke-width=".49814" stroke-linecap="butt" stroke-miterlimit="10" stroke-linejoin="miter" fill="none" stroke="#409f9f" d="M-1.66351 3.75063 1.66302 3.052"/>
<path transform="matrix(1,0,0,-1.00003,31.677002,35.695684)" stroke-width=".49814" stroke-linecap="butt" stroke-miterlimit="10" stroke-linejoin="miter" fill="none" stroke="#409f9f" d="M-1.69337 6.95525 1.69289 6.6506"/>
<path transform="matrix(1,0,0,-1.00003,31.677002,35.695684)" stroke-width=".49814" stroke-linecap="butt" stroke-miterlimit="10" stroke-linejoin="miter" fill="none" stroke="#409f9f" d="M-1.69 10.01923 1.68951 10.38982"/>
<path transform="matrix(1,0,0,-1.00003,31.677002,35.695684)" stroke-width=".49814" stroke-linecap="butt" stroke-miterlimit="10" stroke-linejoin="miter" fill="none" stroke="#409f9f" d="M-1.5854 12.98795 1.58492 14.22429"/>
<path transform="matrix(1,0,0,-1.00003,31.677002,35.695684)" stroke-width=".49814" stroke-linecap="butt" stroke-miterlimit="10" stroke-linejoin="miter" fill="none" stroke="#409f9f" d="M-1.36092 15.98727 1.36043 18.02817"/>
<path transform="matrix(1,0,0,-1.00003,31.677002,35.695684)" stroke-width=".49814" stroke-linecap="butt" stroke-miterlimit="10" stroke-linejoin="miter" fill="none" stroke="#409f9f" d="M2.30768-21.71083 4.49495-19.10887"/>
<path transform="matrix(1,0,0,-1.00003,31.677002,35.695684)" stroke-width=".49814" stroke-linecap="butt" stroke-miterlimit="10" stroke-linejoin="miter" fill="none" stroke="#409f9f" d="M2.04063-18.02869 4.762-15.9878"/>
<path transform="matrix(1,0,0,-1.00003,31.677002,35.695684)" stroke-width=".49814" stroke-linecap="butt" stroke-miterlimit="10" stroke-linejoin="miter" fill="none" stroke="#409f9f" d="M1.81615-14.22481 4.98648-12.98845"/>
<path transform="matrix(1,0,0,-1.00003,31.677002,35.695684)" stroke-width=".49814" stroke-linecap="butt" stroke-miterlimit="10" stroke-linejoin="miter" fill="none" stroke="#409f9f" d="M1.71155-10.39034 5.09108-10.01974"/>
<path transform="matrix(1,0,0,-1.00003,31.677002,35.695684)" stroke-width=".49814" stroke-linecap="butt" stroke-miterlimit="10" stroke-linejoin="miter" fill="none" stroke="#409f9f" d="M1.70818-6.65137 5.09445-6.9555"/>
<path transform="matrix(1,0,0,-1.00003,31.677002,35.695684)" stroke-width=".49814" stroke-linecap="butt" stroke-miterlimit="10" stroke-linejoin="miter" fill="none" stroke="#409f9f" d="M1.73804-3.05254 5.06459-3.75116"/>
<path transform="matrix(1,0,0,-1.00003,31.677002,35.695684)" stroke-width=".49814" stroke-linecap="butt" stroke-miterlimit="10" stroke-linejoin="miter" fill="none" stroke="#409f9f" d="M1.75153 .41212 5.0511-.4126"/>
<path transform="matrix(1,0,0,-1.00003,31.677002,35.695684)" stroke-width=".49814" stroke-linecap="butt" stroke-miterlimit="10" stroke-linejoin="miter" fill="none" stroke="#409f9f" d="M1.73804 3.75063 5.06459 3.052"/>
<path transform="matrix(1,0,0,-1.00003,31.677002,35.695684)" stroke-width=".49814" stroke-linecap="butt" stroke-miterlimit="10" stroke-linejoin="miter" fill="none" stroke="#409f9f" d="M1.70818 6.95525 5.09445 6.6506"/>
<path transform="matrix(1,0,0,-1.00003,31.677002,35.695684)" stroke-width=".49814" stroke-linecap="butt" stroke-miterlimit="10" stroke-linejoin="miter" fill="none" stroke="#409f9f" d="M1.71155 10.01923 5.09108 10.38982"/>
<path transform="matrix(1,0,0,-1.00003,31.677002,35.695684)" stroke-width=".49814" stroke-linecap="butt" stroke-miterlimit="10" stroke-linejoin="miter" fill="none" stroke="#409f9f" d="M1.81615 12.98795 4.98648 14.22429"/>
<path transform="matrix(1,0,0,-1.00003,31.677002,35.695684)" stroke-width=".49814" stroke-linecap="butt" stroke-miterlimit="10" stroke-linejoin="miter" fill="none" stroke="#409f9f" d="M2.04063 15.98727 4.762 18.02817"/>
<path transform="matrix(1,0,0,-1.00003,31.677002,35.695684)" stroke-width=".49814" stroke-linecap="butt" stroke-miterlimit="10" stroke-linejoin="miter" fill="none" stroke="#409f9f" d="M5.70929-21.71083 7.89656-19.10887"/>
<path transform="matrix(1,0,0,-1.00003,31.677002,35.695684)" stroke-width=".49814" stroke-linecap="butt" stroke-miterlimit="10" stroke-linejoin="miter" fill="none" stroke="#409f9f" d="M5.44225-18.02869 8.1636-15.9878"/>
<path transform="matrix(1,0,0,-1.00003,31.677002,35.695684)" stroke-width=".49814" stroke-linecap="butt" stroke-miterlimit="10" stroke-linejoin="miter" fill="none" stroke="#409f9f" d="M5.21776-14.22481 8.38809-12.98845"/>
<path transform="matrix(1,0,0,-1.00003,31.677002,35.695684)" stroke-width=".49814" stroke-linecap="butt" stroke-miterlimit="10" stroke-linejoin="miter" fill="none" stroke="#409f9f" d="M5.11316-10.39034 8.49269-10.01974"/>
<path transform="matrix(1,0,0,-1.00003,31.677002,35.695684)" stroke-width=".49814" stroke-linecap="butt" stroke-miterlimit="10" stroke-linejoin="miter" fill="none" stroke="#409f9f" d="M5.10979-6.65137 8.49606-6.9555"/>
<path transform="matrix(1,0,0,-1.00003,31.677002,35.695684)" stroke-width=".49814" stroke-linecap="butt" stroke-miterlimit="10" stroke-linejoin="miter" fill="none" stroke="#409f9f" d="M5.13965-3.05254 8.4662-3.75116"/>
<path transform="matrix(1,0,0,-1.00003,31.677002,35.695684)" stroke-width=".49814" stroke-linecap="butt" stroke-miterlimit="10" stroke-linejoin="miter" fill="none" stroke="#409f9f" d="M5.15312 .41212 8.45271-.4126"/>
<path transform="matrix(1,0,0,-1.00003,31.677002,35.695684)" stroke-width=".49814" stroke-linecap="butt" stroke-miterlimit="10" stroke-linejoin="miter" fill="none" stroke="#409f9f" d="M5.13965 3.75063 8.4662 3.052"/>
<path transform="matrix(1,0,0,-1.00003,31.677002,35.695684)" stroke-width=".49814" stroke-linecap="butt" stroke-miterlimit="10" stroke-linejoin="miter" fill="none" stroke="#409f9f" d="M5.10979 6.95525 8.49606 6.6506"/>
<path transform="matrix(1,0,0,-1.00003,31.677002,35.695684)" stroke-width=".49814" stroke-linecap="butt" stroke-miterlimit="10" stroke-linejoin="miter" fill="none" stroke="#409f9f" d="M5.11316 10.01923 8.49269 10.38982"/>
<path transform="matrix(1,0,0,-1.00003,31.677002,35.695684)" stroke-width=".49814" stroke-linecap="butt" stroke-miterlimit="10" stroke-linejoin="miter" fill="none" stroke="#409f9f" d="M5.21776 12.98795 8.38809 14.22429"/>
<path transform="matrix(1,0,0,-1.00003,31.677002,35.695684)" stroke-width=".49814" stroke-linecap="butt" stroke-miterlimit="10" stroke-linejoin="miter" fill="none" stroke="#409f9f" d="M5.44225 15.98727 8.1636 18.02817"/>
<path transform="matrix(1,0,0,-1.00003,31.677002,35.695684)" stroke-width=".49814" stroke-linecap="butt" stroke-miterlimit="10" stroke-linejoin="miter" fill="none" stroke="#409f9f" d="M9.11089-21.71083 11.29814-19.10887"/>
<path transform="matrix(1,0,0,-1.00003,31.677002,35.695684)" stroke-width=".49814" stroke-linecap="butt" stroke-miterlimit="10" stroke-linejoin="miter" fill="none" stroke="#409f9f" d="M8.84384-18.02869 11.5652-15.9878"/>
<path transform="matrix(1,0,0,-1.00003,31.677002,35.695684)" stroke-width=".49814" stroke-linecap="butt" stroke-miterlimit="10" stroke-linejoin="miter" fill="none" stroke="#409f9f" d="M8.61935-14.22481 11.78969-12.98845"/>
<path transform="matrix(1,0,0,-1.00003,31.677002,35.695684)" stroke-width=".49814" stroke-linecap="butt" stroke-miterlimit="10" stroke-linejoin="miter" fill="none" stroke="#409f9f" d="M8.51476-10.39034 11.89427-10.01974"/>
<path transform="matrix(1,0,0,-1.00003,31.677002,35.695684)" stroke-width=".49814" stroke-linecap="butt" stroke-miterlimit="10" stroke-linejoin="miter" fill="none" stroke="#409f9f" d="M8.51138-6.65137 11.89766-6.9555"/>
<path transform="matrix(1,0,0,-1.00003,31.677002,35.695684)" stroke-width=".49814" stroke-linecap="butt" stroke-miterlimit="10" stroke-linejoin="miter" fill="none" stroke="#409f9f" d="M8.54124-3.05254 11.8678-3.75116"/>
<path transform="matrix(1,0,0,-1.00003,31.677002,35.695684)" stroke-width=".49814" stroke-linecap="butt" stroke-miterlimit="10" stroke-linejoin="miter" fill="none" stroke="#409f9f" d="M8.55472 .41212 11.85431-.4126"/>
<path transform="matrix(1,0,0,-1.00003,31.677002,35.695684)" stroke-width=".49814" stroke-linecap="butt" stroke-miterlimit="10" stroke-linejoin="miter" fill="none" stroke="#409f9f" d="M8.54124 3.75063 11.8678 3.052"/>
<path transform="matrix(1,0,0,-1.00003,31.677002,35.695684)" stroke-width=".49814" stroke-linecap="butt" stroke-miterlimit="10" stroke-linejoin="miter" fill="none" stroke="#409f9f" d="M8.51138 6.95525 11.89766 6.6506"/>
<path transform="matrix(1,0,0,-1.00003,31.677002,35.695684)" stroke-width=".49814" stroke-linecap="butt" stroke-miterlimit="10" stroke-linejoin="miter" fill="none" stroke="#409f9f" d="M8.51476 10.01923 11.89427 10.38982"/>
<path transform="matrix(1,0,0,-1.00003,31.677002,35.695684)" stroke-width=".49814" stroke-linecap="butt" stroke-miterlimit="10" stroke-linejoin="miter" fill="none" stroke="#409f9f" d="M8.61935 12.98795 11.78969 14.22429"/>
<path transform="matrix(1,0,0,-1.00003,31.677002,35.695684)" stroke-width=".49814" stroke-linecap="butt" stroke-miterlimit="10" stroke-linejoin="miter" fill="none" stroke="#409f9f" d="M8.84384 15.98727 11.5652 18.02817"/>
<path transform="matrix(1,0,0,-1.00003,31.677002,35.695684)" stroke-width=".49814" stroke-linecap="butt" stroke-miterlimit="10" stroke-linejoin="miter" fill="none" stroke="#409f9f" d="M12.51248-21.71083 14.69974-19.10887"/>
<path transform="matrix(1,0,0,-1.00003,31.677002,35.695684)" stroke-width=".49814" stroke-linecap="butt" stroke-miterlimit="10" stroke-linejoin="miter" fill="none" stroke="#409f9f" d="M12.24542-18.02869 14.9668-15.9878"/>
<path transform="matrix(1,0,0,-1.00003,31.677002,35.695684)" stroke-width=".49814" stroke-linecap="butt" stroke-miterlimit="10" stroke-linejoin="miter" fill="none" stroke="#409f9f" d="M12.02094-14.22481 15.19128-12.98845"/>
<path transform="matrix(1,0,0,-1.00003,31.677002,35.695684)" stroke-width=".49814" stroke-linecap="butt" stroke-miterlimit="10" stroke-linejoin="miter" fill="none" stroke="#409f9f" d="M11.91635-10.39034 15.29587-10.01974"/>
<path transform="matrix(1,0,0,-1.00003,31.677002,35.695684)" stroke-width=".49814" stroke-linecap="butt" stroke-miterlimit="10" stroke-linejoin="miter" fill="none" stroke="#409f9f" d="M11.91298-6.65137 15.29926-6.9555"/>
<path transform="matrix(1,0,0,-1.00003,31.677002,35.695684)" stroke-width=".49814" stroke-linecap="butt" stroke-miterlimit="10" stroke-linejoin="miter" fill="none" stroke="#409f9f" d="M11.94284-3.05254 15.2694-3.75116"/>
<path transform="matrix(1,0,0,-1.00003,31.677002,35.695684)" stroke-width=".49814" stroke-linecap="butt" stroke-miterlimit="10" stroke-linejoin="miter" fill="none" stroke="#409f9f" d="M11.95631 .41212 15.2559-.4126"/>
<path transform="matrix(1,0,0,-1.00003,31.677002,35.695684)" stroke-width=".49814" stroke-linecap="butt" stroke-miterlimit="10" stroke-linejoin="miter" fill="none" stroke="#409f9f" d="M11.94284 3.75063 15.2694 3.052"/>
<path transform="matrix(1,0,0,-1.00003,31.677002,35.695684)" stroke-width=".49814" stroke-linecap="butt" stroke-miterlimit="10" stroke-linejoin="miter" fill="none" stroke="#409f9f" d="M11.91298 6.95525 15.29926 6.6506"/>
<path transform="matrix(1,0,0,-1.00003,31.677002,35.695684)" stroke-width=".49814" stroke-linecap="butt" stroke-miterlimit="10" stroke-linejoin="miter" fill="none" stroke="#409f9f" d="M11.91635 10.01923 15.29587 10.38982"/>
<path transform="matrix(1,0,0,-1.00003,31.677002,35.695684)" stroke-width=".49814" stroke-linecap="butt" stroke-miterlimit="10" stroke-linejoin="miter" fill="none" stroke="#409f9f" d="M12.02094 12.98795 15.19128 14.22429"/>
<path transform="matrix(1,0,0,-1.00003,31.677002,35.695684)" stroke-width=".49814" stroke-linecap="butt" stroke-miterlimit="10" stroke-linejoin="miter" fill="none" stroke="#409f9f" d="M12.24542 15.98727 14.9668 18.02817"/>
<path transform="matrix(1,0,0,-1.00003,31.677002,35.695684)" stroke-width=".49814" stroke-linecap="butt" stroke-miterlimit="10" stroke-linejoin="miter" fill="none" stroke="#409f9f" d="M15.9141-21.71083 18.10135-19.10887"/>
<path transform="matrix(1,0,0,-1.00003,31.677002,35.695684)" stroke-width=".49814" stroke-linecap="butt" stroke-miterlimit="10" stroke-linejoin="miter" fill="none" stroke="#409f9f" d="M15.64703-18.02869 18.36841-15.9878"/>
<path transform="matrix(1,0,0,-1.00003,31.677002,35.695684)" stroke-width=".49814" stroke-linecap="butt" stroke-miterlimit="10" stroke-linejoin="miter" fill="none" stroke="#409f9f" d="M15.42255-14.22481 18.5929-12.98845"/>
<path transform="matrix(1,0,0,-1.00003,31.677002,35.695684)" stroke-width=".49814" stroke-linecap="butt" stroke-miterlimit="10" stroke-linejoin="miter" fill="none" stroke="#409f9f" d="M15.31796-10.39034 18.69748-10.01974"/>
<path transform="matrix(1,0,0,-1.00003,31.677002,35.695684)" stroke-width=".49814" stroke-linecap="butt" stroke-miterlimit="10" stroke-linejoin="miter" fill="none" stroke="#409f9f" d="M15.31459-6.65137 18.70085-6.9555"/>
<path transform="matrix(1,0,0,-1.00003,31.677002,35.695684)" stroke-width=".49814" stroke-linecap="butt" stroke-miterlimit="10" stroke-linejoin="miter" fill="none" stroke="#409f9f" d="M15.34444-3.05254 18.671-3.75116"/>
<path transform="matrix(1,0,0,-1.00003,31.677002,35.695684)" stroke-width=".49814" stroke-linecap="butt" stroke-miterlimit="10" stroke-linejoin="miter" fill="none" stroke="#409f9f" d="M15.35793 .41212 18.65752-.4126"/>
<path transform="matrix(1,0,0,-1.00003,31.677002,35.695684)" stroke-width=".49814" stroke-linecap="butt" stroke-miterlimit="10" stroke-linejoin="miter" fill="none" stroke="#409f9f" d="M15.34444 3.75063 18.671 3.052"/>
<path transform="matrix(1,0,0,-1.00003,31.677002,35.695684)" stroke-width=".49814" stroke-linecap="butt" stroke-miterlimit="10" stroke-linejoin="miter" fill="none" stroke="#409f9f" d="M15.31459 6.95525 18.70085 6.6506"/>
<path transform="matrix(1,0,0,-1.00003,31.677002,35.695684)" stroke-width=".49814" stroke-linecap="butt" stroke-miterlimit="10" stroke-linejoin="miter" fill="none" stroke="#409f9f" d="M15.31796 10.01923 18.69748 10.38982"/>
<path transform="matrix(1,0,0,-1.00003,31.677002,35.695684)" stroke-width=".49814" stroke-linecap="butt" stroke-miterlimit="10" stroke-linejoin="miter" fill="none" stroke="#409f9f" d="M15.42255 12.98795 18.5929 14.22429"/>
<path transform="matrix(1,0,0,-1.00003,31.677002,35.695684)" stroke-width=".49814" stroke-linecap="butt" stroke-miterlimit="10" stroke-linejoin="miter" fill="none" stroke="#409f9f" d="M15.64703 15.98727 18.36841 18.02817"/>
</svg>
