<svg xmlns="http://www.w3.org/2000/svg" xmlns:xlink="http://www.w3.org/1999/xlink" version="1.1" width="210" height="193" viewBox="0 0 210 193">
<defs>
<path id="font_1_2" d="M.42799378 .45222474 .43899537 .49023438H.31199647L.34599305 .6092224 .33399964 .6162262 .23699951 .53923037 .22399903 .49023438H.14299011L.13198853 .45222474H.21499634L.125 .08627319C.10998535 .029266358 .12199402-.01171875 .17199707-.01171875 .2519989-.01171875 .31599427 .054275514 .35598756 .1292572L.33399964 .1462555C.31098939 .10726929 .2599945 .040267946 .22898865 .040267946 .20799256 .040267946 .20799256 .0632782 .21398926 .088272098L.30299378 .45222474H.42799378Z"/>
<path id="font_1_3" d="M.070999149 .45393373 .07398987 .42893983 .14199829 .43093873C.1639862 .43193055 .16899109 .41493226 .1769867 .36291505 .18798828 .28489686 .20999146 .09286499 .20999146 .0128479 .20999146-.017166138 .20799256-.058166505 .18598938-.11117554 .16799927-.15318299 .14199829-.18218994 .12199402-.18218994 .10699463-.18218994 .09599304-.17118836 .08099365-.15118408 .068984989-.13517761 .06098938-.127182 .04598999-.127182 .019989014-.12818909-.005004883-.15818787-.005004883-.18719483-.005004883-.21418762 .023986817-.2421875 .067993167-.2421875 .15299988-.2421875 .18998719-.17919922 .27799989-.027160645 .2979889 .0068511965 .35798646 .11286926 .41999818 .21488953 .47698976 .30891419 .5399933 .40592958 .5399933 .4459381 .5399933 .48094178 .5289917 .5019531 .5219879 .5019531 .5029907 .5019531 .46899415 .49394227 .44400025 .47694398 .44499208 .4419403 .44299317 .3809204 .43099977 .33891297 .4149933 .28289796 .35598756 .17488098 .2899933 .06085205H.2869873C.27999879 .21388245 .26098634 .42492677 .24699402 .49795533L.23899842 .5019531 .070999149 .45393373Z"/>
<path id="font_2_1" d="M.1749878 .2822113C.1749878 .56832888 .2619934 .65437319 .32499696 .66737368V.6923828C.1499939 .685379 .10499573 .46829225 .10499573 .2822113 .10499573 .09614563 .1499939-.12094116 .32499696-.12792969V-.10293579C.2669983-.090927127 .1749878-.0059051516 .1749878 .2822113Z"/>
<path id="font_2_2" d="M.1749878 .2822113C.1749878-.0059051516 .08299255-.090927127 .024993897-.10293579V-.12792969C.19999695-.12094116 .24499512 .09614563 .24499512 .2822113 .24499512 .46829225 .19999695 .685379 .024993897 .6923828V.66737368C.08799744 .65437319 .1749878 .56832888 .1749878 .2822113Z"/>
<path id="font_2_3" d="M.069992069-.140625C.11999512-.09362793 .19299317-.027633667 .19299317 .051361085 .19299317 .10636902 .1599884 .1423645 .125 .14137268 .09399414 .14137268 .07598877 .117370609 .07598877 .09136963 .07598877 .055374147 .10899353 .037368776 .10899353-.005630493 .10899353-.04663086 .08299255-.086639408 .050994874-.12162781L.069992069-.140625Z"/>
<path id="font_3_4" d="M.084991458 .31092835V.2529297H.33099366V.0068359377H.3889923V.2529297H.6349945V.31092835H.3889923V.5566406H.33099366V.31092835H.084991458Z"/>
<path id="font_1_1" d="M.35198976 .7371979 .34700013 .7421875 .16699219 .71824648 .16099549 .6953125 .21798706 .68829348C.24299622 .6852875 .24699402 .67826846 .23799134 .63920596L.09199524-.01171875 .1789856 .0002746582C.20599365 .10221863 .22099304 .15718079 .24598694 .22012329 .27598573 .2980652 .375 .44995118 .46199037 .44995118 .49398805 .44995118 .5059967 .42097474 .49398805 .38000489L.4119873 .096221927C.3929901 .030273438 .40699769-.01171875 .46398927-.01171875 .5329895-.01171875 .58898928 .056259157 .6230011 .13220215L.598999 .14619446C.58099368 .11122131 .5369873 .040267946 .5089874 .040267946 .4889984 .040267946 .4889984 .06324768 .49899293 .0952301L.5779877 .35702516C.60198977 .43595887 .58898928 .5019531 .5079956 .5019531 .41299439 .5019531 .30699159 .39898683 .24299622 .27908326H.23999024L.35198976 .7371979Z"/>
<path id="font_2_4" d="M.05999756 .045333864C.10398865 .004348755 .18699646-.0146484379 .25698854-.0146484379 .43399049-.0146484379 .5039978 .08631897 .5039978 .18826294 .5039978 .30619813 .42399598 .36218263 .30699159 .40515138L.2749939 .41714479C.20799256 .44213868 .1519928 .48512269 .1519928 .5450897 .1519928 .61805728 .19599915 .6720276 .27999879 .6720276 .3659973 .6720276 .4139862 .6230469 .42999269 .5220947H.46099855V.6630249C.4269867 .6900177 .35899354 .70703127 .29100038 .70703127 .16899109 .70703127 .06098938 .64604189 .06098938 .5140991 .06098938 .40914918 .14498902 .354187 .25 .3171997L.2679901 .31019593C.31199647 .2932129 .40699769 .24723816 .40699769 .15827942 .40699769 .0723114 .35198976 .020339966 .2630005 .020339966 .16899109 .020339966 .10699463 .093307498 .08198547 .20524597H.049987794L.05999756 .045333864Z"/>
<path id="font_2_7" d="M.44099427 .2627716C.46199037 .2627716 .48098756 .2677765 .48098756 .30078126 .48098756 .35983277 .46199037 .5019531 .2789917 .5019531 .12298584 .5019531 .04899597 .39086915 .04899597 .24082947 .04899597 .08317566 .116989139-.01373291 .27999879-.01171875 .3909912-.010726929 .44799806 .050247194 .47499085 .1290741L.44499208 .14503479C.4169922 .08717346 .3789978 .039276124 .2999878 .039276124 .17599488 .039276124 .15098572 .15901184 .15299988 .2627716H.44099427M.1539917 .30078126C.1539917 .34181214 .16899109 .46694947 .272995 .46694947 .3659973 .46694947 .3769989 .37184144 .3769989 .33280946 .3769989 .31378175 .37098695 .30078126 .34298707 .30078126H.1539917Z"/>
<path id="font_2_6" d="M.2999878 .040267946C.18099976 .040267946 .15299988 .16418457 .15299988 .25810243 .15299988 .40699769 .21199036 .46694947 .2809906 .46694947 .32699586 .46694947 .35598756 .43397523 .37599183 .38000489 .38198854 .36402894 .3880005 .35403443 .40699769 .35403443 .4269867 .35403443 .46598817 .36701966 .46598817 .40499879 .46598817 .45095826 .3999939 .5019531 .2919922 .5019531 .10998535 .5019531 .04899597 .37301637 .04899597 .2401123 .04899597 .07324219 .1309967-.01171875 .2809906-.01171875 .35099793-.01171875 .44499208 .025268555 .47299195 .13220215L.44400025 .14619446C.41299439 .07624817 .37298585 .040267946 .2999878 .040267946Z"/>
<path id="font_2_5" d="M.34298707 .14318848C.34298707 .06225586 .2809906 .041275026 .24198914 .041275026 .17999268 .041275026 .1499939 .085235599 .1499939 .14419556 .1499939 .19116211 .17199707 .21513367 .22799683 .23612976 .2679901 .2511139 .32099916 .27009584 .34298707 .28408814V.14318848M.43299867 .36901856C.43299867 .42697145 .41999818 .5019531 .2689972 .5019531 .1559906 .5019531 .066986087 .44296266 .066986087 .3880005 .066986087 .35603334 .10398865 .3410492 .12298584 .3410492 .14399719 .3410492 .1499939 .35203553 .15499878 .36901856 .1769867 .44296266 .21798706 .46694947 .2579956 .46694947 .29699708 .46694947 .34298707 .44696046 .34298707 .36701966V.32505799C.31799317 .29907228 .22099304 .27409364 .14199829 .24911499 .069992069 .22712708 .04899597 .1771698 .04899597 .13020325 .04899597 .055267335 .09899902-.01171875 .19299317-.01171875 .25498963-.009719849 .30999757 .027267456 .34199525 .04826355 .35598756 .011276245 .37199403-.01171875 .40699769-.01171875 .44400025-.01171875 .4869995-.0007324219 .5249939 .01828003L.5189972 .042266847C.5049896 .039276124 .48298646 .03727722 .46798707 .041275026 .44999696 .045272829 .43299867 .06425476 .43299867 .12721253V.36901856Z"/>
<path id="font_2_8" d="M.5289917 .34295655C.5289917 .4439392 .47399903 .5019531 .38198854 .5019531 .30799867 .5019531 .2619934 .46594239 .19999695 .4259491L.18598938 .5019531 .036987306 .47694398V.45195008L.07499695 .4469452C.100997928 .4429474 .10699463 .4379425 .10699463 .40194703V.08699036C.10699463 .035995485 .10398865 .033996583 .03199768 .0289917V0H.27598573V.0289917C.20498657 .033996583 .20098877 .035995485 .20098877 .08699036V.32095338C.20098877 .34596253 .20298767 .35995484 .21099854 .37594605 .23199463 .4149475 .2769928 .44795228 .32998658 .44795228 .397995 .44795228 .43499757 .40994264 .43499757 .32295228V.08699036C.43499757 .035995485 .43199159 .033996583 .3600006 .0289917V0H.60398867V.0289917C.5329895 .033996583 .5289917 .035995485 .5289917 .08699036V.34295655Z"/>
<path id="font_2_9" d="M.32598878 .45022584V.49023438H.19699097V.6162262H.16799927L.10699463 .49023438H.0309906V.45022584H.102996829V.102264408C.102996829 .0002746582 .1789856-.01171875 .21398926-.01171875 .2649994-.01171875 .31298829 .014266968 .34199525 .03227234L.33399964 .053268434C.30999757 .043273927 .28799439 .040267946 .2630005 .040267946 .22898865 .040267946 .19699097 .06427002 .19699097 .14025879V.45022584H.32598878Z"/>
<path id="font_4_1" d="M.673996 0 .3899994 .6933594H.31599427L.04399109 0H.673996M.5469971 .053985597H.10499573L.31999208 .6013031 .5469971 .053985597Z"/>
<path id="font_3_1" d="M.2769928 .50541689C.2829895 .5204315 .28399659 .5294342 .28399659 .53344729 .28399659 .5544586 .2539978 .56347659 .22299195 .56347659 .19299317 .56347659 .1619873 .5544586 .15899658 .53944399L.053985597 .05303955C.053985597 .046035768 .067993167 .040039064 .07998657 .040039064 .08799744 .040039064 .09599304 .043029787 .09799194 .048034669L.2769928 .50541689Z"/>
<path id="font_3_3" d="M.5269928 .30897523C.6069946 .30897523 .6230011 .3840332 .6329956 .43621827L.6380005 .45822145 .61299136 .47122193C.59498599 .42321778 .56599429 .37597657 .5299988 .37597657 .45799256 .37597657 .28599549 .47721864 .18899536 .47721864 .13798523 .47721864 .09199524 .37799073 .085998538 .32696534L.11099243 .31497193C.13198853 .36297608 .16099549 .40722657 .19599915 .40722657 .2630005 .40722657 .42900086 .30897523 .5269928 .30897523M.5269928 .087890628C.6069946 .087890628 .6230011 .16287232 .6329956 .21485901L.6380005 .23684693 .61299136 .24984741C.59498599 .20185852 .56599429 .15487671 .5299988 .15487671 .45799256 .15487671 .28599549 .25585938 .18899536 .25585938 .13798523 .25585938 .09199524 .15687561 .085998538 .10588074L.11099243 .09388733C.13198853 .14187622 .16099549 .18585205 .19599915 .18585205 .2630005 .18585205 .42900086 .087890628 .5269928 .087890628Z"/>
<path id="font_3_2" d="M.6349945 .2529297V.31092835H.084991458V.2529297H.6349945Z"/>
</defs>
<path transform="matrix(1.00003,0,0,-1,29.638878,134.875)" stroke-width=".3985" stroke-linecap="butt" stroke-miterlimit="10" stroke-linejoin="miter" fill="none" stroke="#000000" d="M-28.34679 0H158.284"/>
<path transform="matrix(1.00003,0,0,-1,187.92765,134.875)" stroke-width=".31879" stroke-linecap="round" stroke-linejoin="round" fill="none" stroke="#000000" d="M-1.19551 1.59401C-1.09587 .99626 0 .09961 .29886 0 0-.09961-1.09587-.99626-1.19551-1.59401"/>
<use data-text="t" xlink:href="#font_1_2" transform="matrix(10.036701,0,0,-10.0364,192.00275,137.924)"/>
<path transform="matrix(1.00003,0,0,-1,29.638878,134.875)" stroke-width=".3985" stroke-linecap="butt" stroke-miterlimit="10" stroke-linejoin="miter" fill="none" stroke="#000000" d="M0-56.69362V107.25922"/>
<path transform="matrix(0,-1,-1.00003,-0,29.638878,27.615784)" stroke-width=".31879" stroke-linecap="round" stroke-linejoin="round" fill="none" stroke="#000000" d="M-1.19551 1.59401C-1.09587 .99626 0 .09961 .29886 0 0-.09961-1.09587-.99626-1.19551-1.59401"/>
<use data-text="y" xlink:href="#font_1_3" transform="matrix(10.036701,0,0,-10.0364,27.102799,21.293)"/>
<path transform="matrix(1.00003,0,0,-1,29.638878,134.875)" stroke-width=".79701" stroke-linecap="butt" stroke-miterlimit="10" stroke-linejoin="miter" fill="none" stroke="#0000ff" d="M-28.34679-50.0429C-28.34679-50.0429-22.71469-41.98892-20.55157-38.49757-18.38846-35.00623-14.91953-28.84933-12.7564-24.87955-10.59328-20.90976-7.12431-14.1236-4.96118-9.88605-2.79807-5.6485 .67085 1.39171 2.83397 5.66191 4.9971 9.93211 8.46603 16.82588 10.62915 20.8907 12.79228 24.95554 16.26125 31.31764 18.42436 34.95856 20.58748 38.59946 24.05646 44.09619 26.21957 47.1319 28.38269 50.16762 31.85164 54.53581 34.01476 56.83806 36.17787 59.1403 39.64685 62.22253 41.80997 63.72493 43.97308 65.22731 47.44205 66.96648 49.60518 67.66621 51.7683 68.36597 55.23723 68.8161 57.40034 68.76833 59.56348 68.72057 63.03244 68.01842 65.19556 67.32193 67.35869 66.62543 70.82765 64.96538 72.99077 63.7483 75.15388 62.53123 78.62283 60.14221 80.78595 58.55005 82.94907 56.95789 86.41805 54.09195 88.58116 52.27306 90.74428 50.45418 94.21326 47.35054 96.37637 45.44069 98.53949 43.53082 102.00842 40.39384 104.17155 38.50797 106.33467 36.6221 109.80363 33.62154 111.96677 31.84862 114.12988 30.07571 117.59885 27.33443 119.76196 25.72992 121.9251 24.12541 125.39403 21.6833 127.55714 20.28427 129.72026 18.88522 133.18924 16.82454 135.35236 15.64659 137.51548 14.46866 140.98445 12.75932 143.14757 11.79442 145.31069 10.82951 148.77964 9.45695 150.94275 8.69228 153.10587 7.92758 158.73796 6.28304 158.73796 6.28304"/>
<use data-text="y" xlink:href="#font_1_3" transform="matrix(10.036701,0,0,-10.0364,192.52577,130.91)" fill="#0000ff"/>
<use data-text="(" xlink:href="#font_2_1" transform="matrix(10.036701,0,0,-10.0364,198.14395,130.91)" fill="#0000ff"/>
<use data-text="t" xlink:href="#font_1_2" transform="matrix(10.036701,0,0,-10.0364,201.87506,130.91)" fill="#0000ff"/>
<use data-text=")" xlink:href="#font_2_2" transform="matrix(10.036701,0,0,-10.0364,206.3692,130.91)" fill="#0000ff"/>
<path transform="matrix(1.00003,0,0,-1,29.638878,134.875)" d="M57.6899 68.78563C57.6899 69.33586 57.24385 69.7819 56.69362 69.7819 56.14337 69.7819 55.69734 69.33586 55.69734 68.78563 55.69734 68.2354 56.14337 67.78935 56.69362 67.78935 57.24385 67.78935 57.6899 68.2354 57.6899 68.78563ZM56.69362 68.78563"/>
<path transform="matrix(1.00003,0,0,-1,29.638878,134.875)" stroke-width=".3985" stroke-linecap="butt" stroke-miterlimit="10" stroke-linejoin="miter" fill="none" stroke="#000000" d="M57.6899 68.78563C57.6899 69.33586 57.24385 69.7819 56.69362 69.7819 56.14337 69.7819 55.69734 69.33586 55.69734 68.78563 55.69734 68.2354 56.14337 67.78935 56.69362 67.78935 57.24385 67.78935 57.6899 68.2354 57.6899 68.78563ZM56.69362 68.78563"/>
<use data-text="(" xlink:href="#font_2_1" transform="matrix(10.036701,0,0,-10.0364,47.307409,76.59)"/>
<use data-text="t" xlink:href="#font_1_2" transform="matrix(10.036701,0,0,-10.0364,51.038518,76.59)"/>
<use data-text="," xlink:href="#font_2_3" transform="matrix(10.036701,0,0,-10.0364,55.533658,76.59)"/>
<use data-text="y" xlink:href="#font_1_3" transform="matrix(10.036701,0,0,-10.0364,62.065855,76.59)"/>
<use data-text="(" xlink:href="#font_2_1" transform="matrix(10.036701,0,0,-10.0364,67.68402,76.59)"/>
<use data-text="t" xlink:href="#font_1_2" transform="matrix(10.036701,0,0,-10.0364,71.41513,76.59)"/>
<use data-text=")" xlink:href="#font_2_2" transform="matrix(10.036701,0,0,-10.0364,75.90927,76.59)"/>
<use data-text=")" xlink:href="#font_2_2" transform="matrix(10.036701,0,0,-10.0364,79.42212,76.59)"/>
<path transform="matrix(1.00003,0,0,-1,29.638878,134.875)" d="M86.03668 119.71265C86.03668 120.2629 85.59064 120.70892 85.0404 120.70892 84.49017 120.70892 84.04413 120.2629 84.04413 119.71265 84.04413 119.16241 84.49017 118.71637 85.0404 118.71637 85.59064 118.71637 86.03668 119.16241 86.03668 119.71265ZM85.0404 119.71265"/>
<path transform="matrix(1.00003,0,0,-1,29.638878,134.875)" stroke-width=".3985" stroke-linecap="butt" stroke-miterlimit="10" stroke-linejoin="miter" fill="none" stroke="#000000" d="M86.03668 119.71265C86.03668 120.2629 85.59064 120.70892 85.0404 120.70892 84.49017 120.70892 84.04413 120.2629 84.04413 119.71265 84.04413 119.16241 84.49017 118.71637 85.0404 118.71637 85.59064 118.71637 86.03668 119.16241 86.03668 119.71265ZM85.0404 119.71265"/>
<use data-text="(" xlink:href="#font_2_1" transform="matrix(10.036701,0,0,-10.0364,118.080539,9.2979969)"/>
<use data-text="t" xlink:href="#font_1_2" transform="matrix(10.036701,0,0,-10.0364,121.811649,9.2979969)"/>
<use data-text="+" xlink:href="#font_3_4" transform="matrix(10.036701,0,0,-10.0364,127.639827,9.2979969)"/>
<use data-text="h" xlink:href="#font_1_1" transform="matrix(10.036701,0,0,-10.0364,136.19509,9.2979969)"/>
<use data-text="," xlink:href="#font_2_3" transform="matrix(10.036701,0,0,-10.0364,142.82828,9.2979969)"/>
<use data-text="y" xlink:href="#font_1_3" transform="matrix(10.036701,0,0,-10.0364,149.36048,9.2979969)"/>
<use data-text="(" xlink:href="#font_2_1" transform="matrix(10.036701,0,0,-10.0364,154.97864,9.2979969)"/>
<use data-text="t" xlink:href="#font_1_2" transform="matrix(10.036701,0,0,-10.0364,158.70975,9.2979969)"/>
<use data-text="+" xlink:href="#font_3_4" transform="matrix(10.036701,0,0,-10.0364,164.53794,9.2979969)"/>
<use data-text="h" xlink:href="#font_1_1" transform="matrix(10.036701,0,0,-10.0364,173.0932,9.2979969)"/>
<use data-text=")" xlink:href="#font_2_2" transform="matrix(10.036701,0,0,-10.0364,179.72641,9.2979969)"/>
<use data-text=")" xlink:href="#font_2_2" transform="matrix(10.036701,0,0,-10.0364,183.23926,9.2979969)"/>
<path transform="matrix(1.00003,0,0,-1,29.638878,134.875)" stroke-width=".79701" stroke-linecap="butt" stroke-dasharray="2.98883,2.98883" stroke-miterlimit="10" stroke-linejoin="miter" fill="none" stroke="#cc0000" d="M56.69362 68.78563 85.0404 119.71265"/>
<use data-text="S" xlink:href="#font_2_4" transform="matrix(9.165875,0,0,-9.1656,104.10611,50.71)" fill="#cc0000"/>
<use data-text="e" xlink:href="#font_2_7" transform="matrix(9.165875,0,0,-9.1656,108.96402,50.71)" fill="#cc0000"/>
<use data-text="c" xlink:href="#font_2_6" transform="matrix(9.165875,0,0,-9.1656,113.67528,50.71)" fill="#cc0000"/>
<use data-text="a" xlink:href="#font_2_5" transform="matrix(9.165875,0,0,-9.1656,118.22155,50.71)" fill="#cc0000"/>
<use data-text="n" xlink:href="#font_2_8" transform="matrix(9.165875,0,0,-9.1656,123.00614,50.71)" fill="#cc0000"/>
<use data-text="t" xlink:href="#font_2_9" transform="matrix(9.165875,0,0,-9.1656,128.67981,50.71)" fill="#cc0000"/>
<path transform="matrix(1.00003,0,0,-1,29.638878,134.875)" stroke-width=".79701" stroke-linecap="butt" stroke-miterlimit="10" stroke-linejoin="miter" fill="none" stroke="#000000" d="M56.69362 0C57.29135-1.19554 58.68617-1.99255 60.67873-1.99255H66.8819C68.87445-1.99255 70.26927-2.78955 70.867-3.9851 71.46475-2.78955 72.85956-1.99255 74.85211-1.99255H81.0553C83.04785-1.99255 84.44266-1.19554 85.0404 0"/>
<use data-text="h" xlink:href="#font_1_1" transform="matrix(10.036701,0,0,-10.0364,97.19191,151.951)"/>
<path transform="matrix(1.00003,0,0,-1,29.638878,134.875)" stroke-width=".79701" stroke-linecap="butt" stroke-miterlimit="10" stroke-linejoin="miter" fill="none" stroke="#000000" d="M85.0404 68.78563C83.84486 69.38338 83.04785 70.77818 83.04785 72.77074V90.26404C83.04785 92.25659 82.25084 93.6514 81.0553 94.24915 82.25084 94.84688 83.04785 96.2417 83.04785 98.23425V115.72754C83.04785 117.7201 83.84486 119.11491 85.0404 119.71265"/>
<use data-text="&#x2206;" xlink:href="#font_4_1" transform="matrix(10.036701,0,0,-10.0364,124.25772,42.903)"/>
<use data-text="y" xlink:href="#font_1_3" transform="matrix(10.036701,0,0,-10.0364,131.95996,42.903)"/>
<use data-text="y" xlink:href="#font_1_3" transform="matrix(9.165875,0,0,-9.1656,39.94019,70.183)"/>
<use data-text="&#x2032;" xlink:href="#font_3_1" transform="matrix(6.9661095,0,0,-6.9659,45.07134,66.069)"/>
<use data-text="(" xlink:href="#font_2_1" transform="matrix(9.165875,0,0,-9.1656,47.621419,70.183)"/>
<use data-text="t" xlink:href="#font_1_2" transform="matrix(9.165875,0,0,-9.1656,51.028516,70.183)"/>
<use data-text=")" xlink:href="#font_2_2" transform="matrix(9.165875,0,0,-9.1656,55.13364,70.183)"/>
<use data-text="&#x2248;" xlink:href="#font_3_3" transform="matrix(9.165875,0,0,-9.1656,60.046796,70.183)"/>
<use data-text="y" xlink:href="#font_1_3" transform="matrix(9.165875,0,0,-9.1656,70.040088,63.437997)"/>
<use data-text="(" xlink:href="#font_2_1" transform="matrix(9.165875,0,0,-9.1656,75.17125,63.437997)"/>
<use data-text="t" xlink:href="#font_1_2" transform="matrix(9.165875,0,0,-9.1656,78.57834,63.437997)"/>
<use data-text="+" xlink:href="#font_3_4" transform="matrix(9.165875,0,0,-9.1656,83.90051,63.437997)"/>
<use data-text="h" xlink:href="#font_1_1" transform="matrix(9.165875,0,0,-9.1656,91.713748,63.437997)"/>
<use data-text=")" xlink:href="#font_2_2" transform="matrix(9.165875,0,0,-9.1656,97.77193,63.437997)"/>
<use data-text="&#x2212;" xlink:href="#font_3_2" transform="matrix(9.165875,0,0,-9.1656,102.19707,63.437997)"/>
<use data-text="y" xlink:href="#font_1_3" transform="matrix(9.165875,0,0,-9.1656,110.508319,63.437997)"/>
<use data-text="(" xlink:href="#font_2_1" transform="matrix(9.165875,0,0,-9.1656,115.639469,63.437997)"/>
<use data-text="t" xlink:href="#font_1_2" transform="matrix(9.165875,0,0,-9.1656,119.04657,63.437997)"/>
<use data-text=")" xlink:href="#font_2_2" transform="matrix(9.165875,0,0,-9.1656,123.15169,63.437997)"/>
<path transform="matrix(1.00003,0,0,-1,-56.198705,-51.692)" stroke-width=".5316" stroke-linecap="butt" stroke-miterlimit="10" stroke-linejoin="miter" fill="none" stroke="#000000" d="M125.737-119.295H182.553"/>
<use data-text="h" xlink:href="#font_1_1" transform="matrix(9.165875,0,0,-9.1656,94.921848,77.017)"/>
</svg>
