<svg xmlns="http://www.w3.org/2000/svg" xmlns:xlink="http://www.w3.org/1999/xlink" version="1.1" width="197" height="169" viewBox="0 0 197 169">
<defs>
<path id="font_1_3" d="M.6349945 .2529297V.31092835H.084991458V.2529297H.6349945Z"/>
<path id="font_2_4" d="M.12998963 .3657837C.12998963 .3487854 .1349945 .33779908 .147995 .33779908 .1599884 .33779908 .18699646 .34777833 .23498535 .34777833 .31999208 .34777833 .36799623 .27090455 .36799623 .18403626 .36799623 .065216068 .30899049 .023269654 .23799134 .023269654 .17199707 .023269654 .1289978 .07319641 .10998535 .12911988 .10398865 .14808655 .09399414 .15707398 .07998657 .15707398 .06199646 .15707398 .026992798 .13809204 .026992798 .10215759 .026992798 .05921936 .09599304-.01171875 .23699951-.01171875 .38198854-.01171875 .47299195 .06121826 .47299195 .18902588 .47299195 .32281495 .35798646 .3627777 .30299378 .3677826V.3717804C.35699464 .38078309 .44400025 .4207611 .44400025 .5197296 .44400025 .6306915 .35699464 .6796875 .25 .6796875 .117996219 .6796875 .052993776 .60369876 .052993776 .5607147 .052993776 .5297241 .08799744 .51272585 .101989749 .51272585 .114990238 .51272585 .12298584 .5197296 .1269989 .5327301 .14898682 .60069277 .18699646 .64468386 .24299622 .64468386 .32199098 .64468386 .34098817 .57470706 .34098817 .51872256 .34098817 .4587555 .31999208 .38378907 .23498535 .38378907 .18699646 .38378907 .1599884 .39378358 .147995 .39378358 .1349945 .39378358 .12998963 .38378907 .12998963 .3657837Z"/>
<path id="font_2_3" d="M.4850006 .13195801 .45700074 .13696289C.43598939 .08299255 .41600038 .07598877 .37599183 .07598877H.11999512C.13598633 .1279602 .19499207 .19892884 .28799439 .2658844 .38398744 .33584596 .45799256 .38082887 .45799256 .49276734 .45799256 .63168337 .3659973 .6796875 .26098634 .6796875 .12399292 .6796875 .052993776 .5967102 .052993776 .54473879 .052993776 .51075747 .09098816 .49476625 .10798645 .49476625 .12599182 .49476625 .1329956 .50476077 .13699341 .5217438 .15299988 .5897064 .19198609 .64468386 .2539978 .64468386 .33099366 .64468386 .35299684 .5797119 .35299684 .50675967 .35299684 .3998108 .29899598 .33984376 .21199036 .26289369 .08898926 .15594483 .04598999 .08798218 .026992798 .009994507L.036987306 0H.45098878L.4850006 .13195801Z"/>
<path id="font_2_2" d="M.43699647 0V.0289917L.35299684 .035995485C.33198548 .037994386 .31999208 .04598999 .31999208 .08496094V.67367556L.31498719 .6796875 .10899353 .6446991V.6197052L.20199585 .6087036C.21899414 .6067047 .22599793 .5987091 .22599793 .56973269V.08496094C.22599793 .065979007 .22299195 .053985597 .21699524 .04698181 .21199036 .039993287 .20399475 .036987306 .19299317 .035995485L.10899353 .0289917V0H.43699647Z"/>
<path id="font_2_5" d="M.42599488 .5919647 .44999696 .6599579 .44499208 .66796877H.11099243L.100997928 .65896609 .08099365 .32388307 .10499573 .31188966C.14698792 .35983277 .18798828 .3828125 .24198914 .3828125 .30599977 .3828125 .37599183 .3358612 .37599183 .20404053 .37599183 .10116577 .33399964 .023269654 .24699402 .023269654 .1769867 .023269654 .14099121 .07420349 .12098694 .13113404 .115997318 .14611817 .10699463 .15510559 .09298706 .15510559 .07299805 .15510559 .039993287 .13513184 .039993287 .10217285 .039993287 .056228639 .10998535-.01171875 .23999024-.01171875 .40499879-.01171875 .47999574 .0881958 .47999574 .21502686 .47999574 .35484315 .3919983 .4268036 .272995 .4268036 .21798706 .4268036 .15899658 .4028015 .1269989 .3738098L.125 .37580873 .147995 .56292727C.15098572 .58795168 .1579895 .5919647 .1769867 .5919647H.42599488Z"/>
<path id="font_2_1" d="M.2649994 .64468386C.3600006 .64468386 .3869934 .49682618 .3869934 .33398438 .3869934 .17112732 .3600006 .023269654 .2649994 .023269654 .16999817 .023269654 .14299011 .17112732 .14299011 .33398438 .14299011 .49682618 .16999817 .64468386 .2649994 .64468386M.2649994 .6796875C.099990848 .6796875 .040985109 .53378298 .040985109 .33398438 .040985109 .13417053 .099990848-.01171875 .2649994-.01171875 .42999269-.01171875 .4889984 .13417053 .4889984 .33398438 .4889984 .53378298 .42999269 .6796875 .2649994 .6796875Z"/>
<clipPath id="clip_3">
<path transform="matrix(1.00002,0,0,-1.00006,-1.6817169,163.20282)" d="M2.77527 0H197.04439V161.39575H2.77527Z"/>
</clipPath>
<path id="font_2_8" d="M.19400025 .32104493C.19400025 .34602357 .19799805 .36001588 .20698548 .37800599 .22999573 .42396546 .272995 .44795228 .32598878 .44795228 .3659973 .44795228 .45498658 .42196656 .45498658 .25009156 .45498658 .10321045 .40899659 .023269654 .30899049 .023269654 .25698854 .023269654 .21699524 .050247194 .20098877 .096221927 .19499207 .11419678 .19400025 .13418579 .19400025 .15716553V.32104493M.02999878 .47694398V.45195008L.067993167 .4469452C.09399414 .4429474 .099990848 .43795777 .099990848 .40197755V-.14324951C.099990848-.19444275 .09498596-.19645691 .024993897-.20147705V-.23046875H.28399659V-.20147705C.19999695-.19645691 .19400025-.19444275 .19400025-.14324951V.011276245C.21499634-.0007324219 .2619934-.01171875 .30799867-.01171875 .44299317-.01171875 .5589905 .050247194 .5589905 .25608827 .5589905 .32704164 .54599 .5019531 .3639984 .5019531 .29100038 .5019531 .23298645 .4529419 .19400025 .42796327L.18099976 .5019531 .02999878 .47694398Z"/>
<path id="font_2_7" d="M.28799439 .5019531C.12799073 .5019531 .04899597 .40698243 .04899597 .24510193 .04899597 .083236698 .12799073-.01171875 .28799439-.01171875 .44999696-.01171875 .5279999 .083236698 .5279999 .24510193 .5279999 .40698243 .44999696 .5019531 .28799439 .5019531M.15299988 .24510193C.15299988 .38301087 .19699097 .46694947 .28799439 .46694947 .3809967 .46694947 .42399598 .38301087 .42399598 .24510193 .42399598 .10720825 .3809967 .023269654 .28799439 .023269654 .19699097 .023269654 .15299988 .10720825 .15299988 .24510193Z"/>
<path id="font_2_10" d="M-.0020141602 .49023438V.46122743C.038986207 .45922853 .051986696 .45622254 .06399536 .41819764 .10598755 .2861328 .1499939 .15106201 .19198609 0H.2679901L.38598634 .38150025H.3889923C.43099977 .2543335 .47200013 .12716675 .5119934 0H.58799746C.6299896 .14703369 .68899539 .32513429 .71398928 .40318299 .73098757 .45422364 .74198916 .45822145 .7919922 .46122743V.49023438H.59498599V.46122743L.6519928 .45622254C.6689911 .45422364 .66999819 .4412079 .66600039 .4232025 .6529999 .36416627 .6069946 .20205689 .57598879 .08898926H.57398989C.5309906 .21922302 .48999024 .3484497 .44898988 .47851563H.37298585L.25698854 .08898926H.25498963C.21899414 .20410156 .18798828 .3201599 .1559906 .4282074 .1499939 .44721986 .1559906 .45622254 .17399597 .45822145L.20899964 .46122743V.49023438H-.0020141602Z"/>
<path id="font_2_6" d="M.44099427 .2627716C.46199037 .2627716 .48098756 .2677765 .48098756 .30078126 .48098756 .35983277 .46199037 .5019531 .2789917 .5019531 .12298584 .5019531 .04899597 .39086915 .04899597 .24082947 .04899597 .08317566 .116989139-.01373291 .27999879-.01171875 .3909912-.010726929 .44799806 .050247194 .47499085 .1290741L.44499208 .14503479C.4169922 .08717346 .3789978 .039276124 .2999878 .039276124 .17599488 .039276124 .15098572 .15901184 .15299988 .2627716H.44099427M.1539917 .30078126C.1539917 .34181214 .16899109 .46694947 .272995 .46694947 .3659973 .46694947 .3769989 .37184144 .3769989 .33280946 .3769989 .31378175 .37098695 .30078126 .34298707 .30078126H.1539917Z"/>
<path id="font_2_9" d="M.18899536 .5019531 .036987306 .47694398V.45195008L.07499695 .4469452C.100997928 .4429474 .10699463 .4379425 .10699463 .40194703V.08699036C.10699463 .035995485 .101989749 .033996583 .03199768 .0289917V0H.29599V.0289917C.20698548 .033996583 .20098877 .035995485 .20098877 .08699036V.32095338C.20098877 .39794923 .23498535 .4239502 .2579956 .4239502 .27398683 .4239502 .29100038 .4179535 .31999208 .40194703 .32699586 .39794923 .33499146 .39694215 .33999635 .39694215 .3639984 .39694215 .38598634 .4219513 .38598634 .4529419 .38598634 .47494508 .37199403 .5019531 .33299256 .5019531 .29699708 .5019531 .2669983 .47994996 .20098877 .4219513L.18899536 .5019531Z"/>
<path id="font_1_1" d="M.91799929 .29692079C.8549957 .3169403 .7669983 .3780365 .72698977 .41210938L.70799258 .38505555C.7350006 .36201478 .7589874 .32795716 .7689972 .31092835H.07199097V.2529297H.7689972C.7599945 .23799134 .7350006 .20411682 .70799258 .17922974L.72698977 .15234375C.7669983 .186203 .85598757 .24694824 .91799929 .266922V.29692079Z"/>
<path id="font_1_2" d="M.4909973 .1572113C.5249939 .10424805 .6179962-.01171875 .7609863-.01171875 .94599917-.01171875 1.0009918 .12922669 1.0009918 .24716187 1.0009918 .36608888 .8899994 .4600525 .7789917 .4600525 .6380005 .4600525 .5479889 .33309938 .5319977 .30612184H.5309906C.49198915 .37008668 .4039917 .4580536 .2659912 .4580536 .083999637 .4580536 .015991211 .33010865 .015991211 .21217346 .015991211 .09320068 .13398743-.0107421879 .24499512-.0107421879 .3849945-.0107421879 .47299195 .12918091 .48999024 .15716553L.4909973 .1572113M.55999758 .26213075C.59799197 .33009339 .66999819 .4140625 .7829895 .4140625 .8549957 .4140625 .94299319 .34109498 .94299319 .25112916 .94299319 .150177 .8880005 .057266237 .79100039 .057266237 .6879883 .057266237 .6069946 .17315674 .55999758 .2620697V.26213075M.46398927 .2071228C.42599488 .13917542 .35398866 .03527832 .24099732 .03527832 .16899109 .03527832 .07899475 .11819458 .07899475 .20811463 .07899475 .30802918 .14898682 .38694764 .23298645 .38694764 .33299256 .38694764 .4169922 .28204347 .46398927 .2071228Z"/>
<path id="font_1_4" d="M.08198547 .266922C.14399719 .24694824 .23298645 .186203 .272995 .15234375L.2919922 .17922974C.2649994 .20411682 .23999024 .23799134 .23098755 .2529297H.9279938V.31092835H.23098755C.24099732 .32795716 .2649994 .36201478 .2919922 .38505555L.272995 .41210938C.23298645 .3780365 .14498902 .3169403 .08198547 .29692079V.266922Z"/>
<path id="font_4_1" d="M.43499757 .15118408C.39898683 .10421753 .34498597 .03727722 .269989 .03727722 .19999695 .03727722 .1789856 .097229007 .1789856 .17616272 .1789856 .1811676 .1789856 .1851654 .17999268 .19215393 .34799195 .22613526 .42099 .26609803 .46398927 .30607606 .49899293 .3410492 .5059967 .37402345 .5059967 .4019928 .5059967 .45495606 .46398927 .5019531 .38198854 .5019531 .2919922 .5019531 .21798706 .45596314 .16299439 .3880005 .10998535 .32305909 .07998657 .23612976 .07998657 .15219116 .07998657 .012268066 .17098999-.01171875 .22898865-.01171875 .3019867-.01171875 .3899994 .02027893 .45799256 .13119507L.43499757 .15118408M.18199158 .22613526C.19898987 .3470459 .27398683 .46694947 .35398866 .46694947 .3889923 .46694947 .4119873 .44296266 .4119873 .4079895 .4119873 .3380432 .35099793 .26210023 .18199158 .22613526Z"/>
</defs>
<path transform="matrix(1.00002,0,0,-1.00006,-1.6817169,163.20282)" stroke-width=".19925" stroke-linecap="butt" stroke-miterlimit="10" stroke-linejoin="miter" fill="none" stroke="#929292" d="M16.65163 36.30156V40.55353M44.40436 36.30156V40.55353M72.15709 36.30156V40.55353M127.66255 36.30156V40.55353M155.41529 36.30156V40.55353M183.16802 36.30156V40.55353"/>
<path transform="matrix(1.00002,0,0,-1.00006,-1.6817169,163.20282)" stroke-width=".19925" stroke-linecap="butt" stroke-miterlimit="10" stroke-linejoin="miter" fill="none" stroke="#929292" d="M97.78384 0H102.0358M97.78384 76.85512H102.0358M97.78384 115.28267H102.0358M97.78384 153.71024H102.0358"/>
<path transform="matrix(1.00002,0,0,-1.00006,-1.6817169,163.20282)" stroke-width=".3985" stroke-linecap="butt" stroke-miterlimit="10" stroke-linejoin="miter" fill="none" stroke="#000000" d="M2.77527 38.42755H195.05187"/>
<path transform="matrix(1.00002,0,0,-1.00006,193.37406,124.772968)" d="M1.99252 0-1.19551 1.59401 0 0-1.19551-1.59401"/>
<path transform="matrix(1.00002,0,0,-1.00006,-1.6817169,163.20282)" stroke-width=".3985" stroke-linecap="butt" stroke-miterlimit="10" stroke-linejoin="miter" fill="none" stroke="#000000" d="M99.90982 0V159.40323"/>
<path transform="matrix(0,-1.00006,-1.00002,-0,98.2301,3.790039)" d="M1.99252 0-1.19551 1.59401 0 0-1.19551-1.59401"/>
<use data-text="&#x2212;" xlink:href="#font_1_3" transform="matrix(10.999021,0,0,-10.99946,8.095478,137.66329)"/>
<use data-text="3" xlink:href="#font_2_4" transform="matrix(10.999021,0,0,-10.99946,16.00964,137.66329)"/>
<use data-text="&#x2212;" xlink:href="#font_1_3" transform="matrix(10.999021,0,0,-10.99946,35.849035,137.66329)"/>
<use data-text="2" xlink:href="#font_2_3" transform="matrix(10.999021,0,0,-10.99946,43.763196,137.66329)"/>
<use data-text="&#x2212;" xlink:href="#font_1_3" transform="matrix(10.999021,0,0,-10.99946,63.602586,137.66329)"/>
<use data-text="1" xlink:href="#font_2_2" transform="matrix(10.999021,0,0,-10.99946,71.51675,137.66329)"/>
<use data-text="1" xlink:href="#font_2_2" transform="matrix(10.999021,0,0,-10.99946,123.06578,137.66329)"/>
<use data-text="2" xlink:href="#font_2_3" transform="matrix(10.999021,0,0,-10.99946,150.81934,137.66329)"/>
<use data-text="3" xlink:href="#font_2_4" transform="matrix(10.999021,0,0,-10.99946,178.5729,137.66329)"/>
<use data-text="&#x2212;" xlink:href="#font_1_3" transform="matrix(10.999021,0,0,-10.99946,78.9559,166.85504)"/>
<use data-text="5" xlink:href="#font_2_5" transform="matrix(10.999021,0,0,-10.99946,86.87006,166.85504)"/>
<use data-text="5" xlink:href="#font_2_5" transform="matrix(10.999021,0,0,-10.99946,86.871059,89.99543)"/>
<use data-text="1" xlink:href="#font_2_2" transform="matrix(10.999021,0,0,-10.99946,81.03694,51.56613)"/>
<use data-text="0" xlink:href="#font_2_1" transform="matrix(10.999021,0,0,-10.99946,86.866428,51.56613)"/>
<use data-text="1" xlink:href="#font_2_2" transform="matrix(10.999021,0,0,-10.99946,81.03694,13.1358189)"/>
<use data-text="5" xlink:href="#font_2_5" transform="matrix(10.999021,0,0,-10.99946,86.866428,13.1358189)"/>
<g clip-path="url(#clip_3)">
<path transform="matrix(1.00002,0,0,-1.00006,-1.6817169,163.20282)" stroke-width="1.19553" stroke-linecap="butt" stroke-miterlimit="10" stroke-linejoin="miter" fill="none" stroke="#ff0000" d="M0 38.63754 2.01833 38.65338 4.03668 38.67043 6.05502 38.68874 8.07336 38.70844 10.0917 38.72963 12.11006 38.75241 14.12839 38.77693 16.14674 38.80327 18.16508 38.83162 20.18343 38.8621 22.20178 38.89488 24.22012 38.93013 26.23846 38.96805 28.25682 39.00883 30.27516 39.05267 32.2935 39.09982 34.31184 39.15054 36.3302 39.20471 38.34854 39.26396 40.36688 39.3269 42.38524 39.39453 44.40358 39.46762 46.42192 39.54594 48.44026 39.6305 50.45862 39.72125 52.47696 39.81885 54.4953 39.92345 56.51366 40.03642 58.53198 40.15785 60.55034 40.28867 62.5687 40.42924 64.58702 40.57996 66.60538 40.74211 68.62372 40.91742 70.64206 41.10495 72.66042 41.30716 74.67876 41.52405 76.6971 41.75768 78.71544 42.009 80.7338 42.2797 82.75214 42.57019 84.77048 42.88237 86.78882 43.21823 88.80717 43.57953 90.82552 43.96849 92.84386 44.38675 94.86221 44.8365 96.88054 45.31992 98.8989 45.83969 100.91725 46.39711 102.93558 46.9982 104.95393 47.64462 106.97227 48.33978 108.99062 49.08772 111.00897 49.89186 113.02731 50.75665 115.04565 51.68675 117.064 52.68686 119.08235 53.76236 121.1007 54.91934 123.11903 56.16309 125.13739 57.50107 127.15573 58.93979 129.17407 60.48727 131.19242 62.15181 133.21077 63.9413 135.22911 65.8659 137.24745 67.93576 139.26581 70.16133 141.28414 72.55507 143.30249 75.12993 145.32083 77.89871 147.33917 80.87625 149.35752 84.07834 151.37587 87.52213 153.39421 91.22508 155.41255 95.2085 157.43091 99.49156 159.44924 104.0987 161.46759 109.0524 163.48595 114.37955 165.50429 120.1107 167.52263 126.27295 169.54097 132.89786 171.55933 140.02463 173.57767 147.68863 175.59601 155.9298 177.61437 164.79352 179.63269 174.3274 181.65105 184.57987 183.66939 195.60549 185.68773 207.45963 187.70609 220.20989 189.72443 233.92316 191.74277 248.67243 193.76111 264.533 195.77947 281.5864 197.7978 299.92555 199.81615 319.6558"/>
<use data-text="p" xlink:href="#font_2_8" transform="matrix(11.040261,0,0,-11.040702,129.72263,157.04654)"/>
<use data-text="o" xlink:href="#font_2_7" transform="matrix(11.040261,0,0,-11.040702,136.43509,157.04654)"/>
<use data-text="w" xlink:href="#font_2_10" transform="matrix(11.040261,0,0,-11.040702,142.47412,157.04654)"/>
<use data-text="e" xlink:href="#font_2_6" transform="matrix(11.040261,0,0,-11.040702,150.8868,157.04654)"/>
<use data-text="r" xlink:href="#font_2_9" transform="matrix(11.040261,0,0,-11.040702,156.5615,157.04654)"/>
<use data-text="&#x2192;" xlink:href="#font_1_1" transform="matrix(11.040261,0,0,-11.040702,165.38753,157.04654)"/>
<use data-text="&#x221e;" xlink:href="#font_1_2" transform="matrix(11.040261,0,0,-11.040702,178.48128,157.04654)"/>
<use data-text="&#x2212;" xlink:href="#font_1_3" transform="matrix(11.040261,0,0,-11.040702,-1.2350006,157.04654)"/>
<use data-text="&#x221e;" xlink:href="#font_1_2" transform="matrix(11.040261,0,0,-11.040702,6.7139894,157.04654)"/>
<use data-text="&#x2190;" xlink:href="#font_1_4" transform="matrix(11.040261,0,0,-11.040702,20.028542,157.04654)"/>
<use data-text="p" xlink:href="#font_2_8" transform="matrix(11.040261,0,0,-11.040702,35.608034,157.04654)"/>
<use data-text="o" xlink:href="#font_2_7" transform="matrix(11.040261,0,0,-11.040702,42.32052,157.04654)"/>
<use data-text="w" xlink:href="#font_2_10" transform="matrix(11.040261,0,0,-11.040702,48.359537,157.04654)"/>
<use data-text="e" xlink:href="#font_2_6" transform="matrix(11.040261,0,0,-11.040702,56.772218,157.04654)"/>
<use data-text="r" xlink:href="#font_2_9" transform="matrix(11.040261,0,0,-11.040702,62.4469,157.04654)"/>
<use data-text="e" xlink:href="#font_4_1" transform="matrix(12.043922,0,0,-12.044403,157.81589,67.896327)"/>
<use data-text="p" xlink:href="#font_2_8" transform="matrix(9.129184,0,0,-9.129548,166.20525,63.14402)"/>
<use data-text="o" xlink:href="#font_2_7" transform="matrix(9.129184,0,0,-9.129548,171.7558,63.14402)"/>
<use data-text="w" xlink:href="#font_2_10" transform="matrix(9.129184,0,0,-9.129548,176.74945,63.14402)"/>
<use data-text="e" xlink:href="#font_2_6" transform="matrix(9.129184,0,0,-9.129548,183.70589,63.14402)"/>
<use data-text="r" xlink:href="#font_2_9" transform="matrix(9.129184,0,0,-9.129548,188.39829,63.14402)"/>
<use data-text="&#x2192;" xlink:href="#font_1_1" transform="matrix(3.7217723,-11.454929,-11.454473,-3.7219208,171.41287,52.54458)"/>
<use data-text="&#x221e;" xlink:href="#font_1_2" transform="matrix(3.7217723,-11.454929,-11.454473,-3.7219208,175.82318,38.97049)"/>
<use data-text="0" xlink:href="#font_2_1" transform="matrix(12.036493,-.42024929,-.4202325,-12.036974,8.987129,120.89633)"/>
<use data-text="&#x2190;" xlink:href="#font_1_4" transform="matrix(12.036493,-.42024929,-.4202325,-12.036974,17.609986,120.595279)"/>
<use data-text="e" xlink:href="#font_4_1" transform="matrix(12.036493,-.42024929,-.4202325,-12.036974,31.885064,120.09686)"/>
<use data-text="p" xlink:href="#font_2_8" transform="matrix(9.123552,-.31854514,-.3185324,-9.123918,40.103448,115.05478)"/>
<use data-text="o" xlink:href="#font_2_7" transform="matrix(9.123552,-.31854514,-.3185324,-9.123918,45.650568,114.8611)"/>
<use data-text="w" xlink:href="#font_2_10" transform="matrix(9.123552,-.31854514,-.3185324,-9.123918,50.641145,114.68686)"/>
<use data-text="e" xlink:href="#font_2_6" transform="matrix(9.123552,-.31854514,-.3185324,-9.123918,57.593294,114.44412)"/>
<use data-text="r" xlink:href="#font_2_9" transform="matrix(9.123552,-.31854514,-.3185324,-9.123918,62.282808,114.280399)"/>
</g>
</svg>
