<svg xmlns="http://www.w3.org/2000/svg" xmlns:xlink="http://www.w3.org/1999/xlink" version="1.1" width="94" height="115" viewBox="0 0 94 115">
<defs>
<path id="font_1_1" d="M.42799378 .45222474 .43899537 .49023438H.31199647L.34599305 .6092224 .33399964 .6162262 .23699951 .53923037 .22399903 .49023438H.14299011L.13198853 .45222474H.21499634L.125 .08627319C.10998535 .029266358 .12199402-.01171875 .17199707-.01171875 .2519989-.01171875 .31599427 .054275514 .35598756 .1292572L.33399964 .1462555C.31098939 .10726929 .2599945 .040267946 .22898865 .040267946 .20799256 .040267946 .20799256 .0632782 .21398926 .088272098L.30299378 .45222474H.42799378Z"/>
<path id="font_1_2" d="M.5069885 .1381836C.48298646 .0932312 .45599366 .040267946 .42799378 .040267946 .40899659 .040267946 .40098573 .06324768 .3789978 .1521759L.34700013 .2830658C.3829956 .34701539 .43399049 .42694093 .46299745 .42694093 .47200013 .42694093 .47999574 .42494203 .4909973 .4189453 .5009918 .4149475 .5109863 .4109497 .522995 .4109497 .54499819 .4109497 .56599429 .4319458 .56599429 .4589386 .56599429 .48994447 .54299929 .5019531 .5149994 .5019531 .46199037 .5019531 .4169922 .45394898 .38198854 .39796449L.33799745 .33003236H.33599855L.29599 .49794007 .2899933 .5019531 .125 .45195008 .12799073 .427948 .20298767 .43295289C.22099304 .4339447 .22799683 .42893983 .23899842 .38298036L.2749939 .2381134 .24699402 .19015503C.20399475 .11723328 .16699219 .0652771 .14299011 .0652771 .1329956 .0652771 .12298584 .0692749 .11399841 .07426453 .10398865 .07926941 .09098816 .089279178 .07398987 .089279178 .04798889 .089279178 .0309906 .0632782 .0309906 .039276124 .0309906 .010269165 .054992677-.01171875 .09498596-.01171875 .16299439-.01171875 .20199585 .056259157 .24299622 .12319946L.2829895 .18914795H.2849884L.30299378 .111206058C.32199098 .031280519 .34098817-.01171875 .3919983-.01171875 .46499635-.01171875 .5029907 .06324768 .5329895 .12420654L.5069885 .1381836Z"/>
<path id="font_2_1" d="M.1749878 .2822113C.1749878 .56832888 .2619934 .65437319 .32499696 .66737368V.6923828C.1499939 .685379 .10499573 .46829225 .10499573 .2822113 .10499573 .09614563 .1499939-.12094116 .32499696-.12792969V-.10293579C.2669983-.090927127 .1749878-.0059051516 .1749878 .2822113Z"/>
<path id="font_2_2" d="M.1749878 .2822113C.1749878-.0059051516 .08299255-.090927127 .024993897-.10293579V-.12792969C.19999695-.12094116 .24499512 .09614563 .24499512 .2822113 .24499512 .46829225 .19999695 .685379 .024993897 .6923828V.66737368C.08799744 .65437319 .1749878 .56832888 .1749878 .2822113Z"/>
<path id="font_2_3" d="M.069992069-.140625C.11999512-.09362793 .19299317-.027633667 .19299317 .051361085 .19299317 .10636902 .1599884 .1423645 .125 .14137268 .09399414 .14137268 .07598877 .117370609 .07598877 .09136963 .07598877 .055374147 .10899353 .037368776 .10899353-.005630493 .10899353-.04663086 .08299255-.086639408 .050994874-.12162781L.069992069-.140625Z"/>
<path id="font_1_3" d="M.070999149 .45393373 .07398987 .42893983 .14199829 .43093873C.1639862 .43193055 .16899109 .41493226 .1769867 .36291505 .18798828 .28489686 .20999146 .09286499 .20999146 .0128479 .20999146-.017166138 .20799256-.058166505 .18598938-.11117554 .16799927-.15318299 .14199829-.18218994 .12199402-.18218994 .10699463-.18218994 .09599304-.17118836 .08099365-.15118408 .068984989-.13517761 .06098938-.127182 .04598999-.127182 .019989014-.12818909-.005004883-.15818787-.005004883-.18719483-.005004883-.21418762 .023986817-.2421875 .067993167-.2421875 .15299988-.2421875 .18998719-.17919922 .27799989-.027160645 .2979889 .0068511965 .35798646 .11286926 .41999818 .21488953 .47698976 .30891419 .5399933 .40592958 .5399933 .4459381 .5399933 .48094178 .5289917 .5019531 .5219879 .5019531 .5029907 .5019531 .46899415 .49394227 .44400025 .47694398 .44499208 .4419403 .44299317 .3809204 .43099977 .33891297 .4149933 .28289796 .35598756 .17488098 .2899933 .06085205H.2869873C.27999879 .21388245 .26098634 .42492677 .24699402 .49795533L.23899842 .5019531 .070999149 .45393373Z"/>
</defs>
<path transform="matrix(1.00006,0,0,-1.00002,24.970398,63.656038)" stroke-width=".3985" stroke-linecap="butt" stroke-miterlimit="10" stroke-linejoin="miter" fill="none" stroke="#000000" d="M0 0H49.49197"/>
<path transform="matrix(1.00006,0,0,-1.00002,74.66461,63.656038)" stroke-width=".3985" stroke-linecap="round" stroke-linejoin="round" fill="none" stroke="#000000" d="M-2.07224 2.39104C-1.69365 .95639-.84999 .27895 0 0-.84999-.27895-1.69365-.95639-2.07224-2.39104"/>
<use data-text="t" xlink:href="#font_1_1" transform="matrix(10.037002,0,0,-10.036601,78.480609,66.70509)"/>
<path transform="matrix(1.00006,0,0,-1.00002,24.970398,63.656038)" stroke-width=".3985" stroke-linecap="butt" stroke-miterlimit="10" stroke-linejoin="miter" fill="none" stroke="#000000" d="M0-49.89049V49.49197"/>
<path transform="matrix(0,-1.00002,-1.00006,-0,24.970398,13.963802)" stroke-width=".3985" stroke-linecap="round" stroke-linejoin="round" fill="none" stroke="#000000" d="M-2.07224 2.39104C-1.69365 .95639-.84999 .27895 0 0-.84999-.27895-1.69365-.95639-2.07224-2.39104"/>
<use data-text="x" xlink:href="#font_1_2" transform="matrix(10.037002,0,0,-10.036601,5.4542238,7.8999178)"/>
<use data-text="(" xlink:href="#font_2_1" transform="matrix(10.037002,0,0,-10.036601,11.334572,7.8999178)"/>
<use data-text="t" xlink:href="#font_1_1" transform="matrix(10.037002,0,0,-10.036601,15.065796,7.8999178)"/>
<use data-text=")" xlink:href="#font_2_2" transform="matrix(10.037002,0,0,-10.036601,19.561074,7.8999178)"/>
<use data-text="," xlink:href="#font_2_3" transform="matrix(10.037002,0,0,-10.036601,23.07402,7.8999178)"/>
<use data-text="y" xlink:href="#font_1_3" transform="matrix(10.037002,0,0,-10.036601,27.347542,7.8999178)"/>
<use data-text="(" xlink:href="#font_2_1" transform="matrix(10.037002,0,0,-10.036601,32.96588,7.8999178)"/>
<use data-text="t" xlink:href="#font_1_1" transform="matrix(10.037002,0,0,-10.036601,36.697107,7.8999178)"/>
<use data-text=")" xlink:href="#font_2_2" transform="matrix(10.037002,0,0,-10.036601,41.192384,7.8999178)"/>
<path transform="matrix(1.00006,0,0,-1.00002,24.970398,63.656038)" stroke-width=".79701" stroke-linecap="butt" stroke-miterlimit="10" stroke-linejoin="miter" fill="none" stroke="#000000" d="M-22.67752 61.64378-21.76157 59.19873-20.84563 56.85507-19.92967 54.60483-19.01373 52.44316-18.09778 50.36766-17.18182 48.37312-16.2659 46.4589-15.34995 44.61938-14.43399 42.85359-13.51805 41.15733-12.60211 39.52823-11.68616 37.96382-10.77022 36.46031-9.85428 35.01735-8.93831 33.6315-8.02238 32.30031-7.10643 31.02206-6.19048 29.794-5.27455 28.61472-4.3586 27.48216-3.44264 26.39459-2.5267 25.34958-1.61076 24.34608-.69481 23.38239 .22108 22.46298 1.13704 21.57367 2.053 20.71863 2.96892 19.89957 3.88487 19.11026 4.80083 18.35489 5.71677 17.6289 6.63272 16.93027 7.54866 16.25897 8.4646 15.6171 9.38055 14.99768 10.2965 14.40596 11.21245 13.83432 12.12839 13.2876 13.04434 12.76128 13.96028 12.25539 14.87622 11.7699 15.79218 11.30519 16.70811 10.85811 17.62407 10.42729 18.54001 10.01448 19.45596 9.61725 20.3719 9.23625 21.28784 8.87119 22.20381 8.51962 23.11974 8.18398 24.03569 7.8594 24.95164 7.54866 25.86757 7.24934 26.78352 6.9611 27.69948 6.68669 28.61542 6.4213 29.53137 6.1673 30.44731 5.9223 31.36325 5.68874 32.2792 5.46416 33.19516 5.24652 34.11108 5.03993 35.02704 4.84027 35.943 4.64752 36.85892 4.46379 37.77489 4.28697 38.69083 4.11671 39.60677 3.95581 40.52272 3.79698 41.43866 3.64714 42.3546 3.50423 43.27055 3.36377 44.18651 3.23227 45.10243 3.10284 46.01839 2.98036 46.93434 2.86235 47.85028 2.74886 48.76624 2.6402 49.68217 2.53569 50.59811 2.43605 51.51407 2.33846 52.43001 2.24538 53.34595 2.15678 54.2619 2.07063 55.17786 1.98897 56.0938 1.90973 57.00974 1.83498 57.92569 1.76231 58.84163 1.69206 59.75758 1.62598 60.67352 1.56023 61.58948 1.49898 62.50542 1.44017 63.42136 1.38342 64.33733 1.32909 65.25325 1.27441 66.1692 1.2246 67.08516 1.17719 68.00108 1.12943"/>
</svg>
