<svg xmlns="http://www.w3.org/2000/svg" xmlns:xlink="http://www.w3.org/1999/xlink" version="1.1" width="95" height="119" viewBox="0 0 95 119">
<defs>
<path id="font_1_1" d="M.42799378 .45222474 .43899537 .49023438H.31199647L.34599305 .6092224 .33399964 .6162262 .23699951 .53923037 .22399903 .49023438H.14299011L.13198853 .45222474H.21499634L.125 .08627319C.10998535 .029266358 .12199402-.01171875 .17199707-.01171875 .2519989-.01171875 .31599427 .054275514 .35598756 .1292572L.33399964 .1462555C.31098939 .10726929 .2599945 .040267946 .22898865 .040267946 .20799256 .040267946 .20799256 .0632782 .21398926 .088272098L.30299378 .45222474H.42799378Z"/>
<path id="font_1_2" d="M.070999149 .45393373 .07398987 .42893983 .14199829 .43093873C.1639862 .43193055 .16899109 .41493226 .1769867 .36291505 .18798828 .28489686 .20999146 .09286499 .20999146 .0128479 .20999146-.017166138 .20799256-.058166505 .18598938-.11117554 .16799927-.15318299 .14199829-.18218994 .12199402-.18218994 .10699463-.18218994 .09599304-.17118836 .08099365-.15118408 .068984989-.13517761 .06098938-.127182 .04598999-.127182 .019989014-.12818909-.005004883-.15818787-.005004883-.18719483-.005004883-.21418762 .023986817-.2421875 .067993167-.2421875 .15299988-.2421875 .18998719-.17919922 .27799989-.027160645 .2979889 .0068511965 .35798646 .11286926 .41999818 .21488953 .47698976 .30891419 .5399933 .40592958 .5399933 .4459381 .5399933 .48094178 .5289917 .5019531 .5219879 .5019531 .5029907 .5019531 .46899415 .49394227 .44400025 .47694398 .44499208 .4419403 .44299317 .3809204 .43099977 .33891297 .4149933 .28289796 .35598756 .17488098 .2899933 .06085205H.2869873C.27999879 .21388245 .26098634 .42492677 .24699402 .49795533L.23899842 .5019531 .070999149 .45393373Z"/>
<path id="font_2_2" d="M.2649994 .64468386C.3600006 .64468386 .3869934 .49682618 .3869934 .33398438 .3869934 .17112732 .3600006 .023269654 .2649994 .023269654 .16999817 .023269654 .14299011 .17112732 .14299011 .33398438 .14299011 .49682618 .16999817 .64468386 .2649994 .64468386M.2649994 .6796875C.099990848 .6796875 .040985109 .53378298 .040985109 .33398438 .040985109 .13417053 .099990848-.01171875 .2649994-.01171875 .42999269-.01171875 .4889984 .13417053 .4889984 .33398438 .4889984 .53378298 .42999269 .6796875 .2649994 .6796875Z"/>
<path id="font_2_3" d="M.43699647 0V.0289917L.35299684 .035995485C.33198548 .037994386 .31999208 .04598999 .31999208 .08496094V.67367556L.31498719 .6796875 .10899353 .6446991V.6197052L.20199585 .6087036C.21899414 .6067047 .22599793 .5987091 .22599793 .56973269V.08496094C.22599793 .065979007 .22299195 .053985597 .21699524 .04698181 .21199036 .039993287 .20399475 .036987306 .19299317 .035995485L.10899353 .0289917V0H.43699647Z"/>
<path id="font_2_4" d="M.4850006 .13195801 .45700074 .13696289C.43598939 .08299255 .41600038 .07598877 .37599183 .07598877H.11999512C.13598633 .1279602 .19499207 .19892884 .28799439 .2658844 .38398744 .33584596 .45799256 .38082887 .45799256 .49276734 .45799256 .63168337 .3659973 .6796875 .26098634 .6796875 .12399292 .6796875 .052993776 .5967102 .052993776 .54473879 .052993776 .51075747 .09098816 .49476625 .10798645 .49476625 .12599182 .49476625 .1329956 .50476077 .13699341 .5217438 .15299988 .5897064 .19198609 .64468386 .2539978 .64468386 .33099366 .64468386 .35299684 .5797119 .35299684 .50675967 .35299684 .3998108 .29899598 .33984376 .21199036 .26289369 .08898926 .15594483 .04598999 .08798218 .026992798 .009994507L.036987306 0H.45098878L.4850006 .13195801Z"/>
<path id="font_2_1" d="M.07398987 .2861328V.21612549H.31900025V.2861328H.07398987Z"/>
</defs>
<path transform="matrix(1.00006,0,0,-1,18.63926,77.374)" stroke-width=".3985" stroke-linecap="butt" stroke-miterlimit="10" stroke-linejoin="miter" fill="none" stroke="#cbcbcb" d="M-5.66936-34.01628V56.69382"/>
<path transform="matrix(1.00006,0,0,-1,18.63926,77.374)" stroke-width=".3985" stroke-linecap="butt" stroke-miterlimit="10" stroke-linejoin="miter" fill="none" stroke="#cbcbcb" d="M0-34.01628V56.69382"/>
<path transform="matrix(1.00006,0,0,-1,18.63926,77.374)" stroke-width=".3985" stroke-linecap="butt" stroke-miterlimit="10" stroke-linejoin="miter" fill="none" stroke="#cbcbcb" d="M5.66936-34.01628V56.69382"/>
<path transform="matrix(1.00006,0,0,-1,18.63926,77.374)" stroke-width=".3985" stroke-linecap="butt" stroke-miterlimit="10" stroke-linejoin="miter" fill="none" stroke="#cbcbcb" d="M11.33876-34.01628V56.69382"/>
<path transform="matrix(1.00006,0,0,-1,18.63926,77.374)" stroke-width=".3985" stroke-linecap="butt" stroke-miterlimit="10" stroke-linejoin="miter" fill="none" stroke="#cbcbcb" d="M17.00813-34.01628V56.69382"/>
<path transform="matrix(1.00006,0,0,-1,18.63926,77.374)" stroke-width=".3985" stroke-linecap="butt" stroke-miterlimit="10" stroke-linejoin="miter" fill="none" stroke="#cbcbcb" d="M22.67752-34.01628V56.69382"/>
<path transform="matrix(1.00006,0,0,-1,18.63926,77.374)" stroke-width=".3985" stroke-linecap="butt" stroke-miterlimit="10" stroke-linejoin="miter" fill="none" stroke="#cbcbcb" d="M28.3469-34.01628V56.69382"/>
<path transform="matrix(1.00006,0,0,-1,18.63926,77.374)" stroke-width=".3985" stroke-linecap="butt" stroke-miterlimit="10" stroke-linejoin="miter" fill="none" stroke="#cbcbcb" d="M34.01628-34.01628V56.69382"/>
<path transform="matrix(1.00006,0,0,-1,18.63926,77.374)" stroke-width=".3985" stroke-linecap="butt" stroke-miterlimit="10" stroke-linejoin="miter" fill="none" stroke="#cbcbcb" d="M39.68567-34.01628V56.69382"/>
<path transform="matrix(1.00006,0,0,-1,18.63926,77.374)" stroke-width=".3985" stroke-linecap="butt" stroke-miterlimit="10" stroke-linejoin="miter" fill="none" stroke="#cbcbcb" d="M45.35506-34.01628V56.69382"/>
<path transform="matrix(1.00006,0,0,-1,18.63926,77.374)" stroke-width=".3985" stroke-linecap="butt" stroke-miterlimit="10" stroke-linejoin="miter" fill="none" stroke="#cbcbcb" d="M51.02443-34.01628V56.69382"/>
<path transform="matrix(1.00006,0,0,-1,18.63926,77.374)" stroke-width=".3985" stroke-linecap="butt" stroke-miterlimit="10" stroke-linejoin="miter" fill="none" stroke="#cbcbcb" d="M56.69382-34.01628V56.69382"/>
<path transform="matrix(1.00006,0,0,-1,18.63926,77.374)" stroke-width=".3985" stroke-linecap="butt" stroke-miterlimit="10" stroke-linejoin="miter" fill="none" stroke="#cbcbcb" d="M62.3632-34.01628V56.69382"/>
<path transform="matrix(1.00006,0,0,-1,18.63926,77.374)" stroke-width=".3985" stroke-linecap="butt" stroke-miterlimit="10" stroke-linejoin="miter" fill="none" stroke="#cbcbcb" d="M-11.33876-28.3469H68.0326"/>
<path transform="matrix(1.00006,0,0,-1,18.63926,77.374)" stroke-width=".3985" stroke-linecap="butt" stroke-miterlimit="10" stroke-linejoin="miter" fill="none" stroke="#cbcbcb" d="M-11.33876-22.67752H68.0326"/>
<path transform="matrix(1.00006,0,0,-1,18.63926,77.374)" stroke-width=".3985" stroke-linecap="butt" stroke-miterlimit="10" stroke-linejoin="miter" fill="none" stroke="#cbcbcb" d="M-11.33876-17.00813H68.0326"/>
<path transform="matrix(1.00006,0,0,-1,18.63926,77.374)" stroke-width=".3985" stroke-linecap="butt" stroke-miterlimit="10" stroke-linejoin="miter" fill="none" stroke="#cbcbcb" d="M-11.33876-11.33876H68.0326"/>
<path transform="matrix(1.00006,0,0,-1,18.63926,77.374)" stroke-width=".3985" stroke-linecap="butt" stroke-miterlimit="10" stroke-linejoin="miter" fill="none" stroke="#cbcbcb" d="M-11.33876-5.66936H68.0326"/>
<path transform="matrix(1.00006,0,0,-1,18.63926,77.374)" stroke-width=".3985" stroke-linecap="butt" stroke-miterlimit="10" stroke-linejoin="miter" fill="none" stroke="#cbcbcb" d="M-11.33876 0H68.0326"/>
<path transform="matrix(1.00006,0,0,-1,18.63926,77.374)" stroke-width=".3985" stroke-linecap="butt" stroke-miterlimit="10" stroke-linejoin="miter" fill="none" stroke="#cbcbcb" d="M-11.33876 5.66936H68.0326"/>
<path transform="matrix(1.00006,0,0,-1,18.63926,77.374)" stroke-width=".3985" stroke-linecap="butt" stroke-miterlimit="10" stroke-linejoin="miter" fill="none" stroke="#cbcbcb" d="M-11.33876 11.33876H68.0326"/>
<path transform="matrix(1.00006,0,0,-1,18.63926,77.374)" stroke-width=".3985" stroke-linecap="butt" stroke-miterlimit="10" stroke-linejoin="miter" fill="none" stroke="#cbcbcb" d="M-11.33876 17.00813H68.0326"/>
<path transform="matrix(1.00006,0,0,-1,18.63926,77.374)" stroke-width=".3985" stroke-linecap="butt" stroke-miterlimit="10" stroke-linejoin="miter" fill="none" stroke="#cbcbcb" d="M-11.33876 22.67752H68.0326"/>
<path transform="matrix(1.00006,0,0,-1,18.63926,77.374)" stroke-width=".3985" stroke-linecap="butt" stroke-miterlimit="10" stroke-linejoin="miter" fill="none" stroke="#cbcbcb" d="M-11.33876 28.3469H68.0326"/>
<path transform="matrix(1.00006,0,0,-1,18.63926,77.374)" stroke-width=".3985" stroke-linecap="butt" stroke-miterlimit="10" stroke-linejoin="miter" fill="none" stroke="#cbcbcb" d="M-11.33876 34.01628H68.0326"/>
<path transform="matrix(1.00006,0,0,-1,18.63926,77.374)" stroke-width=".3985" stroke-linecap="butt" stroke-miterlimit="10" stroke-linejoin="miter" fill="none" stroke="#cbcbcb" d="M-11.33876 39.68567H68.0326"/>
<path transform="matrix(1.00006,0,0,-1,18.63926,77.374)" stroke-width=".3985" stroke-linecap="butt" stroke-miterlimit="10" stroke-linejoin="miter" fill="none" stroke="#cbcbcb" d="M-11.33876 45.35506H68.0326"/>
<path transform="matrix(1.00006,0,0,-1,18.63926,77.374)" stroke-width=".3985" stroke-linecap="butt" stroke-miterlimit="10" stroke-linejoin="miter" fill="none" stroke="#cbcbcb" d="M-11.33876 51.02443H68.0326"/>
<path transform="matrix(1.00006,0,0,-1,18.63926,77.374)" stroke-width=".3985" stroke-linecap="butt" stroke-miterlimit="10" stroke-linejoin="miter" fill="none" stroke="#000000" d="M-11.33876 0H74.43741"/>
<path transform="matrix(1.00006,0,0,-1,93.280399,77.374)" stroke-width=".3985" stroke-linecap="round" stroke-linejoin="round" fill="none" stroke="#000000" d="M-2.07224 2.39104C-1.69365 .95639-.84999 .27895 0 0-.84999-.27895-1.69365-.95639-2.07224-2.39104"/>
<use data-text="t" xlink:href="#font_1_1" transform="matrix(5.49973,0,0,-5.4994,89.47251,84.162)"/>
<path transform="matrix(1.00006,0,0,-1,18.63926,77.374)" stroke-width=".3985" stroke-linecap="butt" stroke-miterlimit="10" stroke-linejoin="miter" fill="none" stroke="#000000" d="M0-34.01628V63.09863"/>
<path transform="matrix(0,-1,-1.00006,-0,18.63926,14.076122)" stroke-width=".3985" stroke-linecap="round" stroke-linejoin="round" fill="none" stroke="#000000" d="M-2.07224 2.39104C-1.69365 .95639-.84999 .27895 0 0-.84999-.27895-1.69365-.95639-2.07224-2.39104"/>
<use data-text="y" xlink:href="#font_1_2" transform="matrix(5.49973,0,0,-5.4994,12.160866,17.396)"/>
<path transform="matrix(1.00006,0,0,-1,18.63926,77.374)" stroke-width=".3985" stroke-linecap="butt" stroke-miterlimit="10" stroke-linejoin="miter" fill="none" stroke="#cbcbcb" d="M-11.33876-34.01628V56.69382H68.0326V-34.01628ZM68.0326 56.69382"/>
<path transform="matrix(1.00006,0,0,-1,18.63926,77.374)" stroke-width=".3985" stroke-linecap="butt" stroke-miterlimit="10" stroke-linejoin="miter" fill="none" stroke="#000000" d="M0-35.37688V-32.65569"/>
<use data-text="0" xlink:href="#font_2_2" transform="matrix(5.49973,0,0,-5.4994,17.180169,117.111)"/>
<path transform="matrix(1.00006,0,0,-1,18.63926,77.374)" stroke-width=".3985" stroke-linecap="butt" stroke-miterlimit="10" stroke-linejoin="miter" fill="none" stroke="#000000" d="M22.67752-35.37688V-32.65569"/>
<use data-text="1" xlink:href="#font_2_3" transform="matrix(5.49973,0,0,-5.4994,39.85953,117.111)"/>
<path transform="matrix(1.00006,0,0,-1,18.63926,77.374)" stroke-width=".3985" stroke-linecap="butt" stroke-miterlimit="10" stroke-linejoin="miter" fill="none" stroke="#000000" d="M45.35506-35.37688V-32.65569"/>
<use data-text="2" xlink:href="#font_2_4" transform="matrix(5.49973,0,0,-5.4994,62.53889,117.111)"/>
<path transform="matrix(1.00006,0,0,-1,18.63926,77.374)" stroke-width=".3985" stroke-linecap="butt" stroke-miterlimit="10" stroke-linejoin="miter" fill="none" stroke="#000000" d="M-12.69934-22.67752H-9.07086"/>
<use data-text="-" xlink:href="#font_2_1" transform="matrix(5.49973,0,0,-5.4994,1.0932083,101.893)"/>
<use data-text="1" xlink:href="#font_2_3" transform="matrix(5.49973,0,0,-5.4994,3.2490998,101.893)"/>
<path transform="matrix(1.00006,0,0,-1,18.63926,77.374)" stroke-width=".3985" stroke-linecap="butt" stroke-miterlimit="10" stroke-linejoin="miter" fill="none" stroke="#000000" d="M-12.69934 0H-9.07086"/>
<use data-text="0" xlink:href="#font_2_2" transform="matrix(5.49973,0,0,-5.4994,3.2513352,79.2)"/>
<path transform="matrix(1.00006,0,0,-1,18.63926,77.374)" stroke-width=".3985" stroke-linecap="butt" stroke-miterlimit="10" stroke-linejoin="miter" fill="none" stroke="#000000" d="M-12.69934 22.67752H-9.07086"/>
<use data-text="1" xlink:href="#font_2_3" transform="matrix(5.49973,0,0,-5.4994,3.2513352,56.538003)"/>
<path transform="matrix(1.00006,0,0,-1,18.63926,77.374)" stroke-width=".3985" stroke-linecap="butt" stroke-miterlimit="10" stroke-linejoin="miter" fill="none" stroke="#000000" d="M-12.69934 45.35506H-9.07086"/>
<use data-text="2" xlink:href="#font_2_4" transform="matrix(5.49973,0,0,-5.4994,3.2513352,33.86)"/>
<path transform="matrix(1.00006,0,0,-1,18.63926,77.374)" stroke-width=".79701" stroke-linecap="butt" stroke-miterlimit="10" stroke-linejoin="miter" fill="none" stroke="#409f9f" d="M-7.64552-29.458-3.69319-27.2358"/>
<path transform="matrix(1.00006,0,0,-1,18.63926,77.374)" stroke-width=".79701" stroke-linecap="butt" stroke-miterlimit="10" stroke-linejoin="miter" fill="none" stroke="#409f9f" d="M-7.93689-22.67752H-3.40182"/>
<path transform="matrix(1.00006,0,0,-1,18.63926,77.374)" stroke-width=".79701" stroke-linecap="butt" stroke-miterlimit="10" stroke-linejoin="miter" fill="none" stroke="#409f9f" d="M-7.74762-16.09947-3.5911-17.9168"/>
<path transform="matrix(1.00006,0,0,-1,18.63926,77.374)" stroke-width=".79701" stroke-linecap="butt" stroke-miterlimit="10" stroke-linejoin="miter" fill="none" stroke="#409f9f" d="M-7.4836-9.97816-3.85512-12.69934"/>
<path transform="matrix(1.00006,0,0,-1,18.63926,77.374)" stroke-width=".79701" stroke-linecap="butt" stroke-miterlimit="10" stroke-linejoin="miter" fill="none" stroke="#409f9f" d="M-7.32373-4.1188-4.01498-7.21991"/>
<path transform="matrix(1.00006,0,0,-1,18.63926,77.374)" stroke-width=".79701" stroke-linecap="butt" stroke-miterlimit="10" stroke-linejoin="miter" fill="none" stroke="#409f9f" d="M-7.2725 1.6035-4.06621-1.6035"/>
<path transform="matrix(1.00006,0,0,-1,18.63926,77.374)" stroke-width=".79701" stroke-linecap="butt" stroke-miterlimit="10" stroke-linejoin="miter" fill="none" stroke="#409f9f" d="M-7.32373 7.21991-4.01498 4.1188"/>
<path transform="matrix(1.00006,0,0,-1,18.63926,77.374)" stroke-width=".79701" stroke-linecap="butt" stroke-miterlimit="10" stroke-linejoin="miter" fill="none" stroke="#409f9f" d="M-7.4836 12.69934-3.85512 9.97816"/>
<path transform="matrix(1.00006,0,0,-1,18.63926,77.374)" stroke-width=".79701" stroke-linecap="butt" stroke-miterlimit="10" stroke-linejoin="miter" fill="none" stroke="#409f9f" d="M-7.74762 17.9168-3.5911 16.09947"/>
<path transform="matrix(1.00006,0,0,-1,18.63926,77.374)" stroke-width=".79701" stroke-linecap="butt" stroke-miterlimit="10" stroke-linejoin="miter" fill="none" stroke="#409f9f" d="M-7.93689 22.67752H-3.40182"/>
<path transform="matrix(1.00006,0,0,-1,18.63926,77.374)" stroke-width=".79701" stroke-linecap="butt" stroke-miterlimit="10" stroke-linejoin="miter" fill="none" stroke="#409f9f" d="M-7.64552 27.2358-3.69319 29.458"/>
<path transform="matrix(1.00006,0,0,-1,18.63926,77.374)" stroke-width=".79701" stroke-linecap="butt" stroke-miterlimit="10" stroke-linejoin="miter" fill="none" stroke="#409f9f" d="M-7.0853 32.24634-4.25342 35.78621"/>
<path transform="matrix(1.00006,0,0,-1,18.63926,77.374)" stroke-width=".79701" stroke-linecap="butt" stroke-miterlimit="10" stroke-linejoin="miter" fill="none" stroke="#409f9f" d="M-6.65866 37.64514-4.68005 41.7262"/>
<path transform="matrix(1.00006,0,0,-1,18.63926,77.374)" stroke-width=".79701" stroke-linecap="butt" stroke-miterlimit="10" stroke-linejoin="miter" fill="none" stroke="#409f9f" d="M-6.38666 43.20378-4.95206 47.50632"/>
<path transform="matrix(1.00006,0,0,-1,18.63926,77.374)" stroke-width=".79701" stroke-linecap="butt" stroke-miterlimit="10" stroke-linejoin="miter" fill="none" stroke="#409f9f" d="M-6.21121 48.82265-5.1275 53.22621"/>
<path transform="matrix(1.00006,0,0,-1,18.63926,77.374)" stroke-width=".79701" stroke-linecap="butt" stroke-miterlimit="10" stroke-linejoin="miter" fill="none" stroke="#409f9f" d="M-1.97617-29.458 1.97617-27.2358"/>
<path transform="matrix(1.00006,0,0,-1,18.63926,77.374)" stroke-width=".79701" stroke-linecap="butt" stroke-miterlimit="10" stroke-linejoin="miter" fill="none" stroke="#409f9f" d="M-2.26752-22.67752H2.26752"/>
<path transform="matrix(1.00006,0,0,-1,18.63926,77.374)" stroke-width=".79701" stroke-linecap="butt" stroke-miterlimit="10" stroke-linejoin="miter" fill="none" stroke="#409f9f" d="M-2.07826-16.09947 2.07826-17.9168"/>
<path transform="matrix(1.00006,0,0,-1,18.63926,77.374)" stroke-width=".79701" stroke-linecap="butt" stroke-miterlimit="10" stroke-linejoin="miter" fill="none" stroke="#409f9f" d="M-1.81422-9.97816 1.81422-12.69934"/>
<path transform="matrix(1.00006,0,0,-1,18.63926,77.374)" stroke-width=".79701" stroke-linecap="butt" stroke-miterlimit="10" stroke-linejoin="miter" fill="none" stroke="#409f9f" d="M-1.65436-4.1188 1.65436-7.21991"/>
<path transform="matrix(1.00006,0,0,-1,18.63926,77.374)" stroke-width=".79701" stroke-linecap="butt" stroke-miterlimit="10" stroke-linejoin="miter" fill="none" stroke="#409f9f" d="M-1.60315 1.6035 1.60315-1.6035"/>
<path transform="matrix(1.00006,0,0,-1,18.63926,77.374)" stroke-width=".79701" stroke-linecap="butt" stroke-miterlimit="10" stroke-linejoin="miter" fill="none" stroke="#409f9f" d="M-1.65436 7.21991 1.65436 4.1188"/>
<path transform="matrix(1.00006,0,0,-1,18.63926,77.374)" stroke-width=".79701" stroke-linecap="butt" stroke-miterlimit="10" stroke-linejoin="miter" fill="none" stroke="#409f9f" d="M-1.81422 12.69934 1.81422 9.97816"/>
<path transform="matrix(1.00006,0,0,-1,18.63926,77.374)" stroke-width=".79701" stroke-linecap="butt" stroke-miterlimit="10" stroke-linejoin="miter" fill="none" stroke="#409f9f" d="M-2.07826 17.9168 2.07826 16.09947"/>
<path transform="matrix(1.00006,0,0,-1,18.63926,77.374)" stroke-width=".79701" stroke-linecap="butt" stroke-miterlimit="10" stroke-linejoin="miter" fill="none" stroke="#409f9f" d="M-2.26752 22.67752H2.26752"/>
<path transform="matrix(1.00006,0,0,-1,18.63926,77.374)" stroke-width=".79701" stroke-linecap="butt" stroke-miterlimit="10" stroke-linejoin="miter" fill="none" stroke="#409f9f" d="M-1.97617 27.2358 1.97617 29.458"/>
<path transform="matrix(1.00006,0,0,-1,18.63926,77.374)" stroke-width=".79701" stroke-linecap="butt" stroke-miterlimit="10" stroke-linejoin="miter" fill="none" stroke="#409f9f" d="M-1.41594 32.24634 1.41594 35.78621"/>
<path transform="matrix(1.00006,0,0,-1,18.63926,77.374)" stroke-width=".79701" stroke-linecap="butt" stroke-miterlimit="10" stroke-linejoin="miter" fill="none" stroke="#409f9f" d="M-.98929 37.64514 .98929 41.7262"/>
<path transform="matrix(1.00006,0,0,-1,18.63926,77.374)" stroke-width=".79701" stroke-linecap="butt" stroke-miterlimit="10" stroke-linejoin="miter" fill="none" stroke="#409f9f" d="M-.7173 43.20378 .7173 47.50632"/>
<path transform="matrix(1.00006,0,0,-1,18.63926,77.374)" stroke-width=".79701" stroke-linecap="butt" stroke-miterlimit="10" stroke-linejoin="miter" fill="none" stroke="#409f9f" d="M-.54185 48.82265 .54185 53.22621"/>
<path transform="matrix(1.00006,0,0,-1,18.63926,77.374)" stroke-width=".79701" stroke-linecap="butt" stroke-miterlimit="10" stroke-linejoin="miter" fill="none" stroke="#409f9f" d="M3.69319-29.458 7.64552-27.2358"/>
<path transform="matrix(1.00006,0,0,-1,18.63926,77.374)" stroke-width=".79701" stroke-linecap="butt" stroke-miterlimit="10" stroke-linejoin="miter" fill="none" stroke="#409f9f" d="M3.40182-22.67752H7.93689"/>
<path transform="matrix(1.00006,0,0,-1,18.63926,77.374)" stroke-width=".79701" stroke-linecap="butt" stroke-miterlimit="10" stroke-linejoin="miter" fill="none" stroke="#409f9f" d="M3.5911-16.09947 7.74762-17.9168"/>
<path transform="matrix(1.00006,0,0,-1,18.63926,77.374)" stroke-width=".79701" stroke-linecap="butt" stroke-miterlimit="10" stroke-linejoin="miter" fill="none" stroke="#409f9f" d="M3.85512-9.97816 7.4836-12.69934"/>
<path transform="matrix(1.00006,0,0,-1,18.63926,77.374)" stroke-width=".79701" stroke-linecap="butt" stroke-miterlimit="10" stroke-linejoin="miter" fill="none" stroke="#409f9f" d="M4.01498-4.1188 7.32373-7.21991"/>
<path transform="matrix(1.00006,0,0,-1,18.63926,77.374)" stroke-width=".79701" stroke-linecap="butt" stroke-miterlimit="10" stroke-linejoin="miter" fill="none" stroke="#409f9f" d="M4.06621 1.6035 7.2725-1.6035"/>
<path transform="matrix(1.00006,0,0,-1,18.63926,77.374)" stroke-width=".79701" stroke-linecap="butt" stroke-miterlimit="10" stroke-linejoin="miter" fill="none" stroke="#409f9f" d="M4.01498 7.21991 7.32373 4.1188"/>
<path transform="matrix(1.00006,0,0,-1,18.63926,77.374)" stroke-width=".79701" stroke-linecap="butt" stroke-miterlimit="10" stroke-linejoin="miter" fill="none" stroke="#409f9f" d="M3.85512 12.69934 7.4836 9.97816"/>
<path transform="matrix(1.00006,0,0,-1,18.63926,77.374)" stroke-width=".79701" stroke-linecap="butt" stroke-miterlimit="10" stroke-linejoin="miter" fill="none" stroke="#409f9f" d="M3.5911 17.9168 7.74762 16.09947"/>
<path transform="matrix(1.00006,0,0,-1,18.63926,77.374)" stroke-width=".79701" stroke-linecap="butt" stroke-miterlimit="10" stroke-linejoin="miter" fill="none" stroke="#409f9f" d="M3.40182 22.67752H7.93689"/>
<path transform="matrix(1.00006,0,0,-1,18.63926,77.374)" stroke-width=".79701" stroke-linecap="butt" stroke-miterlimit="10" stroke-linejoin="miter" fill="none" stroke="#409f9f" d="M3.69319 27.2358 7.64552 29.458"/>
<path transform="matrix(1.00006,0,0,-1,18.63926,77.374)" stroke-width=".79701" stroke-linecap="butt" stroke-miterlimit="10" stroke-linejoin="miter" fill="none" stroke="#409f9f" d="M4.25342 32.24634 7.0853 35.78621"/>
<path transform="matrix(1.00006,0,0,-1,18.63926,77.374)" stroke-width=".79701" stroke-linecap="butt" stroke-miterlimit="10" stroke-linejoin="miter" fill="none" stroke="#409f9f" d="M4.68005 37.64514 6.65866 41.7262"/>
<path transform="matrix(1.00006,0,0,-1,18.63926,77.374)" stroke-width=".79701" stroke-linecap="butt" stroke-miterlimit="10" stroke-linejoin="miter" fill="none" stroke="#409f9f" d="M4.95206 43.20378 6.38666 47.50632"/>
<path transform="matrix(1.00006,0,0,-1,18.63926,77.374)" stroke-width=".79701" stroke-linecap="butt" stroke-miterlimit="10" stroke-linejoin="miter" fill="none" stroke="#409f9f" d="M5.1275 48.82265 6.21121 53.22621"/>
<path transform="matrix(1.00006,0,0,-1,18.63926,77.374)" stroke-width=".79701" stroke-linecap="butt" stroke-miterlimit="10" stroke-linejoin="miter" fill="none" stroke="#409f9f" d="M9.36258-29.458 13.31493-27.2358"/>
<path transform="matrix(1.00006,0,0,-1,18.63926,77.374)" stroke-width=".79701" stroke-linecap="butt" stroke-miterlimit="10" stroke-linejoin="miter" fill="none" stroke="#409f9f" d="M9.07123-22.67752H13.60628"/>
<path transform="matrix(1.00006,0,0,-1,18.63926,77.374)" stroke-width=".79701" stroke-linecap="butt" stroke-miterlimit="10" stroke-linejoin="miter" fill="none" stroke="#409f9f" d="M9.26048-16.09947 13.41702-17.9168"/>
<path transform="matrix(1.00006,0,0,-1,18.63926,77.374)" stroke-width=".79701" stroke-linecap="butt" stroke-miterlimit="10" stroke-linejoin="miter" fill="none" stroke="#409f9f" d="M9.52452-9.97816 13.15298-12.69934"/>
<path transform="matrix(1.00006,0,0,-1,18.63926,77.374)" stroke-width=".79701" stroke-linecap="butt" stroke-miterlimit="10" stroke-linejoin="miter" fill="none" stroke="#409f9f" d="M9.68439-4.1188 12.99312-7.21991"/>
<path transform="matrix(1.00006,0,0,-1,18.63926,77.374)" stroke-width=".79701" stroke-linecap="butt" stroke-miterlimit="10" stroke-linejoin="miter" fill="none" stroke="#409f9f" d="M9.7356 1.6035 12.94191-1.6035"/>
<path transform="matrix(1.00006,0,0,-1,18.63926,77.374)" stroke-width=".79701" stroke-linecap="butt" stroke-miterlimit="10" stroke-linejoin="miter" fill="none" stroke="#409f9f" d="M9.68439 7.21991 12.99312 4.1188"/>
<path transform="matrix(1.00006,0,0,-1,18.63926,77.374)" stroke-width=".79701" stroke-linecap="butt" stroke-miterlimit="10" stroke-linejoin="miter" fill="none" stroke="#409f9f" d="M9.52452 12.69934 13.15298 9.97816"/>
<path transform="matrix(1.00006,0,0,-1,18.63926,77.374)" stroke-width=".79701" stroke-linecap="butt" stroke-miterlimit="10" stroke-linejoin="miter" fill="none" stroke="#409f9f" d="M9.26048 17.9168 13.41702 16.09947"/>
<path transform="matrix(1.00006,0,0,-1,18.63926,77.374)" stroke-width=".79701" stroke-linecap="butt" stroke-miterlimit="10" stroke-linejoin="miter" fill="none" stroke="#409f9f" d="M9.07123 22.67752H13.60628"/>
<path transform="matrix(1.00006,0,0,-1,18.63926,77.374)" stroke-width=".79701" stroke-linecap="butt" stroke-miterlimit="10" stroke-linejoin="miter" fill="none" stroke="#409f9f" d="M9.36258 27.2358 13.31493 29.458"/>
<path transform="matrix(1.00006,0,0,-1,18.63926,77.374)" stroke-width=".79701" stroke-linecap="butt" stroke-miterlimit="10" stroke-linejoin="miter" fill="none" stroke="#409f9f" d="M9.9228 32.24634 12.7547 35.78621"/>
<path transform="matrix(1.00006,0,0,-1,18.63926,77.374)" stroke-width=".79701" stroke-linecap="butt" stroke-miterlimit="10" stroke-linejoin="miter" fill="none" stroke="#409f9f" d="M10.34946 37.64514 12.32805 41.7262"/>
<path transform="matrix(1.00006,0,0,-1,18.63926,77.374)" stroke-width=".79701" stroke-linecap="butt" stroke-miterlimit="10" stroke-linejoin="miter" fill="none" stroke="#409f9f" d="M10.62144 43.20378 12.05606 47.50632"/>
<path transform="matrix(1.00006,0,0,-1,18.63926,77.374)" stroke-width=".79701" stroke-linecap="butt" stroke-miterlimit="10" stroke-linejoin="miter" fill="none" stroke="#409f9f" d="M10.79689 48.82265 11.88062 53.22621"/>
<path transform="matrix(1.00006,0,0,-1,18.63926,77.374)" stroke-width=".79701" stroke-linecap="butt" stroke-miterlimit="10" stroke-linejoin="miter" fill="none" stroke="#409f9f" d="M15.03197-29.458 18.9843-27.2358"/>
<path transform="matrix(1.00006,0,0,-1,18.63926,77.374)" stroke-width=".79701" stroke-linecap="butt" stroke-miterlimit="10" stroke-linejoin="miter" fill="none" stroke="#409f9f" d="M14.7406-22.67752H19.27567"/>
<path transform="matrix(1.00006,0,0,-1,18.63926,77.374)" stroke-width=".79701" stroke-linecap="butt" stroke-miterlimit="10" stroke-linejoin="miter" fill="none" stroke="#409f9f" d="M14.92987-16.09947 19.0864-17.9168"/>
<path transform="matrix(1.00006,0,0,-1,18.63926,77.374)" stroke-width=".79701" stroke-linecap="butt" stroke-miterlimit="10" stroke-linejoin="miter" fill="none" stroke="#409f9f" d="M15.1939-9.97816 18.82237-12.69934"/>
<path transform="matrix(1.00006,0,0,-1,18.63926,77.374)" stroke-width=".79701" stroke-linecap="butt" stroke-miterlimit="10" stroke-linejoin="miter" fill="none" stroke="#409f9f" d="M15.35376-4.1188 18.6625-7.21991"/>
<path transform="matrix(1.00006,0,0,-1,18.63926,77.374)" stroke-width=".79701" stroke-linecap="butt" stroke-miterlimit="10" stroke-linejoin="miter" fill="none" stroke="#409f9f" d="M15.40498 1.6035 18.61128-1.6035"/>
<path transform="matrix(1.00006,0,0,-1,18.63926,77.374)" stroke-width=".79701" stroke-linecap="butt" stroke-miterlimit="10" stroke-linejoin="miter" fill="none" stroke="#409f9f" d="M15.35376 7.21991 18.6625 4.1188"/>
<path transform="matrix(1.00006,0,0,-1,18.63926,77.374)" stroke-width=".79701" stroke-linecap="butt" stroke-miterlimit="10" stroke-linejoin="miter" fill="none" stroke="#409f9f" d="M15.1939 12.69934 18.82237 9.97816"/>
<path transform="matrix(1.00006,0,0,-1,18.63926,77.374)" stroke-width=".79701" stroke-linecap="butt" stroke-miterlimit="10" stroke-linejoin="miter" fill="none" stroke="#409f9f" d="M14.92987 17.9168 19.0864 16.09947"/>
<path transform="matrix(1.00006,0,0,-1,18.63926,77.374)" stroke-width=".79701" stroke-linecap="butt" stroke-miterlimit="10" stroke-linejoin="miter" fill="none" stroke="#409f9f" d="M14.7406 22.67752H19.27567"/>
<path transform="matrix(1.00006,0,0,-1,18.63926,77.374)" stroke-width=".79701" stroke-linecap="butt" stroke-miterlimit="10" stroke-linejoin="miter" fill="none" stroke="#409f9f" d="M15.03197 27.2358 18.9843 29.458"/>
<path transform="matrix(1.00006,0,0,-1,18.63926,77.374)" stroke-width=".79701" stroke-linecap="butt" stroke-miterlimit="10" stroke-linejoin="miter" fill="none" stroke="#409f9f" d="M15.5922 32.24634 18.42407 35.78621"/>
<path transform="matrix(1.00006,0,0,-1,18.63926,77.374)" stroke-width=".79701" stroke-linecap="butt" stroke-miterlimit="10" stroke-linejoin="miter" fill="none" stroke="#409f9f" d="M16.01883 37.64514 17.99744 41.7262"/>
<path transform="matrix(1.00006,0,0,-1,18.63926,77.374)" stroke-width=".79701" stroke-linecap="butt" stroke-miterlimit="10" stroke-linejoin="miter" fill="none" stroke="#409f9f" d="M16.29083 43.20378 17.72543 47.50632"/>
<path transform="matrix(1.00006,0,0,-1,18.63926,77.374)" stroke-width=".79701" stroke-linecap="butt" stroke-miterlimit="10" stroke-linejoin="miter" fill="none" stroke="#409f9f" d="M16.46628 48.82265 17.54999 53.22621"/>
<path transform="matrix(1.00006,0,0,-1,18.63926,77.374)" stroke-width=".79701" stroke-linecap="butt" stroke-miterlimit="10" stroke-linejoin="miter" fill="none" stroke="#409f9f" d="M20.70134-29.458 24.65369-27.2358"/>
<path transform="matrix(1.00006,0,0,-1,18.63926,77.374)" stroke-width=".79701" stroke-linecap="butt" stroke-miterlimit="10" stroke-linejoin="miter" fill="none" stroke="#409f9f" d="M20.40999-22.67752H24.94504"/>
<path transform="matrix(1.00006,0,0,-1,18.63926,77.374)" stroke-width=".79701" stroke-linecap="butt" stroke-miterlimit="10" stroke-linejoin="miter" fill="none" stroke="#409f9f" d="M20.59924-16.09947 24.75578-17.9168"/>
<path transform="matrix(1.00006,0,0,-1,18.63926,77.374)" stroke-width=".79701" stroke-linecap="butt" stroke-miterlimit="10" stroke-linejoin="miter" fill="none" stroke="#409f9f" d="M20.86328-9.97816 24.49174-12.69934"/>
<path transform="matrix(1.00006,0,0,-1,18.63926,77.374)" stroke-width=".79701" stroke-linecap="butt" stroke-miterlimit="10" stroke-linejoin="miter" fill="none" stroke="#409f9f" d="M21.02315-4.1188 24.33188-7.21991"/>
<path transform="matrix(1.00006,0,0,-1,18.63926,77.374)" stroke-width=".79701" stroke-linecap="butt" stroke-miterlimit="10" stroke-linejoin="miter" fill="none" stroke="#409f9f" d="M21.07436 1.6035 24.28067-1.6035"/>
<path transform="matrix(1.00006,0,0,-1,18.63926,77.374)" stroke-width=".79701" stroke-linecap="butt" stroke-miterlimit="10" stroke-linejoin="miter" fill="none" stroke="#409f9f" d="M21.02315 7.21991 24.33188 4.1188"/>
<path transform="matrix(1.00006,0,0,-1,18.63926,77.374)" stroke-width=".79701" stroke-linecap="butt" stroke-miterlimit="10" stroke-linejoin="miter" fill="none" stroke="#409f9f" d="M20.86328 12.69934 24.49174 9.97816"/>
<path transform="matrix(1.00006,0,0,-1,18.63926,77.374)" stroke-width=".79701" stroke-linecap="butt" stroke-miterlimit="10" stroke-linejoin="miter" fill="none" stroke="#409f9f" d="M20.59924 17.9168 24.75578 16.09947"/>
<path transform="matrix(1.00006,0,0,-1,18.63926,77.374)" stroke-width=".79701" stroke-linecap="butt" stroke-miterlimit="10" stroke-linejoin="miter" fill="none" stroke="#409f9f" d="M20.40999 22.67752H24.94504"/>
<path transform="matrix(1.00006,0,0,-1,18.63926,77.374)" stroke-width=".79701" stroke-linecap="butt" stroke-miterlimit="10" stroke-linejoin="miter" fill="none" stroke="#409f9f" d="M20.70134 27.2358 24.65369 29.458"/>
<path transform="matrix(1.00006,0,0,-1,18.63926,77.374)" stroke-width=".79701" stroke-linecap="butt" stroke-miterlimit="10" stroke-linejoin="miter" fill="none" stroke="#409f9f" d="M21.26157 32.24634 24.09346 35.78621"/>
<path transform="matrix(1.00006,0,0,-1,18.63926,77.374)" stroke-width=".79701" stroke-linecap="butt" stroke-miterlimit="10" stroke-linejoin="miter" fill="none" stroke="#409f9f" d="M21.68822 37.64514 23.66681 41.7262"/>
<path transform="matrix(1.00006,0,0,-1,18.63926,77.374)" stroke-width=".79701" stroke-linecap="butt" stroke-miterlimit="10" stroke-linejoin="miter" fill="none" stroke="#409f9f" d="M21.9602 43.20378 23.39482 47.50632"/>
<path transform="matrix(1.00006,0,0,-1,18.63926,77.374)" stroke-width=".79701" stroke-linecap="butt" stroke-miterlimit="10" stroke-linejoin="miter" fill="none" stroke="#409f9f" d="M22.13565 48.82265 23.21938 53.22621"/>
<path transform="matrix(1.00006,0,0,-1,18.63926,77.374)" stroke-width=".79701" stroke-linecap="butt" stroke-miterlimit="10" stroke-linejoin="miter" fill="none" stroke="#409f9f" d="M26.37073-29.458 30.32306-27.2358"/>
<path transform="matrix(1.00006,0,0,-1,18.63926,77.374)" stroke-width=".79701" stroke-linecap="butt" stroke-miterlimit="10" stroke-linejoin="miter" fill="none" stroke="#409f9f" d="M26.07936-22.67752H30.61443"/>
<path transform="matrix(1.00006,0,0,-1,18.63926,77.374)" stroke-width=".79701" stroke-linecap="butt" stroke-miterlimit="10" stroke-linejoin="miter" fill="none" stroke="#409f9f" d="M26.26863-16.09947 30.42516-17.9168"/>
<path transform="matrix(1.00006,0,0,-1,18.63926,77.374)" stroke-width=".79701" stroke-linecap="butt" stroke-miterlimit="10" stroke-linejoin="miter" fill="none" stroke="#409f9f" d="M26.53265-9.97816 30.16113-12.69934"/>
<path transform="matrix(1.00006,0,0,-1,18.63926,77.374)" stroke-width=".79701" stroke-linecap="butt" stroke-miterlimit="10" stroke-linejoin="miter" fill="none" stroke="#409f9f" d="M26.69252-4.1188 30.00127-7.21991"/>
<path transform="matrix(1.00006,0,0,-1,18.63926,77.374)" stroke-width=".79701" stroke-linecap="butt" stroke-miterlimit="10" stroke-linejoin="miter" fill="none" stroke="#409f9f" d="M26.74374 1.6035 29.95004-1.6035"/>
<path transform="matrix(1.00006,0,0,-1,18.63926,77.374)" stroke-width=".79701" stroke-linecap="butt" stroke-miterlimit="10" stroke-linejoin="miter" fill="none" stroke="#409f9f" d="M26.69252 7.21991 30.00127 4.1188"/>
<path transform="matrix(1.00006,0,0,-1,18.63926,77.374)" stroke-width=".79701" stroke-linecap="butt" stroke-miterlimit="10" stroke-linejoin="miter" fill="none" stroke="#409f9f" d="M26.53265 12.69934 30.16113 9.97816"/>
<path transform="matrix(1.00006,0,0,-1,18.63926,77.374)" stroke-width=".79701" stroke-linecap="butt" stroke-miterlimit="10" stroke-linejoin="miter" fill="none" stroke="#409f9f" d="M26.26863 17.9168 30.42516 16.09947"/>
<path transform="matrix(1.00006,0,0,-1,18.63926,77.374)" stroke-width=".79701" stroke-linecap="butt" stroke-miterlimit="10" stroke-linejoin="miter" fill="none" stroke="#409f9f" d="M26.07936 22.67752H30.61443"/>
<path transform="matrix(1.00006,0,0,-1,18.63926,77.374)" stroke-width=".79701" stroke-linecap="butt" stroke-miterlimit="10" stroke-linejoin="miter" fill="none" stroke="#409f9f" d="M26.37073 27.2358 30.32306 29.458"/>
<path transform="matrix(1.00006,0,0,-1,18.63926,77.374)" stroke-width=".79701" stroke-linecap="butt" stroke-miterlimit="10" stroke-linejoin="miter" fill="none" stroke="#409f9f" d="M26.93095 32.24634 29.76283 35.78621"/>
<path transform="matrix(1.00006,0,0,-1,18.63926,77.374)" stroke-width=".79701" stroke-linecap="butt" stroke-miterlimit="10" stroke-linejoin="miter" fill="none" stroke="#409f9f" d="M27.35759 37.64514 29.3362 41.7262"/>
<path transform="matrix(1.00006,0,0,-1,18.63926,77.374)" stroke-width=".79701" stroke-linecap="butt" stroke-miterlimit="10" stroke-linejoin="miter" fill="none" stroke="#409f9f" d="M27.6296 43.20378 29.0642 47.50632"/>
<path transform="matrix(1.00006,0,0,-1,18.63926,77.374)" stroke-width=".79701" stroke-linecap="butt" stroke-miterlimit="10" stroke-linejoin="miter" fill="none" stroke="#409f9f" d="M27.80504 48.82265 28.88875 53.22621"/>
<path transform="matrix(1.00006,0,0,-1,18.63926,77.374)" stroke-width=".79701" stroke-linecap="butt" stroke-miterlimit="10" stroke-linejoin="miter" fill="none" stroke="#409f9f" d="M32.0401-29.458 35.99245-27.2358"/>
<path transform="matrix(1.00006,0,0,-1,18.63926,77.374)" stroke-width=".79701" stroke-linecap="butt" stroke-miterlimit="10" stroke-linejoin="miter" fill="none" stroke="#409f9f" d="M31.74875-22.67752H36.2838"/>
<path transform="matrix(1.00006,0,0,-1,18.63926,77.374)" stroke-width=".79701" stroke-linecap="butt" stroke-miterlimit="10" stroke-linejoin="miter" fill="none" stroke="#409f9f" d="M31.93802-16.09947 36.09454-17.9168"/>
<path transform="matrix(1.00006,0,0,-1,18.63926,77.374)" stroke-width=".79701" stroke-linecap="butt" stroke-miterlimit="10" stroke-linejoin="miter" fill="none" stroke="#409f9f" d="M32.20204-9.97816 35.8305-12.69934"/>
<path transform="matrix(1.00006,0,0,-1,18.63926,77.374)" stroke-width=".79701" stroke-linecap="butt" stroke-miterlimit="10" stroke-linejoin="miter" fill="none" stroke="#409f9f" d="M32.36191-4.1188 35.67064-7.21991"/>
<path transform="matrix(1.00006,0,0,-1,18.63926,77.374)" stroke-width=".79701" stroke-linecap="butt" stroke-miterlimit="10" stroke-linejoin="miter" fill="none" stroke="#409f9f" d="M32.41312 1.6035 35.61943-1.6035"/>
<path transform="matrix(1.00006,0,0,-1,18.63926,77.374)" stroke-width=".79701" stroke-linecap="butt" stroke-miterlimit="10" stroke-linejoin="miter" fill="none" stroke="#409f9f" d="M32.36191 7.21991 35.67064 4.1188"/>
<path transform="matrix(1.00006,0,0,-1,18.63926,77.374)" stroke-width=".79701" stroke-linecap="butt" stroke-miterlimit="10" stroke-linejoin="miter" fill="none" stroke="#409f9f" d="M32.20204 12.69934 35.8305 9.97816"/>
<path transform="matrix(1.00006,0,0,-1,18.63926,77.374)" stroke-width=".79701" stroke-linecap="butt" stroke-miterlimit="10" stroke-linejoin="miter" fill="none" stroke="#409f9f" d="M31.93802 17.9168 36.09454 16.09947"/>
<path transform="matrix(1.00006,0,0,-1,18.63926,77.374)" stroke-width=".79701" stroke-linecap="butt" stroke-miterlimit="10" stroke-linejoin="miter" fill="none" stroke="#409f9f" d="M31.74875 22.67752H36.2838"/>
<path transform="matrix(1.00006,0,0,-1,18.63926,77.374)" stroke-width=".79701" stroke-linecap="butt" stroke-miterlimit="10" stroke-linejoin="miter" fill="none" stroke="#409f9f" d="M32.0401 27.2358 35.99245 29.458"/>
<path transform="matrix(1.00006,0,0,-1,18.63926,77.374)" stroke-width=".79701" stroke-linecap="butt" stroke-miterlimit="10" stroke-linejoin="miter" fill="none" stroke="#409f9f" d="M32.60033 32.24634 35.43222 35.78621"/>
<path transform="matrix(1.00006,0,0,-1,18.63926,77.374)" stroke-width=".79701" stroke-linecap="butt" stroke-miterlimit="10" stroke-linejoin="miter" fill="none" stroke="#409f9f" d="M33.02698 37.64514 35.00557 41.7262"/>
<path transform="matrix(1.00006,0,0,-1,18.63926,77.374)" stroke-width=".79701" stroke-linecap="butt" stroke-miterlimit="10" stroke-linejoin="miter" fill="none" stroke="#409f9f" d="M33.29897 43.20378 34.73358 47.50632"/>
<path transform="matrix(1.00006,0,0,-1,18.63926,77.374)" stroke-width=".79701" stroke-linecap="butt" stroke-miterlimit="10" stroke-linejoin="miter" fill="none" stroke="#409f9f" d="M33.47441 48.82265 34.55814 53.22621"/>
<path transform="matrix(1.00006,0,0,-1,18.63926,77.374)" stroke-width=".79701" stroke-linecap="butt" stroke-miterlimit="10" stroke-linejoin="miter" fill="none" stroke="#409f9f" d="M37.7095-29.458 41.66183-27.2358"/>
<path transform="matrix(1.00006,0,0,-1,18.63926,77.374)" stroke-width=".79701" stroke-linecap="butt" stroke-miterlimit="10" stroke-linejoin="miter" fill="none" stroke="#409f9f" d="M37.41814-22.67752H41.9532"/>
<path transform="matrix(1.00006,0,0,-1,18.63926,77.374)" stroke-width=".79701" stroke-linecap="butt" stroke-miterlimit="10" stroke-linejoin="miter" fill="none" stroke="#409f9f" d="M37.6074-16.09947 41.76393-17.9168"/>
<path transform="matrix(1.00006,0,0,-1,18.63926,77.374)" stroke-width=".79701" stroke-linecap="butt" stroke-miterlimit="10" stroke-linejoin="miter" fill="none" stroke="#409f9f" d="M37.87143-9.97816 41.49991-12.69934"/>
<path transform="matrix(1.00006,0,0,-1,18.63926,77.374)" stroke-width=".79701" stroke-linecap="butt" stroke-miterlimit="10" stroke-linejoin="miter" fill="none" stroke="#409f9f" d="M38.0313-4.1188 41.34004-7.21991"/>
<path transform="matrix(1.00006,0,0,-1,18.63926,77.374)" stroke-width=".79701" stroke-linecap="butt" stroke-miterlimit="10" stroke-linejoin="miter" fill="none" stroke="#409f9f" d="M38.08252 1.6035 41.28882-1.6035"/>
<path transform="matrix(1.00006,0,0,-1,18.63926,77.374)" stroke-width=".79701" stroke-linecap="butt" stroke-miterlimit="10" stroke-linejoin="miter" fill="none" stroke="#409f9f" d="M38.0313 7.21991 41.34004 4.1188"/>
<path transform="matrix(1.00006,0,0,-1,18.63926,77.374)" stroke-width=".79701" stroke-linecap="butt" stroke-miterlimit="10" stroke-linejoin="miter" fill="none" stroke="#409f9f" d="M37.87143 12.69934 41.49991 9.97816"/>
<path transform="matrix(1.00006,0,0,-1,18.63926,77.374)" stroke-width=".79701" stroke-linecap="butt" stroke-miterlimit="10" stroke-linejoin="miter" fill="none" stroke="#409f9f" d="M37.6074 17.9168 41.76393 16.09947"/>
<path transform="matrix(1.00006,0,0,-1,18.63926,77.374)" stroke-width=".79701" stroke-linecap="butt" stroke-miterlimit="10" stroke-linejoin="miter" fill="none" stroke="#409f9f" d="M37.41814 22.67752H41.9532"/>
<path transform="matrix(1.00006,0,0,-1,18.63926,77.374)" stroke-width=".79701" stroke-linecap="butt" stroke-miterlimit="10" stroke-linejoin="miter" fill="none" stroke="#409f9f" d="M37.7095 27.2358 41.66183 29.458"/>
<path transform="matrix(1.00006,0,0,-1,18.63926,77.374)" stroke-width=".79701" stroke-linecap="butt" stroke-miterlimit="10" stroke-linejoin="miter" fill="none" stroke="#409f9f" d="M38.26973 32.24634 41.10161 35.78621"/>
<path transform="matrix(1.00006,0,0,-1,18.63926,77.374)" stroke-width=".79701" stroke-linecap="butt" stroke-miterlimit="10" stroke-linejoin="miter" fill="none" stroke="#409f9f" d="M38.69637 37.64514 40.67497 41.7262"/>
<path transform="matrix(1.00006,0,0,-1,18.63926,77.374)" stroke-width=".79701" stroke-linecap="butt" stroke-miterlimit="10" stroke-linejoin="miter" fill="none" stroke="#409f9f" d="M38.96837 43.20378 40.40297 47.50632"/>
<path transform="matrix(1.00006,0,0,-1,18.63926,77.374)" stroke-width=".79701" stroke-linecap="butt" stroke-miterlimit="10" stroke-linejoin="miter" fill="none" stroke="#409f9f" d="M39.14381 48.82265 40.22752 53.22621"/>
<path transform="matrix(1.00006,0,0,-1,18.63926,77.374)" stroke-width=".79701" stroke-linecap="butt" stroke-miterlimit="10" stroke-linejoin="miter" fill="none" stroke="#409f9f" d="M43.37888-29.458 47.33122-27.2358"/>
<path transform="matrix(1.00006,0,0,-1,18.63926,77.374)" stroke-width=".79701" stroke-linecap="butt" stroke-miterlimit="10" stroke-linejoin="miter" fill="none" stroke="#409f9f" d="M43.08752-22.67752H47.62257"/>
<path transform="matrix(1.00006,0,0,-1,18.63926,77.374)" stroke-width=".79701" stroke-linecap="butt" stroke-miterlimit="10" stroke-linejoin="miter" fill="none" stroke="#409f9f" d="M43.2768-16.09947 47.43332-17.9168"/>
<path transform="matrix(1.00006,0,0,-1,18.63926,77.374)" stroke-width=".79701" stroke-linecap="butt" stroke-miterlimit="10" stroke-linejoin="miter" fill="none" stroke="#409f9f" d="M43.54082-9.97816 47.16928-12.69934"/>
<path transform="matrix(1.00006,0,0,-1,18.63926,77.374)" stroke-width=".79701" stroke-linecap="butt" stroke-miterlimit="10" stroke-linejoin="miter" fill="none" stroke="#409f9f" d="M43.70068-4.1188 47.00941-7.21991"/>
<path transform="matrix(1.00006,0,0,-1,18.63926,77.374)" stroke-width=".79701" stroke-linecap="butt" stroke-miterlimit="10" stroke-linejoin="miter" fill="none" stroke="#409f9f" d="M43.75189 1.6035 46.9582-1.6035"/>
<path transform="matrix(1.00006,0,0,-1,18.63926,77.374)" stroke-width=".79701" stroke-linecap="butt" stroke-miterlimit="10" stroke-linejoin="miter" fill="none" stroke="#409f9f" d="M43.70068 7.21991 47.00941 4.1188"/>
<path transform="matrix(1.00006,0,0,-1,18.63926,77.374)" stroke-width=".79701" stroke-linecap="butt" stroke-miterlimit="10" stroke-linejoin="miter" fill="none" stroke="#409f9f" d="M43.54082 12.69934 47.16928 9.97816"/>
<path transform="matrix(1.00006,0,0,-1,18.63926,77.374)" stroke-width=".79701" stroke-linecap="butt" stroke-miterlimit="10" stroke-linejoin="miter" fill="none" stroke="#409f9f" d="M43.2768 17.9168 47.43332 16.09947"/>
<path transform="matrix(1.00006,0,0,-1,18.63926,77.374)" stroke-width=".79701" stroke-linecap="butt" stroke-miterlimit="10" stroke-linejoin="miter" fill="none" stroke="#409f9f" d="M43.08752 22.67752H47.62257"/>
<path transform="matrix(1.00006,0,0,-1,18.63926,77.374)" stroke-width=".79701" stroke-linecap="butt" stroke-miterlimit="10" stroke-linejoin="miter" fill="none" stroke="#409f9f" d="M43.37888 27.2358 47.33122 29.458"/>
<path transform="matrix(1.00006,0,0,-1,18.63926,77.374)" stroke-width=".79701" stroke-linecap="butt" stroke-miterlimit="10" stroke-linejoin="miter" fill="none" stroke="#409f9f" d="M43.9391 32.24634 46.771 35.78621"/>
<path transform="matrix(1.00006,0,0,-1,18.63926,77.374)" stroke-width=".79701" stroke-linecap="butt" stroke-miterlimit="10" stroke-linejoin="miter" fill="none" stroke="#409f9f" d="M44.36575 37.64514 46.34435 41.7262"/>
<path transform="matrix(1.00006,0,0,-1,18.63926,77.374)" stroke-width=".79701" stroke-linecap="butt" stroke-miterlimit="10" stroke-linejoin="miter" fill="none" stroke="#409f9f" d="M44.63774 43.20378 46.07236 47.50632"/>
<path transform="matrix(1.00006,0,0,-1,18.63926,77.374)" stroke-width=".79701" stroke-linecap="butt" stroke-miterlimit="10" stroke-linejoin="miter" fill="none" stroke="#409f9f" d="M44.81319 48.82265 45.89691 53.22621"/>
<path transform="matrix(1.00006,0,0,-1,18.63926,77.374)" stroke-width=".79701" stroke-linecap="butt" stroke-miterlimit="10" stroke-linejoin="miter" fill="none" stroke="#409f9f" d="M49.04826-29.458 53.0006-27.2358"/>
<path transform="matrix(1.00006,0,0,-1,18.63926,77.374)" stroke-width=".79701" stroke-linecap="butt" stroke-miterlimit="10" stroke-linejoin="miter" fill="none" stroke="#409f9f" d="M48.7569-22.67752H53.29196"/>
<path transform="matrix(1.00006,0,0,-1,18.63926,77.374)" stroke-width=".79701" stroke-linecap="butt" stroke-miterlimit="10" stroke-linejoin="miter" fill="none" stroke="#409f9f" d="M48.94617-16.09947 53.10269-17.9168"/>
<path transform="matrix(1.00006,0,0,-1,18.63926,77.374)" stroke-width=".79701" stroke-linecap="butt" stroke-miterlimit="10" stroke-linejoin="miter" fill="none" stroke="#409f9f" d="M49.21019-9.97816 52.83867-12.69934"/>
<path transform="matrix(1.00006,0,0,-1,18.63926,77.374)" stroke-width=".79701" stroke-linecap="butt" stroke-miterlimit="10" stroke-linejoin="miter" fill="none" stroke="#409f9f" d="M49.37006-4.1188 52.6788-7.21991"/>
<path transform="matrix(1.00006,0,0,-1,18.63926,77.374)" stroke-width=".79701" stroke-linecap="butt" stroke-miterlimit="10" stroke-linejoin="miter" fill="none" stroke="#409f9f" d="M49.42128 1.6035 52.62758-1.6035"/>
<path transform="matrix(1.00006,0,0,-1,18.63926,77.374)" stroke-width=".79701" stroke-linecap="butt" stroke-miterlimit="10" stroke-linejoin="miter" fill="none" stroke="#409f9f" d="M49.37006 7.21991 52.6788 4.1188"/>
<path transform="matrix(1.00006,0,0,-1,18.63926,77.374)" stroke-width=".79701" stroke-linecap="butt" stroke-miterlimit="10" stroke-linejoin="miter" fill="none" stroke="#409f9f" d="M49.21019 12.69934 52.83867 9.97816"/>
<path transform="matrix(1.00006,0,0,-1,18.63926,77.374)" stroke-width=".79701" stroke-linecap="butt" stroke-miterlimit="10" stroke-linejoin="miter" fill="none" stroke="#409f9f" d="M48.94617 17.9168 53.10269 16.09947"/>
<path transform="matrix(1.00006,0,0,-1,18.63926,77.374)" stroke-width=".79701" stroke-linecap="butt" stroke-miterlimit="10" stroke-linejoin="miter" fill="none" stroke="#409f9f" d="M48.7569 22.67752H53.29196"/>
<path transform="matrix(1.00006,0,0,-1,18.63926,77.374)" stroke-width=".79701" stroke-linecap="butt" stroke-miterlimit="10" stroke-linejoin="miter" fill="none" stroke="#409f9f" d="M49.04826 27.2358 53.0006 29.458"/>
<path transform="matrix(1.00006,0,0,-1,18.63926,77.374)" stroke-width=".79701" stroke-linecap="butt" stroke-miterlimit="10" stroke-linejoin="miter" fill="none" stroke="#409f9f" d="M49.60849 32.24634 52.44037 35.78621"/>
<path transform="matrix(1.00006,0,0,-1,18.63926,77.374)" stroke-width=".79701" stroke-linecap="butt" stroke-miterlimit="10" stroke-linejoin="miter" fill="none" stroke="#409f9f" d="M50.03513 37.64514 52.01373 41.7262"/>
<path transform="matrix(1.00006,0,0,-1,18.63926,77.374)" stroke-width=".79701" stroke-linecap="butt" stroke-miterlimit="10" stroke-linejoin="miter" fill="none" stroke="#409f9f" d="M50.30713 43.20378 51.74173 47.50632"/>
<path transform="matrix(1.00006,0,0,-1,18.63926,77.374)" stroke-width=".79701" stroke-linecap="butt" stroke-miterlimit="10" stroke-linejoin="miter" fill="none" stroke="#409f9f" d="M50.48257 48.82265 51.56628 53.22621"/>
<path transform="matrix(1.00006,0,0,-1,18.63926,77.374)" stroke-width=".79701" stroke-linecap="butt" stroke-miterlimit="10" stroke-linejoin="miter" fill="none" stroke="#409f9f" d="M54.71764-29.458 58.66998-27.2358"/>
<path transform="matrix(1.00006,0,0,-1,18.63926,77.374)" stroke-width=".79701" stroke-linecap="butt" stroke-miterlimit="10" stroke-linejoin="miter" fill="none" stroke="#409f9f" d="M54.42628-22.67752H58.96133"/>
<path transform="matrix(1.00006,0,0,-1,18.63926,77.374)" stroke-width=".79701" stroke-linecap="butt" stroke-miterlimit="10" stroke-linejoin="miter" fill="none" stroke="#409f9f" d="M54.61555-16.09947 58.77208-17.9168"/>
<path transform="matrix(1.00006,0,0,-1,18.63926,77.374)" stroke-width=".79701" stroke-linecap="butt" stroke-miterlimit="10" stroke-linejoin="miter" fill="none" stroke="#409f9f" d="M54.87958-9.97816 58.50804-12.69934"/>
<path transform="matrix(1.00006,0,0,-1,18.63926,77.374)" stroke-width=".79701" stroke-linecap="butt" stroke-miterlimit="10" stroke-linejoin="miter" fill="none" stroke="#409f9f" d="M55.03944-4.1188 58.34818-7.21991"/>
<path transform="matrix(1.00006,0,0,-1,18.63926,77.374)" stroke-width=".79701" stroke-linecap="butt" stroke-miterlimit="10" stroke-linejoin="miter" fill="none" stroke="#409f9f" d="M55.09065 1.6035 58.29697-1.6035"/>
<path transform="matrix(1.00006,0,0,-1,18.63926,77.374)" stroke-width=".79701" stroke-linecap="butt" stroke-miterlimit="10" stroke-linejoin="miter" fill="none" stroke="#409f9f" d="M55.03944 7.21991 58.34818 4.1188"/>
<path transform="matrix(1.00006,0,0,-1,18.63926,77.374)" stroke-width=".79701" stroke-linecap="butt" stroke-miterlimit="10" stroke-linejoin="miter" fill="none" stroke="#409f9f" d="M54.87958 12.69934 58.50804 9.97816"/>
<path transform="matrix(1.00006,0,0,-1,18.63926,77.374)" stroke-width=".79701" stroke-linecap="butt" stroke-miterlimit="10" stroke-linejoin="miter" fill="none" stroke="#409f9f" d="M54.61555 17.9168 58.77208 16.09947"/>
<path transform="matrix(1.00006,0,0,-1,18.63926,77.374)" stroke-width=".79701" stroke-linecap="butt" stroke-miterlimit="10" stroke-linejoin="miter" fill="none" stroke="#409f9f" d="M54.42628 22.67752H58.96133"/>
<path transform="matrix(1.00006,0,0,-1,18.63926,77.374)" stroke-width=".79701" stroke-linecap="butt" stroke-miterlimit="10" stroke-linejoin="miter" fill="none" stroke="#409f9f" d="M54.71764 27.2358 58.66998 29.458"/>
<path transform="matrix(1.00006,0,0,-1,18.63926,77.374)" stroke-width=".79701" stroke-linecap="butt" stroke-miterlimit="10" stroke-linejoin="miter" fill="none" stroke="#409f9f" d="M55.27786 32.24634 58.10976 35.78621"/>
<path transform="matrix(1.00006,0,0,-1,18.63926,77.374)" stroke-width=".79701" stroke-linecap="butt" stroke-miterlimit="10" stroke-linejoin="miter" fill="none" stroke="#409f9f" d="M55.70451 37.64514 57.6831 41.7262"/>
<path transform="matrix(1.00006,0,0,-1,18.63926,77.374)" stroke-width=".79701" stroke-linecap="butt" stroke-miterlimit="10" stroke-linejoin="miter" fill="none" stroke="#409f9f" d="M55.9765 43.20378 57.41112 47.50632"/>
<path transform="matrix(1.00006,0,0,-1,18.63926,77.374)" stroke-width=".79701" stroke-linecap="butt" stroke-miterlimit="10" stroke-linejoin="miter" fill="none" stroke="#409f9f" d="M56.15195 48.82265 57.23567 53.22621"/>
<path transform="matrix(1.00006,0,0,-1,18.63926,77.374)" stroke-width=".79701" stroke-linecap="butt" stroke-miterlimit="10" stroke-linejoin="miter" fill="none" stroke="#409f9f" d="M60.38704-29.458 64.33937-27.2358"/>
<path transform="matrix(1.00006,0,0,-1,18.63926,77.374)" stroke-width=".79701" stroke-linecap="butt" stroke-miterlimit="10" stroke-linejoin="miter" fill="none" stroke="#409f9f" d="M60.09567-22.67752H64.63074"/>
<path transform="matrix(1.00006,0,0,-1,18.63926,77.374)" stroke-width=".79701" stroke-linecap="butt" stroke-miterlimit="10" stroke-linejoin="miter" fill="none" stroke="#409f9f" d="M60.28494-16.09947 64.44147-17.9168"/>
<path transform="matrix(1.00006,0,0,-1,18.63926,77.374)" stroke-width=".79701" stroke-linecap="butt" stroke-miterlimit="10" stroke-linejoin="miter" fill="none" stroke="#409f9f" d="M60.54897-9.97816 64.17744-12.69934"/>
<path transform="matrix(1.00006,0,0,-1,18.63926,77.374)" stroke-width=".79701" stroke-linecap="butt" stroke-miterlimit="10" stroke-linejoin="miter" fill="none" stroke="#409f9f" d="M60.70883-4.1188 64.01758-7.21991"/>
<path transform="matrix(1.00006,0,0,-1,18.63926,77.374)" stroke-width=".79701" stroke-linecap="butt" stroke-miterlimit="10" stroke-linejoin="miter" fill="none" stroke="#409f9f" d="M60.76006 1.6035 63.96635-1.6035"/>
<path transform="matrix(1.00006,0,0,-1,18.63926,77.374)" stroke-width=".79701" stroke-linecap="butt" stroke-miterlimit="10" stroke-linejoin="miter" fill="none" stroke="#409f9f" d="M60.70883 7.21991 64.01758 4.1188"/>
<path transform="matrix(1.00006,0,0,-1,18.63926,77.374)" stroke-width=".79701" stroke-linecap="butt" stroke-miterlimit="10" stroke-linejoin="miter" fill="none" stroke="#409f9f" d="M60.54897 12.69934 64.17744 9.97816"/>
<path transform="matrix(1.00006,0,0,-1,18.63926,77.374)" stroke-width=".79701" stroke-linecap="butt" stroke-miterlimit="10" stroke-linejoin="miter" fill="none" stroke="#409f9f" d="M60.28494 17.9168 64.44147 16.09947"/>
<path transform="matrix(1.00006,0,0,-1,18.63926,77.374)" stroke-width=".79701" stroke-linecap="butt" stroke-miterlimit="10" stroke-linejoin="miter" fill="none" stroke="#409f9f" d="M60.09567 22.67752H64.63074"/>
<path transform="matrix(1.00006,0,0,-1,18.63926,77.374)" stroke-width=".79701" stroke-linecap="butt" stroke-miterlimit="10" stroke-linejoin="miter" fill="none" stroke="#409f9f" d="M60.38704 27.2358 64.33937 29.458"/>
<path transform="matrix(1.00006,0,0,-1,18.63926,77.374)" stroke-width=".79701" stroke-linecap="butt" stroke-miterlimit="10" stroke-linejoin="miter" fill="none" stroke="#409f9f" d="M60.94727 32.24634 63.77914 35.78621"/>
<path transform="matrix(1.00006,0,0,-1,18.63926,77.374)" stroke-width=".79701" stroke-linecap="butt" stroke-miterlimit="10" stroke-linejoin="miter" fill="none" stroke="#409f9f" d="M61.3739 37.64514 63.35251 41.7262"/>
<path transform="matrix(1.00006,0,0,-1,18.63926,77.374)" stroke-width=".79701" stroke-linecap="butt" stroke-miterlimit="10" stroke-linejoin="miter" fill="none" stroke="#409f9f" d="M61.6459 43.20378 63.0805 47.50632"/>
<path transform="matrix(1.00006,0,0,-1,18.63926,77.374)" stroke-width=".79701" stroke-linecap="butt" stroke-miterlimit="10" stroke-linejoin="miter" fill="none" stroke="#409f9f" d="M61.82135 48.82265 62.90506 53.22621"/>
<path transform="matrix(1.00006,0,0,-1,18.63926,77.374)" stroke-width=".79701" stroke-linecap="butt" stroke-miterlimit="10" stroke-linejoin="miter" fill="none" stroke="#ec008c" d="M-11.33876 10.4792-10.53734 9.83766-9.73593 9.17743-8.93451 8.49713-8.13312 7.79883-7.3317 7.08429-6.53029 6.3521-5.72887 5.60811-4.92747 4.84857-4.12607 4.07968-3.32465 3.29938-2.52325 2.50801-1.72183 1.71457-.92043 .91626-.119 .11555 .68234-.68028 1.48376-1.48099 2.28517-2.27687 3.0866-3.06651 3.88799-3.84924 4.68939-4.62225 5.49081-5.38528 6.2922-6.13477 7.09363-6.87044 7.89503-7.59053 8.69646-8.2933 9.49785-8.97812 10.29927-9.64491 11.10068-10.29095 11.90208-10.91797 12.70349-11.52249 13.5049-12.10591 14.30632-12.66785 15.10771-13.20871 15.90913-13.72775 16.71054-14.2243 17.51196-14.69907 18.31335-15.1534 19.11476-15.58733 19.91618-15.99979 20.71759-16.3922 21.519-16.76488 22.3204-17.11887 23.12183-17.45451 23.92322-17.77252 24.72464-18.07321 25.52605-18.35764 26.32747-18.62582 27.12886-18.87914 27.93027-19.11823 28.73169-19.34315 29.53308-19.55492 30.3345-19.75423 31.13591-19.94179 31.93733-20.11792 32.73872-20.28333 33.54015-20.43869 34.34155-20.58437 35.14296-20.72105 35.94437-20.84943 36.74577-20.96915 37.5472-21.08195 38.34859-21.18716 39.15001-21.28577 39.95142-21.37782 40.75284-21.46432 41.55423-21.54495 42.35564-21.62038 43.15706-21.69098 43.95847-21.75706 44.75987-21.81866 45.56128-21.87611 46.3627-21.9301 47.1641-21.98026 47.96552-22.02698 48.76692-22.07092 49.56833-22.11174 50.36974-22.14981 51.17114-22.18546 51.97256-22.21867 52.77397-22.24982 53.57538-22.27853 54.37679-22.30554 55.1782-22.33078 55.9796-22.35432 56.781-22.37611 57.58243-22.39653 58.38383-22.41592 59.18524-22.43355 59.98665-22.45016 60.78807-22.4654 61.58948-22.47993 62.39088-22.49344 63.19229-22.50589 63.9937-22.51765 64.7951-22.52837 65.59651-22.5384 66.39793-22.5481 67.19934-22.55675 68.00075-22.56505"/>
<path transform="matrix(1.00006,0,0,-1,18.63926,77.374)" stroke-width=".79701" stroke-linecap="butt" stroke-miterlimit="10" stroke-linejoin="miter" fill="none" stroke="#ec008c" d="M-11.33876 20.52657-10.53734 20.37674-9.73593 20.21722-8.93451 20.04733-8.13312 19.86703-7.3317 19.67397-6.53029 19.4698-5.72887 19.25354-4.92747 19.02203-4.12607 18.77774-3.32465 18.51855-2.52325 18.24277-1.72183 17.9521-.92043 17.64447-.119 17.31956 .68234 16.97768 1.48376 16.61607 2.28517 16.23544 3.0866 15.83472 3.88799 15.41364 4.68939 14.97243 5.49081 14.50943 6.2922 14.02568 7.09363 13.51978 7.89503 12.99243 8.69646 12.44328 9.49785 11.87233 10.29927 11.27992 11.10068 10.66606 11.90208 10.03178 12.70349 9.37709 13.5049 8.70302 14.30632 8.01062 15.10771 7.3009 15.90913 6.57458 16.71054 5.83304 17.51196 5.078 18.31335 4.31119 19.11476 3.53366 19.91618 2.74783 20.71759 1.95506 21.519 1.15779 22.3204 .35709 23.12183-.44394 23.92322-1.24396 24.72464-2.04123 25.52605-2.8333 26.32747-3.61877 27.12886-4.39493 27.93027-5.1607 28.73169-5.914 29.53308-6.65382 30.3345-7.3784 31.13591-8.08675 31.93733-8.77707 32.73872-9.44907 33.54015-10.10135 34.34155-10.73354 35.14296-11.34497 35.94437-11.9353 36.74577-12.50383 37.5472-13.0509 38.34859-13.57585 39.15001-14.07932 39.95142-14.56099 40.75284-15.02122 41.55423-15.46068 42.35564-15.87936 43.15706-16.27766 43.95847-16.65656 44.75987-17.01608 45.56128-17.35693 46.3627-17.68011 47.1641-17.98567 47.96552-18.27495 48.76692-18.54797 49.56833-18.80577 50.36974-19.04868 51.17114-19.27774 51.97256-19.49367 52.77397-19.69646 53.57538-19.88747 54.37679-20.06705 55.1782-20.23557 55.9796-20.3937 56.781-20.54214 57.58243-20.6816 58.38383-20.81206 59.18524-20.93454 59.98665-21.04909 60.78807-21.15671 61.58948-21.25705 62.39088-21.35117 63.19229-21.43942 63.9937-21.52142 64.7951-21.59859 65.59651-21.67056 66.39793-21.73804 67.19934-21.80066 68.00075-21.8595"/>
<path transform="matrix(1.00006,0,0,-1,18.63926,77.374)" stroke-width=".79701" stroke-linecap="butt" stroke-miterlimit="10" stroke-linejoin="miter" fill="none" stroke="#ec008c" d="M-11.33876 22.37404-10.53734 22.35188-9.73593 22.32802-8.93451 22.30275-8.13312 22.27577-7.3317 22.24635-6.53029 22.21523-5.72887 22.18166-4.92747 22.14601-4.12607 22.10724-3.32465 22.06607-2.52325 22.02179-1.72183 21.97473-.92043 21.92421-.119 21.86987 .68234 21.81207 1.48376 21.75015 2.28517 21.68372 3.0866 21.61243 3.88799 21.53665 4.68939 21.45499 5.49081 21.36812 6.2922 21.27539 7.09363 21.17607 7.89503 21.06984 8.69646 20.9567 9.49785 20.83594 10.29927 20.70686 11.10068 20.56914 11.90208 20.42242 12.70349 20.266 13.5049 20.09958 14.30632 19.92241 15.10771 19.73349 15.90913 19.53278 16.71054 19.31963 17.51196 19.09297 18.31335 18.85281 19.11476 18.59781 19.91618 18.32755 20.71759 18.04173 21.519 17.73929 22.3204 17.41922 23.12183 17.08183 23.92322 16.72575 24.72464 16.35068 25.52605 15.95586 26.32747 15.5413 27.12886 15.10565 27.93027 14.64923 28.73169 14.17172 29.53308 13.67238 30.3345 13.15161 31.13591 12.60867 31.93733 12.04396 32.73872 11.45811 33.54015 10.8505 34.34155 10.22244 35.14296 9.57365 35.94437 8.90544 36.74577 8.21823 37.5472 7.51337 38.34859 6.79189 39.15001 6.05486 39.95142 5.30362 40.75284 4.54027 41.55423 3.76584 42.35564 2.98207 43.15706 2.19106 43.95847 1.39484 44.75987 .59515 45.56128-.2062 46.3627-1.00693 47.1641-1.80522 47.96552-2.59903 48.76692-3.38625 49.56833-4.16551 50.36974-4.9344 51.17114-5.69185 51.97256-6.43582 52.77397-7.16492 53.57538-7.87808 54.37679-8.57396 55.1782-9.25148 55.9796-9.90997 56.781-10.54805 57.58243-11.16574 58.38383-11.76228 59.18524-12.3374 59.98665-12.8907 60.78807-13.4222 61.58948-13.9319 62.39088-14.42017 63.19229-14.88696 63.9937-15.33229 64.7951-15.75722 65.59651-16.16173 66.39793-16.54617 67.19934-16.91124 68.00075-17.25761"/>
<path transform="matrix(1.00006,0,0,-1,18.63926,77.374)" stroke-width=".79701" stroke-linecap="butt" stroke-miterlimit="10" stroke-linejoin="miter" fill="none" stroke="#ec008c" d="M-11.33876 22.63635-10.53734 22.63322-9.73593 22.62976-8.93451 22.6263-8.13312 22.62285-7.3317 22.6187-6.53029 22.61453-5.72887 22.6097-4.92747 22.60484-4.12607 22.59967-3.32465 22.59378-2.52325 22.58755-1.72183 22.58096-.92043 22.57405-.119 22.56644 .68234 22.55849 1.48376 22.54982 2.28517 22.54048 3.0866 22.53046 3.88799 22.51971 4.68939 22.5083 5.49081 22.49585 6.2922 22.4827 7.09363 22.46817 7.89503 22.45296 8.69646 22.43666 9.49785 22.41939 10.29927 22.40034 11.10068 22.38028 11.90208 22.35847 12.70349 22.33528 13.5049 22.31071 14.30632 22.28407 15.10771 22.25536 15.90913 22.2249 16.71054 22.19202 17.51196 22.15674 18.31335 22.11902 19.11476 22.07887 19.91618 22.03563 20.71759 21.98926 21.519 21.93977 22.3204 21.88649 23.12183 21.82973 23.92322 21.76884 24.72464 21.70378 25.52605 21.63422 26.32747 21.55948 27.12886 21.4799 27.93027 21.39478 28.73169 21.30377 29.53308 21.20618 30.3345 21.10237 31.13591 20.99129 31.93733 20.87262 32.73872 20.74597 33.54015 20.61102 34.34155 20.46706 35.14296 20.31343 35.94437 20.1501 36.74577 19.97604 37.5472 19.79057 38.34859 19.59369 39.15001 19.38434 39.95142 19.16185 40.75284 18.92548 41.55423 18.67497 42.35564 18.40956 43.15706 18.12823 43.95847 17.83066 44.75987 17.5161 45.56128 17.18391 46.3627 16.83339 47.1641 16.46416 47.96552 16.07523 48.76692 15.66656 49.56833 15.23715 50.36974 14.7873 51.17114 14.31564 51.97256 13.8229 52.77397 13.30835 53.57538 12.772 54.37679 12.21385 55.1782 11.63426 55.9796 11.03319 56.781 10.41104 57.58243 9.76845 58.38383 9.10579 59.18524 8.42412 59.98665 7.72444 60.78807 7.0078 61.58948 6.27527 62.39088 5.5282 63.19229 4.7683 63.9937 3.99666 64.7951 3.21565 65.59651 2.4267 66.39793 1.63187 67.19934 .83322 68.00075 .03181"/>
<path transform="matrix(1.00006,0,0,-1,18.63926,77.374)" stroke-width=".79701" stroke-linecap="butt" stroke-miterlimit="10" stroke-linejoin="miter" fill="none" stroke="#ec008c" d="M-11.33876 26.27934-11.11003 26.35895-10.88129 26.44061-10.65257 26.52399-10.42384 26.6098-10.19511 26.69632-9.96638 26.78595-9.73766 26.87662-9.50894 26.97142-9.28021 27.06659-9.05148 27.16487-8.82275 27.2652-8.59402 27.36867-8.36531 27.4749-8.13657 27.5825-7.90784 27.69359-7.67912 27.80812-7.4504 27.92406-7.22166 28.04411-6.99294 28.16696-6.7642 28.29256-6.53548 28.4213-6.30675 28.5528-6.07803 28.68878-5.8493 28.82892-5.62057 28.9708-5.39185 29.11716-5.16312 29.26768-4.9344 29.42133-4.70566 29.58015-4.47693 29.7421-4.24821 29.90991-4.01949 30.08086-3.79076 30.25734-3.56203 30.43832-3.3333 30.62447-3.10458 30.81548-2.87584 31.0103-2.64713 31.21274-2.4184 31.42035-2.18965 31.63455-1.96094 31.85323-1.73221 32.07921-1.50348 32.31174-1.27475 32.55016-1.04602 32.79582-.8173 33.04912-.58858 33.31175-.35985 33.57925-.13112 33.85677 .09756 34.13878 .3263 34.43289 .55502 34.73567 .78375 35.04884 1.01247 35.37135 1.2412 35.70457 1.46991 36.04819 1.69864 36.40321 1.92737 36.76965 2.1561 37.14854 2.38483 37.53958 2.61356 37.94443 2.84227 38.36313 3.07101 38.79672 3.29973 39.24516 3.52846 39.70953 3.75719 40.19017 3.98592 40.6895 4.21465 41.2058 4.44336 41.74213 4.67209 42.2982 4.90083 42.87675 5.12955 43.4761 5.35828 44.10034 5.587 44.7495 5.81573 45.42494 6.04446 46.12808 6.27318 46.86098 6.50192 47.62433 6.73064 48.42157 6.95937 49.25345 7.1881 50.12233 7.41682 51.03134 7.64555 51.98224 7.87427 52.97847 8.103 54.0221 8.33174 55.11798 8.56046 56.26855 8.78918 57.47931 9.01791 58.752 9.24664 60.09149 9.47537 61.50815 9.70409 63.003 9.93283 64.58334 10.16154 66.25778 10.39027 68.03362 10.619 69.92087 10.84773 71.9289 11.07646 74.07014 11.30519 76.35533"/>
<path transform="matrix(1.00006,0,0,-1,18.63926,77.374)" stroke-width=".79701" stroke-linecap="butt" stroke-miterlimit="10" stroke-linejoin="miter" fill="none" stroke="#ec008c" d="M-11.33876 23.13359-10.88095 23.15262-10.42316 23.17268-9.96535 23.19345-9.50754 23.21455-9.04974 23.23705-8.59193 23.26057-8.13414 23.2848-7.67633 23.31006-7.21855 23.3367-6.76074 23.36404-6.30295 23.39275-5.84514 23.42287-5.38734 23.454-4.92953 23.48688-4.47174 23.5208-4.01393 23.55608-3.55615 23.59311-3.09834 23.63153-2.64055 23.67166-2.18274 23.71353-1.72495 23.75713-1.26714 23.80281-.80934 23.85056-.35153 23.90004 .1062 23.9516 .564 24.00558 1.0218 24.06198 1.4796 24.12082 1.93741 24.18205 2.3952 24.24641 2.85301 24.31322 3.3108 24.3831 3.76862 24.45612 4.2264 24.5326 4.6842 24.61218 5.142 24.69557 5.59981 24.78242 6.0576 24.87344 6.51541 24.96858 6.9732 25.0679 7.43102 25.17172 7.8888 25.28036 8.3466 25.39421 8.80441 25.5129 9.2622 25.63747 9.72002 25.76758 10.17781 25.90392 10.63562 26.04681 11.09341 26.1963 11.55121 26.35306 12.009 26.51743 12.46681 26.68976 12.9246 26.87038 13.38242 27.05965 13.84021 27.25829 14.29802 27.46695 14.75581 27.68633 15.21362 27.91643 15.6714 28.15831 16.12921 28.41264 16.587 28.68011 17.04482 28.96179 17.50261 29.25835 17.96042 29.57082 18.41821 29.89989 18.87602 30.24696 19.3338 30.61375 19.79161 31.00061 20.2494 31.40962 20.70721 31.84216 21.16501 32.29962 21.62282 32.78441 22.08061 33.29826 22.5384 33.84361 22.9962 34.42287 23.454 35.0388 23.9118 35.69418 24.3696 36.39249 24.82741 37.13783 25.2852 37.93405 25.74301 38.78598 26.2008 39.69882 26.6586 40.67844 27.1164 41.7314 27.5742 42.86604 28.032 44.09064 28.4898 45.41492 28.9476 46.85129 29.40541 48.41223 29.8632 50.11401 30.32101 51.97498 30.7788 54.01552 31.2366 56.26266 31.6944 58.74683 32.1522 61.50539 32.61 64.58368 33.06781 68.03604 33.52562 71.93478 33.98341 76.36745"/>
<path transform="matrix(1.00006,0,0,-1,18.63926,77.374)" stroke-width=".79701" stroke-linecap="butt" stroke-miterlimit="10" stroke-linejoin="miter" fill="none" stroke="#ec008c" d="M-11.33876 22.73877-10.65187 22.74258-9.96501 22.74672-9.27812 22.75087-8.59125 22.75536-7.90439 22.76056-7.21751 22.76575-6.53064 22.77095-5.84375 22.77681-5.1569 22.78307-4.47002 22.78998-3.78314 22.79689-3.09627 22.80415-2.4094 22.81213-1.72253 22.82077-1.03566 22.82977-.34879 22.83911 .33806 22.84949 1.02492 22.86023 1.71179 22.87163 2.39867 22.88374 3.08556 22.89655 3.77242 22.91039 4.45929 22.92493 5.14616 22.9405 5.83304 22.9571 6.51991 22.97475 7.20677 22.99344 7.89365 23.01317 8.58052 23.03427 9.26741 23.05678 9.95428 23.08064 10.64114 23.10625 11.32802 23.13324 12.0149 23.16196 12.70177 23.19275 13.38863 23.22528 14.07552 23.25989 14.76237 23.29655 15.44926 23.33601 16.13614 23.37753 16.823 23.42218 17.50987 23.46924 18.19675 23.51974 18.88364 23.5734 19.57048 23.63048 20.25737 23.69138 20.94424 23.75609 21.63112 23.82529 22.318 23.89865 23.00485 23.9772 23.69173 24.06096 24.3786 24.15022 25.06549 24.24539 25.75235 24.34679 26.43922 24.45508 27.1261 24.57065 27.81297 24.69418 28.49985 24.82602 29.1867 24.96721 29.8736 25.11772 30.56046 25.27898 31.24734 25.45131 31.9342 25.63574 32.62108 25.83333 33.30795 26.0451 33.99483 26.2721 34.68172 26.51569 35.36856 26.77696 36.05545 27.05794 36.74232 27.35968 37.42918 27.68423 38.11606 28.03375 38.80293 28.41057 39.4898 28.81717 40.17668 29.25626 40.86357 29.73068 41.55043 30.24489 42.23729 30.80199 42.92418 31.40721 43.61105 32.065 44.29791 32.78198 44.98479 33.56436 45.67168 34.42046 46.35854 35.35889 47.04543 36.39006 47.73228 37.52678 48.41916 38.78355 49.10603 40.17738 49.79291 41.72932 50.47978 43.46466 51.16664 45.41353 51.85353 47.61394 52.5404 50.11333 53.22726 52.97086 53.91414 56.2637 54.60101 60.09149 55.2879 64.58714 55.97476 69.93091 56.66164 76.3761"/>
</svg>
