<svg xmlns="http://www.w3.org/2000/svg" xmlns:xlink="http://www.w3.org/1999/xlink" version="1.1" width="117" height="54" viewBox="0 0 117 54">
<defs>
<path id="font_1_1" d="M.43699647 0V.0289917L.35299684 .035995485C.33198548 .037994386 .31999208 .04598999 .31999208 .08496094V.67367556L.31498719 .6796875 .10899353 .6446991V.6197052L.20199585 .6087036C.21899414 .6067047 .22599793 .5987091 .22599793 .56973269V.08496094C.22599793 .065979007 .22299195 .053985597 .21699524 .04698181 .21199036 .039993287 .20399475 .036987306 .19299317 .035995485L.10899353 .0289917V0H.43699647Z"/>
<path id="font_1_2" d="M.4850006 .13195801 .45700074 .13696289C.43598939 .08299255 .41600038 .07598877 .37599183 .07598877H.11999512C.13598633 .1279602 .19499207 .19892884 .28799439 .2658844 .38398744 .33584596 .45799256 .38082887 .45799256 .49276734 .45799256 .63168337 .3659973 .6796875 .26098634 .6796875 .12399292 .6796875 .052993776 .5967102 .052993776 .54473879 .052993776 .51075747 .09098816 .49476625 .10798645 .49476625 .12599182 .49476625 .1329956 .50476077 .13699341 .5217438 .15299988 .5897064 .19198609 .64468386 .2539978 .64468386 .33099366 .64468386 .35299684 .5797119 .35299684 .50675967 .35299684 .3998108 .29899598 .33984376 .21199036 .26289369 .08898926 .15594483 .04598999 .08798218 .026992798 .009994507L.036987306 0H.45098878L.4850006 .13195801Z"/>
<path id="font_1_3" d="M.42599488 .5919647 .44999696 .6599579 .44499208 .66796877H.11099243L.100997928 .65896609 .08099365 .32388307 .10499573 .31188966C.14698792 .35983277 .18798828 .3828125 .24198914 .3828125 .30599977 .3828125 .37599183 .3358612 .37599183 .20404053 .37599183 .10116577 .33399964 .023269654 .24699402 .023269654 .1769867 .023269654 .14099121 .07420349 .12098694 .13113404 .115997318 .14611817 .10699463 .15510559 .09298706 .15510559 .07299805 .15510559 .039993287 .13513184 .039993287 .10217285 .039993287 .056228639 .10998535-.01171875 .23999024-.01171875 .40499879-.01171875 .47999574 .0881958 .47999574 .21502686 .47999574 .35484315 .3919983 .4268036 .272995 .4268036 .21798706 .4268036 .15899658 .4028015 .1269989 .3738098L.125 .37580873 .147995 .56292727C.15098572 .58795168 .1579895 .5919647 .1769867 .5919647H.42599488Z"/>
<clipPath id="clip_2">
<path transform="matrix(1.00002,0,0,-1.00003,1.3923493,47.164968)" d="M0 0H114.1071V46.06519H0Z"/>
</clipPath>
<path id="font_3_1" d="M.42799378 .45222474 .43899537 .49023438H.31199647L.34599305 .6092224 .33399964 .6162262 .23699951 .53923037 .22399903 .49023438H.14299011L.13198853 .45222474H.21499634L.125 .08627319C.10998535 .029266358 .12199402-.01171875 .17199707-.01171875 .2519989-.01171875 .31599427 .054275514 .35598756 .1292572L.33399964 .1462555C.31098939 .10726929 .2599945 .040267946 .22898865 .040267946 .20799256 .040267946 .20799256 .0632782 .21398926 .088272098L.30299378 .45222474H.42799378Z"/>
<path id="font_3_2" d="M.070999149 .45393373 .07398987 .42893983 .14199829 .43093873C.1639862 .43193055 .16899109 .41493226 .1769867 .36291505 .18798828 .28489686 .20999146 .09286499 .20999146 .0128479 .20999146-.017166138 .20799256-.058166505 .18598938-.11117554 .16799927-.15318299 .14199829-.18218994 .12199402-.18218994 .10699463-.18218994 .09599304-.17118836 .08099365-.15118408 .068984989-.13517761 .06098938-.127182 .04598999-.127182 .019989014-.12818909-.005004883-.15818787-.005004883-.18719483-.005004883-.21418762 .023986817-.2421875 .067993167-.2421875 .15299988-.2421875 .18998719-.17919922 .27799989-.027160645 .2979889 .0068511965 .35798646 .11286926 .41999818 .21488953 .47698976 .30891419 .5399933 .40592958 .5399933 .4459381 .5399933 .48094178 .5289917 .5019531 .5219879 .5019531 .5029907 .5019531 .46899415 .49394227 .44400025 .47694398 .44499208 .4419403 .44299317 .3809204 .43099977 .33891297 .4149933 .28289796 .35598756 .17488098 .2899933 .06085205H.2869873C.27999879 .21388245 .26098634 .42492677 .24699402 .49795533L.23899842 .5019531 .070999149 .45393373Z"/>
</defs>
<path transform="matrix(1.00002,0,0,-1.00003,1.3923493,47.164968)" stroke-width=".79701" stroke-linecap="butt" stroke-miterlimit="10" stroke-linejoin="miter" fill="none" stroke="#929292" d="M37.37991 4.93646V7.77115M76.72719 4.93646V7.77115"/>
<path transform="matrix(1.00002,0,0,-1.00003,1.3923493,47.164968)" stroke-width=".79701" stroke-linecap="butt" stroke-miterlimit="10" stroke-linejoin="miter" fill="none" stroke="#929292" d="M57.05354 4.22801V8.4796M96.40083 4.22801V8.4796"/>
<path transform="matrix(1.00002,0,0,-1.00003,1.3923493,47.164968)" stroke-width=".79701" stroke-linecap="butt" stroke-miterlimit="10" stroke-linejoin="miter" fill="none" stroke="#929292" d="M16.28879 22.23836H19.12375"/>
<path transform="matrix(1.00002,0,0,-1.00003,1.3923493,47.164968)" stroke-width=".79701" stroke-linecap="butt" stroke-miterlimit="10" stroke-linejoin="miter" fill="none" stroke="#929292" d="M15.58026 11.64867H19.83226M15.58026 32.82806H19.83226"/>
<path transform="matrix(1.00002,0,0,-1.00003,1.3923493,47.164968)" stroke-width=".99628" stroke-linecap="butt" stroke-miterlimit="10" stroke-linejoin="miter" fill="none" stroke="#000000" d="M0 6.3538H111.2179"/>
<path transform="matrix(1.00002,0,0,-1.00003,112.61248,40.810976)" d="M2.8892 0-1.73352 2.31136 0 0-1.73352-2.31136"/>
<path transform="matrix(1.00002,0,0,-1.00003,1.3923493,47.164968)" stroke-width=".99628" stroke-linecap="butt" stroke-miterlimit="10" stroke-linejoin="miter" fill="none" stroke="#000000" d="M17.70627 0V43.17596"/>
<path transform="matrix(0,-1.00003,-1.00002,-0,19.098975,3.987709)" d="M2.8892 0-1.73352 2.31136 0 0-1.73352-2.31136"/>
<use data-text="1" xlink:href="#font_1_1" transform="matrix(10.036601,0,0,-10.036701,55.78544,53.355154)"/>
<use data-text="2" xlink:href="#font_1_2" transform="matrix(10.036601,0,0,-10.036701,95.133228,53.355154)"/>
<use data-text="1" xlink:href="#font_1_1" transform="matrix(10.036601,0,0,-10.036701,7.951481,38.875719)"/>
<use data-text="5" xlink:href="#font_1_3" transform="matrix(10.036601,0,0,-10.036701,7.951481,17.669079)"/>
<g clip-path="url(#clip_2)">
<path transform="matrix(1.00002,0,0,-1.00003,1.3923493,47.164968)" stroke-width=".79701" stroke-linecap="butt" stroke-dasharray="2.98883,2.98883" stroke-miterlimit="10" stroke-linejoin="miter" fill="none" stroke="#0000ff" d="M17.70627 11.64867 19.31227 11.86914 20.91824 12.09892 22.52426 12.33815 24.13026 12.58743 25.73624 12.84714 27.34225 13.11766 28.94826 13.39929 30.55424 13.693 32.16025 13.99866 33.76625 14.31715 35.37224 14.64882 36.97824 14.9942 38.58424 15.35414 40.19023 15.72928 41.79623 16.11984 43.40224 16.52669 45.00822 16.95038 46.61423 17.39177 48.22023 17.85167 49.82622 18.33075 51.43222 18.82953 53.03822 19.34912 54.64421 19.89067 56.25021 20.45451 57.85623 21.04214 59.4622 21.6539 61.06822 22.2912 62.67422 22.95506 64.28021 23.64673 65.88622 24.36694 67.49222 25.1178 69.09822 25.89915 70.70421 26.71329 72.31021 27.56157 73.91621 28.44502 75.5222 29.36533 77.1282 30.32396 78.7342 31.3224 80.3402 32.36284 81.9462 33.44627 83.5522 34.57487 85.15819 35.75049 86.76419 36.97523 88.3702 38.2505 89.97618 39.57904 91.58218 40.964 93.18819 42.40538 94.79417 43.9072 96.40018 45.47108"/>
</g>
<path transform="matrix(1.00002,0,0,-1.00003,1.3923493,47.164968)" stroke-width=".99628" stroke-linecap="butt" stroke-miterlimit="10" stroke-linejoin="miter" fill="none" stroke="#000000" d="M19.69882 11.64867C19.69882 12.74913 18.80675 13.64122 17.70627 13.64122 16.6058 13.64122 15.71371 12.74913 15.71371 11.64867 15.71371 10.54819 16.6058 9.65611 17.70627 9.65611 18.80675 9.65611 19.69882 10.54819 19.69882 11.64867ZM17.70627 11.64867"/>
<path transform="matrix(1.00002,0,0,-1.00003,1.3923493,47.164968)" stroke-width=".99628" stroke-linecap="butt" stroke-miterlimit="10" stroke-linejoin="miter" fill="none" stroke="#000000" d="M29.53564 12.97237C29.53564 14.07285 28.64355 14.96492 27.54309 14.96492 26.44261 14.96492 25.55054 14.07285 25.55054 12.97237 25.55054 11.8719 26.44261 10.97981 27.54309 10.97981 28.64355 10.97981 29.53564 11.8719 29.53564 12.97237ZM27.54309 12.97237"/>
<path transform="matrix(1.00002,0,0,-1.00003,1.3923493,47.164968)" stroke-width=".99628" stroke-linecap="butt" stroke-miterlimit="10" stroke-linejoin="miter" fill="none" stroke="#000000" d="M39.37247 14.627C39.37247 15.72748 38.48038 16.61955 37.37991 16.61955 36.27943 16.61955 35.38736 15.72748 35.38736 14.627 35.38736 13.52654 36.27943 12.63445 37.37991 12.63445 38.48038 12.63445 39.37247 13.52654 39.37247 14.627ZM37.37991 14.627"/>
<path transform="matrix(1.00002,0,0,-1.00003,1.3923493,47.164968)" stroke-width=".99628" stroke-linecap="butt" stroke-miterlimit="10" stroke-linejoin="miter" fill="none" stroke="#000000" d="M49.20929 16.69531C49.20929 17.79578 48.3172 18.68787 47.21674 18.68787 46.11626 18.68787 45.22418 17.79578 45.22418 16.69531 45.22418 15.59483 46.11626 14.70276 47.21674 14.70276 48.3172 14.70276 49.20929 15.59483 49.20929 16.69531ZM47.21674 16.69531"/>
<path transform="matrix(1.00002,0,0,-1.00003,1.3923493,47.164968)" stroke-width=".99628" stroke-linecap="butt" stroke-miterlimit="10" stroke-linejoin="miter" fill="none" stroke="#000000" d="M59.0461 19.28067C59.0461 20.38115 58.15402 21.27322 57.05354 21.27322 55.95308 21.27322 55.06099 20.38115 55.06099 19.28067 55.06099 18.1802 55.95308 17.28812 57.05354 17.28812 58.15402 17.28812 59.0461 18.1802 59.0461 19.28067ZM57.05354 19.28067"/>
<path transform="matrix(1.00002,0,0,-1.00003,1.3923493,47.164968)" stroke-width=".99628" stroke-linecap="butt" stroke-miterlimit="10" stroke-linejoin="miter" fill="none" stroke="#000000" d="M68.88292 22.5124C68.88292 23.61287 67.99084 24.50496 66.89037 24.50496 65.7899 24.50496 64.89781 23.61287 64.89781 22.5124 64.89781 21.41193 65.7899 20.51985 66.89037 20.51985 67.99084 20.51985 68.88292 21.41193 68.88292 22.5124ZM66.89037 22.5124"/>
<path transform="matrix(1.00002,0,0,-1.00003,1.3923493,47.164968)" stroke-width=".99628" stroke-linecap="butt" stroke-miterlimit="10" stroke-linejoin="miter" fill="none" stroke="#000000" d="M78.71974 26.55206C78.71974 27.65253 77.82767 28.54462 76.72719 28.54462 75.62672 28.54462 74.73463 27.65253 74.73463 26.55206 74.73463 25.45158 75.62672 24.55951 76.72719 24.55951 77.82767 24.55951 78.71974 25.45158 78.71974 26.55206ZM76.72719 26.55206"/>
<path transform="matrix(1.00002,0,0,-1.00003,1.3923493,47.164968)" stroke-width=".99628" stroke-linecap="butt" stroke-miterlimit="10" stroke-linejoin="miter" fill="none" stroke="#000000" d="M88.55656 31.60161C88.55656 32.70207 87.66447 33.59416 86.56401 33.59416 85.46353 33.59416 84.57146 32.70207 84.57146 31.60161 84.57146 30.50113 85.46353 29.60905 86.56401 29.60905 87.66447 29.60905 88.55656 30.50113 88.55656 31.60161ZM86.56401 31.60161"/>
<path transform="matrix(1.00002,0,0,-1.00003,1.3923493,47.164968)" stroke-width=".99628" stroke-linecap="butt" stroke-miterlimit="10" stroke-linejoin="miter" fill="none" stroke="#000000" d="M98.39339 37.91356C98.39339 39.01404 97.5013 39.90611 96.40083 39.90611 95.30035 39.90611 94.40828 39.01404 94.40828 37.91356 94.40828 36.8131 95.30035 35.921 96.40083 35.921 97.5013 35.921 98.39339 36.8131 98.39339 37.91356ZM96.40083 37.91356"/>
<path transform="matrix(1.00002,0,0,-1.00003,1.3923493,47.164968)" stroke-width=".99628" stroke-linecap="butt" stroke-miterlimit="10" stroke-linejoin="miter" fill="none" stroke="#000000" d=""/>
<use data-text="t" xlink:href="#font_3_1" transform="matrix(10.036601,0,0,-10.036701,107.30947,37.02566)"/>
<use data-text="y" xlink:href="#font_3_2" transform="matrix(10.036601,0,0,-10.036701,23.34179,9.759842)"/>
</svg>
