<svg xmlns="http://www.w3.org/2000/svg" xmlns:xlink="http://www.w3.org/1999/xlink" version="1.1" width="143" height="61" viewBox="0 0 143 61">
<defs>
<path id="font_1_1" d="M.42799378 .45222474 .43899537 .49023438H.31199647L.34599305 .6092224 .33399964 .6162262 .23699951 .53923037 .22399903 .49023438H.14299011L.13198853 .45222474H.21499634L.125 .08627319C.10998535 .029266358 .12199402-.01171875 .17199707-.01171875 .2519989-.01171875 .31599427 .054275514 .35598756 .1292572L.33399964 .1462555C.31098939 .10726929 .2599945 .040267946 .22898865 .040267946 .20799256 .040267946 .20799256 .0632782 .21398926 .088272098L.30299378 .45222474H.42799378Z"/>
<path id="font_2_1" d="M.07398987 .2861328V.21612549H.31900025V.2861328H.07398987Z"/>
<path id="font_2_5" d="M.12998963 .3657837C.12998963 .3487854 .1349945 .33779908 .147995 .33779908 .1599884 .33779908 .18699646 .34777833 .23498535 .34777833 .31999208 .34777833 .36799623 .27090455 .36799623 .18403626 .36799623 .065216068 .30899049 .023269654 .23799134 .023269654 .17199707 .023269654 .1289978 .07319641 .10998535 .12911988 .10398865 .14808655 .09399414 .15707398 .07998657 .15707398 .06199646 .15707398 .026992798 .13809204 .026992798 .10215759 .026992798 .05921936 .09599304-.01171875 .23699951-.01171875 .38198854-.01171875 .47299195 .06121826 .47299195 .18902588 .47299195 .32281495 .35798646 .3627777 .30299378 .3677826V.3717804C.35699464 .38078309 .44400025 .4207611 .44400025 .5197296 .44400025 .6306915 .35699464 .6796875 .25 .6796875 .117996219 .6796875 .052993776 .60369876 .052993776 .5607147 .052993776 .5297241 .08799744 .51272585 .101989749 .51272585 .114990238 .51272585 .12298584 .5197296 .1269989 .5327301 .14898682 .60069277 .18699646 .64468386 .24299622 .64468386 .32199098 .64468386 .34098817 .57470706 .34098817 .51872256 .34098817 .4587555 .31999208 .38378907 .23498535 .38378907 .18699646 .38378907 .1599884 .39378358 .147995 .39378358 .1349945 .39378358 .12998963 .38378907 .12998963 .3657837Z"/>
<path id="font_2_4" d="M.4850006 .13195801 .45700074 .13696289C.43598939 .08299255 .41600038 .07598877 .37599183 .07598877H.11999512C.13598633 .1279602 .19499207 .19892884 .28799439 .2658844 .38398744 .33584596 .45799256 .38082887 .45799256 .49276734 .45799256 .63168337 .3659973 .6796875 .26098634 .6796875 .12399292 .6796875 .052993776 .5967102 .052993776 .54473879 .052993776 .51075747 .09098816 .49476625 .10798645 .49476625 .12599182 .49476625 .1329956 .50476077 .13699341 .5217438 .15299988 .5897064 .19198609 .64468386 .2539978 .64468386 .33099366 .64468386 .35299684 .5797119 .35299684 .50675967 .35299684 .3998108 .29899598 .33984376 .21199036 .26289369 .08898926 .15594483 .04598999 .08798218 .026992798 .009994507L.036987306 0H.45098878L.4850006 .13195801Z"/>
<path id="font_2_3" d="M.43699647 0V.0289917L.35299684 .035995485C.33198548 .037994386 .31999208 .04598999 .31999208 .08496094V.67367556L.31498719 .6796875 .10899353 .6446991V.6197052L.20199585 .6087036C.21899414 .6067047 .22599793 .5987091 .22599793 .56973269V.08496094C.22599793 .065979007 .22299195 .053985597 .21699524 .04698181 .21199036 .039993287 .20399475 .036987306 .19299317 .035995485L.10899353 .0289917V0H.43699647Z"/>
<path id="font_2_2" d="M.2649994 .64468386C.3600006 .64468386 .3869934 .49682618 .3869934 .33398438 .3869934 .17112732 .3600006 .023269654 .2649994 .023269654 .16999817 .023269654 .14299011 .17112732 .14299011 .33398438 .14299011 .49682618 .16999817 .64468386 .2649994 .64468386M.2649994 .6796875C.099990848 .6796875 .040985109 .53378298 .040985109 .33398438 .040985109 .13417053 .099990848-.01171875 .2649994-.01171875 .42999269-.01171875 .4889984 .13417053 .4889984 .33398438 .4889984 .53378298 .42999269 .6796875 .2649994 .6796875Z"/>
<path id="font_3_2" d="M.6349945 .07472229 .17298889 .28173829 .6349945 .48875428V.5517578L.084991458 .31674195V.24673462L.6349945 .01171875V.07472229Z"/>
<path id="font_3_1" d="M.6349945-.0078125V.050186159H.084991458V-.0078125H.6349945M.084991458 .14318848 .6349945 .32221986V.39222718L.084991458 .5722656V.5092468L.5469971 .3572235 .084991458 .20620728V.14318848Z"/>
</defs>
<path transform="matrix(1.00003,0,0,-1.00003,70.543109,37.517736)" d="M-69.44937-21.82706V35.71686H0V-21.82706ZM0 35.71686" fill="#d9d9ff"/>
<path transform="matrix(1.00003,0,0,-1.00003,70.543109,37.517736)" d="M0-21.82706V35.71686H69.44937V-21.82706ZM69.44937 35.71686" fill="#d9ffd9"/>
<path transform="matrix(1.00003,0,0,-1.00003,70.543109,37.517736)" stroke-width=".3985" stroke-linecap="butt" stroke-miterlimit="10" stroke-linejoin="miter" fill="none" stroke="#000000" d="M-69.44937 0H68.99109"/>
<path transform="matrix(1.00003,0,0,-1.00003,139.53627,37.517736)" stroke-width=".31879" stroke-linecap="round" stroke-linejoin="round" fill="none" stroke="#000000" d="M-1.19551 1.59401C-1.09587 .99626 0 .09961 .29886 0 0-.09961-1.09587-.99626-1.19551-1.59401"/>
<use data-text="t" xlink:href="#font_1_1" transform="matrix(9.165875,0,0,-9.165875,138.04114,46.56601)"/>
<path transform="matrix(1.00003,0,0,-1.00003,70.543109,37.517736)" stroke-width=".3985" stroke-linecap="butt" stroke-miterlimit="10" stroke-linejoin="miter" fill="none" stroke="#000000" d="M0-21.82706V35.25858"/>
<path transform="matrix(0,-1.00003,-1.00003,-0,70.543109,2.2580949)" stroke-width=".31879" stroke-linecap="round" stroke-linejoin="round" fill="none" stroke="#000000" d="M-1.19551 1.59401C-1.09587 .99626 0 .09961 .29886 0 0-.09961-1.09587-.99626-1.19551-1.59401"/>
<path transform="matrix(1.00003,0,0,-1.00003,70.543109,37.517736)" stroke-width=".3985" stroke-linecap="butt" stroke-miterlimit="10" stroke-linejoin="miter" fill="none" stroke="#b5b5b5" d="M-59.52802 1.98438V-1.98438"/>
<use data-text="-" xlink:href="#font_2_1" transform="matrix(9.165875,0,0,-9.165875,6.784195,48.641069)"/>
<use data-text="3" xlink:href="#font_2_5" transform="matrix(9.165875,0,0,-9.165875,10.377213,48.641069)"/>
<path transform="matrix(1.00003,0,0,-1.00003,70.543109,37.517736)" stroke-width=".3985" stroke-linecap="butt" stroke-miterlimit="10" stroke-linejoin="miter" fill="none" stroke="#b5b5b5" d="M-39.68535 1.98438V-1.98438"/>
<use data-text="-" xlink:href="#font_2_1" transform="matrix(9.165875,0,0,-9.165875,26.626786,48.641069)"/>
<use data-text="2" xlink:href="#font_2_4" transform="matrix(9.165875,0,0,-9.165875,30.219803,48.641069)"/>
<path transform="matrix(1.00003,0,0,-1.00003,70.543109,37.517736)" stroke-width=".3985" stroke-linecap="butt" stroke-miterlimit="10" stroke-linejoin="miter" fill="none" stroke="#b5b5b5" d="M-19.84267 1.98438V-1.98438"/>
<use data-text="-" xlink:href="#font_2_1" transform="matrix(9.165875,0,0,-9.165875,46.470384,48.641069)"/>
<use data-text="1" xlink:href="#font_2_3" transform="matrix(9.165875,0,0,-9.165875,50.0634,48.641069)"/>
<path transform="matrix(1.00003,0,0,-1.00003,70.543109,37.517736)" stroke-width=".3985" stroke-linecap="butt" stroke-miterlimit="10" stroke-linejoin="miter" fill="none" stroke="#b5b5b5" d="M0 1.98438V-1.98438"/>
<use data-text="0" xlink:href="#font_2_2" transform="matrix(9.165875,0,0,-9.165875,68.11203,48.641069)"/>
<path transform="matrix(1.00003,0,0,-1.00003,70.543109,37.517736)" stroke-width=".3985" stroke-linecap="butt" stroke-miterlimit="10" stroke-linejoin="miter" fill="none" stroke="#b5b5b5" d="M19.84267 1.98438V-1.98438"/>
<use data-text="1" xlink:href="#font_2_3" transform="matrix(9.165875,0,0,-9.165875,87.95563,48.641069)"/>
<path transform="matrix(1.00003,0,0,-1.00003,70.543109,37.517736)" stroke-width=".3985" stroke-linecap="butt" stroke-miterlimit="10" stroke-linejoin="miter" fill="none" stroke="#b5b5b5" d="M39.68535 1.98438V-1.98438"/>
<use data-text="2" xlink:href="#font_2_4" transform="matrix(9.165875,0,0,-9.165875,107.798229,48.641069)"/>
<path transform="matrix(1.00003,0,0,-1.00003,70.543109,37.517736)" stroke-width=".3985" stroke-linecap="butt" stroke-miterlimit="10" stroke-linejoin="miter" fill="none" stroke="#b5b5b5" d="M59.52802 1.98438V-1.98438"/>
<use data-text="3" xlink:href="#font_2_5" transform="matrix(9.165875,0,0,-9.165875,127.64182,48.641069)"/>
<path transform="matrix(1.00003,0,0,-1.00003,70.543109,37.517736)" stroke-width=".3985" stroke-linecap="butt" stroke-miterlimit="10" stroke-linejoin="miter" fill="none" stroke="#b5b5b5" d="M1.98438 19.84267H-1.98438"/>
<use data-text="1" xlink:href="#font_2_3" transform="matrix(9.165875,0,0,-9.165875,61.289827,20.74323)"/>
<path transform="matrix(1.00003,0,0,-1.00003,70.543109,37.517736)" stroke-width=".79701" stroke-linecap="butt" stroke-miterlimit="10" stroke-linejoin="miter" fill="none" stroke="#0000ff" d="M1.39478-19.84267C1.39478-19.07234 .77031-18.44788 0-18.44788-.77031-18.44788-1.39478-19.07234-1.39478-19.84267-1.39478-20.61298-.77031-21.23744 0-21.23744 .77031-21.23744 1.39478-20.61298 1.39478-19.84267ZM0-19.84267"/>
<path transform="matrix(1.00003,0,0,-1.00003,70.543109,37.517736)" d="M1.39478 0C1.39478 .77031 .77031 1.39478 0 1.39478-.77031 1.39478-1.39478 .77031-1.39478 0-1.39478-.77031-.77031-1.39478 0-1.39478 .77031-1.39478 1.39478-.77031 1.39478 0ZM0 0" fill="#009900"/>
<use data-text="t" xlink:href="#font_1_1" transform="matrix(7.3327205,0,0,-7.3327205,28.30783,55.882287)" fill="#0000ff"/>
<use data-text="&#x003c;" xlink:href="#font_3_2" transform="matrix(7.3327205,0,0,-7.3327205,32.955965,55.882287)" fill="#0000ff"/>
<use data-text="0" xlink:href="#font_2_2" transform="matrix(7.3327205,0,0,-7.3327205,39.59616,55.882287)" fill="#0000ff"/>
<use data-text="t" xlink:href="#font_1_1" transform="matrix(7.3327205,0,0,-7.3327205,97.75891,55.882287)" fill="#009900"/>
<use data-text="&#x2265;" xlink:href="#font_3_1" transform="matrix(7.3327205,0,0,-7.3327205,102.40704,55.882287)" fill="#009900"/>
<use data-text="0" xlink:href="#font_2_2" transform="matrix(7.3327205,0,0,-7.3327205,109.04724,55.882287)" fill="#009900"/>
</svg>
