<svg xmlns="http://www.w3.org/2000/svg" xmlns:xlink="http://www.w3.org/1999/xlink" version="1.1" width="211" height="229" viewBox="0 0 211 229">
<defs>
<path id="font_1_1" d="M.5069885 .1381836C.48298646 .0932312 .45599366 .040267946 .42799378 .040267946 .40899659 .040267946 .40098573 .06324768 .3789978 .1521759L.34700013 .2830658C.3829956 .34701539 .43399049 .42694093 .46299745 .42694093 .47200013 .42694093 .47999574 .42494203 .4909973 .4189453 .5009918 .4149475 .5109863 .4109497 .522995 .4109497 .54499819 .4109497 .56599429 .4319458 .56599429 .4589386 .56599429 .48994447 .54299929 .5019531 .5149994 .5019531 .46199037 .5019531 .4169922 .45394898 .38198854 .39796449L.33799745 .33003236H.33599855L.29599 .49794007 .2899933 .5019531 .125 .45195008 .12799073 .427948 .20298767 .43295289C.22099304 .4339447 .22799683 .42893983 .23899842 .38298036L.2749939 .2381134 .24699402 .19015503C.20399475 .11723328 .16699219 .0652771 .14299011 .0652771 .1329956 .0652771 .12298584 .0692749 .11399841 .07426453 .10398865 .07926941 .09098816 .089279178 .07398987 .089279178 .04798889 .089279178 .0309906 .0632782 .0309906 .039276124 .0309906 .010269165 .054992677-.01171875 .09498596-.01171875 .16299439-.01171875 .20199585 .056259157 .24299622 .12319946L.2829895 .18914795H.2849884L.30299378 .111206058C.32199098 .031280519 .34098817-.01171875 .3919983-.01171875 .46499635-.01171875 .5029907 .06324768 .5329895 .12420654L.5069885 .1381836Z"/>
<path id="font_1_2" d="M.070999149 .45393373 .07398987 .42893983 .14199829 .43093873C.1639862 .43193055 .16899109 .41493226 .1769867 .36291505 .18798828 .28489686 .20999146 .09286499 .20999146 .0128479 .20999146-.017166138 .20799256-.058166505 .18598938-.11117554 .16799927-.15318299 .14199829-.18218994 .12199402-.18218994 .10699463-.18218994 .09599304-.17118836 .08099365-.15118408 .068984989-.13517761 .06098938-.127182 .04598999-.127182 .019989014-.12818909-.005004883-.15818787-.005004883-.18719483-.005004883-.21418762 .023986817-.2421875 .067993167-.2421875 .15299988-.2421875 .18998719-.17919922 .27799989-.027160645 .2979889 .0068511965 .35798646 .11286926 .41999818 .21488953 .47698976 .30891419 .5399933 .40592958 .5399933 .4459381 .5399933 .48094178 .5289917 .5019531 .5219879 .5019531 .5029907 .5019531 .46899415 .49394227 .44400025 .47694398 .44499208 .4419403 .44299317 .3809204 .43099977 .33891297 .4149933 .28289796 .35598756 .17488098 .2899933 .06085205H.2869873C.27999879 .21388245 .26098634 .42492677 .24699402 .49795533L.23899842 .5019531 .070999149 .45393373Z"/>
<path id="font_2_2" d="M.4869995 .499115V.6630249C.43499757 .6950226 .36099244 .70703127 .2999878 .70703127 .13198853 .70703127 .050994874 .6200409 .050994874 .5021057 .050994874 .37817384 .1619873 .3242035 .25 .2872162 .34098817 .24923706 .3829956 .20425415 .3829956 .1402893 .38198854 .066329959 .33399964 .031341554 .2689972 .031341554 .19299317 .031341554 .116989139 .1013031 .07899475 .22624207H.041992189L.056991579 .047332765C.10798645 .00035095216 .20698548-.0146484379 .272995-.0146484379 .47299195-.012649536 .5329895 .0953064 .5329895 .19926453 .5329895 .33119203 .43499757 .38217164 .34399415 .42015077 .27799989 .4471283 .19499207 .48310853 .19499207 .55908206 .19499207 .621048 .23899842 .661026 .29899598 .661026 .36299134 .661026 .4229889 .6160431 .45098878 .499115H.4869995Z"/>
<path id="font_2_6" d="M.23498535 .73617556 .22799683 .7421875 .024993897 .71517947V.6791687L.05999756 .67315676C.07598877 .670166 .083999637 .66116335 .083999637 .6211548V.087005618C.083999637 .04499817 .07598877 .041000368 .018997193 .037994386V0H.2999878V.037994386C.24299622 .041000368 .23498535 .04499817 .23498535 .087005618V.73617556Z"/>
<path id="font_2_7" d="M.29299928 .5019531C.11099243 .5019531 .033996583 .40498353 .033996583 .24511719 .033996583 .085235599 .11099243-.01171875 .29299928-.01171875 .47399903-.01171875 .5509949 .085235599 .5509949 .24511719 .5509949 .40498353 .47399903 .5019531 .29299928 .5019531M.19299317 .24511719C.19299317 .37901307 .22200012 .45594789 .29299928 .45594789 .36299134 .45594789 .3919983 .37901307 .3919983 .24511719 .3919983 .11122131 .36299134 .03427124 .29299928 .03427124 .22200012 .03427124 .19299317 .11122131 .19299317 .24511719Z"/>
<path id="font_2_8" d="M.23498535 .0002746582C.2519989-.006729126 .2869873-.01171875 .31399537-.01171875 .46199037-.01171875 .58099368 .040267946 .58099368 .25907899 .58099368 .42494203 .49398805 .5019531 .3999939 .5019531 .32998658 .5019531 .28399659 .4699402 .23498535 .43295289L.21699524 .5019531 .024993897 .47294618V.43695069L.05999756 .4319458C.07598877 .4299469 .083999637 .4209442 .083999637 .38098146V-.14328003C.083999637-.18544007 .07598877-.18946839 .018997193-.19247437V-.23046875H.31799317V-.19247437C.24499512-.18946839 .23498535-.18544007 .23498535-.14328003V.0002746582M.23498535 .31004334C.23498535 .33102418 .23699951 .35101319 .24198914 .3650055 .25498963 .40196229 .27999879 .42494203 .32199098 .42494203 .36898805 .42494203 .42199708 .39897157 .42199708 .23710633 .42199708 .113204959 .394989 .03427124 .31799317 .03427124 .27398683 .03427124 .24798584 .057250978 .23899842 .10121155 .23599243 .11621094 .23498535 .13319397 .23498535 .1521759V.31004334Z"/>
<path id="font_2_4" d="M.46099855 .15411377C.43099977 .097213748 .3880005 .0652771 .32699586 .0652771 .22698975 .0652771 .19299317 .14712525 .19299317 .25195313H.45098878C.4869995 .25195313 .5049896 .26194764 .5049896 .2939453 .5049896 .37594605 .47399903 .5019531 .2809906 .5019531 .100997928 .5019531 .033996583 .38494874 .033996583 .2449646 .033996583 .109191898 .09298706-.01272583 .2789917-.01171875 .397995-.01171875 .46299745 .046279909 .49699403 .13415528L.46099855 .15411377M.19299317 .29994203C.19299317 .37194825 .21199036 .45594789 .2769928 .45594789 .33799745 .45594789 .34799195 .37994386 .34799195 .33294679 .34799195 .30593873 .33999635 .29994203 .31698609 .29994203H.19299317Z"/>
<path id="font_2_1" d="M.09199524 .44023133V.087020877C.09199524 .04499817 .083999637 .041000368 .026992798 .037994386V0H.29599V.037994386L.2749939 .039993287C.2539978 .041992189 .24299622 .04699707 .24299622 .08001709V.44023133H.375C.4059906 .44023133 .4139862 .43322755 .4139862 .38919068V.08001709C.4139862 .04699707 .40299989 .041992189 .38198854 .039993287L.36099244 .037994386V0H.6299896V.037994386C.57299807 .041000368 .5649872 .04499817 .5649872 .087020877V.49609376L.55799868 .50209048C.5089874 .49822999 .43598939 .49023438 .34298707 .49023438H.24299622V.5372162C.24299622 .6701813 .29499818 .69618228 .33198548 .69618228 .36499024 .69618228 .3939972 .6741791 .41799928 .6062012 .42599488 .5832062 .43399049 .5602112 .47599793 .5602112 .5169983 .5602112 .5569916 .58421328 .5569916 .62519839 .5569916 .67518618 .49398805 .7421875 .34199525 .7421875 .1639862 .7421875 .09199524 .65219119 .09199524 .5152283V.49023438H.0289917V.44023133H.09199524Z"/>
<path id="font_2_3" d="M.5309906 .73617556 .5239868 .7421875 .32099916 .7151489V.6791229L.35598756 .67311099C.37199403 .670105 .37998963 .6611023 .37998963 .62106326V.4892578C.35798646 .49794007 .32998658 .5019531 .29599 .5019531 .22099304 .5019531 .15499878 .47994996 .10899353 .43696595 .06199646 .39300538 .033996583 .3260498 .033996583 .23612976 .033996583 .09025574 .10798645-.01171875 .23498535-.01171875 .27198792-.01171875 .32598878 .0072784426 .37998963 .05027771V0H.59599307V.037994386C.5389862 .040985109 .5309906 .04499817 .5309906 .08699036V.73617556M.37998963 .15197754C.37998963 .11198425 .3659973 .06498718 .3019867 .06498718 .23699951 .06498718 .19299317 .12799073 .19299317 .2559662 .19299317 .4029541 .24798584 .45594789 .3039856 .45594789 .34199525 .45594789 .3619995 .43695069 .37199403 .4169464 .37998963 .40194703 .37998963 .37895204 .37998963 .35795594V.15197754Z"/>
<path id="font_2_5" d="M.34599305 .44023133V.49023438H.24299622C.24299622 .53822329 .22099304 .6221924 .22099304 .65919497 .22099304 .68518069 .23298645 .69618228 .24499512 .69618228 .26098634 .69618228 .272995 .67718508 .30299378 .62120059 .31298829 .6031952 .32398988 .5912018 .34799195 .5912018 .37998963 .5912018 .42099 .61520388 .42099 .6491852 .42099 .68618777 .3829956 .7421875 .272995 .7421875 .1619873 .7421875 .09199524 .6701813 .09199524 .5332184V.49023438H.0289917V.44023133H.09199524V.087020877C.09199524 .04499817 .083999637 .041000368 .026992798 .037994386V0H.32199098V.037994386C.25099183 .041000368 .24299622 .04499817 .24299622 .087020877V.44023133H.34599305Z"/>
<path id="font_2_9" d="M.24198914 .31095887C.24198914 .36294557 .2519989 .38594056 .27598573 .38594056 .2919922 .38594056 .30699159 .37794496 .32899476 .36494447 .34199525 .35694886 .35598756 .348938 .375 .348938 .394989 .348938 .4149933 .35993959 .42599488 .37493897 .43699647 .38993836 .44198609 .40994264 .44198609 .4319458 .44198609 .47494508 .4139862 .5019531 .37199403 .5019531 .32998658 .5019531 .29699708 .47494508 .23899842 .41394044L.22698975 .5019531 .03199768 .47294618V.43695069L.066986087 .4319458C.08299255 .4299469 .09098816 .4209442 .09098816 .38095094V.08699036C.09098816 .04499817 .08299255 .040985109 .025985718 .037994386V0H.32798768V.037994386C.25099183 .041992189 .24198914 .04499817 .24198914 .08699036V.31095887Z"/>
<path id="font_3_1" d="M.2769928 .50541689C.2829895 .5204315 .28399659 .5294342 .28399659 .53344729 .28399659 .5544586 .2539978 .56347659 .22299195 .56347659 .19299317 .56347659 .1619873 .5544586 .15899658 .53944399L.053985597 .05303955C.053985597 .046035768 .067993167 .040039064 .07998657 .040039064 .08799744 .040039064 .09599304 .043029787 .09799194 .048034669L.2769928 .50541689Z"/>
<path id="font_3_3" d="M.6349945 .14315796V.20117188H.084991458V.14315796H.6349945M.6349945 .36288453V.42089845H.084991458V.36288453H.6349945Z"/>
<path id="font_3_2" d="M.084991458 .31092835V.2529297H.33099366V.0068359377H.3889923V.2529297H.6349945V.31092835H.3889923V.5566406H.33099366V.31092835H.084991458Z"/>
</defs>
<path transform="matrix(1.00006,0,0,-1,100.50998,128.443)" stroke-width=".19925" stroke-linecap="butt" stroke-miterlimit="10" stroke-linejoin="miter" fill="none" stroke="#cbcbcb" d="M-85.04042-85.04042V85.04042"/>
<path transform="matrix(1.00006,0,0,-1,100.50998,128.443)" stroke-width=".19925" stroke-linecap="butt" stroke-miterlimit="10" stroke-linejoin="miter" fill="none" stroke="#cbcbcb" d="M-68.0326-85.04042V85.04042"/>
<path transform="matrix(1.00006,0,0,-1,100.50998,128.443)" stroke-width=".19925" stroke-linecap="butt" stroke-miterlimit="10" stroke-linejoin="miter" fill="none" stroke="#cbcbcb" d="M-51.02477-85.04042V85.04042"/>
<path transform="matrix(1.00006,0,0,-1,100.50998,128.443)" stroke-width=".19925" stroke-linecap="butt" stroke-miterlimit="10" stroke-linejoin="miter" fill="none" stroke="#cbcbcb" d="M-34.01694-85.04042V85.04042"/>
<path transform="matrix(1.00006,0,0,-1,100.50998,128.443)" stroke-width=".19925" stroke-linecap="butt" stroke-miterlimit="10" stroke-linejoin="miter" fill="none" stroke="#cbcbcb" d="M-17.00911-85.04042V85.04042"/>
<path transform="matrix(1.00006,0,0,-1,100.50998,128.443)" stroke-width=".19925" stroke-linecap="butt" stroke-miterlimit="10" stroke-linejoin="miter" fill="none" stroke="#cbcbcb" d="M-.00128-85.04042V85.04042"/>
<path transform="matrix(1.00006,0,0,-1,100.50998,128.443)" stroke-width=".19925" stroke-linecap="butt" stroke-miterlimit="10" stroke-linejoin="miter" fill="none" stroke="#cbcbcb" d="M17.0065-85.04042V85.04042"/>
<path transform="matrix(1.00006,0,0,-1,100.50998,128.443)" stroke-width=".19925" stroke-linecap="butt" stroke-miterlimit="10" stroke-linejoin="miter" fill="none" stroke="#cbcbcb" d="M34.01434-85.04042V85.04042"/>
<path transform="matrix(1.00006,0,0,-1,100.50998,128.443)" stroke-width=".19925" stroke-linecap="butt" stroke-miterlimit="10" stroke-linejoin="miter" fill="none" stroke="#cbcbcb" d="M51.02217-85.04042V85.04042"/>
<path transform="matrix(1.00006,0,0,-1,100.50998,128.443)" stroke-width=".19925" stroke-linecap="butt" stroke-miterlimit="10" stroke-linejoin="miter" fill="none" stroke="#cbcbcb" d="M68.02998-85.04042V85.04042"/>
<path transform="matrix(1.00006,0,0,-1,100.50998,128.443)" stroke-width=".19925" stroke-linecap="butt" stroke-miterlimit="10" stroke-linejoin="miter" fill="none" stroke="#cbcbcb" d="M85.03783-85.04042V85.04042"/>
<path transform="matrix(1.00006,0,0,-1,100.50998,128.443)" stroke-width=".19925" stroke-linecap="butt" stroke-miterlimit="10" stroke-linejoin="miter" fill="none" stroke="#cbcbcb" d="M-85.04042-85.04042H85.04042"/>
<path transform="matrix(1.00006,0,0,-1,100.50998,128.443)" stroke-width=".19925" stroke-linecap="butt" stroke-miterlimit="10" stroke-linejoin="miter" fill="none" stroke="#cbcbcb" d="M-85.04042-68.0326H85.04042"/>
<path transform="matrix(1.00006,0,0,-1,100.50998,128.443)" stroke-width=".19925" stroke-linecap="butt" stroke-miterlimit="10" stroke-linejoin="miter" fill="none" stroke="#cbcbcb" d="M-85.04042-51.02477H85.04042"/>
<path transform="matrix(1.00006,0,0,-1,100.50998,128.443)" stroke-width=".19925" stroke-linecap="butt" stroke-miterlimit="10" stroke-linejoin="miter" fill="none" stroke="#cbcbcb" d="M-85.04042-34.01694H85.04042"/>
<path transform="matrix(1.00006,0,0,-1,100.50998,128.443)" stroke-width=".19925" stroke-linecap="butt" stroke-miterlimit="10" stroke-linejoin="miter" fill="none" stroke="#cbcbcb" d="M-85.04042-17.00911H85.04042"/>
<path transform="matrix(1.00006,0,0,-1,100.50998,128.443)" stroke-width=".19925" stroke-linecap="butt" stroke-miterlimit="10" stroke-linejoin="miter" fill="none" stroke="#cbcbcb" d="M-85.04042-.00128H85.04042"/>
<path transform="matrix(1.00006,0,0,-1,100.50998,128.443)" stroke-width=".19925" stroke-linecap="butt" stroke-miterlimit="10" stroke-linejoin="miter" fill="none" stroke="#cbcbcb" d="M-85.04042 17.0065H85.04042"/>
<path transform="matrix(1.00006,0,0,-1,100.50998,128.443)" stroke-width=".19925" stroke-linecap="butt" stroke-miterlimit="10" stroke-linejoin="miter" fill="none" stroke="#cbcbcb" d="M-85.04042 34.01434H85.04042"/>
<path transform="matrix(1.00006,0,0,-1,100.50998,128.443)" stroke-width=".19925" stroke-linecap="butt" stroke-miterlimit="10" stroke-linejoin="miter" fill="none" stroke="#cbcbcb" d="M-85.04042 51.02217H85.04042"/>
<path transform="matrix(1.00006,0,0,-1,100.50998,128.443)" stroke-width=".19925" stroke-linecap="butt" stroke-miterlimit="10" stroke-linejoin="miter" fill="none" stroke="#cbcbcb" d="M-85.04042 68.02998H85.04042"/>
<path transform="matrix(1.00006,0,0,-1,100.50998,128.443)" stroke-width=".19925" stroke-linecap="butt" stroke-miterlimit="10" stroke-linejoin="miter" fill="none" stroke="#cbcbcb" d="M-85.04042 85.03783H85.04042"/>
<path transform="matrix(1.00006,0,0,-1,100.50998,128.443)" stroke-width=".79701" stroke-linecap="butt" stroke-miterlimit="10" stroke-linejoin="miter" fill="none" stroke="#1a8c8c" d="M-85.04042-85.04042-84.0682-90.87373"/>
<path transform="matrix(.16437985,.98634,.9863991,-.16437,16.436715,219.31673)" d="M2.59026 0-1.55415 2.0722 0 0-1.55415-2.0722" fill="#1a8c8c"/>
<path transform="matrix(1.00006,0,0,-1,100.50998,128.443)" stroke-width=".79701" stroke-linecap="butt" stroke-miterlimit="10" stroke-linejoin="miter" fill="none" stroke="#1a8c8c" d="M-85.04042-68.0326-83.9635-73.84753"/>
<path transform="matrix(.18206093,.98325,.983309,-.18205,16.541428,202.29053)" d="M2.59026 0-1.55415 2.0722 0 0-1.55415-2.0722" fill="#1a8c8c"/>
<path transform="matrix(1.00006,0,0,-1,100.50998,128.443)" stroke-width=".79701" stroke-linecap="butt" stroke-miterlimit="10" stroke-linejoin="miter" fill="none" stroke="#1a8c8c" d="M-85.04042-51.02477-83.8339-56.81458"/>
<path transform="matrix(.20399224,.97893,.9789887,-.20398,16.671051,185.25756)" d="M2.59026 0-1.55415 2.0722 0 0-1.55415-2.0722" fill="#1a8c8c"/>
<path transform="matrix(1.00006,0,0,-1,100.50998,128.443)" stroke-width=".79701" stroke-linecap="butt" stroke-miterlimit="10" stroke-linejoin="miter" fill="none" stroke="#1a8c8c" d="M-85.04042-34.01694-83.6709-39.7695"/>
<path transform="matrix(.2315839,.97276,.9728184,-.23157,16.83406,168.2125)" d="M2.59026 0-1.55415 2.0722 0 0-1.55415-2.0722" fill="#1a8c8c"/>
<path transform="matrix(1.00006,0,0,-1,100.50998,128.443)" stroke-width=".79701" stroke-linecap="butt" stroke-miterlimit="10" stroke-linejoin="miter" fill="none" stroke="#1a8c8c" d="M-85.04042-17.00911-83.45767-22.70706"/>
<path transform="matrix(.26765604,.96346,.9635178,-.26764,17.047303,151.15004)" d="M2.59026 0-1.55415 2.0722 0 0-1.55415-2.0722" fill="#1a8c8c"/>
<path transform="matrix(1.00006,0,0,-1,100.50998,128.443)" stroke-width=".79701" stroke-linecap="butt" stroke-miterlimit="10" stroke-linejoin="miter" fill="none" stroke="#1a8c8c" d="M-85.04042-.00128-83.17104-5.6112"/>
<path transform="matrix(.31613896,.94868,.94873687,-.31612,17.333947,134.05419)" d="M2.59026 0-1.55415 2.0722 0 0-1.55415-2.0722" fill="#1a8c8c"/>
<path transform="matrix(1.00006,0,0,-1,100.50998,128.443)" stroke-width=".79701" stroke-linecap="butt" stroke-miterlimit="10" stroke-linejoin="miter" fill="none" stroke="#1a8c8c" d="M-85.04042 17.0065-82.76578 11.54767"/>
<path transform="matrix(.38462309,.92302,.9230754,-.3846,17.73922,116.89531)" d="M2.59026 0-1.55415 2.0722 0 0-1.55415-2.0722" fill="#1a8c8c"/>
<path transform="matrix(1.00006,0,0,-1,100.50998,128.443)" stroke-width=".79701" stroke-linecap="butt" stroke-miterlimit="10" stroke-linejoin="miter" fill="none" stroke="#1a8c8c" d="M-85.04042 34.01434-82.17053 28.84576"/>
<path transform="matrix(.48545913,.87427,.8743225,-.48543,18.334519,99.59721)" d="M2.59026 0-1.55415 2.0722 0 0-1.55415-2.0722" fill="#1a8c8c"/>
<path transform="matrix(1.00006,0,0,-1,100.50998,128.443)" stroke-width=".79701" stroke-linecap="butt" stroke-miterlimit="10" stroke-linejoin="miter" fill="none" stroke="#1a8c8c" d="M-85.04042 51.02217-81.25572 46.47952"/>
<path transform="matrix(.6400984,.76825,.76829609,-.64006,19.249367,81.96347)" d="M2.59026 0-1.55415 2.0722 0 0-1.55415-2.0722" fill="#1a8c8c"/>
<path transform="matrix(1.00006,0,0,-1,100.50998,128.443)" stroke-width=".79701" stroke-linecap="butt" stroke-miterlimit="10" stroke-linejoin="miter" fill="none" stroke="#1a8c8c" d="M-85.04042 68.02998-79.97055 64.98763"/>
<path transform="matrix(.85749146,.51453,.5145609,-.85744,20.53463,63.45536)" d="M2.59026 0-1.55415 2.0722 0 0-1.55415-2.0722" fill="#1a8c8c"/>
<path transform="matrix(1.00006,0,0,-1,100.50998,128.443)" stroke-width=".79701" stroke-linecap="butt" stroke-miterlimit="10" stroke-linejoin="miter" fill="none" stroke="#1a8c8c" d="M-85.04042 85.03783-79.12656 85.0374"/>
<path transform="matrix(1.00006,0,0,-1,21.378678,43.405595)" d="M2.59026 0-1.55415 2.0722 0 0-1.55415-2.0722" fill="#1a8c8c"/>
<path transform="matrix(1.00006,0,0,-1,100.50998,128.443)" stroke-width=".79701" stroke-linecap="butt" stroke-miterlimit="10" stroke-linejoin="miter" fill="none" stroke="#1a8c8c" d="M-68.0326-85.04042-66.95566-90.85538"/>
<path transform="matrix(.18206093,.98325,.983309,-.18205,33.550294,219.29837)" d="M2.59026 0-1.55415 2.0722 0 0-1.55415-2.0722" fill="#1a8c8c"/>
<path transform="matrix(1.00006,0,0,-1,100.50998,128.443)" stroke-width=".79701" stroke-linecap="butt" stroke-miterlimit="10" stroke-linejoin="miter" fill="none" stroke="#1a8c8c" d="M-68.0326-68.0326-66.82605-73.8224"/>
<path transform="matrix(.20399224,.97893,.9789887,-.20398,33.679925,202.26538)" d="M2.59026 0-1.55415 2.0722 0 0-1.55415-2.0722" fill="#1a8c8c"/>
<path transform="matrix(1.00006,0,0,-1,100.50998,128.443)" stroke-width=".79701" stroke-linecap="butt" stroke-miterlimit="10" stroke-linejoin="miter" fill="none" stroke="#1a8c8c" d="M-68.0326-51.02477-66.66306-56.77733"/>
<path transform="matrix(.2315839,.97276,.9728184,-.23157,33.84292,185.22032)" d="M2.59026 0-1.55415 2.0722 0 0-1.55415-2.0722" fill="#1a8c8c"/>
<path transform="matrix(1.00006,0,0,-1,100.50998,128.443)" stroke-width=".79701" stroke-linecap="butt" stroke-miterlimit="10" stroke-linejoin="miter" fill="none" stroke="#1a8c8c" d="M-68.0326-34.01694-66.44983-39.7149"/>
<path transform="matrix(.26765604,.96346,.9635178,-.26764,34.056169,168.15789)" d="M2.59026 0-1.55415 2.0722 0 0-1.55415-2.0722" fill="#1a8c8c"/>
<path transform="matrix(1.00006,0,0,-1,100.50998,128.443)" stroke-width=".79701" stroke-linecap="butt" stroke-miterlimit="10" stroke-linejoin="miter" fill="none" stroke="#1a8c8c" d="M-68.0326-17.00911-66.1632-22.61903"/>
<path transform="matrix(.31613896,.94868,.94873687,-.31612,34.34281,151.06201)" d="M2.59026 0-1.55415 2.0722 0 0-1.55415-2.0722" fill="#1a8c8c"/>
<path transform="matrix(1.00006,0,0,-1,100.50998,128.443)" stroke-width=".79701" stroke-linecap="butt" stroke-miterlimit="10" stroke-linejoin="miter" fill="none" stroke="#1a8c8c" d="M-68.0326-.00128-65.75795-5.46011"/>
<path transform="matrix(.38462309,.92302,.9230754,-.3846,34.748064,133.90309)" d="M2.59026 0-1.55415 2.0722 0 0-1.55415-2.0722" fill="#1a8c8c"/>
<path transform="matrix(1.00006,0,0,-1,100.50998,128.443)" stroke-width=".79701" stroke-linecap="butt" stroke-miterlimit="10" stroke-linejoin="miter" fill="none" stroke="#1a8c8c" d="M-68.0326 17.0065-65.16269 11.83792"/>
<path transform="matrix(.48545913,.87427,.8743225,-.48543,35.343385,116.60506)" d="M2.59026 0-1.55415 2.0722 0 0-1.55415-2.0722" fill="#1a8c8c"/>
<path transform="matrix(1.00006,0,0,-1,100.50998,128.443)" stroke-width=".79701" stroke-linecap="butt" stroke-miterlimit="10" stroke-linejoin="miter" fill="none" stroke="#1a8c8c" d="M-68.0326 34.01434-64.24788 29.47171"/>
<path transform="matrix(.6400984,.76825,.76829609,-.64006,36.258226,98.97128)" d="M2.59026 0-1.55415 2.0722 0 0-1.55415-2.0722" fill="#1a8c8c"/>
<path transform="matrix(1.00006,0,0,-1,100.50998,128.443)" stroke-width=".79701" stroke-linecap="butt" stroke-miterlimit="10" stroke-linejoin="miter" fill="none" stroke="#1a8c8c" d="M-68.0326 51.02217-62.9627 47.97981"/>
<path transform="matrix(.85749146,.51453,.5145609,-.85744,37.543504,80.46318)" d="M2.59026 0-1.55415 2.0722 0 0-1.55415-2.0722" fill="#1a8c8c"/>
<path transform="matrix(1.00006,0,0,-1,100.50998,128.443)" stroke-width=".79701" stroke-linecap="butt" stroke-miterlimit="10" stroke-linejoin="miter" fill="none" stroke="#1a8c8c" d="M-68.0326 68.02998-62.11873 68.02956"/>
<path transform="matrix(1.00006,0,0,-1,38.387529,60.413438)" d="M2.59026 0-1.55415 2.0722 0 0-1.55415-2.0722" fill="#1a8c8c"/>
<path transform="matrix(1.00006,0,0,-1,100.50998,128.443)" stroke-width=".79701" stroke-linecap="butt" stroke-miterlimit="10" stroke-linejoin="miter" fill="none" stroke="#1a8c8c" d="M-68.0326 85.03783-62.96051 88.07953"/>
<path transform="matrix(.85764148,-.51428,-.51431086,-.85759,37.545675,40.363466)" d="M2.59026 0-1.55415 2.0722 0 0-1.55415-2.0722" fill="#1a8c8c"/>
<path transform="matrix(1.00006,0,0,-1,100.50998,128.443)" stroke-width=".79701" stroke-linecap="butt" stroke-miterlimit="10" stroke-linejoin="miter" fill="none" stroke="#1a8c8c" d="M-51.02477-85.04042-49.81822-90.83023"/>
<path transform="matrix(.20399224,.97893,.9789887,-.20398,50.688776,219.27323)" d="M2.59026 0-1.55415 2.0722 0 0-1.55415-2.0722" fill="#1a8c8c"/>
<path transform="matrix(1.00006,0,0,-1,100.50998,128.443)" stroke-width=".79701" stroke-linecap="butt" stroke-miterlimit="10" stroke-linejoin="miter" fill="none" stroke="#1a8c8c" d="M-51.02477-68.0326-49.65523-73.78516"/>
<path transform="matrix(.2315839,.97276,.9728184,-.23157,50.85177,202.22815)" d="M2.59026 0-1.55415 2.0722 0 0-1.55415-2.0722" fill="#1a8c8c"/>
<path transform="matrix(1.00006,0,0,-1,100.50998,128.443)" stroke-width=".79701" stroke-linecap="butt" stroke-miterlimit="10" stroke-linejoin="miter" fill="none" stroke="#1a8c8c" d="M-51.02477-51.02477-49.44202-56.72272"/>
<path transform="matrix(.26765604,.96346,.9635178,-.26764,51.064996,185.1657)" d="M2.59026 0-1.55415 2.0722 0 0-1.55415-2.0722" fill="#1a8c8c"/>
<path transform="matrix(1.00006,0,0,-1,100.50998,128.443)" stroke-width=".79701" stroke-linecap="butt" stroke-miterlimit="10" stroke-linejoin="miter" fill="none" stroke="#1a8c8c" d="M-51.02477-34.01694-49.15538-39.62686"/>
<path transform="matrix(.31613896,.94868,.94873687,-.31612,51.35165,168.06984)" d="M2.59026 0-1.55415 2.0722 0 0-1.55415-2.0722" fill="#1a8c8c"/>
<path transform="matrix(1.00006,0,0,-1,100.50998,128.443)" stroke-width=".79701" stroke-linecap="butt" stroke-miterlimit="10" stroke-linejoin="miter" fill="none" stroke="#1a8c8c" d="M-51.02477-17.00911-48.75012-22.46794"/>
<path transform="matrix(.38462309,.92302,.9230754,-.3846,51.756917,150.91092)" d="M2.59026 0-1.55415 2.0722 0 0-1.55415-2.0722" fill="#1a8c8c"/>
<path transform="matrix(1.00006,0,0,-1,100.50998,128.443)" stroke-width=".79701" stroke-linecap="butt" stroke-miterlimit="10" stroke-linejoin="miter" fill="none" stroke="#1a8c8c" d="M-51.02477-.00128-48.15488-5.16986"/>
<path transform="matrix(.48545913,.87427,.8743225,-.48543,52.35221,133.61284)" d="M2.59026 0-1.55415 2.0722 0 0-1.55415-2.0722" fill="#1a8c8c"/>
<path transform="matrix(1.00006,0,0,-1,100.50998,128.443)" stroke-width=".79701" stroke-linecap="butt" stroke-miterlimit="10" stroke-linejoin="miter" fill="none" stroke="#1a8c8c" d="M-51.02477 17.0065-47.24007 12.46387"/>
<path transform="matrix(.6400984,.76825,.76829609,-.64006,53.267065,115.979129)" d="M2.59026 0-1.55415 2.0722 0 0-1.55415-2.0722" fill="#1a8c8c"/>
<path transform="matrix(1.00006,0,0,-1,100.50998,128.443)" stroke-width=".79701" stroke-linecap="butt" stroke-miterlimit="10" stroke-linejoin="miter" fill="none" stroke="#1a8c8c" d="M-51.02477 34.01434-45.9549 30.97198"/>
<path transform="matrix(.85749146,.51453,.5145609,-.85744,54.552328,97.471019)" d="M2.59026 0-1.55415 2.0722 0 0-1.55415-2.0722" fill="#1a8c8c"/>
<path transform="matrix(1.00006,0,0,-1,100.50998,128.443)" stroke-width=".79701" stroke-linecap="butt" stroke-miterlimit="10" stroke-linejoin="miter" fill="none" stroke="#1a8c8c" d="M-51.02477 51.02217-45.1109 51.02174"/>
<path transform="matrix(1.00006,0,0,-1,55.396375,77.42125)" d="M2.59026 0-1.55415 2.0722 0 0-1.55415-2.0722" fill="#1a8c8c"/>
<path transform="matrix(1.00006,0,0,-1,100.50998,128.443)" stroke-width=".79701" stroke-linecap="butt" stroke-miterlimit="10" stroke-linejoin="miter" fill="none" stroke="#1a8c8c" d="M-51.02477 68.02998-45.95268 71.07169"/>
<path transform="matrix(.85764148,-.51428,-.51431086,-.85759,54.554525,57.3713)" d="M2.59026 0-1.55415 2.0722 0 0-1.55415-2.0722" fill="#1a8c8c"/>
<path transform="matrix(1.00006,0,0,-1,100.50998,128.443)" stroke-width=".79701" stroke-linecap="butt" stroke-miterlimit="10" stroke-linejoin="miter" fill="none" stroke="#1a8c8c" d="M-51.02477 85.03783-47.24036 89.57893"/>
<path transform="matrix(.64020839,-.76817,-.7682161,-.64017,53.266786,38.86406)" d="M2.59026 0-1.55415 2.0722 0 0-1.55415-2.0722" fill="#1a8c8c"/>
<path transform="matrix(1.00006,0,0,-1,100.50998,128.443)" stroke-width=".79701" stroke-linecap="butt" stroke-miterlimit="10" stroke-linejoin="miter" fill="none" stroke="#1a8c8c" d="M-34.01694-85.04042-32.64742-90.79298"/>
<path transform="matrix(.2315839,.97276,.9728184,-.23157,67.8606,219.23596)" d="M2.59026 0-1.55415 2.0722 0 0-1.55415-2.0722" fill="#1a8c8c"/>
<path transform="matrix(1.00006,0,0,-1,100.50998,128.443)" stroke-width=".79701" stroke-linecap="butt" stroke-miterlimit="10" stroke-linejoin="miter" fill="none" stroke="#1a8c8c" d="M-34.01694-68.0326-32.43419-73.73055"/>
<path transform="matrix(.26765604,.96346,.9635178,-.26764,68.073848,202.17353)" d="M2.59026 0-1.55415 2.0722 0 0-1.55415-2.0722" fill="#1a8c8c"/>
<path transform="matrix(1.00006,0,0,-1,100.50998,128.443)" stroke-width=".79701" stroke-linecap="butt" stroke-miterlimit="10" stroke-linejoin="miter" fill="none" stroke="#1a8c8c" d="M-34.01694-51.02477-32.14755-56.63469"/>
<path transform="matrix(.31613896,.94868,.94873687,-.31612,68.360507,185.07767)" d="M2.59026 0-1.55415 2.0722 0 0-1.55415-2.0722" fill="#1a8c8c"/>
<path transform="matrix(1.00006,0,0,-1,100.50998,128.443)" stroke-width=".79701" stroke-linecap="butt" stroke-miterlimit="10" stroke-linejoin="miter" fill="none" stroke="#1a8c8c" d="M-34.01694-34.01694-31.7423-39.47577"/>
<path transform="matrix(.38462309,.92302,.9230754,-.3846,68.76576,167.91875)" d="M2.59026 0-1.55415 2.0722 0 0-1.55415-2.0722" fill="#1a8c8c"/>
<path transform="matrix(1.00006,0,0,-1,100.50998,128.443)" stroke-width=".79701" stroke-linecap="butt" stroke-miterlimit="10" stroke-linejoin="miter" fill="none" stroke="#1a8c8c" d="M-34.01694-17.00911-31.14705-22.17769"/>
<path transform="matrix(.48545913,.87427,.8743225,-.48543,69.36106,150.62067)" d="M2.59026 0-1.55415 2.0722 0 0-1.55415-2.0722" fill="#1a8c8c"/>
<path transform="matrix(1.00006,0,0,-1,100.50998,128.443)" stroke-width=".79701" stroke-linecap="butt" stroke-miterlimit="10" stroke-linejoin="miter" fill="none" stroke="#1a8c8c" d="M-34.01694-.00128-30.23224-4.54393"/>
<path transform="matrix(.6400984,.76825,.76829609,-.64006,70.27592,132.98693)" d="M2.59026 0-1.55415 2.0722 0 0-1.55415-2.0722" fill="#1a8c8c"/>
<path transform="matrix(1.00006,0,0,-1,100.50998,128.443)" stroke-width=".79701" stroke-linecap="butt" stroke-miterlimit="10" stroke-linejoin="miter" fill="none" stroke="#1a8c8c" d="M-34.01694 17.0065-28.94707 13.96416"/>
<path transform="matrix(.85749146,.51453,.5145609,-.85744,71.56117,114.478839)" d="M2.59026 0-1.55415 2.0722 0 0-1.55415-2.0722" fill="#1a8c8c"/>
<path transform="matrix(1.00006,0,0,-1,100.50998,128.443)" stroke-width=".79701" stroke-linecap="butt" stroke-miterlimit="10" stroke-linejoin="miter" fill="none" stroke="#1a8c8c" d="M-34.01694 34.01434-28.10309 34.01392"/>
<path transform="matrix(1.00006,0,0,-1,72.405208,94.42908)" d="M2.59026 0-1.55415 2.0722 0 0-1.55415-2.0722" fill="#1a8c8c"/>
<path transform="matrix(1.00006,0,0,-1,100.50998,128.443)" stroke-width=".79701" stroke-linecap="butt" stroke-miterlimit="10" stroke-linejoin="miter" fill="none" stroke="#1a8c8c" d="M-34.01694 51.02217-28.94487 54.06387"/>
<path transform="matrix(.85764148,-.51428,-.51431086,-.85759,71.563358,74.37912)" d="M2.59026 0-1.55415 2.0722 0 0-1.55415-2.0722" fill="#1a8c8c"/>
<path transform="matrix(1.00006,0,0,-1,100.50998,128.443)" stroke-width=".79701" stroke-linecap="butt" stroke-miterlimit="10" stroke-linejoin="miter" fill="none" stroke="#1a8c8c" d="M-34.01694 68.02998-30.23253 72.57109"/>
<path transform="matrix(.64020839,-.76817,-.7682161,-.64017,70.275638,55.871904)" d="M2.59026 0-1.55415 2.0722 0 0-1.55415-2.0722" fill="#1a8c8c"/>
<path transform="matrix(1.00006,0,0,-1,100.50998,128.443)" stroke-width=".79701" stroke-linecap="butt" stroke-miterlimit="10" stroke-linejoin="miter" fill="none" stroke="#1a8c8c" d="M-34.01694 85.03783-31.14708 90.20604"/>
<path transform="matrix(.4854691,-.87424,-.8742924,-.48544,69.36101,38.236978)" d="M2.59026 0-1.55415 2.0722 0 0-1.55415-2.0722" fill="#1a8c8c"/>
<path transform="matrix(1.00006,0,0,-1,100.50998,128.443)" stroke-width=".79701" stroke-linecap="butt" stroke-miterlimit="10" stroke-linejoin="miter" fill="none" stroke="#1a8c8c" d="M-17.00911-85.04042-15.42635-90.73839"/>
<path transform="matrix(.26765604,.96346,.9635178,-.26764,85.0827,219.18137)" d="M2.59026 0-1.55415 2.0722 0 0-1.55415-2.0722" fill="#1a8c8c"/>
<path transform="matrix(1.00006,0,0,-1,100.50998,128.443)" stroke-width=".79701" stroke-linecap="butt" stroke-miterlimit="10" stroke-linejoin="miter" fill="none" stroke="#1a8c8c" d="M-17.00911-68.0326-15.13972-73.64252"/>
<path transform="matrix(.31613896,.94868,.94873687,-.31612,85.369358,202.0855)" d="M2.59026 0-1.55415 2.0722 0 0-1.55415-2.0722" fill="#1a8c8c"/>
<path transform="matrix(1.00006,0,0,-1,100.50998,128.443)" stroke-width=".79701" stroke-linecap="butt" stroke-miterlimit="10" stroke-linejoin="miter" fill="none" stroke="#1a8c8c" d="M-17.00911-51.02477-14.73447-56.4836"/>
<path transform="matrix(.38462309,.92302,.9230754,-.3846,85.77461,184.92658)" d="M2.59026 0-1.55415 2.0722 0 0-1.55415-2.0722" fill="#1a8c8c"/>
<path transform="matrix(1.00006,0,0,-1,100.50998,128.443)" stroke-width=".79701" stroke-linecap="butt" stroke-miterlimit="10" stroke-linejoin="miter" fill="none" stroke="#1a8c8c" d="M-17.00911-34.01694-14.13922-39.18552"/>
<path transform="matrix(.48545913,.87427,.8743225,-.48543,86.36991,167.62851)" d="M2.59026 0-1.55415 2.0722 0 0-1.55415-2.0722" fill="#1a8c8c"/>
<path transform="matrix(1.00006,0,0,-1,100.50998,128.443)" stroke-width=".79701" stroke-linecap="butt" stroke-miterlimit="10" stroke-linejoin="miter" fill="none" stroke="#1a8c8c" d="M-17.00911-17.00911-13.22441-21.55174"/>
<path transform="matrix(.6400984,.76825,.76829609,-.64006,87.28476,149.99474)" d="M2.59026 0-1.55415 2.0722 0 0-1.55415-2.0722" fill="#1a8c8c"/>
<path transform="matrix(1.00006,0,0,-1,100.50998,128.443)" stroke-width=".79701" stroke-linecap="butt" stroke-miterlimit="10" stroke-linejoin="miter" fill="none" stroke="#1a8c8c" d="M-17.00911-.00128-11.93922-3.04364"/>
<path transform="matrix(.85749146,.51453,.5145609,-.85744,88.570049,131.48664)" d="M2.59026 0-1.55415 2.0722 0 0-1.55415-2.0722" fill="#1a8c8c"/>
<path transform="matrix(1.00006,0,0,-1,100.50998,128.443)" stroke-width=".79701" stroke-linecap="butt" stroke-miterlimit="10" stroke-linejoin="miter" fill="none" stroke="#1a8c8c" d="M-17.00911 17.0065-11.09525 17.00609"/>
<path transform="matrix(1.00006,0,0,-1,89.41406,111.436908)" d="M2.59026 0-1.55415 2.0722 0 0-1.55415-2.0722" fill="#1a8c8c"/>
<path transform="matrix(1.00006,0,0,-1,100.50998,128.443)" stroke-width=".79701" stroke-linecap="butt" stroke-miterlimit="10" stroke-linejoin="miter" fill="none" stroke="#1a8c8c" d="M-17.00911 34.01434-11.93703 37.05605"/>
<path transform="matrix(.85764148,-.51428,-.51431086,-.85759,88.57222,91.38695)" d="M2.59026 0-1.55415 2.0722 0 0-1.55415-2.0722" fill="#1a8c8c"/>
<path transform="matrix(1.00006,0,0,-1,100.50998,128.443)" stroke-width=".79701" stroke-linecap="butt" stroke-miterlimit="10" stroke-linejoin="miter" fill="none" stroke="#1a8c8c" d="M-17.00911 51.02217-13.2247 55.56326"/>
<path transform="matrix(.64020839,-.76817,-.7682161,-.64017,87.284488,72.87973)" d="M2.59026 0-1.55415 2.0722 0 0-1.55415-2.0722" fill="#1a8c8c"/>
<path transform="matrix(1.00006,0,0,-1,100.50998,128.443)" stroke-width=".79701" stroke-linecap="butt" stroke-miterlimit="10" stroke-linejoin="miter" fill="none" stroke="#1a8c8c" d="M-17.00911 68.02998-14.13925 73.1982"/>
<path transform="matrix(.4854691,-.87424,-.8742924,-.48544,86.36986,55.244813)" d="M2.59026 0-1.55415 2.0722 0 0-1.55415-2.0722" fill="#1a8c8c"/>
<path transform="matrix(1.00006,0,0,-1,100.50998,128.443)" stroke-width=".79701" stroke-linecap="butt" stroke-miterlimit="10" stroke-linejoin="miter" fill="none" stroke="#1a8c8c" d="M-17.00911 85.03783-14.7341 90.4967"/>
<path transform="matrix(.38465307,-.923,-.92305538,-.38463,85.774997,37.946306)" d="M2.59026 0-1.55415 2.0722 0 0-1.55415-2.0722" fill="#1a8c8c"/>
<path transform="matrix(1.00006,0,0,-1,100.50998,128.443)" stroke-width=".79701" stroke-linecap="butt" stroke-miterlimit="10" stroke-linejoin="miter" fill="none" stroke="#1a8c8c" d="M-.00128-85.04042 1.86809-90.65034"/>
<path transform="matrix(.31613896,.94868,.94873687,-.31612,102.37818,219.09333)" d="M2.59026 0-1.55415 2.0722 0 0-1.55415-2.0722" fill="#1a8c8c"/>
<path transform="matrix(1.00006,0,0,-1,100.50998,128.443)" stroke-width=".79701" stroke-linecap="butt" stroke-miterlimit="10" stroke-linejoin="miter" fill="none" stroke="#1a8c8c" d="M-.00128-68.0326 2.27335-73.49142"/>
<path transform="matrix(.38462309,.92302,.9230754,-.3846,102.78345,201.9344)" d="M2.59026 0-1.55415 2.0722 0 0-1.55415-2.0722" fill="#1a8c8c"/>
<path transform="matrix(1.00006,0,0,-1,100.50998,128.443)" stroke-width=".79701" stroke-linecap="butt" stroke-miterlimit="10" stroke-linejoin="miter" fill="none" stroke="#1a8c8c" d="M-.00128-51.02477 2.86859-56.19334"/>
<path transform="matrix(.48545913,.87427,.8743225,-.48543,103.37874,184.63632)" d="M2.59026 0-1.55415 2.0722 0 0-1.55415-2.0722" fill="#1a8c8c"/>
<path transform="matrix(1.00006,0,0,-1,100.50998,128.443)" stroke-width=".79701" stroke-linecap="butt" stroke-miterlimit="10" stroke-linejoin="miter" fill="none" stroke="#1a8c8c" d="M-.00128-34.01694 3.7834-38.55959"/>
<path transform="matrix(.6400984,.76825,.76829609,-.64006,104.293598,167.00258)" d="M2.59026 0-1.55415 2.0722 0 0-1.55415-2.0722" fill="#1a8c8c"/>
<path transform="matrix(1.00006,0,0,-1,100.50998,128.443)" stroke-width=".79701" stroke-linecap="butt" stroke-miterlimit="10" stroke-linejoin="miter" fill="none" stroke="#1a8c8c" d="M-.00128-17.00911 5.06857-20.05147"/>
<path transform="matrix(.85749146,.51453,.5145609,-.85744,105.57885,148.49446)" d="M2.59026 0-1.55415 2.0722 0 0-1.55415-2.0722" fill="#1a8c8c"/>
<path transform="matrix(1.00006,0,0,-1,100.50998,128.443)" stroke-width=".79701" stroke-linecap="butt" stroke-miterlimit="10" stroke-linejoin="miter" fill="none" stroke="#1a8c8c" d="M-.00128-.00128 5.91255-.00171"/>
<path transform="matrix(1.00006,0,0,-1,106.42288,128.4447)" d="M2.59026 0-1.55415 2.0722 0 0-1.55415-2.0722" fill="#1a8c8c"/>
<path transform="matrix(1.00006,0,0,-1,100.50998,128.443)" stroke-width=".79701" stroke-linecap="butt" stroke-miterlimit="10" stroke-linejoin="miter" fill="none" stroke="#1a8c8c" d="M-.00128 17.0065 5.07079 20.0482"/>
<path transform="matrix(.85764148,-.51428,-.51431086,-.85759,105.581058,108.39479)" d="M2.59026 0-1.55415 2.0722 0 0-1.55415-2.0722" fill="#1a8c8c"/>
<path transform="matrix(1.00006,0,0,-1,100.50998,128.443)" stroke-width=".79701" stroke-linecap="butt" stroke-miterlimit="10" stroke-linejoin="miter" fill="none" stroke="#1a8c8c" d="M-.00128 34.01434 3.78311 38.55545"/>
<path transform="matrix(.64020839,-.76817,-.7682161,-.64017,104.29332,89.88754)" d="M2.59026 0-1.55415 2.0722 0 0-1.55415-2.0722" fill="#1a8c8c"/>
<path transform="matrix(1.00006,0,0,-1,100.50998,128.443)" stroke-width=".79701" stroke-linecap="butt" stroke-miterlimit="10" stroke-linejoin="miter" fill="none" stroke="#1a8c8c" d="M-.00128 51.02217 2.86856 56.19038"/>
<path transform="matrix(.4854691,-.87424,-.8742924,-.48544,103.3787,72.252628)" d="M2.59026 0-1.55415 2.0722 0 0-1.55415-2.0722" fill="#1a8c8c"/>
<path transform="matrix(1.00006,0,0,-1,100.50998,128.443)" stroke-width=".79701" stroke-linecap="butt" stroke-miterlimit="10" stroke-linejoin="miter" fill="none" stroke="#1a8c8c" d="M-.00128 68.02998 2.27371 73.48886"/>
<path transform="matrix(.38465307,-.923,-.92305538,-.38463,102.78383,54.95414)" d="M2.59026 0-1.55415 2.0722 0 0-1.55415-2.0722" fill="#1a8c8c"/>
<path transform="matrix(1.00006,0,0,-1,100.50998,128.443)" stroke-width=".79701" stroke-linecap="butt" stroke-miterlimit="10" stroke-linejoin="miter" fill="none" stroke="#1a8c8c" d="M-.00128 85.03783 1.86917 90.64874"/>
<path transform="matrix(.31622897,-.94864,-.94869688,-.31621,102.379268,37.79425)" d="M2.59026 0-1.55415 2.0722 0 0-1.55415-2.0722" fill="#1a8c8c"/>
<path transform="matrix(1.00006,0,0,-1,100.50998,128.443)" stroke-width=".79701" stroke-linecap="butt" stroke-miterlimit="10" stroke-linejoin="miter" fill="none" stroke="#1a8c8c" d="M17.0065-85.04042 19.28114-90.49925"/>
<path transform="matrix(.38462309,.92302,.9230754,-.3846,119.79227,218.94223)" d="M2.59026 0-1.55415 2.0722 0 0-1.55415-2.0722" fill="#1a8c8c"/>
<path transform="matrix(1.00006,0,0,-1,100.50998,128.443)" stroke-width=".79701" stroke-linecap="butt" stroke-miterlimit="10" stroke-linejoin="miter" fill="none" stroke="#1a8c8c" d="M17.0065-68.0326 19.8764-73.20117"/>
<path transform="matrix(.48545913,.87427,.8743225,-.48543,120.38757,201.64415)" d="M2.59026 0-1.55415 2.0722 0 0-1.55415-2.0722" fill="#1a8c8c"/>
<path transform="matrix(1.00006,0,0,-1,100.50998,128.443)" stroke-width=".79701" stroke-linecap="butt" stroke-miterlimit="10" stroke-linejoin="miter" fill="none" stroke="#1a8c8c" d="M17.0065-51.02477 20.7912-55.5674"/>
<path transform="matrix(.6400984,.76825,.76829609,-.64006,121.30241,184.01039)" d="M2.59026 0-1.55415 2.0722 0 0-1.55415-2.0722" fill="#1a8c8c"/>
<path transform="matrix(1.00006,0,0,-1,100.50998,128.443)" stroke-width=".79701" stroke-linecap="butt" stroke-miterlimit="10" stroke-linejoin="miter" fill="none" stroke="#1a8c8c" d="M17.0065-34.01694 22.07639-37.0593"/>
<path transform="matrix(.85749146,.51453,.5145609,-.85744,122.58769,165.50229)" d="M2.59026 0-1.55415 2.0722 0 0-1.55415-2.0722" fill="#1a8c8c"/>
<path transform="matrix(1.00006,0,0,-1,100.50998,128.443)" stroke-width=".79701" stroke-linecap="butt" stroke-miterlimit="10" stroke-linejoin="miter" fill="none" stroke="#1a8c8c" d="M17.0065-17.00911 22.92036-17.00954"/>
<path transform="matrix(1.00006,0,0,-1,123.43172,145.45253)" d="M2.59026 0-1.55415 2.0722 0 0-1.55415-2.0722" fill="#1a8c8c"/>
<path transform="matrix(1.00006,0,0,-1,100.50998,128.443)" stroke-width=".79701" stroke-linecap="butt" stroke-miterlimit="10" stroke-linejoin="miter" fill="none" stroke="#1a8c8c" d="M17.0065-.00128 22.07858 3.0404"/>
<path transform="matrix(.85764148,-.51428,-.51431086,-.85759,122.589878,125.402599)" d="M2.59026 0-1.55415 2.0722 0 0-1.55415-2.0722" fill="#1a8c8c"/>
<path transform="matrix(1.00006,0,0,-1,100.50998,128.443)" stroke-width=".79701" stroke-linecap="butt" stroke-miterlimit="10" stroke-linejoin="miter" fill="none" stroke="#1a8c8c" d="M17.0065 17.0065 20.79092 21.5476"/>
<path transform="matrix(.64020839,-.76817,-.7682161,-.64017,121.30215,106.89539)" d="M2.59026 0-1.55415 2.0722 0 0-1.55415-2.0722" fill="#1a8c8c"/>
<path transform="matrix(1.00006,0,0,-1,100.50998,128.443)" stroke-width=".79701" stroke-linecap="butt" stroke-miterlimit="10" stroke-linejoin="miter" fill="none" stroke="#1a8c8c" d="M17.0065 34.01434 19.87637 39.18256"/>
<path transform="matrix(.4854691,-.87424,-.8742924,-.48544,120.38753,89.26045)" d="M2.59026 0-1.55415 2.0722 0 0-1.55415-2.0722" fill="#1a8c8c"/>
<path transform="matrix(1.00006,0,0,-1,100.50998,128.443)" stroke-width=".79701" stroke-linecap="butt" stroke-miterlimit="10" stroke-linejoin="miter" fill="none" stroke="#1a8c8c" d="M17.0065 51.02217 19.28151 56.48105"/>
<path transform="matrix(.38465307,-.923,-.92305538,-.38463,119.79265,71.96196)" d="M2.59026 0-1.55415 2.0722 0 0-1.55415-2.0722" fill="#1a8c8c"/>
<path transform="matrix(1.00006,0,0,-1,100.50998,128.443)" stroke-width=".79701" stroke-linecap="butt" stroke-miterlimit="10" stroke-linejoin="miter" fill="none" stroke="#1a8c8c" d="M17.0065 68.02998 18.87697 73.6409"/>
<path transform="matrix(.31622897,-.94864,-.94869688,-.31621,119.38808,54.802095)" d="M2.59026 0-1.55415 2.0722 0 0-1.55415-2.0722" fill="#1a8c8c"/>
<path transform="matrix(1.00006,0,0,-1,100.50998,128.443)" stroke-width=".79701" stroke-linecap="butt" stroke-miterlimit="10" stroke-linejoin="miter" fill="none" stroke="#1a8c8c" d="M17.0065 85.03783 18.58969 90.73665"/>
<path transform="matrix(.26765604,-.96346,-.9635178,-.26764,119.100788,37.70636)" d="M2.59026 0-1.55415 2.0722 0 0-1.55415-2.0722" fill="#1a8c8c"/>
<path transform="matrix(1.00006,0,0,-1,100.50998,128.443)" stroke-width=".79701" stroke-linecap="butt" stroke-miterlimit="10" stroke-linejoin="miter" fill="none" stroke="#1a8c8c" d="M34.01434-85.04042 36.88423-90.209"/>
<path transform="matrix(.48545913,.87427,.8743225,-.48543,137.39643,218.65198)" d="M2.59026 0-1.55415 2.0722 0 0-1.55415-2.0722" fill="#1a8c8c"/>
<path transform="matrix(1.00006,0,0,-1,100.50998,128.443)" stroke-width=".79701" stroke-linecap="butt" stroke-miterlimit="10" stroke-linejoin="miter" fill="none" stroke="#1a8c8c" d="M34.01434-68.0326 37.79904-72.57523"/>
<path transform="matrix(.6400984,.76825,.76829609,-.64006,138.31128,201.01822)" d="M2.59026 0-1.55415 2.0722 0 0-1.55415-2.0722" fill="#1a8c8c"/>
<path transform="matrix(1.00006,0,0,-1,100.50998,128.443)" stroke-width=".79701" stroke-linecap="butt" stroke-miterlimit="10" stroke-linejoin="miter" fill="none" stroke="#1a8c8c" d="M34.01434-51.02477 39.08421-54.06712"/>
<path transform="matrix(.85749146,.51453,.5145609,-.85744,139.59653,182.51012)" d="M2.59026 0-1.55415 2.0722 0 0-1.55415-2.0722" fill="#1a8c8c"/>
<path transform="matrix(1.00006,0,0,-1,100.50998,128.443)" stroke-width=".79701" stroke-linecap="butt" stroke-miterlimit="10" stroke-linejoin="miter" fill="none" stroke="#1a8c8c" d="M34.01434-34.01694 39.9282-34.01736"/>
<path transform="matrix(1.00006,0,0,-1,140.44058,162.46036)" d="M2.59026 0-1.55415 2.0722 0 0-1.55415-2.0722" fill="#1a8c8c"/>
<path transform="matrix(1.00006,0,0,-1,100.50998,128.443)" stroke-width=".79701" stroke-linecap="butt" stroke-miterlimit="10" stroke-linejoin="miter" fill="none" stroke="#1a8c8c" d="M34.01434-17.00911 39.08643-13.9674"/>
<path transform="matrix(.85764148,-.51428,-.51431086,-.85759,139.59873,142.4104)" d="M2.59026 0-1.55415 2.0722 0 0-1.55415-2.0722" fill="#1a8c8c"/>
<path transform="matrix(1.00006,0,0,-1,100.50998,128.443)" stroke-width=".79701" stroke-linecap="butt" stroke-miterlimit="10" stroke-linejoin="miter" fill="none" stroke="#1a8c8c" d="M34.01434-.00128 37.79875 4.53981"/>
<path transform="matrix(.64020839,-.76817,-.7682161,-.64017,138.311,123.90318)" d="M2.59026 0-1.55415 2.0722 0 0-1.55415-2.0722" fill="#1a8c8c"/>
<path transform="matrix(1.00006,0,0,-1,100.50998,128.443)" stroke-width=".79701" stroke-linecap="butt" stroke-miterlimit="10" stroke-linejoin="miter" fill="none" stroke="#1a8c8c" d="M34.01434 17.0065 36.8842 22.17473"/>
<path transform="matrix(.4854691,-.87424,-.8742924,-.48544,137.39638,106.26828)" d="M2.59026 0-1.55415 2.0722 0 0-1.55415-2.0722" fill="#1a8c8c"/>
<path transform="matrix(1.00006,0,0,-1,100.50998,128.443)" stroke-width=".79701" stroke-linecap="butt" stroke-miterlimit="10" stroke-linejoin="miter" fill="none" stroke="#1a8c8c" d="M34.01434 34.01434 36.28935 39.47322"/>
<path transform="matrix(.38465307,-.923,-.92305538,-.38463,136.8015,88.96979)" d="M2.59026 0-1.55415 2.0722 0 0-1.55415-2.0722" fill="#1a8c8c"/>
<path transform="matrix(1.00006,0,0,-1,100.50998,128.443)" stroke-width=".79701" stroke-linecap="butt" stroke-miterlimit="10" stroke-linejoin="miter" fill="none" stroke="#1a8c8c" d="M34.01434 51.02217 35.88481 56.63307"/>
<path transform="matrix(.31622897,-.94864,-.94869688,-.31621,136.39694,71.80992)" d="M2.59026 0-1.55415 2.0722 0 0-1.55415-2.0722" fill="#1a8c8c"/>
<path transform="matrix(1.00006,0,0,-1,100.50998,128.443)" stroke-width=".79701" stroke-linecap="butt" stroke-miterlimit="10" stroke-linejoin="miter" fill="none" stroke="#1a8c8c" d="M34.01434 68.02998 35.59752 73.7288"/>
<path transform="matrix(.26765604,-.96346,-.9635178,-.26764,136.10964,54.714204)" d="M2.59026 0-1.55415 2.0722 0 0-1.55415-2.0722" fill="#1a8c8c"/>
<path transform="matrix(1.00006,0,0,-1,100.50998,128.443)" stroke-width=".79701" stroke-linecap="butt" stroke-miterlimit="10" stroke-linejoin="miter" fill="none" stroke="#1a8c8c" d="M34.01434 85.03783 35.38457 90.7913"/>
<path transform="matrix(.23164389,-.97275,-.97280839,-.23163,135.89667,37.651704)" d="M2.59026 0-1.55415 2.0722 0 0-1.55415-2.0722" fill="#1a8c8c"/>
<path transform="matrix(1.00006,0,0,-1,100.50998,128.443)" stroke-width=".79701" stroke-linecap="butt" stroke-miterlimit="10" stroke-linejoin="miter" fill="none" stroke="#1a8c8c" d="M51.02217-85.04042 54.80687-89.58307"/>
<path transform="matrix(.6400984,.76825,.76829609,-.64006,155.32012,218.02606)" d="M2.59026 0-1.55415 2.0722 0 0-1.55415-2.0722" fill="#1a8c8c"/>
<path transform="matrix(1.00006,0,0,-1,100.50998,128.443)" stroke-width=".79701" stroke-linecap="butt" stroke-miterlimit="10" stroke-linejoin="miter" fill="none" stroke="#1a8c8c" d="M51.02217-68.0326 56.09204-71.07494"/>
<path transform="matrix(.85749146,.51453,.5145609,-.85744,156.60538,199.51795)" d="M2.59026 0-1.55415 2.0722 0 0-1.55415-2.0722" fill="#1a8c8c"/>
<path transform="matrix(1.00006,0,0,-1,100.50998,128.443)" stroke-width=".79701" stroke-linecap="butt" stroke-miterlimit="10" stroke-linejoin="miter" fill="none" stroke="#1a8c8c" d="M51.02217-51.02477 56.93602-51.02519"/>
<path transform="matrix(1.00006,0,0,-1,157.44942,179.46819)" d="M2.59026 0-1.55415 2.0722 0 0-1.55415-2.0722" fill="#1a8c8c"/>
<path transform="matrix(1.00006,0,0,-1,100.50998,128.443)" stroke-width=".79701" stroke-linecap="butt" stroke-miterlimit="10" stroke-linejoin="miter" fill="none" stroke="#1a8c8c" d="M51.02217-34.01694 56.09424-30.97523"/>
<path transform="matrix(.85764148,-.51428,-.51431086,-.85759,156.60756,159.41823)" d="M2.59026 0-1.55415 2.0722 0 0-1.55415-2.0722" fill="#1a8c8c"/>
<path transform="matrix(1.00006,0,0,-1,100.50998,128.443)" stroke-width=".79701" stroke-linecap="butt" stroke-miterlimit="10" stroke-linejoin="miter" fill="none" stroke="#1a8c8c" d="M51.02217-17.00911 54.80658-12.468"/>
<path transform="matrix(.64020839,-.76817,-.7682161,-.64017,155.31984,140.911)" d="M2.59026 0-1.55415 2.0722 0 0-1.55415-2.0722" fill="#1a8c8c"/>
<path transform="matrix(1.00006,0,0,-1,100.50998,128.443)" stroke-width=".79701" stroke-linecap="butt" stroke-miterlimit="10" stroke-linejoin="miter" fill="none" stroke="#1a8c8c" d="M51.02217-.00128 53.89203 5.16692"/>
<path transform="matrix(.4854691,-.87424,-.8742924,-.48544,154.40522,123.27609)" d="M2.59026 0-1.55415 2.0722 0 0-1.55415-2.0722" fill="#1a8c8c"/>
<path transform="matrix(1.00006,0,0,-1,100.50998,128.443)" stroke-width=".79701" stroke-linecap="butt" stroke-miterlimit="10" stroke-linejoin="miter" fill="none" stroke="#1a8c8c" d="M51.02217 17.0065 53.29716 22.46538"/>
<path transform="matrix(.38465307,-.923,-.92305538,-.38463,153.81034,105.97763)" d="M2.59026 0-1.55415 2.0722 0 0-1.55415-2.0722" fill="#1a8c8c"/>
<path transform="matrix(1.00006,0,0,-1,100.50998,128.443)" stroke-width=".79701" stroke-linecap="butt" stroke-miterlimit="10" stroke-linejoin="miter" fill="none" stroke="#1a8c8c" d="M51.02217 34.01434 52.89262 39.62526"/>
<path transform="matrix(.31622897,-.94864,-.94869688,-.31621,153.40576,88.81773)" d="M2.59026 0-1.55415 2.0722 0 0-1.55415-2.0722" fill="#1a8c8c"/>
<path transform="matrix(1.00006,0,0,-1,100.50998,128.443)" stroke-width=".79701" stroke-linecap="butt" stroke-miterlimit="10" stroke-linejoin="miter" fill="none" stroke="#1a8c8c" d="M51.02217 51.02217 52.60535 56.721"/>
<path transform="matrix(.26765604,-.96346,-.9635178,-.26764,153.11849,71.722019)" d="M2.59026 0-1.55415 2.0722 0 0-1.55415-2.0722" fill="#1a8c8c"/>
<path transform="matrix(1.00006,0,0,-1,100.50998,128.443)" stroke-width=".79701" stroke-linecap="butt" stroke-miterlimit="10" stroke-linejoin="miter" fill="none" stroke="#1a8c8c" d="M51.02217 68.02998 52.3924 73.78346"/>
<path transform="matrix(.23164389,-.97275,-.97280839,-.23163,152.90552,54.659547)" d="M2.59026 0-1.55415 2.0722 0 0-1.55415-2.0722" fill="#1a8c8c"/>
<path transform="matrix(1.00006,0,0,-1,100.50998,128.443)" stroke-width=".79701" stroke-linecap="butt" stroke-miterlimit="10" stroke-linejoin="miter" fill="none" stroke="#1a8c8c" d="M51.02217 85.03783 52.2287 90.82764"/>
<path transform="matrix(.20399224,-.97893,-.9789887,-.20398,152.7418,37.61537)" d="M2.59026 0-1.55415 2.0722 0 0-1.55415-2.0722" fill="#1a8c8c"/>
<path transform="matrix(1.00006,0,0,-1,100.50998,128.443)" stroke-width=".79701" stroke-linecap="butt" stroke-miterlimit="10" stroke-linejoin="miter" fill="none" stroke="#1a8c8c" d="M68.02998-85.04042 73.09985-88.08278"/>
<path transform="matrix(.85749146,.51453,.5145609,-.85744,173.61423,216.52577)" d="M2.59026 0-1.55415 2.0722 0 0-1.55415-2.0722" fill="#1a8c8c"/>
<path transform="matrix(1.00006,0,0,-1,100.50998,128.443)" stroke-width=".79701" stroke-linecap="butt" stroke-miterlimit="10" stroke-linejoin="miter" fill="none" stroke="#1a8c8c" d="M68.02998-68.0326 73.94385-68.033"/>
<path transform="matrix(1.00006,0,0,-1,174.45825,196.47599)" d="M2.59026 0-1.55415 2.0722 0 0-1.55415-2.0722" fill="#1a8c8c"/>
<path transform="matrix(1.00006,0,0,-1,100.50998,128.443)" stroke-width=".79701" stroke-linecap="butt" stroke-miterlimit="10" stroke-linejoin="miter" fill="none" stroke="#1a8c8c" d="M68.02998-51.02477 73.10207-47.98306"/>
<path transform="matrix(.85764148,-.51428,-.51431086,-.85759,173.61643,176.42606)" d="M2.59026 0-1.55415 2.0722 0 0-1.55415-2.0722" fill="#1a8c8c"/>
<path transform="matrix(1.00006,0,0,-1,100.50998,128.443)" stroke-width=".79701" stroke-linecap="butt" stroke-miterlimit="10" stroke-linejoin="miter" fill="none" stroke="#1a8c8c" d="M68.02998-34.01694 71.81439-29.47585"/>
<path transform="matrix(.64020839,-.76817,-.7682161,-.64017,172.32868,157.91884)" d="M2.59026 0-1.55415 2.0722 0 0-1.55415-2.0722" fill="#1a8c8c"/>
<path transform="matrix(1.00006,0,0,-1,100.50998,128.443)" stroke-width=".79701" stroke-linecap="butt" stroke-miterlimit="10" stroke-linejoin="miter" fill="none" stroke="#1a8c8c" d="M68.02998-17.00911 70.89984-11.8409"/>
<path transform="matrix(.4854691,-.87424,-.8742924,-.48544,171.41407,140.2839)" d="M2.59026 0-1.55415 2.0722 0 0-1.55415-2.0722" fill="#1a8c8c"/>
<path transform="matrix(1.00006,0,0,-1,100.50998,128.443)" stroke-width=".79701" stroke-linecap="butt" stroke-miterlimit="10" stroke-linejoin="miter" fill="none" stroke="#1a8c8c" d="M68.02998-.00128 70.305 5.45758"/>
<path transform="matrix(.38465307,-.923,-.92305538,-.38463,170.8192,122.98542)" d="M2.59026 0-1.55415 2.0722 0 0-1.55415-2.0722" fill="#1a8c8c"/>
<path transform="matrix(1.00006,0,0,-1,100.50998,128.443)" stroke-width=".79701" stroke-linecap="butt" stroke-miterlimit="10" stroke-linejoin="miter" fill="none" stroke="#1a8c8c" d="M68.02998 17.0065 69.90045 22.61742"/>
<path transform="matrix(.31622897,-.94864,-.94869688,-.31621,170.41461,105.82558)" d="M2.59026 0-1.55415 2.0722 0 0-1.55415-2.0722" fill="#1a8c8c"/>
<path transform="matrix(1.00006,0,0,-1,100.50998,128.443)" stroke-width=".79701" stroke-linecap="butt" stroke-miterlimit="10" stroke-linejoin="miter" fill="none" stroke="#1a8c8c" d="M68.02998 34.01434 69.61316 39.71317"/>
<path transform="matrix(.26765604,-.96346,-.9635178,-.26764,170.12732,88.72984)" d="M2.59026 0-1.55415 2.0722 0 0-1.55415-2.0722" fill="#1a8c8c"/>
<path transform="matrix(1.00006,0,0,-1,100.50998,128.443)" stroke-width=".79701" stroke-linecap="butt" stroke-miterlimit="10" stroke-linejoin="miter" fill="none" stroke="#1a8c8c" d="M68.02998 51.02217 69.40022 56.77563"/>
<path transform="matrix(.23164389,-.97275,-.97280839,-.23163,169.91437,71.66737)" d="M2.59026 0-1.55415 2.0722 0 0-1.55415-2.0722" fill="#1a8c8c"/>
<path transform="matrix(1.00006,0,0,-1,100.50998,128.443)" stroke-width=".79701" stroke-linecap="butt" stroke-miterlimit="10" stroke-linejoin="miter" fill="none" stroke="#1a8c8c" d="M68.02998 68.02998 69.23653 73.8198"/>
<path transform="matrix(.20399224,-.97893,-.9789887,-.20398,169.75066,54.623216)" d="M2.59026 0-1.55415 2.0722 0 0-1.55415-2.0722" fill="#1a8c8c"/>
<path transform="matrix(1.00006,0,0,-1,100.50998,128.443)" stroke-width=".79701" stroke-linecap="butt" stroke-miterlimit="10" stroke-linejoin="miter" fill="none" stroke="#1a8c8c" d="M68.02998 85.03783 69.10686 90.85239"/>
<path transform="matrix(.18208093,-.98323,-.98328897,-.18207,169.62097,37.590623)" d="M2.59026 0-1.55415 2.0722 0 0-1.55415-2.0722" fill="#1a8c8c"/>
<path transform="matrix(1.00006,0,0,-1,100.50998,128.443)" stroke-width=".79701" stroke-linecap="butt" stroke-miterlimit="10" stroke-linejoin="miter" fill="none" stroke="#1a8c8c" d="M85.03783-85.04042 90.95168-85.04085"/>
<path transform="matrix(1.00006,0,0,-1,191.46712,213.48384)" d="M2.59026 0-1.55415 2.0722 0 0-1.55415-2.0722" fill="#1a8c8c"/>
<path transform="matrix(1.00006,0,0,-1,100.50998,128.443)" stroke-width=".79701" stroke-linecap="butt" stroke-miterlimit="10" stroke-linejoin="miter" fill="none" stroke="#1a8c8c" d="M85.03783-68.0326 90.10991-64.99088"/>
<path transform="matrix(.85764148,-.51428,-.51431086,-.85759,190.62528,193.43387)" d="M2.59026 0-1.55415 2.0722 0 0-1.55415-2.0722" fill="#1a8c8c"/>
<path transform="matrix(1.00006,0,0,-1,100.50998,128.443)" stroke-width=".79701" stroke-linecap="butt" stroke-miterlimit="10" stroke-linejoin="miter" fill="none" stroke="#1a8c8c" d="M85.03783-51.02477 88.82224-46.48366"/>
<path transform="matrix(.64020839,-.76817,-.7682161,-.64017,189.33756,174.92665)" d="M2.59026 0-1.55415 2.0722 0 0-1.55415-2.0722" fill="#1a8c8c"/>
<path transform="matrix(1.00006,0,0,-1,100.50998,128.443)" stroke-width=".79701" stroke-linecap="butt" stroke-miterlimit="10" stroke-linejoin="miter" fill="none" stroke="#1a8c8c" d="M85.03783-34.01694 87.90768-28.84872"/>
<path transform="matrix(.4854691,-.87424,-.8742924,-.48544,188.42292,157.29174)" d="M2.59026 0-1.55415 2.0722 0 0-1.55415-2.0722" fill="#1a8c8c"/>
<path transform="matrix(1.00006,0,0,-1,100.50998,128.443)" stroke-width=".79701" stroke-linecap="butt" stroke-miterlimit="10" stroke-linejoin="miter" fill="none" stroke="#1a8c8c" d="M85.03783-17.00911 87.31284-11.55023"/>
<path transform="matrix(.38465307,-.923,-.92305538,-.38463,187.82807,139.99324)" d="M2.59026 0-1.55415 2.0722 0 0-1.55415-2.0722" fill="#1a8c8c"/>
<path transform="matrix(1.00006,0,0,-1,100.50998,128.443)" stroke-width=".79701" stroke-linecap="butt" stroke-miterlimit="10" stroke-linejoin="miter" fill="none" stroke="#1a8c8c" d="M85.03783-.00128 86.9083 5.60962"/>
<path transform="matrix(.31622897,-.94864,-.94869688,-.31621,187.4235,122.833377)" d="M2.59026 0-1.55415 2.0722 0 0-1.55415-2.0722" fill="#1a8c8c"/>
<path transform="matrix(1.00006,0,0,-1,100.50998,128.443)" stroke-width=".79701" stroke-linecap="butt" stroke-miterlimit="10" stroke-linejoin="miter" fill="none" stroke="#1a8c8c" d="M85.03783 17.0065 86.621 22.70534"/>
<path transform="matrix(.26765604,-.96346,-.9635178,-.26764,187.13617,105.73767)" d="M2.59026 0-1.55415 2.0722 0 0-1.55415-2.0722" fill="#1a8c8c"/>
<path transform="matrix(1.00006,0,0,-1,100.50998,128.443)" stroke-width=".79701" stroke-linecap="butt" stroke-miterlimit="10" stroke-linejoin="miter" fill="none" stroke="#1a8c8c" d="M85.03783 34.01434 86.40805 39.76782"/>
<path transform="matrix(.23164389,-.97275,-.97280839,-.23163,186.92322,88.67519)" d="M2.59026 0-1.55415 2.0722 0 0-1.55415-2.0722" fill="#1a8c8c"/>
<path transform="matrix(1.00006,0,0,-1,100.50998,128.443)" stroke-width=".79701" stroke-linecap="butt" stroke-miterlimit="10" stroke-linejoin="miter" fill="none" stroke="#1a8c8c" d="M85.03783 51.02217 86.24435 56.81198"/>
<path transform="matrix(.20399224,-.97893,-.9789887,-.20398,186.75949,71.63103)" d="M2.59026 0-1.55415 2.0722 0 0-1.55415-2.0722" fill="#1a8c8c"/>
<path transform="matrix(1.00006,0,0,-1,100.50998,128.443)" stroke-width=".79701" stroke-linecap="butt" stroke-miterlimit="10" stroke-linejoin="miter" fill="none" stroke="#1a8c8c" d="M85.03783 68.02998 86.1147 73.84454"/>
<path transform="matrix(.18208093,-.98323,-.98328897,-.18207,186.62984,54.598466)" d="M2.59026 0-1.55415 2.0722 0 0-1.55415-2.0722" fill="#1a8c8c"/>
<path transform="matrix(1.00006,0,0,-1,100.50998,128.443)" stroke-width=".79701" stroke-linecap="butt" stroke-miterlimit="10" stroke-linejoin="miter" fill="none" stroke="#1a8c8c" d="M85.03783 85.03783 86.01004 90.87114"/>
<path transform="matrix(.16437985,-.98634,-.9863991,-.16437,186.52518,37.571855)" d="M2.59026 0-1.55415 2.0722 0 0-1.55415-2.0722" fill="#1a8c8c"/>
<path transform="matrix(1.00006,0,0,-1,100.50998,128.443)" stroke-width=".79701" stroke-linecap="butt" stroke-miterlimit="10" stroke-linejoin="miter" fill="none" stroke="#ec008c" d="M-85.04042 59.51117-83.8955 58.48561-82.75056 57.46007-81.60562 56.44489-80.46071 55.43059-79.31577 54.42235-78.17085 53.41843-77.02592 52.42143-75.88098 51.42963-74.73607 50.44905-73.59113 49.46849-72.44621 48.49916-71.30128 47.5359-70.15634 46.57784-69.01143 45.63188-67.86649 44.6911-66.72157 43.76158-65.57663 42.83725-64.4317 41.92503-63.28679 41.01886-62.14185 40.12308-60.99693 39.2394-59.85199 38.3661-58.70706 37.50491-57.56215 36.65498-56.4172 35.8163-55.2723 34.98885-54.12735 34.17871-52.98242 33.3798-51.83751 32.59735-50.69257 31.827-49.54765 31.07307-48.40271 30.33647-47.2578 29.6111-46.11285 28.90823-44.96793 28.22266-43.82301 27.56044-42.67807 26.9138-41.53316 26.28532-40.38821 25.67932-39.24329 25.09584-38.09837 24.54002-36.95343 24.00238-35.80852 23.49242-34.66357 23.011-33.51865 22.55208-32.37373 22.12172-31.22879 21.72507-30.08388 21.35698-28.93893 21.01744-27.794 20.71768-26.64908 20.45169-25.50415 20.2194-24.35924 20.02174-23.2143 19.86905-22.06937 19.75096-20.92444 19.68306-19.77951 19.65582-18.6346 19.67267-17.48965 19.73627-16.34473 19.85608-15.1998 20.02087-14.05487 20.24277-12.90996 20.52089-11.76501 20.86128-10.6201 21.25879-9.47516 21.71945-8.33023 22.2467-7.1853 22.84837-6.04037 23.51839-4.89546 24.2619-3.75052 25.07896-2.60559 25.98686-1.46066 26.9683-.31573 28.04662 .82915 29.2002 1.97409 30.46017 3.11902 31.8205 4.26395 33.28465 5.40887 34.85432 6.55379 36.53734 7.69873 38.33626 8.84366 40.25803 9.98859 42.30437 11.13351 44.48306 12.27844 46.7993 13.42337 49.25655 14.5683 51.86519 15.71323 54.62694 16.85815 57.54959 18.00308 60.63835 19.14801 63.90358 20.29294 67.35048 21.43787 70.98682 22.5828 74.81953 23.72772 78.85728 24.87265 83.10956 26.01756 87.58244 27.1625 92.28802 28.30743 97.2341"/>
<path transform="matrix(1.00006,0,0,-1,100.50998,128.443)" stroke-width=".79701" stroke-linecap="butt" stroke-miterlimit="10" stroke-linejoin="miter" fill="none" stroke="#000000" d="M-99.21382 0H98.50645"/>
<path transform="matrix(1.00006,0,0,-1,199.02234,128.443)" stroke-width=".6376" stroke-linecap="round" stroke-linejoin="round" fill="none" stroke="#000000" d="M-1.55415 2.0722C-1.42464 1.29512 0 .1295 .38852 0 0-.1295-1.42464-1.29512-1.55415-2.0722"/>
<use data-text="x" xlink:href="#font_1_1" transform="matrix(10.037002,0,0,-10.0364,203.54717,130.881)"/>
<path transform="matrix(1.00006,0,0,-1,100.50998,128.443)" stroke-width=".79701" stroke-linecap="butt" stroke-miterlimit="10" stroke-linejoin="miter" fill="none" stroke="#000000" d="M0-99.21382V98.50645"/>
<path transform="matrix(0,-1,-1.00006,-0,100.50998,29.936547)" stroke-width=".6376" stroke-linecap="round" stroke-linejoin="round" fill="none" stroke="#000000" d="M-1.55415 2.0722C-1.42464 1.29512 0 .1295 .38852 0 0-.1295-1.42464-1.29512-1.55415-2.0722"/>
<use data-text="y" xlink:href="#font_1_2" transform="matrix(10.037002,0,0,-10.0364,97.97383,23.165993)"/>
<use data-text="S" xlink:href="#font_2_2" transform="matrix(9.166149,0,0,-9.1656,52.745119,9.35199)"/>
<use data-text="l" xlink:href="#font_2_6" transform="matrix(9.166149,0,0,-9.1656,57.72235,9.35199)"/>
<use data-text="o" xlink:href="#font_2_7" transform="matrix(9.166149,0,0,-9.1656,60.554689,9.35199)"/>
<use data-text="p" xlink:href="#font_2_8" transform="matrix(9.166149,0,0,-9.1656,65.907718,9.35199)"/>
<use data-text="e" xlink:href="#font_2_4" transform="matrix(9.166149,0,0,-9.1656,71.54489,9.35199)"/>
<use data-text="&#xfb01;" xlink:href="#font_2_1" transform="matrix(9.166149,0,0,-9.1656,78.217838,9.35199)"/>
<use data-text="e" xlink:href="#font_2_4" transform="matrix(9.166149,0,0,-9.1656,84.075,9.35199)"/>
<use data-text="l" xlink:href="#font_2_6" transform="matrix(9.166149,0,0,-9.1656,88.83223,9.35199)"/>
<use data-text="d" xlink:href="#font_2_3" transform="matrix(9.166149,0,0,-9.1656,91.664569,9.35199)"/>
<use data-text="f" xlink:href="#font_2_5" transform="matrix(9.166149,0,0,-9.1656,99.12581,9.35199)"/>
<use data-text="o" xlink:href="#font_2_7" transform="matrix(9.166149,0,0,-9.1656,102.26979,9.35199)"/>
<use data-text="r" xlink:href="#font_2_9" transform="matrix(9.166149,0,0,-9.1656,107.63199,9.35199)"/>
<use data-text="y" xlink:href="#font_1_2" transform="matrix(9.166149,0,0,-9.1656,122.85632,9.35199)"/>
<use data-text="&#x2032;" xlink:href="#font_3_1" transform="matrix(6.9663178,0,0,-6.9659,127.987628,5.7359926)"/>
<use data-text="=" xlink:href="#font_3_3" transform="matrix(9.166149,0,0,-9.1656,132.24289,9.35199)"/>
<use data-text="x" xlink:href="#font_1_1" transform="matrix(9.166149,0,0,-9.1656,140.74239,9.35199)"/>
<use data-text="+" xlink:href="#font_3_2" transform="matrix(9.166149,0,0,-9.1656,147.33078,9.35199)"/>
<use data-text="y" xlink:href="#font_1_2" transform="matrix(9.166149,0,0,-9.1656,155.64228,9.35199)"/>
</svg>
