<svg xmlns="http://www.w3.org/2000/svg" xmlns:xlink="http://www.w3.org/1999/xlink" version="1.1" width="122" height="88" viewBox="0 0 122 88">
<defs>
<path id="font_1_2" d="M.42799378 .45222474 .43899537 .49023438H.31199647L.34599305 .6092224 .33399964 .6162262 .23699951 .53923037 .22399903 .49023438H.14299011L.13198853 .45222474H.21499634L.125 .08627319C.10998535 .029266358 .12199402-.01171875 .17199707-.01171875 .2519989-.01171875 .31599427 .054275514 .35598756 .1292572L.33399964 .1462555C.31098939 .10726929 .2599945 .040267946 .22898865 .040267946 .20799256 .040267946 .20799256 .0632782 .21398926 .088272098L.30299378 .45222474H.42799378Z"/>
<path id="font_2_3" d="M.07398987 .2861328V.21612549H.31900025V.2861328H.07398987Z"/>
<path id="font_2_6" d="M.4850006 .13195801 .45700074 .13696289C.43598939 .08299255 .41600038 .07598877 .37599183 .07598877H.11999512C.13598633 .1279602 .19499207 .19892884 .28799439 .2658844 .38398744 .33584596 .45799256 .38082887 .45799256 .49276734 .45799256 .63168337 .3659973 .6796875 .26098634 .6796875 .12399292 .6796875 .052993776 .5967102 .052993776 .54473879 .052993776 .51075747 .09098816 .49476625 .10798645 .49476625 .12599182 .49476625 .1329956 .50476077 .13699341 .5217438 .15299988 .5897064 .19198609 .64468386 .2539978 .64468386 .33099366 .64468386 .35299684 .5797119 .35299684 .50675967 .35299684 .3998108 .29899598 .33984376 .21199036 .26289369 .08898926 .15594483 .04598999 .08798218 .026992798 .009994507L.036987306 0H.45098878L.4850006 .13195801Z"/>
<path id="font_2_5" d="M.43699647 0V.0289917L.35299684 .035995485C.33198548 .037994386 .31999208 .04598999 .31999208 .08496094V.67367556L.31498719 .6796875 .10899353 .6446991V.6197052L.20199585 .6087036C.21899414 .6067047 .22599793 .5987091 .22599793 .56973269V.08496094C.22599793 .065979007 .22299195 .053985597 .21699524 .04698181 .21199036 .039993287 .20399475 .036987306 .19299317 .035995485L.10899353 .0289917V0H.43699647Z"/>
<path id="font_2_7" d="M.12998963 .3657837C.12998963 .3487854 .1349945 .33779908 .147995 .33779908 .1599884 .33779908 .18699646 .34777833 .23498535 .34777833 .31999208 .34777833 .36799623 .27090455 .36799623 .18403626 .36799623 .065216068 .30899049 .023269654 .23799134 .023269654 .17199707 .023269654 .1289978 .07319641 .10998535 .12911988 .10398865 .14808655 .09399414 .15707398 .07998657 .15707398 .06199646 .15707398 .026992798 .13809204 .026992798 .10215759 .026992798 .05921936 .09599304-.01171875 .23699951-.01171875 .38198854-.01171875 .47299195 .06121826 .47299195 .18902588 .47299195 .32281495 .35798646 .3627777 .30299378 .3677826V.3717804C.35699464 .38078309 .44400025 .4207611 .44400025 .5197296 .44400025 .6306915 .35699464 .6796875 .25 .6796875 .117996219 .6796875 .052993776 .60369876 .052993776 .5607147 .052993776 .5297241 .08799744 .51272585 .101989749 .51272585 .114990238 .51272585 .12298584 .5197296 .1269989 .5327301 .14898682 .60069277 .18699646 .64468386 .24299622 .64468386 .32199098 .64468386 .34098817 .57470706 .34098817 .51872256 .34098817 .4587555 .31999208 .38378907 .23498535 .38378907 .18699646 .38378907 .1599884 .39378358 .147995 .39378358 .1349945 .39378358 .12998963 .38378907 .12998963 .3657837Z"/>
<path id="font_2_8" d="M.2999878 .17871094V.0769043C.2999878 .04296875 .2889862 .036987306 .2649994 .034988405L.20098877 .0289917V0H.46499635V.0289917L.41999818 .033981325C.39698792 .036987306 .3899994 .04296875 .3899994 .0769043V.17871094H.49299623V.22570801H.3899994V.66796877H.31698609C.22299195 .5298767 .11099243 .35577394 .018997193 .19970703L.027999878 .17871094H.2999878M.09098816 .22570801C.15098572 .33476258 .22099304 .4498291 .2979889 .5709076H.2999878V.22570801H.09098816Z"/>
<path id="font_1_1" d="M.42799378 .15419007C.3939972 .10821533 .33499146 .03727722 .2679901 .03727722 .19499207 .03727722 .17999268 .097229007 .17999268 .16816712 .17999268 .29808045 .25498963 .46694947 .34700013 .46694947 .3789978 .46694947 .40098573 .44696046 .40699769 .38700868 .40899659 .36901856 .41799928 .35702516 .43598939 .35702516 .45999146 .35702516 .5 .38002015 .5 .41299439 .5 .46394349 .44599916 .5019531 .37098695 .5019531 .19299317 .5019531 .08099365 .31207276 .08099365 .14819336 .08099365 .026275635 .1539917-.01171875 .22399903-.01171875 .2979889-.01171875 .3829956 .02027893 .45199586 .13519287L.42799378 .15419007Z"/>
<path id="font_1_3" d="M.5329895 .48995973C.5039978 .388031 .48799134 .33506776 .46199037 .2741089 .41799928 .173172 .33099366 .040267946 .24798584 .040267946 .21598816 .040267946 .20799256 .070251468 .22299195 .12820435L.31900025 .4970703 .31399537 .50205996 .13198853 .47375489 .12599182 .4497528 .18798828 .44476319C.21199036 .44276429 .21099854 .42778016 .20298767 .39682008L.13398743 .13316345C.11299133 .053253175 .12098694-.01171875 .20098877-.01171875 .29699708-.01171875 .4019928 .09420776 .46199037 .21005249H.46398927L.43099977 .096206668C.4119873 .029266358 .42399598-.01171875 .47698976-.01171875 .548996-.01171875 .60899356 .057250978 .6439972 .13116455L.6199951 .14613343C.59999087 .11218262 .55599978 .040267946 .5279999 .040267946 .5069885 .040267946 .5069885 .06324768 .5149994 .09420776L.621994 .5019531 .5329895 .48995973Z"/>
<path id="font_2_1" d="M.1749878 .2822113C.1749878 .56832888 .2619934 .65437319 .32499696 .66737368V.6923828C.1499939 .685379 .10499573 .46829225 .10499573 .2822113 .10499573 .09614563 .1499939-.12094116 .32499696-.12792969V-.10293579C.2669983-.090927127 .1749878-.0059051516 .1749878 .2822113Z"/>
<path id="font_2_2" d="M.1749878 .2822113C.1749878-.0059051516 .08299255-.090927127 .024993897-.10293579V-.12792969C.19999695-.12094116 .24499512 .09614563 .24499512 .2822113 .24499512 .46829225 .19999695 .685379 .024993897 .6923828V.66737368C.08799744 .65437319 .1749878 .56832888 .1749878 .2822113Z"/>
<path id="font_3_1" d="M.6349945 .14315796V.20117188H.084991458V.14315796H.6349945M.6349945 .36288453V.42089845H.084991458V.36288453H.6349945Z"/>
<path id="font_2_4" d="M.2649994 .64468386C.3600006 .64468386 .3869934 .49682618 .3869934 .33398438 .3869934 .17112732 .3600006 .023269654 .2649994 .023269654 .16999817 .023269654 .14299011 .17112732 .14299011 .33398438 .14299011 .49682618 .16999817 .64468386 .2649994 .64468386M.2649994 .6796875C.099990848 .6796875 .040985109 .53378298 .040985109 .33398438 .040985109 .13417053 .099990848-.01171875 .2649994-.01171875 .42999269-.01171875 .4889984 .13417053 .4889984 .33398438 .4889984 .53378298 .42999269 .6796875 .2649994 .6796875Z"/>
<path id="font_2_12" d="M.18998719 .7480469C.13999939 .7020416 .07199097 .6350403 .07199097 .56404116 .07199097 .5100403 .10398865 .47703553 .13699341 .4780426 .16699219 .4780426 .18499756 .4990387 .18499756 .5260315 .18499756 .56204226 .1519928 .58303835 .1519928 .6200409 .1519928 .6580353 .17599488 .6960449 .20698548 .7320404L.18998719 .7480469M.36999513 .7480469C.31999208 .7020416 .2519989 .6350403 .2519989 .56404116 .2519989 .5100403 .28399659 .47703553 .31698609 .4780426 .34700013 .4780426 .36499024 .4990387 .36499024 .5260315 .36499024 .56204226 .33198548 .58303835 .33198548 .6200409 .33198548 .6580353 .35598756 .6960449 .3869934 .7320404L.36999513 .7480469Z"/>
<path id="font_2_11" d="M.28799439 .5019531C.12799073 .5019531 .04899597 .40698243 .04899597 .24510193 .04899597 .083236698 .12799073-.01171875 .28799439-.01171875 .44999696-.01171875 .5279999 .083236698 .5279999 .24510193 .5279999 .40698243 .44999696 .5019531 .28799439 .5019531M.15299988 .24510193C.15299988 .38301087 .19699097 .46694947 .28799439 .46694947 .3809967 .46694947 .42399598 .38301087 .42399598 .24510193 .42399598 .10720825 .3809967 .023269654 .28799439 .023269654 .19699097 .023269654 .15299988 .10720825 .15299988 .24510193Z"/>
<path id="font_2_9" d="M.20098877 .45022584H.32299806V.49023438H.20098877L.19699097 .60220339C.19400025 .6971741 .22898865 .70718386 .24499512 .70718386 .2659912 .70718386 .28799439 .6971741 .31298829 .6391907 .31799317 .62919619 .32499696 .6221924 .33999635 .6221924 .3600006 .6221924 .3889923 .6391907 .3889923 .66918948 .3889923 .70217898 .34700013 .7421875 .2669983 .7421875 .21199036 .7421875 .16499329 .71717837 .13999939 .67918398 .116989139 .64419558 .10699463 .5912018 .10699463 .5252228V.49023438H.02999878V.45022584H.10699463V.087020877C.10699463 .035995485 .10398865 .033996583 .03199768 .0289917V0H.29599V.0289917C.20498657 .032989503 .20098877 .034988405 .20098877 .08602905V.45022584Z"/>
<path id="font_2_13" d="M.08898926 .47218324C.13899231 .5181732 .20698548 .58517459 .20698548 .6561737 .20698548 .71017459 .1749878 .7431793 .14199829 .7421875 .11199951 .7421875 .09399414 .72117617 .09399414 .69418337 .09399414 .6581726 .1269989 .6371765 .1269989 .60017397 .1269989 .56217959 .102996829 .5241852 .07199097 .48817445L.08898926 .47218324M.2689972 .47218324C.31900025 .5181732 .3869934 .58517459 .3869934 .6561737 .3869934 .71017459 .35499574 .7431793 .32199098 .7421875 .2919922 .7421875 .27398683 .72117617 .27398683 .69418337 .27398683 .6581726 .30699159 .6371765 .30699159 .60017397 .30699159 .56217959 .2829895 .5241852 .2519989 .48817445L.2689972 .47218324Z"/>
<path id="font_2_10" d="M.5289917 .34295655C.5289917 .4439392 .47399903 .5019531 .38198854 .5019531 .30799867 .5019531 .2619934 .46594239 .19999695 .4259491L.18598938 .5019531 .036987306 .47694398V.45195008L.07499695 .4469452C.100997928 .4429474 .10699463 .4379425 .10699463 .40194703V.08699036C.10699463 .035995485 .10398865 .033996583 .03199768 .0289917V0H.27598573V.0289917C.20498657 .033996583 .20098877 .035995485 .20098877 .08699036V.32095338C.20098877 .34596253 .20298767 .35995484 .21099854 .37594605 .23199463 .4149475 .2769928 .44795228 .32998658 .44795228 .397995 .44795228 .43499757 .40994264 .43499757 .32295228V.08699036C.43499757 .035995485 .43199159 .033996583 .3600006 .0289917V0H.60398867V.0289917C.5329895 .033996583 .5289917 .035995485 .5289917 .08699036V.34295655Z"/>
</defs>
<path transform="matrix(1.00003,0,0,-1.00003,43.86136,66.43151)" d="M-42.52063-20.40985V30.6149H-8.50412V-20.40985ZM-8.50412 30.6149" fill="#d9d9ff"/>
<path transform="matrix(1.00003,0,0,-1.00003,43.86136,66.43151)" d="M-8.50412-20.40985V30.6149H42.52063V-20.40985ZM42.52063 30.6149" fill="#d9f0d9"/>
<path transform="matrix(1.00003,0,0,-1.00003,43.86136,66.43151)" d="M42.52063-20.40985V30.6149H76.53716V-20.40985ZM76.53716 30.6149" fill="#d9d9ff"/>
<path transform="matrix(1.00003,0,0,-1.00003,43.86136,66.43151)" stroke-width=".3985" stroke-linecap="butt" stroke-miterlimit="10" stroke-linejoin="miter" fill="none" stroke="#000000" d="M-42.52063 0H76.07887"/>
<path transform="matrix(1.00003,0,0,-1.00003,119.94252,66.43151)" stroke-width=".31879" stroke-linecap="round" stroke-linejoin="round" fill="none" stroke="#000000" d="M-1.19551 1.59401C-1.09587 .99626 0 .09961 .29886 0 0-.09961-1.09587-.99626-1.19551-1.59401"/>
<path transform="matrix(1.00003,0,0,-1.00003,43.86136,66.43151)" stroke-width=".3985" stroke-linecap="butt" stroke-miterlimit="10" stroke-linejoin="miter" fill="none" stroke="#000000" d="M0-20.40985V30.15662"/>
<path transform="matrix(0,-1.00003,-1.00003,-0,43.86136,36.273988)" stroke-width=".31879" stroke-linecap="round" stroke-linejoin="round" fill="none" stroke="#000000" d="M-1.19551 1.59401C-1.09587 .99626 0 .09961 .29886 0 0-.09961-1.09587-.99626-1.19551-1.59401"/>
<use data-text="t" xlink:href="#font_1_2" transform="matrix(7.3327205,0,0,-7.3327205,117.13756,74.34975)"/>
<path transform="matrix(1.00003,0,0,-1.00003,43.86136,66.43151)" stroke-width=".3985" stroke-linecap="butt" stroke-miterlimit="10" stroke-linejoin="miter" fill="none" stroke="#000000" d="M-42.52063 34.0165H76.07887"/>
<path transform="matrix(1.00003,0,0,-1.00003,119.94252,32.41399)" stroke-width=".31879" stroke-linecap="round" stroke-linejoin="round" fill="none" stroke="#000000" d="M-1.19551 1.59401C-1.09587 .99626 0 .09961 .29886 0 0-.09961-1.09587-.99626-1.19551-1.59401"/>
<path transform="matrix(1.00003,0,0,-1.00003,43.86136,66.43151)" stroke-width=".3985" stroke-linecap="butt" stroke-miterlimit="10" stroke-linejoin="miter" fill="none" stroke="#000000" d="M0 13.60663V64.17314"/>
<path transform="matrix(0,-1.00003,-1.00003,-0,43.86136,2.2564393)" stroke-width=".31879" stroke-linecap="round" stroke-linejoin="round" fill="none" stroke="#000000" d="M-1.19551 1.59401C-1.09587 .99626 0 .09961 .29886 0 0-.09961-1.09587-.99626-1.19551-1.59401"/>
<use data-text="t" xlink:href="#font_1_2" transform="matrix(7.3327205,0,0,-7.3327205,117.13756,74.34975)"/>
<path transform="matrix(1.00003,0,0,-1.00003,43.86136,66.43151)" stroke-width=".3985" stroke-linecap="butt" stroke-miterlimit="10" stroke-linejoin="miter" fill="none" stroke="#929292" d="M-34.0165 1.70091V-1.70091"/>
<use data-text="-" xlink:href="#font_2_3" transform="matrix(7.3327205,0,0,-7.3327205,6.4602358,76.1008)"/>
<use data-text="2" xlink:href="#font_2_6" transform="matrix(7.3327205,0,0,-7.3327205,9.334671,76.1008)"/>
<path transform="matrix(1.00003,0,0,-1.00003,43.86136,66.43151)" stroke-width=".3985" stroke-linecap="butt" stroke-miterlimit="10" stroke-linejoin="miter" fill="none" stroke="#929292" d="M-17.00824 1.70091V-1.70091"/>
<use data-text="-" xlink:href="#font_2_3" transform="matrix(7.3327205,0,0,-7.3327205,23.46875,76.1008)"/>
<use data-text="1" xlink:href="#font_2_5" transform="matrix(7.3327205,0,0,-7.3327205,26.343186,76.1008)"/>
<path transform="matrix(1.00003,0,0,-1.00003,43.86136,66.43151)" stroke-width=".3985" stroke-linecap="butt" stroke-miterlimit="10" stroke-linejoin="miter" fill="none" stroke="#929292" d="M17.00824 1.70091V-1.70091"/>
<use data-text="1" xlink:href="#font_2_5" transform="matrix(7.3327205,0,0,-7.3327205,58.924814,76.1008)"/>
<path transform="matrix(1.00003,0,0,-1.00003,43.86136,66.43151)" stroke-width=".3985" stroke-linecap="butt" stroke-miterlimit="10" stroke-linejoin="miter" fill="none" stroke="#929292" d="M34.0165 1.70091V-1.70091"/>
<use data-text="2" xlink:href="#font_2_6" transform="matrix(7.3327205,0,0,-7.3327205,75.934329,76.1008)"/>
<path transform="matrix(1.00003,0,0,-1.00003,43.86136,66.43151)" stroke-width=".3985" stroke-linecap="butt" stroke-miterlimit="10" stroke-linejoin="miter" fill="none" stroke="#929292" d="M51.02477 1.70091V-1.70091"/>
<use data-text="3" xlink:href="#font_2_7" transform="matrix(7.3327205,0,0,-7.3327205,92.94284,76.1008)"/>
<path transform="matrix(1.00003,0,0,-1.00003,43.86136,66.43151)" stroke-width=".3985" stroke-linecap="butt" stroke-miterlimit="10" stroke-linejoin="miter" fill="none" stroke="#929292" d="M68.03302 1.70091V-1.70091"/>
<use data-text="4" xlink:href="#font_2_8" transform="matrix(7.3327205,0,0,-7.3327205,109.95134,76.1008)"/>
<path transform="matrix(1.00003,0,0,-1.00003,43.86136,66.43151)" stroke-width=".3985" stroke-linecap="butt" stroke-miterlimit="10" stroke-linejoin="miter" fill="none" stroke="#929292" d="M1.70091 17.00824H-1.70091"/>
<use data-text="1" xlink:href="#font_2_5" transform="matrix(7.3327205,0,0,-7.3327205,38.274194,51.878076)"/>
<path transform="matrix(1.00003,0,0,-1.00003,43.86136,66.43151)" stroke-width="1.19553" stroke-linecap="butt" stroke-miterlimit="10" stroke-linejoin="miter" fill="none" stroke="#0000ff" d="M-42.52063 0H-42.18585-41.85106-41.51627-41.18149-40.8467-40.5119-40.17712-39.84233-39.50755-39.17276-38.83797-38.50319-38.16838-37.8336-37.49881-37.16403-36.82924-36.49445-36.15967-35.82487-35.49008-35.1553-34.82051-34.48573-34.15094-33.81615-33.48137-33.14658-32.81178-32.47699-32.1422-31.80742-31.47263-31.13783-30.80305-30.46826-30.13347-29.79869-29.4639-29.1291-28.79431-28.45953-28.12474-27.78995-27.45517-27.12038-26.7856-26.4508-26.11601-25.78123-25.44644-25.11166-24.77687-24.44208-24.1073-23.7725-23.43771-23.10294-22.76814-22.43336-22.09857-21.76378-21.429-21.0942-20.75941-20.42462-20.08984-19.75505-19.42026-19.08548-18.75069-18.4159-18.08112-17.74632-17.41154-17.07675-16.74196-16.40718-16.07239-15.7376-15.40282-15.06802-14.73325-14.39845-14.06366-13.72888-13.39409-13.0593-12.72452-12.38972-12.05493-11.72014-11.38536-11.05057-10.71577-10.381-10.0462-9.71143-9.37663"/>
<path transform="matrix(1.00003,0,0,-1.00003,43.86136,66.43151)" stroke-width="1.19553" stroke-linecap="butt" stroke-miterlimit="10" stroke-linejoin="miter" fill="none" stroke="#009900" d="M-8.50412 17.00824H-7.64534-6.78656-5.92781-5.06903-4.21025-3.3515-2.49272-1.63394-.77519 .08354 .94232 1.80109 2.65985 3.51863 4.3774 5.23616 6.09494 6.95369 7.81247 8.67125 9.53001 10.38878 11.24756 12.10632 12.96509 13.82387 14.68263 15.5414 16.40018 17.25894 18.1177 18.97649 19.83525 20.69402 21.55278 22.41156 23.27032 24.1291 24.98787 25.84663 26.7054 27.56418 28.42294 29.28172 30.14049 30.99925 31.85802 32.7168 33.57556 34.43433 35.2931 36.15187 37.01064 37.86942 38.7282 39.58694 40.44572 41.30449 42.16327 43.02203 43.88081 44.73956 45.59834 46.4571 47.31587 48.17465 49.03343 49.89218 50.75096 51.60973 52.46849 53.32727 54.18604 55.0448 55.90358 56.76234 57.62111 58.47989 59.33865 60.19742 61.05618 61.91498 62.77373 63.6325 64.49127 65.35004 66.2088 67.06758 67.92636 68.78513 69.64389 70.50267 71.36142 72.2202 73.07898 73.93773 74.79651 75.65529 76.51404"/>
<path transform="matrix(1.00003,0,0,-1.00003,43.86136,66.43151)" stroke-width="1.19553" stroke-linecap="butt" stroke-miterlimit="10" stroke-linejoin="miter" fill="none" stroke="#0000ff" d="M-42.52063 0H-41.67043-40.82022-39.97-39.11981-38.2696-37.4194-36.56918-35.71898-34.86877-34.01857-33.16837-32.31816-31.46797-30.61775-29.76755-28.91734-28.06714-27.21693-26.36673-25.51651-24.6663-23.81612-22.96591-22.11569-21.26549-20.4153-19.5651-18.71487-17.86467-17.01445-16.16426-15.31406-14.46385-13.61365-12.76344-11.91324-11.06303-10.21283-9.36261-8.51242-7.6622-6.812-5.96179-5.1116-4.2614-3.41118-2.56097-1.71078-.86057-.01036 .83981 1.69002 2.5402 3.39041 4.24063 5.09084 5.94102 6.79124 7.64145 8.49165 9.34186 10.19206 11.04227 11.89247 12.74268 13.59288 14.44308 15.2933 16.14351 16.99371 17.8439 18.69412 19.54433 20.39453 21.24472 22.09492 22.94514 23.79535 24.64557 25.49576 26.34596 27.19617 28.04639 28.89658 29.74678 30.59698 31.4472 32.2974 33.1476 33.99782 34.84802 35.69823 36.54842 37.39864 38.24884 39.09904 39.94923 40.79945 41.64966"/>
<path transform="matrix(1.00003,0,0,-1.00003,43.86136,66.43151)" stroke-width="1.19553" stroke-linecap="butt" stroke-miterlimit="10" stroke-linejoin="miter" fill="none" stroke="#009900" d="M42.52063 17.00824H42.86398 43.20734 43.55067 43.89403 44.23738 44.58073 44.92409 45.26744 45.6108 45.95415 46.2975 46.64087 46.98422 47.32756 47.67091 48.01427 48.35762 48.70097 49.04433 49.38768 49.73103 50.07439 50.41774 50.7611 51.10442 51.44777 51.79112 52.13448 52.47783 52.82118 53.16454 53.5079 53.85126 54.19461 54.53796 54.8813 55.22466 55.56801 55.91136 56.25471 56.59807 56.94142 57.28477 57.62813 57.97148 58.31483 58.65817 59.00153 59.34488 59.68823 60.03159 60.37494 60.71829 61.06165 61.405 61.74835 62.0917 62.43504 62.7784 63.12175 63.4651 63.80846 64.15181 64.49516 64.83852 65.18188 65.52524 65.86859 66.21193 66.55528 66.89864 67.24199 67.58534 67.92868 68.27203 68.61539 68.95874 69.3021 69.64545 69.98878 70.33214 70.67549 71.01884 71.3622 71.70555 72.04892 72.39227 72.73563 73.07898 73.42233 73.76567 74.10902 74.45238 74.79573 75.13908 75.48244 75.82579 76.16914 76.5125"/>
<use data-text="c" xlink:href="#font_1_1" transform="matrix(9.165875,0,0,-9.165875,32.97603,76.064807)"/>
<path transform="matrix(1.00003,0,0,-1.00003,43.86136,66.43151)" stroke-width=".79701" stroke-linecap="butt" stroke-miterlimit="10" stroke-linejoin="miter" fill="none" stroke="#0000ff" d="M-6.7108 0C-6.7108 .99042-7.51369 1.7933-8.50412 1.7933-9.49454 1.7933-10.29744 .99042-10.29744 0-10.29744-.99042-9.49454-1.7933-8.50412-1.7933-7.51369-1.7933-6.7108-.99042-6.7108 0ZM-8.50412 0"/>
<path transform="matrix(1.00003,0,0,-1.00003,43.86136,66.43151)" d="M-6.7108 17.00824C-6.7108 17.99866-7.51369 18.80156-8.50412 18.80156-9.49454 18.80156-10.29744 17.99866-10.29744 17.00824-10.29744 16.01782-9.49454 15.21492-8.50412 15.21492-7.51369 15.21492-6.7108 16.01782-6.7108 17.00824ZM-8.50412 17.00824" fill="#009900"/>
<path transform="matrix(1.00003,0,0,-1.00003,43.86136,66.43151)" stroke-width=".79701" stroke-linecap="butt" stroke-miterlimit="10" stroke-linejoin="miter" fill="none" stroke="#0000ff" d="M-6.7108 0C-6.7108 .99042-7.51369 1.7933-8.50412 1.7933-9.49454 1.7933-10.29744 .99042-10.29744 0-10.29744-.99042-9.49454-1.7933-8.50412-1.7933-7.51369-1.7933-6.7108-.99042-6.7108 0ZM-8.50412 0"/>
<path transform="matrix(1.00003,0,0,-1.00003,43.86136,66.43151)" d="M-6.7108 17.00824C-6.7108 17.99866-7.51369 18.80156-8.50412 18.80156-9.49454 18.80156-10.29744 17.99866-10.29744 17.00824-10.29744 16.01782-9.49454 15.21492-8.50412 15.21492-7.51369 15.21492-6.7108 16.01782-6.7108 17.00824ZM-8.50412 17.00824" fill="#009900"/>
<use data-text="u" xlink:href="#font_1_3" transform="matrix(7.3327205,0,0,-7.3327205,5.559204,60.08132)" fill="#0000ff"/>
<use data-text="c" xlink:href="#font_1_1" transform="matrix(6.2327878,0,0,-6.2327878,10.333351,61.27736)" fill="#0000ff"/>
<use data-text="(" xlink:href="#font_2_1" transform="matrix(7.3327205,0,0,-7.3327205,14.069466,60.08132)" fill="#0000ff"/>
<use data-text="t" xlink:href="#font_1_2" transform="matrix(7.3327205,0,0,-7.3327205,16.795548,60.08132)" fill="#0000ff"/>
<use data-text=")" xlink:href="#font_2_2" transform="matrix(7.3327205,0,0,-7.3327205,20.079644,60.08132)" fill="#0000ff"/>
<use data-text="=" xlink:href="#font_3_1" transform="matrix(7.3327205,0,0,-7.3327205,24.009766,60.08132)" fill="#0000ff"/>
<use data-text="0" xlink:href="#font_2_4" transform="matrix(7.3327205,0,0,-7.3327205,30.649964,60.08132)" fill="#0000ff"/>
<use data-text="u" xlink:href="#font_1_3" transform="matrix(7.3327205,0,0,-7.3327205,63.388948,41.852777)" fill="#009900"/>
<use data-text="c" xlink:href="#font_1_1" transform="matrix(6.2327878,0,0,-6.2327878,68.16309,43.048814)" fill="#009900"/>
<use data-text="(" xlink:href="#font_2_1" transform="matrix(7.3327205,0,0,-7.3327205,71.89921,41.852777)" fill="#009900"/>
<use data-text="t" xlink:href="#font_1_2" transform="matrix(7.3327205,0,0,-7.3327205,74.62529,41.852777)" fill="#009900"/>
<use data-text=")" xlink:href="#font_2_2" transform="matrix(7.3327205,0,0,-7.3327205,77.909389,41.852777)" fill="#009900"/>
<use data-text="=" xlink:href="#font_3_1" transform="matrix(7.3327205,0,0,-7.3327205,81.83951,41.852777)" fill="#009900"/>
<use data-text="1" xlink:href="#font_2_5" transform="matrix(7.3327205,0,0,-7.3327205,88.479709,41.852777)" fill="#009900"/>
<use data-text="&#x201c;" xlink:href="#font_2_12" transform="matrix(7.3327205,0,0,-7.3327205,2.092102,85.10407)" fill="#0000ff"/>
<use data-text="o" xlink:href="#font_2_11" transform="matrix(7.3327205,0,0,-7.3327205,4.8638689,85.10407)" fill="#0000ff"/>
<use data-text="f" xlink:href="#font_2_9" transform="matrix(7.3327205,0,0,-7.3327205,9.094849,85.10407)" fill="#0000ff"/>
<use data-text="f" xlink:href="#font_2_9" transform="matrix(7.3327205,0,0,-7.3327205,11.433983,85.10407)" fill="#0000ff"/>
<use data-text="&#x201d;" xlink:href="#font_2_13" transform="matrix(7.3327205,0,0,-7.3327205,14.235077,85.10407)" fill="#0000ff"/>
<use data-text="&#x201c;" xlink:href="#font_2_12" transform="matrix(7.3327205,0,0,-7.3327205,70.729167,85.10407)" fill="#009900"/>
<use data-text="o" xlink:href="#font_2_11" transform="matrix(7.3327205,0,0,-7.3327205,73.50093,85.10407)" fill="#009900"/>
<use data-text="n" xlink:href="#font_2_10" transform="matrix(7.3327205,0,0,-7.3327205,77.73191,85.10407)" fill="#009900"/>
<use data-text="&#x201d;" xlink:href="#font_2_13" transform="matrix(7.3327205,0,0,-7.3327205,81.67692,85.10407)" fill="#009900"/>
</svg>
