<svg xmlns="http://www.w3.org/2000/svg" xmlns:xlink="http://www.w3.org/1999/xlink" version="1.1" width="137" height="101" viewBox="0 0 137 101">
<defs>
<path id="font_1_2" d="M.42799378 .45222474 .43899537 .49023438H.31199647L.34599305 .6092224 .33399964 .6162262 .23699951 .53923037 .22399903 .49023438H.14299011L.13198853 .45222474H.21499634L.125 .08627319C.10998535 .029266358 .12199402-.01171875 .17199707-.01171875 .2519989-.01171875 .31599427 .054275514 .35598756 .1292572L.33399964 .1462555C.31098939 .10726929 .2599945 .040267946 .22898865 .040267946 .20799256 .040267946 .20799256 .0632782 .21398926 .088272098L.30299378 .45222474H.42799378Z"/>
<path id="font_2_3" d="M.07398987 .2861328V.21612549H.31900025V.2861328H.07398987Z"/>
<path id="font_2_5" d="M.43699647 0V.0289917L.35299684 .035995485C.33198548 .037994386 .31999208 .04598999 .31999208 .08496094V.67367556L.31498719 .6796875 .10899353 .6446991V.6197052L.20199585 .6087036C.21899414 .6067047 .22599793 .5987091 .22599793 .56973269V.08496094C.22599793 .065979007 .22299195 .053985597 .21699524 .04698181 .21199036 .039993287 .20399475 .036987306 .19299317 .035995485L.10899353 .0289917V0H.43699647Z"/>
<path id="font_2_4" d="M.2649994 .64468386C.3600006 .64468386 .3869934 .49682618 .3869934 .33398438 .3869934 .17112732 .3600006 .023269654 .2649994 .023269654 .16999817 .023269654 .14299011 .17112732 .14299011 .33398438 .14299011 .49682618 .16999817 .64468386 .2649994 .64468386M.2649994 .6796875C.099990848 .6796875 .040985109 .53378298 .040985109 .33398438 .040985109 .13417053 .099990848-.01171875 .2649994-.01171875 .42999269-.01171875 .4889984 .13417053 .4889984 .33398438 .4889984 .53378298 .42999269 .6796875 .2649994 .6796875Z"/>
<path id="font_2_6" d="M.4850006 .13195801 .45700074 .13696289C.43598939 .08299255 .41600038 .07598877 .37599183 .07598877H.11999512C.13598633 .1279602 .19499207 .19892884 .28799439 .2658844 .38398744 .33584596 .45799256 .38082887 .45799256 .49276734 .45799256 .63168337 .3659973 .6796875 .26098634 .6796875 .12399292 .6796875 .052993776 .5967102 .052993776 .54473879 .052993776 .51075747 .09098816 .49476625 .10798645 .49476625 .12599182 .49476625 .1329956 .50476077 .13699341 .5217438 .15299988 .5897064 .19198609 .64468386 .2539978 .64468386 .33099366 .64468386 .35299684 .5797119 .35299684 .50675967 .35299684 .3998108 .29899598 .33984376 .21199036 .26289369 .08898926 .15594483 .04598999 .08798218 .026992798 .009994507L.036987306 0H.45098878L.4850006 .13195801Z"/>
<path id="font_2_7" d="M.12998963 .3657837C.12998963 .3487854 .1349945 .33779908 .147995 .33779908 .1599884 .33779908 .18699646 .34777833 .23498535 .34777833 .31999208 .34777833 .36799623 .27090455 .36799623 .18403626 .36799623 .065216068 .30899049 .023269654 .23799134 .023269654 .17199707 .023269654 .1289978 .07319641 .10998535 .12911988 .10398865 .14808655 .09399414 .15707398 .07998657 .15707398 .06199646 .15707398 .026992798 .13809204 .026992798 .10215759 .026992798 .05921936 .09599304-.01171875 .23699951-.01171875 .38198854-.01171875 .47299195 .06121826 .47299195 .18902588 .47299195 .32281495 .35798646 .3627777 .30299378 .3677826V.3717804C.35699464 .38078309 .44400025 .4207611 .44400025 .5197296 .44400025 .6306915 .35699464 .6796875 .25 .6796875 .117996219 .6796875 .052993776 .60369876 .052993776 .5607147 .052993776 .5297241 .08799744 .51272585 .101989749 .51272585 .114990238 .51272585 .12298584 .5197296 .1269989 .5327301 .14898682 .60069277 .18699646 .64468386 .24299622 .64468386 .32199098 .64468386 .34098817 .57470706 .34098817 .51872256 .34098817 .4587555 .31999208 .38378907 .23498535 .38378907 .18699646 .38378907 .1599884 .39378358 .147995 .39378358 .1349945 .39378358 .12998963 .38378907 .12998963 .3657837Z"/>
<path id="font_2_8" d="M.2999878 .17871094V.0769043C.2999878 .04296875 .2889862 .036987306 .2649994 .034988405L.20098877 .0289917V0H.46499635V.0289917L.41999818 .033981325C.39698792 .036987306 .3899994 .04296875 .3899994 .0769043V.17871094H.49299623V.22570801H.3899994V.66796877H.31698609C.22299195 .5298767 .11099243 .35577394 .018997193 .19970703L.027999878 .17871094H.2999878M.09098816 .22570801C.15098572 .33476258 .22099304 .4498291 .2979889 .5709076H.2999878V.22570801H.09098816Z"/>
<path id="font_3_1" d="M.6349945 .20620728 .17298889 .3572235 .6349945 .5092468V.5722656L.084991458 .39222718V.32221986L.6349945 .14318848V.20620728M.6349945-.0078125V.050186159H.084991458V-.0078125H.6349945Z"/>
<path id="font_3_4" d="M.6349945 .07472229 .17298889 .28173829 .6349945 .48875428V.5517578L.084991458 .31674195V.24673462L.6349945 .01171875V.07472229Z"/>
<path id="font_3_2" d="M.6349945-.0078125V.050186159H.084991458V-.0078125H.6349945M.084991458 .14318848 .6349945 .32221986V.39222718L.084991458 .5722656V.5092468L.5469971 .3572235 .084991458 .20620728V.14318848Z"/>
<path id="font_1_1" d="M.43199159 .49023438H.3019867L.32998658 .6031952C.34899903 .67918398 .36799623 .70718386 .3959961 .70718386 .4229889 .70718386 .44099427 .68518069 .46299745 .6371918 .46798707 .62719729 .47499085 .6201935 .48999024 .6201935 .5099945 .6201935 .5389862 .6391907 .5389862 .6641846 .5389862 .70718386 .4850006 .7421875 .4249878 .7421875 .3600006 .7421875 .31799317 .71517947 .2849884 .67318728 .2539978 .63420107 .23399353 .5802002 .21998596 .5272217L.20999146 .49023438H.12298584L.11199951 .45222474H.20098877L.084991458-.137146C.07299805-.19918823 .06298828-.2052002 .052993776-.2052002 .041992189-.2052002 .026992798-.19718933 0-.15615845-.007003784-.14616394-.014007568-.13415528-.027008057-.13415528-.04901123-.13415528-.072006229-.15916443-.072006229-.18418885-.071014408-.2171936-.028015137-.2421875 .018997193-.2421875 .11898804-.2421875 .16099549-.16116333 .20298767 .030960083L.29599 .45222474H.42199708L.43199159 .49023438Z"/>
<path id="font_2_1" d="M.1749878 .2822113C.1749878 .56832888 .2619934 .65437319 .32499696 .66737368V.6923828C.1499939 .685379 .10499573 .46829225 .10499573 .2822113 .10499573 .09614563 .1499939-.12094116 .32499696-.12792969V-.10293579C.2669983-.090927127 .1749878-.0059051516 .1749878 .2822113Z"/>
<path id="font_2_2" d="M.1749878 .2822113C.1749878-.0059051516 .08299255-.090927127 .024993897-.10293579V-.12792969C.19999695-.12094116 .24499512 .09614563 .24499512 .2822113 .24499512 .46829225 .19999695 .685379 .024993897 .6923828V.66737368C.08799744 .65437319 .1749878 .56832888 .1749878 .2822113Z"/>
<path id="font_3_3" d="M.6349945 .14315796V.20117188H.084991458V.14315796H.6349945M.6349945 .36288453V.42089845H.084991458V.36288453H.6349945Z"/>
<path id="font_2_11" d="M.36698915 .35102845V.46794129C.33399964 .49194337 .2829895 .5019531 .23799134 .5019531 .12998963 .5019531 .056991579 .45095826 .055999757 .35603334 .056991579 .27308656 .12399292 .2361145 .20698548 .21113587 .2519989 .19714356 .31498719 .17416382 .31498719 .10621643 .31498719 .055252077 .2749939 .023269654 .22200012 .023269654 .14099121 .023269654 .09599304 .082229617 .07598877 .16716004H.04699707L.056991579 .03627014C.09298706 .004272461 .1539917-.01171875 .21299744-.01171875 .33198548-.01171875 .3999939 .051254274 .3999939 .13618469 .3999939 .2241211 .34599305 .26409913 .24299622 .29606629 .20199585 .30906678 .13598633 .3300476 .13598633 .3860016 .13699341 .43795777 .17599488 .46694947 .22599793 .46694947 .29699708 .46694947 .33099366 .4119873 .33799745 .35102845H.36698915Z"/>
<path id="font_2_9" d="M.036987306 .47694398V.45195008L.07499695 .4469452C.100997928 .4429474 .10699463 .43795777 .10699463 .40194703V.08699036C.10699463 .035995485 .10398865 .033996583 .03199768 .0289917V0H.27598573V.0289917C.20498657 .033996583 .20098877 .035995485 .20098877 .08699036V.49609376L.19400025 .5020752 .036987306 .47694398M.15299988 .71484377C.116989139 .71484377 .09199524 .6888428 .09199524 .65283206 .09199524 .61782839 .116989139 .5928345 .15299988 .5928345 .18998719 .5928345 .21299744 .61782839 .21398926 .65283206 .21398926 .6888428 .18998719 .71484377 .15299988 .71484377Z"/>
<path id="font_2_10" d="M.5289917 .34295655C.5289917 .4439392 .47399903 .5019531 .38198854 .5019531 .30799867 .5019531 .2619934 .46594239 .19999695 .4259491L.18598938 .5019531 .036987306 .47694398V.45195008L.07499695 .4469452C.100997928 .4429474 .10699463 .4379425 .10699463 .40194703V.08699036C.10699463 .035995485 .10398865 .033996583 .03199768 .0289917V0H.27598573V.0289917C.20498657 .033996583 .20098877 .035995485 .20098877 .08699036V.32095338C.20098877 .34596253 .20298767 .35995484 .21099854 .37594605 .23199463 .4149475 .2769928 .44795228 .32998658 .44795228 .397995 .44795228 .43499757 .40994264 .43499757 .32295228V.08699036C.43499757 .035995485 .43199159 .033996583 .3600006 .0289917V0H.60398867V.0289917C.5329895 .033996583 .5289917 .035995485 .5289917 .08699036V.34295655Z"/>
</defs>
<path transform="matrix(1.00009,0,0,-1,29.155655,69.831)" d="M0-29.48083V68.0326H45.35506V-29.48083ZM45.35506 68.0326" fill="#d9d9ff"/>
<path transform="matrix(1.00009,0,0,-1,29.155655,69.831)" d="M45.35506-29.48083V68.0326H104.31677V-29.48083ZM104.31677 68.0326" fill="#d9ffd9"/>
<path transform="matrix(1.00009,0,0,-1,29.155655,69.831)" stroke-width=".3985" stroke-linecap="butt" stroke-miterlimit="10" stroke-linejoin="miter" fill="none" stroke="#000000" d="M-27.21297 0H103.85849"/>
<path transform="matrix(1.00009,0,0,-1,133.0235,69.831)" stroke-width=".31879" stroke-linecap="round" stroke-linejoin="round" fill="none" stroke="#000000" d="M-1.19551 1.59401C-1.09587 .99626 0 .09961 .29886 0 0-.09961-1.09587-.99626-1.19551-1.59401"/>
<use data-text="t" xlink:href="#font_1_2" transform="matrix(10.037303,0,0,-10.0364,131.34386,79.415)"/>
<path transform="matrix(1.00009,0,0,-1,29.155655,69.831)" stroke-width=".3985" stroke-linecap="butt" stroke-miterlimit="10" stroke-linejoin="miter" fill="none" stroke="#000000" d="M0-29.48083V67.57431"/>
<path transform="matrix(0,-1,-1.00009,-0,29.155655,2.256691)" stroke-width=".31879" stroke-linecap="round" stroke-linejoin="round" fill="none" stroke="#000000" d="M-1.19551 1.59401C-1.09587 .99626 0 .09961 .29886 0 0-.09961-1.09587-.99626-1.19551-1.59401"/>
<path transform="matrix(1.00009,0,0,-1,29.155655,69.831)" stroke-width=".3985" stroke-linecap="butt" stroke-miterlimit="10" stroke-linejoin="miter" fill="none" stroke="#b5b5b5" d="M-22.67752 2.26787V-2.26787"/>
<use data-text="-" xlink:href="#font_2_3" transform="matrix(7.33316,0,0,-7.3325,3.092308,81.541)"/>
<use data-text="1" xlink:href="#font_2_5" transform="matrix(7.33316,0,0,-7.3325,5.9669115,81.541)"/>
<path transform="matrix(1.00009,0,0,-1,29.155655,69.831)" stroke-width=".3985" stroke-linecap="butt" stroke-miterlimit="10" stroke-linejoin="miter" fill="none" stroke="#b5b5b5" d="M0 2.26787V-2.26787"/>
<use data-text="0" xlink:href="#font_2_4" transform="matrix(7.33316,0,0,-7.3325,27.21048,81.541)"/>
<path transform="matrix(1.00009,0,0,-1,29.155655,69.831)" stroke-width=".3985" stroke-linecap="butt" stroke-miterlimit="10" stroke-linejoin="miter" fill="none" stroke="#b5b5b5" d="M22.67752 2.26787V-2.26787"/>
<use data-text="1" xlink:href="#font_2_5" transform="matrix(7.33316,0,0,-7.3325,49.89052,81.541)"/>
<path transform="matrix(1.00009,0,0,-1,29.155655,69.831)" stroke-width=".3985" stroke-linecap="butt" stroke-miterlimit="10" stroke-linejoin="miter" fill="none" stroke="#b5b5b5" d="M45.35506 2.26787V-2.26787"/>
<use data-text="2" xlink:href="#font_2_6" transform="matrix(7.33316,0,0,-7.3325,72.569568,81.541)"/>
<path transform="matrix(1.00009,0,0,-1,29.155655,69.831)" stroke-width=".3985" stroke-linecap="butt" stroke-miterlimit="10" stroke-linejoin="miter" fill="none" stroke="#b5b5b5" d="M68.0326 2.26787V-2.26787"/>
<use data-text="3" xlink:href="#font_2_7" transform="matrix(7.33316,0,0,-7.3325,95.2496,81.541)"/>
<path transform="matrix(1.00009,0,0,-1,29.155655,69.831)" stroke-width=".3985" stroke-linecap="butt" stroke-miterlimit="10" stroke-linejoin="miter" fill="none" stroke="#b5b5b5" d="M90.71013 2.26787V-2.26787"/>
<use data-text="4" xlink:href="#font_2_8" transform="matrix(7.33316,0,0,-7.3325,117.92864,81.541)"/>
<path transform="matrix(1.00009,0,0,-1,29.155655,69.831)" stroke-width=".3985" stroke-linecap="butt" stroke-miterlimit="10" stroke-linejoin="miter" fill="none" stroke="#b5b5b5" d="M2.26787-22.67752H-2.26787"/>
<use data-text="-" xlink:href="#font_2_3" transform="matrix(7.33316,0,0,-7.3325,15.587433,94.963)"/>
<use data-text="1" xlink:href="#font_2_5" transform="matrix(7.33316,0,0,-7.3325,18.462037,94.963)"/>
<path transform="matrix(1.00009,0,0,-1,29.155655,69.831)" stroke-width=".3985" stroke-linecap="butt" stroke-miterlimit="10" stroke-linejoin="miter" fill="none" stroke="#b5b5b5" d="M2.26787 0H-2.26787"/>
<use data-text="0" xlink:href="#font_2_4" transform="matrix(7.33316,0,0,-7.3325,18.464692,72.266)"/>
<path transform="matrix(1.00009,0,0,-1,29.155655,69.831)" stroke-width=".3985" stroke-linecap="butt" stroke-miterlimit="10" stroke-linejoin="miter" fill="none" stroke="#b5b5b5" d="M2.26787 22.67752H-2.26787"/>
<use data-text="1" xlink:href="#font_2_5" transform="matrix(7.33316,0,0,-7.3325,18.464692,49.608)"/>
<path transform="matrix(1.00009,0,0,-1,29.155655,69.831)" stroke-width=".3985" stroke-linecap="butt" stroke-miterlimit="10" stroke-linejoin="miter" fill="none" stroke="#b5b5b5" d="M2.26787 45.35506H-2.26787"/>
<use data-text="2" xlink:href="#font_2_6" transform="matrix(7.33316,0,0,-7.3325,18.464692,26.931)"/>
<path transform="matrix(1.00009,0,0,-1,29.155655,69.831)" stroke-width="1.19553" stroke-linecap="butt" stroke-miterlimit="10" stroke-linejoin="miter" fill="none" stroke="#0000ff" d="M0 0 .22212 .22212 .44429 .44429 .66643 .66643 .8886 .8886 1.11073 1.11073 1.33289 1.33289 1.55505 1.55505 1.77719 1.77719 1.99934 1.99934 2.2215 2.2215 2.44366 2.44366 2.6658 2.6658 2.88795 2.88795 3.11012 3.11012 3.33226 3.33226 3.55441 3.55441 3.77658 3.77658 3.99872 3.99872 4.22087 4.22087 4.44302 4.44302 4.66518 4.66518 4.88734 4.88734 5.10948 5.10948 5.33163 5.33163 5.55379 5.55379 5.77594 5.77594 5.99808 5.99808 6.22025 6.22025 6.44241 6.44241 6.66454 6.66454 6.8867 6.8867 7.10886 7.10886 7.33101 7.33101 7.55316 7.55316 7.77531 7.77531 7.99747 7.99747 8.2196 8.2196 8.44177 8.44177 8.66393 8.66393 8.88608 8.88608 9.10823 9.10823 9.33037 9.33037 9.55254 9.55254 9.77469 9.77469 9.99683 9.99683 10.219 10.219 10.44115 10.44115 10.66328 10.66328 10.88545 10.88545 11.1076 11.1076 11.32976 11.32976 11.5519 11.5519 11.77406 11.77406 11.9962 11.9962 12.21835 12.21835 12.44052 12.44052 12.66266 12.66266 12.88483 12.88483 13.10696 13.10696 13.32912 13.32912 13.55128 13.55128 13.77342 13.77342 13.99557 13.99557 14.21773 14.21773 14.43988 14.43988 14.66203 14.66203 14.88419 14.88419 15.10634 15.10634 15.32849 15.32849 15.55064 15.55064 15.7728 15.7728 15.99495 15.99495 16.2171 16.2171 16.43924 16.43924 16.6614 16.6614 16.88358 16.88358 17.1057 17.1057 17.32787 17.32787 17.55002 17.55002 17.77217 17.77217 17.99431 17.99431 18.21648 18.21648 18.43863 18.43863 18.66077 18.66077 18.88293 18.88293 19.10507 19.10507 19.32724 19.32724 19.5494 19.5494 19.77153 19.77153 19.9937 19.9937 20.21584 20.21584 20.43799 20.43799 20.66016 20.66016 20.88231 20.88231 21.10445 21.10445 21.3266 21.3266 21.54877 21.54877 21.77092 21.77092 21.99306 21.99306 22.21523 22.21523 22.43736 22.43736 22.65952 22.65952 22.88168 22.88168 23.10382 23.10382 23.32599 23.32599 23.54813 23.54813 23.77028 23.77028 23.99243 23.99243 24.21458 24.21458 24.43674 24.43674 24.65889 24.65889 24.88106 24.88106 25.10318 25.10318 25.32535 25.32535 25.54752 25.54752 25.76965 25.76965 25.9918 25.9918 26.21396 26.21396 26.43611 26.43611 26.65826 26.65826 26.88042 26.88042 27.10257 27.10257 27.32472 27.32472 27.54688 27.54688 27.76903 27.76903 27.99118 27.99118 28.21333 28.21333 28.43547 28.43547 28.65764 28.65764 28.87978 28.87978 29.10193 29.10193 29.3241 29.3241 29.54623 29.54623 29.7684 29.7684 29.99054 29.99054 30.21269 30.21269 30.43486 30.43486 30.657 30.657 30.87915 30.87915 31.1013 31.1013 31.32347 31.32347 31.54561 31.54561 31.76776 31.76776 31.98993 31.98993 32.21207 32.21207 32.43422 32.43422 32.65639 32.65639 32.87852 32.87852 33.10068 33.10068 33.32283 33.32283 33.54498 33.54498 33.76715 33.76715 33.98929 33.98929 34.21144 34.21144 34.4336 34.4336 34.65575 34.65575 34.87788 34.87788 35.10005 35.10005 35.32222 35.32222 35.54434 35.54434 35.76651 35.76651 35.98866 35.98866 36.21082 36.21082 36.43297 36.43297 36.65512 36.65512 36.87727 36.87727 37.09941 37.09941 37.32158 37.32158 37.54373 37.54373 37.76588 37.76588 37.98804 37.98804 38.21017 38.21017 38.43234 38.43234 38.6545 38.6545 38.87663 38.87663 39.0988 39.0988 39.32095 39.32095 39.54309 39.54309 39.76526 39.76526 39.98741 39.98741 40.20956 40.20956 40.4317 40.4317 40.65387 40.65387 40.876 40.876 41.09816 41.09816 41.32033 41.32033 41.54247 41.54247 41.76463 41.76463 41.98676 41.98676 42.20892 42.20892 42.43109 42.43109 42.65323 42.65323 42.87538 42.87538 43.09753 43.09753 43.31969 43.31969 43.54184 43.54184 43.76399 43.76399 43.98615 43.98615 44.2083 44.2083"/>
<path transform="matrix(1.00009,0,0,-1,29.155655,69.831)" stroke-width="1.19553" stroke-linecap="butt" stroke-miterlimit="10" stroke-linejoin="miter" fill="none" stroke="#009900" d="M45.35506 20.61932 45.65125 20.49475 45.94745 20.36638 46.24365 20.23419 46.53986 20.09854 46.83606 19.95978 47.13226 19.8179 47.42847 19.67223 47.72467 19.52274 48.02087 19.37015 48.31708 19.21547 48.6133 19.05594 48.90948 18.89366 49.20569 18.7286 49.50189 18.56007 49.7981 18.38846 50.0943 18.21336 50.3905 18.03514 50.6867 17.85452 50.98291 17.67009 51.27911 17.48253 51.57532 17.29256 51.87154 17.10016 52.16772 16.90364 52.46391 16.7043 52.76013 16.50293 53.05632 16.29912 53.35252 16.09116 53.64873 15.88075 53.94493 15.66829 54.24113 15.45341 54.53735 15.23471 54.83354 15.01395 55.12976 14.7911 55.42595 14.56549 55.72215 14.33711 56.01836 14.10597 56.31456 13.8731 56.61076 13.63777 56.90697 13.39972 57.20317 13.15956 57.49937 12.91734 57.7956 12.67305 58.09178 12.42632 58.388 12.17719 58.68419 11.92632 58.9804 11.67404 59.2766 11.41869 59.5728 11.16193 59.869 10.90309 60.1652 10.64253 60.46141 10.37988 60.75761 10.11552 61.05382 9.84978 61.35 9.58229 61.64622 9.31273 61.94241 9.0418 62.23863 8.76982 62.53482 8.49574 62.83102 8.2203 63.12723 7.94348 63.42343 7.66562 63.71965 7.3867 64.01584 7.1054 64.31206 6.82336 64.60825 6.54033 64.90446 6.25623 65.20065 5.9711 65.49687 5.68494 65.79306 5.39774 66.08926 5.10948 66.38547 4.82056 66.68167 4.53056 66.97789 4.2399 67.27408 3.94888 67.5703 3.65685 67.86649 3.3641 68.1627 3.07101 68.4589 2.77722 68.75511 2.48276 69.0513 2.18861 69.3475 1.89346 69.6437 1.5983 69.9399 1.30246 70.23611 1.00659 70.5323 .71071 70.82852 .41487 71.12471 .11867 71.42093-.17714 71.71712-.47336 72.01334-.76921 72.30952-1.06506 72.60573-1.36092 72.90195-1.65678 73.19814-1.9516 73.49435-2.24641 73.79054-2.5409 74.08676-2.83536 74.38295-3.12915 74.67917-3.42189 74.97536-3.71428 75.27158-4.00633 75.56776-4.2977 75.86398-4.58801 76.16019-4.87764 76.45638-5.16623 76.7526-5.45448 77.04878-5.74168 77.345-6.0275 77.64119-6.31262 77.9374-6.59637 78.2336-6.87944 78.5298-7.1611 78.82599-7.44174 79.12221-7.721 79.41841-7.99852 79.7146-8.27464 80.01082-8.54974 80.307-8.82378 80.60323-9.09543 80.89941-9.36636 81.19563-9.63524 81.49182-9.90237 81.78804-10.16777 82.08424-10.4318 82.38045-10.69374 82.67665-10.95432 82.97284-11.21278 83.26906-11.46921 83.56525-11.72388 83.86147-11.97647 84.15765-12.22667 84.45387-12.47511 84.75006-12.72148 85.04628-12.96579 85.34248-13.20732 85.63869-13.44676 85.93488-13.6845 86.23108-13.91945 86.52728-14.152 86.82347-14.3821 87.11969-14.61012 87.41588-14.83574 87.7121-15.05789 88.00829-15.27797 88.3045-15.49596 88.60071-15.71086 88.89691-15.92262 89.19312-16.13232 89.48932-16.3396 89.78552-16.54306 90.08171-16.74411 90.37793-16.94238 90.67412-17.13823 90.97034-17.33028 91.26654-17.51956 91.56274-17.70642 91.85895-17.89017 92.15515-18.07115 92.45135-18.24796 92.74756-18.42203 93.04376-18.59364 93.33995-18.76147 93.63617-18.92618 93.93236-19.08778 94.22858-19.24661 94.52477-19.40094 94.82097-19.5525 95.11717-19.70096 95.41338-19.84628 95.70958-19.98781 96.00578-20.12555 96.30199-20.26015 96.59818-20.39232 96.8944-20.52 97.19058-20.64354 97.4868-20.76465 97.783-20.88231 98.07921-20.99579 98.37541-21.1055 98.67162-21.21207 98.96782-21.31554 99.26402-21.41484 99.56023-21.51 99.85641-21.60205 100.15263-21.69063 100.44884-21.77472 100.74504-21.85535 101.04124-21.93285 101.33745-22.00691 101.63365-22.07576 101.92986-22.14117 102.22606-22.20345 102.52226-22.26262 102.81847-22.3166 103.11465-22.36713 103.41086-22.41385 103.70706-22.45778 104.00327-22.49619 104.29947-22.53148"/>
<path transform="matrix(1.00009,0,0,-1,29.155655,69.831)" stroke-width=".79701" stroke-linecap="butt" stroke-miterlimit="10" stroke-linejoin="miter" fill="none" stroke="#0000ff" d="M46.9491 45.35506C46.9491 46.23543 46.23543 46.9491 45.35506 46.9491 44.47467 46.9491 43.761 46.23543 43.761 45.35506 43.761 44.47467 44.47467 43.761 45.35506 43.761 46.23543 43.761 46.9491 44.47467 46.9491 45.35506ZM45.35506 45.35506"/>
<path transform="matrix(1.00009,0,0,-1,29.155655,69.831)" d="M46.9491 20.61932C46.9491 21.4997 46.23543 22.21336 45.35506 22.21336 44.47467 22.21336 43.761 21.4997 43.761 20.61932 43.761 19.73894 44.47467 19.02527 45.35506 19.02527 46.23543 19.02527 46.9491 19.73894 46.9491 20.61932ZM45.35506 20.61932" fill="#009900"/>
<use data-text="0" xlink:href="#font_2_4" transform="matrix(7.33316,0,0,-7.3325,38.21947,95.849)" fill="#0000ff"/>
<use data-text="&#x2264;" xlink:href="#font_3_1" transform="matrix(7.33316,0,0,-7.3325,43.47394,95.849)" fill="#0000ff"/>
<use data-text="t" xlink:href="#font_1_2" transform="matrix(7.33316,0,0,-7.3325,50.27355,95.849)" fill="#0000ff"/>
<use data-text="&#x003c;" xlink:href="#font_3_4" transform="matrix(7.33316,0,0,-7.3325,54.92097,95.849)" fill="#0000ff"/>
<use data-text="2" xlink:href="#font_2_6" transform="matrix(7.33316,0,0,-7.3325,61.561574,95.849)" fill="#0000ff"/>
<use data-text="t" xlink:href="#font_1_2" transform="matrix(7.33316,0,0,-7.3325,96.489719,95.849)" fill="#009900"/>
<use data-text="&#x2265;" xlink:href="#font_3_2" transform="matrix(7.33316,0,0,-7.3325,101.13714,95.849)" fill="#009900"/>
<use data-text="2" xlink:href="#font_2_6" transform="matrix(7.33316,0,0,-7.3325,107.77773,95.849)" fill="#009900"/>
<use data-text="f" xlink:href="#font_1_1" transform="matrix(9.166425,0,0,-9.1656,37.25839,12.047001)" fill="#0000ff"/>
<use data-text="(" xlink:href="#font_2_1" transform="matrix(9.166425,0,0,-9.1656,42.37985,12.047001)" fill="#0000ff"/>
<use data-text="t" xlink:href="#font_1_2" transform="matrix(9.166425,0,0,-9.1656,45.78716,12.047001)" fill="#0000ff"/>
<use data-text=")" xlink:href="#font_2_2" transform="matrix(9.166425,0,0,-9.1656,49.89152,12.047001)" fill="#0000ff"/>
<use data-text="=" xlink:href="#font_3_3" transform="matrix(9.166425,0,0,-9.1656,54.804967,12.047001)" fill="#0000ff"/>
<use data-text="t" xlink:href="#font_1_2" transform="matrix(9.166425,0,0,-9.1656,63.30473,12.047001)" fill="#0000ff"/>
<use data-text="f" xlink:href="#font_1_1" transform="matrix(9.166425,0,0,-9.1656,82.76648,12.047001)" fill="#009900"/>
<use data-text="(" xlink:href="#font_2_1" transform="matrix(9.166425,0,0,-9.1656,87.88794,12.047001)" fill="#009900"/>
<use data-text="t" xlink:href="#font_1_2" transform="matrix(9.166425,0,0,-9.1656,91.29526,12.047001)" fill="#009900"/>
<use data-text=")" xlink:href="#font_2_2" transform="matrix(9.166425,0,0,-9.1656,95.39961,12.047001)" fill="#009900"/>
<use data-text="=" xlink:href="#font_3_3" transform="matrix(9.166425,0,0,-9.1656,100.313068,12.047001)" fill="#009900"/>
<use data-text="s" xlink:href="#font_2_11" transform="matrix(9.166425,0,0,-9.1656,108.613819,12.047001)" fill="#009900"/>
<use data-text="i" xlink:href="#font_2_9" transform="matrix(9.166425,0,0,-9.1656,112.61037,12.047001)" fill="#009900"/>
<use data-text="n" xlink:href="#font_2_10" transform="matrix(9.166425,0,0,-9.1656,115.2778,12.047001)" fill="#009900"/>
<use data-text="t" xlink:href="#font_1_2" transform="matrix(9.166425,0,0,-9.1656,122.122028,12.047001)" fill="#009900"/>
</svg>
