<svg xmlns="http://www.w3.org/2000/svg" xmlns:xlink="http://www.w3.org/1999/xlink" version="1.1" width="125" height="39" viewBox="0 0 125 39">
<defs>
<path id="font_1_1" d="M.43499757 .15118408C.39898683 .10421753 .34498597 .03727722 .269989 .03727722 .19999695 .03727722 .1789856 .097229007 .1789856 .17616272 .1789856 .1811676 .1789856 .1851654 .17999268 .19215393 .34799195 .22613526 .42099 .26609803 .46398927 .30607606 .49899293 .3410492 .5059967 .37402345 .5059967 .4019928 .5059967 .45495606 .46398927 .5019531 .38198854 .5019531 .2919922 .5019531 .21798706 .45596314 .16299439 .3880005 .10998535 .32305909 .07998657 .23612976 .07998657 .15219116 .07998657 .012268066 .17098999-.01171875 .22898865-.01171875 .3019867-.01171875 .3899994 .02027893 .45799256 .13119507L.43499757 .15118408M.18199158 .22613526C.19898987 .3470459 .27398683 .46694947 .35398866 .46694947 .3889923 .46694947 .4119873 .44296266 .4119873 .4079895 .4119873 .3380432 .35099793 .26210023 .18199158 .22613526Z"/>
<path id="font_1_2" d="M.18998719 .0002746582C.20698548 .06524658 .22599793 .14620972 .24198914 .20417786 .27799989 .3350067 .32798768 .4209442 .3659973 .4209442 .39698792 .4209442 .4039917 .39595033 .43598939 .39595033 .46099855 .39595033 .48298646 .42893983 .48298646 .45794679 .48399354 .48493959 .46998597 .5019531 .43798829 .5019531 .38198854 .5019531 .31298829 .43894959 .25898744 .33099366H.25698854L.3019867 .4970703 .29699708 .50205996 .125 .47375489 .11898804 .4497528 .18099976 .44476319C.20498657 .44276429 .20298767 .42878724 .19599915 .39682008L.10398865-.01171875 .18998719 .0002746582Z"/>
<path id="font_1_3" d="M.5069885 .1381836C.48298646 .0932312 .45599366 .040267946 .42799378 .040267946 .40899659 .040267946 .40098573 .06324768 .3789978 .1521759L.34700013 .2830658C.3829956 .34701539 .43399049 .42694093 .46299745 .42694093 .47200013 .42694093 .47999574 .42494203 .4909973 .4189453 .5009918 .4149475 .5109863 .4109497 .522995 .4109497 .54499819 .4109497 .56599429 .4319458 .56599429 .4589386 .56599429 .48994447 .54299929 .5019531 .5149994 .5019531 .46199037 .5019531 .4169922 .45394898 .38198854 .39796449L.33799745 .33003236H.33599855L.29599 .49794007 .2899933 .5019531 .125 .45195008 .12799073 .427948 .20298767 .43295289C.22099304 .4339447 .22799683 .42893983 .23899842 .38298036L.2749939 .2381134 .24699402 .19015503C.20399475 .11723328 .16699219 .0652771 .14299011 .0652771 .1329956 .0652771 .12298584 .0692749 .11399841 .07426453 .10398865 .07926941 .09098816 .089279178 .07398987 .089279178 .04798889 .089279178 .0309906 .0632782 .0309906 .039276124 .0309906 .010269165 .054992677-.01171875 .09498596-.01171875 .16299439-.01171875 .20199585 .056259157 .24299622 .12319946L.2829895 .18914795H.2849884L.30299378 .111206058C.32199098 .031280519 .34098817-.01171875 .3919983-.01171875 .46499635-.01171875 .5029907 .06324768 .5329895 .12420654L.5069885 .1381836Z"/>
<path id="font_2_2" d="M.6349945 .2529297V.31092835H.084991458V.2529297H.6349945Z"/>
<path id="font_3_7" d="M.18899536 .7361908 .18199158 .7421875 .024993897 .71717837V.6921692L.06298828 .6881714C.08898926 .6851654 .09498596 .6801758 .09498596 .6421509V.087005618C.09498596 .035995485 .09199524 .033996583 .019989014 .0289917V0H.2639923V.0289917C.19299317 .033996583 .18899536 .035995485 .18899536 .087005618V.7361908Z"/>
<path id="font_3_5" d="M.036987306 .47694398V.45195008L.07499695 .4469452C.100997928 .4429474 .10699463 .43795777 .10699463 .40194703V.08699036C.10699463 .035995485 .10398865 .033996583 .03199768 .0289917V0H.27598573V.0289917C.20498657 .033996583 .20098877 .035995485 .20098877 .08699036V.49609376L.19400025 .5020752 .036987306 .47694398M.15299988 .71484377C.116989139 .71484377 .09199524 .6888428 .09199524 .65283206 .09199524 .61782839 .116989139 .5928345 .15299988 .5928345 .18998719 .5928345 .21299744 .61782839 .21398926 .65283206 .21398926 .6888428 .18998719 .71484377 .15299988 .71484377Z"/>
<path id="font_3_6" d="M.09498596 .0869751C.09498596 .035995485 .09199524 .033996583 .019989014 .0289917V0H.2639923V.0289917C.19299317 .033996583 .18899536 .035995485 .18899536 .0869751V.25390626H.19099427C.23199463 .18896485 .30299378 .10203552 .35499574 .049087526 .3919983 .0121154789 .43099977 .00010681152 .46299745-.0018920899L.5379944-.0048828127V.023117066C.5079956 .031097413 .48298646 .046081544 .45199586 .077056888 .3899994 .13800049 .31199647 .23292542 .27398683 .28692628 .2689972 .2939453 .2669983 .2989502 .2769928 .30996705 .32499696 .36506654 .35699464 .394104 .3909912 .41915895 .4249878 .4441986 .44999696 .45622254 .5079956 .46221925V.49023438H.40499879C.37098695 .49023438 .3619995 .4852295 .34199525 .46122743 .31298829 .42616273 .21398926 .30195619 .19099427 .26789857H.18899536V.73617556L.18199158 .7421875 .024993897 .71717837V.69218447L.06298828 .68818667C.08898926 .6851959 .09498596 .68019106 .09498596 .64219668V.0869751Z"/>
<path id="font_3_4" d="M.44099427 .2627716C.46199037 .2627716 .48098756 .2677765 .48098756 .30078126 .48098756 .35983277 .46199037 .5019531 .2789917 .5019531 .12298584 .5019531 .04899597 .39086915 .04899597 .24082947 .04899597 .08317566 .116989139-.01373291 .27999879-.01171875 .3909912-.010726929 .44799806 .050247194 .47499085 .1290741L.44499208 .14503479C.4169922 .08717346 .3789978 .039276124 .2999878 .039276124 .17599488 .039276124 .15098572 .15901184 .15299988 .2627716H.44099427M.1539917 .30078126C.1539917 .34181214 .16899109 .46694947 .272995 .46694947 .3659973 .46694947 .3769989 .37184144 .3769989 .33280946 .3769989 .31378175 .37098695 .30078126 .34298707 .30078126H.1539917Z"/>
<path id="font_2_1" d="M.2769928 .50541689C.2829895 .5204315 .28399659 .5294342 .28399659 .53344729 .28399659 .5544586 .2539978 .56347659 .22299195 .56347659 .19299317 .56347659 .1619873 .5544586 .15899658 .53944399L.053985597 .05303955C.053985597 .046035768 .067993167 .040039064 .07998657 .040039064 .08799744 .040039064 .09599304 .043029787 .09799194 .048034669L.2769928 .50541689Z"/>
<path id="font_3_3" d="M.2999878 .17871094V.0769043C.2999878 .04296875 .2889862 .036987306 .2649994 .034988405L.20098877 .0289917V0H.46499635V.0289917L.41999818 .033981325C.39698792 .036987306 .3899994 .04296875 .3899994 .0769043V.17871094H.49299623V.22570801H.3899994V.66796877H.31698609C.22299195 .5298767 .11099243 .35577394 .018997193 .19970703L.027999878 .17871094H.2999878M.09098816 .22570801C.15098572 .33476258 .22099304 .4498291 .2979889 .5709076H.2999878V.22570801H.09098816Z"/>
<path id="font_2_3" d="M.084991458 .31092835V.2529297H.33099366V.0068359377H.3889923V.2529297H.6349945V.31092835H.3889923V.5566406H.33099366V.31092835H.084991458Z"/>
<path id="font_3_2" d="M.12998963 .3657837C.12998963 .3487854 .1349945 .33779908 .147995 .33779908 .1599884 .33779908 .18699646 .34777833 .23498535 .34777833 .31999208 .34777833 .36799623 .27090455 .36799623 .18403626 .36799623 .065216068 .30899049 .023269654 .23799134 .023269654 .17199707 .023269654 .1289978 .07319641 .10998535 .12911988 .10398865 .14808655 .09399414 .15707398 .07998657 .15707398 .06199646 .15707398 .026992798 .13809204 .026992798 .10215759 .026992798 .05921936 .09599304-.01171875 .23699951-.01171875 .38198854-.01171875 .47299195 .06121826 .47299195 .18902588 .47299195 .32281495 .35798646 .3627777 .30299378 .3677826V.3717804C.35699464 .38078309 .44400025 .4207611 .44400025 .5197296 .44400025 .6306915 .35699464 .6796875 .25 .6796875 .117996219 .6796875 .052993776 .60369876 .052993776 .5607147 .052993776 .5297241 .08799744 .51272585 .101989749 .51272585 .114990238 .51272585 .12298584 .5197296 .1269989 .5327301 .14898682 .60069277 .18699646 .64468386 .24299622 .64468386 .32199098 .64468386 .34098817 .57470706 .34098817 .51872256 .34098817 .4587555 .31999208 .38378907 .23498535 .38378907 .18699646 .38378907 .1599884 .39378358 .147995 .39378358 .1349945 .39378358 .12998963 .38378907 .12998963 .3657837Z"/>
<path id="font_2_4" d="M.6349945 .14315796V.20117188H.084991458V.14315796H.6349945M.6349945 .36288453V.42089845H.084991458V.36288453H.6349945Z"/>
<path id="font_3_1" d="M.2649994 .64468386C.3600006 .64468386 .3869934 .49682618 .3869934 .33398438 .3869934 .17112732 .3600006 .023269654 .2649994 .023269654 .16999817 .023269654 .14299011 .17112732 .14299011 .33398438 .14299011 .49682618 .16999817 .64468386 .2649994 .64468386M.2649994 .6796875C.099990848 .6796875 .040985109 .53378298 .040985109 .33398438 .040985109 .13417053 .099990848-.01171875 .2649994-.01171875 .42999269-.01171875 .4889984 .13417053 .4889984 .33398438 .4889984 .53378298 .42999269 .6796875 .2649994 .6796875Z"/>
</defs>
<use data-text="e" xlink:href="#font_1_1" transform="matrix(10.036701,0,0,-10.036601,34.311986,9.521931)"/>
<use data-text="r" xlink:href="#font_1_2" transform="matrix(7.6077287,0,0,-7.6076529,39.592145,5.5618498)"/>
<use data-text="x" xlink:href="#font_1_3" transform="matrix(7.6077287,0,0,-7.6076529,43.997014,5.5618498)"/>
<use data-text="&#x2212;" xlink:href="#font_2_2" transform="matrix(10.036701,0,0,-10.036601,48.954427,9.521929)"/>
<use data-text="l" xlink:href="#font_3_7" transform="matrix(10.036701,0,0,-10.036601,56.17664,9.521929)"/>
<use data-text="i" xlink:href="#font_3_5" transform="matrix(10.036701,0,0,-10.036601,58.97688,9.521929)"/>
<use data-text="k" xlink:href="#font_3_6" transform="matrix(10.036701,0,0,-10.036601,61.897565,9.521929)"/>
<use data-text="e" xlink:href="#font_3_4" transform="matrix(10.036701,0,0,-10.036601,67.156787,9.521929)"/>
<path transform="matrix(1.00003,0,0,-1.00002,2.2920228,36.88648)" d="M3.9851 0H13.02313C15.22408 0 17.00824 1.78416 17.00824 3.9851V10.18828C17.00824 12.38922 15.22408 14.17339 13.02313 14.17339H3.9851C1.78416 14.17339 0 12.38922 0 10.18828V3.9851C0 1.78416 1.78416 0 3.9851 0Z" fill="#ccccff" fill-opacity=".2"/>
<path transform="matrix(1.00003,0,0,-1.00002,2.2920228,36.88648)" stroke-width=".79701" stroke-linecap="butt" stroke-linejoin="round" fill="none" stroke="#000000" d="M3.9851 0H13.02313C15.22408 0 17.00824 1.78416 17.00824 3.9851V10.18828C17.00824 12.38922 15.22408 14.17339 13.02313 14.17339H3.9851C1.78416 14.17339 0 12.38922 0 10.18828V3.9851C0 1.78416 1.78416 0 3.9851 0Z"/>
<use data-text="&#x2032;" xlink:href="#font_2_1" transform="matrix(7.6077287,0,0,-7.6076529,21.062588,27.134284)"/>
<use data-text="&#x2032;" xlink:href="#font_2_1" transform="matrix(7.6077287,0,0,-7.6076529,23.306866,27.134284)"/>
<use data-text="&#x2212;" xlink:href="#font_2_2" transform="matrix(10.036701,0,0,-10.036601,27.028767,31.359368)"/>
<use data-text="4" xlink:href="#font_3_3" transform="matrix(10.036701,0,0,-10.036601,36.482049,33.159406)"/>
<path transform="matrix(1.00003,0,0,-1.00002,2.2920228,36.88648)" d="M46.50531 0H55.54335C57.7443 0 59.52846 1.78416 59.52846 3.9851V10.18828C59.52846 12.38922 57.7443 14.17339 55.54335 14.17339H46.50531C44.30437 14.17339 42.5202 12.38922 42.5202 10.18828V3.9851C42.5202 1.78416 44.30437 0 46.50531 0Z" fill="#ccccff" fill-opacity=".2"/>
<path transform="matrix(1.00003,0,0,-1.00002,2.2920228,36.88648)" stroke-width=".79701" stroke-linecap="butt" stroke-linejoin="round" fill="none" stroke="#000000" d="M46.50531 0H55.54335C57.7443 0 59.52846 1.78416 59.52846 3.9851V10.18828C59.52846 12.38922 57.7443 14.17339 55.54335 14.17339H46.50531C44.30437 14.17339 42.5202 12.38922 42.5202 10.18828V3.9851C42.5202 1.78416 44.30437 0 46.50531 0Z"/>
<use data-text="&#x2032;" xlink:href="#font_2_1" transform="matrix(7.6077287,0,0,-7.6076529,63.286855,27.134284)"/>
<use data-text="+" xlink:href="#font_2_3" transform="matrix(10.036701,0,0,-10.036601,66.71496,32.598394)"/>
<use data-text="3" xlink:href="#font_3_2" transform="matrix(10.036701,0,0,-10.036601,76.16824,33.132406)"/>
<path transform="matrix(1.00003,0,0,-1.00002,2.2920228,36.88648)" d="M86.19066 0H95.22871C97.42966 0 99.21382 1.78416 99.21382 3.9851V10.18828C99.21382 12.38922 97.42966 14.17339 95.22871 14.17339H86.19066C83.98972 14.17339 82.20555 12.38922 82.20555 10.18828V3.9851C82.20555 1.78416 83.98972 0 86.19066 0Z" fill="#ccccff" fill-opacity=".2"/>
<path transform="matrix(1.00003,0,0,-1.00002,2.2920228,36.88648)" stroke-width=".79701" stroke-linecap="butt" stroke-linejoin="round" fill="none" stroke="#000000" d="M86.19066 0H95.22871C97.42966 0 99.21382 1.78416 99.21382 3.9851V10.18828C99.21382 12.38922 97.42966 14.17339 95.22871 14.17339H86.19066C83.98972 14.17339 82.20555 12.38922 82.20555 10.18828V3.9851C82.20555 1.78416 83.98972 0 86.19066 0Z"/>
<use data-text="=" xlink:href="#font_2_4" transform="matrix(10.036701,0,0,-10.036601,106.40215,31.878378)"/>
<use data-text="0" xlink:href="#font_3_1" transform="matrix(10.036701,0,0,-10.036601,118.69051,33.132406)"/>
<path transform="matrix(1.00003,0,0,-1.00002,2.2920228,36.88648)" stroke-width=".79701" stroke-linecap="butt" stroke-linejoin="round" fill="none" stroke="#000000" d="M27.42479 31.18166H26.7369C24.53595 31.18166 20.96762 31.18166 18.76668 31.18166H12.48923C10.28828 31.18166 8.50412 29.39749 8.50412 27.19655V18.52327"/>
<path transform="matrix(0,1.00002,1.00003,0,10.796398,18.362839)" d="M2.59026 0-1.55415 2.0722 0 0-1.55415-2.0722"/>
<path transform="matrix(1.00003,0,0,-1.00002,2.2920228,36.88648)" stroke-width=".79701" stroke-linecap="butt" stroke-linejoin="round" fill="none" stroke="#000000" d="M51.02432 24.67488V23.82822C51.02432 21.62727 51.02432 21.62727 51.02432 23.82822 51.02432 21.62727 51.02432 18.05894 51.02432 15.858V18.52327"/>
<path transform="matrix(0,1.00002,1.00003,0,53.317876,18.362839)" d="M2.59026 0-1.55415 2.0722 0 0-1.55415-2.0722"/>
<path transform="matrix(1.00003,0,0,-1.00002,2.2920228,36.88648)" stroke-width=".79701" stroke-linecap="butt" stroke-linejoin="round" fill="none" stroke="#000000" d="M72.6313 31.18166H72.47733C74.67827 31.18166 78.2466 31.18166 80.44754 31.18166H86.7246C88.92554 31.18166 90.7097 29.39749 90.7097 27.19655V18.52327"/>
<path transform="matrix(0,1.00002,1.00003,0,93.00445,18.362839)" d="M2.59026 0-1.55415 2.0722 0 0-1.55415-2.0722"/>
</svg>
