<svg xmlns="http://www.w3.org/2000/svg" xmlns:xlink="http://www.w3.org/1999/xlink" version="1.1" width="131" height="57" viewBox="0 0 131 57">
<defs>
<path id="font_1_2" d="M.42799378 .45222474 .43899537 .49023438H.31199647L.34599305 .6092224 .33399964 .6162262 .23699951 .53923037 .22399903 .49023438H.14299011L.13198853 .45222474H.21499634L.125 .08627319C.10998535 .029266358 .12199402-.01171875 .17199707-.01171875 .2519989-.01171875 .31599427 .054275514 .35598756 .1292572L.33399964 .1462555C.31098939 .10726929 .2599945 .040267946 .22898865 .040267946 .20799256 .040267946 .20799256 .0632782 .21398926 .088272098L.30299378 .45222474H.42799378Z"/>
<path id="font_2_1" d="M.07398987 .2861328V.21612549H.31900025V.2861328H.07398987Z"/>
<path id="font_2_4" d="M.2999878 .17871094V.0769043C.2999878 .04296875 .2889862 .036987306 .2649994 .034988405L.20098877 .0289917V0H.46499635V.0289917L.41999818 .033981325C.39698792 .036987306 .3899994 .04296875 .3899994 .0769043V.17871094H.49299623V.22570801H.3899994V.66796877H.31698609C.22299195 .5298767 .11099243 .35577394 .018997193 .19970703L.027999878 .17871094H.2999878M.09098816 .22570801C.15098572 .33476258 .22099304 .4498291 .2979889 .5709076H.2999878V.22570801H.09098816Z"/>
<path id="font_2_3" d="M.4850006 .13195801 .45700074 .13696289C.43598939 .08299255 .41600038 .07598877 .37599183 .07598877H.11999512C.13598633 .1279602 .19499207 .19892884 .28799439 .2658844 .38398744 .33584596 .45799256 .38082887 .45799256 .49276734 .45799256 .63168337 .3659973 .6796875 .26098634 .6796875 .12399292 .6796875 .052993776 .5967102 .052993776 .54473879 .052993776 .51075747 .09098816 .49476625 .10798645 .49476625 .12599182 .49476625 .1329956 .50476077 .13699341 .5217438 .15299988 .5897064 .19198609 .64468386 .2539978 .64468386 .33099366 .64468386 .35299684 .5797119 .35299684 .50675967 .35299684 .3998108 .29899598 .33984376 .21199036 .26289369 .08898926 .15594483 .04598999 .08798218 .026992798 .009994507L.036987306 0H.45098878L.4850006 .13195801Z"/>
<path id="font_2_2" d="M.43699647 0V.0289917L.35299684 .035995485C.33198548 .037994386 .31999208 .04598999 .31999208 .08496094V.67367556L.31498719 .6796875 .10899353 .6446991V.6197052L.20199585 .6087036C.21899414 .6067047 .22599793 .5987091 .22599793 .56973269V.08496094C.22599793 .065979007 .22299195 .053985597 .21699524 .04698181 .21199036 .039993287 .20399475 .036987306 .19299317 .035995485L.10899353 .0289917V0H.43699647Z"/>
<path id="font_2_7" d="M.36698915 .35102845V.46794129C.33399964 .49194337 .2829895 .5019531 .23799134 .5019531 .12998963 .5019531 .056991579 .45095826 .055999757 .35603334 .056991579 .27308656 .12399292 .2361145 .20698548 .21113587 .2519989 .19714356 .31498719 .17416382 .31498719 .10621643 .31498719 .055252077 .2749939 .023269654 .22200012 .023269654 .14099121 .023269654 .09599304 .082229617 .07598877 .16716004H.04699707L.056991579 .03627014C.09298706 .004272461 .1539917-.01171875 .21299744-.01171875 .33198548-.01171875 .3999939 .051254274 .3999939 .13618469 .3999939 .2241211 .34599305 .26409913 .24299622 .29606629 .20199585 .30906678 .13598633 .3300476 .13598633 .3860016 .13699341 .43795777 .17599488 .46694947 .22599793 .46694947 .29699708 .46694947 .33099366 .4119873 .33799745 .35102845H.36698915Z"/>
<path id="font_2_5" d="M.036987306 .47694398V.45195008L.07499695 .4469452C.100997928 .4429474 .10699463 .43795777 .10699463 .40194703V.08699036C.10699463 .035995485 .10398865 .033996583 .03199768 .0289917V0H.27598573V.0289917C.20498657 .033996583 .20098877 .035995485 .20098877 .08699036V.49609376L.19400025 .5020752 .036987306 .47694398M.15299988 .71484377C.116989139 .71484377 .09199524 .6888428 .09199524 .65283206 .09199524 .61782839 .116989139 .5928345 .15299988 .5928345 .18998719 .5928345 .21299744 .61782839 .21398926 .65283206 .21398926 .6888428 .18998719 .71484377 .15299988 .71484377Z"/>
<path id="font_2_6" d="M.5289917 .34295655C.5289917 .4439392 .47399903 .5019531 .38198854 .5019531 .30799867 .5019531 .2619934 .46594239 .19999695 .4259491L.18598938 .5019531 .036987306 .47694398V.45195008L.07499695 .4469452C.100997928 .4429474 .10699463 .4379425 .10699463 .40194703V.08699036C.10699463 .035995485 .10398865 .033996583 .03199768 .0289917V0H.27598573V.0289917C.20498657 .033996583 .20098877 .035995485 .20098877 .08699036V.32095338C.20098877 .34596253 .20298767 .35995484 .21099854 .37594605 .23199463 .4149475 .2769928 .44795228 .32998658 .44795228 .397995 .44795228 .43499757 .40994264 .43499757 .32295228V.08699036C.43499757 .035995485 .43199159 .033996583 .3600006 .0289917V0H.60398867V.0289917C.5329895 .033996583 .5289917 .035995485 .5289917 .08699036V.34295655Z"/>
<path id="font_1_1" d="M.43499757 .15118408C.39898683 .10421753 .34498597 .03727722 .269989 .03727722 .19999695 .03727722 .1789856 .097229007 .1789856 .17616272 .1789856 .1811676 .1789856 .1851654 .17999268 .19215393 .34799195 .22613526 .42099 .26609803 .46398927 .30607606 .49899293 .3410492 .5059967 .37402345 .5059967 .4019928 .5059967 .45495606 .46398927 .5019531 .38198854 .5019531 .2919922 .5019531 .21798706 .45596314 .16299439 .3880005 .10998535 .32305909 .07998657 .23612976 .07998657 .15219116 .07998657 .012268066 .17098999-.01171875 .22898865-.01171875 .3019867-.01171875 .3899994 .02027893 .45799256 .13119507L.43499757 .15118408M.18199158 .22613526C.19898987 .3470459 .27398683 .46694947 .35398866 .46694947 .3889923 .46694947 .4119873 .44296266 .4119873 .4079895 .4119873 .3380432 .35099793 .26210023 .18199158 .22613526Z"/>
<path id="font_3_1" d="M.6349945 .2529297V.31092835H.084991458V.2529297H.6349945Z"/>
</defs>
<path transform="matrix(1.00009,0,0,-1.00002,59.35029,36.132444)" d="M-57.40189-19.13394V34.44107H0V-19.13394ZM0 34.44107" fill="#d9d9ec"/>
<path transform="matrix(1.00009,0,0,-1.00002,59.35029,36.132444)" d="M0-19.13394V34.44107H25.51193V-19.13394ZM25.51193 34.44107" fill="#bfdfbf"/>
<path transform="matrix(1.00009,0,0,-1.00002,59.35029,36.132444)" d="M25.51193-19.13394V34.44107H70.15787V-19.13394ZM70.15787 34.44107" fill="#dfbfbf"/>
<path transform="matrix(1.00009,0,0,-1.00002,59.35029,36.132444)" stroke-width=".3985" stroke-linecap="butt" stroke-miterlimit="10" stroke-linejoin="miter" fill="none" stroke="#000000" d="M-57.40189 0H69.69958"/>
<path transform="matrix(1.00009,0,0,-1.00002,129.05614,36.132444)" stroke-width=".31879" stroke-linecap="round" stroke-linejoin="round" fill="none" stroke="#000000" d="M-1.19551 1.59401C-1.09587 .99626 0 .09961 .29886 0 0-.09961-1.09587-.99626-1.19551-1.59401"/>
<path transform="matrix(1.00009,0,0,-1.00002,59.35029,36.132444)" stroke-width=".3985" stroke-linecap="butt" stroke-miterlimit="10" stroke-linejoin="miter" fill="none" stroke="#000000" d="M0-19.13394V33.9828"/>
<path transform="matrix(0,-1.00002,-1.00009,-0,59.35029,2.148964)" stroke-width=".31879" stroke-linecap="round" stroke-linejoin="round" fill="none" stroke="#000000" d="M-1.19551 1.59401C-1.09587 .99626 0 .09961 .29886 0 0-.09961-1.09587-.99626-1.19551-1.59401"/>
<use data-text="t" xlink:href="#font_1_2" transform="matrix(9.166425,0,0,-9.165783,125.01119,45.180627)"/>
<path transform="matrix(1.00009,0,0,-1.00002,59.35029,36.132444)" stroke-width=".79701" stroke-linecap="butt" stroke-miterlimit="10" stroke-linejoin="miter" fill="none" stroke="#929292" d="M-51.0239 2.55115V-2.55115"/>
<use data-text="-" xlink:href="#font_2_1" transform="matrix(9.166425,0,0,-9.165783,4.0923159,45.668634)"/>
<use data-text="4" xlink:href="#font_2_4" transform="matrix(9.166425,0,0,-9.165783,7.6855547,45.668634)"/>
<path transform="matrix(1.00009,0,0,-1.00002,59.35029,36.132444)" stroke-width=".79701" stroke-linecap="butt" stroke-miterlimit="10" stroke-linejoin="miter" fill="none" stroke="#929292" d="M-25.51193 2.55115V-2.55115"/>
<use data-text="-" xlink:href="#font_2_1" transform="matrix(9.166425,0,0,-9.165783,29.606614,45.668634)"/>
<use data-text="2" xlink:href="#font_2_3" transform="matrix(9.166425,0,0,-9.165783,33.199853,45.668634)"/>
<path transform="matrix(1.00009,0,0,-1.00002,59.35029,36.132444)" stroke-width=".79701" stroke-linecap="butt" stroke-miterlimit="10" stroke-linejoin="miter" fill="none" stroke="#929292" d="M25.51193 2.55115V-2.55115"/>
<use data-text="2" xlink:href="#font_2_3" transform="matrix(9.166425,0,0,-9.165783,82.433368,45.668634)"/>
<path transform="matrix(1.00009,0,0,-1.00002,59.35029,36.132444)" stroke-width=".79701" stroke-linecap="butt" stroke-miterlimit="10" stroke-linejoin="miter" fill="none" stroke="#929292" d="M51.0239 2.55115V-2.55115"/>
<use data-text="4" xlink:href="#font_2_4" transform="matrix(9.166425,0,0,-9.165783,107.94766,45.668634)"/>
<path transform="matrix(1.00009,0,0,-1.00002,59.35029,36.132444)" stroke-width=".3985" stroke-linecap="butt" stroke-miterlimit="10" stroke-linejoin="miter" fill="none" stroke="#929292" d="M1.27565-12.75595H-1.27565"/>
<use data-text="-" xlink:href="#font_2_1" transform="matrix(7.33316,0,0,-7.332647,50.459489,51.343748)"/>
<use data-text="1" xlink:href="#font_2_2" transform="matrix(7.33316,0,0,-7.332647,53.334085,51.343748)"/>
<path transform="matrix(1.00009,0,0,-1.00002,59.35029,36.132444)" stroke-width=".3985" stroke-linecap="butt" stroke-miterlimit="10" stroke-linejoin="miter" fill="none" stroke="#929292" d="M1.27565 12.75595H-1.27565"/>
<use data-text="1" xlink:href="#font_2_2" transform="matrix(7.33316,0,0,-7.332647,53.336748,25.831238)"/>
<path transform="matrix(1.00009,0,0,-1.00002,59.35029,36.132444)" stroke-width=".3985" stroke-linecap="butt" stroke-miterlimit="10" stroke-linejoin="miter" fill="none" stroke="#929292" d="M1.27565 25.51193H-1.27565"/>
<use data-text="2" xlink:href="#font_2_3" transform="matrix(7.33316,0,0,-7.332647,53.336748,13.074982)"/>
<path transform="matrix(1.00009,0,0,-1.00002,59.35029,36.132444)" stroke-width="1.19553" stroke-linecap="butt" stroke-miterlimit="10" stroke-linejoin="miter" fill="none" stroke="#8080bf" d="M-57.40189 12.46906-56.83257 12.3365-56.26323 12.17924-55.69391 11.99841-55.12459 11.79288-54.55525 11.56476-53.98593 11.3127-53.41661 11.03883-52.84729 10.7424-52.27797 10.42513-51.70863 10.08665-51.13931 9.72832-50.56999 9.35051-50.00067 8.95404-49.43134 8.54004-48.86203 8.10852-48.2927 7.66162-47.72336 7.19856-47.15405 6.72171-46.58472 6.2314-46.0154 5.72845-45.44606 5.2144-44.87675 4.68965-44.30742 4.15596-43.7381 3.6135-43.16878 3.06401-42.59944 2.50871-42.03014 1.94814-41.4608 1.38368-40.89148 .81668-40.32216 .24796-39.75284-.32094-39.1835-.8897-38.61418-1.45648-38.04486-2.02036-37.47552-2.58034-36.9062-3.13487-36.33688-3.68375-35.76756-4.22485-35.19823-4.75777-34.6289-5.28078-34.05959-5.79385-33.49025-6.29506-32.92094-6.7838-32.35161-7.25891-31.7823-7.71982-31.21297-8.16498-30.64365-8.59416-30.07433-9.00621-29.50499-9.39996-28.93567-9.77562-28.36633-10.13142-27.79703-10.46698-27.22769-10.78192-26.65837-11.07524-26.08905-11.34657-25.51971-11.59512-24.9504-11.8209-24.38107-12.02293-23.81175-12.20123-23.24243-12.35481-22.67311-12.48404-22.10378-12.58836-21.53445-12.66759-20.96513-12.72151-20.3958-12.75032-19.82649-12.75401-19.25716-12.73143-18.68784-12.68433-18.1185-12.61115-17.54918-12.51364-16.97986-12.39081-16.41052-12.24327-15.84122-12.07161-15.27188-11.8756-14.70256-11.65643-14.13324-11.41331-13.56392-11.14822-12.9946-10.86017-12.42526-10.55106-11.85594-10.22076-11.28662-9.87003-10.7173-9.49962-10.14796-9.11034-9.57864-8.70334-9.00932-8.27824-8.43999-7.83739-7.87067-7.38037-7.30135-6.90875-6.73203-6.42351-6.16269-5.92543-5.59338-5.41566-5.02405-4.8948-4.45471-4.36461-3.8854-3.82545-3.31607-3.27872-2.74677-2.72514-2.17743-2.16653-1.60811-1.60364-1.03877-1.03741"/>
<path transform="matrix(1.00009,0,0,-1.00002,59.35029,36.132444)" stroke-width="1.19553" stroke-linecap="butt" stroke-miterlimit="10" stroke-linejoin="miter" fill="none" stroke="#409f40" d="M0 25.51193 .24738 25.02806 .49475 24.54575 .74216 24.07626 .98953 23.61186 1.23694 23.1599 1.48431 22.7134 1.7317 22.27701 1.9791 21.85114 2.22647 21.42993 2.47388 21.01924 2.72125 20.61594 2.96864 20.22043 3.21603 19.82999 3.46342 19.44965 3.71082 19.0771 3.95819 18.70963 4.20558 18.34993 4.45297 17.99763 4.70036 17.65312 4.94775 17.31406 5.19514 16.982 5.44254 16.6554 5.68993 16.33385 5.9373 16.02008 6.1847 15.71371 6.43208 15.41281 6.67947 15.11656 6.92686 14.82576 7.17424 14.54002 7.42165 14.2617 7.66902 13.98608 7.91641 13.71826 8.1638 13.4555 8.41118 13.19507 8.65858 12.94243 8.90596 12.69522 9.15337 12.44998 9.40074 12.2129 9.64813 11.97818 9.89552 11.74577 10.1429 11.52116 10.3903 11.29927 10.63768 11.08243 10.88509 10.87067 11.13246 10.66122 11.37985 10.45724 11.62724 10.25562 11.87462 10.05902 12.12202 9.86514 12.3694 9.67636 12.61679 9.48988 12.86418 9.30887 13.11157 9.13019 13.35896 8.95424 13.60634 8.78062 13.85374 8.61206 14.10112 8.44623 14.34851 8.28545 14.5959 8.12468 14.84329 7.96896 15.09068 7.81598 15.33807 7.66531 15.58545 7.52013 15.83284 7.37453 16.08023 7.23401 16.32762 7.09386 16.57501 6.95839 16.82239 6.8233 17.0698 6.69328 17.31717 6.56561 17.56456 6.43793 17.81195 6.31569 18.05934 6.19307 18.30673 6.0755 18.55411 5.95833 18.80151 5.84348 19.04889 5.73099 19.29628 5.6216 19.54367 5.51183 19.79105 5.4071 20.03845 5.30238 20.28583 5.2004 20.53323 5.10074 20.78061 5.00381 21.028 4.90688 21.27539 4.81267 21.52277 4.7208 21.77017 4.62894 22.01755 4.54211 22.26495 4.45258 22.51233 4.3685 22.75972 4.28441 23.00711 4.20267 23.25449 4.12091 23.50189 4.0419 23.74927 3.9652 23.99666 3.8889 24.24405 3.81223 24.49144 3.74059"/>
<path transform="matrix(1.00009,0,0,-1.00002,59.35029,36.132444)" stroke-width="1.19553" stroke-linecap="butt" stroke-miterlimit="10" stroke-linejoin="miter" fill="none" stroke="#9f4040" d="M25.51193-12.75595 25.96272-12.53056 26.41353-12.30518 26.8643-12.07977 27.3151-11.85437 27.76587-11.62898 28.21667-11.4036 28.66745-11.1782 29.11824-10.9528 29.56903-10.72742 30.0198-10.50201 30.47061-10.27663 30.92139-10.05124 31.37218-9.82584 31.82297-9.60045 32.27376-9.37505 32.72455-9.14966 33.17532-8.92427 33.62611-8.69887 34.07692-8.47346 34.5277-8.24808 34.97849-8.02269 35.42928-7.79729 35.88007-7.5719 36.33086-7.3465 36.78163-7.12111 37.23242-6.89572 37.6832-6.67032 38.134-6.44493 38.5848-6.21953 39.03557-5.99413 39.48637-5.76875 39.93715-5.54335 40.38794-5.31795 40.83873-5.09256 41.28952-4.86716 41.74031-4.64178 42.19109-4.41638 42.64189-4.19098 43.09268-3.96559 43.54346-3.74019 43.99425-3.5148 44.44504-3.28941 44.89583-3.06401 45.34662-2.83862 45.7974-2.61322 46.24818-2.38785 46.69897-2.16245 47.14977-1.93704 47.60056-1.71165 48.05133-1.48625 48.50214-1.26086 48.95291-1.03548 49.4037-.81007 49.85449-.58469 50.30528-.3593 50.75607-.1339 51.20685 .09146 51.65765 .31686 52.10844 .54225 52.55922 .76764 53.01001 .99303 53.46078 1.21843 53.91158 1.44383 54.36238 1.66922 54.81316 1.8946 55.26395 2.12001 55.71474 2.3454 56.16553 2.5708 56.6163 2.7962 57.0671 3.02158 57.5179 3.24698 57.96867 3.47237 58.41946 3.69777 58.87024 3.92317 59.32104 4.14854 59.77184 4.37395 60.22261 4.59935 60.6734 4.82474 61.12418 5.05014 61.57498 5.27551 62.02577 5.50092 62.47655 5.7263 62.92734 5.9517 63.37813 6.17711 63.82892 6.40248 64.27971 6.62788 64.7305 6.85329 65.18129 7.07867 65.63206 7.30408 66.08286 7.52945 66.53366 7.75485 66.98444 7.98026 67.43523 8.20564 67.88602 8.43105 68.3368 8.65643 68.7876 8.88182 69.23837 9.10722 69.68916 9.33263 70.13994 9.55801"/>
<path transform="matrix(1.00009,0,0,-1.00002,59.35029,36.132444)" stroke-width=".79701" stroke-linecap="butt" stroke-miterlimit="10" stroke-linejoin="miter" fill="none" stroke="#8080bf" d="M1.34496 0C1.34496 .7428 .7428 1.34496 0 1.34496-.7428 1.34496-1.34496 .7428-1.34496 0-1.34496-.7428-.7428-1.34496 0-1.34496 .7428-1.34496 1.34496-.7428 1.34496 0ZM0 0"/>
<path transform="matrix(1.00009,0,0,-1.00002,59.35029,36.132444)" d="M1.79327 25.51193C1.79327 26.50235 .9904 27.30522 0 27.30522-.9904 27.30522-1.79327 26.50235-1.79327 25.51193-1.79327 24.52153-.9904 23.71866 0 23.71866 .9904 23.71866 1.79327 24.52153 1.79327 25.51193ZM0 25.51193" fill="#409f40"/>
<path transform="matrix(1.00009,0,0,-1.00002,59.35029,36.132444)" stroke-width=".79701" stroke-linecap="butt" stroke-miterlimit="10" stroke-linejoin="miter" fill="none" stroke="#409f40" d="M26.8569 3.45251C26.8569 4.19531 26.25473 4.79749 25.51193 4.79749 24.76913 4.79749 24.16698 4.19531 24.16698 3.45251 24.16698 2.70972 24.76913 2.10754 25.51193 2.10754 26.25473 2.10754 26.8569 2.70972 26.8569 3.45251ZM25.51193 3.45251"/>
<path transform="matrix(1.00009,0,0,-1.00002,59.35029,36.132444)" d="M27.30522-12.75595C27.30522-11.76555 26.50235-10.96268 25.51193-10.96268 24.52153-10.96268 23.71866-11.76555 23.71866-12.75595 23.71866-13.74637 24.52153-14.54924 25.51193-14.54924 26.50235-14.54924 27.30522-13.74637 27.30522-12.75595ZM25.51193-12.75595" fill="#9f4040"/>
<use data-text="s" xlink:href="#font_2_7" transform="matrix(9.166425,0,0,-9.165783,21.839913,26.57925)" fill="#000080"/>
<use data-text="i" xlink:href="#font_2_5" transform="matrix(9.166425,0,0,-9.165783,25.836472,26.57925)" fill="#000080"/>
<use data-text="n" xlink:href="#font_2_6" transform="matrix(9.166425,0,0,-9.165783,28.503907,26.57925)" fill="#000080"/>
<use data-text="t" xlink:href="#font_1_2" transform="matrix(9.166425,0,0,-9.165783,35.34813,26.57925)" fill="#000080"/>
<use data-text="2" xlink:href="#font_2_3" transform="matrix(9.166425,0,0,-9.165783,65.424839,10.707933)" fill="#008000"/>
<use data-text="e" xlink:href="#font_1_1" transform="matrix(9.166425,0,0,-9.165783,70.28727,10.707933)" fill="#008000"/>
<use data-text="&#x2212;" xlink:href="#font_3_1" transform="matrix(6.966527,0,0,-6.9660398,75.1097,7.0918619)" fill="#008000"/>
<use data-text="t" xlink:href="#font_1_2" transform="matrix(6.966527,0,0,-6.9660398,80.27418,7.0918619)" fill="#008000"/>
<use data-text="1" xlink:href="#font_2_2" transform="matrix(6.966527,0,0,-6.9660398,96.24361,22.02716)" fill="#800000"/>
<path transform="matrix(1.00009,0,0,-1.00002,-30.308785,3.8187962)" stroke-width=".5316" stroke-linecap="butt" stroke-miterlimit="10" stroke-linejoin="miter" fill="none" stroke="#800000" d="M126.541-19.553H130.236"/>
<use data-text="2" xlink:href="#font_2_3" transform="matrix(6.966527,0,0,-6.9660398,96.24361,29.390307)" fill="#800000"/>
<use data-text="t" xlink:href="#font_1_2" transform="matrix(9.166425,0,0,-9.165783,101.33405,25.952239)" fill="#800000"/>
<use data-text="&#x2212;" xlink:href="#font_3_1" transform="matrix(9.166425,0,0,-9.165783,106.65655,25.953238)" fill="#800000"/>
<use data-text="2" xlink:href="#font_2_3" transform="matrix(9.166425,0,0,-9.165783,114.47025,25.952239)" fill="#800000"/>
</svg>
