<svg xmlns="http://www.w3.org/2000/svg" xmlns:xlink="http://www.w3.org/1999/xlink" version="1.1" width="88" height="39" viewBox="0 0 88 39">
<defs>
<path id="font_1_1" d="M.42799378 .45222474 .43899537 .49023438H.31199647L.34599305 .6092224 .33399964 .6162262 .23699951 .53923037 .22399903 .49023438H.14299011L.13198853 .45222474H.21499634L.125 .08627319C.10998535 .029266358 .12199402-.01171875 .17199707-.01171875 .2519989-.01171875 .31599427 .054275514 .35598756 .1292572L.33399964 .1462555C.31098939 .10726929 .2599945 .040267946 .22898865 .040267946 .20799256 .040267946 .20799256 .0632782 .21398926 .088272098L.30299378 .45222474H.42799378Z"/>
<path id="font_2_1" d="M.07398987 .2861328V.21612549H.31900025V.2861328H.07398987Z"/>
<path id="font_2_4" d="M.2999878 .17871094V.0769043C.2999878 .04296875 .2889862 .036987306 .2649994 .034988405L.20098877 .0289917V0H.46499635V.0289917L.41999818 .033981325C.39698792 .036987306 .3899994 .04296875 .3899994 .0769043V.17871094H.49299623V.22570801H.3899994V.66796877H.31698609C.22299195 .5298767 .11099243 .35577394 .018997193 .19970703L.027999878 .17871094H.2999878M.09098816 .22570801C.15098572 .33476258 .22099304 .4498291 .2979889 .5709076H.2999878V.22570801H.09098816Z"/>
<path id="font_2_3" d="M.4850006 .13195801 .45700074 .13696289C.43598939 .08299255 .41600038 .07598877 .37599183 .07598877H.11999512C.13598633 .1279602 .19499207 .19892884 .28799439 .2658844 .38398744 .33584596 .45799256 .38082887 .45799256 .49276734 .45799256 .63168337 .3659973 .6796875 .26098634 .6796875 .12399292 .6796875 .052993776 .5967102 .052993776 .54473879 .052993776 .51075747 .09098816 .49476625 .10798645 .49476625 .12599182 .49476625 .1329956 .50476077 .13699341 .5217438 .15299988 .5897064 .19198609 .64468386 .2539978 .64468386 .33099366 .64468386 .35299684 .5797119 .35299684 .50675967 .35299684 .3998108 .29899598 .33984376 .21199036 .26289369 .08898926 .15594483 .04598999 .08798218 .026992798 .009994507L.036987306 0H.45098878L.4850006 .13195801Z"/>
<path id="font_2_2" d="M.43699647 0V.0289917L.35299684 .035995485C.33198548 .037994386 .31999208 .04598999 .31999208 .08496094V.67367556L.31498719 .6796875 .10899353 .6446991V.6197052L.20199585 .6087036C.21899414 .6067047 .22599793 .5987091 .22599793 .56973269V.08496094C.22599793 .065979007 .22299195 .053985597 .21699524 .04698181 .21199036 .039993287 .20399475 .036987306 .19299317 .035995485L.10899353 .0289917V0H.43699647Z"/>
<path id="font_2_7" d="M.36698915 .35102845V.46794129C.33399964 .49194337 .2829895 .5019531 .23799134 .5019531 .12998963 .5019531 .056991579 .45095826 .055999757 .35603334 .056991579 .27308656 .12399292 .2361145 .20698548 .21113587 .2519989 .19714356 .31498719 .17416382 .31498719 .10621643 .31498719 .055252077 .2749939 .023269654 .22200012 .023269654 .14099121 .023269654 .09599304 .082229617 .07598877 .16716004H.04699707L.056991579 .03627014C.09298706 .004272461 .1539917-.01171875 .21299744-.01171875 .33198548-.01171875 .3999939 .051254274 .3999939 .13618469 .3999939 .2241211 .34599305 .26409913 .24299622 .29606629 .20199585 .30906678 .13598633 .3300476 .13598633 .3860016 .13699341 .43795777 .17599488 .46694947 .22599793 .46694947 .29699708 .46694947 .33099366 .4119873 .33799745 .35102845H.36698915Z"/>
<path id="font_2_5" d="M.036987306 .47694398V.45195008L.07499695 .4469452C.100997928 .4429474 .10699463 .43795777 .10699463 .40194703V.08699036C.10699463 .035995485 .10398865 .033996583 .03199768 .0289917V0H.27598573V.0289917C.20498657 .033996583 .20098877 .035995485 .20098877 .08699036V.49609376L.19400025 .5020752 .036987306 .47694398M.15299988 .71484377C.116989139 .71484377 .09199524 .6888428 .09199524 .65283206 .09199524 .61782839 .116989139 .5928345 .15299988 .5928345 .18998719 .5928345 .21299744 .61782839 .21398926 .65283206 .21398926 .6888428 .18998719 .71484377 .15299988 .71484377Z"/>
<path id="font_2_6" d="M.5289917 .34295655C.5289917 .4439392 .47399903 .5019531 .38198854 .5019531 .30799867 .5019531 .2619934 .46594239 .19999695 .4259491L.18598938 .5019531 .036987306 .47694398V.45195008L.07499695 .4469452C.100997928 .4429474 .10699463 .4379425 .10699463 .40194703V.08699036C.10699463 .035995485 .10398865 .033996583 .03199768 .0289917V0H.27598573V.0289917C.20498657 .033996583 .20098877 .035995485 .20098877 .08699036V.32095338C.20098877 .34596253 .20298767 .35995484 .21099854 .37594605 .23199463 .4149475 .2769928 .44795228 .32998658 .44795228 .397995 .44795228 .43499757 .40994264 .43499757 .32295228V.08699036C.43499757 .035995485 .43199159 .033996583 .3600006 .0289917V0H.60398867V.0289917C.5329895 .033996583 .5289917 .035995485 .5289917 .08699036V.34295655Z"/>
</defs>
<path transform="matrix(1.00002,0,0,-1.00003,39.49315,24.760262)" d="M-38.26857-12.75616V22.9611H0V-12.75616ZM0 22.9611" fill="#d9d9ec"/>
<path transform="matrix(1.00002,0,0,-1.00003,39.49315,24.760262)" stroke-width=".3985" stroke-linecap="butt" stroke-miterlimit="10" stroke-linejoin="miter" fill="none" stroke="#000000" d="M-38.26857 0H46.31442"/>
<path transform="matrix(1.00002,0,0,-1.00003,85.808498,24.760262)" stroke-width=".31879" stroke-linecap="round" stroke-linejoin="round" fill="none" stroke="#000000" d="M-1.19551 1.59401C-1.09587 .99626 0 .09961 .29886 0 0-.09961-1.09587-.99626-1.19551-1.59401"/>
<path transform="matrix(1.00002,0,0,-1.00003,39.49315,24.760262)" stroke-width=".3985" stroke-linecap="butt" stroke-miterlimit="10" stroke-linejoin="miter" fill="none" stroke="#000000" d="M0-12.75616V22.50282"/>
<path transform="matrix(0,-1.00003,-1.00002,-0,39.49315,2.2567673)" stroke-width=".31879" stroke-linecap="round" stroke-linejoin="round" fill="none" stroke="#000000" d="M-1.19551 1.59401C-1.09587 .99626 0 .09961 .29886 0 0-.09961-1.09587-.99626-1.19551-1.59401"/>
<use data-text="t" xlink:href="#font_1_1" transform="matrix(7.332647,0,0,-7.3327205,83.00403,32.678499)"/>
<path transform="matrix(1.00002,0,0,-1.00003,39.49315,24.760262)" stroke-width=".79701" stroke-linecap="butt" stroke-miterlimit="10" stroke-linejoin="miter" fill="none" stroke="#929292" d="M-34.0165 1.70079V-1.70079"/>
<use data-text="-" xlink:href="#font_2_1" transform="matrix(7.332647,0,0,-7.3327205,2.0923997,33.06951)"/>
<use data-text="4" xlink:href="#font_2_4" transform="matrix(7.332647,0,0,-7.3327205,4.966797,33.06951)"/>
<path transform="matrix(1.00002,0,0,-1.00003,39.49315,24.760262)" stroke-width=".79701" stroke-linecap="butt" stroke-miterlimit="10" stroke-linejoin="miter" fill="none" stroke="#929292" d="M-17.00824 1.70079V-1.70079"/>
<use data-text="-" xlink:href="#font_2_1" transform="matrix(7.332647,0,0,-7.3327205,19.100739,33.06951)"/>
<use data-text="2" xlink:href="#font_2_3" transform="matrix(7.332647,0,0,-7.3327205,21.975136,33.06951)"/>
<path transform="matrix(1.00002,0,0,-1.00003,39.49315,24.760262)" stroke-width=".79701" stroke-linecap="butt" stroke-miterlimit="10" stroke-linejoin="miter" fill="none" stroke="#929292" d="M17.00824 1.70079V-1.70079"/>
<use data-text="2" xlink:href="#font_2_3" transform="matrix(7.332647,0,0,-7.3327205,54.55645,33.06951)"/>
<path transform="matrix(1.00002,0,0,-1.00003,39.49315,24.760262)" stroke-width=".79701" stroke-linecap="butt" stroke-miterlimit="10" stroke-linejoin="miter" fill="none" stroke="#929292" d="M34.0165 1.70079V-1.70079"/>
<use data-text="4" xlink:href="#font_2_4" transform="matrix(7.332647,0,0,-7.3327205,71.56579,33.06951)"/>
<path transform="matrix(1.00002,0,0,-1.00003,39.49315,24.760262)" stroke-width=".3985" stroke-linecap="butt" stroke-miterlimit="10" stroke-linejoin="miter" fill="none" stroke="#929292" d="M.85045-8.50412H-.85045"/>
<use data-text="-" xlink:href="#font_2_1" transform="matrix(7.332647,0,0,-7.3327205,30.177964,35.71959)"/>
<use data-text="1" xlink:href="#font_2_2" transform="matrix(7.332647,0,0,-7.3327205,33.05236,35.71959)"/>
<path transform="matrix(1.00002,0,0,-1.00003,39.49315,24.760262)" stroke-width=".3985" stroke-linecap="butt" stroke-miterlimit="10" stroke-linejoin="miter" fill="none" stroke="#929292" d="M.85045 8.50412H-.85045"/>
<use data-text="1" xlink:href="#font_2_2" transform="matrix(7.332647,0,0,-7.3327205,33.055025,18.71108)"/>
<path transform="matrix(1.00002,0,0,-1.00003,39.49315,24.760262)" stroke-width=".3985" stroke-linecap="butt" stroke-miterlimit="10" stroke-linejoin="miter" fill="none" stroke="#929292" d="M.85045 17.00824H-.85045"/>
<use data-text="2" xlink:href="#font_2_3" transform="matrix(7.332647,0,0,-7.3327205,33.055025,10.206824)"/>
<path transform="matrix(1.00002,0,0,-1.00003,39.49315,24.760262)" stroke-width="1.19553" stroke-linecap="butt" stroke-miterlimit="10" stroke-linejoin="miter" fill="none" stroke="#8080bf" d="M-38.26857 8.31285-37.889 8.22447-37.50945 8.11963-37.1299 7.99907-36.75034 7.86205-36.37079 7.70996-35.99123 7.54192-35.61168 7.35934-35.23212 7.16173-34.85257 6.9502-34.473 6.72455-34.09346 6.48566-33.7139 6.23378-33.33435 5.96947-32.95477 5.69345-32.57523 5.40578-32.19566 5.10783-31.8161 4.79913-31.43655 4.48122-31.05699 4.15433-30.67744 3.81903-30.29788 3.47632-29.91833 3.1265-29.53877 2.77068-29.15923 2.40903-28.77966 2.04271-28.40012 1.6725-28.02055 1.29877-27.64099 .92247-27.26144 .54446-26.8819 .1653-26.50233-.21396-26.12277-.59312-25.74323-.971-25.36366-1.34692-24.98412-1.72025-24.60455-2.08995-24.225-2.45587-23.84543-2.81662-23.46588-3.1719-23.08632-3.52057-22.70677-3.86263-22.32721-4.19678-21.94765-4.5226-21.5681-4.83936-21.18855-5.14664-20.80899-5.44339-20.42943-5.72952-20.04988-6.00423-19.67032-6.26674-19.29077-6.51718-18.91121-6.7544-18.53166-6.97809-18.1521-7.18806-17.77255-7.3836-17.39299-7.5645-17.01344-7.7302-16.63388-7.88072-16.25432-8.01541-15.87477-8.13428-15.49522-8.23666-15.11565-8.32283-14.73608-8.39238-14.35654-8.44519-13.97697-8.48114-13.59743-8.50035-13.21786-8.5028-12.83832-8.48776-12.45876-8.45636-12.07921-8.40756-11.69965-8.34256-11.32008-8.26067-10.94054-8.16231-10.56097-8.04787-10.18143-7.91719-9.80186-7.77107-9.42232-7.60901-9.04276-7.43227-8.66321-7.24022-8.28365-7.03416-7.9041-6.81396-7.52454-6.58012-7.14497-6.33318-6.76543-6.07365-6.38588-5.80232-6.0063-5.51892-5.62674-5.225-5.2472-4.92032-4.86763-4.60591-4.48808-4.28241-4.10852-3.95035-3.72897-3.6105-3.34941-3.26324-2.96986-2.90979-2.5903-2.55034-2.21075-2.18584-1.83119-1.8168-1.45163-1.44438-1.07208-1.0691-.69254-.69162"/>
<path transform="matrix(1.00002,0,0,-1.00003,39.49315,24.760262)" stroke-width="1.19553" stroke-linecap="butt" stroke-miterlimit="10" stroke-linejoin="miter" fill="none" stroke="#000000" d="M0 0H.47232 .94466 1.41698 1.88933 2.36166 2.83398 3.30634 3.77867 4.251 4.72334 5.19568 5.66801 6.14037 6.61269 7.08502 7.55737 8.0297 8.50203 8.97438 9.44672 9.91904 10.39139 10.86372 11.33604 11.80838 12.28073 12.75307 13.22539 13.69774 14.17007 14.6424 15.11475 15.58708 16.05942 16.53175 17.00409 17.47643 17.94876 18.4211 18.89343 19.36578 19.8381 20.31044 20.78279 21.25511 21.72745 22.1998 22.67213 23.14445 23.61679 24.08914 24.56146 25.0338 25.50615 25.97849 26.4508 26.92316 27.3955 27.86781 28.34016 28.8125 29.28484 29.75717 30.2295 30.70184 31.17418 31.64651 32.11885 32.5912 33.06352 33.53586 34.0082 34.48053 34.95287 35.4252 35.89754 36.36987 36.84221 37.31454 37.78688 38.25922 38.73157 39.20389 39.67622 40.14857 40.6209 41.09323 41.56558 42.03792 42.51024 42.98259 43.45493 43.92725 44.3996 44.87193 45.34427 45.81659 46.28894 45.80486"/>
<path transform="matrix(1.00002,0,0,-1.00003,85.29892,24.760262)" stroke-width=".9564" stroke-linecap="round" stroke-linejoin="round" fill="none" stroke="#000000" d="M-1.91284 2.55046C-1.75343 1.59402 0 .15938 .4782 0 0-.15938-1.75343-1.59402-1.91284-2.55046"/>
<path transform="matrix(1.00002,0,0,-1.00003,39.49315,24.760262)" stroke-width=".79701" stroke-linecap="butt" stroke-miterlimit="10" stroke-linejoin="miter" fill="none" stroke="#8080bf" d="M1.19554 0C1.19554 .66028 .66028 1.19554 0 1.19554-.66028 1.19554-1.19554 .66028-1.19554 0-1.19554-.66028-.66028-1.19554 0-1.19554 .66028-1.19554 1.19554-.66028 1.19554 0ZM0 0"/>
<path transform="matrix(1.00002,0,0,-1.00003,39.49315,24.760262)" d="M1.49442 0C1.49442 .82535 .82535 1.49442 0 1.49442-.82535 1.49442-1.49442 .82535-1.49442 0-1.49442-.82535-.82535-1.49442 0-1.49442 .82535-1.49442 1.49442-.82535 1.49442 0ZM0 0"/>
<use data-text="s" xlink:href="#font_2_7" transform="matrix(7.332647,0,0,-7.3327205,13.3136219,18.818083)" fill="#000080"/>
<use data-text="i" xlink:href="#font_2_5" transform="matrix(7.332647,0,0,-7.3327205,16.510659,18.818083)" fill="#000080"/>
<use data-text="n" xlink:href="#font_2_6" transform="matrix(7.332647,0,0,-7.3327205,18.644455,18.818083)" fill="#000080"/>
<use data-text="t" xlink:href="#font_1_1" transform="matrix(7.332647,0,0,-7.3327205,24.119843,18.818083)" fill="#000080"/>
</svg>
