<svg xmlns="http://www.w3.org/2000/svg" xmlns:xlink="http://www.w3.org/1999/xlink" version="1.1" width="185" height="142" viewBox="0 0 185 142">
<defs>
<path id="font_1_2" d="M.42799378 .45222474 .43899537 .49023438H.31199647L.34599305 .6092224 .33399964 .6162262 .23699951 .53923037 .22399903 .49023438H.14299011L.13198853 .45222474H.21499634L.125 .08627319C.10998535 .029266358 .12199402-.01171875 .17199707-.01171875 .2519989-.01171875 .31599427 .054275514 .35598756 .1292572L.33399964 .1462555C.31098939 .10726929 .2599945 .040267946 .22898865 .040267946 .20799256 .040267946 .20799256 .0632782 .21398926 .088272098L.30299378 .45222474H.42799378Z"/>
<path id="font_1_1" d="M.43199159 .49023438H.3019867L.32998658 .6031952C.34899903 .67918398 .36799623 .70718386 .3959961 .70718386 .4229889 .70718386 .44099427 .68518069 .46299745 .6371918 .46798707 .62719729 .47499085 .6201935 .48999024 .6201935 .5099945 .6201935 .5389862 .6391907 .5389862 .6641846 .5389862 .70718386 .4850006 .7421875 .4249878 .7421875 .3600006 .7421875 .31799317 .71517947 .2849884 .67318728 .2539978 .63420107 .23399353 .5802002 .21998596 .5272217L.20999146 .49023438H.12298584L.11199951 .45222474H.20098877L.084991458-.137146C.07299805-.19918823 .06298828-.2052002 .052993776-.2052002 .041992189-.2052002 .026992798-.19718933 0-.15615845-.007003784-.14616394-.014007568-.13415528-.027008057-.13415528-.04901123-.13415528-.072006229-.15916443-.072006229-.18418885-.071014408-.2171936-.028015137-.2421875 .018997193-.2421875 .11898804-.2421875 .16099549-.16116333 .20298767 .030960083L.29599 .45222474H.42199708L.43199159 .49023438Z"/>
<path id="font_2_1" d="M.1749878 .2822113C.1749878 .56832888 .2619934 .65437319 .32499696 .66737368V.6923828C.1499939 .685379 .10499573 .46829225 .10499573 .2822113 .10499573 .09614563 .1499939-.12094116 .32499696-.12792969V-.10293579C.2669983-.090927127 .1749878-.0059051516 .1749878 .2822113Z"/>
<path id="font_2_2" d="M.1749878 .2822113C.1749878-.0059051516 .08299255-.090927127 .024993897-.10293579V-.12792969C.19999695-.12094116 .24499512 .09614563 .24499512 .2822113 .24499512 .46829225 .19999695 .685379 .024993897 .6923828V.66737368C.08799744 .65437319 .1749878 .56832888 .1749878 .2822113Z"/>
<path id="font_2_3" d="M.07398987 .2861328V.21612549H.31900025V.2861328H.07398987Z"/>
<path id="font_2_6" d="M.43699647 0V.0289917L.35299684 .035995485C.33198548 .037994386 .31999208 .04598999 .31999208 .08496094V.67367556L.31498719 .6796875 .10899353 .6446991V.6197052L.20199585 .6087036C.21899414 .6067047 .22599793 .5987091 .22599793 .56973269V.08496094C.22599793 .065979007 .22299195 .053985597 .21699524 .04698181 .21199036 .039993287 .20399475 .036987306 .19299317 .035995485L.10899353 .0289917V0H.43699647Z"/>
<path id="font_2_5" d="M.2649994 .64468386C.3600006 .64468386 .3869934 .49682618 .3869934 .33398438 .3869934 .17112732 .3600006 .023269654 .2649994 .023269654 .16999817 .023269654 .14299011 .17112732 .14299011 .33398438 .14299011 .49682618 .16999817 .64468386 .2649994 .64468386M.2649994 .6796875C.099990848 .6796875 .040985109 .53378298 .040985109 .33398438 .040985109 .13417053 .099990848-.01171875 .2649994-.01171875 .42999269-.01171875 .4889984 .13417053 .4889984 .33398438 .4889984 .53378298 .42999269 .6796875 .2649994 .6796875Z"/>
<path id="font_2_7" d="M.4850006 .13195801 .45700074 .13696289C.43598939 .08299255 .41600038 .07598877 .37599183 .07598877H.11999512C.13598633 .1279602 .19499207 .19892884 .28799439 .2658844 .38398744 .33584596 .45799256 .38082887 .45799256 .49276734 .45799256 .63168337 .3659973 .6796875 .26098634 .6796875 .12399292 .6796875 .052993776 .5967102 .052993776 .54473879 .052993776 .51075747 .09098816 .49476625 .10798645 .49476625 .12599182 .49476625 .1329956 .50476077 .13699341 .5217438 .15299988 .5897064 .19198609 .64468386 .2539978 .64468386 .33099366 .64468386 .35299684 .5797119 .35299684 .50675967 .35299684 .3998108 .29899598 .33984376 .21199036 .26289369 .08898926 .15594483 .04598999 .08798218 .026992798 .009994507L.036987306 0H.45098878L.4850006 .13195801Z"/>
<path id="font_2_8" d="M.12998963 .3657837C.12998963 .3487854 .1349945 .33779908 .147995 .33779908 .1599884 .33779908 .18699646 .34777833 .23498535 .34777833 .31999208 .34777833 .36799623 .27090455 .36799623 .18403626 .36799623 .065216068 .30899049 .023269654 .23799134 .023269654 .17199707 .023269654 .1289978 .07319641 .10998535 .12911988 .10398865 .14808655 .09399414 .15707398 .07998657 .15707398 .06199646 .15707398 .026992798 .13809204 .026992798 .10215759 .026992798 .05921936 .09599304-.01171875 .23699951-.01171875 .38198854-.01171875 .47299195 .06121826 .47299195 .18902588 .47299195 .32281495 .35798646 .3627777 .30299378 .3677826V.3717804C.35699464 .38078309 .44400025 .4207611 .44400025 .5197296 .44400025 .6306915 .35699464 .6796875 .25 .6796875 .117996219 .6796875 .052993776 .60369876 .052993776 .5607147 .052993776 .5297241 .08799744 .51272585 .101989749 .51272585 .114990238 .51272585 .12298584 .5197296 .1269989 .5327301 .14898682 .60069277 .18699646 .64468386 .24299622 .64468386 .32199098 .64468386 .34098817 .57470706 .34098817 .51872256 .34098817 .4587555 .31999208 .38378907 .23498535 .38378907 .18699646 .38378907 .1599884 .39378358 .147995 .39378358 .1349945 .39378358 .12998963 .38378907 .12998963 .3657837Z"/>
<path id="font_2_9" d="M.2999878 .17871094V.0769043C.2999878 .04296875 .2889862 .036987306 .2649994 .034988405L.20098877 .0289917V0H.46499635V.0289917L.41999818 .033981325C.39698792 .036987306 .3899994 .04296875 .3899994 .0769043V.17871094H.49299623V.22570801H.3899994V.66796877H.31698609C.22299195 .5298767 .11099243 .35577394 .018997193 .19970703L.027999878 .17871094H.2999878M.09098816 .22570801C.15098572 .33476258 .22099304 .4498291 .2979889 .5709076H.2999878V.22570801H.09098816Z"/>
<path id="font_2_10" d="M.42599488 .5919647 .44999696 .6599579 .44499208 .66796877H.11099243L.100997928 .65896609 .08099365 .32388307 .10499573 .31188966C.14698792 .35983277 .18798828 .3828125 .24198914 .3828125 .30599977 .3828125 .37599183 .3358612 .37599183 .20404053 .37599183 .10116577 .33399964 .023269654 .24699402 .023269654 .1769867 .023269654 .14099121 .07420349 .12098694 .13113404 .115997318 .14611817 .10699463 .15510559 .09298706 .15510559 .07299805 .15510559 .039993287 .13513184 .039993287 .10217285 .039993287 .056228639 .10998535-.01171875 .23999024-.01171875 .40499879-.01171875 .47999574 .0881958 .47999574 .21502686 .47999574 .35484315 .3919983 .4268036 .272995 .4268036 .21798706 .4268036 .15899658 .4028015 .1269989 .3738098L.125 .37580873 .147995 .56292727C.15098572 .58795168 .1579895 .5919647 .1769867 .5919647H.42599488Z"/>
<path id="font_2_11" d="M.27198792-.01171875C.41999818-.01171875 .49899293 .07821655 .49899293 .2140503 .49899293 .3488922 .4119873 .42385865 .30799867 .421875 .23199463 .42385865 .17199707 .36886598 .14498902 .33590699H.14299011C.14399719 .5557556 .20698548 .64468386 .29699708 .64468386 .34298707 .64468386 .375 .6057129 .3899994 .5487671 .3929901 .5367737 .40098573 .527771 .41600038 .527771 .43798829 .527771 .46899415 .5447693 .46899415 .57273867 .46899415 .6127014 .41999818 .6796875 .2999878 .6796875 .22099304 .6796875 .16499329 .64967349 .12298584 .6017151 .07798767 .5497589 .04399109 .45384217 .04399109 .3089447 .04399109 .093185428 .12199402-.01171875 .27198792-.01171875M.27398683 .37086488C.33699037 .37086488 .39898683 .31393434 .39898683 .19906616 .39898683 .094192508 .35798646 .023269654 .27398683 .023269654 .18699646 .023269654 .14498902 .11616516 .14498902 .23602295 .14498902 .2969513 .18998719 .37086488 .27398683 .37086488Z"/>
<path id="font_2_4" d="M.1329956-.01171875C.17199707-.01171875 .19499207 .015274048 .19599915 .05126953 .19599915 .088272098 .17199707 .11627197 .1329956 .11627197 .09498596 .11627197 .069992069 .088272098 .069992069 .05126953 .069992069 .015274048 .09498596-.01171875 .1329956-.01171875Z"/>
<path id="font_2_12" d="M.22898865 .26757813C.29100038 .26757813 .34298707 .30256654 .3769989 .35157777H.3789978C.3789978 .28857423 .37399293 .20774842 .35598756 .13894654 .33799745 .073135379 .30299378 .023269654 .23899842 .023269654 .17098999 .023269654 .1459961 .0761261 .1309967 .12298584 .1269989 .13595581 .11999512 .1439209 .102996829 .1439209 .083999637 .1439209 .055999757 .12397766 .055999757 .09307861 .055999757 .049194337 .10899353-.01171875 .22999573-.01171875 .31098939-.01171875 .37298585 .01828003 .41099549 .071136478 .45199586 .12797547 .47698976 .2157135 .47698976 .36058045 .47698976 .48461915 .45199586 .56565859 .41299439 .6126709 .375 .6576843 .31999208 .6796875 .2559967 .6796875 .12799073 .6796875 .035995485 .5946655 .035995485 .45661927 .035995485 .3315735 .12599182 .26757813 .22898865 .26757813M.25898744 .3205719C.18099976 .3205719 .13598633 .38859559 .13598633 .48461915 .13598633 .57666018 .1769867 .64468386 .25498963 .64468386 .33499146 .64468386 .37399293 .5496521 .37399293 .45262147 .37399293 .4356079 .37298585 .41560365 .36698915 .39959718 .35099793 .35258485 .31199647 .3205719 .25898744 .3205719Z"/>
<path id="font_3_1" d="M.6349945 .07472229 .17298889 .28173829 .6349945 .48875428V.5517578L.084991458 .31674195V.24673462L.6349945 .01171875V.07472229Z"/>
</defs>
<path transform="matrix(1.00002,0,0,-1.00005,36.508035,86.156658)" d="M-34.01628-43.08716V68.0326H22.67752V-43.08716ZM22.67752 68.0326" fill="#f2f2ff"/>
<path transform="matrix(1.00002,0,0,-1.00005,36.508035,86.156658)" d="M22.67752-43.08716V68.0326H90.71013V-43.08716ZM90.71013 68.0326" fill="#f2fff2"/>
<path transform="matrix(1.00002,0,0,-1.00005,36.508035,86.156658)" d="M90.71013-43.08716V68.0326H147.40396V-43.08716ZM147.40396 68.0326" fill="#fff2f2"/>
<path transform="matrix(1.00002,0,0,-1.00005,36.508035,86.156658)" stroke-width=".3985" stroke-linecap="butt" stroke-miterlimit="10" stroke-linejoin="miter" fill="none" stroke="#000000" d="M-34.01628 0H142.41025"/>
<path transform="matrix(1.00002,0,0,-1.00005,178.92115,86.156658)" stroke-width=".31879" stroke-linecap="round" stroke-linejoin="round" fill="none" stroke="#000000" d="M-1.19551 1.59401C-1.09587 .99626 0 .09961 .29886 0 0-.09961-1.09587-.99626-1.19551-1.59401"/>
<use data-text="t" xlink:href="#font_1_2" transform="matrix(10.036601,0,0,-10.036901,177.24085,82.67048)"/>
<path transform="matrix(1.00002,0,0,-1.00005,36.508035,86.156658)" stroke-width=".3985" stroke-linecap="butt" stroke-miterlimit="10" stroke-linejoin="miter" fill="none" stroke="#000000" d="M0-54.42593V78.91307"/>
<path transform="matrix(0,-1.00005,-1.00002,-0,36.508035,7.2396395)" stroke-width=".31879" stroke-linecap="round" stroke-linejoin="round" fill="none" stroke="#000000" d="M-1.19551 1.59401C-1.09587 .99626 0 .09961 .29886 0 0-.09961-1.09587-.99626-1.19551-1.59401"/>
<use data-text="f" xlink:href="#font_1_1" transform="matrix(10.036601,0,0,-10.036901,15.763618,9.2988209)"/>
<use data-text="(" xlink:href="#font_2_1" transform="matrix(10.036601,0,0,-10.036901,21.370736,9.2988209)"/>
<use data-text="t" xlink:href="#font_1_2" transform="matrix(10.036601,0,0,-10.036901,25.101815,9.2988209)"/>
<use data-text=")" xlink:href="#font_2_2" transform="matrix(10.036601,0,0,-10.036901,29.59591,9.2988209)"/>
<path transform="matrix(1.00002,0,0,-1.00005,36.508035,86.156658)" stroke-width=".3985" stroke-linecap="butt" stroke-miterlimit="10" stroke-linejoin="miter" fill="none" stroke="#b5b5b5" d="M-22.67752 2.26787V-2.26787"/>
<use data-text="-" xlink:href="#font_2_3" transform="matrix(9.165783,0,0,-9.166058,9.600494,99.0943)"/>
<use data-text="1" xlink:href="#font_2_6" transform="matrix(9.165783,0,0,-9.166058,13.193489,99.0943)"/>
<path transform="matrix(1.00002,0,0,-1.00005,36.508035,86.156658)" stroke-width=".3985" stroke-linecap="butt" stroke-miterlimit="10" stroke-linejoin="miter" fill="none" stroke="#b5b5b5" d="M0 2.26787V-2.26787"/>
<use data-text="0" xlink:href="#font_2_5" transform="matrix(9.165783,0,0,-9.166058,34.07699,99.0943)"/>
<path transform="matrix(1.00002,0,0,-1.00005,36.508035,86.156658)" stroke-width=".3985" stroke-linecap="butt" stroke-miterlimit="10" stroke-linejoin="miter" fill="none" stroke="#b5b5b5" d="M22.67752 2.26787V-2.26787"/>
<use data-text="1" xlink:href="#font_2_6" transform="matrix(9.165783,0,0,-9.166058,56.75544,99.0943)"/>
<path transform="matrix(1.00002,0,0,-1.00005,36.508035,86.156658)" stroke-width=".3985" stroke-linecap="butt" stroke-miterlimit="10" stroke-linejoin="miter" fill="none" stroke="#b5b5b5" d="M45.35506 2.26787V-2.26787"/>
<use data-text="2" xlink:href="#font_2_7" transform="matrix(9.165783,0,0,-9.166058,79.43289,99.0943)"/>
<path transform="matrix(1.00002,0,0,-1.00005,36.508035,86.156658)" stroke-width=".3985" stroke-linecap="butt" stroke-miterlimit="10" stroke-linejoin="miter" fill="none" stroke="#b5b5b5" d="M68.0326 2.26787V-2.26787"/>
<use data-text="3" xlink:href="#font_2_8" transform="matrix(9.165783,0,0,-9.166058,102.11134,99.0943)"/>
<path transform="matrix(1.00002,0,0,-1.00005,36.508035,86.156658)" stroke-width=".3985" stroke-linecap="butt" stroke-miterlimit="10" stroke-linejoin="miter" fill="none" stroke="#b5b5b5" d="M90.71013 2.26787V-2.26787"/>
<use data-text="4" xlink:href="#font_2_9" transform="matrix(9.165783,0,0,-9.166058,124.7888,99.0943)"/>
<path transform="matrix(1.00002,0,0,-1.00005,36.508035,86.156658)" stroke-width=".3985" stroke-linecap="butt" stroke-miterlimit="10" stroke-linejoin="miter" fill="none" stroke="#b5b5b5" d="M113.38766 2.26787V-2.26787"/>
<use data-text="5" xlink:href="#font_2_10" transform="matrix(9.165783,0,0,-9.166058,147.46726,99.0943)"/>
<path transform="matrix(1.00002,0,0,-1.00005,36.508035,86.156658)" stroke-width=".3985" stroke-linecap="butt" stroke-miterlimit="10" stroke-linejoin="miter" fill="none" stroke="#b5b5b5" d="M136.0652 2.26787V-2.26787"/>
<use data-text="6" xlink:href="#font_2_11" transform="matrix(9.165783,0,0,-9.166058,170.14472,99.0943)"/>
<path transform="matrix(1.00002,0,0,-1.00005,36.508035,86.156658)" stroke-width=".3985" stroke-linecap="butt" stroke-miterlimit="10" stroke-linejoin="miter" fill="none" stroke="#b5b5b5" d="M2.26787-43.08716H-2.26787"/>
<use data-text="-" xlink:href="#font_2_3" transform="matrix(9.165783,0,0,-9.166058,13.955582,132.28997)"/>
<use data-text="1" xlink:href="#font_2_6" transform="matrix(9.165783,0,0,-9.166058,17.548577,132.28997)"/>
<use data-text="." xlink:href="#font_2_4" transform="matrix(9.165783,0,0,-9.166058,22.40644,132.28997)"/>
<use data-text="9" xlink:href="#font_2_12" transform="matrix(9.165783,0,0,-9.166058,24.844536,132.28997)"/>
<path transform="matrix(1.00002,0,0,-1.00005,36.508035,86.156658)" stroke-width=".3985" stroke-linecap="butt" stroke-miterlimit="10" stroke-linejoin="miter" fill="none" stroke="#b5b5b5" d="M2.26787-20.40962H-2.26787"/>
<use data-text="-" xlink:href="#font_2_3" transform="matrix(9.165783,0,0,-9.166058,13.955582,109.610828)"/>
<use data-text="0" xlink:href="#font_2_5" transform="matrix(9.165783,0,0,-9.166058,17.548577,109.610828)"/>
<use data-text="." xlink:href="#font_2_4" transform="matrix(9.165783,0,0,-9.166058,22.40644,109.610828)"/>
<use data-text="9" xlink:href="#font_2_12" transform="matrix(9.165783,0,0,-9.166058,24.844536,109.610828)"/>
<path transform="matrix(1.00002,0,0,-1.00005,36.508035,86.156658)" stroke-width=".3985" stroke-linecap="butt" stroke-miterlimit="10" stroke-linejoin="miter" fill="none" stroke="#b5b5b5" d="M2.26787 2.26787H-2.26787"/>
<use data-text="0" xlink:href="#font_2_5" transform="matrix(9.165783,0,0,-9.166058,17.552659,86.93269)"/>
<use data-text="." xlink:href="#font_2_4" transform="matrix(9.165783,0,0,-9.166058,22.410523,86.93269)"/>
<use data-text="1" xlink:href="#font_2_6" transform="matrix(9.165783,0,0,-9.166058,24.839463,86.93269)"/>
<path transform="matrix(1.00002,0,0,-1.00005,36.508035,86.156658)" stroke-width=".3985" stroke-linecap="butt" stroke-miterlimit="10" stroke-linejoin="miter" fill="none" stroke="#b5b5b5" d="M2.26787 24.9454H-2.26787"/>
<use data-text="1" xlink:href="#font_2_6" transform="matrix(9.165783,0,0,-9.166058,17.552659,64.253559)"/>
<use data-text="." xlink:href="#font_2_4" transform="matrix(9.165783,0,0,-9.166058,22.410523,64.253559)"/>
<use data-text="1" xlink:href="#font_2_6" transform="matrix(9.165783,0,0,-9.166058,24.839463,64.253559)"/>
<path transform="matrix(1.00002,0,0,-1.00005,36.508035,86.156658)" stroke-width=".3985" stroke-linecap="butt" stroke-miterlimit="10" stroke-linejoin="miter" fill="none" stroke="#b5b5b5" d="M2.26787 47.62294H-2.26787"/>
<use data-text="2" xlink:href="#font_2_7" transform="matrix(9.165783,0,0,-9.166058,17.552659,41.575429)"/>
<use data-text="." xlink:href="#font_2_4" transform="matrix(9.165783,0,0,-9.166058,22.410523,41.575429)"/>
<use data-text="1" xlink:href="#font_2_6" transform="matrix(9.165783,0,0,-9.166058,24.839463,41.575429)"/>
<path transform="matrix(1.00002,0,0,-1.00005,36.508035,86.156658)" stroke-width="1.19553" stroke-linecap="butt" stroke-miterlimit="10" stroke-linejoin="miter" fill="none" stroke="#0000ff" d="M-34.01628 51.02443-33.73738 50.19084-33.45847 49.36452-33.17957 48.5451-32.90068 47.73228-32.62177 46.92638-32.34286 46.12738-32.06398 45.33533-31.78506 44.55017-31.50616 43.7716-31.22728 43.0003-30.94836 42.23558-30.66946 41.47777-30.39055 40.72687-30.11166 39.98256-29.83275 39.24551-29.55385 38.51505-29.27496 37.79149-28.99606 37.07484-28.71715 36.36514-28.43826 35.66235-28.15935 34.96614-27.88045 34.27686-27.60155 33.59447-27.32265 32.919-27.04373 32.25049-26.76483 31.58853-26.48593 30.93382-26.20703 30.2857-25.92813 29.64452-25.64925 29.01024-25.37033 28.38287-25.09143 27.7621-24.81253 27.14825-24.53363 26.54164-24.25471 25.94162-23.97583 25.34818-23.69691 24.76201-23.41801 24.1824-23.13911 23.61008-22.86023 23.04431-22.58131 22.48547-22.30241 21.93321-22.02351 21.3882-21.74461 20.84978-21.4657 20.3186-21.18681 19.79404-20.90791 19.27635-20.629 18.76529-20.35011 18.26146-20.0712 17.7642-19.7923 17.27388-19.5134 16.79047-19.23451 16.314-18.9556 15.84442-18.6767 15.38142-18.3978 14.9257-18.1189 14.47656-17.83998 14.03433-17.5611 13.59868-17.28218 13.17029-17.00328 12.74883-16.72438 12.33394-16.4455 11.92596-16.16658 11.52492-15.88768 11.13043-15.60878 10.74323-15.32988 10.3626-15.05096 9.98921-14.77208 9.62242-14.49316 9.26256-14.21426 8.90926-13.93536 8.56323-13.65646 8.22375-13.37756 7.89124-13.09866 7.56561-12.81976 7.24692-12.54086 6.93513-12.26195 6.62994-11.98306 6.33167-11.70415 6.04065-11.42525 5.75587-11.14635 5.47835-10.86745 5.20775-10.58855 4.94374-10.30966 4.68663-10.03075 4.4368-9.75185 4.1932-9.47293 3.95685-9.19405 3.72743-8.91515 3.5046-8.63623 3.28867-8.35735 3.07965-8.07843 2.8776-7.79953 2.68242-7.52063 2.49384-7.24174 2.3125-6.96283 2.13777-6.68394 1.96994-6.40503 1.8087-6.12613 1.65471-5.84721 1.50763-5.56833 1.36716-5.28941 1.23358-5.01051 1.10693-4.73161 .98721-4.45271 .87405-4.1738 .76817-3.89493 .66887-3.61601 .57646-3.33711 .491-3.05821 .41211-2.77931 .34047-2.5004 .27542-2.2215 .21729-1.9426 .16608-1.6637 .1218-1.38478 .08441-1.1059 .05362-.827 .03009-.5481 .01312-.2692 .0031 .00966 0 .28857 .00345 .56747 .01416 .84637 .03148 1.12527 .0557 1.40419 .08682 1.68307 .1249 1.96199 .16953 2.24088 .22108 2.51978 .27992 2.79868 .34532 3.07759 .41763 3.35648 .49654 3.63539 .5827 3.91429 .67543 4.1932 .7751 4.47209 .88167 4.75099 .99518 5.0299 1.11559 5.30879 1.24257 5.58769 1.3765 5.86661 1.51733 6.1455 1.66508 6.42441 1.81976 6.70331 1.98135 6.9822 2.14952 7.26111 2.32462 7.54001 2.50664 7.81892 2.69556 8.09781 2.89142 8.37672 3.0942 8.65561 3.30354 8.93451 3.5198 9.21341 3.74301 9.49232 3.97311 9.77121 4.21014 10.05013 4.45377 10.32903 4.70428 10.60793 4.96207 10.88683 5.22644 11.16574 5.49738 11.44464 5.77559 11.72353 6.06038 12.00243 6.35243 12.28134 6.65106 12.56023 6.9566 12.83914 7.26872 13.11804 7.5881 13.39694 7.91406 13.67584 8.2473 13.95476 8.5871 14.23366 8.93349 14.51256 9.28712 14.79144 9.64769 15.07036 10.01483 15.34924 10.38889 15.62816 10.76988 15.90706 11.15778 16.18596 11.5526 16.46486 11.954 16.74377 12.3623 17.02266 12.7779 17.30156 13.1997 17.58047 13.62878 17.85938 14.06479 18.13826 14.50735 18.41718 14.95718 18.69608 15.41364 18.97496 15.8766 19.25388 16.34686 19.53278 16.82404 19.81168 17.3078 20.09058 17.79846 20.36949 18.29607 20.64838 18.80057 20.92729 19.31201 21.20618 19.83002 21.48509 20.35529"/>
<path transform="matrix(1.00002,0,0,-1.00005,36.508035,86.156658)" stroke-width="1.19553" stroke-linecap="butt" stroke-miterlimit="10" stroke-linejoin="miter" fill="none" stroke="#009900" d="M22.67752 68.0326 23.0135 67.6966 23.34952 67.36058 23.6855 67.0246 24.0215 66.6886 24.3575 66.3526 24.6935 66.0166 25.02948 65.6806 25.36548 65.34462 25.70149 65.0086 26.03749 64.6726 26.37347 64.33662 26.70947 64.00063 27.04547 63.66463 27.38145 63.32863 27.71747 62.99263 28.05347 62.65663 28.38947 62.32063 28.72546 61.98463 29.06145 61.64865 29.39746 61.31264 29.73343 60.97665 30.06944 60.64066 30.40544 60.30464 30.74144 59.96866 31.07742 59.63266 31.41342 59.29668 31.74944 58.96066 32.08542 58.62468 32.42142 58.28868 32.75742 57.95267 33.09343 57.61667 33.4294 57.28069 33.76541 56.94469 34.10141 56.60869 34.4374 56.2727 34.7734 55.93669 35.10939 55.6007 35.4454 55.26471 35.78137 54.92871 36.11739 54.59271 36.45338 54.2567 36.78937 53.92073 37.12538 53.58472 37.46138 53.24872 37.79736 52.91273 38.13336 52.57672 38.46936 52.24074 38.80536 51.90472 39.14136 51.56874 39.47736 51.23274 39.81335 50.89674 40.14934 50.56076 40.48534 50.22476 40.82135 49.88875 41.15733 49.55275 41.49333 49.21677 41.82933 48.88077 42.16533 48.54477 42.50133 48.20877 42.83731 47.87279 43.17332 47.53677 43.50932 47.20078 43.8453 46.86479 44.1813 46.52878 44.5173 46.1928 44.8533 45.8568 45.1893 45.5208 45.5253 45.1848 45.8613 44.8488 46.19728 44.51282 46.53328 44.1768 46.8693 43.8408 47.20528 43.50482 47.54128 43.16882 47.87729 42.83281 48.21326 42.49684 48.54927 42.16083 48.88525 41.82483 49.22127 41.48883 49.55725 41.15283 49.89325 40.81685 50.22926 40.48083 50.56523 40.14487 50.90125 39.80885 51.23724 39.47285 51.57324 39.13686 51.90923 38.80086 52.24524 38.46486 52.58122 38.12886 52.91722 37.79288 53.25322 37.45688 53.58922 37.12088 53.92523 36.78487 54.2612 36.44888 54.59721 36.11288 54.9332 35.77689 55.2692 35.4409 55.6052 35.10489 55.9412 34.7689 56.2772 34.43289 56.61319 34.09691 56.94919 33.76091 57.28519 33.4249 57.62117 33.08893 57.95717 32.75291 58.29318 32.41692 58.62918 32.08092 58.96516 31.74493 59.30116 31.40894 59.63716 31.07292 59.97316 30.73694 60.30914 30.40094 60.64516 30.06494 60.98114 29.72896 61.31714 29.39296 61.65315 29.05695 61.98914 28.72096 62.32513 28.38496 62.66113 28.04897 62.99713 27.71297 63.33311 27.37697 63.66911 27.04099 64.00513 26.70497 64.34113 26.36897 64.67711 26.03299 65.0131 25.69699 65.3491 25.361 65.68509 25.025 66.0211 24.689 66.3571 24.353 66.6931 24.017 67.0291 23.681 67.36508 23.34502 67.7011 23.009 68.03706 22.67302 68.37308 22.33702 68.70908 22.001 69.04507 21.66502 69.38107 21.32903 69.71706 20.99304 70.05307 20.65703 70.38905 20.32104 70.72505 19.98505 71.06105 19.64903 71.39706 19.31305 71.73305 18.97705 72.06905 18.64105 72.40504 18.30505 72.74103 17.96907 73.07704 17.63306 73.41302 17.29706 73.74902 16.96107 74.085 16.62508 74.42102 16.28908 74.75702 15.95306 75.093 15.6171 75.42902 15.28108 75.76501 14.94508 76.101 14.6091 76.437 14.27309 76.773 13.9371 77.109 13.60109 77.44499 13.2651 77.78099 12.92911 78.11699 12.59311 78.45297 12.25713 78.78897 11.92111 79.12498 11.58511 79.46097 11.24911 79.79697 10.91313 80.13297 10.57713 80.46896 10.24113 80.80496 9.90514 81.14095 9.56915 81.47696 9.23314 81.81296 8.89714 82.14894 8.56116 82.48494 8.22514 82.82094 7.88916 83.15694 7.55316 83.49294 7.21716 83.82893 6.88116 84.16493 6.54518 84.50092 6.20918 84.83691 5.87317 85.17293 5.53717 85.50891 5.20119 85.84491 4.86519 86.18092 4.52917 86.51689 4.1932 86.8529 3.8572 87.18889 3.5212 87.5249 3.1852 87.86089 2.8492 88.19688 2.51321 88.5329 2.1772 88.86887 1.84123 89.20488 1.50522 89.54088 1.16922"/>
<path transform="matrix(1.00002,0,0,-1.00005,36.508035,86.156658)" stroke-width="1.19553" stroke-linecap="butt" stroke-miterlimit="10" stroke-linejoin="miter" fill="none" stroke="#b30000" d="M90.71013-22.67752H90.9949 91.2797 91.56445 91.84926 92.13405 92.41882 92.7036 92.98839 93.27318 93.55797 93.84273 94.12753 94.41231 94.6971 94.98187 95.26666 95.55145 95.83623 96.121 96.4058 96.69058 96.97537 97.26015 97.54494 97.82973 98.1145 98.39928 98.68408 98.96886 99.25365 99.5384 99.82321 100.108 100.39278 100.67755 100.96234 101.24713 101.53192 101.81668 102.10149 102.38626 102.67105 102.95583 103.24062 103.5254 103.81018 104.09496 104.37976 104.66454 104.94933 105.2341 105.51889 105.80368 106.08846 106.37323 106.65804 106.94281 107.2276 107.51236 107.79716 108.08195 108.36673 108.6515 108.9363 109.22108 109.50587 109.79063 110.07544 110.36021 110.645 110.92978 111.21457 111.49936 111.78413 112.06891 112.35371 112.63849 112.92328 113.20807 113.49284 113.77763 114.06241 114.3472 114.63199 114.91676 115.20155 115.48633 115.77112 116.05591 116.34068 116.62547 116.91025 117.19504 117.47983 117.7646 118.0494 118.33417 118.61896 118.90375 119.18852 119.47331 119.7581 120.04288 120.32767 120.61244 120.89723 121.18202 121.4668 121.75159 122.03636 122.32115 122.60594 122.89072 123.1755 123.46028 123.74507 124.02986 124.31464 124.59943 124.8842 125.16899 125.45378 125.73856 126.02335 126.30812 126.59291 126.8777 127.16248 127.44727 127.73206 128.01683 128.30162 128.5864 128.87119 129.15598 129.44075 129.72554 130.01032 130.2951 130.5799 130.86467 131.14946 131.43424 131.71903 132.00382 132.28859 132.57338 132.85816 133.14295 133.42774 133.71251 133.9973 134.28209 134.56687 134.85166 135.13643 135.42122 135.70601 135.99079 136.27558 136.56035 136.84516 137.12993 137.4147 137.6995 137.98429 138.26906 138.55385 138.83863 139.12343 139.40819 139.69298 139.97777 140.26256 140.54734 140.8321 141.1169 141.4017 141.68647 141.97126 142.25605 142.54084 142.8256 143.11038 143.39517 143.67998 143.96474 144.24953 144.5343 144.8191 145.10388 145.38866 145.67345 145.95824 146.24301 146.5278 146.81258 147.09738 147.38214"/>
<path transform="matrix(1.00002,0,0,-1.00005,36.508035,86.156658)" stroke-width=".79701" stroke-linecap="butt" stroke-miterlimit="10" stroke-linejoin="miter" fill="none" stroke="#0000ff" d="M24.27156 22.67752C24.27156 23.55789 23.55789 24.27156 22.67752 24.27156 21.79713 24.27156 21.08347 23.55789 21.08347 22.67752 21.08347 21.79713 21.79713 21.08347 22.67752 21.08347 23.55789 21.08347 24.27156 21.79713 24.27156 22.67752ZM22.67752 22.67752"/>
<path transform="matrix(1.00002,0,0,-1.00005,36.508035,86.156658)" d="M24.27156 68.0326C24.27156 68.91296 23.55789 69.62663 22.67752 69.62663 21.79713 69.62663 21.08347 68.91296 21.08347 68.0326 21.08347 67.1522 21.79713 66.43854 22.67752 66.43854 23.55789 66.43854 24.27156 67.1522 24.27156 68.0326ZM22.67752 68.0326" fill="#009900"/>
<path transform="matrix(1.00002,0,0,-1.00005,36.508035,86.156658)" stroke-width=".79701" stroke-linecap="butt" stroke-miterlimit="10" stroke-linejoin="miter" fill="none" stroke="#009900" d="M92.30417 0C92.30417 .88037 91.5905 1.59404 90.71013 1.59404 89.82974 1.59404 89.11607 .88037 89.11607 0 89.11607-.88037 89.82974-1.59404 90.71013-1.59404 91.5905-1.59404 92.30417-.88037 92.30417 0ZM90.71013 0"/>
<path transform="matrix(1.00002,0,0,-1.00005,36.508035,86.156658)" d="M92.30417-22.67752C92.30417-21.79713 91.5905-21.08347 90.71013-21.08347 89.82974-21.08347 89.11607-21.79713 89.11607-22.67752 89.11607-23.55789 89.82974-24.27156 90.71013-24.27156 91.5905-24.27156 92.30417-23.55789 92.30417-22.67752ZM90.71013-22.67752" fill="#b30000"/>
<use data-text="t" xlink:href="#font_1_2" transform="matrix(10.036601,0,0,-10.036901,24.639794,122.44946)"/>
<use data-text="&#x003c;" xlink:href="#font_3_1" transform="matrix(10.036601,0,0,-10.036901,31.000924,122.44946)"/>
<use data-text="t" xlink:href="#font_1_2" transform="matrix(10.036601,0,0,-10.036901,40.308107,122.44946)"/>
<use data-text="1" xlink:href="#font_2_6" transform="matrix(7.6076529,0,0,-7.60788,44.06118,124.08655)"/>
<use data-text="t" xlink:href="#font_1_2" transform="matrix(9.165783,0,0,-9.166058,73.42577,122.25246)" fill="#929292"/>
<use data-text="1" xlink:href="#font_2_6" transform="matrix(6.9660398,0,0,-6.966248,76.852848,123.74754)" fill="#929292"/>
<use data-text="&#x003c;" xlink:href="#font_3_1" transform="matrix(9.165783,0,0,-9.166058,82.75096,122.25246)" fill="#929292"/>
<use data-text="t" xlink:href="#font_1_2" transform="matrix(9.165783,0,0,-9.166058,91.25014,122.25246)" fill="#929292"/>
<use data-text="&#x003c;" xlink:href="#font_3_1" transform="matrix(9.165783,0,0,-9.166058,97.05925,122.25246)" fill="#929292"/>
<use data-text="t" xlink:href="#font_1_2" transform="matrix(9.165783,0,0,-9.166058,105.559429,122.25246)" fill="#929292"/>
<use data-text="2" xlink:href="#font_2_7" transform="matrix(6.9660398,0,0,-6.966248,108.98649,123.74754)" fill="#929292"/>
<use data-text="t" xlink:href="#font_1_2" transform="matrix(10.036601,0,0,-10.036901,138.02907,122.44946)"/>
<use data-text="2" xlink:href="#font_2_7" transform="matrix(7.6076529,0,0,-7.60788,141.78214,124.08655)"/>
<use data-text="&#x003c;" xlink:href="#font_3_1" transform="matrix(10.036601,0,0,-10.036901,148.18228,122.44946)"/>
<use data-text="t" xlink:href="#font_1_2" transform="matrix(10.036601,0,0,-10.036901,157.48847,122.44946)"/>
</svg>
