<svg xmlns="http://www.w3.org/2000/svg" xmlns:xlink="http://www.w3.org/1999/xlink" version="1.1" width="172" height="141" viewBox="0 0 172 141">
<defs>
<path id="font_1_2" d="M.2649994 .64468386C.3600006 .64468386 .3869934 .49682618 .3869934 .33398438 .3869934 .17112732 .3600006 .023269654 .2649994 .023269654 .16999817 .023269654 .14299011 .17112732 .14299011 .33398438 .14299011 .49682618 .16999817 .64468386 .2649994 .64468386M.2649994 .6796875C.099990848 .6796875 .040985109 .53378298 .040985109 .33398438 .040985109 .13417053 .099990848-.01171875 .2649994-.01171875 .42999269-.01171875 .4889984 .13417053 .4889984 .33398438 .4889984 .53378298 .42999269 .6796875 .2649994 .6796875Z"/>
<path id="font_1_3" d="M.43699647 0V.0289917L.35299684 .035995485C.33198548 .037994386 .31999208 .04598999 .31999208 .08496094V.67367556L.31498719 .6796875 .10899353 .6446991V.6197052L.20199585 .6087036C.21899414 .6067047 .22599793 .5987091 .22599793 .56973269V.08496094C.22599793 .065979007 .22299195 .053985597 .21699524 .04698181 .21199036 .039993287 .20399475 .036987306 .19299317 .035995485L.10899353 .0289917V0H.43699647Z"/>
<path id="font_1_4" d="M.4850006 .13195801 .45700074 .13696289C.43598939 .08299255 .41600038 .07598877 .37599183 .07598877H.11999512C.13598633 .1279602 .19499207 .19892884 .28799439 .2658844 .38398744 .33584596 .45799256 .38082887 .45799256 .49276734 .45799256 .63168337 .3659973 .6796875 .26098634 .6796875 .12399292 .6796875 .052993776 .5967102 .052993776 .54473879 .052993776 .51075747 .09098816 .49476625 .10798645 .49476625 .12599182 .49476625 .1329956 .50476077 .13699341 .5217438 .15299988 .5897064 .19198609 .64468386 .2539978 .64468386 .33099366 .64468386 .35299684 .5797119 .35299684 .50675967 .35299684 .3998108 .29899598 .33984376 .21199036 .26289369 .08898926 .15594483 .04598999 .08798218 .026992798 .009994507L.036987306 0H.45098878L.4850006 .13195801Z"/>
<path id="font_1_5" d="M.12998963 .3657837C.12998963 .3487854 .1349945 .33779908 .147995 .33779908 .1599884 .33779908 .18699646 .34777833 .23498535 .34777833 .31999208 .34777833 .36799623 .27090455 .36799623 .18403626 .36799623 .065216068 .30899049 .023269654 .23799134 .023269654 .17199707 .023269654 .1289978 .07319641 .10998535 .12911988 .10398865 .14808655 .09399414 .15707398 .07998657 .15707398 .06199646 .15707398 .026992798 .13809204 .026992798 .10215759 .026992798 .05921936 .09599304-.01171875 .23699951-.01171875 .38198854-.01171875 .47299195 .06121826 .47299195 .18902588 .47299195 .32281495 .35798646 .3627777 .30299378 .3677826V.3717804C.35699464 .38078309 .44400025 .4207611 .44400025 .5197296 .44400025 .6306915 .35699464 .6796875 .25 .6796875 .117996219 .6796875 .052993776 .60369876 .052993776 .5607147 .052993776 .5297241 .08799744 .51272585 .101989749 .51272585 .114990238 .51272585 .12298584 .5197296 .1269989 .5327301 .14898682 .60069277 .18699646 .64468386 .24299622 .64468386 .32199098 .64468386 .34098817 .57470706 .34098817 .51872256 .34098817 .4587555 .31999208 .38378907 .23498535 .38378907 .18699646 .38378907 .1599884 .39378358 .147995 .39378358 .1349945 .39378358 .12998963 .38378907 .12998963 .3657837Z"/>
<path id="font_1_1" d="M.1329956-.01171875C.17199707-.01171875 .19499207 .015274048 .19599915 .05126953 .19599915 .088272098 .17199707 .11627197 .1329956 .11627197 .09498596 .11627197 .069992069 .088272098 .069992069 .05126953 .069992069 .015274048 .09498596-.01171875 .1329956-.01171875Z"/>
<path id="font_1_6" d="M.42599488 .5919647 .44999696 .6599579 .44499208 .66796877H.11099243L.100997928 .65896609 .08099365 .32388307 .10499573 .31188966C.14698792 .35983277 .18798828 .3828125 .24198914 .3828125 .30599977 .3828125 .37599183 .3358612 .37599183 .20404053 .37599183 .10116577 .33399964 .023269654 .24699402 .023269654 .1769867 .023269654 .14099121 .07420349 .12098694 .13113404 .115997318 .14611817 .10699463 .15510559 .09298706 .15510559 .07299805 .15510559 .039993287 .13513184 .039993287 .10217285 .039993287 .056228639 .10998535-.01171875 .23999024-.01171875 .40499879-.01171875 .47999574 .0881958 .47999574 .21502686 .47999574 .35484315 .3919983 .4268036 .272995 .4268036 .21798706 .4268036 .15899658 .4028015 .1269989 .3738098L.125 .37580873 .147995 .56292727C.15098572 .58795168 .1579895 .5919647 .1769867 .5919647H.42599488Z"/>
<clipPath id="clip_2">
<path transform="matrix(.80002406,0,0,-.800072,27.772477,120.12638)" d="M-16.1902-13.4504H178.08252V147.94641H-16.1902Z"/>
</clipPath>
</defs>
<path transform="matrix(.80002406,0,0,-.800072,27.772477,120.12638)" stroke-width=".19925" stroke-linecap="butt" stroke-miterlimit="10" stroke-linejoin="miter" fill="none" stroke="#929292" d="M23.12752-13.4504V-9.19876M69.38258-13.4504V-9.19876M115.63763-13.4504V-9.19876M161.8927-13.4504V-9.19876M23.12752 147.94641V143.69475M69.38258 147.94641V143.69475M115.63763 147.94641V143.69475M161.8927 147.94641V143.69475"/>
<path transform="matrix(.80002406,0,0,-.800072,27.772477,120.12638)" stroke-width=".19925" stroke-linecap="butt" stroke-miterlimit="10" stroke-linejoin="miter" fill="none" stroke="#929292" d="M-16.1902-4.18787H-11.93848M-16.1902 37.87067H-11.93848M-16.1902 79.92921H-11.93848M-16.1902 121.98776H-11.93848M178.08252-4.18787H173.83078M178.08252 37.87067H173.83078M178.08252 79.92921H173.83078M178.08252 121.98776H173.83078"/>
<path transform="matrix(.80002406,0,0,-.800072,27.772477,120.12638)" stroke-width=".3985" stroke-linecap="butt" stroke-miterlimit="10" stroke-linejoin="miter" fill="none" stroke="#000000" d="M-16.1902-13.4504V147.94641H178.08252V-13.4504H-16.1902Z"/>
<use data-text="0" xlink:href="#font_1_2" transform="matrix(8.029361,0,0,-8.029842,44.145769,138.98328)"/>
<use data-text="1" xlink:href="#font_1_3" transform="matrix(8.029361,0,0,-8.029842,81.15088,138.98328)"/>
<use data-text="2" xlink:href="#font_1_4" transform="matrix(8.029361,0,0,-8.029842,118.15599,138.98328)"/>
<use data-text="3" xlink:href="#font_1_5" transform="matrix(8.029361,0,0,-8.029842,155.1611,138.98328)"/>
<use data-text="0" xlink:href="#font_1_2" transform="matrix(8.029361,0,0,-8.029842,7.8414766,126.14372)"/>
<use data-text="0" xlink:href="#font_1_2" transform="matrix(8.029361,0,0,-8.029842,1.4532852,92.48069)"/>
<use data-text="." xlink:href="#font_1_1" transform="matrix(8.029361,0,0,-8.029842,5.708847,92.48069)"/>
<use data-text="5" xlink:href="#font_1_6" transform="matrix(8.029361,0,0,-8.029842,7.836624,92.48069)"/>
<use data-text="1" xlink:href="#font_1_3" transform="matrix(8.029361,0,0,-8.029842,7.8414766,58.865667)"/>
<use data-text="1" xlink:href="#font_1_3" transform="matrix(8.029361,0,0,-8.029842,1.4532852,25.181038)"/>
<use data-text="." xlink:href="#font_1_1" transform="matrix(8.029361,0,0,-8.029842,5.708847,25.181038)"/>
<use data-text="5" xlink:href="#font_1_6" transform="matrix(8.029361,0,0,-8.029842,7.836624,25.181038)"/>
<g clip-path="url(#clip_2)">
<path transform="matrix(.80002406,0,0,-.800072,27.772477,120.12638)" stroke-width=".3985" stroke-linecap="butt" stroke-miterlimit="10" stroke-linejoin="miter" fill="none" stroke="#000000" d="M0 134.49599 6.7455 115.67563 13.49101 99.40906 20.23653 85.35309 26.98204 73.21751 33.72755 62.71716 40.47307 53.63084 47.21858 45.7886 53.9641 39.00793 60.70961 33.14328 67.45512 28.0786 74.20064 23.70282 80.94615 19.91672 87.69167 16.6437 94.43718 13.81737 101.1827 11.36873 107.9282 9.25739 114.67372 7.43037 121.41922 5.85738 128.16474 4.49384 134.91025 3.31679 141.65576 2.29837 148.40128 1.41818 155.14679 .65747 161.8923 0"/>
</g>
</svg>
