<svg xmlns="http://www.w3.org/2000/svg" xmlns:xlink="http://www.w3.org/1999/xlink" version="1.1" width="203" height="85" viewBox="0 0 203 85">
<defs>
<path id="font_1_2" d="M.42799378 .45222474 .43899537 .49023438H.31199647L.34599305 .6092224 .33399964 .6162262 .23699951 .53923037 .22399903 .49023438H.14299011L.13198853 .45222474H.21499634L.125 .08627319C.10998535 .029266358 .12199402-.01171875 .17199707-.01171875 .2519989-.01171875 .31599427 .054275514 .35598756 .1292572L.33399964 .1462555C.31098939 .10726929 .2599945 .040267946 .22898865 .040267946 .20799256 .040267946 .20799256 .0632782 .21398926 .088272098L.30299378 .45222474H.42799378Z"/>
<path id="font_2_3" d="M.07398987 .2861328V.21612549H.31900025V.2861328H.07398987Z"/>
<path id="font_2_6" d="M.4850006 .13195801 .45700074 .13696289C.43598939 .08299255 .41600038 .07598877 .37599183 .07598877H.11999512C.13598633 .1279602 .19499207 .19892884 .28799439 .2658844 .38398744 .33584596 .45799256 .38082887 .45799256 .49276734 .45799256 .63168337 .3659973 .6796875 .26098634 .6796875 .12399292 .6796875 .052993776 .5967102 .052993776 .54473879 .052993776 .51075747 .09098816 .49476625 .10798645 .49476625 .12599182 .49476625 .1329956 .50476077 .13699341 .5217438 .15299988 .5897064 .19198609 .64468386 .2539978 .64468386 .33099366 .64468386 .35299684 .5797119 .35299684 .50675967 .35299684 .3998108 .29899598 .33984376 .21199036 .26289369 .08898926 .15594483 .04598999 .08798218 .026992798 .009994507L.036987306 0H.45098878L.4850006 .13195801Z"/>
<path id="font_2_5" d="M.43699647 0V.0289917L.35299684 .035995485C.33198548 .037994386 .31999208 .04598999 .31999208 .08496094V.67367556L.31498719 .6796875 .10899353 .6446991V.6197052L.20199585 .6087036C.21899414 .6067047 .22599793 .5987091 .22599793 .56973269V.08496094C.22599793 .065979007 .22299195 .053985597 .21699524 .04698181 .21199036 .039993287 .20399475 .036987306 .19299317 .035995485L.10899353 .0289917V0H.43699647Z"/>
<path id="font_2_4" d="M.2649994 .64468386C.3600006 .64468386 .3869934 .49682618 .3869934 .33398438 .3869934 .17112732 .3600006 .023269654 .2649994 .023269654 .16999817 .023269654 .14299011 .17112732 .14299011 .33398438 .14299011 .49682618 .16999817 .64468386 .2649994 .64468386M.2649994 .6796875C.099990848 .6796875 .040985109 .53378298 .040985109 .33398438 .040985109 .13417053 .099990848-.01171875 .2649994-.01171875 .42999269-.01171875 .4889984 .13417053 .4889984 .33398438 .4889984 .53378298 .42999269 .6796875 .2649994 .6796875Z"/>
<path id="font_3_2" d="M.6349945 .07472229 .17298889 .28173829 .6349945 .48875428V.5517578L.084991458 .31674195V.24673462L.6349945 .01171875V.07472229Z"/>
<path id="font_3_1" d="M.6349945-.0078125V.050186159H.084991458V-.0078125H.6349945M.084991458 .14318848 .6349945 .32221986V.39222718L.084991458 .5722656V.5092468L.5469971 .3572235 .084991458 .20620728V.14318848Z"/>
<path id="font_1_1" d="M.18699646 .6923828 .17999268 .66337588 .23899842 .658371C.2619934 .6563721 .2689972 .64237979 .26098634 .609375L.1769867 .25634767C.12998963 .05734253 .23799134-.0146484379 .4099884-.0146484379 .54599-.0146484379 .67099 .014343262 .7259979 .24736023L.8109894 .609375C.81900027 .6433716 .8279877 .6563721 .8529968 .658371L.9079895 .66337588 .9149933 .6923828H.6409912L.6339874 .66337588 .69299319 .658371C.71598818 .6563721 .72299197 .64237979 .71499636 .609375L.6339874 .26036073C.6029968 .12734986 .55400088 .020339966 .4149933 .020339966 .3039856 .020339966 .23399353 .081344608 .27799989 .26934815L.35699464 .609375C.36499024 .6433716 .37399293 .65737918 .39898683 .65937808L.45399476 .66337588 .46099855 .6923828H.18699646Z"/>
<path id="font_2_1" d="M.1749878 .2822113C.1749878 .56832888 .2619934 .65437319 .32499696 .66737368V.6923828C.1499939 .685379 .10499573 .46829225 .10499573 .2822113 .10499573 .09614563 .1499939-.12094116 .32499696-.12792969V-.10293579C.2669983-.090927127 .1749878-.0059051516 .1749878 .2822113Z"/>
<path id="font_2_2" d="M.1749878 .2822113C.1749878-.0059051516 .08299255-.090927127 .024993897-.10293579V-.12792969C.19999695-.12094116 .24499512 .09614563 .24499512 .2822113 .24499512 .46829225 .19999695 .685379 .024993897 .6923828V.66737368C.08799744 .65437319 .1749878 .56832888 .1749878 .2822113Z"/>
<path id="font_2_10" d="M.18998719 .7480469C.13999939 .7020416 .07199097 .6350403 .07199097 .56404116 .07199097 .5100403 .10398865 .47703553 .13699341 .4780426 .16699219 .4780426 .18499756 .4990387 .18499756 .5260315 .18499756 .56204226 .1519928 .58303835 .1519928 .6200409 .1519928 .6580353 .17599488 .6960449 .20698548 .7320404L.18998719 .7480469M.36999513 .7480469C.31999208 .7020416 .2519989 .6350403 .2519989 .56404116 .2519989 .5100403 .28399659 .47703553 .31698609 .4780426 .34700013 .4780426 .36499024 .4990387 .36499024 .5260315 .36499024 .56204226 .33198548 .58303835 .33198548 .6200409 .33198548 .6580353 .35598756 .6960449 .3869934 .7320404L.36999513 .7480469Z"/>
<path id="font_2_9" d="M.28799439 .5019531C.12799073 .5019531 .04899597 .40698243 .04899597 .24510193 .04899597 .083236698 .12799073-.01171875 .28799439-.01171875 .44999696-.01171875 .5279999 .083236698 .5279999 .24510193 .5279999 .40698243 .44999696 .5019531 .28799439 .5019531M.15299988 .24510193C.15299988 .38301087 .19699097 .46694947 .28799439 .46694947 .3809967 .46694947 .42399598 .38301087 .42399598 .24510193 .42399598 .10720825 .3809967 .023269654 .28799439 .023269654 .19699097 .023269654 .15299988 .10720825 .15299988 .24510193Z"/>
<path id="font_2_7" d="M.20098877 .45022584H.32299806V.49023438H.20098877L.19699097 .60220339C.19400025 .6971741 .22898865 .70718386 .24499512 .70718386 .2659912 .70718386 .28799439 .6971741 .31298829 .6391907 .31799317 .62919619 .32499696 .6221924 .33999635 .6221924 .3600006 .6221924 .3889923 .6391907 .3889923 .66918948 .3889923 .70217898 .34700013 .7421875 .2669983 .7421875 .21199036 .7421875 .16499329 .71717837 .13999939 .67918398 .116989139 .64419558 .10699463 .5912018 .10699463 .5252228V.49023438H.02999878V.45022584H.10699463V.087020877C.10699463 .035995485 .10398865 .033996583 .03199768 .0289917V0H.29599V.0289917C.20498657 .032989503 .20098877 .034988405 .20098877 .08602905V.45022584Z"/>
<path id="font_2_11" d="M.08898926 .47218324C.13899231 .5181732 .20698548 .58517459 .20698548 .6561737 .20698548 .71017459 .1749878 .7431793 .14199829 .7421875 .11199951 .7421875 .09399414 .72117617 .09399414 .69418337 .09399414 .6581726 .1269989 .6371765 .1269989 .60017397 .1269989 .56217959 .102996829 .5241852 .07199097 .48817445L.08898926 .47218324M.2689972 .47218324C.31900025 .5181732 .3869934 .58517459 .3869934 .6561737 .3869934 .71017459 .35499574 .7431793 .32199098 .7421875 .2919922 .7421875 .27398683 .72117617 .27398683 .69418337 .27398683 .6581726 .30699159 .6371765 .30699159 .60017397 .30699159 .56217959 .2829895 .5241852 .2519989 .48817445L.2689972 .47218324Z"/>
<path id="font_2_8" d="M.5289917 .34295655C.5289917 .4439392 .47399903 .5019531 .38198854 .5019531 .30799867 .5019531 .2619934 .46594239 .19999695 .4259491L.18598938 .5019531 .036987306 .47694398V.45195008L.07499695 .4469452C.100997928 .4429474 .10699463 .4379425 .10699463 .40194703V.08699036C.10699463 .035995485 .10398865 .033996583 .03199768 .0289917V0H.27598573V.0289917C.20498657 .033996583 .20098877 .035995485 .20098877 .08699036V.32095338C.20098877 .34596253 .20298767 .35995484 .21099854 .37594605 .23199463 .4149475 .2769928 .44795228 .32998658 .44795228 .397995 .44795228 .43499757 .40994264 .43499757 .32295228V.08699036C.43499757 .035995485 .43199159 .033996583 .3600006 .0289917V0H.60398867V.0289917C.5329895 .033996583 .5289917 .035995485 .5289917 .08699036V.34295655Z"/>
</defs>
<path transform="matrix(1,0,0,-1.00003,100.703998,52.8252)" d="M-99.21382-31.18166V51.02432H0V-31.18166ZM0 51.02432" fill="#d9d9ff"/>
<path transform="matrix(1,0,0,-1.00003,100.703998,52.8252)" d="M0-31.18166V51.02432H99.21382V-31.18166ZM99.21382 51.02432" fill="#d9ffd9"/>
<path transform="matrix(1,0,0,-1.00003,100.703998,52.8252)" stroke-width=".3985" stroke-linecap="butt" stroke-miterlimit="10" stroke-linejoin="miter" fill="none" stroke="#000000" d="M-99.21382 0H98.75554"/>
<path transform="matrix(1,0,0,-1.00003,199.45954,52.8252)" stroke-width=".31879" stroke-linecap="round" stroke-linejoin="round" fill="none" stroke="#000000" d="M-1.19551 1.59401C-1.09587 .99626 0 .09961 .29886 0 0-.09961-1.09587-.99626-1.19551-1.59401"/>
<use data-text="t" xlink:href="#font_1_2" transform="matrix(9.1656,0,0,-9.165875,197.965,61.87347)"/>
<path transform="matrix(1,0,0,-1.00003,100.703998,52.8252)" stroke-width=".3985" stroke-linecap="butt" stroke-miterlimit="10" stroke-linejoin="miter" fill="none" stroke="#000000" d="M0-31.18166V50.56604"/>
<path transform="matrix(0,-1.00003,-1,-0,100.703998,2.2576409)" stroke-width=".31879" stroke-linecap="round" stroke-linejoin="round" fill="none" stroke="#000000" d="M-1.19551 1.59401C-1.09587 .99626 0 .09961 .29886 0 0-.09961-1.09587-.99626-1.19551-1.59401"/>
<path transform="matrix(1,0,0,-1.00003,100.703998,52.8252)" stroke-width=".3985" stroke-linecap="butt" stroke-miterlimit="10" stroke-linejoin="miter" fill="none" stroke="#b5b5b5" d="M-56.69362 2.83484V-2.83484"/>
<use data-text="-" xlink:href="#font_2_3" transform="matrix(9.1656,0,0,-9.165875,39.78099,64.629558)"/>
<use data-text="2" xlink:href="#font_2_6" transform="matrix(9.1656,0,0,-9.165875,43.3739,64.629558)"/>
<path transform="matrix(1,0,0,-1.00003,100.703998,52.8252)" stroke-width=".3985" stroke-linecap="butt" stroke-miterlimit="10" stroke-linejoin="miter" fill="none" stroke="#b5b5b5" d="M-28.3468 2.83484V-2.83484"/>
<use data-text="-" xlink:href="#font_2_3" transform="matrix(9.1656,0,0,-9.165875,68.12799,64.629558)"/>
<use data-text="1" xlink:href="#font_2_5" transform="matrix(9.1656,0,0,-9.165875,71.7209,64.629558)"/>
<path transform="matrix(1,0,0,-1.00003,100.703998,52.8252)" stroke-width=".3985" stroke-linecap="butt" stroke-miterlimit="10" stroke-linejoin="miter" fill="none" stroke="#b5b5b5" d="M0 2.83484V-2.83484"/>
<use data-text="0" xlink:href="#font_2_4" transform="matrix(9.1656,0,0,-9.165875,98.272998,64.629558)"/>
<path transform="matrix(1,0,0,-1.00003,100.703998,52.8252)" stroke-width=".3985" stroke-linecap="butt" stroke-miterlimit="10" stroke-linejoin="miter" fill="none" stroke="#b5b5b5" d="M28.3468 2.83484V-2.83484"/>
<use data-text="1" xlink:href="#font_2_5" transform="matrix(9.1656,0,0,-9.165875,126.619998,64.629558)"/>
<path transform="matrix(1,0,0,-1.00003,100.703998,52.8252)" stroke-width=".3985" stroke-linecap="butt" stroke-miterlimit="10" stroke-linejoin="miter" fill="none" stroke="#b5b5b5" d="M56.69362 2.83484V-2.83484"/>
<use data-text="2" xlink:href="#font_2_6" transform="matrix(9.1656,0,0,-9.165875,154.967,64.629558)"/>
<path transform="matrix(1,0,0,-1.00003,100.703998,52.8252)" stroke-width=".3985" stroke-linecap="butt" stroke-miterlimit="10" stroke-linejoin="miter" fill="none" stroke="#b5b5b5" d="M2.83484 28.3468H-2.83484"/>
<use data-text="1" xlink:href="#font_2_5" transform="matrix(9.1656,0,0,-9.165875,91.02599,27.54644)"/>
<path transform="matrix(1,0,0,-1.00003,100.703998,52.8252)" stroke-width="1.19553" stroke-linecap="butt" stroke-miterlimit="10" stroke-linejoin="miter" fill="none" stroke="#0000ff" d="M-99.21382 0H-98.72246-98.2311-97.73973-97.24837-96.757-96.26564-95.77428-95.28291-94.79155-94.30019-93.80884-93.31746-92.8261-92.33475-91.84337-91.352-90.86066-90.36928-89.87791-89.38657-88.89519-88.40382-87.91248-87.4211-86.92973-86.43839-85.947-85.45564-84.9643-84.47293-83.98155-83.4902-82.99884-82.50746-82.01611-81.52475-81.03337-80.54202-80.05066-79.55928-79.06793-78.57657-78.0852-77.59384-77.10248-76.61111-76.11975-75.62839-75.13702-74.64566-74.1543-73.66295-73.17157-72.6802-72.18886-71.69748-71.20612-70.71477-70.22339-69.73203-69.24068-68.7493-68.25793-67.76659-67.2752-66.78384-66.2925-65.80112-65.30975-64.8184-64.32704-63.83566-63.34431-62.85295-62.36157-61.87022-61.37886-60.88748-60.39613-59.90477-59.41339-58.92204-58.43068-57.9393-57.44795-56.95659-56.46521-55.97386-55.4825-54.99115-54.49977-54.0084-53.51706-53.02568-52.53432-52.04297-51.55159-51.06023-50.56888-50.0775-49.58614-49.09479-48.60341-48.11205-47.6207-47.12932-46.63795-46.1466-45.65523-45.16386-44.67252-44.18115-43.68977-43.19843-42.70706-42.21568-41.72433-41.23297-40.7416-40.25024-39.75888-39.2675-38.77615-38.28479-37.79341-37.30206-36.8107-36.31932-35.82797-35.33661-34.84525-34.35388-33.86252-33.37117-32.87979-32.38843-31.89708-31.4057-30.91434-30.42299-29.93161-29.44025-28.9489-28.45752-27.96616-27.47481-26.98343-26.49207-26.00072-25.50935-25.01797-24.52663-24.03526-23.54388-23.05254-22.56117-22.0698-21.57845-21.08708-20.5957-20.10435-19.61299-19.12161-18.63026-18.1389-17.64752-17.15617-16.66481-16.17343-15.68208-15.19072-14.69936-14.208-13.71663-13.22527-12.7339-12.24254-11.75117-11.25981-10.76845-10.2771-9.78572-9.29436-8.80301-8.31163-7.82027-7.32892-6.83754-6.34618-5.85483-5.36346-4.87209-4.38074-3.88937-3.398-2.90665-2.41528-1.9239-1.43256"/>
<path transform="matrix(1,0,0,-1.00003,100.703998,52.8252)" stroke-width="1.19553" stroke-linecap="butt" stroke-miterlimit="10" stroke-linejoin="miter" fill="none" stroke="#009900" d="M0 28.3468H.49826 .99655 1.49483 1.99312 2.4914 2.98969 3.48796 3.98625 4.48454 4.98282 5.48111 5.97939 6.47768 6.97595 7.47424 7.97252 8.47081 8.9691 9.46738 9.96567 10.46394 10.96223 11.46051 11.9588 12.45709 12.95537 13.45366 13.95193 14.45021 14.94849 15.44678 15.94505 16.44334 16.94164 17.43991 17.9382 18.43648 18.93477 19.43304 19.93134 20.42961 20.9279 21.4262 21.92447 22.42276 22.92104 23.41933 23.9176 24.4159 24.91418 25.41246 25.91075 26.40903 26.90732 27.4056 27.90388 28.40215 28.90044 29.39873 29.897 30.3953 30.89357 31.39186 31.89014 32.38843 32.8867 33.385 33.88329 34.38156 34.87985 35.37813 35.87642 36.3747 36.87299 37.37128 37.86955 38.36784 38.86612 39.36441 39.86269 40.36098 40.85925 41.35754 41.85583 42.3541 42.85239 43.35066 43.84895 44.34723 44.84552 45.34381 45.84209 46.34038 46.83865 47.33694 47.83522 48.33351 48.83179 49.33008 49.82837 50.32664 50.82494 51.32321 51.8215 52.31978 52.81807 53.31635 53.81464 54.31293 54.8112 55.3095 55.80777 56.30605 56.80432 57.30261 57.8009 58.29918 58.79747 59.29575 59.79404 60.29231 60.7906 61.28888 61.78717 62.28546 62.78374 63.28203 63.7803 64.2786 64.77687 65.27516 65.77344 66.27173 66.77002 67.2683 67.76659 68.26486 68.76315 69.26143 69.75972 70.258 70.75627 71.25456 71.75284 72.25113 72.7494 73.2477 73.74597 74.24426 74.74255 75.24083 75.73912 76.2374 76.73569 77.23396 77.73225 78.23055 78.72882 79.22711 79.72539 80.22368 80.72195 81.22025 81.71852 82.21681 82.7151 83.21338 83.71167 84.20993 84.70822 85.2065 85.70479 86.20306 86.70135 87.19965 87.69792 88.19621 88.69449 89.19278 89.69106 90.18935 90.68764 91.18591 91.6842 92.18248 92.68077 93.17905 93.67734 94.17561 94.6739 95.1722 95.67047 96.16876 96.66704 97.16533 97.6636 98.16188 98.66016 99.15845"/>
<path transform="matrix(1,0,0,-1.00003,100.703998,52.8252)" stroke-width=".79701" stroke-linecap="butt" stroke-miterlimit="10" stroke-linejoin="miter" fill="none" stroke="#0000ff" d="M1.99255 0C1.99255 1.10046 1.10046 1.99255 0 1.99255-1.10046 1.99255-1.99255 1.10046-1.99255 0-1.99255-1.10046-1.10046-1.99255 0-1.99255 1.10046-1.99255 1.99255-1.10046 1.99255 0ZM0 0"/>
<path transform="matrix(1,0,0,-1.00003,100.703998,52.8252)" d="M1.99255 28.3468C1.99255 29.44728 1.10046 30.33936 0 30.33936-1.10046 30.33936-1.99255 29.44728-1.99255 28.3468-1.99255 27.24634-1.10046 26.35425 0 26.35425 1.10046 26.35425 1.99255 27.24634 1.99255 28.3468ZM0 28.3468" fill="#009900"/>
<use data-text="t" xlink:href="#font_1_2" transform="matrix(7.3325,0,0,-7.3327205,43.588006,80.54503)" fill="#0000ff"/>
<use data-text="&#x003c;" xlink:href="#font_3_2" transform="matrix(7.3325,0,0,-7.3327205,48.23501,80.54503)" fill="#0000ff"/>
<use data-text="0" xlink:href="#font_2_4" transform="matrix(7.3325,0,0,-7.3327205,54.875009,80.54503)" fill="#0000ff"/>
<use data-text="t" xlink:href="#font_1_2" transform="matrix(7.3325,0,0,-7.3327205,142.802,80.54503)" fill="#009900"/>
<use data-text="&#x2265;" xlink:href="#font_3_1" transform="matrix(7.3325,0,0,-7.3327205,147.449,80.54503)" fill="#009900"/>
<use data-text="0" xlink:href="#font_2_4" transform="matrix(7.3325,0,0,-7.3327205,154.089,80.54503)" fill="#009900"/>
<use data-text="U" xlink:href="#font_1_1" transform="matrix(9.1656,0,0,-9.165875,141.939,11.683964)" fill="#009900"/>
<use data-text="(" xlink:href="#font_2_1" transform="matrix(9.1656,0,0,-9.165875,150.298,11.683964)" fill="#009900"/>
<use data-text="t" xlink:href="#font_1_2" transform="matrix(9.1656,0,0,-9.165875,153.70499,11.683964)" fill="#009900"/>
<use data-text=")" xlink:href="#font_2_2" transform="matrix(9.1656,0,0,-9.165875,157.81,11.683964)" fill="#009900"/>
<use data-text="&#x201c;" xlink:href="#font_2_10" transform="matrix(7.3325,0,0,-7.3327205,43.345994,41.364854)" fill="#0000ff"/>
<use data-text="o" xlink:href="#font_2_9" transform="matrix(7.3325,0,0,-7.3327205,46.11769,41.364854)" fill="#0000ff"/>
<use data-text="f" xlink:href="#font_2_7" transform="matrix(7.3325,0,0,-7.3327205,50.34854,41.364854)" fill="#0000ff"/>
<use data-text="f" xlink:href="#font_2_7" transform="matrix(7.3325,0,0,-7.3327205,52.687608,41.364854)" fill="#0000ff"/>
<use data-text="&#x201d;" xlink:href="#font_2_11" transform="matrix(7.3325,0,0,-7.3327205,55.488618,41.364854)" fill="#0000ff"/>
<use data-text="&#x201c;" xlink:href="#font_2_10" transform="matrix(7.3325,0,0,-7.3327205,143.16199,41.364854)" fill="#009900"/>
<use data-text="o" xlink:href="#font_2_9" transform="matrix(7.3325,0,0,-7.3327205,145.93369,41.364854)" fill="#009900"/>
<use data-text="n" xlink:href="#font_2_8" transform="matrix(7.3325,0,0,-7.3327205,150.16455,41.364854)" fill="#009900"/>
<use data-text="&#x201d;" xlink:href="#font_2_11" transform="matrix(7.3325,0,0,-7.3327205,154.10944,41.364854)" fill="#009900"/>
</svg>
